<svg version="1.1" viewBox="0 0 64 64" xmlns="http://www.w3.org/2000/svg" xmlns:xlink="http://www.w3.org/1999/xlink">
 <defs>
  <linearGradient id="linearGradient859">
   <stop stop-color="#c9c8b9" offset="0"/>
   <stop stop-color="#e3e2db" offset="1"/>
  </linearGradient>
  <linearGradient id="linearGradient853" x1="23.797" x2="39.593" y1="49.085" y2="44.678" gradientUnits="userSpaceOnUse">
   <stop stop-color="#7ef6de" offset="0"/>
   <stop stop-color="#afe" offset="1"/>
  </linearGradient>
  <linearGradient id="linearGradient861" x1="30.106" x2="35.794" y1="10.883" y2="10.492" gradientUnits="userSpaceOnUse" xlink:href="#linearGradient859"/>
  <linearGradient id="linearGradient869" x1="29.387" x2="36.05" y1="5.418" y2="4.3633" gradientUnits="userSpaceOnUse" xlink:href="#linearGradient859"/>
 </defs>
 <g fill-rule="evenodd">
  <path d="m28.652 14.428c-0.051973 5.538-0.18263 12.246-4.0449 17.225-8.1178 10.46-10.69 31.518 7.6484 31.305 17.84-0.20721 16.803-18.435 8.0312-30.998-3.9191-5.6116-3.3195-11.436-3.377-17.432l-2.9082-0.035156 1.166 0.039062c-0.86672 10.038 0.77173 15.123 4.1328 19.936 7.5212 10.77 8.4083 26.397-6.8867 26.576-15.722 0.18282-13.516-17.871-6.5566-26.84 3.3016-4.2551 4.6131-10.336 4.291-19.758l-1.4961-0.017578z" fill="#e3fbfe" fill-opacity=".50196"/>
  <path d="m32.414 61.042c-15.722 0.18282-13.515-17.87-6.5564-26.839 3.3116-4.268 4.6216-10.369 4.2886-19.839l5.0216 0.16821c-0.86672 10.038 0.77178 15.123 4.1329 19.935 7.5212 10.77 8.4083 26.396-6.8867 26.575z" fill="#eaffff" fill-opacity=".25098" stroke-width="1.4071"/>
  <path d="m32.414 61.042c-15.722 0.18282-13.515-17.87-6.5564-26.839 1.5427-1.9872 2.6505-4.3748 3.3617-7.3126 2.8035 0.37906 5.4193 1.1908 7.0566 1.7682 0.73582 2.1419 1.7579 3.9939 3.0248 5.8083 7.5212 10.77 8.4083 26.396-6.8867 26.575z" fill="url(#linearGradient853)" stroke-width="1.4071"/>
  <path d="m36.732 31.297c1.9644 2.2675 3.5335 5.847 4.457 9.4574 1.2569 2.7618 2.1385 5.6962 2.4297 8.1397 0.30072-2.4634 0.0032-5.6085-0.74633-8.7183-1.5508-3.617-3.7325-7.0047-6.1403-8.8787zm-0.6583-23.62c0.03941 0.95272-0.10576 1.8945-0.28015 2.8143 0.12762 1.1075 0.19919 2.2296 0.45955 3.2781 0.04718-1.0584 0.28088-2.1475 0.46109-3.2546-0.13077-0.9703-0.29505-1.9288-0.64185-2.8382z" fill="#fff" stroke-width="1.4071"/>
 </g>
 <g stroke="#000" stroke-width=".4">
  <path d="m32.255 62.956c-18.338 0.21331-15.765-20.844-7.6476-31.304 3.8623-4.9782 3.9931-11.687 4.0451-17.225l8.258 0.09885c0.05741 5.9959-0.54322 11.822 3.3758 17.433 8.7719 12.563 9.8083 30.789-8.0314 30.997z" fill="none"/>
  <path d="m33.553 1.6481a3.8301 3.5867 14.355 0 0-4.6012 2.5248 3.8301 3.5867 14.355 0 0 2.8227 4.4247 3.8301 3.5867 14.355 0 0 4.5974-2.5272 3.8301 3.5867 14.355 0 0-2.8189-4.4223zm-0.35688 1.3945a2.2936 2.1472 14.355 0 1 1.6882 2.6485 2.2936 2.1472 14.355 0 1-2.754 1.5102 2.2936 2.1472 14.355 0 1-1.6899-2.6475 2.2936 2.1472 14.355 0 1 2.7543-1.5116z" fill="url(#linearGradient869)" stroke-linecap="round"/>
  <path d="m28.036 14.948 9.5478 0.01354-0.05883-8.0732-9.5149-0.039972z" fill="url(#linearGradient861)" fill-rule="evenodd"/>
 </g>
</svg>
