<svg version="1.1" viewBox="0 0 64 64" xmlns="http://www.w3.org/2000/svg" xmlns:xlink="http://www.w3.org/1999/xlink">
 <defs>
  <linearGradient id="linearGradient1136">
   <stop stop-color="#e0b5e0" offset="0"/>
   <stop stop-color="#e7c6e7" offset="1"/>
  </linearGradient>
  <linearGradient id="linearGradient1020" x1="76.703" x2="98.659" y1="49.714" y2="38.113" gradientTransform="matrix(1.1359 0 0 1.1359 -66.176 -3.1397)" gradientUnits="userSpaceOnUse">
   <stop stop-color="#ffcbfd" offset="0"/>
   <stop stop-color="#ffe0fe" offset="1"/>
  </linearGradient>
  <linearGradient id="linearGradient1130" x1="83.654" x2="88.448" y1="20.04" y2="18.362" gradientTransform="matrix(1.1359 0 0 1.1359 -66.176 -3.1397)" gradientUnits="userSpaceOnUse" xlink:href="#linearGradient1136"/>
  <linearGradient id="linearGradient1138" x1="80.678" x2="92.203" y1="44.339" y2="41.695" gradientTransform="matrix(1.1359 0 0 1.1359 -66.176 -3.1397)" gradientUnits="userSpaceOnUse" xlink:href="#linearGradient1136"/>
 </defs>
 <g>
  <path d="m29.176 2.5952-0.03849-1.2144c0.82293-0.59126 6.0314-0.63858 6.5115-0.06986l0.0092 1.2144z" fill="#e5e5e5" stroke="#000" stroke-linecap="round" stroke-linejoin="round" stroke-width=".35"/>
  <path d="m24.388 60.972c0.05234 1.3501 0.8444 1.8556 1.6557 1.9638 4.0803 0.54422 8.2928 0.55959 12.63 0.07701 1.1389-0.12672 1.7725-1.2695 1.8098-2.1563l1.1937-28.417c0.12082-2.8762-1.8161-5.0728-3.1189-7.4315-2.4215-4.3843-2.8275-6.2464-2.8109-9.8574l-0.02956-8.2195c-0.36237-0.21537-0.20984-0.84283 9e-3 -1.0082l-0.02489-2.2986c0.1549-0.1548 0.09625-0.35044 0-0.50524 0.26026-0.12438 0.16088-0.54683-0.0249-0.5597-0.87496-0.48745-4.9212-0.51994-6.5187 0.054455-0.18717 0.2157-0.17579 0.39169 0 0.5348-0.14843 0.17665-0.10402 0.32575 0 0.46633l0.0045 2.2559c0.35197 0.30045 0.27123 1.0105-0.0883 1.1415l0.01125 7.9457c0.0046 3.3617-0.20015 5.7227-2.4643 9.7033-1.355 2.3823-3.4469 5.0075-3.35 7.5085z" fill="url(#linearGradient1020)"/>
  <g stroke="#000">
   <g stroke-width=".28398">
    <path d="m29.202 14.727c1.9825-0.0793 4.103-0.11264 6.5459-0.0385-0.01277 2.1486 0.0996 4.2447 0.7701 6.0261-2.5984-0.03684-5.2955-0.0079-8.0476 0.05776 0.56695-1.9894 0.61911-4.0559 0.7316-6.0453z" fill="url(#linearGradient1130)" stroke-linecap="round" stroke-linejoin="round"/>
    <path d="m23.661 39.207c3.0201-0.39338 3.093-5.5172 8.9323-5.5622 6.0023-0.04625 5.4765 5.1751 8.8205 5.4527l-0.42903 9.3511c-3.0793 0.13614-5.1066 2.5368-8.4588 2.5783-3.4492 0.04263-4.6694-2.2854-8.5374-2.335z" fill="url(#linearGradient1138)" fill-rule="evenodd"/>
    <path d="m29.229 6.9898c1.5556-0.38853 5.1309-0.23526 6.4135-0.076952-0.15663-0.32141-0.19942-0.64011 0.084719-0.99022-0.77996-0.49984-5.6106-0.3766-6.486-0.12995 0.27169 0.22205 0.35335 1.1773-0.01224 1.1971z" fill="#ffbcfc" stroke-linecap="round" stroke-linejoin="round"/>
   </g>
   <g transform="matrix(.12226 -.052463 .053793 .11989 27.19 40.588)" fill="#ffaeae" fill-rule="evenodd">
    <path d="m17.146 36.774c-5.846 2.141-8.256-10.334-5.786-12.517 0.204-2.127 0.636-3.386 0.636-3.386s1.4 0.95 2.604 2.142c3.336-0.241 7.838 11.823 2.546 13.761zm5.124 14.963c-2.663-0.203-4.374-2.82-4.415-4.418-0.131-5.097 2.97-5.752 6.118-9.735 2.483-3.143 4.553-6.885 7.893-7.142 4.866-0.374 6.362 3.053 8.455 6.555 1.672 2.797 4.393 4.43 5.016 6.236 0.955 2.767-0.235 7.828-3.478 8.467-2.64 0.52-4.875-4.975-8.027-5.496-2.632-0.435-8.867 5.74-11.562 5.533zm5.111-24.347c-5.857 1.183-6.416-11.552-3.763-13.317 0.49-2.073 1.075-3.25 1.075-3.25s1.199 1.165 2.179 2.537c3.205 0.296 5.81 12.96 0.51 14.03zm12.34 0.351c-5.284-1.724-1.643-13.637 1.147-13.98 1.078-1.66 1.948-2.457 1.948-2.457s0.628 1.64 1.006 3.364c2.587 1.806 0.682 14.633-4.1 13.073zm8.057 10.476c-4.52-3.68 1.871-13.914 4.572-13.192 1.426-1.211 2.44-1.658 2.44-1.658s0.178 1.836 0.1 3.66c1.974 2.739-3.02 14.52-7.112 11.19z" fill="#ffaeae"/>
   </g>
   <g stroke-linecap="round" stroke-linejoin="round" stroke-width=".11359">
    <path d="m25.259 45.007c-0.35446-0.62968 0.43606-0.9798 0.90496-0.49122-0.15336-0.64722 0.66131-1.2163 1.004-0.55778 0.30207 0.58039-0.15302 1.1043-0.23137 1.8567-0.68403-0.31636-1.3956-0.30664-1.6776-0.8077z" fill="#ffacac"/>
    <path d="m27.402 45.64c0.15819-0.50246 0.73853-0.25656 0.71243 0.23642 0.26779-0.40424 0.97659-0.25463 0.79723 0.25593-0.15809 0.45002-0.66365 0.46918-1.1029 0.8026-0.17276-0.52154-0.53266-0.89513-0.40678-1.295z" fill="#ffc8c8"/>
    <path d="m26.445 47.819c-0.36174-0.22629-0.05081-0.63123 0.33038-0.51043-0.26242-0.29223-8.45e-4 -0.81748 0.36297-0.57291 0.32065 0.21552 0.23276 0.61581 0.40475 1.028-0.44405 0.02928-0.81022 0.2354-1.0981 0.05533z" fill="#fee"/>
    <path d="m40.445 40.334c0.35446-0.62968-0.43606-0.9798-0.90496-0.49122 0.15336-0.64722-0.66131-1.2162-1.004-0.55778-0.30207 0.58039 0.15302 1.1043 0.23137 1.8567 0.68403-0.31636 1.3956-0.30664 1.6776-0.8077z" fill="#ffacac"/>
    <path d="m38.302 40.968c-0.15819-0.50246-0.73853-0.25656-0.71244 0.23643-0.26778-0.40424-0.97659-0.25463-0.79723 0.25593 0.15809 0.45001 0.66365 0.46918 1.1029 0.8026 0.17276-0.52154 0.53267-0.89513 0.40678-1.295z" fill="#ffc8c8"/>
    <path d="m39.259 43.146c0.36174-0.22629 0.05081-0.63123-0.33038-0.51043 0.26242-0.29223 8.44e-4 -0.81748-0.36297-0.57291-0.32065 0.21553-0.23276 0.61581-0.40475 1.028 0.44406 0.02928 0.81022 0.2354 1.0981 0.05534z" fill="#fee"/>
   </g>
  </g>
 </g>
 <g stroke-linejoin="round">
  <g transform="matrix(1.0757 -.44026 .36479 1.0501 -74.501 37.817)" stroke="#000" stroke-width=".5">
   <path d="m82.223 37.646-0.03574-2.1937 1.1653-0.222-1.1653 0.222 0.06086 0.95643 0.8228-0.09691c-0.15835 1.3875 0.58045 0.94395 1.4138 0.32102-0.10882-0.53972-0.8988-0.49751-0.69521 0.16043 0.09676 0.31268 0.50579 0.61984 1.2988 0.39862l-0.19515-1.9647 0.19515 1.9647c0.40158 0.15976 0.52607-0.61001 0.72214-0.89328 0.01693 0.42742 0.01621 0.69418 0.37083 0.95276l0.39761-0.85086 0.02365 0.81798c0.25599-1.4189 0.92924-0.89125 0.82409-0.04356l1.2433-0.5249c-0.11753-0.61042-1.2123-0.54334-0.82849 0.22375 0.2975 0.59454 0.65329 0.44878 0.8874 0.19227 0.33666-0.36887 0.19361-1.1601 1.2319-1.0555 0 0-0.81148-0.12498-0.76382 0.41043 0.03211 0.36069 0.68433 0.0045 0.77392 0.3168 0.0682 0.23772-0.38956 0.99229-0.96082 0.28417" fill="none"/>
   <path d="m88.864 35.559-0.01695 0.37288" fill="#f6d1d1" stroke-linecap="round"/>
   <path d="m85.754 35.475-1e-6 0.22034" fill="#f6d1d1" stroke-linecap="round"/>
  </g>
  <g transform="matrix(1.0757 -.44026 .36479 1.0501 -74.501 37.817)" stroke="#fff" stroke-width=".3">
   <path d="m82.223 37.646-0.03574-2.1937 1.1653-0.222-1.1653 0.222 0.06086 0.95643 0.8228-0.09691c-0.15835 1.3875 0.58045 0.94395 1.4138 0.32102-0.10882-0.53972-0.8988-0.49751-0.69521 0.16043 0.09676 0.31268 0.50579 0.61984 1.2988 0.39862l-0.19515-1.9647 0.19515 1.9647c0.40158 0.15976 0.52607-0.61001 0.72214-0.89328 0.01693 0.42742 0.01621 0.69418 0.37083 0.95276l0.39761-0.85086 0.02365 0.81798c0.25599-1.4189 0.92924-0.89125 0.82409-0.04356l1.2433-0.5249c-0.11753-0.61042-1.2123-0.54334-0.82849 0.22375 0.2975 0.59454 0.65329 0.44878 0.8874 0.19227 0.33666-0.36887 0.19361-1.1601 1.2319-1.0555 0 0-0.81148-0.12498-0.76382 0.41043 0.03211 0.36069 0.68433 0.0045 0.77392 0.3168 0.0682 0.23772-0.38956 0.99229-0.96082 0.28417" fill="none"/>
   <path d="m88.864 35.559-0.01695 0.37288" fill="#f6d1d1" stroke-linecap="round"/>
   <path d="m85.754 35.475-1e-6 0.22034" fill="#f6d1d1" stroke-linecap="round"/>
  </g>
  <path d="m31.184 49.5-0.63998-2.3419 1.2089-0.74589-1.2089 0.74589 0.32837 1.0013 0.87002-0.46237c0.53054 2.1536 0.69626-0.49843 1.5251-0.64788-1.0034 0.41464-0.39796 1.4829 0.2638 0.97864 0.44669-0.3404 0.377-0.28235-0.15737-1.0049 0.78397 1.0215 0.54785 1.0898 0.8079-0.32324l0.24989 0.86875c-0.10982-1.6362 0.76835-1.3623 0.88604-0.4056 0.31017-0.72554 0.10643-0.83271 0.69467-1.2397-0.60593 0.40625-0.47348 1.3759 0.38214 0.80055 0.50107-0.33692 0.39854-1.0889 0.38194-0.83245-0.06554 1.0125 1.3198 0.50231 1.2383-0.52088-0.0081-0.10305 0.24112 0.9109-1.0392 2.0181-1.3674 1.1826-4.286 2.4451-4.8254 1.7057" fill="none" stroke="#000" stroke-width=".56795"/>
  <path d="m31.184 49.5-0.63998-2.3419 1.2089-0.74589-1.2089 0.74589 0.32837 1.0013 0.87002-0.46237c0.53054 2.1536 0.69626-0.49843 1.5251-0.64788-1.0034 0.41464-0.39796 1.4829 0.2638 0.97864 0.44669-0.3404 0.377-0.28235-0.15737-1.0049 0.78397 1.0215 0.54785 1.0898 0.8079-0.32324l0.24989 0.86875c-0.10982-1.6362 0.76835-1.3623 0.88604-0.4056 0.31017-0.72554 0.10643-0.83271 0.69467-1.2397-0.60593 0.40625-0.47348 1.3759 0.38214 0.80055 0.50107-0.33692 0.39854-1.0889 0.38194-0.83245-0.06554 1.0125 1.3198 0.50231 1.2383-0.52088-0.0081-0.10305 0.24112 0.9109-1.0392 2.0181-1.3674 1.1826-4.286 2.4451-4.8254 1.7057" fill="none" stroke="#fff" stroke-width=".34077"/>
 </g>
 <path d="m36.348 21.938c-0.02058 0.6908 0.18363 1.5829 0.82274 2.8269 0.53202 1.0355 1.266 2.1612 1.7477 3.0061 0.13908 0.24393 0.25518 0.4573 0.34717 0.63808 0.27958 0.54948 0.78067 1.7125 1.1235 3.0204 0.47114 1.7972 0.48287 3.1604 0.44495 4.3395 0.03625-1.127-0.181-2.5914-0.81817-4.2183-0.47402-1.2104-1.1001-2.3006-1.368-2.8273-0.086477-0.16996-0.19934-0.39886-0.31783-0.64087-0.3912-0.79902-1.0575-2.1481-1.4421-3.1938-0.50766-1.3803-0.56128-2.2361-0.53999-2.9507z" fill="#fff"/>
 <g fill="#782121">
  <path d="m26.254 62.839 0.56562 0.05142c0.01155-0.12707-0.51941-0.55969-0.50786-0.68676-0.01155 0.12707-0.61183 0.45685-0.62338 0.58392l0.56562 0.05142z"/>
  <path d="m28.661 63.016 0.56562 0.05142c0.01155-0.12707-0.51941-0.55969-0.50786-0.68676-0.01155 0.12707-0.61183 0.45685-0.62338 0.58392l0.56562 0.05142z"/>
  <path d="m31.299 63.112 0.56562 0.05142c0.01155-0.12707-0.51941-0.55969-0.50786-0.68676-0.01155 0.12707-0.61183 0.45685-0.62338 0.58392l0.56562 0.05142z"/>
  <path d="m38.827 62.86 0.56562-0.05142c-0.01155-0.12707-0.61183-0.45685-0.62338-0.58392 0.01155 0.12707-0.51941 0.5597-0.50786 0.68676l0.56562-0.05142z"/>
  <path d="m36.42 63.036 0.56562-0.05142c-0.01155-0.12707-0.61183-0.45685-0.62338-0.58392 0.01155 0.12707-0.51941 0.55969-0.50786 0.68676l0.56562-0.05142z"/>
  <path d="m33.782 63.133 0.56562-0.05142c-0.01155-0.12707-0.61183-0.45685-0.62338-0.58392 0.01155 0.12707-0.51941 0.55969-0.50786 0.68676l0.56562-0.05142z"/>
 </g>
 <g stroke="#000" stroke-linecap="round" stroke-linejoin="round">
  <g stroke-width=".11359">
   <path d="m34.124 16.92c0.35446-0.62968-0.43606-0.9798-0.90496-0.49121 0.15336-0.64723-0.66131-1.2163-1.004-0.55778-0.30207 0.58039 0.15302 1.1043 0.23137 1.8567 0.68403-0.31636 1.3956-0.30664 1.6776-0.8077z" fill="#ffacac"/>
   <path d="m31.981 17.554c-0.15819-0.50246-0.73853-0.25656-0.71243 0.23642-0.26778-0.40424-0.97659-0.25463-0.79723 0.25593 0.15809 0.45002 0.66365 0.46918 1.1029 0.8026 0.17276-0.52154 0.53266-0.89513 0.40678-1.295z" fill="#ffc8c8"/>
   <path d="m32.939 19.732c0.36174-0.22629 0.05081-0.63123-0.33038-0.51043 0.26242-0.29223 8.45e-4 -0.81748-0.36297-0.57291-0.32065 0.21553-0.23276 0.61581-0.40475 1.028 0.44405 0.02928 0.81022 0.2354 1.0981 0.05534z" fill="#fee"/>
  </g>
  <path d="m29.158 3.6147c1.3727-0.29226 5.9348-0.21635 6.5436 0.00934 0.0037-0.25403 0.04198-0.15513 0-0.50525-1.7137-0.39395-5.6681-0.21709-6.5436 0.029563-0.05745 0.22205 0.01436 0.26362 0 0.46634z" fill="#ffbcfe" stroke-width=".28398"/>
 </g>
 <path d="m24.388 60.972c0.05234 1.3501 0.8444 1.8556 1.6557 1.9638 4.0803 0.54422 8.2928 0.55959 12.63 0.07701 1.1389-0.12672 1.7725-1.2695 1.8098-2.1563l1.1937-28.417c0.12082-2.8762-1.8161-5.0728-3.1189-7.4315-2.4215-4.3843-2.8275-6.2464-2.8109-9.8574l-0.02956-8.2195c-0.36237-0.21537-0.20984-0.84283 9e-3 -1.0082l-0.02489-2.2986c0.1549-0.1548 0.09625-0.35044 0-0.50524 0.26026-0.12438 0.16088-0.54683-0.0249-0.5597-0.87496-0.48745-4.9212-0.51994-6.5187 0.054455-0.18717 0.2157-0.17579 0.39169 0 0.5348-0.14843 0.17665-0.10402 0.32575 0 0.46633l0.0045 2.2559c0.35197 0.30045 0.27123 1.0105-0.0883 1.1415l0.01125 7.9457c0.0046 3.3617-0.20015 5.7227-2.4643 9.7033-1.355 2.3823-3.4469 5.0075-3.35 7.5085z" fill="none" stroke="#000" stroke-linecap="round" stroke-linejoin="round" stroke-width=".45436"/>
 <path d="m34.9 7.4108c-0.0012 0.47225-0.19482 1.9861-0.18293 2.5014 0.0044 0.1911 0.02229 0.4646 0.04621 0.78909 0.09518 1.291 0.19466 2.4927 0.13672 3.2169 0.0998-1.2475 0.18268-1.3933 0.25079-3.2239 0.01203-0.32336 0.01725-0.60412 0.01291-0.79238-0.0119-0.51597-0.26492-2.0188-0.2637-2.4911z" fill="#fff"/>
</svg>
