<svg version="1.1" viewBox="0 0 64 64" xmlns="http://www.w3.org/2000/svg">
 <g fill-rule="evenodd" stroke="#000">
  <g stroke-width=".71299">
   <path d="m2.0706 40.651s2.3471 6.7398 3.8769 9.9727c1.2157 2.5673 10.06 7.6068 12.718 8.0612 6.6064 1.1326 42.341-29.767 43.684-34.87 0.55841-2.1198-1.0048-6.3147-1.0048-6.3147z" fill="#c8beb7"/>
   <path d="m1.8495 40.066c0.92777 4.7039 12.138 13.232 16.543 12.953 5.0097-0.31602 43.848-30.782 42.952-35.517-0.88705-4.6801-11.299-9.8035-15.544-10.117-4.6374-0.33979-44.809 28.338-43.951 32.681z" fill="#6c5d53"/>
   <path d="m4.0526 40.088c0.75618 3.8314 10.616 11.135 14.204 10.907 4.0804-0.25729 41.469-29.335 40.739-33.192-0.71982-3.8104-9.6543-8.285-13.111-8.5395-3.7765-0.27686-42.532 27.287-41.834 30.824z" fill="#e3dedb"/>
  </g>
  <path d="m5.3701 40.225c0.70819 3.5699 9.5729 9.8888 12.932 9.6763 3.8187-0.23911 40.288-28.435 39.605-32.028-0.67474-3.5517-8.8531-7.1901-12.09-7.4264-3.5351-0.25869-41.1 26.481-40.447 29.778z" fill="#e3dedb" stroke-width=".38786"/>
  <path d="m16.48 34.481c-1.9835 0.69496-2.8691 3.0329-3.5598 4.5599-1.7218 3.809-4.5661 6.5371-4.5661 6.5371 0.93067 0.88093 1.8992 1.7143 3.0451 2.3072 0 0 4.4832-3.6636 8.158-4.6927 2.4852-0.69636 5.0213-2.0373 5.2074-4.0215 0.23849-2.5323-4.649-5.9624-8.2845-4.6899zm0.66602 1.9982c2.286-0.33839 3.5337 1.0096 4.8686 2.3659-0.93359 1.3955-1.9253 1.8248-3.1178 2.0695l-3.0654-2.1086c0.0669-0.85296 0.746-1.5773 1.3146-2.3268z" fill="#696969" stroke-width=".62053"/>
  <path d="m16.145 33.477c-1.9835 0.69496-2.8691 3.0329-3.5598 4.5599-1.7218 3.809-4.5661 6.5371-4.5661 6.5371 0.93068 0.88093 1.8992 1.7143 3.0451 2.3072 0 0 4.4832-3.6636 8.158-4.6927 2.4852-0.69636 5.0213-2.0373 5.2074-4.0215 0.23849-2.5323-4.649-5.9624-8.2845-4.6899zm0.66602 1.9982c2.286-0.33839 3.5337 1.0096 4.8686 2.3659-0.93359 1.3955-1.9253 1.8248-3.1178 2.0695l-3.0654-2.1086c0.06689-0.85297 0.74599-1.5773 1.3146-2.3268z" fill="#b3b3b3" stroke-width=".62053"/>
 </g>
 <ellipse cx="10.719" cy="44.598" rx="1.0877" ry=".92962" fill="#696969" stroke="#000" stroke-linecap="round" stroke-linejoin="round" stroke-width=".62053"/>
</svg>
