<svg version="1.1" viewBox="0 0 64 64" xmlns="http://www.w3.org/2000/svg" xmlns:xlink="http://www.w3.org/1999/xlink">
 <defs>
  <linearGradient id="linearGradient4218" x1="-61.051" x2="-61.43" y1="18.606" y2="36.347" gradientTransform="matrix(1.8418 -.012204 .012085 1.8238 145.65 -6.5036)" gradientUnits="userSpaceOnUse">
   <stop stop-color="#d5f" offset="0"/>
   <stop stop-color="#7137c8" offset="1"/>
  </linearGradient>
 </defs>
 <g fill-rule="evenodd">
  <path d="m26.53 6.4921c-0.001195-0.19089-0.28935-4.1488-0.28935-4.1488l14.029-0.092908-0.62549 4.2826z" fill="#9f8470" stroke="#000" stroke-width=".4"/>
  <path d="m24.582 13.151c-15.073 0.98514-14.442 12.057-12.543 17.515 2.3169 6.6623 10.712 14.845 10.62 17.44 0.07208 1.7225-2.3275 8.0545-3.4912 12.082-0.13476 0.44197 0.15064 1.1546 1.8821 1.7206l23.465 0.24831c1.0104-0.03215 2.2983-1.3683 2.1555-1.7752-1.2866-4.0337-3.2395-6.3206-3.8624-12.102-0.34456-3.2044 7.0807-9.4179 9.8694-14.563 8.3631-15.423-4.9424-21.023-10.953-20.914l0.02571-2.9902c0.84532-0.098878 1.527-0.19456 2.1255-0.29111l0.01939-3.5581c-7.5354 0.16877-13.607 0.029488-21.154-0.024784l0.0045 3.4924c0.48016 0.21412 1.189 0.27618 1.8428 0.37583z" fill="url(#linearGradient4218)" stroke="#000" stroke-width=".4"/>
  <path d="m17.765 40.41c0.08735 0.11608 0.1755 0.23932 0.26422 0.36552 1.7718 1.0168 4.3223 3.2903 6.6186 5.7826 1.1807 1.2705 2.2838 2.611 3.3033 4.0141 0.92384 1.2902 1.6187 2.4833 1.9318 3.4188-0.28186-0.94764-0.95056-2.16-1.8506-3.4755-0.99507-1.4278-2.077-2.7931-3.2395-4.0882-2.2536-2.536-4.7779-4.8788-6.57-5.9777-0.15187-0.02036-0.30462-0.03358-0.45773-0.0396zm28.995 1.0689-0.30472-0.0096c-1.5159 1.2255-3.7889 3.0334-5.7659 5.0474-2.0589 2.0983-3.7929 4.419-4.014 6.526 0.28591-2.0848 2.0653-4.3484 4.1553-6.3838 2.0113-1.9571 4.3124-3.7058 5.8666-4.8789 0.02188-0.09971 0.0427-0.19966 0.06245-0.29982zm-22.282-28.122c2.5898-0.29005 5.305 1.7667 7.426 3.6789-1.9219-1.9779-4.5827-4.2386-7.4097-4.116zm17.365-0.90213c-3.8546 0.39197-5.5807 3.0382-7.9499 4.5565 2.6274-1.4465 4.2633-3.8391 7.9946-4.0275 0.11046-0.20296-0.02979-0.33576-0.04469-0.52905z" stroke-width="1.3401"/>
  <path d="m44.189 14.718c2.9812 0.48358 4.9618 2.2051 6.2189 4.4183 0.23997 0.42276 0.61013 0.98746 0.80288 1.4499 1.24 1.7939 1.9662 3.9707 2.486 6.4895 0.0179-2.5417-0.36477-4.9009-1.2346-7.1511-0.29162-0.47144-0.58879-1.1277-0.93752-1.5586-1.8491-2.2748-4.3005-3.6139-7.3357-3.6479z" fill="#fff" stroke-width="1.3401"/>
 </g>
 <path d="m24.594 9.8249c2.2885 0.30358 16.197 0.058926 17.113 0.011665" fill="none" stroke="#000" stroke-width=".4"/>
 <g>
  <path d="m27.589 3.0929-0.36662 0.33998c0.12153 0.13106 0.3976 0.19372 0.68086 0.20547 0.27822 0.011549 0.50676-0.017063 0.59661 0.029817-0.072514-0.037833-0.23047-0.25449-0.34782-0.46353-0.11933-0.21256-0.15785-0.41016-0.19641-0.45173l-0.36662 0.33998z" fill="#e4bea0"/>
  <path d="m28.74 4.6749 0.2871 0.40936c0.12728-0.089271 0.21098-0.76494 0.31214-0.84081-0.10116 0.075868-0.76218-0.064988-0.88635 0.0221l0.2871 0.40936z" fill="#514236"/>
  <path d="m30.154 3.1648-0.0077 0.49994c0.04564 7.001e-4 0.14165-0.11419 0.32234-0.16004 0.1703-0.043211 0.40907-0.049002 0.45236-0.028299-0.065005-0.031104-0.10755-0.21358-0.21858-0.4137-0.12023-0.2167-0.34002-0.39477-0.54076-0.39785l-0.0077 0.49994z" fill="#e4bea0"/>
  <path d="m31.017 4.9146 0.38281 0.32164c0.09007-0.1072 0.25026-0.89043 0.40819-1.0168-0.15792 0.12634-1.0111 0.17987-1.1738 0.37348l0.38281 0.32164z" fill="#e4bea0"/>
  <path d="m33.15 2.9971s-0.27018 0.42071-0.27018 0.42071c0.06779 0.043537 0.26547 0.03366 0.4835 0.064552 0.21498 0.03046 0.45429 0.090657 0.52974 0.16192-0.08587-0.081098-0.12657-0.29755-0.19098-0.52967-0.06516-0.2348-0.1622-0.46136-0.28189-0.53822 0 0-0.27018 0.42071-0.27018 0.42071z" fill="#514236"/>
  <path d="m33.486 5.1543s0.28728 0.40923 0.28728 0.40923c0.23429-0.16447 0.63762-1.0969 0.8393-1.2482-0.20168 0.15126-1.1983 0.27836-1.4139 0.42971 0 0 0.28728 0.40923 0.28728 0.40923z" fill="#e4bea0"/>
  <path d="m35.499 3.021-0.36963 0.33671c0.08534 0.093679 0.31136 0.15019 0.53465 0.18288 0.22185 0.032484 0.43912 0.050974 0.5301 0.12759-0.08834-0.074388-0.15275-0.29115-0.19293-0.49679-0.03991-0.20429-0.06263-0.41033-0.13257-0.4871l-0.36963 0.33671z" fill="#514236"/>
  <path d="m36.194 5.0105s0.30791 0.39394 0.30791 0.39394c0.20179-0.15772 0.51016-1.0015 0.72279-1.161-0.21263 0.15947-1.1215 0.20338-1.3386 0.37309 0 0 0.30791 0.39394 0.30791 0.39394z" fill="#514236"/>
  <path d="m37.68 3.2847s-0.28771 0.40893-0.28771 0.40893c0.08485 0.059695 0.33625 0.11078 0.59953 0.22509 0.25818 0.1121 0.52982 0.26222 0.59903 0.34874-0.15431-0.19289-0.33735-1.1906-0.62314-1.3917 0 0-0.28771 0.40893-0.28771 0.40893z" fill="#e4bea0"/>
 </g>
</svg>
