<svg version="1.1" viewBox="0 0 64 64" xmlns="http://www.w3.org/2000/svg" xmlns:xlink="http://www.w3.org/1999/xlink">
 <defs>
  <linearGradient id="linearGradient955" x1="23.864" x2="41.254" y1="54.915" y2="35.492" gradientTransform="translate(.050775 -.12152)" gradientUnits="userSpaceOnUse">
   <stop stop-color="#091800" offset="0"/>
   <stop stop-color="#466c2d" offset="1"/>
  </linearGradient>
  <linearGradient id="linearGradient1021" x1="30.271" x2="34.644" y1="14.678" y2="14.102" gradientTransform="translate(.050775 -.12152)" gradientUnits="userSpaceOnUse">
   <stop stop-color="#d9bc48" offset="0"/>
   <stop stop-color="#efd776" offset="1"/>
  </linearGradient>
 </defs>
 <g>
  <g stroke="#000" stroke-linecap="round" stroke-linejoin="round" stroke-width=".25">
   <path d="m28.023 21.812c1.4149-4.2558 1.6141-8.7784 1.6419-13.231-0.0481-0.30935-0.0452-0.58253-0.25785-0.95879-0.17294-0.306-0.06587-0.90154 0.0011-1.1857 0.12071-0.66275 0.04087-1.2916-0.01887-1.9544-0.11718-0.56538-0.092-0.76199 0-1.3543 0.20301-1.307 4.4317-1.2246 4.5423-0.083894 0.05999 0.61899 0.10996 0.74711 0.01198 1.5341-0.06863 0.58978 0.0054 1.1951 0.09443 1.8074 0.16502 0.4076 0.22948 0.94925 0.08946 1.2773-0.16245 0.38064-0.13194 0.58963-0.13595 0.95418-0.09053 4.4578 0.41819 8.9852 1.606 13.507-2.5769 4.1391-5.1245 5.8962-7.5744-0.31161z" fill="url(#linearGradient1021)"/>
   <path d="m23.475 58.387c0 0.85687 0.27392 1.6658 1.2203 2.2373 3.0552 1.8447 11.164 1.3686 14.712-0.0339 1.0478-0.41418 1.1226-1.3897 1.1186-2.1695l-0.1017-20.203c-0.025178-5.0021-2.5763-10.079-4.4746-14.746l-8.3729-0.13559c-1.5256 4.9715-4.1017 8.9246-4.1017 14.915z" fill="url(#linearGradient955)"/>
   <path d="m27.012 25.063c0.44192-1.2845 0.79484-2.4638 1.1306-3.623 1.7068 0.86937 2.5835 1.7387 3.7048 2.6081 1.0749-0.90231 1.9746-1.8451 3.6011-2.6201 0.25794 1.2876 0.56506 2.5519 1.1786 3.6709-2.1371 0.72207-3.1783 2.227-4.7458 3.3559-1.6164-1.1441-3.0094-2.735-4.8694-3.3919z" fill="#b63232"/>
   <path d="m24.883 55.249 0.02397-8.9167c4.9811 0.8261 9.7181 0.62683 14.382 0.11985l0.04794 8.8209c-4.4188 0.91502-9.0221 1.4033-14.454-0.02397z" fill="#e2e3db"/>
   <path d="m31.864 28.743c-0.49572-0.79181-1.7401-1.4005-2.7119-2-0.39988-1.1923 0.58976-1.8348-0.52542-2.3729 0.88258-0.78455 0.88316-1.2369 1.2712-1.8136l0.57627 0.44068c0.39513-0.9824 2.2018-1.0382 2.7288-0.0339l0.54237-0.42373c0.33444 0.64456 0.66248 1.2909 1.3051 1.8475-1.0441 0.61748-0.14328 1.4467-0.62712 2.3051-1.0788 0.7348-2.132 1.2409-2.5593 2.0508z" fill="#ddc770"/>
  </g>
  <g>
   <path d="m29.746 8.2175c0.02575-0.019181 0.07002-0.037722 0.13937-0.053037 0.05241-0.011573 0.11771-0.021029 0.19758-0.028137 0.14325-0.012747 0.32244-0.016988 0.52822-0.014713 0.36798 0.00407 0.78175 0.03239 0.9987 0.030606 0.09183-7.547e-4 0.21238-0.00508 0.35074-0.0098 0.40828-0.013931 0.87625-0.025885 1.2884 0.00113 0.1889 0.012382 0.33777 0.031608 0.44574 0.056999 0.06213 0.01461 0.10899 0.030835 0.14355 0.04833 0.045 0.022781 0.06817 0.047385 0.07721 0.070321-0.0087-0.022164-0.02426-0.052561-0.0634-0.089712-0.03017-0.02864-0.07284-0.059805-0.13259-0.09263-0.10419-0.057247-0.2502-0.11395-0.44043-0.16722-0.39887-0.1117-0.90588-0.18396-1.3109-0.21305-0.14268-0.010248-0.26646-0.014646-0.36166-0.013864-0.22889 0.00188-0.6427 0.05174-1.0218 0.13933-0.20873 0.048226-0.3852 0.10258-0.52501 0.15963-0.07776 0.031727-0.13868 0.062011-0.18714 0.089965-0.06436 0.037126-0.10059 0.066519-0.12654 0.085847z" fill="#69560c"/>
   <path d="m29.559 4.2007c0.02575-0.019181 0.07002-0.037722 0.13937-0.053037 0.05241-0.011573 0.11771-0.021029 0.19758-0.028137 0.14325-0.012747 0.32244-0.016988 0.52822-0.014713 0.36798 0.00407 0.78175 0.03239 0.9987 0.030607 0.09183-7.547e-4 0.21238-0.00508 0.35074-0.0098 0.40828-0.013931 0.87625-0.025885 1.2884 0.00113 0.1889 0.012382 0.33777 0.031608 0.44574 0.056999 0.06213 0.01461 0.10899 0.030835 0.14355 0.04833 0.045 0.02278 0.06817 0.047384 0.07721 0.070321-0.0087-0.022164-0.02426-0.052561-0.0634-0.089712-0.03017-0.02864-0.07284-0.059805-0.13259-0.09263-0.10419-0.057242-0.2502-0.11394-0.44043-0.16721-0.39887-0.1117-0.90588-0.18396-1.3109-0.21305-0.14268-0.010248-0.26646-0.014647-0.36166-0.013864-0.22889 0.00188-0.6427 0.05174-1.0218 0.13933-0.20873 0.048226-0.3852 0.10258-0.52501 0.15963-0.07776 0.031727-0.13868 0.062011-0.18714 0.089965-0.06436 0.037126-0.10059 0.066519-0.12654 0.085847z" fill="#69560c"/>
   <path d="m29.627 6.6583c0.02575-0.019181 0.07002-0.037722 0.13937-0.053037 0.05241-0.011573 0.11771-0.021029 0.19758-0.028137 0.14325-0.012747 0.32244-0.016988 0.52822-0.014713 0.36798 0.00407 0.78175 0.03239 0.9987 0.030607 0.09183-7.547e-4 0.21238-0.00508 0.35074-0.0098 0.40828-0.013931 0.87625-0.025886 1.2884 0.00113 0.1889 0.012382 0.33777 0.031608 0.44574 0.056999 0.06213 0.01461 0.10899 0.030835 0.14355 0.04833 0.045 0.022781 0.06817 0.047384 0.07721 0.070321-0.0087-0.022164-0.02426-0.052561-0.0634-0.089712-0.03017-0.02864-0.07284-0.059805-0.13259-0.09263-0.10419-0.057242-0.2502-0.11394-0.44043-0.16721-0.39887-0.1117-0.90588-0.18396-1.3109-0.21305-0.14268-0.010248-0.26646-0.014647-0.36166-0.013864-0.22889 0.00188-0.6427 0.05174-1.0218 0.13933-0.20873 0.048226-0.3852 0.10258-0.52501 0.15963-0.07776 0.031727-0.13868 0.062011-0.18714 0.089965-0.06436 0.037127-0.10059 0.066519-0.12654 0.085847z" fill="#f8edc3"/>
   <path d="m29.661 2.9464c0.02575-0.019181 0.07002-0.037722 0.13937-0.053037 0.05241-0.011573 0.11771-0.021029 0.19758-0.028137 0.14325-0.012747 0.32244-0.016988 0.52822-0.014713 0.36798 0.00407 0.78175 0.03239 0.9987 0.030607 0.09183-7.547e-4 0.21238-0.00508 0.35074-0.0098 0.40828-0.013931 0.87625-0.025885 1.2884 0.00113 0.1889 0.012382 0.33777 0.031608 0.44574 0.056999 0.06213 0.01461 0.10899 0.030835 0.14355 0.04833 0.045 0.022781 0.06817 0.047385 0.07721 0.070321-0.0087-0.022164-0.02426-0.052561-0.0634-0.089712-0.03017-0.02864-0.07284-0.059805-0.13259-0.09263-0.10419-0.057248-0.2502-0.11395-0.44043-0.16722-0.39887-0.1117-0.90588-0.18396-1.3109-0.21305-0.14268-0.010248-0.26646-0.014646-0.36166-0.013864-0.22889 0.00188-0.6427 0.05174-1.0218 0.13933-0.20873 0.048226-0.3852 0.10258-0.52501 0.15963-0.07776 0.031727-0.13868 0.062011-0.18714 0.089965-0.06436 0.037126-0.10059 0.066519-0.12654 0.085847z" fill="#f8edc3"/>
  </g>
 </g>
 <g transform="matrix(.61922 -.21686 .21686 .61922 1.2788 .17552)" stroke="#000" stroke-linecap="round" stroke-linejoin="round">
  <g fill="#ba9d7c" stroke-width=".125">
   <path d="m29.394 53.679-0.02542-4.3309 0.9322 0.01672 0.02543 4.3309z"/>
   <path d="m30.326 53.159-0.02542-3.7945 0.9322 0.01466 0.02543 3.7945z"/>
   <path d="m31.258 52.507-0.02542-3.1277 0.9322 0.01208 0.02543 3.1277z"/>
   <path d="m32.191 51.897-0.02595-2.5062 0.95182 0.0097 0.02597 2.5062z"/>
   <path d="m33.144 51.305-0.02656-1.904 0.97381 0.0074 0.02656 1.904z"/>
  </g>
  <path d="m29.249 49.8 4.9347 0.0051 0.01705 0.24333-4.956-0.02535z" fill="#685d50" stroke-width=".096952"/>
  <path d="m29.25 50.685 4.9354 5e-3 0.01705 0.23985-4.9567-0.02498z" fill="#685d50" stroke-width=".096264"/>
 </g>
 <g fill="none" stroke="#000" stroke-linecap="round" stroke-linejoin="round">
  <g stroke-width=".2">
   <path d="m26.32 51.423-0.01176-1.091c0.57545-0.19311 1.3916 0.62432 0.01176 0.61226"/>
   <path d="m27.498 51.576 0.28997-1.131 0.45952 1.1231"/>
   <path d="m27.613 51.124h0.4402"/>
   <path d="m28.831 51.689-0.0062-1.1325 0.84692 1.1325-0.0031-1.1122"/>
   <path d="m31.251 50.925c0.01747-0.40676-0.84012-0.43762-0.83436 0.0092 0.0049 0.38278 0.79925 0.2497 0.80559 0.57962 0.0079 0.41114-0.8763 0.50939-0.85675-1e-6"/>
   <path d="m32.374 51.849v-1.1949l0.78814 0.0085"/>
   <path d="m32.417 51.205 0.49152-0.0085"/>
   <path d="m33.506 50.615 0.0339 1.2373 0.76271-0.01695"/>
   <path d="m34.635 50.637c-0.15156 1.5524 1.0741 1.5829 0.86441-0.0339"/>
   <path d="m35.839 50.582 0.80508-0.05932"/>
   <path d="m36.322 50.59 0.02542 1.1271"/>
   <path d="m37.869 50.446-0.6682 0.04274-0.0013 1.0929 0.72881-0.04661"/>
   <path d="m37.263 50.972 0.44915-0.0085"/>
   <path d="m30.257 50.44-0.07627 0.25"/>
  </g>
  <g stroke-width=".1">
   <path d="m28.137 49.64c-0.01872 0.2148-0.44859 0.18749-0.44989-0.13485-1e-3 -0.2554 0.41783-0.3118 0.44389-0.05091"/>
   <path d="m28.737 49.353-6e-3 0.4734"/>
   <path d="m29.18 49.838 0.01798-0.4734"/>
   <path d="m29.173 49.619c-0.02397 0-0.42662-0.01871-0.42662-0.01871"/>
   <path d="m29.746 49.895 0.26675-0.52412 0.24 0.5329"/>
   <path d="m30.176 49.762-0.32347-0.0088"/>
   <path d="m30.815 49.952 0.0031-0.52352 0.28661 0.5421 0.26409-0.53902-0.0039 0.52588"/>
   <path d="m32.068 49.982 0.01198-0.50336c0.39103-0.07996 0.73467 0.25704-0.01198 0.27565"/>
   <path d="m33.009 49.976 0.28764-0.53333 0.23401 0.52092"/>
   <path d="m33.45 49.794-0.34187 0.01447"/>
   <path d="m34.393 49.73 0.19775 6e-3c0.0096 0.30617-0.51587 0.31873-0.50802-0.01539 0.0082-0.34996 0.46454-0.36797 0.47206-0.18236"/>
   <path d="m35.17 49.914-0.0095-0.46172 0.47413 0.42298 0.0056-0.46287"/>
   <path d="m36.567 49.344-0.33969-0.0032 0.02397 0.49737 0.34405-0.02119"/>
   <path d="m36.251 49.599 0.29684-0.01942"/>
   <path d="m29.797 54.554s0.21573-0.19176 0.27565-0.09588c0.05992 0.09588 0.65917 0.1558 0.65917 0.1558l0.11985-0.20374-0.38352 0.1558s0.2397 0.17977 0.31161 0.16779c0.07191-0.01198 0.58726-0.14382 0.58726-0.14382l0.33558 0.10786"/>
   <path d="m32.074 54.65s0.20374-0.11985 0.28764-0.09588c0.08389 0.02397 0.21573 0.11985 0.13183 0.10786-0.08389-0.01199-0.21573-0.01199-0.21573-0.01199"/>
   <path d="m32.841 54.566 0.19176 0.09588 0.09588-0.14382s0.13183 0.26367 0.01198 0.26367c-0.11985 0 0.31161-0.20374 0.31161-0.20374s-0.13183-0.1558 0-0.10786c0.13183 0.04794 0.35955 0.21573 0.35955 0.21573s0.11985-0.19176 0.17977-0.19176c0.05992 0 0.27565 0.09588 0.27565 0.09588"/>
   <path d="m28.239 54.974 0.74306-0.01198-0.08389 0.22771-0.38352-0.20374 0.73108-0.05992 0.17977 0.19176 0.31161-0.17977 0.16779 0.19176-0.13183-0.21573-0.13183 0.22771 0.97077-0.07191s-0.22771-0.08389-0.28764-0.08389c-0.05992 0-0.11985 0.20374-0.07191 0.22771 0.04794 0.02397 0.69512-0.01199 0.69512-0.01199l-0.10786-0.16779"/>
   <path d="m31.427 55.082s-0.01198 0.14382 0.05992 0.1558c0.07191 0.01198 0.44344-0.05992 0.44344-0.05992l0.13183-0.10786 0.26367 0.2397 0.50336-0.31161s0.21573 0.14382 0.29962 0.1558c0.08389 0.01198 0.41947 0.05992 0.41947 0.05992s-1.3663-0.09588-1.3183-0.08389c0.04794 0.01198 1.3543-0.01199 1.3543-0.01199s0.38352 0 0.41947 0.08389c0.03595 0.08389 0.08389-0.16779 0.08389-0.16779"/>
   <path d="m34.615 55.01 0.01199 0.19176 0.38352 0.02397-0.10786-0.2397 0.33558 0.09588 0.28764-0.08389 0.03595 0.13183s-0.3955 0.07191-0.37153 0.02397 0-0.20374 0.05992-0.20374 0.71909 0.05992 0.71909 0.05992l0.02397-0.13183 0.13183 0.19176"/>
  </g>
  <path d="m26.268 54.523s0 0.23025-0.16174 0.24122c-0.16174 0.01097 0.04622 0.05482 0.19639 0.04934 0.15019-0.0055 0.20795-0.26314 0.15019-0.38375-0.05776-0.12061-0.33503 0.09868-0.4159 0.09868-0.08086 0 0.6585 0.17543 0.6585 0.17543" stroke-width=".093907"/>
  <path d="m26.646 54.506 0.02312 0.40307 0.20037-0.15115v-0.36528" stroke-width=".082208"/>
  <path d="m25.553 54.259s-0.16954 0.42197-0.13872 0.42826c0.03083 0.0063 0.40074 0.07558 0.38533 0.04408-0.01541-0.03149-0.03083-0.44716-0.03083-0.44716l-0.34679 0.28341 0.65506-0.05668" stroke-width=".082208"/>
  <path d="m38.221 54.643s0 0.23025 0.1335 0.24122c0.13351 0.01097-0.03815 0.05482-0.16211 0.04934-0.12397-0.0055-0.17165-0.26314-0.12397-0.38375 0.04768-0.12061 0.27655 0.09868 0.3433 0.09868 0.06675 0-0.54356 0.17543-0.54356 0.17543" stroke-width=".085319"/>
  <path d="m37.909 54.625-0.01909 0.40307-0.1654-0.15115v-0.36528" stroke-width=".074689"/>
  <path d="m38.811 54.378s0.13995 0.42197 0.1145 0.42826c-0.02544 0.0063-0.33079 0.07558-0.31807 0.04408 0.01272-0.03149 0.02545-0.44716 0.02545-0.44716l0.28626 0.28341-0.54071-0.05668" stroke-width=".074689"/>
 </g>
 <g transform="matrix(.68587 0 0 .68587 10.057 13.988)" fill="none">
  <path d="m31.979 43.52 0.94563 2.4364-2.1822-1.4736 2.5272-0.0315-2.0518 1.5025z" stroke="#000" stroke-width=".5"/>
  <path d="m31.979 43.52 0.94563 2.4364-2.1822-1.4736 2.5272-0.0315-2.0518 1.5025z" stroke="#ddc150" stroke-width=".21379"/>
 </g>
 <path d="m37.462 29.364c0.38451 0.65675 0.89306 1.5445 1.3724 2.817 0.4577 1.2152 0.7228 2.3605 0.85104 3.1339 0.01213 0.07319 0.02268 0.14118 0.03165 0.20323 0.17482 1.2102 0.12108 4.8681 0.12108 6.0697 0-1.2015-0.35746-4.8212-0.52929-6.0107-0.0088-0.06116-0.01822-0.12778-0.02839-0.20013-0.10928-0.77742-0.26716-1.8881-0.62768-3.1356-0.36412-1.26-0.82176-2.2472-1.1908-2.8774z" fill="#fff"/>
</svg>
