<svg version="1.1" viewBox="0 0 64 64" xmlns="http://www.w3.org/2000/svg" xmlns:xlink="http://www.w3.org/1999/xlink">
 <defs>
  <linearGradient id="linearGradient910">
   <stop stop-color="#decd87" offset="0"/>
   <stop stop-color="#e9ddaf" offset="1"/>
  </linearGradient>
  <linearGradient id="linearGradient912" x1="29.651" x2="35.116" y1="14.742" y2="14.128" gradientUnits="userSpaceOnUse" xlink:href="#linearGradient910"/>
  <linearGradient id="linearGradient920" x1="31.559" x2="32.374" y1="5.8644" y2="3.2116" gradientTransform="matrix(1.0806 0 0 1.0806 -2.6274 -2.5986)" gradientUnits="userSpaceOnUse">
   <stop stop-color="#917c6f" offset="0"/>
   <stop stop-color="#c8beb7" offset="1"/>
  </linearGradient>
  <linearGradient id="linearGradient928" x1="25.935" x2="39.801" y1="43.386" y2="42.505" gradientUnits="userSpaceOnUse">
   <stop stop-color="#98552a" offset="0"/>
   <stop stop-color="#a46a43" offset="1"/>
  </linearGradient>
  <linearGradient id="linearGradient974" x1="26.847" x2="39.661" y1="47.051" y2="44.746" gradientUnits="userSpaceOnUse" xlink:href="#linearGradient910"/>
 </defs>
 <g transform="matrix(1.0806 0 0 1.0806 -2.6274 -2.5986)" fill-rule="evenodd">
  <path d="m25.872 59.995c2.3542 1.3544 11.721 1.5613 13.505-0.14437 1.0887-1.0405 1.1422-3.8762 1.1422-3.8762s0.36221-19.718-0.21308-23.653c-0.73657-5.0303-1.9392-7.7178-3.2887-12.119-0.67799-2.211-1.6678-5.3325-2.1082-13.092l-5.2681 0.032201c-0.42412 8.1443-1.2505 10.647-1.8853 13.041-1.5147 5.7116-2.9092 9.5252-3.0503 12.347-0.23547 4.7377-0.01587 23.481-0.01587 23.481s-0.05752 3.2701 1.1819 3.9832z" fill="url(#linearGradient928)"/>
  <path d="m32.606 26.08-4.8565-5.8673c1.4228-4.5692 1.5416-9.0281 1.8645-13.106 0 0-0.32176-0.48482-0.38654-0.77072-0.17435-0.7696 0.2733-2.2838 0.2733-2.2838l5.346-0.1408s0.63228 1.7608 0.49728 2.4475c-0.07926 0.40316-0.43462 0.75195-0.43462 0.75195 0.33655 4.2582 0.53353 8.5672 2.1156 13.154z" fill="url(#linearGradient912)"/>
  <path d="m40.605 38.103c-3.3583 0.50608-11.797 0.6388-16.067 0.01601 0.0296 3.89-0.0085 8.2351 0.07744 12.124 3.589 1.0502 12.137 1.0787 16.005-0.13877z" fill="url(#linearGradient974)" stroke="#000" stroke-width=".25"/>
 </g>
 <g stroke="#000">
  <g transform="matrix(1.0806 0 0 1.0806 -2.6274 -2.5986)" fill="none">
   <path d="m30.268 45.056-1.0105 0.0046 0.07126 0.94877 0.7768 0.0021-0.7768-0.0021-0.0043 0.97888 1.681-0.02725c-0.78074-0.04792-0.80922-1.1311 0.2125-0.79392-0.04589 0.68264-0.10849 1.2385 0.32498 2.1649l0.39363-2.0989c0.10529 1.2138 0.74524 1.1558 0.9267-0.06664l0.612-0.0587-5.85e-4 0.94752 0.47969-0.03308c-0.13077-1.4147 1.129-1.1889 0.7241-0.04263 0.70169 5e-3 0.06135-0.43061 1.2996-0.55771-0.14416-0.61154-1.0129-0.55666-0.8211-0.06117-0.03038 0.33577 0.03743 1.2401 1.2078 0.2941" stroke-linecap="round" stroke-linejoin="round" stroke-width=".36073"/>
   <path d="m30.961 47.98c-1.4637 0.23938-1.1836 1.693 0.02935 1.5996l0.41882-0.7552 0.08914 0.79908c0.3099-0.39668 0.61695-0.82464 0.96738-0.7755-1.0545 0.43896-0.10873 0.861 0.17691 0.81854l-0.02106-1.8014 0.19085 1.8262 1.2823-0.72381c-0.24774-0.64517-1.2697-0.2639-0.82371 0.268 0.2909 0.76127 0.84477 0.39654 1.2145 0.30115 0.0337-0.0087-0.07749-0.61399 0.0373-0.77113 0.15349-0.21011 0.64524 0.0463 0.64524 0.0463" stroke-linecap="round" stroke-linejoin="round" stroke-width=".31924"/>
   <path d="m29.642 7.1429c1.8521 0.33421 3.844 0.31116 5.4233-0.10497" stroke-width=".4"/>
   <path d="m25.872 59.995c2.3542 1.3544 11.721 1.5613 13.505-0.14437 1.0887-1.0405 1.1422-3.8762 1.1422-3.8762s0.36221-19.718-0.21308-23.653c-0.73657-5.0303-1.9392-7.7178-3.2887-12.119-0.67799-2.211-1.6678-5.3325-2.1082-13.092 0.53728-0.89626 0.10625-1.5989 0.07364-2.3812l-5.5245 0.20413c-0.10809 0.61348-0.37629 1.1105 0.1828 2.2092-0.42412 8.1443-1.2505 10.647-1.8853 13.041-1.5147 5.7116-2.9092 9.5252-3.0503 12.347-0.23547 4.7377-0.01587 23.481-0.01587 23.481s-0.05752 3.2701 1.1819 3.9832z" stroke-width=".5"/>
  </g>
  <path d="m28.662 3.1334c1.9103 0.42863 4.8484 0.34847 6.9477 0.00453 0.02252-0.64891 0.03571-1.5871-0.37307-1.8926-0.43341-0.26965-5.9872-0.21907-6.2408 0.071632-0.2393 0.27581-0.38092 1.3209-0.33384 1.8164z" fill="url(#linearGradient920)" fill-rule="evenodd" stroke-width=".43222"/>
  <g stroke-linecap="round" stroke-linejoin="round">
   <g transform="matrix(1.0806 0 0 1.0806 -2.6274 -2.5986)" fill="#ffde17" stroke-width=".25">
    <path d="m30.065 5.2565 0.14382-1.2704"/>
    <path d="m31.096 5.3045 0.04794-1.3183"/>
    <path d="m32.15 5.3284-0.02397-1.2944"/>
    <path d="m34.248 5.2565-0.14382-1.2704"/>
    <path d="m33.217 5.3045-0.04794-1.3183"/>
   </g>
   <path d="m28.996 1.317c0.15723 0.38817 5.9515 0.52376 6.2408-0.071631" fill="none" stroke-width=".27014"/>
   <path d="m27.358 19.243 5.2477 6.34 4.7751-6.2844" fill="none" stroke-width=".27014"/>
  </g>
 </g>
 <path d="m36.639 21.063c0.40354 0.75759 0.96021 1.7838 1.595 3.5493 0.6076 1.69 1.066 3.4682 1.3557 4.9339 0.1106 0.55955 0.18956 1.0399 0.23494 1.3969 0.09009 0.70884 0.13303 1.9117 0.10878 3.174-0.03176 1.6537-0.19995 3.1275-0.21756 3.722 0.01815-0.61203-0.13822-1.9918-0.40195-3.6802-0.18776-1.2021-0.41605-2.4216-0.50064-3.0873-0.04491-0.35337-0.09368-0.82155-0.15637-1.3808-0.16569-1.4784-0.39138-3.2217-0.79086-4.9706-0.39747-1.7401-0.85256-2.9543-1.2271-3.6573z" fill="#fff" stroke-width="1.0806"/>
 <g transform="matrix(1.0806 0 0 1.0806 -2.6274 -2.5986)" fill="#f4eed7">
  <path d="m34.421 7.815c-0.0097 1.4803 0.20841 4.0323 0.60284 6.3859 0.06214 0.3708 0.11905 0.6868 0.15952 0.92519 0.18796 1.1071 0.85676 4.2709 1.2966 5.1566-0.27181-0.54728-0.63482-1.2354-1.0416-2.3794-0.37622-1.0581-0.63345-2.0968-0.73512-2.6957-0.04136-0.24364-0.08619-0.5643-0.12808-0.94453-0.28767-2.6109-0.16514-4.7696-0.15418-6.4481z"/>
  <path d="m36.034 49.102c1.0519-0.04535 2.013-0.13109 2.661-0.35593" stroke="#000" stroke-linecap="round" stroke-linejoin="round" stroke-width=".4"/>
  <path d="m29.237 49.119c-1.0508 0.01833-2.1395-0.07052-2.8305-0.32203" stroke="#000" stroke-linecap="round" stroke-linejoin="round" stroke-width=".4"/>
 </g>
 <g stroke="#000" stroke-linejoin="round">
  <g stroke-linecap="round">
   <ellipse cx="32.547" cy="42.909" rx="3.1989" ry="3.1762" fill="none" stroke-width=".42556"/>
   <path d="m36.777 42.731c1.1367-0.04901 2.1752-0.14166 2.8755-0.38462" fill="#f4eed7" stroke-width=".43224"/>
   <path d="m28.474 42.828c-1.1355 0.01981-2.3119-0.0762-3.0586-0.34799" fill="#f4eed7" stroke-width=".43224"/>
  </g>
  <path d="m32.518 40.373c-1.8069-0.0069-2.7442 2.0031-1.6529 3.9052l-0.39369 0.10679 0.22431 0.41656 0.92711-0.36732c-0.78289-0.83334-0.44938-2.8783 0.85401-2.8869 1.452-0.0096 1.5885 2.1617 0.93291 2.9038l0.92864 0.37224 0.22245-0.44435-0.40354-0.14979c1.1121-1.8925 0.06379-3.8495-1.6393-3.8561zm-0.5065 0.37345a0.27202 0.26556 0 0 1 0.27202 0.26556 0.27202 0.26556 0 0 1-0.27202 0.26567 0.27202 0.26556 0 0 1-0.27201-0.26567 0.27202 0.26556 0 0 1 0.27201-0.26556zm1.0384 0.0064a0.27202 0.26556 0 0 1 0.27191 0.26556 0.27202 0.26556 0 0 1-0.27202 0.26556 0.27202 0.26556 0 0 1-0.27201-0.26556 0.27202 0.26556 0 0 1 0.27201-0.26556zm0.7563 0.5832a0.27202 0.26556 0 0 1 0.27202 0.26556 0.27202 0.26556 0 0 1-0.27202 0.26556 0.27202 0.26556 0 0 1-0.27202-0.26556 0.27202 0.26556 0 0 1 0.27202-0.26556zm-2.6472 0.06412a0.27202 0.26556 0 0 1 0.27202 0.26556 0.27202 0.26556 0 0 1-0.27202 0.26556 0.27202 0.26556 0 0 1-0.27202-0.26556 0.27202 0.26556 0 0 1 0.27202-0.26556zm-0.31381 0.78344a0.24477 0.23908 0 0 1 0.24477 0.23919 0.24477 0.23908 0 0 1-0.24477 0.23897 0.24477 0.23908 0 0 1-0.24477-0.23897 0.24477 0.23908 0 0 1 0.24477-0.23908zm3.2738 0.04541a0.24477 0.23908 0 0 1 0.24477 0.23897 0.24477 0.23908 0 0 1-0.24488 0.23908 0.24477 0.23908 0 0 1-0.24477-0.23908 0.24477 0.23908 0 0 1 0.24477-0.23897z" fill-rule="evenodd" stroke-width=".071779"/>
 </g>
</svg>
