<svg version="1.1" viewBox="0 0 64 64" xmlns="http://www.w3.org/2000/svg" xmlns:xlink="http://www.w3.org/1999/xlink">
 <defs>
  <linearGradient id="linearGradient876" x1="22.436" x2="42.244" y1="49.522" y2="23.749" gradientUnits="userSpaceOnUse">
   <stop stop-color="#ff6c0a" offset="0"/>
   <stop stop-color="#ff761a" offset="1"/>
  </linearGradient>
  <linearGradient id="linearGradient884" x1="23.233" x2="31.559" y1="15.043" y2="12.841" gradientUnits="userSpaceOnUse">
   <stop stop-color="#bacac8" offset="0"/>
   <stop stop-color="#dbe3e2" offset="1"/>
  </linearGradient>
 </defs>
 <g fill-rule="evenodd">
  <path d="m22.891 61.467c6.2652 1.0286 12.623 0.80004 19.23-0.14455 0.58396-0.08214 1.6599-2.9393 1.726-4.6546l0.10575-2.8121c0.02108-0.53224-0.66006-0.97445-0.66006-0.97445l-0.19013-22.484s0.66817-0.73284 0.64255-1.1817l-0.15312-2.8095c-0.16581-3.0045-1.3769-7.099-2.4196-10.53-4.0006-0.47849-13.206-2.2703-17.4-2.9921-1.1043 3.9206-3.2376 12.225-3.2469 14.003l-0.01436 2.7672c-0.0016 0.3242 0.65959 0.7131 0.65959 0.7131l0.16335 23.027s-0.64914 0.63949-0.6458 1.0511l0.01892 2.1565c8e-3 1.0213 1.5031 4.7539 2.1832 4.8651z" fill="url(#linearGradient876)" stroke-width="1.4641"/>
  <path d="m22.891 61.467c6.2652 1.0286 12.623 0.80004 19.23-0.14455 0.58396-0.08214 1.6599-2.9393 1.726-4.6546l0.10575-2.8121c0.02108-0.53224-0.66006-0.97445-0.66006-0.97445l-0.19013-22.484s0.66817-0.4452 0.64255-0.8941l-0.15312-3.0972c-0.25897-4.6875-3.7228-15.002-3.7228-15.002-0.24306-0.71216-1.2364-0.50382-1.3153-1.3996l1.5504-0.04054c0.44034-0.0097 0.55049-0.98451 0.0057-0.98006l-1.5028 0.013321-0.03634-1.0466-13.324 0.12518 0.02771 1.0987-1.3075 0.011253c-0.40979 0.00242-0.54051 0.96891-0.01464 0.97329l1.3305 0.01113c-0.07961 0.9735-0.78371 0.95132-1.0332 1.4969-0.25088 0.55126-3.7094 12.651-3.7237 15.22l-0.01435 2.7672c-0.0017 0.3242 0.65959 0.7131 0.65959 0.7131l0.16335 23.027s-0.64914 0.63949-0.6458 1.0511l0.01892 2.1566c8e-3 1.0213 1.5034 4.7525 2.1832 4.8651z" fill="#d5f6ff" fill-opacity=".251" stroke="#000" stroke-width=".4"/>
  <path d="m23.923 8.3996c5.3873-0.22579 10.753-0.29254 16.083-0.088781 0.56527 0.021868 0.54325-1.3986 0.01078-1.4786-5.3839-0.81677-10.76-0.67121-16.129 0.11177-0.56905 0.082885-0.50757 1.4786 0.03543 1.457z" fill="#b7c8c4" stroke="#000" stroke-width=".4"/>
 </g>
 <g stroke="#000">
  <g transform="matrix(1.4196 .35829 -.35829 1.4196 -1.1767 -25.795)" stroke-width=".27321">
   <path d="m22.22 17.437-0.766-2.866c-0.224-0.838 10.079-3.48 10.28-2.672l0.717 2.864a177.21 177.21 0 0 0-10.231 2.674z" fill="url(#linearGradient884)" fill-rule="evenodd"/>
   <g fill="none">
    <path d="m22.322 14.458 0.555 2.123"/>
    <path d="m23.437 14.044 0.59 2.26"/>
    <path d="m24.715 13.628 0.619 2.367"/>
    <path d="m25.977 13.152 0.635 2.428"/>
    <path d="m30.946 12.281 0.55 2.107"/>
    <path d="m29.793 12.427 0.583 2.23"/>
    <path d="m28.616 12.605 0.618 2.367"/>
    <path d="m27.344 12.856 0.634 2.428"/>
   </g>
  </g>
  <path d="m25.064 10.157 13.512-0.16382m-13.31-0.81047 13.512-0.16382" fill="none" stroke-width=".4"/>
  <path d="m21.334 53.394c6.7419 0.78503 16.776 0.44403 21.958-0.51301m-22.122-22.514c6.5115 0.44752 16.25 0.25393 21.931 0.02987" fill="none" stroke-width=".36603"/>
 </g>
 <g fill-rule="evenodd" stroke="#000">
  <path d="m43.07 31.648c-4.2022 0.61685-16.343 0.60889-21.829 0.05316l0.20732 20.769c5.2779 0.57862 16.132 0.44761 21.781-0.46861z" fill="#fdd9c1" stroke-width=".25"/>
  <path d="m25.138 47.033c2.6645-3.4131 5.8239-6.2863 9.4827-8.6146 0.71734-0.65247 4.7162 3.253 3.5892 3.8414-3.5869 2.3647-7.1686 4.7334-11.902 6.2162-0.83155 0.4349-2.4257-0.30268-1.17-1.4429z" fill="#f97017" stroke-width=".4"/>
  <path d="m36.453 39.082 0.32223-2.4374 0.58158 2.0811 2.656-0.891-1.4449 2.0755 2.0519 1.365-2.7924-0.50094z" fill="#5aa02c" stroke-linecap="round" stroke-linejoin="round" stroke-width=".4"/>
 </g>
 <path d="m25.649 41.509c1.4938-1.6904 0.38443-2.3186-1.1526-1.4969 0.98663-1.1039 1.0738-2.6042-1.1315-1.4724l2.0349 3.2131c2.0607-1.0839 0.43998-3.9595 0.22207-4.3456 0.97986 1.5243 1.4114 3.5581 2.7839 1.9102l-1.5071-2.5065 1.5071 2.5065 0.47676-0.36922-1.5342-2.4662 2.6887 1.7199-1.6879-2.4557 1.6879 2.4557 0.59776-0.50242-1.5855-2.3702 2.7484 1.7446-1.8621-2.4725 0.42105-0.17752 1.5574 0.66557 0.16833-1.5802-0.16833 1.5802 0.93164 1.2551m-0.95211 14.82c0.82912 0.86089 2.2903 0.27312 0.55522-2.3375l-1.0653 0.61756 2.3986-1.3833c1.0577 2.0354 1.3345 2.4619 2.5043 1.6483l-1.2817-2.3167 1.2817 2.3167 0.97628-0.55298-1.4147-2.2422 1.8046-0.92107c-1.778 1.13 0.20754 3.2275 1.2123 2.2688 0.02956-0.02821 0.91807-0.53437 0.91807-0.53437l-1.3243-2.1527 1.294-0.7668" fill="none" stroke="#000" stroke-linecap="round" stroke-linejoin="round" stroke-width=".4"/>
 <path d="m38.104 13.012a61.653 61.653 0 0 1 2.8941 11.011c0.5245 1.4099 0.97732 2.7986 1.3196 4.0749 0.07933-1.3254 0.0436-2.8052-0.07438-4.348-1.0331-3.7443-2.5833-7.7611-4.139-10.739z" fill="#fff" fill-rule="evenodd" stroke-width="1.4641"/>
 <path d="m26.29 46.196c0.91892 0.18814 1.307 0.69077 1.4881 1.3193m0.52189-3.2811c1.2151 0.18135 1.801 1.2263 2.0545 2.0528m0.17555-4.4137c1.2756 0.28269 2.4906 1.5958 2.8543 2.9968m-0.11995-4.9365c1.9836 0.15787 2.7458 1.4752 3.3288 2.9647" fill="none" stroke="#803300" stroke-width=".36603"/>
 <path d="m39.783 47.728 1.3493-0.79422" fill="#ffde17" stroke="#000" stroke-linecap="round" stroke-linejoin="round" stroke-width=".4"/>
 <path d="m39.19 46.622 0.83894-0.47939" fill="#ffde17" stroke="#000" stroke-linecap="round" stroke-linejoin="round" stroke-width=".4"/>
</svg>
