<svg version="1.1" viewBox="0 0 64 64" xmlns="http://www.w3.org/2000/svg" xmlns:xlink="http://www.w3.org/1999/xlink">
 <defs>
  <linearGradient id="linearGradient4205" x1="114.73" x2="133.3" y1="44.625" y2="44.268" gradientTransform="matrix(.82444 0 0 .82444 -85.269 1.9239)" gradientUnits="userSpaceOnUse">
   <stop stop-color="#784421" offset="0"/>
   <stop stop-color="#995c33" offset="1"/>
  </linearGradient>
  <linearGradient id="linearGradient4213" x1="116.99" x2="121.6" y1="32.938" y2="28.329" gradientTransform="matrix(.82444 0 0 .82444 -85.269 1.9239)" gradientUnits="userSpaceOnUse">
   <stop stop-color="#ddd3af" offset="0"/>
   <stop stop-color="#fef8e1" offset="1"/>
  </linearGradient>
 </defs>
 <g fill-rule="evenodd" stroke="#000" stroke-width=".4">
  <path d="m59.228 42.247c-1.4757 1.3389-40.925 10.272-44.388 9.3491-1.3488-0.36028-9.2321-8.1974-9.9369-9.4959-1.4246-2.6217-0.95635-19.212-0.95635-19.212l10.157 9.716 45.492-7.5815s1.9193 15.15-0.36852 17.225z" fill="url(#linearGradient4205)"/>
  <path d="m13.703 34.202c-1.6307-0.31328-10.47-8.523-10.587-9.6286-0.21188-1.9902 0.65131-3.9103 3.2392-4.2689 0 0 33.051-5.2962 37.631-5.4042 2.1501-0.05113 13.061 4.7809 14.79 6.2121 1.1336 0.93738 2.1798 2.7396 1.6448 4.1098-0.48807 1.2523-44.49 9.4093-46.718 8.9798z" fill="url(#linearGradient4213)"/>
  <path d="m4.0019 34.629s7.8699 7.8094 10.129 8.2562c4.8386 0.95562 46.129-8.4594 46.129-8.4594 0.06828-0.56624 0.0047-1.103-0.07292-1.6367 0 0-40.074 9.4352-46.071 8.0529-2.8731-0.66086-10.149-7.9428-10.149-7.9428-0.00133 0.57399-0.13652 1.1123 0.037227 1.7297z" fill="#fce1b6"/>
  <path d="m37.936 19.241 1.6134-2.6031 1.1961 1.1976 4.4771-0.72912-1.5622 1.7701 3.9047 1.4582-6.6102 0.25907z" fill="#4a0" stroke-linecap="round" stroke-linejoin="round"/>
  <path d="m20.914 25.332c1.058-2.358 9.5034-4.9084 15.355-7.3921 4.4321-0.49798 5.1876 1.6289 5.9338 3.3834-7.0958 1.3357-19.506 4.3422-21.289 4.0086z" fill="#f1904e" stroke-linecap="round" stroke-linejoin="round"/>
 </g>
 <path d="m24.636 23.093c0.67793 0.20167 1.1014 0.57399 1.1837 1.1976m1.21-2.2774c0.79738 0.14272 1.269 0.99285 1.4055 1.7049m0.80669-2.5892c0.89822 0.26062 1.7825 1.0518 2.0291 1.9904m0.10394-2.7846c1.3419 0.10083 2.7474 1.4939 2.7071 2.1719m-0.42972-3.0965c1.2007 0.32578 3.2144 1.1418 3.371 2.4852m-1.1185-3.3307c1.1588 0.35681 3.4548 1.1604 3.8116 2.7846" fill="none" stroke="#a40" stroke-width=".4"/>
</svg>
