<svg version="1.1" viewBox="0 0 64 64" xmlns="http://www.w3.org/2000/svg" xmlns:xlink="http://www.w3.org/1999/xlink">
 <defs>
  <linearGradient id="linearGradient897" x1="69.559" x2="85.966" y1="54.305" y2="19.593" gradientTransform="translate(-45.361 .19241)" gradientUnits="userSpaceOnUse">
   <stop stop-color="#ffa421" offset="0"/>
   <stop stop-color="#ffd17e" offset="1"/>
  </linearGradient>
  <linearGradient id="linearGradient915" x1="76.655" x2="76.655" y1="61.363" y2="58.583" gradientTransform="translate(-45.361 .19241)" gradientUnits="userSpaceOnUse">
   <stop stop-opacity=".50196" offset="0"/>
   <stop stop-color="#1c2424" stop-opacity="0" offset="1"/>
  </linearGradient>
  <linearGradient id="linearGradient1178" x1="71.559" x2="85.186" y1="40.373" y2="40.305" gradientTransform="translate(-45.361 .19241)" gradientUnits="userSpaceOnUse">
   <stop stop-color="#f2f2f2" offset="0"/>
   <stop stop-color="#fafbfb" offset="1"/>
  </linearGradient>
 </defs>
 <path d="m26.217 5.4912c0.31644 0.50319 11.564 0.50198 11.7-0.1199-2.2965-2.8944-11.104-1.9082-11.7 0.1199z" fill="#6d5908" stroke="#000" stroke-linecap="round" stroke-linejoin="round" stroke-width=".24682"/>
 <path d="m22.809 51.872s-0.81563 2.1057-0.87695 4.6012c-0.0532 2.1651 0.20683 3.4752 1.2605 4.1238 2.7955 1.7208 15.252 1.2766 17.258 0.14382 1.0674-0.60266 1.6261-1.8771 1.6241-4.18-0.0023-2.68-0.73313-4.5591-0.73313-4.5591l0.0058-24.299c1.851-7.2764-0.12055-8.7911-3.3417-13.942-2.3547-0.43483-8.6206-2.9018-11.016-2.8223-0.0958 0.41731-0.49634 2.2892-0.6294 2.5114-3.3667 5.6211-4.9786 6.698-3.503 14.453z" fill="url(#linearGradient897)"/>
 <g stroke="#000" stroke-linecap="round" stroke-linejoin="round">
  <path d="m22.809 51.872s-0.81563 2.1057-0.87695 4.6012c-0.0532 2.1651 0.20683 3.4752 1.2605 4.1238 2.7955 1.7208 15.252 1.2766 17.258 0.14382 1.0674-0.60266 1.6261-1.8771 1.6241-4.18-0.0023-2.68-0.73313-4.5591-0.73313-4.5591l0.0058-24.299c1.851-7.2764-0.12055-8.7911-3.3417-13.942-1.044-1.6695-0.95879-9.6358-0.95879-9.6358l-9.816 0.076022s0.09007 7.6441-0.87114 9.2489c-3.3667 5.6211-4.9786 6.698-3.503 14.453z" fill="#dbe3e3" fill-opacity=".25098" stroke-width=".5"/>
  <path d="m22.959 28.136c0.5459-9e-3 15.237 0.0992 18.253-0.09829l0.03803 23.6c-4.2234 0.95139-13.631 1.3328-18.339-0.14964z" fill="url(#linearGradient1178)" stroke-width=".25"/>
  <path d="m27.147 5.5864c-0.63878 0.14796-0.71618 1.2531 0.04794 1.1266 1.2883-0.21335 8.694-0.34516 9.9474 0.02397 0.40846 0.12029 0.81044-0.89843-0.02397-1.0786-2.3107-0.49906-8.2943-0.46038-9.9714-0.071909z" fill="#dbe3e3" fill-opacity=".50196" stroke-width=".25"/>
  <path d="m26.217 5.3953c0.83811-0.88 11.571-0.75474 11.7-0.02398l-0.023354-2.2541c-0.014304-1.3807-11.667-1.2872-11.671 0.13189z" fill="#f6ce2f" stroke-width=".24682"/>
 </g>
 <path d="m36.903 11.747c0.10117 1.1152 0.44751 2.4156 1.2202 3.9687 0.5973 1.2005 1.3322 2.3488 1.8578 3.3206 0.33428 0.61797 0.56231 1.1108 0.71436 1.5143 0.16034 0.42554 0.37018 1.1963 0.44343 2.1169 0.13877 1.7444-0.24894 3.1436-0.64041 4.4201 0.38024-1.2399 0.50145-2.7888 0.13613-4.3423-0.19807-0.8423-0.49591-1.5316-0.6455-1.9286-0.15402-0.40877-0.31596-0.83355-0.6025-1.4903-0.43156-0.9891-1.0458-2.2215-1.531-3.4936-0.64542-1.6918-0.84773-2.9305-0.95255-4.0859z" fill="#fff"/>
 <path d="m40.403 53.023c0.09276 0.20807 0.13224 0.92384 0.19128 1.1478 0.13288 0.50401 0.33795 1.286 0.36416 2.3736 0.02594 1.0765-0.14194 2.0221-0.31575 2.6149 0.18002-0.61406 0.43255-1.4898 0.51493-2.6099 0.0801-1.0892-0.04211-1.9646-0.17802-2.4802-0.06217-0.23583-0.48384-0.83814-0.57661-1.0462z" fill="#fff"/>
 <path d="m21.932 56.473c-0.0532 2.1651 0.20683 3.4752 1.2605 4.1238 2.7955 1.7208 15.252 1.2766 17.258 0.14382 1.0674-0.60266 1.6261-1.8771 1.6241-4.18-3.7904-3.0726-17.012-3.2795-20.143-0.08765z" fill="url(#linearGradient915)"/>
 <g fill="none" stroke="#1a1a1a" stroke-linecap="round" stroke-linejoin="round" stroke-width=".65">
  <path d="m28.749 30.189c-0.66368 0.1541-1.8442 0.14376-1.9769 0.46678-0.36422 0.20511-1.2628 3.0108-0.96102 3.1164 0.7531 0.2938 1.3284-0.23026 1.9632-0.48051"/>
  <path d="m26.028 32.366 2.2231-0.65042"/>
  <path d="m29.416 31.599c-0.24897 1.0172-0.3859 1.8114 0.06795 2.0775 0.4321 0.25327 1.0062-1.1222 1.5047-1.7474 0.01072 0.74748-0.12172 1.6376 0.29123 1.6891 0.34651 0.04329 0.81869-1.4367 1.2232-2.2134"/>
  <path d="m32.746 32.832c2.5915 0.21307 2.4385-1.5324 1.5921-1.1941-1.6148 0.64551-1.7273 2.2968-0.51451 2.2522 0.47496-0.01748 0.79381-0.17895 1.1843-0.54363"/>
  <path d="m36.629 30.142-0.57276 1.33"/>
  <path d="m38.677 31.569c-0.44065-0.23777-1.3251-0.03599-1.4173 0.65042-0.0849 0.63199 1.4124 0.27928 1.0387 1.0387-0.20478 0.41625-1.0331 0.70706-1.4173 0.38831"/>
  <path d="m25.956 49.274c0.48002-0.99546 0.67034-2.0633 0.86492-3.1302 3.0112-0.97466 2.6754 0.69435-0.24712 1.5514 3.5434-0.09628 0.51504 2.1986-0.26085 1.7161"/>
 </g>
 <g transform="translate(-45.53 -.55335)" stroke-linecap="round" stroke-linejoin="round">
  <path d="m77.434 40.804c1.5644 2.2607 1.5819 4.2913 1.251 5.1668" fill="none" stroke="#000" stroke-width="1.25"/>
  <path d="m77.434 40.804c1.5644 2.2607 1.5819 4.2913 1.251 5.1668" fill="none" stroke="#71c837" stroke-width=".75"/>
  <g transform="translate(-.65649 -.069816)" fill="none" stroke="#1a1a1a" stroke-width="1.25">
   <path d="m75.792 43.17c1.9361-2.0524 2.9809-4.4613 3.6434-7.0231"/>
   <path d="m74.895 42.065c2.587-1.1261 4.4947-2.9302 6.111-5.0254"/>
   <path d="m74.27 40.296c2.8197 0.10078 5.3192-0.70334 7.6815-1.8957"/>
   <path d="m74.509 38.892c2.553 1.2011 5.1675 1.4444 7.8083 1.2766"/>
   <path d="m75.215 36.915c1.7572 2.2075 3.9937 3.5833 6.4357 4.6022"/>
   <path d="m76.437 36.183c0.74795 2.7205 2.2635 4.8647 4.1083 6.7617"/>
   <path d="m77.659 43.817c0.85876-2.6876 0.75979-5.3115 0.24988-7.908"/>
  </g>
  <g>
   <g transform="translate(-.65649 -.069816)" fill="none" stroke="#ffce0c" stroke-width=".75">
    <path d="m75.792 43.17c1.9361-2.0524 2.9809-4.4613 3.6434-7.0231"/>
    <path d="m74.895 42.065c2.587-1.1261 4.4947-2.9302 6.111-5.0254"/>
    <path d="m74.27 40.296c2.8197 0.10078 5.3192-0.70334 7.6815-1.8957"/>
    <path d="m74.509 38.892c2.553 1.2011 5.1675 1.4444 7.8083 1.2766"/>
    <path d="m75.215 36.915c1.7572 2.2075 3.9937 3.5833 6.4357 4.6022"/>
    <path d="m76.437 36.183c0.74795 2.7205 2.2635 4.8647 4.1083 6.7617"/>
    <path d="m77.659 43.817c0.85876-2.6876 0.75979-5.3115 0.24988-7.908"/>
   </g>
   <ellipse cx="77.555" cy="39.96" rx="1.1986" ry="1.152" fill="#ffdc53" fill-opacity=".98131" stroke="#1a1a1a" stroke-width=".20596"/>
   <ellipse cx="77.492" cy="39.909" rx=".62542" ry=".59152" fill="#ffe166" fill-opacity=".98131" stroke="#1a1a1a" stroke-width=".1066"/>
  </g>
 </g>
 <g fill="none" stroke-linecap="round" stroke-linejoin="round">
  <g stroke="#1a1a1a" stroke-width=".65">
   <path d="m29.334 49.425c0.18776-0.90649 0.30987-1.6161 0.42559-2.3064"/>
   <path d="m29.649 47.942c0.20913-0.67764 1.4674-1.0971 1.4141-0.41186"/>
   <path d="m34.824 47.138c-0.24897 1.0172-0.3859 1.8114 0.06795 2.0775 0.4321 0.25327 1.0062-1.1222 1.5047-1.7474 0.01072 0.74748-0.12172 1.6376 0.29123 1.6891 0.34651 0.04329 0.81869-1.4367 1.2232-2.2134"/>
   <path d="m31.374 48.4c2.5915 0.21307 2.4385-1.5324 1.5921-1.1941-1.6148 0.64551-1.7273 2.2968-0.51451 2.2522 0.47496-0.01748 0.79381-0.17895 1.1843-0.54363"/>
  </g>
  <path d="m22.881 29.149c4.6587 0.07986 11.946 0.20382 18.433-0.04794" stroke="#000" stroke-width=".25"/>
  <path d="m22.797 50.479c3.5217 0.6346 12.153 1.3369 18.433-0.04794" stroke="#000" stroke-width=".25"/>
 </g>
 <path d="m37.55 4.0763c-0.01146-0.11069 0.15186-0.54605 0.08055-0.6548-0.0153-0.02334-0.03224-0.047275-0.05094-0.07161-0.12265-0.15964-0.3064-0.31807-0.57453-0.45256-0.4034-0.20232-0.93761-0.32102-1.5903-0.37701-0.60698-0.052071-1.2623-0.045129-1.8564-0.024094-0.77345 0.027386-1.3943 0.069974-1.7372 0.069974 0.26898 0 1.0266 0.020888 1.7348 0.07056 0.5927 0.041574 1.2327 0.10819 1.8086 0.22857 0.62759 0.13119 1.0714 0.30376 1.3706 0.50407 0.19038 0.12745 0.29546 0.24841 0.36155 0.34125 0.01043 0.014647 0.01995 0.028706 0.02871 0.042054 0.04084 0.062286 0.41313 0.21289 0.42459 0.32359z" fill="#fff"/>
</svg>
