<svg version="1.1" viewBox="0 0 64 64" xmlns="http://www.w3.org/2000/svg" xmlns:xlink="http://www.w3.org/1999/xlink">
 <defs>
  <linearGradient id="linearGradient887" x1="24.068" x2="35.797" y1="54.508" y2="39.593" gradientUnits="userSpaceOnUse">
   <stop stop-color="#00e5b7" offset="0"/>
   <stop stop-color="#0fc" offset="1"/>
  </linearGradient>
 </defs>
 <path d="m24.116 57.523c-0.24098 1.3534-0.24178 3.5344 1.1401 3.7612 4.3889 0.71992 8.8505 0.73653 13.407-0.13263 1.7211-0.32948 1.3624-2.3517 1.0827-3.6219 0 0-1.4427-5.7129-1.6288-8.3826-0.31842-4.538 0.80334-12.587 0.95823-13.063 0.213-0.64669-0.26368-0.90078-0.30313-1.4692l-0.63393-8.9099c-0.04633-0.66705 0.07519-0.85371 0.07484-1.3543-0.01852-5.5584-1.1888-5.7247-2.347-9.3427-3.3902-0.94623-4.7326-2.223-8.406-2.488-1.0668 3.2393-3.043 6.8209-3.2599 12.606-0.04889 1.2898 0.11007 0.6788 0.09302 1.0319l-0.39565 8.7864c-0.03153 0.68913-0.37657 0.84218-0.29394 1.5152 0.06213 0.51051 1.5597 8.0872 1.4323 12.834-0.06179 2.3441-0.92005 8.2294-0.92005 8.2294z" fill="url(#linearGradient887)" fill-rule="evenodd" stroke-width="1.2155"/>
 <g fill="#d5fff6" stroke-width="1.2155">
  <ellipse transform="rotate(16.901)" cx="34.179" cy="10.087" rx=".72201" ry=".6661"/>
  <ellipse transform="rotate(16.901)" cx="35.563" cy="6.8043" rx=".91163" ry=".80102"/>
  <ellipse transform="rotate(16.901)" cx="47.718" cy="43.215" rx=".96633" ry=".85572"/>
  <ellipse transform="rotate(16.901)" cx="49.645" cy="46.85" rx=".72201" ry=".63814"/>
  <ellipse transform="rotate(16.901)" cx="39.089" cy="28.428" rx="1.1292" ry="1.0453"/>
  <ellipse transform="rotate(16.901)" cx="39.958" cy="36.948" rx=".64057" ry=".55792"/>
  <ellipse transform="rotate(16.901)" cx="41.042" cy="34.047" rx=".96633" ry=".85572"/>
 </g>
 <path d="m24.116 57.523c-0.24098 1.3534-0.24178 3.5344 1.1401 3.7612 4.3889 0.71992 8.8505 0.73653 13.407-0.13263 1.7211-0.32948 1.3624-2.3517 1.0827-3.6219 0 0-1.4427-5.7129-1.6288-8.3826-0.31842-4.538 0.72819-12.574 0.88425-13.05 0.213-0.64669-0.1897-0.9138-0.23031-1.4826l-0.63161-8.9092c0.0034-0.46401 0.24352-0.85407 0.24317-1.3547-0.02794-8.4793-3.5433-6.005-4.1296-19.107 0.52611 0.0036 0.45509-0.73774-0.03126-0.77624l-0.17002-1.4128-5.6297 0.098496-0.34324 1.2969c-0.42764 0.069515-0.5055 0.72297 0.01537 0.76054 0.04961 11.586-3.7116 10.237-4.0634 19.644-0.04889 1.2898 0.27958 0.94998 0.26251 1.303l-0.39565 8.7864c-0.03153 0.68913-0.21349 0.78628-0.13087 1.4593 0.06061 0.51132 1.3966 8.1431 1.2692 12.89-0.06179 2.3441-0.92005 8.2294-0.92005 8.2294z" fill="#d7eef4" fill-opacity=".251" fill-rule="evenodd" stroke="#000" stroke-width=".4"/>
 <path d="m24.292 26.267c4.5654 0.15995 9.0275 0.32536 13.816-0.29046l0.63488 8.773c-5.0746 0.78421-10.054 0.7603-14.819 0.24851z" fill="#0f6" fill-rule="evenodd" stroke="#000" stroke-width=".25"/>
 <g fill="none" stroke="#000">
  <path d="m28.094 5.2112c0.18332 0.0025 6.0926-0.014009 6.0926-0.014009m-6.1507-0.70304c0.13538-0.027466 6.1857-0.026135 6.1857-0.026135" stroke-width=".30388"/>
  <path d="m27.985 28.538c-0.60136-0.43133-1.9898-0.07228-1.6077 0.3576 0.32419 0.45737 1.735 0.01379 1.7237 0.62788-0.03984 0.30212-1.3754 0.80643-1.9759 0.26367 0.35138 0.59564 3.1678 0.03333 2.9259-1.4178l-0.08371 1.5649 1.2844 0.01035 0.01787-1.5464-0.01787 1.5464 0.67073-0.04696 0.45258-1.5786 0.59619 1.1192 0.50458-1.1241 0.45553 1.5487 0.63561-0.02491-0.01307-1.5841 0.99546-0.02653m-8.9461 3.0318c-1.4563-0.21745-0.94822 1.7296-0.09061 1.6889 2.0201-0.09573 0.42305-1.816 0.09061-1.6889 0.67153 2e-3 1.3242 0.05974 1.3242 0.05974l0.12885 1.6237 1.0643 0.0094-0.10328-1.6393 0.66029 0.0321 0.07591 1.5949 1.2796-0.0302 0.33846-0.04029-0.0582-1.5561 0.9488 1.5271-0.02211-1.5485 1.6491 0.01834c-1.7033-0.07478-1.5755 1.7881 0.055 1.568l0.52419-0.03026 0.0085-1.5352-0.01078 0.74962 1.0677-0.0099-0.02422-0.7457 0.06937 1.6013 0.70477 0.01531-0.13849-1.6383 1.576-0.02474 0.07502 1.6796" stroke-linecap="round" stroke-linejoin="round" stroke-width=".4"/>
  <path d="m24.314 27.201c1.4599 0.41481 12.574 0.33195 13.85-0.2787m-14.179 7.0638c1.6277 0.41481 11.84 0.58266 14.723-0.24372" stroke-width=".30388"/>
 </g>
 <path d="m27.686 4.1178c0.0029-0.49265 0.06283-0.96485 0.19508-1.4112 0.49021-0.71311 6.1027-0.6513 6.2547 0.01969 0.20835 0.45118 0.3173 0.90325 0.44366 1.3552-0.04879-0.097255-0.20877 0.084729-0.48704 0.018343-0.13-0.031014-0.2731-0.13884-0.44011-0.16321-0.18614-0.027157-0.37474 0.12317-0.59592 0.1042-0.21841-0.018734-0.41158-0.14953-0.65298-0.16036-0.26103-0.011711-0.57176 0.097211-0.84617 0.09465-0.21422-0.00199-0.47952-0.098666-0.69428-0.095143-0.29094 0.00478-0.53018 0.11205-0.80769 0.12686-0.2285 0.012203-0.41808-0.070383-0.62722-0.051447-0.21769 0.019712-0.47938 0.048-0.66585 0.074941-0.15434 0.022297-0.38568-0.050026-0.51209-0.022821-0.34496 0.074242-0.50939 1.055e-4 -0.56412 0.11034z" fill="#4d4d4d" stroke="#000" stroke-linecap="round" stroke-linejoin="round" stroke-width=".39998"/>
 <g>
  <path d="m28.842 3.1003c-3.08e-4 0.00917-0.02772 0.025157-0.0626 0.045994-0.0288 0.017204-0.06042 0.036479-0.0866 0.056661-0.02242 0.017286-0.03909 0.034021-0.04144 0.046512-0.0047 0.024878 4.43e-4 0.070575 0.0092 0.12518 0.0099 0.06121 0.02437 0.13304 0.03821 0.19282 0.0169 0.072939 0.03375 0.12725 0.03119 0.14361 0.0029-0.018351 0.03666-0.059572 0.08158-0.1205 0.03655-0.049576 0.07795-0.1082 0.11161-0.16236 0.02983-0.047989 0.05193-0.089853 0.05702-0.11692 0.0025-0.013324-0.0067-0.03655-0.02171-0.062309-0.01747-0.030068-0.04107-0.061033-0.06409-0.087415-0.02763-0.031666-0.05265-0.053581-0.05239-0.061275z"/>
  <path d="m30.063 3.0007c1.21e-4 0.00917-0.02651 0.026438-0.06038 0.048924-0.02796 0.018566-0.05865 0.039346-0.08385 0.06078-0.02159 0.018359-0.03745 0.035896-0.03921 0.048507-0.0035 0.025116 0.0038 0.070599 0.0151 0.12482 0.01272 0.060782 0.03059 0.13197 0.04723 0.19112 0.0203 0.072178 0.03969 0.1257 0.0379 0.14219 2e-3 -0.018485 0.03383-0.061333 0.07583-0.12444 0.03418-0.051344 0.07279-0.11198 0.10386-0.16776 0.02754-0.049432 0.04765-0.092363 0.05147-0.11967 0.0019-0.013447-0.0085-0.036239-0.02462-0.061293-0.01886-0.029246-0.04389-0.059096-0.06812-0.084388-0.02909-0.030359-0.05511-0.051088-0.05521-0.058786z"/>
  <path d="m31.521 2.962c0.0023 0.00881-0.01941 0.031886-0.04688 0.061806-0.02269 0.024708-0.04747 0.05224-0.06678 0.079121-0.01654 0.02302-0.02772 0.04388-0.02639 0.056558 0.0026 0.025249 0.02064 0.067713 0.04472 0.1177 0.02699 0.056034 0.06148 0.12096 0.09187 0.17446 0.03709 0.065284 0.06879 0.11261 0.07102 0.12903-0.0025-0.018398 0.01807-0.067691 0.04364-0.13917 0.0208-0.058153 0.04367-0.12645 0.0604-0.18815 0.01483-0.05469 0.02401-0.10125 0.02114-0.12869-0.0014-0.013512-0.01693-0.03316-0.03864-0.053591-0.02534-0.02385-0.05681-0.046789-0.0864-0.065473-0.03552-0.022425-0.06575-0.03621-0.06769-0.043589z"/>
  <path d="m33.094 3.0462c0.0024 0.0088-0.0192 0.032003-0.04648 0.062092-0.02253 0.024847-0.04714 0.05253-0.06628 0.079529-0.01639 0.023121-0.02744 0.044047-0.02603 0.056714 0.0028 0.025227 0.02107 0.067569 0.04546 0.11739 0.02734 0.055854 0.06224 0.12055 0.09298 0.17385 0.03751 0.065038 0.06951 0.11216 0.07184 0.12855-0.0026-0.018379 0.01764-0.067794 0.04275-0.13942 0.02043-0.058276 0.04287-0.12671 0.0592-0.18851 0.01448-0.054777 0.02337-0.10139 0.02032-0.12881-0.0015-0.013502-0.01714-0.033047-0.03898-0.053338-0.02549-0.023685-0.0571-0.046419-0.08682-0.06491-0.03566-0.022193-0.06598-0.035778-0.06796-0.043141z"/>
  <path d="m34.063 3.1991c0.0035 0.00833-0.0148 0.034082-0.03787 0.06737-0.01905 0.027492-0.03979 0.058049-0.0552 0.087218-0.0132 0.024976-0.02139 0.04708-0.01832 0.05938 0.0061 0.024493 0.02978 0.063815 0.06053 0.10972 0.03446 0.051455 0.07759 0.11066 0.11507 0.15916 0.04575 0.059176 0.08368 0.1014 0.08814 0.11722-5e-3 -0.017764 0.0085-0.0692 0.02399-0.14323 0.01256-0.060226 0.02577-0.13075 0.03381-0.19392 0.0071-0.055988 0.0098-0.10317 0.0031-0.12982-0.0033-0.013123-0.02135-0.030322-0.04567-0.047419-0.02839-0.019958-0.06271-0.038151-0.0946-0.052384-0.03826-0.017082-0.07009-0.026347-0.07301-0.033294z"/>
  <path d="m28.1 3.2267c-0.0018 0.00896-0.03154 0.019975-0.06939 0.034391-0.03124 0.011902-0.06561 0.025307-0.09476 0.040517-0.02497 0.013028-0.04417 0.026496-0.04857 0.038285-0.0088 0.023478-0.01133 0.068967-0.01179 0.12379-5.06e-4 0.061451 0.0018 0.13409 0.0054 0.19485 0.0045 0.074133 0.01199 0.1301 0.0067 0.14566 0.0059-0.017469 0.04605-0.051918 0.10045-0.10367 0.04426-0.042109 0.0948-0.092198 0.137-0.13929 0.03739-0.041732 0.06615-0.078837 0.07569-0.10442 0.0047-0.012595-5.32e-4 -0.036892-0.01096-0.064651-0.01217-0.032403-0.03023-0.066741-0.04849-0.096497-0.02192-0.035716-0.0429-0.061443-0.04135-0.068949z"/>
 </g>
 <g fill="#00e5b7" stroke="#000" stroke-linecap="round" stroke-linejoin="round" stroke-width=".4">
  <path d="m33.57 29.088 0.73108-0.02397"/>
  <path d="m33.566 29.838 1.1178-0.01844"/>
  <path d="m35.286 32.173 0.73108-0.02397"/>
  <path d="m35.283 32.923 1.1178-0.01844"/>
  <path d="m28.918 32.178 0.73108-0.02397"/>
  <path d="m28.677 31.345 1.1178-0.01844"/>
 </g>
 <path d="m36.721 31.26c1.4023-0.14335 1.1494 0.98534 0.06087 0.86033l1.0307 0.83894" fill="none" stroke="#000" stroke-linecap="round" stroke-linejoin="round" stroke-width=".4"/>
 <path d="m25.767 32.456 0.50336 0.76703" fill="none" stroke="#000" stroke-linecap="round" stroke-linejoin="round" stroke-width=".4"/>
 <path d="m37.728 36.866c-0.12678 0.65529-0.12811 2.778-0.19048 3.5065-0.12265 1.4324-0.30588 3.6177-0.20896 6.6214 0.09518 2.9495 0.43364 5.5016 0.73502 7.0824-0.31582-1.6566-0.76585-4.0312-1.0193-7.0659-0.24604-2.9457-0.1933-5.2959-0.07423-6.6864 0.0633-0.73921 0.6312-2.8026 0.75798-3.4579z" fill="#fff"/>
 <path d="m23.754 35.979c4.8212 0.36303 9.7076 0.60755 15.221-0.28764" fill="none" stroke="#000" stroke-linecap="round" stroke-linejoin="round" stroke-width=".25"/>
 <path d="m24.152 25.675c4.7871 0.29485 8.3657 0.33062 14.051-0.21984" fill="none" stroke="#000" stroke-linecap="round" stroke-linejoin="round" stroke-width=".25"/>
</svg>
