<svg xmlns="http://www.w3.org/2000/svg" xmlns:xlink="http://www.w3.org/1999/xlink" cursor="default" viewBox="0 0 256 256">
    <defs>
        <linearGradient id="linearGradient6387">
            <stop offset="0" stop-color="#f55"/>
            <stop offset="1" stop-color="#ffd5d5"/>
        </linearGradient>
        <linearGradient id="linearGradient4">
            <stop offset="0" stop-color="#faa"/>
            <stop offset="1" stop-color="#ffd5d5"/>
        </linearGradient>
        <linearGradient id="linearGradient2">
            <stop offset="0" stop-color="#f55"/>
            <stop offset="1" stop-color="#ff8080"/>
        </linearGradient>
        <linearGradient id="linearGradient1" x1="50.121" x2="74.047" y1="1040.855" y2="983.584" gradientTransform="translate(11.318 96.132) scale(.89348)" gradientUnits="userSpaceOnUse" xlink:href="#linearGradient6387"/>
        <linearGradient id="linearGradient5" x1="-4.034" x2="26.637" y1="1036.246" y2="1012.677" gradientTransform="translate(11.5 96.292) scale(.89348)" gradientUnits="userSpaceOnUse" xlink:href="#linearGradient4"/>
        <linearGradient id="linearGradient5-0" x1="-3.514" x2="32.646" y1="1034.257" y2="1016.111" gradientTransform="matrix(-.89348 0 0 .89348 242.43 101.424)" gradientUnits="userSpaceOnUse" xlink:href="#linearGradient4"/>
        <radialGradient id="radialGradient1302" cx="139.402" cy="1040.084" r="49.958" fx="139.402" fy="1040.084" gradientTransform="matrix(1.76934 -.6128 .31104 .89808 -419.418 172.206)" gradientUnits="userSpaceOnUse" xlink:href="#linearGradient6387"/>
        <linearGradient id="linearGradient3-9-1" x1="126.679" x2="123.822" y1="820.509" y2="839.365" gradientTransform="matrix(.42147 -.01107 .00868 .43266 65.681 646.57)" gradientUnits="userSpaceOnUse" xlink:href="#linearGradient2"/>
        <radialGradient id="radialGradient6381" cx="86.151" cy="1046.617" r="48.349" fx="86.151" fy="1046.617" gradientTransform="matrix(1.58965 -.46099 .42418 1.4627 -494.75 -466.332)" gradientUnits="userSpaceOnUse" xlink:href="#linearGradient6387"/>
        <linearGradient id="linearGradient6399" x1="187.819" x2="172.92" y1="1032.418" y2="980.097" gradientUnits="userSpaceOnUse" xlink:href="#linearGradient6387"/>
        <linearGradient id="linearGradient1488" x1="193.543" x2="193.543" y1="31.725" y2="85.525" gradientUnits="userSpaceOnUse" xlink:href="#linearGradient4"/>
        <linearGradient id="linearGradient1496" x1="68.774" x2="68.774" y1="26.185" y2="78.588" gradientUnits="userSpaceOnUse" xlink:href="#linearGradient4"/>
        <linearGradient id="linearGradient1504" x1="184.97" x2="184.86" y1="31.754" y2="63.721" gradientUnits="userSpaceOnUse" xlink:href="#linearGradient2"/>
        <linearGradient id="linearGradient1512" x1="69.035" x2="69.035" y1="26.45" y2="59.779" gradientUnits="userSpaceOnUse" xlink:href="#linearGradient2"/>
        <linearGradient id="linearGradient1520" x1="75.215" x2="75.215" y1="143.479" y2="98.191" gradientUnits="userSpaceOnUse" xlink:href="#linearGradient2"/>
        <linearGradient id="linearGradient1528" x1="176.572" x2="176.843" y1="151.164" y2="99.155" gradientUnits="userSpaceOnUse" xlink:href="#linearGradient2"/>
    </defs>
    <path fill="#ccc" stroke="#000" stroke-width=".5" d="M184.642 62.414a6.038 3.779 0 0 1 6.038 3.777 6.038 3.779 0 0 1-6.038 3.78 6.038 3.779 0 0 1-6.038-3.78 6.038 3.779 0 0 1 6.038-3.777zm.218 1.307a4.293 2.525 0 0 0-4.293 2.525 4.293 2.525 0 0 0 4.293 2.525 4.293 2.525 0 0 0 4.293-2.525 4.293 2.525 0 0 0-4.293-2.525z"/>
    <path fill="url(#linearGradient1504)" fill-rule="evenodd" stroke="#000" stroke-width=".6" d="M188.413 65.847l-7.978-.672c1.811-17.372 2.698-22.443 4.535-33.421h6.382z"/>
    <path fill="none" stroke="#000" stroke-width=".47" d="M188.749 57.786l-7.222-.504"/>
    <path fill="#ccc" stroke="#000" stroke-width=".5" d="M69.363 57.111a6.038 3.779 0 0 0-6.038 3.778 6.038 3.779 0 0 0 6.038 3.78 6.038 3.779 0 0 0 6.038-3.78 6.038 3.779 0 0 0-6.038-3.778zm-.218 1.307a4.293 2.525 0 0 1 4.293 2.526 4.293 2.525 0 0 1-4.293 2.525 4.293 2.525 0 0 1-4.293-2.525 4.293 2.525 0 0 1 4.293-2.526z"/>
    <path fill="url(#linearGradient1512)" fill-rule="evenodd" stroke="#000" stroke-width=".5" d="M65.592 60.545l7.978-.672c-1.812-17.373-2.7-22.444-4.535-33.423h-6.382z"/>
    <path fill="none" stroke="#000" stroke-width=".47" d="M65.256 52.483l7.222-.504"/>
    <path fill="url(#linearGradient1488)" fill-rule="evenodd" stroke="#000" stroke-width=".6" d="M202.094 129.58l.048.559c-2.803-32.456-2.304-65.26-8.599-98.414l-8.313-.238c4.03 30.433 8.61 66.711 8.853 102.51z"/>
    <path fill="url(#linearGradient1496)" fill-rule="evenodd" stroke="#000" stroke-width=".5" d="M51.753 125.067c2.85-32.619 2.383-65.331 8.708-98.644l8.313-.238c-4.03 30.432-8.602 65.85-8.845 101.648z"/>
    <path fill="#ccc" stroke="#000" stroke-width=".5" d="M74.012 126.605c-3.395 0-6.146 1.007-6.147 2.25 0 1.242 2.751 2.25 6.147 2.25 3.395 0 6.147-1.008 6.146-2.25 0-1.243-2.752-2.25-6.146-2.25zm-.18.953c2.414 0 4.328.499 4.328 1.329s-1.871 1.204-4.285 1.204-3.815-.374-3.815-1.204 1.359-1.329 3.772-1.329z"/>
    <path fill="#ccc" stroke="#000" stroke-width=".5" d="M73.935 130.27c-3.394 0-6.146 1.007-6.147 2.25 0 1.242 2.752 2.25 6.147 2.25 3.395 0 6.147-1.008 6.147-2.25-.001-1.243-2.753-2.25-6.147-2.25zm-.18.954c2.414 0 4.328.498 4.328 1.328 0 .83-1.871 1.204-4.285 1.204-2.413 0-3.814-.373-3.814-1.204 0-.83 1.358-1.328 3.772-1.328z"/>
    <path fill="none" stroke="#000" stroke-dasharray="2.680425,.4467375" stroke-width=".447" d="M137.156 207.24s-12.171 2.744-22.132.401"/>
    <path fill="#ffd5d5" fill-rule="evenodd" stroke="#000" stroke-width=".447" d="M139.574 207.737c.58.69.85 3.117.85 3.117-3.74 2.334-24.906 2.268-28.846.67l.99-3.086c1.74.627 9.601.971 13.419.977 4.763.01 12.187-1.63 13.587-1.678zm-2.168-8.921c-.272.69.21 7.665.21 7.665-1.462.31-6.5.775-11.472.9-4.489.113-8.93-.057-10.529-.76l1.436-8.31c1.742.628 5.495.972 9.313.977 4.763.007 9.642-.424 11.042-.472z"/>
    <path fill="url(#linearGradient5-0)" fill-rule="evenodd" stroke="#000" stroke-width=".5" d="M248.695 988.622c-2.609 4.964-3.762 26.284-3.125 36.89-41.627-4.665-15.165-1.235-80.608-1.141.093-27.277-4.743-12.711-6.232-33.23l50.56-17.19c13.127 4.682 22.544 9.722 39.405 14.67z" transform="translate(0 -796.362)"/>
    <path fill="#ffd5d5" fill-rule="evenodd" stroke="#000" stroke-width=".447" d="M249.453 191.691c-.272.69-1.18 4.256-1.18 4.256-6.38-2.565-13.957-4.69-19.79-8.005l1.688-2.784c3.914 1.41 9.405 3.59 19.282 6.533zm-83.413 36.71c23.701.68 13.886.017 79.993 2.526.143-1.36.493-3.723.08-3.758-61.271-1.666-21.073-1.374-80.337-2.547 9.54.861.148 1.935.264 3.78z"/>
    <path fill="#ccc" stroke="#000" stroke-width=".5" d="M179.98 131.183c3.395 0 6.146 1.007 6.147 2.25.001 1.242-2.751 2.25-6.146 2.25-3.396 0-6.148-1.008-6.147-2.25 0-1.243 2.753-2.25 6.147-2.25zm.18.954c-2.414 0-4.327.498-4.328 1.328 0 .83 1.872 1.204 4.285 1.204 2.414 0 3.815-.373 3.815-1.204 0-.83-1.358-1.328-3.772-1.328z"/>
    <path fill="#ccc" stroke="#000" stroke-width=".5" d="M180.057 134.848c3.394 0 6.146 1.007 6.147 2.25 0 1.243-2.751 2.25-6.147 2.25-3.395 0-6.147-1.007-6.146-2.25 0-1.243 2.752-2.25 6.146-2.25zm.18.954c-2.414 0-4.328.498-4.328 1.328 0 .83 1.871 1.204 4.285 1.204s3.814-.373 3.815-1.204c0-.83-1.359-1.328-3.772-1.328z"/>
    <path fill="url(#linearGradient1528)" fill-rule="evenodd" stroke="#000" stroke-width=".6" d="M184.298 146.797l-.546-10.58h-7.138l-.042 14.947zm-.546-11.63l-7.348.21c1.125-22.876 2.407-45.7 4.2-68.354l7.893.671c-2.03 21.788-3.593 44.588-4.745 67.473z"/>
    <path fill="none" stroke="#000" stroke-width=".47" d="M184.172 124.754l-7.222-.504"/>
    <path fill="none" stroke="#000" stroke-dasharray="2.680425,.4467375" stroke-width=".447" d="M130.501 200.46c11.157-34.253 42.56-43.837 63.578-69.567"/>
    <path fill="url(#linearGradient1520)" fill-rule="evenodd" stroke="#000" stroke-width=".6" d="M69.707 141.495l.546-10.58h7.137l.042 14.946zm.546-11.631l7.347.21c-1.125-22.876-2.406-45.7-4.198-68.354l-7.894.672c2.03 21.788 3.593 44.588 4.745 67.472z"/>
    <path fill="none" stroke="#000" stroke-width=".47" d="M69.833 119.452l7.221-.504"/>
    <path fill="url(#linearGradient5)" fill-rule="evenodd" stroke="#000" stroke-width=".5" d="M5.17 983.68c2.609 4.963 3.825 26.726 3.188 37.33 41.627-4.663 15.165-1.864 80.608-1.771-.093-27.277 4.743-12.711 6.232-33.23l-50.56-17.19c-13.127 4.682-22.607 9.911-39.468 14.86z" transform="translate(0 -796.362)"/>
    <path fill="#ffd5d5" fill-rule="evenodd" stroke="#000" stroke-width=".447" d="M4.475 186.56c.273.69 1.18 4.255 1.18 4.255 6.38-2.565 13.357-3.775 19.191-7.09l-1.436-3.51c-3.914 1.41-9.057 3.4-18.935 6.344zm83.413 36.71c-23.701.68-13.886.016-79.992 2.525-.144-1.36-.494-3.723-.08-3.758 61.27-1.666 21.072-1.374 80.336-2.546-9.54.86-.147 1.934-.264 3.778z"/>
    <path fill="url(#linearGradient1)" fill-rule="evenodd" stroke="#000" stroke-width=".893" d="M24.42 977.146c32.892 80.425 84.707 37.305 91.668 22.303-5.408-43.699-33.94-40.834-57.926-69.887l-6.314-7.88c-5.323 17.878-12.336 42.027-27.428 55.464z" transform="translate(0 -796.362)"/>
    <path fill="url(#linearGradient6399)" fill-rule="evenodd" stroke="#000" stroke-width=".893" d="M133.63 998.452c11.311-34.978 42.713-42.909 61.926-66.754l6.553-3.544c4.204 17.081 14.278 42.967 27.778 53.997-12.94 17.075-42.005 79.134-96.257 16.301z" transform="translate(0 -796.362)"/>
    <path fill="none" stroke="#000" stroke-dasharray="2.680425,.4467375" stroke-width=".447" d="M120.665 201.026c-1.949-10.75-2.668-12.838-2.838-13.427-1.715-5.957-4.951-14.427-13.4-23.357-5.9-6.235-17.08-13.686-25.654-20.795-8.178-6.78-13.785-13.028-18.888-17.833"/>
    <path fill="#ff8080" fill-rule="evenodd" d="M46.088 148.513c21.528 23.73 60.272 74.775 73.535 52.971-5.408-43.698-35.582-45.127-59.568-74.18-2.849-.356-5.249-1.25-7.506-2.315-1.84 4.887-1.593 11.159-6.461 23.524z"/>
    <path fill="#f55" d="M110.178 183.512c-.188-.063-.125 2.156.75 2.875.875.719 2.156 1.469 2.188 1.125.032-.344-.594-1.313-.594-1.313s.156-.688-.094-1c-.25-.312-1.25-.594-1.25-.594s-.812-1.031-1-1.093zM107.022 186.23s1.589 1.195 2.125 1.469c.378.192 2.125.313 2.125.313s-.929-1.956-1.656-2.094c-.727-.138-2.594.312-2.594.312zM113.117 190.168c.037 1.991-2.095 1.938-3.595.406-.806-.822-2.188-.125-2.188-.125s2.625-3.031 4.875-1.031c.334.297.895.059.908.75zM105.382 203.68c.456-.945.535-2.435.535-2.435l.002-.001c-.34.042-.63.014-.725-.096-.438-.5 1.094-1.25 1.25-1.976.156-.726-1.063-.337-1-1.243.145-2.089 2.469-4.096 4.125-3.377 1.656.719-.512 4.489-.512 4.489s1.513 1.175.668 2.106c-.661.729-1.785-1.688-1.785-1.688s-.188.856-.871 1.362a2.265 2.265 0 0 1-.711.33c.027.292.083 1.418-.508 2.668-.688 1.454-1.063 1.822-1.063 1.822l-.313-.086c.002.003.452-.93.908-1.875zM104.991 195.98s-5.313-2.107-6.344 1.181c-1.031 3.288 2.625 2.288 2.625 2.288s-5.036 1.604-3.656-2.813c1.875-5.999 7.375-.656 7.375-.656zM108.522 190.98s-.822.997-1.766 1.575l-1.766 1.081s.969.094 2.031-.563c1.062-.657 1.501-2.093 1.501-2.093zM107.866 185.262s-5.015-7.643-9.281-5.063c-2.828 1.71-1.711 3.433-.375 4.125.914.475 1.906.188 1.906.188-1.375 4.224-4.834-1.783-4.933-1.607-1.188 2.119.757 5.538 3.276 5.701 2.267.146 3.594-.875 3.594-.875s-3.031 4.906-7.406-.375c-3.703-4.47 2.813-7.938 2.813-7.938l-3.438-3.063s3.75 1.434 4.75 1.482c1 .048.75-1.67 2.375-1.107 0 0-.83.89.094 1.844.941.974 3.584 2.271 4.531 3.25 1.875 1.938 2.094 3.438 2.094 3.438zM88.164 185.554c-.101.025 1.524 3.958 3.696 5.083 2.352 1.219 5.268-.362 5.219-.281-.043.071-.996 1.532-2.031 1.955-1.233.504-2.58-.017-2.563.082.014.082 1.089.99 2.125 1.396 1.246.488 2.361.828 2.344.879-.021.063-1.188.906-3.75-.469-.946-.508-3.21-2.853-3.25-2.813-.063.063 1.046 2.312 2.662 3.719 1.556 1.355 3.65 2.438 3.65 2.491 0 .062-3.661.325-6.813-4.741-1.517-2.44-1.289-7.301-1.289-7.301z"/>
    <path fill="#f55" d="M108.116 182.699s-1.334-1.979-3.406-3.938c-3.027-2.86-7.605-5.87-11.688-4.219-6.875 2.781-1.719 9.563-1.719 9.563.688.875-.309 1.465-1.125.688 0 0-2.979-2.672-3.156-3.956-.478-3.448 2.063-4.481 2.063-4.481s-.938-1.906 1.875-2.969c4.067-1.537 9.969 1.906 9.969 1.906s-6.406-5.063-12.313-2.688c-5.907 2.375-5.438 4.563-5.438 4.563s1.109 2.451.594 2.844c-.285.217-2.09-1.703-2.431-1.447-.814.611-1.687 1.254-2.132 1.541-.969.625-2.688 2.781-2.688 2.781l-.844-1s4.469-4.188 4.688-4.813c.219-.625-3.219-1.51-2.75-2.349.469-.839 5-.276 5-.276s4.313-3.623 9.719-3.327c5.406.296 9.938 4.046 9.938 4.046s-1.169-1.633-1.125-2.781c.034-.873 1.211-1.358 1.563-1.25.315.098-1.219 1.625.188 4.063.819 1.42 2.162 3.287 3.375 4.5 2.28 2.28 1.843 2.999 1.843 2.999zM79.895 160.945c2.812 1.855 5.733 3.515 8.659 4.586-1.636 2.035-4.446 3.481-7.725 2.063-9.117-3.943-9.985-11.389-16.088-14.235-6.877-3.208-12.989 1.539-12.989 1.539l.714.818s3.091-2.717 6.655-2.832c1.119.838 3.498 2.825 2.659 4.019-1.083 1.541-4.501.542-4.25.958.251.416 1.769 1.798 3.959 1.083 2.291-.748.224-7.943 5.5-.417 4.5 6.419-1.271 12.384-1.271 12.384l1.373 1.546c2.184-4.395 3.331-8.456 2.356-11.219-1.586-4.499-4.926-6.919-6.688-7.93.296.077.592.157.897.259 6.125 2.043 6.205 7.396 11.417 11.585 3.992 3.209 9.511 4.509 11 3.749 1.601-.816 2.744-1.854 3.512-3.018.155.049.312.103.467.148 10.34 3.034 11.408-3.118 11.408-3.118l-.971-.944s-.568 5.492-7.25 3.875a35.615 35.615 0 0 1-3.124-.923c3.625-7.874-7.919-20.14-18.162-13.812-.531.328-.771 1.044-.809 1.945-2.273-1.677-4.523-3.121-6.968-4.023-7.436-2.744-14.307 3.721-14.307 3.721l.85.968s6.991-5.298 12.02-4.063c2.225.546 5.16 2.582 8.524 5.068.462 2.784 2.084 6.148 3.495 6.619 1.858.619 4.146.819 5.137-.399zm-7.848-5.638c2.157 1.604 4.477 3.354 6.888 4.995-.559.331-1.365.524-2.459.48-2.407-.095-4.02-3.309-4.429-5.475zm4.069.1s2.382.499 3.291 1.709c.56.745.705 1.675.298 2.412-2.786-1.936-5.265-3.989-7.676-5.819 1.899-5.407 8.878-2.927 8.878-2.927s-3.92-.503-3.874 1.331c.079 3.157 3.458 2.981 3.458 2.981s-3.172-1.659-.416-2.815c2.756-1.156 8.208 3.834 8.083 4.459-.125.625-3.125-.459-3.167.481-.042.94 2.074-.078 4.625 3.063.771.949.532 2.7-.415 4.312-3.364-1.245-6.263-2.866-8.863-4.625 1.151-5.978-4.222-4.562-4.222-4.562zM47.555 146.34c1.936.297 3.043 4.131 3.043 4.131s0-4.292-2.274-6.237z"/>
    <path fill="#f55" d="M59.014 143.738c.919-3.925 4.102-1.533 4.102-1.533s-3.034-.445-3.188 2.469c-.154 2.914 5.054 2.383 5.054 2.383l.111.054c-3.218-1.715-.272-3.207-.272-3.207s-1.68 1.866 2.529 2.648c2.807.522 6.084-5.988 6.084-5.988l1.281 1.425s-4.816 6.944-8.085 5.786c-.31-.111-.583-.221-.838-.33l.049.024c.001 0-8.206 2.155-6.827-3.731z"/>
    <path fill="#f55" d="M70.119 137.712s-.04 3.433-2.415 5.08c-2.375 1.647-3.416.813-3.416.813s.535 2.05 3.375 1.217c2.253-.66 5.136-4.596 5.136-4.596zM50.973 136.612s6.896-5.128 9.896-1.187c3.313 4.352-1.084 5.858-1.875 5.721-.791-.137-1.25.487.125.612s3.922-1.375 3.834-3.167c-.088-1.792 1.954 1.417 3.831 1.542.522.034 3.081-2.332 3.081-2.332l-3.081-3.041s-2.939-1.583-5.915-2.044c-2.682-.415-5.59.677-5.708.459-.25-.459 7.024-3.376 7.024-3.376s-5.188.441-6.566 1.292c-1.679 1.035-3.878 3.166-3.878 3.166zM112.474 177.256s.418 2.354-1.291 1.048c-3.247-2.486-2.25-6.52-2.25-6.52l-.342-.484s-2.011 5.497 2.169 8.22c.279.183.527.292.744.347.044.01-.193.373-.299.762-.115.423-.099.876-.057.878.037 0 .13-.373.302-.731.208-.438.832-1.008.871-1.015.937-.168.736-1.504.736-1.504zM114.595 182.265s-.52 1.096-.813 2.094c-.208.71-.197 1.393-.283 1.496-.207.247-.154 1.911-.154 1.911s-.665 4.091 1.773 4.82c.926.277.88-1.965.88-1.965l1.424-.419-.988-2.777s-1.87 1.193-2.064.648c-.194-.546 1.632-2.122 1.632-2.122zM113.294 195.686s2.063 1.611 1.063 3.808c-1 2.197-3.633 1.915-3.633 1.915s2.349-1.054 2.716-2.481c.367-1.427-.146-3.242-.146-3.242zM112.677 203.812s-4.088.101-4.783 2.627l1.603.313c.538-2.429 3.18-2.94 3.18-2.94z"/>
    <path fill="none" stroke="#000" stroke-dasharray="3.2,.40000000000000002" stroke-width=".4" d="M46.088 148.513c21.528 23.73 60.272 74.775 73.535 52.971-5.408-43.698-35.582-45.127-59.568-74.18-2.849-.356-5.249-1.25-7.506-2.315-1.84 4.887-1.593 11.159-6.461 23.524z"/>
    <path fill="url(#radialGradient6381)" fill-rule="evenodd" stroke="#000" stroke-width=".447" d="M26.102 975.234c21.08 58.108 63.278 61.823 92.875 19.63l.646 2.982c-2.238 7.682-20.708 25.89-41.802 27.438-11.352.833-23.193-2.479-34.321-15.088-7.93-8.986-13.356-13.184-19.711-32.23z" transform="translate(0 -796.362)"/>
    <path fill="#ffd5d5" fill-rule="evenodd" stroke="#000" stroke-width=".447" d="M51.722 124.335c-3.79 9.136-13.692 44.029-28.312 55.88.312 1.637.71 2.212.968 3.39 16.928-12.117 27.09-49.055 30.537-57.902-1.007-.512-1.985-.925-3.193-1.368z"/>
    <path fill="#ff8080" fill-rule="evenodd" d="M207.037 154.047c-21.528 23.73-62.635 69.175-75.897 47.371 16.925-39.056 38.555-39.619 62.81-68.85l5.063-1.733c1.84 4.888 3.155 10.846 8.024 23.212z"/>
    <path fill="#f55" d="M142.938 186.375c.188-.063.125 2.156-.75 2.875-.875.719-2.156 1.469-2.188 1.125-.032-.344.594-1.313.594-1.313s-.156-.688.094-1c.25-.312 1.25-.594 1.25-.594s.812-1.03 1-1.093zM146.094 189.094s-1.589 1.195-2.125 1.469c-.378.192-2.125.313-2.125.313s.929-1.956 1.656-2.094c.727-.138 2.594.312 2.594.312zM139.999 193.031c-.037 1.991 2.095 1.938 3.595.406.806-.822 2.188-.125 2.188-.125s-2.625-3.031-4.875-1.031c-.335.297-.895.059-.908.75zM145.188 204.531c-.456-.945-.535-2.435-.535-2.435l-.002-.001c.34.042.63.014.725-.096.438-.5-1.094-1.25-1.25-1.976-.156-.726 1.063-.337 1-1.243-.145-2.089-2.469-4.096-4.125-3.377-1.656.719.512 4.489.512 4.489s-1.513 1.175-.668 2.106c.661.729 1.785-1.688 1.785-1.688s.188.856.871 1.362c.199.147.453.256.711.33-.027.292-.083 1.418.508 2.668.688 1.454 1.063 1.822 1.063 1.822l.313-.086c-.002.003-.452-.929-.908-1.875zM146.094 198.844s5.313-2.107 6.344 1.181c1.031 3.288-2.625 2.288-2.625 2.288s5.036 1.604 3.656-2.813c-1.875-6-7.375-.656-7.375-.656zM144.594 193.844s.822.997 1.766 1.575l1.766 1.081s-.969.094-2.031-.563c-1.062-.657-1.501-2.093-1.501-2.093zM145.25 188.125s5.015-7.643 9.281-5.063c2.828 1.71 1.711 3.433.375 4.125-.914.475-1.906.188-1.906.188 1.375 4.224 4.834-1.783 4.933-1.607 1.188 2.119-.757 5.538-3.276 5.701-2.267.146-3.594-.875-3.594-.875s3.031 4.906 7.406-.375c3.703-4.47-2.813-7.938-2.813-7.938l3.438-3.063s-3.75 1.434-4.75 1.482c-1 .048-.75-1.67-2.375-1.107 0 0 .83.89-.094 1.844-.941.974-3.584 2.271-4.531 3.25-1.875 1.938-2.094 3.438-2.094 3.438z"/>
    <path fill="#f55" d="M162.29 188.417c.101.025-1.524 3.958-3.696 5.083-2.352 1.219-5.268-.362-5.219-.281.043.071.996 1.532 2.031 1.955 1.233.504 2.58-.017 2.563.082-.014.082-1.089.99-2.125 1.396-1.246.488-2.361.828-2.344.879.021.063 1.188.906 3.75-.469.946-.508 3.21-2.853 3.25-2.813.063.063-1.046 2.312-2.662 3.719-1.556 1.355-3.65 2.438-3.65 2.491 0 .062 3.661.325 6.813-4.741 1.518-2.44 1.289-7.301 1.289-7.301zM145 185.563s1.334-1.979 3.406-3.938c3.027-2.86 7.605-5.87 11.688-4.219 6.875 2.781 1.719 9.563 1.719 9.563-.688.875.309 1.465 1.125.688 0 0 2.979-2.672 3.156-3.956.478-3.448-2.063-4.481-2.063-4.481s.938-1.906-1.875-2.969c-4.067-1.537-9.969 1.906-9.969 1.906s6.406-5.063 12.313-2.688c5.907 2.375 5.438 4.563 5.438 4.563s-1.109 2.451-.594 2.844c.285.217 2.09-1.703 2.431-1.447.814.611 1.687 1.254 2.132 1.541.969.625 2.688 2.781 2.688 2.781l.844-1s-4.469-4.188-4.688-4.813c-.219-.625 3.219-1.51 2.75-2.349-.469-.839-5-.276-5-.276s-4.313-3.623-9.719-3.327c-5.406.296-9.938 4.046-9.938 4.046s1.169-1.633 1.125-2.781c-.034-.873-1.211-1.358-1.563-1.25-.315.098 1.219 1.625-.188 4.063-.819 1.42-2.162 3.287-3.375 4.5-2.28 2.28-1.843 2.999-1.843 2.999z"/>
    <path fill="#f55" d="M179.98 167.438c1.411-.471 3.033-3.835 3.495-6.619 3.364-2.486 6.3-4.522 8.524-5.068 5.028-1.234 10.702 3.067 10.702 3.067l.548-.567s-5.252-5.869-12.688-3.125c-2.444.902-4.694 2.347-6.968 4.023-.037-.901-.277-1.617-.809-1.945-10.243-6.328-21.787 5.938-18.162 13.812a35.615 35.615 0 0 1-3.124.923c-6.682 1.617-7.25-3.875-7.25-3.875l-.971.944s1.068 6.152 11.408 3.118c.155-.046.312-.1.467-.148.768 1.164 1.911 2.201 3.512 3.018 1.489.76 7.008-.54 11-3.749 5.212-4.189 5.292-9.542 11.417-11.585.306-.102.602-.182.897-.259-1.762 1.011-5.102 3.431-6.688 7.93-.975 2.763-1.611 5.617.034 9.866l1.472-1.486s-3.548-4.672.952-11.091c5.276-7.526 3.209-.331 5.5.417 2.19.715 3.708-.667 3.959-1.083.251-.416-3.167.583-4.25-.958-.839-1.193 1.54-3.181 2.659-4.019 3.563.115 5.756 1.772 5.756 1.772l.375-.938s-4.874-3.568-11.751-.36c-6.103 2.847-6.971 10.292-16.088 14.235-3.278 1.418-6.089-.028-7.725-2.063 2.926-1.071 5.848-2.73 8.659-4.586.995 1.217 3.283 1.017 5.138.399zm-1.715-.563c-1.094.044-1.9-.149-2.459-.48 2.411-1.641 4.73-3.391 6.888-4.995-.409 2.165-2.022 5.379-4.429 5.475zm-3.862-.813c-2.601 1.759-5.499 3.38-8.863 4.625-.947-1.611-1.187-3.362-.415-4.312 2.551-3.141 4.667-2.122 4.625-3.063-.042-.941-3.042.144-3.167-.481s5.327-5.615 8.083-4.459c2.756 1.156-.416 2.815-.416 2.815s3.379.176 3.458-2.981c.046-1.834-3.874-1.331-3.874-1.331s6.979-2.48 8.878 2.927c-2.411 1.83-4.89 3.884-7.676 5.819-.407-.737-.262-1.667.298-2.412.909-1.21 3.291-1.709 3.291-1.709s-5.373-1.416-4.222 4.562zM205.186 149.203c-1.936.297-3.043 4.131-3.043 4.131s0-4.292 2.274-6.237z"/>
    <path fill="#f55" d="M195.087 150.664c-.5-4-3.917-1.958-3.917-1.958s3.064-.122 2.909 2.792c-.155 2.914-5.277 1.836-5.277 1.836l-.116.041c3.381-1.365.609-3.16.609-3.16s1.474 2.033-2.795 2.367c-2.847.223-5.418-6.598-5.418-6.598l-1.424 1.281s4.056 7.414 7.429 6.607c.32-.077.603-.157.868-.239l-.052.019s7.934 3.011 7.184-2.988z"/>
    <path fill="#f55" d="M184.172 143.104s.04 3.433 2.415 5.08c2.375 1.647 3.416.813 3.416.813s-.535 2.05-3.375 1.217c-2.253-.66-5.136-4.596-5.136-4.596z"/>
    <path fill="#f55" d="M202.733 142.226s-6.896-5.128-9.896-1.187c-3.313 4.352 1.084 5.858 1.875 5.721.791-.137 1.25.487-.125.612s-3.922-1.375-3.834-3.167c.088-1.792-1.954 1.417-3.831 1.542-.522.034-3.081-2.332-3.081-2.332l3.081-3.041s2.939-1.583 5.915-2.044c2.682-.415 5.59.677 5.708.459.25-.459-7.024-3.376-7.024-3.376s5.188.441 6.566 1.292c1.679 1.035 3.878 3.166 3.878 3.166zM142.182 181.593s-.625 2.309 1.193 1.157c3.454-2.188 2.818-6.293 2.818-6.293l.384-.453s1.516 5.655-2.89 7.996a2.497 2.497 0 0 1-.771.278c-.045.007.159.389.229.785.077.433.021.882-.021.88-.037-.002-.097-.382-.235-.755-.168-.454-.739-1.077-.778-1.088-.918-.249-.6-1.564-.6-1.564zM139.59 185.395s.307 1.173.409 2.208c.073.736-.065 1.405 0 1.522.157.281-.204 1.906-.204 1.906s-.107 4.143-2.639 4.406c-.962.101-.5-2.094-.5-2.094l-1.321-.677 1.487-2.545s1.615 1.521 1.907 1.021c.292-.5-1.209-2.388-1.209-2.388zM137.469 196.652s-2.063 1.611-1.063 3.808c1 2.197 3.633 1.915 3.633 1.915s-2.349-1.054-2.716-2.481c-.367-1.427.146-3.242.146-3.242zM139.292 203.957s4.208.377 4.903 2.903l-1.651.241c-.538-2.428-3.252-3.144-3.252-3.144z"/>
    <path fill="none" stroke="#000" stroke-dasharray="3.2,.40000000000000002" stroke-width=".4" d="M207.037 154.047c-21.528 23.73-62.635 69.175-75.897 47.371 16.925-39.056 38.555-39.619 62.81-68.85l5.063-1.733c1.84 4.888 3.155 10.846 8.024 23.212z"/>
    <path fill="url(#radialGradient1302)" fill-rule="evenodd" stroke="#000" stroke-width=".447" d="M131.14 997.78l1.276-3.35c17.804 26.333 52.951 46.69 79.276 11.109 9.15-12.369 7.48-10.09 15.973-25.477l2.632 2.184c-6.309 12.572-22.828 41.771-47.842 44.899-15.005 1.877-33.424-7.511-51.316-29.365z" transform="translate(0 -796.362)"/>
    <path fill="#ffd5d5" fill-rule="evenodd" stroke="#000" stroke-width=".447" d="M202.207 129.467c3.79 9.136 13.88 44.092 28.5 55.943-.746 1.492-1.089 1.669-1.66 2.758-16.927-12.117-26.586-48.486-30.034-57.333 1.007-.513 1.985-.925 3.194-1.368z"/>
    <path fill="url(#linearGradient3-9-1)" fill-rule="evenodd" stroke="#000" stroke-width=".427" d="M124.24 997.898c-3.716 1.098-2.152-1.338-6.816 6.02 1.21.242 2.157.41 3.536.722 2.693-2.57 4.952-3.385 5.22-5.514 1.517.215-.924-.97.026-.22.1 2.472 1.45 2.638 3.799 5.26 1.747-.7 3.973-.827 4.446-1.315-3.285-4.079-4.704-1.46-6.41-5.42z" transform="translate(0 -796.362)"/>
    <path fill="#ff8080" fill-rule="evenodd" stroke="#000" stroke-width=".427" d="M127.486 203.45l-2.446-.25c-1.718 1.974-4.95 1.074-8.575 2.184.903-3.697.103-9.06.103-9.06 4.002.89 6.251 2.086 8.196 3.572l3.16.183c2.192-1.577 4.266-3.016 7.736-4.36 0 0-.226 4.786 1.162 7.835-3.605.536-7.913 3.235-9.336-.103z"/>
    <path fill-rule="evenodd" d="M124.802 202.848c-.63.111-1.172.431-1.664.68-.499.254-1.003.471-1.596.407.593.137 1.132-.012 1.681-.21.557-.2 1.062-.42 1.63-.452zm-.441-1.025c-1.102.364-2.192.742-3.309 1.04 1.149-.159 2.28-.4 3.418-.626zm.206-.715c-.854-.018-1.46-.605-2.221-1.18.6.623 1.201 1.43 2.175 1.605zm3.047 2.13c.467-.06.885.051 1.3.27.417.218.802.528 1.205.826-.348-.345-.698-.72-1.09-1.008-.396-.29-.86-.51-1.438-.515zm.215-1.161c.674.04 1.36-.102 1.992-.187-.67-.057-1.313-.061-1.923-.236z"/>
    <path fill="none" stroke="#000" stroke-width=".427" d="M124.938 203.225c-.775-.144-.571-3.44-.174-3.329m3.16.183c.292.81.114 2.588-.438 3.377"/>
    <path style="font-variant-east_asian:normal" fill-rule="evenodd" d="M127.968 200.572l-.012.213c.58-.005 1.042-.225 1.438-.514.392-.288.743-.663 1.09-1.008-.402.298-.787.608-1.204.826-.415.218-.833.33-1.3.269l-.012.214z"/>
</svg>
