<svg xmlns="http://www.w3.org/2000/svg" cursor="default" viewBox="0 0 256 256">
    <g stroke="#000">
        <path fill="#ff8080" fill-opacity=".784" fill-rule="evenodd" stroke-width=".5" d="M9.885 177.503c.148 12.242.452 24.64.766 37.047 52.036 1.652 84.558-6.418 118.903-6.94 31.832-.485 56.427 8.49 118.794 6.962.339-12.53.524-25.06.625-37.59-33.61 20.877-155.316 36.06-239.088.52z"/>
        <path fill="#f55" fill-rule="evenodd" stroke-width=".475" d="M198.658 27.004c-1.424 36.03-1.75 110.025.633 169.58l-6.217-.12c-.548-59.113-2.745-119.571-.481-169.22zM248.024 211.593l-.254 6.022c-30.104.242-60.184 2.084-93.07-6.334l.53-5.88c27.5 5.576 58.417 7.654 92.794 6.192z"/>
        <path fill="#f55" fill-rule="evenodd" stroke-width=".475" d="M248.903 175.066l.284 7.632c-16.872 4.569-32.449 11.836-51.377 13.203-14.777 1.067-25.974 5.374-42.92 6.531l.17-7.38c15.262.139 28.476-4.916 41.647-5.343 21.858-.71 31.608-8.537 52.196-14.643z"/>
        <path fill="#ff8080" fill-opacity=".784" fill-rule="evenodd" stroke-width=".475" d="M249.042 179.7l-.678 33.844c-22.988 4.658-47.71 12.06-68.282 12.893 20.733-7.138 46.817-24.479 48.688-62.429 8.242 2.698 15.835 6.503 20.272 15.692z"/>
        <path fill="#f55" fill-rule="evenodd" stroke-width=".475" d="M60.227 26.8c1.425 36.03 1.751 110.025-.633 169.58l6.218-.12c.547-59.113 2.745-119.571.48-169.22z"/>
        <path fill="#eeeeea" stroke-linecap="round" stroke-linejoin="round" stroke-width=".371" d="M65.097 75.3a4.056 3.057 0 0 0-4.055 3.058 4.056 3.057 0 0 0 4.055 3.057 4.056 3.057 0 0 0 4.057-3.057 4.056 3.057 0 0 0-4.057-3.058zm-.046.875a2.957 2.228 0 0 1 2.956 2.229 2.957 2.228 0 0 1-2.956 2.228 2.957 2.228 0 0 1-2.957-2.228 2.957 2.228 0 0 1 2.957-2.229z"/>
        <path fill="#f55" fill-rule="evenodd" stroke-width=".475" d="M10.86 211.39l.255 6.021c30.104.242 60.184 2.084 93.07-6.334l-.53-5.88c-27.5 5.576-58.417 7.654-92.794 6.192zM9.983 174.862l-.285 7.632c16.872 4.569 32.45 11.837 51.377 13.203 14.777 1.067 25.974 5.374 42.92 6.531l-.17-7.38c-15.262.139-28.475-4.916-41.647-5.343-21.858-.709-31.607-8.537-52.195-14.643z"/>
        <path fill="#ff2a2a" fill-rule="evenodd" stroke-width=".475" d="M101.597 194.526l.84 19.193h54.58l-.48-18.953z"/>
        <path fill="#ff8080" fill-opacity=".784" fill-rule="evenodd" stroke-width=".475" d="M9.843 179.496l.679 33.844c22.988 4.658 47.709 12.06 68.28 12.893-20.732-7.138-46.816-24.478-48.687-62.429-8.242 2.698-15.835 6.503-20.272 15.692zM87.682 225.114c26.743-18.368 32.163-32.127 35.627-45.463l12.715 1.08c4.396 18.225 12.997 34.992 41.145 44.983-29.17-8.108-58.728-11.565-89.487-.6z"/>
        <path fill="#f55" fill-rule="evenodd" stroke-width=".475" d="M11.21 211.2c-1.324-.558-1.319 6.947-.06 7.137 22.547 2.113 52.768 10.695 65.496 10.736 11.354.435 37.11-8.944 54.179-8.622 19.78.372 30.95 8.664 50.71 8.403 22.376-.296 37.519-9.098 66.528-10.217 1.492 0 1.172-7.523 0-7.437-30.03 1.907-39.568 9.98-66.935 10.556-18.006.379-31.378-7.486-50.262-7.797-14.32-.237-36.59 9.162-53.5 8.756-18.688-.448-44.104-7.677-66.156-11.515z"/>
        <path fill="#ff8080" fill-rule="evenodd" stroke-width=".475" d="M57.633 107.498l6.418 2.22s2.983-82.768 2.519-82.89c-2.148-.566-4.382-.833-6.978.17z"/>
        <path fill="#f55" fill-rule="evenodd" stroke-width=".475" d="M29.793 158.776c-3.131 2.953-18.064 7.705-20.018 14.652l-.07 9.257c3.572-10.12 17.478-15.135 21.118-16.349z"/>
        <path fill="#ff2a2a" fill-rule="evenodd" stroke-width=".475" d="M114.088 190.947l.085 9.33c14.449-20.097 16.047-20.432 30.79 1.612 0-.34-.17-10.942-.17-10.942-5.71-5.513-3.486-19.562-6.446-19.594-5.766 7.806-9.196 13.3-17.727.34-2.818-.411-1.6 16.254-6.532 19.254z"/>
        <path fill="#f55" fill-rule="evenodd" stroke-width=".475" d="M60.284 106.183c-5.768-2.36-31.43 46.075-31.384 52.633.572 80.701 79.459 85.428 98.465 24.049 1.814-5.856-9.285-7.596-9.041-.26 1.318 39.678-81.954 62.612-82.826-22.513-.1-9.808 13.775-32.153 25.57-46.908 13.001 7.582 22.24 13.829 30.295 20.185 25.319 19.98 29.862 31.532 28.464 45.45 1.971-1.775 3.532-1.23 5.978-.296-1.498-21.638-9.065-35.377-33.254-52.54-8.496-6.028-19.84-14.668-32.267-19.8z"/>
        <path fill="#eeeeea" stroke-linecap="round" stroke-linejoin="round" stroke-width=".371" d="M193.788 75.504a4.056 3.057 0 0 1 4.055 3.057 4.056 3.057 0 0 1-4.055 3.058 4.056 3.057 0 0 1-4.057-3.058 4.056 3.057 0 0 1 4.057-3.057zm.047.875a2.957 2.228 0 0 0-2.957 2.228 2.957 2.228 0 0 0 2.957 2.229 2.957 2.228 0 0 0 2.956-2.229 2.957 2.228 0 0 0-2.956-2.228z"/>
        <path fill="#ff8080" fill-rule="evenodd" stroke-width=".475" d="M201.252 107.702l-6.418 2.219s-2.983-82.767-2.519-82.89c2.149-.566 4.382-.833 6.978.17z"/>
        <path fill="#f55" fill-rule="evenodd" stroke-width=".475" d="M229.092 158.98c3.132 2.953 18.064 7.704 20.018 14.652l.07 9.257c-3.572-10.12-17.478-15.135-21.118-16.35z"/>
        <path fill="#f55" fill-rule="evenodd" stroke-width=".475" d="M198.601 106.387c5.768-2.36 31.431 46.075 31.385 52.633-.572 80.701-79.46 85.428-98.466 24.048-1.813-5.855 9.285-7.595 9.041-.259-1.318 39.678 81.955 62.612 82.826-22.513.1-9.808-13.775-32.153-25.569-46.908-13.002 7.582-22.24 13.829-30.295 20.185-25.32 19.979-29.863 31.531-28.465 45.45-1.971-1.775-3.532-1.23-5.978-.296 1.499-21.638 9.065-35.377 33.254-52.54 8.496-6.028 19.84-14.668 32.267-19.8z"/>
    </g>
</svg>
