<svg xmlns="http://www.w3.org/2000/svg" xmlns:xlink="http://www.w3.org/1999/xlink" cursor="default" viewBox="0 0 256 256">
    <defs>
        <linearGradient id="linearGradient4">
            <stop offset="0" stop-color="#faa"/>
            <stop offset="1" stop-color="#ffd5d5"/>
        </linearGradient>
        <linearGradient id="linearGradient2">
            <stop offset="0" stop-color="#f55"/>
            <stop offset="1" stop-color="#ff8080"/>
        </linearGradient>
        <linearGradient id="linearGradient0">
            <stop offset="0" stop-color="#f55"/>
            <stop offset="1" stop-color="#ff8080"/>
        </linearGradient>
        <linearGradient id="linearGradient1" x1="38.891" x2="72.226" y1="1035.695" y2="975.086" gradientUnits="userSpaceOnUse" xlink:href="#linearGradient0"/>
        <linearGradient id="linearGradient3" x1="200.01" x2="185.11" y1="1050.089" y2="965.742" gradientUnits="userSpaceOnUse" xlink:href="#linearGradient2"/>
        <linearGradient id="linearGradient5" x1="129.552" x2="133.088" y1="1026.856" y2="949.579" gradientUnits="userSpaceOnUse" xlink:href="#linearGradient4"/>
    </defs>
    <g stroke="#000">
        <path fill="#f55" fill-rule="evenodd" stroke-width=".89348" d="M63.834 32.048l-8.01 1.41c14.006 42.283 20.164 84.71 28.037 127.26l8.01-.112c-11.65-48.368-16.258-81.39-28.037-128.558zM75.97 98.516a2.695 2.921 0 0 1 2.697 2.921 2.695 2.921 0 0 1-2.697 2.922 2.695 2.921 0 0 1-2.694-2.922 2.695 2.921 0 0 1 2.694-2.92z"/>
        <path fill="#ff8080" fill-rule="evenodd" stroke-width=".89348" d="M51.594 130.99C53.07 98.26 53.8 65.045 55.543 33.12l7.672-1.128c-2.484 33.1-3.754 66.861-2.934 101.762z"/>
        <path fill="url(#linearGradient5)" fill-rule="evenodd" d="M-10.86 978.747c2.92 5.556 7.28 45.836 6.567 57.705 112.496-7.493 198.99-.862 272.236-.757.63-27.63 2.02-38.554 3.03-57.832-21.313-3.026-30.756-11.337-45.204-19.698l-84.348 37.881c-6.377-.715-16.144-.462-25.759-.252l-81.57-32.83c-14.692 5.24-26.08 10.244-44.951 15.783z" transform="matrix(.89348 0 0 .89348 11.318 -700.23)"/>
        <path fill="#ffd5d5" fill-rule="evenodd" stroke-width=".44674" d="M1.797 174.416c.272.691 1.18 4.256 1.18 4.256 6.38-2.565 13.357-3.775 19.19-7.09l-1.435-3.51c-3.915 1.41-9.058 3.4-18.935 6.344zM250.523 225.037c-100.22-1.34-140.66-5.033-242.627.758-.144-1.36-.494-3.723-.08-3.758 133.244-6.464 161.736-.617 242.97-.779-.041.847-.147 1.935-.263 3.78z"/>
        <path fill="url(#linearGradient1)" fill-rule="evenodd" d="M10.607 971.803c33.421 115.169 107.06 53.884 110.611 37.375-6.053-48.908-39.824-50.507-66.67-83.024l-9.115-3.344c-9.256 17.712-17.935 33.954-34.826 48.993z" transform="matrix(.89348 0 0 .89348 11.318 -700.23)"/>
        <path fill="#f55" fill-rule="evenodd" stroke-width=".89348" d="M186.638 33.347c-9.04 44.924-22.29 92.654-26.513 134.366l6.883-4.512c6.057-45.56 18.166-92.807 28.373-129.685l-8.743-.17zm-12.13 67.93a2.695 2.921 0 0 1 2.695 2.921 2.695 2.921 0 0 1-2.695 2.921 2.695 2.921 0 0 1-2.696-2.92 2.695 2.921 0 0 1 2.696-2.922z"/>
        <path fill="#ff8080" fill-rule="evenodd" stroke-width=".89348" d="M197.496 134.882l4.937.04c-1.201-32.395-3.785-65.815-7.108-101.181l-8.405-.17c5.742 26.345 8.083 64.813 10.576 101.311z"/>
        <path fill="url(#linearGradient3)" fill-rule="evenodd" d="M134.35 1009.052c12.66-39.149 52.21-53.382 73.715-80.071l5.582-.362c11.101 15.12 17.973 29.575 33.083 41.92 2.706 26.906-46.572 121.273-112.38 38.513z" transform="matrix(.89348 0 0 .89348 11.318 -700.23)"/>
        <path fill="none" stroke-dasharray="3,.5" stroke-width=".44674" d="M120.665 201.026c-1.949-10.75-2.668-12.838-2.838-13.427-1.715-5.957-4.951-14.427-13.4-23.357-5.9-6.235-17.08-13.686-25.654-20.795-8.178-6.78-13.77-13.25-18.872-18.054M130.501 200.46c11.157-34.253 45.275-46.426 66.293-72.155"/>
        <path fill="#faa" fill-rule="evenodd" stroke-width=".44674" d="M51.722 124.335c-3.79 9.136-16.286 31.686-30.906 43.537.311 1.636.57 2.251.968 3.39 23.998-21.966 30.189-38.733 33.131-45.559-1.007-.512-1.985-.925-3.193-1.368zM24.082 169.349c20.365 69.804 65.298 71.346 94.895 29.152l.646 2.983c-2.238 7.682-20.708 25.89-41.802 27.438-11.352.833-23.193-2.479-34.321-15.088-7.93-8.986-15.377-23.087-21.731-42.132zM231.878 170.138c0-.564.113-3.44.113-3.44-16.758-14.824-17.007-19.736-29.897-37.118l-2.59.186c7.044 12.5 15.515 26.34 32.374 40.372z"/>
        <path fill="#ffd5d5" fill-rule="evenodd" stroke-width=".44674" d="M232.11 167.015c7.028 2.95 12.348 4.954 21.19 6.405l-.243 3.706c-9.314-1.702-13.617-3.666-21.106-6.806z"/>
        <path fill="#faa" fill-rule="evenodd" stroke-width=".44674" d="M131.14 201.418l1.276-3.35c17.804 26.333 52.951 46.69 79.276 11.108 9.15-12.368 11.926-17.513 17.65-41.024l2.633 1.995c-2.56 25.697-24.506 57.508-49.52 60.636-15.005 1.876-33.424-7.511-51.316-29.365z"/>
    </g>
</svg>
