<svg cursor="default" version="1.1" viewBox="0 0 256 256" xmlns="http://www.w3.org/2000/svg">
 <g fill-rule="evenodd" stroke-width=".75">
  <g>
   <path d="M90.561 8.434c-.704 1.589 32.299 48.682 34.212 46.77 4.847.864 41.517-46.852 39.62-47.065.393.197 8.356 8.941 8.356 8.941-16.341 16.884-30.744 35.22-45.026 53.648-13.834-16.185-28.53-32.555-46.01-49.52z" fill="#ff8080" stroke="#000"/>
   <path d="m62.838 186.77c13.023 1.145 46.684 32.91 48.958 61.507l27.527-0.786c12.208-40.52 50.863-59.991 52.324-58.016-18.15-31.893-41.205-18.996-61.565-28.252z" fill="#f55" stroke="#000"/>
   <path d="m62.838 186.77c13.023 1.145 46.684 32.91 48.958 61.507l27.527-0.786c12.208-40.52 50.863-59.991 52.324-58.016-18.15-31.893-41.205-18.996-61.565-28.252z" fill="#383838" fill-opacity=".626"/>
  </g>
  <g stroke="#000">
   <path d="M160.79 35.09c2.134-8.937 2.403-17.833 3.545-26.749 2.903-.34 9.083 2.732 10.288 4.725-1.274 9.263-2.549 16.039-3.823 27.79zM83.905 41.065L80.43 12.718c3.196-2.974 8.683-4.16 10.289-3.96.37 4.03 1.201 17.951 3.754 28z" fill="#faa"/>
   <path d="m159.61 195.79c4.345-3.467 4.504-5.597 11.019-6.99 5.938-1.27 17.636-2.51 20.888-0.236-3.005-14.64-24.628-41.923-23.495-50.663-5.2 17.494-29.288 46.434-8.412 57.889zm-63.443 0.114c-2.34-3.152-5.874-7.054-9.174-8.552-3.816-1.733-7.563-2.168-11.498-2.014-5.9 0.233-10.62 0.977-12.655 1.232 3.553-17.046 24.322-41.402 22.116-48.823 3.989 18.793 39.381 35.508 11.211 58.157z" fill="#ffd5d5"/>
   <path d="m176.39 67.092c1.201 1.785 6.702 15.754 10.028 23.68-21.637 30.841-18.697 66.498-28.598 98.068-11.383 2.825-12.071-98.086 18.57-121.75zm-78.156 117.71c-17.552-40.85-12.313-76.083-29.757-95.416 3.445-7.296 6.379-12.96 10.386-22.052 26.761 14.266 32.611 104.54 19.371 117.47z" fill="#faa"/>
  </g>
 </g>
 <g id="patternLayer">
  <path d="m112.48 248.13c0.656-28.021-7.74-42.222-16.475-52.455 10.093-25.093-4.767-116.4-17.084-128.47 5.343-12.477 5.504-21.336 4.988-26.25 4.692-2.492 7.393-3.45 10.428-4.795 1.112 4.007 2.128 9.724 5.005 11.117 4.886 2.365 47.146 2.012 54.639-0.209 3.543-1.05 5.87-7.46 6.882-11.81l9.871 5.28c-0.527 9.326 2.628 20.42 5.614 26.438-15.426 26.912-27.027 97.678-16.667 128.7-8.593 11.273-17.89 30.128-20.507 52.038-7.417 1.092-16.668 1.546-26.694 0.417z" fill="#f55" fill-rule="evenodd" stroke="#000"/>
 </g>
 <g stroke-width=".75">
  <path d="m112.48 248.18c0.656-28.021-7.741-42.222-16.475-52.455 10.093-25.093-4.767-116.4-17.084-128.47 5.343-12.477 5.504-21.336 4.988-26.25 4.692-2.492 7.393-3.45 10.427-4.795 1.113 4.007 2.13 9.724 5.006 11.117 4.886 2.366 47.146 2.012 54.639-0.209 3.543-1.05 5.87-7.46 6.882-11.81l9.871 5.28c-0.527 9.326 2.628 20.42 5.614 26.438-15.426 26.912-27.027 97.678-16.667 128.7-8.593 11.273-17.89 30.129-20.507 52.038-7.417 1.092-16.668 1.546-26.694 0.417z" fill="none" stroke="#000" stroke-width=".75"/>
 </g>
</svg>
