<?xml version="1.0" encoding="UTF-8" standalone="no"?>
<svg
   xmlns:dc="http://purl.org/dc/elements/1.1/"
   xmlns:cc="http://creativecommons.org/ns#"
   xmlns:rdf="http://www.w3.org/1999/02/22-rdf-syntax-ns#"
   xmlns:svg="http://www.w3.org/2000/svg"
   xmlns="http://www.w3.org/2000/svg"
   version="1.1"
   id="svg4164"
   viewBox="0 0 256 256">
  <style
     id="style3">
    svg { cursor: default;}
  </style>
  <defs
     id="defs4166">
    <marker
       style="overflow:visible"
       id="Arrow1Lstart"
       refX="0.0"
       refY="0.0"
       orient="auto">
      <path
         transform="scale(0.8) translate(12.5,0)"
         style="fill-rule:evenodd;stroke:#000000;stroke-width:1pt;stroke-opacity:1;fill:#000000;fill-opacity:1"
         d="M 0.0,0.0 L 5.0,-5.0 L -12.5,0.0 L 5.0,5.0 L 0.0,0.0 z "
         id="path4233" />
    </marker>
  </defs>
  <metadata
     id="metadata4169">
    <rdf:RDF>
      <cc:Work
         rdf:about="">
        <dc:format>image/svg+xml</dc:format>
        <dc:type
           rdf:resource="http://purl.org/dc/dcmitype/StillImage" />
        <dc:title></dc:title>
      </cc:Work>
    </rdf:RDF>
  </metadata>
  <g
     transform="translate(0,-796.36219)"
     id="layer1">
    <path
       id="path4210-9"
       d="m 75.719701,999.87833 c 3.06336,16.89147 3.49159,18.30897 5.13065,26.83577 14.95059,5.254 58.968229,0.092 25.086769,-35.90928 -6.190279,-3.67299 -12.514589,-7.26935 -23.290219,-8.29643 z"
       style="fill:#ff8080;fill-opacity:1;fill-rule:evenodd;stroke:#000000;stroke-width:1.55715096;stroke-linecap:butt;stroke-linejoin:miter;stroke-miterlimit:4;stroke-dasharray:none;stroke-opacity:1" />
    <path
       id="path4212-2"
       d="m 80.736331,1026.3109 0.66798,5.3476 c 41.775209,9.7402 51.604069,-23.6686 24.418549,-40.94596 17.73596,21.36056 19.42035,38.92546 -25.086529,35.59836 z"
       style="fill:#333333;fill-rule:evenodd;stroke:#000000;stroke-width:1.55715096;stroke-linecap:butt;stroke-linejoin:miter;stroke-miterlimit:4;stroke-dasharray:none;stroke-opacity:1" />
    <path
       id="path4214-4"
       d="m 82.073721,986.90229 10.33149,17.29561 8.573219,7.0706 1.54615,14.5814"
       style="fill:none;fill-rule:evenodd;stroke:#000000;stroke-width:0.77857548;stroke-linecap:butt;stroke-linejoin:miter;stroke-miterlimit:4;stroke-dasharray:none;stroke-opacity:1" />
    <path
       id="path4216-5"
       d="m 92.485891,1004.4828 c 1.81195,7.9211 2.72102,15.5279 1.00776,22.2238"
       style="fill:none;fill-rule:evenodd;stroke:#000000;stroke-width:0.77857548;stroke-linecap:butt;stroke-linejoin:miter;stroke-miterlimit:4;stroke-dasharray:none;stroke-opacity:1" />
    <path
       id="path4218-7"
       d="m 81.059681,989.13181 c 2.60988,12.44189 4.93556,24.84629 5.80683,37.05999"
       style="fill:none;fill-rule:evenodd;stroke:#000000;stroke-width:0.77857548;stroke-linecap:butt;stroke-linejoin:miter;stroke-miterlimit:4;stroke-dasharray:none;stroke-opacity:1" />
    <path
       id="path4220-6"
       d="m 100.95289,1011.1427 2.9361,0.6855 c 4.50737,3.0385 5.25251,7.5408 7.48405,11.4645"
       style="fill:none;fill-rule:evenodd;stroke:#000000;stroke-width:0.77857548;stroke-linecap:butt;stroke-linejoin:miter;stroke-miterlimit:4;stroke-dasharray:none;stroke-opacity:1" />
    <path
       id="path4222-3"
       d="m 82.908271,988.0892 4.15992,-0.62734 10.13235,5.67455 6.685489,18.61199"
       style="fill:none;fill-rule:evenodd;stroke:#000000;stroke-width:0.77857548;stroke-linecap:butt;stroke-linejoin:miter;stroke-miterlimit:4;stroke-dasharray:none;stroke-opacity:1" />
    <path
       id="path4224-5"
       d="m 100.915,1003.5483 c 7.19207,4.0279 11.48852,8.716 16.72752,13.1852"
       style="fill:none;fill-rule:evenodd;stroke:#000000;stroke-width:0.77857548;stroke-linecap:butt;stroke-linejoin:miter;stroke-miterlimit:4;stroke-dasharray:none;stroke-opacity:1" />
    <path
       id="path4226-7"
       d="m 97.989771,995.27464 c 0.7384,1.37561 18.086169,10.46546 18.047699,10.32806"
       style="fill:none;fill-rule:evenodd;stroke:#000000;stroke-width:0.77857548;stroke-linecap:butt;stroke-linejoin:miter;stroke-miterlimit:4;stroke-dasharray:none;stroke-opacity:1" />
    <path
       id="path4228-9"
       d="m 97.250731,993.15885 10.564149,0.48742"
       style="fill:none;fill-rule:evenodd;stroke:#000000;stroke-width:0.77857548;stroke-linecap:butt;stroke-linejoin:miter;stroke-miterlimit:4;stroke-dasharray:none;stroke-opacity:1" />
    <path
       id="path4230-5"
       d="m 87.262271,987.3539 6.17724,-2.58767"
       style="fill:none;fill-rule:evenodd;stroke:#000000;stroke-width:0.77857548;stroke-linecap:butt;stroke-linejoin:miter;stroke-miterlimit:4;stroke-dasharray:none;stroke-opacity:1" />
    <path
       id="path4210"
       d="m 71.595441,996.40179 c -13.27381,10.39341 -14.51452,11.14681 -21.28393,16.32951 -14.499291,-6.4601 -43.7481442,-40.76351 4.80762,-43.97521 6.97914,1.56494 14.00751,3.27981 22.66016,9.98013 z"
       style="fill:#ff8080;fill-opacity:1;fill-rule:evenodd;stroke:#000000;stroke-width:1.55715096;stroke-linecap:butt;stroke-linejoin:miter;stroke-miterlimit:4;stroke-dasharray:none;stroke-opacity:1" />
    <path
       id="path4212"
       d="m 50.658651,1012.5113 -3.978632,3.4995 C 9.3842368,994.30061 23.867113,962.74273 55.263881,968.76673 28.207963,972.3111 15.517108,984.1581 50.658651,1012.5113 Z"
       style="fill:#333333;fill-rule:evenodd;stroke:#000000;stroke-width:1.55715096;stroke-linecap:butt;stroke-linejoin:miter;stroke-miterlimit:4;stroke-dasharray:none;stroke-opacity:1" />
    <path
       id="path4214"
       d="m 75.341351,982.38863 -18.92181,5.6598 -10.958108,-0.69752 -10.644869,9.73234"
       style="fill:none;fill-rule:evenodd;stroke:#000000;stroke-width:0.77857548;stroke-linecap:butt;stroke-linejoin:miter;stroke-miterlimit:4;stroke-dasharray:none;stroke-opacity:1" />
    <path
       id="path4216"
       d="m 56.174111,988.20376 c -6.502716,4.61351 -12.13199,9.62009 -15.22481,15.76734"
       style="fill:none;fill-rule:evenodd;stroke:#000000;stroke-width:0.77857548;stroke-linecap:butt;stroke-linejoin:miter;stroke-miterlimit:4;stroke-dasharray:none;stroke-opacity:1" />
    <path
       id="path4218"
       d="m 74.640221,984.74236 c -10.03921,7.41078 -19.84337,14.99072 -28.445793,23.43634"
       style="fill:none;fill-rule:evenodd;stroke:#000000;stroke-width:0.77857548;stroke-linecap:butt;stroke-linejoin:miter;stroke-miterlimit:4;stroke-dasharray:none;stroke-opacity:1" />
    <path
       id="path4220"
       d="m 45.562305,987.27497 -2.62188,-1.52523 c -5.318818,-0.87004 -8.804007,1.94978 -13.013544,3.31159"
       style="fill:none;fill-rule:evenodd;stroke:#000000;stroke-width:0.77857548;stroke-linecap:butt;stroke-linejoin:miter;stroke-miterlimit:4;stroke-dasharray:none;stroke-opacity:1" />
    <path
       id="path4222"
       d="m 73.949901,982.68979 -2.67325,-3.34529 -11.2037,-2.81168 -17.078169,9.15978"
       style="fill:none;fill-rule:evenodd;stroke:#000000;stroke-width:0.77857548;stroke-linecap:butt;stroke-linejoin:miter;stroke-miterlimit:4;stroke-dasharray:none;stroke-opacity:1" />
    <path
       id="path4224"
       d="m 50.537891,981.67488 c -7.952532,-1.99579 -14.189564,-1.49896 -20.982737,-1.81546"
       style="fill:none;fill-rule:evenodd;stroke:#000000;stroke-width:0.77857548;stroke-linecap:butt;stroke-linejoin:miter;stroke-miterlimit:4;stroke-dasharray:none;stroke-opacity:1" />
    <path
       id="path4226"
       d="m 58.095351,977.57032 c -1.44327,0.50804 -20.217676,-4.76957 -20.09972,-4.84469"
       style="fill:none;fill-rule:evenodd;stroke:#000000;stroke-width:0.77857548;stroke-linecap:butt;stroke-linejoin:miter;stroke-miterlimit:4;stroke-dasharray:none;stroke-opacity:1" />
    <path
       id="path4228"
       d="m 60.021201,976.5147 -8.14428,-6.95396"
       style="fill:none;fill-rule:evenodd;stroke:#000000;stroke-width:0.77857548;stroke-linecap:butt;stroke-linejoin:miter;stroke-miterlimit:4;stroke-dasharray:none;stroke-opacity:1" />
    <path
       id="path4230"
       d="m 71.203191,979.13025 -2.89084,-6.19441"
       style="fill:none;fill-rule:evenodd;stroke:#000000;stroke-width:0.77857548;stroke-linecap:butt;stroke-linejoin:miter;stroke-miterlimit:4;stroke-dasharray:none;stroke-opacity:1" />
    <path
       id="path4293-1"
       d="m 85.005671,982.3106 c 14.70219,7.15372 29.952449,9.46604 44.928669,14.19906 20.8156,-23.5237 24.72006,-33.25566 23.89052,-38.50611 -12.42257,-5.94544 -58.145049,8.14684 -67.231609,21.01535 z"
       style="fill:#ff8080;fill-opacity:1;fill-rule:evenodd;stroke:#000000;stroke-width:1.55715096;stroke-linecap:butt;stroke-linejoin:miter;stroke-miterlimit:4;stroke-dasharray:none;stroke-opacity:1" />
    <path
       id="path4295-5"
       d="m 84.338771,983.37131 c 0.31894,0.13332 45.447209,18.07429 48.151409,14.44256 16.99585,-25.4527 32.81666,-32.86195 29.39192,-36.38904 l -7.96376,-3.44211 c -6.25972,13.22902 -14.73925,24.96105 -24.30121,35.96326 -2.44774,3.62659 -30.185529,-7.04978 -45.278359,-10.57467 z"
       style="fill:#333333;fill-opacity:1;fill-rule:evenodd;stroke:#000000;stroke-width:1.55715096;stroke-linecap:butt;stroke-linejoin:miter;stroke-miterlimit:4;stroke-dasharray:none;stroke-opacity:1" />
    <path
       id="path4297-4"
       d="m 85.407701,981.84045 33.341439,-7.81142 6.66959,-4.98244 19.44194,4.82469"
       style="fill:none;fill-rule:evenodd;stroke:#000000;stroke-width:0.77857548;stroke-linecap:butt;stroke-linejoin:miter;stroke-miterlimit:4;stroke-dasharray:none;stroke-opacity:1" />
    <path
       id="path4299-8"
       d="m 118.64878,974.16379 22.09568,5.28949"
       style="fill:none;fill-rule:evenodd;stroke:#000000;stroke-width:0.77857548;stroke-linecap:butt;stroke-linejoin:miter;stroke-miterlimit:4;stroke-dasharray:none;stroke-opacity:1" />
    <path
       id="path4301-0"
       d="m 106.98689,976.85853 c 0.26256,0.0947 27.90196,10.29306 27.90196,10.29306"
       style="fill:none;fill-rule:evenodd;stroke:#000000;stroke-width:0.77857548;stroke-linecap:butt;stroke-linejoin:miter;stroke-miterlimit:4;stroke-dasharray:none;stroke-opacity:1" />
    <path
       id="path4303-3"
       d="m 114.05059,962.94508 11.53506,5.96392 6.06953,-7.38269 16.43772,7.24964"
       style="fill:none;fill-rule:evenodd;stroke:#000000;stroke-width:0.77857548;stroke-linecap:butt;stroke-linejoin:miter;stroke-miterlimit:4;stroke-dasharray:none;stroke-opacity:1" />
    <path
       id="path4305-5"
       d="m 121.48507,960.72162 30.30848,1.29324"
       style="fill:none;fill-rule:evenodd;stroke:#000000;stroke-width:0.77857548;stroke-linecap:butt;stroke-linejoin:miter;stroke-miterlimit:4;stroke-dasharray:none;stroke-opacity:1" />
    <path
       id="path4293"
       d="m 78.366021,978.73858 c -15.11313,-6.17448 -27.18008,-16.07328 -40.770139,-24.10973 2.382435,-31.76371 6.58835,-41.36098 10.866041,-44.3284 12.699808,5.28464 34.021288,49.34647 31.144208,64.99079 z"
       style="fill:#ff8080;fill-opacity:1;fill-rule:evenodd;stroke:#000000;stroke-width:1.55715096;stroke-linecap:butt;stroke-linejoin:miter;stroke-miterlimit:4;stroke-dasharray:none;stroke-opacity:1" />
    <path
       id="path4295"
       d="m 78.072791,979.96625 c -0.31126,-0.15121 -43.863395,-21.84914 -43.147234,-26.36906 6.358959,-30.20801 0.771125,-47.18696 5.606416,-47.02165 l 7.880709,3.6403 c -5.065936,13.76293 -7.555294,28.17271 -8.788193,42.89779 -0.888255,4.32379 25.632212,17.90174 38.448302,26.85262 z"
       style="fill:#333333;fill-opacity:1;fill-rule:evenodd;stroke:#000000;stroke-width:1.55715096;stroke-linecap:butt;stroke-linejoin:miter;stroke-miterlimit:4;stroke-dasharray:none;stroke-opacity:1" />
    <path
       id="path4297"
       d="M 78.423351,978.11416 61.133681,947.6697 60.091501,939.24031 43.381515,927.90459"
       style="fill:none;fill-rule:evenodd;stroke:#000000;stroke-width:0.77857548;stroke-linecap:butt;stroke-linejoin:miter;stroke-miterlimit:4;stroke-dasharray:none;stroke-opacity:1" />
    <path
       id="path4299"
       d="M 61.106931,947.8376 42.253137,934.82193"
       style="fill:none;fill-rule:evenodd;stroke:#000000;stroke-width:0.77857548;stroke-linecap:butt;stroke-linejoin:miter;stroke-miterlimit:4;stroke-dasharray:none;stroke-opacity:1" />
    <path
       id="path4301"
       d="M 67.180891,958.46048 C 66.935061,958.32642 40.819134,944.49686 40.819134,944.49686"
       style="fill:none;fill-rule:evenodd;stroke:#000000;stroke-width:0.77857548;stroke-linecap:butt;stroke-linejoin:miter;stroke-miterlimit:4;stroke-dasharray:none;stroke-opacity:1" />
    <path
       id="path4303"
       d="m 72.180441,943.62402 -12.10587,-4.60358 1.06462,-9.61995 -16.36825,-7.41514"
       style="fill:none;fill-rule:evenodd;stroke:#000000;stroke-width:0.77857548;stroke-linecap:butt;stroke-linejoin:miter;stroke-miterlimit:4;stroke-dasharray:none;stroke-opacity:1" />
    <path
       id="path4305"
       d="M 68.665391,936.5063 47.016864,914.57409"
       style="fill:none;fill-rule:evenodd;stroke:#000000;stroke-width:0.77857548;stroke-linecap:butt;stroke-linejoin:miter;stroke-miterlimit:4;stroke-dasharray:none;stroke-opacity:1" />
    <path
       id="path4208"
       d="m 66.949411,1012.3577 c 3.23725,-9.8521 5.20978,-21.44599 9.72159,-31.03758 2.16214,-4.59629 4.88468,-7.29248 7.32705,-10.9389 1.29445,-0.83853 2.52713,-1.1624 3.42883,1.26953 0,0 -0.85822,9.25192 -2.62298,13.44829 -4.07577,9.69174 -17.85449,27.25866 -17.85449,27.25866 z"
       style="fill:#1a1a1a;fill-rule:evenodd;stroke:#000000;stroke-width:3.11430192px;stroke-linecap:butt;stroke-linejoin:miter;stroke-opacity:1" />
    <path
       id="path4235"
       d="m 82.692431,972.18722 c 0.664251,-2.20285 1.570627,-5.20334 2.473137,-8.06233 0.426256,-1.35029 0.86079,-2.69865 1.28677,-3.97486 -0.257569,-1.61165 -0.524762,-3.13385 -0.827827,-4.46011 -0.790092,1.10659 -1.617761,2.41763 -2.456856,3.82763 -0.08004,1.35143 -0.168352,2.77515 -0.248001,4.1976 -0.171044,3.05467 -0.303329,6.12468 -0.227223,8.47207 z"
       style="fill:#000000;fill-rule:evenodd;stroke:none;stroke-width:3.63236833px;stroke-linecap:butt;stroke-linejoin:miter;stroke-opacity:1" />
    <path
       id="path4235-5"
       d="m 87.462751,974.27535 c 1.440261,-1.77583 3.400305,-4.18812 5.305344,-6.473 0.899456,-1.0788 1.805774,-2.15243 2.677131,-3.16287 0.364812,-1.57834 0.687277,-3.07805 0.903295,-4.41141 -1.144494,0.71597 -2.400336,1.60566 -3.703875,2.58222 -0.579752,1.21119 -1.194234,2.48579 -1.800264,3.76269 -1.301415,2.74207 -2.573003,5.51401 -3.381631,7.70237 z"
       style="display:inline;fill:#000000;fill-rule:evenodd;stroke:none;stroke-width:3.63236833px;stroke-linecap:butt;stroke-linejoin:miter;stroke-opacity:1" />
    <path
       id="path4210-9-6"
       d="m 190.28547,915.66368 c 8.93652,6.85561 9.76967,7.35552 14.32579,10.77532 9.58023,-4.03985 28.68895,-25.95749 -3.64614,-28.5078 -4.62699,0.94519 -9.28544,1.98654 -14.97341,6.23913 z"
       style="fill:#ffb380;fill-opacity:1;fill-rule:evenodd;stroke:#000000;stroke-width:1.02164662;stroke-linecap:butt;stroke-linejoin:miter;stroke-miterlimit:4;stroke-dasharray:none;stroke-opacity:1" />
    <path
       id="path4212-2-7"
       d="m 204.37806,926.29336 2.6826,2.30358 c 24.58853,-13.69236 14.63423,-34.25371 -6.19178,-30.66023 18.03554,2.55699 26.5992,10.34796 3.50918,28.35665 z"
       style="fill:#333333;fill-rule:evenodd;stroke:#000000;stroke-width:1.02164662;stroke-linecap:butt;stroke-linejoin:miter;stroke-miterlimit:4;stroke-dasharray:none;stroke-opacity:1" />
    <path
       id="path4214-4-8"
       d="m 187.65075,906.55778 12.64577,3.84705 7.2829,-0.34524 7.18079,6.40234"
       style="fill:none;fill-rule:evenodd;stroke:#000000;stroke-width:0.51082331;stroke-linecap:butt;stroke-linejoin:miter;stroke-miterlimit:4;stroke-dasharray:none;stroke-opacity:1" />
    <path
       id="path4216-5-4"
       d="m 200.46133,910.50764 c 4.37309,3.04935 8.16901,6.34421 10.28911,10.35262"
       style="fill:none;fill-rule:evenodd;stroke:#000000;stroke-width:0.51082331;stroke-linecap:butt;stroke-linejoin:miter;stroke-miterlimit:4;stroke-dasharray:none;stroke-opacity:1" />
    <path
       id="path4218-7-8"
       d="m 188.14121,908.08809 c 6.75416,4.89383 13.35382,9.89487 19.16261,15.44437"
       style="fill:none;fill-rule:evenodd;stroke:#000000;stroke-width:0.51082331;stroke-linecap:butt;stroke-linejoin:miter;stroke-miterlimit:4;stroke-dasharray:none;stroke-opacity:1" />
    <path
       id="path4220-6-6"
       d="m 207.51159,910.00981 1.72872,-0.96163 c 3.52957,-0.51139 5.87695,1.34751 8.69115,2.26966"
       style="fill:none;fill-rule:evenodd;stroke:#000000;stroke-width:0.51082331;stroke-linecap:butt;stroke-linejoin:miter;stroke-miterlimit:4;stroke-dasharray:none;stroke-opacity:1" />
    <path
       id="path4222-3-0"
       d="m 188.57952,906.76638 1.74433,-2.13918 7.42476,-1.71099 11.45498,6.09438"
       style="fill:none;fill-rule:evenodd;stroke:#000000;stroke-width:0.51082331;stroke-linecap:butt;stroke-linejoin:miter;stroke-miterlimit:4;stroke-dasharray:none;stroke-opacity:1" />
    <path
       id="path4224-5-1"
       d="m 204.14443,906.33688 c 5.27029,-1.21437 9.42473,-0.83138 13.94071,-0.97021"
       style="fill:none;fill-rule:evenodd;stroke:#000000;stroke-width:0.51082331;stroke-linecap:butt;stroke-linejoin:miter;stroke-miterlimit:4;stroke-dasharray:none;stroke-opacity:1" />
    <path
       id="path4226-7-8"
       d="m 199.07496,903.6071 c 0.96542,0.34282 13.40156,-2.8906 13.32226,-2.94041"
       style="fill:none;fill-rule:evenodd;stroke:#000000;stroke-width:0.51082331;stroke-linecap:butt;stroke-linejoin:miter;stroke-miterlimit:4;stroke-dasharray:none;stroke-opacity:1" />
    <path
       id="path4228-9-1"
       d="m 197.78304,902.90517 5.34729,-4.42149"
       style="fill:none;fill-rule:evenodd;stroke:#000000;stroke-width:0.51082331;stroke-linecap:butt;stroke-linejoin:miter;stroke-miterlimit:4;stroke-dasharray:none;stroke-opacity:1" />
    <path
       id="path4230-5-7"
       d="m 190.37065,904.48931 1.86004,-3.98104"
       style="fill:none;fill-rule:evenodd;stroke:#000000;stroke-width:0.51082331;stroke-linecap:butt;stroke-linejoin:miter;stroke-miterlimit:4;stroke-dasharray:none;stroke-opacity:1" />
    <path
       id="path4210-3"
       d="m 186.74883,915.79328 c -1.86593,10.90247 -2.13651,11.81556 -3.13993,17.31851 -9.89282,3.25486 -39.22886,-0.51362 -17.0551,-23.48448 4.08079,-2.31707 8.25137,-4.58341 15.40973,-5.14329 z"
       style="fill:#ffb380;fill-opacity:1;fill-rule:evenodd;stroke:#000000;stroke-width:1.02164662;stroke-linecap:butt;stroke-linejoin:miter;stroke-miterlimit:4;stroke-dasharray:none;stroke-opacity:1" />
    <path
       id="path4212-7"
       d="m 183.68051,932.8518 -0.38982,3.45456 c -27.69255,5.89797 -34.57173,-15.82008 -16.66185,-26.73766 -11.5818,13.65212 -12.52351,25.0038 17.05167,23.2831 z"
       style="fill:#333333;fill-rule:evenodd;stroke:#000000;stroke-width:1.02164662;stroke-linecap:butt;stroke-linejoin:miter;stroke-miterlimit:4;stroke-dasharray:none;stroke-opacity:1" />
    <path
       id="path4214-3"
       d="m 182.38962,907.33349 -6.69715,11.09322 -5.63139,4.49304 -0.8801,9.42216"
       style="fill:none;fill-rule:evenodd;stroke:#000000;stroke-width:0.51082331;stroke-linecap:butt;stroke-linejoin:miter;stroke-miterlimit:4;stroke-dasharray:none;stroke-opacity:1" />
    <path
       id="path4216-0"
       d="m 175.64173,918.6104 c -1.12489,5.10875 -1.65214,10.02331 -0.44409,14.37364"
       style="fill:none;fill-rule:evenodd;stroke:#000000;stroke-width:0.51082331;stroke-linecap:butt;stroke-linejoin:miter;stroke-miterlimit:4;stroke-dasharray:none;stroke-opacity:1" />
    <path
       id="path4218-6"
       d="m 183.08688,908.78618 c -1.60962,8.02714 -3.03044,16.03282 -3.48573,23.92915"
       style="fill:none;fill-rule:evenodd;stroke:#000000;stroke-width:0.51082331;stroke-linecap:butt;stroke-linejoin:miter;stroke-miterlimit:4;stroke-dasharray:none;stroke-opacity:1" />
    <path
       id="path4220-5"
       d="m 170.07669,922.83849 -1.94643,0.41499 c -2.96771,1.92261 -3.41746,4.82943 -4.8621,7.34723"
       style="fill:none;fill-rule:evenodd;stroke:#000000;stroke-width:0.51082331;stroke-linecap:butt;stroke-linejoin:miter;stroke-miterlimit:4;stroke-dasharray:none;stroke-opacity:1" />
    <path
       id="path4222-4"
       d="m 181.84641,908.09336 -2.77391,-0.44657 -6.68286,3.57434 -4.25816,11.98063"
       style="fill:none;fill-rule:evenodd;stroke:#000000;stroke-width:0.51082331;stroke-linecap:butt;stroke-linejoin:miter;stroke-miterlimit:4;stroke-dasharray:none;stroke-opacity:1" />
    <path
       id="path4224-4"
       d="m 170.02462,917.92376 c -4.7435,2.53731 -7.5548,5.52852 -10.99472,8.37016"
       style="fill:none;fill-rule:evenodd;stroke:#000000;stroke-width:0.51082331;stroke-linecap:butt;stroke-linejoin:miter;stroke-miterlimit:4;stroke-dasharray:none;stroke-opacity:1" />
    <path
       id="path4226-72"
       d="m 171.88631,912.59713 c -0.4771,0.8833 -11.92567,6.59743 -11.90125,6.50932"
       style="fill:none;fill-rule:evenodd;stroke:#000000;stroke-width:0.51082331;stroke-linecap:butt;stroke-linejoin:miter;stroke-miterlimit:4;stroke-dasharray:none;stroke-opacity:1" />
    <path
       id="path4228-91"
       d="m 172.3565,911.23512 -7.0231,0.21271"
       style="fill:none;fill-rule:evenodd;stroke:#000000;stroke-width:0.51082331;stroke-linecap:butt;stroke-linejoin:miter;stroke-miterlimit:4;stroke-dasharray:none;stroke-opacity:1" />
    <path
       id="path4230-6"
       d="m 178.94246,907.57522 -4.13598,-1.73484"
       style="fill:none;fill-rule:evenodd;stroke:#000000;stroke-width:0.51082331;stroke-linecap:butt;stroke-linejoin:miter;stroke-miterlimit:4;stroke-dasharray:none;stroke-opacity:1" />
    <path
       id="path4293-1-6"
       d="m 187.05044,903.03411 c 10.29717,-3.00743 18.72587,-8.60858 28.08881,-12.91282 -0.25978,-20.60712 -2.6542,-27.05692 -5.37241,-29.24198 -8.65691,2.58922 -24.65637,29.59693 -23.39657,39.85557 z"
       style="fill:#ffb380;fill-opacity:1;fill-rule:evenodd;stroke:#000000;stroke-width:1.02164662;stroke-linecap:butt;stroke-linejoin:miter;stroke-miterlimit:4;stroke-dasharray:none;stroke-opacity:1" />
    <path
       id="path4295-5-2"
       d="m 187.19418,903.84353 c 0.21331,-0.0764 30.0495,-11.25877 29.76185,-14.21566 -2.96618,-19.85998 1.45293,-30.43583 -1.76609,-30.63919 l -5.38686,1.83928 c 2.79216,9.18733 3.84576,18.6262 4.05163,28.1877 0.40992,2.84119 -17.77383,9.88495 -26.66053,14.82787 z"
       style="fill:#333333;fill-opacity:1;fill-rule:evenodd;stroke:#000000;stroke-width:1.02164662;stroke-linecap:butt;stroke-linejoin:miter;stroke-miterlimit:4;stroke-dasharray:none;stroke-opacity:1" />
    <path
       id="path4297-4-2"
       d="m 187.0385,902.62848 12.75388,-18.49688 1.04329,-5.36159 11.57294,-6.22887"
       style="fill:none;fill-rule:evenodd;stroke:#000000;stroke-width:0.51082331;stroke-linecap:butt;stroke-linejoin:miter;stroke-miterlimit:4;stroke-dasharray:none;stroke-opacity:1" />
    <path
       id="path4299-8-9"
       d="m 199.80301,884.24128 13.06701,-7.17348"
       style="fill:none;fill-rule:evenodd;stroke:#000000;stroke-width:0.51082331;stroke-linecap:butt;stroke-linejoin:miter;stroke-miterlimit:4;stroke-dasharray:none;stroke-opacity:1" />
    <path
       id="path4301-0-6"
       d="m 195.32552,890.69273 c 0.16909,-0.0701 18.09439,-7.30257 18.09439,-7.30257"
       style="fill:none;fill-rule:evenodd;stroke:#000000;stroke-width:0.51082331;stroke-linecap:butt;stroke-linejoin:miter;stroke-miterlimit:4;stroke-dasharray:none;stroke-opacity:1" />
    <path
       id="path4303-3-1"
       d="m 192.6222,880.81844 8.23386,-2.1889 -0.30663,-6.26313 11.18275,-3.72597"
       style="fill:none;fill-rule:evenodd;stroke:#000000;stroke-width:0.51082331;stroke-linecap:butt;stroke-linejoin:miter;stroke-miterlimit:4;stroke-dasharray:none;stroke-opacity:1" />
    <path
       id="path4305-5-3"
       d="m 195.25368,876.46 15.29507,-12.73615"
       style="fill:none;fill-rule:evenodd;stroke:#000000;stroke-width:0.51082331;stroke-linecap:butt;stroke-linejoin:miter;stroke-miterlimit:4;stroke-dasharray:none;stroke-opacity:1" />
    <path
       id="path4293-2"
       d="m 182.24952,904.22633 c -10.06496,3.66447 -20.29228,4.17625 -30.43844,6.26438 -12.84869,-16.48237 -15.03722,-22.99962 -14.26746,-26.32753 8.50022,-3.0325 38.28785,8.97248 43.78838,17.84161 z"
       style="fill:#ffb380;fill-opacity:1;fill-rule:evenodd;stroke:#000000;stroke-width:1.02164662;stroke-linecap:butt;stroke-linejoin:miter;stroke-miterlimit:4;stroke-dasharray:none;stroke-opacity:1" />
    <path
       id="path4295-8"
       d="m 182.64851,904.95221 c -0.21772,0.064 -30.94457,8.72645 -32.58969,6.21472 C 139.82805,893.68696 129.62649,887.902 132.04851,885.8502 l 5.43388,-1.70641 c 3.60754,8.92028 8.75209,17.01868 14.64608,24.7162 1.47499,2.49235 20.34667,-2.60523 30.52004,-3.90778 z"
       style="fill:#333333;fill-opacity:1;fill-rule:evenodd;stroke:#000000;stroke-width:1.02164662;stroke-linecap:butt;stroke-linejoin:miter;stroke-miterlimit:4;stroke-dasharray:none;stroke-opacity:1" />
    <path
       id="path4297-1"
       d="m 182.00212,903.89779 -21.82427,-7.16703 -4.22324,-3.63571 -13.1167,1.86098"
       style="fill:none;fill-rule:evenodd;stroke:#000000;stroke-width:0.51082331;stroke-linecap:butt;stroke-linejoin:miter;stroke-miterlimit:4;stroke-dasharray:none;stroke-opacity:1" />
    <path
       id="path4299-2"
       d="m 160.23889,896.82414 -14.89901,1.9901"
       style="fill:none;fill-rule:evenodd;stroke:#000000;stroke-width:0.51082331;stroke-linecap:butt;stroke-linejoin:miter;stroke-miterlimit:4;stroke-dasharray:none;stroke-opacity:1" />
    <path
       id="path4301-5"
       d="m 167.87395,899.30678 c -0.1785,0.0433 -18.96462,4.84016 -18.96462,4.84016"
       style="fill:none;fill-rule:evenodd;stroke:#000000;stroke-width:0.51082331;stroke-linecap:butt;stroke-linejoin:miter;stroke-miterlimit:4;stroke-dasharray:none;stroke-opacity:1" />
    <path
       id="path4303-4"
       d="m 163.76078,889.8942 -7.91137,3.10149 -3.72465,-5.1431 -11.22191,3.61501"
       style="fill:none;fill-rule:evenodd;stroke:#000000;stroke-width:0.51082331;stroke-linecap:butt;stroke-linejoin:miter;stroke-miterlimit:4;stroke-dasharray:none;stroke-opacity:1" />
    <path
       id="path4305-7"
       d="m 158.91452,887.98614 -20.1885,-1.10949"
       style="fill:none;fill-rule:evenodd;stroke:#000000;stroke-width:0.51082331;stroke-linecap:butt;stroke-linejoin:miter;stroke-miterlimit:4;stroke-dasharray:none;stroke-opacity:1" />
    <path
       id="path4208-1"
       d="m 191.52737,925.59382 c -2.77157,-6.21399 -6.9255,-12.71637 -8.96297,-19.36582 -0.97618,-3.18628 -0.84239,-5.6967 -1.26367,-8.54518 0.25909,-0.97823 0.71507,-1.67922 2.22549,-0.89534 0,0 3.66278,4.87345 4.65574,7.6903 2.29337,6.50569 3.34541,21.11604 3.34541,21.11604 z"
       style="fill:#1a1a1a;fill-rule:evenodd;stroke:#000000;stroke-width:2.04329324px;stroke-linecap:butt;stroke-linejoin:miter;stroke-opacity:1" />
    <path
       id="path4235-53"
       d="m 181.46273,899.13587 c -0.64865,-1.36313 -1.53136,-3.22051 -2.35356,-5.00747 -0.38832,-0.84397 -0.77176,-1.69065 -1.12755,-2.49851 -0.83578,-0.66941 -1.6368,-1.29113 -2.36885,-1.80183 0.1041,0.88601 0.28008,1.88791 0.49416,2.94292 0.55703,0.69187 1.1419,1.4225 1.73043,2.14869 1.26385,1.55948 2.5533,3.10931 3.62537,4.2162 z"
       style="fill:#000000;fill-rule:evenodd;stroke:none;stroke-width:2.38319683px;stroke-linecap:butt;stroke-linejoin:miter;stroke-opacity:1" />
    <path
       id="path4235-5-1"
       d="m 184.70099,898.04683 c -0.0833,-1.49782 -0.19476,-3.53409 -0.27674,-5.48417 -0.0387,-0.92072 -0.0718,-1.84196 -0.094,-2.71708 -0.51872,-0.92766 -1.02334,-1.79844 -1.50632,-2.54147 -0.24034,0.85247 -0.45818,1.83846 -0.66087,2.88769 0.25241,0.84407 0.5159,1.73427 0.78452,2.62185 0.57683,1.90604 1.18134,3.81345 1.75343,5.23318 z"
       style="display:inline;fill:#000000;fill-rule:evenodd;stroke:none;stroke-width:2.38319683px;stroke-linecap:butt;stroke-linejoin:miter;stroke-opacity:1" />
    <path
       id="path4210-9-6-0"
       d="m 97.490149,846.32738 c 0.61196,8.18807 0.74472,8.88383 1.097717,13.02175 6.848684,3.24729 28.044984,2.99409 13.729884,-15.82576 -2.76077,-2.05683 -5.5891,-4.08408 -10.6634,-5.11174 z"
       style="fill:#ffe680;fill-opacity:1;fill-rule:evenodd;stroke:#000000;stroke-width:0.74478036;stroke-linecap:butt;stroke-linejoin:miter;stroke-miterlimit:4;stroke-dasharray:none;stroke-opacity:1" />
    <path
       id="path4212-2-7-7"
       d="m 98.553814,859.15161 0.05014,2.57721 c 19.384976,6.72048 25.730956,-8.67643 13.664066,-18.2551 7.36768,11.04806 7.29,19.4876 -13.714208,15.67789 z"
       style="fill:#333333;fill-rule:evenodd;stroke:#000000;stroke-width:0.74478036;stroke-linecap:butt;stroke-linejoin:miter;stroke-miterlimit:4;stroke-dasharray:none;stroke-opacity:1" />
    <path
       id="path4214-4-8-2"
       d="m 101.16186,840.47303 4.04898,8.74395 3.72426,3.79225 0.006,7.01333"
       style="fill:none;fill-rule:evenodd;stroke:#000000;stroke-width:0.37239018;stroke-linecap:butt;stroke-linejoin:miter;stroke-miterlimit:4;stroke-dasharray:none;stroke-opacity:1" />
    <path
       id="path4216-5-4-9"
       d="m 105.23497,849.35651 c 0.46555,3.85851 0.51733,7.52242 -0.63264,10.62164"
       style="fill:none;fill-rule:evenodd;stroke:#000000;stroke-width:0.37239018;stroke-linecap:butt;stroke-linejoin:miter;stroke-miterlimit:4;stroke-dasharray:none;stroke-opacity:1" />
    <path
       id="path4218-7-8-7"
       d="m 100.56795,841.48282 c 0.61889,6.04883 1.10446,12.06572 0.90777,17.91892"
       style="fill:none;fill-rule:evenodd;stroke:#000000;stroke-width:0.37239018;stroke-linecap:butt;stroke-linejoin:miter;stroke-miterlimit:4;stroke-dasharray:none;stroke-opacity:1" />
    <path
       id="path4220-6-6-1"
       d="m 108.92923,852.94818 1.36232,0.47298 c 1.992,1.67079 2.12115,3.8498 2.98631,5.82775"
       style="fill:none;fill-rule:evenodd;stroke:#000000;stroke-width:0.37239018;stroke-linecap:butt;stroke-linejoin:miter;stroke-miterlimit:4;stroke-dasharray:none;stroke-opacity:1" />
    <path
       id="path4222-3-0-3"
       d="m 101.49944,841.07932 2.01017,-0.0903 4.53574,3.20619 2.24881,9.18777"
       style="fill:none;fill-rule:evenodd;stroke:#000000;stroke-width:0.37239018;stroke-linecap:butt;stroke-linejoin:miter;stroke-miterlimit:4;stroke-dasharray:none;stroke-opacity:1" />
    <path
       id="path4224-5-1-1"
       d="m 109.29122,849.33381 c 3.21952,2.2759 5.02865,4.72075 7.29708,7.10879"
       style="fill:none;fill-rule:evenodd;stroke:#000000;stroke-width:0.37239018;stroke-linecap:butt;stroke-linejoin:miter;stroke-miterlimit:4;stroke-dasharray:none;stroke-opacity:1" />
    <path
       id="path4226-7-8-0"
       d="m 108.31376,845.25183 c 0.28241,0.6914 8.07943,5.88312 8.06801,5.81581"
       style="fill:none;fill-rule:evenodd;stroke:#000000;stroke-width:0.37239018;stroke-linecap:butt;stroke-linejoin:miter;stroke-miterlimit:4;stroke-dasharray:none;stroke-opacity:1" />
    <path
       id="path4228-9-1-5"
       d="m 108.06807,844.20853 5.0007,0.76041"
       style="fill:none;fill-rule:evenodd;stroke:#000000;stroke-width:0.37239018;stroke-linecap:butt;stroke-linejoin:miter;stroke-miterlimit:4;stroke-dasharray:none;stroke-opacity:1" />
    <path
       id="path4230-5-7-2"
       d="m 103.60731,840.94747 3.06782,-0.92182"
       style="fill:none;fill-rule:evenodd;stroke:#000000;stroke-width:0.37239018;stroke-linecap:butt;stroke-linejoin:miter;stroke-miterlimit:4;stroke-dasharray:none;stroke-opacity:1" />
    <path
       id="path4210-3-9"
       d="m 95.702306,844.46735 c -6.834044,4.27964 -7.461907,4.57591 -10.941261,6.70253 -6.573661,-3.79844 -18.770089,-21.57917 4.487244,-20.67726 3.241465,1.09367 6.498947,2.2608 10.279436,5.88111 z"
       style="fill:#ffe680;fill-opacity:1;fill-rule:evenodd;stroke:#000000;stroke-width:0.74478036;stroke-linecap:butt;stroke-linejoin:miter;stroke-miterlimit:4;stroke-dasharray:none;stroke-opacity:1" />
    <path
       id="path4212-7-8"
       d="m 84.937182,851.08257 -2.067629,1.46556 c -16.654257,-12.19313 -8.186087,-26.47971 6.447043,-22.04317 -13.047083,0.33208 -19.676578,5.33237 -4.379414,20.57761 z"
       style="fill:#333333;fill-rule:evenodd;stroke:#000000;stroke-width:0.74478036;stroke-linecap:butt;stroke-linejoin:miter;stroke-miterlimit:4;stroke-dasharray:none;stroke-opacity:1" />
    <path
       id="path4214-3-6"
       d="m 98.185301,837.9891 -9.283778,1.7454 -5.177561,-0.88013 -5.550446,4.09682"
       style="fill:none;fill-rule:evenodd;stroke:#000000;stroke-width:0.37239018;stroke-linecap:butt;stroke-linejoin:miter;stroke-miterlimit:4;stroke-dasharray:none;stroke-opacity:1" />
    <path
       id="path4216-0-6"
       d="m 88.777007,839.79611 c -3.324002,1.86916 -6.252207,3.96896 -8.030971,6.73831"
       style="fill:none;fill-rule:evenodd;stroke:#000000;stroke-width:0.37239018;stroke-linecap:butt;stroke-linejoin:miter;stroke-miterlimit:4;stroke-dasharray:none;stroke-opacity:1" />
    <path
       id="path4218-6-9"
       d="m 97.734022,839.07364 c -5.146189,3.02275 -10.18903,6.13773 -14.703557,9.7246"
       style="fill:none;fill-rule:evenodd;stroke:#000000;stroke-width:0.37239018;stroke-linecap:butt;stroke-linejoin:miter;stroke-miterlimit:4;stroke-dasharray:none;stroke-opacity:1" />
    <path
       id="path4220-5-6"
       d="m 83.775726,838.8234 -1.170819,-0.85681 c -2.486479,-0.68001 -4.28539,0.48699 -6.355894,0.92413"
       style="fill:none;fill-rule:evenodd;stroke:#000000;stroke-width:0.37239018;stroke-linecap:butt;stroke-linejoin:miter;stroke-miterlimit:4;stroke-dasharray:none;stroke-opacity:1" />
    <path
       id="path4222-4-4"
       d="m 97.50836,838.06273 -1.104186,-1.7251 -5.188629,-1.89796 -8.581924,3.50247"
       style="fill:none;fill-rule:evenodd;stroke:#000000;stroke-width:0.37239018;stroke-linecap:butt;stroke-linejoin:miter;stroke-miterlimit:4;stroke-dasharray:none;stroke-opacity:1" />
    <path
       id="path4224-4-4"
       d="m 86.422708,836.40851 c -3.683024,-1.34705 -6.674578,-1.42311 -9.890061,-1.9136"
       style="fill:none;fill-rule:evenodd;stroke:#000000;stroke-width:0.37239018;stroke-linecap:butt;stroke-linejoin:miter;stroke-miterlimit:4;stroke-dasharray:none;stroke-opacity:1" />
    <path
       id="path4226-72-7"
       d="m 90.222963,834.83418 c -0.711951,0.16951 -9.378246,-3.28062 -9.31848,-3.31013"
       style="fill:none;fill-rule:evenodd;stroke:#000000;stroke-width:0.37239018;stroke-linecap:butt;stroke-linejoin:miter;stroke-miterlimit:4;stroke-dasharray:none;stroke-opacity:1" />
    <path
       id="path4228-91-9"
       d="m 91.191846,834.42844 -3.526042,-3.71535"
       style="fill:none;fill-rule:evenodd;stroke:#000000;stroke-width:0.37239018;stroke-linecap:butt;stroke-linejoin:miter;stroke-miterlimit:4;stroke-dasharray:none;stroke-opacity:1" />
    <path
       id="path4230-6-7"
       d="M 96.379941,836.23217 95.314806,833.1409"
       style="fill:none;fill-rule:evenodd;stroke:#000000;stroke-width:0.37239018;stroke-linecap:butt;stroke-linejoin:miter;stroke-miterlimit:4;stroke-dasharray:none;stroke-opacity:1" />
    <path
       id="path4293-1-6-2"
       d="m 102.78626,838.43555 c 6.63548,4.13844 13.77391,6.00145 20.66084,9.00221 11.07848,-10.14797 13.42268,-14.58188 13.2908,-17.12089 -5.61158,-3.44968 -28.06564,0.96582 -33.03178,6.63236 z"
       style="fill:#ffe680;fill-opacity:1;fill-rule:evenodd;stroke:#000000;stroke-width:0.74478036;stroke-linecap:butt;stroke-linejoin:miter;stroke-miterlimit:4;stroke-dasharray:none;stroke-opacity:1" />
    <path
       id="path4295-5-2-4"
       d="m 102.41596,838.90675 c 0.14512,0.0789 20.71358,10.87149 22.18164,9.27924 9.35803,-11.25671 17.25429,-13.98951 15.80172,-15.83852 l -3.6159,-2.03583 c -3.63953,5.97949 -8.26006,11.13583 -13.35893,15.89079 -1.34578,1.60256 -14.0056,-4.86401 -21.00853,-7.29568 z"
       style="fill:#333333;fill-opacity:1;fill-rule:evenodd;stroke:#000000;stroke-width:0.74478036;stroke-linecap:butt;stroke-linejoin:miter;stroke-miterlimit:4;stroke-dasharray:none;stroke-opacity:1" />
    <path
       id="path4297-4-2-8"
       d="m 103.00101,838.23208 16.25047,-2.04738 3.42185,-2.0363 9.00656,3.2678"
       style="fill:none;fill-rule:evenodd;stroke:#000000;stroke-width:0.37239018;stroke-linecap:butt;stroke-linejoin:miter;stroke-miterlimit:4;stroke-dasharray:none;stroke-opacity:1" />
    <path
       id="path4299-8-9-9"
       d="m 119.197,836.24374 10.24569,3.62146"
       style="fill:none;fill-rule:evenodd;stroke:#000000;stroke-width:0.37239018;stroke-linecap:butt;stroke-linejoin:miter;stroke-miterlimit:4;stroke-dasharray:none;stroke-opacity:1" />
    <path
       id="path4301-0-6-9"
       d="m 113.51493,836.94201 c 0.12023,0.0579 12.75715,6.29229 12.75715,6.29229"
       style="fill:none;fill-rule:evenodd;stroke:#000000;stroke-width:0.37239018;stroke-linecap:butt;stroke-linejoin:miter;stroke-miterlimit:4;stroke-dasharray:none;stroke-opacity:1" />
    <path
       id="path4303-3-1-5"
       d="m 117.57112,830.67723 5.18849,3.41404 3.25653,-3.20807 7.4562,4.27104"
       style="fill:none;fill-rule:evenodd;stroke:#000000;stroke-width:0.37239018;stroke-linecap:butt;stroke-linejoin:miter;stroke-miterlimit:4;stroke-dasharray:none;stroke-opacity:1" />
    <path
       id="path4305-5-3-9"
       d="m 121.21875,829.9916 14.3522,2.13171"
       style="fill:none;fill-rule:evenodd;stroke:#000000;stroke-width:0.37239018;stroke-linecap:butt;stroke-linejoin:miter;stroke-miterlimit:4;stroke-dasharray:none;stroke-opacity:1" />
    <path
       id="path4293-2-3"
       d="m 99.806713,836.4041 c -6.879967,-3.69313 -12.124575,-9.00547 -18.186875,-13.50822 2.722628,-14.98993 5.203486,-19.34464 7.386749,-20.54212 5.776518,3.14922 13.713833,25.1751 11.562493,32.47269 z"
       style="fill:#ffe680;fill-opacity:1;fill-rule:evenodd;stroke:#000000;stroke-width:0.74478036;stroke-linecap:butt;stroke-linejoin:miter;stroke-miterlimit:4;stroke-dasharray:none;stroke-opacity:1" />
    <path
       id="path4295-8-9"
       d="m 99.605781,836.97352 c -0.140522,-0.0873 -19.771342,-12.58784 -19.204511,-14.70202 4.536299,-14.05093 2.727901,-22.40693 5.01964,-22.08636 l 3.566487,2.12591 c -3.098383,6.29317 -5.003524,13.02294 -6.326771,19.96553 -0.638907,2.01227 11.296782,9.79793 16.945155,14.69694 z"
       style="fill:#333333;fill-opacity:1;fill-rule:evenodd;stroke:#000000;stroke-width:0.74478036;stroke-linecap:butt;stroke-linejoin:miter;stroke-miterlimit:4;stroke-dasharray:none;stroke-opacity:1" />
    <path
       id="path4297-1-9"
       d="m 99.865213,836.11004 -6.700866,-15.3467 -0.07396,-4.06177 -7.381274,-6.22821"
       style="fill:none;fill-rule:evenodd;stroke:#000000;stroke-width:0.37239018;stroke-linecap:butt;stroke-linejoin:miter;stroke-miterlimit:4;stroke-dasharray:none;stroke-opacity:1" />
    <path
       id="path4299-2-4"
       d="m 93.143214,820.84188 -8.316961,-7.1346"
       style="fill:none;fill-rule:evenodd;stroke:#000000;stroke-width:0.37239018;stroke-linecap:butt;stroke-linejoin:miter;stroke-miterlimit:4;stroke-dasharray:none;stroke-opacity:1" />
    <path
       id="path4301-5-3"
       d="m 95.500889,826.19882 c -0.110222,-0.076 -11.840855,-7.9612 -11.840855,-7.9612"
       style="fill:none;fill-rule:evenodd;stroke:#000000;stroke-width:0.37239018;stroke-linecap:butt;stroke-linejoin:miter;stroke-miterlimit:4;stroke-dasharray:none;stroke-opacity:1" />
    <path
       id="path4303-4-7"
       d="m 98.621417,819.39167 -5.528086,-2.79555 0.987764,-4.52265 -7.414884,-4.34621"
       style="fill:none;fill-rule:evenodd;stroke:#000000;stroke-width:0.37239018;stroke-linecap:butt;stroke-linejoin:miter;stroke-miterlimit:4;stroke-dasharray:none;stroke-opacity:1" />
    <path
       id="path4305-7-1"
       d="M 97.305557,815.83009 88.105371,804.31431"
       style="fill:none;fill-rule:evenodd;stroke:#000000;stroke-width:0.37239018;stroke-linecap:butt;stroke-linejoin:miter;stroke-miterlimit:4;stroke-dasharray:none;stroke-opacity:1" />
    <path
       id="path4208-1-3"
       d="m 92.693935,851.82467 c 2.032846,-4.52447 3.55123,-9.94059 6.177323,-14.27736 1.258432,-2.07802 2.688382,-3.22432 4.032602,-4.83659 0.6577,-0.33415 1.26027,-0.42662 1.56751,0.77528 0,0 -0.87119,4.35808 -1.92061,6.26582 -2.42366,4.4061 -9.856825,12.07285 -9.856825,12.07285 z"
       style="fill:#1a1a1a;fill-rule:evenodd;stroke:#000000;stroke-width:1.48956072px;stroke-linecap:butt;stroke-linejoin:miter;stroke-opacity:1" />
    <path
       id="path4235-53-8"
       d="m 102.19247,833.5044 c 0.42619,-1.01463 1.00745,-2.3965 1.57981,-3.7113 0.27032,-0.62097 0.54449,-1.2406 0.81097,-1.82634 -0.0419,-0.7795 -0.0928,-1.51694 -0.1706,-2.16297 -0.4312,0.48684 -0.8905,1.06905 -1.36018,1.69776 -0.1057,0.63883 -0.21894,1.31164 -0.32801,1.98427 -0.2342,1.44447 -0.45074,2.89817 -0.53199,4.01858 z"
       style="fill:#000000;fill-rule:evenodd;stroke:none;stroke-width:1.73735046px;stroke-linecap:butt;stroke-linejoin:miter;stroke-opacity:1" />
    <path
       id="path4235-5-1-4"
       d="m 104.35709,834.73629 c 0.77395,-0.77264 1.82699,-1.82203 2.8475,-2.81356 0.48182,-0.46815 0.96666,-0.93349 1.43169,-1.37052 0.25251,-0.73251 0.48094,-1.42973 0.65041,-2.05315 -0.58022,0.28327 -1.22211,0.64362 -1.89103,1.04292 -0.33638,0.54711 -0.69245,1.12265 -1.04461,1.69971 -0.75626,1.23921 -1.49982,2.49412 -1.99396,3.4946 z"
       style="display:inline;fill:#000000;fill-rule:evenodd;stroke:none;stroke-width:1.73735046px;stroke-linecap:butt;stroke-linejoin:miter;stroke-opacity:1" />
  </g>
</svg>
