<?xml version="1.0" encoding="UTF-8"?>
<svg version="1.1" viewBox="0 0 64 64" xml:space="preserve" xmlns="http://www.w3.org/2000/svg"><path d="m33.037 52.812c9.4774-6.6056 15.183-13.211 19.879-19.817 3.7232 2.319 6.4722 5.6706 8.5998 9.7838 1.0807 2.0892 0.70734 3.6946-0.31159 5.3593-3.3136 5.4138-7.3935 9.9099-13.211 13.211-2.3513 1.3343-3.8799 0.89977-5.6086 0.12464-4.4055-1.9754-6.8417-5.3173-9.3476-8.6621z" fill="#fca" stroke-linecap="round" stroke-width="4"/><path d="m31.292 51.628c-17.616-5.3964-28.495-12.54-29.352-22.123-1.7083-19.117 17.126-28.437 23.743-27.669 6.4902 0.75378 10.055 3.7859 11.466 8.6621 0.83173 2.8745 1.1608 5.7773 2.9912 7.4158 2.0263 0.3415 2.162-0.42914 1.371-1.7449-1.5793-2.627-2.0779-5.1516-2.6173-7.7274 5.6441-0.59012 9.5728 6.6092 10.345 10.594l2.3057 11.903c-4.4232 8.2932-11.689 14.881-20.253 20.689z" fill="#fca" stroke-linecap="round" stroke-width="4"/></svg>
