<svg xmlns="http://www.w3.org/2000/svg" xmlns:xlink="http://www.w3.org/1999/xlink" viewBox="0 0 256 256">
    <defs>
        <linearGradient id="linearGradient1819" x1="44.206" x2="130" y1="157.578" y2="192.198" gradientUnits="userSpaceOnUse" xlink:href="#innoGrad5"/>
        <linearGradient id="innoGrad5">
            <stop offset="0" stop-color="#ffd42a" stop-opacity=".502"/>
            <stop offset="1" stop-color="#ffd42a" stop-opacity="0"/>
        </linearGradient>
        <linearGradient id="linearGradient1924" x1="117.083" x2="199.694" y1="180.622" y2="154.679" gradientUnits="userSpaceOnUse" xlink:href="#innoGrad6"/>
        <linearGradient id="innoGrad6">
            <stop offset="0" stop-color="#ffd42a" stop-opacity="0"/>
            <stop offset="1" stop-color="#ffd42a" stop-opacity=".502"/>
        </linearGradient>
    </defs>
    <g>
        <path fill="#ffe680" d="M44.951 160.728c-4.428 13.911 1.062 11.405 1.062 11.405-.88 7.403 2.553 5.241 2.553 5.241 1.239 15.372 5.376 4.872 5.376 4.872 2.996 17.501 7.441 6.492 7.441 6.492 6.61 12.858 10.968 5.946 10.968 5.946 9.735 8.762 12.685 2.379 12.685 2.379 15.901 9.113 18.103 2.51 18.103 2.51 8.368 4.27 10.968-1.32 10.968-1.32 5.592 2.461 20.792 1.54 21.539-.928.746-2.467-12.507-7.4-14.536-8.546 0 0 3.17-6.533-11.892-2.287 0 0 .087-3.172-6.43-1.322 0 0-5.638-.969-14.536.698 0 0 1.986-4.577-6.825-2.508 0 0 3.172-2.107-14.285-2.907 0 0 2.918-.52-6.286-3.475 0 0 4.843-.397-3.13-3.879 0 0 2.913-2.378-3.477-3.917 0 0 2.861.863-1.322-6.079-6.157-10.219-7.573-3.64-7.976-2.375z"/>
        <path fill="#ffd42a" d="M46.68 157.664c.356 7.818 3.555 14.584 6.811 18.719 2.05 2.602 4.24 4.373 6.33 5.393 2.492 1.217 4.83 1.373 6.9.785 4.713-1.374 8.725-1.675 9.076-1.705 1.144-.096 1.737-.083 1.75-.033l.155 1.06c-.005-.02-.488.104-1.731.487-1.112.343-3.44 1.084-6.177 2.042-1.706.597-3.857 1.38-5.576 2.101-.742.312-1.431.623-1.952.902-.244.13-.453.255-.614.37a1.9 1.9 0 0 0-.198.159.69.69 0 0 0-.122.143.58.58 0 0 1 .096-.166c.047-.06.108-.124.181-.19.15-.136.351-.283.587-.435.504-.324 1.18-.681 1.908-1.035 1.674-.814 3.824-1.705 5.493-2.375 1.654-.664 3.58-1.404 4.856-1.892a41.194 41.194 0 0 0-7.571 1.163c-2.241.578-4.708.333-7.262-.983-2.134-1.1-4.33-2.955-6.355-5.616-3.22-4.232-6.329-11.073-6.585-18.894z"/>
        <path fill="#ffd42a" d="M65.17 185.887c2.56 1.008 5.323 1.9 8.121 2.524 3.723.83 6.951 1.062 9.704.86 5.894-.398 11.256-2.003 13.169-2.599 4.713-1.469 5.809-2.105 5.818-2.047a.788.284 76.548 0 1 .543.828c-3.46 3.258-7.89 6.35-12.892 7.889-2.53.78-5.442 1.052-5.435.797.003-.102 2.677-.344 5.27-1.29 3.94-1.436 7.448-3.764 10.425-6.343-.886.297-2.03.652-3.469 1.051-1.919.532-7.459 2.016-13.397 2.284-2.817.112-6.084-.228-9.797-1.172-2.785-.709-5.546-1.689-8.06-2.782z"/>
        <path fill="#ffd42a" d="M135.646 197.325c.027-.089-1.733-.694-3.386-1.215a149.269 149.269 0 0 0-5.263-1.545c-3.21-.88-5.787-1.484-7.914-1.912a98.93 98.93 0 0 0-5.398-.922c-1.95-.281-5.321-.715-8.921-.896-3.224-.16-8.376-.218-12.325 1.032 3.994-1.042 9.097-.765 12.285-.468 3.557.331 6.89.905 8.81 1.254 1.933.35 4.038.775 5.34 1.037 1.873.376 4.935.987 7.933 1.645 1.78.39 3.413.766 5.33 1.22 1.682.4 3.486.844 3.509.77zM44.912 168.437a3.3 3.3 0 0 1 .418-.392c.13-.099.238-.156.324-.183.095-.03.158-.022.197-.004.039.018.06.051.078.087.02.044.039.104.053.179.015.085.024.183.027.288a5.77 5.77 0 0 1-.046.813c-.124 1.057-.24 1.37-.319 1.865l-.15.948 1.04.19c.035-.191.108-.62.15-1a10.39 10.39 0 0 0-.003-1.997 5.01 5.01 0 0 0-.155-.908 1.822 1.822 0 0 0-.142-.356.825.825 0 0 0-.211-.261.453.453 0 0 0-.295-.1.579.579 0 0 0-.298.105c-.092.06-.193.15-.306.273a4.838 4.838 0 0 0-.362.453zM47.51 173.06c.424-.096.717-.071.916.001.112.04.195.097.259.157.07.067.118.143.154.22.084.184.107.405.105.611a3.908 3.908 0 0 1-.103.784c-.108.482-.529 1.652-.507 1.586-.089.27-.267.778-.26.764l.984.383a9.4 9.4 0 0 0 .28-.846c.067-.247.219-.914.218-1.814 0-.25-.016-.593-.091-.92-.057-.243-.156-.522-.342-.739a1.018 1.018 0 0 0-.294-.237 1.024 1.024 0 0 0-.366-.113c-.243-.028-.55.012-.952.163zM51.474 180.984c.253-.264.468-.408.642-.48.205-.086.355-.076.458-.044.124.04.215.125.28.205.09.113.157.25.203.362.198.488.177.659.245.895.045.155.129.46.124.44l1.032-.23a4.204 4.204 0 0 0-.164-.55 3.03 3.03 0 0 0-.647-.964 1.943 1.943 0 0 0-.481-.374 1.033 1.033 0 0 0-.571-.125 1.068 1.068 0 0 0-.565.24c-.166.13-.35.326-.556.625zM58.344 187.899c1.019-.344 1.608-.35 1.938-.292.228.04.366.114.448.18a.451.451 0 0 1 .172.459c-.017.11-.024.106-.027.2-.003.07-.02.238-.01.19l1.037.204c.023-.115.039-.3.019-.467a1.055 1.055 0 0 0-.144-.416 1.456 1.456 0 0 0-.333-.398 1.296 1.296 0 0 0-.504-.254 1.862 1.862 0 0 0-.648-.04c-.387.036-.985.177-1.948.634zM68.739 192.346c.522-.159.936-.214 1.262-.216.385-.002.666.069.87.157.251.109.415.256.523.385.146.173.227.358.274.496.123.36.136 1.012.137 1.017.012.17.016.503.018.468l1.055.063c.009-.145.006-.411-.032-.655a2.896 2.896 0 0 0-.55-1.244 2.346 2.346 0 0 0-.559-.542 2.031 2.031 0 0 0-.769-.316 2.787 2.787 0 0 0-.981.004c-.338.055-.747.17-1.248.383zM80.895 194.024c.657-.197 1.173-.265 1.575-.268.475-.003.817.087 1.062.197.302.136.493.32.618.48.168.219.255.451.304.627.138.49.093 1.26.093 1.304-.003.222-.038.654-.034.621l1.046.156a4.45 4.45 0 0 0 .035-.801 3.61 3.61 0 0 0-.483-1.571 2.583 2.583 0 0 0-.591-.707 2.193 2.193 0 0 0-.88-.433 3.167 3.167 0 0 0-1.182-.04c-.414.056-.926.183-1.563.435zM98.38 197.325c.595-.436 1.083-.68 1.476-.812.462-.156.815-.162 1.076-.116.32.057.544.203.7.344.213.193.355.429.446.616.259.53.4 1.431.414 1.498.051.264.123.788.12.76l1.054-.082a6.022 6.022 0 0 0-.152-.91 3.863 3.863 0 0 0-.227-.649 4.752 4.752 0 0 0-.609-1.01 2.683 2.683 0 0 0-.745-.653 1.925 1.925 0 0 0-.975-.255c-.322.002-.706.08-1.166.301-.39.187-.855.487-1.412.968zM109.743 197.063c.768-.543 1.375-.575 1.755-.518.588.088.994.447 1.175.626.297.294.711.946.695.922.105.15.291.442.277.415l.924-.512a3.98 3.98 0 0 0-.369-.54c-.118-.144-.46-.515-1.107-.867-.281-.153-.874-.44-1.586-.386-.467.036-1.076.22-1.764.86zM116.615 186.007a1.67 1.67 0 0 0-.012.87c.078.295.235.544.411.746.217.25.478.448.71.597.31.2.63.353.863.456.847.372 1.437.5 1.686.542.312.053.65.08.81.09l.055-1.056c.018 0-.46-.044-.72-.072.11.012-1.122-.089-1.61-.187a5.335 5.335 0 0 1-.844-.239 3.012 3.012 0 0 1-.715-.38 1.626 1.626 0 0 1-.489-.557 1.462 1.462 0 0 1-.145-.81zM104.68 186.007c.073.264.202.469.357.63.183.188.405.318.62.409.584.245 1.286.267 1.612.27a7.226 7.226 0 0 0 1.314-.091c.287-.055.628-.167.819-.238l-.369-.99a38.3 38.3 0 0 0-.711.23c.01-.003-.697.267-1.132.376-.296.074-.89.198-1.437.115a1.629 1.629 0 0 1-.61-.212 1.263 1.263 0 0 1-.462-.5zM83.275 184.378c-.067.019-.024.318.062.584.153.467.416.869.694 1.162a2.642 2.642 0 0 0 1.712.849c.303.028 1.248.089 2.737-.629l-.458-.952c-1.267.61-2.038.544-2.2.535-.286-.014-.838-.064-1.334-.357-.283-.166-.56-.405-.848-.768-.157-.196-.313-.439-.365-.424zM81.17 182.898c.029-.017-.298.137-.457.216.005-.004-.455.257-.78.37-.213.074-.664.208-1.173.14a2 2 0 0 1-1.23-.657c.34.555.774.833 1.137.986.547.23 1.111.243 1.378.24.544-.003.903-.078 1.029-.114.216-.06.465-.177.61-.258zM63.941 179.682a.394.394 0 0 0-.113.136.246.246 0 0 0-.012.173c.017.063.056.12.102.17.05.055.113.103.18.146.154.098.347.177.516.237.227.08.469.145.643.188.691.174 1.032.225 1.28.24.229.013.503.01.611.01l-.013-1.058h-.574c-.311.004-.483.054-1.23.093-.175.01-.396.017-.618.012a3.765 3.765 0 0 1-.485-.039 1.197 1.197 0 0 1-.163-.036.405.405 0 0 1-.102-.044.115.115 0 0 1-.054-.077.24.24 0 0 1 .032-.151zM58.656 174.868a.51.51 0 0 0-.138.14.444.444 0 0 0-.066.185c-.02.15.028.305.093.44.081.166.2.324.308.45.144.17.305.327.422.436.456.426.711.605.891.707.174.099.384.195.473.234l.431-.965c.01.004-.271-.132-.425-.202-.235-.108-.382-.118-.971-.372a4.916 4.916 0 0 1-.481-.237 2.423 2.423 0 0 1-.371-.253.716.716 0 0 1-.203-.252.308.308 0 0 1-.023-.143.377.377 0 0 1 .06-.168zM55.045 171.301c-.099.2-.13.382-.118.549.014.197.091.369.189.513.12.176.276.32.417.428.19.146.39.261.537.34.55.29.898.39 1.082.427.202.04.43.061.537.069l.073-1.055c.018.001-.286-.033-.449-.05-.249-.027-.388.02-1.01-.071a3.11 3.11 0 0 1-.515-.119 1.63 1.63 0 0 1-.422-.203.798.798 0 0 1-.276-.318.824.824 0 0 1-.045-.51zM51.785 167.118a1.314 1.314 0 0 0-.257.582.97.97 0 0 0 .09.561c.094.197.239.36.373.482.179.165.379.295.526.384.543.325.927.446 1.11.488.213.05.453.081.568.093l.106-1.052-.475-.07c-.26-.038-.416.004-1.037-.125a2.708 2.708 0 0 1-.504-.152 1.291 1.291 0 0 1-.383-.24.676.676 0 0 1-.206-.37c-.027-.143-.016-.336.089-.58z"/>
        <path fill="url(#linearGradient1819)" stroke="#231f20" stroke-linejoin="round" stroke-miterlimit="10" d="M44.206 157.578c-4.189 13.16 1.004 10.789 1.004 10.789-.833 7.003 2.415 4.958 2.415 4.958 1.172 14.541 5.086 4.609 5.086 4.609 2.834 16.555 7.039 6.141 7.039 6.141 6.253 12.163 10.375 5.625 10.375 5.625 9.209 8.288 12 2.25 12 2.25 15.042 8.621 17.125 2.375 17.125 2.375 7.916 4.038 10.375-1.25 10.375-1.25 5.29 2.329 19.669 1.457 20.375-.877.706-2.334-11.831-7.001-13.75-8.084 0 0 2.999-6.18-11.25-2.164 0 0 .083-3-6.083-1.25 0 0-5.333-.917-13.75.66 0 0 1.879-4.33-6.456-2.373 0 0 3-1.993-13.513-2.75 0 0 2.76-.491-5.947-3.287 0 0 4.582-.375-2.96-3.669 0 0 2.755-2.25-3.29-3.706 0 0 2.707.817-1.25-5.75-5.825-9.667-7.164-3.444-7.545-2.247z" transform="matrix(1.05712 0 0 1.05712 -1.78 -5.85)"/>
    </g>
    <g>
        <path fill="#ffe680" d="M211.049 160.727c4.428 13.911-1.062 11.405-1.062 11.405.882 7.403-2.552 5.241-2.552 5.241-1.239 15.372-5.376 4.872-5.376 4.872-2.998 17.5-7.441 6.492-7.441 6.492-6.611 12.858-10.968 5.946-10.968 5.946-9.735 8.762-12.685 2.379-12.685 2.379-15.9 9.113-18.103 2.51-18.103 2.51-8.368 4.27-10.968-1.32-10.968-1.32-8.363-4.893-19.157-10.697-19.903-13.164-.746-2.467 9.728-2.842 24.792 1.403 0 0-.088-3.172 6.432-1.322 0 0 5.636-.969 14.535.698 0 0-1.987-4.577 6.824-2.508 0 0-3.171-2.107 14.286-2.908 0 0-2.918-.519 6.286-3.474 0 0-4.843-.397 3.128-3.879 0 0-2.91-2.378 3.48-3.917 0 0-2.862.863 1.32-6.079 6.157-10.219 7.572-3.64 7.975-2.375z"/>
        <path fill="#ffd42a" d="M209.32 157.663c-.36 7.819-3.563 14.581-6.82 18.711-2.05 2.601-4.24 4.368-6.327 5.385-2.491 1.213-4.824 1.365-6.886.776-4.707-1.38-8.725-1.693-9.075-1.723-1.145-.1-1.746-.088-1.76-.032l-.167 1.142c.006-.022.49.1 1.735.48 1.12.342 3.438 1.075 6.179 2.029 1.709.594 3.858 1.373 5.58 2.09.742.31 1.431.62 1.953.898a5.9 5.9 0 0 1 .614.366c.078.055.145.108.2.158a.69.69 0 0 1 .122.143.574.574 0 0 0-.095-.167 1.534 1.534 0 0 0-.18-.191 4.596 4.596 0 0 0-.586-.437c-.503-.326-1.178-.685-1.906-1.041-1.672-.817-3.822-1.712-5.49-2.385a336.31 336.31 0 0 0-4.639-1.819c1.61.097 4.258.367 7.34 1.134 2.248.578 4.72.33 7.277-.99 2.136-1.103 4.331-2.962 6.356-5.626 3.218-4.235 6.323-11.079 6.575-18.9z"/>
        <path fill="#ffd42a" d="M190.831 185.886c-2.624 1-5.38 1.857-8.14 2.447-3.843.822-7.046.99-9.675.775-5.992-.439-11.527-2.153-13.117-2.645-1.578-.488-3.076-1.002-3.957-1.303-.936-.32-1.884-.652-1.896-.6a.036 1.143 13.195 0 0-.222 1.1c3.7 3.473 8.021 6.305 12.626 7.715l-.089-.015c2.68.818 5.449 1.01 5.442.778-.003-.106-2.574-.32-5.264-1.31a.064.006 14.698 0 0-.089-.014c-3.635-1.327-7.054-3.448-10.158-6.059.87.307 1.944.65 3.224 1.009 1.648.462 7.309 1.995 13.45 2.239 2.726.086 5.995-.25 9.824-1.258a53.04 53.04 0 0 0 8.041-2.859z"/>
        <path fill="#ffd42a" d="M121.99 185.088c-.066.21 5.454 1.93 7.696 2.583 2.906.845 5.255 1.443 7.23 1.881 1.38.307 3.027.636 5.047.982 1.843.316 5.046.824 8.606 1.183 3.183.32 8.382.705 12.992.15-4.633.344-9.767-.255-12.924-.711-3.516-.508-6.685-1.156-8.498-1.54-1.71-.361-3.904-.854-4.993-1.096-1.477-.327-4.809-1.053-7.26-1.616-2.262-.521-7.869-1.9-7.895-1.816zM211.088 168.436a4.837 4.837 0 0 0-.362-.453 1.683 1.683 0 0 0-.306-.273.58.58 0 0 0-.298-.106.45.45 0 0 0-.294.1.825.825 0 0 0-.211.262c-.06.11-.107.235-.142.356-.088.3-.131.649-.155.908a10.383 10.383 0 0 0-.002 1.998c.042.378.114.807.15.999l1.04-.19c.001.01-.1-.62-.151-.948-.078-.494-.195-.808-.32-1.865a5.767 5.767 0 0 1-.045-.813c.003-.105.012-.203.027-.288a.726.726 0 0 1 .053-.179.168.168 0 0 1 .078-.087c.038-.018.101-.026.196.004a1.1 1.1 0 0 1 .324.183c.12.092.259.219.418.392zM208.49 173.06c-.402-.152-.709-.192-.952-.164a1.018 1.018 0 0 0-.66.35c-.186.217-.286.495-.342.74-.076.326-.09.669-.09.92-.002.9.15 1.566.217 1.813.09.33.216.681.28.846l.985-.384c.005.015-.172-.494-.261-.763.022.066-.4-1.104-.508-1.586-.05-.221-.1-.506-.102-.784-.002-.206.02-.427.104-.61a.714.714 0 0 1 .155-.22.727.727 0 0 1 .259-.158c.199-.072.492-.097.915 0zM204.526 180.983c-.205-.3-.39-.495-.556-.625a1.067 1.067 0 0 0-.565-.24c-.22-.02-.416.044-.57.125-.204.106-.37.258-.482.374a3.03 3.03 0 0 0-.646.964c-.078.2-.138.433-.164.55l1.032.229c-.004.021.079-.285.124-.44.068-.235.047-.406.245-.894.045-.113.112-.25.203-.362a.599.599 0 0 1 .28-.205c.102-.032.253-.042.457.044.174.072.39.216.642.48zM197.657 187.898c-.962-.457-1.56-.598-1.947-.634a1.862 1.862 0 0 0-.648.04c-.227.059-.39.16-.504.254a1.457 1.457 0 0 0-.334.398c-.089.155-.128.284-.144.416a1.61 1.61 0 0 0 .02.467l1.037-.203c.01.047-.008-.12-.011-.192-.003-.093-.01-.089-.027-.199a.546.546 0 0 1 .008-.224.452.452 0 0 1 .164-.236.972.972 0 0 1 .447-.18c.33-.056.92-.052 1.938.293zM187.263 192.345c-.5-.213-.91-.328-1.248-.383a2.78 2.78 0 0 0-.981-.004 2.032 2.032 0 0 0-.77.316 2.347 2.347 0 0 0-.558.542 2.896 2.896 0 0 0-.55 1.244c-.039.244-.042.51-.033.655l1.055-.062c.002.035.006-.299.018-.468 0-.006.014-.658.137-1.018.047-.138.129-.323.275-.496.108-.129.272-.276.523-.385.204-.088.486-.16.87-.157.326.002.74.058 1.263.216zM175.107 194.023c-.637-.252-1.149-.38-1.564-.435a3.168 3.168 0 0 0-1.182.04c-.382.093-.667.26-.88.433-.282.23-.47.5-.59.707a3.61 3.61 0 0 0-.484 1.57c-.016.305.01.63.035.802l1.046-.156c.005.033-.03-.4-.033-.62-.001-.046-.046-.815.092-1.305a1.83 1.83 0 0 1 .305-.626c.124-.161.316-.345.617-.481.246-.11.588-.2 1.062-.197.403.002.919.071 1.576.268zM157.62 197.324c-.556-.481-1.022-.78-1.411-.968-.46-.22-.844-.299-1.166-.3a1.93 1.93 0 0 0-.975.254c-.334.19-.581.45-.746.653-.322.398-.53.833-.609 1.01-.102.229-.17.43-.226.649-.086.34-.137.714-.152.91l1.054.082c-.002.028.068-.496.12-.76.013-.067.155-.968.413-1.498.092-.187.233-.424.446-.616a1.39 1.39 0 0 1 .701-.344c.26-.046.614-.04 1.076.116.393.132.88.376 1.476.812zM146.259 197.062c-.689-.64-1.297-.824-1.765-.86-.712-.055-1.305.232-1.586.386-.647.352-.988.722-1.107.867a3.981 3.981 0 0 0-.37.54l.925.512c-.014.027.172-.264.277-.415-.016.024.398-.628.695-.922.181-.18.587-.538 1.175-.626.38-.057.988-.025 1.756.518zM151.322 186.006a1.264 1.264 0 0 1-.464.5 1.63 1.63 0 0 1-.61.21c-.548.084-1.14-.04-1.437-.114-.435-.109-1.141-.38-1.132-.376-.24-.082-.732-.238-.711-.23l-.369.99c.191.071.532.183.82.238.164.032.636.098 1.313.091.326-.003 1.029-.025 1.612-.27.216-.09.437-.22.62-.41.156-.16.285-.365.358-.63zM172.726 184.377c-.052-.015-.208.228-.365.424-.289.363-.565.602-.848.768-.496.293-1.048.343-1.333.357-.163.009-.934.075-2.2-.535l-.46.952c1.49.718 2.435.657 2.739.629a2.642 2.642 0 0 0 1.711-.85 3.13 3.13 0 0 0 .694-1.161c.086-.266.13-.565.062-.584zM174.317 183.82c.144.08.393.198.61.258.125.036.484.11 1.028.115.267.002.831-.01 1.378-.24a2.399 2.399 0 0 0 1.137-.987 2 2 0 0 1-1.23.657c-.509.068-.96-.066-1.173-.14-.325-.113-.785-.373-.78-.37a13.07 13.07 0 0 0-.456-.216zM192.06 179.68a.24.24 0 0 1 .032.152.114.114 0 0 1-.054.077.405.405 0 0 1-.102.044 1.247 1.247 0 0 1-.163.036c-.145.024-.32.035-.485.038a8.304 8.304 0 0 1-.617-.01c-.748-.04-.92-.09-1.23-.095-.064 0-.638 0-.575.001l-.013 1.057c.108.001.382.004.612-.01.247-.014.588-.065 1.279-.239.174-.044.416-.108.643-.188.169-.06.362-.139.516-.238a.93.93 0 0 0 .18-.145.426.426 0 0 0 .102-.17.246.246 0 0 0-.012-.173.393.393 0 0 0-.113-.136zM197.345 174.867a.377.377 0 0 1 .06.168.314.314 0 0 1-.023.143.717.717 0 0 1-.203.252c-.25.215-.636.397-.852.49-.59.253-.736.264-.971.372-.154.07-.435.207-.425.202l.431.965c.089-.04.299-.136.473-.234.18-.102.434-.282.89-.707.172-.16.555-.525.73-.886a.802.802 0 0 0 .094-.44.445.445 0 0 0-.066-.185.507.507 0 0 0-.138-.14zM200.956 171.3c.043.22.011.387-.045.51a.798.798 0 0 1-.276.318 1.633 1.633 0 0 1-.422.203 3.101 3.101 0 0 1-.516.118c-.621.092-.761.045-1.01.072a45.84 45.84 0 0 0-.45.05l.074 1.054a4.73 4.73 0 0 0 .537-.068c.185-.037.533-.136 1.082-.428a3.83 3.83 0 0 0 .537-.339c.141-.109.299-.252.418-.428.098-.144.175-.316.19-.513a1.051 1.051 0 0 0-.119-.549zM204.216 167.117c.105.245.116.437.089.581a.677.677 0 0 1-.207.37 1.293 1.293 0 0 1-.382.24c-.177.075-.36.123-.504.152-.621.13-.777.087-1.037.125-.17.025-.493.071-.475.07l.106 1.051c.115-.011.355-.042.568-.092.183-.042.567-.163 1.11-.489.147-.088.347-.218.526-.383.134-.123.278-.285.372-.482a.97.97 0 0 0 .09-.56 1.313 1.313 0 0 0-.256-.583z"/>
        <path fill="url(#linearGradient1924)" stroke="#231f20" stroke-linejoin="round" stroke-miterlimit="10" d="M201.329 157.577c4.189 13.16-1.004 10.789-1.004 10.789.834 7.003-2.414 4.958-2.414 4.958-1.172 14.541-5.086 4.609-5.086 4.609-2.836 16.555-7.039 6.141-7.039 6.141-6.254 12.163-10.375 5.625-10.375 5.625-9.209 8.288-12 2.25-12 2.25-15.041 8.621-17.125 2.375-17.125 2.375-7.916 4.038-10.375-1.25-10.375-1.25-7.911-4.628-18.122-10.118-18.828-12.452-.706-2.334 9.203-2.688 23.453 1.327 0 0-.084-3 6.084-1.25 0 0 5.332-.917 13.75.66 0 0-1.88-4.33 6.455-2.373 0 0-3-1.993 13.514-2.75 0 0-2.76-.491 5.947-3.287 0 0-4.582-.375 2.959-3.669 0 0-2.754-2.25 3.291-3.706 0 0-2.707.817 1.25-5.75 5.824-9.667 7.162-3.444 7.543-2.247z" transform="matrix(1.05712 0 0 1.05712 -1.78 -5.85)"/>
    </g>
</svg>
