<svg xmlns="http://www.w3.org/2000/svg" xmlns:xlink="http://www.w3.org/1999/xlink" cursor="default" viewBox="0 0 256 256">
    <defs>
        <linearGradient id="linearGradient1258">
            <stop offset="0" stop-color="#f95"/>
            <stop offset="1" stop-color="#ffb380"/>
        </linearGradient>
        <linearGradient id="linearGradient1260" x1="98.563" x2="91.66" y1="159.738" y2="154.368" gradientUnits="userSpaceOnUse" xlink:href="#linearGradient1258"/>
    </defs>
    <path fill="url(#linearGradient1260)" fill-rule="evenodd" stroke="#000" stroke-width="1.21" d="M32.14 243.768c48.289-59.6 106.813-135.349 142.835-175.423 16.49-18.345 41.995-22.958 52.964-36.77 9.804-12.347-6.36-40.953-24.85-17.586-58.706 74.19-116.342 148.808-178.88 221.456-5.31 6.169 3.421 13.89 7.932 8.323z"/>
    <ellipse cx="213.255" cy="39.474" fill="#ff7f2a" stroke="#000" stroke-linecap="round" stroke-linejoin="round" stroke-width=".605" rx="12.2" ry="11.933" transform="rotate(-4.697)"/>
    <path fill="#ff8080" fill-rule="evenodd" stroke="#000" stroke-linejoin="bevel" stroke-width=".605" d="M218.155 33.11l-11.283-19.169 20.667 7.906-22.158 5.869 15.13-16.793z"/>
    <path fill="#28170b" fill-rule="evenodd" d="M79.232 174.554l71.607-90.202 50.848-65.035-51.406 64.594zM87.238 169.374l33.977-42.496 25.936-34.325-26.974 33.516zM166.697 74.705c11.855-15.789 24.75-23.449 35.922-28.964a341.31 341.31 0 0 1 5.53-2.654c3.44-1.767 6.66-3.418 9.543-5.162 4.368-2.641 7.942-5.481 10.377-9.244-2.613 3.613-6.304 6.238-10.723 8.642-2.932 1.594-6.194 3.095-9.704 4.727a381.541 381.541 0 0 0-5.472 2.811c-11.126 5.862-23.866 13.837-35.473 29.844z"/>
    <path fill="#28170b" fill-rule="evenodd" d="M129.344 119.311c12.723-14.803 23.944-31.327 36.267-46.542 6.535-8.069 13.372-15.76 20.907-22.647 6.459-6.326 13.513-12.066 21.45-16.9-8.184 4.422-15.572 9.802-22.43 15.845-7.49 7.07-14.246 14.927-20.664 23.116-12.11 15.452-23.046 32.123-35.53 47.128zM40.8 223.73l14.341-16.62 36.709-46.286-37.739 45.451zM176.466 54.732l17.514-19.714 8.184-10.835-9.274 9.918zM86.624 163.482l-17.192 20.05-44.496 55.17 45.393-54.435z"/>
    <path fill="#ac9393" fill-rule="evenodd" stroke="#000" stroke-width=".605" d="M170.796 71.54L169.7 95.364c-.171 1.179.523 3.045 1.024.251l.972-23.907z"/>
    <path fill="#f55" fill-rule="evenodd" stroke="#000" stroke-width=".999" d="M161.1 63.018l11.459 11.609c2.176-.565 3.322-2.077 3.99-4.028-4.033-3.97-8.26-7.784-12.825-11.328-1.464.724-2.19 2.104-2.623 3.747z"/>
    <path fill="#f55" fill-rule="evenodd" stroke="#000" stroke-width=".999" d="M164.155 58.93a82.87 82.87 0 0 0 12.634 11.165c2.538-.286 3.356-2.085 4.286-3.785L166.968 55.25c-1.406.579-2.565 1.499-2.813 3.68z"/>
    <path fill="#f55" fill-rule="evenodd" stroke="#000" stroke-width=".999" d="M167.052 55.24c.794-1.499 1.225-3.12 3.427-4.14 4.901 3.532 9.397 7.66 13.5 12.366-.07 1.62-.973 2.466-2.622 2.617-5.241-2.998-10.125-6.461-14.305-10.843z"/>
    <path fill="#ffd5d5" fill-rule="evenodd" d="M172.85 55.247c1.501 1.216 3.417 2.9 5.331 4.443.612.493 1.223.97 1.82 1.415.294.301.585.593.87.871.788.767 1.544 1.443 2.213 1.941-.792-.29-1.7-.772-2.66-1.367-.347-.214-.7-.443-1.057-.683a69.303 69.303 0 0 1-1.687-1.617c-1.759-1.74-3.502-3.606-4.83-5.003zM168.86 58.71c1.502 1.216 3.418 2.9 5.331 4.443.612.493 1.223.97 1.82 1.415.294.301.585.593.87.87.788.768 1.544 1.444 2.214 1.942-.793-.29-1.701-.772-2.661-1.367-.347-.214-.7-.443-1.057-.683a69.285 69.285 0 0 1-1.686-1.617c-1.76-1.74-3.502-3.606-4.831-5.003zM164.968 62.348c1.502 1.216 3.418 2.9 5.332 4.443a59.44 59.44 0 0 0 1.82 1.414c.294.302.585.593.87.872.788.767 1.544 1.443 2.213 1.941-.793-.29-1.7-.772-2.66-1.367-.347-.214-.7-.443-1.057-.683a69.305 69.305 0 0 1-1.687-1.617c-1.76-1.74-3.502-3.607-4.83-5.003z"/>
    <g fill-rule="evenodd">
        <path fill="#faa" stroke="#000" stroke-width=".3025" d="M172.31 109.761l-1.642-3.004 1.596 3.6c.02 1.463-.641 3.646-1.474 5.81l-.905-1.478.243 3.12c-.896 2.126-1.835 4.041-2.297 4.986l-.64-2.938.25 3.42c-.92 1.724-4.507 5.305-5.274 10.517-2.53-4.12-.636-12.526-.956-15.227l2.798-2.723-2.928 2.284a17.042 17.042 0 0 1-.325-4.197l.947-1.01-.838-.283c.188-1.563.582-3.13 1.157-4.739l2.988-3.078-2.88 2.497c1.43-3.746 3.128-6.572 6.326-8.058 0 0 .177.054.323.076 3.234 4.286 3.978 8.22 3.53 10.425z"/>
        <path fill-opacity=".178" d="M168.435 99.32l-1.033 13.866c-1.802 6.822-5.969 14.723-5.299 20.418-2.552-4.373-.595-9.96-.88-14.943l2.748-2.797-2.878 2.222a14.8 14.8 0 0 1-.355-4.103l.976-1.039-.853-.297c.192-1.464.576-3.009 1.149-4.7l2.909-3.039-2.755 2.308c1.492-3.843 3.32-6.44 6.27-7.896z"/>
        <path fill="#4d4d4d" stroke="#000" stroke-width=".3025" d="M162.834 126.814c1.335-4.121 3.66-8.803 4.692-13.359 1.466-6.47 0-11.329 2.6-21.987-2.933 10.282-1.764 15.588-3.009 22.01-.86 4.445-3.427 9.512-4.283 13.336z"/>
    </g>
    <g fill-rule="evenodd">
        <path fill="#faa" stroke="#000" stroke-width=".28435" d="M171.253 106.297l1.042-3.167-.926 3.753c.173 1.453 1.032 3.545 2.038 5.598l.598-1.57.193 3.124c1.056 2.008 2.124 3.803 2.648 4.688l.178-2.987.226 3.42c1.025 1.608 4.617 4.756 5.961 9.84 1.673-4.371-1.067-12.499-1.138-15.214l-2.793-2.386 2.85 1.935a19.338 19.338 0 0 0-.26-4.2l-.957-.896.695-.374c-.367-1.53-.914-3.04-1.624-4.571l-3.004-2.717 2.835 2.152c-1.732-3.555-3.58-6.168-6.562-7.281 0 0-.147.073-.271.111-2.266 4.618-2.405 8.605-1.73 10.742z"/>
        <path fill="#4d4d4d" stroke="#000" stroke-width=".28435" d="M181.726 122.147c-1.699-3.939-4.333-8.321-5.823-12.725-2.116-6.254-1.468-11.24-5.115-21.52 3.89 9.87 3.557 15.265 5.475 21.498 1.326 4.311 4.221 9.05 5.463 12.747z"/>
        <path fill-opacity=".176" d="M171.253 106.297l1.042-3.167-.926 3.753c.173 1.453 1.032 3.545 2.038 5.598l.598-1.57.193 3.124c1.056 2.008 2.124 3.803 2.648 4.688l.178-2.987.226 3.42c1.025 1.608 4.617 4.756 5.961 9.84.903-3.105-4.668-12.561-7.61-21.026-2.107-6.06-1.632-9.608-2.348-12.526 0 0-.147.073-.271.111-2.266 4.618-2.405 8.605-1.73 10.742z"/>
    </g>
    <g fill-rule="evenodd">
        <path fill="#ff8080" stroke="#000" stroke-width=".25" d="M179.623 112.59l-1.923-2.075 2.007 2.563c.312 1.168.224 3.05-.006 4.954l-1.025-1.002.826 2.45c-.287 1.885-.653 3.61-.831 4.46l-1.108-2.224.892 2.69c-.388 1.568-2.538 5.162-2.098 9.494-2.86-2.79-3.044-9.91-3.846-12.009l1.691-2.747-1.885 2.422a14.085 14.085 0 0 1-1.109-3.297l.555-1.001-.73-.057c-.164-1.29-.165-2.626-.03-4.031l1.771-3.071-1.803 2.583c.388-3.29 1.178-5.9 3.44-7.737 0 0 .153.007.274-.005 3.459 2.781 4.85 5.783 4.938 7.64z" transform="matrix(1.33548 .00657 -.00652 1.32642 -61.48 -36.423)"/>
        <path fill-opacity=".178" d="M170.751 104.007l2.567 15.028c-.123 7.733-2.496 17.237-.27 23.122-3.892-3.982-3.275-10.442-4.9-15.67l2.204-3.7-2.497 3.121a16.15 16.15 0 0 1-1.466-4.273l.77-1.362-.992-.092c-.183-1.608-.18-3.353-.014-5.304l2.312-3.999-2.34 3.18c.58-4.482 1.851-7.727 4.626-10.051z"/>
        <path fill="#4d4d4d" stroke="#000" stroke-width=".25" d="M175.48 128.172c.236-3.573 1.152-7.794 1.057-11.654-.134-5.48-2.29-9.078-2.364-18.144-.27 8.832 1.74 12.847 2.042 18.246.208 3.735-.824 8.315-.736 11.552z" transform="matrix(1.33548 .00657 -.00652 1.32642 -61.48 -36.423)"/>
    </g>
    <path fill="#6c5353" fill-rule="evenodd" stroke="#000" stroke-width=".554" d="M170.706 87.371s-1.57.718-1.698 1.645c-.12.869 1.175.76 1.175.76 1.414-1.73.836-1.409.523-2.405z"/>
    <path fill="#6c5353" fill-rule="evenodd" stroke="#000" stroke-width=".605" d="M171.146 96.586s.844-1.627.33-2.561c-.482-.876-1.502.02-1.502.02-.034 2.465.24 1.814 1.172 2.541z"/>
    <path fill="#6c5353" fill-rule="evenodd" stroke="#000" stroke-width=".431" d="M170.216 90.982s-1.09.626-1.179 1.434c-.084.757.815.661.815.661.982-1.508.58-1.228.364-2.095z"/>
    <path fill="#c8b7b7" fill-rule="evenodd" stroke="#000" stroke-width=".504" d="M170.908 90.063s1.052-1.168.84-2.005c-.198-.784-1.23-.234-1.23-.234-.578 1.978-.21 1.499.39 2.239z"/>
    <path fill="#c8b7b7" fill-rule="evenodd" stroke="#000" stroke-width=".38" d="M170.547 92.618s.782-.894.625-1.535c-.147-.6-.915-.18-.915-.18-.43 1.515-.155 1.149.29 1.715z"/>
    <path fill="#c8b7b7" fill-rule="evenodd" stroke="#000" stroke-width=".443" d="M169.802 94.273s-.543 1.54-.285 2.417c.242.82.857-.032.857-.032.112-2.323-.068-1.707-.572-2.385z"/>
</svg>
