<svg cursor="default" version="1.1" viewBox="0 0 256 256" xmlns="http://www.w3.org/2000/svg">
 <g fill-rule="evenodd" stroke="#000">
  <path d="m77.753 43.951-2.659-15.39c13.718-11.26 25.858-8.8 48.424-6.63l-3.788 15.91z" fill="#ee3b3b"/>
  <path d="m78.908 50.142c-0.744-3.225-0.955-4.832-1.277-7.053 19.554-12.348 32.469-6.88 41.91-5.184l-1.137 8.586z" fill="#f38237"/>
  <path d="m80.264 56.422-1.4-6.418c18.995-8.87 27.589-4.768 38.972-4.144l0.505 7.828c-12.734 2.045-25.508 5.163-38.077 2.734z" fill="#efca3a"/>
  <path d="m80.776 62.512c-0.079-3.126-0.6-6.33-0.6-6.33 13.14-3.28 25.591-3.81 37.723-3.062l-0.378 7.892c-13.28 3.553-25.127 3.78-36.745 1.5z" fill="#5fd35f"/>
  <path d="m80.918 69.14c-0.051-3.234-0.084-4.35-0.126-6.518 14.221-2.983 24.09-2.3 36.95-1.673l0.063 7.197c-19.644 8.082-28.462 2.912-36.887 0.995z" fill="#5fd6f5"/>
  <path d="m80.891 68.982-0.148 7.182c11.63 6.694 26.843 5.874 37.235 0.11l-0.079-8.065c-12.205 3.908-24.65 1.135-37.008 0.773z" fill="#6e29d6"/>
  <path d="m80.713 75.849c13.278 3.706 27.179 2.799 37.297 0.426-0.016 1.952 0.047 3.115-0.805 6.787-4.689 2.99-21.414 9.461-37.008 0.099z" fill="#afafe9"/>
  <path d="m80.205 82.905-0.534 6.262c12.475 13.123 28.897 5.81 36.56 1.187l1.1-7.56c-10.802 3.94-24.303 4.552-37.126 0.111z" fill="#ee3b3b"/>
  <path d="m93.593 189.55c-0.651-4.287-1.238-5.373-2.169-8.07-0.989 0.514 20.285-0.64 23.965-1.144-0.067 2.064-0.241 7.1-0.4 10.713-10.863 2.066-15.223 2.686-21.396-1.499z" fill="#6e29d6"/>
  <path d="m94.677 198.39-1.084-8.614c2.548 1.816 19.096 0.671 21.45 0.045-0.072 2.996-0.352 6.681-0.241 10.287z" fill="#afafe9"/>
  <path d="m95.676 206.6-1.042-8.68c6.513 0.09 9.442-0.372 14.984 0.263 1.7 0.195 4.01 0.776 5.188 1.725l0.126 8.145z" fill="#ee3b3b"/>
  <path d="m95.795 216.07c0.298-2.448 0.326-5.04-0.126-9.66 0 0 3.558-2.726 5.645-2.87 2.239-0.156 5.715-0.38 7.242-0.283 2.641 0.168 6.365 4.75 6.365 4.75 0.129 2.63 0.194 4.816 8e-3 8.48z" fill="#f38237"/>
  <path d="m94.035 225.13c0.78-3.156 1.494-6.562 1.77-9.298 0 0 0.563-3.791 9.404-4.37 8.795-0.576 9.723 5.114 9.723 5.114-0.226 2.138-0.342 4.593-0.212 7.74z" fill="#efca3a"/>
  <path d="m91.962 230.65c0.873-2.2 1.672-4.294 2.262-6.115 11.691-13.58 20.072-3.374 20.456-0.821 0.084 2.028 0.168 4.076 0.252 6.187z" fill="#5fd35f"/>
  <path d="m86.9 237.38c0.188-1.13 3.53-3.736 5.272-7.166 14.886-10.843 18.056-4.485 22.76-0.38 0.331 2.8 0.793 4.555 1.2 6.756-9.755 0.38-30.127 6.037-29.232 0.79z" fill="#5fd6f5"/>
  <path d="m85.661 243.61c-0.01741-1.6979 0.289-2.283 1.239-6.193 0.538-0.154 16.197-4.627 21.403-4.672 6.615-0.057 7.892 4.23 7.892 4.23l0.315 5.809c-11.368 3.1682-20.691 0.88457-30.849 0.826z" fill="#6e29d6"/>
  <path d="m91.484 181.62-2.737-8.5c9.765 4.34 21.72-0.5 27.132-3.076l-0.505 10.67c-4.315 0.792-17.127 3.578-23.89 0.906z" fill="#5fd6f5"/>
  <path d="m78.968 97.482c0.196-3.658 0.625-6.172 0.736-8.501 9.533 5.971 24.326 3.856 36.554 1.073l-0.773 7.327c-6.696 5.841-25.305 13.19-36.517 0.1z" fill="#f38237"/>
  <path d="m78.188 105.21c-0.021-3.199 0.502-5.308 0.757-7.955 12.016 6.688 28.299 3.08 36.555 0-0.16 1.972-0.423 3.868-0.268 6.077-3.416 6.923-28.185 17.864-37.044 1.878z" fill="#efca3a"/>
  <path d="m78.062 113.86 0.126-8.776c9.547 8.47 29.237 2.885 37.06-1.515l0.315 7.576c-5.206 8.187-26.402 18.412-37.501 2.715z" fill="#5fd35f"/>
  <path d="m78.346 122.32c-0.255-2.646-0.493-5.313-0.253-8.618 4.517 3.95 22.485 6.303 37.463-2.557 0.2 2.476 0.672 4.443 0.713 7.501-5.29 9.583-22.705 18.745-37.923 3.674z" fill="#5fd6f5"/>
  <path d="m78.958 130.35-0.67-8.62c7.681 5.121 18.453 6.214 37.97-3.332 0.071 2.915 0.33 4.546 0.3 8.413-4.469 8.627-22.843 18.686-37.6 3.539z" fill="#6e29d6"/>
  <path d="m80.085 139.86c-0.59-3.345-1.072-5.909-1.258-10.235 11.746 11.128 34.37-0.352 37.754-3.08 0.128 2.937 0.258 3.876 0.387 8.817-6.043 13.275-26.962 15.326-36.883 4.497z" fill="#afafe9"/>
  <path d="m81.742 147.99c-0.952-3.898-1.182-5.486-1.664-8.193 13.42 6.581 31.107 0.912 36.934-4.452 0.011 1.454 0.089 3.958-0.023 6.921-8.203 15.343-23.416 13.738-35.246 5.724z" fill="#ee3b3b"/>
  <path d="m83.747 156.37c-1.028-3.646-1.602-6.342-2.29-9.634 8.95 7.54 30.13 1.077 35.495-4.91l-0.348 9.514c-4.374 6.517-15.657 15.832-32.857 5.03z" fill="#f38237"/>
  <path d="m86.421 165.7c-1.05-3.096-1.912-6.603-2.804-9.857 15.74 8.583 31.972-4.1 33.02-5.114-0.127 4.291-0.253 6.912-0.38 10.228-3.082 6.552-18.254 11.61-29.836 4.743z" fill="#efca3a"/>
  <path d="m88.984 173.83-2.77-8.776c3.941 3.293 20.614 3.968 30.107-4.956l-0.442 10.26c-13.41 7.324-19.919 5.138-26.895 3.472z" fill="#5fd35f"/>
  <path d="m110.92 22.453 1.926-14.726c11.079-13.777 42.511 1.39 41.668 9.785l-2.02 13.89z" fill="#ee3b3b"/>
  <path d="m110.39 29.697c0.153-2.443 0.113-4.92 0.588-7.31 0 0 0.246-6.06 12.481-4.938 24.246 2.223 29.01 13.89 29.01 13.89l-0.868 6.298z" fill="#f38237"/>
  <path d="m109.88 38.031 0.537-8.823s1.75-4.468 13.542-3.362c20.34 1.907 27.78 10.733 27.78 10.733l-0.821 6.503z" fill="#efca3a"/>
  <path d="m110.78 46.885c-0.719-3.037-0.936-6.185-0.899-9.39 0 0 2.933-2.76 6.188-2.684 30.5 0.715 34.913 7.892 34.913 7.892l-0.505 6.25z" fill="#5fd35f"/>
  <path d="m112.03 54.699c-0.426-1.42-1.263-7.892-1.263-7.892s0.323-2.594 5.493-2.652c30.216-0.336 34.171 4.31 34.171 4.31-0.065 1.84-0.102 3.007-0.205 5.744z" fill="#5fd6f5"/>
  <path d="m114.11 63.285-2.146-8.839c13.479-1.167 25.874-0.785 38.196-0.3 0.21 2.21 0.042 2.778 1.058 6.66-5.856 1.307-23.168 7.563-37.108 2.479z" fill="#6e29d6"/>
  <path d="m116.05 71.382c-1.005-3.18-1.42-5.298-1.973-8.381 0 0 7.16 0.443 11.617 0.19 8.015-0.457 25.49-2.542 25.49-2.542 0.773 2.32 1.034 4.64 2.32 6.96-9.858 5.815-21.426 12.317-37.454 3.773z" fill="#afafe9"/>
  <path d="m117.91 78.386-2.028-7.556c5.435 1.443 8.833 0.522 13.195 0.22 8.19-0.565 24.37-3.535 24.37-3.535l3.188 5.871c-12.778 3.563-25.256 13.57-38.725 5z" fill="#ee3b3b"/>
  <path d="m119.89 86.2-2.053-8.08c2.929 0.626 9.287 1.241 18.919-0.62 3.82-0.738 14.339-2.682 19.83-4.155 1.214 2.338 1.943 3.898 2.951 7.075-13.627 8.164-26.985 12.196-39.647 5.78z" fill="#f38237"/>
  <path d="m121.43 93.254c-0.916-2.67-1.07-4.767-1.563-7.12 5.647 1.685 12.294 1.948 21.027-0.759 7.047-2.173 12.48-3.448 18.571-5.09l2.701 7.836c0 3.967-16.91 13.102-25.814 12.96-5.222-0.085-14.922-7.827-14.922-7.827z" fill="#efca3a"/>
  <path d="m123.32 102.62c-0.676-4.852-1.257-6.558-1.933-9.389 0 0 6.1 5.517 26.92-0.312 6.11-1.711 13.928-4.599 13.928-4.599l2.188 7.01c1.543 6.755-24.963 21.09-41.103 7.29z" fill="#5fd35f"/>
  <path d="m124.59 109.73c-0.881-4.183-0.954-4.598-1.336-7.323 5.765 4.44 39.762-0.294 41.029-7.296 0.043 0.168 1.509 2.644 2.031 7.924-1.676 11.308-24.226 17.571-41.724 6.695z" fill="#5fd6f5"/>
  <path d="m126.65 118.46-2.01-8.571c22.227 6.264 40.032-2.899 41.653-7.009l0.49 9.42c-2.464 11.287-22.603 17.877-40.133 6.16z" fill="#6e29d6"/>
  <path d="m128.88 127.34-2.277-9.153c16.982 6.737 36.903 0.877 40.134-6.294l-0.134 9.821c-6.72 11.65-24.073 18.214-37.723 5.625z" fill="#afafe9"/>
  <path d="m130.88 135.41c-1.234-4.24-1.316-5.54-2.081-8.559 5.863 2.916 23.078 7.951 37.745-5.714-0.111 3.02 0.04 5.31-0.312 9.107-12.011 18.634-26.777 9.62-35.352 5.166z" fill="#ee3b3b"/>
  <path d="m133.12 143.59c-0.818-2.667-2.544-9.283-2.544-9.283 12.847 6.566 27.073 3.499 35.744-4.648-0.16 3.373-0.161 6.134-0.547 10.37-9.813 11.375-20.697 11.822-32.653 3.561z" fill="#f38237"/>
  <path d="m135.13 152.69c-0.97-4.672-1.49-6.418-2.23-9.59 12.654 7.904 27.063 2.031 32.903-3.572l-0.58 10.268c-3.4 7.556-15.419 15.674-30.093 2.894z" fill="#efca3a"/>
  <path d="m136.83 161.09-1.785-8.84c13.704 8.093 27.782 0.467 30.223-3.08l-1.027 10.446c-10.12 9.347-19.14 8.78-27.41 1.473z" fill="#5fd35f"/>
  <path d="m138.26 169.62-1.455-8.71c9.535 5.207 22.367 3.191 27.437-1.87-0.34 3.419-0.447 6.639-1.16 10.38-3.24 7.265-14.808 9.989-24.822 0.2z" fill="#5fd6f5"/>
  <path d="m139.2 179.21c-0.319-5.36-0.667-7.157-1.093-10.49 2.615 3.605 21.332 6.532 25.29-1.318-0.56 3.951-0.956 7.833-1.027 12.031-8.514 6.907-15.567 0.92-23.17-0.223z" fill="#6e29d6"/>
  <path d="m139.12 186.83c-0.06-4.86 0.069-5.51 0.01-8.148 0 0 8.877 1.982 13.459 1.875 5.39-0.127 9.821-1.384 9.821-1.384 0.143 4.804 0.283 6.949 0.93 11.357-0.183 0.491-24.1-1.966-24.22-3.7z" fill="#afafe9"/>
  <path d="m138.97 193.99 0.134-7.679c5.906 0.878 11.25 2.029 18.572 1.875 3.202-0.067 3.75 1.459 5.625 2.188 0.907 4.286 1.951 8.565 2.053 12.857 0.029 1.208-0.111 1.987-1.562 4.598-16.125-7.415-26.28-14.491-24.822-13.839z" fill="#ee3b3b"/>
  <path d="m137.23 203.57c1.69-5.328 1.71-6.656 1.741-9.844 0 0 11.008 1.798 18.26 2.277 7.946 0.525 6.684 9.722 6.785 11.429-0.784 1.588-1.68 3.762-2.5 7.232z" fill="#f38237"/>
  <path d="m134.33 212.76c1.161-4.285 2.991-9.53 2.991-9.53s8.163 0.021 13.393 1.472c10.06 2.792 10.938 9.42 10.938 9.42-0.714 2.887-0.531 4.28-2.567 8.95z" fill="#efca3a"/>
  <path d="m130.74 221.02c1.3-2.67 2.637-5.909 3.593-8.415 10.753-2.599 23.62 5.42 24.777 10.402-1.03 2.03-2.187 4.366-2.634 6.696z" fill="#5fd35f"/>
  <path d="m125.81 228.78c1.665-2.999 3.374-5.32 5.04-8.002 0 0 1.813-0.687 2.767-0.76 3.418-0.257 19.82 5.007 22.813 9.867-0.484 3.025 0.21 6.217-1.348 9.165z" fill="#5fd6f5"/>
  <path d="m153.39 243.61a39.21 39.21 0 0 0 1.893-4.91c-2.43-3.692-21.727-10.457-26.31-10.962-0.925-0.102-3.17 1.027-3.17 1.027-1.183 1.838-2.128 2.975-3.56 5.478 8.019 6.737 20.592 6.51 31.148 9.367z" fill="#6e29d6"/>
 </g>
 <g fill-rule="evenodd" stroke="#000">
  <path d="m122.19 234.3c-1.3295 2.0715-2.5071 3.5161-3.8002 5.439 6.8717 6.3954 18.956 7.9975 28.748 8.3143 4.8453-1.5852 5.4827-2.3717 6.2137-4.3343-0.493-1.867-1.377-3.644-7.903-4.107-8.797-0.235-13.615-2.833-19.762-5.46-1.632-0.697-2.331 0.099-3.497 0.148z" fill="#afafe9"/>
  <path d="m118.43 239.68c-1.0038 1.4876-2.0757 3.2573-3.3414 5.8292 0.461 1.913-0.096 4.15 5.67 4.375 2.82 1.594 5.982 2.13 9.643 1.116 2.164 0.294 4.374 0.548 7.857-0.312 4.0858-1.1638 6.9881-2.006 9.079-2.6973 0.54934-3.1601-6.1471-2.6929-12.563-3.838-6.8959-1.2308-13.907-3.5912-16.345-4.4728z" fill="#ee3b3b"/>
  <path d="m116.39 241.05c0.0694 1.5581 0.82616 4.6618 1.2404 6.4692-4.8452 2.9381-26.466 0.0216-31.768-1.3224-0.31028-0.948-0.23051-3.1907-0.12936-3.8398 6.3208-1.8694 12.685-1.6015 18.659-1.425 7.641 0.525 6.214-1.854 11.998 0.118z" fill="#afafe9"/>
 </g>
 <path d="m117.61 247.43c0.67646 2.8866 0.60593 5.6796-4.1225 7.0244-9.315 2.258-17.36-3.385-26.321-5.934-0.55052-0.11156-1.0492-1.5058-1.3048-2.3264-0.17206-1.3301 10.428 0.43834 19.52 1.1414 2.2118 0.17102 4.2087-1.0696 5.9906-1.2944 2.681-0.33826 5.2982 1.9292 6.2373 1.389z" fill="#ee3b3b" fill-rule="evenodd" stroke="#000"/>
</svg>
