<svg xmlns="http://www.w3.org/2000/svg" cursor="default" viewBox="0 0 256 256">
    <g fill-rule="evenodd" stroke="#000">
        <path fill="#ee3b3b" d="M77.753 43.951l-2.659-15.39c13.718-11.26 25.858-8.8 48.424-6.63l-3.788 15.91z"/>
        <path fill="#f38237" d="M78.908 50.142c-.744-3.225-.955-4.832-1.277-7.053 19.554-12.348 32.469-6.88 41.91-5.184l-1.137 8.586z"/>
        <path fill="#efca3a" d="M80.264 56.422l-1.4-6.418c18.995-8.87 27.589-4.768 38.972-4.144l.505 7.828c-12.734 2.045-25.508 5.163-38.077 2.734z"/>
        <path fill="#5fd35f" d="M80.776 62.512c-.079-3.126-.6-6.33-.6-6.33 13.14-3.28 25.591-3.81 37.723-3.062l-.378 7.892c-13.28 3.553-25.127 3.78-36.745 1.5z"/>
        <path fill="#5fd6f5" d="M80.918 69.14c-.051-3.234-.084-4.35-.126-6.518 14.221-2.983 24.09-2.3 36.95-1.673l.063 7.197c-19.644 8.082-28.462 2.912-36.887.995z"/>
        <path fill="#6e29d6" d="M80.891 68.982l-.148 7.182c11.63 6.694 26.843 5.874 37.235.11l-.079-8.065c-12.205 3.908-24.65 1.135-37.008.773z"/>
        <path fill="#afafe9" d="M80.713 75.849c13.278 3.706 27.179 2.799 37.297.426-.016 1.952.047 3.115-.805 6.787-4.689 2.99-21.414 9.461-37.008.099z"/>
        <path fill="#ee3b3b" d="M80.205 82.905l-.534 6.262c12.475 13.123 28.897 5.81 36.56 1.187l1.1-7.56c-10.802 3.94-24.303 4.552-37.126.111z"/>
        <path fill="#6e29d6" d="M93.593 189.554c-.651-4.287-1.238-5.373-2.169-8.07-.989.514 20.285-.64 23.965-1.144-.067 2.064-.241 7.1-.4 10.713-10.863 2.066-15.223 2.686-21.396-1.499z"/>
        <path fill="#afafe9" d="M94.677 198.391l-1.084-8.614c2.548 1.816 19.096.671 21.45.045-.072 2.996-.352 6.681-.241 10.287z"/>
        <path fill="#ee3b3b" d="M95.676 206.6l-1.042-8.68c6.513.09 9.442-.372 14.984.263 1.7.195 4.01.776 5.188 1.725l.126 8.145z"/>
        <path fill="#f38237" d="M95.795 216.067c.298-2.448.326-5.04-.126-9.66 0 0 3.558-2.726 5.645-2.87 2.239-.156 5.715-.38 7.242-.283 2.641.168 6.365 4.75 6.365 4.75.129 2.63.194 4.816.008 8.48z"/>
        <path fill="#efca3a" d="M94.035 225.13c.78-3.156 1.494-6.562 1.77-9.298 0 0 .563-3.791 9.404-4.37 8.795-.576 9.723 5.114 9.723 5.114-.226 2.138-.342 4.593-.212 7.74z"/>
        <path fill="#5fd35f" d="M91.962 230.646c.873-2.2 1.672-4.294 2.262-6.115 11.691-13.58 20.072-3.374 20.456-.821.084 2.028.168 4.076.252 6.187z"/>
        <path fill="#5fd6f5" d="M86.9 237.379c.188-1.13 3.53-3.736 5.272-7.166 14.886-10.843 18.056-4.485 22.76-.38.331 2.8.793 4.555 1.2 6.756-9.755.38-30.127 6.037-29.232.79z"/>
        <path fill="#6e29d6" d="M85.67 243.976c-.153-1.664.28-2.656 1.23-6.566.538-.154 16.197-4.627 21.403-4.672 6.615-.057 7.892 4.23 7.892 4.23l.315 5.809z"/>
        <path fill="#5fd6f5" d="M91.484 181.621l-2.737-8.5c9.765 4.34 21.72-.5 27.132-3.076l-.505 10.67c-4.315.792-17.127 3.578-23.89.906z"/>
        <path fill="#f38237" d="M78.968 97.482c.196-3.658.625-6.172.736-8.501 9.533 5.971 24.326 3.856 36.554 1.073l-.773 7.327c-6.696 5.841-25.305 13.19-36.517.1z"/>
        <path fill="#efca3a" d="M78.188 105.206c-.021-3.199.502-5.308.757-7.955 12.016 6.688 28.299 3.08 36.555 0-.16 1.972-.423 3.868-.268 6.077-3.416 6.923-28.185 17.864-37.044 1.878z"/>
        <path fill="#5fd35f" d="M78.062 113.856l.126-8.776c9.547 8.47 29.237 2.885 37.06-1.515l.315 7.576c-5.206 8.187-26.402 18.412-37.501 2.715z"/>
        <path fill="#5fd6f5" d="M78.346 122.316c-.255-2.646-.493-5.313-.253-8.618 4.517 3.95 22.485 6.303 37.463-2.557.2 2.476.672 4.443.713 7.501-5.29 9.583-22.705 18.745-37.923 3.674z"/>
        <path fill="#6e29d6" d="M78.958 130.353l-.67-8.62c7.681 5.121 18.453 6.214 37.97-3.332.071 2.915.33 4.546.3 8.413-4.469 8.627-22.843 18.686-37.6 3.539z"/>
        <path fill="#afafe9" d="M80.085 139.86c-.59-3.345-1.072-5.909-1.258-10.235 11.746 11.128 34.37-.352 37.754-3.08.128 2.937.258 3.876.387 8.817-6.043 13.275-26.962 15.326-36.883 4.497z"/>
        <path fill="#ee3b3b" d="M81.742 147.986c-.952-3.898-1.182-5.486-1.664-8.193 13.42 6.581 31.107.912 36.934-4.452.011 1.454.089 3.958-.023 6.921-8.203 15.343-23.416 13.738-35.246 5.724z"/>
        <path fill="#f38237" d="M83.747 156.368c-1.028-3.646-1.602-6.342-2.29-9.634 8.95 7.54 30.13 1.077 35.495-4.91l-.348 9.514c-4.374 6.517-15.657 15.832-32.857 5.03z"/>
        <path fill="#efca3a" d="M86.421 165.697c-1.05-3.096-1.912-6.603-2.804-9.857 15.74 8.583 31.972-4.1 33.02-5.114-.127 4.291-.253 6.912-.38 10.228-3.082 6.552-18.254 11.61-29.836 4.743z"/>
        <path fill="#5fd35f" d="M88.984 173.834l-2.77-8.776c3.941 3.293 20.614 3.968 30.107-4.956l-.442 10.26c-13.41 7.324-19.919 5.138-26.895 3.472z"/>
        <path fill="#ee3b3b" d="M110.923 22.453l1.926-14.726c11.079-13.777 42.511 1.39 41.668 9.785l-2.02 13.89z"/>
        <path fill="#f38237" d="M110.386 29.697c.153-2.443.113-4.92.588-7.31 0 0 .246-6.06 12.481-4.938 24.246 2.223 29.01 13.89 29.01 13.89l-.868 6.298z"/>
        <path fill="#efca3a" d="M109.881 38.031l.537-8.823s1.75-4.468 13.542-3.362c20.34 1.907 27.78 10.733 27.78 10.733l-.821 6.503z"/>
        <path fill="#5fd35f" d="M110.78 46.885c-.719-3.037-.936-6.185-.899-9.39 0 0 2.933-2.76 6.188-2.684 30.5.715 34.913 7.892 34.913 7.892l-.505 6.25z"/>
        <path fill="#5fd6f5" d="M112.028 54.699c-.426-1.42-1.263-7.892-1.263-7.892s.323-2.594 5.493-2.652c30.216-.336 34.171 4.31 34.171 4.31-.065 1.84-.102 3.007-.205 5.744z"/>
        <path fill="#6e29d6" d="M114.111 63.285l-2.146-8.839c13.479-1.167 25.874-.785 38.196-.3.21 2.21.042 2.778 1.058 6.66-5.856 1.307-23.168 7.563-37.108 2.479z"/>
        <path fill="#afafe9" d="M116.053 71.382c-1.005-3.18-1.42-5.298-1.973-8.381 0 0 7.16.443 11.617.19 8.015-.457 25.49-2.542 25.49-2.542.773 2.32 1.034 4.64 2.32 6.96-9.858 5.815-21.426 12.317-37.454 3.773z"/>
        <path fill="#ee3b3b" d="M117.907 78.386l-2.028-7.556c5.435 1.443 8.833.522 13.195.22 8.19-.565 24.37-3.535 24.37-3.535l3.188 5.871c-12.778 3.563-25.256 13.57-38.725 5z"/>
        <path fill="#f38237" d="M119.888 86.2l-2.053-8.08c2.929.626 9.287 1.241 18.919-.62 3.82-.738 14.339-2.682 19.83-4.155 1.214 2.338 1.943 3.898 2.951 7.075-13.627 8.164-26.985 12.196-39.647 5.78z"/>
        <path fill="#efca3a" d="M121.429 93.254c-.916-2.67-1.07-4.767-1.563-7.12 5.647 1.685 12.294 1.948 21.027-.759 7.047-2.173 12.48-3.448 18.571-5.09l2.701 7.836c0 3.967-16.91 13.102-25.814 12.96-5.222-.085-14.922-7.827-14.922-7.827z"/>
        <path fill="#5fd35f" d="M123.317 102.621c-.676-4.852-1.257-6.558-1.933-9.389 0 0 6.1 5.517 26.92-.312 6.11-1.711 13.928-4.599 13.928-4.599l2.188 7.01c1.543 6.755-24.963 21.09-41.103 7.29z"/>
        <path fill="#5fd6f5" d="M124.593 109.726c-.881-4.183-.954-4.598-1.336-7.323 5.765 4.44 39.762-.294 41.029-7.296.043.168 1.509 2.644 2.031 7.924-1.676 11.308-24.226 17.571-41.724 6.695z"/>
        <path fill="#6e29d6" d="M126.652 118.455l-2.01-8.571c22.227 6.264 40.032-2.899 41.653-7.009l.49 9.42c-2.464 11.287-22.603 17.877-40.133 6.16z"/>
        <path fill="#afafe9" d="M128.884 127.34l-2.277-9.153c16.982 6.737 36.903.877 40.134-6.294l-.134 9.821c-6.72 11.65-24.073 18.214-37.723 5.625z"/>
        <path fill="#ee3b3b" d="M130.876 135.407c-1.234-4.24-1.316-5.54-2.081-8.559 5.863 2.916 23.078 7.951 37.745-5.714-.111 3.02.04 5.31-.312 9.107-12.011 18.634-26.777 9.62-35.352 5.166z"/>
        <path fill="#f38237" d="M133.117 143.592c-.818-2.667-2.544-9.283-2.544-9.283 12.847 6.566 27.073 3.499 35.744-4.648-.16 3.373-.161 6.134-.547 10.37-9.813 11.375-20.697 11.822-32.653 3.561z"/>
        <path fill="#efca3a" d="M135.131 152.689c-.97-4.672-1.49-6.418-2.23-9.59 12.654 7.904 27.063 2.031 32.903-3.572l-.58 10.268c-3.4 7.556-15.419 15.674-30.093 2.894z"/>
        <path fill="#5fd35f" d="M136.83 161.09l-1.785-8.84c13.704 8.093 27.782.467 30.223-3.08l-1.027 10.446c-10.12 9.347-19.14 8.78-27.41 1.473z"/>
        <path fill="#5fd6f5" d="M138.259 169.616l-1.455-8.71c9.535 5.207 22.367 3.191 27.437-1.87-.34 3.419-.447 6.639-1.16 10.38-3.24 7.265-14.808 9.989-24.822.2z"/>
        <path fill="#6e29d6" d="M139.196 179.214c-.319-5.36-.667-7.157-1.093-10.49 2.615 3.605 21.332 6.532 25.29-1.318-.56 3.951-.956 7.833-1.027 12.031-8.514 6.907-15.567.92-23.17-.223z"/>
        <path fill="#afafe9" d="M139.12 186.827c-.06-4.86.069-5.51.01-8.148 0 0 8.877 1.982 13.459 1.875 5.39-.127 9.821-1.384 9.821-1.384.143 4.804.283 6.949.93 11.357-.183.491-24.1-1.966-24.22-3.7z"/>
        <path fill="#ee3b3b" d="M138.973 193.991l.134-7.679c5.906.878 11.25 2.029 18.572 1.875 3.202-.067 3.75 1.459 5.625 2.188.907 4.286 1.951 8.565 2.053 12.857.029 1.208-.111 1.987-1.562 4.598-16.125-7.415-26.28-14.491-24.822-13.839z"/>
        <path fill="#f38237" d="M137.232 203.567c1.69-5.328 1.71-6.656 1.741-9.844 0 0 11.008 1.798 18.26 2.277 7.946.525 6.684 9.722 6.785 11.429-.784 1.588-1.68 3.762-2.5 7.232z"/>
        <path fill="#efca3a" d="M134.33 212.763c1.161-4.285 2.991-9.53 2.991-9.53s8.163.021 13.393 1.472c10.06 2.792 10.938 9.42 10.938 9.42-.714 2.887-.531 4.28-2.567 8.95z"/>
        <path fill="#5fd35f" d="M130.737 221.022c1.3-2.67 2.637-5.909 3.593-8.415 10.753-2.599 23.62 5.42 24.777 10.402-1.03 2.03-2.187 4.366-2.634 6.696z"/>
        <path fill="#5fd6f5" d="M125.809 228.779c1.665-2.999 3.374-5.32 5.04-8.002 0 0 1.813-.687 2.767-.76 3.418-.257 19.82 5.007 22.813 9.867-.484 3.025.21 6.217-1.348 9.165z"/>
        <path fill="#6e29d6" d="M153.39 243.613a39.21 39.21 0 0 0 1.893-4.91c-2.43-3.692-21.727-10.457-26.31-10.962-.925-.102-3.17 1.027-3.17 1.027-1.183 1.838-2.128 2.975-3.56 5.478 8.019 6.737 20.592 6.51 31.148 9.367z"/>
        <path fill="#ee3b3b" d="M122.188 234.304c-2.349 3.66-4.224 5.363-7.099 11.205.461 1.913-.096 4.15 5.67 4.375 2.82 1.594 5.982 2.13 9.643 1.116 2.164.294 4.374.548 7.857-.312 13.193-3.758 14.046-4.162 15.09-6.965-.493-1.867-1.377-3.644-7.903-4.107-8.797-.235-13.615-2.833-19.762-5.46-1.632-.697-2.331.099-3.497.148z"/>
        <path fill="#ee3b3b" d="M116.416 242.303c.179 4.02 4.708 9.979-2.936 12.153-9.315 2.258-17.36-3.385-26.321-5.934-1.283-.26-1.732-3.436-1.502-4.912 6.25-3.427 12.776-1.835 18.761-1.425 7.641.525 6.214-1.854 11.998.118z"/>
    </g>
</svg>
