<svg cursor="default" version="1.1" viewBox="0 0 256 256" xmlns="http://www.w3.org/2000/svg" xmlns:xlink="http://www.w3.org/1999/xlink">
 <defs>
  <linearGradient id="innoGrad1">
   <stop stop-color="#f55" offset="0"/>
   <stop stop-color="#ff8080" offset=".31587"/>
   <stop stop-color="#ff8080" offset=".66084"/>
   <stop stop-color="#f55" offset="1"/>
  </linearGradient>
  <linearGradient id="innoGrad2">
   <stop stop-color="#f55" offset="0"/>
   <stop stop-color="#ff8080" offset="1"/>
  </linearGradient>
  <linearGradient id="linearGradient920" x1="96.454" x2="94.587" y1="196.17" y2="203.85" gradientUnits="userSpaceOnUse" xlink:href="#innoGrad2"/>
  <linearGradient id="linearGradient928" x1="97.892" x2="101.15" y1="183.99" y2="169.8" gradientUnits="userSpaceOnUse" xlink:href="#innoGrad1"/>
  <linearGradient id="linearGradient940" x1="106.04" x2="109.3" y1="155.9" y2="144.01" gradientUnits="userSpaceOnUse" xlink:href="#innoGrad1"/>
  <linearGradient id="linearGradient948" x1="115.53" x2="122.63" y1="138.84" y2="119.18" gradientUnits="userSpaceOnUse" xlink:href="#innoGrad1"/>
  <linearGradient id="linearGradient956" x1="128.19" x2="138.16" y1="110.94" y2="93.198" gradientUnits="userSpaceOnUse" xlink:href="#innoGrad1"/>
  <linearGradient id="linearGradient964" x1="141.23" x2="147.56" y1="80.542" y2="67.214" gradientUnits="userSpaceOnUse" xlink:href="#innoGrad1"/>
  <linearGradient id="linearGradient982" x1="152.23" x2="154.86" y1="187.91" y2="196.16" gradientUnits="userSpaceOnUse" xlink:href="#innoGrad2"/>
  <linearGradient id="linearGradient1000" x1="149.42" x2="147.39" y1="182.92" y2="166.92" gradientUnits="userSpaceOnUse" xlink:href="#innoGrad1"/>
  <linearGradient id="linearGradient1018" x1="143.46" x2="137.76" y1="156.75" y2="141.42" gradientUnits="userSpaceOnUse" xlink:href="#innoGrad1"/>
  <linearGradient id="linearGradient1026" x1="141.83" x2="138.98" y1="134.1" y2="124.47" gradientUnits="userSpaceOnUse" xlink:href="#innoGrad2"/>
  <linearGradient id="linearGradient1034" x1="111.73" x2="109.56" y1="103.86" y2="89.898" gradientUnits="userSpaceOnUse" xlink:href="#innoGrad1"/>
  <linearGradient id="linearGradient1042" x1="109.42" x2="101.15" y1="82.305" y2="63.458" gradientUnits="userSpaceOnUse" xlink:href="#innoGrad1"/>
 </defs>
 <g fill-rule="evenodd" stroke="#000" stroke-width=".75">
  <path d="m171.68 178.74c-0.032-2.608-0.2-3.386 2.543-4.515 1.49-0.763 5.513 0.02 9.3-1.683 3.499-1.573 6.803-5.62 7.548-6.694 1.504-2.645 0.413-4.709-2.768-5.682-1.406 0.152-6.222 1.831-8.978 1.89-8.186 1.005-9.415 2.077-13.705 0.088z" fill="#666"/>
  <path d="m72.633 37.975c3.788 9.925 7.492 19.85 11.248 29.774 18.726-3.22 24.285-5.709 32.088-12.132a3995.1 3995.1 0 0 1-15.215-33.234c-6.87-16.31-30.657-8.43-28.12 15.592z" fill="#666"/>
  <path d="m130.67 199.8c-2.387-6.036-2.778-11.633-3.527-18.26 0 0 41.771-2.21 46.607-1.517 2.421 2.746 1.129 5.31 2.991 8.84-2.5 3.57-38.885 9.698-46.071 10.937zm38.348-36.652c-1.703-1.302-8.213-6.62-10.625-13.214l-32.947 11.339c-0.654 5.15-1.304 10.3 0.179 14.464zm-17.232-24.286c0.118-1.369-2.685-7.444-3.215-7.232-19.137-2.694-19.424 3.673-28.839 5.536l7.5 17.143z" fill="#ff8080"/>
  <path d="m148.57 131.62c-1.531-4.788-3.718-9.388-6.428-13.84 0 0-14.448 17.397-14.091 17.486 6.4115-1.4687 14.56-1.9679 20.519-3.646z" fill="url(#linearGradient1026)"/>
  <path d="m104.46 118.68c-0.487-0.313-5.303-9.43-5.893-13.84 6.25-3.53 12.5-1.542 18.75-0.982z" fill="#ff8080"/>
  <path d="m98.66 105.55c-2.076-3.526-3.79-7.123-4.196-10.983l29.465-9.464 3.125 20.268c-9.461 0.049-18.126-2.61-28.393 0.179z" fill="url(#linearGradient1034)"/>
  <path d="m94.196 94.571c-1.44-2.145-1.855-4.48-2.5-6.785 9.27-6.938 19.548-12.597 31.34-16.34l7.5 15.893zm-7.367-19.576c-2.485-4.872-4.73-9.798-5.716-15.003l30.405-13.724c2.87 5.254 6.05 10.263 7.626 16.812-11.302 4.255-21.685 9.847-32.315 11.915z" fill="#ff8080"/>
 </g>
 <g fill="#666" fill-rule="evenodd" stroke="#000" stroke-width=".75">
  <path d="m168.37 198.88s5.587 8.483 11.823 14.544c4.162 4.046 9.294 8.27 12.557 11.206 2.803 2.523 8.853 7.748 8.853 7.748 1.813 1.52 6.476-2.949 4.547-5.445-5.15-6.666-10.552-13.182-15.72-19.65-4.085-5.112-6.847-7.813-11.01-13-4.015-0.289-8.778-1.733-11.05 4.597z"/>
  <path d="m130.87 198.52s0.20209 6.3097-0.33891 12.923c-0.362 4.413-0.769 8.265-0.914 11.617-0.125 2.879-0.073 8.645-0.073 8.645-0.015 1.81 4.848 2.6 5.38 0.269 1.418-6.228 2.454-12.405 3.748-18.552 1.023-4.858 1.922-9.302 4.583-13.876-1.767-2.589-7.5841-2.5567-12.385-1.0257z"/>
  <path d="m156.72 202.33s4.137 6.13 8.499 12.667c2.911 4.363 6.613 9.366 8.934 12.58 1.993 2.762 12.755 17.32 12.755 17.32 2.227 3.128 9.296-0.01 6.369-5.208-1.652-2.933-4.413-8.018-7.457-12.901-3.828-6.141-8.005-12.2-9.888-15.923-2.672-5.282-7.008-10.422-9.736-15.785-3.394-1.041-6.5 2.15-9.476 7.25z"/>
  <path d="m76.6 175.86c-0.093 0.083-4.42 4.047-7.377 3.828-3.182-0.503-6.488-0.867-8.659-2.509-2.252-2.045-1.857-4.346 0.863-6.26 1.383-0.295 3.027-0.153 4.802 0.208 6.365-4.497 6.915-6.45 10.372-9.675z"/>
  <path d="m78.594 200.81s-5.617 8.463-11.874 14.503c-4.176 4.031-9.323 8.236-12.596 11.162-2.812 2.513-8.88 7.717-8.88 7.717-1.818 1.513-6.465-2.972-4.528-5.46 5.174-6.649 10.598-13.146 15.79-19.596 4.102-5.098 6.873-7.79 11.055-12.962 4.015-0.274 8.783-1.702 11.033 4.636z"/>
  <path d="m91.67 204.19s-4.285 8.479-8.139 15.328c-2.572 4.571-5.884 9.84-7.955 13.221-1.778 2.905-11.405 18.237-11.405 18.237-1.984 3.288-9.271 0.694-6.745-4.711 1.424-3.049 3.792-8.33 6.457-13.429 3.351-6.413 7.057-12.77 8.653-16.626 2.264-5.47 6.198-10.923 8.512-16.478 3.305-1.295 7.269-0.403 10.623 4.458z"/>
  <path d="m103.1 206.89s-2.0638 7.7301-4.2948 13.978c-1.49 4.17-3.395 7.848-4.643 10.962-1.072 2.675-7.532 17.455-7.532 17.455-1.188 3.023-7.995 2.181-6.685-2.66 1.667-6.165 6.122-21.075 7.476-27.21 1.07-4.847 4.342-9.87 5.44-14.797 2.677-1.631 6.4958-1.1021 10.239 2.2719zm15.087-9.4559s1.02 6.78 2.048 13.335c0.687 4.374 1.377 8.186 1.77 11.517 0.337 2.862 0.71 8.617 0.71 8.617 0.149 1.804-4.643 2.95-5.344 0.665-1.875-6.106-3.364-12.19-5.109-18.225-1.378-4.769-2.603-9.134-5.594-13.499 1.57-2.712 6.618-3.583 11.519-2.41z"/>
  <path d="m181.28 39.936c-4.803 7.432-8.555 18.136-11.95 27.454-1.663 4.567-3.24 8.8-4.814 12.154-10.7-9.365-12.363-10.927-31.027-25.53 8.091-15.393 15.663-29.436 16.291-31.797 10.998-14.488 33.525-2.975 31.5 17.719z"/>
  <path d="m146.17 207.78s2.435 6.19 5.417 12.118c1.99 3.956 4.332 7.371 5.953 10.309 1.393 2.523 9.618 16.398 9.618 16.398 1.55 2.854 8.202 1.183 6.308-3.46-2.412-5.915-8.663-20.164-10.76-26.086-1.657-4.68-5.521-9.264-7.217-14.018-2.856-1.29-6.018 0.932-9.32 4.74z"/>
 </g>
 <g fill-rule="evenodd" stroke="#000" stroke-width=".75">
  <path d="m130.98 199.76c5.95 0.945 11.395 3.152 15.45 8.834 6.18-7.014 21.096-9.434 33.67-14.003l-3.76-6.125c-11.802 2.309-47.743 0.355-45.36 11.294z" fill="url(#linearGradient982)"/>
  <path d="m65.72 196.75c-1.84 2.514 28.739 10.839 37.355 11.441 0.83567-1.0043 2.5778-2.4672 6.4001-2.4154 4.187-2.0016 8.6428-4.9776 9.5953-8.3381 0.135-3.688-44.604-13.784-48.428-7.283-1.184 2.884-3.268 4.418-4.922 6.596z" fill="url(#linearGradient920)"/>
  <path d="m70.714 189.84c1.873-4.493 2.704-8.466 3.661-12.5 16.06 3.192 31.096 5.77 45.982 8.258-0.3 4.263 0.169 8.5-1.875 12.545-14.651-1.143-28.969-1.86-47.768-8.304z" fill="#ff8080"/>
  <path d="m74.375 177.07c1.537-5.407 1.38-10.164 1.429-15l44.642 10.179c0.069 4.554 0.468 9.107 0 13.66-17.86-1.573-35.441-3.3-46.071-8.839z" fill="url(#linearGradient928)"/>
  <path d="m75.625 161.8c0.033-1.311 5-8.473 8.482-11.875l38.84 6.25c-4.067 9.14-1.832 13.715-2.68 18.035-17.84-2.986-35.21-6.154-44.642-12.41z" fill="#ff8080"/>
  <path d="m158.32 150.34c-1.33-4.31-3.43-8.391-6.445-12.197l-31.517 12.17c2.456 2.852 4.4 6.369 5.178 11.401z" fill="url(#linearGradient1018)"/>
  <path d="m83.84 150.64c2.553-4.511 4.618-9.206 8.035-13.393l35.982 11.071c-1.7 5.097-1.764 4.095-5 8.483-13.446-3.848-31.614-2.09-39.018-6.161z" fill="url(#linearGradient940)"/>
  <path d="m91.518 137.43c2.767-5.449 5.569-10.794 8.571-15.536 11.359 5.0262 22.744 9.9962 34.152 14.91-2.302 4.703-3.8825 9.2736-7.0322 13.079-12.112-3.661-25.619-6.0708-35.691-12.453z" fill="#ff8080"/>
  <path d="m133.66 137.07c1.147 0.152 8.34-13.014 7.858-13.303-10.974-5.455-22.067-10.79-34.91-14.375-2.822 4.45-9.322 15.042-10.983 20.536 9.926 6.095 24.75 8.483 38.036 7.142z" fill="url(#linearGradient948)"/>
  <path d="m106.34 109.75c1.862-5.215 4.305-10.139 6.874-15l31.95 22.45c-1.675 4.505-3.267 6.932-5.75 11.205-12.61-4.332-24.055-11.512-33.074-18.655z" fill="#ff8080"/>
  <path d="m113.04 95.375c1.208-4.224 3.193-7.93 5.089-11.696 12.354 2.752 25.065 6.161 38.84 11.517-3.103 6.134-8.41 17.967-12.426 23.986-12.949-4.69-23.446-15.157-31.503-23.807z" fill="url(#linearGradient956)"/>
  <path d="m118.35 83.679c1.196-3.85 5.013-10.284 7.133-14.248 10.538 3.034 15.411 6.22 36.35 15.23-1.72 4.452-3.484 9.014-6.274 13.11-10.046-0.154-23.124-5.863-37.209-14.092z" fill="#ff8080"/>
  <path d="m125.81 69.535c2.052-4.707 2.338-6.71 5.08-11.303 10.907 4.327 13.962 3.219 35.894 15.179-1.46 4.42-3.112 8.839-5.982 13.259-12.78-2.773-23.84-8.315-34.992-17.135z" fill="url(#linearGradient964)"/>
  <path d="m131.07 58.321c-0.183-0.736 6.828-13.663 7.054-13.482 9.228 4.937 18.156 12.1 34.554 13.572-2.26 5.626-3.768 12.006-6.46 17.201-12.534-4.313-27.072-7.182-35.148-17.29z" fill="#ff8080"/>
  <path d="m91.518 87.607c-3.011-4.612-4.031-9.424-5.447-14.196l32.679-12.322c1.68 2.712 2.612 6.014 4.464 10.179-9.302 6.794-19.869 12.239-31.696 16.34z" fill="url(#linearGradient1042)"/>
  <path d="m173.75 180.11c-6.104-6.795-3.99-11.269-4.866-17.009l-43.616 11.92c-0.283 0.966 1.377 7.356 2.41 7.678 3.609-6e-3 46.072-2.589 46.072-2.589z" fill="url(#linearGradient1000)"/>
 </g>
</svg>
