<svg cursor="default" version="1.1" viewBox="0 0 256 256" xmlns="http://www.w3.org/2000/svg" xmlns:xlink="http://www.w3.org/1999/xlink">
 <g transform="matrix(.10542 -.02931 .02931 .10542 141.5 98.442)" fill="#ffe680" stroke="#ffe680" stroke-linecap="round" stroke-linejoin="round" stroke-width="6">
  <path d="m41.229 53.012c4.3597 0.80455-3.8994 13.148-8.6102 23.661-4.7107-10.513-12.97-22.856-8.6102-23.661 4.8362-0.89248 4.8548 3.8974 8.6202 3.8974s3.764-4.7899 8.6001-3.8974z"/>
  <path d="m5.8187 65.937c2.1124-3.8977 11.3 7.7716 19.842 15.5-11.454 1.2315-25.746 5.272-25.164 0.8771 0.64567-4.8753 5.2069-3.4128 6.3705-6.9939 1.1636-3.5811-3.3924-5.0599-1.0491-9.3836z"/>
  <path d="m7.5667 103.21c-3.0542-3.2135 10.883-8.345 20.873-14.081-2.3683 11.274-2.9419 26.115-6.9418 24.203-4.4371-2.1206-1.6368-6.0067-4.683-8.2199-3.0463-2.2132-5.8605 1.6627-9.2485-1.9019z"/>
  <path d="m43.629 112.98c-4 1.9117-4.5735-12.929-6.9418-24.203 9.9904 5.7362 23.928 10.868 20.873 14.081-3.388 3.5647-6.2185-0.29951-9.2647 1.9137-3.0463 2.2132-0.22965 6.0875-4.6668 8.2081z"/>
  <path d="m64.703 82.212c0.58205 4.3949-13.71 0.3544-25.164-0.8771 8.5427-7.7288 17.73-19.398 19.842-15.5 2.3433 4.3237-2.2065 5.8216-1.0429 9.4027 1.1636 3.5811 5.7186 2.0996 6.3643 6.9748z"/>
 </g>
 <g transform="matrix(.10542 -.02931 .02931 .10542 140.18 107.27)" fill="#ffe680" stroke="#ffe680" stroke-linecap="round" stroke-linejoin="round" stroke-width="6">
  <path d="m41.229 53.012c4.3597 0.80455-3.8994 13.148-8.6102 23.661-4.7107-10.513-12.97-22.856-8.6102-23.661 4.8362-0.89248 4.8548 3.8974 8.6202 3.8974s3.764-4.7899 8.6001-3.8974z"/>
  <path d="m5.8187 65.937c2.1124-3.8977 11.3 7.7716 19.842 15.5-11.454 1.2315-25.746 5.272-25.164 0.8771 0.64567-4.8753 5.2069-3.4128 6.3705-6.9939 1.1636-3.5811-3.3924-5.0599-1.0491-9.3836z"/>
  <path d="m7.5667 103.21c-3.0542-3.2135 10.883-8.345 20.873-14.081-2.3683 11.274-2.9419 26.115-6.9418 24.203-4.4371-2.1206-1.6368-6.0067-4.683-8.2199-3.0463-2.2132-5.8605 1.6627-9.2485-1.9019z"/>
  <path d="m43.629 112.98c-4 1.9117-4.5735-12.929-6.9418-24.203 9.9904 5.7362 23.928 10.868 20.873 14.081-3.388 3.5647-6.2185-0.29951-9.2647 1.9137-3.0463 2.2132-0.22965 6.0875-4.6668 8.2081z"/>
  <path d="m64.703 82.212c0.58205 4.3949-13.71 0.3544-25.164-0.8771 8.5427-7.7288 17.73-19.398 19.842-15.5 2.3433 4.3237-2.2065 5.8216-1.0429 9.4027 1.1636 3.5811 5.7186 2.0996 6.3643 6.9748z"/>
 </g>
 <g transform="matrix(.10542 -.02931 .02931 .10542 132.86 101.98)" fill="#ffe680" stroke="#ffe680" stroke-linecap="round" stroke-linejoin="round" stroke-width="6">
  <path d="m41.229 53.012c4.3597 0.80455-3.8994 13.148-8.6102 23.661-4.7107-10.513-12.97-22.856-8.6102-23.661 4.8362-0.89248 4.8548 3.8974 8.6202 3.8974s3.764-4.7899 8.6001-3.8974z"/>
  <path d="m5.8187 65.937c2.1124-3.8977 11.3 7.7716 19.842 15.5-11.454 1.2315-25.746 5.272-25.164 0.8771 0.64567-4.8753 5.2069-3.4128 6.3705-6.9939 1.1636-3.5811-3.3924-5.0599-1.0491-9.3836z"/>
  <path d="m7.5667 103.21c-3.0542-3.2135 10.883-8.345 20.873-14.081-2.3683 11.274-2.9419 26.115-6.9418 24.203-4.4371-2.1206-1.6368-6.0067-4.683-8.2199-3.0463-2.2132-5.8605 1.6627-9.2485-1.9019z"/>
  <path d="m43.629 112.98c-4 1.9117-4.5735-12.929-6.9418-24.203 9.9904 5.7362 23.928 10.868 20.873 14.081-3.388 3.5647-6.2185-0.29951-9.2647 1.9137-3.0463 2.2132-0.22965 6.0875-4.6668 8.2081z"/>
  <path d="m64.703 82.212c0.58205 4.3949-13.71 0.3544-25.164-0.8771 8.5427-7.7288 17.73-19.398 19.842-15.5 2.3433 4.3237-2.2065 5.8216-1.0429 9.4027 1.1636 3.5811 5.7186 2.0996 6.3643 6.9748z"/>
 </g>
 <g transform="matrix(.10542 -.02931 .02931 .10542 132.05 110.79)" fill="#ffe680" stroke="#ffe680" stroke-linecap="round" stroke-linejoin="round" stroke-width="6">
  <path d="m41.229 53.012c4.3597 0.80455-3.8994 13.148-8.6102 23.661-4.7107-10.513-12.97-22.856-8.6102-23.661 4.8362-0.89248 4.8548 3.8974 8.6202 3.8974s3.764-4.7899 8.6001-3.8974z"/>
  <path d="m5.8187 65.937c2.1124-3.8977 11.3 7.7716 19.842 15.5-11.454 1.2315-25.746 5.272-25.164 0.8771 0.64567-4.8753 5.2069-3.4128 6.3705-6.9939 1.1636-3.5811-3.3924-5.0599-1.0491-9.3836z"/>
  <path d="m7.5667 103.21c-3.0542-3.2135 10.883-8.345 20.873-14.081-2.3683 11.274-2.9419 26.115-6.9418 24.203-4.4371-2.1206-1.6368-6.0067-4.683-8.2199-3.0463-2.2132-5.8605 1.6627-9.2485-1.9019z"/>
  <path d="m43.629 112.98c-4 1.9117-4.5735-12.929-6.9418-24.203 9.9904 5.7362 23.928 10.868 20.873 14.081-3.388 3.5647-6.2185-0.29951-9.2647 1.9137-3.0463 2.2132-0.22965 6.0875-4.6668 8.2081z"/>
  <path d="m64.703 82.212c0.58205 4.3949-13.71 0.3544-25.164-0.8771 8.5427-7.7288 17.73-19.398 19.842-15.5 2.3433 4.3237-2.2065 5.8216-1.0429 9.4027 1.1636 3.5811 5.7186 2.0996 6.3643 6.9748z"/>
 </g>
 <g transform="matrix(.10542 -.02931 .02931 .10542 135.01 118.58)" fill="#ffe680" stroke="#ffe680" stroke-linecap="round" stroke-linejoin="round" stroke-width="6">
  <path d="m41.229 53.012c4.3597 0.80455-3.8994 13.148-8.6102 23.661-4.7107-10.513-12.97-22.856-8.6102-23.661 4.8362-0.89248 4.8548 3.8974 8.6202 3.8974s3.764-4.7899 8.6001-3.8974z"/>
  <path d="m5.8187 65.937c2.1124-3.8977 11.3 7.7716 19.842 15.5-11.454 1.2315-25.746 5.272-25.164 0.8771 0.64567-4.8753 5.2069-3.4128 6.3705-6.9939 1.1636-3.5811-3.3924-5.0599-1.0491-9.3836z"/>
  <path d="m7.5667 103.21c-3.0542-3.2135 10.883-8.345 20.873-14.081-2.3683 11.274-2.9419 26.115-6.9418 24.203-4.4371-2.1206-1.6368-6.0067-4.683-8.2199-3.0463-2.2132-5.8605 1.6627-9.2485-1.9019z"/>
  <path d="m43.629 112.98c-4 1.9117-4.5735-12.929-6.9418-24.203 9.9904 5.7362 23.928 10.868 20.873 14.081-3.388 3.5647-6.2185-0.29951-9.2647 1.9137-3.0463 2.2132-0.22965 6.0875-4.6668 8.2081z"/>
  <path d="m64.703 82.212c0.58205 4.3949-13.71 0.3544-25.164-0.8771 8.5427-7.7288 17.73-19.398 19.842-15.5 2.3433 4.3237-2.2065 5.8216-1.0429 9.4027 1.1636 3.5811 5.7186 2.0996 6.3643 6.9748z"/>
 </g>
 <g transform="matrix(.10542 -.02931 .02931 .10542 129.9 125.24)" fill="#ffe680" stroke="#ffe680" stroke-linecap="round" stroke-linejoin="round" stroke-width="6">
  <path d="m41.229 53.012c4.3597 0.80455-3.8994 13.148-8.6102 23.661-4.7107-10.513-12.97-22.856-8.6102-23.661 4.8362-0.89248 4.8548 3.8974 8.6202 3.8974s3.764-4.7899 8.6001-3.8974z"/>
  <path d="m5.8187 65.937c2.1124-3.8977 11.3 7.7716 19.842 15.5-11.454 1.2315-25.746 5.272-25.164 0.8771 0.64567-4.8753 5.2069-3.4128 6.3705-6.9939 1.1636-3.5811-3.3924-5.0599-1.0491-9.3836z"/>
  <path d="m7.5667 103.21c-3.0542-3.2135 10.883-8.345 20.873-14.081-2.3683 11.274-2.9419 26.115-6.9418 24.203-4.4371-2.1206-1.6368-6.0067-4.683-8.2199-3.0463-2.2132-5.8605 1.6627-9.2485-1.9019z"/>
  <path d="m43.629 112.98c-4 1.9117-4.5735-12.929-6.9418-24.203 9.9904 5.7362 23.928 10.868 20.873 14.081-3.388 3.5647-6.2185-0.29951-9.2647 1.9137-3.0463 2.2132-0.22965 6.0875-4.6668 8.2081z"/>
  <path d="m64.703 82.212c0.58205 4.3949-13.71 0.3544-25.164-0.8771 8.5427-7.7288 17.73-19.398 19.842-15.5 2.3433 4.3237-2.2065 5.8216-1.0429 9.4027 1.1636 3.5811 5.7186 2.0996 6.3643 6.9748z"/>
 </g>
 <g transform="matrix(.10542 -.02931 .02931 .10542 125.83 118.06)" fill="#ffe680" stroke="#ffe680" stroke-linecap="round" stroke-linejoin="round" stroke-width="6">
  <path d="m41.229 53.012c4.3597 0.80455-3.8994 13.148-8.6102 23.661-4.7107-10.513-12.97-22.856-8.6102-23.661 4.8362-0.89248 4.8548 3.8974 8.6202 3.8974s3.764-4.7899 8.6001-3.8974z"/>
  <path d="m5.8187 65.937c2.1124-3.8977 11.3 7.7716 19.842 15.5-11.454 1.2315-25.746 5.272-25.164 0.8771 0.64567-4.8753 5.2069-3.4128 6.3705-6.9939 1.1636-3.5811-3.3924-5.0599-1.0491-9.3836z"/>
  <path d="m7.5667 103.21c-3.0542-3.2135 10.883-8.345 20.873-14.081-2.3683 11.274-2.9419 26.115-6.9418 24.203-4.4371-2.1206-1.6368-6.0067-4.683-8.2199-3.0463-2.2132-5.8605 1.6627-9.2485-1.9019z"/>
  <path d="m43.629 112.98c-4 1.9117-4.5735-12.929-6.9418-24.203 9.9904 5.7362 23.928 10.868 20.873 14.081-3.388 3.5647-6.2185-0.29951-9.2647 1.9137-3.0463 2.2132-0.22965 6.0875-4.6668 8.2081z"/>
  <path d="m64.703 82.212c0.58205 4.3949-13.71 0.3544-25.164-0.8771 8.5427-7.7288 17.73-19.398 19.842-15.5 2.3433 4.3237-2.2065 5.8216-1.0429 9.4027 1.1636 3.5811 5.7186 2.0996 6.3643 6.9748z"/>
 </g>
 <g transform="matrix(.10542 -.02931 .02931 .10542 120.68 125.92)" fill="#ffe680" stroke="#ffe680" stroke-linecap="round" stroke-linejoin="round" stroke-width="6">
  <path d="m41.229 53.012c4.3597 0.80455-3.8994 13.148-8.6102 23.661-4.7107-10.513-12.97-22.856-8.6102-23.661 4.8362-0.89248 4.8548 3.8974 8.6202 3.8974s3.764-4.7899 8.6001-3.8974z"/>
  <path d="m5.8187 65.937c2.1124-3.8977 11.3 7.7716 19.842 15.5-11.454 1.2315-25.746 5.272-25.164 0.8771 0.64567-4.8753 5.2069-3.4128 6.3705-6.9939 1.1636-3.5811-3.3924-5.0599-1.0491-9.3836z"/>
  <path d="m7.5667 103.21c-3.0542-3.2135 10.883-8.345 20.873-14.081-2.3683 11.274-2.9419 26.115-6.9418 24.203-4.4371-2.1206-1.6368-6.0067-4.683-8.2199-3.0463-2.2132-5.8605 1.6627-9.2485-1.9019z"/>
  <path d="m43.629 112.98c-4 1.9117-4.5735-12.929-6.9418-24.203 9.9904 5.7362 23.928 10.868 20.873 14.081-3.388 3.5647-6.2185-0.29951-9.2647 1.9137-3.0463 2.2132-0.22965 6.0875-4.6668 8.2081z"/>
  <path d="m64.703 82.212c0.58205 4.3949-13.71 0.3544-25.164-0.8771 8.5427-7.7288 17.73-19.398 19.842-15.5 2.3433 4.3237-2.2065 5.8216-1.0429 9.4027 1.1636 3.5811 5.7186 2.0996 6.3643 6.9748z"/>
 </g>
 <g transform="matrix(.10542 -.02931 .02931 .10542 129.2 133.98)" fill="#ffe680" stroke="#ffe680" stroke-linecap="round" stroke-linejoin="round" stroke-width="6">
  <path d="m41.229 53.012c4.3597 0.80455-3.8994 13.148-8.6102 23.661-4.7107-10.513-12.97-22.856-8.6102-23.661 4.8362-0.89248 4.8548 3.8974 8.6202 3.8974s3.764-4.7899 8.6001-3.8974z"/>
  <path d="m5.8187 65.937c2.1124-3.8977 11.3 7.7716 19.842 15.5-11.454 1.2315-25.746 5.272-25.164 0.8771 0.64567-4.8753 5.2069-3.4128 6.3705-6.9939 1.1636-3.5811-3.3924-5.0599-1.0491-9.3836z"/>
  <path d="m7.5667 103.21c-3.0542-3.2135 10.883-8.345 20.873-14.081-2.3683 11.274-2.9419 26.115-6.9418 24.203-4.4371-2.1206-1.6368-6.0067-4.683-8.2199-3.0463-2.2132-5.8605 1.6627-9.2485-1.9019z"/>
  <path d="m43.629 112.98c-4 1.9117-4.5735-12.929-6.9418-24.203 9.9904 5.7362 23.928 10.868 20.873 14.081-3.388 3.5647-6.2185-0.29951-9.2647 1.9137-3.0463 2.2132-0.22965 6.0875-4.6668 8.2081z"/>
  <path d="m64.703 82.212c0.58205 4.3949-13.71 0.3544-25.164-0.8771 8.5427-7.7288 17.73-19.398 19.842-15.5 2.3433 4.3237-2.2065 5.8216-1.0429 9.4027 1.1636 3.5811 5.7186 2.0996 6.3643 6.9748z"/>
 </g>
 <g transform="matrix(.10355 .035359 -.035359 .10355 126.01 133.51)" fill="#ffe680" stroke="#ffe680" stroke-linecap="round" stroke-linejoin="round" stroke-width="6">
  <path d="m41.229 53.012c4.3597 0.80455-3.8994 13.148-8.6102 23.661-4.7107-10.513-12.97-22.856-8.6102-23.661 4.8362-0.89248 4.8548 3.8974 8.6202 3.8974s3.764-4.7899 8.6001-3.8974z"/>
  <path d="m5.8187 65.937c2.1124-3.8977 11.3 7.7716 19.842 15.5-11.454 1.2315-25.746 5.272-25.164 0.8771 0.64567-4.8753 5.2069-3.4128 6.3705-6.9939 1.1636-3.5811-3.3924-5.0599-1.0491-9.3836z"/>
  <path d="m7.5667 103.21c-3.0542-3.2135 10.883-8.345 20.873-14.081-2.3683 11.274-2.9419 26.115-6.9418 24.203-4.4371-2.1206-1.6368-6.0067-4.683-8.2199-3.0463-2.2132-5.8605 1.6627-9.2485-1.9019z"/>
  <path d="m43.629 112.98c-4 1.9117-4.5735-12.929-6.9418-24.203 9.9904 5.7362 23.928 10.868 20.873 14.081-3.388 3.5647-6.2185-0.29951-9.2647 1.9137-3.0463 2.2132-0.22965 6.0875-4.6668 8.2081z"/>
  <path d="m64.703 82.212c0.58205 4.3949-13.71 0.3544-25.164-0.8771 8.5427-7.7288 17.73-19.398 19.842-15.5 2.3433 4.3237-2.2065 5.8216-1.0429 9.4027 1.1636 3.5811 5.7186 2.0996 6.3643 6.9748z"/>
  <path d="m-33.646 97.116c2.352-3.758 10.792 8.4628 18.834 16.711-11.509 0.51298-26.025 3.6521-25.169-0.69787 0.94926-4.8253 5.4101-3.0806 6.7953-6.582 1.3852-3.5013-3.0694-5.2621-0.4604-9.4308z"/>
  <path d="m144.59-2.4871c-4.1117 1.6578-3.7563-13.19-5.4151-24.59 9.6122 6.3496 23.201 12.343 19.952 15.359-3.6043 3.3458-6.1876-0.68773-9.3663 1.3307-3.1787 2.0184-0.60977 6.0613-5.1708 7.9003z"/>
  <path d="m-28.767-140.83c-2.8472-3.3982 11.383-7.6483 21.713-12.749-3.0685 11.104-4.5688 25.88-8.4415 23.722-4.2958-2.394-1.258-6.0973-4.1599-8.4966-2.9019-2.3994-5.953 1.2931-9.1115-2.4764z"/>
  <path d="m158.04-152.24c-1.7352 4.0796-11.983-6.6705-21.217-13.559 11.287-2.307 25.133-7.6783 24.969-3.2481-0.18277 4.9144-4.8616 3.889-5.682 7.5639-0.82043 3.6749 3.8548 4.7171 1.93 9.2427z"/>
  <path d="m158.46 101.87c-1.7352 4.0796-11.983-6.6705-21.217-13.559 11.287-2.307 25.133-7.6783 24.969-3.2481-0.1827 4.9144-4.8616 3.889-5.682 7.5639-0.8204 3.6749 3.8548 4.7171 1.9301 9.2427z"/>
  <path d="m134.99 304.67c4.0796 1.7352-6.6705 11.983-13.559 21.217-2.307-11.287-7.6783-25.133-3.2481-24.969 4.9144 0.18271 3.889 4.8616 7.5639 5.682 3.6749 0.8204 4.7171-3.8548 9.2427-1.9301z"/>
  <path d="m77.092 395.15c4.1117-1.6578 3.7563 13.19 5.4151 24.59-9.6123-6.3497-23.201-12.343-19.952-15.359 3.6042-3.3458 6.1876 0.68772 9.3663-1.3307 3.1786-2.0184 0.60976-6.0613 5.1708-7.9004z"/>
 </g>
 <g transform="matrix(.050327 -.097158 .097158 .050327 122.47 150.53)" fill="#ffe680" stroke="#ffe680" stroke-linecap="round" stroke-linejoin="round" stroke-width="6">
  <path d="m41.229 53.012c4.3597 0.80455-3.8994 13.148-8.6102 23.661-4.7107-10.513-12.97-22.856-8.6102-23.661 4.8362-0.89248 4.8548 3.8974 8.6202 3.8974s3.764-4.7899 8.6001-3.8974z"/>
  <path d="m5.8187 65.937c2.1124-3.8977 11.3 7.7716 19.842 15.5-11.454 1.2315-25.746 5.272-25.164 0.8771 0.64567-4.8753 5.2069-3.4128 6.3705-6.9939 1.1636-3.5811-3.3924-5.0599-1.0491-9.3836z"/>
  <path d="m7.5667 103.21c-3.0542-3.2135 10.883-8.345 20.873-14.081-2.3683 11.274-2.9419 26.115-6.9418 24.203-4.4371-2.1206-1.6368-6.0067-4.683-8.2199-3.0463-2.2132-5.8605 1.6627-9.2485-1.9019z"/>
  <path d="m43.629 112.98c-4 1.9117-4.5735-12.929-6.9418-24.203 9.9904 5.7362 23.928 10.868 20.873 14.081-3.388 3.5647-6.2185-0.29951-9.2647 1.9137-3.0463 2.2132-0.22965 6.0875-4.6668 8.2081z"/>
  <path d="m64.703 82.212c0.58205 4.3949-13.71 0.3544-25.164-0.8771 8.5427-7.7288 17.73-19.398 19.842-15.5 2.3433 4.3237-2.2065 5.8216-1.0429 9.4027 1.1636 3.5811 5.7186 2.0996 6.3643 6.9748z"/>
 </g>
 <g transform="matrix(.10355 .035359 -.035359 .10355 122.78 141.53)" fill="#ffe680" stroke="#ffe680" stroke-linecap="round" stroke-linejoin="round" stroke-width="6">
  <path d="m41.229 53.012c4.3597 0.80455-3.8994 13.148-8.6102 23.661-4.7107-10.513-12.97-22.856-8.6102-23.661 4.8362-0.89248 4.8548 3.8974 8.6202 3.8974s3.764-4.7899 8.6001-3.8974z"/>
  <path d="m5.8187 65.937c2.1124-3.8977 11.3 7.7716 19.842 15.5-11.454 1.2315-25.746 5.272-25.164 0.8771 0.64567-4.8753 5.2069-3.4128 6.3705-6.9939 1.1636-3.5811-3.3924-5.0599-1.0491-9.3836z"/>
  <path d="m7.5667 103.21c-3.0542-3.2135 10.883-8.345 20.873-14.081-2.3683 11.274-2.9419 26.115-6.9418 24.203-4.4371-2.1206-1.6368-6.0067-4.683-8.2199-3.0463-2.2132-5.8605 1.6627-9.2485-1.9019z"/>
  <path d="m43.629 112.98c-4 1.9117-4.5735-12.929-6.9418-24.203 9.9904 5.7362 23.928 10.868 20.873 14.081-3.388 3.5647-6.2185-0.29951-9.2647 1.9137-3.0463 2.2132-0.22965 6.0875-4.6668 8.2081z"/>
  <path d="m64.703 82.212c0.58205 4.3949-13.71 0.3544-25.164-0.8771 8.5427-7.7288 17.73-19.398 19.842-15.5 2.3433 4.3237-2.2065 5.8216-1.0429 9.4027 1.1636 3.5811 5.7186 2.0996 6.3643 6.9748z"/>
 </g>
 <g transform="matrix(-.03625 -.10324 .10324 -.03625 119.36 167.51)" fill="#ffe680" stroke="#ffe680" stroke-linecap="round" stroke-linejoin="round" stroke-width="6">
  <path d="m41.229 53.012c4.3597 0.80455-3.8994 13.148-8.6102 23.661-4.7107-10.513-12.97-22.856-8.6102-23.661 4.8362-0.89248 4.8548 3.8974 8.6202 3.8974s3.764-4.7899 8.6001-3.8974z"/>
  <path d="m5.8187 65.937c2.1124-3.8977 11.3 7.7716 19.842 15.5-11.454 1.2315-25.746 5.272-25.164 0.8771 0.64567-4.8753 5.2069-3.4128 6.3705-6.9939 1.1636-3.5811-3.3924-5.0599-1.0491-9.3836z"/>
  <path d="m7.5667 103.21c-3.0542-3.2135 10.883-8.345 20.873-14.081-2.3683 11.274-2.9419 26.115-6.9418 24.203-4.4371-2.1206-1.6368-6.0067-4.683-8.2199-3.0463-2.2132-5.8605 1.6627-9.2485-1.9019z"/>
  <path d="m43.629 112.98c-4 1.9117-4.5735-12.929-6.9418-24.203 9.9904 5.7362 23.928 10.868 20.873 14.081-3.388 3.5647-6.2185-0.29951-9.2647 1.9137-3.0463 2.2132-0.22965 6.0875-4.6668 8.2081z"/>
  <path d="m64.703 82.212c0.58205 4.3949-13.71 0.3544-25.164-0.8771 8.5427-7.7288 17.73-19.398 19.842-15.5 2.3433 4.3237-2.2065 5.8216-1.0429 9.4027 1.1636 3.5811 5.7186 2.0996 6.3643 6.9748z"/>
 </g>
 <g transform="matrix(-.03625 -.10324 .10324 -.03625 111.06 164.84)" fill="#ffe680" stroke="#ffe680" stroke-linecap="round" stroke-linejoin="round" stroke-width="6">
  <path d="m41.229 53.012c4.3597 0.80455-3.8994 13.148-8.6102 23.661-4.7107-10.513-12.97-22.856-8.6102-23.661 4.8362-0.89248 4.8548 3.8974 8.6202 3.8974s3.764-4.7899 8.6001-3.8974z"/>
  <path d="m5.8187 65.937c2.1124-3.8977 11.3 7.7716 19.842 15.5-11.454 1.2315-25.746 5.272-25.164 0.8771 0.64567-4.8753 5.2069-3.4128 6.3705-6.9939 1.1636-3.5811-3.3924-5.0599-1.0491-9.3836z"/>
  <path d="m7.5667 103.21c-3.0542-3.2135 10.883-8.345 20.873-14.081-2.3683 11.274-2.9419 26.115-6.9418 24.203-4.4371-2.1206-1.6368-6.0067-4.683-8.2199-3.0463-2.2132-5.8605 1.6627-9.2485-1.9019z"/>
  <path d="m43.629 112.98c-4 1.9117-4.5735-12.929-6.9418-24.203 9.9904 5.7362 23.928 10.868 20.873 14.081-3.388 3.5647-6.2185-0.29951-9.2647 1.9137-3.0463 2.2132-0.22965 6.0875-4.6668 8.2081z"/>
  <path d="m64.703 82.212c0.58205 4.3949-13.71 0.3544-25.164-0.8771 8.5427-7.7288 17.73-19.398 19.842-15.5 2.3433 4.3237-2.2065 5.8216-1.0429 9.4027 1.1636 3.5811 5.7186 2.0996 6.3643 6.9748z"/>
 </g>
 <g transform="matrix(-.03625 -.10324 .10324 -.03625 112.01 174.88)" fill="#ffe680" stroke="#ffe680" stroke-linecap="round" stroke-linejoin="round" stroke-width="6">
  <path d="m41.229 53.012c4.3597 0.80455-3.8994 13.148-8.6102 23.661-4.7107-10.513-12.97-22.856-8.6102-23.661 4.8362-0.89248 4.8548 3.8974 8.6202 3.8974s3.764-4.7899 8.6001-3.8974z"/>
  <path d="m5.8187 65.937c2.1124-3.8977 11.3 7.7716 19.842 15.5-11.454 1.2315-25.746 5.272-25.164 0.8771 0.64567-4.8753 5.2069-3.4128 6.3705-6.9939 1.1636-3.5811-3.3924-5.0599-1.0491-9.3836z"/>
  <path d="m7.5667 103.21c-3.0542-3.2135 10.883-8.345 20.873-14.081-2.3683 11.274-2.9419 26.115-6.9418 24.203-4.4371-2.1206-1.6368-6.0067-4.683-8.2199-3.0463-2.2132-5.8605 1.6627-9.2485-1.9019z"/>
  <path d="m43.629 112.98c-4 1.9117-4.5735-12.929-6.9418-24.203 9.9904 5.7362 23.928 10.868 20.873 14.081-3.388 3.5647-6.2185-0.29951-9.2647 1.9137-3.0463 2.2132-0.22965 6.0875-4.6668 8.2081z"/>
  <path d="m64.703 82.212c0.58205 4.3949-13.71 0.3544-25.164-0.8771 8.5427-7.7288 17.73-19.398 19.842-15.5 2.3433 4.3237-2.2065 5.8216-1.0429 9.4027 1.1636 3.5811 5.7186 2.0996 6.3643 6.9748z"/>
 </g>
 <g transform="matrix(-.02931 -.10542 .10542 -.02931 134.84 69.048)" fill="#ffe680" stroke="#ffe680" stroke-linecap="round" stroke-linejoin="round" stroke-width="6">
  <path d="m41.229 53.012c4.3597 0.80455-3.8994 13.148-8.6102 23.661-4.7107-10.513-12.97-22.856-8.6102-23.661 4.8362-0.89248 4.8548 3.8974 8.6202 3.8974s3.764-4.7899 8.6001-3.8974z"/>
  <path d="m5.8187 65.937c2.1124-3.8977 11.3 7.7716 19.842 15.5-11.454 1.2315-25.746 5.272-25.164 0.8771 0.64567-4.8753 5.2069-3.4128 6.3705-6.9939 1.1636-3.5811-3.3924-5.0599-1.0491-9.3836z"/>
  <path d="m7.5667 103.21c-3.0542-3.2135 10.883-8.345 20.873-14.081-2.3683 11.274-2.9419 26.115-6.9418 24.203-4.4371-2.1206-1.6368-6.0067-4.683-8.2199-3.0463-2.2132-5.8605 1.6627-9.2485-1.9019z"/>
  <path d="m43.629 112.98c-4 1.9117-4.5735-12.929-6.9418-24.203 9.9904 5.7362 23.928 10.868 20.873 14.081-3.388 3.5647-6.2185-0.29951-9.2647 1.9137-3.0463 2.2132-0.22965 6.0875-4.6668 8.2081z"/>
  <path d="m64.703 82.212c0.58205 4.3949-13.71 0.3544-25.164-0.8771 8.5427-7.7288 17.73-19.398 19.842-15.5 2.3433 4.3237-2.2065 5.8216-1.0429 9.4027 1.1636 3.5811 5.7186 2.0996 6.3643 6.9748z"/>
 </g>
 <g transform="matrix(.10542 -.02931 .02931 .10542 140.73 46.659)" fill="#ffe680" stroke="#ffe680" stroke-linecap="round" stroke-linejoin="round" stroke-width="6">
  <path d="m41.229 53.012c4.3597 0.80455-3.8994 13.148-8.6102 23.661-4.7107-10.513-12.97-22.856-8.6102-23.661 4.8362-0.89248 4.8548 3.8974 8.6202 3.8974s3.764-4.7899 8.6001-3.8974z"/>
  <path d="m5.8187 65.937c2.1124-3.8977 11.3 7.7716 19.842 15.5-11.454 1.2315-25.746 5.272-25.164 0.8771 0.64567-4.8753 5.2069-3.4128 6.3705-6.9939 1.1636-3.5811-3.3924-5.0599-1.0491-9.3836z"/>
  <path d="m7.5667 103.21c-3.0542-3.2135 10.883-8.345 20.873-14.081-2.3683 11.274-2.9419 26.115-6.9418 24.203-4.4371-2.1206-1.6368-6.0067-4.683-8.2199-3.0463-2.2132-5.8605 1.6627-9.2485-1.9019z"/>
  <path d="m43.629 112.98c-4 1.9117-4.5735-12.929-6.9418-24.203 9.9904 5.7362 23.928 10.868 20.873 14.081-3.388 3.5647-6.2185-0.29951-9.2647 1.9137-3.0463 2.2132-0.22965 6.0875-4.6668 8.2081z"/>
  <path d="m64.703 82.212c0.58205 4.3949-13.71 0.3544-25.164-0.8771 8.5427-7.7288 17.73-19.398 19.842-15.5 2.3433 4.3237-2.2065 5.8216-1.0429 9.4027 1.1636 3.5811 5.7186 2.0996 6.3643 6.9748z"/>
 </g>
 <g transform="matrix(.02931 .10542 -.10542 .02931 144.54 48.205)" fill="#ffe680" stroke="#ffe680" stroke-linecap="round" stroke-linejoin="round" stroke-width="6">
  <path d="m41.229 53.012c4.3597 0.80455-3.8994 13.148-8.6102 23.661-4.7107-10.513-12.97-22.856-8.6102-23.661 4.8362-0.89248 4.8548 3.8974 8.6202 3.8974s3.764-4.7899 8.6001-3.8974z"/>
  <path d="m5.8187 65.937c2.1124-3.8977 11.3 7.7716 19.842 15.5-11.454 1.2315-25.746 5.272-25.164 0.8771 0.64567-4.8753 5.2069-3.4128 6.3705-6.9939 1.1636-3.5811-3.3924-5.0599-1.0491-9.3836z"/>
  <path d="m7.5667 103.21c-3.0542-3.2135 10.883-8.345 20.873-14.081-2.3683 11.274-2.9419 26.115-6.9418 24.203-4.4371-2.1206-1.6368-6.0067-4.683-8.2199-3.0463-2.2132-5.8605 1.6627-9.2485-1.9019z"/>
  <path d="m43.629 112.98c-4 1.9117-4.5735-12.929-6.9418-24.203 9.9904 5.7362 23.928 10.868 20.873 14.081-3.388 3.5647-6.2185-0.29951-9.2647 1.9137-3.0463 2.2132-0.22965 6.0875-4.6668 8.2081z"/>
  <path d="m64.703 82.212c0.58205 4.3949-13.71 0.3544-25.164-0.8771 8.5427-7.7288 17.73-19.398 19.842-15.5 2.3433 4.3237-2.2065 5.8216-1.0429 9.4027 1.1636 3.5811 5.7186 2.0996 6.3643 6.9748z"/>
 </g>
 <g transform="matrix(-.053818 .095269 -.095269 -.053818 151.58 46.937)" fill="#ffe680" stroke="#ffe680" stroke-linecap="round" stroke-linejoin="round" stroke-width="6">
  <path d="m41.229 53.012c4.3597 0.80455-3.8994 13.148-8.6102 23.661-4.7107-10.513-12.97-22.856-8.6102-23.661 4.8362-0.89248 4.8548 3.8974 8.6202 3.8974s3.764-4.7899 8.6001-3.8974z"/>
  <path d="m5.8187 65.937c2.1124-3.8977 11.3 7.7716 19.842 15.5-11.454 1.2315-25.746 5.272-25.164 0.8771 0.64567-4.8753 5.2069-3.4128 6.3705-6.9939 1.1636-3.5811-3.3924-5.0599-1.0491-9.3836z"/>
  <path d="m7.5667 103.21c-3.0542-3.2135 10.883-8.345 20.873-14.081-2.3683 11.274-2.9419 26.115-6.9418 24.203-4.4371-2.1206-1.6368-6.0067-4.683-8.2199-3.0463-2.2132-5.8605 1.6627-9.2485-1.9019z"/>
  <path d="m43.629 112.98c-4 1.9117-4.5735-12.929-6.9418-24.203 9.9904 5.7362 23.928 10.868 20.873 14.081-3.388 3.5647-6.2185-0.29951-9.2647 1.9137-3.0463 2.2132-0.22965 6.0875-4.6668 8.2081z"/>
  <path d="m64.703 82.212c0.58205 4.3949-13.71 0.3544-25.164-0.8771 8.5427-7.7288 17.73-19.398 19.842-15.5 2.3433 4.3237-2.2065 5.8216-1.0429 9.4027 1.1636 3.5811 5.7186 2.0996 6.3643 6.9748z"/>
 </g>
 <g transform="matrix(.10542 -.02931 .02931 .10542 136.66 28.625)" fill="#ffe680" stroke="#ffe680" stroke-linecap="round" stroke-linejoin="round" stroke-width="6">
  <path d="m41.229 53.012c4.3597 0.80455-3.8994 13.148-8.6102 23.661-4.7107-10.513-12.97-22.856-8.6102-23.661 4.8362-0.89248 4.8548 3.8974 8.6202 3.8974s3.764-4.7899 8.6001-3.8974z"/>
  <path d="m5.8187 65.937c2.1124-3.8977 11.3 7.7716 19.842 15.5-11.454 1.2315-25.746 5.272-25.164 0.8771 0.64567-4.8753 5.2069-3.4128 6.3705-6.9939 1.1636-3.5811-3.3924-5.0599-1.0491-9.3836z"/>
  <path d="m7.5667 103.21c-3.0542-3.2135 10.883-8.345 20.873-14.081-2.3683 11.274-2.9419 26.115-6.9418 24.203-4.4371-2.1206-1.6368-6.0067-4.683-8.2199-3.0463-2.2132-5.8605 1.6627-9.2485-1.9019z"/>
  <path d="m43.629 112.98c-4 1.9117-4.5735-12.929-6.9418-24.203 9.9904 5.7362 23.928 10.868 20.873 14.081-3.388 3.5647-6.2185-0.29951-9.2647 1.9137-3.0463 2.2132-0.22965 6.0875-4.6668 8.2081z"/>
  <path d="m64.703 82.212c0.58205 4.3949-13.71 0.3544-25.164-0.8771 8.5427-7.7288 17.73-19.398 19.842-15.5 2.3433 4.3237-2.2065 5.8216-1.0429 9.4027 1.1636 3.5811 5.7186 2.0996 6.3643 6.9748z"/>
 </g>
 <g transform="matrix(-.02931 -.10542 .10542 -.02931 140.94 33.794)" fill="#ffe680" stroke="#ffe680" stroke-linecap="round" stroke-linejoin="round" stroke-width="6">
  <path d="m41.229 53.012c4.3597 0.80455-3.8994 13.148-8.6102 23.661-4.7107-10.513-12.97-22.856-8.6102-23.661 4.8362-0.89248 4.8548 3.8974 8.6202 3.8974s3.764-4.7899 8.6001-3.8974z"/>
  <path d="m5.8187 65.937c2.1124-3.8977 11.3 7.7716 19.842 15.5-11.454 1.2315-25.746 5.272-25.164 0.8771 0.64567-4.8753 5.2069-3.4128 6.3705-6.9939 1.1636-3.5811-3.3924-5.0599-1.0491-9.3836z"/>
  <path d="m7.5667 103.21c-3.0542-3.2135 10.883-8.345 20.873-14.081-2.3683 11.274-2.9419 26.115-6.9418 24.203-4.4371-2.1206-1.6368-6.0067-4.683-8.2199-3.0463-2.2132-5.8605 1.6627-9.2485-1.9019z"/>
  <path d="m43.629 112.98c-4 1.9117-4.5735-12.929-6.9418-24.203 9.9904 5.7362 23.928 10.868 20.873 14.081-3.388 3.5647-6.2185-0.29951-9.2647 1.9137-3.0463 2.2132-0.22965 6.0875-4.6668 8.2081z"/>
  <path d="m64.703 82.212c0.58205 4.3949-13.71 0.3544-25.164-0.8771 8.5427-7.7288 17.73-19.398 19.842-15.5 2.3433 4.3237-2.2065 5.8216-1.0429 9.4027 1.1636 3.5811 5.7186 2.0996 6.3643 6.9748z"/>
 </g>
 <g transform="matrix(.02931 .10542 -.10542 .02931 157.69 35.188)" fill="#ffe680" stroke="#ffe680" stroke-linecap="round" stroke-linejoin="round" stroke-width="6">
  <path d="m41.229 53.012c4.3597 0.80455-3.8994 13.148-8.6102 23.661-4.7107-10.513-12.97-22.856-8.6102-23.661 4.8362-0.89248 4.8548 3.8974 8.6202 3.8974s3.764-4.7899 8.6001-3.8974z"/>
  <path d="m5.8187 65.937c2.1124-3.8977 11.3 7.7716 19.842 15.5-11.454 1.2315-25.746 5.272-25.164 0.8771 0.64567-4.8753 5.2069-3.4128 6.3705-6.9939 1.1636-3.5811-3.3924-5.0599-1.0491-9.3836z"/>
  <path d="m7.5667 103.21c-3.0542-3.2135 10.883-8.345 20.873-14.081-2.3683 11.274-2.9419 26.115-6.9418 24.203-4.4371-2.1206-1.6368-6.0067-4.683-8.2199-3.0463-2.2132-5.8605 1.6627-9.2485-1.9019z"/>
  <path d="m43.629 112.98c-4 1.9117-4.5735-12.929-6.9418-24.203 9.9904 5.7362 23.928 10.868 20.873 14.081-3.388 3.5647-6.2185-0.29951-9.2647 1.9137-3.0463 2.2132-0.22965 6.0875-4.6668 8.2081z"/>
  <path d="m64.703 82.212c0.58205 4.3949-13.71 0.3544-25.164-0.8771 8.5427-7.7288 17.73-19.398 19.842-15.5 2.3433 4.3237-2.2065 5.8216-1.0429 9.4027 1.1636 3.5811 5.7186 2.0996 6.3643 6.9748z"/>
 </g>
 <g transform="matrix(-.095269 -.053818 .053818 -.095269 106.16 65.157)" fill="#ffe680" stroke="#ffe680" stroke-linecap="round" stroke-linejoin="round" stroke-width="6">
  <path d="m41.229 53.012c4.3597 0.80455-3.8994 13.148-8.6102 23.661-4.7107-10.513-12.97-22.856-8.6102-23.661 4.8362-0.89248 4.8548 3.8974 8.6202 3.8974s3.764-4.7899 8.6001-3.8974z"/>
  <path d="m5.8187 65.937c2.1124-3.8977 11.3 7.7716 19.842 15.5-11.454 1.2315-25.746 5.272-25.164 0.8771 0.64567-4.8753 5.2069-3.4128 6.3705-6.9939 1.1636-3.5811-3.3924-5.0599-1.0491-9.3836z"/>
  <path d="m7.5667 103.21c-3.0542-3.2135 10.883-8.345 20.873-14.081-2.3683 11.274-2.9419 26.115-6.9418 24.203-4.4371-2.1206-1.6368-6.0067-4.683-8.2199-3.0463-2.2132-5.8605 1.6627-9.2485-1.9019z"/>
  <path d="m43.629 112.98c-4 1.9117-4.5735-12.929-6.9418-24.203 9.9904 5.7362 23.928 10.868 20.873 14.081-3.388 3.5647-6.2185-0.29951-9.2647 1.9137-3.0463 2.2132-0.22965 6.0875-4.6668 8.2081z"/>
  <path d="m64.703 82.212c0.58205 4.3949-13.71 0.3544-25.164-0.8771 8.5427-7.7288 17.73-19.398 19.842-15.5 2.3433 4.3237-2.2065 5.8216-1.0429 9.4027 1.1636 3.5811 5.7186 2.0996 6.3643 6.9748z"/>
 </g>
 <g transform="matrix(.095269 .053818 -.053818 .095269 110.31 36.775)" fill="#ffe680" stroke="#ffe680" stroke-linecap="round" stroke-linejoin="round" stroke-width="6">
  <path d="m41.229 53.012c4.3597 0.80455-3.8994 13.148-8.6102 23.661-4.7107-10.513-12.97-22.856-8.6102-23.661 4.8362-0.89248 4.8548 3.8974 8.6202 3.8974s3.764-4.7899 8.6001-3.8974z"/>
  <path d="m5.8187 65.937c2.1124-3.8977 11.3 7.7716 19.842 15.5-11.454 1.2315-25.746 5.272-25.164 0.8771 0.64567-4.8753 5.2069-3.4128 6.3705-6.9939 1.1636-3.5811-3.3924-5.0599-1.0491-9.3836z"/>
  <path d="m7.5667 103.21c-3.0542-3.2135 10.883-8.345 20.873-14.081-2.3683 11.274-2.9419 26.115-6.9418 24.203-4.4371-2.1206-1.6368-6.0067-4.683-8.2199-3.0463-2.2132-5.8605 1.6627-9.2485-1.9019z"/>
  <path d="m43.629 112.98c-4 1.9117-4.5735-12.929-6.9418-24.203 9.9904 5.7362 23.928 10.868 20.873 14.081-3.388 3.5647-6.2185-0.29951-9.2647 1.9137-3.0463 2.2132-0.22965 6.0875-4.6668 8.2081z"/>
  <path d="m64.703 82.212c0.58205 4.3949-13.71 0.3544-25.164-0.8771 8.5427-7.7288 17.73-19.398 19.842-15.5 2.3433 4.3237-2.2065 5.8216-1.0429 9.4027 1.1636 3.5811 5.7186 2.0996 6.3643 6.9748z"/>
 </g>
 <g transform="matrix(.10542 -.02931 .02931 .10542 94.76 41.1)" fill="#ffe680" stroke="#ffe680" stroke-linecap="round" stroke-linejoin="round" stroke-width="6">
  <path d="m41.229 53.012c4.3597 0.80455-3.8994 13.148-8.6102 23.661-4.7107-10.513-12.97-22.856-8.6102-23.661 4.8362-0.89248 4.8548 3.8974 8.6202 3.8974s3.764-4.7899 8.6001-3.8974z"/>
  <path d="m5.8187 65.937c2.1124-3.8977 11.3 7.7716 19.842 15.5-11.454 1.2315-25.746 5.272-25.164 0.8771 0.64567-4.8753 5.2069-3.4128 6.3705-6.9939 1.1636-3.5811-3.3924-5.0599-1.0491-9.3836z"/>
  <path d="m7.5667 103.21c-3.0542-3.2135 10.883-8.345 20.873-14.081-2.3683 11.274-2.9419 26.115-6.9418 24.203-4.4371-2.1206-1.6368-6.0067-4.683-8.2199-3.0463-2.2132-5.8605 1.6627-9.2485-1.9019z"/>
  <path d="m43.629 112.98c-4 1.9117-4.5735-12.929-6.9418-24.203 9.9904 5.7362 23.928 10.868 20.873 14.081-3.388 3.5647-6.2185-0.29951-9.2647 1.9137-3.0463 2.2132-0.22965 6.0875-4.6668 8.2081z"/>
  <path d="m64.703 82.212c0.58205 4.3949-13.71 0.3544-25.164-0.8771 8.5427-7.7288 17.73-19.398 19.842-15.5 2.3433 4.3237-2.2065 5.8216-1.0429 9.4027 1.1636 3.5811 5.7186 2.0996 6.3643 6.9748z"/>
 </g>
 <g transform="matrix(.10542 -.02931 .02931 .10542 98.354 31.269)" fill="#ffe680" stroke="#ffe680" stroke-linecap="round" stroke-linejoin="round" stroke-width="6">
  <path d="m41.229 53.012c4.3597 0.80455-3.8994 13.148-8.6102 23.661-4.7107-10.513-12.97-22.856-8.6102-23.661 4.8362-0.89248 4.8548 3.8974 8.6202 3.8974s3.764-4.7899 8.6001-3.8974z"/>
  <path d="m5.8187 65.937c2.1124-3.8977 11.3 7.7716 19.842 15.5-11.454 1.2315-25.746 5.272-25.164 0.8771 0.64567-4.8753 5.2069-3.4128 6.3705-6.9939 1.1636-3.5811-3.3924-5.0599-1.0491-9.3836z"/>
  <path d="m7.5667 103.21c-3.0542-3.2135 10.883-8.345 20.873-14.081-2.3683 11.274-2.9419 26.115-6.9418 24.203-4.4371-2.1206-1.6368-6.0067-4.683-8.2199-3.0463-2.2132-5.8605 1.6627-9.2485-1.9019z"/>
  <path d="m43.629 112.98c-4 1.9117-4.5735-12.929-6.9418-24.203 9.9904 5.7362 23.928 10.868 20.873 14.081-3.388 3.5647-6.2185-0.29951-9.2647 1.9137-3.0463 2.2132-0.22965 6.0875-4.6668 8.2081z"/>
  <path d="m64.703 82.212c0.58205 4.3949-13.71 0.3544-25.164-0.8771 8.5427-7.7288 17.73-19.398 19.842-15.5 2.3433 4.3237-2.2065 5.8216-1.0429 9.4027 1.1636 3.5811 5.7186 2.0996 6.3643 6.9748z"/>
 </g>
 <g transform="matrix(-.095269 -.053818 .053818 -.095269 96.533 42.58)" fill="#ffe680" stroke="#ffe680" stroke-linecap="round" stroke-linejoin="round" stroke-width="6">
  <path d="m41.229 53.012c4.3597 0.80455-3.8994 13.148-8.6102 23.661-4.7107-10.513-12.97-22.856-8.6102-23.661 4.8362-0.89248 4.8548 3.8974 8.6202 3.8974s3.764-4.7899 8.6001-3.8974z"/>
  <path d="m5.8187 65.937c2.1124-3.8977 11.3 7.7716 19.842 15.5-11.454 1.2315-25.746 5.272-25.164 0.8771 0.64567-4.8753 5.2069-3.4128 6.3705-6.9939 1.1636-3.5811-3.3924-5.0599-1.0491-9.3836z"/>
  <path d="m7.5667 103.21c-3.0542-3.2135 10.883-8.345 20.873-14.081-2.3683 11.274-2.9419 26.115-6.9418 24.203-4.4371-2.1206-1.6368-6.0067-4.683-8.2199-3.0463-2.2132-5.8605 1.6627-9.2485-1.9019z"/>
  <path d="m43.629 112.98c-4 1.9117-4.5735-12.929-6.9418-24.203 9.9904 5.7362 23.928 10.868 20.873 14.081-3.388 3.5647-6.2185-0.29951-9.2647 1.9137-3.0463 2.2132-0.22965 6.0875-4.6668 8.2081z"/>
  <path d="m64.703 82.212c0.58205 4.3949-13.71 0.3544-25.164-0.8771 8.5427-7.7288 17.73-19.398 19.842-15.5 2.3433 4.3237-2.2065 5.8216-1.0429 9.4027 1.1636 3.5811 5.7186 2.0996 6.3643 6.9748z"/>
 </g>
 <g transform="matrix(.095269 .053818 -.053818 .095269 97.316 31.565)" fill="#ffe680" stroke="#ffe680" stroke-linecap="round" stroke-linejoin="round" stroke-width="6">
  <path d="m41.229 53.012c4.3597 0.80455-3.8994 13.148-8.6102 23.661-4.7107-10.513-12.97-22.856-8.6102-23.661 4.8362-0.89248 4.8548 3.8974 8.6202 3.8974s3.764-4.7899 8.6001-3.8974z"/>
  <path d="m5.8187 65.937c2.1124-3.8977 11.3 7.7716 19.842 15.5-11.454 1.2315-25.746 5.272-25.164 0.8771 0.64567-4.8753 5.2069-3.4128 6.3705-6.9939 1.1636-3.5811-3.3924-5.0599-1.0491-9.3836z"/>
  <path d="m7.5667 103.21c-3.0542-3.2135 10.883-8.345 20.873-14.081-2.3683 11.274-2.9419 26.115-6.9418 24.203-4.4371-2.1206-1.6368-6.0067-4.683-8.2199-3.0463-2.2132-5.8605 1.6627-9.2485-1.9019z"/>
  <path d="m43.629 112.98c-4 1.9117-4.5735-12.929-6.9418-24.203 9.9904 5.7362 23.928 10.868 20.873 14.081-3.388 3.5647-6.2185-0.29951-9.2647 1.9137-3.0463 2.2132-0.22965 6.0875-4.6668 8.2081z"/>
  <path d="m64.703 82.212c0.58205 4.3949-13.71 0.3544-25.164-0.8771 8.5427-7.7288 17.73-19.398 19.842-15.5 2.3433 4.3237-2.2065 5.8216-1.0429 9.4027 1.1636 3.5811 5.7186 2.0996 6.3643 6.9748z"/>
 </g>
 <g transform="matrix(-.095269 -.053818 .053818 -.095269 163.7 198.43)" fill="#ffe680" stroke="#ffe680" stroke-linecap="round" stroke-linejoin="round" stroke-width="6">
  <path d="m41.229 53.012c4.3597 0.80455-3.8994 13.148-8.6102 23.661-4.7107-10.513-12.97-22.856-8.6102-23.661 4.8362-0.89248 4.8548 3.8974 8.6202 3.8974s3.764-4.7899 8.6001-3.8974z"/>
  <path d="m5.8187 65.937c2.1124-3.8977 11.3 7.7716 19.842 15.5-11.454 1.2315-25.746 5.272-25.164 0.8771 0.64567-4.8753 5.2069-3.4128 6.3705-6.9939 1.1636-3.5811-3.3924-5.0599-1.0491-9.3836z"/>
  <path d="m7.5667 103.21c-3.0542-3.2135 10.883-8.345 20.873-14.081-2.3683 11.274-2.9419 26.115-6.9418 24.203-4.4371-2.1206-1.6368-6.0067-4.683-8.2199-3.0463-2.2132-5.8605 1.6627-9.2485-1.9019z"/>
  <path d="m43.629 112.98c-4 1.9117-4.5735-12.929-6.9418-24.203 9.9904 5.7362 23.928 10.868 20.873 14.081-3.388 3.5647-6.2185-0.29951-9.2647 1.9137-3.0463 2.2132-0.22965 6.0875-4.6668 8.2081z"/>
  <path d="m64.703 82.212c0.58205 4.3949-13.71 0.3544-25.164-0.8771 8.5427-7.7288 17.73-19.398 19.842-15.5 2.3433 4.3237-2.2065 5.8216-1.0429 9.4027 1.1636 3.5811 5.7186 2.0996 6.3643 6.9748z"/>
 </g>
 <g transform="matrix(.10542 -.02931 .02931 .10542 154.29 173.17)" fill="#ffe680" stroke="#ffe680" stroke-linecap="round" stroke-linejoin="round" stroke-width="6">
  <path d="m41.229 53.012c4.3597 0.80455-3.8994 13.148-8.6102 23.661-4.7107-10.513-12.97-22.856-8.6102-23.661 4.8362-0.89248 4.8548 3.8974 8.6202 3.8974s3.764-4.7899 8.6001-3.8974z"/>
  <path d="m5.8187 65.937c2.1124-3.8977 11.3 7.7716 19.842 15.5-11.454 1.2315-25.746 5.272-25.164 0.8771 0.64567-4.8753 5.2069-3.4128 6.3705-6.9939 1.1636-3.5811-3.3924-5.0599-1.0491-9.3836z"/>
  <path d="m7.5667 103.21c-3.0542-3.2135 10.883-8.345 20.873-14.081-2.3683 11.274-2.9419 26.115-6.9418 24.203-4.4371-2.1206-1.6368-6.0067-4.683-8.2199-3.0463-2.2132-5.8605 1.6627-9.2485-1.9019z"/>
  <path d="m43.629 112.98c-4 1.9117-4.5735-12.929-6.9418-24.203 9.9904 5.7362 23.928 10.868 20.873 14.081-3.388 3.5647-6.2185-0.29951-9.2647 1.9137-3.0463 2.2132-0.22965 6.0875-4.6668 8.2081z"/>
  <path d="m64.703 82.212c0.58205 4.3949-13.71 0.3544-25.164-0.8771 8.5427-7.7288 17.73-19.398 19.842-15.5 2.3433 4.3237-2.2065 5.8216-1.0429 9.4027 1.1636 3.5811 5.7186 2.0996 6.3643 6.9748z"/>
 </g>
 <g transform="matrix(-.095269 -.053818 .053818 -.095269 157.69 181.5)" fill="#ffe680" stroke="#ffe680" stroke-linecap="round" stroke-linejoin="round" stroke-width="6">
  <path d="m41.229 53.012c4.3597 0.80455-3.8994 13.148-8.6102 23.661-4.7107-10.513-12.97-22.856-8.6102-23.661 4.8362-0.89248 4.8548 3.8974 8.6202 3.8974s3.764-4.7899 8.6001-3.8974z"/>
  <path d="m5.8187 65.937c2.1124-3.8977 11.3 7.7716 19.842 15.5-11.454 1.2315-25.746 5.272-25.164 0.8771 0.64567-4.8753 5.2069-3.4128 6.3705-6.9939 1.1636-3.5811-3.3924-5.0599-1.0491-9.3836z"/>
  <path d="m7.5667 103.21c-3.0542-3.2135 10.883-8.345 20.873-14.081-2.3683 11.274-2.9419 26.115-6.9418 24.203-4.4371-2.1206-1.6368-6.0067-4.683-8.2199-3.0463-2.2132-5.8605 1.6627-9.2485-1.9019z"/>
  <path d="m43.629 112.98c-4 1.9117-4.5735-12.929-6.9418-24.203 9.9904 5.7362 23.928 10.868 20.873 14.081-3.388 3.5647-6.2185-0.29951-9.2647 1.9137-3.0463 2.2132-0.22965 6.0875-4.6668 8.2081z"/>
  <path d="m64.703 82.212c0.58205 4.3949-13.71 0.3544-25.164-0.8771 8.5427-7.7288 17.73-19.398 19.842-15.5 2.3433 4.3237-2.2065 5.8216-1.0429 9.4027 1.1636 3.5811 5.7186 2.0996 6.3643 6.9748z"/>
 </g>
 <g transform="matrix(.10542 -.02931 .02931 .10542 153.74 155.68)" fill="#ffe680" stroke="#ffe680" stroke-linecap="round" stroke-linejoin="round" stroke-width="6">
  <path d="m41.229 53.012c4.3597 0.80455-3.8994 13.148-8.6102 23.661-4.7107-10.513-12.97-22.856-8.6102-23.661 4.8362-0.89248 4.8548 3.8974 8.6202 3.8974s3.764-4.7899 8.6001-3.8974z"/>
  <path d="m5.8187 65.937c2.1124-3.8977 11.3 7.7716 19.842 15.5-11.454 1.2315-25.746 5.272-25.164 0.8771 0.64567-4.8753 5.2069-3.4128 6.3705-6.9939 1.1636-3.5811-3.3924-5.0599-1.0491-9.3836z"/>
  <path d="m7.5667 103.21c-3.0542-3.2135 10.883-8.345 20.873-14.081-2.3683 11.274-2.9419 26.115-6.9418 24.203-4.4371-2.1206-1.6368-6.0067-4.683-8.2199-3.0463-2.2132-5.8605 1.6627-9.2485-1.9019z"/>
  <path d="m43.629 112.98c-4 1.9117-4.5735-12.929-6.9418-24.203 9.9904 5.7362 23.928 10.868 20.873 14.081-3.388 3.5647-6.2185-0.29951-9.2647 1.9137-3.0463 2.2132-0.22965 6.0875-4.6668 8.2081z"/>
  <path d="m64.703 82.212c0.58205 4.3949-13.71 0.3544-25.164-0.8771 8.5427-7.7288 17.73-19.398 19.842-15.5 2.3433 4.3237-2.2065 5.8216-1.0429 9.4027 1.1636 3.5811 5.7186 2.0996 6.3643 6.9748z"/>
 </g>
 <g transform="matrix(-.10542 .02931 -.02931 -.10542 172.15 183.14)" fill="#ffe680" stroke="#ffe680" stroke-linecap="round" stroke-linejoin="round" stroke-width="6">
  <path d="m41.229 53.012c4.3597 0.80455-3.8994 13.148-8.6102 23.661-4.7107-10.513-12.97-22.856-8.6102-23.661 4.8362-0.89248 4.8548 3.8974 8.6202 3.8974s3.764-4.7899 8.6001-3.8974z"/>
  <path d="m5.8187 65.937c2.1124-3.8977 11.3 7.7716 19.842 15.5-11.454 1.2315-25.746 5.272-25.164 0.8771 0.64567-4.8753 5.2069-3.4128 6.3705-6.9939 1.1636-3.5811-3.3924-5.0599-1.0491-9.3836z"/>
  <path d="m7.5667 103.21c-3.0542-3.2135 10.883-8.345 20.873-14.081-2.3683 11.274-2.9419 26.115-6.9418 24.203-4.4371-2.1206-1.6368-6.0067-4.683-8.2199-3.0463-2.2132-5.8605 1.6627-9.2485-1.9019z"/>
  <path d="m43.629 112.98c-4 1.9117-4.5735-12.929-6.9418-24.203 9.9904 5.7362 23.928 10.868 20.873 14.081-3.388 3.5647-6.2185-0.29951-9.2647 1.9137-3.0463 2.2132-0.22965 6.0875-4.6668 8.2081z"/>
  <path d="m64.703 82.212c0.58205 4.3949-13.71 0.3544-25.164-0.8771 8.5427-7.7288 17.73-19.398 19.842-15.5 2.3433 4.3237-2.2065 5.8216-1.0429 9.4027 1.1636 3.5811 5.7186 2.0996 6.3643 6.9748z"/>
 </g>
 <g transform="matrix(-.10542 .02931 -.02931 -.10542 160.89 163.2)" fill="#ffe680" stroke="#ffe680" stroke-linecap="round" stroke-linejoin="round" stroke-width="6">
  <path d="m41.229 53.012c4.3597 0.80455-3.8994 13.148-8.6102 23.661-4.7107-10.513-12.97-22.856-8.6102-23.661 4.8362-0.89248 4.8548 3.8974 8.6202 3.8974s3.764-4.7899 8.6001-3.8974z"/>
  <path d="m5.8187 65.937c2.1124-3.8977 11.3 7.7716 19.842 15.5-11.454 1.2315-25.746 5.272-25.164 0.8771 0.64567-4.8753 5.2069-3.4128 6.3705-6.9939 1.1636-3.5811-3.3924-5.0599-1.0491-9.3836z"/>
  <path d="m7.5667 103.21c-3.0542-3.2135 10.883-8.345 20.873-14.081-2.3683 11.274-2.9419 26.115-6.9418 24.203-4.4371-2.1206-1.6368-6.0067-4.683-8.2199-3.0463-2.2132-5.8605 1.6627-9.2485-1.9019z"/>
  <path d="m43.629 112.98c-4 1.9117-4.5735-12.929-6.9418-24.203 9.9904 5.7362 23.928 10.868 20.873 14.081-3.388 3.5647-6.2185-0.29951-9.2647 1.9137-3.0463 2.2132-0.22965 6.0875-4.6668 8.2081z"/>
  <path d="m64.703 82.212c0.58205 4.3949-13.71 0.3544-25.164-0.8771 8.5427-7.7288 17.73-19.398 19.842-15.5 2.3433 4.3237-2.2065 5.8216-1.0429 9.4027 1.1636 3.5811 5.7186 2.0996 6.3643 6.9748z"/>
 </g>
 <g transform="matrix(.10542 -.02931 .02931 .10542 78.332 151.7)" fill="#ffe680" stroke="#ffe680" stroke-linecap="round" stroke-linejoin="round" stroke-width="6">
  <path d="m41.229 53.012c4.3597 0.80455-3.8994 13.148-8.6102 23.661-4.7107-10.513-12.97-22.856-8.6102-23.661 4.8362-0.89248 4.8548 3.8974 8.6202 3.8974s3.764-4.7899 8.6001-3.8974z"/>
  <path d="m5.8187 65.937c2.1124-3.8977 11.3 7.7716 19.842 15.5-11.454 1.2315-25.746 5.272-25.164 0.8771 0.64567-4.8753 5.2069-3.4128 6.3705-6.9939 1.1636-3.5811-3.3924-5.0599-1.0491-9.3836z"/>
  <path d="m7.5667 103.21c-3.0542-3.2135 10.883-8.345 20.873-14.081-2.3683 11.274-2.9419 26.115-6.9418 24.203-4.4371-2.1206-1.6368-6.0067-4.683-8.2199-3.0463-2.2132-5.8605 1.6627-9.2485-1.9019z"/>
  <path d="m43.629 112.98c-4 1.9117-4.5735-12.929-6.9418-24.203 9.9904 5.7362 23.928 10.868 20.873 14.081-3.388 3.5647-6.2185-0.29951-9.2647 1.9137-3.0463 2.2132-0.22965 6.0875-4.6668 8.2081z"/>
  <path d="m64.703 82.212c0.58205 4.3949-13.71 0.3544-25.164-0.8771 8.5427-7.7288 17.73-19.398 19.842-15.5 2.3433 4.3237-2.2065 5.8216-1.0429 9.4027 1.1636 3.5811 5.7186 2.0996 6.3643 6.9748z"/>
 </g>
 <g transform="matrix(-.02931 -.10542 .10542 -.02931 73.311 157.07)" fill="#ffe680" stroke="#ffe680" stroke-linecap="round" stroke-linejoin="round" stroke-width="6">
  <path d="m41.229 53.012c4.3597 0.80455-3.8994 13.148-8.6102 23.661-4.7107-10.513-12.97-22.856-8.6102-23.661 4.8362-0.89248 4.8548 3.8974 8.6202 3.8974s3.764-4.7899 8.6001-3.8974z"/>
  <path d="m5.8187 65.937c2.1124-3.8977 11.3 7.7716 19.842 15.5-11.454 1.2315-25.746 5.272-25.164 0.8771 0.64567-4.8753 5.2069-3.4128 6.3705-6.9939 1.1636-3.5811-3.3924-5.0599-1.0491-9.3836z"/>
  <path d="m7.5667 103.21c-3.0542-3.2135 10.883-8.345 20.873-14.081-2.3683 11.274-2.9419 26.115-6.9418 24.203-4.4371-2.1206-1.6368-6.0067-4.683-8.2199-3.0463-2.2132-5.8605 1.6627-9.2485-1.9019z"/>
  <path d="m43.629 112.98c-4 1.9117-4.5735-12.929-6.9418-24.203 9.9904 5.7362 23.928 10.868 20.873 14.081-3.388 3.5647-6.2185-0.29951-9.2647 1.9137-3.0463 2.2132-0.22965 6.0875-4.6668 8.2081z"/>
  <path d="m64.703 82.212c0.58205 4.3949-13.71 0.3544-25.164-0.8771 8.5427-7.7288 17.73-19.398 19.842-15.5 2.3433 4.3237-2.2065 5.8216-1.0429 9.4027 1.1636 3.5811 5.7186 2.0996 6.3643 6.9748z"/>
 </g>
 <g transform="matrix(-.095269 -.053818 .053818 -.095269 80.131 151.6)" fill="#ffe680" stroke="#ffe680" stroke-linecap="round" stroke-linejoin="round" stroke-width="6">
  <path d="m41.229 53.012c4.3597 0.80455-3.8994 13.148-8.6102 23.661-4.7107-10.513-12.97-22.856-8.6102-23.661 4.8362-0.89248 4.8548 3.8974 8.6202 3.8974s3.764-4.7899 8.6001-3.8974z"/>
  <path d="m5.8187 65.937c2.1124-3.8977 11.3 7.7716 19.842 15.5-11.454 1.2315-25.746 5.272-25.164 0.8771 0.64567-4.8753 5.2069-3.4128 6.3705-6.9939 1.1636-3.5811-3.3924-5.0599-1.0491-9.3836z"/>
  <path d="m7.5667 103.21c-3.0542-3.2135 10.883-8.345 20.873-14.081-2.3683 11.274-2.9419 26.115-6.9418 24.203-4.4371-2.1206-1.6368-6.0067-4.683-8.2199-3.0463-2.2132-5.8605 1.6627-9.2485-1.9019z"/>
  <path d="m43.629 112.98c-4 1.9117-4.5735-12.929-6.9418-24.203 9.9904 5.7362 23.928 10.868 20.873 14.081-3.388 3.5647-6.2185-0.29951-9.2647 1.9137-3.0463 2.2132-0.22965 6.0875-4.6668 8.2081z"/>
  <path d="m64.703 82.212c0.58205 4.3949-13.71 0.3544-25.164-0.8771 8.5427-7.7288 17.73-19.398 19.842-15.5 2.3433 4.3237-2.2065 5.8216-1.0429 9.4027 1.1636 3.5811 5.7186 2.0996 6.3643 6.9748z"/>
 </g>
 <g transform="matrix(.10542 -.02931 .02931 .10542 164.81 91.868)" fill="#ffe680" stroke="#ffe680" stroke-linecap="round" stroke-linejoin="round" stroke-width="6">
  <path d="m41.229 53.012c4.3597 0.80455-3.8994 13.148-8.6102 23.661-4.7107-10.513-12.97-22.856-8.6102-23.661 4.8362-0.89248 4.8548 3.8974 8.6202 3.8974s3.764-4.7899 8.6001-3.8974z"/>
  <path d="m5.8187 65.937c2.1124-3.8977 11.3 7.7716 19.842 15.5-11.454 1.2315-25.746 5.272-25.164 0.8771 0.64567-4.8753 5.2069-3.4128 6.3705-6.9939 1.1636-3.5811-3.3924-5.0599-1.0491-9.3836z"/>
  <path d="m7.5667 103.21c-3.0542-3.2135 10.883-8.345 20.873-14.081-2.3683 11.274-2.9419 26.115-6.9418 24.203-4.4371-2.1206-1.6368-6.0067-4.683-8.2199-3.0463-2.2132-5.8605 1.6627-9.2485-1.9019z"/>
  <path d="m43.629 112.98c-4 1.9117-4.5735-12.929-6.9418-24.203 9.9904 5.7362 23.928 10.868 20.873 14.081-3.388 3.5647-6.2185-0.29951-9.2647 1.9137-3.0463 2.2132-0.22965 6.0875-4.6668 8.2081z"/>
  <path d="m64.703 82.212c0.58205 4.3949-13.71 0.3544-25.164-0.8771 8.5427-7.7288 17.73-19.398 19.842-15.5 2.3433 4.3237-2.2065 5.8216-1.0429 9.4027 1.1636 3.5811 5.7186 2.0996 6.3643 6.9748z"/>
 </g>
 <g transform="matrix(.053818 -.095269 .095269 .053818 161.36 106.84)" fill="#ffe680" stroke="#ffe680" stroke-linecap="round" stroke-linejoin="round" stroke-width="6">
  <path d="m41.229 53.012c4.3597 0.80455-3.8994 13.148-8.6102 23.661-4.7107-10.513-12.97-22.856-8.6102-23.661 4.8362-0.89248 4.8548 3.8974 8.6202 3.8974s3.764-4.7899 8.6001-3.8974z"/>
  <path d="m5.8187 65.937c2.1124-3.8977 11.3 7.7716 19.842 15.5-11.454 1.2315-25.746 5.272-25.164 0.8771 0.64567-4.8753 5.2069-3.4128 6.3705-6.9939 1.1636-3.5811-3.3924-5.0599-1.0491-9.3836z"/>
  <path d="m7.5667 103.21c-3.0542-3.2135 10.883-8.345 20.873-14.081-2.3683 11.274-2.9419 26.115-6.9418 24.203-4.4371-2.1206-1.6368-6.0067-4.683-8.2199-3.0463-2.2132-5.8605 1.6627-9.2485-1.9019z"/>
  <path d="m43.629 112.98c-4 1.9117-4.5735-12.929-6.9418-24.203 9.9904 5.7362 23.928 10.868 20.873 14.081-3.388 3.5647-6.2185-0.29951-9.2647 1.9137-3.0463 2.2132-0.22965 6.0875-4.6668 8.2081z"/>
  <path d="m64.703 82.212c0.58205 4.3949-13.71 0.3544-25.164-0.8771 8.5427-7.7288 17.73-19.398 19.842-15.5 2.3433 4.3237-2.2065 5.8216-1.0429 9.4027 1.1636 3.5811 5.7186 2.0996 6.3643 6.9748z"/>
 </g>
 <g transform="matrix(.053818 -.095269 .095269 .053818 129.24 246.73)" fill="#ffe680" stroke="#ffe680" stroke-linecap="round" stroke-linejoin="round" stroke-width="6">
  <path d="m41.229 53.012c4.3597 0.80455-3.8994 13.148-8.6102 23.661-4.7107-10.513-12.97-22.856-8.6102-23.661 4.8362-0.89248 4.8548 3.8974 8.6202 3.8974s3.764-4.7899 8.6001-3.8974z"/>
  <path d="m5.8187 65.937c2.1124-3.8977 11.3 7.7716 19.842 15.5-11.454 1.2315-25.746 5.272-25.164 0.8771 0.64567-4.8753 5.2069-3.4128 6.3705-6.9939 1.1636-3.5811-3.3924-5.0599-1.0491-9.3836z"/>
  <path d="m7.5667 103.21c-3.0542-3.2135 10.883-8.345 20.873-14.081-2.3683 11.274-2.9419 26.115-6.9418 24.203-4.4371-2.1206-1.6368-6.0067-4.683-8.2199-3.0463-2.2132-5.8605 1.6627-9.2485-1.9019z"/>
  <path d="m43.629 112.98c-4 1.9117-4.5735-12.929-6.9418-24.203 9.9904 5.7362 23.928 10.868 20.873 14.081-3.388 3.5647-6.2185-0.29951-9.2647 1.9137-3.0463 2.2132-0.22965 6.0875-4.6668 8.2081z"/>
  <path d="m64.703 82.212c0.58205 4.3949-13.71 0.3544-25.164-0.8771 8.5427-7.7288 17.73-19.398 19.842-15.5 2.3433 4.3237-2.2065 5.8216-1.0429 9.4027 1.1636 3.5811 5.7186 2.0996 6.3643 6.9748z"/>
 </g>
 <g transform="matrix(-.053818 .095269 -.095269 -.053818 153.18 241.75)" fill="#ffe680" stroke="#ffe680" stroke-linecap="round" stroke-linejoin="round" stroke-width="6">
  <path d="m41.229 53.012c4.3597 0.80455-3.8994 13.148-8.6102 23.661-4.7107-10.513-12.97-22.856-8.6102-23.661 4.8362-0.89248 4.8548 3.8974 8.6202 3.8974s3.764-4.7899 8.6001-3.8974z"/>
  <path d="m5.8187 65.937c2.1124-3.8977 11.3 7.7716 19.842 15.5-11.454 1.2315-25.746 5.272-25.164 0.8771 0.64567-4.8753 5.2069-3.4128 6.3705-6.9939 1.1636-3.5811-3.3924-5.0599-1.0491-9.3836z"/>
  <path d="m7.5667 103.21c-3.0542-3.2135 10.883-8.345 20.873-14.081-2.3683 11.274-2.9419 26.115-6.9418 24.203-4.4371-2.1206-1.6368-6.0067-4.683-8.2199-3.0463-2.2132-5.8605 1.6627-9.2485-1.9019z"/>
  <path d="m43.629 112.98c-4 1.9117-4.5735-12.929-6.9418-24.203 9.9904 5.7362 23.928 10.868 20.873 14.081-3.388 3.5647-6.2185-0.29951-9.2647 1.9137-3.0463 2.2132-0.22965 6.0875-4.6668 8.2081z"/>
  <path d="m64.703 82.212c0.58205 4.3949-13.71 0.3544-25.164-0.8771 8.5427-7.7288 17.73-19.398 19.842-15.5 2.3433 4.3237-2.2065 5.8216-1.0429 9.4027 1.1636 3.5811 5.7186 2.0996 6.3643 6.9748z"/>
 </g>
 <g transform="matrix(.10542 -.02931 .02931 .10542 137.3 223.89)" fill="#ffe680" stroke="#ffe680" stroke-linecap="round" stroke-linejoin="round" stroke-width="6">
  <path d="m41.229 53.012c4.3597 0.80455-3.8994 13.148-8.6102 23.661-4.7107-10.513-12.97-22.856-8.6102-23.661 4.8362-0.89248 4.8548 3.8974 8.6202 3.8974s3.764-4.7899 8.6001-3.8974z"/>
  <path d="m5.8187 65.937c2.1124-3.8977 11.3 7.7716 19.842 15.5-11.454 1.2315-25.746 5.272-25.164 0.8771 0.64567-4.8753 5.2069-3.4128 6.3705-6.9939 1.1636-3.5811-3.3924-5.0599-1.0491-9.3836z"/>
  <path d="m7.5667 103.21c-3.0542-3.2135 10.883-8.345 20.873-14.081-2.3683 11.274-2.9419 26.115-6.9418 24.203-4.4371-2.1206-1.6368-6.0067-4.683-8.2199-3.0463-2.2132-5.8605 1.6627-9.2485-1.9019z"/>
  <path d="m43.629 112.98c-4 1.9117-4.5735-12.929-6.9418-24.203 9.9904 5.7362 23.928 10.868 20.873 14.081-3.388 3.5647-6.2185-0.29951-9.2647 1.9137-3.0463 2.2132-0.22965 6.0875-4.6668 8.2081z"/>
  <path d="m64.703 82.212c0.58205 4.3949-13.71 0.3544-25.164-0.8771 8.5427-7.7288 17.73-19.398 19.842-15.5 2.3433 4.3237-2.2065 5.8216-1.0429 9.4027 1.1636 3.5811 5.7186 2.0996 6.3643 6.9748z"/>
 </g>
 <g transform="matrix(.10542 -.02931 .02931 .10542 143.43 217.47)" fill="#ffe680" stroke="#ffe680" stroke-linecap="round" stroke-linejoin="round" stroke-width="6">
  <path d="m41.229 53.012c4.3597 0.80455-3.8994 13.148-8.6102 23.661-4.7107-10.513-12.97-22.856-8.6102-23.661 4.8362-0.89248 4.8548 3.8974 8.6202 3.8974s3.764-4.7899 8.6001-3.8974z"/>
  <path d="m5.8187 65.937c2.1124-3.8977 11.3 7.7716 19.842 15.5-11.454 1.2315-25.746 5.272-25.164 0.8771 0.64567-4.8753 5.2069-3.4128 6.3705-6.9939 1.1636-3.5811-3.3924-5.0599-1.0491-9.3836z"/>
  <path d="m7.5667 103.21c-3.0542-3.2135 10.883-8.345 20.873-14.081-2.3683 11.274-2.9419 26.115-6.9418 24.203-4.4371-2.1206-1.6368-6.0067-4.683-8.2199-3.0463-2.2132-5.8605 1.6627-9.2485-1.9019z"/>
  <path d="m43.629 112.98c-4 1.9117-4.5735-12.929-6.9418-24.203 9.9904 5.7362 23.928 10.868 20.873 14.081-3.388 3.5647-6.2185-0.29951-9.2647 1.9137-3.0463 2.2132-0.22965 6.0875-4.6668 8.2081z"/>
  <path d="m64.703 82.212c0.58205 4.3949-13.71 0.3544-25.164-0.8771 8.5427-7.7288 17.73-19.398 19.842-15.5 2.3433 4.3237-2.2065 5.8216-1.0429 9.4027 1.1636 3.5811 5.7186 2.0996 6.3643 6.9748z"/>
 </g>
 <g transform="matrix(-.095269 -.053818 .053818 -.095269 140.25 230.8)" fill="#ffe680" stroke="#ffe680" stroke-linecap="round" stroke-linejoin="round" stroke-width="6">
  <path d="m41.229 53.012c4.3597 0.80455-3.8994 13.148-8.6102 23.661-4.7107-10.513-12.97-22.856-8.6102-23.661 4.8362-0.89248 4.8548 3.8974 8.6202 3.8974s3.764-4.7899 8.6001-3.8974z"/>
  <path d="m5.8187 65.937c2.1124-3.8977 11.3 7.7716 19.842 15.5-11.454 1.2315-25.746 5.272-25.164 0.8771 0.64567-4.8753 5.2069-3.4128 6.3705-6.9939 1.1636-3.5811-3.3924-5.0599-1.0491-9.3836z"/>
  <path d="m7.5667 103.21c-3.0542-3.2135 10.883-8.345 20.873-14.081-2.3683 11.274-2.9419 26.115-6.9418 24.203-4.4371-2.1206-1.6368-6.0067-4.683-8.2199-3.0463-2.2132-5.8605 1.6627-9.2485-1.9019z"/>
  <path d="m43.629 112.98c-4 1.9117-4.5735-12.929-6.9418-24.203 9.9904 5.7362 23.928 10.868 20.873 14.081-3.388 3.5647-6.2185-0.29951-9.2647 1.9137-3.0463 2.2132-0.22965 6.0875-4.6668 8.2081z"/>
  <path d="m64.703 82.212c0.58205 4.3949-13.71 0.3544-25.164-0.8771 8.5427-7.7288 17.73-19.398 19.842-15.5 2.3433 4.3237-2.2065 5.8216-1.0429 9.4027 1.1636 3.5811 5.7186 2.0996 6.3643 6.9748z"/>
 </g>
 <g transform="matrix(-.095269 -.053818 .053818 -.095269 147.34 224.66)" fill="#ffe680" stroke="#ffe680" stroke-linecap="round" stroke-linejoin="round" stroke-width="6">
  <path d="m41.229 53.012c4.3597 0.80455-3.8994 13.148-8.6102 23.661-4.7107-10.513-12.97-22.856-8.6102-23.661 4.8362-0.89248 4.8548 3.8974 8.6202 3.8974s3.764-4.7899 8.6001-3.8974z"/>
  <path d="m5.8187 65.937c2.1124-3.8977 11.3 7.7716 19.842 15.5-11.454 1.2315-25.746 5.272-25.164 0.8771 0.64567-4.8753 5.2069-3.4128 6.3705-6.9939 1.1636-3.5811-3.3924-5.0599-1.0491-9.3836z"/>
  <path d="m7.5667 103.21c-3.0542-3.2135 10.883-8.345 20.873-14.081-2.3683 11.274-2.9419 26.115-6.9418 24.203-4.4371-2.1206-1.6368-6.0067-4.683-8.2199-3.0463-2.2132-5.8605 1.6627-9.2485-1.9019z"/>
  <path d="m43.629 112.98c-4 1.9117-4.5735-12.929-6.9418-24.203 9.9904 5.7362 23.928 10.868 20.873 14.081-3.388 3.5647-6.2185-0.29951-9.2647 1.9137-3.0463 2.2132-0.22965 6.0875-4.6668 8.2081z"/>
  <path d="m64.703 82.212c0.58205 4.3949-13.71 0.3544-25.164-0.8771 8.5427-7.7288 17.73-19.398 19.842-15.5 2.3433 4.3237-2.2065 5.8216-1.0429 9.4027 1.1636 3.5811 5.7186 2.0996 6.3643 6.9748z"/>
 </g>
 <g transform="matrix(.053818 -.095269 .095269 .053818 140.94 234.55)" fill="#ffe680" stroke="#ffe680" stroke-linecap="round" stroke-linejoin="round" stroke-width="6">
  <path d="m41.229 53.012c4.3597 0.80455-3.8994 13.148-8.6102 23.661-4.7107-10.513-12.97-22.856-8.6102-23.661 4.8362-0.89248 4.8548 3.8974 8.6202 3.8974s3.764-4.7899 8.6001-3.8974z"/>
  <path d="m5.8187 65.937c2.1124-3.8977 11.3 7.7716 19.842 15.5-11.454 1.2315-25.746 5.272-25.164 0.8771 0.64567-4.8753 5.2069-3.4128 6.3705-6.9939 1.1636-3.5811-3.3924-5.0599-1.0491-9.3836z"/>
  <path d="m7.5667 103.21c-3.0542-3.2135 10.883-8.345 20.873-14.081-2.3683 11.274-2.9419 26.115-6.9418 24.203-4.4371-2.1206-1.6368-6.0067-4.683-8.2199-3.0463-2.2132-5.8605 1.6627-9.2485-1.9019z"/>
  <path d="m43.629 112.98c-4 1.9117-4.5735-12.929-6.9418-24.203 9.9904 5.7362 23.928 10.868 20.873 14.081-3.388 3.5647-6.2185-0.29951-9.2647 1.9137-3.0463 2.2132-0.22965 6.0875-4.6668 8.2081z"/>
  <path d="m64.703 82.212c0.58205 4.3949-13.71 0.3544-25.164-0.8771 8.5427-7.7288 17.73-19.398 19.842-15.5 2.3433 4.3237-2.2065 5.8216-1.0429 9.4027 1.1636 3.5811 5.7186 2.0996 6.3643 6.9748z"/>
 </g>
 <g transform="matrix(.10542 -.02931 .02931 .10542 129.15 232.71)" fill="#ffe680" stroke="#ffe680" stroke-linecap="round" stroke-linejoin="round" stroke-width="6">
  <path d="m41.229 53.012c4.3597 0.80455-3.8994 13.148-8.6102 23.661-4.7107-10.513-12.97-22.856-8.6102-23.661 4.8362-0.89248 4.8548 3.8974 8.6202 3.8974s3.764-4.7899 8.6001-3.8974z"/>
  <path d="m5.8187 65.937c2.1124-3.8977 11.3 7.7716 19.842 15.5-11.454 1.2315-25.746 5.272-25.164 0.8771 0.64567-4.8753 5.2069-3.4128 6.3705-6.9939 1.1636-3.5811-3.3924-5.0599-1.0491-9.3836z"/>
  <path d="m7.5667 103.21c-3.0542-3.2135 10.883-8.345 20.873-14.081-2.3683 11.274-2.9419 26.115-6.9418 24.203-4.4371-2.1206-1.6368-6.0067-4.683-8.2199-3.0463-2.2132-5.8605 1.6627-9.2485-1.9019z"/>
  <path d="m43.629 112.98c-4 1.9117-4.5735-12.929-6.9418-24.203 9.9904 5.7362 23.928 10.868 20.873 14.081-3.388 3.5647-6.2185-0.29951-9.2647 1.9137-3.0463 2.2132-0.22965 6.0875-4.6668 8.2081z"/>
  <path d="m64.703 82.212c0.58205 4.3949-13.71 0.3544-25.164-0.8771 8.5427-7.7288 17.73-19.398 19.842-15.5 2.3433 4.3237-2.2065 5.8216-1.0429 9.4027 1.1636 3.5811 5.7186 2.0996 6.3643 6.9748z"/>
 </g>
 <g transform="matrix(-.053818 .095269 -.095269 -.053818 140.34 250.16)" fill="#ffe680" stroke="#ffe680" stroke-linecap="round" stroke-linejoin="round" stroke-width="6">
  <path d="m41.229 53.012c4.3597 0.80455-3.8994 13.148-8.6102 23.661-4.7107-10.513-12.97-22.856-8.6102-23.661 4.8362-0.89248 4.8548 3.8974 8.6202 3.8974s3.764-4.7899 8.6001-3.8974z"/>
  <path d="m5.8187 65.937c2.1124-3.8977 11.3 7.7716 19.842 15.5-11.454 1.2315-25.746 5.272-25.164 0.8771 0.64567-4.8753 5.2069-3.4128 6.3705-6.9939 1.1636-3.5811-3.3924-5.0599-1.0491-9.3836z"/>
  <path d="m7.5667 103.21c-3.0542-3.2135 10.883-8.345 20.873-14.081-2.3683 11.274-2.9419 26.115-6.9418 24.203-4.4371-2.1206-1.6368-6.0067-4.683-8.2199-3.0463-2.2132-5.8605 1.6627-9.2485-1.9019z"/>
  <path d="m43.629 112.98c-4 1.9117-4.5735-12.929-6.9418-24.203 9.9904 5.7362 23.928 10.868 20.873 14.081-3.388 3.5647-6.2185-0.29951-9.2647 1.9137-3.0463 2.2132-0.22965 6.0875-4.6668 8.2081z"/>
  <path d="m64.703 82.212c0.58205 4.3949-13.71 0.3544-25.164-0.8771 8.5427-7.7288 17.73-19.398 19.842-15.5 2.3433 4.3237-2.2065 5.8216-1.0429 9.4027 1.1636 3.5811 5.7186 2.0996 6.3643 6.9748z"/>
 </g>
 <g transform="matrix(-.053818 .095269 -.095269 -.053818 159.32 207.71)" fill="#ffe680" stroke="#ffe680" stroke-linecap="round" stroke-linejoin="round" stroke-width="6">
  <path d="m41.229 53.012c4.3597 0.80455-3.8994 13.148-8.6102 23.661-4.7107-10.513-12.97-22.856-8.6102-23.661 4.8362-0.89248 4.8548 3.8974 8.6202 3.8974s3.764-4.7899 8.6001-3.8974z"/>
  <path d="m5.8187 65.937c2.1124-3.8977 11.3 7.7716 19.842 15.5-11.454 1.2315-25.746 5.272-25.164 0.8771 0.64567-4.8753 5.2069-3.4128 6.3705-6.9939 1.1636-3.5811-3.3924-5.0599-1.0491-9.3836z"/>
  <path d="m7.5667 103.21c-3.0542-3.2135 10.883-8.345 20.873-14.081-2.3683 11.274-2.9419 26.115-6.9418 24.203-4.4371-2.1206-1.6368-6.0067-4.683-8.2199-3.0463-2.2132-5.8605 1.6627-9.2485-1.9019z"/>
  <path d="m43.629 112.98c-4 1.9117-4.5735-12.929-6.9418-24.203 9.9904 5.7362 23.928 10.868 20.873 14.081-3.388 3.5647-6.2185-0.29951-9.2647 1.9137-3.0463 2.2132-0.22965 6.0875-4.6668 8.2081z"/>
  <path d="m64.703 82.212c0.58205 4.3949-13.71 0.3544-25.164-0.8771 8.5427-7.7288 17.73-19.398 19.842-15.5 2.3433 4.3237-2.2065 5.8216-1.0429 9.4027 1.1636 3.5811 5.7186 2.0996 6.3643 6.9748z"/>
 </g>
 <g fill="#ffe680" stroke="#ffe680" stroke-linecap="round" stroke-linejoin="round" stroke-width=".65651">
  <path d="m137.01 232.63c0.36109 0.32393-1.1144 1.0049-2.1542 1.7175 0.16019-1.2503 0.0936-2.874 0.54652-2.7003 0.50242 0.19268 0.2308 0.64092 0.58233 0.85581 0.35152 0.21489 0.62475-0.23237 1.0253 0.12695z"/>
  <path d="m146.53 244.43c0.32392-0.36111 1.0049 1.1144 1.7176 2.1542-1.2503-0.16019-2.874-0.0936-2.7003-0.54652 0.19268-0.50242 0.64092-0.2308 0.85581-0.58233 0.21489-0.35151-0.23238-0.62475 0.12694-1.0253z"/>
  <path d="m140.79 214.58c-0.36111-0.32392 1.1144-1.0049 2.1542-1.7175-0.16019 1.2503-0.0936 2.874-0.54652 2.7003-0.50242-0.19267-0.2308-0.64092-0.58233-0.85581-0.35151-0.21489-0.62475 0.23238-1.0253-0.12694z"/>
  <path d="m147.53 198.02c-0.0263-0.48439 1.4986 0.0774 2.7377 0.30873-0.99737 0.77082-2.0984 1.966-2.2958 1.523-0.21902-0.49151 0.29-0.6164 0.19338-1.0169-0.0966-0.4005-0.60608-0.27745-0.63524-0.81476z"/>
  <path d="m126.88 244.94c-0.48438 0.0263 0.0774-1.4986 0.30874-2.7377 0.77082 0.99736 1.9661 2.0984 1.523 2.2958-0.49151 0.21903-0.6164-0.29-1.0169-0.19338-0.40051 0.0966-0.27745 0.60608-0.81477 0.63525z"/>
  <path d="m169.8 181.43c0.36109 0.32393-1.1144 1.0049-2.1542 1.7175 0.16019-1.2503 0.0936-2.874 0.54652-2.7003 0.50242 0.19268 0.2308 0.64092 0.58233 0.85581 0.35152 0.21489 0.62475-0.23237 1.0253 0.12695z"/>
  <path d="m154.4 178.59c-0.48438 0.0263 0.0774-1.4986 0.30874-2.7377 0.77082 0.99736 1.9661 2.0984 1.523 2.2958-0.49151 0.21903-0.6164-0.29-1.0169-0.19338-0.40051 0.0966-0.27745 0.60608-0.81477 0.63525z"/>
  <path d="m165.42 166.67c0.32392-0.36111 1.0049 1.1144 1.7176 2.1542-1.2503-0.16019-2.874-0.0936-2.7003-0.54652 0.19268-0.50242 0.64092-0.2308 0.85581-0.58233 0.21489-0.35151-0.23238-0.62475 0.12694-1.0253z"/>
  <path d="m154.15 163.28c0.0263 0.48439-1.4986-0.0774-2.7377-0.30873 0.99737-0.77082 2.0984-1.9661 2.2958-1.523 0.21903 0.49152-0.29 0.6164-0.19338 1.0169 0.0966 0.40051 0.60608 0.27746 0.63525 0.81477z"/>
  <path d="m155.8 147.58c0.36109 0.32393-1.1144 1.0049-2.1542 1.7175 0.16019-1.2503 0.0936-2.874 0.54652-2.7003 0.50242 0.19268 0.2308 0.64092 0.58233 0.85581 0.35152 0.21489 0.62475-0.23237 1.0253 0.12695z"/>
  <path d="m167.57 113.45c-0.0263-0.48439 1.4986 0.0774 2.7377 0.30873-0.99737 0.77082-2.0984 1.966-2.2958 1.523-0.21902-0.49151 0.29-0.6164 0.19338-1.0169-0.0966-0.4005-0.60608-0.27745-0.63524-0.81476z"/>
  <path d="m134.95 61.269c-0.36111-0.32391 1.1144-1.0049 2.1542-1.7175-0.16019 1.2503-0.0936 2.874-0.54652 2.7003-0.50242-0.19268-0.23081-0.64092-0.58233-0.85581-0.35151-0.2149-0.62476 0.23239-1.0253-0.12695z"/>
  <path d="m150.27 47.401c0.32392-0.36109 1.0049 1.1144 1.7175 2.1542-1.2503-0.16019-2.874-0.0936-2.7003-0.54652 0.19268-0.50242 0.64092-0.2308 0.85581-0.58233 0.21489-0.35152-0.23238-0.62475 0.12695-1.0253z"/>
  <path d="m149.44 33.584c-0.0263-0.48438 1.4986 0.0774 2.7377 0.30874-0.99736 0.77082-2.0984 1.966-2.2958 1.5229-0.21902-0.49151 0.28999-0.6164 0.19338-1.0169-0.0966-0.40051-0.60609-0.27744-0.63524-0.81477z"/>
  <path d="m155.89 30.225c0.36109 0.32393-1.1144 1.0049-2.1542 1.7175 0.16019-1.2503 0.0936-2.874 0.54652-2.7003 0.50242 0.19268 0.2308 0.64092 0.58233 0.85581 0.35152 0.21489 0.62475-0.23237 1.0253 0.12695z"/>
  <path d="m98.916 54.869c-0.02628-0.48438 1.4986 0.0774 2.7377 0.30874-0.99737 0.77083-2.0984 1.966-2.2958 1.523-0.21902-0.49151 0.29-0.6164 0.19338-1.0169-0.09661-0.40051-0.60608-0.27745-0.63524-0.81477z"/>
  <path d="m93.324 48.098c-0.48438 0.02628 0.07741-1.4986 0.30874-2.7377 0.77082 0.99737 1.966 2.0984 1.523 2.2958-0.49151 0.21902-0.6164-0.29-1.0169-0.19338-0.40051 0.09661-0.27745 0.60607-0.81477 0.63524z"/>
  <path d="m105.56 31.855c0.36109 0.32393-1.1144 1.0049-2.1542 1.7175 0.16019-1.2503 0.0936-2.874 0.54652-2.7003 0.50242 0.19268 0.2308 0.64092 0.58233 0.85581 0.35152 0.21489 0.62475-0.23237 1.0253 0.12695z"/>
  <path d="m98.629 26.201c-0.02628-0.48438 1.4986 0.0774 2.7377 0.30874-0.99737 0.77082-2.0984 1.966-2.2958 1.523-0.21902-0.49151 0.29-0.6164 0.19338-1.0169-0.09661-0.40051-0.60608-0.27745-0.63524-0.81477z"/>
  <path d="m80.63 156.07c0.36109 0.32393-1.1144 1.0049-2.1542 1.7175 0.16019-1.2503 0.0936-2.874 0.54652-2.7003 0.50242 0.19268 0.2308 0.64092 0.58233 0.85581 0.35152 0.21489 0.62475-0.23237 1.0253 0.12695z"/>
  <path d="m83.842 147.18c-0.3611-0.32391 1.1144-1.0049 2.1542-1.7175-0.1602 1.2503-0.0936 2.874-0.54652 2.7003-0.50242-0.19268-0.2308-0.64092-0.58233-0.85581-0.35151-0.21489-0.62475 0.23238-1.0253-0.12695z"/>
  <path d="m82.142 135.48c0.0263 0.48438-1.4986-0.0774-2.7377-0.30874 0.99736-0.77082 2.0984-1.966 2.2958-1.523 0.21902 0.49151-0.29 0.6164-0.19338 1.0169 0.0966 0.40051 0.60608 0.27745 0.63524 0.81477z"/>
 </g>
</svg>
