<svg xmlns="http://www.w3.org/2000/svg" xmlns:xlink="http://www.w3.org/1999/xlink" cursor="default" viewBox="0 0 256 256">
    <defs>
        <linearGradient id="innoGrad2">
            <stop offset="0" stop-color="#ff8080"/>
            <stop offset="1" stop-color="#faa"/>
        </linearGradient>
        <linearGradient id="innoGrad3">
            <stop offset="0" stop-color="#ff2a2a"/>
            <stop offset="1" stop-color="#f55"/>
        </linearGradient>
        <linearGradient id="innoGrad1">
            <stop offset="0" stop-color="#ff8080"/>
            <stop offset="1" stop-color="#f55"/>
        </linearGradient>
        <linearGradient id="linearGradient907" x1="120.061" x2="102.979" y1="161.487" y2="159.838" gradientTransform="translate(16.201 -6.944) scale(.9025)" gradientUnits="userSpaceOnUse" xlink:href="#innoGrad1"/>
        <linearGradient id="linearGradient915" x1="138.421" x2="118.063" y1="173.148" y2="172.973" gradientTransform="translate(16.201 -6.944) scale(.9025)" gradientUnits="userSpaceOnUse" xlink:href="#innoGrad1"/>
        <linearGradient id="linearGradient923" x1="154.576" x2="136.136" y1="201.763" y2="201.492" gradientTransform="translate(16.201 -6.944) scale(.9025)" gradientUnits="userSpaceOnUse" xlink:href="#innoGrad1"/>
        <linearGradient id="linearGradient931" x1="177.356" x2="160.814" y1="171.119" y2="173.831" gradientTransform="translate(16.201 -6.944) scale(.9025)" gradientUnits="userSpaceOnUse" xlink:href="#innoGrad1"/>
        <linearGradient id="linearGradient939" x1="191.186" x2="181.424" y1="166.237" y2="168.136" gradientTransform="translate(16.201 -6.944) scale(.9025)" gradientUnits="userSpaceOnUse" xlink:href="#innoGrad1"/>
        <linearGradient id="linearGradient947" x1="121.181" x2="120.449" y1="37.906" y2="46.036" gradientTransform="translate(16.201 -6.944) scale(.9025)" gradientUnits="userSpaceOnUse" xlink:href="#innoGrad1"/>
        <linearGradient id="linearGradient955" x1="82.169" x2="71.864" y1="64.814" y2="60.881" gradientTransform="translate(16.201 -6.944) scale(.9025)" gradientUnits="userSpaceOnUse" xlink:href="#innoGrad3"/>
        <linearGradient id="linearGradient963" x1="97.66" x2="101.68" y1="66.948" y2="48.216" gradientTransform="translate(16.201 -6.944) scale(.9025)" gradientUnits="userSpaceOnUse" xlink:href="#innoGrad1"/>
        <linearGradient id="linearGradient971" x1="118.315" x2="102.111" y1="49.189" y2="46.792" gradientTransform="translate(16.201 -6.944) scale(.9025)" gradientUnits="userSpaceOnUse" xlink:href="#innoGrad2"/>
        <linearGradient id="linearGradient979" x1="148.229" x2="152.543" y1="46.409" y2="44.108" gradientTransform="translate(16.201 -6.944) scale(.9025)" gradientUnits="userSpaceOnUse" xlink:href="#innoGrad2"/>
        <linearGradient id="linearGradient987" x1="130.204" x2="129.724" y1="53.216" y2="60.599" gradientTransform="translate(16.201 -6.944) scale(.9025)" gradientUnits="userSpaceOnUse" xlink:href="#innoGrad2"/>
        <linearGradient id="linearGradient995" x1="130.971" x2="130.587" y1="46.409" y2="40.464" gradientTransform="translate(16.201 -6.944) scale(.9025)" gradientUnits="userSpaceOnUse" xlink:href="#innoGrad2"/>
        <linearGradient id="linearGradient1003" x1="124.834" x2="119.465" y1="50.819" y2="51.586" gradientTransform="translate(16.201 -6.944) scale(.9025)" gradientUnits="userSpaceOnUse" xlink:href="#innoGrad2"/>
        <linearGradient id="linearGradient1051" x1="120.328" x2="119.561" y1="26.849" y2="18.508" gradientUnits="userSpaceOnUse" xlink:href="#innoGrad3"/>
    </defs>
    <path fill="url(#linearGradient1051)" fill-rule="evenodd" stroke="#000" stroke-width=".712" d="M86.75 26.313c3.297-2.547 3.77-1.74 11.062-3.065 1.3-1.337 3.877-4.19 6.05-7.531 6.35-.346 21.033-.64 23.612-.598 2.633 1.768 7.514 7.6 8.38 7.615 12.548-.506 18.385 3.497 16.195 2.949-20.306 7.555-41.736 8.71-65.3.63z"/>
    <path fill="url(#linearGradient955)" fill-rule="evenodd" stroke="#000" stroke-width=".712" d="M78.763 54.928c-.06-7.841 4.875-17.594 7.096-24.834l12.98 4.413S80.493 82.618 80.406 82.272c-.086-.346-1.644-27.344-1.644-27.344z"/>
    <path fill="#f55" fill-rule="evenodd" stroke="#000" stroke-width=".712" d="M188.747 240.188c4.956-4.273 9.315-7.585 13.706-9.729l-17.622-51.886z"/>
    <path fill="url(#linearGradient939)" fill-rule="evenodd" stroke="#000" stroke-width=".712" d="M204.166 231.56s.942-8.602.306-12.726c-7.305-47.379-20.581-96.061-31.2-144.806-1.779-8.162-5.446-12.456-9.029-25.545-2.328-8.502-7.512-16.705-12.76-20.948l-6.79 18.141 54.578 186.741z"/>
    <path fill="url(#linearGradient931)" fill-rule="evenodd" stroke="#000" stroke-width=".712" d="M139.798 41.515l6.853-3.67s6.372 2.904 11.258 17.131c9.487 27.622 23.513 81.226 27.657 110.136 3.627 25.306 3.916 75.626 3.916 75.626-13.192-1.072-10.49-1.967-14.44-2.937z"/>
    <path fill="#ff8080" fill-rule="evenodd" stroke="#000" stroke-width=".712" d="M157.984 242.972c7.773.641 23.578-1.597 24.4-4.192l-33.04-187.72-8.812-12.482-7.097 2.937z"/>
    <path fill="url(#linearGradient923)" fill-rule="evenodd" stroke="#000" stroke-width=".712" d="M133.924 231.928l20.07 4.405 4.16 6.853L138.33 41.76z"/>
    <path fill="url(#linearGradient915)" fill-rule="evenodd" stroke="#000" stroke-width=".712" d="M120.708 238.78l16.441-3.325 7.947-86.093-7.5-105.644-10.525 2.447z"/>
    <path fill="url(#linearGradient907)" fill-rule="evenodd" stroke="#000" stroke-width=".712" d="M122.824 247.923c-7.256-2.952-13.898-4.88-20.472-6.695l13.706-203.873 13.706.734c-1.878 68.764-2.132 141.907-6.94 209.834z"/>
    <path fill="url(#linearGradient963)" fill-rule="evenodd" stroke="#000" stroke-width=".712" d="M105.778 246.796s-9.344-6.451-14.317-8.322c-5.47-2.057-17.56-3.977-17.56-3.977s-1.907-3.447-1.836-5.323c2.175-57.782 4.48-138.39 6.735-175.567l2.677 18.717c3.506-12.837 6.201-25.727 12.989-38.344l26.212 3.572s-3.764 32.527-4.707 48.863c-1.135 19.677.018 39.437-1.05 59.117-1.837 33.84-9.143 101.264-9.143 101.264z"/>
    <path fill="url(#linearGradient947)" fill-rule="evenodd" stroke="#000" stroke-width=".712" d="M86.853 26.413c.69-2.68 9.482-2.59 14.05-4.058 15.72 3.128 43.696 5.675 49.244.407 1.371-.036 2.512.308 3.933.855l.28 9.332c-25.875.528-62.762 8.467-67.507-6.536z"/>
    <path fill="url(#linearGradient987)" fill-rule="evenodd" stroke="#000" stroke-width=".712" d="M127.744 56.995c3.55.742 7.075 1.15 10.463-.367-.456-5.772-1.005-11.543.123-17.315-2.317-.136-4.666-.27-9.056-.245-.008 5.976-.543 11.952-1.53 17.927z"/>
    <path fill="url(#linearGradient995)" fill-rule="evenodd" stroke="#000" stroke-width=".712" d="M130.62 36.498l-1.407-8.627c2.665-.816 8.556-3.815 10.28 1.468l-1.286 7.77z"/>
    <path fill="url(#linearGradient971)" fill-rule="evenodd" stroke="#000" stroke-width=".712" d="M84.73 33.561c-.03-3.978.771-5.545 1.972-8.068 5.175 3.179 19.818 6.358 41.715 9.537l-.244 6.118c-14.332-.404-28.66-.768-43.443-7.587z"/>
    <path fill="url(#linearGradient979)" fill-rule="evenodd" stroke="#000" stroke-width=".712" d="M143.225 33.928c4.554-1.538 9.793-2.757 11.197-8.076 1.27 2.012 2.135 4.125 2.447 7.097-4.321 6.525-9.59 6.41-14.868 6.241z"/>
    <path fill="url(#linearGradient1003)" fill-rule="evenodd" stroke="#000" stroke-width=".712" d="M130.498 34.785c-2.69-1.763-4.425-4.259-9.056-4.528-.964 4.625-.465 9.412 0 14.195 4.288-.03 7.688-2.13 11.014-4.405z"/>
    <path fill="#faa" fill-rule="evenodd" stroke="#000" stroke-width=".712" d="M127.683 35.03c6.453-1.277 11.864-2.728 21.048-3.55 1.773 2.876 1.68 7.743-.612 11.014-8.346.624-14.419-.032-20.191-.856z"/>
    <path d="M136.342 22.789l-.007-.28c-3.167.08-9.724.306-14.56.559-5.619.293-8.336.575-10.412.81 1.895-.215 4.987-.398 10.422-.53 4.527-.11 10.037-.169 14.564-.28l-.007-.28z"/>
</svg>
