<svg version="1.1" viewBox="0 0 256 256" xmlns="http://www.w3.org/2000/svg" xmlns:xlink="http://www.w3.org/1999/xlink">
 <defs>
  <linearGradient id="linearGradient1676-3" x1="157.97" x2="167.59" y1="217.97" y2="210.78" gradientTransform="translate(-1.0752 1.4799)" gradientUnits="userSpaceOnUse">
   <stop stop-color="#5a2ca0" offset="0"/>
   <stop stop-color="#7137c8" offset="1"/>
  </linearGradient>
  <linearGradient id="linearGradient1668-5" x1="151.32" x2="170.92" y1="224.54" y2="208.61" gradientTransform="translate(-1.0752 1.4799)" gradientUnits="userSpaceOnUse">
   <stop stop-color="#442178" offset="0"/>
   <stop stop-color="#5a2ca0" offset="1"/>
  </linearGradient>
 </defs>
 <g transform="translate(-283.66 -17.358)" font-size="40px" letter-spacing="0px" word-spacing="0px">
  <g font-family="'Courier New'">
   <text x="74.983047" y="165.15254" font-weight="bold" style="line-height:1.25" xml:space="preserve"><tspan x="74.983047" y="200.22791"/></text>
   <g>
    <text x="80.81356" y="165.96609" style="line-height:1.25" xml:space="preserve"><tspan x="80.81356" y="201.04146"/></text>
    <text x="89.491524" y="155.93221" style="line-height:1.25" xml:space="preserve"><tspan x="89.491524" y="191.00757"/></text>
    <text x="45.966103" y="152.54237" style="line-height:1.25" xml:space="preserve"><tspan x="45.966103" y="188.13348"/></text>
   </g>
  </g>
  <text x="71.52565" y="154.94365" font-family="Consolas" style="line-height:1.25" xml:space="preserve"><tspan x="71.52565" y="190.53476"/></text>
 </g>
 <g transform="rotate(-90 -7.322 -20.339)">
  <g transform="matrix(1.0607 0 0 1.0607 -290.52 -20.785)">
   <path d="m12.429 51.524h229.43v152.95h-229.43z" fill="#c2c2e2" stroke="#231f20" stroke-miterlimit="10"/>
  </g>
  <g transform="matrix(1.0607 0 0 1.0607 -290.52 -20.785)" fill="#8b8aba">
   <path d="m32.667 190.14h-5.905v-5.906l-11.333-10.703v27.941h27.94zm188.95-124.29h5.904v5.904l11.334 10.703v-27.94h-27.94zm-194.86 5.904v-5.904h5.904l10.703-11.333h-27.94v27.94zm200.76 112.48v5.905h-5.903l-10.703 11.334h27.94v-27.942zm-16.267 14.664h-168.23l-6.425-6.802h181.08zm0-141.38h-168.23l-6.426 6.804h181.08zm-192.83 116.01v-91.253l6.803-6.426v104.1zm218.43 0.091v-91.253l-6.802-6.426v104.1z"/>
  </g>
 </g>
 <g transform="matrix(1.0607 0 0 1.0607 -6.8616 -7.7685)">
  <g>
   <path d="m168.35 98.856-9.343-9.332a2.576 2.576 0 0 1 0-3.614l1.611-1.611a2.569 2.569 0 0 1 3.604 0l9.342 9.343a2.557 2.557 0 0 1 0 3.609l-1.611 1.605a2.546 2.546 0 0 1-3.603 0zm-5.476-13.196a0.633 0.633 0 0 0-0.901 0l-1.611 1.606a0.653 0.653 0 0 0 0 0.905l9.336 9.337a0.642 0.642 0 0 0 0.902 0l1.61-1.611a0.631 0.631 0 0 0 0-0.901z" fill="#d7d6ec"/>
  </g>
  <g>
   <path d="m147.64 82.958-12.752-3.419a2.545 2.545 0 0 1-1.803-3.127l0.582-2.191a2.552 2.552 0 0 1 3.129-1.802l12.753 3.412a2.562 2.562 0 0 1 1.808 3.122l-0.592 2.203c-0.364 1.354-1.771 2.172-3.125 1.802zm-11.342-8.692a0.629 0.629 0 0 0-0.777 0.447l-0.595 2.203a0.644 0.644 0 0 0 0.454 0.778l12.753 3.417a0.643 0.643 0 0 0 0.784-0.453l0.593-2.198a0.638 0.638 0 0 0-0.457-0.784z" fill="#d7d6ec"/>
  </g>
  <g>
   <path d="m121.75 79.539-12.754 3.419a2.557 2.557 0 0 1-3.122-1.803l-0.594-2.203a2.56 2.56 0 0 1 1.807-3.122l12.754-3.412a2.546 2.546 0 0 1 3.127 1.802l0.587 2.191a2.55 2.55 0 0 1-1.805 3.128zm-14.164-1.862a0.63 0.63 0 0 0-0.449 0.784l0.583 2.198c0.094 0.34 0.442 0.543 0.783 0.453l12.755-3.417a0.634 0.634 0 0 0 0.448-0.778l-0.583-2.203a0.637 0.637 0 0 0-0.784-0.447z" fill="#d7d6ec"/>
  </g>
  <g>
   <path d="m97.628 89.525-9.337 9.332a2.553 2.553 0 0 1-3.609 0l-1.611-1.605a2.553 2.553 0 0 1 0-3.609l9.342-9.331a2.551 2.551 0 0 1 3.603-0.012l1.612 1.611a2.56 2.56 0 0 1 0 3.614zm-13.204 5.472a0.644 0.644 0 0 0 0 0.901l1.612 1.611a0.64 0.64 0 0 0 0.9 0l9.337-9.337a0.647 0.647 0 0 0 0-0.905l-1.61-1.612a0.637 0.637 0 0 0-0.901 6e-3z" fill="#d7d6ec"/>
  </g>
  <g>
   <path d="m81.728 110.23-3.424 12.759c-0.358 1.356-1.768 2.161-3.122 1.802l-2.205-0.592c-1.354-0.356-2.158-1.762-1.802-3.122l3.419-12.754a2.56 2.56 0 0 1 3.129-1.801l2.197 0.587a2.556 2.556 0 0 1 1.808 3.121zm-8.704 11.34a0.639 0.639 0 0 0 0.452 0.782l2.2 0.593a0.637 0.637 0 0 0 0.782-0.454l3.419-12.753a0.641 0.641 0 0 0-0.454-0.784l-2.198-0.587a0.632 0.632 0 0 0-0.778 0.449z" fill="#d7d6ec"/>
  </g>
  <g>
   <path d="m78.304 136.11 3.424 12.754a2.564 2.564 0 0 1-1.813 3.129l-2.191 0.586a2.552 2.552 0 0 1-3.129-1.803l-3.419-12.754c-0.356-1.356 0.448-2.765 1.802-3.119l2.205-0.594a2.556 2.556 0 0 1 3.121 1.801zm-1.858 14.177c0.09 0.334 0.437 0.536 0.778 0.446l2.198-0.588a0.639 0.639 0 0 0 0.454-0.782l-3.419-12.749a0.635 0.635 0 0 0-0.782-0.458l-2.2 0.584a0.646 0.646 0 0 0-0.452 0.786z" fill="#d7d6ec"/>
  </g>
  <g>
   <path d="m88.285 160.24 9.343 9.333a2.555 2.555 0 0 1 0 3.609l-1.612 1.61a2.55 2.55 0 0 1-3.603-7e-3l-9.342-9.329a2.552 2.552 0 0 1 0-3.608l1.611-1.608a2.553 2.553 0 0 1 3.603 0zm5.476 13.2a0.631 0.631 0 0 0 0.901 0l1.61-1.604a0.65 0.65 0 0 0 0-0.907l-9.337-9.338a0.632 0.632 0 0 0-0.9 0l-1.612 1.605a0.65 0.65 0 0 0 0 0.906z" fill="#d7d6ec"/>
  </g>
  <g>
   <path d="m109 176.15 12.754 3.418a2.555 2.555 0 0 1 1.806 3.121l-0.593 2.203a2.547 2.547 0 0 1-3.122 1.797l-12.749-3.414a2.561 2.561 0 0 1-1.813-3.121l0.594-2.202a2.547 2.547 0 0 1 3.123-1.802zm11.343 8.692a0.642 0.642 0 0 0 0.784-0.445l0.587-2.199a0.64 0.64 0 0 0-0.453-0.782l-12.755-3.418a0.64 0.64 0 0 0-0.783 0.455l-0.594 2.194a0.644 0.644 0 0 0 0.46 0.783z" fill="#d7d6ec"/>
  </g>
  <g>
   <path d="m134.88 179.56 12.747-3.418a2.555 2.555 0 0 1 3.129 1.802l0.593 2.202a2.561 2.561 0 0 1-1.808 3.121l-12.753 3.414a2.555 2.555 0 0 1-3.129-1.797l-0.582-2.203a2.54 2.54 0 0 1 1.803-3.121zm14.165 1.862a0.65 0.65 0 0 0 0.457-0.783l-0.593-2.201a0.645 0.645 0 0 0-0.784-0.448l-12.753 3.418a0.643 0.643 0 0 0-0.454 0.782l0.595 2.199a0.63 0.63 0 0 0 0.777 0.445z" fill="#d7d6ec"/>
  </g>
  <g>
   <path d="m159 169.58 9.343-9.33a2.552 2.552 0 0 1 3.604-3e-3l1.611 1.608a2.557 2.557 0 0 1 0 3.608l-9.342 9.329a2.552 2.552 0 0 1-3.604 7e-3l-1.611-1.61a2.561 2.561 0 0 1-1e-3 -3.609zm13.203-5.471a0.645 0.645 0 0 0 0-0.905l-1.61-1.604a0.633 0.633 0 0 0-0.902 0l-9.336 9.338a0.645 0.645 0 0 0 0 0.899l1.611 1.61a0.631 0.631 0 0 0 0.901 0z" fill="#d7d6ec"/>
  </g>
  <g>
   <path d="m174.91 148.87 3.418-12.754a2.558 2.558 0 0 1 3.123-1.808l2.204 0.594c1.354 0.354 2.164 1.763 1.8 3.119l-3.423 12.754a2.543 2.543 0 0 1-3.12 1.803l-2.199-0.586a2.554 2.554 0 0 1-1.803-3.122zm8.7-11.345a0.633 0.633 0 0 0-0.453-0.777l-2.199-0.593a0.637 0.637 0 0 0-0.782 0.448l-3.418 12.759a0.644 0.644 0 0 0 0.453 0.782l2.199 0.588a0.631 0.631 0 0 0 0.774-0.446z" fill="#d7d6ec"/>
  </g>
  <g>
   <path d="m178.33 122.99-3.412-12.754a2.55 2.55 0 0 1 1.797-3.127l2.199-0.587a2.545 2.545 0 0 1 3.12 1.801l3.423 12.754c0.364 1.354-0.445 2.766-1.8 3.122l-2.204 0.592a2.56 2.56 0 0 1-3.123-1.801zm1.864-14.173a0.643 0.643 0 0 0-0.779-0.449l-2.202 0.587a0.646 0.646 0 0 0-0.453 0.778l3.418 12.76a0.644 0.644 0 0 0 0.782 0.454l2.199-0.593a0.635 0.635 0 0 0 0.453-0.778z" fill="#d7d6ec"/>
  </g>
  <path d="m137.91 75.854a1.09 1.09 0 0 1-1.086 1.091h-17.012a1.083 1.083 0 0 1-1.085-1.091c0-0.594 0.48-1.084 1.085-1.084h17.012a1.09 1.09 0 0 1 1.086 1.084zm-28.135 2.4a1.083 1.083 0 0 1-0.392 1.48l-14.735 8.51a1.1 1.1 0 0 1-1.488-0.398 1.097 1.097 0 0 1 0.397-1.489l14.735-8.502a1.082 1.082 0 0 1 1.483 0.399zm-23.159 16.143c0.513 0.296 0.693 0.961 0.39 1.483l-8.502 14.736a1.087 1.087 0 0 1-1.489 0.391 1.079 1.079 0 0 1-0.391-1.476l8.502-14.736a1.094 1.094 0 0 1 1.49-0.398zm-11.994 25.561c0.598 0 1.085 0.486 1.085 1.085v17.016c0 0.592-0.487 1.086-1.085 1.086a1.087 1.087 0 0 1-1.085-1.086v-17.016a1.08 1.08 0 0 1 1.085-1.085zm2.393 28.134a1.097 1.097 0 0 1 1.489 0.396l8.502 14.734a1.085 1.085 0 0 1-0.39 1.483 1.09 1.09 0 0 1-1.49-0.397l-8.502-14.736a1.085 1.085 0 0 1 0.391-1.48zm16.145 23.165c0.302-0.526 0.963-0.7 1.484-0.401l14.74 8.513c0.515 0.297 0.693 0.962 0.392 1.479a1.085 1.085 0 0 1-1.483 0.401l-14.735-8.51a1.086 1.086 0 0 1-0.398-1.482zm25.56 11.992c0-0.603 0.487-1.09 1.085-1.09h17.019a1.086 1.086 0 0 1 0 2.171h-17.019a1.088 1.088 0 0 1-1.085-1.081zm28.133-2.397a1.083 1.083 0 0 1 0.401-1.483l14.734-8.513a1.076 1.076 0 0 1 1.478 0.401 1.08 1.08 0 0 1-0.392 1.481l-14.734 8.51a1.094 1.094 0 0 1-1.487-0.396zm23.17-16.146a1.082 1.082 0 0 1-0.403-1.483l8.505-14.734a1.096 1.096 0 0 1 1.488-0.393c0.52 0.293 0.697 0.965 0.396 1.478l-8.51 14.735c-0.3 0.519-0.955 0.699-1.476 0.397zm11.984-25.561a1.081 1.081 0 0 1-1.085-1.084v-17.017a1.09 1.09 0 0 1 1.085-1.085c0.604 0 1.087 0.493 1.087 1.085v17.017a1.09 1.09 0 0 1-1.087 1.084zm-2.394-28.132a1.095 1.095 0 0 1-1.488-0.396l-8.505-14.736a1.081 1.081 0 0 1 0.403-1.483 1.081 1.081 0 0 1 1.478 0.398l8.511 14.729a1.093 1.093 0 0 1-0.399 1.488zm-16.144-23.166a1.093 1.093 0 0 1-1.479 0.398l-14.734-8.51a1.0847 1.0847 0 1 1 1.086-1.878l14.734 8.502c0.518 0.303 0.693 0.973 0.393 1.488zm-25.825 30.566-9.33-26.828-9.325 26.828zm28.404 0.582-28.404-0.582 5.764 17.746zm-14.417 44.362-8.223-27.198-15.094 10.969zm-46.634 0 23.317-16.229-15.092-10.969zm-14.411-44.362 28.403-0.582-5.767 17.746z" fill="#d7d6ec"/>
 </g>
 <path d="m72.529 84.028c1.0347-1.7782 0.93435-1.9108 1.6529 0.01439 2.5128-1.525 2.8345-2.8388 3.8334 0.12326 0 0 1.4038-1.259 2.1535-1.4363 0.7452-0.17862-4.5787 0.21348-4.5787 0.21348s0.77818 1.5813 1.3007 1.4088c0.52479-0.17102 5.9825-1.4725 5.9825-1.4725s1.9878 1.9256 1.9841 1.7108c2.182-2.7961 1.8783-2.3452-1.3786-1.5125 0 0-1.9242 1.5911-1.3994 1.5798m45.006-11.459s-3.3022 2.022-3.7535 1.336c-0.4513-0.68606-0.75122-0.84207-0.75122-0.84207s-2.1018 1.9522-2.1767 1.6334c-0.075-0.31878-3.9055-1.0592-3.9055-1.0592s2.7001-1.3745 3.0007-1.4335m-40.902 14.452-2.8522 0.73858-0.82835-1.8009-1.4262 1.5682m47.407-10.172s-1.3519 0.82011-1.801 0.77413c-0.45132-0.04592-1.8788-0.93078-1.8788-0.93078l-1.3512 1.0872s2.4787 0.60265 3.0036-0.20545c0.52491-0.8081 0.59776-1.9292-0.75189-1.5881-1.3518 0.34115-2.703 1.4283-2.703 1.4283s-0.52487 0.16795-0.90048-0.25308c-0.37562-0.42103-0.52559-0.57963-0.52559-0.57963m-13.94 5.0599s-0.74916 1.238-1.4247 1.1414c-0.67771-0.09495-2.4044-1.0284-2.4044-1.0284s-1.2005 1.5114-0.97489 1.9334c0.22565 0.42362 2.5523-0.41256 3.2286-1.168 0.67414-0.75694 0.44712-2.1922-1.0555-1.4769-1.5004 0.71673-3.977 1.7136-4.3526 1.6119-0.3756-0.1002-2.4786-0.92042-2.4786-0.92042s-1.7261 1.2526-2.0275 1.0429m39.92-6.2137s-3.8292 0.91283-4.2048 0.65145m-40.148 8.733s-1.2012 1.0846-1.9525 0.88268c-0.75122-0.20039-3.6069-2.7162-3.7576-2.1809-0.14853 0.53524-0.6727 1.6104-0.97265 1.6141m49.501-4.5642s-1.4262 1.5682-1.9524 0.56338-2.0309-2.0472-2.9307-1.235c-0.89981 0.81381-1.5747 1.6245-1.5732 1.3573-2e-3 -0.26551-1.2054-1.634-1.2054-1.634m-3.0727 0.58346-1.0483 1.6699-0.60269-1.6981-3.1515 1.9688-0.67616-2.1229s-1.4262 1.2489-2.1782 1.42c-0.74981 0.17107 4.5819-0.17673 4.5819-0.17673s-0.7541-1.5881-1.279-1.4201c-0.52487 0.16795-6.0059 1.424-6.0059 1.424s-1.9552-1.9419-1.9559-1.7285c8.7e-4 0.21336-1.8732 2.322-1.8732 2.322l3.2278-0.7965s1.9511-1.5765 1.424-1.5682m4.788-4.3644-0.97942 1.6895-0.6751-1.6839-3.0681 2.0309-0.76836-2.1065s-1.3725 1.2751-2.1152 1.4628c-0.74498 0.18629 4.5727-0.27011 4.5727-0.27011s-0.81981-1.5709-1.34-1.3923c-0.51795 0.17851-5.9452 1.5452-5.9452 1.5452s-2.0379-1.8997-2.0276-1.6881c0.0104 0.21463-1.7773 2.3577-1.7773 2.3577l3.1952-0.86161s1.8839-1.613 1.3593-1.594m5.9753-2.6145 2.8337-0.7703 0.87651 1.7873 1.3838-1.5839m-28.989 5.6455s0.71583-1.2463 1.3955-1.159c0.67755 0.08882 2.4323 1.0015 2.4323 1.0015s1.1604-1.5256 0.92166-1.9443c-0.23665-0.42179-2.5427 0.44146-3.1967 1.2071-0.4041 3.4967 3.0713 0.35812 5.4041-0.20242 0.37774 0.09707 2.5043 0.89054 2.5043 0.89054s1.6924-1.2731 2.0003-1.0682m-20.948 0.56866s3.8058-0.95824 4.188-0.70164m20.099-3.8504s1.1721-1.0992 1.9276-0.90656c0.75546 0.19413 3.6807 2.6727 3.816 2.1363 0.13523-0.53794 0.63279-1.6185 0.9326-1.6268m-16.507 0.71361s1.3838-1.5839 1.9364-0.58596c0.55475 0.99792 2.0853 2.0212 2.9628 1.1972 0.88192-0.82253 1.5345-1.6418 1.5418-1.3749 7e-3 0.26691 1.247 1.619 1.247 1.619m-23.818-0.13526 1.0061-1.681 0.64658 1.6893 3.0998-2.0042 0.73542 2.112s1.3926-1.2664 2.14-1.4451c0.74516-0.18016-4.5781 0.23342-4.5781 0.23342s0.79348 1.5762 1.3182 1.4021c0.51809-0.17391 5.9686-1.4967 5.9686-1.4967s2.0053 1.9175 1.9994 1.7042c-6e-3 -0.21475 1.8152-2.3434 1.8152-2.3434l-3.2092 0.83436s-1.9085 1.5999-1.3838 1.5855" fill="none" stroke="#1a1a1a" stroke-linecap="square" stroke-linejoin="round" stroke-width=".69906"/>
 <path d="m130.48 97.465-1.0457 1.6636-0.61647-1.699-3.1595 1.9526-0.69464-2.1245s-1.4255 1.2411-2.1814 1.4087c-0.75143 0.16914 4.6073-0.15537 4.6073-0.15537s-0.76549-1.5909-1.2929-1.4251c-0.52966 0.16435-6.0328 1.3964-6.0328 1.3964s-1.9784-1.9506-1.977-1.7358c4e-3 0.21172-1.8734 2.3112-1.8734 2.3112l3.2435-0.78134s1.9525-1.5665 1.4246-1.5618m-15.084 9.3038s3.3431-1.9799 3.7896-1.2882c0.44646 0.6917 0.74641 0.85151 0.74641 0.85151s2.5185-0.96646 5.1792-1.9891c-2.9004 1.0867-1.8363 2.1633-1.8363 2.1633s0.0499 0.66895-0.25305 0.72405m-31.774-0.632s1.3686-0.80285 1.8198-0.75118c0.45344 0.0516 1.8796 0.95452 1.8796 0.95452l1.3707-1.0699s-2.4864-0.63404-3.0231 0.16731c-0.53669 0.80133-0.6221 1.9214 0.739 1.5975 1.3633-0.32395 2.7341-1.3939 2.7341-1.3939s0.52971-0.16127 0.90292 0.26449 0.52232 0.58624 0.52232 0.58624m14.189-7.4708s0.76687-1.2283 1.4453-1.1232c0.68058 0.10354 8.3516-0.37942 8.3516-0.37942s-4.7207-0.05774-4.943-0.48264c-0.22236-0.42643-2.5714 0.38011-3.2599 1.1269-0.68623 0.74828-0.47346 2.1862 1.0456 1.4901 1.5168-0.6976 4.0184-1.6629 4.3952-1.5564 0.37667 0.10495 2.4829 0.95176 2.4829 0.95176s1.7496-1.2305 2.0505-1.017m-40.33 8.2948s3.8611-0.8641 4.236-0.598m-2.5233-7.1065s1.4514-1.5499 1.9698-0.53853c0.51839 1.0114 2.0204 2.0728 2.9342 1.272 0.91381-0.80229 1.6013-1.6043 1.597-1.3372 0 0.2655 1.1946 1.6491 1.1946 1.6491m3.0967-0.54437 1.0725-1.6564 0.58774 1.7056 3.1909-1.9285 0.65704 2.1312s1.4479-1.2306 2.2061-1.3922c0.75598-0.16153-4.6101 0.11884-4.6101 0.11884s0.74122 1.5974 1.2709 1.4362 6.0558-1.3476 6.0558-1.3476 1.9454 1.9664 1.9484 1.7531c5.3e-4 -0.21333 1.9091-2.2979 1.9091-2.2979l-3.255 0.75543s-1.9794 1.5516-1.4492 1.5499m-4.9764 6.8916 1.0034-1.6768 0.66073 1.6922 3.1078-1.9918 0.74994 2.116s1.3942-1.2575 2.1433-1.4358c0.75128-0.17682-4.6019 0.21205-4.6019 0.21205s0.8075 1.5811 1.3326 1.4092c0.52287-0.17191 5.9961-1.4695 5.9961-1.4695s2.029 1.9253 2.021 1.7136c-8e-3 -0.21474 1.8131-2.3349 1.8131-2.3349l-3.2229 0.82095s-1.9122 1.5889-1.3844 1.5766m-4.4514-6.1881s-3.2892 2.0205-3.7556 1.3337c-0.4641-0.68532-0.7684-0.84044-0.7684-0.84044s-2.1795 2.9078-2.2603 2.5898c-2.0946 0.35173-5.494-2.5592-4.5198-2.8839 1.5094 1.8113 5.6566 2.2403 3.6664-0.56701m34.265 4.9226-2.8583 0.73425-0.86217-1.7982-1.409 1.5662m-35.456-4.3756s-1.3462 0.81787-1.7995 0.77237c-0.45556-0.047-1.9058-0.93112-1.9058-0.93112l-1.3416 1.0848s2.5037 0.60309 3.0203-0.20408c0.51444-0.80562 0.57099-1.9268-0.78097-1.5876-1.3564 0.34073-2.698 1.4256-2.698 1.4256s-0.52516 0.16735-0.91158-0.25207c-0.38422-0.42099-0.53774-0.57986-0.53774-0.57986m34.305-0.101s-0.73345 1.237-1.4161 1.1412c-0.68047-0.0974-2.4355-1.0323-2.4355-1.0323s-1.1836 1.5107-0.94803 1.9323c0.23343 0.42474 2.5621-0.40912 3.2282-1.1663 0.66834-0.7557 0.41568-2.1915-1.083-1.4758-1.4965 0.71419-3.9755 1.7114-4.3543 1.6096-0.37886-0.10185-2.509-0.92223-2.509-0.92223s-1.716 1.2515-2.0234 1.0427m19.253-0.78178s3.7363 0.33453 3.3548 0.0731m8.917-0.19323s-1.1908 1.0842-1.9485 0.88198c-0.75768-0.2037-3.6729-2.7191-3.8148-2.1844-0.14184 0.53616-0.65397 1.6103-0.95559 1.6148" fill="none" stroke="#1a1a1a" stroke-linecap="square" stroke-linejoin="round" stroke-width=".70107"/>
 <g transform="rotate(-1.0866 930.37 1377.9)" fill="none" stroke="#c83737" stroke-linecap="square" stroke-linejoin="round" stroke-width=".69401">
  <path d="m191.27 125.46s1.2699-0.83558 1.6932-0.78038c0.42528 0.0571 1.765 1.0031 1.765 1.0031l1.2719-1.1135s-2.3301-0.66808-2.8233 0.1675c-0.49517 0.83558-0.56506 2.0062 0.70482 1.6712 1.2719-0.33499 2.5417-1.4485 2.5417-1.4485s0.49517-0.16749 0.84658 0.2779c0.35341 0.44539 0.49517 0.61288 0.49517 0.61288m-10.908-0.52343s0.51314-1.2182 0.83461-0.97262c0.32146 0.24363 1.5434 3.1634 1.6073 2.5562 0.0639-0.60908 0.28952-1.8272 0.4193-1.8272m-69.013-0.7234 0.98834-1.7264 0.56505 1.7835 2.965-2.0062 0.63493 2.227s1.3418-1.281 2.0466-1.4466c0.70681-0.1675-4.3068 0.11039-4.3068 0.11039s0.70682 1.6712 1.202 1.5037c0.49317-0.16559 5.6465-1.3914 5.6465-1.3914s1.8369 2.0614 1.8369 1.8387c0-0.22269 1.765-2.3964 1.765-2.3964l-3.0349 0.78039s-1.8369 1.616-1.3438 1.616m-18.17-1.6921s1.2699-0.83558 1.6932-0.78038c0.42529 0.0571 1.765 1.0031 1.765 1.0031l1.2719-1.1135s-2.3301-0.66808-2.8233 0.1675c-0.49517 0.83558-0.56505 2.0062 0.70482 1.6712 1.2719-0.33499 2.5417-1.4485 2.5417-1.4485s0.49517-0.16749 0.84658 0.2779c0.35341 0.44539 0.49517 0.61288 0.49517 0.61288m60.684 0.7274 2.6815-0.72328 0.7787 1.8939 1.3398-1.616m-13.505 0.29312s1.1301-1.1135 1.8369-0.89078c0.70482 0.2227 3.3863 2.8969 3.5281 2.3412 0.13976-0.55768 0.63493-1.6731 0.91846-1.6731m-79.703-0.0972 0.98834-1.7264 0.56506 1.7835 2.965-2.0062 0.63494 2.227s1.3418-1.281 2.0466-1.4466c0.70681-0.16749-4.3068 0.1104-4.3068 0.1104s0.70682 1.6712 1.202 1.5037c0.49317-0.16559 5.6465-1.3914 5.6465-1.3914s1.8369 2.0614 1.8369 1.8387c0-0.2227 1.765-2.3964 1.765-2.3964l-3.0349 0.78038s-1.8369 1.616-1.3438 1.616"/>
  <path d="m148.35 123.97-1.046 1.692-0.50456-1.8015-3.031 1.905-0.55943-2.2471s-1.3842 1.235-2.0942 1.3767c-0.71206 0.14355 4.3081 0.035 4.3081 0.035s-0.65003-1.6941-1.1506-1.5434c-0.49848 0.14885-5.6903 1.2001-5.6903 1.2001s-1.7663-2.1222-1.7738-1.8996c-8e-3 0.22256-1.8449 2.3354-1.8449 2.3354l3.0595-0.67755s1.8904-1.5531 1.3975-1.5697m18.102 2.3042s-1.2973 0.79226-1.7185 0.72281c-0.42312-0.0714-1.7302-1.0621-1.7302-1.0621l-1.3087 1.0699s2.3062 0.74632 2.8273-0.0722c0.52308-0.8184 0.63241-1.986-0.64804-1.694-1.2824 0.29189-2.5892 1.3619-2.5892 1.3619s-0.50054 0.15069-0.83672-0.3063c-0.33818-0.45706-0.47421-0.62924-0.47421-0.62924m12.54 0.53218-2.7044 0.63239-0.71436-1.919-1.3935 1.5698m13.508 0.1627s-1.167 1.0747-1.8659 0.8283c-0.69691-0.24635-3.2867-3.0095-3.4471-2.4588-0.15849 0.55265-0.69101 1.6507-0.97438 1.6411"/>
 </g>
 <g fill="none" stroke="#1a1a1a" stroke-linecap="square" stroke-linejoin="round">
  <path d="m183.48 72.62-1.0395 1.6635-0.61322-1.6991-3.1411 1.9521-0.69098-2.1246s-1.4172 1.2408-2.1687 1.4084c-0.7471 0.16902 4.5809-0.15465 4.5809-0.15465s-0.76136-1.591-1.2857-1.4253c-0.5266 0.16426-5.9981 1.3954-5.9981 1.3954s-1.9674-1.9509-1.966-1.7361c4e-3 0.21172-1.8623 2.3109-1.8623 2.3109l3.2248-0.78083s1.9411-1.5662 1.4162-1.5616m-45.145 12.509s3.3237-1.9793 3.7677-1.2876c0.44402 0.69177 0.74228 0.85162 0.74228 0.85162s2.7936-2.1167 2.8652-1.797c-2.0108 1.491 1.2148 2.4307 3.2231 1.301 0 0-2.7147 1.3397-3.016 1.3947m-2.7854-6.6255s1.3606-0.80264 1.8092-0.7509c0.45085 0.05172 1.8689 0.95482 1.8689 0.95482l1.3627-1.0697s-2.4723-0.63442-3.0058 0.16683c-0.53349 0.80125-0.61825 1.9213 0.73502 1.5976 1.3555-0.32373 2.7182-1.3934 2.7182-1.3934s0.52665-0.16119 0.8978 0.26462c0.37113 0.42581 0.51942 0.58632 0.51942 0.58632m15.449-4.6881s0.7623-1.2282 1.4368-1.123c0.6767 0.10365 2.3935 1.0591 2.3935 1.0591s1.2166-1.4957 0.99543-1.9207c-0.22115-0.42647-2.5566 0.3797-3.241 1.1264-0.68218 0.74818-0.4704 2.1861 1.0398 1.4903 1.508-0.69736 3.9952-1.6623 4.3698-1.5557 0.37453 0.10501 2.4688 0.95215 2.4688 0.95215s1.7394-1.2302 2.0386-1.0167m-40.818 5.8435s3.8388-0.86349 4.2117-0.59732m-1.7902-4.662s1.4429-1.5497 1.9584-0.53822c0.51557 1.0115 2.0091 2.0731 2.9176 1.2725 0.90845-0.80214 1.5919-1.604 1.5876-1.337 3e-4 0.26549 1.1881 1.6492 1.1881 1.6492m3.0788-0.54388 1.0661-1.6562 0.58465 1.7057 3.1724-1.928 0.65361 2.1313s1.4394-1.2304 2.1932-1.3919c0.75163-0.16141-4.5837 0.11811-4.5837 0.11811s0.73723 1.5975 1.2639 1.4364c0.52665-0.16119 6.021-1.3467 6.021-1.3467s1.9346 1.9667 1.9376 1.7534c1.4e-4 -0.21331 1.8978-2.2976 1.8978-2.2976l-3.2363 0.75492s-1.9678 1.5512-1.4406 1.5496m-6.2899 4.1103 0.99735-1.6767 0.65722 1.6923 3.0897-1.9912 0.74599 2.1161s1.386-1.2573 2.1308-1.4355c0.74696-0.1767-4.5755 0.21132-4.5755 0.21132s0.80312 1.5812 1.3252 1.4094c0.51985-0.17182 5.9616-1.4686 5.9616-1.4686s2.0177 1.9256 2.0097 1.714c-8e-3 -0.21474 1.8024-2.3346 1.8024-2.3346l-3.2043 0.82044s-1.901 1.5886-1.3762 1.5763m-4.5649 4.359-2.8418 0.73379-0.85752-1.7984-1.4007 1.5659m27.61-7.0939s-0.72907 1.2369-1.4078 1.141c-0.67659-0.09752-2.4217-1.0326-2.4217-1.0326s-1.1766 1.5105-0.94231 1.9321c0.23216 0.42478 2.5473-0.40872 3.2095-1.1658 0.66439-0.75559 0.41295-2.1914-1.0771-1.4759-1.4878 0.71395-3.9524 1.7108-4.3291 1.6089s-2.4948-0.92262-2.4948-0.92262-1.706 1.2512-2.0117 1.0424m20.954-0.29907s-3.816 0.9092-4.1954 0.64772m-18.701 5.4133s-1.1838 1.084-1.9372 0.88167c-0.75338-0.20382-3.6523-2.7196-3.7932-2.185-0.14096 0.53613-0.64998 1.6102-0.94988 1.6146" stroke-width=".69906"/>
  <path d="m183.33 96.45-0.91621 1.677-0.59544-1.6902-2.8317 1.994-0.67529-2.1146s-1.2702 1.2596-1.9538 1.4373c-0.67955 0.17908 4.1848-0.2166 4.1848-0.2166s-0.72872-1.5802-1.2047-1.4074c-0.47807 0.17133-5.455 1.4762-5.455 1.4762-1.9854-2.2507-1.8318-1.5291-3.4881 0.6265l2.9322-0.82427m-48.485 9.4837s2.998-2.0237 3.4182-1.3382c0.4201 0.68554 0.69606 0.84128 0.69606 0.84128s1.901-1.953 1.973-1.6344c0.0721 0.31861 3.5829 1.0562 3.5829 1.0562s-2.4544 1.376-2.7287 1.4351m7.9701-4.8798s1.2275-0.8208 1.6387-0.77514c0.41324 0.0456 1.7282 0.92917 1.7282 0.92917l1.2239-1.0878s-2.2733-0.60072-2.7446 0.20753c-0.4713 0.8082-0.52581 1.929 0.70474 1.5871 1.2326-0.34199 2.4565-1.4298 2.4565-1.4298s0.47818-0.16827 0.82622 0.25236c0.34803 0.42065 0.4869 0.57909 0.4869 0.57909m12.107-4.5488s0.67174-1.2381 1.2906-1.1421c0.62079 0.09446 2.2099 1.0264 2.2099 1.0264s1.0816-1.5117 0.87067-1.9335c-0.21093-0.42333-2.3296 0.41421-2.94 1.1699-0.60832 0.75718-0.38522 2.1918 0.98118 1.4757 1.3643-0.71756 3.6184-1.7159 3.9631-1.6144 0.34456 0.09991 2.2766 0.91839 2.2766 0.91839s1.565-1.2534 1.8429-1.0439m-35.852 5.7204s3.4919-0.91521 3.8382-0.65418m-3.077-3.9621s1.2873-1.5687 1.7794-0.56458c0.49209 1.0042 1.8793 2.0452 2.6935 1.2325 0.81408-0.81418 1.4225-1.6251 1.424-1.358 5e-3 0.26541 1.12 1.6326 1.12 1.6326m2.8036-0.58542 0.94069-1.6701 0.56948 1.6972 2.8607-1.9704 0.64125 2.1217s1.2907-1.2495 1.9766-1.4211c0.68385-0.17154-4.1882 0.17984-4.1882 0.17984s0.70674 1.587 1.1849 1.4188c0.47817-0.16827 5.4769-1.4278 5.4769-1.4278s1.809 1.9399 1.8073 1.7265c-3e-3 -0.2133 1.688-2.3226 1.688-2.3226l-2.9432 0.7985s-1.7672 1.5774-1.2853 1.5687m-3.7447 3.8471 0.87745-1.6896 0.63554 1.6829 2.7839-2.0324 0.72539 2.1053s1.2414-1.2756 1.9186-1.4639c0.67927-0.18676-4.1788 0.27323-4.1788 0.27323s0.76666 1.5698 1.2404 1.391c0.47174-0.17882 5.4202-1.5489 5.4202-1.5489s1.8841 1.8976 1.8725 1.6862c-0.0119-0.21453 1.5999-2.3582 1.5999-2.3582l-2.9126 0.86358s-1.7054 1.6139-1.2259 1.5945m-15.312 2.6178-2.5831 0.77204-0.82083-1.7862-1.2484 1.5844m36.325-5.664s-0.64116 1.2464-1.2637 1.1596c-0.62055-0.0883-2.2352-0.9995-2.2352-0.9995s-1.0447 1.5259-0.82186 1.9443c0.22095 0.42149 2.3205-0.44309 2.9103-1.2089 0.59193-0.76433 0.33261-2.1963-1.0149-1.4608-1.3456 0.73386-3.5784 1.7638-3.9248 1.667-0.3465-0.0968-2.2998-0.88852-2.2998-0.88852s-1.534 1.2739-1.8178 1.0693m19.151-0.58283s-3.4701 0.9606-3.8223 0.70435" stroke-width=".6684"/>
  <path d="m110.08 118.3-0.92261 1.6444-0.50887-1.7097-2.7473 1.8953-0.57065-2.1366s-1.2443 1.2151-1.8976 1.3692c-0.64954 0.15557 3.9711-0.0724 3.9711-0.0724s-0.63868-1.6044-1.0952-1.4481c-0.45844 0.15476-5.2154 1.2875-5.2154 1.2875-1.8072-2.3177-1.6852-1.5913-3.3245 0.506l2.8044-0.7228m-26.974 4.2935 1.1948-1.045c3.6345 3.7532-3.647 3.4085 0.38275 0.37895 0 0 0.45844-0.1517 0.77438 0.28067 0.31594 0.43238 0.44232 0.59551 0.44232 0.59551m9.8178-4.0769s0.67671-1.2142 1.2597-1.0969c0.58496 0.11577 2.0598 1.1019 2.0598 1.1019s1.0738-1.4736 0.88784-1.9024c-0.18598-0.43035-2.2202 0.33374-2.823 1.068-0.60094 0.73578-0.43644 2.1772 0.88125 1.5086 1.0539-0.67421 3.4835-1.5902 3.8066-1.477 0.32312 0.11171 2.1265 0.99625 2.1265 0.99625s1.5233-1.1987 1.7797-0.97987m-18.609-0.37378c-7.6015 0.51158-2.8362 1.4394 2.3376 0.2559 0 0 1.6502 2.001 1.6556 1.7878 4e-3 -0.21327 1.6747-2.263 1.6747-2.263l-2.814 0.69667s-1.7255 1.5156-1.2687 1.5235m-0.58946 3.6264 0.8863-1.6584 0.54708 1.7038 2.7033-1.9354 0.61839 2.1291s1.2175-1.2321 1.8651-1.3969c0.64953-0.16325-3.9672 0.12917-3.9672 0.12917s0.67497 1.5953 1.1296 1.4328c0.45268-0.16247 5.1847-1.3613 5.1847-1.3613s1.7228 1.9614 1.7187 1.7496c-5e-3 -0.21482 1.5924-2.3017 1.5924-2.3017l-2.7872 0.76277s-1.6681 1.5542-1.2132 1.5513m-9.2617 3.292-2.472 0.68263-0.71923-1.8134-1.2343 1.5405m32.717-5.8044s-0.64801 1.2236-1.2349 1.1154c-0.58494-0.10964-2.0846-1.0759-2.0846-1.0759s-1.0394 1.4891-0.84195 1.9148c0.19552 0.42885 2.2125-0.36291 2.7962-1.108 0.58563-0.7435-1.4188-2.4024-2.7193-1.7138-1.2986 0.68709-1.6416 1.8584-1.9666 1.7497-0.32506-0.10865-2.1494-0.96719-2.1494-0.96719s-1.4946 1.2203-1.7568 1.006m15.818-0.94021s-3.3183 0.84054-3.6436 0.57231m-22.635 5.3013s-1.04 1.0625-1.6901 0.84671c-0.65008-0.21729-3.1286-2.7846-3.2578-2.2526-0.12919 0.5335-0.58442 1.5982-0.84432 1.5972m13.069-0.87608s-1.2343 1.5405-1.6906 0.52601c-0.4582-1.0144-1.7612-2.0843-2.5398-1.2878-0.7824 0.79493-1.366 1.5937-1.3664 1.3267-3.2e-4 -0.26699-1.0439-1.6565-1.0439-1.6565" stroke-width=".65072"/>
 </g>
 <g transform="rotate(178.81 135.39 134)" fill="none" stroke="#c83737" stroke-linecap="square" stroke-linejoin="round" stroke-width=".69401">
  <path d="m191.27 125.46s1.2699-0.83558 1.6932-0.78038c0.42528 0.0571 1.765 1.0031 1.765 1.0031l1.2719-1.1135s-2.3301-0.66808-2.8233 0.1675c-0.49517 0.83558-0.56506 2.0062 0.70482 1.6712 1.2719-0.33499 2.5417-1.4485 2.5417-1.4485s0.49517-0.16749 0.84658 0.2779c0.35341 0.44539 0.49517 0.61288 0.49517 0.61288m-10.908-0.52343s0.51314-1.2182 0.83461-0.97262c0.32146 0.24363 1.5434 3.1634 1.6073 2.5562 0.0639-0.60908 0.28952-1.8272 0.4193-1.8272m-69.013-0.7234 0.98834-1.7264 0.56505 1.7835 2.965-2.0062 0.63493 2.227s1.3418-1.281 2.0466-1.4466c0.70681-0.1675-4.3068 0.11039-4.3068 0.11039s0.70682 1.6712 1.202 1.5037c0.49317-0.16559 5.6465-1.3914 5.6465-1.3914s1.8369 2.0614 1.8369 1.8387c0-0.22269 1.765-2.3964 1.765-2.3964l-3.0349 0.78039s-1.8369 1.616-1.3438 1.616m49.01-0.57451 2.6815-0.72328 0.7787 1.8939 1.3398-1.616m-13.505 0.29312s1.1301-1.1135 1.8369-0.89078c0.70482 0.2227 3.3863 2.8969 3.5281 2.3412 0.13976-0.55768 0.63493-1.6731 0.91846-1.6731"/>
  <path d="m148.35 123.97-1.046 1.692-0.50456-1.8015-3.031 1.905-0.55943-2.2471s-1.3842 1.235-2.0942 1.3767c-0.71206 0.14355 4.3081 0.035 4.3081 0.035s-0.65003-1.6941-1.1506-1.5434c-0.49848 0.14885-5.6903 1.2001-5.6903 1.2001s-1.7663-2.1222-1.7738-1.8996c-8e-3 0.22256-1.8449 2.3354-1.8449 2.3354l3.0595-0.67755s1.8904-1.5531 1.3975-1.5697m18.102 2.3042s-1.2973 0.79226-1.7185 0.72281c-0.42312-0.0714-1.7302-1.0621-1.7302-1.0621l-1.3087 1.0699s2.3062 0.74632 2.8273-0.0722c0.52308-0.8184 0.63241-1.986-0.64804-1.694-1.2824 0.29189-2.5892 1.3619-2.5892 1.3619s-0.50054 0.15069-0.83672-0.3063c-0.33818-0.45706-0.47421-0.62924-0.47421-0.62924m12.54 0.53218-2.7044 0.63239-0.71436-1.919-1.3935 1.5698m13.508 0.1627s-1.167 1.0747-1.8659 0.8283c-0.69691-0.24635-3.2867-3.0095-3.4471-2.4588-0.15849 0.55265-0.69101 1.6507-0.97438 1.6411"/>
 </g>
 <path d="m163.23 117.86-0.99113 1.6636-0.5843-1.699-2.9945 1.9526-0.65838-2.1245s-1.3511 1.2411-2.0675 1.4087c-0.7122 0.16914 4.3668-0.15538 4.3668-0.15538s-0.72553-1.5909-1.2254-1.4251c-0.50202 0.16434-5.7179 1.3964-5.7179 1.3964s-1.8751-1.9506-1.8738-1.7358c4e-3 0.21172-1.7756 2.3112-1.7756 2.3112l3.0742-0.78135s1.8506-1.5665 1.3502-1.5618m10.914 2.2419s3.1686-1.9799 3.5918-1.2882c0.42315 0.6917 0.70745 0.85151 0.70745 0.85151s2.0236-1.9252 2.0918-1.6056c0.0681 0.31968 3.712 1.1087 3.712 1.1087s-2.588 1.3401-2.8752 1.3952m-47.114 3.0585s1.2971-0.80285 1.7248-0.75118c0.42977 0.0516 1.7814 0.95452 1.7814 0.95452l1.2992-1.0699s-2.3567-0.63404-2.8653 0.16731c-0.50868 0.80133-0.58963 1.9214 0.70042 1.5975 1.2922-0.32395 2.5913-1.3939 2.5913-1.3939s0.50206-0.16127 0.85578 0.26448c0.35372 0.42576 0.49506 0.58624 0.49506 0.58624m5.2361-4.0995s0.72683-1.2283 1.3698-1.1232c0.64504 0.10354 2.2814 1.0588 2.2814 1.0588s1.1599-1.4959 0.94919-1.9208c-0.21076-0.42644-2.4372 0.38011-3.0897 1.1269-0.6504 0.74829-0.44875 2.1862 0.99097 1.4901 1.4376-0.6976 3.8087-1.6629 4.1657-1.5564 0.35701 0.10495 2.3533 0.95176 2.3533 0.95176s1.6583-1.2305 1.9434-1.017m-29.534 5.211s3.6595-0.8641 4.0149-0.598m-11.083-4.0228s1.3756-1.5499 1.867-0.53853c0.49132 1.0114 1.9149 2.0728 2.781 1.272 0.8661-0.80229 1.5177-1.6043 1.5136-1.3372 0 0.2655 1.1323 1.6491 1.1323 1.6491m2.935-0.54437 1.0165-1.6564 0.55706 1.7056 3.0244-1.9285 0.62274 2.1312s1.3723-1.2306 2.0909-1.3922c0.71652-0.16154-4.3695 0.11884-4.3695 0.11884s0.70252 1.5974 1.2046 1.4362 5.7397-1.3476 5.7397-1.3476 1.8438 1.9664 1.8468 1.7531c4.9e-4 -0.21332 1.8094-2.2979 1.8094-2.2979l-3.0851 0.75543s-1.876 1.5516-1.3735 1.5499m3.4954 3.5202 0.95098-1.6768 0.62624 1.6922 2.9456-1.9918 0.7108 2.116s1.3214-1.2575 2.0314-1.4358c0.71208-0.17682-4.3617 0.21205-4.3617 0.21205s0.76534 1.5811 1.263 1.4092c0.49558-0.17191 5.6831-1.4695 5.6831-1.4695s1.9231 1.9253 1.9155 1.7136c-7e-3 -0.21474 1.7185-2.3349 1.7185-2.3349l-3.0546 0.82095s-1.8124 1.5889-1.3121 1.5766m40.107-5.3238-2.7091 0.73425-0.81717-1.7982-1.3354 1.5662m-11.619 2.3935s-0.69517 1.237-1.3422 1.1412c-0.64495-0.0974-2.3083-1.0323-2.3083-1.0323s-1.1218 1.5107-0.89854 1.9323c0.22124 0.42474 2.4283-0.40912 3.0596-1.1663 0.63346-0.7557 0.39398-2.1915-1.0265-1.4758-1.4184 0.71419-3.768 1.7114-4.127 1.6096-0.35908-0.10185-2.3781-0.92223-2.3781-0.92223s-1.6264 1.2515-1.9178 1.0427m16.235-0.49415s-3.6378 0.90981-3.9994 0.64839m12.058-0.4321s-1.1286 1.0842-1.8468 0.88198c-0.71812-0.2037-3.4812-2.7191-3.6156-2.1844-0.13444 0.53616-0.61983 1.6103-0.90572 1.6148" fill="none" stroke="#1a1a1a" stroke-linecap="square" stroke-linejoin="round" stroke-width=".68253"/>
 <g transform="rotate(178.83 122.94 138.7)" fill="none" stroke="#c83737" stroke-linecap="square" stroke-linejoin="round" stroke-width=".69401">
  <path d="m120.71 124.36 0.98834-1.7264 0.56505 1.7835 2.965-2.0062 0.63493 2.227s1.3418-1.281 2.0466-1.4466c0.70681-0.1675-4.3068 0.11039-4.3068 0.11039s0.70682 1.6712 1.202 1.5037c0.49317-0.16559 5.6465-1.3914 5.6465-1.3914s1.8369 2.0614 1.8369 1.8387c0-0.22269 1.765-2.3964 1.765-2.3964l-3.0349 0.78039s-1.8369 1.616-1.3438 1.616m-18.17-1.6921s1.2699-0.83558 1.6932-0.78038c0.42529 0.0571 1.765 1.0031 1.765 1.0031l1.2719-1.1135s-2.3301-0.66808-2.8233 0.1675c-0.49517 0.83558-0.56505 2.0062 0.70482 1.6712 1.2719-0.33499 2.5417-1.4485 2.5417-1.4485s0.49517-0.16749 0.84658 0.2779c0.35341 0.44539 0.49517 0.61288 0.49517 0.61288"/>
  <path d="m148.35 123.97-1.046 1.692-0.50456-1.8015-3.031 1.905-0.55943-2.2471s-1.3842 1.235-2.0942 1.3767c-0.71206 0.14355 4.3081 0.035 4.3081 0.035s-0.65003-1.6941-1.1506-1.5434c-0.49848 0.14885-5.6903 1.2001-5.6903 1.2001s-1.7663-2.1222-1.7738-1.8996c-8e-3 0.22256-1.8449 2.3354-1.8449 2.3354l3.0595-0.67755s1.8904-1.5531 1.3975-1.5697m18.102 2.3042s-1.2973 0.79226-1.7185 0.72281c-0.42312-0.0714-1.7302-1.0621-1.7302-1.0621l-1.3087 1.0699s2.3062 0.74632 2.8273-0.0722c0.52308-0.8184 0.63241-1.986-0.64804-1.694-1.2824 0.29189-2.5892 1.3619-2.5892 1.3619s-0.50054 0.15069-0.83672-0.3063c-0.33818-0.45706-0.47421-0.62924-0.47421-0.62924m12.54 0.53218-2.7044 0.63239-0.71436-1.919-1.3935 1.5698m13.508 0.1627s-1.167 1.0747-1.8659 0.8283c-0.69691-0.24635-3.2867-3.0095-3.4471-2.4588-0.15849 0.55265-0.69101 1.6507-0.97438 1.6411"/>
 </g>
 <g fill="none" stroke-linejoin="round">
  <path d="m75.671 220.68 57.549 0.0746" stroke="#c83737" stroke-dasharray="0.695, 1.39" stroke-linecap="square" stroke-width=".695"/>
  <g stroke="#1a1a1a" stroke-linecap="square">
   <path d="m75.69 199.2 47.997 0.21019" stroke-dasharray="0.69507569, 1.39015139" stroke-width=".695"/>
   <path d="m115.92 175.34 57.549 0.0746" stroke-dasharray="0.69507569, 1.39015139" stroke-width=".695"/>
   <path d="m113.84 172.89-0.92261 1.6444-0.50887-1.7097-2.7473 1.8953-0.57065-2.1366s-1.2443 1.2151-1.8976 1.3692c-0.64954 0.15557 3.9711-0.0724 3.9711-0.0724s-0.63868-1.6044-1.0952-1.4481c-0.45844 0.15476-5.2154 1.2875-5.2154 1.2875-1.8072-2.3177-1.6852-1.5913-3.3246 0.506l2.8044-0.7228m-14.362 0.42674s0.6767-1.2142 1.2597-1.0969c0.58496 0.11577 2.0598 1.1019 2.0598 1.1019s1.0738-1.4736 0.88784-1.9024c-0.18597-0.43035-2.2202 0.33374-2.823 1.068-0.60094 0.73578-0.43643 2.1772 0.88125 1.5086 1.0539-0.67421 3.4835-1.5902 3.8066-1.477 0.32313 0.11171 2.1265 0.99625 2.1265 0.99625s1.5233-1.1987 1.7797-0.97987m-18.609-0.37378c-7.6015 0.51158-2.8362 1.4394 2.3376 0.2559 0 0 1.6502 2.001 1.6556 1.7878 4e-3 -0.21327 1.6747-2.263 1.6747-2.263l-2.814 0.69667s-1.7255 1.5156-1.2687 1.5235" stroke-width=".65072"/>
   <path d="m72.827 162.09 104.94 0.12919" stroke-width="1.575"/>
   <path d="m129.03 179.05s-3.3022 2.022-3.7535 1.336-0.75122-0.84207-0.75122-0.84207-2.1018 1.9522-2.1767 1.6334c-0.075-0.31878-3.9055-1.0592-3.9055-1.0592s2.7001-1.3745 3.0007-1.4335m-7.8359 1.0769 2.8337-0.77031 0.87651 1.7873 1.3838-1.5839m-14.189 0.38731s1.1721-1.0992 1.9276-0.90656c0.75546 0.19413 3.6807 2.6727 3.816 2.1363 0.13523-0.53794 0.63279-1.6185 0.9326-1.6268m-16.507 0.71362s1.3838-1.5839 1.9364-0.58596c0.55475 0.99791 2.0854 2.0212 2.9628 1.1972 0.88191-0.82253 1.5345-1.6418 1.5418-1.3749 7e-3 0.2669 1.2469 1.619 1.2469 1.619m-23.818-0.13526 1.0061-1.681 0.64657 1.6893 3.0998-2.0042 0.73542 2.112s1.3926-1.2664 2.14-1.4451c0.74515-0.18015-4.5781 0.23342-4.5781 0.23342s0.79349 1.5762 1.3182 1.4021c0.51809-0.17391 5.9686-1.4967 5.9686-1.4967s2.0053 1.9174 1.9994 1.7042c-6e-3 -0.21475 1.8152-2.3434 1.8152-2.3434l-3.2092 0.83436s-1.9085 1.5999-1.3838 1.5855" stroke-width=".69906"/>
   <path d="m157.82 179.91s-1.4349 1.557-1.9557 0.5482c-0.52072-1.0088-2.0197-2.0628-2.9241-1.2576-0.90435 0.80677-1.5837 1.6122-1.5808 1.345-2e-3 -0.26549-1.1965-1.6432-1.1965-1.6432m-3.076 0.55959-1.0576 1.6616-0.59335-1.7027-3.1625 1.9442-0.66447-2.1279s-1.4331 1.2378-2.1861 1.403c-0.7508 0.16525 4.583-0.1415 4.583-0.1415s-0.74537-1.5938-1.2712-1.4299-6.014 1.3774-6.014 1.3774-1.9446-1.9568-1.9465-1.7435c9.5e-4 0.21332-1.8861 2.3073-1.8861 2.3073l3.2324-0.77143s1.9598-1.5613 1.4327-1.557" stroke-width=".69906"/>
   <path d="m142.84 199.53 36.168 0.0746" stroke-dasharray="0.69507569, 1.39015139" stroke-width=".695"/>
   <g stroke-width=".69906">
    <path d="m139.5 199.29-0.59335-1.7027-3.1625 1.9442-0.66447-2.1279s-1.4331 1.2378-2.1861 1.403c-0.7508 0.16525 4.583-0.1415 4.583-0.1415s-0.74537-1.5938-1.2712-1.4299-6.014 1.3774-6.014 1.3774-1.9446-1.9568-1.9465-1.7435c9.5e-4 0.21332-1.8861 2.3073-1.8861 2.3073l3.2324-0.77143s1.9598-1.5613 1.4327-1.557"/>
    <path d="m142.34 193.61c-1.3894-0.25539-1.2085 7.4738-0.0105 7.3056"/>
    <path d="m179.41 200.93c1.3941 0.22872 1.0652-7.4956-0.1295-7.3045"/>
   </g>
  </g>
  <g stroke="#5a2ca0" stroke-linecap="round" stroke-width=".695">
   <path d="m87.264 222.63c1.4816-3.5588 4.4472-12.499-0.13559-12.203-4.6075 2.394 6.0755 4.5115 8 0.20339"/>
   <path d="m80.891 216.33c3.3962 1.5226 22.01-0.98125 16.897-2.5039-1.8727-0.55765-0.11288 3.4483 5.2049-0.41136"/>
   <path d="m97.908 216.33c-5.4316 3.372-6.1298 6.4518-2.983 5.8983 5.7812-1.0168 4.949-3.6177 6.7119-5.8305l-2.6441 5.8305c1.3359-5.7878 8.8278-9.1201 5.0847-0.0678 1.4134-3.0874 3.1194-6.1619 8.5424-5.7627-6.3804-0.33615-8.6094 10.121 1.1327 3.1158 6.1968-4.4561-0.0135-14.101 2.4605-13.963l-1.1526 15.322c0.79225-11.169 4.967 0.4418 11.729 0.20339"/>
  </g>
 </g>
 <g transform="translate(1.1505 3.2599)">
  <g stroke-linecap="round" stroke-linejoin="round">
   <path d="m156.01 220.01c1.2003 13.103 1.2706 19.351-0.16475 29.38 2.9567-2.6311 4.7726-6.2105 6.9973-10.599 2.11 3.9606 4.3722 7.5382 5.8529 11.093 0.2326-9.8614-0.69504-19.111-1.1532-32.565z" fill="#aa87de" stroke="#000" stroke-width=".56295"/>
   <path d="m157.51 226.42c0.67064 6.1522 0.48406 12.304 0.14382 18.457 2.173-2.3282 3.671-5.0807 5.1028-8.6441 1.7243 2.4996 3.7324 5.6338 4.8206 8.2606-0.0895-6.4698-0.19561-12.94-0.91085-19.415" fill="none" stroke="#7137c8" stroke-dasharray="1, 1" stroke-width=".5"/>
   <path d="m159.09 227.37c-8.441 1.3608-7.2507-2.015-7.0841-4.8875-2.2304-2.5359-4.9834-4.2637-1.0434-10.104-1.2695-5.409 3.695-3.446 4.8875-6.3153-0.72043-0.30093 8.6084-5.2775 11.807 0 4.5482-0.63143 5.7764 3.4065 5.3817 6.9193 0.12451-0.16024 4.038 8.3899-0.76881 8.2922 0.74473 4.7062 2.9151 6.6779-5.162 5.3268-6.6573 3.8324-6.814 1.8308-8.0176 0.76882z" fill="url(#linearGradient1668-5)" stroke="#170b28" stroke-width=".56295"/>
   <ellipse cx="161.75" cy="216.16" rx="7.9068" ry="7.9068" fill="url(#linearGradient1676-3)" stroke="#000" stroke-width=".38645"/>
  </g>
  <g fill="#fff">
   <path d="m172.54 213.5c0.33397 0.82659 0.86189 2.8987 0.97848 3.4426 0.12725 0.59371 0.25503 1.2325 0.29095 1.9192 0.0316 0.6035-0.0271 0.97698-0.0657 1.1229 0.0383-0.14473 0.15446-0.50681 0.18142-1.1233 0.0292-0.66688-0.0579-1.3958-0.18034-1.9673-0.11858-0.55323-0.87086-2.5675-1.2048-3.3941z"/>
   <path d="m169.59 207.21c0.35108 0.0722 0.76308 0.11553 1.2442 0.36752 0.25644 0.13432 0.4467 0.29016 0.54365 0.40286 0.0864 0.10046 0.19038 0.25126 0.2887 0.44855 0.41869 0.84008 0.40474 1.767 0.44749 2.4312-0.0422-0.65634-0.30023-1.5786-0.77231-2.2377-0.11439-0.15971-0.21668-0.27416-0.29102-0.36058-0.086-0.1-0.19609-0.26195-0.38589-0.44655-0.32813-0.31916-0.74656-0.53773-1.0748-0.60525z"/>
   <path d="m161.22 204.65c0.71977-0.19838 1.8718-0.43249 3.1505-0.15379 0.62146 0.13545 1.061 0.35538 1.3378 0.55455 0.0238 0.0171 0.0459 0.0338 0.0664 0.0498 0.20438 0.16 0.48994 0.85071 0.57092 1.0638-0.081-0.21312-0.64065-0.61131-0.81706-0.74942-0.0177-0.0138-0.0366-0.0285-0.0569-0.0439-0.23521-0.17905-0.60074-0.41873-1.1737-0.60908-1.162-0.38604-2.3685-0.30751-3.078-0.11196z"/>
   <path d="m171.65 222.28c0.0127 0.0585 0.0213 0.17932 0.0496 0.36745 0.0226 0.15079 0.0516 0.31714 0.0872 0.51485 0.0519 0.2883 0.13307 0.74376 0.16648 0.87363 0.022 0.0854 0.055 0.19635 0.0908 0.32446 0.0937 0.33512 0.194 0.74845 0.16336 1.1161-0.0148 0.17727-0.059 0.33166-0.1355 0.46247-0.10343 0.17692-0.25194 0.28493-0.38314 0.34068 0.12839-0.0546 0.29528-0.13392 0.44559-0.29352 0.11321-0.12022 0.20549-0.27379 0.27091-0.46691 0.13491-0.39828 0.12378-0.87643 0.0747-1.2469-0.0188-0.14184-0.0429-0.26503-0.066-0.35493-0.0534-0.20759-0.19228-0.52395-0.3579-0.84645-0.0907-0.17667-0.17672-0.33156-0.24725-0.46023-0.0926-0.16901-0.14568-0.27024-0.15885-0.3307z"/>
   <path d="m162.76 228.06c0.21652-0.0532 0.90478-0.15852 1.1063-0.26685 0.0874-0.047 0.20698-0.12532 0.34428-0.22775 0.41338-0.3084 0.92981-0.81503 1.1511-0.98098-0.23374 0.17531-0.82926 0.51705-1.2944 0.74898-0.14656 0.0731-0.2721 0.1323-0.35348 0.17604-0.19083 0.10258-0.73729 0.49732-0.95381 0.55056z"/>
   <path d="m155.07 210.24c-0.76642 0.97857-1.5832 2.4877-1.8198 4.3996-0.15272 1.2337-0.0157 2.2311 0.0886 2.84 0.0645 0.37683 0.16947 0.88041 0.36174 1.4572 0.40205 1.2062 1.1075 2.4856 2.2251 3.5634 1.326 1.2788 2.7606 1.8189 3.7653 2.0295-1.004-0.21048-2.4563-0.68423-3.8592-1.9279-1.1813-1.0472-1.9667-2.3269-2.4224-3.5627-0.21759-0.59008-0.33864-1.1111-0.40562-1.5022-0.10794-0.63032-0.19193-1.6795 0.034-2.9298 0.35358-1.9563 1.2612-3.3825 2.0324-4.3672z"/>
  </g>
  <path d="m154.93 213.5 5.2267 0.0267-1.0971 3.0626zm6.9798-4.8552-1.7484 4.8773 3.4318 0.019zm1.6787 4.8958 1.0101 2.9419 4.0216-2.9187zm1.0101 2.9419-2.8792 2.0851 4.8308 3.6106zm-5.5343 0.1021 2.6551 1.9829-4.5533 3.2995z" fill="#8d5fd3" stroke="#000" stroke-width=".29024"/>
 </g>
 <path d="m75.529 60.603 104.94 0.12919" fill="none" stroke="#1a1a1a" stroke-linecap="square" stroke-linejoin="round" stroke-width="1.575"/>
 <path d="m75.529 32.671 104.94 0.12919" fill="none" stroke="#1a1a1a" stroke-linecap="square" stroke-linejoin="round" stroke-width="1.575"/>
 <path d="m145.83 44.704 1.536-9.048h2.316l1.836 4.836 1.944-4.836h2.34l1.368 9.048h-2.352l-0.66-5.208h-0.024l-2.172 5.208h-0.936l-2.076-5.208h-0.024l-0.756 5.208zm-8.003-8.766c2.391-1.22 5.573-0.462 6.91 1.936 1.283 2.303 0.26 5.428-2.067 6.601-2.269 1.143-5.32 0.461-6.68-1.732-1.457-2.352-0.639-5.541 1.837-6.805 0.759-0.388-0.761 0.388 0 0zm4.248 2.418c-2.351-2.237-5.916 1.198-3.612 3.594 2.309 2.403 5.985-1.333 3.612-3.594-0.505-0.48 0.504 0.48 0 0zm-15.373 6.348v-9.048h3.336c4.133 0 6.181 5.213 3.017 7.944-1.729 1.493-4.232 1.104-6.353 1.104zm2.352-7.056v5.064h0.528c1.805 0 2.886-1.417 2.546-3.168-0.303-1.561-1.703-1.896-3.074-1.896zm-3.804 0h-2.796v1.512h2.652v1.992h-2.652v1.56h2.796v1.992h-5.148v-9.048h5.148zm-6.599 0h-2.796v1.512h2.652v1.992h-2.652v1.56h2.796v1.992h-5.148v-9.048h5.148zm-8.628 3.348 2.844 3.708h-2.928l-2.22-3.48h-0.024v3.48h-2.352v-9.048h3.516c1.312 0 2.704 0.547 3.048 1.933 0.362 1.458-0.294 3.122-1.884 3.407zm-2.328-3.54v2.256h0.228c0.841 0 1.779-0.322 1.616-1.342-0.14-0.864-1.149-0.922-1.844-0.914zm-3.66 0.192h-2.844v1.512h2.58v1.992h-2.58v3.552h-2.352v-9.048h5.196z"/>
 <path d="m164.14 57.348v-9.048h2.353l4.308 5.532h0.024v-5.532h2.352v9.048h-2.352l-4.309-5.544h-0.023v5.544zm-8.543-8.766c2.39-1.219 5.574-0.462 6.91 1.936 1.282 2.303 0.261 5.428-2.067 6.601-2.27 1.143-5.32 0.461-6.68-1.732-1.457-2.352-0.639-5.541 1.837-6.805zm4.248 2.418c-2.35-2.238-5.916 1.198-3.612 3.594 2.31 2.403 5.985-1.333 3.612-3.594zm-7.885-2.7v9.048h-2.353v-9.048zm-5.147 1.992v7.056h-2.353v-7.056h-1.943v-1.992h6.239v1.992zm-6.709 5.484h-3.239l-0.624 1.572h-2.496l3.479-9.048h2.568l3.408 9.048h-2.508zm-0.636-1.8-0.96-2.88h-0.023l-0.973 2.88zm-6.359-5.46v2.82c-1.45-1.931-4.477-0.849-4.477 1.512 0 2.396 2.983 3.281 4.477 1.5v2.82c-1.41 0.433-2.785 0.616-4.171-0.033-1.476-0.691-2.536-2.037-2.72-3.668-0.432-3.851 3.428-6.38 6.891-4.951zm-8.004-0.216v9.048h-2.353v-9.048zm-3.66 1.992h-2.844v1.512h2.58v1.992h-2.58v3.552h-2.353v-9.048h5.196v1.992zm-6.732-1.992v9.048h-2.353v-9.048zm-5.147 1.992v7.056h-2.353v-7.056h-1.943v-1.992h6.239v1.992zm-7.08 3.348 2.844 3.708h-2.928l-2.221-3.48h-0.023v3.48h-2.353v-9.048h3.517c1.313 0 2.703 0.547 3.048 1.933 0.361 1.458-0.293 3.122-1.884 3.407zm-2.328-3.54v2.256h0.228c0.841 0 1.78-0.322 1.616-1.342-0.139-0.864-1.149-0.922-1.844-0.914zm-3.804 0.192h-2.796v1.512h2.652v1.992h-2.652v1.56h2.796v1.992h-5.148v-9.048h5.148zm-6.6-1.776v2.82c-1.45-1.93-4.477-0.849-4.477 1.512 0 2.396 2.983 3.281 4.477 1.5v2.82c-1.41 0.433-2.785 0.616-4.171-0.033-1.476-0.691-2.536-2.038-2.719-3.668-0.432-3.851 3.427-6.38 6.89-4.951z"/>
 <g transform="matrix(1.0607 0 0 1.0607 -76.821 30.45)" fill="#5a2ca0">
  <path d="m191.5 172.05c-1.393-0.313-0.068-3.157 0.689-3.307 0.346-0.409 0.597-0.615 0.597-0.615s0.132 0.386 0.187 0.772c0.652 0.388-0.232 3.422-1.473 3.15zm3.215-0.628c-1.242-0.508 0.445-3.182 1.197-3.207 0.38-0.371 0.666-0.535 0.666-0.535s0.045 0.402 0.036 0.797c0.546 0.478-0.761 3.396-1.899 2.945zm2.251 1.646c-0.741-1.022 1.624-3.004 2.187-2.729 0.445-0.209 0.722-0.253 0.722-0.253s-0.119 0.423-0.299 0.812c0.22 0.71-1.945 3.09-2.61 2.17zm9e-3 3.166c-0.319-1.328 2.316-2.617 2.721-2.131 0.426-0.07 0.673-0.024 0.673-0.024s-0.22 0.391-0.483 0.758c-0.036 0.825-2.637 2.599-2.911 1.397z"/>
  <ellipse transform="rotate(-54.204,193.6,174.95)" cx="193.6" cy="174.95" rx="2.424" ry="2.825"/>
 </g>
</svg>
