<svg cursor="default" version="1.1" viewBox="0 0 256 256" xmlns="http://www.w3.org/2000/svg" xmlns:xlink="http://www.w3.org/1999/xlink">
 <defs>
  <linearGradient id="innoGrad2">
   <stop stop-opacity=".251" offset="0"/>
   <stop stop-color="#ff2a2a" stop-opacity="0" offset="1"/>
  </linearGradient>
  <linearGradient id="innoGrad1">
   <stop stop-color="#faa" offset="0"/>
   <stop stop-color="#ff8080" offset="1"/>
  </linearGradient>
  <linearGradient id="linearGradient4322" x1="342.19" x2="331.34" y1="43.11" y2="52.593" gradientTransform="matrix(2.2306 0 0 2.2306 -625.57 53.562)" gradientUnits="userSpaceOnUse" xlink:href="#innoGrad1"/>
  <linearGradient id="linearGradient4350" x1="295.28" x2="295.5" y1="10.091" y2="8.008" gradientTransform="matrix(2.2306 0 0 2.2306 -625.57 53.562)" gradientUnits="userSpaceOnUse" xlink:href="#innoGrad2"/>
  <linearGradient id="linearGradient4421" x1="295.28" x2="295.5" y1="10.091" y2="8.008" gradientTransform="matrix(2.2314 0 0 1.9839 -559.83 51.275)" gradientUnits="userSpaceOnUse" xlink:href="#innoGrad2"/>
  <linearGradient id="linearGradient4467" x1="371.43" x2="357.32" y1="36" y2="47.964" gradientTransform="matrix(2.2306 0 0 2.2306 -625.57 53.562)" gradientUnits="userSpaceOnUse" xlink:href="#innoGrad1"/>
 </defs>
 <g fill-rule="evenodd">
  <g stroke="#000">
   <path d="m78.718 58.143c-1.256-4.177 8.342-5.507 9.614-4.375 4.388 3.907 3.596 8.913 3.034 12.444-4.744 8.406-10.083 0.464-12.648-8.07z" fill="#ff2a2a" stroke-width=".968"/>
   <path d="m77.707 69.424c9.033 5.945 22.372 4.25 35.783 3.382l15.356 82.293c-15.684 4.605-31.369 1.406-47.053-9.019z" fill="#f55" stroke-width="1.052"/>
   <path d="m79.602 68.983c-2.871 5.623 29.547 8.759 44.727 0.354-0.994-0.958-43.368-7.883-44.727-0.354z" fill="#ff8080" stroke-width="1.052"/>
   <path d="m79.607 55.54c0.566-1.523 9.214-3.436 10.486-2.31 4.4 3.893 3.646 10.206 3.084 13.737-9.574 4.622-9.746-3.338-13.57-11.428z" fill="#f55" stroke-width=".968"/>
   <path d="m81.722 68.746c-0.982 3.577 26.738 6.929 39.371 1.186-0.374-0.935-37.959-6.334-39.371-1.186z" fill="#ff2a2a" stroke-width=".769"/>
  </g>
  <path d="m81.722 68.746c-0.982 3.577 26.738 6.929 39.371 1.186-0.374-0.935-37.959-6.334-39.371-1.186z" fill="url(#linearGradient4421)"/>
  <g stroke="#000">
   <path d="m69.677 149.59c-3.027-9.614-2.336-20.732 1.973-29.811 6.17-13.002 5.988-36.663 3.96-49.844 0 0-0.063-1.855 0.592-1.673 0.83 0.23 2.375 1.742 3.506 2.3 4.226 16.289 3.003 48.421 5.466 63.872 1.524 9.562 18.34 17.72 26.656 17.211 21.252-1.3 4.835-47.626-2.285-71.668-2.369-7.996 12.229-16.159 25.428-18.537 11.896-2.143 16.585 13.998 19.31 22.264 11.88 36.04 39.74 64.85 74.305 67.608 24.164 1.928 21.122 18.711 19.554 22.386-29.311 16.246-55.01 17.97-82.245 20.608-19.866 3.313-63.16-28.34-96.22-44.716z" fill="url(#linearGradient4467)" stroke-width="1.052"/>
   <path d="m156.88 191.17c31.91 5.075 87.65-18.137 91.249-19.693 4.516-1.954 5.403 4.31 0.942 5.878-2.486 0.874-58.546 24.454-91.063 20.329-22.138-2.81-37.486-19.056-59.54-29.893l-0.234 11.439-29.311-11.335 0.024-18.79s22.863 8.848 34.815 14.783c11.106 5.516 30.053 23.614 53.118 27.282z" fill="#ffb380" stroke-width="1.052"/>
   <g stroke-width="1.115">
    <path d="m35.48 198.19 21.336-4.429-22.456-14.638c-0.117 6.529-3.123 15.72 1.12 19.067z" fill="#f95"/>
    <path d="m7.154 66.812c-1.947-4.7 8.681-7.524 10.257-6.373 5.438 3.97 5.188 9.908 5.009 14.097-4.262 10.424-11.287 1.878-15.266-7.724z" fill="#ff2a2a"/>
    <path d="m13.652 73.472c-2.87 6.322 29.538 9.848 44.712 0.398-0.993-1.077-43.353-8.863-44.712-0.398z" fill="#ff8080"/>
    <path d="m7.822 63.66c0.442-1.849 9.926-5.226 11.501-4.083 5.45 3.953 5.188 9.908 5.009 14.097-10.286 1.662-11.172-1.094-16.51-10.014zm6.541 10.862c9.03 6.684 22.364 4.779 35.77 3.803l15.351 92.525c-15.679 5.178-31.358 1.58-47.037-10.14z" fill="#f55"/>
   </g>
   <path d="m15.771 73.206c-0.981 4.021 26.73 7.79 39.358 1.333-0.374-1.051-37.946-7.121-39.358-1.333z" fill="#ff2a2a" stroke-width=".816"/>
  </g>
  <path d="m15.771 73.206c-0.981 4.021 26.73 7.79 39.358 1.333-0.374-1.051-37.946-7.121-39.358-1.333z" fill="url(#linearGradient4350)"/>
  <path d="m6.336 164.65c-3.026-10.808-2.336-23.309 1.971-33.517 6.168-14.619 5.986-41.222 3.959-56.04 0 0-0.063-2.087 0.592-1.883 0.83 0.26 2.374 1.959 3.505 2.587 4.224 18.313 3.002 54.442 5.464 71.813 1.524 10.751 18.334 19.924 26.647 19.352 21.244-1.462 2.018-56.399-5.1-83.43-2.368-8.99 12.928-17.535 26.124-20.209 11.891-2.41 20.943 16.53 23.667 25.824 11.875 40.521 48.173 71.806 74.28 77.757 23.75 5.413 20.41 19.612 18.844 23.744-29.302 18.267-56.54 21.312-83.767 24.278-19.859 3.725-63.138-31.862-96.186-50.276z" fill="url(#linearGradient4322)" stroke="#000" stroke-width="1.115"/>
  <path d="m93.51 211.41c31.897 5.705 89.027-20.955 92.624-22.705 4.514-2.196 5.4 4.845 0.941 6.609-2.484 0.983-59.933 28.057-92.44 23.419-22.13-3.158-37.472-21.425-59.52-33.61l-0.233 12.861-29.3-12.744 0.023-21.126s22.856 9.948 34.803 16.621c11.103 6.202 30.044 26.55 53.101 30.675z" fill="#ffb380" stroke="#000" stroke-width="1.115"/>
 </g>
</svg>
