<svg cursor="default" version="1.1" viewBox="0 0 256 256" xmlns="http://www.w3.org/2000/svg" xmlns:xlink="http://www.w3.org/1999/xlink">
 <defs>
  <linearGradient id="innoGrad1">
   <stop stop-color="#ff7f2a" offset="0"/>
   <stop stop-color="#f95" offset="1"/>
  </linearGradient>
  <linearGradient id="innoGrad3">
   <stop stop-color="#f55" offset="0"/>
   <stop stop-color="#ff8080" offset="1"/>
  </linearGradient>
  <linearGradient id="linearGradient907" x1="499.19" x2="322.42" y1="223.44" y2="77.502" gradientTransform="translate(-280.95,-5.4237)" gradientUnits="userSpaceOnUse" xlink:href="#innoGrad1"/>
  <linearGradient id="linearGradient919" x1="326.77" x2="414.66" y1="121.07" y2="174.95" gradientTransform="translate(-280.95,-5.4237)" gradientUnits="userSpaceOnUse">
   <stop stop-color="#f95" offset="0"/>
   <stop stop-color="#ffb380" offset=".20467"/>
   <stop stop-color="#ffb380" offset=".81876"/>
   <stop stop-color="#f95" offset="1"/>
  </linearGradient>
  <linearGradient id="linearGradient927" x1="390.64" x2="447.19" y1="214.51" y2="147.66" gradientTransform="translate(-280.95,-5.4237)" gradientUnits="userSpaceOnUse" xlink:href="#innoGrad3"/>
  <linearGradient id="linearGradient965" x1="508.92" x2="355.52" y1="177.38" y2="55.617" gradientTransform="translate(-280.95,-5.4237)" gradientUnits="userSpaceOnUse" xlink:href="#innoGrad1"/>
  <linearGradient id="linearGradient973" x1="456.58" x2="390.99" y1="127.72" y2="104.51" gradientTransform="translate(-280.95,-5.4237)" gradientUnits="userSpaceOnUse">
   <stop stop-color="#f95" offset="0"/>
   <stop stop-color="#ffb380" offset=".20467"/>
   <stop stop-color="#ffb380" offset=".81876"/>
   <stop stop-color="#f95" offset="1"/>
  </linearGradient>
  <linearGradient id="linearGradient985" x1="451.01" x2="478.63" y1="168.56" y2="121.58" gradientTransform="translate(-280.95,-5.4237)" gradientUnits="userSpaceOnUse" xlink:href="#innoGrad3"/>
 </defs>
 <path d="m65.461 53.929c-7.7972-0.03447-6.2425 3.3978-6.1362 4.9857 21.191 45.362 73.3 60.657 112.47 71.717 14.73-7.9995 30.144-15.901 30.969-25.887l-14.094 0.19176c-46.455-13.085-85.02-31.908-123.2-51.008z" fill="url(#linearGradient965)"/>
 <g stroke="#000" stroke-width=".75">
  <path d="m185.02 118.36c-40.182 18.018-69.867-9.2439-97.509-29.339 31.397 11.321 66.391 23.764 97.509 29.339z" fill="url(#linearGradient973)"/>
  <path d="m246.29 146.16c0.44645 2.1733-1.1538 4.3465-4.0269 6.5198-14.888 6.6966-31.688 7.7717-49.09 6.8074-7.3138-11.112 34.121-9.0197 53.117-13.327z" fill="#fd5"/>
  <path d="m60.763 59.873c27.607 24.591 53.963 47.957 95.495 62.417-51.624-9.967-91.341-39.055-95.495-62.417z" fill="#fca"/>
  <path d="m63.291 53.25c-3.1066 0.03749-4.7435 1.5034-5.2129 3.0762-3.2378 10.849-3.8344 22.243-5.752 33.365l139.02 67.691c9.4891 0.27876 22.818 0.24819 30.162-1.0957 8.322-1.523 16.644-3.3296 24.148-8.1309 6.2426-3.9938 3.5088-11.108-0.91407-15.389-14.945-14.466-26.856-20.17-38.236-26.416-1.5306-0.84003-2.6782-3.0259-4.5352-2.8535-3.8793 0.36003-8.3176 0.67943-12.83 0.2871-13.141-1.1425-32.811-10.179-54.076-18.504-10.138-3.9686-27.867-10.425-36.529-14.67-10.753-5.2697-25.624-15.324-31.641-16.875-1.3732-0.35397-2.5719-0.49882-3.6074-0.48633zm0.36524 1.1953c1.5147-0.06348 3.2642 0.38078 4.5859 1.1133 0 0 20.303 12.109 30.969 17.162 9.7612 4.6246 20.243 7.5805 30.105 11.984 16.543 7.3866 39.495 17.021 56.377 20.52 6.4685 1.3404 10.45-0.033 14.957 0.0957 3.0815 0.088-22.269 19.763-45.062 15.34-21.245-4.1228-38.557-15.122-53.789-25.217-21.087-13.976-41.1-34.707-41.42-37.775-0.23131-2.2206 1.3298-3.141 3.2774-3.2227z" fill="url(#linearGradient985)"/>
  <path d="m217.22 194.03 0.27119 3.1186c-3.4264 5.6198-18.589 12.092-33.356 13.288-37.818 3.0645-68.173-5.3504-72.949-12.068z" fill="#fd5"/>
  <path d="m17.234 130.63c0.58598 2.0087 1.4486 5.1815 3.5475 6.4239l21.381 12.656 2.3011-3.0681z" fill="#fd5"/>
 </g>
 <path d="m20.61 70.508c6.5467-3.3187 14.547 6.5602 59.368 27.042 21.353 9.7575 30.98 16.755 54.069 27.085 8.8312 3.951 34.097 8.9714 34.359 13.534-1.2646 27.542-35.739 25.508-57.898 34.441-102.19-58.938-100.69-100.73-89.898-102.1z" fill="url(#linearGradient907)"/>
 <g stroke="#000">
  <g stroke-width=".75">
   <path d="m149.07 154.99c-12.161-3.7863-20.277-6.317-39.119-12.177-17.667-5.4944-31.396-16.666-46.31-25.696-7.4617-4.9444-20.056-10.24-27.997-8.9167-16.671 4.7422 70.317 100.46 113.42 46.789z" fill="url(#linearGradient919)"/>
   <path d="m112.15 163.71c-55.89-1.9901-109.31-60.964-95.406-87.954 8.3382 15.895 44.483 68.828 95.406 87.954z" fill="#fca"/>
   <path d="m25.164 69.275c-7.0542-0.13764-9.0998 1.276-9.5879 3.4746-2.8871 13.005-6.4885 20.242-6.3027 37.195 0.14693 13.41 4.3926 18.394 7.0019 20.783 8.8331 8.089 25.782 14.962 46.691 30.367 15.056 11.093 28.583 24.924 40.654 34.062 9.2211 6.9807 31.352 12.027 54.268 13.902 31.81 2.6028 58.839-6.2376 61.074-17.738 2.0581-10.59-11.977-24.787-19.176-30.873-13.433-11.357-21.55-17.659-32.688-25.729-3.59-2.6012-12.038-3.4105-29.441-10.705-23.669-9.9211-25.429-12.168-38.16-18.217-16.894-8.0264-25.325-11.859-37.775-18.217-19.954-10.19-32.825-18.234-36.559-18.307zm-0.92383 2.0605c1.1414 0.03056 2.154 0.2103 2.7559 0.49805 12.183 5.8246 16.791 9.7166 33.344 17.658 8.0404 3.8575 11.347 5.0273 26.764 12.596 14.053 6.8985 13.652 7.3251 39.266 20.146 12.621 6.3178 17.258 6.9047 36.852 13.494 3.4314 1.154 2.8428 2.687 2.0664 3.7969-6.9387 9.9193-39.239 27.306-53.559 24-11.151-2.5742-40.456-14.921-68.475-49.084-10.506-12.81-18.7-24.228-25.268-38.186-1.7666-3.7545 2.8298-5.0116 6.2539-4.9199z" fill="url(#linearGradient927)"/>
  </g>
  <g fill="none">
   <path d="m61.147 89.883c-0.15005 1.3404-0.80612 2.672 0 3.931 8.2887 12.945 2.3866 16.036 2.4929 23.299" stroke-width=".5"/>
   <path d="m62.592 90.409c-0.15005 1.3404-0.80612 1.7907 0 3.0497 8.2887 12.945 2.3866 16.917 2.4929 24.18" stroke-dasharray="0.75, 0.25" stroke-width=".25"/>
   <path d="m97.868 72.05s-0.70998 2.9587 2e-5 3.7393c5.2525 5.7744 4.4581 18.299 4.3146 18.313" stroke-width=".5"/>
   <path d="m99.469 73.014s-0.51822 2.2876 0.19178 3.0681c5.2525 5.7744 4.3622 15.614 4.2187 18.409" stroke-dasharray="0.75, 0.25" stroke-width=".25"/>
  </g>
 </g>
</svg>
