<svg xmlns="http://www.w3.org/2000/svg" xmlns:xlink="http://www.w3.org/1999/xlink" cursor="default" viewBox="0 0 256 256">
    <defs>
        <linearGradient id="innoGrad4">
            <stop offset="0" stop-color="#ff8080"/>
            <stop offset="1" stop-color="#f55"/>
        </linearGradient>
        <linearGradient id="innoGrad2">
            <stop offset="0" stop-color="#ff8080"/>
            <stop offset=".087" stop-color="#f55"/>
            <stop offset=".199" stop-color="#ff8080"/>
            <stop offset=".289" stop-color="#f55"/>
            <stop offset=".384" stop-color="#ff8080"/>
            <stop offset=".486" stop-color="#f55"/>
            <stop offset=".59" stop-color="#ff8080"/>
            <stop offset=".705" stop-color="#f55"/>
            <stop offset=".803" stop-color="#ff8080"/>
            <stop offset=".907" stop-color="#f55"/>
            <stop offset="1" stop-color="#ff8080"/>
        </linearGradient>
        <linearGradient id="innoGrad1">
            <stop offset="0" stop-color="#ff8080"/>
            <stop offset="1" stop-color="#f55"/>
        </linearGradient>
        <linearGradient id="innoGrad3">
            <stop offset="0" stop-color="#ff8080"/>
            <stop offset=".088" stop-color="#f55"/>
            <stop offset=".199" stop-color="#ff8080"/>
            <stop offset=".306" stop-color="#f55"/>
            <stop offset=".394" stop-color="#ff8080"/>
            <stop offset=".489" stop-color="#f55"/>
            <stop offset=".59" stop-color="#ff8080"/>
            <stop offset=".692" stop-color="#f55"/>
            <stop offset=".793" stop-color="#ff8080"/>
            <stop offset=".9" stop-color="#f55"/>
            <stop offset="1" stop-color="#ff8080"/>
        </linearGradient>
        <linearGradient id="linearGradient1547" x1="110.48" x2="106.847" y1="180.614" y2="30.373" gradientTransform="translate(-12.272 -.384)" gradientUnits="userSpaceOnUse" xlink:href="#innoGrad3"/>
        <linearGradient id="linearGradient1577" x1="144.542" x2="134.644" y1="222.915" y2="184.136" gradientTransform="translate(-12.272 -.384)" gradientUnits="userSpaceOnUse" xlink:href="#innoGrad1"/>
        <linearGradient id="linearGradient2129" x1="278.78" x2="247.593" y1="219.119" y2="186.034" gradientTransform="matrix(.9 0 0 .9 -59.237 12.69)" gradientUnits="userSpaceOnUse" xlink:href="#innoGrad1"/>
        <linearGradient id="linearGradient2173" x1="251.394" x2="252.545" y1="172.202" y2="22.056" gradientTransform="matrix(.9 0 0 .9 -59.237 12.69)" gradientUnits="userSpaceOnUse" xlink:href="#innoGrad2"/>
        <linearGradient id="linearGradient2209" x1="227.525" x2="178.983" y1="138.034" y2="139.39" gradientTransform="matrix(.9 0 0 .9 -59.237 12.69)" gradientUnits="userSpaceOnUse" xlink:href="#innoGrad4"/>
    </defs>
    <path fill="#f55" fill-rule="evenodd" stroke="#000" stroke-width=".675" d="M135.041 94.33c-2.814.161-5.048 1.714-6.712 4.637 3.718-.097 5.906 1.335 8.299 2.563zM138.946 121.543c-2.113.742-4.24 1.067-5.929 4.143 3.366.786 3.995 1.609 5.685 2.813zM131.258 67.848c-1.376.001-2.793-.377-3.95 1.602 2.884-.166 3.236.618 4.438 1.083zM133.455 41.49c-2.034.54-4.068.491-6.102 2.074 3.67 1.126 4.024 1.884 5.858 2.806zM172.649 24.112c.88-2.431 1.978-6.093 3.065-8.628.896-2.09 4.135-2.27 5.944-3.039 1.063.735-.488 7.647-.732 11.471z"/>
    <path fill="#ff2a2a" fill-rule="evenodd" stroke="#000" stroke-width=".9" d="M153.384 22.875l8.112 1.035-6.213 158.603-8.284-.863z"/>
    <path fill="url(#linearGradient2129)" fill-rule="evenodd" stroke="#000" stroke-width=".675" d="M204.182 211.284c.884-.666 4.093-6.862-2.561-10.693-6.913-3.98-14.4-3.046-19.416-12.254-11.802-3.645-24.04-12.29-36.803-3.235l5.48 8.542 12.814 22.263c13.329.222 25.718 6.516 40.486-4.623z"/>
    <path fill="url(#linearGradient2173)" fill-rule="evenodd" d="M177.245 197.606c-5.29-9.033-18.57-15.92-29.39-8.456-6.733-10.683-14.755-11.916-24.163-18.549-2.685-1.893-2.582-6.894-1.586-9.519 2.172-5.724 3.068-5.425 8.847-14.4 4.61-7.159 5.579-9.271 5.736-14.705.967-33.44-7.427-49.067-6.973-74.112.339-18.692 2.285-24.325 4.593-37.61 6.182.514 12.543 1.021 20.537 1.478-5.436 116.85-4.34 127.726-4.978 157.44-.02.932 3.182.7 3.204.031 1.293-39.834 2.383-76.666 6.986-156.264 8.186.584 16.203.159 24.285.122l-2.319 22.942-3.417 29.533-4.759 27.457-.976 26.36.854 27.091c1.727 13.035 17.111 31.256 3.519 41.161z"/>
    <path fill="#f55" fill-rule="evenodd" stroke="#000" stroke-width=".675" d="M122.35 168.038c4.742 17.486 7.573 34.819 2.318 51.499 4.558 3.035 10.045 2.914 15.743 2.074-.969-12.787-3.01-35.73-.122-37.22 1.62-.836 5.855 2.987 9.809 8.74-10.123-15.819-3.405-21.85-27.748-25.093z"/>
    <path fill="url(#linearGradient2209)" fill-rule="evenodd" d="M147.855 189.15c-6.733-10.683-14.755-11.916-24.163-18.549-2.685-1.893-2.582-6.894-1.586-9.519 2.172-5.724 3.068-5.425 8.847-14.4 4.61-7.159 5.579-9.271 5.736-14.705.967-33.44-7.427-49.067-6.973-74.112.339-18.692 2.285-24.325 4.593-37.61 6.182.514 12.543 1.021 20.537 1.478-5.436 116.85-4.34 127.726-4.978 157.44 0 0-.688 3.018-2.013 9.977z"/>
    <path fill="none" stroke="#000" stroke-dasharray=".9,.45" stroke-width=".45" d="M184.104 24.514c-3.26.245-15.65.8-23.04 0-2.774 51.897-5.19 103.087-6.73 154.979.075 2.065-5.91 2.198-5.868-.26.322-52.253 2.632-104.11 4.487-156.056-6.422.082-12.614-.636-18.812-1.338"/>
    <path fill="none" stroke="#000" stroke-width=".9" d="M177.245 197.606c-5.29-9.033-18.57-15.92-29.39-8.456-6.733-10.683-14.755-11.916-24.163-18.549-2.685-1.893-2.582-6.894-1.586-9.519 2.172-5.724 3.068-5.425 8.847-14.4 4.61-7.159 5.579-9.271 5.736-14.705.967-33.44-7.427-49.067-6.973-74.112.339-18.692 2.285-24.325 4.593-37.61 6.182.514 12.543 1.021 20.537 1.478-5.436 116.85-4.34 127.726-4.978 157.44-.02.932 3.182.7 3.204.031 1.293-39.834 2.383-76.666 6.986-156.264 8.186.584 16.203.159 24.285.122l-2.319 22.942-3.417 29.533-4.759 27.457-.976 26.36.854 27.091c1.727 13.035 17.111 31.256 3.519 41.161z"/>
    <path fill="#f55" fill-rule="evenodd" stroke="#000" stroke-width=".675" d="M205.46 209.608l-.085 11.952c-12.683 3.985-26.28 7.95-42.8 3.796-5.01-1.82-7.61-22.368-14.886-36.673 7.888 6.314 10.544 16.982 16.16 21.69 8.31 6.965 41.41 1.27 41.612-.765z"/>
    <path fill="#f95" stroke="#000" stroke-linecap="square" stroke-width=".498" d="M175.387 81.38c-.591-.056-1.109.574-1.155 1.408-.048.833.394 1.555.985 1.611.592.057 1.11-.573 1.156-1.407.047-.834-.394-1.555-.986-1.612z" paint-order="stroke fill markers"/>
    <path fill="#faa" fill-rule="evenodd" stroke="#000" stroke-width=".45" d="M175.237 82.044c-.75.59-.14 2.062.403 1.6l2.605-2.219c.81-.688 1.044-3.08.168-2.517-1.349 1.09-2.32 2.373-3.177 3.136z"/>
    <path fill="#ff2a2a" fill-rule="evenodd" stroke="#000" stroke-width=".675" d="M125.065 218.408c-.61 1.7-1.22 3.352-1.83 5.125 2.702.943 15.22 1.155 17.42.885l-.305-3.661c-.821.58-16.294-.239-15.285-2.35z"/>
    <path fill="none" stroke="#f95" stroke-dasharray=".9,.45" stroke-width=".45" d="M150.585 178.503c.797-50.898 2.442-102.008 5.08-153.366l.519.122A5694.706 5694.706 0 0 0 150.92 178.7"/>
    <path fill="none" stroke="#000" stroke-dasharray=".9,.45" stroke-width=".45" d="M147.123 187.442s4.65-3.035 13.301-3.234c7.05-.163 14.628 7.136 17.024 10.678 3.496-3.368 4.91-4.021 5.308-8.909"/>
    <path fill="#f95" stroke="#000" stroke-linecap="square" stroke-width=".498" d="M170.828 146.711c-.592.049-.991.76-.89 1.589.1.829.66 1.461 1.253 1.413.592-.048.99-.76.89-1.588-.1-.83-.661-1.462-1.253-1.414zM172.029 109.608c-.592-.056-1.11.574-1.156 1.407-.047.834.394 1.556.986 1.612.591.056 1.109-.574 1.155-1.407.048-.834-.394-1.555-.985-1.612zM179.702 52.775c-.592-.056-1.11.574-1.156 1.407-.047.834.394 1.555.986 1.612.591.056 1.109-.574 1.155-1.407.048-.834-.394-1.556-.985-1.612z" paint-order="stroke fill markers"/>
    <path fill="none" stroke="#000" stroke-dasharray=".9,.45" stroke-width=".45" d="M170.736 189.882s3.923-4.187 4.295-6.904c.62-4.525-6.51-18.375-7.65-26.533-1.547-18.433-.924-36.576.975-54.55 7.1-38.804 3.507-41.24 10.495-78.1"/>
    <path fill="#faa" fill-rule="evenodd" stroke="#000" stroke-width=".45" d="M170.583 147.506c-.52 1.06.544 1.94.997 1.32l2.435-3.34c.726-.995.224-2.88-.155-2.474-1.19 1.389-2.577 3.107-3.277 4.494z"/>
    <path fill="#fea" fill-rule="evenodd" stroke="#000" stroke-width=".675" d="M154.567 151.93l-.244 12.935c6.908-1.708 12.764-3.569 20.715-5.339.779-.173.73-10.694-1.037-10.617-7.301.32-13.433 1.246-19.434 3.02z"/>
    <path fill="#f95" stroke="#000" stroke-linecap="square" stroke-width=".498" d="M170.763 137.306c-.592.048-.99.76-.89 1.588.1.829.66 1.462 1.253 1.413.592-.048.99-.76.89-1.588-.1-.829-.66-1.462-1.253-1.413z" paint-order="stroke fill markers"/>
    <path fill="#faa" fill-rule="evenodd" stroke="#000" stroke-width=".45" d="M170.502 138.096c-.503.73.418 2.126.885 1.459l2.279-3.255c.609-.87.376-3.002-.384-2.291-1.254 1.315-2.084 2.717-2.78 4.087z"/>
    <path fill="#fea" fill-rule="evenodd" stroke="#000" stroke-width=".675" d="M155.593 123.575l-.438 12.246c6.239-.793 12.489-1.62 18.504-1.744 1.049-.021 1.232-11.816.295-11.773-6.168.282-12.408.343-18.36 1.27z"/>
    <path fill="#faa" fill-rule="evenodd" stroke="#000" stroke-width=".45" d="M171.638 110.496c-.558.61.084 1.885.612 1.327l2.247-2.375c.73-.771.71-3.173-.1-2.52-1.35 1.218-1.963 2.253-2.76 3.568z"/>
    <path fill="#fea" fill-rule="evenodd" stroke="#000" stroke-width=".675" d="M174.743 108.824c1.876.046 2.573-12.37 1.178-12.448-6.303-.356-12.118-.621-18.999-.46l-.61 12.814c6.849.051 12.152-.06 18.43.094zM158.472 66.628l-.695 12.656c7.178.355 14.482.46 21.34 1.457l1.32-11.916c-6.465-1.356-14.28-1.73-21.965-2.197z"/>
    <path fill="#faa" fill-rule="evenodd" stroke="#000" stroke-width=".45" d="M179.484 53.461c-.749.59-.117 2.087.403 1.6l2.21-2.066c.775-.725 1.043-3.08.167-2.517-1.349 1.09-1.924 2.22-2.78 2.983z"/>
    <path fill="#fea" fill-rule="evenodd" stroke="#000" stroke-width=".675" d="M159.929 37.584l-.725 13.058 23.919 1.055c1.206.053 1.776-12.28.73-12.356z"/>
    <path fill="none" stroke="#000" stroke-dasharray=".45,.225" stroke-width=".225" d="M183.878 40.113l-22.543-1.532-.487 11.229 22.382 1.004M180.219 69.418c-7.307-1.282-13.661-1.522-20.528-1.814l-.53 10.883c6.905.24 13.519.128 19.88 1.565M176.286 97.003c-7.52-.323-12.787-.217-17.939-.089l-.788 10.84c6.073-.018 12.076.034 17.808.358M174.218 122.864c-6.013.276-11.867.672-17.421 1.292l-.444 10.581c5.799-.635 11.534-1.492 17.55-1.368"/>
    <path fill="none" stroke="#000" stroke-dasharray=".45,.45" stroke-width=".225" d="M174.544 149.526c-6.437.127-12.68 2.066-19.042 3.165l-.036 10.659c6.823-2.196 13.362-3.689 19.78-4.427"/>
    <path fill="#f95" stroke="#000" stroke-linecap="square" stroke-width=".548" d="M180.197 181.895c-.578.134-.862 1.04-.634 2.025.227.984.88 1.674 1.458 1.54.578-.133.862-1.04.634-2.024-.227-.985-.88-1.674-1.458-1.54zM177.35 173.352c-.579.134-.863 1.04-.635 2.025.228.984.88 1.674 1.459 1.54.578-.133.862-1.04.634-2.024-.228-.984-.88-1.674-1.459-1.54zM174.113 164.896c-.578.134-.862 1.04-.634 2.024.228.985.88 1.675 1.459 1.541.578-.134.862-1.04.634-2.025-.228-.984-.88-1.674-1.459-1.54z" paint-order="stroke fill markers"/>
    <path fill="#f95" stroke="#000" stroke-linecap="square" stroke-width=".498" d="M171.59 118.744c-.591-.056-1.108.574-1.155 1.408-.047.833.394 1.555.985 1.611.592.057 1.11-.573 1.156-1.407.047-.834-.394-1.555-.986-1.612zM173.963 90.657c-.591-.057-1.108.574-1.155 1.407-.047.834.394 1.555.985 1.612.592.056 1.11-.574 1.156-1.408.047-.833-.394-1.555-.986-1.611zM178.321 62.138c-.591-.057-1.109.573-1.156 1.407-.047.833.395 1.555.986 1.611.592.057 1.109-.573 1.156-1.407.047-.833-.395-1.555-.986-1.611zM181.212 34.826c-.592-.056-1.109.574-1.156 1.408-.047.833.394 1.555.986 1.611.591.057 1.109-.573 1.156-1.407.047-.834-.395-1.555-.986-1.612zM182.334 26.758c-.592-.056-1.11.574-1.156 1.408-.047.833.394 1.555.986 1.611.591.056 1.109-.574 1.155-1.407.047-.834-.394-1.555-.985-1.612z" paint-order="stroke fill markers"/>
    <path fill="#faa" fill-rule="evenodd" stroke="#000" stroke-width=".45" d="M180.307 182.685c-.331 1.252.254 2.336.812 1.616l1.314-4.094c.304-.656-.266-2.9-.686-2.299zM177.217 174.466c.053 1.124.399 1.964 1.117 1.378.236-1.397.473-2.793 1.067-4.19.352-.832-.792-3.13-1.068-2.588-.862 1.667-.875 3.46-1.116 5.4zM174.006 165.8c-.1 1.314.788 2.432 1.07 1.464l1.086-3.713c.495-1.69-.62-3.734-1.053-2.787-.71 1.557-.97 3.278-1.103 5.037z"/>
    <path fill="#ff2a2a" fill-rule="evenodd" stroke="#000" stroke-width=".675" d="M205.267 220.837c.284-.422.92.653-.043.992-22.653 8.692-40.617 5.55-43.77 3.255-5.74-4.178-2.332-11.135-13.98-36.747 9.837 20.15 10.24 33.302 14.755 35.811 8.553 4.753 31.741 1.625 43.038-3.311z"/>
    <path fill="none" stroke="#f95" stroke-dasharray=".9,.45" stroke-width=".45" d="M151.875 178.553c.797-50.898 3.91-102.612 6.547-153.97l.518.122c-2.44 51.147-5.669 102.899-6.73 154.046"/>
    <path fill="none" stroke="#000" stroke-width=".9" d="M157.267 25.463c-2.304 50.94-4.725 101.881-5.867 152.822"/>
    <path fill="#f95" fill-rule="evenodd" stroke="#000" stroke-width=".675" d="M155.78 23.96c-.47.7-1.047 1.065-1.077 2.003-.05 1.575.902 2.231.907 4.596 0 .524 2.691.652 2.711.165.087-2.106.883-2.716 1.286-4.56.283-1.292-.433-1.582-1.083-2.124-.536-.448-2.47-.487-2.744-.08z"/>
    <path fill="#ffb380" fill-rule="evenodd" stroke="#000" stroke-width=".45" d="M156.184 29.103l.244-4.18c-.075-.516 1.477-.708 1.525.03l-.305 4.15z"/>
    <path fill="#fca" fill-rule="evenodd" stroke="#000" stroke-width=".675" d="M156.528 27.448c-.358 3.814-.785 6.21-1.609 9.024-.225.769-.377 2.919.027 3.752.531 1.097 2.762 1.257 3.322-.081.566-1.352.217-3.028.162-3.455-.387-2.995-.857-5.251-.768-9.21zm.632 8.693c.36.976.4 2.3.129 3.257-.087.309-1.185.45-1.272-.106-.16-1.022-.235-2.413.236-3.172z"/>
    <path fill="none" stroke="#000" stroke-dasharray=".9,.45" stroke-width=".45" d="M174.031 23.428s1.202-6.231 3.203-8.36c1.072-1.139 4.394-1.8 4.394-1.8"/>
    <path fill="#faa" fill-rule="evenodd" stroke="#000" stroke-width=".45" d="M171.142 119.619c-.558.61.084 1.885.613 1.327l2.247-2.374c.73-.772.71-3.174-.101-2.522-1.349 1.22-1.963 2.255-2.759 3.569zM173.656 91.333c-.749.59-.14 2.062.403 1.6l2.606-2.219c.809-.688 1.043-3.08.168-2.517-1.35 1.09-2.321 2.373-3.177 3.136zM178.135 62.793c-.75.59-.118 2.087.403 1.6l2.21-2.066c.775-.726 1.042-3.08.167-2.518-1.35 1.09-1.924 2.222-2.78 2.984zM181.005 35.51c-.749.59-.087 2.117.404 1.6 1.601-1.685 3.538-3.24 4.172-5.302.268-1.504-.295-3.964-1.17-3.402.442 2.643-2.55 6.342-3.406 7.104z"/>
    <path fill="#faa" fill-rule="evenodd" stroke="#000" stroke-width=".45" d="M182.091 29.06c-.749-.59-.24-1.86.425-1.601 1.422.556 3.529 3.876 3.169 5.992-.18 1.59-1.351 1.645-1.882 1.493 1.17-.793.134-4.512-1.712-5.885z"/>
    <path fill="#ffd5d5" d="M188.802 195.984c1.507.733 4.266 2.1 6.644 3.282 2.382 1.185 3.729 1.914 4.957 2.68.298.184.527.333.72.457.652.416 1.658.99 2.374 1.815.365.42.628.874.787 1.378.21.665.2 1.318.12 1.78.08-.457.192-1.1.113-1.828a4.37 4.37 0 0 0-.534-1.665c-.596-1.08-1.615-1.925-2.297-2.36-.203-.13-.464-.281-.785-.45-1.273-.669-2.856-1.296-5.267-2.233-2.764-1.073-5.016-1.972-6.832-2.856z"/>
    <path fill="#faa" d="M204.942 211.124c-.192.07-.844.055-1.037.12-3.997 1.351-9.827 2.833-18.087 3.369-8.194.531-15.575-.092-19.391-.528 3.837.438 11.163 1.176 19.405.764 8.252-.413 14.216-1.818 18.22-3.171.194-.066.698-.485.89-.554z"/>
    <path fill="#fff6d5" d="M183.415 41.07l.035-.448c-2.492-.2-6.424-.374-11.335-.624-4.895-.25-8.348-.47-10.403-.706 3.409.39 4.132.525 10.369 1.155 3.978.401 9.73.946 11.298 1.072l.035-.449zM179.534 70.395l.064-.445c-2.034-.292-5.872-.69-10.089-.923-4.592-.254-7.435-.21-9.65-.194 1.972-.014 5.3.163 9.613.642 4.438.493 7.724 1.04 9.998 1.366l.064-.446zM175.616 98.081l.021-.45c-2.024-.096-5.67-.17-8.687-.175-3.14-.004-6.307.086-8.075.099 2.031-.015 4.778.111 8.058.351 3.353.245 6.283.51 8.661.625l.022-.45zM173.652 124.052l-.032-.449c-2.25.162-5.92.416-8.839.639-3.456.263-5.059.515-7.438.88 2.116-.324 4.273-.433 7.455-.43 3.412.002 5.896.024 8.886-.19l-.032-.45zM174.208 150.706l-.033-.449c-2.6.188-6.058.594-9.613 1.158-3.362.533-6.483 1.137-8.174 1.396 1.687-.258 4.924-.648 8.23-.95 4.235-.386 6.37-.472 9.622-.706l-.032-.449z"/>
    <path fill="none" stroke="#000" stroke-dasharray=".9,.45" stroke-width=".45" d="M155.067 164.564l.086-12.684M155.973 135.657l.259-12.167M156.965 108.518l.777-12.598M158.475 79.18l.604-12.6M160.072 50.488l.56-12.642"/>
    <path fill="#ff2a2a" fill-rule="evenodd" stroke="#000" stroke-width=".75" d="M87.958 236.974l13.194-3.218-5.56-35.187-11.362-9.109c.917 15.808-1.867 45.486 3.728 47.514zM121.766 192.145l5.753-1.247-7.095-26.558-3.452-145.448-4.554.095 1.682 154.867z"/>
    <path fill="#f55" fill-rule="evenodd" stroke="#000" stroke-width=".75" d="M151.612 226.113l.678 12.643c-21.509 7.496-44.633 6.002-52.698 1.674-2.711-7.55-4.98-22.794-7.154-34.502 7.21 11.078 58.83 16.192 59.174 20.185z"/>
    <path fill="#ff2a2a" fill-rule="evenodd" stroke="#000" stroke-width=".75" d="M152.256 238.119c.41-.218 1.018 1.082-.144 1.821-12.1 4.353-50.193 8.627-53.707-1.262-4.254-11.967-2.423-16.845-6.889-33.877l.863-.048c4.42 24.899 6.037 30.412 6.953 33.205 2.489 7.59 35.755 6.303 52.924.16z"/>
    <path fill="url(#linearGradient1577)" fill-rule="evenodd" stroke="#000" stroke-width=".75" d="M151.057 226.757c1.61-2.931-.085-8.462-3.451-11.074-11.12-8.63-16.731-15.437-21.238-25.456-13.55 1.534-27.727-3.652-40.652 4.602 9.971 13.695 11.434 28.226 16.107 31.017 6.558 3.916 32.677 7.014 49.234.911z"/>
    <path fill="#f55" fill-rule="evenodd" stroke="#000" stroke-width=".75" d="M74.723 178.475c8.862 17.896 6.96 41.718 5.72 55.569l7.28 2.848-2.39-47.144zM96.119 20.905c-.415-4.376 1.31-10.065 6.04-11.362 0 0 8.7-3.02 12.992-2.972 2.376.026 3.073 1.602 3.164 3.068.177 2.888-.192 11.554-.192 11.554z"/>
    <path fill="none" stroke="#000" stroke-dasharray="1,.5" stroke-width=".5" d="M96.934 19.467c.782-4.084 1.2-5.944 3.81-7.83 2.135-1.544 9.753-3.6 14.742-4.203 1.123.287 2.52 1.059 2.733 3.404"/>
    <path fill="url(#linearGradient1547)" fill-rule="evenodd" stroke="#000" stroke-width=".75" d="M110.836 210.937c-7.065-16.503-21.751-20.181-23.85-14.166-7.54-9.528-11.66-15.025-12.776-20.446-2.336-11.358 7.991-17.65 10.02-29.435 1.82-10.574-1.646-21.714-2.637-33.462-1.612-11.43-3.029-22.909-6.616-33.845-1.83-9.62-4.018-19.24-3.643-28.86-.73-10.491-2.888-21.814-.336-32.071 14.495.308 29.467.058 44.728-.528l.383 53.884-1.917 37.585v26.654l3.739 29.243 6.424 23.587c.79 2.616 3.001 15.836-13.519 21.86z"/>
    <path fill="#f55" fill-rule="evenodd" stroke="#000" stroke-width=".75" d="M126.848 195.37c.445 1.668 6.554 7.319 7.353 7.428 1.24-.446-2.444-5.45-5.271-12.852-3.117-8.16-6.545-20.91-8.842-27.668l-.815-29.578c.78-9.865.985-19.53-1.15-28.38 1.403-7.798 1.655-19.87 1.246-31.449l-.096-31.448.124-23.993c.085.66-1.126.513-2.912.703l.61 25.354c-.125 10.945.834 22.07-.65 32.788 1.084 8.227-.116 19.011-.385 28.38-.313 10.91-.657 31.12 1.392 31.688-1.934 1.624.958 18.665 1.438 27.997 2.652 10.343 5.127 20.427 7.958 31.03z"/>
    <path fill="#ff8080" fill-rule="evenodd" stroke="#000" stroke-width=".492" d="M114.906 136.51l.214 2.005c1.675.728 3.22 3.084 5.067 4.787.639.068.57-1.668.073-2.105-2.891-3.442-3.661-3.842-5.354-4.686z"/>
    <path fill="#f95" stroke="#000" stroke-linecap="square" stroke-width=".76" d="M114.982 175.354a1.945 1.945 0 0 0-1.933 1.957c0 1.081.865 1.958 1.933 1.958a1.945 1.945 0 0 0 1.932-1.958c0-1.08-.865-1.957-1.932-1.957z" paint-order="stroke fill markers"/>
    <path fill="none" stroke="#000" stroke-dasharray="1,.5" stroke-width=".5" d="M86.11 195.696c6.318-8.021 20.097 1.867 25.346 13.276 6.51-3.306 9.33-7.304 12.068-12.406 2.479-6.373-4.438-22.423-6.388-34.313"/>
    <path fill="#faa" fill-rule="evenodd" stroke="#000" stroke-width=".5" d="M114.137 176.566c-.552 1.134.677 2.373 1.545 1.538 1.925-2.561 3.777-4.38 5.064-5.922-.254-.804-.282-1.669-.826-1.964-1.86 2.287-3.952 3.958-5.783 6.348z"/>
    <path fill="#ff8080" fill-rule="evenodd" stroke="#000" stroke-width=".492" d="M117.762 167.203l.586 2.24c1.675.73 4.034 3.153 5.88 4.856.64.068.266-1.668-.231-2.105-2.892-3.442-4.543-4.147-6.235-4.991z"/>
    <path fill="#f95" stroke="#000" stroke-linecap="square" stroke-width=".728" d="M109.948 144.152c-.973 0-1.762.883-1.762 1.973s.789 1.973 1.762 1.973 1.762-.883 1.762-1.973-.789-1.973-1.762-1.973z" paint-order="stroke fill markers"/>
    <path fill="#f95" stroke="#000" stroke-linecap="square" stroke-width=".714" d="M109.389 124.246c-.931 0-1.685.887-1.685 1.98 0 1.094.754 1.981 1.685 1.981.93 0 1.684-.887 1.684-1.98 0-1.094-.754-1.98-1.684-1.98z" paint-order="stroke fill markers"/>
    <path fill="none" stroke="#000" stroke-dasharray="1,.5" stroke-width=".5" d="M105.85 202.164c.48-.288 4.528-4.938 5.13-8.437 1.714-9.963-5.064-21.658-6.28-31.821-2.242-18.732-1.822-54.806-1.822-54.806l3.835-88.304"/>
    <path fill="#f95" stroke="#000" stroke-linecap="square" stroke-width=".708" d="M109.524 113.531c-.913 0-1.654.888-1.654 1.984 0 1.095.74 1.983 1.654 1.983.914 0 1.654-.888 1.654-1.983 0-1.096-.74-1.984-1.654-1.984z" paint-order="stroke fill markers"/>
    <path fill="#f95" stroke="#000" stroke-linecap="square" stroke-width=".723" d="M110.897 154.725c-.956 0-1.731.885-1.731 1.976s.775 1.976 1.731 1.976c.956 0 1.731-.885 1.73-1.976.001-1.09-.774-1.976-1.73-1.976z" paint-order="stroke fill markers"/>
    <path fill="#faa" fill-rule="evenodd" stroke="#000" stroke-width=".5" d="M110.48 155.784c-.95.884-.209 2.239.75 1.926 2.377-2.147 5.408-4.149 6.05-6.215.37-.748.096-1.661-.381-2.055-1.545 2.824-4.166 4.348-6.42 6.344z"/>
    <path fill="#fea" fill-rule="evenodd" stroke="#000" stroke-width=".75" d="M121.694 155.345c.967-.21 3.073 12.12 2.034 12.407-2.734.754-25.618 7.298-40.068 3.593-4.6-1.179-6.588-5.395-12-8.949 3.002-4.012 7.04-5.628 17.898-3.186 9.596 2.158 30.798-3.575 32.136-3.865z"/>
    <path fill="none" stroke="#000" stroke-dasharray=".5,.25" stroke-width=".25" d="M122.006 155.998c-8.568 2.269-22.243 6.4-33.61 3.93-7.762-1.687-13.84-.346-15.432 2.255 7.604 5.268 7.525 8.347 15.137 8.902 10.923.796 22.435-.384 35.679-4.06"/>
    <path fill="#ffb380" fill-rule="evenodd" stroke="#000" stroke-width=".5" d="M87.825 156.89c-.509.043-.67.62-.818 1.43 0-.846.188-1.346-.703-1.28l-2.828.21c-1.102.08-1.363.954-1.342 1.757l.34 13.254c.032 1.263.604 2.39 1.83 2.406l2.543.033c1.248.017 1.012-1.202 1.152-2.335.094 1.254-.126 2.532.678 2.744l5.287 1.388c1.338.352 2.112-1 2.035-2.507l-.678-13.29c-.056-1.111-.182-2.459-1.152-2.642l-6.102-1.152a.903.903 0 0 0-.242-.016zm.68 1.133l4.51.834c.873.161.781 1.345.834 2.345l.609 11.721c.07 1.356.17 2.631-1.018 2.258l-3.978-1.25c-.367-.115-.355-.858-.43-1.54-.43-.115-1.115-.198-1.945-.245-.08.745-.03 1.623-.629 1.588l-1.645-.098c-1.1-.066-1.28-.826-1.308-1.963l-.305-11.826c-.018-.723.149-1.49 1.139-1.582l1.293-.121c.13-.012.22.052.287.168.8.139 1.388.312 2.19.347.082-.396.184-.676.396-.636z"/>
    <ellipse cx="92.427" cy="166.713" fill="#ff2a2a" stroke="#000" stroke-linecap="square" stroke-width=".436" paint-order="stroke fill markers" rx=".559" ry=".787"/>
    <path fill="#f95" fill-rule="evenodd" stroke="#000" stroke-width=".5" d="M92.609 166.051l1.872.029.275 1.22-2.167.059c-.889-.164-.85-1.218.02-1.308z"/>
    <path fill="#fca" fill-rule="evenodd" stroke="#000" stroke-width=".5" d="M93.93 174.125c.632.588 1.348.666 2.611.17l-.847-13.695c-1.225.099-1.689.148-2.373.067z"/>
    <ellipse cx="84.445" cy="165.203" fill="#ffd42a" stroke="#000" stroke-linecap="square" stroke-width=".294" paint-order="stroke fill markers" rx=".319" ry=".63"/>
    <ellipse cx="88.268" cy="166.353" fill="#ffd42a" stroke="#000" stroke-linecap="square" stroke-width=".366" paint-order="stroke fill markers" rx=".414" ry=".75"/>
    <path fill="#faa" fill-rule="evenodd" stroke="#000" stroke-width=".5" d="M109.483 145.082c-.714.811-.063 2.332 1.021 1.96 2.378-2.147 5.409-4.25 6.051-6.317.37-.748-.141-1.39-.619-1.783-1.545 2.823-4.2 4.145-6.453 6.14z"/>
    <path fill="#fea" fill-rule="evenodd" stroke="#000" stroke-width=".75" d="M120.1 126.33c.988-.053 1.127 12.872.067 13.153-2.518 1.314-17.062 3.567-32.373 2.373-10.465-.816-4.214-6.209-9.627-9.762 1.477-4.012 1.073-5.073 11.186-3.492 9.265 1.449 24.687-.403 30.746-2.271z"/>
    <path fill="none" stroke="#000" stroke-dasharray=".5,.25" stroke-width=".25" d="M120.31 127.273c-8.568 2.269-20.133 4.722-31.5 2.252-7.762-1.688-8.471-.826-9.728 2.206 5.543 5.317.377 8.538 8.953 8.998 10.974.589 19.428.829 32.37-2.047"/>
    <path fill="#ffb380" fill-rule="evenodd" stroke="#000" stroke-width=".5" d="M87.451 126.621c-.509.043-.67.62-.818 1.43 0-.846.188-1.345-.703-1.28l-3.337.244c-1.102.081-1.362.954-1.342 1.757l.238 12.983c.033 1.263.605 2.39 1.83 2.406l3.154.27c1.248.018 1.012-1.201 1.152-2.335.094 1.254-.126 2.533.678 2.744l5.083.745c1.339.351 2.112-1.001 2.036-2.508l.135-12.815c-.056-1.112-.182-2.459-1.152-2.642l-6.712-.983a.903.903 0 0 0-.242-.016zm.68 1.133l5.12.665c.873.161.782 1.345.834 2.345l-.204 11.246c.07 1.357.17 2.632-1.018 2.258l-3.775-.606c-.367-.115-.355-.857-.43-1.539-.43-.115-1.115-.199-1.945-.246-.08.746-.03 1.624-.63 1.588l-2.254-.335c-1.1-.066-1.28-.826-1.308-1.963-.102-3.976-.102-7.579-.203-11.555-.019-.723.148-1.49 1.138-1.582l1.802-.155c.13-.012.22.052.287.168.8.139 1.388.312 2.19.348.082-.397.183-.676.396-.637z"/>
    <ellipse cx="92.053" cy="136.444" fill="#ff2a2a" stroke="#000" stroke-linecap="square" stroke-width=".436" paint-order="stroke fill markers" rx=".559" ry=".787"/>
    <path fill="#f95" fill-rule="evenodd" stroke="#000" stroke-width=".5" d="M92.283 135.783l1.872.028.275 1.22-2.167.059c-1.032-.147-.472-1.323.02-1.307z"/>
    <path fill="#fca" fill-rule="evenodd" stroke="#000" stroke-width=".5" d="M93.482 143.29c.585.632 1.293.764 2.59.362l.172-13.72c-1.228.008-1.695.023-2.371-.108z"/>
    <ellipse cx="84.323" cy="134.467" fill="#ffd42a" stroke="#000" stroke-linecap="square" stroke-width=".272" paint-order="stroke fill markers" rx=".198" ry=".869"/>
    <ellipse cx="87.799" cy="135.725" fill="#ffd42a" stroke="#000" stroke-linecap="square" stroke-width=".425" paint-order="stroke fill markers" rx=".529" ry=".792"/>
    <path fill="#ff8080" fill-rule="evenodd" stroke="#000" stroke-width=".492" d="M113.805 109.256l.213 2.004c1.676.729 4.486 3.306 6.332 5.01.64.067.41-2.004-.087-2.442-1.163-1.34-4.766-3.727-6.458-4.572z"/>
    <path fill="#faa" fill-rule="evenodd" stroke="#000" stroke-width=".5" d="M109.37 114.436c-.778.625-.545 2.174.243 2.114 2.796-1.564 5.822-2.835 6.908-4.707.528-.647.44-1.186.061-1.676-2.135 2.408-4.57 2.825-7.212 4.269z"/>
    <path fill="#fea" fill-rule="evenodd" stroke="#000" stroke-width=".75" d="M119.464 97.1c.967-.21 1.875 14.18.835 14.467-2.733.755-19.016 4.706-34.315 3.018-6.42-.708-11.682-7.784-19.739-9.44.833-6.926 10.825-6.056 21.898-4.948 10.555 1.055 29.983-2.808 31.32-3.098z"/>
    <path fill="none" stroke="#000" stroke-dasharray=".5,.25" stroke-width=".25" d="M119.694 97.92c-8.52 2.46-21.123 3.99-32.712 2.995-10.16-.873-18.925-1.702-19.433 4.017 10.045 1.133 8.601 7.735 19.185 8.626 10.913.918 20.518.623 33.761-3.054"/>
    <path fill="#ffb380" fill-rule="evenodd" stroke="#000" stroke-width=".5" d="M84.349 97.421c-.631.451-.383 1.412-.53 2.221 0-.846.188-1.345-.704-1.28l-2.828.45c-1.102.08-1.362.954-1.342 1.757l.724 12.775c.032 1.263.604 2.39 1.83 2.406l2.615.225c1.248.017 1.156-.243 1.296-1.377.094 1.254.041 1.886.845 2.097l7.78.31c1.314-.056 1.585-1.384 1.508-2.891l-1.061-14.2c-.057-1.112-.782-2.604-1.536-2.643-2.825.049-7.957-.306-8.597.15zm.716 1.493c.149-.805 4.378-.503 6.607-.509.888-.002 1.285 1.01 1.337 2.01l.993 12.632c.07 1.356.17 2.536-.49 2.642l-6.472-.172c-.366-.115-.522-.21-.597-.892-.43-.115-1.115-.199-1.945-.246-.08.746-.174.665-.773.63l-1.717-.29c-1.1-.066-1.279-.827-1.308-1.963-.102-3.977-.587-7.37-.688-11.347-.019-.723.148-1.49 1.138-1.582l1.293-.36c.131-.013.221.051.287.167.8.139 1.388.312 2.19.348.106-.46.059-.603.145-1.068z"/>
    <ellipse cx="113.02" cy="85.348" fill="none" stroke="#000" stroke-linecap="square" stroke-width=".5" paint-order="stroke fill markers" rx=".767" ry=".755" transform="rotate(12.647)"/>
    <path fill="#f95" fill-rule="evenodd" stroke="#000" stroke-width=".5" d="M91.679 107.365l1.82.437.002 1.251-2.127-.417c-.832-.354-.564-1.374.305-1.271z"/>
    <path fill="#fca" fill-rule="evenodd" stroke="#000" stroke-width=".5" d="M93.644 113.991c.65.566 1.369.621 2.615.083l-1.302-13.66c-1.22.14-1.683.205-2.37.147z"/>
    <path fill="#ff8080" fill-rule="evenodd" stroke="#000" stroke-width=".492" d="M115.946 79.006l-.074 2.1c1.675.728 2.321 2.718 4.168 4.422.639.068.697-1.956.2-2.393-1.163-1.34-2.602-3.285-4.294-4.129z"/>
    <path fill="#f95" stroke="#000" stroke-linecap="square" stroke-width=".667" d="M111.066 82.562c-.803 0-1.453.897-1.453 2.004 0 1.106.65 2.003 1.453 2.003s1.454-.897 1.454-2.003c0-1.107-.65-2.004-1.454-2.004z" paint-order="stroke fill markers"/>
    <path fill="#faa" fill-rule="evenodd" stroke="#000" stroke-width=".5" d="M110.734 83.601c-.658.75-.169 2.322.596 2.127 2.485-2.022 4.537-3.577 5.284-5.608.408-.728.228-1.244-.229-1.661-1.534 2.455-4.008 3.848-5.65 5.142z"/>
    <path fill="#fea" fill-rule="evenodd" stroke="#000" stroke-width=".75" d="M119.402 67.286c.968-.21 1.672 13.842.632 14.129-2.733.754-20.742 3.318-36.077 2.001-8.25-.708-13.852-8.123-23.4-9.304 1.917-9.707 13.74-6.124 24.813-5.017 10.555 1.055 32.695-1.52 34.032-1.81z"/>
    <path fill="none" stroke="#000" stroke-dasharray=".5,.25" stroke-width=".25" d="M119.768 67.869c-8.52 2.46-23.261 3.236-34.814 1.876-14.905-1.753-20.484-3.26-23.432 3.747 10.045 1.133 12.6 8.006 23.185 8.896 10.913.919 23.025.352 35.388-1.765"/>
    <path fill="#ffb380" fill-rule="evenodd" stroke="#000" stroke-width=".5" d="M83.033 66.693c-.631.45-.552.869-.7 1.678.001-.846.256-1.65-.635-1.584l-2.76.177c-1.102.082-1.363 1.328-1.342 2.13L77.98 81.7c.032 1.263.605 2.39 1.83 2.406l2.412.36c1.248.017 1.02.096 1.16-1.037.094 1.254.042 1.885.846 2.096l7.78.31c1.314-.055 1.584-1.384 1.507-2.89l-.552-13.387c-.057-1.112-.782-2.603-1.536-2.643-2.825.049-7.754-.679-8.394-.222zm.716 1.492c.149-.805 4.175-.13 6.404-.135.888-.003 1.285 1.01 1.337 2.01l.484 11.818c.071 1.356.17 2.535-.49 2.641l-6.471-.171c-.367-.116-.522-.21-.598-.892-.43-.116-1.115-.199-1.945-.246.023.339-.038.326-.637.29l-1.513-.425c-1.1-.066-1.28-.826-1.309-1.963-.101-3.977-.247-7.201-.349-11.178-.018-.722.149-1.862 1.139-1.954l1.225-.09c.13-.012.153.357.22.473.8.139 1.387.312 2.189.348.106-.461.228-.061.314-.526z"/>
    <ellipse cx="84.078" cy="82.135" fill="none" stroke="#000" stroke-linecap="square" stroke-width=".5" paint-order="stroke fill markers" rx=".767" ry=".755" transform="rotate(-3.953)"/>
    <path fill="#f95" fill-rule="evenodd" stroke="#000" stroke-width=".5" d="M89.437 75.486l1.87-.1.358 1.198-2.158.208c-.898-.102-.933-1.156-.07-1.306z"/>
    <path fill="#fca" fill-rule="evenodd" stroke="#000" stroke-width=".5" d="M91.626 83.051c.624.595 1.339.682 2.608.2l-.684-13.703c-1.226.084-1.69.128-2.374.04z"/>
    <path fill="#ff8080" fill-rule="evenodd" stroke="#000" stroke-width=".492" d="M116.648 46.969l.213 2.003c1.676.73 2.272 2 2.898 3.805.64.068.774-2.481.31-2.953-.518-.56-1.728-2.011-3.421-2.855z"/>
    <path fill="#f95" stroke="#000" stroke-linecap="square" stroke-width=".587" d="M112.643 51.471c-.704 0-1.274.794-1.274 1.773 0 .978.57 1.772 1.274 1.772.703 0 1.273-.794 1.273-1.772 0-.98-.57-1.773-1.273-1.773z" paint-order="stroke fill markers"/>
    <path fill="#faa" fill-rule="evenodd" stroke="#000" stroke-width=".5" d="M112.53 52.17c-.659.75-.457 2.154.308 1.959 2.824-.87 4.83-1.646 5.578-3.677.272-1.135-.247-2.567-.704-2.984-.415 4.048-3.54 3.407-5.182 4.702z"/>
    <path fill="#fea" fill-rule="evenodd" stroke="#000" stroke-width=".75" d="M119.824 35.983c.968-.21 1.672 13.842.632 14.13-2.733.754-23.315 2.42-38.79 2.068-17.767-.405-13.241-4.936-24.62-6.66.833-6.52 14.147-8.361 25.22-7.254 10.555 1.055 36.22-1.994 37.558-2.284z"/>
    <path fill="none" stroke="#000" stroke-dasharray=".5,.25" stroke-width=".25" d="M120.02 36.6c-8.52 2.46-26.674 2.874-38.305 2.724-15.108-.194-21.298.604-23.704 5.577 10.045 1.133 6.77 6.108 23.592 6.253 10.951.094 26.755.216 39.117-1.901"/>
    <path fill="#ffb380" fill-rule="evenodd" stroke="#000" stroke-width=".5" d="M82.064 36.136c-.632.451-.553.87-.7 1.679 0-.846.256-1.65-.636-1.585l-2.76.178c-1.102.081-1.362 1.328-1.342 2.13l.385 12.606c.032 1.263.604 2.39 1.83 2.406l2.411.36c1.249.017 1.021.096 1.16-1.038.095 1.255.042 1.886.846 2.097l7.78.31c1.314-.056 1.585-1.384 1.508-2.891l-.553-13.386c-.057-1.112-.781-2.604-1.536-2.643-2.824.049-7.753-.68-8.393-.223zm.715 1.493c.15-.805 4.175-.13 6.404-.136.889-.002 1.285 1.01 1.338 2.01l.484 11.819c.07 1.356.17 2.535-.49 2.64l-6.472-.17c-.367-.116-.522-.211-.597-.892-.43-.116-1.115-.2-1.945-.246.022.338-.038.325-.638.29l-1.513-.426c-1.1-.065-1.28-.826-1.308-1.962-.102-3.977-.248-7.201-.35-11.178-.018-.723.15-1.862 1.14-1.955l1.224-.09c.131-.011.153.358.22.474.8.139 1.387.312 2.19.347.105-.46.227-.06.313-.525z"/>
    <ellipse cx="85.169" cy="51.581" fill="none" stroke="#000" stroke-linecap="square" stroke-width=".5" paint-order="stroke fill markers" rx=".767" ry=".755" transform="rotate(-3.953)"/>
    <path fill="#f95" fill-rule="evenodd" stroke="#000" stroke-width=".5" d="M88.42 44.93l1.869-.1.358 1.198-2.157.208c-.898-.102-.933-1.156-.071-1.306z"/>
    <path fill="#fca" fill-rule="evenodd" stroke="#000" stroke-width=".5" d="M90.656 52.495c.624.595 1.34.682 2.608.2l-.684-13.704c-1.225.085-1.69.129-2.373.04z"/>
    <path fill="#f95" stroke="#000" stroke-linecap="square" stroke-width=".76" d="M117.558 184.88a1.945 1.945 0 0 0-1.933 1.957c0 1.08.865 1.957 1.933 1.957a1.945 1.945 0 0 0 1.933-1.957c0-1.081-.865-1.957-1.933-1.957zM119.524 194.947a1.945 1.945 0 0 0-1.933 1.958c0 1.08.866 1.957 1.933 1.957a1.945 1.945 0 0 0 1.933-1.957c0-1.081-.865-1.958-1.933-1.958z" paint-order="stroke fill markers"/>
    <path fill="#f95" stroke="#000" stroke-linecap="square" stroke-width=".67" d="M110.27 93.14c-.812 0-1.47.896-1.47 2.002 0 1.106.658 2.002 1.47 2.002.811 0 1.47-.896 1.469-2.002 0-1.106-.658-2.002-1.47-2.002z" paint-order="stroke fill markers"/>
    <path fill="#f95" stroke="#000" stroke-linecap="square" stroke-width=".65" d="M112.27 61.503c-.76 0-1.378.9-1.377 2.012 0 1.11.616 2.012 1.377 2.012.76 0 1.377-.901 1.377-2.012s-.616-2.012-1.377-2.012zM112.473 31.028c-.76 0-1.377.901-1.377 2.012s.617 2.012 1.377 2.012c.761 0 1.378-.9 1.377-2.012 0-1.11-.616-2.012-1.377-2.012zM112.168 22.011c-.76 0-1.377.901-1.377 2.012s.616 2.012 1.377 2.012c.76 0 1.378-.9 1.377-2.012 0-1.11-.616-2.012-1.377-2.012z" paint-order="stroke fill markers"/>
    <path fill="#faa" fill-rule="evenodd" stroke="#000" stroke-width=".5" d="M118.744 196.125c-.754.967.232 2.23 1.322 1.661 1.91-2.213 4.276-5.18 5.803-5.893l-.576-1.932c-2.086 1.273-4.501 3.98-6.549 6.164z"/>
    <path fill="#ff8080" fill-rule="evenodd" stroke="#000" stroke-width=".492" d="M121.474 177.608l.654 2.004c1.676.728 3.288 2.236 5.135 3.94.639.068.265-1.77-.401-2.275-1.265-1.103-3.662-2.859-5.388-3.67z"/>
    <path fill="#faa" fill-rule="evenodd" stroke="#000" stroke-width=".5" d="M116.857 185.904c-.798 1.09.646 2.489 1.376 1.674 1.718-2.864 3-4.605 4.884-5.48l-.386-1.862c-2.15.742-4.14 3.228-5.874 5.668zM108.904 125.322c-.62.782.027 2.053.781 1.818 2.378-2.146 3.964-2.96 5.853-4.644-.061-.747.164-1.781-.026-2.942-1.545 2.824-4.354 3.772-6.608 5.768zM109.852 94.225c-.658.75.07 2.13.836 1.935 2.485-2.022 4.872-3.385 5.62-5.416.408-.727.036-.956-.421-1.374-1.534 2.455-4.392 3.56-6.035 4.855zM112.018 62.439c-.616.499-.364 2.295.38 2.223 2.825-.87 3.967-2.342 4.787-3.366.129-1.278-.055-2.59-.296-3.295-.782 3.143-3.627 3.979-4.87 4.438zM112.344 32.07c-.658.75-.385 2.202.38 2.007 2.824-.87 7.553-4.578 7.54-8.537-.005-1.166-.105-2.894-.562-3.311.025 6.624-5.715 8.546-7.358 9.84z"/>
    <path fill="#ff8080" fill-rule="evenodd" stroke="#000" stroke-width=".5" d="M124.1 187.718l.678 2c1.737.727 4.155 2.097 6.068 3.797.663.068.522-1.259-.17-1.763-2.786-3.165-4.821-3.191-6.576-4.034z"/>
    <path fill="#ff8080" fill-rule="evenodd" stroke="#000" stroke-width=".492" d="M115.562 147.203l.213 2.004c1.676.728 3.22 3.084 5.067 4.787.64.068.266-1.668-.232-2.105-2.891-3.442-3.356-3.842-5.048-4.686zM114.471 117.252l.118 2.195c1.676.729 3.815 3.258 5.661 4.961.64.068.601-1.524.104-1.961-1.163-1.34-4.19-4.351-5.883-5.195zM115.623 87.248l-.075 2.1c1.676.729 2.322 2.718 4.168 4.422.64.068.698-1.956.2-2.393-1.162-1.34-2.601-3.284-4.293-4.129zM116.208 56.337l.094 1.98c1.675.729 3.038 2.095 3.664 3.9.64.068.774-2.481.311-2.952-.518-.561-2.376-2.084-4.069-2.928zM112.167 25.102c4.169-1.276 9.796 4.282 7.36 5.776.03.237-.01.626.036.993 5.537-2.174-3.921-9.88-7.32-8.895-.47.228-1.043 1.274-.076 2.126z"/>
    <path fill="none" stroke="#000" stroke-dasharray="1,.5" stroke-width=".5" d="M70.327 20.33c11.486.882 35.563.027 45.015-1.007"/>
    <path fill="#fff6d5" d="M121.626 157.38l-.155-.476c-1.815.592-6.381 2.14-11.943 3.292-6.004 1.245-10.266 1.418-12.987 1.115 2.816.313 6.88.371 13.077-.623 5.595-.897 10.368-2.247 12.163-2.834l-.155-.475zM119.752 129.041l-.088-.492c-2.074.369-5.705 1.27-9.834 1.951-4.497.742-8.88 1.007-12.79.982 4.101.027 8.1.01 12.857-.486 3.642-.38 8.29-1.169 9.942-1.463l-.087-.492zM119.31 100.126l-.1-.49c-2.588.537-5.855 1.22-10.933 1.825-4.651.554-9.43.852-12.119.936 2.797-.087 7.366-.129 12.165-.438 4.932-.318 8.653-.839 11.09-1.344l-.102-.49zM119.31 69.82l-.094-.49c-2.276.44-6.537 1.289-12.145 1.817-5.74.54-10.035.459-12.675.165 2.78.309 6.778.61 12.71.334 5.539-.258 10.104-.909 12.3-1.334l-.095-.491zM119.65 38.227l-.094-.49c-2.91.557-6.577 1.197-12.877 1.834-5.43.549-11.07.903-13.3.995 2.44-.1 7.807-.189 13.339-.496 6.064-.338 10.334-.835 13.026-1.352l-.094-.49z"/>
    <ellipse cx="83.295" cy="107.046" fill="#ffd42a" stroke="#000" stroke-linecap="square" stroke-width=".353" paint-order="stroke fill markers" rx=".349" ry=".828"/>
    <ellipse cx="86.962" cy="107.825" fill="#ffd42a" stroke="#000" stroke-linecap="square" stroke-width=".425" paint-order="stroke fill markers" rx=".529" ry=".792"/>
    <ellipse cx="80.562" cy="75.646" fill="#ffd42a" stroke="#000" stroke-linecap="square" stroke-width=".387" paint-order="stroke fill markers" rx=".428" ry=".811"/>
    <ellipse cx="84.517" cy="76.281" fill="#ffd42a" stroke="#000" stroke-linecap="square" stroke-width=".425" paint-order="stroke fill markers" rx=".529" ry=".792"/>
    <ellipse cx="79.699" cy="45.372" fill="#ffd42a" stroke="#000" stroke-linecap="square" stroke-width=".418" paint-order="stroke fill markers" rx=".508" ry=".796"/>
    <ellipse cx="83.702" cy="45.576" fill="#ffd42a" stroke="#000" stroke-linecap="square" stroke-width=".425" paint-order="stroke fill markers" rx=".529" ry=".792"/>
    <path fill="#ffd5d5" d="M135.86 208.636c1.435 1.187 4.054 3.387 6.311 5.287 2.261 1.904 3.524 3.046 4.65 4.194.272.278.48.499.658.684.593.619 1.529 1.504 2.085 2.582a4.27 4.27 0 0 1 .488 1.694 4.315 4.315 0 0 1-.337 1.954c.205-.473.495-1.137.6-1.945a4.856 4.856 0 0 0-.138-1.937c-.36-1.322-1.239-2.503-1.86-3.151a12.074 12.074 0 0 0-.73-.691c-1.2-1.057-2.743-2.15-5.1-3.794-2.703-1.885-4.898-3.446-6.627-4.877z"/>
    <path fill="#faa" d="M150.778 228.43c-.217.064-.94.003-1.157.063-4.524 1.228-11.091 2.476-20.287 2.512-9.124.035-17.267-1.155-21.47-1.897 4.225.746 12.3 2.06 21.469 2.16 9.18.1 15.89-1.054 20.42-2.284.221-.06.808-.49 1.025-.554z"/>
    <path fill="none" stroke="#000" stroke-width=".5" d="M80.846 230.837l6.44 2.135 8.645-1.695"/>
</svg>
