<svg cursor="default" version="1.1" viewBox="0 0 256 256" xmlns="http://www.w3.org/2000/svg" xmlns:xlink="http://www.w3.org/1999/xlink">
 <defs>
  <linearGradient id="innoGrad2">
   <stop stop-color="#f55" offset="0"/>
   <stop stop-color="#ff8080" offset="1"/>
  </linearGradient>
  <linearGradient id="linearGradient850" x1="30.102" x2="74.034" y1="177.9" y2="136.68" gradientUnits="userSpaceOnUse" xlink:href="#innoGrad2"/>
  <linearGradient id="linearGradient858" x1="106.01" x2="150.78" y1="150.04" y2="112.81" gradientUnits="userSpaceOnUse" xlink:href="#innoGrad2"/>
  <linearGradient id="linearGradient860" x1="112.54" x2="98.712" y1="192" y2="128" gradientUnits="userSpaceOnUse">
   <stop stop-color="#ffd42a" offset="0"/>
   <stop stop-color="#ffe680" offset="1"/>
  </linearGradient>
  <linearGradient id="linearGradient882" x1="197.7" x2="167.6" y1="140.37" y2="90.897" gradientUnits="userSpaceOnUse" xlink:href="#innoGrad2"/>
 </defs>
 <g fill-rule="evenodd" stroke="#000">
  <path d="m103.25 51.381c20.92 25.543 43.564 49.43 67.81 72.521 11.124 4.899 19.069 2.923 26.56 1.387l-1.952 2.568c-7.528 1.873-15.289 3.074-25.378-2.465l-34.339-29.183-41.896-48.68z" fill="#fd5"/>
  <path d="m94.4 44.94c-0.67-0.102-0.516 2.56-0.917 3.233 6.619-0.931 16.258 13.57 22.582 20.7 5.933 6.688 13.76 15.381 21.522 23.022 12.93 12.728 36.474 36.104 42.9 36.447 6.898 0.367 17.895-0.37 18.201-3.898 0.08-0.912-0.805-1.6-1.356-0.982-2.821 3.165-14.494 3.125-17.833 2.513-2.086-0.382-14.876-10.789-20.424-15.902-5.168-4.764-15.608-14.83-21.908-21.682-6.472-7.042-14.002-14.92-19.782-21.855-4.669-5.602-13.631-18.925-22.985-21.596z" fill="url(#linearGradient882)"/>
  <path d="m67.236 93.65c13.59 27.945 18.073 57.367 14.795 82.691 4.216 1.883 8.175 1.701 12.123 1.438 0.754-21.16-4.137-38.73 10.686-61.735z" fill="#f55"/>
  <path d="m127.71 132.69c11.452 17.063 33.972 39.1 42.415 41.715 16.385 5.0762 59.464 2.2057 76.418-5.0159 1.408-0.59977 3.2701-9.647 3.2701-9.647 1.08-3.66-4.2728 0.57341-5.1668-0.0836z" fill="#ffb380"/>
  <path d="m92.716 46.297c-19.86 12.122-32.063 40.613-24.967 48.278 4.83 5.545 18.375 12.216 40.177 25.004 12.685 7.44 22.33 15.16 33.966 28.15 7.241 8.084 22.398 19.754 30.45 21.01 30.307 4.733 63.237-2.695 73.873-5.546 6.347-1.702 4.221-8.826-0.617-11.505-22.241-12.315-30.412-15.374-47.467-27.118-1.354 4.906-10.93 6.385-15.823 5.547-5.097-0.874-12.678-5.067-24.585-15.204-12.444-10.595-29.338-27.36-40.02-38.333-14.303-14.691-17.349-19.907-24.987-30.283z" fill="url(#linearGradient858)"/>
  <path d="m94.463 44.961c-0.867-0.132-1.977 0.536-2.496 1.409 1.621 4.684 7.156 12.02 15.349 21.261 7.684 8.669 17.676 18.689 27.878 28.439 16.749 16.005 34.273 30.783 42.594 34.253 8.87 3.7 21.384-1.078 21.781-5.65 0.103-1.181-1.804-1.622-2.517-0.821-3.655 4.101-11.856 4.901-16.182 4.109-2.702-0.496-11.306-4.64-18.492-11.267-6.695-6.173-18.156-15.17-26.316-24.05-8.384-9.125-19.55-19.052-27.037-28.04-6.047-7.26-7.761-8.407-14.562-19.642z" fill="#faa"/>
  <path d="m52.275 176.32c7.073 17.35 10.702 30.562 20.108 40.573 11.566 13.735 102.45 7.8816 106.82-0.505 5.127-7.209 5.147-11.531 5.147-11.531zm-39.269-52.275c23.146 37.847 14.245 62.066 15.91 86.62l6.06 1.894 9.344-1.894c-0.333-16.388-0.667-32.776 2.02-48.234z" fill="#ffb380"/>
  <path d="m184.75 203.94c1.202 18.826-102.35 17.541-116.32 4.33-1.706-1.614-12.207-25.469-15.007-30.192-15.8-26.66-31.554-43.65-39.794-52.894-17.927-20.108 4.437-50.863 19.193-67.427 4.04-4.537 11.453 0.332 25.177 7.551 24.659 12.972 30.187 33.715 63.204 72.708 7.65 9.034 24.646 25.877 37.768 37.669 13.054 11.73 25.111 17.87 25.774 28.255z" fill="url(#linearGradient850)"/>
 </g>
 <path d="m36.881 56.678c-13.769 12.568-4.1772 39.293 12.242 67.988 10.096 17.644 23.684 46.236 38.334 48.758 15.882-2.6347 41.115-10.395 48-19.39-16.908-16.767-33.942-47.68-53.054-69.375-18.149-20.602-39.859-31.079-45.523-27.981z" fill="url(#linearGradient860)"/>
 <g stroke="#000">
  <path d="m96.291 173.2c-11.255-34.601-42.377-63.538-60.385-76.191-1.9411 1.6372 10.94 23.411 19.942 39.151 13.71 23.971 24.971 41.751 40.443 37.039z" fill="#ffd42a" fill-rule="evenodd"/>
  <path d="m38.289 54.893c-1.3849-0.034346-2.5166 0.1903-3.334 0.70117-11.491 7.183-9.8551 29.004 2.7969 51.459 5.532 9.819 16.263 27.86 25.01 44.182 8.809 16.44 17.397 21.541 22.848 23.07 7.235 2.029 10.108 0.46423 16.1-2.0098 12-4.953 36.747-14.717 36.775-16.789 0.032-2.365-13.466-14.755-27.752-34.605-6.472-8.992-18.64-26.615-26.943-36.51-13.696-16.324-35.806-29.258-45.5-29.498zm3.3633 2.7363c8.2992 0.43332 25.671 13.535 38.676 29.035 7.885 9.396 20.601 28.722 26.746 37.26 13.566 18.85 24.28 28.982 24.838 31.158 0.688 2.681-18.439 9.2804-29.834 13.984-5.69 2.348-8.4171 3.8342-15.287 1.9082-5.176-1.452-13.331-6.2962-21.695-21.906-8.305-15.499-18.496-32.632-23.748-41.955-12.014-21.324-13.568-42.045-2.6582-48.865h0.001953c0.77612-0.48512 1.7753-0.68104 2.9609-0.61914z" fill="#faa"/>
  <path d="m130.79 156.76c4.07-2.201 6.923-3.0737 3.77-6.7817" fill="none"/>
 </g>
 <path d="m34.976 212.56 0.49949 0.0227c0.11948-2.633 0.23473-6.5515 0.30796-11.961 0.07383-5.4536 0.09486-11.616 0.07764-18.328-0.01692-6.5928-0.06882-13.01-0.11396-18.372-0.04603-5.4668-0.08018-9.3597-0.08018-12.05 0 2.4254-0.02836 6.8476-0.07607 12.05-0.04857 5.2951-0.12173 11.845-0.22977 18.368-0.11188 6.7556-0.24964 12.82-0.42119 18.312-0.17292 5.5359-0.33819 9.1757-0.46339 11.935l0.49949 0.0227z"/>
</svg>
