<svg cursor="default" version="1.1" viewBox="0 0 256 256" xmlns="http://www.w3.org/2000/svg">
 <g fill-rule="evenodd" stroke="#000">
  <path d="M153.709 81.618c14.738-4.762 24.548-17.169 29.42-18.183 5.679.57 3.447 10.745 4.925 16.415l-18.562 20.456z" fill="#4d4d4d"/>
  <path d="M153.859 80.12c6.244-3.462 13.555-4.99 18.66-10.893 7.85-9.076 15.027-9.087 15.269-.536l.267 9.464s-1.223.712-1.16 0c.273-3.116-.625-9.732-.625-9.732-.15-6.116-9.059-2.99-12.322 1.786-3.698 5.414-19.285 11.964-19.285 11.964z" fill="#ff8080"/>
  <path d="M28.234 138.87l8.571-3.93c28.12-21.408 58.274-50.207 81.429-72.32 3.501-2.84 6.591-5.54 9.643-10.18 3.035-4.612 7.443-4.032 11.607-.713 6.403 5.101 14.823 10.255 17.321 15.892 2.556 5.765-1.506 8.458-2.678 12.5l-93.572 84.108z" fill="#f55"/>
  <path d="m120.38 79.054c2.77 4.07 6.699 8.08 9.454 12.154l-8.794 4.238c-2.848-5.153-6.664-10.446-10.193-15.466 4.88-2.04 5.546-2.395 9.534-0.926zm-14.921 13.589c2.904 3.975 5.613 7.99 8.504 11.969l-8.114 4.388c-3.02-5.054-5.146-9.935-8.842-14.834 4.808-2.203 4.417-2.856 8.452-1.523zm-17.661 14.009c2.59 4.187 4.414 8.336 6.99 12.524l-7.764 3.562a152.12 152.12 0 0 0-8.473-14.951c4.964-1.828 5.326-2.774 9.247-1.135zm-15.81 12.611c2.471 4.258 4.744 8.535 7.201 12.794l-8.53 3.513c-2.472-5.343-4.871-10.694-8.033-15.953 5.013-1.688 5.49-2.104 9.362-0.354z" fill="#fca"/>
  <path d="m124.66 59.045c-4.132 3.182-5.744 4.59-8.36 7.878 8.21 7.08 16.211 10.876 24.054 18.516 2.514-3.183 6.324-5.433 9.441-8.13-2.892-4.986-21.892-17.292-25.135-18.264z" fill="#fca" stroke-width=".891"/>
 </g>
 <path d="m120.88 60.531 8.46-7.323c1.423-1.233 3.595-2.859 5.808-1.01 4.914 4.103 8.422 7.46 17.551 13.51 2.5 1.657 3.344 5.78 2.147 7.703l-4.167 6.692" fill="none" stroke="#000" stroke-width=".5"/>
 <path d="M61.895 163.155c-.273-7.321-2.116-15.111 5.089-23.928 18.498-22.636 46.92-42.095 70.714-63.036 10.592-9.322 15.117-.682 17.143 3.214 2.696 5.184 7.916 12.788 13.929 15.179l-65.893 61.25c-14.292 3.163-28.891 9-40.982 7.321z" fill="#ff8080" fill-rule="evenodd" stroke="#000"/>
 <g fill="none" stroke="#ffe6d5" stroke-dasharray="2,1" stroke-width=".5">
  <path d="m70.735 163.54c32.392-23.719 65.943-49.856 90.409-72.226m-92.724 70.793c32.392-23.718 68.09-49.602 90.41-72.1"/>
  <path d="m63.038 164.76s0.791-15.7 3.03-19.445c11.217-18.76 65.975-62.402 80.082-70.964 4.43-2.689 11.656 19.597 20.852 20.98"/>
  <path d="m64.75 166.98s1.616-15.318 3.031-19.445c4.905-14.309 64.651-62.625 78.82-70.206 4.57-2.445 9.13 18.081 22.114 20.221"/>
 </g>
 <g fill-rule="evenodd" stroke="#000">
  <path d="M11.782 150.561c-1.976 1.688-4.43 2.421-5.808 5.303-1.916 1.248-1.818 13.258.126 15.531.198 2.706-.364 5.963.884 7.83 7.526 11.253 31.23 11.91 55.558 10.1l35.103-32.577c-21.393 8.137-87.405 12.79-85.863-6.187z" fill="#ffe6d5"/>
  <path d="M14.663 148.334c1.706-3.066 7.335-6.488 12.767-9.554 27.63-2.569 33.324 16.656 34.108 24.554-20.553-1.895-61.574.048-46.875-15z" fill="#ffe6d5"/>
  <path d="M16.328 146.268c-4.777 3.704-8.203 9.01-4.546 11.364 24.925 16.04 81.07 3.294 88.136.379l.631-4.04c-32.199 10.74-66.775 10.747-84.852 2.272-5.451-2.555-1.614-6.562.63-9.975z" fill="#333"/>
 </g>
 <g stroke="#000">
  <path d="m5.823 155.74c12.098 19.747 61.782 11.647 86.161 8.125m-86.831 5.69c12.098 19.746 61.782 11.646 86.16 8.125m92.667-112.25c2.682 10.311 1.051 21.606 1.337 31.918" fill="none" stroke-width=".5"/>
  <path d="M218.61 86.795l1.895 22.855 13.006 12.5c16.296-6.936 11.076-20.02 14.773-30.557.12-3.156-1.006-6.313-2.904-9.47-4.088-9.185-13.876.622-26.77 4.672z" fill="#4d4d4d" fill-rule="evenodd"/>
  <path d="m243.41 80.636c2.682 10.312 1.05 21.606 1.337 31.918" fill="none" stroke-width=".5"/>
 </g>
 <g fill-rule="evenodd" stroke="#000">
  <path d="M217.98 86.669c6.664-1.807 9.419-3.754 14.935-7.024 5.934-3.516 12.897-4.788 14.165 5.22l-.058 4.582c.22-8.47-6.602-13.21-13.016-8.338-3.359 2.55-10.525 7.342-15.9 6.823z" fill="#ff8080"/>
  <path d="m84.484 166.55c4.841-3.478 9.226-8.098 14.664-10.083 33.13-24.566 62.154-50.512 87.031-80.754 5.21-6.334 9.985-6.475 15.913-2.447 10.777 7.323 25.17 15.046 26.241 19.538 2.1 8.804-7.34 10.693-11.528 16.246l-90.178 83.214z" fill="#f55"/>
  <path d="m185.87 78.496c-4.202 4.099-5.817 5.882-8.297 9.877 10.238 6.61 20.401 13.368 30.305 20.645 2.38-3.866 6.351-6.891 9.478-10.31-3.958-5.07-27.7-19.61-31.487-20.212z" fill="#fca"/>
 </g>
 <g stroke="#000">
  <path d="M180.73 83.133c3.24-2.82 3.62-7.446 9.723-8.46 6.47-1.074 11.749 4.104 17.837 8.358 7.001 4.89 13.876 6.728 14.362 10.709.51 4.193-2.919 7.36-4.546 10.985" fill="none" stroke-width=".5"/>
  <path d="m185.84 102.26c2.768 4.07 5.782 8.175 8.537 12.248l-8.257 4.112c-2.848-5.152-6.127-10.32-9.656-15.34 4.88-2.04 5.388-2.489 9.376-1.02zm-14.408 15.031c2.904 3.975 5.613 7.99 8.503 11.969l-8.114 4.387c-3.02-5.053-5.966-10.124-9.662-15.022 4.808-2.204 5.238-2.667 9.273-1.334zm-15.507 15.955c2.59 4.187 4.983 8.398 7.56 12.587l-8.428 3.751c-2.623-5.27-5.171-10.553-8.48-15.72 4.964-1.828 5.428-2.257 9.348-0.618zm-15.866 15.62c2.471 4.258 4.744 8.535 7.201 12.794l-8.53 3.513c-2.472-5.343-4.871-10.694-8.033-15.953 5.013-1.687 5.49-2.103 9.362-0.354z" fill="#fca" fill-rule="evenodd"/>
  <path d="M128.5 192.641c-.141-7.623.747-17.685 3.742-22.87 2.23-3.862 69.203-72.13 81.719-74.071 6.582-1.021 13.05 20.399 18.258 21.389 4.805.914 14.17-10.624 14.961-32.096 3.468 6.079 3.793 35.822 4.268 50.662-36.736 29.191-78.218 55.063-122.947 56.986z" fill="#ff8080" fill-rule="evenodd"/>
 </g>
 <path d="m130.48 191.47s1.337-15.424 3.03-19.445c2.835-6.728 68.472-69.559 79.803-73.236 6.031-1.958 13.842 20.532 19.824 19.95 9.319-0.906 14.854-19.845 14.684-29.61" fill="none" stroke="#ffe6d5" stroke-dasharray="2,1" stroke-width=".5"/>
 <path d="m133.12 191.78s1.337-15.425 3.03-19.446c2.835-6.728 66.154-67.045 77.404-70.963 4.895-1.705 13.085 19.774 19.066 19.192 9.32-0.906 15.702-18.67 15.532-28.435" fill="none" stroke="#ffe6d5" stroke-dasharray="2,1" stroke-width=".5"/>
 <g stroke="#000">
  <path d="M162.578 156.001a4.745 5.593 55.166 0 0-1.881 7.09 4.745 5.593 55.166 0 0 7.301.699 4.745 5.593 55.166 0 0 1.88-7.089 4.745 5.593 55.166 0 0-7.3-.7zm.997 1.51a2.935 3.338 55.166 0 1 4.416.504 2.935 3.338 55.166 0 1-1.063 4.316 2.935 3.338 55.166 0 1-4.418-.502 2.935 3.338 55.166 0 1 1.065-4.317z" fill="#fff6d5" stroke-linecap="round" stroke-linejoin="round" stroke-width=".796"/>
  <path d="M163.553 163.057c-14.645-7.319-30.364-12.313-48.242-15.186-1.777-.286 2.591-7.394 3.763-7.223 17.49 2.543 34.11 6.465 48.877 16.953.858 1.132 1.354 5.603-4.398 5.456z" fill="#ffe6d5" fill-rule="evenodd"/>
  <path d="M66.627 179.227c-5.057 4.331-9.419 8.539-9.264 14.085.175 6.288 5.179 16.867 6.964 19.307 12.899 17.639 71.222 8.654 84.477 4.652 26.529-8.01 41.44-18.6 57.466-35.366 11.434-11.963 30.325-15.932 41.785-24.286 2.9-2.113 3.671-6.188 3.84-8.392.359-4.703-.266-9.316-.357-14.018-4.813 7.138-16.111 8.927-25.268 12.589-14.695 6.308-32.907 26.136-63.981 36.108-43.891 14.085-95.457 13.283-95.662-4.68z" fill="#ffe6d5" fill-rule="evenodd"/>
  <path d="m58.754 187.81c-2.863 7.658 5.575 13.13 18.057 15.279 27.894 4.803 62.437-2.604 77.782-6.314 24.299-5.874 33.617-16.282 48.487-27.652 4.835-3.698 17.553-15.635 28.158-17.804 11.022-2.255 21.125-9.742 20.33-9.976" fill="none" stroke-width=".5"/>
  <path d="M166.02 200.248c-1.557.615-.701 3.052.505 2.652.901-.3 17.024-8.296 25.345-13.972 6.98-4.761 16.166-14.87 25.1-20.437 11.103-6.918 22.29-8.426 34.797-18.814.455-1.43.302-2.862.179-4.293-4.77 8.197-22.823 13.828-35.482 20.834-6.801 3.765-10.879 10.336-25.064 20.14-8.349 5.77-24.497 13.54-25.38 13.89z" fill="#333" fill-rule="evenodd"/>
  <path d="M70.02 176.012l15.535-10.893c24.94-1.3 40.263 17.037 42.5 26.608-22.847 7.706-38.994.792-56.964-2.143-4.927-2.935-7.037-6.849-1.071-13.572z" fill="#ffe6d5" fill-rule="evenodd"/>
 </g>
 <path d="m152.7 185.54c32.392-23.719 52.81-48.846 74.12-73.868m-72.058 75.805c32.392-23.719 51.422-48.467 72.732-73.489" fill="none" stroke="#ffe6d5" stroke-dasharray="2,1" stroke-width=".5"/>
 <g fill="#fff6d5" stroke="#000" stroke-linecap="round" stroke-linejoin="round">
  <path d="M147.57 170.78a4.78 5.807 61.633 0 0-2.84 6.965 4.78 5.807 61.633 0 0 7.383 1.446 4.78 5.807 61.633 0 0 2.838-6.964 4.78 5.807 61.633 0 0-7.38-1.448zm.825 1.625a2.957 3.466 61.633 0 1 4.455.956 2.957 3.466 61.633 0 1-1.644 4.25 2.957 3.466 61.633 0 1-4.456-.956 2.957 3.466 61.633 0 1 1.645-4.25z" stroke-width=".814"/>
  <path d="M179.688 142.241a5.097 5.803 67.432 0 0-1.75 7.306 5.097 5.803 67.432 0 0 7.877.928 5.097 5.803 67.432 0 0 1.748-7.304 5.097 5.803 67.432 0 0-7.875-.93zm1.129 1.595a3.146 3.471 71.819 0 1 4.767.646 3.146 3.471 71.819 0 1-.976 4.45 3.146 3.471 71.819 0 1-4.768-.645 3.146 3.471 71.819 0 1 .977-4.45z" stroke-width=".84"/>
  <path d="M200.523 125.787a5.136 5.448 38.072 0 0-7.404 1.12 5.136 5.448 38.072 0 0 .685 7.457 5.136 5.448 38.072 0 0 7.402-1.122 5.136 5.448 38.072 0 0-.683-7.455zm-1.314 1.609a3.065 3.37 38.072 0 1 .334 4.544 3.065 3.37 38.072 0 1-4.491.764 3.065 3.37 38.072 0 1-.335-4.545 3.065 3.37 38.072 0 1 4.492-.763z" stroke-width=".817"/>
  <path d="M215.16 111.251a4.75 5.464 33.83 0 0-6.987 1.894 4.75 5.464 33.83 0 0 .904 7.183 4.75 5.464 33.83 0 0 6.986-1.895 4.75 5.464 33.83 0 0-.903-7.182zm-1.191 1.71a2.835 3.38 33.83 0 1 .472 4.385 2.835 3.38 33.83 0 1-4.236 1.23 2.835 3.38 33.83 0 1-.474-4.386 2.835 3.38 33.83 0 1 4.238-1.23z" stroke-width=".787"/>
 </g>
 <g fill-rule="evenodd" stroke="#000">
  <path d="M181.446 149.361c-12.86-9.598-30.137-17.524-52.093-15.186-1.79.19 3.842-7.243 5.026-7.223 19.257.312 37.618 4.918 50.96 17.205.859 1.133 1.86 5.351-3.893 5.204zM196.026 132.917c-12.815-9.65-32.108-13.268-52.346-13.608-1.8-.03 4.979-6.495 6.162-6.465 18.154.46 35.38 2.962 49.635 15.058 1.027.754 1.397 5.162-3.45 5.015zM210.654 118.518c-13.414-8.682-29.424-16.32-50.578-15.565-1.799.064 4.818-8.155 5.998-8.055 20.508 1.738 40.462 8.492 48.183 18.531.929.895 1.121 5.122-3.603 5.089z" fill="#ffe6d5"/>
  <path d="m69.613 190.59c34.327 15.893 101.89-3.122 128.54-23.107 15.99-11.992 22.454-18.655 39.901-23.107 9.01-2.3 11.782-6.444 13.437-7.977-0.067-1.467 0.102-2.509-0.053-3.707-2.862 2.477-4.465 7.43-13.603 9.282-18.914 3.833-28.532 14.209-40.692 23.236-36.966 27.444-105.8 32.638-123.87 22.224-4.145-2.389-11.348-4.018 1.642-14.891-18.508 11.366-8.09 16.758-5.304 18.047z" fill="#333"/>
  <path d="M94.72 158.5c2.946.598 8.939-1.032 12.017-3.646 4.296-3.65 68.118-63.142 72.604-68.564 2.472-2.988 4.1-4.004 2.715-5.493-.85-.914-22.659 19.776-44.818 39.679C115.734 139.79 93.832 158.32 94.72 158.5z" fill="#ff8080"/>
 </g>
 <path d="m98.322 156.26s3.46-1.033 5.132-2.288c17.458-13.103 76.266-70.205 76.266-70.205l0.505-1.263" fill="none" stroke="#ffe6d5" stroke-dasharray="2,1" stroke-width=".5"/>
 <g stroke="#000">
  <path d="M147.474 177.247c-11.858-11.289-26.181-20.922-42.433-28.908-1.615-.794 4.644-6.31 5.715-5.803 15.978 7.556 30.718 16.176 41.764 30.53.489 1.334.41 6.007-5.046 4.181z" fill="#ffe6d5" fill-rule="evenodd"/>
  <path d="m120.75 134.65c-1.84-2.005 4.54-7.682 6.061-5.935 4.324 4.966 7.918 10.258 10.73 15.284-4.701-1.052-8.317-1.563-11.242-2.23-1.703-2.517-3.271-4.64-5.549-7.119zm16.151-14.159c-1.84-2.005 4.413-7.114 5.935-5.367 4.324 4.966 7.128 8.459 9.941 13.485-4.418-0.831-6.866-1.09-10.422-1.315-1.703-2.517-3.177-4.323-5.454-6.803zm14.831-13.502c-2.085-1.75 4.481-7.303 6.213-5.764 4.921 4.375 7.138 8.365 11.01 12.992-4.298-0.64-7.075-0.837-11.2-1.113-2.062-2.275-4.279-4.652-6.023-6.116zm15.882-15.465c-2.085-1.75 4.258-6.9 5.99-5.361 3.575 3.179 6.973 8.03 9.366 11.195-3.845-0.719-6.846-1.526-11.559-1.956-1.334-1.414-2.685-2.944-3.797-3.878z" fill="#fca" fill-rule="evenodd"/>
  <path d="m60.242 204.74c12.098 19.747 83.747 8.61 104.73-2.589" fill="none" stroke-width=".5"/>
  <path d="M78.285 139.552a4.78 5.807 61.633 0 0-2.84 6.966 4.78 5.807 61.633 0 0 7.382 1.446 4.78 5.807 61.633 0 0 2.838-6.965 4.78 5.807 61.633 0 0-7.38-1.447zm.825 1.626a2.957 3.466 61.633 0 1 4.454.956 2.957 3.466 61.633 0 1-1.644 4.249 2.957 3.466 61.633 0 1-4.456-.956 2.957 3.466 61.633 0 1 1.646-4.25z" fill="#fff6d5" stroke-linecap="round" stroke-linejoin="round" stroke-width=".814"/>
  <path d="M92.768 125.28a4.745 5.593 55.166 0 0-1.882 7.09 4.745 5.593 55.166 0 0 7.302.699 4.745 5.593 55.166 0 0 1.88-7.089 4.745 5.593 55.166 0 0-7.3-.7zm.996 1.51a2.935 3.338 55.166 0 1 4.417.504 2.935 3.338 55.166 0 1-1.063 4.316 2.935 3.338 55.166 0 1-4.418-.502 2.935 3.338 55.166 0 1 1.064-4.318z" fill="#fff6d5" stroke-linecap="round" stroke-linejoin="round" stroke-width=".796"/>
  <path d="M93.743 132.336c-14.237-9.971-23.097-8.345-41.278-9.249-1.797-.09 5.884-5.994 7.067-5.928 15.551.868 23.349-1.193 38.609 9.72.858 1.133 1.354 5.604-4.398 5.457z" fill="#ffe6d5" fill-rule="evenodd"/>
 </g>
 <g fill="#fff6d5" stroke="#000" stroke-linecap="round" stroke-linejoin="round">
  <path d="M108.994 110.131a5.097 5.803 67.432 0 0-1.75 7.305 5.097 5.803 67.432 0 0 7.877.929 5.097 5.803 67.432 0 0 1.748-7.305 5.097 5.803 67.432 0 0-7.875-.929zm1.129 1.595a3.146 3.471 71.819 0 1 4.767.645 3.146 3.471 71.819 0 1-.976 4.45 3.146 3.471 71.819 0 1-4.768-.644 3.146 3.471 71.819 0 1 .977-4.45z" stroke-width=".84"/>
  <path d="M132.607 98.348a5.136 5.448 38.072 0 0-7.404 1.121 5.136 5.448 38.072 0 0 .685 7.457 5.136 5.448 38.072 0 0 7.402-1.122 5.136 5.448 38.072 0 0-.683-7.456zm-1.314 1.61a3.065 3.37 38.072 0 1 .334 4.543 3.065 3.37 38.072 0 1-4.491.764 3.065 3.37 38.072 0 1-.335-4.544 3.065 3.37 38.072 0 1 4.492-.763z" stroke-width=".817"/>
  <path d="M149.138 86.465a4.75 5.464 33.83 0 0-6.988 1.893 4.75 5.464 33.83 0 0 .905 7.183 4.75 5.464 33.83 0 0 6.986-1.894 4.75 5.464 33.83 0 0-.903-7.182zm-1.191 1.709a2.835 3.38 33.83 0 1 .472 4.385 2.835 3.38 33.83 0 1-4.236 1.23 2.835 3.38 33.83 0 1-.474-4.386 2.835 3.38 33.83 0 1 4.238-1.23z" stroke-width=".787"/>
 </g>
 <path d="M110.752 117.25c-12.503-6.562-22.771-5.648-43.03-6.48-1.799-.074 3.886-4.92 5.07-4.902 19.257.312 33.645-1.243 41.853 6.179.859 1.132 1.86 5.35-3.893 5.204zM128.11 105.479c-12.815-9.65-25.59-7.287-45.828-7.626-1.8-.03 4.978-6.495 6.162-6.465 18.154.46 28.862-3.02 43.117 9.076 1.026.754 1.397 5.162-3.451 5.015zM144.632 93.731c-13.414-8.682-25.54-11.186-46.694-10.43-1.8.063 4.818-8.156 5.998-8.056 20.507 1.738 36.578 3.358 44.299 13.398.928.894 1.121 5.121-3.603 5.088z" fill="#ffe6d5" fill-rule="evenodd" stroke="#000"/>
 <path d="M31.388 137.593c2.947.597 8.56-3.052 11.638-5.667 1.746-1.483 19.235-15.64 32.788-27.944C95.612 86.01 116.9 65.246 120.492 61.658c2.919-2.916-4.995.142-5.997.82-1.034.7-17.671 19.965-39.83 39.868-21.505 19.315-44.164 35.068-43.277 35.247z" fill="#ff8080" fill-rule="evenodd" stroke="#000"/>
 <path d="m34.345 135.5s3.281-1.123 4.953-2.378c8.37-6.282 26.796-21.658 43.246-36.706 17.858-16.337 32.962-32.223 32.962-32.223l1.143-1.808" fill="none" stroke="#ffe6d5" stroke-dasharray="2,1" stroke-width=".5"/>
 <path d="M59.38 115.09c-1.431-1.07 4.722-7.054 6.06-5.934 2.315 1.936 3.342 3.175 6.155 8.2-3.586-.034-7.182-.137-10.375-.362-.676-.82-1.032-1.299-1.84-1.903zM74.209 101.933c-1.22-1.261 4.465-6.685 6.03-5.208 1.956 1.848 4.2 4.108 7.013 9.134-4.011-.014-6.5-.124-10.107-.089-.711-.988-1.751-2.611-2.936-3.837zM90.338 86.908c-1.338-1.628 4.499-7.103 5.928-5.794 3.21 2.938 6.899 7.813 8.467 10.072-2.143-.05-6.022.01-10.383.138-2.063-2.275-3.153-3.37-4.012-4.416zM104.295 72.197c-2.085-1.75 3.831-6.976 5.705-5.614 2.724 1.98 5.545 6.111 8.727 9.97-4.07-.584-7.046-.794-11.402-1.225-.925-1.098-1.917-2.197-3.03-3.131z" fill="#fca" fill-rule="evenodd" stroke="#000"/>
 <path d="M78.188 146.02c-11.858-11.29-18.416-15.746-34.162-18.807-1.767-.343 4.572-6.116 5.714-5.803 16.294 4.463 22.448 6.074 33.494 20.429.489 1.334.41 6.006-5.046 4.18z" fill="#ffe6d5" fill-rule="evenodd" stroke="#000"/>
</svg>
