<svg cursor="default" version="1.1" viewBox="0 0 256 256" xmlns="http://www.w3.org/2000/svg" xmlns:xlink="http://www.w3.org/1999/xlink">
 <defs>
  <linearGradient id="innoGrad1">
   <stop stop-color="#f55" offset="0"/>
   <stop stop-color="#ff8080" offset="1"/>
  </linearGradient>
  <linearGradient id="innoGrad2">
   <stop stop-color="#f95" offset="0"/>
   <stop stop-color="#ffb380" offset="1"/>
  </linearGradient>
  <linearGradient id="linearGradient859" x1="77.087" x2="65.965" y1="206.91" y2="150.53" gradientUnits="userSpaceOnUse" xlink:href="#innoGrad2"/>
  <linearGradient id="linearGradient873" x1="138.45" x2="136.72" y1="183.71" y2="167.79" gradientUnits="userSpaceOnUse" xlink:href="#innoGrad2"/>
  <linearGradient id="linearGradient881" x1="27.932" x2="99.525" y1="220.75" y2="177.08" gradientUnits="userSpaceOnUse" xlink:href="#innoGrad1"/>
  <linearGradient id="linearGradient883" x1="140.75" x2="174.75" y1="212.88" y2="191.19" gradientUnits="userSpaceOnUse" xlink:href="#innoGrad1"/>
 </defs>
 <g stroke="#000">
  <g>
   <path d="m252.16 221.51c1.4542 1.6738-0.22071 4.0564-2.6861 4.4795-13.165 2.2592-48.419 1.78-64.514 1.5845l-3.279-9.53z" fill="#ffd42a" fill-rule="evenodd" stroke-width=".98"/>
   <path d="m115.59 133.15 17.078 45.418 15.223 10.767c-6.494-21.26-24.004-75.148-32.3-56.185z" fill="url(#linearGradient873)" fill-rule="evenodd" stroke-width=".98"/>
   <path d="m109.58 121.65c21.825 30.533 20.391 45.564 36.404 67.557" fill="none" stroke-dasharray="1.9602, 0.9801" stroke-width=".49"/>
   <path d="m73.793 27.926c2.677-4.126 10.293 2.514 11.788 4.704 17.339 25.37 29.772 44.103 42.759 67.477 16.979 30.56 25.24 75.531 52.596 82.67l-6.187 8.415c-52.594-34.16-71.493-104.15-100.96-163.27z" fill="#faa" fill-rule="evenodd" stroke-width=".98"/>
   <path d="m145.2 186.85c-11.455-26.486-26.13-52.972-40.254-79.458l-30.803-77.533c2.357-2.255 7.884 0.123 12.164 7.088 13.722 22.333 24.566 36.927 40.67 64.772 11.94 20.645 23.11 74.185 52.253 82.083 0.663 1.506-33.058 9.203-34.03 3.048z" fill="#f55" fill-rule="evenodd" stroke-width=".98"/>
   <path d="m101.7 60.047c-5.02 5.514-2.897 13.005-6.125 19.252" fill="none" stroke-width=".49"/>
  </g>
  <g fill-rule="evenodd" stroke-width=".98">
   <path d="m54.647 51.48c6.69-7.826 11.568-17.705 19.734-24.266l37.498 89.476 21.24 55.981c5.384 14.192 20.682 15.3 29.053 13.302 11.705-2.795 31.175-7.23 33.078-5.863 19.487 13.983 59.954 32.141 57.406 41.741-1.412 5.321-85.273 3.231-127.06-1.925z" fill="url(#linearGradient883)"/>
   <path d="m9.031 105.99c12.154 25.806 8.597 110.84 8.597 110.84l5.857 0.04s-1.26-74.162 5.673-85.152z" fill="#f55"/>
   <path d="m41.76 97.064 17.326 100.81 29.928 10.501 16.627-10.151-38.854-108.34z" fill="url(#linearGradient859)"/>
  </g>
  <g>
   <path d="m54.361 98.814c25.325 24.444 14.362 76.366 38.679 102.74" fill="none" stroke-dasharray="1.9602, 0.9801" stroke-width=".49"/>
   <g fill-rule="evenodd" stroke-width=".98">
    <path d="m34.044 32.281c1.476-2.787 7.659-1.763 10.34 0.201 11.322 8.29 50.208 64.324 59.142 88.416 11.954 32.235 21.755 57.018 37.807 69.799l-1.732 1.485c-37.106-12.898-106.5-138.02-105.56-159.9z" fill="#faa"/>
    <path d="m43.51 100.91c3.221-3.562 11.277-3.2 18.902-1.925l-19.077-20.302z" fill="#ff2a2a"/>
    <path d="m137.87 190.57c-21.354-18.993-27.906-48.574-37.993-69.675-14.23-29.77-26.63-52.866-53.091-83.845-6.467-7.57-12.95-3.077-14.356-1.423l9.158 51.483c8.737-2.372 27.092 19.274 31.681 39.973 5.735 25.861 7.852 54.918 23.638 75.12z" fill="#f55"/>
    <path d="m56.042 226.06c36.04 14.657 134.98 8.462 137.02 5.472 6.258-9.15-36.808-34.011-49.008-41.83-7.305-4.681-43.896 8.998-62.373 9.901-14.212 0.695-27.578-23.958-28.96-48.017-1.21-21.1-5.1-52.195-9.898-77.39-4.204-22.073-9.553-39.576-8.417-42.407-12.808 15.12-19.643 29.437-27.996 46.15-5.612 11.228-0.506 27.793 9.623 39.315 37.105 42.208 22.488 101.68 40.007 108.81z" fill="url(#linearGradient881)"/>
    <path d="m50.686 220.8c2.11 9.931 19.584 14.096 55.655 15.752 29.399 1.35 80.107 0.128 84.096-2.1 1.88-1.05 2.045-2.45 2.888-3.5-1.124 0.837-31.481 4.079-80.706 2.0253-25.018-1.0438-53.007-1.4093-61.934-12.177zm-33.009-5.433c-0.14312 2.1037-0.18461 4.2073-0.201 6.311 1.2221 0.57203 5.176 0.44156 6.176 0.019l-0.15-6.126z" fill="#ffd42a"/>
   </g>
   <path d="m57.861 96.889c10.393-14.032 2.88-29.013 7.351-35.879m34.292 59.64c2.17-0.849 3.176-0.535 4.084-0.123m0 0.99c1.772-2.373 7.9-5.537 8.401-4.39m-87.605 10.33c-3.249 29.702-1.743 58.267-2.362 87.968" fill="none" stroke-width=".49"/>
  </g>
 </g>
</svg>
