<?xml version="1.0" encoding="UTF-8"?>
<svg cursor="default" version="1.1" viewBox="0 0 256 256" xmlns="http://www.w3.org/2000/svg" xmlns:cc="http://creativecommons.org/ns#" xmlns:dc="http://purl.org/dc/elements/1.1/" xmlns:rdf="http://www.w3.org/1999/02/22-rdf-syntax-ns#" xmlns:xlink="http://www.w3.org/1999/xlink">
 <metadata>
  <rdf:RDF>
   <cc:Work rdf:about="">
    <dc:format>image/svg+xml</dc:format>
    <dc:type rdf:resource="http://purl.org/dc/dcmitype/StillImage"/>
    <dc:title/>
   </cc:Work>
  </rdf:RDF>
 </metadata>
 <defs>
  <linearGradient id="innoGrad3">
   <stop stop-color="#f55" offset="0"/>
   <stop stop-color="#ff8080" offset="1"/>
  </linearGradient>
  <linearGradient id="innoGrad4">
   <stop stop-color="#ff8080" offset="0"/>
   <stop stop-color="#faa" offset="1"/>
  </linearGradient>
  <linearGradient id="innoGrad1">
   <stop stop-color="#f95" offset="0"/>
   <stop stop-color="#ffb380" offset="1"/>
  </linearGradient>
  <linearGradient id="innoGrad2">
   <stop stop-color="#ff7f2a" offset="0"/>
   <stop stop-color="#f95" offset="1"/>
  </linearGradient>
  <linearGradient id="linearGradient1266" x1="57.492" x2="55.322" y1="136.14" y2="199.05" gradientTransform="translate(-16.491 1.1505)" gradientUnits="userSpaceOnUse" xlink:href="#innoGrad2"/>
  <linearGradient id="linearGradient1274" x1="27.932" x2="64.271" y1="74.576" y2="71.864" gradientTransform="translate(-16.491 1.1505)" gradientUnits="userSpaceOnUse" xlink:href="#innoGrad2"/>
  <linearGradient id="linearGradient1282" x1="29.288" x2="88.136" y1="96" y2="136.95" gradientTransform="translate(-16.491 1.1505)" gradientUnits="userSpaceOnUse" xlink:href="#innoGrad1"/>
  <linearGradient id="linearGradient1300" x1="136.53" x2="173.92" y1="232.41" y2="197.32" gradientTransform="translate(-16.491 1.1505)" gradientUnits="userSpaceOnUse" xlink:href="#innoGrad4"/>
  <linearGradient id="linearGradient1308" x1="89.551" x2="172.58" y1="164.34" y2="147.47" gradientTransform="translate(-16.491 1.1505)" gradientUnits="userSpaceOnUse" xlink:href="#innoGrad4"/>
  <linearGradient id="linearGradient1316" x1="79.196" x2="218.03" y1="191.19" y2="186.2" gradientTransform="translate(-16.491 1.1505)" gradientUnits="userSpaceOnUse" xlink:href="#innoGrad4"/>
  <linearGradient id="linearGradient1332" x1="109.83" x2="122.31" y1="77.831" y2="69.424" gradientTransform="translate(-16.491 1.1505)" gradientUnits="userSpaceOnUse" xlink:href="#innoGrad4"/>
  <linearGradient id="linearGradient1342" x1="90.576" x2="48" y1="174.1" y2="201.22" gradientTransform="translate(-16.491 1.1505)" gradientUnits="userSpaceOnUse" xlink:href="#innoGrad3"/>
  <linearGradient id="linearGradient1589" x1="257.36" x2="230.24" y1="146.17" y2="164.07" gradientTransform="translate(-141.13 .76703)" gradientUnits="userSpaceOnUse" xlink:href="#innoGrad3"/>
  <linearGradient id="linearGradient1597" x1="277.69" x2="353.9" y1="175.73" y2="192.81" gradientTransform="translate(-141.13 .76703)" gradientUnits="userSpaceOnUse" xlink:href="#innoGrad4"/>
  <linearGradient id="linearGradient1605" x1="327.86" x2="356.34" y1="210.71" y2="179.25" gradientTransform="translate(-141.13 .76703)" gradientUnits="userSpaceOnUse" xlink:href="#innoGrad4"/>
  <linearGradient id="linearGradient1613" x1="283.66" x2="335.19" y1="142.64" y2="141.83" gradientTransform="translate(-141.13 .76703)" gradientUnits="userSpaceOnUse" xlink:href="#innoGrad4"/>
  <linearGradient id="linearGradient1621" x1="285.56" x2="302.92" y1="70.237" y2="60.746" gradientTransform="translate(-141.13 .76703)" gradientUnits="userSpaceOnUse" xlink:href="#innoGrad4"/>
  <linearGradient id="linearGradient1629" x1="187.12" x2="247.05" y1="65.898" y2="57.22" gradientTransform="translate(-141.13 .76703)" gradientUnits="userSpaceOnUse" xlink:href="#innoGrad2"/>
  <linearGradient id="linearGradient1637" x1="209.08" x2="279.32" y1="79.729" y2="106.03" gradientTransform="translate(-141.13 .76703)" gradientUnits="userSpaceOnUse" xlink:href="#innoGrad1"/>
  <linearGradient id="linearGradient1639" x1="286.1" x2="262.78" y1="41.22" y2="20.339" gradientTransform="translate(-141.13 .76703)" gradientUnits="userSpaceOnUse">
   <stop stop-color="#ffb380" offset="0"/>
   <stop stop-color="#f95" offset=".47621"/>
   <stop stop-color="#ffb380" offset="1"/>
  </linearGradient>
  <linearGradient id="linearGradient1665" x1="233.56" x2="234.33" y1="111.41" y2="141.71" gradientTransform="translate(-141.13 .76703)" gradientUnits="userSpaceOnUse" xlink:href="#innoGrad2"/>
 </defs>
 <g stroke="#000">
  <path d="m95.879 156.77 0.57527-41.707-12.464-6.7115c3.963 16.14-2.0369 50.268 11.889 48.419z" fill="url(#linearGradient1665)" fill-rule="evenodd" stroke-width="1px"/>
  <path d="m105.47 11.701c-0.67138 1.0116-1.0847 3.0761-0.19175 4.8898 17.963 6.5868 21.454 10.341 31.257 15.341 8.9307 13.158 13.407 22.599 17.263 34.607 3.0219 9.4097 1.5116 17.763-1.8265 24.454 7.238-2.5913 11.379-11.832 6.5198-26.463l-16.395-34.612c1.8894-2.1082 3.721-2.8106 1.8697-3.63-8.7482-3.872-28.546-9.8752-38.495-14.587z" fill="url(#linearGradient1639)" fill-rule="evenodd" stroke-width="1px"/>
  <path d="m156.57 88.02c0.98208-4.0414 2.1093-7.974 2.1093-12.752-2.2849-14.866-6.7563-21.034-17.642-43.241l-0.86291-5.3692-33.749-13.231c-0.55995 0.86291-0.71447 1.7258 0 2.5887 10.836 4.5655 25.213 7.5731 30.298 14.669 6.7956 8.9629 17.968 28.385 20.039 45.063-0.0365 5.5784-1.5159 9.7753-3.0681 13.902" fill="none" stroke-dasharray="0.8, 0.4" stroke-width=".4"/>
  <path d="m112.56 87.004c1.3592-10.58-9.7604-43.485-4.6102-54.644l2.4407-5.2881c2.2682-4.9145 14.428-0.97281 24.542 4.7458l2.6804-3.9172c-7.1907-4.4489-20.852-10.866-28.714-5.3032-13.03 7.879-14.574 9.9948-21.424 18.441l-9.2203 32.949z" fill="url(#linearGradient1629)" fill-rule="evenodd" stroke-width="1px"/>
  <path d="m111 84.021c-1.1743-13.123-5.1891-27.517-6.3051-44.068 1.488-4.791 2.3331-9.7853 5.4237-14.576 2.744-1.2886 5.3948-2.4318 8.8814-1.3559 5.266 1.6249 10.046 3.1934 13.763 5.7627l1.3559-3.1186s-11.304-3.9909-16.475-4.8814c-5.2705-0.90758-12.388 2.7304-11.864 3.2542" fill="none" stroke-dasharray="0.8, 0.4" stroke-width=".4"/>
 </g>
 <g fill-rule="evenodd" stroke="#000" stroke-width="1px">
  <path d="m150.34 129.73 3.164 6.1362c9.5737-2.6589 24.605 1.0572 39.981 5.1774l0.57527-3.6434c-12.167-6.6628-27.219-8.4032-43.721-7.6703z" fill="#f95"/>
  <path d="m244.9 223.82c0.3597 0.81293 0.57558 1.5779-0.13559 2.0339-1.6907 2.4924-22.673 3.4496-33.492 3.322l0.27119-3.661z" fill="#f95"/>
  <path d="m72.29 85.92c0.63949 5.1902 4.6104 13.93 7.0731 22.841 3.2049 11.597 5.031 24.144 5.6727 36.277l7.4576 7.7288-1.8983-27.797c-2.0569-5.6918-6.3575-16.777 4.0678-8.1356 12.928 4.757 24.356 26.542 33.898 41.492 11.078 17.356 11.319 35.797 16.814 53.966 3.267 5.4182 8.7466 9.8883 14.508 14.237 28.592-0.69183 67.141 2.1424 84.746-2.4407 1.3068-0.71 0.64331-1.617 0.81356-2.4407-112.56-27.691-116.28-106.96-173.15-135.73z" fill="url(#linearGradient1589)"/>
  <path d="m246.24 218.76c0.53842 1.3504-0.56053 2.8498-0.9273 4.076 0 0-9.862 1.6741-15.193 1.9298-21.416 1.0271-64.271-2.5763-64.271-2.5763-9.8649-2.3432-16.751-6.4734-19.39-13.153-5.6147-14.213-3.3287-25.798-12.61-43.932-17.802-34.782-30.059-46.795-50.034-63.458l-6.2373-23.864c66.919 55.935 76.238 128.8 168.66 140.98z" fill="#ff8080"/>
  <path d="m245.26 220.24c2.0454 0.27273 3.5654-5.3558 0.28764-7.4786-20.092-13.012-53.443-18.372-64.103-27.636-11.331-9.8477-20.999-39.097-32.842-58.096-13.054-20.94-44.827-54.81-57.593-56.162-20.06-2.1243-16.019 6.1409-17.83 10.373 6.0721 8.8207 10.854 10.893 21.742 22.124 16.266 16.776 34.428 32.405 45.255 60.979 6.1117 16.13 4.0268 41.053 19.176 47.939 26.854 12.207 56.65 10.748 85.907 7.9579z" fill="url(#linearGradient1597)"/>
  <path d="m218.22 178.82c-10.086 3.8668-13.535 11.247-19.751 17.162l8.3415 2.8764c7.3507-9.6518 14.916-17.582 11.41-20.039z" fill="#f95"/>
  <path d="m204.9 195.89c18.803 4.615-4.7839 21.356-19.119 20.339-19.49-1.3833-31.873-8.7782-33.898-14.237-5.6456-15.216-4.9074-37.48-22.373-63.322-15.3-22.638-34.531-36.339-51.254-53.017-5.134-5.1202-5.8484-15.961 12.203-13.559 8.5697 1.1401 30.767 17.672 56.949 55.729 11.243 16.343 18.318 42.666 29.288 54.373 6.0773 6.4858 11.841 9.6788 28.203 13.695z" fill="url(#linearGradient1637)"/>
  <path d="m107.19 23.014-5.3692 3.2599c-0.42207 0-2.6301 9.5408 3.2599 19.751 5.801 10.056 26.602 36.446 39.886 46.118 2.0953 1.5256 6.0497 0.88008 8.6291-0.38352 2.7243-1.3346 4.1131-2.9535 5.3692-5.6569 3.1154-6.7047 2.5999-14.409 0.28764-21.093-3.8916-11.25-10.022-21.32-16.446-34.871 2.3892-1.9002 2.7729-3.6021 1.7936-4.0734-12.179-5.8624-19.982-6.6504-37.794-15.036-1.0628 0.03636-1.193 0.33313-1.1166 0.6876 17.251 7.8312 26.594 10.221 37.934 15.132 0.98186 0.42524-0.92106 1.2748-2.3011 2.7805 4.9656 14.659 24.161 37.968 16.683 55.706-0.98977 2.3478-2.1066 2.786-3.931 3.164-1.7351 0.35946-4.4522-0.81375-6.1362-2.1093-10.028-7.7145-28.479-29.364-38.831-46.789-4.0092-6.7479-1.9176-16.587-1.9176-16.587z" fill="url(#linearGradient1621)"/>
  <path d="m133.68 25.987c1.0987-1.5838 5.2555 0.57096 4.0339 1.8305l-2.983 5.1525c-2.6216 0.04871-4.0534-1.7124-3.7627-1.9661z" fill="#fd5"/>
  <path d="m140.58 29.712c1.5149-1.1919 4.8569 2.0873 3.3196 2.9331l-4.3631 4.051c-2.5206-0.72233-3.3729-2.8259-3.0206-2.9832z" fill="#fd5"/>
  <path d="m133.66 23.781c1.7944-0.24433 12.996 7.7276 11.985 8.9167l-0.81497 0.95879 0.81497 1.1505c0.62456-0.43886 1.7364-1.2107 1.5341-2.7325-0.23768-1.7879-11.561-10.418-13.375-10.355-1.5046 0.05205-1.791 1.4151-2.7326 2.3011l1.6299 0.62321s0.39921-0.78672 0.95879-0.86291z" fill="#ffe680"/>
 </g>
 <path d="m136.44 31.739 3.3078-4.4104" fill="none" stroke="#000" stroke-width="1px"/>
 <g fill-rule="evenodd" stroke="#000" stroke-width="1px">
  <path d="m174.57 222.25 7.9784 0.51911s9.5248-17.452 16.117-25.064c5.7432-6.6317 19.211-17.65 20.614-17.45-2.6187 5.8597-6.379 11.105-11.284 16.456l1.2464 0.57527c6.0615-6.4701 11.5-16.087 11.092-17.799-1.8672-1.1776-4.6311-4.1486-5.561-3.4516 0 0-16.42 10.243-23.011 17.929-7.0564 8.2292-17.192 28.284-17.192 28.284z" fill="url(#linearGradient1605)"/>
  <path d="m122.73 143.28 3.2542 5.8305c6.2248-0.87483 7.2745-2.179 19.652-2.7301 16.164-0.71961 37.345 1.7203 48.416-1.4733l0.67797-7.0508c-9.161-7.0779-25.517-8.854-44.339-8.8136l0.94916 1.3559c18.207-1.6524 41.857 4.6845 41.763 7.7288-1.717 2.6062-31.781-0.21787-48.542 1.3559-10.428 0.9791-14.966 2.4936-21.831 3.7966z" fill="url(#linearGradient1613)"/>
  <path d="m72.9 89.309c-5.389-27.108 9.9415-44.6 21.208-56.085 0.5549-0.56569 9.8692-11.831 19.15-13.251 6.2853-0.96127 12.282 1.0888 20.722 5.9494-8.6063-3.9698-14.615-5.6086-20.271-4.7339-12.057 1.8645-17.999 12.339-18.402 13.036-9.2009 15.912-20.506 42.364-6.4748 72.169-6.4846-4.905-11.05-10.934-15.932-17.085z" fill="#ff8080"/>
 </g>
 <g fill="none" stroke="#000" stroke-dasharray="0.8, 0.4" stroke-width=".4">
  <path d="m155.9 90.417c-2.8748 0.54485-4.1206 2.7188-8.8209 1.4382-4.7152-0.94304-41.64-40.83-44.296-54.555-0.71201-3.6798-0.76704-11.218-0.76704-11.218l3.7393-2.2052s-0.69805 10.864 1.3162 14.498c17.58 31.716 40.87 49.645 40.87 49.645 4.7226 2.0533 8.7484 1.7519 10.259-0.38352"/>
  <path d="m219.68 179.21c-2.8646-0.75385-16.003 10.786-22.169 17.831-6.3772 7.2858-15.593 24.068-15.593 24.068l-5.2203-0.47458s9.4821-18.999 16.542-26.644c6.5009-7.0394 22.915-17.356 22.915-17.356"/>
  <path d="m194.51 143.6c-8.937 2.648-29.528 1.8232-45.859 1.5806-10.485-0.15575-21.516 2.4812-21.516 2.4812l-2.1093-3.6434s12.926-2.476 21.405-3.2599c9.1245-0.84355 47.958 0.51399 48.193-1.9525"/>
 </g>
 <g fill="#ffd5d5">
  <path d="m245.55 214.03c0.0429 0.0689 0.18131 0.14636 0.2813 0.31584 0.0881 0.14924 0.11907 0.33152 0.0868 0.51573-0.0231 0.1319-0.0752 0.23935-0.12668 0.29296-0.0544 0.0567-0.11589 0.11219-0.1848 0.16657-0.13961 0.11017-0.31111 0.2168-0.52022 0.32075-0.35342 0.17568-0.82248 0.34772-1.4416 0.51592-0.53834 0.14625-1.188 0.28898-1.9661 0.4272-1.39 0.24693-3.1458 0.47163-5.2873 0.67162-1.9746 0.18441-4.2024 0.3408-6.6202 0.47144-5.6727 0.30653-11.852 0.44296-16.95 0.49876-4.9017 0.0536-8.9068 0.0327-10.697 0.0327 1.8778 0 5.7077-0.0482 10.693-0.20311 5.076-0.15766 11.285-0.42602 16.919-0.86055 2.4101-0.18588 4.6232-0.39505 6.5818-0.62879 2.126-0.25372 3.8492-0.52412 5.2014-0.80663 0.75605-0.15795 1.3739-0.31505 1.8752-0.46889 0.57932-0.1778 0.98147-0.34473 1.2586-0.49295 0.16267-0.087 0.27552-0.16398 0.3538-0.22788 0.0383-0.0313 0.0677-0.0589 0.0903-0.0824 0.0222-0.0231 0.0701-0.0302 0.12914-0.0371 0.077-9e-3 0.17596-0.0188 0.2553-0.0946 0.0985-0.094 0.11546-0.25059 0.0682-0.3265z"/>
  <path d="m193.2 140.56c-0.1403 0.0177-0.62641-0.37725-0.77453-0.36046-2.3962 0.2715-6.5309 0.71133-13.746 0.96186-7.5423 0.26189-14.684 0.17106-18.965-0.0201 4.6486 0.20759 11.046 0.50377 18.974 0.48951 7.0551-0.0127 11.58-0.28124 13.839-0.53717 0.15027-0.017 0.53293-0.51589 0.67323-0.53361z"/>
  <path d="m216.3 178.15s-0.21635-0.34784-0.21635-0.34784c-0.88717 0.5518-6.7823 4.2161-10.688 6.9717-5.2413 3.6975-8.1316 6.4316-10.093 8.7168 1.8972-2.2108 5.0601-4.947 10.323-8.3778 4.6738-3.047 9.0958-5.4984 10.891-6.615 0 0-0.21635-0.34784-0.21635-0.34784z"/>
 </g>
 <g fill-rule="evenodd" stroke="#000" stroke-width="1px">
  <path d="m216.19 236.13c2.2542 2.8277-7.2206 4.2315-12.746 5.017-30.785 4.3763-61.27 6.151-91.525 1.6949-28.224-4.1569-27.707-15.185-32.136-24.203z" fill="#f95"/>
  <path d="m61.068 36.405c10.786 2.4678 49.212 41.514 50.169 63.051 9.7834-6.2536 1.9327-21.358-10.794-36.573-12.157-14.534-27.856-31.522-39.511-31.63z" fill="#ffb380"/>
  <path d="m35.667 215.73 5.3692-1.5341c-0.47069-24.992 0.95716-49.985 2.4929-74.977-3.4744-10.087-9.1243-9.8406-14.574-10.547z" fill="url(#linearGradient1266)"/>
  <path d="m18.6 108.73c15.012 35.73 10.556 74.671 11.697 107.19l6.5198 1.1506c-1.5477-30.402 1.2204-71.071-1.7956-74.528-3.8949-7.1251-4.0728-12.247 2.1791-6.9691 14.105 11.908 28.639 43.262 34.418 65.252 6.1697 23.476 16.154 33.515 24.194 36.548 37.86 14.281 122.21 1.73 120.68-0.93553l-0.57527-1.7258c-39.775 4.4999-78.987 3.9353-117.74-0.76703-20.448-28.375-44.098-103.78-79.579-125.22z" fill="url(#linearGradient1342)"/>
  <path d="m216.49 231.26c-0.0334 1.7502 1.0957 2.4131-0.23629 4.4879-30.024 6.3785-63.128 8.8532-99.178 4.544-14.232-1.7012-31.874-1.8728-41.851-33.736-15.532-49.6-24.996-59.885-53.392-92.844l5.6926-17.468c53.457 63.581 45.13 125.94 188.96 135.02z" fill="#ff8080"/>
  <path d="m152.45 202.79c7.534-5.8899 25.736 3.9159 23.682 14.478l8.9167 1.3423c-7.424-10.113-23.226-27.279-32.599-15.82z" fill="#f95"/>
 </g>
 <g stroke="#000">
  <path d="m62.424 33.422c7.9933-0.86481 18.104 10.553 30.576 23.363 10.292 10.571 19.067 23.492 22.441 36.162l-3.2542 5.1525c-2.4853-23.777-41.105-60.499-49.898-62.237" fill="none" stroke-dasharray="0.8, 0.4" stroke-width=".4"/>
  <path d="m62.933 110.28c-2.994-17.635-0.40067-31.801-11.777-54.595 1.3517-5.8709 3.4273-11.923 6.2253-18.155l5.1077-0.36025-0.84646-6.791c-5.8029 0.68899-12.126-1.6322-15.621 4.331-8.9297 7.1713-12.678 16.609-15.916 26.271l-9.5879 33.749z" fill="url(#linearGradient1274)" fill-rule="evenodd" stroke-width="1px"/>
  <path d="m60.255 103.25c-1.1858-12.764-1.5282-24.121-10.034-49.085 1.01-4.7592 3.119-10.645 5.9661-18.034l4.8814-0.13559-0.40678-4.4746c-5.693 0.16029-10.84 0.17562-13.017 4.2034l-6.2373 5.0169" fill="none" stroke-dasharray="0.8, 0.4" stroke-width=".4"/>
 </g>
 <g fill-rule="evenodd" stroke="#000">
  <path d="m41.882 39.862c4.3038-4.7261 7.1403-10.473 19.864-8.8814l-0.33898-1.1525c-8.7984-0.39329-16.599 0.45998-19.525 10.034z" fill="#ff8080" stroke-width="1px"/>
  <path d="m44.523 38.187 0.93828 4.1508c0.2344 1.053 1.9169 0.73247 1.7298-0.45968l-1.028-4.0287c-0.52152-1.282-1.8001-0.44684-1.6401 0.33752z" fill="#fd5" stroke-width=".5"/>
  <path d="m40.505 51.234 3.0947 2.9211c0.78203 0.74302 1.9995-0.46172 1.1791-1.3467l-3.101-2.7696c-1.1481-0.77288-1.7432 0.63359-1.1727 1.1952z" fill="#fd5" stroke-width=".5"/>
  <path d="m41.611 25.891c0.71795-2.4578 3.6018-6.9345 4.3146-5.7527l-1.1505 20.135c1.2217 3.6786 2.5622 4.7882 5.2733 6.9033 15.181 14.542 27.654 31.192 45.542 43.625 24.313 16.898 20.195-4.3342 16.971-10.067-11.96-21.267-38.339-44.623-43.529-47.172-2.495-1.2255-6.9236-1.1447-6.9236-1.1447l-0.277-1.3084s5.1816 0.21034 7.8436 1.5447c10.757 5.3921 39.669 36.79 43.941 47.889 5.586 14.514 0.5697 18.341-3.5475 21.477-9.6425 1.4015-13.495-1.9389-18.217-5.3692-21.643-15.721-31.129-29.147-46.693-43.721-6.216-0.12669-7.5465-9.2848-6.5198-11.697 1.4929-4.963 2.1596-9.6974 2.9722-15.341z" fill="url(#linearGradient1332)" stroke-width="1px"/>
 </g>
 <path d="m115.05 95.978s-1.5526 2.8999-5.561 2.3011c-8.9295-1.3339-17.391-7.8599-26.499-15.698-15.809-13.605-20.412-22.098-31.22-31.858-3.4905-3.2363-8.075-6.1079-7.9579-10.547l1.1505-18.025c-1.4726 0.60862-1.6902 2.1674-2.397 3.3558l-3.164 17.354c-0.46813 4.225 1.2221 7.786 7.3827 9.9714 10.817 10.029 31.961 36.046 51.966 46.885 4.6994 2.546 14.06 1.2574 13.327 0.67116" fill="none" stroke="#000" stroke-dasharray="0.8, 0.4" stroke-width=".4"/>
 <g fill-rule="evenodd" stroke="#000">
  <g stroke-width="1px">
   <path d="m216.46 232.88c0.61018-2.6426 0.7377-5.2022-2.7119-6.9152-8.0105-3.9781-31.77-9.4729-47.729-10.712-23.616-1.8334-38.049-5.0097-48-13.695-10.658-9.3021-15.813-45.312-33.22-68.475-16.267-21.644-31.397-42.948-51.322-43.051-9.8248-0.05047-11.787 1.9621-15.525 5.2203 8.8588 14.418 18.229 25.028 33.898 45.288 23.788 30.758 28.411 65.577 36.203 81.627 9.027 18.592 90.789 20.948 128.41 10.712z" fill="url(#linearGradient1316)"/>
   <path d="m156.07 215.11c44.659 3.2926-2.7862 21.244-34.11 17.876-28.318-3.0452-31.576-9.5668-33.558-15.916-29.761-95.342-42.938-77.989-64.814-116.78-7.0434-12.634 16.213-10.265 25.976-3.5969 12.668 8.6516 21.903 20.573 34.427 37.538 16.625 22.519 20.7 58.33 34.993 69.033 10.797 8.0849 24.561 10.923 37.085 11.846z" fill="url(#linearGradient1282)"/>
   <path d="m31.065 124.46-10.891-12.299c-11.564-19.073 10.704-59.23 18.901-71.168-8.7329 17.793-20.479 49.197-8.0096 83.467z" fill="#ff8080"/>
   <path d="m30.221 214.1 6.3859 1.46 4.4218-1.5346 0.07602 6.6393-4.4431 1.232-6.3051-1.4915z" fill="#ff2a2a"/>
  </g>
  <path d="m47.007 44.221 3.0947 2.9211c0.78203 0.74302 1.9995-0.46172 1.1791-1.3467l-3.101-2.7696c-1.1481-0.77288-1.7432 0.63359-1.1727 1.1952z" fill="#fd5" stroke-width=".5"/>
  <path d="m44.94 36.771c-0.35047-0.04379-0.72357 0.06061-1.0918 0.37891l-6.7793 5.832c-0.80754 0.69449-0.91772 1.7649-0.46484 2.7832l4.5488 10.229c0.3505 0.78816 1.5956 1.2455 2.627 0.41211l7.0176-5.6699c1.0267-0.8296 1.3306-1.8907 0.84766-2.8047l-5.2871-10.004c-0.31554-0.59716-0.83385-1.0833-1.418-1.1562zm-0.02344 2.043c0.47313 0.05912 0.89285 0.4538 1.1484 0.9375l4.2812 8.1016c0.39118 0.74029 0.1461 1.5995-0.68555 2.2715l-5.6836 4.5938c-0.83543 0.67503-1.845 0.30442-2.1289-0.33398l-3.6855-8.2852c-0.36683-0.82486-0.27716-1.6914 0.37695-2.2539l5.4922-4.7246c0.29826-0.25782 0.60089-0.34211 0.88476-0.30664z" fill="#ffe680" stroke-width=".5"/>
 </g>
 <ellipse transform="matrix(.96678 -.2556 0 1 0 0)" cx="46.636" cy="61.804" rx=".98719" ry=".71629" fill="#ff2a2a" stroke="#000" stroke-linecap="round" stroke-linejoin="round" stroke-width="1.0323" style="paint-order:stroke fill markers"/>
 <g fill-rule="evenodd" stroke="#000">
  <path d="m44.362 50.634 1.8305 4.2034c0.46716 0.53461 2.0194 0.67357 1.8305-1.2203l-1.8983-4.2034c-1.1302-0.23412-2.0735 0.73793-1.7627 1.2203z" fill="#ffe680" stroke-width=".5"/>
  <path d="m107.31 155.73c14.666-2.9641 38.256-1.6783 39.322-11.119-25.865-0.82771-42.637 9.6999-39.322 11.119z" fill="#f95" stroke-width="1px"/>
  <path d="m59.445 166.07 3.0681 7.8621c31.213-9.5422 85.885-18.184 86.195-22.819l-1.1506-7.1909c-27.464 0.39833-34.459 5.6322-41.707 10.547l2.3011-0.67115c5.2925-4.7993 26.798-9.2229 38.352-9.2044 1.5286 4.0871-52.895 10.834-87.058 21.477z" fill="url(#linearGradient1308)" stroke-width="1px"/>
 </g>
 <path d="m36.722 215.4 0.09588 6.4239" fill="none" stroke="#000" stroke-width="1px"/>
 <path d="m113.09 239.8s22.768-42.773 43.193-44.2c11.588-0.80957 28.14 22.1 28.14 22.1l-0.95879-0.0959s-11.905-17.438-21.141-16.731c-21.218 1.6241-40.605 39.79-40.605 39.79z" fill="url(#linearGradient1300)" fill-rule="evenodd" stroke="#000" stroke-width="1px"/>
 <g fill="#ff2a2a" stroke="#000" stroke-linecap="round" stroke-linejoin="round">
  <ellipse transform="matrix(.9518 -.30671 0 1 0 0)" cx="44.751" cy="59.942" rx=".88639" ry=".77176" stroke-width="1.0153" style="paint-order:stroke fill markers"/>
  <ellipse transform="matrix(.9486 -.31648 0 1 0 0)" cx="56.298" cy="73.886" rx=".78772" ry=".70771" stroke-width=".91656" style="paint-order:stroke fill markers"/>
  <ellipse transform="matrix(.9486 -.31648 0 1 0 0)" cx="52.963" cy="70.026" rx=".78772" ry=".70771" stroke-width=".91656" style="paint-order:stroke fill markers"/>
 </g>
 <path d="m147.37 145.74c-7.4397 6.1416-38.732 7.3208-86.099 20.997l2.2052 5.561c36.154-10.23 82.078-17.556 84.757-21.956" fill="none" stroke="#000" stroke-dasharray="0.8, 0.4" stroke-width=".4"/>
 <path d="m166.83 199.62c-17.583-14.156-44.176 23.762-51.487 38.735l5.4651 0.28764c9.312-14.14 31.636-49.362 48.323-36.53" fill="none" stroke="#000" stroke-dasharray="0.8, 0.4" stroke-width=".4"/>
 <g fill="#ffd5d5">
  <path d="m215.1 228.54c0.0321 0.0614 0.0485 0.15161 0.03 0.2468-0.0139 0.072-0.0461 0.13952-0.0959 0.20124-0.0871 0.10803-0.22597 0.19503-0.39936 0.27901-0.28658 0.1388-0.69738 0.27394-0.92983 0.39484-0.17281 0.0899-0.37987 0.18833-0.62881 0.29453-0.62377 0.2661-1.4949 0.57409-2.7217 0.91553-1.0268 0.2858-2.2806 0.58882-3.8041 0.90449-5.1833 1.074-12.937 2.1721-22.684 3.0622-9.165 0.83691-18.72 1.3613-27.055 1.508-4.6699 0.0822-8.6885 0.042-12.045-0.0878-4.4516-0.17212-7.4216-0.48869-9.3956-0.80354 1.9799 0.31579 4.9334 0.6635 9.3916 0.89148 3.3599 0.17182 7.3741 0.2649 12.052 0.24418 8.3504-0.037 17.906-0.43555 27.103-1.1476 9.7539-0.75517 17.584-1.7418 22.817-2.7367 1.5441-0.29357 2.8256-0.58019 3.8831-0.85601 1.2619-0.32914 2.1855-0.6378 2.8674-0.92117 0.27323-0.11353 0.5071-0.22277 0.70838-0.32747 0.28048-0.1459 0.68199-0.48102 0.91257-0.87202 0.14239-0.24144 0.20292-0.47249 0.18956-0.67746-7e-3 -0.11109-0.0352-0.20249-0.0687-0.2787-0.0441-0.10041-0.0959-0.17346-0.1274-0.23376z"/>
  <path d="m164.53 198.78c-0.6158-0.23031-2.266-1.2589-2.8534-1.3829-1.0578-0.22332-2.4573-0.3998-4.0578-0.28618-2.0196 0.14339-4.0797 0.72137-6.3532 1.8806-2.1289 1.0855-4.2549 2.5822-6.437 4.2782-2.8282 2.1982-5.6585 4.6187-7.5529 6.1544 1.6628-1.348 5.056-4.0703 7.696-5.9628 2.2479-1.6114 4.4139-2.9817 6.5501-3.9337 2.2692-1.0113 4.2553-1.4385 6.143-1.4888 1.4999-0.0399 2.7994 0.16515 3.797 0.37575 0.55375 0.1169 2.4523 0.13514 3.0681 0.36545z"/>
  <path d="m146.79 147.85s-0.24121-0.43797-0.24121-0.43797c-2.545 1.4016-6.5492 3.0266-14.504 4.7992-6.5911 1.4687-15.676 2.9225-18.813 3.405 2.5794-0.39683 12.81-1.7738 18.913-2.9152 7.9281-1.4829 12.291-2.9838 14.886-4.413 0 0-0.24121-0.43797-0.24121-0.43797z"/>
 </g>
</svg>
