<svg xmlns="http://www.w3.org/2000/svg" xmlns:xlink="http://www.w3.org/1999/xlink" viewBox="0 0 256 256">
    <defs>
        <linearGradient id="linearGradient924" x1="56.186" x2="79.601" y1="124.496" y2="124.496" gradientUnits="userSpaceOnUse" xlink:href="#innoGrad1"/>
        <linearGradient id="innoGrad1">
            <stop offset="0" stop-color="#ff2a2a" stop-opacity="0"/>
            <stop offset="1" stop-color="#ff2a2a" stop-opacity=".502"/>
        </linearGradient>
        <linearGradient id="linearGradient949" x1="68.83" x2="133.173" y1="133.049" y2="133.049" gradientUnits="userSpaceOnUse" xlink:href="#innoGrad12"/>
        <linearGradient id="innoGrad12">
            <stop offset="0" stop-color="#ff2a2a" stop-opacity=".502"/>
            <stop offset="1" stop-color="#ff2a2a" stop-opacity="0"/>
        </linearGradient>
        <linearGradient id="linearGradient980" x1="77.814" x2="117.848" y1="108.968" y2="108.968" gradientUnits="userSpaceOnUse" xlink:href="#innoGrad2"/>
        <linearGradient id="innoGrad2">
            <stop offset="0" stop-color="#ff2a2a" stop-opacity=".502"/>
            <stop offset=".294" stop-color="#ff2a2a" stop-opacity=".251"/>
            <stop offset=".37" stop-color="#ff2a2a" stop-opacity=".125"/>
            <stop offset=".571" stop-color="#ff2a2a" stop-opacity="0"/>
            <stop offset=".666" stop-color="#ff2a2a" stop-opacity=".251"/>
            <stop offset="1" stop-color="#ff2a2a" stop-opacity="0"/>
        </linearGradient>
        <linearGradient id="linearGradient1019" x1="76.302" x2="117.513" y1="87.448" y2="87.448" gradientUnits="userSpaceOnUse" xlink:href="#innoGrad12"/>
        <linearGradient id="linearGradient1042" x1="70.174" x2="95.8" y1="222.643" y2="231.465" gradientUnits="userSpaceOnUse" xlink:href="#innoGrad12"/>
        <linearGradient id="linearGradient1065" x1="77.12" x2="105.566" y1="172.046" y2="181.451" gradientUnits="userSpaceOnUse" xlink:href="#innoGrad12"/>
        <radialGradient id="radialGradient1088" cx="97.325" cy="90.759" r="2.856" fx="97.325" fy="90.759" gradientUnits="userSpaceOnUse" xlink:href="#innoGrad3"/>
        <linearGradient id="innoGrad3">
            <stop offset="0" stop-color="#ffe680" stop-opacity="0"/>
            <stop offset="1" stop-color="#ffd42a" stop-opacity=".502"/>
        </linearGradient>
        <linearGradient id="linearGradient1111" x1="176.402" x2="199.815" y1="124.496" y2="124.496" gradientUnits="userSpaceOnUse" xlink:href="#innoGrad12"/>
        <linearGradient id="linearGradient1142" x1="122.934" x2="187.276" y1="133.926" y2="133.926" gradientTransform="translate(0 -.877)" gradientUnits="userSpaceOnUse" xlink:href="#innoGrad1"/>
        <linearGradient id="linearGradient1185" x1="138.153" x2="178.185" y1="108.968" y2="108.968" gradientUnits="userSpaceOnUse" xlink:href="#innoGrad22"/>
        <linearGradient id="innoGrad22">
            <stop offset="0" stop-color="#ff2a2a" stop-opacity="0"/>
            <stop offset=".334" stop-color="#ff2a2a" stop-opacity=".251"/>
            <stop offset=".429" stop-color="#ff2a2a" stop-opacity="0"/>
            <stop offset=".63" stop-color="#ff2a2a" stop-opacity=".125"/>
            <stop offset=".706" stop-color="#ff2a2a" stop-opacity=".251"/>
            <stop offset="1" stop-color="#ff2a2a" stop-opacity=".502"/>
        </linearGradient>
        <linearGradient id="linearGradient1228" x1="138.494" x2="179.707" y1="87.448" y2="87.448" gradientUnits="userSpaceOnUse" xlink:href="#innoGrad1"/>
        <linearGradient id="linearGradient1251" x1="160.212" x2="184.674" y1="231.465" y2="223.41" gradientUnits="userSpaceOnUse" xlink:href="#innoGrad1"/>
        <linearGradient id="linearGradient1274" x1="150.431" x2="178.885" y1="181.451" y2="172.046" gradientUnits="userSpaceOnUse" xlink:href="#innoGrad1"/>
        <radialGradient id="radialGradient1379" cx="130.634" cy="79.144" r="4.273" fx="130.634" fy="79.144" gradientTransform="matrix(1 0 0 .99988 0 .01)" gradientUnits="userSpaceOnUse" xlink:href="#innoGrad3"/>
        <radialGradient id="radialGradient1381" cx="130.634" cy="104.488" r="4.273" fx="130.634" fy="104.488" gradientTransform="matrix(1 0 0 .99965 0 .037)" gradientUnits="userSpaceOnUse" xlink:href="#innoGrad3"/>
        <radialGradient id="radialGradient1383" cx="131.242" cy="130.103" r="4.273" fx="131.242" fy="130.103" gradientUnits="userSpaceOnUse" xlink:href="#innoGrad3"/>
        <radialGradient id="radialGradient1385" cx="131.242" cy="155.311" r="4.273" fx="131.242" fy="155.311" gradientTransform="matrix(1 0 0 .99941 0 .091)" gradientUnits="userSpaceOnUse" xlink:href="#innoGrad3"/>
        <radialGradient id="radialGradient1387" cx="158.54" cy="91.437" r="2.858" fx="158.54" fy="91.437" gradientUnits="userSpaceOnUse" xlink:href="#innoGrad3"/>
    </defs>
    <g stroke="#000" stroke-miterlimit="10">
        <path fill="#ff2a2a" d="M108.632 16.132S106.703 10 126.861 10c20.158 0 20.504 6.092 20.504 6.092l-4.108 60.781h-30.509z"/>
        <path fill="#f55" d="M146.781 19.588s-.71-3.931-18.806-4.014c-18.088-.076-18.752 4.014-18.752 4.014l-.591-3.456s-.268-6.129 18.81-6.129 19.923 6.09 19.923 6.09z"/>
    </g>
    <g>
        <path fill="#ff2a2a" stroke="#000" stroke-miterlimit="10" d="M68.712 212.013s-.341.227-3.223 2.105c-.72.47-1.285.546-2.656.883-1.77.436-3.13.745-6.412 1.053-13.65 1.28-12.967-2.103-12.967-2.103s4.554-7.998 12.625-8.617c8.07-.62 12.633 6.679 12.633 6.679z"/>
        <path fill="#ff8080" d="M69.378 34.874s-1.342-.151-2.317 1.345c-1.131 1.743-2.018 5.3-3.614 7.415-1.896 2.508-4.218 4.3-4.403 5.342-.164.938-5.725 27.502-7.542 45.109-.28 2.685-3.202 25.36-3.773 32.693-.548 7.029-3.12 33.933-3.457 39.617-1.501 25.234-1.24 47.036-.817 47.557.699.85 5.246-1.738 11.03-2.77 5.943-1.063 13.55-.042 14.227.83.729.942.83-34.518 3.22-63.7.856-10.437 3.32-20.001 4.609-27.507 1.729-10.08 2.24-16.394 2.435-15.628.13.504.664-26.303-2.172-46.927-1.785-12.968-7.426-23.376-7.426-23.376z"/>
        <path fill="url(#linearGradient924)" stroke="#000" stroke-miterlimit="10" d="M69.378 34.874s-1.342-.151-2.317 1.345c-1.131 1.743-2.018 5.3-3.614 7.415-1.896 2.508-4.218 4.3-4.403 5.342-.164.938-5.725 27.502-7.542 45.109-.28 2.685-3.202 25.36-3.773 32.693-.548 7.029-3.12 33.933-3.457 39.617-1.501 25.234-1.24 47.036-.817 47.557.699.85 5.246-1.738 11.03-2.77 5.943-1.063 13.55-.042 14.227.83.729.942.83-34.518 3.22-63.7.856-10.437 3.32-20.001 4.609-27.507 1.729-10.08 2.24-16.394 2.435-15.628.13.504.664-26.303-2.172-46.927-1.785-12.968-7.426-23.376-7.426-23.376z"/>
        <path fill="#ff8080" d="M108.632 16.132c-.79.89-1.188 3.378-3.065 4.946-2.091 1.754-6.942 3.29-15.205 6.957-7.65 3.394-20.14 5.259-20.983 6.839-.543 1.02 4.529 19.289 5.542 43.026 1.179 27.582 8.51 33.534 7.78 51.866-1.177 29.467-4.4 36.144-6.365 54.104-2.764 25.223-6.014 45.03-5.306 49.983.176 1.209 3.835 2.962 7.783 5.423 4.04 2.519 8.46 5.75 15.794 7.424 5.529 1.265 12.122 1.296 17.68 1.887 9.328.997 16.649 1.948 17.69 1.06.565-.487.859-25.54 1.526-59.058.523-26.205.079-83.48 1.167-112.847.184-5.03-10.187-13.416-15.901-27.898-4.434-11.237-5.183-17.872-6.722-24.875-1.023-4.667-.97-9.342-1.415-8.837z"/>
        <path fill="url(#linearGradient949)" stroke="#000" stroke-miterlimit="10" d="M108.632 16.132c-.79.89-1.188 3.378-3.065 4.946-2.091 1.754-6.942 3.29-15.205 6.957-7.65 3.394-20.14 5.259-20.983 6.839-.543 1.02 4.529 19.289 5.542 43.026 1.179 27.582 8.51 33.534 7.78 51.866-1.177 29.467-4.4 36.144-6.365 54.104-2.764 25.223-6.014 45.03-5.306 49.983.176 1.209 3.835 2.962 7.783 5.423 4.04 2.519 8.46 5.75 15.794 7.424 5.529 1.265 12.122 1.296 17.68 1.887 9.328.997 16.649 1.948 17.69 1.06.565-.487.859-25.54 1.526-59.058.523-26.205.079-83.48 1.167-112.847.184-5.03-10.187-13.416-15.901-27.898-4.434-11.237-5.183-17.872-6.722-24.875-1.023-4.667-.97-9.342-1.415-8.837z"/>
        <path fill="none" stroke="#000" stroke-miterlimit="10" d="M132.576 76.874s-12.836-7.958-21.663-14.064c-9.28-6.417-15.185-9.588-15.302-10.531-.117-.943 6.542-4.911 6.542-5.736 0-.826-9.745-4.293-10.063-5.21-.314-.92 8.91-17.8 8.91-17.8M112.335 35.864l-10.182 10.678"/>
        <path fill="#f55" stroke="#000" stroke-miterlimit="10" d="M69.554 34.354l.65 2.577 27.35-9.427 4.599-4.481-5.542 1.769z"/>
        <path fill="#ffb380" stroke="#000" stroke-miterlimit="10" d="M97.23 28.35l-25.573 8.594-1.196-3.558 25.574-8.593z"/>
        <path fill="#ffe680" stroke="#000" stroke-miterlimit="10" d="M97.07 25.189c.196.465 1.216.48 2.272.036 1.056-.446 1.753-1.188 1.552-1.653-.195-.465-1.208-.481-2.265-.034-1.056.45-1.752 1.185-1.558 1.65z"/>
        <path fill="#ff8080" d="M115.783 87.17s2.625 41.662 1.075 43.093c-1.415 1.307-30.574-.088-32.145-1.457-1.566-1.368-6.336-40.063-6.336-40.063z"/>
        <path fill="url(#linearGradient980)" stroke="#000" stroke-miterlimit="10" d="M115.783 87.17s2.625 41.662 1.075 43.093c-1.415 1.307-30.574-.088-32.145-1.457-1.566-1.368-6.336-40.063-6.336-40.063z"/>
        <path fill="none" stroke="#000" stroke-miterlimit="10" d="M102.177 87.745l1.632 43.04M90.007 88.373l2.02 41.393"/>
        <path fill="#ff8080" d="M116.683 80.384c.52 2.323.348 11.204 0 13.518-.122.807-5.428-.807-9.84-.473-4.418.333-8.615 2.254-9.314 2.359-1.704.258-8.686-1.872-12.472-1.74-3.088.109-6.801 1.586-6.801.625 0-1.097-1.544-12.642-1.45-14.29.09-1.543 39.438-1.918 39.877 0z"/>
        <path fill="url(#linearGradient1019)" stroke="#000" stroke-miterlimit="10" d="M116.683 80.384c.52 2.323.348 11.204 0 13.518-.122.807-5.428-.807-9.84-.473-4.418.333-8.615 2.254-9.314 2.359-1.704.258-8.686-1.872-12.472-1.74-3.088.109-6.801 1.586-6.801.625 0-1.097-1.544-12.642-1.45-14.29.09-1.543 39.438-1.918 39.877 0z"/>
        <path fill="#f55" stroke="#000" stroke-miterlimit="10" d="M104.782 178.959s-4.557 51.762-5.188 52.603c-.625.837-3.794-.097-3.794-.097l7.413-52.707z"/>
        <path fill="#ff8080" d="M104.782 178.959s-6.455 51.399-7.47 52.496c-1.015 1.099-26.784-6.834-26.636-8.015.15-1.182 6.444-51.394 6.444-51.394z"/>
        <path fill="url(#linearGradient1042)" stroke="#000" stroke-miterlimit="10" d="M104.782 178.959s-6.455 51.399-7.47 52.496c-1.015 1.099-26.784-6.834-26.636-8.015.15-1.182 6.444-51.394 6.444-51.394z"/>
        <path fill="#f55" stroke="#000" stroke-miterlimit="10" d="M109.81 156.292s2.067.166 2.636 1.226c.569 1.053-3.136 22.868-3.87 24.062-.74 1.192-3.01-.13-3.01-.13z"/>
        <path fill="#ff8080" d="M111.385 156.8c-.364-.82-15.261-2.162-21.85-3.616-4.814-1.058-8.476-2.62-9.274-1.887-.938.859-.925 6.903-1.885 11.944-.97 5.097-2.91 9.197-2.513 9.277.784.156 30.596 9.875 31.276 9.116 1.262-1.414 4.87-23.418 4.246-24.833z"/>
        <path fill="url(#linearGradient1065)" stroke="#000" stroke-miterlimit="10" d="M111.385 156.8c-.364-.82-15.261-2.162-21.85-3.616-4.814-1.058-8.476-2.62-9.274-1.887-.938.859-.925 6.903-1.885 11.944-.97 5.097-2.91 9.197-2.513 9.277.784.156 30.596 9.875 31.276 9.116 1.262-1.414 4.87-23.418 4.246-24.833z"/>
        <circle cx="96.647" cy="91.573" r="2.356" fill="#ffe680"/>
        <circle cx="96.647" cy="91.573" r="2.356" fill="url(#radialGradient1088)" stroke="#000" stroke-miterlimit="10"/>
        <path fill="#ff2a2a" stroke="#000" stroke-miterlimit="10" d="M187.292 212.013s.002 1.276 2.875 3.155c.723.47.788.834 2.167 1.17 1.766.437 3.707-.043 7 0 13.54.184 13.21-2.387 13.21-2.387s-5.591-4.16-13.71-4.783c-8.12-.623-11.542 2.845-11.542 2.845z"/>
        <path fill="#ff8080" d="M186.625 34.874s1.343-.151 2.318 1.345c1.13 1.743 2.01 5.3 3.617 7.415 1.89 2.508 4.218 4.3 4.4 5.342.162.938 5.717 27.502 7.546 45.109.27 2.685 3.197 25.36 3.769 32.693.546 7.029 3.116 33.933 3.46 39.617 1.492 25.234 1.234 47.036.809 47.557-.697.85-5.236-1.738-11.032-2.77-5.932-1.063-13.543-.042-14.22.83-.73.942-.827-34.518-3.22-63.7-.86-10.437-3.32-20.001-4.612-27.507-1.726-10.08-2.237-16.394-2.431-15.628-.138.504-.658-26.303 2.176-46.927 1.779-12.968 7.42-23.376 7.42-23.376z"/>
        <path fill="url(#linearGradient1111)" stroke="#000" stroke-miterlimit="10" d="M186.625 34.874s1.343-.151 2.318 1.345c1.13 1.743 2.01 5.3 3.617 7.415 1.89 2.508 4.218 4.3 4.4 5.342.162.938 5.717 27.502 7.546 45.109.27 2.685 3.197 25.36 3.769 32.693.546 7.029 3.116 33.933 3.46 39.617 1.492 25.234 1.234 47.036.809 47.557-.697.85-5.236-1.738-11.032-2.77-5.932-1.063-13.543-.042-14.22.83-.73.942-.827-34.518-3.22-63.7-.86-10.437-3.32-20.001-4.612-27.507-1.726-10.08-2.237-16.394-2.431-15.628-.138.504-.658-26.303 2.176-46.927 1.779-12.968 7.42-23.376 7.42-23.376z"/>
        <path fill="#ff8080" d="M147.467 16.132c.796.89 1.188 3.378 3.065 4.946 2.091 1.754 6.956 3.29 15.205 6.957 7.66 3.394 20.145 5.259 20.99 6.839.546 1.02-4.53 19.289-5.542 43.026-1.176 27.582-8.512 33.534-7.776 51.866 1.18 29.467 4.395 36.144 6.364 54.104 2.762 25.223 6.01 45.03 5.303 49.983-.17 1.209-3.84 2.962-7.782 5.423-4.048 2.519-8.462 5.75-15.794 7.424-5.53 1.265-12.125 1.296-17.682 1.887-9.327.997-16.648 1.948-17.682 1.06-.572-.487-.867-25.54-1.533-59.058-.525-26.205-.077-83.48-1.167-112.847-.19-5.03 10.178-13.416 15.9-27.898 4.435-11.237 5.183-17.872 6.715-24.875 1.031-4.667.973-9.342 1.416-8.837z"/>
        <path fill="url(#linearGradient1142)" stroke="#000" stroke-miterlimit="10" d="M147.467 16.132c.796.89 1.188 3.378 3.065 4.946 2.091 1.754 6.956 3.29 15.205 6.957 7.66 3.394 20.145 5.259 20.99 6.839.546 1.02-4.53 19.289-5.542 43.026-1.176 27.582-8.512 33.534-7.776 51.866 1.18 29.467 4.395 36.144 6.364 54.104 2.762 25.223 6.01 45.03 5.303 49.983-.17 1.209-3.84 2.962-7.782 5.423-4.048 2.519-8.462 5.75-15.794 7.424-5.53 1.265-12.125 1.296-17.682 1.887-9.327.997-16.648 1.948-17.682 1.06-.572-.487-.867-25.54-1.533-59.058-.525-26.205-.077-83.48-1.167-112.847-.19-5.03 10.178-13.416 15.9-27.898 4.435-11.237 5.183-17.872 6.715-24.875 1.031-4.667.973-9.342 1.416-8.837z"/>
        <path fill="none" stroke="#000" stroke-miterlimit="10" d="M123.422 76.874s12.843-7.958 21.669-14.064c9.278-6.417 15.177-9.588 15.302-10.531.11-.943-6.535-4.911-6.535-5.736 0-.826 9.737-4.293 10.058-5.21.308-.92-8.912-17.8-8.912-17.8M143.622 36.054l10.235 10.488"/>
        <path fill="#f55" stroke="#000" stroke-miterlimit="10" d="M185.793 36.93l-27.344-9.426-4.592-4.481 5.536 1.769 27.063 9.562z"/>
        <path fill="#ffb380" stroke="#000" stroke-miterlimit="10" d="M158.78 28.348l1.198-3.557 25.566 8.588-1.19 3.56z"/>
        <path fill="#ffe680" fill-opacity=".941" stroke="#000" stroke-miterlimit="10" d="M158.933 25.189c-.194.465-1.215.48-2.265.036-1.063-.446-1.76-1.188-1.565-1.653.202-.465 1.216-.481 2.279-.034 1.049.45 1.745 1.185 1.55 1.65z"/>
        <path fill="#ff8080" d="M140.22 87.17s-2.623 41.662-1.081 43.093c1.415 1.307 30.58-.088 32.146-1.457 1.579-1.368 6.338-40.063 6.338-40.063z"/>
        <path fill="url(#linearGradient1185)" stroke="#000" stroke-miterlimit="10" d="M140.22 87.17s-2.623 41.662-1.081 43.093c1.415 1.307 30.58-.088 32.146-1.457 1.579-1.368 6.338-40.063 6.338-40.063z"/>
        <path fill="none" stroke="#000" stroke-miterlimit="10" d="M153.827 87.745l-1.631 43.04M165.996 88.373l-2.019 41.393"/>
        <path fill="#ff8080" d="M139.328 80.384c-.527 2.323-.354 11.204 0 13.518.115.807 5.427-.807 9.84-.473 4.412.333 8.608 2.254 9.307 2.359 1.71.258 8.687-1.872 12.475-1.74 3.092.109 6.802 1.586 6.802.625 0-1.097 1.54-12.642 1.45-14.29-.095-1.543-39.442-1.918-39.874 0z"/>
        <path fill="url(#linearGradient1228)" stroke="#000" stroke-miterlimit="10" d="M139.328 80.384c-.527 2.323-.354 11.204 0 13.518.115.807 5.427-.807 9.84-.473 4.412.333 8.608 2.254 9.307 2.359 1.71.258 8.687-1.872 12.475-1.74 3.092.109 6.802 1.586 6.802.625 0-1.097 1.54-12.642 1.45-14.29-.095-1.543-39.442-1.918-39.874 0z"/>
        <path fill="#f55" stroke="#000" stroke-miterlimit="10" d="M151.223 178.959s4.553 51.762 5.188 52.603c.624.837 3.8-.097 3.8-.097l-7.422-52.707z"/>
        <path fill="#ff8080" d="M151.223 178.959s6.447 51.399 7.469 52.496c1.02 1.099 26.787-6.834 26.63-8.015-.143-1.182-6.437-51.394-6.437-51.394z"/>
        <path fill="url(#linearGradient1251)" stroke="#000" stroke-miterlimit="10" d="M151.223 178.959s6.447 51.399 7.469 52.496c1.02 1.099 26.787-6.834 26.63-8.015-.143-1.182-6.437-51.394-6.437-51.394z"/>
        <path fill="#f55" stroke="#000" stroke-miterlimit="10" d="M146.186 156.292s-2.06.166-2.621 1.226c-.576 1.053 3.124 22.868 3.863 24.062.738 1.192 3.003-.13 3.003-.13z"/>
        <path fill="#ff8080" d="M144.619 156.8c.369-.82 15.26-2.162 21.849-3.616 4.808-1.058 8.48-2.62 9.269-1.887.938.859.925 6.903 1.887 11.944.974 5.097 2.914 9.197 2.52 9.277-.786.156-30.6 9.875-31.278 9.116-1.27-1.414-4.872-23.418-4.247-24.833z"/>
        <path fill="url(#linearGradient1274)" stroke="#000" stroke-miterlimit="10" d="M144.619 156.8c.369-.82 15.26-2.162 21.849-3.616 4.808-1.058 8.48-2.62 9.269-1.887.938.859.925 6.903 1.887 11.944.974 5.097 2.914 9.197 2.52 9.277-.786.156-30.6 9.875-31.278 9.116-1.27-1.414-4.872-23.418-4.247-24.833z"/>
        <path fill="#ffe680" d="M134.407 81.043a3.775 3.775 0 0 1-3.773 3.772 3.771 3.771 0 0 1-3.773-3.772 3.774 3.774 0 0 1 7.546 0zM134.407 106.386a3.773 3.773 0 0 1-7.546 0 3.768 3.768 0 0 1 3.773-3.771 3.772 3.772 0 0 1 3.773 3.77z"/>
        <circle cx="131.106" cy="131.73" r="3.773" fill="#ffe680"/>
        <path fill="#ffe680" d="M134.879 157.073a3.771 3.771 0 0 1-3.773 3.772 3.771 3.771 0 0 1 0-7.541 3.771 3.771 0 0 1 3.773 3.769zM161.712 91.573a2.353 2.353 0 0 1-2.358 2.358 2.362 2.362 0 0 1-2.358-2.358 2.362 2.362 0 0 1 2.358-2.358 2.353 2.353 0 0 1 2.358 2.358z"/>
        <path fill="url(#radialGradient1379)" stroke="#000" stroke-miterlimit="10" d="M134.407 81.043a3.775 3.775 0 0 1-3.773 3.772 3.771 3.771 0 0 1-3.773-3.772 3.774 3.774 0 0 1 7.546 0z"/>
        <path fill="url(#radialGradient1381)" stroke="#000" stroke-miterlimit="10" d="M134.407 106.386a3.773 3.773 0 0 1-7.546 0 3.768 3.768 0 0 1 3.773-3.771 3.772 3.772 0 0 1 3.773 3.77z"/>
        <circle cx="131.106" cy="131.73" r="3.773" fill="url(#radialGradient1383)" stroke="#000" stroke-miterlimit="10"/>
        <path fill="url(#radialGradient1385)" stroke="#000" stroke-miterlimit="10" d="M134.879 157.073a3.771 3.771 0 0 1-3.773 3.772 3.771 3.771 0 0 1 0-7.541 3.771 3.771 0 0 1 3.773 3.769z"/>
        <path fill="url(#radialGradient1387)" stroke="#000" stroke-miterlimit="10" d="M161.712 91.573a2.353 2.353 0 0 1-2.358 2.358 2.362 2.362 0 0 1-2.358-2.358 2.362 2.362 0 0 1 2.358-2.358 2.353 2.353 0 0 1 2.358 2.358z"/>
        <path fill="#ffb380" stroke="#000" stroke-miterlimit="10" d="M148.025 30.765l1.563-6.368 5.493 2.359 8.305 15.954-7.666 4.161z"/>
        <path fill="#ffde17" stroke="#000" stroke-miterlimit="10" stroke-width=".5" d="M153.67 28.801a1.882 1.882 0 1 1-3.765 0 1.883 1.883 0 0 1 3.765 0z"/>
        <path fill="#ffde17" stroke="#000" stroke-linejoin="round" stroke-miterlimit="10" stroke-width=".25" d="M153.668 33.207s2.64 5.935 3.105 5.68c.468-.251-3.105-5.68-3.105-5.68z"/>
        <path fill="#ffde17" stroke="#000" stroke-linejoin="round" stroke-miterlimit="10" stroke-width=".25" d="M155.67 31.346s-1.817 4.142-.406 4.273c1.41.137.406-4.273.406-4.273zM151.585 34.915s4.47.704 3.825 1.97c-.644 1.258-3.825-1.97-3.825-1.97z"/>
        <path fill="#ffde17" stroke="#000" stroke-linejoin="round" stroke-miterlimit="10" stroke-width=".25" d="M156.828 33.466s-1.816 4.139-.406 4.274c1.411.137.406-4.274.406-4.274zM152.742 37.035s4.472.705 3.825 1.968c-.642 1.261-3.825-1.968-3.825-1.968z"/>
        <path fill="#ee468a" stroke="#010101" stroke-width=".25" d="M157.127 39.304l.319 1.974 1.153-.63z"/>
        <path fill="#ee4689" stroke="#010101" stroke-width=".25" d="M158.599 40.648l.883.799.829-1.727z"/>
        <path fill="#ee468a" stroke="#010101" stroke-width=".25" d="M159.482 41.447l-.562 1.152 2.117.264z"/>
        <path fill="#ee4689" stroke="#010101" stroke-width=".25" d="M157.648 42.463l1.272.136-.93 1.917zM157.648 42.463l-.202-1.185-1.748.957z"/>
        <path fill="#ffb380" stroke="#000" stroke-miterlimit="10" d="M107.985 30.765l-1.569-6.368-5.5 2.359-8.298 15.954 7.669 4.161z"/>
        <path fill="#ffde17" stroke="#000" stroke-miterlimit="10" stroke-width=".5" d="M102.331 28.801c0 1.042.846 1.883 1.887 1.883a1.884 1.884 0 1 0 0-3.769 1.885 1.885 0 0 0-1.887 1.886z"/>
        <path fill="#ffde17" stroke="#000" stroke-linejoin="round" stroke-miterlimit="10" stroke-width=".25" d="M102.333 33.207s-2.638 5.935-3.104 5.68c-.468-.251 3.104-5.68 3.104-5.68z"/>
        <path fill="#ffde17" stroke="#000" stroke-linejoin="round" stroke-miterlimit="10" stroke-width=".25" d="M100.334 31.346s1.822 4.142.413 4.273c-1.41.137-.413-4.273-.413-4.273zM104.412 34.915s-4.47.704-3.818 1.97c.644 1.258 3.818-1.97 3.818-1.97z"/>
        <path fill="#ffde17" stroke="#000" stroke-linejoin="round" stroke-miterlimit="10" stroke-width=".25" d="M99.176 33.466s1.818 4.139.409 4.274c-1.409.137-.409-4.274-.409-4.274zM103.254 37.035s-4.471.705-3.818 1.968c.644 1.261 3.818-1.968 3.818-1.968z"/>
        <path fill="#ee468a" stroke="#010101" stroke-width=".25" d="M98.88 39.304l-.33 1.974-1.152-.63z"/>
        <path fill="#ee4689" stroke="#010101" stroke-width=".25" d="M97.398 40.648l-.871.799-.834-1.727z"/>
        <path fill="#ee468a" stroke="#010101" stroke-width=".25" d="M96.527 41.447l.556 1.152-2.116.264z"/>
        <path fill="#ee4689" stroke="#010101" stroke-width=".25" d="M98.354 42.463l-1.271.136.93 1.917zM98.354 42.463l.196-1.185 1.756.957z"/>
    </g>
    <g>
        <path fill="#414042" stroke="#000" stroke-miterlimit="10" stroke-width=".166" d="M76.568 72.964l40.89-1.494.195 5.32-40.891 1.494z"/>
    </g>
    <g>
        <path fill="#414042" stroke="#000" stroke-miterlimit="10" stroke-width=".16599668" d="M117.417 76.734l-40.908.961-.125-5.321 40.908-.962z"/>
        <g fill="#e6e7e8" stroke-width=".908">
            <path d="M83.25 76.586l.19-.005 1.567-.039-.009-.365-1.374.034-.058-2.37-.384.008zM85.794 76.432a.786.786 0 0 1-.337-.34 1.231 1.231 0 0 1-.127-.548l-.043-1.746.384-.01.043 1.76c.005.2.06.353.162.46.104.107.247.157.43.153.184-.004.326-.063.424-.174.098-.112.145-.268.14-.467l-.044-1.76.384-.01.043 1.747c.004.215-.027.399-.099.553a.777.777 0 0 1-.322.355 1.05 1.05 0 0 1-.517.133 1.049 1.049 0 0 1-.521-.106zM87.804 73.735l.348-.008 1.39 2.083-.044.05-.053-2.165.38-.01.067 2.735-.352.009-1.385-2.051.044-.05.053 2.133-.38.008zM90.522 73.67l.067 2.735.35-.008 1.408-.034-.008-.366-1.374.034-.02-.812 1.167-.028-.01-.365-1.166.029-.02-.83 1.373-.034-.009-.365-1.403.035zM93.704 73.956l.774-.019-.01-.365-1.93.048.009.364.773-.018.058 2.371.385-.01zM95.836 73.904l.774-.019-.009-.365-1.93.047.008.366.774-.02.058 2.371.384-.008zM97.32 73.502l-.353.009.067 2.736.384-.009 1.373-.034-.009-.365-1.373.033-.02-.81 1.166-.029-.008-.366-1.167.029-.02-.83 1.374-.032-.01-.366zM101.246 73.406l.36-.009.067 2.736-.375.01-.05-2.05.023.12-.636 1.565-.268.006-.71-1.494.015-.16.05 2.05-.375.01-.067-2.736.36-.01.847 1.787zM103.983 76.077l.415-.01-1.076-2.712-.328.008-.941 2.762.414-.01.191-.606 1.104-.027zm-1.208-.936l.396-1.252.457 1.231zM104.751 73.32l.385-.01.067 2.738-.385.01zm.197 1.21l.933-.023a.364.364 0 0 0 .193-.058.35.35 0 0 0 .128-.153.521.521 0 0 0 .04-.225.512.512 0 0 0-.051-.221.338.338 0 0 0-.33-.194l-.934.023-.008-.365.918-.024a.852.852 0 0 1 .419.089.69.69 0 0 1 .285.27c.07.118.105.256.11.414a.844.844 0 0 1-.091.417.693.693 0 0 1-.273.284.846.846 0 0 1-.413.108l-.918.023zm.752.263l.38-.096.732 1.312-.456.011zM108.038 73.604l.773-.018-.009-.365-1.93.047.008.365.774-.019.058 2.372.384-.01zM109.578 75.848a.786.786 0 0 1-.337-.34 1.231 1.231 0 0 1-.127-.548l-.043-1.746.385-.01.043 1.76c.004.2.06.353.162.46.103.107.246.158.43.153.183-.004.325-.063.423-.174.098-.112.146-.268.14-.467l-.043-1.759.385-.01.042 1.746c.005.215-.027.399-.099.553a.777.777 0 0 1-.321.356 1.05 1.05 0 0 1-.518.132 1.039 1.039 0 0 1-.522-.106z"/>
        </g>
    </g>
    <g>
        <path fill="#3971c6" d="M155.884 74.077l1.971.024-.033 2.72-1.97-.024z"/>
        <path fill="#d75086" d="M157.855 74.084l1.971.024-.033 2.72-1.97-.024z"/>
        <path fill="#674a95" d="M162.95 74.152l1.98.024-.034 2.721-1.978-.024z"/>
        <path fill="#777" d="M160.972 74.145l1.978.024-.033 2.72-1.978-.024z"/>
        <path fill="#ebc633" d="M159.825 74.12l1.15.013-.033 2.704-1.15-.014z"/>
        <g fill="#231f20" opacity=".25">
            <g>
                <path d="M155.834 76.61l9.067.108v.091l-9.068-.109zM155.838 76.383l9.065.108-.002.091-9.064-.108zM155.84 76.156l9.066.109v.09l-9.067-.108zM155.843 75.929l9.065.109v.09l-9.066-.108zM155.841 75.711l9.064.109v.091l-9.065-.109zM155.848 75.476l9.065.109v.09l-9.066-.11zM155.851 75.247l9.066.11-.001.09-9.066-.11zM155.85 75.028l9.066.11-.001.092-9.065-.11zM155.857 74.794l9.065.11v.091l-9.066-.11zM155.859 74.568l9.066.11-.001.09-9.066-.11zM155.858 74.349l9.065.11-.001.09-9.065-.11zM155.865 74.114l9.066.11-.001.091-9.066-.11z"/>
            </g>
            <g>
                <path d="M155.834 76.61l9.067.108v.091l-9.068-.109zM155.838 76.383l9.065.108-.002.091-9.064-.108zM155.84 76.156l9.066.109v.09l-9.067-.108zM155.843 75.929l9.065.109v.09l-9.066-.108zM155.841 75.711l9.064.109v.091l-9.065-.109zM155.848 75.476l9.065.109v.09l-9.066-.11zM155.851 75.247l9.066.11-.001.09-9.066-.11zM155.85 75.028l9.066.11-.001.092-9.065-.11zM155.857 74.794l9.065.11v.091l-9.066-.11zM155.859 74.568l9.066.11-.001.09-9.066-.11zM155.858 74.349l9.065.11-.001.09-9.065-.11zM155.865 74.114l9.066.11-.001.091-9.066-.11z"/>
            </g>
        </g>
        <path fill="none" stroke="#231f20" stroke-linejoin="round" stroke-miterlimit="10" stroke-width=".2499925" d="M155.862 74.071l9.065.11-.033 2.72-9.065-.11z"/>
        <path fill="#be1e2d" d="M146.624 73.986l9.067.11-.033 2.72-9.067-.11z"/>
        <path fill="#f1f2f2" d="M146.642 73.998l1.97.024-.033 2.721-1.97-.024zM153.708 74.076l1.98.024-.033 2.721-1.98-.024z"/>
        <g fill="#231f20" opacity=".25">
            <g>
                <path d="M146.592 76.565l9.067.11v.09l-9.068-.11zM146.59 76.344l9.069.11-.001.091-9.069-.11zM146.598 76.11l9.067.11v.091l-9.068-.11zM146.601 75.885l9.066.11v.09l-9.067-.11zM146.6 75.665l9.066.11v.09l-9.067-.11zM146.606 75.43l9.067.11v.092l-9.068-.11zM146.61 75.205l9.065.11v.09l-9.067-.11zM146.612 74.978l9.066.11v.09l-9.067-.11zM146.613 74.75l9.067.11v.092l-9.068-.11zM146.614 74.53l9.065.11-.001.092-9.065-.111zM146.62 74.298l9.066.11v.09l-9.067-.11zM146.622 74.07l9.067.11v.092l-9.068-.11z"/>
            </g>
            <g>
                <path d="M146.592 76.565l9.067.11v.09l-9.068-.11zM146.59 76.344l9.069.11-.001.091-9.069-.11zM146.598 76.11l9.067.11v.091l-9.068-.11zM146.601 75.885l9.066.11v.09l-9.067-.11zM146.6 75.665l9.066.11v.09l-9.067-.11zM146.606 75.43l9.067.11v.092l-9.068-.11zM146.61 75.205l9.065.11v.09l-9.067-.11zM146.612 74.978l9.066.11v.09l-9.067-.11zM146.613 74.75l9.067.11v.092l-9.068-.11zM146.614 74.53l9.065.11-.001.092-9.065-.111zM146.62 74.298l9.066.11v.09l-9.067-.11zM146.622 74.07l9.067.11v.092l-9.068-.11z"/>
            </g>
        </g>
        <path fill="none" stroke="#231f20" stroke-linejoin="round" stroke-miterlimit="10" stroke-width=".2499925" d="M146.624 73.977l9.067.11-.033 2.72-9.067-.11z"/>
        <path fill="#e6e7e8" d="M165.028 74.171l9.15.085-.026 2.745-9.15-.085z"/>
        <path fill="#777" d="M165.043 74.18l1.144.01-.026 2.745-1.144-.01zM173.03 74.253l1.144.01-.026 2.746-1.144-.01zM167.04 74.198l1.144.01-.026 2.745-1.144-.01zM171.034 74.235l1.144.01-.026 2.746-1.144-.01zM168.462 74.213l2.287.021-.025 2.745-2.287-.02z"/>
        <g fill="#231f20" opacity=".25">
            <g>
                <path d="M165.004 76.739l9.149.085v.091l-9.15-.085zM165.006 76.51l9.149.085v.091l-9.15-.085zM165.005 76.29l9.149.085-.001.092-9.15-.085zM165.01 76.053l9.15.085-.001.091-9.149-.085zM165.013 75.824l9.149.085-.001.092-9.149-.085zM165.015 75.595l9.149.085-.001.091-9.149-.085zM165.017 75.367l9.15.085-.001.091-9.15-.085zM165.019 75.138l9.149.085-.001.091-9.15-.085zM165.022 74.909l9.149.085-.001.091-9.149-.085zM165.024 74.68l9.149.085-.001.092-9.149-.085zM165.026 74.452l9.149.085-.001.091-9.15-.085zM165.028 74.223l9.149.085-.001.092-9.15-.085z"/>
            </g>
            <g>
                <path d="M165.004 76.739l9.149.085v.091l-9.15-.085zM165.006 76.51l9.149.085v.091l-9.15-.085zM165.005 76.29l9.149.085-.001.092-9.15-.085zM165.01 76.053l9.15.085-.001.091-9.149-.085zM165.013 75.824l9.149.085-.001.092-9.149-.085zM165.015 75.595l9.149.085-.001.091-9.149-.085zM165.017 75.367l9.15.085-.001.091-9.15-.085zM165.019 75.138l9.149.085-.001.091-9.15-.085zM165.022 74.909l9.149.085-.001.091-9.149-.085zM165.024 74.68l9.149.085-.001.092-9.149-.085zM165.026 74.452l9.149.085-.001.091-9.15-.085zM165.028 74.223l9.149.085-.001.092-9.15-.085z"/>
            </g>
        </g>
        <path fill="#b89300" d="M169.568 75.577l.534.287.523-.51z"/>
        <path fill="#ebc633" d="M169.568 75.577l1.057-.223-.722-.125zM169.903 75.229l-.335.348.011-1.002z"/>
        <path fill="#fff966" d="M169.568 75.577l.011-1.002-.339.646z"/>
        <path fill="#fff966" d="M169.24 75.221l.328.356-1.051-.249z"/>
        <path fill="#ebc633" d="M169.568 75.577l-1.051-.249.509.524z"/>
        <path fill="#ebc633" d="M169.568 75.577l-.542.275-.122.719z"/>
        <path fill="#b89300" d="M168.904 76.571l.664-.994-.008.672zM169.568 75.577l-.008.672.646.338zM169.568 75.577l.638 1.01-.104-.723z"/>
        <path fill="none" stroke="#231f20" stroke-linejoin="round" stroke-miterlimit="10" stroke-width=".091" d="M168.904 76.571l.122-.719-.509-.524.723-.107.339-.646.324.654.722.125-.523.51.104.723-.646-.338z"/>
        <path fill="none" stroke="#231f20" stroke-linejoin="round" stroke-miterlimit="10" stroke-width=".25001" d="M165.028 74.171l9.15.085-.026 2.745-9.15-.085z"/>
    </g>
    <g>
        <path fill="#231f20" d="M169.626 62.532c-3.522-.833-6.086-.705-6.323-.602-.137.06-.385 1.066-.597 1.067-.214.001-2.125-3.133-2.388-3.129-.263.003-2.142 3.137-2.313 3.133-.168-.002-.499-1.04-.64-1.1-.238-.1-2.804-.187-6.311.703-4.894 1.241-6.587 3.894-6.389 3.969.198.075 2.744-1.328 3.322-.583.522.672-.872 1.805-.682 1.897.188.093 1.587-.566 2.482.308.896.875.287 2.026.518 2.012.23-.014 3.269-2.71 4.252-2.547.983.163 1.27.782 1.515.78.121-.001.449-.498.864-1.009 0 0 3.27 4.566 3.477 4.56.21-.006 3.374-4.574 3.374-4.574.438.517.787 1.032.912 1.031.245-.002.52-.625 1.501-.804.98-.179 4.062 2.467 4.292 2.478.231.011-.398-1.13.486-2.019.881-.889 2.29-.251 2.478-.348.188-.096-1.226-1.206-.713-1.887.566-.753 3.134.608 3.331.53.198-.079-1.538-2.704-6.448-3.866z"/>
        <path fill="#9981ba" stroke="#000" stroke-linejoin="round" stroke-miterlimit="10" stroke-width=".126" d="M175.164 65.738s-2.421-1.171-3.35-.421c-.737.599.827 1.947.827 1.947s-1.25-.386-2.023.351c-.773.737-.427 1.675-.427 1.675s-3.179-2.532-4.039-2.385c-.86.149-1.479.758-1.479.758s-.744-1.391-1.566-1.479c-1.132-.121-2.099.319-2.201.297-.101-.022 3.185-3.802 3.185-3.802s3.881.026 5.987.607c2.103.582 5.086 2.452 5.086 2.452z"/>
        <path fill="#664e87" stroke="#000" stroke-linejoin="round" stroke-miterlimit="10" stroke-width=".063" d="M164.647 62.676l-.554.18.58 4.807-.185-4.575 5.703 6.202-5.422-6.272 7.873 4.246z"/>
        <path fill="#664e87" stroke="#000" stroke-linejoin="round" stroke-miterlimit="10" stroke-width=".126" d="M160.368 66.147s1.066-.792 2.079-1.658c1.001-.859 1.441-1.989 1.441-1.989s2.43-.083 5.544.496c3.426.639 5.731 2.741 5.731 2.741s-3.328-2.01-6.001-2.482c-2.31-.408-4.724-.41-4.724-.41s-.508 1.095-1.547 1.978c-1.042.882-1.987 1.658-1.987 1.658z"/>
        <path fill="#9981ba" stroke="#000" stroke-linejoin="round" stroke-miterlimit="10" stroke-width=".126" d="M145.569 65.977s2.402-1.211 3.341-.474c.749.585-.796 1.958-.796 1.958s1.244-.406 2.029.319c.787.724.454 1.667.454 1.667s3.138-2.584 4.001-2.448c.863.133 1.491.733 1.491.733s.719-1.403 1.542-1.503c1.13-.139 2.104.285 2.204.262.103-.023-3.245-3.75-3.245-3.75s-3.88.088-5.975.704c-2.094.614-5.046 2.532-5.046 2.532z"/>
        <path fill="#664e87" stroke="#000" stroke-linejoin="round" stroke-miterlimit="10" stroke-width=".063" d="M156.033 62.745l.559.172-.502 4.815.111-4.578-5.603 6.293 5.319-6.359-7.803 4.373z"/>
        <path fill="#664e87" stroke="#000" stroke-linejoin="round" stroke-miterlimit="10" stroke-width=".126" d="M160.368 66.147s-1.076-.773-2.104-1.624a5.575 5.575 0 0 1-1.473-1.965s-2.431-.044-5.535.585c-3.416.693-5.687 2.833-5.687 2.833s3.296-2.063 5.96-2.579c2.302-.445 4.716-.487 4.716-.487s.525 1.087 1.58 1.953c1.054.866 2.011 1.626 2.011 1.626z"/>
        <path fill="#7f61a9" stroke="#000" stroke-width=".126" d="M156.655 65.96l3.752 4.919 3.673-4.979-3.754-4.919z"/>
        <path fill="#193" stroke="#000" stroke-width=".126" d="M158.773 65.447s.24-.742-.024-1.688c.826.532 1.606.52 1.606.52v0s.779-.001 1.597-.545c-.25.95.002 1.688.002 1.688v0s.242.742 1.013 1.35c-.981.056-1.606.524-1.606.524s-.632.458-.972 1.381c-.356-.916-.995-1.365-.995-1.365s-.631-.458-1.611-.498c.76-.621.989-1.367.99-1.367"/>
        <path fill="#eb1e67" stroke="#000" stroke-linecap="round" stroke-width=".126" d="M161.03 63.756c.356.02.429.645.246.906l-.91 1.286-.928-1.271c-.186-.259-.124-.884.233-.91.121-.008.204.274.68.27.476-.006.557-.287.679-.281zM158.487 64.641c.13-.333.746-.21.938.046l.94 1.262-1.494.49c-.304.098-.879-.155-.795-.502.032-.118.325-.11.469-.563.142-.456-.102-.62-.058-.733zM158.543 67.332c-.277-.226.03-.773.334-.878l1.489-.505.005 1.573c-.001.319-.419.788-.723.6-.104-.065-.005-.343-.392-.619-.387-.274-.617-.095-.713-.171zM161.118 68.11c-.299.193-.727-.269-.731-.588l-.021-1.574 1.499.482c.303.098.619.642.348.872-.094.078-.327-.102-.71.183-.381.283-.282.558-.385.625zM162.656 65.9c.091.346-.479.609-.785.515l-1.505-.467.924-1.276c.187-.257.802-.391.936-.059.046.112-.196.28-.045.729.15.451.443.442.475.558z"/>
        <path fill="none" stroke="#000" stroke-width=".126" d="M159.405 67.301l.307-1.139-.933-.733 1.169-.055.419-1.119.412 1.112 1.194.036-.927.764.332 1.117-1.005-.624z"/>
        <circle cx="160.368" cy="65.948" r=".712" fill="#ebc633" stroke="#000" stroke-width=".126"/>
    </g>
</svg>
