<svg xmlns="http://www.w3.org/2000/svg" xmlns:xlink="http://www.w3.org/1999/xlink" viewBox="0 0 256 256">
    <defs>
        <linearGradient id="linearGradient924" x1="56.186" x2="79.601" y1="124.496" y2="124.496" gradientUnits="userSpaceOnUse" xlink:href="#innoGrad1"/>
        <linearGradient id="innoGrad1">
            <stop offset="0" stop-color="#ff2a2a" stop-opacity="0"/>
            <stop offset="1" stop-color="#ff2a2a" stop-opacity=".502"/>
        </linearGradient>
        <linearGradient id="linearGradient949" x1="68.83" x2="133.173" y1="133.049" y2="133.049" gradientUnits="userSpaceOnUse" xlink:href="#innoGrad12"/>
        <linearGradient id="innoGrad12">
            <stop offset="0" stop-color="#ff2a2a" stop-opacity=".502"/>
            <stop offset="1" stop-color="#ff2a2a" stop-opacity="0"/>
        </linearGradient>
        <linearGradient id="linearGradient980" x1="77.814" x2="117.848" y1="108.968" y2="108.968" gradientUnits="userSpaceOnUse" xlink:href="#innoGrad2"/>
        <linearGradient id="innoGrad2">
            <stop offset="0" stop-color="#ff2a2a" stop-opacity=".502"/>
            <stop offset=".294" stop-color="#ff2a2a" stop-opacity=".251"/>
            <stop offset=".37" stop-color="#ff2a2a" stop-opacity=".125"/>
            <stop offset=".571" stop-color="#ff2a2a" stop-opacity="0"/>
            <stop offset=".666" stop-color="#ff2a2a" stop-opacity=".251"/>
            <stop offset="1" stop-color="#ff2a2a" stop-opacity="0"/>
        </linearGradient>
        <linearGradient id="linearGradient1019" x1="76.302" x2="117.513" y1="87.448" y2="87.448" gradientUnits="userSpaceOnUse" xlink:href="#innoGrad12"/>
        <linearGradient id="linearGradient1042" x1="70.174" x2="95.8" y1="222.643" y2="231.465" gradientUnits="userSpaceOnUse" xlink:href="#innoGrad12"/>
        <linearGradient id="linearGradient1065" x1="77.12" x2="105.566" y1="172.046" y2="181.451" gradientUnits="userSpaceOnUse" xlink:href="#innoGrad12"/>
        <radialGradient id="radialGradient1088" cx="97.325" cy="90.759" r="2.856" fx="97.325" fy="90.759" gradientUnits="userSpaceOnUse" xlink:href="#innoGrad3"/>
        <linearGradient id="innoGrad3">
            <stop offset="0" stop-color="#ffe680" stop-opacity="0"/>
            <stop offset="1" stop-color="#ffd42a" stop-opacity=".502"/>
        </linearGradient>
        <linearGradient id="linearGradient1111" x1="176.402" x2="199.815" y1="124.496" y2="124.496" gradientUnits="userSpaceOnUse" xlink:href="#innoGrad12"/>
        <linearGradient id="linearGradient1142" x1="122.934" x2="187.276" y1="133.926" y2="133.926" gradientTransform="translate(0 -.877)" gradientUnits="userSpaceOnUse" xlink:href="#innoGrad1"/>
        <linearGradient id="linearGradient1185" x1="138.153" x2="178.185" y1="108.968" y2="108.968" gradientUnits="userSpaceOnUse" xlink:href="#innoGrad22"/>
        <linearGradient id="innoGrad22">
            <stop offset="0" stop-color="#ff2a2a" stop-opacity="0"/>
            <stop offset=".334" stop-color="#ff2a2a" stop-opacity=".251"/>
            <stop offset=".429" stop-color="#ff2a2a" stop-opacity="0"/>
            <stop offset=".63" stop-color="#ff2a2a" stop-opacity=".125"/>
            <stop offset=".706" stop-color="#ff2a2a" stop-opacity=".251"/>
            <stop offset="1" stop-color="#ff2a2a" stop-opacity=".502"/>
        </linearGradient>
        <linearGradient id="linearGradient1228" x1="138.494" x2="179.707" y1="87.448" y2="87.448" gradientUnits="userSpaceOnUse" xlink:href="#innoGrad1"/>
        <linearGradient id="linearGradient1251" x1="160.212" x2="184.674" y1="231.465" y2="223.41" gradientUnits="userSpaceOnUse" xlink:href="#innoGrad1"/>
        <linearGradient id="linearGradient1274" x1="150.431" x2="178.885" y1="181.451" y2="172.046" gradientUnits="userSpaceOnUse" xlink:href="#innoGrad1"/>
        <radialGradient id="radialGradient1379" cx="130.634" cy="79.144" r="4.273" fx="130.634" fy="79.144" gradientTransform="matrix(1 0 0 .99988 0 .01)" gradientUnits="userSpaceOnUse" xlink:href="#innoGrad3"/>
        <radialGradient id="radialGradient1381" cx="130.634" cy="104.488" r="4.273" fx="130.634" fy="104.488" gradientTransform="matrix(1 0 0 .99965 0 .037)" gradientUnits="userSpaceOnUse" xlink:href="#innoGrad3"/>
        <radialGradient id="radialGradient1383" cx="131.242" cy="130.103" r="4.273" fx="131.242" fy="130.103" gradientUnits="userSpaceOnUse" xlink:href="#innoGrad3"/>
        <radialGradient id="radialGradient1385" cx="131.242" cy="155.311" r="4.273" fx="131.242" fy="155.311" gradientTransform="matrix(1 0 0 .99941 0 .091)" gradientUnits="userSpaceOnUse" xlink:href="#innoGrad3"/>
        <radialGradient id="radialGradient1387" cx="158.54" cy="91.437" r="2.858" fx="158.54" fy="91.437" gradientUnits="userSpaceOnUse" xlink:href="#innoGrad3"/>
    </defs>
    <g stroke="#000" stroke-miterlimit="10">
        <path fill="#ff2a2a" d="M108.632 16.132S106.703 10 126.861 10c20.158 0 20.504 6.092 20.504 6.092l-4.108 60.781h-30.509z"/>
        <path fill="#f55" d="M146.781 19.588s-.71-3.931-18.806-4.014c-18.088-.076-18.752 4.014-18.752 4.014l-.591-3.456s-.268-6.129 18.81-6.129 19.923 6.09 19.923 6.09z"/>
    </g>
    <g>
        <path fill="#ff2a2a" stroke="#000" stroke-miterlimit="10" d="M68.712 212.013s-.341.227-3.223 2.105c-.72.47-1.285.546-2.656.883-1.77.436-3.13.745-6.412 1.053-13.65 1.28-12.967-2.103-12.967-2.103s4.554-7.998 12.625-8.617c8.07-.62 12.633 6.679 12.633 6.679z"/>
        <path fill="#ff8080" d="M69.378 34.874s-1.342-.151-2.317 1.345c-1.131 1.743-2.018 5.3-3.614 7.415-1.896 2.508-4.218 4.3-4.403 5.342-.164.938-5.725 27.502-7.542 45.109-.28 2.685-3.202 25.36-3.773 32.693-.548 7.029-3.12 33.933-3.457 39.617-1.501 25.234-1.24 47.036-.817 47.557.699.85 5.246-1.738 11.03-2.77 5.943-1.063 13.55-.042 14.227.83.729.942.83-34.518 3.22-63.7.856-10.437 3.32-20.001 4.609-27.507 1.729-10.08 2.24-16.394 2.435-15.628.13.504.664-26.303-2.172-46.927-1.785-12.968-7.426-23.376-7.426-23.376z"/>
        <path fill="url(#linearGradient924)" stroke="#000" stroke-miterlimit="10" d="M69.378 34.874s-1.342-.151-2.317 1.345c-1.131 1.743-2.018 5.3-3.614 7.415-1.896 2.508-4.218 4.3-4.403 5.342-.164.938-5.725 27.502-7.542 45.109-.28 2.685-3.202 25.36-3.773 32.693-.548 7.029-3.12 33.933-3.457 39.617-1.501 25.234-1.24 47.036-.817 47.557.699.85 5.246-1.738 11.03-2.77 5.943-1.063 13.55-.042 14.227.83.729.942.83-34.518 3.22-63.7.856-10.437 3.32-20.001 4.609-27.507 1.729-10.08 2.24-16.394 2.435-15.628.13.504.664-26.303-2.172-46.927-1.785-12.968-7.426-23.376-7.426-23.376z"/>
        <path fill="#ff8080" d="M108.632 16.132c-.79.89-1.188 3.378-3.065 4.946-2.091 1.754-6.942 3.29-15.205 6.957-7.65 3.394-20.14 5.259-20.983 6.839-.543 1.02 4.529 19.289 5.542 43.026 1.179 27.582 8.51 33.534 7.78 51.866-1.177 29.467-4.4 36.144-6.365 54.104-2.764 25.223-6.014 45.03-5.306 49.983.176 1.209 3.835 2.962 7.783 5.423 4.04 2.519 8.46 5.75 15.794 7.424 5.529 1.265 12.122 1.296 17.68 1.887 9.328.997 16.649 1.948 17.69 1.06.565-.487.859-25.54 1.526-59.058.523-26.205.079-83.48 1.167-112.847.184-5.03-10.187-13.416-15.901-27.898-4.434-11.237-5.183-17.872-6.722-24.875-1.023-4.667-.97-9.342-1.415-8.837z"/>
        <path fill="url(#linearGradient949)" stroke="#000" stroke-miterlimit="10" d="M108.632 16.132c-.79.89-1.188 3.378-3.065 4.946-2.091 1.754-6.942 3.29-15.205 6.957-7.65 3.394-20.14 5.259-20.983 6.839-.543 1.02 4.529 19.289 5.542 43.026 1.179 27.582 8.51 33.534 7.78 51.866-1.177 29.467-4.4 36.144-6.365 54.104-2.764 25.223-6.014 45.03-5.306 49.983.176 1.209 3.835 2.962 7.783 5.423 4.04 2.519 8.46 5.75 15.794 7.424 5.529 1.265 12.122 1.296 17.68 1.887 9.328.997 16.649 1.948 17.69 1.06.565-.487.859-25.54 1.526-59.058.523-26.205.079-83.48 1.167-112.847.184-5.03-10.187-13.416-15.901-27.898-4.434-11.237-5.183-17.872-6.722-24.875-1.023-4.667-.97-9.342-1.415-8.837z"/>
        <path fill="none" stroke="#000" stroke-miterlimit="10" d="M132.576 76.874s-12.836-7.958-21.663-14.064c-9.28-6.417-15.185-9.588-15.302-10.531-.117-.943 6.542-4.911 6.542-5.736 0-.826-9.745-4.293-10.063-5.21-.314-.92 8.91-17.8 8.91-17.8M112.335 35.864l-10.182 10.678"/>
        <path fill="#f55" stroke="#000" stroke-miterlimit="10" d="M69.554 34.354l.65 2.577 27.35-9.427 4.599-4.481-5.542 1.769z"/>
        <path fill="#ffb380" stroke="#000" stroke-miterlimit="10" d="M97.23 28.35l-25.573 8.594-1.196-3.558 25.574-8.593z"/>
        <path fill="#ffe680" stroke="#000" stroke-miterlimit="10" d="M97.07 25.189c.196.465 1.216.48 2.272.036 1.056-.446 1.753-1.188 1.552-1.653-.195-.465-1.208-.481-2.265-.034-1.056.45-1.752 1.185-1.558 1.65z"/>
        <path fill="#ff8080" d="M115.783 87.17s2.625 41.662 1.075 43.093c-1.415 1.307-30.574-.088-32.145-1.457-1.566-1.368-6.336-40.063-6.336-40.063z"/>
        <path fill="url(#linearGradient980)" stroke="#000" stroke-miterlimit="10" d="M115.783 87.17s2.625 41.662 1.075 43.093c-1.415 1.307-30.574-.088-32.145-1.457-1.566-1.368-6.336-40.063-6.336-40.063z"/>
        <path fill="none" stroke="#000" stroke-miterlimit="10" d="M102.177 87.745l1.632 43.04M90.007 88.373l2.02 41.393"/>
        <path fill="#ff8080" d="M116.683 80.384c.52 2.323.348 11.204 0 13.518-.122.807-5.428-.807-9.84-.473-4.418.333-8.615 2.254-9.314 2.359-1.704.258-8.686-1.872-12.472-1.74-3.088.109-6.801 1.586-6.801.625 0-1.097-1.544-12.642-1.45-14.29.09-1.543 39.438-1.918 39.877 0z"/>
        <path fill="url(#linearGradient1019)" stroke="#000" stroke-miterlimit="10" d="M116.683 80.384c.52 2.323.348 11.204 0 13.518-.122.807-5.428-.807-9.84-.473-4.418.333-8.615 2.254-9.314 2.359-1.704.258-8.686-1.872-12.472-1.74-3.088.109-6.801 1.586-6.801.625 0-1.097-1.544-12.642-1.45-14.29.09-1.543 39.438-1.918 39.877 0z"/>
        <path fill="#f55" stroke="#000" stroke-miterlimit="10" d="M104.782 178.959s-4.557 51.762-5.188 52.603c-.625.837-3.794-.097-3.794-.097l7.413-52.707z"/>
        <path fill="#ff8080" d="M104.782 178.959s-6.455 51.399-7.47 52.496c-1.015 1.099-26.784-6.834-26.636-8.015.15-1.182 6.444-51.394 6.444-51.394z"/>
        <path fill="url(#linearGradient1042)" stroke="#000" stroke-miterlimit="10" d="M104.782 178.959s-6.455 51.399-7.47 52.496c-1.015 1.099-26.784-6.834-26.636-8.015.15-1.182 6.444-51.394 6.444-51.394z"/>
        <path fill="#f55" stroke="#000" stroke-miterlimit="10" d="M109.81 156.292s2.067.166 2.636 1.226c.569 1.053-3.136 22.868-3.87 24.062-.74 1.192-3.01-.13-3.01-.13z"/>
        <path fill="#ff8080" d="M111.385 156.8c-.364-.82-15.261-2.162-21.85-3.616-4.814-1.058-8.476-2.62-9.274-1.887-.938.859-.925 6.903-1.885 11.944-.97 5.097-2.91 9.197-2.513 9.277.784.156 30.596 9.875 31.276 9.116 1.262-1.414 4.87-23.418 4.246-24.833z"/>
        <path fill="url(#linearGradient1065)" stroke="#000" stroke-miterlimit="10" d="M111.385 156.8c-.364-.82-15.261-2.162-21.85-3.616-4.814-1.058-8.476-2.62-9.274-1.887-.938.859-.925 6.903-1.885 11.944-.97 5.097-2.91 9.197-2.513 9.277.784.156 30.596 9.875 31.276 9.116 1.262-1.414 4.87-23.418 4.246-24.833z"/>
        <circle cx="96.647" cy="91.573" r="2.356" fill="#ffe680"/>
        <circle cx="96.647" cy="91.573" r="2.356" fill="url(#radialGradient1088)" stroke="#000" stroke-miterlimit="10"/>
        <path fill="#ff2a2a" stroke="#000" stroke-miterlimit="10" d="M187.292 212.013s.002 1.276 2.875 3.155c.723.47.788.834 2.167 1.17 1.766.437 3.707-.043 7 0 13.54.184 13.21-2.387 13.21-2.387s-5.591-4.16-13.71-4.783c-8.12-.623-11.542 2.845-11.542 2.845z"/>
        <path fill="#ff8080" d="M186.625 34.874s1.343-.151 2.318 1.345c1.13 1.743 2.01 5.3 3.617 7.415 1.89 2.508 4.218 4.3 4.4 5.342.162.938 5.717 27.502 7.546 45.109.27 2.685 3.197 25.36 3.769 32.693.546 7.029 3.116 33.933 3.46 39.617 1.492 25.234 1.234 47.036.809 47.557-.697.85-5.236-1.738-11.032-2.77-5.932-1.063-13.543-.042-14.22.83-.73.942-.827-34.518-3.22-63.7-.86-10.437-3.32-20.001-4.612-27.507-1.726-10.08-2.237-16.394-2.431-15.628-.138.504-.658-26.303 2.176-46.927 1.779-12.968 7.42-23.376 7.42-23.376z"/>
        <path fill="url(#linearGradient1111)" stroke="#000" stroke-miterlimit="10" d="M186.625 34.874s1.343-.151 2.318 1.345c1.13 1.743 2.01 5.3 3.617 7.415 1.89 2.508 4.218 4.3 4.4 5.342.162.938 5.717 27.502 7.546 45.109.27 2.685 3.197 25.36 3.769 32.693.546 7.029 3.116 33.933 3.46 39.617 1.492 25.234 1.234 47.036.809 47.557-.697.85-5.236-1.738-11.032-2.77-5.932-1.063-13.543-.042-14.22.83-.73.942-.827-34.518-3.22-63.7-.86-10.437-3.32-20.001-4.612-27.507-1.726-10.08-2.237-16.394-2.431-15.628-.138.504-.658-26.303 2.176-46.927 1.779-12.968 7.42-23.376 7.42-23.376z"/>
        <path fill="#ff8080" d="M147.467 16.132c.796.89 1.188 3.378 3.065 4.946 2.091 1.754 6.956 3.29 15.205 6.957 7.66 3.394 20.145 5.259 20.99 6.839.546 1.02-4.53 19.289-5.542 43.026-1.176 27.582-8.512 33.534-7.776 51.866 1.18 29.467 4.395 36.144 6.364 54.104 2.762 25.223 6.01 45.03 5.303 49.983-.17 1.209-3.84 2.962-7.782 5.423-4.048 2.519-8.462 5.75-15.794 7.424-5.53 1.265-12.125 1.296-17.682 1.887-9.327.997-16.648 1.948-17.682 1.06-.572-.487-.867-25.54-1.533-59.058-.525-26.205-.077-83.48-1.167-112.847-.19-5.03 10.178-13.416 15.9-27.898 4.435-11.237 5.183-17.872 6.715-24.875 1.031-4.667.973-9.342 1.416-8.837z"/>
        <path fill="url(#linearGradient1142)" stroke="#000" stroke-miterlimit="10" d="M147.467 16.132c.796.89 1.188 3.378 3.065 4.946 2.091 1.754 6.956 3.29 15.205 6.957 7.66 3.394 20.145 5.259 20.99 6.839.546 1.02-4.53 19.289-5.542 43.026-1.176 27.582-8.512 33.534-7.776 51.866 1.18 29.467 4.395 36.144 6.364 54.104 2.762 25.223 6.01 45.03 5.303 49.983-.17 1.209-3.84 2.962-7.782 5.423-4.048 2.519-8.462 5.75-15.794 7.424-5.53 1.265-12.125 1.296-17.682 1.887-9.327.997-16.648 1.948-17.682 1.06-.572-.487-.867-25.54-1.533-59.058-.525-26.205-.077-83.48-1.167-112.847-.19-5.03 10.178-13.416 15.9-27.898 4.435-11.237 5.183-17.872 6.715-24.875 1.031-4.667.973-9.342 1.416-8.837z"/>
        <path fill="none" stroke="#000" stroke-miterlimit="10" d="M123.422 76.874s12.843-7.958 21.669-14.064c9.278-6.417 15.177-9.588 15.302-10.531.11-.943-6.535-4.911-6.535-5.736 0-.826 9.737-4.293 10.058-5.21.308-.92-8.912-17.8-8.912-17.8M143.622 36.054l10.235 10.488"/>
        <path fill="#f55" stroke="#000" stroke-miterlimit="10" d="M185.793 36.93l-27.344-9.426-4.592-4.481 5.536 1.769 27.063 9.562z"/>
        <path fill="#ffb380" stroke="#000" stroke-miterlimit="10" d="M184.354 36.94l-25.574-8.592 1.198-3.557 25.566 8.588z"/>
        <path fill="#ffe680" fill-opacity=".941" stroke="#000" stroke-miterlimit="10" d="M158.933 25.189c-.194.465-1.215.48-2.265.036-1.063-.446-1.76-1.188-1.565-1.653.202-.465 1.216-.481 2.279-.034 1.049.45 1.745 1.185 1.55 1.65z"/>
        <path fill="#ff8080" d="M140.22 87.17s-2.623 41.662-1.081 43.093c1.415 1.307 30.58-.088 32.146-1.457 1.579-1.368 6.338-40.063 6.338-40.063z"/>
        <path fill="url(#linearGradient1185)" stroke="#000" stroke-miterlimit="10" d="M140.22 87.17s-2.623 41.662-1.081 43.093c1.415 1.307 30.58-.088 32.146-1.457 1.579-1.368 6.338-40.063 6.338-40.063z"/>
        <path fill="none" stroke="#000" stroke-miterlimit="10" d="M153.827 87.745l-1.631 43.04M165.996 88.373l-2.019 41.393"/>
        <path fill="#ff8080" d="M139.328 80.384c-.527 2.323-.354 11.204 0 13.518.115.807 5.427-.807 9.84-.473 4.412.333 8.608 2.254 9.307 2.359 1.71.258 8.687-1.872 12.475-1.74 3.092.109 6.802 1.586 6.802.625 0-1.097 1.54-12.642 1.45-14.29-.095-1.543-39.442-1.918-39.874 0z"/>
        <path fill="url(#linearGradient1228)" stroke="#000" stroke-miterlimit="10" d="M139.328 80.384c-.527 2.323-.354 11.204 0 13.518.115.807 5.427-.807 9.84-.473 4.412.333 8.608 2.254 9.307 2.359 1.71.258 8.687-1.872 12.475-1.74 3.092.109 6.802 1.586 6.802.625 0-1.097 1.54-12.642 1.45-14.29-.095-1.543-39.442-1.918-39.874 0z"/>
        <path fill="#f55" stroke="#000" stroke-miterlimit="10" d="M151.223 178.959s4.553 51.762 5.188 52.603c.624.837 3.8-.097 3.8-.097l-7.422-52.707z"/>
        <path fill="#ff8080" d="M151.223 178.959s6.447 51.399 7.469 52.496c1.02 1.099 26.787-6.834 26.63-8.015-.143-1.182-6.437-51.394-6.437-51.394z"/>
        <path fill="url(#linearGradient1251)" stroke="#000" stroke-miterlimit="10" d="M151.223 178.959s6.447 51.399 7.469 52.496c1.02 1.099 26.787-6.834 26.63-8.015-.143-1.182-6.437-51.394-6.437-51.394z"/>
        <path fill="#f55" stroke="#000" stroke-miterlimit="10" d="M146.186 156.292s-2.06.166-2.621 1.226c-.576 1.053 3.124 22.868 3.863 24.062.738 1.192 3.003-.13 3.003-.13z"/>
        <path fill="#ff8080" d="M144.619 156.8c.369-.82 15.26-2.162 21.849-3.616 4.808-1.058 8.48-2.62 9.269-1.887.938.859.925 6.903 1.887 11.944.974 5.097 2.914 9.197 2.52 9.277-.786.156-30.6 9.875-31.278 9.116-1.27-1.414-4.872-23.418-4.247-24.833z"/>
        <path fill="url(#linearGradient1274)" stroke="#000" stroke-miterlimit="10" d="M144.619 156.8c.369-.82 15.26-2.162 21.849-3.616 4.808-1.058 8.48-2.62 9.269-1.887.938.859.925 6.903 1.887 11.944.974 5.097 2.914 9.197 2.52 9.277-.786.156-30.6 9.875-31.278 9.116-1.27-1.414-4.872-23.418-4.247-24.833z"/>
        <path fill="#ffe680" d="M134.407 81.043a3.775 3.775 0 0 1-3.773 3.772 3.771 3.771 0 0 1-3.773-3.772 3.774 3.774 0 0 1 7.546 0zM134.407 106.386a3.773 3.773 0 0 1-7.546 0 3.768 3.768 0 0 1 3.773-3.771 3.772 3.772 0 0 1 3.773 3.77z"/>
        <circle cx="131.106" cy="131.73" r="3.773" fill="#ffe680"/>
        <path fill="#ffe680" d="M134.879 157.073a3.771 3.771 0 0 1-3.773 3.772 3.771 3.771 0 0 1 0-7.541 3.771 3.771 0 0 1 3.773 3.769zM161.712 91.573a2.353 2.353 0 0 1-2.358 2.358 2.362 2.362 0 0 1-2.358-2.358 2.362 2.362 0 0 1 2.358-2.358 2.353 2.353 0 0 1 2.358 2.358z"/>
        <path fill="url(#radialGradient1379)" stroke="#000" stroke-miterlimit="10" d="M134.407 81.043a3.775 3.775 0 0 1-3.773 3.772 3.771 3.771 0 0 1-3.773-3.772 3.774 3.774 0 0 1 7.546 0z"/>
        <path fill="url(#radialGradient1381)" stroke="#000" stroke-miterlimit="10" d="M134.407 106.386a3.773 3.773 0 0 1-7.546 0 3.768 3.768 0 0 1 3.773-3.771 3.772 3.772 0 0 1 3.773 3.77z"/>
        <circle cx="131.106" cy="131.73" r="3.773" fill="url(#radialGradient1383)" stroke="#000" stroke-miterlimit="10"/>
        <path fill="url(#radialGradient1385)" stroke="#000" stroke-miterlimit="10" d="M134.879 157.073a3.771 3.771 0 0 1-3.773 3.772 3.771 3.771 0 0 1 0-7.541 3.771 3.771 0 0 1 3.773 3.769z"/>
        <path fill="url(#radialGradient1387)" stroke="#000" stroke-miterlimit="10" d="M161.712 91.573a2.353 2.353 0 0 1-2.358 2.358 2.362 2.362 0 0 1-2.358-2.358 2.362 2.362 0 0 1 2.358-2.358 2.353 2.353 0 0 1 2.358 2.358z"/>
        <path fill="#ffb380" stroke="#000" stroke-miterlimit="10" d="M155.72 46.871l-7.695-16.106 1.563-6.368 5.493 2.359 8.305 15.954z"/>
        <path fill="#e6e6e6" stroke="#000" stroke-miterlimit="10" stroke-width=".5" d="M153.67 28.801a1.882 1.882 0 1 1-3.765 0 1.883 1.883 0 0 1 3.765 0z"/>
        <path fill="#e6e6e6" stroke="#000" stroke-linejoin="round" stroke-miterlimit="10" stroke-width=".25" d="M153.668 33.207s2.64 5.935 3.105 5.68c.468-.251-3.105-5.68-3.105-5.68z"/>
        <path fill="#e6e6e6" stroke="#000" stroke-linejoin="round" stroke-miterlimit="10" stroke-width=".25" d="M156.828 33.466s-1.816 4.139-.406 4.274c1.411.137.406-4.274.406-4.274zM152.742 37.035s4.472.705 3.825 1.968c-.642 1.261-3.825-1.968-3.825-1.968z"/>
        <path fill="#ee468a" stroke="#010101" stroke-width=".25" d="M158.599 40.648l-1.472-1.344.319 1.974z"/>
        <path fill="#ee4689" stroke="#010101" stroke-width=".25" d="M160.311 39.72l-1.712.928.883.799z"/>
        <path fill="#ee468a" stroke="#010101" stroke-width=".25" d="M161.037 42.863l-1.555-1.416-.562 1.152z"/>
        <path fill="#ee4689" stroke="#010101" stroke-width=".25" d="M157.99 44.516l-.342-2.053 1.272.136zM155.698 42.235l1.95.228-.202-1.185z"/>
        <path fill="#ffb380" stroke="#000" stroke-miterlimit="10" d="M100.287 46.871l7.698-16.106-1.569-6.368-5.5 2.359-8.298 15.954z"/>
        <path fill="#e6e6e6" stroke="#000" stroke-miterlimit="10" stroke-width=".5" d="M102.331 28.801c0 1.042.846 1.883 1.887 1.883a1.884 1.884 0 1 0 0-3.769 1.885 1.885 0 0 0-1.887 1.886z"/>
        <path fill="#e6e6e6" stroke="#000" stroke-linejoin="round" stroke-miterlimit="10" stroke-width=".25" d="M102.333 33.207s-2.638 5.935-3.104 5.68c-.468-.251 3.104-5.68 3.104-5.68z"/>
        <path fill="#e6e6e6" stroke="#000" stroke-linejoin="round" stroke-miterlimit="10" stroke-width=".25" d="M99.176 33.466s1.818 4.139.409 4.274c-1.409.137-.409-4.274-.409-4.274zM103.254 37.035s-4.471.705-3.818 1.968c.644 1.261 3.818-1.968 3.818-1.968z"/>
        <path fill="#ee468a" stroke="#010101" stroke-width=".25" d="M97.398 40.648l1.482-1.344-.33 1.974z"/>
        <path fill="#ee4689" stroke="#010101" stroke-width=".25" d="M95.693 39.72l1.705.928-.871.799z"/>
        <path fill="#ee468a" stroke="#010101" stroke-width=".25" d="M94.967 42.863l1.56-1.416.556 1.152z"/>
        <path fill="#ee4689" stroke="#010101" stroke-width=".25" d="M98.013 44.516l.341-2.053-1.271.136zM100.306 42.235l-1.952.228.196-1.185z"/>
    </g>
    <g>
        <path fill="#414042" stroke="#000" stroke-miterlimit="10" stroke-width=".166" d="M76.605 72.437l40.85-1.337.173 5.314L76.78 77.75z"/>
        <path fill="#e6e7e8" d="M154.449 73.9l10-.022.006 3-10 .021z"/>
        <path fill="#d75086" d="M158.829 73.881h1.25v3h-1.25z"/>
        <g fill="#231f20" opacity=".25">
            <g>
                <path d="M154.454 76.748l10-.02v.1l-10 .02zM154.454 76.498l10-.02v.1l-10 .02zM154.453 76.248l10-.02v.1l-10 .02zM154.453 75.998l10-.02v.1l-10 .02zM154.452 75.748l10-.02v.1l-10 .02zM154.45 75.498l10-.02v.1l-10 .02zM154.45 75.248l10-.02v.1l-10 .02zM154.45 74.998l10-.02v.1l-10 .02zM154.45 74.748l10-.02v.1l-10 .02zM154.449 74.498l10-.02v.1l-10 .02zM154.449 74.248l10-.02v.1l-10 .02zM154.448 73.998l10-.02v.1l-10 .02z"/>
            </g>
            <g>
                <path d="M154.454 76.748l10-.02v.1l-10 .02zM154.454 76.498l10-.02v.1l-10 .02zM154.453 76.248l10-.02v.1l-10 .02zM154.453 75.998l10-.02v.1l-10 .02zM154.452 75.748l10-.02v.1l-10 .02zM154.45 75.498l10-.02v.1l-10 .02zM154.45 75.248l10-.02v.1l-10 .02zM154.45 74.998l10-.02v.1l-10 .02zM154.45 74.748l10-.02v.1l-10 .02zM154.449 74.498l10-.02v.1l-10 .02zM154.449 74.248l10-.02v.1l-10 .02zM154.448 73.998l10-.02v.1l-10 .02z"/>
            </g>
        </g>
        <path fill="none" stroke="#231f20" stroke-linejoin="round" stroke-miterlimit="10" stroke-width=".25" d="M154.448 73.9l10-.022.007 3-10.001.021z"/>
        <path fill="#b89300" d="M160.049 75.689l.566-.571-1.16.263z"/>
        <path fill="#ebc633" d="M159.455 75.381l1.16-.263-.795-.126zM159.452 74.276l.368.716-.365.389z"/>
        <path fill="#fff966" d="M159.452 74.276l-.365.718.368.387z"/>
        <path fill="#fff966" d="M159.087 74.994l.368.387-1.164-.258z"/>
        <path fill="#ebc633" d="M158.862 75.692l.593-.311-1.164-.258zM158.862 75.692l-.124.796.717-1.107z"/>
        <path fill="#b89300" d="M158.738 76.488l.717-1.107.001.741z"/>
        <path fill="#b89300" d="M160.175 76.485l-.72-1.104.001.741zM160.175 76.485l-.126-.796-.594-.308z"/>
        <path fill="none" stroke="#231f20" stroke-linejoin="round" stroke-miterlimit="10" stroke-width=".1" d="M159.452 74.276l.368.716.795.126-.566.571.126.796-.719-.363-.718.366.124-.796-.571-.569.796-.129z"/>
        <g fill="#e6e7e8">
            <path d="M89.736 73.107l.448-.012.085 3.194-.448.011zm.298 2.761l1.828-.048.011.426-1.828.048zM93.171 74.912l.035 1.298-.448.012-.034-1.298-1.024-1.869.499-.013.737 1.422.66-1.459.499-.014zM94.423 72.982l.448-.012.085 3.194-.448.012zm.4 1.783l1.362-1.83.551-.015-1.962 2.518zm.523-.317l.345-.336 1.264 2-.549.015zM97.31 72.905l.448-.012.085 3.194-.448.012zm.398 1.783l1.363-1.83.551-.015-1.961 2.518zm.524-.317l.345-.336 1.264 2-.549.015zM100.196 72.829l.448-.012.085 3.194-.448.012zm.218-.006l1.834-.049.011.426-1.834.048zm.037 1.395l1.592-.042.011.427-1.592.042zm.036 1.373l1.833-.049.011.426-1.833.048z"/>
        </g>
    </g>
</svg>
