<svg xmlns="http://www.w3.org/2000/svg" xmlns:xlink="http://www.w3.org/1999/xlink" viewBox="0 0 256 256">
    <defs>
        <linearGradient id="linearGradient924" x1="56.186" x2="79.601" y1="124.496" y2="124.496" gradientUnits="userSpaceOnUse" xlink:href="#innoGrad1"/>
        <linearGradient id="innoGrad1">
            <stop offset="0" stop-color="#ff2a2a" stop-opacity="0"/>
            <stop offset="1" stop-color="#ff2a2a" stop-opacity=".502"/>
        </linearGradient>
        <linearGradient id="linearGradient949" x1="68.83" x2="133.173" y1="133.049" y2="133.049" gradientUnits="userSpaceOnUse" xlink:href="#innoGrad12"/>
        <linearGradient id="innoGrad12">
            <stop offset="0" stop-color="#ff2a2a" stop-opacity=".502"/>
            <stop offset="1" stop-color="#ff2a2a" stop-opacity="0"/>
        </linearGradient>
        <linearGradient id="linearGradient980" x1="77.814" x2="117.848" y1="108.968" y2="108.968" gradientUnits="userSpaceOnUse" xlink:href="#innoGrad2"/>
        <linearGradient id="innoGrad2">
            <stop offset="0" stop-color="#ff2a2a" stop-opacity=".502"/>
            <stop offset=".294" stop-color="#ff2a2a" stop-opacity=".251"/>
            <stop offset=".37" stop-color="#ff2a2a" stop-opacity=".125"/>
            <stop offset=".571" stop-color="#ff2a2a" stop-opacity="0"/>
            <stop offset=".666" stop-color="#ff2a2a" stop-opacity=".251"/>
            <stop offset="1" stop-color="#ff2a2a" stop-opacity="0"/>
        </linearGradient>
        <linearGradient id="linearGradient1019" x1="76.302" x2="117.513" y1="87.448" y2="87.448" gradientUnits="userSpaceOnUse" xlink:href="#innoGrad12"/>
        <linearGradient id="linearGradient1042" x1="70.174" x2="95.8" y1="222.643" y2="231.465" gradientUnits="userSpaceOnUse" xlink:href="#innoGrad12"/>
        <linearGradient id="linearGradient1065" x1="77.12" x2="105.566" y1="172.046" y2="181.451" gradientUnits="userSpaceOnUse" xlink:href="#innoGrad12"/>
        <radialGradient id="radialGradient1088" cx="97.325" cy="90.759" r="2.856" fx="97.325" fy="90.759" gradientUnits="userSpaceOnUse" xlink:href="#innoGrad3"/>
        <linearGradient id="innoGrad3">
            <stop offset="0" stop-color="#ffe680" stop-opacity="0"/>
            <stop offset="1" stop-color="#ffd42a" stop-opacity=".502"/>
        </linearGradient>
        <linearGradient id="linearGradient1111" x1="176.402" x2="199.815" y1="124.496" y2="124.496" gradientUnits="userSpaceOnUse" xlink:href="#innoGrad12"/>
        <linearGradient id="linearGradient1142" x1="122.934" x2="187.276" y1="133.926" y2="133.926" gradientTransform="translate(0 -.877)" gradientUnits="userSpaceOnUse" xlink:href="#innoGrad1"/>
        <linearGradient id="linearGradient1185" x1="138.153" x2="178.185" y1="108.968" y2="108.968" gradientUnits="userSpaceOnUse" xlink:href="#innoGrad22"/>
        <linearGradient id="innoGrad22">
            <stop offset="0" stop-color="#ff2a2a" stop-opacity="0"/>
            <stop offset=".334" stop-color="#ff2a2a" stop-opacity=".251"/>
            <stop offset=".429" stop-color="#ff2a2a" stop-opacity="0"/>
            <stop offset=".63" stop-color="#ff2a2a" stop-opacity=".125"/>
            <stop offset=".706" stop-color="#ff2a2a" stop-opacity=".251"/>
            <stop offset="1" stop-color="#ff2a2a" stop-opacity=".502"/>
        </linearGradient>
        <linearGradient id="linearGradient1228" x1="138.494" x2="179.707" y1="87.448" y2="87.448" gradientUnits="userSpaceOnUse" xlink:href="#innoGrad1"/>
        <linearGradient id="linearGradient1251" x1="160.212" x2="184.674" y1="231.465" y2="223.41" gradientUnits="userSpaceOnUse" xlink:href="#innoGrad1"/>
        <linearGradient id="linearGradient1274" x1="150.431" x2="178.885" y1="181.451" y2="172.046" gradientUnits="userSpaceOnUse" xlink:href="#innoGrad1"/>
        <radialGradient id="radialGradient1379" cx="130.634" cy="79.144" r="4.273" fx="130.634" fy="79.144" gradientTransform="matrix(1 0 0 .99988 0 .01)" gradientUnits="userSpaceOnUse" xlink:href="#innoGrad3"/>
        <radialGradient id="radialGradient1381" cx="130.634" cy="104.488" r="4.273" fx="130.634" fy="104.488" gradientTransform="matrix(1 0 0 .99965 0 .037)" gradientUnits="userSpaceOnUse" xlink:href="#innoGrad3"/>
        <radialGradient id="radialGradient1383" cx="131.242" cy="130.103" r="4.273" fx="131.242" fy="130.103" gradientUnits="userSpaceOnUse" xlink:href="#innoGrad3"/>
        <radialGradient id="radialGradient1385" cx="131.242" cy="155.311" r="4.273" fx="131.242" fy="155.311" gradientTransform="matrix(1 0 0 .99941 0 .091)" gradientUnits="userSpaceOnUse" xlink:href="#innoGrad3"/>
        <radialGradient id="radialGradient1387" cx="158.54" cy="91.437" r="2.858" fx="158.54" fy="91.437" gradientUnits="userSpaceOnUse" xlink:href="#innoGrad3"/>
    </defs>
    <g stroke="#000" stroke-miterlimit="10">
        <path fill="#ff2a2a" d="M108.632 16.132S106.703 10 126.861 10c20.158 0 20.504 6.092 20.504 6.092l-4.108 60.781h-30.509z"/>
        <path fill="#f55" d="M146.781 19.588s-.71-3.931-18.806-4.014c-18.088-.076-18.752 4.014-18.752 4.014l-.591-3.456s-.268-6.129 18.81-6.129 19.923 6.09 19.923 6.09z"/>
    </g>
    <g>
        <path fill="#ff2a2a" stroke="#000" stroke-miterlimit="10" d="M68.712 212.013s-.341.227-3.223 2.105c-.72.47-1.285.546-2.656.883-1.77.436-3.13.745-6.412 1.053-13.65 1.28-12.967-2.103-12.967-2.103s4.554-7.998 12.625-8.617c8.07-.62 12.633 6.679 12.633 6.679z"/>
        <path fill="#ff8080" d="M69.378 34.874s-1.342-.151-2.317 1.345c-1.131 1.743-2.018 5.3-3.614 7.415-1.896 2.508-4.218 4.3-4.403 5.342-.164.938-5.725 27.502-7.542 45.109-.28 2.685-3.202 25.36-3.773 32.693-.548 7.029-3.12 33.933-3.457 39.617-1.501 25.234-1.24 47.036-.817 47.557.699.85 5.246-1.738 11.03-2.77 5.943-1.063 13.55-.042 14.227.83.729.942.83-34.518 3.22-63.7.856-10.437 3.32-20.001 4.609-27.507 1.729-10.08 2.24-16.394 2.435-15.628.13.504.664-26.303-2.172-46.927-1.785-12.968-7.426-23.376-7.426-23.376z"/>
        <path fill="url(#linearGradient924)" stroke="#000" stroke-miterlimit="10" d="M69.378 34.874s-1.342-.151-2.317 1.345c-1.131 1.743-2.018 5.3-3.614 7.415-1.896 2.508-4.218 4.3-4.403 5.342-.164.938-5.725 27.502-7.542 45.109-.28 2.685-3.202 25.36-3.773 32.693-.548 7.029-3.12 33.933-3.457 39.617-1.501 25.234-1.24 47.036-.817 47.557.699.85 5.246-1.738 11.03-2.77 5.943-1.063 13.55-.042 14.227.83.729.942.83-34.518 3.22-63.7.856-10.437 3.32-20.001 4.609-27.507 1.729-10.08 2.24-16.394 2.435-15.628.13.504.664-26.303-2.172-46.927-1.785-12.968-7.426-23.376-7.426-23.376z"/>
        <path fill="#ff8080" d="M108.632 16.132c-.79.89-1.188 3.378-3.065 4.946-2.091 1.754-6.942 3.29-15.205 6.957-7.65 3.394-20.14 5.259-20.983 6.839-.543 1.02 4.529 19.289 5.542 43.026 1.179 27.582 8.51 33.534 7.78 51.866-1.177 29.467-4.4 36.144-6.365 54.104-2.764 25.223-6.014 45.03-5.306 49.983.176 1.209 3.835 2.962 7.783 5.423 4.04 2.519 8.46 5.75 15.794 7.424 5.529 1.265 12.122 1.296 17.68 1.887 9.328.997 16.649 1.948 17.69 1.06.565-.487.859-25.54 1.526-59.058.523-26.205.079-83.48 1.167-112.847.184-5.03-10.187-13.416-15.901-27.898-4.434-11.237-5.183-17.872-6.722-24.875-1.023-4.667-.97-9.342-1.415-8.837z"/>
        <path fill="url(#linearGradient949)" stroke="#000" stroke-miterlimit="10" d="M108.632 16.132c-.79.89-1.188 3.378-3.065 4.946-2.091 1.754-6.942 3.29-15.205 6.957-7.65 3.394-20.14 5.259-20.983 6.839-.543 1.02 4.529 19.289 5.542 43.026 1.179 27.582 8.51 33.534 7.78 51.866-1.177 29.467-4.4 36.144-6.365 54.104-2.764 25.223-6.014 45.03-5.306 49.983.176 1.209 3.835 2.962 7.783 5.423 4.04 2.519 8.46 5.75 15.794 7.424 5.529 1.265 12.122 1.296 17.68 1.887 9.328.997 16.649 1.948 17.69 1.06.565-.487.859-25.54 1.526-59.058.523-26.205.079-83.48 1.167-112.847.184-5.03-10.187-13.416-15.901-27.898-4.434-11.237-5.183-17.872-6.722-24.875-1.023-4.667-.97-9.342-1.415-8.837z"/>
        <path fill="none" stroke="#000" stroke-miterlimit="10" d="M132.576 76.874s-12.836-7.958-21.663-14.064c-9.28-6.417-15.185-9.588-15.302-10.531-.117-.943 6.542-4.911 6.542-5.736 0-.826-9.745-4.293-10.063-5.21-.314-.92 8.91-17.8 8.91-17.8M112.335 35.864l-10.182 10.678"/>
        <path fill="#f55" stroke="#000" stroke-miterlimit="10" d="M97.554 27.504l4.599-4.481-5.542 1.769-27.057 9.562.65 2.577z"/>
        <path fill="#ffb380" stroke="#000" stroke-miterlimit="10" d="M97.23 28.35l-25.573 8.594-1.196-3.558 25.574-8.593z"/>
        <path fill="#ffe680" stroke="#000" stroke-miterlimit="10" d="M97.07 25.189c.196.465 1.216.48 2.272.036 1.056-.446 1.753-1.188 1.552-1.653-.195-.465-1.208-.481-2.265-.034-1.056.45-1.752 1.185-1.558 1.65z"/>
        <path fill="#ff8080" d="M115.783 87.17s2.625 41.662 1.075 43.093c-1.415 1.307-30.574-.088-32.145-1.457-1.566-1.368-6.336-40.063-6.336-40.063z"/>
        <path fill="url(#linearGradient980)" stroke="#000" stroke-miterlimit="10" d="M115.783 87.17s2.625 41.662 1.075 43.093c-1.415 1.307-30.574-.088-32.145-1.457-1.566-1.368-6.336-40.063-6.336-40.063z"/>
        <path fill="none" stroke="#000" stroke-miterlimit="10" d="M102.177 87.745l1.632 43.04M90.007 88.373l2.02 41.393"/>
        <path fill="#ff8080" d="M116.683 80.384c.52 2.323.348 11.204 0 13.518-.122.807-5.428-.807-9.84-.473-4.418.333-8.615 2.254-9.314 2.359-1.704.258-8.686-1.872-12.472-1.74-3.088.109-6.801 1.586-6.801.625 0-1.097-1.544-12.642-1.45-14.29.09-1.543 39.438-1.918 39.877 0z"/>
        <path fill="url(#linearGradient1019)" stroke="#000" stroke-miterlimit="10" d="M116.683 80.384c.52 2.323.348 11.204 0 13.518-.122.807-5.428-.807-9.84-.473-4.418.333-8.615 2.254-9.314 2.359-1.704.258-8.686-1.872-12.472-1.74-3.088.109-6.801 1.586-6.801.625 0-1.097-1.544-12.642-1.45-14.29.09-1.543 39.438-1.918 39.877 0z"/>
        <path fill="#f55" stroke="#000" stroke-miterlimit="10" d="M104.782 178.959s-4.557 51.762-5.188 52.603c-.625.837-3.794-.097-3.794-.097l7.413-52.707z"/>
        <path fill="#ff8080" d="M104.782 178.959s-6.455 51.399-7.47 52.496c-1.015 1.099-26.784-6.834-26.636-8.015.15-1.182 6.444-51.394 6.444-51.394z"/>
        <path fill="url(#linearGradient1042)" stroke="#000" stroke-miterlimit="10" d="M104.782 178.959s-6.455 51.399-7.47 52.496c-1.015 1.099-26.784-6.834-26.636-8.015.15-1.182 6.444-51.394 6.444-51.394z"/>
        <path fill="#f55" stroke="#000" stroke-miterlimit="10" d="M109.81 156.292s2.067.166 2.636 1.226c.569 1.053-3.136 22.868-3.87 24.062-.74 1.192-3.01-.13-3.01-.13z"/>
        <path fill="#ff8080" d="M111.385 156.8c-.364-.82-15.261-2.162-21.85-3.616-4.814-1.058-8.476-2.62-9.274-1.887-.938.859-.925 6.903-1.885 11.944-.97 5.097-2.91 9.197-2.513 9.277.784.156 30.596 9.875 31.276 9.116 1.262-1.414 4.87-23.418 4.246-24.833z"/>
        <path fill="url(#linearGradient1065)" stroke="#000" stroke-miterlimit="10" d="M111.385 156.8c-.364-.82-15.261-2.162-21.85-3.616-4.814-1.058-8.476-2.62-9.274-1.887-.938.859-.925 6.903-1.885 11.944-.97 5.097-2.91 9.197-2.513 9.277.784.156 30.596 9.875 31.276 9.116 1.262-1.414 4.87-23.418 4.246-24.833z"/>
        <circle cx="96.647" cy="91.573" r="2.356" fill="#ffe680"/>
        <circle cx="96.647" cy="91.573" r="2.356" fill="url(#radialGradient1088)" stroke="#000" stroke-miterlimit="10"/>
        <path fill="#ff2a2a" stroke="#000" stroke-miterlimit="10" d="M187.292 212.013s.002 1.276 2.875 3.155c.723.47.788.834 2.167 1.17 1.766.437 3.707-.043 7 0 13.54.184 13.21-2.387 13.21-2.387s-5.591-4.16-13.71-4.783c-8.12-.623-11.542 2.845-11.542 2.845z"/>
        <path fill="#ff8080" d="M186.625 34.874s1.343-.151 2.318 1.345c1.13 1.743 2.01 5.3 3.617 7.415 1.89 2.508 4.218 4.3 4.4 5.342.162.938 5.717 27.502 7.546 45.109.27 2.685 3.197 25.36 3.769 32.693.546 7.029 3.116 33.933 3.46 39.617 1.492 25.234 1.234 47.036.809 47.557-.697.85-5.236-1.738-11.032-2.77-5.932-1.063-13.543-.042-14.22.83-.73.942-.827-34.518-3.22-63.7-.86-10.437-3.32-20.001-4.612-27.507-1.726-10.08-2.237-16.394-2.431-15.628-.138.504-.658-26.303 2.176-46.927 1.779-12.968 7.42-23.376 7.42-23.376z"/>
        <path fill="url(#linearGradient1111)" stroke="#000" stroke-miterlimit="10" d="M186.625 34.874s1.343-.151 2.318 1.345c1.13 1.743 2.01 5.3 3.617 7.415 1.89 2.508 4.218 4.3 4.4 5.342.162.938 5.717 27.502 7.546 45.109.27 2.685 3.197 25.36 3.769 32.693.546 7.029 3.116 33.933 3.46 39.617 1.492 25.234 1.234 47.036.809 47.557-.697.85-5.236-1.738-11.032-2.77-5.932-1.063-13.543-.042-14.22.83-.73.942-.827-34.518-3.22-63.7-.86-10.437-3.32-20.001-4.612-27.507-1.726-10.08-2.237-16.394-2.431-15.628-.138.504-.658-26.303 2.176-46.927 1.779-12.968 7.42-23.376 7.42-23.376z"/>
        <path fill="#ff8080" d="M147.467 16.132c.796.89 1.188 3.378 3.065 4.946 2.091 1.754 6.956 3.29 15.205 6.957 7.66 3.394 20.145 5.259 20.99 6.839.546 1.02-4.53 19.289-5.542 43.026-1.176 27.582-8.512 33.534-7.776 51.866 1.18 29.467 4.395 36.144 6.364 54.104 2.762 25.223 6.01 45.03 5.303 49.983-.17 1.209-3.84 2.962-7.782 5.423-4.048 2.519-8.462 5.75-15.794 7.424-5.53 1.265-12.125 1.296-17.682 1.887-9.327.997-16.648 1.948-17.682 1.06-.572-.487-.867-25.54-1.533-59.058-.525-26.205-.077-83.48-1.167-112.847-.19-5.03 10.178-13.416 15.9-27.898 4.435-11.237 5.183-17.872 6.715-24.875 1.031-4.667.973-9.342 1.416-8.837z"/>
        <path fill="url(#linearGradient1142)" stroke="#000" stroke-miterlimit="10" d="M147.467 16.132c.796.89 1.188 3.378 3.065 4.946 2.091 1.754 6.956 3.29 15.205 6.957 7.66 3.394 20.145 5.259 20.99 6.839.546 1.02-4.53 19.289-5.542 43.026-1.176 27.582-8.512 33.534-7.776 51.866 1.18 29.467 4.395 36.144 6.364 54.104 2.762 25.223 6.01 45.03 5.303 49.983-.17 1.209-3.84 2.962-7.782 5.423-4.048 2.519-8.462 5.75-15.794 7.424-5.53 1.265-12.125 1.296-17.682 1.887-9.327.997-16.648 1.948-17.682 1.06-.572-.487-.867-25.54-1.533-59.058-.525-26.205-.077-83.48-1.167-112.847-.19-5.03 10.178-13.416 15.9-27.898 4.435-11.237 5.183-17.872 6.715-24.875 1.031-4.667.973-9.342 1.416-8.837z"/>
        <path fill="none" stroke="#000" stroke-miterlimit="10" d="M123.422 76.874s12.843-7.958 21.669-14.064c9.278-6.417 15.177-9.588 15.302-10.531.11-.943-6.535-4.911-6.535-5.736 0-.826 9.737-4.293 10.058-5.21.308-.92-8.912-17.8-8.912-17.8M143.622 36.054l10.235 10.488"/>
        <path fill="#f55" stroke="#000" stroke-miterlimit="10" d="M153.857 23.023l5.536 1.769 27.063 9.562-.663 2.577-27.344-9.427z"/>
        <path fill="#ffb380" stroke="#000" stroke-miterlimit="10" d="M158.78 28.348l1.198-3.557 25.566 8.588-1.19 3.56z"/>
        <path fill="#ffe680" fill-opacity=".941" stroke="#000" stroke-miterlimit="10" d="M158.933 25.189c-.194.465-1.215.48-2.265.036-1.063-.446-1.76-1.188-1.565-1.653.202-.465 1.216-.481 2.279-.034 1.049.45 1.745 1.185 1.55 1.65z"/>
        <path fill="#ff8080" d="M140.22 87.17s-2.623 41.662-1.081 43.093c1.415 1.307 30.58-.088 32.146-1.457 1.579-1.368 6.338-40.063 6.338-40.063z"/>
        <path fill="url(#linearGradient1185)" stroke="#000" stroke-miterlimit="10" d="M140.22 87.17s-2.623 41.662-1.081 43.093c1.415 1.307 30.58-.088 32.146-1.457 1.579-1.368 6.338-40.063 6.338-40.063z"/>
        <path fill="none" stroke="#000" stroke-miterlimit="10" d="M153.827 87.745l-1.631 43.04M165.996 88.373l-2.019 41.393"/>
        <path fill="#ff8080" d="M139.328 80.384c-.527 2.323-.354 11.204 0 13.518.115.807 5.427-.807 9.84-.473 4.412.333 8.608 2.254 9.307 2.359 1.71.258 8.687-1.872 12.475-1.74 3.092.109 6.802 1.586 6.802.625 0-1.097 1.54-12.642 1.45-14.29-.095-1.543-39.442-1.918-39.874 0z"/>
        <path fill="url(#linearGradient1228)" stroke="#000" stroke-miterlimit="10" d="M139.328 80.384c-.527 2.323-.354 11.204 0 13.518.115.807 5.427-.807 9.84-.473 4.412.333 8.608 2.254 9.307 2.359 1.71.258 8.687-1.872 12.475-1.74 3.092.109 6.802 1.586 6.802.625 0-1.097 1.54-12.642 1.45-14.29-.095-1.543-39.442-1.918-39.874 0z"/>
        <path fill="#f55" stroke="#000" stroke-miterlimit="10" d="M151.223 178.959s4.553 51.762 5.188 52.603c.624.837 3.8-.097 3.8-.097l-7.422-52.707z"/>
        <path fill="#ff8080" d="M151.223 178.959s6.447 51.399 7.469 52.496c1.02 1.099 26.787-6.834 26.63-8.015-.143-1.182-6.437-51.394-6.437-51.394z"/>
        <path fill="url(#linearGradient1251)" stroke="#000" stroke-miterlimit="10" d="M151.223 178.959s6.447 51.399 7.469 52.496c1.02 1.099 26.787-6.834 26.63-8.015-.143-1.182-6.437-51.394-6.437-51.394z"/>
        <path fill="#f55" stroke="#000" stroke-miterlimit="10" d="M146.186 156.292s-2.06.166-2.621 1.226c-.576 1.053 3.124 22.868 3.863 24.062.738 1.192 3.003-.13 3.003-.13z"/>
        <path fill="#ff8080" d="M144.619 156.8c.369-.82 15.26-2.162 21.849-3.616 4.808-1.058 8.48-2.62 9.269-1.887.938.859.925 6.903 1.887 11.944.974 5.097 2.914 9.197 2.52 9.277-.786.156-30.6 9.875-31.278 9.116-1.27-1.414-4.872-23.418-4.247-24.833z"/>
        <path fill="url(#linearGradient1274)" stroke="#000" stroke-miterlimit="10" d="M144.619 156.8c.369-.82 15.26-2.162 21.849-3.616 4.808-1.058 8.48-2.62 9.269-1.887.938.859.925 6.903 1.887 11.944.974 5.097 2.914 9.197 2.52 9.277-.786.156-30.6 9.875-31.278 9.116-1.27-1.414-4.872-23.418-4.247-24.833z"/>
        <path fill="#ffe680" d="M134.407 81.043a3.775 3.775 0 0 1-3.773 3.772 3.771 3.771 0 0 1-3.773-3.772 3.774 3.774 0 0 1 7.546 0zM134.407 106.386a3.773 3.773 0 0 1-7.546 0 3.768 3.768 0 0 1 3.773-3.771 3.772 3.772 0 0 1 3.773 3.77z"/>
        <circle cx="131.106" cy="131.73" r="3.773" fill="#ffe680"/>
        <path fill="#ffe680" d="M134.879 157.073a3.771 3.771 0 0 1-3.773 3.772 3.771 3.771 0 0 1 0-7.541 3.771 3.771 0 0 1 3.773 3.769zM161.712 91.573a2.353 2.353 0 0 1-2.358 2.358 2.362 2.362 0 0 1-2.358-2.358 2.362 2.362 0 0 1 2.358-2.358 2.353 2.353 0 0 1 2.358 2.358z"/>
        <path fill="url(#radialGradient1379)" stroke="#000" stroke-miterlimit="10" d="M134.407 81.043a3.775 3.775 0 0 1-3.773 3.772 3.771 3.771 0 0 1-3.773-3.772 3.774 3.774 0 0 1 7.546 0z"/>
        <path fill="url(#radialGradient1381)" stroke="#000" stroke-miterlimit="10" d="M134.407 106.386a3.773 3.773 0 0 1-7.546 0 3.768 3.768 0 0 1 3.773-3.771 3.772 3.772 0 0 1 3.773 3.77z"/>
        <circle cx="131.106" cy="131.73" r="3.773" fill="url(#radialGradient1383)" stroke="#000" stroke-miterlimit="10"/>
        <path fill="url(#radialGradient1385)" stroke="#000" stroke-miterlimit="10" d="M134.879 157.073a3.771 3.771 0 0 1-3.773 3.772 3.771 3.771 0 0 1 0-7.541 3.771 3.771 0 0 1 3.773 3.769z"/>
        <path fill="url(#radialGradient1387)" stroke="#000" stroke-miterlimit="10" d="M161.712 91.573a2.353 2.353 0 0 1-2.358 2.358 2.362 2.362 0 0 1-2.358-2.358 2.362 2.362 0 0 1 2.358-2.358 2.353 2.353 0 0 1 2.358 2.358z"/>
        <path fill="#ffb380" stroke="#000" stroke-miterlimit="10" d="M155.081 26.756l8.305 15.954-7.666 4.161-7.695-16.106 1.563-6.368z"/>
        <path fill="#e6e6e6" stroke="#000" stroke-miterlimit="10" stroke-width=".5" d="M153.67 28.801a1.882 1.882 0 1 1-3.765 0 1.883 1.883 0 0 1 3.765 0z"/>
        <path fill="#e6e6e6" stroke="#000" stroke-linejoin="round" stroke-miterlimit="10" stroke-width=".25" d="M153.668 33.207s2.64 5.935 3.105 5.68c.468-.251-3.105-5.68-3.105-5.68z"/>
        <path fill="#e6e6e6" stroke="#000" stroke-linejoin="round" stroke-miterlimit="10" stroke-width=".25" d="M154.512 29.225s-1.817 4.145-.405 4.276c1.409.135.405-4.276.405-4.276zM150.426 32.796s4.472.704 3.825 1.968c-.643 1.258-3.825-1.968-3.825-1.968z"/>
        <path fill="#e6e6e6" stroke="#000" stroke-linejoin="round" stroke-miterlimit="10" stroke-width=".25" d="M155.67 31.346s-1.817 4.142-.406 4.273c1.41.137.406-4.273.406-4.273zM151.585 34.915s4.47.704 3.825 1.97c-.644 1.258-3.825-1.97-3.825-1.97z"/>
        <path fill="#e6e6e6" stroke="#000" stroke-linejoin="round" stroke-miterlimit="10" stroke-width=".25" d="M156.828 33.466s-1.816 4.139-.406 4.274c1.411.137.406-4.274.406-4.274zM152.742 37.035s4.472.705 3.825 1.968c-.642 1.261-3.825-1.968-3.825-1.968z"/>
        <path fill="#ee468a" stroke="#010101" stroke-width=".25" d="M158.599 40.648l-1.472-1.344.319 1.974z"/>
        <path fill="#ee4689" stroke="#010101" stroke-width=".25" d="M160.311 39.72l-1.712.928.883.799z"/>
        <path fill="#ee468a" stroke="#010101" stroke-width=".25" d="M161.037 42.863l-1.555-1.416-.562 1.152z"/>
        <path fill="#ee4689" stroke="#010101" stroke-width=".25" d="M157.99 44.516l-.342-2.053 1.272.136zM155.698 42.235l1.95.228-.202-1.185z"/>
        <path fill="#ffb380" stroke="#000" stroke-miterlimit="10" d="M100.916 26.756L92.618 42.71l7.669 4.161 7.698-16.106-1.569-6.368z"/>
        <path fill="#e6e6e6" stroke="#000" stroke-miterlimit="10" stroke-width=".5" d="M102.331 28.801c0 1.042.846 1.883 1.887 1.883a1.884 1.884 0 1 0 0-3.769 1.885 1.885 0 0 0-1.887 1.886z"/>
        <path fill="#e6e6e6" stroke="#000" stroke-linejoin="round" stroke-miterlimit="10" stroke-width=".25" d="M102.333 33.207s-2.638 5.935-3.104 5.68c-.468-.251 3.104-5.68 3.104-5.68z"/>
        <path fill="#e6e6e6" stroke="#000" stroke-linejoin="round" stroke-miterlimit="10" stroke-width=".25" d="M101.493 29.225s1.824 4.145.412 4.276c-1.409.135-.412-4.276-.412-4.276zM105.571 32.796s-4.466.704-3.818 1.968c.645 1.258 3.818-1.968 3.818-1.968z"/>
        <path fill="#e6e6e6" stroke="#000" stroke-linejoin="round" stroke-miterlimit="10" stroke-width=".25" d="M100.334 31.346s1.822 4.142.413 4.273c-1.41.137-.413-4.273-.413-4.273zM104.412 34.915s-4.47.704-3.818 1.97c.644 1.258 3.818-1.97 3.818-1.97z"/>
        <path fill="#e6e6e6" stroke="#000" stroke-linejoin="round" stroke-miterlimit="10" stroke-width=".25" d="M99.176 33.466s1.818 4.139.409 4.274c-1.409.137-.409-4.274-.409-4.274zM103.254 37.035s-4.471.705-3.818 1.968c.644 1.261 3.818-1.968 3.818-1.968z"/>
        <path fill="#ee468a" stroke="#010101" stroke-width=".25" d="M97.398 40.648l1.482-1.344-.33 1.974z"/>
        <path fill="#ee4689" stroke="#010101" stroke-width=".25" d="M95.693 39.72l1.705.928-.871.799z"/>
        <path fill="#ee468a" stroke="#010101" stroke-width=".25" d="M94.967 42.863l1.56-1.416.556 1.152z"/>
        <path fill="#ee4689" stroke="#010101" stroke-width=".25" d="M98.013 44.516l.341-2.053-1.271.136zM100.306 42.235l-1.952.228.196-1.185z"/>
    </g>
    <g>
        <path fill="#414042" stroke="#000" stroke-miterlimit="10" stroke-width=".166" d="M76.717 72.353l40.779-.919.12 5.305-40.78.919z"/>
        <path fill="#3971c6" d="M155.85 74.097l1.977.024-.032 2.729-1.977-.024z"/>
        <path fill="#d75086" d="M157.827 74.105l1.977.023-.032 2.728-1.977-.023z"/>
        <path fill="#674a95" d="M162.946 74.16l1.985.023-.032 2.728-1.985-.024z"/>
        <path fill="#777" d="M160.963 74.154l1.985.024-.034 2.728-1.985-.024z"/>
        <path fill="#c4c4c4" d="M159.805 74.136l1.152.014-.032 2.71-1.152-.013z"/>
        <g fill="#231f20" opacity=".25">
            <g>
                <path d="M155.811 76.636l9.091.11v.091l-9.092-.11zM155.81 76.416l9.091.111-.001.09-9.091-.111zM155.813 76.189l9.092.112-.001.09-9.092-.112zM155.814 75.962l9.09.11v.092l-9.09-.111zM155.822 75.727l9.09.111-.001.09-9.09-.11zM155.818 75.515l9.09.112v.09l-9.092-.112zM155.824 75.279l9.092.112-.001.09-9.092-.111zM155.824 75.058l9.09.113v.091l-9.091-.113zM155.827 74.832l9.09.112v.09l-9.092-.112zM155.83 74.605l9.09.112v.09l-9.091-.113zM155.833 74.377l9.09.113v.091l-9.091-.113zM155.84 74.136l9.091.11v.092l-9.092-.111z"/>
            </g>
            <g>
                <path d="M155.811 76.636l9.091.11v.091l-9.092-.11zM155.81 76.416l9.091.111-.001.09-9.091-.111zM155.813 76.189l9.092.112-.001.09-9.092-.112zM155.814 75.962l9.09.11v.092l-9.09-.111zM155.822 75.727l9.09.111-.001.09-9.09-.11zM155.818 75.515l9.09.112v.09l-9.092-.112zM155.824 75.279l9.092.112-.001.09-9.092-.111zM155.824 75.058l9.09.113v.091l-9.091-.113zM155.827 74.832l9.09.112v.09l-9.092-.112zM155.83 74.605l9.09.112v.09l-9.091-.113zM155.833 74.377l9.09.113v.091l-9.091-.113zM155.84 74.136l9.091.11v.092l-9.092-.111z"/>
            </g>
        </g>
        <path fill="none" stroke="#231f20" stroke-linejoin="round" stroke-miterlimit="10" stroke-width=".25" d="M155.843 74.067l9.091.111-.033 2.727-9.091-.111z"/>
        <path fill="#3971c6" d="M146.687 73.965l4.51.055-.034 2.728-4.509-.055z"/>
        <path fill="#d75086" d="M151.196 74.02l4.584.055-.033 2.728-4.584-.056z"/>
        <g fill="#231f20" opacity=".25">
            <g>
                <path d="M146.618 76.537l9.091.113-.001.09-9.091-.113zM146.619 76.31l9.092.113-.001.09-9.092-.111zM146.621 76.085l9.092.11-.002.092-9.09-.111zM146.626 75.855l9.09.112v.092l-9.09-.112zM146.625 75.636l9.09.113v.09l-9.091-.112zM146.63 75.402l9.091.112v.09l-9.093-.111zM146.633 75.174l9.091.112v.091l-9.092-.112zM146.632 74.954l9.091.113-.001.09-9.091-.112zM146.64 74.72l9.09.112v.091l-9.092-.111zM146.642 74.494l9.09.11-.001.092-9.09-.111zM146.647 74.26l9.092.11-.002.091-9.09-.11zM146.648 74.037l9.091.112v.091l-9.092-.112z"/>
            </g>
            <g>
                <path d="M146.618 76.537l9.091.113-.001.09-9.091-.113zM146.619 76.31l9.092.113-.001.09-9.092-.111zM146.621 76.085l9.092.11-.002.092-9.09-.111zM146.626 75.855l9.09.112v.092l-9.09-.112zM146.625 75.636l9.09.113v.09l-9.091-.112zM146.63 75.402l9.091.112v.09l-9.093-.111zM146.633 75.174l9.091.112v.091l-9.092-.112zM146.632 74.954l9.091.113-.001.09-9.091-.112zM146.64 74.72l9.09.112v.091l-9.092-.111zM146.642 74.494l9.09.11-.001.092-9.09-.111zM146.647 74.26l9.092.11-.002.091-9.09-.11zM146.648 74.037l9.091.112v.091l-9.092-.112z"/>
            </g>
        </g>
        <path fill="none" stroke="#231f20" stroke-linejoin="round" stroke-miterlimit="10" stroke-width=".25" d="M146.684 73.972l9.093.111-.034 2.728-9.092-.11z"/>
        <path fill="#785000" d="M149.984 75.139l-1.057.224.536.288z"/>
        <path fill="#ab8317" d="M149.984 75.139l-.72-.124-.337.348z"/>
        <path fill="#ab8317" d="M149.264 75.015l-.337.348.011-1.004z"/>
        <path fill="#deb64a" d="M148.597 75.006l.33.357.011-1.004zM148.927 75.363l-1.053-.249.723-.108z"/>
        <path fill="#ab8317" d="M148.927 75.363l-1.053-.249.51.524z"/>
        <path fill="#ab8317" d="M148.261 76.361l.666-.998-.543.275z"/>
        <path fill="#785000" d="M148.927 75.363l-.008.674-.658.324z"/>
        <path fill="#785000" d="M148.927 75.363l-.008.674.647.339zM149.463 75.651l-.536-.288.639 1.013z"/>
        <path fill="none" stroke="#231f20" stroke-linejoin="round" stroke-miterlimit="10" stroke-width=".091" d="M147.874 75.114l.723-.108.341-.647.326.656.72.124-.521.512.103.725-.647-.339-.658.324.123-.723z"/>
        <path fill="#785000" d="M151.181 75.392l.536.288.523-.513z"/>
        <path fill="#ab8317" d="M151.52 75.043l-.339.349 1.059-.225zM151.181 75.392l.013-1.005.326.656z"/>
        <path fill="#deb64a" d="M151.181 75.392l.013-1.005-.34.647zM150.128 75.141l.726-.107.327.358z"/>
        <path fill="#ab8317" d="M150.128 75.141l.51.525.543-.274zM151.181 75.392l-.543.274-.122.722z"/>
        <path fill="#785000" d="M151.172 76.063l-.656.325.665-.996zM151.172 76.063l.649.34-.64-1.011zM151.181 75.392l.64 1.011-.104-.723z"/>
        <path fill="none" stroke="#231f20" stroke-linejoin="round" stroke-miterlimit="10" stroke-width=".091" d="M150.638 75.666l-.51-.525.726-.107.34-.647.326.656.72.124-.523.513.104.723-.649-.34-.656.325z"/>
        <path fill="#785000" d="M154.009 75.707l.522-.512-1.058.224z"/>
        <path fill="#ab8317" d="M153.473 75.419l1.058-.224-.721-.125z"/>
        <path fill="#ab8317" d="M153.485 74.415l.325.655-.337.349z"/>
        <path fill="#deb64a" d="M153.485 74.415l-.341.647.329.357z"/>
        <path fill="#deb64a" d="M153.144 75.062l.329.357-1.055-.25z"/>
        <path fill="#ab8317" d="M152.929 75.695l.544-.276-1.055-.25z"/>
        <path fill="#ab8317" d="M152.929 75.695l-.122.721.666-.997z"/>
        <path fill="#785000" d="M152.807 76.416l.666-.997-.01.673z"/>
        <path fill="#785000" d="M154.112 76.432l-.639-1.013-.01.673z"/>
        <path fill="#785000" d="M154.112 76.432l-.103-.725-.536-.288z"/>
        <path fill="none" stroke="#231f20" stroke-linejoin="round" stroke-miterlimit="10" stroke-width=".091" d="M152.807 76.416l.122-.721-.511-.526.726-.107.341-.647.325.655.721.125-.522.512.103.725-.649-.34z"/>
        <path fill="#e6e7e8" d="M165.002 74.18l9.093.112-.034 2.727-9.092-.111z"/>
        <path fill="#3971c6" d="M165.013 74.193l1.136.014-.034 2.727-1.136-.014zM172.952 74.283l1.139.014-.033 2.728-1.139-.014z"/>
        <g fill="#231f20" opacity=".25">
            <g>
                <path d="M164.967 76.756l9.092.112-.001.09-9.093-.112zM164.969 76.53l9.091.111-.001.09-9.091-.11zM164.973 76.302l9.091.111-.001.091-9.091-.11zM164.972 76.081l9.091.113v.09l-9.092-.113zM164.978 75.847l9.092.112-.001.09-9.093-.112zM164.985 75.61l9.091.112v.09l-9.092-.11zM164.98 75.4l9.092.113-.002.09-9.09-.113zM164.989 75.163l9.09.113v.09l-9.092-.112zM164.99 74.937l9.09.111v.091l-9.091-.111zM164.994 74.702l9.092.111-.001.091-9.092-.11zM164.998 74.475l9.091.111-.001.091-9.091-.11zM165.002 74.248l9.09.11v.092l-9.09-.111z"/>
            </g>
            <g>
                <path d="M164.967 76.756l9.092.112-.001.09-9.093-.112zM164.969 76.53l9.091.111-.001.09-9.091-.11zM164.973 76.302l9.091.111-.001.091-9.091-.11zM164.972 76.081l9.091.113v.09l-9.092-.113zM164.978 75.847l9.092.112-.001.09-9.093-.112zM164.985 75.61l9.091.112v.09l-9.092-.11zM164.98 75.4l9.092.113-.002.09-9.09-.113zM164.989 75.163l9.09.113v.09l-9.092-.112zM164.99 74.937l9.09.111v.091l-9.091-.111zM164.994 74.702l9.092.111-.001.091-9.092-.11zM164.998 74.475l9.091.111-.001.091-9.091-.11zM165.002 74.248l9.09.11v.092l-9.09-.111z"/>
            </g>
        </g>
        <path fill="none" stroke="#231f20" stroke-linejoin="round" stroke-miterlimit="10" stroke-width=".25" d="M165.002 74.18l9.093.112-.034 2.727-9.092-.111z"/>
        <g fill="#e6e7e8">
            <path d="M88.543 73.158l.487-.008.81 2.491.724-2.518.487-.009-.986 3.212-.426.007zM91.99 76.181a.983.983 0 0 1-.401-.407 1.313 1.313 0 0 1-.15-.615l-.015-.905a1.323 1.323 0 0 1 .129-.622.995.995 0 0 1 .387-.42c.168-.1.363-.152.586-.156.223-.004.42.042.591.136.171.095.306.23.402.407.096.176.146.382.15.616l.016.906c.004.234-.039.441-.129.62a.995.995 0 0 1-.387.42 1.155 1.155 0 0 1-.586.156 1.165 1.165 0 0 1-.593-.136zm.931-.401a.603.603 0 0 0 .229-.257.836.836 0 0 0 .076-.38l-.016-.936a.836.836 0 0 0-.088-.378.615.615 0 0 0-.588-.332.674.674 0 0 0-.346.094.609.609 0 0 0-.229.257.826.826 0 0 0-.075.38l.015.936c.002.144.032.27.089.377a.606.606 0 0 0 .237.249.682.682 0 0 0 .35.083c.13 0 .246-.032.346-.093zM94.374 73.058l.448-.008.055 3.194-.449.008zm.271 2.764l1.828-.031.007.426-1.828.032zM96.953 73.014l.448-.008.054 3.194-.448.008zm.382 1.786l1.379-1.816.552-.009-1.986 2.5zm.527-.312l.349-.333 1.245 2.011-.549.009zM100.272 76.04a.995.995 0 0 1-.401-.407 1.313 1.313 0 0 1-.15-.615l-.016-.906a1.319 1.319 0 0 1 .129-.621.999.999 0 0 1 .387-.419c.168-.101.363-.152.586-.156.223-.004.42.041.591.136a.99.99 0 0 1 .401.407c.096.176.146.382.15.616l.015.905c.004.234-.039.441-.129.621a.983.983 0 0 1-.388.419 1.156 1.156 0 0 1-.586.157 1.158 1.158 0 0 1-.589-.137zm.931-.401a.615.615 0 0 0 .229-.257.826.826 0 0 0 .076-.38l-.015-.936a.829.829 0 0 0-.089-.377.606.606 0 0 0-.237-.249.684.684 0 0 0-.35-.083.672.672 0 0 0-.347.095.606.606 0 0 0-.229.256.827.827 0 0 0-.075.381l.016.936c.002.144.031.27.088.378a.615.615 0 0 0 .588.332.687.687 0 0 0 .345-.096zM102.283 72.923l.487-.008.81 2.492.724-2.518.487-.008-.987 3.212-.426.007z"/>
        </g>
    </g>
</svg>
