<svg xmlns="http://www.w3.org/2000/svg" xmlns:xlink="http://www.w3.org/1999/xlink" viewBox="0 0 256 256">
    <defs>
        <linearGradient id="innoGrad22">
            <stop offset="0" stop-color="#ff2a2a" stop-opacity="0"/>
            <stop offset=".334" stop-color="#ff2a2a" stop-opacity=".251"/>
            <stop offset=".429" stop-color="#ff2a2a" stop-opacity="0"/>
            <stop offset=".63" stop-color="#ff2a2a" stop-opacity=".125"/>
            <stop offset=".706" stop-color="#ff2a2a" stop-opacity=".251"/>
            <stop offset="1" stop-color="#ff2a2a" stop-opacity=".502"/>
        </linearGradient>
        <linearGradient id="innoGrad3">
            <stop offset="0" stop-color="#ffe680" stop-opacity="0"/>
            <stop offset="1" stop-color="#ffd42a" stop-opacity=".502"/>
        </linearGradient>
        <linearGradient id="innoGrad2">
            <stop offset="0" stop-color="#ff2a2a" stop-opacity=".502"/>
            <stop offset=".294" stop-color="#ff2a2a" stop-opacity=".251"/>
            <stop offset=".37" stop-color="#ff2a2a" stop-opacity=".125"/>
            <stop offset=".571" stop-color="#ff2a2a" stop-opacity="0"/>
            <stop offset=".666" stop-color="#ff2a2a" stop-opacity=".251"/>
            <stop offset="1" stop-color="#ff2a2a" stop-opacity="0"/>
        </linearGradient>
        <linearGradient id="innoGrad12">
            <stop offset="0" stop-color="#ff2a2a" stop-opacity=".502"/>
            <stop offset="1" stop-color="#ff2a2a" stop-opacity="0"/>
        </linearGradient>
        <linearGradient id="innoGrad1">
            <stop offset="0" stop-color="#ff2a2a" stop-opacity="0"/>
            <stop offset="1" stop-color="#ff2a2a" stop-opacity=".502"/>
        </linearGradient>
        <linearGradient id="linearGradient924" x1="56.186" x2="79.601" y1="124.496" y2="124.496" gradientUnits="userSpaceOnUse" xlink:href="#innoGrad1"/>
        <linearGradient id="linearGradient949" x1="68.83" x2="133.173" y1="133.049" y2="133.049" gradientUnits="userSpaceOnUse" xlink:href="#innoGrad12"/>
        <linearGradient id="linearGradient980" x1="77.814" x2="117.848" y1="108.968" y2="108.968" gradientUnits="userSpaceOnUse" xlink:href="#innoGrad2"/>
        <linearGradient id="linearGradient1019" x1="76.302" x2="117.513" y1="87.448" y2="87.448" gradientUnits="userSpaceOnUse" xlink:href="#innoGrad12"/>
        <linearGradient id="linearGradient1042" x1="70.174" x2="95.8" y1="222.643" y2="231.465" gradientUnits="userSpaceOnUse" xlink:href="#innoGrad12"/>
        <linearGradient id="linearGradient1065" x1="77.12" x2="105.566" y1="172.046" y2="181.451" gradientUnits="userSpaceOnUse" xlink:href="#innoGrad12"/>
        <radialGradient id="radialGradient1088" cx="97.325" cy="90.759" r="2.856" fx="97.325" fy="90.759" gradientUnits="userSpaceOnUse" xlink:href="#innoGrad3"/>
        <linearGradient id="linearGradient1111" x1="176.402" x2="199.815" y1="124.496" y2="124.496" gradientUnits="userSpaceOnUse" xlink:href="#innoGrad12"/>
        <linearGradient id="linearGradient1142" x1="122.934" x2="187.276" y1="133.926" y2="133.926" gradientTransform="translate(0 -.877)" gradientUnits="userSpaceOnUse" xlink:href="#innoGrad1"/>
        <linearGradient id="linearGradient1185" x1="138.153" x2="178.185" y1="108.968" y2="108.968" gradientUnits="userSpaceOnUse" xlink:href="#innoGrad22"/>
        <linearGradient id="linearGradient1228" x1="138.494" x2="179.707" y1="87.448" y2="87.448" gradientUnits="userSpaceOnUse" xlink:href="#innoGrad1"/>
        <linearGradient id="linearGradient1251" x1="160.212" x2="184.674" y1="231.465" y2="223.41" gradientUnits="userSpaceOnUse" xlink:href="#innoGrad1"/>
        <linearGradient id="linearGradient1274" x1="150.431" x2="178.885" y1="181.451" y2="172.046" gradientUnits="userSpaceOnUse" xlink:href="#innoGrad1"/>
        <radialGradient id="radialGradient1379" cx="130.634" cy="79.144" r="4.273" fx="130.634" fy="79.144" gradientTransform="matrix(1 0 0 .99988 0 .01)" gradientUnits="userSpaceOnUse" xlink:href="#innoGrad3"/>
        <radialGradient id="radialGradient1381" cx="130.634" cy="104.488" r="4.273" fx="130.634" fy="104.488" gradientTransform="matrix(1 0 0 .99965 0 .037)" gradientUnits="userSpaceOnUse" xlink:href="#innoGrad3"/>
        <radialGradient id="radialGradient1383" cx="131.242" cy="130.103" r="4.273" fx="131.242" fy="130.103" gradientUnits="userSpaceOnUse" xlink:href="#innoGrad3"/>
        <radialGradient id="radialGradient1385" cx="131.242" cy="155.311" r="4.273" fx="131.242" fy="155.311" gradientTransform="matrix(1 0 0 .99941 0 .092)" gradientUnits="userSpaceOnUse" xlink:href="#innoGrad3"/>
        <radialGradient id="radialGradient1387" cx="158.54" cy="91.437" r="2.858" fx="158.54" fy="91.437" gradientUnits="userSpaceOnUse" xlink:href="#innoGrad3"/>
    </defs>
    <g stroke="#000" stroke-miterlimit="10">
        <path fill="#ff2a2a" d="M108.632 16.132S106.703 10 126.861 10c20.158 0 20.504 6.092 20.504 6.092l-4.108 60.781h-30.509z"/>
        <path fill="#f55" d="M146.781 19.588s-.71-3.931-18.806-4.014c-18.088-.076-18.752 4.014-18.752 4.014l-.591-3.456s-.268-6.129 18.81-6.129 19.923 6.09 19.923 6.09z"/>
    </g>
    <g>
        <path fill="#ff2a2a" stroke="#000" stroke-miterlimit="10" d="M68.712 212.013s-.341.227-3.223 2.105c-.719.471-1.285.546-2.656.883-1.77.436-3.13.745-6.412 1.053-13.649 1.28-12.967-2.103-12.967-2.103s4.554-7.998 12.625-8.617c8.071-.619 12.633 6.679 12.633 6.679z"/>
        <path fill="#ff8080" d="M69.378 34.874s-1.342-.151-2.317 1.345c-1.131 1.743-2.018 5.301-3.614 7.415-1.896 2.508-4.218 4.301-4.403 5.342-.164.938-5.725 27.502-7.542 45.109-.28 2.685-3.202 25.36-3.773 32.693-.548 7.029-3.119 33.933-3.457 39.617-1.501 25.234-1.24 47.036-.817 47.557.699.85 5.246-1.738 11.031-2.769 5.942-1.064 13.549-.043 14.226.83.729.941.831-34.519 3.221-63.7.855-10.438 3.319-20.002 4.608-27.508 1.729-10.079 2.24-16.394 2.435-15.628.13.504.664-26.303-2.172-46.927-1.785-12.968-7.426-23.376-7.426-23.376z"/>
        <path fill="url(#linearGradient924)" stroke="#000" stroke-miterlimit="10" d="M69.378 34.874s-1.342-.151-2.317 1.345c-1.131 1.743-2.018 5.301-3.614 7.415-1.896 2.508-4.218 4.301-4.403 5.342-.164.938-5.725 27.502-7.542 45.109-.28 2.685-3.202 25.36-3.773 32.693-.548 7.029-3.119 33.933-3.457 39.617-1.501 25.234-1.24 47.036-.817 47.557.699.85 5.246-1.738 11.031-2.769 5.942-1.064 13.549-.043 14.226.83.729.941.831-34.519 3.221-63.7.855-10.438 3.319-20.002 4.608-27.508 1.729-10.079 2.24-16.394 2.435-15.628.13.504.664-26.303-2.172-46.927-1.785-12.968-7.426-23.376-7.426-23.376z"/>
        <path fill="#ff8080" d="M108.632 16.132c-.789.89-1.188 3.378-3.065 4.946-2.091 1.754-6.942 3.291-15.205 6.957-7.65 3.394-20.14 5.259-20.983 6.839-.543 1.021 4.529 19.289 5.542 43.026 1.179 27.582 8.511 33.534 7.781 51.866-1.178 29.467-4.4 36.144-6.366 54.104-2.764 25.223-6.014 45.031-5.306 49.983.176 1.209 3.835 2.962 7.783 5.423 4.041 2.519 8.46 5.751 15.794 7.424 5.529 1.265 12.122 1.296 17.681 1.887 9.327.997 16.648 1.948 17.689 1.061.565-.488.859-25.541 1.526-59.059.523-26.205.079-83.48 1.167-112.847.184-5.029-10.187-13.416-15.901-27.898-4.434-11.237-5.183-17.872-6.722-24.875-1.023-4.667-.97-9.342-1.415-8.837z"/>
        <path fill="url(#linearGradient949)" stroke="#000" stroke-miterlimit="10" d="M108.632 16.132c-.789.89-1.188 3.378-3.065 4.946-2.091 1.754-6.942 3.291-15.205 6.957-7.65 3.394-20.14 5.259-20.983 6.839-.543 1.021 4.529 19.289 5.542 43.026 1.179 27.582 8.511 33.534 7.781 51.866-1.178 29.467-4.4 36.144-6.366 54.104-2.764 25.223-6.014 45.031-5.306 49.983.176 1.209 3.835 2.962 7.783 5.423 4.041 2.519 8.46 5.751 15.794 7.424 5.529 1.265 12.122 1.296 17.681 1.887 9.327.997 16.648 1.948 17.689 1.061.565-.488.859-25.541 1.526-59.059.523-26.205.079-83.48 1.167-112.847.184-5.029-10.187-13.416-15.901-27.898-4.434-11.237-5.183-17.872-6.722-24.875-1.023-4.667-.97-9.342-1.415-8.837z"/>
        <path fill="none" stroke="#000" stroke-miterlimit="10" d="M132.576 76.874s-12.836-7.958-21.663-14.064c-9.28-6.417-15.185-9.588-15.302-10.531-.117-.943 6.542-4.911 6.542-5.736 0-.826-9.745-4.293-10.063-5.209-.314-.921 8.911-17.8 8.911-17.8M112.335 35.864l-10.182 10.678"/>
        <path fill="#f55" stroke="#000" stroke-miterlimit="10" d="M102.153 23.023l-5.542 1.769-27.057 9.562.65 2.577 27.35-9.427z"/>
        <path fill="#ffb380" stroke="#000" stroke-miterlimit="10" stroke-width=".99998" d="M97.23 28.351l-25.574 8.593-1.195-3.557 25.574-8.593z"/>
        <path fill="#ffe680" stroke="#000" stroke-miterlimit="10" d="M97.071 25.189c.195.465 1.215.481 2.271.036 1.056-.446 1.753-1.188 1.552-1.653-.195-.465-1.208-.481-2.265-.034-1.056.451-1.752 1.185-1.558 1.651z"/>
        <path fill="#ff8080" d="M115.783 87.171s2.625 41.661 1.075 43.092c-1.415 1.307-30.574-.088-32.145-1.457-1.566-1.368-6.336-40.063-6.336-40.063z"/>
        <path fill="url(#linearGradient980)" stroke="#000" stroke-miterlimit="10" d="M115.783 87.171s2.625 41.661 1.075 43.092c-1.415 1.307-30.574-.088-32.145-1.457-1.566-1.368-6.336-40.063-6.336-40.063z"/>
        <path fill="none" stroke="#000" stroke-miterlimit="10" d="M102.177 87.745l1.632 43.04M90.007 88.373l2.02 41.393"/>
        <path fill="#ff8080" d="M116.683 80.384c.521 2.323.348 11.204 0 13.518-.122.807-5.428-.807-9.84-.473-4.418.333-8.615 2.254-9.314 2.359-1.704.258-8.686-1.872-12.472-1.739-3.088.108-6.801 1.585-6.801.624 0-1.097-1.544-12.642-1.449-14.29.089-1.543 39.437-1.918 39.876.001z"/>
        <path fill="url(#linearGradient1019)" stroke="#000" stroke-miterlimit="10" d="M116.683 80.384c.521 2.323.348 11.204 0 13.518-.122.807-5.428-.807-9.84-.473-4.418.333-8.615 2.254-9.314 2.359-1.704.258-8.686-1.872-12.472-1.739-3.088.108-6.801 1.585-6.801.624 0-1.097-1.544-12.642-1.449-14.29.089-1.543 39.437-1.918 39.876.001z"/>
        <path fill="#f55" stroke="#000" stroke-miterlimit="10" d="M104.782 178.959s-4.557 51.762-5.188 52.603c-.625.837-3.794-.097-3.794-.097l7.413-52.707z"/>
        <path fill="#ff8080" d="M104.782 178.959s-6.455 51.399-7.469 52.496c-1.016 1.099-26.785-6.834-26.637-8.015.15-1.182 6.444-51.394 6.444-51.394z"/>
        <path fill="url(#linearGradient1042)" stroke="#000" stroke-miterlimit="10" d="M104.782 178.959s-6.455 51.399-7.469 52.496c-1.016 1.099-26.785-6.834-26.637-8.015.15-1.182 6.444-51.394 6.444-51.394z"/>
        <path fill="#f55" stroke="#000" stroke-miterlimit="10" d="M109.811 156.292s2.066.166 2.635 1.226c.569 1.053-3.136 22.868-3.87 24.062-.739 1.192-3.01-.129-3.01-.129z"/>
        <path fill="#ff8080" d="M111.385 156.801c-.364-.82-15.261-2.163-21.85-3.617-4.814-1.058-8.476-2.619-9.274-1.887-.938.859-.925 6.903-1.885 11.944-.969 5.097-2.91 9.197-2.513 9.277.784.156 30.596 9.875 31.276 9.116 1.262-1.414 4.871-23.418 4.246-24.833z"/>
        <path fill="url(#linearGradient1065)" stroke="#000" stroke-miterlimit="10" d="M111.385 156.801c-.364-.82-15.261-2.163-21.85-3.617-4.814-1.058-8.476-2.619-9.274-1.887-.938.859-.925 6.903-1.885 11.944-.969 5.097-2.91 9.197-2.513 9.277.784.156 30.596 9.875 31.276 9.116 1.262-1.414 4.871-23.418 4.246-24.833z"/>
        <circle cx="96.647" cy="91.573" r="2.356" fill="#ffe680"/>
        <circle cx="96.647" cy="91.573" r="2.356" fill="url(#radialGradient1088)" stroke="#000" stroke-miterlimit="10"/>
        <path fill="#ff2a2a" stroke="#000" stroke-miterlimit="10" d="M187.292 212.013s.002 1.276 2.875 3.155c.723.471.788.834 2.167 1.171 1.766.436 3.707-.044 7 0 13.541.183 13.21-2.388 13.21-2.388s-5.591-4.16-13.71-4.783c-8.119-.623-11.542 2.845-11.542 2.845z"/>
        <path fill="#ff8080" d="M186.625 34.874s1.343-.151 2.318 1.345c1.131 1.743 2.01 5.301 3.617 7.415 1.89 2.508 4.218 4.301 4.401 5.342.161.938 5.716 27.502 7.545 45.109.271 2.685 3.197 25.36 3.769 32.693.546 7.029 3.116 33.933 3.46 39.617 1.492 25.234 1.234 47.036.809 47.557-.697.85-5.236-1.738-11.032-2.769-5.932-1.064-13.543-.043-14.22.83-.729.941-.827-34.519-3.219-63.7-.861-10.438-3.321-20.002-4.613-27.508-1.726-10.079-2.237-16.394-2.431-15.628-.138.504-.658-26.303 2.176-46.927 1.779-12.968 7.42-23.376 7.42-23.376z"/>
        <path fill="url(#linearGradient1111)" stroke="#000" stroke-miterlimit="10" d="M186.625 34.874s1.343-.151 2.318 1.345c1.131 1.743 2.01 5.301 3.617 7.415 1.89 2.508 4.218 4.301 4.401 5.342.161.938 5.716 27.502 7.545 45.109.271 2.685 3.197 25.36 3.769 32.693.546 7.029 3.116 33.933 3.46 39.617 1.492 25.234 1.234 47.036.809 47.557-.697.85-5.236-1.738-11.032-2.769-5.932-1.064-13.543-.043-14.22.83-.729.941-.827-34.519-3.219-63.7-.861-10.438-3.321-20.002-4.613-27.508-1.726-10.079-2.237-16.394-2.431-15.628-.138.504-.658-26.303 2.176-46.927 1.779-12.968 7.42-23.376 7.42-23.376z"/>
        <path fill="#ff8080" d="M147.468 16.132c.796.89 1.188 3.378 3.065 4.946 2.09 1.754 6.956 3.29 15.205 6.957 7.659 3.394 20.145 5.259 20.989 6.839.547 1.02-4.53 19.289-5.541 43.026-1.176 27.582-8.512 33.534-7.776 51.866 1.179 29.467 4.395 36.144 6.364 54.104 2.762 25.223 6.01 45.03 5.303 49.983-.17 1.209-3.84 2.962-7.782 5.423-4.048 2.519-8.462 5.75-15.794 7.424-5.53 1.265-12.125 1.296-17.682 1.887-9.327.997-16.648 1.948-17.682 1.06-.572-.487-.867-25.54-1.533-59.058-.525-26.205-.077-83.48-1.167-112.847-.191-5.03 10.178-13.416 15.9-27.898 4.435-11.237 5.183-17.872 6.715-24.875 1.03-4.667.973-9.342 1.416-8.837z"/>
        <path fill="url(#linearGradient1142)" stroke="#000" stroke-miterlimit="10" d="M147.468 16.132c.796.89 1.188 3.378 3.065 4.946 2.09 1.754 6.956 3.29 15.205 6.957 7.659 3.394 20.145 5.259 20.989 6.839.547 1.02-4.53 19.289-5.541 43.026-1.176 27.582-8.512 33.534-7.776 51.866 1.179 29.467 4.395 36.144 6.364 54.104 2.762 25.223 6.01 45.03 5.303 49.983-.17 1.209-3.84 2.962-7.782 5.423-4.048 2.519-8.462 5.75-15.794 7.424-5.53 1.265-12.125 1.296-17.682 1.887-9.327.997-16.648 1.948-17.682 1.06-.572-.487-.867-25.54-1.533-59.058-.525-26.205-.077-83.48-1.167-112.847-.191-5.03 10.178-13.416 15.9-27.898 4.435-11.237 5.183-17.872 6.715-24.875 1.03-4.667.973-9.342 1.416-8.837z"/>
        <path fill="none" stroke="#000" stroke-miterlimit="10" d="M123.422 76.874s12.843-7.958 21.669-14.064c9.278-6.417 15.177-9.588 15.302-10.531.111-.943-6.535-4.911-6.535-5.736 0-.826 9.737-4.293 10.058-5.209.308-.921-8.912-17.8-8.912-17.8M143.622 36.054l10.235 10.488"/>
        <path fill="#f55" stroke="#000" stroke-miterlimit="10" d="M153.857 23.023l5.536 1.769 27.063 9.562-.663 2.577-27.344-9.427z"/>
        <path fill="#ffb380" stroke="#000" stroke-miterlimit="10" d="M158.78 28.348l1.198-3.557 25.566 8.588-1.19 3.561z"/>
        <path fill="#ffe680" fill-opacity=".941" stroke="#000" stroke-miterlimit="10" d="M158.933 25.189c-.194.465-1.215.481-2.265.036-1.063-.446-1.759-1.188-1.565-1.653.202-.465 1.216-.481 2.279-.034 1.049.451 1.745 1.185 1.551 1.651z"/>
        <path fill="#ff8080" d="M140.221 87.171s-2.624 41.661-1.082 43.092c1.415 1.307 30.581-.088 32.146-1.457 1.579-1.368 6.338-40.063 6.338-40.063z"/>
        <path fill="url(#linearGradient1185)" stroke="#000" stroke-miterlimit="10" d="M140.221 87.171s-2.624 41.661-1.082 43.092c1.415 1.307 30.581-.088 32.146-1.457 1.579-1.368 6.338-40.063 6.338-40.063z"/>
        <path fill="none" stroke="#000" stroke-miterlimit="10" d="M153.827 87.745l-1.631 43.04M165.996 88.373l-2.019 41.393"/>
        <path fill="#ff8080" d="M139.328 80.384c-.527 2.323-.354 11.204 0 13.518.115.807 5.427-.807 9.84-.473 4.412.333 8.608 2.254 9.307 2.359 1.71.258 8.687-1.872 12.475-1.739 3.092.108 6.802 1.585 6.802.624 0-1.097 1.541-12.642 1.45-14.29-.095-1.543-39.442-1.918-39.874.001z"/>
        <path fill="url(#linearGradient1228)" stroke="#000" stroke-miterlimit="10" d="M139.328 80.384c-.527 2.323-.354 11.204 0 13.518.115.807 5.427-.807 9.84-.473 4.412.333 8.608 2.254 9.307 2.359 1.71.258 8.687-1.872 12.475-1.739 3.092.108 6.802 1.585 6.802.624 0-1.097 1.541-12.642 1.45-14.29-.095-1.543-39.442-1.918-39.874.001z"/>
        <path fill="#f55" stroke="#000" stroke-miterlimit="10" d="M151.223 178.959s4.553 51.762 5.188 52.603c.624.837 3.801-.097 3.801-.097l-7.423-52.707z"/>
        <path fill="#ff8080" d="M151.223 178.959s6.447 51.399 7.469 52.496c1.021 1.099 26.787-6.834 26.631-8.015-.144-1.182-6.438-51.394-6.438-51.394z"/>
        <path fill="url(#linearGradient1251)" stroke="#000" stroke-miterlimit="10" d="M151.223 178.959s6.447 51.399 7.469 52.496c1.021 1.099 26.787-6.834 26.631-8.015-.144-1.182-6.438-51.394-6.438-51.394z"/>
        <path fill="#f55" stroke="#000" stroke-miterlimit="10" d="M146.186 156.292s-2.059.166-2.621 1.226c-.576 1.053 3.124 22.868 3.863 24.062.738 1.192 3.003-.129 3.003-.129z"/>
        <path fill="#ff8080" d="M144.619 156.801c.369-.82 15.26-2.163 21.849-3.617 4.808-1.058 8.48-2.619 9.269-1.887.938.859.925 6.903 1.887 11.944.974 5.097 2.914 9.197 2.521 9.277-.787.156-30.6 9.875-31.279 9.116-1.27-1.414-4.872-23.418-4.247-24.833z"/>
        <path fill="url(#linearGradient1274)" stroke="#000" stroke-miterlimit="10" d="M144.619 156.801c.369-.82 15.26-2.163 21.849-3.617 4.808-1.058 8.48-2.619 9.269-1.887.938.859.925 6.903 1.887 11.944.974 5.097 2.914 9.197 2.521 9.277-.787.156-30.6 9.875-31.279 9.116-1.27-1.414-4.872-23.418-4.247-24.833z"/>
        <path fill="#ffe680" d="M134.407 81.043a3.775 3.775 0 0 1-3.773 3.772 3.771 3.771 0 0 1-3.773-3.772 3.774 3.774 0 0 1 7.546 0zM134.407 106.386a3.773 3.773 0 0 1-7.546 0 3.768 3.768 0 0 1 3.773-3.771 3.772 3.772 0 0 1 3.773 3.771z"/>
        <circle cx="131.106" cy="131.73" r="3.773" fill="#ffe680"/>
        <path fill="#ffe680" d="M134.879 157.073a3.771 3.771 0 0 1-3.773 3.772 3.771 3.771 0 0 1 0-7.541 3.771 3.771 0 0 1 3.773 3.769zM161.712 91.573a2.353 2.353 0 0 1-2.358 2.358 2.362 2.362 0 0 1-2.358-2.358 2.362 2.362 0 0 1 2.358-2.358 2.353 2.353 0 0 1 2.358 2.358z"/>
        <path fill="url(#radialGradient1379)" stroke="#000" stroke-miterlimit="10" d="M134.407 81.043a3.775 3.775 0 0 1-3.773 3.772 3.771 3.771 0 0 1-3.773-3.772 3.774 3.774 0 0 1 7.546 0z"/>
        <path fill="url(#radialGradient1381)" stroke="#000" stroke-miterlimit="10" d="M134.407 106.386a3.773 3.773 0 0 1-7.546 0 3.768 3.768 0 0 1 3.773-3.771 3.772 3.772 0 0 1 3.773 3.771z"/>
        <circle cx="131.106" cy="131.73" r="3.773" fill="url(#radialGradient1383)" stroke="#000" stroke-miterlimit="10"/>
        <path fill="url(#radialGradient1385)" stroke="#000" stroke-miterlimit="10" d="M134.879 157.073a3.771 3.771 0 0 1-3.773 3.772 3.771 3.771 0 0 1 0-7.541 3.771 3.771 0 0 1 3.773 3.769z"/>
        <path fill="url(#radialGradient1387)" stroke="#000" stroke-miterlimit="10" d="M161.712 91.573a2.353 2.353 0 0 1-2.358 2.358 2.362 2.362 0 0 1-2.358-2.358 2.362 2.362 0 0 1 2.358-2.358 2.353 2.353 0 0 1 2.358 2.358z"/>
        <path fill="#ffb380" stroke="#000" stroke-miterlimit="10" d="M155.081 26.756l8.305 15.954-7.666 4.161-7.695-16.106 1.563-6.368z"/>
        <path fill="#ffde17" stroke="#000" stroke-miterlimit="10" stroke-width=".5" d="M153.67 28.801a1.882 1.882 0 1 1-3.765 0 1.883 1.883 0 0 1 3.765 0z"/>
        <path fill="#ffde17" stroke="#000" stroke-linejoin="round" stroke-miterlimit="10" stroke-width=".25" d="M153.668 33.207s2.64 5.935 3.105 5.68c.468-.251-3.105-5.68-3.105-5.68z"/>
        <path fill="#ffde17" stroke="#000" stroke-linejoin="round" stroke-miterlimit="10" stroke-width=".25" d="M155.67 31.346s-1.817 4.142-.406 4.273c1.41.137.406-4.273.406-4.273zM151.585 34.915s4.47.704 3.825 1.97c-.644 1.258-3.825-1.97-3.825-1.97z"/>
        <path fill="#ffde17" stroke="#000" stroke-linejoin="round" stroke-miterlimit="10" stroke-width=".25" d="M156.828 33.466s-1.816 4.139-.406 4.274c1.411.137.406-4.274.406-4.274zM152.742 37.035s4.472.705 3.825 1.968c-.642 1.261-3.825-1.968-3.825-1.968z"/>
        <path fill="#ee468a" stroke="#010101" stroke-width=".25" d="M157.127 39.304l.319 1.974 1.153-.63z"/>
        <path fill="#ee4689" stroke="#010101" stroke-width=".25" d="M159.482 41.447l.829-1.727-1.712.928z"/>
        <path fill="#ee468a" stroke="#010101" stroke-width=".25" d="M161.037 42.863l-1.555-1.416-.562 1.152z"/>
        <path fill="#ee4689" stroke="#010101" stroke-width=".25" d="M157.648 42.463l1.272.136-.93 1.917zM157.446 41.278l-1.748.957 1.95.228z"/>
        <path fill="#ffb380" stroke="#000" stroke-miterlimit="10" d="M92.618 42.71l7.669 4.161 7.698-16.106-1.569-6.368-5.5 2.359z"/>
        <path fill="#ffde17" stroke="#000" stroke-miterlimit="10" stroke-width=".5" d="M102.331 28.801c0 1.042.846 1.883 1.887 1.883a1.884 1.884 0 1 0 0-3.769 1.885 1.885 0 0 0-1.887 1.886z"/>
        <path fill="#ffde17" stroke="#000" stroke-linejoin="round" stroke-miterlimit="10" stroke-width=".25" d="M102.333 33.207s-2.638 5.935-3.104 5.68c-.468-.251 3.104-5.68 3.104-5.68z"/>
        <path fill="#ffde17" stroke="#000" stroke-linejoin="round" stroke-miterlimit="10" stroke-width=".25" d="M100.334 31.346s1.822 4.142.413 4.273c-1.41.137-.413-4.273-.413-4.273zM104.412 34.915s-4.47.704-3.818 1.97c.644 1.258 3.818-1.97 3.818-1.97z"/>
        <path fill="#ffde17" stroke="#000" stroke-linejoin="round" stroke-miterlimit="10" stroke-width=".25" d="M99.176 33.466s1.818 4.139.409 4.274c-1.409.137-.409-4.274-.409-4.274zM103.254 37.035s-4.471.705-3.818 1.968c.644 1.261 3.818-1.968 3.818-1.968z"/>
        <path fill="#ee468a" stroke="#010101" stroke-width=".25" d="M98.88 39.304l-.33 1.974-1.152-.63z"/>
        <path fill="#ee4689" stroke="#010101" stroke-width=".25" d="M96.527 41.447l-.834-1.727 1.705.928z"/>
        <path fill="#ee468a" stroke="#010101" stroke-width=".25" d="M94.967 42.863l1.56-1.416.556 1.152z"/>
        <path fill="#ee4689" stroke="#010101" stroke-width=".25" d="M98.354 42.463l-1.271.136.93 1.917zM98.55 41.278l1.756.957-1.952.228z"/>
    </g>
    <g stroke-width=".916">
        <path fill="#3971c6" d="M150.497 74.181l2.152.026-.035 2.987-2.152-.026z"/>
        <path fill="#d75086" d="M152.65 74.19l2.151.025-.035 2.986-2.152-.026z"/>
        <path fill="#674a95" d="M158.221 74.25l2.16.026-.034 2.986-2.16-.026z"/>
        <path fill="#777" d="M156.062 74.243l2.16.027-.036 2.986-2.16-.027z"/>
        <path fill="#ebc633" d="M154.802 74.225l1.254.015-.035 2.967-1.254-.015z"/>
        <g fill="#231f20" opacity=".25">
            <g>
                <path d="M150.455 76.96l9.895.121v.1l-9.896-.122zM150.453 76.72l9.896.122-.001.098-9.896-.122zM150.456 76.47l9.897.123-.001.099-9.897-.123zM150.458 76.223l9.895.121-.002.1-9.894-.122zM150.466 75.966l9.894.121v.098l-9.895-.12zM150.462 75.733l9.895.123-.001.099-9.896-.123zM150.468 75.475l9.897.122-.001.1-9.897-.123zM150.468 75.234l9.896.123-.001.1-9.896-.124zM150.471 74.985l9.896.124-.001.098-9.896-.123zM150.475 74.737l9.895.123v.099l-9.896-.124zM150.478 74.488l9.896.124-.002.1-9.895-.124zM150.486 74.224l9.896.121-.001.1-9.896-.122z"/>
            </g>
            <g>
                <path d="M150.455 76.96l9.895.121v.1l-9.896-.122zM150.453 76.72l9.896.122-.001.098-9.896-.122zM150.456 76.47l9.897.123-.001.099-9.897-.123zM150.458 76.223l9.895.121-.002.1-9.894-.122zM150.466 75.966l9.894.121v.098l-9.895-.12zM150.462 75.733l9.895.123-.001.099-9.896-.123zM150.468 75.475l9.897.122-.001.1-9.897-.123zM150.468 75.234l9.896.123-.001.1-9.896-.124zM150.471 74.985l9.896.124-.001.098-9.896-.123zM150.475 74.737l9.895.123v.099l-9.896-.124zM150.478 74.488l9.896.124-.002.1-9.895-.124zM150.486 74.224l9.896.121-.001.1-9.896-.122z"/>
            </g>
        </g>
        <path fill="none" stroke="#231f20" stroke-linejoin="round" stroke-miterlimit="10" stroke-width=".229" d="M156.735 72.161h9.092v2.727h-9.092z" transform="scale(1.08849 1.09449) rotate(.699 509.19 -1444.68)"/>
        <path fill="#e6e7e8" d="M160.46 74.273l9.896.121-.036 2.985-9.897-.122z"/>
        <path fill="#626161" d="M160.471 74.286l1.237.015-.037 2.985-1.237-.016zM169.112 74.385l1.24.015-.036 2.985-1.24-.015z"/>
        <g fill="#231f20" opacity=".25">
            <g>
                <path d="M160.42 77.091l9.897.123-.001.098-9.897-.122zM160.423 76.845l9.895.12v.1l-9.896-.122zM160.427 76.595l9.896.121-.002.1-9.895-.121zM160.426 76.353l9.896.123-.001.099-9.896-.124zM160.432 76.097l9.897.122-.001.099-9.897-.123zM160.44 75.838l9.896.122-.001.1-9.896-.122zM160.435 75.607l9.896.124-.001.098-9.896-.123zM160.444 75.348l9.896.123-.002.1-9.895-.123zM160.445 75.1l9.896.123-.001.1-9.896-.123zM160.45 74.844l9.897.121-.002.1-9.896-.121zM160.454 74.595l9.896.122-.001.1-9.896-.122zM160.459 74.346l9.894.122v.1l-9.895-.122z"/>
            </g>
            <g>
                <path d="M160.42 77.091l9.897.123-.001.098-9.897-.122zM160.423 76.845l9.895.12v.1l-9.896-.122zM160.427 76.595l9.896.121-.002.1-9.895-.121zM160.426 76.353l9.896.123-.001.099-9.896-.124zM160.432 76.097l9.897.122-.001.099-9.897-.123zM160.44 75.838l9.896.122-.001.1-9.896-.122zM160.435 75.607l9.896.124-.001.098-9.896-.123zM160.444 75.348l9.896.123-.002.1-9.895-.123zM160.445 75.1l9.896.123-.001.1-9.896-.123zM160.45 74.844l9.897.121-.002.1-9.896-.121zM160.454 74.595l9.896.122-.001.1-9.896-.122zM160.459 74.346l9.894.122v.1l-9.895-.122z"/>
            </g>
        </g>
        <path fill="none" stroke="#231f20" stroke-linejoin="round" stroke-miterlimit="10" stroke-width=".229" d="M165.895 72.162h9.093v2.727h-9.093z" transform="scale(1.08849 1.09449) rotate(.699 509.19 -1444.68)"/>
    </g>
    <g>
        <path fill="#414042" stroke="#000" stroke-miterlimit="10" stroke-width=".166" d="M117.417 76.734l-40.908.961-.125-5.321 40.908-.962z"/>
        <g fill="#e6e7e8" stroke-width=".857">
            <path d="M85.727 73.346l.278-.006.644 2.26.462-2.284.422-.01-.644 2.914-.414.01-.58-2.014-.513 2.038-.414.01-.77-2.883.422-.01.562 2.261zM88.394 76.084a.898.898 0 0 1-.365-.367 1.185 1.185 0 0 1-.139-.558l-.018-.821a1.18 1.18 0 0 1 .114-.564.896.896 0 0 1 .35-.382c.153-.091.329-.14.53-.145.202-.005.382.036.537.121a.908.908 0 0 1 .366.367 1.2 1.2 0 0 1 .139.558l.019.821c.004.214-.034.402-.115.564a.9.9 0 0 1-.348.382c-.152.091-.33.14-.532.145a1.064 1.064 0 0 1-.538-.121zm.842-.368a.55.55 0 0 0 .207-.233c.047-.1.07-.216.067-.345l-.018-.85a.758.758 0 0 0-.082-.341.546.546 0 0 0-.217-.225.616.616 0 0 0-.317-.074.612.612 0 0 0-.315.088.546.546 0 0 0-.207.234.74.74 0 0 0-.066.345l.019.85c.003.129.03.243.082.341a.539.539 0 0 0 .217.225.608.608 0 0 0 .318.074.601.601 0 0 0 .312-.089zM90.95 76.028a.898.898 0 0 1-.364-.367 1.185 1.185 0 0 1-.14-.558l-.018-.821c-.004-.213.033-.4.114-.564a.903.903 0 0 1 .35-.382c.153-.091.33-.14.532-.145.202-.005.38.036.537.121a.908.908 0 0 1 .366.367c.087.158.134.345.139.558l.018.821c.005.214-.033.402-.114.564a.9.9 0 0 1-.349.382c-.151.091-.328.14-.531.145a1.063 1.063 0 0 1-.54-.121zm.843-.368a.55.55 0 0 0 .206-.233c.048-.1.07-.216.068-.345l-.019-.85a.758.758 0 0 0-.081-.341.536.536 0 0 0-.217-.224.605.605 0 0 0-.318-.074.616.616 0 0 0-.313.088.546.546 0 0 0-.207.234.755.755 0 0 0-.067.346l.018.849c.003.13.03.243.082.341a.539.539 0 0 0 .217.226.608.608 0 0 0 .317.073.606.606 0 0 0 .314-.09zM94.764 76.046l.482-.01-.709-1.277c.05-.017.112-.016.157-.041a.734.734 0 0 0 .289-.301.904.904 0 0 0 .097-.442.903.903 0 0 0-.115-.438.73.73 0 0 0-.3-.288.922.922 0 0 0-.444-.094l-.744.016-.406.01.064 2.9.407-.01-.026-1.226.605-.013zm-1.279-2.486l.76-.017a.365.365 0 0 1 .349.206.535.535 0 0 1 .053.236.555.555 0 0 1-.043.238.368.368 0 0 1-.34.222l-.759.016zM97.788 73.08l.381-.008.064 2.897-.396.008-.048-2.17.023.127-.68 1.656-.283.006-.749-1.584.017-.168.047 2.17-.396.009-.064-2.897.38-.008.893 1.894zM100.215 73.027l.279-.006.644 2.259.462-2.284.422-.01-.644 2.915-.414.009-.58-2.013-.513 2.037-.414.01-.771-2.882.422-.01.562 2.26zM102.899 75.764a.898.898 0 0 1-.365-.366 1.185 1.185 0 0 1-.139-.559l-.019-.821c-.004-.212.033-.4.115-.563a.903.903 0 0 1 .35-.383c.152-.09.328-.14.531-.145.202-.004.38.037.537.122a.908.908 0 0 1 .366.366c.088.159.134.345.139.559l.019.82c.004.214-.034.402-.115.564a.9.9 0 0 1-.348.383c-.152.09-.33.14-.532.144a1.065 1.065 0 0 1-.54-.121zm.843-.367a.55.55 0 0 0 .207-.234c.047-.1.07-.215.067-.345l-.018-.849a.758.758 0 0 0-.082-.342.536.536 0 0 0-.217-.224.605.605 0 0 0-.317-.073.616.616 0 0 0-.314.087.546.546 0 0 0-.206.235.755.755 0 0 0-.068.345l.019.85c.002.129.03.243.081.34a.539.539 0 0 0 .217.226.608.608 0 0 0 .317.073.62.62 0 0 0 .314-.09zM105.431 75.708a.898.898 0 0 1-.365-.366 1.185 1.185 0 0 1-.139-.559l-.018-.821a1.178 1.178 0 0 1 .114-.563.896.896 0 0 1 .35-.383c.153-.09.329-.14.53-.145.202-.004.382.037.537.122a.908.908 0 0 1 .366.366 1.2 1.2 0 0 1 .139.559l.019.82c.004.214-.034.402-.115.564a.9.9 0 0 1-.348.383c-.152.09-.33.14-.532.144a1.064 1.064 0 0 1-.538-.12zm.842-.367a.55.55 0 0 0 .207-.234c.047-.1.07-.215.067-.345l-.018-.849a.743.743 0 0 0-.083-.342.543.543 0 0 0-.216-.225.616.616 0 0 0-.317-.073.612.612 0 0 0-.315.087.546.546 0 0 0-.207.235.74.74 0 0 0-.066.345l.019.849c.003.13.03.244.082.342a.539.539 0 0 0 .217.225.608.608 0 0 0 .318.073.601.601 0 0 0 .312-.088zM109.584 73.858a1.135 1.135 0 0 0-.142-.558.855.855 0 0 0-.385-.347 1.352 1.352 0 0 0-.598-.108l-.57.012-.348.007.064 2.898.366-.008.55-.012c.233-.005.43-.05.595-.135a.848.848 0 0 0 .37-.363c.082-.158.12-.345.117-.565zm-.563 1.32c-.115.114-.28.173-.493.178l-.524.011-.048-2.123.525-.012c.214-.005.38.048.5.155s.182.264.187.465l.019.853c.004.202-.05.36-.166.474z"/>
        </g>
    </g>
</svg>
