<svg xmlns="http://www.w3.org/2000/svg" xmlns:xlink="http://www.w3.org/1999/xlink" viewBox="0 0 256 256">
    <defs>
        <linearGradient id="innoGrad4">
            <stop offset="0" stop-color="#ff7f2a" stop-opacity=".502"/>
            <stop offset=".148" stop-color="#ff7f2a" stop-opacity="0"/>
            <stop offset=".846" stop-color="#ff7f2a" stop-opacity="0"/>
            <stop offset="1" stop-color="#ff7f2a" stop-opacity=".502"/>
        </linearGradient>
        <linearGradient id="innoGrad32">
            <stop offset="0" stop-color="#ffd42a" stop-opacity="0"/>
            <stop offset="1" stop-color="#ffd42a" stop-opacity=".502"/>
        </linearGradient>
        <linearGradient id="innoGrad22">
            <stop offset="0" stop-color="#ff2a2a" stop-opacity="0"/>
            <stop offset="1" stop-color="#ff2a2a" stop-opacity=".502"/>
        </linearGradient>
        <linearGradient id="innoGrad3">
            <stop offset="0" stop-color="#ffd42a" stop-opacity=".502"/>
            <stop offset="1" stop-color="#ffd42a" stop-opacity="0"/>
        </linearGradient>
        <linearGradient id="innoGrad2">
            <stop offset="0" stop-color="#ff2a2a" stop-opacity=".502"/>
            <stop offset="1" stop-color="#ff2a2a" stop-opacity="0"/>
        </linearGradient>
        <linearGradient id="innoGrad1">
            <stop offset="0" stop-color="#ff2a2a" stop-opacity=".502"/>
            <stop offset=".165" stop-color="#ff2a2a" stop-opacity="0"/>
            <stop offset=".788" stop-color="#ff2a2a" stop-opacity="0"/>
            <stop offset="1" stop-color="#ff2a2a" stop-opacity=".502"/>
        </linearGradient>
        <linearGradient id="linearGradient917" x1="42.743" x2="213.257" y1="127.593" y2="127.593" gradientUnits="userSpaceOnUse" xlink:href="#innoGrad1"/>
        <linearGradient id="linearGradient944" x1="55.062" x2="200.932" y1="219.753" y2="219.753" gradientUnits="userSpaceOnUse" xlink:href="#innoGrad1"/>
        <linearGradient id="linearGradient967" x1="42.764" x2="66.632" y1="36.169" y2="29.773" gradientUnits="userSpaceOnUse" xlink:href="#innoGrad2"/>
        <linearGradient id="linearGradient998" x1="48.799" x2="69.431" y1="46.691" y2="41.163" gradientUnits="userSpaceOnUse" xlink:href="#innoGrad2"/>
        <linearGradient id="linearGradient1021" x1="93.599" x2="111.016" y1="179.185" y2="179.185" gradientUnits="userSpaceOnUse" xlink:href="#innoGrad3"/>
        <linearGradient id="linearGradient1044" x1="48.648" x2="94.119" y1="183.096" y2="183.096" gradientUnits="userSpaceOnUse" xlink:href="#innoGrad3"/>
        <linearGradient id="linearGradient1067" x1="46.109" x2="91.869" y1="157.369" y2="157.369" gradientUnits="userSpaceOnUse" xlink:href="#innoGrad3"/>
        <linearGradient id="linearGradient1090" x1="190.556" x2="208.897" y1="28.64" y2="39.229" gradientUnits="userSpaceOnUse" xlink:href="#innoGrad22"/>
        <linearGradient id="linearGradient1121" x1="182.285" x2="202.978" y1="59.717" y2="65.262" gradientUnits="userSpaceOnUse" xlink:href="#innoGrad22"/>
        <linearGradient id="linearGradient1144" x1="144.989" x2="161.638" y1="179.185" y2="179.185" gradientUnits="userSpaceOnUse" xlink:href="#innoGrad32"/>
        <linearGradient id="linearGradient1175" x1="161.879" x2="207.352" y1="183.096" y2="183.096" gradientUnits="userSpaceOnUse" xlink:href="#innoGrad32"/>
        <linearGradient id="linearGradient1206" x1="164.13" x2="209.893" y1="157.369" y2="157.369" gradientUnits="userSpaceOnUse" xlink:href="#innoGrad32"/>
        <linearGradient id="linearGradient1229" x1="59.74" x2="196.265" y1="85.129" y2="85.129" gradientUnits="userSpaceOnUse" xlink:href="#innoGrad4"/>
        <linearGradient id="linearGradient1256" x1="59.725" x2="196.276" y1="76.532" y2="76.532" gradientUnits="userSpaceOnUse" xlink:href="#innoGrad4"/>
        <linearGradient id="linearGradient1288" x1="59.725" x2="196.276" y1="94.831" y2="94.831" gradientUnits="userSpaceOnUse" xlink:href="#innoGrad4"/>
    </defs>
    <g>
        <path fill="#ff2a2a" stroke="#000" stroke-miterlimit="10" d="M82.049 13.346S71.126 58.046 128 56.79c56.875-1.256 45.774-44.038 45.774-44.038S164.687 33.737 128 33.919c-36.682.185-45.951-20.573-45.951-20.573z"/>
    </g>
    <g>
        <path fill="#ff8080" d="M56.254 227.032c-.047-1.213.34-2.159.257-4.504-.063-1.853-.593-4.908-.676-7.333-.52-15.583-1.356-42.29-3.451-62.226-1.273-12.088 1.146-17.646 1.685-22.626.263-2.448-.252-4.706-.129-4.891 1.029-1.54 4.622-1.519 4.885-10.283.128-4.231-1.737-13.951-2.571-22.886-.895-9.584-.772-18.26-.772-18.26S42.626 30.052 43.266 29.28c.642-.769 38.235-19.808 39.732-16.07 1.543 3.854 9.9 27.901 19.673 36.002 6.397 5.304 44.255 5.304 50.658 0 9.77-8.101 18.127-32.148 19.674-36.002 1.498-3.738 39.089 15.301 39.73 16.07.646.772-12.214 44.744-12.214 44.744s.124 8.676-.777 18.26c-.833 8.935-2.693 18.655-2.568 22.886.259 8.765 3.856 8.743 4.884 10.283.125.185-.389 2.443-.125 4.891.538 4.98 2.954 10.538 1.687 22.626-2.102 19.936-2.935 46.643-3.457 62.226-.083 2.425-.61 5.48-.672 7.333-.085 2.345.307 3.291.252 4.504-.808 20.582-142.682 20.564-143.489-.001z"/>
        <path fill="url(#linearGradient917)" stroke="#000" stroke-miterlimit="10" d="M56.254 227.032c-.047-1.213.34-2.159.257-4.504-.063-1.853-.593-4.908-.676-7.333-.52-15.583-1.356-42.29-3.451-62.226-1.273-12.088 1.146-17.646 1.685-22.626.263-2.448-.252-4.706-.129-4.891 1.029-1.54 4.622-1.519 4.885-10.283.128-4.231-1.737-13.951-2.571-22.886-.895-9.584-.772-18.26-.772-18.26S42.626 30.052 43.266 29.28c.642-.769 38.235-19.808 39.732-16.07 1.543 3.854 9.9 27.901 19.673 36.002 6.397 5.304 44.255 5.304 50.658 0 9.77-8.101 18.127-32.148 19.674-36.002 1.498-3.738 39.089 15.301 39.73 16.07.646.772-12.214 44.744-12.214 44.744s.124 8.676-.777 18.26c-.833 8.935-2.693 18.655-2.568 22.886.259 8.765 3.856 8.743 4.884 10.283.125.185-.389 2.443-.125 4.891.538 4.98 2.954 10.538 1.687 22.626-2.102 19.936-2.935 46.643-3.457 62.226-.083 2.425-.61 5.48-.672 7.333-.085 2.345.307 3.291.252 4.504-.808 20.582-142.682 20.564-143.489-.001z"/>
        <path fill="#f55" stroke="#000" stroke-miterlimit="10" d="M92.458 142.894h71.088v24.089H92.458zM95.726 176.11h64.549V199H95.726z"/>
        <path fill="#f55" d="M128 231.789c-66.474 0-71.957-13.967-71.957-13.967l-.457-10.08s31.527 1.419 72.414 1.031c40.887-.39 72.409-1.031 72.409-1.031l-.448 10.08s-5.49 13.967-71.961 13.967z"/>
        <path fill="url(#linearGradient944)" stroke="#000" stroke-miterlimit="10" d="M128 231.789c-66.474 0-71.957-13.967-71.957-13.967l-.457-10.08s31.527 1.419 72.414 1.031c40.887-.39 72.409-1.031 72.409-1.031l-.448 10.08s-5.49 13.967-71.961 13.967z"/>
        <path fill="#ff8080" d="M43.267 25.422c-.128 1.289 8.487 36.39 9.516 36.902.575.29 12.304-4.712 23.015-8.486 8.425-2.968 18.946-6.339 19.285-7.584.472-1.726-5.686-11.486-9.487-22.498-2.437-7.051-3.768-12.983-4.27-13.631-1.283-1.674-37.93 14.013-38.059 15.297z"/>
        <path fill="url(#linearGradient967)" stroke="#000" stroke-miterlimit="10" d="M43.267 25.422c-.128 1.289 8.487 36.39 9.516 36.902.575.29 12.304-4.712 23.015-8.486 8.425-2.968 18.946-6.339 19.285-7.584.472-1.726-5.686-11.486-9.487-22.498-2.437-7.051-3.768-12.983-4.27-13.631-1.283-1.674-37.93 14.013-38.059 15.297z"/>
        <path fill="#ff8080" d="M77.083 29.149c.908.388 10.909 3.985 11.187 4.762.277.771 6.174 14.912 5.785 16.07-.388 1.158-38.829 14.015-39.475 14.27-.641.259-5.012-16.456-5.27-17.549-.256-1.093 6.881-10.965 6.171-9.834-.706 1.129 20.695-8.1 21.602-7.719z"/>
        <path fill="url(#linearGradient998)" stroke="#000" stroke-miterlimit="10" d="M77.083 29.149c.908.388 10.909 3.985 11.187 4.762.277.771 6.174 14.912 5.785 16.07-.388 1.158-38.829 14.015-39.475 14.27-.641.259-5.012-16.456-5.27-17.549-.256-1.093 6.881-10.965 6.171-9.834-.706 1.129 20.695-8.1 21.602-7.719z"/>
        <path fill="none" stroke="#000" stroke-miterlimit="10" d="M57.236 63.344l-4.839-15.549 5.53-8.999 19.543-6.3 8.871 4.372 4.315 14.707"/>
        <path fill="#f55" stroke="#000" stroke-miterlimit="10" d="M49.311 46.702l2.721 10.089s3.5-1.784 9.494-3.852c5.995-2.067 10.165-2.927 10.165-2.927s3.537-2.258 9.379-4.272c5.843-2.017 10.821-2.691 10.821-2.691l-3.312-8.363s-7.024 1.353-11.496 2.953c-4.471 1.599-7.894 3.985-7.894 3.985s-5.507.405-10.365 1.545c-4.187.98-9.513 3.533-9.513 3.533z"/>
        <path fill="none" stroke="#000" stroke-miterlimit="10" stroke-width=".5" d="M69.19 41.624l2.501 8.388"/>
        <path fill="#ffe680" d="M52.911 211.986l1.029 2.055s6.416 3.427 14.916 5.917c10.743 3.148 24.146 5.486 24.687 5.143.961-.614 17.004-10.806 16.973-11.701-.036-.894-2.09-57.991-2.058-57.085.032.899-17.958-15.146-17.228-14.529.728.615-36.968-4.989-38.263-5.285-2.055-.473.651-3.319.651-3.319s-4.306 2.176-3.533 3.462c.769 1.284 2.826 75.342 2.826 75.342z"/>
        <path fill="url(#linearGradient1021)" stroke="#000" stroke-linejoin="bevel" stroke-miterlimit="10" d="M52.911 211.986l1.029 2.055s6.416 3.427 14.916 5.917c10.743 3.148 24.146 5.486 24.687 5.143.961-.614 17.004-10.806 16.973-11.701-.036-.894-2.09-57.991-2.058-57.085.032.899-17.958-15.146-17.228-14.529.728.615-36.968-4.989-38.263-5.285-2.055-.473.651-3.319.651-3.319s-4.306 2.176-3.533 3.462c.769 1.284 2.826 75.342 2.826 75.342z"/>
        <path fill="#fea" stroke="#000" stroke-miterlimit="10" d="M90.861 144.375s3.479 10.901 3.583 18.754c.035 2.991-.918 13.341-.902 24.558.011 7.346 1.074 15.134.907 21.213-.25 8.996-.907 12.861-.907 12.861l-7.92-28.42z"/>
        <path fill="#ffe680" d="M89.299 143.195l1.156-.766s1.03 3.652.899 9.257c-.248 10.688-1.699 27.82-1.415 35.484.439 11.689 3.602 37.93 3.602 37.93s-24.905-4.7-29.573-6.042c-4.669-1.342-11.187-5.659-11.187-5.659s.495-2.751-.019-6.558c-.763-5.691-2.708-13.892-3.325-20.053-1.027-10.287 1.03-45.787 1.03-45.787z"/>
        <path fill="url(#linearGradient1044)" stroke="#000" stroke-miterlimit="10" d="M89.299 143.195l1.156-.766s1.03 3.652.899 9.257c-.248 10.688-1.699 27.82-1.415 35.484.439 11.689 3.602 37.93 3.602 37.93s-24.905-4.7-29.573-6.042c-4.669-1.342-11.187-5.659-11.187-5.659s.495-2.751-.019-6.558c-.763-5.691-2.708-13.892-3.325-20.053-1.027-10.287 1.03-45.787 1.03-45.787z"/>
        <path fill="#fd5" d="M89.299 143.195l-39.215-6.553-.901 4.497s-2.443 18.646-2.571 20.318c-.063.79 1.362 3.269 2.314 5.657 1.058 2.651 1.671 5.191 2.058 5.274.728.143 28.671 5.781 29.829 5.781 1.158 0 8.335-8.589 8.487-10.159.15-1.561 2.056-21.084 2.056-21.084z"/>
        <path fill="url(#linearGradient1067)" stroke="#000" stroke-miterlimit="10" d="M89.299 143.195l-39.215-6.553-.901 4.497s-2.443 18.646-2.571 20.318c-.063.79 1.362 3.269 2.314 5.657 1.058 2.651 1.671 5.191 2.058 5.274.728.143 28.671 5.781 29.829 5.781 1.158 0 8.335-8.589 8.487-10.159.15-1.561 2.056-21.084 2.056-21.084z"/>
        <path fill="none" stroke="#000" stroke-miterlimit="10" d="M79.267 174.703l6.355-7.459 2.903-20.96-38.012-4.501-1.844 18.645 4.5 9.646z"/>
        <path fill="#ff8080" d="M212.732 25.422c.129 1.289-8.489 36.39-9.518 36.902-.573.29-12.301-4.712-23.014-8.486-8.428-2.968-18.943-6.339-19.284-7.584-.471-1.726 5.686-11.486 9.486-22.498 2.438-7.051 3.77-12.983 4.272-13.631 1.287-1.674 37.93 14.013 38.058 15.297z"/>
        <path fill="url(#linearGradient1090)" stroke="#000" stroke-miterlimit="10" d="M212.732 25.422c.129 1.289-8.489 36.39-9.518 36.902-.573.29-12.301-4.712-23.014-8.486-8.428-2.968-18.943-6.339-19.284-7.584-.471-1.726 5.686-11.486 9.486-22.498 2.438-7.051 3.77-12.983 4.272-13.631 1.287-1.674 37.93 14.013 38.058 15.297z"/>
        <path fill="#ff8080" d="M178.915 29.149c-.907.388-10.902 3.985-11.186 4.762-.283.771-6.169 14.912-5.783 16.07.382 1.158 38.829 14.015 39.469 14.27.643.259 5.021-16.456 5.272-17.549.262-1.093-6.876-10.965-6.168-9.834.707 1.129-20.698-8.1-21.604-7.719z"/>
        <path fill="url(#linearGradient1121)" stroke="#000" stroke-miterlimit="10" d="M178.915 29.149c-.907.388-10.902 3.985-11.186 4.762-.283.771-6.169 14.912-5.783 16.07.382 1.158 38.829 14.015 39.469 14.27.643.259 5.021-16.456 5.272-17.549.262-1.093-6.876-10.965-6.168-9.834.707 1.129-20.698-8.1-21.604-7.719z"/>
        <path fill="none" stroke="#000" stroke-miterlimit="10" d="M198.759 63.344l4.846-15.549-5.534-8.999-19.542-6.3-8.865 4.372-4.313 14.707"/>
        <path fill="#f55" stroke="#000" stroke-miterlimit="10" d="M206.688 46.702l-2.716 10.089s-3.499-1.784-9.501-3.852c-5.995-2.067-10.16-2.927-10.16-2.927s-3.535-2.258-9.382-4.272c-5.845-2.017-10.82-2.691-10.82-2.691l3.313-8.363s7.023 1.353 11.493 2.953c4.476 1.599 7.896 3.985 7.896 3.985s5.504.405 10.362 1.545c4.189.98 9.515 3.533 9.515 3.533z"/>
        <path fill="none" stroke="#000" stroke-miterlimit="10" stroke-width=".5" d="M186.812 41.624l-2.501 8.388"/>
        <path fill="#ffe680" d="M203.091 211.986l-1.033 2.055s-6.412 3.427-14.916 5.917c-10.746 3.148-24.147 5.486-24.686 5.143-.965-.614-17.004-10.806-16.967-11.701.028-.894 2.082-57.991 2.054-57.085-.027.899 17.955-15.146 17.229-14.529-.725.615 36.962-4.989 38.264-5.285 2.059-.473-.652-3.319-.652-3.319s4.305 2.176 3.536 3.462c-.773 1.284-2.829 75.342-2.829 75.342z"/>
        <path fill="url(#linearGradient1144)" stroke="#000" stroke-linejoin="bevel" stroke-miterlimit="10" d="M203.091 211.986l-1.033 2.055s-6.412 3.427-14.916 5.917c-10.746 3.148-24.147 5.486-24.686 5.143-.965-.614-17.004-10.806-16.967-11.701.028-.894 2.082-57.991 2.054-57.085-.027.899 17.955-15.146 17.229-14.529-.725.615 36.962-4.989 38.264-5.285 2.059-.473-.652-3.319-.652-3.319s4.305 2.176 3.536 3.462c-.773 1.284-2.829 75.342-2.829 75.342z"/>
        <path fill="#fea" stroke="#000" stroke-miterlimit="10" d="M165.137 144.375s-3.479 10.901-3.576 18.754c-.046 2.991.913 13.341.896 24.558-.012 7.346-1.067 15.134-.9 21.213.245 8.996.9 12.861.9 12.861l7.924-28.42z"/>
        <path fill="#ffe680" d="M166.705 143.195l-1.157-.766s-1.032 3.652-.904 9.257c.251 10.688 1.704 27.82 1.418 35.484-.443 11.689-3.605 37.93-3.605 37.93s24.905-4.7 29.578-6.042c4.666-1.342 11.181-5.659 11.181-5.659s-.494-2.751.018-6.558c.769-5.691 2.714-13.892 3.324-20.053 1.037-10.287-1.028-45.787-1.028-45.787z"/>
        <path fill="url(#linearGradient1175)" stroke="#000" stroke-miterlimit="10" d="M166.705 143.195l-1.157-.766s-1.032 3.652-.904 9.257c.251 10.688 1.704 27.82 1.418 35.484-.443 11.689-3.605 37.93-3.605 37.93s24.905-4.7 29.578-6.042c4.666-1.342 11.181-5.659 11.181-5.659s-.494-2.751.018-6.558c.769-5.691 2.714-13.892 3.324-20.053 1.037-10.287-1.028-45.787-1.028-45.787z"/>
        <path fill="#fd5" d="M166.705 143.195l39.214-6.553.897 4.497s2.446 18.646 2.574 20.318c.062.79-1.367 3.269-2.315 5.657-1.058 2.651-1.678 5.191-2.06 5.274-.728.143-28.671 5.781-29.826 5.781-1.158 0-8.332-8.589-8.484-10.159-.157-1.561-2.062-21.084-2.062-21.084z"/>
        <path fill="url(#linearGradient1206)" stroke="#000" stroke-miterlimit="10" d="M166.705 143.195l39.214-6.553.897 4.497s2.446 18.646 2.574 20.318c.062.79-1.367 3.269-2.315 5.657-1.058 2.651-1.678 5.191-2.06 5.274-.728.143-28.671 5.781-29.826 5.781-1.158 0-8.332-8.589-8.484-10.159-.157-1.561-2.062-21.084-2.062-21.084z"/>
        <path fill="none" stroke="#000" stroke-miterlimit="10" d="M176.729 174.703l-6.349-7.459-2.912-20.96 38.019-4.501 1.844 18.645-4.497 9.646z"/>
        <path fill="#ffb380" d="M60.5 105.453c-.902-2.787.77-38.158 1.54-40.775.772-2.615 131.153-2.615 131.917 0 .775 2.617 2.447 37.988 1.551 40.775-.905 2.784-134.11 2.784-135.008 0z"/>
        <path fill="url(#linearGradient1229)" stroke="#000" stroke-miterlimit="10" d="M60.5 105.453c-.902-2.787.77-38.158 1.54-40.775.772-2.615 131.153-2.615 131.917 0 .775 2.617 2.447 37.988 1.551 40.775-.905 2.784-134.11 2.784-135.008 0z"/>
        <path fill="none" stroke="#000" stroke-miterlimit="10" d="M62.297 103.365c0-.993 1.114-34.263 1.157-35.613.044-1.352 129.049-1.352 129.094 0 .039 1.35 1.157 34.62 1.157 35.613 0 .994-131.408.994-131.408 0z"/>
        <path fill="#f95" d="M195.441 71.196l.32 10.671H60.24l.316-10.671z"/>
        <path fill="url(#linearGradient1256)" stroke="#000" stroke-miterlimit="10" d="M195.761 81.867H60.24l.316-10.671h134.885z"/>
        <path fill="none" stroke="#000" stroke-miterlimit="10" stroke-width=".5" d="M80.469 71.196l.215 10.671M99.072 71.196v10.671M117.972 71.196v10.671M175.531 71.196l-.213 10.671M156.93 71.196v10.671M138.032 71.196v10.671"/>
        <path fill="none" stroke="#000" stroke-miterlimit="10" d="M194.35 69.309H61.655"/>
        <path fill="#f95" stroke="#000" stroke-miterlimit="10" d="M195.441 89.496l.32 10.671H60.24l.316-10.671z"/>
        <path fill="url(#linearGradient1288)" stroke="#000" stroke-miterlimit="10" d="M195.761 100.167H60.24l.316-10.671h134.885z"/>
        <path fill="none" stroke="#000" stroke-miterlimit="10" stroke-width=".5" d="M80.469 89.496l.215 10.671M99.072 89.496v10.671M117.972 89.496v10.671M175.531 89.496l-.213 10.671M156.93 89.496v10.671M138.032 89.496v10.671"/>
    </g>
    <g>
        <path fill="#414042" stroke="#000" stroke-linejoin="bevel" stroke-miterlimit="10" stroke-width="1.059" d="M139.836 74.136h50.65v26.839h-50.65z" transform="matrix(.99975 -.02242 .01784 .99984 -.096 1.342)"/>
        <g stroke-miterlimit="10">
            <path fill="#414042" stroke="#414042" d="M146.75 63.486h35v15.715h-35z" transform="matrix(-1.30606 .0292 -.03826 -.9966 383.77 147.68)"/>
            <path fill="none" stroke="#fff" d="M147.597 64.301h33.341v14.081h-33.341z" transform="matrix(-1.30606 .0292 -.03826 -.9966 383.816 147.672)"/>
        </g>
        <g fill="#fff">
            <path d="M183.927 85.28l-.203-.035a1.658 1.658 0 0 1-.375-.117 1.684 1.684 0 0 1-.33-.2l.26-.34c.12.097.25.17.394.216.143.047.298.07.464.063.223-.008.39-.055.513-.142a.403.403 0 0 0 .174-.358l.004-.002a.36.36 0 0 0-.096-.25.502.502 0 0 0-.22-.134 2.585 2.585 0 0 0-.348-.073c-.006 0-.004-.002-.01-.001-.005 0-.013 0-.016-.003-.015-.001-.018-.002-.03-.005a3.243 3.243 0 0 1-.506-.104.718.718 0 0 1-.34-.234c-.097-.115-.147-.28-.156-.497v-.004a.892.892 0 0 1 .113-.491.807.807 0 0 1 .368-.323c.162-.076.36-.117.59-.125.11-.004.217.005.323.027.108.02.214.053.32.096.104.045.206.1.31.17-.096.141-.14.211-.235.352a1.37 1.37 0 0 0-.353-.182.987.987 0 0 0-.354-.054c-.21.007-.375.054-.489.14a.414.414 0 0 0-.165.364v.002a.35.35 0 0 0 .1.248c.062.059.14.1.23.127.09.025.216.051.38.076.005 0 .009.003.014.003.007 0 .011.001.017.003l.025.005h.024c.186.029.347.075.474.122.127.048.23.13.32.243.087.114.135.273.142.475v.005a.872.872 0 0 1-.12.488.817.817 0 0 1-.375.315 1.584 1.584 0 0 1-.606.127l-.232.008zM180.293 82.271l.43-.014c.039 1.234.06 1.853.098 3.087-.175.006-.26.01-.434.014-.04-1.234-.055-1.853-.094-3.087zm.229 1.366c.42-.014.634-.019 1.052-.032a.42.42 0 0 0 .217-.067.373.373 0 0 0 .142-.173.566.566 0 0 0 .042-.253.542.542 0 0 0-.06-.25.394.394 0 0 0-.372-.216l-1.053.034c-.003-.165-.007-.247-.01-.412l1.037-.033a.959.959 0 0 1 .473.094.765.765 0 0 1 .322.305.97.97 0 0 1 .127.462.973.973 0 0 1-.1.474.753.753 0 0 1-.305.32.948.948 0 0 1-.462.127l-1.037.033c-.004-.165-.008-.247-.013-.413zm.853.289l.426-.11.837 1.471-.511.016c-.302-.55-.452-.824-.752-1.377zM177.693 82.359c.174-.005.26-.009.434-.015l.098 3.085-.433.013c-.038-1.233-.06-1.849-.1-3.083zm.21-.008l1.771-.054c.004.165.01.246.016.41l-1.772.056-.015-.412zm.046 1.348c.614-.018.926-.03 1.542-.049.003.165.008.247.012.412l-1.54.047c-.007-.167-.01-.245-.014-.41zm.04 1.325l1.77-.056c.004.165.012.246.016.41l-1.772.057a21.27 21.27 0 0 1-.015-.41zM175.798 85.536s-.085-.044-.248-.134a.965.965 0 0 1-.388-.392 1.304 1.304 0 0 1-.154-.6l-.029-.844a1.324 1.324 0 0 1 .114-.61.953.953 0 0 1 .363-.416c.16-.1.344-.153.561-.161.177-.006.34.027.491.097a1 1 0 0 1 .386.308c.104.134.177.293.218.474-.18.006-.268.012-.446.017a.696.696 0 0 0-.367-.423.61.61 0 0 0-.594.047.603.603 0 0 0-.213.264.86.86 0 0 0-.068.385c.012.338.015.507.026.846.003.144.036.27.093.38a.584.584 0 0 0 .564.33.644.644 0 0 0 .264-.068c.081-.041.147-.1.209-.177a.635.635 0 0 0 .126-.27l.445-.016c-.03.183-.09.346-.186.487a1.02 1.02 0 0 1-.364.334 1.08 1.08 0 0 1-.484.13l-.32.012zM172.172 82.53c.174-.006.259-.01.434-.015.04 1.235.058 1.854.099 3.088l-.43.013c-.038-1.234-.064-1.852-.103-3.087zm.233 1.365c.422-.015.637-.022 1.056-.035a.4.4 0 0 0 .214-.064.395.395 0 0 0 .14-.175.56.56 0 0 0 .043-.252.552.552 0 0 0-.062-.249.39.39 0 0 0-.15-.164.408.408 0 0 0-.223-.054l-1.048.035c-.003-.165-.01-.248-.015-.412l1.037-.035c.18-.005.338.027.477.095a.76.76 0 0 1 .321.304c.078.132.12.287.126.464a.974.974 0 0 1-.098.472.762.762 0 0 1-.306.322.948.948 0 0 1-.462.124l-1.037.034c-.001-.165-.006-.247-.013-.41zm.853.29c.17-.045.258-.067.43-.11l.837 1.472-.512.014c-.3-.551-.454-.828-.755-1.376zM169.92 85.583a.99.99 0 0 1-.394-.39 1.246 1.246 0 0 1-.155-.593c-.013-.35-.016-.522-.028-.872-.008-.226.031-.428.115-.602a.972.972 0 0 1 .372-.41c.16-.099.342-.151.56-.158a1.13 1.13 0 0 1 .575.122.976.976 0 0 1 .391.386c.097.168.148.365.153.592.012.35.015.527.026.876.01.225-.028.425-.112.6a.96.96 0 0 1-.365.412c-.164.1-.353.152-.567.16a1.106 1.106 0 0 1-.571-.123zm.893-.4a.572.572 0 0 0 .213-.251.817.817 0 0 0 .072-.37c-.011-.362-.017-.541-.03-.902a.78.78 0 0 0-.092-.363.558.558 0 0 0-.23-.237.662.662 0 0 0-.342-.075.634.634 0 0 0-.328.095.581.581 0 0 0-.222.252.807.807 0 0 0-.067.368c.013.361.015.544.028.905a.783.783 0 0 0 .092.36.574.574 0 0 0 .235.241.637.637 0 0 0 .338.072.654.654 0 0 0 .333-.096zM166.945 82.697l.432-.013c.039 1.234.057 1.851.098 3.085l-.435.014c-.036-1.236-.057-1.854-.095-3.086zm.212-.007l1.728-.055c.003.165.01.247.014.412l-1.728.056c-.007-.166-.011-.25-.014-.413zm.043 1.373l1.494-.046c.003.165.01.248.014.413-.597.018-.897.025-1.494.045-.004-.167-.01-.247-.014-.412zM163.904 82.793l.39-.011 1.584 2.335-.052.056-.073-2.441c.171-.006.254-.006.424-.01l.097 3.083-.396.011c-.633-.92-.945-1.38-1.578-2.3.022-.022.028-.034.05-.056.029.962.044 1.44.077 2.404l-.428.012c-.038-1.234-.056-1.85-.095-3.083zM161.31 82.873l.432-.013.096 3.085-.433.014c-.04-1.233-.056-1.851-.095-3.086zm.208-.005c.708-.022 1.061-.035 1.77-.058.005.165.006.248.01.413-.708.021-1.06.033-1.77.056-.002-.164-.007-.246-.01-.41zm.04 1.345c.615-.018.926-.027 1.54-.047.005.165.011.247.014.411l-1.54.05c-.004-.163-.008-.246-.014-.414zm.042 1.33l1.77-.056c.005.165.012.245.016.41l-1.772.056c-.004-.164-.007-.246-.014-.41zM180.505 77.05c.158-.005.237-.009.393-.013.634.934.946 1.404 1.581 2.338-.02.023-.025.033-.046.055l-.076-2.44c.171-.006.255-.007.427-.011l.094 3.08c-.158.005-.238.01-.395.013-.633-.92-.947-1.381-1.578-2.303l.051-.056c.029.962.046 1.444.076 2.406-.172.004-.256.009-.428.014-.041-1.232-.06-1.85-.099-3.083zM178.247 80.1a.971.971 0 0 1-.394-.388 1.256 1.256 0 0 1-.153-.593c-.011-.35-.012-.524-.024-.873-.008-.227.03-.43.114-.604a.947.947 0 0 1 .365-.409c.16-.099.35-.153.567-.16.214-.006.407.034.572.122.166.089.3.22.391.388.095.169.148.366.153.593.012.35.014.525.026.875.007.225-.031.427-.115.6a.949.949 0 0 1-.367.414c-.161.1-.35.151-.566.158a1.097 1.097 0 0 1-.569-.122zm.894-.401a.568.568 0 0 0 .216-.251.785.785 0 0 0 .068-.37c-.01-.361-.017-.542-.028-.903a.78.78 0 0 0-.09-.364.584.584 0 0 0-.235-.238.65.65 0 0 0-.337-.073.644.644 0 0 0-.335.094.556.556 0 0 0-.215.251.828.828 0 0 0-.072.37l.028.904c.004.14.038.26.092.363a.57.57 0 0 0 .232.239c.097.054.211.08.336.076a.628.628 0 0 0 .34-.098zM177.035 80.247c-.174.005-.258.006-.432.012-.039-1.234-.06-1.848-.096-3.083.174-.005.26-.008.434-.015.036 1.235.055 1.852.094 3.086zM173.465 77.271c.156-.005.237-.006.393-.01.632.935.947 1.402 1.58 2.336l-.05.056c-.03-.975-.042-1.463-.071-2.438.172-.005.255-.01.426-.014.036 1.233.054 1.85.093 3.083l-.395.011-1.578-2.3c.022-.023.027-.035.049-.059l.074 2.406-.43.011c-.04-1.234-.054-1.85-.091-3.082zM172.798 80.381c-.174.005-.26.007-.435.014l-.095-3.085.43-.012c.038 1.234.06 1.85.1 3.083zM171.101 77.346c.162-.004.243-.008.406-.013.036 1.235.056 1.85.095 3.084l-.422.014c-.029-.925-.042-1.383-.072-2.307l.023.133c-.281.708-.42 1.062-.703 1.77l-.304.011c-.324-.672-.484-1.007-.81-1.68.007-.07.009-.108.014-.18.027.925.043 1.385.073 2.309l-.423.013-.096-3.081c.164-.005.245-.01.407-.015.39.802.58 1.204.969 2.008l.843-2.066zM166.621 80.467a.979.979 0 0 1-.39-.389 1.267 1.267 0 0 1-.155-.59c-.013-.35-.013-.526-.024-.874-.01-.226.028-.426.113-.6a.963.963 0 0 1 .37-.414c.16-.1.347-.151.564-.158a1.11 1.11 0 0 1 .575.122.975.975 0 0 1 .39.387c.095.169.147.368.153.594l.028.874c.008.226-.031.426-.115.602a.953.953 0 0 1-.367.412c-.164.1-.348.15-.565.156a1.133 1.133 0 0 1-.577-.122zm.897-.399a.585.585 0 0 0 .215-.253.78.78 0 0 0 .07-.368c-.012-.362-.018-.541-.028-.903a.803.803 0 0 0-.09-.364.578.578 0 0 0-.234-.238.64.64 0 0 0-.339-.074.654.654 0 0 0-.333.094.575.575 0 0 0-.217.251.81.81 0 0 0-.072.37l.027.905c.004.139.035.26.09.363a.58.58 0 0 0 .239.237.641.641 0 0 0 .338.075.631.631 0 0 0 .334-.095zM163.229 77.596c.174-.005.255-.006.43-.013l.096 3.083-.429.013c-.04-1.233-.059-1.85-.097-3.083zm.377 2.661c.28-.009.423-.011.702-.02.226-.008.401-.074.521-.196.12-.122.178-.289.17-.505-.01-.363-.017-.543-.028-.906-.008-.216-.075-.38-.203-.495-.13-.114-.308-.169-.536-.162l-.699.024a21.491 21.491 0 0 1-.011-.414l.688-.02c.247-.009.453.031.633.11.178.082.315.201.411.362.097.162.15.363.16.596.01.35.015.522.027.871.008.234-.037.437-.123.606a.884.884 0 0 1-.384.389c-.173.091-.385.14-.63.147l-.687.022c-.005-.163-.004-.245-.01-.409z"/>
        </g>
        <path fill="none" stroke="#fff" d="M158.192 74.72l.257 14.033"/>
        <path fill="#fff" fill-rule="evenodd" d="M151.55 78.49l-1.993 6.42 5.378-4.12-6.681.216 5.713 3.764z"/>
        <g>
            <path fill="#fff" d="M151.476 77.51c.505.52 1.798 1.283 3.974 1.244-1.254 3.025 2.266 5.659-3.699 7.864-5.743-1.89-2.583-4.64-4.216-7.547a7.247 7.247 0 0 0 1.07-.098c1.596-.27 2.524-1.022 2.87-1.463m-.077-1.517l-.71.9c-.24.306-.984.882-2.25 1.095-.294.05-.604.078-.924.084l-1.672.033.82 1.458c.44.783.427 1.56.413 2.462-.029 1.821-.065 4.087 4.364 5.545l.332.109.329-.122c4.337-1.604 4.448-3.66 4.16-5.99-.108-.848-.207-1.649.117-2.429l.587-1.41-1.528.028c-2.22.04-3.141-.842-3.24-.942z"/>
        </g>
        <path fill="#fff" d="M152.318 96.521l-.316-.058a2.483 2.483 0 0 1-1.115-.5l.409-.536c.189.156.398.27.623.343.225.073.469.105.73.097.352-.011.623-.085.813-.221a.635.635 0 0 0 .275-.563v-.003a.589.589 0 0 0-.146-.399.799.799 0 0 0-.349-.21 3.891 3.891 0 0 0-.543-.115c-.008-.002-.016-.002-.022-.002-.008 0-.016 0-.021-.003l-.051-.008a5.24 5.24 0 0 1-.801-.164 1.128 1.128 0 0 1-.536-.369c-.15-.182-.231-.444-.242-.788v-.003a1.406 1.406 0 0 1 .18-.777c.128-.217.319-.386.574-.505a2.37 2.37 0 0 1 .928-.197 2.36 2.36 0 0 1 1.02.195c.166.069.33.158.492.267l-.371.554a2.318 2.318 0 0 0-.563-.289 1.594 1.594 0 0 0-.558-.084c-.331.01-.588.085-.768.224a.65.65 0 0 0-.257.572v.003a.546.546 0 0 0 .152.391c.098.093.22.16.362.201a5.102 5.102 0 0 0 .719.143c.295.051.544.114.744.191.199.076.369.204.507.384.14.179.213.429.223.748l.001.007c.009.297-.053.553-.187.768a1.319 1.319 0 0 1-.596.501c-.264.119-.582.184-.959.196l-.351.009zM158.669 93.649l.026.85c.012.361-.049.682-.182.962-.131.28-.323.499-.577.657a1.725 1.725 0 0 1-.886.253 1.849 1.849 0 0 1-.913-.184 1.478 1.478 0 0 1-.622-.581 1.846 1.846 0 0 1-.242-.894l-.046-1.435a2.041 2.041 0 0 1 .182-.96 1.52 1.52 0 0 1 .576-.656c.254-.159.55-.244.888-.254.278-.009.539.043.777.155.238.111.441.274.606.488.166.213.28.463.346.75l-.739.022a1.073 1.073 0 0 0-.218-.414.943.943 0 0 0-.348-.256.918.918 0 0 0-.404-.08.96.96 0 0 0-.522.161.95.95 0 0 0-.339.414 1.382 1.382 0 0 0-.105.608l.045 1.435c.007.21.055.392.146.546a.894.894 0 0 0 .371.355c.156.083.336.121.54.114a.998.998 0 0 0 .524-.152.89.89 0 0 0 .339-.404 1.39 1.39 0 0 0 .105-.616l-.007-.211-.986.031-.021-.652zM159.466 95.563l.682-.022.021.683-.682.021zM162.225 91.291l.682-.021.153 4.864-.683.021zm.621 2.713l2.062-2.797.841-.026-2.971 3.85zm.795-.487l.522-.515 1.94 3.037-.836.026zM167.945 91.112l.581-.018 1.946 4.808-.735.023-1.473-3.882-1.224 3.966-.736.023zm-.868 3.178l2.56-.08.021.649-2.561.08zM172.221 95.896l-.317-.057a2.51 2.51 0 0 1-1.114-.501l.41-.535c.189.154.397.269.623.342.226.073.469.106.73.098.351-.011.622-.085.813-.221a.631.631 0 0 0 .273-.563v-.003a.59.59 0 0 0-.146-.399.772.772 0 0 0-.348-.21 3.846 3.846 0 0 0-.587-.12l-.051-.008a5.365 5.365 0 0 1-.801-.164 1.118 1.118 0 0 1-.536-.369c-.15-.182-.231-.444-.243-.788v-.003c-.01-.301.051-.56.179-.777.128-.218.319-.386.576-.505.255-.12.563-.185.928-.196.174-.006.346.008.515.041.17.033.338.084.504.154.167.069.33.159.492.267l-.371.554a2.265 2.265 0 0 0-.563-.289 1.594 1.594 0 0 0-.558-.084c-.332.01-.588.085-.768.223a.652.652 0 0 0-.258.572v.003a.543.543 0 0 0 .153.39c.098.094.219.16.361.202.144.041.342.083.596.124l.025.004.025.004.036.006.037.005c.295.051.545.115.744.191.201.076.369.204.508.384.138.179.213.429.224.748v.007a1.35 1.35 0 0 1-.187.767 1.31 1.31 0 0 1-.597.501c-.264.119-.583.184-.959.196l-.348.009zM176.039 95.564a1.4 1.4 0 0 1-.604-.6c-.143-.268-.22-.591-.231-.972l-.098-3.104.684-.021.097 3.128c.011.354.109.626.294.814.186.189.439.278.765.268.328-.011.579-.115.753-.315.173-.2.255-.477.243-.831l-.098-3.128.683-.021.097 3.104c.012.382-.045.71-.17.986a1.404 1.404 0 0 1-.566.637c-.252.15-.559.23-.919.242-.361.009-.671-.053-.93-.187zM179.663 90.745l.62-.02 2.496 3.686-.078.089-.12-3.847.675-.021.152 4.861-.625.019-2.487-3.629.077-.09.118 3.791-.676.021z"/>
    </g>
</svg>
