<svg xmlns="http://www.w3.org/2000/svg" xmlns:xlink="http://www.w3.org/1999/xlink" viewBox="0 0 64 64">
    <defs>
        <linearGradient id="futaPregnancyGradient">
            <stop offset="0" stop-color="#f55"/>
            <stop offset="1" stop-color="#ff8080"/>
        </linearGradient>
        <linearGradient id="linearGradient15" x1="29.5" x2="44.125" y1="1025.487" y2="1003.362" gradientTransform="matrix(1.28844 0 0 1.29051 -9.225 -296.313)" gradientUnits="userSpaceOnUse" xlink:href="#futaPregnancyGradient"/>
    </defs>
    <g transform="translate(0 -988.362)">
        <ellipse cx="32" cy="1020.368" fill="url(#linearGradient15)" fill-rule="evenodd" rx="30.383" ry="30.381"/>
        <ellipse cx="32.884" cy="1020.702" fill="#fff" stroke="#fff" stroke-linecap="round" stroke-linejoin="round" stroke-width=".411" rx="10.736" ry="10.557"/>
        <g fill="#fff" transform="matrix(.81 0 0 .81 7.11 194.17)">
            <ellipse cx="14.943" cy="1021.221" stroke="#fff" stroke-linecap="round" stroke-linejoin="round" stroke-width=".437" rx="2.088" ry=".937"/>
            <path d="M13.228 1021.244l.253-.431a3.983 3.983 0 0 0-1.478-.51 4.763 4.763 0 0 0-1.42.03c-.882.145-1.709.479-2.57.809-.864.33-1.614.59-2.357.624a2.935 2.935 0 0 1-1.15-.166 3.118 3.118 0 0 1-1.131-.738c.288.288.647.589 1.104.802.35.164.734.267 1.174.3.788.057 1.6-.117 2.51-.345.93-.234 1.703-.445 2.509-.488.438-.023.82.01 1.17.087a3.9 3.9 0 0 1 1.133.457l.253-.431z"/>
        </g>
        <g fill="#fff" transform="matrix(.51823 -.62252 .62252 .51823 -617.86 512.247)">
            <ellipse cx="14.943" cy="1021.221" stroke="#fff" stroke-linecap="round" stroke-linejoin="round" stroke-width=".437" rx="2.088" ry=".937"/>
            <path d="M13.228 1021.244l.253-.431a3.983 3.983 0 0 0-1.478-.51 4.763 4.763 0 0 0-1.42.03c-.882.145-1.709.479-2.57.809-.864.33-1.614.59-2.357.624a2.935 2.935 0 0 1-1.15-.166 3.118 3.118 0 0 1-1.131-.738c.288.288.647.589 1.104.802.35.164.734.267 1.174.3.788.057 1.6-.117 2.51-.345.93-.234 1.703-.445 2.509-.488.438-.023.82.01 1.17.087a3.9 3.9 0 0 1 1.133.457l.253-.431z"/>
        </g>
        <g fill="#fff" transform="rotate(-125.338 79.66 921.396) scale(.81)">
            <ellipse cx="14.943" cy="1021.221" stroke="#fff" stroke-linecap="round" stroke-linejoin="round" stroke-width=".437" rx="2.088" ry=".937"/>
            <path d="M13.228 1021.244l.253-.431a3.983 3.983 0 0 0-1.478-.51 4.763 4.763 0 0 0-1.42.03c-.882.145-1.709.479-2.57.809-.864.33-1.614.59-2.357.624a2.935 2.935 0 0 1-1.15-.166 3.118 3.118 0 0 1-1.131-.738c.288.288.647.589 1.104.802.35.164.734.267 1.174.3.788.057 1.6-.117 2.51-.345.93-.234 1.703-.445 2.509-.488.438-.023.82.01 1.17.087a3.9 3.9 0 0 1 1.133.457l.253-.431z"/>
        </g>
        <g fill="#fff" transform="rotate(132.995 -12.526 925.48) scale(.81)">
            <ellipse cx="14.943" cy="1021.221" stroke="#fff" stroke-linecap="round" stroke-linejoin="round" stroke-width=".437" rx="2.088" ry=".937"/>
            <path d="M13.228 1021.244l.253-.431a3.983 3.983 0 0 0-1.478-.51 4.763 4.763 0 0 0-1.42.03c-.882.145-1.709.479-2.57.809-.864.33-1.614.59-2.357.624a2.935 2.935 0 0 1-1.15-.166 3.118 3.118 0 0 1-1.131-.738c.288.288.647.589 1.104.802.35.164.734.267 1.174.3.788.057 1.6-.117 2.51-.345.93-.234 1.703-.445 2.509-.488.438-.023.82.01 1.17.087a3.9 3.9 0 0 1 1.133.457l.253-.431z"/>
        </g>
        <g fill="#fff" transform="rotate(60.135 -136.92 930.828) scale(.81)">
            <ellipse cx="14.943" cy="1021.221" stroke="#fff" stroke-linecap="round" stroke-linejoin="round" stroke-width=".437" rx="2.088" ry=".937"/>
            <path d="M13.228 1021.244l.253-.431a3.983 3.983 0 0 0-1.478-.51 4.763 4.763 0 0 0-1.42.03c-.882.145-1.709.479-2.57.809-.864.33-1.614.59-2.357.624a2.935 2.935 0 0 1-1.15-.166 3.118 3.118 0 0 1-1.131-.738c.288.288.647.589 1.104.802.35.164.734.267 1.174.3.788.057 1.6-.117 2.51-.345.93-.234 1.703-.445 2.509-.488.438-.023.82.01 1.17.087a3.9 3.9 0 0 1 1.133.457l.253-.431z"/>
        </g>
        <g fill="#fff" transform="rotate(96.206 -54.782 924.34) scale(.81)">
            <ellipse cx="14.943" cy="1021.221" stroke="#fff" stroke-linecap="round" stroke-linejoin="round" stroke-width=".437" rx="2.088" ry=".937"/>
            <path d="M13.228 1021.244l.253-.431a3.983 3.983 0 0 0-1.478-.51 4.763 4.763 0 0 0-1.42.03c-.882.145-1.709.479-2.57.809-.864.33-1.614.59-2.357.624a2.935 2.935 0 0 1-1.15-.166 3.118 3.118 0 0 1-1.131-.738c.288.288.647.589 1.104.802.35.164.734.267 1.174.3.788.057 1.6-.117 2.51-.345.93-.234 1.703-.445 2.509-.488.438-.023.82.01 1.17.087a3.9 3.9 0 0 1 1.133.457l.253-.431z"/>
        </g>
        <g fill="#fff" transform="rotate(-163.745 44.624 923.858) scale(.81)">
            <ellipse cx="14.943" cy="1021.221" stroke="#fff" stroke-linecap="round" stroke-linejoin="round" stroke-width=".437" rx="2.088" ry=".937"/>
            <path d="M13.228 1021.244l.253-.431a3.983 3.983 0 0 0-1.478-.51 4.763 4.763 0 0 0-1.42.03c-.882.145-1.709.479-2.57.809-.864.33-1.614.59-2.357.624a2.935 2.935 0 0 1-1.15-.166 3.118 3.118 0 0 1-1.131-.738c.288.288.647.589 1.104.802.35.164.734.267 1.174.3.788.057 1.6-.117 2.51-.345.93-.234 1.703-.445 2.509-.488.438-.023.82.01 1.17.087a3.9 3.9 0 0 1 1.133.457l.253-.431z"/>
        </g>
        <g fill="#fff" transform="rotate(-93.153 120.524 925.434) scale(.81)">
            <ellipse cx="14.943" cy="1021.221" stroke="#fff" stroke-linecap="round" stroke-linejoin="round" stroke-width=".437" rx="2.088" ry=".937"/>
            <path d="M13.228 1021.244l.253-.431a3.983 3.983 0 0 0-1.478-.51 4.763 4.763 0 0 0-1.42.03c-.882.145-1.709.479-2.57.809-.864.33-1.614.59-2.357.624a2.935 2.935 0 0 1-1.15-.166 3.118 3.118 0 0 1-1.131-.738c.288.288.647.589 1.104.802.35.164.734.267 1.174.3.788.057 1.6-.117 2.51-.345.93-.234 1.703-.445 2.509-.488.438-.023.82.01 1.17.087a3.9 3.9 0 0 1 1.133.457l.253-.431z"/>
        </g>
        <g fill="#fff" transform="rotate(23.596 -441.568 940.087) scale(.81)">
            <ellipse cx="14.943" cy="1021.221" stroke="#fff" stroke-linecap="round" stroke-linejoin="round" stroke-width=".437" rx="2.088" ry=".937"/>
            <path d="M13.228 1021.244l.253-.431a3.983 3.983 0 0 0-1.478-.51 4.763 4.763 0 0 0-1.42.03c-.882.145-1.709.479-2.57.809-.864.33-1.614.59-2.357.624a2.935 2.935 0 0 1-1.15-.166 3.118 3.118 0 0 1-1.131-.738c.288.288.647.589 1.104.802.35.164.734.267 1.174.3.788.057 1.6-.117 2.51-.345.93-.234 1.703-.445 2.509-.488.438-.023.82.01 1.17.087a3.9 3.9 0 0 1 1.133.457l.253-.431z"/>
        </g>
    </g>
</svg>
