<svg cursor="default" version="1.1" viewBox="0 0 256 256" xmlns="http://www.w3.org/2000/svg" xmlns:xlink="http://www.w3.org/1999/xlink">
 <defs>
  <linearGradient id="innoGrad0">
   <stop stop-color="#faa" offset="0"/>
   <stop stop-color="#ffd5d5" offset="1"/>
  </linearGradient>
  <linearGradient id="innoGrad1">
   <stop stop-color="#ff8080" offset="0"/>
   <stop stop-color="#ffd5d5" offset="1"/>
  </linearGradient>
  <linearGradient id="linearGradient973" x1="275.57" x2="812.51" y1="185.29" y2="-12.569" gradientTransform="matrix(.1118 -.01396 0 .11611 70.482 65.15)" gradientUnits="userSpaceOnUse" xlink:href="#innoGrad0"/>
  <linearGradient id="linearGradient989" x1="123.36" x2="-334.7" y1="134.13" y2="-52.38" gradientTransform="matrix(.1118 -.01396 0 .11611 70.482 65.15)" gradientUnits="userSpaceOnUse" xlink:href="#innoGrad0"/>
  <linearGradient id="linearGradient997" x1="264.32" x2="307.71" y1="97.193" y2="61.471" gradientTransform="matrix(.1118 -.01396 0 .11611 70.482 65.15)" gradientUnits="userSpaceOnUse" xlink:href="#innoGrad1"/>
  <linearGradient id="linearGradient1079" x1="159.1" x2="265.6" y1="159.19" y2="98.477" gradientTransform="scale(-.1161 .1161) rotate(-23.38 1172.2 3621.9)" gradientUnits="userSpaceOnUse" xlink:href="#innoGrad0"/>
  <linearGradient id="linearGradient1081" x1="275.57" x2="812.51" y1="185.29" y2="-12.569" gradientTransform="scale(-.1161 .1161) rotate(-23.38 1172.2 3621.9)" gradientUnits="userSpaceOnUse" xlink:href="#innoGrad0"/>
  <linearGradient id="linearGradient1083" x1="-13.568" x2="-2.506" y1="167.11" y2="-57.25" gradientTransform="scale(-.1161 .1161) rotate(-23.38 1172.2 3621.9)" gradientUnits="userSpaceOnUse" xlink:href="#innoGrad0"/>
  <linearGradient id="linearGradient1163" x1="159.1" x2="265.6" y1="159.19" y2="98.477" gradientTransform="scale(-.1161 .1161) rotate(-20.298 2993.5 3768.6)" gradientUnits="userSpaceOnUse" xlink:href="#innoGrad0"/>
  <linearGradient id="linearGradient1165" x1="275.57" x2="812.51" y1="185.29" y2="-12.569" gradientTransform="scale(-.1161 .1161) rotate(-20.298 2993.5 3768.6)" gradientUnits="userSpaceOnUse" xlink:href="#innoGrad0"/>
  <linearGradient id="linearGradient1167" x1="-47.389" x2="-.095" y1="141.16" y2="57.124" gradientTransform="scale(-.1161 .1161) rotate(-20.298 2993.5 3768.6)" gradientUnits="userSpaceOnUse" xlink:href="#innoGrad0"/>
  <linearGradient id="linearGradient1169" x1="-407.51" x2="-346.78" y1="142.23" y2="85.154" gradientTransform="matrix(.1161 0 0 .1161 101.2 61.77)" gradientUnits="userSpaceOnUse" xlink:href="#innoGrad1"/>
  <linearGradient id="linearGradient1504" x1="-13.568" x2="-16.538" y1="167.11" y2="109.97" gradientTransform="scale(-.1161 .1161) rotate(-23.38 1172.2 3621.9)" gradientUnits="userSpaceOnUse" xlink:href="#innoGrad0"/>
  <linearGradient id="linearGradient1528" x1="159.1" x2="265.6" y1="159.19" y2="98.477" gradientTransform="matrix(.1161 0 0 .1161 101.2 61.77)" gradientUnits="userSpaceOnUse" xlink:href="#innoGrad0"/>
  <linearGradient id="linearGradient1530" x1="275.57" x2="812.51" y1="185.29" y2="-12.569" gradientTransform="matrix(.1161 0 0 .1161 101.2 61.77)" gradientUnits="userSpaceOnUse" xlink:href="#innoGrad0"/>
  <linearGradient id="linearGradient1532" x1="-13.568" x2="-16.538" y1="167.11" y2="109.97" gradientTransform="matrix(.1161 0 0 .1161 101.2 61.77)" gradientUnits="userSpaceOnUse" xlink:href="#innoGrad0"/>
 </defs>
 <g>
  <g>
   <g stroke="#000">
    <path transform="matrix(1.1217 0 0 1.1217 -11.888 -9.135)" d="M99.053 68.734a5.184 5.184 0 0 0-1.738.599c-4.558 2.504-7.035 5.482-10.107 5.603a5.025 5.025 0 0 1-1.373-.16l-.36.71c1.748.495 3.79 1.854 5.49 1.807 3.068-.084 6.696-3.557 11.254-6.061 1.052-.578 1.566-.705 2.545-.58l.17-.915c-2.051-.372-3.897-1.304-5.881-1.003z" fill="url(#linearGradient997)" stroke-width=".294"/>
    <path d="M15.893 99.531c38.211-7.896 87.216-17.603 143.112-36.567 7.438-2.523 12.55-7.417 11.234-12.252-1.578-5.799-6.5-5.883-7.4-4.99.797.664 1.324 1.719 1.456 3.132.326 3.48-1.637 9.98-8.47 11.962-40.417 11.722-78.423 20.851-140.463 36.21z" fill="#f55" stroke-width=".32979"/>
    <path transform="matrix(1.1217 0 0 1.1217 -11.888 -9.135)" d="M153.304 46.394c-.391.047-.79.111-1.197.194-2.354.478-7.55 4.054-9.045 4.977-10.415 6.432-17.017 11.612-26.26 16.27-3.56 1.796-7.32 2.065-10.388 2.049a8.233 8.233 0 0 1-1.263-.11l-.085.84c1.9.306 3.95 1.397 6.07 1.408 3.068.015 6.34-.604 9.901-2.398 9.243-4.66 15.647-9.726 26.062-16.159 1.496-.923 6.325-4.365 8.678-4.843 2.698-.548 5.601.825 6.042 1.031-1.706-2.506-4.733-3.712-8.515-3.259z" fill="url(#linearGradient973)" stroke-width=".294"/>
    <path transform="matrix(1.1217 0 0 1.1217 -11.888 -9.135)" d="M78.83 72.802a3.17 3.17 0 0 0-.795.225c-4.576 1.98-9.535 8.208-14.194 8.802-14.4 1.836-31.08.584-31.08.584l-.682 3.408c.466.039 21.799 1.658 36.002-.995 4.65-.868 11.428-7.14 16.004-9.12.923-.4 1.008-1.145 1.869-.882v-.022c-2.306-.518-4.915-2.33-7.125-2z" fill="url(#linearGradient989)" stroke-linecap="round" stroke-linejoin="round" stroke-width=".294"/>
    <path d="M14.502 102.75c49.044-12.998 90.981-20.327 146.877-39.291 7.438-2.524 10.167-7.858 9.75-12.97-.32-3.932-3.408-7.026-8.276-6.036-2.64.537-8.468 4.547-10.146 5.583-11.683 7.215-19.088 13.025-29.456 18.251-3.995 2.014-7.158 2.546-10.6 2.529-3.69-.02-6.66-2.948-10.224-.99-5.113 2.809-8.867 6.849-12.31 6.944-2.804.078-5.494-3.229-8.58-1.894-5.132 2.22-12.288 9.294-17.504 10.268-16.12 3.01-38.866 1.094-38.866 1.094l-1.506 2.464c10.324.426 27.063.47 38.139-1.162 2.94-.433 5.066-.945 7.724-2.584 4.199-2.591 6.373-4.67 11.339-7.6 3.017-1.78 6.386 2.27 9.685 1.636 4.39-.844 10.637-6.195 12.668-7.272 2.56-1.358 6.123 1.337 9.106 1.324 3.33-.013 6.298-.204 12.503-3.292 13.444-6.69 22.767-14.962 36.287-22.521 3.681-2.058 7.528.226 7.886 4.059.325 3.48-1.751 7.839-8.483 10.34-43.138 13.357-82.286 23.176-144.58 37.777z" fill="#faa" stroke-width=".32979"/>
   </g>
   <path d="M158.619 43.393a5.53 5.53 0 0 0-.247.07c-1.085.338-2.046.93-2.758 1.393a26.397 26.397 0 0 0-1.55 1.117s.763-.187 1.827-.54c.83-.26 1.82-.626 2.799-.898.069-.02.139-.038.21-.057.212-.055.45-.106.703-.153l-.04.005c1.745-.201 3.455-.947 3.503-.968-.05-.01-1.859-.35-3.631-.145l-.04.005c-.27.05-.532.107-.776.17z" fill="#fff"/>
  </g>
  <g>
   <g stroke="#000">
    <path transform="matrix(1.1217 0 0 1.1217 -12.898 -8.63)" d="M99.889 144.146a5.052 5.052 0 0 1 1.56.984c3.768 3.457 5.255 6.852 8.338 7.712.443.124.933.176 1.453.184l.118.754c-1.949.038-4.498.817-6.21.36-3.093-.826-5.579-4.964-9.347-8.421-.87-.798-1.349-1.042-2.388-1.163l.145-.899c2.216.15 4.417-.276 6.33.49z" fill="url(#linearGradient1163)" stroke-width=".3"/>
    <path d="m172.97 202.93c-36.134-16.696-82.618-37.714-132.9-69.089-6.691-4.175-10.194-10.007-7.178-14.22 3.616-5.056 8.652-3.938 9.259-2.882-1.042 0.43-1.944 1.29-2.568 2.583-1.539 3.185-1.796 9.758 4.467 13.278 37.05 20.82 72.546 38.622 130.33 68.11z" fill="#f55" stroke-width=".33652"/>
    <path transform="matrix(1.1217 0 0 1.1217 -12.898 -8.63)" d="M52.449 110.005c.382.14.765.297 1.15.473 2.229 1.021 6.274 5.638 7.475 6.867 8.364 8.565 13.283 15.027 21.07 21.644 3 2.549 6.731 3.715 9.858 4.446.44.103.881.166 1.323.204l-.206.808c-2.038-.175-4.503.35-6.663-.155-3.127-.732-6.24-2.108-9.24-4.657-7.787-6.616-12.544-12.925-20.908-21.49-1.201-1.23-4.92-5.63-7.148-6.652-2.555-1.17-5.984-.588-6.504-.501 2.605-1.936 6.102-2.33 9.793-.987z" fill="url(#linearGradient1165)" stroke-width=".3"/>
    <path transform="matrix(1.1217 0 0 1.1217 -12.898 -8.63)" d="M119.05 152.878c.263.104.507.237.73.404 3.969 2.97 6.854 10.016 11.386 11.706 14.012 5.223 31.416 8.104 31.416 8.104l-.49 3.362c-.487-.077-22.75-3.745-36.278-9.686-4.429-1.945-9.15-9.476-13.117-12.445-.8-.599-.629-1.318-1.595-1.28l.008-.021c2.525.075 5.808-.99 7.941-.144z" fill="url(#linearGradient1167)" stroke-linecap="round" stroke-linejoin="round" stroke-width=".3"/>
    <path d="M173.272 206.283c-45.383-24.114-85.503-41.183-135.786-72.558-6.692-4.175-7.617-9.841-5.42-14.534 1.69-3.609 5.903-5.76 10.512-3.648 2.5 1.145 7.038 6.323 8.385 7.702 9.382 9.607 14.9 16.857 23.635 24.279 3.365 2.859 6.398 4.128 9.905 4.948 3.761.88 7.798-1.146 10.745 1.557 4.227 3.878 6.644 8.58 10.113 9.506 2.826.754 6.71-1.693 9.385.309 4.451 3.33 9.277 11.704 14.246 13.886 15.355 6.742 39.158 10.475 39.158 10.475l.677 2.677c-10.65-2.11-27.693-6.139-38.395-10.362-2.84-1.121-4.825-2.118-6.96-4.302-3.373-3.45-4.864-5.928-8.9-9.884-2.452-2.403-7.284.577-10.42-.82-4.173-1.86-8.671-8.396-10.364-9.9-2.133-1.896-6.693-.235-9.723-.972-3.383-.823-6.336-1.723-11.577-6.128-11.356-9.541-17.97-19.566-29.103-29.943-3.03-2.825-7.735-1.618-9.43 1.89-1.538 3.184-.937 7.776 5.043 11.76 39.251 23.014 75.67 41.74 133.975 70.58z" fill="#ff8080" stroke-width=".33652"/>
   </g>
   <path d="M120.046 164.335c.12.022.19.02.192.031.849.389 1.712 1.128 2.365 1.656.81.72 1.405 1.177 1.405 1.177s-.357-.659-.952-1.581c-.49-.701-1.222-1.655-2.317-2.247a1.544 1.544 0 0 0-.572-.151c-.442-.048-.978-.023-1.534.023-.59.049-1.146.253-1.564.45a5.99 5.99 0 0 0-.514.273 4.634 4.634 0 0 0-.148.092c-.03.036-.057.04-.06.04h-.001c.004 0 .032-.005.07.02l.17.04c.14.033.336.076.564.113.447.075 1.026.135 1.575.09.524-.044 1.033-.058 1.32-.026zM98.747 154.547c1.797 1.325 3.926 2.198 3.926 2.198s-1.465-1.775-3.261-3.1l-.072-.045a2.003 2.003 0 0 0-.452-.188c-.673-.193-1.326-.112-1.811-.017a6.485 6.485 0 0 0-.747.186c-.098.03-.175.057-.23.077-.049.037-.091.035-.092.035.001 0 .043-.003.092.035l.225.085c.18.066.428.153.714.243.478.151 1.044.282 1.531.432a1.01 1.01 0 0 1 .248.105zM46.662 116.55c.066.034.13.069.194.104.887.484 1.762 1.067 2.504 1.51.942.585 1.632.94 1.632.94s-.476-.611-1.23-1.433c-.58-.615-1.375-1.413-2.353-1.99a5.45 5.45 0 0 0-.226-.125 12.013 12.013 0 0 0-.731-.348l-.037-.015c-1.732-.622-3.624-.723-3.674-.726h-.001c.042.031 1.59 1.168 3.296 1.781l-.036-.014c.24.106.465.212.662.316z" fill="#fff"/>
  </g>
  <g>
   <path transform="rotate(-20.298 458.19 -173.25) scale(1.1217)" d="M61.842 78.315a5.64 5.64 0 0 1-7.919.937 5.64 5.64 0 0 1-.939-7.918 5.64 5.64 0 0 1 7.918-.941 5.64 5.64 0 0 1 .943 7.918" fill="url(#linearGradient1169)" stroke="#000" stroke-linecap="round" stroke-linejoin="round" stroke-width=".3"/>
   <path transform="rotate(-20.298 458.19 -173.25) scale(1.1217)" d="M61.842 78.315a5.64 5.64 0 0 1-7.919.937 5.64 5.64 0 0 1-.939-7.918 5.64 5.64 0 0 1 7.918-.941 5.64 5.64 0 0 1 .943 7.918" fill="url(#linearGradient1169)" stroke="#000" stroke-linecap="round" stroke-linejoin="round" stroke-width=".3"/>
   <path d="M179.886 199.138c-1.287-.407-2.522-.156-3.392.2-.859.35-1.318.746-1.318.746s2.408-.553 4.36.12c.022.006.043.014.065.021 1.395.468 2.94 1.4 2.94 1.4s-.661-1.787-2.575-2.46a5.818 5.818 0 0 0-.08-.027z" fill="#fff"/>
  </g>
  <g>
   <g stroke="#000">
    <path transform="matrix(1.1217 0 0 1.1217 -12.898 -8.63)" d="M125.617 83.319a5.052 5.052 0 0 1 1.505 1.066c3.577 3.655 4.879 7.125 7.911 8.15a5.74 5.74 0 0 0 1.441.26l.078.76c-1.948-.066-4.535.574-6.221.026-3.044-.991-5.303-5.257-8.88-8.911-.826-.844-1.291-1.113-2.322-1.29l.193-.89c2.204.269 4.425-.038 6.295.829z" fill="url(#linearGradient1079)" stroke-width=".3"/>
    <path d="m199.05 138.59c-35.184-18.613-80.471-42.1-129-76.133-6.458-4.53-9.641-10.541-6.404-14.587 3.883-4.853 8.852-3.466 9.4-2.38-1.062 0.374-2.01 1.184-2.703 2.442-1.707 3.098-2.318 9.648 3.748 13.5 35.876 22.78 70.364 42.465 126.48 75.017z" fill="#f55" stroke-width=".33652"/>
    <path transform="matrix(1.1217 0 0 1.1217 -12.898 -8.63)" d="M80.081 46.677c.374.16.749.337 1.124.534 2.17 1.14 5.962 5.966 7.095 7.259 7.891 9.002 12.456 15.72 19.876 22.745 2.858 2.706 6.521 4.071 9.604 4.97.433.126.87.212 1.31.274l-.249.797c-2.026-.285-4.515.106-6.645-.514-3.083-.898-6.118-2.44-8.977-5.146-7.42-7.026-11.83-13.582-19.722-22.583-1.133-1.293-4.61-5.888-6.78-7.027-2.488-1.306-5.943-.91-6.467-.85 2.705-1.794 6.218-2 9.831-.46z" fill="url(#linearGradient1081)" stroke-width=".3"/>
    <path transform="matrix(1.1217 0 0 1.1217 -12.898 -8.63)" d="M144.282 93.069c.256.117.493.263.707.442 3.803 3.178 6.305 10.37 10.74 12.3 13.71 5.97 30.934 9.783 30.934 9.783l-.669 3.33c-.483-.102-22.516-4.963-35.705-11.622-4.318-2.18-8.627-9.954-12.43-13.132-.767-.641-.556-1.35-1.524-1.365l.01-.02c2.517.21 5.853-.677 7.937.284z" fill="url(#linearGradient1083)" stroke-linecap="round" stroke-linejoin="round" stroke-width=".3"/>
    <path d="M199.164 141.959c-44.02-26.52-83.165-45.721-131.689-79.754-6.457-4.529-7.077-10.236-4.63-14.805 1.88-3.512 6.204-5.433 10.692-3.077 2.435 1.278 6.688 6.693 7.959 8.142 8.852 10.098 13.972 17.633 22.295 25.514 3.207 3.036 6.168 4.466 9.625 5.474 3.709 1.08 7.85-.725 10.646 2.133 4.012 4.099 6.174 8.924 9.588 10.035 2.781.905 6.79-1.33 9.354.813 4.266 3.565 8.635 12.186 13.479 14.632 14.97 7.559 38.539 12.565 38.539 12.565l.532 2.71c-10.522-2.68-27.324-7.619-37.783-12.411-2.776-1.273-4.704-2.375-6.719-4.67-3.183-3.627-4.538-6.181-8.355-10.348-2.32-2.532-7.304.184-10.361-1.38-4.067-2.08-8.207-8.85-9.817-10.443-2.027-2.007-6.67-.594-9.657-1.493-3.334-1.003-6.234-2.061-11.23-6.74C90.804 68.715 84.738 58.35 74.18 47.39c-2.875-2.984-7.638-2.032-9.518 1.38-1.707 3.097-1.354 7.714 4.403 12.013 37.957 25.092 73.316 45.75 129.987 77.68z" fill="#ff8080" stroke-width=".33652"/>
   </g>
   <path d="M127.529 86.291c1.723 1.42 3.802 2.406 3.802 2.406s-1.368-1.851-3.09-3.27l-.07-.05a2.001 2.001 0 0 0-.442-.212l-.104-.026c-1.352-.2-2.74.14-2.786.151.041.025 1.316.763 2.621.957l-.105-.025c.07.025.124.05.149.064l.093.055zM77.562 45.548l.188.114c.86.532 1.702 1.16 2.419 1.643.91.635 1.579 1.027 1.579 1.027s-.443-.636-1.15-1.498c-.547-.645-1.298-1.484-2.244-2.113a5.492 5.492 0 0 0-.22-.137c-.22-.131-.46-.26-.71-.387l-.036-.016c-1.696-.715-3.58-.918-3.63-.923-.001 0 0 0 0 0 .04.033 1.524 1.251 3.195 1.956l-.036-.016c.234.118.453.236.645.35z" fill="#fff"/>
  </g>
  <g>
   <g>
    <path transform="matrix(1.1217 0 0 1.1217 -44.126 1.06)" d="M61.842 78.315a5.64 5.64 0 0 1-7.919.937 5.64 5.64 0 0 1-.939-7.918 5.64 5.64 0 0 1 7.918-.941 5.64 5.64 0 0 1 .943 7.918" fill="url(#linearGradient1169)" stroke="#000" stroke-linecap="round" stroke-linejoin="round" stroke-width=".3"/>
    <path transform="matrix(1.1217 0 0 1.1217 -44.126 1.06)" d="M61.842 78.315a5.64 5.64 0 0 1-7.919.937 5.64 5.64 0 0 1-.939-7.918 5.64 5.64 0 0 1 7.918-.941 5.64 5.64 0 0 1 .943 7.918" fill="url(#linearGradient1169)" stroke="#000" stroke-linecap="round" stroke-linejoin="round" stroke-width=".3"/>
    <path d="M23.86 80.529c-1.065-.828-2.311-1.021-3.25-.99-.928.032-1.495.244-1.495.244s2.45.317 4.048 1.624l.053.043c1.146.923 2.27 2.333 2.27 2.333s.002-1.906-1.56-3.201a5.818 5.818 0 0 0-.065-.053z" fill="#fff"/>
   </g>
  </g>
  <g>
   <g fill="url(#linearGradient1169)" stroke="#000" stroke-linecap="round" stroke-linejoin="round" stroke-width=".3">
    <path transform="matrix(1.1217 0 0 1.1217 -53.34 15.282)" d="M61.842 78.315a5.64 5.64 0 0 1-7.919.937 5.64 5.64 0 0 1-.939-7.918 5.64 5.64 0 0 1 7.918-.941 5.64 5.64 0 0 1 .943 7.918"/>
    <path transform="matrix(1.1217 0 0 1.1217 -53.34 15.282)" d="M61.842 78.315a5.64 5.64 0 0 1-7.919.937 5.64 5.64 0 0 1-.939-7.918 5.64 5.64 0 0 1 7.918-.941 5.64 5.64 0 0 1 .943 7.918"/>
   </g>
  </g>
  <g>
   <g>
    <path transform="matrix(1.1217 0 0 1.1217 134.75 39.524)" d="M61.842 78.315a5.64 5.64 0 0 1-7.919.937 5.64 5.64 0 0 1-.939-7.918 5.64 5.64 0 0 1 7.918-.941 5.64 5.64 0 0 1 .943 7.918" fill="url(#linearGradient1169)" stroke="#000" stroke-linecap="round" stroke-linejoin="round" stroke-width=".3"/>
    <path transform="matrix(1.1217 0 0 1.1217 134.75 39.524)" d="M61.842 78.315a5.64 5.64 0 0 1-7.919.937 5.64 5.64 0 0 1-.939-7.918 5.64 5.64 0 0 1 7.918-.941 5.64 5.64 0 0 1 .943 7.918" fill="url(#linearGradient1169)" stroke="#000" stroke-linecap="round" stroke-linejoin="round" stroke-width=".3"/>
    <path d="M202.735 118.994c-1.067-.828-2.312-1.021-3.251-.99-.928.032-1.495.244-1.495.244s2.45.316 4.048 1.624l.053.043c1.146.923 2.27 2.333 2.27 2.333s.001-1.906-1.56-3.201a5.818 5.818 0 0 0-.065-.053z" fill="#fff"/>
   </g>
  </g>
  <g>
   <g>
    <path transform="matrix(1.1217 0 0 1.1217 139.28 56.238)" d="M61.842 78.315a5.64 5.64 0 0 1-7.919.937 5.64 5.64 0 0 1-.939-7.918 5.64 5.64 0 0 1 7.918-.941 5.64 5.64 0 0 1 .943 7.918" fill="url(#linearGradient1169)" stroke="#000" stroke-linecap="round" stroke-linejoin="round" stroke-width=".3"/>
    <path transform="matrix(1.1217 0 0 1.1217 139.28 56.238)" d="M61.842 78.315a5.64 5.64 0 0 1-7.919.937 5.64 5.64 0 0 1-.939-7.918 5.64 5.64 0 0 1 7.918-.941 5.64 5.64 0 0 1 .943 7.918" fill="url(#linearGradient1169)" stroke="#000" stroke-linecap="round" stroke-linejoin="round" stroke-width=".3"/>
    <path d="M207.267 135.707c-1.066-.827-2.312-1.02-3.25-.989-.929.032-1.496.243-1.496.243s2.45.317 4.048 1.625l.053.042c1.146.923 2.271 2.333 2.271 2.333s.001-1.905-1.56-3.2a5.818 5.818 0 0 0-.066-.054z" fill="#fff"/>
   </g>
  </g>
  <g>
   <g stroke="#000">
    <path transform="rotate(5.232 -55.384 407.19) scale(1.1217)" d="M130.87 68.922a5.052 5.052 0 0 0-1.805.382c-4.734 1.935-7.306 4.604-10.496 4.34a5.742 5.742 0 0 1-1.426-.331l-.373.666c1.815.712 3.935 2.327 5.7 2.492 3.187.299 6.954-2.72 11.687-4.655 1.093-.447 1.627-.51 2.643-.263l.176-.893c-2.13-.628-4.046-1.79-6.107-1.738z" fill="url(#linearGradient1528)" stroke-width=".3"/>
    <path d="M87.931 110.3c39.8.507 90.805 1.575 149.701-5.066 7.838-.884 13.511-4.637 12.607-9.74-1.085-6.12-6.112-7.281-7.114-6.59.755.837 1.198 2.002 1.204 3.438.016 3.537-2.584 9.58-9.753 10.056-42.405 2.82-82.108 3.587-146.959 5.292z" fill="#f55" stroke-width=".33652"/>
    <path transform="rotate(5.232 -55.384 407.19) scale(1.1217)" d="M187.207 53.359c-.407-.002-.821.012-1.244.044-2.444.184-7.84 3.11-9.392 3.848-10.816 5.13-17.671 9.485-27.27 12.99-3.698 1.35-7.602 1.15-10.788.75a9.335 9.335 0 0 1-1.311-.267l-.088.83c1.973.542 4.102 1.889 6.304 2.165 3.186.399 6.583.188 10.28-1.162 9.6-3.504 16.25-7.771 27.065-12.902 1.553-.737 6.568-3.575 9.012-3.76 2.802-.211 5.816 1.524 6.274 1.786-1.772-2.72-4.915-4.303-8.842-4.322z" fill="url(#linearGradient1530)" stroke-width=".3"/>
    <path transform="rotate(5.232 -55.384 407.19) scale(1.1217)" d="M109.868 70.465a3.153 3.153 0 0 0-.825.126c-4.751 1.408-9.902 7.016-14.74 7.029-14.953.038-32.275-3.297-32.275-3.297l-.708 3.323c.484.097 22.637 4.379 37.386 3.5 4.829-.288 11.868-5.713 16.62-7.121.959-.285 1.047-1.019 1.94-.649v-.022c-2.394-.806-5.104-2.944-7.398-2.889z" fill="url(#linearGradient1532)" stroke-linecap="round" stroke-linejoin="round" stroke-width=".3"/>
    <path d="M86.216 113.2c51.344-2.2 94.903-.313 153.799-6.954 7.837-.884 11.115-5.598 11.155-10.78.03-3.984-2.846-7.74-7.914-7.822-2.75-.044-9.076 2.673-10.886 3.338-12.606 4.625-20.71 8.789-31.79 11.721-4.269 1.13-7.553.968-11.071.196-3.773-.827-6.544-4.394-10.367-3.225-5.485 1.678-9.693 4.878-13.223 4.22-2.875-.538-5.325-4.42-8.602-3.766-5.451 1.087-13.415 6.563-18.839 6.39-16.761-.533-39.85-7.423-39.85-7.423l-1.764 2.123c10.52 2.686 27.635 6.396 39.112 7.197 3.046.213 5.267.169 8.135-.882 4.53-1.66 6.944-3.253 12.29-5.083 3.248-1.112 6.324 3.66 9.756 3.75 4.567.12 11.444-3.84 13.62-4.467 2.74-.791 6.14 2.672 9.192 3.314 3.407.715 6.46 1.175 13.087-.54 14.36-3.717 24.649-9.912 39.166-14.478 3.953-1.243 7.678 1.874 7.695 5.77.016 3.536-2.506 7.42-9.618 8.438-45.338 3.851-86.271 5.054-151.312 5.95z" fill="#faa" stroke-width=".33652"/>
   </g>
   <g>
    <path transform="rotate(5.232 -55.384 407.19) scale(1.1217)" d="M61.842 78.315a5.64 5.64 0 0 1-7.919.937 5.64 5.64 0 0 1-.939-7.918 5.64 5.64 0 0 1 7.918-.941 5.64 5.64 0 0 1 .943 7.918" fill="url(#linearGradient1169)" stroke="#000" stroke-linecap="round" stroke-linejoin="round" stroke-width=".3"/>
    <path transform="rotate(5.232 -55.384 407.19) scale(1.1217)" d="M61.842 78.315a5.64 5.64 0 0 1-7.919.937 5.64 5.64 0 0 1-.939-7.918 5.64 5.64 0 0 1 7.918-.941 5.64 5.64 0 0 1 .943 7.918" fill="url(#linearGradient1169)" stroke="#000" stroke-linecap="round" stroke-linejoin="round" stroke-width=".3"/>
    <path d="M97.352 92.083c-.986-.921-2.209-1.227-3.147-1.281-.926-.053-1.51.106-1.51.106s2.41.538 3.882 1.986l.05.048c1.056 1.023 2.048 2.53 2.048 2.53s.175-1.898-1.262-3.33l-.06-.059z" fill="#fff"/>
   </g>
   <g fill="url(#linearGradient1169)" stroke="#000" stroke-linecap="round" stroke-linejoin="round" stroke-width=".3">
    <path transform="rotate(5.232 -207.22 296.17) scale(1.1217)" d="M61.842 78.315a5.64 5.64 0 0 1-7.919.937 5.64 5.64 0 0 1-.939-7.918 5.64 5.64 0 0 1 7.918-.941 5.64 5.64 0 0 1 .943 7.918"/>
    <path transform="rotate(5.232 -207.22 296.17) scale(1.1217)" d="M61.842 78.315a5.64 5.64 0 0 1-7.919.937 5.64 5.64 0 0 1-.939-7.918 5.64 5.64 0 0 1 7.918-.941 5.64 5.64 0 0 1 .943 7.918"/>
   </g>
   <path d="M152.694 97.228a1.543 1.543 0 0 0-.58-.11c-1.244.062-2.315.608-3.06 1.029-.934.576-1.54 1.017-1.54 1.017s.734-.156 1.775-.457c.817-.195 1.914-.49 2.847-.475.008-.009.07.023.187.055.274.095.727.327 1.181.592.477.278 1.025.473 1.46.598.222.064.418.111.558.142.07.016.13.027.17.035.046-.005.069.012.072.013 0 .001 0 0 0 0s0 .001 0 0c-.003-.001-.027-.017-.037-.062a5.97 5.97 0 0 0-.44-.615c-.293-.357-.707-.782-1.218-1.08-.482-.281-.955-.535-1.375-.682zM175.634 97.523c-1.102.045-2.124.39-2.887.698a13.2 13.2 0 0 0-1.051.476 10.411 10.411 0 0 0-.392.209c-.022.012-.033.02-.033.02l.038-.002.097-.005.345-.018c.28-.015.68-.04 1.136-.07.79-.053 1.857-.153 2.79-.187l.108-.003c.028 0 .087.003.161.015.505.075 1.072.2 1.568.27.297.042.558.07.75.09l.239.02c.06-.013.097.007.098.007 0 0-.04-.017-.068-.07a6.492 6.492 0 0 0-.768-.659c-.397-.295-.951-.65-1.642-.766a2.003 2.003 0 0 0-.49-.025zM239.095 85.672a5.449 5.449 0 0 0-.258.015c-1.132.1-2.193.477-2.982.781-1.033.418-1.727.765-1.727.765s.776-.024 1.878-.146c.86-.08 1.902-.229 2.91-.284a10.628 10.628 0 0 1 .954-.01c.848.027 1.737-.009 2.422-.06.366-.027.682-.059.905-.084l.27-.031c.059-.023.105-.014.106-.014 0 0-.048-.005-.098-.044a11.688 11.688 0 0 0-1.112-.422c-.666-.215-1.543-.437-2.458-.465-.281-.01-.554-.01-.81-.001z" fill="#fff"/>
  </g>
  <g>
   <g stroke="#000" stroke-width=".3">
    <path transform="matrix(-1.0062 -.5737 -.3797 1.1065 322.51 141.58)" d="M125.617 83.319a5.052 5.052 0 0 1 1.505 1.066c3.577 3.655 4.879 7.125 7.911 8.15a5.74 5.74 0 0 0 1.441.26l.078.76c-1.948-.066-4.535.574-6.221.026-3.044-.991-5.303-5.257-8.88-8.911-.826-.844-1.291-1.113-2.322-1.29l.193-.89c2.204.269 4.425-.038 6.295.829z" fill="url(#linearGradient1079)"/>
    <path transform="matrix(-1.0062 -.5737 -.3797 1.1065 322.51 141.58)" d="m188.94 131.24c-31.365-16.593-71.738-37.531-115-67.87-5.756-4.038-8.594-9.397-5.708-13.004 3.462-4.327 7.891-3.09 8.38-2.122-0.948 0.333-1.792 1.056-2.41 2.177-1.522 2.761-2.066 8.6 3.34 12.034 31.984 20.309 62.729 37.857 112.75 66.877z" fill="#f55"/>
    <path transform="matrix(-1.0062 -.5737 -.3797 1.1065 322.51 141.58)" d="M80.081 46.677c.374.16.749.337 1.124.534 2.17 1.14 5.962 5.966 7.095 7.259 7.891 9.002 12.456 15.72 19.876 22.745 2.858 2.706 6.521 4.071 9.604 4.97.433.126.87.212 1.31.274l-.249.797c-2.026-.285-4.515.106-6.645-.514-3.083-.898-6.118-2.44-8.977-5.146-7.42-7.026-11.83-13.582-19.722-22.583-1.133-1.293-4.61-5.888-6.78-7.027-2.488-1.306-5.943-.91-6.467-.85 2.705-1.794 6.218-2 9.831-.46z" fill="url(#linearGradient1081)"/>
    <path transform="matrix(-1.0062 -.5737 -.3797 1.1065 322.51 141.58)" d="M144.282 93.069c.256.117.493.263.707.442 3.803 3.178 6.305 10.37 10.74 12.3 13.71 5.97 30.934 9.783 30.934 9.783l-.669 3.33c-.483-.102-22.516-4.963-35.705-11.622-4.318-2.18-8.627-9.954-12.43-13.132-.767-.641-.556-1.35-1.524-1.365l.01-.02c2.517.21 5.853-.677 7.937.284z" fill="url(#linearGradient1504)" stroke-linecap="round" stroke-linejoin="round"/>
    <path transform="matrix(-1.0062 -.5737 -.3797 1.1065 322.51 141.58)" d="M189.047 134.245c-39.243-23.64-74.139-40.758-117.397-71.098-5.756-4.037-6.309-9.125-4.128-13.198 1.677-3.131 5.532-4.844 9.533-2.743 2.17 1.139 5.961 5.966 7.095 7.258 7.891 9.002 12.455 15.72 19.875 22.745 2.859 2.707 5.498 3.982 8.58 4.88 3.307.963 6.998-.646 9.49 1.901 3.578 3.655 5.505 7.956 8.548 8.946 2.48.808 6.054-1.184 8.34.726 3.802 3.178 7.697 10.863 12.015 13.043 13.346 6.739 34.357 11.202 34.357 11.202l.474 2.415c-9.38-2.389-24.358-6.791-33.682-11.064-2.475-1.134-4.194-2.117-5.99-4.163-2.837-3.233-4.045-5.51-7.448-9.225-2.068-2.256-6.512.165-9.237-1.23-3.625-1.854-7.316-7.89-8.751-9.31-1.808-1.789-5.947-.53-8.61-1.33-2.971-.895-5.557-1.838-10.011-6.01-9.651-9.038-15.06-18.28-24.472-28.05-2.562-2.66-6.808-1.81-8.485 1.23-1.522 2.762-1.207 6.878 3.926 10.71 33.837 22.369 65.36 40.784 115.88 69.25z" fill="#ff8080"/>
   </g>
   <path d="M142.123 163.557c-.116-.032-.179-.066-.185-.056-.888.005-1.89.359-2.64.594-.949.36-1.626.55-1.626.55s.518-.504 1.328-1.167c.652-.485 1.597-1.116 2.77-1.213.242-.003.434.049.565.108.419.153.901.424 1.396.725.524.32.974.781 1.299 1.172.166.2.298.378.39.511.047.067.084.122.11.161.015.05.04.067.043.069-.003-.002-.027-.02-.07-.013a8.138 8.138 0 0 1-.715-.18 6.479 6.479 0 0 1-1.465-.63c-.466-.284-.927-.53-1.2-.63zM164.424 163.395c-2.026.518-4.225.428-4.225.428s1.853-1.126 3.88-1.645l.078-.014.12-.007c.117-.006.23.005.347.023l.103.029c1.281.493 2.412 1.54 2.448 1.574-.045.003-1.438.079-2.675-.396l.103.028a.856.856 0 0 0-.155-.013 5.08 5.08 0 0 0-.102.006zM223.035 148.759c-.07.004-.14.01-.207.016-.951.085-1.92.274-2.727.383-1.03.162-1.763.206-1.763.206s.612-.401 1.538-.89c.71-.356 1.667-.8 2.728-.937a4.37 4.37 0 0 1 .243-.023c.242-.016.501-.021.77-.018l.036.002c1.764.162 3.522.926 3.57.947-.048.012-1.792.454-3.529.295l.038.002a8.885 8.885 0 0 0-.697.016z" fill="#fff"/>
  </g>
  <g fill="url(#linearGradient1169)" stroke="#000" stroke-linecap="round" stroke-linejoin="round" stroke-width=".3">
   <path transform="rotate(-20.298 411.41 -168.82) scale(1.1217)" d="M61.842 78.315a5.64 5.64 0 0 1-7.919.937 5.64 5.64 0 0 1-.939-7.918 5.64 5.64 0 0 1 7.918-.941 5.64 5.64 0 0 1 .943 7.918"/>
   <path transform="rotate(-20.298 411.41 -168.82) scale(1.1217)" d="M61.842 78.315a5.64 5.64 0 0 1-7.919.937 5.64 5.64 0 0 1-.939-7.918 5.64 5.64 0 0 1 7.918-.941 5.64 5.64 0 0 1 .943 7.918"/>
  </g>
  <g>
   <g>
    <path transform="matrix(1.0318 -.49233 .49798 1.0526 -10.96 113.44)" d="M61.842 78.315a5.64 5.64 0 0 1-7.919.937 5.64 5.64 0 0 1-.939-7.918 5.64 5.64 0 0 1 7.918-.941 5.64 5.64 0 0 1 .943 7.918" fill="url(#linearGradient1169)" stroke="#000" stroke-linecap="round" stroke-linejoin="round" stroke-width=".3"/>
    <path transform="matrix(1.0318 -.49233 .49798 1.0526 -10.96 113.44)" d="M61.842 78.315a5.64 5.64 0 0 1-7.919.937 5.64 5.64 0 0 1-.939-7.918 5.64 5.64 0 0 1 7.918-.941 5.64 5.64 0 0 1 .943 7.918" fill="url(#linearGradient1169)" stroke="#000" stroke-linecap="round" stroke-linejoin="round" stroke-width=".3"/>
    <path d="M86.854 158.176c-1.348-.31-2.58.056-3.43.498-.839.437-1.267.884-1.267.884s2.395-.778 4.445-.252l.068.017c1.464.363 3.124 1.192 3.124 1.192s-.845-1.789-2.856-2.319a5.921 5.921 0 0 0-.084-.02z" fill="#fff"/>
   </g>
  </g>
  <g>
   <g fill="url(#linearGradient1169)" stroke="#000" stroke-linecap="round" stroke-linejoin="round" stroke-width=".3">
    <path transform="matrix(1.0318 -.49233 .49798 1.0526 -19.58 127.35)" d="M61.842 78.315a5.64 5.64 0 0 1-7.919.937 5.64 5.64 0 0 1-.939-7.918 5.64 5.64 0 0 1 7.918-.941 5.64 5.64 0 0 1 .943 7.918"/>
    <path transform="matrix(1.0318 -.49233 .49798 1.0526 -19.58 127.35)" d="M61.842 78.315a5.64 5.64 0 0 1-7.919.937 5.64 5.64 0 0 1-.939-7.918 5.64 5.64 0 0 1 7.918-.941 5.64 5.64 0 0 1 .943 7.918"/>
   </g>
  </g>
 </g>
</svg>
