<svg cursor="default" version="1.1" viewBox="0 0 256 256" xmlns="http://www.w3.org/2000/svg">
 <g id="patternLayer">
  <path d="M43.088 10.42c-6.316.146-12.21 4.327-12.475 10.273-.19 4.27 1.016 8.542 2.335 12.608 1.676 5.165 3.95 10.22 7.006 14.71 3.594 5.28 8.228 9.848 13.075 14.01 5.863 5.034 10.757 7.798 17.51 11.557 4.536 2.525 11.43 5.147 15.879 7.822 4.57 2.749 12.278 9.57 12.866 10.092L96.26 95.96c-1.141-.444-6.787-2.641-9.96-3.82-7.049-2.617-14.274-5.556-21.365-8.056-5.55-1.956-10.454-3.964-15.992-5.953-4.854-1.743-10.214-3.856-15.178-5.252-5.566-1.566-11.736-2.782-17.978-2.453-9.66.51-15.674 7.367-10.624 17.395 2.947 5.852 11.567 13.376 20.08 16.46 5.914 2.142 11.81 3.466 19.146 3.151 10.153-.436 20.417-2.36 31.053-4.951 5.182-1.263 10.383-2.865 17.361-.446 2.568.89 4.217 2.332 5.121 3.53 4.443 5.885 4.582 11.295 5.007 16.606.187 2.325.402 4.619.644 6.892-12.403.423-24.973 1.263-31.974 3.517-6.18 1.988-12.26 4.61-17.275 8.732-6.835 5.617-7.005 17.03-.011 20.781 3.766 2.02 8.14 2.783 12.375 3.354 5.382.726 10.922.867 16.292.056 6.316-.953 12.44-3.151 18.289-5.718a72.177 72.177 0 0 0 7.556-3.846c1.737 5 4.085 9.047 6.903 12.85-.568.55-1.13 1.088-1.707 1.656-3.672 3.62-7.897 7.534-11.306 11.404-3.822 4.34-7.589 9.374-9.995 15.143-3.724 8.928-.147 17.319 11.078 17.109 6.551-.123 17.065-4.632 23.532-10.97 4.492-4.403 8.24-9.144 11.132-15.892.401-.937.78-1.886 1.157-2.837 10.571 1.201 14.94-6.508 12.453-15.632-1.08-3.96-2.788-7.677-4.745-11.124.04-.183.081-.362.12-.545 1.105-5.213 1.94-10.56 7.102-15.824 1.05-1.072 2.872-2.29 5.532-2.843a23.148 23.148 0 0 1 3.194-.432c.83.284 1.663.552 2.505.793 3.291.943 6.698 1.516 10.128 1.806.442.172.892.34 1.332.51 10.214 3.937 20.146 7.166 30.159 8.904 7.234 1.255 13.25.701 19.39-.663 8.84-1.963 18.356-8.317 22.032-13.74 6.298-9.296 1.217-16.87-8.298-18.618-6.147-1.129-12.422-.717-18.143.12-5.103.746-10.69 2.154-15.727 3.258a368.948 368.948 0 0 0-6.978 1.618c-.602-1.256-1.377-2.448-2.366-3.501-2.446-2.605-5.278-4.79-8.303-6.699 5.596-2.271 10.22-4.348 15.666-7.92 5.341-3.504 10.525-7.438 14.769-12.212 3.608-4.06 6.511-8.78 8.838-13.687 1.83-3.862 3.576-7.943 3.937-12.202.503-5.931-4.805-10.836-11.05-11.793a14.074 14.074 0 0 0-6.375.467c-6.19 1.957-11.705 5.624-16.742 9.72-8.544 6.945-21.102 25.86-30.253 39.231-12.065-2.783-27.558-4.879-38.6-6.625-9.2-1.455-17.613-5.05-19.259-5.89-2.242-1.144-4.588-2.067-6.712-4.576-1.75-2.067-7.125-7.466-11.897-16.728-7.428-14.418-18.495-37.511-26.627-46.08-4.468-4.709-9.466-9.055-15.353-11.79a14.071 14.071 0 0 0-6.262-1.285zm62.885 85.716c.89.517 9.547 5.573 13.536 9.006 3.935 3.386 8.587 9.109 12.407 12.625 3.447 3.173 6.337 5.81 9.55 8.286-3.605.933-9.675 2.185-16.108 2.44-.553-.698-1.105-1.388-1.664-2.112-4.597-5.95-9.65-11.889-14.346-17.761-2.12-2.651-6-7.352-6.764-8.277zm41.808 34.754l2.82 4.61c-.877.818-5.328 4.98-7.771 7.337a488.537 488.537 0 0 1-3.416 3.254c-1.701-2.179-3.442-4.331-5.052-6.39-.419-.536-.828-1.042-1.243-1.564.026-.017.053-.04.08-.056 4.397-2.891 13.634-6.793 14.582-7.191z" fill="#ffb380"/>
 </g>
 <g>
  <path d="M34.798 30.958c1.557-3.42 3.67-6.628 8.172-4.88 5.178 2.01 9.746 8.094 13.869 12.97 4.356 5.15 7.826 10.896 11.309 16.674 4.023 6.676 11.144 20.555 11.144 20.555l4.623 2.146s-3.74-7.49-5.779-11.144c-3.185-5.712-6.524-11.345-10.07-16.84-2.981-4.617-6-8.981-9.411-13.29-4.12-4.544-8.707-10.952-13.786-13.29-6.166-2.84-9.19.186-11.31 4.292zm88.322 75.626l3.488 3.718s15.411 2.41 23.011 4.138c2.623.596 5.235 1.21 7.83 1.87a71.262 71.262 0 0 0 2.051-2.127 221.762 221.762 0 0 0-4.837-1.32c-6.33-1.647-12.725-3.052-19.148-4.286-4.109-.79-12.395-1.993-12.395-1.993zm47.95 11.405c-.7.263-1.372.529-2 .803-.422.185-.9.429-1.37.663.433.164.87.322 1.3.496 4.357 1.755 9.403 3.537 13.176 6.061a402.76 402.76 0 0 1 3.513-.822c-3.845-3.096-9.795-5.132-14.618-7.201z" fill="#ffd5d5" stroke="#000" stroke-width=".489"/>
  <path d="M98.156 95.274l-25.588 37.033c2.524-.721 5.634-1.289 9.151-1.736l22.134-31.421zm-45.421 65.738l-19.714 28.532s-5.265 5.053-6.356 8.543a3.141 3.141 0 0 0-.008 1.946c.63 1.927 2.627 3.393 4.5 3.194.82-.087 1.724-.784 2.206-1.454 1.907-2.647 2.313-5.84 4.32-8.69l20.662-29.331c-1.393-.439-2.749-.972-4.03-1.659a9.093 9.093 0 0 1-1.58-1.081z" fill="#ff8080" stroke="#000" stroke-width=".489"/>
  <g fill="#ffd5d5" stroke="#000" stroke-width=".489">
   <path d="M43.088 10.42c-6.316.146-12.21 4.327-12.475 10.273-.19 4.27 1.016 8.542 2.335 12.608 1.676 5.165 3.95 10.22 7.006 14.71 3.594 5.28 8.228 9.848 13.075 14.01 5.863 5.034 10.757 7.798 17.51 11.557 4.536 2.525 11.43 5.147 15.879 7.822 4.75 2.856 13.074 10.273 13.074 10.273 1.914 1.444 3.56 2.587 6.164 4.273 0 0 9.652 5.58 13.853 9.196 3.935 3.386 8.587 9.109 12.407 12.625 3.447 3.173 6.337 5.81 9.55 8.286 1.468-.38 2.567-.71 3.057-.885l.45-.156c-3.559-2.583-6.96-5.4-10.269-8.29-4.876-4.258-8.813-9.528-13.749-13.718-4.162-3.533-11.327-8.058-13.526-9.363a57.212 57.212 0 0 1-6.303-4.376c-2.001-1.593-8.472-7.063-13.133-9.908-5.525-3.373-11.764-5.461-17.336-8.757-5.603-3.313-11.123-6.848-16.11-11.03-4.387-3.677-8.764-7.556-12.025-12.26-2.936-4.235-4.923-9.116-6.538-14.01-1.283-3.884-2.471-7.933-2.45-12.024.027-5.578 5.727-8.177 10.322-8.183 1.287-.002 2.487.2 3.451.597 6.077 2.497 11.217 7.181 15.527 12.14 8.597 9.888 11.754 19.053 17.395 28.72 4.004 6.862 7.599 13.96 11.675 20.78 1.229 2.056 2.442 4.132 3.852 6.07 1.825 2.509 4.227 5.31 5.94 7.164 1.47 1.593 3.962 3.437 6.221 4.316 2.353.915 5.71 2.447 8.665 3.393 2.282.73 4.634 1.233 6.973 1.755 7.753 1.732 15.62 2.922 23.392 4.573 6.553 1.392 12.662 2.01 19.097 3.356.534-.774 1.191-1.741 1.754-2.563-12.065-2.783-27.558-4.879-38.6-6.625-10.29-1.627-17.754-5.259-20.024-6.17-2.43-.975-4.256-2.64-5.947-4.296-1.51-1.477-7.125-7.466-11.897-16.728-7.428-14.418-18.495-37.511-26.627-46.08-4.468-4.709-9.466-9.055-15.353-11.79a14.071 14.071 0 0 0-6.262-1.285zm145.92 101.37c-1.04.423-2.05.837-3.175 1.284 3.843 2.116 7.426 4.701 10.235 7.977.375.438.715.966 1.013 1.555.863-.206 1.734-.41 2.596-.616-.602-1.256-1.377-2.448-2.366-3.501-2.446-2.605-5.278-4.79-8.303-6.699zm-23.892 26.16c-.595-.012-1.211.01-1.839.052a50.92 50.92 0 0 0 2.505.793c3.291.943 6.698 1.516 10.128 1.806-3.301-1.288-6.67-2.57-10.794-2.651zM27.781 73.223c-7.502 3.506-9.72 8.118-4.788 15.767 2.875 4.459 7.99 7.099 12.383 8.998 7.383 3.191 15.66 5.375 22.948 6.19l-7.099.909c-4.773-.829-12.184-2.935-16.592-4.788-5.835-2.453-11.727-6.322-14.281-10.401-4.57-7.298-3.438-14.171 4.457-17.666zm86.775 79.07c-.618.42-1.23.832-1.84 1.232 1.726 2.52 3.545 4.952 5.082 6.716a47.503 47.503 0 0 0 3.297 3.42c.577-.549 1.155-1.099 1.736-1.655a54.578 54.578 0 0 1-3.07-3.196 82.47 82.47 0 0 1-5.205-6.517zm32.29 7.56a229.386 229.386 0 0 1-1.851 7.736c1.36-1.678 2.253-3.942 2.535-6.82z"/>
   <path d="M18.124 70.372a39.874 39.874 0 0 0-2.337.054c-9.66.51-15.674 7.367-10.624 17.395 2.947 5.852 11.567 13.376 20.08 16.46 5.914 2.142 11.81 3.466 19.146 3.151 10.153-.436 20.417-2.36 31.053-4.951 5.182-1.263 10.289-2.574 17.361-.446 2.41.725 3.895 1.985 5.11 3.512 3.024 3.804 4.593 11.307 5.018 16.624.187 2.325.402 4.619.644 6.892.97-.033 1.92-.054 2.886-.083-.12-1.757-.23-3.515-.368-5.27-.625-7.907-1.582-14.608-6.197-21.024-1.158-1.027-3.42-2.733-4.997-3.432-7.54-2.371-14.203-1.18-21.908.707-4.235 1.037-8.435 2.253-12.725 3.035-3.936.719-8.16 1.387-12.156 1.601-7.581.407-15.612.081-23.216-3.234C19.086 98.83 12.468 94.2 8.432 88.054 3.346 80.31 6.145 74.1 15.672 72.88c4.023-.516 8.165.008 12.14.816 10.455 2.129 20.204 6.875 30.237 10.507 12.356 4.472 37.344 14.243 37.344 14.243.531.163.942.265 1.342.363.623.796 1.826 1.863 3.775 3.154 0 0 13.02 15.745 21.733 26.626.76-.019 1.699-.036 2.424-.056.233-.007.46-.03.691-.039-.553-.698-1.105-1.388-1.664-2.112-4.597-5.95-9.65-11.889-14.346-17.761-2.333-2.918-7.268-8.89-7.268-8.89-1.482-1.04-2.74-1.712-3.713-2.084a23.911 23.911 0 0 0-1.346-1.393S89.802 93.441 86.3 92.14c-7.049-2.617-14.274-5.556-21.365-8.056-5.55-1.956-10.454-3.964-15.992-5.953-4.854-1.743-10.214-3.856-15.178-5.252-4.87-1.37-10.203-2.473-15.641-2.507zm114.995 67.765c-.641.424-1.306.904-1.983 1.41 2.243 2.676 4.491 5.35 6.646 8.087.547-.515 1.089-1.03 1.632-1.543-1.701-2.179-3.442-4.331-5.052-6.39-.419-.536-.828-1.042-1.243-1.564zm-21.884 16.336c-.793.501-1.595.99-2.408 1.466 1.737 5 4.085 9.047 6.903 12.85.617-.596 1.236-1.2 1.846-1.782-2.841-3.892-4.826-8.176-6.341-12.534zm36.094 3.173a285.397 285.397 0 0 1-.726 3.32c1.414 2.762 2.593 5.66 3.179 8.683 1.614 8.33-2.121 12.884-9.184 12.179-.318.862-.64 1.723-.977 2.574 10.571 1.201 14.94-6.508 12.453-15.632-1.08-3.96-2.788-7.677-4.745-11.124z"/>
   <path d="M93.776 113.266l-4.382 6.235c-2.24 3.187-7.958-.706-5.739-3.894l4.382-6.294c2.144-3.08 7.818.993 5.739 3.953z" stroke-linecap="round" stroke-linejoin="round"/>
   <path d="M111.524 88.336c-4.067 7.345-9.644 14.268-14.539 20.478-2.41 3.06-7.626-.5-5.738-3.894 4.46-8.019 8.035-13.967 14.538-20.537 2.64-2.667 7.49.788 5.739 3.953z" stroke-linecap="round" stroke-linejoin="round"/>
  </g>
  <path d="M89.605 108.716c-1.525-.77-.206-2.959 1.312-2.5 2.021.612 3.09 1.514 4.697 3.235 1.105 1.183-.266 3.698-1.75 2.24-1.68-1.648-2.355-2.015-4.259-2.975z" fill="#faa" stroke="#000" stroke-width=".489"/>
  <path d="M86.016 124.114l-4.274 6.028c-2.184 3.082-7.762-.682-5.598-3.764l4.274-6.086c2.092-2.977 7.626.96 5.598 3.822z" fill="#ffd5d5" stroke="#000" stroke-linecap="round" stroke-linejoin="round" stroke-width=".489"/>
  <g fill="#faa" stroke="#000" stroke-width=".489">
   <path d="M81.948 119.714c-1.487-.743-.201-2.86 1.28-2.416 1.97.591 3.014 1.463 4.581 3.127 1.078 1.144-.26 3.576-1.707 2.167-1.638-1.594-2.297-1.95-4.154-2.878z"/>
   <path d="M74.718 129.814c-.747.005-1.451.31-1.95 1.033l-1.206 1.746.039-.014c1.692-.544 3.74-.998 6.002-1.392-.756-.811-1.856-1.38-2.885-1.373z" stroke-linecap="round" stroke-linejoin="round"/>
   <path d="M74.229 130.285c-1.421-.722-.192-2.78 1.222-2.348 1.883.575 2.88 1.422 4.377 3.039 1.029 1.112-.249 3.475-1.631 2.106-1.565-1.55-2.194-1.895-3.968-2.797z"/>
  </g>
  <g fill="#ffd5d5" stroke="#000" stroke-width=".489">
   <path d="M55.779 164.635l-3.738 5.324c-1.91 2.721-6.788-.603-4.895-3.325l3.738-5.374c1.829-2.63 6.669.848 4.895 3.375z" stroke-linecap="round" stroke-linejoin="round"/>
   <path d="M52.222 160.75c-1.301-.657-.177-2.526 1.119-2.134 1.723.522 2.636 1.292 4.006 2.762.943 1.01-.227 3.157-1.493 1.913-1.432-1.408-2.008-1.721-3.632-2.541z"/>
   <path d="M48.82 173.813l-3.656 5.186c-1.869 2.651-6.64-.587-4.789-3.239l3.657-5.235c1.789-2.562 6.524.826 4.789 3.288z" stroke-linecap="round" stroke-linejoin="round"/>
  </g>
  <g stroke="#000" stroke-width=".489">
   <path d="M45.34 170.028c-1.272-.64-.172-2.46 1.095-2.079 1.687.509 2.58 1.259 3.92 2.69.922.985-.223 3.076-1.46 1.865-1.402-1.372-1.966-1.677-3.555-2.476z" fill="#faa"/>
   <path d="M42.227 182.95l-1.236 1.657c-1.939 2.6-6.737-.54-4.84-3.16l1.234-1.706c1.833-2.531 6.642.795 4.842 3.21z" fill="#ffd5d5" stroke-linecap="round" stroke-linejoin="round"/>
   <path d="M38.686 179.223c-1.283-.62-.212-2.458 1.06-2.096 1.695.48 2.6 1.216 3.964 2.626.937.969-.173 3.079-1.43 1.887-1.424-1.349-1.993-1.645-3.594-2.417z" fill="#faa"/>
   <path d="M38.27 188.38l-2.853 3.748c-1.965 2.581-6.784-.575-4.841-3.16l2.852-3.796c1.877-2.498 6.666.813 4.842 3.209z" fill="#ffd5d5" stroke-linecap="round" stroke-linejoin="round"/>
   <path d="M34.729 184.653c-1.283-.618-.213-2.457 1.06-2.096 1.695.481 2.6 1.217 3.963 2.626.938.97-.172 3.08-1.43 1.888-1.423-1.349-1.992-1.645-3.593-2.418z" fill="#faa"/>
   <path d="M115.104 73.422a3.957 3.957 0 0 0-.447.04c-.437.064-.838.445-1.01.846-.626 1.449.862 2.267 1.775 3.272l.013-.018c1.277.467 2.593 1.509 3.712.4.312-.309.52-.818.416-1.243-.284-1.165-1.004-1.835-1.507-2.904-.012-.024-.047-.04-.082-.043-1.04-.055-1.877-.383-2.87-.35z" fill="#ff8080"/>
   <path d="M110.514 83.955c.18-.269.604-.587 5.185-7.221.543-.786-.914-1.894-1.812-2.22-1.046-.38-2.581.148-3.57.66-1.71.886-3.093 2.216-3.875 3.977-.415.933-.52 2.132-.097 3.061.286.626.72 1.396 1.346 1.681.791.36 2.342.786 2.823.062zM110.795 84.08c.197-.256.361-.761 5.165-7.236.569-.767 2.087.255 2.685 1 .697.868.692 2.491.526 3.592-.287 1.905-1.101 3.642-2.516 4.95-.75.694-1.85 1.18-2.866 1.079-.685-.07-1.554-.232-2.025-.733-.595-.633-1.499-1.964-.97-2.652z" fill="#faa"/>
   <path d="M226.748 75.409c-1.104-3.592-2.786-7.045-7.477-5.89-5.393 1.327-10.705 6.773-15.42 11.077-4.983 4.549-9.164 9.8-13.36 15.082-4.85 6.103-13.696 18.951-13.696 18.951l-4.86 1.534s4.672-6.946 7.163-10.308c3.894-5.256 7.93-10.412 12.154-15.405 3.55-4.196 7.105-8.135 11.041-11.97 4.67-3.976 10.043-9.741 15.381-11.407 6.48-2.022 9.09 1.368 10.663 5.712zm-161.37 87.357c-2.408-2.884-4.384-6.178-.86-9.48 4.054-3.796 11.517-5.279 17.697-6.884 6.53-1.696 13.211-2.336 19.927-2.973 7.76-.736 23.354-1.144 23.354-1.144l3.936-3.237s-8.37.128-12.547.382c-6.529.398-13.051.968-19.54 1.786-5.453.687-10.694 1.519-16.055 2.727-5.88 1.746-13.642 3.105-17.95 6.67-5.229 4.33-3.811 8.366-1.028 12.054z" fill="#ffd5d5"/>
   <path d="M149.496 134.153l53.538 101.663c1.624 3.084 1.618 6.304 3.168 9.175.392.726 1.198 1.532 2 1.724 1.832.437 4.001-.759 4.874-2.588.291-.61.359-1.267.242-1.932-.634-3.6-5.205-9.288-5.205-9.288l-52.468-101.864z" fill="#ff8080"/>
  </g>
  <g fill="#ffd5d5" stroke="#000" stroke-width=".489">
   <path d="M221.169 53.976c6.244.957 11.552 5.862 11.05 11.792-.362 4.26-2.107 8.341-3.938 12.203-2.326 4.907-5.23 9.628-8.838 13.687-4.244 4.774-9.428 8.707-14.769 12.21-6.462 4.24-11.673 6.351-18.852 9.21-4.824 1.921-11.995 3.634-16.752 5.715-5.078 2.221-14.287 8.506-14.287 8.506-2.083 1.186-3.863 2.108-6.663 3.446 0 0-10.29 4.292-14.921 7.337-4.338 2.852-9.686 7.928-13.926 10.923-6.313 4.46-10.924 7.675-18.001 10.78-5.85 2.566-11.973 4.766-18.29 5.72-5.369.81-10.91.669-16.292-.057-4.235-.572-8.609-1.335-12.375-3.355-6.994-3.75-6.824-15.165.011-20.782 5.015-4.122 11.096-6.743 17.276-8.732 11.245-3.619 36.853-3.595 53.065-4.047 10.416-.29 18.283-2.932 20.65-3.543 2.537-.655 4.561-2.072 6.451-3.496 1.687-1.27 8.027-6.487 13.95-15.059 9.22-13.342 23.167-34.82 32.334-42.272 5.037-4.095 10.55-7.762 16.74-9.718a14.075 14.075 0 0 1 6.377-.468zm-1.107 2.552c-1.275-.168-2.491-.122-3.499.147-6.347 1.695-12.047 5.68-16.959 10.043-9.797 8.7-14.107 17.382-20.944 26.243-4.854 6.29-9.331 12.867-14.25 19.106-1.484 1.882-2.954 3.784-4.602 5.525-2.132 2.253-4.875 4.722-6.811 6.34-1.663 1.39-4.37 2.9-6.724 3.48-2.45.605-5.979 1.693-9.03 2.25-2.358.432-4.754.627-7.14.845-7.913.72-15.868.887-23.787 1.524-11.156.899-20.783-.224-33.419 3.243-6.336 1.738-12.784 4.342-17.667 8.738-3.541 3.188-5.547 12.578.874 15.703 3.679 1.79 7.844 2.47 11.9 2.997 5.111.663 10.37.987 15.46.174 5.652-.902 11.041-3.17 16.255-5.53 5.93-2.685 11.509-6.13 16.921-9.744 5.384-3.596 9.966-8.316 15.4-11.836 4.582-2.968 12.27-6.535 14.618-7.547 2.16-.93 4.52-2.142 6.814-3.528 2.19-1.322 9.31-5.915 14.299-8.137 5.913-2.635 12.368-3.902 18.318-6.453 5.982-2.566 11.911-5.363 17.395-8.868 4.823-3.083 9.663-6.365 13.502-10.61 3.456-3.822 6.053-8.407 8.285-13.052 1.771-3.687 3.471-7.55 3.977-11.61.69-5.536-4.63-8.846-9.186-9.443zm8.208 61.697c6.99 4.443 8.595 9.302 2.72 16.252-3.424 4.052-8.835 6.013-13.436 7.33-7.733 2.216-16.221 3.317-23.554 3.189l6.923 1.813c4.84-.208 12.46-1.343 17.07-2.614 6.102-1.682 12.443-4.76 15.5-8.478 5.471-6.65 5.232-13.611-2.148-18.092zm-127.833 69.168c-.089 8.281 3.108 12.277 12.138 11.143 5.264-.66 9.858-4.127 13.473-7.264 6.074-5.274 11.626-11.788 15.518-18.005l-2.256 6.793c-2.814 3.943-7.921 9.711-11.5 12.882-4.738 4.197-10.777 7.833-15.56 8.369-8.558.959-14.262-3.039-13.993-11.668z"/>
   <path d="M238.215 116.64c.77.096 1.541.213 2.31.354 9.514 1.748 14.596 9.322 8.298 18.617-3.676 5.424-13.191 11.777-22.03 13.74-6.141 1.365-12.159 1.92-19.393.664-10.012-1.738-19.944-4.966-30.158-8.904-4.977-1.919-9.871-3.877-17.159-2.676-2.483.409-4.118 1.467-5.519 2.826-3.488 3.382-6.008 10.623-7.114 15.841-2.27 10.709-4.982 20.796-8.985 30.136-2.893 6.748-6.64 11.489-11.132 15.892-6.467 6.338-16.982 10.849-23.533 10.971-11.225.21-14.803-8.18-11.079-17.108 2.406-5.769 6.174-10.804 9.995-15.144 3.409-3.87 7.635-7.785 11.308-11.405 4.19-4.131 8.126-7.682 12.293-11.837 5.324-5.31 11.1-10.549 16.512-15.77 2.689-2.593 8.351-7.881 8.351-7.881 6.711-3.515 8.871-1.312 1.27 2.416 0 0-19.629 18.293-29.01 27.493-7.619 7.47-16.118 14.202-22.564 22.705-2.45 3.232-4.718 6.74-5.995 10.59-3.025 9.115 1.362 14.326 10.546 13.096 7.288-.976 14.326-4.936 19.123-9.074 6.282-5.419 10.054-12.517 12.97-19.527 1.537-3.694 2.765-7.79 3.822-11.65 1.152-4.205 1.875-8.517 2.774-12.784 1.636-7.761 3.447-14.284 8.85-20.053 1.28-.87 3.743-2.27 5.397-2.76 7.782-1.381 14.236.658 21.634 3.52 4.067 1.572 8.076 3.318 12.23 4.646 3.81 1.219 7.912 2.423 11.847 3.15 7.467 1.379 15.473 2.089 23.441-.221 6.085-1.764 13.243-5.505 18.036-11.08 6.04-7.028 4.064-13.546-5.226-15.982-3.924-1.03-8.1-1.042-12.145-.751-10.643.765-20.92 4.22-31.337 6.53-12.828 2.846-38.866 9.322-38.866 9.322-5.59.948-3.626-.661-1.333-2.382 0 0 7.52-1.862 11.161-2.701 7.327-1.69 14.869-3.675 22.223-5.241 5.755-1.226 10.878-2.587 16.626-3.847 5.038-1.104 10.624-2.511 15.727-3.258 5.006-.732 10.436-1.139 15.834-.472z"/>
   <path d="M157.674 149.447l3.544 6.748c1.81 3.449 7.982.323 6.191-3.124l-3.535-6.805c-1.73-3.33-7.881-.02-6.2 3.181z" stroke-linecap="round" stroke-linejoin="round"/>
   <path d="M143.28 122.442c3.088 7.808 7.728 15.39 11.784 22.178 1.997 3.344 7.627.485 6.192-3.124-3.393-8.525-6.173-14.884-11.777-22.235-2.275-2.985-7.53-.183-6.199 3.18z" stroke-linecap="round" stroke-linejoin="round"/>
  </g>
  <g stroke="#000" stroke-width=".489">
   <path d="M162.395 145.472c1.611-.567.585-2.908-.98-2.647-2.082.346-3.26 1.102-5.074 2.603-1.247 1.031-.21 3.701 1.448 2.447 1.878-1.42 2.595-1.696 4.606-2.403z" fill="#faa"/>
   <path d="m163.97 161.2 3.463 6.529c1.77 3.337 7.785 0.321 6.035-3.014l-3.455-6.584c-1.691-3.222-7.686-0.029-6.043 3.07z" fill="#ffd5d5" stroke-linecap="round" stroke-linejoin="round"/>
   <path d="M168.574 157.364c1.57-.546.568-2.81-.958-2.56-2.031.332-3.178 1.062-4.946 2.51-1.215.997-.202 3.58 1.414 2.37 1.83-1.371 2.529-1.638 4.49-2.32z" fill="#faa"/>
   <path d="M170.466 172.58l3.295 6.335c1.684 3.238 7.439.295 5.773-2.94l-3.287-6.39c-1.61-3.127-7.344-.012-5.78 2.995z" fill="#ffd5d5" stroke-linecap="round" stroke-linejoin="round"/>
   <path d="M174.87 168.84c1.502-.534.548-2.732-.91-2.486-1.942.328-3.04 1.04-4.732 2.45-1.163.971-.2 3.478 1.347 2.299 1.75-1.336 2.42-1.597 4.294-2.263z" fill="#faa"/>
   <path d="M176.836 183.77l3.207 6.128c1.638 3.131 7.228.29 5.608-2.84l-3.2-6.18c-1.565-3.024-7.136-.016-5.615 2.892z" fill="#ffd5d5" stroke-linecap="round" stroke-linejoin="round"/>
   <path d="M181.113 180.157c1.46-.515.53-2.64-.886-2.404-1.887.315-2.953 1.003-4.596 2.366-1.13.938-.193 3.363 1.31 2.223 1.7-1.29 2.35-1.542 4.172-2.185z" fill="#faa"/>
   <path d="m183.01 194.7 3.104 6.017c1.586 3.075 7.018 0.274 5.45-2.8l-3.097-6.068c-1.515-2.97-6.93-5e-3 -5.457 2.85z" fill="#ffd5d5" stroke-linecap="round" stroke-linejoin="round"/>
   <path d="M187.164 191.139c1.418-.509.52-2.597-.856-2.361-1.832.312-2.869.99-4.467 2.332-1.099.924-.192 3.305 1.269 2.183 1.653-1.27 2.284-1.52 4.054-2.154z" fill="#faa"/>
   <path d="M188.748 205.277l3.022 5.76c1.545 2.945 6.81.276 5.282-2.667l-3.015-5.81c-1.476-2.843-6.723-.017-5.289 2.717z" fill="#ffd5d5" stroke-linecap="round" stroke-linejoin="round"/>
   <path d="M192.776 201.882c1.374-.484.5-2.482-.835-2.26-1.777.296-2.781.942-4.33 2.223-1.064.881-.18 3.16 1.235 2.09 1.602-1.212 2.214-1.45 3.93-2.053z" fill="#faa"/>
   <path d="M194.468 215.274l2.96 5.613c1.512 2.87 6.66.272 5.165-2.596l-2.953-5.662c-1.444-2.77-6.576-.02-5.172 2.645z" fill="#ffd5d5" stroke-linecap="round" stroke-linejoin="round"/>
   <path d="M198.406 211.968c1.345-.47.488-2.418-.818-2.202-1.738.287-2.72.916-4.233 2.163-1.04.858-.175 3.08 1.209 2.037 1.566-1.18 2.164-1.41 3.842-1.998z" fill="#faa"/>
   <path d="M199.832 225.183l1.012 1.803c1.589 2.828 6.751.33 5.208-2.512l-1.006-1.85c-1.491-2.746-6.689-.067-5.214 2.56z" fill="#ffd5d5" stroke-linecap="round" stroke-linejoin="round"/>
   <path d="M203.823 221.942c1.352-.449.527-2.41-.782-2.215-1.743.26-2.735.872-4.268 2.095-1.055.84-.225 3.075 1.175 2.055 1.586-1.154 2.187-1.375 3.875-1.935z" fill="#faa"/>
   <path d="M203.058 231.078l2.347 4.083c1.617 2.812 6.801.302 5.207-2.511l-2.34-4.132c-1.54-2.719-6.715-.051-5.214 2.56z" fill="#ffd5d5" stroke-linecap="round" stroke-linejoin="round"/>
   <path d="M207.049 227.837c1.352-.449.526-2.41-.782-2.215-1.743.259-2.735.872-4.268 2.094-1.055.84-.225 3.076 1.175 2.056 1.585-1.155 2.187-1.375 3.875-1.935z" fill="#faa"/>
   <path d="M141.648 107.192c.143.023.29.055.438.097.425.119.773.548.893.969.434 1.517-1.147 2.137-2.182 3.016l-.01-.02c-1.327.3-2.766 1.163-3.733-.08-.27-.346-.41-.879-.253-1.286.432-1.12 1.231-1.691 1.868-2.686.015-.023.052-.034.087-.033 1.038.08 1.91-.138 2.892.023z" fill="#ff8080"/>
   <path d="M144.844 118.228c-.142-.29-.523-.66-4.213-7.829-.437-.849 1.15-1.76 2.083-1.968 1.086-.242 2.541.479 3.455 1.114 1.583 1.098 2.783 2.595 3.332 4.442.291.979.242 2.182-.298 3.048-.364.584-.893 1.292-1.551 1.494-.83.255-2.424.478-2.808-.301zM144.55 118.315c-.162-.28-.26-.8-4.191-7.84-.466-.834-2.103-.016-2.792.646-.803.772-1.007 2.382-.984 3.495.04 1.926.624 3.754 1.859 5.233.654.784 1.683 1.408 2.704 1.438.688.02 1.57-.03 2.102-.466.672-.551 1.739-1.755 1.302-2.506z" fill="#faa"/>
  </g>
  <path d="M152.784 124.946c-1.73-2.855-4.097-5.196-4.097-5.196s1.557 2.934 3.241 5.714a82.21 82.21 0 0 1 1.432 2.46 651.677 651.677 0 0 1 5.702 10.451s-1.893-5.689-4.83-10.938a83.187 83.187 0 0 0-1.448-2.491zm-12.42-13.776a1.645 1.645 0 0 0-.443-.443c-.586-.277-.904-.029-1.04.133-.274.236-.38.452-.38.452s.24-.01.552.002c.251.043.442.032.276.084.06.09.117.21.213.341.446.639.902 1.47 1.287 2.1.705 1.152 1.296 1.973 1.296 1.973s-.219-.984-.661-2.27c-.245-.72-.565-1.595-1.1-2.372zm3.498-2.441a1.668 1.668 0 0 0-.133-.027c-.526-.067-.884.15-1.106.324-.153.11-.272.223-.355.31a2.427 2.427 0 0 0-.1.112l-.042.052.064.009.149.018c.116.013.27.03.442.046.293.031.603.03.74.1.034.01.068.019.103.027 1.49.33 2.865 1.691 3.863 2.607.393.356.75.91.964 1.224.33.516.536.825.549.844-.007-.02-.128-.373-.341-.95-.143-.36-.38-.972-.77-1.482-.814-1.081-2.092-2.702-4.027-3.214zM106.74 91.898c1.711-2.441 2.785-5.228 2.785-5.228s-1.933 2.269-3.604 4.654c-2.565 3.66-4.126 5.756-6.07 8.705-1.598 2.425-2.539 4.116-2.539 4.116s1.151-1.555 2.944-3.823c1.601-2.025 4.435-5.5 6.484-8.424zm7.645-16.208c-.206-.398-.515-.488-.732-.495a1.452 1.452 0 0 0-.356.009c-.104-.01-.17.032-.17.032s.007.075.065.156c.03.076.08.196.124.302.091.221.167.35.148.388a.23.23 0 0 1-.011-.107c-.03.246-.179.53-.32.86-.206.454-.442.931-.646 1.35-.686 1.414-1.16 2.541-1.16 2.541s.836-.87 1.791-2.157c.288-.387.592-.824.862-1.303.178-.3.376-.669.46-1.133l.003-.018a.793.793 0 0 0-.058-.424zm3.608 2.899a1.73 1.73 0 0 0-.05-.127c-.23-.477-.607-.659-.875-.75a2.567 2.567 0 0 0-.452-.13 2.352 2.352 0 0 0-.15-.022l-.066-.007.028.059.066.134c.052.105.122.243.202.397.134.262.303.522.32.675.01.033.02.067.032.1.536 1.428.143 3.324-.08 4.66-.085.524-.355 1.127-.502 1.477-.111.263-.213.49-.28.64l-.091.198c-.015.047-.037.08-.037.08s.02-.035.055-.068l.136-.17c.104-.133.252-.328.42-.567.223-.315.607-.848.822-1.452.463-1.27 1.127-3.226.502-5.127zm46.773 70.331c-.803-1.448-2.043-2.654-2.043-2.654s.365 1.69 1.168 3.14c1.12 2.02 2.677 3.798 2.677 3.798s-.683-2.263-1.802-4.284zm6.098 11.844c-.802-1.448-2.042-2.654-2.042-2.654s.365 1.69 1.168 3.14c1.12 2.02 2.677 3.798 2.677 3.798s-.683-2.263-1.803-4.284zm6.276 11.712c-.803-1.449-2.043-2.655-2.043-2.655s.366 1.691 1.168 3.14c1.12 2.02 2.677 3.799 2.677 3.799s-.682-2.263-1.802-4.284zm6.231 11.093c-.802-1.449-2.042-2.655-2.042-2.655s.365 1.69 1.168 3.14c1.12 2.02 2.677 3.799 2.677 3.799s-.683-2.264-1.803-4.284zm5.879 10.827c-.803-1.448-2.043-2.654-2.043-2.654s.365 1.69 1.167 3.139c1.12 2.02 2.677 3.8 2.677 3.8s-.682-2.264-1.802-4.285zm5.395 10.342c-.738-1.338-1.914-2.434-1.914-2.434s.3 1.58 1.038 2.917c1.03 1.866 2.497 3.491 2.497 3.491s-.592-2.108-1.621-3.974zm5.798 10.415c-.72-1.329-1.879-2.42-1.879-2.42s.28 1.568 1 2.896c1.004 1.854 2.448 3.469 2.448 3.469s-.565-2.092-1.569-3.945zm9.837 17.615c-.564-1.338-1.472-2.497-2.133-3.3a59.193 59.193 0 0 0-1.141-1.355s.255.665.719 1.624c.426.88 1.156 2.267 1.632 3.417.091.218.144.395.17.546.073.293.092.599.106.955l.024.574s1.01-.508.856-1.696a3.502 3.502 0 0 0-.233-.765zM91.779 113.42c.497-.705.587-1.698.587-1.698s-.906.416-1.404 1.12c-1.79 2.536-3.173 5.359-3.173 5.359s2.199-2.246 3.99-4.781zm-7.965 10.997c.535-.758.662-1.804.662-1.804s-.944.47-1.479 1.227l-.038.054c-1.734 2.455-3.06 5.198-3.06 5.198s2.143-2.166 3.877-4.621zm-47.562 63.705c.561-.698.733-1.71.733-1.71s-.95.385-1.512 1.083l-.057.07c-1.704 2.118-3.018 4.55-3.018 4.55s2.093-1.805 3.797-3.923zm10.975-14.617c.395-.51.395-1.327.395-1.327s-.79.205-1.186.716c-1.807 2.335-3.218 4.976-3.218 4.976s2.202-2.03 4.009-4.365z" fill="#fff"/>
 </g>
</svg>
