<svg cursor="default" version="1.1" viewBox="0 0 256 256" xmlns="http://www.w3.org/2000/svg" xmlns:xlink="http://www.w3.org/1999/xlink">
 <defs>
  <linearGradient id="linearGradient849" x1="189.69" x2="177.9" y1="83.932" y2="71.458" gradientUnits="userSpaceOnUse">
   <stop stop-color="#f95" offset="0"/>
   <stop stop-color="#ffb380" offset="1"/>
  </linearGradient>
  <linearGradient id="linearGradient869" x1="110.64" x2="90.034" y1="151.19" y2="173.69" gradientUnits="userSpaceOnUse">
   <stop stop-color="#fd5" offset="0"/>
   <stop stop-color="#ffd42a" offset=".29432"/>
   <stop stop-color="#ffd42a" offset=".78149"/>
   <stop stop-color="#fd5" offset="1"/>
  </linearGradient>
 </defs>
 <g fill-rule="evenodd">
  <path d="m113.33 155.32s54.767-60.656 86.615-92.831c14.342-14.489 36.145-16.068 46.114-26.703 8.911-9.505-2.334-34.037-19.278-16.166l-119.42 128.31z" fill="url(#linearGradient849)" stroke="#000"/>
  <path d="M109.322 136.106c-2.154 2.595-1.897 4.738-2.272 6.999 2.093-3.009 4.08-6.085 8.37-7.706-4.828 5.514-1.91 5.883-4.6 10.803 2.945-3.047 3.526-4.098 8.23-4.836.595 4.95-1.634 4.86-3.888 8.965 4.908-2.811 6.393-3.3 10.95-4.004-1.656 4.126-3.541 5.325-7.292 7.44 2.156.643 4.807.298 7.676-.482-7.629 7.652-14.96 9.322-24.941 19.409 5.706 31.384-10.778 49.823-27.09 63.306l4.106-10.714c-8.598 5.688-16.603 12.186-28.75 13.035l2.5-3.035c-5.345 2.242-10.526 3.329-15.535 3.214l2.5-3.393c-3.758 1.635-9.288 2.18-13.375 2.498 3.572-2.084 5.582-3.064 9.295-5.483-2.843.633-7.263 1.688-9.849 2.315 1.79-3.558 2.378-4.577 5-7.723-1.735.545-2.742.942-3.75 1.607-1.561-12.769 3.745-25.156 9.107-36.607l-5.893 4.822c6.03-31.969 49.51-39.092 59.465-34.286 10.454-11.15 9.959-18.704 20.036-26.144z" fill="url(#linearGradient869)" stroke="#000"/>
  <path d="M30.031 227.814c9.295-10.22 10.672-12.249 25.817-24.27C40.5 215.302 38.862 217.114 29.3 227.133zM35.09 232.8c10.767-6.643 16.487-8.719 25.14-17.326-8.855 8.339-14.692 10.098-25.654 16.468zM38.623 235.966c17.036-8.06 29.508-13.397 41.734-25.859-12.428 12.192-25.01 17.209-42.153 24.951zM51.534 235.714l.243.437c12.142-6.94 22.214-12.183 31.437-23.455-9.447 11.02-19.653 15.952-31.923 22.58l.243.438zM78.076 226.215c5.716-4.686 10.29-9.928 13.62-16.465-3.618 6.368-8.413 11.33-14.236 15.678zM35.09 192.696l.425.262c1.977-3.532 4.656-7.295 7.967-9.815-3.527 2.264-6.507 5.85-8.819 9.292l.426.261zM91.141 162.197c-9.693.542-29.083 4.136-42.302 14.339 13.387-9.911 32.791-13.137 42.341-13.34zM93.78 163.29c-18.506 5.905-36.89 13.517-45.387 31.906 8.756-18.16 27.215-25.406 45.683-30.95z"/>
  <path d="m95.486 164.98c-13.458 4.066-23.41 14.26-34.147 26.82 11.055-12.417 21.125-22.186 34.425-25.86zm1.478 1.462-0.348-0.358c-12.59 12.46-18.146 27.19-32.777 37.144 14.771-9.647 20.88-24.427 33.474-36.427l-0.349-0.359zm1.718 1.88c-7.153 11.866-7.549 16.567-17.968 28.299 10.686-11.531 11.414-16.135 18.818-27.772zm1.176 2.027c-0.152 7.24 0.468 15.65-10.662 33.683 11.428-17.88 11.17-26.284 11.66-33.64z"/>
 </g>
 <g fill="#f55" fill-rule="evenodd" stroke="#000">
  <path d="M88.304 161l14.196 12.5c2.256-.254 3.25-1.54 3.66-3.304-4.978-4.29-10.141-8.456-15.624-12.41-1.463.496-2.027 1.712-2.232 3.214z"/>
  <path d="M90.946 157.519a130.978 130.978 0 0 0 15.393 12.231c2.69.057 3.286-1.543 4.018-3.036l-16.964-12.321c-1.424.366-2.527 1.089-2.447 3.126z"/>
  <path d="M93.482 154.393c.618-1.319.825-2.801 3.036-3.482 5.845 3.986 11.346 8.486 16.518 13.482.182 1.529-.658 2.213-2.411 2.143-6.126-3.524-11.94-7.444-17.143-12.143z"/>
 </g>
 <path d="M27.009 216l.474.16c2.842-8.985 8.915-15.452 13.068-18.099-4.32 2.358-10.778 8.666-14.016 17.78l.474.159zM106.812 142.422c-1.07 3.131-2.708 5.466-5.205 7.417 2.688-1.677 4.682-3.858 6.134-7.047zM110.877 145.145c-2.137 3.545-2.535 5.051-4.18 7.373 1.915-2.128 2.636-3.514 5.015-6.823zM115.698 149.428c-3.757 2.795-6.885 3.862-9.448 6.661 2.798-2.563 5.911-3.208 10.016-5.838zM119.376 152.849c-3.343 1.975-5.718 3.587-9.019 4.49 3.412-.586 5.975-1.92 9.49-3.608zM110.982 162.34l.359.348c1.394-1.694 3.548-2.216 5.445-3.563-1.8.9-4.457 1.334-6.163 2.866l.36.348zM106.681 158.664c.163-.454.643-.933 1.26-1.389.607-.448 1.273-.825 1.771-1.139-.554.156-1.31.39-2.02.706-.688.305-1.436.728-1.873 1.315zM101.792 154.99c1.387-1.11 2.455-2.678 3.208-4.169-1.052 1.34-2.329 2.596-3.757 3.333zM98.036 152.071l.404.295c.525-1.01 1.506-2.446 1.766-3.594-.553.984-1.768 2.175-2.575 3.005l.405.294z" fill-rule="evenodd"/>
 <ellipse cx="236.69" cy="26.979" rx="10.083" ry="9.862" fill="#f95" stroke="#000" stroke-linecap="round" stroke-linejoin="round" stroke-width=".5"/>
 <g fill-rule="evenodd">
  <path d="m237.9 36.393-7.996-16.552 16.487 7.91-18.648 3.335 13.6-12.808z" fill="#fca" stroke="#000" stroke-linejoin="bevel" stroke-width=".5"/>
  <path d="m113.9 143.49 65.086-69.45 46.283-50.127-46.714 49.725-64.655 69.852zm6.945-3.724 30.862-32.704 23.686-26.517-24.486 25.78-30.063 33.44zm71.855-72.6c10.833-12.201 21.974-17.638 31.548-21.424a282.17 282.17 0 0 1 4.735-1.812c7.436-3.08 13.615-5.627 17.383-10.518-3.971 4.636-10.216 6.86-17.73 9.63a315.16 315.16 0 0 0-4.698 1.944c-9.561 4.076-20.594 9.782-31.238 22.18z" fill="#ff7f2a"/>
  <path d="m158.91 101.38c17.635-17.405 32.447-38.169 51.775-53.12 5.748-4.773 11.946-9.023 18.81-12.468-7.039 3.089-13.488 7.02-19.546 11.533-19.12 15.292-33.818 36.503-51.04 54.055zm-38.374 43.366 10.873-10.97 27.787-30.905-28.592 30.162-10.068 11.713zm81.558-93.369 15.76-15.053 7.473-8.37-8.31 7.541-14.923 15.882z" fill="#ff7f2a"/>
  <path d="M80.433 166.223c-7.778 1.427-15.14 4.101-21.324 7.317-.69.429-1.364.864-2.017 1.304-6.268 4.219-10.786 8.91-12.519 12.97 2.176-3.765 6.986-7.963 13.357-11.625.667-.383 1.35-.76 2.05-1.13 5.743-3.636 12.805-6.84 20.453-8.836zM52.597 195.505c-6.504 2.382-11.975 6.359-16.29 10.952-4.813 6.074-7.651 12.824-8.47 18.24 1.388-5.289 4.728-11.62 9.802-17.102 3.705-4.778 8.693-9.175 14.958-12.09zM34.613 234.375c7.668-2.872 16.062-6.732 23.454-10.754.831-.523 1.648-1.047 2.448-1.571 7.664-5.027 13.768-10.1 15.863-14-2.494 3.543-8.854 8.135-16.694 12.65-.82.472-1.656.943-2.506 1.413-7.027 4.483-15.12 8.851-22.565 12.262zM59.955 232.623c6.686-1.852 13.534-5.996 19.434-10.74a79.327 79.327 0 0 0 1.895-1.814c5.896-5.837 10.324-12.047 11.8-16.201-1.94 3.897-6.745 9.703-12.88 15.039a80.16 80.16 0 0 1-1.964 1.655c-5.377 5.062-11.818 9.667-18.285 12.061zM77.436 213.296c5.553-4.158 10.423-10.511 14.192-17.077a79.34 79.34 0 0 0 1.104-2.38c3.368-7.582 5.232-14.978 5.094-19.384-.389 4.336-2.75 11.492-6.522 18.695a80.137 80.137 0 0 1-1.227 2.256c-3.166 6.673-7.49 13.306-12.641 17.89zM63.14 208.755c5.894-3.433 11.91-8.716 17.033-14.237a99.618 99.618 0 0 0 1.61-2.054c5.004-6.56 8.67-13.08 9.623-17.257-1.44 3.967-5.527 10.137-10.852 16.255-.557.64-1.127 1.279-1.71 1.915-4.59 5.796-10.148 11.469-15.703 15.378z" fill="#fea"/>
  <path d="M99.732 155.152c1.474 1.079 4.488 3.403 6.462 4.849.74.541 1.476 1.07 2.194 1.564 1.372 1.246 2.682 2.363 3.755 3.14-1.243-.497-2.755-1.351-4.35-2.355-.678-.565-1.373-1.16-2.066-1.767-2.169-1.897-4.34-3.913-5.995-5.431zM95.982 157.92c1.473 1.078 4.488 3.403 6.462 4.848.74.542 1.476 1.07 2.194 1.565 1.372 1.246 2.682 2.363 3.755 3.14-1.243-.497-2.755-1.351-4.35-2.355-.678-.565-1.373-1.16-2.066-1.767-2.169-1.897-4.34-3.913-5.995-5.431zM92.366 160.866c1.474 1.08 4.487 3.403 6.461 4.849.74.542 1.477 1.07 2.195 1.564 1.372 1.246 2.682 2.363 3.755 3.14-1.243-.497-2.755-1.35-4.35-2.355a110.91 110.91 0 0 1-2.066-1.767c-2.169-1.897-4.34-3.912-5.995-5.43z" fill="#ffd5d5"/>
 </g>
</svg>
