<?xml version="1.0" encoding="UTF-8"?>
<svg cursor="default" version="1.1" viewBox="0 0 256 256" xml:space="preserve" xmlns="http://www.w3.org/2000/svg" xmlns:xlink="http://www.w3.org/1999/xlink"><defs><pattern id="pattern4322" patternTransform="matrix(-.55535 -.55538 .62956 -.62952 123.36 313.93)" xlink:href="#Polkadots-large"/><pattern id="Polkadots-large" width="10" height="10" patternTransform="translate(0) scale(10)" patternUnits="userSpaceOnUse"><g><circle cx="2.567" cy=".81" r=".45"/><circle cx="3.048" cy="2.33" r=".45"/><circle cx="4.418" cy="2.415" r=".45"/><circle cx="1.844" cy="3.029" r=".45"/><circle cx="6.08" cy="1.363" r=".45"/><circle cx="5.819" cy="4.413" r=".45"/><circle cx="4.305" cy="4.048" r=".45"/><circle cx="5.541" cy="3.045" r=".45"/><circle cx="4.785" cy="5.527" r=".45"/><circle cx="2.667" cy="5.184" r=".45"/><circle cx="7.965" cy="1.448" r=".45"/><circle cx="7.047" cy="5.049" r=".45"/><circle cx="4.34" cy=".895" r=".45"/><circle cx="7.125" cy=".34" r=".45"/><circle cx="7.125" cy="10.34" r=".45"/><circle cx="9.55" cy="1.049" r=".45"/><circle cx="7.006" cy="2.689" r=".45"/><circle cx="8.909" cy="2.689" r=".45"/><circle cx="9.315" cy="4.407" r=".45"/><circle cx="7.82" cy="3.87" r=".45"/><circle cx="8.27" cy="5.948" r=".45"/><circle cx="7.973" cy="7.428" r=".45"/><circle cx="9.342" cy="8.072" r=".45"/><circle cx="8.206" cy="9.315" r=".45"/><circle cx="9.682" cy="9.475" r=".45"/><circle cx="-.318" cy="9.475" r=".45"/><circle cx="9.688" cy="6.186" r=".45"/><circle cx="-.312" cy="6.186" r=".45"/><circle cx="3.379" cy="6.296" r=".45"/><circle cx="2.871" cy="8.204" r=".45"/><circle cx="4.59" cy="8.719" r=".45"/><circle cx="3.181" cy="9.671" r=".45"/><circle cx="3.181" cy="-.329" r=".45"/><circle cx="5.734" cy="7.315" r=".45"/><circle cx="6.707" cy="6.513" r=".45"/><circle cx="5.73" cy="9.67" r=".45"/><circle cx="5.73" cy="-.33" r=".45"/><circle cx="6.535" cy="8.373" r=".45"/><circle cx="4.37" cy="7.154" r=".45"/><circle cx=".622" cy="7.25" r=".45"/><circle cx=".831" cy="5.679" r=".45"/><circle cx="1.257" cy="8.519" r=".45"/><circle cx="1.989" cy="6.877" r=".45"/><circle cx=".374" cy="3.181" r=".45"/><circle cx="10.374" cy="3.181" r=".45"/><circle cx="1.166" cy="1.664" r=".45"/><circle cx="1.151" cy=".093" r=".45"/><circle cx="1.151" cy="10.093" r=".45"/><circle cx="1.302" cy="4.451" r=".45"/><circle cx="3.047" cy="3.763" r=".45"/></g></pattern><linearGradient id="linearGradient4330" x1="129.02" x2="128.67" y1="148.76" y2="274.61" gradientTransform="rotate(225 126.7 131.41)" gradientUnits="userSpaceOnUse"><stop stop-color="#f95" offset="0"/><stop stop-color="#ffb380" offset=".14726"/><stop stop-color="#ffb380" offset=".86985"/><stop stop-color="#f95" offset="1"/></linearGradient><linearGradient id="linearGradient7664" x1="140.13" x2="240.42" y1="124.26" y2="15.687" gradientUnits="userSpaceOnUse"><stop stop-color="#fd5" offset="0"/><stop stop-color="#ffe680" offset="1"/></linearGradient><linearGradient id="linearGradient7682" x1="200.67" x2="222.88" y1="34.018" y2="55.698" gradientUnits="userSpaceOnUse"><stop stop-color="#fd5" offset="0"/><stop stop-color="#fea" offset=".24282"/><stop stop-color="#fea" offset=".76899"/><stop stop-color="#fd5" offset="1"/></linearGradient><linearGradient id="linearGradient7987" x1="125.37" x2="125.32" y1="148.32" y2="152.95" gradientTransform="rotate(225 126.7 131.41)" gradientUnits="userSpaceOnUse"><stop stop-color="#f95" offset="0"/><stop stop-color="#ffb380" offset="1"/></linearGradient><linearGradient id="linearGradient8220" x1="3.739" x2="42.874" y1="249.77" y2="215.37" gradientUnits="userSpaceOnUse"><stop stop-color="#f95" offset="0"/><stop stop-color="#ffb380" offset="1"/></linearGradient><linearGradient id="linearGradient8452" x1="99.235" x2="75.616" y1="187.36" y2="163.04" gradientUnits="userSpaceOnUse"><stop stop-color="#ffd42a" offset="0"/><stop stop-color="#ffe680" offset=".50032"/><stop stop-color="#ffe680" offset=".7962"/><stop stop-color="#fd5" offset="1"/></linearGradient></defs><g stroke="#000"><path d="m51.989 219.42 97.389-91.666-21.343-20.596-91.71 96.576c3.0158 9.8083 8.7726 13.926 15.665 15.687z" fill="url(#linearGradient8452)"/><path d="m130 107.69 75.331-93.174c9.3785-11.6 27-15.122 39.271-2.8501 12.271 12.272 8.7387 29.881-2.8522 39.271l-92.077 74.591c-2.7034-1.6432-6.4992-4.3788-11.081-7.901-3.7189-3.4277-7.0267-6.7998-8.5916-9.9364z" fill="url(#linearGradient7664)" stroke-width=".96772"/><path d="m143.2 121.84s22.42-15.661 32.368-24.975c15.147-14.181 31.617-37.372 41.185-46.675 7.7501-8.0262 7.365-5.0929 12.263-9.4282 2.3445-2.0753 3.6126-4.7551 0.73576-8.1024l-3.0497-3.2207-3.2178-3.1404c-3.3558-2.8668-6.0318-1.5908-8.1002 0.75987-4.3207 4.9104-1.3886 4.5166-9.3917 12.291-9.2741 9.5958-32.416 26.135-46.552 41.323-9.2844 9.9758-24.879 32.442-24.879 32.442 2.295 3.5187 5.489 6.0276 8.6392 8.7255z" fill="url(#linearGradient4330)"/></g><path d="m224.25 27.036c-1.04-1.4943 1.8175-4.3608 3.3729-3.2615 1.8427 1.3023 4.1143 3.3466 4.8199 4.9115 0.73308 1.6259-1.5132 4.5986-3.4574 3.2189-1.7076-1.3917-3.5967-3.2328-4.7352-4.869z" fill="#ffb380" stroke="#000" stroke-width=".97966"/><g><path d="m161.98 108.08c5.0612-3.885 10.096-7.9411 13.591-11.214 12.461-11.667 25.818-29.432 35.49-40.544-1.6207-3.5653-8.04-10.313-11.22-11.224-11.087 9.7027-28.783 23.095-40.398 35.575-3.314 3.5608-7.4319 8.7129-11.358 13.867 2.6458 5.1221 11.987 13.564 13.895 13.539z" fill="url(#pattern4322)"/><path d="m119.69 99.867c-1.1921-1.4481 1.7067-3.7673 2.5345-2.5768 4.9996 7.1899 10.692 13.668 17.517 18.715 7.298 5.3976 13.466 11.666 18.665 18.97 0.94559 1.3285-1.9886 3.5301-3.0676 2.0525-4.4771-6.1309-9.544-12.385-17.781-18.625-6.7863-5.1409-12.306-11.779-17.868-18.536z" fill="url(#linearGradient7987)" stroke="#000"/><path d="m216.34 58.262c2.1705 1.6522 11.901-8.4975 10.4-10.047-6.1876-6.3857-12.525-12.621-18.947-18.772-1.8898-1.81-12.066 7.3642-9.8708 10.223 5.4579 7.1075 11.551 13.368 18.419 18.596z" fill="url(#linearGradient7682)" stroke="#000"/></g><g stroke="#000"><ellipse transform="rotate(225)" cx="-180.99" cy="118.7" rx="6.6368" ry="6.668" fill="#ff8080"/><ellipse transform="rotate(225)" cx="-180.99" cy="118.7" rx="5.374" ry="5.3992" fill="#ffb380" stroke-width=".80973"/><path d="m36.324 203.73-32.56 39.245c-0.2318 2.701 0.82536 4.7576 2.4675 6.5217 1.764 1.6422 3.8205 2.6995 6.5216 2.4678l39.235-32.548c-2.6244-4.1167-4.4524-6.2264-6.9476-8.4964-2.7487-2.5006-4.0325-3.9052-8.717-7.1909z" fill="url(#linearGradient8220)"/></g><g fill="#fff"><path d="m211.86 39.57c0.2614 0.07489 0.6144 0.36643 0.93421 0.82002 0.24975 0.35422 0.44884 0.75833 0.6094 1.1717 0.21338 0.5494 0.32529 1.0516 0.45486 1.295 0.12543 0.23557 0.34335 0.55967 0.55034 0.95732 0.16787 0.32251 0.32534 0.68698 0.42142 1.0788 0.0894 0.36469 0.12392 0.74657 0.0665 1.1307-0.0616 0.41215-0.22605 0.80393-0.49977 1.1545-0.36787 0.47112-0.87164 0.78549-1.3032 0.94069 0.42414-0.15254 0.98599-0.33928 1.5293-0.68885 0.40887-0.26307 0.7861-0.60529 1.0909-1.0617 0.28689-0.42967 0.48245-0.92104 0.58756-1.4514 0.11211-0.56568 0.11284-1.133 0.045-1.6483-0.0836-0.63531-0.26755-1.1651-0.44545-1.4992-0.1902-0.3572-0.67253-0.84675-1.3055-1.2545-0.46904-0.30217-0.95599-0.52083-1.4259-0.66555-0.58589-0.18042-1.0616-0.20795-1.3097-0.27904z"/><path d="m227.51 25.249c0.72146 0.58291 1.687 1.5663 2.2836 2.3929 0.25437 0.35246 0.42353 0.6458 0.53911 0.8907 0.14103 0.29884 0.1873 0.49386 0.22961 0.59936 4e-3 0.01001 8e-3 0.02028 0.013 0.03077 0.0501 0.11297 0.13111 0.24314 0.18678 0.39934 0.0438 0.12305 0.0711 0.2644 0.0542 0.44185-0.017 0.1788-0.0766 0.36749-0.16811 0.55656-0.11819 0.24412-0.28077 0.46882-0.40619 0.59326 0.13697-0.1359 0.33403-0.2763 0.56574-0.46589 0.16633-0.1361 0.33935-0.28999 0.48194-0.47253 0.14557-0.18636 0.25289-0.39426 0.30689-0.63177 0.069-0.30361 0.0348-0.59234-0.0334-0.79343-6e-3 -0.01817-0.0126-0.03547-0.0191-0.05183-0.0715-0.17831-0.23176-0.4169-0.50673-0.70458-0.22075-0.23095-0.50175-0.48061-0.85317-0.76421-0.74265-0.59934-1.9316-1.4211-2.6742-2.0205z"/><path d="m220.95 26.263c0.99965 1.1409 3.0058 3.3905 4.6826 5.217 0.76201 0.83005 1.3645 1.4991 1.9002 2.1335 0.63008 0.74632 0.94463 1.1803 1.2179 1.5443 0.0499 0.06642 0.10387 0.13786 0.16013 0.21324 0.13556 0.17982 0.26129 0.3817 0.34317 0.60997 0.0663 0.18482 0.106 0.39248 0.0971 0.63133-8e-3 0.2193-0.0574 0.46344-0.16219 0.73586-0.10104 0.26257-0.2496 0.54042-0.44756 0.83333-0.41242 0.61024-1.0022 1.231-1.6744 1.8324-0.87042 0.77881-1.8585 1.5039-2.5036 1.9361 0.61087-0.40924 1.7114-1.1116 2.6287-1.7814 0.7285-0.532 1.4168-1.0934 1.9464-1.6722 0.25634-0.28019 0.47483-0.56358 0.64702-0.85244 0.17919-0.3006 0.30637-0.60404 0.37575-0.91261 0.0767-0.34111 0.0787-0.67092 0.0188-0.98516-0.0732-0.38444-0.23318-0.71498-0.41088-0.97985-0.0591-0.08833-0.11727-0.17009-0.17249-0.24365-0.27725-0.36931-0.72529-0.8563-1.4252-1.5152-0.61366-0.57771-1.3106-1.1868-2.1529-1.923-2.1378-1.8688-3.8181-3.3944-5.0686-4.8216z"/><path d="m156.79 135.17c-0.77127-1.2196-3.119-5.0232-4.1191-6.1665-0.54994-0.62867-1.2362-1.3784-2.0711-2.2368-2.1854-2.247-4.7203-4.5609-8.0152-7.3736-2.7633-2.3589-5.6841-4.7537-8.2087-6.932-3.4943-3.0151-5.648-5.1146-7.1867-6.8295 1.5962 1.7791 3.564 3.8172 7.0359 6.999 2.4611 2.2555 5.3073 4.743 7.9934 7.1785 3.2304 2.929 5.6287 5.2476 7.775 7.5366 0.8126 0.86664 1.4764 1.6097 2.0208 2.2321 0.98613 1.1273 4.0043 4.3726 4.7756 5.5922z"/><path d="m38.388 207.52c0.50624 0.51775 1.9497 2.1493 3.1676 3.5396 1.1405 1.302 2.1534 2.4811 3.0636 3.6081 0.54504 0.67489 0.91679 1.1612 1.2548 1.604 0.15794 0.20695 0.29182 0.38222 0.40212 0.51924 0.19296 0.23973 0.40446 0.50514 0.60028 0.77099 0.25391 0.3447 0.45408 0.65323 0.58175 0.91753 0.05515 0.11417 0.08423 0.19378 0.10557 0.25628 0.01983 0.0581 0.02517 0.0752 0.04089 0.0847-0.02684 0.11985-0.09044 0.28313-0.20434 0.49063-0.10974 0.19993-0.26015 0.43022-0.45527 0.69213-0.3802 0.51033-0.91009 1.1142-1.5939 1.8189-1.3544 1.3959-3.2343 3.1074-5.4884 5.0906-5.6192 4.944-13.201 11.481-17.553 15.38 5.6452-5.0583 10.773-9.1482 17.947-14.912 2.335-1.876 4.3306-3.5005 5.8044-4.8192 0.74492-0.66652 1.3587-1.2566 1.8302-1.7742 0.24305-0.26678 0.45273-0.5191 0.62517-0.75733 0.17677-0.24421 0.32346-0.48596 0.42608-0.72492 0.10011-0.22918 0.13355-0.46747 0.13-0.69019-0.0037-0.2337-0.04819-0.46284-0.11064-0.67471-0.14003-0.47503-0.39678-0.94992-0.65636-1.3553-0.2115-0.33027-0.44219-0.64098-0.65289-0.90274-0.12238-0.15205-0.27983-0.32963-0.47323-0.53184-0.38939-0.40714-0.90123-0.8902-1.5436-1.4579-1.085-0.9589-2.3487-1.9903-3.66-3.0675-1.6334-1.3417-2.8943-2.3962-3.5879-3.1057z"/></g></svg>
