<svg xmlns="http://www.w3.org/2000/svg" xmlns:xlink="http://www.w3.org/1999/xlink" cursor="default" viewBox="0 0 256 256">
    <defs>
        <linearGradient id="innoGrad2">
            <stop offset="0" stop-color="#f55"/>
            <stop offset=".135" stop-color="#ff8080"/>
            <stop offset=".87" stop-color="#ff8080"/>
            <stop offset="1" stop-color="#f55"/>
        </linearGradient>
        <linearGradient id="innoGrad1">
            <stop offset="0" stop-color="#f55"/>
            <stop offset="1" stop-color="#ff8080"/>
        </linearGradient>
        <linearGradient id="linearGradient1470" x1="30.192" x2="60.527" y1="130.394" y2="129.915" gradientUnits="userSpaceOnUse" xlink:href="#innoGrad2"/>
        <linearGradient id="linearGradient1482" x1="63.404" x2="96.999" y1="130.002" y2="129.843" gradientUnits="userSpaceOnUse" xlink:href="#innoGrad2"/>
        <linearGradient id="linearGradient1490" x1="100.179" x2="107.638" y1="129.508" y2="129.316" gradientUnits="userSpaceOnUse" xlink:href="#innoGrad1"/>
        <linearGradient id="linearGradient1498" x1="27.327" x2="22.288" y1="129.335" y2="129.347" gradientUnits="userSpaceOnUse" xlink:href="#innoGrad1"/>
        <linearGradient id="linearGradient1506" x1="101.45" x2="153.579" y1="193.348" y2="192.807" gradientUnits="userSpaceOnUse" xlink:href="#innoGrad2"/>
        <linearGradient id="linearGradient1514" x1="97.269" x2="93.722" y1="218.847" y2="218.751" gradientUnits="userSpaceOnUse" xlink:href="#innoGrad1"/>
        <linearGradient id="linearGradient1522" x1="96.828" x2="92.811" y1="34.576" y2="34.712" gradientUnits="userSpaceOnUse" xlink:href="#innoGrad1"/>
        <linearGradient id="linearGradient1530" x1="154.146" x2="159.641" y1="35.366" y2="35.095" gradientUnits="userSpaceOnUse" xlink:href="#innoGrad1"/>
        <linearGradient id="linearGradient1538" x1="155.333" x2="188.855" y1="129.451" y2="128.717" gradientUnits="userSpaceOnUse" xlink:href="#innoGrad2"/>
        <linearGradient id="linearGradient1546" x1="152.785" x2="146.695" y1="128.865" y2="128.673" gradientUnits="userSpaceOnUse" xlink:href="#innoGrad1"/>
        <linearGradient id="linearGradient1554" x1="192.765" x2="218.82" y1="130.366" y2="129.688" gradientUnits="userSpaceOnUse" xlink:href="#innoGrad2"/>
        <linearGradient id="linearGradient1562" x1="222.315" x2="228.024" y1="129.847" y2="129.676" gradientUnits="userSpaceOnUse" xlink:href="#innoGrad1"/>
        <linearGradient id="linearGradient1630" x1="155.5" x2="162.86" y1="216.028" y2="216.555" gradientUnits="userSpaceOnUse" xlink:href="#innoGrad1"/>
    </defs>
    <path fill="#ffb380" fill-rule="evenodd" stroke="#000" d="M219.805 89.516l-.98-23.666L227 87.92zM223.83 167.966l.848 17.661 6.136-15.491zM24.734 86.576l2.791-6.983.08 8.3zM24.237 172.644l2.407 6.542.034-8.576z"/>
    <path fill="#ff7f2a" fill-rule="evenodd" stroke="#000" stroke-width=".983" d="M227.413 98.942l-207.022 2.496.185 8.643 207.392-1.728z"/>
    <path fill="#ff7f2a" fill-rule="evenodd" stroke="#000" stroke-width=".982" d="M230.323 147.647l.185 14.976-206.866-.192-.554-11.52z"/>
    <path fill="#ff7f2a" fill-rule="evenodd" stroke="#000" d="M55.226 65.393v10.93l141.71-1.534.191-13.231zM55.418 185.817l.384 8.629 142.476 1.917-.767-13.23z"/>
    <path fill="#ffb380" fill-rule="evenodd" stroke="#000" d="M29.78 77.091l-.047 107.436 8.162-4.279 3.82 18.9 7.981-2.927 11.102 14.001.767-166.446-9.493 8.289-8.495 37.71-3.551-20.356z"/>
    <path fill="#ffb380" fill-rule="evenodd" stroke="#000" stroke-width=".982" d="M64.144 37.32l-2.34 183.975 26.158.411 9.735-21.86-.736-143.139-12.404-29.232z"/>
    <path fill="#ffb380" fill-rule="evenodd" stroke="#000" stroke-width=".974" d="M100.272 65.658l-.573 128.024c21.093 1.668 32.065-.632 53.902-5.76L151.644 72.87c-27.085-7.664-39.93-5.224-51.372-7.21z"/>
    <path fill="#ffb380" fill-rule="evenodd" stroke="#000" stroke-width=".982" d="M154.505 64.732l1.593 130.906 13.845 28.969 22.886-4.613-6.563-185.975-15.341-7.504z"/>
    <path fill="#ffb380" fill-rule="evenodd" stroke="#000" d="M189.589 41.423l5.146 173.656 9.45-15.03 12.228-.664 6.216-12.053L215.486 59.4l-15.72 3.616z"/>
    <path fill="url(#linearGradient1522)" fill-rule="evenodd" stroke="#000" d="M83.702 27.904L97.03 58.01l-.287-36.434z"/>
    <path fill="url(#linearGradient1506)" fill-rule="evenodd" stroke="#000" stroke-width=".974" d="M100.468 20.468l-.159 45.117 27.443 62.895-28.055 65.583.004 44.214 12.853-7.75 16.488 8.722 15.548-23.659 9.98 24.505-.964-52.07-25.33-59.547 23.398-56.37-.94-54.549-13.822.8-15.206 14.916 1.105 19.529-10.301-13.811-3.388-19.025z"/>
    <path fill="url(#linearGradient1514)" fill-rule="evenodd" stroke="#000" d="M88.203 221.83l9.356 12.407.204-34.712z"/>
    <path fill="url(#linearGradient1630)" fill-rule="evenodd" stroke="#000" d="M169.966 224.61l-13.017 12.136-.949-42.373z"/>
    <path fill="url(#linearGradient1530)" fill-rule="evenodd" stroke="#000" d="M154.27 65.776l16.49-39.31-17.354-8.437z"/>
    <path fill="url(#linearGradient1482)" fill-rule="evenodd" stroke="#000" d="M63.376 101.06l-.863 55.514 34.708-14.766.096-25.983z"/>
    <path fill="url(#linearGradient1490)" fill-rule="evenodd" stroke="#000" d="M100.098 116.88l-.192 23.586 27.517-11.793z"/>
    <path fill="url(#linearGradient1470)" fill-rule="evenodd" stroke="#000" d="M61.075 100.58L29.818 87.157l-.096 83.894 31.161-13.71z"/>
    <path fill="url(#linearGradient1498)" fill-rule="evenodd" stroke="#000" d="M27.613 86.103l-2.397-.767-11.41 25.983 1.343 40.748 4.794 13.232 4.506 8.053 2.301-1.15z"/>
    <path fill="url(#linearGradient1546)" fill-rule="evenodd" stroke="#000" d="M127.729 128.407l24.678-10.983.407 21.695z"/>
    <path fill="url(#linearGradient1538)" fill-rule="evenodd" stroke="#000" d="M154.712 116.746l33.491-14.644 2.441 53.017-35.254-14.78z"/>
    <path fill="url(#linearGradient1554)" fill-rule="evenodd" stroke="#000" d="M191.458 100.61l25.356-10.983 4.61 78.373-28.475-12.068z"/>
    <path fill="url(#linearGradient1562)" fill-rule="evenodd" stroke="#000" d="M219.797 88.678l6.372-2.983 8.272 22.644 1.627-9.627 7.186 37.424-13.152 35.796-6.238-2.847z"/>
    <path fill="#f95" d="M79.33 211.487c-.047-3.459.24-9.66.538-15.57.3-5.927.584-11.217.537-13.968-.05-2.859-.512-8.236-1.056-13.683-.516-5.173-1.187-11.111-1.335-13.715.169 2.97.076 8.217-.11 13.763-.18 5.38-.438 10.91-.39 13.685.043 2.579.488 8.18.909 13.934.422 5.782.861 12.216.906 15.554zM89.431 155.508c-.022 3.544-.394 14.262-.308 17.83.05 2.021.305 6.057.424 10.086.126 4.28.072 7.798-.116 10.05.238-2.856.513-5.142.76-10.043.202-4.035.268-8.105.22-10.124-.087-3.576-1.002-14.255-.98-17.8zM91.117 106.298c-.05-2.56.199-7.123.461-11.496.263-4.386.51-8.276.458-10.319-.054-2.115-.495-6.078-1.026-10.098-.495-3.754-1.174-8.247-1.33-10.107.185 2.204.146 6.063.008 10.172-.133 3.966-.351 8.064-.3 10.1.048 1.887.47 6.044.866 10.274.398 4.255.814 9.02.863 11.474zM81.455 92.739c-.046-3.458.24-9.66.54-15.57.299-5.927.583-11.217.536-13.968-.05-2.859-.512-8.235-1.056-13.683-.516-5.173-1.187-11.11-1.335-13.715.17 2.97.076 8.217-.11 13.763-.18 5.38-.438 10.91-.39 13.685.044 2.579.488 8.18.909 13.934.422 5.782.861 12.217.906 15.554zM73.082 62.373c-.017 1.772-.186 5.328-.26 8.906-.07 3.406-.102 7.334-.04 8.942.014.34.035.736.062 1.181.155 2.552.456 6.092.556 9.899.102 3.868-.044 7.007-.318 9.038.322-2.383.724-4.774 1.055-9.02.29-3.741.386-7.488.358-9.976a43.627 43.627 0 0 0-.028-1.188c-.077-1.967-.438-5.18-.802-8.909-.367-3.753-.602-6.9-.583-8.873zM68.002 39.322c-.022 3.544-.394 14.262-.308 17.83.05 2.021.305 6.057.424 10.086.126 4.281.072 7.798-.116 10.05.238-2.856.513-5.141.76-10.043.202-4.035.268-8.104.22-10.124-.087-3.575-1.002-14.255-.98-17.799zM70.997 179.298c-.022 3.544-.395 14.262-.308 17.83.049 2.021.304 6.057.424 10.086.126 4.28.072 7.798-.116 10.05.238-2.856.513-5.142.76-10.043.202-4.035.268-8.105.22-10.124-.087-3.576-1.002-14.255-.98-17.8zM55.699 163.765c-.02 1.549-.183 4.657-.246 7.787-.06 2.97-.078 6.428-.011 7.819.014.297.036.643.064 1.031.16 2.219.468 5.32.56 8.635.094 3.382-.074 6.12-.367 7.9.338-2.051.765-4.194 1.099-7.877.297-3.273.383-6.552.349-8.73a33.026 33.026 0 0 0-.031-1.04c-.083-1.731-.452-4.513-.826-7.777-.376-3.282-.612-6.016-.591-7.748zM43.866 167.792c-.042 1.209-.567 4.166-1.01 7.004-.453 2.917-.868 5.905-.852 7.336.003.277.019.599.046.957.152 1.987.626 4.94 1.055 7.529.432 2.6.782 4.612.761 5.553.02-.836.422-3.047.798-5.565.384-2.566.779-5.614.882-7.558.019-.358.028-.68.025-.955-.016-1.427-.493-4.388-.93-7.291-.446-2.955-.822-5.665-.775-7.01zM55.4 56.048c-.042 1.56-.628 5.309-1.132 8.946-.516 3.723-.992 7.534-.977 9.36.003.353.021.765.052 1.223.17 2.532.703 6.315 1.19 9.62.487 3.32.89 5.9.868 7.094.02-1.08.473-3.88.906-7.105.44-3.277.895-7.16 1.016-9.646.022-.458.033-.868.03-1.22-.016-1.824-.555-5.61-1.054-9.321-.507-3.77-.945-7.241-.898-8.95zM147.604 138.489c-.042 1.208-.567 4.165-1.009 7.004-.454 2.917-.869 5.905-.853 7.335.003.277.02.6.047.958.151 1.986.625 4.94 1.055 7.528.432 2.601.782 4.613.76 5.553.02-.835.422-3.047.798-5.565.384-2.565.779-5.613.882-7.557.019-.358.028-.68.025-.956-.016-1.427-.493-4.387-.93-7.291-.445-2.954-.822-5.664-.775-7.01zM107.469 88.32c-.043 1.208-.567 4.165-1.01 7.003-.454 2.917-.868 5.905-.853 7.336.003.277.02.599.047.957.152 1.987.625 4.94 1.055 7.529.432 2.6.782 4.612.76 5.553.02-.836.422-3.047.799-5.565.383-2.566.778-5.614.881-7.558.02-.358.028-.68.025-.955-.015-1.427-.492-4.388-.93-7.292-.445-2.954-.822-5.664-.774-7.009zM103.872 145.946c-.004 1.277-.22 4.11-.429 7.007-.209 2.91-.415 5.885-.413 7.314 0 .277.007.598.018.957.061 1.969.269 4.962.461 7.542.192 2.579.365 4.652.363 5.559.002-.888.18-3 .367-5.56.188-2.572.387-5.582.444-7.543.01-.358.016-.68.016-.956-.002-1.43-.213-4.403-.421-7.313-.209-2.922-.41-5.704-.406-7.007zM113.013 136.997c.002 1.015-.138 3.189-.282 5.467-.144 2.27-.29 4.59-.29 5.706 0 .215.004.466.01.746.04 1.53.179 3.877.309 5.885.13 1.999.252 3.643.253 4.337-.001-.706.118-2.326.25-4.337.133-2.012.276-4.349.318-5.884.008-.28.012-.531.012-.747.001-1.115-.141-3.435-.286-5.706-.144-2.263-.292-4.468-.294-5.467zM148.618 86.963c-.004 1.277-.22 4.11-.429 7.007-.21 2.91-.415 5.885-.413 7.314 0 .277.007.598.017.957.062 1.969.27 4.962.462 7.542.192 2.579.365 4.651.363 5.559.002-.888.18-3 .366-5.56.188-2.572.388-5.582.445-7.543.01-.358.016-.68.016-.956-.002-1.43-.213-4.403-.421-7.313-.209-2.922-.41-5.704-.406-7.007zM185.628 217.485c-.051-2.561.199-7.124.461-11.496.263-4.387.51-8.277.458-10.32-.054-2.115-.495-6.077-1.026-10.098-.495-3.753-1.174-8.246-1.33-10.107.185 2.204.146 6.064.007 10.172-.133 3.966-.35 8.065-.299 10.101.048 1.886.47 6.044.866 10.274.397 4.255.814 9.02.863 11.474zM176.238 207.18c-.047-3.459.24-9.66.539-15.57.3-5.927.583-11.217.536-13.968-.049-2.859-.511-8.236-1.055-13.683-.517-5.173-1.187-11.111-1.335-13.715.168 2.969.075 8.216-.11 13.763-.18 5.38-.439 10.91-.392 13.685.045 2.579.49 8.18.91 13.934.422 5.782.862 12.216.907 15.554zM167.864 176.814c-.017 1.771-.185 5.328-.26 8.905-.07 3.407-.102 7.335-.039 8.942.013.341.035.737.061 1.182.155 2.552.456 6.091.556 9.898.102 3.87-.044 7.008-.318 9.039.322-2.384.724-4.775 1.055-9.02.291-3.742.387-7.489.358-9.976a43.557 43.557 0 0 0-.027-1.189c-.078-1.966-.439-5.18-.803-8.908-.366-3.753-.602-6.9-.583-8.873zM162.784 153.763c-.021 3.543-.394 14.262-.308 17.83.05 2.021.305 6.057.424 10.086.127 4.28.072 7.798-.116 10.05.238-2.856.514-5.142.76-10.044.202-4.035.269-8.104.22-10.123-.087-3.576-1.002-14.256-.98-17.8zM199.35 202.705c-.072-2.57.213-7.119.514-11.504.302-4.4.583-8.278.51-10.334-.077-2.122-.63-6.08-1.31-10.098-.674-3.988-1.491-8.007-1.737-10.084.262 2.217.273 6.069.147 10.194-.12 3.96-.359 8.079-.286 10.102.066 1.866.594 6.047 1.083 10.258.492 4.24 1.01 9.023 1.08 11.466zM182.1 98.027c-.05-2.56.2-7.123.461-11.496.263-4.386.51-8.277.458-10.319-.054-2.115-.495-6.078-1.026-10.098-.495-3.754-1.174-8.247-1.33-10.107.185 2.204.146 6.063.007 10.172-.133 3.966-.35 8.064-.299 10.1.048 1.887.47 6.044.866 10.274.398 4.255.814 9.02.863 11.474zM175.296 89.481c-.046-3.458.24-9.66.54-15.57.299-5.926.583-11.217.535-13.967-.049-2.86-.51-8.236-1.055-13.684-.516-5.172-1.187-11.11-1.335-13.714.169 2.969.076 8.216-.11 13.762-.18 5.381-.439 10.91-.391 13.685.044 2.58.489 8.18.91 13.935.422 5.781.861 12.216.906 15.553zM166.923 71.319c-.018 1.772-.186 5.328-.26 8.905-.07 3.407-.103 7.335-.04 8.942.014.341.035.737.062 1.182.154 2.552.456 6.091.556 9.898.102 3.87-.044 7.008-.318 9.039.321-2.384.724-4.774 1.054-9.02.292-3.742.387-7.489.359-9.976a43.556 43.556 0 0 0-.028-1.189c-.077-1.966-.438-5.18-.802-8.908-.367-3.753-.603-6.9-.583-8.873zM161.572 52.336c-.022 3.543-.395 14.261-.308 17.83.049 2.021.304 6.057.423 10.086.127 4.28.072 7.798-.115 10.05.238-2.856.513-5.142.76-10.044.202-4.035.268-8.104.219-10.123-.087-3.576-1.001-14.256-.98-17.8zM193.092 51.71c-.004 1.276-.22 4.108-.428 7.006-.21 2.91-.415 5.885-.414 7.314 0 .276.007.598.018.957.062 1.968.269 4.962.461 7.542.193 2.578.365 4.651.363 5.558.002-.887.18-2.999.367-5.559.188-2.573.387-5.582.445-7.543.01-.359.016-.68.015-.957-.002-1.428-.213-4.402-.42-7.312-.21-2.922-.411-5.704-.407-7.007zM197.862 65.81c-.018 1.267-.578 4.115-1.108 7.006-.534 2.914-1.052 5.894-1.046 7.324 0 .276.018.599.047.957.16 1.972.694 4.957 1.186 7.536.494 2.58.929 4.642.92 5.556.008-.88.464-3.005.936-5.562.474-2.573.976-5.592 1.118-7.55.026-.358.04-.68.038-.955-.006-1.428-.549-4.396-1.076-7.303-.531-2.927-1.034-5.697-1.015-7.008zM210.316 64.184c-.006 1.03-.256 3.326-.496 5.667-.24 2.355-.475 4.762-.473 5.918 0 .223.008.484.02.774.072 1.593.312 4.012.533 6.1.222 2.087.42 3.76.416 4.495.003-.715.208-2.428.422-4.497.215-2.08.443-4.517.508-6.102.011-.29.018-.55.017-.774-.002-1.156-.246-3.56-.484-5.914-.24-2.365-.47-4.61-.463-5.667zM207.194 165.065c-.004 1.277-.22 4.11-.429 7.007-.209 2.91-.415 5.885-.413 7.314 0 .276.007.598.018.957.061 1.968.269 4.962.461 7.542.192 2.578.365 4.651.363 5.558.002-.887.18-2.999.367-5.559.188-2.573.387-5.582.444-7.543.01-.359.016-.68.016-.957-.002-1.429-.213-4.402-.421-7.312-.209-2.922-.41-5.704-.406-7.007zM214.11 172.93c-.005.945-.212 3.05-.41 5.198-.2 2.16-.395 4.368-.393 5.428 0 .205.006.444.017.71.06 1.461.258 3.681.441 5.595.184 1.915.348 3.45.346 4.125.002-.657.171-2.227.349-4.125.178-1.909.368-4.144.422-5.598.01-.266.015-.505.014-.71-.002-1.06-.204-3.266-.401-5.425-.199-2.17-.39-4.23-.385-5.198z"/>
    <ellipse cx="128" cy="128.675" fill="#ff8080" stroke="#000" stroke-linecap="round" stroke-linejoin="round" stroke-width="1.757" paint-order="stroke fill markers" rx="17.881" ry="18.142"/>
    <path fill="none" stroke="#000" stroke-linecap="round" stroke-width="2.634" d="M119.946 140.144l7.96-25.34 7.85 25.33-20.627-15.645 25.635.249z"/>
    <path fill="none" stroke="#ff2a2a" stroke-linecap="round" stroke-width="1.5" d="M119.946 140.144l7.96-25.34 7.85 25.33-20.627-15.645 25.635.249z"/>
    <ellipse cx="94.194" cy="155.81" fill="#ffe680" stroke="#000" stroke-linecap="round" stroke-linejoin="round" stroke-width="1.379" paint-order="stroke fill markers" rx="1.516" ry="1.408"/>
    <ellipse cx="65.485" cy="157.053" fill="#ffe680" stroke="#000" stroke-linecap="round" stroke-linejoin="round" stroke-width="1.379" paint-order="stroke fill markers" rx="1.516" ry="1.408"/>
    <ellipse cx="57.048" cy="154.177" fill="#ffe680" stroke="#000" stroke-linecap="round" stroke-linejoin="round" stroke-width="1.379" paint-order="stroke fill markers" rx="1.516" ry="1.408"/>
    <ellipse cx="33.462" cy="158.108" fill="#ffe680" stroke="#000" stroke-linecap="round" stroke-linejoin="round" stroke-width="1.379" paint-order="stroke fill markers" rx="1.516" ry="1.408"/>
    <ellipse cx="33.462" cy="104.895" fill="#ffe680" stroke="#000" stroke-linecap="round" stroke-linejoin="round" stroke-width="1.379" paint-order="stroke fill markers" rx="1.516" ry="1.408"/>
    <ellipse cx="57.911" cy="106.908" fill="#ffe680" stroke="#000" stroke-linecap="round" stroke-linejoin="round" stroke-width="1.379" paint-order="stroke fill markers" rx="1.516" ry="1.408"/>
    <ellipse cx="67.978" cy="103.936" fill="#ffe680" stroke="#000" stroke-linecap="round" stroke-linejoin="round" stroke-width="1.379" paint-order="stroke fill markers" rx="1.516" ry="1.408"/>
    <ellipse cx="93.578" cy="105.278" fill="#ffe680" stroke="#000" stroke-linecap="round" stroke-linejoin="round" stroke-width="1.379" paint-order="stroke fill markers" rx="1.516" ry="1.408"/>
    <ellipse cx="103.549" cy="102.881" fill="#ffe680" stroke="#000" stroke-linecap="round" stroke-linejoin="round" stroke-width="1.379" paint-order="stroke fill markers" rx="1.516" ry="1.408"/>
    <ellipse cx="147.174" cy="104.895" fill="#ffe680" stroke="#000" stroke-linecap="round" stroke-linejoin="round" stroke-width="1.379" paint-order="stroke fill markers" rx="1.516" ry="1.408"/>
    <ellipse cx="104.891" cy="158.204" fill="#ffe680" stroke="#000" stroke-linecap="round" stroke-linejoin="round" stroke-width="1.379" paint-order="stroke fill markers" rx="1.516" ry="1.408"/>
    <ellipse cx="149.475" cy="151.971" fill="#ffe680" stroke="#000" stroke-linecap="round" stroke-linejoin="round" stroke-width="1.379" paint-order="stroke fill markers" rx="1.516" ry="1.408"/>
    <ellipse cx="161.748" cy="158.395" fill="#ffe680" stroke="#000" stroke-linecap="round" stroke-linejoin="round" stroke-width="1.379" paint-order="stroke fill markers" rx="1.516" ry="1.408"/>
    <ellipse cx="184.663" cy="154.56" fill="#ffe680" stroke="#000" stroke-linecap="round" stroke-linejoin="round" stroke-width="1.379" paint-order="stroke fill markers" rx="1.516" ry="1.408"/>
    <ellipse cx="197.415" cy="159.162" fill="#ffe680" stroke="#000" stroke-linecap="round" stroke-linejoin="round" stroke-width="1.379" paint-order="stroke fill markers" rx="1.516" ry="1.408"/>
    <ellipse cx="216.59" cy="155.807" fill="#ffe680" stroke="#000" stroke-linecap="round" stroke-linejoin="round" stroke-width="1.379" paint-order="stroke fill markers" rx="1.516" ry="1.408"/>
    <ellipse cx="200.003" cy="194.733" fill="#ffe680" stroke="#000" stroke-linecap="round" stroke-linejoin="round" stroke-width="1.379" paint-order="stroke fill markers" rx="1.516" ry="1.408"/>
    <ellipse cx="202.209" cy="186.104" fill="#ffe680" stroke="#000" stroke-linecap="round" stroke-linejoin="round" stroke-width="1.379" paint-order="stroke fill markers" rx="1.516" ry="1.408"/>
    <ellipse cx="160.405" cy="191.665" fill="#ffe680" stroke="#000" stroke-linecap="round" stroke-linejoin="round" stroke-width="1.379" paint-order="stroke fill markers" rx="1.516" ry="1.408"/>
    <ellipse cx="188.018" cy="187.351" fill="#ffe680" stroke="#000" stroke-linecap="round" stroke-linejoin="round" stroke-width="1.379" paint-order="stroke fill markers" rx="1.516" ry="1.408"/>
    <ellipse cx="148.996" cy="191.569" fill="#ffe680" stroke="#000" stroke-linecap="round" stroke-linejoin="round" stroke-width="1.379" paint-order="stroke fill markers" rx="1.516" ry="1.408"/>
    <ellipse cx="105.083" cy="188.405" fill="#ffe680" stroke="#000" stroke-linecap="round" stroke-linejoin="round" stroke-width="1.379" paint-order="stroke fill markers" rx="1.516" ry="1.408"/>
    <ellipse cx="94.728" cy="191.953" fill="#ffe680" stroke="#000" stroke-linecap="round" stroke-linejoin="round" stroke-width="1.379" paint-order="stroke fill markers" rx="1.516" ry="1.408"/>
    <ellipse cx="66.54" cy="190.898" fill="#ffe680" stroke="#000" stroke-linecap="round" stroke-linejoin="round" stroke-width="1.379" paint-order="stroke fill markers" rx="1.516" ry="1.408"/>
    <ellipse cx="56.664" cy="192.432" fill="#ffe680" stroke="#000" stroke-linecap="round" stroke-linejoin="round" stroke-width="1.379" paint-order="stroke fill markers" rx="1.516" ry="1.408"/>
    <ellipse cx="53.309" cy="188.022" fill="#ffe680" stroke="#000" stroke-linecap="round" stroke-linejoin="round" stroke-width="1.379" paint-order="stroke fill markers" rx="1.516" ry="1.408"/>
    <ellipse cx="159.254" cy="103.864" fill="#ffe680" stroke="#000" stroke-linecap="round" stroke-linejoin="round" stroke-width="1.379" paint-order="stroke fill markers" rx="1.516" ry="1.408"/>
    <ellipse cx="185.288" cy="101.22" fill="#ffe680" stroke="#000" stroke-linecap="round" stroke-linejoin="round" stroke-width="1.379" paint-order="stroke fill markers" rx="1.516" ry="1.408"/>
    <ellipse cx="195.797" cy="105.017" fill="#ffe680" stroke="#000" stroke-linecap="round" stroke-linejoin="round" stroke-width="1.379" paint-order="stroke fill markers" rx="1.516" ry="1.408"/>
    <ellipse cx="212.203" cy="102.915" fill="#ffe680" stroke="#000" stroke-linecap="round" stroke-linejoin="round" stroke-width="1.379" paint-order="stroke fill markers" rx="1.516" ry="1.408"/>
    <ellipse cx="224.339" cy="103.797" fill="#ffe680" stroke="#000" stroke-linecap="round" stroke-linejoin="round" stroke-width="1.379" paint-order="stroke fill markers" rx="1.516" ry="1.408"/>
    <ellipse cx="226.754" cy="158.587" fill="#ffe680" stroke="#000" stroke-linecap="round" stroke-linejoin="round" stroke-width="1.379" paint-order="stroke fill markers" rx="1.516" ry="1.408"/>
    <ellipse cx="228.288" cy="151.684" fill="#ffe680" stroke="#000" stroke-linecap="round" stroke-linejoin="round" stroke-width="1.379" paint-order="stroke fill markers" rx="1.516" ry="1.408"/>
    <ellipse cx="194.634" cy="71.337" fill="#ffe680" stroke="#000" stroke-linecap="round" stroke-linejoin="round" stroke-width="1.379" paint-order="stroke fill markers" rx="1.516" ry="1.408"/>
    <ellipse cx="194.346" cy="65.105" fill="#ffe680" stroke="#000" stroke-linecap="round" stroke-linejoin="round" stroke-width="1.379" paint-order="stroke fill markers" rx="1.516" ry="1.408"/>
    <ellipse cx="183.608" cy="70.283" fill="#ffe680" stroke="#000" stroke-linecap="round" stroke-linejoin="round" stroke-width="1.379" paint-order="stroke fill markers" rx="1.516" ry="1.408"/>
    <ellipse cx="159.351" cy="67.214" fill="#ffe680" stroke="#000" stroke-linecap="round" stroke-linejoin="round" stroke-width="1.379" paint-order="stroke fill markers" rx="1.516" ry="1.408"/>
    <ellipse cx="148.421" cy="70.954" fill="#ffe680" stroke="#000" stroke-linecap="round" stroke-linejoin="round" stroke-width="1.379" paint-order="stroke fill markers" rx="1.516" ry="1.408"/>
    <ellipse cx="105.754" cy="67.31" fill="#ffe680" stroke="#000" stroke-linecap="round" stroke-linejoin="round" stroke-width="1.379" paint-order="stroke fill markers" rx="1.516" ry="1.408"/>
    <ellipse cx="93.77" cy="71.721" fill="#ffe680" stroke="#000" stroke-linecap="round" stroke-linejoin="round" stroke-width="1.379" paint-order="stroke fill markers" rx="1.516" ry="1.408"/>
    <ellipse cx="68.937" cy="69.516" fill="#ffe680" stroke="#000" stroke-linecap="round" stroke-linejoin="round" stroke-width="1.379" paint-order="stroke fill markers" rx="1.516" ry="1.408"/>
    <ellipse cx="57.144" cy="70.762" fill="#ffe680" stroke="#000" stroke-linecap="round" stroke-linejoin="round" stroke-width="1.379" paint-order="stroke fill markers" rx="1.516" ry="1.408"/>
</svg>
