<?xml version="1.0" encoding="UTF-8" standalone="no"?>
<!-- Created with Inkscape (http://www.inkscape.org/) -->

<svg
   xmlns:dc="http://purl.org/dc/elements/1.1/"
   xmlns:cc="http://creativecommons.org/ns#"
   xmlns:rdf="http://www.w3.org/1999/02/22-rdf-syntax-ns#"
   xmlns:svg="http://www.w3.org/2000/svg"
   xmlns="http://www.w3.org/2000/svg"
   xmlns:sodipodi="http://sodipodi.sourceforge.net/DTD/sodipodi-0.dtd"
   xmlns:inkscape="http://www.inkscape.org/namespaces/inkscape"
   width="100%"
   height="100%"
   viewBox="0 0 64.000001 64.000001"
   id="svg4311"
   version="1.1"
   inkscape:version="0.91 r13725"
   sodipodi:docname="attIntelligence1.svg">
  <defs
     id="defs4313" />
  <sodipodi:namedview
     id="base"
     pagecolor="#ffffff"
     bordercolor="#666666"
     borderopacity="1.0"
     inkscape:pageopacity="0.0"
     inkscape:pageshadow="2"
     inkscape:zoom="8.0000004"
     inkscape:cx="16.756905"
     inkscape:cy="42.983662"
     inkscape:document-units="px"
     inkscape:current-layer="layer1"
     showgrid="false"
     units="px"
     inkscape:window-width="2560"
     inkscape:window-height="1388"
     inkscape:window-x="-8"
     inkscape:window-y="-8"
     inkscape:window-maximized="1" />
  <metadata
     id="metadata4316">
    <rdf:RDF>
      <cc:Work
         rdf:about="">
        <dc:format>image/svg+xml</dc:format>
        <dc:type
           rdf:resource="http://purl.org/dc/dcmitype/StillImage" />
        <dc:title></dc:title>
      </cc:Work>
    </rdf:RDF>
  </metadata>
  <g
     inkscape:label="Layer 1"
     inkscape:groupmode="layer"
     id="layer1"
     transform="translate(0,-988.36216)"
     style="display:inline">
    <g
       id="g4198"
       transform="matrix(1.157625,0,0,1.157625,-5.157058,-161.13615)"
       style="fill:#aaeeff">
      <path
         sodipodi:nodetypes="cccccc"
         inkscape:connector-curvature="0"
         id="path4796"
         d="m 34.688732,1026.5425 c 0.146154,3.2169 -2.047849,1.8516 -4.907026,6.5074 -1.108179,1.1618 -3.312477,-0.2197 -3.062915,-0.9539 0.718773,-0.989 0.887482,-1.9252 1.218806,-2.9145 -4.567685,1.6848 -6.68552,-3.5533 -5.860874,-4.7798 0.402907,-2.01 11.951122,-0.7596 12.612009,2.1408 z"
         style="display:inline;fill:#aaeeff;fill-opacity:1;fill-rule:evenodd;stroke:#000000;stroke-width:0.5;stroke-linecap:butt;stroke-linejoin:miter;stroke-miterlimit:4;stroke-dasharray:none;stroke-opacity:1" />
      <path
         sodipodi:nodetypes="ccccccccccccccc"
         inkscape:connector-curvature="0"
         id="path4734"
         d="m 32.704464,1011.8694 c 1.34008,-0.846 2.981405,-0.4937 3.477285,-0.06 0.584384,-0.2131 1.582847,0.2256 2.008432,0.9293 3.793215,0.8538 4.908518,2.2624 4.976116,3.7471 1.76892,1.3818 1.640993,3.5231 0.899297,4.4665 -0.336393,2.8375 -1.4759,3.8535 -2.997659,3.867 -1.285134,0.949 -3.069266,0.7544 -3.597192,0.12 -1.373414,1.9055 -3.598234,1.5798 -4.31663,1.1991 -2.858138,0.46 -5.189137,0.3927 -5.695553,-1.4989 -1.696234,0.6682 -3.355948,0.2972 -3.597191,-0.09 -3.118308,0.822 -3.306733,-2.5802 -2.757847,-3.6572 -0.922382,-2.4191 0.958058,-4.0232 1.648713,-4.1967 -0.688082,-1.4028 1.326879,-2.5956 2.607963,-2.0384 -0.0094,-1.4703 1.50467,-2.3535 2.068386,-1.8885 0.998638,-2.3367 4.224042,-1.9203 5.27588,-0.8995 z"
         style="display:inline;fill:#aaeeff;fill-opacity:1;fill-rule:evenodd;stroke:#000000;stroke-width:0.5;stroke-linecap:butt;stroke-linejoin:miter;stroke-miterlimit:4;stroke-dasharray:none;stroke-opacity:1" />
      <path
         sodipodi:nodetypes="cc"
         inkscape:connector-curvature="0"
         id="path4821"
         d="m 27.852811,1029.4207 c 0.789029,-1.1577 0.969554,-2.28 1.01744,-3.402"
         style="fill:#aaeeff;fill-rule:evenodd;stroke:#000000;stroke-width:0.5;stroke-linecap:butt;stroke-linejoin:miter;stroke-miterlimit:4;stroke-dasharray:none;stroke-opacity:1" />
      <path
         sodipodi:nodetypes="cc"
         inkscape:connector-curvature="0"
         id="path4895"
         d="m 37.503537,1024.9792 c -0.861667,-1.0494 -0.920047,-1.3363 -1.019203,-2.0086"
         style="fill:#aaeeff;fill-rule:evenodd;stroke:#000000;stroke-width:0.5;stroke-linecap:butt;stroke-linejoin:miter;stroke-miterlimit:4;stroke-dasharray:none;stroke-opacity:1" />
      <path
         sodipodi:nodetypes="cc"
         inkscape:connector-curvature="0"
         id="path4897"
         d="m 44.093401,1020.798 c -0.948977,-0.9729 -1.730045,-0.1961 -2.243257,0.014"
         style="fill:#aaeeff;fill-rule:evenodd;stroke:#000000;stroke-width:0.5;stroke-linecap:butt;stroke-linejoin:miter;stroke-miterlimit:4;stroke-dasharray:none;stroke-opacity:1" />
      <path
         sodipodi:nodetypes="cc"
         inkscape:connector-curvature="0"
         id="path4899"
         d="m 43.191596,1016.5332 c -0.67162,2.9393 -5.148701,0.4038 -6.617333,2.3607"
         style="fill:#aaeeff;fill-rule:evenodd;stroke:#000000;stroke-width:0.5;stroke-linecap:butt;stroke-linejoin:miter;stroke-miterlimit:4;stroke-dasharray:none;stroke-opacity:1" />
      <path
         sodipodi:nodetypes="cc"
         inkscape:connector-curvature="0"
         id="path4901"
         d="m 39.767523,1018.0814 c -0.700419,-0.3128 -1.62523,-0.5091 -1.664454,-1.1661"
         style="fill:#aaeeff;fill-rule:evenodd;stroke:#000000;stroke-width:0.5;stroke-linecap:butt;stroke-linejoin:miter;stroke-miterlimit:4;stroke-dasharray:none;stroke-opacity:1" />
      <path
         sodipodi:nodetypes="cc"
         inkscape:connector-curvature="0"
         id="path4903"
         d="m 38.133046,1012.6512 c -1.982277,0.9108 -1.707527,2.4853 -0.989229,3.4249"
         style="fill:#aaeeff;fill-rule:evenodd;stroke:#000000;stroke-width:0.5;stroke-linecap:butt;stroke-linejoin:miter;stroke-miterlimit:4;stroke-dasharray:none;stroke-opacity:1" />
      <path
         sodipodi:nodetypes="cc"
         inkscape:connector-curvature="0"
         id="path4905"
         d="m 36.613278,1014.7883 c -0.106634,0.1426 -0.741221,0.6507 -1.406769,0.4357"
         style="fill:#aaeeff;fill-rule:evenodd;stroke:#000000;stroke-width:0.5;stroke-linecap:butt;stroke-linejoin:miter;stroke-miterlimit:4;stroke-dasharray:none;stroke-opacity:1" />
      <path
         sodipodi:nodetypes="cc"
         inkscape:connector-curvature="0"
         id="path4907"
         d="m 32.759741,1011.7818 c 0.240923,0.5176 -0.948654,5.6503 0.84684,5.8831"
         style="fill:#aaeeff;fill-rule:evenodd;stroke:#000000;stroke-width:0.5;stroke-linecap:butt;stroke-linejoin:miter;stroke-miterlimit:4;stroke-dasharray:none;stroke-opacity:1" />
      <path
         sodipodi:nodetypes="cc"
         inkscape:connector-curvature="0"
         id="path4909"
         d="m 32.546177,1014.8788 c -1.041713,-0.044 -1.233698,0.2879 -1.400119,0.7815"
         style="fill:#aaeeff;fill-rule:evenodd;stroke:#000000;stroke-width:0.5;stroke-linecap:butt;stroke-linejoin:miter;stroke-miterlimit:4;stroke-dasharray:none;stroke-opacity:1" />
      <path
         sodipodi:nodetypes="cc"
         inkscape:connector-curvature="0"
         id="path4911"
         d="m 27.416414,1012.7338 c -0.715231,1.7607 1.57377,3.2523 1.57377,3.2523"
         style="fill:#aaeeff;fill-rule:evenodd;stroke:#000000;stroke-width:0.5;stroke-linecap:butt;stroke-linejoin:miter;stroke-miterlimit:4;stroke-dasharray:none;stroke-opacity:1" />
      <path
         sodipodi:nodetypes="cc"
         inkscape:connector-curvature="0"
         id="path4913"
         d="m 25.42297,1014.862 c -1.245598,1.5388 1.277857,2.8621 1.813144,2.1638"
         style="fill:#aaeeff;fill-rule:evenodd;stroke:#000000;stroke-width:0.5;stroke-linecap:butt;stroke-linejoin:miter;stroke-miterlimit:4;stroke-dasharray:none;stroke-opacity:1" />
      <path
         sodipodi:nodetypes="cc"
         inkscape:connector-curvature="0"
         id="path4915"
         d="m 25.415073,1016.4387 c -0.158114,0.5513 -0.626657,0.7749 -0.104515,2.043"
         style="fill:#aaeeff;fill-rule:evenodd;stroke:#000000;stroke-width:0.5;stroke-linecap:butt;stroke-linejoin:miter;stroke-miterlimit:4;stroke-dasharray:none;stroke-opacity:1" />
      <path
         sodipodi:nodetypes="cc"
         inkscape:connector-curvature="0"
         id="path4917"
         d="m 21.01641,1020.6325 c 0.645875,0.8124 3.177519,-0.1199 3.177519,-0.1199"
         style="fill:#aaeeff;fill-rule:evenodd;stroke:#000000;stroke-width:0.5;stroke-linecap:butt;stroke-linejoin:miter;stroke-miterlimit:4;stroke-dasharray:none;stroke-opacity:1" />
      <path
         sodipodi:nodetypes="cc"
         inkscape:connector-curvature="0"
         id="path4919"
         d="m 23.841705,1024.5594 c 1.676042,-0.4749 1.221546,-2.3681 1.221546,-2.3681"
         style="fill:#aaeeff;fill-rule:evenodd;stroke:#000000;stroke-width:0.5;stroke-linecap:butt;stroke-linejoin:miter;stroke-miterlimit:4;stroke-dasharray:none;stroke-opacity:1" />
      <path
         sodipodi:nodetypes="cc"
         inkscape:connector-curvature="0"
         id="path4921"
         d="m 28.3307,1025.8559 c 1.928905,-0.4465 1.66752,-1.424 1.438877,-2.1058"
         style="fill:#aaeeff;fill-rule:evenodd;stroke:#000000;stroke-width:0.5;stroke-linecap:butt;stroke-linejoin:miter;stroke-miterlimit:4;stroke-dasharray:none;stroke-opacity:1" />
      <path
         sodipodi:nodetypes="cc"
         inkscape:connector-curvature="0"
         id="path4923"
         d="m 32.947095,1026.1782 c 0.512356,-2.6475 -0.749414,-2.9678 -0.749414,-2.9678"
         style="fill:#aaeeff;fill-rule:evenodd;stroke:#000000;stroke-width:0.5;stroke-linecap:butt;stroke-linejoin:miter;stroke-miterlimit:4;stroke-dasharray:none;stroke-opacity:1" />
      <path
         sodipodi:nodetypes="cc"
         inkscape:connector-curvature="0"
         id="path4925"
         d="m 31.448265,1018.1444 c 0.470775,1.2161 -1.721906,2.153 1.49883,3.6572"
         style="fill:#aaeeff;fill-rule:evenodd;stroke:#000000;stroke-width:0.5;stroke-linecap:butt;stroke-linejoin:miter;stroke-miterlimit:4;stroke-dasharray:none;stroke-opacity:1" />
      <path
         sodipodi:nodetypes="cc"
         inkscape:connector-curvature="0"
         id="path4927"
         d="m 31.219622,1019.6039 c -0.745252,1.1693 -1.188506,1.3319 -1.599928,1.3883"
         style="fill:#aaeeff;fill-rule:evenodd;stroke:#000000;stroke-width:0.5;stroke-linecap:butt;stroke-linejoin:miter;stroke-miterlimit:4;stroke-dasharray:none;stroke-opacity:1" />
      <path
         sodipodi:nodetypes="cc"
         inkscape:connector-curvature="0"
         id="path4929"
         d="m 41.052623,1022.8517 c -1.430463,-2.0312 -2.949532,-0.4398 -4.868056,-1.8595"
         style="fill:#aaeeff;fill-rule:evenodd;stroke:#000000;stroke-width:0.5;stroke-linecap:butt;stroke-linejoin:miter;stroke-miterlimit:4;stroke-dasharray:none;stroke-opacity:1" />
    </g>
  </g>
</svg>
