<?xml version="1.0" encoding="UTF-8" standalone="no"?>
<!-- Created with Inkscape (http://www.inkscape.org/) -->

<svg
   xmlns:dc="http://purl.org/dc/elements/1.1/"
   xmlns:cc="http://creativecommons.org/ns#"
   xmlns:rdf="http://www.w3.org/1999/02/22-rdf-syntax-ns#"
   xmlns:svg="http://www.w3.org/2000/svg"
   xmlns="http://www.w3.org/2000/svg"
   xmlns:sodipodi="http://sodipodi.sourceforge.net/DTD/sodipodi-0.dtd"
   xmlns:inkscape="http://www.inkscape.org/namespaces/inkscape"
   width="100%"
   height="100%"
   viewBox="0 0 64.000001 64.000001"
   id="svg4311"
   version="1.1"
   inkscape:version="0.91 r13725"
   sodipodi:docname="virginPureLustyMaiden.svg">
  <defs
     id="defs4313">
    <inkscape:path-effect
       effect="powerstroke"
       id="path-effect4349"
       is_visible="true"
       offset_points="0.75050302,0.34025633"
       sort_points="true"
       interpolator_type="Linear"
       interpolator_beta="0.2"
       start_linecap_type="zerowidth"
       linejoin_type="round"
       miter_limit="4"
       end_linecap_type="zerowidth"
       cusp_linecap_type="round" />
    <inkscape:path-effect
       effect="powerstroke"
       id="path-effect4349-3"
       is_visible="true"
       offset_points="0.66162266,0.24688345"
       sort_points="true"
       interpolator_type="Linear"
       interpolator_beta="0.2"
       start_linecap_type="zerowidth"
       linejoin_type="round"
       miter_limit="4"
       end_linecap_type="zerowidth"
       cusp_linecap_type="round" />
  </defs>
  <sodipodi:namedview
     id="base"
     pagecolor="#ffffff"
     bordercolor="#666666"
     borderopacity="1.0"
     inkscape:pageopacity="0.0"
     inkscape:pageshadow="2"
     inkscape:zoom="7.9999995"
     inkscape:cx="19.459624"
     inkscape:cy="22.73379"
     inkscape:document-units="px"
     inkscape:current-layer="layer1"
     showgrid="false"
     units="px"
     inkscape:window-width="2560"
     inkscape:window-height="1388"
     inkscape:window-x="-8"
     inkscape:window-y="-8"
     inkscape:window-maximized="1" />
  <metadata
     id="metadata4316">
    <rdf:RDF>
      <cc:Work
         rdf:about="">
        <dc:format>image/svg+xml</dc:format>
        <dc:type
           rdf:resource="http://purl.org/dc/dcmitype/StillImage" />
        <dc:title></dc:title>
      </cc:Work>
    </rdf:RDF>
  </metadata>
  <g
     inkscape:label="Layer 1"
     inkscape:groupmode="layer"
     id="layer1"
     transform="translate(0,-988.36216)"
     style="display:inline">
    <g
       id="g4208"
       transform="translate(-0.37500002,-0.87500005)">
      <path
         inkscape:connector-curvature="0"
         id="path4145"
         d="m 32.748381,994.08881 a 23.474304,5.2505216 0 0 0 -23.474015,5.24996 23.474304,5.2505216 0 0 0 23.474015,5.25013 23.474304,5.2505216 0 0 0 23.474017,-5.25013 23.474304,5.2505216 0 0 0 -23.474017,-5.24996 z m -0.274985,0.88552 a 19.785868,4.0558173 0 0 1 19.785983,4.05564 19.785868,4.0558173 0 0 1 -19.785983,4.05573 19.785868,4.0558173 0 0 1 -19.78598,-4.05573 19.785868,4.0558173 0 0 1 19.78598,-4.05564 z"
         style="opacity:1;fill:#ffdf80;fill-opacity:1;stroke:#000000;stroke-width:0.4078387;stroke-linecap:round;stroke-linejoin:miter;stroke-miterlimit:4;stroke-dasharray:none;stroke-dashoffset:0;stroke-opacity:1" />
      <g
         transform="matrix(1.05,0,0,1.05,-4.1081665,-47.410576)"
         id="g4285"
         style="display:inline">
        <path
           style="display:inline;fill:#ffc413;fill-opacity:1;fill-rule:evenodd;stroke:#000000;stroke-width:0.4851495;stroke-linecap:butt;stroke-linejoin:miter;stroke-miterlimit:4;stroke-dasharray:none;stroke-opacity:1"
           d="m 50.615826,1021.704 c 6.49459,-4.8157 6.666219,-14.0565 2.830182,-19.4681 0.129419,5.6988 -1.757802,10.5492 -9.262418,11.235 z"
           id="path4201-7"
           inkscape:connector-curvature="0"
           sodipodi:nodetypes="cccc" />
        <path
           style="fill:#ffc413;fill-opacity:1;fill-rule:evenodd;stroke:#000000;stroke-width:0.4851495;stroke-linecap:butt;stroke-linejoin:miter;stroke-miterlimit:4;stroke-dasharray:none;stroke-opacity:1"
           d="m 19.959215,1021.7786 c -6.494591,-4.8158 -6.666219,-14.0566 -2.830183,-19.4682 -0.129418,5.6988 1.757803,10.5492 9.262418,11.235 z"
           id="path4201"
           inkscape:connector-curvature="0"
           sodipodi:nodetypes="cccc" />
        <path
           style="display:inline;fill:#ffdf80;fill-opacity:1;fill-rule:evenodd;stroke:#000000;stroke-width:0.43663454;stroke-linecap:butt;stroke-linejoin:miter;stroke-miterlimit:4;stroke-dasharray:none;stroke-opacity:1"
           d="m 18.436354,1021.0099 c -3.0414,-12.1571 14.391159,-12.15 16.977984,-2.5758 2.051318,-9.6674 18.556782,-9.6583 16.471337,2.9868 -1.599811,9.7004 -13.589781,9.4227 -17.138895,23.8353 -3.043072,-14.3723 -13.941103,-14.7757 -16.310426,-24.2463 z"
           id="path4859-0-6"
           inkscape:connector-curvature="0"
           sodipodi:nodetypes="scscs" />
        <path
           style="display:inline;fill:#ffffff;fill-opacity:0.78504675;fill-rule:evenodd;stroke:none;stroke-width:1.15799999;stroke-linecap:butt;stroke-linejoin:miter;stroke-miterlimit:4;stroke-dasharray:none;stroke-opacity:1"
           d="m 49.708266,1025.0405 c 1.204343,-8.5522 -2.807263,-11.9315 -10.365278,-11.4605 7.384234,-3.7962 15.398522,1.0845 10.365278,11.4605 z"
           id="path4861-7-1"
           inkscape:connector-curvature="0"
           sodipodi:nodetypes="ccc" />
        <path
           style="display:inline;fill:#ffc413;fill-opacity:1;fill-rule:evenodd;stroke:#000000;stroke-width:0.3925508;stroke-linecap:butt;stroke-linejoin:miter;stroke-miterlimit:4;stroke-dasharray:none;stroke-opacity:1"
           d="m 35.370851,1018.4344 c 3.800414,7.0812 1.240389,19.2702 -0.565531,26.0198 -1.643228,-6.6431 -3.587916,-19.0902 0.565531,-26.0198 z"
           id="path4161-1"
           inkscape:connector-curvature="0"
           sodipodi:nodetypes="ccc" />
        <path
           sodipodi:nodetypes="ccc"
           inkscape:connector-curvature="0"
           id="path4178-5"
           d="m 35.292703,1022.41 c 2.653972,4.9451 0.86621,13.4572 -0.394932,18.1705 -1.147526,-4.6391 -2.505574,-13.3313 0.394932,-18.1705 z"
           style="display:inline;fill:#ffd862;fill-opacity:1;fill-rule:evenodd;stroke:#000000;stroke-width:0.27413288;stroke-linecap:butt;stroke-linejoin:miter;stroke-miterlimit:4;stroke-dasharray:none;stroke-opacity:1" />
      </g>
    </g>
  </g>
</svg>
