<svg xmlns="http://www.w3.org/2000/svg" viewBox="0 0 256 256">
    <g>
        <g fill-rule="evenodd">
            <path fill="#111" d="M37.107 22.746C50.628 9.56 180.807 2.44 211.6 24.994c26.943 22.217 11.224 49.486 4.81 75.653l-30.43 65.21-29.284 34.033-9.863 22.075c-6.457 11.582-18.944 17.134-40.73 13.386-19.86-26.31-13.551-22.043-18.423-25.488-4.814-11.664-15.817-19.951-14.442-34.991l-17.684-38.778-17.845-45.03c-14.155-31.959-17.888-46.34-.603-68.318z"/>
            <path fill="#303030" d="M37.107 22.746c-77.79 92.267 127.291 96.658 178.232 37.647C147.034 88.23 1.012 71.839 37.107 22.746z"/>
            <path fill="#3e3e3e" d="M211.6 24.994C317.62 105.079 106.499 141.459 39.548 90.708c63.306 32.99 228.653-8.978 172.054-65.714z"/>
            <path fill="#3a3a3a" d="M37.71 91.064c-14.988 78.735 141.095 51.689 176.539 8.878-33.905 25.135-160.48 27.988-176.539-8.878z"/>
            <path fill="#3c3c3c" d="M216.41 100.647c32.913 85.9-126.254 80.194-159.596 35.88 38.943 24.729 147.978-5.597 159.596-35.88z"/>
            <path fill="#464646" d="M55.555 136.094c-7.834 60.94 99.702 61.563 120.998 32.424-47.92 9.047-111.15-8.563-120.998-32.424z"/>
            <path fill="#595959" d="M185.981 165.856c7.734 33.19-61.266 46.048-99.488 21.244 48.003 8.754 87.836-6.214 99.488-21.244z"/>
            <path fill="#3f3f3f" d="M73.24 174.872c-11.366 44.895 57.86 44.078 77.131 27.496-33.634 3.575-77.173-11.2-77.132-27.496z"/>
            <path fill="#535353" d="M156.697 199.89c2.545 26.417-45.169 31.87-69.016 9.973 31.762 10.02 59.918.983 69.016-9.973z"/>
            <path fill="#515151" d="M91.584 213.623c-4.134 24.993 38.477 20.858 49.294 10.823-20.5 3.736-48.277-1.968-49.294-10.823z"/>
            <path fill="#525252" d="M146.834 221.965c4.71 13.8-23.62 22.286-40.73 13.386 20.494 1.637 36.515-6.476 40.73-13.386z"/>
            <path fill="#1b1b1b" d="M39.624 27.385C47.99 14.48 189.426 6.71 209.374 28.54 265.017 89.43 5.14 80.583 39.624 27.385z"/>
        </g>
        <g fill-rule="evenodd">
            <path fill="#323232" d="M55.741 43.138c10.817-10.548 114.961-16.245 139.596 1.798 21.554 17.774 8.979 39.589 3.847 60.523l-24.343 52.167-23.427 27.227-7.891 17.66c-5.166 9.266-15.155 13.707-32.584 10.71-15.888-21.05-10.84-17.636-14.739-20.391-3.85-9.331-12.653-15.962-11.553-27.994L70.5 133.817 56.224 97.792C44.9 72.225 41.914 60.72 55.74 43.138z"/>
            <path fill="#595959" d="M55.741 43.138c-62.232 73.814 101.833 77.326 142.586 30.117-54.644 22.27-171.461 9.158-142.586-30.117z"/>
            <path fill="#7a7a7a" d="M195.337 44.936c84.814 64.068-84.082 93.172-137.643 52.571 50.644 26.393 182.922-7.182 137.643-52.571z"/>
            <path fill="#6e6e6e" d="M56.224 97.792c-11.99 62.988 112.876 41.351 141.23 7.102-27.123 20.109-128.383 22.39-141.23-7.102z"/>
            <path fill="#6d6d6d" d="M199.184 105.459c26.33 68.72-101.003 64.155-127.677 28.704 31.154 19.782 118.382-4.478 127.677-28.704z"/>
            <path fill="#7b7b7b" d="M70.5 133.817c-6.267 48.75 79.761 49.25 96.799 25.938-38.337 7.238-88.92-6.85-96.8-25.938z"/>
            <path fill="#919191" d="M174.84 157.626c6.188 26.552-49.012 36.838-79.59 16.995 38.402 7.004 70.269-4.971 79.59-16.995z"/>
            <path fill="#6d6d6d" d="M84.647 164.838c-9.092 35.916 46.288 35.263 61.706 21.997-26.908 2.86-61.738-8.96-61.706-21.997z"/>
            <path fill="#939393" d="M151.414 184.853c2.036 21.134-36.136 25.496-55.214 7.979 25.41 8.016 47.935.786 55.214-7.979z"/>
            <path fill="#8f8f8f" d="M99.323 195.84c-3.308 19.994 30.781 16.686 39.435 8.658-16.4 2.989-38.621-1.575-39.435-8.658z"/>
            <path fill="#909090" d="M143.523 202.513c3.769 11.04-18.896 17.829-32.584 10.71 16.396 1.308 29.212-5.182 32.584-10.71z"/>
            <path fill="#454545" d="M57.755 46.85c6.693-10.325 119.841-16.54 135.8.923 44.514 48.71-163.387 41.634-135.8-.924z"/>
        </g>
        <path fill="#2e2e2e" fill-rule="evenodd" d="M70.649 59.451c8.654-8.438 91.968-12.995 111.676 1.439 17.243 14.219 7.184 31.67 3.078 48.418l-19.475 41.734-18.741 21.781-6.313 14.128c-4.132 7.413-12.124 10.966-26.067 8.568-12.71-16.84-8.673-14.108-11.79-16.313-3.082-7.465-10.124-12.769-9.244-22.394l-11.317-24.818-11.421-28.82c-9.06-20.453-11.448-29.657-.386-43.723z"/>
        <path fill="#8d8d8d" fill-rule="evenodd" d="M70.649 59.451c-49.786 59.051 81.466 61.861 114.068 24.094-43.715 17.816-137.169 7.326-114.068-24.094z"/>
        <path fill="#a9a9a9" fill-rule="evenodd" d="M182.325 60.89c67.851 51.255-67.266 74.538-110.114 42.057C112.726 124.06 218.549 97.2 182.325 60.89z"/>
        <path fill="#bfbfbf" fill-rule="evenodd" d="M71.035 103.175c-9.593 50.39 90.3 33.08 112.984 5.682-21.698 16.086-102.706 17.912-112.984-5.682z"/>
        <path fill="#a0a0a0" fill-rule="evenodd" d="M185.403 109.308c21.064 54.976-80.803 51.324-102.141 22.963 24.923 15.826 94.705-3.582 102.141-22.963z"/>
        <path fill="#bfbfbf" fill-rule="evenodd" d="M82.456 131.994c-5.014 39.001 63.809 39.4 77.439 20.751-30.67 5.79-71.137-5.48-77.44-20.75z"/>
        <path fill="#d5d5d5" fill-rule="evenodd" d="M165.928 151.042c4.95 21.241-39.21 29.47-63.672 13.596 30.722 5.603 56.215-3.977 63.672-13.596z"/>
        <path fill="#a4a4a4" fill-rule="evenodd" d="M93.773 156.812c-7.273 28.732 37.03 28.21 49.365 17.597-21.526 2.288-49.39-7.168-49.365-17.597z"/>
        <path fill="#d5d5d5" fill-rule="evenodd" d="M147.187 172.823c1.628 16.907-28.909 20.397-44.17 6.383 20.327 6.413 38.347.63 44.17-6.383z"/>
        <path fill="#bfbfbf" fill-rule="evenodd" d="M105.514 181.613c-2.646 15.995 24.625 13.349 31.548 6.926-13.12 2.391-30.897-1.26-31.548-6.926z"/>
        <path fill="#d5d5d5" fill-rule="evenodd" d="M140.874 186.951c3.015 8.833-15.117 14.263-26.067 8.568 13.116 1.047 23.37-4.145 26.067-8.568z"/>
        <path fill="#656565" fill-rule="evenodd" d="M72.26 62.42c5.354-8.26 95.873-13.232 108.64.74 35.611 38.968-130.71 33.307-108.64-.74z"/>
        <g stroke="#e7ecff">
            <path fill="none" stroke-width="3.1424999999999996" d="M135.487 197.257c-.024-2.548-.895-2.61-.895-2.61-1.645-4.441-2.758-11.447-3.9-15.099-1.841-4.025-2.834-7.874-3.31-12.242M119.835 166.11l-.07 12.504c-.46 3.607-.74 11.738-.881 14.594-.257 2.25-.696.63-.825 3.394"/>
            <path fill="none" stroke-width="2.6137500000000005" d="M120.58 147.92c-3.608.083-4.65 4.64-4.49 5.613.19 1.145 3.76 3.917 3.803 7.156M128.023 147.8c4.612.056 5.908 4.216 5.85 5.944-.03.907-5.433 2.67-6.228 7.457"/>
            <g fill="#e7ecff" transform="matrix(.43272 0 0 .43848 68.374 102.988)">
                <path fill-rule="evenodd" stroke-width="3.608" d="M115.462 148.482l24.584-1.246c-1.17-8.243-.285-15.855-5.083-24.936-3.602-6.819 7.163-7.261 4.725-21.506-.339-1.98-18.295-1.398-19.142.232-7.482 14.4 8.92 15.195 1.735 21.363-5.024 4.314-8.075 15.927-6.819 26.093z"/>
                <ellipse cx="131.009" cy="83.903" stroke-linecap="round" stroke-linejoin="round" stroke-width="3.608" rx="7.206" ry="8.121" transform="rotate(1.158)"/>
                <path fill-rule="evenodd" stroke-width="3.608" d="M134.945 113.701c-23-17.732-41.612-30.086-46.25-54.488-25.442 6.497-40.937 20.01-50.364 37.8l26.686-3.398 13.85 12.448 26.921-2.551z"/>
                <path fill-rule="evenodd" stroke-width="3.608" d="M128.202 109.717c23.698-16.789 42.794-28.38 48.415-52.575 25.158 7.52 40.094 21.647 48.794 39.804l-26.526-4.473-14.341 11.877-26.797-3.636z"/>
                <path fill-rule="evenodd" d="M121.517 101.019c1.303-4.837-.66-8.596-.723-13.638l16.934-.937c-.193 4.982-.78 11.265-.184 14.558zM124.112 83.587c-8.513-7.05-8.095-13.589-8.571-20.179 1.964 6.216 2.308 12.684 11.518 17.768zM133.989 83.319c6.995-7.05 6.652-13.589 7.043-20.179-1.613 6.216-1.897 12.685-9.464 17.768z"/>
            </g>
        </g>
    </g>
</svg>
