<?xml version="1.0" encoding="UTF-8" standalone="no"?>
<!-- Created with Inkscape (http://www.inkscape.org/) -->

<svg
   xmlns:dc="http://purl.org/dc/elements/1.1/"
   xmlns:cc="http://creativecommons.org/ns#"
   xmlns:rdf="http://www.w3.org/1999/02/22-rdf-syntax-ns#"
   xmlns:svg="http://www.w3.org/2000/svg"
   xmlns="http://www.w3.org/2000/svg"
   xmlns:sodipodi="http://sodipodi.sourceforge.net/DTD/sodipodi-0.dtd"
   xmlns:inkscape="http://www.inkscape.org/namespaces/inkscape"
   viewBox="0 0 256 256"
   id="svg2"
   version="1.1"
   inkscape:version="0.92.3 (2405546, 2018-03-11)"
   sodipodi:docname="air4.svg">
  <defs
     id="defs4" />
  <sodipodi:namedview
     id="base"
     pagecolor="#ffffff"
     bordercolor="#666666"
     borderopacity="1.0"
     inkscape:pageopacity="0.0"
     inkscape:pageshadow="2"
     inkscape:zoom="2.8"
     inkscape:cx="70.984826"
     inkscape:cy="115.43214"
     inkscape:document-units="px"
     inkscape:current-layer="layer2"
     showgrid="false"
     units="px"
     inkscape:window-width="2560"
     inkscape:window-height="1388"
     inkscape:window-x="-8"
     inkscape:window-y="-8"
     inkscape:window-maximized="1" />
  <metadata
     id="metadata7">
    <rdf:RDF>
      <cc:Work
         rdf:about="">
        <dc:format>image/svg+xml</dc:format>
        <dc:type
           rdf:resource="http://purl.org/dc/dcmitype/StillImage" />
        <dc:title></dc:title>
      </cc:Work>
    </rdf:RDF>
  </metadata>
  <g
     inkscape:groupmode="layer"
     id="layer2"
     inkscape:label="Layer 2"
     style="display:inline">
    <g
       id="g1089">
      <path
         sodipodi:nodetypes="cccccccccccc"
         inkscape:connector-curvature="0"
         id="path1013"
         d="M 37.106695,22.745709 C 50.62833,9.561333 180.80778,2.440403 211.60092,24.993546 c 26.94271,22.217146 11.22431,49.486259 4.80935,75.653664 l -30.42906,65.20923 -29.28401,34.03356 -9.86348,22.07497 c -6.45669,11.58209 -18.94342,17.13412 -40.7299,13.38639 C 86.243833,209.04016 92.553021,213.30754 87.680864,209.8633 82.866945,198.19946 71.863527,189.91169 73.239094,174.87177 L 55.555104,136.0944 37.710163,91.064033 C 23.555278,59.105367 19.82244,44.723694 37.106695,22.745709 Z"
         style="fill:#111111;fill-opacity:1;fill-rule:evenodd;stroke:none;stroke-width:1.953125px;stroke-linecap:butt;stroke-linejoin:miter;stroke-opacity:1" />
      <path
         sodipodi:nodetypes="ccc"
         inkscape:connector-curvature="0"
         id="path1015"
         d="M 37.106695,22.745709 C -40.683872,115.01325 164.39832,119.40404 215.33866,60.392583 147.03403,88.229564 1.0122703,71.839402 37.106695,22.745709 Z"
         style="display:inline;fill:#303030;fill-opacity:1;fill-rule:evenodd;stroke:none;stroke-width:0.9765625px;stroke-linecap:butt;stroke-linejoin:miter;stroke-opacity:1" />
      <path
         sodipodi:nodetypes="ccc"
         inkscape:connector-curvature="0"
         id="path1017"
         d="M 211.60092,24.993546 C 317.61883,105.07919 106.49842,141.45887 39.547175,90.707924 102.85265,123.69815 268.2004,81.730425 211.60092,24.993546 Z"
         style="display:inline;fill:#3e3e3e;fill-opacity:1;fill-rule:evenodd;stroke:none;stroke-width:0.9765625px;stroke-linecap:butt;stroke-linejoin:miter;stroke-opacity:1" />
      <path
         sodipodi:nodetypes="ccc"
         inkscape:connector-curvature="0"
         id="path1019"
         d="M 37.710163,91.064033 C 22.721638,169.79924 178.80483,142.75271 214.24852,99.941798 180.34417,125.07712 53.769394,127.92979 37.710163,91.064033 Z"
         style="display:inline;fill:#3a3a3a;fill-opacity:1;fill-rule:evenodd;stroke:none;stroke-width:0.9765625px;stroke-linecap:butt;stroke-linejoin:miter;stroke-opacity:1" />
      <path
         sodipodi:nodetypes="ccc"
         inkscape:connector-curvature="0"
         id="path1021"
         d="m 216.41027,100.64721 c 32.91265,85.9001 -126.254375,80.19421 -159.595811,35.88039 38.9423,24.72792 147.977391,-5.59758 159.595811,-35.88039 z"
         style="display:inline;fill:#3c3c3c;fill-opacity:1;fill-rule:evenodd;stroke:none;stroke-width:0.9765625px;stroke-linecap:butt;stroke-linejoin:miter;stroke-opacity:1" />
      <path
         sodipodi:nodetypes="ccc"
         inkscape:connector-curvature="0"
         id="path1023"
         d="M 55.555104,136.0944 C 47.7214,197.03315 155.25707,197.65685 176.55345,168.51769 128.63272,177.5654 65.40294,159.95529 55.555104,136.0944 Z"
         style="display:inline;fill:#464646;fill-opacity:1;fill-rule:evenodd;stroke:none;stroke-width:0.9765625px;stroke-linecap:butt;stroke-linejoin:miter;stroke-opacity:1" />
      <path
         sodipodi:nodetypes="ccc"
         inkscape:connector-curvature="0"
         id="path1025"
         d="m 185.98121,165.85644 c 7.73407,33.18985 -61.26575,46.04731 -99.488315,21.24335 48.002685,8.75458 87.836055,-6.21354 99.488315,-21.24335 z"
         style="display:inline;fill:#595959;fill-opacity:1;fill-rule:evenodd;stroke:none;stroke-width:0.9765625px;stroke-linecap:butt;stroke-linejoin:miter;stroke-opacity:1" />
      <path
         sodipodi:nodetypes="ccc"
         inkscape:connector-curvature="0"
         id="path1027"
         d="M 73.239094,174.87177 C 61.873753,219.76659 131.0992,218.94974 150.37117,202.36792 116.73703,205.9431 73.198488,191.16821 73.239094,174.87177 Z"
         style="display:inline;fill:#3f3f3f;fill-opacity:1;fill-rule:evenodd;stroke:none;stroke-width:0.9765625px;stroke-linecap:butt;stroke-linejoin:miter;stroke-opacity:1" />
      <path
         sodipodi:nodetypes="ccc"
         inkscape:connector-curvature="0"
         id="path1029"
         d="m 156.6972,199.89 c 2.545,26.41712 -45.16924,31.87009 -69.016336,9.9733 31.761766,10.02024 59.917806,0.98319 69.016336,-9.9733 z"
         style="display:inline;fill:#535353;fill-opacity:1;fill-rule:evenodd;stroke:none;stroke-width:0.9765625px;stroke-linecap:butt;stroke-linejoin:miter;stroke-opacity:1" />
      <path
         sodipodi:nodetypes="ccc"
         inkscape:connector-curvature="0"
         id="path1031"
         d="m 91.584302,213.6234 c -4.134797,24.99306 38.476228,20.85787 49.293578,10.8229 -20.50002,3.7356 -48.276971,-1.96846 -49.293578,-10.8229 z"
         style="display:inline;fill:#515151;fill-opacity:1;fill-rule:evenodd;stroke:none;stroke-width:0.9765625px;stroke-linecap:butt;stroke-linejoin:miter;stroke-opacity:1" />
      <path
         sodipodi:nodetypes="ccc"
         inkscape:connector-curvature="0"
         id="path1033"
         d="m 146.83372,221.96497 c 4.71105,13.80059 -23.62024,22.28568 -40.7299,13.38639 20.4946,1.63639 36.5156,-6.47617 40.7299,-13.38639 z"
         style="display:inline;fill:#525252;fill-opacity:1;fill-rule:evenodd;stroke:none;stroke-width:0.9765625px;stroke-linecap:butt;stroke-linejoin:miter;stroke-opacity:1" />
      <path
         sodipodi:nodetypes="sss"
         inkscape:connector-curvature="0"
         id="path1035"
         d="M 39.624135,27.385447 C 47.989894,14.479695 189.42566,6.710058 209.37413,28.539434 265.01661,89.428283 5.140469,80.582983 39.624135,27.385447 Z"
         style="fill:#1b1b1b;fill-opacity:1;fill-rule:evenodd;stroke:none;stroke-width:0.9765625px;stroke-linecap:butt;stroke-linejoin:miter;stroke-opacity:1" />
    </g>
    <g
       id="g1115">
      <path
         style="fill:#323232;fill-opacity:1;fill-rule:evenodd;stroke:none;stroke-width:1.5625px;stroke-linecap:butt;stroke-linejoin:miter;stroke-opacity:1"
         d="M 55.741149,43.137589 C 66.558457,32.590088 170.70202,26.893344 195.33653,44.935858 c 21.55417,17.773717 8.97945,39.589008 3.84748,60.522932 l -24.34325,52.16738 -23.42721,27.22685 -7.89078,17.65998 c -5.16535,9.26567 -15.15474,13.70729 -32.58392,10.70911 C 95.050859,192.17315 100.09821,195.58705 96.200484,192.83166 92.349349,183.50059 83.546614,176.87037 84.647068,164.83844 L 70.499876,133.81654 56.223923,97.792248 C 44.900015,72.225315 41.913745,60.719977 55.741149,43.137589 Z"
         id="path961"
         inkscape:connector-curvature="0"
         sodipodi:nodetypes="cccccccccccc" />
      <path
         style="display:inline;fill:#595959;fill-opacity:1;fill-rule:evenodd;stroke:none;stroke-width:0.78125px;stroke-linecap:butt;stroke-linejoin:miter;stroke-opacity:1"
         d="M 55.741149,43.137589 C -6.4913047,116.95162 157.57445,120.46425 198.32672,73.255088 143.68302,95.524673 26.865609,82.412543 55.741149,43.137589 Z"
         id="path963"
         inkscape:connector-curvature="0"
         sodipodi:nodetypes="ccc" />
      <path
         style="display:inline;fill:#7a7a7a;fill-opacity:1;fill-rule:evenodd;stroke:none;stroke-width:0.78125px;stroke-linecap:butt;stroke-linejoin:miter;stroke-opacity:1"
         d="M 195.33653,44.935858 C 280.15086,109.00437 111.25453,138.10812 57.693533,97.507361 108.33791,123.89954 240.61611,90.325362 195.33653,44.935858 Z"
         id="path965"
         inkscape:connector-curvature="0"
         sodipodi:nodetypes="ccc" />
      <path
         style="display:inline;fill:#6e6e6e;fill-opacity:1;fill-rule:evenodd;stroke:none;stroke-width:0.78125px;stroke-linecap:butt;stroke-linejoin:miter;stroke-opacity:1"
         d="M 56.223923,97.792248 C 44.233103,160.78041 169.09966,139.14319 197.45461,104.89446 170.33113,125.00272 69.071308,127.28485 56.223923,97.792248 Z"
         id="path967"
         inkscape:connector-curvature="0"
         sodipodi:nodetypes="ccc" />
      <path
         style="display:inline;fill:#6d6d6d;fill-opacity:1;fill-rule:evenodd;stroke:none;stroke-width:0.78125px;stroke-linecap:butt;stroke-linejoin:miter;stroke-opacity:1"
         d="m 199.18401,105.45879 c 26.33012,68.72008 -101.003501,64.15537 -127.67665,28.70431 31.15384,19.78234 118.38191,-4.47806 127.67665,-28.70431 z"
         id="path969"
         inkscape:connector-curvature="0"
         sodipodi:nodetypes="ccc" />
      <path
         style="display:inline;fill:#7b7b7b;fill-opacity:1;fill-rule:evenodd;stroke:none;stroke-width:0.78125px;stroke-linecap:butt;stroke-linejoin:miter;stroke-opacity:1"
         d="m 70.499876,133.81654 c -6.266963,48.751 79.761574,49.24996 96.798674,25.93863 -38.33658,7.23817 -88.920405,-6.84992 -96.798674,-25.93863 z"
         id="path971"
         inkscape:connector-curvature="0"
         sodipodi:nodetypes="ccc" />
      <path
         style="display:inline;fill:#919191;fill-opacity:1;fill-rule:evenodd;stroke:none;stroke-width:0.78125px;stroke-linecap:butt;stroke-linejoin:miter;stroke-opacity:1"
         d="m 174.84076,157.62617 c 6.18726,26.55188 -49.0126,36.83785 -79.590651,16.99468 38.402151,7.00367 70.268841,-4.97083 79.590651,-16.99468 z"
         id="path973"
         inkscape:connector-curvature="0"
         sodipodi:nodetypes="ccc" />
      <path
         style="display:inline;fill:#6d6d6d;fill-opacity:1;fill-rule:evenodd;stroke:none;stroke-width:0.78125px;stroke-linecap:butt;stroke-linejoin:miter;stroke-opacity:1"
         d="m 84.647068,164.83844 c -9.092273,35.91585 46.288082,35.26237 61.705662,21.99692 -26.90731,2.86014 -61.738147,-8.95977 -61.705662,-21.99692 z"
         id="path975"
         inkscape:connector-curvature="0"
         sodipodi:nodetypes="ccc" />
      <path
         style="display:inline;fill:#939393;fill-opacity:1;fill-rule:evenodd;stroke:none;stroke-width:0.78125px;stroke-linecap:butt;stroke-linejoin:miter;stroke-opacity:1"
         d="m 151.41355,184.85302 c 2.036,21.1337 -36.13539,25.49607 -55.213066,7.97864 25.409416,8.01619 47.934246,0.78655 55.213066,-7.97864 z"
         id="path977"
         inkscape:connector-curvature="0"
         sodipodi:nodetypes="ccc" />
      <path
         style="display:inline;fill:#8f8f8f;fill-opacity:1;fill-rule:evenodd;stroke:none;stroke-width:0.78125px;stroke-linecap:butt;stroke-linejoin:miter;stroke-opacity:1"
         d="m 99.323234,195.83974 c -3.307837,19.99445 30.780986,16.6863 39.434866,8.65832 -16.40002,2.98848 -38.62158,-1.57477 -39.434866,-8.65832 z"
         id="path979"
         inkscape:connector-curvature="0"
         sodipodi:nodetypes="ccc" />
      <path
         style="display:inline;fill:#909090;fill-opacity:1;fill-rule:evenodd;stroke:none;stroke-width:0.78125px;stroke-linecap:butt;stroke-linejoin:miter;stroke-opacity:1"
         d="m 143.52277,202.513 c 3.76884,11.04047 -18.89619,17.82854 -32.58392,10.70911 16.39568,1.30911 29.21248,-5.18094 32.58392,-10.70911 z"
         id="path981"
         inkscape:connector-curvature="0"
         sodipodi:nodetypes="ccc" />
      <path
         style="fill:#454545;fill-opacity:1;fill-rule:evenodd;stroke:none;stroke-width:0.78125px;stroke-linecap:butt;stroke-linejoin:miter;stroke-opacity:1"
         d="M 57.755101,46.849379 C 64.447708,36.524778 177.59632,30.309068 193.5551,47.772569 238.06908,96.483648 30.168168,89.407408 57.755101,46.849379 Z"
         id="path983"
         inkscape:connector-curvature="0"
         sodipodi:nodetypes="sss" />
    </g>
    <path
       style="fill:#2e2e2e;fill-rule:evenodd;stroke:none;stroke-width:1.25px;stroke-linecap:butt;stroke-linejoin:miter;stroke-opacity:1;fill-opacity:1"
       d="m 70.648712,59.451093 c 8.653846,-8.438001 91.968698,-12.995396 111.676308,1.438615 17.24333,14.218974 7.18356,31.671206 3.07798,48.418342 l -19.4746,41.73391 -18.74177,21.78148 -6.31262,14.12798 c -4.13228,7.41254 -12.12379,10.96583 -26.06714,8.56729 -12.71039,-16.83917 -8.67251,-14.10805 -11.79069,-16.31236 -3.080908,-7.46486 -10.123096,-12.76903 -9.242733,-22.39458 L 82.455694,131.99425 71.034931,103.17482 C 61.975805,82.721274 59.586789,73.517003 70.648712,59.451093 Z"
       id="path920"
       inkscape:connector-curvature="0"
       sodipodi:nodetypes="cccccccccccc" />
    <path
       style="display:inline;fill:#8d8d8d;fill-opacity:1;fill-rule:evenodd;stroke:none;stroke-width:0.625px;stroke-linecap:butt;stroke-linejoin:miter;stroke-opacity:1"
       d="M 70.648712,59.451093 C 20.862749,118.50232 152.11535,121.31242 184.71717,83.545092 141.00221,101.36076 47.54828,90.871056 70.648712,59.451093 Z"
       id="path4239-5-6"
       inkscape:connector-curvature="0"
       sodipodi:nodetypes="ccc" />
    <path
       style="display:inline;fill:#a9a9a9;fill-opacity:1;fill-rule:evenodd;stroke:none;stroke-width:0.625px;stroke-linecap:butt;stroke-linejoin:miter;stroke-opacity:1"
       d="M 182.32502,60.889708 C 250.17648,112.14452 115.05942,135.42752 72.210619,102.94691 112.72612,124.06065 218.54868,97.201311 182.32502,60.889708 Z"
       id="path4239-5"
       inkscape:connector-curvature="0"
       sodipodi:nodetypes="ccc" />
    <path
       style="display:inline;fill:#bfbfbf;fill-opacity:1;fill-rule:evenodd;stroke:none;stroke-width:0.625px;stroke-linecap:butt;stroke-linejoin:miter;stroke-opacity:1"
       d="m 71.034931,103.17482 c -9.592656,50.39053 90.300589,33.08075 112.984549,5.68177 C 162.3207,124.9432 81.312839,126.7689 71.034931,103.17482 Z"
       id="path4239-5-6-3"
       inkscape:connector-curvature="0"
       sodipodi:nodetypes="ccc" />
    <path
       style="display:inline;fill:#a0a0a0;fill-opacity:1;fill-rule:evenodd;stroke:none;stroke-width:0.625px;stroke-linecap:butt;stroke-linejoin:miter;stroke-opacity:1"
       d="m 185.403,109.30805 c 21.0641,54.97607 -80.8028,51.3243 -102.141319,22.96345 24.923069,15.82587 94.705529,-3.58245 102.141319,-22.96345 z"
       id="path4239-5-6-3-2"
       inkscape:connector-curvature="0"
       sodipodi:nodetypes="ccc" />
    <path
       style="display:inline;fill:#bfbfbf;fill-opacity:1;fill-rule:evenodd;stroke:none;stroke-width:0.625px;stroke-linecap:butt;stroke-linejoin:miter;stroke-opacity:1"
       d="m 82.455694,131.99425 c -5.013571,39.0008 63.809256,39.39997 77.438936,20.75091 -30.66926,5.79053 -71.136321,-5.47994 -77.438936,-20.75091 z"
       id="path4239-5-6-3-9"
       inkscape:connector-curvature="0"
       sodipodi:nodetypes="ccc" />
    <path
       style="display:inline;fill:#d5d5d5;fill-opacity:1;fill-rule:evenodd;stroke:none;stroke-width:0.625px;stroke-linecap:butt;stroke-linejoin:miter;stroke-opacity:1"
       d="m 165.9284,151.04196 c 4.94981,21.2415 -39.21008,29.47028 -63.67252,13.59574 30.72172,5.60294 56.21507,-3.97666 63.67252,-13.59574 z"
       id="path4239-5-6-3-2-0"
       inkscape:connector-curvature="0"
       sodipodi:nodetypes="ccc" />
    <path
       style="display:inline;fill:#a4a4a4;fill-opacity:1;fill-rule:evenodd;stroke:none;stroke-width:0.625px;stroke-linecap:butt;stroke-linejoin:miter;stroke-opacity:1"
       d="m 93.773447,156.81177 c -7.273818,28.73268 37.030463,28.2099 49.364533,17.59754 -21.52585,2.28811 -49.390521,-7.16782 -49.364533,-17.59754 z"
       id="path4239-5-6-3-9-3"
       inkscape:connector-curvature="0"
       sodipodi:nodetypes="ccc" />
    <path
       style="display:inline;fill:#d5d5d5;fill-opacity:1;fill-rule:evenodd;stroke:none;stroke-width:0.625px;stroke-linecap:butt;stroke-linejoin:miter;stroke-opacity:1"
       d="m 147.18663,172.82344 c 1.6288,16.90696 -28.90831,20.39685 -44.17045,6.38291 20.32753,6.41295 38.3474,0.62924 44.17045,-6.38291 z"
       id="path4239-5-6-3-2-0-0"
       inkscape:connector-curvature="0"
       sodipodi:nodetypes="ccc" />
    <path
       style="display:inline;fill:#bfbfbf;fill-opacity:1;fill-rule:evenodd;stroke:none;stroke-width:0.625px;stroke-linecap:butt;stroke-linejoin:miter;stroke-opacity:1"
       d="m 105.51438,181.61281 c -2.64627,15.99556 24.62479,13.34904 31.54789,6.92666 -13.12001,2.39078 -30.89726,-1.25982 -31.54789,-6.92666 z"
       id="path4239-5-6-3-9-2"
       inkscape:connector-curvature="0"
       sodipodi:nodetypes="ccc" />
    <path
       style="display:inline;fill:#d5d5d5;fill-opacity:1;fill-rule:evenodd;stroke:none;stroke-width:0.625px;stroke-linecap:butt;stroke-linejoin:miter;stroke-opacity:1"
       d="m 140.87401,186.95142 c 3.01507,8.83238 -15.11695,14.26283 -26.06714,8.56729 13.11655,1.04729 23.36999,-4.14475 26.06714,-8.56729 z"
       id="path4239-5-6-3-2-0-9"
       inkscape:connector-curvature="0"
       sodipodi:nodetypes="ccc" />
    <path
       style="fill:#656565;fill-opacity:1;fill-rule:evenodd;stroke:none;stroke-width:0.625px;stroke-linecap:butt;stroke-linejoin:miter;stroke-opacity:1"
       d="M 72.259874,62.420525 C 77.613959,54.160844 168.13285,49.188276 180.89987,63.159077 216.51106,102.12794 50.190327,96.466948 72.259874,62.420525 Z"
       id="path4224"
       inkscape:connector-curvature="0"
       sodipodi:nodetypes="sss" />
    <g
       id="g959"
       transform="matrix(1.25,0,0,1.25,-32.569741,-31.176277)">
      <path
         sodipodi:nodetypes="cccc"
         inkscape:connector-curvature="0"
         id="path4182"
         d="m 134.44554,182.74702 c -0.0193,-2.03874 -0.71579,-2.0887 -0.71579,-2.0887 -1.31606,-3.55277 -2.20664,-9.15709 -3.12006,-12.0788 -1.4732,-3.22011 -2.26773,-6.29961 -2.64841,-9.79356"
         style="display:inline;fill:none;fill-rule:evenodd;stroke:#e7ecff;stroke-width:2.51441526px;stroke-linecap:butt;stroke-linejoin:miter;stroke-opacity:1" />
      <path
         sodipodi:nodetypes="cccc"
         inkscape:connector-curvature="0"
         id="path4184"
         d="m 121.92361,157.82881 -0.0559,10.00364 c -0.36742,2.88545 -0.59142,9.39052 -0.70488,11.67461 -0.20535,1.80065 -0.55701,0.50377 -0.65981,2.71561"
         style="display:inline;fill:none;fill-rule:evenodd;stroke:#e7ecff;stroke-width:2.51441526px;stroke-linecap:butt;stroke-linejoin:miter;stroke-opacity:1" />
      <path
         sodipodi:nodetypes="csc"
         inkscape:connector-curvature="0"
         id="path4188"
         d="m 122.5198,143.27678 c -2.88637,0.0665 -3.72013,3.71165 -3.59163,4.49077 0.15107,0.91594 3.00689,3.13378 3.04237,5.72483"
         style="display:inline;fill:none;fill-rule:evenodd;stroke:#e7ecff;stroke-width:2.09082603;stroke-linecap:butt;stroke-linejoin:miter;stroke-miterlimit:4;stroke-dasharray:none;stroke-opacity:1" />
      <path
         sodipodi:nodetypes="csc"
         inkscape:connector-curvature="0"
         id="path4190"
         d="m 128.47433,143.18116 c 3.68975,0.0444 4.72595,3.37294 4.68019,4.75519 -0.024,0.72522 -4.3469,2.13568 -4.98252,5.96536"
         style="display:inline;fill:none;fill-rule:evenodd;stroke:#e7ecff;stroke-width:2.09082603;stroke-linecap:butt;stroke-linejoin:miter;stroke-miterlimit:4;stroke-dasharray:none;stroke-opacity:1" />
      <g
         transform="matrix(0.34617532,0,0,0.35078186,80.754946,107.33109)"
         style="display:inline;fill:#e7ecff;fill-opacity:1;stroke:#e7ecff;stroke-opacity:1"
         id="g4519">
        <path
           style="fill:#e7ecff;fill-opacity:1;fill-rule:evenodd;stroke:#e7ecff;stroke-width:3.60778332;stroke-linecap:butt;stroke-linejoin:miter;stroke-miterlimit:4;stroke-dasharray:none;stroke-opacity:1"
           d="m 115.46203,148.48201 24.5841,-1.24628 c -1.17045,-8.24284 -0.28546,-15.85485 -5.08332,-24.93615 -3.60229,-6.81835 7.16307,-7.2606 4.72538,-21.5058 -0.3387,-1.979253 -18.29535,-1.397664 -19.14237,0.23247 -7.482,14.39948 8.91974,15.19481 1.73538,21.36304 -5.0238,4.31325 -8.07495,15.92714 -6.81917,26.09272 z"
           id="path4186"
           inkscape:connector-curvature="0"
           sodipodi:nodetypes="ccssssc" />
        <ellipse
           style="opacity:1;fill:#e7ecff;fill-opacity:1;stroke:#e7ecff;stroke-width:3.60778332;stroke-linecap:round;stroke-linejoin:round;stroke-miterlimit:4;stroke-dasharray:none;stroke-dashoffset:0;stroke-opacity:1"
           id="path4194"
           cx="131.00856"
           cy="83.903229"
           rx="7.2058926"
           ry="8.1209126"
           transform="rotate(1.1579526)" />
        <path
           style="fill:#e7ecff;fill-opacity:1;fill-rule:evenodd;stroke:#e7ecff;stroke-width:3.60778332;stroke-linecap:butt;stroke-linejoin:miter;stroke-miterlimit:4;stroke-dasharray:none;stroke-opacity:1"
           d="M 134.9454,113.70106 C 111.94474,95.968769 93.332761,83.614925 88.694596,59.213392 63.252753,65.710227 47.757837,79.222839 38.331155,97.013736 l 26.68597,-3.398809 13.849106,12.448113 26.921899,-2.55149 z"
           id="path4198"
           inkscape:connector-curvature="0"
           sodipodi:nodetypes="ccccccc" />
        <path
           style="display:inline;fill:#e7ecff;fill-opacity:1;fill-rule:evenodd;stroke:#e7ecff;stroke-width:3.60778332;stroke-linecap:butt;stroke-linejoin:miter;stroke-miterlimit:4;stroke-dasharray:none;stroke-opacity:1"
           d="m 128.20177,109.71721 c 23.69842,-16.788752 42.79441,-28.381155 48.41484,-52.575355 25.15853,7.519579 40.09471,21.64727 48.79483,39.804642 l -26.52685,-4.473651 -14.3408,11.877474 -26.79682,-3.63642 z"
           id="path4198-0"
           inkscape:connector-curvature="0"
           sodipodi:nodetypes="ccccccc" />
        <path
           style="fill:#e7ecff;fill-opacity:1;fill-rule:evenodd;stroke:#e7ecff;stroke-width:1px;stroke-linecap:butt;stroke-linejoin:miter;stroke-opacity:1"
           d="m 121.51731,101.01904 c 1.303,-4.83708 -0.66059,-8.595615 -0.72322,-13.637738 l 16.93438,-0.937501 c -0.19309,4.982216 -0.77989,11.265083 -0.18492,14.558599 z"
           id="path4488"
           inkscape:connector-curvature="0"
           sodipodi:nodetypes="ccccc" />
        <path
           style="fill:#e7ecff;fill-opacity:1;fill-rule:evenodd;stroke:#e7ecff;stroke-width:1px;stroke-linecap:butt;stroke-linejoin:miter;stroke-opacity:1"
           d="m 124.1124,83.586659 c -8.51343,-7.049407 -8.09503,-13.588423 -8.57143,-20.178571 1.96365,6.215687 2.30851,12.68431 11.51786,17.767857 z"
           id="path4490"
           inkscape:connector-curvature="0"
           sodipodi:nodetypes="cccc" />
        <path
           style="display:inline;fill:#e7ecff;fill-opacity:1;fill-rule:evenodd;stroke:#e7ecff;stroke-width:1px;stroke-linecap:butt;stroke-linejoin:miter;stroke-opacity:1"
           d="m 133.98885,83.318802 c 6.99553,-7.049407 6.65173,-13.588423 7.04319,-20.178571 -1.61354,6.215687 -1.89691,12.68431 -9.46428,17.767857 z"
           id="path4490-2"
           inkscape:connector-curvature="0"
           sodipodi:nodetypes="cccc" />
      </g>
    </g>
  </g>
</svg>
