<svg xmlns="http://www.w3.org/2000/svg" xmlns:xlink="http://www.w3.org/1999/xlink" viewBox="0 0 256 256">
    <defs>
        <linearGradient id="elementalArcaneDark2">
            <stop offset="0" stop-color="#8e00c8"/>
            <stop offset="1" stop-color="#d04cff"/>
        </linearGradient>
        <linearGradient id="elementalArcaneDarkU1">
            <stop offset="0" stop-color="#d202ff"/>
            <stop offset="1" stop-color="#f37cff"/>
        </linearGradient>
        <linearGradient id="elementalArcaneU">
            <stop offset="0" stop-color="#f785ff"/>
            <stop offset="1" stop-color="#f7aeff"/>
        </linearGradient>
        <linearGradient id="linearGradient4236" x1="120.208" x2="118.693" y1="219.635" y2="89.325" gradientTransform="matrix(.625 0 0 .625 50.23 44.423)" gradientUnits="userSpaceOnUse" xlink:href="#elementalArcaneU"/>
        <linearGradient id="linearGradient899" x1="120.208" x2="118.693" y1="219.635" y2="89.325" gradientTransform="translate(30.985 22.967) scale(.78125)" gradientUnits="userSpaceOnUse" xlink:href="#elementalArcaneDarkU1"/>
        <linearGradient id="linearGradient911" x1="120.208" x2="118.693" y1="219.635" y2="89.325" gradientTransform="matrix(.97656 0 0 .97656 6.927 -3.853)" gradientUnits="userSpaceOnUse" xlink:href="#elementalArcaneDark2"/>
    </defs>
    <g>
        <path fill="url(#linearGradient911)" fill-rule="evenodd" d="M21.527 77.063c0-17.193 6.573-29.582 16.434-37.925 4.55-3.667 9.608-6.574 15.17-8.597 11.125-4.045 23.514-5.057 35.018-3.287 5.183.759 10.114 2.15 14.665 3.92a53.495 53.495 0 0 1 11.63 6.194c5.563 3.919 9.987 8.723 12.895 14.538 16.055-37.04 106.065-34.639 105.56 33.627-.38 49.05-53.729 94.688-106.445 148.542C74.369 178.071 21.4 128.01 21.527 77.063z"/>
        <path fill="#efb3ff" fill-rule="evenodd" d="M169.941 38.38c14.16-4.426 30.72-.127 43.489 11.63 8.596 11.756 12.768 26.8 10.872 42.603-1.138-15.93-8.47-28.445-17.699-36.409-8.47-11.504-21.997-19.215-36.662-17.825z"/>
        <path fill="url(#linearGradient899)" fill-rule="evenodd" d="M42.664 87.7c0-13.755 5.259-23.666 13.147-30.34 3.641-2.934 7.687-5.26 12.137-6.878 8.9-3.236 18.81-4.045 28.014-2.63 4.146.607 8.09 1.72 11.732 3.136a42.796 42.796 0 0 1 9.304 4.955c4.45 3.136 7.99 6.979 10.316 11.63 12.844-29.631 84.852-27.71 84.447 26.903-.303 39.24-42.982 75.75-85.155 118.833-41.668-44.803-84.043-84.852-83.942-125.61z"/>
        <path fill="#f6d5ff" fill-rule="evenodd" d="M161.396 56.753c11.327-3.54 24.576-.102 34.79 9.304 6.878 9.405 10.215 21.44 8.698 34.082-.91-12.743-6.776-22.755-14.159-29.127-6.776-9.203-17.597-15.372-29.33-14.26z"/>
        <path fill="url(#linearGradient4236)" fill-rule="evenodd" d="M59.574 96.21c0-11.004 4.207-18.933 10.518-24.273 2.912-2.347 6.149-4.207 9.709-5.502 7.12-2.589 15.049-3.236 22.411-2.103 3.317.485 6.473 1.375 9.385 2.508a34.237 34.237 0 0 1 7.444 3.964c3.56 2.508 6.392 5.583 8.253 9.304 10.275-23.706 67.881-22.168 67.558 21.522-.243 31.392-34.386 60.6-68.125 95.067-33.334-35.843-67.234-67.882-67.153-100.488z"/>
        <path fill="#f6d5ff" fill-rule="evenodd" d="M154.56 71.451c9.061-2.831 19.66-.08 27.832 7.444 5.502 7.524 8.172 17.152 6.958 27.266-.728-10.195-5.421-18.204-11.327-23.302-5.421-7.362-14.078-12.298-23.464-11.408z"/>
        <path fill="none" stroke="#fcf1ff" stroke-width="4.145" d="M139.483 180.233c-.055-3.316-1.16-3.426-1.16-3.426-2.156-5.803-3.648-14.976-5.14-19.728-2.431-5.305-3.702-10.334-4.31-16.081M118.98 139.45l-.11 16.358c-.607 4.752-.939 15.417-1.16 19.12-.332 2.984-.884.829-1.05 4.476"/>
        <path fill="none" stroke="#fcf1ff" stroke-width="3.426" d="M119.92 115.633c-4.697.11-6.078 6.079-5.857 7.35.22 1.492 4.918 5.139 4.973 9.394M129.702 115.467c6.023.055 7.736 5.526 7.626 7.792 0 1.16-7.074 3.481-8.124 9.781"/>
        <g fill="#fcf1ff" stroke="#fcf1ff">
            <path fill-rule="evenodd" stroke-width="2.044375" d="M116.992 142.048l13.925-.719c-.663-4.752-.166-9.118-2.873-14.312-2.045-3.924 4.09-4.2 2.708-12.379-.222-1.105-10.39-.773-10.887.166-4.2 8.234 5.084 8.731.995 12.268-2.819 2.487-4.587 9.118-3.868 14.976z"/>
            <path stroke-linecap="round" stroke-linejoin="round" stroke-width="2.044375" d="M128.928 106.57c-.055 2.542-1.934 4.587-4.2 4.587-2.266-.056-4.034-2.21-3.979-4.753.055-2.597 1.934-4.642 4.2-4.586 2.21.055 4.034 2.155 3.979 4.752z"/>
            <path fill-rule="evenodd" stroke-width="2.044375" d="M128.044 122.098c-13.042-10.223-23.597-17.296-26.194-31.333-14.423 3.758-23.21 11.495-28.57 21.718l15.142-1.934 7.847 7.129 15.252-1.437z"/>
            <path fill-rule="evenodd" stroke-width="2.044375" d="M124.23 119.777c13.43-9.615 24.26-16.302 27.41-30.172 14.313 4.31 22.768 12.434 27.686 22.823l-15.031-2.542-8.123 6.797-15.197-2.045z"/>
            <path fill-rule="evenodd" stroke-width=".5525" d="M120.418 114.804c.773-2.818-.332-4.974-.387-7.847l9.615-.553c-.11 2.874-.442 6.466-.11 8.4zM121.91 104.802c-4.808-4.09-4.587-7.847-4.863-11.605 1.105 3.537 1.326 7.294 6.52 10.168zM127.491 104.636c3.979-4.09 3.758-7.792 3.979-11.605-.884 3.592-1.05 7.295-5.36 10.223z"/>
        </g>
    </g>
</svg>
