<svg xmlns="http://www.w3.org/2000/svg" xmlns:xlink="http://www.w3.org/1999/xlink" viewBox="0 0 256 256">
    <defs>
        <linearGradient id="linearGradient917">
            <stop offset="0" stop-color="#72005b"/>
            <stop offset="1" stop-color="#ec00bb"/>
        </linearGradient>
        <linearGradient id="elementalArcaneDark">
            <stop offset="0" stop-color="#ae008b"/>
            <stop offset="1" stop-color="#ff47d9"/>
        </linearGradient>
        <linearGradient id="elementalArcane1">
            <stop offset="0" stop-color="#e000b3"/>
            <stop offset="1" stop-color="#ff8ae7"/>
        </linearGradient>
        <linearGradient id="linearGradient4236" x1="120.208" x2="118.693" y1="219.635" y2="89.325" gradientTransform="matrix(.5 0 0 .5 65.627 61.588)" gradientUnits="userSpaceOnUse" xlink:href="#elementalArcane1"/>
        <linearGradient id="linearGradient899" x1="120.208" x2="118.693" y1="219.635" y2="89.325" gradientTransform="matrix(.625 0 0 .625 50.23 44.423)" gradientUnits="userSpaceOnUse" xlink:href="#elementalArcaneDark"/>
        <linearGradient id="linearGradient911" x1="120.208" x2="118.693" y1="219.635" y2="89.325" gradientTransform="translate(30.985 22.967) scale(.78125)" gradientUnits="userSpaceOnUse" xlink:href="#linearGradient917"/>
    </defs>
    <g>
        <path fill="url(#linearGradient911)" fill-rule="evenodd" d="M42.664 87.7c0-13.755 5.259-23.666 13.147-30.34 3.641-2.934 7.687-5.26 12.137-6.878 8.9-3.236 18.81-4.045 28.014-2.63 4.146.607 8.09 1.72 11.732 3.136a42.796 42.796 0 0 1 9.304 4.955c4.45 3.136 7.99 6.979 10.316 11.63 12.844-29.631 84.852-27.71 84.447 26.903-.303 39.24-42.982 75.75-85.155 118.833-41.668-44.803-84.043-84.852-83.942-125.61z"/>
        <path fill="#efb3ff" fill-rule="evenodd" d="M161.396 56.753c11.327-3.54 24.576-.102 34.79 9.304 6.878 9.405 10.215 21.44 8.698 34.082-.91-12.743-6.776-22.755-14.159-29.127-6.776-9.203-17.597-15.372-29.33-14.26z"/>
        <path fill="url(#linearGradient899)" fill-rule="evenodd" d="M59.574 96.21c0-11.004 4.207-18.933 10.518-24.273 2.912-2.347 6.149-4.207 9.709-5.502 7.12-2.589 15.049-3.236 22.411-2.103 3.317.485 6.473 1.375 9.385 2.508a34.237 34.237 0 0 1 7.444 3.964c3.56 2.508 6.392 5.583 8.253 9.304 10.275-23.706 67.881-22.168 67.558 21.522-.243 31.392-34.386 60.6-68.125 95.067-33.334-35.843-67.234-67.882-67.153-100.488z"/>
        <path fill="#f6d5ff" fill-rule="evenodd" d="M154.56 71.451c9.061-2.831 19.66-.08 27.832 7.444 5.502 7.524 8.172 17.152 6.958 27.266-.728-10.195-5.421-18.204-11.327-23.302-5.421-7.362-14.078-12.298-23.464-11.408z"/>
        <path fill="url(#linearGradient4236)" fill-rule="evenodd" d="M73.102 103.017c0-8.803 3.365-15.146 8.414-19.418a27.091 27.091 0 0 1 7.767-4.402c5.696-2.07 12.04-2.589 17.93-1.683 2.653.389 5.178 1.1 7.508 2.007a27.39 27.39 0 0 1 5.954 3.172c2.848 2.006 5.114 4.466 6.603 7.443 8.22-18.965 54.305-17.735 54.046 17.217-.194 25.114-27.509 48.48-54.5 76.054-26.667-28.674-53.787-54.306-53.722-80.39z"/>
        <path fill="#f6d5ff" fill-rule="evenodd" d="M149.09 83.21c7.25-2.265 15.729-.064 22.266 5.955 4.402 6.02 6.538 13.722 5.567 21.813-.583-8.156-4.337-14.564-9.062-18.641-4.337-5.89-11.263-9.839-18.77-9.127z"/>
        <path fill="none" stroke="#fcf1ff" stroke-width="3.316" d="M137.029 170.236c-.044-2.653-.928-2.741-.928-2.741-1.725-4.642-2.918-11.98-4.112-15.783-1.945-4.244-2.962-8.267-3.448-12.864M120.627 137.61l-.088 13.085c-.486 3.802-.751 12.335-.928 15.297-.266 2.387-.708.663-.84 3.58"/>
        <path fill="none" stroke="#fcf1ff" stroke-width="2.741" d="M121.379 118.556c-3.758.088-4.863 4.863-4.686 5.88.177 1.193 3.934 4.11 3.979 7.515M129.204 118.423c4.819.044 6.19 4.42 6.1 6.233 0 .929-5.658 2.786-6.498 7.825"/>
        <g fill="#fcf1ff" stroke="#fcf1ff">
            <path fill-rule="evenodd" stroke-width="1.6355" d="M119.036 139.687l11.14-.574c-.53-3.802-.132-7.295-2.298-11.45-1.636-3.14 3.271-3.36 2.166-9.903-.177-.884-8.311-.62-8.71.132-3.36 6.588 4.068 6.985.797 9.815-2.255 1.99-3.67 7.294-3.095 11.98z"/>
            <path stroke-linecap="round" stroke-linejoin="round" stroke-width="1.6355" d="M128.585 111.305c-.044 2.034-1.547 3.67-3.36 3.67-1.812-.045-3.227-1.769-3.183-3.802.044-2.078 1.547-3.714 3.36-3.67 1.768.045 3.227 1.725 3.183 3.802z"/>
            <path fill-rule="evenodd" stroke-width="1.6355" d="M127.878 123.728c-10.434-8.179-18.878-13.837-20.955-25.066-11.539 3.006-18.568 9.195-22.856 17.374l12.113-1.548 6.278 5.703 12.201-1.15z"/>
            <path fill-rule="evenodd" stroke-width="1.6355" d="M124.827 121.871c10.743-7.692 19.408-13.041 21.928-24.138 11.45 3.449 18.214 9.947 22.149 18.259l-12.025-2.034-6.5 5.438-12.156-1.636z"/>
            <path fill-rule="evenodd" stroke-width=".442" d="M121.777 117.892c.619-2.254-.265-3.978-.31-6.277l7.693-.442c-.088 2.299-.354 5.172-.088 6.72zM122.97 109.89c-3.846-3.27-3.669-6.277-3.89-9.283.884 2.83 1.061 5.835 5.217 8.134zM127.436 109.758c3.183-3.271 3.006-6.233 3.183-9.284-.708 2.874-.84 5.836-4.289 8.179z"/>
        </g>
    </g>
</svg>
