<svg xmlns="http://www.w3.org/2000/svg" xmlns:xlink="http://www.w3.org/1999/xlink" viewBox="0 0 256 256">
    <defs>
        <linearGradient id="elementalFireRedU">
            <stop offset="0" stop-color="#dd0a0a"/>
            <stop offset="1" stop-color="#f20d60"/>
        </linearGradient>
        <linearGradient id="elementalFireOrangeU">
            <stop offset="0" stop-color="#e6600b"/>
            <stop offset="1" stop-color="#f6a23e"/>
        </linearGradient>
        <linearGradient id="linearGradient4353" x1="154.449" x2="68.529" y1="162.793" y2="162.734" gradientTransform="matrix(.01899 1.12347 -1.51712 .0091 372.294 51.15)" gradientUnits="userSpaceOnUse" xlink:href="#elementalFireYellowU"/>
        <linearGradient id="elementalFireYellowU">
            <stop offset="0" stop-color="#e69f0a"/>
            <stop offset="1" stop-color="#f7f864"/>
        </linearGradient>
        <linearGradient id="linearGradient855" x1="154.449" x2="68.529" y1="162.793" y2="162.734" gradientTransform="matrix(.02374 1.40434 -1.8964 .01136 434.437 7.964)" gradientUnits="userSpaceOnUse" xlink:href="#elementalFireOrangeU"/>
        <linearGradient id="linearGradient865" x1="154.449" x2="68.529" y1="162.793" y2="162.734" gradientTransform="matrix(.02967 1.75542 -2.3705 .0142 510.999 -47.917)" gradientUnits="userSpaceOnUse" xlink:href="#elementalFireRedU"/>
    </defs>
    <g>
        <path fill="url(#linearGradient865)" fill-rule="evenodd" d="M94.589 18.378C-3.39 81.214 12.174 231.096 128.875 230.31c119.975-.808 127.226-161.77 31.89-208.85 15.949 30.256 23.541 64.384-.061 85.291-9.162 8.116 1.982-42.923-24.023-41.851 16.077 23.874-27.844 51.106-21.1 16.648-13.354 4.358-13.668 32.142-22.142 22.518-11.778-13.377-22.551-52.984 1.15-85.688z"/>
        <path fill="url(#linearGradient855)" fill-rule="evenodd" d="M101.308 61c-78.382 50.269-65.932 170.174 27.43 169.546 95.98-.646 101.78-129.417 25.512-167.08 12.758 24.204 18.832 51.507-.05 68.233-7.329 6.492 1.587-34.339-19.218-33.481 12.862 19.099-22.275 40.885-16.88 13.318-10.683 3.486-10.934 25.714-17.713 18.014-9.422-10.7-18.042-42.387.92-68.55z"/>
        <path fill="url(#linearGradient4353)" fill-rule="evenodd" d="M105.791 93.58c-62.705 40.215-52.745 136.14 21.944 135.636 76.784-.517 81.424-103.533 20.41-133.663 10.206 19.363 15.065 41.205-.04 54.586-5.863 5.194 1.269-27.471-15.374-26.785 10.288 15.28-17.82 32.708-13.504 10.655-8.547 2.789-8.748 20.57-14.171 14.411-7.538-8.56-14.433-33.91.735-54.84z"/>
        <path fill="none" stroke="#fbffb3" stroke-width="3.143" d="M137.532 224.156c-.024-2.548-.895-2.61-.895-2.61-1.645-4.442-2.758-11.447-3.9-15.1-1.841-4.024-2.835-7.874-3.31-12.241M121.88 193.009l-.07 12.504c-.46 3.607-.74 11.738-.881 14.593-.257 2.251-.697.63-.825 3.395"/>
        <path fill="none" stroke="#fbffb3" stroke-width="2.614" d="M122.625 174.819c-3.608.083-4.65 4.64-4.49 5.613.19 1.145 3.759 3.917 3.803 7.156M130.068 174.699c4.612.056 5.907 4.216 5.85 5.944-.03.907-5.433 2.67-6.228 7.457"/>
        <g fill="#fbffb3" stroke="#fbffb3" transform="matrix(.43272 0 0 .43848 70.419 129.886)">
            <path fill-rule="evenodd" stroke-width="3.608" d="M115.462 148.482l24.584-1.246c-1.17-8.243-.285-15.855-5.083-24.936-3.602-6.819 7.163-7.261 4.725-21.506-.339-1.98-18.295-1.398-19.142.232-7.482 14.4 8.92 15.195 1.735 21.363-5.024 4.314-8.075 15.927-6.819 26.093z"/>
            <ellipse cx="131.009" cy="83.903" stroke-linecap="round" stroke-linejoin="round" stroke-width="3.608" rx="7.206" ry="8.121" transform="rotate(1.158)"/>
            <path fill-rule="evenodd" stroke-width="3.608" d="M134.945 113.701c-23-17.732-41.612-30.086-46.25-54.488-25.442 6.497-40.937 20.01-50.364 37.8l26.686-3.398 13.85 12.448 26.921-2.551z"/>
            <path fill-rule="evenodd" stroke-width="3.608" d="M128.202 109.717c23.698-16.789 42.794-28.38 48.415-52.575 25.158 7.52 40.094 21.647 48.794 39.804l-26.526-4.473-14.341 11.877-26.797-3.636z"/>
            <path fill-rule="evenodd" d="M121.517 101.019c1.303-4.837-.66-8.596-.723-13.638l16.934-.937c-.193 4.982-.78 11.265-.184 14.558zM124.112 83.587c-8.513-7.05-8.095-13.589-8.571-20.179 1.964 6.216 2.308 12.684 11.518 17.768zM133.989 83.319c6.995-7.05 6.652-13.589 7.043-20.179-1.613 6.216-1.897 12.685-9.464 17.768z"/>
        </g>
    </g>
</svg>
