<svg xmlns="http://www.w3.org/2000/svg" xmlns:xlink="http://www.w3.org/1999/xlink" viewBox="0 0 256 256">
    <defs>
        <linearGradient id="elementalFireDark2">
            <stop offset="0" stop-color="#aa4708"/>
            <stop offset="1" stop-color="#c5750a"/>
        </linearGradient>
        <linearGradient id="elementalFireDark">
            <stop offset="0" stop-color="#c8540a"/>
            <stop offset="1" stop-color="#e5880b"/>
        </linearGradient>
        <linearGradient id="linearGradient4353" x1="154.449" x2="68.529" y1="162.793" y2="162.734" gradientTransform="matrix(.0152 .89877 -1.2137 .00727 322.758 67.242)" gradientUnits="userSpaceOnUse" xlink:href="#elementalFire3"/>
        <linearGradient id="elementalFire3">
            <stop offset="0" stop-color="#d85c0a"/>
            <stop offset="1" stop-color="#f4900c"/>
        </linearGradient>
        <linearGradient id="linearGradient855" x1="154.449" x2="68.529" y1="162.793" y2="162.734" gradientTransform="matrix(.01899 1.12347 -1.51712 .0091 372.472 32.692)" gradientUnits="userSpaceOnUse" xlink:href="#elementalFireDark"/>
        <linearGradient id="linearGradient865" x1="154.449" x2="68.529" y1="162.793" y2="162.734" gradientTransform="matrix(.02374 1.40434 -1.8964 .01136 433.722 -12.013)" gradientUnits="userSpaceOnUse" xlink:href="#elementalFireDark2"/>
    </defs>
    <g>
        <path fill="url(#linearGradient865)" fill-rule="evenodd" d="M100.594 41.023c-78.382 50.27-65.932 170.175 27.43 169.546 95.98-.646 101.78-129.417 25.511-167.08 12.76 24.205 18.833 51.507-.049 68.233-7.329 6.493 1.586-34.338-19.218-33.48 12.861 19.098-22.275 40.884-16.88 13.318-10.683 3.486-10.934 25.713-17.714 18.014-9.422-10.701-18.04-42.387.92-68.55z"/>
        <path fill="url(#linearGradient855)" fill-rule="evenodd" d="M105.97 75.121c-62.706 40.215-52.746 136.14 21.943 135.637 76.784-.517 81.425-103.534 20.41-133.664 10.207 19.364 15.066 41.205-.04 54.586-5.863 5.194 1.27-27.47-15.374-26.785 10.29 15.28-17.82 32.708-13.504 10.655-8.546 2.79-8.748 20.57-14.17 14.411-7.539-8.56-14.434-33.91.735-54.84z"/>
        <path fill="url(#linearGradient4353)" fill-rule="evenodd" d="M109.556 101.185c-50.164 32.172-42.196 108.912 17.555 108.51 61.427-.414 65.14-82.827 16.328-106.931 8.165 15.49 12.052 32.963-.032 43.668-4.69 4.155 1.015-21.976-12.3-21.428 8.232 12.224-14.256 26.167-10.802 8.524-6.838 2.231-6.999 16.457-11.337 11.53-6.03-6.85-11.547-27.128.588-43.873z"/>
        <path fill="none" stroke="#fbffb3" stroke-width="2.514" d="M134.949 205.646c-.02-2.039-.716-2.088-.716-2.088-1.316-3.553-2.207-9.158-3.12-12.08-1.473-3.22-2.268-6.299-2.649-9.793M122.427 180.728l-.056 10.004c-.368 2.885-.592 9.39-.705 11.674-.205 1.8-.557.504-.66 2.716"/>
        <path fill="none" stroke="#fbffb3" stroke-width="2.091" d="M123.023 166.176c-2.886.066-3.72 3.712-3.592 4.49.151.917 3.007 3.135 3.043 5.726M128.978 166.08c3.69.045 4.725 3.373 4.68 4.756-.024.725-4.347 2.135-4.983 5.965"/>
        <g fill="#fbffb3" stroke="#fbffb3" transform="matrix(.34618 0 0 .35078 81.258 130.23)">
            <path fill-rule="evenodd" stroke-width="3.608" d="M115.462 148.482l24.584-1.246c-1.17-8.243-.285-15.855-5.083-24.936-3.602-6.819 7.163-7.261 4.725-21.506-.339-1.98-18.295-1.398-19.142.232-7.482 14.4 8.92 15.195 1.735 21.363-5.024 4.314-8.075 15.927-6.819 26.093z"/>
            <ellipse cx="131.009" cy="83.903" stroke-linecap="round" stroke-linejoin="round" stroke-width="3.608" rx="7.206" ry="8.121" transform="rotate(1.158)"/>
            <path fill-rule="evenodd" stroke-width="3.608" d="M134.945 113.701c-23-17.732-41.612-30.086-46.25-54.488-25.442 6.497-40.937 20.01-50.364 37.8l26.686-3.398 13.85 12.448 26.921-2.551z"/>
            <path fill-rule="evenodd" stroke-width="3.608" d="M128.202 109.717c23.698-16.789 42.794-28.38 48.415-52.575 25.158 7.52 40.094 21.647 48.794 39.804l-26.526-4.473-14.341 11.877-26.797-3.636z"/>
            <path fill-rule="evenodd" d="M121.517 101.019c1.303-4.837-.66-8.596-.723-13.638l16.934-.937c-.193 4.982-.78 11.265-.184 14.558zM124.112 83.587c-8.513-7.05-8.095-13.589-8.571-20.179 1.964 6.216 2.308 12.684 11.518 17.768zM133.989 83.319c6.995-7.05 6.652-13.589 7.043-20.179-1.613 6.216-1.897 12.685-9.464 17.768z"/>
        </g>
    </g>
</svg>
