<svg xmlns="http://www.w3.org/2000/svg" xmlns:xlink="http://www.w3.org/1999/xlink" viewBox="0 0 256 256">
    <defs>
        <linearGradient id="elementalWater3">
            <stop offset="0" stop-color="#80e5ff"/>
            <stop offset="1" stop-color="#18d0ff"/>
        </linearGradient>
        <linearGradient id="linearGradient941" x1="138.318" x2="143.08" y1="102.406" y2="207.565" gradientTransform="matrix(.45 0 0 .45 73.224 83.39)" gradientUnits="userSpaceOnUse" xlink:href="#elementalWater3"/>
    </defs>
    <g>
        <path fill="#80e5ff" fill-rule="evenodd" d="M86.068 153.01c-.937-27.053 32.294-55.577 43.637-82.47 13.7 29.45 48.047 51.125 47.817 82.184z"/>
        <ellipse cx="131.803" cy="152.575" fill="url(#linearGradient941)" rx="45.653" ry="43.208"/>
        <path fill="#d5f6ff" fill-rule="evenodd" d="M135.646 87.15c4.718 9.881 12.408 18.317 19.284 27.003.96 1.214 1.903 2.43 2.817 3.652 2.67 2.857 5.184 5.79 7.38 8.898 3.049 4.31 5.53 9.014 6.948 14.376-.758-5.52-2.634-10.596-5.215-15.442-1.853-3.479-4.051-6.805-6.414-10.056a176.03 176.03 0 0 0-3.202-3.44c-7.673-8.045-16.032-15.69-21.598-24.99z"/>
        <g stroke="#ecfbff">
            <path fill="none" stroke-width="2.794" d="M141.255 186.04c-.022-2.264-.796-2.32-.796-2.32-1.462-3.947-2.451-10.174-3.466-13.42-1.637-3.579-2.52-7-2.943-10.882M127.341 158.354l-.062 11.115c-.408 3.206-.657 10.434-.783 12.972-.228 2-.619.56-.733 3.017"/>
            <path fill="none" stroke-width="2.323" d="M128.004 142.185c-3.207.074-4.134 4.124-3.99 4.99.167 1.018 3.34 3.482 3.38 6.36M134.62 142.079c4.1.05 5.251 3.748 5.2 5.283-.027.806-4.83 2.373-5.536 6.629"/>
            <g fill="#ecfbff" transform="matrix(.38464 0 0 .38976 81.598 102.245)">
                <path fill-rule="evenodd" stroke-width="3.608" d="M115.462 148.482l24.584-1.246c-1.17-8.243-.285-15.855-5.083-24.936-3.602-6.819 7.163-7.261 4.725-21.506-.339-1.98-18.295-1.398-19.142.232-7.482 14.4 8.92 15.195 1.735 21.363-5.024 4.314-8.075 15.927-6.819 26.093z"/>
                <ellipse cx="131.009" cy="83.903" stroke-linecap="round" stroke-linejoin="round" stroke-width="3.608" rx="7.206" ry="8.121" transform="rotate(1.158)"/>
                <path fill-rule="evenodd" stroke-width="3.608" d="M134.945 113.701c-23-17.732-41.612-30.086-46.25-54.488-25.442 6.497-40.937 20.01-50.364 37.8l26.686-3.398 13.85 12.448 26.921-2.551z"/>
                <path fill-rule="evenodd" stroke-width="3.608" d="M128.202 109.717c23.698-16.789 42.794-28.38 48.415-52.575 25.158 7.52 40.094 21.647 48.794 39.804l-26.526-4.473-14.341 11.877-26.797-3.636z"/>
                <path fill-rule="evenodd" d="M121.517 101.019c1.303-4.837-.66-8.596-.723-13.638l16.934-.937c-.193 4.982-.78 11.265-.184 14.558zM124.112 83.587c-8.513-7.05-8.095-13.589-8.571-20.179 1.964 6.216 2.308 12.684 11.518 17.768zM133.989 83.319c6.995-7.05 6.652-13.589 7.043-20.179-1.613 6.216-1.897 12.685-9.464 17.768z"/>
            </g>
        </g>
    </g>
</svg>
