<svg xmlns="http://www.w3.org/2000/svg" xmlns:xlink="http://www.w3.org/1999/xlink" viewBox="0 0 256 256">
    <defs>
        <linearGradient id="elementalWaterDark2U">
            <stop offset="0" stop-color="#00b6e5"/>
            <stop offset="1" stop-color="#5500ae"/>
        </linearGradient>
        <linearGradient id="elementalWaterDarkU">
            <stop offset="0" stop-color="#32d5ff"/>
            <stop offset="1" stop-color="#8b00de"/>
        </linearGradient>
        <linearGradient id="elementalWater3">
            <stop offset="0" stop-color="#80e5ff"/>
            <stop offset="1" stop-color="#bf70ff"/>
        </linearGradient>
        <linearGradient id="linearGradient941" x1="138.318" x2="143.08" y1="102.406" y2="207.565" gradientTransform="translate(58.46 72.803) scale(.5625)" gradientUnits="userSpaceOnUse" xlink:href="#elementalWater3"/>
        <linearGradient id="linearGradient1032" x1="138.318" x2="143.08" y1="102.406" y2="207.565" gradientTransform="matrix(.70313 0 0 .70313 40.331 53.91)" gradientUnits="userSpaceOnUse" xlink:href="#elementalWaterDarkU"/>
        <linearGradient id="linearGradient1048" x1="138.318" x2="143.08" y1="102.406" y2="207.565" gradientTransform="matrix(.8789 0 0 .8789 17.902 29.258)" gradientUnits="userSpaceOnUse" xlink:href="#elementalWaterDark2U"/>
    </defs>
    <g>
        <path fill="#00b6e5" fill-rule="evenodd" d="M42.987 165.237C41.158 112.4 106.062 56.687 128.215 4.163c26.759 57.518 93.842 99.853 93.393 160.514z"/>
        <ellipse cx="132.314" cy="164.388" fill="url(#linearGradient1048)" rx="89.166" ry="84.391"/>
        <path fill="#99e9ff" fill-rule="evenodd" d="M139.82 36.605c9.214 19.297 24.234 35.774 37.664 52.74a328.689 328.689 0 0 1 5.502 7.13c5.215 5.581 10.124 11.311 14.414 17.38 5.954 8.42 10.801 17.607 13.57 28.08-1.48-10.783-5.144-20.697-10.186-30.162-3.619-6.794-7.912-13.29-12.527-19.64a343.807 343.807 0 0 0-6.255-6.72c-14.985-15.712-31.31-30.645-42.182-48.808z"/>
        <path fill="#32d5ff" fill-rule="evenodd" d="M60.4 162.694c-1.464-42.27 50.459-86.84 68.182-128.86 21.406 46.015 75.073 79.883 74.714 128.412z"/>
        <ellipse cx="131.861" cy="162.014" fill="url(#linearGradient1032)" rx="71.333" ry="67.513"/>
        <path fill="#b3efff" fill-rule="evenodd" d="M137.865 59.788c7.372 15.438 19.388 28.62 30.131 42.192a262.936 262.936 0 0 1 4.402 5.705c4.172 4.464 8.1 9.048 11.532 13.903 4.763 6.736 8.64 14.086 10.855 22.464-1.184-8.626-4.115-16.557-8.148-24.129-2.895-5.435-6.33-10.632-10.022-15.713a275.053 275.053 0 0 0-5.004-5.375c-11.988-12.57-25.048-24.516-33.746-39.047z"/>
        <path fill="#80e5ff" fill-rule="evenodd" d="M74.515 159.83c-1.17-33.817 40.367-69.473 54.546-103.089 17.125 36.812 60.058 63.907 59.771 102.73z"/>
        <ellipse cx="131.684" cy="159.285" fill="url(#linearGradient941)" rx="57.066" ry="54.01"/>
        <path fill="#d5f6ff" fill-rule="evenodd" d="M136.488 77.504c5.897 12.35 15.51 22.896 24.105 33.754a210.327 210.327 0 0 1 3.521 4.564c3.338 3.571 6.48 7.239 9.225 11.122 3.81 5.389 6.913 11.269 8.684 17.971-.946-6.9-3.292-13.245-6.518-19.303-2.316-4.348-5.064-8.506-8.017-12.57a219.997 219.997 0 0 0-4.003-4.3c-9.591-10.056-20.04-19.613-26.997-31.238z"/>
        <g stroke="#ecfbff">
            <path fill="none" stroke-width="3.4925" d="M143.498 201.117c-.026-2.831-.994-2.9-.994-2.9-1.828-4.935-3.065-12.719-4.333-16.777-2.046-4.472-3.15-8.75-3.679-13.602M126.107 166.509l-.078 13.894c-.51 4.007-.821 13.042-.979 16.214-.285 2.501-.773.7-.916 3.772"/>
            <path fill="none" stroke-width="2.90375" d="M126.935 146.297c-4.009.093-5.167 5.155-4.989 6.238.21 1.272 4.177 4.352 4.226 7.95M135.205 146.165c5.125.061 6.564 4.684 6.5 6.604-.033 1.007-6.037 2.966-6.92 8.285"/>
            <g fill="#ecfbff" transform="matrix(.4808 0 0 .4872 68.928 96.373)">
                <path fill-rule="evenodd" stroke-width="3.608" d="M115.462 148.482l24.584-1.246c-1.17-8.243-.285-15.855-5.083-24.936-3.602-6.819 7.163-7.261 4.725-21.506-.339-1.98-18.295-1.398-19.142.232-7.482 14.4 8.92 15.195 1.735 21.363-5.024 4.314-8.075 15.927-6.819 26.093z"/>
                <ellipse cx="131.009" cy="83.903" stroke-linecap="round" stroke-linejoin="round" stroke-width="3.608" rx="7.206" ry="8.121" transform="rotate(1.158)"/>
                <path fill-rule="evenodd" stroke-width="3.608" d="M134.945 113.701c-23-17.732-41.612-30.086-46.25-54.488-25.442 6.497-40.937 20.01-50.364 37.8l26.686-3.398 13.85 12.448 26.921-2.551z"/>
                <path fill-rule="evenodd" stroke-width="3.608" d="M128.202 109.717c23.698-16.789 42.794-28.38 48.415-52.575 25.158 7.52 40.094 21.647 48.794 39.804l-26.526-4.473-14.341 11.877-26.797-3.636z"/>
                <path fill-rule="evenodd" d="M121.517 101.019c1.303-4.837-.66-8.596-.723-13.638l16.934-.937c-.193 4.982-.78 11.265-.184 14.558zM124.112 83.587c-8.513-7.05-8.095-13.589-8.571-20.179 1.964 6.216 2.308 12.684 11.518 17.768zM133.989 83.319c6.995-7.05 6.652-13.589 7.043-20.179-1.613 6.216-1.897 12.685-9.464 17.768z"/>
            </g>
        </g>
    </g>
</svg>
