<?xml version="1.0" encoding="UTF-8" standalone="no"?>
<svg
   xmlns:dc="http://purl.org/dc/elements/1.1/"
   xmlns:cc="http://creativecommons.org/ns#"
   xmlns:rdf="http://www.w3.org/1999/02/22-rdf-syntax-ns#"
   xmlns:svg="http://www.w3.org/2000/svg"
   xmlns="http://www.w3.org/2000/svg"
   xmlns:sodipodi="http://sodipodi.sourceforge.net/DTD/sodipodi-0.dtd"
   xmlns:inkscape="http://www.inkscape.org/namespaces/inkscape"
   cursor="default"
   viewBox="0 0 256 256"
   version="1.1"
   id="svg30"
   sodipodi:docname="ape_peanut_butter.svg"
   inkscape:version="1.0.1 (3bc2e813f5, 2020-09-07)">
  <metadata
     id="metadata36">
    <rdf:RDF>
      <cc:Work
         rdf:about="">
        <dc:format>image/svg+xml</dc:format>
        <dc:type
           rdf:resource="http://purl.org/dc/dcmitype/StillImage" />
        <dc:title />
      </cc:Work>
    </rdf:RDF>
  </metadata>
  <defs
     id="defs34" />
  <sodipodi:namedview
     pagecolor="#ffffff"
     bordercolor="#666666"
     borderopacity="1"
     objecttolerance="10"
     gridtolerance="10"
     guidetolerance="10"
     inkscape:pageopacity="0"
     inkscape:pageshadow="2"
     inkscape:window-width="1369"
     inkscape:window-height="1018"
     id="namedview32"
     showgrid="false"
     inkscape:zoom="2.8710938"
     inkscape:cx="128"
     inkscape:cy="128"
     inkscape:window-x="1131"
     inkscape:window-y="0"
     inkscape:window-maximized="0"
     inkscape:current-layer="svg30"
     inkscape:document-rotation="0" />
  <g
     id="g936"
     transform="matrix(0.94670403,0,0,0.94670403,37.639983,-2.1586617)">
    <path
       style="fill:#cdd3c9;stroke-width:0.264583"
       d="m 106.64872,248.51325 c -10.539319,-1.27142 -16.192821,-2.42579 -29.046748,-5.93092 -4.129019,-1.12595 -7.784359,-1.96317 -9.260417,-2.12102 -5.411197,-0.57868 -12.193923,-1.73974 -13.856975,-2.37203 -0.396073,-0.15059 -0.87276,-0.4917 -1.059304,-0.75803 -0.298345,-0.42595 -0.905444,-0.50557 -5.043279,-0.66142 -19.768722,-0.74458 -36.256275,-4.15049 -48.095773,-9.93536 -8.7967262,-4.29814 -13.668341,-9.22017 -14.687277,-14.83927 -0.393938,-2.17243 -0.0956,-3.53755 1.939723,-8.87562 3.7928062,-9.94746 5.860058,-18.20379 7.1145658,-28.41463 0.2193822,-1.78562 0.3411734,-6.08646 0.3409067,-12.03854 -4.763e-4,-10.88738 -0.2377636,-13.22103 -2.3581064,-23.19234 -0.5339776,-2.51112 -2.4280879,-8.73779 -3.7299651,-12.26182 -3.181598,-8.61223 -3.366042,-9.47913 -3.349461,-15.74271 0.03009,-11.36616 2.911271,-21.935514 8.4279177,-30.917073 1.2905676,-2.101149 5.0016198,-7.177331 5.48261906,-7.499427 0.16320082,-0.109283 0.0628759,-0.257159 -0.24667104,-0.363582 C -3.26119,71.736256 -6.1737085,69.984683 -6.8649494,68.929715 -7.2027493,68.414169 -7.2174982,67.923991 -6.9650368,65.603326 -6.463631,60.994321 -7.2828678,55.618358 -9.2051432,50.903385 -9.6952926,49.701143 -10.456853,48.25881 -10.8975,47.698201 c -1.089,-1.385469 -1.234423,-2.019842 -0.714292,-3.115937 1.9729967,-4.157781 16.0227762,-7.810185 36.636558,-9.524099 15.824845,-1.315743 37.408106,-1.318924 53.048958,-0.0078 19.054146,1.597227 32.212516,4.737655 36.334466,8.671724 0.78208,0.746431 0.86267,0.95241 0.72228,1.846073 -0.0869,0.553244 -0.44379,1.446213 -0.79307,1.984375 -1.86975,2.880814 -3.53605,10.10293 -3.76639,16.32431 -0.10433,2.817847 -0.28033,4.477541 -0.52638,4.963692 -0.2033,0.401699 -1.05055,1.171279 -1.88277,1.71018 -0.83223,0.538903 -1.56142,1.012584 -1.62043,1.052626 -0.059,0.04004 0.60325,0.877808 1.47168,1.861695 4.60806,5.220685 8.72596,12.505034 10.78246,19.073617 1.5204,4.856239 2.05622,8.269313 2.19992,14.013043 0.21588,8.62942 -0.3523,12.52553 -2.709,18.57619 -1.37573,3.53208 -2.38452,6.61831 -3.67557,11.24479 -0.9894,3.54555 -2.3236,10.50693 -2.06356,10.76697 0.12456,0.12456 1.40817,0.24738 2.85246,0.27293 2.35636,0.0417 2.88407,-0.0434 5.13953,-0.82852 6.4429,-2.24277 15.4889,-6.20857 18.23772,-7.99549 1.06932,-0.69513 1.80406,-1.53779 3.31629,-3.80339 2.26242,-3.3895 4.81787,-5.96802 6.80792,-6.86934 1.65003,-0.74732 3.25854,-1.05397 8.28286,-1.57904 8.06404,-0.84273 9.84806,-1.60399 17.55208,-7.48968 7.65201,-5.84596 11.20507,-7.06007 16.19889,-5.53527 1.2278,0.37489 3.0128,1.15272 3.96667,1.72851 0.95386,0.57579 2.44214,1.25242 3.30729,1.50362 10.02534,2.91088 19.989,13.40914 22.24788,23.44158 0.36205,1.60801 0.43793,3.56424 0.43969,11.33608 0.004,16.9616 -1.55757,30.00116 -4.22349,35.27084 -0.59657,1.17922 -5.02413,6.87468 -7.23858,9.31145 -8.72932,9.60569 -19.02378,19.97604 -19.82986,19.97604 -0.30765,0 -1.00201,-0.22582 -1.54302,-0.50182 -1.69632,-0.8654 -3.40173,-0.82193 -4.51531,0.11509 -0.43898,0.36938 -1.35479,1.69278 -2.03514,2.94088 -0.68033,1.2481 -1.67116,2.70205 -2.20182,3.231 -0.81243,0.80981 -3.75777,2.73059 -10.6159,6.92307 -3.39907,2.07791 -9.17778,5.2679 -11.80566,6.51703 -3.28894,1.56334 -4.80257,1.78354 -6.97976,1.01538 -1.42956,-0.50438 -3.71657,-0.50934 -4.91008,-0.0107 -1.16528,0.48688 -3.18311,2.56127 -4.21805,4.33628 -0.69702,1.19547 -1.07674,1.50851 -3.1161,2.56896 -7.3342,3.81374 -15.79039,5.70414 -25.19431,5.63227 -2.7649,-0.0211 -5.38427,-0.0815 -5.82084,-0.13418 z M 50.424766,231.90889 c 0,-0.40069 -0.359606,-0.92019 -0.553861,-0.80013 -0.128606,0.0795 -0.162922,-0.0403 -0.07626,-0.2661 0.09327,-0.24307 0.01106,-0.41976 -0.201467,-0.43302 -0.197472,-0.0123 -1.490131,-0.0737 -2.872579,-0.13638 -4.217485,-0.19123 -15.489267,-1.42544 -17.065625,-1.8686 -0.35578,-0.10002 -0.442473,-0.061 -0.264583,0.11911 0.14552,0.14733 1.990989,0.58169 4.101041,0.96523 2.110052,0.38355 4.729427,0.86386 5.820834,1.06737 1.091406,0.2035 2.936875,0.50354 4.101041,0.66674 1.164167,0.1632 2.771511,0.39524 3.571875,0.51565 1.644674,0.24742 3.439584,0.3362 3.439584,0.17013 z m -2.711979,-1.12291 c 0.181901,-0.0734 0.479557,-0.0734 0.661458,0 0.181901,0.0734 0.03307,0.13345 -0.330729,0.13345 -0.363802,0 -0.512631,-0.0601 -0.330729,-0.13345 z m -19.182292,-2.64584 c -0.181901,-0.0734 -0.479557,-0.0734 -0.661458,0 -0.181902,0.0734 -0.03307,0.13346 0.330729,0.13346 0.363802,0 0.51263,-0.0601 0.330729,-0.13346 z M -0.78370867,175.10447 c 1.07102487,-7.18879 1.20700615,-19.41608 0.28950312,-26.03181 -1.03265075,-7.44601 -2.11242985,-13.60643 -2.33031055,-13.29504 -0.1462604,0.20904 -0.1707322,0.11501 -0.066603,-0.2559 0.1968143,-0.70107 -0.9358807,-8.15641 -1.1793556,-7.76246 -0.093009,0.15049 -0.1721429,-0.35024 -0.1758534,-1.11274 -0.00371,-0.7625 -0.3279156,-3.64358 -0.7204559,-6.4024 -0.3925406,-2.75882 -0.7897583,-6.08741 -0.8827061,-7.39687 -0.092948,-1.30946 -0.2387177,-2.18191 -0.3239328,-1.93879 -0.085215,0.24312 -0.1212009,-1.48844 -0.079969,-3.84792 0.1197948,-6.85518 1.2567801,-12.568633 3.5653115,-17.916002 0.6662361,-1.543238 2.58540748,-5.401985 3.33818305,-6.71186 0.89475625,-1.55693 0.48624755,-1.436357 -0.51959643,0.153363 -0.48688783,0.769517 -0.95485214,1.458653 -1.03992044,1.531413 -0.31097588,0.265983 -1.84706998,2.679092 -1.84706998,2.901633 0,0.126098 -0.099512,0.268957 -0.221138,0.317465 -0.2693876,0.107437 -2.6550969,4.117557 -4.0663347,6.835069 -1.4015386,2.698835 -2.4873024,5.230908 -3.4603651,8.069789 -0.766187,2.23533 -0.820698,2.65291 -0.889569,6.81436 -0.06352,3.83787 0.015,4.88589 0.584734,7.80521 0.8299341,4.25257 1.767941,7.9264 2.8875754,11.3096 0.4815866,1.45521 0.9629169,3.05864 1.0696228,3.56319 0.1067059,0.50455 0.2891465,1.09986 0.4054232,1.32292 0.3382555,0.64888 1.837968,5.66885 1.837968,6.15221 0,0.2419 0.098715,0.50083 0.2193677,0.5754 0.1206521,0.0746 0.3765293,0.82574 0.568616,1.66926 0.1920867,0.84353 0.5229619,2.18853 0.7352781,2.98889 0.2123163,0.80037 0.4802725,2.06793 0.5954583,2.8168 0.1151856,0.74887 0.2726058,1.58231 0.3498223,1.85208 0.8006911,2.7974 1.46969244,24.46343 0.8566859,27.7443 -0.1085821,0.58114 -0.1238493,0.98374 -0.033927,0.89467 0.089922,-0.0891 0.33002304,-1.2797 0.53355763,-2.64583 z m 0.16477906,-5.15177 c 0.0126947,-0.30823 0.0753906,-0.37092 0.15985252,-0.15986 0.0764305,0.191 0.0670306,0.41921 -0.0208888,0.50712 -0.0879189,0.0879 -0.15045293,-0.0684 -0.13896372,-0.34726 z m 0.28547166,-3.54983 c 0,-0.3638 0.0600533,-0.51263 0.13345213,-0.33073 0.0733986,0.1819 0.0733986,0.47956 0,0.66146 -0.0733989,0.1819 -0.13345213,0.0331 -0.13345213,-0.33073 z m -0.26458333,-13.49375 c 0,-0.3638 0.0600533,-0.51263 0.13345213,-0.33073 0.0733986,0.1819 0.0733986,0.47956 0,0.66146 -0.0733989,0.1819 -0.13345213,0.0331 -0.13345213,-0.33073 z m -0.49888012,-4.7625 c 0,-0.65484 0.051598,-0.92273 0.11466226,-0.59531 0.0630642,0.32742 0.0630642,0.8632 0,1.19062 -0.0630643,0.32743 -0.11466226,0.0595 -0.11466226,-0.59531 z m -1.229615,-2.8569 c -0.071747,-0.11609 -0.021066,-0.38398 0.1126252,-0.59532 0.1897819,-0.29999 0.2439622,-0.25372 0.2471253,0.21108 0.00416,0.61198 -0.1302597,0.75556 -0.3597505,0.38424 z m 0.6701618,-1.11185 c 0,-0.3638 0.060053,-0.51263 0.1334521,-0.33073 0.073399,0.1819 0.073399,0.47956 0,0.66146 -0.073399,0.1819 -0.1334521,0.0331 -0.1334521,-0.33073 z m -2.0344553,-12.03854 c -0.068193,-0.21828 -0.1821554,-0.58165 -0.2532489,-0.80749 -0.071093,-0.22584 -0.025778,-0.34666 0.1006999,-0.2685 0.1264785,0.0782 0.2871978,0.44154 0.3571542,0.8075 0.1382416,0.72316 -0.00418,0.91005 -0.2046052,0.26849 z m -1.6697114,-11.24479 c 0,-0.3638 0.060053,-0.51263 0.1334521,-0.33073 0.073399,0.1819 0.073399,0.47956 0,0.66146 -0.073399,0.1819 -0.1334521,0.0331 -0.1334521,-0.33073 z m -1.0792216,-8.09184 c 0.012695,-0.30823 0.075391,-0.37092 0.1598525,-0.15986 0.07643,0.191 0.067031,0.41921 -0.020889,0.50712 -0.087919,0.0879 -0.1504529,-0.0683 -0.1389635,-0.34726 z M 108.20843,147.57249 c -0.13038,-0.21096 -0.0444,-0.25317 0.27,-0.13253 0.68538,0.26301 1.62534,-0.0535 1.67756,-0.56494 0.10113,-0.99029 1.42974,-7.64317 2.57292,-12.88361 2.6432,-12.11663 2.54729,-11.62852 3.43083,-17.4625 0.97218,-6.41927 0.77366,-12.40411 -0.54615,-16.46504 -0.6945,-2.136925 -2.69861,-6.415322 -3.68813,-7.873454 -0.35559,-0.523992 -0.64653,-1.004324 -0.64653,-1.067404 0,-0.19795 -3.13677,-4.718973 -3.8336,-5.525357 -0.36537,-0.422817 -0.66431,-0.842767 -0.66431,-0.933222 0,-0.09046 -0.32743,-0.536038 -0.72761,-0.990182 -0.40018,-0.454144 -1.14432,-1.335757 -1.65364,-1.959139 -2.02499,-2.478466 -2.19703,-2.573129 -1.16376,-0.640366 0.54457,1.018646 1.17802,2.15025 1.40767,2.514677 1.07106,1.699657 1.15752,1.86958 2.72026,5.346099 0.30809,0.685406 0.67856,1.173025 0.82326,1.083599 0.15253,-0.09427 0.1796,-0.02753 0.0644,0.158839 -0.26354,0.426419 0.3659,1.917857 0.71765,1.700459 0.15111,-0.09339 0.20434,-0.05587 0.11827,0.08338 -0.0861,0.139256 0.12097,1.047213 0.46008,2.017681 0.33911,0.970468 0.76013,2.362938 0.9356,3.094374 0.19368,0.807347 0.42875,1.262081 0.59825,1.157319 0.1667,-0.103026 0.20073,-0.04556 0.0844,0.142608 -0.22777,0.368551 0.0767,2.465879 0.33492,2.307009 0.0962,-0.0592 0.18479,0.4463 0.19676,1.12336 0.012,0.67706 0.11493,2.15015 0.22878,3.27353 0.1261,1.24435 0.0672,4.13938 -0.15071,7.40834 -0.19674,2.95119 -0.35922,6.09887 -0.36107,6.99483 -0.002,0.89595 -0.0673,1.52521 -0.14552,1.39835 -0.0782,-0.12686 -0.35343,1.66963 -0.61166,3.9922 -0.25822,2.32258 -0.39558,4.34246 -0.30524,4.48862 0.0903,0.14617 0.0644,0.26577 -0.0577,0.26577 -0.31105,0 -1.22412,7.21626 -1.0092,7.97601 0.11242,0.39741 0.0908,0.50053 -0.0597,0.28483 -0.14946,-0.21418 -0.44819,1.38607 -0.81497,4.36562 -0.66025,5.36362 -0.67401,5.62979 -0.29104,5.62979 0.15411,0 0.19411,-0.1393 0.0889,-0.30955 z m 0.54608,-0.50181 c -0.0959,-0.1552 -0.11765,-0.33893 -0.0483,-0.40828 0.0694,-0.0694 0.1966,0.0576 0.28277,0.28218 0.17891,0.46623 0.0264,0.54824 -0.23447,0.1261 z m -0.6088,-0.77614 c 0,-0.3638 0.0601,-0.51263 0.13345,-0.33073 0.0734,0.1819 0.0734,0.47956 0,0.66146 -0.0734,0.1819 -0.13345,0.0331 -0.13345,-0.33073 z m 0.50828,-4.12309 c 0.0127,-0.30823 0.0754,-0.37092 0.15985,-0.15986 0.0764,0.191 0.067,0.41921 -0.0209,0.50712 -0.0879,0.0879 -0.15045,-0.0684 -0.13896,-0.34726 z m 1.05833,-7.9375 c 0.0127,-0.30823 0.0754,-0.37092 0.15985,-0.15986 0.0764,0.191 0.067,0.41921 -0.0209,0.50712 -0.0879,0.0879 -0.15046,-0.0684 -0.13897,-0.34726 z m 0.55986,-3.41754 c 0.005,-0.43656 0.0647,-0.58312 0.13177,-0.32569 0.0671,0.25743 0.0627,0.61462 -0.01,0.79375 -0.0725,0.17913 -0.12737,-0.0315 -0.12197,-0.46806 z m 0.76306,-6.63663 c 0.0127,-0.30822 0.0754,-0.37092 0.15985,-0.15985 0.0764,0.19099 0.067,0.4192 -0.0209,0.50712 -0.0879,0.0879 -0.15045,-0.0684 -0.13896,-0.34727 z M 107.0456,87.572653 c 0,-0.136932 0.1177,-0.321712 0.26155,-0.410617 0.14998,-0.09269 0.19434,0.01352 0.10399,0.248968 -0.1759,0.458369 -0.36554,0.542234 -0.36554,0.161649 z M 1.842386,80.531837 c 0.090354,-0.235458 0.045997,-0.341662 -0.1039842,-0.248968 -0.143854,0.08891 -0.2615528,0.273685 -0.2615528,0.410618 0,0.380584 0.1896443,0.296719 0.365537,-0.16165 z m 99.982444,-1.970633 c -0.2492,-0.291041 -0.49034,-0.529166 -0.53588,-0.529166 -0.0455,0 0.0446,0.238125 0.2004,0.529166 0.15576,0.291042 0.39691,0.529167 0.53589,0.529167 0.13897,0 0.0488,-0.238125 -0.20041,-0.529167 z"
       id="path950" />
    <path
       style="fill:#c87137;stroke-width:0.264583"
       d="m 108.50081,248.51158 c -9.466482,-0.78492 -19.08774,-2.7401 -34.17325,-6.9445 -2.060392,-0.57424 -4.620236,-1.12267 -5.688542,-1.21873 -5.294982,-0.4761 -13.647639,-1.98967 -14.701932,-2.6641 -0.345263,-0.22087 -1.47311,-2.18121 -2.727328,-4.74045 -1.504016,-3.06896 -2.271445,-4.36481 -2.586278,-4.36709 -0.800701,-0.006 -9.382623,-0.78912 -11.692464,-1.06722 -18.488853,-2.22602 -33.4686956,-7.59449 -40.9904534,-14.69014 -0.9861034,-0.93024 -2.0699164,-2.2135 -2.4084732,-2.85168 l -0.6155579,-1.16034 0.9853935,-4.51734 c 1.3461354,-6.17109 2.9139031,-14.27154 3.5945456,-18.57254 0.3108917,-1.96453 0.7451733,-4.46484 0.9650706,-5.55625 1.23242888,-6.11686 1.94997227,-13.16196 1.95371559,-19.18229 0.004085,-6.56998 -0.68139812,-12.49464 -3.16837169,-27.38437 -2.1990108,-13.16568 -3.1224381,-20.42916 -3.2175976,-25.30895 -0.042023,-2.15496 0.032402,-2.58527 0.6739228,-3.8965 0.9341988,-1.90943 3.0120791,-3.75699 4.7892637,-4.25841 2.3235462,-0.655565 4.5177414,-0.697409 16.271875,-0.310319 6.330156,0.208469 12.164219,0.286729 12.964583,0.173914 0.800365,-0.112813 2.645834,-0.709187 4.101042,-1.325269 1.455208,-0.616085 3.41974,-1.449202 4.365625,-1.851372 6.477095,-2.753915 14.550583,-4.534723 18.621864,-4.10751 5.48159,0.575196 8.918308,1.530966 16.700011,4.64436 5.866937,2.347315 6.957131,2.567641 10.637107,2.149764 3.002701,-0.340969 4.180113,-0.519671 8.280601,-1.256774 1.696916,-0.305038 3.974873,-0.45561 7.011459,-0.463454 4.107579,-0.01061 4.635679,0.04225 6.085419,0.609187 0.87312,0.341445 2.2583,1.074142 3.07818,1.628223 1.55076,1.04802 3.81385,3.76868 4.10725,4.9377 0.27725,1.10465 -0.11997,9.87735 -0.6916,15.27395 -0.29286,2.7649 -1.06869,9.07521 -1.72407,14.02292 -0.65537,4.9477 -1.32933,10.04021 -1.49768,11.31667 -0.16835,1.27646 -0.2421,2.38484 -0.16388,2.46306 0.0782,0.0782 0.82074,-0.055 1.65006,-0.29613 1.23435,-0.35884 2.13931,-0.40561 4.98937,-0.25789 l 3.48153,0.18046 2.64584,-0.91328 c 7.1524,-2.46887 17.35311,-7.0256 19.19274,-8.57354 0.45573,-0.38347 1.6723,-1.95798 2.70349,-3.49891 1.03119,-1.54093 2.59302,-3.49657 3.47074,-4.34586 2.52506,-2.44328 4.11298,-3.06122 9.29344,-3.61656 9.98848,-1.07075 11.55258,-1.63003 17.88193,-6.39411 6.85314,-5.15832 9.12103,-6.4994 12.33055,-7.29142 1.47489,-0.36397 2.02841,-0.38225 3.56984,-0.11793 2.03905,0.34966 4.33565,1.24293 6.29466,2.44831 0.71838,0.44203 2.22639,1.10425 3.35112,1.4716 9.22917,3.01433 18.06259,11.71592 21.172,20.85599 0.90713,2.66653 1.1443,5.46036 1.14625,13.50287 0.004,16.53613 -1.68732,30.41223 -4.32969,35.52201 -1.54142,2.98078 -9.47889,11.98411 -19.35426,21.95318 -7.56168,7.63344 -7.22638,7.4084 -9.52397,6.39207 -1.46321,-0.64725 -3.00007,-0.56369 -4.05,0.2202 -0.36386,0.27166 -1.30819,1.61983 -2.09851,2.99594 -0.79033,1.37611 -1.75309,2.83966 -2.13948,3.25233 -0.38638,0.41268 -2.66705,1.97424 -5.06814,3.47015 -10.28555,6.40802 -19.08203,11.17036 -21.14339,11.44684 -0.71205,0.0955 -1.79096,-0.0633 -3.20476,-0.47188 -1.88525,-0.54475 -2.29704,-0.58109 -3.56654,-0.31482 -0.78936,0.16558 -1.8595,0.58936 -2.37809,0.94175 -0.96022,0.65249 -3.05898,3.16856 -3.7391,4.48257 -0.65607,1.26756 -7.78235,4.40802 -13.06077,5.75572 -5.80734,1.48275 -13.09385,2.13741 -18.65631,1.67619 z M 36.666432,78.012461 C 16.487138,77.003758 1.0081021,74.199268 -4.9448414,70.473331 -6.870245,69.268225 -7.2670547,68.547998 -6.9756908,66.787246 -6.6208774,64.64306 -6.6948329,60.286637 -7.1289409,57.759925 -7.8303627,53.677319 -9.5514444,49.034864 -10.957048,47.43397 -13.930193,44.047745 -8.2306569,40.534338 4.3872657,37.97516 15.747088,35.671152 29.063466,34.48145 46.588307,34.204866 c 32.913228,-0.51945 61.042773,3.452217 67.711233,9.560283 0.88335,0.809122 0.97417,1.007709 0.81403,1.779956 -0.0991,0.478073 -0.46674,1.292369 -0.81687,1.809546 -2.01921,2.982578 -4.07506,12.746228 -4.07588,19.357242 -2e-4,1.595437 -0.081,1.868683 -0.79143,2.677874 -3.66218,4.170987 -19.926063,7.406849 -43.394208,8.633711 -5.833387,0.304956 -23.177807,0.29845 -29.36875,-0.01101 z"
       id="path948" />
    <path
       style="fill:#de8787;stroke-width:0.264583"
       d="m 108.50081,248.51158 c -9.466482,-0.78492 -19.08774,-2.7401 -34.17325,-6.9445 -2.060392,-0.57424 -4.620236,-1.12267 -5.688542,-1.21873 -5.294982,-0.4761 -13.647639,-1.98967 -14.701932,-2.6641 -0.345263,-0.22087 -1.47311,-2.18121 -2.727328,-4.74045 -1.504016,-3.06896 -2.271445,-4.36481 -2.586278,-4.36709 -0.800701,-0.006 -9.382623,-0.78912 -11.692464,-1.06722 -18.488853,-2.22602 -33.4686956,-7.59449 -40.9904534,-14.69014 -0.9861034,-0.93024 -2.0699164,-2.2135 -2.4084732,-2.85168 l -0.6155579,-1.16034 0.9853935,-4.51734 c 1.3461354,-6.17109 2.9139031,-14.27154 3.5945456,-18.57254 0.3108917,-1.96453 0.7451733,-4.46484 0.9650706,-5.55625 1.23242888,-6.11686 1.94997227,-13.16196 1.95371559,-19.18229 0.004085,-6.56998 -0.68139812,-12.49464 -3.16837169,-27.38437 -2.1990108,-13.16568 -3.1224381,-20.42916 -3.2175976,-25.30895 -0.042023,-2.15496 0.032402,-2.58527 0.6739228,-3.8965 0.9341988,-1.90943 3.0120791,-3.75699 4.7892637,-4.25841 2.3235462,-0.655565 4.5177414,-0.697409 16.271875,-0.310319 6.330156,0.208469 12.164219,0.286729 12.964583,0.173914 0.800365,-0.112813 2.645834,-0.709187 4.101042,-1.325269 1.455208,-0.616085 3.41974,-1.449202 4.365625,-1.851372 6.477095,-2.753915 14.550583,-4.534723 18.621864,-4.10751 5.48159,0.575196 8.918308,1.530966 16.700011,4.64436 5.866937,2.347315 6.957131,2.567641 10.637107,2.149764 3.002701,-0.340969 4.180113,-0.519671 8.280601,-1.256774 1.696916,-0.305038 3.974873,-0.45561 7.011459,-0.463454 4.107579,-0.01061 4.635679,0.04225 6.085419,0.609187 0.87312,0.341445 2.2583,1.074142 3.07818,1.628223 1.55076,1.04802 3.81385,3.76868 4.10725,4.9377 0.27725,1.10465 -0.11997,9.87735 -0.6916,15.27395 -0.29286,2.7649 -1.06869,9.07521 -1.72407,14.02292 -0.65537,4.9477 -1.32933,10.04021 -1.49768,11.31667 -0.16835,1.27646 -0.2421,2.38484 -0.16388,2.46306 0.0782,0.0782 0.82074,-0.055 1.65006,-0.29613 1.23435,-0.35884 2.13931,-0.40561 4.98937,-0.25789 l 3.48153,0.18046 2.64584,-0.91328 c 7.1524,-2.46887 17.35311,-7.0256 19.19274,-8.57354 0.45573,-0.38347 1.6723,-1.95798 2.70349,-3.49891 1.03119,-1.54093 2.59302,-3.49657 3.47074,-4.34586 2.52506,-2.44328 4.11298,-3.06122 9.29344,-3.61656 9.98848,-1.07075 11.55258,-1.63003 17.88193,-6.39411 6.85314,-5.15832 9.12103,-6.4994 12.33055,-7.29142 1.47489,-0.36397 2.02841,-0.38225 3.56984,-0.11793 2.03905,0.34966 4.33565,1.24293 6.29466,2.44831 0.71838,0.44203 2.22639,1.10425 3.35112,1.4716 9.22917,3.01433 18.06259,11.71592 21.172,20.85599 0.90713,2.66653 1.1443,5.46036 1.14625,13.50287 0.004,16.53613 -1.68732,30.41223 -4.32969,35.52201 -1.54142,2.98078 -9.47889,11.98411 -19.35426,21.95318 -7.56168,7.63344 -7.22638,7.4084 -9.52397,6.39207 -1.46321,-0.64725 -3.00007,-0.56369 -4.05,0.2202 -0.36386,0.27166 -1.30819,1.61983 -2.09851,2.99594 -0.79033,1.37611 -1.75309,2.83966 -2.13948,3.25233 -0.38638,0.41268 -2.66705,1.97424 -5.06814,3.47015 -10.28555,6.40802 -19.08203,11.17036 -21.14339,11.44684 -0.71205,0.0955 -1.79096,-0.0633 -3.20476,-0.47188 -1.88525,-0.54475 -2.29704,-0.58109 -3.56654,-0.31482 -0.78936,0.16558 -1.8595,0.58936 -2.37809,0.94175 -0.96022,0.65249 -3.05898,3.16856 -3.7391,4.48257 -0.65607,1.26756 -7.78235,4.40802 -13.06077,5.75572 -5.80734,1.48275 -13.09385,2.13741 -18.65631,1.67619 z m 7.01146,-3.52163 c 3.22181,-0.29873 6.3357,-0.77373 7.01145,-1.06955 0.29105,-0.12741 1.24355,-0.36981 2.11667,-0.53868 0.87313,-0.16887 1.70656,-0.39944 1.85208,-0.51239 0.14552,-0.11295 0.68131,-0.29238 1.19063,-0.39875 0.50932,-0.10637 1.0451,-0.28414 1.19062,-0.39504 0.14552,-0.11091 0.56224,-0.28905 0.92605,-0.39586 2.96274,-0.86987 7.3867,-3.43432 8.17239,-4.73733 0.29017,-0.48122 0.57092,-1.62495 0.67746,-2.75989 0.37821,-4.02885 1.3216,-7.31587 3.33254,-11.6114 1.7058,-3.64372 1.80244,-4.14925 0.90557,-4.7369 -0.62849,-0.4118 -0.87847,-0.42592 -2.30935,-0.13037 -0.88252,0.18228 -2.746,0.751 -4.14107,1.26383 -10.55676,3.88063 -30.89595,7.02461 -45.531294,7.03812 -6.872118,0.006 -10.097278,-0.24972 -16.139584,-1.28139 -10.075788,-1.72034 -17.426104,-3.90508 -23.743322,-7.05724 -1.19888,-0.59821 -2.242367,-1.02508 -2.318861,-0.94858 -0.121415,0.12141 1.846046,5.26674 2.489084,6.50949 0.130098,0.25143 1.040733,2.12402 2.023636,4.16131 1.933588,4.00781 3.664088,6.66852 4.976739,7.65195 1.598599,1.19765 5.810953,2.0078 10.405697,2.00129 1.572855,-0.002 3.013003,-0.1013 3.200329,-0.22015 0.249597,-0.15836 -0.04818,-0.6518 -1.114595,-1.84695 -1.27536,-1.42933 -2.186024,-2.69135 -1.942049,-2.69135 0.04438,0 0.733179,0.35387 1.530662,0.78636 3.407542,1.84802 7.380295,3.87292 9.25518,4.71734 3.182856,1.43352 3.988872,1.77187 5.953125,2.49902 5.354024,1.982 13.087443,4.15424 14.897023,4.18443 0.53789,0.009 1.75188,0.1759 2.69777,0.37095 1.99251,0.41088 8.73366,0.49096 12.43542,0.14773 z m 40.86197,-14.05646 c 2.7535,-0.76448 9.68576,-6.77078 14.01513,-12.14312 4.10851,-5.09826 4.4856,-5.54841 4.57392,-5.46009 0.10346,0.10347 -3.04694,6.35555 -4.04972,8.0368 l -0.66892,1.1215 0.87808,-0.16062 c 1.0162,-0.18589 4.58999,-2.01817 5.39305,-2.76502 0.30042,-0.27939 0.6396,-0.50799 0.75374,-0.50799 0.34788,0 1.79821,-1.67024 2.18259,-2.51354 0.19899,-0.43656 0.4673,-0.97234 0.59624,-1.19062 0.21251,-0.35975 0.98256,-2.32968 1.86167,-4.7625 1.7006,-4.70616 3.26892,-12.05106 2.98552,-13.98202 -0.15876,-1.08169 -0.58576,-1.26402 -1.98113,-0.84595 -1.28132,0.38389 -5.22872,2.27759 -7.47402,3.58554 -0.87312,0.50862 -2.14384,1.21951 -2.82381,1.57977 -1.21854,0.64559 -2.98201,1.74989 -3.55505,2.2262 -0.16139,0.13415 -0.7567,0.49393 -1.32291,0.79952 -0.56622,0.30559 -2.08048,1.20444 -3.36503,1.99744 -1.28455,0.793 -2.57243,1.517 -2.86196,1.60889 -0.80237,0.25467 -3.32783,2.89916 -4.50451,4.71683 -1.50371,2.32284 -2.62772,4.83257 -3.92544,8.76482 -1.02545,3.10725 -1.13774,3.70362 -1.16217,6.17228 -0.0265,2.68032 -0.0128,2.74498 0.71532,3.37344 0.82703,0.71382 2.02224,0.82519 3.73941,0.34844 z m -57.266141,-8.30518 c 15.152501,-1.38684 30.255541,-4.33887 41.183511,-8.04968 5.65798,-1.92129 6.49684,-2.54355 8.60952,-6.38651 0.44695,-0.81301 1.21955,-1.75702 1.71687,-2.09779 0.98118,-0.67231 2.0132,-0.75183 7.32859,-0.56466 l 2.61454,0.0921 2.67713,-1.33387 c 1.47242,-0.73363 3.74869,-1.97375 5.05838,-2.75581 1.30969,-0.78207 3.86953,-2.30553 5.68854,-3.38547 1.81901,-1.07994 5.2326,-3.24604 7.58575,-4.81355 4.7437,-3.15995 4.57587,-2.94567 5.10403,-6.51651 0.50296,-3.40038 0.87648,-3.73488 4.77272,-4.27408 1.09141,-0.15104 2.35169,-0.39417 2.80062,-0.54029 1.52337,-0.49584 7.07805,-6.71645 11.92116,-13.35033 1.72758,-2.36637 5.95282,-8.71232 6.60616,-9.92188 0.2751,-0.50932 0.5744,-0.98557 0.66511,-1.05833 0.37038,-0.2971 3.66398,-7.15115 4.32144,-8.99301 1.088,-3.04802 1.7694,-6.27064 1.81879,-8.60178 0.0387,-1.82782 -0.0573,-2.3333 -0.70333,-3.70417 -1.40121,-2.97314 -2.16161,-4.39155 -2.62526,-4.89703 -0.25466,-0.27764 -0.46302,-0.58577 -0.46302,-0.68474 0,-0.74486 -4.972,-6.17882 -7.83598,-8.56402 -2.10464,-1.75281 -7.37208,-4.5992 -9.1784,-4.95978 -0.81129,-0.16195 -0.77275,-0.0956 0.96584,1.66324 2.22863,2.25457 3.38856,3.68808 3.16507,3.91157 -0.0931,0.0931 -0.0304,0.1693 0.13937,0.1693 0.16978,0 0.30868,0.15584 0.30868,0.34631 0,0.19047 0.18743,0.57742 0.4165,0.8599 0.22907,0.28247 0.32974,0.34636 0.2237,0.14198 -0.13115,-0.25279 -0.0894,-0.30769 0.13071,-0.17168 0.17793,0.10996 0.25959,0.36649 0.18148,0.57005 -0.0781,0.20356 -0.0197,0.37011 0.12986,0.37011 0.14955,0 0.19831,0.11906 0.10838,0.26458 -0.0899,0.14553 -0.0374,0.26459 0.11667,0.26459 0.15411,0 0.2802,0.15342 0.2802,0.34093 0,0.18751 0.20965,0.75306 0.4659,1.25677 0.25624,0.50371 0.63248,1.42185 0.83609,2.04032 0.20362,0.61846 0.47022,1.12448 0.59244,1.12448 0.12223,0 0.22224,0.34264 0.22224,0.76144 0,0.41879 0.16578,1.16293 0.36839,1.65364 0.59653,1.44472 1.04651,5.59727 0.87299,8.05612 -0.23207,3.28852 -1.70878,7.63344 -4.5343,13.3413 -2.69786,5.44997 -3.66082,7.26572 -3.96185,7.47043 -0.15722,0.10691 -0.17811,0.19621 -0.0464,0.19843 0.13169,0.002 0.0458,0.218 -0.19083,0.4795 -0.23664,0.26149 -0.71343,1.00563 -1.05952,1.65364 -0.34609,0.64802 -1.33178,2.23728 -2.19043,3.5317 -0.85864,1.29443 -1.7254,2.65246 -1.92613,3.01787 -0.45925,0.83601 -4.47839,4.81509 -4.86356,4.81509 -0.15733,0 -0.4915,0.18592 -0.74258,0.41315 -1.23548,1.11809 -5.79435,3.08291 -9.22385,3.97536 -3.80036,0.98897 -4.62484,1.37044 -6.05682,2.80242 -0.67337,0.67337 -0.9528,1.05755 -1.50523,2.06949 -1.67211,3.06295 -3.34346,5.21825 -4.97621,6.4171 -0.94069,0.6907 -1.76838,1.25582 -1.83932,1.25582 -0.0709,0 -0.82801,0.42269 -1.68239,0.93931 -0.85437,0.51661 -3.75607,2.01559 -6.4482,3.33107 -2.69214,1.31547 -4.93448,2.50012 -4.98299,2.63256 -0.0485,0.13244 -0.21182,0.24081 -0.36292,0.24081 -0.50517,0 -3.89193,1.40998 -3.78855,1.57725 0.0561,0.0907 -0.11292,0.18117 -0.37557,0.20095 -0.26264,0.0198 -1.23666,0.39502 -2.16448,0.83384 -2.42894,1.1488 -5.4374,2.41504 -5.73788,2.41504 -0.14195,0 -0.33315,0.19564 -0.42491,0.43475 -0.0917,0.23911 -0.23296,0.3686 -0.3138,0.28776 -0.21801,-0.21801 -2.4864,0.60807 -2.4864,0.90548 0,0.14043 -0.0999,0.19359 -0.22197,0.11814 -0.12208,-0.0754 -1.22341,0.28366 -2.4474,0.79802 -1.22398,0.51437 -2.46355,1.02882 -2.75459,1.14323 -0.29104,0.11441 -0.97969,0.40312 -1.53033,0.64157 -0.55064,0.23846 -1.18274,0.43355 -1.40468,0.43355 -0.23252,0 -0.32523,0.12666 -0.21878,0.29891 0.11253,0.18206 0.0411,0.24932 -0.18282,0.17206 -0.20215,-0.0698 -1.49865,0.28368 -2.8811,0.78543 -5.33348,1.93574 -9.42399,3.09141 -12.56771,3.55069 -3.67872,0.53744 -13.979907,-0.41631 -19.252169,-1.78249 -0.870734,-0.22563 -1.753182,-0.34499 -1.961002,-0.26524 -0.209622,0.0804 -0.30588,0.0285 -0.216202,-0.11656 0.08891,-0.14385 -0.08217,-0.26155 -0.380182,-0.26155 -0.298006,0 -1.406361,-0.22355 -2.463009,-0.49677 -4.928685,-1.27443 -5.00081,-1.27483 -10.784724,-0.0599 -6.615176,1.38959 -11.422456,0.88374 -16.379153,-1.7235 -2.440088,-1.28349 -2.453661,-1.29182 -4.580498,-2.8131 -0.966377,-0.69122 -1.836756,-1.25677 -1.934176,-1.25677 -0.270653,0 -3.554431,-3.58496 -4.81834,-5.26027 -0.616847,-0.81763 -1.418979,-2.11168 -1.782511,-2.87567 -0.363535,-0.76398 -0.733621,-1.38906 -0.822415,-1.38906 -0.395568,0 -3.917426,3.66987 -4.369872,4.55352 -0.725268,1.4165 -0.664202,3.88649 0.144727,5.85387 2.556931,6.21867 10.429119,11.33787 22.371405,14.54786 3.684712,0.99043 8.873008,1.83619 14.022917,2.28591 3.697144,0.32287 14.672926,0.11301 20.108333,-0.38447 z m 94.060871,-14.64364 c 1.73583,-1.05858 7.20318,-7.09661 10.75119,-11.87338 2.45741,-3.30848 2.86236,-3.88791 3.3809,-4.83759 0.77606,-1.42132 3.72579,-7.41398 3.72579,-7.5693 0,-0.0756 0.28043,-0.75497 0.62318,-1.50963 0.34275,-0.75466 0.77133,-1.82657 0.95241,-2.38202 0.18108,-0.55545 0.36659,-0.97217 0.41225,-0.92604 0.11723,0.11843 -1.11161,6.21347 -1.44627,7.17347 -0.15234,0.43702 -0.27203,1.0447 -0.26597,1.3504 0.009,0.47483 0.14881,0.40159 0.95649,-0.5025 2.61865,-2.93122 3.79499,-5.06854 3.79499,-6.89521 0,-0.48155 0.10454,-1.15119 0.23232,-1.48809 0.12777,-0.33689 0.30158,-1.08878 0.38623,-1.67087 0.0847,-0.58208 0.39315,-2.60614 0.68554,-4.49791 1.12792,-7.29761 1.65401,-17.24112 0.9707,-18.34675 -0.1667,-0.26973 -0.3247,-0.22736 -0.71521,0.19181 -0.27568,0.29591 -0.50995,0.69182 -0.52058,0.87981 -0.0106,0.18799 -0.24287,0.69898 -0.51607,1.13554 -0.2732,0.43657 -1.03602,1.86532 -1.69514,3.175 -1.3047,2.59247 -2.31287,4.42218 -2.55125,4.63021 -0.0834,0.0728 -0.23459,0.31089 -0.33602,0.52917 -0.10143,0.21828 -0.47151,0.87312 -0.8224,1.45521 -0.3509,0.58208 -0.83827,1.40596 -1.08307,1.83083 -0.24479,0.42488 -0.81852,1.27044 -1.27496,1.87902 -4.73775,6.31702 -4.34392,5.85966 -10.14931,11.78656 -2.9139,2.9749 -4.46308,4.76608 -4.81998,5.57292 -0.37237,0.8418 -0.60845,2.2658 -0.80847,4.8765 -0.28698,3.74582 -0.83551,7.0874 -1.44872,8.82542 -0.57198,1.62117 -0.96651,5.33629 -0.67464,6.35285 0.40746,1.4192 0.97666,1.6348 2.25607,0.85457 z M 36.666432,78.012461 C 16.487138,77.003758 1.0081021,74.199268 -4.9448414,70.473331 -6.870245,69.268225 -7.2670547,68.547998 -6.9756908,66.787246 -6.6208774,64.64306 -6.6948329,60.286637 -7.1289409,57.759925 -7.8303627,53.677319 -9.5514444,49.034864 -10.957048,47.43397 -13.930193,44.047745 -8.2306569,40.534338 4.3872657,37.97516 15.747088,35.671152 29.063466,34.48145 46.588307,34.204866 c 32.913228,-0.51945 61.042773,3.452217 67.711233,9.560283 0.88335,0.809122 0.97417,1.007709 0.81403,1.779956 -0.0991,0.478073 -0.46674,1.292369 -0.81687,1.809546 -2.01921,2.982578 -4.07506,12.746228 -4.07588,19.357242 -2e-4,1.595437 -0.081,1.868683 -0.79143,2.677874 -3.66218,4.170987 -19.926063,7.406849 -43.394208,8.633711 -5.833387,0.304956 -23.177807,0.29845 -29.36875,-0.01101 z"
       id="path946" />
    <path
       style="fill:#d35f5f;stroke-width:0.264583"
       d="m 107.0456,248.25233 c -8.368351,-0.78341 -17.570761,-2.65305 -29.765626,-6.04745 -5.632918,-1.56791 -7.289366,-1.92844 -9.724326,-2.11656 -1.273797,-0.0984 -2.24988,-0.28591 -2.169073,-0.41666 0.08081,-0.13075 -0.0382,-0.16669 -0.264462,-0.0799 -0.526817,0.20215 -6.628974,-0.71152 -6.262925,-0.93775 0.150913,-0.0933 -0.345642,-0.1846 -1.103456,-0.20294 -1.55263,-0.0376 -3.526938,-0.67134 -3.431537,-1.1015 0.03464,-0.15617 -0.09894,-0.22181 -0.296836,-0.14587 -0.435626,0.16716 -2.123435,-2.67818 -1.850557,-3.11971 0.103674,-0.16775 0.06245,-0.2204 -0.09593,-0.12252 -0.352332,0.21776 -0.628189,-0.47287 -0.432215,-1.08208 0.109916,-0.34169 0.08342,-0.37168 -0.1011,-0.11443 -0.188367,0.2626 -0.335933,0.14124 -0.598223,-0.49199 -0.191497,-0.46231 -0.348176,-1.00613 -0.348176,-1.20848 0,-0.20235 -0.08998,-0.36791 -0.199966,-0.36791 -0.196051,0 -0.916665,-1.83578 -0.839301,-2.13814 0.02164,-0.0846 -0.638564,-0.17655 -1.467117,-0.20439 -12.009102,-0.40363 -26.536632,-3.07882 -36.418589,-6.70633 -8.5593656,-3.14201 -16.2516357,-8.15793 -18.1164336,-11.81324 l -0.546277,-1.07079 1.0408507,-4.71012 c 1.2923774,-5.84834 2.921577,-14.28473 4.0008559,-20.71741 0.4516887,-2.69213 1.03733649,-6.14494 1.3014396,-7.67291 0.73964112,-4.2792 1.06191897,-8.71038 1.06167687,-14.59762 -3.2808e-4,-7.98085 -0.27008481,-10.43645 -2.91606897,-26.54509 -2.4845087,-15.12558 -3.0214009,-19.15651 -3.3327337,-25.02177 -0.1728812,-3.25694 -0.1616446,-3.35573 0.5416714,-4.7625 0.789754,-1.57966 1.9542628,-2.95324 2.3148123,-2.73041 0.1268582,0.0784 0.1979356,-0.0151 0.1579499,-0.20784 -0.041176,-0.19845 0.5899827,-0.68167 1.4555039,-1.11433 1.40922374,-0.704463 1.81091733,-0.773212 5.159375,-0.883017 5.144417,-0.168701 12.4865597,0.321827 16.7280447,1.117607 1.964531,0.36858 4.941094,0.73767 6.614583,0.8202 3.372221,0.1663 2.535584,0.35496 11.90625,-2.684879 6.092881,-1.976525 8.529188,-2.525458 11.929864,-2.687963 4.505365,-0.215291 8.764427,0.657826 11.652491,2.388786 3.753001,2.249356 2.385415,4.256486 -4.431178,6.503356 -6.356289,2.09516 -13.655249,3.35129 -18.037617,3.10423 l -2.568768,-0.14482 1.852083,0.36962 c 1.018646,0.20328 3.728374,0.51979 6.021618,0.70334 5.960226,0.47707 8.836607,0.0654 16.864841,-2.41363 7.708508,-2.38032 10.184997,-2.78999 15.610416,-2.58236 4.08182,0.15621 5.839788,0.51725 7.107891,1.45976 0.817534,0.60763 0.879859,0.75325 0.763646,1.78428 -0.130715,1.15969 -0.677127,2.09117 -1.662872,2.83472 -0.77312,0.58316 -4.203901,1.26072 -6.395947,1.26316 -3.149283,0.003 -7.369099,0.89684 -10.062438,2.13021 -0.616879,0.28249 -1.189283,0.51362 -1.272016,0.51362 -0.08273,0 -1.542542,0.64099 -3.244027,1.42442 -8.736346,4.02252 -8.611275,3.98074 -11.273946,3.76616 -2.040888,-0.16448 -4.719516,-0.75987 -7.297791,-1.62212 -0.654843,-0.219 -2.976562,-0.95246 -5.159375,-1.62991 -4.771006,-1.4807 -6.671929,-1.58355 -13.096875,-0.7086 -4.463462,0.60783 -6.625357,0.53291 -8.667517,-0.30036 -1.773015,-0.72345 -1.810282,-2.14366 -0.07461,-2.84318 0.369784,-0.14903 2.398739,-0.34832 4.508791,-0.44286 l 3.836458,-0.1719 -3.296756,-1.65581 c -1.813216,-0.9107 -4.479919,-2.0234 -5.926007,-2.47267 -2.531296,-0.78641 -2.763333,-0.81188 -6.228245,-0.6837 -2.6739528,0.0989 -4.0580252,0.28006 -5.3849292,0.70476 -0.9822656,0.31439 -1.7859375,0.67972 -1.7859375,0.81183 0,0.50184 2.7603662,3.52689 4.842301,5.30663 1.4869028,1.27108 3.0845547,2.30635 5.0795737,3.29155 4.13937,2.04414 5.51352,2.35601 10.451042,2.37192 3.596603,0.0116 4.328853,-0.062 5.953125,-0.5983 3.502229,-1.15636 3.754715,-1.15654 7.34772,-0.005 6.594867,2.11321 11.690485,3.1356 15.538738,3.1177 2.710649,-0.0126 2.716133,-0.0137 10.847917,-2.17795 10.640806,-2.83202 11.881895,-2.99849 18.25625,-2.4488 6.34361,0.54704 8.566851,0.52129 10.654152,-0.12341 1.573728,-0.48608 6.108827,-3.02187 8.190429,-4.57966 1.19487,-0.8942 4.8233,-2.70059 6.42313,-3.19772 2.13668,-0.66395 4.61957,-1.18489 4.73755,-0.99398 0.16666,0.26966 -0.31605,7.89497 -0.77301,12.21119 -0.22339,2.11006 -1.05056,8.77756 -1.83815,14.81667 -1.59275,12.21294 -1.62833,12.52291 -1.45517,12.67611 0.0674,0.0596 0.77737,-0.0512 1.57774,-0.24627 0.88248,-0.21509 3.12132,-0.3628 5.68854,-0.37531 l 4.23333,-0.0206 4.62966,-1.82117 c 2.54631,-1.00164 6.09254,-2.45919 7.88049,-3.23899 7.27821,-3.17434 8.25793,-3.8545 10.55069,-7.32469 2.86201,-4.33178 5.16859,-6.5036 7.87125,-7.41138 0.71431,-0.23993 3.45275,-0.68064 6.08541,-0.97935 9.47978,-1.07561 10.49454,-1.47806 18.01583,-7.14491 6.75246,-5.08757 9.79185,-6.60297 13.24338,-6.60297 4.51821,0 10.91106,3.65181 14.12622,8.06937 5.77431,7.93375 8.056,16.98689 6.00165,23.81292 -1.51985,5.05002 -6.02393,14.48308 -8.93292,18.70856 -0.27144,0.39429 -0.49353,0.79467 -0.49353,0.88974 0,0.0951 -1.12676,1.87499 -2.5039,3.95537 -2.80863,4.24288 -4.35378,5.79316 -7.94925,7.9757 -2.64166,1.60354 -4.8783,2.501 -8.4165,3.37713 -4.35694,1.07886 -5.81471,2.10112 -7.61574,5.34049 -1.49925,2.69659 -2.79147,4.46084 -3.98168,5.43613 -1.35218,1.10801 -4.72276,3.02669 -9.88834,5.62889 -3.51188,1.76913 -5.1586,2.55288 -10.44459,4.97113 -1.23693,0.56588 -2.66568,1.22069 -3.175,1.45516 -0.50933,0.23445 -1.99761,0.87186 -3.3073,1.41644 -1.30968,0.54459 -3.69093,1.5449 -5.29166,2.2229 -1.60073,0.67801 -3.68433,1.52334 -4.63021,1.87852 -0.94589,0.35518 -1.95792,0.75389 -2.24896,0.88602 -0.29104,0.13213 -0.88635,0.35934 -1.32292,0.5049 -0.43656,0.14557 -2.16296,0.75606 -3.83645,1.35664 -1.67349,0.60059 -4.59053,1.51599 -6.4823,2.03423 -3.03237,0.83069 -3.91909,0.95844 -7.48984,1.079 -6.14466,0.20748 -10.206204,-0.33034 -20.59896,-2.72765 -2.788531,-0.64323 -5.561722,-1.16951 -6.162649,-1.16951 -0.600924,0 -2.605651,0.32509 -4.454946,0.72243 -2.890379,0.62103 -3.97515,0.72271 -7.727976,0.72438 -4.226253,0.002 -4.43846,-0.0244 -6.647106,-0.82342 C 57.521309,208.38 50.003168,202.0384 47.69866,197.02839 c -0.317949,-0.69122 -0.656346,-1.25677 -0.751996,-1.25677 -0.457403,0 -3.485689,2.8658 -4.166198,3.94266 -0.994259,1.57334 -1.183841,2.55746 -0.845373,4.3884 1.172155,6.34077 8.44308,12.18207 19.602173,15.74794 4.021071,1.28493 8.278836,2.16833 14.2875,2.96438 3.333041,0.44157 17.758619,0.43839 22.754166,-0.005 5.524488,-0.49036 14.862838,-1.71594 18.653128,-2.44807 11.12608,-2.1491 18.19823,-3.91638 24.34166,-6.0828 4.32059,-1.52362 5.46362,-2.39647 6.99579,-5.34221 1.72118,-3.30912 2.23247,-3.52202 7.85585,-3.27115 l 4.03207,0.17987 3.04334,-1.58989 c 4.4087,-2.30319 18.01433,-10.46948 20.40629,-12.24813 1.16828,-0.86874 2.03409,-1.65533 2.23477,-2.0303 0.13116,-0.24507 0.37542,-1.44582 0.5428,-2.66834 0.33316,-2.43326 0.77791,-3.53918 1.60028,-3.9793 0.29476,-0.15775 1.62486,-0.46294 2.95579,-0.6782 3.96892,-0.64192 4.18793,-0.79514 8.82701,-6.17545 0.44816,-0.51975 1.12424,-1.3022 1.50241,-1.73876 1.03434,-1.19404 4.90509,-6.31757 6.69005,-8.85532 5.20799,-7.40438 9.04953,-14.67424 10.35035,-19.58738 0.64686,-2.44316 1.15177,-5.03683 1.19493,-6.13827 0.0295,-0.75326 0.10608,-0.93012 0.2733,-0.63132 0.43024,0.7688 0.78807,9.7582 0.61703,15.50084 -0.19955,6.69964 -0.80111,15.35509 -1.35157,19.44687 -0.46793,3.47832 -1.4415,8.33414 -1.67112,8.33498 -0.0902,2.7e-4 -0.17592,0.34347 -0.19054,0.76252 -0.0348,0.99779 -1.42994,3.93127 -2.31747,4.8729 -0.38426,0.40769 -0.69865,0.85791 -0.69865,1.0005 0,0.14259 -0.17859,0.32778 -0.39687,0.41155 -0.21828,0.0838 -0.39688,0.29169 -0.39688,0.46206 0,0.17037 -0.20836,0.49766 -0.46302,0.7273 -0.25466,0.22964 -0.93692,1.03001 -1.51614,1.77859 -0.57921,0.74858 -1.19726,1.36106 -1.37344,1.36106 -0.17619,0 -0.40529,0.13746 -0.50912,0.30547 -0.1286,0.20807 -0.0703,0.23304 0.18282,0.0783 0.20439,-0.12494 -0.14559,0.39257 -0.77772,1.15 -0.63213,0.75744 -1.27561,1.29912 -1.42994,1.20373 -0.15868,-0.0981 -0.20344,-0.0486 -0.10302,0.11393 0.0977,0.15805 -0.089,0.47411 -0.41486,0.70234 -0.32586,0.22824 -0.50256,0.41498 -0.39268,0.41498 0.10988,0 -0.54084,0.77451 -1.44605,1.72112 -1.19626,1.25099 -1.71002,1.63042 -1.88085,1.38907 -0.17411,-0.24602 -0.20478,-0.22922 -0.11833,0.0648 0.14215,0.4835 -0.25791,1.32292 -0.63049,1.32292 -0.14899,0 -0.18593,-0.13746 -0.0821,-0.30547 0.11791,-0.19077 0.0725,-0.23358 -0.12099,-0.11401 -0.17038,0.1053 -0.23951,0.30516 -0.15362,0.44413 0.0859,0.13896 -0.41032,0.84375 -1.10268,1.56619 -1.22193,1.27502 -1.27472,1.30003 -1.80093,0.85353 -0.51935,-0.4407 -0.52635,-0.43973 -0.16679,0.0232 0.29946,0.38555 0.30734,0.52519 0.039,0.69104 -0.18498,0.11432 -0.35591,0.3136 -0.37986,0.44285 -0.0239,0.12926 -0.13285,0.20524 -0.24199,0.16886 -0.10914,-0.0364 -0.16867,0.0419 -0.13229,0.1739 0.082,0.2977 -4.32868,4.67984 -4.61853,4.5886 -0.11556,-0.0364 -0.21012,0.0917 -0.21012,0.28461 0,0.50236 -1.23038,1.58975 -1.56488,1.38301 -0.17767,-0.1098 -0.21701,-0.007 -0.10692,0.28027 0.11821,0.30804 0.0747,0.39251 -0.13532,0.26271 -0.19633,-0.12135 -0.30954,-6.7e-4 -0.30954,0.32994 0,0.61629 -1.42113,1.89122 -2.10808,1.89122 -0.26398,0 -0.99899,-0.23551 -1.63334,-0.52336 -0.63436,-0.28784 -1.70287,-0.52597 -2.37447,-0.52916 -1.45951,-0.007 -2.25412,0.53698 -3.51102,2.40336 -0.47879,0.71098 -0.96848,1.20391 -1.0882,1.0954 -0.11971,-0.1085 -0.13864,-0.0592 -0.0421,0.10957 0.22681,0.39641 -0.0744,1.18968 -0.38001,1.0008 -0.1286,-0.0795 -0.17168,0.0175 -0.0957,0.21542 0.076,0.19795 -0.104,0.63907 -0.39991,0.98026 -0.29591,0.34119 -0.53802,0.74104 -0.53802,0.88854 0,0.14751 -0.0617,0.20654 -0.13702,0.13118 -0.0754,-0.0754 -0.53426,0.23221 -1.01977,0.6835 -1.09782,1.02045 -2.71142,1.9854 -2.43128,1.45393 0.10693,-0.20285 -0.0243,-0.11193 -0.29157,0.20205 -0.68675,0.80669 -3.02453,2.22304 -3.34369,2.02578 -0.16368,-0.10115 -0.18307,-0.0295 -0.0502,0.18556 0.15857,0.25657 0.095,0.30377 -0.23744,0.17621 -0.25855,-0.0992 -0.38742,-0.0665 -0.29934,0.0761 0.20384,0.32981 -1.37926,1.14159 -1.76335,0.90421 -0.17873,-0.11046 -0.22428,-0.0652 -0.11398,0.11327 0.17975,0.29083 -2.65761,2.10254 -3.07851,1.96569 -0.10914,-0.0355 -0.19844,0.0673 -0.19844,0.22837 0,0.16109 -0.18478,0.22199 -0.41062,0.13532 -0.22584,-0.0867 -0.34101,-0.0449 -0.25593,0.0927 0.18689,0.30239 -1.30555,1.12295 -1.56696,0.86153 -0.10116,-0.10116 -0.38415,0.0709 -0.62886,0.38227 -0.80952,1.03018 -8.55774,5.01802 -9.09939,4.68326 -0.16363,-0.10113 -0.2164,-0.0593 -0.12064,0.0956 0.41052,0.66425 -3.02027,0.81938 -4.49487,0.20326 -0.52242,-0.21829 -1.67163,-0.39688 -2.5538,-0.39688 -2.04244,0 -3.52029,0.69435 -4.97461,2.33726 -0.60108,0.67904 -1.20659,1.2019 -1.34556,1.16191 -0.13897,-0.04 -0.18811,0.0318 -0.10919,0.15946 0.0789,0.12769 -0.0401,0.45806 -0.26454,0.73416 -0.22441,0.2761 -0.32127,0.33478 -0.21523,0.13039 0.13115,-0.25279 0.0894,-0.30768 -0.13071,-0.17167 -0.17792,0.10996 -0.25959,0.36648 -0.18147,0.57005 0.0781,0.20356 0.0197,0.37011 -0.12987,0.37011 -0.14955,0 -0.19915,0.1177 -0.11025,0.26155 0.096,0.15536 -0.0227,0.19082 -0.29237,0.0873 -0.32627,-0.1252 -0.39505,-0.0788 -0.24443,0.1649 0.27404,0.4434 -0.36217,0.83979 -1.04883,0.65347 -0.39824,-0.10806 -0.43744,-0.0802 -0.15841,0.11254 0.28774,0.19877 0.12279,0.38262 -0.73668,0.82109 -0.60909,0.31073 -1.24081,0.48253 -1.40382,0.38179 -0.19226,-0.11883 -0.22168,-0.0623 -0.0837,0.16087 0.16402,0.2654 0.0373,0.30315 -0.55444,0.16513 -0.49489,-0.11543 -0.63913,-0.0936 -0.4065,0.0616 0.67906,0.453 -8.64293,3.64055 -9.9437,3.40013 -0.32302,-0.0597 -0.53354,-0.0216 -0.46783,0.0848 0.14321,0.23172 -1.9221,0.59569 -2.24561,0.39575 -0.12427,-0.0768 -0.26696,-0.0166 -0.31709,0.13383 -0.0501,0.15041 -1.02749,0.32459 -2.17189,0.38705 -1.1444,0.0625 -2.14542,0.17828 -2.22449,0.25735 -0.14875,0.14874 -9.00048,0.12577 -10.63891,-0.0276 z m 9.59114,-0.26844 c -0.1819,-0.0734 -0.47955,-0.0734 -0.66145,0 -0.1819,0.0734 -0.0331,0.13346 0.33073,0.13346 0.3638,0 0.51263,-0.0601 0.33072,-0.13346 z m -1.25677,-2.87897 c 8.33763,-0.74511 18.77541,-4.26136 22.02657,-7.42026 0.95077,-0.92379 1.12448,-1.2549 1.12448,-2.1434 0,-3.19187 1.67728,-9.22843 3.73001,-13.42438 2.65952,-5.43627 1.606,-5.81601 -7.41399,-2.67233 -1.95342,0.68081 -4.63233,1.47557 -5.95312,1.76613 -8.50212,1.87039 -13.32266,2.69815 -21.36066,3.66792 -16.878125,2.03632 -31.712471,1.02009 -45.79008,-3.13685 -5.227828,-1.54372 -11.205532,-4.03322 -12.709099,-5.29289 -0.255553,-0.2141 -0.539469,-0.31445 -0.630925,-0.22299 -0.190841,0.19084 0.08748,0.95646 1.55747,4.28429 0.578522,1.30969 1.286618,2.91703 1.573551,3.57188 1.205992,2.75234 3.604601,7.2869 4.728149,8.93853 1.828731,2.68826 3.702786,3.47477 9.640565,4.046 3.040091,0.29246 6.092206,0.13259 6.380715,-0.33423 0.09271,-0.15002 -0.124179,-0.52763 -0.481989,-0.83914 -1.003755,-0.87385 -3.168324,-3.38497 -3.033797,-3.5195 0.06599,-0.066 0.758066,0.28799 1.537944,0.78663 2.989826,1.91161 10.281314,5.36837 15.176293,7.19481 11.410434,4.2575 20.049283,5.62992 29.897913,4.74978 z m -30.228642,-1.35436 c -0.181901,-0.0734 -0.479557,-0.0734 -0.661458,0 -0.181901,0.0734 -0.03307,0.13345 0.330729,0.13345 0.363802,0 0.51263,-0.06 0.330729,-0.13345 z m -9.133636,-2.89504 c -0.08792,-0.0879 -0.316124,-0.0973 -0.507119,-0.0209 -0.211066,0.0845 -0.148373,0.14716 0.159853,0.15985 0.278913,0.0115 0.435184,-0.051 0.347266,-0.13896 z m 63.968528,-1.16307 c 0.26339,-0.29104 0.41936,-0.52916 0.3466,-0.52916 -0.0728,0 -0.34779,0.23812 -0.61118,0.52916 -0.26339,0.29105 -0.41936,0.52917 -0.3466,0.52917 0.0728,0 0.34779,-0.23812 0.61118,-0.52917 z m -75.874778,-1.21818 c -0.08792,-0.0879 -0.316124,-0.0973 -0.507119,-0.0209 -0.211066,0.0845 -0.148373,0.14716 0.159853,0.15985 0.278913,0.0115 0.435184,-0.051 0.347266,-0.13896 z m 91.953018,-7.37591 c 2.15466,-0.56122 5.13974,-2.65772 8.66031,-6.08236 3.7231,-3.62167 7.26548,-7.66694 9.23293,-10.5437 0.47973,-0.70145 0.92537,-1.22224 0.9903,-1.15731 0.16047,0.16048 -3.08758,6.4738 -4.11006,7.98883 -0.45183,0.66948 -0.82151,1.28372 -0.82151,1.36496 0,0.29911 1.50841,-0.24551 3.71031,-1.33963 2.1842,-1.08532 2.53298,-1.31413 4.34237,-2.84873 1.04964,-0.89023 2.8325,-4.40055 3.60521,-7.09838 0.18755,-0.65485 0.42827,-1.30969 0.53492,-1.45521 0.10665,-0.14552 0.38768,-0.97896 0.62452,-1.85208 1.70348,-6.28002 2.48467,-10.59384 2.15575,-11.90435 -0.17052,-0.6794 -0.25887,-0.72058 -1.29419,-0.60313 -1.51585,0.17196 -9.19009,3.95136 -13.01743,6.41081 -4.04425,2.59884 -7.78592,4.85274 -8.59896,5.17983 -2.15928,0.86868 -5.77116,5.42023 -7.34128,9.25121 -0.32803,0.80037 -0.71132,1.69333 -0.85177,1.98438 -0.95734,1.98391 -2.09231,6.5045 -2.15891,8.59895 -0.0784,2.46516 0.19428,3.38416 1.18294,3.98701 1.00482,0.6127 1.22664,0.62106 3.15455,0.1189 z m 8.78844,-1.20221 c -0.0798,-0.12912 -0.32984,-0.16385 -0.55567,-0.0772 -0.32072,0.12307 -0.3361,0.20358 -0.0703,0.36786 0.40132,0.24803 0.83457,0.0468 0.62597,-0.29067 z m 25.74993,-16.53674 c -0.0815,-0.0815 -0.2294,0.0654 -0.32876,0.32632 -0.14359,0.37708 -0.1132,0.40747 0.14811,0.14811 0.18082,-0.17947 0.26212,-0.39297 0.18065,-0.47443 z m 5.60357,-4.73282 c -0.17135,-0.17135 -0.35026,-0.17135 -0.5216,0 -0.17135,0.17135 -0.0819,0.26081 0.2608,0.26081 0.3427,0 0.43215,-0.0895 0.2608,-0.26081 z m -2.20784,-1.21511 c 1.51508,-1.2494 5.42762,-5.50319 8.15083,-8.86173 3.31331,-4.08633 5.06109,-6.70908 6.94936,-10.42836 0.76941,-1.51549 1.39893,-2.85142 1.39893,-2.96872 0,-0.11731 0.28386,-0.84189 0.63079,-1.61019 0.34693,-0.76829 0.8997,-2.14389 1.22838,-3.05688 0.32869,-0.91299 0.63312,-1.62447 0.67652,-1.58106 0.1083,0.10829 -1.1041,5.78424 -1.58849,7.43666 -0.21627,0.73774 -0.32737,1.40522 -0.2469,1.48328 0.1631,0.15822 1.40707,-1.20833 3.16147,-3.47297 1.31319,-1.69512 1.571,-2.56671 2.60903,-8.82051 0.96827,-5.83352 1.46309,-10.54626 1.63904,-15.61042 0.14953,-4.30382 -0.0425,-6.37725 -0.58603,-6.32718 -0.13627,0.0126 -0.91356,1.32225 -1.72731,2.91042 -0.81374,1.58818 -1.92486,3.72103 -2.46914,4.73968 -1.15568,2.16288 -4.86565,8.16808 -5.44613,8.81545 -0.21944,0.24473 -0.60712,0.7693 -0.86151,1.16572 -1.26939,1.9781 -5.24689,6.5855 -8.85021,10.25179 -5.1765,5.26695 -5.38115,5.63684 -5.66258,10.23485 -0.13115,2.14266 -0.48801,4.69705 -0.90892,6.50599 -1.20212,5.16626 -1.49461,6.91097 -1.37388,8.19502 0.2208,2.34832 1.2574,2.6644 3.27675,0.99916 z m -73.29725,-1.87071 c 1.49252,-0.41909 4.00142,-1.24527 5.57534,-1.83594 3.22506,-1.21034 11.74634,-4.82526 11.63553,-4.93607 -0.0397,-0.0397 -1.37527,0.28608 -2.96785,0.72405 -9.83091,2.70351 -15.52263,4.0639 -18.24144,4.35991 -2.44438,0.26614 -5.29912,-0.84023 -10.98021,-4.25544 -5.70732,-3.43098 -8.553675,-4.61941 -11.063719,-4.61941 -1.905254,0 -4.678206,0.70539 -9.309195,2.36807 -5.022541,1.80328 -6.309617,2.12985 -8.39411,2.12985 -2.601249,0 -4.024559,-0.56795 -5.867466,-2.3413 -0.854589,-0.82234 -1.59698,-1.61455 -1.649757,-1.76047 -0.05278,-0.14592 -0.503563,-1.01674 -1.001744,-1.93516 -1.396402,-2.57433 -3.047524,-3.18579 -9.211448,-3.41125 -2.697456,-0.0987 -4.120848,-0.25475 -4.300834,-0.47162 -0.412064,-0.4965 0.543537,-1.52713 2.235875,-2.41142 1.402744,-0.73297 1.977604,-1.34377 1.003546,-1.06629 -0.254661,0.0725 -1.177396,0.27291 -2.050521,0.44527 -2.453632,0.48434 -4.278201,1.26258 -5.016103,2.13952 -1.812816,2.15441 0.08204,3.50671 5.358585,3.82424 3.561252,0.21431 4.262295,0.58478 7.059285,3.73044 5.197488,5.84542 6.879468,6.6295 13.632608,6.35503 3.744992,-0.15222 4.405384,-0.29947 9.657292,-2.15342 1.455208,-0.5137 3.153741,-0.93615 3.774514,-0.93878 0.730882,-0.003 2.456029,0.49658 4.894792,1.41776 7.34572,2.77467 13.58606,4.73601 16.87882,5.30502 2.79401,0.48282 4.85027,0.31962 8.34821,-0.66259 z m 83.84325,-5.00665 c 0.26339,-0.29104 0.41936,-0.52917 0.3466,-0.52917 -0.0728,0 -0.3478,0.23813 -0.61119,0.52917 -0.26339,0.29104 -0.41936,0.52917 -0.34659,0.52917 0.0728,0 0.34779,-0.23813 0.61118,-0.52917 z m 2.87908,-4.11478 c 0.0904,-0.23546 0.046,-0.34166 -0.10399,-0.24897 -0.14385,0.0889 -0.26155,0.27368 -0.26155,0.41062 0,0.38058 0.18964,0.29672 0.36554,-0.16165 z m 1.88342,-2.23522 c -0.0899,-0.14552 -0.36486,-0.25621 -0.61093,-0.24598 -0.36473,0.0152 -0.34962,0.0606 0.0818,0.24598 0.708,0.30424 0.7172,0.30424 0.52917,0 z m -84.64463,-1.00189 c 0.29038,-0.16251 -0.318,-0.2913 -1.91488,-0.40537 -1.28727,-0.092 -2.99534,-0.36007 -3.7957,-0.59582 -2.6624,-0.7842 -2.74013,-0.86095 -7.75019,-7.65236 -0.3213,-0.43555 -1.13461,-1.34883 -1.80734,-2.02951 -1.56361,-1.58208 -3.15422,-2.09038 -9.43082,-3.01378 -7.773395,-1.14359 -11.260119,-2.08718 -13.952276,-3.77582 -3.772419,-2.36621 -3.724844,-5.28787 0.109358,-6.71601 0.667456,-0.24861 1.570746,-0.46534 2.007309,-0.48162 0.436562,-0.0163 1.027117,-0.12085 1.312344,-0.23239 0.818739,-0.32017 -7.111148,-0.57049 -9.792521,-0.30912 -1.317119,0.12839 -2.835166,0.41745 -3.373437,0.64235 -0.809636,0.33829 -0.978678,0.5415 -0.978678,1.17647 0,2.11723 4.355182,5.68272 10.715625,8.77265 3.6419,1.76925 5.171231,2.28084 10.31875,3.45183 8.609976,1.95865 9.243206,2.24125 14.047566,6.26924 5.76232,4.83114 7.06844,5.44739 11.15064,5.26107 1.48975,-0.068 2.90016,-0.23081 3.13425,-0.36181 z m 90.73286,-5.34811 0.52635,-0.66146 -0.59531,0.50403 c -0.32742,0.27722 -0.59531,0.62448 -0.59531,0.7717 0,0.14722 0.031,0.21807 0.069,0.15743 0.0379,-0.0606 0.30582,-0.4079 0.59531,-0.7717 z m -54.90386,-14.87506 c -3.60465,-1.04691 -8.2881,-2.75356 -9.42578,-3.43475 -1.23079,-0.73694 -3.45524,-2.88286 -8.69818,-8.39107 -3.25482,-3.41951 -3.13774,-3.36373 -11.42666,-5.44437 -5.68643,-1.42737 -6.83226,-1.90695 -7.12331,-2.98138 -0.3466,-1.27954 1.87942,-4.50551 4.65334,-6.74368 1.1472,-0.92564 0.92987,-0.91724 -0.97826,0.0378 -0.8411,0.42098 -2.84873,1.37348 -4.4614,2.11667 -2.65436,1.22324 -3.11016,1.35125 -4.81142,1.35125 -2.34026,0 -3.16842,0.29743 -3.40027,1.22121 -0.48667,1.93903 1.68537,4.52505 5.29489,6.30404 2.75624,1.35845 5.66289,2.16319 11.9842,3.31797 4.24888,0.77618 4.52507,0.86491 6.16785,1.98141 0.94589,0.64286 2.37464,1.7486 3.175,2.45722 5.82777,5.15967 9.76498,7.22158 15.48749,8.11082 1.30454,0.20272 2.84814,0.36795 3.43022,0.36719 l 1.05833,-0.001 -0.92604,-0.26895 z m 9.52551,-1.30622 c 0.073,-0.0957 1.04281,-0.66485 2.15505,-1.26478 2.81657,-1.51924 4.70569,-1.85842 10.38145,-1.86393 5.20903,-0.005 6.24465,-0.19386 7.71604,-1.4067 1.19893,-0.98826 1.77429,-2.30514 2.77496,-6.35127 0.89871,-3.63389 1.17454,-4.07864 7.63567,-12.31203 4.9673,-6.32981 4.66052,-5.73295 4.646,-9.03876 -0.0144,-3.27346 -0.66729,-5.96121 -2.34599,-9.65729 -3.57593,-7.87331 -8.12296,-13.29456 -12.55299,-14.96645 -2.24751,-0.84822 -4.97669,-0.63764 -7.36846,0.56851 -1.93336,0.97498 -4.46464,2.79565 -6.69309,4.81412 -1.3766,1.24689 -1.73817,1.98674 -0.50256,1.02836 0.86896,-0.67399 3.73358,-2.00238 5.69237,-2.63968 5.43048,-1.76682 9.27043,-1.33008 12.48302,1.41976 4.0997,3.5092 8.36613,13.33344 8.55588,19.70151 0.0673,2.25728 -0.35848,2.88882 -5.97241,8.85929 -6.21183,6.60632 -6.40414,6.88427 -8.10437,11.71297 -1.15457,3.27902 -3.38277,4.87763 -8.05004,5.77545 -5.12111,0.98513 -6.71348,1.67506 -9.1613,3.96933 -1.49251,1.3989 -2.68857,2.75632 -1.9512,2.21445 0.29105,-0.21388 0.58893,-0.46717 0.66197,-0.56286 z m 13.91305,-21.61702 c -0.41814,-0.67658 -6.31139,-3.74448 -11.79689,-6.14122 -2.11005,-0.92193 -4.84849,-2.20635 -6.08542,-2.85427 -7.63153,-3.9975 -10.93788,-8.10888 -8.48981,-10.55694 1.1493,-1.1493 4.79532,-2.14122 8.09294,-2.20173 1.24075,-0.0228 1.27361,-0.0404 0.52916,-0.28383 -0.43656,-0.14276 -3.11546,-0.28135 -5.95312,-0.30799 -5.54565,-0.0521 -6.96559,0.16145 -8.33477,1.25319 -1.71214,1.36521 -0.44233,4.86267 3.01263,8.29767 3.50775,3.48748 4.36933,3.87733 17.67195,7.99613 3.09011,0.95677 5.26008,1.83407 7.80521,3.15556 3.94162,2.04658 3.7394,1.95292 3.54812,1.64343 z M 37.592474,78.003714 C 20.953304,77.259311 5.3927564,74.911933 -1.5658593,72.096502 c -2.3482504,-0.950095 -5.1409764,-2.635805 -5.193066,-3.134574 -0.01853,-0.17743 -0.053841,-2.76338 -0.078468,-5.746557 -0.040846,-4.947793 -0.1057595,-5.648558 -0.7394186,-7.982357 -0.8349943,-3.075324 -2.3025145,-6.550926 -3.2328901,-7.656615 -1.875804,-2.229265 -0.743993,-4.166862 3.6087296,-6.177944 14.3467495,-6.628606 59.6563964,-9.279532 92.8153214,-5.430334 10.324738,1.19853 18.879291,2.996941 23.820331,5.007709 2.07872,0.845942 5.40235,2.956431 5.64286,3.583188 0.19966,0.520295 -0.19017,1.737533 -0.99779,3.115639 -2.0665,3.526218 -3.85822,12.237291 -3.85893,18.761558 -1.9e-4,1.790481 -0.08,2.124993 -0.67552,2.832778 -5.12265,6.087909 -39.051198,10.20667 -71.952826,8.734721 z"
       id="path944" />
    <path
       style="fill:#c83737;stroke-width:0.264583"
       d="m 108.03779,248.24848 c 0.1819,-0.0734 0.47955,-0.0734 0.66145,0 0.18191,0.0734 0.0331,0.13345 -0.33072,0.13345 -0.36381,0 -0.51263,-0.0601 -0.33073,-0.13345 z m 8.33437,-0.007 c 0.25466,-0.0666 0.67138,-0.0666 0.92604,0 0.25466,0.0666 0.0463,0.121 -0.46302,0.121 -0.50932,0 -0.71768,-0.0545 -0.46302,-0.121 z m -10.4345,-0.26294 c 0.19099,-0.0764 0.4192,-0.067 0.50712,0.0209 0.0879,0.0879 -0.0684,0.15046 -0.34727,0.13897 -0.30823,-0.0127 -0.37092,-0.0754 -0.15985,-0.15985 z m 13.21263,0.005 c 0.1819,-0.0734 0.47955,-0.0734 0.66145,0 0.18191,0.0734 0.0331,0.13345 -0.33072,0.13345 -0.36381,0 -0.51263,-0.0601 -0.33073,-0.13345 z m 2.1332,-0.27009 c 0.19099,-0.0764 0.4192,-0.067 0.50712,0.0209 0.0879,0.0879 -0.0683,0.15046 -0.34727,0.13897 -0.30822,-0.0127 -0.37092,-0.0754 -0.15985,-0.15985 z m 1.5875,-0.26459 c 0.19099,-0.0764 0.4192,-0.067 0.50712,0.0209 0.0879,0.0879 -0.0684,0.15045 -0.34727,0.13896 -0.30822,-0.0127 -0.37092,-0.0754 -0.15985,-0.15985 z M 98.000156,246.9197 c 0.190995,-0.0764 0.419201,-0.067 0.507119,0.0209 0.08792,0.0879 -0.06835,0.15046 -0.347265,0.13897 -0.308227,-0.0127 -0.37092,-0.0754 -0.159854,-0.15985 z m -5.820833,-1.05834 c 0.190995,-0.0764 0.419201,-0.067 0.507119,0.0209 0.08792,0.0879 -0.06835,0.15045 -0.347266,0.13896 -0.308226,-0.0127 -0.370919,-0.0754 -0.159853,-0.15985 z m -1.322917,-0.26458 c 0.190995,-0.0764 0.419201,-0.067 0.507119,0.0209 0.08792,0.0879 -0.06835,0.15045 -0.347265,0.13896 -0.308227,-0.0127 -0.37092,-0.0754 -0.159854,-0.15985 z m -1.058333,-0.26458 c 0.190995,-0.0764 0.419201,-0.067 0.507119,0.0209 0.08792,0.0879 -0.06835,0.15046 -0.347266,0.13897 -0.308226,-0.0127 -0.370919,-0.0754 -0.159853,-0.15985 z m -3.439583,-0.79375 c 0.190994,-0.0764 0.4192,-0.067 0.507119,0.0209 0.08792,0.0879 -0.06835,0.15046 -0.347266,0.13897 -0.308226,-0.0127 -0.370919,-0.0754 -0.159853,-0.15985 z m -8.995834,-2.38125 c 0.190995,-0.0764 0.419201,-0.067 0.507119,0.0209 0.08792,0.0879 -0.06835,0.15046 -0.347265,0.13897 -0.308227,-0.0127 -0.37092,-0.0754 -0.159854,-0.15985 z m -8.995833,-2.11667 c 0.190995,-0.0764 0.419201,-0.067 0.507119,0.0209 0.08792,0.0879 -0.06835,0.15045 -0.347266,0.13896 -0.308226,-0.0127 -0.370919,-0.0754 -0.159853,-0.15985 z m -2.910417,-0.26458 c 0.190995,-0.0764 0.419201,-0.067 0.507119,0.0209 0.08792,0.0879 -0.06835,0.15046 -0.347265,0.13897 -0.308227,-0.0127 -0.37092,-0.0754 -0.159854,-0.15985 z m -1.5875,-0.26459 c 0.190995,-0.0764 0.419201,-0.067 0.507119,0.0209 0.08792,0.0879 -0.06835,0.15045 -0.347265,0.13896 -0.308227,-0.0127 -0.37092,-0.0754 -0.159854,-0.15985 z m 77.378104,-0.50155 c 0.25245,-0.30248 0.45901,-0.68479 0.45901,-0.84957 0,-0.16477 0.26789,-0.55991 0.59531,-0.87808 0.37975,-0.36903 0.44412,-0.52579 0.17776,-0.43294 -0.37498,0.13073 -0.36978,-0.10135 0.051,-2.27608 3.22437,-16.66524 3.37192,-18.04421 2.03692,-19.03698 -0.65657,-0.48826 -0.83854,-0.50391 -2.38125,-0.20483 -0.91869,0.1781 -1.9864,0.34457 -2.37269,0.36991 -0.38628,0.0254 -0.65567,0.1216 -0.59863,0.21389 0.057,0.0923 -1.05567,0.37104 -2.47267,0.61945 -3.85726,0.67622 -4.01102,0.69113 -2.57636,0.24982 9.30834,-2.86334 11.45443,-3.75635 12.90827,-5.37128 0.55112,-0.61217 1.19825,-1.52452 1.43807,-2.02744 0.23982,-0.50291 0.54008,-0.91439 0.66724,-0.91439 0.12715,0 0.16384,-0.10898 0.0815,-0.24218 -0.23397,-0.37856 1.19012,-1.90706 2.15074,-2.30843 0.67336,-0.28135 1.79612,-0.32387 5.03944,-0.19086 l 4.17305,0.17114 1.98438,-1.02776 c 2.53427,-1.31257 2.82025,-1.40122 1.25755,-0.38981 -0.69079,0.4471 -1.31356,0.8129 -1.38392,0.8129 -0.0704,0 -0.75533,0.39656 -1.52214,0.88125 -0.76681,0.48469 -1.98951,1.03809 -2.71712,1.22978 -2.07712,0.54722 -4.01221,1.54361 -4.79013,2.46647 -1.1758,1.39486 -2.17567,3.88523 -3.57984,8.91625 -1.20475,4.31649 -2.56606,12.6067 -2.50819,15.27453 0.0294,1.356 0.01,1.39444 -0.70586,1.39433 -1.30815,-2e-4 -2.6684,0.77992 -4.28696,2.45862 -0.87092,0.90327 -1.37694,1.39481 -1.12448,1.09231 z m -81.098807,-0.0221 c 0.181901,-0.0734 0.479557,-0.0734 0.661459,0 0.181901,0.0734 0.03307,0.13345 -0.33073,0.13345 -0.363802,0 -0.51263,-0.06 -0.330729,-0.13345 z m 98.226567,-4.96553 c 0,-0.0728 0.23812,-0.25973 0.52916,-0.41549 0.29104,-0.15576 0.52917,-0.22367 0.52917,-0.15091 0,0.0728 -0.23813,0.25973 -0.52917,0.41549 -0.29104,0.15576 -0.52916,0.22367 -0.52916,0.15091 z M 51.086224,232.5487 c -0.225756,-0.43656 -0.350933,-0.79375 -0.278172,-0.79375 0.07276,0 0.317,0.35719 0.542755,0.79375 0.225756,0.43657 0.350933,0.79375 0.278173,0.79375 -0.07276,0 -0.317,-0.35718 -0.542756,-0.79375 z m 109.956426,-0.0965 c 0.0606,-0.053 0.4079,-0.23821 0.7717,-0.41147 0.62369,-0.29703 0.63214,-0.29152 0.14787,0.0964 -0.42148,0.33768 -1.28267,0.6327 -0.91957,0.31502 z m 4.21128,-2.38878 c 0,-0.0572 0.18478,-0.17489 0.41062,-0.26155 0.23546,-0.0904 0.34166,-0.046 0.24897,0.10398 -0.15538,0.25141 -0.65959,0.37186 -0.65959,0.15757 z M 44.207057,228.1376 c -16.291859,-1.36727 -28.813694,-4.32998 -38.8062572,-9.1817 -3.533728,-1.71574 -7.1966,-4.02681 -6.9681199,-4.3965 0.08868,-0.14349 0.0057,-0.2012 -0.1843892,-0.12826 -0.4693952,0.18013 -3.7695579,-2.90717 -3.5270538,-3.29955 0.1393362,-0.22545 0.3021359,-0.21529 0.6276049,0.0392 0.3938453,0.30791 0.4014888,0.29517 0.073632,-0.1227 -0.2600214,-0.33142 -0.460317,-0.38787 -0.6924995,-0.19518 -0.3735978,0.31006 -0.6228998,0.0699 -1.2886005,-1.24122 -0.4106955,-0.80889 -0.3849759,-1.04218 0.612552,-5.55625 1.2927391,-5.84997 2.9218628,-14.28586 4.0012525,-20.7192 0.4516887,-2.69213 1.03733649,-6.14494 1.3014396,-7.67291 0.73964112,-4.2792 1.06191897,-8.71038 1.06167687,-14.59762 -3.175e-4,-7.98085 -0.27008481,-10.43645 -2.91606897,-26.54509 -0.8605102,-5.23875 -1.7425104,-10.71563 -1.96,-12.17083 -1.1154047,-7.4631 -1.7579708,-15.81092 -1.2824386,-16.66065 0.1980769,-0.35394 0.2401433,-0.10879 0.1626481,0.94786 -0.090124,1.22886 -0.057905,1.35434 0.2337962,0.91049 0.1860793,-0.28314 0.8606345,-1.08681 1.4990114,-1.78594 1.054748,-1.15512 1.2684361,-1.27114 2.3412424,-1.27114 0.98581339,0 1.3104156,0.13902 1.96777263,0.84272 0.4329684,0.46349 1.02180917,1.30256 1.30853467,1.86458 0.7135162,1.39861 2.5937867,3.81684 3.9795011,5.11806 3.0033172,2.8202 9.1417853,6.12295 12.7901803,6.88165 3.207189,0.66695 8.195247,0.59932 10.715625,-0.14527 4.359648,-1.28798 3.980328,-1.29129 8.359423,0.0729 7.287186,2.27014 11.057842,2.93373 15.735649,2.76931 3.084513,-0.10842 3.711038,-0.23215 10.063134,-1.98722 9.275262,-2.56274 10.986368,-2.8356 15.980336,-2.54823 2.182812,0.12561 5.933281,0.22838 8.334375,0.22838 h 4.365625 l 1.827426,-0.86541 c 1.005084,-0.47598 3.57913,-1.98963 5.720102,-3.36367 4.562681,-2.92825 7.540531,-4.21313 11.055531,-4.77023 l 1.14055,-0.18076 -0.14038,1.54732 c -0.0772,0.85103 -0.20838,2.79749 -0.29147,4.32545 -0.23627,4.34445 -2.20351,20.93532 -3.94787,33.29474 -0.0957,0.6778 -0.0392,0.85047 0.24282,0.74226 1.54184,-0.59166 3.18231,-0.78059 7.01517,-0.8079 l 4.36562,-0.0311 4.62966,-1.81988 c 2.54631,-1.00094 6.09254,-2.45791 7.88049,-3.23771 7.27821,-3.17433 8.25793,-3.85449 10.55069,-7.32469 2.87662,-4.35389 5.18911,-6.52507 7.89847,-7.41581 0.72928,-0.23976 3.4061,-0.6737 5.94848,-0.9643 5.57682,-0.63745 7.17889,-0.9165 9.14473,-1.59284 0.82625,-0.28428 1.63713,-0.43985 1.80196,-0.34572 0.16483,0.0941 0.2128,0.0751 0.10661,-0.0423 -0.1062,-0.1174 0.4927,-0.61914 1.33087,-1.11498 0.83817,-0.49584 3.34065,-2.26105 5.56106,-3.92269 8.91106,-6.66853 11.93461,-7.74054 17.16854,-6.08714 7.39371,2.33567 13.65176,10.17368 16.37873,20.51383 0.71996,2.72994 0.66649,8.05287 -0.10631,10.58334 -0.33331,1.0914 -0.71435,2.2225 -0.84676,2.51354 -0.1324,0.29104 -0.65247,1.5412 -1.1557,2.77812 -0.92697,2.27848 -2.74456,6.08945 -3.59639,7.54063 -0.25626,0.43656 -1.20328,2.10344 -2.10448,3.70417 -4.28631,7.61337 -6.57573,10.77118 -9.4738,13.0672 -3.54167,2.80592 -7.59848,4.58964 -13.01293,5.72159 -1.04096,0.21762 -3.17064,1.41959 -4.01975,2.26871 -0.32217,0.32216 -1.11828,1.55008 -1.76914,2.72871 -2.75179,4.98315 -3.74719,5.79947 -12.62753,10.35564 -3.80242,1.95088 -17.91098,8.49275 -20.24062,9.38519 -0.50933,0.19511 -1.67317,0.69095 -2.58632,1.10187 -0.91315,0.41092 -1.73972,0.74713 -1.83682,0.74713 -0.0971,0 -1.79077,0.65005 -3.76369,1.44455 -4.17413,1.68094 -11.48356,4.13092 -15.0939,5.05919 -3.26446,0.83934 -6.48423,1.04216 -10.58594,0.66684 -5.395691,-0.49372 -10.406235,-1.39549 -17.330209,-3.119 -3.744884,-0.93218 -5.708322,-0.92884 -10.054167,0.0171 -4.292158,0.93424 -8.474416,1.04724 -11.509375,0.31099 -5.702345,-1.38334 -14.006909,-7.46989 -17.103386,-12.53535 -1.404914,-2.29827 -1.946614,-3.91796 -1.946614,-5.82041 0,-3.75819 2.080032,-5.35123 9.525,-7.29497 4.193842,-1.09493 6.312913,-2.07924 7.672917,-3.56408 1.573979,-1.71846 1.494361,-1.60718 3.432939,-4.79819 0.928259,-1.52796 1.760567,-2.83765 1.84957,-2.91041 0.08901,-0.0728 0.680262,-0.9 1.313905,-1.83831 2.238804,-3.31525 4.04727,-4.71893 6.855735,-5.32124 l 1.364517,-0.29264 v -3.44976 c 0,-6.69305 0.992698,-15.28135 3.052003,-26.4043 1.160601,-6.26876 1.247651,-6.92007 1.084252,-8.1122 -0.360023,-2.62666 -2.42063,-5.95214 -4.573764,-7.38131 -3.969616,-2.63489 -6.167094,-2.36936 -18.215616,2.20104 -5.696267,2.16079 -6.321411,2.31513 -9.260416,2.28634 -3.166756,-0.031 -5.785009,-0.75797 -12.567709,-3.48933 -4.940919,-1.98969 -4.862393,-1.9796 -10.789533,-1.38717 -5.669249,0.56665 -10.318025,-0.12311 -14.0813,-2.08929 -3.8422074,-2.00743 -7.2120731,-4.2252 -9.1297437,-6.00846 -3.69295282,-3.43411 -4.06976155,-3.56595 -5.656548,-1.97916 -2.1465143,2.14651 -2.7688873,5.5566 -1.8888117,10.34912 0.3073114,1.67349 0.7854326,4.3524 1.0624915,5.95313 0.277059,1.60073 0.6883572,3.80338 0.9139963,4.89479 0.2256388,1.0914 0.7685918,4.00844 1.20656214,6.48229 0.43797035,2.47385 0.91348984,5.15276 1.05671012,5.95312 0.14322004,0.80037 0.49082934,2.94349 0.77246484,4.7625 0.2816354,1.81901 0.7290445,4.67651 0.9942425,6.35 0.5841198,3.686 0.6505779,15.65996 0.1233538,22.225 -0.448033,5.57896 -1.2964703,12.71834 -1.7670058,14.8689 -0.73837114,3.3747 -0.3811503,5.75077 1.4229127,9.46457 1.6508524,3.39841 7.3107431,8.23329 13.2706253,11.33624 7.008127,3.64872 18.044324,6.56062 25.994799,6.85873 2.381613,0.0893 3.98358,0.26021 4.111223,0.43863 0.115025,0.16077 0.602536,1.30434 1.083358,2.54127 1.104556,2.84149 1.578083,3.97981 1.898597,4.56406 0.23227,0.4234 0.08965,0.45921 -1.666465,0.41854 -1.056259,-0.0245 -2.39672,-0.0844 -2.978804,-0.13329 z m 74.357283,-21.92527 c 3.28661,-0.67887 10.87053,-3.40382 15.99793,-5.74816 0.80036,-0.36595 2.08028,-0.93129 2.84427,-1.25633 0.76398,-0.32503 1.38906,-0.69537 1.38906,-0.82297 0,-0.1276 0.0893,-0.21277 0.19844,-0.18927 0.21354,0.046 0.71132,-0.14955 2.97656,-1.16917 2.91326,-1.31131 5.69164,-2.67258 5.82083,-2.85192 0.0728,-0.10101 0.38657,-0.26293 0.69735,-0.35983 0.7035,-0.21934 7.36324,-4.61973 8.39953,-5.54994 3.71434,-3.33413 5.10669,-5.03984 7.06282,-8.65237 3.04698,-5.6271 6.2385,-8.65418 10.77862,-10.22327 1.92666,-0.66587 2.31172,-0.70386 7.32522,-0.72271 8.56116,-0.0322 9.2345,-0.49285 11.01398,-7.53518 0.42007,-1.66248 1.08298,-3.56748 1.47312,-4.23333 0.62999,-1.0752 3.63999,-5.14161 5.69439,-7.69293 3.19936,-3.9732 4.5671,-5.81774 4.90407,-6.61365 0.6752,-1.59481 0.32495,-6.17345 -0.71859,-9.39364 -1.08653,-3.35286 -3.01038,-7.23268 -5.18223,-10.45104 -3.8232,-5.66539 -7.95968,-8.7156 -11.83546,-8.7274 -1.86902,-0.006 -5.01964,1.31721 -7.62086,3.19989 -2.99741,2.16942 -8.44404,7.75481 -8.44404,8.65916 0,0.30506 1.98236,1.40347 3.68531,2.04198 1.76807,0.66293 6.76642,2.75144 6.59983,2.75767 -0.0913,0.003 -1.93672,-0.35398 -4.10104,-0.79421 -9.31137,-1.89393 -9.98817,-2.00094 -15.05385,-2.38016 -6.08428,-0.45547 -10.43246,0.32635 -11.20143,2.01407 -0.8516,1.86904 0.40661,4.59794 3.7096,8.04567 2.71001,2.82876 6.06771,4.48465 12.82538,6.32495 4.61252,1.25612 8.45982,2.5882 11.13432,3.85513 2.86684,1.35803 5.72746,3.04086 5.52066,3.24766 -0.0778,0.0778 -0.29798,0.0115 -0.48935,-0.14735 -0.19137,-0.15882 -0.70026,-0.35521 -1.13087,-0.43642 -0.43062,-0.0812 -2.68794,-0.80908 -5.01627,-1.61749 -6.53986,-2.27066 -6.60505,-2.28586 -9.12812,-2.12812 -1.23693,0.0773 -3.14193,0.33827 -4.23334,0.57986 -2.52899,0.55979 -5.53452,0.5488 -7.55018,-0.0276 -0.86787,-0.24818 -2.94716,-0.98097 -4.62065,-1.6284 -4.94996,-1.91503 -7.75395,-3.01792 -8.59896,-3.38222 -3.38149,-1.4578 -4.93976,-1.51149 -7.67496,-0.26442 -0.872,0.39757 -2.3374,1.06621 -3.25643,1.48584 -0.91904,0.41964 -1.78519,0.6924 -1.92479,0.60613 -0.13959,-0.0863 -0.22109,-0.0103 -0.1811,0.16884 0.04,0.17914 -0.46308,0.527 -1.11793,0.77303 -0.65484,0.24603 -2.95645,1.29894 -5.11468,2.33979 -3.65764,1.76398 -4.04387,1.89257 -5.68855,1.89395 -2.52644,0.002 -3.69973,0.38015 -3.93276,1.26716 -0.56641,2.15595 1.31053,4.68386 4.79212,6.45419 3.01831,1.53475 6.38767,2.44199 14.13484,3.80594 1.21362,0.21366 2.58284,0.57864 3.0427,0.81105 0.95389,0.48209 3.23574,2.14927 4.82647,3.52634 1.22027,1.05637 1.28958,1.11176 4.25358,3.39887 3.31652,2.55913 7.76105,4.20874 12.65816,4.69815 3.06943,0.30675 3.12853,0.52649 0.25071,0.93208 -4.68412,0.66018 -9.35965,0.23604 -12.68613,-1.1508 -1.54366,-0.64358 -7.73171,-4.05741 -8.06979,-4.45197 -0.30932,-0.36099 -3.85886,-1.877 -5.2324,-2.23476 -0.82135,-0.21394 -2.15296,-0.38469 -2.95913,-0.37945 -1.44796,0.009 -5.52632,0.83028 -8.60951,1.73288 -1.07926,0.31595 -2.56163,0.47143 -4.63021,0.48565 -2.95317,0.0203 -3.11667,-0.009 -5.55625,-1.01137 -1.38245,-0.56775 -3.34698,-1.41641 -4.36563,-1.88591 -3.56708,-1.64408 -5.35605,-2.24119 -6.714711,-2.24119 -1.434886,0 -1.905765,0.33719 -4.326628,3.09823 -0.537141,0.61262 -1.456465,1.35865 -2.04294,1.65784 -1.01872,0.51972 -1.234721,0.53061 -4.838933,0.24408 -4.287544,-0.34086 -10.4638,-0.18217 -11.842409,0.30428 -1.190548,0.42008 -1.852083,0.99923 -1.852083,1.62141 0,1.95228 5.288978,6.16181 11.269152,8.9692 3.52,1.65246 4.207229,1.87228 10.638633,3.40294 5.147579,1.2251 8.559919,2.35255 9.914589,3.2758 0.324,0.22081 2.07737,1.66436 3.89638,3.20788 2.12591,1.80394 4.05069,3.18211 5.38845,3.8582 1.95087,0.98596 2.22527,1.0518 4.38317,1.0518 2.36094,0 4.67948,-0.30259 6.43542,-0.83989 0.54643,-0.1672 1.05831,-0.23919 1.13753,-0.15998 0.28445,0.28446 -3.32109,1.7548 -5.31345,2.16682 -5.33608,1.10353 -9.50363,0.0357 -14.54467,-3.72665 -2.88998,-2.15693 -3.44043,-2.3465 -6.61458,-2.27795 -10.132951,0.21883 -11.068444,0.1927 -14.022916,-0.39159 -4.918295,-0.97266 -7.778874,-1.59959 -11.773958,-2.58039 -4.942443,-1.21339 -8.779598,-1.97995 -9.910956,-1.97995 -0.546547,0 -1.188238,0.2397 -1.644264,0.6142 -0.870151,0.71458 -3.250342,1.70248 -4.584364,1.90274 -0.752136,0.1129 -0.826666,0.0876 -0.396875,-0.13473 0.391308,-0.20243 0.05885,-0.23577 -1.276146,-0.128 -2.29399,0.1852 -5.476965,1.1901 -6.682803,2.10984 -0.838941,0.63989 -0.9246,0.82193 -0.852477,1.81168 0.07451,1.02255 0.169579,1.14465 1.345181,1.72766 1.013931,0.50284 1.880404,0.6633 4.365625,0.80844 3.88157,0.22668 4.118134,0.36511 8.363011,4.89387 2.159664,2.30409 3.55709,3.56454 4.458057,4.0211 3.966292,2.00987 10.751458,1.78102 16.602554,-0.55996 1.310778,-0.52443 3.068436,-1.07421 3.905906,-1.22173 1.516645,-0.26715 1.547291,-0.25934 7.739592,1.97214 13.124963,4.72978 16.680053,5.48554 21.307533,4.52971 z M 89.120078,168.59461 c 0.400182,-0.0606 1.055026,-0.0606 1.455209,0 0.400182,0.0606 0.07276,0.11023 -0.727605,0.11023 -0.800364,0 -1.127786,-0.0496 -0.727604,-0.11023 z M 104.63899,150.5404 c 1.04684,-0.91927 1.17133,-1.15338 1.22501,-2.30383 0.0724,-1.55103 0.56578,-5.9555 0.9129,-8.14901 0.1391,-0.87902 0.43953,-3.20557 0.66761,-5.17011 0.22808,-1.96453 0.58834,-4.64343 0.80057,-5.95312 0.21224,-1.30969 0.37614,-2.73844 0.36421,-3.175 l -0.0217,-0.79375 -0.24338,0.79375 c -0.13386,0.43656 -0.47241,1.86531 -0.75233,3.175 -0.27993,1.30969 -0.82124,3.81 -1.20291,5.55625 -0.90944,4.16085 -1.18919,5.54476 -1.44409,7.14375 -0.11599,0.7276 -0.40568,2.27542 -0.64375,3.43958 -0.43185,2.11171 -0.84297,4.37677 -1.04451,5.75469 -0.0585,0.40018 -0.0336,0.72253 0.0553,0.71632 0.089,-0.006 0.68611,-0.47174 1.32701,-1.03452 z m 68.28786,75.01546 c 0,-0.0728 0.23812,-0.25973 0.52917,-0.41549 0.29104,-0.15576 0.52916,-0.22367 0.52916,-0.15091 0,0.0728 -0.23812,0.25973 -0.52916,0.41549 -0.29105,0.15576 -0.52917,0.22368 -0.52917,0.15091 z m 9.03814,-8.88216 c 0.31989,-0.65484 0.61281,-1.36921 0.65095,-1.5875 0.0381,-0.21828 0.36408,-1.35839 0.72433,-2.53358 1.12458,-3.66851 2.643,-13.14697 2.66708,-16.64871 l 0.0164,-2.38125 -1.63265,0.0445 c -0.99499,0.0271 -2.12182,0.26086 -2.88516,0.59852 -0.68888,0.30472 -1.30262,0.50394 -1.36385,0.4427 -0.0612,-0.0612 0.13179,-0.18851 0.42895,-0.28282 0.687,-0.21805 3.8992,-2.38118 4.86161,-3.27387 0.78926,-0.73208 1.13774,-1.72603 1.40637,-4.0113 0.36879,-3.13735 1.07967,-3.78836 4.67396,-4.28031 2.77634,-0.38 3.83296,-0.91702 5.79721,-2.9464 1.03495,-1.06927 1.37121,-1.3205 0.96976,-0.72454 -0.63689,0.94547 -1.59901,2.13629 -2.40047,2.97107 -0.25467,0.26524 -0.37373,0.48271 -0.26459,0.48325 0.10914,5.3e-4 -0.15875,0.22139 -0.59531,0.49077 -2.57945,1.59162 -3.28262,3.86011 -4.89138,15.78012 -0.27495,2.03729 -0.69589,4.89479 -0.93541,6.35 -0.60329,3.66527 -0.62105,8.43529 -0.0338,9.08417 0.53304,0.58901 1.27163,0.56969 1.89076,-0.0495 0.25354,-0.25353 0.53601,-0.38592 0.62773,-0.2942 0.25542,0.25542 -1.49452,1.71052 -2.05712,1.71052 -0.27285,0 -1.01511,-0.23551 -1.64947,-0.52336 -0.63436,-0.28784 -1.73293,-0.52597 -2.44127,-0.52916 -1.14328,-0.005 -1.39663,0.1056 -2.25615,0.98638 -0.53255,0.5457 -1.17566,1.28984 -1.42915,1.65364 -0.29244,0.4197 -0.24832,0.2263 0.12072,-0.52917 z m -50.1147,0.61853 c 0.1819,-0.0734 0.47955,-0.0734 0.66145,0 0.18191,0.0734 0.0331,0.13345 -0.33072,0.13345 -0.36381,0 -0.51263,-0.0601 -0.33073,-0.13345 z m 61.20764,-5.01543 c 0.35129,-0.45377 0.69193,-0.77758 0.75697,-0.71958 0.065,0.058 -0.22237,0.42925 -0.63871,0.82502 l -0.75696,0.71959 z m 1.03559,-0.99466 c 0,-0.0549 0.20836,-0.2633 0.46302,-0.46302 0.41964,-0.32911 0.429,-0.31975 0.0999,0.0999 -0.34564,0.44073 -0.56291,0.58088 -0.56291,0.36312 z m 3.70416,-3.68706 c 0,-0.0455 0.38696,-0.43249 0.8599,-0.8599 l 0.85989,-0.7771 -0.7771,0.8599 c -0.72437,0.80154 -0.94269,0.98151 -0.94269,0.7771 z m 4.7625,-5.04828 c 0,-0.0572 0.18478,-0.17489 0.41062,-0.26155 0.23546,-0.0904 0.34166,-0.046 0.24897,0.10398 -0.15538,0.25141 -0.65959,0.37186 -0.65959,0.15757 z m 1.98438,-2.01268 c 0.56839,-0.58208 1.09296,-1.05833 1.16573,-1.05833 0.0728,0 -0.33276,0.47625 -0.90115,1.05833 -0.56839,0.58208 -1.09297,1.05833 -1.16573,1.05833 -0.0728,0 0.33276,-0.47625 0.90115,-1.05833 z m 3.04271,-3.25779 c 0,-0.0455 0.38695,-0.43249 0.85989,-0.8599 l 0.8599,-0.7771 -0.77711,0.8599 c -0.72437,0.80154 -0.94268,0.98151 -0.94268,0.7771 z m 4.10104,-4.67971 c 0.26339,-0.29104 0.53842,-0.52917 0.61118,-0.52917 0.0728,0 -0.0832,0.23813 -0.3466,0.52917 -0.26339,0.29104 -0.53842,0.52917 -0.61118,0.52917 -0.0728,0 0.0832,-0.23813 0.3466,-0.52917 z m 2.39826,-2.98797 c 0.0994,-0.26094 0.2473,-0.40778 0.32876,-0.32632 0.0815,0.0815 1.7e-4,0.29495 -0.18065,0.47443 -0.26131,0.25936 -0.2917,0.22897 -0.14811,-0.14811 z m 1.17361,-1.60984 c 0,-0.0549 0.20836,-0.2633 0.46302,-0.46302 0.41965,-0.32911 0.42901,-0.31975 0.0999,0.0999 -0.34564,0.44073 -0.56292,0.58089 -0.56292,0.36313 z m 0.79375,-1.20741 c 0,-0.13693 0.1177,-0.32171 0.26156,-0.41061 0.14998,-0.0927 0.19433,0.0135 0.10398,0.24896 -0.17589,0.45837 -0.36554,0.54224 -0.36554,0.16165 z m 2.93131,-11.28245 c 0.0127,-0.30823 0.0754,-0.37092 0.15985,-0.15986 0.0764,0.191 0.067,0.41921 -0.0209,0.50712 -0.0879,0.0879 -0.15045,-0.0684 -0.13896,-0.34726 z m 0.55005,-4.34358 c 0,-0.3638 0.0601,-0.51263 0.13345,-0.33073 0.0734,0.1819 0.0734,0.47956 0,0.66146 -0.0734,0.1819 -0.13345,0.0331 -0.13345,-0.33073 z m 0.26458,-2.11667 c 0,-0.3638 0.0601,-0.51263 0.13346,-0.33072 0.0734,0.1819 0.0734,0.47955 0,0.66145 -0.0734,0.1819 -0.13346,0.0331 -0.13346,-0.33073 z m 0.26459,-3.43958 c 0,-0.3638 0.06,-0.51263 0.13345,-0.33073 0.0734,0.1819 0.0734,0.47956 0,0.66146 -0.0734,0.1819 -0.13345,0.0331 -0.13345,-0.33073 z m 0.27439,-4.36562 c 0.005,-0.43657 0.0647,-0.58313 0.13177,-0.3257 0.0671,0.25743 0.0627,0.61462 -0.01,0.79375 -0.0725,0.17913 -0.12736,-0.0315 -0.12197,-0.46805 z m 0.31088,-10.45105 c 0,-1.52796 0.0437,-2.15304 0.0972,-1.38906 0.0534,0.76399 0.0534,2.01414 0,2.77813 -0.0535,0.76398 -0.0972,0.1389 -0.0972,-1.38907 z m -0.30108,-8.46666 c 0,-0.50933 0.0545,-0.71768 0.121,-0.46302 0.0666,0.25466 0.0666,0.67138 0,0.92604 -0.0666,0.25466 -0.121,0.0463 -0.121,-0.46302 z m -0.30508,-2.27101 c 0.0127,-0.30822 0.0754,-0.37092 0.15985,-0.15985 0.0764,0.19099 0.067,0.4192 -0.0209,0.50712 -0.0879,0.0879 -0.15046,-0.0684 -0.13897,-0.34727 z M -5.4023177,104.77057 c 0,-0.13693 0.1176989,-0.32171 0.2615528,-0.41062 0.1499817,-0.0927 0.1943383,0.0135 0.1039842,0.24897 -0.1758926,0.45837 -0.365537,0.54223 -0.365537,0.16165 z m 0.7566734,-1.25765 c 0.3373147,-0.64313 0.8308266,-1.03913 0.8308266,-0.66667 0,0.13155 -0.2554496,0.466 -0.5676659,0.74322 -0.5637241,0.50053 -0.5655516,0.49999 -0.2631607,-0.0766 z m 1.5567065,-1.73957 c 0.2549229,-0.28168 0.8209645,-0.68432 1.2578705,-0.89475 0.793606,-0.38223 0.609006,-0.17914 -0.6212129,0.6834 -0.2972445,0.20841 -0.4925282,0.45646 -0.4339632,0.55122 0.058565,0.0948 -0.067369,0.17229 -0.2798543,0.17229 -0.3121517,0 -0.2973353,-0.0983 0.07716,-0.51216 z m 2.39951076,-1.43247 c 0.19099609,-0.0764 0.41919922,-0.067 0.50711814,0.0209 0.08791866,0.0879 -0.0683509,0.15045 -0.34726562,0.13896 -0.3082245,-0.0127 -0.37091938,-0.0754 -0.15985252,-0.15985 z m 1.04179687,-0.25907 c 0.18190105,-0.0734 0.4795573,-0.0734 0.66145837,0 0.181901,0.0734 0.033073,0.13345 -0.3307292,0.13345 -0.36380208,0 -0.51263021,-0.0601 -0.33072917,-0.13345 z m 11.25277417,-0.0196 c 0.695616,-0.0547 1.767179,-0.054 2.38125,0.002 0.614074,0.0555 0.04493,0.10023 -1.264753,0.0994 -1.309688,-7.9e-4 -1.81211,-0.0462 -1.116497,-0.10089 z M 3.7919532,99.795607 c 1.2005468,-0.04903 3.1650781,-0.04903 4.365625,0 1.2005468,0.04903 0.2182812,0.08914 -2.1828125,0.08914 -2.4010938,0 -3.3833594,-0.04011 -2.1828125,-0.08914 z M 37.592474,78.003714 C 20.953304,77.259311 5.3927564,74.911933 -1.5658593,72.096502 c -2.3482504,-0.950095 -5.1409764,-2.635805 -5.193066,-3.134574 -0.01853,-0.17743 -0.053841,-2.76338 -0.078468,-5.746557 -0.040846,-4.947793 -0.1057595,-5.648558 -0.7394186,-7.982357 -0.8349943,-3.075324 -2.3025145,-6.550926 -3.2328901,-7.656615 -1.875804,-2.229265 -0.743993,-4.166862 3.6087296,-6.177944 14.3467495,-6.628606 59.6563964,-9.279532 92.8153214,-5.430334 10.324738,1.19853 18.879291,2.996941 23.820331,5.007709 2.07872,0.845942 5.40235,2.956431 5.64286,3.583188 0.19966,0.520295 -0.19017,1.737533 -0.99779,3.115639 -2.0665,3.526218 -3.85822,12.237291 -3.85893,18.761558 -1.9e-4,1.790481 -0.08,2.124993 -0.67552,2.832778 -5.12265,6.087909 -39.051198,10.20667 -71.952826,8.734721 z"
       id="path942" />
    <path
       style="fill:#d38d5f;stroke-width:0.264583"
       d="M 41.428932,78.120488 C 23.3957,77.475352 8.9452348,75.574918 0.286224,72.709658 -2.6069881,71.752298 -6.1915565,69.94132 -6.6581633,69.201251 -6.7612716,69.037715 -6.8544301,66.4036 -6.8651822,63.347663 c -0.018015,-5.120085 -0.073474,-5.755095 -0.7064828,-8.08931 -0.8791996,-3.24204 -2.1557112,-6.304789 -3.148343,-7.553854 -0.428826,-0.539607 -0.850011,-1.261314 -0.935969,-1.603793 -1.945433,-7.751226 40.146517,-13.683914 81.247532,-11.451507 18.259367,0.99176 33.495405,3.513486 40.832185,6.758158 1.52986,0.676574 4.45336,2.682723 4.66517,3.201298 0.19031,0.465966 -0.31124,2.05598 -0.87435,2.771868 -0.2728,0.346806 -0.85577,1.649868 -1.29549,2.895694 -1.6202,4.590362 -2.69847,10.973437 -2.69847,15.974216 0,1.777616 -0.0978,2.309535 -0.52414,2.851571 -4.17753,5.310867 -30.176796,9.327552 -59.139403,9.136578 -3.929062,-0.0259 -8.036718,-0.07905 -9.128125,-0.118094 z M 73.840391,52.382141 c 12.516765,-1.057108 21.119272,-2.471131 25.887788,-4.255262 1.825801,-0.683119 3.716521,-2.066847 3.823461,-2.798203 0.50166,-3.430993 -13.243194,-6.459644 -35.532083,-7.829422 -7.257047,-0.445987 -29.209944,-0.44039 -36.644791,0.0093 -17.983491,1.087818 -31.94787506,3.683741 -34.4619795,6.406344 -0.9884804,1.070457 -0.9168175,1.634737 0.3447494,2.714591 2.29420874,1.963758 10.6685689,3.962997 21.1526461,5.049843 12.325726,1.277763 16.76332,1.453187 34.13125,1.349269 12.121584,-0.07253 15.838787,-0.185359 21.298959,-0.646502 z"
       id="path940" />
    <path
       style="fill:#c87137;stroke-width:0.384456;stroke-miterlimit:4;stroke-dasharray:none"
       d="M 41.296641,78.036948 C 18.219868,77.202415 0.21671108,74.134524 -5.3753661,70.083645 -6.9679668,68.929971 -7.0493891,68.651058 -6.7248832,65.460877 -6.2267326,60.563614 -7.1193656,55.076944 -9.205538,50.213255 l -0.4133038,-0.963575 1.3806578,0.530344 c 5.5291162,2.123864 16.096066,3.865717 31.67545,5.221368 22.015688,1.915713 45.103425,1.04729 70.511458,-2.652218 3.055938,-0.444957 6.078066,-0.924573 6.715836,-1.065813 2.02103,-0.447574 1.45293,-0.07795 -0.956016,0.622025 -8.048212,2.338589 -19.368301,6.303793 -19.606347,6.867721 -0.04851,0.114911 -0.287253,0.208931 -0.530545,0.208931 -0.709851,0 -7.118591,3.344161 -9.522521,4.96897 -4.457094,3.012535 -5.953993,4.98783 -5.812658,7.670321 0.07172,1.361107 0.158615,1.551379 0.952164,2.084803 2.361785,1.587593 11.465595,1.299197 22.939254,-0.726681 11.290755,-1.993582 16.279389,-3.604053 19.073959,-6.157605 1.16154,-1.061363 1.20658,-1.161714 1.55934,-3.474183 0.91303,-5.985238 1.55428,-8.364485 3.06631,-11.377084 0.5843,-1.164166 0.99483,-1.89145 0.91229,-1.616186 -1.72264,5.744671 -2.24754,8.678561 -2.41927,13.522436 -0.16274,4.590198 -0.17923,4.668809 -1.19157,5.681155 -3.84849,3.848486 -20.045083,7.075143 -41.109393,8.18974 -7.410196,0.392105 -20.084764,0.529281 -26.722916,0.289224 z M 13.598073,36.576297 c 0.190995,-0.07643 0.419198,-0.06703 0.507119,0.02089 0.08792,0.08792 -0.06835,0.150453 -0.347266,0.138964 -0.308226,-0.01269 -0.370919,-0.07539 -0.159853,-0.159852 z m 4.216797,-0.523655 c 0.181901,-0.0734 0.479557,-0.0734 0.661458,0 0.181901,0.0734 0.03307,0.133453 -0.330729,0.133453 -0.363802,0 -0.51263,-0.06005 -0.330729,-0.133453 z m 55.314453,-1.063845 c 0.190995,-0.07643 0.419201,-0.06703 0.507119,0.02089 0.08792,0.08792 -0.06835,0.150453 -0.347266,0.138964 -0.308226,-0.01269 -0.370919,-0.07539 -0.159853,-0.159852 z m -5.040535,-0.270972 c 0.329118,-0.06329 0.805368,-0.06088 1.058334,0.0053 0.252965,0.06622 -0.01632,0.118003 -0.598398,0.115067 -0.582083,-0.0029 -0.789054,-0.05712 -0.459936,-0.120406 z M 41.098203,34.453646 c 0.327422,-0.06306 0.863203,-0.06306 1.190625,0 0.327422,0.06306 0.05953,0.114662 -0.595312,0.114662 -0.654844,0 -0.922735,-0.0516 -0.595313,-0.114662 z m 21.447787,0.006 c 0.190994,-0.07643 0.4192,-0.06703 0.507119,0.02089 0.08792,0.08792 -0.06835,0.150452 -0.347266,0.138964 -0.308226,-0.0127 -0.370919,-0.07539 -0.159853,-0.159853 z"
       id="path938" />
  </g>
</svg>
