<svg xmlns="http://www.w3.org/2000/svg" cursor="default" viewBox="0 0 256 256"  xmlns:v="https://vecta.io/nano"><path d="M110.595 184.592c-18.526-.959-43.806-5.335-51.649-8.94-.673-.309-1.595-2.108-8.084-15.774-7.325-15.425-7.325-15.425-8.86-15.261-9.361 1.003-16.549-9.846-14.643-22.102 1.333-8.574 3.824-12.18 9.141-13.237.678-.135 1.103-.495 1.857-1.576 2.904-4.164 6.33-5.179 10.292-3.048 1.635.879 1.635.879 2.808.421 2.833-1.108 14.246-5.129 18.979-6.686 5.178-1.704 5.178-1.704 5.34-3.42.498-5.258 2.63-6.504 7.695-4.495 3.897 1.546 6.519-1.345 5.294-5.837-.999-3.664-.731-4.793 1.725-7.253 4.476-4.483 9.448-3.721 13.373 2.051 1.478 2.173 3.309 2.545 4.904.998 1.051-1.02 1.127-1.706.694-6.329-1.095-11.691 18.082-19.068 19.561-7.525.553 4.32 5.2 2.777 5.66-1.878.299-3.032 1.749-5.021 3.66-5.021.517 0 3.182 1.298 7.737 3.768 8.09 4.387 7.892 4.152 5.418 6.449-2.725 2.53-3.315 4.674-1.744 6.339 1.412 1.496 2.253 1.443 6.431-.402 5.534-2.444 8.882-.679 10.583 5.582.573 2.111 1.238 2.129 2.671.075 1.86-2.667 2.795-2.709 7.148-.32 9.479 5.202 15.334 10.597 13.093 12.064-.749.49-.134.883 2.286 1.461 1.412.337 3.919 1.072 5.571 1.632 3.003 1.019 3.003 1.019 4.545.176 3.762-2.055 8.234-.66 13.139 4.101 1.676 1.627 1.676 1.627 2.846 1.315 6.258-1.669 11.223 4.197 11.233 13.27.015 13.828-6.723 23.598-15.401 22.334-1.814-.264-.972-2.302-7.856 19.012l-6.402 19.197c-.516.575-12.672 3.245-17.314 3.802-1.042.125-3.145.479-4.673.786-5.599 1.125-23.334 3.076-34.097 3.752l-7.451.543c-3.322.294-19.671.281-25.51-.021z" fill="#d1e0d8"/><path d="M115.394 184.45c-16.743-.723-29.185-2.259-42.18-5.205-4.573-1.037-13.632-3.557-14.392-4.004-.211-.124-3.678-7.136-7.705-15.582-7.322-15.356-7.322-15.356-9.724-15.334-9.357.088-15.558-9.506-13.896-21.5 1.123-8.107 3.474-11.871 8.21-13.147 1.41-.38 1.896-.65 2.399-1.336 3.557-4.842 6.985-5.846 10.922-3.201 1.181.793 1.181.793 4.19-.379 2.918-1.137 15.381-5.469 20.248-7.039 2.399-.774 2.399-.774 2.543-2.622.382-4.927 2.496-6.428 6.592-4.681 4.594 1.96 7.754-.798 6.401-5.586-1.019-3.604-.712-5.028 1.569-7.276 4.439-4.375 9.213-3.659 13.112 1.965 2.623 3.784 7.046 1.906 6.256-2.657-.967-5.588.534-9.97 4.464-13.035 5.107-3.982 13.557-3.037 14.239 1.593l.27 1.842c.512 3.512 5.931 1.721 5.931-1.961 0-3.212 2.155-5.994 4.167-5.38.278.085 3.062 1.559 6.188 3.276l6.63 3.594c1.411.704 1.269 1.347-.703 3.18-4.798 4.461-2.011 9.407 3.748 6.653 6.329-3.027 9.66-1.822 11.473 4.148.908 2.992 1.565 3.17 3.22.876 1.962-2.719 2.478-2.722 7.362-.035 9.976 5.489 14.021 9.419 12.328 11.979-.469.71-.71.591 3.164 1.553a69.25 69.25 0 0 1 5.427 1.622c2.531.903 2.531.903 4.05.03 3.797-2.182 8.502-.742 13.248 4.056 1.112 1.124 1.751 1.588 2.021 1.467 5.834-2.614 11.495 3.056 11.82 11.839.528 14.234-6.424 24.794-15.242 23.153-1.932-.36-1.068-2.416-7.97 18.961-7.277 22.538-4.565 19.406-19.23 22.205-5.603 1.069-5.251 2.6-2.963-12.866 2.258-15.268 2.241-13.61.132-12.716-2.449 1.038-5.053 1.481-8.671 1.476-6.715-.01-9.116-1.164-13.021-6.262-2.888-3.77-6.943-2.602-11.069 3.19-2.942 4.13-6.624 6.261-10.854 6.282-1.236.006-1.065-1.202-1.868 13.204-.407 7.301-.828 12.964-.98 13.184-.266.386-16.008.729-21.856.476z" fill="#b7c8c5"/><path d="M117.793 184.167c-19.128-.376-38.932-3.223-54.632-7.851-4.941-1.457-3.746.255-11.907-17.053-3.902-8.276-7.235-15.063-7.406-15.082s-1.279-.008-2.461.024c-8.828.238-15.381-9.396-13.914-20.456 1.172-8.837 3.533-12.812 8.275-13.929 1.732-.408 1.92-.522 2.607-1.581 2.892-4.453 7.061-5.58 10.765-2.911.981.707.987.708 2.121.255 2.169-.866 18.329-6.52 21.501-7.523 3.189-1.008 3.189-1.008 3.312-2.831.332-4.914 2.624-6.519 6.63-4.643 4.352 2.039 7.951-1.254 6.443-5.896-1.08-3.325-.39-5.688 2.267-7.753 4.405-3.425 8.445-2.646 11.916 2.299 1.531 2.18 2.851 2.912 4.323 2.398 2.188-.765 2.87-2.82 2.154-6.494-1.065-5.461 3.269-11.927 8.919-13.307 5.711-1.395 10.075.88 10.075 5.252 0 3.088 4.48 2.863 5.833-.293.259-.603.473-1.63.476-2.283.011-2.285 1.627-4.562 3.24-4.564.842-.001 14.446 7.45 14.446 7.913 0 .436-.416.906-2.074 2.34-5.111 4.422-1.178 9.194 5.105 6.193 5.353-2.557 8.8-1.111 10.39 4.357.91 3.127 1.965 3.498 3.349 1.176 1.634-2.741 2.583-2.79 7.039-.366 9.903 5.387 14.3 9.556 12.556 11.904-.626.842-.628.841 2.298 1.513 1.308.301 3.884 1.048 5.723 1.661 3.344 1.115 3.344 1.115 4.57.408 4.085-2.355 8.507-1.029 13.465 4.037 1.425 1.456 1.425 1.456 3.171 1.126 8.723-1.651 13.066 9.074 9.278 22.917-2.216 8.098-6.384 12.006-12.789 11.989-1.777-.005-3.231.004-3.231.021 0 .087-11.458 35.543-11.895 36.806-.582 1.685-1.226 1.895-12.605 4.103-5.75 1.116-5.345 2.806-3.044-12.698 2.196-14.803 2.197-13.929-.004-12.878-2.634 1.257-4.966 1.703-8.949 1.709-6.775.011-9.005-1.042-12.857-6.069-3.123-4.076-6.964-3.015-11.566 3.194-3.095 4.175-6.285 6.003-10.5 6.015-1.807.005-1.684-.684-2.466 13.781l-.841 12.741c-.187.194-13.903.428-19.104.326z" fill="#a2b8b4"/><path d="M101.25 158.764c-5.973-.989-8.923-3.46-9.763-8.18-1.461-8.205-7.155-9.014-10.712-1.521-4.641 9.777-16.891 8.409-20.068-2.242-2.326-7.798-7.458-9.673-13.842-5.057-2.945 2.129-3.101 2.204-4.9 2.364-9.513.845-16.339-9.912-14.121-22.252 1.391-7.737 3.518-10.918 8.044-12.029 1.182-.29 1.748-.591 2.218-1.181l1.575-1.991c2.174-2.764 5.502-3.384 8.728-1.626 1.768.963 1.768.963 6.025-.643 4.024-1.518 12.788-4.55 18.894-6.537 2.766-.9 2.766-.9 2.807-2.492.118-4.659 2.601-6.545 6.322-4.802 4.625 2.167 8.277-1.203 6.669-6.153-.964-2.967-.513-4.732 1.76-6.897 4.301-4.095 8.446-3.446 12.519 1.96 3.469 4.605 7.733 2.085 6.555-3.874-1.459-7.378 4.262-13.987 12.158-14.046 4.11-.031 6.167 1.588 6.564 5.165.347 3.131 3.351 3.664 5.488.975.632-.795.74-1.183 1.047-3.756.24-2.011 1.825-4 3.191-4.003.225-.001 3.129 1.488 6.453 3.308l6.567 3.485c1.676.563 1.59 1.131-.481 3.189-3.302 3.281-3.341 6.105-.103 7.526 1.353.594 1.514.557 5.683-1.316 4.936-2.217 8.32-.433 9.773 5.153.683 2.625 1.948 2.917 3.242.749 1.912-3.203 3.331-2.921 11.647 2.315 6.755 4.253 9.122 6.898 7.958 8.892-.633 1.085-.681 1.05 2.392 1.755 1.36.312 3.865 1.039 5.567 1.615 3.693 1.25 3.418 1.238 5.272.242 3.632-1.951 8.179-.431 12.699 4.245 1.552 1.605 1.563 1.611 2.524 1.33 9.201-2.691 14.132 9.622 9.575 23.91-3.173 9.951-11.806 13.991-18.381 8.602-5.381-4.41-9.356-2.362-16.096 8.294-5.293 8.368-8.349 10.372-16.436 10.777-6.863.343-10.101-.995-13.578-5.61-3.298-4.378-7.319-3.66-11.536 2.06-3.891 5.278-6.373 6.647-12.141 6.697-5.433.047-7.381-1.421-9.867-7.435-3.478-8.415-11.71-7.369-16.638 2.115-2.773 5.336-6.601 7.689-11.255 6.919z" fill="#e0af44"/><path d="M101.25 158.764c-5.973-.989-8.923-3.46-9.763-8.18-1.461-8.205-7.155-9.014-10.712-1.521-4.641 9.777-16.891 8.409-20.068-2.242-2.326-7.798-7.458-9.673-13.842-5.057-2.945 2.129-3.101 2.204-4.9 2.364-9.513.845-16.339-9.912-14.121-22.252 1.391-7.737 3.518-10.918 8.044-12.029 1.182-.29 1.748-.591 2.218-1.181l1.575-1.991c2.1-2.67 5.464-3.366 8.501-1.758 2.076 1.099 1.96 1.342-1.369 2.862-4.852 2.215-4.728 2.073-4.196 4.796.152.779.205 2.328.12 3.495-.371 5.097 3.104 6.906 6.314 3.287 1.789-2.017 3.684-1.507 10.55 2.837 3.377 2.136 3.992 2.393 8.41 3.512 3.998 1.013 3.939.956 3.095 2.947-1.357 3.202-.662 4.634 2.334 4.813 3.062.183 3.77-.616 3.44-3.879-.327-3.236 12.917-1.716 20.238 2.323 4.63 2.555 7.04 2.7 14.991.902 6.37-1.44 9.652-1.436 14.144.019 7.492 2.426 7.181 2.358 10.987 2.38 4.137.023 4.952-.17 10.657-2.523 6.196-2.556 8.305-2.955 12.354-2.335 2.366.362 5.318.02 7.54-.875 1.693-.682 1.935-.655 2.804.315 2.356 2.628 6.94 3.159 8.211.951.562-.976.602-1.744.189-3.64-.396-1.818-.745-1.586 7.244-4.829 11.526-4.678 12.769-5.343 15.617-8.344 1.625-1.712 1.888-1.813 2.592-.989 3.941 4.612 9.837-1.11 6.799-6.6-.713-1.289-.695-1.986.052-1.992 2.056-.019-1.241-2.12-7.577-4.831-3.149-1.347-3.269-1.618-1.209-2.722 3.502-1.879 8.109-.299 12.563 4.309 1.552 1.605 1.563 1.611 2.524 1.33 9.201-2.691 14.132 9.622 9.575 23.91-3.173 9.951-11.806 13.991-18.381 8.602-5.381-4.41-9.356-2.362-16.096 8.294-5.293 8.368-8.349 10.372-16.436 10.777-6.863.343-10.101-.995-13.578-5.61-3.298-4.378-7.319-3.66-11.536 2.06-3.891 5.278-6.373 6.647-12.141 6.697-5.433.047-7.381-1.421-9.867-7.435-3.478-8.415-11.71-7.369-16.638 2.115-2.773 5.336-6.601 7.689-11.255 6.919zm112.943-41.477c1.039-.996.267-2.767-1.205-2.767a1.66 1.66 0 0 0-1.617 1.605c0 1.383 1.813 2.129 2.822 1.162zM97.84 131.279c-1.267-.626-2.946-2.331-3.451-3.505-.246-.572-.455-.637-2.337-.721-1.952-.088-2.162-.159-3.782-1.277-2.263-1.562-3.581-1.707-6.566-.722-3.237 1.069-4.434.806-5.195-1.139-.52-1.329-1.436-1.539-4.405-1.011-9.06 1.613-16.102-2.501-15.777-9.217.281-5.797 5.998-11.823 8.914-9.395.858.715 3.193.806 4.815.187 1.517-.579 2.215-.481 3.403.476 3.603 2.903 3.788 2.979 4.925 2.031s.866-3.091-.86-6.769c-3.203-6.826-.468-12.172 4.932-9.642 4.625 2.167 8.277-1.203 6.669-6.153-.964-2.967-.513-4.732 1.76-6.897 4.301-4.095 8.446-3.446 12.519 1.96 3.469 4.605 7.733 2.085 6.555-3.874-1.459-7.378 4.262-13.987 12.158-14.046 4.11-.031 6.167 1.588 6.564 5.165.347 3.131 3.351 3.664 5.488.975.632-.795.74-1.183 1.047-3.756.24-2.011 1.825-4 3.191-4.003.225-.001 3.129 1.488 6.453 3.308l6.567 3.485c1.676.563 1.59 1.131-.481 3.189-3.302 3.281-3.341 6.105-.103 7.526 1.353.594 1.514.557 5.683-1.316 4.936-2.217 8.32-.433 9.773 5.153.683 2.625 1.948 2.917 3.242.749 1.912-3.203 3.331-2.921 11.647 2.315 8.655 5.449 9.932 7.746 6.092 10.956-3.646 3.047-3.033 4.406 2.566 5.687 6.578 1.505 8.738 3.521 8.761 8.175.024 4.776-3.649 8.404-8.519 8.416-2.213.005-2.213.005-3.031 1.744-1.238 2.634-2.031 2.979-6.627 2.883-3.511-.073-3.546-.068-4.925.729-1.387.802-1.394.803-5.637.803-4.248 0-4.248 0-4.835 1.29-1.763 3.872-5.541 4.942-8.633 2.444-1.448-1.17-4.465-.527-7.809 1.663-3.725 2.44-4.999 2.7-8.825 1.804-6.892-1.614-6.277-1.563-9.374-.778-2.807.712-2.807.712-5.051.26-5.476-1.103-7.535-1.019-10.218.415-2.491 1.332-3.869 1.049-8.303-1.706-2.593-1.611-2.659-1.622-2.873-.486-.504 2.671-3.451 3.937-6.108 2.624z" fill="#a18b6e"/><path d="M100.871 158.474c-5.201-.731-8.34-3.443-9.131-7.889-1.503-8.441-7.501-9.315-11.172-1.627-4.57 9.571-16.781 8.195-19.612-2.209-2.112-7.761-7.827-9.901-14.101-5.282-3.347 2.464-3.049 2.347-5.988 2.347-10.656 0-16.378-13.509-11.517-27.188 1.476-4.152 3.235-5.869 6.812-6.645 1.376-.299 1.541-.421 2.745-2.044 2.701-3.64 5.506-4.606 8.885-3.061 1.687.772 2.195 1.528 1.273 1.897-4.842 1.934-7.017 3.286-6.781 4.216.485 1.906.586 3.033.45 5.022-.352 5.165 3.09 6.989 6.319 3.348 1.789-2.017 3.684-1.507 10.55 2.837 3.377 2.136 3.992 2.393 8.41 3.512 3.998 1.013 3.939.956 3.095 2.947-1.357 3.202-.662 4.634 2.334 4.813 3.062.183 3.77-.616 3.44-3.879-.327-3.236 12.917-1.716 20.238 2.323 4.63 2.555 7.04 2.7 14.991.902 6.37-1.44 9.652-1.436 14.144.019 7.492 2.426 7.181 2.358 10.987 2.38 4.137.023 4.952-.17 10.657-2.523 6.196-2.556 8.305-2.955 12.354-2.335 2.366.362 5.318.02 7.54-.875 1.693-.682 1.935-.655 2.804.315 2.356 2.628 6.94 3.159 8.211.951.562-.976.602-1.744.189-3.64-.396-1.818-.745-1.586 7.244-4.829 11.526-4.678 12.769-5.343 15.617-8.344 1.625-1.712 1.888-1.813 2.592-.989 3.941 4.612 9.837-1.11 6.799-6.6-.713-1.289-.695-1.986.052-1.992 2.056-.019-1.24-2.12-7.573-4.829-2.892-1.237-3.007-1.391-1.729-2.308 3.299-2.368 8.595-.665 13.139 4.225 1.286 1.384 1.286 1.384 3.171 1.062 8.466-1.447 12.562 8.049 9.329 21.631-2.693 11.314-11.731 16.431-18.739 10.61-5.445-4.523-9.387-2.544-16.217 8.142-5.489 8.587-8.514 10.579-16.544 10.887-7.267.279-9.772-.831-13.809-6.12-3.005-3.936-7.454-2.743-11.629 3.118-3.38 4.745-7.181 6.603-12.7 6.206-4.517-.324-6.507-1.973-8.477-7.024-3.504-8.979-12.09-8.041-17.281 1.888-2.221 4.249-4.376 6.01-8.04 6.572-1.592.244-1.992.252-3.33.063zm113.322-41.186c1.039-.996.267-2.767-1.205-2.767a1.66 1.66 0 0 0-1.617 1.605c0 1.383 1.813 2.129 2.822 1.162zM97.84 131.279c-1.267-.626-2.946-2.331-3.451-3.505-.246-.572-.455-.637-2.337-.721-1.952-.088-2.162-.159-3.782-1.277-2.263-1.562-3.581-1.707-6.566-.722-3.237 1.069-4.434.806-5.195-1.139-.52-1.329-1.436-1.539-4.405-1.011-9.06 1.613-16.102-2.501-15.777-9.217.281-5.797 5.998-11.823 8.914-9.395.858.715 3.193.806 4.815.187 1.517-.579 2.215-.481 3.403.476 3.603 2.903 3.788 2.979 4.925 2.031 1.128-.94.864-3.095-.82-6.685-3.149-6.712-.454-11.783 5.011-9.43 4.741 2.04 8.306-1.29 6.807-6.358-.927-3.132-.514-4.849 1.65-6.867 4.366-4.07 8.346-3.239 12.802 2.674 3.125 4.147 7.424.947 6.358-4.734-1.377-7.345 4.182-13.769 11.915-13.769 4.135 0 5.934 1.416 6.329 4.982.543 4.894 6.891 3.007 6.915-2.056.015-3.222 2.376-5.356 4.446-4.018.434.28 3.417 1.916 6.629 3.635 6.942 3.715 6.586 3.278 4.394 5.376-5.12 4.9-1.913 10.248 4.353 7.26 6.055-2.887 9.386-1.585 10.877 4.251.785 3.073 2.18 3.313 3.877.665 1.713-2.671 2.859-2.482 9.503 1.568 10.144 6.183 11.853 8.938 7.519 12.12-3.371 2.474-2.46 4.173 2.895 5.398 6.578 1.505 8.738 3.521 8.761 8.175.024 4.776-3.649 8.404-8.519 8.416-2.213.005-2.213.005-3.031 1.744-1.238 2.634-2.031 2.979-6.627 2.883-3.511-.073-3.546-.068-4.925.729-1.387.802-1.394.803-5.637.803-4.248 0-4.248 0-4.835 1.29-1.763 3.872-5.541 4.942-8.633 2.444-1.448-1.17-4.465-.527-7.809 1.663-3.725 2.44-4.999 2.7-8.825 1.804-6.892-1.614-6.277-1.563-9.374-.778-2.807.712-2.807.712-5.051.26-5.476-1.103-7.535-1.019-10.218.415-2.491 1.332-3.869 1.049-8.303-1.706-2.593-1.611-2.659-1.622-2.873-.486-.504 2.671-3.451 3.937-6.108 2.624z" fill="#cc903b"/><path d="M100.871 158.474c-5.201-.731-8.34-3.443-9.131-7.889-1.503-8.441-7.501-9.315-11.172-1.627-4.57 9.571-16.781 8.195-19.612-2.209-2.112-7.761-7.827-9.901-14.101-5.282-3.347 2.464-3.049 2.347-5.988 2.347-10.656 0-16.378-13.509-11.517-27.188 1.476-4.152 3.235-5.869 6.812-6.645 1.376-.299 1.541-.421 2.745-2.044 2.701-3.64 5.496-4.603 8.889-3.063 2.27 1.031 2.203 1.278-.691 2.541-5.166 2.255-5.362 2.441-4.833 4.592.276 1.122.344 2.249.24 3.979-.313 5.201 3.062 7.304 6.295 3.923 2.152-2.251 3.488-1.986 9.721 1.933 4.178 2.627 4.933 2.966 8.657 3.889 4.478 1.11 4.471 1.105 3.649 2.976-1.449 3.298-.365 5.077 3.094 5.074 2.691-.002 3.539-1.062 3.222-4.027-.338-3.162 12.717-1.577 19.972 2.425 4.603 2.539 7.008 2.693 14.865.949 7.441-1.652 9.736-1.574 16.134.544 8.394 2.778 11.827 2.653 19.788-.72 5.818-2.466 8.346-2.942 12.352-2.329 2.402.368 4.996.062 7.582-.894 1.552-.574 1.552-.574 3.031.648 4.21 3.479 9.022 2.382 8.536-1.945-.364-3.25-.942-2.675 5.218-5.194 13.049-5.335 14.093-5.871 16.965-8.712 2.105-2.082 2.176-2.115 2.859-1.315 3.981 4.66 10.115-1.331 7.045-6.88-.74-1.338-.685-1.593.399-1.845 1.508-.351-1.841-2.491-8.018-5.125-2.859-1.219-3.018-1.544-1.218-2.489 3.345-1.755 8.008-.114 12.21 4.295 1.576 1.654 1.576 1.654 3.451 1.333 8.456-1.445 12.55 8.058 9.319 21.633-2.693 11.314-11.731 16.431-18.739 10.61-5.445-4.523-9.387-2.544-16.217 8.142-5.489 8.587-8.514 10.579-16.544 10.887-7.267.279-9.772-.831-13.809-6.12-3.005-3.936-7.454-2.743-11.629 3.118-3.38 4.745-7.181 6.603-12.7 6.206-4.517-.324-6.507-1.973-8.477-7.024-3.504-8.979-12.09-8.041-17.281 1.888-2.221 4.249-4.376 6.01-8.04 6.572-1.592.244-1.992.252-3.33.063zm113.532-41.011c1.139-1.206.283-3.21-1.371-3.21-.926 0-1.913.966-1.913 1.873 0 1.578 2.208 2.477 3.283 1.338zM97.846 131.089c-1.283-.678-2.572-1.989-3.177-3.232-.475-.975-.475-.975-2.574-1.07-1.969-.089-2.216-.169-3.981-1.299-2.263-1.448-4.036-1.596-6.742-.565-2.472.943-3.554.74-4.496-.841-1.034-1.737-1.895-2.009-4.531-1.432-7.093 1.554-14.316-1.402-15.694-6.421-1.565-5.702 4.61-14.208 8.543-11.767 1.326.823 2.578.888 4.835.251 1.956-.552 2.458-.417 4.195 1.129 4.953 4.41 6.708.489 3.004-6.712-2.854-5.55.305-10.428 5.347-8.258 4.741 2.04 8.306-1.29 6.807-6.358-.927-3.132-.514-4.849 1.65-6.867 4.366-4.07 8.346-3.239 12.802 2.674 3.125 4.147 7.424.947 6.358-4.734-1.377-7.345 4.182-13.769 11.915-13.769 4.135 0 5.934 1.416 6.329 4.982.543 4.894 6.891 3.007 6.915-2.056.015-3.222 2.376-5.356 4.446-4.018.434.28 3.417 1.916 6.629 3.635 6.942 3.715 6.586 3.278 4.394 5.376-5.12 4.9-1.913 10.248 4.353 7.26 6.055-2.887 9.386-1.585 10.877 4.251.785 3.073 2.18 3.313 3.877.665 1.713-2.671 2.859-2.482 9.503 1.568 10.255 6.25 11.721 8.582 7.475 11.883-3.53 2.745-2.702 4.493 2.741 5.791 6.779 1.616 8.705 3.359 8.706 7.881.001 4.978-3.241 8.29-8.116 8.292-2.647.001-2.455-.113-3.476 2.062-1.13 2.409-1.628 2.621-6.155 2.621-3.431 0-3.693.038-5.055.736-1.37.702-1.639.74-5.794.82-4.357.084-4.357.084-4.898 1.416-1.452 3.575-5.028 4.664-8.107 2.47-2.014-1.436-4.589-.858-9.144 2.051-3.124 1.995-4.542 2.112-9.739.801-3.719-.938-5.308-.993-7.703-.268-2.205.668-2.592.666-6.026-.03-3.913-.793-6.606-.644-8.789.487-.881.456-1.805.899-2.053.984-.919.315-2.993-.453-5.746-2.127-3.314-2.015-3.395-2.03-3.791-.718-.807 2.668-3.445 3.764-5.918 2.458zm3.335-23.515c2.87-1.38 2.769-5.322-.177-6.898-2.85-1.525-6.069.132-6.069 3.124 0 3.184 3.312 5.185 6.246 3.774zm53.702-4.422c3.506-1.765 3.469-3.399-.151-6.59-2.586-2.28-3.66-1.306-3.922 3.557-.201 3.741.955 4.602 4.072 3.033zm-25.816-5.445c5.742-2.924 5.793-5.6.181-9.561-5.869-4.142-8.04-3.483-8.044 2.442-.005 7.045 2.879 9.656 7.863 7.119zm9.816-13.806c4.462-1.02 4.535-1.785.6-6.288-3.702-4.235-4.227-4.258-9.171-.404-1.805 1.407-1.849 1.653-.729 4.062 1.656 3.563 3.247 4.013 9.3 2.629zm-16.7-7.274c.994-2.303 1.766-4.23 1.716-4.283-.155-.165-5.478-1.247-5.58-1.134-.144.16-1.23 8.278-1.123 8.392.163.173 2.606 1.182 2.898 1.197.154.008 1.094-1.869 2.088-4.172z" fill="#b48830"/><path d="M100.871 158.474c-5.201-.731-8.34-3.443-9.131-7.889-1.503-8.441-7.501-9.315-11.172-1.627-4.57 9.571-16.781 8.195-19.612-2.209-2.112-7.761-7.827-9.901-14.101-5.282-3.347 2.464-3.049 2.347-5.988 2.347-10.656 0-16.378-13.509-11.517-27.188 1.476-4.152 3.235-5.869 6.812-6.645 1.376-.299 1.541-.421 2.745-2.044 2.701-3.64 5.496-4.603 8.889-3.063 2.1.953 2.005 1.128-1.461 2.683-4.193 1.881-4.898 2.501-4.489 3.945.167.591.304 2.446.304 4.124 0 6.174 3.667 8.347 7.147 4.236 1.594-1.883 3.138-1.454 9.816 2.724 3.567 2.232 4.548 2.654 8.323 3.579 3.824.937 3.711.845 3.042 2.492-1.385 3.41-.147 5.392 3.369 5.392 3.318 0 4.466-1.707 3.493-5.192-.137-.491-.009-.504 3.36-.332 7.471.38 13.03 1.78 16.783 4.226 3.395 2.213 6.486 2.372 14.308.738 8.189-1.711 10.599-1.572 18.127 1.04 6.25 2.169 10.565 1.89 17.839-1.153 5.385-2.252 6.97-2.665 9.817-2.556 6.264.24 7.853.142 9.939-.614 1.983-.718 1.983-.718 2.996.251 2.894 2.769 7.331 3.072 8.795.599.515-.87.548-1.677.191-4.715-.064-.547.163-.715 1.948-1.438 15.168-6.149 17.593-7.355 20.492-10.2 1.832-1.798 1.507-1.736 3.11-.593 4.611 3.287 9.427-1.932 6.934-7.514-.362-.81-.617-1.508-.568-1.552s.43-.197.847-.34c1.638-.561-.175-1.815-7.409-5.126-3.822-1.749-3.865-1.803-2.17-2.707 3.305-1.762 7.993-.11 12.19 4.295 1.576 1.654 1.576 1.654 3.451 1.333 8.456-1.445 12.55 8.058 9.319 21.633-2.693 11.314-11.731 16.431-18.739 10.61-5.445-4.523-9.387-2.544-16.217 8.142-5.489 8.587-8.514 10.579-16.544 10.887-7.267.279-9.772-.831-13.809-6.12-3.005-3.936-7.454-2.743-11.629 3.118-3.38 4.745-7.181 6.603-12.7 6.206-4.517-.324-6.507-1.973-8.477-7.024-3.504-8.979-12.09-8.041-17.281 1.888-2.221 4.249-4.376 6.01-8.04 6.572-1.592.244-1.992.252-3.33.063zm113.721-40.81c.808-.799.774-2.311-.07-3.151-1.869-1.86-4.717.69-3.25 2.909.805 1.217 2.228 1.32 3.32.241zM97.84 130.93c-1.09-.607-2.346-1.925-3.069-3.221-.626-1.123-.626-1.123-2.441-1.074-1.927.052-2.221-.054-4.671-1.69-1.665-1.111-3.588-1.194-6.216-.268-2.817.993-3.991.731-4.686-1.047-.579-1.48-1.805-1.632-6.688-.827-4.839.797-11.084-1.848-12.806-5.425-2.573-5.342 3.897-15.827 7.854-12.728 1.08.846 2.699.937 4.775.269 1.998-.643 2.492-.551 3.863.719 5.397 4.997 7.417 1.498 3.72-6.446-2.87-6.166-.16-10.585 5.102-8.321 4.741 2.04 8.306-1.29 6.807-6.358-.927-3.132-.514-4.849 1.65-6.867 4.366-4.07 8.346-3.239 12.802 2.674 3.125 4.147 7.424.947 6.358-4.734-1.377-7.345 4.182-13.769 11.915-13.769 4.135 0 5.934 1.416 6.329 4.982.543 4.894 6.891 3.007 6.915-2.056.015-3.222 2.376-5.356 4.446-4.018.434.28 3.417 1.916 6.629 3.635 6.942 3.715 6.586 3.278 4.394 5.376-5.12 4.9-1.913 10.248 4.353 7.26 6.055-2.887 9.386-1.585 10.877 4.251.785 3.073 2.18 3.313 3.877.665 1.713-2.671 2.859-2.482 9.503 1.568 10.087 6.148 11.682 8.524 7.704 11.479-4.137 3.074-3.296 5.014 2.804 6.471 1.801.43 3.834 1.037 4.517 1.348 7.074 3.223 3.545 14.972-4.304 14.33-2.317-.189-2.471-.097-3.412 2.047-1.049 2.391-1.494 2.584-5.972 2.585-3.589.001-3.752.026-5.304.803-1.581.792-1.656.802-5.835.803-4.234 0-4.234 0-4.82 1.405-1.518 3.636-5.054 4.723-8.109 2.495-1.89-1.379-4.666-.814-8.495 1.729-3.546 2.355-4.923 2.498-10.493 1.093-3.884-.98-4.912-1.023-7.292-.302-2.234.677-3.321.672-6.79-.031-3.858-.782-5.705-.632-8.459.685-2.906 1.39-3.589 1.236-8.742-1.965-1.984-1.233-2.656-1.371-2.656-.548 0 2.612-3.484 4.386-5.935 3.021zm3.647-23.09c1.317-.711 2.036-2.003 2.036-3.656 0-4.894-7.388-6.11-8.809-1.45-1.138 3.73 3.229 7.021 6.773 5.106zm53.506-4.394c3.629-1.952 3.775-3.28.705-6.405-3.226-3.284-4.398-2.849-5.197 1.93-.76 4.544 1.037 6.334 4.492 4.475zm-25.922-5.345c6.096-3.057 6.251-5.904.547-10.081-6.669-4.883-9.657-3.241-8.658 4.758.705 5.642 3.637 7.566 8.11 5.323zm9.498-13.816c5.41-1.127 5.457-2.401.288-7.806-3.328-3.48-3.652-3.466-8.626.388-2.05 1.588-2.125 2.009-.845 4.688 1.752 3.666 2.962 4.026 9.182 2.729zm-16.133-7.432c2.003-4.651 2.039-4.798 1.229-4.997-3.52-.865-5.74-1.151-5.752-.74-.003.11-.228 1.766-.499 3.678-.752 5.297-.797 5.05 1.073 5.818 2.079.854 1.881 1.042 3.949-3.759z" fill="#937452"/><path d="M100.432 158.116c-4.554-.812-7.718-3.437-8.323-6.903-1.654-9.487-7.719-10.644-11.812-2.255-4.606 9.442-16.029 7.873-19.227-2.641-2.634-8.657-8.246-9.889-16.35-3.588-3.38 2.628-10.177.351-13.66-4.574-6.301-8.911-3.285-26.129 4.89-27.916 1.584-.346 1.916-.62 3.989-3.289 2.002-2.577 5.086-3.273 7.884-1.781 1.668.89 1.608.977-1.751 2.517-4.038 1.852-4.633 2.388-4.231 3.807.168.594.306 2.453.306 4.13 0 6.174 3.667 8.347 7.147 4.236 1.594-1.883 3.138-1.454 9.816 2.724 3.567 2.232 4.548 2.654 8.323 3.579 3.824.937 3.711.845 3.042 2.492-1.385 3.41-.147 5.392 3.369 5.392 3.318 0 4.466-1.707 3.493-5.192-.137-.491-.009-.504 3.36-.332 7.471.38 13.03 1.78 16.783 4.226 3.395 2.213 6.486 2.372 14.308.738 8.189-1.711 10.599-1.572 18.127 1.04 6.25 2.169 10.565 1.89 17.839-1.153 5.385-2.252 6.97-2.665 9.817-2.556 6.264.24 7.853.142 9.939-.614 1.983-.718 1.983-.718 2.996.251 2.894 2.769 7.331 3.072 8.795.599.515-.87.548-1.677.191-4.715-.064-.547.163-.715 1.948-1.438 15.168-6.149 17.593-7.355 20.492-10.2 1.832-1.798 1.507-1.736 3.11-.593 4.611 3.287 9.427-1.932 6.934-7.514-.362-.81-.617-1.508-.568-1.552s.43-.197.847-.34c1.644-.563-.366-1.946-7.514-5.168-3.624-1.634-3.622-1.632-2.147-2.458 3.188-1.785 8.15-.038 12.257 4.317 1.586 1.681 1.586 1.681 3.238 1.351 9.272-1.853 13.479 10.8 8.274 24.884-3.085 8.348-11.22 11.803-16.911 7.183-6.046-4.909-10.09-3.041-16.887 7.799-5.703 9.094-9.281 11.212-18.419 10.901-6.016-.205-7.814-1.034-10.88-5.016-3.858-5.012-8.016-4.383-12.527 1.893-6.648 9.25-17.124 8.95-20.996-.602-3.854-9.509-12.604-8.162-18.177 2.8-2.256 4.436-6.223 6.407-11.134 5.531zm114.16-40.453c.808-.799.774-2.311-.07-3.151-1.869-1.86-4.717.69-3.25 2.909.805 1.217 2.228 1.32 3.32.241zM97.84 130.93c-1.09-.607-2.346-1.925-3.069-3.221-.626-1.123-.626-1.123-2.441-1.074-1.927.052-2.221-.054-4.671-1.69-1.665-1.111-3.588-1.194-6.216-.268-2.817.993-3.991.731-4.686-1.047-.579-1.48-1.805-1.632-6.688-.827-4.839.797-11.084-1.848-12.806-5.425-2.573-5.342 3.897-15.827 7.854-12.728 1.08.846 2.699.937 4.775.269 1.998-.643 2.492-.551 3.863.719 5.279 4.888 7.447 1.422 3.852-6.159-2.858-6.027-.271-10.652 4.77-8.527 2.996 1.262 4.686.924 6.601-1.321 1.408-1.65 1.418-1.883.277-6.203-.741-2.805.626-5.275 3.98-7.191 3.644-2.082 6.761-.875 10.273 3.981 2.735 3.781 7.456 1.754 6.979-2.997-.576-5.744-.371-7.058 1.562-10.033 4.47-6.881 15.339-7.243 16.227-.541.686 5.178 6.54 3.859 7.186-1.619.349-2.961 1.355-4.552 2.873-4.545.557.003 13.304 6.73 13.853 7.31.093.099-.695 1.051-1.751 2.117-4.788 4.832-1.5 10.183 4.517 7.349 6.277-2.956 9.144-1.957 10.891 3.797 1.059 3.488 2.444 3.836 4.138 1.041 1.655-2.733 4.082-2.096 11.983 3.142 7.739 5.131 8.706 7.158 4.778 10.021-3.724 2.714-2.658 4.77 3.2 6.169 1.801.43 3.834 1.037 4.517 1.348 7.074 3.223 3.545 14.972-4.304 14.33-2.317-.189-2.471-.097-3.412 2.047-1.049 2.391-1.494 2.584-5.972 2.585-3.589.001-3.752.026-5.304.803-1.581.792-1.656.802-5.835.803-4.234 0-4.234 0-4.82 1.405-1.518 3.636-5.054 4.723-8.109 2.495-1.89-1.379-4.666-.814-8.495 1.729-3.546 2.355-4.923 2.498-10.493 1.093-3.884-.98-4.912-1.023-7.292-.302-2.234.677-3.321.672-6.79-.031-3.858-.782-5.705-.632-8.459.685-2.906 1.39-3.589 1.236-8.742-1.965-1.984-1.233-2.656-1.371-2.656-.548 0 2.612-3.484 4.386-5.935 3.021zm3.647-23.09c1.317-.711 2.036-2.003 2.036-3.656 0-4.894-7.388-6.11-8.809-1.45-1.138 3.73 3.229 7.021 6.773 5.106zm53.506-4.394c3.629-1.952 3.775-3.28.705-6.405-3.226-3.284-4.398-2.849-5.197 1.93-.76 4.544 1.037 6.334 4.492 4.475zm-25.922-5.345c6.096-3.057 6.251-5.904.547-10.081-6.669-4.883-9.657-3.241-8.658 4.758.705 5.642 3.637 7.566 8.11 5.323zm9.498-13.816c5.41-1.127 5.457-2.401.288-7.806-3.328-3.48-3.652-3.466-8.626.388-2.05 1.588-2.125 2.009-.845 4.688 1.752 3.666 2.962 4.026 9.182 2.729zm-16.133-7.432c2.003-4.651 2.039-4.798 1.229-4.997-3.52-.865-5.74-1.151-5.752-.74-.003.11-.228 1.766-.499 3.678-.752 5.297-.797 5.05 1.073 5.818 2.079.854 1.881 1.042 3.949-3.759z" fill="#957123"/><path d="M100.432 158.116c-4.554-.812-7.718-3.437-8.323-6.903-1.654-9.487-7.719-10.644-11.812-2.255-4.606 9.442-16.029 7.873-19.227-2.641-2.484-8.165-9.656-10.044-15.64-4.097-2.632 2.616-7.525 2.018-11.956-1.461-8.835-6.936-7.092-28.428 2.476-30.52 1.578-.345 2.047-.728 3.871-3.162 1.87-2.494 4.89-3.337 7.63-2.128 1.853.817 1.759 1.138-.644 2.18-4.66 2.02-4.872 2.207-6.363 5.607-2.997 6.834-3.178 13.012-.504 17.186 2.375 3.709 5.245 3.366 9.433-1.127 6.383-6.848 14.137-4.427 16.766 5.233 3.159 11.608 7.982 13.111 13.534 4.219 4.025-6.447 5.843-7.592 10.513-6.619 3.624.755 4.57 1.87 6.254 7.368 2.968 9.689 8.484 10.497 13.699 2.006 4.135-6.732 11.188-9.372 18.262-6.837 2.994 1.073 3.44 1.456 5.164 4.426 4.082 7.036 8.115 8.295 11.705 3.653 7.143-9.235 16.334-12.347 20.868-7.066 3.66 4.263 5.221 5.41 7.799 5.734 3.822.479 6.414-1.849 9.632-8.653 5.048-10.673 16.196-15.162 23.627-9.516 10.259 7.795 17.745-8.747 7.794-17.22-.67-.571-1.376-1.262-1.568-1.535-.387-.551-6.659-3.876-9.627-5.103-2.487-1.029-2.519-1.075-1.23-1.785 3.259-1.795 8.162-.083 12.287 4.291 1.586 1.681 1.586 1.681 3.238 1.351 9.272-1.853 13.479 10.8 8.274 24.884-3.085 8.348-11.22 11.803-16.911 7.183-6.046-4.909-10.09-3.041-16.887 7.799-5.703 9.094-9.281 11.212-18.419 10.901-6.016-.205-7.814-1.034-10.88-5.016-3.858-5.012-8.016-4.383-12.527 1.893-6.648 9.25-17.124 8.95-20.996-.602-3.854-9.509-12.604-8.162-18.177 2.8-2.256 4.436-6.223 6.407-11.134 5.531zm-1.998-27.115c-1.466-.555-3.609-2.787-4.065-4.235-.046-.147-.993-.284-2.103-.305-1.914-.035-2.114-.098-3.876-1.226-2.463-1.577-3.912-1.722-6.952-.696-2.784.939-3.307.859-4.31-.656-1.243-1.877-1.707-2.056-4.211-1.627-11.716 2.008-18.936-3.927-15.108-12.42 1.843-4.091 5.075-6.383 7.168-5.084 1.388.861 2.753.927 5.216.251 1.944-.534 1.962-.527 4.631 1.706 4.404 3.685 6.142-.164 3.085-6.833-3.078-6.714-.749-11.098 4.648-8.751 4.811 2.092 8.621-1.443 7.075-6.566-.992-3.29-.385-5.29 2.222-7.317 3.904-3.035 7.806-2.238 10.971 2.242 3.717 5.261 8.872 2.732 7.613-3.735-1.487-7.642 4.307-13.99 12.427-13.614 3.627.168 4.929 1.331 5.378 4.807.675 5.23 7.267 3.155 7.352-2.314.048-3.059 2.207-4.925 4.205-3.634.435.281 3.418 1.919 6.63 3.641 6.646 3.563 6.269 3.163 4.443 4.702-5.337 4.499-2.128 11.127 3.922 8.101 6.104-3.052 9.367-2.015 10.884 3.46 1.1 3.972 2.275 4.087 4.98.491 1.329-1.767 5.124-.413 11.92 4.255 6.983 4.796 7.826 6.436 4.662 9.07-4.344 3.616-3.693 5.411 2.478 6.826 6.539 1.499 8.375 3.144 8.378 7.507.004 4.708-3.322 8.033-7.941 7.939-2.559-.052-2.517-.075-3.444 1.924-1.192 2.572-1.475 2.7-5.984 2.706-3.74.005-3.869.025-5.348.803-1.497.787-1.566.797-5.683.797-4.526 0-4.683.038-4.919 1.176-.728 3.512-5.226 5.018-8.01 2.683-1.702-1.428-5.038-.66-9.171 2.109-2.838 1.902-4.971 2.06-9.971.741-3.547-.936-4.785-.964-7.728-.175-2.292.614-2.292.614-5.051.073-5.456-1.07-7.127-.988-9.772.479-2.466 1.368-3.602 1.108-8.641-1.973-2.398-1.466-2.567-1.488-2.792-.363-.549 2.75-2.682 3.995-5.208 3.039zm2.446-22.722c3.664-1.501 3.864-6.067.351-8.027-3.963-2.211-8.217 1.529-6.387 5.614.964 2.152 3.852 3.307 6.035 2.413zm53.531-4.366c3.977-1.435 4.499-3.724 1.536-6.736-3.608-3.669-5.273-2.901-5.629 2.593-.275 4.247.798 5.333 4.093 4.143zm-25.329-5.673c6.161-3.114 6.429-6.1.911-10.127-6.428-4.691-8.965-4.199-9.24 1.795-.352 7.679 2.996 11.028 8.329 8.332zm9.709-13.791c4.978-1.121 5.266-2.027 1.925-6.06-4.273-5.157-5.11-5.497-8.251-3.35-4.443 3.036-4.665 3.468-3.311 6.449 1.711 3.769 3.547 4.333 9.637 2.961zM122.573 76.9c2.332-5.34 2.421-4.966-1.365-5.738-3.681-.751-3.301-1.148-4.017 4.19-.628 4.684-.665 4.504 1.077 5.343 2.253 1.085 2.125 1.198 4.305-3.794z" fill="#975620"/><path d="M100.432 158.116c-4.554-.812-7.718-3.437-8.323-6.903-1.654-9.487-7.719-10.644-11.812-2.255-4.606 9.442-16.029 7.873-19.227-2.641-2.484-8.165-9.656-10.044-15.64-4.097-2.632 2.616-7.525 2.018-11.956-1.461-8.835-6.936-7.092-28.428 2.476-30.52 1.578-.345 2.047-.728 3.871-3.162 1.87-2.494 4.89-3.337 7.63-2.128 1.853.817 1.759 1.138-.644 2.18-4.66 2.02-4.872 2.207-6.363 5.607-2.997 6.834-3.178 13.012-.504 17.186 2.375 3.709 5.245 3.366 9.433-1.127 6.383-6.848 14.137-4.427 16.766 5.233 3.159 11.608 7.982 13.111 13.534 4.219 4.025-6.447 5.843-7.592 10.513-6.619 3.624.755 4.57 1.87 6.254 7.368 2.968 9.689 8.484 10.497 13.699 2.006 4.135-6.732 11.188-9.372 18.262-6.837 2.994 1.073 3.44 1.456 5.164 4.426 4.082 7.036 8.115 8.295 11.705 3.653 7.143-9.235 16.334-12.347 20.868-7.066 3.66 4.263 5.221 5.41 7.799 5.734 3.822.479 6.414-1.849 9.632-8.653 5.048-10.673 16.196-15.162 23.627-9.516 10.259 7.795 17.745-8.747 7.794-17.22-.67-.571-1.376-1.262-1.568-1.535-.387-.551-6.659-3.876-9.627-5.103-2.487-1.029-2.519-1.075-1.23-1.785 3.259-1.795 8.162-.083 12.287 4.291 1.586 1.681 1.586 1.681 3.238 1.351 9.272-1.853 13.479 10.8 8.274 24.884-3.085 8.348-11.22 11.803-16.911 7.183-6.046-4.909-10.09-3.041-16.887 7.799-5.703 9.094-9.281 11.212-18.419 10.901-6.016-.205-7.814-1.034-10.88-5.016-3.858-5.012-8.016-4.383-12.527 1.893-6.648 9.25-17.124 8.95-20.996-.602-3.854-9.509-12.604-8.162-18.177 2.8-2.256 4.436-6.223 6.407-11.134 5.531zm-2.058-27.137c-1.17-.442-2.748-2.003-3.522-3.485-.559-1.07-.559-1.07-2.574-1.07-1.953 0-2.07-.037-3.784-1.192-2.364-1.594-4.028-1.746-7.298-.666-2.649.875-3.283.751-4.104-.8-.98-1.851-2.041-2.09-5.879-1.323-6.102 1.218-13.004-1.797-14.165-6.188-1.443-5.458 4.661-14.16 7.988-11.388 1.019.849 2.355.93 4.768.29 2.391-.635 2.567-.595 4.167.944 4.997 4.803 7.335.934 3.906-6.464-1.468-3.167-1.684-4.413-1.091-6.278.55-1.728.603-1.711 3.263 1.033 4.335 4.472 4.719 6.919 1.99 12.668-2.961 6.239-.438 8.263 5.704 4.575 4.543-2.728 6.05-2.381 12.032 2.772 4.01 3.454 6.65 2.067 10.567-5.55 4.35-8.459 8.301-9.318 18.14-3.942 4.212 2.301 4.938 2.478 5.869 1.429 2.231-2.516 4.859-2.705 10.613-.764 9.11 3.072 11.057 3.031 13.738-.294 2.059-2.552 3.675-3.2 6.86-2.749 1.66.235 2.047.206 2.959-.218 10.347-4.819 13.072-11.883 7.55-19.566-1.011-1.407-.074-1.13 3.488 1.032 9.576 5.811 11.163 8.045 7.686 10.816-4.49 3.578-3.696 5.678 2.667 7.056 6.005 1.301 8.055 3.134 8.069 7.215.016 4.909-3.109 8.113-7.837 8.033-2.669-.045-2.56-.108-3.528 2.04-1.13 2.509-1.529 2.683-5.904 2.588-3.51-.076-3.51-.076-5.178.797s-1.668.873-5.957.879-4.289.006-4.884 1.343c-1.724 3.877-6.128 5.014-8.365 2.16-1.042-1.33-5.201-.029-9.844 3.078-1.788 1.197-4.291 1.249-8.384.175-4.171-1.094-4.894-1.141-7.32-.468-2.599.721-3.78.741-6.546.113-3.747-.851-6.557-.694-8.928.498-2.925 1.471-3.557 1.358-8.142-1.452-3.08-1.888-3.28-1.911-3.652-.426-.638 2.547-2.72 3.662-5.136 2.749zm41.582-31.084c-4.622-2.093-4.489-1.513-1.549-6.791 3.241-5.817 2.96-5.911 4.883 1.636 2.054 8.063 2.288 7.701-3.334 5.155zm-31.066-3.059c-2.284-2.022-2.294-1.902.475-5.525 3.278-4.288 3.427-4.199 2.872 1.728-.603 6.443-.495 6.322-3.347 3.796zm55.566-.387c-3.031-1.94 2.325-6.633 5.919-5.186.946.381.709.849-1.7 3.356-2.598 2.703-2.751 2.77-4.219 1.83zm-6.377-6.144c-3.486-2.119-4.651-6.604-1.518-5.839 4.196 1.024 6.982 5.416 4.495 7.087-.457.307-.334.359-2.977-1.248z" fill="#8d521d"/><path d="M99.043 157.713c-4.205-1.199-6.366-3.453-7.006-7.303-1.428-8.602-8.012-9.525-11.752-1.647-4.425 9.322-16.33 7.903-19.08-2.274-2.235-8.273-8.541-10.162-15.456-4.631-8.176 6.539-19.36-4.531-17.768-17.587 1.069-8.768 3.296-12.751 7.747-13.85 1.985-.491 2.474-.785 3.111-1.877 2.142-3.671 5.908-5.009 9.13-3.245 1.089.597.978.725-1.591 1.829-4.286 1.842-4.717 2.223-6.196 5.484-6.333 13.958.562 26.148 9.335 16.504 2.624-2.885 3.785-3.443 7.153-3.443 5.259 0 7.417 1.937 9.081 8.151 3.206 11.972 8.4 13.801 13.964 4.917 6.187-9.879 13.121-9.974 16.228-.222 3.456 10.849 8.899 11.673 14.756 2.236 4.154-6.694 11.946-9.079 19.092-5.845 1.541.697 2.113 1.32 3.493 3.805 4.515 8.126 8.357 8.643 13.717 1.845 6.275-7.957 15.236-9.887 19.749-4.253 6.035 7.535 12.27 6.538 16.464-2.633 5.341-11.679 16.18-16.469 23.943-10.581 6.279 4.762 11.958 2.02 12.463-6.018.522-8.31-3.434-12.962-15.506-18.231-1.218-.532-2.261-1.012-2.316-1.066-.355-.35 2.318-1.168 3.833-1.173 3.034-.01 5.613 1.353 9.173 4.85 1.763 1.732 1.871 1.794 2.673 1.551 9.013-2.738 13.735 9.041 9.276 23.138-3.021 9.551-11.239 13.53-17.479 8.465-5.904-4.793-10.081-2.767-16.974 8.229-5.102 8.139-8.239 10.254-15.806 10.66-6.707.36-10.157-.943-13.034-4.921-1.925-2.662-2.959-3.289-5.418-3.289-3.181 0-4.372.867-8.015 5.834-6.111 8.332-16.607 7.687-20.207-1.24-3.714-9.213-12.111-8.586-17.564 1.311-2.007 3.642-2.402 4.183-3.771 5.165-2.381 1.707-6.264 2.266-9.443 1.359zm-.817-26.904c-1.177-.498-2.299-1.618-3.071-3.067-.425-.798-.904-1.455-1.064-1.46l-2.067-.067c-1.609-.052-1.95-.169-3.64-1.251-2.439-1.561-4.003-1.72-6.93-.702-2.916 1.014-3.29.96-4.204-.615-1.062-1.828-1.776-2.097-4.388-1.652-11.561 1.971-18.585-3.759-14.829-12.096 1.795-3.984 4.87-6.166 6.907-4.902 1.351.838 2.999.913 5.37.244 1.786-.504 1.631-.567 4.672 1.917 4.37 3.571 6.191-.709 3.138-7.373-2.923-6.38-1.973-8.83 1.835-4.731 3.925 4.225 4.197 6.154 1.649 11.709-3.107 6.774-.04 9.445 6.232 5.427 4.422-2.833 5.482-2.545 12.577 3.416 3.276 2.753 6.474.82 10.182-6.153 4.605-8.662 8.029-9.401 18.044-3.898 4.209 2.313 4.765 2.414 6.139 1.113 2.637-2.498 4.623-2.483 12.061.089 7.028 2.431 9.196 2.227 12.246-1.152 2.241-2.483 2.772-2.701 6.051-2.491 3.14.201 4.082-.155 8.349-3.163 6.379-4.496 7.391-8.323 4.088-15.459-1.155-2.496-1.145-2.498 2.211-.428 9.411 5.804 10.749 7.75 7.225 10.51-4.425 3.466-3.657 5.786 2.358 7.125 5.677 1.264 7.783 2.694 8.36 5.678.997 5.165-2.468 9.445-7.561 9.34-2.488-.051-3.008.201-3.521 1.712-.933 2.748-1.646 3.088-6.268 2.988-3.428-.074-3.505-.063-4.997.727-1.487.788-1.591.803-5.557.825l-4.344.067c-.167.025-.657.831-1.09 1.791-1.59 3.53-4.877 4.375-7.718 1.984-1.673-1.408-4.81-.693-9.187 2.095-3.102 1.976-4.161 2.078-9.18.887-4.131-.981-5.627-1.024-8.323-.242-2.18.633-2.447.618-7.973-.443-2.677-.514-4.875-.225-6.965.917-2.498 1.365-3.374 1.18-8.079-1.7-2.835-1.735-3.213-1.774-3.491-.357-.51 2.602-2.835 3.86-5.247 2.84zm41.983-31.327c-4.257-1.917-4.107-1.259-1.401-6.142 2.492-4.495 2.452-4.461 2.967-2.561 1.04 3.841 2.412 9.466 2.412 9.889 0 .628.152.674-3.978-1.186zm-30.898-2.898c-2.112-1.783-2.118-1.688.284-4.799 2.351-3.045 2.624-3.205 2.414-1.407-.082.699-.274 2.595-.426 4.213-.346 3.671-.316 3.644-2.272 1.993zm55.397-.552c-1.646-1.117 1.458-4.979 3.757-4.675 2.373.314 2.371.423-.06 2.966-2.367 2.476-2.486 2.531-3.697 1.709zm-6.528-6.214c-2.568-1.592-2.628-1.663-2.623-3.084.011-3.491 5.136-1.621 5.247 1.914.088 2.803.043 2.823-2.623 1.17z" fill="#6a4516"/><path d="M98.612 130.716c-1.638-.632-3.472-2.571-3.991-4.218-.075-.237-.725-.344-2.132-.352-1.933-.011-2.106-.064-3.842-1.175-2.773-1.775-3.937-1.874-7.683-.657-2.284.742-3.037.643-3.468-.459-.822-2.102-2.349-2.496-6.556-1.69-4.87.933-10.79-1.091-12.894-4.409-3.193-5.036 2.535-14.964 7.191-12.463 1.497.804 2.257.828 4.708.146 2.145-.597 1.943-.667 4.792 1.659 4.753 3.879 6.754-.616 3.398-7.634-1.463-3.06-1.687-4.28-1.109-6.037.355-1.079.086-1.24 2.962 1.766 3.755 3.924 4.044 5.979 1.616 11.484-3.169 7.186.004 9.775 6.563 5.353 3.336-2.249 5.249-2.065 8.857.85l3.391 2.74c3.244 2.621 6.459.91 9.679-5.15 3.785-7.126 4.894-8.116 9.088-8.119 2.667-.002 4.255.431 6.888 1.874l3.84 2.102c2.884 1.577 3.758 1.622 5.103.267 2.432-2.451 4.29-2.367 13.05.593 5.933 2.005 8.526 1.615 11.186-1.683 1.808-2.241 2.661-2.585 5.886-2.372 4.211.279 11.762-4.328 13.793-8.415.983-1.979.39-6.768-1.271-10.266-.461-.971-.774-1.765-.695-1.765.947 0 8.671 5.347 10.479 7.254s1.876 2.523.41 3.766c-5.089 4.32-5.023 6.575.229 7.828 4.302 1.026 5.279 1.308 6.343 1.834 6.478 3.197 3.329 13.109-4.183 13.17-2.905.024-3.21.173-3.67 1.798a6.03 6.03 0 0 1-1.104 1.975c-.892 1.002-.839.993-5.598.903-2.733-.052-2.899-.022-4.513.811-1.676.865-1.676.865-5.907.825-4.583-.044-4.506-.067-5.008 1.515-1.004 3.159-4.845 4.668-7.058 2.772-2.251-1.928-5.896-1.276-10.178 1.82-.944.682-2.073 1.236-2.893 1.418-1.404.312-1.269.332-8.817-1.336-1.894-.419-2.111-.416-4.041.048-3.201.77-4.668.796-7.933.14-3.962-.796-5.889-.647-8.477.654-2.706 1.36-3.27 1.249-7.83-1.544-3.003-1.839-3.451-1.939-3.768-.842-.902 3.121-2.438 4.145-4.832 3.221zm41.597-31.38c-2.002-.9-3.347-1.653-3.347-1.875 0-.666 4.192-8.016 4.429-7.765.104.11 2.893 10.818 2.895 11.115.002.233-1.026-.148-3.978-1.474zm-31.003-2.992c-1.878-1.618-1.906-1.36.466-4.437 2.383-3.092 2.328-3.123 1.958 1.138-.468 5.386-.287 5.14-2.424 3.3zm55.484-.559c-.774-.5.814-3.313 2.489-4.409.201-.132 2.793.367 3.01.579.203.198-3.879 4.374-4.274 4.373-.212-.001-.763-.245-1.225-.543zm-6.674-6.225c-3.952-2.444-3.323-5.287.821-3.714 1.894.719 1.894.719 1.894 2.837 0 2.581.026 2.573-2.715.878z" fill="#6d3b14"/><path d="M98.035 130.401c-1.657-.865-4.114-4.467-4.104-6.017.027-4.343 4.373-5.711 7.656-2.41 4.054 4.076 1.179 10.898-3.552 8.428zm25.946-1.208c-4.663-1.04-6.502-3.927-4.505-7.075 3.5-5.516 17.218-5.347 18.531.229.619 2.63-2.02 5.697-5.47 6.356-.886.169-2.231.478-2.989.687-1.772.487-2.636.456-5.567-.197zm33.932-1.898c-2.846-1.663-3.375-2.484-3.365-5.222.019-5.302 5.483-7.865 8.921-4.185 1.283 1.373 2.118 4.159 1.496 4.989-.139.186-.394.8-.566 1.364-.931 3.06-4.001 4.505-6.486 3.053zm-46.96-3.648c-1.392-.899-1.932-2.755-1.275-4.386 1.459-3.627 6.219-2.648 6.219 1.279 0 2.77-2.77 4.511-4.944 3.107zm-24.996-2.827c-1.5-1.589.058-4.255 2.021-3.457.225.091.578.512.784.934.996 2.04-1.306 4.111-2.804 2.523zm82.164-4.029c-1.625-.965-1.837-3.262-.417-4.527 2.453-2.186 5.716 1.348 3.571 3.868-.839.986-2.144 1.259-3.154.659zm-49.679-1.102c-.981-1.32-.205-3.04 1.371-3.04 1.613 0 2.452 2.027 1.31 3.164-.827.823-2.018.768-2.681-.123zm68.999-.561c-.84-.161-2.044-1.57-2.228-2.607-.491-2.769 2.208-5.24 4.408-4.035 3.316 1.816 1.501 7.349-2.18 6.642zm-14.614-7.227c-1.257-.914-.813-2.877.65-2.877 1.294 0 1.864 1.124 1.112 2.195-.536.763-1.264 1.045-1.763.683z" fill="#572f14"/></svg>