<svg xmlns="http://www.w3.org/2000/svg" xmlns:xlink="http://www.w3.org/1999/xlink" cursor="default" viewBox="0 0 256 256">
    <defs>
        <linearGradient id="linearGradient2">
            <stop offset="0" stop-color="#f55"/>
            <stop offset="1" stop-color="#ff8080"/>
        </linearGradient>
        <linearGradient id="linearGradient0">
            <stop offset="0" stop-color="#f55"/>
            <stop offset=".225" stop-color="#ff8080"/>
            <stop offset=".836" stop-color="#ff8080"/>
            <stop offset="1" stop-color="#faa"/>
        </linearGradient>
        <linearGradient id="linearGradient1" x1="116.925" x2="124.501" y1="1052.253" y2="815.229" gradientTransform="matrix(.99 0 0 .99 .922 10.307)" gradientUnits="userSpaceOnUse" xlink:href="#linearGradient0"/>
        <linearGradient id="linearGradient3" x1="126.679" x2="123.822" y1="820.509" y2="839.365" gradientTransform="matrix(.81233 0 0 .72729 22.395 219.955)" gradientUnits="userSpaceOnUse" xlink:href="#linearGradient2"/>
    </defs>
    <path fill="#ff7f2a" fill-rule="evenodd" stroke="#000" stroke-width=".902" d="M110.072 5.348c9.257 4.847 21.12 4.958 30.525-1.215 2.023-1.572-35.181-2.192-30.525 1.215z"/>
    <path fill="#fca" fill-rule="evenodd" stroke="#000" stroke-width=".99" d="M199.263 47.478c.785 1.372.838 4.239 1.488 5.694.619 1.387 2.677 4.304 3.215 5.689.616 1.585.71 4.977 1.136 6.456.374 1.296 1.611 3.49 1.912 4.597 1.077 3.956.857 6.018 1.664 10.67-1.177.45-1.164 1.795-2.423 2.17-2.296.683-3.058.34-5.646.713-1.644.237-2.745 1.705-4.557 1.929-1.948.24-4.557-.242-6.473-.209-1.255.022-2.796 1.687-3.955 1.58-2.33-.213-4.784.07-6.568-.309-1.552-.33-2.476-1.349-3.886-1.282-.745-3.58-.632-7.105-1.52-10.664-.265-1.06-1.347-1.963-1.83-3.031-.135-.298-3.725-4.12-2.05-6.351 5.121-6.826 20.83-24.946 22.03-26.887 3.402 2.343 5.692 6.135 7.463 9.235z"/>
    <path fill="#ff8080" fill-rule="evenodd" stroke="#000" stroke-width=".99" d="M173.717 78.754c12.6 2.409 25.76-1.515 34.1-5.338 0 0 1.142 2.736.764 4.338-11.566 4.323-23.637 6.06-34.23 5.182-1.235-1.294-.634-4.182-.634-4.182z"/>
    <path fill-rule="evenodd" d="M205.549 74.503c.091-3.102-2.065-5.32-3.787-7.352 1.575 2.386 3.192 4.557 2.8 7.272zM199.289 76.742c.338-3.618-1.065-6.728-2.631-9.676 1.304 3.166 2.28 6.22 1.65 9.54zM193.284 78.281c-.18-1.456-1.05-2.687-1.566-3.818.253 1.395.732 2.523.576 3.834zM187.455 78.637c-1.785-2.765-2.553-6.063-3.475-9.36.581 3.286 1.046 6.8 2.617 9.854zM180.025 79.16c-.348-1.412-1.233-2.566-1.89-3.677.403 1.354.909 2.496.908 3.806zM202.78 79.56c-.07.426.105.755.254.978.154.233.341.435.457.642.042-.244.006-.539.016-.786.011-.274.079-.419.2-.485zM195.403 81.847c.474.538 1.225.977 1.667 1.289-.25-.592-.68-1.178-.803-1.773zM184.159 83.599c.135.177.16.415.09.761-.062.308-.195.66-.187.901.11-.144.433-.438.631-.682.221-.273.478-.684.425-1.226z"/>
    <path fill="#fca" fill-rule="evenodd" stroke="#000" stroke-width=".99" d="M51.521 50.263c-.796 1.372-.85 4.238-1.51 5.694-.627 1.387-2.715 4.304-3.26 5.688-.626 1.585-.722 4.977-1.154 6.456-.379 1.297-1.634 3.491-1.94 4.598-1.092 3.956-.869 6.017-1.688 10.67 1.194.45 1.182 1.795 2.459 2.17 2.33.683 3.103.34 5.728.713 1.668.237 2.785 1.705 4.623 1.928 1.977.24 4.624-.241 6.567-.208 1.273.021 2.837 1.686 4.013 1.58 2.363-.213 4.854.07 6.665-.31 1.574-.33 2.511-1.348 3.941-1.281.757-3.58.642-7.105 1.543-10.664.268-1.06 1.367-1.963 1.857-3.031.137-.298 3.778-4.12 2.08-6.351-5.196-6.826-21.135-24.947-22.352-26.888-3.452 2.344-5.774 6.135-7.572 9.236zM90.72 21.127c6.468-3.066 13.245-7.954 18.155-11.474 1.112-1.979 1.149-2.6.919-4.25 9.657 3.053 22.544 3.044 30.821-1.191.297 1.87-.695 3.74 2.423 5.611 6.725 3.583 11.256 7.538 20.38 10.713 20.88 48.833-76.935 106.209-72.699.591zM37.241 211.273s-4.39 9-3.78 11.123c.979 3.408 8.978 5.47 8.978 5.47s-1.496 4.914-.414 6.855c1.608 2.883 5.016 2.524 11.843 4.443 2.885.81 5.348 3.026 8.742 3.75 3.289.701 8.1.899 11.538 1.61 2.011.416 4.521 2.057 8.603 2.62 4.267.588 8.963-.055 13.585.294 7.709.582 14.616 1.952 14.616 1.952s-1.079 2.816-.043 3.493c2.706 1.771 8.826 1.007 14.586.596 5.374-.384 7.88.916 10.75-1.127 1.134-.806 3.472-2.686 5.658-.804 0 0 2.354 1.549 3.824 1.685 1.897.177 5.52.959 8.266.647 3.277-.372 5.551-1.868 5.551-1.868.319-3.298 3.959-3.04 5.562-2.464 0 0 5.894-.043 8.841-.788 3.039-.767 5.398-2.28 9.449-3.51 3.35-1.017 6.398-.32 9.55-1.158 4.729-1.256 9.714-3.84 9.714-3.84l-.633-2.766s3.219-.364 4.661-1.056c1.903-.913 4.621-3.496 6.977-4.902 2.685-1.601 4.146-.362 4.9-1.978.725-1.557-1.536-4.93-1.536-4.93s4.233-1.645 4.58-3.282c.562-2.649-4.108-7.54-4.108-7.54z"/>
    <path fill="url(#linearGradient1)" fill-rule="evenodd" stroke="#000" stroke-width=".99" d="M37.361 1006.841c11.986-35.91 38.298-64.957 57.565-97.946-3.44-13.044-7.363-25.794-8.687-40.132-4.014-2.511-8.303-3.176-14.241-3.4-3.72-4.361-6.161-11.353-6.539-16.976-.212-3.165-4.409-.777-4.817-1.658-1.59-3.431-.215-5.097-.63-5.854-1.08-1.963-2.396-1.612-3.008-3.953-.741-2.838 1.324-2.108 1.17-4.421-.207-3.106-2.758-2.282-2.882-5.697-.134-3.706 1.398-1.884 1.378-6.377-.014-3.136-3.25-2.99 1.086-9.097 8.566.572 15.776 4.17 21.133 8.8 4.086.8 9.038-.675 12.696-4.082.919 76.94 73.529 66.656 71.833 0 3.028 1.173 6.217 2.685 11.89 2.721 5.392-1.52 9.333-2.515 24.445-.595.647 0 .317 7.835-1.1 12.41-1.01 3.255-3.368.697-3.832 1.623-1.173 2.343 1.864 4.361 1.507 5.182-1.218 2.802-3.777 2.06-4.844 4.677-1.433 3.514 1.765 5.79 0 8.502-1.618 2.486-6.43.866-7.434 2.636-1.061 1.869.04 8.148-7.768 7.142-4.876 4.366-7.908 8.106-11.861 12.159-.323 10.556-.373 23.549-4.177 36.9 19.106 33.48 39.912 60.902 57.3 100.499-.257 2.345-2.229 3.286-4.01 3.74l.419 1.956c-7.839 4.977-11.694 6.434-16.79 7.227l.752 2.126c-17.5 6.991-23.43 6.254-39.842 6.037l.334 3.23c-4.982.812-11.045 2.177-17.708-.51-1.827-1.304-4.309-.875-5.346 1.531-9.402 2.125-13.679 1.353-15.536.85l-1.086-6.972c-15.369 5.839-38.261 1.762-64.336-8.038-4.153-.486-6.363-.736-10.853-2.755l.359-4.683c-4.05-2.28-5.254-4.568-6.54-6.802z" transform="translate(0 -796.362)"/>
    <path fill="#ffb380" fill-rule="evenodd" stroke="#000" stroke-width=".99" d="M92.288 103.175l70.374-.046c-.788 5.991-.253 9.744 1.063 14.79 4.656 1.437 4.161 1.269 5.409 4.913 7.138 2.128 5.417 7.218 5.26 9.613 7.301 4.315 4.972 8.596 4.139 11.48 6.494 9.267 6.875 13.48 1.595 17.118 2.21 12.595.471 17.744-10.524 21.178-2.887 5.58-7.034 12.313-13.764 12.794-6.202 9.358-16.297 6.55-25.341 4.965-7.805 6.23-21.359-.398-25.157-3.239-9.059 2.221-14.762-4.888-20.625-10.807-8.186-3.004-6.813-8.032-8.454-13.333-9.018-6.805-3.59-9.812-3.67-14.622-2.103-6.922-1.009-11.777 2.308-15.851.446-9.533 1.37-14.382 7.333-16.276 7.326-7.82 1.904-7.009 8.99-9.57 3.286-3.347 1.703-9.802 1.064-13.106z"/>
    <path fill="#fca" fill-rule="evenodd" stroke="#000" stroke-width=".99" d="M91.461 116.162c.473 0 72.175.841 72.175.841a107.079 107.079 0 0 1 4.16 7.078c.715 1.334 2.254 2.15 2.87 3.447.768 1.619.586 3.71 1.206 5.272.311.783 2.604 3.809 2.878 4.578 1.012 2.83-.22 3.313.324 5.948.634 3.073 2.588 5.762 2.64 8.565.052 2.8-1.796 5.715-2.267 8.242-.781 4.198-.243 6.894-2.254 10.33-1.415 2.419-5.102 5.772-7.014 7.808-1.899 2.02-3.519 4.976-5.817 6.614-2.435 1.737-5.57 2.132-8.349 3.433-3.658 1.712-6.943 5.295-10.982 6.241-3.591.842-7.91-.872-11.618-.646-4.198.255-7.916 1.113-12.028.567-3.835-.51-8.077-2.371-11.625-3.59-2.51-.86-8.561-2.324-10.729-3.735-3.493-2.273-4.318-4.107-7.16-7.013-2.027-2.221-3.697-5.222-5.104-7.97-.771-1.508-2.868-3.576-3.178-5.221-.509-2.69 1.036-5.082.772-8.24-.189-2.247-1.323-4.607-1.42-6.939-.121-2.928.89-5.883 1.744-9.334.661-2.668.23-5.062 1.267-8.152.776-2.31 3.925-5.285 4.971-7.558 1.561-3.389 2.4-6.91 4.538-10.566z"/>
    <path fill-rule="evenodd" d="M118.63 232.436l.49-.07c-.685-3.564-1.19-8.176-1.355-11.681-.164 3.506.01 8.165.375 11.823l.49-.071zM136.017 238.343c-.014-4.722-.354-9.98-.377-14.684-.318 5.077-.286 9.601-.613 14.654zM158.568 234.679c-1.077-4.306-2.19-8.218-2.847-12.584.33 4.417 1.125 8.416 1.879 12.788zM197.699 226.473c-2.708-6.02-4.794-11.657-6.067-17.604.95 6.019 2.729 11.787 5.154 17.987zM214.025 217.257c-1.63-5.928-2.68-8.868-4.675-13.048 1.688 4.301 2.414 7.317 3.713 13.285zM54.628 224.354c-.401-4.575.536-8.705 2.577-12.84-2.323 3.964-3.647 8.103-3.566 12.891zM44.461 217.016c.843-5.421 3.919-10.412 6.955-15.121-3.262 4.454-6.726 9.392-7.928 14.94zM87.159 179.497c-1.623 1.828-1.96 3.751-2.037 5.644.413-1.91 1.069-3.535 2.73-4.939zM106.342 191.256c-.473 1.056-.935 2.715-.853 4.465.246-1.727 1.027-3.195 1.69-3.938zM129.825 194.106c.088.625.065.848.106 1.6.036.674.126 1.626.405 3.422-.115-1.82-.037-2.76.089-3.388.12-.6.305-.972.39-1.63zM151.057 189.131c1.008.442 1.753.772 2.412 1.435.676.68 1.28 1.726 1.924 3.597-.48-1.897-.94-3.065-1.544-3.915-.616-.867-1.369-1.388-2.328-1.991zM165.625 179.552c.777-.06 1.355.08 1.92.392.582.322 1.1.798 1.76 1.362-.513-.648-.953-1.287-1.47-1.765-.538-.498-1.203-.868-2.184-.979zM175.451 161.175a16.479 16.479 0 0 1 2.136-.421c.743-.096 1.467-.132 1.92-.035-.413-.258-1.148-.393-1.93-.46-.78-.067-1.616-.069-2.258-.065zM175.215 144.229c.197-.297.561-.503 1.093-.542.52-.038 1.12.094 1.676.372a3.797 3.797 0 0 0-1.615-.913c-.591-.152-1.279-.135-1.874.272zM172.19 134.009l1.685-1.428-2.14.549zM169.18 125.142c-.092-.656-.15-.78-.19-1.03-.03-.201.009-.368.215-.737-.306.23-.526.34-.689.596-.158.25-.245.606-.326 1.17zM80.405 167.86c-1.01.35-1.785.778-2.344 1.41-.553.624-.865 1.415-1.043 2.47.342-1.032.797-1.68 1.38-2.108.57-.418 1.299-.648 2.258-.815zM79.81 155.015l-.018-.495c-1.25.13-2.357.327-3.399.86-1.036.53-1.976 1.374-2.961 2.761 1.122-1.294 2.14-1.965 3.155-2.306 1.004-.338 2.036-.362 3.242-.325l-.018-.495zM81.287 140.487c-1.406-.168-2.262-.067-3.037.24-.733.291-1.427.79-2.501 1.369 1.184-.449 1.893-.77 2.636-.893.706-.117 1.45-.054 2.727.259zM86.95 126.903c-.524-.272-1.256-.398-1.88-.48-.641-.083-1.315-.134-1.758-.207.406.231 1.036.447 1.633.687.612.246 1.162.511 1.44.812z"/>
    <path fill="none" stroke="#000" stroke-width=".99" d="M78.88 23.575c-.964 22.34 2.284 33.267 7.324 48.818M175.448 22.373c-1.363 17.595-4.39 35.912-11.103 53.868"/>
    <path fill-rule="evenodd" d="M79.048 37.753c-6.158-1.927-13.087-3.094-19.204-1.827 6.14-.936 12.947.564 18.885 2.764zM79.382 43.599c-7.052-.92-11.28-1.641-18.535-.446 7.266-.864 11.418.183 18.384 1.424zM79.068 32.342c-6.11-5.765-12.857-5.337-20.477-5.174 7.785.167 14.17.14 19.784 5.88zM79.135 26.8c-5.267-4.496-11.427-7.35-18.121-8.134 6.64 1.11 12.553 4.255 17.46 8.871zM80.418 50.094c-4.044-1.53-7.986-1.812-11.887-.65 3.969-.84 7.771-.193 11.501 1.562zM81.999 57.623c-3.904.009-7.264.902-10.46 2.195 3.322-.988 6.67-1.522 10.42-1.206zM83.566 64.324l.005-.495c-2.619.129-5.293 1.97-7.522 2.79 2.582-.581 5.03-2.001 7.512-1.8l.005-.495zM172.753 45.213c4.661-1.54 9.664-1.176 14.508-.115-4.714-1.369-9.823-2.12-14.787-.835zM171.906 50.99c5.65-1.575 9.648-.17 15 1.804-5.127-2.24-9.234-4.088-15.239-2.765zM169.994 58.21c3.823-.939 6.86.304 10.652 1.558-3.54-1.512-6.693-3.197-10.847-2.53zM168.637 64.085c.483-.249.984-.17 1.604.134.58.285 1.17.722 1.664.84-.42-.265-.851-.798-1.392-1.253-.523-.44-1.247-.889-2.192-.66zM175.339 27.42c6.606-1.923 14.403-1.731 21.313-1.74-6.826-.32-14.747-.855-21.567.783zM174.618 34.954c5.714-3.226 12.066-2.849 18.55-2.481-6.333-.687-12.909-1.453-19.015 1.607zM173.564 40.72c5.35-3.192 11.16-2.525 16.886-2.175-5.545-.665-11.605-1.735-17.37 1.312z"/>
    <path fill="none" stroke="#000" stroke-width=".99" d="M126.722 73.716c1.242-6.957.728-7.672.523-15.042-.098-3.564.678-6.871.577-11.485-.035-1.593-1.336-8.377-1.416-10.063-.362-7.61-2.81-23.167-2.087-29.31"/>
    <path fill="url(#linearGradient3)" fill-rule="evenodd" stroke="#000" stroke-width=".769" d="M121.62 812.792c-7.2 1.681-1.689 7.115-10.959 19.272 1.4 2.159 6.515 2.397 8.787 1.945 3.341-5.624 5.263-15.503 5.863-19.069 2.914.428-1.744-1.67.058-.368.096 4.158 1.375 14.259 4.372 19.797 2.613 1.118 6.153.817 8.616-2.014-6.17-6.998-6.264-13.452-9.395-20.178z" transform="translate(0 -796.362)"/>
    <path fill="#ff8080" fill-rule="evenodd" stroke="#000" stroke-width=".769" d="M127.798 19.79l-4.7-.53c-2.57 3.813-4.691 6.125-10.808 9.628-5.4-3.02-11.219-8.75-3.198-21.112 7.674 1.675 9.832 4.617 13.52 7.2l5.962.485c4.283-2.552 6.93-5.403 13.666-7.508 7.979 10.313 3.051 22.395-2.456 26.744-4.858-3.335-9.497-7.586-11.986-14.907z"/>
    <path fill-rule="evenodd" d="M54.837 239.007c-1.138-2.755-.482-5.723-.231-8.735-.554 2.791-1.608 5.972-.704 9.06zM42.934 227.761c-.072-.531.094-1.277.317-2.055.218-.76.478-1.517.546-2.048-.22.469-.634 1.158-1.005 1.862-.363.688-.749 1.502-.848 2.212zM73.999 244.054c-.427-2.787.07-5.44.452-8.251-.69 2.665-1.548 5.388-1.438 8.343zM95.971 247.195c-.374-3.363-.637-5.703.688-8.987-1.645 3.188-1.726 5.571-1.676 9.049zM111.483 249.599c.865-3.309 1.202-6.134 2.245-8.746-1.35 2.489-2.03 5.3-3.19 8.45zM134.172 252.98c-2.14-3.167-1.616-6.877-1.367-10.804-.558 3.705-1.507 7.703.523 11.321zM126.056 253.168c-.3-.487-.44-1.522-.49-2.6-.05-1.064-.014-2.11-.026-2.68-.151.543-.353 1.588-.47 2.665-.111 1.035-.162 2.235.072 2.995zM142.75 251.78c-.268-3.416-.33-6.951-.495-10.446-.164 3.47-.433 7.036-.495 10.476zM159.835 251.833c-1.49-2.918-1.16-6.272-.924-9.417-.547 2.973-1.275 6.53.02 9.822zM165.305 249.424c-.744-3.259-.331-6.211.339-9.533-.975 3.182-1.765 6.208-1.314 9.706zM184.544 244.821l.457-.191c-.415-.769-.55-1.83-.593-3.002-.041-1.147.006-2.343-.1-3.3-.058.959-.27 2.116-.394 3.282-.122 1.14-.17 2.374.174 3.402l.456-.19zM202.502 237.468c-.717-1.844-.854-3.85-1.184-5.874-.006 1.957-.195 4.115.234 6.152zM217.371 224.271c-1.122-1.257-1.573-2.332-2.35-3.378.4 1.064.682 2.478 1.547 3.956zM211.698 232.917c-.915-.748-1.382-1.41-1.658-2.161-.284-.775-.362-1.62-.512-2.709-.016 1.061-.104 1.97.036 2.837.144.895.53 1.77 1.456 2.754zM122.662 18.634c-2.4.325-4.286 1.902-5.931 3.257 1.874-1.204 3.772-2.438 5.994-2.49zM121.862 16.891c-2.143.571-4.265 1.168-6.433 1.627 2.212-.206 4.394-.553 6.588-.872zM122.259 15.7c-1.662-.062-2.802-1.074-4.226-2.054 1.153 1.092 2.285 2.475 4.136 2.818zM128.048 19.465c1.887-.175 3.229.87 4.79 1.926-1.293-1.173-2.65-2.62-4.807-2.696zM128.525 17.523c1.286.087 2.605-.129 3.832-.255-1.28-.13-2.527-.175-3.706-.504z"/>
    <path fill="none" stroke="#000" stroke-width=".769" d="M122.9 19.299c-1.488-.278-1-4.548-.24-4.342M128.554 15.488c.53 1.375.34 3.01-.754 4.31"/>
    <path fill="#ff8080" fill-rule="evenodd" stroke="#000" stroke-width=".99" d="M77.44 81.538c-12.784 2.41-26.136-1.514-34.596-5.337 0 0-1.16 2.736-.777 4.338 11.735 4.322 23.982 6.059 34.73 5.182 1.252-1.294.643-4.183.643-4.183z"/>
    <path fill-rule="evenodd" d="M46.138 77.207c-.395-2.712 1.246-4.883 2.848-7.271-1.744 2.03-3.93 4.248-3.835 7.353zM52.483 79.39c-.636-3.318.355-6.372 1.681-9.54-1.586 2.947-3.007 6.058-2.661 9.678zM58.585 81.082c-.156-1.31.332-2.438.591-3.834-.52 1.13-1.4 2.361-1.58 3.818zM64.365 81.919c1.596-3.057 2.07-6.571 2.663-9.858-.934 3.298-1.71 6.594-3.518 9.358zM72.029 82.075c.001-1.31.517-2.452.93-3.807-.665 1.11-1.561 2.264-1.911 3.675zM47.02 82.696c.122.064.189.206.2.481.009.248-.03.543.012.788.116-.207.304-.409.46-.641.15-.223.327-.554.253-.981zM55 84.39l-.43-.245c-.13.595-.567 1.183-.823 1.775.446-.31 1.205-.749 1.683-1.286L55 84.39zM65.88 86.136c-.056.545.205.957.427 1.228.202.246.524.536.637.682.007-.241-.13-.595-.194-.903-.072-.347-.047-.583.089-.758z"/>
    <path fill="none" stroke="#000" d="M111.261-648.162l-.397.063-.631.105s0 0 0 0l-.505.083s0 0 0 0c-.128.02-.253.044-.378.063-.19.027-.385.037-.582.03.186.049.38.082.579.097 0 0 0 0 0 0 .13.01.253.014.38.02 0 0 0 0 0 0 .167.01.336.018.506.026 0 0 0 0 0 0l.631.03c.264.013.547.03.825.037 0 0 0 0 0 0 1.346.03 2.668-.236 4.063-.564 1.166-.272 2.367-.575 3.542-1a17.776 17.776 0 0 0 4.653-2.515c.205-.155.406-.314.602-.477.49-.41.959-.853 1.394-1.335 0 0 0 0 0 0a13.896 13.896 0 0 0 2.288-3.535 11.31 11.31 0 0 0 .83-2.467c.163-.824.21-1.639.229-2.385 0 0 0 0 0 0 .047-1.6-.029-2.998-.269-4.323a14.98 14.98 0 0 0-.123-.602c.036.196.068.399.097.607.183 1.326.209 2.708.106 4.315 0 0 0 0 0 0-.045.741-.118 1.545-.302 2.338a11.033 11.033 0 0 1-.885 2.377s0 0 0 0c-.607 1.224-1.38 2.375-2.328 3.361 0 0 0 0 0 0-.178.185-.36.363-.548.534-.46.422-.943.803-1.435 1.15a16.8 16.8 0 0 1-4.577 2.264c-1.234.393-2.524.643-3.506.815-.785.136-1.389.22-1.941.256a10.967 10.967 0 0 1-2.318.632zM135.7-653.69c.45.105.868.201 1.24.445.097.063.195.14.3.204 0 0 0 0 0 0 .133.083.276.143.42.179a1.485 1.485 0 0 1-.343-.264c-.08-.084-.145-.17-.235-.267-.508-.542-1.168-.763-1.807-1.128-.37-.213-.7-.468-1.09-.734-.53-.363-1.114-.703-1.567-1.106a5.187 5.187 0 0 1-1.129-1.447 2.679 2.679 0 0 1-.155-.333s0 0 0 0a1.12 1.12 0 0 1-.072-.32s0 0 0 0a.58.58 0 0 1 .037-.253s0 0 0 0c.044-.102.144-.199.233-.217 0 0 0 0 0 0 .04-.015.121-.02.236-.036.252-.032.49-.077.716-.115 0 0 0 0 0 0 .49-.076 1.028-.152 1.58-.388 0 0 0 0 0 0 .269-.122.505-.27.716-.412 0 0 0 0 0 0a5.223 5.223 0 0 0 .928-.765 3.446 3.446 0 0 0 .856-1.802s0 0 0 0c.053-.374.052-.704.08-.974 0 0 0 0 0 0 .013-.12.054-.393.072-.567a5.78 5.78 0 0 0-.184-2.05s0 0 0 0c-.079-.3-.174-.588-.244-.836 0 0 0 0 0 0a3.69 3.69 0 0 0-.147-.453s0 0 0 0c-.166-.364-.364-.62-.489-.804-.13-.202-.248-.436-.446-.72-.334-.46-.725-.81-.99-1.094l-.621-.704a9.864 9.864 0 0 0-1.546-1.32c-.16-.115-.29-.202-.387-.288 0 0 0 0 0 0-.077-.067-.19-.174-.37-.302a1.929 1.929 0 0 0-.412-.213c.142.058.278.133.404.225.174.132.282.244.356.317 0 0 0 0 0 0 .093.094.22.19.374.311.484.375 1.008.828 1.476 1.37.298.348.322.412.593.73.26.305.636.669.93 1.107.176.27.284.51.416.731.125.207.308.457.436.773 0 0 0 0 0 0 .058.155.092.297.121.423.063.261.148.552.212.839.142.624.194 1.28.106 1.922 0 0 0 0 0 0-.028.2-.066.381-.092.565 0 0 0 0 0 0-.043.304-.052.625-.113.948-.055.291-.153.57-.288.828a2.875 2.875 0 0 1-.5.685 4.53 4.53 0 0 1-.857.65s0 0 0 0c-.212.13-.423.25-.643.337-.456.18-.966.222-1.45.285 0 0 0 0 0 0-.242.03-.467.063-.694.081a1.789 1.789 0 0 0-.36.053s0 0 0 0c-.318.094-.572.33-.697.632a1.345 1.345 0 0 0-.097.573c.009.193.049.374.105.538.053.158.118.304.182.437a6.193 6.193 0 0 0 1.246 1.749c.442.426 1.265 1.043 1.495 1.235l.103.039c.4.153.835.351 1.305.502 0 0 0 0 0 0 .258.085.509.143.75.2z"/>
    <path fill="none" stroke="#000" d="M119.162-654.027c-.72.508-1.458.998-2.212 1.47a39.296 39.296 0 0 0 2.912-1.196c.447-.204.899-.42 1.357-.648 2.148-1.067 4.352-2.344 6.409-3.916 0 0 0 0 0 0a35.647 35.647 0 0 0 2.987-2.574 36.603 36.603 0 0 0 1.497-1.517s0 0 0 0c1.757-1.894 3.237-4.015 4.111-6.409.536-1.486.81-2.998.968-4.371 0 0 0 0 0 0 .163-1.367.2-2.59.048-3.78a10.624 10.624 0 0 0-.061-.41c.017.136.032.273.045.413.103 1.186.026 2.391-.184 3.761-.203 1.36-.521 2.85-1.092 4.29 0 0 0 0 0 0-.859 2.154-2.222 4.05-3.822 5.747a33.882 33.882 0 0 1-1.918 1.861 33.733 33.733 0 0 1-3.022 2.432c-2.292 1.627-4.564 2.726-5.906 3.273-.166.13-.333.258-.5.386 0 0 0 0 0 0a55.02 55.02 0 0 1-1.205.894s0 0 0 0a49.13 49.13 0 0 1-.412.294z"/>
    <path fill-rule="evenodd" d="M95.927 115.776l-.495-.002c.076 1.59-.064 2.57-.42 3.49-.369.95-.961 1.828-1.775 3.2.929-1.248 1.69-2.076 2.22-2.983.549-.94.876-1.996.965-3.703l-.495-.002zM111.933 116.806c.236 1.172.075 2.916-.506 3.72.855-.616 1.415-2.393 1.495-3.779zM96.927 103.338l.48-.12c-.969-3.16-1.3-4.508-3.295-7.2 1.7 2.844 1.696 4.24 2.335 7.441l.48-.12zM159.715 103.16c-.618-1.504-.52-3.31-.094-4.978-.718 1.506-1.229 3.415-.856 5.257zM139.733 103.303l.475.136c.327-1.73.833-3.96 2.033-5.324-1.475 1.17-2.325 3.356-2.984 5.051l.476.137zM110.981 102.751c-.621-.982-1.14-2.14-2.132-2.893.716.944.896 2.153 1.227 3.295zM159.497 117.083c.134 2.48 1.433 5.553 3.058 8.819-1.356-3.473-2.262-6.526-2.068-8.808zM141.817 116.99c.407 1.308.95 2.503 1.862 3.474-.628-1.14-.825-2.39-.888-3.65z"/>
</svg>
