<svg xmlns="http://www.w3.org/2000/svg" cursor="default" viewBox="0 0 256 256">
    <g fill-rule="evenodd">
        <path fill="#ffb380" stroke="#000" d="M76.67 7.001s9.307 32.858 9.163 49.702c-.115 13.443-5.126 35.059-4.21 46.846 3.524 45.397 11.308 52.078 11.852 68.564.256 7.73.304 18.217.843 25.933.924 13.232-9.508 35.718-4.98 47.119 1.305 3.286 3 6.48 7.904 6.543 6.02.077 12.39-5.777 14.303-11.405 6.897-20.292 12.706-45.623 3.477-60.479-5.404-8.697 5.089-49.2 5.612-73.898.25-11.75-1.81-24.185-.78-35.894.775-8.831 4.364-19.276 4.989-28.12.936-13.255-3.469-37.589-3.469-37.589-16.321-.386-37.85.246-44.705 2.678zM134.686 2.491s-4.85 24.466-4.69 37.67c.127 10.313 3.867 21.461 4.276 32.143.403 10.537-2.066 22.31-2.437 32.79-.843 23.819 4.103 47.987.28 71.261-1.144 6.97-4.886 12.102-6.455 19.13-2.351 10.533-5.296 39.761-1.592 48.81 1.572 3.84 7.838 9.685 11.5 9.903 5.03.299 10.762-5.29 12.744-11.712 4.723-15.305-1.817-24.487.098-40.657.378-3.19 2.053-6.131 2.488-9.314.62-4.53-1.204-9.345.15-13.712 4.852-15.653 16.572-50.82 19.371-77.196 1.55-14.598-2.385-30.216-1.515-44.011 1.057-16.748 8.088-47.182 8.088-47.182-4.695-3.083-28.734-9.776-42.306-7.923z"/>
        <path fill="#f55" stroke="#000" stroke-width="1.008" d="M132.42 16.209c21.347-1.492 29.772.51 42.038 5.987.415-2.854 1.602-6.56 1.602-6.56-11.125-2.043-29.563-4.564-42.763-5.393z"/>
        <path fill="#f55" stroke="#000" d="M123.35 17.885c-20.97-1.494-30.779-.962-42.827 4.52-.594-2.698-1.326-5.587-1.326-5.587 10.928-2.044 30.352-4.031 43.318-4.861.296 1.98.75 4 .835 5.928z"/>
        <path fill="#ff8080" stroke="#000" d="M94.449 16.372c-5.845 2.197-11.793 4.154-16.839 8.212-1.045 4.612-.399 9.712 1.905 12.259 8.122-3.749 14.121-9.08 16.698-12.954 1.066-2.63 1.24-4.014 1.86-6.02l.69 5.638c1.278 7.057 4.013 13.825 7.132 19.431 5.345-1.686 7.97-5.867 9.058-7.592-1.738-6.145-5.848-13.192-9.336-16.86z" transform="matrix(1.06576 -.13545 .21592 .80428 -14.011 15.23)"/>
        <path fill="#ff8080" stroke="#000" d="M95.057 18.496c-4.624.934-9.905-.47-14.75-6.892.124-3.631 3.99-7.531 8.354-7.517C91.327 6.438 94.813 9 96.472 14.86l3.928 1.93c3.871-5.617 6.719-8.872 12.282-10.626 4.126 2.172 6.6 6.325 6.635 9.542-7.674 5.951-15.687 4.423-19.28 3.201z" transform="matrix(1.06576 -.13545 .21592 .80428 -14.011 15.23)"/>
        <path fill="#ff8080" stroke="#000" d="M96.561 14.888c-1.393 1.473-1.083 3.416-.45 4.61l4.392.425c.458-.477 1.501-2.494.899-4.327-1.525-1.475-3.334-1.122-4.84-.708z" transform="matrix(1.06576 -.13545 .21592 .80428 -14.011 15.23)"/>
        <path d="M91.115 15.877c-.88.238-1.735.212-2.646.018-.917-.195-1.815-.544-2.758-.885.83.446 1.676.93 2.575 1.265.909.338 1.937.548 3.129.393zM91.887 14.813c-1.796-.953-4.116-1.435-6.05-1.898 1.899.743 3.93 1.439 5.37 2.517zM98.305 15.04c.69-1.331 2.377-2.453 3.72-3.588-1.487.859-3.593 1.873-4.692 3.198zM98.185 16.024l.128.4c2.565-.54 4.54-2.063 6.336-3.264-2.14 1.05-4.17 2.228-6.592 2.465l.128.399zM91.756 17.302c-2.823 1.328-5.425 2.88-7.917 4.481 2.73-1.39 5.515-2.697 8.467-3.765zM92.601 17.845c.06.296-.035.587-.071.94.324-.176.755-.346 1.085-.618zM96.46 18.131c.625.305 1.06.753 1.631 1.21-.209-.524-.383-1.18-.835-1.745z"/>
        <g>
            <path fill="#ff8080" stroke="#000" stroke-width=".934" d="M155.812 12.766c-6.265 1.302-13.285 1.546-18.944 4.438-1.606 3.684-1.843 7.606.232 9.884 8.786-2.378 16.562-5.072 19.66-8.024 1.4-2.06 1.738-3.178 2.606-4.766l.06 4.67c1.795 5.512 7.278 13.326 14.029 17.2 3.65-2.341 5.467-4.614 7.534-7.122-2.983-4.898-11.19-11.268-15.814-13.95z"/>
            <path fill="#ff8080" stroke="#000" stroke-width=".934" d="M156.193 14.555c-4.864.372-11.089.315-15.332-5.35.547-2.96 4.482-6.228 8.97-5.847 2.47 2.15 4.952 3.657 8.237 8.343l3.817 1.912c4.63-4.266 8.197-3.65 14.12-4.612 3.291 1.897 4.999 5.13 4.664 7.766-8.58 4.217-15.847-.148-19.401-1.453z"/>
            <path fill="#ff8080" stroke="#000" stroke-width=".934" d="M158.156 11.73c-1.603 1.088-1.508 2.704-.996 3.733l4.47.72c.525-.35 1.83-1.912 1.423-3.463-1.398-1.335-3.3-1.2-4.897-.99z"/>
            <path d="M163.299 14.061c3.248-1.302 6.945-1.723 10.578-2.196-3.601.155-7.432.266-10.888 1.309zM163.03 15.238c.074-.03.312-.009.586.025.287.036.632.085 1.033.123.8.074 1.774.095 2.807-.137a7.542 7.542 0 0 1-2.718-.325 9.316 9.316 0 0 1-.94-.342c-.192-.081-.521-.235-.633-.274zM156.91 13.223c-2.673.321-5.026-.753-7.58-1.544 2.306 1.033 4.745 2.502 7.636 2.482zM157.529 12.405l.304-.359c-.89-.557-2.406-1.382-3.051-1.653.462.512 1.823 1.64 2.442 2.37l.305-.358zM157.343 15.476c-.789 1.435-2.36 2.279-4.419 2.95 2.035-.343 3.972-.907 5.195-2.418zM161.51 16.101l-.082.463c1.795.242 3.307 1.153 4.811 2.262 1.495 1.103 2.916 2.346 4.512 3.141-1.505-.924-2.812-2.275-4.216-3.505-1.396-1.224-2.95-2.387-4.941-2.823l-.083.462zM160.255 16.239c.404 1.297.955 2.482 1.722 3.566-.487-1.226-.718-2.472-.798-3.74z"/>
        </g>
    </g>
</svg>
