<svg xmlns="http://www.w3.org/2000/svg" xmlns:xlink="http://www.w3.org/1999/xlink" viewBox="0 0 256 256">
    <defs>
        <linearGradient id="lustfulDisttraction2">
            <stop offset="0" stop-color="#f5d"/>
            <stop offset="1" stop-color="#ff0ecf"/>
        </linearGradient>
        <linearGradient id="linearGradient4792" x1="11.984" x2="10.376" y1="41.34" y2="34.175" gradientTransform="scale(11.91818) rotate(11.719 148.815 23.023)" gradientUnits="userSpaceOnUse" xlink:href="#lustfulDistraction1"/>
        <linearGradient id="lustfulDistraction1">
            <stop offset="0" stop-color="#f5d"/>
            <stop offset="1" stop-color="#fae"/>
        </linearGradient>
        <linearGradient id="linearGradient4326-2" x1="35.145" x2="32.843" y1="1039.399" y2="1044.747" gradientTransform="matrix(6.0526 -1.20527 1.52932 7.67993 -1658.998 -7762.113)" gradientUnits="userSpaceOnUse" xlink:href="#lustfulDisttraction2"/>
    </defs>
    <g fill-rule="evenodd">
        <path fill="url(#linearGradient4326-2)" d="M186.32 191.52c.562 7.332-6.98 12.538-29.13 12.37-34.687-.264-82.37-26.718-80.47-.914-4.09-4.215-8.882-3.242-7.996 2.31.865 5.429 7.3 13.669 8.603 20.05 1.903-5.31 11.05-9.987 13.26-14.25 1.446-2.788-1.893-9.843-9.404-6.642-5.63-22.512 42.307 3.928 74.1 4.72 28.86.718 36.936-9.138 35.718-18.309-2.071-15.607-52.467-21.415-51.872-16.94.575 4.326 46.072 3.037 47.19 17.604z"/>
        <path fill="#e005a5" d="M58.264 39.843c-14.815 39.075 3.102 59.639 21.87 82.663l7.68-33.586c-18.326-7.984-27.68-23.866-29.55-49.077zM201.681 41c14.816 39.076-3.101 59.64-21.87 82.664l-7.68-33.586c18.327-7.985 27.681-23.866 29.55-49.078z"/>
        <path fill="url(#linearGradient4792)" d="M45.67 86.852c-.411-13.929 4.615-24.226 12.464-31.208 3.534-3.144 7.624-5.653 12.079-7.444 8.918-3.586 18.961-4.7 28.418-3.56 4.183.505 8.253 1.451 12.059 2.82 3.46 1.243 6.702 2.836 9.616 4.763 4.554 3.012 8.306 6.842 10.831 11.434 12.097-30.502 85.443-30.878 86.785 24.69.963 39.908-41.284 78.43-82.84 123.582-43.823-44.188-88.19-83.622-89.412-125.077z" transform="matrix(.6394 .02018 -.02018 .6394 47.181 50.717)"/>
        <path fill="#f6d5ff" d="M151.946 87.015c7.366-2.288 15.986-.014 22.644 6.118 4.461 6.099 6.67 13.925 5.654 22.186-.576-8.32-4.382-14.86-9.208-18.98-4.419-6.03-11.49-10.035-19.09-9.324z"/>
    </g>
</svg>
