<svg xmlns="http://www.w3.org/2000/svg" xmlns:xlink="http://www.w3.org/1999/xlink" viewBox="0 0 256 256">
    <defs>
        <linearGradient id="linearGradient4491">
            <stop offset="0" stop-color="#ff2121"/>
            <stop offset=".446" stop-color="#f60"/>
            <stop offset="1" stop-color="#ffd600"/>
        </linearGradient>
        <linearGradient id="linearGradient4431" x1="90.661" x2="104.551" y1="180.239" y2="120.134" gradientTransform="matrix(.93245 0 0 1.00129 7.279 11.388)" gradientUnits="userSpaceOnUse" xlink:href="#linearGradient4491"/>
        <linearGradient id="linearGradient4441" x1="34.598" x2="31.82" y1="133.266" y2="93.871" gradientTransform="matrix(.93245 0 0 1.00129 7.279 11.388)" gradientUnits="userSpaceOnUse" xlink:href="#linearGradient4491"/>
        <linearGradient id="linearGradient4449" x1="67.428" x2="64.65" y1="109.528" y2="54.98" gradientTransform="matrix(.93245 0 0 1.00129 7.279 11.388)" gradientUnits="userSpaceOnUse" xlink:href="#linearGradient4491"/>
        <linearGradient id="linearGradient4457" x1="187.888" x2="185.868" y1="104.982" y2="47.151" gradientTransform="matrix(.93245 0 0 1.00129 7.279 11.388)" gradientUnits="userSpaceOnUse" xlink:href="#linearGradient4491"/>
        <linearGradient id="linearGradient4465" x1="212.897" x2="189.656" y1="153.987" y2="114.831" gradientTransform="matrix(.93245 0 0 1.00129 7.279 11.388)" gradientUnits="userSpaceOnUse" xlink:href="#linearGradient4491"/>
        <linearGradient id="linearGradient4205" x1="127.658" x2="142.268" y1="220.043" y2="141.829" gradientTransform="matrix(.83668 0 0 .86327 -175.5 57.227)" gradientUnits="userSpaceOnUse" xlink:href="#cloakOfFlames3"/>
        <linearGradient id="cloakOfFlames3">
            <stop offset="0" stop-color="#ff7132"/>
            <stop offset="1" stop-color="#ffb243"/>
        </linearGradient>
        <linearGradient id="linearGradient4213" x1="132.143" x2="154.643" y1="194.929" y2="59.571" gradientTransform="matrix(.83668 0 0 .86327 -175.5 57.227)" gradientUnits="userSpaceOnUse" xlink:href="#cloakOfFlames4"/>
        <linearGradient id="cloakOfFlames4">
            <stop offset="0" stop-color="#f44816"/>
            <stop offset="1" stop-color="#f4670c"/>
        </linearGradient>
        <linearGradient id="linearGradient4405" x1="132.143" x2="154.643" y1="194.929" y2="59.571" gradientTransform="matrix(1.01238 0 0 1.04456 -198.406 33.015)" gradientUnits="userSpaceOnUse" xlink:href="#cloakOfFlames5"/>
        <linearGradient id="cloakOfFlames5">
            <stop offset="0" stop-color="#f4161c"/>
            <stop offset="1" stop-color="#f40c5a"/>
        </linearGradient>
    </defs>
    <ellipse cx="128.668" cy="159.112" fill="none" stroke="#ff2121" stroke-linecap="round" stroke-linejoin="round" stroke-width="9.663" rx="94.309" ry="37.803"/>
    <path fill="url(#linearGradient4449)" fill-rule="evenodd" d="M52.726 134.964c11.185-22.79-.006-56.918 16.484-75.606-5.724 24.243.496 36.944 7.064 49.308 3.768-4.899 7.535-11.109 11.303-27.309 3.94 32.397 9.491 32.795 14.6 41.975z"/>
    <path fill="url(#linearGradient4457)" fill-rule="evenodd" d="M125.725 120.045c8.39-7.827 16.323-17.94 22.841-35.148 11.361 4.526 8.078 17.789 8.948 28.574 12.859-22.142 28.598-43.124 27.08-71.055 10.313 17.791 11.172 33.126 8.478 47.538 4.236-8.262 7.835-17.21 18.132-18.964-12.417 33.593 2.94 47.736 4.474 71.56-21.831-12.171-49.353-21.083-89.953-22.505z"/>
    <path fill="url(#linearGradient4441)" fill-rule="evenodd" d="M32.475 158.733c-1.057-23.843-1.896-47.538 8.713-63.468-4.504 25.677-1.28 38.255 6.122 43.745z"/>
    <g fill-rule="evenodd">
        <path fill="url(#linearGradient4405)" d="M-66.627 92.182c-50.23 14.116-65.832 70.96-82.202 147.514 54.282.597 50.03 29.77 74.977 30.49 31.464.907 27.127-18.144 44.17-17.2C-8.31 254.171.91 263.311 15.972 268.622c-14.234-39.316-34.174-99.06-38.246-140.978-2.724-28.044 9.647-29.614 2.74-31.762-1.714-.534-19.429-1.861-17.856-1.477 16.446 4.024-10.107 16.004-22.773 14.767-6.743-.658-10.536-14.1 4.86-16.576.996-.16-9.992-.788-11.324-.414z" transform="translate(176.44 -8.111) scale(.6561)"/>
        <path fill="url(#linearGradient4213)" d="M-64.102 91.88c-41.512 11.666-56.897 72.89-70.426 136.157 44.861.494 41.347 24.605 61.964 25.199 26.004.75 22.42-14.995 36.504-14.215 17.664.98 25.284 8.533 37.731 12.923-11.764-32.493-28.243-81.869-31.608-116.511-2.251-23.177 10.463-38.72 4.756-40.496-1.417-.44-16.058-1.538-14.758-1.22 13.592 3.325-8.353 13.226-18.82 12.204-5.573-.544-8.708-11.653 4.016-13.7.823-.132-8.257-.65-9.359-.341z" transform="translate(176.44 -8.111) scale(.6561)"/>
        <path fill="url(#linearGradient4205)" d="M-99.327 171.869c-18.303 7.097-3.018 25.568-35.201 56.168 44.861.494 41.347 24.605 61.964 25.199 26.004.75 22.42-14.995 36.504-14.215 17.664.98 25.284 8.533 37.731 12.923-11.764-32.493-18.25-14.717-27.637-49.128-11.826 36.41-5.964-3.349-23.407-21.711 4.107 16.07.59 29.69-2.253 29.39-12.249-1.295-17.851-30.42-11.778-45.85-19.011 19.342-14.775 49.08-26.556 47.93-7.015-.684-15.843-18.637-9.367-40.706z" transform="translate(176.44 -8.111) scale(.6561)"/>
    </g>
    <path fill="url(#linearGradient4465)" fill-rule="evenodd" d="M164.108 192.617c8.19-19.615.151-39.747 14.6-62.963 1.676 12.985 7.048 19.358 14.364 22.252-2.786-27.709 7.126-43.972 14.128-52.09-2.987 12.618.12 37.948 16.248 52.09-5.864 24.704-21.562 41.541-59.34 40.71z"/>
    <path fill="url(#linearGradient4431)" fill-rule="evenodd" d="M50.136 178.962c26.498-14.456 24.558-30.601 22.135-46.527 7.847 6.982 11.28 17.991 6.593 36.413 18.49-16.283 21.84-34.598 25.668-52.849 26.55 14.696-1.71 57.111 22.37 80.664-27.78-.016-56.265 1.857-76.766-17.7z"/>
</svg>
