<svg xmlns="http://www.w3.org/2000/svg" xmlns:xlink="http://www.w3.org/1999/xlink" viewBox="0 0 256 256">
    <defs>
        <linearGradient id="elementalFire2">
            <stop offset="0" stop-color="#fc0"/>
            <stop offset="1" stop-color="#ffdf5f"/>
        </linearGradient>
        <linearGradient id="wildFire1">
            <stop offset="0" stop-color="#f46e16"/>
            <stop offset="1" stop-color="#f4900c"/>
        </linearGradient>
        <linearGradient id="linearGradient4337" x1="150" x2="129.286" y1="167.429" y2="166.357" gradientTransform="matrix(.02336 1.48253 -2.04892 .01093 466.549 -8.194)" gradientUnits="userSpaceOnUse" xlink:href="#wildFire2"/>
        <linearGradient id="wildFire2">
            <stop offset="0" stop-color="#ffb14d"/>
            <stop offset="1" stop-color="#ffcc4d"/>
        </linearGradient>
        <linearGradient id="linearGradient4792" x1="11.984" x2="10.376" y1="41.34" y2="34.175" gradientTransform="scale(11.91818) rotate(11.719 143.42 21.37)" gradientUnits="userSpaceOnUse" xlink:href="#wildFire1"/>
    </defs>
    <g fill-rule="evenodd">
        <path fill="url(#linearGradient4792)" d="M40.329 99.503c-.41-13.929 4.615-24.226 12.464-31.208 3.534-3.143 7.624-5.653 12.079-7.444 8.919-3.586 18.961-4.7 28.418-3.56 4.184.505 8.253 1.451 12.059 2.82 3.46 1.243 6.702 2.836 9.616 4.763 4.554 3.012 8.306 6.842 10.831 11.435 12.097-30.503 85.443-30.879 86.785 24.69.964 39.907-41.284 78.429-82.84 123.581-43.823-44.188-88.19-83.622-89.412-125.077z"/>
        <path fill="#fff6d5" d="M160.136 64.2c11.396-3.939 24.975-.81 35.68 8.442 7.272 9.309 11.108 21.427 9.93 34.385-1.311-12.97-7.58-23.001-15.324-29.202-7.201-9.203-18.446-15.11-30.286-13.625z"/>
        <path fill="url(#linearGradient4337)" d="M133.324 110.157c14.972 64.183-36.18 107.624-34.04 47.66-6.754 4.496-12.24 11.52-16.146 19.4 14.142 15.379 30.411 31.065 46.612 47.4 8.867-9.634 17.74-18.953 26.244-28.062-8.852-8.825 11.94-37.084-22.67-86.398zm31.2 61.068c1.498 4.92 2.467 9.203 2.972 12.842a604.006 604.006 0 0 0 4.492-5.04c-2.114-2.64-4.581-5.233-7.465-7.802z"/>
    </g>
</svg>
