<svg xmlns="http://www.w3.org/2000/svg" xmlns:xlink="http://www.w3.org/1999/xlink" viewBox="0 0 256 256">
    <defs>
        <linearGradient id="elementalFire2">
            <stop offset="0" stop-color="#fc0"/>
            <stop offset="1" stop-color="#ffdf5f"/>
        </linearGradient>
        <linearGradient id="linearGradient4236" x1="120.208" x2="118.693" y1="219.635" y2="89.325" gradientTransform="matrix(.75497 0 0 .75497 34.792 -11.82)" gradientUnits="userSpaceOnUse" xlink:href="#elementalArcane1"/>
        <linearGradient id="elementalArcane1">
            <stop offset="0" stop-color="#e000b3"/>
            <stop offset="1" stop-color="#ff8ae7"/>
        </linearGradient>
    </defs>
    <g fill="none" stroke="#808080" stroke-linecap="round" stroke-linejoin="round" transform="translate(.253)">
        <ellipse cx="87.088" cy="188.106" stroke-width="12" rx="33.712" ry="11.615"/>
        <ellipse cx="162.596" cy="201.364" stroke-width="12" rx="36.566" ry="12.196"/>
        <ellipse cx="95.824" cy="206.822" stroke-width="3.104" rx="12.853" ry="5.225"/>
        <ellipse cx="170.787" cy="194.156" stroke-width="3.104" rx="12.853" ry="5.225" transform="rotate(9.054)"/>
        <ellipse cx="111.847" cy="207.246" stroke-width="3.104" rx="12.853" ry="5.225" transform="rotate(3.343)"/>
        <ellipse cx="157.02" cy="203.064" stroke-width="3.104" rx="12.853" ry="5.225" transform="rotate(7.963)"/>
        <ellipse cx="135.258" cy="205.252" stroke-width="3.104" rx="12.853" ry="5.225" transform="rotate(6.721)"/>
    </g>
    <path fill="url(#linearGradient4236)" fill-rule="evenodd" d="M46.079 50.735c0-13.292 5.082-22.87 12.705-29.32 3.518-2.835 7.428-5.083 11.728-6.646 8.6-3.128 18.178-3.91 27.072-2.541 4.007.586 7.819 1.661 11.337 3.03a41.357 41.357 0 0 1 8.991 4.788c4.3 3.03 7.721 6.744 9.97 11.24 12.411-28.636 81.997-26.78 81.606 25.997-.293 37.92-41.536 73.202-82.29 114.836C86.93 128.823 45.98 90.121 46.077 50.735z"/>
    <path fill="#f6d5ff" fill-rule="evenodd" d="M160.817 20.828c10.946-3.42 23.75-.098 33.62 8.992 6.646 9.089 9.872 20.72 8.406 32.936-.88-12.315-6.549-21.99-13.683-28.147-6.548-8.894-17.006-14.856-28.343-13.78z"/>
    <path fill="none" stroke="#fcf1ff" stroke-width="4.834" d="M142.178 150.743c-.064-3.867-1.354-3.996-1.354-3.996-2.513-6.768-4.254-17.468-5.994-23.011-2.836-6.188-4.319-12.054-5.028-18.757M118.265 103.174l-.13 19.08c-.708 5.542-1.095 17.982-1.353 22.301-.386 3.48-1.031.967-1.224 5.221"/>
    <path fill="none" stroke="#fcf1ff" stroke-width="3.996" d="M119.36 75.393c-5.478.13-7.09 7.09-6.832 8.573.258 1.74 5.737 5.994 5.801 10.958M130.77 75.2c7.025.064 9.023 6.446 8.894 9.088 0 1.354-8.25 4.061-9.475 11.41"/>
    <g fill="#fcf1ff" stroke="#fcf1ff">
        <path fill-rule="evenodd" stroke-width="2.384559" d="M115.944 106.204l16.243-.838c-.773-5.544-.193-10.636-3.351-16.695-2.385-4.576 4.77-4.898 3.158-14.438-.258-1.29-12.118-.902-12.698.193-4.899 9.604 5.93 10.185 1.16 14.31-3.287 2.9-5.35 10.635-4.512 17.468z"/>
        <path stroke-linecap="round" stroke-linejoin="round" stroke-width="2.384559" d="M129.867 64.822c-.064 2.965-2.256 5.35-4.899 5.35-2.643-.064-4.705-2.578-4.64-5.543.064-3.03 2.255-5.414 4.898-5.35 2.578.065 4.705 2.514 4.64 5.543z"/>
        <path fill-rule="evenodd" stroke-width="2.384559" d="M128.836 82.935C113.624 71.01 101.313 62.76 98.283 46.388 81.46 50.77 71.211 59.795 64.96 71.719l17.661-2.256 9.153 8.315 17.79-1.676z"/>
        <path fill-rule="evenodd" stroke-width="2.384559" d="M124.388 80.228c15.663-11.216 28.296-19.015 31.97-35.194 16.695 5.028 26.557 14.503 32.293 26.62L171.12 68.69l-9.475 7.928-17.726-2.385z"/>
        <path fill-rule="evenodd" stroke-width=".644436" d="M119.94 74.426c.903-3.287-.386-5.8-.45-9.152l11.215-.645c-.129 3.352-.516 7.541-.129 9.797zM121.68 62.76c-5.607-4.77-5.349-9.153-5.671-13.536 1.289 4.125 1.547 8.508 7.606 11.86zM128.191 62.566c4.64-4.77 4.383-9.088 4.64-13.535-1.03 4.19-1.224 8.508-6.251 11.924z"/>
    </g>
</svg>
