<svg xmlns="http://www.w3.org/2000/svg" viewBox="0 0 256 256">
    <g fill-rule="evenodd">
        <path fill="#5df" d="M18.55 148.88c6.63 6.455 13.116 10.798 30.054 10.312 34.592-.992 47.305-79.13 96.48-82.948 25.013-1.942 39.315 14.914 28.744 26.3-9.393 10.117-19.054-.69-28.833-1.446-20.647-1.598-36.177 51.155-6.327 55.84 13.21 2.073 16.135-4.1 19.23-10.737 10.605 17.818 30.93 11.12 35.015-.383 3.542 15.723 31.934 19.806 40.732 4.21 1.675 21.653-36.82 24.272-40.018 9.187-2.081 10.758-30.76 16.642-34.658 1.531-2.192 12.846-34.83 17.544-39.303.383-2.658 17.413-40.523 14.373-46.806 2.68-28.608 25.553-56.842-8.932-54.31-14.929z"/>
        <path fill="#00aad4" d="M147.468 150.513c-24.363 17.478-34.137-33.645-5.03-47.918-7.084 5.374-13.711 33.197 5.03 47.918z"/>
        <path fill="#d5f6ff" d="M175.006 94.852c-.456-2.496-1.117-4.852-2.01-7.072-7.684-9.195-18.522-10.805-28.343-9.223-5.894.948-11.586 3.06-16.336 5.55-4.76 2.495-8.605 5.384-10.788 7.903 2.434-2.247 6.444-4.79 11.267-6.905 4.836-2.12 10.466-3.804 16.141-4.353 9.576-.925 18.795 1.397 24.867 9.554 1.767 1.136 3.521 2.634 5.202 4.546z"/>
        <path fill="#2ad4ff" d="M135.538 110.37c-6.555 7.628-8.915 16.64-8.328 24.697.073.997.191 1.98.352 2.942 1.906 6.652 5.841 11.743 10.42 13.773-4.071-2.753-6.936-8.124-7.847-14.336a28.4 28.4 0 0 1-.599-2.662c-1.288-7.349.064-16.306 6.002-24.414z"/>
        <path fill="#d5f6ff" d="M192.944 149.663c1.233 4.248 4.09 7.687 7.845 10.132a24.585 24.585 0 0 0 5.774 2.027c6.317 1.38 13.03.363 17.457-2.956-4.673 2.885-11.26 3.277-17.083 1.512a22.763 22.763 0 0 1-5.201-2.302c-3.693-1.665-6.958-4.425-8.792-8.413zM158.079 148.282c1.232 4.248 4.089 7.688 7.844 10.133a24.585 24.585 0 0 0 5.774 2.027c6.318 1.38 13.031.363 17.457-2.957-4.672 2.886-11.26 3.278-17.083 1.512a22.763 22.763 0 0 1-5.2-2.302c-3.694-1.664-6.958-4.425-8.792-8.413zM122.076 148.418c1.233 4.247 4.09 7.687 7.845 10.132a24.585 24.585 0 0 0 5.774 2.027c6.317 1.38 13.03.363 17.457-2.957-4.673 2.886-11.26 3.278-17.083 1.513a22.763 22.763 0 0 1-5.2-2.302c-3.694-1.665-6.958-4.425-8.793-8.413zM21.143 151.801c2.774 5.76 8.749 8.823 15.366 10.126l.07.008c6.658.753 13.633-.28 18.293-1.879-4.818 1.087-11.714 1.535-18.048.29l-.067-.013c-6.322-.714-12.414-3.115-15.614-8.532z"/>
    </g>
</svg>
