<svg xmlns="http://www.w3.org/2000/svg" viewBox="0 0 256 256">
    <g fill="none" stroke="#aef" stroke-linecap="round" stroke-linejoin="round" stroke-width="8">
        <path d="M319.79 215.203l-.504-85.274M305.083 136.335l14.224 8.366 15-8.427M305.23 209.11l14.056-8.428 14.917 8.323" transform="matrix(1.80821 0 0 1.78758 -450.168 -181.395)"/>
        <g>
            <path d="M319.79 215.203l-.504-85.274M305.083 136.335l14.224 8.366 15-8.427M305.23 209.11l14.056-8.428 14.917 8.323" transform="matrix(.89243 1.5547 -1.57264 .88224 114.25 -521.567)"/>
        </g>
        <g>
            <path d="M319.79 215.203l-.504-85.274M305.083 136.335l14.224 8.366 15-8.427M305.23 209.11l14.056-8.428 14.917 8.323" transform="scale(-1.80821 -1.78758) rotate(-59.701 -88.088 390.82)"/>
        </g>
    </g>
    <path fill="#93a7ac" fill-opacity=".784" fill-rule="evenodd" d="M170.833 135.859c30.558 19.525 53.477-29.776 13.013-33.451-6.836-18.835-32.794-28.081-58.792-8.92-54.364-3.196-34.728 66.15 10.69 43.587 11.378 5.688 23.09 4.99 35.089-1.216z"/>
    <path fill="#b7c4c8" fill-opacity=".784" fill-rule="evenodd" d="M93.35 165.304c-36.588 22.61-64.03-34.48-15.58-38.735 8.184-21.81 39.265-32.517 70.393-10.33 65.092-3.7 41.58 76.6-12.799 50.473-13.624 6.586-27.647 5.777-42.013-1.408z"/>
</svg>
