<svg xmlns="http://www.w3.org/2000/svg" viewBox="0 0 256 256">
    <g fill="none" stroke-linecap="round" stroke-linejoin="round" stroke-width="8">
        <g stroke="#d5f6ff">
            <path d="M113.06 207.347l-.412-64.224M101.565 147.93l11.12 6.325 11.684-6.361M101.677 202.757l10.971-6.361 11.646 6.288M84.19 191.408l57.665-32.021M132.045 152.448l-.187 12.432 11.495 6.687M82.73 179.59l11.121 6.072.112 12.866M84.265 159.315l57.628 32.057M143.166 179.698l-11.234 6.072-.224 12.975M94.113 152.159l.112 12.324-11.458 6.541"/>
        </g>
        <g stroke="#80e5ff">
            <path d="M174.846 149.132l-.412-64.223M163.35 89.716l11.121 6.324 11.683-6.36M163.462 144.542l10.972-6.36 11.645 6.288M145.976 133.194l57.665-32.021M193.83 94.233l-.187 12.433 11.496 6.686M144.515 121.376l11.121 6.072.113 12.866M146.05 101.1l57.628 32.058M204.951 121.484l-11.233 6.072-.225 12.975M155.899 93.944l.112 12.325-11.458 6.541"/>
        </g>
        <g stroke="#2ad4ff">
            <path d="M92.346 119.847l-.412-64.224M80.85 60.43l11.121 6.325 11.683-6.361M80.962 115.257l10.972-6.361 11.645 6.288M63.476 103.908l57.665-32.021M111.33 64.948l-.187 12.432 11.496 6.687M62.015 92.09l11.121 6.072.113 12.866M63.55 71.815l57.628 32.057M122.451 92.198l-11.233 6.072-.225 12.975M73.399 64.659l.112 12.324-11.458 6.541"/>
        </g>
    </g>
</svg>
