<svg xmlns="http://www.w3.org/2000/svg" viewBox="0 0 256 256">
    <circle cx="126.522" cy="128.295" r="25.506" fill="#d40055"/>
    <path fill="#f06" fill-rule="evenodd" d="M103.288 169.459c-40.316-23.164-35.788-55.126-.758-80.307-19.052 21.831-32.541 51.848.758 80.307z"/>
    <path fill="#f59" fill-rule="evenodd" d="M88.067 184.358C39.577 152.526 45.023 108.605 87.156 74c-22.915 30.002-39.14 71.25.911 110.36z"/>
    <path fill="#ffd5e5" fill-rule="evenodd" d="M73.925 195.47c-60.572-39.335-53.769-93.609-1.138-136.37-28.625 37.073-48.891 88.044 1.138 136.37z"/>
    <path fill="#f06" fill-rule="evenodd" d="M151.178 169.459c40.317-23.164 35.789-55.125.758-80.307 19.053 21.831 32.542 51.848-.758 80.307z"/>
    <path fill="#f59" fill-rule="evenodd" d="M166.4 184.358c48.49-31.832 43.043-75.753.91-110.359 22.916 30.002 39.14 71.25-.91 110.36z"/>
    <path fill="#ffd5e5" fill-rule="evenodd" d="M180.542 195.47c60.571-39.335 53.768-93.609 1.138-136.37 28.625 37.073 48.891 88.044-1.138 136.37z"/>
</svg>
