<svg xmlns="http://www.w3.org/2000/svg" viewBox="0 0 256 256">
    <path fill="#ff6bda" fill-rule="evenodd" d="M69.613 139.32C18.315 92.528 32.892 13.859 145.27 80.188c-99.798-29.42-105.411-3.404-75.656 59.134z"/>
    <path fill="#8d5fd3" fill-rule="evenodd" stroke="#000" stroke-width=".427" d="M209.146 41.658c-15.283 20.123-31.034-.455-29.29-5.243z"/>
    <path fill="#c6afe9" fill-rule="evenodd" d="M209.16 39.44l-.674-.554c-9.348.826-20.511-.466-26.676-4.664l-2.487.609c-.89.247.521 1.48 1.528 2.63 4.633 2.548 18.837 5.716 27.506 4.452.905-.45.4-1.225.803-2.473z"/>
    <path fill="#aa87de" fill-rule="evenodd" d="M150.678 121.64c7.238 1.12 10.779 1.853 17.4 2.708 4.853.627 11.294 1.193 17.208 2.013 7.516 1.043 14.773 2.436 23.283 4.233 1.874-17.695 4.928-35.174 7.942-52.17 3.741 2.503 5.327 4.692 9.541 7.111 6.592-4.478 12.034-7.181 18.041-10.756-10.092-13.162-12.65-16.077-18.975-24.115-6.031-4.833-10.019-7.132-14.748-10.41-9.408 16.875-27.77 10.653-31.084-5.654-8.344 1.308-12.17 3.061-18.008 4.617-9.32 6.396-16.928 11.53-25.365 17.274 3.725 5.719 8.499 10.797 12.749 16.194 4.524-.477 6.93-2.875 10.424-5.027-2.013 16.878-5.865 37.313-8.408 53.983z"/>
    <path fill="#c6afe9" fill-rule="evenodd" d="M211.129 40.764c-9.172 17.853-32.073 9.832-32.422-6.101l2.56-.331c-.56 15.77 21.209 21.513 27.93 5.132z"/>
    <path fill="#b3b3b3" fill-rule="evenodd" d="M197.836 43.474c-.208.001-7.027-1.077-7.027-1.077l.052.942 6.778 1.071z"/>
    <path fill="none" stroke="#ff6bda" stroke-dasharray="4,2" stroke-linecap="round" stroke-linejoin="round" d="M63.569 239.063c7.205-1.317 10.79-1.785 17.325-3.15 4.79-1 11.06-2.577 16.917-3.742 7.443-1.48 14.754-2.544 23.383-3.638-4.033-17.33-6.881-34.844-9.609-51.89 4.356 1.14 6.572 2.687 11.346 3.59 4.758-6.393 9.013-10.732 13.515-16.079-13.85-9.124-17.223-11.038-25.835-16.557-7.282-2.588-11.803-3.451-17.347-4.997-2.008 4.11-24.28 9.81-31.218 4.854-7.454 3.973-10.493 6.884-15.497 10.268-6.707 9.1-12.21 16.444-18.296 24.638 5.394 4.18 11.57 7.412 17.354 11.117 4.118-1.935 5.605-4.99 8.2-8.168 3.634 16.604 6.697 37.173 9.762 53.754z"/>
    <path fill="#f300b7" fill-rule="evenodd" d="M62.636 129.118c-37.18-38.924-19.834-102.485 70.169-54.11-85.564-25.223-95.68.492-70.169 54.11z"/>
</svg>
