<svg xmlns="http://www.w3.org/2000/svg" viewBox="0 0 256 256">
    <defs>
        <linearGradient id="elementalEarth1">
            <stop offset="0" stop-color="#c78c38"/>
            <stop offset="1" stop-color="#e3a347"/>
        </linearGradient>
    </defs>
    <ellipse cx="130.517" cy="109.747" fill="#fae" rx="39.123" ry="14.332"/>
    <path fill="none" stroke="#f0c" stroke-linecap="round" stroke-linejoin="round" stroke-width="3.303" d="M113.88 118.245l16.489-18.802 17.1 18.704-44.083-11.462 54.465.036z"/>
    <g stroke="#f300b7" transform="matrix(1.35333 0 0 1.35333 -67.88 29.04)">
        <path fill="none" stroke-linecap="round" stroke-width="5" d="M141.79 137.198l1.895-19.445M151.64 117.879c.126.631 2.272 18.94 2.272 18.94"/>
        <path fill="#f300b7" fill-rule="evenodd" d="M153.986 120.528c-3.803-1.936-8.28-1.955-12.56.037.711-7.458.209-14.511.49-21.753.063-1.587 11.766-1.383 11.744-.126-.129 7.28-.114 14.562.326 21.842z"/>
        <path fill="none" stroke-linecap="round" stroke-linejoin="round" stroke-width="3.5" d="M142.294 114.746l-6.878-9.069 7.153-6.115M152.938 99.443l7.195 7.12-8.153 9.586"/>
        <ellipse cx="148.041" cy="90.605" fill="#f300b7" stroke-linecap="round" stroke-linejoin="round" rx="5.872" ry="5.43"/>
    </g>
    <g fill="none" stroke="#ff6bda" stroke-dasharray="4,2" stroke-opacity=".949" transform="matrix(.63495 0 0 .62885 81.723 15.913)">
        <ellipse cx="80.245" cy="58.176" stroke-linecap="round" stroke-linejoin="round" rx="11.442" ry="10.581"/>
        <path d="M67.73 72.74c-5.926 4.986-15.09 11.469-15.152 14.648-.082 4.234 14.395 20.96 14.395 20.96l-3.662 40.66c-.605 6.723 8.843 4.89 9.218 1.388l3.788-35.355c2.105-1.934 4.209-1.313 6.314-.253l4.293 34.85c.505 4.1 10.165 3.495 9.722-.378l-4.04-35.356-.126-5.555c-.506-.38 14.717-15.74 15.026-19.32.233-2.712-13.52-14.153-16.542-16.415-2.392-1.79-20.393-2.262-23.233.127z"/>
        <path d="M60.28 88.02l6.756 9.217.127-14.963zM98.7 89.026l-6.297 9.251-.117-15.017z"/>
    </g>
    <path fill="#ff6bda" fill-rule="evenodd" d="M157.672 179.552c69.47 25.14 106.712-40.673.188-100.322 72.063 65.64 74.493 99.695-.188 100.322z"/>
    <path fill="#f300b7" fill-rule="evenodd" d="M168.8 180.326c60.442 16.241 81.491-44.251-1.218-93.757 61.538 56.172 65.497 93.267 1.219 93.757z"/>
    <path fill="#ffc3f0" fill-rule="evenodd" d="M171.113 97.815c15.798 21.946 67.99 73.62-.036 76.519 58.938-1.181 40.485-32.962.036-76.52z"/>
    <path fill="#ffc3f0" fill-rule="evenodd" d="M185.176 93.722c40.774 28.232 73.962 95.988-9.186 95.687 74.975 9.909 67.727-61.375 9.186-95.687z"/>
    <path fill="none" stroke="#f300b7" stroke-linecap="round" stroke-linejoin="round" stroke-width="4" d="M51.77 95.133c-.044 1.113-1.522.49-1.85-.074-.887-1.526.547-3.226 1.999-3.625 2.596-.713 4.98 1.457 5.4 3.922.618 3.617-2.371 6.765-5.845 7.176-4.63.548-8.563-3.288-8.952-7.77-.49-5.64 4.204-10.366 9.693-10.727 6.649-.437 12.174 5.12 12.503 11.617.388 7.657-6.036 13.983-13.54 14.278-8.666.341-15.794-6.952-16.055-15.464-.295-9.673 7.869-17.605 17.389-17.83 10.68-.25 19.418 8.785 19.604 19.313.094 5.266-1.905 10.446-5.446 14.337" transform="matrix(-.59346 .3219 -.31643 -.58339 266.744 119.79)"/>
    <path fill="none" stroke="#ff6bda" stroke-linecap="round" stroke-linejoin="round" stroke-width="4" d="M51.77 95.133c-.044 1.113-1.522.49-1.85-.074-.887-1.526.547-3.226 1.999-3.625 2.596-.713 4.98 1.457 5.4 3.922.618 3.617-2.371 6.765-5.845 7.176-4.63.548-8.563-3.288-8.952-7.77-.49-5.64 4.204-10.366 9.693-10.727 6.649-.437 12.174 5.12 12.503 11.617.388 7.657-6.036 13.983-13.54 14.278-8.666.341-15.794-6.952-16.055-15.464-.295-9.673 7.869-17.605 17.389-17.83 10.68-.25 19.418 8.785 19.604 19.313.094 5.266-1.905 10.446-5.446 14.337" transform="matrix(-.08873 -.46422 .44884 -.07406 144.548 171.325)"/>
    <path fill="none" stroke="#ffc3f0" stroke-linecap="round" stroke-linejoin="round" stroke-width="4" d="M51.77 95.133c-.044 1.113-1.522.49-1.85-.074-.887-1.526.547-3.226 1.999-3.625 2.596-.713 4.98 1.457 5.4 3.922.618 3.617-2.371 6.765-5.845 7.176-4.63.548-8.563-3.288-8.952-7.77-.49-5.64 4.204-10.366 9.693-10.727 6.649-.437 12.174 5.12 12.503 11.617.388 7.657-6.036 13.983-13.54 14.278-8.666.341-15.794-6.952-16.055-15.464-.295-9.673 7.869-17.605 17.389-17.83 10.68-.25 19.418 8.785 19.604 19.313.094 5.266-1.905 10.446-5.446 14.337" transform="matrix(-.37545 .28708 -.26707 -.36826 230.425 227.188)"/>
    <path fill="none" stroke="#ffc3f0" stroke-linecap="round" stroke-linejoin="round" stroke-width="4" d="M51.77 95.133c-.044 1.113-1.522.49-1.85-.074-.887-1.526.547-3.226 1.999-3.625 2.596-.713 4.98 1.457 5.4 3.922.618 3.617-2.371 6.765-5.845 7.176-4.63.548-8.563-3.288-8.952-7.77-.49-5.64 4.204-10.366 9.693-10.727 6.649-.437 12.174 5.12 12.503 11.617.388 7.657-6.036 13.983-13.54 14.278-8.666.341-15.794-6.952-16.055-15.464-.295-9.673 7.869-17.605 17.389-17.83 10.68-.25 19.418 8.785 19.604 19.313.094 5.266-1.905 10.446-5.446 14.337" transform="matrix(.2932 .3707 -.36384 .27307 255.48 74.013)"/>
    <path fill="#ff6bda" fill-rule="evenodd" d="M90.046 75.724c-73.178-10.143-95.92 61.976 20.68 98.169-84.139-49.22-93.598-82.025-20.68-98.169z"/>
    <path fill="#f300b7" fill-rule="evenodd" d="M79 77.282c-62.498-3.317-70.506 60.23 20.69 91.453C27.816 126.59 16.229 91.128 79 77.282z"/>
    <path fill="#ffc3f0" fill-rule="evenodd" d="M93.898 158.47C73.88 140.289 12.083 100.6 78.02 83.617c-57.404 13.411-32.746 40.66 15.878 74.853z"/>
    <path fill="#ffc3f0" fill-rule="evenodd" d="M80.993 165.398C35.239 146.262-11.314 86.89 70.079 69.892c-75.396 5.9-53.483 74.119 10.914 95.506z"/>
    <path fill="none" stroke="#f300b7" stroke-linecap="round" stroke-linejoin="round" stroke-width="4" d="M51.77 95.133c-.044 1.113-1.522.49-1.85-.074-.887-1.526.547-3.226 1.999-3.625 2.596-.713 4.98 1.457 5.4 3.922.618 3.617-2.371 6.765-5.845 7.176-4.63.548-8.563-3.288-8.952-7.77-.49-5.64 4.204-10.366 9.693-10.727 6.649-.437 12.174 5.12 12.503 11.617.388 7.657-6.036 13.983-13.54 14.278-8.666.341-15.794-6.952-16.055-15.464-.295-9.673 7.869-17.605 17.389-17.83 10.68-.25 19.418 8.785 19.604 19.313.094 5.266-1.905 10.446-5.446 14.337" transform="matrix(.51355 -.43828 .43084 .50483 -4.213 156.864)"/>
    <path fill="none" stroke="#ff6bda" stroke-linecap="round" stroke-linejoin="round" stroke-width="4" d="M51.77 95.133c-.044 1.113-1.522.49-1.85-.074-.887-1.526.547-3.226 1.999-3.625 2.596-.713 4.98 1.457 5.4 3.922.618 3.617-2.371 6.765-5.845 7.176-4.63.548-8.563-3.288-8.952-7.77-.49-5.64 4.204-10.366 9.693-10.727 6.649-.437 12.174 5.12 12.503 11.617.388 7.657-6.036 13.983-13.54 14.278-8.666.341-15.794-6.952-16.055-15.464-.295-9.673 7.869-17.605 17.389-17.83 10.68-.25 19.418 8.785 19.604 19.313.094 5.266-1.905 10.446-5.446 14.337" transform="matrix(.18333 .43562 -.42363 .16578 104.594 81.043)"/>
    <path fill="none" stroke="#ffc3f0" stroke-linecap="round" stroke-linejoin="round" stroke-width="4" d="M51.77 95.133c-.044 1.113-1.522.49-1.85-.074-.887-1.526.547-3.226 1.999-3.625 2.596-.713 4.98 1.457 5.4 3.922.618 3.617-2.371 6.765-5.845 7.176-4.63.548-8.563-3.288-8.952-7.77-.49-5.64 4.204-10.366 9.693-10.727 6.649-.437 12.174 5.12 12.503 11.617.388 7.657-6.036 13.983-13.54 14.278-8.666.341-15.794-6.952-16.055-15.464-.295-9.673 7.869-17.605 17.389-17.83 10.68-.25 19.418 8.785 19.604 19.313.094 5.266-1.905 10.446-5.446 14.337" transform="matrix(.30754 -.35888 .33782 .30467 8.978 44.26)"/>
    <path fill="none" stroke="#ffc3f0" stroke-linecap="round" stroke-linejoin="round" stroke-width="4" d="M51.77 95.133c-.044 1.113-1.522.49-1.85-.074-.887-1.526.547-3.226 1.999-3.625 2.596-.713 4.98 1.457 5.4 3.922.618 3.617-2.371 6.765-5.845 7.176-4.63.548-8.563-3.288-8.952-7.77-.49-5.64 4.204-10.366 9.693-10.727 6.649-.437 12.174 5.12 12.503 11.617.388 7.657-6.036 13.983-13.54 14.278-8.666.341-15.794-6.952-16.055-15.464-.295-9.673 7.869-17.605 17.389-17.83 10.68-.25 19.418 8.785 19.604 19.313.094 5.266-1.905 10.446-5.446 14.337" transform="matrix(-.36387 -.30162 .2991 -.34277 16.325 199.296)"/>
</svg>
