<svg xmlns="http://www.w3.org/2000/svg" xmlns:xlink="http://www.w3.org/1999/xlink" viewBox="0 0 256 256">
    <defs>
        <linearGradient id="innoGrad8">
            <stop offset="0" stop-color="#ff7f2a" stop-opacity=".502"/>
            <stop offset="1" stop-color="#ff7f2a" stop-opacity="0"/>
        </linearGradient>
        <linearGradient id="innoGrad7">
            <stop offset="0" stop-color="#ffd42a"/>
            <stop offset=".478" stop-color="#ffd42a" stop-opacity="0"/>
            <stop offset="1" stop-color="#ffd42a"/>
        </linearGradient>
        <linearGradient id="innoGrad3">
            <stop offset="0" stop-color="#ffd42a"/>
            <stop offset="1" stop-color="#ffd42a" stop-opacity="0"/>
        </linearGradient>
        <linearGradient id="innoGrad5">
            <stop offset="0" stop-color="#ff7f2a" stop-opacity=".753"/>
            <stop offset=".358" stop-color="#ff7f2a" stop-opacity="0"/>
            <stop offset=".656" stop-color="#ff7f2a" stop-opacity="0"/>
            <stop offset="1" stop-color="#ff7f2a"/>
        </linearGradient>
        <linearGradient id="innoGrad4">
            <stop offset="0" stop-color="#ff7f2a"/>
            <stop offset=".107" stop-color="#ff7f2a" stop-opacity="0"/>
            <stop offset="1" stop-color="#ff7f2a" stop-opacity=".502"/>
        </linearGradient>
        <linearGradient id="linearGradient1027" x1="142.261" x2="132.583" y1="130.802" y2="113.295" gradientUnits="userSpaceOnUse" xlink:href="#innoGrad8"/>
        <linearGradient id="linearGradient1145" x1="135.496" x2="131.187" y1="136.861" y2="131.844" gradientUnits="userSpaceOnUse" xlink:href="#innoGrad8"/>
        <linearGradient id="linearGradient1153" x1="139.108" x2="134.778" y1="134.927" y2="129.639" gradientUnits="userSpaceOnUse" xlink:href="#innoGrad8"/>
        <linearGradient id="linearGradient1161" x1="142.728" x2="138.351" y1="132.732" y2="127.241" gradientUnits="userSpaceOnUse" xlink:href="#innoGrad8"/>
        <linearGradient id="linearGradient1169" x1="146.273" x2="141.896" y1="130.317" y2="125.436" gradientUnits="userSpaceOnUse" xlink:href="#innoGrad8"/>
        <linearGradient id="linearGradient1177" x1="149.425" x2="145.064" y1="128.365" y2="122.805" gradientUnits="userSpaceOnUse" xlink:href="#innoGrad8"/>
        <linearGradient id="linearGradient1247" x1="158.775" x2="158.477" y1="118.57" y2="111.994" gradientUnits="userSpaceOnUse" xlink:href="#innoGrad8"/>
        <linearGradient id="linearGradient1278" x1="150.823" x2="150.823" y1="141.175" y2="89.566" gradientUnits="userSpaceOnUse" xlink:href="#innoGrad8"/>
        <linearGradient id="linearGradient1308" x1="211.237" x2="211.238" y1="118.973" y2="115.264" gradientUnits="userSpaceOnUse" xlink:href="#innoGrad8"/>
        <linearGradient id="linearGradient1331" x1="229.835" x2="229.835" y1="118.949" y2="115.215" gradientUnits="userSpaceOnUse" xlink:href="#innoGrad8"/>
        <linearGradient id="linearGradient1355" x1="187.194" x2="177.749" y1="133.163" y2="119.165" gradientUnits="userSpaceOnUse" xlink:href="#innoGrad8"/>
        <linearGradient id="linearGradient1402" x1="179.979" x2="175.678" y1="143.464" y2="138.383" gradientUnits="userSpaceOnUse" xlink:href="#innoGrad8"/>
        <linearGradient id="linearGradient1404" x1="183.413" x2="179.747" y1="141.139" y2="137.016" gradientUnits="userSpaceOnUse" xlink:href="#innoGrad8"/>
        <linearGradient id="linearGradient1406" x1="186.627" x2="182.561" y1="138.783" y2="133.893" gradientUnits="userSpaceOnUse" xlink:href="#innoGrad8"/>
        <linearGradient id="linearGradient1408" x1="190.096" x2="185.917" y1="136.226" y2="131.24" gradientUnits="userSpaceOnUse" xlink:href="#innoGrad8"/>
        <linearGradient id="linearGradient1410" x1="193.039" x2="189.609" y1="133.471" y2="129.061" gradientUnits="userSpaceOnUse" xlink:href="#innoGrad8"/>
        <linearGradient id="linearGradient1412" x1="196.172" x2="192.364" y1="131.174" y2="126.092" gradientUnits="userSpaceOnUse" xlink:href="#innoGrad8"/>
        <linearGradient id="linearGradient1414" x1="199.989" x2="195.26" y1="128.757" y2="123.484" gradientUnits="userSpaceOnUse" xlink:href="#innoGrad8"/>
        <linearGradient id="linearGradient1416" x1="203.085" x2="199.099" y1="126.512" y2="122.101" gradientUnits="userSpaceOnUse" xlink:href="#innoGrad8"/>
        <linearGradient id="linearGradient1418" x1="206.473" x2="203.149" y1="123.944" y2="119.726" gradientUnits="userSpaceOnUse" xlink:href="#innoGrad8"/>
        <linearGradient id="linearGradient1444" x1="133.835" x2="134.02" y1="98.511" y2="100.716" gradientUnits="userSpaceOnUse" xlink:href="#innoGrad8"/>
        <linearGradient id="linearGradient1446" x1="145.381" x2="145.475" y1="98.138" y2="100.439" gradientUnits="userSpaceOnUse" xlink:href="#innoGrad8"/>
        <linearGradient id="linearGradient1469" x1="160.236" x2="159.916" y1="87.648" y2="99.001" gradientUnits="userSpaceOnUse" xlink:href="#innoGrad8"/>
        <linearGradient id="linearGradient1500" x1="125.689" x2="125.689" y1="104.473" y2="108.193" gradientUnits="userSpaceOnUse" xlink:href="#innoGrad8"/>
        <linearGradient id="linearGradient1523" x1="56.473" x2="57.723" y1="110.743" y2="139.906" gradientUnits="userSpaceOnUse" xlink:href="#innoGrad4"/>
        <linearGradient id="linearGradient1568" x1="207.366" x2="207.476" y1="115.672" y2="99.164" gradientUnits="userSpaceOnUse" xlink:href="#innoGrad7"/>
        <linearGradient id="linearGradient1599" x1="173.154" x2="173.285" y1="127.578" y2="116.84" gradientUnits="userSpaceOnUse" xlink:href="#innoGrad3"/>
        <linearGradient id="linearGradient1622" x1="171.931" x2="172.329" y1="114.044" y2="99.539" gradientUnits="userSpaceOnUse" xlink:href="#innoGrad7"/>
        <linearGradient id="linearGradient1645" x1="150.373" x2="153.665" y1="115.972" y2="115.87" gradientUnits="userSpaceOnUse" xlink:href="#innoGrad7"/>
        <linearGradient id="linearGradient1668" x1="147.828" x2="155.028" y1="100.193" y2="100.407" gradientUnits="userSpaceOnUse" xlink:href="#innoGrad7"/>
        <linearGradient id="linearGradient1691" x1="149.125" x2="149.063" y1="113.126" y2="103.188" gradientUnits="userSpaceOnUse" xlink:href="#innoGrad7"/>
        <linearGradient id="linearGradient1745" x1="135.015" x2="134.947" y1="106.023" y2="110.564" gradientUnits="userSpaceOnUse" xlink:href="#innoGrad7"/>
        <linearGradient id="linearGradient1769" x1="122.554" x2="122.57" y1="109.244" y2="106.848" gradientUnits="userSpaceOnUse" xlink:href="#innoGrad7"/>
        <linearGradient id="linearGradient1792" x1="126.197" x2="126.239" y1="109.672" y2="106.672" gradientUnits="userSpaceOnUse" xlink:href="#innoGrad7"/>
        <linearGradient id="linearGradient1815" x1="135.376" x2="150.208" y1="221.355" y2="229.01" gradientTransform="translate(-44.897 -78.186)" gradientUnits="userSpaceOnUse" xlink:href="#innoGrad5"/>
    </defs>
    <g stroke="#000" stroke-miterlimit="10" stroke-width=".786">
        <path fill="#ff7f2a" stroke-width="1.0002793200000002" d="M129.892 142.195s-1.555 5.066-.493 7.945c1.062 2.879 3.898 2.788 3.459 4.77-.196.882-3.695-.83-5.842-3.333-1.688-1.968-2.422-4.885-2.422-4.885zM137.42 136.157s3.409 3.032 4.66 5.725c.934 2.013 1.271 4.69 1.948 4.148.582-.468 1.05-2.43-.048-4.66-1.35-2.743-3.948-5.613-3.948-5.613z"/>
        <path fill="#f95" stroke-width="1.0002793200000002" d="M134.413 138.152s5.948-2.581 8.55.363c3.9 4.417 1.463 8.41 1.463 8.41s-10.158 9.37-11.955 9.588c-.88.106-5.254.26-7.122-2.014-1.943-2.367-1.366-7.168-1.366-7.168l-2.151.198s-5.181 7.057-1.383 11.284c3.799 4.228 11.515 1.775 11.515 1.775s4.472-3.669 8.908-7.413c4.036-3.406 8.082-6.824 7.967-8.526-.164-2.423-3.366-7.98-7.868-8.72-3.269-.536-6.558 2.223-6.558 2.223z"/>
        <path fill="#ff7f2a" stroke-width="1.0002793200000002" d="M190.816 108.596s1.213 1.445 1.237 1.63c.011.093-1.55.921-2.875 2.031-1.27 1.062-2.294 2.414-2.554 2.322-.53-.186-2.618-3.264-2.618-3.264l3.126-3.257z"/>
    </g>
    <g transform="matrix(.9928 -.7962 .7962 .9928 -90.588 107.219)">
        <path fill="#ffe6d5" d="M120.688 126.938l4.052 2.063s3.023 1.296 4.104 4.219c.844 2.281-.438 4.656-.438 4.656l.281 2.75s19.719-12.781 22.406-13.125c1.572-.201 2.511 4.058 3.531 6.188.461.963 1.688.781 1.688.781v-16.72l-.563-4.938-28.708 2.156z"/>
        <path fill="url(#linearGradient1027)" stroke="#000" stroke-miterlimit="10" stroke-width=".786" d="M120.688 126.938l4.052 2.063s3.023 1.296 4.104 4.219c.844 2.281-.438 4.656-.438 4.656l.281 2.75s19.719-12.781 22.406-13.125c1.572-.201 2.511 4.058 3.531 6.188.461.963 1.688.781 1.688.781v-16.72l-.563-4.938-28.708 2.156z"/>
        <path fill="#ffe6d5" d="M126.625 125.875c.456-.456 2.783 2.571 5.125 5.656 1.95 2.57 4.938 4.438 3.969 5.344-.969.906-2.786-1.979-4.969-4.625-2.374-2.879-4.531-5.969-4.125-6.375zM130.094 123.5c.455-.456 3.04 3.041 5.382 6.126 1.95 2.57 4.938 4.438 3.969 5.344-.969.906-2.786-1.979-4.969-4.625-2.374-2.879-4.788-6.439-4.382-6.845zM133.857 121.611c.455-.456 2.783 2.571 5.125 5.656 1.95 2.571 4.938 4.438 3.969 5.344-.969.906-2.786-1.979-4.969-4.625-2.374-2.879-4.531-5.969-4.125-6.375zM137.402 119.535c.455-.456 2.783 2.571 5.125 5.656 1.95 2.57 4.938 4.438 3.969 5.344-.969.906-2.786-1.979-4.969-4.625-2.374-2.879-4.531-5.969-4.125-6.375zM141.656 118.344c.455-.456 2.014 1.593 4.355 4.679 1.95 2.57 4.676 4.446 3.707 5.353-.969.907-2.524-1.987-4.707-4.634-2.373-2.88-3.761-4.992-3.355-5.398z"/>
        <path fill="url(#linearGradient1145)" stroke="#000" stroke-miterlimit="10" stroke-width=".786" d="M126.625 125.875c.456-.456 2.783 2.571 5.125 5.656 1.95 2.57 4.938 4.438 3.969 5.344-.969.906-2.786-1.979-4.969-4.625-2.374-2.879-4.531-5.969-4.125-6.375z"/>
        <path fill="url(#linearGradient1153)" stroke="#000" stroke-miterlimit="10" stroke-width=".786" d="M130.094 123.5c.455-.456 3.04 3.041 5.382 6.126 1.95 2.57 4.938 4.438 3.969 5.344-.969.906-2.786-1.979-4.969-4.625-2.374-2.879-4.788-6.439-4.382-6.845z"/>
        <path fill="url(#linearGradient1161)" stroke="#000" stroke-miterlimit="10" stroke-width=".786" d="M133.857 121.611c.455-.456 2.783 2.571 5.125 5.656 1.95 2.571 4.938 4.438 3.969 5.344-.969.906-2.786-1.979-4.969-4.625-2.374-2.879-4.531-5.969-4.125-6.375z"/>
        <path fill="url(#linearGradient1169)" stroke="#000" stroke-miterlimit="10" stroke-width=".786" d="M137.402 119.535c.455-.456 2.783 2.571 5.125 5.656 1.95 2.57 4.938 4.438 3.969 5.344-.969.906-2.786-1.979-4.969-4.625-2.374-2.879-4.531-5.969-4.125-6.375z"/>
        <path fill="url(#linearGradient1177)" stroke="#000" stroke-miterlimit="10" stroke-width=".786" d="M141.656 118.344c.455-.456 2.014 1.593 4.355 4.679 1.95 2.57 4.676 4.446 3.707 5.353-.969.907-2.524-1.987-4.707-4.634-2.373-2.88-3.761-4.992-3.355-5.398z"/>
        <circle cx="142.219" cy="128.84" r=".5" fill="#ff7f2a" stroke="#000" stroke-miterlimit="10" stroke-width=".393"/>
        <circle cx="151.866" cy="120.218" r="1.647" fill="#ff7f2a" stroke="#000" stroke-miterlimit="10" stroke-width=".786"/>
    </g>
    <g transform="matrix(.9928 -.7962 .7962 .9928 -90.588 107.219)">
        <path fill="#fca" d="M210.375 114.188s-12.927-.751-27.124 8.229c-11 6.958-15.211 15.074-16.563 15.396l-1.75.063s.029-5.141-.031-10.188c-.051-4.279-.197-9.021-1.969-10.094-.289-.175-6.781-.25-7.281.156-.133.108-.206-3.334-.323-3.918-.167-.832-11.521 1.552-15.083 2.384-6.32 1.477-15.508 7.394-18.375 9.909-.617.542 3.321 2.716 3.126 2.875-1.375 1.125-11.125.648-13.188 1.074L110.188 129l-4-17.125 7-2.75z"/>
        <path fill="url(#linearGradient1278)" stroke="#000" stroke-miterlimit="10" stroke-width=".786" d="M113.188 109.125l-7 2.75 4 17.125 1.626 1.074c2.063-.426 11.813.051 13.188-1.074.195-.159-3.742-2.333-3.125-2.875 2.867-2.515 12.055-8.431 18.375-9.908 3.562-.832 14.915-3.217 15.082-2.385.117.584.19 4.026.322 3.918.5-.406 6.992-.331 7.281-.156 1.772 1.073 1.918 5.815 1.97 10.094.06 5.046.03 10.189.03 10.189l1.75-.064c1.352-.322 5.565-8.437 16.565-15.395 14.197-8.98 27.123-8.23 27.123-8.23z"/>
        <circle cx="112.126" cy="126.124" r=".979" fill="#ff7f2a" stroke="#000" stroke-miterlimit="10" stroke-width=".393"/>
        <circle cx="112.722" cy="115.412" r=".804" fill="#ff7f2a" stroke="#000" stroke-miterlimit="10" stroke-width=".393"/>
        <circle cx="124.739" cy="119.282" r="3.041" fill="none" stroke="#000" stroke-miterlimit="10" stroke-width=".393"/>
        <path fill="none" stroke="#000" stroke-miterlimit="10" stroke-width=".393" d="M133.041 111.955h4.167s1.042.417 1.042 1.625-1.042 1.625-1.042 1.625h-4.167s-1.125-.375-1.125-1.625 1.125-1.625 1.125-1.625z"/>
        <path fill="#ffb380" d="M162.708 117.458l1.167 1.31v-5.955h-8.125v4.687z"/>
        <path fill="url(#linearGradient1247)" stroke="#000" stroke-miterlimit="10" stroke-width=".786" d="M162.708 117.458l1.167 1.31v-5.955h-8.125v4.687z"/>
    </g>
    <g>
        <path fill="#f95" stroke="#000" stroke-miterlimit="10" stroke-width="1.0002793200000002" d="M212.61 53.974l1.655-1.328 2.29 2.855-1.655 1.327z"/>
        <path fill="#ffe6d5" d="M210.16 54.647l1.986-1.593 3.657 4.56-1.986 1.593z"/>
        <path fill="url(#linearGradient1308)" stroke="#000" stroke-miterlimit="10" stroke-width=".786" d="M210.203 115.625h2v4.593h-2z" transform="matrix(.9928 -.7962 .7962 .9928 -90.588 107.219)"/>
        <path fill="#fca" d="M246.07 24.488s3.342 3.913 3.45 4.302c.109.39-4.47 2.905-6.041 3.826-1.572.92-19.997 16.511-20.947 17.614-.95 1.104-5.185 6.334-5.491 6.375-.306.042-4.313-5.378-4.313-5.378l33.342-26.74z"/>
        <path fill="url(#linearGradient1331)" stroke="#000" stroke-miterlimit="10" stroke-width=".786" d="M213.457 114.791s-.208 5.291 0 5.416 5.375-.998 6.5-1.207c1.125-.209 20.084-.708 21.5-.5 1.416.208 5.461.917 5.586.625.125-.292 0-4.332 0-4.332v-.002z" transform="matrix(.9928 -.7962 .7962 .9928 -90.588 107.219)"/>
    </g>
    <g transform="matrix(.9928 -.7962 .7962 .9928 -90.588 107.219)">
        <path fill="#ffe6d5" d="M210.375 114.785v5.089s.709.959-.291 1.667c-.178.126-1.445.258-2.787.958-2.189 1.145-5.395 3.485-10.458 7.417-9.229 7.168-20.76 16.882-22.958 15.984-1.084-.442-.543-4.565-1.084-5.609-1.1-2.118-3.788-1.816-6.109-2.479-2.406-.688 7.151-13.692 18.108-19.355 11.103-5.738 25.579-3.672 25.579-3.672z"/>
        <path fill="url(#linearGradient1355)" stroke="#000" stroke-miterlimit="10" stroke-width=".786" d="M210.375 114.785v5.089s.709.959-.291 1.667c-.178.126-1.445.258-2.787.958-2.189 1.145-5.395 3.485-10.458 7.417-9.229 7.168-20.76 16.882-22.958 15.984-1.084-.442-.543-4.565-1.084-5.609-1.1-2.118-3.788-1.816-6.109-2.479-2.406-.688 7.151-13.692 18.108-19.355 11.103-5.738 25.579-3.672 25.579-3.672z"/>
        <path fill="#ffe6d5" d="M172.547 134.416c.293-.248 2.613 2.329 4.625 4.792 1.65 2.019 3.817 3.253 2.875 4.125-.885.818-2.005-1.066-3.68-3.207-1.91-2.44-4.113-5.462-3.82-5.71zM175.594 131.543c.293-.248 3.06 3.037 5.071 5.5 1.65 2.019 3.817 3.253 2.875 4.125-.885.818-2.005-1.066-3.68-3.207-1.91-2.44-4.559-6.17-4.266-6.418zM178.424 128.625c.293-.248 3.331 3.395 5.343 5.858 1.65 2.019 3.817 3.253 2.875 4.125-.885.818-2.005-1.066-3.68-3.207-1.91-2.441-4.831-6.528-4.538-6.776zM181.507 125.656c.293-.248 3.7 3.834 5.712 6.297 1.65 2.019 3.817 3.253 2.875 4.125-.885.818-2.005-1.066-3.68-3.207-1.91-2.44-5.2-6.967-4.907-7.215zM185.028 123.5c.293-.248 3.392 3.405 5.403 5.868 1.65 2.019 3.817 3.253 2.875 4.125-.885.818-2.005-1.066-3.68-3.207-1.909-2.44-4.891-6.538-4.598-6.786zM188.891 121.25c.381-.209 2.896 3.203 4.908 5.666 1.65 2.019 3.561 3.358 2.618 4.23-.885.818-2.005-1.066-3.68-3.207-1.91-2.44-4.408-6.381-3.846-6.689zM192.486 119.541c.451-.474 2.64 2.697 4.651 5.16 1.65 2.019 3.817 3.253 2.875 4.125-.885.819-2.005-1.066-3.68-3.207-1.909-2.441-4.242-5.661-3.846-6.078zM196.342 117.932c.465-.292 1.951 1.973 3.963 4.436 1.649 2.02 3.817 3.253 2.875 4.125-.885.818-2.005-1.066-3.68-3.207-1.91-2.441-3.483-5.15-3.158-5.354zM200.924 116.874c.293-.248 1.154.371 3.166 2.833 1.65 2.019 3.469 3.393 2.526 4.265-.885.818-2.005-1.066-3.68-3.207-1.91-2.44-2.305-3.643-2.012-3.891z"/>
        <path fill="url(#linearGradient1402)" stroke="#000" stroke-miterlimit="10" stroke-width=".786" d="M172.547 134.416c.293-.248 2.613 2.329 4.625 4.792 1.65 2.019 3.817 3.253 2.875 4.125-.885.818-2.005-1.066-3.68-3.207-1.91-2.44-4.113-5.462-3.82-5.71z"/>
        <path fill="url(#linearGradient1404)" stroke="#000" stroke-miterlimit="10" stroke-width=".786" d="M175.594 131.543c.293-.248 3.06 3.037 5.071 5.5 1.65 2.019 3.817 3.253 2.875 4.125-.885.818-2.005-1.066-3.68-3.207-1.91-2.44-4.559-6.17-4.266-6.418z"/>
        <path fill="url(#linearGradient1406)" stroke="#000" stroke-miterlimit="10" stroke-width=".786" d="M178.424 128.625c.293-.248 3.331 3.395 5.343 5.858 1.65 2.019 3.817 3.253 2.875 4.125-.885.818-2.005-1.066-3.68-3.207-1.91-2.441-4.831-6.528-4.538-6.776z"/>
        <path fill="url(#linearGradient1408)" stroke="#000" stroke-miterlimit="10" stroke-width=".786" d="M181.507 125.656c.293-.248 3.7 3.834 5.712 6.297 1.65 2.019 3.817 3.253 2.875 4.125-.885.818-2.005-1.066-3.68-3.207-1.91-2.44-5.2-6.967-4.907-7.215z"/>
        <path fill="url(#linearGradient1410)" stroke="#000" stroke-miterlimit="10" stroke-width=".786" d="M185.028 123.5c.293-.248 3.392 3.405 5.403 5.868 1.65 2.019 3.817 3.253 2.875 4.125-.885.818-2.005-1.066-3.68-3.207-1.909-2.44-4.891-6.538-4.598-6.786z"/>
        <path fill="url(#linearGradient1412)" stroke="#000" stroke-miterlimit="10" stroke-width=".786" d="M188.891 121.25c.381-.209 2.896 3.203 4.908 5.666 1.65 2.019 3.561 3.358 2.618 4.23-.885.818-2.005-1.066-3.68-3.207-1.91-2.44-4.408-6.381-3.846-6.689z"/>
        <path fill="url(#linearGradient1414)" stroke="#000" stroke-miterlimit="10" stroke-width=".786" d="M192.486 119.541c.451-.474 2.64 2.697 4.651 5.16 1.65 2.019 3.817 3.253 2.875 4.125-.885.819-2.005-1.066-3.68-3.207-1.909-2.441-4.242-5.661-3.846-6.078z"/>
        <path fill="url(#linearGradient1416)" stroke="#000" stroke-miterlimit="10" stroke-width=".786" d="M196.342 117.932c.465-.292 1.951 1.973 3.963 4.436 1.649 2.02 3.817 3.253 2.875 4.125-.885.818-2.005-1.066-3.68-3.207-1.91-2.441-3.483-5.15-3.158-5.354z"/>
        <path fill="url(#linearGradient1418)" stroke="#000" stroke-miterlimit="10" stroke-width=".786" d="M200.924 116.874c.293-.248 1.154.371 3.166 2.833 1.65 2.019 3.469 3.393 2.526 4.265-.885.818-2.005-1.066-3.68-3.207-1.91-2.44-2.305-3.643-2.012-3.891z"/>
        <circle cx="202.669" cy="122.819" r=".681" fill="#ff7f2a" stroke="#000" stroke-miterlimit="10" stroke-width=".393"/>
        <circle cx="182.965" cy="137.505" r=".557" fill="#ff7f2a" stroke="#000" stroke-miterlimit="10" stroke-width=".393"/>
    </g>
    <g>
        <path fill="#f95" stroke="#000" stroke-miterlimit="10" stroke-width="1.27262" d="M138.989 76.282l2.046-1.64 1.747 2.178-2.046 1.64z"/>
        <path fill="#ffb380" d="M137.034 68.126s-.187-.36 1.115-1.405c1.303-1.045 1.615-.784 1.615-.784s1.578 1.075 3.208 2.729c1.71 1.736 3.4 4.265 5.168 5.235 1.158.637 3.182-.206 4.127.972 1.095 1.366-14.743 11.824-14.743 11.824l-1.493-1.861s4.783-3.733 4.702-8.157c-.08-4.342-3.7-8.553-3.7-8.553z"/>
        <path fill="url(#linearGradient1469)" stroke="#000" stroke-miterlimit="10" d="M158.75 87.938s.063-.313 1.375-.313 1.375.313 1.375.313.439 1.435.625 3.25c.195 1.905-.013 4.286.594 5.75.397.96 2.052 1.438 2.052 2.625 0 1.375-14.85 0-14.85 0v-1.875s4.767.063 6.892-2.688c2.086-2.701 1.937-7.062 1.937-7.062z" transform="matrix(.9928 -.7962 .7962 .9928 -90.588 107.219)"/>
        <path fill="#ffb380" stroke="#000" stroke-miterlimit="10" stroke-width="1.27262" d="M138.01 87.304l13.079-10.489 1.926 2.403-13.078 10.488z"/>
        <path fill="#fca" stroke="#000" stroke-miterlimit="10" stroke-width="1.27262" d="M149.441 76.732s-.1-.888.558-1.467c.658-.578 1.722-.386 2.11.284.387.67.333 1.682-.375 2.199-.708.517-1.298.225-1.298.225l-11.951 9.635-1.046-1.303z"/>
        <path fill="none" stroke="#000" stroke-miterlimit="10" stroke-width="1.27262" d="M134.454 87.73l-18.035 15.841 1.492 1.861L136.62 90.43z"/>
        <path fill="#ffb380" stroke="#000" stroke-miterlimit="10" stroke-width="1.27262" d="M122.834 92.82l-1.986 1.592 1.916 2.388 2.7-2.164zM116.48 98.373s-.224-.279.583-.926c.808-.647 1.031-.368 1.031-.368l2.09 2.606-1.613 1.293-2.09-2.606z"/>
        <path fill="#fca" d="M130.08 95.37l-2.613-3.258-12.682 11.393 2.164 2.699zM135.092 86.047l-5.919 4.696 2.737 3.412 6.136-4.87z"/>
        <path fill="url(#linearGradient1444)" stroke="#000" stroke-miterlimit="10" d="M141.094 97.938l-13.375.749v2.719l13.375-.187z" transform="matrix(.9928 -.7962 .7962 .9928 -90.588 107.219)"/>
        <path fill="url(#linearGradient1446)" stroke="#000" stroke-miterlimit="10" d="M148.75 97.969l-5.937-.031v3.437l6.156.031z" transform="matrix(.9928 -.7962 .7962 .9928 -90.588 107.219)"/>
        <path fill="#f95" stroke="#000" stroke-miterlimit="10" stroke-width="1.27262" d="M117.925 106.849l32.42-26 2.763 3.443-32.42 26z"/>
    </g>
    <g>
        <path fill="#fca" d="M71.583 156.37s10.808-15.261 12.482-17.114c1.673-1.853 23.366-20.575 23.366-20.575l.64.863 1.8-1.444-1.321-1.776 1.582-1.27 1.387 1.725 1.52-1.218-1.343-1.862 1.707-1.368 1.404 1.813 1.43-1.147-1.345-1.86 1.644-1.32 1.456 1.773 1.499-1.202-1.512-1.822 1.583-1.27 1.511 1.823 1.552-1.245-1.506-1.877 1.52-1.22 1.506 1.878 1.803-1.446-1.466-1.883 1.272-1.02 1.468 1.882 1.918-1.538-1.493-1.862 1.489-1.194 1.493 1.861 1.758-1.41-1.633-1.928 1.552-1.245 1.58 1.97 1.52-1.218-1.66-2.035 1.685-1.3 1.618 2.015 1.769-1.418-1.767-2.203 1.552-1.244 1.766 2.203 8.067-6.47-1.903-2.5 1.55-1.243 1.965 2.45 1.737-1.393-2.09-2.606 1.893-1.517 8.141 9.834z"/>
        <path fill="url(#linearGradient1500)" stroke="#000" stroke-miterlimit="10" stroke-width=".786" d="M75.247 109.855s14.128-4.042 16.065-4.355c1.937-.313 24.438-1.125 24.438-1.125l-.031.844h1.813l.063-1.739h1.594l.002 1.739 1.531.001.092-1.802h1.719l-.031 1.802h1.441l.09-1.802h1.656l.021 1.802h1.51l-.031-1.86h1.594l.031 1.86h1.563v-1.891h1.531v1.891h1.816l.027-1.875h1.281l-.025 1.875h1.932v-1.875h1.5v1.875h1.771l-.053-1.985h1.563v1.985h1.531l-.017-2.063 1.672.031.001 2.031h1.781V103h1.563v2.219h8.125l.063-2.469H158v2.469h1.75v-2.625h1.906l.156 10.031z" transform="matrix(.9928 -.7962 .7962 .9928 -90.588 107.219)"/>
    </g>
    <g>
        <path fill="#ffb380" d="M35.065 188.647c5.978-5.194 12.158-11.088 18.965-17.047 31.42-27.499 68.338-58.322 68.338-58.322l1.767 2.203-8.935 7.166-.342 5.167-6.366 5.413 13.023 14.33s-1.788 5.207.955 8.819c3.658 4.815 9.221 3.616 9.495 4.212.274.596-1.266.709-1.34 1.38-.072.672 1.263 6.533 1.263 6.533s2.375 1.053 2.425 1.625c.05.571-1.886 1.716-1.886 1.716s2.01 11.435 3.41 15.822c.872 2.738 3.464-1.147 4.375 2.813.413 1.794-19.745 10.799-21.378 10.312-2.348-.699-5.103-36.852-5.61-38.889-.796-3.194-3.295-4.968-6.008-5.219-2.536-.234-6.47.748-8.109 3.24-9.824 14.94-30.423 45.482-44.948 67.146-8.642 12.888-14.294 23.447-16.555 23.473-.296.003-1.528-1.309-3.279-3.642-.127-.169.271-.666.152-.86-.182-.297-.808-.245-1.096-.593-.289-.348.312-.766-.008-1.198-.32-.431-.813.067-1.172-.395-.36-.463.025-.876-.289-1.3-.313-.423-.779-.05-1.023-.47-.245-.421.33-.912-.007-1.29-.338-.379-.817-.034-1.13-.515-.314-.48.213-.79-.103-1.14-.316-.353-.786-.04-1.137-.48-.35-.442.091-.805-.242-1.2-.333-.395-.778-.038-1.052-.448-.273-.41.107-.9-.093-1.149-.201-.248-.951-.146-1.176-.42-.225-.275.158-.861-.156-1.2-.314-.339-.917-.092-1.118-.327-.2-.236.07-.842-.206-1.195-.275-.354-.881-.065-1.115-.33-.233-.265.19-.877-.125-1.26-.315-.382-.86.125-1.12-.294-.261-.419-.096-.956-.337-1.224-.241-.269-.736.013-1.045-.286-.308-.3.101-.657-.254-1.123-.355-.465-.983-.092-1.306-.483-.323-.39.132-.704-.22-1.08-.353-.377-.689.19-1.17-.355-.48-.546.098-.6-.348-1.113-.446-.514-.66.182-1.177-.302-.516-.483.065-.714-.33-1.11-.394-.397-.709.006-1.063-.344-.353-.349.08-.755-.381-1.118-.46-.363-.8.126-1.238-.268-.438-.394-.063-.708-.478-1.11-.415-.4-.586.234-1.086-.208-.5-.442.041-.922-.378-1.234-.42-.311-.767.295-1.213-.097-.447-.392.106-1.017-.271-1.16-.377-.142-.92.148-1.13-.03-2.164-1.861-3.063-3.737-2.756-4.298 1.202-2.188 6.885-5.909 29.137-25.244zm-8.443 39.805c4.044 5.016 7.084 11.471 10.6 11.227 3.218-.225 6.443-7.29 11.147-14.494 5.36-8.207 12.215-16.585 10.212-19.304-2.003-2.72-13.56 2.466-24.092 5.556-8.346 2.449-15.717 3.23-16.39 6.007-.827 3.417 4.651 6.207 8.523 11.008zm.918-21.23c1.222 3.92 9.876.31 17.91-2.332 8.192-2.696 16.23-4.652 17.359-6.07 1.082-1.362.428-6.016.223-10.783-.217-5.07-.117-10.107-1.652-10.706-2.225-.866-10.288 5.205-18.36 12.323-7.824 6.898-16.516 14.242-15.48 17.568zm63.016-52.373c-2.855-2.414-8.63 2.843-13.582 6.712-5.343 4.175-9.744 7.475-10.523 9.254-.63 1.443-.14 4.625-.027 8.231.16 5.032.356 10.621 2.578 11.097 3.815.815 8.274-9.125 14.48-18.304 4.904-7.25 10.726-13.9 7.074-16.99z"/>
        <path fill="url(#linearGradient1815)" d="M110.188 129s-3.656 2.313-3.75 5.875c-.125 4.75 3.875 6.75 3.75 7.25s-1.125-.188-1.5.188-2.438 4.625-2.438 4.625.938 1.813.688 2.188c-.25.375-2 .125-2 .125s-4.389 7.998-5.688 11.375c-.811 2.107 2.688 1 1.299 3.875-.629 1.303-17.412-3.087-18.174-4.188-1.096-1.583 14.989-25.099 15.679-26.597 1.083-2.349.423-4.665-1.117-6.153z" transform="matrix(.9928 -.7962 .7962 .9928 -90.588 107.219)"/>
        <path fill="url(#linearGradient1523)" stroke="#000" stroke-miterlimit="10" stroke-width=".786" d="M36.993 111.688c6.218-.245 12.904-.82 20.006-1.126 32.78-1.411 70.564-2.156 70.564-2.156v2.219h-9l-2.75 3-6.564.188.939 15.187s-3.657 2.313-3.75 5.875c-.126 4.75 3.874 6.75 3.75 7.25-.126.5-1.126-.188-1.5.188-.376.376-2.439 4.625-2.439 4.625s.939 1.813.689 2.188c-.25.375-2 .125-2 .125s-4.39 7.998-5.689 11.375c-.81 2.107 2.689 1 1.3 3.875-.63 1.303-17.413-3.087-18.175-4.188-1.095-1.583 14.99-25.099 15.68-26.597 1.083-2.349.423-4.665-1.117-6.153-1.44-1.39-4.333-2.722-6.563-2-13.367 4.328-41.01 12.924-60.563 19.063-11.634 3.652-20.29 7.346-21.688 6.25-.183-.143-.293-1.553-.22-3.844.006-.166.494-.275.517-.453.034-.271-.375-.547-.381-.902-.006-.355.568-.316.584-.738.016-.422-.531-.359-.524-.819.007-.46.446-.524.462-.938.016-.414-.453-.414-.396-.792.057-.378.65-.396.63-.794-.021-.398-.484-.422-.44-.871.044-.449.519-.379.498-.75-.021-.371-.463-.41-.461-.853.002-.443.45-.448.44-.854-.01-.406-.457-.406-.423-.792.034-.386.508-.499.507-.75-.001-.251-.511-.557-.514-.836-.003-.279.52-.45.494-.812-.026-.362-.517-.507-.524-.75-.007-.243.456-.482.46-.834.006-.352-.507-.473-.52-.75-.013-.277.547-.445.542-.834-.005-.389-.588-.346-.542-.731.046-.385.412-.633.396-.916-.016-.283-.458-.354-.5-.689-.042-.335.385-.353.396-.813.01-.46-.557-.54-.563-.938-.006-.398.427-.367.396-.771-.031-.404-.516-.221-.542-.792-.026-.571.354-.32.333-.854-.021-.534-.494-.213-.573-.763-.08-.55.39-.406.344-.843-.047-.437-.438-.345-.483-.733-.045-.388.42-.424.316-.873-.104-.449-.552-.316-.627-.773-.075-.457.309-.465.252-.915-.057-.45-.474-.145-.563-.662-.09-.517.479-.545.375-.942-.104-.397-.615-.196-.696-.656-.081-.46.565-.571.404-.844-.161-.273-.637-.362-.677-.574-.412-2.205-.041-3.797.423-3.99 1.812-.75 7.125-.237 30.27-1.15zm-24.744 20.25c.013 5.063-1.297 10.514.98 12.093 2.082 1.444 7.532-1.302 13.957-3.405 7.32-2.396 15.641-4.161 15.75-6.813.11-2.652-9.525-5.155-17.5-8.438-6.32-2.602-11.222-5.747-13-4.375-2.187 1.688-.2 6.091-.187 10.938zm11-12.563c-1.179 3.004 5.901 5.045 12.125 7.375 6.347 2.375 12.236 5.128 13.625 4.813 1.333-.303 3.22-3.477 5.438-6.5 2.36-3.215 4.898-6.253 4.25-7.375-.937-1.625-8.864-1.867-17.312-1.472-8.188.382-17.126.611-18.126 3.159zm64.376-1.125c-.564-2.883-6.689-2.5-11.626-2.563-5.327-.067-9.647-.208-11 .5-1.095.574-2.36 2.766-4.062 5.032-2.377 3.163-5.004 6.686-3.876 8.07 1.938 2.375 9.558-1.526 17.875-4.102 6.57-2.033 13.408-3.247 12.688-6.937z" transform="matrix(.9928 -.7962 .7962 .9928 -90.588 107.219)"/>
        <path fill="#ff7f2a" stroke="#000" stroke-miterlimit="10" stroke-width="1.27262" d="M18.1 217.443c.673-2.777 8.428-4.476 16.774-6.927 10.53-3.091 21.705-7.357 23.709-4.637 2.002 2.718-4.368 11.726-9.727 19.935-4.704 7.205-8.413 13.64-11.632 13.862-3.517.246-6.557-6.208-10.6-11.225-3.874-4.8-9.353-7.59-8.524-11.008zm10.282 2.461c2.415-1.856 5.066-3.349 3.347-5.488-1.11-1.383-3.582.603-5.841 2.441-2.26 1.839-4.595 3.327-3.166 5.108 1.557 1.942 3.36-.297 5.66-2.06zm6.56 16.506c.68.89 1.409 1.828 2.009 1.805.725-.027 2.389-2.394 4.143-4.75 1.729-2.32 3.563-4.585 2.365-6.078-1.318-1.644-3.656.947-6.061 2.872-1.832 1.467-3.968 3.057-3.732 3.86.238.809.788 1.651 1.276 2.29z"/>
        <path fill="#fca" fill-rule="evenodd" d="M39.16 212.995l3.942 11.11 3.229-11.43-9.156 7.313 11.973-.707z"/>
        <path fill="#fca" stroke="#010101" stroke-width=".5001396600000001" d="M112.945 124.455c.305.326-.171 2.923-.171 2.923-1.281 1.749-5.73 5.085-5.632 5.605.141.77 3.98 4.964 3.51 6.326-.222.639-7.504 3.531-13.464 6.688-4.674 2.474-8.246 5.822-9.984 3.656-2.223-2.772 24.795-26.207 25.741-25.198z"/>
        <path fill="none" stroke="#010101" stroke-width=".5001396600000001" d="M107.142 132.983s-3.683 3.963-5.008 5.783c-1.326 1.82-4.173 6.825-4.173 6.825"/>
        <path fill="none" stroke="#010101" stroke-width="1.0002793200000002" d="M85.332 155.39s8.393-5.477 15.708-9.08c7.314-3.604 14.106-5.604 14.106-5.604"/>
    </g>
    <g transform="matrix(.9928 -.7962 .7962 .9928 -90.588 107.219)">
        <path fill="#ffe680" d="M249.25 99.375c-.301-.301-83.875.49-84.813.5-1.933.02-3.134 3.653-4.688 3.875-3.624.518-5.438.125-5.438.125v8.25s2.559-.275 5.625.125c.397.052 2.109 3.505 4.063 3.559 1.059.029 85.257.356 85.509.004.313-.438.117-16.063-.258-16.438z"/>
        <path fill="url(#linearGradient1568)" stroke="#000" stroke-miterlimit="10" stroke-width=".786" d="M249.25 99.375c-.301-.301-83.875.49-84.813.5-1.933.02-3.134 3.653-4.688 3.875-3.624.518-5.438.125-5.438.125v8.25s2.559-.275 5.625.125c.397.052 2.109 3.505 4.063 3.559 1.059.029 85.257.356 85.509.004.313-.438.117-16.063-.258-16.438z"/>
        <path fill="#fea" stroke="#000" stroke-miterlimit="10" d="M177.375 113.75H168.5l-.375 1.625h9.688z"/>
        <path fill="#ffe680" d="M178.125 126.25c.148-.279-.313-10.875-.313-10.875h-9.688s-.5 10.29 0 10.895c.5.605 1.063.855 1.063.855H177s.977-.596 1.125-.875z"/>
        <path fill="url(#linearGradient1599)" stroke="#000" stroke-miterlimit="10" d="M178.125 126.25c.148-.279-.313-10.875-.313-10.875h-9.688s-.5 10.29 0 10.895c.5.605 1.063.855 1.063.855H177s.977-.596 1.125-.875z"/>
        <path fill="none" stroke="#000" stroke-miterlimit="10" d="M175.188 127.125l.406-.719v-2.218H170.5v2.218l.563.719"/>
        <path fill="#fd5" d="M169.625 99.307h6.344v15.1h-6.344z"/>
        <path fill="url(#linearGradient1622)" stroke="#000" stroke-miterlimit="10" d="M169.625 99.307h6.344v15.1h-6.344z"/>
        <path fill="#fea" stroke="#000" stroke-miterlimit="10" d="M150.188 112.625s.21.786.25 1.375c.04.589-.063 1.375-.063 1.375h3.094s-.134-.5-.094-1.375c.04-.875.219-1.375.219-1.375z"/>
        <path fill="#ffe680" d="M150 114.906c.281-.219 3.625-.094 3.844 0 .219.094.188 1.75 0 1.875s-3.563.25-3.844 0c-.281-.25 0-1.875 0-1.875z"/>
        <path fill="url(#linearGradient1645)" stroke="#000" stroke-miterlimit="10" d="M150 114.906c.281-.219 3.625-.094 3.844 0 .219.094.188 1.75 0 1.875s-3.563.25-3.844 0c-.281-.25 0-1.875 0-1.875z"/>
        <path fill="#ffe680" stroke="#000" stroke-miterlimit="10" d="M149.656 101.781l.844 1.75h2.688l.656-1.75z"/>
        <path fill="#ffe680" d="M147.969 98.719c-.219.188-.25 3.156 0 3.281s7.58.236 7.781-.031c.258-.344.249-2.945-.001-3.25-.25-.305-7.561-.188-7.78 0z"/>
        <path fill="url(#linearGradient1668)" stroke="#000" stroke-miterlimit="10" d="M147.531 98.687c-.219.188-.25 3.156 0 3.281s7.58.236 7.781-.031c.258-.344.249-2.945-.001-3.25-.25-.305-7.561-.188-7.78 0z"/>
        <path fill="#ffe680" d="M154.313 103.188v9.938h-5.188s-.166-1.422-1.052-1.672-5.136-.078-5.136-.078-.985-.051-1.625-.531l-1.124-.845v-3.875s.188-.219.656-.656c.468-.437 1.094-.406 1.094-.406s5.683.057 6.375-.125c.692-.182.75-1.75.75-1.75z"/>
        <path fill="url(#linearGradient1691)" stroke="#000" stroke-miterlimit="10" d="M154.313 103.188v9.938h-5.188s-.166-1.422-1.052-1.672-5.136-.078-5.136-.078-.985-.051-1.625-.531l-1.124-.845v-3.875s.188-.219.656-.656c.468-.437 1.094-.406 1.094-.406s5.683.057 6.375-.125c.692-.182.75-1.75.75-1.75z"/>
        <path fill="#fff6d5" stroke="#000" stroke-miterlimit="10" d="M143.717 108.144l.08.824s-3.803.712-3.782-.535c.017-1.1 3.702-.289 3.702-.289zM150.251 108.756l-2.945-.056-.033-1.061 2.95.08z"/>
        <circle cx="94.273" cy="-154.862" r="2.188" fill="#fff6d5" stroke="#000" stroke-miterlimit="10" transform="rotate(95.35)"/>
        <path fill="#fff6d5" stroke="#000" stroke-miterlimit="10" stroke-width=".786" d="M140.188 106.219s-.521.381-.917.381-.802-.381-.802-.381h-1.719v4.073h1.719s.405-.354.822-.354c.417 0 .897.062.897.062v-3.875z"/>
        <path fill="none" stroke="#000" stroke-miterlimit="10" stroke-width=".786" d="M138.469 106.219v4.073"/>
        <path fill="#fea" stroke="#000" stroke-miterlimit="10" stroke-width=".786" d="M132.125 110.208l2.125.875h1.916l.584-.791v-3.771l-.459-.938h-2l-2.166.636z"/>
        <path fill="#ffe680" d="M134.291 105.583l-.041 5.5h2.055l-.014-5.5z"/>
        <path fill="url(#linearGradient1745)" stroke="#000" stroke-miterlimit="10" stroke-width=".786" d="M134.291 105.582l-.041 5.5h2.055l-.014-5.5z"/>
        <path fill="#ffe680" stroke="#000" stroke-miterlimit="10" stroke-width=".786" d="M128.229 105.833h3.896v4.792h-3.896z"/>
        <path fill="none" stroke="#000" stroke-miterlimit="10" stroke-width=".786" d="M128.229 108.125h3.896"/>
        <path fill="#fea" d="M119.708 106.625h8.521v3.042h-8.521z"/>
        <path fill="url(#linearGradient1769)" stroke="#000" stroke-miterlimit="10" stroke-width=".786" d="M119.708 106.625h8.521v3.042h-8.521z"/>
        <path fill="#fea" d="M125.229 106.219v3.969h1.814v-3.97z"/>
        <path fill="url(#linearGradient1792)" stroke="#000" stroke-miterlimit="10" stroke-width=".786" d="M125.229 106.219v3.969h1.814v-3.97z"/>
        <path fill="#414042" stroke="#000" stroke-miterlimit="10" stroke-width=".786" d="M126.76 119.657l-1.336 1.562-2.021-.375-.685-1.937 1.335-1.563 2.021.375z"/>
        <path fill="#fff6d5" stroke="#000" stroke-miterlimit="10" stroke-width=".786" d="M119.707 106.813s-2.603.01-5.541.064c-5.88.107-14.223 1.374-13.584 9.963.972 13.06 24.647 4.062 24.647 4.062s1.283-.486.716-1.966c-.404-1.056-1.799-.721-1.799-.721s-20.937 8.006-20.917-1.791c.013-6.054 6.299-6.713 11.103-6.756 2.971-.027 5.375-.161 5.375-.162z"/>
    </g>
    <g fill="#fff6d5">
        <path d="M191.115 54.062a.67.67 0 0 0 .033.078l-.04.079a.215.215 0 0 1-.124.108.23.23 0 0 1-.167.004c-.055-.02-.086-.028-.14-.047a7.004 7.004 0 0 0-.23-.09c-.058-.023-.156-.068-.293-.129-.142-.063-.343-.144-.577-.252-.229-.105-.456-.212-.684-.31-.228-.098-.471-.196-.726-.298-.255-.102-.437-.177-.552-.22l-.526-.192c-.231-.085-.397-.162-.475-.183-.014-.004-.028-.003-.035-.006l-.026-.014a.12.12 0 0 1-.034-.023c-.012-.01-.023-.02-.032-.03a.101.101 0 0 1-.02-.045c-.007-.02-.016-.039-.016-.061a.248.248 0 0 1 .107-.22.32.32 0 0 1 .207-.044c.043.005.07.005.113.01.208-.01.415-.004.623.014.196.019.353.036.475.052.117.015.313.044.584.079.263.033.48.052.638.064l.236.013c.003-.006-.126-.145-.195-.233-.072-.092-.136-.192-.195-.284a5.587 5.587 0 0 0-.233-.326c-.097-.13-.175-.225-.225-.288-.047-.058-.13-.167-.256-.302a4.969 4.969 0 0 0-.318-.317c-.086-.078-.158-.16-.207-.193-.003-.003-.017-.008-.035-.018a.334.334 0 0 1-.044-.033c-.012-.01-.019-.029-.027-.055a.268.268 0 0 1-.013-.092.203.203 0 0 1 .086-.156.241.241 0 0 1 .136-.042l.076-.002a.89.89 0 0 1 .204.071l.3.133c.132.058.322.138.569.242.247.105.499.202.751.293.263.094.467.169.615.223.148.055.383.135.705.24.323.104.538.176.648.215.11.041.244.095.405.161.161.067.278.113.356.143l.108.045a.16.16 0 0 1 .095.113.182.182 0 0 1-.022.151.24.24 0 0 1-.137.102.226.226 0 0 1-.164-.007c-.042-.018-.065-.026-.107-.045-.072-.027-.186-.074-.343-.138-.156-.063-.284-.119-.388-.16-.102-.04-.316-.108-.638-.214-.322-.105-.563-.182-.712-.235-.147-.052-.356-.132-.619-.226a15.78 15.78 0 0 1-.767-.302c-.023-.01-.06-.03-.06-.03-.003.002.134.155.17.201.048.062.125.158.225.293.096.132.177.243.238.333.058.087.122.181.195.274.068.087.13.166.185.229.065.075.124.15.173.224.05.074.051.155.005.25a.297.297 0 0 1-.247.166c-.09.01-.175.004-.249 0l-.342-.025c-.165-.01-.391-.03-.663-.066l-.584-.08a.51.51 0 0 1-.047-.002c-.02 0-.042-.009-.042-.009s.308.12.565.223c.257.102.504.203.737.3.233.1.465.21.699.316.235.107.43.184.563.243.134.06.234.103.289.126.05.02.12.052.212.084.056.02.086.028.142.047.05.014.088.048.108.102zM184.237 56.27a.185.185 0 0 1 .03-.282.242.242 0 0 1 .154-.052c.02 0 .034.002.054.003a.557.557 0 0 1 .281.137c.063.05.176.125.336.221.165.1.344.197.532.281.182.083.427.174.716.265.297.093.506.15.62.176.114.025.289.051.521.083.226.031.412.048.548.047.14-.001.304-.01.479-.035.159-.021.301-.06.416-.115.114-.053.206-.108.261-.159.06-.054.1-.107.123-.144a.73.73 0 0 0 .07-.221c.022-.11.03-.218.02-.304a1.416 1.416 0 0 0-.08-.344 1.712 1.712 0 0 0-.127-.29 1.14 1.14 0 0 0-.131-.179 2.556 2.556 0 0 0-.375-.317 4.508 4.508 0 0 0-.456-.302 6.078 6.078 0 0 0-.5-.225 14.804 14.804 0 0 0-.606-.23 20.78 20.78 0 0 0-.58-.19c-.203-.065-.341-.111-.423-.134-.076-.02-.16-.032-.24-.044-.074-.012-.132-.023-.172-.024l-.07.001a.212.212 0 0 1-.15-.059.167.167 0 0 1-.055-.14.193.193 0 0 1 .072-.133.236.236 0 0 1 .157-.057l.083-.006c.063.003.144.015.239.032.09.016.181.03.268.052.086.021.24.07.453.138.213.067.41.128.585.186.18.06.393.144.635.242.242.097.422.178.54.24.115.061.287.173.505.335.222.165.367.29.432.368a1.813 1.813 0 0 1 .328.587c.054.153.084.299.099.42.013.134.004.278-.029.431a1.217 1.217 0 0 1-.119.344c-.046.077-.12.156-.205.24a1.398 1.398 0 0 1-.386.247 1.926 1.926 0 0 1-.551.155c-.191.024-.369.04-.528.04-.16 0-.364-.02-.61-.054a7.588 7.588 0 0 1-.558-.088 8.99 8.99 0 0 1-.646-.188 6.627 6.627 0 0 1-.775-.287 5.985 5.985 0 0 1-.564-.3 3.056 3.056 0 0 1-.386-.256.32.32 0 0 0-.063-.044c-.012.001-.015-.002-.027 0a.214.214 0 0 1-.145-.068zM184.346 57.55a.182.182 0 0 1 .092.126.177.177 0 0 1-.028.15.225.225 0 0 1-.132.093c-.062.016-.09.02-.151.037a.72.72 0 0 0-.21.09c-.08.05-.144.084-.174.102-.035.02-.105.066-.207.131-.099.063-.172.112-.216.147-.034.027-.1.1-.194.216-.089.11-.15.2-.178.25-.027.052-.06.149-.1.275-.04.13-.06.22-.062.275-.003.048.009.148.047.287.037.135.069.22.094.25.027.031.103.083.227.155a.985.985 0 0 0 .332.125c.1.017.217.016.354-.011.138-.028.239-.062.3-.09.06-.029.172-.113.33-.25.163-.14.272-.244.326-.308.059-.072.151-.182.27-.32a4.31 4.31 0 0 1 .433-.435c.169-.148.297-.248.38-.29.097-.049.24-.073.424-.082.18-.01.324-.002.41.037a.784.784 0 0 1 .265.224c.093.114.16.274.207.477.043.185.067.326.069.423.003.095-.013.238-.043.426a2.655 2.655 0 0 1-.168.584c-.08.198-.175.368-.277.5-.1.129-.182.226-.248.282-.067.057-.18.127-.34.205a2.89 2.89 0 0 1-.372.157.66.66 0 0 1-.27.033c-.028-.003-.038-.006-.064-.01a.203.203 0 0 1-.137-.073.18.18 0 0 1-.042-.15.221.221 0 0 1 .085-.14.21.21 0 0 1 .154-.048l.064.01a.422.422 0 0 0 .107-.02 2.25 2.25 0 0 0 .55-.274 1.48 1.48 0 0 0 .189-.213c.076-.1.147-.235.215-.399a2.221 2.221 0 0 0 .178-.84 2.503 2.503 0 0 0-.061-.348.72.72 0 0 0-.126-.31.475.475 0 0 0-.127-.117.668.668 0 0 0-.215-.006.766.766 0 0 0-.242.041c-.051.025-.148.103-.29.226-.147.126-.279.258-.39.388-.12.142-.212.25-.27.323a3.142 3.142 0 0 1-.372.361 2.253 2.253 0 0 1-.422.31 1.898 1.898 0 0 1-.41.122c-.183.037-.354.04-.503.014a1.407 1.407 0 0 1-.466-.18c-.161-.093-.275-.175-.33-.248a1.195 1.195 0 0 1-.175-.403c-.05-.18-.07-.32-.063-.413.007-.087.038-.21.082-.363.045-.148.082-.264.122-.337a2.6 2.6 0 0 1 .23-.328c.111-.143.196-.23.252-.274.056-.043.141-.107.253-.177.11-.07.184-.117.218-.137.034-.02.092-.051.172-.101.108-.065.22-.114.338-.145.06-.014.09-.017.15-.031a.184.184 0 0 1 .156.019zM178.594 67.337a.176.176 0 0 1-.152-.018.213.213 0 0 1-.1-.132.213.213 0 0 1 .013-.16 1.39 1.39 0 0 1 .038-.074c.026-.05.067-.126.105-.219.041-.097.072-.165.085-.2.015-.035.053-.106.096-.195.046-.093.105-.215.179-.35.074-.136.125-.237.163-.3.005-.008.02-.026.02-.033-.004-.04-.068-.143-.032-.221.042-.092.181-.098.216-.114.043-.022.11-.215.169-.338.074-.16.126-.28.152-.344.025-.064.05-.123.07-.179a27.66 27.66 0 0 0 .163-.48c.011-.034.02-.053.03-.09a.205.205 0 0 1 .107-.109c.05-.026.1-.025.154-.004.052.021.09.054.115.105.024.05.026.104.01.159-.013.03-.02.05-.034.08l-.081.245c-.035.108-.061.192-.085.254l-.077.192c-.029.07-.081.192-.16.362-.057.119-.176.309-.168.33.008.025.16.076.22.11.077.042.232.115.449.222.216.107.478.236.776.386.298.149.498.257.605.309.107.051.26.12.451.212.192.093.382.185.564.266.182.08.305.128.357.152.06.03.12.068.183.11.032.023.05.035.08.059.05.028.08.069.092.127a.221.221 0 0 1-.024.163.207.207 0 0 1-.13.1.204.204 0 0 1-.154-.028l-.078-.055a.753.753 0 0 0-.134-.078c-.052-.023-.168-.079-.352-.164-.184-.084-.375-.17-.567-.26-.193-.092-.342-.167-.45-.218-.11-.052-.318-.161-.618-.312-.29-.146-.55-.271-.756-.376-.223-.114-.389-.192-.47-.236-.062-.034-.215-.135-.241-.125-.006.003-.018.032-.025.046-.032.055-.085.158-.159.293-.07.132-.131.25-.173.335-.042.086-.076.15-.092.185-.015.035-.043.108-.085.205a2.79 2.79 0 0 1-.11.228c-.015.033-.023.047-.04.08a.208.208 0 0 1-.115.097zM181.831 70.398a.222.222 0 0 1 .016.166.201.201 0 0 1-.094.13.167.167 0 0 1-.153.012c-.03-.008-.043-.013-.072-.022-.052-.02-.113-.045-.182-.076a4.413 4.413 0 0 1-.303-.156c-.133-.073-.246-.143-.335-.195l-.366-.217-.573-.348c-.228-.138-.4-.24-.514-.304l-.324-.186c-.101-.057-.219-.12-.346-.193l-.345-.205a5.934 5.934 0 0 1-.203-.123c-.019-.01-.026-.016-.045-.027a.23.23 0 0 1-.1-.134.223.223 0 0 1 .012-.166.171.171 0 0 1 .116-.093.186.186 0 0 1 .153.019c.019.01.026.017.044.028.026.016.09.058.2.122l.344.199c.124.07.239.132.344.192.105.06.214.126.328.191.114.065.293.165.52.3.219.133.417.253.58.35l.36.214c.084.05.192.119.319.189.126.07.221.12.27.14.054.024.11.043.157.06l.072.028a.205.205 0 0 1 .12.105zM178.284 70.29a.207.207 0 0 1-.062.146.165.165 0 0 1-.14.05.21.21 0 0 1-.14-.07l-.023-.024a.163.163 0 0 0-.057-.019 1.251 1.251 0 0 0-.161-.02 1.759 1.759 0 0 0-.435.145 1.055 1.055 0 0 0-.229.171 1.564 1.564 0 0 0-.183.203 2.67 2.67 0 0 0-.176.323c-.08.166-.13.279-.144.333a2.743 2.743 0 0 0-.067.824c.01.176.022.294.039.353.019.067.072.184.153.354.08.17.166.315.252.435.084.116.182.227.296.326.114.1.242.19.383.27.136.079.27.134.402.161.135.029.292.04.47.03a2.91 2.91 0 0 0 .389-.039c.068-.016.188-.05.334-.105.137-.051.29-.137.447-.245.152-.107.281-.215.381-.318.091-.094.172-.222.249-.373.071-.143.124-.276.144-.4a1.283 1.283 0 0 0-.066-.719 1.658 1.658 0 0 0-.177-.33c-.064-.095-.125-.193-.19-.264a2.647 2.647 0 0 0-.244-.227c-.1-.082-.19-.16-.271-.22-.072-.053-.173-.129-.184-.125-.007.003-.027.056-.04.082-.038.083-.071.155-.096.206-.023.046-.069.134-.14.267-.07.134-.117.225-.145.275-.027.05-.063.112-.106.188-.043.075-.07.133-.084.172l-.033.063a.179.179 0 0 1-.115.1.195.195 0 0 1-.152-.019.204.204 0 0 1-.093-.134.225.225 0 0 1 .01-.163l.033-.064c.017-.048.051-.115.096-.195.043-.075.075-.136.102-.186.027-.05.078-.14.147-.27.07-.129.114-.215.137-.26.023-.047.05-.113.084-.187.035-.078.07-.146.093-.203a.35.35 0 0 1 .14-.147c.066-.044.142-.04.223.01.03.02.075.044.123.078.048.033.118.096.208.16.088.066.188.147.29.232.104.087.205.173.285.26a2.243 2.243 0 0 1 .454.74c.062.164.105.328.12.485a1.841 1.841 0 0 1-.211 1.024 1.88 1.88 0 0 1-.321.468c-.116.12-.262.248-.44.374a2.414 2.414 0 0 1-.521.281 3.51 3.51 0 0 1-.37.126c-.092.02-.242.032-.45.043-.211.012-.398 0-.56-.035a1.896 1.896 0 0 1-.51-.2 2.54 2.54 0 0 1-.816-.733 3.37 3.37 0 0 1-.296-.511 3.266 3.266 0 0 1-.185-.432 2.419 2.419 0 0 1-.051-.469 3.199 3.199 0 0 1 .01-.58c.023-.166.049-.294.068-.382.022-.089.08-.225.173-.409.093-.183.16-.313.208-.377.051-.069.126-.162.23-.26.105-.1.213-.179.304-.226a1.983 1.983 0 0 1 .58-.183 1.06 1.06 0 0 1 .251.028c.125.025.223.064.28.13.015.02.02.033.035.053.04.045.062.093.06.153z"/>
    </g>
</svg>
