<svg xmlns="http://www.w3.org/2000/svg" viewBox="0 0 64 64">
    <ellipse cx="31.82" cy="31.549" fill="#ff8080" stroke="#000" stroke-linecap="round" stroke-linejoin="round" stroke-width="1.128" rx="27.008" ry="26.625"/>
    <g transform="rotate(-13.178 -3.216 -270.435) scale(.94119)">
        <path fill="#d7eef4" fill-opacity=".502" fill-rule="evenodd" stroke="#000" stroke-width=".5" d="M-43.563 21.432c.722-.757 1.276-1.383.916-2.306 1.451.435 2.83.484 4.103-.032-.37 1.19.379 1.627.79 2.4-.393 1.262-.83 3.598-.89 4.86l-3.751.042c-.07-1.326-.615-3.678-1.168-4.964z"/>
        <path fill="#5df" fill-rule="evenodd" d="M-50.526 55.244c1.359 1.021 15.29 1.672 20.41-.161 1.339-.479 1.326-2.758 1.327-4.34.001-10.364-5.147-13.378-8.375-18.71-1.933.269-4.155.23-6.833.128-5.98 7.294-7.518 10.249-7.895 19.105-.068 1.608.288 3.167 1.366 3.978z"/>
        <path fill="#afdde9" fill-opacity=".251" fill-rule="evenodd" stroke="#000" stroke-width=".5" d="M-51.563 56.143c1.51 1.135 16.989 1.858 22.68-.179 1.486-.532 1.472-3.064 1.472-4.821.002-11.516-5.842-15.088-9.43-21.014-1.654-2.733-.755-7.21.546-8.227l-8.437.044c2.252 2.243 2.04 6.579.424 8.55-6.644 8.103-8.354 11.387-8.772 21.227-.076 1.787.32 3.52 1.517 4.42z"/>
        <ellipse cx="-40.501" cy="14.55" fill="#d7eef4" fill-opacity=".502" stroke="#000" stroke-linecap="round" stroke-linejoin="round" stroke-width=".5" rx="5.193" ry="4.94"/>
        <path fill="#afdde9" fill-opacity=".831" fill-rule="evenodd" stroke="#000" stroke-width=".5" d="M-45.615 22.079l10.118-.11c.884-.01 1.074-.866.031-.853l-10.212.126c-.598.008-.614.844.063.837z"/>
        <path fill="#fff" fill-rule="evenodd" d="M-40.532 10.525c1.16.179 2.24.968 2.915 1.97.845.77 1.485 1.902 1.472 3.207.298-1.29-.053-2.642-.83-3.762-1.031-.982-2.367-1.52-3.557-1.415zM-36.555 35.968a16.305 16.305 0 0 1 3.781 5.298c1.248 1.697 2.15 3.704 2.217 5.75.413-2.049-.02-4.318-.975-6.465-1.396-1.955-3.232-3.58-5.023-4.583z"/>
    </g>
    <path fill="#f9f9f9" fill-rule="evenodd" d="M33.31 8.447c9.544 1.259 18.527 4.22 22.834 21.406C42.96 11.013 41.262 14.34 33.31 8.447z"/>
    <path fill-opacity=".449" fill-rule="evenodd" d="M43.352 55.124C18.555 65.584-2.419 42.116 7.64 20.864c.189 18.2 14.228 36.08 35.712 34.26z"/>
</svg>
