<?xml version="1.0" encoding="UTF-8" standalone="no"?>
<!-- Created with Inkscape (http://www.inkscape.org/) -->

<svg
   xmlns:dc="http://purl.org/dc/elements/1.1/"
   xmlns:cc="http://creativecommons.org/ns#"
   xmlns:rdf="http://www.w3.org/1999/02/22-rdf-syntax-ns#"
   xmlns:svg="http://www.w3.org/2000/svg"
   xmlns="http://www.w3.org/2000/svg"
   xmlns:sodipodi="http://sodipodi.sourceforge.net/DTD/sodipodi-0.dtd"
   xmlns:inkscape="http://www.inkscape.org/namespaces/inkscape"
   width="100%"
   height="100%"
   viewBox="0 0 64.000001 64.000001"
   id="svg4311"
   version="1.1"
   inkscape:version="0.91 r13725"
   sodipodi:docname="attributeRabbitMorphDrink.svg">
  <defs
     id="defs4313">
    <inkscape:path-effect
       effect="powerstroke"
       id="path-effect4367"
       is_visible="true"
       offset_points="0.71728528,0.43540178"
       sort_points="true"
       interpolator_type="Linear"
       interpolator_beta="0.2"
       start_linecap_type="zerowidth"
       linejoin_type="round"
       miter_limit="4"
       end_linecap_type="zerowidth"
       cusp_linecap_type="round" />
    <inkscape:path-effect
       effect="powerstroke"
       id="path-effect4343"
       is_visible="true"
       offset_points="0.11338407,0.24197415"
       sort_points="true"
       interpolator_type="Linear"
       interpolator_beta="0.2"
       start_linecap_type="zerowidth"
       linejoin_type="round"
       miter_limit="4"
       end_linecap_type="zerowidth"
       cusp_linecap_type="round" />
    <inkscape:path-effect
       effect="powerstroke"
       id="path-effect4203"
       is_visible="true"
       offset_points="0,0.25804346"
       sort_points="true"
       interpolator_type="Linear"
       interpolator_beta="0.2"
       start_linecap_type="zerowidth"
       linejoin_type="round"
       miter_limit="4"
       end_linecap_type="zerowidth"
       cusp_linecap_type="round" />
    <inkscape:path-effect
       effect="powerstroke"
       id="path-effect4199"
       is_visible="true"
       offset_points="0.0060352086,0.25978685"
       sort_points="true"
       interpolator_type="Linear"
       interpolator_beta="0.2"
       start_linecap_type="zerowidth"
       linejoin_type="round"
       miter_limit="4"
       end_linecap_type="zerowidth"
       cusp_linecap_type="round" />
    <inkscape:path-effect
       effect="powerstroke"
       id="path-effect4155"
       is_visible="true"
       offset_points="0.92799346,1.2886104"
       sort_points="true"
       interpolator_type="Linear"
       interpolator_beta="0.2"
       start_linecap_type="zerowidth"
       linejoin_type="round"
       miter_limit="4"
       end_linecap_type="zerowidth"
       cusp_linecap_type="round" />
    <inkscape:path-effect
       effect="powerstroke"
       id="path-effect4151"
       is_visible="true"
       offset_points="0,0.5"
       sort_points="true"
       interpolator_type="CubicBezierJohan"
       interpolator_beta="0.2"
       start_linecap_type="zerowidth"
       linejoin_type="round"
       miter_limit="4"
       end_linecap_type="zerowidth"
       cusp_linecap_type="round" />
    <inkscape:path-effect
       effect="powerstroke"
       id="path-effect4147"
       is_visible="true"
       offset_points="0,0.5"
       sort_points="true"
       interpolator_type="CubicBezierJohan"
       interpolator_beta="0.2"
       start_linecap_type="zerowidth"
       linejoin_type="round"
       miter_limit="4"
       end_linecap_type="zerowidth"
       cusp_linecap_type="round" />
    <inkscape:path-effect
       effect="powerstroke"
       id="path-effect4183"
       is_visible="true"
       offset_points="0.238227,0.51804536"
       sort_points="true"
       interpolator_type="Linear"
       interpolator_beta="0.2"
       start_linecap_type="zerowidth"
       linejoin_type="round"
       miter_limit="4"
       end_linecap_type="zerowidth"
       cusp_linecap_type="round" />
    <inkscape:path-effect
       effect="powerstroke"
       id="path-effect4203-7"
       is_visible="true"
       offset_points="0.048960599,0.16856368"
       sort_points="true"
       interpolator_type="Linear"
       interpolator_beta="0.2"
       start_linecap_type="zerowidth"
       linejoin_type="round"
       miter_limit="4"
       end_linecap_type="zerowidth"
       cusp_linecap_type="round" />
    <inkscape:path-effect
       effect="powerstroke"
       id="path-effect4199-0"
       is_visible="true"
       offset_points="0.053064528,0.14725737"
       sort_points="true"
       interpolator_type="Linear"
       interpolator_beta="0.2"
       start_linecap_type="zerowidth"
       linejoin_type="round"
       miter_limit="4"
       end_linecap_type="zerowidth"
       cusp_linecap_type="round" />
  </defs>
  <sodipodi:namedview
     id="base"
     pagecolor="#ffffff"
     bordercolor="#666666"
     borderopacity="1.0"
     inkscape:pageopacity="0.0"
     inkscape:pageshadow="2"
     inkscape:zoom="1.979899"
     inkscape:cx="-163.881"
     inkscape:cy="83.152394"
     inkscape:document-units="px"
     inkscape:current-layer="layer5"
     showgrid="false"
     units="px"
     inkscape:window-width="2560"
     inkscape:window-height="1388"
     inkscape:window-x="-8"
     inkscape:window-y="-8"
     inkscape:window-maximized="1"
     showguides="false" />
  <metadata
     id="metadata4316">
    <rdf:RDF>
      <cc:Work
         rdf:about="">
        <dc:format>image/svg+xml</dc:format>
        <dc:type
           rdf:resource="http://purl.org/dc/dcmitype/StillImage" />
        <dc:title></dc:title>
      </cc:Work>
    </rdf:RDF>
  </metadata>
  <g
     inkscape:groupmode="layer"
     id="layer5"
     inkscape:label="Stage5"
     style="display:inline;opacity:1">
    <ellipse
       style="display:inline;fill:#ff8080;fill-opacity:1;stroke:#000000;stroke-width:1.12779903;stroke-linecap:round;stroke-linejoin:round;stroke-miterlimit:4;stroke-dasharray:none;stroke-dashoffset:0;stroke-opacity:1"
       id="path4279"
       cx="31.819803"
       cy="31.548853"
       rx="27.0075"
       ry="26.624949" />
    <path
       sodipodi:nodetypes="csssccssccssccsssc"
       inkscape:connector-curvature="0"
       id="path4289"
       d="m 30.523696,53.765799 c 4.321612,-0.36583 8.493598,-1.578883 12.711668,-3.309319 0.372184,-0.15269 0.607979,-2.224873 0.364567,-3.371442 l -0.399085,-1.879823 c -0.07569,-0.356386 -0.601272,-0.534971 -0.601272,-0.534971 L 38.715719,29.812333 c 0,0 0.319879,-0.597816 0.228692,-0.890351 l -0.571879,-1.834655 c -0.611603,-1.962108 -2.481666,-5.234599 -3.745856,-7.331866 -0.276062,1.515534 -9.397743,0.528361 -11.624654,3.070735 -0.07608,2.781086 -0.114779,7.256012 0.176089,8.435227 l 0.452541,1.834662 c 0.05294,0.214794 0.55611,0.362205 0.55611,0.362205 l 3.956973,15.221455 c 0,0 -0.322279,0.532323 -0.251271,0.803969 l 0.372579,1.425322 c 0.176432,0.674949 1.78992,2.896465 2.258711,2.856781 z"
       style="fill:#ff761a;fill-opacity:1;fill-rule:evenodd;stroke:none;stroke-width:0.5;stroke-linecap:butt;stroke-linejoin:miter;stroke-miterlimit:4;stroke-dasharray:none;stroke-opacity:1" />
    <path
       style="fill:#d5f6ff;fill-opacity:0.25098039;fill-rule:evenodd;stroke:#000000;stroke-width:0.5;stroke-linecap:butt;stroke-linejoin:miter;stroke-miterlimit:4;stroke-dasharray:none;stroke-opacity:1"
       d="m 30.523696,53.765799 c 4.321612,-0.36583 8.493598,-1.578883 12.711668,-3.309319 0.372184,-0.15269 0.607979,-2.224873 0.364567,-3.371442 l -0.399085,-1.879823 c -0.07569,-0.356386 -0.601272,-0.534971 -0.601272,-0.534971 L 38.715719,29.812333 c 0,0 0.319879,-0.597816 0.228692,-0.890351 L 38.372532,27.087327 C 37.418248,24.025859 33.400227,17.774225 33.400227,17.774225 33.12004,17.34256 32.496572,17.6475 32.295305,17.067022 l 1.019266,-0.285558 c 0.290262,-0.08135 0.200886,-0.744655 -0.159292,-0.650504 l -0.993411,0.259677 -0.198446,-0.686412 -8.803907,2.309298 0.202643,0.723541 -0.863832,0.225806 c -0.271612,0.071 -0.196798,0.732009 0.152834,0.647074 l 0.883094,-0.21453 c 0.110069,0.658043 -0.360621,0.760689 -0.434129,1.163571 -0.0743,0.407251 -0.342463,8.997902 0.07799,10.702434 l 0.452541,1.834662 c 0.05294,0.214794 0.55611,0.362205 0.55611,0.362205 l 3.956973,15.221455 c 0,0 -0.322279,0.532323 -0.251271,0.803969 l 0.372579,1.425322 c 0.176432,0.67495 1.78992,2.896465 2.258711,2.856781 z"
       id="path4196"
       inkscape:connector-curvature="0"
       sodipodi:nodetypes="ssssccssscssccccsscsssccsss" />
    <path
       style="fill:#b7c8c4;fill-rule:evenodd;stroke:#000000;stroke-width:0.5;stroke-linecap:butt;stroke-linejoin:miter;stroke-miterlimit:4;stroke-dasharray:none;stroke-opacity:1"
       d="m 22.337606,18.450672 c 3.530013,-1.050773 7.072526,-1.992151 10.636279,-2.747691 0.377621,-0.08005 0.125658,-1.016786 -0.240183,-0.981311 -3.701876,0.358974 -7.237439,1.354228 -10.662824,2.77095 -0.363295,0.150253 -0.08839,1.06376 0.266724,0.958053 z"
       id="path4198"
       inkscape:connector-curvature="0"
       sodipodi:nodetypes="sssss" />
    <g
       id="g4291"
       transform="matrix(0.96749184,-0.25290222,0.25290222,0.96749184,-73.890926,23.0356)">
      <path
         sodipodi:nodetypes="csscc"
         inkscape:connector-curvature="0"
         id="path4200"
         d="m 94.401912,18.890376 -0.01579,-2.967322 c -0.0046,-0.867181 10.631298,-0.81669 10.622388,0.01579 l -0.0316,2.95154 c -3.5276,-0.109743 -7.04741,-0.100667 -10.574998,-8e-6 z"
         style="fill:#dbe3e2;fill-rule:evenodd;stroke:#000000;stroke-width:0.5;stroke-linecap:butt;stroke-linejoin:miter;stroke-miterlimit:4;stroke-dasharray:none;stroke-opacity:1" />
      <path
         inkscape:connector-curvature="0"
         id="path4202"
         d="m 95.254228,16.03354 0,2.193924"
         style="fill:none;fill-rule:evenodd;stroke:#000000;stroke-width:0.2337485;stroke-linecap:butt;stroke-linejoin:miter;stroke-miterlimit:4;stroke-dasharray:none;stroke-opacity:1" />
      <path
         inkscape:connector-curvature="0"
         id="path4202-1"
         d="m 96.438001,15.915162 0,2.335977"
         style="display:inline;opacity:1;fill:none;fill-rule:evenodd;stroke:#000000;stroke-width:0.24119721;stroke-linecap:butt;stroke-linejoin:miter;stroke-miterlimit:4;stroke-dasharray:none;stroke-opacity:1" />
      <path
         inkscape:connector-curvature="0"
         id="path4202-5"
         d="m 97.779609,15.836243 0,2.446463"
         style="display:inline;opacity:1;fill:none;fill-rule:evenodd;stroke:#000000;stroke-width:0.24683531;stroke-linecap:butt;stroke-linejoin:miter;stroke-miterlimit:4;stroke-dasharray:none;stroke-opacity:1" />
      <path
         inkscape:connector-curvature="0"
         id="path4202-0"
         d="m 99.121218,15.694191 0,2.509597"
         style="display:inline;opacity:1;fill:none;fill-rule:evenodd;stroke:#000000;stroke-width:0.25;stroke-linecap:butt;stroke-linejoin:miter;stroke-miterlimit:4;stroke-dasharray:none;stroke-opacity:1" />
      <path
         inkscape:connector-curvature="0"
         id="path4202-2"
         d="m 104.1483,16.108511 0,2.178141"
         style="display:inline;opacity:1;fill:none;fill-rule:evenodd;stroke:#000000;stroke-width:0.23290616;stroke-linecap:butt;stroke-linejoin:miter;stroke-miterlimit:4;stroke-dasharray:none;stroke-opacity:1" />
      <path
         inkscape:connector-curvature="0"
         id="path4202-1-3"
         d="m 102.9961,15.958566 0,2.30441"
         style="display:inline;opacity:1;fill:none;fill-rule:evenodd;stroke:#000000;stroke-width:0.23956196;stroke-linecap:butt;stroke-linejoin:miter;stroke-miterlimit:4;stroke-dasharray:none;stroke-opacity:1" />
      <path
         inkscape:connector-curvature="0"
         id="path4202-5-8"
         d="m 101.81232,15.832298 0,2.446462"
         style="display:inline;opacity:1;fill:none;fill-rule:evenodd;stroke:#000000;stroke-width:0.24683532;stroke-linecap:butt;stroke-linejoin:miter;stroke-miterlimit:4;stroke-dasharray:none;stroke-opacity:1" />
      <path
         inkscape:connector-curvature="0"
         id="path4202-0-8"
         d="m 100.51807,15.753379 0,2.509597"
         style="display:inline;opacity:1;fill:none;fill-rule:evenodd;stroke:#000000;stroke-width:0.25;stroke-linecap:butt;stroke-linejoin:miter;stroke-miterlimit:4;stroke-dasharray:none;stroke-opacity:1" />
    </g>
    <path
       style="fill:none;fill-rule:evenodd;stroke:#000000;stroke-width:0.5;stroke-linecap:butt;stroke-linejoin:miter;stroke-miterlimit:4;stroke-dasharray:none;stroke-opacity:1"
       d="m 23.386558,19.422802 8.921407,-2.366659"
       id="path4255"
       inkscape:connector-curvature="0"
       sodipodi:nodetypes="cc" />
    <path
       style="display:inline;opacity:1;fill:none;fill-rule:evenodd;stroke:#000000;stroke-width:0.5;stroke-linecap:butt;stroke-linejoin:miter;stroke-miterlimit:4;stroke-dasharray:none;stroke-opacity:1"
       d="m 23.358059,18.743876 8.921398,-2.366657"
       id="path4255-9"
       inkscape:connector-curvature="0"
       sodipodi:nodetypes="cc" />
    <path
       style="fill:none;fill-rule:evenodd;stroke:#000000;stroke-width:0.25;stroke-linecap:butt;stroke-linejoin:miter;stroke-miterlimit:4;stroke-dasharray:none;stroke-opacity:1"
       d="M 28.246472,48.669396 C 32.841688,48.062871 39.204785,46.318862 42.47722,44.818969"
       id="path4272"
       inkscape:connector-curvature="0"
       sodipodi:nodetypes="cc" />
    <path
       style="display:inline;opacity:1;fill:none;fill-rule:evenodd;stroke:#000000;stroke-width:0.25;stroke-linecap:butt;stroke-linejoin:miter;stroke-miterlimit:4;stroke-dasharray:none;stroke-opacity:1"
       d="M 24.157738,33.351899 C 28.544528,32.559928 35.0785,30.686704 38.802869,29.588915"
       id="path4272-1"
       inkscape:connector-curvature="0"
       sodipodi:nodetypes="cc" />
    <path
       sodipodi:nodetypes="ccccc"
       inkscape:connector-curvature="0"
       id="path4302"
       d="M 42.321666,44.044848 38.824461,30.666091 c -4.838841,1.720195 -9.666515,2.836398 -14.272298,3.75888 l 3.488482,13.418181 c 3.592601,-0.499107 10.692115,-2.246823 14.28102,-3.798308 z"
       style="fill:#fdd9c1;fill-opacity:1;fill-rule:evenodd;stroke:#000000;stroke-width:0.24816419;stroke-linecap:butt;stroke-linejoin:miter;stroke-miterlimit:4;stroke-dasharray:none;stroke-opacity:1" />
    <path
       style="fill:#f97017;fill-opacity:1;fill-rule:evenodd;stroke:#000000;stroke-width:0.5;stroke-linecap:butt;stroke-linejoin:miter;stroke-miterlimit:4;stroke-dasharray:none;stroke-opacity:1"
       d="m 29.599782,43.831919 4.840183,-7.290609 c 0.36625,-0.55166 3.666644,1.366886 3.018628,1.945131 l -6.842735,6.106018 c -0.478223,0.426733 -1.656624,0.204295 -1.016076,-0.76054 z"
       id="path4304"
       inkscape:connector-curvature="0"
       sodipodi:nodetypes="sssss" />
    <path
       style="fill:#5aa02c;fill-rule:evenodd;stroke:#000000;stroke-width:0.5;stroke-linecap:round;stroke-linejoin:round;stroke-miterlimit:4;stroke-dasharray:none;stroke-opacity:1"
       d="m 35.76428,36.674818 -0.193849,-1.667632 0.732559,1.28099 1.610476,-1.033788 -0.609601,1.615825 1.58642,0.560881 -1.933572,0.134537 z"
       id="path4306"
       inkscape:connector-curvature="0" />
    <path
       style="fill:none;fill-rule:evenodd;stroke:#000000;stroke-width:0.5;stroke-linecap:round;stroke-linejoin:round;stroke-miterlimit:4;stroke-dasharray:none;stroke-opacity:1"
       d="m 27.550898,39.252111 0.369379,-1.579967 -1.375018,0.815066 1.881506,1.96618 0.73728,-1.680641 -1.62949,0.657186 0.616419,-2.072816 1.813272,1.489183 0.509932,-0.670425 -1.417257,-1.407954 1.76522,1.036457 -1.235104,-1.682613 1.890663,0.891078 -0.95252,-1.342819 1.272373,0.789416 -1.10198,-1.423809 0.319604,-0.306858 0.977782,0.336438 -0.05524,-1.350007 0.131892,1.491548 0.573308,0.590696"
       id="path4313"
       inkscape:connector-curvature="0" />
    <path
       style="fill:none;fill-rule:evenodd;stroke:#000000;stroke-width:0.5;stroke-linecap:round;stroke-linejoin:round;stroke-miterlimit:4;stroke-dasharray:none;stroke-opacity:1"
       d="m 34.585586,45.73659 1.298007,-0.586546 -1.142372,-1.352388 -0.804066,0.925306 1.558481,-1.654674 0.984516,1.353098 0.950356,-0.679718 -1.236937,-1.320405 0.711583,-0.419821 1.067563,1.567372 -0.03627,-2.506304 -0.215561,1.232084 1.390615,0.372699 -0.620609,-1.866074 1.104963,1.459881 0.809492,-1.127362 -1.558604,0.189939 0.811567,-0.653859 -1.268105,0.207605 1.049647,-1.071594"
       id="path4315"
       inkscape:connector-curvature="0" />
    <path
       style="display:inline;fill:#f9f9f9;fill-opacity:1;fill-rule:evenodd;stroke:none;stroke-width:1px;stroke-linecap:butt;stroke-linejoin:miter;stroke-opacity:1"
       d="M 33.310526,8.4466623 C 42.853897,9.7059588 51.837481,12.667445 56.143804,29.852737 42.960254,11.013531 41.261755,14.341438 33.310526,8.4466623 Z"
       id="path4281"
       inkscape:connector-curvature="0"
       sodipodi:nodetypes="ccc" />
    <path
       style="display:inline;fill:#000000;fill-opacity:0.44859811;fill-rule:evenodd;stroke:none;stroke-width:1px;stroke-linecap:butt;stroke-linejoin:miter;stroke-opacity:1"
       d="M 43.352343,55.124348 C 18.554601,65.583105 -2.4191261,42.115746 7.6398162,20.86384 7.8289942,39.063247 21.867849,56.944615 43.352343,55.124348 Z"
       id="path4283"
       inkscape:connector-curvature="0"
       sodipodi:nodetypes="ccc" />
    <flowRoot
       xml:space="preserve"
       id="flowRoot4156"
       style="fill:black;stroke:none;stroke-opacity:1;stroke-width:1px;stroke-linejoin:miter;stroke-linecap:butt;fill-opacity:1;font-family:sans-serif;font-style:normal;font-weight:normal;font-size:40px;line-height:125%;letter-spacing:0px;word-spacing:0px"><flowRegion
         id="flowRegion4158"><rect
           id="rect4160"
           width="42.678944"
           height="44.067905"
           x="6.5659914"
           y="11.21953" /></flowRegion><flowPara
         id="flowPara4162" /></flowRoot>    <flowRoot
       xml:space="preserve"
       id="flowRoot4168"
       style="fill:black;stroke:none;stroke-opacity:1;stroke-width:1px;stroke-linejoin:miter;stroke-linecap:butt;fill-opacity:1;font-family:sans-serif;font-style:normal;font-weight:normal;font-size:40px;line-height:125%;letter-spacing:0px;word-spacing:0px"><flowRegion
         id="flowRegion4170"><rect
           id="rect4172"
           width="63.765881"
           height="63.63961"
           x="0.25253814"
           y="-0.27095523" /></flowRegion><flowPara
         id="flowPara4174" /></flowRoot>   
    <path
       style="fill:#ffffff;fill-rule:evenodd;stroke:none;stroke-width:1px;stroke-linecap:butt;stroke-linejoin:miter;stroke-opacity:1"
       d="m 32.5,19.13393 c 1.299551,1.889125 2.730659,4.422782 3.75654,6.807783 0.583531,0.846537 1.11553,1.689953 1.555959,2.477931 C 37.643146,27.528809 37.372864,26.55511 37.036094,25.553352 35.725217,23.246445 34.028294,20.844642 32.5,19.13393 Z"
       id="path4365"
       inkscape:path-effect="#path-effect4367"
       inkscape:original-d="m 32.5,19.13393 c 1.972373,2.510895 4.231624,6.313306 5.312499,9.285714"
       inkscape:connector-curvature="0"
       sodipodi:nodetypes="cc" />
    <path
       style="fill:none;fill-rule:evenodd;stroke:#803300;stroke-width:0.25;stroke-linecap:butt;stroke-linejoin:miter;stroke-miterlimit:4;stroke-dasharray:none;stroke-opacity:1"
       d="m 30.223214,43.084823 c 0.638946,-0.02883 0.981262,0.238976 1.205357,0.625"
       id="path4369"
       inkscape:connector-curvature="0"
       sodipodi:nodetypes="cc" />
    <path
       style="fill:none;fill-rule:evenodd;stroke:#803300;stroke-width:0.25;stroke-linecap:butt;stroke-linejoin:miter;stroke-miterlimit:4;stroke-dasharray:none;stroke-opacity:1"
       d="m 31.40625,41.500001 c 0.834928,-0.08279 1.211776,0.343397 1.517857,0.848214"
       id="path4371"
       inkscape:connector-curvature="0"
       sodipodi:nodetypes="cc" />
    <path
       style="fill:none;fill-rule:evenodd;stroke:#803300;stroke-width:0.25;stroke-linecap:butt;stroke-linejoin:miter;stroke-miterlimit:4;stroke-dasharray:none;stroke-opacity:1"
       d="m 32.522321,39.60268 c 0.891538,-0.02587 1.600872,0.338693 2.075893,1.205357"
       id="path4373"
       inkscape:connector-curvature="0"
       sodipodi:nodetypes="cc" />
    <path
       style="fill:none;fill-rule:evenodd;stroke:#803300;stroke-width:0.25;stroke-linecap:butt;stroke-linejoin:miter;stroke-miterlimit:4;stroke-dasharray:none;stroke-opacity:1"
       d="m 33.794643,37.772323 c 1.340064,-0.227546 2.065675,0.517791 2.700893,1.40625"
       id="path4375"
       inkscape:connector-curvature="0"
       sodipodi:nodetypes="cc" />
  </g>
</svg>
