<?xml version="1.0" encoding="UTF-8" standalone="no"?>
<!-- Created with Inkscape (http://www.inkscape.org/) -->

<svg
   xmlns:dc="http://purl.org/dc/elements/1.1/"
   xmlns:cc="http://creativecommons.org/ns#"
   xmlns:rdf="http://www.w3.org/1999/02/22-rdf-syntax-ns#"
   xmlns:svg="http://www.w3.org/2000/svg"
   xmlns="http://www.w3.org/2000/svg"
   xmlns:sodipodi="http://sodipodi.sourceforge.net/DTD/sodipodi-0.dtd"
   xmlns:inkscape="http://www.inkscape.org/namespaces/inkscape"
   width="100%"
   height="100%"
   viewBox="0 0 64.000001 64.000001"
   id="svg4311"
   version="1.1"
   inkscape:version="0.91 r13725"
   sodipodi:docname="attributeGatorMorphDrink.svg">
  <defs
     id="defs4313">
    <inkscape:path-effect
       effect="powerstroke"
       id="path-effect4247"
       is_visible="true"
       offset_points="1.090809,0.30005387"
       sort_points="true"
       interpolator_type="Linear"
       interpolator_beta="0.2"
       start_linecap_type="zerowidth"
       linejoin_type="round"
       miter_limit="4"
       end_linecap_type="zerowidth"
       cusp_linecap_type="round" />
    <inkscape:path-effect
       effect="powerstroke"
       id="path-effect4228"
       is_visible="true"
       offset_points="0.51940596,0.18651159"
       sort_points="true"
       interpolator_type="Linear"
       interpolator_beta="0.2"
       start_linecap_type="zerowidth"
       linejoin_type="round"
       miter_limit="4"
       end_linecap_type="zerowidth"
       cusp_linecap_type="round" />
    <inkscape:path-effect
       effect="powerstroke"
       id="path-effect4224"
       is_visible="true"
       offset_points="0.28168656,0.17052759"
       sort_points="true"
       interpolator_type="Linear"
       interpolator_beta="0.2"
       start_linecap_type="zerowidth"
       linejoin_type="round"
       miter_limit="4"
       end_linecap_type="zerowidth"
       cusp_linecap_type="round" />
    <inkscape:path-effect
       effect="powerstroke"
       id="path-effect4220"
       is_visible="true"
       offset_points="0.30681623,0.44795301"
       sort_points="true"
       interpolator_type="Linear"
       interpolator_beta="0.2"
       start_linecap_type="zerowidth"
       linejoin_type="round"
       miter_limit="4"
       end_linecap_type="zerowidth"
       cusp_linecap_type="round" />
    <inkscape:path-effect
       effect="powerstroke"
       id="path-effect4155"
       is_visible="true"
       offset_points="0.92799346,1.2886104"
       sort_points="true"
       interpolator_type="Linear"
       interpolator_beta="0.2"
       start_linecap_type="zerowidth"
       linejoin_type="round"
       miter_limit="4"
       end_linecap_type="zerowidth"
       cusp_linecap_type="round" />
    <inkscape:path-effect
       effect="powerstroke"
       id="path-effect4151"
       is_visible="true"
       offset_points="0,0.5"
       sort_points="true"
       interpolator_type="CubicBezierJohan"
       interpolator_beta="0.2"
       start_linecap_type="zerowidth"
       linejoin_type="round"
       miter_limit="4"
       end_linecap_type="zerowidth"
       cusp_linecap_type="round" />
    <inkscape:path-effect
       effect="powerstroke"
       id="path-effect4147"
       is_visible="true"
       offset_points="0,0.5"
       sort_points="true"
       interpolator_type="CubicBezierJohan"
       interpolator_beta="0.2"
       start_linecap_type="zerowidth"
       linejoin_type="round"
       miter_limit="4"
       end_linecap_type="zerowidth"
       cusp_linecap_type="round" />
    <inkscape:path-effect
       effect="powerstroke"
       id="path-effect4183"
       is_visible="true"
       offset_points="0.238227,0.51804536"
       sort_points="true"
       interpolator_type="Linear"
       interpolator_beta="0.2"
       start_linecap_type="zerowidth"
       linejoin_type="round"
       miter_limit="4"
       end_linecap_type="zerowidth"
       cusp_linecap_type="round" />
  </defs>
  <sodipodi:namedview
     id="base"
     pagecolor="#ffffff"
     bordercolor="#666666"
     borderopacity="1.0"
     inkscape:pageopacity="0.0"
     inkscape:pageshadow="2"
     inkscape:zoom="5.6"
     inkscape:cx="19.118241"
     inkscape:cy="53.606193"
     inkscape:document-units="px"
     inkscape:current-layer="layer5"
     showgrid="false"
     units="px"
     inkscape:window-width="2560"
     inkscape:window-height="1388"
     inkscape:window-x="-8"
     inkscape:window-y="-8"
     inkscape:window-maximized="1"
     showguides="false" />
  <metadata
     id="metadata4316">
    <rdf:RDF>
      <cc:Work
         rdf:about="">
        <dc:format>image/svg+xml</dc:format>
        <dc:type
           rdf:resource="http://purl.org/dc/dcmitype/StillImage" />
        <dc:title />
      </cc:Work>
    </rdf:RDF>
  </metadata>
  <g
     inkscape:groupmode="layer"
     id="layer5"
     inkscape:label="Stage5"
     style="display:inline;opacity:1">
    <ellipse
       style="display:inline;fill:#ff8080;fill-opacity:1;stroke:#000000;stroke-width:1.12779903;stroke-linecap:round;stroke-linejoin:round;stroke-miterlimit:4;stroke-dasharray:none;stroke-dashoffset:0;stroke-opacity:1"
       id="path4279"
       cx="31.819803"
       cy="31.548853"
       rx="27.0075"
       ry="26.624949" />
    <path
       style="fill:#deaa87;fill-rule:evenodd;stroke:#000000;stroke-width:0.48029801;stroke-linecap:butt;stroke-linejoin:miter;stroke-miterlimit:4;stroke-dasharray:none;stroke-opacity:1"
       d="M 25.923057,17.506645 C 25.893613,17.359468 23.467773,11.33599 23.467773,11.33599 l 6.306725,-1.3566841 0.387247,6.6356211 z"
       id="path4181"
       inkscape:connector-curvature="0"
       sodipodi:nodetypes="ccccc" />
    <path
       style="fill:#a05a2c;fill-rule:evenodd;stroke:#000000;stroke-width:0.48029801;stroke-linecap:butt;stroke-linejoin:miter;stroke-miterlimit:4;stroke-dasharray:none;stroke-opacity:1"
       d="m 18.892897,30.896077 c -0.06627,-0.342016 0.20479,-0.684041 0.756858,-1.026087 -0.516346,-6.617776 5.76799,-8.370222 5.562787,-9.793989 l -0.413757,-2.870792 c -0.104865,-0.72758 -0.50961,-1.379271 -1.691631,-1.558675 -0.418336,-0.06349 -0.565257,-0.682634 0.01257,-0.811586 2.88835,-0.644584 8.267155,-1.874041 8.597702,-1.811264 0.749056,0.142254 0.698001,0.733352 0.403738,0.925099 -0.807729,0.526328 -0.85804,1.357363 -0.723163,1.959616 l 0.61404,2.741701 c 0.197158,0.880217 7.145758,0.795805 9.386149,6.475316 0.702292,0.121069 0.806132,0.532928 0.806132,0.532928 -0.277698,7.05712 -21.919826,12.478105 -23.311427,5.237737 z"
       id="path4177"
       inkscape:connector-curvature="0"
       sodipodi:nodetypes="ccssssssssccc" />
    <path
       style="fill:#decd87;fill-rule:evenodd;stroke:#000000;stroke-width:0.48029801;stroke-linecap:butt;stroke-linejoin:miter;stroke-miterlimit:4;stroke-dasharray:none;stroke-opacity:1"
       d="m 23.763587,51.744673 c 5.251294,3.533233 22.578874,-1.683907 22.993215,-4.643736 -1.214858,-7.276834 -2.993472,-14.093421 -4.501998,-21.202418 -7.819385,3.466514 -15.353716,4.90824 -23.340916,5.212029 1.859661,6.975187 3.237518,14.285705 4.849699,20.634125 z"
       id="path4175"
       inkscape:connector-curvature="0"
       sodipodi:nodetypes="ccccc" />
    <path
       style="fill:#d38d5f;fill-rule:evenodd;stroke:#000000;stroke-width:0.48029801;stroke-linecap:butt;stroke-linejoin:miter;stroke-miterlimit:4;stroke-dasharray:none;stroke-opacity:1"
       d="m 41.074422,24.490449 c 0.21734,-1.651515 -0.492782,-2.813786 -1.333244,-3.93169 -0.519633,-0.691209 -0.729805,-1.410643 -0.51313,-2.018419 1.314817,-3.688021 0.110509,-8.013521 -3.3897,-6.887757 -2.202562,0.708405 -1.688785,1.535849 -3.523749,2.170032 0,0 -0.722838,0.728348 -0.827236,1.418493 -0.157298,1.039922 0.280205,2.18281 0.268162,2.126435 -0.06413,-0.300964 3.428484,-3.593392 4.793585,-3.911012 0.830313,-0.193189 1.423664,-0.148977 1.484466,1.189957 0.008,0.175791 -0.439304,3.64805 -0.2226,4.78962 0.299917,1.579939 0.782269,2.161376 0.782269,2.161376 0.456355,1.202948 1.555279,1.996279 2.481177,2.892965 z"
       id="path4179"
       inkscape:connector-curvature="0"
       sodipodi:nodetypes="cssscssssscc" />
    <path
       style="fill:none;fill-rule:evenodd;stroke:#000000;stroke-width:0.48029801;stroke-linecap:round;stroke-linejoin:round;stroke-miterlimit:4;stroke-dasharray:none;stroke-opacity:1"
       d="m 28.652915,39.700328 -1.553684,-0.08711 2.567681,0.918897 -2.067761,1.05038 c 0,0 2.148739,-2.499166 2.383101,-2.386876 0.234361,0.11229 0.594137,1.910634 0.594137,1.910634 l 0.47845,-1.050776 0.810253,0.872547 -0.206968,-1.828915 1.029595,1.704134 0.261467,-2.400157 1.103496,1.808732 0.322994,-1.298233 0.958052,1.081742 -0.117447,-0.851973 0.7923,0.517991 -0.418388,-1.826411 c 0,0 2.776141,-0.157453 2.572392,-0.116691 -0.20373,0.04076 -2.307128,1.177856 -2.307128,1.177856"
       id="path4183"
       inkscape:connector-curvature="0" />
    <path
       style="fill:none;fill-rule:evenodd;stroke:#000000;stroke-width:0.48029801;stroke-linecap:round;stroke-linejoin:round;stroke-miterlimit:4;stroke-dasharray:none;stroke-opacity:1"
       d="m 28.495972,42.126315 c 0.19745,0.07662 1.130445,2.009169 1.130445,2.009169 l 0.218209,-1.640316 0.624754,1.529734 1.140457,-2.492515 -0.435312,2.148233 1.51392,-2.218867 0.265146,2.008099 1.865939,-1.824808 -1.54521,-0.213411 1.995058,0.413716 -1.732598,0.898197 1.888957,-0.116632 c 0,0 0.02166,-1.484874 0.240556,-1.528666 0.218888,-0.04379 2.101372,-0.420399 2.101372,-0.420399 l -2.012024,0.867007 1.722112,0.642503"
       id="path4185"
       inkscape:connector-curvature="0" />
    <path
       style="fill:#a0892c;fill-rule:evenodd;stroke:#000000;stroke-width:0.48029801;stroke-linecap:butt;stroke-linejoin:miter;stroke-miterlimit:4;stroke-dasharray:none;stroke-opacity:1"
       d="m 39.042292,37.40519 c -0.109797,-0.412697 -0.345681,-1.444377 -0.345681,-1.444377 -0.85232,0.100814 -1.359958,-0.0067 -1.551094,-1.239135 -2.00597,0.3793 -10.578401,2.051808 -10.578401,2.051808 0.193357,0.922429 0.392369,1.149132 -0.884872,1.50318 0.04893,0.379681 0.197419,0.897877 0.255959,1.224768 l 0.632015,-0.149325 c -0.04407,-0.261439 -0.113296,-0.607442 -0.113296,-0.607442 0.947124,-0.303243 1.088284,-0.644398 0.974528,-1.311826 l 9.134346,-1.796484 c 0.142784,0.842491 0.836403,0.950371 1.587873,0.98115 l 0.191853,0.881613 z"
       id="path4199"
       inkscape:connector-curvature="0"
       sodipodi:nodetypes="ccccccccccccc" />
    <path
       style="fill:none;fill-rule:evenodd;stroke:#000000;stroke-width:0.24014901;stroke-linecap:butt;stroke-linejoin:miter;stroke-miterlimit:4;stroke-dasharray:none;stroke-opacity:1"
       d="m 19.674994,29.996141 c 5.333957,-0.0024 16.476601,-1.950916 21.555054,-4.83709"
       id="path4216"
       inkscape:connector-curvature="0"
       sodipodi:nodetypes="cc" />
    <path
       style="fill:#f4e3d7;fill-rule:evenodd;stroke:none;stroke-width:1px;stroke-linecap:butt;stroke-linejoin:miter;stroke-opacity:1"
       d="m 32.157724,20.430487 c 1.184746,0.3363 2.061502,0.760787 2.734286,1.210426 1.853487,0.616287 2.516709,1.358271 3.831282,1.929166 -0.944204,-0.71581 -1.761597,-1.854588 -3.480565,-2.751607 C 34.382,20.611393 33.385881,20.4711 32.157724,20.430487 Z"
       id="path4218"
       inkscape:path-effect="#path-effect4220"
       inkscape:original-d="m 32.157724,20.430487 c 3.929496,0.613271 5.016731,2.23379 6.565568,3.139592"
       inkscape:connector-curvature="0"
       sodipodi:nodetypes="cc" />
    <path
       style="fill:#f4e3d7;fill-rule:evenodd;stroke:none;stroke-width:1px;stroke-linecap:butt;stroke-linejoin:miter;stroke-opacity:1"
       d="m 31.562652,13.591578 c -0.381542,0.03035 -0.762675,0.05627 -1.143485,0.07935 -0.930217,0.25649 -1.864602,0.495342 -2.805218,0.74155 0.960896,-0.134331 1.920283,-0.262231 2.876329,-0.407991 0.358921,-0.134653 0.716385,-0.27178 1.072374,-0.41291 z"
       id="path4222"
       inkscape:path-effect="#path-effect4224"
       inkscape:original-d="m 31.562652,13.591578 c -1.309126,0.30433 -2.625056,0.556093 -3.948703,0.820901"
       inkscape:connector-curvature="0" />
    <path
       style="fill:#f4e3d7;fill-rule:evenodd;stroke:none;stroke-width:1px;stroke-linecap:butt;stroke-linejoin:miter;stroke-opacity:1"
       d="m 36.141674,12.057017 c 0.695019,-0.150843 1.197597,0.04668 1.572025,0.372137 0.0148,0.01287 0.02945,0.02597 0.04394,0.0393 0.437158,0.23748 0.820324,0.654489 1.167283,1.134601 -0.230679,-0.526933 -0.530127,-1.059301 -0.948928,-1.437037 -0.02004,-0.0116 -0.04019,-0.02289 -0.06048,-0.03387 -0.532517,-0.288121 -1.115768,-0.340102 -1.773841,-0.07513 z"
       id="path4226"
       inkscape:path-effect="#path-effect4228"
       inkscape:original-d="m 36.141674,12.057017 c 1.350207,-0.415086 2.183198,0.496097 2.783249,1.546035"
       inkscape:connector-curvature="0" />
    <path
       style="display:inline;opacity:1;fill:#a0892c;fill-rule:evenodd;stroke:#000000;stroke-width:0.47334456;stroke-linecap:butt;stroke-linejoin:miter;stroke-miterlimit:4;stroke-dasharray:none;stroke-opacity:1"
       d="m 39.793947,40.554867 c 0.05498,0.410939 0.228084,1.423599 0.228084,1.423599 -0.826358,0.232984 -1.255001,0.521668 -0.964402,1.697027 -1.998709,0.421226 -10.559674,2.175169 -10.559674,2.175169 -0.170991,-0.898769 -0.07293,-1.177104 -1.388222,-1.009608 -0.09873,-0.358317 -0.15792,-0.878339 -0.227741,-1.193062 l 0.641036,-0.106027 c 0.05838,0.250667 0.125571,0.586541 0.125571,0.586541 0.990776,-0.08778 1.250668,0.16398 1.398565,0.804375 l 9.127568,-1.85608 c -0.187424,-0.808062 0.413033,-1.167614 1.09623,-1.480111 l -0.156908,-0.861673 z"
       id="path4199-4"
       inkscape:connector-curvature="0"
       sodipodi:nodetypes="ccccccccccccc" />
    <path
       style="fill:#fff6d5;fill-rule:evenodd;stroke:none;stroke-width:1px;stroke-linecap:butt;stroke-linejoin:miter;stroke-opacity:1"
       d="m 32.657763,30.324937 c 3.085942,-0.669821 6.931532,-2.019643 8.899907,-2.831521 0.01032,0.06685 0.02069,0.133274 0.03111,0.199316 0.45719,1.723431 0.940706,3.153205 1.375938,5.105412 -0.238239,-1.987254 -0.530475,-3.479785 -0.788176,-5.226514 -0.04366,-0.170629 -0.08701,-0.343964 -0.129988,-0.5208 a 0.28497875,0.26463282 69.449593 0 0 -0.38981,-0.194944 c -1.71572,0.932664 -5.771913,2.581286 -8.99898,3.469051 z"
       id="path4245"
       inkscape:path-effect="#path-effect4247"
       inkscape:original-d="m 32.657763,30.324937 c 3.25363,-0.80001 7.34045,-2.360852 9.118803,-3.221445 0.385484,1.976306 0.817832,3.528695 1.188151,5.694652"
       inkscape:connector-curvature="0"
       sodipodi:nodetypes="ccc" />
    <path
       style="display:inline;fill:#f9f9f9;fill-opacity:1;fill-rule:evenodd;stroke:none;stroke-width:1px;stroke-linecap:butt;stroke-linejoin:miter;stroke-opacity:1"
       d="M 33.310526,8.4466623 C 42.853897,9.7059588 51.837481,12.667445 56.143804,29.852737 42.960254,11.013531 41.261755,14.341438 33.310526,8.4466623 Z"
       id="path4281"
       inkscape:connector-curvature="0"
       sodipodi:nodetypes="ccc" />
    <path
       style="display:inline;fill:#000000;fill-opacity:0.44859811;fill-rule:evenodd;stroke:none;stroke-width:1px;stroke-linecap:butt;stroke-linejoin:miter;stroke-opacity:1"
       d="M 43.352343,55.124348 C 18.554601,65.583105 -2.4191261,42.115746 7.6398162,20.86384 7.8289942,39.063247 21.867849,56.944615 43.352343,55.124348 Z"
       id="path4283"
       inkscape:connector-curvature="0"
       sodipodi:nodetypes="ccc" />
  </g>
</svg>
