<svg xmlns="http://www.w3.org/2000/svg" viewBox="0 0 64 64">
    <ellipse cx="31.82" cy="31.549" fill="#ff8080" stroke="#000" stroke-linecap="round" stroke-linejoin="round" stroke-width="1.128" rx="27.008" ry="26.625"/>
    <path fill="#f9f9f9" fill-rule="evenodd" d="M33.31 8.447c9.544 1.259 18.527 4.22 22.834 21.406C42.96 11.013 41.262 14.34 33.31 8.447z"/>
    <path fill="#e3e2db" fill-rule="evenodd" stroke="#000" stroke-width=".5" d="M27.232 23.636l-1.208-4.483 1.185-.333-1.123-3.062 3.993-.947.356 3.24 1.129-.164 1.215 4.513z"/>
    <path fill="#f9baff" fill-rule="evenodd" stroke="#000" stroke-width=".5" d="M31.3 52.852c-16.321-2.491-17.313-25-4.389-29.334l5.832-1.402c10.102-2.098 24.247 16.705 8.547 28.27z"/>
    <path fill="#ff6ee8" fill-rule="evenodd" stroke="#000" stroke-width=".25" d="M31.476 51.29c-14.688-2.242-15.58-22.5-3.95-26.4l5.25-1.262c9.091-1.889 21.822 15.034 7.692 25.442z"/>
    <ellipse cx="23.685" cy="23.11" fill="#4d4d4d" stroke="#000" stroke-linecap="round" stroke-width=".5" rx=".647" ry=".584" transform="rotate(-13.515)"/>
    <path fill="#f7c7f7" fill-opacity=".784" fill-rule="evenodd" stroke="#000" stroke-width=".3" d="M23.202 13.76l2.136 8.48 8.341-2.037-2.05-8.533z"/>
    <path fill="#fff" fill-rule="evenodd" d="M35.86 25.4c1.792.441 3.11 1.281 4.129 2.333 1.756 1.24 3.068 3.108 4.312 5.28-.927-2.26-2.009-4.43-3.696-6.03-1.358-.91-2.905-1.462-4.746-1.582z"/>
    <path fill-opacity=".449" fill-rule="evenodd" d="M43.352 55.124C18.555 65.584-2.419 42.116 7.64 20.864c.189 18.2 14.228 36.08 35.712 34.26z"/>
</svg>
