<svg xmlns="http://www.w3.org/2000/svg" viewBox="0 0 64 64">
    <ellipse cx="31.82" cy="31.549" fill="#ff8080" stroke="#000" stroke-linecap="round" stroke-linejoin="round" stroke-width="1.128" rx="27.008" ry="26.625"/>
    <path fill="#ff761a" fill-rule="evenodd" d="M30.524 53.766c4.321-.366 8.493-1.58 12.711-3.31.373-.152.608-2.224.365-3.371l-.4-1.88c-.075-.356-.6-.535-.6-.535l-3.884-14.858s.32-.597.228-.89l-.571-1.835c-.612-1.962-2.482-5.234-3.746-7.332-.276 1.516-9.398.529-11.625 3.071-.076 2.781-.115 7.256.176 8.435l.453 1.835c.053.215.556.362.556.362l3.957 15.222s-.323.532-.252.804l.373 1.425c.176.675 1.79 2.897 2.259 2.857z"/>
    <path fill="#d5f6ff" fill-opacity=".251" fill-rule="evenodd" stroke="#000" stroke-width=".5" d="M30.524 53.766c4.321-.366 8.493-1.58 12.711-3.31.373-.152.608-2.224.365-3.371l-.4-1.88c-.075-.356-.6-.535-.6-.535l-3.884-14.858s.32-.597.228-.89l-.571-1.835c-.955-3.061-4.973-9.313-4.973-9.313-.28-.431-.903-.127-1.105-.707l1.02-.286c.29-.08.2-.744-.16-.65l-.993.26-.199-.687-8.803 2.31.202.723-.864.226c-.271.07-.196.732.153.647l.883-.215c.11.658-.36.761-.434 1.164-.074.407-.342 8.998.078 10.702l.453 1.835c.053.215.556.362.556.362l3.957 15.222s-.323.532-.252.804l.373 1.425c.176.675 1.79 2.896 2.259 2.857z"/>
    <path fill="#b7c8c4" fill-rule="evenodd" stroke="#000" stroke-width=".5" d="M22.338 18.45c3.53-1.05 7.072-1.991 10.636-2.747.378-.08.126-1.017-.24-.981-3.702.359-7.238 1.354-10.663 2.77-.363.15-.089 1.064.267.959z"/>
    <g stroke="#000">
        <path fill="#dbe3e2" fill-rule="evenodd" stroke-width=".5" d="M22.22 17.437l-.766-2.866c-.224-.838 10.079-3.48 10.28-2.672l.717 2.864a177.21 177.21 0 0 0-10.231 2.674z"/>
        <path fill="none" stroke-width=".234" d="M22.322 14.458l.555 2.123"/>
        <path fill="none" stroke-width=".241" d="M23.437 14.044l.59 2.26"/>
        <path fill="none" stroke-width=".247" d="M24.715 13.628l.619 2.367"/>
        <path fill="none" stroke-width=".25" d="M25.977 13.152l.635 2.428"/>
        <path fill="none" stroke-width=".233" d="M30.946 12.281l.55 2.107"/>
        <path fill="none" stroke-width=".24" d="M29.793 12.427l.583 2.23"/>
        <path fill="none" stroke-width=".247" d="M28.616 12.605l.618 2.367"/>
        <path fill="none" stroke-width=".25" d="M27.344 12.856l.634 2.428"/>
    </g>
    <path fill="none" stroke="#000" stroke-width=".5" d="M23.387 19.423l8.921-2.367M23.358 18.744l8.921-2.367"/>
    <path fill="none" stroke="#000" stroke-width=".25" d="M28.246 48.67c4.596-.607 10.959-2.351 14.231-3.851M24.158 33.352c4.387-.792 10.92-2.665 14.645-3.763"/>
    <path fill="#fdd9c1" fill-rule="evenodd" stroke="#000" stroke-width=".248" d="M42.322 44.045l-3.498-13.379c-4.838 1.72-9.666 2.836-14.272 3.759l3.489 13.418c3.592-.499 10.692-2.247 14.28-3.798z"/>
    <path fill="#f97017" fill-rule="evenodd" stroke="#000" stroke-width=".5" d="M29.6 43.832l4.84-7.29c.366-.552 3.667 1.366 3.019 1.944l-6.843 6.106c-.478.427-1.657.205-1.016-.76z"/>
    <path fill="#5aa02c" fill-rule="evenodd" stroke="#000" stroke-linecap="round" stroke-linejoin="round" stroke-width=".5" d="M35.764 36.675l-.194-1.668.733 1.281 1.61-1.034-.61 1.616 1.587.561-1.933.135z"/>
    <path fill="none" stroke="#000" stroke-linecap="round" stroke-linejoin="round" stroke-width=".5" d="M27.55 39.252l.37-1.58-1.375.815 1.882 1.966.737-1.68-1.63.657.617-2.073 1.813 1.49.51-.671-1.417-1.408 1.765 1.036-1.235-1.682 1.89.89-.952-1.342 1.273.79-1.102-1.424.32-.307.977.336-.055-1.35.132 1.492.573.59M34.586 45.737l1.298-.587-1.143-1.352-.804.925 1.559-1.655.984 1.353.95-.68-1.236-1.32.711-.42 1.068 1.568-.037-2.506-.215 1.232 1.39.372-.62-1.866 1.105 1.46.81-1.127-1.56.19.812-.654-1.268.207 1.05-1.071"/>
    <path fill="#f9f9f9" fill-rule="evenodd" d="M33.31 8.447c9.544 1.259 18.527 4.22 22.834 21.406C42.96 11.013 41.262 14.34 33.31 8.447z"/>
    <path fill-opacity=".449" fill-rule="evenodd" d="M43.352 55.124C18.555 65.584-2.419 42.116 7.64 20.864c.189 18.2 14.228 36.08 35.712 34.26z"/>
    <path fill="#fff" fill-rule="evenodd" d="M32.5 19.134a42.11 42.11 0 0 1 3.757 6.808c.583.846 1.115 1.69 1.555 2.478-.169-.891-.44-1.865-.776-2.867-1.31-2.307-3.008-4.708-4.536-6.42z"/>
    <path fill="none" stroke="#803300" stroke-width=".25" d="M30.223 43.085c.64-.029.981.239 1.206.625M31.406 41.5c.835-.083 1.212.343 1.518.848M32.522 39.603c.892-.026 1.601.338 2.076 1.205M33.795 37.772c1.34-.227 2.065.518 2.7 1.407"/>
</svg>
