<svg xmlns="http://www.w3.org/2000/svg" viewBox="0 0 64 64">
    <ellipse cx="31.82" cy="31.549" fill="#ff8080" stroke="#000" stroke-linecap="round" stroke-linejoin="round" stroke-width="1.128" rx="27.008" ry="26.625"/>
    <path fill="#deaa87" fill-rule="evenodd" stroke="#000" stroke-width=".48" d="M25.923 17.507c-.03-.148-2.455-6.171-2.455-6.171l6.306-1.357.388 6.636z"/>
    <path fill="#a05a2c" fill-rule="evenodd" stroke="#000" stroke-width=".48" d="M18.893 30.896c-.066-.342.205-.684.757-1.026-.517-6.618 5.768-8.37 5.563-9.794l-.414-2.87c-.105-.728-.51-1.38-1.692-1.56-.418-.063-.565-.682.013-.811 2.888-.645 8.267-1.874 8.597-1.811.75.142.698.733.404.925-.808.526-.858 1.357-.723 1.96l.614 2.741c.197.88 7.146.796 9.386 6.475.702.121.806.533.806.533-.277 7.057-21.92 12.478-23.311 5.238z"/>
    <path fill="#decd87" fill-rule="evenodd" stroke="#000" stroke-width=".48" d="M23.764 51.745c5.25 3.533 22.578-1.684 22.993-4.644-1.215-7.277-2.994-14.093-4.502-21.202-7.82 3.466-15.354 4.908-23.341 5.212 1.86 6.975 3.237 14.285 4.85 20.634z"/>
    <path fill="#d38d5f" fill-rule="evenodd" stroke="#000" stroke-width=".48" d="M41.074 24.49c.218-1.651-.492-2.813-1.333-3.931-.52-.691-.73-1.41-.513-2.019 1.315-3.688.11-8.013-3.39-6.887-2.202.708-1.688 1.535-3.523 2.17 0 0-.723.728-.828 1.418-.157 1.04.28 2.183.269 2.127-.065-.301 3.428-3.594 4.793-3.911.83-.194 1.424-.15 1.485 1.19.008.175-.44 3.648-.223 4.79.3 1.579.782 2.16.782 2.16.457 1.203 1.556 1.997 2.481 2.893z"/>
    <path fill="none" stroke="#000" stroke-linecap="round" stroke-linejoin="round" stroke-width=".48" d="M28.653 39.7l-1.554-.087 2.568.92-2.068 1.05s2.149-2.5 2.383-2.387c.235.112.594 1.91.594 1.91l.479-1.05.81.872-.207-1.829 1.03 1.704.261-2.4 1.104 1.809.323-1.298.958 1.081-.118-.852.793.518-.419-1.826s2.776-.158 2.573-.117c-.204.041-2.308 1.178-2.308 1.178M28.496 42.126c.197.077 1.13 2.01 1.13 2.01l.219-1.64.624 1.529 1.14-2.493-.434 2.149 1.513-2.22.266 2.009 1.866-1.825-1.546-.213 1.995.413-1.732.899 1.889-.117s.021-1.485.24-1.529l2.102-.42-2.012.867 1.722.642"/>
    <path fill="#a0892c" fill-rule="evenodd" stroke="#000" stroke-width=".48" d="M39.042 37.405a65.377 65.377 0 0 1-.345-1.444c-.853.1-1.36-.007-1.551-1.24-2.006.38-10.579 2.052-10.579 2.052.193.923.392 1.15-.885 1.504.05.38.198.898.256 1.224l.632-.149c-.044-.261-.113-.607-.113-.607.947-.304 1.088-.645.974-1.312l9.135-1.797c.143.843.836.95 1.588.982l.192.881z"/>
    <path fill="none" stroke="#000" stroke-width=".24" d="M19.675 29.996c5.334-.002 16.477-1.95 21.555-4.837"/>
    <path fill="#f4e3d7" fill-rule="evenodd" d="M32.158 20.43c1.184.337 2.061.761 2.734 1.21 1.853.617 2.517 1.36 3.831 1.93-.944-.716-1.761-1.855-3.48-2.752-.861-.207-1.857-.347-3.085-.388zM31.563 13.592c-.382.03-.763.056-1.144.079-.93.256-1.864.495-2.805.741.96-.134 1.92-.262 2.876-.408.36-.134.717-.271 1.073-.412zM36.142 12.057c.695-.15 1.197.047 1.572.372l.044.04c.437.237.82.654 1.167 1.134-.23-.527-.53-1.06-.949-1.437a2.416 2.416 0 0 0-.06-.034c-.533-.288-1.116-.34-1.774-.075z"/>
    <path fill="#a0892c" fill-rule="evenodd" stroke="#000" stroke-width=".473" d="M39.794 40.555c.055.41.228 1.423.228 1.423-.826.233-1.255.522-.964 1.697-2 .422-10.56 2.176-10.56 2.176-.171-.9-.073-1.177-1.388-1.01-.099-.358-.158-.878-.228-1.193l.641-.106c.058.25.126.587.126.587.99-.088 1.25.163 1.398.804l9.128-1.856c-.188-.808.413-1.168 1.096-1.48l-.157-.862z"/>
    <path fill="#fff6d5" fill-rule="evenodd" d="M32.658 30.325c3.086-.67 6.931-2.02 8.9-2.832l.03.2c.458 1.723.941 3.153 1.377 5.105-.239-1.987-.53-3.48-.788-5.226-.044-.171-.087-.344-.13-.521a.285.265 69.45 0 0-.39-.195c-1.716.933-5.772 2.581-9 3.469z"/>
    <path fill="#f9f9f9" fill-rule="evenodd" d="M33.31 8.447c9.544 1.259 18.527 4.22 22.834 21.406C42.96 11.013 41.262 14.34 33.31 8.447z"/>
    <path fill-opacity=".449" fill-rule="evenodd" d="M43.352 55.124C18.555 65.584-2.419 42.116 7.64 20.864c.189 18.2 14.228 36.08 35.712 34.26z"/>
</svg>
