<svg xmlns="http://www.w3.org/2000/svg" xmlns:osb="http://www.openswatchbook.org/uri/2009/osb" xmlns:xlink="http://www.w3.org/1999/xlink" viewBox="0 0 64 64">
    <defs>
        <linearGradient id="linearGradient4523" osb:paint="solid">
            <stop offset="0"/>
        </linearGradient>
        <linearGradient id="angelWings0">
            <stop offset="0" stop-color="#d5f6ff"/>
            <stop offset="1" stop-color="#aef"/>
        </linearGradient>
        <linearGradient id="linearGradient4169-3-8" x1="-101.611" x2="-97.934" y1="1012.627" y2="1010.93" gradientTransform="rotate(-12.127 -1126.004 -113.485) scale(.27905)" gradientUnits="userSpaceOnUse" xlink:href="#angelWings0"/>
        <linearGradient id="linearGradient4237-6" x1="-101.611" x2="-97.934" y1="1012.627" y2="1010.93" gradientTransform="scale(-.27905 .27905) rotate(12.126 3945.412 439.446)" gradientUnits="userSpaceOnUse" xlink:href="#angelWings0"/>
        <linearGradient id="linearGradient4379" x1="21.006" x2="33.155" y1="13.39" y2="13.39" gradientTransform="rotate(.206 6.805 34.952)" gradientUnits="userSpaceOnUse" xlink:href="#linearGradient4523"/>
    </defs>
    <ellipse cx="31.82" cy="31.549" fill="#ff8080" stroke="#000" stroke-linecap="round" stroke-linejoin="round" stroke-width="1.128" rx="27.008" ry="26.625"/>
    <path fill="#fffbec" fill-rule="evenodd" d="M30.07 53.836L41 51.364c1.143-.26 2.788-2.521 2.392-4.278l-4.374-19.392c-.419-1.856-2.22-3.265-2.98-4.727-.506-.97-1.863-4.336-2.354-5.607-3.38.74-8.813-.306-11.079.3.051 1.166.33 6.937.298 7.82-.067 1.822-1.069 3.7-.705 5.486l4.008 19.687c.34 1.669 2.675 3.453 3.865 3.183z"/>
    <ellipse cx="31.554" cy="19.288" fill="#fff" rx=".962" ry=".917" transform="rotate(.206)"/>
    <ellipse cx="26.509" cy="22.681" fill="#fff" rx="1.408" ry="1.274" transform="rotate(.206)"/>
    <ellipse cx="29.009" cy="33.931" fill="#fff" rx=".962" ry=".917" transform="rotate(.206)"/>
    <ellipse cx="39.724" cy="47.591" fill="#fff" rx=".739" ry=".694" transform="rotate(.206)"/>
    <path fill="#dbecf0" fill-opacity=".251" fill-rule="evenodd" stroke="#000" stroke-width=".5" d="M30.07 53.836L41 51.364c1.143-.26 2.788-2.521 2.392-4.278l-4.374-19.392c-.419-1.856-2.22-3.265-2.98-4.727-1.55-2.978-3.378-8.779-3.378-8.779.895-.226.513-.782-.14-.654l-10.346 2.242c-.626.148-.441.79.274.61 0 0 .566 6.045.455 9.094-.067 1.822-1.069 3.7-.705 5.486l4.008 19.687c.34 1.669 2.675 3.453 3.865 3.183z"/>
    <path fill="#fff" fill-rule="evenodd" stroke="#000" stroke-width=".5" d="M42.48 43.13l-1.97-8.819c-5.804 1.464-11.504 2.905-16.854 3.768l1.798 8.886c4.466-.647 12.874-2.433 17.026-3.835z"/>
    <path fill="#9b78dc" fill-rule="evenodd" d="M21.892 15.83c-.285-.696-.543-1.423-.556-2.432 3.624-.955 7.346-1.77 11.062-2.315.386.794.532 1.58.573 2.363l-11.08 2.383z"/>
    <path fill="none" stroke="#000" stroke-width=".25" d="M22.489 16.262l10.147-2.183"/>
    <ellipse cx="27.603" cy="28.395" fill="#fff" rx="1.207" ry="1.14" transform="rotate(.206)"/>
    <ellipse cx="31.286" cy="25.024" fill="#fff" rx=".605" ry=".582" transform="rotate(.206)"/>
    <path fill="#dcdcdc" d="M23.294 15.389l1.304-.287-1.794-1.973-1.272.363M25.961 14.825l1.305-.287-1.794-1.973-1.273.363M28.403 14.261l1.305-.286-1.794-1.973-1.273.363M31.151 13.73l1.305-.287-1.794-1.973-1.273.363"/>
    <path fill="none" stroke="url(#linearGradient4379)" stroke-width=".5" d="M21.892 15.83c-.285-.696-.543-1.423-.556-2.432 3.624-.955 7.346-1.77 11.062-2.315.386.794.532 1.58.573 2.363l-11.08 2.383z"/>
    <path fill="#fff" fill-rule="evenodd" d="M29.68 12.162c.382-.095.997-.337 1.51-.433.247-.047.517-.07.766-.015l.044.034c.237.192.338.43.334.702a.519.519 0 0 0-.558-.213c-.131-.077-.322-.12-.56-.132-1.16-.064-.446.114-1.536.057z"/>
    <path fill="none" d="M22.567 27.287l13.8-3.442M23.589 29.722s4.09-.562 6.253-.915c2.162-.353 7.569-1.817 6.79-2.226M24.588 40.492s6.101-.69 8.857-1.46c2.757-.77 8.42-2.388 8.42-2.388"/>
    <path fill="url(#linearGradient4169-3-8)" fill-rule="evenodd" stroke="#000" stroke-width=".094" d="M33.543 43.007c.182-.024-.238 1.35-.619 1.637-.09.067-.1-.159-.177-.607-.227.532-.5.998-.755 1.127-.152.076-.141-.584-.144-.877-.229.375-.699.751-1.073.788-.183.017.403-.635.426-1.04-.322.35-1.063.603-1.436.53-.22-.044.464-.404.686-.735-.707.191-1.353-.094-1.558-.248-.212-.16.46-.256.948-.592-.649.101-1.213.037-1.809-.543-.192-.187.812-.003 1.312-.423-1.181-.047-1.907-.793-1.882-.96.027-.174.467.146 1.421.05-1.468-.308-2.065-1.761-1.733-2.304.112-.182 1.062 1.7 2.667 1.22 1.315-.393 1.268.156 1.199.676-.314 2.36 1.422 2.448 2.527 2.301z" transform="rotate(-.478 -52.562 82.174)"/>
    <path fill="url(#linearGradient4237-6)" fill-rule="evenodd" stroke="#000" stroke-width=".094" d="M33.773 42.951c-.176.053.772 1.133 1.236 1.238.11.025.026-.186-.087-.627.425.393.866.706 1.15.718.17.007-.11-.59-.228-.859.362.249.945.399 1.302.278.174-.06-.629-.413-.816-.773.438.187 1.217.113 1.527-.107.182-.13-.589-.177-.927-.388.723-.116 1.195-.641 1.318-.866.128-.233-.523-.045-1.107-.15.633-.175 1.121-.465 1.426-1.239.098-.249-.741.331-1.37.154 1.058-.528 1.413-1.507 1.321-1.649-.095-.147-.365.325-1.274.63 1.212-.884 1.16-2.454.633-2.812-.176-.12-.27 1.986-1.93 2.208-1.36.181-1.092.662-.815 1.108 1.256 2.023-.292 2.816-1.359 3.136z" transform="rotate(-.478 -52.562 82.174)"/>
    <path fill="#ffd42a" stroke="#000" stroke-linecap="round" stroke-width=".047" d="M32.75 39.593a.649 1.407 77.396 0 0-1.231.94.649 1.407 77.396 0 0 1.515.325.649 1.407 77.396 0 0 1.231-.94.649 1.407 77.396 0 0-1.514-.325zm.043.2a.5 1.229 77.396 0 1 1.309.22.5 1.229 77.396 0 1-1.09.757.5 1.229 77.396 0 1-1.309-.22.5 1.229 77.396 0 1 1.09-.757z"/>
    <path fill="#fff" fill-rule="evenodd" d="M34.173 39.849a.734.734 0 0 0-.301-.216 1.586 1.586 0 0 0-.36-.056 3.316 3.316 0 0 0-.784.067c.232-.03.517-.05.78-.022.123.014.24.037.343.075a.734.734 0 0 1 .322.152z"/>
    <path fill="#f9f9f9" stroke="#808080" stroke-linecap="round" stroke-width=".009487700000000002" d="M34.072 39.27l-.324.307.44.076-.446-.013.257.365-.307-.324-.076.44.013-.446-.365.257.324-.307-.44-.076.447.013-.258-.365.307.324.076-.44-.012.447z"/>
    <path fill="#fff" fill-rule="evenodd" d="M35.878 25.6c.565.424.975 1.041 1.281 1.763.837.978 1.516 2.484 2 4.32-.186-1.86-.584-3.547-1.255-4.815-.632-.675-1.318-1.107-2.026-1.268z"/>
    <path fill="#f9f9f9" fill-rule="evenodd" stroke="#000" stroke-width=".5" d="M39.017 27.694c-.393-1.744-2.008-3.094-2.833-4.464-4.963 1.364-9.353 2.348-13.36 3.022-.244 1.577-.94 3.179-.627 4.714l.093.459c6.043-.864 10.347-1.952 16.727-3.731z"/>
    <path fill="none" stroke="#333" stroke-linecap="round" stroke-linejoin="round" stroke-width=".275" d="M24.954 29.345l-1.135-.359.873-.868-1.372.007.499 1.924 1.757-2.033-.099 1.638 1.079-1.881.121 1.47 1.207-.806-1.347.005 1.603-1.021.434 1.632.548-1.817.65 1.366.466-.888-.738-.004.8.788"/>
    <path fill="none" stroke="#333" stroke-linecap="round" stroke-linejoin="round" stroke-width=".3" d="M31.843 28.27l-.03-2.043.828 1.26.463-1.529.564 1.65.191-1.683.78 1.647.108-1.842s.8 1.215.828 1.306c.028.09.086-1.478.086-1.478l-.77.874 1.972.131"/>
    <path fill="#f9f9f9" fill-rule="evenodd" d="M33.31 8.447c9.544 1.259 18.527 4.22 22.834 21.406C42.96 11.013 41.262 14.34 33.31 8.447z"/>
    <path fill-opacity=".449" fill-rule="evenodd" d="M43.352 55.124C18.555 65.584-2.419 42.116 7.64 20.864c.189 18.2 14.228 36.08 35.712 34.26z"/>
</svg>
