<svg xmlns="http://www.w3.org/2000/svg" xmlns:xlink="http://www.w3.org/1999/xlink" viewBox="0 0 64 64">
    <defs>
        <linearGradient id="lilithsGiftGradient">
            <stop offset="0" stop-color="#d5f"/>
            <stop offset="1" stop-color="#7137c8"/>
        </linearGradient>
        <linearGradient id="linearGradient4218" x1="-61.051" x2="-61.43" y1="18.606" y2="36.347" gradientTransform="matrix(1.32173 -.37678 .3731 1.30882 104.624 -18.426)" gradientUnits="userSpaceOnUse" xlink:href="#lilithsGiftGradient"/>
    </defs>
    <ellipse cx="31.82" cy="31.549" fill="#ff8080" stroke="#000" stroke-linecap="round" stroke-linejoin="round" stroke-width="1.128" rx="27.008" ry="26.625"/>
    <path fill="#784421" fill-rule="evenodd" stroke="#000" stroke-width=".5" d="M21.581 14.718c-.039-.137-1.037-2.925-1.037-2.925l10.068-2.87.406 3.204z"/>
    <path fill="url(#linearGradient4218)" fill-rule="evenodd" stroke="#000" stroke-width=".5" d="M21.511 19.895c-10.64 3.72-7.974 11.554-5.518 15.099 2.997 4.327 10.668 8.533 11.12 10.417.396 1.224-.064 6.256-.096 9.384.552.291.339.8 1.697.861l16.92-4.51c.72-.225 1.379-1.443 1.195-1.707-1.731-2.643-3.592-3.897-5.195-7.929-.888-2.235 3.209-8.186 4.186-12.442 2.931-12.76-7.754-14.127-12.054-12.848l-.579-2.155c.588-.24 1.059-.445 1.47-.634l-.697-2.562c-5.384 1.627-9.777 2.74-15.214 4.209l.701 2.51c.388.058.91-.039 1.4-.098z"/>
    <path fill-rule="evenodd" d="M22.056 40.855c.086.066.174.137.263.21 1.477.377 3.765 1.502 5.914 2.835a32.223 32.223 0 0 1 3.177 2.226c.922.743 1.66 1.462 2.072 2.072-.392-.625-1.115-1.363-2.025-2.129a31.695 31.695 0 0 0-3.146-2.292c-2.127-1.373-4.41-2.553-5.918-2.985a3.65 3.65 0 0 0-.337.063zM43.116 35.83l-.221.054c-.845 1.184-2.118 2.938-3.137 4.781-1.061 1.92-1.844 3.935-1.582 5.494-.211-1.556.616-3.539 1.712-5.42 1.055-1.809 2.36-3.526 3.243-4.68a10.695 10.695 0 0 0-.015-.228zM21.44 20.12c1.804-.726 4.204.154 6.111 1.105-1.777-1.038-4.245-2.149-6.253-1.496zM33.948 16.12l-.118-.188c-2.693 1.052-3.454 3.313-4.854 4.878 1.6-1.565 2.357-3.589 5.002-4.47l-.03-.22z"/>
    <path fill="#fff" fill-rule="evenodd" d="M35.921 17.104c2.24-.248 4.008.594 5.354 1.934.257.256.5.533.731.827 1.25 1.042 2.343 2.517 3.22 4.224-.495-1.831-1.265-3.602-2.34-5.046a9.814 9.814 0 0 0-.962-.782c-1.784-1.266-3.814-1.739-6.003-1.157z"/>
    <path fill="none" stroke="#000" stroke-width=".382" d="M20.855 17.501c1.706-.239 11.657-3.194 12.306-3.411"/>
    <path fill="#f9f9f9" fill-rule="evenodd" d="M33.31 8.447c9.544 1.259 18.527 4.22 22.834 21.406C42.96 11.013 41.262 14.34 33.31 8.447z"/>
    <path fill-opacity=".449" fill-rule="evenodd" d="M43.352 55.124C18.555 65.584-2.419 42.116 7.64 20.864c.189 18.2 14.228 36.08 35.712 34.26z"/>
</svg>
