<svg xmlns="http://www.w3.org/2000/svg" viewBox="0 0 64 64">
    <ellipse cx="31.82" cy="31.549" fill="#ff8080" stroke="#000" stroke-linecap="round" stroke-linejoin="round" stroke-width="1.128" rx="27.008" ry="26.625"/>
    <path fill="#f9f9f9" fill-rule="evenodd" d="M33.31 8.447c9.544 1.259 18.527 4.22 22.834 21.406C42.96 11.013 41.262 14.34 33.31 8.447z"/>
    <path fill="#672178" fill-rule="evenodd" stroke="#000" stroke-width=".5" d="M28.042 8.802l-4.27 1.137.13 1.952.546.483c.387 2.657 1.47 4.936 1.035 8.02-.162 5.39-2.433 4.107-.113 13.36.953 3.803 4.689 18.773 4.689 18.773s.58 2.641 1.712 2.977c2.153.638 9.519-.884 10.627-2.597.676-1.045.175-3.335.175-3.335s-3.951-15.774-4.7-18.973c-1.953-8.338-3.93-7.897-5.997-11.482-1.732-3.147-1.918-4.59-3.142-7.82l.244-.58z"/>
    <path fill="#f4eed7" fill-rule="evenodd" stroke="#000" stroke-width=".5" d="M23.285 9.006l.175 1.338c1.746.083 3.668-.6 5.169-1.228l-.613-1.342c-.432-.383-4.42.693-4.73 1.232zM37.702 29.26c-2.603 1.052-9.193 2.926-12.745 3.242.149.61.33 1.289.492 1.941h-.008c.297 1.217.646 2.538.985 3.879l-.017.002a665.803 665.803 0 0 0 2.373 9.348c3.236.448 9.693-1.279 12.749-2.723-.713-3.138-1.544-6.663-2.377-9.867l-.011.005c-.072-.295-.134-.574-.207-.868-.244-1.02-.498-2.013-.75-3.018-.162-.646-.32-1.313-.484-1.94z"/>
    <path fill="none" stroke="#000" stroke-width=".5" d="M24.476 12.397c1.554-.085 3.15-.485 4.34-1.122"/>
    <text x="-16.558" y="22.879" font-family="sans-serif" font-size="40" font-weight="400" letter-spacing="0" transform="translate(5.218 3.442)" word-spacing="0" style="line-height:1.25"/>
    <text x="1.925" y="-12.924" font-family="sans-serif" font-size="40" font-weight="400" letter-spacing="0" transform="translate(5.218 3.442)" word-spacing="0" style="line-height:1.25"/>
    <path fill="#672178" stroke="#000" stroke-width=".189" d="M31.555 39.473l-.347.086c-.029.007-.071-.004-.086.022-.033.054.097.206.064.26-.015.025-.071-.004-.086.021-.016.026.014.058.021.087l.108.433c.007.029-.004.071.022.087.025.015.061-.037.087-.022.025.015-.004.071.021.087.026.015.061-.037.087-.022.025.016-.004.072.021.087.026.015.058-.014.087-.022l.087-.021c.028-.007.382-.146.281.022-.015.025-.071-.004-.087.021-.015.026.037.061.022.087-.022.036-.151.007-.173.043-.002.003.06.239.065.26.005.02.06.258.064.26.026.015.062-.037.087-.022.026.015-.004.071.022.087.036.022.137-.065.173-.043.025.015.014.057.021.086.03-.007.062-.037.087-.021.026.015-.004.071.022.086.054.033.206-.097.26-.064.025.015-.004.07.021.086.054.033.206-.097.26-.065.026.016.014.058.022.087.005.021.067.256.065.26-.016.025-.072-.004-.087.021-.015.026.014.058.021.087l.022.087.173.693c.007.029-.004.071.021.087.026.015.062-.037.087-.022.026.015-.004.071.022.087.025.015.06-.037.086-.022.026.015-.004.071.022.087.025.015.061-.037.087-.022.025.015-.004.071.021.087.026.015.061-.037.087-.022.025.015-.004.071.021.087.026.015.32-.102.347-.087.025.016.014.058.021.087l.022.087c.008.031.09.342.086.346-.015.026-.07-.004-.086.022-.003.004.078.314.086.346.007.03-.004.072.022.087.025.015.06-.037.086-.022.026.016-.003.072.022.087.051.03.122-.074.173-.043.026.015-.004.071.022.086.025.016.058-.014.087-.021l.433-.108c.029-.007.06-.037.086-.022.026.016-.004.072.022.087.051.03.122-.074.173-.043.026.015-.004.071.022.086.003.002.239-.06.26-.064.029-.008.071.003.086-.022.016-.026-.037-.061-.021-.087.03-.05.128-.004.173-.043.032-.027.033-.08.065-.108.023-.02.071.004.087-.022.015-.025-.037-.06-.022-.086.015-.026.061-.037.087-.022.025.015-.004.071.021.087.026.015.061-.037.087-.022.051.03-.008.143.043.173.026.016.061-.036.087-.021.025.015-.004.071.021.087.026.015.062-.037.087-.022.026.015-.004.071.022.087.05.03.122-.074.173-.044.025.016-.004.072.022.087.025.015.057-.014.086-.022l.087-.021c.032-.008.344-.082.346-.087-.057-.23-.021.037.065-.108.016-.025-.037-.06-.021-.086.134-.224.061.275.151-.13.007-.03-.037-.061-.021-.087.015-.025.071.004.087-.021.015-.026-.015-.058-.022-.087-.005-.021-.061-.258-.065-.26-.025-.015-.061.037-.087.022-.025-.016-.036-.062-.021-.087.03-.051.142.008.173-.043.015-.026-.037-.061-.021-.087.015-.025.07.004.086-.021.016-.026-.028-.058-.021-.087.009-.041.056-.067.065-.108.005-.026-.075-.302-.087-.347l-.13-.52c-.006-.029.005-.071-.02-.086-.037-.022-.138.065-.174.043-.026-.016.004-.071-.022-.087-.05-.03-.115.056-.173.043-.24-.053.008-.094-.195-.043-.029.007-.08.05-.087.021-.045-.18.113-.065.152-.13.015-.025-.037-.06-.021-.086.03-.051.142.008.173-.043.03-.051-.074-.122-.043-.173.015-.026.07.003.086-.022.03-.051-.074-.122-.043-.173.015-.026.071.004.087-.022.015-.025-.015-.058-.022-.087l-.021-.086-.13-.52c-.007-.029.004-.071-.022-.087-.025-.015-.06.037-.086.022-.051-.03.008-.143-.043-.173-.026-.016-.062.037-.087.021-.026-.015.004-.071-.022-.086-.05-.031-.122.073-.173.043-.025-.016.004-.072-.022-.087-.05-.03-.122.074-.173.043-.025-.015.004-.071-.021-.086-.026-.016-.342.106-.347.086-.007-.029.058-.014.087-.022l.086-.021c.231-.058-.021.036.065-.108.016-.026.072.004.087-.022.03-.05-.056-.115-.043-.173.009-.041.056-.067.065-.108.013-.059-.074-.123-.043-.174.015-.025.071.004.086-.021.033-.054-.097-.206-.064-.26.015-.026.07.004.086-.022a1.35 1.35 0 0 0-.065-.26c-.025-.015-.06.037-.086.022-.026-.015.004-.071-.022-.087-.025-.015-.06.037-.086.022-.026-.015.003-.071-.022-.087-.026-.015-.058.015-.087.022l-.433.108-.087.021c-.028.008-.079.05-.086.022-.007-.029.058-.014.086-.022l.087-.021c.231-.058-.022.036.065-.108.015-.026.071.003.087-.022.022-.037-.065-.137-.043-.173.015-.026.07.004.086-.022.016-.025-.014-.058-.021-.087l-.022-.086-.173-.693-.021-.087c-.007-.029.004-.071-.022-.087-.025-.015-.061.037-.087.022-.025-.015.004-.071-.021-.087-.026-.015-.061.037-.087.022-.057-.231.036.022-.108-.065-.051-.03.008-.143-.043-.173-.026-.016-.058.014-.087.021l-.086.022-.694.173-.693.172-.086.022c-.03.007-.072-.004-.087.022-.015.025.037.06.022.086-.016.026-.331.06-.347.087-.015.025.037.06.022.086-.033.054-.228.011-.26.065-.015.026.037.061.021.087-.032.054-.227.01-.26.065-.015.025.038.06.022.086-.03.051-.142-.008-.173.043-.015.026.037.062.021.087-.03.051-.128.005-.173.043-.032.028-.033.081-.065.108-.022.02-.071-.003-.086.022.057.231.021-.036-.066.108-.015.026.037.061.022.087-.03.05-.143-.008-.173.043-.022.037.065.137.043.173-.015.026-.071-.004-.087.022-.015.025.037.061.022.087-.015.025-.071-.004-.087.021-.015.026.015.058.022.087l.021.086.087.347z"/>
    <path fill="#c6e9af" stroke="#000" stroke-width=".189" d="M35.393 37.89c-.295.176-.57.39-.92.435-.316-.058-.709.034-.963-.176.046-.336-.412-.177-.608-.063-.251.17-.407.197-.469.49-.204.191-.15.625.188.469.291.023.213.457.096.577.122-.164-.263.013-.101.137-.155.326-.534.321-.823.414-.174.31-.44.53-.736.748-.402.064-.795.195-1.193.278-.16-.081.077-.384.043-.578-.032-.375-.297-.686-.439-1.025-.179-.32-.067-.677 0-1.01-.051-.222.135-.371.337-.408-.107.028.297-.073.401-.098.45.045.242-.36.246-.616.035-.299.172-.554.34-.8.11-.32.616-.423.866-.343.182.061.252.407.353.331.343.285.405-.22.639-.385.227-.324.283.227.52.246.24.165.594.098.762-.166.229-.141.39-.415.635-.464.343-.144.691-.09 1.034-.029.368-.11.47.235.62.455.046.273.41.48.54.75.03.338.337.534.393.866-.15.135-.376-.285-.59-.336-.324-.048-.614-.243-.937-.236-.358.06-.243.283-.234.537z"/>
    <path fill="none" stroke="#000" stroke-width=".378" d="M28.14 35.005c.019-.413.233-.797.33-1.19.068-.171.114-.664.313-.576.096.331.33.609.409.938.166.463.728.28.946-.032.29-.266.515-.604.817-.848.388-.077-.014.412-.142.517-.09.13-.598.437-.252.5.414-.101.823-.227 1.242-.312.299-.108.86-.334.586-.74-.093-.107-.283-.103-.065-.179.517-.26 1.08-.415 1.642-.54.322-.075-.208.278.133.285.401-.041.589-.493.98-.575.287-.125.675-.301.939-.291-.418.4-.458 1.033-.796 1.488-.24.27-.294.682-.04.96.045.073.09.148.117.231"/>
    <path fill="none" stroke="#000" stroke-width=".189" d="M32.606 36.469c.941-.069-.221-.437-.113-.616.015-.026.07.004.086-.022.03-.05-.074-.122-.043-.173.015-.026.071.004.087-.022.015-.025-.037-.06-.022-.086.015-.026.071.004.087-.022.015-.025-.037-.061-.022-.087.015-.025.071.004.087-.021.015-.026-.003-.11-.022-.087-.233.282-.43.594-.644.89"/>
    <path fill-opacity=".449" fill-rule="evenodd" d="M43.352 55.124C18.555 65.584-2.419 42.116 7.64 20.864c.189 18.2 14.228 36.08 35.712 34.26z"/>
</svg>
