<?xml version="1.0" encoding="UTF-8" standalone="no"?>
<!-- Created with Inkscape (http://www.inkscape.org/) -->

<svg
   xmlns:dc="http://purl.org/dc/elements/1.1/"
   xmlns:cc="http://creativecommons.org/ns#"
   xmlns:rdf="http://www.w3.org/1999/02/22-rdf-syntax-ns#"
   xmlns:svg="http://www.w3.org/2000/svg"
   xmlns="http://www.w3.org/2000/svg"
   xmlns:sodipodi="http://sodipodi.sourceforge.net/DTD/sodipodi-0.dtd"
   xmlns:inkscape="http://www.inkscape.org/namespaces/inkscape"
   width="100%"
   height="100%"
   viewBox="0 0 64.000001 64.000001"
   id="svg4311"
   version="1.1"
   inkscape:version="0.91 r13725"
   sodipodi:docname="attributeDogMorphDrink.svg">
  <defs
     id="defs4313">
    <inkscape:path-effect
       effect="powerstroke"
       id="path-effect4165"
       is_visible="true"
       offset_points="0.30634245,0.4093664"
       sort_points="true"
       interpolator_type="Linear"
       interpolator_beta="0.2"
       start_linecap_type="zerowidth"
       linejoin_type="round"
       miter_limit="4"
       end_linecap_type="zerowidth"
       cusp_linecap_type="round" />
    <inkscape:path-effect
       effect="powerstroke"
       id="path-effect4155"
       is_visible="true"
       offset_points="0.92799346,1.2886104"
       sort_points="true"
       interpolator_type="Linear"
       interpolator_beta="0.2"
       start_linecap_type="zerowidth"
       linejoin_type="round"
       miter_limit="4"
       end_linecap_type="zerowidth"
       cusp_linecap_type="round" />
    <inkscape:path-effect
       effect="powerstroke"
       id="path-effect4151"
       is_visible="true"
       offset_points="0,0.5"
       sort_points="true"
       interpolator_type="CubicBezierJohan"
       interpolator_beta="0.2"
       start_linecap_type="zerowidth"
       linejoin_type="round"
       miter_limit="4"
       end_linecap_type="zerowidth"
       cusp_linecap_type="round" />
    <inkscape:path-effect
       effect="powerstroke"
       id="path-effect4147"
       is_visible="true"
       offset_points="0,0.5"
       sort_points="true"
       interpolator_type="CubicBezierJohan"
       interpolator_beta="0.2"
       start_linecap_type="zerowidth"
       linejoin_type="round"
       miter_limit="4"
       end_linecap_type="zerowidth"
       cusp_linecap_type="round" />
    <inkscape:path-effect
       effect="powerstroke"
       id="path-effect4183"
       is_visible="true"
       offset_points="0.238227,0.51804536"
       sort_points="true"
       interpolator_type="Linear"
       interpolator_beta="0.2"
       start_linecap_type="zerowidth"
       linejoin_type="round"
       miter_limit="4"
       end_linecap_type="zerowidth"
       cusp_linecap_type="round" />
  </defs>
  <sodipodi:namedview
     id="base"
     pagecolor="#ffffff"
     bordercolor="#666666"
     borderopacity="1.0"
     inkscape:pageopacity="0.0"
     inkscape:pageshadow="2"
     inkscape:zoom="22.4"
     inkscape:cx="36.578426"
     inkscape:cy="28.734542"
     inkscape:document-units="px"
     inkscape:current-layer="layer5"
     showgrid="false"
     units="px"
     inkscape:window-width="2560"
     inkscape:window-height="1388"
     inkscape:window-x="-8"
     inkscape:window-y="-8"
     inkscape:window-maximized="1"
     showguides="false" />
  <metadata
     id="metadata4316">
    <rdf:RDF>
      <cc:Work
         rdf:about="">
        <dc:format>image/svg+xml</dc:format>
        <dc:type
           rdf:resource="http://purl.org/dc/dcmitype/StillImage" />
        <dc:title />
      </cc:Work>
    </rdf:RDF>
  </metadata>
  <g
     inkscape:groupmode="layer"
     id="layer5"
     inkscape:label="Stage5"
     style="display:inline;opacity:1">
    <ellipse
       style="display:inline;fill:#ff8080;fill-opacity:1;stroke:#000000;stroke-width:1.12779903;stroke-linecap:round;stroke-linejoin:round;stroke-miterlimit:4;stroke-dasharray:none;stroke-dashoffset:0;stroke-opacity:1"
       id="path4279"
       cx="31.819803"
       cy="31.548853"
       rx="27.0075"
       ry="26.624949" />
    <path
       style="display:inline;fill:#f9f9f9;fill-opacity:1;fill-rule:evenodd;stroke:none;stroke-width:1px;stroke-linecap:butt;stroke-linejoin:miter;stroke-opacity:1"
       d="M 33.310526,8.4466623 C 42.853897,9.7059588 51.837481,12.667445 56.143804,29.852737 42.960254,11.013531 41.261755,14.341438 33.310526,8.4466623 Z"
       id="path4281"
       inkscape:connector-curvature="0"
       sodipodi:nodetypes="ccc" />
    <flowRoot
       xml:space="preserve"
       id="flowRoot4156"
       style="fill:black;stroke:none;stroke-opacity:1;stroke-width:1px;stroke-linejoin:miter;stroke-linecap:butt;fill-opacity:1;font-family:sans-serif;font-style:normal;font-weight:normal;font-size:40px;line-height:125%;letter-spacing:0px;word-spacing:0px"><flowRegion
         id="flowRegion4158"><rect
           id="rect4160"
           width="42.678944"
           height="44.067905"
           x="6.5659914"
           y="11.21953" /></flowRegion><flowPara
         id="flowPara4162" /></flowRoot>    <flowRoot
       xml:space="preserve"
       id="flowRoot4168"
       style="fill:black;stroke:none;stroke-opacity:1;stroke-width:1px;stroke-linejoin:miter;stroke-linecap:butt;fill-opacity:1;font-family:sans-serif;font-style:normal;font-weight:normal;font-size:40px;line-height:125%;letter-spacing:0px;word-spacing:0px"><flowRegion
         id="flowRegion4170"><rect
           id="rect4172"
           width="63.765881"
           height="63.63961"
           x="0.25253814"
           y="-0.27095523" /></flowRegion><flowPara
         id="flowPara4174" /></flowRoot>   
    <path
       style="fill:#c66f36;fill-opacity:1;fill-rule:evenodd;stroke:#000000;stroke-width:0.38644525;stroke-linecap:butt;stroke-linejoin:miter;stroke-miterlimit:4;stroke-dasharray:none;stroke-opacity:1"
       d="m 30.933765,53.85548 c 0.176918,0.628938 0.763563,1.151808 1.256504,1.368256 0.771589,0.338803 8.980856,-1.462922 9.716822,-2.798236 0.283945,-0.515181 0.501684,-1.045217 0.428918,-1.714335 0,0 -3.964296,-15.089956 -5.946431,-22.634938 -0.831237,-3.164094 -3.03134,-2.940781 -3.442614,-3.924665 -2.437573,-5.831373 -2.764752,-8.384545 -4.147128,-12.576818 0,0 0.09292,-0.658297 -0.138894,-1.256127 l -4.684251,1.338773 c 0.100435,0.736967 0.502513,1.254609 0.502513,1.254609 0.674064,4.324449 1.227305,6.447686 2.022191,12.973347 0.192716,1.582119 -1.876874,2.044159 -1.039453,5.48529 z"
       id="path4185-2-3"
       inkscape:connector-curvature="0"
       sodipodi:nodetypes="cssccsccccssc" />
    <path
       sodipodi:nodetypes="ccccccc"
       inkscape:connector-curvature="0"
       id="path4202-9"
       d="m 29.98467,15.53109 c -0.242627,-0.85598 -0.78288,-2.737358 -1.184834,-3.956346 0,0 0.09292,-0.658297 -0.138894,-1.256127 l -4.684251,1.338773 c 0.100435,0.736967 0.502513,1.254609 0.502513,1.254609 0.152785,0.980186 0.299362,1.847284 0.443953,2.678192 1.729312,0.268365 3.433383,0.163736 5.061513,-0.0591 z"
       style="fill:#d69469;fill-opacity:1;fill-rule:evenodd;stroke:#000000;stroke-width:0.38644525;stroke-linecap:butt;stroke-linejoin:miter;stroke-miterlimit:4;stroke-dasharray:none;stroke-opacity:1" />
    <path
       style="fill:#c8beb7;fill-rule:evenodd;stroke:#000000;stroke-width:0.38644525;stroke-linecap:butt;stroke-linejoin:miter;stroke-miterlimit:4;stroke-dasharray:none;stroke-opacity:1"
       d="m 23.617682,10.825254 c -0.355024,0.337834 -0.225597,1.242415 -0.225597,1.242415 1.889697,-0.04253 5.361169,-0.977432 5.93364,-1.498704 0,0 -0.257744,-0.8258143 -0.698074,-0.9683873 -0.590149,-0.1910819 -4.529285,0.7672663 -5.009969,1.2246763 z"
       id="path4198-7"
       inkscape:connector-curvature="0"
       sodipodi:nodetypes="sccss" />
    <path
       sodipodi:nodetypes="ccccc"
       inkscape:connector-curvature="0"
       id="path4206-6"
       d="m 40.072061,42.212957 c -0.542125,-2.06359 -2.205255,-8.218931 -2.784964,-10.425583 -3.292387,1.186503 -7.292451,2.434345 -10.868926,3.287449 l 2.466976,10.362475 c 4.937167,-1.030035 8.551685,-2.281287 11.186914,-3.224339 z"
       style="fill:#e9c6af;fill-opacity:1;fill-rule:evenodd;stroke:#000000;stroke-width:0.38644525;stroke-linecap:butt;stroke-linejoin:miter;stroke-miterlimit:4;stroke-dasharray:none;stroke-opacity:1" />
    <path
       style="fill:none;fill-rule:evenodd;stroke:#000000;stroke-width:0.38644525;stroke-linecap:butt;stroke-linejoin:round;stroke-miterlimit:4;stroke-dasharray:none;stroke-opacity:1"
       d="m 29.273251,36.37786 -0.477106,1.448858 1.10772,0.467906 1.162211,-1.93213 0.201391,1.94557 1.01859,-2.219855 0.03631,1.431894 1.162213,-1.932132 0.179931,1.719616 0.876612,-1.615603 0.250924,1.41749 1.175416,-1.618163 c 0,0 -0.250935,0.856447 -0.05283,1.018071"
       id="path4173-3"
       inkscape:connector-curvature="0" />
    <path
       style="fill:none;fill-rule:evenodd;stroke:#000000;stroke-width:0.38644525;stroke-linecap:butt;stroke-linejoin:round;stroke-miterlimit:4;stroke-dasharray:none;stroke-opacity:1"
       d="m 30.537188,39.821144 -0.693798,1.940411 1.33602,1.121257 0.789366,-1.720917 0.548556,1.187775 0.662262,-1.688298 0.859144,0.999619 0.457753,-1.364684 1.040707,-1.107587 -0.792228,2.399483 2.07663,-3.488268 -0.473991,2.805854 1.209857,-1.476355 0.495037,0.632131"
       id="path4175-7"
       inkscape:connector-curvature="0" />
    <path
       style="display:inline;fill:#000000;fill-opacity:0.44859811;fill-rule:evenodd;stroke:none;stroke-width:1px;stroke-linecap:butt;stroke-linejoin:miter;stroke-opacity:1"
       d="M 43.352343,55.124348 C 18.554601,65.583105 -2.4191261,42.115746 7.6398162,20.86384 7.8289942,39.063247 21.867849,56.944615 43.352343,55.124348 Z"
       id="path4283"
       inkscape:connector-curvature="0"
       sodipodi:nodetypes="ccc" />
    <path
       style="fill:#f4e3d7;fill-rule:evenodd;stroke:none;stroke-width:1px;stroke-linecap:butt;stroke-linejoin:miter;stroke-opacity:1"
       d="m 32.1875,25.473216 c 0.49795,0.180459 0.935369,0.425871 1.302591,0.75641 0.28334,0.09471 0.568103,0.234628 0.847559,0.434962 0.726537,0.520833 1.413838,1.4491 1.912351,3.005056 -0.302962,-1.585219 -0.822659,-2.686497 -1.517546,-3.443706 -0.270719,-0.294999 -0.567478,-0.537083 -0.886062,-0.733462 -0.586571,-0.132411 -1.147961,-0.112128 -1.658893,-0.01926 z"
       id="path4163"
       inkscape:path-effect="#path-effect4165"
       inkscape:original-d="m 32.1875,25.473216 c 1.643761,0.138305 3.262212,1.055011 4.062501,4.196428"
       inkscape:connector-curvature="0"
       sodipodi:nodetypes="cc" />
  </g>
</svg>
