<svg xmlns="http://www.w3.org/2000/svg" viewBox="0 0 64 64">
    <ellipse cx="31.82" cy="31.549" fill="#ff8080" stroke="#000" stroke-linecap="round" stroke-linejoin="round" stroke-width="1.128" rx="27.008" ry="26.625"/>
    <path fill="#f9f9f9" fill-rule="evenodd" d="M33.31 8.447c9.544 1.259 18.527 4.22 22.834 21.406C42.96 11.013 41.262 14.34 33.31 8.447z"/>
    <path fill-opacity=".449" fill-rule="evenodd" d="M43.352 55.124C18.555 65.584-2.419 42.116 7.64 20.864c.189 18.2 14.228 36.08 35.712 34.26z"/>
    <path fill="#f6d5ff" fill-rule="evenodd" stroke="#000" stroke-linejoin="round" stroke-width=".49" d="M24.613 49.517l4.89 2.068 16.678-5.801-7.388-31.19c-8.655.913-12.195 2.432-21.63 3.748z"/>
    <g fill-rule="evenodd">
        <path fill="#e85050" stroke="#000" stroke-width=".216" d="M113.867 14.293c-.221.696-.772 1.388-1.657.946-3.935-1.967-5.635-4.623-1.718-5.861 3.22-4.12 5.04.732 4.95 3.759-.02.71-.615 1.291-1.575 1.156z" transform="matrix(.70757 .60058 -.65375 .68724 -40.58 -39.775)"/>
        <path fill="#c87137" stroke="#000" stroke-width=".216" d="M110.344 9.598c-.158-.373-.524-.393-.78-.585-.23-.174-.002-.358.285-.304.45.084.645.442.825.774-.095.146-.198.233-.33.115z" transform="matrix(.70757 .60058 -.65375 .68724 -40.58 -39.775)"/>
        <path fill="#fff" d="M33.34 33.56a.935.935 0 0 1-.001.527c.227.212.37.56.365.909.213-.287.334-.733.238-1.182a1.4 1.4 0 0 0-.602-.254z"/>
    </g>
    <g transform="rotate(18.709 91.98 -208.562) scale(1.21)">
        <ellipse cx="98.398" cy="-19.264" fill="#ab37c8" stroke="#1a1a1a" stroke-linecap="round" stroke-linejoin="round" stroke-width=".25" rx=".863" ry="1.037" transform="rotate(29.154)"/>
        <path fill="#450" fill-rule="evenodd" stroke="#000" stroke-width=".1" d="M95.096 31.786c1.022-.834 1.532-1.607 1.334-2.836-.147.893-.402 1.172-.585 1.205-.1.018-.127-.086-.22-.09.696-.344.588-1.394.82-2.028h.159c.097.41.4 1.223.75 1.634l-.269.22-.465-.852c-.012.52.206 1.005.465 1.484l-.252.063-.221-.568.063 2.21-.269.236.064-2.06c-.182.837-.374 1.581-.632 2.44l-.22-.08c.17-.731.409-1.115.56-1.847-.25.474-.519.627-.924 1.042z"/>
        <ellipse cx="100.779" cy="9.731" fill="#ab37c8" stroke="#1a1a1a" stroke-linecap="round" stroke-linejoin="round" stroke-width=".25" rx=".863" ry="1.037" transform="rotate(13.966)"/>
        <ellipse cx="98.566" cy="-17.539" fill="#ab37c8" stroke="#1a1a1a" stroke-linecap="round" stroke-linejoin="round" stroke-width=".25" rx=".863" ry="1.037" transform="rotate(29.154)"/>
        <ellipse cx="78.47" cy="65.802" fill="#ab37c8" stroke="#1a1a1a" stroke-linecap="round" stroke-linejoin="round" stroke-width=".25" rx=".863" ry="1.037" transform="rotate(-21.015)"/>
        <ellipse cx="93.582" cy="41.275" fill="#ab37c8" stroke="#1a1a1a" stroke-linecap="round" stroke-linejoin="round" stroke-width=".25" rx=".863" ry="1.037" transform="rotate(-5.827)"/>
        <ellipse cx="80.219" cy="63.625" fill="#ab37c8" stroke="#1a1a1a" stroke-linecap="round" stroke-linejoin="round" stroke-width=".25" rx=".863" ry="1.037" transform="rotate(-21.015)"/>
    </g>
    <path fill="none" stroke="#1a1a1a" stroke-linecap="round" stroke-linejoin="round" stroke-width=".512" d="M34.953 25.489l-1.137.318.506 1.628-.246-.965.812-.25.526-.746.424 1.513.12-1.757 1.346 1.3-1.243-.41.875-.29s-.006-.896.046-.795c.053.1.942 1.436.942 1.436l-.21-1.71.892-.32-.526 1.71s1.127-.177 1.103-.262c-.024-.086-.636-1.569-.636-1.569l.609-.102.603 1.716-.303-1.869.725.05-.5.577.67.64"/>
    <ellipse cx="23.003" cy="30.57" fill="#e580ff" stroke="#000" stroke-linecap="round" stroke-linejoin="round" stroke-width=".245" rx="5.847" ry="3.434" transform="rotate(-18.84)"/>
    <path fill="#1a1a1a" fill-rule="evenodd" stroke="#000" stroke-width=".107" d="M32.684 23.903c-.767-.576-1.435-1.703-3.187-.605-.24-.592-.585-.972-1.66-1.131-.194-.476-.31-.596-1.03-.722 1.223-.434 1.772-.52 3.16-.393.28.506 1.843 1.866 1.397.255-.577-.012-.427-.57-.269-1.01.229.162.436.275.495.593l.325-.086c-.101-.23-.056-.473.102-.784.26.19.767.568.335 1.014.42 1.66 1.162-.338 1.047-.954.46-.473 1.607-1.28 2.679-1.376-.425.435-.43.902-.324 1.155-.5.279-.923.862-.774 1.854-1.93.056-2.01 1.055-2.296 2.19z"/>
    <path fill="#f6d5ff" fill-rule="evenodd" stroke="#000" stroke-linejoin="round" stroke-width=".49" d="M17.158 18.184l17.1-5.107c1.492.51 5.09 1.245 4.474 1.531L21.97 19.666l-.461 4.821-.859-.284z"/>
    <path fill="none" stroke="#000" stroke-width=".25" d="M21.119 24.454c-.036-.15-1.166-5.49-1.166-5.49l16.782-5.116"/>
    <path fill="none" stroke="#000" stroke-width=".245" d="M22.052 19.742l7.54 31.821"/>
    <ellipse cx="29.514" cy="21.496" fill="#999" stroke="#000" stroke-linecap="round" stroke-linejoin="round" stroke-width=".245" rx=".944" ry=".356" transform="rotate(-13.548)"/>
    <g fill-rule="evenodd">
        <g stroke="#000">
            <path fill="#2d5016" stroke-width=".25" d="M93.976 31.454c1.373 7.526 14.702 2.044 9.596-3.946z" transform="matrix(.71537 -.4404 .43294 .70326 -45.77 57.024)"/>
            <path fill="#fac" stroke-width=".203" d="M94.884 31.067c1.112 6.096 11.909 1.655 7.773-3.196z" transform="matrix(.71537 -.4404 .43294 .70326 -45.77 57.024)"/>
        </g>
        <path d="M36.79 36.19c.063.116.084.23.067.333a.476.476 0 0 1 .337.004.746.746 0 0 0 0-.418.825.825 0 0 0-.404.081zM38.06 35.805c.078.085.13.188.175.287.16.006.323.048.494.064-.091-.126-.186-.287-.299-.422-.132.006-.26.024-.37.071zM39.141 34.74a.619.619 0 0 1 .21.343.455.455 0 0 1 .362.016.726.726 0 0 0-.083-.462.928.928 0 0 0-.489.103zM39.708 33.728c.095.076.15.167.18.259a.682.682 0 0 1 .423.03.997.997 0 0 0-.262-.45.86.86 0 0 0-.341.16zM39.535 32.333c.113.102.193.212.254.327.118-.034.247-.05.387-.052a1.936 1.936 0 0 0-.19-.382c-.161.015-.309.05-.45.107z"/>
    </g>
    <g stroke="#000" stroke-linecap="round" stroke-linejoin="round" transform="rotate(-13.548 50.683 356.831) scale(.9801)">
        <ellipse cx="109.399" cy="46.781" fill="#f9914b" stroke-width=".25" rx="5.37" ry="5.165"/>
        <ellipse cx="110.92" cy="42.69" fill="#4a0" stroke-width=".169" rx=".72" ry=".452"/>
    </g>
    <path fill="#808080" fill-rule="evenodd" stroke="#000" stroke-width=".49" d="M29.98 47.62l1.077.376 5.217-28.403c.166-.908 1.289-.93 1.048.256l-1.805 9.246.951.248 1.783-9.336c.553-2.892-2.555-3.178-3.025-.799z"/>
    <path fill="none" stroke="#000" stroke-width=".245" d="M35.293 19.096l.902.38M35.832 18.156l.619.841M37.396 19.793l.858.244M37.4 19.297l.901-.138M36.693 17.667l.14 1.283M37.951 18.22l-.774.805"/>
    <path fill="#dbe3e2" fill-opacity=".251" fill-rule="evenodd" stroke="#000" stroke-width=".245" d="M35.109 16.554l1.37-.363s.935.92.938.92l1.167-.058.546 1.205-5.956 31.328-1.066.267-1.169-.994-1.042-.004-.755-.748z"/>
    <path fill="none" stroke="#000" stroke-width=".245" d="M17.162 18.188c.116.017 4.8 1.431 4.8 1.431"/>
    <path fill="#999" fill-rule="evenodd" stroke="#000" stroke-width=".245" d="M25.282 48.333l-1.908-8.447 2.155.754 1.878 8.586z"/>
    <g fill-rule="evenodd">
        <path fill="#c9ffa4" stroke="#000" stroke-width=".27346" d="M42.17 44.508c-.34.866-1.086 1.684-2.14.991-4.685-3.075-6.539-6.732-1.573-7.79 4.376-4.865 6.17 1.637 5.773 5.525-.093.913-.884 1.58-2.06 1.274z"/>
        <path fill="#c87137" stroke="#000" stroke-width=".27346" d="M38.254 37.973c-.162-.503-.612-.578-.911-.862-.269-.254.03-.461.381-.352.55.171.757.659.949 1.111-.132.175-.268.274-.42.103z"/>
        <path fill="#fff" d="M40.836 36.868c.21.169.345.381.424.591.422.07.872.363 1.165.764-.019-.49-.263-1.087-.733-1.52a1.782 1.782 0 0 0-.856.165z"/>
    </g>
    <path fill="none" stroke="#1a1a1a" stroke-linecap="round" stroke-linejoin="round" stroke-width=".474" d="M27.09 27.347l-1.32.445.568 1.887-.37-1.226 1.01-.32.637-.938.58 1.936-.473-1.961 1.105-.241-.52 1.112 1.356.331-.345-1.587.716 1.725.904-.294-.51-1.648.686-.115.485 1.857.319-2.101.698 1.805-.095-1.95-1.1.265"/>
    <g fill-rule="evenodd" stroke="#000" stroke-width=".25">
        <path fill="#ee3b3b" d="M100.352 47.932c-.76-.043-2.659-2.822-2.683-4.987-.017-1.525 1.18-1.107 2.557-.632.597-.504 2.724-.771 2.715.474-.015 2.056-1.546 5.205-2.589 5.145z" transform="matrix(.64328 .13713 -.1271 .59628 -22.544 5.913)"/>
        <path fill="#71c837" stroke-linecap="round" stroke-linejoin="round" d="M99.974 42.187l-1.137.095 1.263.315.442.41.19-.567.82-.569-1.073.19-.632-.568z" transform="matrix(.64328 .13713 -.1271 .59628 -22.544 5.913)"/>
    </g>
    <g fill-rule="evenodd" stroke="#000" stroke-width=".25">
        <path fill="#ee3b3b" d="M100.352 47.932c-.76-.043-2.659-2.822-2.683-4.987-.017-1.525 1.18-1.107 2.557-.632.597-.504 2.724-.771 2.715.474-.015 2.056-1.546 5.205-2.589 5.145z" transform="matrix(.1234 -.64605 .59885 .1144 .37 105.392)"/>
        <path fill="#71c837" stroke-linecap="round" stroke-linejoin="round" d="M99.974 42.187l-1.137.095 1.263.315.442.41.19-.567.82-.569-1.073.19-.632-.568z" transform="matrix(.1234 -.64605 .59885 .1144 .37 105.392)"/>
    </g>
</svg>
