<svg xmlns="http://www.w3.org/2000/svg" xmlns:xlink="http://www.w3.org/1999/xlink" viewBox="0 0 64 64">
    <defs>
        <linearGradient id="linearGradient4345">
            <stop offset="0" stop-color="#fd7900"/>
            <stop offset="1" stop-color="#fe8d00"/>
        </linearGradient>
        <linearGradient id="linearGradient4351" x1="-37.411" x2="-29.286" y1="57.929" y2="29.893" gradientUnits="userSpaceOnUse" xlink:href="#linearGradient4345"/>
    </defs>
    <ellipse cx="31.82" cy="31.549" fill="#ff8080" stroke="#000" stroke-linecap="round" stroke-linejoin="round" stroke-width="1.128" rx="27.008" ry="26.625"/>
    <path fill="url(#linearGradient4351)" fill-rule="evenodd" d="M-39.87 55.54c-.735.186-.301 2.448-.22 3.725.21 3.315 13.039 2.74 13.51.442.261-1.27.627-4.007-.126-4.23l.126-25.443c1.331-2.144-1.566-3.925-3.195-6.875-2.213-.051-4.815.357-6.807-.145-1.607 3.32-4.953 4.68-3.287 6.862z" transform="rotate(-13.742 3.072 -223.25) scale(.9)"/>
    <path fill="none" stroke="#000" stroke-width=".45" d="M30.139 51.419c-.603.32.26 2.204.603 3.303.892 2.853 11.985-.393 11.906-2.502-.043-1.166-.308-3.637-1.015-3.671L36.28 26.181c.942-2.882-4.542-3.49-5.846-8.002-2.451-1.732-3.549-2.016-4.348 1.24.982 5.078-3.863 7.603-1.434 9.563z"/>
    <path fill="#cda607" fill-rule="evenodd" stroke="#000" stroke-width=".45" d="M25.921 19.443c-.453-1.837-.84-3.67-1.331-5.445.29-.377.198-.51-.173-.62l-.493-1.678c-.361-.536-.5-1.065-.414-1.648.051-.35 4.381-1.493 4.614-1.137.285.437.532.972.386 1.58l.39 1.767c-.275.315-.236.513.158.644l1.454 5.27c-1.732.683-3.252 1.004-4.591 1.267z"/>
    <path fill="none" stroke="#000" stroke-width=".225" d="M24.78 13.596c1.249-.414 2.532-.759 3.89-.952M23.97 11.6c1.318-.582 2.72-1.057 4.511-1.045"/>
    <path fill-rule="evenodd" d="M30.093 51.471c-.013.077-.026.155-.037.232.564.101 1.448.136 2.483.037a14.06 14.06 0 0 0 3.506-.794c-1.254.38-2.481.539-3.52.56-1.028.02-1.868-.095-2.356-.257l-.076.222zM41.578 48.456l-.156-.172c-1.435 1.402-3.415 2.102-5.377 2.662 1.962-.4 4.073-.962 5.689-2.318l-.156-.172z"/>
    <g stroke="#000">
        <path fill="#e9ddaf" fill-rule="evenodd" stroke-width=".25" d="M-39.712 33.317c3.87.233 8.247.278 12.88-.127l-.063 21.53c-4.23.785-8.46 1.111-12.69.062z" transform="matrix(.80692 -.19733 .1988 .81296 51.361 -2.908)"/>
        <path fill="none" stroke-linecap="round" stroke-linejoin="round" stroke-width=".529" d="M-38.667 36.987l1.105-.843-1.14-.375 1.176-.937-1.32-.25.144 2.686 1.71-2.498-.641 2.217 1.283-1.999.214 1.874-.641-1.062 2.067-.812-1.319 1.125 1.07.687.606-1.874-.036 1.718.428-1.5.713 1.343" transform="matrix(.80692 -.19733 .1988 .81296 51.361 -2.908)"/>
        <path fill="none" stroke-linecap="round" stroke-linejoin="round" stroke-width=".437" d="M-32.263 36.636l.04-1.975 1.232.729-1.074.326.955 1.093.637-1.976.576 1.765-.875-.71.537-.019.338-.825 1.333.02h-.756l-.08 1.61 1.552-1.668-.855.364.716.748-.577.748" transform="matrix(.80692 -.19733 .1988 .81296 51.361 -2.908)"/>
        <path fill="none" stroke-linecap="round" stroke-linejoin="round" stroke-width=".5" d="M-34.987 52.82c-.086-.046-1.718-1.46-1.718-1.46l1.482-1.02-1.696-.424.214 2.842 2.277-2.434s-.322 2.56-.237 2.56c.086 0 1.31-.048 1.31-.048l.237-2.48.214 2.48.387-2.308.816 1.46.923-1.46.666 2.199" transform="matrix(.80692 -.19733 .1988 .81296 51.361 -2.908)"/>
        <g stroke-width=".5">
            <path fill="#28170b" fill-rule="evenodd" d="M-9.238 38.24c-.283-.053-.582.2-.897.76-1.358-.185-2.076.03-.758 1.518-2.453 4.243-5.178 4.795-3.81 8.17.464 1.144 1.527 1.395 2.828 2.677.581.573 1.03-.704 0-1.472.811.372 1.718.494 2.678.134.398-.149-.665-.944-1.473-.67 1.516-1.146 1.596-2.49 1.705-4.058.011-.16 1.002.323 1.016.158.015-.188-.946-1.026-.924-1.22.17-1.474.614-3.125 2.342-4.973.407-.436-1.285-.421-1.907.049-.25-.66-.518-1.02-.8-1.073zm.068 1.516a.552.513 0 0 1 .553.514.552.513 0 0 1-.553.513.552.513 0 0 1-.553-.513.552.513 0 0 1 .553-.514z" transform="matrix(.60881 -.14888 .12752 .52147 34.836 13.879)"/>
            <path fill="none" d="M-14.79 48.69s-2.68.052-3.014-.947c-.48-1.434 2.659-2.181 2.636-3.694-.022-1.434-2.604-3.425-2.604-3.425" transform="matrix(.60881 -.14888 .12752 .52147 34.836 13.879)"/>
        </g>
    </g>
    <path fill="none" stroke="#000" stroke-width=".1935" d="M25.12 11.598l.363 1.307M25.719 11.425l.363 1.307M26.324 11.228l.363 1.307M24.523 11.803l.363 1.307M27.384 10.998l.363 1.307M27.921 10.913l.364 1.307M26.88 11.077l.363 1.307"/>
    <path fill-rule="evenodd" d="M24.54 28.848c.045.057.09.114.137.17 1.048.212 2.247.33 5.315-.529-3.095.774-4.273.558-5.251.272l-.2.087zM36.268 26.062a.909.909 0 0 1-.195.057c-.18.364-.667.687-1.397.99-.795.33-1.827.615-2.926.918 1.108-.25 2.16-.486 2.982-.77.73-.25 1.328-.554 1.604-.986a.91.91 0 0 0-.068-.209z"/>
    <path fill="#fff" fill-rule="evenodd" d="M31.586 21.817c.163.313.346.608.542.89.853.752 1.783 1.268 2.476 1.695.453.28.81.525 1.01.783.195.25.254.532.057.897.231-.342.234-.651.044-.966-.184-.308-.54-.602-.974-.918-.68-.495-1.537-1.04-2.316-1.809a6.773 6.773 0 0 1-.839-.572z"/>
    <path fill="#f9f9f9" fill-rule="evenodd" d="M33.31 8.447c9.544 1.259 18.527 4.22 22.834 21.406C42.96 11.013 41.262 14.34 33.31 8.447z"/>
    <path fill-opacity=".449" fill-rule="evenodd" d="M43.352 55.124C18.555 65.584-2.419 42.116 7.64 20.864c.189 18.2 14.228 36.08 35.712 34.26z"/>
</svg>
