<svg xmlns="http://www.w3.org/2000/svg" viewBox="0 0 64 64">
    <ellipse cx="31.82" cy="31.549" fill="#ff8080" stroke="#000" stroke-linecap="round" stroke-linejoin="round" stroke-width="1.128" rx="27.008" ry="26.625"/>
    <path fill="#f9f9f9" fill-rule="evenodd" d="M33.31 8.447c9.544 1.259 18.527 4.22 22.834 21.406C42.96 11.013 41.262 14.34 33.31 8.447z"/>
    <path fill-opacity=".449" fill-rule="evenodd" d="M43.352 55.124C18.555 65.584-2.419 42.116 7.64 20.864c.189 18.2 14.228 36.08 35.712 34.26z"/>
    <g transform="translate(-78.034 -5.05)">
        <path fill="#dcb882" fill-rule="evenodd" stroke="#000" stroke-width=".5" d="M93.198 42.12c1.07 1.473 2.097 2.623 3.214 4.42 2.33 3.748 16.462 8.527 27.188-.581 1.377-1.17 1.504-3.185 2.59-4.464z"/>
        <path fill="#e2c394" fill-rule="evenodd" stroke="#000" stroke-width=".5" d="M90.569 36.443c-.024.868-.05 3.077.631 4.008 7.979 10.893 33.468 6.725 37.148-1.042.53-1.119.833-2.65.465-3.888z"/>
        <ellipse cx="108.892" cy="38.278" fill="#e7d1ae" stroke="#000" stroke-linecap="round" stroke-linejoin="round" stroke-width=".469" rx="19.209" ry="9.833" transform="rotate(-1.293)"/>
        <ellipse cx="108.694" cy="38.333" fill="#784421" stroke="#000" stroke-linecap="round" stroke-linejoin="round" stroke-width=".391" rx="16.374" ry="8.042" transform="rotate(-1.241) skewX(.107)"/>
        <ellipse cx="104.069" cy="40.513" fill="#a40" stroke="#000" stroke-linecap="round" stroke-linejoin="round" stroke-width=".5" rx="1.719" ry="1.473"/>
        <ellipse cx="114.961" cy="41.897" fill="#a40" stroke="#000" stroke-linecap="round" stroke-linejoin="round" stroke-width=".5" rx="1.317" ry="1.161"/>
        <ellipse cx="121.725" cy="38.414" fill="#a40" stroke="#000" stroke-linecap="round" stroke-linejoin="round" stroke-width=".5" rx="1.607" ry="1.205"/>
        <ellipse cx="122.863" cy="34.352" fill="#a40" stroke="#000" stroke-linecap="round" stroke-linejoin="round" stroke-width=".5" rx="1.451" ry="1.25"/>
        <ellipse cx="112.551" cy="29.53" fill="#a40" stroke="#000" stroke-linecap="round" stroke-linejoin="round" stroke-width=".5" rx="1.317" ry="1.25"/>
        <ellipse cx="98.957" cy="38.459" fill="#a40" stroke="#000" stroke-linecap="round" stroke-linejoin="round" stroke-width=".607" rx="1.643" ry="1.197"/>
        <circle cx="107.819" cy="29.865" r=".96" fill="#a40" stroke="#000" stroke-linecap="round" stroke-linejoin="round" stroke-width=".5"/>
        <ellipse cx="96.524" cy="34.397" fill="#a40" stroke="#000" stroke-linecap="round" stroke-linejoin="round" stroke-width=".5" rx="1.049" ry=".848"/>
        <path fill="#e2c394" fill-rule="evenodd" stroke="#000" stroke-width=".5" d="M108.823 43.548c-3.843-2.89-7.462-5.767-9.687-8.616-2.777-3.554 3.941-8.572 10.58-3.571 6.311-4.84 14.55.204 10.848 4.107-2.798 2.95-6.845 5.89-11.74 8.08z"/>
        <ellipse cx="108.613" cy="38.262" fill="#fff" fill-opacity=".502" rx="15.764" ry="7.582" transform="rotate(-1.215) skewX(.162)"/>
    </g>
</svg>
