<svg xmlns="http://www.w3.org/2000/svg" viewBox="0 0 64 64">
    <ellipse cx="31.82" cy="31.549" fill="#ff8080" stroke="#000" stroke-linecap="round" stroke-linejoin="round" stroke-width="1.128" rx="27.008" ry="26.625"/>
    <path fill="#f9f9f9" fill-rule="evenodd" d="M33.31 8.447c9.544 1.259 18.527 4.22 22.834 21.406C42.96 11.013 41.262 14.34 33.31 8.447z"/>
    <g stroke="#000">
        <path fill="#d38d5f" fill-rule="evenodd" stroke-width=".5" d="M31.704 55.866c2.152.638 9.517-.883 10.625-2.596.676-1.045.176-3.335.176-3.335S39.02 34.013 37.804 30.96c-2.337-5.864-4.507-7.275-8.274-15.499l-4.205 1.152c.412 8.898-.629 14.245-.023 17.503.718 3.854 4.689 18.774 4.689 18.774s.58 2.64 1.713 2.976z"/>
        <path fill="#e9ddaf" fill-rule="evenodd" stroke-width=".5" d="M30.418 27.417L25.39 23.63c.268-3.872-.492-7.335-1.011-10.894l-.544-.482-.132-1.952 4.271-1.137.936 1.914-.245.582c1.298 3.426 2.245 6.914 4.192 10.234z"/>
        <path fill="#f4eed7" fill-rule="evenodd" stroke-width=".5" d="M23.217 9.369l.174 1.337c1.746.084 3.669-.6 5.17-1.228l-.613-1.342c-.432-.383-4.42.693-4.731 1.233zM41.462 45.31c-.713-3.137-1.544-6.663-2.377-9.866-2.603 1.05-9.193 2.926-12.745 3.243a665.712 665.712 0 0 0 2.374 9.348c3.237.447 9.691-1.28 12.748-2.724z"/>
        <path fill="none" stroke-linejoin="round" stroke-width=".63" d="M29.43 38.93l-.185 2.802.907-1.883 1.284.764-.626 2.707 1.231-3.575.634.69 1.054-1.328.352 1.262.713-1.49.99 1.137 1.428-1.325-1.103.127 1.078.958"/>
        <path fill="none" stroke-linejoin="round" stroke-width=".573" d="M31.461 43.68l-.713 1.534 1.493 1.153 1.189-1.488.015 1.218 1.455-1.41-.275 1.25.562-2.555.573 2.044 1.07-1.038-.012 1.122 1.066-1.245"/>
        <path fill="none" stroke-width=".5" d="M24.408 12.76c1.553-.086 3.15-.486 4.34-1.123"/>
    </g>
    <path fill-opacity=".449" fill-rule="evenodd" d="M43.352 55.124C18.555 65.584-2.419 42.116 7.64 20.864c.189 18.2 14.228 36.08 35.712 34.26z"/>
</svg>
