<?xml version="1.0" encoding="UTF-8" standalone="no"?>
<!-- Created with Inkscape (http://www.inkscape.org/) -->

<svg
   xmlns:dc="http://purl.org/dc/elements/1.1/"
   xmlns:cc="http://creativecommons.org/ns#"
   xmlns:rdf="http://www.w3.org/1999/02/22-rdf-syntax-ns#"
   xmlns:svg="http://www.w3.org/2000/svg"
   xmlns="http://www.w3.org/2000/svg"
   xmlns:sodipodi="http://sodipodi.sourceforge.net/DTD/sodipodi-0.dtd"
   xmlns:inkscape="http://www.inkscape.org/namespaces/inkscape"
   width="100%"
   height="100%"
   viewBox="0 0 64.000001 64.000001"
   id="svg4311"
   version="1.1"
   inkscape:version="0.91 r13725"
   sodipodi:docname="bimboLolipop.svg">
  <defs
     id="defs4313">
    <inkscape:path-effect
       effect="powerstroke"
       id="path-effect4198"
       is_visible="true"
       offset_points="0.89332667,0.14772899"
       sort_points="true"
       interpolator_type="Linear"
       interpolator_beta="0.2"
       start_linecap_type="zerowidth"
       linejoin_type="round"
       miter_limit="4"
       end_linecap_type="zerowidth"
       cusp_linecap_type="round" />
    <inkscape:path-effect
       effect="powerstroke"
       id="path-effect4194"
       is_visible="true"
       offset_points="0.51446185,0.40838453"
       sort_points="true"
       interpolator_type="Linear"
       interpolator_beta="0.2"
       start_linecap_type="zerowidth"
       linejoin_type="round"
       miter_limit="4"
       end_linecap_type="zerowidth"
       cusp_linecap_type="round" />
    <inkscape:path-effect
       effect="powerstroke"
       id="path-effect4155"
       is_visible="true"
       offset_points="0.92799346,1.2886104"
       sort_points="true"
       interpolator_type="Linear"
       interpolator_beta="0.2"
       start_linecap_type="zerowidth"
       linejoin_type="round"
       miter_limit="4"
       end_linecap_type="zerowidth"
       cusp_linecap_type="round" />
    <inkscape:path-effect
       effect="powerstroke"
       id="path-effect4151"
       is_visible="true"
       offset_points="0,0.5"
       sort_points="true"
       interpolator_type="CubicBezierJohan"
       interpolator_beta="0.2"
       start_linecap_type="zerowidth"
       linejoin_type="round"
       miter_limit="4"
       end_linecap_type="zerowidth"
       cusp_linecap_type="round" />
    <inkscape:path-effect
       effect="powerstroke"
       id="path-effect4147"
       is_visible="true"
       offset_points="0,0.5"
       sort_points="true"
       interpolator_type="CubicBezierJohan"
       interpolator_beta="0.2"
       start_linecap_type="zerowidth"
       linejoin_type="round"
       miter_limit="4"
       end_linecap_type="zerowidth"
       cusp_linecap_type="round" />
    <inkscape:path-effect
       effect="powerstroke"
       id="path-effect4183"
       is_visible="true"
       offset_points="0.238227,0.51804536"
       sort_points="true"
       interpolator_type="Linear"
       interpolator_beta="0.2"
       start_linecap_type="zerowidth"
       linejoin_type="round"
       miter_limit="4"
       end_linecap_type="zerowidth"
       cusp_linecap_type="round" />
    <inkscape:path-effect
       effect="powerstroke"
       id="path-effect4194-6"
       is_visible="true"
       offset_points="0.51446185,0.40838453"
       sort_points="true"
       interpolator_type="Linear"
       interpolator_beta="0.2"
       start_linecap_type="zerowidth"
       linejoin_type="round"
       miter_limit="4"
       end_linecap_type="zerowidth"
       cusp_linecap_type="round" />
    <inkscape:path-effect
       effect="powerstroke"
       id="path-effect4198-3"
       is_visible="true"
       offset_points="0.89332667,0.14772899"
       sort_points="true"
       interpolator_type="Linear"
       interpolator_beta="0.2"
       start_linecap_type="zerowidth"
       linejoin_type="round"
       miter_limit="4"
       end_linecap_type="zerowidth"
       cusp_linecap_type="round" />
    <inkscape:path-effect
       effect="powerstroke"
       id="path-effect4194-0"
       is_visible="true"
       offset_points="0.51446185,0.59832658"
       sort_points="true"
       interpolator_type="Linear"
       interpolator_beta="0.2"
       start_linecap_type="zerowidth"
       linejoin_type="round"
       miter_limit="4"
       end_linecap_type="zerowidth"
       cusp_linecap_type="round" />
  </defs>
  <sodipodi:namedview
     id="base"
     pagecolor="#ffffff"
     bordercolor="#666666"
     borderopacity="1.0"
     inkscape:pageopacity="0.0"
     inkscape:pageshadow="2"
     inkscape:zoom="3.959798"
     inkscape:cx="-26.054471"
     inkscape:cy="61.041552"
     inkscape:document-units="px"
     inkscape:current-layer="layer5"
     showgrid="false"
     units="px"
     inkscape:window-width="2560"
     inkscape:window-height="1388"
     inkscape:window-x="-8"
     inkscape:window-y="-8"
     inkscape:window-maximized="1"
     showguides="false" />
  <metadata
     id="metadata4316">
    <rdf:RDF>
      <cc:Work
         rdf:about="">
        <dc:format>image/svg+xml</dc:format>
        <dc:type
           rdf:resource="http://purl.org/dc/dcmitype/StillImage" />
        <dc:title />
      </cc:Work>
    </rdf:RDF>
  </metadata>
  <g
     inkscape:groupmode="layer"
     id="layer5"
     inkscape:label="Stage5"
     style="display:inline;opacity:1">
    <ellipse
       style="display:inline;fill:#ff8080;fill-opacity:1;stroke:#000000;stroke-width:1.12779903;stroke-linecap:round;stroke-linejoin:round;stroke-miterlimit:4;stroke-dasharray:none;stroke-dashoffset:0;stroke-opacity:1"
       id="path4279"
       cx="31.819803"
       cy="31.548853"
       rx="27.0075"
       ry="26.624949" />
    <path
       inkscape:connector-curvature="0"
       id="path4156"
       d="m 22.250338,33.785754 0,3.848779 0.393752,-4.409527 c 0.828241,-1.45285 2.769832,-3.249746 4.887936,-4.931976 l 0.09505,1.949861 1.547807,-3.211546 c 2.158856,-1.605764 4.249819,-2.994876 5.268147,-3.670323 l -1.018328,3.237034 1.710792,-3.504666 c 1.955189,-1.197946 7.780028,-2.790983 11.581789,-7.519075 0.285132,5.429027 -6.53088,12.693227 -7.752874,15.522445 l -4.49422,1.172421 4.385599,-0.662702 c -0.515951,1.554805 -1.208413,2.969422 -2.077389,4.307572 l -1.575013,0.484284 0.719617,0.726426 c -1.086215,1.440106 -2.403254,2.778256 -3.937534,4.052685 l -4.901504,1.414617 4.45344,-0.904844 c -3.652351,2.918445 -7.060341,4.791856 -11.269394,4.536969 0,0 -0.149354,-0.152931 -0.29871,-0.254885 -0.923285,-5.964331 0.556686,-10.246415 2.281039,-12.183549 z"
       style="fill:#ff5555;fill-opacity:1;fill-rule:evenodd;stroke:none;stroke-width:0.27516463px;stroke-linecap:butt;stroke-linejoin:miter;stroke-miterlimit:4;stroke-dasharray:none;stroke-opacity:1" />
    <path
       inkscape:connector-curvature="0"
       id="path4160"
       d="m 42.783583,21.309741 c -3.301935,3.106851 -9.632034,6.550355 -12.8627,10.214515 C 25.32437,36.718203 24.219784,41.912152 16.475746,50.37884 24.33856,42.42206 25.930121,36.979087 30.30096,31.713989 33.329712,28.061687 40.075524,24.381016 42.783583,21.309741 Z"
       style="fill:#ff2a2a;fill-opacity:1;fill-rule:evenodd;stroke:none;stroke-width:0.27516463px;stroke-linecap:butt;stroke-linejoin:miter;stroke-miterlimit:4;stroke-dasharray:none;stroke-opacity:1"
       sodipodi:nodetypes="ccccc" />
    <path
       style="display:inline;fill:#f9f9f9;fill-opacity:1;fill-rule:evenodd;stroke:none;stroke-width:1px;stroke-linecap:butt;stroke-linejoin:miter;stroke-opacity:1"
       d="M 33.310526,8.4466623 C 42.853897,9.7059588 51.837481,12.667445 56.143804,29.852737 42.960254,11.013531 41.261755,14.341438 33.310526,8.4466623 Z"
       id="path4281"
       inkscape:connector-curvature="0"
       sodipodi:nodetypes="ccc" />
    <path
       style="display:inline;fill:#000000;fill-opacity:0.44859811;fill-rule:evenodd;stroke:none;stroke-width:1px;stroke-linecap:butt;stroke-linejoin:miter;stroke-opacity:1"
       d="M 43.352343,55.124348 C 18.554601,65.583105 -2.4191261,42.115746 7.6398162,20.86384 7.8289942,39.063247 21.867849,56.944615 43.352343,55.124348 Z"
       id="path4283"
       inkscape:connector-curvature="0"
       sodipodi:nodetypes="ccc" />
    <path
       style="fill:#dedbe3;fill-rule:evenodd;stroke:#000000;stroke-width:0.50091332;stroke-linecap:butt;stroke-linejoin:miter;stroke-miterlimit:4;stroke-dasharray:none;stroke-opacity:1"
       d="m 30.684161,24.122015 8.61788,30.082967 c -0.75196,1.29959 -1.35629,0.760508 -1.99606,0.662898 L 28.68811,24.469246 Z"
       id="path4190-3"
       inkscape:connector-curvature="0"
       sodipodi:nodetypes="ccccc" />
    <ellipse
       style="fill:#ff80e5;fill-opacity:1;stroke:none;stroke-width:0.60000002;stroke-linecap:butt;stroke-miterlimit:4;stroke-dasharray:none;stroke-dashoffset:0"
       id="path4201"
       cx="29.214119"
       cy="21.684544"
       rx="11.670732"
       ry="11.501134" />
    <path
       style="fill:#f2f2f2;fill-rule:evenodd;stroke:none;stroke-width:1px;stroke-linecap:butt;stroke-linejoin:miter;stroke-opacity:1"
       d="m 18.560624,25.27331 c 3.613776,6.414799 10.750793,9.066511 16.556787,3.597935 0.98456,1.071603 0.32508,2.551953 0.23913,2.614528 -4.533739,3.300535 -15.276737,1.684146 -16.795917,-6.212463 z"
       id="path4205"
       inkscape:connector-curvature="0"
       sodipodi:nodetypes="cccc" />
    <path
       style="display:inline;opacity:1;fill:#f2f2f2;fill-rule:evenodd;stroke:none;stroke-width:1px;stroke-linecap:butt;stroke-linejoin:miter;stroke-opacity:1"
       d="m 30.095012,10.250794 c -2.76161,1.268999 -5.11396,3.485438 -6.260789,6.182717 -0.919227,1.063619 -2.280893,2.480492 -2.136982,6.297484 -1.417934,-0.32733 -3.331968,-5.543606 -0.937871,-8.636306 2.482324,-2.478992 4.276165,-3.991642 9.335642,-3.843895 z"
       id="path4205-3"
       inkscape:connector-curvature="0"
       sodipodi:nodetypes="ccccc" />
    <path
       style="display:inline;opacity:1;fill:#f2f2f2;fill-rule:evenodd;stroke:none;stroke-width:1px;stroke-linecap:butt;stroke-linejoin:miter;stroke-opacity:1"
       d="m 40.164141,26.039714 c 0.40861,-2.926342 -1.80597,-5.253157 -3.50525,-7.217978 -0.41617,-1.195526 -2.056714,-3.313463 -5.421959,-4.502122 2.615276,-1.075141 5.402359,-1.176552 8.147959,1.490521 1.27628,2.802453 2.25095,4.896409 0.77925,10.229579 z"
       id="path4205-3-8"
       inkscape:connector-curvature="0"
       sodipodi:nodetypes="ccccc" />
    <path
       style="display:inline;opacity:1;fill:#f2f2f2;fill-rule:evenodd;stroke:none;stroke-width:1px;stroke-linecap:butt;stroke-linejoin:miter;stroke-opacity:1"
       d="m 21.173535,28.938727 c 2.979227,0.600873 5.873194,0.32895 8.388584,-1.175492 1.369309,-0.31821 3.505125,-1.487229 4.052013,-4.076412 1.154039,1.278198 1.124329,6.554145 -2.631948,7.643579 -3.466139,0.541492 -5.806741,0.707494 -9.808649,-2.391675 z"
       id="path4205-3-0"
       inkscape:connector-curvature="0"
       sodipodi:nodetypes="ccccc" />
    <path
       style="display:inline;opacity:1;fill:#f2f2f2;fill-rule:evenodd;stroke:none;stroke-width:1px;stroke-linecap:butt;stroke-linejoin:miter;stroke-opacity:1"
       d="m 37.647091,21.893194 c -2.22239,-2.073127 -4.026017,-3.916286 -7.380853,-3.841695 -1.33295,-0.446632 -2.559263,0.300148 -4.381997,2.218636 -0.31296,-1.693415 0.423851,-5.613133 5.04211,-6.000899 3.23577,1.355409 5.96348,2.820186 6.72074,7.623958 z"
       id="path4205-3-0-2"
       inkscape:connector-curvature="0"
       sodipodi:nodetypes="ccccc" />
    <path
       style="display:inline;opacity:1;fill:#f2f2f2;fill-rule:evenodd;stroke:none;stroke-width:1px;stroke-linecap:butt;stroke-linejoin:miter;stroke-opacity:1"
       d="m 22.590809,24.449728 c 2.611084,1.555348 4.63027,1.255897 5.683361,-0.375826 0.705345,0.02023 1.87958,-0.947039 1.446552,-2.002724 2.04848,-0.509513 3.118471,3.142512 0.428209,5.504167 -2.913732,0.990199 -5.24249,0.181076 -7.558122,-3.125617 z"
       id="path4205-3-0-2-4"
       inkscape:connector-curvature="0"
       sodipodi:nodetypes="ccccc" />
    <path
       sodipodi:type="spiral"
       style="fill:none;fill-rule:evenodd;stroke:#000000;stroke-width:0.60000002;stroke-linecap:butt;stroke-linejoin:miter;stroke-miterlimit:4;stroke-dasharray:none;stroke-opacity:1"
       id="path4203"
       sodipodi:cx="28.786209"
       sodipodi:cy="21.99534"
       sodipodi:expansion="1"
       sodipodi:revolution="3.000109"
       sodipodi:radius="11.794595"
       sodipodi:argument="-20.458214"
       sodipodi:t0="0"
       d="m 28.786209,21.99534 c -0.02238,-0.590917 0.785501,-0.32171 0.982143,-0.0372 0.532887,0.770997 -0.15597,1.73045 -0.907736,2.001489 -1.344734,0.484826 -2.696246,-0.565201 -3.020835,-1.852676 -0.476348,-1.889422 0.975781,-3.679039 2.797615,-4.040181 2.428219,-0.481345 4.668377,1.38629 5.059527,3.742555 0.492223,2.96512 -1.79663,5.660958 -4.687494,6.078873 -3.501225,0.506151 -6.655392,-2.206848 -7.09822,-5.632434 -0.521857,-4.036935 2.616986,-7.650983 6.577374,-8.117565 4.572425,-0.538688 8.647348,3.02707 9.136912,7.522313 0.556273,5.107781 -3.437119,9.644255 -8.467254,10.156258 -5.64305,0.574389 -10.641555,-3.847142 -11.175603,-9.412193 -0.592894,-6.178261 4.257146,-11.639153 10.357132,-12.19495 0.0027,-2.44e-4 0.0054,-4.88e-4 0.0081,-7.31e-4" />
    <ellipse
       ry="11.501134"
       rx="11.670732"
       cy="21.684544"
       cx="29.214119"
       id="ellipse4327"
       style="fill:none;fill-opacity:1;stroke:#000000;stroke-width:0.60000002;stroke-linecap:butt;stroke-miterlimit:4;stroke-dasharray:none;stroke-dashoffset:0" />
    <path
       style="display:inline;opacity:1;fill:#ffffff;fill-rule:evenodd;stroke:none;stroke-width:1px;stroke-linecap:butt;stroke-linejoin:miter;stroke-opacity:1"
       d="m 39.230481,18.107686 c -0.20138,-1.848691 -1.374773,-3.560847 -2.840839,-4.945216 -0.04208,-0.03973 -0.08437,-0.07917 -0.126862,-0.118319 -1.651341,-0.999553 -3.431371,-1.595105 -4.653323,-1.707939 1.112869,0.495359 2.641463,1.436822 3.931751,2.662566 0.04533,0.02723 0.09054,0.05479 0.135634,0.08267 1.541915,0.953356 2.984852,2.311791 3.553639,4.026239 z"
       id="path4192-7"
       inkscape:path-effect="#path-effect4194-0"
       inkscape:original-d="m 39.230481,18.107686 c -0.7759,-3.562985 -5.20973,-6.141797 -7.621024,-6.771474"
       inkscape:connector-curvature="0"
       sodipodi:nodetypes="cc" />
  </g>
</svg>
