<?xml version="1.0" encoding="UTF-8" standalone="no"?>
<!-- Created with Inkscape (http://www.inkscape.org/) -->

<svg
   xmlns:dc="http://purl.org/dc/elements/1.1/"
   xmlns:cc="http://creativecommons.org/ns#"
   xmlns:rdf="http://www.w3.org/1999/02/22-rdf-syntax-ns#"
   xmlns:svg="http://www.w3.org/2000/svg"
   xmlns="http://www.w3.org/2000/svg"
   xmlns:sodipodi="http://sodipodi.sourceforge.net/DTD/sodipodi-0.dtd"
   xmlns:inkscape="http://www.inkscape.org/namespaces/inkscape"
   width="100%"
   height="100%"
   viewBox="0 0 64.000001 64.000001"
   id="svg4311"
   version="1.1"
   inkscape:version="0.91 r13725"
   sodipodi:docname="bottledEssenceHuman.svg">
  <defs
     id="defs4313">
    <inkscape:path-effect
       effect="powerstroke"
       id="path-effect4155"
       is_visible="true"
       offset_points="0.92799346,1.2886104"
       sort_points="true"
       interpolator_type="Linear"
       interpolator_beta="0.2"
       start_linecap_type="zerowidth"
       linejoin_type="round"
       miter_limit="4"
       end_linecap_type="zerowidth"
       cusp_linecap_type="round" />
    <inkscape:path-effect
       effect="powerstroke"
       id="path-effect4151"
       is_visible="true"
       offset_points="0,0.5"
       sort_points="true"
       interpolator_type="CubicBezierJohan"
       interpolator_beta="0.2"
       start_linecap_type="zerowidth"
       linejoin_type="round"
       miter_limit="4"
       end_linecap_type="zerowidth"
       cusp_linecap_type="round" />
    <inkscape:path-effect
       effect="powerstroke"
       id="path-effect4147"
       is_visible="true"
       offset_points="0,0.5"
       sort_points="true"
       interpolator_type="CubicBezierJohan"
       interpolator_beta="0.2"
       start_linecap_type="zerowidth"
       linejoin_type="round"
       miter_limit="4"
       end_linecap_type="zerowidth"
       cusp_linecap_type="round" />
    <inkscape:path-effect
       effect="powerstroke"
       id="path-effect4183"
       is_visible="true"
       offset_points="0.238227,0.51804536"
       sort_points="true"
       interpolator_type="Linear"
       interpolator_beta="0.2"
       start_linecap_type="zerowidth"
       linejoin_type="round"
       miter_limit="4"
       end_linecap_type="zerowidth"
       cusp_linecap_type="round" />
  </defs>
  <sodipodi:namedview
     id="base"
     pagecolor="#ffffff"
     bordercolor="#666666"
     borderopacity="1.0"
     inkscape:pageopacity="0.0"
     inkscape:pageshadow="2"
     inkscape:zoom="11.2"
     inkscape:cx="24.673996"
     inkscape:cy="25.573137"
     inkscape:document-units="px"
     inkscape:current-layer="layer5"
     showgrid="false"
     units="px"
     inkscape:window-width="2560"
     inkscape:window-height="1388"
     inkscape:window-x="-8"
     inkscape:window-y="-8"
     inkscape:window-maximized="1"
     showguides="false" />
  <metadata
     id="metadata4316">
    <rdf:RDF>
      <cc:Work
         rdf:about="">
        <dc:format>image/svg+xml</dc:format>
        <dc:type
           rdf:resource="http://purl.org/dc/dcmitype/StillImage" />
        <dc:title></dc:title>
      </cc:Work>
    </rdf:RDF>
  </metadata>
  <g
     inkscape:groupmode="layer"
     id="layer5"
     inkscape:label="Stage5"
     style="display:inline;opacity:1">
    <path
       sodipodi:type="star"
       style="display:inline;opacity:1;fill:#ff8080;fill-opacity:1;stroke:#000000;stroke-width:0.73031849;stroke-linecap:round;stroke-miterlimit:4;stroke-dasharray:none;stroke-dashoffset:0;stroke-opacity:1"
       id="path4168"
       sodipodi:sides="5"
       sodipodi:cx="1.4285713"
       sodipodi:cy="-9.5714273"
       sodipodi:r1="17.431536"
       sodipodi:r2="14.102408"
       sodipodi:arg1="0.90885469"
       sodipodi:arg2="1.5371732"
       inkscape:flatsided="true"
       inkscape:rounded="0"
       inkscape:randomized="0"
       d="M 12.142857,4.1785731 -8.3375598,4.867448 -15.321516,-14.397712 0.8425794,-26.993111 17.816495,-15.512335 Z"
       inkscape:transform-center-x="0.97927869"
       inkscape:transform-center-y="-3.2456342"
       transform="matrix(1.5645444,0.05692315,-0.03980006,1.6319874,29.237645,49.816223)" />
    <path
       style="display:inline;opacity:1;fill:#ff5555;fill-rule:evenodd;stroke:none;stroke-width:0.917126px;stroke-linecap:butt;stroke-linejoin:miter;stroke-opacity:1"
       d="m 31.528058,52.187306 c -1.958915,1.39178 -8.308599,-0.752991 -10.946527,-3.435914 -1.834744,-1.86604 -1.951936,-5.220396 -1.803714,-7.442176 0.162625,-2.437421 0.9775,-5.307821 1.36907,-7.565823 0.06064,-1.038146 -2.007633,-13.813369 1.275434,-13.588328 1.741569,0.119378 1.104459,10.911784 2.397021,12.140124 0.202336,0.192297 0.757983,0.05063 1.036772,0.10395 0.547081,0.104626 0.921385,-2.71005 1.643195,-5.917131 1.083196,-4.812758 2.647664,-10.607164 4.34381,-9.528788 1.179101,0.749651 0.221457,4.723227 -0.578072,8.284449 -0.706014,3.144687 -1.257158,5.959498 -0.557369,6.066882 1.588138,0.243696 3.487406,-8.406917 5.456199,-12.678031 0.781496,-1.69539 1.45743,-2.47453 2.306619,-2.077825 1.787495,0.83504 0.394814,5.733485 -1.1326,10.046419 -1.007367,2.84444 -2.410005,5.722252 -1.800821,5.987749 0.925613,0.40341 3.041423,-3.640758 5.255696,-7.317833 1.277136,-2.120825 1.899349,-5.237073 3.544492,-4.561732 1.984301,0.814563 -0.536099,6.760575 -4.966922,13.739646 -0.630166,0.992582 -1.218394,2.738284 -1.071283,3.910927 0.157428,1.254859 -0.313915,3.633026 0.779378,3.091446 1.821812,-0.902469 3.888631,-3.115929 5.688081,-4.287372 2.712503,-1.765849 5.191217,-2.1187 4.777508,-0.03693 -0.15468,0.778359 -4.187008,3.90991 -8.741416,8.795234 -2.176376,2.334514 -5.341242,4.186997 -8.27454,6.271065 z"
       id="path4163"
       inkscape:connector-curvature="0"
       sodipodi:nodetypes="ssscssssssssssssssssssss" />
    <g
       id="g4237"
       transform="translate(0.625,-0.35714285)">
      <path
         style="fill:#e0f8ff;fill-opacity:0.54205609;fill-rule:evenodd;stroke:none;stroke-width:0.5;stroke-linecap:butt;stroke-linejoin:miter;stroke-miterlimit:4;stroke-dasharray:none;stroke-opacity:1"
         d="m 24.138813,55.034899 c 3.077577,1.074211 10.474616,1.250821 13.952733,-0.157842 0.703374,-0.284872 0.616603,-32.545478 0.505076,-33.871678 -0.117297,-1.394805 -1.03466,-1.587732 -1.073287,-2.13079 l 5e-6,-1.531013 c 0.974463,-0.05787 0.980671,-2.009783 -0.06314,-2.020305 l -12.437503,0 c -0.921614,0.03753 -0.959125,1.928294 0.126269,2.020305 l 0,1.38896 c 0.0053,0.92074 -0.497802,1.046852 -0.836532,1.862469 -0.487397,1.173584 -0.944289,34.170896 -0.173621,34.439894 z"
         id="path4210"
         inkscape:connector-curvature="0"
         sodipodi:nodetypes="sssccccccss" />
      <path
         sodipodi:nodetypes="sssssscsssscsss"
         inkscape:connector-curvature="0"
         id="path4138"
         d="m 32.461021,30.48841 c -1.376278,-1.0026 -2.934241,0.56067 -3.606993,4.638119 -0.829787,5.029468 -0.233368,10.381738 1.679463,12.336645 1.766457,1.805312 4.717901,0.39755 5.697881,-6.125384 1.159529,-7.718029 -0.195251,-14.677073 -2.366339,-17.282165 -2.749647,-3.29935 -6.261613,0.238832 -7.425593,7.790906 -1.488625,9.658374 0.606589,18.039642 3.31736,20.881984 -2.530145,-3.208745 -3.606474,-12.762719 -2.52742,-19.992714 0.963963,-6.463937 4.155243,-7.572688 6.108873,-5.22671 1.456894,1.749455 1.96089,7.719781 1.306226,11.676304 -0.46414,2.805017 -2.115487,5.299771 -3.433786,3.467304 -1.599115,-2.222844 -1.452924,-5.103608 -1.157003,-7.097837 -0.09183,3.053511 0.964247,5.620211 1.941249,5.498174 1.831683,-0.228799 2.014438,-4.418682 1.975993,-5.654221 -0.12847,-4.128232 -1.344714,-4.790037 -1.509911,-4.910405 z"
         style="display:inline;fill:#ff2a2a;fill-opacity:1;fill-rule:evenodd;stroke:#000000;stroke-width:0.25;stroke-linecap:butt;stroke-linejoin:miter;stroke-miterlimit:4;stroke-dasharray:none;stroke-opacity:1" />
      <path
         sodipodi:nodetypes="ccccc"
         inkscape:connector-curvature="0"
         id="path4186"
         d="m 26.190686,21.084302 c 0.07892,0 10.33828,-0.0947 10.33828,-0.0947 l 0.631345,-8.460028 c -3.496751,-0.303023 -8.02933,-0.310997 -11.758807,0.06314 z"
         style="fill:#d38d5f;fill-rule:evenodd;stroke:#000000;stroke-width:0.5;stroke-linecap:butt;stroke-linejoin:miter;stroke-miterlimit:4;stroke-dasharray:none;stroke-opacity:1" />
      <path
         sodipodi:nodetypes="sssccccccss"
         inkscape:connector-curvature="0"
         id="path4178"
         d="m 24.138813,55.034899 c 3.077577,1.074211 10.474616,1.250821 13.952733,-0.157842 0.703374,-0.284872 0.616603,-32.545478 0.505076,-33.871678 -0.117297,-1.394805 -1.03466,-1.587732 -1.073287,-2.13079 l 5e-6,-1.531013 c 0.974463,-0.05787 0.980671,-2.009783 -0.06314,-2.020305 l -12.437503,0 c -0.921614,0.03753 -0.959125,1.928294 0.126269,2.020305 l 0,1.38896 c 0.0053,0.92074 -0.497802,1.046852 -0.836532,1.862469 -0.487397,1.173584 -0.944289,34.170896 -0.173621,34.439894 z"
         style="fill:#e0f8ff;fill-opacity:0.50196078;fill-rule:evenodd;stroke:#000000;stroke-width:0.5;stroke-linecap:butt;stroke-linejoin:miter;stroke-miterlimit:4;stroke-dasharray:none;stroke-opacity:1" />
      <path
         sodipodi:nodetypes="cc"
         inkscape:connector-curvature="0"
         id="path4180"
         d="m 25.165494,19.029983 c 0.771662,0.228432 11.341343,0.204027 12.289862,0.03698"
         style="fill:none;fill-rule:evenodd;stroke:#000000;stroke-width:0.25;stroke-linecap:butt;stroke-linejoin:miter;stroke-miterlimit:4;stroke-dasharray:none;stroke-opacity:1" />
      <path
         sodipodi:nodetypes="cc"
         inkscape:connector-curvature="0"
         id="path4182"
         d="m 37.499999,17.248098 c -4.318129,0.117916 -8.405883,0.09185 -12.388393,0"
         style="fill:none;fill-rule:evenodd;stroke:#000000;stroke-width:0.25;stroke-linecap:butt;stroke-linejoin:miter;stroke-miterlimit:4;stroke-dasharray:none;stroke-opacity:1" />
      <path
         sodipodi:nodetypes="ccccccc"
         inkscape:connector-curvature="0"
         id="path4184"
         d="m 24.722808,54.403552 c 2.788496,0.741409 10.483351,0.642491 12.871112,-0.0504 0.44639,-7.947496 0.232983,-24.913196 0.129293,-33.299576 -0.0106,-0.788557 -0.407381,-1.441581 -0.915179,-1.495535 -3.796389,0.200291 -7.258016,0.126686 -10.736607,0.06696 -0.32559,10e-4 -0.819564,0.570833 -0.959821,1.361607 -0.697166,11.091685 -0.698307,22.241373 -0.388798,33.416947 z"
         style="fill:none;fill-rule:evenodd;stroke:#000000;stroke-width:0.25;stroke-linecap:butt;stroke-linejoin:miter;stroke-miterlimit:4;stroke-dasharray:none;stroke-opacity:1" />
    </g>
    <path
       style="display:inline;opacity:1;fill:#000000;fill-opacity:0.44859811;fill-rule:evenodd;stroke:none;stroke-width:1px;stroke-linecap:butt;stroke-linejoin:miter;stroke-opacity:1"
       d="m 48.080706,57.188386 c -12.178352,0.211686 -23.853587,0.07949 -31.971525,0.01292 -3.389298,-9.802718 -6.644633,-20.88831 -10.169575,-31.862713 5.490921,11.946099 6.367366,19.615267 14.750662,26.208567 6.025034,4.738571 15.106093,4.469879 27.390438,5.641226 z"
       id="path4283-0"
       inkscape:connector-curvature="0"
       sodipodi:nodetypes="cccsc" />
    <path
       style="display:inline;opacity:1;fill:#f9f9f9;fill-opacity:1;fill-rule:evenodd;stroke:none;stroke-width:1px;stroke-linecap:butt;stroke-linejoin:miter;stroke-opacity:1"
       d="M 32.139902,8.0498411 C 42.693424,15.370052 45.237292,17.573924 56.235872,26.109784 47.345471,23.496154 34.093351,10.724756 32.139902,8.0498411 Z"
       id="path4281-0"
       inkscape:connector-curvature="0"
       sodipodi:nodetypes="ccc" />
  </g>
</svg>
