<svg xmlns="http://www.w3.org/2000/svg" viewBox="0 0 64 64">
    <path fill="#ff8080" stroke="#000" stroke-linecap="round" stroke-width=".73" d="M12.143 4.179l-20.48.688-6.985-19.265L.843-26.993l16.973 11.48z" transform="matrix(1.56454 .05692 -.0398 1.63199 29.238 49.816)"/>
    <path fill="none" stroke="#f55" stroke-linecap="round" stroke-width="3.675" d="M20.966 50.09l10.83-35.442L43.413 50.55 14.075 28.3l35.77.066z"/>
    <path fill="#e0f8ff" fill-opacity=".542" fill-rule="evenodd" d="M24.764 54.678c3.077 1.074 10.474 1.25 13.953-.158.703-.285.616-32.546.505-33.872-.118-1.395-1.035-1.587-1.074-2.13v-1.532c.975-.057.981-2.01-.063-2.02H25.648c-.922.038-.96 1.928.126 2.02v1.39c.005.92-.498 1.046-.837 1.862-.487 1.173-.944 34.17-.173 34.44z"/>
    <path fill="#ff2a2a" fill-rule="evenodd" stroke="#000" stroke-width=".25" d="M33.086 30.131c-1.376-1.002-2.934.56-3.607 4.638-.83 5.03-.233 10.382 1.68 12.337 1.766 1.805 4.717.398 5.697-6.125 1.16-7.718-.195-14.677-2.366-17.283-2.75-3.299-6.262.24-7.426 7.791-1.488 9.659.607 18.04 3.318 20.882-2.53-3.208-3.607-12.762-2.528-19.992.964-6.464 4.156-7.573 6.11-5.227 1.456 1.75 1.96 7.72 1.305 11.676-.464 2.805-2.115 5.3-3.433 3.468-1.6-2.223-1.453-5.104-1.157-7.098-.092 3.053.964 5.62 1.94 5.498 1.833-.229 2.015-4.419 1.977-5.654-.129-4.129-1.345-4.79-1.51-4.91z"/>
    <path fill="#d38d5f" fill-rule="evenodd" stroke="#000" stroke-width=".5" d="M26.816 20.727l10.338-.095.631-8.46c-3.496-.303-8.029-.31-11.758.064z"/>
    <path fill="#e0f8ff" fill-opacity=".502" fill-rule="evenodd" stroke="#000" stroke-width=".5" d="M24.764 54.678c3.077 1.074 10.474 1.25 13.953-.158.703-.285.616-32.546.505-33.872-.118-1.395-1.035-1.587-1.074-2.13v-1.532c.975-.057.981-2.01-.063-2.02H25.648c-.922.038-.96 1.928.126 2.02v1.39c.005.92-.498 1.046-.837 1.862-.487 1.173-.944 34.17-.173 34.44z"/>
    <path fill="none" stroke="#000" stroke-width=".25" d="M25.79 18.673c.772.228 11.342.204 12.29.037M38.125 16.891c-4.318.118-8.406.092-12.388 0M25.348 54.046c2.788.742 10.483.643 12.87-.05.447-7.947.234-24.913.13-33.3-.01-.788-.407-1.441-.915-1.495-3.796.2-7.258.127-10.737.067-.325 0-.82.57-.96 1.361-.697 11.092-.698 22.242-.388 33.417z"/>
    <path fill-opacity=".449" fill-rule="evenodd" d="M48.08 57.188c-12.178.212-23.853.08-31.97.013C12.72 47.4 9.464 36.313 5.94 25.34c5.49 11.946 6.367 19.615 14.75 26.208 6.025 4.739 15.106 4.47 27.39 5.641z"/>
    <path fill="#f9f9f9" fill-rule="evenodd" d="M32.14 8.05c10.553 7.32 13.097 9.524 24.096 18.06-8.89-2.614-22.143-15.385-24.096-18.06z"/>
</svg>
