<?xml version="1.0" encoding="UTF-8" standalone="no"?>
<!-- Created with Inkscape (http://www.inkscape.org/) -->

<svg
   xmlns:dc="http://purl.org/dc/elements/1.1/"
   xmlns:cc="http://creativecommons.org/ns#"
   xmlns:rdf="http://www.w3.org/1999/02/22-rdf-syntax-ns#"
   xmlns:svg="http://www.w3.org/2000/svg"
   xmlns="http://www.w3.org/2000/svg"
   xmlns:sodipodi="http://sodipodi.sourceforge.net/DTD/sodipodi-0.dtd"
   xmlns:inkscape="http://www.inkscape.org/namespaces/inkscape"
   width="100%"
   height="100%"
   viewBox="0 0 64.000001 64.000001"
   id="svg4311"
   version="1.1"
   inkscape:version="0.92.2 (5c3e80d, 2017-08-06)"
   sodipodi:docname="bottledEssenceFoxMorph.svg">
  <defs
     id="defs4313">
    <inkscape:path-effect
       effect="powerstroke"
       id="path-effect4155"
       is_visible="true"
       offset_points="0.92799346,1.2886104"
       sort_points="true"
       interpolator_type="Linear"
       interpolator_beta="0.2"
       start_linecap_type="zerowidth"
       linejoin_type="round"
       miter_limit="4"
       end_linecap_type="zerowidth"
       cusp_linecap_type="round" />
    <inkscape:path-effect
       effect="powerstroke"
       id="path-effect4151"
       is_visible="true"
       offset_points="0,0.5"
       sort_points="true"
       interpolator_type="CubicBezierJohan"
       interpolator_beta="0.2"
       start_linecap_type="zerowidth"
       linejoin_type="round"
       miter_limit="4"
       end_linecap_type="zerowidth"
       cusp_linecap_type="round" />
    <inkscape:path-effect
       effect="powerstroke"
       id="path-effect4147"
       is_visible="true"
       offset_points="0,0.5"
       sort_points="true"
       interpolator_type="CubicBezierJohan"
       interpolator_beta="0.2"
       start_linecap_type="zerowidth"
       linejoin_type="round"
       miter_limit="4"
       end_linecap_type="zerowidth"
       cusp_linecap_type="round" />
    <inkscape:path-effect
       effect="powerstroke"
       id="path-effect4183"
       is_visible="true"
       offset_points="0.238227,0.51804536"
       sort_points="true"
       interpolator_type="Linear"
       interpolator_beta="0.2"
       start_linecap_type="zerowidth"
       linejoin_type="round"
       miter_limit="4"
       end_linecap_type="zerowidth"
       cusp_linecap_type="round" />
  </defs>
  <sodipodi:namedview
     id="base"
     pagecolor="#ffffff"
     bordercolor="#666666"
     borderopacity="1.0"
     inkscape:pageopacity="0.0"
     inkscape:pageshadow="2"
     inkscape:zoom="7.919596"
     inkscape:cx="14.69245"
     inkscape:cy="28.754789"
     inkscape:document-units="px"
     inkscape:current-layer="layer5"
     showgrid="false"
     units="px"
     inkscape:window-width="1600"
     inkscape:window-height="847"
     inkscape:window-x="-8"
     inkscape:window-y="-8"
     inkscape:window-maximized="1"
     showguides="false" />
  <metadata
     id="metadata4316">
    <rdf:RDF>
      <cc:Work
         rdf:about="">
        <dc:format>image/svg+xml</dc:format>
        <dc:type
           rdf:resource="http://purl.org/dc/dcmitype/StillImage" />
        <dc:title></dc:title>
      </cc:Work>
    </rdf:RDF>
  </metadata>
  <g
     inkscape:groupmode="layer"
     id="layer5"
     inkscape:label="Stage5"
     style="display:inline;opacity:1">
    <path
       sodipodi:type="star"
       style="display:inline;opacity:1;fill:#ff8080;fill-opacity:1;stroke:#000000;stroke-width:0.73031849;stroke-linecap:round;stroke-miterlimit:4;stroke-dasharray:none;stroke-dashoffset:0;stroke-opacity:1"
       id="path4168"
       sodipodi:sides="5"
       sodipodi:cx="1.4285713"
       sodipodi:cy="-9.5714273"
       sodipodi:r1="17.431536"
       sodipodi:r2="14.102408"
       sodipodi:arg1="0.90885469"
       sodipodi:arg2="1.5371732"
       inkscape:flatsided="true"
       inkscape:rounded="0"
       inkscape:randomized="0"
       d="M 12.142857,4.1785731 -8.3375598,4.867448 -15.321516,-14.397712 0.8425794,-26.993111 17.816495,-15.512335 Z"
       inkscape:transform-center-x="0.97927869"
       inkscape:transform-center-y="-3.2456342"
       transform="matrix(1.5645444,0.05692315,-0.03980006,1.6319874,29.237645,49.816223)" />
    <path
       inkscape:connector-curvature="0"
       style="display:inline;opacity:1;fill:#ff5555;fill-opacity:1;stroke:none;stroke-width:0.71999997px;stroke-linecap:butt;stroke-linejoin:miter;stroke-opacity:1"
       d="m 22.897735,19.461772 c -0.720103,0.09839 0.007,1.127813 0.007,1.127813 0,0 -2.614037,-2.056408 -1.663594,0.07875 0.950443,2.135158 2.297814,4.270781 2.297814,4.270781 l 0.395156,1.185469 -1.029376,-0.316406 c 0,0 0.950535,1.66137 0.475313,2.53125 -0.475222,0.869879 -2.375658,3.796057 -2.534063,4.665936 -0.158408,0.86988 0.07911,2.293194 -0.475313,3.400314 -0.554426,1.107118 -4.040156,4.982343 -4.040156,4.982343 0,0 -1.267486,1.027396 -1.188281,1.501875 0.07921,0.47448 0.396246,1.107882 1.188281,1.503282 0.792038,0.395399 3.248438,0.711562 3.248438,0.711562 0,0 0.63304,0.31632 1.821093,0 1.188056,-0.31632 3.802365,-1.819358 5.544845,-1.898437 1.742479,-0.07908 3.247031,0.632812 3.247031,0.632812 l -0.317812,6.405469 0.793125,-0.711563 0.05203,2.010938 a 18.72,18.72 0 0 0 0.653906,-0.0225 l 0.007,-0.01126 h 0.160313 A 18.72,18.72 0 0 0 48.861329,33.189585 c -0.766954,-0.791446 -1.403438,-1.371094 -1.403438,-1.371094 h -1.821093 l 1.742344,-1.106719 c 0,0 -2.772808,-3.162986 -3.564844,-3.083906 -0.792035,0.07908 -3.484687,0 -3.484687,0 l 2.851875,-2.136094 c 0,0 -3.326736,-0.394096 -5.86125,-1.659375 -2.534514,-1.265279 -3.168554,-1.660782 -4.594218,-1.660782 -1.425665,0 -2.69297,0.236251 -2.69297,0.236251 0,0 -5.385257,-2.68776 -6.731718,-2.925 -0.168309,-0.02966 -0.300723,-0.03515 -0.403595,-0.0211 z"
       id="path859" />
    <g
       id="g4237"
       transform="translate(0.625,-0.35714285)"
       style="display:inline">
      <path
         style="fill:#e0f8ff;fill-opacity:0.54205609;fill-rule:evenodd;stroke:none;stroke-width:0.5;stroke-linecap:butt;stroke-linejoin:miter;stroke-miterlimit:4;stroke-dasharray:none;stroke-opacity:1"
         d="m 24.138813,55.034899 c 3.077577,1.074211 10.474616,1.250821 13.952733,-0.157842 0.703374,-0.284872 0.616603,-32.545478 0.505076,-33.871678 -0.117297,-1.394805 -1.03466,-1.587732 -1.073287,-2.13079 l 5e-6,-1.531013 c 0.974463,-0.05787 0.980671,-2.009783 -0.06314,-2.020305 H 25.022697 c -0.921614,0.03753 -0.959125,1.928294 0.126269,2.020305 v 1.38896 c 0.0053,0.92074 -0.497802,1.046852 -0.836532,1.862469 -0.487397,1.173584 -0.944289,34.170896 -0.173621,34.439894 z"
         id="path4210"
         inkscape:connector-curvature="0"
         sodipodi:nodetypes="sssccccccss" />
      <path
         sodipodi:nodetypes="sssssscsssscsss"
         inkscape:connector-curvature="0"
         id="path4138"
         d="m 32.461021,30.48841 c -1.376278,-1.0026 -2.934241,0.56067 -3.606993,4.638119 -0.829787,5.029468 -0.233368,10.381738 1.679463,12.336645 1.766457,1.805312 4.717901,0.39755 5.697881,-6.125384 1.159529,-7.718029 -0.195251,-14.677073 -2.366339,-17.282165 -2.749647,-3.29935 -6.261613,0.238832 -7.425593,7.790906 -1.488625,9.658374 0.606589,18.039642 3.31736,20.881984 -2.530145,-3.208745 -3.606474,-12.762719 -2.52742,-19.992714 0.963963,-6.463937 4.155243,-7.572688 6.108873,-5.22671 1.456894,1.749455 1.96089,7.719781 1.306226,11.676304 -0.46414,2.805017 -2.115487,5.299771 -3.433786,3.467304 -1.599115,-2.222844 -1.452924,-5.103608 -1.157003,-7.097837 -0.09183,3.053511 0.964247,5.620211 1.941249,5.498174 1.831683,-0.228799 2.014438,-4.418682 1.975993,-5.654221 -0.12847,-4.128232 -1.344714,-4.790037 -1.509911,-4.910405 z"
         style="display:inline;fill:#ff2a2a;fill-opacity:1;fill-rule:evenodd;stroke:#000000;stroke-width:0.25;stroke-linecap:butt;stroke-linejoin:miter;stroke-miterlimit:4;stroke-dasharray:none;stroke-opacity:1" />
      <path
         sodipodi:nodetypes="ccccc"
         inkscape:connector-curvature="0"
         id="path4186"
         d="m 26.190686,21.084302 c 0.07892,0 10.33828,-0.0947 10.33828,-0.0947 l 0.631345,-8.460028 c -3.496751,-0.303023 -8.02933,-0.310997 -11.758807,0.06314 z"
         style="fill:#d38d5f;fill-rule:evenodd;stroke:#000000;stroke-width:0.5;stroke-linecap:butt;stroke-linejoin:miter;stroke-miterlimit:4;stroke-dasharray:none;stroke-opacity:1" />
      <path
         sodipodi:nodetypes="sssccccccss"
         inkscape:connector-curvature="0"
         id="path4178"
         d="m 24.138813,55.034899 c 3.077577,1.074211 10.474616,1.250821 13.952733,-0.157842 0.703374,-0.284872 0.616603,-32.545478 0.505076,-33.871678 -0.117297,-1.394805 -1.03466,-1.587732 -1.073287,-2.13079 l 5e-6,-1.531013 c 0.974463,-0.05787 0.980671,-2.009783 -0.06314,-2.020305 H 25.022697 c -0.921614,0.03753 -0.959125,1.928294 0.126269,2.020305 v 1.38896 c 0.0053,0.92074 -0.497802,1.046852 -0.836532,1.862469 -0.487397,1.173584 -0.944289,34.170896 -0.173621,34.439894 z"
         style="fill:#e0f8ff;fill-opacity:0.50196078;fill-rule:evenodd;stroke:#000000;stroke-width:0.5;stroke-linecap:butt;stroke-linejoin:miter;stroke-miterlimit:4;stroke-dasharray:none;stroke-opacity:1" />
      <path
         sodipodi:nodetypes="cc"
         inkscape:connector-curvature="0"
         id="path4180"
         d="m 25.165494,19.029983 c 0.771662,0.228432 11.341343,0.204027 12.289862,0.03698"
         style="fill:none;fill-rule:evenodd;stroke:#000000;stroke-width:0.25;stroke-linecap:butt;stroke-linejoin:miter;stroke-miterlimit:4;stroke-dasharray:none;stroke-opacity:1" />
      <path
         sodipodi:nodetypes="cc"
         inkscape:connector-curvature="0"
         id="path4182"
         d="m 37.499999,17.248098 c -4.318129,0.117916 -8.405883,0.09185 -12.388393,0"
         style="fill:none;fill-rule:evenodd;stroke:#000000;stroke-width:0.25;stroke-linecap:butt;stroke-linejoin:miter;stroke-miterlimit:4;stroke-dasharray:none;stroke-opacity:1" />
      <path
         sodipodi:nodetypes="ccccccc"
         inkscape:connector-curvature="0"
         id="path4184"
         d="m 24.722808,54.403552 c 2.788496,0.741409 10.483351,0.642491 12.871112,-0.0504 0.44639,-7.947496 0.232983,-24.913196 0.129293,-33.299576 -0.0106,-0.788557 -0.407381,-1.441581 -0.915179,-1.495535 -3.796389,0.200291 -7.258016,0.126686 -10.736607,0.06696 -0.32559,10e-4 -0.819564,0.570833 -0.959821,1.361607 -0.697166,11.091685 -0.698307,22.241373 -0.388798,33.416947 z"
         style="fill:none;fill-rule:evenodd;stroke:#000000;stroke-width:0.25;stroke-linecap:butt;stroke-linejoin:miter;stroke-miterlimit:4;stroke-dasharray:none;stroke-opacity:1" />
    </g>
    <path
       style="display:inline;opacity:1;fill:#000000;fill-opacity:0.44859811;fill-rule:evenodd;stroke:none;stroke-width:1px;stroke-linecap:butt;stroke-linejoin:miter;stroke-opacity:1"
       d="m 48.080706,57.188386 c -12.178352,0.211686 -23.853587,0.07949 -31.971525,0.01292 -3.389298,-9.802718 -6.644633,-20.88831 -10.169575,-31.862713 5.490921,11.946099 6.367366,19.615267 14.750662,26.208567 6.025034,4.738571 15.106093,4.469879 27.390438,5.641226 z"
       id="path4283-0"
       inkscape:connector-curvature="0"
       sodipodi:nodetypes="cccsc" />
    <path
       style="display:inline;opacity:1;fill:#f9f9f9;fill-opacity:1;fill-rule:evenodd;stroke:none;stroke-width:1px;stroke-linecap:butt;stroke-linejoin:miter;stroke-opacity:1"
       d="M 32.139902,8.0498411 C 42.693424,15.370052 45.237292,17.573924 56.235872,26.109784 47.345471,23.496154 34.093351,10.724756 32.139902,8.0498411 Z"
       id="path4281-0"
       inkscape:connector-curvature="0"
       sodipodi:nodetypes="ccc" />
  </g>
</svg>