<svg xmlns="http://www.w3.org/2000/svg" xmlns:xlink="http://www.w3.org/1999/xlink" cursor="default" viewBox="0 0 256 256">
    <defs>
        <linearGradient id="mooMilker1">
            <stop offset="0" stop-color="#e6e6e6"/>
            <stop offset="1" stop-color="#f9f9f9"/>
        </linearGradient>
        <linearGradient id="linearGradient5135-6-0-9-9" x1="110.612" x2="158.594" y1="152.964" y2="106.876" gradientTransform="matrix(1.05 0 0 1.05 -16.413 -12.766)" gradientUnits="userSpaceOnUse" xlink:href="#mooMilker1"/>
    </defs>
    <path fill="#f8f4e7" fill-rule="evenodd" d="M92.846 177.453c.797 6.253 1.894 12.754 2.1 20.725.416 16.052-4.499 23.53-7.172 36.422-1.072 5.165 1.528 9.642 4.347 11.233 16.853 9.512 66.165 9.138 77.16.907 3.327-2.49 5.162-6.496 3.478-11.119-4.998-13.72-6.914-24.72-6.847-36.195.047-8.042 1.283-14.276 2.189-20.61-11.837 1.865-54.816 5.982-75.255-1.363z"/>
    <path fill="#f55" fill-rule="evenodd" stroke="#000" stroke-width="1.05" d="M227.343 138.24c-28.41-5.005-38.241-22.467-41.589-69.157-.983-13.705-9.42-20.528-14.929-24.752 6.145-4.262-.819-3.37 6.579-4.81 19.213-2.569 10.855 81.366 49.94 98.72z"/>
    <path fill="#ccc" fill-rule="evenodd" stroke="#000" stroke-width="1.05" d="M170.263 71.877c13.403-1.729 9.537-10.173 11.27-16.44-3.622-3.516-7.446-4.808-10.74-5.701z"/>
    <path fill="#f2f2f2" fill-rule="evenodd" stroke="#000" stroke-width="1.05" d="M114.087 60.003c-2.123 9.632 56.535 17.132 58.688 9.656 2.278-7.914-56.988-17.368-58.688-9.656z"/>
    <path fill="none" stroke="#000" stroke-width=".525" d="M144.931 95.44c.777-17.295-2.37-28.965 2.813-28.593M130.587 65.16c3.199.144 2.264 12.216 2.25 22.124"/>
    <path fill="#e6e6e6" fill-rule="evenodd" stroke="#000" stroke-width="1.05" d="M115.212 57.19c-4.764-.011 3.066-11.646 4.97-12.093 16.793-3.95 33.847-.58 51.374 6.688 2.196.91 3.41 16.119 1.312 15.25-19.817-8.22-38.83-9.8-57.656-9.845z"/>
    <path fill="#ececec" fill-opacity=".502" fill-rule="evenodd" stroke="#000" stroke-width="1.05" d="M152.1 101.575c-1.358-8.622 3.844-16.827 13.39-19.357 15.958-4.228 16.337-11.826 16.308-31.289-31.211-10.774-38.714-7.425-60.988-7.027-15.112 16.065-2.39 12.593.928 44.68z"/>
    <path fill="none" stroke="#000" stroke-width=".525" d="M103.212 85.644c-5.972-3.26 3.391-30.588 8.907-27.422"/>
    <path fill="#f9f9f9" fill-opacity=".502" fill-rule="evenodd" stroke="#000" stroke-width="1.05" d="M104.105 85.666c-7.395-3.461-6.662-4.497-10.264-3.204l-27.71 9.943c-32.82 2.11 18.653-104.785 32.881-63.904l7.027 24.527c.8 2.79 1.557 2.018 8.54 6.386 8.528 16.169.626 28.038-10.474 26.252z"/>
    <path fill="#d7e3f4" fill-opacity=".502" fill-rule="evenodd" stroke="#000" stroke-width="1.244" d="M98.207 139.403c-11.31 25.792-3.835 36.587-3.26 58.775.415 16.052-4.5 23.53-7.173 36.422-1.072 5.165 1.528 9.642 4.347 11.233 16.853 9.512 66.165 9.138 77.16.907 3.327-2.49 5.162-6.496 3.478-11.119-4.998-13.72-6.914-24.72-6.847-36.195.125-21.24 8.537-29.866-2.717-61.044z"/>
    <path fill="url(#linearGradient5135-6-0-9-9)" fill-rule="evenodd" stroke="#000" stroke-width="1.05" d="M165.864 138.629c-.5-12.2-2.59-17.088-13.274-27.008l.029-10.743-19.414-14.223c-3.207-2.35 1.373-19.063-6.832-22.57l-14.602-6.241c8.236 5.26-2.67 28.196-8.614 27.583l22.368 10.763c2.735 1.316 3.503 9.864-3.685 11.213-14.162 2.657-27.19 18.487-27.308 31.32-.049 5.343 71.516 4.387 71.332-.094z"/>
    <path fill="#4d4d4d" fill-rule="evenodd" stroke="#000" stroke-width="1.018" d="M135.464 130.942c-4.541-3.127.208-11.303 4.55-11.09 4.436.218 2.584-4.758 6.33-3.587 5.402 1.69 11.505 5.913 13.648 6.693 4.859 1.77-17.79 12.623-24.528 7.984z"/>
    <path fill="none" stroke="#000" stroke-width=".5" d="M96.814 130.182c22.68 3.644 53.74 2.538 67.55-.253"/>
    <path fill="#ff8080" fill-rule="evenodd" stroke="#000" stroke-width="1.05" d="M56.412 97.138c4.794-2.282 9.49-4.318 14.896-6.459 15.977-19.155 26.25-38.207 28.459-59.833-1.258-4.143-1.817-8.637-2.387-13.125-6.756 26.322-18.023 52.742-40.968 79.417z"/>
    <path fill="#faa" fill-rule="evenodd" stroke="#000" stroke-width="1.05" d="M93.167 4.41c-20.955.866-62.81 89.422-45.892 95.838 21.134 8.015 64.88-94.071 46.875-95.812a7.148 7.148 0 0 0-.983-.027zm.5 18.216c-.792 8.71-15.055 50.22-32.615 66.292-.089-25.737 15.07-54.977 32.616-66.292z"/>
    <path fill-rule="evenodd" d="M61.712 88.202l-.397-.343c-2.318 2.822-4.721 4.85-6.811 5.808-2.056.943-3.883.887-5.073-.637 1.067 1.653 2.962 1.981 5.274 1.122 2.276-.847 4.886-2.82 7.405-5.608l-.398-.342zM94.154 23.233c.419-3.32.923-6.405.47-8.537-.231-1.083-.709-1.922-1.548-2.425-.825-.495-1.985-.654-3.584-.45 1.625-.119 2.724.142 3.44.669.701.516 1.047 1.3 1.174 2.295.258 2.028-.388 4.928-.99 8.29zM48.962 83.748c2.46-15.758 7.083-29.876 14.706-42.88 5.01-8.93 11.434-17.393 19.55-25.544-8.277 7.984-14.907 16.327-20.15 25.199-7.47 13.2-11.877 27.44-14.106 43.225z"/>
    <path fill="#e6e6e6" fill-rule="evenodd" stroke="#000" d="M145.3 34.111l4.917-1.031c-.4-5.039-3.438-9.984-4.916 1.031z"/>
    <path fill="#faa" fill-rule="evenodd" stroke="#000" d="M129.886 34.822l9.235-3.573c13.743.548 25.669.725 39.334-2.447 6.847-1.59 27.469 14.06 24.002 41.584-6.307 50.084 14.03 57.335 21.66 62.028 8.186 5.033 6.325 7.998-1.606 4.895-30.774-12.04-27.929-36.405-31.757-66.816-2.314-18.388-9.556-28.456-11.068-27.57L176.136 45z"/>
    <path fill="#ff8080" fill-rule="evenodd" stroke="#000" stroke-width="1.05" d="M119.9 45.472s1.045-10.932 10.946-11.224c23.986-.705 41.315 6.092 45.636 8.084 6.392 2.946 5.464 9.936 5.534 14.265-16.32-11.64-54.836-15.797-62.116-11.125z"/>
    <ellipse cx="129.552" cy="163.768" fill="#f2f2f2" stroke="#000" stroke-linecap="round" stroke-linejoin="round" stroke-width="1.022" rx="25.736" ry="7.986"/>
    <path fill="none" stroke="#000" stroke-linecap="round" stroke-linejoin="round" stroke-width="1.022" d="M110.892 165.69l.761-5.515s1.395 6.04 1.395 5.516c0-.526 1.268-4.86 1.268-4.86l1.269 4.597 2.41-4.99-1.903 4.859 3.804-1.576-2.029-3.283 4.439.262-2.41 3.94 4.312-.131-2.156-3.546M128.393 165.953l1.141-5.384 1.142 2.495s.887-2.889.887-2.232c0 .656.508 5.515.508 5.515l2.156-5.647-.38 3.546s2.409-4.07 2.155-3.546c-.254.526-1.649 6.698-1.649 6.698l3.17-.788.254-6.304 1.776 1.708-2.03 2.626 2.917 1.05 1.015-5.384v5.385l3.043-.132-3.423-2.495h1.775l-2.283-2.1 5.073-.264-.38 5.385.76-5.253 2.917.919-3.297 1.576 3.297 2.626"/>
    <path fill="none" stroke="#1c1f24" stroke-linecap="round" stroke-width=".953" d="M99.21 179.083c-.393 7.761 1.88 16.645 1.443 33.178-.385 14.556-3.076 20.756-3.374 28.978M96.908 240.876c4.03 1.726 6.541 1.894 13.52 2.392M98.951 230.274c2.554 1.118 5.857 1.727 9.2 1.922M100.428 219.546c4.03 1.726 5.86 2.12 12.838 2.62M100.882 208.212c1.9 1.341 4.3 1.626 8.746 2.125M100.768 198.218c4.03 1.726 5.975 1.894 12.953 2.392M99.519 188.855c2.44 1.321 5.63 1.627 8.064 1.72M98.822 179.432c4.03 1.725 6.768 2.12 13.746 2.619"/>
    <path fill="#fff" fill-rule="evenodd" d="M162.018 147.075c1.392 2.662 2.801 5.083 3.971 7.476.416 2.39.68 4.79.71 7.516.063 5.708-.9 12.815-3.546 24.257 1.909-11.652 2.066-18.687 1.262-24.08-.38-2.54-.972-4.72-1.7-6.867-.071-2.6-.347-5.228-.697-8.302z"/>
    <path fill-rule="evenodd" d="M121.35 108.114c2.621-.58 4.553-.426 6.743.028-2.064-.782-4.053-1.326-6.902-1.066zM152.125 111.305l.48 3.698.57-3.686zM125.607 96.274l-.197.486c.28.02 1.119.277 1.929.528.407.127.81.253 1.144.35.335.1.592.168.718.181-.085-.091-.315-.243-.613-.42-.3-.18-.67-.386-1.043-.594-.751-.416-1.498-.825-1.74-1.018l-.198.487z"/>
    <path fill="#4d4d4d" fill-rule="evenodd" stroke="#000" stroke-width="1.05" d="M114.43 109.993c-6.398 3.273-12.057 8.898-15.688 15.108 3.11 2.703 6.024-.404 9.819-2.046 8.191-3.544 22.803-5.585 5.87-13.062zM137.592 89.868l-4.386-3.213c-3.208-2.35 1.372-19.063-6.833-22.57l-2.7-1.154c4.233 12.833-6.917 12.087-5.137 16.554 3.06 7.678 15.044 12.516 19.056 10.383z"/>
    <path fill="#333" fill-rule="evenodd" stroke="#000" stroke-width="1.05" d="M118.497 142.26c6.143.158 10.818.32 20.566-.11.77-3.588-21.431-6.094-20.566.11z"/>
</svg>
