<svg version="1.1" viewBox="0 0 256 256" xmlns="http://www.w3.org/2000/svg" xmlns:xlink="http://www.w3.org/1999/xlink">
 <defs>
  <linearGradient id="linearGradient839" x1="138.45" x2="144.01" y1="164.53" y2="99.526" gradientTransform="matrix(.9 0 0 .9 12.481 13.64)" gradientUnits="userSpaceOnUse">
   <stop stop-color="#241c22" offset="0"/>
   <stop stop-color="#241c22" offset=".51388"/>
   <stop stop-color="#483745" offset=".57226"/>
   <stop stop-color="#6c5367" offset=".62994"/>
   <stop stop-color="#483745" offset=".70222"/>
   <stop stop-color="#483745" offset="1"/>
  </linearGradient>
 </defs>
 <g>
  <text x="281.5004" y="268.27249" fill="#000000" font-family="'Courier New'" font-size="40px" font-weight="bold" letter-spacing="0px" word-spacing="0px" style="line-height:1.25" xml:space="preserve"><tspan x="281.5004" y="303.86359"/></text>
  <g stroke="#000" stroke-linecap="round">
   <g stroke-width=".225">
    <path d="m21.808 144.44 213.45 28.11c0.20569 1.5857 0.0706 3.1715-0.69801 4.7572l-211.72-27.147c-0.76244-1.8999-1.1574-3.8057-1.0281-5.7197z" fill="#1a1a1a"/>
    <path d="m24.196 143.97c-1.3585 0.16761-3.5666 1.8224-2.6847 4.1797l9.3097 24.886c0.39586 1.0582 0.86062 2.3676 2.6496 2.6632l193.55 31.973c1.6957 0.28013 2.9614-0.46841 3.1729-1.7085l5.4305-31.851c0.18026-1.0573-0.22891 2.1881-2.1966 1.922l-210.86-28.51c-1.6202-1.383 3.0715-3.7318 1.6322-3.5542z" fill="#221c24"/>
    <path d="m19.816 145.15-9.7509-28.476c-0.63893-1.8659 0.11349-3.0526 1.2081-3.8831l61.525-46.683c1.2963-0.98357 1.7645-1.0651 2.675-1.0355l159.03 5.1775c2.076 0.06758 2.4511 0.42344 2.5024 1.5532l2.7613 60.749c0.0836 1.8401-0.15552 3.6447-0.34516 5.5226l-3.5379 35.034c-0.1297 1.2843-1.0001 2.1292-2.071 1.9847l-212.97-28.735c-0.4306-0.0581-0.81555-0.56578-1.0355-1.2081z" fill="url(#linearGradient839)"/>
   </g>
   <path d="m117.11 140.77 0.62452 4.9876 4.2259-4.2095 2.8197 0.26166-4.8625 5.5504 5.9111 7.4339-3.6109-0.5861-4.1827-5.4903 0.58477 4.8063-2.5328-0.34218-0.7306-4.9484-5.7961-0.80038 0.58449 4.9903-2.7519-0.30437-1.2749-13.105 2.6144 0.28527 0.72962 5.8491 5.6266 0.74143-0.4627-5.5594z" fill="#deb406" stroke-width=".25755"/>
  </g>
 </g>
 <g fill="#fce792">
  <path d="m108.1 139.49c6e-3 0.0449-0.41252 0.23426-0.4068 0.27827 0.10333 0.7948 0.36958 1.871 0.65538 2.9055 0.28566 1.034 0.52061 1.8362 0.59888 2.4094-0.0621-0.45467-0.11243-1.527-0.16572-2.4806-0.0528-0.9445-0.13219-2.2879-0.21796-2.9476-6e-3 -0.0435-0.45807-0.12016-0.46378-0.16508z"/>
  <path d="m116.29 141.02c6e-3 0.0449-0.41252 0.23426-0.4068 0.27827 0.10333 0.7948 0.36958 1.871 0.65538 2.9055 0.28566 1.034 0.52061 1.8362 0.59888 2.4094-0.0621-0.45467-0.11243-1.527-0.16572-2.4806-0.0528-0.9445-0.13219-2.2879-0.21796-2.9476-6e-3 -0.0435-0.45807-0.12016-0.46378-0.16508z"/>
  <path d="m123.46 142.07c-0.03 0.0339-0.44825-0.15533-0.47753-0.12199-0.52894 0.60216-1.1618 1.5124-1.7504 2.4099-0.58836 0.89704-1.0359 1.6029-1.415 2.04 0.30063-0.3467 1.0731-1.0922 1.7543-1.7616 0.67478-0.66299 1.6317-1.6092 2.0707-2.109 0.029-0.033-0.21203-0.42346-0.18205-0.45739z"/>
 </g>
</svg>
