<svg version="1.1" viewBox="0 0 256 256" xmlns="http://www.w3.org/2000/svg">
 <g>
  <g stroke="#000" stroke-linecap="round" stroke-linejoin="round" stroke-miterlimit="10">
   <g stroke-width=".7125">
    <path d="m69.546 198.88 83.214 51.268 4.3797-144.27-94.549-29.885z" fill="#f55"/>
    <path d="m157.14 105.87 40.447-46.631-12.108 168.49-32.719 22.414z" fill="#f2f2f2"/>
    <path d="m197.59 59.243 1.8034-33.749-39.675 7.7288-2.5763 72.651z" fill="#ff2a2a"/>
    <path d="m159.72 33.222-100.99-17.261 3.8644 60.027 94.549 29.885z" fill="#f55"/>
    <path d="m159.72 33.222 39.675-7.7288-100.99-14.942-39.675 5.4102z" fill="#f55"/>
    <path d="m64.522 110.9 3.3492 1.2881-1.4874-34.763 37.351-11.254 47.456 38.048-1.2654 41.333 5.7966 1.9322-2.9627 102.66-83.214-51.268z" fill="#fff"/>
   </g>
   <path transform="matrix(1.3986 .81832 -.47959 1.4604 .47745 -148.8)" d="m120.41 134.92-6.5343-8.1752-10.133 2.3704 5.7559-8.7408-5.3858-8.9048 10.092 2.7731 6.8047-7.8739 0.48109 10.455 9.5913 4.0385-9.7943 3.6882z" fill="#f95" stroke-width=".4566"/>
   <g stroke-width=".7125">
    <path d="m69.433 196.2 83.197 49.947 0.25763-4.7661-83.697-49.593z" fill="#ff8080"/>
    <path d="m152.63 246.15 32.976-21.641 0.38644-4.122-33.105 20.997z" fill="#f55"/>
    <path d="m155.72 147.48 36.712-15.973 5.1525-72.264-40.447 46.631z" fill="#ff2a2a"/>
   </g>
   <path transform="matrix(1.5683 -.046571 .5766 2.0332 -146.87 -117.71)" d="m120.41 134.92-6.5343-8.1752-10.133 2.3704 5.7559-8.7408-5.3858-8.9048 10.092 2.7731 6.8047-7.8739 0.48109 10.455 9.5913 4.0385-9.7943 3.6882z" fill="#ffb380" stroke-width=".39734"/>
  </g>
  <text x="71.593224" y="175.18645" fill="#000000" font-family="'Courier New'" font-size="40px" font-weight="bold" letter-spacing="0px" word-spacing="0px" style="line-height:1.25" xml:space="preserve"><tspan x="71.593224" y="210.26181"/></text>
 </g>
 <g fill="#dab376" stroke="#1a1a1a" stroke-linecap="round" stroke-linejoin="round" stroke-miterlimit="10">
  <path d="m166.3 220.11 12.805-7.614" stroke-width=".79456"/>
  <path d="m166.86 217.17 9.5813-5.5719" stroke-width="1.5679"/>
  <path d="m167.53 186.99 11.477-6.8314" stroke-width=".7125"/>
  <path d="m167.67 188.13 11.477-6.8314" stroke-width=".7125"/>
  <g stroke-width="1.5679">
   <path d="m167.16 212.32 9.5813-5.5719"/>
   <path d="m167.25 205.81 9.5813-5.5719"/>
   <path d="m167.84 198.84 9.5813-5.5719"/>
   <path d="m167.66 195.38 9.5813-5.5719"/>
   <path d="m168.11 190.28 9.5813-5.5719"/>
  </g>
  <g stroke-width=".61811">
   <path d="m166.53 215.6 10.115-5.8334"/>
   <path d="m166.94 210.27 10.115-5.8334"/>
   <path d="m167.03 208.31 10.115-5.8334"/>
   <path d="m167.25 203.85 10.115-5.8334"/>
   <path d="m167.3 201.57 10.115-5.8334"/>
   <path d="m167.76 192.37 10.115-5.8334"/>
  </g>
 </g>
 <g fill="none" stroke="#1a1a1a" stroke-linecap="round" stroke-linejoin="round" stroke-miterlimit="10">
  <path d="m177.82 210.4c0.72865-0.86964 0.30912-1.0157 0.27326-1.7762 0.77048 0.80917 1.53 0.22462 2.4138-0.18218" stroke-width=".475"/>
  <path d="m177.96 206.02c4.3457 2.6794 2.1287-5.4667 1.2694 0.24732" stroke-width=".57306"/>
  <path d="m178.85 193.23c4.3457 2.6794 2.1287-5.4667 1.2694 0.24732" stroke-width=".57306"/>
  <g stroke-width=".475">
   <path d="m178.05 203.78c0.24439-0.68313 0.27063-1.3663-0.0911-2.0494 0.89995-0.0954 0.97786 0.6313 1.3207 1.093 0.24211-2.9461 1.6605-2.3323 1.6851-0.18216"/>
   <path d="m178.23 200.5c0.24439-0.68313 0.27063-1.3663-0.0911-2.0494 0.89995-0.0954 0.97786 0.6313 1.3207 1.093 0.24211-2.9461 1.6605-2.3323 1.6851-0.18216"/>
   <path d="m178.28 190.46h2.687c0.20574-1.4092-0.22098-1.8698-1.2296-1.4574l1.6395-0.45543"/>
   <path d="m178.42 187.18h2.687c0.20574-1.4092-0.22098-1.8698-1.2296-1.4574l1.6395-0.45543"/>
   <path d="m178.89 184.19c0.72865-0.86964 0.30911-1.0157 0.27326-1.7762 0.77048 0.80918 1.53 0.22463 2.4138-0.18217"/>
  </g>
 </g>
 <path d="m62.59 75.988 94.549 29.885" fill="#f2f2f2" stroke="#000" stroke-linecap="round" stroke-linejoin="round" stroke-miterlimit="10" stroke-width=".7125"/>
 <g fill="#000000" font-size="40px" letter-spacing="0px" word-spacing="0px">
  <g font-family="'Courier New'">
   <text x="74.983047" y="165.15254" font-weight="bold" style="line-height:1.25" xml:space="preserve"><tspan x="74.983047" y="200.22791"/></text>
   <g>
    <text x="80.81356" y="165.96609" style="line-height:1.25" xml:space="preserve"><tspan x="80.81356" y="201.04146"/></text>
    <text x="89.491524" y="155.93221" style="line-height:1.25" xml:space="preserve"><tspan x="89.491524" y="191.00757"/></text>
    <text x="45.966103" y="152.54237" style="line-height:1.25" xml:space="preserve"><tspan x="45.966103" y="188.13348"/></text>
   </g>
  </g>
  <text x="71.52565" y="154.94365" font-family="Consolas" style="line-height:1.25" xml:space="preserve"><tspan x="71.52565" y="190.53476"/></text>
 </g>
 <g fill="#1a1a1a" stroke="#1a1a1a" stroke-miterlimit="10">
  <g stroke-linecap="round">
   <g stroke-linejoin="round">
    <g stroke-width=".7125">
     <path d="m74.878 183.44c0.23681-8.4437 5.4495-2.1806 6.3275 0.44826l-0.0394-2.2788c-4.4051-4.6274-8.0038-3.5659-7.9074 1.3389 0.06225 3.1682 2.7644 7.3277 7.9758 8.5677l0.02277-2.5272c-0.72316 3.3494-6.52-0.52661-6.3792-5.5488z"/>
     <path d="m86.312 194.63-3.188-1.7349 1.0019 0.4711 0.27326-5.5519-1.2296-0.6113 2.4138 1.1763-0.22771 5.6437z"/>
     <path d="m95.566 195.62c-1.1936-2.4818 3.0894-0.47633 4.4441 1.4221 0.0931 2.5822-8e-3 5.4464 1.3203 6.2359-0.82284-0.57726-1.5722-0.0375-2.3186-2.0651l-0.12881-4.2851c0.22566-1.2865-3.1822-2.8613-2.061-1.2882 0.34763 0.64178-0.81007 0.80806-1.2559-0.0197z"/>
     <path d="m98.657 201.18c-2.3953 0.329-3.65-0.79258-3.7034-2.441-0.07601-2.3487 2.0038-1.1526 3.7678-0.23088-1.0338-0.0376-3.1091-1.1032-2.6085 0.60326 0.56588 1.9288 1.696 1.5611 2.5441 2.0686z"/>
     <path d="m105.37 205.49-3.188-1.735 1.0019 0.47111 0.27326-5.5519-1.2296-0.61129 2.4138 1.1763-0.22772 5.6437z"/>
     <path d="m104.55 200.47c0.20623-0.0123 0.23124-1.6392 2.4152-0.18764 0.42869 0.34077 0.87232 2.2922-0.83728 1.1462-0.45024-0.33276-0.29671-0.75669-0.25763-1.1634-0.33271-0.60695-0.90312-0.0321-1.3203 0.20477z"/>
    </g>
    <path d="m92.392 192.87c0.166-8e-3 0.18613-1.081 1.9441-0.11832 0.34507 0.22581 0.70217 1.5144-0.67397 0.75436-0.36242-0.22057-0.23884-0.49993-0.20738-0.76815-0.26781-0.40121-0.72696-0.0233-1.0628 0.13211z" stroke-width=".51924"/>
    <g stroke-width=".7125">
     <path d="m113.89 207.12-4.4119-2.7419 2.9949 1.7536c-0.0466-0.95196 0.34828-2.1187-1.4814-2.8571-1.3344-0.5385-1.6191 0.39278-1.6746 1.3908-0.045 0.81027-0.0764 1.986 0.84434 2.9945 0.76145 0.83396 2.3573 1.7192 3.5031 0.71254-0.27188 2.285-2.8658 1.0915-4.1956-0.25196-1.2199-1.2324-1.798-2.623-1.5044-4.1203 0.4694-2.3938 1.7165-1.9431 3.1881-1.4959 2.2444 0.68206 3.0839 3.3404 2.7373 4.6157z"/>
     <path d="m131.89 217.33-4.4118-2.7419 2.9949 1.7536c-0.0466-0.95197 0.34828-2.1187-1.4814-2.8571-1.3344-0.5385-1.6191 0.39279-1.6746 1.3908-0.045 0.81028-0.0764 1.986 0.84434 2.9945 0.76145 0.83396 2.3573 1.7192 3.5031 0.71253-0.27188 2.285-2.8658 1.0915-4.1956-0.25196-1.2199-1.2324-1.798-2.6231-1.5044-4.1203 0.4694-2.3938 1.7165-1.9431 3.1881-1.4959 2.2444 0.68206 3.0839 3.3404 2.7373 4.6157z"/>
     <path d="m116.18 204.29v6.7305c0 2.5153 3.5026 2.7623 3.639 1.3773-1.248 0.49867-2.391-0.0106-2.383-1.0034 0.0375-4.6856 0.0322-6.73 0.0322-6.73z"/>
     <path d="m115.08 205.33 4.3152 2.2896"/>
     <path d="m121.52 207.42v6.7305c0 2.5153 3.245 2.6938 3.3814 1.3088-1.1514 0.50018-2.1334 0.0579-2.1254-0.93495 0.0375-4.6856 0.0322-6.73 0.0322-6.73z"/>
     <path d="m120.43 208.47 4.3152 2.2896"/>
     <path d="m133.57 219.57v2.1254c1.3874 1.783 4.6069 3.7115 4.8305 1.4603 0.32353-3.2564-4.2478-3.5174-3.961-5.8264 0.17104-1.3772 3.2393 1.277 3.3814 2.6936l0.0644-1.8024c-0.0902-0.4076-3.7727-3.4975-4.4119-1.1962-0.61891 2.2286 4.0213 3.4975 3.8322 5.6956-0.12033 1.3988-3.5563-1.4345-3.7356-3.15z"/>
     <path d="m88.749 190.52c-0.51546 0.0436-0.87008 0.34126-0.87949 0.96221-0.01472 0.97102 0.1318 1.5528 0.67539 2.2631-0.1219-0.0549-2.1253 2.152 2.1264 4.3176 0.89934 0.45806 2.0922 1.0284 2.1579 2.0302 0.16748 2.5538-4.7615-0.0957-4.2843-2.2899l-0.54736-0.45945c-1.5049 3.1487 5.401 6.5858 5.7965 3.0539 0.13367-1.1936-1.0182-2.5862-2.7609-3.4109-2.5596-1.2113-2.5251-2.4598-2.1004-2.6231 1.6998 1.2043 3.4795 1.9934 3.7666 0.73617 0.58401-2.5571-2.4039-4.7107-3.9503-4.5799zm1.3749 0.62824c0.16415-5e-3 0.34704 0.051 0.54736 0.18299 0.9793 0.64497 1.5272 4.6209-0.32285 3.6669-1.578-0.81368-1.3735-3.8185-0.22451-3.8499z"/>
    </g>
    <ellipse transform="matrix(.99988 .015643 0 1 0 0)" cx="84.965" cy="183.44" rx=".91791" ry=".99831" stroke-width=".71254"/>
    <path d="m69.895 160.04 0.46457 5.211c3.0972 2.6168 14.127 9.6227 14.655 3.2046 0.63113-7.6826-13.106-10.638-12.537-17.233 0.33969-3.9338 8.4003-0.29039 9.9251 6.5536l0.93233 0.34038-0.34594-4.8643c-1.2234-1.502-11.956-8.1742-13.14-2.9896-1.6153 7.0716 12.443 11.327 12.16 17.624-0.16057 3.5639-9.557 0.59385-10.955-7.4241z" stroke-width=".59526"/>
   </g>
   <path d="m89.437 161.57 0.55668 11.807c0.17375 3.6852 8.0584 6.9225 7.7799 3.1251l-0.99063-0.669c-1.1251 2.3584-4.1519-0.0666-4.1934-1.0922-0.33459-8.2703-0.39692-12.321-0.39692-12.321z" stroke-width=".55956"/>
  </g>
  <path d="m87.371 163.42 8.5942 4.1104" stroke-linecap="square" stroke-linejoin="round" stroke-width="1.3702"/>
  <g stroke-linecap="round" stroke-linejoin="round">
   <path d="m101.11 172.84c-2.8017-4.6893 10.415-1.9965 11.373 4.3731 0.40714 4.4457-1.7601 8.0706 2.9048 9.9024l0.13024 1.0115c-3.8295-1.6528-5.611-2.6802-5.7182-4.5464l-0.21886-7.4948c-0.15632-3.2549-4.4918-4.7815-5.8529-4.3804 2.499 2.5968-0.99572 3.8508-2.6186 1.1346z" stroke-width=".60727"/>
   <path d="m109.9 181.75c-0.12299 5e-3 0.37709 2.0183 0.25681 2.0205-4.8768 1.9432-9.2833-2.5773-9.5367-5.4883-0.35493-4.0781 5.1048-1.7994 9.0076 0.10851 0.16045 0.0785-0.0659 0.90723 0.0928 0.98385-3.5001-1.2381-6.0925-2.5109-5.8923 0.54082 0.18143 2.7647 4.8808 4.586 6.0716 1.8347z" stroke-width=".60727"/>
   <path d="m127.05 192.51 0.17936 1.1363-9.414-4.3554-0.0264-1.0683 2.7389 1.1482-0.60151-10.864-2.6707-1.2081-0.25117-1.3334 6.5384 2.9896 0.64248 12.132z" stroke-width=".66556"/>
   <path d="m123.57 183.91 0.0464-2.547c0.65791-0.66071 2.1361-1.9915 5.8161 0.0748 2.0765 1.1659 2.9438 5.66-0.90462 3.5072-1.3202-0.73847-1.616-2.4478-1.1922-3.1772-1.6237-0.59411-3.483 0.85286-3.7656 2.1423z" stroke-width=".66556"/>
   <path d="m143.33 201.11 0.18184 1.2178-9.3296-4.6678-0.0303-1.145 2.7139 1.2306-0.6373-11.643-2.6467-1.2947-0.25363-1.429 6.4797 3.2041 0.68275 13.002z" stroke-width=".6853"/>
   <path d="m139.87 191.9 0.036-2.7298c0.64828-0.70813 2.1054-2.1344 5.7538 0.0801 2.0587 1.2496 2.9342 6.0661-0.88125 3.7589-1.3088-0.79148-1.6081-2.6234-1.1917-3.4052-1.6086-0.63673-3.4422 0.91403-3.7168 2.296z" stroke-width=".6853"/>
  </g>
 </g>
 <g stroke-linecap="round" stroke-linejoin="round" stroke-miterlimit="10">
  <path d="m98.156 123.37 0.39719 4.2605c2.648 2.1395 12.078 7.8675 12.529 2.6201 0.5396-6.2813-11.205-8.6975-10.719-14.09 0.29043-3.2163 7.182-0.23742 8.4856 5.3582l0.79712 0.27829-0.29576-3.977c-1.046-1.228-10.222-6.6832-11.234-2.4443-1.381 5.7817 10.639 9.261 10.396 14.409-0.13727 2.9138-8.1709 0.48553-9.3663-6.0699z" fill="#ff7f2a" stroke="#ff7f2a" stroke-width=".49768"/>
  <path d="m66.291 138.5 88.486 39.642 0.25763-4.7661-88.985-39.288z" fill="#ff8080" stroke="#000" stroke-width=".7125"/>
  <path d="m154.78 178.15 35.688-18.793 0.38644-4.122-35.817 18.149z" fill="#f55" stroke="#000" stroke-width=".7125"/>
 </g>
 <g fill-opacity="0" stroke="#1a1a1a" stroke-linecap="round" stroke-linejoin="round" stroke-miterlimit="10">
  <path d="m168.75 159.01 1.8343-1.3998-1.2229-0.96233 2.7952 1.2248s-0.0874-2.887 0.26205-2.887c0.3494 0 2.3584 0.87484 2.3584 0.87484l0.1747-2.3621-2.1838 4.1993s2.9699-2.6245 3.3193-2.7995c0.3494-0.17497 1.1356-3.4994 1.1356-3.4994l1.5723 2.6245s1.747 0.26245 1.9217-0.17497-0.61145-2.2746-0.1747-2.2746 1.9217 0.96233 1.9217 0.96233l-0.96085 2.4496 1.6596-3.7618 0.8735 1.8372" stroke-width=".68381"/>
  <path d="m164.31 156.66 1.2596-0.93623-0.98851-0.36458 2.1829 0.32482s-0.2919-1.4961-0.031-1.5354c0.26085-0.0393 1.8294 0.19134 1.8294 0.19134l-0.055-1.2517-1.3006 2.4358s2.0112-1.7027 2.2583-1.8332c0.2471-0.13053 0.57304-1.9529 0.57304-1.9529l1.3798 1.1924s1.3248-0.0594 1.4209-0.30719c0.0961-0.2478-0.63505-1.1178-0.30899-1.1668 0.32605-0.0491 1.5102 0.28605 1.5102 0.28605l-0.52504 1.3857 0.94371-2.1487 0.79634 0.86016" stroke-width=".43153"/>
  <g stroke-width=".4908">
   <path d="m186.51 144.2-1.2867 1.1855 1.0098 0.46166-2.23-0.41131s0.2982 1.8944 0.0317 1.9442c-0.26648 0.0498-1.8689-0.24229-1.8689-0.24229l0.0562 1.585 1.3287-3.0843s-2.0546 2.1561-2.307 2.3214c-0.25243 0.16529-0.58541 2.4729-0.58541 2.4729l-1.4096-1.5098s-1.3534 0.0752-1.4516 0.38898c-0.0982 0.31378 0.64876 1.4154 0.31566 1.4775-0.33309 0.0622-1.5428-0.36222-1.5428-0.36222l0.53637-1.7547-0.96408 2.7209-0.81352-1.0892"/>
   <path d="m169.07 151.93-1.4096-1.5098s-1.3534 0.0752-1.4516 0.38898c-0.0982 0.31378 0.64876 1.4154 0.31566 1.4775-0.33309 0.0622-1.5428-0.36222-1.5428-0.36222l0.53637-1.7547-0.96408 2.7209-0.81352-1.0892"/>
   <path d="m176.14 145.7-1.2867 1.1855 1.0098 0.46166-2.23-0.41131s0.2982 1.8944 0.0317 1.9442c-0.26648 0.0498-1.8689-0.24229-1.8689-0.24229l0.0562 1.585 1.3287-3.0843s-2.0546 2.1561-2.307 2.3214"/>
  </g>
  <path d="m177.96 146.51 1.2596-0.93623-0.98851-0.36458 2.1829 0.32482s-0.2919-1.4961-0.031-1.5354c0.26085-0.0393 1.8294 0.19134 1.8294 0.19134l-0.055-1.2517-1.3006 2.4358s2.0112-1.7027 2.2583-1.8332c0.2471-0.13053 0.57304-1.9529 0.57304-1.9529" stroke-width=".43153"/>
 </g>
 <g fill="#fff" stroke="#000" stroke-linecap="round" stroke-linejoin="round" stroke-miterlimit="10" stroke-width=".46191">
  <rect transform="matrix(.98397 .17836 -.098632 .99512 0 0)" x="64.636" y="15.755" width="22.136" height="11.207" ry="6.0654"/>
  <rect transform="matrix(.98397 .17836 -.098632 .99512 0 0)" x="88.189" y="15.846" width="22.136" height="11.207" ry="6.0654"/>
  <rect transform="matrix(.98397 .17836 -.098632 .99512 0 0)" x="112.12" y="16.305" width="22.136" height="11.207" ry="6.0654"/>
  <rect transform="matrix(.98397 .17836 -.098632 .99512 0 0)" x="136.37" y="16.204" width="22.136" height="11.207" ry="6.0654"/>
 </g>
 <rect transform="matrix(.95197 -.3062 -.073857 .99727 0 0)" x="177.43" y="100.15" width="17.518" height="11.459" ry="6.2018" fill="#ececec" stroke="#000" stroke-linecap="round" stroke-linejoin="round" stroke-miterlimit="10" stroke-width=".41551"/>
 <rect transform="matrix(.95197 -.3062 -.073857 .99727 0 0)" x="198.12" y="102.64" width="17.518" height="11.459" ry="6.2018" fill="#ececec" stroke="#000" stroke-linecap="round" stroke-linejoin="round" stroke-miterlimit="10" stroke-width=".41551"/>
</svg>
