<svg version="1.1" viewBox="0 0 256 256" xmlns="http://www.w3.org/2000/svg" xmlns:xlink="http://www.w3.org/1999/xlink">
 <defs>
  <linearGradient id="linearGradient1745" x1="348.04" x2="362.61" y1="168.37" y2="185.72" gradientTransform="matrix(1.195 -.19017 .19017 1.195 -381.97 59.6)" gradientUnits="userSpaceOnUse">
   <stop stop-color="#ff8080" offset="0"/>
   <stop stop-color="#f55" offset="1"/>
  </linearGradient>
  <linearGradient id="linearGradient1753" x1="395.21" x2="380.02" y1="159.26" y2="141.04" gradientTransform="matrix(1.195 -.19017 .19017 1.195 -381.97 59.6)" gradientUnits="userSpaceOnUse">
   <stop stop-color="#fea" offset="0"/>
   <stop stop-color="#fff6d5" offset="1"/>
  </linearGradient>
 </defs>
 <g fill="#000000" font-size="40px" letter-spacing="0px" word-spacing="0px">
  <g font-family="'Courier New'">
   <text x="71.593224" y="175.18645" font-weight="bold" style="line-height:1.25" xml:space="preserve"><tspan x="71.593224" y="210.26181"/></text>
   <text x="74.983047" y="165.15254" font-weight="bold" style="line-height:1.25" xml:space="preserve"><tspan x="74.983047" y="200.22791"/></text>
   <g>
    <text x="80.81356" y="165.96609" style="line-height:1.25" xml:space="preserve"><tspan x="80.81356" y="201.04146"/></text>
    <text x="89.491524" y="155.93221" style="line-height:1.25" xml:space="preserve"><tspan x="89.491524" y="191.00757"/></text>
    <text x="45.966103" y="152.54237" style="line-height:1.25" xml:space="preserve"><tspan x="45.966103" y="188.13348"/></text>
   </g>
  </g>
  <text x="71.52565" y="154.94365" font-family="Consolas" style="line-height:1.25" xml:space="preserve"><tspan x="71.52565" y="190.53476"/></text>
 </g>
 <g stroke="#1a1a1a" stroke-linecap="round" stroke-linejoin="round" stroke-miterlimit="10" stroke-width=".9075">
  <path d="m123.94 161.15 107.42-121.57c-1.4527-1.9474-16.904-14.114-18.262-14.538l-107.37 119.8z" fill="#fff6d5" fill-opacity=".94393"/>
  <path d="m39.561 219.24c4.455 6.0052 11.768 13.306 18.457 16.328l50.044-56.833-18.559-15.49z" fill="url(#linearGradient1745)"/>
  <path d="m90.551 162.05 15.57-17.654c5.1603 5.4451 12.856 12.624 18.04 16.491l-15.344 16.987c-7.6229-4.1375-14.972-10.11-18.265-15.824z" fill="url(#linearGradient1753)"/>
 </g>
 <g fill="#ffd5d5">
  <path d="m48.772 219.56c0.12693 3.5592 1.5769 0.51781 3.292-3.8466-3.0397-0.38976-2.9627 1.9032-3.292 3.8466z"/>
  <path d="m63.951 204.37c0.45844 1.9301 3.7639 0.49869 1.8388-2.0328-2.4457-3.216-2.2168 0.44149-1.8388 2.0328z"/>
  <path d="m80.746 188.26c0.32432 0.84104 4.6006-0.24297 2.535-1.1789-2.6241-1.189-2.8024 0.48558-2.535 1.1789z"/>
  <path d="m97.536 182.62c0.63699 0.44795 5.6496-3.4068 2.8223-2.7152-3.5918 0.87866-3.3475 2.3458-2.8223 2.7152z"/>
  <path d="m54.132 216c-0.92192 1.3904 3.0225 1.6522 3.0476-0.64097 0.03191-2.9132-2.2875-0.50536-3.0476 0.64097z"/>
  <path d="m67.957 217.54c0.33364 1.1459 3.6955 0.069 1.9473-1.3515-2.221-1.8045-2.2223 0.40672-1.9473 1.3515z"/>
  <path d="m64.636 224.4c-1.6561 1.4947 0.43798 1.9991 2.2957-0.54704 2.36-3.2347-0.93025-0.68534-2.2957 0.54704z"/>
  <path d="m76.903 205.15c-1.1415 1.4302 1.2498 2.4672 2.1861-0.17045 1.1895-3.3508-1.2449-1.0087-2.1861 0.17045z"/>
  <path d="m59.105 198.5c-0.68334 0.93595 0.7183 3.405 1.2896 1.0288 0.72577-3.0188-0.72622-1.8004-1.2896-1.0288z"/>
  <path d="m71.325 187.23c1.0281-0.53473 0.86979-3.3695-0.69803-1.4947-1.9918 2.3817-0.14959 1.9356 0.69803 1.4947z"/>
  <path d="m90.526 189.37c0.58078 0.77565-3.6697 2.6648-0.233 4.7743 0.44273 0.27173 0.52115-3.1156 1.5226-3.7455 2.9086-1.8295-1.8622-1.7936-1.2896-1.0288z"/>
  <path d="m53.303 226.11c0.29297 1.369 1.9034 0.47285 0.85547-1.3659-1.3312-2.336-1.097 0.23719-0.85547 1.3659z"/>
  <path d="m58.814 232.08c-0.6773 0.48613 0.13832 1.4058 0.91288 0.30334 0.98406-1.4005-0.35442-0.70411-0.91288-0.30334z"/>
  <path d="m50.812 226.66c-0.6773 0.48612 0.13832 1.4058 0.91288 0.30334 0.98406-1.4005-0.35442-0.70413-0.91288-0.30334z"/>
  <path d="m49.635 224.72c-0.70615-0.44316-1.2491 0.65964 0.06441 0.9598 1.6686 0.38137 0.51781-0.59437-0.06441-0.9598z"/>
  <path d="m73.182 191.91c-0.6773 0.48613 0.13832 1.4058 0.91288 0.30334 0.98406-1.4005-0.35442-0.70413-0.91288-0.30334z"/>
  <path d="m86.228 169.87c0.28399 0.78384 1.3905 0.24853 0.53979-0.79624-1.0807-1.3273-0.77389 0.14999-0.53979 0.79624z"/>
  <path d="m85.061 180.56c-0.6773 0.48613 0.13833 1.4058 0.91288 0.30333 0.98406-1.4005-0.35442-0.70412-0.91288-0.30333z"/>
  <path d="m49.572 208.53c-0.6773 0.48611 0.13832 1.4058 0.91288 0.30333 0.98406-1.4005-0.35442-0.70412-0.91288-0.30333z"/>
 </g>
 <path d="m88.875 163.95 2.2209-2.5454c5.0754 5.5089 12.334 11.586 18.264 15.83l-2.3666 2.7053c-3.3456-2.6217-13.716-10.77-18.119-15.99z" fill="#fca" stroke="#1a1a1a" stroke-linecap="round" stroke-linejoin="round" stroke-miterlimit="10" stroke-width=".9075"/>
</svg>
