<svg version="1.1" viewBox="0 0 256 256" xmlns="http://www.w3.org/2000/svg">
 <g stroke="#000" stroke-linecap="round">
  <path d="m190.67 138.94c32.185-6.5365 48.759-42.751 52.881-51.525-24.045-0.67492-46.7 24.225-52.881 51.525z" fill="#3c2210" stroke-width=".52"/>
  <path d="m190.67 138.94 30.102-30.373-167.59-32.542-46.915 18.441c61.478 14.848 148.73 97.434 184.41 44.475z" fill="#e9c6af" stroke-width=".52"/>
  <path d="m188.33 135.15 12.356-11.351-51.452-11.578-12.403 10.445z" fill="#e6e6e6" stroke-width=".50255"/>
  <g stroke-width=".52">
   <path d="m243.56 87.415-154.98-24.949-35.39 13.559 167.59 32.542z" fill="#e9c6af"/>
   <path d="m240.03 152.23 3.5254-64.814-52.881 51.525c-12.642 27.947-20.923 55.889-3.2542 83.797z" fill="#deaa87"/>
   <path d="m190.67 138.94-184.41-44.475 9.7627 68.881 171.39 59.39z" fill="#d38d5f"/>
  </g>
 </g>
 <path d="m47.308 78.267 12.268-4.7293 164.86 31.369-0.18495 18.734-0.97242-1.46-0.67115 3.3598-0.70804-2.5462-0.78349 3.7665-1.108-1.7202-0.63825 4.2102-1.0848-2.3352-1.1012 4.1841 0.74377-18.464z" fill="#f0d7c7" fill-opacity=".91589" stroke="#000" stroke-linecap="round" stroke-width=".52"/>
 <text x="281.5004" y="268.27249" fill="#000000" font-family="'Courier New'" font-size="40px" font-weight="bold" letter-spacing="0px" word-spacing="0px" style="line-height:1.25" xml:space="preserve"><tspan x="281.5004" y="303.86359"/></text>
 <g fill="#d40000" stroke="#000" stroke-linecap="round" stroke-width=".25">
  <path d="m174.48 209.27c-73.32-61.91-87.648-68.853-155.11-102.65-3.3299-1.6682-2.328-4.1034 2.7891-1.8695 43.582 19.025 76.888 34.407 153.87 103.7 1.2356 1.1121-0.279 1.895-1.5491 0.82255z"/>
  <path d="m21.892 160.49c75.116-16.835 87.996-16.691 149.02-16.751 3.0124-3e-3 3.1311-1.9584-1.383-2.1735-38.446-1.8322-68.121-2.6716-148.48 17.861-1.2899 0.32954-0.45777 1.3551 0.84347 1.0635z"/>
  <path d="m197.41 201.61c19.512-58.445 23.454-65.214 41.989-98.083 0.91487-1.6224 0.56585-3.7847-0.84831-1.5891-12.044 18.7-21.228 33.751-41.606 98.984-0.32709 1.047 0.12773 1.7003 0.46575 0.68784z"/>
  <path d="m238.02 151.27c-22.005-12.553-23.689-11.012-41.224-8.9221-0.86558 0.10363-0.97853-1.7939 0.34279-2.01 14.26-2.333 17.492-5.7631 41.097 9.9428 0.37887 0.25207 0.16555 1.2068-0.21565 0.98933z"/>
 </g>
 <g fill="none" stroke="#000">
  <path d="m150.74 113.59-9.5403 8.4046" stroke-width=".81302"/>
  <path d="m153.88 114.39-9.4107 8.1318" stroke-width="1.626"/>
  <path d="m156.38 114.92-9.1477 7.9809m10.652-7.7964-9.5416 8.4051" stroke-width=".81302"/>
  <path d="m161.02 115.91-9.412 8.1323" stroke-width="1.626"/>
  <path d="m163.52 116.44-9.146 7.9807m10.701-7.5953-9.543 8.4056" stroke-width=".81302"/>
  <path d="m168.22 117.63-9.412 8.1323" stroke-width="1.626"/>
  <path d="m173.02 118.84-9.5412 8.4054" stroke-width=".81302"/>
  <path d="m175.57 119.26-9.4107 8.1318" stroke-width="1.626"/>
  <path d="m180.34 120.44-9.5413 8.4054" stroke-width=".81302"/>
  <path d="m182.86 120.92-9.412 8.1323" stroke-width="1.626"/>
  <path d="m184.94 121.47-9.1473 7.9812m14.94-6.6647-9.5586 8.2361" stroke-width=".81302"/>
  <path d="m193.86 123.41-9.412 8.1323" stroke-width="1.626"/>
  <path d="m196.1 124.03-8.8925 7.8998" stroke-width=".81302"/>
  <path d="m188.35 122.47-9.4134 8.1329m-1.2075-10.759-9.4134 8.1328" stroke-width="1.626"/>
  <path d="m166.38 117.23-9.5412 8.4054" stroke-width=".81302"/>
  <path d="m170.22 118.38-9.4134 8.1329" stroke-width="1.626"/>
 </g>
 <path d="m143.4 104.74 19.272-18.401-42.502-6.8322-23.114 15.191z" fill="#e6e6e6" stroke="#000" stroke-linecap="round" stroke-width=".50255"/>
 <g fill="none" stroke-linecap="round">
  <path d="m119.54 82.403c0.29806-0.09225 2.121-1.4021 2.0005-0.67884-0.12034 0.72361 0.14428 0.9773 0.14428 0.9773s1.5409-0.08353 2.1348 0.14109c0.59387 0.22461 2.4048 1.3709 2.4048 1.3709l1.3142-1.5023 1.3632 1.4897s2.8372-0.10599 3.4942 0.24498c0.65694 0.35097 0.98054 1.55 1.4914 1.3329 0.51107-0.21667 3.3049-0.13409 4.1534 0.18683 0.84801 0.32075 2.9259 1.3116 2.9259 1.3116l4.6579 1.1979 1.1819-0.52711m-26.564-3.5875s1.72 2.3424 2.1463 2.0934c0.42602-0.24884 1.9198-1.5296 2.0991-1.3079 0.17978 0.22188 0.44772 1.8612 0.85257 1.7066 0.40408-0.15464 1.2077-1.4401 2.3734-0.89666 1.1662 0.5436 1.744 1.8387 2.0101 1.6833 0.26641-0.15561 2.2278-1.4645 2.2278-1.4645" stroke="#000" stroke-linejoin="round" stroke-width=".73863"/>
  <path d="m143.75 93.307c-0.30063 0.08348-2.1612 1.3394-2.0195 0.61996 0.14148-0.71978-0.1156-0.98111-0.1156-0.98111s-1.5427 0.03837-2.1297-0.20354c-0.58704-0.24191-2.3636-1.4408-2.3636-1.4408l-1.3576 1.4632-1.319-1.529s-2.935 0.21461-3.5814-0.15545m12.242 0.24948s-1.6506-2.3918-2.0841-2.1553c-0.43312 0.23626-1.9638 1.4727-2.1365 1.2459-0.1732-0.22705-0.39302-1.8735-0.80223-1.7308-0.40843 0.14274-1.2493 1.4041-2.3987 0.82677" stroke="#000" stroke-linejoin="round" stroke-width=".73863"/>
  <path d="m115.15 90.513c2.7483 1.4384 7.5231 3.1514 8.2456 6.6156" stroke="#a00" stroke-width=".52"/>
  <path d="m113.52 94.636c1.6078-2.1014 9.1414-1.9426 12.177-1.5341" stroke="#a00" stroke-width=".52"/>
 </g>
</svg>
