<svg xmlns="http://www.w3.org/2000/svg" xmlns:xlink="http://www.w3.org/1999/xlink" viewBox="0 0 256 256">
    <defs>
        <linearGradient id="dyeBrushGradient">
            <stop offset="0" stop-color="#f0c"/>
            <stop offset="1" stop-color="#f0c" stop-opacity="0"/>
        </linearGradient>
        <radialGradient id="radialGradient4244" cx="227.857" cy="56" r="50.607" fx="227.857" fy="56" gradientTransform="matrix(1.4784 .0216 -.02125 1.45401 -183.198 20.32)" gradientUnits="userSpaceOnUse" xlink:href="#dyeBrushGradient"/>
    </defs>
    <ellipse cx="152.477" cy="106.668" fill="url(#radialGradient4244)" opacity=".5" rx="90.434" ry="85.303"/>
    <path fill="#6c5353" fill-rule="evenodd" stroke="#000" stroke-width="1.254" d="M71.779 199.527c-2.577 3.521-12.165 14.901-23.11 26.9l-9.374-6.355 7.526-.233-10.884-7.205c13.158-13.603 21.912-22.268 25.726-25.438z"/>
    <path fill="#7f5d53" fill-rule="evenodd" stroke="#000" stroke-width="1.254" d="M139.599 103.985c5.958-6.119 11.416-15.084 18.702-19.119 5.506-3.765 13.789 3.277 12.715 5.28-4.906 8.382-12.559 15.992-18.271 23.11z"/>
    <path fill="#e6e6e6" fill-rule="evenodd" stroke="#000" stroke-width="1.254" d="M72.727 200.425l-13.808-12.23 66.572-67.61 14.17-18.424 14.462 10.31-13.52 12.376z"/>
    <path fill="#fff" fill-rule="evenodd" d="M140.08 105.58c-1.05 2.373-2.63 4.588-4.5 6.661-1.931 3.03-4.487 5.995-7.289 8.871-4.822 4.95-10.798 10.006-14.68 14.043 4.239-3.754 10.394-8.3 15.648-13.036 3.008-2.71 5.858-5.595 8.117-8.638 1.387-2.652 2.345-5.3 2.704-7.902z"/>
    <path fill-rule="evenodd" d="M159.804 83.455c-.732.743-1.785 2.049-3.006 3.611-1.276 1.633-2.636 3.417-4.216 5.436-3.076 3.93-6.546 8.177-9.505 10.855 3.106-2.529 6.743-6.649 9.99-10.458 1.624-1.905 3.147-3.728 4.457-5.234 1.313-1.511 2.4-2.687 3.13-3.287zM164.335 84.067c-3.128 7.566-10.047 11.994-15.17 18.348 5.21-5.811 12.742-10.3 16.316-17.84zM167.062 85.15c-3.696 5.951-9.297 10.146-13.984 15.54-1.597 1.944-2.742 4.142-4.403 5.955 1.768-1.625 3.213-3.839 4.87-5.536 4.633-5.02 10.656-9.375 14.572-15.28zM169.433 87.233c-4.736 6.764-12.859 13.032-16.923 20.22 4.511-7.121 12.59-12.595 17.932-19.475zM162.328 83.481c-5.24 7.012-11.727 13.5-16.802 20.723 5.482-7.07 12.07-13.005 17.789-19.948z"/>
    <path fill="none" stroke="#000" stroke-width="2" d="M24.634 204.141l21.521 15.404-7.404.357 25.59 17.165"/>
</svg>
