<svg xmlns="http://www.w3.org/2000/svg" viewBox="0 0 64 64">
    <ellipse cx="31.82" cy="31.549" fill="#ff8080" stroke="#000" stroke-linecap="round" stroke-linejoin="round" stroke-width="1.128" rx="27.008" ry="26.625"/>
    <path fill="#f06" fill-rule="evenodd" d="M22.812 27.66c-5.014 2.155-6.094 5.534-4.598 9.51 3.514 9.338 15.51 13.361 18.661 12.723 2.845-.576 11.943-10.457 9.955-19.822-1.093-5.15-8.616-6.964-8.616-6.964-1.755 6.8-12.022 7.343-15.402 4.554z"/>
    <path fill="#f9f9f9" fill-rule="evenodd" d="M33.31 8.447c9.544 1.259 18.527 4.22 22.834 21.406C42.96 11.013 41.262 14.34 33.31 8.447z"/>
    <path fill-opacity=".449" fill-rule="evenodd" d="M43.352 55.124C18.555 65.584-2.419 42.116 7.64 20.864c.189 18.2 14.228 36.08 35.712 34.26z"/>
    <path fill="#deaa87" fill-rule="evenodd" stroke="#000" stroke-width=".5" d="M21.119 14.084c-.29-1.136 10.079-3.37 10.378-2.539-.452 1.86-9.103 4.566-10.378 2.54z"/>
    <path fill="#d38d5f" fill-rule="evenodd" stroke="#000" stroke-width=".5" d="M21.26 14.336l5.399 13.277c2.312.328 4.535.363 7.459-1.963L31.48 11.692c-3.8 2.16-7.126 2.674-10.22 2.644z"/>
    <path fill="#a5ceda" fill-opacity=".251" fill-rule="evenodd" stroke="#000" stroke-width=".5" d="M24.072 26.04c-6.242-.103-9.136 5.73-7.875 10.252 2.225 7.97 14.1 16.483 20.214 15.159 6.723-1.457 14.795-13.915 11.522-22.582-1.876-4.969-7.625-8.524-12.056-6.455l-2.647-6.582c-3.375 1.644-6.337 2.7-11.37 3.24z"/>
    <path fill-rule="evenodd" d="M23.974 25.984c-.091.073-.18.147-.269.224.238.471.535.901.898 1.205.396.331.846.49 1.341.424-.49-.048-.84-.313-1.094-.66-.24-.327-.412-.752-.53-1.206-.114.007-.23.011-.346.013zM35.622 22.383c.363.74.313 1.305.065 1.85-.262.574-.694 1.038-1.027 1.59.385-.449.94-.906 1.296-1.438.375-.56.583-1.271.236-2.24z"/>
    <path fill="#a4cedb" fill-opacity=".502" fill-rule="evenodd" stroke="#000" stroke-width=".5" d="M21.736 16.011c-.728-.232-2.429 1.36-2.155 2.289.46 1.558 4.253.584 8.038-.262 2.655-.594 7.55-2.729 7.22-4.22-.242-1.094-3.057-.426-3.057-.426.067.374.502.627.087 1.158-3.187 2.114-6.4 2.716-9.495 2.645-.99-.11-.638-1.184-.638-1.184z"/>
    <path fill="#fff" fill-rule="evenodd" d="M39.375 27.036c.716.897 1.147 1.769 1.35 2.57 1.223 1.075 1.837 2.312 2.123 3.69.442 2.131.056 4.028.188 5.793.325-1.475 1.183-3.655 1.21-5.917.018-1.636-.388-3.448-1.784-5.187-.944-.434-1.97-.736-3.087-.95z"/>
</svg>
