<svg xmlns="http://www.w3.org/2000/svg" xmlns:xlink="http://www.w3.org/1999/xlink" viewBox="0 0 256 256">
    <defs>
        <linearGradient id="linearGradient4708">
            <stop offset="0" stop-color="#17280b"/>
            <stop offset="1" stop-color="#5aa02c"/>
        </linearGradient>
        <linearGradient id="linearGradient4392">
            <stop offset="0" stop-color="#ffd42a"/>
            <stop offset="1" stop-color="#ffe680"/>
        </linearGradient>
        <linearGradient id="linearGradient4341">
            <stop offset="0" stop-color="#ff7f2a"/>
            <stop offset="1" stop-color="#ffb380"/>
        </linearGradient>
        <linearGradient id="linearGradient4230">
            <stop offset="0" stop-color="#ff2a2a"/>
            <stop offset="1" stop-color="#ff8080"/>
        </linearGradient>
        <radialGradient id="radialGradient4238" cx="131.856" cy="71.981" r="28.943" fx="131.856" fy="71.981" gradientTransform="matrix(1.02616 .64117 -.45255 .7243 57.903 -55.731)" gradientUnits="userSpaceOnUse" xlink:href="#linearGradient4230"/>
        <radialGradient id="radialGradient4238-8-9-7" cx="131.856" cy="71.981" r="28.943" fx="131.856" fy="71.981" gradientTransform="matrix(.55368 -.06633 .06957 .40864 36.157 29.36)" gradientUnits="userSpaceOnUse" xlink:href="#linearGradient4392"/>
        <radialGradient id="radialGradient4238-8-9-7-9" cx="131.856" cy="71.981" r="28.943" fx="131.856" fy="71.981" gradientTransform="matrix(.13537 .53995 -.4459 .1269 217.004 32.022)" gradientUnits="userSpaceOnUse" xlink:href="#linearGradient4392"/>
        <radialGradient id="radialGradient4238-8-4" cx="131.856" cy="71.981" r="28.943" fx="131.856" fy="71.981" gradientTransform="matrix(.27356 .80567 -.72438 .14867 188.952 28.5)" gradientUnits="userSpaceOnUse" xlink:href="#linearGradient4341"/>
        <radialGradient id="radialGradient4238-2" cx="131.856" cy="71.981" r="28.943" fx="131.856" fy="71.981" gradientTransform="matrix(.48074 .60818 -.46265 .4021 105.063 18.446)" gradientUnits="userSpaceOnUse" xlink:href="#linearGradient4230"/>
        <radialGradient id="radialGradient4238-8-9-7-0" cx="131.856" cy="71.981" r="28.943" fx="131.856" fy="71.981" gradientTransform="matrix(.55303 -.07898 .06949 .48658 33.338 77.274)" gradientUnits="userSpaceOnUse" xlink:href="#linearGradient4392"/>
        <radialGradient id="radialGradient4238-0" cx="131.856" cy="71.981" r="28.943" fx="131.856" fy="71.981" gradientTransform="matrix(.98496 -.41273 .33376 .67705 -76.203 88.864)" gradientUnits="userSpaceOnUse" xlink:href="#linearGradient4230"/>
        <radialGradient id="radialGradient4716" cx="127.916" cy="95.61" r="66.322" fx="127.916" fy="95.61" gradientTransform="matrix(1.02616 .64117 -.66872 1.07025 69.877 -82.524)" gradientUnits="userSpaceOnUse" xlink:href="#linearGradient4708"/>
    </defs>
    <path fill="#2d5016" fill-rule="evenodd" stroke="#000" stroke-width="1.21" d="M41.197 238.016c24.97-40.523 59.434-94 52.562-133.562l55.728 33.409c-41.26 3.743-65.761 63.962-94.685 108.654l-4.12-.133-2.654-4.517-4.79.418z"/>
    <path fill="url(#radialGradient4716)" fill-rule="evenodd" stroke="#000" stroke-width="1.21" d="M92.934 59.919c-3.517-13.457-5.287-27.23 2.975-42.821 19.831 7.375 30.843 15.353 21.672 24.711 5.96-12.244 13.828-23.18 35.043-24.945 4.356 8.738 3.667 22.342 3.341 35.597l34.933 28.515c18.712-10.84 35.815-9.552 51.942-.897-16.016 39.116-44.677 38.757-59.497 32.365-15.655 30.55-19.694 71.793-52.818 86.263-16.591-22.475-10.935-48.55-11.67-73.59-16.794-.343-35.01 2.834-46.838-9.808 5.108-14.713 21.353-24.547 31.406-23.116z"/>
    <path fill="#112b00" fill-rule="evenodd" d="M116.079 103.496a34.452 34.452 0 0 1-2.176-.451c-4.68 2.843-11.246 4.951-17.986 6.692-6.593 1.702-13.559 3.094-18.408 4.41 4.97-.844 11.954-1.713 18.73-2.954 6.809-1.246 13.814-2.93 19.092-5.534.293-.726.544-1.449.748-2.163zM110.935 58.085c.499-.591.975-1.23 1.427-1.905-.932-5.962-3.756-12.656-6.833-18.872-3.074-6.208-6.582-12.28-8.892-16.792 1.83 4.705 4.89 11.102 7.451 17.436 2.617 6.472 4.784 13.027 5.141 18.58a31.048 31.048 0 0 1 1.706 1.553zM129.296 56.806c.61-.422 1.237-.821 1.87-1.201 1.354-5.306 4.569-11.406 8.166-17.366 3.518-5.83 7.52-11.699 10.063-16.033-2.96 4.082-7.34 9.59-11.313 15.218-3.992 5.654-7.817 11.76-9.765 17.313.299.724.625 1.416.98 2.069zM197.327 94.966c.735.104 1.466.235 2.19.385 4.592-2.983 11.09-5.288 17.775-7.232 6.538-1.9 13.459-3.502 18.266-4.964-4.943.994-11.897 2.073-18.633 3.518-6.767 1.451-13.719 3.347-18.915 6.108-.271.735-.5 1.465-.683 2.185z"/>
    <path fill="#ff8080" fill-rule="evenodd" stroke="#000" stroke-width=".75" d="M67.443 57.603c50.199-26.815 74.676 35.38 24.27 45.79-34.944 31.055-94.525-28.408-24.27-45.79z"/>
    <path fill="#ff8080" fill-rule="evenodd" stroke="#000" stroke-width=".75" d="M56.181 88.563C35.884 54.879 91.645 37.705 97.62 71.693c24.936 23.325-30.605 64.213-41.438 16.87z"/>
    <path fill="url(#radialGradient4238-0)" fill-rule="evenodd" stroke="#000" stroke-width=".75" d="M86.703 96.353C52.087 118.056 30.341 70.801 66.169 61.7c23.296-24.627 70.284 19.76 20.534 34.653z"/>
    <path fill="#ffd5d5" fill-rule="evenodd" stroke="#000" stroke-width=".75" d="M63.782 70.42c-1.087-2.308-1.567-4.736 4.38-8.425 8.576-3.637 9.398-1.133 9.06.85-2.584 4.297-6.868 7.006-13.44 7.575z"/>
    <path fill="#faa" fill-rule="evenodd" stroke="#000" stroke-width=".75" d="M62.276 69.478l1.476 7.207c7.3 1.194 14.012-.978 19.779-8.577l-5.561-7.402c.516 1.754-8.458 9.766-15.694 8.772z"/>
    <path fill="#ff8080" fill-rule="evenodd" stroke="#000" stroke-width=".75" d="M61.196 76.174l1.488 8.474c10.873 2.125 20.08-.279 26.848-9.323l-7.374-11.941c-2.83 9.585-10.802 11.64-20.962 12.79z"/>
    <path fill="#f55" fill-rule="evenodd" stroke="#000" stroke-width=".75" d="M60.081 81.307c4.658 3.193 18.906 2.396 29.62-8.655l5.643 12.956c-9.17 7.563-19.768 10.087-31.994 6.855z"/>
    <path fill="none" stroke="#000" stroke-width=".75" d="M66.253 68.879c-2.717-2.001 10.403-11.337 6.333-3.608"/>
    <path fill="#ffe680" fill-rule="evenodd" stroke="#000" stroke-width=".75" d="M219.33 108.783c10.378 27.915-29.872 36.36-30.35 9.463-14.684-20.282 27.952-47.15 30.35-9.463z"/>
    <path fill="#ffe680" fill-rule="evenodd" stroke="#000" stroke-width=".75" d="M201.986 100.808c22.607-8.232 26.543 21.912 5.397 22.682-16.904 11.352-35.14-20.305-5.397-22.682z"/>
    <path fill="url(#radialGradient4238-8-9-7-9)" fill-rule="evenodd" stroke="#000" stroke-width=".75" d="M193.792 116.127c-9.09-19.47 21.853-27.522 23.218-8.287 12.15 13.79-19.965 35.151-23.218 8.287z"/>
    <path fill="#fff6d5" fill-rule="evenodd" stroke="#000" stroke-width=".75" d="M212.034 106.001c1.515-.406 3.032-.489 4.57 2.854 1.204 4.704-.398 4.96-1.553 4.647-2.29-1.637-3.428-4.048-3.017-7.5z"/>
    <path fill="#fea" fill-rule="evenodd" stroke="#000" stroke-width=".75" d="M212.775 105.284l-4.508.271c-1.557 3.71-1.02 7.346 2.892 10.863l5.094-2.38c-1.115.147-4.908-5.064-3.478-8.754z"/>
    <path fill="#ffe680" fill-rule="evenodd" stroke="#000" stroke-width=".75" d="M208.868 104.263l-5.272.191c-2.528 5.502-2.138 10.45 2.53 14.586l8.035-3.01c-5.446-2.129-5.768-6.41-5.293-11.767z"/>
    <path fill="#fd5" fill-rule="evenodd" stroke="#000" stroke-width=".75" d="M205.906 103.332c-2.457 2.2-3.613 9.656 1.809 15.98l-8.447 2.041c-3.5-5.282-3.803-10.96-.453-17.09z"/>
    <path fill="none" stroke="#000" stroke-width=".75" d="M212.679 107.39c1.516-1.274 5.63 6.182 1.444 3.538"/>
    <path fill="#ffb380" fill-rule="evenodd" stroke="#000" stroke-width=".75" d="M199.91 141.595c19.724 41.94-45.945 50.935-49.229 11.334-26.122-31.08 41.777-66.966 49.23-11.334z"/>
    <path fill="#ffb380" fill-rule="evenodd" stroke="#000" stroke-width=".75" d="M170.537 128.389c36.56-10.182 45.854 34.487 11.014 33.82-26.854 15.256-59.898-32.856-11.014-33.82z"/>
    <path fill="url(#radialGradient4238-8-4)" fill-rule="evenodd" stroke="#000" stroke-width=".75" d="M158.43 150.222c-16.813-29.41 33.526-38.618 37.563-10.212 21.339 21.318-29.701 50-37.563 10.212z"/>
    <path fill="#ffe6d5" fill-rule="evenodd" stroke="#000" stroke-width=".75" d="M187.609 136.883c2.462-.469 4.958-.461 7.808 4.585 2.424 7.022-.197 7.26-2.132 6.703-3.932-2.602-6.036-6.245-5.676-11.288z"/>
    <path fill="#fca" fill-rule="evenodd" stroke="#000" stroke-width=".75" d="M188.764 135.89l-7.417.016c-2.227 5.324-1.003 10.717 5.782 16.223l8.19-3.068c-1.827.123-8.572-7.865-6.555-13.17z"/>
    <path fill="#ffb380" fill-rule="evenodd" stroke="#000" stroke-width=".75" d="M182.22 134.057l-8.687-.168c-3.662 7.877-2.56 15.187 5.53 21.667l12.986-3.744c-9.188-3.593-10.116-9.918-9.83-17.755z"/>
    <path fill="#f95" fill-rule="evenodd" stroke="#000" stroke-width=".75" d="M177.243 132.434c-3.852 3.027-5.07 13.895 4.469 23.657l-13.757 2.284c-6.267-8.068-7.294-16.444-2.332-25.173z"/>
    <path fill="none" stroke="#000" stroke-width=".75" d="M188.8 138.98c2.386-1.744 9.87 9.572 2.714 5.327"/>
    <path fill="#ffe680" fill-rule="evenodd" stroke="#000" stroke-width=".75" d="M109.816 83.936c29.02-7.658 32.306 35.908 5.55 33.218-21.989 13.116-43.256-35.162-5.55-33.218z"/>
    <path fill="#ffe680" fill-rule="evenodd" stroke="#000" stroke-width=".75" d="M99.705 101.328c-5.307-24.884 25.108-25.464 23.195-3.012 9.127 19.224-24.6 34.746-23.195 3.012z"/>
    <path fill="url(#radialGradient4238-8-9-7-0)" fill-rule="evenodd" stroke="#000" stroke-width=".75" d="M113.872 111.813c-20.475 7.299-24.549-26.379-5.285-25.536 15.225-11.21 32.36 25.289 5.285 25.536z"/>
    <path fill="#fff6d5" fill-rule="evenodd" stroke="#000" stroke-width=".75" d="M106.132 91.32c-.211-1.65-.101-3.264 3.41-4.493 4.822-.715 4.873 1.01 4.416 2.194-1.914 2.226-4.451 3.144-7.826 2.298z"/>
    <path fill="#fea" fill-rule="evenodd" stroke="#000" stroke-width=".75" d="M105.514 90.451l-.301 4.8c3.485 2.087 7.161 1.951 11.147-1.768l-1.718-5.67c.006 1.197-5.647 4.588-9.128 2.638z"/>
    <path fill="#ffe680" fill-rule="evenodd" stroke="#000" stroke-width=".75" d="M104.006 94.462l-.478 5.597c5.14 3.327 10.1 3.502 14.797-.942l-1.971-8.854c-2.801 5.505-7.092 5.337-12.348 4.199z"/>
    <path fill="#fd5" fill-rule="evenodd" stroke="#000" stroke-width=".75" d="M102.707 97.483c1.872 2.86 9.126 4.968 16.088-.014l.958 9.175c-5.687 3.072-11.36 2.718-17.019-1.552z"/>
    <path fill="none" stroke="#000" stroke-width=".75" d="M107.592 90.803c-1.072-1.755 6.849-5.218 3.694-1.107"/>
    <path fill="#112b00" fill-rule="evenodd" d="M145 139.571c-.422.61-.868 1.205-1.327 1.784.604 5.442-.252 12.284-1.516 19.13-1.237 6.695-2.913 13.598-3.764 18.55 1.33-4.862 3.488-11.56 5.22-18.228 1.742-6.7 3.168-13.762 3.033-19.645a21.524 21.524 0 0 0-1.646-1.59z"/>
    <path fill="#ff8080" fill-rule="evenodd" stroke="#000" stroke-width=".75" d="M153.02 114.085c28.927 29.61-14.606 62.108-31.005 28.413-29.624-17.639 5.948-74.687 31.005-28.413z"/>
    <path fill="#ff8080" fill-rule="evenodd" stroke="#000" stroke-width=".75" d="M127.43 113.427c22.4-22.656 44.874 13.261 19.846 25.705-13.69 23.502-54.288-6.567-19.846-25.705z"/>
    <path fill="url(#radialGradient4238-2)" fill-rule="evenodd" stroke="#000" stroke-width=".75" d="M126.568 137.212c-22.407-19.648 10.142-46.6 23.102-23.059 22.754 10.818-3.38 55.207-23.102 23.059z"/>
    <path fill="#ffd5d5" fill-rule="evenodd" stroke="#000" stroke-width=".75" d="M142.593 114.532c1.586-1.335 3.365-2.262 7.184 1.123 4.219 5.285 2.439 6.476.864 6.709-3.722-.824-6.513-3.25-8.048-7.832z"/>
    <path fill="#faa" fill-rule="evenodd" stroke="#000" stroke-width=".75" d="M143.063 113.224l-5.272 2.789c.306 5.528 3.092 9.827 9.875 12.144l4.738-5.77c-1.256.792-8.892-3.729-9.341-9.163z"/>
    <path fill="#ff8080" fill-rule="evenodd" stroke="#000" stroke-width=".75" d="M137.755 114.056l-6.24 3.101c.19 8.317 3.57 14.351 11.628 17.04l7.911-8.16c-7.813.269-10.72-4.962-13.3-11.981z"/>
    <path fill="#f55" fill-rule="evenodd" stroke="#000" stroke-width=".75" d="M133.638 114.486c-1.666 4.111 1.327 14.15 11.58 19.192l-8.977 7.16c-7.325-4.77-11.03-11.773-10.6-21.327z"/>
    <path fill="none" stroke="#000" stroke-width=".75" d="M144.187 115.936c1.077-2.431 10.42 4.75 3.821 3.682"/>
    <path fill="#ff8080" fill-rule="evenodd" stroke="#000" stroke-width=".75" d="M179.215 55.734c57.961 29.09 12.486 89.992-29.535 50.53-52.484-12.56-31.847-103.748 29.535-50.53z"/>
    <path fill="#ff8080" fill-rule="evenodd" stroke="#000" stroke-width=".75" d="M141.776 64.689c20.183-39.399 72.211.743 42.687 27.28-7.107 37.196-82.227 11.973-42.687-27.28z"/>
    <path fill="url(#radialGradient4238)" fill-rule="evenodd" stroke="#000" stroke-width=".75" d="M153.414 97.33c-43.116-18.066-10.55-67.207 20.983-40.215 38.834 5.938 25.015 76.297-20.983 40.216z"/>
    <path fill="#ffd5d5" fill-rule="evenodd" stroke="#000" stroke-width=".75" d="M164.348 60.353c1.575-2.423 3.65-4.367 11.019-1.239 8.977 5.556 7.043 7.86 4.886 8.781-5.84.314-11.199-1.908-15.905-7.542z"/>
    <path fill="#faa" fill-rule="evenodd" stroke="#000" stroke-width=".75" d="M164.32 58.396l-6.129 5.818c3.44 7.392 9.805 12.159 20.89 12.696l3.74-9.66c-1.392 1.558-14.906-1.644-18.5-8.854z"/>
    <path fill="#ff8080" fill-rule="evenodd" stroke="#000" stroke-width=".75" d="M157.078 61.568l-7.361 6.616c4.782 11.224 12.95 18.12 26.082 18.672l7.043-14.13c-11.177 3.372-18.223-2.615-25.764-11.158z"/>
    <path fill="#f55" fill-rule="evenodd" stroke="#000" stroke-width=".75" d="M151.347 63.738c-.188 6.226 9.588 18.712 27.178 21.614l-9.13 13.182c-13.198-3.66-22.362-11.748-26.914-24.893z"/>
    <path fill="none" stroke="#000" stroke-width=".75" d="M167.417 61.647c.245-3.717 17.674 2.442 7.533 3.531"/>
    <path fill="#ffe680" fill-rule="evenodd" stroke="#000" stroke-width=".75" d="M112.724 34.956c29.053-6.431 32.343 30.156 5.556 27.897-22.015 11.015-43.307-29.53-5.556-27.897z"/>
    <path fill="#ffe680" fill-rule="evenodd" stroke="#000" stroke-width=".75" d="M102.601 49.562c-5.313-20.898 25.137-21.385 23.222-2.53 9.137 16.145-24.63 29.18-23.222 2.53z"/>
    <path fill="url(#radialGradient4238-8-9-7)" fill-rule="evenodd" stroke="#000" stroke-width=".75" d="M116.785 58.368c-20.5 6.129-24.578-22.154-5.292-21.446 15.243-9.414 32.397 21.238 5.292 21.446z"/>
    <path fill="#fff6d5" fill-rule="evenodd" stroke="#000" stroke-width=".75" d="M109.036 41.157c-.212-1.386-.102-2.74 3.414-3.773 4.827-.6 4.877.848 4.42 1.842-1.916 1.87-4.456 2.64-7.834 1.93z"/>
    <path fill="#fea" fill-rule="evenodd" stroke="#000" stroke-width=".75" d="M108.416 40.428l-.301 4.03c3.489 1.753 7.17 1.639 11.16-1.484l-1.72-4.762c.006 1.005-5.653 3.853-9.139 2.216z"/>
    <path fill="#ffe680" fill-rule="evenodd" stroke="#000" stroke-width=".75" d="M106.907 43.795l-.478 4.701c5.146 2.794 10.112 2.941 14.813-.79l-1.973-7.437c-2.804 4.624-7.1 4.482-12.362 3.526z"/>
    <path fill="#fd5" fill-rule="evenodd" stroke="#000" stroke-width=".75" d="M105.606 46.332c1.875 2.402 9.137 4.173 16.107-.011l.959 7.705c-5.693 2.58-11.373 2.283-17.039-1.303z"/>
    <path fill="none" stroke="#000" stroke-width=".75" d="M110.497 40.723c-1.073-1.474 6.857-4.383 3.698-.93"/>
    <path fill-rule="evenodd" d="M43.153 241.01c32.62-52.973 52.653-86.788 53.53-114.856-1.277 27.965-21.607 61.476-54.559 114.218z"/>
    <path fill-rule="evenodd" d="M46.116 242.383c22.415-34.853 41.84-66.763 57.601-112.406-16.133 45.485-35.896 77.164-58.616 111.746zM48 242.059c22.55-32.532 44.978-69.734 62.967-105.005-17.719 35.409-39.895 72.785-62.216 105.52zM51.652 246.363c22.126-37.128 41.37-72.905 66.794-98.766-25.741 25.609-45.36 61.223-67.83 98.142z"/>
    <path fill="#e9c6af" fill-rule="evenodd" stroke="#000" stroke-width="1.21" d="M62.726 200.646c-3.636 4.22-5.939 9.272-8.414 14.217l23.628-5.234a160.251 160.251 0 0 0 7.789-11.888z"/>
    <path fill="#e9c6af" fill-rule="evenodd" stroke="#000" stroke-width="1.163" d="M70.056 187.01c-3.252 4.401-5.617 9.172-7.733 14.045l23.492-3.516c3.177-3.784 5.26-7.722 7.578-11.582z"/>
    <path fill="#e9c6af" fill-rule="evenodd" stroke="#000" stroke-width="1.119" d="M76.798 174.025c-3.605 4.295-5.04 9.294-7.18 14.064l22.984-1.778c2.815-4.325 5.671-8.612 9.228-12.238z"/>
    <path fill="#f4e3d7" fill-rule="evenodd" d="M90.178 187.724c-6.378 1.105-13.015 2.29-19.779 2.69 6.794.002 13.5-.784 19.948-1.492zM82.664 200.102c-6.377 1.105-13.014 2.29-19.778 2.69 6.794.002 13.5-.784 19.948-1.492zM96.536 175.896l-.085-.599c-6.377 1.106-13.014 2.29-19.778 2.691 6.794.001 13.5-.785 19.948-1.493l-.085-.599z"/>
</svg>
