<svg xmlns="http://www.w3.org/2000/svg" viewBox="0 0 256 256">
    <path fill="none" stroke="#000" d="M64.63 212.975c10.224-14.244 133.031-15.491 126.772 6.948"/>
    <path fill="#deaa87" fill-rule="evenodd" stroke="#000" d="M106.158 23.818c1.75 9.031 30.548 16.415 44.198-1.2-5.274-2.327-28.34-4.145-44.198 1.2z"/>
    <path fill="#deaa87" fill-rule="evenodd" stroke="#000" d="M106.053 24.27c.188 12.69 2.824 25.382 5.005 38.074 9.603 5.698 26.46 3.878 31.97 0 3.01-13.018 7.765-25.73 7.616-39.186-8.503 4.572-30.278 6.46-44.59 1.111z"/>
    <path fill="#d5f6ff" fill-opacity=".238" fill-rule="evenodd" stroke="#000" d="M65.186 209.918c-10.7 41.88 132.568 40.533 126.494 6.948-10.471-57.9-67.136-100.636-43.37-173.698-9.352 2.18-21.296 11.038-40.588.278 13.44 72.801-28.357 110.981-42.536 166.472z"/>
    <path fill="none" stroke="#000" d="M102.578 118.344c-2.423 3.924 41.727 8.085 46.706-1.945"/>
    <path fill="#faa" fill-opacity=".238" fill-rule="evenodd" stroke="#000" d="M65.186 209.918c-10.7 41.88 132.568 40.533 126.494 6.948-6.482-35.844-30.669-65.876-42.515-100.89-6.324-2.563-26.574-6.233-46.697 2.055-10.524 31.822-28.82 58.772-37.282 91.887z"/>
    <path fill="#f9f9f9" fill-rule="evenodd" d="M160.566 151.932c3.044 7.425 7.064 16.167 10.947 25.862 6.311 12.741 12.195 26.824 14.046 39.701-.922-13.062-5.942-27.578-11.468-40.873-4.724-9.25-9.692-17.815-13.525-24.69z"/>
</svg>
