<svg xmlns="http://www.w3.org/2000/svg" viewBox="0 0 64 64">
    <path fill="#e6e6e6" fill-rule="evenodd" stroke="#000" stroke-width=".266" d="M31.946 26.006c-.173-5.723-2.093-7.81-3.87-10.28-3.065-4.254-.505-11.919 3.778-12.614 3.256-.528 7.476 2.303 7.967 5.749.573 4.01-5.988 11.362.123 12.973l-.255.576c-6.716-2.605-.764-7.375-.687-13.467.033-2.541-4.687-5.928-6.998-5.185-5.662 1.821-4.989 9.496-3.155 11.683 4.595 5.482 3.764 10.568 3.764 10.568z"/>
    <path fill="#ccc" stroke="#000" stroke-linecap="round" stroke-linejoin="round" stroke-width=".266" d="M32.11 26.076a5.642 3.406 0 0 0-5.642 3.406 5.642 3.406 0 0 0 5.642 3.405 5.642 3.406 0 0 0 5.641-3.405 5.642 3.406 0 0 0-5.64-3.406zm0 .59a4.663 2.815 0 0 1 4.662 2.816 4.663 2.815 0 0 1-4.662 2.814 4.663 2.815 0 0 1-4.663-2.814 4.663 2.815 0 0 1 4.663-2.815z"/>
    <path fill="#b3b3b3" fill-rule="evenodd" stroke="#000" stroke-width=".531" d="M29.751 33.517l-.047-2.658h5.172v2.895z"/>
    <ellipse cx="32.078" cy="46.813" fill="#ccc" stroke="#000" stroke-linecap="round" stroke-linejoin="round" stroke-width=".531" rx="13.835" ry="13.693"/>
    <ellipse cx="32.078" cy="46.813" fill="#ff8080" rx="11.434" ry="11.317"/>
    <path fill="#ccc" fill-rule="evenodd" stroke="#000" stroke-width=".531" d="M29.11 31.097l6.383-.024-.024-1.732c-.025-1.835-6.41-1.9-6.382.071z"/>
    <path fill="none" stroke="#000" stroke-width=".266" d="M29.078 29.37c2.094-.069 4.215-.044 6.373-.018"/>
    <path fill="#e6e6e6" fill-rule="evenodd" stroke="#000" stroke-width=".266" d="M31.412 25.806v1.186c.62.26 1.155.22 1.732.024l-.024-1.234c-.638-.396-1.196-.275-1.708.024z"/>
    <path fill="none" stroke="#000" stroke-dasharray=".2657205,.2657205" stroke-width=".266" d="M32.244 25.71c.082-2.989-1.373-7.083-3.863-10.281-3.987-5.122 1.57-17.125 9.335-9.67 5.677 5.451-5.909 13.793 2.013 16.434"/>
    <path fill="none" stroke="#ffd5d5" stroke-width=".5" d="M32.199 47.143c.237.554-.63.593-.921.395-.789-.539-.485-1.704.131-2.236 1.102-.953 2.772-.449 3.552.657 1.144 1.624.417 3.857-1.184 4.867-2.134 1.346-4.948.389-6.182-1.71-1.553-2.64-.361-6.042 2.236-7.497 3.146-1.762 7.138-.335 8.813 2.762 1.972 3.65.308 8.235-3.289 10.128-4.152 2.185-9.333.283-11.443-3.815-2.397-4.655-.257-10.431 4.34-12.758 5.159-2.61 11.531-.232 14.074 4.867a11.164 11.164 0 0 1 1.155 4.444"/>
    <path fill="none" stroke="#ff2a2a" stroke-width=".5" d="M31.906 46.85c-.5-.317.181-.828.527-.828.937 0 1.335 1.111 1.131 1.884-.365 1.382-1.997 1.897-3.24 1.432-1.826-.681-2.473-2.893-1.735-4.597.983-2.271 3.793-3.053 5.954-2.036 2.719 1.28 3.637 4.694 2.338 7.31-1.573 3.169-5.597 4.222-8.667 2.64-3.618-1.864-4.808-6.5-2.942-10.024 2.155-4.068 7.404-5.395 11.38-3.243 4.52 2.444 5.983 8.307 3.546 12.737-2.734 4.97-9.212 6.57-14.094 3.847-2.442-1.362-4.287-3.661-5.128-6.324"/>
    <ellipse cx="32.078" cy="46.813" fill="none" stroke="#000" stroke-linecap="round" stroke-linejoin="round" stroke-width=".535" rx="11.434" ry="11.317"/>
</svg>
