<?xml version="1.0" encoding="UTF-8" standalone="no"?>
<!-- Created with Inkscape (http://www.inkscape.org/) -->

<svg
   xmlns:dc="http://purl.org/dc/elements/1.1/"
   xmlns:cc="http://creativecommons.org/ns#"
   xmlns:rdf="http://www.w3.org/1999/02/22-rdf-syntax-ns#"
   xmlns:svg="http://www.w3.org/2000/svg"
   xmlns="http://www.w3.org/2000/svg"
   xmlns:sodipodi="http://sodipodi.sourceforge.net/DTD/sodipodi-0.dtd"
   xmlns:inkscape="http://www.inkscape.org/namespaces/inkscape"
   viewBox="0 0 256 256"
   id="svg2"
   version="1.1"
   inkscape:version="0.92.3 (2405546, 2018-03-11)"
   sodipodi:docname="impArcaneKey3.svg">
  <defs
     id="defs4">
    <inkscape:path-effect
       effect="powerstroke"
       id="path-effect902"
       is_visible="true"
       offset_points="0.26478366,0.45041068"
       sort_points="true"
       interpolator_type="CubicBezierJohan"
       interpolator_beta="0.2"
       start_linecap_type="zerowidth"
       linejoin_type="extrp_arc"
       miter_limit="4"
       end_linecap_type="zerowidth" />
    <inkscape:path-effect
       effect="powerstroke"
       id="path-effect898"
       is_visible="true"
       offset_points="0.11276863,0.68434736"
       sort_points="true"
       interpolator_type="CubicBezierJohan"
       interpolator_beta="0.2"
       start_linecap_type="zerowidth"
       linejoin_type="extrp_arc"
       miter_limit="4"
       end_linecap_type="zerowidth" />
    <inkscape:path-effect
       effect="powerstroke"
       id="path-effect894"
       is_visible="true"
       offset_points="0.66163925,0.74240698"
       sort_points="true"
       interpolator_type="CubicBezierJohan"
       interpolator_beta="0.2"
       start_linecap_type="zerowidth"
       linejoin_type="extrp_arc"
       miter_limit="4"
       end_linecap_type="zerowidth" />
    <inkscape:path-effect
       effect="powerstroke"
       id="path-effect890"
       is_visible="true"
       offset_points="0.48145638,1.5519001"
       sort_points="true"
       interpolator_type="CubicBezierJohan"
       interpolator_beta="0.2"
       start_linecap_type="zerowidth"
       linejoin_type="extrp_arc"
       miter_limit="4"
       end_linecap_type="zerowidth" />
    <inkscape:path-effect
       effect="powerstroke"
       id="path-effect4262"
       is_visible="true"
       offset_points="0,0.5"
       sort_points="true"
       interpolator_type="CubicBezierJohan"
       interpolator_beta="0.2"
       start_linecap_type="zerowidth"
       linejoin_type="round"
       miter_limit="4"
       end_linecap_type="zerowidth"
       cusp_linecap_type="round" />
    <inkscape:path-effect
       effect="powerstroke"
       id="path-effect4258"
       is_visible="true"
       offset_points="0.99572121,0.51464962"
       sort_points="true"
       interpolator_type="Linear"
       interpolator_beta="0.2"
       start_linecap_type="zerowidth"
       linejoin_type="round"
       miter_limit="4"
       end_linecap_type="zerowidth"
       cusp_linecap_type="round" />
    <inkscape:path-effect
       effect="powerstroke"
       id="path-effect4254"
       is_visible="true"
       offset_points="0.52748959,-1.0489494"
       sort_points="true"
       interpolator_type="Linear"
       interpolator_beta="0.2"
       start_linecap_type="zerowidth"
       linejoin_type="round"
       miter_limit="4"
       end_linecap_type="zerowidth"
       cusp_linecap_type="round" />
    <inkscape:path-effect
       effect="powerstroke"
       id="path-effect4250"
       is_visible="true"
       offset_points="0.28644629,0.95314078"
       sort_points="true"
       interpolator_type="Linear"
       interpolator_beta="0.2"
       start_linecap_type="zerowidth"
       linejoin_type="round"
       miter_limit="4"
       end_linecap_type="zerowidth"
       cusp_linecap_type="round" />
    <inkscape:path-effect
       effect="powerstroke"
       id="path-effect4246"
       is_visible="true"
       offset_points="0.59527621,0.74824802"
       sort_points="true"
       interpolator_type="Linear"
       interpolator_beta="0.2"
       start_linecap_type="zerowidth"
       linejoin_type="round"
       miter_limit="4"
       end_linecap_type="zerowidth"
       cusp_linecap_type="round" />
    <inkscape:path-effect
       effect="powerstroke"
       id="path-effect4242"
       is_visible="true"
       offset_points="0.27582204,1.166114"
       sort_points="true"
       interpolator_type="Linear"
       interpolator_beta="0.2"
       start_linecap_type="zerowidth"
       linejoin_type="round"
       miter_limit="4"
       end_linecap_type="zerowidth"
       cusp_linecap_type="round" />
    <inkscape:path-effect
       effect="powerstroke"
       id="path-effect4238"
       is_visible="true"
       offset_points="0.03978682,1.2014619"
       sort_points="true"
       interpolator_type="Linear"
       interpolator_beta="0.2"
       start_linecap_type="zerowidth"
       linejoin_type="round"
       miter_limit="4"
       end_linecap_type="zerowidth"
       cusp_linecap_type="round" />
    <inkscape:path-effect
       effect="powerstroke"
       id="path-effect4169"
       is_visible="true"
       offset_points="0,0.62705673"
       sort_points="true"
       interpolator_type="CubicBezierJohan"
       interpolator_beta="0.2"
       start_linecap_type="zerowidth"
       linejoin_type="round"
       miter_limit="4"
       end_linecap_type="zerowidth"
       cusp_linecap_type="round" />
    <inkscape:path-effect
       effect="powerstroke"
       id="path-effect4165"
       is_visible="true"
       offset_points="0,0.62705673"
       sort_points="true"
       interpolator_type="CubicBezierJohan"
       interpolator_beta="0.2"
       start_linecap_type="zerowidth"
       linejoin_type="round"
       miter_limit="4"
       end_linecap_type="zerowidth"
       cusp_linecap_type="round" />
    <inkscape:path-effect
       effect="powerstroke"
       id="path-effect4161"
       is_visible="true"
       offset_points="0,0.62705673"
       sort_points="true"
       interpolator_type="CubicBezierJohan"
       interpolator_beta="0.2"
       start_linecap_type="zerowidth"
       linejoin_type="round"
       miter_limit="4"
       end_linecap_type="zerowidth"
       cusp_linecap_type="round" />
    <inkscape:path-effect
       effect="powerstroke"
       id="path-effect4157"
       is_visible="true"
       offset_points="0,0.62705673"
       sort_points="true"
       interpolator_type="CubicBezierJohan"
       interpolator_beta="0.2"
       start_linecap_type="zerowidth"
       linejoin_type="round"
       miter_limit="4"
       end_linecap_type="zerowidth"
       cusp_linecap_type="round" />
    <inkscape:path-effect
       effect="powerstroke"
       id="path-effect4152"
       is_visible="true"
       offset_points="0,0.62705673"
       sort_points="true"
       interpolator_type="CubicBezierJohan"
       interpolator_beta="0.2"
       start_linecap_type="zerowidth"
       linejoin_type="round"
       miter_limit="4"
       end_linecap_type="zerowidth"
       cusp_linecap_type="round" />
    <inkscape:path-effect
       effect="powerstroke"
       id="path-effect4148"
       is_visible="true"
       offset_points="0.21883644,1.0911406"
       sort_points="true"
       interpolator_type="Linear"
       interpolator_beta="0.2"
       start_linecap_type="zerowidth"
       linejoin_type="round"
       miter_limit="4"
       end_linecap_type="zerowidth"
       cusp_linecap_type="round" />
    <inkscape:path-effect
       effect="powerstroke"
       id="path-effect4155"
       is_visible="true"
       offset_points="0.41985757,1.4154293"
       sort_points="true"
       interpolator_type="Linear"
       interpolator_beta="0.2"
       start_linecap_type="zerowidth"
       linejoin_type="round"
       miter_limit="4"
       end_linecap_type="zerowidth"
       cusp_linecap_type="round" />
    <inkscape:path-effect
       effect="powerstroke"
       id="path-effect890-1"
       is_visible="true"
       offset_points="0.48145638,1.5519001"
       sort_points="true"
       interpolator_type="CubicBezierJohan"
       interpolator_beta="0.2"
       start_linecap_type="zerowidth"
       linejoin_type="extrp_arc"
       miter_limit="4"
       end_linecap_type="zerowidth" />
  </defs>
  <sodipodi:namedview
     id="base"
     pagecolor="#ffffff"
     bordercolor="#666666"
     borderopacity="1.0"
     inkscape:pageopacity="0.0"
     inkscape:pageshadow="2"
     inkscape:zoom="0.98994949"
     inkscape:cx="61.45308"
     inkscape:cy="166.8952"
     inkscape:document-units="px"
     inkscape:current-layer="layer2"
     showgrid="false"
     units="px"
     inkscape:window-width="2560"
     inkscape:window-height="1388"
     inkscape:window-x="-8"
     inkscape:window-y="-8"
     inkscape:window-maximized="1"
     showguides="false"
     inkscape:snap-global="false" />
  <metadata
     id="metadata7">
    <rdf:RDF>
      <cc:Work
         rdf:about="">
        <dc:format>image/svg+xml</dc:format>
        <dc:type
           rdf:resource="http://purl.org/dc/dcmitype/StillImage" />
        <dc:title></dc:title>
      </cc:Work>
    </rdf:RDF>
  </metadata>
  <g
     inkscape:groupmode="layer"
     id="layer2"
     inkscape:label="Layer 2"
     style="opacity:1">
    <path
       style="fill:#ffaaaa;fill-rule:evenodd;stroke:#000000;stroke-width:1.33100009;stroke-linecap:butt;stroke-linejoin:miter;stroke-miterlimit:4;stroke-dasharray:none;stroke-opacity:1"
       d="m 135.02458,187.9238 -1.82484,1.91217 -8.4684,-7.80395 -3.77692,4.09561 8.16634,7.98331 -2.38923,2.50385 -3.555,-3.29487 -4.80958,5.01468 3.64381,3.22752 -11.77099,12.33631 -5.01227,-4.82295 -5.982339,6.25769 4.876189,4.97757 -5.090026,5.33458 -26.97438,-25.5302 36.092436,-37.33574 z m -20.46053,16.64461 -5.27104,-9.55009 8.6887,-8.98078 -12.40746,2.24691 -6.172258,-11.17955 -1.523209,12.57389 -12.532255,2.26887 11.646407,5.03065 -1.489448,12.28911 8.825463,-9.121 z m -10.23508,-4.42196 -7.335994,-3.1681 0.885838,-7.29954 7.695466,-1.39433 3.71873,6.73384 z"
       id="path904"
       inkscape:connector-curvature="0"
       sodipodi:nodetypes="cccccccccccccccccccccccccccccccccc" />
    <path
       sodipodi:nodetypes="ccccc"
       inkscape:connector-curvature="0"
       id="path867"
       d="m 69.777086,207.26803 -16.84978,-17.13796 67.357654,-71.76454 19.0232,19.52384 z"
       style="fill:#ff8080;fill-rule:evenodd;stroke:#000000;stroke-width:1.10000002;stroke-linecap:butt;stroke-linejoin:miter;stroke-miterlimit:4;stroke-dasharray:none;stroke-opacity:1" />
    <path
       sodipodi:nodetypes="sccss"
       inkscape:connector-curvature="0"
       id="path869"
       d="m 118.25604,119.75662 c -3.13427,-2.98552 1.12116,-1.19015 0.18364,-14.25061 l 34.66631,33.67914 c -13.42254,-0.88 -11.89347,2.43847 -14.45868,-0.005 z"
       style="fill:#ff5555;fill-rule:evenodd;stroke:#000000;stroke-width:1.10000002;stroke-linecap:butt;stroke-linejoin:miter;stroke-miterlimit:4;stroke-dasharray:none;stroke-opacity:1" />
    <path
       style="opacity:1;fill:#ff8080;fill-opacity:1;stroke:#000000;stroke-width:2.42000008;stroke-linecap:round;stroke-linejoin:round;stroke-miterlimit:4;stroke-dasharray:none;stroke-dashoffset:0;stroke-opacity:1;paint-order:stroke fill markers"
       d="M 173.81445 28.386719 C 159.29773 28.455989 144.66016 34.063249 133.3418 45.189453 C 110.70509 67.441864 109.91912 103.34766 131.58594 125.38867 C 153.25275 147.42968 189.16796 147.25826 211.80469 125.00586 C 234.44141 102.75345 235.22738 66.847654 213.56055 44.806641 C 202.72714 33.786133 188.33117 28.317453 173.81445 28.386719 z M 173.47656 43.755859 C 184.05926 43.705364 194.55557 47.690659 202.45312 55.724609 C 218.24824 71.792508 217.67405 97.969397 201.17188 114.19141 C 184.66971 130.41341 158.48846 130.53665 142.69336 114.46875 C 126.89824 98.400861 127.4705 72.225914 143.97266 56.003906 C 152.22375 47.892904 162.89388 43.806359 173.47656 43.755859 z "
       id="path871" />
    <path
       sodipodi:nodetypes="csscc"
       inkscape:connector-curvature="0"
       id="path875"
       d="m 67.129663,211.41914 -19.215901,-18.9501 c -2.391259,-2.35818 2.82801,-7.1593 4.565966,-5.43756 l 19.617343,19.43428 c 1.276149,1.7798 -3.949986,6.10512 -4.967408,4.95338 z"
       style="fill:#ffaaaa;fill-rule:evenodd;stroke:#000000;stroke-width:1.10000002;stroke-linecap:butt;stroke-linejoin:miter;stroke-miterlimit:4;stroke-dasharray:none;stroke-opacity:1" />
    <path
       sodipodi:nodetypes="cc"
       inkscape:original-d="m 132.1585,50.602991 c 15.20853,-22.822384 65.24503,-27.689913 85.25,1.964285"
       inkscape:path-effect="#path-effect890"
       inkscape:connector-curvature="0"
       id="path888"
       d="m 132.1585,50.602991 c 2.60658,-3.911514 7.97641,-9.064569 17.25596,-12.749278 8.5997,-3.414755 16.63658,-4.07219 21.76959,-4.330012 0.55204,-0.02773 1.16673,-0.05595 1.8338,-0.07882 6.09763,-0.209005 15.10547,0.123336 24.47452,3.775788 10.13909,3.952645 16.43933,10.192807 19.91613,15.346606 -3.48343,-5.163637 -9.15924,-11.851102 -19.32629,-16.706758 -9.32602,-4.453987 -18.73901,-5.551626 -25.13039,-5.492569 -0.70015,0.0065 -1.34415,0.02676 -1.92347,0.05586 -5.3033,0.266377 -13.83027,1.720535 -22.27938,5.945669 -4.34235,2.171471 -7.92753,4.708173 -10.79947,7.384596 -2.85261,2.658412 -4.62469,5.098717 -5.791,6.848918 z"
       style="fill:#ffd5d5;fill-rule:nonzero;stroke:none;stroke-width:1.10000002px;stroke-linecap:butt;stroke-linejoin:miter;stroke-opacity:1" />
    <path
       sodipodi:nodetypes="cc"
       inkscape:original-d="m 118.65549,120.11019 c 0.88261,-2.24221 1.56757,-6.31648 1.11607,-8.34822"
       inkscape:path-effect="#path-effect894"
       inkscape:connector-curvature="0"
       id="path892"
       d="m 118.65549,120.11019 c 0.13927,-0.35381 0.49734,-1.02456 0.86123,-1.90221 0.30454,-0.73451 0.58245,-1.51778 0.79145,-2.26466 0.17704,-0.63267 0.28372,-1.1678 0.30829,-1.51515 0.0132,-0.18612 -0.0336,-0.48321 -0.11833,-0.80785 -0.2018,-0.77345 -0.66197,-1.56765 -0.72657,-1.85835 0.0737,0.33144 -0.19621,1.0804 -0.44616,1.83413 -0.0971,0.29283 -0.17804,0.55746 -0.19005,0.72732 -0.0211,0.29821 -0.0109,0.8433 -0.0159,1.44756 -0.006,0.74729 -0.0333,1.52769 -0.10474,2.31217 -0.086,0.9445 -0.21757,1.66716 -0.35923,2.02704 z"
       style="fill:#ffd5d5;fill-rule:nonzero;stroke:none;stroke-width:1px;stroke-linecap:butt;stroke-linejoin:miter;stroke-opacity:1" />
    <path
       sodipodi:nodetypes="cc"
       inkscape:original-d="m 116.7634,125.70849 c -7.37038,6.68232 -42.849558,46.87959 -56.766479,60.39521"
       inkscape:path-effect="#path-effect898"
       inkscape:connector-curvature="0"
       id="path896"
       d="m 116.7634,125.70849 c -0.24934,0.22607 -0.92104,0.61997 -1.74656,1.19594 -0.83046,0.57942 -1.77987,1.30721 -2.2391,1.7804 -0.15382,0.15849 -0.31719,0.32778 -0.49064,0.50853 -1.37213,1.42979 -3.27987,3.47579 -5.99791,6.4494 -4.26886,4.67024 -9.259241,10.22454 -15.746259,17.43291 -5.954517,6.61666 -11.737711,13.0301 -16.958309,18.71986 -6.975167,7.602 -11.089059,11.88158 -13.587701,14.30817 2.667285,-2.59037 6.5394,-6.44719 13.821306,-14.08973 5.369034,-5.63494 11.190889,-11.85481 17.309068,-18.40242 6.807182,-7.28498 11.529915,-12.34341 16.066165,-17.12688 2.82105,-2.9748 4.65231,-4.87293 6.07729,-6.34242 0.0546,-0.0563 0.43461,-0.44793 0.48917,-0.5042 0.44721,-0.46079 1.1631,-1.43931 1.73823,-2.24711 0.5877,-0.82547 1.02068,-1.46071 1.26525,-1.68245 z"
       style="fill:#ffd5d5;fill-rule:nonzero;stroke:none;stroke-width:1px;stroke-linecap:butt;stroke-linejoin:miter;stroke-opacity:1" />
    <path
       sodipodi:nodetypes="cc"
       inkscape:original-d="m 52.528912,188.13933 c -1.211294,0.11321 -3.070693,1.67709 -3.571428,2.67856"
       inkscape:path-effect="#path-effect902"
       inkscape:connector-curvature="0"
       id="path900"
       d="m 52.528912,188.13933 c -0.176904,0.0165 -0.878739,-0.16165 -1.198075,-0.0691 -0.02804,0.008 -0.05236,0.0174 -0.07211,0.0277 -0.244668,0.12811 -0.602628,0.40256 -0.982053,0.79141 -0.314119,0.32192 -0.595913,0.67325 -0.82093,1.0116 -0.304042,0.45717 -0.402565,0.72551 -0.498256,0.91689 0.08333,-0.16667 0.312345,-0.42489 0.699634,-0.73331 0.305104,-0.24297 0.65846,-0.47749 1.019689,-0.68296 0.424232,-0.2413 0.802399,-0.40224 0.999784,-0.50559 0.01651,-0.009 0.03427,-0.0211 0.05313,-0.0367 0.214733,-0.17741 0.62229,-0.70346 0.799194,-0.71999 z"
       style="fill:#ffd5d5;fill-rule:nonzero;stroke:none;stroke-width:1px;stroke-linecap:butt;stroke-linejoin:miter;stroke-opacity:1" />
    <path
       sodipodi:nodetypes="cccccccccccccccccccccccccccccccccc"
       inkscape:connector-curvature="0"
       id="path873"
       d="m 133.76635,189.04842 -1.82482,1.91217 -8.46841,-7.80394 -3.77692,4.09562 8.16635,7.9833 -2.38925,2.50386 -3.55499,-3.29487 -4.80958,5.01468 3.64381,3.22752 -11.77099,12.3363 -5.01227,-4.82294 -5.98234,6.25768 4.87619,4.97758 -5.090026,5.33458 -26.974381,-25.53021 36.092447,-37.33576 z m -20.46051,16.64463 -5.27105,-9.55009 8.6887,-8.98078 -12.40746,2.24689 -6.172256,-11.17953 -1.523212,12.57387 -12.532255,2.26889 11.646407,5.03064 -1.489447,12.28912 8.825463,-9.12102 z m -10.23508,-4.42198 -7.336005,-3.1681 0.885848,-7.29953 7.695467,-1.39433 3.71872,6.73385 z"
       style="fill:#ffaaaa;fill-rule:evenodd;stroke:#000000;stroke-width:1;stroke-linecap:butt;stroke-linejoin:miter;stroke-miterlimit:4;stroke-dasharray:none;stroke-opacity:1" />
    <path
       sodipodi:nodetypes="cc"
       inkscape:original-d="m 218.26216,113.37198 c -11.86198,24.7276 -60.72345,36.55556 -84.68475,9.99569"
       inkscape:path-effect="#path-effect890-1"
       inkscape:connector-curvature="0"
       id="path888-5"
       d="m 218.26216,113.37198 c -0.90752,1.89183 -2.51351,4.47342 -5.16045,7.254 -2.66744,2.80211 -6.05596,5.45645 -10.13967,7.78657 -8.03664,4.58562 -15.90221,6.36226 -20.9485,7.3365 -0.54272,0.10478 -1.14739,0.21883 -1.80468,0.3349 -6.00825,1.06101 -14.97384,1.99364 -24.76212,-0.31052 -10.59276,-2.49354 -17.70494,-7.78974 -21.86933,-12.40576 4.17234,4.62483 10.72888,10.45138 21.47582,13.83512 9.85793,3.10382 19.33187,2.8722 25.65197,1.91851 0.69235,-0.10447 1.32716,-0.21476 1.8967,-0.32472 5.2137,-1.00656 13.45294,-3.64072 21.22696,-9.00764 3.9954,-2.75828 7.18993,-5.77214 9.65868,-8.82444 2.45214,-3.03176 3.86495,-5.69621 4.77462,-7.59252 z"
       style="opacity:1;fill:#ff5555;fill-rule:nonzero;stroke:none;stroke-width:1.10000002px;stroke-linecap:butt;stroke-linejoin:miter;stroke-opacity:1" />
  </g>
</svg>
