<svg version="1.1" viewBox="0 0 256 256" xmlns="http://www.w3.org/2000/svg" xmlns:xlink="http://www.w3.org/1999/xlink">
 <defs>
  <linearGradient id="linearGradient1359">
   <stop stop-color="#ca753e" offset="0"/>
   <stop stop-color="#673513" offset="1"/>
  </linearGradient>
  <linearGradient id="linearGradient1353">
   <stop stop-color="#d08453" offset="0"/>
   <stop stop-color="#9f521d" offset="1"/>
  </linearGradient>
  <linearGradient id="linearGradient1327">
   <stop stop-color="#da9f79" offset="0"/>
   <stop stop-color="#de874c" offset="1"/>
  </linearGradient>
  <linearGradient id="linearGradient1321">
   <stop stop-color="#f3e7b5" offset="0"/>
   <stop stop-color="#f3ecd2" offset="1"/>
  </linearGradient>
  <linearGradient id="linearGradient1288">
   <stop stop-color="#cf4545" offset="0"/>
   <stop stop-color="#e06e6e" offset="1"/>
  </linearGradient>
  <linearGradient id="linearGradient1282">
   <stop stop-color="#d35f5f" offset="0"/>
   <stop stop-color="#de8787" offset="1"/>
  </linearGradient>
  <linearGradient id="linearGradient1258">
   <stop stop-color="#d83a3a" offset="0"/>
   <stop stop-color="#d95858" offset="1"/>
  </linearGradient>
  <linearGradient id="linearGradient1252">
   <stop stop-color="#fff3e2" offset="0"/>
   <stop stop-color="#dcbb9d" offset="1"/>
  </linearGradient>
  <linearGradient id="linearGradient1246">
   <stop stop-color="#ffdacd" offset="0"/>
   <stop stop-color="#c77e65" offset="1"/>
  </linearGradient>
  <linearGradient id="linearGradient1196">
   <stop stop-color="#ffe9cd" offset="0"/>
   <stop stop-color="#c79465" offset="1"/>
  </linearGradient>
  <linearGradient id="linearGradient1154">
   <stop stop-color="#1a1a1a" offset="0"/>
   <stop stop-color="#4d4d4d" offset="1"/>
  </linearGradient>
  <radialGradient id="radialGradient1200-0-5-8" cx="41.765" cy="143.03" r="15.046" gradientTransform="matrix(1.1414 -.27967 .15744 .61686 -313.47 111.85)" gradientUnits="userSpaceOnUse" xlink:href="#linearGradient1246"/>
  <radialGradient id="radialGradient1347-0-2-5" cx="183.07" cy="105.53" r="14.756" gradientTransform="matrix(1.1312 0 0 .59172 -290.52 84.283)" gradientUnits="userSpaceOnUse" xlink:href="#linearGradient1359"/>
  <radialGradient id="radialGradient1339-9-8-3" cx="195.03" cy="118.44" r="14.552" gradientTransform="matrix(1.1312 0 0 .60531 -290.9 89.115)" gradientUnits="userSpaceOnUse" xlink:href="#linearGradient1353"/>
  <radialGradient id="radialGradient1331-5-3-3" cx="206.86" cy="131.29" r="14.756" gradientTransform="matrix(1.1312 0 0 .60478 -290.52 95.876)" gradientUnits="userSpaceOnUse" xlink:href="#linearGradient1327"/>
  <radialGradient id="radialGradient1200-6-7-3-0" cx="41.765" cy="143.03" r="15.046" gradientTransform="matrix(1.1414 -.27967 .15744 .61686 -292.4 144.24)" gradientUnits="userSpaceOnUse" xlink:href="#linearGradient1252"/>
  <radialGradient id="radialGradient1200-3-5-0-8" cx="41.765" cy="143.03" r="15.046" gradientTransform="matrix(1.1414 -.27967 .15744 .61686 -303.29 128.16)" gradientUnits="userSpaceOnUse" xlink:href="#linearGradient1196"/>
  <linearGradient id="linearGradient2342" x1="93.098" x2="89.934" y1="137.11" y2="124.07" gradientTransform="matrix(1.1312 0 0 1.1084 -290.52 29.759)" gradientUnits="userSpaceOnUse" xlink:href="#linearGradient1154"/>
  <linearGradient id="linearGradient2344" x1="135.76" x2="135" y1="155.47" y2="152.12" gradientTransform="matrix(1.1312 0 0 1.1084 -291.13 30.886)" gradientUnits="userSpaceOnUse" xlink:href="#linearGradient1258"/>
  <linearGradient id="linearGradient2346" x1="128.91" x2="128" y1="146.7" y2="142.62" gradientTransform="matrix(1.1312 0 0 1.1084 -291.13 30.886)" gradientUnits="userSpaceOnUse" xlink:href="#linearGradient1288"/>
  <linearGradient id="linearGradient2348" x1="125.04" x2="123.97" y1="137.28" y2="132.89" gradientTransform="matrix(1.1312 0 0 1.1084 -291.13 30.886)" gradientUnits="userSpaceOnUse" xlink:href="#linearGradient1282"/>
  <linearGradient id="linearGradient2350" x1="125.04" x2="123.97" y1="137.28" y2="132.89" gradientTransform="matrix(1.1312 0 -.09941 1.1084 -319.13 41.55)" gradientUnits="userSpaceOnUse" xlink:href="#linearGradient1321"/>
  <linearGradient id="linearGradient1260-0-0" x1="125.04" x2="123.97" y1="137.28" y2="132.89" gradientTransform="matrix(1.1312 0 -.09941 1.1084 -38.722 -.033499)" gradientUnits="userSpaceOnUse" xlink:href="#linearGradient1321"/>
  <radialGradient id="radialGradient1200-3-8" cx="41.765" cy="143.03" r="15.046" gradientTransform="matrix(1.1414 -.27967 .15744 .61686 -22.878 86.577)" gradientUnits="userSpaceOnUse" xlink:href="#linearGradient1196"/>
  <radialGradient id="radialGradient1200-6-8" cx="41.765" cy="143.03" r="15.046" gradientTransform="matrix(1.1414 -.27967 .15744 .61686 -11.988 102.66)" gradientUnits="userSpaceOnUse" xlink:href="#linearGradient1252"/>
  <linearGradient id="linearGradient1260-2" x1="125.04" x2="123.97" y1="137.28" y2="132.89" gradientTransform="matrix(1.1312 0 0 1.1084 -10.727 -10.698)" gradientUnits="userSpaceOnUse" xlink:href="#linearGradient1282"/>
  <linearGradient id="linearGradient1268-8" x1="128.91" x2="128" y1="146.7" y2="142.62" gradientTransform="matrix(1.1312 0 0 1.1084 -10.727 -10.698)" gradientUnits="userSpaceOnUse" xlink:href="#linearGradient1288"/>
  <linearGradient id="linearGradient1276-6" x1="135.76" x2="135" y1="155.47" y2="152.12" gradientTransform="matrix(1.1312 0 0 1.1084 -10.727 -10.698)" gradientUnits="userSpaceOnUse" xlink:href="#linearGradient1258"/>
  <radialGradient id="radialGradient1331-3" cx="206.86" cy="131.29" r="14.756" gradientTransform="matrix(1.1312 0 0 .60478 -10.114 54.292)" gradientUnits="userSpaceOnUse" xlink:href="#linearGradient1327"/>
  <radialGradient id="radialGradient1339-2" cx="195.03" cy="118.44" r="14.552" gradientTransform="matrix(1.1312 0 0 .60531 -10.497 47.531)" gradientUnits="userSpaceOnUse" xlink:href="#linearGradient1353"/>
  <radialGradient id="radialGradient1347-8" cx="183.07" cy="105.53" r="14.756" gradientTransform="matrix(1.1312 0 0 .59172 -10.114 42.699)" gradientUnits="userSpaceOnUse" xlink:href="#linearGradient1359"/>
  <radialGradient id="radialGradient1200-5" cx="41.765" cy="143.03" r="15.046" gradientTransform="matrix(1.1414 -.27967 .15744 .61686 -33.059 70.269)" gradientUnits="userSpaceOnUse" xlink:href="#linearGradient1246"/>
  <linearGradient id="linearGradient1156-2" x1="93.098" x2="89.934" y1="137.11" y2="124.07" gradientTransform="matrix(1.1312 0 0 1.1084 -10.114 -11.825)" gradientUnits="userSpaceOnUse" xlink:href="#linearGradient1154"/>
 </defs>
 <path d="m13.775 82.226c68.048-20.114 140.25-37.723 208.58-49.06l1.4263 2.1961c-67.858 15.881-140.23 32.932-208.95 49.096z" fill="#333" stroke="#000" stroke-linecap="round" stroke-linejoin="round" stroke-width=".83979"/>
 <g transform="translate(266.97 -159.36)">
  <g transform="matrix(.88172 -.47178 -.47178 -.88172 67.487 332.49)">
   <g stroke="#000" stroke-linecap="round" stroke-linejoin="round">
    <path d="m-265.56 185.59 189.83-48.905c9.3551 6.7085 32.498 27.845 38.86 35.613-59.264 19.205-153.67 44.706-202.33 54.508-10.662-13.247-21.111-30.315-26.359-41.217z" fill="#4d4d4d" stroke-width=".83979"/>
    <g stroke-width="1.1197">
     <path d="m-221.5 174.18 108.9-28.254c15.772-4.0919 21.003 9.8605 9.5097 12.925l-109.36 29.156c-14.714 3.9227-17.219-11.707-9.0495-13.826z" fill="url(#linearGradient2342)"/>
     <path d="m-259.61 185.76c-0.79129-1.2719-0.36107-2.2121 1.293-2.6313l21.638-5.4841c2.1624-0.54806 2.3812-0.12382 3.1748 0.98607l7.4085 10.361c0.94432 1.3206-0.12573 2.1947-1.2257 2.4847l-22.188 5.8482c-1.447 0.38141-2.6519 0.4082-3.2749-0.5931z" fill="#1a1a1a"/>
     <path d="m-237.44 179.77-22.288 5.5585s5.0432 8.3502 6.9419 11.402c0.62291 1.0013 1.8307 0.97916 3.2765 0.59316l22.691-6.0583-7.4463-10.511c-1.0148-1.4325-1.7555-1.3389-3.1748-0.98497z" fill="url(#radialGradient1200-0-5-8)"/>
     <path d="m-97.825 144.94c-1.0327-1.1614-0.82824-2.0658 0.6429-2.4388l18.393-4.6629c1.9232-0.48756 2.1974-0.11303 3.2015 0.89344l8.4603 8.4805c1.1947 1.1976 0.3643 2.0436-0.61153 2.3029l-18.831 5.0024c-1.2837 0.34101-2.397 0.38464-3.21-0.52973z" fill="#1a1a1a"/>
     <path d="m-79.041 139.81-18.988 4.7352s5.7971 6.636 8.2485 9.446c0.80418 0.9218 1.9301 0.87571 3.2115 0.52977l19.258-5.1993-8.5286-8.6192c-1.2862-1.2999-1.9378-1.2075-3.2013-0.89243z" fill="url(#radialGradient1347-0-2-5)"/>
     <path d="m-85.136 159.02c-1.0125-1.1784-0.8238-2.0495 0.6429-2.4388l18.699-4.9634c1.9174-0.50894 2.2157-0.13026 3.2015 0.89343l8.3836 8.7059c1.173 1.218 0.36136 2.0333-0.61153 2.3029l-19.138 5.303c-1.2798 0.35465-2.4128 0.39796-3.21-0.52973z" fill="#1a1a1a"/>
     <path d="m-66.045 153.59-19.295 5.0358s5.7204 6.8615 8.1718 9.6714c0.80419 0.9218 1.9339 0.88892 3.2115 0.52977l19.565-5.4999-8.452-8.8446c-1.263-1.3216-1.9415-1.2212-3.2013-0.89242z" fill="url(#radialGradient1339-9-8-3)"/>
     <path d="m-72.879 173.31c-1.0216-1.1709-0.82174-2.0421 0.6429-2.4388l19.159-5.1889c1.9147-0.51854 2.2441-0.15577 3.2015 0.89344l7.7489 8.4919c-3.7286 1.3592-19.212 6.3427-23.066 7.0523z" fill="#1a1a1a"/>
     <path d="m-53.558 167.35-19.717 5.4115s5.5833 6.478 8.4402 9.767c3.6404-1.2883 16.268-5.1003 21.359-6.6607l-6.8805-7.6254c-1.2239-1.3564-1.9459-1.237-3.2013-0.89242z" fill="url(#radialGradient1331-5-3-3)"/>
    </g>
    <path d="m-126.64 171.43c-0.87212-1.0312-0.85355-2.2267 1.1015-2.74l31.931-8.3839c2.5558-0.67105 3.219 0.11179 4.3171 1.2732l19.435 20.556c0.43348 0.45847 0.76405 0.87343 1.0072 1.2476-5.1135 1.448-37.256 11.504-39.558 9.6074z" fill="#1a1a1a" stroke-width="1.0676"/>
    <path d="m-93.87 162.04-32.991 9.0632s13.192 16.106 18.453 21.893c0.44731 0.49205 0.89591 0.87993 1.3446 1.1764 11.121-2.9149 33.831-9.8388 36.273-10.352l-19.54-20.863c-1.2114-1.2934-1.8671-1.3775-3.5398-0.91799z" fill="#fffaea" stroke-width="1.0676"/>
    <path d="m-210.84 205.34c-1.0426-1.3452-1.1492-2.1964 1.2639-2.8423l32.169-8.6105c3.1545-0.84437 3.4012-0.37431 4.3706 0.85266l10.897 13.793c-4.7633 1.8141-32.764 8.6171-38.488 9.9823z" fill="#1a1a1a" stroke-width="1.1197"/>
    <path d="m-177.62 195.43-33.629 9.1767s7.2656 9.6649 10.687 14.018c4.6631-2.9034 32.599-8.2787 37.205-9.8459l-10.289-12.347c-1.2883-1.546-1.9071-1.5656-3.9738-1.0017z" fill="#ffd4de" stroke-width="1.1197"/>
    <g stroke-width="1.0372">
     <path d="m-160.01 203.52c-1.0788-1.2356-0.59539-2.1827 0.82576-2.5756l39.727-10.986c1.4254-0.39416 3.3004-0.21305 4.3392 0.8815l4.308 4.5392c-4.1361 1.3646-39.452 10.468-45.559 12.311z" fill="#1a1a1a"/>
     <path d="m-119.48 191.88-40.675 11.188s1.679 1.9571 3.8309 4.6083c9.7516-2.6717 40.187-10.949 43.167-12.052l-3.1271-3.2334c-0.8467-0.87546-2.006-0.83912-3.1962-0.51171z" fill="url(#linearGradient2344)"/>
     <path d="m-168.66 193.75c-1.0748-1.2386-0.5926-2.1997 0.83412-2.5733l40.304-10.553c1.431-0.37467 3.3359-0.23433 4.3363 0.89378l3.752 4.2311c1.1903 1.3423 0.34506 2.0724-1.1393 2.4809l-39.381 10.839c-1.9527 0.53748-3.5254 0.65188-4.3715-0.32322z" fill="#1a1a1a"/>
     <path d="m-127.55 182.55-41.252 10.753s2.0271 2.3776 4.4777 5.4433c0.80393 1.0058 2.4222 0.86432 4.3737 0.32315l40.062-11.11-4.4664-4.8891c-0.82084-0.89853-1.9997-0.83219-3.1945-0.52074z" fill="url(#linearGradient2346)"/>
     <path d="m-176.87 184.23c-1.0679-1.2438-0.5803-2.2026 0.84849-2.5692l40.363-10.357c1.433-0.36772 3.3372-0.21814 4.3313 0.91482l3.7284 4.2492c1.1828 1.348 0.33351 2.074-1.1531 2.4754l-39.441 10.648c-1.9557 0.52797-3.5289 0.63475-4.3696-0.34445z" fill="#1a1a1a"/>
     <path d="m-135.7 173.23-41.312 10.552s2.0139 2.3874 4.4473 5.465c0.79831 1.0096 2.4173 0.87606 4.3718 0.34437l40.123-10.915-4.439-4.9107c-0.81582-0.90251-1.9951-0.84191-3.1916-0.53627z" fill="url(#linearGradient2348)"/>
    </g>
    <g stroke-width="1.1197">
     <path d="m-189.44 169.72 74.076-19.66c4.4695-0.57095 8.3565 7.2578 8.1847 9.795l-74.561 20.279z" fill="#999"/>
     <path d="m-217.64 177.16 6.2905 10.414 29.609-7.4388c0.0282-3.2647-5.0636-10.258-7.7005-10.414z" fill="#808080"/>
     <path d="m-217.69 177.16c-2.9896 1.0182-1.1263 8.8348 1.2437 11.302 1.7345 0.0586 4.1563-0.37917 6.892-1.3792-1.0032-4.4676-4.8998-11.025-8.1356-9.9231z" fill="#4d4d4d"/>
     <path d="m-238.54 218.14c-0.79129-1.2719-0.36107-2.2121 1.293-2.6313l21.638-5.4841c2.1624-0.54807 2.3812-0.12383 3.1748 0.98606l6.3675 8.9048c-1.899 0.59956-22.83 5.2258-27.256 6.6099z" fill="#1a1a1a"/>
     <path d="m-216.37 212.15-22.288 5.5585s3.0931 5.1214 5.3466 8.8087c2.2781-0.65169 22.563-5.694 25.344-6.0027l-5.2279-7.3795c-1.0148-1.4325-1.7555-1.339-3.1748-0.98497z" fill="url(#radialGradient1200-6-7-3-0)"/>
     <path d="m-249.43 202.06c-0.79129-1.2719-0.36107-2.2121 1.293-2.6313l21.638-5.4841c2.1624-0.54807 2.3812-0.12383 3.1748 0.98606l7.4085 10.361c0.94432 1.3206-0.12573 2.1947-1.2257 2.4847l-22.188 5.8482c-1.447 0.38141-2.6519 0.4082-3.2749-0.5931z" fill="#1a1a1a"/>
     <path d="m-227.26 196.07-22.288 5.5585s5.0432 8.3502 6.9419 11.402c0.62291 1.0013 1.8307 0.97917 3.2765 0.59316l22.691-6.0583-7.4463-10.511c-1.0148-1.4325-1.7555-1.3389-3.1748-0.98497z" fill="url(#radialGradient1200-3-5-0-8)"/>
    </g>
    <path d="m-218.62 194.9c-0.95632-1.2438-0.38207-2.1987 1.0789-2.5692l33.14-8.4032c1.4653-0.37155 3.3568-0.21813 4.2492 0.91482l3.3472 4.2492c1.0619 1.348 0.14578 2.0653-1.3751 2.4754l-32.245 8.6941c-2.0008 0.53948-3.5859 0.63475-4.3388-0.34444z" fill="#1a1a1a" stroke-width="1.0372"/>
    <path d="m-184.61 185.85-34.107 8.5988s1.7997 2.3874 3.9571 5.465c0.70775 1.0096 2.3388 0.87607 4.3409 0.34437l32.951-8.9612-3.9986-4.9107c-0.73488-0.9025-1.92-0.84472-3.1435-0.53628z" fill="url(#linearGradient2350)" stroke-width="1.0372"/>
   </g>
   <path d="m-183.69 170.36c7.228-1.8199 29.04-6.7729 36.268-8.5928 6.7846-1.7082 27.011-7.3396 33.796-9.0478-6.7846 1.7082-27.266 6.3264-34.051 8.0346-7.228 1.8199-28.785 7.7861-36.013 9.606z" fill="#f9f9f9"/>
   <path d="m-190.67 170.39c3.5059 1.4513 7.2789 7.8921 7.3937 9.738l-1.3771 0.40112c-0.91196-3.6846-3.6556-8.1354-7.5318-9.848z" fill="#e9cf67" stroke="#000" stroke-linecap="round" stroke-linejoin="round" stroke-width=".55986"/>
  </g>
  <path d="m-254.22 294.14 3.796-48.777c68.966-18.491 143.61-35.724 204.12-47.396l-17.462 49.734z" fill="#ececec" fill-opacity=".70093"/>
  <path d="m-43.203 194.78c-70.886 13.522-142.35 30.484-208.95 49.096-4.1935 20.208-4.4423 33.532-4.4473 54.41l57.764-14.592v-1.8066l13.016-3.1875 0.10742 1.6992 60.295-14.746v-1.8066l14.1-3.5058-0.2168 1.7012 49.898-12.639zm-3.1016 3.1875-17.461 49.734-190.45 46.439 3.7949-48.777c68.966-18.491 143.61-35.724 204.12-47.396z" fill="#666" stroke="#000" stroke-linecap="round" stroke-linejoin="round" stroke-width=".83979"/>
 </g>
 <g fill="#333" stroke="#000" stroke-linecap="round" stroke-linejoin="round" stroke-width="1.1197">
  <path d="m10.384 138.87-1.8147-1.3333c-2.6517-24.701-0.24421-44.68 5.2394-55.139l1.0221 2.0631z"/>
  <path d="m156.59 100.47 0.11504 4.6589-16.067 3.4566-0.53732-4.12z"/>
  <path d="m83.104 118.47 0.11504 4.6589-16.067 3.4566-0.53732-4.12z"/>
 </g>
 <g stroke="#000" stroke-linecap="round" stroke-linejoin="round">
  <path d="m12.445 139.51 193.27-48.033c10.074 4.8012 41.391 36.787 44.034 46.546-59.264 19.205-154.59 46.52-203.25 56.322-15.058-10.895-31.977-43.759-34.056-54.835z" fill="#4d4d4d" stroke-width=".83979"/>
  <path d="m12.445 139.51c0.47986 6.0428-0.34265 14.767 1.6269 19.128 12.5 27.682 24.943 51.429 36.767 56.535l-4.3383-20.829z" fill="#333" stroke-width="1.1197"/>
  <path d="m46.501 194.34c-0.0113 6.6344 0.0483 19.209 4.4196 20.962l193.84-53.586c4.7594-1.7367 4.4829-15.763 4.989-23.698z" fill="#333" stroke-width=".83979"/>
  <g stroke-width="1.1197">
   <path d="m58.908 132.6 108.9-28.254c15.772-4.0919 21.003 9.8605 9.5097 12.925l-109.36 29.156c-14.714 3.9227-17.219-11.707-9.0495-13.826z" fill="url(#linearGradient1156-2)"/>
   <path d="m20.792 144.17c-0.79128-1.2719-0.36106-2.2121 1.293-2.6313l21.638-5.4841c2.1624-0.54806 2.3812-0.12382 3.1748 0.98607l7.4085 10.361c0.94433 1.3206-0.12572 2.1947-1.2257 2.4847l-22.188 5.8482c-1.447 0.38141-2.6519 0.4082-3.2749-0.5931z" fill="#1a1a1a"/>
   <path d="m42.964 138.18-22.288 5.5585s5.0432 8.3502 6.9419 11.402c0.62291 1.0013 1.8307 0.97916 3.2765 0.59316l22.691-6.0583-7.4463-10.511c-1.0148-1.4325-1.7555-1.3389-3.1748-0.98497z" fill="url(#radialGradient1200-5)"/>
   <path d="m182.58 103.36c-1.0327-1.1614-0.82824-2.0658 0.6429-2.4388l18.393-4.6629c1.9232-0.48756 2.1974-0.11303 3.2015 0.89344l8.4603 8.4805c1.1947 1.1976 0.3643 2.0436-0.61153 2.3029l-18.831 5.0024c-1.2837 0.34101-2.397 0.38464-3.21-0.52973z" fill="#1a1a1a"/>
   <path d="m201.37 98.225-18.988 4.7352s5.7971 6.636 8.2485 9.446c0.80418 0.9218 1.9301 0.87571 3.2115 0.52977l19.258-5.1993-8.5286-8.6192c-1.2862-1.2999-1.9378-1.2075-3.2013-0.89244z" fill="url(#radialGradient1347-8)"/>
   <path d="m195.27 117.44c-1.0125-1.1784-0.8238-2.0495 0.6429-2.4388l18.699-4.9634c1.9174-0.50894 2.2157-0.13026 3.2015 0.89343l8.3836 8.7059c1.173 1.218 0.36136 2.0333-0.61153 2.3029l-19.138 5.303c-1.2798 0.35465-2.4128 0.39796-3.21-0.52973z" fill="#1a1a1a"/>
   <path d="m214.36 112.01-19.295 5.0358s5.7204 6.8615 8.1718 9.6714c0.80419 0.9218 1.9339 0.88892 3.2115 0.52977l19.565-5.4999-8.452-8.8446c-1.263-1.3216-1.9415-1.2212-3.2013-0.89242z" fill="url(#radialGradient1339-2)"/>
   <path d="m207.53 131.73c-1.0216-1.1709-0.82174-2.0421 0.6429-2.4388l19.159-5.1889c1.9147-0.51854 2.2441-0.15577 3.2015 0.89344l8.7671 9.6077c1.1392 1.2484 0.3593 2.0262-0.61153 2.3029l-19.138 5.4532c-1.2771 0.36392-2.4057 0.39207-3.21-0.52973z" fill="#1a1a1a"/>
   <path d="m226.85 125.77-19.717 5.4115s6.7557 7.8383 9.2071 10.648c0.80419 0.9218 1.9366 0.89796 3.2115 0.52977l19.565-5.6502-9.0655-10.047c-1.2239-1.3564-1.9459-1.237-3.2013-0.89242z" fill="url(#radialGradient1331-3)"/>
  </g>
  <path d="m153.77 129.85c-0.87212-1.0312-0.85355-2.2267 1.1015-2.74l31.931-8.3839c2.5558-0.67105 3.219 0.11179 4.3171 1.2732l19.435 20.556c2.4199 2.5595 1.6329 3.763 0.33569 4.0914l-33.726 8.5377c-1.7064 0.43197-3.5098 0.178-5.1607-1.774z" fill="#1a1a1a" stroke-width="1.0676"/>
  <path d="m186.54 120.45-32.991 9.0632s13.192 16.106 18.453 21.893c1.7259 1.8985 3.4711 2.2464 5.163 1.7745l34.408-8.8643-21.494-22.949c-1.2114-1.2934-1.8671-1.3775-3.5398-0.91799z" fill="#fffaea" stroke-width="1.0676"/>
  <path d="m69.567 163.76c-1.0426-1.3452-1.1492-2.1964 1.2639-2.8423l32.169-8.6105c3.1545-0.84437 3.4012-0.37431 4.3705 0.85266l10.897 13.793c0.59453 0.75256 0.19168 2.2015-0.88386 2.4948l-32.306 8.8093c-2.1139 0.57642-3.7487 0.67795-4.5694-0.38106z" fill="#1a1a1a" stroke-width="1.1197"/>
  <path d="m102.79 153.84-33.629 9.1767s8.3226 11.071 11.348 14.851c0.83889 1.0483 2.4619 0.97769 4.5717 0.38098 8.9524-2.532 26.627-7.1772 31.378-8.4949 1.4746-0.40899 1.7271-0.67585 1.8482-1.0616l-11.542-13.851c-1.2883-1.546-1.9071-1.5656-3.9738-1.0017z" fill="#ffd4de" stroke-width="1.1197"/>
  <g stroke-width="1.0372">
   <path d="m120.39 161.93c-1.0788-1.2356-0.59539-2.1827 0.82576-2.5756l39.727-10.986c1.4254-0.39416 3.3004-0.21305 4.3392 0.8815l4.308 4.5392c1.236 1.3024 0.35179 2.0714-1.1312 2.4842l-39.345 10.951c-1.951 0.543-3.5232 0.66186-4.3726-0.31084z" fill="#1a1a1a"/>
   <path d="m160.92 150.3-40.675 11.188s2.0349 2.3719 4.4954 5.4306c0.80719 1.0035 2.425 0.85745 4.3747 0.31075l40.025-11.223-5.0245-5.1952c-0.8467-0.87546-2.006-0.83912-3.1962-0.51171z" fill="url(#linearGradient1276-6)"/>
   <path d="m111.75 152.17c-1.0748-1.2386-0.5926-2.1997 0.83412-2.5733l40.304-10.553c1.431-0.37467 3.3359-0.23433 4.3363 0.89378l3.752 4.2311c1.1903 1.3423 0.34506 2.0724-1.1393 2.4809l-39.381 10.839c-1.9527 0.53748-3.5254 0.65188-4.3715-0.32322z" fill="#1a1a1a"/>
   <path d="m152.86 140.97-41.252 10.753s2.0271 2.3776 4.4777 5.4433c0.80393 1.0058 2.4222 0.86432 4.3737 0.32315l40.062-11.11-4.4664-4.8891c-0.82084-0.89853-1.9997-0.83219-3.1945-0.52074z" fill="url(#linearGradient1268-8)"/>
   <path d="m103.54 142.65c-1.0679-1.2438-0.5803-2.2026 0.84849-2.5692l40.362-10.357c1.433-0.36772 3.3372-0.21814 4.3313 0.91482l3.7284 4.2492c1.1828 1.348 0.33351 2.074-1.1531 2.4754l-39.441 10.648c-1.9557 0.52797-3.5289 0.63475-4.3696-0.34445z" fill="#1a1a1a"/>
   <path d="m144.71 131.65-41.312 10.552s2.0139 2.3874 4.4473 5.465c0.79831 1.0096 2.4173 0.87606 4.3718 0.34437l40.123-10.915-4.439-4.9107c-0.81582-0.90251-1.9951-0.84191-3.1916-0.53627z" fill="url(#linearGradient1260-2)"/>
  </g>
  <g stroke-width="1.1197">
   <path d="m90.968 128.13 74.076-19.66c4.4695-0.57095 8.3565 7.2578 8.1847 9.795l-74.561 20.279z" fill="#999"/>
   <path d="m62.769 135.57 6.2905 10.414 29.609-7.4388c0.0282-3.2647-5.0636-10.258-7.7005-10.414z" fill="#808080"/>
   <path d="m62.715 135.57c-2.9896 1.0182-1.1263 8.8348 1.2437 11.302 1.7345 0.0586 4.1563-0.37917 6.892-1.3792-1.0032-4.4676-4.8998-11.025-8.1356-9.9231z" fill="#4d4d4d"/>
  </g>
 </g>
 <path d="m138.82 56.255 31.942 39.488 10.967-2.7427-30.485-39.488z" fill="#fff" fill-opacity=".80374"/>
 <path d="m158.45 51.897 31.635 39.037 11.005-2.5924-30.216-39.225z" fill="#fff" fill-opacity=".80374"/>
 <g stroke="#000" stroke-linecap="round" stroke-linejoin="round">
  <g stroke-width="1.1197">
   <path d="m41.863 176.56c-0.79128-1.2719-0.36106-2.2121 1.293-2.6313l21.638-5.4841c2.1624-0.54807 2.3812-0.12383 3.1748 0.98606l7.4085 10.361c0.94433 1.3206-0.12572 2.1947-1.2257 2.4846l-22.188 5.8482c-1.447 0.38141-2.6519 0.4082-3.2749-0.59309z" fill="#1a1a1a"/>
   <path d="m64.035 170.57-22.288 5.5585s5.0432 8.3502 6.9419 11.402c0.62291 1.0013 1.8307 0.97916 3.2765 0.59315l22.691-6.0583-7.4463-10.511c-1.0148-1.4325-1.7555-1.339-3.1748-0.98497z" fill="url(#radialGradient1200-6-8)"/>
   <path d="m30.973 160.48c-0.79129-1.2719-0.36107-2.2121 1.293-2.6313l21.638-5.4841c2.1624-0.54807 2.3812-0.12383 3.1748 0.98606l7.4085 10.361c0.94433 1.3206-0.12572 2.1947-1.2257 2.4847l-22.188 5.8482c-1.447 0.38141-2.6519 0.4082-3.2749-0.5931z" fill="#1a1a1a"/>
   <path d="m53.144 154.49-22.288 5.5585s5.0432 8.3502 6.9419 11.402c0.62291 1.0013 1.8307 0.97917 3.2765 0.59316l22.691-6.0583-7.4463-10.511c-1.0148-1.4325-1.7555-1.3389-3.1748-0.98497z" fill="url(#radialGradient1200-3-8)"/>
  </g>
  <path d="m61.791 153.31c-0.95632-1.2438-0.38206-2.1987 1.0789-2.5692l33.14-8.4032c1.4653-0.37155 3.3568-0.21813 4.2492 0.91482l3.3472 4.2492c1.0619 1.348 0.14578 2.0653-1.3751 2.4754l-32.245 8.6941c-2.0008 0.53948-3.5859 0.63475-4.3388-0.34444z" fill="#1a1a1a" stroke-width="1.0372"/>
  <path d="m95.797 144.27-34.107 8.5988s1.7997 2.3874 3.9571 5.465c0.70775 1.0096 2.3388 0.87607 4.3409 0.34437l32.951-8.9612-3.9986-4.9107c-0.73487-0.9025-1.92-0.84472-3.1435-0.53628z" fill="url(#linearGradient1260-0-0)" stroke-width="1.0372"/>
 </g>
 <path d="m96.717 128.77c7.228-1.8199 29.04-6.7729 36.268-8.5928 6.7846-1.7082 27.011-7.3396 33.796-9.0478-6.7846 1.7082-27.266 6.3264-34.051 8.0346-7.228 1.8199-28.785 7.7861-36.013 9.606z" fill="#f9f9f9"/>
 <g stroke="#000" stroke-linecap="round" stroke-linejoin="round">
  <path d="m89.741 128.81c3.5059 1.4513 7.2789 7.8921 7.3937 9.738l-1.3771 0.40112c-0.91197-3.6846-3.6556-8.1354-7.5318-9.848z" fill="#e9cf67" stroke-width=".55986"/>
  <path d="m54.068 212.65 188.52-51.946 0.492-14.315-189.18 52.357z" fill="#4d4d4d" stroke-width="1.1197"/>
  <path d="m140.11 176.92c6.5929 2.555 27.657-4.4426 27.517-7.5744z" fill="#333"/>
 </g>
</svg>
