<svg xmlns="http://www.w3.org/2000/svg" viewBox="0 0 256 256">
    <path fill="#faf9f3" fill-rule="evenodd" d="M106.082 234.031c18.533.928 37.253 1.111 56.262.136 6.871-.353 10.486-7.578 10.102-16.668l-.235-87.57c-31.643-3.723-46.059 3.582-80.644-.893l.082 91.522c-.112 3.506 2.01 12.852 14.433 13.473z"/>
    <path fill="#ffc299" fill-rule="evenodd" stroke="#000" d="M111.607 63.232c2.252-7.498 7.25-16.07 11.429-22.232l.446-20c.15-9.976 19.022-10.438 19.375.09l.09 20.714c4.529 7.142 7.141 14.285 10.357 21.428z"/>
    <path fill="#d7eef4" fill-opacity=".444" fill-rule="evenodd" stroke="#000" d="M106.082 234.031c18.533.928 37.253 1.111 56.262.136 6.871-.353 10.486-7.578 10.102-16.668l-.253-94.197c-.607-12.84-10.522-23.412-11.364-34.85.083-1.831 3.44-1.464 3.788-5.303l-65.912-.505c.355 4.209 3.581 3.872 3.535 5.808.1 10.28-10.284 21.28-10.68 32.448l.09 99.658c-.113 3.506 2.01 12.852 14.432 13.473z"/>
    <path fill="#e3e2db" fill-rule="evenodd" stroke="#000" d="M97.984 61.437l.09 19.186c-2.017.233-2.868 3.857-.506 3.85l68.06.317c2.374-.438 1.474-4.051-.462-4.077l-.422-18.651c-5.377-.897-60.113-1.224-66.76-.625z"/>
    <path fill="none" stroke="#000" d="M105.687 197.159h5.24M105.877 179.607l15.468-.063M105.845 188.004h5.24M105.845 206.597l15.468-.063M106.065 171.494h5.24M106.254 153.943l15.468-.063M106.223 162.34h5.24M106.191 146.746h5.24M106.38 129.194l15.469-.063M106.35 137.591h5.24"/>
    <path fill="#fff" fill-rule="evenodd" d="M158.036 98.321c4.03 7.315 6.413 12.745 7.77 17.44.278.963.513 1.891.709 2.797 1.521 3.27 2.53 6.372 3.306 9.942.183-3.624.112-7.02-.561-10.797a53.978 53.978 0 0 0-1.225-2.788c-2.164-4.584-5.315-9.733-10-16.594z"/>
    <path fill="none" stroke="#000" stroke-width=".5" d="M98.08 80.777l67.188.044M160.536 88.232l-57.947-.09"/>
    <path fill="#ffede0" fill-rule="evenodd" d="M135.613 16.089c.427.07.79.22 1.1.426.307.205.566.47.788.776.44.61.766 1.432 1.005 2.406.058.237.11.483.159.738.676 1.768 1.111 4.057 1.404 6.478.331 2.745.472 5.587.597 7.933.062 1.17.12 2.213.197 3.05.038.417.081.784.131 1.09.05.304.108.547.175.715a8.43 8.43 0 0 1-.015-.728c.003-.305.013-.67.028-1.087.03-.84.092-2.204.123-3.045.088-2.339.16-5.223.038-8.032-.108-2.457-.368-4.925-.929-6.944a12.92 12.92 0 0 0-.382-.772c-.55-1.02-1.202-1.856-1.964-2.395-.38-.27-.78-.458-1.194-.56a3.154 3.154 0 0 0-1.261-.05z"/>
    <path fill="none" stroke="#aca793" stroke-linecap="round" stroke-width="3.806" d="M103.304 64.734v12.532M117.59 64.824v12.53M132.59 65.002v12.531M147.41 65.27v12.531M159.732 65.449v12.53"/>
</svg>
