<?xml version="1.0" encoding="UTF-8" standalone="no"?>
<!-- Created with Inkscape (http://www.inkscape.org/) -->

<svg
   xmlns:dc="http://purl.org/dc/elements/1.1/"
   xmlns:cc="http://creativecommons.org/ns#"
   xmlns:rdf="http://www.w3.org/1999/02/22-rdf-syntax-ns#"
   xmlns:svg="http://www.w3.org/2000/svg"
   xmlns="http://www.w3.org/2000/svg"
   xmlns:xlink="http://www.w3.org/1999/xlink"
   xmlns:sodipodi="http://sodipodi.sourceforge.net/DTD/sodipodi-0.dtd"
   xmlns:inkscape="http://www.inkscape.org/namespaces/inkscape"
   viewBox="0 0 256 256"
   id="svg2"
   version="1.1"
   inkscape:version="0.91 r13725"
   sodipodi:docname="mothers_milk.svg">
  <defs
     id="defs4">
    <inkscape:path-effect
       effect="powerstroke"
       id="path-effect4257"
       is_visible="true"
       offset_points="0.2802652,0.91996967"
       sort_points="true"
       interpolator_type="Linear"
       interpolator_beta="0.2"
       start_linecap_type="zerowidth"
       linejoin_type="round"
       miter_limit="4"
       end_linecap_type="zerowidth"
       cusp_linecap_type="round" />
    <inkscape:path-effect
       effect="powerstroke"
       id="path-effect4249"
       is_visible="true"
       offset_points="0.60281713,1.4373417"
       sort_points="true"
       interpolator_type="Linear"
       interpolator_beta="0.2"
       start_linecap_type="zerowidth"
       linejoin_type="round"
       miter_limit="4"
       end_linecap_type="zerowidth"
       cusp_linecap_type="round" />
  </defs>
  <sodipodi:namedview
     id="base"
     pagecolor="#ffffff"
     bordercolor="#666666"
     borderopacity="1.0"
     inkscape:pageopacity="0.0"
     inkscape:pageshadow="2"
     inkscape:zoom="0.98994949"
     inkscape:cx="-124.04705"
     inkscape:cy="336.14253"
     inkscape:document-units="px"
     inkscape:current-layer="layer2"
     showgrid="false"
     units="px"
     inkscape:window-width="2560"
     inkscape:window-height="1388"
     inkscape:window-x="-8"
     inkscape:window-y="-8"
     inkscape:window-maximized="1" />
  <metadata
     id="metadata7">
    <rdf:RDF>
      <cc:Work
         rdf:about="">
        <dc:format>image/svg+xml</dc:format>
        <dc:type
           rdf:resource="http://purl.org/dc/dcmitype/StillImage" />
        <dc:title />
      </cc:Work>
    </rdf:RDF>
  </metadata>
  <g
     inkscape:groupmode="layer"
     id="layer2"
     inkscape:label="Layer 2"
     style="opacity:1">
    <path
       sodipodi:nodetypes="ssccccs"
       inkscape:connector-curvature="0"
       id="path4245"
       d="m 106.0818,234.03136 c 18.53365,0.92728 37.25329,1.11062 56.26261,0.13524 6.8707,-0.35254 10.48535,-7.57793 10.10153,-16.66751 l -0.23478,-87.5707 c -31.64266,-3.72262 -46.059,3.58292 -80.644098,-0.89248 l 0.08201,91.52165 c -0.11217,3.50612 2.01054,12.85229 14.432728,13.4738 z"
       style="fill:#faf9f3;fill-rule:evenodd;stroke:none;stroke-width:1px;stroke-linecap:butt;stroke-linejoin:miter;stroke-opacity:1;fill-opacity:1" />
    <path
       style="fill:#ffc299;fill-rule:evenodd;stroke:#000000;stroke-width:1px;stroke-linecap:butt;stroke-linejoin:miter;stroke-opacity:1;fill-opacity:1"
       d="m 111.60714,63.232144 c 2.25225,-7.498442 7.24968,-16.069914 11.42857,-22.232142 l 0.44644,-20 c 0.15054,-9.975505 19.02211,-10.437914 19.37499,0.08929 l 0.0893,20.714286 c 4.52913,7.142857 7.14181,14.285714 10.35714,21.428571 z"
       id="path4157"
       inkscape:connector-curvature="0"
       sodipodi:nodetypes="ccccccc" />
    <path
       style="fill:#d7eef4;fill-rule:evenodd;stroke:#000000;stroke-width:1px;stroke-linecap:butt;stroke-linejoin:miter;stroke-opacity:1;fill-opacity:0.44392523"
       d="m 106.0818,234.03136 c 18.53365,0.92728 37.25329,1.11062 56.26261,0.13524 6.8707,-0.35254 10.48535,-7.57793 10.10153,-16.66751 l -0.25254,-94.19673 c -0.60744,-12.84007 -10.52193,-23.412331 -11.36422,-34.850261 0.0833,-1.831232 3.44051,-1.464057 3.78808,-5.303301 L 98.704801,82.643722 c 0.35525,4.208969 3.581249,3.872251 3.535539,5.808377 0.10052,10.2801 -10.284219,21.280091 -10.680569,32.447441 l 0.0893,99.65802 c -0.11217,3.50612 2.01054,12.85229 14.432739,13.4738 z"
       id="path4152"
       inkscape:connector-curvature="0"
       sodipodi:nodetypes="ssccccccccs" />
    <path
       style="fill:#e3e2db;fill-rule:evenodd;stroke:#000000;stroke-width:1px;stroke-linecap:butt;stroke-linejoin:miter;stroke-opacity:1"
       d="m 97.984171,61.436864 0.0893,19.186553 c -2.01626,0.232415 -2.86699,3.856084 -0.50508,3.849348 l 68.059029,0.317531 c 2.37452,-0.438475 1.47434,-4.051493 -0.46175,-4.077593 l -0.42214,-18.650839 c -5.37666,-0.896464 -60.11263,-1.223815 -66.759349,-0.625 z"
       id="path4154"
       inkscape:connector-curvature="0"
       sodipodi:nodetypes="ccccccc" />
    <path
       style="fill:none;fill-rule:evenodd;stroke:#000000;stroke-width:1px;stroke-linecap:butt;stroke-linejoin:miter;stroke-opacity:1"
       d="m 105.68721,197.15862 5.24016,0"
       id="path4161"
       inkscape:connector-curvature="0"
       sodipodi:nodetypes="cc" />
    <path
       style="fill:none;fill-rule:evenodd;stroke:#000000;stroke-width:1px;stroke-linecap:butt;stroke-linejoin:miter;stroke-opacity:1"
       d="m 105.87662,179.60721 15.46795,-0.0631"
       id="path4165"
       inkscape:connector-curvature="0"
       sodipodi:nodetypes="cc" />
    <path
       style="opacity:1;fill:none;fill-rule:evenodd;stroke:#000000;stroke-width:1px;stroke-linecap:butt;stroke-linejoin:miter;stroke-opacity:1"
       d="m 105.84505,188.00411 5.24016,0"
       id="path4161-5"
       inkscape:connector-curvature="0"
       sodipodi:nodetypes="cc" />
    <path
       style="opacity:1;fill:none;fill-rule:evenodd;stroke:#000000;stroke-width:1px;stroke-linecap:butt;stroke-linejoin:miter;stroke-opacity:1"
       d="m 105.84505,206.59721 15.46795,-0.0631"
       id="path4165-8"
       inkscape:connector-curvature="0"
       sodipodi:nodetypes="cc" />
    <path
       style="opacity:1;fill:none;fill-rule:evenodd;stroke:#000000;stroke-width:1px;stroke-linecap:butt;stroke-linejoin:miter;stroke-opacity:1"
       d="m 106.06499,171.49441 5.24016,0"
       id="path4161-6"
       inkscape:connector-curvature="0"
       sodipodi:nodetypes="cc" />
    <path
       style="opacity:1;fill:none;fill-rule:evenodd;stroke:#000000;stroke-width:1px;stroke-linecap:butt;stroke-linejoin:miter;stroke-opacity:1"
       d="m 106.2544,153.943 15.46795,-0.0631"
       id="path4165-87"
       inkscape:connector-curvature="0"
       sodipodi:nodetypes="cc" />
    <path
       style="opacity:1;fill:none;fill-rule:evenodd;stroke:#000000;stroke-width:1px;stroke-linecap:butt;stroke-linejoin:miter;stroke-opacity:1"
       d="m 106.22283,162.3399 5.24016,0"
       id="path4161-5-2"
       inkscape:connector-curvature="0"
       sodipodi:nodetypes="cc" />
    <path
       style="opacity:1;fill:none;fill-rule:evenodd;stroke:#000000;stroke-width:1px;stroke-linecap:butt;stroke-linejoin:miter;stroke-opacity:1"
       d="m 106.19127,146.74568 5.24016,0"
       id="path4161-6-6"
       inkscape:connector-curvature="0"
       sodipodi:nodetypes="cc" />
    <path
       style="opacity:1;fill:none;fill-rule:evenodd;stroke:#000000;stroke-width:1px;stroke-linecap:butt;stroke-linejoin:miter;stroke-opacity:1"
       d="m 106.38068,129.19427 15.46795,-0.0631"
       id="path4165-87-3"
       inkscape:connector-curvature="0"
       sodipodi:nodetypes="cc" />
    <path
       style="opacity:1;fill:none;fill-rule:evenodd;stroke:#000000;stroke-width:1px;stroke-linecap:butt;stroke-linejoin:miter;stroke-opacity:1"
       d="m 106.34911,137.59117 5.24016,0"
       id="path4161-5-2-1"
       inkscape:connector-curvature="0"
       sodipodi:nodetypes="cc" />
    <path
       style="fill:#ffffff;fill-rule:evenodd;stroke:none;stroke-width:1px;stroke-linecap:butt;stroke-linejoin:miter;stroke-opacity:1;fill-opacity:1"
       d="m 158.03571,98.321429 c 4.86648,8.830381 7.3203,14.898571 8.47844,20.234201 1.52189,3.27075 2.53124,6.3757 3.30728,9.94437 0.18254,-3.62419 0.11189,-7.01899 -0.56092,-10.79418 -2.16122,-5.33772 -5.58249,-11.12127 -11.2248,-19.384391 z"
       id="path4247"
       inkscape:path-effect="#path-effect4249"
       inkscape:original-d="M 158.03571,98.321429 C 166.7566,112.50094 169.07945,119.46067 169.82143,128.5"
       inkscape:connector-curvature="0"
       sodipodi:nodetypes="cc" />
    <path
       style="fill:none;fill-rule:evenodd;stroke:#000000;stroke-width:0.5;stroke-linecap:butt;stroke-linejoin:miter;stroke-miterlimit:4;stroke-dasharray:none;stroke-opacity:1"
       d="m 98.080357,80.776786 67.187503,0.04465"
       id="path4251"
       inkscape:connector-curvature="0"
       sodipodi:nodetypes="cc" />
    <path
       style="fill:none;fill-rule:evenodd;stroke:#000000;stroke-width:0.5;stroke-linecap:butt;stroke-linejoin:miter;stroke-opacity:1;stroke-miterlimit:4;stroke-dasharray:none"
       d="m 160.53571,88.232144 -57.94642,-0.08929"
       id="path4253"
       inkscape:connector-curvature="0" />
    <path
       style="fill:#ffede0;fill-rule:evenodd;stroke:none;stroke-width:1px;stroke-linecap:butt;stroke-linejoin:miter;stroke-opacity:1;fill-opacity:1"
       d="m 135.61298,16.088772 c 0.85269,0.138803 1.45005,0.596823 1.88783,1.201905 0.44103,0.609582 0.76623,1.432336 1.0048,2.406081 0.058,0.236845 0.11106,0.483222 0.15936,0.738285 0.67569,1.767807 1.11127,4.057092 1.40371,6.477881 0.33157,2.74461 0.47195,5.587543 0.59696,7.933237 0.0623,1.169844 0.12076,2.212905 0.19728,3.048997 0.0765,0.835478 0.17148,1.468892 0.3059,1.80593 -0.0289,-0.348875 -0.0163,-0.988168 0.0135,-1.814818 0.0302,-0.837279 0.0781,-1.86888 0.12237,-3.045079 0.0881,-2.338751 0.16103,-5.22315 0.0379,-8.032443 -0.10768,-2.457038 -0.36753,-4.924535 -0.92829,-6.943836 -0.12188,-0.267095 -0.24925,-0.524758 -0.38244,-0.771584 -0.55051,-1.020181 -1.20146,-1.856058 -1.96357,-2.39538 -0.77233,-0.546559 -1.59544,-0.7449 -2.45536,-0.609176 z"
       id="path4255"
       inkscape:path-effect="#path-effect4257"
       inkscape:original-d="m 135.61298,16.088772 c 6.82541,0.01647 4.90312,20.838261 5.55584,23.612316"
       inkscape:connector-curvature="0"
       sodipodi:nodetypes="cc" />
    <path
       style="fill:none;fill-rule:evenodd;stroke:#aca793;stroke-width:3.80624723;stroke-linecap:round;stroke-linejoin:miter;stroke-miterlimit:4;stroke-dasharray:none;stroke-opacity:1"
       d="m 103.30357,64.734472 0,12.531056"
       id="path4259"
       inkscape:connector-curvature="0" />
    <path
       style="opacity:1;fill:none;fill-rule:evenodd;stroke:#aca793;stroke-width:3.80624723;stroke-linecap:round;stroke-linejoin:miter;stroke-miterlimit:4;stroke-dasharray:none;stroke-opacity:1"
       d="m 117.58929,64.823758 0,12.531056"
       id="path4259-9"
       inkscape:connector-curvature="0" />
    <path
       style="opacity:1;fill:none;fill-rule:evenodd;stroke:#aca793;stroke-width:3.80624723;stroke-linecap:round;stroke-linejoin:miter;stroke-miterlimit:4;stroke-dasharray:none;stroke-opacity:1"
       d="m 132.58929,65.00233 0,12.531056"
       id="path4259-3"
       inkscape:connector-curvature="0" />
    <path
       style="opacity:1;fill:none;fill-rule:evenodd;stroke:#aca793;stroke-width:3.80624723;stroke-linecap:round;stroke-linejoin:miter;stroke-miterlimit:4;stroke-dasharray:none;stroke-opacity:1"
       d="m 147.41071,65.270187 0,12.531056"
       id="path4259-4"
       inkscape:connector-curvature="0" />
    <path
       style="opacity:1;fill:none;fill-rule:evenodd;stroke:#aca793;stroke-width:3.80624723;stroke-linecap:round;stroke-linejoin:miter;stroke-miterlimit:4;stroke-dasharray:none;stroke-opacity:1"
       d="m 159.73214,65.448759 0,12.531056"
       id="path4259-1"
       inkscape:connector-curvature="0" />
  </g>
</svg>
