<svg version="1.1" viewBox="0 0 256 256" xmlns="http://www.w3.org/2000/svg">
 <g font-size="40px" letter-spacing="0px" word-spacing="0px">
  <g font-family="'Courier New'">
   <text x="74.983047" y="165.15254" font-weight="bold" style="line-height:1.25" xml:space="preserve"><tspan x="74.983047" y="200.22791"/></text>
   <g>
    <text x="80.81356" y="165.96609" style="line-height:1.25" xml:space="preserve"><tspan x="80.81356" y="201.04146"/></text>
    <text x="89.491524" y="155.93221" style="line-height:1.25" xml:space="preserve"><tspan x="89.491524" y="191.00757"/></text>
    <text x="45.966103" y="152.54237" style="line-height:1.25" xml:space="preserve"><tspan x="45.966103" y="188.13348"/></text>
   </g>
  </g>
  <text x="71.52565" y="154.94365" font-family="Consolas" style="line-height:1.25" xml:space="preserve"><tspan x="71.52565" y="190.53476"/></text>
 </g>
 <g>
  <rect x="27.414" y="71.244" width="205.02" height="120.38" ry="1.156" fill="#f9f9f9" stroke="#000" stroke-linecap="round" stroke-linejoin="round" stroke-width=".90316"/>
  <rect x="38.508" y="158.37" width="93.017" height="3.2542" ry="1.3878e-16" fill="#ccc"/>
  <rect x="131.53" y="158.37" width="93.017" height="3.2542" ry="1.3878e-16" fill="#7f2aff"/>
 </g>
 <g fill="none" stroke="#000" stroke-linecap="round" stroke-linejoin="round" stroke-width=".65148">
  <path d="m39.791 168.82 0.30411-3.3274 4.1562 2.9456 3.3452-2.7274v2.9456l4.0548-2.9456 2.1288 2.291 2.4329-2.1819 0.81096 2.782 0.81096-3.1092 0.81096 3.9275 1.4192-3.8729s2.6356 1.2001 3.3452 2.291c0.70959 1.091 0.60822-1.7455 0.60822-1.7455l4.0548 0.1091 0.10137 2.8911 2.4329-3.0002s4.7644 3.0002 4.2576 2.9456c-0.50685-0.0546-4.9672-1.1455-4.9672-1.1455l6.7918-1.6364v2.8365l2.737-2.1819 1.0137 1.8001"/>
  <path d="m60.247 175.34s-2.6803-1.0967-3.4318-2.1593c-0.75146-1.0626-0.53991 1.7679-0.53991 1.7679l-4.056 0.0486-0.21367-2.8849-2.3144 3.0925s-4.8774-2.8127-4.3688-2.7779c0.50859 0.0349 5.0079 0.95157 5.0079 0.95157l-6.7231 1.8992-0.11026-2.8344-2.6501 2.2867-1.0829-1.7593"/>
  <path d="m51.068 177.18-0.31371 3.3266-4.1477-2.9576-3.3531 2.7178 0.0085-2.9456-4.0633 2.9339"/>
  <path d="m65.942 180.39-0.21367-2.8849-2.3144 3.0925s-4.8774-2.8127-4.3688-2.7779c0.50859 0.0349 5.0079 0.95157 5.0079 0.95157l-6.7231 1.8992-0.11026-2.8344-2.6501 2.2867-1.0829-1.7593"/>
  <path d="m222.45 176.75-0.32987 3.325-4.1332-2.9777-3.3662 2.7014 0.0228-2.9455-4.0775 2.9141-2.111-2.3074-2.4497 2.163-0.7894-2.7882-0.83501 3.1029-0.78053-3.9336-1.4491 3.8618s-2.6263-1.2204-3.3274-2.3168c-0.70112-1.0964-0.62172 1.7408-0.62172 1.7408l-4.0539-0.1405-0.079-2.8918-2.456 2.9812s-4.741-3.037-4.2346-2.9785c0.50641 0.0585 4.9581 1.184 4.9581 1.184l-6.8043 1.5838 0.022-2.8364-2.7538 2.1607-0.99973-1.8079"/>
 </g>
 <path d="m167.29 94.246c5.1823 0.02008 7.8704-5.7449 4.7404-11.2l1.1291-0.30628-0.64331-1.1947-2.6589 1.0535c2.2453 2.39 1.2888 8.2548-2.4493 8.2796-4.1643 0.02759-4.5559-6.1996-2.6755-8.3279l-2.6633-1.0676-0.63796 1.2744 1.1573 0.42961c-3.1896 5.4277-0.18295 11.04 4.7015 11.059zm1.4526-1.071a0.78013 0.76162 0 0 1-0.78015-0.76163 0.78013 0.76162 0 0 1 0.78015-0.76193 0.78013 0.76162 0 0 1 0.78012 0.76193 0.78013 0.76162 0 0 1-0.78012 0.76163zm-2.9781-0.0185a0.78013 0.76162 0 0 1-0.77982-0.76163 0.78013 0.76162 0 0 1 0.78012-0.76161 0.78013 0.76162 0 0 1 0.78015 0.76161 0.78013 0.76162 0 0 1-0.78015 0.76163zm-2.1691-1.6726a0.78013 0.76162 0 0 1-0.78013-0.76162 0.78013 0.76162 0 0 1 0.78013-0.76162 0.78013 0.76162 0 0 1 0.78013 0.76162 0.78013 0.76162 0 0 1-0.78013 0.76162zm7.592-0.1839a0.78013 0.76162 0 0 1-0.78014-0.76162 0.78013 0.76162 0 0 1 0.78014-0.76162 0.78013 0.76162 0 0 1 0.78013 0.76162 0.78013 0.76162 0 0 1-0.78013 0.76162zm0.90001-2.2469a0.70199 0.68568 0 0 1-0.70201-0.68599 0.70199 0.68568 0 0 1 0.70201-0.68536 0.70199 0.68568 0 0 1 0.70199 0.68536 0.70199 0.68568 0 0 1-0.70199 0.68568zm-9.3892-0.13021a0.70199 0.68568 0 0 1-0.702-0.68536 0.70199 0.68568 0 0 1 0.70232-0.68568 0.70199 0.68568 0 0 1 0.70199 0.68568 0.70199 0.68568 0 0 1-0.70199 0.68536z" fill="#7137c8" fill-rule="evenodd" stroke="#000" stroke-linejoin="round" stroke-width=".20586"/>
 <g fill="#b7bec8">
  <path d="m175.68 93.424v-11.5h3.8125q6.1094 0 6.1094 5.6094 0 2.6719-1.7266 4.2812-1.7188 1.6094-4.4297 1.6094zm2.2266-9.6484v7.8047h1.4062q1.8516 0 2.8984-1.0703 1.0469-1.0781 1.0469-2.9453 0-1.8359-1.0469-2.8125-1.0469-0.97656-2.8828-0.97656z"/>
  <path d="m185.5 89.369q0-2.0156 1.1875-3.1797 1.1875-1.1719 3.2188-1.1719 1.9609 0 3.0938 1.1484 1.1406 1.1406 1.1406 3.0625 0 2-1.1797 3.2031-1.1719 1.1953-3.1797 1.1953-1.9688 0-3.125-1.1484-1.1562-1.1562-1.1562-3.1094zm2.2031-0.03125q0 2.5859 2.1484 2.5859 2.0703 0 2.0703-2.6484 0-2.5625-2.0781-2.5625-1.0156 0-1.5781 0.70312-0.5625 0.69531-0.5625 1.9219z"/>
  <path d="m206.67 93.424h-2.1719v-4.6875q0-2.0234-1.4688-2.0234-0.67969 0-1.1406 0.61719-0.45312 0.60938-0.45312 1.4688v4.625h-2.1719v-4.7734q0-1.9375-1.4609-1.9375-0.69532 0-1.1406 0.57812-0.44531 0.57031-0.44531 1.5312v4.6016h-2.1797v-8.2109h2.1797v1.2969h0.0234q0.92187-1.4922 2.6328-1.4922 1.7344 0 2.3594 1.5781 0.9375-1.5781 2.7422-1.5781 2.6953 0 2.6953 3.3125z"/>
 </g>
 <g fill="#7137c8">
  <path d="m213.33 93.424h-6.6562v-11.5h6.6381v1.8516h-4.4116v2.9297h4.4023v1.8438h-4.4023v3.0312h4.4297z"/>
  <path d="m221.73 86.711-2.7266 3.2957 2.7031 3.4171h-2.5234l-1.3047-1.9161c-0.15625-0.22568-0.27344-0.41942-0.35157-0.58122h-0.0312c-0.0417 0.09793-0.15364 0.28742-0.33593 0.56845l-1.3359 1.9289h-2.5l2.7812-3.3277-2.7886-3.3729h2.5312l1.4449 1.9933c0.16146 0.25122 0.27344 0.45135 0.33594 0.60039h0.0312c0.10937-0.22568 0.22396-0.42368 0.34375-0.594l1.3438-2.0119z"/>
  <path d="m51.852 142.86h-2.3281l-5.0859-7.7891q-0.3125-0.47656-0.51562-0.89063h-0.03125q0.0625 0.54688 0.0625 1.7812v6.8984h-2.125v-11.5h2.4844l4.9062 7.5859q0.375 0.57812 0.54688 0.89062h0.03125q-0.0625-0.30468-0.0625-1.6094v-6.8672h2.1172z"/>
  <path d="m54.368 135.18q0.55469-0.32031 1.4375-0.51562 0.88281-0.20313 1.5859-0.20313 3.3281 0 3.3281 3.375v5.0312h-2.0781v-1.2109h-0.03906q-0.82812 1.4141-2.4609 1.4141-1.1875 0-1.8828-0.66407-0.69531-0.67187-0.69531-1.7969 0-2.3516 2.7969-2.7266l2.2891-0.3125q0-1.5703-1.5312-1.5703-1.4609 0-2.75 0.91407zm2.6484 3.9375q-1.4062 0.17969-1.4062 1.2578 0 0.48438 0.33594 0.78907 0.33594 0.30468 0.90625 0.30468 0.78125 0 1.2891-0.54687 0.50781-0.55469 0.50781-1.3906v-0.625z"/>
  <path d="m67.267 142.78q-0.55469 0.28125-1.5469 0.28125-2.5234 0-2.5234-2.6719v-4.0781h-1.3594v-1.6562h1.3594v-1.8359l2.1719-0.63282v2.4688h1.8984v1.6562h-1.8984v3.6953q0 1.3594 1.0703 1.3594 0.44531 0 0.82812-0.25z"/>
  <path d="m68.792 135.18q0.55469-0.32031 1.4375-0.51562 0.88281-0.20313 1.5859-0.20313 3.3281 0 3.3281 3.375v5.0312h-2.0781v-1.2109h-0.03906q-0.82812 1.4141-2.4609 1.4141-1.1875 0-1.8828-0.66407-0.69531-0.67187-0.69531-1.7969 0-2.3516 2.7969-2.7266l2.2891-0.3125q0-1.5703-1.5312-1.5703-1.4609 0-2.75 0.91407zm2.6484 3.9375q-1.4062 0.17969-1.4062 1.2578 0 0.48438 0.33594 0.78907 0.33594 0.30468 0.90625 0.30468 0.78125 0 1.2891-0.54687 0.50781-0.55469 0.50781-1.3906v-0.625z"/>
  <path d="m77.043 142.86v-12.148h2.1719v12.148z"/>
  <path d="m88.716 134.65-3.4609 9.0625q-1.1484 3.0078-3.4062 3.0078-0.78125 0-1.3203-0.17969v-1.7734q0.46875 0.25 1.0156 0.25 0.97656 0 1.3984-1l0.5-1.1719-3.2969-8.1953h2.4141l1.7266 5.3828q0.07813 0.25781 0.21094 0.96093h0.03125q0.0625-0.40625 0.23438-0.94531l1.7812-5.3984z"/>
  <path d="m89.818 135.18q0.55469-0.32031 1.4375-0.51562 0.88281-0.20313 1.5859-0.20313 3.3281 0 3.3281 3.375v5.0312h-2.0781v-1.2109h-0.03906q-0.82812 1.4141-2.4609 1.4141-1.1875 0-1.8828-0.66407-0.69531-0.67187-0.69531-1.7969 0-2.3516 2.7969-2.7266l2.2891-0.3125q0-1.5703-1.5312-1.5703-1.4609 0-2.75 0.91407zm2.6484 3.9375q-1.4062 0.17969-1.4062 1.2578 0 0.48438 0.33594 0.78907 0.33594 0.30468 0.90625 0.30468 0.78125 0 1.2891-0.54687 0.50781-0.55469 0.50781-1.3906v-0.625z"/>
 </g>
 <g fill="none" stroke="#000" stroke-linecap="round" stroke-linejoin="round" stroke-width=".65148">
  <path d="m62.119 149.51-0.41529 3.3154-4.0553-3.083-3.4346 2.614 0.09857-2.944-4.1511 2.8083-2.0509-2.361-2.5045 2.0993-0.71742-2.8075-0.91455 3.0804-0.67908-3.9524-1.548 3.8233"/>
  <path d="m87.519 152.91s-2.6803-1.0967-3.4318-2.1593c-0.75146-1.0626-0.53991 1.7679-0.53991 1.7679l-4.056 0.0486-0.21367-2.8849-2.3144 3.0925s-4.8774-2.8127-4.3688-2.7779c0.50859 0.0349 5.0079 0.95157 5.0079 0.95157l-6.7231 1.8992-0.11026-2.8344-2.6501 2.2867-1.0829-1.7593"/>
  <path d="m98.891 152.41-0.21367-2.8849-2.3144 3.0925s-4.8774-2.8127-4.3688-2.7779c0.50859 0.0349 5.0079 0.95157 5.0079 0.95157l-6.7231 1.8992-0.11026-2.8344-2.6501 2.2867-1.0829-1.7593"/>
 </g>
</svg>
