<svg version="1.1" viewBox="0 0 256 256" xmlns="http://www.w3.org/2000/svg">
 <g font-size="40px" letter-spacing="0px" word-spacing="0px">
  <g font-family="'Courier New'">
   <text x="74.983047" y="165.15254" font-weight="bold" style="line-height:1.25" xml:space="preserve"><tspan x="74.983047" y="200.22791"/></text>
   <g>
    <text x="80.81356" y="165.96609" style="line-height:1.25" xml:space="preserve"><tspan x="80.81356" y="201.04146"/></text>
    <text x="89.491524" y="155.93221" style="line-height:1.25" xml:space="preserve"><tspan x="89.491524" y="191.00757"/></text>
    <text x="45.966103" y="152.54237" style="line-height:1.25" xml:space="preserve"><tspan x="45.966103" y="188.13348"/></text>
   </g>
  </g>
  <text x="71.52565" y="154.94365" font-family="Consolas" style="line-height:1.25" xml:space="preserve"><tspan x="71.52565" y="190.53476"/></text>
 </g>
 <g>
  <rect x="27.414" y="71.244" width="205.02" height="120.38" ry="1.156" fill="#f9f9f9" stroke="#000" stroke-linecap="round" stroke-linejoin="round" stroke-width=".90316"/>
  <rect x="38.508" y="158.37" width="93.017" height="3.2542" ry="1.3878e-16" fill="#ccc"/>
  <rect x="131.53" y="158.37" width="93.017" height="3.2542" ry="1.3878e-16" fill="#7f2aff"/>
 </g>
 <g fill="none" stroke="#000" stroke-linecap="round" stroke-linejoin="round" stroke-width=".65148">
  <path d="m39.791 168.82 0.30411-3.3274 4.1562 2.9456 3.3452-2.7274v2.9456l4.0548-2.9456 2.1288 2.291 2.4329-2.1819 0.81096 2.782 0.81096-3.1092 0.81096 3.9275 1.4192-3.8729s2.6356 1.2001 3.3452 2.291c0.70959 1.091 0.60822-1.7455 0.60822-1.7455l4.0548 0.1091 0.10137 2.8911 2.4329-3.0002s4.7644 3.0002 4.2576 2.9456c-0.50685-0.0546-4.9672-1.1455-4.9672-1.1455l6.7918-1.6364v2.8365l2.737-2.1819 1.0137 1.8001"/>
  <path d="m60.247 175.34s-2.6803-1.0967-3.4318-2.1593c-0.75146-1.0626-0.53991 1.7679-0.53991 1.7679l-4.056 0.0486-0.21367-2.8849-2.3144 3.0925s-4.8774-2.8127-4.3688-2.7779c0.50859 0.0349 5.0079 0.95157 5.0079 0.95157l-6.7231 1.8992-0.11026-2.8344-2.6501 2.2867-1.0829-1.7593"/>
  <path d="m51.068 177.18-0.31371 3.3266-4.1477-2.9576-3.3531 2.7178 0.0085-2.9456-4.0633 2.9339"/>
  <path d="m65.942 180.39-0.21367-2.8849-2.3144 3.0925s-4.8774-2.8127-4.3688-2.7779c0.50859 0.0349 5.0079 0.95157 5.0079 0.95157l-6.7231 1.8992-0.11026-2.8344-2.6501 2.2867-1.0829-1.7593"/>
  <path d="m222.45 176.75-0.32987 3.325-4.1332-2.9777-3.3662 2.7014 0.0228-2.9455-4.0775 2.9141-2.111-2.3074-2.4497 2.163-0.7894-2.7882-0.83501 3.1029-0.78053-3.9336-1.4491 3.8618s-2.6263-1.2204-3.3274-2.3168c-0.70112-1.0964-0.62172 1.7408-0.62172 1.7408l-4.0539-0.1405-0.079-2.8918-2.456 2.9812s-4.741-3.037-4.2346-2.9785c0.50641 0.0585 4.9581 1.184 4.9581 1.184l-6.8043 1.5838 0.022-2.8364-2.7538 2.1607-0.99973-1.8079"/>
 </g>
 <path d="m167.29 94.246c5.1823 0.02008 7.8704-5.7449 4.7404-11.2l1.1291-0.30628-0.64331-1.1947-2.6589 1.0535c2.2453 2.39 1.2888 8.2548-2.4493 8.2796-4.1643 0.02759-4.5559-6.1996-2.6755-8.3279l-2.6633-1.0676-0.63796 1.2744 1.1573 0.42961c-3.1896 5.4277-0.18295 11.04 4.7015 11.059zm1.4526-1.071a0.78013 0.76162 0 0 1-0.78015-0.76163 0.78013 0.76162 0 0 1 0.78015-0.76193 0.78013 0.76162 0 0 1 0.78012 0.76193 0.78013 0.76162 0 0 1-0.78012 0.76163zm-2.9781-0.0185a0.78013 0.76162 0 0 1-0.77982-0.76163 0.78013 0.76162 0 0 1 0.78012-0.76161 0.78013 0.76162 0 0 1 0.78015 0.76161 0.78013 0.76162 0 0 1-0.78015 0.76163zm-2.1691-1.6726a0.78013 0.76162 0 0 1-0.78013-0.76162 0.78013 0.76162 0 0 1 0.78013-0.76162 0.78013 0.76162 0 0 1 0.78013 0.76162 0.78013 0.76162 0 0 1-0.78013 0.76162zm7.592-0.1839a0.78013 0.76162 0 0 1-0.78014-0.76162 0.78013 0.76162 0 0 1 0.78014-0.76162 0.78013 0.76162 0 0 1 0.78013 0.76162 0.78013 0.76162 0 0 1-0.78013 0.76162zm0.90001-2.2469a0.70199 0.68568 0 0 1-0.70201-0.68599 0.70199 0.68568 0 0 1 0.70201-0.68536 0.70199 0.68568 0 0 1 0.70199 0.68536 0.70199 0.68568 0 0 1-0.70199 0.68568zm-9.3892-0.13021a0.70199 0.68568 0 0 1-0.702-0.68536 0.70199 0.68568 0 0 1 0.70232-0.68568 0.70199 0.68568 0 0 1 0.70199 0.68568 0.70199 0.68568 0 0 1-0.70199 0.68536z" fill="#7137c8" fill-rule="evenodd" stroke="#000" stroke-linejoin="round" stroke-width=".20586"/>
 <g fill="#b7bec8">
  <path d="m175.68 93.424v-11.5h3.8125q6.1094 0 6.1094 5.6094 0 2.6719-1.7266 4.2812-1.7188 1.6094-4.4297 1.6094zm2.2266-9.6484v7.8047h1.4062q1.8516 0 2.8984-1.0703 1.0469-1.0781 1.0469-2.9453 0-1.8359-1.0469-2.8125-1.0469-0.97656-2.8828-0.97656z"/>
  <path d="m185.5 89.369q0-2.0156 1.1875-3.1797 1.1875-1.1719 3.2188-1.1719 1.9609 0 3.0938 1.1484 1.1406 1.1406 1.1406 3.0625 0 2-1.1797 3.2031-1.1719 1.1953-3.1797 1.1953-1.9688 0-3.125-1.1484-1.1562-1.1562-1.1562-3.1094zm2.2031-0.03125q0 2.5859 2.1484 2.5859 2.0703 0 2.0703-2.6484 0-2.5625-2.0781-2.5625-1.0156 0-1.5781 0.70312-0.5625 0.69531-0.5625 1.9219z"/>
  <path d="m206.67 93.424h-2.1719v-4.6875q0-2.0234-1.4688-2.0234-0.67969 0-1.1406 0.61719-0.45312 0.60938-0.45312 1.4688v4.625h-2.1719v-4.7734q0-1.9375-1.4609-1.9375-0.69532 0-1.1406 0.57812-0.44531 0.57031-0.44531 1.5312v4.6016h-2.1797v-8.2109h2.1797v1.2969h0.0234q0.92187-1.4922 2.6328-1.4922 1.7344 0 2.3594 1.5781 0.9375-1.5781 2.7422-1.5781 2.6953 0 2.6953 3.3125z"/>
 </g>
 <g fill="#7137c8">
  <path d="m213.33 93.424h-6.6562v-11.5h6.6381v1.8516h-4.4116v2.9297h4.4023v1.8438h-4.4023v3.0312h4.4297z"/>
  <path d="m221.73 86.711-2.7266 3.2957 2.7031 3.4171h-2.5234l-1.3047-1.9161c-0.15625-0.22568-0.27344-0.41942-0.35157-0.58122h-0.0312c-0.0417 0.09793-0.15364 0.28742-0.33593 0.56845l-1.3359 1.9289h-2.5l2.7812-3.3277-2.7886-3.3729h2.5312l1.4449 1.9933c0.16146 0.25122 0.27344 0.45135 0.33594 0.60039h0.0312c0.10937-0.22568 0.22396-0.42368 0.34375-0.594l1.3438-2.0119z"/>
  <path d="m51.852 142.86h-2.3281l-5.0859-7.7891q-0.3125-0.47656-0.51562-0.89063h-0.03125q0.0625 0.54688 0.0625 1.7812v6.8984h-2.125v-11.5h2.4844l4.9062 7.5859q0.375 0.57812 0.54688 0.89062h0.03125q-0.0625-0.30468-0.0625-1.6094v-6.8672h2.1172z"/>
  <path d="m54.368 135.18q0.55469-0.32031 1.4375-0.51562 0.88281-0.20313 1.5859-0.20313 3.3281 0 3.3281 3.375v5.0312h-2.0781v-1.2109h-0.03906q-0.82812 1.4141-2.4609 1.4141-1.1875 0-1.8828-0.66407-0.69531-0.67187-0.69531-1.7969 0-2.3516 2.7969-2.7266l2.2891-0.3125q0-1.5703-1.5312-1.5703-1.4609 0-2.75 0.91407zm2.6484 3.9375q-1.4062 0.17969-1.4062 1.2578 0 0.48438 0.33594 0.78907 0.33594 0.30468 0.90625 0.30468 0.78125 0 1.2891-0.54687 0.50781-0.55469 0.50781-1.3906v-0.625z"/>
  <path d="m67.267 142.78q-0.55469 0.28125-1.5469 0.28125-2.5234 0-2.5234-2.6719v-4.0781h-1.3594v-1.6562h1.3594v-1.8359l2.1719-0.63282v2.4688h1.8984v1.6562h-1.8984v3.6953q0 1.3594 1.0703 1.3594 0.44531 0 0.82812-0.25z"/>
  <path d="m68.792 135.18q0.55469-0.32031 1.4375-0.51562 0.88281-0.20313 1.5859-0.20313 3.3281 0 3.3281 3.375v5.0312h-2.0781v-1.2109h-0.03906q-0.82812 1.4141-2.4609 1.4141-1.1875 0-1.8828-0.66407-0.69531-0.67187-0.69531-1.7969 0-2.3516 2.7969-2.7266l2.2891-0.3125q0-1.5703-1.5312-1.5703-1.4609 0-2.75 0.91407zm2.6484 3.9375q-1.4062 0.17969-1.4062 1.2578 0 0.48438 0.33594 0.78907 0.33594 0.30468 0.90625 0.30468 0.78125 0 1.2891-0.54687 0.50781-0.55469 0.50781-1.3906v-0.625z"/>
  <path d="m77.043 142.86v-12.148h2.1719v12.148z"/>
  <path d="m88.716 134.65-3.4609 9.0625q-1.1484 3.0078-3.4062 3.0078-0.78125 0-1.3203-0.17969v-1.7734q0.46875 0.25 1.0156 0.25 0.97656 0 1.3984-1l0.5-1.1719-3.2969-8.1953h2.4141l1.7266 5.3828q0.07813 0.25781 0.21094 0.96093h0.03125q0.0625-0.40625 0.23438-0.94531l1.7812-5.3984z"/>
  <path d="m89.818 135.18q0.55469-0.32031 1.4375-0.51562 0.88281-0.20313 1.5859-0.20313 3.3281 0 3.3281 3.375v5.0312h-2.0781v-1.2109h-0.03906q-0.82812 1.4141-2.4609 1.4141-1.1875 0-1.8828-0.66407-0.69531-0.67187-0.69531-1.7969 0-2.3516 2.7969-2.7266l2.2891-0.3125q0-1.5703-1.5312-1.5703-1.4609 0-2.75 0.91407zm2.6484 3.9375q-1.4062 0.17969-1.4062 1.2578 0 0.48438 0.33594 0.78907 0.33594 0.30468 0.90625 0.30468 0.78125 0 1.2891-0.54687 0.50781-0.55469 0.50781-1.3906v-0.625z"/>
 </g>
 <g fill="none" stroke="#000" stroke-linecap="round" stroke-linejoin="round" stroke-width=".65148">
  <path d="m62.119 149.51-0.41529 3.3154-4.0553-3.083-3.4346 2.614 0.09857-2.944-4.1511 2.8083-2.0509-2.361-2.5045 2.0993-0.71742-2.8075-0.91455 3.0804-0.67908-3.9524-1.548 3.8233"/>
  <path d="m87.519 152.91s-2.6803-1.0967-3.4318-2.1593c-0.75146-1.0626-0.53991 1.7679-0.53991 1.7679l-4.056 0.0486-0.21367-2.8849-2.3144 3.0925s-4.8774-2.8127-4.3688-2.7779c0.50859 0.0349 5.0079 0.95157 5.0079 0.95157l-6.7231 1.8992-0.11026-2.8344-2.6501 2.2867-1.0829-1.7593"/>
  <path d="m98.891 152.41-0.21367-2.8849-2.3144 3.0925s-4.8774-2.8127-4.3688-2.7779c0.50859 0.0349 5.0079 0.95157 5.0079 0.95157l-6.7231 1.8992-0.11026-2.8344-2.6501 2.2867-1.0829-1.7593"/>
 </g>
 <path d="m158.55 163.71c21.617 8.1875 41.406-10.464 36.433-36.988l5.1712 0.55221-0.91301-5.7432-12.671 0.0168c5.8296 12.989-6.8752 34.745-22.526 28.995-17.435-6.4058-9.8236-31.708 1.1914-37.204l-9.5395-8.3997-4.5573 4.0545 4.1962 3.514c-21.383 16.529-17.159 43.486 3.215 51.203zm7.6583-1.9737a3.4797 3.2245 20.534 0 1-2.1277-4.2403 3.4797 3.2245 20.534 0 1 4.3902-1.8003 3.4797 3.2245 20.534 0 1 2.1272 4.2414 3.4797 3.2245 20.534 0 1-4.3897 1.7991zm-12.412-4.7327a3.4797 3.2245 20.534 0 1-2.1263-4.2397 3.4797 3.2245 20.534 0 1 4.3896-1.7991 3.4797 3.2245 20.534 0 1 2.1277 4.2402 3.4797 3.2245 20.534 0 1-4.3898 1.7991zm-6.5764-10.025a3.4797 3.2245 20.534 0 1-2.1276-4.2402 3.4797 3.2245 20.534 0 1 4.3896-1.7991 3.4797 3.2245 20.534 0 1 2.1276 4.2402 3.4797 3.2245 20.534 0 1-4.3897 1.7991zm31.985 11.149a3.4797 3.2245 20.534 0 1-2.1277-4.2402 3.4797 3.2245 20.534 0 1 4.3897-1.7991 3.4797 3.2245 20.534 0 1 2.1276 4.2402 3.4797 3.2245 20.534 0 1-4.3897 1.7991zm7.0961-7.5003a3.1312 2.903 20.534 0 1-1.9136-3.8181 3.1312 2.903 20.534 0 1 3.9501-1.619 3.1312 2.903 20.534 0 1 1.9144 3.8156 3.1312 2.903 20.534 0 1-3.9505 1.6203zm-39.026-15.206a3.1312 2.903 20.534 0 1-1.9144-3.8156 3.1312 2.903 20.534 0 1 3.9518-1.6198 3.1312 2.903 20.534 0 1 1.914 3.8169 3.1312 2.903 20.534 0 1-3.95 1.619z" fill="#a00" fill-rule="evenodd"/>
 <ellipse transform="rotate(20.534)" cx="205.89" cy="67.284" rx="38.716" ry="39.123" fill="none" stroke="#a00" stroke-linecap="round" stroke-linejoin="round" stroke-width="4.771"/>
 <g fill="#a00">
  <path d="m137.49 105.85c1.3202-1.3251 3.5633-3.2142 6.3628-5.0243 2.849-1.8421 5.136-2.8962 6.6474-3.6355 1.0406-0.50895 2.4764-1.1967 4.2245-1.8765 2.959-1.1507 6.0668-1.9837 9.1441-2.286 3.0239-0.29701 5.2586-7.81e-4 6.6021 0.33529-1.3551-0.33896-3.5288-0.79731-6.6257-0.71268-3.1314 0.08557-6.3666 0.70773-9.4565 1.7268-1.8169 0.59924-3.3374 1.2558-4.3968 1.774-1.4631 0.71564-3.854 2.1467-6.4752 4.2038-2.7569 2.1635-4.6174 4.0803-6.0268 5.495z"/>
  <path d="m188.24 104.06c1.4714 1.1548 3.6116 3.1598 5.739 5.7265 2.165 2.6121 3.4812 4.759 4.3934 6.1727 0.62801 0.97334 1.4802 2.3181 2.3612 3.974 1.4913 2.8028 2.6847 5.7908 3.3475 8.8111 0.65125 2.9678 0.62039 5.2219 0.44497 6.5956 0.17693-1.3856 0.37596-3.5981-0.073-6.6635-0.45395-3.0995-1.453-6.2389-2.8291-9.1872-0.80915-1.7336-1.6403-3.1661-2.2797-4.1572-0.88306-1.3686-2.5858-3.5742-4.9375-5.9348-2.4733-2.4827-4.596-4.1044-6.1668-5.3373z"/>
  <path d="m207.47 153.81c-0.86792 1.6569-2.4502 4.1261-4.5871 6.6848-2.1747 2.604-4.0464 4.2887-5.2707 5.4429-0.84287 0.79457-2.0102 1.8771-3.4782 3.0447-2.4848 1.9762-5.2059 3.6932-8.0552 4.8943-2.7998 1.1802-5.0219 1.5598-6.4047 1.6372 1.3946-0.078 3.6065-0.28478 6.5391-1.2838 2.9653-1.0102 5.8705-2.5635 8.5193-4.4529 1.5575-1.111 2.815-2.1888 3.6732-2.9978 1.1852-1.1173 3.0442-3.1928 4.9377-5.9346 1.9914-2.8836 3.2-5.2658 4.1266-7.0348z"/>
  <path d="m190.54 163.97c-1.6034 0.96325-4.2394 2.2484-7.3958 3.3214-3.2121 1.0919-5.6871 1.5566-7.3332 1.9051-1.1332 0.2399-2.6934 0.55687-4.5546 0.78995-3.1503 0.39451-6.3674 0.44471-9.4255-0.0124-3.005-0.44918-5.1001-1.2813-6.3211-1.9348 1.2315 0.6591 3.2279 1.6336 6.252 2.3065 3.0578 0.68046 6.347 0.86583 9.5922 0.6308 1.9082-0.13819 3.5428-0.4042 4.6967-0.64847 1.5935-0.33733 4.261-1.1423 7.3047-2.4983 3.2012-1.4261 5.4728-2.8314 7.1846-3.8598z"/>
  <path d="m133.45 158.92c-0.97161-1.5983-2.2705-4.2276-3.36-7.3783-1.1087-3.2064-1.5863-5.6789-1.9434-7.3231-0.24582-1.132-0.57093-2.6904-0.81372-4.5504-0.41097-3.1482-0.47797-6.365-0.0368-9.4255 0.43348-3.0074 1.2546-5.1067 1.9018-6.3312-0.65266 1.235-1.6167 3.2364-2.2738 6.2639-0.66448 3.0613-0.83267 6.3515-0.5807 9.5953 0.14816 1.9074 0.4227 3.5406 0.67299 4.6932 0.34565 1.5917 1.1645 4.255 2.5364 7.2916 1.4428 3.1936 2.86 5.458 3.8973 7.1644z"/>
  <path d="m184.4 140.39c-0.83951 1.3299-2.1794 3.0919-4.0166 4.6714-1.8516 1.5919-3.834 2.6823-5.8406 3.3233-2.2501 0.71879-4.1151 0.7414-5.2475 0.72004-1.1951-0.0225-2.8781-0.17619-4.7803-0.85967-2.8789-1.0344-5.7437-3.1191-7.6748-6.4247-2.3948-4.0995-2.4675-8.525-1.9281-11.702-0.53662 3.1608-0.6871 7.5848 1.5454 11.912 1.8058 3.5 4.6594 5.885 7.6982 7.1424 2.003 0.82888 3.82 1.0639 5.1178 1.0884 1.2342 0.0233 3.2426-0.16545 5.548-1.1156 4.5944-1.8934 7.5455-5.5353 9.5784-8.7557z"/>
  <path d="m166.14 166.17c-1.5638 0.13405-3.8377 0.0964-6.4525-0.59378-2.6356-0.69568-5.1083-1.9159-7.3488-3.553-2.5307-1.8492-4.2626-3.8595-5.3284-5.169-1.1043-1.3567-2.6036-3.4094-3.9306-6.1946-2.0158-4.2309-3.283-9.4508-2.7756-15.035 0.628-6.9119 3.7443-11.974 6.5816-15.159-2.8316 3.1782-6.1257 8.1147-7.0156 15.111-0.71925 5.6549 0.3574 11.054 2.3047 15.496 1.2806 2.9212 2.7871 5.0968 3.9385 6.5113 1.106 1.3588 3.0437 3.3672 5.7684 5.108 2.421 1.5467 5.0339 2.6116 7.7433 3.1541 2.6923 0.5391 4.9469 0.45795 6.5151 0.32352z"/>
  <path d="m156.68 103.93c0.46944 0.3272 1.2762 1.0796 2.252 2.0618 0.75448 0.75952 1.5485 1.5951 1.9509 1.9632 0.13643 0.12481 0.31045 0.27649 0.51054 0.44742 0.53831 0.45985 1.9915 1.6658 2.6968 2.2546 0.88967 0.74274 1.6092 1.3453 1.878 1.612-0.28181-0.27962-0.86247-0.96949-1.6414-1.8548-0.80403-0.91377-1.6795-1.8768-2.3934-2.5942-0.18731-0.18822-0.35382-0.34953-0.49176-0.47572-0.4283-0.39181-1.301-1.0672-2.2058-1.7108-1.0758-0.76521-2.1226-1.4016-2.5557-1.7035z"/>
  <path d="m195.76 127.56c0.79635 0.0895 1.9911 0.36646 3.2065 0.66481 1.0877 0.26701 1.7878 0.43865 2.2063 0.46583 0.0662 4e-3 0.14128 6e-3 0.22164 5e-3 0.17482-3e-3 0.34912-0.0197 0.52118-0.0507-0.0353-0.14869-0.0714-0.29719-0.10826-0.44548-0.26554-1.067-0.74594-2.8077-1.0396-3.8704-0.31603-1.1435-0.58564-2.1037-0.66872-2.5317 0.0976 0.50275 0.16416 1.3455 0.30824 2.6017 0.14725 1.2838 0.35057 2.7109 0.60559 3.979l0.41292-0.49619c-0.0713-7e-3 -0.13862-0.0132-0.1993-0.0171-0.3436-0.0223-1.1421-0.0215-2.1947-0.0786-0.95847-0.052-2.7677-0.16934-3.2717-0.226z"/>
 </g>
</svg>
