<?xml version="1.0" encoding="UTF-8" standalone="no"?>
<!-- Created with Inkscape (http://www.inkscape.org/) -->

<svg
   xmlns:dc="http://purl.org/dc/elements/1.1/"
   xmlns:cc="http://creativecommons.org/ns#"
   xmlns:rdf="http://www.w3.org/1999/02/22-rdf-syntax-ns#"
   xmlns:svg="http://www.w3.org/2000/svg"
   xmlns="http://www.w3.org/2000/svg"
   xmlns:sodipodi="http://sodipodi.sourceforge.net/DTD/sodipodi-0.dtd"
   xmlns:inkscape="http://www.inkscape.org/namespaces/inkscape"
   viewBox="0 0 256 256"
   id="svg2"
   version="1.1"
   inkscape:version="0.92.3 (2405546, 2018-03-11)"
   sodipodi:docname="present.svg">
  <defs
     id="defs4">
    <inkscape:path-effect
       effect="powerstroke"
       id="path-effect4262"
       is_visible="true"
       offset_points="0,0.5"
       sort_points="true"
       interpolator_type="CubicBezierJohan"
       interpolator_beta="0.2"
       start_linecap_type="zerowidth"
       linejoin_type="round"
       miter_limit="4"
       end_linecap_type="zerowidth"
       cusp_linecap_type="round" />
    <inkscape:path-effect
       effect="powerstroke"
       id="path-effect4258"
       is_visible="true"
       offset_points="0.99572121,0.51464962"
       sort_points="true"
       interpolator_type="Linear"
       interpolator_beta="0.2"
       start_linecap_type="zerowidth"
       linejoin_type="round"
       miter_limit="4"
       end_linecap_type="zerowidth"
       cusp_linecap_type="round" />
    <inkscape:path-effect
       effect="powerstroke"
       id="path-effect4254"
       is_visible="true"
       offset_points="0.52748959,-1.0489494"
       sort_points="true"
       interpolator_type="Linear"
       interpolator_beta="0.2"
       start_linecap_type="zerowidth"
       linejoin_type="round"
       miter_limit="4"
       end_linecap_type="zerowidth"
       cusp_linecap_type="round" />
    <inkscape:path-effect
       effect="powerstroke"
       id="path-effect4250"
       is_visible="true"
       offset_points="0.28644629,0.95314078"
       sort_points="true"
       interpolator_type="Linear"
       interpolator_beta="0.2"
       start_linecap_type="zerowidth"
       linejoin_type="round"
       miter_limit="4"
       end_linecap_type="zerowidth"
       cusp_linecap_type="round" />
    <inkscape:path-effect
       effect="powerstroke"
       id="path-effect4246"
       is_visible="true"
       offset_points="0.59527621,0.74824802"
       sort_points="true"
       interpolator_type="Linear"
       interpolator_beta="0.2"
       start_linecap_type="zerowidth"
       linejoin_type="round"
       miter_limit="4"
       end_linecap_type="zerowidth"
       cusp_linecap_type="round" />
    <inkscape:path-effect
       effect="powerstroke"
       id="path-effect4242"
       is_visible="true"
       offset_points="0.27582204,1.166114"
       sort_points="true"
       interpolator_type="Linear"
       interpolator_beta="0.2"
       start_linecap_type="zerowidth"
       linejoin_type="round"
       miter_limit="4"
       end_linecap_type="zerowidth"
       cusp_linecap_type="round" />
    <inkscape:path-effect
       effect="powerstroke"
       id="path-effect4238"
       is_visible="true"
       offset_points="0.03978682,1.2014619"
       sort_points="true"
       interpolator_type="Linear"
       interpolator_beta="0.2"
       start_linecap_type="zerowidth"
       linejoin_type="round"
       miter_limit="4"
       end_linecap_type="zerowidth"
       cusp_linecap_type="round" />
    <inkscape:path-effect
       effect="powerstroke"
       id="path-effect4169"
       is_visible="true"
       offset_points="0,0.62705673"
       sort_points="true"
       interpolator_type="CubicBezierJohan"
       interpolator_beta="0.2"
       start_linecap_type="zerowidth"
       linejoin_type="round"
       miter_limit="4"
       end_linecap_type="zerowidth"
       cusp_linecap_type="round" />
    <inkscape:path-effect
       effect="powerstroke"
       id="path-effect4165"
       is_visible="true"
       offset_points="0,0.62705673"
       sort_points="true"
       interpolator_type="CubicBezierJohan"
       interpolator_beta="0.2"
       start_linecap_type="zerowidth"
       linejoin_type="round"
       miter_limit="4"
       end_linecap_type="zerowidth"
       cusp_linecap_type="round" />
    <inkscape:path-effect
       effect="powerstroke"
       id="path-effect4161"
       is_visible="true"
       offset_points="0,0.62705673"
       sort_points="true"
       interpolator_type="CubicBezierJohan"
       interpolator_beta="0.2"
       start_linecap_type="zerowidth"
       linejoin_type="round"
       miter_limit="4"
       end_linecap_type="zerowidth"
       cusp_linecap_type="round" />
    <inkscape:path-effect
       effect="powerstroke"
       id="path-effect4157"
       is_visible="true"
       offset_points="0,0.62705673"
       sort_points="true"
       interpolator_type="CubicBezierJohan"
       interpolator_beta="0.2"
       start_linecap_type="zerowidth"
       linejoin_type="round"
       miter_limit="4"
       end_linecap_type="zerowidth"
       cusp_linecap_type="round" />
    <inkscape:path-effect
       effect="powerstroke"
       id="path-effect4152"
       is_visible="true"
       offset_points="0,0.62705673"
       sort_points="true"
       interpolator_type="CubicBezierJohan"
       interpolator_beta="0.2"
       start_linecap_type="zerowidth"
       linejoin_type="round"
       miter_limit="4"
       end_linecap_type="zerowidth"
       cusp_linecap_type="round" />
    <inkscape:path-effect
       effect="powerstroke"
       id="path-effect4148"
       is_visible="true"
       offset_points="0.21883644,1.0911406"
       sort_points="true"
       interpolator_type="Linear"
       interpolator_beta="0.2"
       start_linecap_type="zerowidth"
       linejoin_type="round"
       miter_limit="4"
       end_linecap_type="zerowidth"
       cusp_linecap_type="round" />
    <inkscape:path-effect
       effect="powerstroke"
       id="path-effect4155"
       is_visible="true"
       offset_points="0.41985757,1.4154293"
       sort_points="true"
       interpolator_type="Linear"
       interpolator_beta="0.2"
       start_linecap_type="zerowidth"
       linejoin_type="round"
       miter_limit="4"
       end_linecap_type="zerowidth"
       cusp_linecap_type="round" />
  </defs>
  <sodipodi:namedview
     id="base"
     pagecolor="#ffffff"
     bordercolor="#666666"
     borderopacity="1.0"
     inkscape:pageopacity="0.0"
     inkscape:pageshadow="2"
     inkscape:zoom="2.8"
     inkscape:cx="96.695815"
     inkscape:cy="176.09501"
     inkscape:document-units="px"
     inkscape:current-layer="g4171"
     showgrid="false"
     units="px"
     inkscape:window-width="2560"
     inkscape:window-height="1388"
     inkscape:window-x="-8"
     inkscape:window-y="-8"
     inkscape:window-maximized="1"
     showguides="false" />
  <metadata
     id="metadata7">
    <rdf:RDF>
      <cc:Work
         rdf:about="">
        <dc:format>image/svg+xml</dc:format>
        <dc:type
           rdf:resource="http://purl.org/dc/dcmitype/StillImage" />
        <dc:title />
      </cc:Work>
    </rdf:RDF>
  </metadata>
  <g
     inkscape:groupmode="layer"
     id="layer2"
     inkscape:label="Layer 2"
     style="opacity:1">
    <g
       id="g4171">
      <path
         style="fill:#ec002e;fill-rule:evenodd;stroke:#000000;stroke-width:1px;stroke-linecap:butt;stroke-linejoin:miter;stroke-opacity:1;fill-opacity:1"
         d="m 85.105352,237.31218 137.175898,-28.45759 0.73955,-117.794022 1.2546,-0.648424 0.11806,-21.21114 -69.33505,-21.544965 -129.046982,12.121831 -0.603667,22.726026 1.391998,0.760354 0.221822,101.52 z"
         id="path4168"
         inkscape:connector-curvature="0"
         sodipodi:nodetypes="ccccccccccc" />
      <path
         style="fill:none;fill-rule:evenodd;stroke:#000000;stroke-width:1px;stroke-linecap:butt;stroke-linejoin:miter;stroke-opacity:1"
         d="m 25.75889,82.506301 c 1.515229,0 59.037903,33.150349 59.037903,33.150349 L 237.6257,91.850212"
         id="path4170"
         inkscape:connector-curvature="0"
         sodipodi:nodetypes="ccc" />
      <path
         style="fill:none;fill-rule:evenodd;stroke:#000000;stroke-width:1px;stroke-linecap:butt;stroke-linejoin:miter;stroke-opacity:1"
         d="M 26.011428,59.525331 83.590123,85.789297 237.89092,67.101475"
         id="path4172"
         inkscape:connector-curvature="0" />
      <path
         style="fill:none;fill-rule:evenodd;stroke:#000000;stroke-width:1px;stroke-linecap:butt;stroke-linejoin:miter;stroke-opacity:1"
         d="M 85.699715,115.39228 85.105352,237.05964"
         id="path4176"
         inkscape:connector-curvature="0"
         sodipodi:nodetypes="cc" />
      <path
         style="fill:#ffcc00;fill-rule:evenodd;stroke:#000000;stroke-width:1px;stroke-linecap:butt;stroke-linejoin:miter;stroke-opacity:1"
         d="M 62.629458,217.61421 57.452426,97.911127 57.073619,74.172543 200.0102,57.757564 178.54446,52.706801 41.668793,67.101475 41.795061,90.334984 46.467017,203.72461 Z"
         id="path4178"
         inkscape:connector-curvature="0"
         sodipodi:nodetypes="ccccccccc" />
      <path
         style="fill:#ffcc00;fill-rule:evenodd;stroke:#000000;stroke-width:1px;stroke-linecap:butt;stroke-linejoin:miter;stroke-opacity:1"
         d="m 89.015228,54.005077 60.014862,24.242385 0.018,26.897758 -1.83649,118.96447 31.3091,-5.94145 0.88759,-117.17875 -1.11475,-26.688547 -63.92114,-23.153009 z"
         id="path4180"
         inkscape:connector-curvature="0"
         sodipodi:nodetypes="ccccccccc" />
      <path
         style="fill:#aa8800;fill-rule:evenodd;stroke:#000000;stroke-width:1px;stroke-linecap:butt;stroke-linejoin:miter;stroke-opacity:1"
         d="m 66.201414,49.826145 c 26.478929,-1.59853 17.756111,5.489473 32.321428,0.535714 L 104.4157,73.397574 C 72.514641,73.2913 62.293875,64.415969 66.201414,49.826145 Z"
         id="path4196"
         inkscape:connector-curvature="0"
         sodipodi:nodetypes="cccc" />
      <path
         style="fill:#806600;fill-rule:evenodd;stroke:#000000;stroke-width:1px;stroke-linecap:butt;stroke-linejoin:miter;stroke-opacity:1"
         d="m 70.6657,41.969002 c 4.239387,-10.375869 26.585084,-1.977132 23.75,6.964286 -9.196288,-1.255077 -17.404572,-3.333492 -23.75,-6.964286 z"
         id="path4198"
         inkscape:connector-curvature="0"
         sodipodi:nodetypes="ccc" />
      <path
         style="fill:#ffcc00;fill-rule:evenodd;stroke:#000000;stroke-width:1px;stroke-linecap:butt;stroke-linejoin:miter;stroke-opacity:1"
         d="M 112.632,46.645886 C 107.61034,39.971007 101.88955,29.552373 92.230358,29.393753 73.144891,29.080337 44.271387,38.808737 41.416254,44.643528 c -2.083602,4.258078 4.459761,15.032768 27.526657,25.993481 l 23.991122,0.252538 C 76.964276,66.609051 68.324888,59.942113 69.195449,50.939035 70.126423,41.311183 83.962209,38.237084 88.417414,45.5502 c 4.798693,7.876941 6.38897,21.724432 28.002666,10.944674 z"
         id="path4190"
         inkscape:connector-curvature="0"
         sodipodi:nodetypes="cssccsscc" />
      <path
         style="fill:#aa8800;fill-rule:evenodd;stroke:#000000;stroke-width:1px;stroke-linecap:butt;stroke-linejoin:miter;stroke-opacity:1"
         d="m 189.23712,34.469002 c 8.57406,1.66535 1.89561,10.956956 2.5,16.607143 l -34.64285,-0.357142 z"
         id="path4194"
         inkscape:connector-curvature="0"
         sodipodi:nodetypes="cccc" />
      <path
         style="fill:#ffcc00;fill-rule:evenodd;stroke:#000000;stroke-width:1px;stroke-linecap:butt;stroke-linejoin:miter;stroke-opacity:1"
         d="m 131.06729,45.130658 c 7.66917,-2.278511 -8.5894,-19.908282 3.40029,-26.812371 23.33842,-3.734777 39.26584,9.807834 57.4614,17.215921 -7.42975,-2.085395 -19.94069,13.297461 -56.06347,19.950513 z"
         id="path4192"
         inkscape:connector-curvature="0"
         sodipodi:nodetypes="ccccc" />
      <path
         style="fill:#ffcc00;fill-rule:evenodd;stroke:#000000;stroke-width:1px;stroke-linecap:butt;stroke-linejoin:miter;stroke-opacity:1"
         d="m 134.30696,59.171268 c 0.36003,-3.244091 -5.76145,-4.642711 -1.79292,-6.436271 20.758,-9.381482 91.63539,-1.325926 113.7255,12.34835 -3.42764,15.338767 -7.45887,30.609 -6.31345,46.467023 C 202.39655,88.073455 194.33381,71.358965 134.30696,59.171268 Z"
         id="path4184"
         inkscape:connector-curvature="0"
         sodipodi:nodetypes="csccc" />
      <path
         style="fill:#ffcc00;fill-rule:evenodd;stroke:#000000;stroke-width:1px;stroke-linecap:butt;stroke-linejoin:miter;stroke-opacity:1"
         d="m 115.09303,53.262641 c -24.69849,-2.739145 -30.229228,8.985435 -53.726263,35.304576 11.614581,15.286913 20.316386,16.186903 48.169153,44.191103 2.49445,-24.29789 -4.79012,-65.946832 9.04932,-70.609162 -3.42086,-2.45103 1.43998,-1.779029 -3.49221,-8.886517 z"
         id="path4182"
         inkscape:connector-curvature="0"
         sodipodi:nodetypes="ccccc" />
      <path
         style="fill:#fecb01;fill-rule:evenodd;stroke:#000000;stroke-width:1px;stroke-linecap:butt;stroke-linejoin:miter;stroke-opacity:1;fill-opacity:1"
         d="m 112.37947,45.888272 5.3033,17.172593 c 6.81649,0.185312 13.63313,0.287385 20.45559,-2.777919 l -5.42958,-15.657365 c -8.01686,-3.300362 -14.30691,-1.42033 -20.32931,1.262691 z"
         id="path4188"
         inkscape:connector-curvature="0"
         sodipodi:nodetypes="ccccc" />
      <path
         style="fill:none;fill-rule:evenodd;stroke:#000000;stroke-width:1px;stroke-linecap:butt;stroke-linejoin:miter;stroke-opacity:1"
         d="m 84.726544,115.5888 -0.06313,-5.74524"
         id="path4200"
         inkscape:connector-curvature="0" />
      <path
         style="fill:none;fill-rule:evenodd;stroke:#000000;stroke-width:0.5;stroke-linecap:butt;stroke-linejoin:miter;stroke-miterlimit:4;stroke-dasharray:none;stroke-opacity:1"
         d="m 41.416255,91.092598 c 9.857147,5.47031 13.664236,7.483443 16.541247,8.965102"
         id="path4202"
         inkscape:connector-curvature="0"
         sodipodi:nodetypes="cc" />
      <path
         style="fill:none;fill-rule:evenodd;stroke:#000000;stroke-width:0.5;stroke-linecap:butt;stroke-linejoin:miter;stroke-miterlimit:4;stroke-dasharray:none;stroke-opacity:1"
         d="m 148.74496,105.61354 30.80966,-4.67195"
         id="path4204"
         inkscape:connector-curvature="0" />
      <path
         style="opacity:1;fill:none;fill-rule:evenodd;stroke:#000000;stroke-width:0.45772329;stroke-linecap:butt;stroke-linejoin:miter;stroke-miterlimit:4;stroke-dasharray:none;stroke-opacity:1"
         d="m 41.655368,66.889292 16.441829,7.558567"
         id="path4202-9"
         inkscape:connector-curvature="0" />
      <path
         style="opacity:1;fill:none;fill-rule:evenodd;stroke:#000000;stroke-width:0.45658612;stroke-linecap:butt;stroke-linejoin:miter;stroke-miterlimit:4;stroke-dasharray:none;stroke-opacity:1"
         d="m 147.56402,78.160665 31.18495,-3.848978"
         id="path4204-9"
         inkscape:connector-curvature="0" />
      <path
         style="fill:#f9f9f9;fill-rule:evenodd;stroke:none;stroke-width:1px;stroke-linecap:butt;stroke-linejoin:miter;stroke-opacity:1"
         d="m 240.15633,65.573556 c -0.70793,-0.695673 -1.43006,-1.389501 -2.16554,-2.081019 -21.15863,-7.218329 -46.87009,-11.944008 -68.79024,-11.54335 21.89925,0.400276 47.32843,5.918818 67.97379,13.803317 0.99664,-0.06571 1.99102,-0.125385 2.98199,-0.178948 z"
         id="path4236"
         inkscape:path-effect="#path-effect4238"
         inkscape:original-d="M 240.15633,65.573556 C 218.80457,57.504151 192.01926,51.949187 169.20055,51.949187"
         inkscape:connector-curvature="0"
         sodipodi:nodetypes="cc" />
      <path
         style="fill:#ffffff;fill-rule:evenodd;stroke:none;stroke-width:1px;stroke-linecap:butt;stroke-linejoin:miter;stroke-opacity:1"
         d="m 105.35714,42.250001 c -2.22096,-4.198054 -5.769209,-7.188002 -10.187491,-9.069319 -0.453408,-0.193063 -0.914989,-0.374003 -1.38408,-0.543036 -4.180299,-1.044916 -8.750812,-1.147002 -13.28028,-0.555222 -5.057784,0.660805 -10.117495,2.193475 -14.612455,4.308693 -4.500274,2.117718 -8.437599,4.820781 -11.249977,7.82317 2.994433,-2.804925 7.045622,-5.249065 11.572999,-7.085681 4.533101,-1.838938 9.542909,-3.068627 14.456002,-3.444562 4.411564,-0.337558 8.70362,0.01626 12.485323,1.19958 0.448028,0.08757 0.891634,0.186709 1.330204,0.297817 4.218222,1.068651 8.067435,3.270352 10.869755,7.06856 z"
         id="path4240"
         inkscape:path-effect="#path-effect4242"
         inkscape:original-d="M 105.35714,42.250001 C 95.31187,26.267715 66.257664,32.59948 54.642857,44.214287"
         inkscape:connector-curvature="0" />
      <path
         style="fill:#ffffff;fill-rule:evenodd;stroke:none;stroke-width:1px;stroke-linecap:butt;stroke-linejoin:miter;stroke-opacity:1"
         d="m 118.57143,46.535715 c 2.6392,-0.418527 4.73998,-0.651261 6.39643,-0.65333 1.67305,-0.0021 2.81553,0.233257 3.56874,0.675246 0.27999,0.164306 0.49801,0.352565 0.67145,0.560388 0.0748,0.04214 0.14804,0.08877 0.21981,0.140448 0.30274,0.217968 0.5801,0.526795 0.82609,0.958696 0.49881,0.875817 0.80862,2.147677 0.99605,3.854267 0.12042,-1.671748 0.12814,-3.068688 -0.13125,-4.180797 -0.13268,-0.568849 -0.34149,-1.094785 -0.66528,-1.56531 -0.0769,-0.111763 -0.16002,-0.219966 -0.24967,-0.324432 -0.35438,-0.262165 -0.74471,-0.457718 -1.16904,-0.597307 -1.08914,-0.358283 -2.44647,-0.359411 -4.10757,-0.14837 -1.67769,0.213148 -3.76872,0.658914 -6.35576,1.280501 z"
         id="path4244"
         inkscape:path-effect="#path-effect4246"
         inkscape:original-d="m 118.57143,46.535715 c 10.46029,-2.0827 12.55151,-1.242825 12.67857,5.535715"
         inkscape:connector-curvature="0"
         sodipodi:nodetypes="cc" />
      <path
         style="fill:#ffffff;fill-rule:evenodd;stroke:none;stroke-width:1px;stroke-linecap:butt;stroke-linejoin:miter;stroke-opacity:1"
         d="m 107.19362,56.479696 c -1.26693,-0.35425 -2.60987,-0.465469 -4.03162,-0.334831 -1.42086,0.130557 -2.89974,0.500797 -4.432409,1.089898 -0.446248,0.171521 -0.896437,0.361352 -1.350491,0.568837 -2.489581,1.500127 -5.045411,3.567382 -7.682553,6.057042 -6.163953,5.819234 -12.968951,14.138899 -20.586326,23.434865 7.986114,-9.042435 15.080153,-17.009104 21.47759,-22.439918 2.72903,-2.316687 5.298617,-4.143088 7.721386,-5.38801 0.384378,-0.261158 0.766484,-0.506641 1.146483,-0.735885 1.30083,-0.784755 2.58561,-1.384501 3.86273,-1.769799 1.27721,-0.385326 2.56656,-0.562203 3.87521,-0.482199 z"
         id="path4248"
         inkscape:path-effect="#path-effect4250"
         inkscape:original-d="M 107.19362,56.479696 C 96.893884,54.74501 84.717313,68.951563 69.110221,87.295507"
         inkscape:connector-curvature="0"
         sodipodi:nodetypes="cc" />
      <path
         style="fill:#ffffff;fill-rule:evenodd;stroke:none;stroke-width:1px;stroke-linecap:butt;stroke-linejoin:miter;stroke-opacity:1"
         d="m 139.10714,20.107144 c 3.61862,-0.823446 7.04049,-0.781399 10.35459,-0.163873 3.31277,0.617279 6.47352,1.801176 9.55669,3.213623 0.33847,0.155058 0.67583,0.312786 1.01215,0.472716 2.55695,1.558747 5.0705,3.277717 7.53422,4.878342 2.78062,1.806514 5.58284,3.520007 8.50664,4.813478 -3.06927,-0.952903 -6.06245,-2.346832 -9.05862,-3.850479 -2.67862,-1.344285 -5.2912,-2.740121 -7.97479,-3.993093 -0.31103,-0.187714 -0.62275,-0.373107 -0.93531,-0.55578 -2.83745,-1.658317 -5.75942,-3.101417 -8.87105,-4.011507 -3.11138,-0.910015 -6.45387,-1.299427 -10.12452,-0.803427 z"
         id="path4252"
         inkscape:path-effect="#path-effect4254"
         inkscape:original-d="m 139.10714,20.107144 c 14.57654,-2.637883 24.97784,8.719367 36.96429,13.214286"
         inkscape:connector-curvature="0" />
      <path
         style="fill:#ffffff;fill-rule:evenodd;stroke:none;stroke-width:1px;stroke-linecap:butt;stroke-linejoin:miter;stroke-opacity:1"
         d="m 148.57143,66.178572 c 1.68602,0.361974 4.10573,0.994062 6.78488,1.764764 2.67979,0.770885 5.61994,1.68068 8.34668,2.598138 2.72824,0.917962 5.2375,1.841852 7.05428,2.639267 0.91001,0.399417 1.63478,0.762251 2.11897,1.06936 0.24311,0.154198 0.4109,0.285484 0.50388,0.385706 0.0444,0.04784 0.0657,0.08346 0.0628,0.0908 -9.3e-4,0.0024 -0.0236,-0.01128 -0.0358,-0.07616 0.16959,-0.02851 0.34097,-0.04131 0.51276,-0.03662 0.17165,-0.0086 0.34218,-0.03475 0.51028,-0.07681 -0.0206,-0.144011 -0.0817,-0.261441 -0.14335,-0.349578 -0.0716,-0.102409 -0.16206,-0.191082 -0.25327,-0.267306 -0.18149,-0.151669 -0.42567,-0.302871 -0.70222,-0.451698 -0.55783,-0.300201 -1.34277,-0.640933 -2.27799,-1.004219 -1.87695,-0.729098 -4.43507,-1.578022 -7.1929,-2.415026 -2.76054,-0.83783 -5.73067,-1.666578 -8.43655,-2.355283 -2.70619,-0.688786 -5.14877,-1.237672 -6.85248,-1.515332 z"
         id="path4256"
         inkscape:path-effect="#path-effect4258"
         inkscape:original-d="m 148.57143,66.178572 c 6.7803,1.279519 25.331,6.886752 25.34848,8.435257"
         inkscape:connector-curvature="0"
         sodipodi:nodetypes="cc" />
      <path
         style="fill:#ffffff;fill-rule:evenodd;stroke:none;stroke-width:1px;stroke-linecap:butt;stroke-linejoin:miter;stroke-opacity:1"
         d="m 174.32625,75.176464 c 0,0 -0.49943,0.02391 -0.49943,0.02391 0.24587,5.136266 1.19614,20.310097 1.45635,25.384609 -0.26021,-5.074512 -0.21098,-20.282755 -0.45749,-25.432423 0,0 -0.49943,0.02391 -0.49943,0.02391 z"
         id="path4260"
         inkscape:path-effect="#path-effect4262"
         inkscape:original-d="m 174.32625,75.176464 c 0.41032,8.571612 0.52323,16.950996 0.95692,25.408516"
         inkscape:connector-curvature="0"
         sodipodi:nodetypes="cc" />
    </g>
  </g>
</svg>
