<svg xmlns="http://www.w3.org/2000/svg" viewBox="0 0 64 64">
    <ellipse cx="31.82" cy="31.549" fill="#ff8080" stroke="#000" stroke-linecap="round" stroke-linejoin="round" stroke-width="1.128" rx="27.008" ry="26.625"/>
    <g fill="#f55" fill-rule="evenodd" stroke="#f55">
        <path stroke-width=".9" d="M35.765 30.033c2.36 4.107 7.332 2.333 7.08 8.546-.236 5.793-8.775 11.808-9.876 4.44-.65-4.358.09-11.948-3.212-10.489-3 1.327-2.224 4.277-4.759 4.551-1.658.18-5.162-.903-3.807-4.107.88-2.078 8.097-2.362 6.365-3.718-1.405-1.379-3.473-1.106-8.03-.444-9.72 1.411-3.758-14.532 1.19-11.21 3.067 2.06 4.517 6.168 8.506 6.992 3.764.287-.947-5.542-.893-7.603.105-3.965 7.742-2.883 7.853-.943.117 2.047-4.418 8.104-1.607 8.269 4.62.259 2.65-3.171 6.009-3.552 2.608-.296 7.873 5.89 3.807 8.325-4.133 2.475-10.19-1.733-8.626.943z"/>
        <path stroke-width=".9" d="M27.875 40.022c-1.2-.15-9.145 7.314-9.163 11.102-.009 2.037 3.641 2.397 4.838 1.397 3.78-3.16 5.295-12.378 4.325-12.5zM38.032 18.904c.78.525 7.318-1.972 7.942-4.642.335-1.436-2.056-2.966-3.02-2.678-3.047.911-5.553 6.895-4.922 7.32zM43.792 32.097c-.149.705 5.814 5.033 8.925 4.888 1.673-.077 2.046-2.22 1.25-2.877-2.515-2.075-10.055-2.582-10.175-2.011zM16.232 41.031c2.495 2.17 6.063-.527 2.896-3.31-2.298-2.019-5.235 1.277-2.896 3.31z"/>
    </g>
    <path fill="#f9f9f9" fill-rule="evenodd" d="M33.31 8.447c9.544 1.259 18.527 4.22 22.834 21.406C42.96 11.013 41.262 14.34 33.31 8.447z"/>
    <path fill-opacity=".449" fill-rule="evenodd" d="M43.352 55.124C18.555 65.584-2.419 42.116 7.64 20.864c.189 18.2 14.228 36.08 35.712 34.26z"/>
    <g transform="rotate(-26.249 22.585 261.605)">
        <g fill="#7d7d7d" stroke="#000" stroke-width=".5">
            <path fill-rule="evenodd" d="M122.232 73.085v1.83c1.032 2.751 16.898 3.251 19.665 0l.023-1.763z"/>
            <ellipse cx="132.076" cy="72.996" stroke-linecap="round" stroke-linejoin="round" rx="9.88" ry="2.603"/>
        </g>
        <path fill="none" stroke="#000" stroke-width=".5" d="M123.926 72.643c1.618-1.701 14.508-1.368 16.407-.203"/>
        <path fill="#ff1ae6" fill-opacity=".953" fill-rule="evenodd" d="M123.636 44.947l.153 27.974c2.92 2.355 14.72 2.078 16.59-.389l-.122-22.455c-4.764-2.114-10.013-2.773-16.621-5.13z"/>
        <path fill="#d5f6ff" fill-opacity=".477" fill-rule="evenodd" stroke="#000" stroke-width=".366" d="M123.626 43.11l.163 29.81c2.92 2.356 14.72 2.08 16.59-.388l-.163-30.04z"/>
        <path fill="#fff" fill-rule="evenodd" d="M139.225 44.752c-.181.466-.327.928-.46 1.45.023.257.05.525.077.808.084.865.182 1.894.229 3.314.13-1.413.21-2.454.304-3.31.03-.283.062-.545.098-.793a15.373 15.373 0 0 1-.248-1.469z"/>
        <path fill="#f5f5f5" fill-rule="evenodd" stroke="#000" stroke-width=".257" d="M123.72 50.684l.03 14.843c4.308 1.774 12.65 1.637 16.534-.018l-.063-14.97c-5.335.639-11.21 1.087-16.502.145z"/>
        <g fill="#ff1d5c" fill-rule="evenodd">
            <path d="M130.83 59.265c-.102-.671-.292-1.282-.609-1.816a3.162 3.162 0 0 0-2.94-.469 4.159 4.159 0 0 0-1.774 1.193 4.389 4.389 0 0 0-.997 1.89 4.169 4.169 0 0 1 1.249-1.625c.525-.413 1.117-.673 1.692-.747.574-.074 1.105.037 1.554.329.15.097.292.215.427.356.44.104.926.384 1.397.889z"/>
            <path d="M131.574 57.865c-.669-.173-1.148-.466-1.449-.802a2.403 2.403 0 0 1-.517-.205c-.47-.255-.823-.668-1.032-1.208-.21-.54-.265-1.185-.153-1.843a4.169 4.169 0 0 1 .83-1.874 4.389 4.389 0 0 0-1.183 1.78 4.159 4.159 0 0 0-.2 2.128 3.162 3.162 0 0 0 1.818 2.358c.62.023 1.248-.102 1.886-.334z"/>
            <path d="M129.43 58.361l1.086 1.074.546-.265c-.06-.346-.149-.695.5-.946l-.024-.76-1.444-.408z"/>
        </g>
        <g fill="#ff1d5c" fill-rule="evenodd">
            <path d="M132.568 59.555c-.53.423-.965.894-1.27 1.435-.032.29-.028.568.009.834a3.162 3.162 0 0 0 1.056 1.947 4.159 4.159 0 0 0 1.92.94 4.389 4.389 0 0 0 2.136-.082 4.169 4.169 0 0 1-2.032-.27c-.62-.247-1.141-.63-1.493-1.09-.351-.46-.52-.977-.492-1.512.009-.177.04-.36.095-.548-.13-.432-.13-.993.07-1.654z"/>
            <path d="M130.983 59.61c.185.666.17 1.227.03 1.656.05.19.076.373.081.55.015.535-.167 1.047-.53 1.498-.363.451-.894.822-1.52 1.054a4.169 4.169 0 0 1-2.037.219c.678.222 1.42.263 2.132.134a4.159 4.159 0 0 0 1.943-.89 3.162 3.162 0 0 0 1.134-2.754c-.291-.55-.713-1.03-1.233-1.466z"/>
            <path d="M132.486 61.22l.385-1.478-.502-.34c-.269.224-.527.475-1.069.039l-.647.402.37 1.453z"/>
        </g>
        <g fill="#ff1d5c" fill-rule="evenodd">
            <path d="M131.967 57.838c.631.248 1.255.389 1.877.382a3.162 3.162 0 0 0 1.876-2.312c.146-.705.08-1.45-.147-2.133a4.389 4.389 0 0 0-1.138-1.809c.428.57.687 1.237.782 1.894.096.661.024 1.304-.198 1.839-.223.534-.585.939-1.062 1.182-.159.08-.332.145-.522.192-.31.328-.796.609-1.468.765z"/>
            <path d="M132.807 59.183c.484-.493.977-.76 1.418-.854.14-.138.285-.252.436-.345.456-.28.99-.379 1.563-.29.572.089 1.158.363 1.672.79.512.423.945.992 1.208 1.654a4.389 4.389 0 0 0-.95-1.914 4.159 4.159 0 0 0-1.742-1.237 3.162 3.162 0 0 0-2.952.395c-.33.527-.535 1.133-.653 1.8z"/>
            <path d="M133.449 57.077l-1.473.405-.044.605c.33.12.676.219.57.906l.67.36 1.075-1.047z"/>
        </g>
        <path fill="none" stroke="#ff1d5c" stroke-width=".961" d="M128.753 58.16c-.399 1.775.897 3.37 2.094 3.594M132.674 61.81c1.736-.541 2.47-2.46 2.066-3.61M133.866 56.588c-1.338-1.232-3.367-.908-4.16.017"/>
        <path fill="#7d7d7d" fill-rule="evenodd" stroke="#000" stroke-width=".465" d="M122.166 42.013v1.643c1.016 1.635 16.633 1.933 19.357 0l.022-1.604z"/>
        <ellipse cx="131.856" cy="41.959" fill="#7d7d7d" stroke="#000" stroke-linecap="round" stroke-linejoin="round" stroke-width=".465" rx="9.725" ry="1.547"/>
    </g>
</svg>
