<svg xmlns="http://www.w3.org/2000/svg" viewBox="0 0 64 64">
    <ellipse cx="31.82" cy="31.549" fill="#ff8080" stroke="#000" stroke-linecap="round" stroke-linejoin="round" stroke-width="1.128" rx="27.008" ry="26.625"/>
    <path fill="#f55" fill-rule="evenodd" d="M22.25 33.786v3.849l.394-4.41c.828-1.453 2.77-3.25 4.888-4.932l.095 1.95 1.548-3.212c2.159-1.605 4.25-2.995 5.268-3.67l-1.018 3.237 1.71-3.505c1.956-1.198 7.78-2.79 11.582-7.519.285 5.43-6.53 12.694-7.753 15.523l-4.494 1.172 4.386-.663a18.576 18.576 0 0 1-2.078 4.308l-1.575.484.72.727c-1.086 1.44-2.403 2.778-3.938 4.052l-4.901 1.415 4.453-.905c-3.652 2.919-7.06 4.792-11.269 4.537 0 0-.15-.153-.299-.255-.923-5.964.557-10.246 2.281-12.183z"/>
    <path fill="#ff2a2a" fill-rule="evenodd" d="M42.784 21.31c-3.302 3.107-9.632 6.55-12.863 10.214-4.597 5.194-5.701 10.388-13.445 18.855 7.863-7.957 9.454-13.4 13.825-18.665 3.029-3.652 9.775-7.333 12.483-10.404z"/>
    <path fill="#f9f9f9" fill-rule="evenodd" d="M33.31 8.447c9.544 1.259 18.527 4.22 22.834 21.406C42.96 11.013 41.262 14.34 33.31 8.447z"/>
    <path fill-opacity=".449" fill-rule="evenodd" d="M43.352 55.124C18.555 65.584-2.419 42.116 7.64 20.864c.189 18.2 14.228 36.08 35.712 34.26z"/>
    <g fill-rule="evenodd">
        <path fill="#dedbe3" stroke="#000" stroke-width=".5" d="M-43.058 22.52l-8.586 30.084c.75 1.3 1.351.76 1.989.663l8.586-30.4z" transform="matrix(-1.00368 0 0 .99998 -12.321 1.34)"/>
        <path fill="#f06" stroke="#000" stroke-width=".5" d="M-47.004 13.46c2.91-7.31 15.574-3.681 13.795 3.82l-.694 2.589c-5.108 8.475-15.361 1.003-13.732-3.914z" transform="matrix(-1.00368 0 0 .99998 -12.321 1.34)"/>
        <path fill="#f59" stroke="#000" stroke-width=".5" d="M-47.225 13.713c-.42.394-.663 1.46-.663 2.21 1.705 2.009 8.086 5.088 14.222 4.033.332-.465.812-1.509.618-2.278-4.453.058-9.323-.472-14.177-3.965z" transform="matrix(-1.00368 0 0 .99998 -12.321 1.34)"/>
        <path fill="#fff" d="M25.097 12.338c-1.111.662-1.811 1.806-2.205 2.933a7.716 7.716 0 0 0-.034.099c-.612.997-.984 2.098-1.12 2.871-.136-.78-.035-2 .377-3.212l.059-.1c.696-1.145 1.672-2.155 2.923-2.59zM28.36 18.841c-.904.24-2.199.522-3.502.723-1.024.158-2.06.266-2.92.261a5.421 5.421 0 0 1-.643-.195c.205-.024.424-.058.652-.1.837.048 1.861-.015 2.89-.13a42.03 42.03 0 0 0 3.523-.559z"/>
    </g>
</svg>
