<?xml version="1.0" encoding="UTF-8"?>
<svg version="1.1" viewBox="0 0 64 64" xmlns="http://www.w3.org/2000/svg" xmlns:cc="http://creativecommons.org/ns#" xmlns:dc="http://purl.org/dc/elements/1.1/" xmlns:rdf="http://www.w3.org/1999/02/22-rdf-syntax-ns#">
 <metadata>
  <rdf:RDF>
   <cc:Work rdf:about="">
    <dc:format>image/svg+xml</dc:format>
    <dc:type rdf:resource="http://purl.org/dc/dcmitype/StillImage"/>
    <dc:title/>
   </cc:Work>
  </rdf:RDF>
 </metadata>
 <g fill-rule="evenodd" stroke="#000">
  <path d="m4.3053 42.348 0.28286 2.2905 30.524 17.498c0.8205 0.47031 1.4413 0.51384 2.0009-0.47143l22.479-39.576c0.66474-1.1703 0.69089-2.6897-0.28286-2.2905z" fill="#f55" stroke-width=".55768"/>
  <path d="m7.2983 46.548 0.5648-1.1122c-2.8705-1.28-2.4822-1.9603-1.24-4.2187l-1.1261-0.58692-1.3344 2.6544c-0.40847 0.81258 0.00393 1.4857 0.65527 1.8959z" fill="#f95" stroke-width=".39051"/>
  <path d="m38.469 59.741-1.0959-0.59597c-1.3605 2.8332-2.0295 2.4259-4.252 1.1205l-0.61846 1.1091 2.6157 1.4088c0.80073 0.43124 1.4852 0.03799 1.9137-0.60152z" fill="#f95" stroke-width=".39051"/>
  <path d="m5.4291 44.063c-0.40279 0.26459-0.89943 1.0774-1.062 0.4783-0.23354-0.86075-0.67903-1.9095-0.11369-2.9034l23.041-40.135c0.21374-0.32496 0.3929-0.074193 0.58148 0.019947z" fill="#f55" stroke-width=".55768"/>
  <path d="m4.6333 41.77 0.27448 2.2559 29.985 17.189c0.80604 0.46196 1.4164 0.5039 1.9682-0.4676l22.166-39.023c0.65547-1.154 0.68362-2.6508-0.27448-2.2559z" fill="#f4eed7" stroke-width=".55251"/>
 </g>
 <path d="m5.5794 42.975c1.1088 0.62893 4.3901 2.5954 5.4989 3.2243 1.7609 0.99877 7.0887 3.9154 8.8496 4.9141-1.7609-0.99877-6.9983-4.0748-8.7592-5.0735-1.1088-0.62893-4.4805-2.436-5.5894-3.0649z" fill="#784421"/>
 <path d="m4.6164 41.81 31.035 17.682c1.7345 0.98823 1.5899 0.6659 2.4981-0.91545l21.037-36.63c1.2577-2.19 1.1793-2.0358-0.87818-3.2002l-30.432-17.223z" fill="#faa" fill-rule="evenodd" stroke="#000" stroke-width=".55768"/>
 <path d="m28.418 2.3109-22.885 39.638" fill="none" stroke="#000" stroke-width=".27884"/>
 <g fill="#ffb380" fill-rule="evenodd" stroke="#000" stroke-width=".39051">
  <path d="m57.311 17.603-0.61604 1.0847c2.8077 1.4125 2.3881 2.0739 1.0419 4.2719l1.0975 0.6388 1.4567-2.5893c0.44588-0.79267 0.06533-1.4843-0.56618-1.9244z"/>
  <path d="m39.644 57.02-1.0969-0.59409c-1.3556 2.8356-2.0254 2.4294-4.2501 1.1278l-0.61656 1.1102 2.6181 1.4042c0.80147 0.42985 1.4853 0.03544 1.9126-0.60481z"/>
  <path d="m7.3061 44.097 0.58899-1.0996c-2.8418-1.3425-2.4388-2.0141-1.1475-4.2448l-1.113-0.6114-1.3921 2.6246c-0.42613 0.80346-0.02854 1.4854 0.61368 1.9098z"/>
  <path d="m25.082 4.2959 1.0914 0.60404c1.3814-2.8231 2.0474-2.4109 4.2602-1.089l0.62658-1.1045-2.6052-1.428c-0.79752-0.43714-1.4849-0.048958-1.9181 0.58737z"/>
 </g>
 <path d="m21.041 52.596c1.1088 0.62893 4.3901 2.5954 5.499 3.2243 1.7609 0.99877 7.0887 3.9154 8.8496 4.9141-1.7609-0.99877-6.9983-4.0748-8.7592-5.0735-1.1088-0.62893-4.4805-2.436-5.5894-3.0649z" fill="#784421"/>
 <path d="m11.353 46.804c1.1088 0.62893 4.3901 2.5954 5.499 3.2243 1.7609 0.99877 7.0887 3.9154 8.8496 4.9141-1.7609-0.99877-6.9983-4.0748-8.7592-5.0735-1.1088-0.62893-4.4805-2.436-5.5894-3.0649z" fill="#784421"/>
 <g fill="none" stroke="#000">
  <path d="m11.242 42.115 22.722 12.936c0.70541-1.3538 2.0719-1.8256 3.4512-1.1158l17.656-30.628c-1.5867-0.8896-2.0077-2.2547-1.0386-3.7091l-22.087-12.488c-0.624 1.2415-1.7721 1.8233-3.568 0.67219l-17.859 30.932c1.4265 0.79415 1.4776 2.2436 0.72351 3.3998z" stroke-width=".27884"/>
  <g stroke-linecap="round" stroke-linejoin="round" stroke-width=".18576">
   <ellipse transform="rotate(30)" cx="28.718" cy="30.303" rx="1.0485" ry="1.0296" style="paint-order:stroke fill markers"/>
   <ellipse transform="rotate(30)" cx="59.135" cy="30.114" rx="1.0485" ry="1.0296" style="paint-order:stroke fill markers"/>
   <ellipse transform="rotate(30)" cx="58.644" cy="-9.4339" rx="1.0485" ry="1.0296" style="paint-order:stroke fill markers"/>
   <ellipse transform="rotate(30)" cx="29.304" cy="-9.3582" rx="1.0485" ry="1.0296" style="paint-order:stroke fill markers"/>
  </g>
 </g>
</svg>
