<svg xmlns="http://www.w3.org/2000/svg" xmlns:xlink="http://www.w3.org/1999/xlink" viewBox="0 0 64 64">
    <defs>
        <linearGradient id="linearGradient4436">
            <stop offset="0" stop-color="#c61a1a"/>
            <stop offset="1" stop-color="#d71c1c"/>
        </linearGradient>
        <linearGradient id="linearGradient4442" x1="131.696" x2="131.25" y1="33.04" y2="25.496" gradientTransform="matrix(.891 0 0 .891 -19.084 10.312)" gradientUnits="userSpaceOnUse" xlink:href="#linearGradient4436"/>
    </defs>
    <ellipse cx="31.82" cy="31.549" fill="#ff8080" stroke="#000" stroke-linecap="round" stroke-linejoin="round" stroke-width="1.128" rx="27.008" ry="26.625"/>
    <path fill="#f55" fill-rule="evenodd" stroke="#f55" stroke-width=".478" d="M31.29 43.172c-2.55-3.436-3.98-9.103-12.86-6.629-.273-2.834-1.27-4.896-5.663-6.939-.227-2.284-.572-2.94-3.492-4.392 5.779-.31 8.234.023 14.014 2.323.555 2.521 5.513 10.315 5.65 2.862-2.454-.784-1.107-2.977.128-4.655.773.977 1.516 1.722 1.366 3.16l1.495.043c-.14-1.11.36-2.093 1.43-3.224.876 1.144 2.563 3.403.15 4.761-.305 7.63 5.395.028 5.684-2.75 2.564-1.441 8.495-3.438 13.2-2.49-2.37 1.321-2.98 3.313-2.848 4.53-2.49.557-5.038 2.514-5.66 6.946-8.322-2.205-9.932 1.965-12.593 6.454z"/>
    <g transform="translate(-68.438 -5.05)">
        <path fill="#b7bec8" fill-rule="evenodd" stroke="#000" stroke-width=".55" d="M115.392 26.46c.629.818 4.67-1.078 5.393-.617 1.511.965-3.8 4.345-4.154 4.502 2.002-2.274.017-2.931-1.239-3.884z"/>
        <g fill-rule="evenodd">
            <path fill="#8dd35f" stroke="#000" stroke-width=".584" d="M128.319 46.822c4.389.079 8.495.286 12.615.487.797-2.548-.302-4.768-1.167-7.028-.234-1.139-1.06-1.75-1.748-2.483-5.885 1.24-14.293 5.25-9.7 9.024z" transform="matrix(.63307 -.60327 -.60832 -.65039 45.942 161.183)"/>
            <path d="M110.04 51.3c-1.678.892-3.708 1.823-5.7 2.303-1.998.482-3.943.504-5.442-.397 1.53.805 3.442.671 5.361.106 1.926-.566 3.879-1.572 5.483-2.538z"/>
        </g>
        <g fill-rule="evenodd">
            <path fill="#ffa400" stroke="#000" stroke-width=".5" d="M124.598 34.536c2.004 2.772 3.764 5.423 5.536 8.08 2.55-.582 3.926-2.208 5.446-3.705.862-.629.993-1.403 1.295-2.143-3.835-3.148-11.222-6.699-12.277-2.232z" transform="matrix(.65437 -.50037 -.60431 -.83381 46.378 142.15)"/>
            <path d="M112.083 42.185c-.643 3.247-1.982 7.52-5.006 8.623 2.894-1.261 4.039-5.58 4.502-8.83z"/>
        </g>
        <path fill="#a4e47b" fill-rule="evenodd" stroke="#000" stroke-width=".521" d="M95.248 52.03c3.91.07 7.569.255 11.24.434.71-2.27-.27-4.248-1.04-6.262-.208-1.014-.944-1.558-1.557-2.212-5.244 1.106-12.736 4.677-8.643 8.04z"/>
        <path fill-rule="evenodd" d="M105.097 45.662c-1.87.512-4.028 1.238-5.845 2.266-1.822 1.03-3.285 2.356-3.773 4.044.579-1.64 2.094-2.862 3.916-3.778 1.827-.92 3.98-1.538 5.847-1.946z"/>
        <path fill="#ff9324" fill-rule="evenodd" stroke="#000" stroke-width=".445" d="M97.984 42.8c-3.358-.159-6.482-.445-9.618-.725-.955 2.62-.411 4.935-.052 7.287.026 1.182.578 1.828 1.007 2.599 4.685-1.18 11.68-5.178 8.663-9.162z"/>
        <path fill-rule="evenodd" d="M88.517 49.655l.105.208c3.367-1.081 7.8-3.126 9.154-7-1.48 3.776-5.945 5.646-9.285 6.56l.026.232z"/>
        <g fill-rule="evenodd">
            <path fill="#8dd35f" stroke="#000" stroke-width=".584" d="M128.319 46.822c4.389.079 8.495.286 12.615.487.797-2.548-.302-4.768-1.167-7.028-.234-1.139-1.06-1.75-1.748-2.483-5.885 1.24-14.293 5.25-9.7 9.024z" transform="matrix(-.6836 -.51585 .5747 -.61359 162.735 148.345)"/>
            <path d="M90.26 52.106c1.766.73 3.89 1.48 5.946 1.824 2.063.345 4.04.279 5.504-.6-1.501.793-3.452.758-5.44.334-1.996-.425-4.047-1.246-5.742-2.046z"/>
        </g>
        <ellipse cx="50.226" cy="81.817" fill="#465772" stroke="#000" stroke-linecap="round" stroke-linejoin="round" stroke-width=".445" rx="3.378" ry="2.602" transform="rotate(-38.193)"/>
        <path fill="url(#linearGradient4442)" fill-rule="evenodd" stroke="#000" stroke-width=".446" d="M85.41 37.583c-.669-1.705.018-2.577 2.107-2.585.824-.57 1.593-1.366 2.825-.2.94-1.173 1.98-1.944 3.34-1.431 1.875-2.84 2.985-2.115 4.257-2.148.318-1.21.635-2.42 2.506-.836 1.9-.535 2.421.407 2.864 1.432 2.409.39.642 1.672.238 3.103-.604 2.9-1.65 5.062-2.545 7.478z"/>
        <g fill-rule="evenodd">
            <path fill="#ffa400" stroke="#000" stroke-width=".4455" d="M106.447 39.42c1.55-2.624 3.088-5.006 4.626-7.4-1.384-1.875-3.203-2.419-4.967-3.127-.82-.48-1.5-.31-2.212-.293-1.203 4.253-1.47 11.551 2.553 10.82z"/>
            <path d="M105.57 28.87c-.686 3.165-1.18 7.62.923 10.357-1.935-2.796-1.262-7.176-.426-10.235z"/>
        </g>
        <ellipse cx="115.987" cy="4.462" fill="#535d6c" stroke="#000" stroke-linecap="round" stroke-linejoin="round" stroke-width=".446" rx="3.378" ry="2.602" transform="rotate(14.278)"/>
        <path fill="#ffc55d" fill-rule="evenodd" stroke="#000" stroke-width=".445" d="M108.793 33.213c-2.567 1.644-5.013 3.077-7.465 4.521.39 2.298 1.769 3.603 3.025 5.03.516.798 1.198.953 1.842 1.259 2.991-3.255 6.518-9.65 2.598-10.81z"/>
        <path fill-rule="evenodd" d="M104.82 43.025c2.04-2.515 4.488-6.27 3.845-9.66.467 3.368-2.108 6.974-4.233 9.328z"/>
        <path fill="none" stroke="#000" stroke-width=".223" d="M83.718 31.672c6.48 3.182 22.427 4.007 32.176.169"/>
        <path fill="none" stroke="#93a7ac" stroke-width=".223" d="M113.532 48.66c-4.955 2.993-19.132 4.133-27.198-.084M88.274 49.504c1.831 1.618 2.291 3.522 2.335 5.513M91.476 50.388c1.522 1.872 1.87 3.72 1.913 5.71M94.57 50.979c1.24 1.9 1.7 3.775 1.744 5.766M98.086 51.316c.565 1.337.744 3.776.787 5.766"/>
        <g fill="none" stroke="#93a7ac" stroke-width=".25">
            <path stroke-width=".22275" d="M111.818 49.524c-1.83 1.618-2.29 3.522-2.334 5.513M108.617 50.408c-1.522 1.872-1.87 3.72-1.913 5.71M105.523 51c-1.24 1.899-1.7 3.774-1.744 5.765M102.007 51.337c-.565 1.337-.744 3.775-.787 5.766"/>
        </g>
        <path fill="none" stroke="#000" stroke-width=".223" d="M83.739 30.304c2.233-5.353 29.611-4.561 33.094-.477"/>
        <path fill-rule="evenodd" d="M97.882 31.14c-.098.022-.198.04-.297.055.027.235-.012.634-.02 1.01-.005.21 0 .417.031.596.032.181.09.33.185.418-.05-.112-.051-.26-.031-.423.02-.165.065-.354.119-.547.08-.286.244-.777.3-1.002a2.683 2.683 0 0 0-.287-.107z"/>
        <g fill-rule="evenodd">
            <path fill="#ffa400" stroke="#000" stroke-width=".5" d="M124.598 34.536c2.004 2.772 3.764 5.423 5.536 8.08 2.55-.582 3.926-2.208 5.446-3.705.862-.629.993-1.403 1.295-2.143-3.835-3.148-7.391-9.984-12.277-2.232z" transform="matrix(-.87152 -.35393 .17036 -.67905 198.009 111.453)"/>
            <path d="M86.132 37.289c.953 1.377 2.018 3.29 3.438 4.698.715.709 1.52 1.291 2.448 1.624.926.332 1.963.413 3.151.138-1.212.24-2.243.116-3.13-.237-.885-.352-1.636-.937-2.294-1.635-1.325-1.408-2.273-3.27-3.187-4.715z"/>
        </g>
        <ellipse cx="92.649" cy="37.762" fill="#535d6c" stroke="#000" stroke-linecap="round" stroke-linejoin="round" stroke-width=".446" rx="3.378" ry="2.602"/>
        <path fill="#ffc55d" fill-rule="evenodd" stroke="#000" stroke-width=".445" d="M91.416 40.725c1.785 2.47 3.353 4.833 4.932 7.2 2.272-.519 3.498-1.967 4.853-3.301.767-.56.884-1.25 1.153-1.91-3.417-2.804-9.999-5.968-10.938-1.989z"/>
        <path fill-rule="evenodd" d="M101.435 44.142c-2.625-1.895-6.511-4.13-9.86-3.297 3.336-.655 7.08 1.713 9.55 3.703zM98.963 39.227c-.113-.532-.057-.888.082-1.091.132-.194.338-.25.57-.219.055.008.112.02.172.038.492.04 1.157.417 1.654 1.075-.396-.708-1.02-1.233-1.589-1.402a1.347 1.347 0 0 0-.227-.01c-.329.015-.589.165-.712.446-.117.27-.108.655.05 1.163zM100.816 36.257c-.047-.464.125-.788.367-.983.21-.17.483-.25.748-.245.04-.007.081-.012.123-.015.306-.021.632.07.87.308.24.24.4.635.339 1.216.114-.566.018-1.007-.216-1.321a1.363 1.363 0 0 0-.988-.526 1.565 1.565 0 0 0-.156-.006 1.42 1.42 0 0 0-.85.457c-.243.283-.344.665-.237 1.115zM97.656 35.042c.08-.374.24-.594.411-.696a.52.52 0 0 1 .43-.05.6.6 0 0 1 .063-.004c.357-.01.848.293 1.065.89-.086-.608-.491-1.128-1.002-1.276a1.048 1.048 0 0 0-.099-.024.85.85 0 0 0-.605.299c-.168.2-.257.488-.263.861zM100.465 30.371c-.046-.06-.092-.12-.14-.18-.563.437-.996 1.117-1.005 1.968a2.166 2.166 0 0 1 1.243-1.582 11.8 11.8 0 0 1-.098-.206zM87.429 35.175c.267.109.429.235.53.405.108.181.147.411.16.697.07-.261.127-.523.085-.78-.045-.27-.198-.53-.514-.767zM90.327 34.738a.653.653 0 0 0-.272.028c.003.062.015.151.026.223a42.878 42.878 0 0 0 .141.81l.05.26c.037-.04.067-.14.092-.258.026-.12.048-.263.07-.404.022-.141.045-.282.073-.392a.55.55 0 0 1 .058-.156 1.25 1.25 0 0 1-.238-.111zM93.537 33.524c.644.445 1.129 1.015 1.319 1.804-.077-.816-.47-1.493-1.1-2.077zM95.72 36.987c-.047-.463.126-.788.367-.983.216-.174.497-.254.768-.244a1.112 1.112 0 0 1 .972.294c.241.238.401.633.34 1.215.115-.567.02-1.007-.214-1.322a1.365 1.365 0 0 0-.99-.529 1.59 1.59 0 0 0-.13-.006c-.344.05-.66.212-.875.46-.244.284-.345.665-.238 1.115z"/>
        <ellipse cx="64.97" cy="98.073" fill="#3c444e" stroke="#000" stroke-linecap="round" stroke-linejoin="round" stroke-width=".445" rx="3.378" ry="2.602" transform="rotate(-38.193)"/>
        <ellipse cx="114.715" cy="-28.042" fill="#535d6c" stroke="#000" stroke-linecap="round" stroke-linejoin="round" stroke-width=".446" rx="3.378" ry="2.602" transform="rotate(33.828)"/>
        <g fill-rule="evenodd">
            <path fill="#ffa400" stroke="#000" stroke-width=".5" d="M124.598 34.536c2.004 2.772 3.764 5.423 5.536 8.08 2.55-.582 3.926-2.208 5.446-3.705.862-.629.993-1.403 1.295-2.143-3.835-3.148-11.222-6.699-12.277-2.232z" transform="matrix(.23203 .7904 .9952 -.2646 39.024 -49.432)"/>
            <path d="M108.73 47.786c-2.8-1.766-6.308-4.55-6.25-7.768.137 3.154 3.758 5.772 6.623 7.372z"/>
        </g>
        <path fill="#a5b2c8" fill-opacity=".251" fill-rule="evenodd" stroke="#000" stroke-width=".446" d="M89.034 53.892c5.028 4.672 18.338 4 21.938-.17.201-1.792.981-3.456 2.532-4.95l2.475-16.875c.78-.343 1.247-.803 1.181-1.463-7.867 2.089-23.365 3.337-34.567-.365.246.542.405 1.25 1.322 1.772l2.475 16.875c1.606 1.645 2.386 3.381 2.644 5.176z"/>
        <path fill="#b7bec8" stroke="#000" stroke-linecap="round" stroke-linejoin="round" stroke-width=".446" d="M99.988 24.418a18.394 4.313 0 0 0-18.395 4.314 18.394 4.313 0 0 0 18.395 4.314 18.394 4.313 0 0 0 18.394-4.314 18.394 4.313 0 0 0-18.394-4.314zm-.04.695a16.606 3.5 0 0 1 16.607 3.501 16.606 3.5 0 0 1-16.607 3.5 16.606 3.5 0 0 1-16.607-3.5 16.606 3.5 0 0 1 16.607-3.501z"/>
        <ellipse cx="100.047" cy="28.593" fill="#b7bec8" fill-opacity=".502" stroke="#000" stroke-linecap="round" stroke-linejoin="round" stroke-width=".443" rx="16.747" ry="3.542"/>
        <path fill="#fff" fill-rule="evenodd" d="M102.71 25.951c.744.057 2.054.205 3.535.431a59.42 59.42 0 0 1 2.723.477c.65.087 1.293.186 1.903.297 1.483.268 2.754.601 3.456.984.35.19.546.386.579.587.035.211-.102.47-.516.76.42-.244.637-.493.64-.768.003-.282-.22-.55-.573-.79-.71-.484-2.004-.906-3.484-1.259a40.055 40.055 0 0 0-1.91-.401c-.94-.113-1.891-.2-2.777-.261-1.506-.102-2.827-.125-3.576-.057zM114.39 33.275c-.217.463-.445.972-.687 1.533-.128 2.583-.474 6.21-.639 9.326.515-3.125 1.197-6.594 1.677-9.204a19.453 19.453 0 0 0-.35-1.655z"/>
    </g>
    <path fill="#f9f9f9" fill-rule="evenodd" d="M33.31 8.447c9.544 1.259 18.527 4.22 22.834 21.406C42.96 11.013 41.262 14.34 33.31 8.447z"/>
    <path fill-opacity=".449" fill-rule="evenodd" d="M43.352 55.124C18.555 65.584-2.419 42.116 7.64 20.864c.189 18.2 14.228 36.08 35.712 34.26z"/>
</svg>
