<svg xmlns="http://www.w3.org/2000/svg" viewBox="0 0 64 64">
    <ellipse cx="31.82" cy="31.549" fill="#ff8080" stroke="#000" stroke-linecap="round" stroke-linejoin="round" stroke-width="1.128" rx="27.008" ry="26.625"/>
    <path fill="#f55" fill-rule="evenodd" d="M30.699 11.832c-9.519.196-16.401 7.447-17.2 29.746-.029.8-1.27.932-2.517 2.047.147 1.499.606 3.724.974 4.889 3.903-.792 5.624-1.516 8.137-2.148-.453-6.28-.63-28.855 10.273-29.113C43.9 16.932 43.107 36.407 43.363 46.39c3.329.747 4.488 1.263 7.094 2.026.57-1.528 1.787-3.292 2.042-4.71-1.38-1.414-3.811-1.667-3.84-2.513-.782-22.529-6.917-29.588-17.96-29.361zm10.35 6.472a.774 1.023 70.442 0 1 .792.504.774 1.023 70.442 0 1-.768 1.051.774 1.023 70.442 0 1-1.185-.442.774 1.023 70.442 0 1 .767-1.052.774 1.023 70.442 0 1 .297-.057.774 1.023 70.442 0 1 .097-.004zm-19.648.394a1.022.775 17.971 0 1 .37.049 1.022.775 17.971 0 1 .791 1.031 1.022.775 17.971 0 1-1.174.475 1.022.775 17.971 0 1-.791-1.031 1.022.775 17.971 0 1 .804-.524zm22.113 4.125a.774 1.023 70.442 0 1 .787.504.774 1.023 70.442 0 1-.767 1.052.774 1.023 70.442 0 1-1.186-.443.774 1.023 70.442 0 1 .768-1.052.774 1.023 70.442 0 1 .3-.057.774 1.023 70.442 0 1 .098-.004zm-24.42.07a1.022.775 17.971 0 1 .004 0 1.022.775 17.971 0 1 .37.052 1.022.775 17.971 0 1 .792 1.032 1.022.775 17.971 0 1-1.178.47 1.022.775 17.971 0 1-.792-1.03 1.022.775 17.971 0 1 .804-.525zM17.657 28a1.022.775 17.971 0 1 .37.053 1.022.775 17.971 0 1 .791 1.032 1.022.775 17.971 0 1-1.173.47 1.022.775 17.971 0 1-.792-1.03 1.022.775 17.971 0 1 .804-.525zm27.444.646a.774 1.023 70.442 0 1 .788.5.774 1.023 70.442 0 1-.767 1.051.774 1.023 70.442 0 1-1.186-.443.774 1.023 70.442 0 1 .767-1.051.774 1.023 70.442 0 1 .398-.057zm-28.39 5.616a1.022.775 17.971 0 1 .37.048 1.022.775 17.971 0 1 .791 1.032 1.022.775 17.971 0 1-1.173.47 1.022.775 17.971 0 1-.792-1.03 1.022.775 17.971 0 1 .804-.52zm28.804.146a.774 1.023 70.442 0 1 .886.5.774 1.023 70.442 0 1-.768 1.05.774 1.023 70.442 0 1-1.185-.442.774 1.023 70.442 0 1 .767-1.051.774 1.023 70.442 0 1 .3-.057z"/>
    <path fill="#f9f9f9" fill-rule="evenodd" d="M33.31 8.447c9.544 1.259 18.527 4.22 22.834 21.406C42.96 11.013 41.262 14.34 33.31 8.447z"/>
    <path fill-opacity=".449" fill-rule="evenodd" d="M43.352 55.124C18.555 65.584-2.419 42.116 7.64 20.864c.189 18.2 14.228 36.08 35.712 34.26z"/>
    <path fill="#fac099" fill-rule="evenodd" stroke="#000" stroke-width=".5" d="M19.597 27.068c-.987 1.592-.725 15.415-.186 16.377.636 1.136 16.84 2.445 17.83 1.129.87-1.153 1.273-15.708.374-16.696-.787-.866-17.29-1.984-18.018-.81z"/>
    <path fill="#fddac3" fill-rule="evenodd" stroke="#000" stroke-width=".5" d="M19.557 27.352c-.197-1.955 6.245-5.337 8.167-6.187 1.174-.52 15.23-.526 15.106.746l-5.512 6.241z"/>
    <path fill="#fcb88a" fill-rule="evenodd" stroke="#000" stroke-width=".5" d="M42.758 21.786c1.02-.032.426 14.72.148 16.063-.3 1.455-3.152 6.218-5.592 6.85l.004-16.588c1.813-2.108 2.666-2.81 5.44-6.325z"/>
</svg>
