<svg version="1.1" viewBox="0 0 64 64" xmlns="http://www.w3.org/2000/svg" xmlns:xlink="http://www.w3.org/1999/xlink">
 <defs>
  <linearGradient id="linearGradient858" x1="101.97" x2="103.31" y1="45.064" y2="24.258" gradientTransform="matrix(.729 0 0 .729 -43.499 6.9834)" gradientUnits="userSpaceOnUse">
   <stop stop-color="#a56b36" offset="0"/>
   <stop stop-color="#c7905e" offset="1"/>
  </linearGradient>
 </defs>
 <ellipse cx="31.82" cy="31.549" rx="27.008" ry="26.625" fill="#ff8080" stroke="#000" stroke-linecap="round" stroke-linejoin="round" stroke-width="1.128"/>
 <g fill-rule="evenodd">
  <path d="M32.366 53.02c-2.285 1.623-9.69-.879-12.768-4.008-2.14-2.176-2.276-6.089-2.103-8.68.19-2.843 1.14-6.19 1.596-8.824.071-1.211-2.341-16.112 1.488-15.85 2.031.14 1.288 12.728 2.796 14.16.236.225.884.06 1.209.122.638.122 1.075-3.161 1.917-6.902 1.263-5.613 3.088-12.371 5.066-11.114 1.375.875.258 5.51-.674 9.663-.824 3.668-1.467 6.95-.65 7.076 1.852.284 4.067-9.805 6.363-14.787.912-1.977 1.7-2.886 2.69-2.424 2.086.974.461 6.688-1.32 11.718-1.175 3.318-2.811 6.674-2.1 6.984 1.079.47 3.547-4.246 6.13-8.535 1.489-2.474 2.215-6.108 4.134-5.32 2.314.95-.626 7.884-5.794 16.024-.735 1.158-1.42 3.194-1.25 4.562.184 1.464-.365 4.237.91 3.606 2.125-1.053 4.535-3.635 6.634-5 3.164-2.06 6.055-2.472 5.572-.044-.18.908-4.883 4.56-10.195 10.258-2.539 2.723-6.23 4.884-9.651 7.315z" fill="#f55"/>
  <path d="M33.31 8.447c9.544 1.259 18.527 4.22 22.834 21.406C42.96 11.013 41.262 14.34 33.31 8.447z" fill="#f9f9f9"/>
  <path d="M43.352 55.124C18.555 65.584-2.419 42.116 7.64 20.864c.189 18.2 14.228 36.08 35.712 34.26z" fill-opacity=".449"/>
 </g>
 <path d="m12.138 34.418c3.1861 14.888 37.483 12.197 38.303 0.13979 0.11231-1.6511-1.2161-7.174-4.2636-9.7155-1.0318-0.69188-2.0646-1.3769-3.0055-2.7958-2.699-1.854-6.9751-2.9195-12.092-3.5647-1.8656 0.04395-3.6328 0.23565-5.3121 0.55917-1.4188 0.41578-3.0312 1.1219-4.8228 2.0969-7.4836 5.418-9.2797 11.071-8.8069 13.28z" fill="url(#linearGradient858)" stroke="#000" stroke-linecap="round" stroke-linejoin="round" stroke-width=".3645"/>
 <path d="m32.163 18.622-2.8306 0.38443h-2.691c-0.37418 0.18709 0.93973 0.30897 0.93973 0.30897-0.45032-0.16887-3.4408 1.1809-3.7361 1.7186l-2.9003 0.10394 1.6773 0.80446c-2.4395 2.3942-2.8262 3.448-3.5649 6.2897 1.4278-2.6961 2.8742-3.5912 5.1026-5.4867 3.4583 0.55697 5.5252 2.1089 7.7243 3.5653-2.8513 2.367-3.1607 4.1997-4.16 6.9194 1.6847-2.6169 2.3239-4.7433 6.0822-6.1506 1.5856 0.4308 5.5641 2.5002 7.1988 5.416-1.2936-2.8818-3.4523-5.2955-5.1371-5.9756 1.4131-0.80073 2.8304-1.7194 5.5914-1.9919 2.768 2.2931 4.0322 4.2637 5.5572 6.2905-0.95661-2.0736-1.1217-4.1471-4.159-6.2207l3.3196 0.24479c-1.4686-0.72772-2.2705-1.7472-3.0055-2.7958l-3.1105 0.52351c-2.507-1.5991-5.6267-3.2631-8.7722-3.4941zm-1.9578 1.1177c3.5733 0.36435 5.7188 1.8271 8.1429 3.0755-1.776 0.53054-3.3843 1.229-4.7869 2.1329-2.4342-1.5752-4.8446-3.2719-7.5491-3.4955 0.87831-0.7935 2.021-1.4739 4.1932-1.7129z" fill="#a16642" stroke="#000" stroke-linecap="round" stroke-linejoin="round" stroke-width=".18225"/>
 <g fill="#4c3527">
  <path d="m19.706 26.989c0.85918-1.2133 3.7594-4.0911 5.5486-5.293 0.30813-0.20698 0.57182-0.37416 0.77849-0.50549 0.62301-0.39591 1.5426-1.0043 2.7636-1.5434 1.2091-0.53378 2.247-0.78228 2.9204-0.86057-0.7036 0.0818-1.6982 0.20032-3.0084 0.63115-1.2589 0.41396-2.3266 0.96871-2.9392 1.358-0.21142 0.13435-0.47819 0.31611-0.78233 0.54235-1.7709 1.3174-4.422 4.4576-5.2812 5.6709z"/>
  <path d="m21.715 21.341c1.6595 0.36306 6.3536 1.5842 7.745 2.2167 1.4512 0.65976 3.4469 1.7731 5.5985 3.2821 2.0468 1.4354 3.5884 2.7679 4.3996 3.4222-0.78605-0.63401-2.4909-1.8685-4.5936-3.1228-2.3478-1.4006-4.1626-2.2331-5.6999-2.932-0.83948-0.38166-1.8833-0.92777-3.533-1.5915-1.5619-0.62842-2.9979-1.0737-3.9166-1.2747z"/>
  <path d="m27.581 19.315c0.81284-0.05265 2.0505-8e-3 3.5452 0.29874 1.4813 0.30398 2.6588 0.74372 3.3991 1.0122 0.84643 0.30699 2.0106 0.76879 3.3834 1.4945 1.4885 0.78682 2.8781 1.7038 4.0626 2.6608 1.4598 1.1795 2.2468 2.1235 2.6057 2.6512-0.36236-0.53268-1.0921-1.5041-2.517-2.7564-1.15-1.0107-2.5172-1.9926-3.9966-2.8371-1.3576-0.77496-2.5465-1.2838-3.4001-1.5934-0.7302-0.26484-2.0127-0.63367-3.5035-0.83127-1.5631-0.20718-2.7355-0.15379-3.5788-0.09917z"/>
  <path d="m29.846 29.669c0.52127-0.68499 1.3158-1.6817 2.6963-2.8138 1.3357-1.0954 2.6661-1.8493 3.4962-2.2276 0.13028-0.05936 0.28188-0.12494 0.45147-0.19382 1.0507-0.42674 2.5069-0.86764 4.0603-1.0222 1.7153-0.17063 2.8507 0.06973 3.5792 0.27713-0.7163-0.20392-1.9023-0.32804-3.5442-0.02835-1.5164 0.27677-2.8713 0.80794-3.8883 1.2602-0.16242 0.07223-0.3088 0.13898-0.43528 0.19661-0.838 0.38184-2.1273 0.96608-3.5574 1.9528-1.418 0.97831-2.3559 1.9389-2.8582 2.599z"/>
 </g>
 <g fill="#fff" fill-opacity=".71028">
  <ellipse cx="25.204" cy="25.451" rx=".52857" ry=".28945"/>
  <ellipse cx="26.896" cy="27.92" rx=".52857" ry=".28945"/>
  <ellipse cx="24.514" cy="23.871" rx=".52857" ry=".28945"/>
  <ellipse cx="27.69" cy="25.684" rx=".52857" ry=".28945"/>
  <ellipse cx="31.232" cy="21.77" rx=".52857" ry=".28945"/>
  <ellipse cx="33.476" cy="23.445" rx=".52857" ry=".28945"/>
  <ellipse cx="29.575" cy="20.605" rx=".52857" ry=".28945"/>
  <ellipse cx="33.96" cy="21.865" rx=".52857" ry=".28945"/>
  <ellipse transform="rotate(178.43)" cx="-40.859" cy="-27.391" rx=".52857" ry=".28945"/>
  <ellipse transform="rotate(178.43)" cx="-38.374" cy="-26.919" rx=".52857" ry=".28945"/>
  <ellipse transform="rotate(178.43)" cx="-41.178" cy="-29.487" rx=".52857" ry=".28945"/>
  <ellipse transform="rotate(178.43)" cx="-38.792" cy="-28.385" rx=".52857" ry=".28945"/>
  <ellipse transform="rotate(178.43)" cx="-33.251" cy="-29.36" rx=".52857" ry=".28945"/>
  <ellipse transform="rotate(178.43)" cx="-22.06" cy="-26.843" rx=".52857" ry=".28945"/>
  <ellipse transform="rotate(178.43)" cx="-19.943" cy="-23.434" rx=".52857" ry=".28945"/>
  <ellipse transform="rotate(178.43)" cx="-38.829" cy="-22.433" rx=".52857" ry=".28945"/>
  <ellipse transform="rotate(178.43)" cx="-36.787" cy="-21.34" rx=".52857" ry=".28945"/>
  <ellipse transform="rotate(178.43)" cx="-35.627" cy="-23.312" rx=".52857" ry=".28945"/>
  <ellipse transform="rotate(178.43)" cx="-44.513" cy="-26.768" rx=".52857" ry=".28945"/>
 </g>
</svg>
