<svg xmlns="http://www.w3.org/2000/svg" viewBox="0 0 64 64">
    <ellipse cx="31.82" cy="31.549" fill="#ff8080" stroke="#000" stroke-linecap="round" stroke-linejoin="round" stroke-width="1.128" rx="27.008" ry="26.625"/>
    <path fill="#f55" fill-rule="evenodd" d="M21.049 53.072c6.221-.101 12.21-1.978 17.192-11.491l-1.59.84c.93-1.662 1.513-3.393 1.856-5.172l-.973.575c.21-1.76.446-3.47.486-5.569l-.928 1.105-.663-4.596-.707 1.149c.147 1.827-2.196-7.452 2.166-2.387l.177-.928c.952 1.491 1.74 3.258 2.519 5.038l.331-.596 1.591 3.359s.707-3.05 1.216-5.193c.287.707.596 1.37.596 1.37.467-2.598 1.42-4.79 1.26-7.912l.73.686c-.236-2.093-.34-4.236-1.481-5.99l1.149.354c-1.915-4.676-5.532-5.518-8.132-5.745l1.59-1.193c-1.533-.428-3.049-.777-5.877.53.34-.676.883-.943 1.281-1.503-3.199.16-4.747 2.05-6.806 3.403l.221-1.745c-2.515 1.316-3.162 2.718-4.508 4.088l-.088-1.768c-1.7 1.344-1.87 3.04-2.078 4.729l-.884-1.282c-.408 2.577.114 4.948.752 7.293l-1.415-.53c.143 1.541.826 2.813 1.547 4.065l-.663-.265c9.018 13.377 5.225 20.55.133 25.28z"/>
    <g fill-rule="evenodd" stroke="#000">
        <g stroke-width=".5">
            <path fill="#5c3919" stroke-width=".5445" d="M41.743 36.502c4.645.4 4.663-4.273 3.285-5.776-2.539-.925-2.73-1.349-5.2 1.123.284 2.373 1.085 3.664 1.915 4.653z"/>
            <path fill="#eac9b7" stroke-width=".5445" d="M41.646 36.327c.95.163 1.472-.516.317-2.777-.47-.92-1.018-1.194-2.11-1.466.075.658.197 2.886 1.793 4.243z"/>
        </g>
        <path fill="#b77232" stroke-width=".5445" d="M44.548 26.103c4.15-2.124 1.688-6.095-.277-6.64-2.644.563-3.031.305-3.814 3.71 1.498 1.862 2.863 2.532 4.09 2.93z"/>
        <path fill="#e4baa3" stroke-width=".5445" d="M44.372 26.006c.892-.366.975-1.218-1.203-2.523-.887-.531-1.497-.473-2.566-.124.412.518 1.697 2.342 3.77 2.647z"/>
        <g stroke-width=".5">
            <path fill="#8a5626" stroke-width=".5445" d="M35.26 39.079c4.149-2.125 1.687-6.095-.278-6.64-2.643.562-3.03.305-3.813 3.71 1.498 1.861 2.862 2.531 4.09 2.93z"/>
            <path fill="#eac9b7" stroke-width=".5445" d="M35.084 38.981c.892-.366.974-1.217-1.204-2.522-.886-.532-1.496-.473-2.566-.124.413.518 1.697 2.342 3.77 2.646z"/>
        </g>
        <path fill="#8a5626" stroke-width=".5445" d="M28.509 35.29c4.15-2.124 1.992-5.252.027-5.796-2.643.562-3.03.305-3.813 3.709 1.498 1.862 2.066 2.439 3.786 2.087z"/>
        <path fill="#b77232" stroke-width=".5445" d="M25.476 37.493c.364 4.647 4.846 3.918 6.105 2.314.498-2.656.905-2.899-1.936-4.931-2.295.666-3.329 1.637-4.169 2.617z"/>
        <path fill="#eac9b7" stroke-width=".5445" d="M25.495 37.435c.216.972 2.5 2.727 3.633 1.094 1.243-1.791.706-2.568.4-3.622-.638.182-2.954.733-4.033 2.528z"/>
        <path fill="#452b13" stroke-width=".5445" d="M19.508 33c1.285 4.48 5.656 2.83 6.568 1.006-.043-2.702.285-3.033-2.905-4.456-2.116 1.112-3.036 2.322-3.663 3.45z"/>
        <path fill="#eac9b7" stroke-width=".5445" d="M19.637 32.847c.187.945 1.007 1.19 2.707-.696.692-.768.752-1.377.616-2.494-.588.305-2.625 1.214-3.323 3.19z"/>
        <path fill="#8a5626" stroke-width=".5445" d="M25.229 29.565c1.286 4.48 4.77 2.966 5.683 1.143-.043-2.702.284-3.033-2.906-4.456-2.116 1.112-2.79 1.558-2.777 3.313z"/>
        <g stroke-width=".5">
            <path fill="#8a5626" stroke-width=".5445" d="M18.203 30.059c-4.631-.538-4.778 4-3.446 5.545 2.51 1 2.67 1.446 5.211-.95-.212-2.38-.965-3.582-1.765-4.595z"/>
            <path fill="#eac9b7" stroke-width=".5445" d="M18.255 30.088c-.995.025-3.157 1.928-1.772 3.355C18 35.008 18.867 34.63 19.96 34.53c-.056-.66-.15-3.039-1.705-4.443z"/>
        </g>
        <g stroke-width=".5">
            <path fill="#8a5626" stroke-width=".5445" d="M25.376 41.75c4.15-2.125 1.688-6.095-.277-6.64-2.643.563-3.03.305-3.813 3.71 1.498 1.862 2.862 2.531 4.09 2.93z"/>
            <path fill="#eac9b7" stroke-width=".5445" d="M25.201 41.653c.892-.366.974-1.218-1.204-2.523-.886-.532-1.496-.473-2.566-.124.413.518 1.697 2.342 3.77 2.647z"/>
        </g>
        <path fill="#b77232" stroke-width=".5445" d="M19.919 38.997c4.15-2.124 1.992-5.252.027-5.796-2.643.562-3.03.305-3.813 3.709 1.498 1.862 2.066 2.439 3.786 2.087z"/>
        <path fill="#5b3919" stroke-width=".5445" d="M16.886 41.2c.364 4.647 4.846 3.918 6.105 2.314.498-2.656.905-2.899-1.936-4.931-2.295.666-3.329 1.637-4.169 2.617z"/>
        <path fill="#eac9b7" stroke-width=".5445" d="M16.905 41.142c.216.972 2.5 2.727 3.633 1.094 1.243-1.791.706-2.568.4-3.622-.638.182-2.954.733-4.033 2.528z"/>
        <path fill="#563618" stroke-width=".5445" d="M30.206 32.228c2.292 4.06 6.159 1.438 6.623-.548-.67-2.618-.428-3.015-3.862-3.659-1.8 1.573-2.413 2.964-2.761 4.207z"/>
        <path fill="#eac9b7" stroke-width=".5445" d="M30.296 32.049c.402.876 1.256.923 2.472-1.306.494-.907.411-1.514.02-2.569-.502.433-2.272 1.791-2.492 3.875z"/>
        <path fill="#8a5626" stroke-width=".5445" d="M34.437 26.516c2.291 4.06 5.329 1.777 5.793-.208-.67-2.618-.428-3.016-3.861-3.66-1.8 1.573-2.353 2.164-1.932 3.868z"/>
        <g stroke-width=".5">
            <path fill="#8a5626" stroke-width=".5445" d="M33.64 24.1c-4.628.553-3.717 5.002-2.063 6.194 2.674.39 2.933.787 4.848-2.134-.759-2.267-1.771-3.26-2.785-4.06z"/>
            <path fill="#eac9b7" stroke-width=".5445" d="M33.699 24.117c-.963.255-2.623 2.609-.945 3.674 1.84 1.17 2.594.601 3.635.252-.208-.63-.852-2.921-2.69-3.926z"/>
        </g>
        <g stroke-width=".5">
            <path fill="#8a5626" stroke-width=".5445" d="M35.308 31.806c-1.203 4.504 3.394 5.337 5.114 4.243 1.354-2.34 1.805-2.454-.198-5.316-2.386-.136-3.798.428-4.916 1.073z"/>
            <path fill="#eac9b7" stroke-width=".5445" d="M35.498 31.741c-.326.907.25 1.54 2.679.797.988-.302 1.353-.794 1.811-1.822-.66-.041-2.876-.31-4.49 1.025z"/>
        </g>
        <path fill="#8a5626" stroke-width=".5445" d="M42.496 28.38c-1.204 4.505 2.563 5 4.284 3.905 1.353-2.339 1.804-2.454-.199-5.316-2.386-.135-3.194-.1-4.085 1.412z"/>
        <path fill="#8a5626" stroke-width=".5445" d="M42.971 24.867c-3.693-2.844-6.155.972-5.808 2.981 1.638 2.15 1.545 2.615 4.957 1.867 1.044-2.15 1.016-3.567.851-4.848z"/>
        <path fill="#eac9b7" stroke-width=".5445" d="M43.001 24.92c-.866-.491-3.699.028-3.246 1.964.497 2.123 1.434 2.244 2.421 2.723.292-.595 1.436-2.683.825-4.687z"/>
        <path fill="#d7eef4" fill-opacity=".125" stroke-linejoin="bevel" stroke-width=".45" d="M10.856 30.071c4.162 1.548 35.938-11.83 34.911-13.009L52.071 33.9c-11.636 4.41-21.982 6.863-34.676 13.164z"/>
        <path fill="#dbe2e3" stroke-width=".45" d="M47.502 16.505c-.891.065-1.552.459-1.847.82l5.967 16.747c1.32-.564 1.482-.254 2.365-.398 0 0-1.276-2.244-1.716-3.408-.328-.87-.43-1.86-.825-2.973-.592-1.665-1.711-3.396-2.325-5.072-.362-.99-.442-2.101-.678-2.928-.497-1.74-.941-2.788-.941-2.788zM9.068 30.69c.529 1.193 1.276 2.102 1.7 3.347.498 1.46.667 3.258 1.24 4.683.607 1.506 1.602 2.856 2.142 4.348.594 1.639.953 3.15 1.53 4.803.58-.273 1.15-.54 1.842-.883l-6.676-16.896c-.74-.002-1.363.157-1.778.599z"/>
    </g>
    <path fill="#f9f9f9" fill-rule="evenodd" d="M33.31 8.447c9.544 1.259 18.527 4.22 22.834 21.406C42.96 11.013 41.262 14.34 33.31 8.447z"/>
    <path fill-opacity=".449" fill-rule="evenodd" d="M43.352 55.124C18.555 65.584-2.419 42.116 7.64 20.864c.189 18.2 14.228 36.08 35.712 34.26z"/>
</svg>
