<?xml version="1.0" encoding="UTF-8" standalone="no"?>
<!-- Created with Inkscape (http://www.inkscape.org/) -->

<svg
   xmlns:dc="http://purl.org/dc/elements/1.1/"
   xmlns:cc="http://creativecommons.org/ns#"
   xmlns:rdf="http://www.w3.org/1999/02/22-rdf-syntax-ns#"
   xmlns:svg="http://www.w3.org/2000/svg"
   xmlns="http://www.w3.org/2000/svg"
   xmlns:xlink="http://www.w3.org/1999/xlink"
   xmlns:sodipodi="http://sodipodi.sourceforge.net/DTD/sodipodi-0.dtd"
   xmlns:inkscape="http://www.inkscape.org/namespaces/inkscape"
   width="100%"
   height="100%"
   viewBox="0 0 64.000001 64.000001"
   id="svg4311"
   version="1.1"
   inkscape:version="0.92.2 (5c3e80d, 2017-08-06)"
   sodipodi:docname="raceFoxMorphPie.svg">
  <defs
     id="defs4313">
    <linearGradient
       id="linearGradient5450"
       inkscape:collect="always">
      <stop
         id="stop5454"
         offset="0"
         style="stop-color:#b3b3b3;stop-opacity:1;" />
      <stop
         id="stop5456"
         offset="1"
         style="stop-color:#dcdcdc;stop-opacity:1" />
    </linearGradient>
    <inkscape:path-effect
       effect="powerstroke"
       id="path-effect4155"
       is_visible="true"
       offset_points="0.92799346,1.2886104"
       sort_points="true"
       interpolator_type="Linear"
       interpolator_beta="0.2"
       start_linecap_type="zerowidth"
       linejoin_type="round"
       miter_limit="4"
       end_linecap_type="zerowidth"
       cusp_linecap_type="round" />
    <inkscape:path-effect
       effect="powerstroke"
       id="path-effect4151"
       is_visible="true"
       offset_points="0,0.5"
       sort_points="true"
       interpolator_type="CubicBezierJohan"
       interpolator_beta="0.2"
       start_linecap_type="zerowidth"
       linejoin_type="round"
       miter_limit="4"
       end_linecap_type="zerowidth"
       cusp_linecap_type="round" />
    <inkscape:path-effect
       effect="powerstroke"
       id="path-effect4147"
       is_visible="true"
       offset_points="0,0.5"
       sort_points="true"
       interpolator_type="CubicBezierJohan"
       interpolator_beta="0.2"
       start_linecap_type="zerowidth"
       linejoin_type="round"
       miter_limit="4"
       end_linecap_type="zerowidth"
       cusp_linecap_type="round" />
    <inkscape:path-effect
       effect="powerstroke"
       id="path-effect4183"
       is_visible="true"
       offset_points="0.238227,0.51804536"
       sort_points="true"
       interpolator_type="Linear"
       interpolator_beta="0.2"
       start_linecap_type="zerowidth"
       linejoin_type="round"
       miter_limit="4"
       end_linecap_type="zerowidth"
       cusp_linecap_type="round" />
    <inkscape:path-effect
       cusp_linecap_type="round"
       end_linecap_type="zerowidth"
       miter_limit="4"
       linejoin_type="round"
       start_linecap_type="zerowidth"
       interpolator_beta="0.2"
       interpolator_type="Linear"
       sort_points="true"
       offset_points="0.92799346,1.2886104"
       is_visible="true"
       id="path-effect4155-2"
       effect="powerstroke" />
    <inkscape:path-effect
       cusp_linecap_type="round"
       end_linecap_type="zerowidth"
       miter_limit="4"
       linejoin_type="round"
       start_linecap_type="zerowidth"
       interpolator_beta="0.2"
       interpolator_type="CubicBezierJohan"
       sort_points="true"
       offset_points="0,0.5"
       is_visible="true"
       id="path-effect4151-8"
       effect="powerstroke" />
    <inkscape:path-effect
       cusp_linecap_type="round"
       end_linecap_type="zerowidth"
       miter_limit="4"
       linejoin_type="round"
       start_linecap_type="zerowidth"
       interpolator_beta="0.2"
       interpolator_type="CubicBezierJohan"
       sort_points="true"
       offset_points="0,0.5"
       is_visible="true"
       id="path-effect4147-1"
       effect="powerstroke" />
    <inkscape:path-effect
       cusp_linecap_type="round"
       end_linecap_type="zerowidth"
       miter_limit="4"
       linejoin_type="round"
       start_linecap_type="zerowidth"
       interpolator_beta="0.2"
       interpolator_type="Linear"
       sort_points="true"
       offset_points="0.238227,0.51804536"
       is_visible="true"
       id="path-effect4183-3"
       effect="powerstroke" />
    <linearGradient
       inkscape:collect="always"
       xlink:href="#linearGradient5450"
       id="linearGradient5452"
       x1="35.092751"
       y1="42.339912"
       x2="33.425774"
       y2="38.947052"
       gradientUnits="userSpaceOnUse" />
  </defs>
  <sodipodi:namedview
     id="base"
     pagecolor="#ffffff"
     bordercolor="#666666"
     borderopacity="1.0"
     inkscape:pageopacity="0.0"
     inkscape:pageshadow="2"
     inkscape:zoom="11.2"
     inkscape:cx="35.345982"
     inkscape:cy="38.482143"
     inkscape:document-units="px"
     inkscape:current-layer="layer5"
     showgrid="false"
     units="px"
     inkscape:window-width="1600"
     inkscape:window-height="847"
     inkscape:window-x="-8"
     inkscape:window-y="-8"
     inkscape:window-maximized="1"
     showguides="false" />
  <metadata
     id="metadata4316">
    <rdf:RDF>
      <cc:Work
         rdf:about="">
        <dc:format>image/svg+xml</dc:format>
        <dc:type
           rdf:resource="http://purl.org/dc/dcmitype/StillImage" />
        <dc:title />
      </cc:Work>
    </rdf:RDF>
  </metadata>
  <g
     inkscape:groupmode="layer"
     id="layer5"
     inkscape:label="Stage5"
     style="display:inline;opacity:1">
    <ellipse
       style="display:inline;fill:#ff8080;fill-opacity:1;stroke:#000000;stroke-width:1.12779903;stroke-linecap:round;stroke-linejoin:round;stroke-miterlimit:4;stroke-dasharray:none;stroke-dashoffset:0;stroke-opacity:1"
       id="path4279"
       cx="31.819803"
       cy="31.548853"
       rx="27.0075"
       ry="26.624949" />
    <path
       inkscape:connector-curvature="0"
       style="fill:#ff5555;fill-opacity:1;stroke:none;stroke-width:0.89999998px;stroke-linecap:butt;stroke-linejoin:miter;stroke-opacity:1"
       d="m 23.703954,15.577114 c -0.900129,0.122983 0.0088,1.409766 0.0088,1.409766 0,0 -3.267547,-2.57051 -2.079493,0.09844 1.188054,2.668948 2.872266,5.338476 2.872266,5.338476 l 0.493945,1.481836 -1.286718,-0.395507 c 0,0 1.188167,2.076713 0.59414,3.164062 -0.594027,1.087349 -2.969571,4.745072 -3.167578,5.832421 -0.19801,1.08735 0.09889,2.866492 -0.594141,4.250392 -0.693032,1.383898 -5.050195,6.227929 -5.050195,6.227929 0,0 -1.584357,1.284245 -1.485351,1.877344 0.09901,0.5931 0.495307,1.384852 1.485351,1.879102 0.990047,0.494249 4.060547,0.889453 4.060547,0.889453 0,0 0.791301,0.395399 2.276367,0 1.48507,-0.3954 4.752955,-2.274198 6.931055,-2.373047 2.178098,-0.09885 4.058788,0.791015 4.058788,0.791015 l -0.397265,8.006837 0.991407,-0.889454 0.06504,2.513672 a 23.4,23.4 0 0 0 0.817382,-0.02813 l 0.0088,-0.01407 h 0.200391 A 23.4,23.4 0 0 0 56.158446,32.73688 c -0.958692,-0.989307 -1.754297,-1.713868 -1.754297,-1.713868 h -2.276367 l 2.17793,-1.383398 c 0,0 -3.46601,-3.953733 -4.456055,-3.854883 -0.990044,0.09885 -4.355859,0 -4.355859,0 l 3.564843,-2.670117 c 0,0 -4.15842,-0.49262 -7.326562,-2.074219 -3.168143,-1.581599 -3.960693,-2.075977 -5.742773,-2.075977 -1.782081,0 -3.366212,0.295313 -3.366212,0.295313 0,0 -6.731571,-3.3597 -8.414648,-3.65625 -0.210385,-0.03707 -0.375902,-0.04394 -0.504492,-0.02637 z"
       id="path859" />
    <path
       style="display:inline;fill:#f9f9f9;fill-opacity:1;fill-rule:evenodd;stroke:none;stroke-width:1px;stroke-linecap:butt;stroke-linejoin:miter;stroke-opacity:1"
       d="M 33.310526,8.4466623 C 42.853897,9.7059588 51.837481,12.667445 56.143804,29.852737 42.960254,11.013531 41.261755,14.341438 33.310526,8.4466623 Z"
       id="path4281"
       inkscape:connector-curvature="0"
       sodipodi:nodetypes="ccc" />
    <path
       style="display:inline;fill:#000000;fill-opacity:0.44859811;fill-rule:evenodd;stroke:none;stroke-width:1px;stroke-linecap:butt;stroke-linejoin:miter;stroke-opacity:1"
       d="M 43.352343,55.124348 C 18.554601,65.583105 -2.4191261,42.115746 7.6398162,20.86384 7.8289942,39.063247 21.867849,56.944615 43.352343,55.124348 Z"
       id="path4283"
       inkscape:connector-curvature="0"
       sodipodi:nodetypes="ccc" />
    <path
       style="fill:url(#linearGradient5452);stroke:#000000;stroke-width:0.5;stroke-linecap:butt;stroke-linejoin:miter;stroke-opacity:1;stroke-miterlimit:4;stroke-dasharray:none;fill-opacity:1"
       d="M 13.392857,33.553572 16.25,38.19643 c 0,0 14.821429,11.25 31.875,0 0.08929,-0.178572 3.571429,-5.267858 3.571429,-5.267858 z"
       id="path5324"
       inkscape:connector-curvature="0" />
    <ellipse
       style="opacity:1;fill:#dfc2a0;fill-opacity:1;stroke:#000000;stroke-width:0.5;stroke-miterlimit:4;stroke-dasharray:none;stroke-opacity:1"
       id="path5330"
       cx="32.1875"
       cy="28.82143"
       rx="21.026785"
       ry="10.625" />
    <path
       style="opacity:1;fill:#cfa979;fill-opacity:1;stroke:none;stroke-width:0.25;stroke-miterlimit:4;stroke-dasharray:none;stroke-opacity:1"
       d="m 32.176602,19.884726 c -4.895707,0.04048 -10.093083,0.494471 -14.295646,3.241526 -2.01305,1.575868 -3.379526,4.143591 -3.085216,6.738978 1.516245,-1.183646 2.366954,-3.022902 3.980878,-4.110877 2.535335,-1.858306 5.726367,-2.411261 8.744348,-3.001084 3.372169,-0.521476 6.8189,-0.786094 10.221081,-0.460131 3.23585,0.564627 6.298966,1.987378 8.956498,3.890649 1.428639,1.392675 2.149516,3.603643 1.487061,5.53101 -0.502507,0.488606 -1.808664,2.6961 -0.175964,1.652357 1.345389,-1.062989 2.509187,-2.737582 2.48997,-4.49866 -0.270178,-2.215368 -1.936569,-3.975349 -3.629519,-5.284215 -2.105812,-1.483965 -4.454757,-2.789354 -7.052553,-3.092551 -2.526488,-0.410266 -5.089475,-0.479554 -7.640938,-0.607002 z"
       id="path5401"
       inkscape:connector-curvature="0"
       sodipodi:nodetypes="ccccccccccccc" />
    <g
       aria-label="+"
       transform="matrix(0.88294759,-0.46947157,0.7908382,0.71207392,0,0)"
       style="font-style:normal;font-weight:normal;font-size:3.91352797px;line-height:1.25;font-family:sans-serif;letter-spacing:0px;word-spacing:0px;fill:#cfa979;fill-opacity:1;stroke:#000000;stroke-width:0.098;stroke-opacity:1;stroke-miterlimit:4;stroke-dasharray:0.29399999, 0.29399998999999999;stroke-dashoffset:0;stroke-linejoin:round;stroke-linecap:round"
       id="text5487">
      <path
         style="fill:#cfa979;fill-opacity:1;stroke:#000000;stroke-width:0.098;stroke-opacity:1;stroke-miterlimit:4;stroke-dasharray:0.29399999, 0.29399998999999999;stroke-dashoffset:0;stroke-linejoin:round;stroke-linecap:round"
         d="m -0.43591672,39.765605 c 0,0.354791 0,0.709582 0,1.064373 0.35479087,0 0.70958173,0 1.0643726,0 0,0.108284 0,0.216569 0,0.324853 -0.35479087,0 -0.70958173,0 -1.0643726,0 0,0.354791 0,0.709582 0,1.064373 -0.10701053,0 -0.21402106,0 -0.32103159,0 0,-0.354791 0,-0.709582 0,-1.064373 -0.35479089,0 -0.70958169,0 -1.06437259,0 0,-0.108284 0,-0.216569 0,-0.324853 0.3547909,0 0.7095817,0 1.06437259,0 0,-0.354791 0,-0.709582 0,-1.064373 0.10701053,0 0.21402106,0 0.32103159,0 z"
         id="path5489"
         inkscape:connector-curvature="0" />
    </g>
  </g>
</svg>