<svg xmlns="http://www.w3.org/2000/svg" viewBox="0 0 64 64">
    <ellipse cx="31.82" cy="31.549" fill="#ff8080" stroke="#000" stroke-linecap="round" stroke-linejoin="round" stroke-width="1.128" rx="27.008" ry="26.625"/>
    <path fill="#f55" fill-rule="evenodd" stroke="#f55" stroke-width=".95" d="M52.206 28.103c1.535.22 3.8-3.653-.95-5.772-.95-.512-1.534-1.096-3.361-.95-.804 0-1.827.438-3.07 1.242-1.241.438-2.045.877-2.922 1.242-2.265.073-4.457.293-7.088.293-.585-.439-1.096-.95-1.973-1.389-.585-.877-.95-1.754-2.265-2.703-2.558-1.754-4.823-1.243-7.015-.658-3.435-1.17-5.408-.512-7.015.511l-1.608 1.973c-10.888 12.715-6.722 24.041 9.792 25.43 1.827-.658 2.777-1.827 5.115-3.654 9.426-3.361 22.36-2.63 23.383-7.819.146-.95.146-1.242-2.85-.95-.292 0-.876-1.023-1.388-2.046-.292 1.023-.292 2.192-.804 2.265-1.315.147-2.63.293-3.946.366-.438.073-1.023-.73-1.534-1.827-.366 1.17-.731 2.046-1.243 2.046-1.68.073-3.288.146-4.968.146-.366 0-1.17-.365-1.389-1.315-.365 1.096-.73 1.17-1.242 1.17a55.265 55.265 0 0 1-4.677-.659c-.95-.219-1.388-.584-1.9-1.242.585-.657 1.316-1.315 2.777-1.315.512 0 1.023 0 1.535-.073.219 0 .365.146.877 1.169.365-.95.584-1.315.876-1.315a25.096 25.096 0 0 0 3.216-.658c.219-.073.438.292 1.023 1.388.073-1.023.219-1.753.438-1.826a19.29 19.29 0 0 0 3.434-1.243c.95 0 1.9 0 2.85-.073.512-.073.731.073 1.535 1.827.365-1.827.804-2.12 1.169-2.192.95-.22 1.827-.512 2.704-1.023.219-.073.584.511.95 1.023-.073-.804-.22-1.462-.073-1.608.146-.073.365-.219.438-.292.512.073.804.292 1.17.511z"/>
    <path fill="#f9f9f9" fill-rule="evenodd" d="M33.31 8.447c9.544 1.259 18.527 4.22 22.834 21.406C42.96 11.013 41.262 14.34 33.31 8.447z"/>
    <path fill-opacity=".449" fill-rule="evenodd" d="M43.352 55.124C18.555 65.584-2.419 42.116 7.64 20.864c.189 18.2 14.228 36.08 35.712 34.26z"/>
    <g fill-rule="evenodd" stroke="#000">
        <path fill="#333" stroke-width=".43876" d="M14.439 33.55c1.188 3.13 2.348 6.271 4.66 9.298 7.83 6.723 19.934 5.574 25.737-.235 2.626-3.734 3.265-8.272 4.525-12.007C45.148 41.377 21.17 42.3 14.439 33.55z"/>
        <path fill="#1a1a1a" stroke-width=".43876" d="M43.27 23.457c1.27.432 1.848.893 3.78 1.91 1.59-2.013 2.332-2.088 2.67-1.818.856.676-.357 6.788-1.672 9.545-3.432-1.648-31.633 3.22-33.33.54l-1.46-4.829z"/>
        <path fill="#502d16" stroke-width=".21938" d="M14.926 33.799C16 27.6 25.242 27.252 31.203 24.553c6.619 1.327 13.123.975 16.819 8.368-.704 1.805-6.972 6.615-15.683 6.44-9.837.752-15.407-2.816-17.413-5.562z"/>
        <path fill="#803300" stroke-linejoin="round" stroke-width=".21938" d="M45.16 34.415c.216-.322 1.088-1.005 1.131-.952.44-.138.473.31.52.735.08.74-.393.874-1.04 1.366-.05-.247-.787-.748-.61-1.149z"/>
        <path fill="#4d4d4d" stroke-width=".43876" d="M11.592 29.062c-.24.134-.016.945.18.9 1.122-.134 2.126-.154 3.248-.401.083-.705-.44-1.746-.693-2.397l-1.026-.023c.19.527.395 1.125.476 1.689z"/>
        <path fill="#782121" stroke-linejoin="round" stroke-width=".19129936" d="M27.693 37.28c.519.074 1.725.186 1.687.942-.035.703-.82.973-1.416.986-1.453.031-1.408-.321-1.476-.784-.066-.456.488-1.246 1.205-1.144zM35.632 30.114c.337-.401 1.07-1.365 1.692-.933.578.402.392 1.21.087 1.723-.741 1.25-1.017 1.026-1.445.838-.422-.185-.8-1.073-.334-1.628z"/>
        <path fill="#445016" stroke-linejoin="round" stroke-width=".21938" d="M38.216 37.567c.51-.317 2.695-1.604 2.754-1.49.846.143.737.849.664 1.533-1.378.676-2.738 1.049-4.09 1.28.002-.416.204-.855.672-1.323z"/>
        <path fill="#666" stroke-width=".21938" d="M49.562 23.607c.037-.202.062-.434.531.118.082 2.155.028 4.315-.478 6.47-1.142 5.361-8.365 9.387-17.472 9.52-5.139.074-13.13-.11-17.817-6.025l-1.976-6.277c.373-.405.58-.262.872-.156l1.606 6.15c2.56 3.083 6.342 5.922 17.472 5.72 6.556-.12 15.55-3.214 16.571-8.815.586-2.177.751-4.458.69-6.705z"/>
        <path fill="#4d4d4d" stroke-width=".43876" d="M48.614 24.851c.59-.213.962 1.206.485 1.372-.328.19-.607.241-.942.055a45.552 45.552 0 0 1-5.125-3.283l.264-.97c1.818 1.06 3.302 1.976 4.723 2.965.154.107.34-.046.595-.139z"/>
        <path fill="#445016" stroke-linejoin="round" stroke-width=".21938" d="M31.445 28.95c.493.054 2.573.386 2.559.594.502.987.094 1.83-.279 2.677-1.247-.391-2.339-1.172-3.358-2.133.198-.556.541-.954 1.078-1.139z"/>
        <path fill="#445016" stroke-linejoin="round" stroke-width=".1886668" d="M19.9 29.433c.6.034 3.128.236 3.11.364.611.603.116 1.118-.338 1.636-1.516-.239-2.843-.716-4.082-1.304.241-.34.658-.583 1.31-.696z"/>
        <path fill="#803300" stroke-linejoin="round" stroke-width=".21938" d="M41.057 28.503c-.334.402-1.698 1.188-1.768 1.11-.693.116-.753-.497-.837-1.083-.142-1.018.604-1.122 1.615-1.686.085.344 1.26 1.143.99 1.659z"/>
        <path fill="#782121" stroke-linejoin="round" stroke-width=".19919704" d="M28.085 31.92c-.757-.033-2.51-.065-2.517-.635-.006-.53 1.104-.765 1.966-.8 2.098-.087 2.063.18 2.198.525.134.339-.602.956-1.647.91z"/>
        <path fill="#1a1a1a" stroke-width=".43876" d="M13.144 27.06c4.959 5.517 26.733 4.812 30.125-1.605l.47-3.017c-11.492 6.527-18.245 3.066-31.34 2.586z"/>
        <path fill="#666" stroke-width=".43876" d="M12.4 25.141c-1.21-3.691 7.58-6.93 12.379-7.796 7.182-1.294 16.246.254 18.06 2.684 3.6 4.823-3.363 7.585-9.755 8.677-6.426 1.098-19.235.86-20.685-3.565z"/>
        <path fill="#445016" stroke-linejoin="round" stroke-width=".21938" d="M18.476 34.92c.177-.463 1.02-2.393 1.218-2.326 1.082-.239 1.795.368 2.521.942-.692 1.109-1.722 1.97-2.908 2.714-.489-.331-.787-.763-.831-1.33zM30.994 36.344c.6.034 3.127.237 3.11.364.61.604.115 1.118-.339 1.636-1.516-.239-2.843-.716-4.082-1.304.241-.34.658-.582 1.31-.696zM42.645 29.722c.215.063 1.123.446 1.117.687.219 1.14.041 2.112-.122 3.09-.544-.451-1.02-1.353-1.465-2.463.086-.642.236-1.1.47-1.314z"/>
        <path fill="#803300" stroke-linejoin="round" stroke-width=".21938" d="M37.455 33.11c.41.165 1.424 1.139 1.385 1.23.296.595-.16.866-.589 1.15-1.006-.531-1.828-1.197-2.565-1.926.24-.199 1.29-.52 1.769-.453zM25.512 32.504c.496.168 1.719 1.159 1.67 1.252.358.605-.193.882-.709 1.17-.9.498-1.265-.16-2.154-.902.29-.203.615-1.587 1.193-1.52z"/>
        <path fill="#782121" stroke-linejoin="round" stroke-width=".19129936" d="M17.95 33.114c-.522-.044-1.733-.087-1.738-.844-.005-.704.762-1.018 1.358-1.065 1.449-.114 1.424.24 1.518.698.092.452-.416 1.272-1.138 1.211zM34.377 35.997c-.522-.044-1.733-.087-1.738-.844-.004-.704.762-1.018 1.357-1.065 1.45-.114 1.425.24 1.519.698.092.451-.416 1.272-1.138 1.211zM43.407 35.625c-.523-.044-1.733-.087-1.738-.845-.005-.703.762-1.017 1.357-1.064 1.45-.115 1.425.24 1.518.698.093.451-.415 1.271-1.137 1.21z"/>
        <path fill="#445016" stroke-linejoin="round" stroke-width=".21938" d="M25.832 37.585c-.506.132-2.072-.024-2.083-.129-.631-.31-.323-.843-.05-1.368.479-.91 1.145-.56 2.296-.428-.132.329.358 1.664-.163 1.925z"/>
        <path fill="#803300" stroke-linejoin="round" stroke-width=".19129936" d="M40.292 32.96c-.522-.043-1.732-.086-1.738-.844-.004-.703.763-1.017 1.358-1.064 1.449-.115 1.424.24 1.518.698.092.451-.416 1.272-1.138 1.21z"/>
        <path fill="#803300" stroke-linejoin="round" stroke-width=".21938" d="M31.24 34.485c-.321.305-1.629.82-1.696.746-.663.021-.72-.507-.799-1.014.902-.693 1.85-1.163 2.82-1.529.08.302-.065 1.389-.326 1.797z"/>
        <path fill="#808080" stroke-width=".31415215999999996" d="M18.536 23.128c-1.295.092-.77 1.602.31 1.317l2.078-.547c4.158-2.278 8.308-4.51 15.742-2.365l2.936-.336c.524-.06-.075-1.38-1.17-1.171l-2.4.458c-6.357-1.529-11.05-.071-15.383 2.493z"/>
    </g>
</svg>
