<svg xmlns="http://www.w3.org/2000/svg" viewBox="0 0 64 64">
    <ellipse cx="31.82" cy="31.549" fill="#ff8080" stroke="#000" stroke-linecap="round" stroke-linejoin="round" stroke-width="1.128" rx="27.008" ry="26.625"/>
    <path fill="#f55" fill-rule="evenodd" d="M13.31 45.316c1.127-5.387 4.382-9.545 5.578-14.159-3.449-1.741-4.3-3.896-4.236-4.317.128-.82 3.932-1.888 7.073-3.155 3.809-1.537 4.025-5.123 9.108-5.076.73.006 6.188-5.976 9.492-9.278 1.386-1.386 3.198 4.07 1.69 8.013l1.516-.901.355-.925.696.311 1.068-.29c2.042 1.569 1.381 4.5-.425 6.107-3.236 2.879-4.093 6.243-5.368 9.614-1.716 4.536.282 7.945-.356 12.105-.531 3.466-2.561 5.087-1.878 10.022-8.93.59-18.002-.329-24.313-8.071z"/>
    <g fill-rule="evenodd">
        <path fill="#ccc" stroke="#000" stroke-width=".5" d="M11.587 47.895C-8.327 34.824 31.977-1.002 40.927 8.67c8.237 8.9-5.914 15.891-7.668 19.37-4.567 9.062-2.7 32.309-21.672 19.856z" transform="matrix(.88572 0 0 .8081 9.823 10.575)"/>
        <path fill="#e3dedb" stroke="#000" stroke-width=".5" d="M10.911 46.029C-9.003 32.957 31.301-2.87 40.251 6.802c8.237 8.9-5.914 15.892-7.668 19.37-4.567 9.062-2.7 32.31-21.672 19.857z" transform="matrix(.88572 0 0 .8081 9.823 10.575)"/>
        <path fill="#c83737" stroke="#000" stroke-width=".5" d="M12.909 44.153C-3.311 33.506 29.46 2.488 38.153 8.743c6.93 4.987-6.734 13.028-8.162 15.86-3.72 7.382-1.63 29.692-17.082 19.55z" transform="matrix(.88572 0 0 .8081 9.823 10.575)"/>
        <path fill="#de8787" d="M25.298 39.537c.682-5.03.742-10.014 9.263-15.63 4.999-3.294-3.719 5.283-5.261 7.927-1.626 2.787-4.807 13.633-4.002 7.703z"/>
    </g>
    <path fill="#f9f9f9" fill-rule="evenodd" d="M33.31 8.447c9.544 1.259 18.527 4.22 22.834 21.406C42.96 11.013 41.262 14.34 33.31 8.447z"/>
    <path fill-opacity=".449" fill-rule="evenodd" d="M43.352 55.124C18.555 65.584-2.419 42.116 7.64 20.864c.189 18.2 14.228 36.08 35.712 34.26z"/>
</svg>
