<svg xmlns="http://www.w3.org/2000/svg" viewBox="0 0 64 64">
    <g fill-rule="evenodd">
        <path fill="#f55" stroke="#000" stroke-width=".307" d="M25.778 47.225c.156.98.312 1.886.546 3.998 3.509.603 7.095.452 10.682-.076.156-1.282.312-2.489.468-3.847z"/>
        <path fill="#ff8080" stroke="#000" stroke-width=".307" d="M37.474 47.451c1.56-11.315 3.51-26.024-3.119-27.382l-5.848.075c-6.94 1.358-4.367 15.087-2.73 27.156 2.106.98 7.642 1.358 11.697.151z"/>
        <path fill="#f55" stroke="#000" stroke-width=".307" d="M28.507 20.22l-.078-3.47 5.77-.151v3.545z"/>
        <path fill="#ff8080" stroke="#000" stroke-width=".307" d="M28.429 16.75c-2.573-.076-3.82-5.205.858-5.733 1.325-.151 2.65-.151 4.054 0 4.133.528 3.743 5.582.858 5.657-1.95.076-3.82.151-5.77.076z"/>
        <path fill="#fff" d="M34.121 20.899c.624.301 1.248 1.131 1.716 1.96.234.227.39.378.545.604.858 1.056 1.482 2.263 1.482 2.942.234-.679-.156-1.961-.858-3.168-.078-.302-.234-.528-.39-.754-.857-.83-1.715-1.434-2.495-1.584zM33.653 11.545c.312.226.702.679 1.014 1.207l.39.377c.468.679.858 1.358.858 1.81.156-.452-.078-1.207-.468-1.96-.078-.152-.156-.303-.312-.454-.468-.528-1.014-.905-1.482-.98z"/>
    </g>
</svg>
