<svg xmlns="http://www.w3.org/2000/svg" viewBox="0 0 64 64">
    <g transform="matrix(1.26941 0 0 1.18246 87.335 22.742)">
        <path fill="#ff8080" fill-rule="evenodd" stroke="#000" stroke-width=".2" d="M-46.897 23.62c2.1.282 4.082.209 6.004-.044 3.907-4.298 2.566-10.273.067-15.915l-6.094-.045c-2.83 5.683-3.46 13.012.023 16.005z"/>
        <ellipse cx="-43.951" cy="-6.078" fill="#ffd5d5" stroke="#000" stroke-linecap="round" stroke-width=".194" rx="2.782" ry="2.402"/>
        <path fill="#f55" fill-rule="evenodd" stroke="#000" stroke-width=".2" d="M-47.159 8.12c.688-1.7 3.957-11.253.596-12.982l5.18-.022c-3.575 1.864.32 11.738.758 13.058z"/>
        <path fill="#fff" fill-rule="evenodd" d="M-40.714 9.87c.688 1.034 1.253 2.478 1.637 3.978.02.157.04.316.056.473.18 1.691.124 3.358-.22 4.523.161-1.19.028-2.825-.325-4.435a18.44 18.44 0 0 0-.105-.45c-.176-1.486-.536-2.967-1.043-4.088zM-42.928-7.964c.5.263.92.651 1.2 1.079a2.6 2.6 0 0 1 .056.146c.18.526.152 1.023-.094 1.342.153-.355.062-.804-.177-1.221a2.5 2.5 0 0 0-.072-.118 2.927 2.927 0 0 0-.913-1.228z"/>
    </g>
</svg>
