<svg xmlns="http://www.w3.org/2000/svg" viewBox="0 0 256 256">
    <g fill-rule="evenodd">
        <path fill="#d8d9e1" stroke="#000" stroke-width=".857" d="M26.988 204.667l223.804-77.085-40.505-51.215L9.274 140.803z"/>
        <path fill="#b3b3b3" stroke="#000" stroke-width=".857" d="M30.347 140.81c-22.015 7.328 1.873 50.718 22.735 43.737l164.339-54.996c25.01-8.37-1.074-50.66-23.168-43.304z"/>
        <path fill="#ffd5d5" stroke="#000" stroke-width=".72" d="M172.01 78.73l-55.297 17.555 18.301 55.74 54.887-18.234c33.77-11.22 17.179-66.195-17.89-55.061z"/>
        <path fill="#f55" stroke="#000" stroke-width=".735" d="M80.165 170.07l56.42-17.91-18.673-56.872-56.002 18.604c-34.455 11.447-17.527 67.538 18.255 56.179z"/>
        <path fill="#fff" fill-opacity=".78" d="M169.231 83.913c5.973-2.24 12.871-1.7 18.805.69 4.929 1.293 9.606 3.878 12.99 7.542-2.84-4.134-7.235-7.483-12.298-9.579-6.632-1.869-13.77-1.569-19.497 1.347z"/>
        <path fill="#d7e3f4" fill-opacity=".294" stroke="#000" stroke-width=".857" d="M21.772 155.46l-1.122-11.83c-.912-9.608 3.563-26.309 25.464-32.841l134.432-40.097c33.462-9.981 42.75 11.805 44.847 26.662l2.186 15.483c1.3 9.213-3.755 14.336-9.287 16.191L51.68 184.903c-10.598 3.554-28.314-12.636-29.908-29.443z"/>
        <path fill="#fff" d="M184.018 72.34c6.21.308 13.239 1.045 19.573 4.225.455.229.906.47 1.35.723 6.162 1.866 12.56 6.181 17.47 15.32-3.472-9.73-8.962-15.814-15.595-19.585a32.51 32.51 0 0 0-1.69-.518c-7.598-2.107-15.227-1.285-21.108-.166z"/>
    </g>
</svg>
