<svg xmlns="http://www.w3.org/2000/svg" xmlns:xlink="http://www.w3.org/1999/xlink" viewBox="0 0 256 256">
    <defs>
        <linearGradient id="innoGrad7">
            <stop offset="0" stop-color="#abc837"/>
            <stop offset=".5" stop-color="#abc837" stop-opacity="0"/>
            <stop offset="1" stop-color="#abc837"/>
        </linearGradient>
        <linearGradient id="innoGrad6">
            <stop offset="0" stop-color="#ff7f2a"/>
            <stop offset=".503" stop-color="#ff7f2a" stop-opacity="0"/>
            <stop offset="1" stop-color="#ff7f2a"/>
        </linearGradient>
        <linearGradient id="innoGrad4">
            <stop offset="0" stop-color="#ff7f2a"/>
            <stop offset=".89" stop-color="#ff7f2a" stop-opacity="0"/>
            <stop offset="1" stop-color="#ff7f2a"/>
        </linearGradient>
        <linearGradient id="innoGrad3">
            <stop offset="0" stop-color="#ff7f2a"/>
            <stop offset=".5" stop-color="#ff7f2a" stop-opacity="0"/>
            <stop offset="1" stop-color="#ff7f2a"/>
        </linearGradient>
        <linearGradient id="innoGrad2">
            <stop offset="0" stop-color="#ff7f2a" stop-opacity="0"/>
            <stop offset="1" stop-color="#ff7f2a"/>
        </linearGradient>
        <linearGradient id="innoGrad1">
            <stop offset="0" stop-color="#ffd42a"/>
            <stop offset="1" stop-color="#ffd42a" stop-opacity="0"/>
        </linearGradient>
        <linearGradient id="linearGradient966" x1="38.027" x2="37.776" y1="98.737" y2="117.05" gradientUnits="userSpaceOnUse" xlink:href="#innoGrad1"/>
        <radialGradient id="radialGradient989" cx="65.238" cy="106.155" r="1.748" fx="65.238" fy="106.155" gradientTransform="matrix(1.38406 0 0 2.84231 -25.056 -195.633)" gradientUnits="userSpaceOnUse" xlink:href="#innoGrad2"/>
        <linearGradient id="linearGradient1012" x1="73.741" x2="73.681" y1="101.098" y2="111.549" gradientUnits="userSpaceOnUse" xlink:href="#innoGrad3"/>
        <linearGradient id="linearGradient1045" x1="41.949" x2="41.878" y1="89.871" y2="128.515" gradientUnits="userSpaceOnUse" xlink:href="#innoGrad4"/>
        <linearGradient id="linearGradient1079" x1="17.544" x2="17.592" y1="105.141" y2="101.615" gradientUnits="userSpaceOnUse" xlink:href="#innoGrad2"/>
        <linearGradient id="linearGradient1102" x1="109.548" x2="97.147" y1="116.731" y2="104.256" gradientUnits="userSpaceOnUse" xlink:href="#innoGrad2"/>
        <linearGradient id="linearGradient1133" x1="111.928" x2="102.529" y1="120.989" y2="107.701" gradientUnits="userSpaceOnUse" xlink:href="#innoGrad2"/>
        <linearGradient id="linearGradient1156" x1="85.167" x2="85.326" y1="82.406" y2="104.266" gradientUnits="userSpaceOnUse" xlink:href="#innoGrad3"/>
        <linearGradient id="linearGradient1179" x1="111.658" x2="111.5" y1="86.136" y2="100.595" gradientUnits="userSpaceOnUse" xlink:href="#innoGrad3"/>
        <linearGradient id="linearGradient1211" x1="101.88" x2="101.941" y1="87.733" y2="99.072" gradientUnits="userSpaceOnUse" xlink:href="#innoGrad3"/>
        <linearGradient id="linearGradient1234" x1="74.707" x2="74.571" y1="88.022" y2="98.078" gradientUnits="userSpaceOnUse" xlink:href="#innoGrad3"/>
        <linearGradient id="linearGradient1257" x1="227.812" x2="227.754" y1="100.926" y2="107.028" gradientUnits="userSpaceOnUse" xlink:href="#innoGrad7"/>
        <linearGradient id="linearGradient1290" x1="209.654" x2="209.654" y1="107.503" y2="110.326" gradientUnits="userSpaceOnUse" xlink:href="#innoGrad7"/>
        <linearGradient id="linearGradient1313" x1="212.766" x2="212.766" y1="102.078" y2="105.758" gradientUnits="userSpaceOnUse" xlink:href="#innoGrad7"/>
        <linearGradient id="linearGradient1336" x1="183.133" x2="183.133" y1="101.57" y2="106.265" gradientUnits="userSpaceOnUse" xlink:href="#innoGrad7"/>
        <linearGradient id="linearGradient1359" x1="156.674" x2="156.674" y1="101.443" y2="106.138" gradientUnits="userSpaceOnUse" xlink:href="#innoGrad7"/>
        <linearGradient id="linearGradient1382" x1="146.687" x2="146.687" y1="100.375" y2="107.367" gradientUnits="userSpaceOnUse" xlink:href="#innoGrad3"/>
        <linearGradient id="linearGradient1407" x1="46.461" x2="75.425" y1="116.962" y2="138.657" gradientUnits="userSpaceOnUse" xlink:href="#innoGrad6"/>
    </defs>
    <g transform="scale(1.27924) rotate(-45 99.331 136.262)">
        <path fill="#f95" stroke="#000" stroke-miterlimit="10" stroke-width=".782" d="M73.26 119.736c.449.736-1.121.062-1.27 2.726-.147 2.666.634 2.141.36 2.708-.571 1.177-5.076.613-5.013-1.269.065-1.882 4.273-6.874 5.923-4.165z"/>
        <path fill="#fca" d="M90.244 119.083c.063.501-5.771 4.631-5.771 4.631h-1.651s-2.412 2.682-2.75 2.894c-.062.038-.403.478-.927.51l-9.049.022c-.345-.01-.671-.788-.977-.812-1.947-.147-2.86.12-3.218 3.694-.023.241.235 1.168-.23 1.105-.46-.065-1.108.293-1.673.841-1.426 1.387-3.209 4.184-4.018 5.288-2.007 2.732-1.307 3.774-1.649 4.286-.338.509-2.73-1.092-4.908-2.148-1.621-.787-3.377-1.63-3.457-2.264-.478-3.811 7.842-12.667 9.569-14.177 2.25-1.967 1.396-5.351-.695-6.302-2.277-1.036 26.074-2.391 26.074-2.391s5.266 4.32 5.33 4.823zm-19.205.653c-2.665 1.67-2.509 4.219-1.522 5.604.057.081.235.286.825.507h8.438c1.361-.424 2.348-1.983 2.348-2.875.001-1.63-1.366-3.132-1.882-3.236z"/>
        <path fill="url(#linearGradient1407)" stroke="#000" stroke-miterlimit="10" stroke-width=".782" d="M90.244 119.083c.063.501-5.771 4.631-5.771 4.631h-1.651s-2.412 2.682-2.75 2.894c-.062.038-.403.478-.927.51l-9.049.022c-.345-.01-.671-.788-.977-.812-1.947-.147-2.86.12-3.218 3.694-.023.241.235 1.168-.23 1.105-.46-.065-1.108.293-1.673.841-1.426 1.387-3.209 4.184-4.018 5.288-2.007 2.732-1.307 3.774-1.649 4.286-.338.509-2.73-1.092-4.908-2.148-1.621-.787-3.377-1.63-3.457-2.264-.478-3.811 7.842-12.667 9.569-14.177 2.25-1.967 1.396-5.351-.695-6.302-2.277-1.036 26.074-2.391 26.074-2.391s5.266 4.32 5.33 4.823zm-19.205.653c-2.665 1.67-2.509 4.219-1.522 5.604.057.081.235.286.825.507h8.438c1.361-.424 2.348-1.983 2.348-2.875.001-1.63-1.366-3.132-1.882-3.236z"/>
        <circle cx="66.242" cy="119.88" r=".934" fill="none" stroke="#000" stroke-miterlimit="10" stroke-width=".391"/>
        <circle cx="55.219" cy="136.341" r=".889" fill="none" stroke="#000" stroke-miterlimit="10" stroke-width=".391"/>
    </g>
    <g>
        <path fill="#cdde87" d="M147.673 91.863l51.082-51.081 3.328 3.329-51.08 51.08z"/>
        <path fill="url(#linearGradient1313)" stroke="#000" stroke-miterlimit="10" stroke-width=".782" d="M156.295 102.078h56.471v3.68h-56.471z" transform="scale(1.27924) rotate(-45 99.331 136.262)"/>
        <path fill="#cdde87" d="M138.576 99.811l8.866-8.865 4.247 4.247-8.866 8.865z"/>
        <path fill="url(#linearGradient1359)" stroke="#000" stroke-miterlimit="10" stroke-width=".782" d="M146.873 101.443h9.801v4.695h-9.801z" transform="scale(1.27924) rotate(-45 99.331 136.262)"/>
        <path fill="#dde9af" d="M162.05 76.568l9.44-9.44 4.247 4.246-9.44 9.44z"/>
        <path fill="url(#linearGradient1336)" stroke="#000" stroke-miterlimit="10" stroke-width=".782" d="M172.696 101.57h10.437v4.695h-10.437z" transform="scale(1.27924) rotate(-45 99.331 136.262)"/>
        <path fill="#cdde87" d="M137.946 111.405l62.9-62.9 2.554 2.553-62.9 62.9z"/>
        <path fill="url(#linearGradient1290)" stroke="#000" stroke-miterlimit="10" stroke-width=".782" d="M140.116 107.503h69.538v2.823h-69.538z" transform="scale(1.27924) rotate(-45 99.331 136.262)"/>
        <path fill="#cdde87" stroke="#000" stroke-miterlimit="10" stroke-width="1.00036568" d="M197.836 39.864c.76-.76 6.318 4.472 5.395 5.395-.924.924-1.88-.263-3.582-1.815-1.704-1.547-2.574-2.819-1.813-3.58z"/>
        <path fill="#bcd35f" d="M234.452 14.038L203.23 45.259s.005-.462-2.579-3.045c-2.582-2.583-2.815-2.35-2.815-2.35l31.221-31.221s1.416.115 3.347 2.046c1.934 1.934 2.048 3.349 2.048 3.349z"/>
        <path fill="url(#linearGradient1257)" stroke="#000" stroke-miterlimit="10" stroke-width=".782" d="M247.281 107.027h-34.516s.258-.253.258-3.109c0-2.855-.258-2.855-.258-2.855h34.516s.719.846.719 2.981c0 2.138-.719 2.983-.719 2.983z" transform="scale(1.27924) rotate(-45 99.331 136.262)"/>
        <path fill="#eef4d7" stroke="#000" stroke-miterlimit="10" stroke-width="1.00036568" d="M193.989 44.629l3.876-3.876 8.322 8.323-3.876 3.876z"/>
    </g>
    <g>
        <path fill="#f95" stroke="#000" stroke-miterlimit="10" stroke-width="1.00036568" d="M76.543 159.397l-.922-.921.732-1.414-1.647.192 10.33-10.33 1.57.19 1.11 1.11z"/>
        <path fill="#ffe6d5" stroke="#000" stroke-miterlimit="10" stroke-width="1.00036568" d="M62.997 155.035l1.78-1.78 1.25.359 4.092 4.093.11 1.42-1.57 1.57s-1.3-.842-3.059-2.601c-1.76-1.761-2.603-3.061-2.603-3.061z"/>
        <path fill="url(#linearGradient1234)" stroke="#000" stroke-miterlimit="10" stroke-width=".782" d="M74.571 90.191h1.967l.493.889v4.525l-.725.846h-1.735s-.253-1.184-.253-3.129c0-1.947.253-3.131.253-3.131z" transform="scale(1.27924) rotate(-45 99.331 136.262)"/>
        <path fill="#ffe6d5" stroke="#000" stroke-miterlimit="10" stroke-width="1.00036568" d="M66.485 154.072l1.007-1.007 3.176 3.176-1.007 1.007z"/>
        <path fill="#ffe6d5" d="M99.103 131.134l-14.047 14.047-6.104-6.104L93 125.031s.476.086 3.247 2.857c2.771 2.772 2.857 3.246 2.857 3.246z"/>
        <path fill="url(#linearGradient1211)" stroke="#000" stroke-miterlimit="10" stroke-width=".782" d="M107.74 96.938H92.211V90.19h15.529s.215.311.215 3.374c0 3.064-.215 3.374-.215 3.374z" transform="scale(1.27924) rotate(-45 99.331 136.262)"/>
        <path fill="#ffe6d5" d="M93 125.031s.698.155 2.86 2.434c2.802 2.951 3.243 3.67 3.243 3.67l2.34-.235 5.584-5.584s-.027-.714-4.165-4.853c-4.139-4.138-4.482-3.794-4.482-3.794l-5.258 5.257z"/>
        <path fill="url(#linearGradient1179)" stroke="#000" stroke-miterlimit="10" stroke-width=".782" d="M108.101 90.191s.3.471.236 2.926c-.083 3.18-.236 3.821-.236 3.821l1.423 1.164h6.173s.38-.41.38-4.985-.38-4.575-.38-4.575h-5.812z" transform="scale(1.27924) rotate(-45 99.331 136.262)"/>
        <path fill="none" stroke="#000" stroke-miterlimit="10" stroke-width=".2494518" d="M93.122 121.926s1.92 1.332 4.618 4.03c2.697 2.696 4.03 4.618 4.03 4.618"/>
        <path fill="#ffe6d5" d="M85 145.124a1.3 1.3 0 0 1 0 1.838L74.171 157.79a1.3 1.3 0 0 1-1.838 0l-5.817-5.816a1.298 1.298 0 0 1 .001-1.837l10.828-10.828a1.298 1.298 0 0 1 1.837 0z"/>
        <path fill="url(#linearGradient1156)" stroke="#000" stroke-miterlimit="10" stroke-width=".782" d="M92.211 96.875c0 .561-.454 1.016-1.016 1.016h-11.97a1.016 1.016 0 0 1-1.016-1.016v-6.43c0-.561.454-1.015 1.016-1.015h11.97c.562 0 1.016.454 1.016 1.015z" transform="scale(1.27924) rotate(-45 99.331 136.262)"/>
    </g>
    <g transform="scale(1.27924) rotate(-45 99.331 136.262)">
        <path fill="#fca" d="M115.46 100.375h31.227s.293 1.564.293 3.496c0 1.93-.293 3.496-.293 3.496H115.46z"/>
        <path fill="url(#linearGradient1382)" stroke="#000" stroke-miterlimit="10" stroke-width=".782" d="M115.46 100.375h31.227s.293 1.564.293 3.496c0 1.93-.293 3.496-.293 3.496H115.46z"/>
        <path fill="#414042" stroke="#000" stroke-miterlimit="10" stroke-width=".391" d="M124.742 101.844c0 .28-.228.507-.507.507h-2.665a.508.508 0 0 1-.507-.507v-.146c0-.28.227-.507.507-.507h2.665c.28 0 .507.227.507.507zM130.021 101.844c0 .28-.227.507-.509.507h-2.664a.508.508 0 0 1-.507-.507v-.146c0-.28.227-.507.507-.507h2.664c.282 0 .509.227.509.507zM135.299 101.844c0 .28-.227.507-.507.507h-2.664a.509.509 0 0 1-.51-.507v-.146c0-.28.228-.507.51-.507h2.664c.28 0 .507.227.507.507zM140.58 101.844c0 .28-.228.507-.508.507h-2.666a.509.509 0 0 1-.508-.507v-.146c0-.28.228-.507.508-.507h2.666c.28 0 .508.227.508.507zM145.857 101.844c0 .28-.227.507-.507.507h-2.664a.507.507 0 0 1-.509-.507v-.146c0-.28.226-.507.509-.507h2.664c.28 0 .507.227.507.507zM119.463 101.844c0 .28-.227.507-.507.507h-2.665a.508.508 0 0 1-.507-.507v-.146c0-.28.227-.507.507-.507h2.665c.28 0 .507.227.507.507z"/>
        <path fill="#fca" stroke="#000" stroke-miterlimit="10" stroke-width=".782" d="M62.138 100.856s.804-1.776 1.565-1.784c.335-.003 28.633-.001 28.633-.001l.023.616h.993l-.002-.616 6.326.001.021 3.279h2.221l.023-3.279h2.453l.02 3.279h2.262l-.019-3.199 2.58-.027-.019 3.226h2.321l-.039-3.248 3.301-.032s.586 1.392 1.524 2.624c.938 1.234 3.382 3.83 3.382 3.83l-32.699.104-.036-4.836z"/>
        <path fill="#f95" stroke="#000" stroke-miterlimit="10" stroke-width=".782" d="M85.549 101.993h1.458v4.526h-1.458zM66.198 101.739h1.331v5.764h-1.331z"/>
        <path fill="#ffe6d5" d="M142.178 109.506s.742 1.319-1.396 2.5c-2.873 1.589-10.939 2.995-14.372 3.126-5.361.206-15.196-3.57-16.403-3.379-1.205.191-4.758 6.947-4.695 7.36.064.412 1.523 2.759 1.714 3.046.191.285-2.539 2.443-2.539 2.443l-1.332-.889-.729.349-3.744-3.679.063-.952-.825.158-2.728-2.823s-1.441-.182-2.981.538c-1.541.722-1.697 1.561-1.967 1.778-.27.216-5.331-4.822-5.331-4.822l9.931-6.758z"/>
        <path fill="url(#linearGradient1133)" stroke="#000" stroke-miterlimit="10" stroke-width=".782" d="M142.178 109.506s.742 1.319-1.396 2.5c-2.873 1.589-10.939 2.995-14.372 3.126-5.361.206-15.196-3.57-16.403-3.379-1.205.191-4.758 6.947-4.695 7.36.064.412 1.523 2.759 1.714 3.046.191.285-2.539 2.443-2.539 2.443l-1.332-.889-.729.349-3.744-3.679.063-.952-.825.158-2.728-2.823s-1.441-.182-2.981.538c-1.541.722-1.697 1.561-1.967 1.778-.27.216-5.331-4.822-5.331-4.822l9.931-6.758z"/>
        <path fill="#ffb380" d="M98.745 119.432h-.977l-2.576-2.665-5.708-4.152.506-2.924 43.018.071v1.262l-28.488-.031-2.507 2.855v2.205z"/>
        <path fill="url(#linearGradient1102)" stroke="#000" stroke-miterlimit="10" stroke-width=".782" d="M133.008 109.762v1.262l-28.488-.031-2.507 2.855v2.205l-3.268 3.379h-.977l-2.576-2.665-5.708-4.152.506-2.924z"/>
        <path fill="none" stroke="#000" stroke-miterlimit="10" stroke-width=".391" d="M104.52 110.993l-9.867-.128M96.271 110.865l5.742 5.188M106.199 120.814l-3.043 2.9"/>
        <circle cx="103.399" cy="121.26" r="1.004" fill="#ffe6d5" stroke="#000" stroke-miterlimit="10" stroke-width=".391"/>
    </g>
    <g transform="scale(1.27924) rotate(-45 99.331 136.262)">
        <path fill="#ffb380" d="M60.486 105.316H14.09c-1.057-.067-1.828.83-1.862 1.541v20.956h-1.776v-22.605c-.04-1.692.887-3.214 3.426-3.214h47.758z"/>
        <path fill="url(#linearGradient1079)" stroke="#000" stroke-miterlimit="10" stroke-width=".782" d="M60.486 105.316H14.09c-1.057-.067-1.828.83-1.862 1.541v20.956h-1.776v-22.605c-.04-1.692.887-3.214 3.426-3.214h47.758z"/>
        <path fill="#fd5" stroke="#000" stroke-miterlimit="10" stroke-width=".782" d="M10.854 103.435S8 103.282 8 106.053l.042 19.458c-.042 1.959 1.413 1.947 2.813 1.947v-24.023z"/>
        <path fill="#fff6d5" stroke="#000" stroke-miterlimit="10" stroke-width=".391" d="M12.526 122.338a.508.508 0 0 1-.509.508H10.2a.507.507 0 0 1-.508-.508v-6.385c0-.279.227-.507.508-.507h1.817c.282 0 .509.228.509.507zm-.605-5.607a.507.507 0 0 0-.507-.508h-.61a.507.507 0 0 0-.507.508v4.831c0 .279.227.507.507.507h.61a.506.506 0 0 0 .507-.507z"/>
        <path fill="#ffb380" d="M56.936 109.082c.761.018 1.313-.092 1.945-.828 1.784-2.073 2.699-6.818 3.257-7.397h4.036l.053 10.928 20.78.065v-6.218l54.097-.174c.95.035 1.358.455 1.364.509.075.674.065 2.487.045 2.957-.02.47-.689.85-.689.85l-46.614-.051-6.68 3.376c-.009.635-.211 1.177-.972 1.184l-2.834-.022.086 3.725c-.015.546-.15.972-.85 1.002 0 0-13.303.069-14.125-.028-.886-.107-10.118-2.158-10.745-2.287-.626-.129-14.253.039-14.253.039-2.651.792-7.473 5.316-11.42 8.079-3.229 2.262-4.848 2.574-5.925 2.922-1.075.348-15.646.335-15.862 0-.216-.336 0-4.695 0-4.695l.634-1.189v-6.425l-.634-.888s-.202-5.166.132-5.502c.334-.337 45.174.068 45.174.068zm-34.556 4.075c0-.561-.456-1.016-1.016-1.016h-4.272c-.561 0-1.016.455-1.016 1.016v9.771c0 .561.455 1.016 1.016 1.016h4.272c.561 0 1.016-.455 1.016-1.016z"/>
        <path fill="#ffe6d5" fill-rule="evenodd" d="M74.494 112.465l-2.047 5.457 4.86-3.297-5.791-.148 4.753 3.545z"/>
        <path fill="url(#linearGradient1045)" stroke="#000" stroke-miterlimit="10" stroke-width=".782" d="M56.936 109.082c.761.018 1.313-.092 1.945-.828 1.784-2.073 2.699-6.818 3.257-7.397h4.036l.053 10.928 20.78.065v-6.218l54.097-.174c.95.035 1.358.455 1.364.509.075.674.065 2.487.045 2.957-.02.47-.689.85-.689.85l-46.614-.051-6.68 3.376c-.009.635-.211 1.177-.972 1.184l-2.834-.022.086 3.725c-.015.546-.15.972-.85 1.002 0 0-13.303.069-14.125-.028-.886-.107-10.118-2.158-10.745-2.287-.626-.129-14.253.039-14.253.039-2.651.792-7.473 5.316-11.42 8.079-3.229 2.262-4.848 2.574-5.925 2.922-1.075.348-15.646.335-15.862 0-.216-.336 0-4.695 0-4.695l.634-1.189v-6.425l-.634-.888s-.202-5.166.132-5.502c.334-.337 45.174.068 45.174.068zm-34.556 4.075c0-.561-.456-1.016-1.016-1.016h-4.272c-.561 0-1.016.455-1.016 1.016v9.771c0 .561.455 1.016 1.016 1.016h4.272c.561 0 1.016-.455 1.016-1.016z"/>
        <path fill="#ffb380" d="M85.549 110.367c0 .14-.113.254-.254.254H67.782a.254.254 0 0 1-.253-.254v-8.375c0-.14.114-.253.253-.253h17.513c.141 0 .254.113.254.253z"/>
        <path fill="url(#linearGradient1012)" stroke="#000" stroke-miterlimit="10" stroke-width=".782" d="M85.549 110.367c0 .14-.113.254-.254.254H67.782a.254.254 0 0 1-.253-.254v-8.375c0-.14.114-.253.253-.253h17.513c.141 0 .254.113.254.253z"/>
        <path fill="#ffe6d5" stroke="#000" stroke-miterlimit="10" stroke-width=".391" d="M85.326 103.146H74.307s-.338 0-.338.56.338.56.338.56h11.019zM85.326 108.094H74.307s-.338 0-.338.561c0 .559.338.559.338.559h11.019z"/>
        <path fill="#fca" d="M66.198 101.739v8.882s-2.495-.168-2.495-4.483c0-4.315 2.495-4.399 2.495-4.399z"/>
        <path fill="url(#radialGradient989)" stroke="#000" stroke-miterlimit="10" stroke-width=".782" d="M66.198 101.739v8.882s-2.495-.168-2.495-4.483c0-4.315 2.495-4.399 2.495-4.399z"/>
        <circle cx="61.304" cy="113.469" r=".943" fill="none" stroke="#000" stroke-miterlimit="10" stroke-width=".782"/>
        <path fill="none" stroke="#000" stroke-linecap="round" stroke-miterlimit="10" stroke-width=".782" d="M105.916 107.503h27.092"/>
        <path fill="#ffe680" d="M55.706 99.071l-29.694-.082c-1.343.112-1.229.539-1.608 1.101-.985 1.46-1.776 14.498 1.776 15.963 3.553 1.464 26.438-3.455 29.039-6.839 1.825-2.373 2.972-6.019 2.433-8.358-.23-.996-1.617-1.684-1.946-1.785z"/>
        <path fill="url(#linearGradient966)" stroke="#000" stroke-miterlimit="10" stroke-width=".782" d="M55.706 99.071l-29.694-.082c-1.343.112-1.229.539-1.608 1.101-.985 1.46-1.776 14.498 1.776 15.963 3.553 1.464 26.438-3.455 29.039-6.839 1.825-2.373 2.972-6.019 2.433-8.358-.23-.996-1.617-1.684-1.946-1.785z"/>
        <path fill="none" stroke="#000" stroke-miterlimit="10" stroke-width=".391" d="M26.012 98.989s-2.498 15.831 1.775 15.914c2.093.04 19.759-2.455 24.534-5.169 2.545-1.448 4.028-4.682 4.146-7.107.103-2.125-.761-3.556-.761-3.556"/>
    </g>
</svg>
