<svg xmlns="http://www.w3.org/2000/svg" cursor="default" viewBox="0 0 256 256">
    <g stroke="#000">
        <path fill="#ff8080" fill-rule="evenodd" stroke-width=".5" d="M104.829 91.386c-11.141.063-20.526 7.632-20.573 22.324-.064 20.268 39.017 47.99 43.022 65.793 4.059-17.968 43.366-41.555 43.535-61.06.235-27.161-28.254-34.3-43.074-16.52-6.843-7.109-15.287-10.58-22.91-10.537zm7.517 11.195c5.705.045 11.554 2.971 15.004 9.272-11.32-11.212-28.67-7.822-28.338 8.408.271 13.265 25.569 30.792 28.567 42.408 2.483-11.84 28.472-27.878 28.281-40.646-.267-17.82-19.06-22.058-28.506-10.166h-.002v-.002c3.62-8.111 12.192-10.482 19.477-7.954 6.428 2.232 11.855 8.278 11.994 17.559.213 14.204-21.136 24.083-31.23 41.238-.003-.01-.012-.019-.014-.029l-.008.031c.002.003.003.01.008.014l.011-.012c.003.016.01.032.014.047-.009-.012-.018-.023-.025-.035l-.02.035c.002-.016.01-.033.012-.049-11.827-17.993-31.074-28.626-31.375-43.384-.219-10.709 7.81-16.8 16.15-16.735zm8.344 14.492c2.332.16 4.838 1.301 6.893 3.453 4.865-5.788 14.162-3.417 14.048 5.456-.08 6.372-12.954 14.024-14.304 19.888-1.285-5.821-14.014-14.93-13.965-21.55.037-5.053 3.441-7.513 7.328-7.247z"/>
        <path fill="#ffb380" stroke-width=".556" d="M35.379 79.204l-.053-1.285c-1.084.044-2.95.084-5.015-.183-1.6-.206-3.412-.61-5.021-1.385-1.432-.69-2.716-1.679-3.542-3.115-.79-1.373-1.202-3.228-.833-5.737.403-2.713 1.561-4.565 2.99-5.726a7.118 7.118 0 0 1 4.91-1.583c1.815.112 3.282.916 4.124 2.042.496.666.77 1.428.845 2.232.091.995-.127 1.998-.509 2.926.382-.926.62-1.924.566-2.93a4.657 4.657 0 0 0-.755-2.331c-.804-1.224-2.284-2.189-4.22-2.445a7.78 7.78 0 0 0-5.496 1.382c-1.703 1.206-3.134 3.225-3.723 6.212-.54 2.707-.265 4.927.608 6.739.912 1.893 2.426 3.227 4.072 4.16 1.83 1.038 3.873 1.608 5.614 1.923 2.272.411 4.29.438 5.49.389l-.052-1.285z"/>
        <path fill="#ffb380" stroke-width=".535" d="M57.087 109.058l3 .283c.436-4.601.31-9.456-.864-14.062-.955-3.742-2.574-7.198-4.972-10.103a21.479 21.479 0 0 0-7.815-5.966c-2.81-1.26-5.898-1.932-9.089-1.993-5.902-.112-12.137 1.89-16.93 5.94-2.294 1.936-4.235 4.33-5.587 7.129-1.339 2.772-2.082 5.903-2.046 9.32.083 6.044 2.191 10.517 5.238 13.466 3.18 3.078 7.246 4.395 11.017 4.448 4.293.06 8.136-1.467 10.921-3.79 3.741-3.122 5.308-7.328 5.74-11.248-.436 3.95-2.176 8.075-6 10.916-2.84 2.11-6.613 3.286-10.602 2.933-3.522-.311-7.035-1.825-9.577-4.7-2.405-2.718-3.948-6.668-3.723-11.987.115-2.944.898-5.54 2.13-7.764 1.247-2.251 2.965-4.141 4.959-5.643 4.199-3.163 9.474-4.522 14.257-4.186 2.571.18 4.957.84 7.049 1.9a16.458 16.458 0 0 1 5.679 4.724c1.713 2.24 2.913 4.942 3.628 8.008.886 3.799.979 7.94.586 12.09l3.001.285z"/>
        <ellipse cx="-30.281" cy="100.561" fill="#ffe680" stroke-linecap="round" stroke-linejoin="round" stroke-width="1.113" paint-order="stroke fill markers" rx="7.134" ry="7.477" transform="scale(-1 1)"/>
        <path fill="#ffb380" stroke-width=".556" d="M115.581 69.415c1.544-.579 3.143-.834 4.634-.56 1.205.22 2.26.773 3.095 1.64.734.763 1.274 1.749 1.574 2.873a7.924 7.924 0 0 1 .163 3.266c-.167 1.042-.545 2.02-1.12 2.804-.552.753-1.261 1.297-2.105 1.584-.814.277-1.828.341-3.087.043-1.26-.298-2.796-.967-4.63-2.204-2.503-1.765-5.84-3.782-9.727-5.434-4.09-1.737-8.647-3.01-13.434-3.275-5.406-.299-10.668.713-15.6 3.172-6.396 3.19-11.275 8.33-14.899 13.692-.326.483-.634.959-.924 1.425-2.505 4.029-4.481 8.661-5.185 13.856-.636 4.693-.194 9.541 1.456 14.592 1.446 4.424 3.754 8.815 6.815 13.297 2.818 4.127 6.2 8.225 10.012 12.45 7.034 7.795 15.434 15.822 22.808 24.24 7.046 8.043 13.01 16.343 15.678 25.162.975 3.123 1.123 5.808.715 8.078a11.902 11.902 0 0 1-2.781 5.808c-1.416 1.618-3.237 2.852-5.237 3.682a16.716 16.716 0 0 1-6.448 1.262c-2.267-.012-4.4-.496-6.208-1.384-1.966-.966-3.52-2.392-4.554-4.196-1.175-2.051-1.636-4.513-1.418-7.239.27-3.369 1.552-6.905 3.367-10.301-1.812 3.392-3.155 6.904-3.54 10.284-.312 2.733.017 5.284 1.111 7.51.967 1.968 2.506 3.62 4.553 4.828 1.88 1.11 4.148 1.818 6.617 2.027a18.646 18.646 0 0 0 7.236-.827c2.318-.746 4.574-1.987 6.449-3.794a14.692 14.692 0 0 0 4.045-6.943c.738-2.832.754-6.125-.175-9.835-2.52-9.799-8.62-18.907-15.534-27.395-7.277-8.933-15.436-17.265-22.005-25.052-3.575-4.237-6.615-8.197-9.074-12.07-2.669-4.203-4.499-8.064-5.568-11.727-1.207-4.13-1.404-7.873-.854-11.376.615-3.909 2.166-7.521 4.251-10.876.241-.387.498-.785.771-1.192 3.158-4.713 7.01-8.938 11.85-11.694 3.696-2.104 7.734-3.219 12.154-3.33 3.965-.099 7.956.618 11.805 1.832 3.656 1.153 6.9 2.663 9.481 4.001 2.256 1.26 4.3 1.942 6.12 2.129 1.851.19 3.433-.138 4.705-.842 1.295-.716 2.191-1.776 2.76-2.923.59-1.188.843-2.493.85-3.735a9.437 9.437 0 0 0-.729-3.706c-.512-1.21-1.254-2.21-2.15-2.94a6.444 6.444 0 0 0-3.43-1.417c-1.534-.167-3.122.154-4.659.73zM219.672 79.7l-.053 1.286c1.2.05 3.218.022 5.49-.39 1.741-.314 3.784-.884 5.614-1.922 1.647-.933 3.16-2.267 4.073-4.16.873-1.812 1.147-4.033.607-6.739-.589-2.987-2.02-5.006-3.722-6.213a7.78 7.78 0 0 0-5.496-1.38c-1.937.255-3.417 1.22-4.22 2.444a4.657 4.657 0 0 0-.756 2.33c-.054 1.007.185 2.005.566 2.931-.382-.928-.6-1.931-.508-2.926a4.354 4.354 0 0 1 .845-2.232c.841-1.126 2.308-1.93 4.123-2.042a7.118 7.118 0 0 1 4.91 1.583c1.43 1.161 2.587 3.013 2.991 5.726.368 2.51-.044 4.363-.834 5.737-.826 1.436-2.11 2.425-3.541 3.115-1.61.775-3.42 1.178-5.021 1.385-2.066.267-3.931.227-5.015.183l-.053 1.285z"/>
        <path fill="#ffb380" stroke-width=".535" d="M197.963 109.554l3.001-.283c-.393-4.15-.3-8.292.587-12.092.715-3.065 1.914-5.767 3.628-8.007a16.458 16.458 0 0 1 5.679-4.725c2.091-1.058 4.477-1.718 7.048-1.9 4.784-.335 10.059 1.024 14.258 4.187 1.993 1.501 3.712 3.391 4.959 5.643 1.232 2.224 2.014 4.82 2.13 7.764.224 5.306-1.367 9.248-3.853 11.963-2.63 2.874-6.263 4.383-9.9 4.687-4.117.343-8.001-.846-10.918-2.961-3.928-2.85-5.705-6.976-6.141-10.926.433 3.92 2.036 8.13 5.884 11.26 2.864 2.33 6.818 3.865 11.23 3.816 3.873-.044 8.051-1.346 11.32-4.41 3.133-2.938 5.308-7.41 5.391-13.467.036-3.417-.706-6.548-2.045-9.32-1.353-2.8-3.293-5.193-5.587-7.13-4.794-4.049-11.028-6.051-16.93-5.939-3.191.061-6.28.733-9.09 1.993a21.479 21.479 0 0 0-7.815 5.966c-2.398 2.905-4.017 6.36-4.971 10.103-1.175 4.606-1.3 9.46-.865 14.062l3-.284z"/>
        <ellipse cx="224.77" cy="101.058" fill="#ffe680" stroke-linecap="round" stroke-linejoin="round" stroke-width="1.113" paint-order="stroke fill markers" rx="7.134" ry="7.477"/>
        <path fill="#ffb380" stroke-width=".556" d="M139.47 69.911c-1.537-.575-3.125-.896-4.66-.73a6.444 6.444 0 0 0-3.43 1.418c-.895.73-1.638 1.73-2.15 2.94a9.437 9.437 0 0 0-.729 3.706c.008 1.241.261 2.547.85 3.734.57 1.148 1.466 2.208 2.761 2.924 1.272.704 2.853 1.032 4.705.842 1.819-.187 3.863-.868 6.12-2.13 2.58-1.337 5.824-2.848 9.48-4 3.85-1.214 7.84-1.93 11.806-1.831 4.42.11 8.458 1.225 12.153 3.329 4.84 2.756 8.692 6.981 11.85 11.694.274.407.53.805.771 1.192 2.086 3.354 3.637 6.967 4.251 10.876.55 3.503.353 7.245-.853 11.376-1.07 3.663-2.9 7.524-5.568 11.726-2.46 3.874-5.5 7.834-9.074 12.071-6.569 7.787-14.729 16.118-22.005 25.052-6.914 8.488-13.014 17.596-15.534 27.395-.93 3.71-.914 7.003-.175 9.834a14.692 14.692 0 0 0 4.045 6.944c3.82 3.683 9.163 5.004 13.684 4.621 2.47-.21 4.737-.917 6.617-2.027 2.048-1.209 3.586-2.86 4.553-4.828 1.094-2.226 1.423-4.777 1.112-7.51-.385-3.38-1.728-6.893-3.54-10.284 1.814 3.396 3.097 6.932 3.366 10.301.218 2.726-.243 5.187-1.418 7.239-1.033 1.804-2.588 3.23-4.553 4.195-1.809.889-3.942 1.372-6.208 1.385-4.227.022-8.774-1.617-11.685-4.944a11.902 11.902 0 0 1-2.782-5.808c-.408-2.27-.26-4.955.715-8.078 2.67-8.819 8.633-17.119 15.679-25.162 7.373-8.418 15.774-16.445 22.808-24.24 3.812-4.225 7.194-8.323 10.012-12.45 3.06-4.482 5.369-8.873 6.814-13.297 1.65-5.05 2.092-9.9 1.456-14.592-.703-5.195-2.68-9.827-5.185-13.856-.29-.467-.597-.942-.924-1.425-3.623-5.363-8.503-10.503-14.9-13.692-4.931-2.46-10.192-3.471-15.599-3.172-4.787.265-9.344 1.538-13.433 3.275-3.888 1.652-7.224 3.67-9.727 5.433-1.834 1.238-3.371 1.907-4.63 2.205-1.26.298-2.274.234-3.087-.043-.844-.287-1.553-.831-2.105-1.584-.575-.785-.954-1.762-1.12-2.804a7.924 7.924 0 0 1 .163-3.266c.299-1.124.84-2.11 1.574-2.873.834-.867 1.89-1.42 3.094-1.641 1.491-.273 3.09-.018 4.634.56z"/>
    </g>
</svg>
