<svg xmlns="http://www.w3.org/2000/svg" xmlns:xlink="http://www.w3.org/1999/xlink" viewBox="0 0 64 64">
    <defs>
        <linearGradient id="linearGradient4196-9" x1="-95.879" x2="-89.313" y1="1034.128" y2="1030.256" gradientTransform="translate(147.735 -427.806) scale(1.4071)" gradientUnits="userSpaceOnUse" xlink:href="#devilWings4"/>
        <linearGradient id="devilWings4">
            <stop offset="0" stop-color="#ffd5f1"/>
            <stop offset="1" stop-color="#fe99ff"/>
        </linearGradient>
        <linearGradient id="linearGradient4233-2" x1="-95.879" x2="-89.313" y1="1034.128" y2="1030.256" gradientTransform="matrix(-1.4071 0 0 1.4071 -82.88 -427.894)" gradientUnits="userSpaceOnUse" xlink:href="#devilWings4"/>
    </defs>
    <g stroke="#000">
        <path fill="url(#linearGradient4196-9)" fill-rule="evenodd" stroke-width=".5" d="M32.07 1031.177c-9.124-3.997-11.045-8.82-7.493-15.173-6.286-6.14-17.672-5.325-22.543-1.337 5.671-.864 8.71 5.565 6.25 8.457 2.96-.107 8.089 2.44 7.929 5.877 3.682-.356 6.304 2.089 6.622 4.788 2.084-2.285 5.012-1.336 6.157-.155-.587-1.907.709-3.169 3.078-2.457z" transform="translate(-.497 -990.201)"/>
        <path fill="none" stroke-width=".281" d="M24.11 25.803c-5.247-.094-13.645 3.178-16.075 6.965M23.893 26.176c-3.9 3.286-6.217 7.985-7.96 12.406M22.4 43.277c-.29-2.749-2.418-10.908 1.627-17.404M28.246 43.121c-2.345-6.082-8.644-8.712-4.447-16.696"/>
        <path fill="url(#linearGradient4233-2)" fill-rule="evenodd" stroke-width=".5" d="M32.785 1031.09c9.124-3.998 11.045-8.82 7.494-15.174 6.285-6.14 17.671-5.325 22.542-1.337-5.671-.864-8.71 5.565-6.25 8.458-2.96-.107-8.089 2.439-7.928 5.876-3.682-.356-6.305 2.09-6.623 4.788-2.084-2.285-5.012-1.336-6.157-.155.587-1.907-.709-3.169-3.078-2.457z" transform="translate(-.497 -990.201)"/>
        <path fill="none" stroke-width=".281" d="M39.75 25.715c5.248-.094 13.645 3.178 16.075 6.965M39.968 26.088c3.9 3.286 6.217 7.985 7.96 12.406M41.46 43.189c.291-2.749 2.418-10.908-1.626-17.404M35.615 43.033c2.344-6.082 8.643-8.711 4.446-16.696"/>
        <path fill="#fe99ff" fill-rule="evenodd" stroke-width=".5" d="M28.35 29.266c.483-.317.98-.543 1.525-.508-.372-.78-.616-1.57-.022-2.43-1.506.692-1.396 1.846-1.503 2.938zM35.162 29.257c-.482-.317-.98-.543-1.525-.508.373-.78.617-1.57.022-2.43 1.506.692 1.397 1.846 1.503 2.938z"/>
    </g>
</svg>
