<svg xmlns="http://www.w3.org/2000/svg" viewBox="0 0 64 64">
    <path fill="#ff8080" fill-rule="evenodd" stroke="#000" d="M28.813 42.906v1.344c-6.291 5.01-2.43 13.128 3.687 13.125 5.976 0 9.993-8.515 3.5-13.25v-1.281z"/>
    <path fill="none" stroke="#808080" stroke-opacity=".502" stroke-width="2" d="M38.438 35.375H33M38.563 28.313h-5.625M38.75 21h-5.781M38.625 13.313l-5.64-.016"/>
    <path fill="#ffd5d5" fill-rule="evenodd" d="M35.311 45.438c.866.475 1.427 1.452 1.754 2.463.05.08.098.161.145.244.584 1.026.938 2.213 1.018 2.995.181-.78.092-2.073-.296-3.305-.032-.1-.065-.2-.101-.299-.648-1.03-1.511-1.87-2.52-2.098z"/>
    <path fill="#d7eef4" fill-opacity=".251" fill-rule="evenodd" stroke="#000" d="M26.188 42.563c-6.996 6.894-2.177 17.61 6.347 17.672 8.848.063 13.696-11.073 6.09-17.422l.188-32.125c.04-6.95-12.396-6.985-12.438.062z"/>
</svg>
