<svg xmlns="http://www.w3.org/2000/svg" viewBox="0 0 64 64">
    <g stroke="#000" stroke-width=".5">
        <path fill="#ccc" fill-rule="evenodd" d="M14.833 33.032c-3.058 9.452-7.483 16.475-11.54 24.152 1.741.704 3.404 1.016 5.027 1.13 1.496.977 2.746 1.106 3.894.879 1.237.92 3.065 1.247 5.84.63.382 1.24 1.712 1.154 3.268.752 3.173.393 3.287-.18 4.397-.44 1.173.15 2.345.595 3.518-.376 1.293.233 2.461.03 3.518-.566 2.39-.386 4.117-1.103 5.086-2.199-4.242-7.925-8.733-15.832-11.493-23.871zm.679 2.196c.713 3.413-2.493 10.226-3.674 10.427.22-1.613 1.976-5.799 3.674-10.427zm6.967 1.021c1.243 2.87 2.158 9.34 1.609 10.662-1.531-1.468-2.145-7.932-1.609-10.662zm-3.822-.449c1.416 3.116-.199 8.898-1.254 11.322-1.729-2.48.73-4.81 1.254-11.322zm6.345-.35c1.136 1.888 2.53 7.192 4.01 11.277-2.82-2.159-4.093-9.579-4.01-11.277zM15.181 30.072v-1.377c-1.47-2.048-1.424-3.341-1.333-5.419 1.61-.575 2.574-2.092 2.843-4.174l2.399-2.444c-.025 2.425.052 4.833 1.999 6.929 2.048-1.335 2.767-3.78 3.331-6.352.94 2.34.936 5.39 3.065 6.84-.302 1.957-.061 3.71-1.6 6.13z"/>
        <path fill="#ff8080" stroke-linejoin="round" d="M48.94 1.209a13.8 13.828 0 0 0-13.803 13.828A13.8 13.828 0 0 0 48.94 28.865a13.8 13.828 0 0 0 13.8-13.828A13.8 13.828 0 0 0 48.94 1.21zm0 3.663a10.145 10.165 0 0 1 10.144 10.165 10.145 10.165 0 0 1-10.145 10.164 10.145 10.165 0 0 1-10.146-10.164A10.145 10.165 0 0 1 48.94 4.872z"/>
        <path fill="#ff8080" fill-rule="evenodd" d="M46.935 28.477l.01 3.606-4.986.02v3.425h4.895l.023 5.33h4.05l-.044-5.29 4.976-.04-.01-3.465h-4.966l.013-3.58"/>
    </g>
</svg>
