<svg xmlns="http://www.w3.org/2000/svg" viewBox="0 0 64 64">
    <path fill="#ff8080" stroke="#000" stroke-linecap="round" stroke-width=".73" d="M12.143 4.179l-20.48.688-6.985-19.265L.843-26.993l16.973 11.48z" transform="matrix(1.56454 .05692 -.0398 1.63199 29.686 48.596)"/>
    <g stroke="#ff2a2a">
        <path fill="none" stroke-width=".148" d="M-13.471 34.826c-.254-.804-.127-1.736-3.006-2.286M-13.662 34.403c.784-1.165 0-2.202-1.164-3.175M-13.365 34.953c.529-1.228-.275-2.074-1.884-2.9" transform="matrix(2.85312 0 0 2.85312 58.297 -63.858)"/>
        <path fill="#ff2a2a" fill-rule="evenodd" stroke-width=".275" d="M-2.55 31.884c-.232 2.603-.634 5.27-5.82 6.032-.402-.148-.698-.444-.974-.868-2.37-.148-4.021-.825-4.381-2.434-.995-.72-.656-1.058.275-1.249.656-.423 1.058-.994 2.836-1.29.784-.657 1.8-.932 3.006-.953-.317-.678-.339-1.926 1.1-1.8 1.038.106.805 1.376.085 1.969.276 0 .55.021.89.17-.17-1.038.296-2.265 2.18-2.138 1.27.084 1.29 1.502.402 2.518z" transform="matrix(2.85312 0 0 2.85312 58.297 -63.858)"/>
        <path fill="none" stroke-width=".148" d="M-13.238 34.212c-.064 1.122.19 2.307-1.863 3.598M-12.688 34.72c.677 1.545.127 2.942-.698 4.212M-13.111 33.873c.635 1.44.233 2.752-.762 4.255" transform="matrix(2.85312 0 0 2.85312 58.297 -63.858)"/>
    </g>
    <path fill="#f9f9f9" fill-rule="evenodd" d="M32.588 6.83c10.554 7.32 13.098 9.524 24.096 18.06-8.89-2.614-22.142-15.385-24.096-18.06z"/>
    <path fill-opacity=".449" fill-rule="evenodd" d="M48.529 55.968c-12.178.212-23.854.08-31.972.013-3.389-9.802-6.644-20.888-10.17-31.862 5.492 11.946 6.368 19.615 14.751 26.208 6.026 4.739 15.107 4.47 27.39 5.641z"/>
</svg>
