<svg xmlns="http://www.w3.org/2000/svg" xmlns:xlink="http://www.w3.org/1999/xlink" viewBox="0 0 64 64">
    <defs>
        <linearGradient id="linearGradient4228">
            <stop offset="0" stop-color="#f7f7ef"/>
            <stop offset=".812" stop-color="#faf7ef"/>
            <stop offset="1" stop-color="#efe7c1"/>
        </linearGradient>
        <radialGradient id="radialGradient4236" cx="109.704" cy="-5.149" r="38.243" fx="109.704" fy="-5.149" gradientTransform="matrix(.00232 .95713 -1.25581 .00305 102.983 -99.142)" gradientUnits="userSpaceOnUse" xlink:href="#linearGradient4228"/>
    </defs>
    <path fill="#c1c4c5" fill-rule="evenodd" stroke="#000" stroke-width=".6561" d="M11.023 47.354l1.64 7.674c13.502 14.531 37.292 4.766 42.412-1.348l1.875-7.44z"/>
    <path fill="url(#radialGradient4236)" fill-rule="evenodd" stroke="#000" d="M76.518 33.91c-1.25 3.505 6.014 9.007 11.34 7.59 10.9 3.898 17.863 5.11 18.303 1.875 4.897-1.188 14.199 4.794 24.821-2.768 4.623-2.763 12.604-.399 13.214-9.286 3.676-1.894 6.23-4.537 2.143-11.607 2.835-1.207-2.97-4.141-6.875-6.696-.674-1.632 2.496-2.783-10.714-5.982 1.268-2.023-5.64-3.417-10.09-5-3.777-2.69-18.033-2.655-17.142-.09-4.61 1.691-14.492 2.855-12.768 5.179-4.468 2.198-12.67 4.156-10.446 6.786-3.98 3.672-4.615 7.537-4.733 11.428-1.608 5.04.054 7.324 2.947 8.572z" transform="translate(-39.59 28.21) scale(.6561)"/>
    <path fill-rule="evenodd" d="M11.527 37.546c.766.552 1.64.813 2.235.87-.546-.27-1.259-.718-1.793-1.355zM18.503 33.257c.8.542 1.382.546 1.878.546-.487-.226-.894-.42-1.45-1.043zM10.357 50.7c1.126.31 1.765.05 2.423-.205-.75.05-1.29.051-2.19-.409zM56.518 40.775c-.924.37-2.022.674-2.923.95.926-.059 2.088-.15 3.098-.318zM30.124 56.352c-.297.04-.672.104-1.092.1-.398-.004-.817-.07-1.092-.317.205.334.614.523 1.045.642.33.09.958.188 1.103.23zM55.072 48.433c-.21.075-.67.174-1.12.252-.224.039-.446.072-.63.094a2.465 2.465 0 0 1-.419.026c.07.06.225.105.414.138.19.033.42.054.651.07.463.03.947.04 1.167.073zM18.101 55.463l.187-.27c-.583-.275-1.525-.589-2.018-1.02.346.602 1.24 1.137 1.644 1.56l.187-.27z"/>
    <path fill="none" stroke="#000" stroke-width=".32805" d="M31.78 50.814c.622 1.243 2.845 1.63 6.67 1.16 2.704.539 4.088-.332 4.308-2.444 3.69.37 5.144.106 4.97-.621M12.871 44.352c-.306.953.195 1.685 1.702 2.582.314 2.468 4.015 3.836 6.21 3.466M19.437 37.103c-.265 2.4-.382 4.711 2.816 5.054 1.11 1.243 2.488 2.082 5.344.704M38.947 42.447c2.316.839 4.763 1.982 5.799-.166 2.552-.296 3.23-1.195 2.692-2.485M26.354 35.612c-.57 1.018 3.694 2.473 4.35 1.616M38.657 37.31c5.097.145 4.437-.757 4.929-1.45M16.226 57.898l-.02-2.362M21.922 56.655l-.249 4.184M45.243 55.62c.041.165.166 4.059.166 4.059M47.19 54.377c0 .207-.083 4.39-.083 4.39M52.823 52.761l.083 2.775M38.077 57.36l-.042 4.348M18.401 55.62l-.166 3.686M29.337 57.773l-.249 4.681"/>
    <path fill="#ff24d3" fill-rule="evenodd" stroke="#000" stroke-width=".5" d="M38.856 11.573c-3.85-5.766 4.605-8.982 7.73-4.476-.911-5.41 6.97-8.437 8.448-1.472 1.134 5.343-4.691 7.408-3.57 15.562-4.286-6.92-9.61-5.121-12.608-9.614z"/>
    <path fill="#fff" fill-opacity=".785" fill-rule="evenodd" d="M54.38 7.94c-.037-3.182-2.724-6.21-6.849-3.016 2.942-4.797 8.023-1.444 6.85 3.017z"/>
    <path fill="#d42aff" fill-rule="evenodd" stroke="#000" stroke-width=".5" d="M53.361 14.42c.647-3.76 5.254-1.773 4.795 1.21 1.688-2.487 5.993-.647 3.941 2.673-1.573 2.547-4.69 1.119-7.335 4.77.91-4.382-1.905-5.723-1.4-8.652z"/>
    <path fill="#fff" fill-opacity=".785" fill-rule="evenodd" d="M61.56 18.217c.567-1.962-.272-2.887-2.08-3.029 1.876-.643 3.615.767 2.08 3.03z"/>
    <path fill="#f06" fill-rule="evenodd" stroke="#000" stroke-width=".5" d="M40.96 21.936c-2.087-2.374 1.66-4.028 3.345-2.177-.707-2.31 2.785-3.865 3.837-.899.807 2.275-1.782 3.35-.833 6.84-2.35-2.858-4.722-1.915-6.349-3.764z"/>
    <path fill="#fff" fill-opacity=".785" fill-rule="evenodd" d="M47.577 19.66c-.35-1.543-1.33-1.807-2.72-1.145 1.133-1.212 2.968-1.003 2.72 1.144z"/>
</svg>
