<svg xmlns="http://www.w3.org/2000/svg" viewBox="0 0 256 256">
    <g fill-rule="evenodd" stroke="#000" stroke-width="1.34">
        <path fill="#f55" d="M51.042 161.566C73.8 132.649 57.884 80.11 119.206 18.84c-3.571 14.883-1.672 19.523 5.273 26.285 18.503-21.707 41.38-13.894 63.887-40.032-9.741 31.298 32.515 23.628 30.474 66.598 6.616-3.993 14.407-8.049 17.862-18.43 6.796 20.061 6.31 41.287-5.032 71.672 4.71-2.01 8.707-6.379 15.39-13.184-16.996 90.185-107.816 76.141-139.917 105.562"/>
        <path fill="#f9f9f9" d="M13.34 198.896c26.386-19.849 45.332-40.033 65.284-60.173 3.943-9.024.812-18.54.89-27.833 1.975-27.006 10.74-42.79 19.923-54.702 5.217-3.834 32.256-2.575 48.385-3.862 18.91-.495 18.942 20.99 28.64 40.222.422 4.713-11.76 8.623-14.943 8.206-19.842-12.392-23.37-17.772-27.572-28.96 2.615 15.21-11.113 10.45-21.525 7.883 10.426 3.632 13.214 4.285 17.359 12.406 3.605 7.063 10.463 13.976 12.66 19.595 7.13 18.246-2.214 32.703-10.985 44.1 5.429-7.477 11.966-10.189 16.188-22.847 14.69 1.568 10.737 16.52 14.765 25.742 16.143 4.8 20.756 4.078 31.13 6.114-19.501 7.493-17.969 11.982-26.15 17.859-12.633 5.91-22.913 3.84-34.332 5.63-2.642-16.165-7.773-14.328-11.918-19.627-1.674-4.36.479-6.294.89-9.332-7.768 8.767-15.536-1.021-23.304-3.379 6.218 4.313 16.448 10.12 17.61 12.55 1.78 4.249-11.26 12.762-16.898 19.145 6.581-5.416 11.497-7.82 19.745-16.25 6.988.99 10.34 13.04 11.563 18.503-5.43 5.042-8.855 10.58-17.611 14.801l-34.688 45.05"/>
        <path fill="#f9f9f9" d="M149.91 49.735c8.87-6.616 18.877-6.989 29.433-11.49 15.778-2.16 20.33 16.603 24.78 21.615-4.35 7.457-16.322 8.083-32.2 13.31-3.936-14.021-10.263-23.251-22.013-23.435zM174.06 78.745c4.56-1.98 19.593-8.147 29.56-10.012 3.983.57 9.58 9.174 11.698 24.801-3.81 6.921-31.474 10.546-64.905 20.705-2.259-.238-12.372-15.043-10.566-22.184 6.041-2.32 10.124 8.535 21.887 11.15 3.985.583 17.52-3.145 17.861-9.785-1.794-4.891-2.547-9.783-5.535-14.675zM153.306 120.838c-.497-5.321 37.736-13.349 56.226-19.34 8.062-.754 13.082 24.649 10.943 26.052-16.663 5.962-32.228 8.282-47.924 11.035-13.437 1.556-19.622-10.58-19.245-17.747zM164.627 141.77c-2.022.859-.974 6.19 1.006 13.766 10.272 2.275 13.249 4.138 30.817 6.826 7.962-1.495 15.603-4.004 22.893-7.622 2.799.73 1.396-22.865-3.396-22.64-19.56 6.842-30.075 8.787-51.32 9.67z"/>
    </g>
</svg>
