<svg xmlns="http://www.w3.org/2000/svg" viewBox="0 0 64 64">
    <g fill="#fbfbf7" fill-rule="evenodd" stroke="#000">
        <path d="M36.23 31.038c2.28 6.382 9.869 5.264 7.85 13.873-1.883 8.027-15.708 14.095-15.317 3.502.232-6.266 3.317-16.665-1.799-15.529-4.648 1.033-4.324 5.365-8.024 5.056-2.421-.203-7.148-2.672-4.353-6.777 1.813-2.663 12.217-1.087 10.101-3.454-1.643-2.31-4.676-2.494-11.374-2.815-14.288-.686-1.501-21.326 4.693-15.334 3.84 3.715 4.82 9.85 10.308 12.093 5.311 1.43.124-8 .752-10.864 1.208-5.51 11.848-1.912 11.49.829-.38 2.891-8.486 10.112-4.506 11.11 6.543 1.625 4.637-3.705 9.546-3.318 3.812.3 9.696 10.379 3.228 12.668-6.575 2.328-14.12-5.205-12.596-1.04z" transform="matrix(.7974 0 0 .82717 6.63 4.943)"/>
        <path d="M22.272 42.833c-1.676-.537-15.04 7.717-16.075 13.003-.557 2.843 4.571 4.344 6.55 3.274C19 55.73 23.629 43.268 22.273 42.833zM42.442 16.113c.977.947 11-.754 12.605-4.313.863-1.914-2.15-4.705-3.608-4.566-4.604.44-9.787 8.113-8.997 8.88zM47.166 36.115c-.4.944 6.978 8.62 11.468 9.268 2.415.349 3.52-2.543 2.557-3.678-3.046-3.586-13.7-6.355-14.025-5.59zM5.34 41.06c2.992 3.713 8.818.923 5.028-3.83-2.75-3.45-7.833.352-5.029 3.83z" transform="matrix(.7974 0 0 .82717 6.63 4.943)"/>
    </g>
</svg>
