<svg xmlns="http://www.w3.org/2000/svg" viewBox="0 0 64 64">
    <g fill="#ff8080" fill-rule="evenodd" stroke="#000" stroke-width=".638">
        <path d="M7.977 35.933c16.415-7.646 14.33-5.077 2.235-19.72-1.79-2.168 1.798-5.635 4.465-2.982C29.682 28.163 34.307 34.19 10.1 41.5c-4.621 1.395-5.61-3.943-2.124-5.567zM28.768 6.84c7.69 16.396 5.116 14.317 19.727 2.184 2.162-1.796 5.64 1.782 2.993 4.456-14.89 15.045-20.905 19.687-28.28-4.5-1.409-4.617 3.927-5.62 5.56-2.14zM56.853 27.557c-16.448 7.576-14.352 5.016-2.32 19.711 1.78 2.175-1.822 5.627-4.477 2.963-14.942-14.996-19.541-21.043 4.696-28.25 4.627-1.375 5.593 3.967 2.1 5.576zM36.293 55.773c-7.621-16.428-5.055-14.338-19.718-2.267-2.17 1.786-5.632-1.807-2.974-4.47 14.955-14.98 20.99-19.597 28.262 4.622 1.388 4.623-3.953 5.603-5.57 2.115z"/>
    </g>
</svg>
