<svg xmlns="http://www.w3.org/2000/svg" viewBox="0 0 64 64">
    <g fill-rule="evenodd" stroke="#000">
        <path fill="#999" stroke-width=".95" d="M22.31 10.686c1.093-2.296 1.01-4.592.446-6.888 2.835.926 4.113 3.304 5.849 5.255z"/>
        <path fill="#666" stroke-width=".475" d="M24 10.507c1.251-.134 2.39.12 3.5.48-.61-2.06-1.424-3.919-3.233-4.782.216 1.434.227 2.868-.267 4.302z"/>
        <path fill="#b3b3b3" stroke-width=".95" d="M11.4 17.409c-.216 3.16 1.858 5.453 5.962 6.003 4.155.557 7.81.307 8.716 1.653.987 1.466-11.512 9.734-13.48 13.32-3.206 5.844.379 9.05 7.616 8.01 27.007-3.88 28.923-27.651 14.95-36.25-1.056-2.29-1.545-6.26-7.222-8.397.124 2.587.284 5.21.084 7.474-8.546.739-11.828 7.388-13.519 8.103-.98.414-2.05.199-3.107.084z"/>
        <path fill="#f2f2f2" stroke-width=".473" d="M11.693 42.314c2.466.042 3.796-1.647 5.812-5.239.113.987.248 1.966-.41 3.261 4.506-1.904 6.526-4.074 6.943-8.267.937 1.881.796 2.703.874 3.74 3.398-3.163 3.331-7.722 1.291-10.69-2.04 5.271-14.318 9.735-14.51 17.195z"/>
        <path fill="#2ad4ff" stroke-width=".475" d="M20.13 15.478c2.492-.517 4.584-1.733 6.634-3.023-2.248.023-3.186-.439-4.38.14-.99.481-.865 1.286-2.254 2.883z"/>
        <path fill="#666" stroke-width=".475" d="M29.317 9.112c1.39-.15 2.656.134 3.89.535-.679-2.291-1.583-4.355-3.593-5.314.24 1.593.251 3.186-.297 4.78z"/>
        <path fill="#b3b3b3" stroke-width=".95" d="M54.376 62.156c8.128-6.985 5.524-23.19-4.63-23.275-11.167-.093-18.738 10.14-29.57 10.806-4.677.287-8.216-1.252-10.212-4.869.588 6.191 3.02 16.31 12.706 17.1 12.587 1.026 17.763-6.954 27.788-7.006 4.755-.025 4.023 4.198 3.918 7.244z"/>
        <path fill="#f2f2f2" stroke-width=".5" d="M45.525 52.462c4.783-.654 10.207-.685 10.389 3.997 2.745-7.514.747-13.205-5.514-14.56 1.136 1.318 2.044 2.598 2.187 3.75-1.898.509-3.2.62-4.625.813.754 1.025 1.509 2.05 2.75 2.75-1.866.946-3.469 2.156-5.187 3.25z"/>
    </g>
</svg>
