<?xml version="1.0" encoding="UTF-8"?>
<svg version="1.1" viewBox="0 0 64 64" xmlns="http://www.w3.org/2000/svg" xmlns:cc="http://creativecommons.org/ns#" xmlns:dc="http://purl.org/dc/elements/1.1/" xmlns:rdf="http://www.w3.org/1999/02/22-rdf-syntax-ns#">
 <metadata>
  <rdf:RDF>
   <cc:Work rdf:about="">
    <dc:format>image/svg+xml</dc:format>
    <dc:type rdf:resource="http://purl.org/dc/dcmitype/StillImage"/>
    <dc:title/>
   </cc:Work>
  </rdf:RDF>
 </metadata>
 <path d="m54.53 41.02-4.905 12.104c-5.013 12.37 14.945 11.683 10.046 0.078zm-10.506-19.062-4.904 12.102c-5.013 12.37 14.945 11.683 10.046 0.078zm10.423-17.721-4.904 12.103c-5.013 12.37 14.944 11.683 10.046 0.078z" fill="#f9f9f9" fill-rule="evenodd" stroke="#000" stroke-width=".633"/>
 <g transform="translate(.52733 -3.931)">
  <g stroke="#000">
   <path d="m41.258 16.86c-1.9368 7.8404-8.3574 11.047-12.586 13.14-4.6924 0.13998-7.1174-0.15604-14.807-0.49356-4.7328-2.0346-9.0483-4.0007-12.286-12.385" fill="#808080" stroke-width=".59049"/>
   <path d="m28.671 29.999c-1.382 2.0552-2.764 3.1268-4.146 3.4906-1.8613 1.6095-3.7456 1.5143-5.8241 0.31734-1.5773-0.70642-3.3652-1.6413-4.837-4.6013 0.94866-1.885 13.903-2.9365 14.807 0.79336z" fill="#666" stroke-width=".74861"/>
   <path d="m24.94 32.836c-0.3156 4.5159-0.98513 7.8634-1.4216 10.32-0.6046 3.4029-4.9667 2.727-5.6366 0.54113-0.79526-2.5948-0.78502-6.2889-0.32902-10.355 0.90318-2.005 5.8349-1.7735 7.3872-0.50636z" fill="#4d4d4d" stroke-width=".66502"/>
   <ellipse cx="20.703" cy="44.679" rx="1.1389" ry=".32706" fill="#1a1a1a" fill-opacity=".50196" stroke-linecap="round" stroke-linejoin="round" stroke-width=".42567"/>
  </g>
  <path d="m1.5786 17.122c1.6406-0.0014 4.9096 0.058 8.8967 0.12415 4.0428 0.06709 8.0864 0.1274 10.828 0.13562 0.37328 0.0012 0.71193 0.0012 1.0107 1.24e-4 2.0638-0.0074 6.0952-0.09256 9.9885-0.20857 2.733-0.08144 6.2217-0.23142 8.9545-0.31286-1.736 0.05242-4.926 0.06441-8.9577 0.04385-3.8548-0.01966-7.9526-0.06774-9.9872-0.06047-0.2986 0.0011-0.63738 0.0034-1.0104 0.0068-2.297 0.02066-7.2276 0.09793-10.827 0.15344-3.8041 0.05867-7.4389 0.11672-8.8967 0.11799z" stroke-width=".6561"/>
 </g>
</svg>
