<svg xmlns="http://www.w3.org/2000/svg" viewBox="0 0 64 64">
    <g fill-rule="evenodd">
        <path fill="#ff2a2a" stroke="#000" d="M31.458 62.664C18.217 50.07 8.353 33.714 8.511 13.236c3.163-.046 14.503-5.503 22.866-11.77a107.572 107.572 0 0 0 5.367 3.46l-1.168 12.4-10.18 13.766L23.47 50.18l11.405-15.514L48.663 24.65l2.748-12.35c1.083.386 1.948.617 2.525.667.041 20.617-9.253 36.174-22.478 49.697z"/>
        <path fill="#fff" fill-opacity=".785" d="M31.695 2.596a35.365 35.365 0 0 1 4.145 2.817s-.392 5.541-.978 11.289c.492-10.36-.255-11.398-3.167-14.106z"/>
        <path fill-opacity=".15" d="M8.73 13.492c3.704-.949 16.199-7.336 22.592-11.806-.022 4.412.073 12.073.166 20.99l-6.148 8.422-1.858 18.67 8.144-10.605c.044 8.289.036 16.646-.096 23.825C10.956 41.402 8.675 24.036 8.73 13.492z"/>
        <path fill="#fff" fill-opacity=".785" d="M51.804 13.176l1.378.573s.087 6.01-1.53 12.842c.626-8.597.854-12.148.152-13.415z"/>
    </g>
</svg>
