<svg xmlns="http://www.w3.org/2000/svg" viewBox="0 0 64 64">
    <g stroke="#000" transform="translate(0 -988.362)">
        <path fill="#ff8080" fill-rule="evenodd" d="M31.956 1049.014c-18.037-.247-28.322-15.133-28.332-28.383-.01-13.438 10.516-28.427 28.373-28.638 13.69-.162 27.515 10.106 28.284 29.787.035.912 2.74 0 2.74 0l-4.066 6.43-4.11-6.563s2.833.909 2.74 0c-1.727-16.859-12.834-26.286-25.544-26.251-14.434.04-24.912 13.01-24.882 25.323.03 12.125 8.548 23.406 24.973 24.98.763.073.59 3.326-.176 3.315z"/>
        <path fill="#faa" fill-rule="evenodd" stroke-width=".907" d="M21.604 1033.976s12.878-8.98 13.598-10.385c.88-1.715.24-25.221.24-25.221.01-1.007-5.52-1.135-5.518-.22 0 0 .572 22.35.065 22.975-.862 1.066-11.635 9.066-11.635 9.066-.675.587 2.197 4.684 3.25 3.785z"/>
        <path fill="#ff2a2a" fill-rule="evenodd" d="M43.352 1023.3c1.22-2.04 6.064-2 7.523-.125 1.229 1.578-.597 18.093-1.868 18.842-1.197.705-2.438.566-3.204.08-1.33-.84-3.345-17.302-2.45-18.797z"/>
        <ellipse cx="47.281" cy="1047.55" fill="#ff2a2a" stroke-linecap="round" stroke-linejoin="round" rx="3.281" ry="3.125"/>
    </g>
</svg>
