<svg xmlns="http://www.w3.org/2000/svg" viewBox="0 0 64 64">
    <g stroke="#000" stroke-width=".5">
        <path fill="#7362ec" stroke-linecap="round" d="M42.016 4.215A17.075 17.107 0 0 0 24.94 21.32a17.075 17.107 0 0 0 17.075 17.108A17.075 17.107 0 0 0 59.092 21.32 17.075 17.107 0 0 0 42.016 4.215zm0 3.285a13.796 13.822 0 0 1 13.797 13.82 13.796 13.822 0 0 1-13.797 13.823A13.796 13.822 0 0 1 28.219 21.32 13.796 13.822 0 0 1 42.016 7.5z"/>
        <path fill="#ebefef" fill-rule="evenodd" d="M19.236 37.59s-.298-1.633 1.45-3.461c1.752-1.834 5.941-2.691 6.607-1.907.687.81-1.303 4.447-3.326 5.592-2.322 1.315-3.938.818-3.938.818s-2.93 1.25-4.412 3.553c-1.269 1.97.208 3.942-.93 5.99-1.184 2.136-5.388 1.899-7.238 3.494-2.335 2.013-.994 5.666-3.001 10.714 1.283-4.862-.139-9.324 2.27-11.202 1.86-1.451 5.85-1.366 6.959-3.45 1.06-1.992-.435-3.85.795-5.742 1.648-2.532 4.764-4.399 4.764-4.399z"/>
        <path fill="#4836c9" fill-rule="evenodd" d="M47.91 11.38c1.472 1.032 2.786 2.296 3.874 3.885l-5.979 6.014 5.926 5.846a15.138 15.138 0 0 1-3.809 3.93l-5.882-5.868-5.923 6.025c-1.465-1.105-2.86-2.314-3.973-3.942l5.967-5.914-6.146-6.09c1.07-1.574 2.413-2.833 3.92-3.907l6.141 6.071z"/>
    </g>
</svg>
