<svg xmlns="http://www.w3.org/2000/svg" viewBox="0 0 64 64">
    <g stroke="#000" transform="translate(-233.345 -1.768)">
        <ellipse cx="258.105" cy="21.747" fill="#ffc100" stroke-linecap="round" stroke-linejoin="round" stroke-width=".965" rx="15.886" ry="15.715"/>
        <path fill="#939dac" fill-rule="evenodd" stroke-width=".653" d="M290.448 29.632c6.23-.036 6.072-11.06-2.289-10.827 1.628-5.456-5.189-7.394-7.765-4.446-.297-5.691-9.808-9.162-13.18-1.498-14.594-2.294-13.675 16.982-3.882 16.926z"/>
        <path fill="#dbdee3" fill-rule="evenodd" stroke-width=".847" d="M244.913 42.602c-8.147-.046-7.94-14.257 2.992-13.955-2.128-7.034 6.784-9.532 10.153-5.732.388-7.335 12.824-11.81 17.232-1.93 19.081-2.958 17.88 21.889 5.076 21.817z"/>
        <path fill="#59f" fill-rule="evenodd" stroke-width=".45" d="M248.857 51.177c2.973 2.275 3.59-3.485 4.6-6.01-2.187 1.647-7.104 4.094-4.6 6.01zM268.847 51.591c2.973 2.275 3.589-3.485 4.599-6.009-2.187 1.646-7.104 4.093-4.6 6.009zM257.372 56.766c2.973 2.275 3.589-3.485 4.599-6.009-2.187 1.646-7.104 4.093-4.6 6.009zM237.797 56.091c2.973 2.275 3.589-3.485 4.599-6.009-2.187 1.646-7.104 4.093-4.6 6.009zM275.934 57.778c2.973 2.275 3.59-3.484 4.6-6.008-2.187 1.645-7.104 4.092-4.6 6.008zM244.772 62.053c2.973 2.275 3.589-3.484 4.599-6.008-2.187 1.645-7.104 4.092-4.6 6.008zM266.147 62.616c2.973 2.275 3.589-3.485 4.599-6.009-2.187 1.646-7.104 4.093-4.6 6.009z"/>
    </g>
</svg>
