<svg xmlns="http://www.w3.org/2000/svg" xmlns:xlink="http://www.w3.org/1999/xlink" viewBox="0 0 100 100">
    <defs>
        <linearGradient id="linearGradient980">
            <stop offset="0" stop-color="#fca"/>
            <stop offset="1" stop-color="#ffb380"/>
        </linearGradient>
        <linearGradient id="innoGrad1">
            <stop offset="0" stop-color="#f55"/>
            <stop offset="1" stop-color="#faa"/>
        </linearGradient>
        <linearGradient id="linearGradient881" x1="121.471" x2="120.692" y1="120.364" y2="113.285" gradientTransform="scale(.38714) rotate(-5.205 5996.64 887.115)" gradientUnits="userSpaceOnUse" xlink:href="#innoGrad1"/>
        <linearGradient id="linearGradient899" x1="172.07" x2="179.933" y1="122.436" y2="103.501" gradientTransform="scale(.38714) rotate(-5.205 5996.64 887.115)" gradientUnits="userSpaceOnUse" xlink:href="#innoGrad1"/>
        <linearGradient id="linearGradient907" x1="14.25" x2="16.544" y1="232.347" y2="227.811" gradientTransform="scale(1.46322) rotate(-5.205 -578.19 332.59)" gradientUnits="userSpaceOnUse" xlink:href="#innoGrad1"/>
        <linearGradient id="linearGradient982" x1="134.464" x2="96.964" y1="69.917" y2="163.667" gradientTransform="scale(.38714) rotate(-5.205 5996.64 887.115)" gradientUnits="userSpaceOnUse" xlink:href="#linearGradient980"/>
        <linearGradient id="linearGradient982-5" x1="110.749" x2="113.569" y1="79.546" y2="174.596" gradientTransform="matrix(.3488 .16798 -.16798 .3488 48.706 -15.065)" gradientUnits="userSpaceOnUse" xlink:href="#linearGradient980"/>
        <linearGradient id="linearGradient881-9" x1="121.471" x2="120.692" y1="120.364" y2="113.285" gradientTransform="matrix(.3488 .16798 -.16798 .3488 48.706 -15.065)" gradientUnits="userSpaceOnUse" xlink:href="#innoGrad1"/>
        <linearGradient id="linearGradient899-1" x1="178.153" x2="180.099" y1="124.974" y2="104.512" gradientTransform="matrix(.3488 .16798 -.16798 .3488 48.706 -15.065)" gradientUnits="userSpaceOnUse" xlink:href="#innoGrad1"/>
        <linearGradient id="linearGradient907-9" x1="15.706" x2="15.838" y1="232.742" y2="227.175" gradientTransform="scale(1.46322) rotate(25.715 469.3 167.72)" gradientUnits="userSpaceOnUse" xlink:href="#innoGrad1"/>
        <linearGradient id="linearGradient1225" x1="121.471" x2="120.692" y1="120.364" y2="113.285" gradientTransform="matrix(.3488 .16798 -.16798 .3488 48.706 -15.065)" gradientUnits="userSpaceOnUse" xlink:href="#innoGrad1"/>
        <linearGradient id="linearGradient1227" x1="121.471" x2="120.692" y1="120.364" y2="113.285" gradientTransform="matrix(.3488 .16798 -.16798 .3488 48.706 -15.065)" gradientUnits="userSpaceOnUse" xlink:href="#innoGrad1"/>
    </defs>
    <path fill="url(#linearGradient907)" d="M5.578 253.086c-1.596.127-3.006 1.403-3.362 2.967-.35 1.38.182 2.932 1.315 3.798 1.177.99 2.767 1.171 4.115.45 1.212-.622 2.181-1.963 2.178-3.335-.024-.615-.04-1.248-.35-1.792-.707-1.385-2.353-2.288-3.896-2.088z" transform="translate(0 -197)"/>
    <path fill="url(#linearGradient899)" d="M50.63 243.627c-1.799.174-3.206 1.664-3.517 3.274.524.684.603 1.54.518 2.456.204.51.808.85 1.224 1.188 1.415.99 3.473.85 4.76-.294.936-.799 1.477-2.057 1.294-3.288-.13-1.563-1.39-2.905-2.902-3.253-.448-.12-.918-.126-1.377-.083z" transform="translate(0 -197)"/>
    <path fill="url(#linearGradient881)" d="M46.133 247.102c-.154.766-.545 1.879-.952 2.754.76-.158 1.787-.362 2.45-.5.206-.111.021-.595.049-.788-.045-.539-.183-1.252-.567-1.667-.324.014-.687.143-.98.201zm-3.378.697l-30.352 6.256a9.887 9.887 0 0 0 2.352 1.976l26.617-5.4c.637-.956 1.208-2.09 1.383-2.832zm-33.552 6.929c-.028.013-.008.097.096.09-.045-.08-.079-.098-.096-.09zm.096.09c.167.603.355 1.663.373 2.266l1.266-.262c-.057-.054-.119-.107-.173-.161a9.927 9.927 0 0 1-1.447-1.848l-.02.004z" transform="translate(0 -197)"/>
    <path fill="#ffb380" d="M10.929 59.833c.051 2.437 1.527 2.854 2.082 1.586z"/>
    <path fill="url(#linearGradient982)" d="M35.04 236.235c-2.755.234-5.32 1.688-7.167 3.697-.73.763-1.3 1.744-2.063 2.471-.345.166-.692-.146-1.01-.25-1.804-.912-3.742-1.755-5.777-1.9-1.227-.071-2.479.054-3.683.294-2.056.495-4.097 1.487-5.564 3.026-1.49 1.6-2.242 3.988-2.092 6.15.149 2.645 1.346 5.253 3.254 7.099 1.994 1.788 4.413 2.933 6.84 4.004a63.938 63.938 0 0 0 10.596 3.395c1.006.19 2.18.473 3.212.414.869-.055 1.453-.718 2.139-1.189 2.41-1.865 4.47-4.161 6.454-6.466 2.006-2.396 4.087-4.94 5.335-7.825.99-2.248 1.093-4.854.1-7.127-1.208-2.838-4.08-4.978-7.05-5.629a9.865 9.865 0 0 0-3.524-.164zm.3 3.06c1.868-.125 3.753.021 5.382 1.05 1.421.87 2.203 2.385 2.307 4.03.141 1.34-.081 2.656-.423 3.952-.584 1.612-1.605 2.9-2.661 4.224-2.435 2.92-5.134 5.545-8.034 7.992-.414.31-.802.645-1.3.812-1.224-.158-2.432-.527-3.628-.839-3.712-1.06-7.403-2.192-10.921-3.792-1.386-.624-2.716-1.338-3.684-2.53-1.088-1.31-1.809-2.923-1.849-4.65-.13-1.936.854-3.812 2.474-4.873 1.73-1.167 3.836-1.532 5.89-1.45 1.722.111 3.342.696 4.867 1.47.754.339 1.523.843 2.33 1.057.546.103.916-.531 1.229-.867 1.215-1.524 2.32-3.132 3.983-4.207 1.167-.788 2.635-1.263 4.037-1.38z" transform="translate(0 -197)"/>
    <path fill="#ffb380" d="M45.18 52.856l-.866 1.63c.15.518.658.566.952.409.788-.245.414-1.38.343-2.15l-.428.11zM53.696 40.767c-.217.787.273 1.699.826 1.626 0 0-.655-1.528-.826-1.626z"/>
    <g>
        <path fill="none" stroke="#000" stroke-linecap="round" stroke-linejoin="round" stroke-width=".219" d="M47.631 52.357c.768 1.331 2.223 2.07 3.782 1.93 2.191-.2 3.81-2.1 3.614-4.244-.195-2.144-2.13-3.721-4.322-3.522-1.853.17-3.345 1.573-3.592 3.38"/>
        <path fill="none" stroke="#000" stroke-width=".219" d="M35.444 39.142c-6.349.433-9.123 6.103-9.767 6.215-.644.112-4.408-3.014-9.888-1.922-10.318 2.057-9.34 11.925-5.024 16.226 4.317 4.3 18.422 8.297 20.876 7.959 2.454-.338 13.332-11.254 14.486-17.48 1.25-6.741-4.685-11.408-10.683-10.998zm-.105 3.153c6.142-.407 8.65 2.922 7.404 8.57-.947 4.292-11.51 13.47-12.104 13.533-.594.065-13.167-3.31-16.651-5.86-4.788-3.506-4.98-10.711 2.191-12.097 5.471-1.058 8.893 2.536 10.147 2.336 1.255-.2 3.264-6.102 9.013-6.482z"/>
        <circle cx=".49" cy="60.166" r="3.833" fill="none" stroke="#000" stroke-width=".219" transform="rotate(-5.205)"/>
        <path fill="none" stroke="#000" stroke-width=".219" d="M47.113 49.9l-.98.202-.006.038c-.154.833-.487 1.751-.946 2.716l2.45-.5c.155-.676-.013-1.888-.518-2.455zM42.755 50.799l-30.352 6.256a8.98 8.98 0 0 0 1.585 1.482c.226.166.494.335.791.507l26.593-5.413c.698-1.029 1.197-1.98 1.37-2.767.006-.022.008-.043.013-.065zM9.736 60.075l1.206-.25"/>
        <path fill="none" stroke="#000" stroke-width=".219" d="M45.61 52.745c.476 1.691.083 2.232-.582 2.291-.665.06-.714-.55-.714-.55M10.929 59.833c.085 1.756.393 2.298 1.234 2.22.84-.079.848-.634.848-.634"/>
        <path fill="#fff" d="M7.043 56.63c-.927-.287-1.789.094-1.789.094s.914-.097 1.71.158c.145.046.278.104.401.173.723.394 1.264 1.153 1.264 1.153s-.293-.909-1.135-1.385a2.418 2.418 0 0 0-.451-.193zM51.968 47.198c-.927-.287-1.789.094-1.789.094s.913-.097 1.71.158c.145.046.278.104.401.173.723.395 1.264 1.154 1.264 1.154s-.293-.91-1.135-1.385a2.418 2.418 0 0 0-.451-.194zM24.62 63.105a207.352 207.352 0 0 0-3.253-.936 39.007 39.007 0 0 0 3.895 1.334c1.48.431 2.994.739 2.994.739s-1.46-.5-2.939-.931c-.235-.069-.468-.137-.698-.206zM19.423 43.672c-2.096-.26-4.07.37-4.07.37s2.018-.425 4.046-.172c.287.036.578.085.874.148 2.039.432 3.887 1.443 3.887 1.443s-1.747-1.193-3.845-1.639c-.302-.064-.6-.114-.892-.15zM38.987 39.916c-2.01-.595-4.01-.24-4.01-.24s2.014-.143 3.953.432c.254.075.506.16.757.257 1.578.607 2.982 1.58 2.982 1.58s-1.282-1.14-2.91-1.767a10.3 10.3 0 0 0-.772-.262z"/>
        <path fill="url(#linearGradient907-9)" d="M49.662 34.596c-.891.1-1.754.503-2.379 1.155-1.01 1.003-1.35 2.609-.823 3.934.5 1.454 1.772 2.426 3.299 2.5 1.36.09 2.88-.563 3.583-1.742.077-.14.154-.283.228-.427a10.77 10.77 0 0 1-.292-3.727c-.396-.59-.941-1.075-1.586-1.356a3.65 3.65 0 0 0-2.03-.337z"/>
        <path fill="url(#linearGradient899-1)" d="M94.416 49.156c-1.632-.775-3.605-.22-4.7 1 .099.858-.273 1.632-.817 2.374-.087.542.257 1.144.44 1.648.705 1.576 2.543 2.514 4.235 2.194 1.213-.204 2.323-1.006 2.799-2.155.691-1.41.3-3.207-.818-4.283-.323-.332-.723-.58-1.139-.778z"/>
        <path fill="url(#linearGradient881-9)" d="M88.772 49.826c-.525.578-1.432 1.332-2.23 1.873.732.256 1.718.608 2.357.831.234.01.325-.5.447-.651.239-.486.487-1.169.37-1.722-.284-.153-.662-.23-.944-.33z"/>
        <path fill="url(#linearGradient1227)" d="M85.517 48.688L56.263 38.46a9.887 9.887 0 0 0 1.003 2.903l25.609 9.044c1.038-.493 2.11-1.172 2.642-1.719z"/>
        <path fill="url(#linearGradient1225)" d="M53.173 37.392c-.031-.003-.057.08.036.126.002-.09-.018-.123-.036-.126z"/>
        <path fill="url(#linearGradient982-5)" d="M84.84 34.804c-2.484-1.215-5.43-1.286-8.048-.512-1.017.28-2.011.829-3.04 1.06-.38-.035-.518-.48-.736-.734-1.08-1.709-2.31-3.428-3.981-4.597-1.016-.692-2.154-1.228-3.31-1.64-2.019-.633-4.28-.831-6.33-.264-2.1.608-3.972 2.27-4.954 4.202-1.231 2.344-1.544 5.197-.856 7.761.792 2.559 2.279 4.784 3.81 6.95a63.937 63.937 0 0 0 7.346 8.357c.765.68 1.628 1.527 2.543 2.006.774.398 1.616.13 2.446.079 3.025-.363 5.973-1.273 8.86-2.23 2.95-1.026 6.044-2.14 8.596-3.973 2.004-1.42 3.433-3.602 3.748-6.063.423-3.055-.941-6.366-3.156-8.451a9.865 9.865 0 0 0-2.937-1.951zm-1.315 2.778c1.667.854 3.209 1.948 4.078 3.667.772 1.477.664 3.178-.091 4.643-.569 1.222-1.435 2.237-2.395 3.173-1.329 1.082-2.866 1.662-4.453 2.256-3.588 1.253-7.253 2.119-10.998 2.729-.515.053-1.02.14-1.533.028-.969-.765-1.816-1.702-2.682-2.584-2.639-2.817-5.224-5.685-7.42-8.865-.868-1.247-1.642-2.544-1.86-4.064-.261-1.682-.05-3.436.803-4.939.883-1.727 2.691-2.832 4.626-2.909 2.084-.112 4.079.657 5.799 1.783 1.42.98 2.509 2.314 3.42 3.76.472.68.873 1.507 1.455 2.105.415.37 1.058.015 1.5-.112 1.826-.683 3.6-1.494 5.578-1.562 1.406-.077 2.91.27 4.173.891z"/>
        <path fill="#ffb380" d="M86.541 51.7l-1.84 1.061c-.137.522.358.685.691.7.894.004 1.68-.84 2.016-1.538l-.867-.224z"/>
        <path fill="none" stroke="#000" stroke-linecap="round" stroke-linejoin="round" stroke-width=".219" d="M88.9 52.53c-.026 1.537.842 2.919 2.252 3.6 1.983.954 4.347.156 5.282-1.784.934-1.94.084-4.287-1.899-5.242-1.677-.807-3.678-.37-4.818 1.053"/>
        <path fill="none" stroke="#000" stroke-width=".219" d="M85.235 34.931c-5.67-2.89-10.963.548-11.573.313-.61-.234-2.233-4.85-7.496-6.73-9.908-3.537-14.14 5.431-12.647 11.339 1.494 5.908 11.54 16.584 13.82 17.555 2.28.97 17.22-2.804 21.41-7.552 4.535-5.141 1.842-12.194-3.514-14.925zm-1.71 2.651c5.478 2.808 5.918 6.952 1.948 11.156-3.018 3.196-16.795 5.642-17.338 5.391-.543-.25-9.595-9.604-11.274-13.584-2.306-5.467 1.232-11.747 8.096-9.251 5.237 1.904 6.325 6.745 7.505 7.218 1.18.473 5.936-3.558 11.063-.93z"/>
        <path fill="none" stroke="#000" stroke-width=".219" d="M49.6 34.615a3.833 3.833 0 0 0-1.197 7.258c1.907.92 4.247.109 5.166-1.799-.384-1.499-.388-2.635-.295-3.743a3.833 3.833 0 0 0-1.544-1.365 3.833 3.833 0 0 0-2.13-.35zM89.717 50.157l-.945-.33-.024.029c-.56.635-1.318 1.252-2.207 1.843l2.358.831c.481-.5.96-1.626.818-2.373zM85.517 48.688L56.263 38.46a8.98 8.98 0 0 0 .598 2.085c.11.259.252.542.42.841l25.594 9.02c1.128-.522 2.045-1.082 2.598-1.668.016-.016.028-.033.044-.05z"/>
        <path fill="none" stroke="#000" stroke-width=".219" d="M87.408 51.923c-.801 1.38-1.575 1.661-2.152 1.517-.578-.143-.556-.679-.556-.679"/>
        <path fill="#fff" d="M60.671 46.413a207.356 207.356 0 0 0-2.176-2.591 39.007 39.007 0 0 0 2.487 3.28 42.427 42.427 0 0 0 2.073 2.284s-.933-1.23-1.92-2.412l-.464-.56z"/>
        <path fill="none" stroke="#000" stroke-width=".387" d="M53.682 40.413l-.3-.07"/>
        <path fill="#fff" d="M51.13 35.266c-.927-.287-1.789.095-1.789.095s.913-.097 1.71.158c.145.046.278.104.401.172.723.395 1.264 1.154 1.264 1.154s-.293-.909-1.135-1.385a2.418 2.418 0 0 0-.451-.194zM93.642 49.235c-.922-.22-1.78.113-1.78.113s.902-.055 1.718.144c.155.038.3.086.434.144.799.337 1.435 1.042 1.435 1.042s-.408-.885-1.33-1.285a2.972 2.972 0 0 0-.477-.158zM66.08 28.903c-2.009-.767-4.14-.824-4.14-.824s2.11.261 4.07 1.01c.277.107.557.225.838.356 1.89.882 3.503 2.228 3.503 2.228s-1.478-1.503-3.419-2.41a12.877 12.877 0 0 0-.851-.36zM85.044 35.255c-1.852-.989-3.874-1.015-3.874-1.015s1.994.238 3.78 1.191c.232.124.462.258.689.401 1.434.907 2.688 2.083 2.688 2.083s-1.11-1.32-2.582-2.252c-.23-.145-.464-.282-.701-.408z"/>
        <path fill="none" stroke="#000" stroke-width=".265" d="M53.682 40.413c-.171 1.045.152 2.037.84 1.98"/>
    </g>
</svg>
