<svg cursor="default" version="1.1" viewBox="0 0 256 256" xmlns="http://www.w3.org/2000/svg" xmlns:xlink="http://www.w3.org/1999/xlink">
 <defs>
  <linearGradient id="innoGrad0">
   <stop stop-color="#ffd5d5" offset="0"/>
   <stop stop-color="#faa" offset="1"/>
  </linearGradient>
  <linearGradient id="innoGrad3">
   <stop stop-color="#faa" offset="0"/>
   <stop stop-color="#ff8080" offset="1"/>
  </linearGradient>
  <linearGradient id="linearGradient2243" x1="184.92" x2="188.9" y1="54.298" y2="99.937" gradientUnits="userSpaceOnUse" xlink:href="#innoGrad3"/>
  <linearGradient id="linearGradient2259" x1="151.71" x2="159.9" y1="64.792" y2="113.5" gradientUnits="userSpaceOnUse" xlink:href="#innoGrad0"/>
  <linearGradient id="linearGradient2267" x1="195.29" x2="163.21" y1="149.84" y2="123.38" gradientUnits="userSpaceOnUse" xlink:href="#innoGrad0"/>
  <linearGradient id="linearGradient2275" x1="145.12" x2="156.11" y1="227.48" y2="185.29" gradientUnits="userSpaceOnUse" xlink:href="#innoGrad0"/>
  <linearGradient id="linearGradient2283" x1="80.144" x2="112.32" y1="225.12" y2="140.51" gradientUnits="userSpaceOnUse">
   <stop stop-color="#ff8080" offset="0"/>
   <stop stop-color="#f55" offset="1"/>
  </linearGradient>
  <linearGradient id="linearGradient1002" x1="12.736" x2="-85.368" y1="150.76" y2="233.69" gradientUnits="userSpaceOnUse" xlink:href="#innoGrad0"/>
  <linearGradient id="linearGradient1002-1" x1="12.736" x2="-37.325" y1="150.76" y2="194.07" gradientTransform="matrix(1.4512 0 0 1.4234 139.23 -82.354)" gradientUnits="userSpaceOnUse" xlink:href="#innoGrad3"/>
 </defs>
 <ellipse transform="matrix(.81107 -.58495 .58114 .8138 0 0)" cx="118.92" cy="169.6" rx="48.779" ry="51.631" fill="url(#linearGradient1002-1)" stroke="#000" stroke-linecap="round" stroke-width="1.538"/>
 <path d="M58.883 59.093l-11.24 13.163c-.16 9.897 2.029 22.46 5.69 35.305-13.65-.014-26.648 1.362-36.304 4.315l-9.532 14.449 6.67 16.3c7.406 7.22 23.309 15.49 38.103 16.41 2.472-.01 3.073 1.753 1.69 3.377-9.001 8.766-15.886 22.546-17.19 32.26l11.377 18.257 18.076 4.687c9.96-4.73 20.164-13.422 29.575-25.508.943-1.246 2.648-1.46 3.559.625 5.916 14.92 13.409 25.966 19.403 36.699l16.562 5.993 18.944-11.794c4.494-17.196 1.246-39.025-3.265-61.91l22.618 15.88 3.448-16.134 12.6-16.083c-6.627-5.812-28.837-15.438-27.065-27.52 5.516-37.61-5.432-50.468-31.415-46.285-35.73 17.944-39.235.062-49.085-11.423z" fill="url(#linearGradient2283)" stroke="#000" stroke-width="1.5"/>
 <g transform="matrix(1.2736 -.73896 .75636 1.3804 88.649 -15.782)">
  <ellipse cx="-50.049" cy="131.55" rx="16.87" ry="17.031" fill="#f95" stroke="#000" stroke-linecap="round" stroke-width=".519"/>
  <ellipse cx="-50.057" cy="131.58" rx="15.226" ry="15.371" fill="#ffe6d5" stroke="#000" stroke-linecap="round" stroke-width=".469"/>
  <g fill-rule="evenodd">
   <g stroke="#000" stroke-width=".3">
    <path d="M-53.609 138.382c.107.265-.284 7.96-.284 7.96 2.337.731 4.675.632 7.012.115l-.978-8.37z" fill="#ffb380"/>
    <path d="M-44.336 135.032l8.993-.186c.285-2.189.746-4.353-.023-6.685l-9.08.108z" fill="#fca"/>
    <path d="M-47.332 124.447l.172-7.816c-2.24-.38-4.19-.323-5.932.046l-.313 7.605z" fill="#ffb380"/>
    <path d="M-57.483 134.605l-7.378.25c-.422-2.194-.48-4.45-.002-6.793l7.109-.076z" fill="#ffe6d5"/>
    <path d="M-53.453 124.171l-4.373 3.697.3 6.755 3.603 3.753 6.434-.044 3.153-3.3-.11-6.763-2.549-4.095z" fill="#ffe6d5"/>
    <path d="M-53.875 138.517c.266-.212 2.907-6.222 2.907-6.222l-6.461 2.293-5.146 5.472c1.012 1.433 1.961 2.883 4.091 4.025z" fill="#fca"/>
    <path d="m-50.722 132.11c0-0.108 3.43-7.857 3.43-7.857l3.98-6.312c2.764 1.53 4.99 3.438 6.341 5.958l-7.657 4.453z" fill="#ffb380"/>
    <path d="M-50.855 132.086c-.133-.027-7.057-4.277-7.057-4.277l-4.189-5.586c1.429-1.506 2.676-3.112 5.016-4.113l3.703 6.084z" fill="#fca"/>
    <path d="m-50.578 132.38 2.72 5.704 5.45 6.673c2.254-1.355 3.916-3.016 5.018-4.971l-7.234-5.104z" fill="#ffb380"/>
   </g>
   <path d="M-60.76 121.702a55.227 55.227 0 0 1 1.873 3.083c.44.785.79 1.466 1.265 2.34l.74-.424.621-.586c-.71-.724-1.285-1.242-1.948-1.862a49.719 49.719 0 0 1-2.552-2.55zm8.845-4.718c-.207.735-.424 1.7-.638 2.709l.046.444c.118 1.175.247 2.375.405 3.302.158-.932.383-2.34.541-3.271l.076-.438c-.143-1.018-.282-1.996-.43-2.746zM-64.37 129.11c.815-.04 1.824-.26 2.798-.502l.213-.052c.942.136 1.914.251 2.675.45-.762.198-1.659.48-2.598.74a59.368 59.368 0 0 1-.222-.026c-1.041-.123-2.085-.282-2.866-.61zm12.444 10.292a19.776 19.776 0 0 0-.398 1.382c-.107.41-.216.854-.327 1.31l.07.453c.095.613.188 1.228.284 1.78.096.55.195 1.04.302 1.396.107-.357.22-.836.338-1.383.117-.547.238-1.157.356-1.768l.088-.453a41.154 41.154 0 0 0-.291-1.33c-.132-.549-.273-1.04-.422-1.387zm9.794 4.135a57.455 57.455 0 0 1-.923-1.372c-.36-.547-.758-1.161-1.15-1.77a528.203 528.203 0 0 1-1.116-1.744l-.467-.73-.13-.205c-.289.036-.573.09-.83.172-.1.265-.188.501-.28.783a16.724 16.724 0 0 1 .77.729c.434.437.925.96 1.423 1.487a77.136 77.136 0 0 0 1.47 1.531c.466.467.895.867 1.233 1.119zm-18.396-3.322c.828-1.177 1.704-2.352 2.397-3.307.174-.24.338-.469.485-.677.198-.156.381-.294.546-.411.167-.12.314-.218.439-.292a1.55 1.55 0 0 1 .305-.148 1.126 1.126 0 0 1-.093.33 5.228 5.228 0 0 1-.232.478c-.096.179-.212.378-.341.594-.189.172-.394.361-.61.565a86.08 86.08 0 0 0-2.896 2.868zm13.698-15.367l-.275-.122c-.791 1.788-.586 1.411-1.667 3.76-.443.964-1.32 2.854-1.314 2.841.255-.517.742-1.276 1.58-2.702.832-1.415 1.536-2.72 1.95-3.655zm11.084 4.522c-.493.062-1.112.168-1.787.295-.679.126-1.424.275-2.182.424a130.179 130.179 0 0 1-2.347.446c-.718-.145-1.393-.312-1.945-.517a120.38 120.38 0 0 0 1.842-.71h.089c.724.006 1.503-.01 2.275-.025.771-.015 1.536-.03 2.232-.023.697.007 1.327.038 1.823.11z" fill="#fff"/>
  </g>
 </g>
 <path d="m163.8 111.38 36.239-26.059c13.367-9.612-4.568-42.056-26.346-25.957l-17.102 12.226z" fill="url(#linearGradient2243)" stroke="#000" stroke-width="1.5"/>
 <path d="m18.425 113.3 36.148-5.107-0.692-10.754s-18.346 1.39-26.629 4.781c-6.956 2.848-14.853 9.666-14.853 9.666z" fill="#faa" stroke="#000" stroke-width="1.5"/>
 <g transform="matrix(1.3837 -.8295 .85025 1.5004 28.797 -148.4)">
  <ellipse cx="-50.049" cy="131.55" rx="16.87" ry="17.031" fill="#f95" stroke="#000" stroke-linecap="round" stroke-width=".519"/>
  <ellipse cx="-50.057" cy="131.58" rx="15.226" ry="15.371" fill="#ffe6d5" stroke="#000" stroke-linecap="round" stroke-width=".469"/>
  <g fill-rule="evenodd">
   <g stroke="#000" stroke-width=".3">
    <path d="M-53.609 138.382c.107.265-.284 7.96-.284 7.96 2.337.731 4.675.632 7.012.115l-.978-8.37z" fill="#ffb380"/>
    <path d="M-44.336 135.032l8.993-.186c.285-2.189.746-4.353-.023-6.685l-9.08.108z" fill="#fca"/>
    <path d="M-47.332 124.447l.172-7.816c-2.24-.38-4.19-.323-5.932.046l-.313 7.605z" fill="#ffb380"/>
    <path d="M-57.483 134.605l-7.378.25c-.422-2.194-.48-4.45-.002-6.793l7.109-.076z" fill="#ffe6d5"/>
    <path d="M-53.453 124.171l-4.373 3.697.3 6.755 3.603 3.753 6.434-.044 3.153-3.3-.11-6.763-2.549-4.095z" fill="#ffe6d5"/>
    <path d="M-53.875 138.517c.266-.212 2.907-6.222 2.907-6.222l-6.461 2.293-5.146 5.472c1.012 1.433 1.961 2.883 4.091 4.025z" fill="#fca"/>
    <path d="m-50.722 132.11c0-0.108 3.43-7.857 3.43-7.857l3.98-6.312c2.764 1.53 4.99 3.438 6.341 5.958l-7.657 4.453z" fill="#ffb380"/>
    <path d="M-50.855 132.086c-.133-.027-7.057-4.277-7.057-4.277l-4.189-5.586c1.429-1.506 2.676-3.112 5.016-4.113l3.703 6.084z" fill="#fca"/>
    <path d="m-50.578 132.38 2.72 5.704 5.45 6.673c2.254-1.355 3.916-3.016 5.018-4.971l-7.234-5.104z" fill="#ffb380"/>
   </g>
   <path d="M-60.76 121.702a55.227 55.227 0 0 1 1.873 3.083c.44.785.79 1.466 1.265 2.34l.74-.424.621-.586c-.71-.724-1.285-1.242-1.948-1.862a49.719 49.719 0 0 1-2.552-2.55zm8.845-4.718c-.207.735-.424 1.7-.638 2.709l.046.444c.118 1.175.247 2.375.405 3.302.158-.932.383-2.34.541-3.271l.076-.438c-.143-1.018-.282-1.996-.43-2.746zM-64.37 129.11c.815-.04 1.824-.26 2.798-.502l.213-.052c.942.136 1.914.251 2.675.45-.762.198-1.659.48-2.598.74a59.368 59.368 0 0 1-.222-.026c-1.041-.123-2.085-.282-2.866-.61zm12.444 10.292a19.776 19.776 0 0 0-.398 1.382c-.107.41-.216.854-.327 1.31l.07.453c.095.613.188 1.228.284 1.78.096.55.195 1.04.302 1.396.107-.357.22-.836.338-1.383.117-.547.238-1.157.356-1.768l.088-.453a41.154 41.154 0 0 0-.291-1.33c-.132-.549-.273-1.04-.422-1.387zm9.794 4.135a57.455 57.455 0 0 1-.923-1.372c-.36-.547-.758-1.161-1.15-1.77a528.203 528.203 0 0 1-1.116-1.744l-.467-.73-.13-.205c-.289.036-.573.09-.83.172-.1.265-.188.501-.28.783a16.724 16.724 0 0 1 .77.729c.434.437.925.96 1.423 1.487a77.136 77.136 0 0 0 1.47 1.531c.466.467.895.867 1.233 1.119zm-18.396-3.322c.828-1.177 1.704-2.352 2.397-3.307.174-.24.338-.469.485-.677.198-.156.381-.294.546-.411.167-.12.314-.218.439-.292a1.55 1.55 0 0 1 .305-.148 1.126 1.126 0 0 1-.093.33 5.228 5.228 0 0 1-.232.478c-.096.179-.212.378-.341.594-.189.172-.394.361-.61.565a86.08 86.08 0 0 0-2.896 2.868zm13.698-15.367l-.275-.122c-.791 1.788-.586 1.411-1.667 3.76-.443.964-1.32 2.854-1.314 2.841.255-.517.742-1.276 1.58-2.702.832-1.415 1.536-2.72 1.95-3.655zm11.084 4.522c-.493.062-1.112.168-1.787.295-.679.126-1.424.275-2.182.424a130.179 130.179 0 0 1-2.347.446c-.718-.145-1.393-.312-1.945-.517a120.38 120.38 0 0 0 1.842-.71h.089c.724.006 1.503-.01 2.275-.025.771-.015 1.536-.03 2.232-.023.697.007 1.327.038 1.823.11z" fill="#fff"/>
  </g>
 </g>
 <path d="M100.371 84.011c1.543 1.857 3.818 2.833 5.963 1.725l20.568-10.632L137.374 64.6l-22.165 10.973c-1.757.87-3.531-.297-4.426-1.352l-20.7-24.418c-11.418-12.468-36.457-6.141-42.98 8.048-2.757 6-2.003 19.486 2.969 14.055 8.218-8.98 18.081-11.487 29.14-8.412 2.696.75 2.35-1.34 2.889-3.34 0 0 11.769 16.03 18.27 23.857z" fill="#ffd5d5" stroke="#000" stroke-linejoin="round" stroke-width="1.5"/>
 <path d="M117.198 230.124s.833 3.472 3.19 4.819c5.936 3.392 13.15 3.108 19.774 1.413 8.54-2.186 23.622-9.944 22.2-20.277l-4.745-34.47-9.331-.282 4.774 37.887-4.194-1.738c-1.565-.807-2.409-.13-3.305 1.022-7.581 10.857-18.497 12.06-27.25 9.663-1.38-.378-1.244 1.212-1.113 1.963z" fill="url(#linearGradient2275)" stroke="#000" stroke-linejoin="round" stroke-width="1.5"/>
 <g transform="matrix(1.2421 -.83942 .86454 1.3493 100.19 -62.228)">
  <ellipse cx="-50.049" cy="131.55" rx="16.87" ry="17.031" fill="#f95" stroke="#000" stroke-linecap="round" stroke-width=".519"/>
  <ellipse cx="-50.057" cy="131.58" rx="15.226" ry="15.371" fill="#ffe6d5" stroke="#000" stroke-linecap="round" stroke-width=".469"/>
  <g fill-rule="evenodd">
   <g stroke="#000" stroke-width=".3">
    <path d="M-53.609 138.382c.107.265-.284 7.96-.284 7.96 2.337.731 4.675.632 7.012.115l-.978-8.37z" fill="#ffb380"/>
    <path d="M-44.336 135.032l8.993-.186c.285-2.189.746-4.353-.023-6.685l-9.08.108z" fill="#fca"/>
    <path d="M-47.332 124.447l.172-7.816c-2.24-.38-4.19-.323-5.932.046l-.313 7.605z" fill="#ffb380"/>
    <path d="M-57.483 134.605l-7.378.25c-.422-2.194-.48-4.45-.002-6.793l7.109-.076z" fill="#ffe6d5"/>
    <path d="M-53.453 124.171l-4.373 3.697.3 6.755 3.603 3.753 6.434-.044 3.153-3.3-.11-6.763-2.549-4.095z" fill="#ffe6d5"/>
    <path d="M-53.875 138.517c.266-.212 2.907-6.222 2.907-6.222l-6.461 2.293-5.146 5.472c1.012 1.433 1.961 2.883 4.091 4.025z" fill="#fca"/>
    <path d="m-50.722 132.11c0-0.108 3.43-7.857 3.43-7.857l3.98-6.312c2.764 1.53 4.99 3.438 6.341 5.958l-7.657 4.453z" fill="#ffb380"/>
    <path d="M-50.855 132.086c-.133-.027-7.057-4.277-7.057-4.277l-4.189-5.586c1.429-1.506 2.676-3.112 5.016-4.113l3.703 6.084z" fill="#fca"/>
    <path d="m-50.578 132.38 2.72 5.704 5.45 6.673c2.254-1.355 3.916-3.016 5.018-4.971l-7.234-5.104z" fill="#ffb380"/>
   </g>
   <path d="M-60.76 121.702a55.227 55.227 0 0 1 1.873 3.083c.44.785.79 1.466 1.265 2.34l.74-.424.621-.586c-.71-.724-1.285-1.242-1.948-1.862a49.719 49.719 0 0 1-2.552-2.55zm8.845-4.718c-.207.735-.424 1.7-.638 2.709l.046.444c.118 1.175.247 2.375.405 3.302.158-.932.383-2.34.541-3.271l.076-.438c-.143-1.018-.282-1.996-.43-2.746zM-64.37 129.11c.815-.04 1.824-.26 2.798-.502l.213-.052c.942.136 1.914.251 2.675.45-.762.198-1.659.48-2.598.74a59.368 59.368 0 0 1-.222-.026c-1.041-.123-2.085-.282-2.866-.61zm12.444 10.292a19.776 19.776 0 0 0-.398 1.382c-.107.41-.216.854-.327 1.31l.07.453c.095.613.188 1.228.284 1.78.096.55.195 1.04.302 1.396.107-.357.22-.836.338-1.383.117-.547.238-1.157.356-1.768l.088-.453a41.154 41.154 0 0 0-.291-1.33c-.132-.549-.273-1.04-.422-1.387zm9.794 4.135a57.455 57.455 0 0 1-.923-1.372c-.36-.547-.758-1.161-1.15-1.77a528.203 528.203 0 0 1-1.116-1.744l-.467-.73-.13-.205c-.289.036-.573.09-.83.172-.1.265-.188.501-.28.783a16.724 16.724 0 0 1 .77.729c.434.437.925.96 1.423 1.487a77.136 77.136 0 0 0 1.47 1.531c.466.467.895.867 1.233 1.119zm-18.396-3.322c.828-1.177 1.704-2.352 2.397-3.307.174-.24.338-.469.485-.677.198-.156.381-.294.546-.411.167-.12.314-.218.439-.292a1.55 1.55 0 0 1 .305-.148 1.126 1.126 0 0 1-.093.33 5.228 5.228 0 0 1-.232.478c-.096.179-.212.378-.341.594-.189.172-.394.361-.61.565a86.08 86.08 0 0 0-2.896 2.868zm13.698-15.367l-.275-.122c-.791 1.788-.586 1.411-1.667 3.76-.443.964-1.32 2.854-1.314 2.841.255-.517.742-1.276 1.58-2.702.832-1.415 1.536-2.72 1.95-3.655zm11.084 4.522c-.493.062-1.112.168-1.787.295-.679.126-1.424.275-2.182.424a130.179 130.179 0 0 1-2.347.446c-.718-.145-1.393-.312-1.945-.517a120.38 120.38 0 0 0 1.842-.71h.089c.724.006 1.503-.01 2.275-.025.771-.015 1.536-.03 2.232-.023.697.007 1.327.038 1.823.11z" fill="#fff"/>
  </g>
 </g>
 <path d="M165.346 114.78c-.44 1.307.047 2.992 1.106 3.568l24.584 13.36c9.729 5.288 13.924 16.704 12.581 26.763-.711 4.96-3.565 9.633-6.944 13.334-4.968 5.44-17.105 10.748-17.105 10.748-3.703.426-9.994-2.008-8.663-4.25 5.155-8.681 8.381-17.056 5.763-26.503-.359-1.296-.642-3.18 1.162-4.743 1.816-1.573 3.667-2.132 3.513-4.084l-26.596-15.399c-2.232-1.292-1.949-3.846-1.598-5.082" fill="url(#linearGradient2267)"/>
 <g transform="matrix(1.443 -.66297 .67073 1.5594 112.08 -133.04)">
  <ellipse cx="-50.049" cy="131.55" rx="16.87" ry="17.031" fill="#f95" stroke="#000" stroke-linecap="round" stroke-width=".519"/>
  <ellipse cx="-50.057" cy="131.58" rx="15.226" ry="15.371" fill="#ffe6d5" stroke="#000" stroke-linecap="round" stroke-width=".469"/>
  <g fill-rule="evenodd">
   <g stroke="#000" stroke-width=".3">
    <path d="M-53.609 138.382c.107.265-.284 7.96-.284 7.96 2.337.731 4.675.632 7.012.115l-.978-8.37z" fill="#ffb380"/>
    <path d="M-44.336 135.032l8.993-.186c.285-2.189.746-4.353-.023-6.685l-9.08.108z" fill="#fca"/>
    <path d="M-47.332 124.447l.172-7.816c-2.24-.38-4.19-.323-5.932.046l-.313 7.605z" fill="#ffb380"/>
    <path d="M-57.483 134.605l-7.378.25c-.422-2.194-.48-4.45-.002-6.793l7.109-.076z" fill="#ffe6d5"/>
    <path d="M-53.453 124.171l-4.373 3.697.3 6.755 3.603 3.753 6.434-.044 3.153-3.3-.11-6.763-2.549-4.095z" fill="#ffe6d5"/>
    <path d="M-53.875 138.517c.266-.212 2.907-6.222 2.907-6.222l-6.461 2.293-5.146 5.472c1.012 1.433 1.961 2.883 4.091 4.025z" fill="#fca"/>
    <path d="m-50.722 132.11c0-0.108 3.43-7.857 3.43-7.857l3.98-6.312c2.764 1.53 4.99 3.438 6.341 5.958l-7.657 4.453z" fill="#ffb380"/>
    <path d="M-50.855 132.086c-.133-.027-7.057-4.277-7.057-4.277l-4.189-5.586c1.429-1.506 2.676-3.112 5.016-4.113l3.703 6.084z" fill="#fca"/>
    <path d="m-50.578 132.38 2.72 5.704 5.45 6.673c2.254-1.355 3.916-3.016 5.018-4.971l-7.234-5.104z" fill="#ffb380"/>
   </g>
   <path d="M-60.76 121.702a55.227 55.227 0 0 1 1.873 3.083c.44.785.79 1.466 1.265 2.34l.74-.424.621-.586c-.71-.724-1.285-1.242-1.948-1.862a49.719 49.719 0 0 1-2.552-2.55zm8.845-4.718c-.207.735-.424 1.7-.638 2.709l.046.444c.118 1.175.247 2.375.405 3.302.158-.932.383-2.34.541-3.271l.076-.438c-.143-1.018-.282-1.996-.43-2.746zM-64.37 129.11c.815-.04 1.824-.26 2.798-.502l.213-.052c.942.136 1.914.251 2.675.45-.762.198-1.659.48-2.598.74a59.368 59.368 0 0 1-.222-.026c-1.041-.123-2.085-.282-2.866-.61zm12.444 10.292a19.776 19.776 0 0 0-.398 1.382c-.107.41-.216.854-.327 1.31l.07.453c.095.613.188 1.228.284 1.78.096.55.195 1.04.302 1.396.107-.357.22-.836.338-1.383.117-.547.238-1.157.356-1.768l.088-.453a41.154 41.154 0 0 0-.291-1.33c-.132-.549-.273-1.04-.422-1.387zm9.794 4.135a57.455 57.455 0 0 1-.923-1.372c-.36-.547-.758-1.161-1.15-1.77a528.203 528.203 0 0 1-1.116-1.744l-.467-.73-.13-.205c-.289.036-.573.09-.83.172-.1.265-.188.501-.28.783a16.724 16.724 0 0 1 .77.729c.434.437.925.96 1.423 1.487a77.136 77.136 0 0 0 1.47 1.531c.466.467.895.867 1.233 1.119zm-18.396-3.322c.828-1.177 1.704-2.352 2.397-3.307.174-.24.338-.469.485-.677.198-.156.381-.294.546-.411.167-.12.314-.218.439-.292a1.55 1.55 0 0 1 .305-.148 1.126 1.126 0 0 1-.093.33 5.228 5.228 0 0 1-.232.478c-.096.179-.212.378-.341.594-.189.172-.394.361-.61.565a86.08 86.08 0 0 0-2.896 2.868zm13.698-15.367l-.275-.122c-.791 1.788-.586 1.411-1.667 3.76-.443.964-1.32 2.854-1.314 2.841.255-.517.742-1.276 1.58-2.702.832-1.415 1.536-2.72 1.95-3.655zm11.084 4.522c-.493.062-1.112.168-1.787.295-.679.126-1.424.275-2.182.424a130.179 130.179 0 0 1-2.347.446c-.718-.145-1.393-.312-1.945-.517a120.38 120.38 0 0 0 1.842-.71h.089c.724.006 1.503-.01 2.275-.025.771-.015 1.536-.03 2.232-.023.697.007 1.327.038 1.823.11z" fill="#fff"/>
  </g>
 </g>
 <path d="M153.084 122.857l6.735-24.956s-4.528 4.294-6.44-.293c-4.982-11.946-14.219-19.172-27.297-20.445-8.157-.794 6.681-16.048 13.662-18.21 6.38-1.974 14.298-.327 19.71 3.585 6.187 4.474 9.87 12.559 10.956 20.116 1.587 11.05-5.13 32.49-5.13 32.49" fill="url(#linearGradient2259)" stroke="#000" stroke-linecap="round" stroke-linejoin="round" stroke-width="1.5"/>
 <path d="M165.28 115.144c-.44 1.308.113 2.628 1.172 3.204l24.584 13.36c9.729 5.288 13.924 16.704 12.581 26.763-.711 4.96-4.907 10.737-8.287 14.438-4.968 5.44-15.762 9.644-15.762 9.644-4.527 1.569-10.279-1.68-8.181-5.184 7.429-12.415 6.441-17.512 5.38-26.272-.162-1.335-.07-2.861 1.734-4.423 1.816-1.574 2.996-1.749 2.842-3.7l-26.596-15.4c-2.232-1.292-2.015-3.481-1.663-4.717" fill="none" stroke="#000" stroke-linecap="round" stroke-linejoin="round" stroke-width="1.5"/>
 <g transform="matrix(.96368 -.9415 1.0419 1.1296 -27.326 -4.678)">
  <ellipse cx="-50.049" cy="131.55" rx="16.87" ry="17.031" fill="#f95" stroke="#000" stroke-linecap="round" stroke-width=".519"/>
  <ellipse cx="-50.057" cy="131.58" rx="15.226" ry="15.371" fill="#ffe6d5" stroke="#000" stroke-linecap="round" stroke-width=".469"/>
  <g fill-rule="evenodd">
   <g stroke="#000" stroke-width=".3">
    <path d="M-53.609 138.382c.107.265-.284 7.96-.284 7.96 2.337.731 4.675.632 7.012.115l-.978-8.37z" fill="#ffb380"/>
    <path d="M-44.336 135.032l8.993-.186c.285-2.189.746-4.353-.023-6.685l-9.08.108z" fill="#fca"/>
    <path d="M-47.332 124.447l.172-7.816c-2.24-.38-4.19-.323-5.932.046l-.313 7.605z" fill="#ffb380"/>
    <path d="M-57.483 134.605l-7.378.25c-.422-2.194-.48-4.45-.002-6.793l7.109-.076z" fill="#ffe6d5"/>
    <path d="M-53.453 124.171l-4.373 3.697.3 6.755 3.603 3.753 6.434-.044 3.153-3.3-.11-6.763-2.549-4.095z" fill="#ffe6d5"/>
    <path d="M-53.875 138.517c.266-.212 2.907-6.222 2.907-6.222l-6.461 2.293-5.146 5.472c1.012 1.433 1.961 2.883 4.091 4.025z" fill="#fca"/>
    <path d="m-50.722 132.11c0-0.108 3.43-7.857 3.43-7.857l3.98-6.312c2.764 1.53 4.99 3.438 6.341 5.958l-7.657 4.453z" fill="#ffb380"/>
    <path d="M-50.855 132.086c-.133-.027-7.057-4.277-7.057-4.277l-4.189-5.586c1.429-1.506 2.676-3.112 5.016-4.113l3.703 6.084z" fill="#fca"/>
    <path d="m-50.578 132.38 2.72 5.704 5.45 6.673c2.254-1.355 3.916-3.016 5.018-4.971l-7.234-5.104z" fill="#ffb380"/>
   </g>
   <path d="M-60.76 121.702a55.227 55.227 0 0 1 1.873 3.083c.44.785.79 1.466 1.265 2.34l.74-.424.621-.586c-.71-.724-1.285-1.242-1.948-1.862a49.719 49.719 0 0 1-2.552-2.55zm8.845-4.718c-.207.735-.424 1.7-.638 2.709l.046.444c.118 1.175.247 2.375.405 3.302.158-.932.383-2.34.541-3.271l.076-.438c-.143-1.018-.282-1.996-.43-2.746zM-64.37 129.11c.815-.04 1.824-.26 2.798-.502l.213-.052c.942.136 1.914.251 2.675.45-.762.198-1.659.48-2.598.74a59.368 59.368 0 0 1-.222-.026c-1.041-.123-2.085-.282-2.866-.61zm12.444 10.292a19.776 19.776 0 0 0-.398 1.382c-.107.41-.216.854-.327 1.31l.07.453c.095.613.188 1.228.284 1.78.096.55.195 1.04.302 1.396.107-.357.22-.836.338-1.383.117-.547.238-1.157.356-1.768l.088-.453a41.154 41.154 0 0 0-.291-1.33c-.132-.549-.273-1.04-.422-1.387zm9.794 4.135a57.455 57.455 0 0 1-.923-1.372c-.36-.547-.758-1.161-1.15-1.77a528.203 528.203 0 0 1-1.116-1.744l-.467-.73-.13-.205c-.289.036-.573.09-.83.172-.1.265-.188.501-.28.783a16.724 16.724 0 0 1 .77.729c.434.437.925.96 1.423 1.487a77.136 77.136 0 0 0 1.47 1.531c.466.467.895.867 1.233 1.119zm-18.396-3.322c.828-1.177 1.704-2.352 2.397-3.307.174-.24.338-.469.485-.677.198-.156.381-.294.546-.411.167-.12.314-.218.439-.292a1.55 1.55 0 0 1 .305-.148 1.126 1.126 0 0 1-.093.33 5.228 5.228 0 0 1-.232.478c-.096.179-.212.378-.341.594-.189.172-.394.361-.61.565a86.08 86.08 0 0 0-2.896 2.868zm13.698-15.367l-.275-.122c-.791 1.788-.586 1.411-1.667 3.76-.443.964-1.32 2.854-1.314 2.841.255-.517.742-1.276 1.58-2.702.832-1.415 1.536-2.72 1.95-3.655zm11.084 4.522c-.493.062-1.112.168-1.787.295-.679.126-1.424.275-2.182.424a130.179 130.179 0 0 1-2.347.446c-.718-.145-1.393-.312-1.945-.517a120.38 120.38 0 0 0 1.842-.71h.089c.724.006 1.503-.01 2.275-.025.771-.015 1.536-.03 2.232-.023.697.007 1.327.038 1.823.11z" fill="#fff"/>
  </g>
 </g>
 <path d="M36.772 194.673c-1.65-.076-1.336 3.96-.522 6.258 3.335 9.421 13.85 16.98 23.335 18.702 2.415.44 6.383.029 6.673-1.823.29-1.855-2.863-2.266-4.59-2.536-10.475-1.638-17.892-8.667-21.632-15.94-1.524-2.963-1.426-4.575-3.264-4.66z" fill="#ffd5d5" stroke="#000" stroke-width="1.5"/>
 <g transform="matrix(1.1543 -.84335 .92377 1.3437 -26.317 -87.021)">
  <ellipse cx="-50.049" cy="131.55" rx="16.87" ry="17.031" fill="#f95" stroke="#000" stroke-linecap="round" stroke-width=".519"/>
  <ellipse cx="-50.057" cy="131.58" rx="15.226" ry="15.371" fill="#ffe6d5" stroke="#000" stroke-linecap="round" stroke-width=".469"/>
  <g fill-rule="evenodd">
   <g stroke="#000" stroke-width=".3">
    <path d="M-53.609 138.382c.107.265-.284 7.96-.284 7.96 2.337.731 4.675.632 7.012.115l-.978-8.37z" fill="#ffb380"/>
    <path d="M-44.336 135.032l8.993-.186c.285-2.189.746-4.353-.023-6.685l-9.08.108z" fill="#fca"/>
    <path d="M-47.332 124.447l.172-7.816c-2.24-.38-4.19-.323-5.932.046l-.313 7.605z" fill="#ffb380"/>
    <path d="M-57.483 134.605l-7.378.25c-.422-2.194-.48-4.45-.002-6.793l7.109-.076z" fill="#ffe6d5"/>
    <path d="M-53.453 124.171l-4.373 3.697.3 6.755 3.603 3.753 6.434-.044 3.153-3.3-.11-6.763-2.549-4.095z" fill="#ffe6d5"/>
    <path d="M-53.875 138.517c.266-.212 2.907-6.222 2.907-6.222l-6.461 2.293-5.146 5.472c1.012 1.433 1.961 2.883 4.091 4.025z" fill="#fca"/>
    <path d="m-50.722 132.11c0-0.108 3.43-7.857 3.43-7.857l3.98-6.312c2.764 1.53 4.99 3.438 6.341 5.958l-7.657 4.453z" fill="#ffb380"/>
    <path d="M-50.855 132.086c-.133-.027-7.057-4.277-7.057-4.277l-4.189-5.586c1.429-1.506 2.676-3.112 5.016-4.113l3.703 6.084z" fill="#fca"/>
    <path d="m-50.578 132.38 2.72 5.704 5.45 6.673c2.254-1.355 3.916-3.016 5.018-4.971l-7.234-5.104z" fill="#ffb380"/>
   </g>
   <path d="M-60.76 121.702a55.227 55.227 0 0 1 1.873 3.083c.44.785.79 1.466 1.265 2.34l.74-.424.621-.586c-.71-.724-1.285-1.242-1.948-1.862a49.719 49.719 0 0 1-2.552-2.55zm8.845-4.718c-.207.735-.424 1.7-.638 2.709l.046.444c.118 1.175.247 2.375.405 3.302.158-.932.383-2.34.541-3.271l.076-.438c-.143-1.018-.282-1.996-.43-2.746zM-64.37 129.11c.815-.04 1.824-.26 2.798-.502l.213-.052c.942.136 1.914.251 2.675.45-.762.198-1.659.48-2.598.74a59.368 59.368 0 0 1-.222-.026c-1.041-.123-2.085-.282-2.866-.61zm12.444 10.292a19.776 19.776 0 0 0-.398 1.382c-.107.41-.216.854-.327 1.31l.07.453c.095.613.188 1.228.284 1.78.096.55.195 1.04.302 1.396.107-.357.22-.836.338-1.383.117-.547.238-1.157.356-1.768l.088-.453a41.154 41.154 0 0 0-.291-1.33c-.132-.549-.273-1.04-.422-1.387zm9.794 4.135a57.455 57.455 0 0 1-.923-1.372c-.36-.547-.758-1.161-1.15-1.77a528.203 528.203 0 0 1-1.116-1.744l-.467-.73-.13-.205c-.289.036-.573.09-.83.172-.1.265-.188.501-.28.783a16.724 16.724 0 0 1 .77.729c.434.437.925.96 1.423 1.487a77.136 77.136 0 0 0 1.47 1.531c.466.467.895.867 1.233 1.119zm-18.396-3.322c.828-1.177 1.704-2.352 2.397-3.307.174-.24.338-.469.485-.677.198-.156.381-.294.546-.411.167-.12.314-.218.439-.292a1.55 1.55 0 0 1 .305-.148 1.126 1.126 0 0 1-.093.33 5.228 5.228 0 0 1-.232.478c-.096.179-.212.378-.341.594-.189.172-.394.361-.61.565a86.08 86.08 0 0 0-2.896 2.868zm13.698-15.367l-.275-.122c-.791 1.788-.586 1.411-1.667 3.76-.443.964-1.32 2.854-1.314 2.841.255-.517.742-1.276 1.58-2.702.832-1.415 1.536-2.72 1.95-3.655zm11.084 4.522c-.493.062-1.112.168-1.787.295-.679.126-1.424.275-2.182.424a130.179 130.179 0 0 1-2.347.446c-.718-.145-1.393-.312-1.945-.517a120.38 120.38 0 0 0 1.842-.71h.089c.724.006 1.503-.01 2.275-.025.771-.015 1.536-.03 2.232-.023.697.007 1.327.038 1.823.11z" fill="#fff"/>
  </g>
 </g>
 <ellipse transform="matrix(.79292 -.60933 .58974 .8076 0 0)" cx="-13.996" cy="177.01" rx="33.611" ry="36.272" fill="url(#linearGradient1002)" stroke="#000" stroke-linecap="round" stroke-width="1.07"/>
 <path d="M18.8 108.61c-.779-1.456-4.155.975-6.022 2.543-8.938 7.507-9.353 20.577-4.118 29.62 1.23 2.125 4.16 4.878 5.9 4.179 1.742-.701.078-3.406-.557-5.034-3.843-9.85-1.862-19.764 2.464-26.118 1.875-2.755 3.2-3.567 2.333-5.19z" fill="#ffd5d5" stroke="#000" stroke-width="1.5"/>
 <path d="M-65.172 33.19c1.467-.047 3.03.248 4.592.805.82.292 1.635.655 2.43 1.076.64.491 1.253 1.02 1.828 1.576a19.946 19.946 0 0 1 3.085 3.785c.815 1.317 1.384 2.648 1.629 3.883-.452-1.166-1.206-2.363-2.161-3.5a19.82 19.82 0 0 0-3.401-3.168 19.773 19.773 0 0 0-1.882-1.228 17.853 17.853 0 0 0-1.99-1.468c-1.306-.826-2.708-1.456-4.13-1.763z" fill="#fff" fill-rule="evenodd"/>
 <ellipse transform="matrix(.79292 -.60933 .58974 .8076 0 0)" cx="-15.295" cy="177.45" rx="25.796" ry="27.838" fill="#f95" stroke="#000" stroke-linecap="round" stroke-width=".821"/>
 <ellipse transform="matrix(.79292 -.60933 .58974 .8076 0 0)" cx="-15.575" cy="177.54" rx="23.281" ry="25.124" fill="#ffe6d5" stroke="#000" stroke-linecap="round" stroke-width=".741"/>
 <g fill-rule="evenodd">
  <g stroke="#000" stroke-width=".475">
   <path d="M94.603 165.157c.384.251 7.327 10.772 7.327 10.772 3.54-1.212 6.278-3.521 8.614-6.38l-9.255-10.14z" fill="#ffb380"/>
   <path d="m102.62 152.1 10.723-8.624c-1.763-3.154-3.29-6.44-6.47-8.802l-10.906 8.604z" fill="#fca"/>
   <path d="m88.78 140.92-7.325-10.478c-3.084 1.585-5.391 3.477-7.148 5.588l6.952 10.33z" fill="#ffb380"/>
   <path d="m86.265 163.78-8.704 7.203c-2.627-2.502-4.871-5.425-6.55-8.965l8.544-6.723z" fill="#ffe6d5"/>
   <path d="m81.093 146.25-1.738 8.953 6.876 8.637 7.985 1.598 7.758-6.053 0.642-7.294-6.653-8.822-7.037-3.032z" fill="#ffe6d5"/>
   <path d="M94.41 165.584c.118-.528-2.474-10.922-2.474-10.922l-5.623 9.047-.964 12.017c2.61.95 5.157 1.978 8.84 1.501z" fill="#fca"/>
   <path d="M92.054 154.186c-.105-.144-3.414-13.57-3.414-13.57l-1.26-12.038c4.826-.557 9.363-.11 13.431 1.955l-4.99 13.013z" fill="#ffb380"/>
   <path d="M91.872 154.28c-.187.09-12.677.93-12.677.93l-10.464-3.47c.28-3.319.243-6.602 2.116-10.102l10.355 4.58z" fill="#fca"/>
   <path d="m92.495 154.41 8.794 4.996 13.042 3.729c1.426-3.887 1.84-7.63 1.291-11.237l-13.69 3e-3z" fill="#ffb380"/>
  </g>
  <path d="M69.853 149.803c2.356.97 3.911 1.676 5.243 2.324 1.292.626 2.373 1.199 3.79 1.91l.49-1.25.187-1.35c-1.56-.295-2.756-.444-4.158-.644a81.431 75.846 63.253 0 1-5.552-.99zm6.178-14.469c.457 1.163 1.123 2.639 1.837 4.17l.483.544c1.277 1.44 2.589 2.904 3.675 3.981-.706-1.378-1.79-3.445-2.497-4.823l-.332-.648c-1.153-1.21-2.264-2.373-3.166-3.224zm-3.414 27.609c.95-.812 1.962-2.042 2.91-3.269l.206-.268c1.275-.697 2.564-1.452 3.678-1.898-.733.971-1.549 2.179-2.437 3.397a97.235 90.566 63.253 0 1-.294.173c-1.381.808-2.8 1.57-4.063 1.865zm25.008 1.992a32.39 30.168 63.253 0 0 .85 2.195c.266.64.562 1.329.866 2.033l.523.532c.705.723 1.411 1.447 2.06 2.086.647.638 1.239 1.192 1.71 1.562a33.298 33.298 0 0 0-.922-2.141c-.385-.83-.827-1.748-1.273-2.666l-.33-.679a67.403 62.78 63.253 0 0-1.634-1.483c-.69-.603-1.333-1.12-1.85-1.439zm15.861-3.668a94.102 87.648 63.253 0 1-2.442-.95c-.963-.386-2.038-.827-3.101-1.266a865.106 805.773 63.253 0 1-3.034-1.261l-1.27-.53-.355-.148a6.763 6.763 0 0 0-.839 1c.132.443.254.836.413 1.296.11.01.225.023.347.039.379.048.816.12 1.29.205.949.172 2.048.404 3.159.637 1.113.233 2.242.469 3.258.65 1.015.183 1.92.312 2.574.328zM87.98 174.022c-.13-2.324-.201-4.693-.282-6.598-.02-.48-.042-.933-.064-1.345.09-.391.178-.744.266-1.052.086-.313.17-.58.25-.794a2.537 2.363 63.253 0 1 .227-.48c.073.112.142.293.206.524a8.563 7.976 63.253 0 1 .179.846c.056.325.108.696.16 1.102-.064.402-.13.843-.196 1.313a140.985 131.315 63.253 0 0-.746 6.484zm1.794-33.047l-.45.096c.764 3.097.65 2.409 1.603 6.516.392 1.686 1.15 4.997 1.146 4.974-.19-.92-.33-2.376-.689-5.039-.356-2.642-.76-5.02-1.16-6.642zm17.799-4.357a46.745 46.745 0 0 0-1.884 2.053c-.701.8-1.461 1.69-2.236 2.593a213.21 198.588 63.253 0 1-2.415 2.776c-1.011.477-1.99.886-2.857 1.13a181.62 181.62 0 0 0 1.55-2.654l.106-.083c.885-.667 1.813-1.413 2.735-2.152.92-.738 1.833-1.47 2.685-2.11.85-.64 1.644-1.187 2.316-1.553z" fill="#fff"/>
 </g>
</svg>
