<svg version="1.1" viewBox="0 0 100 100" xmlns="http://www.w3.org/2000/svg" xmlns:xlink="http://www.w3.org/1999/xlink">
 <defs>
  <linearGradient id="innoGrad6">
   <stop stop-color="#ff7f2a" offset="0"/>
   <stop stop-color="#ffb380" offset="1"/>
  </linearGradient>
  <linearGradient id="innoGrad5">
   <stop stop-color="#ffe6d5" offset="0"/>
   <stop stop-color="#fca" offset="1"/>
  </linearGradient>
  <linearGradient id="innoGrad3">
   <stop stop-color="#ffd5d5" offset="0"/>
   <stop stop-color="#ff8080" offset="1"/>
  </linearGradient>
  <linearGradient id="innoGrad0">
   <stop stop-color="#ffd5d5" offset="0"/>
   <stop stop-color="#faa" offset="1"/>
  </linearGradient>
  <linearGradient id="linearGradient933" x1="28.496" x2="23.366" y1="62.712" y2="74.326" gradientTransform="matrix(.66226 -.02137 .02137 .66226 21.121 25.217)" gradientUnits="userSpaceOnUse" xlink:href="#innoGrad6"/>
  <linearGradient id="linearGradient1002" x1="37.139" x2="43.05" y1="40.36" y2="46.08" gradientTransform="matrix(.66226 -.02137 .02137 .66226 21.121 25.217)" gradientUnits="userSpaceOnUse" xlink:href="#innoGrad6"/>
  <linearGradient id="linearGradient1010" x1="25.603" x2="38.425" y1="43.076" y2="59.231" gradientTransform="matrix(.66226 -.02137 .02137 .66226 21.121 25.217)" gradientUnits="userSpaceOnUse" xlink:href="#innoGrad6"/>
  <linearGradient id="linearGradient1018" x1="35.855" x2="44.506" y1="49.489" y2="77.653" gradientTransform="matrix(.66226 -.02137 .02137 .66226 21.121 25.217)" gradientUnits="userSpaceOnUse" xlink:href="#innoGrad5"/>
  <linearGradient id="linearGradient1020" x1="34.879" x2="40.699" y1="30.501" y2="56.868" gradientTransform="matrix(.66226 -.02137 .02137 .66226 21.121 25.217)" gradientUnits="userSpaceOnUse" xlink:href="#innoGrad5"/>
  <linearGradient id="linearGradient1022" x1="46.329" x2="49.711" y1="14.67" y2="36.393" gradientTransform="matrix(.66226 -.02137 .02137 .66226 21.121 25.217)" gradientUnits="userSpaceOnUse" xlink:href="#innoGrad5"/>
  <linearGradient id="linearGradient1044" x1="43.227" x2="54.91" y1="46.833" y2="50.441" gradientTransform="matrix(.66226 -.02137 .02137 .66226 21.121 25.217)" gradientUnits="userSpaceOnUse" xlink:href="#innoGrad6"/>
  <linearGradient id="linearGradient1057" x1="45.661" x2="53.817" y1="26.91" y2="5.936" gradientUnits="userSpaceOnUse" xlink:href="#innoGrad0"/>
  <linearGradient id="linearGradient1067" x1="48.261" x2="54.9" y1="13.131" y2="63.617" gradientUnits="userSpaceOnUse" xlink:href="#innoGrad0"/>
  <linearGradient id="linearGradient1075" x1="51.271" x2="53.034" y1="8.936" y2="15.041" gradientUnits="userSpaceOnUse" xlink:href="#innoGrad3"/>
  <linearGradient id="linearGradient1089" x1="46.115" x2="45.342" y1="44" y2="22.337" gradientUnits="userSpaceOnUse">
   <stop stop-color="#f55" offset="0"/>
   <stop stop-color="#faa" offset="1"/>
  </linearGradient>
  <linearGradient id="linearGradient1097" x1="51.665" x2="51.964" y1="30.306" y2="17.577" gradientUnits="userSpaceOnUse" xlink:href="#innoGrad3"/>
  <linearGradient id="linearGradient1154" x1="-92.12" x2="-101.04" y1="-11.268" y2="-27.802" gradientUnits="userSpaceOnUse" xlink:href="#innoGrad0"/>
 </defs>
 <path d="M53.905 14.994c.258-6.02-1.218-10.351-5.771-9.994-4.482.35-4.095 7.436-3.686 9.942.462 2.691 2.011 6.334 3.273 9.196 2.944 6.676 5.144 14.2 5.456 24.907.403 13.804-3.125 28.446-7.64 35.438l6.55 1.518c4.447-4.05 8.487-20.23 8.02-36.219-.348-11.857-3.541-20.93-6.671-28.083-1.04-2.702-2.063-5.538-2.551-8.42" fill="url(#linearGradient1067)" fill-rule="evenodd"/>
 <path d="M50.56 5.35l.036 5.94.288 1.989 3.021 1.715c.205-4.785-.687-8.498-3.346-9.644z" fill="url(#linearGradient1075)"/>
 <path d="M53.905 14.994c.258-6.02-1.218-10.351-5.771-9.994-4.482.35-4.095 7.436-3.686 9.942.462 2.691 2.011 6.334 3.273 9.196 2.944 6.676 5.144 14.2 5.456 24.907.403 13.804-3.125 28.446-7.64 35.438l6.55 1.518c4.447-4.05 8.487-20.23 8.02-36.219-.348-11.857-3.541-20.93-6.671-28.083-1.512-3.93-2.99-8.145-2.838-12.371" fill="none" stroke="#000" stroke-width=".346"/>
 <ellipse transform="rotate(230.96)" cx="-98.491" cy="-17.095" rx="8.677" ry="8.734" fill="url(#linearGradient1154)" stroke="#000" stroke-linecap="round" stroke-width=".416"/>
 <path d="M46.237 80.14c.778-.502 1.804-.764 2.887-.816.331.04.66.099.983.176 1.363.324 2.606.96 3.313 1.743-.82-.64-2.097-1.076-3.404-1.207a8.143 8.143 0 0 0-.929-.04c-.976-.167-1.988-.15-2.85.144z" fill="#fff" fill-rule="evenodd"/>
 <g stroke="#000">
  <path d="M44.473 15.067c-2.191 1.113-3.13 4.097-2.155 9.936l1.91.522c-.718-1.479-.687-3.16.144-4.858a6.21 6.21 0 0 1 1.23-1.687s-.047-.136-.05-.153c-.478-1.33-.872-2.625-1.079-3.76zm6.853.271c.243.97.53 1.932.848 2.883.065.055.135.119.22.2l.132-2.682a30.052 30.052 0 0 0-1.2-.4z" fill="url(#linearGradient1097)" stroke-linecap="round" stroke-linejoin="round" stroke-width=".346"/>
  <path d="M50.882 13.216l.01.053c8.93 8.864-1.65 23.673-10.928 7.862 0 0-.662 2.523.47 5.548.478 1.274 1.278 2.91 1.448 4.725.11 1.175-.023 2.031-.034 3.047l11.463.184c.075-.89.122-1.78.261-2.67.464-2.96 3.834-5.612 3.298-11.253-.436-4.59-3.309-6.24-5.987-7.496z" fill="url(#linearGradient1089)" stroke-width=".346"/>
  <g stroke-linecap="round" stroke-linejoin="round">
   <path d="M50.89 13.26c.245 1.455.623 2.897 1.074 4.317a5.114 5.641 28.381 0 1 .377 5.807 5.114 5.641 28.381 0 1-7.095 2.856 5.114 5.641 28.381 0 1-2.133-7.275 5.114 5.641 28.381 0 1 1.774-2.167 17.347 17.347 0 0 1-.44-1.856c-.045-.278-.087-.62-.124-.995a7.743 8.54 28.381 0 0-3.581 3.882 7.743 8.54 28.381 0 0 3.23 11.014A7.743 8.54 28.381 0 0 54.71 24.52a7.743 8.54 28.381 0 0-3.23-11.013 7.743 8.54 28.381 0 0-.59-.245z" fill="url(#linearGradient1057)" stroke-width=".346"/>
   <path d="M46.378 32.298c-1.518.035-3.017.226-4.53.505l-6.429 10.036c.482 1.11.191 2.755.068 4.283l14.932 2.431c-4.064 10.635-8.787 15.656.737 22.622l2.776 1.34c.354.17.81.008.82-.409l.097-4.232c.006-.293-.03-.518-.444-.799l-4.541-3.088c-.43-.292-.258-.602-.041-.718l4.89-2.625c.62-.332.613-.54.61-1.174l-.068-11.707c-.002-.291.044-.58.6-.82.31-.134 2.824-1.617 3.143-5.654.207-2.608-.05-5.462-2.593-7.41-2.502-1.915-5.384-2.142-5.384-2.142a19.225 19.225 0 0 0-4.643-.44z" fill="#ff8080" stroke-width=".331"/>
   <path d="M46.378 32.298c-1.518.035-3.017.226-4.53.505l-6.429 10.036c.482 1.11.191 2.755.068 4.283l14.932 2.431c-4.064 10.635-8.787 15.656.737 22.622l2.776 1.34c.354.17.81.008.82-.409l.097-4.232c.006-.293-.03-.518-.444-.799l-4.541-3.088c-.43-.292-.258-.602-.041-.718l4.89-2.625c.62-.332.613-.54.61-1.174l-.068-11.707c-.002-.291.044-.58.6-.82.31-.134 2.824-1.617 3.143-5.654.207-2.608-.05-5.462-2.593-7.41-2.502-1.915-5.384-2.142-5.384-2.142a19.225 19.225 0 0 0-4.643-.44z" fill="url(#linearGradient1044)" stroke-width=".331"/>
  </g>
  <g stroke-width=".331">
   <path d="M35.03 39.566c-.354 6.741 4.4 7.887 9.737 6.172 1.272-1.311 1.944-2.178 2.455-4.35.19-.809.166-2.37 1.385-2.74.87-.263 2.155.298 1.945 1.732-.11.755-1.062 1.033-1.948 1.044-.397.006-.729.127-.852.454-.705 1.87-1.023 2.539-2.265 4.002 1.066 1.057 4.277 2.15 8.295.242 2.557-1.215 3.305-3.758 3.06-6.467-.502-5.535-3.252-7.093-8.325-7.278a28.363 28.363 0 0 0-.314-.01c-.09.053-.223.141-.386.263-1.03.768-3.275 2.857-3.855 5.42-.311 1.375-1.292 2.973-2.54 3.137-.79.103-1.615-.425-1.84-1.19-.224-.756-.113-1.923.85-2.328.594-.249 1.555-.184 2.01.201.323.274.893.215 1.003-.177.277-.98.581-2.443 3.189-4.799.428-.367.146-.688-.177-.734-6.121-.75-10.54.962-11.427 7.406z" fill="url(#linearGradient1022)" stroke-linejoin="round"/>
   <path d="M34.619 56.869l6.504 5.588 3.677-1.345-3.791-4.2c-.196-.216-.241-.46-.17-.675l2.266-6.85-6.312-.193c-.725 2.558-1.77 1.116-2.174 7.675z" fill="url(#linearGradient1010)"/>
   <path d="M40.84 55.745l.98 1.359c.167.23.366.302.643.293l6.015-.194c4.594-.637.262-5.302 1.287-8l-6.313-.193z" fill="url(#linearGradient1002)"/>
   <path d="M35.685 44.836l-1.021 10.528c-.042.407.256.885.84.835l2.767-.09c.484.011.8-.564.719-.969l-.36-3.054c-.235-1.998 3.125-1.277 2.885-.181l-.702 3.215c-.121.527.25.905.634.922l3.207-.162c.488-.048.589-.304.616-.736l-.166-3.2c-.095-1.84 3.441-1.226 2.988.251l-.927 3.019c-.17.414-.169.833.526.854l4.54.118c.498-.019.743-.313.761-.87l.214-8.405c-4.11 1.525-6.432.684-8.217-.702-4.612 1.682-7.6.528-9.304-1.373z" fill="url(#linearGradient1020)" stroke-linejoin="round"/>
   <path d="M34.719 60.345l2.363 1.876c.17.136.243.213.426.235l2.581.356-1.269-1.222s-4.926-1.9-4.101-1.245z" fill="#f55"/>
  </g>
  <g stroke-linejoin="round" stroke-width=".331">
   <path d="M34.788 72.31l3.128.934c.258.077.483.118.864-.21L45 67.672c.877-4.16-10.23 1.955-10.212 4.638z" fill="url(#linearGradient933)" stroke-linecap="round"/>
   <path d="M34.515 57.239l-.012 2.295c-.003.493.048.789.54 1.06l2.123 1.173c1.031.525.775 1.25.066 1.835l-2.649 2.324c-.195.171-.458.313-.438.97l.142 4.65c.027.908.87.997 1.456.508l5.81-4.852c.955-.797 1.36-.577 1.88-.21l7.05 4.97c.732.515 1.418.253 1.447-.66l.102-3.156c.032-.97-.454-1.286-1-1.656l-3.338-2.263c-.752-.51-1.016-1.258.062-1.793l3.959-1.966c.81-.401.96-.763.95-1.321l-.032-2.003c-.007-.435-.292-.684-.947-.69l-3.845-.036c-.527-.005-.827-.065-1.16.305l-2.754 3.061c-.502.559-1.28.697-1.865.095l-2.854-2.938c-.29-.177-.473-.376-.924-.403l-3.107.069c-.302.006-.659.12-.662.632z" fill="#faa"/>
   <path d="M34.515 57.239l-.012 2.295c-.003.493.048.789.54 1.06l2.123 1.173c1.031.525.775 1.25.066 1.835l-2.649 2.324c-.195.171-.458.313-.438.97l.142 4.65c.027.908.87.997 1.456.508l5.81-4.852c.955-.797 1.36-.577 1.88-.21l7.05 4.97c.732.515 1.418.253 1.447-.66l.102-3.156c.032-.97-.454-1.286-1-1.656l-3.338-2.263c-.752-.51-1.016-1.258.062-1.793l3.959-1.966c.81-.401.96-.763.95-1.321l-.032-2.003c-.007-.435-.292-.684-.947-.69l-3.845-.036c-.527-.005-.827-.065-1.16.305l-2.754 3.061c-.502.559-1.28.697-1.865.095l-2.854-2.938c-.29-.177-.473-.376-.924-.403l-3.107.069c-.302.006-.659.12-.662.632z" fill="url(#linearGradient1018)"/>
  </g>
 </g>
 <path d="M46.563 6.254c.586-.623.94-.902 2.022-.955.332.04.582.02.904.097 1.363.324 1.679.642 2.385 1.426-.818-.641-1.178-.806-2.486-.937-.308-.031-.481-.06-.796-.094-.976-.165-1.336.01-2.03.463z" fill="#fff" fill-rule="evenodd"/>
 <path d="M54.602 35.278c-1.165-1.186-2.68-1.698-3.865-1.892a58.028 58.028 0 0 0-2.067-.09s.807.2 2 .448c1.114.359 2.429.975 3.43 2.021.743.765 1.48 1.652 1.48 1.652s-.083-1.217-.978-2.14zM50.94 66.82c-1.47-1.007-3.138-1.725-3.138-1.725s1.272 1.295 2.742 2.302l-.03-.023c.368.288.863.873.863.873s.26-.802-.408-1.405l-.014-.012zM52.63 48.34a1.1 1.1 0 0 0-.251-.383c-.25-.2-.52-.238-.732-.177-.27.064-.495.172-.68.25-1.145.474-2.204.435-2.204.435s.99.454 2.382.117c.23-.055.44-.128.624-.15.086.007.151 0 .12.017a.479.479 0 0 1 .098.166c.162.399.217 1 .293 1.417.08.442.191.718.191.718l.164-.71c.094-.409.223-1.034.009-1.666a1.084 1.084 0 0 0-.013-.034zM52.07 56.923c-.328-.259-.629-.266-.78-.236a6.33 6.33 0 0 0-1.023.035c-.8.104-1.379.243-1.379.243s.58.136 1.375.236c.284.044.645.094.952.148.234.073.4.032.352.06a.246.246 0 0 1-.023-.026l.002.002c.072.08.157.248.26.408.057.092.113.18.155.242.015.038.09.139.076.12l.002.002.002-.001c-.006.009.054-.075.069-.13.035-.07.077-.167.107-.287a.885.885 0 0 0-.097-.754l-.01-.014a.448.448 0 0 0-.04-.048z" fill="#fff"/>
</svg>
