<svg version="1.1" viewBox="0 0 100 100" xmlns="http://www.w3.org/2000/svg" xmlns:xlink="http://www.w3.org/1999/xlink">
 <defs>
  <linearGradient id="innoGrad1">
   <stop stop-color="#ff8080" offset="0"/>
   <stop stop-color="#faa" offset="1"/>
  </linearGradient>
  <linearGradient id="linearGradient1169" x1="37.767" x2="45.697" y1="17.189" y2="20.377" gradientUnits="userSpaceOnUse" xlink:href="#innoGrad1"/>
  <linearGradient id="linearGradient889" x1="39.019" x2="48.797" y1="15.173" y2="6.111" gradientUnits="userSpaceOnUse" xlink:href="#innoGrad1"/>
 </defs>
 <g fill="#ff8080">
  <g stroke-width=".234">
   <path d="M31.909 69.412s3.291 2.509 5.232 4.26c.275.247.295.731.208 1.091-.471 1.937-2.6 8.583-2.6 8.583l2.392 3.277 3.667-8.752c.75-.731 1.842.426 5.083 3.35.326.295.266.88.038 1.118l-6.552 6.104 1.82 1.769 8.11-6.196c.597-.368 3.544 2.583 5.302 4.375 1.312 1.338-2.037 2.927-10.872 1.694l4.49 2.432 9.788-2.8.084-2.125c.802-.65 2.463-1.923 2.237-2.751-1.354-4.962-2.527-8.558-3.242-8.247l-1.228.458 4.057-4.265 3.971 13.127-4.96 2.53-16.436-14.2-11.807-9.207z" stroke="#000"/>
   <path d="M64.698 69.54s.866.323.932.79c.417 2.957-.654 8.101-2.827 10.996l1.091 4.588 4.12-8.827.076-11.374zM57.328 63.125s-.406-.984.203-1.015c1.783-.09 5.043-.26 5.606-.192.893.106 1.621 2.842 1.427 3.412-.301.884-5.109 4.856-5.109 4.856l.468 2.6 8.167-7.073-1.925-5.514-12.716.989z" stroke="#000"/>
   <path d="M52.745 51.045c3.15 1.064 6.698 3.46 8.865 7.23.521.907.2.868-.26 1.144l3.957.104-4.344-5.773-5.903-3.798-3.277-.858z" stroke="#1a1a1a"/>
   <path d="M48.715 51.757c.717 2.344 1.677 5.715 2.143 7.679.29 1.226-1.468.763-1.468.763l5.488-.078-3.906-12.287c-9.192 4.736-2.91 2.125-2.257 3.923z" stroke="#000"/>
   <path d="M42.716 52.661c-.449 2.657-1.589 6.434-1.589 6.434-.162.706-1.213.926-1.213.926-2.145.678-7.719.464-7.719.464l-.366 1.952c2.358-.034 4.293-.017 7.179.004.73.005 1.291.293 1.082 1.28-.908 4.297-1.748 6.914-1.748 6.914l3.006 2.663 5.554-24.422-6.49.89s1.391.99 2.008 1.476c.447.352.402.792.296 1.419z" stroke="#000"/>
  </g>
  <path d="M44.787 60.72l10.871-.52 4.89 13.783-10.352 8.063-8.848-8.748z"/>
  <path d="M38.626 93.196c6.678 3.57 13.513 4.754 21.686-.218.26-.39 1.857 1.366 3.255 2.297.749.5 2.81-1.01 2.81-1.01l-1.71-5.556-13.168 5.811-11.512-2.574zM24.743 59.87c-1.89.209-3.241.2-3.303 1.197-.046.744.168 1.013 3.464 3.674.424.343.328.73.27 1.234-1.096 9.686 2.698 17.44 7.64 22.869.871.958.508.172-.282 4.998-.198 1.211 1.51 2.053 2.244 1.958.41-.054 1.78-.775 1.78-.775l2.613-3.46-8.426-15.345-.416-14.408z" stroke="#000" stroke-width=".234"/>
 </g>
 <path d="M43.113 13.422c-2.38 5.81-3.117 12.189-2.652 18.422A74.132 74.132 0 0 0 42.14 43c1.128-.781 2.656-.959 3.712-.747-1.228-5.775-2.364-11.366-1.91-17.31.246-3.416 1.064-6.78 2.336-9.958.202-.397-.33-.414-.575-.466-.912-.212-1.755-.675-2.546-1.14z" fill="url(#linearGradient1169)"/>
 <path d="M46.883 2.47c-2.808.004-5.426 2.214-5.842 5.004-.359 2.095.434 4.365 2.093 5.714 1.4 1.204 3.38 1.715 5.186 1.292 2.639-.53 4.717-2.993 4.78-5.688.173-2.9-2.028-5.743-4.911-6.21a6.742 6.742 0 0 0-1.306-.111z" fill="url(#linearGradient889)"/>
 <path d="M53.146 8.542a6.117 6.117 0 0 1-6.117 6.117 6.117 6.117 0 0 1-6.118-6.118 6.117 6.117 0 0 1 6.118-6.117 6.117 6.117 0 0 1 6.117 6.117zM43.157 13.261C38.972 23.423 39.9 32.988 42.14 43M45.85 42.253c-2.114-9.444-3.495-18.016.613-27.625" fill="none" stroke="#000" stroke-width=".234"/>
 <path d="M49.485 4.075c-.986-.604-2.11-.579-2.11-.579s.955.554 1.805 1.077c.295.18.579.39.853.636a19.097 19.097 0 0 1 1.744 1.84s-.302-1.325-1.354-2.275a6.39 6.39 0 0 0-.938-.7z" fill="#fff"/>
 <g fill="#ff8080">
  <path d="M44.834 41.857c-.694 0-2.765.375-3.014.662-.447.516-.721 1.294-.831 1.676-.074.256-.208 1.87-.208 1.87l4.209-.26z" stroke="#000" stroke-width=".234"/>
  <path d="M27.258 59.861c3.433-10.73 11.228-14.64 17.123-16.08.73-3.033.78-4.147 1.37-4.395 1.011-.423 2.329-.265 3.118-.105l1.38 5.626-12.64 7.074-6.918 9.259z" stroke="#000" stroke-width=".234"/>
  <path d="M68.57 59.9l4.435.221-3.03 3.901z"/>
 </g>
 <g stroke="#000">
  <path d="M48.456 44.566a25.62 21.893 83.496 0 0-2.181.185 25.62 21.893 83.496 0 0-18.228 28.5 25.62 21.893 83.496 0 0 25.12 22.27 25.62 21.893 83.496 0 0 18.228-28.5 25.62 21.893 83.496 0 0-22.94-22.455zm.19 4.859a20.808 17.682 83.612 0 1 18.531 18.242 20.808 17.682 83.612 0 1-14.716 23.141A20.808 17.682 83.612 0 1 32.17 72.715a20.808 17.682 83.612 0 1 14.716-23.141 20.808 17.682 83.612 0 1 1.76-.15z" fill="#f00" stroke-width=".234"/>
  <path d="M48.457 44.566a21.893 25.62-6.504 0 0-2.181.185 21.893 25.62-6.504 0 0-18.228 28.5 21.893 25.62-6.504 0 0 25.12 22.27A21.893 25.62-6.504 0 0 71.396 67.02a21.893 25.62-6.504 0 0-22.939-22.454zm.189 4.86a17.682 20.808-6.388 0 1 18.53 18.24A17.682 20.808-6.388 0 1 52.459 90.81 17.682 20.808-6.388 0 1 32.17 72.715a17.682 20.808-6.388 0 1 14.717-23.143 17.682 20.808-6.388 0 1 1.759-.146z" fill="#faa" stroke-width=".23303"/>
  <path d="M48.5 45.85a24.333 20.828 83.424 0 0-2.076.176 24.333 20.828 83.424 0 0-17.34 27.069 24.333 20.828 83.424 0 0 23.896 21.15 24.333 20.828 83.424 0 0 17.341-27.068A24.333 20.828 83.424 0 0 48.5 45.85zm.12 2.447a21.881 18.73 83.424 0 1 19.625 19.178 21.881 18.73 83.424 0 1-15.593 24.34 21.881 18.73 83.424 0 1-21.493-19.018 21.881 18.73 83.424 0 1 15.594-24.34 21.881 18.73 83.424 0 1 1.867-.16z" fill="#ffb380" stroke-width=".234"/>
 </g>
 <g fill="#fca" stroke="#000" stroke-width=".234">
  <path d="M45.66 59.916c9.144-.352 17.323-.781 27.662-.975 1.27-.024 1.679 1.89.73 2.721L60.645 73.374l-.688-1.92c3.915-3.434 7.982-6.98 11.974-10.645-7.376.197-17.387.71-26.518.986z"/>
  <path d="M42.28 73.514c3.662-12.562 5.566-22.976 6.613-30.336l5.136 16.384 1.91-.102c-2.238-6.748-3.62-12.547-6.505-19.779-.286-.718-1.777-.471-1.873.167-1.115 7.369-3.68 21.045-6.947 32.581z"/>
  <path d="M24.255 60.051c-.539.408-.69 1.162.44 2.008 5.826 4.365 10.9 7.624 23.838 18.647.572.492 1.946-.953 1.341-1.475C38.131 69.087 32.22 64.816 28.13 61.957l13.796-.061c1.003-.01 1.34-2.155.419-2.127 0 0-13.234.051-16.381.043-.74-.002-1.409.013-1.708.24zM51.05 82.15s7.853 7.783 13.706 12.222c.637.483 2.345-.021 2.11-1.143-1.589-7.56-6.65-21.94-9.579-30.41-.337-.975-2.24-.765-1.984-.023 2.809 8.11 6.507 18.137 9.376 29.126-4.8-3.626-9.677-8.42-12.381-10.873z"/>
  <path d="M39.71 75.497s-3.51 10.826-4.946 18.03c-.156.784 1.044 2.1 1.95 1.398 6.106-4.733 15.504-13.1 21.603-19.323.83-.848-.315-2.359-1.012-1.673-6.116 6.02-11.546 11.308-20.37 18.458 1.162-5.902 3.063-11.038 4.315-16.049.21-.836-1.309-1.686-1.54-.84z"/>
 </g>
 <path d="M46.397 62.966l4.002 3.11-.927 4.493-5.048 1.96z" fill="#ffb380"/>
 <path d="M46.397 62.966l4.002 3.11 3.62-.157.084-3.286z" fill="#fca"/>
 <path d="m55.33 70.316 1.563 1.675-5.982 6.117 1.609-4.918z" fill="#ffb380"/>
 <path d="m54.02 65.92 1.31 4.396 1.563 1.675-2.79-9.358z" fill="#fca"/>
 <path d="m49.472 70.57 3.048 2.62-1.609 4.918-6.487-5.578z" fill="#f95"/>
 <path d="m50.911 78.108-6.487-5.578 1.973-9.564 7.706-0.333 2.79 9.358z" fill="none" stroke="#000" stroke-width=".234"/>
 <path d="M50.399 66.076l3.62-.157 1.311 4.397-2.81 2.874-3.048-2.62z" fill="#ffe6d5"/>
 <g stroke="#000" stroke-width=".234">
  <path d="m46.397 62.966 4.002 3.11" fill="#f00"/>
  <path d="M52.52 73.19l-3.048-2.62.927-4.494 3.62-.157 1.311 4.397z" fill="none"/>
  <path d="m54.02 65.92 0.083-3.287m1.227 7.683 1.563 1.675m-4.373 1.199-1.609 4.918m-6.487-5.578 5.048-1.96" fill="#f00"/>
 </g>
 <path d="M30.296 69.256c.033-.208-.099-.381-.18-.537a1.268 1.268 0 0 1-.108-.318s-.167.001-.362.155c-.197.156-.366.425-.349.662-.075.125.107.367.303.476.199.11.32.033.32.033s.011-.133.13-.209c.118-.074.31-.109.246-.262zM30.38 70.95c.011-.146-.401-.54-.401-.54s-.578.098-.597.48a3.314 3.314 0 0 0-.005.217c.02 1.482 1.088 2.44 1.088 2.44s-.095-1.376-.088-2.446c0-.052 0-.103.003-.15zM35.171 84.516c-.426-.624-.815-1.304-1.148-1.853-.328-.54-.576-.893-.576-.893s.009.43.103 1.063c.094.632.29 1.484.79 2.24.072.171.348.29.58.295.232.006.342-.103.342-.103s-.059-.14-.044-.288c.014-.15.084-.328-.047-.46zM59.268 49.55c-.617-.416-1.299-.63-1.874-.763-.96-.228-1.665-.185-1.665-.185s.596.33 1.413.812c.492.295 1.067.622 1.565.963.056.038.107.075.152.11.099.144.268.056.41.04a.428.428 0 0 1 .26.064s.133-.07.164-.301c.031-.231-.053-.529-.217-.59a3.693 3.693 0 0 0-.208-.15zM61.035 50.825c-.18-.152-.652.118-.652.118s-.136.524.006.645c.051.044.103.09.16.144.278.26.942.282.942.282s.108-.664-.254-1.008a4.877 4.877 0 0 0-.202-.181zM53.502 66.297c-1.102-.008-2.205.234-2.205.234s1.1.258 2.201.266l-.23-.158a13.17 13.17 0 0 0 1.107 2.111s-.205-1.194-.643-2.295l-.062-.157z" fill="#fff"/>
</svg>
