<svg xmlns="http://www.w3.org/2000/svg" xmlns:xlink="http://www.w3.org/1999/xlink" viewBox="0 0 256 256">
    <defs>
        <linearGradient id="elementalEarth1">
            <stop offset="0" stop-color="#c78c38"/>
            <stop offset="1" stop-color="#e3a347"/>
        </linearGradient>
        <linearGradient id="elementalEarth3">
            <stop offset="0" stop-color="#927f72"/>
            <stop offset="1" stop-color="#ac9d93"/>
        </linearGradient>
        <linearGradient id="linearGradient4219" x1="95.357" x2="155.357" y1="204.214" y2="89.571" gradientUnits="userSpaceOnUse" xlink:href="#elementalEarth3"/>
    </defs>
    <path fill="url(#linearGradient4219)" fill-rule="evenodd" stroke="#6c5d53" stroke-width="2.911" d="M149.652 233.186l-63.956-2.017-55.024-54.797-10.004-48.41 20.008-40.678 17.15-41.014 73.961-17.817 67.53 27.567 19.651 49.418 15.721 53.452-35.372 48.746z"/>
    <path fill="none" stroke="#6c5d53" stroke-width="2.911" d="M31.03 176.708l52.522-16.137 48.95 25.214 16.436 46.056M132.502 185.112l27.155-35.635 46.448-8.74 27.87 18.49"/>
    <path fill="none" stroke="#6c5d53" stroke-width="2.911" d="M206.105 141.073L165.374 108.8l-6.432-27.23 41.447-25.55M159.3 81.233l-56.811-4.37L58.184 46.27M100.703 76.527l-3.573 37.315 62.17 35.3M97.13 113.506l-13.578 46.73M21.025 128.634l75.39-14.792"/>
    <path fill="none" stroke="#eacfb7" stroke-width="5.367" d="M144.697 206.297c-.041-4.352-1.528-4.459-1.528-4.459-2.81-7.584-4.71-19.547-6.66-25.784-3.145-6.873-4.841-13.447-5.654-20.906M117.967 153.105l-.12 21.355c-.784 6.159-1.262 20.045-1.504 24.92-.438 3.845-1.19 1.076-1.409 5.798"/>
    <path fill="none" stroke="#eacfb7" stroke-width="4.463" d="M119.24 122.042c-6.162.142-7.942 7.923-7.667 9.586.322 1.955 6.418 6.69 6.494 12.22M131.95 121.838c7.877.094 10.089 7.2 9.991 10.15-.051 1.548-9.28 4.56-10.636 12.734"/>
    <g fill="#eacfb7" stroke="#eacfb7" transform="matrix(.73897 0 0 .7488 30.086 45.31)">
        <path fill-rule="evenodd" stroke-width="3.608" d="M115.462 148.482l24.584-1.246c-1.17-8.243-.285-15.855-5.083-24.936-3.602-6.819 7.163-7.261 4.725-21.506-.339-1.98-18.295-1.398-19.142.232-7.482 14.4 8.92 15.195 1.735 21.363-5.024 4.314-8.075 15.927-6.819 26.093z"/>
        <ellipse cx="131.009" cy="83.903" stroke-linecap="round" stroke-linejoin="round" stroke-width="3.608" rx="7.206" ry="8.121" transform="rotate(1.158)"/>
        <path fill-rule="evenodd" stroke-width="3.608" d="M134.945 113.701c-23-17.732-41.612-30.086-46.25-54.488-25.442 6.497-40.937 20.01-50.364 37.8l26.686-3.398 13.85 12.448 26.921-2.551z"/>
        <path fill-rule="evenodd" stroke-width="3.608" d="M128.202 109.717c23.698-16.789 42.794-28.38 48.415-52.575 25.158 7.52 40.094 21.647 48.794 39.804l-26.526-4.473-14.341 11.877-26.797-3.636z"/>
        <path fill-rule="evenodd" d="M121.517 101.019c1.303-4.837-.66-8.596-.723-13.638l16.934-.937c-.193 4.982-.78 11.265-.184 14.558zM124.112 83.587c-8.513-7.05-8.095-13.589-8.571-20.179 1.964 6.216 2.308 12.684 11.518 17.768zM133.989 83.319c6.995-7.05 6.652-13.589 7.043-20.179-1.613 6.216-1.897 12.685-9.464 17.768z"/>
    </g>
</svg>
