<svg xmlns="http://www.w3.org/2000/svg" viewBox="0 0 256 256">
    <path fill="none" stroke="#e005a5" stroke-width="7.665" d="M154.597 214.648c-.06-6.215-2.182-6.367-2.182-6.367-4.012-10.83-6.727-27.914-9.511-36.82-4.491-9.816-6.913-19.203-8.073-29.854M116.426 138.69l-.17 30.493c-1.12 8.796-1.803 28.626-2.15 35.588-.625 5.49-1.697 1.536-2.01 8.278"/>
    <path fill="none" stroke="#e005a5" stroke-width="6.373" d="M118.243 94.33c-8.798.203-11.34 11.314-10.948 13.69.46 2.791 9.166 9.552 9.274 17.45M136.394 94.039c11.248.135 14.407 10.281 14.267 14.495-.073 2.21-13.25 6.51-15.188 18.184"/>
    <g fill="#e005a5" transform="matrix(1.05525 0 0 1.0693 -9.07 -15.244)">
        <path fill-rule="evenodd" stroke="#e005a5" stroke-width="3.608" d="M115.462 148.482l24.584-1.246c-1.17-8.243-.285-15.855-5.083-24.936-3.602-6.819 7.163-7.261 4.725-21.506-.339-1.98-18.295-1.398-19.142.232-7.482 14.4 8.92 15.195 1.735 21.363-5.024 4.314-8.075 15.927-6.819 26.093z"/>
        <ellipse cx="131.009" cy="83.903" stroke="#e005a5" stroke-linecap="round" stroke-linejoin="round" stroke-width="3.608" rx="7.206" ry="8.121" transform="rotate(1.158)"/>
        <path fill-rule="evenodd" stroke="#e005a5" stroke-width="3.608" d="M134.945 113.701c-23-17.732-41.612-30.086-46.25-54.488-25.442 6.497-40.937 20.01-50.364 37.8l26.686-3.398 13.85 12.448 26.921-2.551z"/>
        <path fill-rule="evenodd" stroke="#e005a5" stroke-width="3.608" d="M128.202 109.717c23.698-16.789 42.794-28.38 48.415-52.575 25.158 7.52 40.094 21.647 48.794 39.804l-26.526-4.473-14.341 11.877-26.797-3.636z"/>
        <path fill-rule="evenodd" stroke="#e005a5" d="M121.517 101.019c1.303-4.837-.66-8.596-.723-13.638l16.934-.937c-.193 4.982-.78 11.265-.184 14.558z"/>
        <path fill-rule="evenodd" d="M124.112 83.587c-8.513-7.05-8.095-13.589-8.571-20.179 1.964 6.216 2.308 12.684 11.518 17.768zM133.989 83.319c6.995-7.05 6.652-13.589 7.043-20.179-1.613 6.216-1.897 12.685-9.464 17.768z"/>
    </g>
</svg>
