<svg xmlns="http://www.w3.org/2000/svg" viewBox="0 0 256 256">
    <path fill="none" stroke="#ff6bda" stroke-dasharray="5.27075995,2.63537997" stroke-linecap="round" stroke-linejoin="round" stroke-width="1.318" d="M33.978 214.583c9.346.193 42.576.458 48.665.023 13.28-.95 7.986-46.326 5.723-55.655-1.452-5.991-14.031-14.235-23.025-14.266 3.203-9.266 17.543-9.709 11.673-13.922-7.15-5.133-11.743 2.592-11.743 2.592-2.469-.748-1.064-4.427-5.82-4.79-4.513-.343-2.596 5.436-4.02 4.242-3.785-3.174-6.862-4.807-10.091-3.134-5.73 2.969 7.693 7.717 10.629 15.432-8.478-.521-23.254 6.63-25.588 12.793-3.502 9.252-11.51 56.373 3.597 56.685z"/>
    <path fill="#ff6bda" fill-rule="evenodd" d="M64.348 117.595c1.088-74.904 76.756-94.084 114.547-41.727C154.3 51.986 77.328 46.028 64.348 117.595z"/>
    <path fill="#b1976d" fill-rule="evenodd" d="M178.562 152.844c9.346.193 42.576.458 48.665.023 13.28-.95 7.986-46.326 5.724-55.655-1.453-5.99-14.032-14.235-23.025-14.266 3.202-9.266 17.543-9.709 11.673-13.922-7.15-5.133-11.744 2.592-11.744 2.592-2.469-.748-1.064-4.427-5.82-4.79-4.513-.343-2.596 5.436-4.02 4.242-3.784-3.174-6.862-4.807-10.091-3.134-5.73 2.969 7.694 7.717 10.63 15.432-8.479-.521-23.255 6.63-25.588 12.793-3.503 9.253-11.51 56.373 3.596 56.685z"/>
    <g fill="none" stroke="#fc0" stroke-linecap="round" stroke-width="6" transform="matrix(-1.21 0 0 1.21 449.885 -134.352)">
        <ellipse cx="203.571" cy="211.268" stroke-linejoin="round" rx="9.441" ry="11.137"/>
        <path d="M196.98 201.83c-.253-.505-3.536-4.798-3.536-4.798M209.733 202.083l3.41-4.924M198.116 221.023l-3.283 4.672M210.112 219.887c.631.379 4.42 5.177 4.42 5.177"/>
    </g>
    <path fill="#808080" fill-rule="evenodd" d="M214.148 83.838l-17.934.324s-.54-5.078-.108-5.078c.432 0 17.934.324 17.934.324z"/>
</svg>
