<svg xmlns="http://www.w3.org/2000/svg" xmlns:xlink="http://www.w3.org/1999/xlink" viewBox="0 0 256 256">
    <defs>
        <linearGradient id="innoGrad13">
            <stop offset="0" stop-color="#f95"/>
            <stop offset="1" stop-color="#ffb380"/>
        </linearGradient>
        <linearGradient id="innoGrad6">
            <stop offset="0" stop-color="#f55"/>
            <stop offset="1" stop-color="#ff8080"/>
        </linearGradient>
        <linearGradient id="innoGrad11">
            <stop offset="0" stop-color="#faa"/>
            <stop offset="1" stop-color="#ff8080"/>
        </linearGradient>
        <linearGradient id="innoGrad12">
            <stop offset="0" stop-color="#f55"/>
            <stop offset="1" stop-color="#ff2a2a"/>
        </linearGradient>
        <linearGradient id="innoGrad7">
            <stop offset="0" stop-color="#f55"/>
            <stop offset="1" stop-color="#ff2a2a"/>
        </linearGradient>
        <linearGradient id="innoGrad8">
            <stop offset="0" stop-color="#f55"/>
            <stop offset="1" stop-color="#ff2a2a"/>
        </linearGradient>
        <linearGradient id="innoGrad3">
            <stop offset="0" stop-color="#ff8080"/>
            <stop offset="1" stop-color="#f55"/>
        </linearGradient>
        <linearGradient id="innoGrad2">
            <stop offset="0" stop-color="#f55"/>
            <stop offset="1" stop-color="#ff8080"/>
        </linearGradient>
        <linearGradient id="innoGrad4">
            <stop offset="0" stop-color="#f55"/>
            <stop offset="1" stop-color="#ff8080"/>
        </linearGradient>
        <linearGradient id="innoGrad10">
            <stop offset="0" stop-color="#f55"/>
            <stop offset="1" stop-color="#ff8080"/>
        </linearGradient>
        <linearGradient id="innoGrad9">
            <stop offset="0" stop-color="#f55"/>
            <stop offset="1" stop-color="#ff8080"/>
        </linearGradient>
        <linearGradient id="innoGrad1">
            <stop offset="0" stop-color="#f55"/>
            <stop offset="1" stop-color="#ff8080"/>
        </linearGradient>
        <linearGradient id="innoGrad5">
            <stop offset="0" stop-color="#ff8080"/>
            <stop offset="1" stop-color="#faa"/>
        </linearGradient>
        <linearGradient id="linearGradient4168" x1="122.228" x2="115.915" y1="86.547" y2="69.122" gradientUnits="userSpaceOnUse" xlink:href="#innoGrad5"/>
        <linearGradient id="linearGradient4176" x1="84.6" x2="68.185" y1="64.576" y2="74.425" gradientUnits="userSpaceOnUse" xlink:href="#innoGrad1"/>
        <linearGradient id="linearGradient4184" x1="85.358" x2="74.751" y1="63.313" y2="63.818" gradientUnits="userSpaceOnUse" xlink:href="#innoGrad9"/>
        <linearGradient id="linearGradient4192" x1="94.702" x2="96.47" y1="91.598" y2="84.779" gradientUnits="userSpaceOnUse" xlink:href="#innoGrad10"/>
        <linearGradient id="linearGradient4200" x1="137.633" x2="134.098" y1="87.305" y2="79.476" gradientUnits="userSpaceOnUse" xlink:href="#innoGrad4"/>
        <linearGradient id="linearGradient4208" x1="106.824" x2="105.561" y1="98.164" y2="108.518" gradientUnits="userSpaceOnUse" xlink:href="#innoGrad2"/>
        <linearGradient id="linearGradient4216" x1="165.412" x2="152.28" y1="59.778" y2="65.334" gradientUnits="userSpaceOnUse" xlink:href="#innoGrad3"/>
        <linearGradient id="linearGradient4224" x1="110.359" x2="107.329" y1="18.614" y2="35.534" gradientUnits="userSpaceOnUse" xlink:href="#innoGrad8"/>
        <linearGradient id="linearGradient4232" x1="146.977" x2="127.279" y1="16.089" y2="37.555" gradientUnits="userSpaceOnUse" xlink:href="#innoGrad7"/>
        <linearGradient id="linearGradient4240" x1="96.47" x2="97.985" y1="31.999" y2="43.615" gradientUnits="userSpaceOnUse" xlink:href="#innoGrad12"/>
        <linearGradient id="linearGradient4248" x1="95.712" x2="96.722" y1="45.383" y2="59.02" gradientUnits="userSpaceOnUse" xlink:href="#innoGrad11"/>
        <linearGradient id="linearGradient4256" x1="138.138" x2="137.128" y1="61.293" y2="29.978" gradientUnits="userSpaceOnUse" xlink:href="#innoGrad6"/>
        <linearGradient id="linearGradient4264" x1="158.036" x2="182.857" y1="133.857" y2="105.643" gradientUnits="userSpaceOnUse" xlink:href="#innoGrad13"/>
        <linearGradient id="linearGradient4272" x1="159.821" x2="124.643" y1="185.821" y2="169.393" gradientUnits="userSpaceOnUse" xlink:href="#innoGrad13"/>
    </defs>
    <g fill-rule="evenodd">
        <path fill="url(#linearGradient4272)" stroke="#000" d="M163.72 189.423c-2.453-4.06-4.201-8.564-9.214-11.014-5.971-27.317-33.94-12.576-45.587-12.802 10.566 5.01 8.68 12.36 17.744 19.34 5.355 4.124 20.29 5.053 26.148-4.262 5.042 1.468 8.368 8.084 11.803 14.374z"/>
        <path d="M154.46 181.412l.206-.456c-9.18-4.051-12.423-6.53-16.869-8.66-4.344-2.08-9.527-3.63-22.084-5.606 12.546 2.144 17.649 3.853 21.86 6.054 4.154 2.17 7.645 4.954 16.681 9.123l.206-.455z"/>
        <path fill="url(#linearGradient4264)" stroke="#000" d="M154.512 145.352c.162-4.74-.505-9.525 2.678-14.107-8.095-26.765 23.512-27.52 33.572-33.393-6.786 9.524-1.557 15.024-6.072 25.536-2.667 6.21-15.256 14.298-24.91 9.018-3.688 3.739-3.369 11.138-3.304 18.303z"/>
        <path d="M159.096 134.142c5.859-8.044 7.55-12.176 10.12-16.095 2.606-3.974 6.23-7.953 16.14-15.938-10.001 7.844-13.773 11.723-16.553 15.656-2.844 4.026-4.468 7.77-10.51 15.782z"/>
        <path fill="url(#linearGradient4232)" stroke="#000" d="M151.565 48.924c-.096-10.37 4.269-28.397-.892-31.161-6.233-3.337-7.868-6.876-11.697-7.768-6.274-1.461-16.428 8.929-16.428 8.929 24.679 10.405 25.64 72.245 29.017 30z"/>
        <path fill="url(#linearGradient4224)" stroke="#000" d="M79.78 34.28c-2.239 35.69 15.612 41.14 58.125 9.465-7.216-34.463-48.923-34.86-58.125-9.464z"/>
        <path fill="#ff8080" stroke="#000" d="M88.262 77.495c0-.357-5.982-22.053-5.982-22.053 7.588 3.315 14.873 1.487 17.842-2.49 10.178-13.626 2.782-23.322 6.443-22.957 5.237.522 11.973 6.09 19.465 12.41z"/>
        <path fill="#f55" stroke="#000" d="M81.683 37.63c-.364-.072 9.69-17.023 18.75-13.839 41.46 14.57 6.75 22.991 5.982 22.5-10.934 1.186-21.926 2.461-24.732-8.66z"/>
        <path fill="url(#linearGradient4256)" stroke="#000" d="M137.458 53.477c-4.613-9.762.372-23.293-12.768-30.089-2.251-1.165-8.707-4.826-.357-5.357 2.342-.15 22.417-.024 21.607 7.232-.918 8.23.627 19.27 1.075 25.542.727 10.187-4.032 18.215-5.539 25.083-6.24-4.117-3.607-14.305-4.018-22.41z"/>
        <path fill="#ff7f2a" stroke="#000" d="M109.869 92.852c2.476-.972 1.665 4.845.536 15.179 21.278-3.845 19.357-10.516 18.928-14.822 10.736 2.87 20.007-5.384 23.393-10.357l-11.428-2.678z"/>
        <path fill="url(#linearGradient4216)" stroke="#000" d="M156.744 56.78c-4.42-17.046 7.934-12.417 9.196-6.696 6.892 31.224-19.414 37.44-30.535 39.733 6.637-12.352 24.72-20 21.339-33.036z"/>
        <path fill="url(#linearGradient4176)" stroke="#000" d="M97.711 92.146c-15.61 9.24-29.149 4.338-37.88-16.415-1.795-4.266-5.32-6.587-9.344-10.985-2.084-2.277 12.566-11.219 19.571-16.415z"/>
        <path fill="url(#linearGradient4240)" stroke="#000" d="M84.512 42.317c.867-.087 5.065-10.353 7.946-12.054 8.755-5.168 18.626 5.72 14.694 11.835-8.21 7.61-13.24 6.656-22.64.219z"/>
        <path fill="#f55" stroke="#000" d="M87.049 38.059c2.298 3.169 16.933-.938 14.553-4.822 0 0 2.437 14.004-2.589 15.715-10.311 3.51-12.46-10.728-11.964-10.893z"/>
        <path fill="url(#linearGradient4248)" stroke="#000" d="M81.923 38.924c-5.814 30.97 26.068 26.798 25.178 3.125-8.596 1.866-16.807 8.274-25.178-3.125z"/>
        <path fill="url(#linearGradient4184)" stroke="#000" d="M89.81 77.153l-5.96-22.079c-7.524-8.61 5.916-25.879-8.772-25.956-2.43-.013-3.425 19.938-8.303 22.142 7.678 8.632 17.873 32.864 23.035 25.893z"/>
        <path fill="#f55" stroke="#000" d="M82.224 49.245c-5.057 1.544 1.168 19.353 18.077 10.5 1.025-.536-6.158-1.082-11.02-3.768-4.305-2.379-6.246-6.98-7.057-6.732z"/>
        <path fill="url(#linearGradient4168)" stroke="#000" d="M85.851 82.138c5.493-26.544 44.557-53.219 49.732-39.464 19.607 52.113-34.12 53.147-49.732 39.464z"/>
        <path fill="url(#linearGradient4192)" stroke="#000" d="M81.423 75.479c-10.277-8.215-10.131 4.998-5.43 7.45 13.384 6.98 26.256 17.29 44.825 8.27 4.099-1.99-28.117-6.705-39.395-15.72z"/>
        <path fill="#f95" stroke="#000" d="M123.218 91.136c32.775 55.796 47 119.091 50.507 154.932l6.061-1.263c-8.23-36.689-11.631-85.466-51.265-156.7z"/>
        <path fill="url(#linearGradient4200)" stroke="#000" d="M110.94 88.834c17.8.011 32.101-18.088 39.911-41.428.882-2.636 2.69-1.46 3.304 0 6.38 15.176 7.928 31.064-29.554 49.732-17.727 7.295-84.245-1.773-13.66-8.304z"/>
        <path fill="url(#linearGradient4208)" stroke="#000" d="M137.057 93.165c-.687 3.824-1.408 7.436-18.08 9.866-8.975 1.307-6.852 15.124-26.965 9.821-4.401-1.16-11.022-1.074-20-.714-6.19.248-13.476-16.341 9.643-16.964 13.03-.352 19.015 6.944 39.995-1.541 1.802-.73 4.693.822 7.417.435 4.3-.612 8.316-2.723 7.99-.903z"/>
    </g>
</svg>
