<svg xmlns="http://www.w3.org/2000/svg" xmlns:xlink="http://www.w3.org/1999/xlink" cursor="default" viewBox="0 0 256 256">
    <defs>
        <linearGradient id="linearGradient2">
            <stop offset="0" stop-color="#f55"/>
            <stop offset="1" stop-color="#ff8080"/>
        </linearGradient>
        <linearGradient id="linearGradient0">
            <stop offset="0" stop-color="#ff8080"/>
            <stop offset="1" stop-color="#faa"/>
        </linearGradient>
        <linearGradient id="linearGradient1" x1="101.773" x2="156.826" y1="1023.825" y2="834.169" gradientUnits="userSpaceOnUse" xlink:href="#linearGradient0"/>
        <linearGradient id="linearGradient3" x1="158.341" x2="144.199" y1="1025.341" y2="853.867" gradientUnits="userSpaceOnUse" xlink:href="#linearGradient2"/>
    </defs>
    <g stroke="#000">
        <path fill="url(#linearGradient3)" fill-rule="evenodd" d="M141.429 844.862c-28.024 27.38-51.773 61.652-51.786 67.5-.009 3.734 1.844 5.596 3.393 8.036 4.753 7.487 6.635 7.481 9.821 11.071 7.976 8.988 12.798 15.97 23.929 26.965 10.374 10.758 13.383 19.16 18.571 29.285 2.315 4.518 3.178 9.216 6.25 12.857 5.072 6.012 9.049 11.184 10.357 18.036.294 1.54 1.56 2.445 2.857 3.036 1.616.736 3.653.693 3.75-.536.17-2.124-.054-3.855-.044-5.759.016-3.27.181-4.35.044-6.652-.217-3.652-2.857-6.396-3.125-11.383-.434-8.09.602-6.033 3-11.871 1.3-3.307 1.265-7.476-.053-8.978-1.622-1.848-8.858-1.517-12.5-3.928-8.037-5.32-9.643-15.357-14.464-23.036-7.08-11.195-9.65-21.359-21.965-33.75.887-4.904 19.76-22.26 29.643-33.393z" transform="translate(0 -796.362)"/>
        <path fill="url(#linearGradient1)" fill-rule="evenodd" d="M134.134 816.777c-.404 18.357 7.316 20.727 8.44 34.926.236 2.978-3.8 10.53-7.594 25.788-3.754 15.104-6.045 33.718-9.875 44.279-.804 2.22-2.714 4.553-3.18 9.13-.512 5.032-.003 12.385-.166 14.924-.774 12.105-13.174 39.948-21.213 58.841-.68 1.598-3.077 3.275-6.302 7.165-3.562 4.297-8.091 10.96-11.502 15.753-4.285 6.022-4.611 8.081-18.561 13.7-.63.254-1.205 1.893-1.19 2.572.027 1.097.89 1.305 1.947 1.974 2.435 1.541 6.154.704 9.033.832 2.945.13 7.22-.111 9.91-.878 1.71-.487 6.887-5.106 10.264-6.892 4.836-2.56 8.714-4.165 13.723-5.51 6.639-1.783 4.536-8.7 4.042-13.31-.95-8.87 5.243-16.563 9.85-23.74 14.842-23.127 19.89-30.577 21.465-45.456.4-3.786 2.237-7.376 2.967-11.112.68-3.479.251-7.025 1.263-10.354 1.413-4.65 14.693-26.28 21.698-46.049 1.541-4.347 4.02-9.596 7.155-13.676 4.044-5.266 8.92-9.87 9.66-16.1 1.059-8.921-3.702-17.553-8.145-25.317-2.76-4.823-6.819-15.91-6.819-15.91-11.28-4.575-22.482 1.607-36.87 4.42z" transform="translate(0 -796.362)"/>
        <path fill="none" d="M119.576 118.991c-.259.744-.382 1.026-1.406 2.366"/>
        <path fill="#ffd5d5" fill-rule="evenodd" d="M134.157 20.652c-.137-.316-1.747-5.127-1.097-6.109 5.346-2.338 11.347-4.58 15.748-4.993 7.756-.726 18.845-2.326 20.934 1.142l1.42 5.398c-9.235-3.245-24.431.832-37.005 4.562z"/>
    </g>
</svg>
