<svg xmlns="http://www.w3.org/2000/svg" xmlns:xlink="http://www.w3.org/1999/xlink" cursor="default" viewBox="0 0 256 256">
    <defs>
        <linearGradient id="linearGradient4250">
            <stop offset="0" stop-color="#f55"/>
            <stop offset="1" stop-color="#ff8080"/>
        </linearGradient>
        <linearGradient id="linearGradient4226">
            <stop offset="0" stop-color="#ff2a2a"/>
            <stop offset="1" stop-color="#ff8080"/>
        </linearGradient>
        <linearGradient id="linearGradient4232" x1="150.008" x2="128.794" y1="1025.593" y2="1015.239" gradientTransform="translate(-2.857 -.714)" gradientUnits="userSpaceOnUse" xlink:href="#linearGradient4226"/>
        <radialGradient id="radialGradient4258" cx="157.867" cy="957.671" r="27.093" fx="157.867" fy="957.671" gradientTransform="matrix(.46612 .5141 -3.14762 2.85381 3101.615 -1779.986)" gradientUnits="userSpaceOnUse" xlink:href="#linearGradient4250"/>
    </defs>
    <g fill-rule="evenodd">
        <path fill="url(#linearGradient4232)" stroke="#000" d="M135.357 1034.148l-19.464 7.143c-4.149 1.522-6.012-6.083-3.572-7.322 14.403-7.312 16.563-31.074 16.25-39.821-.65-18.205-25.364-57.98-34.912-79.832-2.59-5.928-6.597-9.744-7.766-11.597-2.258-3.577-4.189-7.006-6.267-9.61-3.287-4.119-6.785-7.116-6.59-12.354.194-5.224 12.757-56.812 15.535-61.741 18.814-2.936 32.956 2.903 42.679 17.812-13.93 19.33-22.18 40.01-19.107 45.536 14.227 18.78 20.403 35.445 22.678 52.41 2.308 17.206 9.792 26.43 15.447 58.304z" transform="translate(0 -796.362)"/>
        <path fill="#f55" stroke="#000" d="M87.857 24.393l3.929-11.429c3.734-7.829 47.171 14.909 45.089 20.447l-6.34 8.17c-7.233-7.905-35.75-21.998-42.678-17.188z"/>
        <path fill="url(#radialGradient4258)" stroke="#000" d="M129.978 820.07c2.182 14.787 4.338 35.021 4.798 52.528.228 8.674 4.557 15.293 8.586 26.012 1.915 5.093 3.186 9.892 3.03 14.773-.855 26.995 3.855 59.731-1.203 80.255-2.401 9.742-12.042 37.93-21.588 48.982-1.006 1.165-.864 5.04 1.074 5.177 6.692.469 13.378-.688 20.076-1.831 4.104-.7 8.06-1.465 9.218-7.324 1.24-6.279 6.458-9.86 11.238-14.52 6.003-5.855-2.092-13.274-.758-26.138 2.628-25.327 7.882-47.334 11.36-72.76 2.138-15.637-6.159-29.457-6.345-42.862-.342-24.612 2.113-37.827 3.661-63.66z" transform="translate(0 -796.362)"/>
        <path fill="#f55" stroke="#000" d="M172.902 25.107l1.071-13.08c-5.766-1.477-41.046-1.624-44.955-.223.29 3.475.285 8.273 1.116 13.035 13.899-.863 28.155-.774 42.768.268z"/>
        <path d="M111.513 83.648l-.5-.015c-.034 1.13.17 2.65.645 4.457.434 1.647.941 3.094 1.098 3.797-.117-.525-.44-2.375-.606-3.889-.219-1.988-.174-3.122-.137-4.335l-.5-.015z"/>
    </g>
</svg>
