<svg xmlns="http://www.w3.org/2000/svg" cursor="default" viewBox="0 0 256 256">
    <path fill="#fca" fill-rule="evenodd" d="M127.764 10.344c5.995-1.66 38.365-4.817 44.464 2.858 0 0-8.356 37.954-11.013 57.232-1.126 8.175-2.04 20.595-1.219 24.107 6.155 26.327-13.361 84.396-16.429 107.143-.545 4.042 1.77 6.378-.267 11.518-1.025 2.583 2.589 11.07 2.232 27.946.199 2.386-1.149 8.316-11.607 8.393-11.942.088-11.25-7.143-11.25-7.143s-.557-18.83-.536-22.321c.026-4.315 1.726-6.257 2.143-9.465.505-3.885.874-10.828 3.214-16.607 5.397-13.326.208-69.367 3.125-87.768 1.167-7.36-3.724-27.671-2.768-24.732z"/>
    <path fill="#faa" fill-rule="evenodd" stroke="#000" stroke-width=".5" d="M131.514 31.862c2.733-.548 28.401-1.135 36.25 2.59l-3.66 19.017c-9.084-.47-20.802-.565-32.144-.714zM160.532 74.452c-11.007.519-20.37-.277-29.732-1.072-.214 7.524-2.156 14.76-.536 22.59 9.483 2.723 19.597 2.718 30.09 1.07-.934-7.926-.56-15.33.178-22.588zM160.442 118.648c-10.093 1.306-20.374.92-30.803-.804l.268 19.375c9.526 1.202 19.819 3.28 27.143 1.965 1.987-6.631 2.726-13.575 3.392-20.536zM154.192 154.898l-4.196 17.054c-6.246-.52-13.191-1.388-20.09-2.233l.09-16.16c9.233.87 18.568 1.779 24.196 1.339zM145.8 190.344c-1.466 5.869-2.646 11.696-1.786 17.233-5.768-3.438-12.061-4.601-18.84-3.661-.08-5.578 2.423-7.748 3.84-16.607 5.915-.573 11.484.568 16.786 3.035zM144.639 225.255c.568 4.673.731 9.345.982 14.018-7.032-6.687-17.645-8.481-23.125.179-.034-5.702.13-11.304-.536-17.322 1.731-4.733 17.386-3.694 22.679 3.125z"/>
    <path fill="none" stroke="#000" d="M127.764 10.344c5.995-1.66 38.365-4.817 44.464 2.858 0 0-8.356 37.954-11.013 57.232-1.126 8.175-2.04 20.595-1.219 24.107 6.155 26.327-13.361 84.396-16.429 107.143-.545 4.042 1.77 6.378-.267 11.518-1.025 2.583 2.589 11.07 2.232 27.946.199 2.386-1.149 8.316-11.607 8.393-11.942.088-11.25-7.143-11.25-7.143s-.557-18.83-.536-22.321c.026-4.315 1.726-6.257 2.143-9.465.505-3.885.874-10.828 3.214-16.607 5.397-13.326.208-69.367 3.125-87.768 1.167-7.36-3.724-27.671-2.768-24.732z"/>
    <path fill="#fca" fill-rule="evenodd" d="M84.55 13.916c10.543 23.175 18.445 60.677 15.982 67.768-10.884 31.33-3.702 53.506-3.036 67.678.68 14.474 1.319 26.825 2.583 40.44.164 1.766-1.3 4.735-1.68 10.146-.299 4.249.603 10.875-.106 13.733-.743 2.997-3.598 12.74-3.565 23.36.018 5.718.905 14.7 10.179 15.178 6.127.317 12.76-2.802 12.857-7.857 0 0-.088-15.345.803-22.946.67-5.705-1-15.805-.267-18.125 1.658-5.254-.492-9.5-.804-14.286-2.002-30.729 12.795-61.001 11.786-92.143-.153-4.694 7.192-15.468 5.625-43.035-.85-14.95-6.072-43.661-6.072-43.661-6.286-14.902-43.55-1.536-44.285 3.75z"/>
    <path fill="#faa" fill-rule="evenodd" stroke="#000" stroke-width=".5" d="M91.514 32.934c2.784-3.294 28.713-12.858 40.268-4.822.875 6.165 2.096 12.445 2.321 18.393-15.628-.109-27.943 1.746-37.143 5.447-1.227-6.487-3.28-12.767-5.446-19.018zM100.175 70.166c24.443.51 30.635-.131 34.642-2.857.614 8.282-2.092 16.01-4.196 23.839-10.641 3.603-21.54.48-32.41-1.875 1.514-6.049 4.315-8.215 1.964-19.107zM94.639 108.38c11.458 4.162 22.916 5.436 34.375 1.518l-2.857 17.59c-11.423 5.229-21.821 4.441-31.34-1.519zM96.96 144.63c7.108 4.403 16.088 3.36 25.804.179l-3.84 18.839c-6.712 1.614-13.396 3.458-20.803-.714zM99.55 182.755c8.043.431 13.83-.015 17.589-1.25-.09 5.488.597 11.597 1.696 18.036-6.845.322-13.739 1.188-20.357-.982 2.235-8.17 1.308-11.454 1.072-15.804zM98.3 213.559a137.78 137.78 0 0 0 20.267 2.946l-.803 19.286c-6.85-5.582-14.49-6.946-22.768-4.91.594-5.92 1.536-11.739 3.304-17.322z"/>
    <path fill="none" stroke="#000" d="M84.55 13.916c10.543 23.175 18.445 60.677 15.982 67.768-10.884 31.33-3.702 53.506-3.036 67.678.68 14.474 1.319 26.825 2.583 40.44.164 1.766-1.3 4.735-1.68 10.146-.299 4.249.603 10.875-.106 13.733-.743 2.997-3.598 12.74-3.565 23.36.018 5.718.637 14.79 10.179 15.178 6.13.25 12.76-2.802 12.857-7.857 0 0-.088-15.345.803-22.946.67-5.705-1-15.805-.267-18.125 1.658-5.254-.492-9.5-.804-14.286-2.002-30.729 12.795-61.001 11.786-92.143-.153-4.694 7.192-15.468 5.625-43.035-.85-14.95-6.072-43.661-6.072-43.661-6.286-14.902-43.55-1.536-44.285 3.75z"/>
    <path fill="none" stroke="#000" stroke-width=".5" d="M87.378 19.624c3.48-4.035 25.844-15.014 42.11-5.43M170.968 18.867c-11.755-3.891-25.708-4.186-41.163-2.02"/>
</svg>
