<svg cursor="default" version="1.1" viewBox="0 0 256 256" xmlns="http://www.w3.org/2000/svg" xmlns:xlink="http://www.w3.org/1999/xlink">
 <defs>
  <linearGradient id="innoGrad1">
   <stop stop-color="#f55" offset="0"/>
   <stop stop-color="#ff8080" offset="1"/>
  </linearGradient>
  <linearGradient id="linearGradient840" x1="176.27" x2="142.1" y1="206.92" y2="156.47" gradientUnits="userSpaceOnUse" xlink:href="#innoGrad1"/>
  <linearGradient id="linearGradient842" x1="112.81" x2="90.576" y1="168.95" y2="133.42" gradientUnits="userSpaceOnUse" xlink:href="#innoGrad1"/>
 </defs>
 <g stroke-width="1.158">
  <path d="m20.905 135.36c-18.398 14.378-10.035 50.435-4.995 54.175 35.19 26.132 68.436 4.242 81.689-8.283 37.45-35.395 54.044-53.543 88.476-65.53 13.055-4.545 33.717-30.047 6.615-60.155-22.272 12.939-47.259 6.318-70.285-7.028-22.256 27.7-55.76 51.078-101.5 86.821z" fill="none" fill-rule="evenodd" stroke="#000"/>
  <path d="m129.43 39.438-8.902 11.443c14.043 10.363 43.782 24.304 74.255 7.075-3.619-5.019-4.784-10.192-7.059-15.21-15.929 6.322-35.693 11.257-58.294-3.308z" fill="#f55" fill-rule="evenodd" stroke="#000"/>
  <path d="m123.99 52.424 7.236-10.89m-4.129 12.753 7.053-11.145m-3.545 13.082 6.688-11.584m-2.522 13.594 6.103-12.132m-1.937 13.886 5.445-12.644m-1.498 14.106 4.823-13.192m-0.402 14.69 3.8-13.96m1.134 14.983 2.375-14.47m2.156 15.187 1.622-14.864m3.495 15.466 0.16-15.448m5.151 15.344-1.264-15.559m6.828 14.971-2.982-15.522m8.127 14.711-4.18-15.508m8.679 14.189-4.875-15.29m9.505 13.666-5.825-14.704m9.945 12.877-6.19-14.338" fill="none" stroke="#ff2a2a"/>
 </g>
 <g stroke="#000">
  <path d="m20.905 135.36c-18.398 14.378-10.035 50.435-4.995 54.175 35.19 26.132 68.436 4.242 81.689-8.283 37.45-35.395 54.044-53.543 88.476-65.53 13.055-4.545 33.717-30.047 6.615-60.155-22.272 12.939-47.259 6.318-70.285-7.028-22.256 27.7-55.76 51.078-101.5 86.821z" fill="url(#linearGradient842)" fill-rule="evenodd" stroke-width="1.158"/>
  <path d="m59.81 167.85c-18.397 14.378-10.034 50.435-4.996 54.176 35.19 26.13 68.437 4.241 81.69-8.284 37.45-35.394 54.043-53.543 88.475-65.53 13.056-4.545 33.717-30.047 6.615-60.155-22.272 12.94-47.258 6.318-70.284-7.028-22.257 27.7-55.761 51.078-101.5 86.822z" fill="url(#linearGradient840)" fill-rule="evenodd" stroke-width="1.158"/>
  <g>
   <path d="m156.48 86.6c-0.52592-0.91142-1.064-1.8178-1.6196-2.7168m-143.15 64.909c12.513 1.511 20.15 9.23 29.975 14.16" fill="none" stroke-width=".579"/>
   <path d="m59.81 167.85c-18.397 14.378-10.034 50.435-4.996 54.176 35.19 26.13 68.437 4.241 81.69-8.284 37.45-35.394 54.043-53.543 88.475-65.53 13.056-4.545 33.717-30.047 6.615-60.155-22.272 12.94-47.258 6.318-70.284-7.028-22.257 27.7-55.761 51.078-101.5 86.822z" fill="none" stroke-width="1.158"/>
   <path d="m168.34 71.933-8.901 11.443c14.042 10.364 43.782 24.304 74.255 7.075-3.62-5.019-4.784-10.192-7.059-15.21-15.93 6.322-35.693 11.258-58.295-3.308z" fill="#f55" fill-rule="evenodd" stroke-width="1.158"/>
  </g>
 </g>
 <path d="m162.9 84.919 7.236-10.89m-4.129 12.754 7.052-11.146m-3.545 13.083 6.688-11.585m-2.521 13.595 6.102-12.133m-1.936 13.886 5.444-12.643m-1.497 14.105 4.823-13.192m-0.403 14.69 3.801-13.96m1.133 14.984 2.376-14.471m2.155 15.187 1.622-14.864m3.495 15.467 0.161-15.449m5.151 15.344-1.264-15.558m6.827 14.97-2.981-15.522m8.127 14.711-4.18-15.508m8.678 14.189-4.874-15.289m9.505 13.666-5.825-14.705m9.945 12.878-6.19-14.339" fill="none" stroke="#ff2a2a" stroke-width="1.158"/>
 <path d="m218.57 150.28c-13.3-9.205-17.558-22.176-24.805-33.902m-143.15 64.909c12.513 1.512 20.149 9.23 29.974 14.16" fill="none" stroke="#000" stroke-width=".579"/>
</svg>
