<svg version="1.1" viewBox="0 0 64 64" xmlns="http://www.w3.org/2000/svg" xmlns:xlink="http://www.w3.org/1999/xlink">
 <g transform="matrix(1.1 0 0 1.1 -3.91 -2.1642)" fill="#ffb380">
  <g stroke="#ffb380">
   <path d="m11.951 32.819 0.118 11.304" stroke-width="5.8564"/>
   <path d="m12.142 25.075 0.022 12.812" stroke-linecap="round" stroke-width="6.2832"/>
   <path d="m13.235 37.188 40.747 0.057" stroke-width="8.7846"/>
  </g>
  <path d="m12.419 21.097c5.155-0.364 4.215 5.147 4.014 10.786h15.777l-0.035-13.888c-7.78-0.226-16.97 0.745-19.755 3.097z" fill-rule="evenodd"/>
  <path d="m53.34 32.871-0.02 10.963" stroke="#ffb380" stroke-width="5.8564"/>
  <path d="m53.149 25.126-0.022 12.812" stroke="#ffb380" stroke-linecap="round" stroke-width="6.2832"/>
  <path d="m52.872 21.148c-5.154-0.364-4.215 5.147-4.014 10.786h-15.775l0.034-13.888c7.78-0.226 16.97 0.745 19.755 3.097z" fill-rule="evenodd"/>
 </g>
</svg>
