<?xml version="1.0" encoding="UTF-8"?>
<svg cursor="pointer" version="1.1" viewBox="0 0 256 256" xmlns="http://www.w3.org/2000/svg">
 <path d="m128.48 22.04c-86.041-0.33373-130.67 95.384-78.709 185.96l-18.747 5.0854 10.681 19.836 44.149-17.491c-37.279-39.683-21.399-137.06 40.664-137.47 69.142-0.45827 75.64 102.93 44.424 138.27l44.22 17.726 10.593-21.16-19.216-7.1328c52.957-90.119 3.0377-183.3-78.06-183.62zm-24.118 17.783a12.953 12.645 0 0 1 12.953 12.645 12.953 12.645 0 0 1-12.953 12.651 12.953 12.645 0 0 1-12.953-12.651 12.953 12.645 0 0 1 12.953-12.645zm49.444 0.30765a12.953 12.645 0 0 1 12.947 12.645 12.953 12.645 0 0 1-12.953 12.645 12.953 12.645 0 0 1-12.953-12.645 12.953 12.645 0 0 1 12.953-12.645zm36.014 27.771a12.953 12.645 0 0 1 12.953 12.645 12.953 12.645 0 0 1-12.953 12.645 12.953 12.645 0 0 1-12.953-12.645 12.953 12.645 0 0 1 12.953-12.645zm-126.05 3.0533a12.953 12.645 0 0 1 12.953 12.645 12.953 12.645 0 0 1-12.953 12.645 12.953 12.645 0 0 1-12.953-12.645 12.953 12.645 0 0 1 12.953-12.645zm-14.943 37.306a11.655 11.384 0 0 1 11.655 11.39 11.655 11.384 0 0 1-11.655 11.379 11.655 11.384 0 0 1-11.655-11.379 11.655 11.384 0 0 1 11.655-11.384zm155.89 2.1622a11.655 11.384 0 0 1 11.655 11.379 11.655 11.384 0 0 1-11.661 11.384 11.655 11.384 0 0 1-11.655-11.384 11.655 11.384 0 0 1 11.655-11.379z" fill="#ffb380" fill-rule="evenodd" stroke-width="5.1823"/>
</svg>
