<svg xmlns="http://www.w3.org/2000/svg" viewBox="0 0 64 64">
    <g fill="#ff8080" fill-rule="evenodd" stroke="#000">
        <path d="M37.602 30.927c1.383-.662 3.676-1.775 4.93-3.295.165 2.738-.918 6.367.716 6.366 3.876 0 .997-5.99 1.098-7.57.622-4.402 1.878-4.634 1.733-7.968-.318-7.271-4.314-13.705-14.064-13.78-8.672-.066-13.601 5.921-13.515 12.384.059 4.45.469 5.03 1.012 10.605.833 6.391-2.359 12.475 1.53 12.519 4.78.054-.046-4.744.938-11.893 1.311 1.32 3.544 2.696 5.38 3.399.016 2.09-1.378 4.538.913 4.634 2.646.11 2.336-1.444 1.473-4.184 1.265.155 3.484.06 5.214-.362.864 2.107-1.612 10.73 1.015 10.554 4.492-.301 2.886-6.129 1.627-11.409zm-5.625-1.28c-6.588 0-11.931-5.137-11.936-11.483-.003-6.345 5.334-11.493 11.92-11.497 6.588-.004 11.931 5.136 11.936 11.482.004 6.346-5.333 11.493-11.92 11.498z"/>
        <path d="M26.793 25.22l13.28-10.113-16.558.305 13.842 9.902-5.535-16.32zM14.776 58.764c9.997.143 6.932 2.951 11.668 2.277 14.883-2.118.124-4.958-11.106-3.902-3.344.314-3.07 1.589-.562 1.625zM37.98 59.18c3.81-.419 2.387-.367 7.169-.535 8.695-.306-3.564-2.708-6.606-1.09-2.966 1.577-3.057 1.9-.563 1.625zM29.176 49.84c3.204-.085.108-4.858-.651-6.832-.65 3.086-2.645 6.918.65 6.831z"/>
        <path stroke-width=".684" d="M44.579 41.422c2.17-.058.073-3.35-.442-4.712-.44 2.128-1.791 4.772.442 4.712z"/>
    </g>
</svg>
