<svg xmlns="http://www.w3.org/2000/svg" viewBox="0 0 64 64">
    <g fill="#ff8080" fill-rule="evenodd" stroke="#000">
        <path stroke-width=".862" d="M43.5 22.046l-8.951-4.21-.398-3.629 8.006-4.971-8.277 2.274-1.74-8.962L31 11.51l-8.532-1.385L30.7 14.18l-.121 3.62-9.556 5.747-4.324-1.757-.04-9.291-2.915 8.258-8.51-2.466 7.412 5.22-4.883 6.86 7.587-5.34 3.883 2.045.83 9.425-3.964 2.283-8.165-4.45 6.216 5.722-8.11 6.497 9.712-4.073 2.4 7.534.03-8.45 3.954-2.265 8.078 4.666-.011 3.608-9.287 4.583 9.645-1.875 1.048 10.789 1.85-10.678 9.345 2.597-9.038-5.183.208-3.61 10.323-5.644 3.026 1.638-.003 9.66 2.781-8.662 9.277 3.167-8.111-5.427 5.308-6.461-7.629 4.428-3.124-1.665-.317-10.278 3.21-2.05 8.079 3.94-5.877-5.606 7.3-6.373-8.627 4.28-3.684-7.775.744 8.9zm-5.012 16.933c-4.899 2.97-11.397 1.766-14.515-2.689-3.118-4.455-1.675-10.474 3.223-13.444 4.9-2.97 11.397-1.767 14.516 2.688 3.117 4.455 1.674 10.474-3.224 13.445z"/>
        <path stroke-width=".893" d="M28.114 37.365l11.98-8.938-14.937.27 12.488 8.75-4.994-14.423z"/>
    </g>
</svg>
