<svg xmlns="http://www.w3.org/2000/svg" viewBox="0 0 64 64">
    <path fill="#999" fill-rule="evenodd" stroke="#000" stroke-width=".525" d="M27.93 2.412c-.114 1.17-.111 2.978-.436 3.473-.458.699-1.963 1.641-2.361 3.27-3.273 3.842-7.222 10.739-6.786 11.974.554 1.568 6.248 6.86 9.548 10.262-1.819 3.027-3.461 6.136.23 11.668.204 4.648.26 9.326 1.034 13.851-.252 1.64-1.57 4.724-1.57 4.724l6.37.537c.578-2.596 1.304-4.797 1.689-7.906 1.002-6.23 1.848-11.017 1.874-16.045 5.899-.349 7.132-5.054 7.187-7.967.098-5.204-3.74-7.227-6.758-10.903 1.287-.74 1.372-1.774 1.287-2.975-.086-1.207-2.068-2.936-3.382-4.33-1.34-1.42-1.927-2.502-2.344-3.017-.255-.315-1.065-.587-1.065-.587-.14-1.193-.295-2.243.36-3.147zm-.792 15.195c1.322 3.907 2.174 7.784 2.062 11.18-1.726-2.555-2.928-4.882-5.21-7.68 1.287-1.275 2.119-2.263 2.605-3.365z"/>
    <path fill="#ff8080" fill-rule="evenodd" stroke="#000" stroke-width=".795" d="M17.628 1007.988l28.23 30.794 4.61-4.543-28.441-30.762z" transform="matrix(.56738 0 0 .56738 17.057 -549.677)"/>
    <path fill="#ff0e5f" stroke="#000" stroke-linejoin="round" stroke-width=".774" d="M17.793 1005.525a22.2 22.245 84.26 0 0-6.178 17.686 22.2 22.245 84.26 0 0 24.354 19.866 22.2 22.245 84.26 0 0 19.914-24.316 22.2 22.245 84.26 0 0-24.354-19.864 22.2 22.245 84.26 0 0-13.736 6.628zm3.396 2.558a17.992 18.028 84.26 0 1 10.76-4.998 17.992 18.028 84.26 0 1 19.735 16.098 17.992 18.028 84.26 0 1-16.135 19.707 17.992 18.028 84.26 0 1-19.739-16.1 17.992 18.028 84.26 0 1 5.38-14.706z" transform="matrix(.56738 0 0 .56738 17.057 -549.677)"/>
    <path fill="#ff0e5f" fill-rule="evenodd" d="M27.608 22.515L42.83 39.112l2.308-2.263-15.333-16.582z"/>
</svg>
