<svg xmlns="http://www.w3.org/2000/svg" viewBox="0 0 64 64">
    <g transform="matrix(.9703 0 0 .9703 .78 -184.808)">
        <g fill-rule="evenodd">
            <path d="M51.219 222.477l.038.224c2.09-.372 3.065-.208 3.645.009.306.115.487.234.719.343.225.106.453.173.764.126.69-.103 1.154-.759 1.59-1.317.456-.581.92-1.123 1.612-1.175.347-.027.61.077.853.232.204.13.508.389.731.527.533.33 1.203.462 2.533-.314-1.347.757-2 .585-2.492.25-.284-.192-.425-.359-.709-.557-.249-.174-.535-.305-.924-.29-.78.033-1.305.62-1.78 1.185-.494.589-.901 1.1-1.453 1.16-.234.024-.392-.033-.573-.13-.176-.096-.415-.258-.732-.39-.662-.278-1.717-.46-3.86-.106l.038.224z"/>
            <path d="M51.41 223.002c2.231-.415 3.15-.17 3.681.08.236.111.506.29.716.365.26.092.53.088.917-.07.622-.255 1.096-.918 1.53-1.456.225-.278.446-.533.681-.718.234-.183.48-.295.76-.29.718.016 1.05.43 1.579.684.516.247 1.156.285 2.43-.466-1.292.733-1.919.654-2.396.398-.465-.249-.851-.724-1.608-.767-.325-.02-.613.1-.878.29-.263.19-.505.453-.74.724-.486.559-.922 1.122-1.468 1.32-.337.125-.523.102-.686.033-.217-.09-.321-.204-.669-.385-.623-.324-1.633-.589-3.929-.187z"/>
            <path fill="#e3dedb" d="M51.796 222.745c1.835-.341 2.729-.086 3.308.177.276.125.54.287.77.363.256.087.511.09.835-.059.497-.233.962-.867 1.417-1.397.472-.55.956-1.025 1.52-1.046.366-.012.635.098.88.25.235.148.473.354.724.496.523.295 1.19.376 2.559-.444-1.385.805-2.038.69-2.528.39-.255-.157-.448-.347-.705-.52a1.578 1.578 0 0 0-.932-.296c-.635.001-1.173.512-1.658 1.046-.502.553-.932 1.106-1.379 1.293-.268.114-.451.096-.64.023-.217-.084-.396-.217-.73-.38-.637-.314-1.6-.597-3.507-.264z"/>
            <path fill="#e3dedb" stroke="#000" stroke-width=".26427" d="M47.538 223.014c-.098-.368 2.098-1.633 2.633-.766 0 0 1.064-.052 1.567-.04.209.006.35.555.149.61-.657.177-1.545.155-1.545.155-.083 1.031-2.694.455-2.804.041z"/>
        </g>
        <g fill-rule="evenodd">
            <path d="M37.975 241.57l-.219.058c.564 2.047.49 3.033.329 3.63-.086.316-.188.507-.275.748-.085.234-.13.467-.055.772.167.678.863 1.079 1.458 1.462.622.4 1.204.811 1.32 1.496.059.343-.02.614-.152.87-.11.216-.34.543-.457.777-.28.56-.349 1.24.547 2.494-.878-1.272-.767-1.939-.48-2.459.166-.3.318-.457.49-.758.15-.264.254-.56.202-.947-.105-.774-.738-1.242-1.344-1.662-.632-.437-1.18-.795-1.29-1.34-.046-.23-.003-.393.077-.582.078-.184.218-.437.32-.765.215-.685.3-1.753-.253-3.853l-.218.058z"/>
            <path d="M37.47 241.809c.62 2.182.462 3.12.262 3.672-.09.246-.243.53-.297.747-.068.267-.039.536.154.906.312.596 1.015 1.006 1.592 1.39.297.197.572.393.778.61.204.216.338.451.36.73.05.717-.332 1.085-.535 1.636-.199.537-.178 1.177.69 2.377-.85-1.22-.83-1.85-.62-2.35.205-.486.643-.915.615-1.672-.01-.325-.156-.601-.37-.847-.214-.244-.498-.461-.79-.67-.601-.432-1.202-.814-1.45-1.339-.156-.325-.15-.512-.097-.68.07-.225.174-.34.322-.702.264-.65.435-1.68-.178-3.93z"/>
            <path fill="#e3dedb" d="M37.762 242.17c.51 1.794.338 2.708.13 3.309-.1.286-.235.565-.29.8-.063.263-.043.518.136.826.278.474.952.878 1.523 1.282.591.418 1.108.856 1.182 1.417.046.362-.039.64-.168.898-.124.249-.308.504-.426.767-.246.549-.265 1.22.68 2.507-.93-1.304-.876-1.966-.623-2.48.132-.27.304-.479.452-.75.143-.264.248-.562.209-.956-.06-.633-.619-1.12-1.196-1.555-.597-.448-1.187-.824-1.415-1.253-.138-.256-.137-.44-.082-.634.063-.225.179-.415.311-.763.253-.663.446-1.649-.063-3.516z"/>
            <path fill="#e3dedb" stroke="#000" stroke-width=".26427" d="M37.1 237.954c.357-.132 1.82 1.938 1.006 2.55 0 0 .15 1.055.185 1.557.014.208-.52.401-.593.205-.237-.638-.298-1.524-.298-1.524-1.035.013-.703-2.64-.3-2.788z"/>
        </g>
        <g fill-rule="evenodd">
            <path d="M49.712 212.63l.155.166c1.544-1.457 2.45-1.855 3.053-1.991.32-.072.535-.071.79-.107.246-.035.473-.103.707-.314.521-.465.55-1.267.609-1.973.062-.736.153-1.443.703-1.867.276-.212.552-.27.84-.273.243-.003.639.046.901.04.627-.015 1.26-.273 1.947-1.651-.712 1.371-1.353 1.586-1.947 1.575-.344-.005-.553-.067-.9-.077-.303-.01-.614.038-.931.265-.635.455-.752 1.233-.839 1.965-.09.764-.15 1.415-.58 1.768-.181.148-.345.187-.55.204-.2.017-.488.012-.826.075-.706.132-1.689.558-3.286 2.03l.154.165z"/>
            <path d="M50.16 212.964c1.638-1.57 2.54-1.87 3.122-1.952.259-.036.583-.034.8-.087.267-.066.49-.217.728-.56.38-.555.413-1.37.482-2.058.035-.355.08-.69.175-.973.095-.282.24-.51.476-.66.61-.38 1.114-.215 1.695-.294.568-.076 1.124-.394 1.778-1.722-.68 1.322-1.247 1.6-1.786 1.647-.526.047-1.11-.139-1.765.24-.283.162-.459.42-.575.725-.116.302-.175.655-.223 1.01-.1.735-.156 1.444-.503 1.91-.214.289-.382.371-.556.403-.232.043-.38.005-.77.045-.7.07-1.69.403-3.39 1.997z"/>
            <path fill="#e3dedb" d="M50.342 212.537c1.347-1.291 2.235-1.568 2.863-1.665.3-.047.61-.057.843-.118.261-.069.478-.205.666-.508.289-.467.33-1.253.42-1.945.092-.72.237-1.381.698-1.709.298-.21.584-.265.872-.272.278-.007.59.036.877.017.6-.04 1.202-.338 1.897-1.774-.717 1.432-1.327 1.694-1.9 1.712-.3.009-.565-.045-.875-.049-.3-.003-.612.044-.942.263-.53.35-.7 1.072-.813 1.785-.117.737-.173 1.435-.444 1.837-.162.242-.325.328-.522.37-.229.049-.45.036-.82.082-.705.087-1.666.379-3.077 1.703z"/>
            <path fill="#e3dedb" stroke="#000" stroke-width=".26427" d="M46.928 215.097c-.284-.254.86-2.516 1.782-2.084 0 0 .862-.627 1.289-.892.177-.11.598.271.459.427-.453.508-1.207.977-1.207.977.495.908-2.004 1.858-2.323 1.572z"/>
        </g>
        <g fill-rule="evenodd">
            <path d="M17.225 213.514l.118-.193c-1.818-1.096-2.444-1.862-2.737-2.406-.156-.288-.213-.497-.316-.732a1.237 1.237 0 0 0-.492-.598c-.588-.377-1.368-.188-2.064-.056-.726.138-1.431.24-1.987-.176-.279-.209-.408-.46-.489-.737-.068-.232-.127-.627-.203-.878-.183-.6-.601-1.14-2.114-1.431 1.513.317 1.891.877 2.041 1.452.087.332.084.55.167.887.073.294.202.582.505.826.609.49 1.39.393 2.119.28.76-.118 1.403-.234 1.858.084.191.136.273.283.345.475.07.188.142.467.294.776.316.644.99 1.477 2.837 2.62l.118-.193z"/>
            <path d="M17.426 212.993c-1.952-1.156-2.483-1.945-2.718-2.483-.105-.24-.19-.552-.299-.746-.135-.24-.341-.415-.735-.551-.636-.218-1.43-.03-2.111.088-.352.061-.686.108-.985.092-.297-.016-.556-.094-.763-.28-.53-.486-.507-1.016-.739-1.556-.225-.526-.681-.976-2.136-1.25 1.456.3 1.876.772 2.066 1.279.186.493.164 1.105.705 1.636.232.228.528.329.853.36.322.03.678-.009 1.034-.057.733-.102 1.431-.238 1.973-.029.336.129.46.269.538.427.104.212.107.366.25.73.256.655.842 1.52 2.834 2.729z"/>
            <path fill="#e3dedb" d="M16.966 212.933c-1.605-.951-2.11-1.732-2.373-2.31-.125-.277-.218-.573-.34-.78-.136-.235-.325-.406-.667-.506-.528-.153-1.296.018-1.987.118-.717.104-1.394.142-1.833-.214a1.488 1.488 0 0 1-.497-.767c-.08-.266-.123-.578-.219-.85-.2-.567-.648-1.066-2.218-1.35 1.572.305 1.988.823 2.159 1.37.09.286.109.556.188.856.077.29.207.577.506.836.48.418 1.22.387 1.938.305.742-.086 1.429-.22 1.889-.066.277.09.403.225.496.404.109.207.156.424.3.768.273.655.812 1.502 2.466 2.506z"/>
            <path fill="#e3dedb" stroke="#000" stroke-width=".26427" d="M20.349 215.534c-.17.342-2.654-.152-2.487-1.157 0 0-.835-.661-1.205-1.002-.154-.141.101-.648.289-.557.61.3 1.265.9 1.265.9.742-.72 2.328 1.432 2.138 1.816z"/>
        </g>
        <ellipse cx="32.861" cy="223.998" fill="#c88fb2" stroke="#180a5a" stroke-linecap="round" stroke-linejoin="round" stroke-opacity=".678" stroke-width="1.789" rx="14.491" ry="14.427"/>
        <g fill-rule="evenodd">
            <path d="M42.45 202.986l.196.113c1.05-1.845 1.8-2.49 2.337-2.796.285-.163.492-.225.724-.334.225-.105.423-.237.585-.506.363-.597.155-1.373.005-2.065-.156-.722-.276-1.425.127-1.991.202-.284.449-.42.724-.507.23-.074.624-.143.873-.225.594-.198 1.124-.63 1.378-2.149-.28 1.52-.83 1.912-1.4 2.076-.33.095-.55.098-.883.19-.293.08-.577.215-.814.525-.473.62-.358 1.4-.227 2.125.137.757.27 1.397-.038 1.86-.13.194-.276.28-.466.356-.186.075-.463.154-.768.313-.636.333-1.452 1.027-2.55 2.901l.197.114z"/>
            <path d="M42.976 203.174c1.107-1.98 1.882-2.53 2.415-2.779.236-.11.547-.203.738-.317.237-.141.407-.352.533-.75.201-.64-.005-1.429-.141-2.107-.07-.35-.125-.683-.117-.983.009-.297.08-.558.262-.769.472-.543 1.003-.532 1.536-.777.52-.24.959-.706 1.196-2.167-.263 1.463-.724 1.894-1.226 2.097-.489.199-1.101.192-1.618.746-.223.238-.316.535-.338.861-.022.323.025.678.082 1.032.12.73.274 1.426.078 1.972-.12.34-.257.468-.414.549-.21.109-.363.116-.724.268-.647.272-1.497.88-2.656 2.9z"/>
            <path fill="#e3dedb" d="M43.025 202.713c.91-1.629 1.678-2.153 2.25-2.43.274-.132.567-.233.772-.359.23-.142.397-.336.488-.68.14-.532-.05-1.295-.167-1.983-.122-.715-.177-1.39.168-1.838.224-.288.481-.425.755-.516.264-.087.574-.138.843-.24.562-.213 1.05-.674 1.295-2.251-.266 1.579-.773 2.008-1.316 2.192-.284.097-.553.123-.85.21a1.578 1.578 0 0 0-.824.527c-.406.49-.357 1.23-.256 1.944.104.74.254 1.423.112 1.887-.083.279-.215.408-.39.506-.205.114-.42.167-.761.319-.648.289-1.482.849-2.445 2.528z"/>
            <path fill="#e3dedb" stroke="#000" stroke-width=".26427" d="M40.508 206.16c-.346-.161.087-2.658 1.095-2.515 0 0 .64-.852.972-1.23.137-.157.65.085.563.275-.283.618-.868 1.287-.868 1.287.74.723-1.373 2.362-1.762 2.182z"/>
        </g>
        <g fill-rule="evenodd">
            <path d="M50.373 243.33l-.157.163c1.539 1.463 1.984 2.346 2.153 2.94.09.316.1.532.15.783.048.244.129.468.351.69.493.495 1.296.48 2.004.5.738.023 1.45.075 1.902.602.227.264.3.536.318.825.017.24-.011.64.01.9.049.625.34 1.243 1.754 1.855-1.408-.637-1.657-1.265-1.68-1.859-.012-.343.038-.555.03-.902-.008-.303-.072-.612-.316-.916-.488-.609-1.272-.683-2.008-.73-.767-.05-1.42-.074-1.796-.484-.158-.173-.206-.335-.234-.538-.028-.198-.038-.487-.12-.821-.17-.697-.648-1.656-2.204-3.171l-.157.163z"/>
            <path d="M50.064 243.795c1.657 1.55 2.004 2.435 2.118 3.012.05.256.066.58.13.793.08.264.244.48.6.697.574.35 1.389.338 2.08.37.357.016.693.042.982.122.286.08.522.212.683.44.414.588.277 1.1.386 1.677.107.562.455 1.1 1.816 1.68-1.356-.606-1.664-1.157-1.741-1.693-.075-.522.078-1.115-.335-1.75-.178-.273-.444-.434-.755-.535-.309-.099-.664-.138-1.022-.167-.738-.06-1.45-.077-1.933-.399-.3-.198-.392-.362-.433-.533-.056-.23-.026-.38-.087-.767-.108-.694-.493-1.665-2.178-3.276z"/>
            <path fill="#e3dedb" d="M50.5 243.954c1.362 1.275 1.686 2.146 1.818 2.768.063.297.09.606.163.835.083.258.231.466.544.638.482.263 1.268.261 1.965.313.723.054 1.392.162 1.743.605.226.287.298.569.32.856.021.277-.004.59.03.877.073.597.403 1.181 1.875 1.798-1.47-.638-1.764-1.233-1.813-1.805-.025-.298.014-.566.001-.876a1.578 1.578 0 0 0-.313-.926c-.379-.511-1.109-.641-1.826-.715-.743-.077-1.443-.095-1.86-.344-.25-.148-.344-.307-.397-.501-.06-.226-.06-.448-.126-.815-.125-.698-.469-1.642-1.867-2.98z"/>
            <path fill="#e3dedb" stroke="#000" stroke-width=".26427" d="M47.759 240.683c.238-.297 2.558.722 2.178 1.667 0 0 .672.826.96 1.238.12.172-.238.612-.402.482-.532-.424-1.041-1.153-1.041-1.153-.88.545-1.964-1.9-1.695-2.234z"/>
        </g>
        <g fill-rule="evenodd">
            <path d="M50.313 234.64l-.092.207c1.942.856 2.66 1.536 3.02 2.039.192.266.275.465.407.685.128.213.28.396.564.53.631.3 1.381.013 2.054-.206.703-.23 1.39-.42 1.994-.079.303.172.463.404.579.669.096.221.205.605.313.845.258.57.741 1.054 2.278 1.15-1.54-.122-1.987-.629-2.209-1.18-.128-.319-.153-.536-.278-.858-.11-.284-.274-.552-.606-.756-.666-.407-1.429-.213-2.137-.008-.74.214-1.362.411-1.854.153-.207-.11-.307-.246-.403-.427-.093-.177-.2-.445-.39-.732-.396-.599-1.17-1.339-3.147-2.238l-.093.207z"/>
            <path d="M50.18 235.183c2.083.898 2.71 1.613 3.012 2.117.134.224.258.523.391.702.165.221.391.369.8.453.658.135 1.421-.151 2.083-.356.34-.106.666-.195.965-.217.296-.022.563.022.792.182.588.414.632.942.93 1.448.291.493.801.881 2.278.967-1.481-.111-1.958-.526-2.212-1.004-.247-.466-.303-1.076-.907-1.533-.26-.197-.565-.26-.891-.248-.324.01-.672.094-1.019.188-.714.193-1.39.418-1.953.279-.35-.085-.492-.208-.589-.355-.13-.197-.152-.35-.34-.693-.338-.616-1.029-1.399-3.159-2.345z"/>
            <path fill="#e3dedb" d="M50.643 235.185c1.714.738 2.314 1.448 2.648 1.99.16.257.29.539.437.73.165.214.374.36.726.416.544.084 1.283-.183 1.956-.37.698-.195 1.364-.319 1.845-.021.31.193.472.434.59.697.115.254.197.558.326.815.27.537.778.976 2.372 1.057-1.598-.103-2.076-.563-2.316-1.084-.125-.273-.178-.538-.295-.825a1.578 1.578 0 0 0-.61-.765c-.528-.353-1.259-.229-1.96-.055-.724.179-1.389.399-1.865.305-.286-.055-.428-.172-.543-.337-.134-.192-.209-.4-.395-.724-.354-.615-.997-1.387-2.766-2.172z"/>
            <path fill="#e3dedb" stroke="#000" stroke-width=".26427" d="M46.957 233.035c.124-.36 2.652-.187 2.614.83 0 0 .912.55 1.323.841.17.121-.018.657-.216.59-.644-.22-1.37-.733-1.37-.733-.643.81-2.49-1.123-2.35-1.528z"/>
        </g>
        <g fill-rule="evenodd">
            <path d="M25.09 243.516l-.209-.089c-.823 1.957-1.49 2.686-1.987 3.055-.263.196-.46.282-.678.418a1.237 1.237 0 0 0-.521.573c-.289.636.01 1.381.242 2.05.24.699.444 1.382.112 1.992-.167.306-.396.47-.659.59-.22.101-.602.216-.84.328-.566.267-1.04.759-1.111 2.298.096-1.543.595-1.998 1.143-2.229.316-.134.533-.162.853-.293.281-.114.547-.283.745-.62.396-.672.189-1.43-.028-2.136-.226-.735-.434-1.355-.184-1.85.106-.21.24-.312.42-.41.175-.097.442-.209.725-.403.592-.406 1.319-1.193 2.184-3.185l-.208-.089z"/>
            <path d="M24.545 243.392c-.863 2.098-1.567 2.737-2.066 3.047-.222.138-.519.267-.695.403-.219.169-.362.398-.44.808-.123.66.176 1.418.392 2.076.111.34.206.663.233.961.027.296-.013.564-.168.796-.404.595-.932.648-1.432.955-.488.299-.868.815-.929 2.294.087-1.484.493-1.967.967-2.23.462-.254 1.07-.32 1.517-.932.193-.263.25-.57.233-.896-.016-.324-.105-.67-.205-1.015-.206-.71-.442-1.382-.312-1.948.078-.352.199-.495.345-.595.194-.133.346-.158.687-.352.61-.348 1.381-1.052 2.29-3.198z"/>
            <path fill="#e3dedb" d="M24.55 243.855c-.709 1.726-1.408 2.338-1.943 2.682-.256.163-.535.298-.723.448-.212.169-.355.381-.404.734-.075.545.205 1.28.403 1.95.206.694.342 1.358.052 1.844-.188.313-.426.48-.687.602-.252.118-.554.205-.809.339-.533.28-.962.795-1.017 2.39.076-1.6.528-2.086 1.045-2.334.27-.13.535-.188.82-.31.275-.118.541-.288.754-.621.344-.535.207-1.264.022-1.961-.191-.722-.422-1.383-.337-1.86.05-.287.165-.431.328-.55.19-.137.397-.215.717-.406.609-.365 1.37-1.02 2.125-2.802z"/>
            <path fill="#e3dedb" stroke="#000" stroke-width=".26427" d="M26.638 240.133c.362.118.231 2.649-.787 2.628 0 0-.534.921-.818 1.336-.117.173-.656-.006-.592-.205.208-.648.709-1.382.709-1.382-.821-.63 1.08-2.51 1.488-2.377z"/>
        </g>
        <g fill-rule="evenodd">
            <path d="M15.051 244.335l-.174-.144c-1.344 1.643-2.19 2.153-2.772 2.366-.307.113-.522.14-.769.208-.24.067-.456.164-.662.402-.457.528-.381 1.328-.35 2.035.034.738.035 1.451-.456 1.942-.247.246-.513.338-.8.38-.239.033-.638.035-.897.075-.62.096-1.214.433-1.718 1.888.53-1.452 1.137-1.747 1.728-1.813.341-.038.557-.004.901-.039.302-.03.605-.116.89-.382.571-.533.587-1.32.58-2.057-.01-.77-.033-1.423.347-1.827.161-.17.319-.23.52-.274.195-.043.482-.075.81-.18.682-.222 1.602-.77 2.997-2.435l-.175-.145z"/>
            <path d="M14.564 244.062c-1.422 1.767-2.278 2.18-2.845 2.336-.251.07-.573.11-.78.19-.258.1-.46.278-.651.65-.306.598-.234 1.41-.213 2.101.01.358.009.695-.05.988-.057.292-.171.537-.386.715-.556.456-1.077.358-1.644.51-.553.149-1.063.536-1.541 1.937.503-1.399 1.03-1.747 1.559-1.864.515-.113 1.118-.004 1.72-.464.259-.198.4-.476.477-.793.076-.315.089-.672.09-1.031.005-.74-.03-1.451.254-1.958.175-.314.331-.418.5-.472.224-.072.376-.054.758-.143.684-.16 1.623-.617 3.104-2.416z"/>
            <path fill="#e3dedb" d="M14.439 244.508c-1.17 1.454-2.015 1.842-2.625 2.02-.291.084-.597.135-.82.225-.251.102-.448.265-.596.59-.226.5-.166 1.284-.166 1.983 0 .724-.057 1.4-.473 1.783-.269.247-.545.34-.83.383-.274.042-.589.04-.871.096-.59.116-1.149.489-1.653 2.003.526-1.513 1.097-1.85 1.664-1.942.296-.048.566-.028.873-.065.298-.034.601-.122.9-.381.482-.416.557-1.153.578-1.875.02-.746-.014-1.445.204-1.879.129-.26.28-.367.47-.434.22-.078.442-.094.802-.186.688-.178 1.603-.59 2.833-2.085z"/>
            <path fill="#e3dedb" stroke="#000" stroke-width=".26427" d="M17.496 241.53c.314.216-.53 2.606-1.5 2.297 0 0-.773.732-1.163 1.05-.162.132-.628-.192-.51-.365.383-.562 1.071-1.124 1.071-1.124-.608-.837 1.748-2.1 2.102-1.858z"/>
        </g>
        <g fill-rule="evenodd">
            <path d="M25.58 204.696l.208-.088c-.832-1.953-.89-2.94-.81-3.553.043-.325.119-.527.173-.778.052-.243.067-.48-.049-.772-.256-.65-.999-.954-1.64-1.254-.67-.313-1.302-.644-1.508-1.307-.104-.332-.062-.61.035-.883.08-.228.264-.583.349-.83.202-.594.18-1.277-.876-2.399 1.04 1.143 1.02 1.818.805 2.372-.125.32-.255.496-.384.817-.114.281-.178.59-.074.966.207.753.896 1.132 1.553 1.467.685.35 1.275.631 1.457 1.156.076.222.056.39.002.587-.053.193-.158.462-.216.801-.12.708-.062 1.777.766 3.785l.209-.087z"/>
            <path d="M26.048 204.391c-.906-2.08-.874-3.03-.75-3.604.055-.255.17-.559.195-.78.03-.274-.034-.536-.274-.877-.388-.549-1.14-.862-1.763-1.165-.321-.156-.62-.314-.852-.502-.232-.186-.396-.401-.454-.674-.146-.704.183-1.12.311-1.693.125-.559.019-1.19-1-2.264 1.005 1.095 1.069 1.724.927 2.246-.138.51-.515.992-.386 1.74.054.32.235.575.48.79.244.213.554.39.871.559.654.347 1.3.645 1.617 1.132.197.301.216.488.186.662-.04.232-.127.359-.225.738-.175.68-.207 1.724.7 3.87z"/>
            <path fill="#e3dedb" d="M25.71 204.073c-.744-1.71-.696-2.64-.57-3.262.06-.298.157-.592.18-.832.027-.269-.026-.519-.245-.8-.339-.433-1.06-.744-1.68-1.068-.642-.335-1.213-.7-1.36-1.246a1.488 1.488 0 0 1 .046-.913c.09-.263.238-.54.32-.817.17-.576.099-1.244-1.008-2.394 1.096 1.168 1.13 1.831.948 2.376-.095.284-.237.514-.348.803-.107.28-.17.59-.08.975.145.62.763 1.028 1.393 1.381.651.365 1.287.659 1.57 1.053.17.235.195.418.166.617-.033.232-.122.435-.207.798-.162.691-.221 1.694.532 3.477z"/>
            <path fill="#e3dedb" stroke="#000" stroke-width=".26427" d="M26.93 208.162c-.337.179-2.063-1.677-1.339-2.393 0 0-.29-1.025-.39-1.518-.042-.205.462-.467.56-.282.32.6.499 1.47.499 1.47 1.023-.15 1.049 2.523.67 2.723z"/>
        </g>
        <g fill-rule="evenodd">
            <path d="M12.768 229.004l-.065-.217c-2.032.615-3.019.567-3.62.42-.318-.078-.511-.175-.754-.256a1.237 1.237 0 0 0-.774-.035c-.674.184-1.056.89-1.424 1.494-.384.632-.781 1.224-1.462 1.358-.342.067-.615-.005-.875-.13-.218-.106-.55-.326-.788-.438-.567-.266-1.249-.317-2.479.61 1.25-.91 1.919-.816 2.446-.542.304.158.465.307.77.47.267.144.567.24.952.179.77-.125 1.223-.769 1.627-1.386.422-.643.766-1.198 1.307-1.323.23-.051.393-.013.584.062.186.074.442.208.773.302.69.197 1.76.254 3.846-.35l-.064-.218z"/>
            <path d="M12.516 228.506c-2.166.675-3.107.54-3.665.354-.247-.083-.537-.229-.754-.278-.269-.06-.537-.025-.902.177-.587.326-.98 1.04-1.349 1.626-.19.303-.379.582-.591.793-.21.21-.442.35-.72.378-.715.069-1.093-.304-1.649-.493-.541-.185-1.181-.148-2.359.749 1.198-.88 1.83-.876 2.333-.678.492.193.931.62 1.687.572.326-.019.598-.17.838-.391.239-.22.449-.51.65-.806.417-.612.783-1.222 1.302-1.484.32-.164.508-.162.677-.114.227.065.344.166.71.304.657.248 1.692.393 3.924-.276z"/>
            <path fill="#e3dedb" d="M12.163 228.806c-1.782.555-2.7.407-3.305.214-.29-.092-.571-.22-.807-.27-.265-.056-.52-.03-.823.157-.467.29-.854.974-1.243 1.555-.403.602-.828 1.13-1.387 1.217a1.488 1.488 0 0 1-.902-.145c-.252-.118-.512-.295-.777-.406-.555-.232-1.226-.234-2.49.741 1.28-.962 1.943-.924 2.465-.684.272.125.485.291.76.433.267.137.568.233.961.185.631-.077 1.105-.647 1.524-1.235.434-.608.795-1.208 1.217-1.446.252-.145.437-.149.632-.099.226.059.42.169.77.293.67.236 1.66.404 3.514-.152z"/>
            <path fill="#e3dedb" stroke="#000" stroke-width=".26427" d="M16.36 228.038c.14.354-1.891 1.868-2.524 1.07 0 0-1.051.178-1.552.224-.208.02-.414-.51-.22-.587.632-.253 1.516-.336 1.516-.336-.038-1.034 2.622-.77 2.78-.371z"/>
        </g>
        <g fill-rule="evenodd">
            <path d="M13.852 202.165l.156-.164c-1.545-1.456-1.995-2.336-2.167-2.93-.091-.315-.103-.53-.154-.782a1.237 1.237 0 0 0-.355-.689c-.494-.492-1.297-.473-2.005-.49-.739-.019-1.45-.068-1.905-.592-.229-.263-.302-.536-.323-.824-.017-.24.009-.64-.013-.9-.052-.625-.347-1.242-1.763-1.847 1.411.63 1.663 1.257 1.688 1.85.014.344-.035.557-.025.903.01.304.075.612.32.914.491.607 1.275.678 2.011.722.768.045 1.422.067 1.799.475.159.172.207.334.237.536.028.199.04.487.123.821.173.697.656 1.653 2.22 3.16l.156-.163z"/>
            <path d="M14.158 201.698c-1.664-1.542-2.015-2.426-2.132-3.002-.051-.255-.068-.579-.134-.792-.081-.263-.246-.478-.603-.694-.575-.347-1.39-.332-2.082-.36-.357-.014-.693-.039-.982-.118-.286-.078-.523-.209-.686-.435-.416-.587-.281-1.1-.394-1.676-.11-.562-.46-1.098-1.824-1.673 1.36.6 1.67 1.15 1.75 1.686.078.522-.073 1.115.344 1.748.178.272.446.433.757.531.309.098.664.136 1.022.163.739.056 1.45.07 1.935.39.302.196.394.36.436.53.057.23.028.38.09.767.112.694.502 1.662 2.194 3.265z"/>
            <path fill="#e3dedb" d="M13.722 201.541c-1.369-1.268-1.697-2.138-1.831-2.759-.065-.297-.093-.605-.168-.834-.084-.258-.233-.465-.546-.635-.484-.261-1.27-.256-1.967-.304-.723-.05-1.392-.156-1.746-.597a1.488 1.488 0 0 1-.324-.854c-.023-.278.001-.591-.034-.877-.076-.597-.408-1.18-1.883-1.789 1.472.63 1.769 1.224 1.82 1.796.027.298-.01.566.004.876.014.299.08.608.318.924.38.51 1.111.637 1.83.707.743.073 1.443.088 1.86.335.25.147.346.305.4.5.062.225.062.447.13.813.128.698.476 1.64 1.881 2.971z"/>
            <path fill="#e3dedb" stroke="#000" stroke-width=".26427" d="M16.479 204.799c-.238.298-2.562-.71-2.186-1.656 0 0-.677-.823-.967-1.234-.12-.171.236-.613.4-.483.534.421 1.047 1.147 1.047 1.147.877-.549 1.972 1.89 1.706 2.226z"/>
        </g>
    </g>
    <path fill="#ff8080" fill-rule="evenodd" stroke="#000" stroke-width=".795" d="M17.628 1007.988l28.23 30.794 4.61-4.543-28.441-30.762z" transform="matrix(.64747 0 0 .64747 10.84 -628.557)"/>
    <path fill="#ff0e5f" stroke="#000" stroke-linejoin="round" stroke-width=".774" d="M17.793 1005.525a22.2 22.245 84.26 0 0-6.178 17.686 22.2 22.245 84.26 0 0 24.354 19.866 22.2 22.245 84.26 0 0 19.914-24.316 22.2 22.245 84.26 0 0-24.354-19.864 22.2 22.245 84.26 0 0-13.736 6.628zm3.396 2.558a17.992 18.028 84.26 0 1 10.76-4.998 17.992 18.028 84.26 0 1 19.735 16.098 17.992 18.028 84.26 0 1-16.135 19.707 17.992 18.028 84.26 0 1-19.739-16.1 17.992 18.028 84.26 0 1 5.38-14.706z" transform="matrix(.64747 0 0 .64747 10.84 -628.557)"/>
    <path fill="#ff0e5f" fill-rule="evenodd" d="M22.881 24.409l17.37 18.94 2.634-2.583-17.497-18.923z"/>
</svg>
