<svg xmlns="http://www.w3.org/2000/svg" viewBox="0 0 64 64">
    <g stroke="#000">
        <path fill="#666" fill-rule="evenodd" d="M23.234 20.753c3.213-.053 6.936.512 8.775 1.894-.742 4.3-10.524 5.64-8.775-1.894zM35.23 23.026c.673-1.087 10.03-.553 9.722.378-.03 4.443-9.454 6.928-9.723-.378z" transform="matrix(.93958 .25231 -.2645 .98496 11.853 -5.097)"/>
        <path fill="none" d="M32.262 23.026l2.84.378M23.17 20.88c-4.661-3.168.88-2.976 1.642-4.483.83-1.64-3.9-2.565-3.157-4.167M45.015 23.53c1.59-2.54-2.257-3.09-1.578-4.86.741-1.579 2.917-1.137 3.03-3.915" transform="matrix(.93958 .25231 -.2645 .98496 11.853 -5.097)"/>
    </g>
    <path fill="#666" fill-rule="evenodd" stroke="#000" stroke-width=".981" d="M11.895 32.717l-.671 9.454s8.442-1.168 8.339-1.604c-.103-.435-.32-5.078-.32-5.078l2.904 5.204 5.61-2.34-4.895-8.414z"/>
    <path fill="#666" fill-rule="evenodd" stroke="#000" stroke-width="1.016" d="M25.808 47.567c6.976-.242 12.887-2.296 18.44-4.958-2.474 3.195-4.807 6.451-6.072 10.173-1.104.816-2.146 1.753-4.036 1.074-1.926-2.616-4.742-4.688-8.332-6.289z"/>
    <path fill-rule="evenodd" d="M7.433 19.15l41.91 34.906 6.296-7.506L13.19 12.256z"/>
    <ellipse cx="31.946" cy="31.928" fill="none" stroke="#000" stroke-linecap="round" stroke-linejoin="round" stroke-width="6.792" rx="27.6" ry="27.722"/>
    <ellipse cx="31.946" cy="31.928" fill="none" stroke="#f06" stroke-linecap="round" stroke-linejoin="round" stroke-width="4.54" rx="27.6" ry="27.722"/>
    <path fill="#f06" fill-rule="evenodd" d="M7.88 18.258L50.503 53.43l4.332-5.631-42.537-34.74z"/>
</svg>
