<svg xmlns="http://www.w3.org/2000/svg" viewBox="0 0 64 64">
    <g fill="#ff8080" fill-rule="evenodd" stroke="#000">
        <path fill-opacity=".251" stroke-opacity=".251" stroke-width="1.405" d="M30.841 59.788c-13.217-14.76-23.38-25.575-25.28-33.609C2.074 11.44 24.678 2.844 30.973 11.474c5.871-9.436 28.877-.065 25.547 14.19-1.841 7.883-12.249 19.58-25.679 34.124z"/>
        <path fill-opacity=".502" stroke-opacity=".502" stroke-width="1.088" d="M30.984 52.672c-9.667-10.41-17.9-19.188-19.39-25.333-2.733-11.274 14.093-19.268 19.581-9.017 5.087-10.125 21.523-3.36 18.913 7.545-1.443 6.03-8.578 15.68-19.104 26.805z"/>
        <path stroke-width="1.102" d="M30.688 46.825C23.843 39.2 17.45 31.67 16.396 27.17c-1.936-8.26 10.479-12.912 14.503-3.325 3.74-9.078 16.228-5.288 14.38 2.7-1.022 4.416-7.138 12.133-14.591 20.281z"/>
    </g>
</svg>
