<svg xmlns="http://www.w3.org/2000/svg" viewBox="0 0 64 64">
    <g fill="#ff8080" stroke="#000" transform="translate(0 -988.362)">
        <path stroke-linecap="round" stroke-linejoin="round" stroke-width=".95" d="M32.375 993.159a27.335 27.454 0 0 0-27.335 27.453 27.335 27.454 0 0 0 27.335 27.454 27.335 27.454 0 0 0 27.335-27.454 27.335 27.454 0 0 0-27.335-27.453zm0 3.915a23.437 23.539 0 0 1 23.436 23.538 23.437 23.539 0 0 1-23.436 23.539 23.437 23.539 0 0 1-23.436-23.539 23.437 23.539 0 0 1 23.436-23.538z"/>
        <path fill-rule="evenodd" d="M29.75 1051.518v-11.78l5.625-.126.031 11.875zM29.796 1001.694v-11.78l5.625-.126.031 11.875zM1.27 1017.737l11.78.057.099 5.626-11.875-.026zM51.093 1018.023l11.781.057.098 5.625-11.875-.026z"/>
        <ellipse cx="32.461" cy="1020.756" stroke-linecap="round" stroke-linejoin="round" stroke-width=".976" rx="5.625" ry="5.581"/>
    </g>
</svg>
