<svg version="1.1" viewBox="0 0 64 64" xmlns="http://www.w3.org/2000/svg">
 <g stroke="#000" stroke-linecap="round" stroke-linejoin="round">
  <path d="m35.994 9.7849-8.0182-0.00592c-3.5444-0.00253-4.0573 8.1927-0.09941 8.2247l8.0846 0.06593c4.2681 0.03444 3.6439-8.2821 0.0331-8.2847zm-0.90173 1.5708c2.794 0.0041 3.2845 4.9673-0.01801 4.9438l-6.2553-0.04438c-3.0625-0.02184-2.6731-4.9125 0.06952-4.9085z" fill="#999" stroke-width=".2663"/>
  <path d="m53.269 4.2832-7.1022 3.219c-3.1395 1.423 0.57209 8.9331 4.0926 7.37l7.1915-3.1921c3.7964-1.6856-0.98355-8.8465-4.1818-7.3968zm3.8e-5 1.7625c2.4758-1.1198 5.433 3.1063 2.4969 4.4133l-5.5609 2.4758c-2.7226 1.212-4.8637-3.3033-2.4334-4.4026z" fill="#999" stroke-width=".26543"/>
  <path d="m36.344 13.202 10.69-2.7255c0.97871-0.24951 1.7476 1.4042 0.5649 1.713l-10.753 2.8075c-0.79566 0.20774-1.3421-1.5806-0.5015-1.795z" fill="#808080" stroke-width=".31483"/>
  <path d="m62.151 4.9041-5.1296 3.0901c-0.84364 0.50818-2.1496-0.85104-1.1327-1.472l5.1309-3.1333z" fill="#808080" stroke-width=".31483"/>
  <path d="m11.097 4.1086 7.1022 3.219c3.1395 1.423-0.57209 8.9331-4.0926 7.37l-7.1915-3.1921c-3.7964-1.6856 0.98355-8.8465 4.1818-7.3968zm-3.7e-5 1.7625c-2.4758-1.1198-5.433 3.1063-2.4969 4.4133l5.5609 2.4758c2.7226 1.212 4.8637-3.3033 2.4334-4.4026z" fill="#999" stroke-width=".26543"/>
  <path d="m28.023 13.028-10.69-2.7255c-0.97871-0.24951-1.7476 1.4042-0.5649 1.713l10.753 2.8075c0.79566 0.20774 1.3421-1.5806 0.5015-1.795z" fill="#808080" stroke-width=".31483"/>
  <path d="m2.2161 4.7295 5.1296 3.0901c0.84364 0.50818 2.1496-0.85104 1.1327-1.472l-5.1309-3.1333z" fill="#808080" stroke-width=".31483"/>
 </g>
 <path d="m24.559 62.9h11.081c-5.4237-3.5575-10.206-9.5061-8.9229-16.213 0.69984-3.4992 2.5661-4.4323 3.9074-4.3156 6.2985 0.64152 3.3825 9.0979-1.2247 5.5404 6.7651 7.2899 11.431-6.8817 2.6827-8.2814-3.4992-0.5832-9.3895 0.99143-10.906 6.7651-0.81647 3.0909-1.1664 8.573 3.3825 16.504z" fill="#ff8080" stroke="#000" stroke-linecap="round" stroke-linejoin="round" stroke-width=".25"/>
 <g fill="#ffd5d5" stroke="#000" stroke-linecap="round" stroke-linejoin="round" stroke-width=".25">
  <path d="m31.44 58.876c0.34992 0.69984 0.11664 1.458-0.52487 1.8079-0.64152 0.2916-1.3997-0.05832-1.7496-0.75815-0.34992-0.64152-0.05832-1.458 0.52487-1.7496 0.64152-0.2916 1.458 0 1.7496 0.69984z"/>
  <path d="m28.991 55.086c0.2916 0.58319 0.11664 1.3414-0.46656 1.5746-0.58319 0.2916-1.283 0-1.5746-0.64152-0.2916-0.5832-0.05832-1.3414 0.46656-1.5746 0.58319-0.2916 1.283 0 1.5746 0.64152z"/>
  <path d="m27.708 51.586c0.05832 0.64152-0.40823 1.1664-0.93311 1.1664-0.58319 0.05832-1.1081-0.46656-1.1081-1.0498 0-0.64152 0.40824-1.1664 0.99143-1.1664 0.5832-0.05832 1.0498 0.46656 1.0498 1.0498z"/>
  <path d="m27.416 47.387c0 0.5832-0.40824 1.0498-0.8748 1.0498-0.52487 0-0.99143-0.40824-0.99143-0.99143 0-0.52488 0.34992-1.0498 0.8748-1.0498 0.52487 0 0.93311 0.40824 0.99143 0.99143z"/>
  <path d="m28.291 44.296c-0.40824 0.34992-0.93311 0.34992-1.283 0.05832-0.2916-0.34992-0.2916-0.93311 0.05832-1.283s0.93311-0.34992 1.283-0.05832c0.29159 0.34992 0.29159 0.93311-0.05832 1.283z"/>
  <path d="m31.382 43.305c-0.40823-0.17496-0.64151-0.5832-0.52487-0.99143s0.58319-0.5832 1.0498-0.46656c0.40824 0.17496 0.64152 0.64152 0.52488 0.99143-0.17496 0.40824-0.64152 0.64152-1.0498 0.46656z"/>
  <path d="m34.881 44.821c-0.05832 0.40824-0.34992 0.69984-0.75815 0.69984-0.34992-0.05832-0.64152-0.40824-0.64152-0.81648 0.05832-0.40824 0.40824-0.69984 0.75816-0.69984 0.40823 0.05832 0.64151 0.40824 0.64151 0.81647z"/>
  <path d="m33.948 48.204c-0.2916 0.23328-0.69983 0.23328-0.93311 0s-0.17496-0.64152 0.05832-0.93311c0.2916-0.23328 0.69983-0.23328 0.93311 0 0.23328 0.23328 0.17496 0.64152-0.05832 0.93311z"/>
 </g>
 <path d="m50.861 54.561h-11.081c5.4237-3.6158 10.206-9.5061 8.8646-16.213-0.64151-3.4992-2.5661-4.4906-3.8491-4.374-6.2985 0.64152-3.3825 9.1562 1.2247 5.5987-6.7651 7.2899-11.431-6.94-2.741-8.3397 3.5575-0.5832 9.4478 0.99143 10.964 6.7651 0.75815 3.0909 1.1664 8.573-3.3825 16.563z" fill="#ff8080" stroke="#000" stroke-linecap="round" stroke-linejoin="round" stroke-width=".25"/>
 <g fill="#ffd5d5" stroke="#000" stroke-linecap="round" stroke-linejoin="round" stroke-width=".25">
  <path d="m43.921 50.478c-0.2916 0.69984-0.05832 1.5163 0.58319 1.8079s1.3997 0 1.7496-0.69984c0.2916-0.69984 0.05832-1.5163-0.58319-1.8079s-1.3997 0-1.7496 0.69984z"/>
  <path d="m46.37 46.688c-0.29159 0.64151-0.05832 1.3413 0.52488 1.6329 0.58319 0.23328 1.283 0 1.5746-0.64151 0.2916-0.64152 0.05832-1.3414-0.52487-1.633-0.52488-0.23328-1.2247 0-1.5746 0.64152z"/>
  <path d="m47.653 43.247c0 0.5832 0.40824 1.1081 0.99143 1.1664 0.58319 0 1.0498-0.46656 1.1081-1.1081 0-0.64152-0.40824-1.1081-0.99143-1.1664-0.5832 0-1.0498 0.46656-1.1081 1.1081z"/>
  <path d="m48.003 38.989c0 0.5832 0.34991 1.0498 0.87479 1.0498 0.52487 0.05832 0.93311-0.40824 0.99143-0.93311 0-0.5832-0.40824-1.0498-0.87479-1.0498-0.52488-0.05832-0.99143 0.40824-0.99143 0.93311z"/>
  <path d="m47.128 35.898c0.34992 0.34992 0.93312 0.40824 1.2247 0.05832 0.34992-0.34992 0.34992-0.87479-0.05832-1.2247-0.34991-0.34992-0.87479-0.40824-1.2247-0.05832-0.2916 0.34992-0.2916 0.87479 0.05832 1.2247z"/>
  <path d="m44.038 34.907c0.40823-0.11664 0.64151-0.5832 0.52487-0.99143-0.17496-0.34992-0.64151-0.5832-1.0498-0.40824-0.40824 0.11664-0.64152 0.58319-0.52488 0.99143 0.11664 0.40824 0.5832 0.58319 1.0498 0.40824z"/>
  <path d="m40.538 36.423c0 0.40824 0.34992 0.75815 0.75815 0.69984 0.34992 0 0.64152-0.34992 0.5832-0.75816 0-0.46656-0.34992-0.75815-0.69983-0.69983-0.40824 0-0.69984 0.34992-0.64152 0.75815z"/>
  <path d="m41.471 39.806c0.23328 0.2916 0.64152 0.2916 0.93311 0 0.23328-0.23328 0.17496-0.64152-0.05832-0.8748-0.29159-0.2916-0.69983-0.2916-0.93311-0.05832-0.23328 0.2916-0.23328 0.69984 0.05832 0.93312z"/>
 </g>
 <path d="m14.482 41.677h8.1647c-4.024-2.6244-7.5232-6.9983-6.5901-11.956 0.52488-2.5661 1.9245-3.2659 2.8577-3.1493 4.6656 0.46656 2.5077 6.7068-0.87479 4.0824 4.9572 5.3654 8.398-5.0738 1.9829-6.1236-2.5661-0.40824-6.8817 0.69984-8.0481 4.9572-0.5832 2.2745-0.81647 6.2985 2.5077 12.189z" fill="#ff8080" stroke="#000" stroke-linecap="round" stroke-linejoin="round" stroke-width=".25"/>
 <g fill="#ffd5d5" stroke="#000" stroke-linecap="round" stroke-linejoin="round" stroke-width=".25">
  <path d="m19.556 38.703c0.23328 0.46656 0.05832 1.0498-0.40824 1.283-0.46656 0.23328-1.0498 0-1.283-0.52488-0.23328-0.46656-0.05832-1.0498 0.40824-1.283s1.0498 0 1.283 0.52488z"/>
  <path d="m17.748 35.904c0.23328 0.40824 0.05832 0.99143-0.34992 1.1664-0.40824 0.17496-0.93311 0-1.1664-0.46656-0.23328-0.46656-0.05832-0.99143 0.34992-1.1664 0.46656-0.23328 0.93311 0 1.1664 0.46656z"/>
  <path d="m16.815 33.337c0 0.46656-0.2916 0.81647-0.69984 0.87479-0.46656 0-0.81647-0.34992-0.81647-0.81647 0-0.46656 0.2916-0.81648 0.69983-0.87479 0.46656 0 0.81648 0.34992 0.81648 0.81647z"/>
  <path d="m16.581 30.247c0 0.40824-0.2916 0.75815-0.64152 0.75815-0.40824 0-0.69983-0.2916-0.75815-0.69984 0-0.40824 0.2916-0.75815 0.69983-0.75815 0.34992-0.05832 0.69984 0.2916 0.69984 0.69983z"/>
  <path d="m17.223 27.972c-0.2916 0.23328-0.69983 0.2916-0.93311 0-0.23328-0.23328-0.23328-0.64152 0.05832-0.87479 0.23328-0.2916 0.64152-0.2916 0.87479-0.05832 0.2916 0.23328 0.23328 0.64152 0 0.93311z"/>
  <path d="m19.497 27.214c-0.2916-0.11664-0.46656-0.40824-0.40824-0.69984 0.11664-0.2916 0.46656-0.46656 0.75815-0.34992 0.34992 0.11664 0.52488 0.46656 0.40824 0.75815-0.11664 0.2916-0.46656 0.40824-0.75816 0.2916z"/>
  <path d="m22.063 28.322c0 0.34992-0.2916 0.5832-0.52488 0.52488-0.2916 0-0.52488-0.2916-0.46656-0.5832 0-0.2916 0.23328-0.52488 0.52488-0.52488 0.2916 0.05832 0.46656 0.2916 0.46656 0.5832z"/>
  <path d="m21.364 30.83c-0.17496 0.17496-0.46656 0.17496-0.64152 0-0.17496-0.17496-0.17496-0.46656 0-0.64152 0.23328-0.23328 0.52488-0.23328 0.69984-0.05832 0.17496 0.23328 0.17496 0.52488-0.05832 0.69984z"/>
 </g>
 <path d="m35.01 36.37h-8.1647c3.9657-2.6244 7.5232-6.94 6.5318-11.897-0.46656-2.5661-1.8662-3.2659-2.8577-3.2076-4.6073 0.46656-2.4494 6.7068 0.93311 4.0824-4.9572 5.3654-8.398-5.0738-1.9829-6.0652 2.5661-0.46656 6.8817 0.69984 7.9898 4.9572 0.58319 2.2745 0.87479 6.2985-2.4494 12.13z" fill="#ff8080" stroke="#000" stroke-linecap="round" stroke-linejoin="round" stroke-width=".25"/>
 <g fill="#ffd5d5" stroke="#000" stroke-linecap="round" stroke-linejoin="round" stroke-width=".25">
  <path d="m29.937 33.396c-0.23328 0.52488-0.05832 1.1081 0.40824 1.3414 0.46655 0.23328 0.99143 0 1.283-0.52488 0.23328-0.52488 0.05832-1.1081-0.40824-1.3414-0.46656-0.17496-1.0498 0.05832-1.283 0.52488z"/>
  <path d="m31.744 30.596c-0.23328 0.46656-0.05832 0.99143 0.34992 1.2247 0.40824 0.17496 0.93311 0 1.1664-0.46656 0.17496-0.46656 0.05832-0.99143-0.40824-1.2247-0.40823-0.17496-0.93311 0.05832-1.1081 0.46656z"/>
  <path d="m32.678 28.089c-0.05832 0.46656 0.2916 0.81647 0.69984 0.81647 0.40823 0.05832 0.75815-0.2916 0.81647-0.75815 0-0.46656-0.34992-0.87479-0.75815-0.87479-0.40824 0-0.75816 0.34992-0.75816 0.81647z"/>
  <path d="m32.911 24.998c0 0.40824 0.2916 0.75815 0.64152 0.75815 0.40823 0 0.69983-0.2916 0.69983-0.75815 0.05832-0.40824-0.23328-0.75816-0.64152-0.75816-0.34991 0-0.69983 0.2916-0.69983 0.75816z"/>
  <path d="m32.269 22.665c0.23328 0.2916 0.69983 0.2916 0.93311 0.05832s0.17496-0.64152-0.05832-0.93311c-0.2916-0.23328-0.69983-0.23328-0.93311 0s-0.23328 0.64152 0.05832 0.87479z"/>
  <path d="m29.995 21.965c0.2916-0.11664 0.46656-0.40824 0.34992-0.69983-0.05832-0.2916-0.40824-0.46656-0.75816-0.34992-0.2916 0.11664-0.46656 0.46656-0.34992 0.75815 0.05832 0.2916 0.40824 0.40824 0.75816 0.2916z"/>
  <path d="m27.429 23.073c0 0.2916 0.23327 0.52488 0.52487 0.52488s0.46656-0.2916 0.46656-0.5832c0-0.2916-0.2916-0.52488-0.52488-0.52488-0.29159 0-0.52487 0.2916-0.46655 0.5832z"/>
  <path d="m28.07 25.581c0.23328 0.17496 0.52488 0.17496 0.69983 0 0.17496-0.17496 0.17496-0.46656-0.05832-0.69983-0.17495-0.17496-0.46655-0.17496-0.64151 0-0.17496 0.17496-0.17496 0.46656 0 0.69983z"/>
 </g>
</svg>
