<svg xmlns="http://www.w3.org/2000/svg" xmlns:xlink="http://www.w3.org/1999/xlink" viewBox="0 0 256 256">
    <defs>
        <linearGradient id="linearGradient1376">
            <stop offset="0" stop-color="#ffd42a" stop-opacity="0"/>
            <stop offset="1" stop-color="#ffd42a" stop-opacity=".502"/>
        </linearGradient>
        <linearGradient id="innoGrad7">
            <stop offset="0" stop-color="#ffe680"/>
            <stop offset="1" stop-color="#ffe680" stop-opacity="0"/>
        </linearGradient>
        <linearGradient id="innoGrad6">
            <stop offset="0" stop-color="#ff2a2a" stop-opacity=".502"/>
            <stop offset="1" stop-color="#ff2a2a" stop-opacity="0"/>
        </linearGradient>
        <linearGradient id="innoGrad5">
            <stop offset="0" stop-color="#ff2a2a" stop-opacity=".502"/>
            <stop offset=".2" stop-color="#ff2a2a" stop-opacity="0"/>
            <stop offset=".8" stop-color="#ff2a2a" stop-opacity="0"/>
            <stop offset="1" stop-color="#ff2a2a" stop-opacity=".502"/>
        </linearGradient>
        <linearGradient id="innoGrad4">
            <stop offset="0" stop-color="#ff7f2a" stop-opacity=".502"/>
            <stop offset="1" stop-color="#ff7f2a" stop-opacity="0"/>
        </linearGradient>
        <linearGradient id="innoGrad3">
            <stop offset="0" stop-color="#ff7f2a" stop-opacity="0"/>
            <stop offset="1" stop-color="#ff7f2a" stop-opacity=".502"/>
        </linearGradient>
        <linearGradient id="innoGrad2">
            <stop offset="0" stop-color="#ff7f2a" stop-opacity=".502"/>
            <stop offset=".5" stop-color="#ff7f2a" stop-opacity="0"/>
            <stop offset="1" stop-color="#ff7f2a" stop-opacity=".502"/>
        </linearGradient>
        <linearGradient id="innoGrad1">
            <stop offset="0" stop-color="#ff2a2a" stop-opacity="0"/>
            <stop offset="1" stop-color="#ff2a2a" stop-opacity=".502"/>
        </linearGradient>
        <linearGradient id="linearGradient1031" x1="154.063" x2="154.063" y1="7.73" y2="81.493" gradientTransform="matrix(1.0945 0 0 1.09442 -12.662 3.403)" gradientUnits="userSpaceOnUse" xlink:href="#innoGrad1"/>
        <linearGradient id="linearGradient1068" x1="106.938" x2="152.188" y1="5.687" y2="5.687" gradientTransform="matrix(1.0945 0 0 1.09442 -12.662 3.403)" gradientUnits="userSpaceOnUse" xlink:href="#innoGrad2"/>
        <linearGradient id="linearGradient1113" x1="34.125" x2="60.284" y1="222.25" y2="224.363" gradientTransform="matrix(1.0945 0 0 1.09442 -12.662 3.403)" gradientUnits="userSpaceOnUse" xlink:href="#innoGrad3"/>
        <linearGradient id="linearGradient1136" x1="197.433" x2="223.446" y1="224.909" y2="222.562" gradientTransform="matrix(1.0945 0 0 1.09442 -12.662 3.403)" gradientUnits="userSpaceOnUse" xlink:href="#innoGrad4"/>
        <linearGradient id="linearGradient1167" x1="83.017" x2="178.372" y1="105.262" y2="105.262" gradientTransform="matrix(1.0945 0 0 1.09442 -12.662 3.403)" gradientUnits="userSpaceOnUse" xlink:href="#innoGrad5"/>
        <linearGradient id="linearGradient1205" x1="69.87" x2="98.169" y1="166.75" y2="166.75" gradientTransform="matrix(1.0945 0 0 1.09442 -12.662 3.403)" gradientUnits="userSpaceOnUse" xlink:href="#innoGrad4"/>
        <linearGradient id="linearGradient1213" x1="160.544" x2="188.74" y1="166.626" y2="166.626" gradientTransform="matrix(1.0945 0 0 1.09442 -12.662 3.403)" gradientUnits="userSpaceOnUse" xlink:href="#innoGrad3"/>
        <linearGradient id="linearGradient1236" x1="150.347" x2="170.956" y1="43.141" y2="75.74" gradientTransform="matrix(1.0945 0 0 1.09442 -12.662 3.403)" gradientUnits="userSpaceOnUse" xlink:href="#innoGrad1"/>
        <linearGradient id="linearGradient1263" x1="155.541" x2="157.097" y1="93.598" y2="94.751" gradientTransform="matrix(1.0945 0 0 1.09442 -12.662 3.403)" gradientUnits="userSpaceOnUse" xlink:href="#innoGrad1"/>
        <linearGradient id="linearGradient1286" x1="148.609" x2="191.746" y1="20.623" y2="20.623" gradientTransform="matrix(1.0945 0 0 1.09442 -12.662 3.403)" gradientUnits="userSpaceOnUse" xlink:href="#innoGrad3"/>
        <linearGradient id="linearGradient1312" x1="92.624" x2="114.812" y1="61.825" y2="33.445" gradientTransform="matrix(1.0945 0 0 1.09442 -12.662 3.403)" gradientUnits="userSpaceOnUse" xlink:href="#innoGrad6"/>
        <linearGradient id="linearGradient1332" x1="72.656" x2="110.536" y1="22.39" y2="22.39" gradientTransform="matrix(1.0945 0 0 1.09442 -12.662 3.403)" gradientUnits="userSpaceOnUse" xlink:href="#innoGrad4"/>
        <radialGradient id="radialGradient1364" cx="82.777" cy="34.791" r="3.209" fx="82.777" fy="34.791" gradientTransform="matrix(1.0945 0 0 1.04462 -12.662 5.135)" gradientUnits="userSpaceOnUse" xlink:href="#innoGrad7"/>
        <radialGradient id="radialGradient1366" cx="100.059" cy="60.178" r="3.397" fx="100.059" fy="60.178" gradientTransform="matrix(1.0945 0 0 1.03095 -12.662 7.222)" gradientUnits="userSpaceOnUse" xlink:href="#linearGradient1376"/>
        <radialGradient id="radialGradient1368" cx="179.756" cy="56.385" r="3.24" fx="179.756" fy="56.385" gradientTransform="matrix(1.0945 0 0 1.11502 -12.662 2.24)" gradientUnits="userSpaceOnUse" xlink:href="#innoGrad7"/>
        <radialGradient id="radialGradient1370" cx="181.746" cy="31.121" r="3.313" fx="181.746" fy="31.121" gradientTransform="matrix(1.0945 0 0 1.05676 -12.662 4.575)" gradientUnits="userSpaceOnUse" xlink:href="#innoGrad7"/>
        <linearGradient id="linearGradient1414" x1="175.428" x2="190.044" y1="174.089" y2="174.089" gradientTransform="matrix(1.0945 0 0 1.09442 -12.662 3.403)" gradientUnits="userSpaceOnUse" xlink:href="#innoGrad3"/>
        <linearGradient id="linearGradient1437" x1="177.749" x2="190.726" y1="174.024" y2="174.024" gradientTransform="matrix(1.0945 0 0 1.09442 -12.662 3.403)" gradientUnits="userSpaceOnUse" xlink:href="#innoGrad3"/>
        <linearGradient id="linearGradient1445" x1="69.486" x2="84.102" y1="174.089" y2="174.089" gradientTransform="matrix(1.0945 0 0 1.09442 -12.662 3.403)" gradientUnits="userSpaceOnUse" xlink:href="#innoGrad4"/>
        <linearGradient id="linearGradient1468" x1="68.804" x2="81.781" y1="174.024" y2="174.024" gradientTransform="matrix(1.0945 0 0 1.09442 -12.662 3.403)" gradientUnits="userSpaceOnUse" xlink:href="#innoGrad4"/>
    </defs>
    <path fill="#f55" d="M103.628 13.252l3.626-3.373 46.105 1.048 2.6 2.668-9.51 87.21h-32.834l-14.776-61.38z"/>
    <path fill="url(#linearGradient1031)" d="M146.45 100.806h-32.835L98.839 39.424l4.789-26.172 3.626-3.373 46.105 1.048 2.6 2.668z"/>
    <path fill="#f55" fill-rule="evenodd" d="M149.563 98.703h22.258v24.954h-22.258z"/>
    <path fill="url(#linearGradient1263)" fill-rule="evenodd" d="M149.563 98.703h22.258v24.954h-22.258z"/>
    <path fill="#f95" d="M107.277 7.96c3.475-2.802 39.95-2.418 43.368 0l2.714 5.292c-2.989-2.852-45.457-2.618-48.431 0z"/>
    <path fill="url(#linearGradient1068)" stroke="#000" stroke-linecap="round" stroke-linejoin="round" stroke-miterlimit="10" d="M107.277 7.96c3.475-2.802 39.95-2.418 43.368 0l2.714 5.292c-2.989-2.852-45.457-2.618-48.431 0z"/>
    <path fill="#ffb380" d="M24.688 246.637c-1.779-1.094 2.156-10.2 2.967-15.864 1.586-11.07 2.035-24.149 3.283-37.848.183-2.005 1.186-4.277 1.368-6.293.568-6.283.54-12.533 1.46-18.696 1.851-12.41 4.709-25.241 6.475-37.395 1.307-8.994.483-17.558 1.369-26.084 1.361-13.115 4.29-25.597 5.928-35.204 1.136-6.66 3.992-12.42 5.473-16.965 2.251-6.91 4.162-11.536 4.463-11.627 2.342-.7 6.117 2.689 6.117 2.689l18.607 46.24s-2.737 48.615-5.714 54.357c-2.85 5.5-15.8 104.972-18.202 105.883-2.401.912-31.816-2.099-33.594-3.193z"/>
    <path fill="#ff7f2a" d="M47.357 119.32a216.584 216.584 0 0 0 .037 38.033c.372 4.177 1.373 8.381 2.611 12.378a83.388 83.388 0 0 0 3.575 9.409c.617 1.381 1.414 2.74 1.902 4.17.397 1.164-.927 2.725-1.574 3.564-1.221 1.585-2.81 3.279-4.727 3.991-2.396.891-3.794-1.245-4.974-2.988-.904-1.336-5.315-9.793-7.43-7.36 1.713-2.215 4.865 2.81 5.683 3.961.84 1.185 1.646 2.397 2.526 3.553.969 1.274 2.064 2.903 3.871 2.214 1.314-.5 2.412-1.567 3.33-2.6.897-1.006 2.09-2.349 2.402-3.703.118-.512-.318-1.089-.534-1.537-.338-.705-.68-1.407-1.011-2.115a91.5 91.5 0 0 1-2.034-4.67c-4.109-10.208-5.479-20.876-5.303-31.858.132-8.19.62-16.313 1.65-24.442zM64.637 123.105c-.428 5.573-.892 11.147-1.135 16.732-.277 6.382-.503 12.887 1.135 19.11-2.353-5.662-2.463-11.837-2.276-17.89.254-5.992.88-12.108 2.276-17.952z"/>
    <path fill="url(#linearGradient1113)" stroke="#000" stroke-linecap="round" stroke-linejoin="round" stroke-miterlimit="10" d="M24.688 246.637c-1.779-1.094 2.156-10.2 2.967-15.864 1.586-11.07 2.035-24.149 3.283-37.848.183-2.005 1.186-4.277 1.368-6.293.568-6.283.54-12.533 1.46-18.696 1.851-12.41 4.709-25.241 6.475-37.395 1.307-8.994.483-17.558 1.369-26.084 1.361-13.115 4.29-25.597 5.928-35.204 1.136-6.66 3.992-12.42 5.473-16.965 2.251-6.91 4.162-11.536 4.463-11.627 2.342-.7 6.117 2.69 6.117 2.69l18.607 46.24s-2.737 48.614-5.714 54.356c-2.85 5.5-15.8 104.972-18.202 105.883-2.401.912-31.816-2.099-33.594-3.193z"/>
    <path fill="#ffb380" d="M197.748 249.83c-1.088 0-1.041-8.076-1.637-12.496-.806-5.982-2.485-12.186-3.283-18.785-1.255-10.388-2.984-21.52-3.648-32.286-.44-7.135.201-14.214-.457-20.43-.282-2.664-1.428-4.224-1.732-6.657-.333-2.65.176-6.149-.161-8.484-.38-2.623-1.487-4.12-1.845-6.292-1.318-8.022-1.642-13.68-1.642-13.68l-.913-61.016 18.425-32.92s2.928 1.929 5.563 7.2c1.276 2.553 1.628 6.452 2.736 10.215 1.397 4.746 3.474 9.633 4.287 15.322.832 5.811 1.481 12.146 1.916 19.062.244 3.872.15 8.038.638 12.13.484 4.06 1.877 8.06 2.372 12.313 1.591 13.69 3.282 28.704 4.286 43.412.324 4.746-.611 9.4-.091 14.046.464 4.156 3.508 7.387 3.921 11.492.356 3.536-.233 7.306.092 10.762 1.972 21.013 6.207 53.855 4.974 54.629-1.234.774-32.714 2.462-33.801 2.462z"/>
    <path fill="#ff7f2a" d="M219.576 171.522c-.661-2.047-1.8-4.12-3.672-5.288-1.81-1.148-4.004-1.186-6.04-.734-2.147.477-4.175 1.46-6.09 2.518-1.052.584-2.074 1.218-3.114 1.826-.542.316-1.345.924-2.014.967-.519-1.017-.475-2.54-.567-3.64-.147-1.772-.223-3.546-.3-5.32a484.02 484.02 0 0 1-.347-10.157l-.315-12.451a482.055 482.055 0 0 0-.271 8.438c-.145 6.507-.225 13.07.243 19.567.093 1.29.031 3.015.69 4.173.48.798 1.548.322 2.19.008 2.96-1.445 5.609-3.443 8.752-4.528 3.006-1.035 6.292-.988 8.367 1.728 1.5 1.964 3.392 6.1 1.372 8.267-2.002 2.146-6.027 1.912-8.692 2.343-2.56.42-5.344 1.475-4.078 4.607-1.47-4.578 4.798-4.23 7.652-4.527 1.923-.202 4.244-.482 5.663-1.945 1.53-1.583 1.188-3.939.571-5.852zM188.404 168.872l2.714-23.562-.864 12.594c-.187 2.705-.373 5.41-.558 8.116l-.164 2.39-.035.522c-.051.746-1.2.679-1.093-.06zM186.386 154.053l2.154-24.885-.559 13.13-.37 8.71-.108 2.508-.023.546c-.03.742-1.094.762-1.094-.01z"/>
    <path fill="url(#linearGradient1136)" stroke="#000" stroke-linecap="round" stroke-linejoin="round" stroke-miterlimit="10" d="M197.748 249.83c-1.088 0-1.041-8.076-1.637-12.496-.806-5.982-2.485-12.186-3.283-18.785-1.255-10.388-2.984-21.52-3.648-32.286-.44-7.135.201-14.214-.457-20.43-.282-2.664-1.428-4.224-1.732-6.657-.333-2.65.176-6.149-.161-8.484-.38-2.623-1.487-4.12-1.845-6.292-1.318-8.022-1.642-13.68-1.642-13.68l-.913-61.016 18.425-32.92s2.928 1.929 5.563 7.2c1.276 2.553 1.628 6.452 2.736 10.215 1.397 4.746 3.474 9.633 4.287 15.322.832 5.811 1.481 12.146 1.916 19.062.244 3.872.15 8.038.638 12.13.484 4.06 1.877 8.06 2.372 12.313 1.591 13.69 3.282 28.704 4.286 43.412.324 4.746-.611 9.4-.091 14.046.464 4.156 3.508 7.387 3.921 11.492.356 3.536-.233 7.306.092 10.762 1.972 21.013 6.207 53.855 4.974 54.629-1.234.774-32.714 2.462-33.801 2.462z"/>
    <path fill="none" stroke="#000" stroke-linecap="round" stroke-linejoin="round" stroke-miterlimit="10" stroke-width=".75" d="M203.427 249.547c-1.815-9.066-3.78-20.263-5.262-31.638-3.724-28.606-4.789-60.684-6.223-79.346-.663-8.643-2.427-14.462-2.733-15.627-1.71-6.499-6.267-18.914-6.267-18.914M53.213 249.999c1.75-7.31 3.63-14.468 5.267-24.772 1.148-7.222 2.411-15.079 2.873-23.052.544-9.37.271-18.919 1.71-28.113 2.409-15.392 3.604-32.044 5.884-44.871.98-5.524 3.436-10.497 4.31-15.118 2.775-14.677 8.94-24.486 8.94-24.486"/>
    <path fill="#ff8080" d="M163.919 210.657c-9.428.983-20.18 1.651-31.081 1.847-15.58.283-31.482-.523-44.168-2.161l-15.779-49.528c1.517-3.172 4.624-5.353 4.195-9.85-.433-4.538-1.035-10.304-.73-16.599.242-4.99 1.445-10.203 1.186-15.431-.166-3.32-1.719-6.648-1.916-9.924-.14-2.332 1.24-4.908.821-7.114-6.247-32.862-18.464-59.009-19.1-61.65-.636-2.64 37.07-15.6 37.07-15.6s4.795 7.785 12.95 17.968c11.336 14.15 33.337 41.569 38.467 47.793 5.13 6.224 10.466 24.556 10.466 24.556l20.18-38.647-14.844-23.756-3.466-26.358s42.047 9.075 42.685 10.58c.463 1.09-2.863 7.559-5.496 16.279-4.463 14.791-9.62 38.348-10.808 45.898-3.033 19.285.299 22.921.25 34.226-.037 8.677-.575 17.012.092 24.352.104 1.14.28 2.248.505 3.328z"/>
    <path fill="#ff2a2a" d="M181.338 93.689c-3.468 3.201-6.967 6.367-10.462 9.538-2.194 1.988-4.398 3.966-6.567 5.98a144.383 144.383 0 0 0-3.272 3.122 76.338 76.338 0 0 0-1.674 1.693c-.339.355-1.132.99-1.224 1.497.034-.075-.037-.199-.061-.264.008.02.016.039.027.056-.04-.093-.137-.185-.24-.198.863.048 2.03-.713 2.778-1.07a81.695 81.695 0 0 0 3.54-1.815 456.27 456.27 0 0 0 6.824-3.714c2.923-1.634 5.852-3.258 8.779-4.885a272.415 272.415 0 0 1-11.63 7.387c-2.543 1.525-5.13 3.026-7.82 4.282-.671.315-2.36 1.36-3.056.638-.342-.349-.142-.859.111-1.227 1.647-2.378 4.098-4.325 6.231-6.25a254.265 254.265 0 0 1 6.702-5.858c3.62-3.04 7.282-6.016 11.014-8.912zM79.303 73.907c-.337 3.984-.642 7.968-.629 11.969.01 2.35.122 4.626 1.131 6.784 1.14 2.436 2.7 4.656 4.008 7 1.206 2.16 2.1 4.333 2.555 6.77.457 2.46.81 4.938 1.244 7.403.777 4.419 1.867 8.66 4.401 12.418-3.016-3.544-4.41-7.905-5.335-12.405-.54-2.628-.911-5.29-1.492-7.908-.57-2.568-1.74-4.896-3.037-7.164-1.296-2.268-2.772-4.489-3.552-7.004-.766-2.472-.58-5.278-.42-7.83.21-3.352.563-6.72 1.126-10.033z"/>
    <path fill="url(#linearGradient1167)" stroke="#000" stroke-linecap="round" stroke-linejoin="round" stroke-miterlimit="10" d="M163.919 210.657c-9.428.983-20.18 1.651-31.081 1.847-15.58.283-31.482-.523-44.168-2.161l-15.779-49.528c1.517-3.172 4.624-5.353 4.195-9.85-.433-4.538-1.035-10.304-.73-16.599.242-4.99 1.445-10.203 1.186-15.431-.166-3.32-1.719-6.648-1.916-9.924-.14-2.332 1.24-4.908.821-7.114-6.247-32.862-18.464-59.009-19.1-61.65-.636-2.64 37.07-15.6 37.07-15.6s4.795 7.785 12.95 17.968c11.336 14.15 33.337 41.569 38.467 47.793 5.13 6.224 10.466 24.556 10.466 24.556l20.18-38.647-14.844-23.756-3.466-26.358s42.047 9.075 42.685 10.58c.463 1.09-2.863 7.559-5.496 16.279-4.463 14.791-9.62 38.348-10.808 45.898-3.033 19.285.299 22.921.25 34.226-.037 8.677-.575 17.012.092 24.352.104 1.14.28 2.248.505 3.328z"/>
    <path fill="none" stroke="#000" stroke-linecap="round" stroke-linejoin="round" stroke-miterlimit="10" d="M63.19 55.343s5.619-6.59 9.245-9.463c3.626-2.873 27.937-12.468 27.937-12.468M195.506 52.581s-3.487-2.573-8.629-3.966c-16.417-4.446-27.022-9.593-27.022-9.593"/>
    <path fill="none" stroke="#000" stroke-linecap="round" stroke-linejoin="round" stroke-miterlimit="10" stroke-width=".5" d="M198.7 35.852s-3.027 11.823-4.244 12.362c-.551.244-6.613-2.791-13.94-5.618-8.836-3.407-19.154-5.814-19.154-5.814M59.26 37.863s3.53 13.353 4.488 13.353c.556 0 11.902-9.608 21.753-15.118 7.104-3.972 13.68-4.356 13.68-4.356"/>
    <path fill="#ffb380" d="M72.891 160.816c-1.958 4.442-3.66 9.793-4.348 14.05-2.54 15.721-3.586 25.905-3.831 27.088-.547 2.644-.728 3.076 1.733 4.012 5.224 1.989 15.507 3.74 27.68 5.01 0 0 .402-3.853-.32-9.394-.498-3.82-2.071-8.36-3.463-13.202-.983-3.422-1.392-6.875-3.216-10.26-8.14-15.116-14.235-17.304-14.235-17.304z"/>
    <path fill="url(#linearGradient1205)" stroke="#000" stroke-linecap="round" stroke-linejoin="round" stroke-miterlimit="10" d="M72.891 160.816c-1.958 4.442-3.66 9.793-4.348 14.05-2.54 15.721-3.586 25.905-3.831 27.088-.547 2.644-.728 3.076 1.733 4.012 5.224 1.989 15.507 3.74 27.68 5.01 0 0 .402-3.853-.32-9.394-.498-3.82-2.071-8.36-3.463-13.202-.983-3.422-1.392-6.875-3.216-10.26-8.14-15.116-14.235-17.304-14.235-17.304z"/>
    <path fill="#ffb380" d="M185.398 160.866c1.958 4.443 3.095 9.38 3.782 13.636 2.54 15.722 3.585 25.906 3.83 27.089.548 2.644.728 3.076-1.732 4.012-5.224 1.988-15.187 3.784-27.359 5.054 0 0-.722-3.897 0-9.438.498-3.821 2.07-8.36 3.463-13.202.983-3.423 1.392-6.875 3.216-10.26 8.14-15.117 14.8-16.89 14.8-16.89z"/>
    <path fill="url(#linearGradient1213)" stroke="#000" stroke-linecap="round" stroke-linejoin="round" stroke-miterlimit="10" d="M185.398 160.866c1.958 4.443 3.095 9.38 3.782 13.636 2.54 15.722 3.585 25.906 3.83 27.089.548 2.644.728 3.076-1.732 4.012-5.224 1.988-15.187 3.784-27.359 5.054 0 0-.722-3.897 0-9.438.498-3.821 2.07-8.36 3.463-13.202.983-3.423 1.392-6.875 3.216-10.26 8.14-15.117 14.8-16.89 14.8-16.89z"/>
    <path fill="none" stroke="#000" stroke-linecap="round" stroke-linejoin="round" stroke-miterlimit="10" stroke-width=".5" d="M144.62 90.168s4.697 12.252 4.703 19.256c.01 12.997-1.008 10.787-1.779 21.41-.79 10.879-3.338 24.156-4.24 37.28-1.6 23.222-1.913 44.14-1.913 44.14"/>
    <path fill="#ff8080" stroke="#000" stroke-linecap="round" stroke-linejoin="round" stroke-miterlimit="10" d="M137.327 85.264c1.43.317 2.748.71 3.916 1.22 2.224.972 2.375 2.613 3.794 4.195 2.274 2.54 7.795 14.522 8.187 17.697l.008-.001s39.78-38.947 41.602-43.776c.957-2.533-10.554-8.412-19.243-14.096-7.866-5.144-12.952-10.256-12.952-10.256l-9.392-7.934c-3.466 21.44-14.863 48.948-14.863 48.948z"/>
    <path fill="url(#linearGradient1236)" stroke="#000" stroke-linecap="round" stroke-linejoin="round" stroke-miterlimit="10" d="M137.327 85.264c1.43.317 2.748.71 3.916 1.22 2.224.972 2.375 2.613 3.794 4.195 2.274 2.54 7.795 14.522 8.187 17.697l.008-.001s39.78-38.947 41.602-43.776c.957-2.533-10.554-8.412-19.243-14.096-7.866-5.144-12.952-10.256-12.952-10.256l-9.392-7.934c-3.466 21.44-14.863 48.948-14.863 48.948z"/>
    <path fill="none" stroke="#000" stroke-linecap="round" stroke-linejoin="round" stroke-miterlimit="10" stroke-width=".5" d="M152.868 34.508s17.66 17.527 38.25 29.908c-12.996 12.313-38.736 40.98-38.736 40.98"/>
    <path fill="none" stroke="#000" stroke-linecap="round" stroke-linejoin="round" stroke-miterlimit="10" d="M92.068 79.054c.753-.89 6.253-1.275 6.546-.672.293.603 6.998 38.771 6.724 39.387-.273.616-5.54 1.779-6.088 1.368-.547-.41-7.935-39.193-7.182-40.083z"/>
    <path fill="none" stroke="#000" stroke-linecap="round" stroke-linejoin="round" stroke-miterlimit="10" stroke-width=".5" d="M90.858 78.508c.548-.548 8.163-1.595 8.483-1.094.32.501 7.707 40.268 6.84 40.997-.867.729-7.135 2.188-7.626 1.778-.237-.197-2.778-9.494-4.642-19.382-2.012-10.68-3.338-22.014-3.055-22.299z"/>
    <path fill="#ffe680" stroke="#000" stroke-linecap="round" stroke-linejoin="round" stroke-miterlimit="10" d="M93.31 78.504c-.125.242 2.024 9.308 3.843 18.884 1.985 10.452 3.678 21.483 4.106 21.673l2.027-.457c.423-1.213-6.998-39.874-7.417-40.472-.42-.599-2.297-.133-2.559.372z"/>
    <path fill="#ffe680" stroke="#000" stroke-linecap="round" stroke-linejoin="round" stroke-miterlimit="10" d="M145.037 90.68c2.373 2.649 8.277 15.573 8.208 18.058-.083 3.005-1.55 12.84-2.736 25.173-.57 5.936-.566 12.466-1.276 19.062-.518 4.793-1.836 9.621-2.28 14.32-.939 9.925-1.103 19.282-1.46 26.128-.359 6.845-.411 18.195-1.002 18.567l3.737-.366c-.547-.364 1.368-20.703 2.098-43.867.16-5.085 2.466-10.043 2.92-15.234 1.376-15.767.399-33.072 4.902-40.292 8.702-13.957 9.9-18.57 9.9-18.57l-2.785 2.793c-2.668 5.712-8.864 16.107-8.864 16.107s-1.193-8.264-8.268-19.506c-1.705-2.71-3.016-5.312-4.554-6.653-4.556-3.972-16.29-4.048-28.713-6.556-12.176-2.458-23.65-5.935-23.65-5.936l-.72 2.095s3.59 1.287 9.717 2.779c4.268 1.04 10 2.277 15.458 3.51 9.075 2.053 19.409 1.501 25.574 4.193 2.224.971 2.375 2.613 3.794 4.195z"/>
    <path fill="none" stroke="#000" stroke-linecap="round" stroke-linejoin="round" stroke-miterlimit="10" stroke-width=".457" d="M94.25 66.336l2.568-1.279 1.298 2.49 3.426-1.168 1.414 2.184 3.798-.899 3.283 2.806 3.952-1.169 1.716 2.434 3.932-1.307 1.98 2.441 2.612-1.473 2.326 2.05 2.423-1.174 3.098 1.74 1.98-.61M146.937 188.188l-2.749-2.125 2.923-1.378-2.952-1.436 3.134-1.57-3.029-1.804 3.219-1.255-3.106-2.151 3.387-2.38-3.209-1.558 3.364-1.032-3.236-1.895 3.411-1.137-3.306-1.492 3.487-1.849-3.368-1.001 3.506-1.688-3.336-1.94 3.513-1.803-3.402-.27 3.504-2.111-3.316-.884 3.437-2.186-3.126-1.863 3.23-1.207-2.9-2.002 3.361-1.67-2.787-1.859 3.397-.763-2.712-2.931 3.809-1.501-3.358-1.259 3.754-1.003-3.481-1.316 3.684-.812-3.437-2.119 3.647-.872-3.52-1.07 3.656-1.313-3.516-1.248 3.651-1.498-3.51-1.343 3.642-1.66-3.413-2.246 3.554-.998-3.354-1.441 3.508-1.683-3.124-2.126 3.352-1.468-2.992-1.852 3.186-.431-2.812-2.844 3.235-.72-2.771-3.19 3.518-.702-3.145-2.416 4.374-1.174-.666-1.382 1.765-.547-.078-2.341 1.781-.455-.295-2.147 2.22-1.142-.17-2.552 1.657-.121-.412-2.222 2.046-.932-.966-1.217 2.204-1.479" transform="matrix(1.0945 0 0 1.09442 -12.662 3.403)"/>
    <path fill="#fd5" stroke="#000" stroke-linecap="round" stroke-linejoin="round" stroke-miterlimit="10" stroke-width=".914" d="M143.585 190.59l.359-2.402h3.119l.187 1.968z" transform="matrix(1.0945 0 0 1.09442 -12.662 3.403)"/>
    <path fill="none" stroke="#000" stroke-linecap="round" stroke-linejoin="round" stroke-miterlimit="10" stroke-width=".457" d="M155.413 100.643l-3.694-3.549 1.72-1.417-2.47-1.989 1.159-1.652-2.036-.68.836-2.089-2.709-2.188.254-2.559-1.993-.933-.449-3.024-2.715-1.844M99.16 68.282l-1.956 2.451 2.65.552-1.948 2.739 2.59.416-1.836 3.126 2.726 1.389-2.091 1.67 2.533.617-1.836 2.864 2.654 1.439-2.128 1.308L103.292 89l-1.955 2.332 2.677 1.608-1.963 2.421 2.562.94-1.991 2.31 2.656 1.578-1.982 2.16 2.584 1.859-1.795 1.473" transform="matrix(1.0945 0 0 1.09442 -12.662 3.403)"/>
    <path fill="#ffb380" d="M153.247 32.315c2.087-12.917-3.544-24.168-2.602-24.356 1.24-.249 2.725.352 4.332 1.778.544.484.57 1.48 1.322 2.006 1.518 1.064 13.85 8.87 18.216 11.632 3.395 2.148 7.623 3.198 10.608 5.381 7.297 5.335 12.837 12.124 11.264 13.088-9.309 5.703-33.749-1.596-33.749-1.596z"/>
    <path fill="url(#linearGradient1286)" stroke="#000" stroke-linecap="round" stroke-linejoin="round" stroke-miterlimit="10" d="M153.247 32.315c2.087-12.917-3.544-24.168-2.602-24.356 1.24-.249 2.725.352 4.332 1.778.544.484.57 1.48 1.322 2.006 1.518 1.064 13.85 8.87 18.216 11.632 3.395 2.148 7.623 3.198 10.608 5.381 7.297 5.335 12.837 12.124 11.264 13.088-9.309 5.703-33.749-1.596-33.749-1.596z"/>
    <path fill="#ff8080" d="M107.773 39.424c12.074 25.207 31.7 22.438 40.358 53.628-4.539-9.204-17.695-9.953-29.454-12.403-15.392-3.208-29.516-6.606-30.19-8.208-1.185-2.827 15.233-26.633 17.239-28.455z"/>
    <path fill="url(#linearGradient1312)" stroke="#000" stroke-linecap="round" stroke-linejoin="round" stroke-miterlimit="10" d="M107.773 39.424c12.074 25.207 31.7 22.438 40.358 53.628-4.539-9.204-17.695-9.953-29.454-12.403-15.392-3.208-29.516-6.606-30.19-8.208-1.185-2.827 15.233-26.633 17.239-28.455z"/>
    <path fill="#ffb380" d="M105.727 43.985c-10.307 3.1-37.76 5.381-38.307 2.645-.161-.809 4.137-6.512 7.661-11.578 2.326-3.344 4.073-6.664 4.835-7.21 3.13-2.246 3.967-1.091 11.948-6.841 2.683-1.933 6.702-6.06 8.196-6.122 2.792-4.134 4.844-6.92 7.217-6.92 1.3 0-5.692 18.552.495 31.465z"/>
    <path fill="url(#linearGradient1332)" stroke="#000" stroke-linecap="round" stroke-linejoin="round" stroke-miterlimit="10" d="M105.727 43.985c-10.307 3.1-37.76 5.381-38.307 2.645-.161-.809 4.137-6.512 7.661-11.578 2.326-3.344 4.073-6.664 4.835-7.21 3.13-2.246 3.967-1.091 11.948-6.841 2.683-1.933 6.702-6.06 8.196-6.122 2.792-4.134 4.844-6.92 7.217-6.92 1.3 0-5.692 18.552.495 31.465z"/>
    <path fill="none" stroke="#000" stroke-miterlimit="10" stroke-width=".5" d="M109.85 43.372S89.654 69.87 91.588 71.257c6.57 4.71 24.355 4.58 39.813 8.618 10.634 2.778 14.707 6.976 14.707 6.977"/>
    <path fill="none" stroke="#000" stroke-linecap="round" stroke-linejoin="round" stroke-miterlimit="10" stroke-width=".5" d="M180.031 26.252s10.699 8.342 13.527 14.314c-13.527 3.135-34.534-3.369-34.534-3.369M82.855 26.252s-12.072 18.585-11.531 18.67c13.56 2.12 36.448-5.499 36.448-5.499M171.508 90.168s-1.627 4.769-4.87 11.801c-1.708 3.703-5.195 7.865-6.232 12.655-3.01 13.886-8.06 97.031-8.06 97.031"/>
    <path fill="none" stroke="#000" stroke-linecap="round" stroke-linejoin="round" stroke-miterlimit="10" d="M78.592 47.755s1.633 6.14 3.283 15.635c1.484 8.553 2.87 19.846 5.062 31.533 2.36 12.582 5.425 25.63 7.388 36.732 1.808 10.232 5.537 18.04 5.472 22.846-.274 20.247 4.382 57.326 4.382 57.326"/>
    <path fill="#f55" stroke="#000" stroke-linecap="round" stroke-linejoin="round" stroke-miterlimit="10" d="M200.669 38.212s2.423 1.99 3.061-.837c.638-2.827-5.771-4.21-5.771-4.21l4.22 3.252z"/>
    <path fill="#f55" stroke="#000" stroke-linecap="round" stroke-linejoin="round" stroke-miterlimit="10" d="M200.669 38.212c2.547-1.448-2.742-3.25-6.792-4.49-2.627-.805-4.362-1.407-4.362-1.407l-3.78-3.105s1.898 1.049 5.384 2.007c4.538 1.25 11.01 2.692 11.716 5.01.445 1.464-.072 2.138-2.166 1.985zM77.458 31.401S55.85 37.253 57.58 40.962c0 0-2.234.067-1.186-1.968 2.416-4.697 13.186-7.05 19.926-9.418 1.725-.607 2.84-1.633 3.362-1.512z"/>
    <path fill="#f55" stroke="#000" stroke-linecap="round" stroke-linejoin="round" stroke-miterlimit="10" d="M71.34 30.58c-.182.548 1.238 2.78 1.101 3.235-.136.457 2.964-.82 3.238-1.14.273-.32-1.67-3.258-2.08-3.349-.411-.09-2.076.707-2.259 1.254z"/>
    <path fill="none" stroke="#000" stroke-linecap="round" stroke-linejoin="round" stroke-miterlimit="10" stroke-width=".5" d="M71.898 30.078s1.544 2.153 1.607 3.574M72.678 29.579s2.017 2.46 2.084 3.562"/>
    <ellipse cx="77.937" cy="41.479" fill="#ffe680" rx="2.965" ry="2.805"/>
    <ellipse cx="96.852" cy="69.263" fill="#ffe680" rx="3.171" ry="2.955"/>
    <ellipse cx="184.079" cy="65.111" fill="#ffe680" rx="2.999" ry="3.065"/>
    <ellipse cx="186.258" cy="37.462" fill="#ffe680" rx="3.079" ry="2.954"/>
    <ellipse cx="77.937" cy="41.479" fill="url(#radialGradient1364)" stroke="#000" stroke-linecap="round" stroke-linejoin="round" stroke-miterlimit="10" rx="2.965" ry="2.805"/>
    <ellipse cx="96.852" cy="69.263" fill="url(#radialGradient1366)" stroke="#000" stroke-linecap="round" stroke-linejoin="round" stroke-miterlimit="10" rx="3.171" ry="2.955"/>
    <ellipse cx="184.079" cy="65.111" fill="url(#radialGradient1368)" stroke="#000" stroke-linecap="round" stroke-linejoin="round" stroke-miterlimit="10" rx="2.999" ry="3.065"/>
    <ellipse cx="186.258" cy="37.462" fill="url(#radialGradient1370)" stroke="#000" stroke-linecap="round" stroke-linejoin="round" stroke-miterlimit="10" rx="3.079" ry="2.954"/>
    <path fill="none" stroke="#000" stroke-linecap="round" stroke-linejoin="round" stroke-miterlimit="10" stroke-width=".5" d="M82.197 47.547s3.341 23.881 8.023 48.744c5.114 27.156 11.617 55.55 11.903 56.979.547 2.736 1.574 25.035 1.642 29.002.04 2.33 1.755 11.964 2.736 19.7.688 5.436.753 10.045.753 10.045"/>
    <path fill="#ffb380" d="M179.913 189.624c.137-.365 14.88-1.266 14.88-1.266v10.523s-5.376.182-9.352.353c-2.189.095-4.002.434-4.148.16-.41-.776-1.517-9.404-1.38-9.77z"/>
    <path fill="url(#linearGradient1414)" stroke="#000" stroke-linecap="round" stroke-linejoin="round" stroke-miterlimit="10" d="M179.913 189.624c.137-.365 14.88-1.266 14.88-1.266v10.523s-5.376.182-9.352.353c-2.189.095-4.002.434-4.148.16-.41-.776-1.517-9.404-1.38-9.77z"/>
    <path fill="#ffb380" d="M182.43 194.423c.003-.774 1.883-5.346 1.883-5.346s10.889-1.128 11.072-.627c.182.501.227 10.032 0 10.305-.228.274-8.801.64-8.801.64s-4.157-4.197-4.154-4.972z"/>
    <path fill="url(#linearGradient1437)" stroke="#000" stroke-linecap="round" stroke-linejoin="round" stroke-miterlimit="10" d="M182.43 194.423c.003-.774 1.883-5.346 1.883-5.346s10.889-1.128 11.072-.627c.182.501.227 10.032 0 10.305-.228.274-8.801.64-8.801.64s-4.157-4.197-4.154-4.972z"/>
    <path fill="#f95" stroke="#000" stroke-linecap="round" stroke-linejoin="round" stroke-miterlimit="10" d="M185.232 189.02s.141-1.105 1.03-.9l1.085.665z"/>
    <path fill="#ffb380" stroke="#000" stroke-linecap="round" stroke-linejoin="round" stroke-miterlimit="10" d="M186.262 188.12c.64.147 1.274 4.632 1.47 7.9.078 1.278-.268 3.152-.17 3.33.342.637 1.742.35 2.256-.113.514-.463-.067-10.485-1.332-11.144z"/>
    <ellipse cx="192.099" cy="194.211" fill="#ff7f2a" stroke="#000" stroke-linecap="round" stroke-linejoin="round" stroke-miterlimit="10" rx="1.049" ry="1.414"/>
    <path fill="#ffe680" stroke="#000" stroke-linecap="round" stroke-linejoin="round" stroke-miterlimit="10" d="M190.916 199.176s.705 3.743 2.53 1.419c.19-.242.006-11.686-.298-13.13-.236-1.13-2.224-1.316-2.348-1.322-.525-.023-.43 2.387-.43 2.387l.907-.067s-.158-1.13.16-1.112c1.095.067.896 3.908.958 7.407.05 2.716.091 5.13-.25 5.38-.448.328-.547-1.002-.547-1.002z"/>
    <path fill="#f55" stroke="#000" stroke-linecap="round" stroke-linejoin="round" stroke-miterlimit="10" d="M173.89 127.776c-.205.104.687 8.658 1.028 18.878.125 3.785-.792 7.801-.48 11.697.413 5.145 2.049 9.978 2.669 14.091.994 6.61.957 11.218.957 11.218h4.652c1.984-4.31-3.239-10.947-4.427-23.052-.46-4.673.556-9.595.39-14.09-.37-10.11-1.483-18.347-1.641-18.742 0 0-2.6-.274-3.147 0z"/>
    <path fill="#ffe680" stroke="#000" stroke-linecap="round" stroke-linejoin="round" stroke-miterlimit="10" d="M174.777 127.656s2.193 16.604 1.509 21.05c-.684 4.447-1.104 7.25-.689 10.603.415 3.352 4.86 20.93 3.903 24.35h1.917c.409-4.103-4.31-19.494-4.653-24.213-.12-1.674.648-5.896.753-10.74.19-8.81-.267-19.676-1.29-21z"/>
    <path fill="#f55" stroke="#000" stroke-linecap="round" stroke-linejoin="round" stroke-miterlimit="10" d="M85.193 127.8c.365-.274 1.962-.18 2.372.228.072.073-.274 1.634-.594 4.515-.485 4.345.037 10.841-.73 18.195-.578 5.565-2.352 11.424-3.237 16.6-1.555 9.1-1.687 15.774-2.235 16.141-.547.368-3.694.18-3.921-.41-.228-.59.954-7.328 2.9-16.596.73-3.47 2.61-7.16 3.165-10.912 2.042-13.789 2.097-27.622 2.28-27.76z"/>
    <path fill="#ffe680" stroke="#000" stroke-linecap="round" stroke-linejoin="round" stroke-miterlimit="10" d="M85.993 127.644s-.513 11.254-1.739 23.71c-.889 9.029-2.524 12.242-3.626 17.51-1.76 8.414-2.865 14.451-2.781 14.655l1.55.15c.11-.626.997-8.453 2.258-16.308 1.115-6.952 2.942-11.553 3.489-15.756.509-3.907 1.462-23.915 1.462-23.915z"/>
    <path fill="#ffb380" d="M78.817 189.624c-.137-.365-14.88-1.266-14.88-1.266v10.523s5.375.182 9.351.353c2.19.095 4.003.434 4.149.16.41-.776 1.517-9.404 1.38-9.77z"/>
    <path fill="url(#linearGradient1445)" stroke="#000" stroke-linecap="round" stroke-linejoin="round" stroke-miterlimit="10" d="M78.817 189.624c-.137-.365-14.88-1.266-14.88-1.266v10.523s5.375.182 9.351.353c2.19.095 4.003.434 4.149.16.41-.776 1.517-9.404 1.38-9.77z"/>
    <path fill="#ffb380" d="M76.3 194.423c-.004-.774-1.883-5.346-1.883-5.346s-10.89-1.128-11.072-.627c-.183.501-.228 10.032 0 10.305.228.274 8.8.64 8.8.64s4.158-4.197 4.154-4.972z"/>
    <path fill="url(#linearGradient1468)" stroke="#000" stroke-linecap="round" stroke-linejoin="round" stroke-miterlimit="10" d="M76.3 194.423c-.004-.774-1.883-5.346-1.883-5.346s-10.89-1.128-11.072-.627c-.183.501-.228 10.032 0 10.305.228.274 8.8.64 8.8.64s4.158-4.197 4.154-4.972z"/>
    <path fill="#f95" stroke="#000" stroke-linecap="round" stroke-linejoin="round" stroke-miterlimit="10" d="M73.499 189.02s-.142-1.105-1.03-.9l-1.085.665z"/>
    <path fill="#ffb380" stroke="#000" stroke-linecap="round" stroke-linejoin="round" stroke-miterlimit="10" d="M72.468 188.12c-.64.147-1.274 4.632-1.471 7.9-.077 1.278.269 3.152.171 3.33-.342.637-1.742.35-2.256-.113-.515-.463.066-10.485 1.332-11.144z"/>
    <ellipse cx="66.631" cy="194.211" fill="#ff7f2a" stroke="#000" stroke-linecap="round" stroke-linejoin="round" stroke-miterlimit="10" rx="1.049" ry="1.414"/>
    <path fill="#ffe680" stroke="#000" stroke-linecap="round" stroke-linejoin="round" stroke-miterlimit="10" d="M67.814 199.176s-.705 3.743-2.53 1.419c-.19-.242-.006-11.686.297-13.13.236-1.13 2.224-1.316 2.349-1.322.524-.023.429 2.387.429 2.387l-.906-.067s.157-1.13-.161-1.112c-1.095.067-.896 3.908-.958 7.407-.05 2.716-.09 5.13.25 5.38.448.328.548-1.002.548-1.002z"/>
    <path fill="#999" stroke="#000" stroke-linecap="round" stroke-linejoin="round" stroke-miterlimit="10" d="M153.928 109.584c.41-.41 4.243-.456 4.197.684-.046 1.14-.913 4.925-2.509 4.925-1.596 0-2.098-5.198-1.688-5.609z"/>
    <path fill="#fd5" stroke="#000" stroke-linecap="round" stroke-linejoin="round" stroke-miterlimit="10" d="M154.078 112.411c-.222.618.087 3.17.467 3.933.147.296 1.641 1.09 2.052.391.41-.7 1.142-3.26 1.006-4.221-.137-.961-3.249-.872-3.525-.103z"/>
    <path fill="#fd5" stroke="#000" stroke-linecap="round" stroke-linejoin="round" stroke-miterlimit="10" d="M154.824 116.002h1.389s.828.273.794 2.223c-.034 1.949-.273 6.703-.273 6.703h-2.258s-.117-6.638 0-7.217l.348-1.71zM155.113 114.32c.515.61 1.302.343 1.477-.008.175-.351.786-4.585.366-4.876-.422-.29-1.514-.464-1.808-.009-.295.455-.55 4.284-.035 4.893zM96.753 78.986c-.17-.24-3.489-.205-3.386 1.061.103 1.266.82 5.028 2.668 4.788 1.848-.24.889-5.61.718-5.849z"/>
    <path fill="#fd5" stroke="#000" stroke-linecap="round" stroke-linejoin="round" stroke-miterlimit="10" d="M97.425 82.386c.25.227-.776 3.17-1.277 3.237-.501.068-2.235-.045-2.372-.57-.137-.526.274-3.017.707-3.196.434-.178 2.692.301 2.942.529z"/>
    <path fill="#fd5" stroke="#000" stroke-linecap="round" stroke-linejoin="round" stroke-miterlimit="10" d="M94.188 84.845c.25-.13 1.105-.143 1.42.325.313.468-.691 8.003-.873 8.185-.182.182-1.961.297-2.235-.114-.274-.41 1.437-8.266 1.688-8.396zM94.044 79.204c-.204.32.21 3.432.872 3.888.66.455 1.004.113 1.118-.343.114-.456-.324-3.612-.572-3.859-.249-.247-1.214-.005-1.418.314zM174.777 127.685s2.097-.274 2.463.867c.366 1.14.501 6.315 0 6.361-.501.046-1.248.329-1.384-.583.592-.616.426-5.368-.075-5.276-.501.092-1.004-1.37-1.004-1.37z"/>
    <path fill="#fd5" stroke="#000" stroke-linecap="round" stroke-linejoin="round" stroke-miterlimit="10" d="M176.172 134.896s.727 8.7 1.091 8.795c.364.095 1.367-.019 1.345-.293-.022-.273-1.208-8.261-1.368-8.486-.16-.224-1.068-.016-1.068-.016zM86.921 127.685s-1.67-.214-2.036.926c-.366 1.139-.55 6.308-.05 6.354.502.046.872.276 1.008-.636-.592-.616-.426-5.368.075-5.276.501.092 1.003-1.368 1.003-1.368z"/>
    <path fill="#fd5" stroke="#000" stroke-linecap="round" stroke-linejoin="round" stroke-miterlimit="10" d="M85.726 134.76s-.926 8.835-1.29 8.932c-.365.095-1.367-.02-1.345-.294.022-.273 1.585-8.209 1.744-8.433.16-.225.891-.206.891-.206z"/>
</svg>
