<?xml version="1.0" encoding="UTF-8"?>
<svg cursor="default" version="1.1" viewBox="0 0 256 256" xmlns="http://www.w3.org/2000/svg" xmlns:cc="http://creativecommons.org/ns#" xmlns:dc="http://purl.org/dc/elements/1.1/" xmlns:rdf="http://www.w3.org/1999/02/22-rdf-syntax-ns#" xmlns:xlink="http://www.w3.org/1999/xlink">
 <metadata>
  <rdf:RDF>
   <cc:Work rdf:about="">
    <dc:format>image/svg+xml</dc:format>
    <dc:type rdf:resource="http://purl.org/dc/dcmitype/StillImage"/>
    <dc:title/>
   </cc:Work>
  </rdf:RDF>
 </metadata>
 <defs>
  <linearGradient id="linearGradient1079" x1="157.29" x2="157.43" y1="157.96" y2="124.6" gradientUnits="userSpaceOnUse">
   <stop stop-color="#f95" offset="0"/>
   <stop stop-color="#fca" offset=".36944"/>
   <stop stop-color="#ffb380" offset=".48567"/>
   <stop stop-color="#fca" offset=".57806"/>
   <stop stop-color="#fca" offset="1"/>
  </linearGradient>
  <linearGradient id="linearGradient1122" x1="3.2542" x2="249.22" y1="122.31" y2="126.1" gradientUnits="userSpaceOnUse">
   <stop stop-color="#ff2a2a" offset="0"/>
   <stop stop-color="#f55" offset=".12319"/>
   <stop stop-color="#f55" offset=".84057"/>
   <stop stop-color="#ff2a2a" offset="1"/>
  </linearGradient>
  <linearGradient id="linearGradient1134" x1="117.74" x2="117.64" y1="123.5" y2="127.71" gradientUnits="userSpaceOnUse">
   <stop stop-color="#faa" offset="0"/>
   <stop stop-color="#ff8080" offset="1"/>
  </linearGradient>
  <linearGradient id="linearGradient1154" x1="93.831" x2="28.068" y1="141.02" y2="138.03" gradientUnits="userSpaceOnUse">
   <stop stop-color="#f55" offset="0"/>
   <stop stop-color="#ff8080" offset="1"/>
  </linearGradient>
  <linearGradient id="linearGradient1162" x1="98.576" x2="131.53" y1="140.75" y2="140.88" gradientUnits="userSpaceOnUse">
   <stop stop-color="#ff8080" offset="0"/>
   <stop stop-color="#f55" offset=".54023"/>
   <stop stop-color="#ff8080" offset="1"/>
  </linearGradient>
 </defs>
 <g transform="matrix(1 -.026927 0 1 3.7822e-6 8.5485)">
  <g stroke="#000">
   <path d="m182.6 139.17c1.0663 0.067 3.4173 0.40484 2.4704-2.6726 5.147 2.7768-1.2054 5.2462-2.4704 2.6726z" fill="#ff2a2a" stroke-linecap="round" stroke-linejoin="round" stroke-width=".69296"/>
   <path d="m166.17 139.48c1.0663 0.067 3.4173 0.40484 2.4704-2.6726 5.147 2.7768-1.2054 5.2462-2.4704 2.6726z" fill="#ff2a2a" stroke-linecap="round" stroke-linejoin="round" stroke-width=".69296"/>
   <path d="m21.559 122.31c20.416-8.8451 182.76-6.655 201.9 5.4237 8.2307-3.1269 18.038-3.101 22.951-12.863-4.5076-13.725-74.43-18.578-132.21-18.307-68.856 0.32297-105.49 5.8411-107.88 13.686 1.9196 8.4344 6.4192 12.573 15.241 12.06z" fill="url(#linearGradient1122)" stroke-width=".75"/>
  </g>
  <g stroke="#000">
   <g>
    <path d="m16.429 124.5c4.5702-5.7847 29.294-9.4144 97.988-8.5332 48.994 0.62847 107.57 3.0284 111.99 15.149" fill="none" stroke-dasharray="0.60000002, 1.80000007" stroke-width=".3"/>
    <path d="m6.5198 110.55c5.0496-5.1135 35.904-12.253 104.6-12.177 48.131 0.05324 127.42 3.2202 134.42 17.45" fill="none" stroke-dasharray="0.60000002, 1.80000007" stroke-width=".3"/>
    <path d="m5.6949 110.1 0.67797 25.763c3.6827 5.7568 19.895 10.307 58.034 12.746l76.339 0.94915-1.4915-24.746c-24.611 0.80115-40.539 1.3305-61.319 0.3189-60.17-2.9292-69.304-7.1379-72.24-15.031z" fill="url(#linearGradient1154)" stroke-width=".75"/>
    <path d="m6.5198 134.62c7.3552 7.4568 33.174 10.288 56.377 12.441l0.67115-20.399c-19.288-1.315-49.187-2.1053-57.719-12.081" fill="none" stroke-dasharray="2.4000001, 0.30000001" stroke-width=".3"/>
   </g>
   <path d="m134.63 137.7c-6.1189 1.2366-1.8558 3.4676-0.1558 5.4531 1.2149-1.8138 7.6447-3.6104 0.1558-5.4531z" fill="#ff2a2a" stroke-width="1px"/>
  </g>
  <path d="m134.63 137.7c-6.1189 1.2366-1.8558 3.4676-0.1558 5.4531 1.2149-1.8138 7.6447-3.6104 0.1558-5.4531z" fill-opacity=".50196"/>
  <g stroke="#000">
   <g>
    <path d="m132.7 139.43c0.57916 0.89782 1.7031 2.9902 3.6173 0.40118 0.82138 5.7903-4.9371 2.1448-3.6173-0.40118z" fill="#ff2a2a" stroke-linecap="round" stroke-linejoin="round" stroke-width=".69296"/>
    <path d="m246.41 114.87c-7.4637 10.019-24.733 8.4144-38.447 11.025-16.189 0.89057-32.378 1.084-48.566 0.56836-9.4749 2.0804-21.572 1.6003-35.135 0.10351-20.71-0.95405-41.421-0.66493-62.131-0.38476-6.1614 2.4334-9.1082 7.0092-13.326 10.738-1.1096 0.98099-1.2661 2.9587 0.47852 4.2188 4.6963 3.3919 12.877 9.9555 14.977 10.096 22.054-0.7739 40.422 0.0495 60.672 0.25977 10.141 1.3158 20.381 1.3324 30.777-0.67188l56.186-1.3418c19.255-0.46 28.57-5.3152 32.982-10.355zm-61.73 21.934a1.5953 1.5205 0 0 1 1.5957 1.5215 1.5953 1.5205 0 0 1-1.5957 1.5195 1.5953 1.5205 0 0 1-1.5957-1.5195 1.5953 1.5205 0 0 1 1.5957-1.5215zm-16.578 0.46094a1.5293 1.5264 0 0 1 1.5293 1.5254 1.5293 1.5264 0 0 1-1.5293 1.5273 1.5293 1.5264 0 0 1-1.5293-1.5273 1.5293 1.5264 0 0 1 1.5293-1.5254zm-15.676 0.97851a1.9384 1.8545 0 0 1 1.9375 1.8535 1.9384 1.8545 0 0 1-1.9375 1.8555 1.9384 1.8545 0 0 1-1.9394-1.8555 1.9384 1.8545 0 0 1 1.9394-1.8535zm-17.906 0.13672a1.8502 1.8262 0 0 1 1.8516 1.8262 1.8502 1.8262 0 0 1-1.8516 1.8262 1.8502 1.8262 0 0 1-1.8496-1.8262 1.8502 1.8262 0 0 1 1.8496-1.8262z" fill="url(#linearGradient1162)" stroke-width=".75"/>
    <path d="m246.24 118.92c-4.8179 5.0018-16.119 7.8097-49.763 9.3559-13.325 0.61243-25.673 0.18079-38.508 0.27118-13.508 1.8022-24.902 1.4897-34.576-0.54237-18.115 0.68712-39.839 0.17102-60.865-0.11233l-11.406 9.1971c-0.95886 0.77314-1.4817 2.0228 0 3.1186l13.017 9.6271c22.095-0.79289 40.559-0.13308 60.339 0 11.48 2.855 23.261 0.59054 34.983-0.67797l55.322-1.2203c20.305-0.44791 27.048-7.6025 30.102-9.8983" fill="none" stroke-dasharray="2.4, 0.3" stroke-width=".3"/>
   </g>
   <g stroke-width=".75">
    <path d="m62.13 126.18c-5.2938 2.8938-10.353 8.0385-13.854 11.649 0.11189-1.3053 7.657-9.0823 14.238-12.608l62.321 0.57527c11.144 2.144 22.639 1.8368 34.325 0.19176 0 0 87.462 2.8511 85.14-12.464-1.8651-12.306-85.158-16.228-128.4-16.389-36.311-0.13587-105.91 2.9521-108.42 12.938-2.8122 11.175 51.281 14.837 89.454 15.176 22.99 0.20426 37.772 0.11996 37.772 0.11996 0.92507-0.19176 3.3793-0.38351 0-0.57527l-38.295 0.21502c-0.91104-0.25904-1.7931-0.51999 0.0339-0.95879 10.697 4.4e-4 26.52 0.77066 39.873-0.13559 3.6572-0.2482 4.2776 1.7745 0.59854 2.1751-0.38051 0.0414-17.802-0.0815-39.084-0.19397-39.242-0.20741-93.563-2.169-92.167-15.631 1.2831-12.376 73.063-14.169 110.29-14.044 44.161 0.14815 128.79 3.1059 130.61 18.038 1.9722 16.2-86.831 12.881-86.831 12.881-12.549 1.2558-24.886 2.0879-35.475-0.57528-21.732 0.63897-41.771 8e-3 -62.13-0.38351z" fill="#faa"/>
    <path d="m125.98 153.89c0.77311-0.43124 0.21344-0.95425 0.28627-1.6856l-0.71187-0.0678-0.16949-25.932 0.13559-0.71187 0.20339 1.017c0.31036-0.84281 0.87823-2.2302 2.2712-2.3051-0.14797-1.0854-1.3378-0.67992-2.2069-0.80389-14.715 2.2605-6.2997 29.839 0.19182 30.49z" fill="#f55"/>
    <path d="m106.52 153.98c-0.59504-0.19637-1.3307-0.3896-1.3423-1.9176l-0.19176-25.312c-0.0145-1.9169 0.81111-2.3647 2.4164-3.693 1.7436-0.29443 20.2-0.67391 20.152 0.57456-1.3222-0.58728-2.6762 1.3897-2.6736 2.7829l0.048 25.072c4e-3 2.0394 0.34928 2.3009 1.0547 2.397z" fill="url(#linearGradient1134)"/>
    <path d="m134.46 152.32c-0.41233 2.3027 0.73592 2.3413 1.8814 2.5254l10.365 0.7971c13.463 1.0354 17.154-9.1101 17.364-14.356 0.3422-8.5593-4.5841-20.216-15.525-20.271l-13.559-0.0678c-2.3956 0.2824-1.3572 2.2819-1.6949 3.5932 0.19054 1.6214 3.319 0.67219 5.3559 0.67797l0.27118-0.81356c20.54-1.6168 19.525 9.969 19.19 16.291-0.56133 10.597-7.4898 10.932-14.834 11.616-3.0762 0.28652-6.4967 0.0839-8.8135 8e-3z" fill="url(#linearGradient1079)"/>
    <path d="m151.75 141.4s4.5286 1.53 6.9272 1.8936c1.106 0.16767 3.3558 0 3.3558 0 1.8192-0.0922 1.4293-2.8413-0.0959-2.5408 0 0-2.154 0.16426-3.2119 0-2.1873-0.3396-6.328-2.0614-6.328-2.0614-1.4058 0.1995-2.0427 1.5693-0.64716 2.7086z" fill="#ffb380"/>
   </g>
  </g>
  <g fill="#ffe6d5">
   <path d="m134.85 121.87c0.32359 6e-3 1.3767 0.36679 1.752 0.36471 1.2321-7e-3 3.8401-0.14124 6.7287-0.23779 1.6064-0.0537 3.1367-0.0836 4.5401-0.0633 1.8652 0.027 3.1045 0.13907 3.9018 0.27196-0.83524-0.13921-1.9886-0.30914-3.8948-0.44017-1.4088-0.0968-2.9344-0.15204-4.5498-0.18529-2.3224-0.0478-6.1593-0.062-6.73-0.0588-0.37299 2e-3 -1.4244 0.35457-1.748 0.34868z"/>
   <path d="m156.86 125.03c0.80092 0.9065 2.6856 4.0652 3.2908 5.1572 0.17929 0.32347 0.43648 0.77744 0.72121 1.3294 1.4155 2.7437 2.2683 5.6507 2.5077 8.2788-0.1688-1.8531-0.96185-6.1997-1.9721-8.5323-0.25333-0.58493-0.49361-1.0637-0.6781-1.3966-0.62189-1.1221-3.0687-3.9299-3.8696-4.8364z"/>
   <path d="m158.63 141.71c0.41025-5e-3 1.6437 0.1895 2.054 0.18425 0.3376-4e-3 1.3477-0.22783 1.6853-0.23215-0.3376 4e-3 -1.3531-0.19322-1.6907-0.1889-0.41025 5e-3 -1.6383 0.23154-2.0486 0.2368z"/>
  </g>
 </g>
</svg>
