<?xml version="1.0" encoding="UTF-8" standalone="no"?>
<svg
   xmlns:dc="http://purl.org/dc/elements/1.1/"
   xmlns:cc="http://creativecommons.org/ns#"
   xmlns:rdf="http://www.w3.org/1999/02/22-rdf-syntax-ns#"
   xmlns:svg="http://www.w3.org/2000/svg"
   xmlns="http://www.w3.org/2000/svg"
   xmlns:xlink="http://www.w3.org/1999/xlink"
   xmlns:sodipodi="http://sodipodi.sourceforge.net/DTD/sodipodi-0.dtd"
   xmlns:inkscape="http://www.inkscape.org/namespaces/inkscape"
   viewBox="0 0 256 256"
   version="1.1"
   id="svg62"
   sodipodi:docname="bananarang-edit.svg"
   inkscape:version="1.0.1 (3bc2e813f5, 2020-09-07)">
  <metadata
     id="metadata66">
    <rdf:RDF>
      <cc:Work
         rdf:about="">
        <dc:format>image/svg+xml</dc:format>
        <dc:type
           rdf:resource="http://purl.org/dc/dcmitype/StillImage" />
        <dc:title></dc:title>
      </cc:Work>
    </rdf:RDF>
  </metadata>
  <sodipodi:namedview
     pagecolor="#ffffff"
     bordercolor="#666666"
     borderopacity="1"
     objecttolerance="10"
     gridtolerance="10"
     guidetolerance="10"
     inkscape:pageopacity="0"
     inkscape:pageshadow="2"
     inkscape:window-width="1483"
     inkscape:window-height="1009"
     id="namedview64"
     showgrid="false"
     inkscape:snap-others="false"
     inkscape:snap-nodes="false"
     inkscape:zoom="2.0301699"
     inkscape:cx="222.90512"
     inkscape:cy="157.33689"
     inkscape:window-x="1062"
     inkscape:window-y="1"
     inkscape:window-maximized="0"
     inkscape:current-layer="g138"
     inkscape:document-rotation="0"
     inkscape:snap-global="true" />
  <defs
     id="defs28">
    <linearGradient
       id="innoGrad1"
       x1="238.253"
       x2="244.962"
       y1="10.261"
       y2="16.969"
       gradientUnits="userSpaceOnUse">
      <stop
         offset="0"
         stop-color="#ff2a2a"
         id="stop2" />
      <stop
         offset=".495"
         stop-color="#ff2a2a"
         stop-opacity="0"
         id="stop4" />
      <stop
         offset="1"
         stop-color="#ff2a2a"
         id="stop6" />
    </linearGradient>
    <linearGradient
       id="innoGrad3"
       x1="238.253"
       x2="244.962"
       y1="10.261"
       y2="16.969"
       gradientUnits="userSpaceOnUse">
      <stop
         offset="0"
         stop-color="#ff7f2a"
         id="stop9" />
      <stop
         offset=".495"
         stop-color="#ff7f2a"
         stop-opacity="0"
         id="stop11" />
      <stop
         offset="1"
         stop-color="#ff7f2a"
         id="stop13" />
    </linearGradient>
    <linearGradient
       id="innoGrad2"
       x1="238.253"
       x2="244.962"
       y1="10.261"
       y2="16.969"
       gradientUnits="userSpaceOnUse">
      <stop
         offset="0"
         stop-color="#ffd42a"
         id="stop16" />
      <stop
         offset=".495"
         stop-color="#ffd42a"
         stop-opacity="0"
         id="stop18" />
      <stop
         offset="1"
         stop-color="#ffd42a"
         id="stop20" />
    </linearGradient>
    <linearGradient
       id="linearGradient4855-1"
       x1="68.707"
       x2="80.291"
       y1="180.351"
       y2="192.048"
       gradientUnits="userSpaceOnUse"
       xlink:href="#innoGrad2"
       gradientTransform="matrix(0.75986154,0,0,0.75986154,5.0331357,35.519213)" />
    <linearGradient
       id="linearGradient967"
       x1="58.185"
       x2="70.134"
       y1="185.004"
       y2="196.885"
       gradientUnits="userSpaceOnUse"
       xlink:href="#innoGrad3" />
    <linearGradient
       id="linearGradient1002"
       x1="122.25"
       x2="128.415"
       y1="126.539"
       y2="132.769"
       gradientUnits="userSpaceOnUse"
       xlink:href="#innoGrad1" />
    <linearGradient
       id="linearGradient1037"
       x1="211.137"
       x2="215.845"
       y1="39.356"
       y2="44.136"
       gradientUnits="userSpaceOnUse"
       xlink:href="#innoGrad1" />
    <linearGradient
       id="linearGradient1072"
       x1="238.115"
       x2="244.813"
       y1="10.578"
       y2="16.775"
       gradientUnits="userSpaceOnUse"
       xlink:href="#innoGrad1" />
  </defs>
  <g
     id="g138">
    <g
       id="g1384">
      <g
         id="g1286">
        <g
           transform="matrix(1.401965,0,0,1.401965,-16.207638,-65.569897)"
           id="g88">
          <g
             fill="none"
             class="C J"
             id="g12">
            <path
               d="m 144.066,57.944 -1.191,1.852 -0.926,1.191 -0.529,0.794 -0.926,2.117 -0.529,1.588 -0.265,0.661 v 0.529 l 0.661,0.397 0.595,0.926 1.124,0.595 2.58,1.852 1.654,1.058 1.455,1.654 2.447,3.109 1.191,1.521 0.198,0.331 0.066,1.852 0.198,2.315 0.198,1.852 -0.066,1.389 0.132,0.794 -0.331,0.661 -0.728,0.728 -1.191,1.389 -0.595,0.794 -1.654,1.654 -0.86,0.992 -0.992,0.992 -0.992,1.124 -0.992,1.323 -1.191,1.984 -1.257,2.051 -0.794,1.654 -0.86,1.72 -0.926,2.249 -0.661,1.918 -3.307,9.327 -1.389,3.572 -1.191,2.91 -0.86,1.852 -1.124,2.381 -1.323,2.58 v 0.331 l -0.198,0.132 -0.728,0.992 -3.109,4.829 -1.654,2.646 -1.786,2.778 -0.992,1.389 -1.389,1.654 -1.323,1.588 -2.778,3.241 -1.588,1.588 -0.992,0.926 -1.588,1.389 -1.918,1.654 -1.72,1.389 -1.72,1.124 -2.117,1.323 -2.778,1.521 -2.381,1.058 -2.514,1.191 -1.852,0.728 -1.257,0.529 -2.117,0.794 -2.646,0.86 -3.307,1.058 -2.778,0.661 -1.786,0.463 -2.447,0.331 -2.977,0.397 -2.844,0.198 -2.977,0.198 -3.969,-0.066 -3.704,-0.132 -4.366,-0.265 -1.72,-0.132 -3.506,-0.066 -2.249,-0.265 -2.977,-0.066 -2.183,-0.265 -2.447,-0.529 -2.315,-0.397 -2.183,-0.331 -2.381,-0.331 -2.844,-0.463 -2.447,-0.397 H 27.12 l -0.728,-0.463 h -1.984 l -0.926,0.331 -1.323,0.595 -1.389,1.323 -1.191,2.514 -1.257,3.109 -0.728,1.786 -0.397,1.521 -0.132,6.945 1.521,3.506 0.926,1.654 1.587,2.315 0.86,1.455 0.463,0.661 3.638,3.572 3.903,2.977 2.778,1.984 4.299,2.447 3.109,1.852 1.587,0.794 5.093,1.984 14.618,4.829 5.159,1.323 7.011,1.323 4.696,0.595 3.241,0.397 2.447,0.265 4.763,0.198 7.607,0.066 3.903,-0.265 6.085,-0.529 5.292,-0.992 4.233,-0.86 5.159,-1.521 7.011,-2.447 7.541,-3.373 6.548,-3.836 3.903,-2.58 5.093,-3.903 2.646,-2.183 3.77,-3.307 3.704,-3.44 3.638,-3.44 2.249,-2.778 2.712,-3.506 1.521,-1.786 1.984,-3.903 1.918,-3.638 1.786,-3.373 2.183,-4.696 1.72,-3.572 1.257,-2.778 1.918,-4.696 0.463,-1.124 1.389,-4.895 0.661,-4.432 0.794,-5.887 0.463,-6.284 0.331,-5.755 0.132,-5.821 v -4.101 l -0.066,-3.836 -0.066,-2.844 -0.198,-1.124 -0.198,-1.058 -0.331,-1.257 -0.529,-1.984 -0.728,-2.117 -0.794,-2.183 -1.124,-2.514 -0.926,-1.984 -1.521,-2.646 -1.984,-3.373 -1.786,-1.521 -1.786,-1.455 -1.72,-1.323 -1.521,-0.794 -2.514,-0.86 -2.91,-0.86 -1.852,-0.529 -0.265,-1.191 v -4.498 l -0.066,-1.786 -0.198,-1.918 -0.595,-2.91 -0.794,-3.109 -0.926,-2.646 -0.926,-2.117 -0.926,-1.72 -0.86,-1.918 -1.323,-0.794 -2.117,-0.86 -3.506,-0.132 -2.183,0.926 -1.124,0.728 -0.926,0.794 -1.588,1.058 -1.124,0.728 -1.124,0.794 -0.86,0.926 z"
               id="path4" />
            <path
               d="m 144.33,62.508 1.124,-1.786 0.794,-0.992 1.124,-1.124 1.654,-1.191 1.72,-1.124 1.984,-0.992 1.786,-0.595 0.728,-0.132 1.389,-0.066 1.786,0.794 0.926,1.124 -0.529,0.794 -2.051,2.778 -2.051,2.977 -0.265,0.595 -0.728,0.529 -0.728,0.661 -0.463,0.463 -0.794,0.463 -2.447,1.124 -1.786,0.86 -0.463,0.529 -2.646,-1.786 -0.397,-0.198 -0.661,-0.198 -0.661,-0.397 -0.198,-0.066 1.124,-1.72 z m 7.541,5.556 0.066,0.132 1.588,2.183 0.595,1.191 1.257,1.654 1.058,1.72 1.058,1.521 0.661,1.058 c 0,0 0.595,0.728 0.595,0.992 0,0.264 -0.066,-0.794 -0.066,-0.794 l -0.066,-1.124 -0.463,-1.455 -0.794,-1.654 -0.926,-2.58 -0.86,-2.249 -0.926,-1.72 -0.066,-0.397 h -0.265 l -1.257,0.86 -1.588,0.926 -1.588,0.992 -0.86,0.529 -0.066,0.198 0.661,0.661 1.323,1.521 1.984,2.249 0.86,1.323 0.529,1.257 0.265,1.257 0.331,2.58 0.331,2.778 0.463,3.043 0.198,1.257 0.198,1.058 h 0.198 l 0.529,-0.794 1.918,-2.844 0.794,-1.257 0.463,-0.728 -0.397,-1.389 -0.198,-0.926 -0.198,-1.124 v -0.595 l -0.198,-0.926 -0.198,-0.661 v -0.265 l -0.132,-0.397 m -3.339,-11.277 0.529,1.422 0.926,2.381 1.158,3.043 0.728,1.852 0.728,1.951 0.364,0.794 0.165,1.29 0.165,1.158 0.298,1.124 0.198,0.992 1.124,0.232 1.389,0.661 0.066,-2.58 -0.066,-2.547 -0.099,-1.852 -0.562,-2.58 -1.455,-7.441 -0.628,-2.414 -0.496,-1.951 -0.198,-1.356 -0.066,-0.661 -0.066,-0.033 -0.496,0.893 -1.224,1.687 -1.29,2.017 z m 10.617,16.272 -0.529,0.959 -0.43,1.124 -0.695,1.422 -0.628,1.389 -0.628,0.827 -0.165,0.132 -0.397,-0.992 -0.529,-0.794 -0.265,-0.728 -0.033,-0.165 -0.265,0.232 -0.165,0.463 -0.165,0.397 -0.529,0.86 -1.257,2.315 -0.926,1.687 -0.628,1.058 -2.15,0.033 -1.025,-1.422 -0.562,-0.661 -0.099,-0.066 c 0,0 -0.165,0 -0.198,0.132 -0.033,0.132 -0.496,0.661 -0.496,0.661 l -1.124,1.058 -1.984,2.315 -0.926,1.356 c -0.066,0.132 -1.554,2.249 -1.554,2.249 l -1.29,2.381 -1.654,4.101 -0.595,2.183 -1.356,3.539 -1.124,3.076 c -0.066,0.232 -1.224,3.307 -1.224,3.307 l -1.025,2.381 -0.992,2.547 -3.175,6.515 -2.117,3.671 -0.165,0.761 -3.307,5.854 -1.753,2.877 -1.852,2.48 -2.943,3.803 -3.208,4.266 -0.992,0.992 -1.654,1.554 -2.15,2.051 -1.984,1.786 -1.621,1.191 -1.621,1.29 -2.977,1.918 -1.885,1.29 -5.027,2.514 -3.01,1.124 -2.017,0.827 -3.142,1.058 -3.605,0.893 -2.216,0.628 -3.109,0.43 -2.414,0.298 c -0.165,0.033 -4.564,0.232 -4.564,0.232 l -2.348,0.066 -0.595,0.099 -5.755,0.033 -7.441,-0.033 h -6.118 l -1.951,0.033 -1.852,-0.232 -2.216,-0.298 -3.076,-0.265 -3.076,-0.496 -2.48,-0.496 -2.712,-0.298 -2.712,-0.529 -2.547,-0.364 c -0.132,-0.033 -2.017,-0.232 -2.017,-0.232 l -0.463,-0.165 -0.265,-0.165 -0.066,0.298 0.794,1.588 1.72,2.844 1.257,1.984 1.191,1.786 0.099,0.827 0.198,1.257 0.265,1.257 0.099,1.521 v 0.562 l -0.794,0.959 -0.265,0.562 -0.165,0.496 -1.025,0.331 -1.257,0.198 -1.554,0.397 -3.373,0.529 -2.117,0.397 -0.992,0.066 -0.099,0.298 0.364,0.562 1.554,2.017 1.753,2.282 2.017,1.819 3.109,2.58 0.926,0.959 0.595,0.562 1.025,0.661 0.893,0.628 1.025,0.397 2.447,1.389 4.266,2.249 2.712,1.389 8.235,2.943 7.871,2.547 5.788,1.422 2.348,0.463 4.531,0.827 5.126,0.661 5.953,0.529 1.72,0.198 3.109,0.066 7.144,0.066 2.017,-0.033 3.109,-0.265 2.877,-0.099 2.216,-0.628 3.903,-0.562 2.745,-0.628 4.829,-1.29 4.862,-1.654 3.803,-1.356 4.167,-1.687 2.084,-1.058 2.414,-1.191 2.216,-1.224 3.274,-2.017 2.91,-2.051 2.315,-1.687 1.951,-1.455 2.58,-1.984 2.745,-2.414 2.381,-2.117 1.72,-1.753 2.084,-1.885 1.654,-1.72 2.084,-2.613 2.315,-3.01 1.753,-2.414 1.621,-2.15 2.414,-4.498 1.753,-3.506 0.198,-0.331 0.331,-0.397 3.307,-8.202 3.01,-8.136 0.661,-1.984 0.496,-3.01 0.43,-2.15 0.43,-2.447 0.43,-2.15 0.265,-2.877 0.43,-3.175 0.198,-3.605 0.397,-5.953 0.198,-4.63 -0.298,-6.714 -0.232,-2.646 -0.959,-5.358 -0.43,-1.951 -1.058,-2.547 -1.158,-2.348 -0.595,-0.827 -0.728,-0.893 -0.86,-1.025 -0.331,-0.761 -1.058,-1.819 -1.588,-1.72 -1.158,-1.356 -0.86,-0.893 -2.348,-0.959 -2.282,-1.058 -1.885,-0.992 -0.298,-0.066 z"
               id="path6" />
            <path
               d="m 135.996,202.968 1.025,-1.091 1.257,-1.191 2.216,-2.117 2.084,-1.918 2.811,-2.877 2.051,-1.951 2.514,-2.679 2.348,-2.315 2.017,-1.951 2.877,-3.01 2.282,-2.447 1.621,-2.117 2.282,-2.778 2.514,-3.208 2.348,-3.142 1.554,-2.183 2.91,-4.167 1.488,-1.951 0.761,-1.422 2.117,-3.175 0.661,-0.86 m -12.303,-71.339 0.529,2.48 0.529,3.473 0.331,1.422 -0.066,2.315 -0.132,2.514 -0.496,2.91 -0.595,2.58 -1.588,5.49 -1.224,2.414 -1.124,2.613 -1.654,3.142 -1.158,2.117 -1.588,2.414 -1.654,2.447 -1.621,1.918 -1.588,1.521 -1.158,0.992 -1.488,0.86 -0.992,0.331 -0.562,-0.099 -1.058,-0.033 h -0.794 l -1.621,-0.695 -0.761,-0.595 -0.827,-0.595 -1.257,-2.15 -0.628,-2.183 -0.562,-1.918 -0.232,-1.257 -0.066,-0.794"
               id="path8" />
            <path
               d="m 172.905,84.964 0.728,2.414 0.529,1.389 0.43,0.959 0.099,1.455 0.43,2.282 0.628,3.44 v 3.175 l 0.165,1.091 0.198,1.455 0.033,1.621 -0.265,2.183 -0.728,2.084 -0.43,2.216 -0.794,2.051 -0.695,1.852 -1.058,2.381 -1.521,2.183 -1.356,1.984 -2.183,2.679 -1.951,2.15 -1.786,1.654 -2.183,1.918 -2.183,1.786 -2.282,1.588 -2.117,1.422 -2.183,1.091 -1.323,0.728 -1.29,0.496 -0.893,0.165 -0.926,0.033 -1.124,-0.198 -1.224,-0.265 -1.753,-0.695 -1.191,-0.695 -1.29,-0.893 -1.885,-1.224 -1.323,-1.554 -1.257,-2.216 -0.959,-1.753 -0.265,-0.43 m 40.323,-21.682 0.047,2.339 -0.327,3.601 -0.14,4.724 -0.608,5.238 -0.187,2.198 -1.169,4.771 -0.935,3.18 -0.935,3.04 -1.543,4.63 -2.058,4.537 -1.824,3.742 -2.011,3.601 -3.789,6.314 -3.555,5.098 -3.18,4.022 -3.087,3.461 -3.04,3.274 -5.519,5.285 -2.292,1.543 -2.292,2.058 -2.993,2.198 -4.49,2.947 -6.314,3.274 -4.771,2.058 -3.601,1.216 -3.508,0.982 -3.04,0.702 -2.947,0.655 -4.397,0.327 -4.818,0.327 -4.256,0.14 -3.648,0.14 -7.063,-0.281 -6.314,-0.655 -4.116,-0.608 -4.443,-0.608 -3.461,-0.421 -4.724,-1.123 -5.475,-1.21 -3.461,-0.795 -3.976,-1.169 -3.508,-1.076 -3.087,-0.748 -1.45,-0.327 0.748,0.702 2.526,1.123 4.443,1.777 5.519,1.777 5.566,1.356 5.987,1.637 4.069,0.561 7.156,0.421 4.35,0.514 7.063,0.514 7.858,0.702 4.677,0.281 4.256,-0.468 2.385,-0.468 6.08,-1.263 4.864,-1.403 7.296,-2.479 5.332,-2.479 6.548,-3.508 3.835,-2.479 4.256,-3.087 2.152,-1.777 2.853,-2.572 5.847,-5.659 2.76,-3.555 2.9,-3.929 3.414,-4.443 1.216,-1.824 2.011,-4.022 2.058,-3.601 1.45,-3.695 0.889,-2.479 3.134,-8.279 1.356,-4.911 1.45,-7.203 0.514,-5.753 v -7.671 l -0.047,-0.889 0.023,-1.847 z m -143.506,79.097 3.109,1.753 1.885,0.695 3.803,1.786 h -0.033 l 0.728,0.165"
               id="path10" />
          </g>
          <path
             d="m 85.477,216.9 c -5.299,-0.276 -15.978,-1.924 -21.266,-3.283 -3.091,-0.794 -16.444,-5.179 -19.927,-6.543 -3.023,-1.184 -3.449,-1.389 -5.612,-2.694 -0.871,-0.526 -2.462,-1.447 -3.536,-2.048 -3.491,-1.954 -7.945,-5.284 -10.711,-8.009 -1.534,-1.511 -2.124,-2.208 -2.904,-3.431 l -1.713,-2.671 c -0.404,-0.625 -1.131,-2.006 -1.616,-3.068 l -0.882,-1.931 0.032,-3.486 c 0.037,-4.016 0.012,-3.885 1.414,-7.391 1.993,-4.983 2.582,-5.869 4.456,-6.7 1.13,-0.501 2.853,-0.648 3.369,-0.287 0.227,0.159 0.636,0.224 1.42,0.224 0.605,0 2.019,0.155 3.141,0.344 l 5.457,0.844 c 1.879,0.275 4.326,0.682 5.439,0.905 2.663,0.534 3.935,0.696 5.477,0.696 0.7,0 1.935,0.062 2.744,0.137 1.882,0.176 11.481,0.668 15.206,0.78 5.146,0.154 12.186,-0.533 16.708,-1.631 6.361,-1.545 15.383,-5.027 20.525,-7.923 3.258,-1.835 5.063,-3.144 8.576,-6.223 2.569,-2.251 3.974,-3.709 6.764,-7.017 2.758,-3.27 3.133,-3.774 4.955,-6.641 l 5.454,-8.458 c 0.26,-0.357 0.886,-1.487 1.392,-2.51 2.655,-5.37 4.023,-8.715 6.893,-16.852 2.376,-6.734 2.841,-7.923 4.041,-10.319 1.051,-2.1 3.227,-5.726 4.014,-6.69 0.282,-0.346 1.517,-1.704 2.744,-3.019 2.425,-2.598 4.372,-4.821 4.618,-5.274 0.163,-0.301 0.073,-2.927 -0.216,-6.283 -0.079,-0.92 -0.145,-1.869 -0.146,-2.109 -0.002,-0.346 -0.391,-0.931 -1.907,-2.859 -2.581,-3.283 -3.289,-4.072 -4.136,-4.604 -0.397,-0.25 -1.35,-0.904 -2.117,-1.455 -0.767,-0.551 -1.66,-1.135 -1.984,-1.299 -0.324,-0.164 -0.683,-0.479 -0.798,-0.7 -0.115,-0.221 -0.382,-0.529 -0.594,-0.683 l -0.385,-0.281 0.4,-1.233 c 0.587,-1.81 1.388,-3.457 2.221,-4.572 0.404,-0.541 0.886,-1.235 1.071,-1.542 0.664,-1.104 2,-2.322 4.067,-3.708 1.125,-0.754 2.086,-1.437 2.136,-1.518 0.163,-0.264 1.513,-1.051 2.629,-1.533 l 1.093,-0.472 1.836,0.133 c 1.826,0.132 1.844,0.137 3.3,0.861 l 1.464,0.728 1.283,2.684 c 1.844,3.857 2.366,5.416 3.468,10.353 0.34,1.522 0.383,2.051 0.476,5.857 0.056,2.301 0.161,4.365 0.233,4.587 0.122,0.38 0.255,0.44 2.216,1.012 3.035,0.885 5.045,1.567 5.943,2.016 0.789,0.394 2.616,1.784 4.873,3.705 1.158,0.986 1.256,1.117 2.807,3.776 0.884,1.515 1.826,3.193 2.093,3.73 1.956,3.929 3.58,8.552 4.385,12.481 0.215,1.05 0.243,2.135 0.24,9.483 -0.002,5.008 -0.069,9.265 -0.171,10.738 l -0.384,5.578 c -0.412,6.004 -1.459,13.154 -2.43,16.601 -0.727,2.579 -2.518,7.143 -4.294,10.941 -2.754,5.888 -4.188,8.833 -5.777,11.865 l -2.836,5.427 c -0.65,1.248 -1.38,2.429 -1.81,2.928 -0.397,0.46 -1.276,1.558 -1.955,2.44 -1.997,2.597 -4.045,5.074 -4.5,5.443 -0.233,0.189 -1.824,1.662 -3.537,3.272 -8.379,7.881 -13.9,12.132 -21.681,16.697 -7.248,4.252 -17.937,8.276 -26.335,9.915 -7.974,1.556 -10.397,1.793 -18.895,1.841 -3.26,0.019 -6.868,-0.015 -8.018,-0.075 z m 17.431,-3.186 c 1.391,-0.092 2.395,-0.234 2.996,-0.426 0.498,-0.158 1.815,-0.418 2.928,-0.577 4.395,-0.63 9.622,-2.099 17.082,-4.801 6.096,-2.208 11.979,-5.233 16.913,-8.697 6.303,-4.426 10.057,-7.507 15.488,-12.713 3.234,-3.1 4.52,-4.615 8.814,-10.389 2.336,-3.14 3.326,-4.792 5.602,-9.343 0.537,-1.074 1.063,-2.05 1.169,-2.17 0.403,-0.457 5.004,-12.214 6.846,-17.492 0.187,-0.537 0.488,-1.823 0.669,-2.859 l 1.4,-7.53 c 0.034,-0.115 0.125,-0.837 0.201,-1.604 l 0.415,-3.835 c 0.437,-3.851 0.897,-11.846 0.892,-15.479 -0.009,-5.963 -0.29,-8.923 -1.39,-14.642 -0.605,-3.144 -2.086,-6.403 -3.953,-8.695 -0.615,-0.756 -1.119,-1.435 -1.119,-1.51 0,-0.311 -1.208,-2.193 -1.868,-2.91 l -1.846,-2.029 c -1.034,-1.145 -1.225,-1.291 -2.161,-1.652 -0.565,-0.218 -2.117,-0.922 -3.448,-1.566 -1.669,-0.807 -2.472,-1.128 -2.586,-1.034 -0.09,0.075 -0.331,0.5 -0.534,0.945 -1.468,3.208 -1.941,4.188 -2.167,4.49 l -0.257,0.345 -0.504,-0.902 c -0.277,-0.496 -0.547,-1.072 -0.599,-1.281 -0.052,-0.209 -0.141,-0.379 -0.198,-0.379 -0.162,0 -0.522,0.459 -0.625,0.797 -0.052,0.17 -0.337,0.735 -0.633,1.255 l -1.651,2.968 -1.111,2.022 -2.052,0.06 -0.754,-1.041 c -0.415,-0.573 -0.838,-1.041 -0.94,-1.041 -0.2,0 -1.684,1.517 -3.138,3.207 -1.11,1.29 -3.181,4.291 -3.995,5.787 -0.767,1.41 -2.176,4.893 -2.679,6.624 -0.345,1.186 -1.23,3.605 -3.545,9.692 -2.041,5.364 -4.682,11.078 -6.751,14.602 -0.482,0.822 -0.937,1.71 -1.01,1.974 -0.145,0.525 -2.944,5.528 -4.457,7.967 -0.523,0.844 -1.647,2.444 -2.497,3.556 l -3.858,5.09 c -2.361,3.132 -2.59,3.378 -6.776,7.276 -2.664,2.481 -4.066,3.57 -7.85,6.097 -2.935,1.96 -6.452,3.836 -8.785,4.686 -0.69,0.252 -1.914,0.723 -2.719,1.048 -3.496,1.411 -8.864,2.848 -12.55,3.36 -4.009,0.557 -6.05,0.632 -19.251,0.708 -12.122,0.07 -12.719,0.061 -14.921,-0.213 l -3.409,-0.375 c -1.185,-0.095 -3.56,-0.459 -5.857,-0.899 -0.767,-0.147 -1.802,-0.306 -2.301,-0.354 -0.499,-0.048 -1.722,-0.238 -2.719,-0.423 a 86.15,86.15 0 0 0 -3.928,-0.607 c -1.163,-0.149 -2.247,-0.342 -2.408,-0.428 -0.332,-0.177 -0.567,-0.088 -0.567,0.217 0,0.476 1.691,3.451 3.861,6.793 0.639,0.984 1.159,1.936 1.159,2.122 0,0.186 0.125,0.982 0.278,1.771 0.153,0.789 0.279,1.803 0.279,2.253 10e-4,0.705 -0.056,0.882 -0.406,1.281 -0.223,0.254 -0.485,0.681 -0.582,0.948 -0.194,0.536 -0.147,0.517 -2.638,1.058 -1.615,0.351 -7.019,1.263 -7.483,1.263 -0.402,0 -0.556,0.32 -0.36,0.749 0.078,0.172 0.909,1.313 1.847,2.536 1.724,2.25 2.385,2.92 5.202,5.279 0.859,0.719 1.844,1.603 2.189,1.964 0.698,0.73 2.849,2.24 3.529,2.477 0.241,0.084 1.005,0.478 1.697,0.874 0.692,0.396 2.773,1.515 4.624,2.485 3.047,1.597 3.767,1.907 7.6,3.28 13.817,4.949 20.977,6.604 33.519,7.747 l 4.462,0.41 c 1.076,0.104 14.106,-0.032 16.176,-0.168 z m 55.429,-127.34 c 1.518,-2.294 1.834,-2.858 1.777,-3.172 a 57.04,57.04 0 0 0 -0.361,-1.637 c -0.16,-0.69 -0.293,-1.447 -0.294,-1.681 -0.006,-0.903 -0.878,-4.215 -1.465,-5.571 a 74.56,74.56 0 0 1 -1.316,-3.347 c -0.391,-1.074 -0.958,-2.454 -1.259,-3.068 -0.301,-0.614 -0.581,-1.225 -0.621,-1.36 -0.112,-0.371 -0.449,-0.296 -1.316,0.293 a 88.37,88.37 0 0 1 -2.702,1.701 c -1.052,0.64 -1.945,1.247 -1.984,1.349 -0.039,0.102 0.807,1.173 1.958,2.469 2.178,2.451 2.848,3.395 3.279,4.624 0.156,0.445 0.45,2.181 0.682,4.041 0.434,3.465 1.091,7.859 1.203,8.04 0.258,0.417 0.672,-0.042 2.419,-2.682 z m 5.013,-6.169 c -0.005,-1.553 -0.059,-3.294 -0.119,-3.87 -0.157,-1.496 -1.868,-9.942 -2.603,-12.847 -0.342,-1.352 -0.66,-2.87 -0.707,-3.374 -0.047,-0.504 -0.159,-0.944 -0.249,-0.979 -0.174,-0.067 -1.161,1.329 -3.255,4.603 -0.989,1.546 -1.273,2.096 -1.203,2.326 0.1,0.326 3.316,8.733 3.966,10.367 a 11.02,11.02 0 0 1 0.554,2.161 c 0.086,0.638 0.24,1.505 0.342,1.927 l 0.273,1.149 c 0.07,0.31 0.184,0.398 0.607,0.467 0.286,0.047 0.897,0.261 1.357,0.477 0.46,0.216 0.884,0.398 0.941,0.405 0.057,0.007 0.1,-1.259 0.095,-2.812 z M 147.341,68.153 c 0.105,-0.129 1.271,-0.753 2.592,-1.388 1.962,-0.944 2.614,-1.336 3.574,-2.148 0.645,-0.547 1.241,-1.141 1.323,-1.321 0.178,-0.391 1.88,-2.848 3.556,-5.135 0.665,-0.908 1.209,-1.692 1.207,-1.743 -0.002,-0.051 -0.268,-0.382 -0.593,-0.736 -0.391,-0.426 -0.892,-0.774 -1.485,-1.029 -0.795,-0.343 -1.006,-0.377 -1.883,-0.302 -1.901,0.162 -4.399,1.273 -6.997,3.111 -1.87,1.324 -3.073,2.611 -4.166,4.459 -0.448,0.757 -1.154,1.901 -1.57,2.541 -0.416,0.64 -0.735,1.174 -0.71,1.185 l 0.672,0.325 c 0.345,0.167 0.816,0.375 1.046,0.461 0.23,0.086 0.983,0.556 1.673,1.042 0.69,0.486 1.326,0.891 1.412,0.898 0.086,0.007 0.243,-0.091 0.349,-0.22 z"
             stroke-width="0.414"
             class="C"
             id="path14"
             style="fill:#000000;stroke:#000000" />
          <path
             d="m 37.745,187.884 -2.093,-1.749"
             fill="none"
             class="C J"
             id="path16" />
          <g
             class="D"
             id="g24">
            <path
               d="m 176.735,113.587 10e-4,2.243 c 0,1.614 -0.071,3.032 -0.253,5.053 -0.229,2.547 -0.322,3.152 -0.989,6.459 -1.082,5.363 -1.694,7.482 -3.688,12.77 l -2.024,5.423 c -1.102,3.084 -1.853,4.813 -2.852,6.558 a 93.38,93.38 0 0 0 -2.023,3.787 c -1.166,2.33 -1.811,3.325 -3.999,6.171 l -3.158,4.19 c -3.467,4.693 -4.016,5.336 -7.093,8.309 -4.937,4.771 -6.679,6.282 -10.11,8.767 a 72.48,72.48 0 0 1 -9.417,5.871 c -5.227,2.786 -7.756,3.913 -12.102,5.39 -5.257,1.787 -8.071,2.566 -12.697,3.518 -3.006,0.619 -4.435,0.862 -6.261,1.068 l -2.367,0.267 -2.711,-0.17 c -1.491,-0.093 -4.22,-0.307 -6.064,-0.475 l -7.297,-0.599 c -2.169,-0.161 -4.854,-0.402 -5.966,-0.535 -1.112,-0.133 -3.596,-0.334 -5.522,-0.446 -5.036,-0.293 -6.974,-0.578 -10.453,-1.536 l -5.866,-1.527 c -3.744,-0.926 -7.693,-2.179 -10.797,-3.426 -3.211,-1.29 -4.627,-1.947 -5.028,-2.333 a 20.6,20.6 0 0 0 -4.006,-2.968 l -1.49,-0.835 -0.383,0.134 a 8.45,8.45 0 0 1 -1.074,0.253 c -0.38,0.065 -1.027,0.203 -1.438,0.307 -0.411,0.104 -1.587,0.323 -2.613,0.487 l -2.901,0.495 c -0.569,0.109 -1.202,0.198 -1.405,0.198 -0.203,0 -0.37,0.025 -0.37,0.055 0,0.096 0.407,0.647 2.04,2.76 1.714,2.219 2.152,2.662 4.813,4.872 0.868,0.721 1.977,1.702 2.465,2.181 0.96,0.941 2.521,2.043 3.399,2.4 0.302,0.123 1.014,0.491 1.582,0.819 1.097,0.632 5.56,3.003 7.295,3.875 1.288,0.648 8.087,3.087 13.263,4.758 8.128,2.625 15.343,4.043 24.947,4.9 l 3.599,0.364 c 0.136,0.035 2.282,0.091 4.771,0.123 5.684,0.074 7.795,0.045 10.217,-0.14 1.058,-0.081 2.335,-0.146 2.84,-0.146 0.748,0 1.138,-0.063 2.12,-0.341 0.695,-0.197 1.974,-0.448 3.028,-0.595 4.914,-0.686 13.001,-3.096 20.263,-6.039 2.203,-0.893 6.995,-3.229 6.909,-3.368 -0.067,-0.108 1.246,-1.427 4.039,-4.06 2.26,-2.13 4.863,-4.713 12.38,-12.283 4.785,-4.818 6.742,-6.9 7.828,-8.325 0.432,-0.566 1.279,-1.629 1.882,-2.361 2.772,-3.365 5.511,-6.987 8.275,-10.945 l 2.816,-3.944 c 0.583,-0.786 1.18,-1.671 1.328,-1.965 0.319,-0.637 2.677,-4.181 3.036,-4.563 0.169,-0.18 0.65,-1.35 1.479,-3.599 1.596,-4.328 1.798,-4.963 2.043,-6.438 0.192,-1.153 0.366,-2.091 1.229,-6.632 a 44.48,44.48 0 0 0 0.492,-3.377 85.06,85.06 0 0 1 0.341,-2.958 c 0.105,-0.759 0.24,-2.246 0.301,-3.304 l 0.299,-4.782 c 0.3,-4.552 0.417,-7.506 0.344,-8.702 l -0.068,-1.109 h -3.589 z"
               stroke-width="0.454"
               class="C"
               id="path18"
               style="fill:#ffd42a;stroke:#ffd42a" />
            <path
               d="m 176.736,110.494 c 0,-2.825 -0.014,-3.055 -0.243,-4.07 -0.212,-0.938 -0.235,-1.226 -0.186,-2.257 0.045,-0.923 0.012,-1.489 -0.152,-2.594 a 19.67,19.67 0 0 1 -0.209,-3.016 c 0,-1.512 -0.03,-1.771 -0.535,-4.553 l -0.599,-3.639 c -0.045,-0.483 -0.206,-1.045 -0.537,-1.874 -0.483,-1.208 -0.935,-2.603 -0.866,-2.672 0.021,-0.021 0.35,0.327 0.732,0.775 l 1.473,1.651 c 0.535,0.575 0.973,1.182 1.394,1.931 l 0.614,1.196 c 0,0.057 0.36,0.538 0.8,1.071 1.28,1.549 1.49,1.876 2.277,3.542 1.02,2.162 1.423,3.198 1.648,4.24 l 1.285,7.741 0.3,5.349 c 0.001,0.161 -0.236,0.173 -3.598,0.173 h -3.599 z"
               class="C G"
               id="path20"
               style="fill:#ffd42a;stroke:#ffd42a" />
            <path
               d="m 84.737,196.585 c -3.572,-0.161 -8.126,-0.627 -12.917,-1.321 l -5.867,-0.8 a 40.98,40.98 0 0 1 -4.93,-0.888 l -5.621,-1.283 c -4.465,-0.995 -5.685,-1.293 -7.643,-1.871 -2.78,-0.82 -5.562,-1.69 -5.669,-1.771 -0.054,-0.041 -0.228,-0.106 -0.386,-0.144 -0.158,-0.038 -1.09,-0.448 -2.071,-0.911 -0.981,-0.463 -2.249,-1.017 -2.818,-1.23 -0.831,-0.312 -4.044,-1.983 -4.044,-2.104 0,-0.173 0.435,-0.912 0.779,-1.322 l 0.432,-0.515 -0.07,-1.104 c -0.038,-0.607 -0.13,-1.392 -0.204,-1.745 a 36.94,36.94 0 0 1 -0.29,-1.697 l -0.156,-1.056 -1.116,-1.705 c -1.812,-2.769 -3.713,-5.968 -3.713,-6.249 0,-0.034 0.068,-0.036 0.152,-0.004 0.084,0.032 0.561,0.106 1.06,0.164 a 93.97,93.97 0 0 1 5.395,0.823 c 0.678,0.131 1.743,0.29 2.367,0.354 0.624,0.064 1.8,0.245 2.613,0.402 2.244,0.435 4.39,0.756 5.867,0.88 0.732,0.061 2.352,0.233 3.599,0.381 l 2.268,0.269 10.304,-0.003 c 9.833,-0.003 12.573,-0.058 17.256,-0.346 2.23,-0.137 6.454,-0.729 7.695,-1.078 0.572,-0.161 1.925,-0.516 3.007,-0.788 2.071,-0.522 4.134,-1.184 5.863,-1.882 l 2.662,-1.034 c 2.008,-0.76 6.145,-2.815 7.366,-3.658 0.499,-0.344 1.608,-1.077 2.465,-1.627 0.857,-0.55 1.958,-1.318 2.446,-1.707 0.488,-0.389 1.22,-0.949 1.627,-1.246 0.947,-0.691 2.44,-2.044 5.257,-4.76 2.162,-2.085 2.326,-2.271 4.234,-4.792 l 2.834,-3.708 c 1.877,-2.395 3.259,-4.309 4.059,-5.621 1.493,-2.448 4.228,-7.361 4.316,-7.755 0.047,-0.21 0.575,-1.236 1.173,-2.279 l 1.21,-2.17 c 0.068,-0.151 0.158,-0.261 0.201,-0.247 0.043,0.014 0.573,0.915 1.177,1.999 1.577,2.831 1.958,3.257 4.306,4.808 2.348,1.551 2.367,1.563 3.427,1.99 0.95,0.383 2.989,0.844 3.73,0.844 0.948,0 2.349,-0.429 3.461,-1.061 0.329,-0.187 1.128,-0.606 1.775,-0.931 2.898,-1.456 6.826,-4.414 10.909,-8.214 2.88,-2.68 7.157,-8.283 8.348,-10.935 0.959,-2.136 2.056,-5.164 2.236,-6.173 0.169,-0.947 0.729,-2.814 0.818,-2.725 0.026,0.026 -0.043,1.083 -0.153,2.348 a 90.02,90.02 0 0 0 -0.26,4.42 c -0.037,1.339 -0.165,3.046 -0.348,4.634 l -0.396,3.698 c -0.197,2.189 -1.732,7.912 -3.803,14.174 a 43.69,43.69 0 0 1 -1.908,4.881 c -2.433,5.332 -3.556,7.453 -6.849,12.932 -4.695,7.812 -10.142,14.52 -17.471,21.517 -2.14,2.043 -2.962,2.76 -3.823,3.334 -0.603,0.403 -1.651,1.226 -2.329,1.829 -1.54,1.37 -3.18,2.58 -6.161,4.545 -1.801,1.187 -3.037,1.903 -5.455,3.161 -6.6,3.433 -11.078,5.058 -18.41,6.683 l -2.86,0.634 -4.388,0.304 c -7.291,0.506 -12.333,0.643 -16.566,0.452 z"
               stroke-width="0.875"
               class="E"
               id="path22"
               style="fill:#ffd42a;stroke:#ffd42a" />
          </g>
          <g
             class="C"
             id="g32">
            <path
               d="m 95.386,198.942 -13.903,-1.124 -5.423,-0.492 -6.015,-0.492 c -5.054,-0.296 -6.723,-0.549 -10.6,-1.609 l -5.571,-1.445 a 88.89,88.89 0 0 1 -14.002,-4.788 c -1.232,-0.549 -1.411,-0.641 -1.355,-0.698 0.093,-0.093 4.141,0.973 7.123,1.876 3.884,1.177 4.084,1.229 8.529,2.221 l 6.508,1.484 c 2.112,0.494 3.395,0.738 4.684,0.889 0.976,0.114 3.772,0.49 6.212,0.834 5.868,0.828 9.716,1.207 13.888,1.366 2.943,0.113 3.875,0.108 7.888,-0.044 4.303,-0.162 10.769,-0.565 12.391,-0.772 1.027,-0.131 6,-1.277 8.102,-1.868 4.356,-1.223 8.152,-2.769 13.147,-5.354 2.434,-1.259 3.788,-2.034 5.374,-3.073 2.797,-1.832 5.188,-3.592 6.542,-4.814 a 24.42,24.42 0 0 1 2.26,-1.773 c 0.935,-0.628 1.696,-1.293 3.917,-3.421 7.425,-7.114 12.663,-13.584 17.458,-21.565 2.52,-4.194 3.48,-5.902 4.709,-8.377 1.981,-3.991 3.189,-6.812 4.096,-9.565 2.158,-6.551 3.542,-11.744 3.77,-14.148 l 0.301,-2.835 0.165,-1.407 h 0.38 c 0.463,0 0.45,-0.297 0.137,3.117 -0.211,2.302 -0.335,3.107 -0.935,6.103 -1.012,5.05 -1.768,7.691 -3.522,12.317 l -2.051,5.482 c -1.365,3.759 -1.972,5.163 -3.037,7.023 a 93.86,93.86 0 0 0 -2.04,3.817 c -1.158,2.314 -1.655,3.086 -3.653,5.676 l -3.204,4.24 c -3.794,5.105 -4.102,5.467 -7.258,8.532 -3.12,3.029 -5.219,4.957 -6.94,6.373 -1.49,1.226 -5.057,3.789 -7.218,5.187 -2.242,1.45 -7.441,4.252 -10.876,5.861 -2.223,1.042 -3.15,1.408 -6.212,2.458 -5.529,1.896 -7.922,2.562 -12.868,3.582 -4.035,0.832 -4.549,0.913 -8.431,1.326 -0.19,0.02 -1.299,-0.024 -2.465,-0.099 z"
               stroke-width="0.375"
               id="path26"
               style="stroke:#000000" />
            <path
               d="m 175.708,116.839 c 0.064,-0.556 0.146,-2.053 0.181,-3.328 l 0.207,-3.895 0.177,-2.021 c 0.019,-0.244 0.042,1.963 0.051,4.906 l 0.017,5.349 -1.74375,6.21091 z"
               stroke-width="0.275"
               id="path28"
               sodipodi:nodetypes="cccccccc"
               style="stroke:#000000" />
            <path
               d="m 38.532,187.874 c -0.55,-0.128 -0.807,-0.255 -1.212,-0.595 -0.282,-0.237 -0.495,-0.451 -0.471,-0.474 0.041,-0.041 1.93,0.784 2.493,1.089 0.375,0.203 0.123,0.197 -0.81,-0.021 z"
               stroke-width="0.54"
               id="path30" />
          </g>
          <g
             stroke="#ffdd55"
             stroke-width="0.117"
             id="g40">
            <path
               d="m 146.501,136.399 c -1.767,-0.406 -2.65,-0.844 -5.294,-2.63 -2.181,-1.472 -2.513,-1.875 -4.438,-5.382 l -0.824,-1.501 1.251,-2.576 2.014,-4.489 c 0.991,-2.482 0.974,-2.455 1.081,-1.789 0.047,0.296 0.359,1.496 0.692,2.668 0.484,1.703 0.736,2.361 1.258,3.286 0.564,0.998 0.769,1.242 1.499,1.786 0.465,0.347 1.237,0.796 1.714,0.999 0.774,0.329 1.009,0.371 2.174,0.383 1.456,0.016 1.847,-0.085 3.026,-0.778 0.98,-0.576 2.866,-2.264 4.005,-3.586 2.135,-2.476 5.781,-8.476 7.535,-12.399 0.353,-0.79 0.927,-2.004 1.276,-2.698 1,-1.991 2.677,-8.058 3.217,-11.64 0.296,-1.962 0.383,-5.436 0.16,-6.39 -0.102,-0.435 -0.302,-1.557 -0.444,-2.494 -0.142,-0.937 -0.372,-2.224 -0.51,-2.86 l -0.251,-1.157 0.276,-0.521 c 0.152,-0.287 0.309,-0.506 0.35,-0.487 0.041,0.019 0.977,0.478 2.08,1.02 1.103,0.542 2.54,1.199 3.193,1.46 l 1.186,0.475 0.309,1.034 c 0.17,0.569 0.554,1.664 0.854,2.434 0.3,0.77 0.544,1.591 0.543,1.826 -0.001,0.235 0.245,1.762 0.546,3.395 0.474,2.568 0.548,3.188 0.548,4.596 0,0.918 0.085,2.144 0.195,2.812 0.143,0.871 0.179,1.669 0.135,3.011 -0.054,1.653 -0.096,1.929 -0.445,2.921 -0.212,0.602 -0.498,1.643 -0.635,2.312 -0.246,1.2 -1.316,4.189 -2.264,6.329 -0.527,1.189 -2.693,4.418 -4.328,6.45 -2.353,2.926 -4.495,5.034 -8.238,8.107 -2.77,2.275 -7.807,5.34 -9.973,6.07 -0.911,0.307 -2.142,0.307 -3.474,0.001 z"
               fill="#ffdd55"
               id="path34" />
            <path
               d="m 146.805,126.667 c -0.955,-0.097 -1.706,-0.421 -2.758,-1.19 -0.649,-0.475 -0.906,-0.774 -1.437,-1.674 -0.537,-0.91 -0.751,-1.465 -1.267,-3.286 l -0.729,-2.982 c -0.121,-0.886 -0.252,-0.478 2.597,-8.093 l 1.339,-3.834 c 0.316,-1.244 1.842,-4.992 2.583,-6.344 0.842,-1.535 2.871,-4.498 3.908,-5.705 0.791,-0.921 2.812,-3.043 2.898,-3.043 0.026,0 0.378,0.452 0.782,1.004 l 0.735,1.004 1.18,-0.039 c 1.021,-0.033 1.205,-0.072 1.363,-0.287 0.237,-0.323 2.975,-5.235 3.299,-5.92 l 0.249,-0.525 0.703,1.301 a 6.68,6.68 0 0 1 0.359,0.791 c 0.069,0.197 0.179,0.358 0.246,0.358 0.283,0 0.976,-1.069 1.726,-2.662 l 0.804,-1.707 0.199,0.937 0.446,2.58 0.438,2.445 c 0.164,0.691 0.173,1.139 0.063,3.225 -0.186,3.514 -0.518,5.279 -1.923,10.212 -0.599,2.103 -0.956,3.117 -1.436,4.077 -0.351,0.703 -0.87,1.826 -1.154,2.495 -0.508,1.2 -1.286,2.732 -2.718,5.355 -0.99,1.812 -3.694,5.849 -4.771,7.12 -1.597,1.886 -3.215,3.296 -4.617,4.021 -1.001,0.518 -1.271,0.55 -3.109,0.363 z"
               class="I"
               id="path36" />
            <path
               d="m 137.129,202.125 c 0.134,-0.154 1.667,-1.638 3.408,-3.296 l 6.022,-5.916 6.099,-6.126 c 4.248,-4.227 6.504,-6.639 8.043,-8.598 l 2.961,-3.712 c 2.154,-2.67 4.719,-6.105 7.121,-9.536 l 2.747,-3.838 c 0.48,-0.638 1.011,-1.433 1.179,-1.765 0.368,-0.725 2.398,-3.816 2.4,-3.655 0.003,0.237 -3.197,8.061 -3.469,8.481 -0.157,0.242 -0.68,1.228 -1.162,2.191 -1.743,3.479 -3.455,6.518 -4.313,7.653 l -2.48,3.317 c -2.663,3.583 -4.407,5.69 -5.931,7.169 -7.018,6.808 -9.262,8.71 -15.748,13.35 -2.521,1.803 -6.328,4.274 -6.913,4.487 -0.174,0.063 -0.168,0.03 0.037,-0.205 z"
               class="H"
               id="path38" />
          </g>
          <g
             class="C"
             id="g52">
            <g
               stroke-width="0.517"
               id="g46">
              <path
                 d="m 145.559,66.959 c -0.719,-0.494 -1.458,-0.934 -1.643,-0.978 -0.185,-0.044 -0.512,-0.185 -0.728,-0.314 l -0.392,-0.235 0.528,-0.814 1.389,-2.275 c 0.947,-1.605 1.903,-2.835 2.718,-3.496 1.046,-0.849 3.229,-2.267 4.363,-2.835 1.63,-0.817 2.699,-1.162 3.834,-1.238 0.904,-0.061 1.035,-0.038 1.826,0.318 0.568,0.256 0.987,0.546 1.258,0.87 l 0.406,0.487 -1.007,1.365 -3.584,5.117 c -0.274,0.478 -2.018,2.062 -2.672,2.427 -0.2,0.112 -1.328,0.663 -2.507,1.224 l -2.228,1.16 c -0.047,0.077 -0.124,0.134 -0.17,0.128 -0.046,-0.006 -0.672,-0.416 -1.391,-0.91 z"
                 class="H"
                 id="path42"
                 style="fill:#c87137;stroke:#c87137;stroke-width:0.80244514;stroke-miterlimit:4;stroke-dasharray:none" />
              <path
                 d="m 155.829,86.166 -0.691,-5.02 c -0.605,-5.011 -0.719,-5.271 -3.894,-8.901 l -1.901,-2.251 c -0.004,-0.047 0.547,-0.431 1.225,-0.853 l 1.231,-0.767 0.696,0.94 c 0.383,0.517 0.864,1.252 1.068,1.634 0.204,0.382 0.717,1.176 1.138,1.765 l 3.788,5.733 c 0,0.049 0.11,0.184 0.243,0.298 0.156,0.134 0.243,0.359 0.243,0.629 0,0.492 0.413,2.682 0.655,3.478 l 0.167,0.549 -1.746,2.645 -1.79,2.645 c -0.024,0 -0.219,-1.136 -0.434,-2.525 z"
                 fill="#d38d5f"
                 id="path44"
                 style="fill:#deaa87;stroke:#000000;stroke-width:0.94510205;stroke-miterlimit:4;stroke-dasharray:none" />
            </g>
            <path
               d="m 157.002,75.362 -2.022,-2.979 a 11.88,11.88 0 0 1 -0.922,-1.435 c -0.179,-0.354 -0.678,-1.121 -1.109,-1.704 -0.672,-0.91 -0.755,-1.077 -0.588,-1.182 l 1.106,-0.706 0.928,-0.548 0.647,1.315 c 0.346,0.703 0.963,2.197 1.37,3.32 l 1.212,3.103 c 0.617,1.39 0.89,2.253 0.842,2.666 -0.033,0.287 -0.245,0.02 -1.465,-1.852 z"
               fill="#d38d5f"
               stroke-width="0.417"
               id="path48"
               style="fill:#d38d5f;stroke:#000000;stroke-width:0.77391376;stroke-miterlimit:4;stroke-dasharray:none" />
            <path
               d="m 162.383,82.182 c -0.301,-0.16 -0.781,-0.329 -1.066,-0.374 -0.43,-0.068 -0.531,-0.136 -0.591,-0.403 l -0.293,-1.233 c -0.121,-0.502 -0.283,-1.402 -0.36,-2 -0.077,-0.598 -0.191,-1.183 -0.254,-1.3 -0.109,-0.203 -0.645,-1.578 -2.366,-6.072 l -1.881,-4.906 0.447,-0.742 2.942,-4.488 0.489,-0.703 0.068,0.46 c 0.037,0.253 0.368,1.692 0.735,3.198 l 1.649,7.667 0.981,4.929 0.073,3.134 0.024,3.128 c -0.027,-0.003 -0.296,-0.137 -0.597,-0.297 z"
               stroke-width="0.317"
               class="H"
               id="path50"
               style="fill:#c87137;stroke:#000000;stroke-width:0.81599755;stroke-miterlimit:4;stroke-dasharray:none" />
          </g>
          <path
             d="m 145.937,136.063 c -3.616,-1.173 -6.72,-3.701 -8.54,-6.956 l -1.242,-2.22 1.694,-3.691 1.944,-4.379 c 0.191,-0.527 0.454,-0.042 1.117,2.065 0.477,1.515 1.248,3.259 1.713,3.876 1.95,2.586 5.663,3.258 8.398,1.52 3.247,-2.064 6.899,-7.038 10.638,-14.489 2.355,-4.694 2.946,-6.26 4.152,-11.017 1.418,-5.592 1.604,-9.197 0.719,-13.963 -0.386,-2.08 -0.58,-3.904 -0.43,-4.054 0.15,-0.15 1.65,0.341 3.334,1.09 l 3.061,1.363 0.775,2.071 c 0.976,2.611 2.052,9.054 2.333,13.981 0.202,3.535 0.146,4.034 -0.835,7.501 -1.308,4.623 -2.51,7.297 -4.844,10.779 -2.601,3.882 -8.676,9.798 -13.069,12.729 -6.028,4.021 -8.048,4.723 -10.917,3.793 z"
             fill="#ffdd55"
             stroke="#ffdd55"
             stroke-width="1.052"
             id="path54"
             style="fill:#ffdd55;stroke:#ffdd55" />
          <path
             d="m 146.338,126.464 c -1.567,-0.342 -3.133,-1.639 -3.913,-3.241 -0.661,-1.358 -1.697,-5.052 -1.704,-6.073 -0.004,-0.622 0.253,-1.405 2.012,-6.132 l 1.894,-5.303 c 0.716,-2.136 1.777,-4.789 2.441,-6.104 0.42,-0.832 2.344,-3.75 3.303,-5.012 0.392,-0.515 1.348,-1.625 2.125,-2.468 l 1.413,-1.532 1.503,2.015 1.091,-0.039 1.302,-0.099 c 0.203,-0.057 1.67,-2.539 3.03,-5.123 l 0.733,-1.247 c 0.043,-10e-4 0.309,0.464 0.591,1.033 0.282,0.569 0.566,1.068 0.631,1.109 0.25,0.155 0.849,-0.66 1.699,-2.312 l 0.884,-1.718 0.206,1.156 0.553,3.043 c 0.286,1.553 0.342,2.166 0.318,3.469 -0.061,3.403 -0.448,5.865 -1.552,9.887 -0.86,3.133 -1.231,4.205 -2.153,6.218 -4.579,10.008 -9.166,16.433 -13.061,18.293 -0.625,0.298 -0.871,0.347 -1.704,0.338 -0.536,-0.006 -1.275,-0.076 -1.643,-0.156 z"
             stroke="#ffe680"
             stroke-width="0.554"
             class="I"
             id="path56"
             style="fill:#ffe680;stroke:#ffe680" />
          <g
             class="C"
             id="g72">
            <path
               d="m 146.414,193.173 10.792,-10.862 c 2.112,-2.231 6.588,-7.68 9.595,-11.684 2.01,-2.675 7.392,-10.24 8.052,-11.318 1.031,-1.682 1.577,-2.505 1.628,-2.454 0.056,0.056 -0.51,1.499 -1.826,4.653 -0.915,2.193 -3.882,7.991 -5.385,10.524 -0.813,1.37 -4.888,6.901 -6.989,9.487 -1.748,2.151 -6.994,7.226 -10.813,10.461 -1.986,1.683 -5.969,4.687 -8.842,6.67 -1.971,1.361 -10.82391,5.55637 -10.95391,5.55637 -0.039,0 10.01091,-6.33137 14.74291,-11.03437 z"
               stroke-width="0.954"
               class="H"
               id="path58"
               style="fill:#ffd42a;stroke:#ffd42a"
               sodipodi:nodetypes="ccccssccccscc" />
            <path
               d="m 139.968,117.132 c -0.065,-0.56 -0.028,-1.203 0.083,-1.428 0.111,-0.225 0.202,0.233 0.202,1.018 0,1.675 -0.117,1.844 -0.284,0.41 z"
               stroke-width="0.801"
               id="path60" />
            <g
               class="B"
               id="g70">
              <path
                 transform="matrix(0.921928,0.387361,-0.80115,0.598464,0,0)"
                 d="m 284.04657,147.62752 2.82543,4.88948 v 3.312 l -5.44598,7.59991 z"
                 stroke-width="0.684"
                 id="path62"
                 sodipodi:nodetypes="ccccc" />
              <path
                 class="G"
                 id="ellipse64"
                 sodipodi:type="arc"
                 sodipodi:cx="177.26945"
                 sodipodi:cy="156.16919"
                 sodipodi:rx="1.6683626"
                 sodipodi:ry="4.1966453"
                 sodipodi:start="2.455138"
                 sodipodi:end="5.1977885"
                 sodipodi:arc-type="slice"
                 d="m 175.97898,158.82902 a 1.6683626,4.1966453 0 0 1 -0.002,-5.31451 1.6683626,4.1966453 0 0 1 2.07054,-1.05721 l -0.7784,3.71189 z"
                 style="fill:#ffd42a;stroke:#ffd42a;stroke-width:0.801755" />
              <ellipse
                 cx="154.505"
                 cy="66.329002"
                 rx="0.66900003"
                 ry="0.48699999"
                 class="G"
                 id="ellipse68" />
            </g>
          </g>
          <ellipse
             cx="180.336"
             cy="113.597"
             rx="2.826"
             ry="1.406"
             stroke-width="0.987"
             class="B D E"
             id="ellipse74"
             style="fill:#ffd42a" />
          <ellipse
             cx="43.351002"
             cy="185.826"
             rx="12.851913"
             ry="3.0043097"
             stroke-width="0.928"
             class="B D E"
             id="ellipse78"
             style="fill:#ffd42a" />
          <g
             class="G B"
             id="g86">
            <ellipse
               cx="176.332"
               cy="107.265"
               rx="0.061000001"
               ry="0.97399998"
               class="C"
               id="ellipse80" />
            <ellipse
               cx="140.022"
               cy="118.906"
               rx="0.426"
               ry="0.97399998"
               fill="#ffdd55"
               stroke="#ffdd55"
               id="ellipse82" />
            <ellipse
               cx="141.36099"
               cy="117.385"
               rx="0.54799998"
               ry="1.886"
               stroke="#ffe680"
               class="I"
               id="ellipse84"
               style="fill:#ffe680;stroke:#ffe680" />
          </g>
        </g>
        <ellipse
           style="fill:#000000;stroke:#000000;stroke-width:0.749628;stroke-linejoin:round;stroke-miterlimit:4;stroke-dasharray:none"
           id="path1235"
           cx="202.88434"
           cy="56.25034"
           rx="3.8448279"
           ry="2.4516304" />
        <ellipse
           style="fill:#000000;stroke:#000000;stroke-width:1.125;stroke-linejoin:round;stroke-miterlimit:4;stroke-dasharray:none"
           id="path1239"
           cx="206.01904"
           cy="43.363266"
           rx="4.5802182e-08"
           ry="0.17414962" />
      </g>
    </g>
  </g>
</svg>
