<?xml version="1.0" encoding="UTF-8" standalone="no"?>
<!-- Created with Inkscape (http://www.inkscape.org/) -->

<svg
   xmlns:dc="http://purl.org/dc/elements/1.1/"
   xmlns:cc="http://creativecommons.org/ns#"
   xmlns:rdf="http://www.w3.org/1999/02/22-rdf-syntax-ns#"
   xmlns:svg="http://www.w3.org/2000/svg"
   xmlns="http://www.w3.org/2000/svg"
   xmlns:sodipodi="http://sodipodi.sourceforge.net/DTD/sodipodi-0.dtd"
   xmlns:inkscape="http://www.inkscape.org/namespaces/inkscape"
   width="100%"
   height="100%"
   viewBox="0 0 64.000001 64.000001"
   id="svg4311"
   version="1.1"
   inkscape:version="0.91 r13725"
   sodipodi:docname="clothingExposed.svg">
  <defs
     id="defs4313">
    <inkscape:path-effect
       effect="powerstroke"
       id="path-effect4183"
       is_visible="true"
       offset_points="0.238227,0.51804536"
       sort_points="true"
       interpolator_type="Linear"
       interpolator_beta="0.2"
       start_linecap_type="zerowidth"
       linejoin_type="round"
       miter_limit="4"
       end_linecap_type="zerowidth"
       cusp_linecap_type="round" />
  </defs>
  <sodipodi:namedview
     id="base"
     pagecolor="#ffffff"
     bordercolor="#666666"
     borderopacity="1.0"
     inkscape:pageopacity="0.0"
     inkscape:pageshadow="2"
     inkscape:zoom="11.313709"
     inkscape:cx="43.27334"
     inkscape:cy="32.283761"
     inkscape:document-units="px"
     inkscape:current-layer="layer5"
     showgrid="false"
     units="px"
     inkscape:window-width="2560"
     inkscape:window-height="1388"
     inkscape:window-x="-8"
     inkscape:window-y="-8"
     inkscape:window-maximized="1" />
  <metadata
     id="metadata4316">
    <rdf:RDF>
      <cc:Work
         rdf:about="">
        <dc:format>image/svg+xml</dc:format>
        <dc:type
           rdf:resource="http://purl.org/dc/dcmitype/StillImage" />
        <dc:title />
      </cc:Work>
    </rdf:RDF>
  </metadata>
  <g
     inkscape:groupmode="layer"
     id="layer5"
     inkscape:label="Stage5"
     style="display:inline">
    <flowRoot
       xml:space="preserve"
       id="flowRoot4142"
       style="fill:black;stroke:none;stroke-opacity:1;stroke-width:1px;stroke-linejoin:miter;stroke-linecap:butt;fill-opacity:1;font-family:sans-serif;font-style:normal;font-weight:normal;font-size:40px;line-height:125%;letter-spacing:0px;word-spacing:0px"><flowRegion
         id="flowRegion4144"><rect
           id="rect4146"
           width="41.858196"
           height="40.848045"
           x="15.404826"
           y="13.1767" /></flowRegion><flowPara
         id="flowPara4148" /></flowRoot>    <path
       style="display:inline;fill:#cccccc;fill-rule:evenodd;stroke:#000000;stroke-width:0.5;stroke-linecap:butt;stroke-linejoin:miter;stroke-miterlimit:4;stroke-dasharray:none;stroke-opacity:1"
       d="m 26.418227,26.790558 c -3.05846,9.451702 -7.482918,16.474962 -11.539873,24.15156 1.740616,0.704379 3.404076,1.015921 5.026537,1.129528 1.496004,0.97767 2.746487,1.10697 3.89426,0.879437 1.237069,0.919647 3.064986,1.247662 5.840016,0.629349 0.381719,1.241218 1.712092,1.155188 3.267661,0.753018 3.17283,0.392512 3.286718,-0.180959 4.397189,-0.439719 1.172583,0.149278 2.345168,0.59452 3.517751,-0.376509 1.293088,0.233315 2.461546,0.02963 3.517751,-0.566139 2.390959,-0.385414 4.117274,-1.102557 5.086991,-2.198594 C 45.184243,42.827041 40.693226,34.920728 37.933365,26.88125 Z m 0.678816,2.195847 c 0.713191,3.412494 -2.493377,10.225912 -3.674401,10.426833 0.220597,-1.612547 1.9766,-5.798735 3.674401,-10.426833 z m 6.967287,1.021082 c 1.242181,2.870682 2.157513,9.339713 1.608227,10.66232 -1.530873,-1.468875 -2.144805,-7.932495 -1.608227,-10.66232 z m -3.822457,-0.44892 c 1.416443,3.115817 -0.19859,8.898179 -1.254043,11.322233 -1.728857,-2.480699 0.729902,-4.810094 1.254043,-11.322233 z m 6.345544,-0.350638 c 1.135828,1.888874 2.530511,7.192842 4.008995,11.277124 -2.819517,-2.158516 -4.092509,-9.578618 -4.008995,-11.277124 z"
       id="path4151"
       inkscape:connector-curvature="0"
       sodipodi:nodetypes="cccccccccccccccccccccccc" />
    <path
       style="display:inline;fill:#cccccc;fill-rule:evenodd;stroke:#000000;stroke-width:0.5;stroke-linecap:butt;stroke-linejoin:miter;stroke-miterlimit:4;stroke-dasharray:none;stroke-opacity:1"
       d="m 26.765975,23.83034 0,-1.376967 c -1.469535,-2.047604 -1.424011,-3.341498 -1.33255,-5.419034 1.609557,-0.574882 2.573217,-2.091846 2.842996,-4.173977 l 2.398364,-2.444352 c -0.02464,2.424904 0.05208,4.832914 1.998825,6.929256 2.048819,-1.335304 2.767568,-3.779003 3.331373,-6.351819 0.940776,2.340775 0.93621,5.390554 3.064865,6.840421 -0.301967,1.956597 -0.06114,3.709645 -1.59906,6.129727 z"
       id="path4153"
       inkscape:connector-curvature="0"
       sodipodi:nodetypes="cccccccccc" />
    <g
       id="g4175"
       transform="matrix(0.71790431,-0.6961418,0.6961418,0.71790431,-13.477878,31.580463)">
      <path
         style="display:inline;fill:#ff8080;fill-rule:evenodd;stroke:#000000;stroke-width:0.96610165;stroke-linecap:butt;stroke-linejoin:miter;stroke-miterlimit:4;stroke-dasharray:none;stroke-opacity:1"
         d="m 28.377983,5.61782 -0.098,51.852477 6.360285,-0.03134 -0.01264,-51.998518 z"
         id="path4157"
         inkscape:connector-curvature="0"
         sodipodi:nodetypes="ccccc" />
      <path
         id="path4172"
         d="M 30.570312,3.4101562 A 28.747814,28.690041 38.377888 0 0 8.9277344,14.261719 28.747814,28.690041 38.377888 0 0 13.650391,54.603516 28.747814,28.690041 38.377888 0 0 54.001953,49.958984 28.747814,28.690041 38.377888 0 0 49.277344,9.6191406 28.747814,28.690041 38.377888 0 0 30.570312,3.4101562 Z m 0.84961,5.4296876 A 23.298342,23.251522 38.377888 0 1 45.900391,13.882812 23.298342,23.251522 38.377888 0 1 49.726562,46.572266 23.298342,23.251522 38.377888 0 1 17.027344,50.339844 23.298342,23.251522 38.377888 0 1 13.199219,17.644531 23.298342,23.251522 38.377888 0 1 31.419922,8.8398438 Z"
         style="display:inline;fill:#ff8080;fill-opacity:1;stroke:#000000;stroke-width:1;stroke-linecap:butt;stroke-linejoin:round;stroke-miterlimit:4;stroke-dasharray:none;stroke-dashoffset:0;stroke-opacity:1"
         inkscape:connector-curvature="0" />
      <path
         sodipodi:nodetypes="ccccc"
         inkscape:connector-curvature="0"
         id="path4207"
         d="m 28.691062,5.583334 -0.0785,51.918465 5.703101,-0.02811 -0.02072,-52.064742 z"
         style="display:inline;fill:#ff8080;fill-rule:evenodd;stroke:none;stroke-width:0.5;stroke-linecap:butt;stroke-linejoin:miter;stroke-miterlimit:4;stroke-dasharray:none;stroke-opacity:1" />
    </g>
  </g>
</svg>
