<svg xmlns="http://www.w3.org/2000/svg" cursor="default" viewBox="0 0 256 256">
    <g transform="translate(0 -796.362)">
        <path fill="#ff8080" fill-rule="evenodd" stroke="#000" stroke-linecap="round" stroke-linejoin="round" stroke-width=".882" d="M78.746 928.44c-3.859-2.548-7.192-4.15.069-21.684-6.044-.475-6.726-1.128-12.397-1.273-3.552 7.334-6.172 15.336-4.126 22.556-4.087-11.157-10.515-11.948-11.382-18.449-9.311 7.658.67 14.044 3.65 20.892-10.88.465-14.522-19.095-28.747-15.939 8.061 7.406.65 16.002 19.056 24.523-7.126-1.702-14.336-6.685-21.27-1.03 10.34 5.271 16.272 7.572 16.537 12.469 0 0-4.822 2.468-14.237-2.54-5.915-3.147-17.153-.75-19.764 4.192 4.956-1.076 15.236 1.647 19.277 7.376 2.922 4.142 15.395 1.319 15.395 1.319-6.607 3.034-15.155 2.826-17.48 13.013 11.634-6.473 16.171-3.755 21.41-1.946 0 0-2.623 4.604-13.839 7.87-10.506 3.061-8.681 13.68-8.681 13.68s6.13-5.222 15.685-6.577c10.67-1.515 12.284-8.757 12.284-8.757-1.266 6.914-5.24 12.701.095 22.361 2.222-7.616 5.557-14.035 10.75-18.453 0 0 2.366 6.412-1.564 15.038-5.175 11.359 3.684 18.671 3.684 18.671s.32-9.47 5.765-15.987c5.645-6.754 2.744-16.488 2.744-16.488 5.533 5.624 10.604 11.321 11.896 17.607 5.015-2.847 4.73-9.863-.766-20.979.066-.14 4.537.148 7.574 10.634 3.136 10.83 17.97 12.648 17.264 10.949-1.22-5.907-6.853-5.985-8.287-17.464-.733-5.867-8.033-11.917-8.033-11.917 7.61-.814 13.514.91 19.482 2.538-.782-3.77.117-7.557-15.76-11.185-.152-4.316 9.524-2.068 15.009 1.482 5.017 3.247 12.829 1.954 18.463-4.73 0 0-8.682 1.308-11.477-1.878-6.318-7.2-13.418-9.89-21.043-7.409 4.275-10.438 14.886-5.238 16.383-13.106-5.314-4.674-17.744 6.21-21.311 2.065 1.218-2.211 3.838-6.814 11.292-7.145 6.801-.303 10.898-9.823 11.149-16.07-6.164 3.808-6.658 6.706-15.52 7.64-6.253.659-8.896 4.452-12.851 7.216-3.245-6.867.333-12.259 2.97-20.663-5.384.973-8.946 5.87-9.348 17.577z"/>
        <ellipse cx="-148.446" cy="946.437" fill="#faa" stroke="#000" stroke-linecap="round" stroke-linejoin="round" stroke-width=".882" rx="30.563" ry="30.095" transform="scale(-1 1) rotate(-4.848)"/>
        <ellipse cx="-148.887" cy="946.574" fill="#f95" stroke="#000" stroke-linecap="round" stroke-width=".763" rx="24.784" ry="25.02" transform="scale(-1 1) rotate(-4.848)"/>
        <ellipse cx="-148.336" cy="946.904" fill="#ffe6d5" stroke="#000" stroke-linecap="round" stroke-width=".689" rx="22.367" ry="22.58" transform="scale(-1 1) rotate(-4.848)"/>
        <path fill="#ffb380" fill-rule="evenodd" stroke="#000" stroke-width=".441" d="M72.126 966.446c-.189.375-.572 11.687-.572 11.687-3.512.78-6.922.344-10.28-.701l2.533-11.709z"/>
        <path fill="#ffe6d5" fill-rule="evenodd" stroke="#000" stroke-width=".441" d="M59.06 959.982l-13.23-.979c-.147-3.238-.553-6.464.862-9.782l13.313 2.39z"/>
        <path fill="#ffb380" fill-rule="evenodd" stroke="#000" stroke-width=".441" d="M64.668 945.27l.719-11.462c3.327-.28 6.173.047 8.677.805l-.486 11.17z"/>
        <path fill="#fca" fill-rule="evenodd" stroke="#000" stroke-width=".441" d="M78.266 961.4l10.768 1.281c.891-3.159 1.255-6.453.848-9.943l-10.396-.994z"/>
        <path fill="#ffe6d5" fill-rule="evenodd" stroke="#000" stroke-width=".441" d="M73.663 945.626l5.94 5.954-1.278 9.85-5.74 5.046-9.411-.863-4.206-5.222 1.003-9.884 4.237-5.678z"/>
        <path fill="#ffb380" fill-rule="evenodd" stroke="#000" stroke-width=".441" d="M72.498 966.678c-.362-.344-3.481-9.47-3.481-9.47l9.173 4.16 6.853 8.649c-1.66 1.971-3.23 3.976-6.489 5.382z"/>
        <path fill="#fca" fill-rule="evenodd" stroke="#000" stroke-width=".441" d="M68.68 956.903c.013-.158-4.047-11.927-4.047-11.927l-5.04-9.733c-4.237 1.896-7.731 4.413-10.023 7.933l10.655 7.47z"/>
        <path fill="#ffb380" fill-rule="evenodd" stroke="#000" stroke-width=".441" d="M68.877 956.888c.198-.022 10.86-5.383 10.86-5.383l6.826-7.656c-1.904-2.382-3.53-4.89-6.831-6.643l-6.177 8.445z"/>
        <path fill="#fca" fill-rule="evenodd" stroke="#000" stroke-width=".441" d="M68.434 957.289l-4.688 8.01-8.808 9.091c-3.13-2.262-5.357-4.9-6.728-7.899l11.223-6.573z"/>
        <path fill="#fff" fill-rule="evenodd" d="M84.666 942.92a73.04 73.04 0 0 1-4.052 3.417c-1.047.824-1.953 1.511-3.083 2.484l.836.934 1.031.712c.803-1.22 1.4-2.173 2.142-3.268.766-1.131 1.685-2.414 3.126-4.28zM72.303 934.915c-.31 1.079-.634 2.494-.969 3.966l.055.65c.144 1.734.243 3.122.387 4.856.346-1.338.683-3.077 1.004-4.783l.12-.645c-.186-1.504-.385-2.942-.597-4.044zM89.03 954.21c-1.185.383-2.732.486-4.271.537l-.329.01c-1.342-.498-2.62-1.02-3.71-1.406 1.137-.196 2.575-.243 3.971-.327l.304.104c1.397.475 2.846.922 4.034 1.081zM69.537 967.73c-.263.49-.529 1.19-.79 1.979a60.451 60.451 0 0 0-.592 1.91l.072.673c.098.91.198 1.818.302 2.632a28.3 28.3 0 0 0 .323 2.067c.2-.508.407-1.212.615-2.006.21-.796.422-1.684.637-2.57.053-.22.106-.439.16-.656-.107-.68-.212-1.344-.316-1.957-.14-.82-.274-1.525-.411-2.073zM54.686 972.566c.527-.327 1.204-.86 1.945-1.484a112.27 112.27 0 0 0 2.341-2.059c.794-.71 1.578-1.414 2.268-2 .346-.292.668-.556.954-.775.092-.07.18-.136.265-.196-.101-.425-.2-.782-.316-1.181a6.729 6.729 0 0 0-1.19-.355l-.218.282-.774 1.013c-.573.749-1.187 1.552-1.85 2.413-.65.843-1.309 1.693-1.903 2.45a84.452 84.452 0 0 1-1.522 1.892zM82.026 969.988a126.405 126.405 0 0 0-3.882-4.558 71.041 71.041 0 0 0-.823-.902 21.869 21.869 0 0 1-.425-.913 7.671 7.671 0 0 1-.28-.728 1.656 1.656 0 0 1-.095-.494c.112.046.252.13.427.254a9.3 9.3 0 0 1 .607.481c.226.193.477.418.748.67.19.324.4.677.626 1.051.895 1.484 2.033 3.313 3.097 5.14zM63.884 945.793l-.417.144c.49 1.421 1.36 3.418 2.4 5.593 1.05 2.19 1.67 3.362 1.978 4.151.008.02-1.041-2.856-1.57-4.322-1.29-3.57-1.038-2.995-1.974-5.71l-.417.144zM47.098 951.037c.736-.045 1.66-.01 2.681.065 1.02.076 2.138.193 3.266.31 1.128.119 2.265.238 3.327.32l.13.01c.893.441 1.878.924 2.608 1.269-.833.231-1.842.391-2.912.515l-.129-.035c-1.048-.28-2.166-.598-3.251-.91-1.09-.313-2.163-.623-3.14-.892-.973-.268-1.866-.5-2.58-.652zM77.34 894.899a4.826 4.826 0 0 1 1.642 2.181l.11.14a5.72 5.72 0 0 1 1.068 2.537c.152.94.088 1.935-.229 2.874a5.523 5.523 0 0 1-1.758 2.534 5.838 5.838 0 0 0 2.138-2.375 6.637 6.637 0 0 0 .667-3.106 6.773 6.773 0 0 0-.962-3.324 5.679 5.679 0 0 0-2.677-1.461z"/>
        <path fill="#ff8080" fill-rule="evenodd" stroke="#000" stroke-linecap="round" stroke-linejoin="round" stroke-width=".9" d="M180.296 958.538c4.142-2.257 7.669-3.598 1.8-22.05 6.185.037 6.934-.568 12.712-.225 2.98 7.762 4.953 16.123 2.25 23.287 5.117-10.99 11.72-11.241 13.163-17.775 8.805 8.588-1.892 14.22-5.513 20.925 11.021 1.411 16.41-18.16 30.6-13.725-8.834 6.834-2.04 16.212-21.487 23.288 7.39-1.116 15.15-5.56 21.712.787-10.966 4.467-17.196 6.295-17.887 11.25 0 0 4.689 2.925 14.692-1.354 6.286-2.689 17.504.717 19.733 5.967-4.946-1.522-15.632.36-20.234 5.836-3.328 3.96-15.766.013-15.766.013 6.456 3.654 15.164 4.18 16.65 14.738-11.27-7.584-16.118-5.212-21.6-3.825 0 0 2.27 4.907 13.39 9.195 10.418 4.017 7.647 14.655 7.647 14.655s-5.781-5.837-15.38-8.04c-10.717-2.459-11.732-9.96-11.732-9.96.69 7.138 4.23 13.364-2.025 22.725-1.603-7.935-4.44-14.749-9.338-19.688 0 0-2.959 6.314.293 15.423 4.281 11.995-5.355 18.665-5.355 18.665s.491-9.656-4.483-16.75c-5.157-7.354-1.367-17-1.367-17-6.111 5.24-11.757 10.595-13.613 16.875-4.853-3.327-3.959-10.436 2.588-21.263-.055-.148-4.625-.241-8.618 10.158-4.122 10.74-19.359 11.309-18.495 9.642 1.749-5.9 7.483-5.494 9.931-17.04 1.251-5.902 9.194-11.422 9.194-11.422-7.666-1.484-13.817-.242-20.025.9 1.12-3.766.533-7.693 16.988-10.013.526-4.375-9.505-2.923-15.387.213-5.382 2.868-13.212.88-18.363-6.4 0 0 8.714 2.077 11.83-.92 7.044-6.776 14.495-8.898 22.032-5.718-3.446-10.98-14.682-6.61-15.525-14.737 5.805-4.294 17.503 7.844 21.488 3.937-1.048-2.353-3.315-7.259-10.864-8.238-6.889-.894-10.232-10.926-9.949-17.3 5.938 4.404 6.19 7.393 15.12 9.107 6.3 1.208 8.66 5.293 12.443 8.444 3.89-6.702.718-12.491-1.238-21.263 5.39 1.454 8.588 6.74 7.988 18.675z"/>
        <ellipse cx="188.959" cy="987.081" fill="#faa" stroke="#000" stroke-linecap="round" stroke-linejoin="round" stroke-width=".9" rx="31.183" ry="30.706"/>
        <ellipse cx="188.509" cy="987.221" fill="#f95" stroke="#000" stroke-linecap="round" stroke-width=".779" rx="25.287" ry="25.528"/>
        <ellipse cx="189.071" cy="987.558" fill="#ffe6d5" stroke="#000" stroke-linecap="round" stroke-width=".703" rx="22.821" ry="23.039"/>
        <path fill="#ffb380" fill-rule="evenodd" stroke="#000" stroke-width=".45" d="M183.748 997.748c.16.398-.426 11.931-.426 11.931 3.503 1.097 7.007.947 10.51.174l-1.564-12.122z"/>
        <path fill="#fca" fill-rule="evenodd" stroke="#000" stroke-width=".45" d="M197.589 992.304l13.536.145c.428-3.28 1.118-6.524-.034-10.02l-13.74 1.283z"/>
        <path fill="#ffb380" fill-rule="evenodd" stroke="#000" stroke-width=".45" d="M193.156 976.863l.258-11.716c-3.359-.57-6.28-.483-8.891.07l-.47 11.399z"/>
        <path fill="#ffe6d5" fill-rule="evenodd" stroke="#000" stroke-width=".45" d="M177.941 992.088l-11.058.375c-.634-3.29-.72-6.669-.004-10.183l10.654-.113z"/>
        <path fill="#ffe6d5" fill-rule="evenodd" stroke="#000" stroke-width=".45" d="M183.98 976.449l-6.552 5.54.45 10.125 5.4 5.625 9.643-.066 4.726-4.946-.167-10.135-3.818-6.138z"/>
        <path fill="#fca" fill-rule="evenodd" stroke="#000" stroke-width=".45" d="M183.35 997.952c.397-.319 4.356-9.327 4.356-9.327l-9.685 3.437-7.713 8.202c1.518 2.148 2.94 4.321 6.133 6.032z"/>
        <path fill="#ffb380" fill-rule="evenodd" stroke="#000" stroke-width=".45" d="M188.075 988.344c0-.163 5.142-11.777 5.142-11.777l5.963-9.46c4.145 2.292 7.48 5.153 9.506 8.929l-11.477 6.675z"/>
        <path fill="#fca" fill-rule="evenodd" stroke="#000" stroke-width=".45" d="M187.875 988.312c-.199-.04-10.576-6.41-10.576-6.41l-6.28-8.372c2.141-2.258 4.011-4.666 7.518-6.165l5.552 9.118z"/>
        <path fill="#ffb380" fill-rule="evenodd" stroke="#000" stroke-width=".45" d="M188.291 988.757l4.075 8.548 8.171 10.002c3.377-2.03 5.87-4.52 7.521-7.45l-10.843-7.651z"/>
        <path fill="#fff" fill-rule="evenodd" d="M173.028 972.749c1.304 2.02 2.128 3.404 2.809 4.62.66 1.177 1.185 2.198 1.896 3.507l1.11-.635.93-.877c-1.065-1.087-1.927-1.864-2.92-2.792a74.528 74.528 0 0 1-3.825-3.823zM186.287 965.677c-.31 1.102-.637 2.547-.956 4.06l.067.666c.18 1.761.371 3.559.608 4.949.238-1.397.575-3.506.812-4.903l.112-.656c-.214-1.526-.42-2.993-.643-4.116zM167.619 983.85c1.221-.06 2.733-.389 4.194-.751l.318-.08c1.412.206 2.87.377 4.01.675-1.141.298-2.487.72-3.894 1.11l-.333-.04c-1.56-.184-3.125-.422-4.295-.914zM186.27 999.276c-.187.545-.385 1.25-.597 2.072-.16.614-.323 1.28-.49 1.963l.106.68c.142.919.282 1.84.426 2.668.143.825.292 1.559.452 2.092.16-.535.33-1.253.507-2.074.176-.818.356-1.733.534-2.65.013-.068.118-.61.13-.678a61.645 61.645 0 0 0-.435-1.992c-.199-.824-.409-1.559-.633-2.08zM200.95 1005.475a86.235 86.235 0 0 1-1.383-2.056c-.54-.82-1.136-1.742-1.724-2.655-.6-.932-1.155-1.802-1.673-2.613.722 1.131-1.421-2.227-.7-1.096a158.16 158.16 0 0 0-.196-.305 6.87 6.87 0 0 0-1.241.258c-.152.395-.284.75-.423 1.173.08.069.165.143.252.222.272.248.577.544.903.871.651.655 1.388 1.438 2.133 2.229.747.792 1.505 1.594 2.204 2.294.698.7 1.34 1.3 1.848 1.678zM173.378 1000.496c1.24-1.765 2.554-3.527 3.591-4.958.262-.361.507-.701.727-1.014.298-.233.572-.44.819-.617.25-.179.47-.326.658-.437.189-.112.339-.184.457-.221a1.7 1.7 0 0 1-.14.494 7.829 7.829 0 0 1-.347.716c-.145.268-.317.567-.511.891-.283.257-.59.541-.915.847a128.982 128.982 0 0 0-4.34 4.299zM193.908 977.462l-.411-.182c-1.186 2.68-.88 2.116-2.499 5.635-.665 1.445-1.98 4.278-1.97 4.258.382-.775 1.113-1.913 2.369-4.05 1.246-2.12 2.302-4.076 2.923-5.48l-.412-.181zM210.522 984.241c-.74.092-1.667.251-2.68.44-1.017.19-2.133.412-3.269.636-1.13.223-2.294.45-3.384.645l-.134.024c-1.076-.218-2.089-.467-2.916-.775.772-.287 1.815-.693 2.762-1.064h.132c1.087.009 2.253-.014 3.41-.037s2.303-.045 3.347-.034c1.044.011 1.988.055 2.732.165z"/>
        <path fill="#ff8080" stroke="#000" stroke-linecap="round" stroke-linejoin="round" stroke-width="1.089" d="M73.266 890.494a9.289 9.192 0 0 0-9.289 9.193 9.289 9.192 0 0 0 9.289 9.192 9.289 9.192 0 0 0 9.288-9.192 9.289 9.192 0 0 0-9.288-9.193zm-.145 4.866a4.567 4.279 0 0 1 4.569 4.278 4.567 4.279 0 0 1-4.57 4.28 4.567 4.279 0 0 1-4.566-4.28 4.567 4.279 0 0 1 4.567-4.278z"/>
        <path fill="#ff8080" fill-rule="evenodd" stroke="#000" stroke-width="1.089" d="M73.603 879.521l-1.829 16.748c-.788 7.217 3.963 2.79 4.332.29l2.502-16.46z"/>
        <ellipse cx="77.213" cy="871.532" fill="#faa" stroke="#000" stroke-linecap="round" stroke-linejoin="round" stroke-width="1.038" rx="9.507" ry="9.94"/>
        <path fill="#ff8080" fill-rule="evenodd" stroke="#000" stroke-width="1.089" d="M57.437 884.526c5.445-28.768 5.764-87.94 18.785-84.534 10.565 2.764 9.407 38.815 3.811 63.298-1.995 1.992-2.873.633-3.811-.544 4.61-14.838 9.24-54.29-.68-57.99-6.99-2.606-8.511 53.85-14.294 81.13-1.368 6.457-5.355 6.796-3.811-1.36z"/>
        <path fill="#ff8080" stroke="#000" stroke-linecap="round" stroke-linejoin="round" stroke-width="1.089" d="M188.24 921.859a9.289 9.192 0 0 1 9.289 9.193 9.289 9.192 0 0 1-9.289 9.192 9.289 9.192 0 0 1-9.288-9.192 9.289 9.192 0 0 1 9.288-9.193zm.145 4.866a4.567 4.279 0 0 0-4.569 4.278 4.567 4.279 0 0 0 4.569 4.28 4.567 4.279 0 0 0 4.567-4.28 4.567 4.279 0 0 0-4.567-4.278z"/>
        <path fill="#ff8080" fill-rule="evenodd" stroke="#000" stroke-width="1.089" d="M187.903 910.886l1.829 16.748c.788 7.217-3.963 2.79-4.332.29l-2.502-16.46z"/>
        <ellipse cx="-184.293" cy="902.897" fill="#faa" stroke="#000" stroke-linecap="round" stroke-linejoin="round" stroke-width="1.038" rx="9.507" ry="9.94" transform="scale(-1 1)"/>
        <path fill="#ff8080" fill-rule="evenodd" stroke="#000" stroke-width="1.089" d="M204.07 915.89c-5.446-28.767-5.765-87.94-18.786-84.533-10.565 2.764-9.407 38.815-3.812 63.298 1.995 1.993 2.873.634 3.812-.544-4.61-14.838-9.24-54.29.68-57.99 6.99-2.606 8.511 53.85 14.294 81.131 1.368 6.456 5.355 6.796 3.811-1.361z"/>
        <path fill="#fff" fill-rule="evenodd" d="M80 864.737c.504.382.856.842 1.1 1.325.215.429.354.89.436 1.358.036.044.07.09.105.136.626.84 1.086 1.981 1.355 3.27a13.8 13.8 0 0 1 .228 3.93c-.109 1.27-.395 2.456-.849 3.356.666-.776 1.21-1.916 1.575-3.223.363-1.303.552-2.776.512-4.228-.039-1.44-.305-2.921-.902-4.206a7.775 7.775 0 0 0-.104-.217 6.045 6.045 0 0 0-1.561-1.066 4.557 4.557 0 0 0-1.895-.435zM186.604 895.668c.315.173.561.438.76.737.2.3.371.665.515 1.066.17.477.309 1.027.404 1.625.241.335.472.718.685 1.141 1.038 2.063 1.627 5.036.974 8.057 1.364-2.801 1.62-6.01 1.155-8.726a13.246 13.246 0 0 0-.377-1.61c-.475-.623-.99-1.148-1.523-1.546-.452-.337-.914-.58-1.364-.71-.454-.132-.874-.14-1.23-.034zM184.75 833.737c.506-.055.934.01 1.28.153.04.017.08.034.117.053.284-.011.564.031.841.126.635.217 1.269.716 1.891 1.502.619.78 1.199 1.81 1.739 3.033.538 1.22 1.031 2.616 1.483 4.125.904 3.019 1.636 6.462 2.238 9.789.603 3.326 1.076 6.527 1.463 9.06-.292-2.544-.67-5.761-1.18-9.107-.508-3.345-1.149-6.827-1.968-9.898-.41-1.536-.865-2.976-1.374-4.248-.508-1.27-1.075-2.388-1.713-3.273-.634-.882-1.366-1.57-2.219-1.922a3.342 3.342 0 0 0-1.202-.256 3.914 3.914 0 0 0-1.396.864zM74.75 802.612c.611.15 1.085.417 1.443.746.286.058.563.155.832.29.665.333 1.288.902 1.862 1.699 1.155 1.6 2.02 3.984 2.651 6.716.629 2.718 1.015 5.726 1.249 8.545.234 2.817.315 5.437.338 7.38.102-1.94.145-4.567.034-7.403-.11-2.833-.374-5.886-.89-8.674-.513-2.773-1.287-5.349-2.454-7.19-.587-.926-1.294-1.701-2.156-2.215a4.692 4.692 0 0 0-1.13-.49 4.696 4.696 0 0 0-1.779.596zM191.218 924.273c1.234.448 2.016 1.22 2.502 2.09.102.183.193.372.272.565.444.651.76 1.425.973 2.257.269 1.052.364 2.168.354 3.197a14.056 14.056 0 0 1-.26 2.63c.26-.64.501-1.56.638-2.604.137-1.04.172-2.216.012-3.367-.125-.91-.375-1.824-.807-2.652a6.091 6.091 0 0 0-.488-.56c-.838-.848-1.893-1.392-3.196-1.556z"/>
    </g>
</svg>
