<svg xmlns="http://www.w3.org/2000/svg" xmlns:xlink="http://www.w3.org/1999/xlink" viewBox="0 0 256 256">
    <defs>
        <linearGradient id="innoGrad2">
            <stop offset="0" stop-color="#ff7f2a" stop-opacity=".502"/>
            <stop offset="1" stop-color="#ff7f2a" stop-opacity="0"/>
        </linearGradient>
        <linearGradient id="innoGrad1">
            <stop offset="0" stop-color="#ff2a2a" stop-opacity=".502"/>
            <stop offset="1" stop-color="#ff2a2a" stop-opacity="0"/>
        </linearGradient>
        <linearGradient id="linearGradient1074" x1="120.67" x2="211.636" y1="176.247" y2="176.247" gradientUnits="userSpaceOnUse" xlink:href="#innoGrad1"/>
        <linearGradient id="linearGradient1097" x1="147.276" x2="206.627" y1="188.153" y2="188.153" gradientUnits="userSpaceOnUse" xlink:href="#innoGrad1"/>
        <linearGradient id="linearGradient1165" x1="113.02" x2="130.638" y1="127.031" y2="116.998" gradientUnits="userSpaceOnUse" xlink:href="#innoGrad1"/>
        <linearGradient id="linearGradient1203" x1="157.863" x2="216.023" y1="185.271" y2="185.271" gradientUnits="userSpaceOnUse" xlink:href="#innoGrad1"/>
        <linearGradient id="linearGradient1226" x1="70.711" x2="103.553" y1="106.658" y2="106.658" gradientUnits="userSpaceOnUse" xlink:href="#innoGrad2"/>
        <linearGradient id="linearGradient1257" x1="37.68" x2="70.401" y1="97.344" y2="97.344" gradientUnits="userSpaceOnUse" xlink:href="#innoGrad2"/>
        <linearGradient id="linearGradient1303" x1="40.43" x2="81.861" y1="103.143" y2="103.143" gradientUnits="userSpaceOnUse" xlink:href="#innoGrad2"/>
        <linearGradient id="linearGradient1326" x1="48.387" x2="108.393" y1="168.766" y2="168.766" gradientUnits="userSpaceOnUse" xlink:href="#innoGrad1"/>
        <linearGradient id="linearGradient1395" x1="73.304" x2="143.68" y1="196.555" y2="188.962" gradientUnits="userSpaceOnUse" xlink:href="#innoGrad1"/>
        <linearGradient id="linearGradient1418" x1="66.204" x2="84.318" y1="114.597" y2="114.597" gradientUnits="userSpaceOnUse" xlink:href="#innoGrad1"/>
        <linearGradient id="linearGradient1441" x1="33.376" x2="155.659" y1="197.123" y2="197.123" gradientUnits="userSpaceOnUse" xlink:href="#innoGrad1"/>
        <linearGradient id="linearGradient1464" x1="32.3" x2="188.258" y1="194.966" y2="194.966" gradientUnits="userSpaceOnUse" xlink:href="#innoGrad1"/>
    </defs>
    <g>
        <g>
            <path fill="#ff2a2a" stroke="#000" stroke-miterlimit="10" d="M117.705 126.78l7.241-.306 23.61 27.198s4.61 1.405 8.175 1.979c1.575.248 3.364-.154 3.749-.074 1.259.268 15.923 4.068 15.923 4.068l-15.1 9.813z"/>
        </g>
        <g stroke="#000" stroke-miterlimit="10">
            <path fill="#ff2a2a" d="M105.313 42.678c-1.758-1.159-6.077-.204-9.98.85-1.181.318-2.954.625-4.084.988-4.915 1.578-8.404 3.4-8.404 3.4l27.203 2.713s-.137-4.925-4.735-7.951z"/>
            <path fill="#ffe6d5" d="M115.209 51.846s-2.22-5.748-7.498-7.204c-5.275-1.453-13.299 2.076-13.299 2.076z"/>
            <path fill="#f95" d="M118.458 129.669l15.509 16.511-34.789 15.563-3.473-61.345.025-35.141-2.722-18.047s2.085-.863 6.229-1.388c4.142-.524 6.362-.21 6.362-.21l4.03 4.292z"/>
            <path fill="none" d="M100.879 44.724s-2.364 48.448-1.91 54.85c.452 6.402 3.294 19.132 3.294 19.132l-4.421 1.716"/>
            <path fill="none" stroke-dasharray="1,.5" stroke-width=".25" d="M102.295 44.48s-1.124 45.548-.958 52.562c.16 7.02 2.178 23.22 2.178 23.22l-3.769 1.968"/>
        </g>
        <g>
            <path fill="#f55" stroke="#000" stroke-miterlimit="10" d="M114.913 130.481l-11.935 7.224 9.741 45.22 47.087-18.521z"/>
            <path fill="#ff8080" d="M159.575 160.206s-3.798-5.355-7.197-8.32c-2.412-2.106-19.331-13.035-23.596-21.131-.934-1.779-7.912-2.313-7.912-2.313l.071-9.886s-4.289-12.032-5.402-19.153c-.639-4.063-3.452-28.299.701-43.404.614-2.246-1.565-5.634-4.179-7.574-2.967-2.2-6.462-2.813-6.462-2.813s1.357 4.47 1.99 8.417c.347 2.165-2.292 30.273-1.215 43.912.628 8.013 1.687 23.474 9.585 34.034 13.037 17.418 33.875 29.406 33.875 29.406z"/>
            <path fill="url(#linearGradient1165)" stroke="#000" stroke-miterlimit="10" d="M159.575 160.206s-3.798-5.355-7.197-8.32c-2.412-2.106-19.331-13.035-23.596-21.131-.934-1.779-7.912-2.313-7.912-2.313l.071-9.886s-4.289-12.032-5.402-19.153c-.639-4.063-3.452-28.299.701-43.404.614-2.246-1.565-5.634-4.179-7.574-2.967-2.2-6.462-2.813-6.462-2.813s1.357 4.47 1.99 8.417c.347 2.165-2.292 30.273-1.215 43.912.628 8.013 1.687 23.474 9.585 34.034 13.037 17.418 33.875 29.406 33.875 29.406z"/>
            <g>
                <g fill="none" stroke="#000" stroke-miterlimit="10" stroke-width=".25">
                    <path d="M113.124 73.425s-.031.166-.08.489"/>
                    <path stroke-dasharray="1.011,.5055" d="M112.974 74.41c-.403 3.013-1.322 12.761 1.172 26.801 1.615 9.077 5.37 16.489 5.467 17.246.182 1.494-.22 8.486-.361 10.811"/>
                    <path d="M119.235 129.527l-.031.494s.184.004.497.016"/>
                    <path stroke-dasharray="1.0022,.5011" d="M120.201 130.057c1.879.081 5.853.328 6.895.982.314.201 4.267 5.823 9.936 10.814 4.863 4.274 11.275 7.654 14.506 11.688 4.995 6.231 2.368 6.21 2.368 6.21s-4.711-.185-8.503-3.186c-7.972-6.304-31.489-20.912-36.387-48.877-3.538-20.216-.15-44.822.113-48.903.446-6.93-.59-10.068-1.193-11.27"/>
                    <path d="M107.817 47.294c-.166-.292-.277-.411-.277-.411"/>
                </g>
            </g>
            <g>
                <g fill="none" stroke="#000" stroke-miterlimit="10" stroke-width=".25">
                    <path d="M115.959 131.976l-.435.246"/>
                    <path stroke-dasharray=".9506,.4753" d="M115.11 132.455l-10.969 6.191"/>
                    <path d="M103.934 138.762l-.435.246"/>
                </g>
            </g>
            <path fill="#ff8080" stroke="#000" stroke-miterlimit="10" d="M171.791 159.311s-5.501-7.927-9.654-3.922c-5.847 5.632 9.654 3.922 9.654 3.922z"/>
        </g>
        <g fill="#ffe680" stroke="#000" stroke-miterlimit="10">
            <path d="M114.399 61.388c-.149 1.963-1.183 3.478-2.306 3.392-1.125-.086-1.916-1.743-1.769-3.703.153-1.959 1.182-3.477 2.308-3.391 1.127.085 1.919 1.744 1.767 3.702zm-1.877-2.219c-.641-.052-1.224.837-1.312 1.975-.087 1.143.358 2.106.993 2.156.64.048 1.227-.837 1.314-1.979.088-1.14-.358-2.106-.995-2.152zM112.036 82.557c-.151 1.958-1.184 3.479-2.307 3.393-1.124-.086-1.915-1.744-1.769-3.707.153-1.959 1.184-3.477 2.309-3.391 1.127.087 1.919 1.747 1.767 3.705zm-1.877-2.224c-.639-.045-1.224.838-1.312 1.982-.087 1.138.359 2.105.993 2.151.639.052 1.228-.837 1.314-1.976.088-1.143-.359-2.109-.995-2.157zM113.993 102.893c.312 1.942-.342 3.657-1.456 3.834-1.112.178-2.267-1.248-2.579-3.19-.311-1.94.343-3.655 1.456-3.832 1.112-.178 2.267 1.246 2.579 3.188zm-2.347-1.725c-.627.104-.993 1.1-.812 2.229.181 1.131.841 1.967 1.469 1.867.632-.104.994-1.1.813-2.229-.179-1.131-.836-1.969-1.47-1.867zM118.975 121.833c.634 1.86.286 3.664-.783 4.029-1.071.363-2.448-.849-3.081-2.709-.634-1.86-.283-3.663.785-4.028 1.069-.364 2.448.848 3.079 2.708zm-2.6-1.304c-.606.209-.795 1.255-.426 2.339.369 1.081 1.16 1.795 1.765 1.587.604-.208.796-1.253.426-2.334-.37-1.083-1.161-1.796-1.765-1.592z"/>
        </g>
        <g>
            <path fill="#ff8080" d="M211.32 168.636s-.909-5.124-6.518-7.038c-7.441-2.526-12.872-.696-21.342-1.628-7.922-.877-14.047-3.036-14.047-3.036l.67 1.361 1.707 1.016s-6.179.282-12.678.934c-6.219.629-12.732 1.606-14.424 1.988-3.461.796-23.127 8.525-23.127 8.525l13.083 26.386 58.16-5.479 12.888-9.123z"/>
            <path fill="url(#linearGradient1074)" stroke="#000" stroke-miterlimit="10" d="M211.119 168.019s-.909-5.124-6.518-7.038c-7.441-2.526-12.872-.696-21.342-1.628-7.922-.877-14.047-3.036-14.047-3.036l.67 1.361 1.707 1.016s-6.179.282-12.678.934c-6.219.629-12.732 1.606-14.424 1.988-3.461.796-23.127 8.525-23.127 8.525l13.083 26.386 58.16-5.479 12.888-9.123z"/>
            <g>
                <g fill="none" stroke="#000" stroke-miterlimit="10" stroke-width=".25">
                    <path d="M123.529 170.845l.47-.161"/>
                    <path stroke-dasharray=".9883,.4942" d="M124.464 170.524c4.166-1.422 21.012-7.128 25.124-7.795 2.184-.351 10.183-2.882 15.959-2.645 5.168.211 8.904 1.392 10.377 1.937"/>
                    <path d="M176.157 162.109c.302.116.459.187.459.187l-.412-.283"/>
                    <path stroke-dasharray="1.1024,.5512" d="M175.749 161.701l-5.228-3.585"/>
                    <path d="M170.294 157.961l-.412-.283"/>
                </g>
            </g>
            <g>
                <g fill="none" stroke="#000" stroke-miterlimit="10" stroke-width=".25">
                    <path d="M176.616 162.296s-.159.079-.445.217"/>
                    <path stroke-dasharray="1.0156,.5078" d="M175.716 162.73c-2.368 1.116-8.823 3.995-12.276 3.914-3.479-.083-8.486-3.07-10.238-4.185"/>
                    <path d="M152.982 162.32c-.266-.173-.414-.273-.414-.273"/>
                </g>
            </g>
        </g>
        <g fill="#f55" stroke="#000" stroke-miterlimit="10">
            <path d="M150.693 150.589s1.692-.07 2.732.813c1.047.877 1.472 2.425 1.472 2.425l-1.591.209s-.376-1.046-.996-1.79c-.621-.735-1.617-1.657-1.617-1.657zM138.633 141.527s2.797.43 3.391 1.118c1.858 2.163-.655 1.547-.655 1.547zM127.957 130.249s1.803.063 2.697.916c.893.853 1.062 2.656 1.062 2.656l-1.568-.349s-.162-.772-.514-1.459c-.345-.681-1.677-1.764-1.677-1.764zM114.179 84.086s.955.673 1.275 1.896c.319 1.215-.359 2.813-.359 2.813s-.311-1.693-.489-2.177a59.053 59.053 0 0 0-.351-.949zM113.152 59.588s3.063 4.992 3.277 7.932c.215 2.943-2.39 6.745-2.39 6.745l.169-2.574s.422-1.186-.3-3.854c-.725-2.676-2.3-4.912-2.3-4.912s-.959-1.108-.283-2.443c.824-1.622 1.827-.894 1.827-.894z"/>
            <path d="M110.151 80.448s4.659 5.887 5.148 7.53c.345 1.154-.713 2.632-.713 2.632s-.12-1.684-.775-2.449c-1.591-1.855-4.104-3.717-4.104-3.717s-1.171-.403-.861-2.129c.396-2.202 1.305-1.867 1.305-1.867zM111.932 101.187s4.271 1.994 5.451 4.046c1.182 2.056 1.151 6.334 1.151 6.334s-1.829-3.743-3.098-5.025c-1.263-1.283-3.132-1.279-3.132-1.279s-1.366.126-1.502-2.137c-.135-2.24 1.13-1.939 1.13-1.939zM120.613 123.263c.689.869 3.646 5.629 3.646 5.629l-2.825-.393s-.848-1.851-1.915-2.989c-1.064-1.135-.947-.598-2.2-1.044-1.252-.454-2.593-2.367-1.181-3.786.869-.88 3.785 1.713 4.475 2.583zM125.739 134.003s-.903.618-.51 1.62c.392 1.01 1.455.8 1.455.8s1.605-.787 3.967-.564c2.359.231 3.236 1.258 3.236 1.258s-.195-2.544-2.307-3.357c-2.102-.808-5.841.243-5.841.243zM137.3 145.346s-1.293.74-.812 2.024c.485 1.28 1.774.55 1.774.55s2.811-1.439 4.021-1.647c1.205-.205 3.087.434 3.087.434s-.093-2.198-2.121-2.571c-2.031-.359-5.949 1.21-5.949 1.21zM150.321 154.695s-1.25.832-.985 1.626c.264.796 1.735.631 1.735.631s3.087-1.13 4.832-.996a3.062 3.062 0 0 1 2.437 1.554s2.306-1.75-1.336-3.491c-1.606-.758-6.683.676-6.683.676zM164.208 164.001c1.354.331 2.077-1.524 2.538-3.271.434-1.652.697-3.305-.266-3.491-.817-.151-1.603 1.026-2.298 2.441-.909 1.841-1.17 4.02.026 4.321z"/>
        </g>
        <g>
            <path stroke="#000" stroke-miterlimit="10" d="M190.943 196.667s-6.457 2.039-8.638 2.508c-2.184.467-5.469.496-5.469.496l2.959-7.068 11.308-1.678zM204.154 191.836s-3.721 1.79-6.998 2.881c-3.273 1.102-5.286 1.226-5.286 1.226l5.357-6.84 6.453-1.93zM204.905 191.43l1.792-6.402 2.766-.902.208 4.23z"/>
            <path fill="#f55" d="M205.611 179.741s-3.022 2.395-12.853 4.013c-9.833 1.606-43.993 5.313-43.993 5.313l13.447 8.408 40.479-9.102z"/>
            <path fill="url(#linearGradient1097)" stroke="#000" stroke-miterlimit="10" d="M205.611 179.741s-3.022 2.395-12.853 4.013c-9.833 1.606-43.993 5.313-43.993 5.313l13.447 8.408 40.479-9.102z"/>
            <path fill="#f55" d="M211.651 168.451c.558-.118.558-.118 1.261.647.709.754.783 1.574.783 1.574s-.19.311-.038.617c.15.314.518.368.518.368s.599 1.067.79 1.718c.189.648.217 1.71.217 1.71s-.284.184-.225.546c.045.365.408.438.408.438s.207.122.146.911c-.054.788-.091 1.278-.091 1.278s-.433.512-.455.819c-.025.323.37.203.37.203s-.029.383-.069 1.007c-.055.631-.094 1.147-.094 1.147s-.521.198-.677.657c-.155.47.103.626.103.626s-.557 1.824-1.479 2.842c-.92 1.012-3.976 3.176-3.976 3.176s.489-2.301.199-2.537c-.3-.245-2.188 1.223-2.348 1.559-.064.148-.146.945-.523 1.771-.479 1.043-.948 2.022-1.281 2.137-.156.056-.415.33-.939.507-.536.179-1.149.468-1.149.468l-.063-1.851-1.107 2.051s-.534.601-1.49.86l-1.866.515s-.126-2.053-.459-2.294c-.325-.247-1.876.414-2.031.634-.066.099-.382.849-.906 1.577-.671.931-1.119 1.498-1.571 1.882-.466.386-4.226 1.337-4.226 1.337l.121-1.649-.847 1.82s-.904.513-2.408.887c-1.504.373-2.771.395-2.771.395s.219-.632.272-1.42c.063-.789.035-1.056-.257-1.333-.283-.278-2.129.229-2.453.433-.327.188-.311 1.018-.681 1.713-.368.69-1.174 1.753-1.174 1.753s-1.669.575-2.625.725c-.955.16-1.869.001-1.869.001l-.249-1.8-.72 2.137s-4.462.957-5.95 1.1c-1.493.147-3.082-.233-3.082-.233l-5.873-7.107s34.307-4.878 40.896-10.16c2.935-2.35 3.337-7.131 6.07-10.992.467-.655 5.297-5.051 5.868-5.17z"/>
            <path fill="url(#linearGradient1203)" stroke="#000" stroke-miterlimit="10" d="M211.651 168.451c.558-.118.558-.118 1.261.647.709.754.783 1.574.783 1.574s-.19.311-.038.617c.15.314.518.368.518.368s.599 1.067.79 1.718c.189.648.217 1.71.217 1.71s-.284.184-.225.546c.045.365.408.438.408.438s.207.122.146.911c-.054.788-.091 1.278-.091 1.278s-.433.512-.455.819c-.025.323.37.203.37.203s-.029.383-.069 1.007c-.055.631-.094 1.147-.094 1.147s-.521.198-.677.657c-.155.47.103.626.103.626s-.557 1.824-1.479 2.842c-.92 1.012-3.976 3.176-3.976 3.176s.489-2.301.199-2.537c-.3-.245-2.188 1.223-2.348 1.559-.064.148-.146.945-.523 1.771-.479 1.043-.948 2.022-1.281 2.137-.156.056-.415.33-.939.507-.536.179-1.149.468-1.149.468l-.063-1.851-1.107 2.051s-.534.601-1.49.86l-1.866.515s-.126-2.053-.459-2.294c-.325-.247-1.876.414-2.031.634-.066.099-.382.849-.906 1.577-.671.931-1.119 1.498-1.571 1.882-.466.386-4.226 1.337-4.226 1.337l.121-1.649-.847 1.82s-.904.513-2.408.887c-1.504.373-2.771.395-2.771.395s.219-.632.272-1.42c.063-.789.035-1.056-.257-1.333-.283-.278-2.129.229-2.453.433-.327.188-.311 1.018-.681 1.713-.368.69-1.174 1.753-1.174 1.753s-1.669.575-2.625.725c-.955.16-1.869.001-1.869.001l-.249-1.8-.72 2.137s-4.462.957-5.95 1.1c-1.493.147-3.082-.233-3.082-.233l-5.873-7.107s34.307-4.878 40.896-10.16c2.935-2.35 3.337-7.131 6.07-10.992.467-.655 5.297-5.051 5.868-5.17z"/>
            <path stroke="#000" stroke-miterlimit="10" stroke-width=".25" d="M159.029 191.934l.932.782 31.621-4.595 3.659-1.232z"/>
            <path fill="none" stroke="#000" stroke-miterlimit="10" d="M213.657 171.29l-5.927 4.034"/>
            <path fill="none" stroke="#000" stroke-miterlimit="10" stroke-width=".75" d="M214.938 175.875l-6.61 4.076M214.965 179.078l-6.899 4.354M214.495 182.093l-4.097 3.48"/>
        </g>
    </g>
    <g>
        <path fill="#ff7f2a" stroke="#000" stroke-miterlimit="10" d="M102.906 61.438l3.097-11.25-4.253-7.125-16.83 1.851z"/>
    </g>
    <g>
        <path fill="#f95" d="M72.194 46.967S77.125 44 86.937 43.062c3.45-.33 8.015-1.402 10.688.563 4.93 3.625 6.75 11.625 6.75 11.625l-1.563 38.5 3.938 30.813 1.438 8.563 7.938 15.25 12.813 16.75 8.688 10.146-20.375 6.417-22.559-31-12.307-30.939-1.073-21.125L80.25 77.25l-2.375-19.938z"/>
        <path fill="url(#linearGradient1226)" stroke="#000" stroke-miterlimit="10" d="M72.194 46.967S77.125 44 86.937 43.062c3.45-.33 8.015-1.402 10.688.563 4.93 3.625 6.75 11.625 6.75 11.625l-1.563 38.5 3.938 30.813 1.438 8.563 7.938 15.25 12.813 16.75 8.688 10.146-20.375 6.417-22.559-31-12.307-30.939-1.073-21.125L80.25 77.25l-2.375-19.938z"/>
    </g>
    <g>
        <path fill="#ffe6d5" stroke="#000" stroke-miterlimit="10" d="M85.125 85.563l3.688-8.063s-1.313-17-4.25-20.688c-2.937-3.688-10.375-10.25-15.875-10.875-1.321-.15-3.578.553-6.063 1.188-1.779.455-3.67.676-5.438 1.438-1.184.511-2.067 1.064-3.156 1.625-4.463 2.296-8.121 4.705-8.121 4.705L52 77.75zM100.526 90.4s-.961-4.489-.839-11.15c.065-3.544.96-7.704 1.313-12.125.373-4.669 2.768-12.172 2.893-15.938.201-6.067-2.828-7.46-2.143-8.125 4.188-4.063 5.75 7.25 5.75 7.25z"/>
        <path fill="#ffb380" d="M58.803 49.359S40.375 54.563 38.5 63.063s5.313 28.25 5.313 28.25l-2.361 13.472s.521 9.468.552 10.466c.031.998-.155 5.569 0 6.625.417 2.846.775 4.515.622 6.125l-.5 5.25L44 145.313l25.875-7.563-3.964-58.375z"/>
        <path fill="url(#linearGradient1257)" stroke="#000" stroke-miterlimit="10" d="M58.803 49.359S40.375 54.563 38.5 63.063s5.313 28.25 5.313 28.25l-2.361 13.472s.521 9.468.552 10.466c.031.998-.155 5.569 0 6.625.417 2.846.775 4.515.622 6.125l-.5 5.25L44 145.313l25.875-7.563-3.964-58.375z"/>
        <path fill="#f55" stroke="#000" stroke-miterlimit="10" d="M59.036 73.438s-19.374 4.457-19.786 6.313c-.099.444.071 1.177.188 2.688.177 2.312.291 5.915.563 9.75.163 2.296.521 4.592.563 6.75.06 3.035-.209 5.614.063 5.938.371.44 2.358-1.103 6.063-2.063 6.283-1.628 15.49-3.304 15.49-3.304V84.75z"/>
        <path fill="#ffb380" d="M66.75 47.5s-5.646.639-8.146 1.955c-4.463 2.35 8.333 75.295 5.771 77.545-2.562 2.25-15 13.688-17.25 13.688s-4.578-10.672-5-7.438c-.188 1.438-.617 3.803-.875 4.875-1.025 4.253.708 6.129.875 7.188.375 2.375 7.875 13.5 9.125 13.5 1.134 0 5.575-4.055 12.188-8.188 7.813-4.883 17.875-9.968 17.875-9.968l-13.75-92.22z"/>
        <path fill="url(#linearGradient1303)" stroke="#000" stroke-miterlimit="10" d="M66.75 47.5s-5.646.639-8.146 1.955c-4.463 2.35 8.333 75.295 5.771 77.545-2.562 2.25-15 13.688-17.25 13.688s-4.578-10.672-5-7.438c-.188 1.438-.617 3.803-.875 4.875-1.025 4.253.708 6.129.875 7.188.375 2.375 7.875 13.5 9.125 13.5 1.134 0 5.575-4.055 12.188-8.188 7.813-4.883 17.875-9.968 17.875-9.968l-13.75-92.22z"/>
        <g>
            <g fill="none" stroke="#000" stroke-miterlimit="10" stroke-width=".25">
                <path d="M58.688 50.188s-.009.172-.017.496"/>
                <path stroke-dasharray="1.0016,.5008" d="M58.663 51.181c-.016 1.459.025 4.428.462 8.257 2.277 19.946 7.982 65.971 6.563 68.125-1.813 2.75-16.863 15.124-18.313 15.125-2.326.002-4.543-4.773-5.306-6.598"/>
                <path d="M41.972 135.855c-.118-.291-.182-.463-.182-.463"/>
            </g>
        </g>
        <g>
            <g fill="none" stroke="#000" stroke-miterlimit="10" stroke-width=".25">
                <path d="M59.27 75.563l-.483.117"/>
                <path stroke-dasharray=".9904,.4952" d="M58.31 75.795c-2.704.658-10.327 2.525-12.56 3.205-2.007.611-4.523 1.646-5.716 2.151"/>
                <path d="M39.801 81.25c-.289.124-.455.197-.455.197"/>
            </g>
        </g>
        <g>
            <g fill="none" stroke="#000" stroke-miterlimit="10" stroke-width=".25">
                <path d="M62.178 97.5l-.49.098"/>
                <path stroke-dasharray=".8816,.4408" d="M61.255 97.685l-3.673.736"/>
                <path d="M57.365 98.464l-.49.099-.034-.5"/>
                <path stroke-dasharray=".7703,.3851" d="M56.815 97.679l-.143-2.113"/>
                <path d="M56.659 95.374l-.034-.499-.483.117"/>
                <path stroke-dasharray="1.0201,.5101" d="M55.649 95.112c-2.434.593-8.707 2.128-10.524 2.638-1.521.426-3.049 1.151-3.891 1.583"/>
                <path d="M41.006 99.452c-.276.145-.436.236-.436.236"/>
            </g>
        </g>
    </g>
    <g>
        <path fill="#ff8080" d="M81.313 140.657s-8.652 4.595-20.721 11.823c-4.921 2.947-11.654 8.27-11.654 8.27l4.438 21.938 19.313 13.865 29.874.447 14.375-15z"/>
        <path fill="url(#linearGradient1326)" stroke="#000" stroke-miterlimit="10" d="M81.313 140.657s-8.652 4.595-20.721 11.823c-4.921 2.947-11.654 8.27-11.654 8.27l4.438 21.938 19.313 13.865 29.874.447 14.375-15z"/>
        <path fill="#f55" stroke="#000" stroke-miterlimit="10" d="M56.538 176.815s10.159 10.058 13.65 13.31c3.491 3.252 5.39 4.125 5.39 4.125l4.047 11.875-24.75-12.063z"/>
        <path fill="#ff8080" d="M116.975 179.064s4.025-6.314 2.588-9.689c-.709-1.664-7.044-8.333-12.063-15.583-5.162-7.458-9-15.479-9-15.479l-8.75.438s3.125-7.25 3.25-10.25c.048-1.135-2.438-5.75-3.875-16.875-1.866-14.438-4.196-32.81-1.438-33.563.688-.188-2.487-11.875-3.938-19.125-.438-2.188-7.442-7.77-12.188-10.188-2.38-1.212-4.813-1.25-4.813-1.25s3.125 37.625 5.938 68.563c1.106 12.17 7.52 22.759 11.875 30.25 12.034 20.699 24.688 35.375 24.688 35.375l4.156-.25z"/>
        <path fill="url(#linearGradient1418)" stroke="#000" stroke-miterlimit="10" d="M116.975 179.064s4.025-6.314 2.588-9.689c-.709-1.664-7.044-8.333-12.063-15.583-5.162-7.458-9-15.479-9-15.479l-8.75.438s3.125-7.25 3.25-10.25c.048-1.135-2.438-5.75-3.875-16.875-1.866-14.438-4.196-32.81-1.438-33.563.688-.188-2.487-11.875-3.938-19.125-.438-2.188-7.442-7.77-12.188-10.188-2.38-1.212-4.813-1.25-4.813-1.25s3.125 37.625 5.938 68.563c1.106 12.17 7.52 22.759 11.875 30.25 12.034 20.699 24.688 35.375 24.688 35.375l4.156-.25z"/>
        <g>
            <g fill="none" stroke="#000" stroke-miterlimit="10" stroke-width=".25">
                <path d="M85 75s-.013.172-.034.496"/>
                <path stroke-dasharray="1.0049,.5025" d="M84.937 75.993c-.113 2.01-.317 6.857-.062 12.569.322 7.201 1.427 15.768 2.16 22.213 1.18 10.37 3.149 15.429 3.937 17.118"/>
                <path d="M91.082 128.124c.147.3.231.439.231.439l-.149.478"/>
                <path stroke-dasharray=".9927,.4964" d="M91.015 129.514l-3.041 9.71"/>
                <path d="M87.899 139.46l-.149.478.499.032"/>
                <path stroke-dasharray=".9297,.4649" d="M88.713 139.999l8.119.517"/>
                <path d="M97.063 140.53l.499.032.226.441"/>
                <path stroke-dasharray=".9825,.4912" d="M98.011 141.437c1.218 2.353 4.745 9.019 8.426 14.626 3.838 5.847 9.24 12.667 10.845 14.67"/>
                <path d="M117.438 170.927l.312.386-.193.461"/>
                <path stroke-dasharray=".9055,.4527" d="M117.383 172.191l-2.531 6.058"/>
                <path d="M114.764 178.458l-.193.461-.499-.018"/>
                <path stroke-dasharray=".9952,.4976" d="M113.574 178.885l-3.074-.106s-15.284-13.818-27.375-40.153c-1.77-3.855-6.911-9.152-7.813-17.938-2.656-25.865-6.058-65.223-6.562-71.075"/>
                <path d="M68.73 49.369l-.042-.494"/>
            </g>
        </g>
        <path fill="#f55" stroke="#000" stroke-miterlimit="10" d="M42.03 144.969s.116 2.117-.592 6.281c-.292 1.715-1.324 4.467-1.993 8.402-.956 5.618-1.566 14.767-1.566 14.767l23.242 21.269s-2.979-9.02-4.308-16.909c-.897-5.327-.49-11.125-1.75-13.216-1.585-2.631-5.666-7.018-8.563-11.563-2.814-4.417-4.47-9.031-4.47-9.031z"/>
        <g>
            <g fill="none" stroke="#000" stroke-miterlimit="10" stroke-width=".25">
                <path d="M42.003 146.472s.055.167.164.469"/>
                <path stroke-dasharray=".998,.499" d="M42.339 147.404c.759 2.012 2.799 6.898 6.036 10.908 4.188 5.188 6.25 8.688 6.25 8.688s-.063 3.748.813 10.155c.72 5.272 2.782 11.696 3.489 13.805"/>
                <path d="M59.007 191.2l.161.468"/>
            </g>
        </g>
        <g>
            <g fill="none" stroke="#000" stroke-miterlimit="10" stroke-width=".25">
                <path d="M82.386 141.902l-.444.22"/>
                <path stroke-dasharray="1.0068,.5034" d="M81.494 142.345c-2.644 1.32-10.562 5.329-15.583 8.468-5.116 3.198-11.504 8.408-13.43 10.005"/>
                <path d="M52.287 160.979c-.247.205-.38.318-.38.318"/>
            </g>
        </g>
        <g>
            <g fill="none" stroke="#000" stroke-miterlimit="10" stroke-width=".25">
                <path d="M58.375 180.125s.117.131.333.367"/>
                <path stroke-dasharray="1.0318,.5159" d="M59.056 180.869c1.195 1.289 3.822 4.051 6.757 6.666l7.748 6.905"/>
                <path d="M73.755 194.615l.37.329"/>
            </g>
        </g>
        <path fill="#ff8080" stroke="#000" stroke-miterlimit="10" d="M136.403 172.321l-4.903-2.759s-19.061-19.737-24.125-36.438c-1.092-3.6-.598-7.874-1.375-11.625-1.482-7.157-2.312-14.438-3.438-21.375-.675-4.162-2.297-8.143-2.125-12.063.688-15.688 4.883-33.563 7.063-37.75 0 0 .373 4.996-.25 11.25-.888 8.926-2.875 8.125-2.625 22.438.013.767.242 7.773.563 16.313.201 5.369.214 11.346.938 16.75.938 7.008 1.844 14.36 4.938 20.938 1.796 3.818 4.192 7.281 6.375 10.688 3.633 5.668 8.342 10.568 11.625 14.5 2.238 2.682 8.313 8.844 8.313 8.844z"/>
    </g>
    <g>
        <path fill="#ff8080" stroke="#000" stroke-miterlimit="10" d="M133.25 179.688s-9.204-1.38-5.938-4.438c2.938-2.75 5.938 4.438 5.938 4.438z"/>
        <path fill="#ff8080" d="M182.986 191.882s-2.049-8.382-8.799-10.132c-2.79-.724-5.748-.652-9.438-1.313-3.053-.546-5.366-1.615-8.25-2.313-5.065-1.226-9.174-3.123-10.625-3.625-1.625-.563-11.563 1.875-13 5.063 0 0-5.673-2.256-11.563-1.75-4.051.348-8.035 3.804-11.029 2.938-1.403-.406-.885-2.279-3.283-2.438-10.157-.67-29.567 2.46-32.438 7.313-2.625 4.438 2.559 15.461 3.542 16.906.983 1.445 10.833 13.844 10.833 13.844l62.75 2.313z"/>
        <path fill="url(#linearGradient1395)" stroke="#000" stroke-miterlimit="10" d="M182.986 191.882s-2.049-8.382-8.799-10.132c-2.79-.724-5.748-.652-9.438-1.313-3.053-.546-5.366-1.615-8.25-2.313-5.065-1.226-9.174-3.123-10.625-3.625-1.625-.563-11.563 1.875-13 5.063 0 0-5.673-2.256-11.563-1.75-4.051.348-8.035 3.804-11.029 2.938-1.403-.406-.885-2.279-3.283-2.438-10.157-.67-29.567 2.46-32.438 7.313-2.625 4.438 2.559 15.461 3.542 16.906.983 1.445 10.833 13.844 10.833 13.844l62.75 2.313z"/>
        <g>
            <g fill="none" stroke="#000" stroke-miterlimit="10" stroke-width=".25">
                <path d="M79.716 203.697s-.085-.155-.23-.439"/>
                <path stroke-dasharray=".9937,.4969" d="M79.265 202.816c-1.272-2.574-4.711-10.23-3.39-15.379 1.188-4.625 30.967-6.668 32.688-6.678 1.721-.01 5.25 5.928 8.125 6.115 2.875.187 13.095-.358 17.125-1.5 1.985-.563 1.278-5.68 1.813-6.5.636-.976 5.275-3.074 10-3.125.41-.005 1.794.626 3.313.938 1.44.296 2.992.476 3.883.564"/>
                <path d="M153.071 177.275c.311.029.494.043.494.043"/>
            </g>
        </g>
        <g>
            <g fill="none" stroke="#000" stroke-miterlimit="10" stroke-width=".25">
                <path d="M135.326 182s-.163-.068-.459-.186"/>
                <path stroke-dasharray=".9754,.4877" d="M134.414 181.64c-2.251-.859-8.205-2.938-12.539-2.702-4.3.233-7.806 3.134-9.091 4.346"/>
                <path d="M112.604 183.455c-.227.221-.348.354-.348.354"/>
            </g>
        </g>
        <path fill="#ff8080" stroke="#000" stroke-miterlimit="10" d="M141.25 170.875l-12.563 3.749s1.31.431 2.46 1.524 2.103 3.539 2.103 3.539l12.813-4.417s-.894-2.48-2.125-3.396c-1.688-1.253-2.688-.999-2.688-.999z"/>
    </g>
    <g>
        <path stroke="#000" stroke-miterlimit="10" d="M148.334 225.087l-1.66-1.76 2.292-.583zM168.75 218.75l-1.252-3.409-2.808 3.855s1.267.172 2.352.053 1.708-.499 1.708-.499zM47.094 203.125c-.844-.469-4.344-.796-4.344-.796l-.188-3.548c.001 0 5.376 4.813 4.532 4.344zM39.271 200.116l-1.54-.875.77-2.241z"/>
        <path fill="#ff2a2a" stroke="#000" stroke-miterlimit="10" d="M36 169.844l1.86-8.713 1.432-.381-1.414 11.41z"/>
        <path stroke="#000" stroke-miterlimit="10" d="M69.531 207.719c-2.198-.976-8.375.969-10.109.484s-1.578-5.672-1.578-5.672l11.687 5.188zM99.75 225.594s-1.565-1.415-2.625-.781c-.265.158.233-.101-.531.605s-1.094.77-1.094.77l.219-3.219 4.906 1.438zM87.897 220.877s-.432.009-.804.279c-.372.27-.423.897-1.196.89-1.037-.011 0-2.577 0-2.577z"/>
        <path fill="#f55" stroke="#000" stroke-miterlimit="10" d="M36.272 170.613s2.14 2.646 6.146 6.723c2.032 2.068 7.887 6.088 8.833 7 2.51 2.419 3.326 3.746 4.5 5.333 1.174 1.587 7.525 3.201 14.334 7.333 5.754 3.491 10.603 7.852 14 9.417 3.352 1.544 14.564 7.258 29.332 8.664 17.913 1.706 39.562-1.035 39.562-1.035l2.021 6.695-45.084 3.251-25.416-8-2.568-1.116-14.682-8.503-9.406-3.844-5.531-.531-15.909-7.75-2.528-4.526v-9.599l1.357-7.804z"/>
        <path fill="url(#linearGradient1441)" stroke="#000" stroke-miterlimit="10" d="M36.272 170.613s2.14 2.646 6.146 6.723c2.032 2.068 7.887 6.088 8.833 7 2.51 2.419 3.326 3.746 4.5 5.333 1.174 1.587 7.525 3.201 14.334 7.333 5.754 3.491 10.603 7.852 14 9.417 3.352 1.544 14.564 7.258 29.332 8.664 17.913 1.706 39.562-1.035 39.562-1.035l2.021 6.695-45.084 3.251-25.416-8-2.568-1.116-14.682-8.503-9.406-3.844-5.531-.531-15.909-7.75-2.528-4.526v-9.599l1.357-7.804z"/>
        <path fill="#f55" stroke="#000" stroke-miterlimit="10" d="M179.719 213.375s-10.28 5.688-10.969 5.375c-.344-.156-.313-2.439-.625-2.603-.312-.164-2.387 1.142-2.67 1.458-.283.316-1.367 3.121-1.583 3.375-.216.254-5.831 2.456-6.041 2.409-.21-.047-.097-1.296-.347-1.233-.25.063-.487 1.344-.487 1.344s-5.137 2.359-7.7 2.359c-1.188 0-.328-1.719-1.092-2.004-.221-.082-1.33-.059-1.814.254-.711.459-.43 2.261-1.156 2.891-.703.609-6.109 1.609-6.469 1.5-.36-.109-.699-1.13-.936-1.145-.189-.012-.349 1.028-1.033 1.379-1.119.573-4.766.781-5.25.781s-1.094-1.875-1.5-2.203c-.145-.117-1.469-.203-2.047.094-1.094.563-.703 2.297-1.688 2.891-.91.549-4.743.244-5.359.223-.563-.02-.83-1.039-.83-1.039s-.42.816-.686 1.02c-.266.204-4.828 0-5.313-.25-.485-.25-1.672-2.609-1.969-2.891-.297-.282-2.016-.313-2.234-.203-.218.11-.469 1.844-1.078 2.063-.082.029-1.587.73-4.094-.375-.273-.12-.391-1.328-.604-1.372-.191-.039-.374.879-.708.919-1.031.125-2.102-.085-3.188-.578-.703-.319-.998-2.646-1.766-3-.458-.212-1.453-.766-2.016-.531-.485.202-.406 1.797-.969 1.906-.608.118-1.612-.215-2.328-.734-.369-.267-.469-1.18-.797-1.344-.281-.141-.118.608-.516.688-.494.099-1.694-.518-2.25-.781-.425-.201-1.114-2.84-1.547-3.047-.386-.184-1.352-.982-1.75-.641-.219.188.078 1.781-.594 1.766-1.078-.025-1.641-.922-2.438-1.5-.104-.075-.154-1.086-.266-1.141-.026-.013-.111.922-.138.91-.325-.15-.667-.251-.956-.426-.287-.174-.52-.423-.766-.703-.891-1.016-1.297-3.541-1.734-3.984-4.423-4.487-13.218-9.229-19.188-10.922-1.11-.314-.56 3.877-.813 3.875-1.672-.016-5.212-1.337-7.284-2.104-.422-.156-.354-1.285-.669-1.349-.068-.014-.341 1.098-.453 1.063-.858-.271-3.313-1-4.5-2.146-.674-.65-1.104-2.122-1.813-2.713-.334-.279-1.651-.982-1.859-.813-.25.203.419 2.385.063 2.25-.906-.344-1.486-.726-2.234-1.172-.537-.32-1.1-.904-1.641-1.281-.17-.119-.539-1.461-.719-1.516-.112-.034-.037 1.229-.141 1.156-1.757-1.229-3.146-3.435-3.469-4.984-.09-.434-.427.002-.781-.953-.563-1.521-1.191-4.648-1.109-5.906.094-1.434.338-6.286.844-9.109.616-3.44 1.719-7.844 3.813-16.297.158-.636-.339-.379-.266-1.094 0 0 .156-.281.953-.984.797-.703 1.453-.984 1.453-.984s-.089.048-.255.714c-.166.666-.063.771-.063.771s-1.169.383-1.354 1.083c-.185.7-.752 5.515-1.665 8.78-.107.383-.515.47-.616.84-.104.378.099 1.039.002 1.398-.582 2.172-1.007 3.943-1.065 4.664-.203 2.547-.209 9.898-.006 10.354.063.141 6.228 6.723 12.641 9.578 4.28 1.906 14.62 5.622 20.126 8.376 8.334 4.17 11.46 7.302 12.188 7.854.573.435 3.295-4.364 3.295-4.364s1.127.018 7.477 3.672c1.72.989 2.708 3.004 5.853 4.182 15.178 5.687 36.333 7.084 55.583-2 2.519-1.188 5.65-10.706 6.625-11.32 3.799-2.392 9.304-4.683 14.188-6.972 4.652-2.182 8.402-4.564 10.318-5.371.639-.27 1.411-.045 1.494-.004.461.231 1.359 3.463 2.124 7.021.043.202-.192.668-.14.869.078.297.262.153.297.328.084.415.273 1.04.313 1.469.04.429-.07.662 0 1.063.021.119-.234.157-.234.469 0 .328.39.174.436.316.152.471.327.906.393 1.371.053.382.004.847.031 1.219.012.166-.391.203-.328.484.056.248.47.229.484.359.067.605-.193 1.105-.188 1.406.006.306-.266.449-.781.906-.229.203-.175.782-.469 1-2.292 1.698-6.59 3.591-6.59 3.591z"/>
        <path fill="url(#linearGradient1464)" stroke="#000" stroke-miterlimit="10" d="M179.719 213.375s-10.28 5.688-10.969 5.375c-.344-.156-.313-2.439-.625-2.603-.312-.164-2.387 1.142-2.67 1.458-.283.316-1.367 3.121-1.583 3.375-.216.254-5.831 2.456-6.041 2.409-.21-.047-.097-1.296-.347-1.233-.25.063-.487 1.344-.487 1.344s-5.137 2.359-7.7 2.359c-1.188 0-.328-1.719-1.092-2.004-.221-.082-1.33-.059-1.814.254-.711.459-.43 2.261-1.156 2.891-.703.609-6.109 1.609-6.469 1.5-.36-.109-.699-1.13-.936-1.145-.189-.012-.349 1.028-1.033 1.379-1.119.573-4.766.781-5.25.781s-1.094-1.875-1.5-2.203c-.145-.117-1.469-.203-2.047.094-1.094.563-.703 2.297-1.688 2.891-.91.549-4.743.244-5.359.223-.563-.02-.83-1.039-.83-1.039s-.42.816-.686 1.02c-.266.204-4.828 0-5.313-.25-.485-.25-1.672-2.609-1.969-2.891-.297-.282-2.016-.313-2.234-.203-.218.11-.469 1.844-1.078 2.063-.082.029-1.587.73-4.094-.375-.273-.12-.391-1.328-.604-1.372-.191-.039-.374.879-.708.919-1.031.125-2.102-.085-3.188-.578-.703-.319-.998-2.646-1.766-3-.458-.212-1.453-.766-2.016-.531-.485.202-.406 1.797-.969 1.906-.608.118-1.612-.215-2.328-.734-.369-.267-.469-1.18-.797-1.344-.281-.141-.118.608-.516.688-.494.099-1.694-.518-2.25-.781-.425-.201-1.114-2.84-1.547-3.047-.386-.184-1.352-.982-1.75-.641-.219.188.078 1.781-.594 1.766-1.078-.025-1.641-.922-2.438-1.5-.104-.075-.154-1.086-.266-1.141-.026-.013-.111.922-.138.91-.325-.15-.667-.251-.956-.426-.287-.174-.52-.423-.766-.703-.891-1.016-1.297-3.541-1.734-3.984-4.423-4.487-13.218-9.229-19.188-10.922-1.11-.314-.56 3.877-.813 3.875-1.672-.016-5.212-1.337-7.284-2.104-.422-.156-.354-1.285-.669-1.349-.068-.014-.341 1.098-.453 1.063-.858-.271-3.313-1-4.5-2.146-.674-.65-1.104-2.122-1.813-2.713-.334-.279-1.651-.982-1.859-.813-.25.203.419 2.385.063 2.25-.906-.344-1.486-.726-2.234-1.172-.537-.32-1.1-.904-1.641-1.281-.17-.119-.539-1.461-.719-1.516-.112-.034-.037 1.229-.141 1.156-1.757-1.229-3.146-3.435-3.469-4.984-.09-.434-.427.002-.781-.953-.563-1.521-1.191-4.648-1.109-5.906.094-1.434.338-6.286.844-9.109.616-3.44 1.719-7.844 3.813-16.297.158-.636-.339-.379-.266-1.094 0 0 .156-.281.953-.984.797-.703 1.453-.984 1.453-.984s-.089.048-.255.714c-.166.666-.063.771-.063.771s-1.169.383-1.354 1.083c-.185.7-.752 5.515-1.665 8.78-.107.383-.515.47-.616.84-.104.378.099 1.039.002 1.398-.582 2.172-1.007 3.943-1.065 4.664-.203 2.547-.209 9.898-.006 10.354.063.141 6.228 6.723 12.641 9.578 4.28 1.906 14.62 5.622 20.126 8.376 8.334 4.17 11.46 7.302 12.188 7.854.573.435 3.295-4.364 3.295-4.364s1.127.018 7.477 3.672c1.72.989 2.708 3.004 5.853 4.182 15.178 5.687 36.333 7.084 55.583-2 2.519-1.188 5.65-10.706 6.625-11.32 3.799-2.392 9.304-4.683 14.188-6.972 4.652-2.182 8.402-4.564 10.318-5.371.639-.27 1.411-.045 1.494-.004.461.231 1.359 3.463 2.124 7.021.043.202-.192.668-.14.869.078.297.262.153.297.328.084.415.273 1.04.313 1.469.04.429-.07.662 0 1.063.021.119-.234.157-.234.469 0 .328.39.174.436.316.152.471.327.906.393 1.371.053.382.004.847.031 1.219.012.166-.391.203-.328.484.056.248.47.229.484.359.067.605-.193 1.105-.188 1.406.006.306-.266.449-.781.906-.229.203-.175.782-.469 1-2.292 1.698-6.59 3.591-6.59 3.591z"/>
        <path stroke="#000" stroke-miterlimit="10" stroke-width=".5" d="M35.659 172.852s2.341 3.055 6.06 6.492c3.719 3.437 8.783 6.908 8.783 6.908l1.405 2.417s-6.375-3.45-10.938-7.909c-3.813-3.697-5.737-6.273-5.737-6.273z"/>
        <path stroke="#000" stroke-miterlimit="10" stroke-width=".5" d="M34.522 178.778l-.047 1.503s2.337 3.719 5.556 6.219c4.286 3.329 10.25 7.063 10.25 7.063l6.066-3.349-.438-.372-.357-.444-5.302 2.978s-5.122-3.156-9.719-7.156c-2.837-2.471-6.009-6.442-6.009-6.442zM56.009 200.993s3.397-3.618 4.616-3.837c.938-.169 7.198 2.744 12.625 6.219 2.159 1.383 3.917 3.037 5.438 4.25a68.89 68.89 0 0 0 3.568 2.679l-.493.798s-1.826-1.322-4.357-3.258c-1.778-1.36-3.863-3.103-6.094-4.563-4.599-3.01-9.595-5.402-10.5-5-1.969.875-3.573 3.198-3.573 3.198z"/>
        <path d="M91.677 214.042c13.362 3.673 14.621 4.008 19.01 4.583 12.406 1.625 17.594 1.469 30.348.515l-4.674 1.033c-14.486.983-18.419.593-25.768-.392-4.86-.651-16.685-3.803-16.685-3.803z"/>
        <path fill="none" stroke="#000" stroke-miterlimit="10" d="M160.375 206.75l25.086-12.507"/>
        <path fill="none" stroke="#000" stroke-miterlimit="10" stroke-width=".75" d="M166.063 210.188s7.438-3.438 10.688-5.063c3.751-1.875 9.609-5.734 9.609-5.734M166.063 213.625s7.788-3.748 12.188-5.875 8.484-5.031 8.484-5.031M169.966 215.183l17.3-9.074"/>
    </g>
    <g fill="#ffe680" stroke="#000" stroke-miterlimit="10">
        <path d="M79.875 64.938a3.5 3.5 0 1 1-7 0 3.5 3.5 0 0 1 7 0zm-3.5-1.907a1.906 1.906 0 1 0 0 3.812 1.906 1.906 0 0 0 0-3.812zM81.313 88.438a3.5 3.5 0 1 1-7 0 3.5 3.5 0 0 1 7 0zm-3.5-1.907a1.906 1.906 0 1 0 0 3.812 1.906 1.906 0 0 0 0-3.812zM83.688 111.438a3.5 3.5 0 1 1-7 0 3.5 3.5 0 0 1 7 0zm-3.5-1.907a1.906 1.906 0 1 0 0 3.812 1.906 1.906 0 0 0 0-3.812zM88 130.938a3.5 3.5 0 1 1-7 0 3.5 3.5 0 0 1 7 0zm-3.5-1.907a1.906 1.906 0 1 0 0 3.812 1.906 1.906 0 0 0 0-3.812zM103.531 83.966c-.09 2-.443 3.608-.788 3.593-.345-.015-.551-1.649-.461-3.649.09-2 .443-3.608.788-3.593.345.015.551 1.649.461 3.649zm-.968-.044c-.065 1.446.036 2.625.225 2.633.19.008.396-1.156.461-2.602s-.036-2.625-.225-2.633c-.19-.008-.396 1.156-.461 2.602zM105.535 105.952c.055 2.001-.181 3.631-.526 3.641-.345.01-.669-1.605-.724-3.606-.055-2.001.181-3.631.526-3.641.345-.011.668 1.605.724 3.606zm-.969.026c.04 1.447.226 2.615.415 2.61.19-.005.312-1.182.272-2.628-.04-1.446-.226-2.615-.416-2.61-.189.005-.311 1.181-.271 2.628zM107.966 126.427c.171 1.995.094 3.63-.172 3.653-.267.023-.621-1.575-.792-3.57-.171-1.995-.094-3.63.173-3.653.266-.023.62 1.576.791 3.57zm-.747.065c.124 1.442.342 2.6.489 2.587.147-.013.165-1.191.042-2.633-.124-1.442-.342-2.6-.489-2.587-.147.012-.166 1.19-.042 2.633zM107.498 60.671c-.19 1.993-.561 3.587-.828 3.562-.266-.025-.327-1.662-.136-3.655.19-1.993.561-3.587.828-3.562.265.026.326 1.662.136 3.655zm-.748-.071c-.138 1.44-.13 2.62.016 2.633.146.014.377-1.142.515-2.583.138-1.441.131-2.62-.016-2.634-.146-.013-.377 1.143-.515 2.584z"/>
    </g>
    <g stroke="#000" stroke-miterlimit="10">
        <path d="M93.721 106.198L90.25 94.75l6.004 1.99zM94.837 114.938l2.413 11.896 2.907-6.999-5.32-4.897M99.587 136.761l2.965 7.657 2.484-4.99z"/>
    </g>
    <g fill="#f55" stroke="#000" stroke-miterlimit="10">
        <path d="M107.016 58.713s3.068 6.225-1.473 10.619c-7.88 7.625-19.123 14.606-19.123 14.606l.015-1.239s13.873-9.704 17.154-13.117c2.614-2.719 3.063-7.166 3.063-7.166z"/>
        <path d="M77.1 63.354s6.984 3.311 12.734 7.145c5.75 3.834 9.852 10.949 9.852 10.949l.063 1.968s-5.54-6.167-10.936-10.833-12.64-5.666-12.64-5.666-1.839-.943-1.256-2.383 2.183-1.18 2.183-1.18zM78.625 87.245s-.925-1.135-2.042.314c-.677.879.75 1.636.75 1.636s3.416 2.841 4.917 3.803c.576.37 3.285 2.046 6.167 4.104.75.536 1.124 1.377 1.934 1.896 6.044 3.875 13.202 7.66 13.202 7.66l-.427-2.903s-6.074-3.063-11.458-6.418c-.87-.542-1.111-1.361-1.917-1.921-2.689-1.868-5.471-3.396-6.063-3.833-1.864-1.381-5.063-4.338-5.063-4.338z"/>
        <path d="M107.292 109.592c-.032.836-1.048 1.878-1.621 2.907-1.224 2.196-3.035 5.771-5.246 8.042-3.723 3.824-7.966 5.927-7.965 5.927l-.587-1.827s5.292-3.381 8.836-7.433c2.527-2.889 3.632-6.159 4.201-7.047 1.09-1.703.071-1.573.071-1.573l-.144-5.238s2.647 1.192 2.455 6.242z"/>
        <path d="M81 109.716s1.208 1.034 2.688 2.365c.455.409 3.518 1.107 6.663 2.857 6.763 3.762 16.066 9.812 16.066 9.812l.104 1.719s-14.707-8.728-17.313-10.011c-2.606-1.283-9.451-3.163-9.451-3.163s-1.45-1.222-1.049-2.378c.401-1.156 2.292-1.201 2.292-1.201z"/>
        <path d="M107.26 123.858l.447 5.221s.909-1.712.35 1.692-7.901 9.886-7.901 9.886l1.04 1.477s9.408-6.259 8.679-14.421c-.185-2.066-2.615-3.855-2.615-3.855z"/>
        <path d="M86.202 130.08s1.075 3.098 5.034 4.473c1.164.404 1.733.342 4.597 1.555 6.88 2.914 16.036 7.293 16.036 7.293l.762 1.353s-10.573-4.213-18.006-6.979c-3.303-1.229-6.224-1.957-6.917-2.271-2.25-1.021-4.771-3.476-4.771-3.476s-.087-1.677.729-2.163c.816-.486 2.536.215 2.536.215zM103.262 82.682s.875-.638 1.015 2.881c.045 1.146-.696 4.168-2.943 7.269-4.656 6.428-12.784 14.306-12.784 14.306l-.32-2.553s5.609-4.491 8.024-7.482c2.415-2.991 6.534-10.546 6.534-10.546z"/>
    </g>
    <g>
        <path fill="#f55" stroke="#000" stroke-miterlimit="10" d="M99.17 97.336c.021 3.082.083 8.248.083 8.248l1.583 7.667s1.486 3.105 2.069 5.667 0 6.333 0 6.333.806 1.246 1.371 3.833.633 5.354.633 5.354 1.532 1.081 2.575 3.814c1.043 2.733 1.186 6.084 1.186 6.084l-5.75.417s-.052-3.601-1.167-5.418c-1.115-1.817-2.85-3.168-2.85-3.168s.035-2.766-.4-4.832c-.435-2.066-1.417-4.5-1.417-4.5s.888-3.208.25-6.583-2.5-5.314-2.5-5.314l-1-8.969s-.32-5.987-.525-7.629c-.205-1.642-2.808-4.089-2.808-4.089l6.721-.706s1.926.709 1.946 3.791z"/>
        <g>
            <path fill="#f55" d="M94.92 106.417l3.142-.376 1.615 8.126-3.66.381s-.196-2.441-.347-4.29c-.151-1.849-.75-3.841-.75-3.841z"/>
            <g fill="none" stroke="#000" stroke-miterlimit="10" stroke-width=".25">
                <path d="M95.054 106.897c-.08-.301-.133-.48-.133-.48l.497-.06"/>
                <path stroke-dasharray="1.082,.541" d="M95.954 106.294l1.343-.161"/>
                <path d="M97.565 106.101l.497-.059.098.49"/>
                <path stroke-dasharray=".9106,.4553" d="M98.248 106.979l1.287 6.475"/>
                <path d="M99.579 113.677l.098.49-.497.052"/>
                <path stroke-dasharray=".7656,.3828" d="M98.799 114.259l-2.094.218"/>
                <path d="M96.514 114.497l-.497.052-.04-.497"/>
                <path stroke-dasharray=".9029,.4514" d="M95.941 113.604c-.071-.88-.179-2.222-.271-3.345-.096-1.17-.371-2.398-.56-3.142"/>
            </g>
        </g>
        <g>
            <path fill="#f55" d="M98.837 127.438l3.424-.969s.884 1.954 1.328 3.866c.444 1.912 0 5.003 0 5.003l-3.338.829s-.072-2.197-.501-4.849-.913-3.88-.913-3.88z"/>
            <g fill="none" stroke="#000" stroke-miterlimit="10" stroke-width=".25">
                <path d="M98.995 127.909a7.175 7.175 0 0 0-.158-.472l.481-.136"/>
                <path stroke-dasharray="1.2791,.6396" d="M99.934 127.127l1.538-.435"/>
                <path d="M101.78 126.605l.481-.136s.077.169.196.458"/>
                <path stroke-dasharray="1.0141,.507" d="M102.646 127.395c.294.748.69 1.851.942 2.94.307 1.325.188 3.217.087 4.253"/>
                <path d="M103.649 134.844c-.034.309-.061.494-.061.494l-.485.12"/>
                <path stroke-dasharray="1.2199,.6099" d="M102.511 135.605l-1.48.368"/>
                <path d="M100.735 136.047l-.485.12s-.006-.179-.024-.496"/>
                <path stroke-dasharray=".9832,.4916" d="M100.194 135.183a44.155 44.155 0 0 0-.446-3.864c-.243-1.501-.503-2.547-.683-3.171"/>
            </g>
        </g>
    </g>
    <g fill="#f55" stroke="#000" stroke-miterlimit="10">
        <path d="M144.699 172.673s1.289.255 2.05.9c.761.645.938 1.634.938 1.634l-1.813-.707zM112.88 141.455s1.746-1.724 2.495-.121c1.792 3.833-6.166 14.89-6.166 14.89l-1.152-1.636s3.283-5.543 4.109-7.254c.826-1.711 1.724-4.184 1.724-4.184s.465-.51-.099-1.248c-.564-.738-.911-.447-.911-.447z"/>
        <path d="M93.542 144.501s7.985-1.321 9.333-.75c.402.171 2.557 1.199 4.609 2.916 2.363 1.977 4.776 4.767 7.308 6.584 2.631 1.89 5.08 2.419 5.081 2.419l1.012 1.346s-2.979.681-6.926-1.765c-2.699-1.673-5.36-4.892-7.708-7-1.724-1.547-3.476-2.279-3.958-2.459-2.099-.784-8.98.917-8.98.917s-1.012-.406-.937-1.125c.075-.719 1.166-1.083 1.166-1.083zM101.999 158.871s6.342-2.115 10.632-.875c1.536.443 4.032 1.979 6.618 3.375 4.639 2.506 9.544 5.242 9.545 5.242l1.502 1.662s-2.964-.676-6.63-2.571c-3.709-1.917-8.133-5.059-10.333-5.75-4.375-1.375-11.583 1.084-11.583 1.084s-.56-.833-.501-1.341c.059-.508.75-.826.75-.826z"/>
        <path d="M121.99 154.906s.967-1.05 2.1-.408c1.005.569.147 1.418-1.008 2.971-2.387 3.208-5.332 9.371-5.332 9.371l-1.251-1.529zM132.04 167.117s1.002-.961 2.125 0c2 1.711-5.132 5.938-7.917 8.633-.832.804-1.341 2.061-1.341 2.061l-2.82-.049s1.664-1.736 3.787-3.686c1.619-1.485 3.683-3.144 4.422-3.955.843-.926 1.519-1.571 1.744-2.087.231-.529 0-.917 0-.917z"/>
        <path d="M111.176 171.907s6.489-1.906 11.239-1.786c4.75.12 13.279 2.412 13.279 2.412l-3.399 1.015s-6.583-1.084-11.41-1.227c-4.219-.125-8.719 2.098-8.719 2.098s-1.702.046-1.882-.887c-.202-1.041.892-1.625.892-1.625zM121.916 181.688l5.333-5.074s1.175-.604 2.125 0 .557 1.708.557 1.708l-6.265 4.366s-.848.754-1.579.259c-.921-.626-.171-1.259-.171-1.259z"/>
    </g>
</svg>
