<svg xmlns="http://www.w3.org/2000/svg" xmlns:xlink="http://www.w3.org/1999/xlink" viewBox="0 0 256 256">
    <defs>
        <linearGradient id="linearGradient1101">
            <stop offset="0" stop-color="#414042"/>
            <stop offset="1" stop-color="#1a1a1a"/>
        </linearGradient>
        <linearGradient id="linearGradient1085">
            <stop offset="0" stop-color="#58595b"/>
            <stop offset="1" stop-color="#1a1a1a"/>
        </linearGradient>
        <linearGradient id="innoGrad3">
            <stop offset="0" stop-color="#ff7f2a"/>
            <stop offset=".424" stop-color="#ff7f2a" stop-opacity="0"/>
            <stop offset=".576" stop-color="#ff7f2a" stop-opacity="0"/>
            <stop offset="1" stop-color="#ff7f2a" stop-opacity=".502"/>
        </linearGradient>
        <linearGradient id="innoGrad22">
            <stop offset="0" stop-color="#ff7f2a" stop-opacity="0"/>
            <stop offset="1" stop-color="#ff7f2a" stop-opacity=".502"/>
        </linearGradient>
        <linearGradient id="innoGrad2">
            <stop offset="0" stop-color="#ff7f2a" stop-opacity=".502"/>
            <stop offset="1" stop-color="#ff7f2a" stop-opacity="0"/>
        </linearGradient>
        <linearGradient id="innoGrad1">
            <stop offset="0" stop-color="#ff2a2a" stop-opacity="0"/>
            <stop offset=".676" stop-color="#ff2a2a" stop-opacity=".125"/>
            <stop offset=".911" stop-color="#ff2a2a" stop-opacity=".251"/>
            <stop offset="1" stop-color="#ff2a2a" stop-opacity=".502"/>
        </linearGradient>
        <linearGradient id="linearGradient1021" x1="23.039" x2="38.218" y1="87.789" y2="87.789" gradientUnits="userSpaceOnUse" xlink:href="#innoGrad2"/>
        <linearGradient id="linearGradient1044" x1="219.539" x2="235.264" y1="87.789" y2="87.789" gradientUnits="userSpaceOnUse" xlink:href="#innoGrad22"/>
        <linearGradient id="linearGradient1075" x1="81.397" x2="185.259" y1="67.828" y2="67.828" gradientUnits="userSpaceOnUse" xlink:href="#innoGrad3"/>
        <linearGradient id="linearGradient1087" x1="193.106" x2="193.106" y1="152.147" y2="125.616" gradientUnits="userSpaceOnUse" xlink:href="#linearGradient1085"/>
        <linearGradient id="linearGradient1095" x1="73.582" x2="73.582" y1="150.436" y2="120.063" gradientUnits="userSpaceOnUse" xlink:href="#linearGradient1085"/>
        <linearGradient id="linearGradient1103" x1="29.845" x2="29.845" y1="135.891" y2="114.739" gradientUnits="userSpaceOnUse" xlink:href="#linearGradient1101"/>
        <linearGradient id="linearGradient1119" x1="175.285" x2="196.189" y1="157.443" y2="125.487" gradientUnits="userSpaceOnUse" xlink:href="#linearGradient1101"/>
        <linearGradient id="linearGradient1127" x1="69.214" x2="54.199" y1="157.375" y2="122.063" gradientUnits="userSpaceOnUse" xlink:href="#linearGradient1101"/>
        <linearGradient id="linearGradient1135" x1="44.997" x2="44.623" y1="127.567" y2="123.822" gradientUnits="userSpaceOnUse" xlink:href="#linearGradient1101"/>
        <linearGradient id="linearGradient1143" x1="203.516" x2="219.327" y1="129.882" y2="129.882" gradientUnits="userSpaceOnUse" xlink:href="#linearGradient1085"/>
        <radialGradient id="radialGradient1010" cx="131.725" cy="125.618" r="114.5" fx="131.725" fy="125.618" gradientTransform="matrix(.95737 0 0 .90792 5.688 .373)" gradientUnits="userSpaceOnUse" xlink:href="#innoGrad1"/>
    </defs>
    <g stroke="#000" stroke-miterlimit="10">
        <path fill="#414042" d="M193.106 152.147c2.846.222 1.852-5.373 1.852-5.373h-5.405s.707 5.152 3.553 5.373z"/>
        <path fill="url(#linearGradient1103)" d="M37.119 115.732l-6.657 40.15s41.206-10.039 97.513-10.136c56.308-.083 97.538 10.136 97.538 10.136l-6.664-40.15z"/>
        <path fill="url(#linearGradient1095)" d="M89.809 149.746s.444-1.417.889-1.5c.153-.041 1.249-.423 1.693-2.499.875-4.089 1.27-11.57 1.152-13.577l-1.152-.361c.393-3.606.069-10.9.069-10.9L74.445 119.6l.356 13.014-.713.351.357 17.934z"/>
        <path fill="url(#linearGradient1087)" d="M173.31 121.598v10.031h-1.61s.18 15.992.443 16.617c.277.61 1.514.083 1.874 1.332.348 1.236-.708.168 0 1.319.709 1.166 17.757 1.958 19.09 1.25 1.333-.709-.889-1.681-1.597-2.75-.708-1.068-1.597-15.895-1.597-15.895l-1.321-.626.252-11.279H173.31z"/>
        <path fill="none" stroke-dasharray="1" stroke-width=".5" d="M192.813 150.655l-19.004-1.513M90.366 148.524l-15.921 1.222"/>
    </g>
    <g stroke="#000" stroke-miterlimit="10">
        <path fill="#414042" d="M72.404 186.143s.488 4.34.758 8.464c.227 3.528.173 6.886.75 7.191 1.26.675 14.48 3.373 14.48 3.373l-1.333-20.226z"/>
        <path fill="#414042" d="M73.024 201.714s-2.131.89-1.333 1.597c.805.708.535 4.97 1.333 5.331.805.348 14.036 3.997 15.014 2.93.972-1.069 1.323-4.03.354-6.4-.624-1.514-15.368-3.458-15.368-3.458zM182.615 198.17c1.874.513 22.137-31.282 22.137-31.282l-23.289-1.246s-.708 32.01 1.152 32.527zM69.837 168.286s5.028 22.498 5.354 24.097c.326 1.6 17.999-2.072 17.554-3.9-.77-3.174-6.31-27.858-6.31-27.858zM195.339 161.823l-20.644 1.472s-1.839-3.859-1.396-6.463c.846-5.019 16.768-6.672 18.78-3.936 2.014 2.751 3.26 8.927 3.26 8.927zm-20.054-4.38s-1.458 2.18.479 2.055c1.923-.139 15.718-2.464 15.717-3.332-.004-3.453-16.196 1.277-16.196 1.277z"/>
        <path fill="url(#linearGradient1119)" d="M207.636 123.063s-17.686 25.428-17.526 28.109c.146 2.683.968 4.592.968 4.592l-15.979 2.603s-.84-.386-.933-5.057c-.079-4.672 18.323-28.79 18.323-28.79z"/>
        <path fill="#414042" d="M175.691 163.23s-6.539 25.158-7.459 31.385c-.238 1.616 1.077 1.272 3.193 1.671 3.633.716 9.371 1.427 11.764 2.004 3.784.94 9.964-36.307 9.964-36.307zM83.039 152.204c1.835 1.45 2.729 6.68 3.396 8.42.667 1.74-17.451 7.662-17.451 7.662l-5.061-12.32s15.584-6.527 19.116-3.762zm-17.852 5.621l1.333 2.8s14.042-4.195 15.375-4.723c1.333-.54 1.573-1.208.348-2.062z"/>
        <path fill="url(#linearGradient1127)" d="M54.199 122.063l18.651 2.2 9.045 30.233-15.839 4.537z"/>
        <path fill="#414042" d="M172.758 174.532s.443 2.846-.709 3.554c-1.151.71-14.951 1.39-16.396 2.068-1.458.681-.832-1.444-.832-1.444z"/>
        <path fill="#414042" d="M66.049 157.636s5.076 1.007 12.557 2.387c2.949.552 4.663-.78 8.185-.16 4.375.76 10.662 3.483 15.361 4.222 13.092 2.084 26.261 3.771 32.777 3.465 14.612-.695 63.497-10.509 63.497-10.509l.974 13.674s-12.001 1.166-26.178 3.818c-3.367.633-6.415 2.207-9.961 2.881-5.608 1.07-10.268 3.525-15.548 4.56-5.646 1.118-11.866.798-16.339.835-9.792.095-32.553-2.584-34.702-4.364-.391-.327-.668.632-1.521.531-2.787-.358-7.878-1.022-10.755-1.693-9.017-2.099-15.451-5.415-15.451-5.415z"/>
        <path fill="#414042" d="M63.533 151.521s17.271 21.8 19.265 46.374c.528 6.567-1.86 11.646-1.604 15.98.25 4.071 3.881 7.44 7.816 12.258 13.611 16.627 61.106 16.598 61.106 16.598s-35.526 15.104-57.815-8.163c-1.999-2.095-4.03-3.767-6.31-6.039-3.772-3.778-5.849-9.605-7.816-17.406-.925-3.688-2.676-6.81-3.727-11.188-1.278-5.332-1.055-10.896-2.666-16.257C66.815 167.092 59.5 152.41 59.5 152.41z"/>
        <path fill="none" d="M73.913 192.383s2.688 14.77 6.574 24.518c1.093 2.733 4.042 3.587 6.249 6.53 5.638 7.522 12.085 16.664 12.085 16.664"/>
        <path fill="#414042" d="M128 182.826c.069 2.401 7.237 2.402 7.828 4.065 1.563 4.458 14.955 4.736 14.954-.269-.001-3.059-22.851-6.184-22.782-3.796zM149.65 189.798v1.207s5.331.76 5.796 0c.274-.455.375-1.487-.409-1.118-.9.415-5.387-.089-5.387-.089z"/>
        <path fill="#414042" d="M149.65 187.07s2.464.603 5.055 1.216c.66.146.948.874.948 1.512 0 1.875-6.003 0-6.003 0z"/>
        <path fill="#414042" d="M141.591 184.042l1.069 4.346s4.997-3.31 12.688-4.72c5.911-1.086 13.82-.677 19.714.902 13.591 3.637-.527-4.083-.527-4.083s-13.902.343-18.882.89c-4.993.531-14.062 2.665-14.062 2.665zM135.996 182.808h-3.873l-.264 3.335 4.929.926z"/>
        <path fill="#414042" d="M128 186.202c.069 2.401 7.237 2.402 7.828 4.08 1.563 4.443 14.955 4.721 14.954-.283-.001-3.058-22.851-6.186-22.782-3.797zM182.352 222.901c.215.864 3.395 1.068 3.395 1.068s9.856-.264 10.321-.835c.466-.56.593-1.83.593-3.087-.001-1.578-14.524 2.003-14.309 2.854z"/>
        <path fill="#414042" d="M168.578 232.551s12.523-11.1 17.41-7.81c4.887 3.276-17.41 7.81-17.41 7.81z"/>
        <path fill="#414042" d="M82.921 217.67c-.567-2.389 1.03-2.407 1.795-1.645.978.96 2.205 2.484 4.253 3.622 2.379 1.322 6.461 2.117 9.852 2.848 8.521 1.806 21.127 3.048 32.713 4.346 10.513 1.172 20.013 2.443 27.994 3.11 20.255 1.68 19.541-5.147 25.488-5.98 9.27-1.3 12.39 2.241 12.161 4.453-.499 4.871-8.192.634-14.133 3.806-3.508 1.883-5.491 11.453-7.44 13.172-.999.876-6.78.872-12.884 1.25-4.548.275-8.688 1.074-14.3.9-12.099-.402-24.918-2.2-29.833-2.858-10.248-1.369-20.443-5.55-20.443-5.55z"/>
        <path fill="#6d6e71" d="M181.483 233.362s.806-.792 2.867-1.86c2.062-1.069 3.131-.604 3.131-.604l1.482-8.989c2.688-2.286 7.041-.2 7.569.667.541.867-.654 8.662-4.187 10.787-3.533 2.138-7.795 2.728-9.128 2.603-1.33-.14-2.462-1.473-1.734-2.604z"/>
        <path fill="none" d="M187.481 230.897s-.145 1.207.93 2.263c1.075 1.07 2.38 1.03 2.38 1.03"/>
        <path fill="#414042" d="M200.995 154.11s-3.724 7.323 2.716 5.677c6.425-1.633 6.171-2.842 5.282-4.262-.889-1.416-7.998-1.416-7.998-1.416zM185.281 198.29s-3.959-6.753-.994-9.439c2.951-2.686 14.428-19.472 14.428-19.472l3.087 2.751s-5.243 9.433-5.971 12.302c-.713 2.882.829 8.396.829 8.396z"/>
        <path fill="none" d="M196.404 182.822s-1.746 2.117-4.28 5.012c-2.547 2.896-1.323 5.854-1.323 5.854"/>
        <path fill="#6d6e71" d="M193.881 188.851c2.992-.108 5.026 4.021 4.589 10.478-.264 3.936-4.79 9.19-1.458 16.32.211.447.063 5.218-.352 5.656-.267.296-2.593-1.882-5.181-1.458-1.938.31-3.943 2.05-5.657 2.791-1.848.801-3.335.585-3.471.264-.365-.854-.054-4.403.201-5.255 1.095-3.607 3.332-6.262 1.726-15.54-.329-1.849-.795-6.437-.191-6.575.59-.139-.259 2.274 1.338 2.15 0 0 5.366-2.088 5.366-3.019 0-2.464.085-5.69 3.09-5.812z"/>
        <path fill="#414042" d="M195.804 214.477s-4.563 2.038-5.443-3.355c-.88-5.394.909-9.69 3.708-11.994 4.457-3.658 1.811 5.935 1.811 5.935z"/>
        <path fill="none" d="M198.426 199.733s-.067-1.979-.949-3.397c-1.816-2.952-5.603-4.217-8.927 14.32-1.327 7.402 8.462 4.991 8.462 4.991"/>
        <path fill="#414042" d="M194.673 199.994s-1.58 1.37-2.062 2.527c-.482 1.162-.806 4.34-.806 4.34l2.867.664v-7.53z"/>
        <path fill="#58595b" d="M190.791 211.788c-1.047-3.873.89-6.199.89-6.199s1.722.316 2.464-.269c.729-.599-.423-5.295 0-5.93.424-.634.729-.389 1.396 0 .667.402 0 15.18 0 15.18s-3.718 1.077-4.75-2.782z"/>
        <path fill="#414042" d="M44.997 127.567c1.596-.93 6.525 19.047 5.595 20.38-.937 1.332-2.325 2.281-4.665 2-2.728-.328-3.395-13.052-1.813-15.189 1.212-1.629-.721-6.259.883-7.19z"/>
        <path fill="url(#linearGradient1135)" d="M58.222 132.773l-12.374-1.515v-7.436l6.19-1.606 5.096.824z"/>
        <path fill="#414042" d="M45.542 135.987v-3.797l13.585 1.861v4.2zM49.735 148.17l-2.751 2.072s2.751.19 4.015 4.855c.418 1.534 6.135 2.721 7.399 1.395 1.929-2.029-.212-2.714 1.855-3.946l2.408-1.648z"/>
        <path fill="none" d="M60.252 152.546l-13.268-2.304"/>
        <path fill="#414042" d="M59.127 139.541l-11.321-1.957c-7.553 0-4.904 9.413-.822 10.12 4.088.708 12.9 2.29 12.9 2.29z"/>
        <path fill="none" d="M57.753 139.805s-1.814 2.748-1.604 5.68c.217 2.931 2.337 4.262 2.337 4.262"/>
        <path fill="#414042" d="M58.863 130.128c1.597-.94 6.525 19.048 5.595 20.381-.937 1.333-2.324 2.28-4.665 2-2.728-.34-3.395-13.064-1.813-15.189 1.213-1.642-.72-6.26.883-7.192zM211.372 126.386c.992-1.936 2.28-2.4 3.403.265 1.122 2.665.192 4.79 1.852 5.595 1.673.805 7.531 10.523 3.332 14.383 0 0-3.923.597-4.79 0-1.343-.918-3.797-20.243-3.797-20.243z"/>
        <path fill="#414042" d="M212.571 147.628l5.209-3.582.868 2-5.254 3.998z"/>
        <path fill="url(#linearGradient1143)" d="M204.099 123.402l1.763 9.781 3.882 4.338 8.904-8.455-5.657-7.003z"/>
        <path fill="#414042" d="M210.867 157.033s-1.409 14.527-1.409 16.79c0 3.11-9.614 3.59-10.059 2.138-.742-2.467-1.144-17.595-1.144-17.595z"/>
        <path fill="#414042" d="M200.552 152.513c-1.333.347-5.484 7.41 1.617 8.85 7.088 1.452 8.655-3.172 8.142-5.837-.513-2.667-8.426-3.374-9.759-3.013zM204.727 176.466s.285 5.151-1.016 8.366c-.986 2.4-3.391 4.068-4.756 4.017-5.834-.237.975-12.383.975-12.383zm-2.558.276s-1.617 2.678-.813 3.745c.806 1.068 2.91-3.843 2.91-3.843z"/>
        <path fill="#414042" d="M200.995 153.84s5.333-20.256 13.468-20.256c8.12 0 4.385 7.997 3.761 8.621l-12.605 12.605z"/>
        <path fill="#414042" d="M202.169 154.083s1.437-5.037 3.291-7.975c1.868-2.938 5.532-5.996 5.532-5.996l2.464 5.003s-5.13 3.256-6.727 4.93c-1.597 1.658-2.631 4.451-2.631 4.451zM212.991 149.843s.465 2.991 1.131 3.331c.667.327 1.333.063 1.673-.604.326-.666.608-3.734.608-3.734zM213.963 125.903l4.443 4.225-7.15 7.88 2.402-6.845z"/>
        <path fill="#414042" d="M208.867 135.321l-.804-4.623 5.817-3.682.583 4.105z"/>
        <path fill="#414042" d="M208.807 123.871l5.922 3.364s2.578 9.505-5.922 10.755c-4.083.59-5.096-13.703-5.096-13.703zm.937 11.45c3.211.914 3.562-9.665 3.562-9.665l-8.395-2.635s1.609 11.385 4.833 12.3z"/>
        <path fill="#414042" d="M206.327 130.656c1.007-1.935 2.28-2.4 3.417.264 1.123 2.666.179 4.804 1.852 5.595 1.659.806 7.518 10.523 3.332 14.383 0 0-3.936.598-4.804 0-1.343-.917-3.797-20.242-3.797-20.242zM69.837 168.286l.792 18.324s-1.208 3.262-4.706 0c-1.349-1.247.09-2.274-.889-3.803s-4.677.608-4.782-4.098c-.104-4.705-3.676-17.983-2.508-18.8 1.161-.828 12.093 8.377 12.093 8.377z"/>
        <path fill="#414042" d="M62.568 159.033c1.7 1.342 12.305 10.956 4.357 10.538-7.948-.417-11.164-7.165-8.704-10.538 2.46-3.373 2.648-1.343 4.347 0z"/>
        <path fill="none" d="M66.902 166.813l-3.735 1.473M62.562 168.56l1.505 13.674"/>
        <path fill="#414042" d="M58.222 159.91l4.945 8.376s-1.008-2.469.756-3.167c1.765-.698 2.979 1.694 2.979 1.694l-4.887-7.78s-.755-1.59-2.131-1.59c-1.662 0-1.662 2.467-1.662 2.467z"/>
        <path fill="none" d="M71.691 203.311s15.813 1.86 15.722 2.75c-.2 1.987.625 5.511.625 5.511"/>
        <path fill="#414042" d="M115.658 182.234s13.758 8.057 15.799 4.835c2.055-3.208-15.799-4.835-15.799-4.835z"/>
        <path fill="#414042" d="M131.534 185.363v-3.129l-16.41-.26z"/>
    </g>
    <g fill="#58595b" stroke="#000" stroke-miterlimit="10">
        <path d="M96.183 7.641s32.584-.8 40.499-.612c18.562.454 25.705 2.924 25.705 2.924l-2.251.484s-3.36-.877-5.962-1.097c-8.142-.688-22.762-1.37-17.229-1.237 6.403.152-26.864-.134-35.346-.006-1.185.018-5.416-.456-5.416-.456z"/>
        <path d="M161.292 10.192l-6.409-1.477-14.827-1.232-43.873.158 2.307 2.797 59.683 2.276z"/>
    </g>
    <g id="patternLayer">
        <path fill="#ff8080" stroke-miterlimit="10" d="M217.367 129.06s1.854 9.376 3.642 16.415c1.456 5.771 2.082 11.729 5.679 13.328 6.356 2.812 15.817 2.915 15.813-3.917-.002-2.728-2.913-7.598-3.455-12.346-.416-3.588-1.853-16.768-4.54-27.267-2.935-11.458-5.774-11.617-6.44-14.143-1.02-3.906.292-7.916-1.166-12.327-4.444-13.526-10.281-29.137-15.844-41.204-2.924-6.348-8.591-11.339-11.634-16.341-3.038-5.021-9.528-13.494-13.361-17.031-.629-.584-1.38.724-1.826.336-1.415-1.249-6.195-4.243-11.417-5.133-7.274-1.243-12.12 1.56-15.979 1.333-4.227-.254-5.403-1.482-8.885-1.867-7.744-.868-16.274-.977-19.977-.978-5.373 0-13.255.529-26.912 1.333-3.859.228-3.059-2.232-7.282-1.687-5.245.676-12.833 3.95-19.004 6.927 0 0-1.596-1.152-3.019.09-3.176 2.783-11.64 10.855-15.188 16.694-3.035 5.002-8.709 10-11.633 16.341C39.376 59.683 33.54 75.294 29.095 88.82c-1.443 4.412-.139 8.421-1.166 12.327-.667 2.533-3.499 2.686-6.439 14.146-2.688 10.496-4.111 23.671-4.527 27.259-.549 4.748-3.46 9.618-3.462 12.347-.004 6.831 9.463 6.729 15.805 3.916 3.604-1.598 4.223-7.557 5.686-13.328 1.788-7.039 4.794-17.497 4.794-17.497l3.332-2.396 4.859-2.602 11.995-.667 10.454 1.667 55.684-.528 63.549 1.327 17.979-1.729 4.727 1.798z"/>
    </g>
    <g fill="#ff2a2a" fill-opacity=".251">
        <path d="M58.564 30.517c2.754-4.553 5.653-8.255 9.214-10.454.939-.58 1.929-.892 2.893-1.1 1.637-.353 3.192-.414 4.68-1.006 2.726-1.085 5.509-1.713 8.262-2.001 4.145-.434 8.216-.1 11.883.595a52.152 52.152 0 0 1 9.298 2.691c2.455.971 4.228 1.788 5.404 2.415.603.32.983.556 1.26.74.124.083.218.15.26.164.054.017.047-.025.096-.126a.37.37 0 0 1 .099-.13c.04-.032.078-.041.098-.035.046.014-.007.077-.11.122-.223.1-.648.143-1.236.1a9.466 9.466 0 0 1-.774-.091 10.763 10.763 0 0 1-1.408-.338c-.86-.259-1.847-.626-2.974-1.057a.25.25 0 0 0-.178.467c1.137.435 2.155.75 3.029 1.006.525.153.999.285 1.421.41.282.083.544.154.785.214.583.146 1.1.238 1.485.235.195-.002.414-.027.612-.128a.915.915 0 0 0 .483-.611 1.337 1.337 0 0 0-.06-.757 2.675 2.675 0 0 0-.343-.642c-.292-.416-.733-.867-1.313-1.349-1.162-.966-2.947-2.109-5.383-3.363-2.473-1.27-5.845-2.633-9.757-3.586-3.909-.952-8.395-1.504-13.067-1.115-3.11.259-6.306.935-9.457 2.19-1.722.686-2.93 2.022-4.084 3.347-.694.796-1.367 1.586-2.204 2.34-3.083 2.776-6.534 5.952-9.342 10.594a.25.25 0 0 0 .428.259z"/>
        <path d="M68.882 29.15c.334-.8.886-1.627 1.737-2.377a7.993 7.993 0 0 1 1.803-1.193c.468-.227.987-.38 1.528-.499 1.336-.29 2.786-.355 4.212-.823 1.449-.477 2.974-.954 4.524-1.384 3.048-.845 6.216-1.513 9.017-1.606a17.766 17.766 0 0 1 1.623.017c.782.045 1.514.165 2.177.34 1.11.292 2 .73 2.664 1.235a.25.25 0 0 0 .302-.398c-.737-.56-1.734-.933-2.868-1.22a30.639 30.639 0 0 0-2.217-.454 34.887 34.887 0 0 0-1.647-.246c-2.85-.357-6.205-.436-9.52-.001-1.683.22-3.353.574-4.92 1.089-1.545.508-2.765 1.528-3.848 2.458-.441.379-.861.744-1.288 1.066-.628.473-1.225.925-1.754 1.375-.876.746-1.61 1.528-1.987 2.429a.25.25 0 0 0 .462.193z"/>
        <path d="M66.74 38.25c.128-.67.251-1.46.76-2.106.777-.986 1.898-1.76 3.127-2.355 1.704-.825 3.686-1.337 5.603-1.846.342-.091.694-.171 1.054-.238 3.512-.661 6.78-1.214 11.053-1.324 2.925.016 5.892-.043 8.537.068 1.316.055 2.543.152 3.624.321.216.034.426.071.63.11.82.161 1.49.488 2.039.795a.25.25 0 0 0 .244-.436c-.596-.334-1.352-.548-2.147-.84a18.81 18.81 0 0 0-.624-.216c-1.072-.351-2.297-.657-3.613-.937-2.624-.558-5.63-1.016-8.453-1.516-4.37-.883-8.05-1.247-12.08-.617-.502.082-.99.187-1.465.313-2.81.748-4.822 2.594-6.102 4.496-.912 1.355-1.475 2.75-1.87 3.99-.257.81-.668 1.51-.808 2.245a.25.25 0 0 0 .492.093zM151.888 17.317a2.385 2.385 0 0 0-.162.335.724.724 0 0 0-.055.273.325.325 0 0 0 .036.14.272.272 0 0 0 .113.112.353.353 0 0 0 .134.039.659.659 0 0 0 .13-.003h.005c.084-.01.18-.034.283-.068.106-.036.226-.083.358-.142.264-.116.583-.277.95-.472.736-.389 1.672-.915 2.762-1.495a60.602 60.602 0 0 1 3.682-1.818c2.708-1.214 5.807-2.296 8.948-2.627 3.13-.33 6.255.09 9.101 1.823.176.11.365.219.564.328.712.393 1.594.792 2.546 1.209 1.223.536 2.574 1.107 3.883 1.746 1.307.638 2.568 1.344 3.596 2.14.206.16.402.323.587.49.745.671 1.249 1.426 1.533 2.18a.25.25 0 0 0 .468-.176c-.32-.848-.94-1.61-1.652-2.362-.18-.19-.369-.377-.567-.563-.99-.927-2.196-1.807-3.452-2.617a59.772 59.772 0 0 0-3.733-2.188c-.917-.5-1.755-.942-2.42-1.302-.186-.101-.356-.195-.512-.285-3.255-1.94-6.777-2.28-10.114-1.807-3.329.473-6.518 1.76-9.2 3.128a54.486 54.486 0 0 0-3.633 2.046c-1.06.648-1.968 1.24-2.66 1.68-.349.22-.642.403-.88.539-.119.068-.22.123-.308.165a1.57 1.57 0 0 1-.197.083h-.002c-.024.008-.037.01-.045.012s-.003.001.008.008a.09.09 0 0 1 .033.034c.007.013.007.02.008.015a.48.48 0 0 1 .042-.131c.03-.074.079-.168.146-.286a.185.185 0 0 0-.323-.183z"/>
        <path d="M174.7 13.43c.387.37.89.678 1.388 1.073a30.762 30.762 0 0 0 2.602 1.85c1.51.96 3.245 1.877 5.043 2.516.13.047.261.092.392.136a31.37 31.37 0 0 1 4.841 2.07c.84.453 1.57.906 2.131 1.317.372.273.604.588.802.796a.25.25 0 0 0 .363-.344c-.205-.215-.52-.456-.823-.816a27.055 27.055 0 0 0-1.746-1.929c-1.185-1.17-2.795-2.445-4.83-3.193a35.168 35.168 0 0 0-.383-.138c-1.762-.627-3.598-1.079-5.248-1.583-1.062-.325-2.05-.673-2.871-1.101-.547-.285-.959-.675-1.315-1.015a.25.25 0 0 0-.346.361zM181.078 19.905c-.09-.118-.122-.347-.257-.357a11.9 11.9 0 0 1-1.952-.334c-.754-.184-1.284-.33-1.998-.416a9.065 9.065 0 0 0-2.673.093c-1.155.2-2.413.6-3.834 1.196-1.458.612-2.55 1.216-3.432 1.866-.748.551-1.265 1.068-1.83 1.69-.381.418-.875.993-1.554 1.554-.577.476-1.433 1.074-2.889 1.794-.105.052.054.136.081.203.027.068-.033.238.08.203 1.573-.481 2.584-.864 3.338-1.188.901-.388 1.615-.776 2.126-1.049a40.34 40.34 0 0 1 1.985-1.008c.804-.38 1.873-.855 3.201-1.4 1.318-.541 2.46-.98 3.367-1.288.738-.25 1.415-.45 2.088-.59.593-.122 1.052-.177 1.862-.27a25.73 25.73 0 0 0 2.079-.309c.141-.027.142-.26.212-.39zM173.887 27.088c.455.108.985.273 1.563.486.669.246 1.358.54 2.028.86a27.605 27.605 0 0 1 4.533 2.714c1.408 1.162 2.128 1.991 3.055 2.657.708.509 2.171 1.386 4.128 2.039 1.544.572 3.212.85 5.123 1 .653.05 1.283.083 1.78.118.239.017.4.03.57.047.162.016.225.023.318.025a.432.432 0 0 0 .7-.507 1.661 1.661 0 0 0-.423-.58 4.088 4.088 0 0 0-.64-.475c-.5-.308-1.155-.615-1.715-.876-1.806-.845-2.868-1.386-3.884-2.198-1.322-1.135-2.02-1.994-2.893-2.678-.71-.556-2.094-1.452-4.076-2.22a28.331 28.331 0 0 0-5.721-1.75 18.885 18.885 0 0 0-2.468-.312c-.693-.037-1.383-.02-1.978.085a.782.782 0 0 0 0 1.565z"/>
    </g>
    <g>
        <path fill="url(#radialGradient1010)" d="M217.367 129.06s1.854 9.376 3.642 16.415c1.456 5.771 2.082 11.729 5.679 13.328 6.356 2.812 15.817 2.915 15.813-3.917-.002-2.728-2.913-7.598-3.455-12.346-.416-3.588-1.853-16.768-4.54-27.267-2.935-11.458-5.774-11.617-6.44-14.143-1.02-3.906.292-7.916-1.166-12.327-4.444-13.526-10.281-29.137-15.844-41.204-2.924-6.348-8.591-11.339-11.634-16.341-3.038-5.021-9.528-13.494-13.361-17.031-.629-.584-1.38.724-1.826.336-1.415-1.249-6.195-4.243-11.417-5.133-7.274-1.243-12.12 1.56-15.979 1.333-4.227-.254-5.403-1.482-8.885-1.867-7.744-.868-16.274-.977-19.977-.978-5.373 0-13.255.529-26.912 1.333-3.859.228-3.059-2.232-7.282-1.687-5.245.676-12.833 3.95-19.004 6.927 0 0-1.596-1.152-3.019.09-3.176 2.783-11.64 10.855-15.188 16.694-3.035 5.002-8.709 10-11.633 16.341C39.376 59.683 33.54 75.294 29.095 88.82c-1.443 4.412-.139 8.421-1.166 12.327-.667 2.533-3.499 2.686-6.439 14.146-2.688 10.496-4.111 23.671-4.527 27.259-.549 4.748-3.46 9.618-3.462 12.347-.004 6.831 9.463 6.729 15.805 3.916 3.604-1.598 4.223-7.557 5.686-13.328 1.788-7.039 4.794-17.497 4.794-17.497l3.332-2.396 4.859-2.602 11.995-.667 10.454 1.667 55.684-.528 63.549 1.327 17.979-1.729 4.727 1.798z"/>
        <path fill="none" stroke="#000" stroke-miterlimit="10" d="M217.367 129.06s1.854 9.376 3.642 16.415c1.456 5.771 2.082 11.73 5.679 13.328 6.356 2.812 15.817 2.915 15.813-3.917-.002-2.728-2.913-7.598-3.455-12.346-.416-3.588-1.853-16.768-4.54-27.267-2.935-11.458-5.774-11.617-6.44-14.143-1.02-3.906.292-7.916-1.166-12.327-4.444-13.526-10.281-29.137-15.844-41.204-2.924-6.348-8.591-11.339-11.634-16.34-3.038-5.022-9.528-13.495-13.361-17.032-.629-.584-1.38.724-1.826.336-1.415-1.249-6.195-4.243-11.417-5.133-7.274-1.243-12.12 1.56-15.979 1.333-4.227-.254-5.403-1.482-8.885-1.867-7.744-.868-16.274-.977-19.977-.978-5.373 0-13.255.53-26.912 1.333-3.859.228-3.059-2.232-7.282-1.687-5.245.676-12.833 3.95-19.004 6.927 0 0-1.596-1.152-3.019.09-3.176 2.783-11.64 10.855-15.188 16.694-3.035 5.002-8.709 10-11.633 16.341C39.376 59.683 33.54 75.294 29.095 88.82c-1.443 4.412-.139 8.421-1.166 12.327-.667 2.533-3.499 2.686-6.439 14.146-2.688 10.496-4.111 23.671-4.527 27.26-.549 4.747-3.46 9.617-3.462 12.346-.004 6.831 9.463 6.73 15.805 3.916 3.604-1.598 4.223-7.557 5.686-13.328 1.788-7.039 4.794-17.497 4.794-17.497l3.332-2.396 4.859-2.602 11.995-.667 10.454 1.667 55.684-.528 63.549 1.327 17.979-1.729 4.727 1.798z"/>
        <path fill="#f55" stroke="#000" stroke-miterlimit="10" d="M82.683 123.597c-5.759-.042-10.671-1.785-16.521-2.27-7.215-.589-15.089.152-18.52 1.201-4.971 1.528-9.029 5.785-13.541 9.461-2.382 1.945-5.833 2.491-7.546 5.067-2.623 3.914-1.603 9.496-4.533 13.675-3.125 4.452-7.4 4.97-7.415 6.566-.05 4.803 7.028 4.542 9.546 3.291 2.666-1.333 1.675-2.639 3.29-5.957.85-1.76 2.864-4.155 4.082-6.83 1.421-3.12 1.626-7.727 3.02-11.023 2.681-6.315 6.896-10.924 12.431-12.785 3.628-1.22 11.91-1.262 19.054-.265 2.914.41 3.386 2.211 6.795 2.264 2.765.047 4.295-1.213 7.191-1.2 11.081.055 30.114.714 48.401.714 18.522.001 36.286-.658 47.509-.714 2.896-.013 4.427 1.247 7.192 1.2 3.416-.054 11.035 1.075 13.949.667 7.145-.995 8.279-3.886 11.9-2.666 5.542 1.861 9.757 6.47 12.437 12.785 1.395 3.297 1.599 7.903 3.013 11.023 1.225 2.675 3.239 5.07 4.082 6.83 1.622 3.318.625 4.624 3.29 5.957 2.519 1.251 9.596 1.512 9.553-3.29-.015-1.599-1.361-4.337-4.486-8.788-2.93-4.179-6.359-7.012-8.968-10.926-1.72-2.576-3.664-3.65-6.038-5.596-4.52-3.677-8.578-7.934-13.549-9.46-3.424-1.049-9.178.341-16.386.937-5.85.478-12.896.09-18.654.131-11.671.072-28.353-1.199-45.286-1.2-16.752 0-33.745 1.272-45.292 1.201z"/>
        <path fill="none" stroke="#000" stroke-miterlimit="10" d="M74.778 14.491c-3.923.265 5.25 6.202 3.482 8.975-1.353 2.124-2.664 5.7-1.887 7.545.229.545 1.486 2.574 1.777 5.241.297 2.661-.339 5.957-.173 9.947.089 2.336-.208 4.43-.118 7.106.063 2.004.715 4.083.784 6.215.181 5.908-.213 12.215 0 18.382.236 6.9 1.011 13.457 1.284 19.271.454 9.552.387 16.802.444 18.118.214 4.64 2.311 8.306 2.311 8.306"/>
        <g>
            <g fill="none" stroke="#000" stroke-miterlimit="10" stroke-width=".75">
                <path d="M70.604 15.617l.29.403"/>
                <path stroke-dasharray="1.0039,1.0039" d="M71.477 16.834c1.206 1.681 3.303 4.604 3.924 5.472.888 1.242-1.605 2.666-2.403 7.101-.797 4.442.889 6.13 1.514 9.684.618 3.554-.992 12.08-.722 16.167.072 1.04 1.123 5.745 1.61 12.342.584 7.978.637 18.687 1.062 28.51.525 12.244.088 23.252 1.216 26.342"/>
                <path d="M77.892 122.91c.104.17.219.287.345.35"/>
            </g>
        </g>
        <path fill="none" stroke="#000" stroke-miterlimit="10" d="M184.926 14.422s-1.894 2.29-1.088 3.088c.791.798 3.296 1.07 3.031 3.998-.264 2.93-3.211 5.595-2.143 7.817 1.056 2.214 2.568 2.131 2.568 4.171 0 1.334.74 38.28.264 64.482-.253 13.931 1.333 23.622-2.305 25.728"/>
        <g>
            <g fill="none" stroke="#000" stroke-miterlimit="10" stroke-width=".75">
                <path d="M189.098 17.408s-.22.05-.443.222"/>
                <path stroke-dasharray=".9933,.9933" d="M188.194 18.483c-.023.222-.002.487.086.804.444 1.596 2.065 1.845 1.764 4.526-.191 1.874-2.23 4.386-1.866 6.483.269 1.594 3.78 3.902 3.901 5.512.046.693-1.384 2.235-1.313 6.567.102 7.854.82 21.274.889 39.345.017 5.34-.602 10.803-.625 15.724-.062 12.726 2.286 21.488.144 25.31"/>
                <path d="M190.906 123.17a3.77 3.77 0 0 1-.316.382"/>
            </g>
        </g>
        <path fill="#ff2a2a" stroke="#000" stroke-miterlimit="10" stroke-width=".5" d="M42.543 131.477l-11.106 7.08s-3.624 1.026-1.763-4.062l3.442-1.81 11.507-8.863z"/>
        <path fill="#ff2a2a" stroke="#000" stroke-miterlimit="10" stroke-width=".5" d="M37.968 128.705c1.111 2.884 6.655 5.424 6.655-4.883l-1.417 1.096s.349 5.655-2.053 5.738c-2.395.083-2.345-2.665-2.345-2.665zM82.013 123.584s-1.642 5.38.67 5.92c2.306.527 23.651-1.147 23.651-1.147l1.22-1.147 1.305-4.408z"/>
        <path fill="#ff2a2a" stroke="#000" stroke-miterlimit="10" stroke-width=".5" d="M109.254 122.801s-1.617 6.006-3.574 5.556c-1.95-.452.443-5.438.443-5.438l1.194-.05s-2.67 4.364-1.367 5.122c.617.365 2.225-5.153 2.225-5.153zM184.283 123.707s3.818 2.243.708 4.284H162.14l.347-4.589z"/>
        <path fill="#ff2a2a" stroke="#000" stroke-miterlimit="10" stroke-width=".5" d="M159.32 123.29s2.476 10.358 3.916.416z"/>
        <path fill="#faa" fill-rule="evenodd" d="M133.6 62.645l-5.973 17.153 14.9-10.63-18.056-.035 15.07 10.695z"/>
    </g>
    <g>
        <path fill="#414042" stroke="#000" stroke-miterlimit="10" d="M27.375 88.003s-2.592-.398-3.003 1.157c-.404 1.555 3.647 2.951 3.647 2.951l3.908-23.278s-6.218 3.605-5.553 4.806c.666 1.201 2.771 2.617 2.771 2.617z"/>
        <path fill="#ffb380" d="M38.657 62.386c2.789-.792 6.041-.734 8.057 1.216 2.839 2.756.786 8.545 1.422 18.117.972 14.744.237 21.473-1.604 27.622-.655 2.216-.933 3.797-2.484 4.088-3.637.676-11.535-.138-13.585-1.605-4.622-3.282-.29-11.608-6.313-14.588-1.179-.583-.396-7.72.223-8.076.624-.355 2.627 1.445 2.627 1.445l2.398-16.474s-2.72.546-3.024-.492c-.103-.352 1.24-6.622 2.403-7.552 2.057-1.639 9.88-3.7 9.88-3.7z"/>
        <path fill="url(#linearGradient1021)" stroke="#000" stroke-miterlimit="10" d="M38.657 62.386c2.789-.792 6.041-.734 8.057 1.216 2.839 2.756.786 8.545 1.422 18.117.972 14.744.237 21.473-1.604 27.622-.655 2.216-.933 3.797-2.484 4.088-3.637.676-11.535-.138-13.585-1.605-4.622-3.282-.29-11.608-6.313-14.588-1.179-.583-.396-7.72.223-8.076.624-.355 2.627 1.445 2.627 1.445l2.398-16.474s-2.72.546-3.024-.492c-.103-.352 1.24-6.622 2.403-7.552 2.057-1.639 9.88-3.701 9.88-3.701z"/>
        <path fill="#ff7f2a" stroke="#000" stroke-miterlimit="10" stroke-width=".5" d="M24.244 92.464l.979.715s-.109 3.581-.332 3.727c-.223.146-.694-.05-1.001-1.893-.307-1.836.354-2.549.354-2.549zM28.019 70.972l.889-.222s.118-1.428.354-2.575c.139-.685.576-1.245.354-1.423-.839-.665-1.597 4.22-1.597 4.22z"/>
        <path fill="#f95" stroke="#000" stroke-miterlimit="10" d="M38.722 89.142s-3.291-1.735-5.998-.714c-2.707 1.021-4.754 2.163-5.15 8.516-.402 6.36-.589 7.3 3.574 7.741 4.164.441 7.574.577 7.574.577z"/>
        <path fill="#f95" stroke="#000" stroke-miterlimit="10" d="M38.722 89.497s-6.791-.323-7.511 8.08c-.529 6.272 2.198 7.388 4.533 7.594 1.551.134 2.978.09 2.978.09z"/>
        <path fill="#fd5" stroke="#000" stroke-miterlimit="10" stroke-width=".5" d="M36.851 91.583l-1.196-.315-1.665 13.186h.944s1.789-1.192 2.538-6.079c.757-4.88-.621-6.792-.621-6.792z"/>
        <path fill="#ffe680" stroke="#000" stroke-miterlimit="10" stroke-width=".5" d="M35.3 91.273c3.073-.755 1.075 14.047-1.687 13.051-3.818-1.375-3.2-11.86 1.687-13.05z"/>
        <path fill="#ffd42a" stroke="#000" stroke-miterlimit="10" stroke-width=".5" d="M36.055 92.828l.224.93s-1.944.62-3.229 2.09c-1.293 1.463-1.643 2.63-1.893 2.714-.25.083.22-1.619.22-1.619s.233-1.06 1.48-2.239c1.247-1.174 3.198-1.876 3.198-1.876z"/>
        <path fill="#414042" stroke="#000" stroke-miterlimit="10" d="M230.925 88.003s2.599-.398 3.01 1.157c.412 1.555-3.653 2.951-3.653 2.951l-3.901-23.278s6.219 3.605 5.553 4.806c-.665 1.201-2.776 2.617-2.776 2.617z"/>
        <path fill="#ffb380" d="M219.65 62.386c-2.796-.792-6.042-.734-8.058 1.216-2.846 2.756-.792 8.545-1.429 18.117-.972 14.744-.238 21.473 1.61 27.622.662 2.216.934 3.797 2.484 4.088 3.637.676 11.528-.138 13.579-1.605 4.621-3.282.296-11.608 6.319-14.588 1.179-.583.389-7.72-.223-8.076-.624-.355-2.627 1.445-2.627 1.445L228.9 74.131s2.72.546 3.03-.492c.096-.352-1.247-6.622-2.403-7.552-2.053-1.639-9.877-3.7-9.877-3.7z"/>
        <path fill="url(#linearGradient1044)" stroke="#000" stroke-miterlimit="10" d="M219.65 62.386c-2.796-.792-6.042-.734-8.058 1.216-2.846 2.756-.792 8.545-1.429 18.117-.972 14.744-.238 21.473 1.61 27.622.662 2.216.934 3.797 2.484 4.088 3.637.676 11.528-.138 13.579-1.605 4.621-3.282.296-11.608 6.319-14.588 1.179-.583.389-7.72-.223-8.076-.624-.355-2.627 1.445-2.627 1.445L228.9 74.131s2.72.546 3.03-.492c.096-.352-1.247-6.622-2.403-7.552-2.053-1.639-9.877-3.701-9.877-3.701z"/>
        <path fill="#ff7f2a" stroke="#000" stroke-miterlimit="10" stroke-width=".5" d="M234.056 92.464l-.972.715s.104 3.581.326 3.727c.222.146.693-.05 1.007-1.893.301-1.836-.361-2.549-.361-2.549zM230.281 70.972l-.889-.222s-.111-1.428-.347-2.575c-.146-.685-.583-1.245-.361-1.423.845-.665 1.597 4.22 1.597 4.22z"/>
        <path fill="#f95" stroke="#000" stroke-miterlimit="10" d="M219.592 89.142s3.277-1.735 5.984-.714c2.706 1.021 4.761 2.163 5.15 8.516.402 6.36.597 7.3-3.573 7.741-4.157.441-7.562.577-7.562.577v-16.12z"/>
        <path fill="#f95" stroke="#000" stroke-miterlimit="10" d="M219.592 89.497s6.784-.323 7.497 8.08c.529 6.272-2.197 7.388-4.526 7.594-1.55.134-2.971.09-2.971.09z"/>
        <path fill="#fd5" stroke="#000" stroke-miterlimit="10" stroke-width=".5" d="M221.456 91.583l1.188-.315 1.673 13.186h-.952s-1.787-1.192-2.538-6.079c-.748-4.88.629-6.792.629-6.792z"/>
        <path fill="#ffe680" stroke="#000" stroke-miterlimit="10" stroke-width=".5" d="M223.007 91.273c-3.08-.755-1.075 14.047 1.68 13.051 3.818-1.375 3.207-11.86-1.68-13.05z"/>
        <path fill="#ffd42a" stroke="#000" stroke-miterlimit="10" stroke-width=".5" d="M222.246 92.828l-.225.93s1.944.62 3.237 2.09c1.292 1.463 1.636 2.63 1.886 2.714.249.083-.221-1.619-.221-1.619s-.232-1.06-1.473-2.239c-1.254-1.174-3.204-1.876-3.204-1.876z"/>
    </g>
    <g>
        <path fill="#ff7f2a" d="M137.146 44.544l2.229-2.627 3.868-.1 2.445 4.46-.334-6.849h-23.778l-.378 6.55 1.885-4.485h3.75l3.042 3.215z"/>
        <path fill="#ff7f2a" stroke="#000" stroke-miterlimit="10" d="M163.086 65.112s2.973-1.11 3.514-.715c.528.403 5.72 3.818 5.595 5.331-.139 1.507-3.693 3.644-3.249 6.081.445 2.443 1.917 3.866 3.251 6.442 1.202 2.332 1.192 1.555 1.192 1.555l1.249-15.979-5.165-5.56-6.387.353zM103.575 65.112s-2.978-1.11-3.513-.715c-.534.403-5.727 3.818-5.595 5.331.132 1.507 3.687 3.644 3.242 6.081-.445 2.443-1.909 3.866-3.245 6.442-1.209 2.332-1.198 1.555-1.198 1.555l-1.243-15.979 5.151-5.56 6.4.353v2.492z"/>
        <path fill="none" stroke="#000" stroke-miterlimit="10" d="M133.275 47.595s10.547-.418 11.426-.974c1.097-.692-.438-3.199-1.072-4.419-.631-1.212-4.294-.635-4.634 0-.091.18-1.347 1.94-2.062 2.231-.5.204-6.706.204-7.206 0-.722-.292-1.97-2.05-2.068-2.23-.333-.636-4.003-1.213-4.626 0-.635 1.22-2.169 3.727-1.073 4.418.88.556 11.426.974 11.426.974"/>
        <path fill="#ffb380" d="M134.268 26.65c3.099.001 6.633 3.26 10.121 6.353 3.779 3.333 6.834 6.425 6.834 6.425l.23 3.786s10.967 11.9 12.563 12.477c1.597.583 2.89.096 2.89.096l12.604 12.74c3.646 4.102 5.744 6.56 5.152 10.527-.85 5.837-6.703 6.348-12.078 11.946-4.175 4.36-7.392 9.704-8.565 12.211-1.026 2.181-8.128 6.895-16.569 5.562-.794-.124-1.146-1.208-1.146-1.208l-1.735.271-.443-.577H122.53l-.444.577-1.728-.27s-.365 1.082-1.152 1.207c-8.434 1.333-15.549-3.38-16.569-5.562-1.174-2.507-4.383-7.852-8.565-12.21-5.381-5.6-11.222-6.11-12.078-11.947-.591-3.967 1.512-6.425 5.152-10.527l12.604-12.74s1.294.487 2.891-.096c1.604-.576 12.569-12.477 12.569-12.477l.23-3.786s3.049-3.092 6.828-6.425c3.495-3.094 7.029-6.352 10.126-6.354zm-16.312 27.672c0 2.485.18 44.721.18 44.721h30.39s.18-42.236.18-44.72c0-2.486-30.75-2.486-30.75 0zm27.615-8.087c.93.063-.806-4.866-1.333-5.262-.541-.402-4.464-1.13-5.13-.333-.666.798-1.472 2.193-2.2 2.86l-6.792.166c-.729-.666-1.526-2.068-2.193-2.867-.667-.799-4.595-.063-5.13.333-.527.402-2.263 5.331-1.326 5.261.931-.06 23.16-.227 24.104-.158zm-51.755 23.2c0 1.002 3.454 2.542 3.498 5.313.036 2.7-3.313 5.837-3.332 6.302-.075 1.762 1.565 2.753 2.616 3.818 1.313 1.332 2.172 2.533 2.93 2.533 1.381 0 4.13-.576 5.019-1.95.889-1.382-1.333-21.187-1.687-21.805-.354-.625-2.353-.936-3.151-.625-.799.312-5.893 5.194-5.893 6.414zm73.129-6.413c-.791-.312-2.789 0-3.149.625-.362.618-2.57 20.422-1.681 21.804.875 1.375 3.638 1.951 5.013 1.951.757 0 1.615-1.202 2.929-2.533 1.058-1.065 2.691-2.056 2.623-3.818-.018-.465-3.367-3.604-3.332-6.302.037-2.77 3.484-4.31 3.484-5.313 0-1.22-5.081-6.103-5.887-6.414z"/>
        <path fill="url(#linearGradient1075)" stroke="#000" stroke-miterlimit="10" d="M134.268 26.649c3.099.002 6.633 3.26 10.121 6.354a153.46 153.46 0 0 1 6.834 6.425l.23 3.786s10.967 11.9 12.563 12.477c1.597.583 2.89.096 2.89.096l12.604 12.74c3.646 4.102 5.744 6.56 5.152 10.527-.85 5.837-6.703 6.348-12.078 11.946-4.175 4.359-7.392 9.704-8.565 12.211-1.026 2.181-8.128 6.895-16.569 5.562-.794-.124-1.146-1.208-1.146-1.208l-1.735.271-.443-.577H122.53l-.444.577-1.728-.271s-.365 1.083-1.152 1.208c-8.434 1.333-15.549-3.381-16.569-5.562-1.174-2.507-4.383-7.852-8.565-12.211-5.381-5.599-11.222-6.109-12.078-11.946-.591-3.967 1.512-6.425 5.152-10.527l12.604-12.74s1.294.487 2.891-.096c1.604-.576 12.569-12.477 12.569-12.477l.23-3.786s3.049-3.092 6.828-6.425c3.495-3.094 7.029-6.352 10.126-6.354zm-16.312 27.673c0 2.485.18 44.721.18 44.721h30.39s.18-42.236.18-44.721c0-2.485-30.75-2.485-30.75 0zm27.615-8.087c.93.063-.806-4.866-1.333-5.262-.541-.402-4.464-1.131-5.13-.333-.666.798-1.472 2.193-2.2 2.86l-6.792.166c-.729-.666-1.526-2.068-2.193-2.867-.667-.799-4.595-.063-5.13.333-.527.402-2.263 5.331-1.326 5.261.931-.061 23.16-.227 24.104-.158zm-51.755 23.2c0 1.002 3.454 2.542 3.498 5.313.036 2.699-3.313 5.837-3.332 6.302-.075 1.762 1.565 2.753 2.616 3.818 1.313 1.332 2.172 2.533 2.93 2.533 1.381 0 4.13-.576 5.019-1.951.889-1.381-1.333-21.186-1.687-21.804-.354-.625-2.353-.936-3.151-.625-.799.312-5.893 5.194-5.893 6.414zm73.129-6.413c-.791-.312-2.789 0-3.149.625-.362.618-2.57 20.422-1.681 21.804.875 1.375 3.638 1.951 5.013 1.951.757 0 1.615-1.202 2.929-2.533 1.058-1.065 2.691-2.056 2.623-3.818-.018-.465-3.367-3.604-3.332-6.302.037-2.771 3.484-4.311 3.484-5.313 0-1.221-5.081-6.103-5.887-6.414z"/>
        <path fill="#f95" stroke="#000" stroke-miterlimit="10" d="M95.134 89.581s8.711-2.642 10.836-4.31c.794-.626.042-22.736-2.09-24.422l-9.406.27 9.101 1.501c.618 1.248 2.127 22.846 2.127 22.846l-3.752 1.77zM171.528 89.581s-8.712-2.642-10.844-4.31c-.786-.626-.041-22.736 2.097-24.422l9.406.27-9.102 1.501c-.623 1.248-2.134 22.846-2.134 22.846l3.752 1.77z"/>
        <path fill="none" stroke="#000" stroke-miterlimit="10" stroke-width=".5" d="M143.194 32.376s3.197 12.487 3.162 13.553c-.006.194-.938.412-2.665.465-3.476.115-17.246.115-20.728 0-1.72-.053-2.659-.27-2.665-.465-.036-1.066 3.162-13.553 3.162-13.553"/>
        <path fill="none" stroke="#000" stroke-miterlimit="10" stroke-width=".5" d="M158.74 52.624s-1.487-3.976-7.348-5.33c-5.874-1.356-30.256-1.356-36.124 0-5.861 1.354-7.361 5.33-7.361 5.33"/>
        <path fill="none" stroke="#000" stroke-miterlimit="10" stroke-width=".5" d="M109.745 101.84c-1.787-.034-4.534-8.969-4.534-9.635 0-.847 1.345-6.406 2.798-6.352.656.024 4.223.576 4.223-.667 0-1.243.441-29.125.441-31.79 0-2.667 41.309-2.667 41.309 0 0 2.665.442 30.548.442 31.79 0 1.242 3.566.691 4.222.667 1.461-.054 2.805 5.505 2.805 6.352 0 .667-2.753 9.602-4.54 9.634-2.264.048-44.904.048-47.166 0z"/>
        <path fill="none" stroke="#000" stroke-miterlimit="10" stroke-width=".5" d="M184.134 75.191s2.082 5.397-7.511 10.795c-12.214 6.885-12.093 13.964-14.467 16.258-4.44 4.263-53.21 4.263-57.651 0-2.381-2.293-2.252-9.373-14.481-16.258-9.585-5.397-7.503-10.795-7.503-10.795"/>
        <path fill="#ffe680" stroke="#000" stroke-miterlimit="10" d="M93.816 76.06c0 2.998-2.148 5.435-4.804 5.435-2.648 0-4.803-2.437-4.803-5.436 0-3.005 2.155-5.442 4.803-5.442 2.655 0 4.804 2.436 4.804 5.442z"/>
        <path fill="#fd5" stroke="#000" stroke-miterlimit="10" d="M90.47 75.191c0 1.367-1.027 2.476-2.295 2.476-1.273 0-2.301-1.109-2.301-2.476 0-1.366 1.027-2.476 2.301-2.476 1.268 0 2.295 1.11 2.295 2.476z"/>
        <path fill="#ffd42a" stroke="#000" stroke-miterlimit="10" d="M89.839 75.698c0 .761-.595 1.381-1.319 1.381-.731 0-1.319-.62-1.319-1.38 0-.756.588-1.376 1.319-1.376.724 0 1.319.62 1.319 1.375z"/>
        <path fill="#ffe680" stroke="#000" stroke-miterlimit="10" d="M172.832 76.06c0 2.998 2.155 5.435 4.811 5.435 2.654 0 4.796-2.437 4.796-5.436 0-3.005-2.142-5.442-4.796-5.442-2.656 0-4.811 2.436-4.811 5.442z"/>
        <path fill="#fd5" stroke="#000" stroke-miterlimit="10" d="M176.178 75.191c0 1.367 1.034 2.476 2.309 2.476 1.259 0 2.294-1.109 2.294-2.476 0-1.366-1.035-2.476-2.294-2.476-1.275 0-2.309 1.11-2.309 2.476z"/>
        <path fill="#ffd42a" stroke="#000" stroke-miterlimit="10" d="M176.816 75.698c0 .761.594 1.381 1.319 1.381.724 0 1.318-.62 1.318-1.38 0-.756-.595-1.376-1.318-1.376-.725 0-1.319.62-1.319 1.375z"/>
        <path fill="#ffe680" stroke="#000" stroke-miterlimit="10" d="M138.654 30.488c0 2.313-2.425 4.182-5.424 4.182-2.984 0-5.409-1.868-5.409-4.182 0-2.315 2.425-4.183 5.409-4.183 2.999 0 5.424 1.868 5.424 4.183z"/>
        <path fill="#fd5" stroke="#000" stroke-miterlimit="10" d="M135.772 29.054c0 1.047-1.094 1.888-2.441 1.888-1.349 0-2.442-.84-2.442-1.888 0-1.04 1.094-1.888 2.442-1.888s2.441.848 2.441 1.888z"/>
        <path fill="#ffd42a" stroke="#000" stroke-miterlimit="10" d="M134.344 29.452c0 .474-.495.856-1.113.856-.604 0-1.113-.382-1.113-.856s.51-.862 1.113-.862c.618 0 1.113.388 1.113.862z"/>
    </g>
    <g fill="#414042" stroke="#000" stroke-miterlimit="10">
        <path d="M48.448 102.856c-.909.134-8.037 1.291-7.804 3.98.178 2.1 5.625 2.06 5.625 2.06s-.571-.539 3.675-1.602c.973-.243 3.616-1.662 7.201-2.572 8.513-2.162 21.593-5.383 28.863-7.018 3.061-.686 5.464-.976 5.464-.976l-.708-4.79s-17.413 3.992-29.975 7.321c-6.935 1.843-12.026 3.552-12.341 3.597zM209.559 102.856c.901.134 8.037 1.291 7.804 3.98-.186 2.1-5.64 2.06-5.64 2.06s.578-.539-3.668-1.602c-.965-.243-3.615-1.662-7.201-2.572-8.513-2.162-21.6-5.383-28.862-7.018a61.4 61.4 0 0 0-5.471-.976l.708-4.79s17.413 3.992 29.975 7.321c6.935 1.843 12.026 3.552 12.355 3.597zM123.62 87.717c1.152.444.264 5.282-2.089 6.435-2.354 1.16.929-6.88 2.089-6.435z"/>
        <path d="M183.364 94.19s.478.936.167 2.797c-.3 1.854-.892 2.971-.892 2.971l-15.893-2.638c-2.013 1.896-10.841 1.406-13.061.698-.433-.136-.644-.173-1.006-.899-.271-.556-.344-3.343.045-5.928.427-2.972-.815-6.119 1.52-5.998 1.827.096.712.604 2.076.767.904.11 4.394 1.622 5.595 1.74 1.628.16 2.277 1.07 3.488 1.755 1.223.692 2.437 1.152 3.099 1.767z"/>
        <path d="M154.173 85.516c-1.151.444-1.405 9.325-.825 9.503 1.103.341 1.352-2.947 1.354-5.748 0-2.115-.035-3.948-.529-3.755zM123.11 87.7s1.735.725 2.867.856c1.131.14 14.599-2.717 14.182 1.841-.295 3.282-4.062 3.867-10.121 3.917-2.594.02-3.134-.232-3.13-.993.005-1.08.12-1.29 2.026-1.358 2.522-.099 9.401-.63 8.604-1.566-.188-.218-5.138.45-9.166.585-4.021.135-7.191-1.093-7.191-1.093z"/>
        <path d="M154.701 88.091s-16.678-6.62-17.164 2.306l-2.793.607c.04-13.109 19.853-5.237 19.853-5.237zM138.527 93.003s6.76.853 6.982 1.313c.223.46.277 1.925 0 2.237-.265.312-8.485.48-9.624-2.647zM90.762 91.493s-.478.936-.18 2.797c.305 1.854.891 2.971.891 2.971l15.615-1.687c2.013 1.896 11.294 2.402 13.516 1.687.432-.136.309-1.669.665-2.394.27-.556 1.097-.265 1.062-.798-.132-2.396-1.703-5.014 1.394-5.83 1.751-.469-1.206-1.442-3.699-2.077-.93-.234-.273-.528-1.464-.576-4.225-.18-9.609 1.213-12.257 3.686z"/>
    </g>
</svg>
