<svg xmlns="http://www.w3.org/2000/svg" xmlns:xlink="http://www.w3.org/1999/xlink" viewBox="0 0 256 256">
    <defs>
        <linearGradient id="innoGrad2">
            <stop offset="0" stop-color="#ff2a2a" stop-opacity="0"/>
            <stop offset=".5" stop-color="#ff2a2a" stop-opacity=".502"/>
            <stop offset="1" stop-color="#ff2a2a" stop-opacity="0"/>
        </linearGradient>
        <linearGradient id="innoGrad1">
            <stop offset="0" stop-color="#ff7f2a" stop-opacity=".502"/>
            <stop offset=".2" stop-color="#f95" stop-opacity="0"/>
            <stop offset=".8" stop-color="#ff8b3f" stop-opacity="0"/>
            <stop offset="1" stop-color="#ff7f2a" stop-opacity=".502"/>
        </linearGradient>
        <linearGradient id="linearGradient905" x1="55.069" x2="200.933" y1="137.622" y2="137.622" gradientUnits="userSpaceOnUse" xlink:href="#innoGrad1"/>
        <linearGradient id="linearGradient941" x1="40.333" x2="101.486" y1="93.566" y2="108.715" gradientUnits="userSpaceOnUse" xlink:href="#innoGrad2"/>
        <linearGradient id="linearGradient970" x1="154.131" x2="215.091" y1="105.455" y2="92.799" gradientUnits="userSpaceOnUse" xlink:href="#innoGrad2"/>
    </defs>
    <g>
        <path fill="#ff7f2a" stroke="#231f20" stroke-linejoin="round" stroke-miterlimit="10" stroke-width="1.06504" d="M147.437 11.17l6.79 7.189-26.309 50.456-25.367-49.964 6.545-7.681z"/>
        <path fill="#ff8080" stroke="#231f20" stroke-linejoin="round" stroke-miterlimit="10" stroke-width="1.06504" d="M106.855 7.507s.082-1.795 21.145-1.795 21.145 1.795 21.145 1.795l5.082 10.852s-3.377-3.055-26.145-2.929c-22.768.126-25.531 3.42-25.531 3.42z"/>
        <path fill="url(#linearGradient905)" stroke="#231f20" stroke-miterlimit="10" d="M128 58l-26.631-25.333-9.536 2.927L64 52l-8.333 53 16.958-2.25 1.813-3.922s4.344 22.419 4.812 48.922c.468 26.503-3.335 76.119-3.25 84 .157 14.521 103.843 14.524 104 0 .085-7.881-3.719-57.497-3.25-84 .469-26.503 4.813-48.922 4.813-48.922l1.813 3.922 16.959 2.25L192 52l-27.833-16.407-9.536-2.927z" transform="matrix(1.06504 0 0 1.06504 -8.325 -8.134)"/>
        <g>
            <g fill="none" stroke="#231f20" stroke-miterlimit="10" stroke-width=".5">
                <path stroke-width=".53252" d="M70.955 97.121s-.016-.17-.07-.522"/>
                <path stroke-dasharray="1.0104,1.0104" stroke-width=".53252" d="M70.701 95.541c-.355-1.847-1.181-5.378-3.052-10.928-1.8-5.34-2.97-7.811-3.61-8.93"/>
                <path stroke-width=".53252" d="M63.756 75.222c-.22-.331-.324-.416-.324-.416"/>
            </g>
        </g>
        <g>
            <g fill="none" stroke="#231f20" stroke-miterlimit="10" stroke-width=".5">
                <path stroke-width=".53252" d="M185.047 97.121s.016-.17.069-.522"/>
                <path stroke-dasharray="1.0104,1.0104" stroke-width=".53252" d="M185.3 95.541c.355-1.847 1.18-5.378 3.051-10.928 1.8-5.34 2.97-7.811 3.612-8.93"/>
                <path stroke-width=".53252" d="M192.244 75.222c.22-.331.324-.416.324-.416"/>
            </g>
        </g>
        <path fill="#ffb380" d="M128 53.638l-28.363-26.98-10.156 3.117-29.643 17.473-8.875 56.447 18.06-2.396 1.932-4.178S75.58 121 76.079 149.225c.499 28.227-3.551 81.07-3.46 89.463.166 15.466 110.596 15.469 110.763 0 .09-8.393-3.961-61.236-3.461-89.463.499-28.226 5.126-52.104 5.126-52.104l1.93 4.178 18.062 2.396-8.877-56.447-29.643-17.474-10.156-3.117z"/>
    </g>
    <g id="patternLayer">
        <path fill="#ff8080" d="M97.426 22.643s-30.487 12.888-35.9 16.705c-5.414 3.817-8.477 8.964-8.477 8.964s-5.617 9.404-10.385 21.37c-4.768 11.965-12.681 36.434-12.781 37.076-.467 2.996 4.086 4.345 15.976 8.52 12.515 4.392 14.883 3.837 14.883 3.837l8.281-17.816S63.3 96.773 62.5 96.107c-.799-.665.799-19.392.932-21.3.133-1.909-3.196-12.116-3.196-12.116S75.155 48.276 84.6 40.857c9.444-7.419 15.039-9.91 15.039-9.91zm61.148 0l-2.21 8.304s5.593 2.491 15.036 9.91c9.444 7.42 24.364 21.834 24.364 21.834s-3.329 10.207-3.196 12.116c.133 1.908 1.73 20.635.932 21.3-.799.666-6.523 5.192-6.523 5.192l8.28 17.816s2.37.555 14.884-3.838c11.889-4.174 16.443-5.523 15.976-8.52-.1-.641-8.013-25.11-12.781-37.075-4.768-11.966-10.385-21.37-10.385-21.37s-3.062-5.147-8.476-8.964c-5.415-3.817-35.9-16.705-35.9-16.705z"/>
    </g>
    <g>
        <path fill="#ff2a2a" fill-opacity=".251" d="M50.963 73.842c-.084.003-.095 1.78.37 4.415.215 1.222.533 2.63.996 4.132.534 1.736 1.248 3.612 2.23 5.475a46.899 46.899 0 0 0 2.623 4.362c.756 1.125 1.426 2.054 1.934 2.833l.105.162c.578.91.802 1.5.858 1.991.032.279.01.54-.062.802-.08.298-.229.616-.454.963-.274.42-.61.654-.985.785-.428.15-.952.181-1.554.105-1.249-.157-2.744-.76-4.25-1.551-1.382-.727-2.712-1.577-3.93-2.398-.91-.613-1.743-1.208-1.802-1.143-.066.075.652.816 1.477 1.557a31.507 31.507 0 0 0 3.73 2.878c1.45.943 3.053 1.77 4.54 2.066.723.144 1.503.181 2.247-.03a3.372 3.372 0 0 0 1.875-1.353c.309-.44.561-.91.712-1.418.137-.46.188-.94.132-1.448-.095-.872-.486-1.72-1.134-2.71a16.814 16.814 0 0 0-.12-.178c-.56-.834-1.306-1.747-2.115-2.784-.874-1.122-1.858-2.433-2.855-4.046a28.934 28.934 0 0 1-2.504-5.156 36.003 36.003 0 0 1-1.214-3.997c-.622-2.565-.766-4.317-.85-4.314zM53.988 62.691c-.152.002-.242 1.38-.27 2.241-.034.983-.026 2.013.03 3.11.045.904.139 2.177.326 3.739.167 1.403.526 4.01 1.183 6.49l.005.019c.88 3.312 2.196 6.011 3.364 7.817 1.152 1.782 2.18 2.651 2.31 2.544.129-.106-.496-1.24-1.436-3.052-.956-1.844-2.217-4.44-3.074-7.62l-.005-.018c-.64-2.381-1.01-4.953-1.192-6.326-.182-1.372-.354-2.951-.436-3.678a142.556 142.556 0 0 0-.373-3.06c-.113-.845-.298-2.208-.432-2.206z"/>
        <path fill="url(#linearGradient941)" stroke="#231f20" stroke-linejoin="round" stroke-miterlimit="10" d="M64.85 119.479l7.775-16.729S67.25 98.5 66.5 97.875s.75-18.208.875-20c.125-1.792-3-11.375-3-11.375S78.382 52.965 87.25 45.999c8.868-6.966 14.12-9.304 14.12-9.304l-2.077-7.797S70.668 40.999 65.585 44.583C60.502 48.167 57.625 53 57.625 53s-5.273 8.828-9.75 20.063-11.906 34.21-12 34.813c-.438 2.813 3.836 4.081 15 8 11.75 4.124 13.975 3.603 13.975 3.603z" transform="matrix(1.06504 0 0 1.06504 -8.325 -8.134)"/>
        <path fill="none" stroke="#231f20" stroke-miterlimit="10" stroke-width=".53252" d="M128 50.976l-2.519-2.407-.81 38.085H128"/>
        <path fill="#ff8080" stroke="#231f20" stroke-miterlimit="10" stroke-width="1.06504" d="M128 53.638c-.62.177-5.192-8.933-13.247-7.79-11.893 1.685-20.86 6.015-21.57 6.193-.71.177-.573-18.417 3.066-27.026 1.624-3.843 10.163-17.595 10.606-17.508.443.088-4.172 8.253.62 20.413 5.175 13.13 10.882 15.078 16.775 19.259 1.305.926 4.372 6.282 3.75 6.46z"/>
        <path fill="none" stroke="#231f20" stroke-miterlimit="10" stroke-width=".53252" d="M31.313 102.187s7.139 3.788 16.542 7.543c9.403 3.756 14.916 5.02 14.916 5.02"/>
        <path fill="#ff2a2a" d="M56.555 51.598s-4.201 6.47-4.438 7.189c-.236.718-7.653 37.298-7.653 37.298s4.81-35.258 6.498-38.453c1.688-3.195 5.593-6.034 5.593-6.034z"/>
        <path fill="#f55" stroke="#231f20" stroke-miterlimit="10" stroke-width="1.06504" d="M53.048 48.313l3.507 3.285s-4.9 4.443-5.592 6.035c-1.463 3.36-7.01 41.98-7.01 41.98l-3.64 2.575-7.722-3.916s7.848-24.132 11.874-33.33c2.577-5.89 8.583-16.629 8.583-16.629z"/>
        <path fill="#ff2a2a" stroke="#231f20" stroke-linejoin="round" stroke-miterlimit="10" stroke-width="1.06504" d="M42.443 84.79c1.686-.995 5.63-27.184 5.63-27.184l-3.27 6.577-7.226 19.663s3.18 1.94 4.866.944z"/>
        <path fill="none" stroke="#231f20" stroke-miterlimit="10" stroke-width="1.06504" d="M128 86.654V50.976"/>
        <path fill="#ff2a2a" fill-opacity=".251" d="M204.15 67.611c-.13.013-.09 1.894-.612 6.675-.593 5.417-1.704 10.213-3.398 14.955-.02.054-.04.108-.058.161-.952 2.648-1.733 4.993-2.739 6.87-3.047 5.684-6.19 7.788-6.087 7.955.1.165 3.512-1.752 7.1-7.36 1.18-1.844 2.592-4.001 3.619-6.774l.062-.168c1.713-4.703 2.665-10.25 2.748-15.562.083-5.372-.605-6.755-.635-6.752zM207.928 85.92c.147.021-.16.318-.84 1.144-.696.845-1.795 2.263-3.486 4.893l-.135.213c-1.037 1.654-1.624 3.045-2.223 4.06-1.409 2.386-1.928 3.063-1.8 3.205.129.141.939-.383 2.73-2.553.761-.923 1.847-2.033 2.898-3.704l.134-.218c1.646-2.707 2.274-4.497 2.515-5.59.246-1.116.076-1.47.207-1.45z"/>
        <path fill="url(#linearGradient970)" stroke="#231f20" stroke-linejoin="round" stroke-miterlimit="10" d="M191.15 119.479l-7.775-16.729s5.375-4.25 6.125-4.875-.75-18.208-.875-20c-.125-1.792 3-11.375 3-11.375s-14.008-13.535-22.875-20.501c-8.867-6.966-14.119-9.304-14.119-9.304l2.077-7.797s28.624 12.101 33.708 15.685C195.5 48.167 198.375 53 198.375 53s5.273 8.828 9.75 20.063 11.906 34.21 12 34.813c.438 2.813-3.837 4.081-15 8-11.75 4.124-13.975 3.603-13.975 3.603z" transform="matrix(1.06504 0 0 1.06504 -8.325 -8.134)"/>
        <path fill="#ff8080" stroke="#231f20" stroke-miterlimit="10" stroke-width="1.06504" d="M128 53.638c.62.177 5.192-8.933 13.247-7.79 11.893 1.685 20.86 6.015 21.57 6.193.71.177.573-18.417-3.066-27.026-1.624-3.843-10.163-17.595-10.606-17.508-.443.088 4.172 8.253-.62 20.413-5.175 13.13-10.882 15.078-16.775 19.259-1.305.926-4.372 6.282-3.75 6.46z"/>
        <path fill="none" stroke="#231f20" stroke-miterlimit="10" stroke-width=".53252" d="M224.686 102.187s-7.138 3.788-16.542 7.543c-9.402 3.756-14.915 5.02-14.915 5.02"/>
        <path fill="#ff2a2a" d="M199.445 51.598s4.201 6.47 4.437 7.189c.237.718 7.653 37.298 7.653 37.298s-4.81-35.258-6.497-38.453c-1.689-3.195-5.593-6.034-5.593-6.034z"/>
        <path fill="#f55" stroke="#231f20" stroke-miterlimit="10" stroke-width="1.06504" d="M202.952 48.313l-3.507 3.285s4.901 4.443 5.593 6.035c1.463 3.36 7.01 41.98 7.01 41.98l3.639 2.575 7.722-3.916s-11.513-34.42-14.489-39.563c-2.975-5.143-5.968-10.396-5.968-10.396z"/>
        <path fill="#ff2a2a" stroke="#231f20" stroke-linejoin="round" stroke-miterlimit="10" stroke-width="1.06504" d="M213.557 84.79c-1.688-.995-5.63-27.184-5.63-27.184l3.608 7.102 6.888 19.138c-.001 0-3.18 1.94-4.866.944z"/>
        <path fill="none" stroke="#231f20" stroke-miterlimit="10" stroke-width=".53252" d="M183.301 235.086s-.485 5.348-16.782 8.528c-16.297 3.18-60.742 3.18-77.038 0s-16.78-8.528-16.78-8.528"/>
    </g>
    <g>
        <g stroke-miterlimit="10" stroke-width="1.294">
            <path fill="#414042" stroke="#414042" d="M146.75 63.486h35v15.715h-35z" transform="matrix(-1.01527 -.04624 .022 -.7657 327.032 142.957)"/>
            <path fill="none" stroke="#fff" d="M147.597 64.301h33.341v14.081h-33.341z" transform="matrix(-1.01527 -.04624 .022 -.7657 327.068 142.953)"/>
        </g>
        <g fill="#fff" stroke-width="1.294">
            <path d="M175.152 84.641l-.156-.038a1.302 1.302 0 0 1-.531-.28l.22-.247a.94.94 0 0 0 .294.186c.11.043.228.069.357.073.174.006.306-.022.406-.082a.308.308 0 0 0 .153-.265l.003-.001a.275.275 0 0 0-.06-.198.392.392 0 0 0-.165-.114 2.034 2.034 0 0 0-.266-.074c-.005 0-.003-.002-.007-.001a.023.023 0 0 1-.013-.003l-.022-.005a2.552 2.552 0 0 1-.389-.107.559.559 0 0 1-.25-.197c-.07-.093-.101-.222-.096-.39v-.002a.678.678 0 0 1 .113-.37.625.625 0 0 1 .302-.228c.13-.05.286-.072.465-.066.086.003.168.016.25.038.082.022.163.052.243.09.078.04.154.089.231.147l-.2.257a1.072 1.072 0 0 0-.265-.157.777.777 0 0 0-.272-.06c-.163-.006-.293.021-.387.082a.316.316 0 0 0-.147.27v.001a.268.268 0 0 0 .065.195.433.433 0 0 0 .172.11c.068.024.165.05.29.078.005 0 .007.003.012.003s.008.002.013.003c.006.002.011.004.019.005.008.002.012 0 .019.002.142.031.265.075.361.118a.557.557 0 0 1 .235.203.614.614 0 0 1 .086.372v.003a.663.663 0 0 1-.119.368.633.633 0 0 1-.306.222c-.134.049-.29.072-.478.065l-.18-.006zM172.487 82.144l.335.011-.084 2.371-.338-.012.087-2.37zm.107 1.059c.328.01.494.018.819.03a.33.33 0 0 0 .171-.04.287.287 0 0 0 .12-.125.43.43 0 0 0 .046-.191.412.412 0 0 0-.035-.195.304.304 0 0 0-.277-.186c-.327-.01-.492-.018-.819-.029l.013-.316.807.03c.14.004.26.036.362.096.104.06.181.144.235.25.052.106.08.227.074.362a.74.74 0 0 1-.102.358.582.582 0 0 1-.254.229.745.745 0 0 1-.364.073l-.807-.03c.006-.126.007-.189.011-.316zm.647.265l.337-.061.573 1.17-.397-.014c-.206-.437-.309-.655-.513-1.095zM170.464 82.074c.136.006.203.007.338.012l-.084 2.369-.337-.013c.035-.947.05-1.42.083-2.368zm.164.005l1.378.052c-.006.126-.005.19-.01.316l-1.377-.051.009-.317zm-.034 1.036l1.2.043c-.007.127-.008.19-.012.316-.479-.018-.72-.026-1.199-.045l.01-.314zm-.038 1.017l1.376.05c-.005.127-.002.19-.008.316l-1.378-.05c.003-.126.005-.19.01-.316zM168.829 84.41s-.064-.038-.186-.116a.746.746 0 0 1-.28-.32.991.991 0 0 1-.089-.47c.01-.26.013-.387.022-.647.006-.176.047-.33.12-.461a.735.735 0 0 1 .303-.3.87.87 0 0 1 .444-.095.838.838 0 0 1 .376.1.777.777 0 0 1 .283.257.917.917 0 0 1 .145.375l-.347-.01a.533.533 0 0 0-.263-.344.48.48 0 0 0-.464.005.464.464 0 0 0-.179.191.653.653 0 0 0-.072.291c-.008.26-.015.39-.024.65a.65.65 0 0 0 .052.296.451.451 0 0 0 .421.282.486.486 0 0 0 .38-.162.485.485 0 0 0 .112-.201l.346.011a.906.906 0 0 1-.17.364.79.79 0 0 1-.3.237.848.848 0 0 1-.382.073l-.248-.006zM166.17 81.915l.338.012-.084 2.371-.334-.012c.035-.948.047-1.423.08-2.371zm.11 1.058c.33.012.496.017.822.03a.313.313 0 0 0 .17-.039.305.305 0 0 0 .118-.126.425.425 0 0 0 .046-.191.42.42 0 0 0-.036-.194.3.3 0 0 0-.278-.187c-.327-.01-.49-.017-.815-.028.006-.127.005-.19.01-.317.323.012.483.018.806.028.14.005.261.039.366.098.103.06.18.143.233.25a.73.73 0 0 1 .074.362.74.74 0 0 1-.1.357.588.588 0 0 1-.255.23.745.745 0 0 1-.365.07l-.807-.028c.008-.126.009-.19.012-.315zm.648.267l.339-.062.573 1.173-.398-.016c-.204-.438-.31-.658-.514-1.095zM164.264 84.136a.766.766 0 0 1-.286-.319.948.948 0 0 1-.089-.463c.008-.268.015-.4.024-.669a.956.956 0 0 1 .12-.456.75.75 0 0 1 .31-.294.863.863 0 0 1 .442-.092.889.889 0 0 1 .44.124c.123.077.22.182.285.316a.942.942 0 0 1 .088.462l-.026.673a.948.948 0 0 1-.118.454.74.74 0 0 1-.305.296.904.904 0 0 1-.448.093.87.87 0 0 1-.437-.125zm.714-.26a.44.44 0 0 0 .179-.18.62.62 0 0 0 .074-.28l.024-.693a.593.593 0 0 0-.052-.283.431.431 0 0 0-.166-.193.52.52 0 0 0-.262-.076.498.498 0 0 0-.26.056.448.448 0 0 0-.185.18.613.613 0 0 0-.071.28c-.01.277-.017.417-.025.694a.596.596 0 0 0 .052.281c.038.083.095.151.17.197a.5.5 0 0 0 .258.073c.101.004.187-.015.264-.056zM162.105 81.769l.335.012-.084 2.37-.337-.013.086-2.37zm.164.005l1.344.05c-.005.126-.004.189-.01.315l-1.344-.048c.004-.127.004-.191.01-.317zm-.037 1.055l1.161.043c-.005.127-.004.19-.01.317-.464-.017-.697-.028-1.162-.044.006-.128.005-.19.01-.316zM159.74 81.683l.303.011 1.108 1.873-.043.04.07-1.874c.133.004.197.008.33.014l-.086 2.368-.307-.012c-.444-.739-.662-1.107-1.106-1.845.019-.016.024-.025.041-.041-.027.739-.04 1.106-.064 1.846l-.333-.013c.035-.948.053-1.42.086-2.367zM157.722 81.608l.335.012-.085 2.37-.337-.013c.033-.947.053-1.421.087-2.37zm.161.007l1.378.048c-.005.127-.009.19-.015.317l-1.376-.05.013-.315zm-.038 1.033l1.198.044c-.005.127-.005.19-.01.316l-1.199-.042c.005-.126.007-.19.01-.318zm-.036 1.02l1.377.051c-.005.126-.004.188-.01.315l-1.378-.05c.005-.126.007-.19.01-.316zM172.923 78.154l.305.01c.444.75.662 1.126 1.107 1.875-.018.016-.022.024-.04.04.029-.75.04-1.124.068-1.874.134.004.199.008.332.014l-.086 2.365c-.123-.004-.186-.005-.308-.01l-1.105-1.848c.017-.016.024-.024.043-.04-.028.739-.04 1.108-.067 1.847-.133-.006-.199-.006-.332-.012.032-.946.049-1.42.083-2.367zM171.012 80.373a.751.751 0 0 1-.286-.319.955.955 0 0 1-.088-.462c.01-.268.018-.402.027-.67a.96.96 0 0 1 .12-.457.73.73 0 0 1 .304-.294.889.889 0 0 1 .448-.093.884.884 0 0 1 .438.123c.124.077.221.184.284.319a.954.954 0 0 1 .088.462l-.026.671a.968.968 0 0 1-.12.455.732.732 0 0 1-.307.297.884.884 0 0 1-.447.092.863.863 0 0 1-.435-.124zm.714-.261a.438.438 0 0 0 .182-.18.596.596 0 0 0 .071-.28l.026-.695a.593.593 0 0 0-.051-.283.452.452 0 0 0-.17-.195.511.511 0 0 0-.258-.074.506.506 0 0 0-.265.055.429.429 0 0 0-.18.181.629.629 0 0 0-.075.28l-.026.694c-.003.107.017.2.053.283a.44.44 0 0 0 .168.195.51.51 0 0 0 .256.076.493.493 0 0 0 .27-.057zM170.063 80.421c-.135-.005-.2-.009-.335-.013.033-.948.049-1.42.085-2.367.135.005.202.007.338.01-.036.949-.054 1.423-.088 2.37zM167.446 77.953l.306.014 1.105 1.873a1.746 1.746 0 0 1-.042.04l.072-1.873c.134.006.199.007.332.012-.036.947-.055 1.421-.088 2.368l-.307-.012-1.105-1.846c.018-.017.022-.025.04-.043l-.067 1.848-.334-.014c.033-.948.053-1.42.088-2.367zM166.768 80.301l-.338-.012.086-2.368.334.012c-.034.948-.049 1.422-.082 2.368zM165.608 77.887l.316.011c-.036.948-.052 1.42-.086 2.369l-.329-.013c.026-.71.04-1.062.064-1.771l.011.103c-.255.528-.38.792-.637 1.32l-.237-.008c-.217-.532-.323-.797-.542-1.33.01-.054.013-.082.02-.137l-.063 1.773-.328-.012.085-2.366c.127.005.191.005.317.01.26.635.388.953.648 1.59l.761-1.54zM161.969 80.043a.757.757 0 0 1-.282-.319.964.964 0 0 1-.09-.46c.008-.269.017-.404.026-.671a.94.94 0 0 1 .119-.455.743.743 0 0 1 .308-.297.88.88 0 0 1 .447-.091.873.873 0 0 1 .44.124.754.754 0 0 1 .282.317.958.958 0 0 1 .088.463l-.023.671a.961.961 0 0 1-.12.455.735.735 0 0 1-.307.296.883.883 0 0 1-.447.09.89.89 0 0 1-.441-.123zm.717-.258a.45.45 0 0 0 .18-.183.593.593 0 0 0 .073-.279l.025-.693a.61.61 0 0 0-.051-.284.447.447 0 0 0-.17-.194.503.503 0 0 0-.258-.075.514.514 0 0 0-.264.055.443.443 0 0 0-.181.18.616.616 0 0 0-.075.28l-.026.695c-.004.107.014.2.052.283a.448.448 0 0 0 .172.195c.072.046.16.07.259.074a.496.496 0 0 0 .264-.054zM159.485 77.665l.334.012-.085 2.368-.334-.013c.033-.947.05-1.42.085-2.367zm.155 2.059l.545.02c.177.007.316-.034.415-.122a.495.495 0 0 0 .158-.377l.025-.697c.005-.165-.038-.295-.131-.39-.095-.093-.23-.145-.408-.152-.217-.007-.326-.01-.544-.019.004-.126.007-.19.013-.317l.535.02c.192.007.35.048.486.119.134.071.234.17.3.299a.952.952 0 0 1 .093.464l-.024.67a.937.937 0 0 1-.127.457.683.683 0 0 1-.318.278c-.14.061-.306.087-.497.08l-.534-.02c.005-.125.01-.187.013-.313z"/>
        </g>
        <path fill="none" stroke="#fff" d="M155.724 75.196l-.529 10.767"/>
        <path fill="#fff" fill-rule="evenodd" d="M150.373 77.735l-1.88 4.817 4.389-2.876-5.197-.185 4.238 3.185z"/>
        <path fill="#fff" d="M150.367 76.981c.365.426 1.328 1.078 3.02 1.162-1.13 2.253 1.466 4.456-3.279 5.832-4.36-1.75-1.764-3.692-2.881-6.005.3.015.577.007.836-.018 1.252-.123 2.012-.651 2.304-.971m.018-1.167l-.597.652c-.203.223-.81.625-1.803.722a4.978 4.978 0 0 1-.723.016l-1.299-.063.56 1.16c.302.623.251 1.219.194 1.909-.117 1.394-.263 3.128 3.099 4.478l.253.1.26-.075c3.45-1.001 3.643-2.572 3.54-4.372-.039-.655-.075-1.274.218-1.855l.528-1.05-1.187-.059c-1.726-.086-2.395-.81-2.466-.891z"/>
    </g>
</svg>
