<svg xmlns="http://www.w3.org/2000/svg" viewBox="0 0 256 256">
    <path fill="#414042" stroke="#000" stroke-miterlimit="10" d="M96.277 77.138h64.262v12.249H96.277z"/>
    <path fill="#fff" d="M100.529 85.905v-2.22h3.209l-.001-.999h-3.208v-2.27h3.778v-1h-4.834v7.486h4.834v-.997zm5.278.994h1.045v-5.51l3.544 5.51h.968v-7.483h-1.046v5.59l-3.554-5.59h-.957zm12.153-6.484v-.999h-4.734v7.487h1.056v-3.151h3.109v-1h-3.11v-2.337h3.679zm2.292 6.223c-.4-.228-.71-.55-.929-.968-.219-.417-.328-.9-.328-1.449V82.1c0-.55.11-1.032.328-1.449.219-.417.53-.74.93-.968.4-.229.862-.343 1.386-.343.525 0 .988.115 1.387.343.4.228.71.55.93.968.218.417.326.9.326 1.449v2.122c0 .549-.108 1.032-.326 1.448-.22.417-.53.74-.93.968-.4.228-.862.343-1.387.343-.524 0-.987-.115-1.387-.343zm2.207-.9a1.41 1.41 0 0 0 .549-.593c.129-.256.193-.552.193-.888v-2.193c0-.337-.065-.633-.194-.889a1.402 1.402 0 0 0-.549-.592 1.593 1.593 0 0 0-.82-.208c-.31 0-.583.07-.82.208-.236.14-.42.337-.549.592-.129.256-.193.552-.193.889v2.193c0 .336.064.632.193.888.13.256.313.453.549.592.236.14.51.209.82.209.312 0 .585-.07.82-.209zm7.764 1.164h1.252l-1.743-3.29c.132-.042.265-.08.383-.144a1.9 1.9 0 0 0 .769-.76c.183-.327.274-.705.274-1.135 0-.429-.09-.807-.271-1.135a1.898 1.898 0 0 0-.766-.76c-.33-.179-.712-.266-1.146-.266h-2.985v7.491h1.055v-3.166h1.571zm-3.178-6.492h1.97c.206 0 .383.049.538.144a.96.96 0 0 1 .356.409 1.4 1.4 0 0 1 .127.611c0 .23-.042.434-.127.61a.944.944 0 0 1-.893.553h-1.97zm7.533 6.57l-.592-.345a2.343 2.343 0 0 1-.918-.979c-.217-.423-.326-.91-.326-1.467v-2.055c0-.556.11-1.045.326-1.468.217-.423.524-.75.918-.98.396-.233.854-.348 1.374-.348.43 0 .828.091 1.19.275.362.184.664.444.909.78.242.337.408.727.495 1.17h-1.084a1.658 1.658 0 0 0-.868-1.05c-.207-.1-.42-.15-.64-.15-.307 0-.579.074-.81.22-.23.148-.41.356-.536.622a2.122 2.122 0 0 0-.192.93v2.054c0 .35.064.66.192.928.126.268.306.475.537.62.23.146.502.22.808.22.224 0 .44-.048.645-.141.205-.092.385-.23.537-.411.154-.182.264-.398.328-.649h1.084a2.915 2.915 0 0 1-.499 1.169c-.245.336-.55.596-.912.78a2.574 2.574 0 0 1-1.184.277l-.782-.002zm9.706-6.565v-.999h-4.833v7.487h4.833v-.997h-3.776v-2.22h3.206v-1h-3.206v-2.27h3.776zm5.734 6.488h1.251l-1.742-3.29c.132-.04.265-.08.384-.145.33-.178.585-.431.769-.759.181-.327.273-.706.273-1.135 0-.43-.09-.808-.271-1.136a1.874 1.874 0 0 0-.766-.76 2.359 2.359 0 0 0-1.145-.267h-2.986v7.492h1.055v-3.166h1.572zm-3.178-6.493h1.972c.204 0 .383.049.537.144.153.097.27.232.355.41a1.4 1.4 0 0 1 .126.61c0 .23-.04.434-.126.61a.945.945 0 0 1-.892.553h-1.972zm7.57 6.57l-.486-.103a3.83 3.83 0 0 1-1.698-.825l.656-.803c.288.247.605.432.95.556.344.124.717.185 1.12.185.546 0 .967-.1 1.268-.301.3-.2.45-.484.45-.852v-.006c0-.26-.066-.467-.203-.62a1.233 1.233 0 0 0-.53-.34c-.216-.074-1.906-.416-2.209-.52a1.73 1.73 0 0 1-.81-.592c-.224-.286-.336-.694-.336-1.223v-.005c0-.464.104-.86.313-1.188.21-.328.512-.577.912-.748.4-.172.884-.258 1.446-.258.27 0 .53.028.793.087.26.058.518.146.77.26.255.116.503.26.749.435l-.6.836a3.563 3.563 0 0 0-.857-.472 2.465 2.465 0 0 0-.855-.158c-.514 0-.914.104-1.2.307-.283.205-.427.494-.427.868v.005c0 .257.076.46.222.607.147.148.328.257.547.327.22.07 1.941.459 2.246.585.307.127.56.333.767.616.204.282.307.67.307 1.16v.011c0 .456-.109.847-.326 1.171-.217.325-.533.571-.945.741-.413.17-.909.255-1.49.255l-.544.002z"/>
</svg>
