<svg xmlns="http://www.w3.org/2000/svg" xmlns:xlink="http://www.w3.org/1999/xlink" viewBox="0 0 256 256">
    <defs>
        <linearGradient id="innoGrad6">
            <stop offset="0" stop-color="#ff2a2a" stop-opacity=".502"/>
            <stop offset=".5" stop-color="#ff2a2a" stop-opacity="0"/>
            <stop offset="1" stop-color="#ff2a2a" stop-opacity=".502"/>
        </linearGradient>
        <linearGradient id="linearGradient4814" x1="35.386" x2="220.619" y1="131.479" y2="131.479" gradientUnits="userSpaceOnUse" xlink:href="#innoGrad1"/>
        <linearGradient id="innoGrad1">
            <stop offset="0" stop-color="#ff2a2a" stop-opacity=".502"/>
            <stop offset=".134" stop-color="#ff2a2a" stop-opacity="0"/>
            <stop offset=".863" stop-color="#ff2a2a" stop-opacity="0"/>
            <stop offset="1" stop-color="#ff2a2a" stop-opacity=".502"/>
        </linearGradient>
        <linearGradient id="linearGradient4867" x1="37.395" x2="72.67" y1="24.125" y2="13.215" gradientUnits="userSpaceOnUse" xlink:href="#innoGrad2"/>
        <linearGradient id="innoGrad2">
            <stop offset="0" stop-color="#ff2a2a" stop-opacity=".502"/>
            <stop offset="1" stop-color="#ff2a2a" stop-opacity="0"/>
        </linearGradient>
        <linearGradient id="linearGradient4859" x1="42.662" x2="76.116" y1="33.838" y2="18.951" gradientUnits="userSpaceOnUse" xlink:href="#innoGrad2"/>
        <linearGradient id="linearGradient4890" x1="45.543" x2="105.179" y1="41.333" y2="41.333" gradientUnits="userSpaceOnUse" xlink:href="#innoGrad3"/>
        <linearGradient id="innoGrad3">
            <stop offset="0" stop-color="#ff7f2a" stop-opacity=".502"/>
            <stop offset="1" stop-color="#fca" stop-opacity="0"/>
        </linearGradient>
        <linearGradient id="linearGradient4913" x1="50.671" x2="92.129" y1="42.418" y2="42.418" gradientUnits="userSpaceOnUse" xlink:href="#innoGrad3"/>
        <linearGradient id="linearGradient4946" x1="49.857" x2="206.112" y1="68.272" y2="68.272" gradientUnits="userSpaceOnUse" xlink:href="#innoGrad4"/>
        <linearGradient id="innoGrad4">
            <stop offset="0" stop-color="#ff7f2a" stop-opacity=".502"/>
            <stop offset=".236" stop-color="#ff7f2a" stop-opacity="0"/>
            <stop offset=".759" stop-color="#ff7f2a" stop-opacity="0"/>
            <stop offset="1" stop-color="#ff7f2a" stop-opacity=".502"/>
        </linearGradient>
        <linearGradient id="linearGradient5004" x1="182.273" x2="217.505" y1="15.773" y2="24.547" gradientUnits="userSpaceOnUse" xlink:href="#innoGrad22"/>
        <linearGradient id="innoGrad22">
            <stop offset="0" stop-color="#ff2a2a" stop-opacity="0"/>
            <stop offset="1" stop-color="#ff2a2a" stop-opacity=".502"/>
        </linearGradient>
        <linearGradient id="linearGradient5035" x1="179.912" x2="213.338" y1="18.951" y2="33.839" gradientUnits="userSpaceOnUse" xlink:href="#innoGrad22"/>
        <linearGradient id="linearGradient5074" x1="150.811" x2="210.484" y1="41.345" y2="41.345" gradientUnits="userSpaceOnUse" xlink:href="#innoGrad32"/>
        <linearGradient id="innoGrad32">
            <stop offset="0" stop-color="#fca" stop-opacity="0"/>
            <stop offset="1" stop-color="#ff7f2a" stop-opacity=".502"/>
        </linearGradient>
        <linearGradient id="linearGradient5105" x1="163.854" x2="205.3" y1="42.418" y2="42.418" gradientUnits="userSpaceOnUse" xlink:href="#innoGrad32"/>
        <linearGradient id="linearGradient5151" x1="28.406" x2="57.945" y1="200.232" y2="200.232" gradientUnits="userSpaceOnUse" xlink:href="#innoGrad2"/>
        <linearGradient id="linearGradient5174" x1="29.537" x2="52.967" y1="179.664" y2="179.664" gradientUnits="userSpaceOnUse" xlink:href="#innoGrad2"/>
        <linearGradient id="linearGradient5197" x1="29.585" x2="53.42" y1="203.973" y2="203.973" gradientUnits="userSpaceOnUse" xlink:href="#innoGrad2"/>
        <linearGradient id="linearGradient5235" x1="27.48" x2="55.017" y1="228.148" y2="228.148" gradientUnits="userSpaceOnUse" xlink:href="#innoGrad2"/>
        <linearGradient id="linearGradient5258" x1="198.027" x2="227.602" y1="200.231" y2="200.231" gradientUnits="userSpaceOnUse" xlink:href="#innoGrad22"/>
        <linearGradient id="linearGradient5287" x1="203.034" x2="226.491" y1="179.657" y2="179.657" gradientUnits="userSpaceOnUse" xlink:href="#innoGrad22"/>
        <linearGradient id="linearGradient5310" x1="202.603" x2="226.414" y1="203.974" y2="203.974" gradientUnits="userSpaceOnUse" xlink:href="#innoGrad22"/>
        <linearGradient id="linearGradient5333" x1="200.955" x2="228.518" y1="228.148" y2="228.148" gradientUnits="userSpaceOnUse" xlink:href="#innoGrad22"/>
        <linearGradient id="linearGradient5356" x1="138.075" x2="193.306" y1="226.709" y2="226.709" gradientUnits="userSpaceOnUse" xlink:href="#innoGrad5"/>
        <linearGradient id="innoGrad5">
            <stop offset="0" stop-color="#ffd42a" stop-opacity=".251"/>
            <stop offset=".137" stop-color="#ffd42a" stop-opacity="0"/>
            <stop offset=".858" stop-color="#ffd42a" stop-opacity="0"/>
            <stop offset="1" stop-color="#ffd42a" stop-opacity=".502"/>
        </linearGradient>
        <linearGradient id="linearGradient5383" x1="135.462" x2="196.983" y1="201.274" y2="201.274" gradientUnits="userSpaceOnUse" xlink:href="#innoGrad5"/>
        <linearGradient id="linearGradient5416" x1="63.123" x2="118.33" y1="226.439" y2="226.439" gradientUnits="userSpaceOnUse" xlink:href="#innoGrad52"/>
        <linearGradient id="innoGrad52">
            <stop offset="0" stop-color="#ffd42a" stop-opacity=".502"/>
            <stop offset=".142" stop-color="#ffd42a" stop-opacity="0"/>
            <stop offset=".863" stop-color="#ffd42a" stop-opacity="0"/>
            <stop offset="1" stop-color="#ffd42a" stop-opacity=".251"/>
        </linearGradient>
        <linearGradient id="linearGradient5453" x1="59.392" x2="120.944" y1="200.977" y2="200.977" gradientUnits="userSpaceOnUse" xlink:href="#innoGrad52"/>
        <linearGradient id="linearGradient5476" x1="138.442" x2="193.626" y1="171.163" y2="171.163" gradientUnits="userSpaceOnUse" xlink:href="#innoGrad5"/>
        <linearGradient id="linearGradient5499" x1="135.824" x2="197.346" y1="145.702" y2="145.702" gradientUnits="userSpaceOnUse" xlink:href="#innoGrad5"/>
        <linearGradient id="linearGradient5522" x1="62.238" x2="117.44" y1="170.858" y2="170.858" gradientUnits="userSpaceOnUse" xlink:href="#innoGrad52"/>
        <linearGradient id="linearGradient5545" x1="58.506" x2="120.058" y1="145.421" y2="145.421" gradientUnits="userSpaceOnUse" xlink:href="#innoGrad52"/>
        <linearGradient id="linearGradient1938" x1="128.76" x2="128.76" y1="166.926" y2="162.132" gradientUnits="userSpaceOnUse" xlink:href="#innoGrad22"/>
        <linearGradient id="linearGradient1977" x1="90.365" x2="166.461" y1="184.557" y2="184.557" gradientUnits="userSpaceOnUse" xlink:href="#innoGrad1"/>
        <linearGradient id="linearGradient1979" x1="90.438" x2="166.389" y1="170.467" y2="170.467" gradientUnits="userSpaceOnUse" xlink:href="#innoGrad1"/>
        <linearGradient id="linearGradient1981" x1="90.787" x2="166.038" y1="199.206" y2="199.206" gradientUnits="userSpaceOnUse" xlink:href="#innoGrad1"/>
        <linearGradient id="linearGradient2010" x1="75.972" x2="80.07" y1="47.956" y2="47.956" gradientUnits="userSpaceOnUse" xlink:href="#innoGrad22"/>
        <linearGradient id="linearGradient2039" x1="43.493" x2="60.833" y1="70.503" y2="85.277" gradientUnits="userSpaceOnUse" xlink:href="#innoGrad2"/>
        <linearGradient id="linearGradient2062" x1="58.422" x2="64.285" y1="45.053" y2="51.615" gradientUnits="userSpaceOnUse" xlink:href="#innoGrad2"/>
        <linearGradient id="linearGradient2085" x1="31.533" x2="53.444" y1="86.242" y2="103.257" gradientUnits="userSpaceOnUse" xlink:href="#innoGrad2"/>
        <linearGradient id="linearGradient2108" x1="37.713" x2="53.166" y1="82.91" y2="96.917" gradientUnits="userSpaceOnUse" xlink:href="#innoGrad3"/>
        <linearGradient id="linearGradient2131" x1="33.018" x2="37.713" y1="78.896" y2="82.91" gradientUnits="userSpaceOnUse" xlink:href="#innoGrad3"/>
        <linearGradient id="linearGradient2160" x1="47.226" x2="60.832" y1="74.601" y2="85.277" gradientUnits="userSpaceOnUse" xlink:href="#innoGrad3"/>
        <linearGradient id="linearGradient2010-6" x1="75.972" x2="80.07" y1="47.956" y2="47.956" gradientTransform="matrix(-1 0 0 1 256.003 0)" gradientUnits="userSpaceOnUse" xlink:href="#innoGrad22"/>
        <linearGradient id="linearGradient2039-8" x1="43.493" x2="60.833" y1="70.503" y2="85.277" gradientTransform="matrix(-1 0 0 1 256.003 0)" gradientUnits="userSpaceOnUse" xlink:href="#innoGrad2"/>
        <linearGradient id="linearGradient2062-9" x1="58.422" x2="64.285" y1="45.053" y2="51.615" gradientTransform="matrix(-1 0 0 1 256.003 0)" gradientUnits="userSpaceOnUse" xlink:href="#innoGrad2"/>
        <linearGradient id="linearGradient2085-7" x1="31.533" x2="53.444" y1="86.242" y2="103.257" gradientTransform="matrix(-1 0 0 1 256.003 0)" gradientUnits="userSpaceOnUse" xlink:href="#innoGrad2"/>
        <linearGradient id="linearGradient2108-9" x1="37.713" x2="53.166" y1="82.91" y2="96.917" gradientTransform="matrix(-1 0 0 1 256.003 0)" gradientUnits="userSpaceOnUse" xlink:href="#innoGrad3"/>
        <linearGradient id="linearGradient2331" x1="47.226" x2="60.832" y1="74.601" y2="85.277" gradientUnits="userSpaceOnUse" xlink:href="#innoGrad3"/>
        <linearGradient id="linearGradient2333" x1="33.018" x2="37.713" y1="78.896" y2="82.91" gradientUnits="userSpaceOnUse" xlink:href="#innoGrad3"/>
        <linearGradient id="linearGradient2364" x1="94.122" x2="161.56" y1="24.044" y2="24.044" gradientUnits="userSpaceOnUse" xlink:href="#innoGrad6"/>
    </defs>
    <g>
        <path fill="#ff8080" d="M90.043 160.445s-.49 8.75-.185 31.743c.109 8.295 8.286 33.483 17.698 46.722 4.32 6.078 37.896 5.367 41.71 0 9.417-13.238 17.59-38.427 17.702-46.722.305-22.992-.188-31.743-.188-31.743z"/>
        <path fill="url(#linearGradient1938)" stroke="#010101" stroke-miterlimit="10" d="M90.043 160.445s-.49 8.751-.185 31.743c.109 8.295 8.286 33.483 17.698 46.722 4.32 6.078 37.896 5.367 41.711 0 9.416-13.238 17.59-38.427 17.701-46.722.305-22.992-.188-31.743-.188-31.743z"/>
        <path fill="none" stroke="#010101" stroke-miterlimit="10" d="M165.569 161.239s.977 27.783-.152 32.602c-1.122 4.81-13.034 40.196-16.471 43.347-7.024 6.435-35.242 5.329-41.065 0-3.44-3.15-15.352-38.537-16.474-43.347-1.125-4.818-.15-32.602-.15-32.602"/>
        <path fill="#f55" d="M98.712 188.616c-3.2-.092-7.847-.638-7.847-.638v-8.19s4.309 1.313 8.167 1.363c1.929.024 15.17.4 28.898.4 13.726 0 27.932-.376 29.863-.4 3.859-.05 8.168-1.363 8.168-1.363v8.19s-4.65.546-7.846.638c-1.6.047-15.652.885-29.703.885-14.116-.002-28.225-.843-29.7-.885zM98.31 167.103c-3.857-.05-7.207-.64-7.207-.64l-.156 6.98s3.52.948 6.722 1.05c3.2.09 58.29.09 61.489 0 3.2-.102 6.722-1.05 6.722-1.05l-.154-6.98s-3.351.59-7.207.64c-3.861.052-56.351.052-60.21 0zM99.996 196.004c-3.86-.052-8.441-1.578-8.441-1.578l2.555 8.198s1.562.592 4.76.682c1.602.05 15.573.962 29.544.962 13.968 0 27.94-.911 29.543-.962 3.195-.09 4.758-.682 4.758-.682l2.555-8.198s-4.58 1.526-8.441 1.578c-1.944.024-15.463.799-28.816.799-13.14 0-26.105-.775-28.017-.8z"/>
        <path fill="url(#linearGradient1977)" stroke="#010101" stroke-miterlimit="10" d="M98.712 188.616c-3.2-.092-7.847-.638-7.847-.638v-8.19s4.309 1.313 8.167 1.363c1.929.024 15.171.4 28.898.4 13.726 0 27.932-.376 29.863-.4 3.859-.05 8.168-1.363 8.168-1.363v8.19s-4.649.546-7.846.638c-1.599.047-15.652.885-29.703.885-14.116-.002-28.225-.843-29.7-.885z"/>
        <path fill="url(#linearGradient1979)" stroke="#010101" stroke-miterlimit="10" d="M98.31 167.103c-3.857-.049-7.207-.64-7.207-.64l-.156 6.981s3.521.947 6.722 1.049c3.2.09 58.291.09 61.489 0 3.2-.102 6.722-1.049 6.722-1.049l-.154-6.981s-3.351.591-7.207.64c-3.861.052-56.351.052-60.209 0z"/>
        <path fill="url(#linearGradient1981)" stroke="#010101" stroke-miterlimit="10" d="M99.996 196.004c-3.859-.052-8.441-1.578-8.441-1.578l2.555 8.198s1.562.592 4.761.682c1.601.051 15.572.962 29.543.962 13.968 0 27.941-.911 29.543-.962 3.195-.09 4.758-.682 4.758-.682l2.555-8.198s-4.579 1.526-8.441 1.578c-1.944.024-15.463.799-28.816.799-13.139 0-26.105-.775-28.017-.799z"/>
        <path fill="#faa" stroke="#010101" stroke-miterlimit="10" d="M112.198 221.29h32.432v8.189h-32.432zM132.022 248.829l-11.315-1.126.64-18.224h11.412z"/>
        <path fill="none" stroke="#010101" stroke-miterlimit="10" d="M132.022 246.58l-11.256-.725"/>
        <path fill="none" stroke="#010101" stroke-miterlimit="10" stroke-width=".75" d="M103.366 167.124v7.435M115.249 167.138v7.415M127.366 167.142v7.417M139.413 167.142v7.417M151.05 167.124v7.412M103.366 181.243v7.594M115.249 181.459v8.042M127.366 181.459v8.04M139.413 181.479v7.874M151.05 181.243v7.594M103.366 196.143v7.396M115.249 196.599v7.442M127.366 196.802v7.239M139.413 196.802v7.303M151.05 196.24v7.299"/>
    </g>
    <g fill="#ff2a2a" stroke="#000" stroke-miterlimit="10">
        <path stroke-linejoin="bevel" d="M128.029 52.807c21.984-.044 33.53-31.603 33.53-31.603s-15.558 20.48-33.53 20.72c-17.67.236-33.534-20.72-33.534-20.72s11.546 31.654 33.534 31.603z"/>
        <path d="M183.865 26.353s-2.724 4.338-4.586 11.307c-4.096 15.355-8.487 41.992-2.093 52.67 11.08 18.5 7.615 16.184 7.615 16.184l-10.78-7.85-8.874-27.721 10.829-34.558 7.889-10.032M72.04 26.353s2.724 4.338 4.584 11.307c4.097 15.355 8.49 41.992 2.095 52.67-11.083 18.5-7.616 16.184-7.616 16.184l10.777-7.85 8.878-27.721-10.832-34.558-7.886-10.032M104.139 9.029c.328-.464 7.367 4.85 23.917 4.908 16.558.057 23.529-5.331 23.863-4.908.673.846-23.89 26.102-23.89 26.102S103.494 9.96 104.139 9.029z"/>
    </g>
    <g>
        <path fill="#f55" stroke="#010101" stroke-miterlimit="10" stroke-width=".5" d="M66.946 89.267s.87-.644.95 0c.08.64-8.951 12.067-9.553 12.044-.603-.023-.781-.82-.781-.82z"/>
        <path fill="#ff8080" d="M86.042 55.893s-4.971-1.201-8.66-5.941c-1.83-2.352-3.787-9.37-3.787-10.035 0-.494.064-3.528.64-3.947 1.77-1.284 5.69.415 5.69.415z"/>
        <path fill="url(#linearGradient2010)" stroke="#010101" stroke-miterlimit="10" d="M86.043 55.893s-4.971-1.201-8.659-5.941c-1.831-2.352-3.788-9.369-3.788-10.035 0-.494.064-3.528.641-3.947 1.769-1.284 5.689.415 5.689.415z"/>
        <path fill="#ff8080" d="M71.67 38.475s-.964 2.485 0 3.77c.963 1.284 2.487 2.412 2.729 6.987.175 3.343 3.27 22.795-7.808 40.618-1.537 2.47-7.381 10.258-12.101 12.884-.828.459-1.632.802-2.4 1.046-1.552.5-2.778-.024-3.981-.084-2.19-.114-3.868-.17-4.213-.205-2.4-.221-4.052-1.697-5.722-2.384-1.348-.557-2.846-.288-3.671-.825-1.156-.754-1.79-2.295-3.132-3.27-.801-.582-2.237-.37-3.13-1.305-.402-.424-.18-.961-.18-3.691s39.673-54.604 39.673-54.604z"/>
        <path fill="url(#linearGradient2039)" stroke="#010101" stroke-miterlimit="10" d="M71.67 38.475s-.964 2.485 0 3.77c.963 1.284 2.487 2.412 2.729 6.987.175 3.343 3.27 22.795-7.808 40.618-1.537 2.471-7.381 10.258-12.101 12.884-.828.459-1.632.802-2.4 1.046-1.552.5-2.778-.024-3.981-.084-2.189-.114-3.868-.17-4.213-.205-2.399-.221-4.052-1.697-5.722-2.384-1.348-.557-2.846-.288-3.671-.825-1.156-.754-1.79-2.295-3.132-3.27-.801-.582-2.237-.369-3.129-1.305-.403-.424-.18-.961-.18-3.691 0-2.729 39.672-54.604 39.672-54.604z"/>
        <path fill="#f55" stroke="#010101" stroke-miterlimit="10" d="M47.65 64.883l4.142 4.195-4.565 5.523-4.361-3.761z"/>
        <path fill="#faa" stroke="#010101" stroke-miterlimit="10" d="M77.789 37.412h-4.576L72.37 35.3l5.419-.418z"/>
        <path fill="#faa" stroke="#010101" stroke-miterlimit="10" d="M72.37 35.3s-3.625-.73-3.552.847c.074 1.577.492 1.687.492 1.687l3.903-.422z"/>
        <path fill="#faa" stroke="#010101" stroke-miterlimit="10" d="M73.213 37.412s-3.652 2.236-3.903.422c-.251-1.808 3.903-.422 3.903-.422z"/>
        <path fill="#faa" stroke="#010101" stroke-miterlimit="10" d="M71.136 37.412c.27.51-1.473 1.196-2.32 1.444-.845.244-2.093.64-2.248.079-.154-.557.95-1.042 1.954-1.31 1.003-.271 2.343-.727 2.614-.213zM45.696 64.197l-3.007 4.46-.562-.645z"/>
        <path fill="#faa" stroke="#010101" stroke-miterlimit="10" d="M67.882 39.109s-1.741 1.218-2.476 2.012c-.735.794-1.726 2.528-1.726 2.528l-1.204-1.89 3.412-4.348z"/>
        <path fill="none" stroke="#010101" stroke-miterlimit="10" d="M58.03 49.002l.875.668-15.412 20.833-1.124-.963z"/>
        <path fill="#faa" stroke="#010101" stroke-miterlimit="10" d="M68.179 37.725s-.584-.261-1.52.816c-.231.268-1.677 2.674-3.94 5.455-2.057 2.53-5.012 5.139-7.751 8.313-3.113 3.61-6 7.915-8.395 10.837-2.533 3.094-4.165 4.649-4.485 4.696-.321.054-.421-1.012-.331-1.565.09-.55 1.509-1.502 3.824-4.332 2.21-2.706 5.03-7.226 7.946-10.9 2.679-3.37 5.456-5.893 7.586-8.545 2.368-2.952 3.924-5.408 4.274-5.78 1.37-1.457 2.348-.334 2.348-.334z"/>
        <path fill="#f55" d="M58.422 45.053c-.245.753 5.138 6.46 5.54 6.58.4.125 4.535-5.898 4.415-6.417-.121-.524-1.444-.991-2.53-2.248-1.28-1.483-2.46-3.27-2.81-3.265-.398.007-1.27 2.01-2.533 3.525-.776.939-1.99 1.538-2.082 1.825z"/>
        <path fill="url(#linearGradient2062)" stroke="#010101" stroke-miterlimit="10" d="M58.422 45.053c-.245.753 5.138 6.461 5.54 6.581.401.124 4.535-5.899 4.415-6.418-.121-.524-1.444-.991-2.53-2.248-1.279-1.483-2.46-3.27-2.809-3.265-.399.007-1.27 2.011-2.534 3.525-.776.939-1.989 1.538-2.082 1.825z"/>
        <path fill="#f55" stroke="#010101" stroke-miterlimit="10" d="M55.945 53.672l4.124 4.106-4.534 5.859-3.94-4.085z"/>
        <path fill="#ffb380" d="M56.056 63.922l11.84 9.353-7.063 12.002L47.226 74.6z"/>
        <path fill="url(#linearGradient2160)" stroke="#010101" stroke-miterlimit="10" d="M56.056 63.922l11.84 9.353-7.063 12.002-13.607-10.676z"/>
        <path fill="#faa" d="M57.267 100.745S47.243 93.71 42.212 89.62c-5.028-4.087-7.821-7.47-7.821-7.47s-.392.323-.851.519c-.36.156-.763.119-1.043.523-.295.422-.202 1.274-.362 1.887a2.973 2.973 0 0 1-.602 1.163s.824 2.217 6.86 6.904c6.037 4.687 15.05 10.11 15.05 10.11s.902-.393 2.083-1.17c1.18-.774 1.74-1.341 1.74-1.341z"/>
        <path fill="url(#linearGradient2085)" stroke="#010101" stroke-miterlimit="10" d="M57.267 100.745S47.243 93.71 42.212 89.62c-5.028-4.087-7.821-7.47-7.821-7.47s-.392.323-.851.519c-.36.156-.763.119-1.043.523-.295.422-.202 1.274-.362 1.887a2.973 2.973 0 0 1-.602 1.163s.824 2.217 6.861 6.904c6.036 4.687 15.05 10.111 15.05 10.111s.901-.394 2.082-1.17c1.181-.775 1.741-1.342 1.741-1.342z"/>
        <path fill="none" stroke="#010101" stroke-miterlimit="10" stroke-width=".5" d="M33.018 83.233s6.624 6.537 11.796 10.499c2.864 2.196 5.97 4.41 8.353 5.834 1.92 1.15 3.443 1.745 3.443 1.745M32.134 85.079s2.123 3.039 9.313 8.469c7.189 5.428 13.606 8.839 13.606 8.839"/>
        <path fill="#ffb380" d="M43.91 71.873L60.994 86.2l-7.827 10.717s-7.185-4.375-11.76-7.908c-2.571-1.983-6.061-5.818-6.061-5.818z"/>
        <path fill="url(#linearGradient2108)" stroke="#010101" stroke-miterlimit="10" d="M43.911 71.873L60.993 86.2l-7.827 10.717s-7.185-4.375-11.76-7.908c-2.571-1.983-6.061-5.818-6.061-5.818z"/>
        <path fill="none" stroke="#010101" stroke-miterlimit="10" d="M42.513 69.352s-1.107-1.262-1.268-.695c-.16.566 2.666 3.216 2.666 3.216"/>
        <path fill="#ffb380" d="M41.246 68.657l2.525 3.404v2.34l-6.058 8.509-2.568 1.084-1.926-2.61-.201-2.488L40.16 69.3l.564-.078z"/>
        <path fill="url(#linearGradient2131)" stroke="#010101" stroke-miterlimit="10" d="M33.018 78.896l7.143-9.595.564-.078.521-.566 2.525 3.404v2.34l-6.058 8.509-2.568 1.084-1.926-2.61z"/>
        <path fill="#f55" stroke="#010101" stroke-miterlimit="10" stroke-width=".5" d="M189.056 89.267s-.87-.644-.95 0c-.08.64 8.951 12.067 9.553 12.044.603-.023.781-.82.781-.82z"/>
        <path fill="#ff8080" d="M169.96 55.893s4.971-1.2 8.66-5.94c1.83-2.353 3.787-9.37 3.787-10.036 0-.494-.064-3.528-.64-3.947-1.77-1.284-5.69.415-5.69.415z"/>
        <path fill="url(#linearGradient2010-6)" stroke="#010101" stroke-miterlimit="10" d="M169.96 55.893s4.97-1.2 8.659-5.94c1.83-2.353 3.788-9.37 3.788-10.036 0-.494-.064-3.528-.641-3.947-1.77-1.284-5.69.415-5.69.415z"/>
        <path fill="#ff8080" d="M184.332 38.475s.964 2.485 0 3.77c-.963 1.284-2.487 2.412-2.729 6.987-.175 3.343-3.27 22.795 7.808 40.618 1.537 2.471 7.381 10.258 12.101 12.884.828.46 1.632.802 2.4 1.046 1.552.5 2.778-.024 3.981-.084 2.19-.114 3.868-.17 4.213-.205 2.4-.22 4.052-1.697 5.722-2.384 1.348-.557 2.846-.288 3.671-.825 1.156-.754 1.79-2.295 3.132-3.27.801-.582 2.237-.369 3.13-1.305.402-.424.18-.96.18-3.69s-39.673-54.605-39.673-54.605z"/>
        <path fill="url(#linearGradient2039-8)" stroke="#010101" stroke-miterlimit="10" d="M184.333 38.475s.964 2.485 0 3.77c-.963 1.284-2.487 2.412-2.73 6.987-.174 3.343-3.27 22.795 7.809 40.618 1.537 2.471 7.38 10.258 12.1 12.884.829.46 1.633.802 2.4 1.046 1.553.5 2.779-.024 3.982-.084 2.189-.114 3.868-.17 4.213-.205 2.399-.22 4.052-1.697 5.722-2.384 1.348-.557 2.846-.288 3.67-.825 1.157-.754 1.79-2.295 3.133-3.27.8-.582 2.237-.369 3.129-1.305.403-.424.18-.96.18-3.69s-39.672-54.605-39.672-54.605z"/>
        <path fill="#f55" stroke="#010101" stroke-miterlimit="10" d="M208.351 64.883l-4.14 4.195 4.564 5.523 4.361-3.76z"/>
        <path fill="#faa" stroke="#010101" stroke-miterlimit="10" d="M178.213 34.883v2.53h4.576l.843-2.112z"/>
        <path fill="#faa" stroke="#010101" stroke-miterlimit="10" d="M183.632 35.301s3.625-.73 3.552.846c-.074 1.577-.492 1.687-.492 1.687l-3.903-.422z"/>
        <path fill="#faa" stroke="#010101" stroke-miterlimit="10" d="M182.79 37.412s3.651 2.236 3.902.422c.251-1.808-3.903-.422-3.903-.422z"/>
        <path fill="#faa" stroke="#010101" stroke-miterlimit="10" d="M184.866 37.412c-.27.51 1.473 1.196 2.32 1.444.845.244 2.093.641 2.248.08.154-.558-.95-1.043-1.954-1.31-1.003-.272-2.343-.728-2.614-.214zM213.875 68.012l-3.569-3.815 3.007 4.46z"/>
        <path fill="#faa" stroke="#010101" stroke-miterlimit="10" d="M188.12 39.11s1.741 1.217 2.476 2.011c.735.794 1.726 2.528 1.726 2.528l1.204-1.889-3.412-4.349z"/>
        <path fill="none" stroke="#010101" stroke-miterlimit="10" d="M197.097 49.67l15.412 20.833 1.124-.963-15.662-20.538z"/>
        <path fill="#faa" stroke="#010101" stroke-miterlimit="10" d="M187.823 37.725s.584-.26 1.52.816c.231.268 1.677 2.674 3.94 5.455 2.057 2.531 5.012 5.14 7.751 8.313 3.113 3.61 6 7.915 8.395 10.837 2.533 3.094 4.165 4.65 4.485 4.696.321.054.421-1.012.331-1.565-.09-.549-1.509-1.502-3.824-4.332-2.21-2.706-5.03-7.226-7.946-10.9-2.679-3.369-5.456-5.893-7.586-8.545-2.368-2.952-3.924-5.408-4.274-5.78-1.37-1.457-2.348-.334-2.348-.334z"/>
        <path fill="#f55" d="M197.58 45.053c.245.753-5.138 6.461-5.54 6.581-.4.124-4.535-5.899-4.415-6.418.121-.524 1.444-.99 2.53-2.248 1.28-1.483 2.46-3.27 2.81-3.265.398.007 1.27 2.011 2.533 3.525.776.94 1.99 1.538 2.082 1.825z"/>
        <path fill="url(#linearGradient2062-9)" stroke="#010101" stroke-miterlimit="10" d="M197.58 45.053c.246.753-5.137 6.461-5.54 6.581-.4.124-4.534-5.899-4.414-6.418.12-.524 1.444-.99 2.53-2.248 1.279-1.483 2.46-3.27 2.809-3.265.399.007 1.27 2.011 2.534 3.525.776.94 1.989 1.538 2.082 1.825z"/>
        <path fill="#f55" stroke="#010101" stroke-miterlimit="10" d="M195.933 57.778l4.534 5.86 3.94-4.086-4.35-5.88z"/>
        <path fill="#ffb380" d="M199.946 63.922l-11.84 9.353 7.063 12.002 13.607-10.676z"/>
        <path fill="url(#linearGradient2331)" stroke="#010101" stroke-miterlimit="10" d="M47.226 74.601l8.83-10.679 11.84 9.353-7.063 12.002z" transform="matrix(-1 0 0 1 256.001 0)"/>
        <path fill="#faa" d="M198.735 100.745S208.76 93.71 213.79 89.62c5.028-4.087 7.821-7.47 7.821-7.47s.392.323.851.52c.36.155.763.118 1.043.522.295.422.202 1.274.362 1.887.186.712.602 1.163.602 1.163s-.824 2.217-6.86 6.904c-6.037 4.687-15.05 10.111-15.05 10.111s-.902-.394-2.083-1.17c-1.18-.775-1.74-1.342-1.74-1.342z"/>
        <path fill="url(#linearGradient2085-7)" stroke="#010101" stroke-miterlimit="10" d="M198.736 100.745S208.76 93.71 213.79 89.62c5.028-4.087 7.82-7.47 7.82-7.47s.393.323.852.52c.36.155.763.118 1.043.522.295.422.202 1.274.362 1.887.186.712.602 1.163.602 1.163s-.824 2.217-6.861 6.904c-6.036 4.687-15.05 10.111-15.05 10.111s-.901-.394-2.082-1.17c-1.181-.775-1.741-1.342-1.741-1.342z"/>
        <path fill="none" stroke="#010101" stroke-miterlimit="10" stroke-width=".5" d="M222.984 83.233s-6.624 6.537-11.796 10.5c-2.864 2.195-5.97 4.41-8.353 5.833-1.92 1.151-3.443 1.745-3.443 1.745M223.868 85.08s-2.123 3.038-9.313 8.468c-7.189 5.428-13.606 8.84-13.606 8.84"/>
        <path fill="#ffb380" d="M212.091 71.873L195.01 86.2l7.827 10.717s7.185-4.375 11.76-7.908c2.571-1.983 6.061-5.818 6.061-5.818z"/>
        <path fill="url(#linearGradient2108-9)" stroke="#010101" stroke-miterlimit="10" d="M212.092 71.873L195.01 86.2l7.827 10.717s7.185-4.375 11.76-7.908c2.57-1.983 6.06-5.818 6.06-5.818z"/>
        <path fill="none" stroke="#010101" stroke-miterlimit="10" d="M213.49 69.352s1.106-1.262 1.267-.695c.16.566-2.666 3.216-2.666 3.216"/>
        <path fill="#ffb380" d="M212.231 72.061v2.34l6.058 8.51 2.568 1.083 1.926-2.61.201-2.488-7.143-9.595-.564-.078-.52-.566z"/>
        <path fill="url(#linearGradient2333)" stroke="#010101" stroke-miterlimit="10" d="M33.018 78.896l7.143-9.595.564-.078.521-.566 2.525 3.404v2.34l-6.058 8.509-2.568 1.084-1.926-2.61z" transform="matrix(-1 0 0 1 256.002 0)"/>
    </g>
    <g id="patternLayer">
        <path fill="#ff8080" d="M95.804 23.125c-4.614.049-23.005 4.76-23.005 4.76s11.306 13.253 9.546 48.745c-.799 16.153-11.055 30.135-11.402 30.61-.796 1.107 1.856 53.36 2.245 53.655.407.33 1.436-.129 2.892.09.95.131 1.61.684 2.891.63 2.485-.042 5.32-1.017 8.436-.776 4.73.364 9.5 1.934 12.605 2.093 3.21.2 7.721-.49 12.273-.508 6.498-.022 25.006-.022 31.469 0 4.566.018 9.098.706 12.29.507 3.108-.158 7.857-1.728 12.623-2.092 3.082-.24 5.937.736 8.401.776 1.298.054 1.976-.499 2.892-.63 1.455-.219 2.503.241 2.892-.09.423-.293 3.075-52.546 2.26-53.655-.347-.475-10.604-14.457-11.419-30.61-1.741-35.493 9.583-48.744 9.583-48.744s-22.412-5.739-23.979-4.617c-.24.177-.57.525-.945.998-.285.369.435 1.918.06 2.421-.7.945-2.586.999-3.457 2.214-1.971 2.76-4.356 5.942-6.663 8.159-10.97 10.496-30.279 9.798-40.526 0-2.31-2.217-4.677-5.398-6.666-8.16-.888-1.214-2.757-1.268-3.438-2.213-.392-.503.33-2.053.026-2.42-.377-.474-.689-.822-.93-.999-.146-.105-.477-.149-.954-.144z"/>
    </g>
    <g stroke-width="1.622">
        <path fill="url(#linearGradient4814)" d="M75.854 17.794c-7.467.08-37.227 7.74-37.227 7.74s18.297 21.547 15.448 79.254c-1.292 26.263-17.888 48.997-18.45 49.768-1.287 1.8 3.003 86.76 3.633 87.238.658.537 2.324-.21 4.68.147 1.537.213 2.606 1.112 4.678 1.023 4.02-.067 8.608-1.653 13.65-1.262 7.655.592 15.373 3.146 20.397 3.405 5.195.323 12.494-.797 19.859-.827 10.515-.037 40.464-.036 50.922 0 7.39.03 14.723 1.148 19.887.825 5.03-.257 12.715-2.81 20.427-3.403 4.987-.389 9.606 1.197 13.594 1.262 2.101.09 3.198-.81 4.68-1.023 2.354-.356 4.05.391 4.68-.147.684-.477 4.975-85.435 3.658-87.238-.562-.771-17.16-23.506-18.479-49.77-2.818-57.707 15.506-79.252 15.506-79.252s-36.266-9.33-38.8-7.505c-.39.288-.923.853-1.53 1.623-.461.599.704 3.118.096 3.935-1.131 1.537-4.184 1.624-5.594 3.6-3.19 4.489-7.048 9.66-10.781 13.265-17.75 17.065-48.997 15.931-65.579 0-3.737-3.605-7.568-8.776-10.785-13.265-1.438-1.976-4.462-2.063-5.564-3.6-.634-.818.533-3.337.043-3.935-.61-.77-1.115-1.336-1.504-1.623-.238-.171-.772-.243-1.545-.235z" transform="matrix(.61799 0 0 .61504 48.927 12.18)"/>
        <path fill="none" stroke="#000" stroke-miterlimit="10" d="M102.522 244.281c-7.365.03-14.664 1.15-19.859.826-5.024-.259-12.74-2.81-20.396-3.403-5.042-.39-9.63 1.194-13.65 1.261-2.073.09-3.142-.81-4.679-1.023-2.356-.356-4.022.39-4.68-.147-.63-.479-4.92-85.437-3.632-87.238.561-.77 17.158-23.505 18.45-49.768 2.85-57.707-15.449-79.253-15.449-79.253s36.237-9.33 38.772-7.506c.39.287.894.852 1.504 1.622.49.598-.676 3.117-.042 3.935 1.102 1.537 4.125 1.624 5.563 3.6 3.217 4.49 7.05 9.661 10.786 13.266 16.582 15.931 47.83 17.065 65.58 0 3.732-3.605 7.591-8.777 10.78-13.266 1.41-1.976 4.463-2.063 5.594-3.6.608-.817-.558-3.336-.097-3.935.607-.77 1.141-1.334 1.53-1.622 2.535-1.824 38.801 7.505 38.801 7.505s-18.324 21.546-15.506 79.253c1.318 26.264 17.917 48.997 18.48 49.768 1.316 1.803-2.976 86.761-3.66 87.238-.63.538-2.325-.208-4.679.148-1.482.213-2.58 1.111-4.68 1.022-3.989-.065-8.607-1.65-13.594-1.26-7.712.592-15.398 3.145-20.428 3.402-5.164.323-12.496-.796-19.886-.825-10.458-.036-40.408-.037-50.923 0z" transform="matrix(.61799 0 0 .61504 48.927 12.18)"/>
        <path fill="#faa" stroke="#000" stroke-miterlimit="10" d="M38.466 24.546c.052-.2 12.708-7.687 17.583-8.34 8.451-1.207 17.563-.477 17.679-.434.975.487 6.109 9.081 5.816 9.665-.292.585-32.899 13.959-33.854 13.366-.922-.593-7.418-12.989-7.224-14.257z" transform="matrix(.61799 0 0 .61504 48.927 12.18)"/>
        <path fill="#ffd5d5" d="M72.255 26.387c-.732.05.844 1.918.844 1.918l21.731-5.177s.06-1.161-.723-1.7c-.4-.279-2.577-.12-4.82-.24-2.241-.12-4.55-.519-5.743-.36-1.158.139-3.752 1.686-6.107 3.04-3.616 2.1-4.217 2.459-5.182 2.52z"/>
        <path fill="url(#linearGradient4867)" stroke="#000" stroke-miterlimit="10" d="M37.262 22.416c-1.185.08 1.365 3.118 1.365 3.118l35.165-8.417s.097-1.888-1.17-2.765c-.648-.453-4.17-.195-7.8-.39-3.627-.195-7.363-.843-9.294-.585-1.873.226-6.07 2.741-9.882 4.944-5.85 3.413-6.823 3.997-8.384 4.095z" transform="matrix(.61799 0 0 .61504 48.927 12.18)"/>
        <path fill="#ffd5d5" d="M74.024 30.535s5.624-5.047 9.961-6.306c4.338-1.26 11.98-.393 11.98-.393l1.396 2.353s-6.375-1.363-11.96.797c-5.6 2.162-10.11 6.006-10.11 6.006z"/>
        <path fill="url(#linearGradient4859)" stroke="#000" stroke-miterlimit="10" d="M40.612 29.843s9.1-8.206 16.119-10.253c7.019-2.048 19.385-.639 19.385-.639l2.259 3.825s-10.316-2.216-19.352 1.297c-9.064 3.515-16.361 9.765-16.361 9.765z" transform="matrix(.61799 0 0 .61504 48.927 12.18)"/>
        <path fill="none" stroke="#000" stroke-miterlimit="10" d="M44.031 36.331s9.425-8.791 17.064-11.089c2.855-.831 6.132-.313 8.895-.098 4.612.383 8.138 1.03 8.138 1.03" transform="matrix(.61799 0 0 .61504 48.927 12.18)"/>
        <path fill="none" stroke="#000" stroke-miterlimit="10" stroke-width=".811" d="M45.073 38.008s2.918-4.183 7.466-7.444c5.319-3.803 12.409-6.699 13.258-5.03.776 1.552-7.734 4.186-12.575 7.02-4.895 2.895-6.091 5.956-6.091 5.956" transform="matrix(.61799 0 0 .61504 48.927 12.18)"/>
        <path fill="#fca" d="M98.084 27.825s.557-.674 1.987.48c1.411 1.174 13.177 11.634 13.478 12.174.301.538-.47 4.635-.904 4.675-.431.023-32.904 2.782-32.997 2.382-.076-.383-2.425-10.297-2.255-10.909.168-.628 20.691-8.802 20.691-8.802z"/>
        <path fill="url(#linearGradient4890)" stroke="#000" stroke-miterlimit="10" d="M79.545 25.437s.901-1.097 3.215.78c2.284 1.909 21.322 18.916 21.809 19.793.488.875-.761 7.537-1.462 7.602-.698.037-53.244 4.523-53.395 3.872-.123-.622-3.924-16.741-3.648-17.736.272-1.021 33.481-14.311 33.481-14.311z" transform="matrix(.61799 0 0 .61504 48.927 12.18)"/>
        <path fill="#f95" d="M80.551 38.26c.06.433.663 5.096 1.145 5.276.482.18 3.25-1.424 5.241-1.86 1.99-.45 5.312-.475 5.312-.475s3.01-1.415 6.437-2.161c3.41-.766 6.847-.3 6.85-.78.021-.48.117-5.2-.662-5.268-.761-.067-4.472.334-6.785.83-2.33.496-5.968 1.93-5.968 1.93s-3.685.25-6.437.77c-2.246.419-5.193 1.303-5.133 1.738z"/>
        <path fill="url(#linearGradient4913)" stroke="#000" stroke-miterlimit="10" d="M51.174 42.403c.097.704 1.073 8.285 1.853 8.578.78.292 5.259-2.316 8.48-3.023 3.22-.733 8.595-.773 8.595-.773s4.87-2.301 10.417-3.514c5.519-1.245 11.08-.487 11.085-1.268.034-.78.188-8.456-1.072-8.565-1.232-.109-7.236.543-10.979 1.35-3.772.806-9.657 3.137-9.657 3.137s-5.963.406-10.416 1.251c-3.635.682-8.403 2.12-8.306 2.827z" transform="matrix(.61799 0 0 .61504 48.927 12.18)"/>
        <path fill="#ffb380" d="M163.957 59.708c10.046.43 10.207 1.74 10.207 1.74s.8-3.281 1.043-5.098c.244-1.815.763-8.394.763-8.394s-12.227-1.297-18.001-1.622c-2.887-.145-16.413-.848-29.94-.848-13.526 0-27.054.703-29.94.847-5.771.324-18.02 1.623-18.02 1.623s.541 6.579.785 8.393c.242 1.817 1.024 5.098 1.024 5.098s.179-1.31 10.241-1.74c10.063-.428 61.754-.428 71.838.001z"/>
        <path fill="url(#linearGradient4946)" stroke="#000" stroke-miterlimit="10" d="M186.137 77.275c16.257.698 16.518 2.828 16.518 2.828s1.293-5.334 1.687-8.288c.395-2.951 1.234-13.647 1.234-13.647s-19.785-2.11-29.128-2.638c-4.672-.235-26.559-1.379-48.447-1.379s-43.778 1.144-48.447 1.378c-9.34.527-29.159 2.638-29.159 2.638s.874 10.697 1.268 13.647c.393 2.954 1.657 8.288 1.657 8.288s.29-2.13 16.573-2.828c16.283-.697 99.928-.696 116.244.001z" transform="matrix(.61799 0 0 .61504 48.927 12.18)"/>
        <path fill="#faa" stroke="#000" stroke-miterlimit="10" d="M217.505 24.547c-.026-.2-12.707-7.687-17.58-8.34-8.429-1.207-17.566-.477-17.651-.434-.975.486-6.082 9.08-5.818 9.665.321.585 32.928 13.959 33.824 13.366.949-.594 7.42-12.99 7.225-14.257z" transform="matrix(.61799 0 0 .61504 48.927 12.18)"/>
        <path fill="#ffd5d5" d="M183.802 26.388c.73.05-.844 1.918-.844 1.918l-21.731-5.177s-.042-1.161.723-1.7c.384-.28 2.561-.12 4.82-.24 2.26-.12 4.57-.52 5.762-.36 1.139.139 3.75 1.685 6.088 3.04 3.615 2.099 4.217 2.459 5.182 2.519z"/>
        <path fill="url(#linearGradient5004)" stroke="#000" stroke-miterlimit="10" d="M218.25 23.1c1.182.08-1.365 3.118-1.365 3.118l-35.165-8.417s-.068-1.888 1.17-2.765c.622-.453 4.145-.195 7.801-.39 3.656-.195 7.395-.843 9.323-.585 1.842.226 6.068 2.741 9.851 4.944 5.85 3.412 6.824 3.997 8.385 4.095z" transform="matrix(.61799 0 0 .61504 48.927 12.18)"/>
        <path fill="#ffd5d5" d="M182.015 30.535s-5.604-5.047-9.942-6.306c-4.34-1.26-11.963-.393-11.963-.393l-1.414 2.353s6.376-1.363 11.958.798c5.62 2.162 10.112 6.006 10.112 6.006z"/>
        <path fill="url(#linearGradient5035)" stroke="#000" stroke-miterlimit="10" d="M215.358 29.843s-9.067-8.206-16.088-10.253c-7.021-2.048-19.358-.639-19.358-.639l-2.287 3.825s10.317-2.216 19.349 1.298c9.095 3.515 16.364 9.765 16.364 9.765z" transform="matrix(.61799 0 0 .61504 48.927 12.18)"/>
        <path fill="none" stroke="#000" stroke-miterlimit="10" d="M211.968 36.332s-9.394-8.791-17.034-11.088c-2.884-.832-6.164-.314-8.924-.098-4.639.383-8.165 1.03-8.171 1.03" transform="matrix(.61799 0 0 .61504 48.927 12.18)"/>
        <path fill="none" stroke="#000" stroke-miterlimit="10" stroke-width=".811" d="M210.956 38.009s-2.921-4.183-7.522-7.444c-5.296-3.803-12.379-6.699-13.26-5.03-.719 1.552 7.764 4.186 12.607 7.02 4.892 2.895 6.086 5.956 6.086 5.956" transform="matrix(.61799 0 0 .61504 48.927 12.18)"/>
        <path fill="#fca" d="M157.973 27.826s-.575-.675-1.97.48c-1.429 1.174-13.21 11.634-13.494 12.173-.32.54.472 4.636.886 4.676.45.023 32.922 2.782 33.017 2.397.056-.399 2.423-10.313 2.27-10.925-.188-.627-20.709-8.801-20.709-8.801z"/>
        <path fill="url(#linearGradient5074)" stroke="#000" stroke-miterlimit="10" d="M176.455 25.438s-.931-1.097-3.189.78c-2.311 1.909-21.376 18.916-21.835 19.793-.517.877.765 7.537 1.434 7.602.728.037 53.273 4.523 53.427 3.898.091-.649 3.92-16.768 3.674-17.763-.305-1.02-33.511-14.31-33.511-14.31z" transform="matrix(.61799 0 0 .61504 48.927 12.18)"/>
        <path fill="#f95" d="M175.489 38.26c-.041.433-.644 5.096-1.126 5.276-.482.18-3.253-1.424-5.26-1.86-1.972-.45-5.312-.475-5.312-.475s-2.974-1.415-6.421-2.161c-3.408-.766-6.862-.3-6.866-.78-.007-.48-.116-5.2.682-5.268.758-.067 4.47.334 6.783.83 2.314.496 5.95 1.93 5.95 1.93s3.702.25 6.457.77c2.226.419 5.192 1.303 5.113 1.738z"/>
        <path fill="url(#linearGradient5105)" stroke="#000" stroke-miterlimit="10" d="M204.798 42.403c-.066.704-1.042 8.285-1.822 8.578-.779.292-5.263-2.316-8.512-3.023-3.19-.733-8.595-.773-8.595-.773s-4.812-2.301-10.39-3.514c-5.514-1.245-11.104-.487-11.111-1.268-.01-.78-.187-8.456 1.104-8.565 1.226-.109 7.234.543 10.976 1.35 3.745.806 9.628 3.137 9.628 3.137s5.991.406 10.448 1.251c3.602.682 8.402 2.12 8.274 2.827z" transform="matrix(.61799 0 0 .61504 48.927 12.18)"/>
        <path fill="#ffe6d5" stroke="#000" stroke-miterlimit="10" stroke-width=".811" d="M68.82 54.88c-1.073.585-2.633 9.915-2.047 10.499.585.585 23.369-.042 23.857-.443.487-.432.195-10.056-.098-10.543-.293-.488-20.639-.098-21.712.487zM187.181 54.881c1.043.585 2.604 9.916 2.019 10.5-.585.584-23.338-.042-23.86-.444-.452-.432-.192-10.055.133-10.542.256-.489 20.664-.099 21.708.486z" transform="matrix(.61799 0 0 .61504 48.927 12.18)"/>
        <path fill="#f95" stroke="#000" stroke-miterlimit="10" d="M87.155 76.49c-.478-.467-.007-18.226.431-18.934.471-.705 80.386-.705 80.828 0 .436.708.938 18.467.429 18.934-.447.466-81.209.465-81.688 0z" transform="matrix(.61799 0 0 .61504 48.927 12.18)"/>
        <path fill="#f55" stroke="#000" stroke-miterlimit="10" d="M60.532 100.937c-.682-.488.975-21.81 1.658-22.492.683-.682 130.91-.682 131.621 0 .653.683 2.34 22.004 1.629 22.492-.301.258-34.809 2.338-68.351 2.338-33.568.001-66.201-2.08-66.557-2.338z" transform="matrix(.61799 0 0 .61504 48.927 12.18)"/>
        <path fill="none" stroke="#000" stroke-miterlimit="10" stroke-width=".406" d="M64.14 91.995v6.211s50.473 2.34 61.78 2.34c11.279 0 65.94-2.339 65.94-2.339v-6.212" transform="matrix(.61799 0 0 .61504 48.927 12.18)"/>
        <path fill="#faa" stroke="#000" stroke-miterlimit="10" d="M190.954 79.713l.906 12.575s-56.29 1.755-65.94 1.755c-9.65 0-61.78-1.755-61.78-1.755l.877-12.575s50.863 1.192 60.513 1.192c9.65 0 65.424-1.192 65.424-1.192z" transform="matrix(.61799 0 0 .61504 48.927 12.18)"/>
        <path fill="none" stroke="#000" stroke-miterlimit="10" stroke-width="1.217" d="M85.549 80.022v12.561M105.445 80.611v12.502" transform="matrix(.61799 0 0 .61504 48.927 12.18)"/>
        <path fill="none" stroke="#000" stroke-miterlimit="10" d="M61.132 101.025s-.895 16.508-.742 37.155c.033 6.901 1.21 14.135 1.214 21.582.005 10.527-.504 21.033-.473 30.416.042 4.271.072 8.244.139 11.897.143 10.926.416 18.512.432 19.688.058 2.122 1.773 5.909 2.247 9.819.608 5.12 0 10.29 0 10.29" transform="matrix(.61799 0 0 .61504 48.927 12.18)"/>
        <path fill="#faa" stroke="#000" stroke-miterlimit="10" d="M191.86 150.334l-1.112-49.057s-53.033 1.999-62.748 1.999c-9.688 0-62.777-1.999-62.777-1.999l-1.083 49.058h127.72z" transform="matrix(.61799 0 0 .61504 48.927 12.18)"/>
        <path fill="none" stroke="#000" stroke-miterlimit="10" d="M64.931 114.393S91.6 116.339 128 116.042c36.374-.288 63.068-1.649 63.068-1.649M64.653 126.759s50.479.891 63.347.891c12.871 0 63.314-.891 63.314-.891" transform="matrix(.61799 0 0 .61504 48.927 12.18)"/>
        <path fill="none" stroke="#000" stroke-miterlimit="10" stroke-width="1.217" d="M67.07 101.334l-.395 11.105s22.976 2.058 61.325 1.953c38.322-.096 61.325-1.953 61.325-1.953l-.395-11.077" transform="matrix(.61799 0 0 .61504 48.927 12.18)"/>
        <path fill="#f55" stroke="#000" stroke-miterlimit="10" d="M84.069 235.805c-5.785-.568-10.098-1.838-13.396-2.076-2.149-.176-4.216.12-4.287 0-.39-.585-1.592-10.402-.87-10.987.157-.135 3.023.208 6.336.678 2.366.367 4.6.924 7.898 1.104 16.213.829 80.286.829 96.5 0 3.298-.181 5.503-.736 7.869-1.104 3.313-.47 6.206-.813 6.365-.679.748.585-.51 10.402-.899 10.987-.043.12-2.079-.176-4.229 0-3.302.238-7.611 1.509-13.427 2.076-8.051.78-26.908 1.95-45.036 1.887-17.805-.005-34.919-1.175-42.824-1.886zM64.045 187.802c-.39-.585 0-11.7.751-12.285.328-.251 30.393.141 61.124.135 32.109-.008 64.93-.46 65.311-.134.694.585 1.085 11.7.694 12.285-.39.585-127.49.584-127.88-.001zM65.213 210.723c-.39-.585-.722-12.032 0-12.618.156-.135 3.023.202 6.336.673 2.363.372 4.6.929 7.898 1.104 8.436.433 29.688 1.425 50.731 1.412 19.343-.012 38.628-1.004 46.402-1.412 3.241-.176 5.505-.731 7.869-1.104 3.313-.471 6.212-.808 6.308-.674.748.586.391 12.033 0 12.618-.192.318-31.261 3.308-62.011 3.312-31.802.006-63.336-2.986-63.533-3.311zM63.652 163.595c-.39-.585 0-11.701.75-12.286.346-.263 30.88.136 62.297.134 31.8 0 64.553-.398 64.925-.134.695.585 1.085 11.701.695 12.286-.39.585-128.277.585-128.667 0z" transform="matrix(.61799 0 0 .61504 48.927 12.18)"/>
        <path fill="none" stroke="#000" stroke-miterlimit="10" stroke-width=".811" d="M84.804 102.107l-.487 10.937M103.305 102.503v11.211M84.317 116.447l-.39 9.084M103.305 116.863v9.047M84.122 128.088l-.586 9.495M103.305 128.611v9.472M84.122 140.624l-.292 8.926M102.911 141.131l-.585 8.742" transform="matrix(.61799 0 0 .61504 48.927 12.18)"/>
        <path fill="none" stroke="#000" stroke-miterlimit="10" stroke-width="1.217" d="M65.992 151.164v12.631M84.545 151.309v12.486M102.911 151.442v12.353M66.385 175.37v12.632M84.939 175.517v12.485M103.305 175.65v12.352M66.97 198.003v13.004M83.767 200.085v11.974M102.132 200.679l.001 12.37M67.357 222.818l1.073 10.911M84.069 224.727v11.078M102.437 225.314l.001 12.376" transform="matrix(.61799 0 0 .61504 48.927 12.18)"/>
        <path fill="#58595b" stroke="#000" stroke-miterlimit="10" d="M72.52 223.552s-4.961-2.373-5.55-1.982c-.588.39 0 2.604 0 2.604z" transform="matrix(.61799 0 0 .61504 48.927 12.18)"/>
        <path fill="#faa" stroke="#000" stroke-miterlimit="10" d="M55.66 240.749l-5.265-41.726 1.364-37.378 5.653-1.102 3.608 77.601z" transform="matrix(.61799 0 0 .61504 48.927 12.18)"/>
        <path fill="#faa" stroke="#000" stroke-miterlimit="10" d="M57.997 161.323v3.314s-2.636-.033-2.274-1.628c.33-1.601 2.274-1.686 2.274-1.686z" transform="matrix(.61799 0 0 .61504 48.927 12.18)"/>
        <path fill="none" stroke="#000" stroke-miterlimit="10" d="M57.659 165.423s.393.525-.825 1.881a.596.596 0 0 1-.344.238c-.446.173-.857-.076-1.221.147-.524.359-.907 1.437-.907 1.437M57.464 222.728s.147-21.038-.63-29.107c-.777-8.128-3.26-11.508-3.26-11.508" transform="matrix(.61799 0 0 .61504 48.927 12.18)"/>
        <path fill="none" stroke="#000" stroke-miterlimit="10" d="M56.49 167.542s.636.417.987 6.845c.319 6.426.225 16.894.225 16.894" transform="matrix(.61799 0 0 .61504 48.927 12.18)"/>
        <path fill="#faa" stroke="#000" stroke-miterlimit="10" d="M61.581 230.627s-.954.58-1.731 2.643c-.504 1.29-1.659 3.184-2.138 4.421-.304.857.074 1.43-.248 1.43h-1.646l-.581-16.393z" transform="matrix(.61799 0 0 .61504 48.927 12.18)"/>
        <path fill="#faa" stroke="#000" stroke-miterlimit="10" d="M55.237 222.728s7.052 6.905 6.27 7.507c-2.574 2.054-6.27-7.507-6.27-7.507z" transform="matrix(.61799 0 0 .61504 48.927 12.18)"/>
        <path fill="#ff8080" d="M70.026 110.562c1.15-.753 3.46-.014 5.843 0 3.946.06 8.298-.479 8.537.36.241.839-1.8-2.33-2.046 8.593-.077 3.628-.6 4.942-.484 9.874.187 8.283 1.14 18.279 1.508 24.638.213 3.498-.011 6.105-.06 6.225-.322.855-15.647-1.362-16.491-2.68-.322-.542 1.266-7.735 1.506-16.147.37-13.132-.184-29.596 1.687-30.863z"/>
        <path fill="url(#linearGradient5151)" stroke="#000" stroke-miterlimit="10" d="M34.143 159.958c1.861-1.224 5.598-.022 9.455 0 6.384.098 13.426-.778 13.814.585.39 1.365-2.913-3.786-3.312 13.972-.124 5.899-.97 8.035-.782 16.054.302 13.467 1.844 29.72 2.44 40.059.344 5.688-.018 9.926-.098 10.122-.52 1.39-25.319-2.215-26.685-4.359-.52-.881 2.049-12.575 2.438-26.252.597-21.351-.299-48.121 2.73-50.181z" transform="matrix(.61799 0 0 .61504 48.927 12.18)"/>
        <path fill="none" stroke="#000" stroke-miterlimit="10" d="M55.27 160.475s-2.55.265-2.633 7.604c-.013 1.383-.11 5.309-.487 10.141-.21 2.734-.837 5.482-.78 8.839.33 13.076 2.052 29.867 2.828 41.215.535 7.604.196 12.804.196 12.804" transform="matrix(.61799 0 0 .61504 48.927 12.18)"/>
        <path fill="#f55" d="M81.324 119.279s-5.332-.126-9.249-.364c-1.986-.12-3.689-.708-3.977-.439-.844.839-.603 6.552-.482 7.074.12.558 1.556.601 3.185.798 3.83.403 9.869.6 9.869.6z"/>
        <path fill="url(#linearGradient5174)" stroke="#000" stroke-miterlimit="10" d="M52.424 174.131s-8.627-.205-14.966-.591c-3.213-.194-5.969-1.151-6.436-.714-1.365 1.364-.975 10.653-.78 11.502.195.906 2.518.977 5.155 1.297 6.197.655 15.969.975 15.969.975z" transform="matrix(.61799 0 0 .61504 48.927 12.18)"/>
        <path fill="none" stroke="#000" stroke-miterlimit="10" stroke-width="1.217" d="M41.648 173.75v12.333M32.507 172.81v12.477" transform="matrix(.61799 0 0 .61504 48.927 12.18)"/>
        <path fill="#f55" d="M81.014 134.385s-5.307.005-9.18-.424c-2.211-.234-3.86-1.22-4.037-.855-.482 1.038-.241 6.16 0 7.24.24 1.079 13.808 1.875 13.808 1.875z"/>
        <path fill="url(#linearGradient5197)" stroke="#000" stroke-miterlimit="10" d="M51.922 198.692s-8.587.009-14.854-.689c-3.578-.381-6.247-1.984-6.533-1.39-.78 1.687-.39 10.015 0 11.77.39 1.755 22.344 3.049 22.344 3.049z" transform="matrix(.61799 0 0 .61504 48.927 12.18)"/>
        <path fill="none" stroke="#000" stroke-miterlimit="10" stroke-width="1.217" d="M32.507 196.952l-.632 12.158M36.08 197.849v12.052M43.166 198.43v12.577" transform="matrix(.61799 0 0 .61504 48.927 12.18)"/>
        <path fill="#f55" d="M82.6 157.57s-5.702-.422-9.448-.826c-.954-.107-1.786-.22-2.35-.33-2.836-.504-4.572-1.833-4.572-1.833s.542-6.725.904-7.048c.361-.288.803 0 .803 0s.341.804 3.896 1.324c3.553.557 10.382.839 10.382.839z"/>
        <path fill="url(#linearGradient5235)" stroke="#000" stroke-miterlimit="10" d="M54.49 236.39s-9.228-.687-15.29-1.344c-1.543-.175-2.889-.358-3.803-.537-4.588-.819-7.397-2.98-7.397-2.98s.877-10.935 1.462-11.459c.585-.468 1.3 0 1.3 0s.552 1.306 6.305 2.153c5.749.905 16.799 1.363 16.799 1.363z" transform="matrix(.61799 0 0 .61504 48.927 12.18)"/>
        <path fill="none" stroke="#000" stroke-miterlimit="10" stroke-width="1.217" d="M32.973 221.347v12.566M38.657 222.223v12.726M44.674 223.015l.482 12.622" transform="matrix(.61799 0 0 .61504 48.927 12.18)"/>
        <path fill="none" stroke="#000" stroke-miterlimit="10" stroke-width=".406" d="M165.666 76.667s.387-17.443 0-17.719c-.564-.39-74.768-.39-75.33 0-.358.276 0 17.719 0 17.719" transform="matrix(.61799 0 0 .61504 48.927 12.18)"/>
        <path fill="none" stroke="#000" stroke-miterlimit="10" stroke-width="1.217" d="M170.423 80.023v12.561M150.526 80.612v12.502" transform="matrix(.61799 0 0 .61504 48.927 12.18)"/>
        <path fill="none" stroke="#000" stroke-miterlimit="10" d="M194.843 101.026s.92 16.508.764 37.155c-.029 6.901-1.207 14.137-1.211 21.582-.005 10.527.533 21.033.447 30.416a2006.29 2006.29 0 0 1-.086 11.897c-.17 10.926-.414 18.512-.487 19.688-.033 2.122-1.771 5.909-2.218 9.819-.606 5.121 0 10.291 0 10.291M191.624 139.023s-52.869 1.17-63.624 1.17c-10.755 0-63.598-1.17-63.598-1.17" transform="matrix(.61799 0 0 .61504 48.927 12.18)"/>
        <path fill="none" stroke="#000" stroke-miterlimit="10" stroke-width="1.217" d="M65.992 149.29l.487-9.097s47.938.938 60.317.938c12.353 0 62.724-.937 62.724-.937l.459 9.096s-51.095.584-63.183.584c-12.086 0-60.804-.584-60.804-.584zM65.992 137.073v-9.423s41.373.961 61.487.961c20.084 0 62.5-.96 62.5-.96v9.422s-47.09 1.01-62.598 1.01c-15.56 0-61.389-1.01-61.389-1.01zM66.675 125.199v-9.157s26.879.821 62.142.822c35.294 0 60.509-.811 60.509-.811v9.146s-43.81.711-60.772.711c-16.964 0-61.879-.711-61.879-.711z" transform="matrix(.61799 0 0 .61504 48.927 12.18)"/>
        <path fill="none" stroke="#000" stroke-miterlimit="10" stroke-width=".811" d="M171.193 102.107l.52 10.937M152.665 102.504v11.21M171.713 116.447l.388 9.085M152.665 116.864v9.047M171.905 128.09l.586 9.494M152.665 128.611v9.472M171.905 140.624l.262 8.926M153.06 141.131l.586 8.743" transform="matrix(.61799 0 0 .61504 48.927 12.18)"/>
        <path fill="none" stroke="#000" stroke-miterlimit="10" stroke-width="1.217" d="M189.979 151.165v12.63M171.426 151.309v12.486M153.06 151.442v12.353M189.585 175.372v12.63M171.031 175.518v12.484M152.665 175.651v12.351M189 198.004v13.003M172.204 200.085v11.974M153.84 200.679l-.001 12.371M188.614 222.818l-1.044 10.911M171.93 224.727v11.078M153.565 225.315l-.001 12.376" transform="matrix(.61799 0 0 .61504 48.927 12.18)"/>
        <path fill="#58595b" stroke="#000" stroke-miterlimit="10" d="M183.479 223.553s4.934-2.374 5.521-1.983c.589.39 0 2.604 0 2.604z" transform="matrix(.61799 0 0 .61504 48.927 12.18)"/>
        <path fill="#faa" stroke="#000" stroke-miterlimit="10" d="M200.314 240.749l5.261-41.726-1.362-37.378-5.653-1.102-3.58 77.601z" transform="matrix(.61799 0 0 .61504 48.927 12.18)"/>
        <path fill="#faa" stroke="#000" stroke-miterlimit="10" d="M197.975 161.323v3.314s2.665-.032 2.303-1.628c-.357-1.601-2.303-1.686-2.303-1.686z" transform="matrix(.61799 0 0 .61504 48.927 12.18)"/>
        <path fill="none" stroke="#000" stroke-miterlimit="10" d="M198.338 165.424s-.393.524.801 1.88a.892.892 0 0 0 .368.238c.421.173.889-.075 1.197.147.55.36.934 1.438.933 1.438M198.533 222.728s-.171-21.038.605-29.107c.776-8.128 3.285-11.508 3.285-11.508" transform="matrix(.61799 0 0 .61504 48.927 12.18)"/>
        <path fill="none" stroke="#000" stroke-miterlimit="10" d="M199.507 167.542s-.63.417-.983 6.845c-.349 6.426-.226 16.894-.226 16.894" transform="matrix(.61799 0 0 .61504 48.927 12.18)"/>
        <path fill="#faa" stroke="#000" stroke-miterlimit="10" d="M194.419 230.628s.953.579 1.731 2.642c.532 1.29 1.63 3.186 2.14 4.422.273.857-.048 1.429.243 1.429h1.678l.581-16.393z" transform="matrix(.61799 0 0 .61504 48.927 12.18)"/>
        <path fill="#faa" stroke="#000" stroke-miterlimit="10" d="M200.792 222.728s-7.109 6.905-6.328 7.507c2.63 2.054 6.328-7.507 6.328-7.507z" transform="matrix(.61799 0 0 .61504 48.927 12.18)"/>
        <path fill="#ff8080" d="M186.049 110.562c-1.167-.753-3.476-.013-5.862 0-3.962.06-8.312-.479-8.553.36-.242.839 1.798-2.33 2.048 8.593.092 3.628.596 4.942.483 9.874-.169 8.283-1.123 18.279-1.49 24.639-.216 3.497.01 6.104.043 6.224.337.856 15.663-1.362 16.507-2.68.34-.542-1.25-7.735-1.489-16.147-.405-13.132.167-29.596-1.687-30.863z"/>
        <path fill="url(#linearGradient5258)" stroke="#000" stroke-miterlimit="10" d="M221.886 159.957c-1.889-1.224-5.624-.021-9.486 0-6.41.099-13.45-.778-13.84.585-.391 1.365 2.91-3.786 3.315 13.972.149 5.899.963 8.035.781 16.054-.273 13.468-1.817 29.72-2.41 40.06-.35 5.687.015 9.926.068 10.121.546 1.391 25.346-2.215 26.711-4.359.551-.881-2.021-12.575-2.409-26.252-.655-21.351.27-48.12-2.73-50.181z" transform="matrix(.61799 0 0 .61504 48.927 12.18)"/>
        <path fill="none" stroke="#000" stroke-miterlimit="10" d="M200.704 160.475s2.547.268 2.662 7.604c.01 1.383.078 5.309.456 10.141.209 2.734.894 5.482.779 8.839-.274 13.077-2.021 29.867-2.796 41.216-.541 7.604-.195 12.804-.196 12.804" transform="matrix(.61799 0 0 .61504 48.927 12.18)"/>
        <path fill="#f55" d="M174.734 119.279s5.33-.126 9.266-.364c1.968-.118 3.67-.707 3.977-.439.844.839.603 6.552.482 7.074-.12.558-1.558.601-3.205.798-3.845.403-9.885.6-9.885.6z"/>
        <path fill="url(#linearGradient5287)" stroke="#000" stroke-miterlimit="10" d="M203.576 174.131s8.624-.205 14.995-.591c3.184-.193 5.938-1.15 6.435-.714 1.365 1.364.976 10.653.78 11.502-.195.906-2.521.977-5.187 1.297-6.221.655-15.994.975-15.994.975z" transform="matrix(.61799 0 0 .61504 48.927 12.18)"/>
        <path fill="none" stroke="#000" stroke-miterlimit="10" stroke-width="1.217" d="M214.35 173.751v12.332M223.493 172.811v12.476" transform="matrix(.61799 0 0 .61504 48.927 12.18)"/>
        <path fill="#f55" d="M175.061 134.385s5.272.006 9.18-.423c2.195-.235 3.86-1.221 4.02-.856.481 1.038.24 6.16 0 7.24-.242 1.079-13.794 1.875-13.794 1.875z"/>
        <path fill="url(#linearGradient5310)" stroke="#000" stroke-miterlimit="10" d="M204.106 198.692s8.53.01 14.854-.688c3.552-.382 6.247-1.985 6.504-1.391.78 1.687.39 10.015 0 11.77-.39 1.755-22.319 3.05-22.319 3.05z" transform="matrix(.61799 0 0 .61504 48.927 12.18)"/>
        <path fill="none" stroke="#000" stroke-miterlimit="10" stroke-width="1.217" d="M223.493 196.953l.629 12.157M219.945 197.849v12.053M212.805 198.43v12.577" transform="matrix(.61799 0 0 .61504 48.927 12.18)"/>
        <path fill="#f55" d="M173.44 157.57s5.734-.421 9.483-.826c.954-.107 1.75-.22 2.33-.33 2.854-.504 4.574-1.833 4.574-1.833s-.525-6.725-.887-7.047c-.361-.289-.819 0-.819 0s-.344.807-3.88 1.323c-3.573.558-10.382.839-10.382.839z"/>
        <path fill="url(#linearGradient5333)" stroke="#000" stroke-miterlimit="10" d="M201.484 236.39s9.278-.686 15.343-1.344c1.545-.175 2.833-.358 3.772-.537 4.617-.819 7.4-2.98 7.4-2.98s-.849-10.935-1.434-11.458c-.585-.469-1.326 0-1.326 0s-.556 1.312-6.279 2.152c-5.781.906-16.8 1.363-16.8 1.363z" transform="matrix(.61799 0 0 .61504 48.927 12.18)"/>
        <path fill="none" stroke="#000" stroke-miterlimit="10" stroke-width="1.217" d="M223.056 221.349v12.564M217.314 222.223v12.726M211.352 223.015l-.511 12.622M118.22 225.134v12.474M137.908 225.134v12.47M118.22 201.229v12.738M137.908 201.252v12.782M137.908 175.651v12.351M118.22 175.517v12.485M118.22 151.438v12.575M137.908 151.234v12.782M128 80.612v13.082" transform="matrix(.61799 0 0 .61504 48.927 12.18)"/>
        <path fill="none" stroke="#000" stroke-miterlimit="10" stroke-width=".811" d="M118.22 103.276v11.103M137.908 103.276v11.046M118.22 116.847v8.684M137.908 116.447v9.084M118.22 128.563v9.471M137.908 128.611v8.973M118.22 141.083v8.467M137.908 141.131v8.419" transform="matrix(.61799 0 0 .61504 48.927 12.18)"/>
        <path stroke="#000" stroke-miterlimit="10" stroke-width=".811" d="M69.896 38.324l.206 8.861M186.075 38.325l-.206 8.86" transform="matrix(.61799 0 0 .61504 48.927 12.18)"/>
    </g>
    <g stroke-width="1.622">
        <path fill="#fd5" d="M135.14 141.522s.133 2.886-.023 6.564c-.122 2.586-.48 5.572-.55 8.073-.036 2.973.25 5.213.837 5.384.988.241 10.163-.05 18.242.022 6.234.026 11.708.513 12.782-.022 1.762-.925 1.672-9.903 1.554-15.365-.036-2.293.135-3.977.079-4.215-.304-.806-32.922-.44-32.922-.44z"/>
        <path fill="url(#linearGradient5356)" stroke="#010101" stroke-miterlimit="10" d="M139.506 210.297s.217 4.691-.036 10.672c-.197 4.205-.776 9.059-.89 13.126-.058 4.834.405 8.475 1.355 8.753 1.598.393 16.444-.08 29.518.036 10.088.043 18.945.834 20.684-.036 2.851-1.504 2.705-16.101 2.514-24.981-.058-3.729.218-6.467.127-6.853-.492-1.311-53.272-.717-53.272-.717z" transform="matrix(.61799 0 0 .61504 48.927 12.18)"/>
        <path fill="#ffe680" d="M133.832 129.611c-.5.4-.097.766-.334 1.23-.199.469-.635 1.8-.533 2.999.1 1.2 1.185 4.562.962 5.231-.227.633.04 2.296.376 2.363.039.045.346.434 1.606.668 3.453.615 11.086 1.475 18.44 1.534 2.074.005 4.375-.286 6.66-.436 1.427-.107 2.949-.014 4.082-.234 2.55-.464 3.597-1.008 3.719-1.204.701-1 .131-1.692.098-2.424-.07-.735-.403-1.3-.202-1.633.04-.07.277-.742.377-1.588.112-.934.094-2.073.328-3.14.249-1.183 1.136-1.799.9-2.53-.17-.611-2.312-1.346-6.557-1.77-.862-.055-1.564-.344-2.645-.365-1.452-.025-3.282.224-4.92.233-3.254.022-6.334.345-9.538.469-1.578.042-3.02-.239-4.417-.2-4.669.192-8.265.68-8.402.797z"/>
        <path fill="url(#linearGradient5383)" stroke="#010101" stroke-miterlimit="10" d="M137.391 190.931c-.81.649-.158 1.245-.541 2-.321.761-1.027 2.925-.862 4.875.161 1.95 1.918 7.418 1.557 8.506-.368 1.028.063 3.733.608 3.842.063.073.56.705 2.598 1.086 5.588.999 17.939 2.398 29.839 2.493 3.356.008 7.08-.464 10.778-.708 2.308-.174 4.771-.024 6.604-.381 4.126-.755 5.821-1.639 6.018-1.958 1.135-1.624.213-2.75.16-3.94-.113-1.195-.653-2.114-.327-2.655.063-.115.448-1.208.61-2.583.18-1.518.152-3.37.53-5.105.403-1.924 1.838-2.925 1.457-4.114-.276-.993-3.741-2.188-10.611-2.877-1.395-.089-2.531-.559-4.28-.594-2.35-.041-5.31.364-7.961.379-5.265.035-10.25.561-15.434.762-2.553.069-4.886-.388-7.148-.326-7.554.314-13.374 1.107-13.595 1.298z" transform="matrix(.61799 0 0 .61504 48.927 12.18)"/>
        <path fill="none" stroke="#010101" stroke-miterlimit="10" stroke-width=".811" d="M137.938 191.687l.563.232s-.159 2.951.079 5.887c.303 2.934 1.9 9.896 1.9 9.896" transform="matrix(.61799 0 0 .61504 48.927 12.18)"/>
        <path fill="none" stroke="#010101" stroke-miterlimit="10" stroke-width=".406" d="M139.181 191.955s.014 5.457.397 7.816c.382 2.365 2.108 8.142 2.108 8.142" transform="matrix(.61799 0 0 .61504 48.927 12.18)"/>
        <path fill="none" stroke="#010101" stroke-miterlimit="10" stroke-width=".811" d="M137.544 206.312s.411.646 1.17.975c.952.331 2.413.446 4.495.901 2.241.546 5.505.756 8.394 1.316 1.34.239 1.551.627 2.974.831.969.153 2.483-.579 3.471-.434 3.295.411 6.289 1.586 9.615 1.553 3.903-.043 7.931-.188 11.304-.632 2.339-.339 3.068-.916 4.924-1.318 2.378-.53 5.292-.635 7.137-1.029 2.256-.526 3.178-1.188 3.178-1.188" transform="matrix(.61799 0 0 .61504 48.927 12.18)"/>
        <path fill="none" stroke="#010101" stroke-miterlimit="10" stroke-width=".406" d="M195.52 192.447l-3.097 15.646M137.544 207.702s5.245 1.65 12.789 2.761c2.147.275 5.337.552 7.605.81 3.702.438 6.996.823 10.651.905a85.211 85.211 0 0 0 15.316-1.309c6.385-1.145 10.525-2.591 10.525-2.591" transform="matrix(.61799 0 0 .61504 48.927 12.18)"/>
        <path fill="none" stroke="#010101" stroke-miterlimit="10" stroke-width=".406" d="M137.627 209.254s15.163 3.136 30.346 3.228c15.128.144 26.459-2.781 26.459-2.781" transform="matrix(.61799 0 0 .61504 48.927 12.18)"/>
        <path fill="#fea" stroke="#010101" stroke-miterlimit="10" d="M158.802 189.378c-.108.063.259.377 1.062.465.808.146 2.107.128 2.748 1.287.957 1.631.676 6.509.795 6.715.396.523 6.93.555 7.363.395.429-.107.004-4.313.833-6.948.591-1.898 2.15-2.352 2.076-2.479-.105-.042-1.339.188-2.875.203-4.191.044-11.815.151-12.002.362z" transform="matrix(.61799 0 0 .61504 48.927 12.18)"/>
        <path fill="none" stroke="#010101" stroke-miterlimit="10" stroke-width=".406" d="M163.204 190.14s.96 1.176 1.164 1.815c.202.706.146 1.394.146 1.394h5.313s.146-.784.33-1.608c.183-.818.843-1.601.843-1.601" transform="matrix(.61799 0 0 .61504 48.927 12.18)"/>
        <path fill="#ffd42a" stroke="#010101" stroke-miterlimit="10" d="M163.549 200.857c-1.141.023-1.751 4.12-1.586 4.731.027.185.395-.183.666-.146.759.15 1.88.414 1.88.414s.181-5.015-.96-4.999z" transform="matrix(.61799 0 0 .61504 48.927 12.18)"/>
        <path fill="none" stroke="#010101" stroke-miterlimit="10" stroke-width=".811" d="M163.687 200.875c-.177.049-.327 2.544-.153 3.375.176.893.4 1.707.4 1.707l.425-.979s.102-1.974-.09-3.089c-.153-.803-.527-1.041-.582-1.014z" transform="matrix(.61799 0 0 .61504 48.927 12.18)"/>
        <path fill="#ffd42a" stroke="#010101" stroke-miterlimit="10" d="M170.013 201.103c1.138.056 1.559 4.167 1.374 4.832-.031.184-.388-.195-.659-.165-.761.069-1.891.354-1.891.354s.041-5.075 1.176-5.021z" transform="matrix(.61799 0 0 .61504 48.927 12.18)"/>
        <path fill="none" stroke="#010101" stroke-miterlimit="10" stroke-width=".811" d="M169.931 201.11c.123.119.192 2.552-.067 3.439-.198.83-.452 1.632-.452 1.632l-.398-.991s.021-1.969.248-3.083c.177-.797.558-1.018.669-.997z" transform="matrix(.61799 0 0 .61504 48.927 12.18)"/>
        <path fill="none" stroke="#010101" stroke-miterlimit="10" d="M161.652 209.681h.959v5.658s-.492.04-.813-.509c-.263-.499-.146-5.149-.146-5.149zM171.511 210.077h-.954v5.658s.546.04.81-.51c.319-.496.144-5.148.144-5.148z" transform="matrix(.61799 0 0 .61504 48.927 12.18)"/>
        <path fill="none" stroke="#010101" stroke-miterlimit="10" stroke-width=".811" d="M162.146 210.463l2.719-1.37-2.719-.365zM171.223 208.886l-.202 2.386-2.184-2.2z" transform="matrix(.61799 0 0 .61504 48.927 12.18)"/>
        <path fill="#ffd42a" stroke="#010101" stroke-miterlimit="10" d="M163.329 196.205s-.718-.054-.97.792c-.33.97-.176 2.757-.112 2.937.185.346.963.34 1.715.748.529.246.509 3.895-.015 4.36-.469.53-2.13.53-2.146 1.142l-.149 3.07c.199.086 9.879.686 9.95.25v-3.192c-.236-.667-2.021-.776-2.021-1.302 0-.523-.364-3.703.182-4.063.83-.568 1.616-.379 1.989-.677.373-.349.177-2.265.173-2.932-.002-.729-.925-.86-.925-.86v2.719c-.397.543-7.253.509-7.778-.052zM162.611 214.609l7.945.167v.959s-3.553.032-4.6.002c-.985-.038-3.346-.398-3.346-.398v-.73z" transform="matrix(.61799 0 0 .61504 48.927 12.18)"/>
        <path fill="#fea" stroke="#010101" stroke-miterlimit="10" d="M162.611 211.014h7.945v2.45h-7.945z" transform="matrix(.61799 0 0 .61504 48.927 12.18)"/>
        <path fill="#fea" fill-opacity=".941" stroke="#010101" stroke-miterlimit="10" d="M162.125 215.181s-.158 2.311-.146 5.398c.012 2.249.208 4.962.167 7.61-.147 4.917-.585 9.368-.529 9.473.199.356 7.267.546 7.539.356.07-.06.452-4.522.595-9.425.045-2.5-.181-5.089-.108-7.341.164-3.163.385-5.53.385-5.53z" transform="matrix(.61799 0 0 .61504 48.927 12.18)"/>
        <path fill="#fea" stroke="#010101" stroke-miterlimit="10" d="M162.384 232.979c-.163.146.05.757-.024 1.353-.127.568-.543 1.179-.633 1.758-.19.895-.11 1.572-.11 1.572s2.181.365 3.526.409c1.354.098 4.013-.053 4.013-.053s-.272-1.237.029-2.195c.088-.495.552-.949.644-1.46.161-.477.331-.815 0-1.007-.187-.083-3.023-.092-5.138-.213-1.281-.034-2.119-.268-2.307-.164z" transform="matrix(.61799 0 0 .61504 48.927 12.18)"/>
        <path fill="#fd5" d="M121.168 141.363s-.136 2.885.039 6.528c.121 2.623.48 5.607.53 8.073.056 2.973-.247 5.248-.837 5.384-1.003.242-10.177-.014-18.239.022-6.217.065-11.708.552-12.784-.022-1.744-.89-1.672-9.867-1.554-15.367.054-2.292-.134-3.975-.061-4.213.287-.77 32.906-.405 32.906-.405z"/>
        <path fill="url(#linearGradient5416)" stroke="#010101" stroke-miterlimit="10" d="M116.899 210.038s-.22 4.691.062 10.614c.197 4.264.776 9.116.858 13.126.091 4.834-.4 8.532-1.354 8.753-1.623.393-16.469-.022-29.514.036-10.06.106-18.945.897-20.687-.036-2.822-1.446-2.705-16.043-2.514-24.985.087-3.726-.217-6.463-.099-6.849.465-1.253 53.248-.659 53.248-.659z" transform="matrix(.61799 0 0 .61504 48.927 12.18)"/>
        <path fill="#ffe680" d="M122.474 129.417c.502.435.082.8.317 1.268.233.465.652 1.8.552 2.995-.084 1.2-1.17 4.562-.944 5.196.207.632-.06 2.296-.396 2.398-.055.01-.326.398-1.621.632-3.418.65-11.07 1.514-18.424 1.534-2.073.004-4.392-.25-6.66-.4-1.427-.104-2.932-.05-4.083-.235-2.55-.463-3.577-1.043-3.698-1.204-.704-1.034-.15-1.691-.102-2.459.052-.735.369-1.265.184-1.598-.057-.106-.292-.743-.377-1.588-.11-.934-.092-2.11-.308-3.176-.267-1.147-1.171-1.799-.936-2.531.189-.61 2.327-1.345 6.574-1.73.881-.093 1.564-.347 2.645-.369 1.452-.06 3.3.189 4.903.233 3.252.023 6.372.31 9.538.433 1.594.078 3.019-.239 4.451-.165 4.652.16 8.249.649 8.385.766z"/>
        <path fill="url(#linearGradient5453)" stroke="#010101" stroke-miterlimit="10" d="M119.011 190.614c.813.708.133 1.303.514 2.063.377.755 1.055 2.925.892 4.869-.135 1.95-1.892 7.418-1.527 8.448.336 1.028-.096 3.733-.64 3.899-.089.016-.528.647-2.624 1.028-5.53 1.057-17.913 2.462-29.813 2.493-3.354.008-7.106-.406-10.775-.65-2.311-.168-4.746-.082-6.608-.381-4.127-.753-5.789-1.696-5.985-1.958-1.138-1.682-.243-2.75-.164-3.998.084-1.195.596-2.057.298-2.598-.093-.173-.474-1.208-.611-2.583-.179-1.518-.148-3.43-.498-5.163-.433-1.866-1.895-2.925-1.515-4.116.306-.991 3.765-2.187 10.638-2.812 1.426-.152 2.531-.564 4.28-.6 2.349-.099 5.341.307 7.934.379 5.262.037 10.311.503 15.434.704 2.58.127 4.885-.389 7.203-.269 7.527.262 13.347 1.055 13.567 1.245z" transform="matrix(.61799 0 0 .61504 48.927 12.18)"/>
        <path fill="none" stroke="#010101" stroke-miterlimit="10" stroke-width=".811" d="M118.496 191.37l-.566.289s.134 2.952-.11 5.888c-.272 2.939-1.895 9.839-1.895 9.839" transform="matrix(.61799 0 0 .61504 48.927 12.18)"/>
        <path fill="none" stroke="#010101" stroke-miterlimit="10" stroke-width=".406" d="M117.225 191.702s-.044 5.451-.427 7.816c-.354 2.359-2.083 8.077-2.083 8.077" transform="matrix(.61799 0 0 .61504 48.927 12.18)"/>
        <path fill="none" stroke="#010101" stroke-miterlimit="10" stroke-width=".811" d="M118.89 205.995s-.443.703-1.17.975c-.956.387-2.443.446-4.495.958-2.302.547-5.537.763-8.394 1.317-1.343.24-1.552.629-3.005.831-.968.153-2.453-.579-3.439-.434-3.297.417-6.32 1.592-9.647 1.553-3.903-.101-7.902-.188-11.301-.689-2.338-.281-3.042-.858-4.929-1.261-2.405-.53-5.286-.692-7.105-1.087-2.282-.469-3.206-1.188-3.206-1.188" transform="matrix(.61799 0 0 .61504 48.927 12.18)"/>
        <path fill="none" stroke="#010101" stroke-miterlimit="10" stroke-width=".406" d="M60.911 192.131l3.1 15.645M118.89 207.386s-5.249 1.709-12.85 2.761c-2.147.333-5.279.552-7.603.867-3.673.438-6.97.823-10.591.847-5.65.042-11.028-.536-15.348-1.25-6.385-1.139-10.529-2.648-10.529-2.648" transform="matrix(.61799 0 0 .61504 48.927 12.18)"/>
        <path fill="none" stroke="#010101" stroke-miterlimit="10" stroke-width=".406" d="M118.749 208.938s-15.134 3.136-30.292 3.285c-15.156.144-26.488-2.781-26.488-2.781" transform="matrix(.61799 0 0 .61504 48.927 12.18)"/>
        <path fill="#fea" stroke="#010101" stroke-miterlimit="10" d="M97.629 189.062c.078.12-.288.377-1.09.522-.833.146-2.105.128-2.747 1.229-.958 1.688-.648 6.566-.823 6.772-.395.523-6.875.561-7.337.395-.431-.165-.004-4.313-.83-7.006-.619-1.841-2.179-2.352-2.046-2.422.044-.102 1.307.188 2.841.203 4.221.046 11.845.096 12.032.307z" transform="matrix(.61799 0 0 .61504 48.927 12.18)"/>
        <path fill="none" stroke="#010101" stroke-miterlimit="10" stroke-width=".406" d="M93.201 189.821s-.966 1.178-1.167 1.881c-.2.643-.145 1.388-.145 1.388H86.57s-.139-.784-.295-1.608c-.184-.877-.878-1.66-.878-1.66" transform="matrix(.61799 0 0 .61504 48.927 12.18)"/>
        <path fill="#ffd42a" stroke="#010101" stroke-miterlimit="10" d="M92.853 200.541c1.138.021 1.751 4.114 1.618 4.732-.06.184-.423-.126-.723-.088-.736.148-1.852.412-1.852.412s-.153-5.073.957-5.056z" transform="matrix(.61799 0 0 .61504 48.927 12.18)"/>
        <path fill="none" stroke="#010101" stroke-miterlimit="10" stroke-width=".811" d="M92.744 200.553c.182.112.299 2.548.128 3.438-.146.835-.404 1.647-.404 1.647l-.427-.983s-.07-1.968.121-3.025c.127-.86.498-1.099.582-1.077z" transform="matrix(.61799 0 0 .61504 48.927 12.18)"/>
        <path fill="#ffd42a" stroke="#010101" stroke-miterlimit="10" d="M86.389 200.844c-1.135.056-1.559 4.167-1.374 4.774.03.184.384-.195.687-.165a63.67 63.67 0 0 1 1.863.354s-.067-5.075-1.176-4.963z" transform="matrix(.61799 0 0 .61504 48.927 12.18)"/>
        <path fill="none" stroke="#010101" stroke-miterlimit="10" stroke-width=".811" d="M86.5 200.852c-.178.062-.192 2.552.01 3.383.199.829.482 1.688.482 1.688l.398-1.049s-.022-1.972-.274-3.02c-.157-.803-.534-1.082-.616-1.002z" transform="matrix(.61799 0 0 .61504 48.927 12.18)"/>
        <path fill="none" stroke="#010101" stroke-miterlimit="10" d="M94.723 209.364h-.931v5.658s.52.098.813-.451c.291-.556.118-5.207.118-5.207zM84.921 209.761h.957v5.658s-.549.104-.841-.452c-.291-.555-.116-5.206-.116-5.206z" transform="matrix(.61799 0 0 .61504 48.927 12.18)"/>
        <path fill="none" stroke="#010101" stroke-miterlimit="10" stroke-width=".811" d="M94.291 210.146l-2.726-1.37 2.726-.307zM85.153 208.567l.201 2.447 2.211-2.26z" transform="matrix(.61799 0 0 .61504 48.927 12.18)"/>
        <path fill="#ffd42a" stroke="#010101" stroke-miterlimit="10" d="M93.104 195.889s.688-.053.941.849c.33.913.172 2.758.08 2.938-.181.288-.959.282-1.686.688-.497.307-.479 3.897.015 4.427.498.467 2.13.467 2.146 1.136l.123 3.013c-.201.149-9.821.744-9.921.308v-3.25c.234-.609 2.021-.776 2.021-1.244 0-.523.361-3.703-.152-4.06-.863-.572-1.648-.383-2.022-.738-.37-.349-.174-2.201-.17-2.932.031-.671.919-.803.919-.803v2.721c.401.541 7.257.447 7.753-.054zM93.792 214.356l-7.915.161v.901s3.549.09 4.538.002c.989-.038 3.376-.398 3.376-.398v-.666z" transform="matrix(.61799 0 0 .61504 48.927 12.18)"/>
        <path fill="#fea" stroke="#010101" stroke-miterlimit="10" d="M85.877 210.697h7.915v2.508h-7.915zM94.306 214.922s.132 2.253.117 5.341c-.012 2.309-.208 5.025-.132 7.61.113 4.915.583 9.369.495 9.536-.199.351-7.295.539-7.51.351-.1-.117-.482-4.582-.595-9.482-.074-2.5.184-5.089.08-7.277-.165-3.169-.388-5.596-.388-5.596z" transform="matrix(.61799 0 0 .61504 48.927 12.18)"/>
        <path fill="#fea" stroke="#010101" stroke-miterlimit="10" d="M94.018 232.724c.164.085-.076.754.028 1.355.097.563.54 1.179.658 1.758.191.831.082 1.572.082 1.572s-2.207.359-3.529.403c-1.352.04-3.981-.053-3.981-.053s.215-1.295-.027-2.253c-.147-.436-.554-.949-.678-1.402-.158-.536-.296-.813 0-1.001.19-.146 3.055-.155 5.172-.219 1.222-.092 2.086-.325 2.275-.16z" transform="matrix(.61799 0 0 .61504 48.927 12.18)"/>
        <path fill="#fd5" d="M135.363 107.366s.138 2.884-.054 6.527c-.122 2.624-.48 5.607-.515 8.073-.039 2.974.247 5.25.838 5.385.984.241 10.159-.015 18.238.022 6.235.065 11.708.552 12.785-.022 1.726-.89 1.672-9.868 1.554-15.368-.071-2.291.135-3.975.043-4.211-.268-.772-32.89-.406-32.89-.406z"/>
        <path fill="url(#linearGradient5476)" stroke="#010101" stroke-miterlimit="10" d="M139.868 154.762s.223 4.69-.088 10.613c-.197 4.265-.776 9.116-.832 13.126-.063 4.834.399 8.534 1.356 8.754 1.591.393 16.438-.023 29.511.036 10.089.106 18.945.898 20.689-.036 2.793-1.447 2.705-16.043 2.514-24.986-.115-3.725.218-6.463.069-6.847-.433-1.255-53.219-.66-53.219-.66z" transform="matrix(.61799 0 0 .61504 48.927 12.18)"/>
        <path fill="#ffe680" d="M134.06 95.42c-.501.434-.102.8-.338 1.268-.23.465-.631 1.795-.533 2.995.067 1.2 1.153 4.562.962 5.196-.223.633.041 2.296.38 2.398.035.01.342.398 1.601.633 3.454.65 11.09 1.514 18.444 1.533 2.071.005 4.372-.25 6.657-.4 1.43-.104 2.917-.05 4.086-.234 2.548-.463 3.593-1.043 3.714-1.204.67-1.034.136-1.727.067-2.459-.035-.735-.37-1.266-.167-1.598.04-.107.273-.744.377-1.59.111-.933.091-2.11.324-3.175.25-1.147 1.136-1.798.901-2.53-.171-.611-2.309-1.345-6.554-1.734-.866-.09-1.564-.343-2.645-.367-1.453-.057-3.285.193-4.923.234-3.25.024-6.335.312-9.539.435-1.576.077-3.019-.238-4.449-.167-4.632.16-8.23.648-8.365.765z"/>
        <path fill="url(#linearGradient5499)" stroke="#010101" stroke-miterlimit="10" d="M137.76 135.338c-.811.707-.165 1.302-.547 2.063-.374.756-1.022 2.919-.862 4.869.108 1.95 1.865 7.418 1.556 8.448-.361 1.03.067 3.734.614 3.9.058.016.554.647 2.592 1.028 5.588 1.056 17.945 2.462 29.845 2.493 3.351.008 7.074-.407 10.772-.651 2.313-.169 4.72-.081 6.611-.38 4.124-.753 5.814-1.696 6.011-1.958 1.083-1.681.22-2.808.108-3.997-.056-1.196-.598-2.059-.27-2.599.063-.173.442-1.209.61-2.584.18-1.517.147-3.43.524-5.163.406-1.865 1.838-2.923 1.458-4.115-.277-.992-3.736-2.186-10.606-2.818-1.4-.146-2.531-.558-4.28-.596-2.35-.093-5.315.313-7.966.38-5.26.039-10.251.507-15.435.707-2.551.125-4.885-.387-7.199-.271-7.496.26-13.319 1.053-13.536 1.244z" transform="matrix(.61799 0 0 .61504 48.927 12.18)"/>
        <path fill="none" stroke="#010101" stroke-miterlimit="10" stroke-width=".811" d="M138.3 136.095l.569.232s-.159 3.009.079 5.942c.246 2.94 1.895 9.839 1.895 9.839" transform="matrix(.61799 0 0 .61504 48.927 12.18)"/>
        <path fill="none" stroke="#010101" stroke-miterlimit="10" stroke-width=".406" d="M139.543 136.425s.014 5.453.397 7.816c.383 2.359 2.115 8.078 2.115 8.078" transform="matrix(.61799 0 0 .61504 48.927 12.18)"/>
        <path fill="none" stroke="#010101" stroke-miterlimit="10" stroke-width=".811" d="M137.906 150.718s.417.646 1.17.975c.9.389 2.415.447 4.495.96 2.246.546 5.512.763 8.395 1.315 1.287.24 1.555.631 2.979.831.969.154 2.481-.579 3.466-.433 3.242.417 6.294 1.591 9.621 1.551 3.903-.1 7.873-.186 11.304-.688 2.334-.281 3.01-.858 4.923-1.261 2.377-.529 5.286-.691 7.079-1.085 2.308-.471 3.236-1.19 3.236-1.19" transform="matrix(.61799 0 0 .61504 48.927 12.18)"/>
        <path fill="none" stroke="#010101" stroke-miterlimit="10" stroke-width=".406" d="M195.83 136.854l-3.045 15.646M137.906 152.108s5.194 1.71 12.795 2.762c2.146.333 5.279.552 7.6.867 3.702.437 7.002.823 10.652.847 5.593.041 10.999-.536 15.315-1.251 6.391-1.139 10.531-2.647 10.531-2.647" transform="matrix(.61799 0 0 .61504 48.927 12.18)"/>
        <path fill="none" stroke="#010101" stroke-miterlimit="10" stroke-width=".406" d="M137.989 153.66s15.164 3.137 30.295 3.286c15.185.143 26.516-2.781 26.516-2.781" transform="matrix(.61799 0 0 .61504 48.927 12.18)"/>
        <path fill="#fea" stroke="#010101" stroke-miterlimit="10" d="M159.112 133.787c-.051.118.316.376 1.119.521.802.145 2.104.127 2.744 1.229.961 1.688.622 6.566.794 6.771.395.524 6.877.562 7.369.396.428-.166.004-4.314.827-7.007.59-1.843 2.149-2.351 2.075-2.425-.101-.097-1.333.188-2.869.203-4.247.049-11.871.102-12.059.312z" transform="matrix(.61799 0 0 .61504 48.927 12.18)"/>
        <path fill="none" stroke="#010101" stroke-miterlimit="10" stroke-width=".406" d="M163.566 134.545s.966 1.176 1.166 1.88c.2.645.151 1.389.151 1.389h5.313s.14-.783.324-1.609c.187-.876.85-1.659.85-1.659" transform="matrix(.61799 0 0 .61504 48.927 12.18)"/>
        <path fill="#ffd42a" stroke="#010101" stroke-miterlimit="10" d="M163.917 145.266c-1.141.019-1.751 4.112-1.592 4.731.034.183.395-.126.666-.089.765.149 1.881.414 1.881.414s.181-5.074-.955-5.056z" transform="matrix(.61799 0 0 .61504 48.927 12.18)"/>
        <path fill="none" stroke="#010101" stroke-miterlimit="10" stroke-width=".811" d="M163.998 145.277c-.124.11-.271 2.547-.101 3.438a28.4 28.4 0 0 0 .404 1.647l.425-.984s.044-1.968-.146-3.025c-.101-.859-.47-1.097-.582-1.076z" transform="matrix(.61799 0 0 .61504 48.927 12.18)"/>
        <path fill="#ffd42a" stroke="#010101" stroke-miterlimit="10" d="M170.381 145.567c1.134.055 1.56 4.168 1.374 4.774-.03.183-.387-.195-.659-.166-.767.128-1.891.354-1.891.354s.035-5.073 1.176-4.962z" transform="matrix(.61799 0 0 .61504 48.927 12.18)"/>
        <path fill="none" stroke="#010101" stroke-miterlimit="10" stroke-width=".811" d="M170.242 145.575c.174.061.191 2.553-.01 3.384-.204.829-.453 1.688-.453 1.688l-.398-1.051s.022-1.973.242-3.022c.185-.801.565-1.078.619-.999z" transform="matrix(.61799 0 0 .61504 48.927 12.18)"/>
        <path fill="none" stroke="#010101" stroke-miterlimit="10" d="M162.015 154.088h.961v5.655s-.546.101-.81-.449c-.32-.556-.151-5.206-.151-5.206zM171.878 154.483h-.959v5.659s.494.098.815-.452c.262-.555.144-5.207.144-5.207z" transform="matrix(.61799 0 0 .61504 48.927 12.18)"/>
        <path fill="none" stroke="#010101" stroke-miterlimit="10" stroke-width=".811" d="M162.508 154.87l2.669-1.371-2.669-.307zM171.585 153.287l-.2 2.45-2.18-2.259z" transform="matrix(.61799 0 0 .61504 48.927 12.18)"/>
        <path fill="#ffd42a" stroke="#010101" stroke-miterlimit="10" d="M163.691 140.612s-.716-.053-.969.793c-.331.969-.171 2.813-.106 2.994.178.287.956.281 1.715.683.522.31.45 3.9-.015 4.431-.526.465-2.131.465-2.146 1.137l-.155 3.011c.199.15 9.879.745 9.951.308v-3.25c-.231-.608-2.021-.776-2.021-1.242 0-.524-.358-3.704.182-4.061.836-.573 1.622-.384 1.995-.738.369-.35.173-2.201.168-2.932-.002-.672-.919-.804-.919-.804v2.721c-.398.542-7.254.446-7.78-.11zM162.976 159.08l7.943.161v.901s-3.604.09-4.593.002c-.992-.039-3.351-.401-3.351-.401v-.663z" transform="matrix(.61799 0 0 .61504 48.927 12.18)"/>
        <path fill="#fea" stroke="#010101" stroke-miterlimit="10" d="M162.976 155.422h7.943v2.508h-7.943zM162.436 159.646s-.106 2.253-.088 5.342c.012 2.309.207 5.019.16 7.608-.141 4.913-.585 9.371-.523 9.536.199.351 7.261.482 7.481.351.128-.116.511-4.586.651-9.482.046-2.5-.186-5.088-.11-7.276.167-3.227.388-5.6.388-5.6z" transform="matrix(.61799 0 0 .61504 48.927 12.18)"/>
        <path fill="#fea" stroke="#010101" stroke-miterlimit="10" d="M162.752 177.448c-.167.084.044.752-.029 1.35-.127.566-.538 1.184-.685 1.759-.191.835-.054 1.575-.054 1.575s2.175.36 3.526.404c1.354.039 3.955-.054 3.955-.054s-.221-1.294.081-2.251c.088-.438.5-.95.649-1.402.161-.536.325-.815 0-1.007-.189-.143-3.08-.15-5.144-.215-1.278-.091-2.11-.325-2.299-.159z" transform="matrix(.61799 0 0 .61504 48.927 12.18)"/>
        <path fill="#fd5" d="M120.622 107.17s-.136 2.886.038 6.565c.122 2.586.48 5.571.53 8.073.04 2.973-.264 5.212-.836 5.383-1.004.243-10.18-.013-18.257.023-6.217.027-11.708.516-12.768-.023-1.743-.925-1.67-9.9-1.552-15.364.053-2.294-.136-3.978-.061-4.215.285-.806 32.906-.442 32.906-.442z"/>
        <path fill="url(#linearGradient5522)" stroke="#010101" stroke-miterlimit="10" d="M116.014 154.444s-.219 4.692.063 10.673c.197 4.205.776 9.059.858 13.126.063 4.834-.429 8.475-1.354 8.752-1.625.395-16.472-.021-29.543.038-10.06.044-18.945.839-20.661-.038-2.819-1.503-2.702-16.097-2.511-24.98.086-3.729-.22-6.467-.099-6.853.461-1.31 53.247-.718 53.247-.718z" transform="matrix(.61799 0 0 .61504 48.927 12.18)"/>
        <path fill="#ffe680" d="M121.926 95.26c.5.4.082.766.316 1.233.235.465.654 1.796.553 2.995-.083 1.2-1.17 4.563-.962 5.232.226.632-.042 2.299-.377 2.399-.057.008-.327.397-1.622.631-3.435.615-11.072 1.478-18.424 1.533-2.09.005-4.393-.285-6.677-.435-1.41-.106-2.915-.014-4.065-.234-2.55-.464-3.578-1.008-3.699-1.204-.703-1-.152-1.692-.101-2.424.052-.732.368-1.3.185-1.633-.058-.07-.295-.743-.38-1.588-.109-.935-.09-2.072-.306-3.14-.267-1.184-1.172-1.8-.938-2.531.19-.606 2.329-1.346 6.576-1.767.881-.058 1.564-.344 2.646-.367 1.451-.025 3.282.224 4.9.234 3.255.024 6.373.344 9.54.467 1.577.044 3.02-.238 4.452-.199 4.65.193 8.23.681 8.383.798z"/>
        <path fill="url(#linearGradient5545)" stroke="#010101" stroke-miterlimit="10" d="M118.125 135.079c.81.65.133 1.245.512 2.004.379.756 1.057 2.921.894 4.871-.135 1.95-1.892 7.418-1.556 8.506.365 1.028-.068 3.738-.611 3.9-.092.014-.528.646-2.625 1.027-5.558.999-17.915 2.402-29.812 2.492-3.382.008-7.109-.463-10.804-.707-2.282-.172-4.717-.023-6.579-.38-4.127-.755-5.789-1.639-5.985-1.958-1.138-1.625-.246-2.752-.164-3.941.085-1.19.596-2.114.299-2.656-.093-.113-.477-1.207-.614-2.582-.176-1.519-.146-3.368-.495-5.105-.433-1.925-1.896-2.925-1.518-4.115.308-.986 3.768-2.189 10.641-2.873 1.426-.095 2.531-.559 4.281-.597 2.349-.041 5.312.365 7.931.38 5.265.039 10.311.56 15.436.76 2.552.072 4.886-.387 7.204-.323 7.525.313 13.316 1.107 13.565 1.297z" transform="matrix(.61799 0 0 .61504 48.927 12.18)"/>
        <path fill="none" stroke="#010101" stroke-miterlimit="10" stroke-width=".811" d="M117.582 135.84l-.54.227s.133 2.953-.108 5.888c-.272 2.933-1.896 9.902-1.896 9.902" transform="matrix(.61799 0 0 .61504 48.927 12.18)"/>
        <path fill="none" stroke="#010101" stroke-miterlimit="10" stroke-width=".406" d="M116.31 136.109s-.017 5.451-.399 7.816c-.381 2.359-2.082 8.136-2.082 8.136" transform="matrix(.61799 0 0 .61504 48.927 12.18)"/>
        <path fill="none" stroke="#010101" stroke-miterlimit="10" stroke-width=".811" d="M117.976 150.46s-.415.646-1.141.975c-.956.387-2.472.445-4.524.9-2.273.548-5.508.756-8.365 1.317-1.343.24-1.555.629-3.005.831-.968.152-2.455-.578-3.439-.435-3.297.413-6.32 1.592-9.647 1.554-3.903-.037-7.902-.188-11.304-.627-2.335-.344-3.04-.921-4.926-1.323-2.404-.528-5.315-.63-7.105-1.029-2.311-.526-3.207-1.188-3.207-1.188" transform="matrix(.61799 0 0 .61504 48.927 12.18)"/>
        <path fill="none" stroke="#010101" stroke-miterlimit="10" stroke-width=".406" d="M60.026 136.595l3.099 15.651M117.976 151.856s-5.22 1.645-12.821 2.756c-2.147.331-5.279.554-7.604.81-3.7.437-6.968.823-10.592.904-5.647.041-11.025-.538-15.373-1.309-6.357-1.144-10.503-2.592-10.503-2.592" transform="matrix(.61799 0 0 .61504 48.927 12.18)"/>
        <path fill="none" stroke="#010101" stroke-miterlimit="10" stroke-width=".406" d="M117.86 153.402s-15.131 3.143-30.288 3.227c-15.159.144-26.491-2.781-26.491-2.781" transform="matrix(.61799 0 0 .61504 48.927 12.18)"/>
        <path fill="#fea" stroke="#010101" stroke-miterlimit="10" d="M96.744 133.526c.077.065-.288.377-1.093.521-.831.09-2.103.072-2.773 1.231-.929 1.631-.619 6.508-.794 6.771-.397.466-6.874.5-7.336.396-.431-.16-.004-4.372-.859-7.001-.59-1.903-2.15-2.358-2.047-2.484.073-.042 1.336.188 2.869.203 4.221.1 11.845.152 12.033.363z" transform="matrix(.61799 0 0 .61504 48.927 12.18)"/>
        <path fill="none" stroke="#010101" stroke-miterlimit="10" stroke-width=".406" d="M92.287 134.288s-.938 1.176-1.166 1.821c-.2.706-.12 1.387-.12 1.387h-5.316s-.139-.784-.295-1.606c-.186-.82-.877-1.602-.877-1.602" transform="matrix(.61799 0 0 .61504 48.927 12.18)"/>
        <path fill="#ffd42a" stroke="#010101" stroke-miterlimit="10" d="M91.968 145.006c1.138.023 1.751 4.12 1.588 4.731-.03.185-.394-.184-.697-.145-.732.148-1.85.47-1.85.47s-.151-5.072.959-5.056z" transform="matrix(.61799 0 0 .61504 48.927 12.18)"/>
        <path fill="none" stroke="#010101" stroke-miterlimit="10" stroke-width=".811" d="M91.858 145.023c.178.049.298 2.545.127 3.374-.147.893-.403 1.708-.403 1.708l-.427-.979s-.07-1.974.121-3.089c.127-.803.499-1.041.582-1.014z" transform="matrix(.61799 0 0 .61504 48.927 12.18)"/>
        <path fill="#ffd42a" stroke="#010101" stroke-miterlimit="10" d="M85.504 145.252c-1.135.055-1.559 4.224-1.377 4.832.034.183.387-.197.688-.166.738.071 1.864.353 1.864.353s-.069-5.075-1.175-5.019z" transform="matrix(.61799 0 0 .61504 48.927 12.18)"/>
        <path fill="none" stroke="#010101" stroke-miterlimit="10" stroke-width=".811" d="M85.614 145.26c-.18.118-.192 2.551.01 3.439.199.829.481 1.631.481 1.631l.398-.991s-.021-1.97-.274-3.083c-.155-.798-.535-1.018-.615-.996z" transform="matrix(.61799 0 0 .61504 48.927 12.18)"/>
        <path fill="none" stroke="#010101" stroke-miterlimit="10" d="M93.835 153.828h-.958v5.659s.549.039.841-.509c.292-.499.117-5.15.117-5.15zM84.033 154.226h.93v5.657s-.52.042-.812-.45c-.291-.551-.118-5.207-.118-5.207z" transform="matrix(.61799 0 0 .61504 48.927 12.18)"/>
        <path fill="none" stroke="#010101" stroke-miterlimit="10" stroke-width=".811" d="M93.403 154.612l-2.723-1.371 2.723-.364zM84.265 153.034l.204 2.388 2.211-2.198z" transform="matrix(.61799 0 0 .61504 48.927 12.18)"/>
        <path fill="#ffd42a" stroke="#010101" stroke-miterlimit="10" d="M92.19 140.353s.687-.053.97.792c.302.972.173 2.758.08 2.938-.184.353-.959.347-1.689.748-.495.246-.477 3.9.018 4.366.498.524 2.127.524 2.146 1.136l.12 3.07c-.199.089-9.847.686-9.947.25v-3.192c.263-.668 2.049-.776 2.049-1.303 0-.464.362-3.703-.152-4.06-.862-.571-1.648-.382-2.021-.679-.372-.35-.174-2.266-.17-2.934.002-.727.919-.803.919-.803v2.664c.398.54 7.256.507 7.753-.053z" transform="matrix(.61799 0 0 .61504 48.927 12.18)"/>
        <path fill="#fd5" stroke="#010101" stroke-miterlimit="10" d="M92.877 158.762l-7.915.162v.959s3.579.034 4.567.002c.986-.037 3.347-.397 3.347-.397v-.726z" transform="matrix(.61799 0 0 .61504 48.927 12.18)"/>
        <path fill="#fea" stroke="#010101" stroke-miterlimit="10" d="M84.963 155.162h7.915v2.449h-7.915zM93.42 159.33s.132 2.311.117 5.397c-.012 2.251-.208 4.961-.135 7.61.115 4.917.585 9.369.495 9.479-.2.351-7.293.54-7.508.351-.099-.061-.481-4.522-.595-9.423-.073-2.502.184-5.092.052-7.34a120.909 120.909 0 0 0-.359-5.533z" transform="matrix(.61799 0 0 .61504 48.927 12.18)"/>
        <path fill="#fea" fill-opacity=".941" stroke="#010101" stroke-miterlimit="10" d="M93.133 177.131c.135.142-.079.754.027 1.349.098.569.537 1.186.658 1.761.191.894.08 1.576.08 1.576s-2.205.358-3.526.404c-1.352.103-3.981-.054-3.981-.054s.215-1.238-.055-2.189c-.12-.499-.526-.956-.65-1.467-.158-.476-.296-.814 0-1.005.162-.084 3.055-.094 5.173-.214 1.218-.035 2.085-.27 2.274-.161z" transform="matrix(.61799 0 0 .61504 48.927 12.18)"/>
    </g>
    <g>
        <path fill="#f55" d="M128 19.552c-16.561-.043-22.842-10.445-23.89-10.32-1.045.124-11.135 16.23-11.056 16.897.046.38 5.03 1.942 7.472 6.936 2.634 5.38 3.915 13.84 3.915 13.84L128 46.65l23.56.254s1.28-8.46 3.915-13.84c2.44-4.994 7.426-6.555 7.47-6.936.079-.667-10.008-16.773-11.057-16.896-1.046-.127-7.326 10.366-23.888 10.319z"/>
        <path fill="url(#linearGradient2364)" stroke="#010101" stroke-miterlimit="10" d="M128.001 19.552c-16.562-.043-22.843-10.445-23.89-10.319-1.046.123-11.136 16.229-11.057 16.896.046.381 5.03 1.942 7.472 6.936 2.634 5.38 3.915 13.84 3.915 13.84l23.56-.254 23.561.254s1.279-8.459 3.914-13.84c2.441-4.994 7.426-6.555 7.471-6.936.078-.667-10.009-16.773-11.058-16.896-1.046-.127-7.326 10.366-23.888 10.319z"/>
        <path fill="none" stroke="#010101" stroke-miterlimit="10" stroke-width=".25" d="M94.122 24.044s6.53 4.077 8.774 9.633c1.896 4.697 3.53 12.972 3.53 12.972M161.56 24.044s-6.533 4.077-8.775 9.633c-1.897 4.697-3.53 12.972-3.53 12.972"/>
        <path fill="#faa" stroke="#010101" stroke-miterlimit="10" stroke-width="1.00002" d="M101.31 13.112l6.978 4.679-5.73 8.545-6.978-4.68z"/>
        <path fill="none" stroke="#010101" stroke-miterlimit="10" stroke-width=".24999" d="M102.709 15.626l4.085 2.739-4.251 6.342-4.086-2.739z"/>
        <path fill="none" stroke="#010101" stroke-miterlimit="10" stroke-width=".25" d="M102.71 15.628l-.164 9.083M106.795 18.368l-8.335 3.604"/>
        <path fill="#faa" stroke="#010101" stroke-miterlimit="10" stroke-width=".99999" d="M160.444 21.657l-6.976 4.68-5.732-8.547 6.976-4.678z"/>
        <path fill="none" stroke="#010101" stroke-miterlimit="10" stroke-width=".2500125" d="M157.558 21.977l-4.082 2.739-4.255-6.343 4.083-2.738z"/>
        <path fill="none" stroke="#010101" stroke-miterlimit="10" stroke-width=".25" d="M153.31 15.628l.169 9.083M149.225 18.368l8.338 3.604"/>
    </g>
</svg>
