<svg xmlns="http://www.w3.org/2000/svg" xmlns:xlink="http://www.w3.org/1999/xlink" viewBox="0 0 256 256">
    <defs>
        <linearGradient id="innoGrad2">
            <stop offset="0" stop-color="#ff2a2a" stop-opacity="0"/>
            <stop offset="1" stop-color="#ff2a2a" stop-opacity=".502"/>
        </linearGradient>
        <linearGradient id="innoGrad1">
            <stop offset="0" stop-color="#ff7f2a" stop-opacity="0"/>
            <stop offset="1" stop-color="#ff7f2a" stop-opacity=".502"/>
        </linearGradient>
        <linearGradient id="linearGradient889" x1="148.16" x2="240.697" y1="127.421" y2="127.421" gradientUnits="userSpaceOnUse" xlink:href="#innoGrad1"/>
        <radialGradient id="radialGradient912" cx="185.551" cy="133.458" r="39.5" fx="185.551" fy="133.458" gradientTransform="matrix(1.94056 -.03433 .0153 .86468 -161.993 23.741)" gradientUnits="userSpaceOnUse" xlink:href="#innoGrad2"/>
        <linearGradient id="linearGradient950" x1="145.657" x2="167.272" y1="90.465" y2="90.465" gradientUnits="userSpaceOnUse" xlink:href="#innoGrad1"/>
        <linearGradient id="linearGradient981" x1="150.113" x2="168.591" y1="175.474" y2="175.474" gradientUnits="userSpaceOnUse" xlink:href="#innoGrad1"/>
        <linearGradient id="linearGradient1004" x1="139.625" x2="157.207" y1="167.583" y2="167.583" gradientUnits="userSpaceOnUse" xlink:href="#innoGrad1"/>
        <linearGradient id="linearGradient1027" x1="137.631" x2="146.534" y1="92.65" y2="92.65" gradientUnits="userSpaceOnUse" xlink:href="#innoGrad1"/>
        <linearGradient id="linearGradient889-6" x1="148.16" x2="240.697" y1="127.421" y2="127.421" gradientTransform="matrix(-1 0 0 1 256 -.001)" gradientUnits="userSpaceOnUse" xlink:href="#innoGrad1"/>
        <radialGradient id="radialGradient912-9" cx="185.551" cy="133.458" r="39.5" fx="185.551" fy="133.458" gradientTransform="matrix(-1.94056 -.03433 -.0153 .86468 417.994 23.74)" gradientUnits="userSpaceOnUse" xlink:href="#innoGrad2"/>
        <linearGradient id="linearGradient950-1" x1="145.657" x2="167.272" y1="90.465" y2="90.465" gradientTransform="matrix(-1 0 0 1 256 -.001)" gradientUnits="userSpaceOnUse" xlink:href="#innoGrad1"/>
        <linearGradient id="linearGradient1027-7" x1="137.631" x2="146.534" y1="92.65" y2="92.65" gradientTransform="matrix(-1 0 0 1 256 -.001)" gradientUnits="userSpaceOnUse" xlink:href="#innoGrad1"/>
        <linearGradient id="linearGradient981-5" x1="150.113" x2="168.591" y1="175.474" y2="175.474" gradientTransform="matrix(-1 0 0 1 256 -.001)" gradientUnits="userSpaceOnUse" xlink:href="#innoGrad1"/>
        <linearGradient id="linearGradient1004-5" x1="139.625" x2="157.207" y1="167.583" y2="167.583" gradientTransform="matrix(-1 0 0 1 256 -.001)" gradientUnits="userSpaceOnUse" xlink:href="#innoGrad1"/>
    </defs>
    <path fill="#ffb380" stroke="#000" stroke-miterlimit="10" d="M143.919 182.142l-1.84-27.316.263-4.003 4.934-3.014 13.912-1.659 8.81 37.977z"/>
    <path fill="#f95" stroke="#000" stroke-miterlimit="10" d="M150.252 152.012s-2.841-2.102 0-3.371c2.841-1.277 9.079-.696 9.079-.696l2.749 28.769-12.451-.694.623-24.008z"/>
    <path fill="#f95" d="M155.951 57.931c9.486-5.342 31.371-15.976 48.737-15.931 14.246.038 24.75 9.447 26.374 12.519 1.337 2.562 8.039 21.355 8.912 40.772.976 22.008-1.453 41.643-3.32 57.275-.879 7.324-1.314 18.088-1.804 19.911-1.003 3.707-8.524 28.612-21.611 35.649-18.966 10.178-45.849 1.745-49.88-5.32-1.298-2.242-5.44-7.128-6.267-15.174-.937-9.262 1.519-22.449.195-36.21-.498-5.276-2.313-10.957-2.841-16.507-3.291-34.18-11.947-69.395 1.505-76.984z"/>
    <path fill="url(#linearGradient889)" stroke="#000" stroke-miterlimit="10" d="M155.951 57.931c9.486-5.342 31.371-15.976 48.737-15.931 14.246.038 24.75 9.447 26.374 12.519 1.337 2.562 8.039 21.355 8.912 40.772.976 22.008-1.453 41.643-3.32 57.275-.879 7.324-1.314 18.088-1.804 19.911-1.003 3.707-8.524 28.612-21.611 35.649-18.966 10.178-45.849 1.745-49.88-5.32-1.298-2.242-5.44-7.128-6.267-15.174-.937-9.262 1.519-22.449.195-36.21-.498-5.276-2.313-10.957-2.841-16.507-3.291-34.18-11.947-69.395 1.505-76.984z"/>
    <path fill="none" stroke="#000" stroke-miterlimit="10" d="M171.688 88.273c18.407-28.448 52.337-23.755 60.879-9.289 11.001 18.577 11.172 52.781-1.894 91.016-10.61 31.108-49.295 22.26-55.171 9.492-6.984-15.168-22.196-62.771-3.814-91.219z"/>
    <path fill="#ff8080" d="M170.019 135.483c-.942-21.438 27.465-34.893 48.707-36.596 23.7-1.897 22.948 8.534 22.948 8.534s17.301 23.724-5.318 46.649c-1.263 1.305.757 2.149.375 2.667-3.52 4.651-8.794 6.329-14.106 7.859-21.339 6.143-51.718-9.088-52.606-29.113z"/>
    <path fill="url(#radialGradient912)" stroke="#000" stroke-miterlimit="10" d="M170.019 135.483c-.942-21.438 27.465-34.893 48.707-36.596 23.7-1.897 22.948 8.534 22.948 8.534s17.301 23.724-5.318 46.649c-1.263 1.305.757 2.149.375 2.667-3.52 4.651-8.794 6.329-14.106 7.859-21.339 6.143-51.718-9.088-52.606-29.113z"/>
    <path fill="none" stroke="#000" stroke-miterlimit="10" d="M242.143 108.122s-4.98-8.879-16.956-8.28c-20.481 1.011-52.615 14.348-51.969 35.847.604 20.403 25.009 29.312 42.861 28.38 11.961-.632 19.887-8.949 19.887-8.949"/>
    <path fill="#58595B" stroke="#000" stroke-miterlimit="10" d="M152.854 113.134c-.731.954-9.449.738-10.363.023-1.345-1.054-2.797-40.239-1.809-40.948.988-.709 9.574-1.662 10.464-.34.458.687.753 11.433 1.228 21.709.444 9.604 1.105 18.765.48 19.556z"/>
    <path fill="#fca" stroke="#000" stroke-miterlimit="10" d="M151.894 113.134c-.732.954-9.448.738-10.362.023-1.345-1.054-2.798-40.239-1.81-40.948.988-.709 9.573-1.662 10.464-.34.458.687.753 11.433 1.227 21.709.445 9.604 1.106 18.765.481 19.556z"/>
    <path fill="#414042" stroke="#000" stroke-miterlimit="10" d="M141.804 75.089h3.092l1.137 35.116h-3.727zM146.734 75.089l1.698 35.116h2.535l-1.644-35.523z"/>
    <path fill="#ffe6d5" d="M165.56 74.11c-.32-.508-4.781.02-9.357.376-4.977.399-10.083.72-10.046 3.105.075 4.546 1.525 28.88 2.22 29.387.334.26 3.677-.712 7.575-.882 3.928-.176 8.438.446 9.608-.446 2.339-1.768.696-30.467 0-31.54z"/>
    <path fill="url(#linearGradient950)" stroke="#000" stroke-miterlimit="10" d="M165.56 74.11c-.32-.508-4.781.02-9.357.376-4.977.399-10.083.72-10.046 3.105.075 4.546 1.525 28.88 2.22 29.387.334.26 3.677-.712 7.575-.882 3.928-.176 8.438.446 9.608-.446 2.339-1.768.696-30.467 0-31.54z"/>
    <path fill="#ffe6d5" d="M138.127 75.628c-.193-.32 5.377-1.198 5.962.375.557 1.587 2.674 32.557 1.686 33.442-.99.884-6.115.952-6.949.438-.808-.5-.503-33.934-.699-34.255z"/>
    <path fill="url(#linearGradient1027)" stroke="#000" stroke-miterlimit="10" d="M138.127 75.628c-.193-.32 5.377-1.198 5.962.375.557 1.587 2.674 32.557 1.686 33.442-.99.884-6.115.952-6.949.438-.808-.5-.503-33.934-.699-34.255z"/>
    <path fill="none" stroke="#000" stroke-dasharray="1" stroke-miterlimit="10" stroke-width=".25" d="M153.362 76.45v28.505l10.361-.376-.502-28.63zM153.362 76.45l10.361 28.505M163.221 75.949l-9.859 29.006"/>
    <path fill="#fca" stroke="#000" stroke-miterlimit="10" d="M146.789 152.016c1.028.022 7.441-.268 7.965 4.089.525 4.328 1.894 34.896 1.394 37.792-.502 2.908-8.272-2.2-8.272-2.2l-1.837-39.64c-.001 0-.253-.061.75-.041z"/>
    <path fill="#fca" stroke="#000" stroke-miterlimit="10" d="M146.038 152.057c.189-.238.468.947 1.949 1.569 2.095.899 5.574 1.374 5.765 1.087.307-.503 1.839 39.937 1.839 39.937s-7.465-.276-8.467-3.448c-1.03-3.181-1.532-38.58-1.086-39.145z"/>
    <path fill="#414042" stroke="#000" stroke-miterlimit="10" d="M146.594 156.16c.373-.444 1.04.684 2.675 1.265 1.634.586 3.036.435 3.342.878.307.447 1.698 33.198 1.253 33.57-.421.381-6.484-1.458-6.434-2.267.051-.832-1.179-33.001-.836-33.446z"/>
    <path fill="#ffe6d5" d="M165.059 160.28s-13.772-.59-14.329-1.586c-.558-1.001 1.054 31.974 1.054 31.974s2.271.482 7.094.951c4.793.465 9.162.635 9.162.635l-2.981-31.974z"/>
    <path fill="url(#linearGradient981)" stroke="#000" stroke-miterlimit="10" d="M165.059 160.28s-13.772-.59-14.329-1.586c-.558-1.001 1.054 31.974 1.054 31.974s2.271.482 7.094.951c4.793.465 9.162.635 9.162.635z"/>
    <path fill="none" stroke="#000" stroke-dasharray="1" stroke-miterlimit="10" stroke-width=".25" d="M155.591 160.645l1.002 29.328 8.857.513-2.034-29.084zM163.416 161.402l-6.823 28.571M155.591 160.645l9.859 29.841"/>
    <path fill="#ffe6d5" d="M149.018 157.803s-17.064-8.71 7.585-10.958l-.143-.683c-3.591-.146-13.152 1.646-14.851 5.854-.989 2.464-1.008 6.785-1.196 11.663-.369 9.407-.667 19.826 1.002 22.504 2.924 4.678 7.854 2.146 7.854 2.146l-.251-30.526z"/>
    <path fill="url(#linearGradient1004)" stroke="#000" stroke-miterlimit="10" d="M149.018 157.803s-17.064-8.71 7.585-10.958l-.143-.683c-3.591-.146-13.152 1.646-14.851 5.854-.989 2.464-1.008 6.785-1.196 11.663-.369 9.407-.667 19.826 1.002 22.504 2.924 4.678 7.854 2.146 7.854 2.146z"/>
    <ellipse cx="191.766" cy="123.547" fill="#ffe680" stroke="#000" stroke-miterlimit="10" rx="6.795" ry="6.822"/>
    <path fill="#414042" stroke="#000" stroke-miterlimit="10" d="M195.147 123.533c0 1.753-1.334 3.194-2.988 3.194-1.652 0-3.003-1.441-3.003-3.194 0-1.778 1.351-3.208 3.003-3.208 1.654 0 2.988 1.43 2.988 3.208z"/>
    <path fill="#ffe680" stroke="#000" stroke-miterlimit="10" d="M196.89 144.713c0 3.28-3.043 5.961-6.796 5.961-3.751 0-6.794-2.681-6.794-5.961 0-3.281 3.043-5.931 6.794-5.931 3.753 0 6.796 2.65 6.796 5.931z"/>
    <path fill="#414042" stroke="#000" stroke-miterlimit="10" d="M193.464 145.001a3.137 3.137 0 1 1-6.274 0 3.132 3.132 0 0 1 3.141-3.128c1.727 0 3.133 1.4 3.133 3.128z"/>
    <path fill="#ffb380" stroke="#000" stroke-miterlimit="10" d="M113.922 154.825l-.263-4.003-4.934-3.014-13.912-1.659-8.81 37.977 26.079-1.985z"/>
    <path fill="#f95" stroke="#000" stroke-miterlimit="10" d="M105.749 152.011s2.84-2.102 0-3.371c-2.841-1.277-9.08-.696-9.08-.696l-2.748 28.769 12.45-.694z"/>
    <path fill="#f95" d="M100.05 57.93c-9.486-5.342-31.371-15.976-48.737-15.931-14.246.038-24.75 9.447-26.374 12.519-1.337 2.562-8.04 21.355-8.912 40.772-.976 22.008 1.453 41.643 3.32 57.275.879 7.324 1.314 18.088 1.804 19.911 1.003 3.707 8.524 28.612 21.61 35.649 18.967 10.178 45.85 1.745 49.88-5.32 1.299-2.242 5.44-7.128 6.268-15.174.937-9.262-1.52-22.449-.195-36.21.498-5.276 2.313-10.957 2.84-16.507 3.292-34.18 11.948-69.395-1.504-76.984z"/>
    <path fill="url(#linearGradient889-6)" stroke="#000" stroke-miterlimit="10" d="M100.05 57.93c-9.486-5.342-31.371-15.976-48.737-15.931-14.246.038-24.75 9.447-26.374 12.519-1.337 2.562-8.04 21.355-8.912 40.772-.976 22.008 1.453 41.643 3.32 57.275.879 7.324 1.314 18.088 1.804 19.911 1.003 3.707 8.524 28.612 21.61 35.649 18.967 10.178 45.85 1.745 49.88-5.32 1.299-2.242 5.44-7.128 6.268-15.174.937-9.262-1.52-22.449-.195-36.21.498-5.276 2.313-10.957 2.84-16.507 3.292-34.18 11.948-69.395-1.504-76.984z"/>
    <path fill="none" stroke="#000" stroke-miterlimit="10" d="M84.313 88.272c-18.407-28.448-52.337-23.755-60.88-9.289-11 18.577-11.171 52.78 1.895 91.016 10.61 31.108 49.295 22.26 55.17 9.492 6.985-15.168 22.197-62.771 3.815-91.219z"/>
    <path fill="#ff8080" d="M85.982 135.482c.942-21.438-27.465-34.893-48.707-36.596-23.7-1.897-22.948 8.534-22.948 8.534s-17.301 23.724 5.318 46.649c1.263 1.305-.757 2.149-.375 2.667 3.52 4.651 8.794 6.329 14.106 7.859 21.339 6.143 51.718-9.088 52.606-29.113z"/>
    <path fill="url(#radialGradient912-9)" stroke="#000" stroke-miterlimit="10" d="M85.982 135.482c.942-21.438-27.465-34.893-48.707-36.596-23.7-1.897-22.948 8.534-22.948 8.534s-17.301 23.724 5.318 46.649c1.263 1.305-.757 2.149-.375 2.667 3.52 4.651 8.794 6.329 14.106 7.859 21.339 6.143 51.718-9.088 52.606-29.113z"/>
    <path fill="none" stroke="#000" stroke-miterlimit="10" d="M13.858 108.12s4.98-8.878 16.956-8.279c20.48 1.01 52.615 14.348 51.969 35.847-.604 20.403-25.01 29.312-42.861 28.38-11.961-.632-19.887-8.95-19.887-8.95"/>
    <path fill="#58595b" stroke="#000" stroke-miterlimit="10" d="M103.147 113.133c.73.954 9.449.738 10.363.023 1.345-1.054 2.797-40.239 1.809-40.948-.988-.709-9.574-1.662-10.464-.34-.458.687-.753 11.433-1.228 21.709-.444 9.604-1.105 18.765-.48 19.556z"/>
    <path fill="#fca" stroke="#000" stroke-miterlimit="10" d="M104.107 113.133c.732.954 9.448.738 10.362.023 1.345-1.054 2.798-40.239 1.81-40.948-.988-.709-9.573-1.662-10.464-.34-.458.687-.753 11.433-1.227 21.709-.445 9.604-1.106 18.765-.481 19.556z"/>
    <path fill="#414042" stroke="#000" stroke-miterlimit="10" d="M113.695 110.204l.502-35.116h-3.092l-1.137 35.116zM106.678 74.681l2.589.407-1.698 35.116h-2.535z"/>
    <path fill="#ffe6d5" d="M90.44 74.109c.32-.508 4.782.02 9.358.376 4.977.399 10.083.72 10.046 3.105-.075 4.546-1.525 28.88-2.22 29.387-.334.26-3.677-.712-7.575-.882-3.928-.176-8.438.446-9.608-.446-2.34-1.768-.696-30.467 0-31.54z"/>
    <path fill="url(#linearGradient950-1)" stroke="#000" stroke-miterlimit="10" d="M90.44 74.109c.32-.508 4.782.02 9.358.376 4.977.399 10.083.72 10.046 3.105-.075 4.546-1.525 28.88-2.22 29.387-.334.26-3.677-.712-7.575-.882-3.928-.176-8.438.446-9.608-.446-2.34-1.768-.696-30.467 0-31.54z"/>
    <path fill="#ffe6d5" d="M117.874 75.627c.193-.32-5.377-1.198-5.962.375-.557 1.587-2.674 32.557-1.686 33.442.99.884 6.115.952 6.949.438.808-.5.503-33.934.699-34.255z"/>
    <path fill="url(#linearGradient1027-7)" stroke="#000" stroke-miterlimit="10" d="M117.874 75.627c.193-.32-5.377-1.198-5.962.375-.557 1.587-2.674 32.557-1.686 33.442.99.884 6.115.952 6.949.438.808-.5.503-33.934.699-34.255z"/>
    <path fill="none" stroke="#000" stroke-dasharray="1" stroke-miterlimit="10" stroke-width=".25" d="M92.78 75.948l9.859.501v28.505l-10.361-.376zM102.639 76.449l-10.361 28.505M92.78 75.948l9.859 29.006"/>
    <path fill="#fca" stroke="#000" stroke-miterlimit="10" d="M109.212 152.015c-1.028.022-7.441-.268-7.965 4.089-.525 4.328-1.894 34.896-1.394 37.792.502 2.908 8.272-2.2 8.272-2.2l1.837-39.64s.253-.061-.75-.041z"/>
    <path fill="#fca" stroke="#000" stroke-miterlimit="10" d="M109.963 152.056c-.19-.238-.468.947-1.95 1.569-2.094.899-5.573 1.374-5.764 1.087-.307-.503-1.84 39.937-1.84 39.937s7.466-.276 8.468-3.448c1.03-3.181 1.532-38.58 1.086-39.145z"/>
    <path fill="#414042" stroke="#000" stroke-miterlimit="10" d="M109.407 156.159c-.373-.444-1.04.684-2.675 1.265-1.634.586-3.036.435-3.342.878-.307.447-1.698 33.198-1.253 33.57.42.38 6.484-1.458 6.434-2.267-.051-.832 1.179-33.001.836-33.446z"/>
    <path fill="#ffe6d5" d="M90.942 160.279s13.772-.59 14.329-1.586c.558-1.001-1.054 31.974-1.054 31.974s-2.271.482-7.094.95c-4.793.466-9.162.636-9.162.636z"/>
    <path fill="url(#linearGradient981-5)" stroke="#000" stroke-miterlimit="10" d="M90.942 160.279s13.772-.59 14.329-1.586c.558-1.001-1.054 31.974-1.054 31.974s-2.271.482-7.094.95c-4.793.466-9.162.636-9.162.636z"/>
    <path fill="none" stroke="#000" stroke-dasharray="1" stroke-miterlimit="10" stroke-width=".25" d="M92.585 161.401l7.825-.757-1.002 29.328-8.857.513zM92.585 161.401l6.823 28.571M100.41 160.644l-9.859 29.841"/>
    <path fill="#ffe6d5" d="M106.983 157.802s17.064-8.71-7.585-10.958l.143-.683c3.59-.146 13.152 1.646 14.85 5.854.99 2.464 1.009 6.785 1.197 11.663.369 9.407.667 19.826-1.002 22.504-2.924 4.678-7.854 2.146-7.854 2.146z"/>
    <path fill="url(#linearGradient1004-5)" stroke="#000" stroke-miterlimit="10" d="M106.983 157.802s17.064-8.71-7.585-10.958l.143-.683c3.59-.146 13.152 1.646 14.85 5.854.99 2.464 1.009 6.785 1.197 11.663.369 9.407.667 19.826-1.002 22.504-2.924 4.678-7.854 2.146-7.854 2.146z"/>
    <ellipse cx="-64.235" cy="123.546" fill="#ffe680" stroke="#000" stroke-miterlimit="10" rx="6.795" ry="6.822" transform="scale(-1 1)"/>
    <path fill="#414042" stroke="#000" stroke-miterlimit="10" d="M60.854 123.532c0 1.753 1.334 3.194 2.988 3.194 1.652 0 3.003-1.441 3.003-3.194 0-1.778-1.351-3.208-3.003-3.208-1.654 0-2.988 1.43-2.988 3.208z"/>
    <path fill="#ffe680" stroke="#000" stroke-miterlimit="10" d="M59.11 144.712c0 3.28 3.044 5.961 6.797 5.961 3.75 0 6.794-2.681 6.794-5.961 0-3.281-3.043-5.931-6.794-5.931-3.753 0-6.796 2.65-6.796 5.93z"/>
    <path fill="#414042" stroke="#000" stroke-miterlimit="10" d="M62.537 145a3.137 3.137 0 1 0 6.274 0 3.132 3.132 0 0 0-3.141-3.128A3.132 3.132 0 0 0 62.537 145z"/>
</svg>
