<svg xmlns="http://www.w3.org/2000/svg" xmlns:xlink="http://www.w3.org/1999/xlink" viewBox="0 0 256 256">
    <defs>
        <linearGradient id="innoGrad3">
            <stop offset="0" stop-color="#ff2a2a" stop-opacity="0"/>
            <stop offset="1" stop-color="#ff2a2a" stop-opacity=".502"/>
        </linearGradient>
        <linearGradient id="innoGrad2">
            <stop offset="0" stop-color="#ffd42a" stop-opacity="0"/>
            <stop offset="1" stop-color="#ffd42a" stop-opacity=".502"/>
        </linearGradient>
        <linearGradient id="innoGrad1">
            <stop offset="0" stop-color="#ff7f2a" stop-opacity="0"/>
            <stop offset="1" stop-color="#ff7f2a" stop-opacity=".502"/>
        </linearGradient>
        <linearGradient id="linearGradient932" x1="142.887" x2="240.735" y1="130.498" y2="130.498" gradientUnits="userSpaceOnUse" xlink:href="#innoGrad1"/>
        <radialGradient id="radialGradient955" cx="150.063" cy="85.457" r="3.846" fx="150.063" fy="85.457" gradientTransform="matrix(1 0 0 1.57923 0 -49.5)" gradientUnits="userSpaceOnUse" xlink:href="#innoGrad2"/>
        <radialGradient id="radialGradient978" cx="151.307" cy="173.923" r="3.731" fx="151.307" fy="173.923" gradientTransform="matrix(1 0 0 1.3858 0 -67.1)" gradientUnits="userSpaceOnUse" xlink:href="#innoGrad2"/>
        <linearGradient id="linearGradient1001" x1="136.432" x2="140.305" y1="87.61" y2="87.339" gradientUnits="userSpaceOnUse" xlink:href="#innoGrad1"/>
        <linearGradient id="linearGradient1024" x1="138.187" x2="141.327" y1="166.983" y2="166.441" gradientUnits="userSpaceOnUse" xlink:href="#innoGrad1"/>
        <radialGradient id="radialGradient1055" cx="174.642" cy="140.592" r="50.473" fx="174.642" fy="140.592" gradientTransform="matrix(1.48356 0 0 1.72978 -83.844 -101.393)" gradientUnits="userSpaceOnUse" xlink:href="#innoGrad3"/>
        <linearGradient id="linearGradient932-5" x1="142.887" x2="240.735" y1="130.498" y2="130.498" gradientTransform="matrix(-1 0 0 1 256 0)" gradientUnits="userSpaceOnUse" xlink:href="#innoGrad1"/>
        <radialGradient id="radialGradient955-9" cx="150.063" cy="85.457" r="3.846" fx="150.063" fy="85.457" gradientTransform="matrix(-1 0 0 1.57923 256 -49.5)" gradientUnits="userSpaceOnUse" xlink:href="#innoGrad2"/>
        <radialGradient id="radialGradient978-5" cx="151.307" cy="173.923" r="3.731" fx="151.307" fy="173.923" gradientTransform="matrix(-1 0 0 1.3858 256 -67.1)" gradientUnits="userSpaceOnUse" xlink:href="#innoGrad2"/>
        <linearGradient id="linearGradient1001-8" x1="136.432" x2="140.305" y1="87.61" y2="87.339" gradientTransform="matrix(-1 0 0 1 256 0)" gradientUnits="userSpaceOnUse" xlink:href="#innoGrad1"/>
        <linearGradient id="linearGradient1024-8" x1="138.187" x2="141.327" y1="166.983" y2="166.441" gradientTransform="matrix(-1 0 0 1 256 0)" gradientUnits="userSpaceOnUse" xlink:href="#innoGrad1"/>
        <radialGradient id="radialGradient1055-7" cx="174.642" cy="140.592" r="50.473" fx="174.642" fy="140.592" gradientTransform="matrix(-1.48356 0 0 1.72978 339.844 -101.393)" gradientUnits="userSpaceOnUse" xlink:href="#innoGrad3"/>
    </defs>
    <path fill="#ff7f2a" stroke="#000" stroke-miterlimit="10" d="M147.625 115.248s-1.035 1.097-1.441 3.387c-.502 2.855.032 7.492-.215 10.82-.209 2.835-1.256 4.563-1.074 5.119.564 1.735 2.249 3.055 2.249 3.055l1.866-18.663-1.385-3.718z"/>
    <path fill="#ffb380" stroke="#000" stroke-miterlimit="10" d="M143.161 151.602c.491-.044.657 2.624 1.251 5.026.688 2.785 1.771 5.367 1.771 5.367h-3.614s-.465-10.297.592-10.393z"/>
    <path fill="#ffb380" stroke="#000" stroke-miterlimit="10" d="M141.412 153.406l5.305.497v-11.419l-8.67 2.734z"/>
    <path fill="#ffe6d5" stroke="#000" stroke-miterlimit="10" d="M142.531 155.489s1.363-2.367.367-4.748c-.777-1.858-3.016-3.332-4.202-5.011-.886-1.256 8.232-2.783 8.294-3.478.247-2.809.068-2.093.068-2.093s-11.37 1.848-11.357 3.996c.013 2.147 3.328 7.445 3.328 7.445l3.502 3.889z"/>
    <path fill="#ffe6d5" stroke="#000" stroke-miterlimit="10" d="M140.297 152.983s.208-.479 0-1.382c-.108-.469-2.711-4.857-3.305-7.445-.547-2.371 9.725-2.978 9.725-2.978l.273 1.074s-9.54 1.275-8.943 2.965c.699 1.982 3.277 4.827 3.53 5.876.47 1.942 0 3.428 0 3.428l-1.28-1.538z"/>
    <path fill="#f95" d="M143.394 74.617c1.983-8.753 13.876-20.151 25.935-22.463 2.49-.478 6.302.008 11.232-.248 1.695-.089 4.365.271 6.111-.083 1.563-.317 2.184-1.353 3.964-1.404 3.179-.09 5.917.811 9.249.826 2.696.013 5.914-.866 8.589-.833 1.75.022 4.158.472 5.782.338 1.427-.118 2.081-.827 3.469-.744 1.196.071 1.85.63 2.973.744.806.081 2.203-.501 2.975-.414 1.63.188 1.622.792 2.973 1.074 1.403.292 2.313.062 3.633.331 2.205.449 4.584 1.379 5.197 1.796.909.615 1.514 6.957 1.74 15.959.068 2.68.054 8.057.412 11.645.495 4.956-.082 4.168-.082 5.037 0 1.653 3.385 6.856 2.56 17.592-1.001 13.021-3.337 28.024-4.212 40.552-1.392 19.945-2.478 28.574-5.615 41.788-.55 2.318.108 4.112-.166 5.947-.196 1.315-1.183 2.523-1.445 3.592-.616 2.516-.608 4.257-1.197 4.832-1.589 1.548-2.374 2.522-5.987 4.335-.943.474-2.374.582-3.84 1.239-1.851.831-3.811 2.215-5.534 2.685-8.991 2.453-21.043 2.52-29.566 1.982-4.218-.266-7.223.36-9.249-.991-2.072-1.383-3.057-3.406-4.627-4.79-5.928-5.23-9.701-9.914-14.699-16.022-1.083-1.322-1.023-2.883-1.817-4.625-4.414-9.693-5.656-25.106-5.285-37.826.295-10.102.592-18.417.99-21.142.988-6.771-4.463-50.709-4.463-50.709z"/>
    <path fill="url(#linearGradient932)" stroke="#000" stroke-miterlimit="10" d="M143.394 74.617c1.983-8.753 13.876-20.151 25.935-22.463 2.49-.478 6.302.008 11.232-.248 1.695-.089 4.365.271 6.111-.083 1.563-.317 2.184-1.353 3.964-1.404 3.179-.09 5.917.811 9.249.826 2.696.013 5.914-.866 8.589-.833 1.75.022 4.158.472 5.782.338 1.427-.118 2.081-.827 3.469-.744 1.196.071 1.85.63 2.973.744.806.081 2.203-.501 2.975-.414 1.63.188 1.622.792 2.973 1.074 1.403.292 2.313.062 3.633.331 2.205.449 4.584 1.379 5.197 1.796.909.615 1.514 6.957 1.74 15.959.068 2.68.054 8.057.412 11.645.495 4.956-.082 4.168-.082 5.037 0 1.653 3.385 6.856 2.56 17.592-1.001 13.021-3.337 28.024-4.212 40.552-1.392 19.945-2.478 28.574-5.615 41.788-.55 2.318.108 4.112-.166 5.947-.196 1.315-1.183 2.523-1.445 3.592-.616 2.516-.608 4.257-1.197 4.832-1.589 1.548-2.374 2.522-5.987 4.335-.943.474-2.374.582-3.84 1.239-1.851.831-3.811 2.215-5.534 2.685-8.991 2.453-21.043 2.52-29.566 1.982-4.218-.266-7.223.36-9.249-.991-2.072-1.383-3.057-3.406-4.627-4.79-5.928-5.23-9.701-9.914-14.699-16.022-1.083-1.322-1.023-2.883-1.817-4.625-4.414-9.693-5.656-25.106-5.285-37.826.295-10.102.592-18.417.99-21.142.988-6.771-4.463-50.709-4.463-50.709z"/>
    <path fill="none" stroke="#000" stroke-dasharray="1" stroke-miterlimit="10" d="M170.069 76.724s4.46-10.53 6.814-10.901c1.177-.186 14.306-2.402 27.626-2.974 13.319-.571 26.827.5 27.254 1.115.67.967 3.841 12.76 3.841 12.76M164.62 188.837s12.675 17.826 34.066 14.122c25.768-4.46 30.601-24.405 30.601-24.405"/>
    <path fill="none" stroke="#000" stroke-miterlimit="10" d="M235.604 76.724l2.219 7.185"/>
    <path fill="#ffb380" stroke="#000" stroke-miterlimit="10" d="M136.196 70.453s6.361-1.206 7.228-.629 13.813 9.871 13.813 15.197c0 5.327-12.388 18.954-12.388 18.954l-7.185.868-1.468-34.39zm11.112 10.792c-2.002 0-3.624 2.247-3.624 5.018s1.622 5.018 3.624 5.018c2.001 0 3.623-2.247 3.623-5.018s-1.622-5.018-3.623-5.018z"/>
    <path fill="#fca" stroke="#000" stroke-miterlimit="10" d="M133.999 71.768c.495-1.114 6.278-2.766 7.146-2.189.866.577 13.813 9.871 13.813 15.197 0 5.328-11.893 18.459-12.388 18.954-.496.496-6.318 2.23-7.187.868-.867-1.363-1.878-31.714-1.384-32.83zm11.668 8.548c-2.225 0-4.027 2.538-4.027 5.668 0 3.13 1.803 5.667 4.027 5.667 2.222 0 4.024-2.537 4.024-5.667s-1.802-5.668-4.024-5.668z"/>
    <path fill="#ffe680" d="M153.409 85.488c0 2.891-1.498 5.544-3.347 5.544-1.848 0-3.346-2.653-3.346-5.544s1.498-5.605 3.346-5.605c1.849 0 3.347 2.715 3.347 5.605z"/>
    <path fill="url(#radialGradient955)" stroke="#000" stroke-miterlimit="10" d="M153.409 85.488c0 2.891-1.498 5.544-3.347 5.544-1.848 0-3.346-2.653-3.346-5.544 0-2.891 1.498-5.605 3.346-5.605 1.849 0 3.347 2.715 3.347 5.605z"/>
    <path fill="none" stroke="#000" stroke-miterlimit="10" d="M138.047 72.449l1.302 29.671M134.764 73.008l1.983 29.855"/>
    <path fill="#ffb380" stroke="#000" stroke-miterlimit="10" d="M137.979 150.749c.359-.205 3.398 3.593 7.578 8.053 5.944 6.346 10.65 10.756 10.643 15.524-.003 2.017-9.147 6.813-10.291 5.474-.993-1.165-1.592-1.587-1.734-2.106-.266-.954-8.432-25.777-8.432-25.777.074-.308 2.111-1.096 2.236-1.168zm9.404 15.546c-1.252.678-1.161 3.272.203 5.796 1.367 2.521 3.488 4.018 4.739 3.341 1.254-.678 1.161-3.271-.204-5.795-1.364-2.523-3.486-4.02-4.738-3.342z"/>
    <path fill="#fca" stroke="#000" stroke-miterlimit="10" d="M135.817 151.609c.357-.204 3.396 3.593 7.576 8.054 5.945 6.345 13.244 12.017 13.236 16.785-.003 2.018-2.446 3.19-4.337 4.708-2.029 1.629-3.775 3.509-4.769 3.221-1.028-.297-2.636-2.376-3.778-3.717-.993-1.164-1.59-1.587-1.735-2.106-.308-1.115-7.061-26.449-6.193-26.945zm9.3 15.912c-1.254.678-1.161 3.272.203 5.797 1.365 2.521 3.486 4.017 4.738 3.34 1.254-.679 1.162-3.271-.203-5.795-1.364-2.522-3.486-4.02-4.738-3.342z"/>
    <path fill="#ffe680" d="M153.181 172.87c1.383 2.49 1.905 4.854.627 5.563-1.28.711-2.979-.98-4.364-3.471-1.381-2.491-1.921-4.84-.644-5.549 1.28-.709 2.997.966 4.381 3.457z"/>
    <path fill="url(#radialGradient978)" stroke="#000" stroke-miterlimit="10" d="M153.181 172.87c1.383 2.49 1.905 4.854.627 5.563-1.28.711-2.979-.98-4.364-3.471-1.381-2.491-1.921-4.84-.644-5.549 1.28-.709 2.997.966 4.381 3.457z"/>
    <path fill="#ffe6d5" d="M134.393 73.689c.744-1.177 3.965-1.116 4.304-.681.342.433 1.416 27.877 1.023 28.245-.197.184-1.461-.107-2.207.063-.743.17-.971.804-1.316.618-.689-.372-2.548-27.068-1.804-28.245z"/>
    <path fill="url(#linearGradient1001)" stroke="#000" stroke-miterlimit="10" d="M134.393 73.689c.744-1.177 3.965-1.116 4.304-.681.342.433 1.416 27.877 1.023 28.245-.197.184-1.461-.107-2.207.063-.743.17-.971.804-1.316.618-.689-.372-2.548-27.068-1.804-28.245z"/>
    <path fill="#ffe6d5" d="M137.242 154.521s1.19.926 1.423 1.734c.233.81 6.754 23.333 6.195 23.775-.31.246-3.991-3.891-4.212-4.14-.496-.558-4.576-16.716-4.907-18.768-.332-2.051 1.501-2.601 1.501-2.601z"/>
    <path fill="url(#linearGradient1024)" stroke="#000" stroke-miterlimit="10" d="M137.242 154.521s1.19.926 1.423 1.734c.233.81 6.754 23.333 6.195 23.775-.31.246-3.991-3.891-4.212-4.14-.496-.558-4.576-16.716-4.907-18.768-.332-2.051 1.501-2.601 1.501-2.601z"/>
    <path fill="none" stroke="#000" stroke-miterlimit="10" d="M135.701 156.194s.806.419 1.483.434c.677.015 1.48-.372 1.48-.372"/>
    <path fill="#ff8080" d="M207.812 77.591c17.479-1.036 41.427 6.462 40.139 47.076-.66 20.812-20.089 73.435-45.919 73.832-25.83.399-53.128-15.029-53.955-52.359-.827-37.33 21.083-66.257 59.735-68.549z"/>
    <path fill="url(#radialGradient1055)" stroke="#000" stroke-miterlimit="10" d="M207.812 77.591c17.479-1.036 41.427 6.462 40.139 47.076-.66 20.812-20.089 73.435-45.919 73.832-25.83.399-53.128-15.029-53.955-52.359-.827-37.33 21.083-66.257 59.735-68.549z"/>
    <path fill="none" stroke="#000" stroke-miterlimit="10" stroke-width=".5" d="M208.672 82.067c16.322-.982 38.687 6.129 37.483 44.644-.617 19.736-18.761 69.643-42.883 70.021-24.121.377-49.615-14.254-50.388-49.656-.771-35.403 19.692-62.836 55.788-65.009z"/>
    <circle cx="181.221" cy="105.752" r="7.103" fill="none" stroke="#000" stroke-miterlimit="10" stroke-width=".25"/>
    <circle cx="181.219" cy="105.672" r="5.78" fill="#ffe680" stroke="#000" stroke-miterlimit="10"/>
    <circle cx="181.095" cy="105.233" r="2.767" fill="#414042" stroke="#000" stroke-miterlimit="10" stroke-width=".25"/>
    <circle cx="167.181" cy="130.498" r="6.524" fill="none" stroke="#000" stroke-miterlimit="10" stroke-width=".25"/>
    <circle cx="168.13" cy="129.878" r="5.162" fill="#ffe680" stroke="#000" stroke-miterlimit="10"/>
    <circle cx="167.622" cy="129.878" r="2.424" fill="#414042" stroke="#000" stroke-miterlimit="10" stroke-width=".25"/>
    <ellipse cx="167.167" cy="155.356" fill="none" stroke="#000" stroke-miterlimit="10" stroke-width=".25" rx="6.235" ry="5.913"/>
    <ellipse cx="167.345" cy="154.223" fill="#ffe680" stroke="#000" stroke-miterlimit="10" rx="5.169" ry="4.128" transform="rotate(7.65 167.337 154.241)"/>
    <ellipse cx="167.603" cy="154.519" fill="#414042" stroke="#000" stroke-miterlimit="10" stroke-width=".25" rx="2.59" ry="1.702" transform="matrix(1 .0085 -.0085 1 1.317 -1.416)"/>
    <circle cx="176.844" cy="176.284" r="5.781" fill="none" stroke="#000" stroke-miterlimit="10" stroke-width=".25"/>
    <ellipse cx="176.595" cy="175.459" fill="#ffe680" stroke="#000" stroke-miterlimit="10" rx="5.038" ry="4.212"/>
    <ellipse cx="176.472" cy="175.666" fill="#414042" stroke="#000" stroke-miterlimit="10" stroke-width=".25" rx="2.354" ry="2.105"/>
    <ellipse cx="231.422" cy="99.303" fill="none" stroke="#000" stroke-miterlimit="10" stroke-width=".25" rx="4.149" ry="7.275" transform="rotate(-4.405 231.546 99.35)"/>
    <ellipse cx="230.751" cy="98.966" fill="#ffe680" stroke="#000" stroke-miterlimit="10" rx="3.506" ry="5.501" transform="rotate(-4.44 230.789 99.09)"/>
    <ellipse cx="230.955" cy="98.811" fill="#414042" stroke="#000" stroke-miterlimit="10" stroke-width=".25" rx="1.289" ry="2.513" transform="rotate(-4.439 230.973 98.9)"/>
    <ellipse cx="240.149" cy="119.74" fill="none" stroke="#000" stroke-miterlimit="10" stroke-width=".25" rx="2.738" ry="6.789" transform="rotate(4.531 240.194 119.765)"/>
    <ellipse cx="239.845" cy="119.736" fill="#ffe680" stroke="#000" stroke-miterlimit="10" rx="2.346" ry="5.555" transform="rotate(7.778 239.84 119.753)"/>
    <ellipse cx="239.937" cy="119.757" fill="#414042" stroke="#000" stroke-miterlimit="10" stroke-width=".25" rx="1.212" ry="2.754" transform="rotate(7.946 240.01 119.821)"/>
    <ellipse cx="237.591" cy="143.94" fill="none" stroke="#000" stroke-miterlimit="10" stroke-width=".25" rx="2.418" ry="6.487" transform="rotate(20.82 237.59 143.925)"/>
    <ellipse cx="237.435" cy="143.574" fill="#ffe680" stroke="#000" stroke-miterlimit="10" rx="1.288" ry="5.192" transform="rotate(22.706 237.428 143.569)"/>
    <ellipse cx="237.505" cy="143.543" fill="#414042" stroke="#000" stroke-miterlimit="10" stroke-width=".25" rx=".737" ry="2.25" transform="rotate(22.467 237.51 143.565)"/>
    <path fill="none" stroke="#000" stroke-miterlimit="10" stroke-width=".25" d="M231.418 168.692c-1.307 3.301-3.585 5.499-5.091 4.903-1.504-.596-1.665-3.756-.359-7.057 1.305-3.306 3.584-5.5 5.089-4.906 1.506.596 1.666 3.756.361 7.06z"/>
    <ellipse cx="228.733" cy="167.244" fill="#ffe680" stroke="#000" stroke-miterlimit="10" rx="2.466" ry="5.148" transform="rotate(21.581 228.756 167.264)"/>
    <ellipse cx="228.973" cy="167.449" fill="#414042" stroke="#000" stroke-miterlimit="10" stroke-width=".25" rx="1.411" ry="2.679" transform="rotate(21.565 228.95 167.441)"/>
    <path fill="#ff7f2a" stroke="#000" stroke-miterlimit="10" d="M108.376 115.248s1.035 1.097 1.44 3.387c.503 2.855-.031 7.492.216 10.82.209 2.835 1.256 4.563 1.074 5.12-.564 1.734-2.25 3.054-2.25 3.054l-1.865-18.663z"/>
    <path fill="#ffb380" stroke="#000" stroke-miterlimit="10" d="M112.84 151.602c-.491-.044-.657 2.624-1.251 5.026-.688 2.785-1.771 5.367-1.771 5.367h3.614s.465-10.297-.592-10.393z"/>
    <path fill="#ffb380" stroke="#000" stroke-miterlimit="10" d="M117.954 145.218l-3.365 8.188-5.305.497v-11.419z"/>
    <path fill="#ffe6d5" stroke="#000" stroke-miterlimit="10" d="M113.47 155.49s-1.363-2.368-.367-4.749c.777-1.858 3.016-3.332 4.202-5.01.886-1.257-8.232-2.784-8.294-3.479-.247-2.809-.068-2.093-.068-2.093s11.37 1.848 11.357 3.996c-.013 2.147-3.328 7.445-3.328 7.445z"/>
    <path fill="#ffe6d5" stroke="#000" stroke-miterlimit="10" d="M115.704 152.983s-.208-.479 0-1.382c.108-.469 2.71-4.857 3.305-7.445.547-2.37-9.725-2.978-9.725-2.978l-.273 1.074s9.54 1.275 8.943 2.965c-.7 1.982-3.277 4.827-3.53 5.876-.47 1.942 0 3.428 0 3.428z"/>
    <path fill="#f95" d="M112.607 74.617c-1.983-8.753-13.876-20.15-25.935-22.463-2.49-.478-6.302.008-11.232-.248-1.695-.089-4.365.271-6.111-.083-1.563-.317-2.184-1.353-3.964-1.404-3.18-.09-5.917.811-9.25.826-2.695.013-5.913-.866-8.588-.833-1.75.022-4.158.472-5.782.338-1.427-.118-2.081-.827-3.47-.744-1.195.071-1.85.63-2.972.744-.806.081-2.203-.5-2.975-.414-1.63.188-1.622.792-2.973 1.074-1.403.292-2.313.062-3.633.331-2.205.45-4.584 1.38-5.197 1.796-.91.615-1.514 6.957-1.74 15.96-.068 2.68-.054 8.056-.412 11.644-.495 4.956.082 4.168.082 5.037 0 1.653-3.385 6.856-2.56 17.592 1 13.021 3.337 28.024 4.212 40.552 1.392 19.945 2.478 28.574 5.615 41.788.55 2.318-.108 4.112.166 5.947.196 1.315 1.183 2.523 1.445 3.592.616 2.516.608 4.257 1.197 4.832 1.589 1.548 2.374 2.522 5.987 4.335.943.474 2.374.582 3.84 1.24 1.85.83 3.81 2.214 5.534 2.684 8.99 2.453 21.043 2.52 29.566 1.982 4.218-.266 7.223.36 9.249-.99 2.072-1.384 3.057-3.407 4.627-4.79 5.928-5.23 9.7-9.915 14.699-16.023 1.083-1.322 1.023-2.883 1.817-4.625 4.414-9.693 5.656-25.106 5.285-37.826-.295-10.102-.592-18.417-.99-21.142-.988-6.77 4.463-50.709 4.463-50.709z"/>
    <path fill="url(#linearGradient932-5)" stroke="#000" stroke-miterlimit="10" d="M112.607 74.617c-1.983-8.753-13.876-20.15-25.935-22.463-2.49-.478-6.302.008-11.232-.248-1.695-.089-4.365.271-6.111-.083-1.563-.317-2.184-1.353-3.964-1.404-3.18-.09-5.917.811-9.25.826-2.695.013-5.913-.866-8.588-.833-1.75.022-4.158.472-5.782.338-1.427-.118-2.081-.827-3.47-.744-1.195.071-1.85.63-2.972.744-.806.081-2.203-.5-2.975-.414-1.63.188-1.622.792-2.973 1.074-1.403.292-2.313.062-3.633.331-2.205.45-4.584 1.38-5.197 1.796-.91.615-1.514 6.957-1.74 15.96-.068 2.68-.054 8.056-.412 11.644-.495 4.956.082 4.168.082 5.037 0 1.653-3.385 6.856-2.56 17.592 1 13.021 3.337 28.024 4.212 40.552 1.392 19.945 2.478 28.574 5.615 41.788.55 2.318-.108 4.112.166 5.947.196 1.315 1.183 2.523 1.445 3.592.616 2.516.608 4.257 1.197 4.832 1.589 1.548 2.374 2.522 5.987 4.335.943.474 2.374.582 3.84 1.24 1.85.83 3.81 2.214 5.534 2.684 8.99 2.453 21.043 2.52 29.566 1.982 4.218-.266 7.223.36 9.249-.99 2.072-1.384 3.057-3.407 4.627-4.79 5.928-5.23 9.7-9.915 14.699-16.023 1.083-1.322 1.023-2.883 1.817-4.625 4.414-9.693 5.656-25.106 5.285-37.826-.295-10.102-.592-18.417-.99-21.142-.988-6.77 4.463-50.709 4.463-50.709z"/>
    <path fill="none" stroke="#000" stroke-dasharray="1" stroke-miterlimit="10" d="M85.932 76.724s-4.46-10.53-6.814-10.9c-1.177-.187-14.306-2.403-27.626-2.975-13.32-.57-26.827.5-27.254 1.115-.67.967-3.841 12.76-3.841 12.76M91.38 188.837s-12.674 17.826-34.065 14.122c-25.768-4.46-30.601-24.405-30.601-24.405"/>
    <path fill="none" stroke="#000" stroke-miterlimit="10" d="M20.397 76.724l-2.219 7.185"/>
    <path fill="#ffb380" stroke="#000" stroke-miterlimit="10" d="M119.805 70.453s-6.361-1.206-7.228-.629-13.813 9.871-13.813 15.197c0 5.327 12.388 18.954 12.388 18.954l7.185.868zm-11.112 10.792c2.002 0 3.624 2.247 3.624 5.018s-1.622 5.018-3.624 5.018c-2.001 0-3.623-2.247-3.623-5.018 0-2.77 1.622-5.018 3.623-5.018z"/>
    <path fill="#fca" stroke="#000" stroke-miterlimit="10" d="M122.002 71.768c-.495-1.114-6.278-2.766-7.146-2.189-.866.577-13.813 9.871-13.813 15.197 0 5.328 11.893 18.46 12.388 18.954.496.496 6.318 2.23 7.187.868.867-1.363 1.878-31.714 1.384-32.83zm-11.668 8.548c2.225 0 4.027 2.538 4.027 5.668 0 3.13-1.803 5.667-4.027 5.667-2.222 0-4.024-2.537-4.024-5.667s1.802-5.668 4.024-5.668z"/>
    <path fill="#ffe680" d="M102.592 85.488c0 2.891 1.498 5.544 3.347 5.544 1.848 0 3.346-2.653 3.346-5.544 0-2.89-1.498-5.605-3.346-5.605-1.85 0-3.347 2.715-3.347 5.605z"/>
    <path fill="url(#radialGradient955-9)" stroke="#000" stroke-miterlimit="10" d="M102.592 85.488c0 2.891 1.498 5.544 3.347 5.544 1.848 0 3.346-2.653 3.346-5.544 0-2.89-1.498-5.605-3.346-5.605-1.85 0-3.347 2.715-3.347 5.605z"/>
    <path fill="none" stroke="#000" stroke-miterlimit="10" d="M117.954 72.449l-1.302 29.671M121.237 73.008l-1.983 29.855"/>
    <path fill="#ffb380" stroke="#000" stroke-miterlimit="10" d="M118.022 150.75c-.36-.206-3.398 3.592-7.578 8.052-5.944 6.346-10.65 10.756-10.643 15.524.003 2.017 9.147 6.813 10.29 5.474.994-1.165 1.593-1.587 1.735-2.106.266-.954 8.432-25.777 8.432-25.777-.074-.308-2.111-1.096-2.236-1.168zm-9.404 15.545c1.252.678 1.16 3.272-.203 5.796-1.367 2.521-3.488 4.018-4.74 3.341-1.253-.678-1.16-3.27.205-5.795 1.364-2.523 3.486-4.02 4.738-3.342z"/>
    <path fill="#fca" stroke="#000" stroke-miterlimit="10" d="M120.184 151.61c-.357-.205-3.396 3.592-7.576 8.053-5.945 6.345-13.244 12.017-13.236 16.785.003 2.018 2.446 3.19 4.337 4.708 2.029 1.63 3.775 3.51 4.769 3.221 1.028-.297 2.636-2.376 3.778-3.717.993-1.164 1.59-1.587 1.735-2.106.308-1.115 7.06-26.449 6.193-26.945zm-9.3 15.911c1.254.678 1.16 3.272-.203 5.797-1.365 2.521-3.486 4.017-4.738 3.34-1.254-.679-1.162-3.27.203-5.795 1.364-2.522 3.486-4.02 4.738-3.342z"/>
    <path fill="#ffe680" d="M102.82 172.87c-1.383 2.49-1.905 4.854-.627 5.563 1.28.711 2.979-.98 4.364-3.47 1.38-2.492 1.92-4.84.644-5.55-1.28-.709-2.997.966-4.381 3.457z"/>
    <path fill="url(#radialGradient978-5)" stroke="#000" stroke-miterlimit="10" d="M102.82 172.87c-1.383 2.49-1.905 4.854-.627 5.563 1.28.711 2.979-.98 4.364-3.47 1.38-2.492 1.92-4.84.644-5.55-1.28-.709-2.997.966-4.381 3.457z"/>
    <path fill="#ffe6d5" d="M121.608 73.69c-.744-1.178-3.965-1.117-4.304-.682-.342.433-1.416 27.877-1.023 28.245.197.184 1.46-.107 2.207.063.743.17.97.804 1.316.618.689-.372 2.548-27.068 1.804-28.245z"/>
    <path fill="url(#linearGradient1001-8)" stroke="#000" stroke-miterlimit="10" d="M121.608 73.69c-.744-1.178-3.965-1.117-4.304-.682-.342.433-1.416 27.877-1.023 28.245.197.184 1.46-.107 2.207.063.743.17.97.804 1.316.618.689-.372 2.548-27.068 1.804-28.245z"/>
    <path fill="#ffe6d5" d="M118.759 154.521s-1.19.926-1.423 1.734c-.233.81-6.754 23.333-6.195 23.775.31.246 3.99-3.89 4.212-4.14.496-.558 4.576-16.716 4.907-18.768.332-2.05-1.501-2.6-1.501-2.6z"/>
    <path fill="url(#linearGradient1024-8)" stroke="#000" stroke-miterlimit="10" d="M118.759 154.521s-1.19.926-1.423 1.734c-.233.81-6.754 23.333-6.195 23.775.31.246 3.99-3.89 4.212-4.14.496-.558 4.576-16.716 4.907-18.768.332-2.05-1.501-2.6-1.501-2.6z"/>
    <path fill="none" stroke="#000" stroke-miterlimit="10" d="M120.3 156.194s-.806.42-1.483.434c-.677.015-1.48-.372-1.48-.372"/>
    <path fill="#ff8080" d="M48.189 77.591c-17.48-1.036-41.427 6.462-40.14 47.076.66 20.812 20.09 73.435 45.92 73.832 25.83.4 53.128-15.029 53.955-52.359.827-37.33-21.083-66.257-59.735-68.549z"/>
    <path fill="url(#radialGradient1055-7)" stroke="#000" stroke-miterlimit="10" d="M48.189 77.591c-17.48-1.036-41.427 6.462-40.14 47.076.66 20.812 20.09 73.435 45.92 73.832 25.83.4 53.128-15.029 53.955-52.359.827-37.33-21.083-66.257-59.735-68.549z"/>
    <path fill="none" stroke="#000" stroke-miterlimit="10" stroke-width=".5" d="M47.329 82.067c-16.322-.982-38.687 6.13-37.483 44.644.617 19.736 18.76 69.643 42.883 70.021 24.12.377 49.615-14.254 50.388-49.656.77-35.403-19.692-62.836-55.788-65.009z"/>
    <circle cx="-74.78" cy="105.752" r="7.103" fill="none" stroke="#000" stroke-miterlimit="10" stroke-width=".25" transform="scale(-1 1)"/>
    <circle cx="-74.782" cy="105.672" r="5.78" fill="#ffe680" stroke="#000" stroke-miterlimit="10" transform="scale(-1 1)"/>
    <circle cx="-74.906" cy="105.233" r="2.767" fill="#414042" stroke="#000" stroke-miterlimit="10" stroke-width=".25" transform="scale(-1 1)"/>
    <circle cx="-88.82" cy="130.498" r="6.524" fill="none" stroke="#000" stroke-miterlimit="10" stroke-width=".25" transform="scale(-1 1)"/>
    <circle cx="-87.871" cy="129.878" r="5.162" fill="#ffe680" stroke="#000" stroke-miterlimit="10" transform="scale(-1 1)"/>
    <circle cx="-88.379" cy="129.878" r="2.424" fill="#414042" stroke="#000" stroke-miterlimit="10" stroke-width=".25" transform="scale(-1 1)"/>
    <ellipse cx="-88.834" cy="155.356" fill="none" stroke="#000" stroke-miterlimit="10" stroke-width=".25" rx="6.235" ry="5.913" transform="scale(-1 1)"/>
    <ellipse cx="-67.321" cy="164.659" fill="#ffe680" stroke="#000" stroke-miterlimit="10" rx="5.169" ry="4.128" transform="scale(-1 1) rotate(7.654)"/>
    <ellipse cx="-87.078" cy="155.273" fill="#414042" stroke="#000" stroke-miterlimit="10" stroke-width=".25" rx="2.59" ry="1.702" transform="scale(-1 1) rotate(.487)"/>
    <circle cx="-79.157" cy="176.284" r="5.781" fill="none" stroke="#000" stroke-miterlimit="10" stroke-width=".25" transform="scale(-1 1)"/>
    <ellipse cx="-79.406" cy="175.459" fill="#ffe680" stroke="#000" stroke-miterlimit="10" rx="5.038" ry="4.212" transform="scale(-1 1)"/>
    <ellipse cx="-79.529" cy="175.666" fill="#414042" stroke="#000" stroke-miterlimit="10" stroke-width=".25" rx="2.354" ry="2.105" transform="scale(-1 1)"/>
    <ellipse cx="-32.147" cy="97.126" fill="none" stroke="#000" stroke-miterlimit="10" stroke-width=".25" rx="4.149" ry="7.275" transform="scale(-1 1) rotate(-4.405)"/>
    <ellipse cx="-32.805" cy="96.731" fill="#ffe680" stroke="#000" stroke-miterlimit="10" rx="3.506" ry="5.501" transform="scale(-1 1) rotate(-4.416)"/>
    <ellipse cx="-32.596" cy="96.587" fill="#414042" stroke="#000" stroke-miterlimit="10" stroke-width=".25" rx="1.289" ry="2.513" transform="scale(-1 1) rotate(-4.422)"/>
    <ellipse cx="-6.335" cy="120.617" fill="none" stroke="#000" stroke-miterlimit="10" stroke-width=".25" rx="2.738" ry="6.789" transform="scale(-1 1) rotate(4.531)"/>
    <ellipse cx=".208" cy="120.822" fill="#ffe680" stroke="#000" stroke-miterlimit="10" rx="2.346" ry="5.555" transform="scale(-1 1) rotate(7.782)"/>
    <ellipse cx=".661" cy="120.817" fill="#414042" stroke="#000" stroke-miterlimit="10" stroke-width=".25" rx="1.212" ry="2.754" transform="scale(-1 1) rotate(7.949)"/>
    <ellipse cx="33.944" cy="141.087" fill="none" stroke="#000" stroke-miterlimit="10" stroke-width=".25" rx="2.418" ry="6.487" transform="scale(-1 1) rotate(20.818)"/>
    <ellipse cx="38.291" cy="139.617" fill="#ffe680" stroke="#000" stroke-miterlimit="10" rx="1.288" ry="5.192" transform="scale(-1 1) rotate(22.706)"/>
    <ellipse cx="37.778" cy="139.711" fill="#414042" stroke="#000" stroke-miterlimit="10" stroke-width=".25" rx=".737" ry="2.25" transform="scale(-1 1) rotate(22.47)"/>
    <path fill="none" stroke="#000" stroke-miterlimit="10" stroke-width=".25" d="M24.583 168.692c1.307 3.301 3.585 5.5 5.09 4.903 1.505-.596 1.666-3.756.36-7.057-1.305-3.306-3.584-5.5-5.09-4.906-1.505.596-1.665 3.756-.36 7.06z"/>
    <ellipse cx="36.162" cy="165.54" fill="#ffe680" stroke="#000" stroke-miterlimit="10" rx="2.466" ry="5.148" transform="scale(-1 1) rotate(21.58)"/>
    <ellipse cx="36.417" cy="165.669" fill="#414042" stroke="#000" stroke-miterlimit="10" stroke-width=".25" rx="1.411" ry="2.679" transform="scale(-1 1) rotate(21.567)"/>
</svg>
