<svg xmlns="http://www.w3.org/2000/svg" viewBox="0 0 64 64">
    <g fill-rule="evenodd">
        <path fill="#ff8080" stroke="#000" stroke-width="1.038" d="M56.14 24.917c-.37-10.711-15.734-18.845-22.667-10.989-7.624 8.64-4.15 20.954-10.912 29.81-2.919 3.823-6.602 5.614-10.988 4.9 5.594 3.425 15.733 7.876 22.94.827 9.368-9.16 6.168-18.197 12.898-26.038 3.193-3.72 6.244-.502 8.73 1.49z"/>
        <path fill="#ffd5d5" d="M42.02 25.732c2.685-4.135 6.324-8.38 10.377-5.585-4.452-6.85-10.58-8.863-15.948-4.836 1.874-.058 3.562.037 4.626.648-.856 1.797-1.642 2.881-2.443 4.112 1.37.056 2.74.11 4.167-.417-.467 2.047-.535 4.054-.778 6.078z"/>
    </g>
</svg>
