<?xml version="1.0" encoding="UTF-8"?>
<svg version="1.1" viewBox="0 0 64 64" xmlns="http://www.w3.org/2000/svg" xmlns:cc="http://creativecommons.org/ns#" xmlns:dc="http://purl.org/dc/elements/1.1/" xmlns:rdf="http://www.w3.org/1999/02/22-rdf-syntax-ns#" xmlns:xlink="http://www.w3.org/1999/xlink">
 <metadata>
  <rdf:RDF>
   <cc:Work rdf:about="">
    <dc:format>image/svg+xml</dc:format>
    <dc:type rdf:resource="http://purl.org/dc/dcmitype/StillImage"/>
    <dc:title/>
   </cc:Work>
  </rdf:RDF>
 </metadata>
 <defs>
  <linearGradient id="linearGradient4326-2" x1="24.439" x2="29.08" y1="1044.3" y2="1037.6" gradientTransform="matrix(2.1849 0 0 2.7723 -39.05 -2846.1)" gradientUnits="userSpaceOnUse">
   <stop stop-color="#faa" offset="0"/>
   <stop stop-color="#f55" offset="1"/>
  </linearGradient>
 </defs>
 <g fill-rule="evenodd" stroke="#000" stroke-width=".75">
  <path d="m51.745 43.13c-0.311 2.586-3.29 3.872-10.97 2.282-12.025-2.49-26.752-14.972-27.877-5.881-1.128-1.746-2.86-1.74-2.936 0.25-0.075 1.944 1.59 5.25 1.601 7.555 1.028-1.711 4.527-2.703 5.59-4.03 0.694-0.869 0.023-3.549-2.807-2.957-0.398-8.206 14.419 4.289 25.403 6.762 9.971 2.245 13.456-0.619 13.668-3.887 0.36-5.562-8.214-9.366-8.317-7.772-0.1 1.542 7.264 2.543 6.645 7.679z" fill="url(#linearGradient4326-2)"/>
  <path d="m48.242 30.322c-2.568-2.344-5.222-4.019-8.12-3.758 4.634-6.268 3.281-11.606 0.117-17.976 8.019 5.122 12.235 12.519 8.003 21.734z" fill="#f55"/>
  <path d="m15.701 29.856c2.568-2.344 5.222-4.019 8.12-3.758-4.634-6.268-3.281-11.606-0.117-17.976-8.019 5.122-12.235 12.519-8.003 21.734z" fill="#f55"/>
 </g>
</svg>
