<svg xmlns="http://www.w3.org/2000/svg" viewBox="0 0 64 64">
    <path fill="#ff8080" fill-rule="evenodd" stroke="#000" d="M53.453 27.456c1.623.253 3.935-3.721-.947-5.935-1.008-.458-1.562-1.068-3.44-.979-.857.041-1.865.466-3.189 1.295-1.22.497-2.096.88-2.967 1.262-2.338.133-4.585.296-7.26.316-.633-.463-1.122-.926-2.084-1.389-.565-.91-.914-1.812-2.299-2.77-2.595-1.796-4.922-1.324-7.171-.702-3.542-1.189-5.542-.547-7.197.505l-1.642 2.02C4.063 34.134 8.354 45.799 25.295 47.217c1.854-.707 2.833-1.865 5.24-3.788 9.64-3.42 22.946-2.699 23.96-7.987.196-1.022.17-1.287-2.93-1.01-.285.025-.887-1.04-1.406-2.076-.267 1.043-.325 2.248-.778 2.297-1.356.148-2.712.291-4.069.413-.43.039-1.063-.728-1.606-1.922-.385 1.246-.727 2.108-1.247 2.14-1.7.104-3.405.154-5.119.117-.4-.009-1.18-.38-1.448-1.291-.375 1.07-.728 1.197-1.217 1.158a38.78 38.78 0 0 1-4.802-.678c-.967-.2-1.465-.58-1.957-1.231.556-.67 1.323-1.379 2.81-1.39a26.597 26.597 0 0 0 1.56-.056c.297-.02.436.177.952 1.19.326-1.012.588-1.334.912-1.378a28.853 28.853 0 0 0 3.245-.635c.26-.066.498.31 1.092 1.42.07-1.074.184-1.773.432-1.85a35.999 35.999 0 0 0 3.55-1.31c.986-.01 1.96-.021 2.91-.08.55-.034.758.095 1.582 1.85.358-1.818.802-2.13 1.173-2.214.97-.217 1.904-.547 2.794-1.05.195-.11.623.554.985 1.066-.06-.807-.22-1.541-.068-1.658.106-.08.337-.259.44-.345.5.124.834.33 1.168.537z"/>
</svg>
