<svg xmlns="http://www.w3.org/2000/svg" xmlns:xlink="http://www.w3.org/1999/xlink" viewBox="0 0 64 64">
    <defs>
        <linearGradient id="scarlettsStallGradient">
            <stop offset="0" stop-color="#f55"/>
            <stop offset="1" stop-color="#ff8080"/>
        </linearGradient>
        <linearGradient id="linearGradient15" x1="29.5" x2="44.125" y1="1025.487" y2="1003.362" gradientTransform="matrix(1.28844 0 0 1.29051 -9.225 -296.313)" gradientUnits="userSpaceOnUse" xlink:href="#scarlettsStallGradient"/>
    </defs>
    <g transform="translate(0 -988.362)">
        <ellipse cx="32" cy="1020.368" fill="url(#linearGradient15)" fill-rule="evenodd" rx="30.383" ry="30.381"/>
        <ellipse cx="22.741" cy="1035.89" fill="none" stroke="#fff" stroke-linecap="round" stroke-linejoin="round" stroke-width="3.229" rx="9.033" ry="4.717" transform="rotate(.008)"/>
        <ellipse cx="60.641" cy="1032.638" fill="none" stroke="#fff" stroke-linecap="round" stroke-linejoin="round" stroke-width="3.056" rx="8.701" ry="4.387" transform="rotate(.876)"/>
        <ellipse cx="159.16" cy="1033.98" fill="none" stroke="#fff" stroke-linecap="round" stroke-linejoin="round" stroke-width=".652" rx="3.339" ry="1.107" transform="matrix(.99961 .0279 -.12867 .99169 0 0)"/>
        <ellipse cx="162.807" cy="1033.12" fill="none" stroke="#fff" stroke-linecap="round" stroke-linejoin="round" stroke-width=".652" rx="3.339" ry="1.107" transform="matrix(.99961 .0279 -.12867 .99169 0 0)"/>
        <ellipse cx="166.686" cy="1032.342" fill="none" stroke="#fff" stroke-linecap="round" stroke-linejoin="round" stroke-width=".652" rx="3.339" ry="1.107" transform="matrix(.99961 .0279 -.12867 .99169 0 0)"/>
        <ellipse cx="170.976" cy="1032.355" fill="none" stroke="#fff" stroke-linecap="round" stroke-linejoin="round" stroke-width=".652" rx="3.339" ry="1.107" transform="matrix(.99961 .0279 -.12867 .99169 0 0)"/>
        <g fill="#fff" fill-rule="evenodd" stroke="#fff" stroke-width=".275">
            <path stroke-width=".20047500000000001" d="M24.362 1010.472v3.272l.335-3.749c.704-1.235 2.355-2.763 4.156-4.193l.08 1.657 1.317-2.73a101.917 101.917 0 0 1 4.48-3.121l-.867 2.752 1.455-2.98c1.662-1.018 6.615-2.373 9.848-6.393.242 4.616-5.553 10.793-6.592 13.198l-3.822.997 3.73-.563a15.795 15.795 0 0 1-1.767 3.663l-1.34.411.613.618c-.924 1.224-2.044 2.362-3.348 3.446l-4.168 1.203 3.787-.77c-3.106 2.482-6.004 4.075-9.582 3.858 0 0-.127-.13-.254-.217-.785-5.071.473-8.712 1.94-10.36z"/>
            <path stroke-width=".20047500000000001" d="M41.821 999.864c-2.808 2.642-8.19 5.57-10.937 8.685-3.908 4.416-4.847 8.833-11.432 16.031 6.686-6.765 8.039-11.393 11.755-15.87 2.576-3.105 8.311-6.235 10.614-8.846z"/>
        </g>
    </g>
</svg>
