<svg version="1.1" viewBox="0 0 64 64" xmlns="http://www.w3.org/2000/svg">
 <path d="m23.19 17.31c-15-8.39-9.07-3-15.92-9.07-3.91-1.35 1 30.68 17.27 30.68s13.7-13.22-1.35-21.61z" fill="#ff8080" stroke="#000" stroke-linejoin="bevel"/>
 <path d="M24.83,32C21,38.42,17.53,42.23,19,46.88,20.05,50,19,53,12.81,58.25c0,0,.58,4.63,10.71,2.24,8-1.89,9.35-3,12.25-4a4.79,4.79,0,0,0-.09,3.37l2-1.89-.36,3.52C51.56,63.82,58.53,53,58.26,51.3l-2.34-1.74,3-.29c.48-2.7-3.68-6.81-3.68-6.81L52.79,40.2l1.74-1.74c-5.62-1.5-10.16-7.71-10.16-7.71s1.28-11.68-3-16S31.87,4.18,28.45,1c0,0-3.41,2-5.36,11.22A34.37,34.37,0,0,0,24.83,32Z" fill="#ff8080" stroke="#000"/>
</svg>
