<svg version="1.1" viewBox="0 0 64 64" xmlns="http://www.w3.org/2000/svg">
 <path d="m35.129 28.693c3.5137 6.1149 10.916 3.4749 10.541 12.726-0.3511 8.6249-13.066 17.582-14.704 6.6107-0.96889-6.4901 0.13401-17.791-4.7841-15.617-4.4665 1.9753-3.31 6.3681-7.0851 6.7755-2.4685 0.26802-7.6868-1.3441-5.6686-6.1149 1.3093-3.0956 12.056-3.5178 9.4772-5.5359-2.0906-2.053-5.1728-1.647-11.958-0.66201-14.473 2.1013-5.5949-21.637 1.7716-16.691 4.5684 3.0661 6.7273 9.1837 12.667 10.413 5.6056 0.42615-1.4098-8.2536-1.328-11.322 0.15545-5.9045 11.526-4.2937 11.691-1.4044 0.17421 3.0487-6.5785 12.066-2.3907 12.313 6.8787 0.38461 3.9439-4.7225 8.9451-5.2894 3.8836-0.43955 11.723 8.7696 5.6686 12.396-6.1537 3.6853-15.171-2.5797-12.842 1.4044z" fill="#ff8080" fill-rule="evenodd" stroke="#000"/>
 <path d="m23.382 43.565c-1.7863-0.22246-13.618 10.892-13.642 16.531-0.01475 3.034 5.4193 3.57 7.2017 2.0798 5.6284-4.7037 7.8851-18.43 6.4405-18.611zm15.124-31.443c1.1605 0.78128 10.895-2.9361 11.825-6.9122 0.49852-2.1388-3.0608-4.417-4.4974-3.9881-4.5376 1.3562-8.2684 10.268-7.329 10.9zm8.5766 19.643c-0.22246 1.0493 8.657 7.4952 13.287 7.2794 2.4926-0.11659 3.0474-3.3074 1.8627-4.2856-3.7456-3.0889-14.972-3.8434-15.151-2.9938zm-41.039 13.303c3.7161 3.2296 9.0296-0.78396 4.3138-4.9275-3.4213-3.0072-7.7953 1.9003-4.3138 4.9275z" fill="#ff8080" fill-rule="evenodd" stroke="#000"/>
</svg>
