<svg xmlns="http://www.w3.org/2000/svg" xmlns:xlink="http://www.w3.org/1999/xlink" viewBox="0 0 64 64">
    <defs>
        <linearGradient id="bedChamberGradient">
            <stop offset="0" stop-color="#f55"/>
            <stop offset="1" stop-color="#ff8080"/>
        </linearGradient>
        <linearGradient id="linearGradient15" x1="29.5" x2="44.125" y1="1025.487" y2="1003.362" gradientTransform="matrix(1.28844 0 0 1.29051 -9.225 -296.313)" gradientUnits="userSpaceOnUse" xlink:href="#bedChamberGradient"/>
    </defs>
    <g transform="translate(0 -988.362)">
        <ellipse cx="32" cy="1020.368" fill="url(#linearGradient15)" fill-rule="evenodd" rx="30.383" ry="30.381"/>
        <path fill="#fff" fill-rule="evenodd" d="M48.394 999.994c.024-3.417-5.283 6.706-6.284 6.665-.732-.03-3.961-6.71-4.828-6.702-.928.01-4.435 7.01-5.219 7.002-1.046-.01-4.712-6.993-5.787-6.965-1.103.029-4.858 6.879-5.468 6.889-.322.01-4.241-9.535-4.19-7.263.047 2.027-.07 10.183-.07 10.183-1.045 2.063-.637 3.444 0 4.718l-.07 2.322 32.022.074-.07-2.845c.563-1.085 1.248-2.98-.073-4.492 0 0 .013-6.09.037-9.587zm-4.424 10.54c.78 0 1.411.667 1.41 1.488.001.822-.63 1.488-1.41 1.488-.779 0-1.41-.666-1.41-1.488 0-.821.631-1.488 1.41-1.487zm-5.974.054c.779 0 1.41.666 1.41 1.488 0 .821-.631 1.488-1.41 1.487-.78 0-1.411-.666-1.41-1.487-.001-.822.63-1.488 1.41-1.488zm-5.874.106c.779 0 1.41.666 1.41 1.487 0 .822-.631 1.488-1.41 1.488-.78 0-1.411-.666-1.41-1.488-.001-.821.63-1.488 1.41-1.487zm-12.2.053c.779 0 1.41.666 1.41 1.487 0 .822-.631 1.488-1.41 1.488-.78 0-1.411-.666-1.41-1.488-.001-.821.63-1.488 1.41-1.487zm6.376 0c.779 0 1.41.666 1.41 1.487 0 .822-.631 1.488-1.41 1.488-.78 0-1.411-.666-1.41-1.488-.001-.821.63-1.488 1.41-1.487z"/>
        <g fill="none" stroke="#fff">
            <path stroke-width="4.31244" d="M17.824 1021.624v20.416"/>
            <path stroke-linecap="round" stroke-width="4.62617001" d="M22.914 1027.868h2.658"/>
            <path stroke-width="6.46866" d="M18.719 1033.801l30.004.042"/>
            <path stroke-width="4.31244" d="M46.634 1041.93l-.067-7.733"/>
        </g>
    </g>
</svg>
