<svg xmlns="http://www.w3.org/2000/svg" xmlns:xlink="http://www.w3.org/1999/xlink" cursor="default" viewBox="0 0 256 256">
    <defs>
        <linearGradient id="linearGradient4350">
            <stop offset="0" stop-color="#faa"/>
            <stop offset="1" stop-color="#f55"/>
        </linearGradient>
        <radialGradient id="radialGradient4356" cx="159.388" cy="162.73" r="34.706" fx="159.388" fy="162.73" gradientTransform="matrix(1 0 0 1.01262 0 -2.175)" gradientUnits="userSpaceOnUse" xlink:href="#linearGradient4350"/>
    </defs>
    <path fill="#ff7f2a" fill-rule="evenodd" stroke="#000" stroke-width="1.236" d="M20.658 105.599c11.601.245 9.11-11.219 5.717-12.98 16.854-2.961 1.857 23.964-5.717 12.98z"/>
    <path fill="#ff7f2a" fill-rule="evenodd" stroke="#000" stroke-width="1.038" d="M39.897 94.002c9.468.211 7.402-9.177 3.75-11.802 12.432.582 8.38 17.303-3.75 11.802zM59.691 86.8c9.468.212 7.434-9.682 4.666-11.201 11.232 4.275.393 18.566-4.666 11.202zM84.227 81.634c9.422-.953 6.189-10.522 3.255-11.69 11.672 2.863 2.67 18.377-3.255 11.69z"/>
    <path fill="#ff7f2a" fill-rule="evenodd" stroke="#000" stroke-width=".937" d="M154.745 70.033c9.22.177 7.24-8.116 4.544-9.39 10.94 3.584.382 15.563-4.544 9.39z"/>
    <path fill="#ff7f2a" fill-rule="evenodd" stroke="#000" d="M132.161 73.141c9.512.196 7.468-8.952 4.688-10.357 11.283 3.953.394 17.166-4.688 10.357zM108.125 76.625c9.511.196 7.468-8.952 4.688-10.357 11.283 3.953.394 17.166-4.688 10.357z"/>
    <path fill="#ffe680" fill-rule="evenodd" stroke="#000" d="M237.312 168.176c-.475.32 1.042 14.11 1.886 16.224 1.276 3.194 5.595 3.663 6.241 1.89.621-1.703.312-6.487-.046-9.685z"/>
    <path fill="#ffb380" fill-rule="evenodd" stroke="#000" d="M174.647 49.764c-25.773.11-51.019 5.396-77.683 9.844-29.654 4.946-65.603 14.228-85.737 40.445-6.183 10.257-4.337 22.183 2.077 35.055 9.597-17.616 29.542-39.87 80.755-46.418 27.746-3.547 56.072-9.165 82.832-13.889 24.18 10.15 60.039 29.15 72.538 30.451l1.205-13.28-28.286-25.001-36.617-16.92a179.794 179.794 0 0 0-11.084-.287zm-16.38 11.084c2.755 0 4.23 1.89 4.23 4.767-.001 2.875-1.791 4.512-4.545 4.512s-4.04-1.573-4.041-4.449c0-2.877 1.602-4.83 4.357-4.83zm-22.919 2.367c2.79 0 5.052 2.318 5.051 5.178 0 2.859-2.262 5.176-5.05 5.176-2.79 0-5.05-2.317-5.051-5.176 0-2.86 2.26-5.178 5.05-5.178zm-23.95 2.893c.46-.005.916.06 1.353.191 2.671.803 4.1 3.904 3.191 6.926-.91 3.021-3.811 4.82-6.482 4.016-2.671-.804-4.1-3.904-3.192-6.926.74-2.459 2.838-4.18 5.13-4.207zM87.342 70.78c.46-.005.916.059 1.353.191 2.671.803 4.1 3.904 3.192 6.926-.91 3.021-3.812 4.819-6.483 4.015-2.671-.803-4.1-3.904-3.191-6.925.739-2.459 2.837-4.18 5.129-4.207zm-22.9 4.798a3.22 3.22 0 0 1 1.134.19c2.242.803 3.442 3.903 2.68 6.926-.763 3.022-3.2 4.82-5.442 4.017-2.241-.804-3.44-3.904-2.677-6.926.62-2.458 2.38-4.179 4.304-4.207zm-19.124 7.45c.35-.006.697.059 1.03.191 2.027.804 3.111 3.904 2.421 6.926-.69 3.022-2.894 4.82-4.922 4.015-2.027-.803-3.111-3.904-2.421-6.925.56-2.459 2.153-4.18 3.892-4.207zM28.638 93.635h.002c.278-.006.554.058.818.19 1.615.803 2.479 3.903 1.93 6.925-.55 3.023-2.305 4.822-3.92 4.018-1.615-.803-2.48-3.904-1.93-6.926.447-2.458 1.714-4.178 3.1-4.207z"/>
    <path fill="#ffb380" fill-rule="evenodd" stroke="#000" d="M187.498 90.331c26.24 11.3 32.184 24.027 46.467 36.492-.335 3.715-.31 6.196-3.941 8.463-.101 7.813 2.553 19.557 4.144 28.202l8.005 5.888 6.696-3.813c-.307-10.799-1.01-30.603-3.117-37.416-5.54-18.54-11.212-42.39-23.782-49.054-18.477-14.584-37.745-23.87-48.109-26.137-2.714 13.71 9.092 24.917 13.637 37.375z"/>
    <path fill="#ffb380" fill-rule="evenodd" stroke="#000" d="M185.1 179.856l63.134-.252c2.836-.033 4.183-2.918 4.167-4.294l-1.39-17.551c-5.474 3.051-25.153.474-31.78.617-.527.68-.088 1.512-.14 2.033l-34.876.633z"/>
    <path fill="#ffe680" fill-rule="evenodd" stroke="#000" d="M169.464 84.75c-7.202-.405-14.404-2.595-21.607-4.866l6.072-.893c5.575 1.399 10.318 2.412 15.089 3.438z"/>
    <path fill="#ffb380" fill-rule="evenodd" stroke="#000" d="M188.33 91.026c-7.995-1.837-16.837-4.924-23.181-8.081-.529-9.62-.313-19.148.505-28.6 1.694 2.251 3.69 3.662 22.097 9.47 2.607.234 3.537-.23 3.378-1.137l-.413 27.4c-.734 1.205-1.032.828-2.385.948z"/>
    <path fill="#ffe680" fill-rule="evenodd" stroke="#000" d="M67.57 198.272c-7.105 4.271-19.617 1.062-29.898-9.06l7.864-1.694c2.91 3.89 6.039 7.192 14.905 8.225z"/>
    <path fill="#ffb380" fill-rule="evenodd" stroke="#000" d="M44.947 154.544l5.377 32.599c-.632 6.667-12.04 4.127-15.295 2.878-9.888-12.659-28.175-26.902-28.674-36.51l-1.19-40.325 10.986 26.895c2.835 1.406 6.784 8.98 6.33 2.273 5.99 4.457 10.475 2.242 22.466 12.19z"/>
    <path fill="#fca" fill-rule="evenodd" stroke="#000" d="M182.953 159.464s50.398.934 61.714 0c1.21-.1 2.098-.943 1.452-1.358-1.333-.857-13.045 1.288-26.422 1.2-1.47-.711-.173-1.538 1.263-1.547 11.576.099 25.905-1.941 28.947-1.452 3.412.548-.787 4.88-4.735 4.924-28.075.312-37.786.127-61.588-.063z"/>
    <path fill="url(#radialGradient4356)" fill-rule="evenodd" stroke="#000" d="M151.25 137.786c-45.368.188-44.797 69.54.536 69.285 46.068-.258 45.115-69.475-.536-69.285z"/>
    <path fill="#fca" fill-rule="evenodd" stroke="#000" d="M190.97 62.3c1.207.992-.91 2.455-2.493 1.799-15.412-5.888-19.008-4.448-22.95-9.88.585-1.357-1.674-3.001 8.903-3.347 7.532 3.785 34.78 17.532 47.414 26.201 17.806 12.22 24.42 42.573 24.875 56.19.353 10.584-16.172 4.81-16.605 2.399-.755-4.204 4.023-7.631 4.77-11.382.489-2.448-1.145-5.41-.919-7.37.946-1.149 4.409-.89 5.683.317.395 2.061.722 3.37 1.125 5.858.984 6.065-8.45 11.273-3.461 12.261 6.111 1.34 6.785-7.531 4.657-14.634-9.066-30.265-13.123-35.303-22.318-41.96-8.602-6.23-23.206-14.193-31.134-17.766-4.915-2.214-7.53-2.53-10.997-4.993-5.565-3.954-4.713-1.99-5.3-.89-1.796.613.265 1.437 6.282 3.297 3.203.989 9.97 2.61 12.469 3.9z"/>
    <path fill="#ffb380" fill-rule="evenodd" stroke="#000" d="M55.99 178.909l.757 16.352c7.466 4.436 12.474 6.81 40.848-2.462 6.162-2.389 15.334-3.168 23.865-4.294-2.688-7.02-2.802-13.581-3.03-17.109l-54.044 1.578z"/>
    <path fill="#fca" fill-rule="evenodd" stroke="#000" d="M118.335 171.08c-9.899 2.94-17.622 3.785-26.944 6.124-6.738 1.69-14.323 5.837-26.374 5.556-18.787-.438-3.323-12.426 1.768-11.995 31.908 2.698 35.453-.516 50.887-3.504l-.284 1.736c-15.62 4.045-32.441 3.756-49.845 5.177-4.48.366-13.565 6.041 1.01 4.735 17.3-1.55 33.177-6.166 49.592-9.28z"/>
    <ellipse cx="58.575" cy="200.03" fill="#ffe680" stroke="#000" stroke-width=".868" rx="5.874" ry="4.77" transform="rotate(-11.03)"/>
    <path fill="#fca" fill-rule="evenodd" stroke="#000" d="M20.67 141.446c-1.303-.77 1.087-2.545 1.964-2.232 7.509 8.383 27.362 11.523 21.473 16.875-9.025 8.203-36.321-10.195-38.928-39.375-3.21-35.913 63.88-53.43 79.464-56.071 38.443-6.516 57.841-11.115 86.934-11.816 8.965-.217 14.586.14 19.756 2.523 13.516 6.23 20.247 9.091 33.667 15.721l27.143 23.215.314 14.61-3.402.473-.126-13.655-29.465-24.643c-17.765-6.963-28.263-17.585-47.435-16.764-28.715 1.23-48.357 5.29-86.672 12.032-31.239 5.497-79.785 25.998-76.25 54.554 3.134 25.318 26.04 38.678 29.33 38.214 2.946-.85-8.807-5.196-17.767-13.66z"/>
    <path fill="#ffe680" fill-rule="evenodd" stroke="#000" stroke-width=".739" d="M175.413 53.93c.475-2.416 12.893-6.37 12.638-4.357l3.502 1.286c.552-.238.346-2.437-.733-3.864-1.235-1.633-12.893.614-17.351 3.093-1.385 1.011-.556 3.254-.857 5.768z"/>
    <path fill="#ffe680" fill-rule="evenodd" stroke="#000" d="M63.957 178.999c-.378-12.409-22.098-33.45-25.615-24.06-2.136.037-3.775-1.182-4.458-1.84 2.42-11.73 27.562-9.464 35.513 25.669-1.625.195-4.526.407-5.44.23z"/>
    <ellipse cx="132.188" cy="57.32" fill="#ffe680" stroke="#000" stroke-width=".874" rx="6.234" ry="4.558" transform="matrix(.44708 .8945 -.64629 .7631 0 0)"/>
    <path fill="#ffe680" fill-rule="evenodd" stroke="#000" d="M172.232 56.09c-.893-2.352-25.791-7.674-25.312-5.715l-3.616.268c-1.04-.231 1.14-4.489 4.821-4.375 1.864.057 24.559 5.176 25.982 5.714 2.605.984 2.827 3.536 3.393 5.982z"/>
    <ellipse cx="183.416" cy="-116.327" fill="#ffe680" stroke="#000" stroke-width=".777" rx="5.404" ry="4.152" transform="matrix(.5258 .8506 -.7233 .69053 0 0)"/>
    <path fill="#ffe680" fill-rule="evenodd" stroke="#000" d="M237.501 128.59c.405-1.85 4.44-1.31 3.977.569-.875 10.877 1.673 24.377 2.364 30.455-.895.198-4.1.081-6.797.123-.516-11.027-1.84-22.397.456-31.146z"/>
    <ellipse cx="-68.426" cy="-269.626" fill="#ffe680" stroke="#000" stroke-width=".806" rx="4.904" ry="4.932" transform="matrix(-.82625 .5633 -.63066 -.77606 0 0)"/>
    <path fill="#fff" fill-rule="evenodd" d="M91.345 184.086a3.824 3.824 0 0 1 2.137-1.536c.81-.234 1.696-.238 2.545-.08.293.054.583.127.864.217.563.021 1.127.108 1.655.251.798.217 1.53.565 2.048 1.022-.311-.637-.92-1.257-1.706-1.769a7.934 7.934 0 0 0-1.731-.838 8.313 8.313 0 0 0-1.048-.04c-1.013.024-2.007.243-2.851.702-.849.461-1.514 1.147-1.913 2.071zM222.532 169.824c.511-.898 1.195-1.418 1.905-1.675.709-.257 1.472-.264 2.19-.108.25.054.494.128.73.219.486.028.98.127 1.447.288.708.244 1.368.633 1.841 1.141-.254-.66-.768-1.305-1.451-1.84a6.314 6.314 0 0 0-1.524-.875 6.19 6.19 0 0 0-.946-.057c-.914.015-1.801.245-2.543.73-.743.484-1.311 1.205-1.649 2.177zM20.13 156.546c.99.153 1.748.637 2.308 1.263.562.629.948 1.427 1.174 2.26.078.288.136.581.177.873.224.517.39 1.064.489 1.601.15.813.152 1.625-.036 2.288.44-.555.736-1.372.857-2.302.08-.607.084-1.261.007-1.924a8.322 8.322 0 0 0-.415-.962c-.46-.902-1.088-1.704-1.867-2.267-.783-.566-1.689-.87-2.695-.83zM178.805 71.286c.408-.024.776.045 1.105.178.328.134.623.334.886.58.525.49.944 1.18 1.245 1.949.103.265.193.54.268.818a8.6 8.6 0 0 1 .67 1.517c.26.786.398 1.585.365 2.261.276-.633.396-1.478.365-2.387a9.147 9.147 0 0 0-.256-1.831 8.767 8.767 0 0 0-.485-.86c-.51-.795-1.143-1.472-1.864-1.89a3.218 3.218 0 0 0-1.126-.409 2.762 2.762 0 0 0-1.173.074zM35.91 150.233c1.654-1.093 3.298-1.716 4.908-1.954 1.608-.24 3.186-.096 4.717.344 3.06.881 5.974 2.966 8.596 5.68 1.88 1.944 3.608 4.213 5.128 6.59.67.893 1.31 1.808 1.915 2.73 2.136 3.251 3.841 6.592 4.936 9.428-.715-2.961-2.067-6.508-3.9-10.034-.52-1-1.08-2-1.675-2.984-1.678-2.371-3.569-4.624-5.61-6.538-2.85-2.673-5.994-4.684-9.25-5.42-1.626-.368-3.27-.415-4.907-.075-1.636.339-3.26 1.063-4.858 2.233zM240.238 128.424c-.763 3.156-1.07 6.993-.962 11.919.04 1.762.131 3.662.273 5.718.63 3.638 1.423 7.77 2.36 12.491-.43-4.8-.711-8.98-.829-12.648a158.63 158.63 0 0 1-.673-5.63c-.48-4.834-.558-8.645-.169-11.85zM146.269 47.537c.4-.046.92-.044 1.54-.002.62.043 1.342.126 2.148.245 1.61.238 3.554.618 5.68 1.093 4.252.95 9.231 2.282 13.724 3.625.71.23 1.317.411 2.027.64l.3.065c.722.156 1.364.315 1.926.52.559.204 1.045.457 1.446.806.404.351.733.809.962 1.43-.134-.646-.382-1.179-.75-1.633-.367-.455-.844-.82-1.412-1.136-.566-.315-1.217-.578-1.928-.834l-.297-.104c-.647-.153-1.337-.304-2.067-.483-4.54-1.226-9.564-2.438-13.854-3.267-2.145-.415-4.107-.733-5.733-.91a24.592 24.592 0 0 0-2.168-.151c-.626-.012-1.147.019-1.544.096zM174.176 50.614c4.174-2.043 8.728-2.642 13.53-2.98.369-.014.713.019 1.026.09.422.026.813.122 1.154.279.594.275 1.062.75 1.246 1.414-.044-.691-.403-1.322-1.026-1.78a3.57 3.57 0 0 0-1.268-.576 4.844 4.844 0 0 0-1.18.023c-4.829.525-9.374 1.314-13.482 3.53z"/>
</svg>
