<?xml version="1.0" encoding="UTF-8"?>
<svg cursor="default" version="1.1" viewBox="0 0 256 256" xmlns="http://www.w3.org/2000/svg" xmlns:cc="http://creativecommons.org/ns#" xmlns:dc="http://purl.org/dc/elements/1.1/" xmlns:rdf="http://www.w3.org/1999/02/22-rdf-syntax-ns#" xmlns:xlink="http://www.w3.org/1999/xlink">
 <metadata>
  <rdf:RDF>
   <cc:Work rdf:about="">
    <dc:format>image/svg+xml</dc:format>
    <dc:type rdf:resource="http://purl.org/dc/dcmitype/StillImage"/>
   </cc:Work>
  </rdf:RDF>
 </metadata>
 <defs>
  <linearGradient id="linearGradient24712" x1="166.5" x2="159.87" y1="135.61" y2="46.447" gradientUnits="userSpaceOnUse">
   <stop stop-color="#ff8080" offset="0"/>
   <stop stop-color="#faa" offset="1"/>
  </linearGradient>
  <linearGradient id="linearGradient25278" x1="8.2941" x2="35.872" y1="182.68" y2="137.27" gradientUnits="userSpaceOnUse">
   <stop stop-color="#f55" offset="0"/>
   <stop stop-color="#ff8080" offset="1"/>
  </linearGradient>
  <linearGradient id="linearGradient25606" x1="14.722" x2="96.627" y1="144.11" y2="80.038" gradientUnits="userSpaceOnUse">
   <stop stop-color="#f55" offset="0"/>
   <stop stop-color="#ff8080" offset=".20361"/>
   <stop stop-color="#ff8080" offset=".82604"/>
   <stop stop-color="#f55" offset="1"/>
  </linearGradient>
  <linearGradient id="linearGradient26258" x1="98.13" x2="241.77" y1="84.911" y2="84.6" gradientUnits="userSpaceOnUse">
   <stop stop-color="#f55" offset="0"/>
   <stop stop-color="#ff8080" offset=".027427"/>
   <stop stop-color="#ff8080" offset=".086973"/>
   <stop stop-color="#f55" offset=".13136"/>
   <stop stop-color="#f55" offset=".20823"/>
   <stop stop-color="#ff8080" offset=".2197"/>
   <stop stop-color="#ff8080" offset=".59677"/>
   <stop stop-color="#f55" offset="1"/>
  </linearGradient>
  <linearGradient id="linearGradient28760" x1="105.91" x2="105.13" y1="76.461" y2="70.967" gradientUnits="userSpaceOnUse">
   <stop stop-color="#f55" offset="0"/>
   <stop stop-color="#ff8080" offset=".69587"/>
   <stop stop-color="#faa" offset="1"/>
  </linearGradient>
  <linearGradient id="linearGradient28896" x1="122.29" x2="122.65" y1="93.827" y2="71.226" gradientUnits="userSpaceOnUse">
   <stop stop-color="#f55" offset="0"/>
   <stop stop-color="#ff8080" offset=".16502"/>
   <stop stop-color="#ff8080" offset=".873"/>
   <stop stop-color="#faa" offset="1"/>
  </linearGradient>
  <linearGradient id="linearGradient30744" x1="82.914" x2="82.877" y1="81.851" y2="78.809" gradientUnits="userSpaceOnUse">
   <stop stop-color="#f95" offset="0"/>
   <stop stop-color="#ffb380" offset="1"/>
  </linearGradient>
 </defs>
 <g stroke="#000" stroke-linejoin="round">
  <g stroke-linecap="round">
   <g stroke-width=".45">
    <path d="m98.866 83.367c0.0439 0.4838-0.01738 4.6211 0.76202 5.0179 2.2641 1.1529 6.1947 2.9626 7.641 0.43544 0.59966-1.0478 1.8565-3.6704 1.778-4.4529-7.6658-4.4406-10.929-2.9055-10.181-1.0005z" fill="#ff2a2a"/>
    <path d="m240.52 91.459c2.9782-2.8304 4.3503-4.7743 5.5985-7.6047l-0.0933 19.595c-0.4596 2.274-2.3567 3.7486-5.2253 5.5519z" fill="#ff8080"/>
    <path d="m89.759 94.196 9.0062-0.79175c1.3138-0.11551 0.94753-1.1666 0.82474-2.2763l3.266-0.32994c-0.4531 1.8851 0.56036 4.9297-3.3649 5.2784-3.343 0.29691-10.029 0.89072-10.029 0.89072-4.1826 0.37148-3.0372-1.3313-3.3979-2.2433z" fill="#f95"/>
    <path d="m79.888 77.603 6.0184-0.37324 0.97973 17.775-5.4119 0.93309z" fill="url(#linearGradient30744)"/>
   </g>
   <ellipse transform="matrix(.99873 -.050424 0 1 0 0)" cx="82.979" cy="81.565" rx="3.0196" ry=".99792" fill="#ff7f2a" stroke-width=".43726"/>
   <g stroke-width=".45">
    <path d="m101.21 73.637c-8.2654 0.018351-11.455 3.4461-13.904 7.3705-40.296 19.103-68.234 36.628-75.486 51.507-0.39874 8.9811 2.238 14.403 9.051 14.929 3.2838-8.5516 19.778-22.149 47.399-38.816 7.9623-4.8046 16.459-8.7527 23.421-14.65 2.1838-3.0831 5.3761-4.5058 9.051-5.1328zm-21.776 17.061a2.8041 3.134 0 0 1 2.8037 3.1342 2.8041 3.134 0 0 1-2.8037 3.1342 2.8041 3.134 0 0 1-2.8037-3.1342 2.8041 3.134 0 0 1 2.8037-3.1342zm-13.426 8.0508a2.5072 2.7216 0 0 1 2.5066 2.7211 2.5072 2.7216 0 0 1-2.5066 2.7211 2.5072 2.7216 0 0 1-2.5084-2.7211 2.5072 2.7216 0 0 1 2.5084-2.7211zm-16.761 8.9455a2.531 2.7643 0 0 1 2.5312 2.7633 2.531 2.7643 0 0 1-2.5312 2.765 2.531 2.7643 0 0 1-2.5312-2.765 2.531 2.7643 0 0 1 2.5312-2.7633z" fill="url(#linearGradient25606)"/>
    <path d="m224.36 86.048c-35.503 1.0805-70.201 2.3121-102.9 3.9182-12.725 1.9474-14.661 4.1593-22.954 2.2394l-0.48505-5.5619 4.8716 0.37247c1.9088 0.14594 2.3505-2.6889-0.5668-3.0046l-4.5776-0.49535-0.64184-7.3598c7.4893-4.0386 18.385-1.8983 27.993-2.6126 35.009-0.64776 67.847-5.6385 107.03 2.0528 4.3099 2.0782 8.7334 2.9071 12.887 6.7069-4.7688 15.09-13.767 2.4963-20.651 3.7445z" fill="url(#linearGradient26258)"/>
    <path d="m242.85 90.339-1.213-3.1725c5.1338-5.0015-3.499-7.8804-6.7182-11.104 5.6527 3.0432 16.845 5.1427 7.9313 14.276z" fill="#faa"/>
   </g>
  </g>
  <path d="m48.069 107.88c5.6572-1.2295 5.4078 6.5788-0.11663 4.6188 2.5235-0.37091 2.315-3.9419 0.11663-4.6188z" fill="#ff7f2a" stroke-linecap="square" stroke-width=".45"/>
  <g stroke-linecap="round">
   <g stroke-width=".45">
    <path d="m62.019 144.81c-21.28 2.1268-46.406 2.0703-52.078-8.1112 0.89542 6.2888 4.4169 13.833 6.6363 21.005 7.0019 10.318 26.628 12.666 52.346 8.4911z" fill="url(#linearGradient25278)"/>
    <path d="m171.84 129.86c11.094 1.5513 11.805 25.43 30.153 24.412-8.7491-13.038-13.227-42.158-30.153-24.412z" fill="#ff2a2a"/>
    <path d="m235.11 76.063c-33.38-8.8454-76.293-4.2835-111.6-2.6127h-22.208c-7.8796-0.24746-11.412 3.047-14.556 6.7182-2.1235 2.4791-16.829 8.7456-32.354 17.306-22.124 12.199-46.587 28.384-44.439 39.146 2.3682 11.867 37.794 10.56 50.48 9.051v-1.3063c-17.957 2.3596-45.345 1.8607-46.934-8.4911-1.5885-10.344 20.468-25.891 41.446-37.564 15.494-8.6214 31.035-14.854 32.735-16.742 2.6827-2.9806 3.3738-6.6902 13.576-7.3947 7.2806-0.05789 14.802 0.39051 22.229 0.0865 38.466-1.5746 78.14-5.1857 111.25 2.2696z" fill="#faa"/>
    <path d="m103.71 73.908c-3.3268 0.87683-7.3002 1.8157-6.6639 2.6722 1.5636 2.1048 7.234 1.5985 9.3031 1.2536 4.0377-0.67303 5.5192-2.4094 14.318-2.2103l0.23092-1.1876c-7.1571-0.06952-12.027 1.2359-15.736 2.3093-1.4426 0.41744-4.5058 0.19924-5.7402-0.49485-1.3108-0.73706 2.673-1.5103 4.2887-2.3423z" fill="#faa"/>
    <path d="m82.507 78.366c-0.16988-1.8933 0.07479-4.0679 3.5856-4.4724l10.731-1.2363c4.7691-0.54948 5.196 0.90455 5.3803 4.2108-0.89556 0.03237-2.1506-0.30443-2.6829-0.64182-0.08559-0.93596-0.43332-1.5407-1.4844-1.4229l-11.034 1.2363c-2.4116 0.27022-1.888 0.59476-1.931 1.869-0.86888 0.39218-1.717 0.43135-2.5643 0.45737z" fill="#ffb380"/>
   </g>
   <path d="m118.52 71.915-0.46218 20.13c-0.0168 0.73355 0.29411 1.9368 1.4525 1.9233l5.48-0.06408c0.89026-0.01044 1.83-0.90994 1.8487-1.8592l0.39615-20.13c0.0154-0.78194-0.78272-1.4913-2.1128-1.4745l-5.0839 0.06411c-0.97228 0.01226-1.492 0.71836-1.5186 1.4104z" fill="url(#linearGradient28896)" stroke-width=".44373"/>
   <path d="m49.143 105.78a3.8307 4.4139 0 0 0-3.832 4.4139 3.8307 4.4139 0 0 0 3.832 4.4139 3.8307 4.4139 0 0 0 3.8303-4.4139 3.8307 4.4139 0 0 0-3.8303-4.4139zm0 2.3027a1.8322 2.1111 0 0 1 1.8316 2.1111 1.8322 2.1111 0 0 1-1.8316 2.1111 1.8322 2.1111 0 0 1-1.8334-2.1111 1.8322 2.1111 0 0 1 1.8334-2.1111z" fill="#ffb380" stroke-width=".43997"/>
  </g>
  <path d="m64.428 99.339c5.6572-1.2295 5.4078 6.5788-0.11663 4.6188 2.5235-0.3709 2.315-3.9419 0.11663-4.6188z" fill="#ff7f2a" stroke-linecap="square" stroke-width=".45"/>
  <path d="m65.502 97.235a3.8307 4.4139 0 0 0-3.832 4.4139 3.8307 4.4139 0 0 0 3.832 4.4139 3.8307 4.4139 0 0 0 3.8303-4.4139 3.8307 4.4139 0 0 0-3.8303-4.4139zm0 2.3027a1.8322 2.1111 0 0 1 1.8316 2.1111 1.8322 2.1111 0 0 1-1.8316 2.1111 1.8322 2.1111 0 0 1-1.8334-2.1111 1.8322 2.1111 0 0 1 1.8334-2.1111z" fill="#ffb380" stroke-linecap="round" stroke-width=".43997"/>
  <path d="m78.229 91.59c5.6572-1.2295 5.4078 6.5788-0.11663 4.6188 2.5235-0.3709 2.315-3.9419 0.11663-4.6188z" fill="#ff7f2a" stroke-linecap="square" stroke-width=".45"/>
  <path d="m79.303 89.486a3.8307 4.4139 0 0 0-3.832 4.4139 3.8307 4.4139 0 0 0 3.832 4.4139 3.8307 4.4139 0 0 0 3.8303-4.4139 3.8307 4.4139 0 0 0-3.8303-4.4139zm0 2.3027a1.8322 2.1111 0 0 1 1.8316 2.1111 1.8322 2.1111 0 0 1-1.8316 2.1111 1.8322 2.1111 0 0 1-1.8334-2.1111 1.8322 2.1111 0 0 1 1.8334-2.1111z" fill="#ffb380" stroke-linecap="round" stroke-width=".43997"/>
  <ellipse cx="49.142" cy="110.19" rx="1.8322" ry="2.1111" fill="none" stroke-linecap="round" stroke-width=".21044"/>
 </g>
 <g fill="#ffb380" stroke="#000" stroke-linecap="round" stroke-linejoin="round">
  <rect transform="matrix(.99996 .0088998 -.0068587 .99998 0 0)" x="120.42" y="85.856" width="5.1754" height="2.8506" rx=".60511" stroke-width=".30199"/>
  <rect transform="matrix(.99996 .0088998 -.0068587 .99998 0 0)" x="120.75" y="74.29" width="5.1754" height="2.8506" rx=".60511" stroke-width=".30199"/>
  <ellipse cx="91.095" cy="85.339" rx="1.3851" ry="3.6614" stroke-width=".41802"/>
 </g>
 <g stroke="#000" stroke-linejoin="round">
  <g stroke-linecap="round">
   <ellipse cx="91.194" cy="85.273" rx=".81787" ry="2.162" fill="#f95" stroke-width=".24684"/>
   <g stroke-width=".45">
    <path d="m97.308 83.844-6.6142-0.04666c-0.31851 0.79959-0.3163 2.1064 0.02817 2.9707l6.6344-0.11829z" fill="#f95"/>
    <path d="m101.92 84.035c1.3952 0.08856 1.1871 2.8471 0.16495 2.8041l-5.358-0.22527c-1.0126-0.04257-1.8166-3.0238-0.18261-2.9201z" fill="#ffb380"/>
    <path d="m104.32 92.994 0.0598 0.65792c0.0439 0.4838 0.20376 1.123 1.073 1.0264l5.8785-0.65317c1.1999-0.13333 1.3381-0.6638 1.2597-1.4463l-0.0918-0.91617c-2.4829 0.6196-4.8207 1.2584-8.1791 1.3313z" fill="#ff2a2a"/>
    <path d="m102.89 70.324c-1.2617 0.2035-1.6812 0.91318-1.5396 1.9128l0.64202 4.5337c2.554 0.62748 4.3217-0.62762 8.6431-1.4393l-0.60738-4.7739c-0.1379-1.0839-0.71025-1.27-1.353-1.1664z" fill="url(#linearGradient28760)"/>
    <path d="m97.809 108.61c-30.611 10.705-39.295 22.378-36.373 36.778 32.156-22.443 155.35-39.225 179.82-63.018-3.2145-7.9673-13.162-8.9564-21.114-6.4696-7.0693 2.2108-35.222 14.919-60.309 21.372-28.423 7.3106-48.296 6.5373-62.023 11.338z" fill="#faa"/>
    <path d="m98.073 109.8c-27.106 9.0013-38.662 19.073-37.824 34.93 2.3593 44.659 46.247 44.674 64.084 39.758 23.956-6.6026 34.238-24.792 39.456-46.449 2.0044-8.3203 13.578-8.9998 15.835-5.6742 6.0332 8.8904 10.559 25.895 27.193 21.143 29.664-8.4753 36.539-41.022 36.73-48.052 0.20657-7.5953 1.0068-15.165-1.7701-22.048-3.2145-7.9673-12.765-9.0807-20.718-6.5979-9.7548 3.0452-35.875 15.199-60.962 21.652-28.423 7.3105-48.222 6.7548-62.023 11.338z" fill="url(#linearGradient24712)"/>
   </g>
  </g>
  <path d="m99.457 112.73c-25.279 8.1012-34.638 17.298-33.857 31.569 2.2003 40.193 44.845 39.547 61.48 35.123 22.341-5.9424 30.875-26.271 35.74-45.763 1.8693-7.4883 16.622-8.0998 18.726-5.1068 5.6265 8.0014 11.035 23.833 26.548 19.556 27.664-7.6278 33.68-34.545 33.858-40.871 0.19263-6.8358 0.74892-13.435-1.2549-19.843-3.4396-10.999-14.287-10.446-21.487-5.8929 0 0-33.27 14.426-56.666 20.233-26.507 6.5795-50.216 6.8711-63.087 10.996z" fill="none" stroke-dasharray="2.16, 2.16" stroke-linecap="square" stroke-width=".72"/>
 </g>
 <g fill="#fff">
  <path d="m100.31 74.025c0.0157-0.01816 0.0364-0.03657 0.0579-0.05821 0.0163-0.01637 0.0348-0.03651 0.0491-0.06147 0.013-0.02272 0.0232-0.05033 0.0257-0.08387 2e-3 -0.03136-2e-3 -0.06497-0.0142-0.0998-0.0114-0.03337-0.029-0.06628-0.0515-0.09799-0.0223-0.03144-0.0493-0.06156-0.0798-0.09006-0.0638-0.05956-0.1428-0.11186-0.22781-0.15574-0.1442-0.07443-0.30439-0.12352-0.41452-0.13746-0.08131-0.0103-0.17369-0.01962-0.27889-0.02751-0.24412-0.01831-0.55423-0.0287-0.94947-0.02641-0.63236 0.0036-1.4561 0.03972-2.4849 0.118-0.89061 0.06777-1.8955 0.1643-2.9631 0.28635-2.101 0.24019-4.2013 0.55099-5.8197 0.85811-0.8959 0.17001-1.5821 0.32685-2.0759 0.46527-0.28842 0.08084-0.5022 0.15283-0.65802 0.21613-0.08977 0.03647-0.15922 0.06962-0.21263 0.09955-0.02968 0.01663-0.0543 0.03221-0.07469 0.04677-0.02243 0.01601-0.0397 0.03076-0.05295 0.04429 0.01327-0.01355 0.0309-0.02786 0.05388-0.04293 0.02088-0.01369 0.04614-0.02798 0.07651-0.04289 0.05463-0.02682 0.12555-0.05555 0.21674-0.08632 0.15811-0.05335 0.37497-0.1121 0.66573-0.1765 0.49644-0.10995 1.1905-0.23223 2.0884-0.36107 1.6211-0.23261 3.7348-0.4612 5.8308-0.61902 1.0691-0.08051 2.0673-0.13756 2.9543-0.17023 1.0262-0.03779 1.8308-0.04038 2.448-0.0211 0.38408 0.01199 0.67691 0.03183 0.90265 0.05343 0.09692 0.0093 0.18024 0.01875 0.25208 0.02785 0.09597 0.01216 0.24259 0.0083 0.36635 0.0028 0.07024-0.0031 0.14522-0.0074 0.19486-0.01072 0.0263-0.0017 0.0477-0.0034 0.0679-0.0051 0.0198-0.0017 0.0366-0.0034 0.0517-0.0045 0.0154-1e-3 0.0299-0.0012 0.043 0.0025 0.0144 0.0041 0.0268 0.01281 0.0353 0.02737 0.01 0.01639 0.0125 0.03738 0.01 0.05891-4e-3 0.02747-0.0165 0.05327-0.0322 0.07149z"/>
  <path d="m102.16 85.627c0.0153-0.05526 0.0414-0.1336 0.0421-0.22699 5.3e-4 -0.07221-0.0139-0.152-0.0542-0.23848-0.0372-0.07988-0.0933-0.15817-0.16644-0.23332-0.0755-0.07754-0.16522-0.14761-0.26104-0.20908-0.16628-0.10668-0.34472-0.18317-0.4659-0.21796-0.0768-0.02204-0.1699-0.04474-0.28027-0.06691-0.24494-0.0492-0.55489-0.09195-0.94071-0.12445-0.64518-0.05434-1.3712-0.06943-2.0895-0.0705-0.92654-0.0014-1.4708 0.0153-1.8321-0.0052 0.20966 0.0119 1.0544 0.08819 1.8229 0.17246 0.71983 0.07893 1.4186 0.1706 2.0463 0.28952 0.37472 0.07099 0.65654 0.13884 0.8849 0.20058 0.10158 0.02747 0.18467 0.05155 0.25444 0.07158 0.10932 0.03138 0.27741 0.06383 0.43817 0.10615 0.0928 0.02443 0.18129 0.05149 0.26048 0.08338 0.0761 0.03066 0.1418 0.06502 0.195 0.10502 0.0576 0.04334 0.0998 0.09274 0.12601 0.14959 0.0353 0.07661 0.0362 0.15609 0.02 0.21462z"/>
  <path d="m124.79 76.683c0.0474-0.07835 0.11426-0.16901 0.16166-0.24736 0.0459-0.0756 0.0905-0.15953 0.11794-0.24245 0.0135-0.04073 0.0232-0.08244 0.0267-0.1242 4e-3 -0.04405 4.9e-4 -0.08849-0.0127-0.13169-0.015-0.0492-0.0415-0.09176-0.0763-0.12592-0.045-0.04415-0.0967-0.06747-0.13705-0.07756-8e-3 -0.0019-0.0155-0.0035-0.0233-0.0047-5e-3 -1.14e-4 -0.0109-1.72e-4 -0.0163-1.72e-4 -0.0229 0-0.057 1e-3 -0.10578 0.0026-0.0411 0.0013-0.0881 0.0028-0.15059 0.0046-0.10754 0.0031-0.23781 0.0063-0.41224 0.0097-0.3198 0.0062-0.67133 0.01062-1.1251 0.01633-0.45717 0.0057-0.85096 0.01085-1.2593 0.0183-0.50504 0.0092-0.87486 0.02098-1.0748 0.02278 0.20159-0.0018 0.55866 0.01235 1.0735 0.04169 0.38335 0.02184 0.82411 0.05044 1.2559 0.08047 0.43952 0.03056 0.81589 0.05881 1.1222 0.08245 0.24345 0.01879 0.1692 0.01317 0.41265 0.03196 0.0615 0.0047 0.11187 0.0083 0.15244 0.01092 0.0501 0.0032 0.0855 0.0048 0.1111 0.0048l-0.0396-0.0049c0.0125 0.0031 0.0201 0.0024 0.0297 4.51e-4 7e-3 -0.0014 0.0158-0.0035 0.0279 0.0026 0.011 0.0055 0.0237 0.01754 0.0349 0.0392 0.0107 0.02057 0.019 0.04771 0.0238 0.08087 0.01 0.06901 3e-3 0.15284-0.0156 0.23764-0.0242 0.11037-0.0662 0.21265-0.10188 0.27155z"/>
  <path d="m124.45 88.256c0.064-0.05688 0.14447-0.12895 0.20755-0.23932 0.0467-0.08164 0.0764-0.17233 0.0856-0.26753 9e-3 -0.09348-3e-3 -0.18336-0.0306-0.25708-0.0161-0.04234-0.0377-0.07966-0.0644-0.11004-0.0358-0.04075-0.0785-0.06615-0.12078-0.0759-9e-3 -2e-3 -0.0177-0.0034-0.0267-0.0041-3e-3 -4.3e-5 -7e-3 -6.5e-5 -0.01-6.5e-5 -0.0229 0-0.057 1e-3 -0.10578 0.0026-0.0411 0.0013-0.0881 0.0028-0.15059 0.0046-0.10754 0.0031-0.23781 0.0063-0.41224 0.0097-0.3198 0.0062-0.67133 0.01062-1.1251 0.01633-0.45717 0.0057-0.85096 0.01085-1.2593 0.0183-0.50504 0.0092-0.87486 0.02098-1.0748 0.02278 0.20159-0.0018 0.55866 0.01235 1.0735 0.04169 0.38335 0.02184 0.82411 0.05044 1.2559 0.08046 0.43952 0.03056 0.81589 0.05881 1.1222 0.08245 0.24345 0.01879 0.1692 0.01317 0.41265 0.03196 0.0615 0.0047 0.11187 0.0083 0.15244 0.01092 0.0501 0.0032 0.0855 0.0048 0.1111 0.0048l-0.0367-0.0042c-9e-3 -0.0022-0.0159-0.01146-5e-3 -0.01276 8e-3 -8.68e-4 0.0216 0.0034 0.0392 0.01644 0.0311 0.02295 0.0679 0.06905 0.092 0.13609 0.0242 0.06714 0.0326 0.1468 0.0167 0.22962-0.0215 0.11248-0.083 0.20509-0.14727 0.26223z"/>
  <path d="m47.225 107.02c0.42119-0.19761 1.0171-0.40138 1.6452-0.43566 0.47986-0.0262 0.90012 0.0496 1.2627 0.19987 0.41095 0.17029 0.70094 0.41649 0.90329 0.62044 0.06531 0.0658 0.12144 0.12724 0.16754 0.17807 0.14243 0.15705 0.32426 0.37804 0.5054 0.69031 0.34591 0.59632 0.59128 1.3662 0.64135 2.1822 0.02407 0.39222-1e-3 0.74533-0.05945 1.0421-0.07863 0.39943-0.20921 0.65798-0.32274 0.81023 0.11332-0.15196 0.26603-0.3963 0.38481-0.79488 0.08818-0.29589 0.14991-0.6531 0.16408-1.0595 0.02925-0.83894-0.14898-1.6811-0.47753-2.3555-0.17304-0.35521-0.364-0.61656-0.52641-0.79563-0.05271-0.0581-0.11965-0.12492-0.19999-0.19477-0.2511-0.2183-0.61505-0.45146-1.0939-0.58005-0.41938-0.11261-0.87344-0.1312-1.3609-0.0537-0.64006 0.10182-1.2103 0.348-1.6333 0.54645z"/>
  <path d="m63.546 98.431c0.36304-0.2351 0.88486-0.48332 1.46-0.54483 0.43781-0.04682 0.83274 0.02121 1.1837 0.17171 0.3988 0.17101 0.69812 0.42981 0.91314 0.64785 0.06928 0.07025 0.12953 0.13601 0.17929 0.19062 0.15373 0.16872 0.35316 0.40707 0.56034 0.74236 0.1981 0.32059 0.38381 0.69908 0.5324 1.1261 0.13534 0.38898 0.22884 0.78734 0.27391 1.1675 0.04758 0.40132 0.0379 0.75323-0.01524 1.0409-0.03073 0.16636-0.07491 0.30588-0.12698 0.42145-0.06745 0.14969-0.1456 0.25356-0.21739 0.32382 0.07149-0.07 0.15614-0.16857 0.23711-0.3139 0.06264-0.11242 0.12129-0.24964 0.16948-0.41665 0.08343-0.28917 0.1296-0.64845 0.11932-1.0674-0.0097-0.39606-0.06939-0.81751-0.1764-1.235-0.1173-0.45767-0.28202-0.8747-0.47128-1.2324-0.19807-0.37436-0.40497-0.65008-0.5764-0.83823-0.05572-0.06116-0.12602-0.13152-0.20949-0.20511-0.26005-0.22925-0.63306-0.47715-1.1027-0.60805-0.41238-0.11493-0.84424-0.12478-1.291-0.02555-0.58496 0.12994-1.0794 0.42002-1.4419 0.65476z"/>
  <path d="m77.403 90.69c0.36304-0.2351 0.88486-0.48332 1.46-0.54483 0.43781-0.04682 0.83274 0.02122 1.1837 0.17171 0.3988 0.17101 0.69812 0.42981 0.91314 0.64785 0.06928 0.07025 0.12953 0.13601 0.17929 0.19062 0.15373 0.16872 0.35316 0.40707 0.56034 0.74236 0.1981 0.32059 0.38381 0.69908 0.5324 1.1261 0.13534 0.38898 0.22884 0.78734 0.27391 1.1675 0.04758 0.40132 0.03789 0.75323-0.01524 1.0409-0.03073 0.16636-0.07491 0.30588-0.12698 0.42145-0.06745 0.14968-0.1456 0.25356-0.21739 0.32382 0.07149-0.06997 0.15614-0.16857 0.23711-0.3139 0.06264-0.11242 0.12129-0.24965 0.16948-0.41665 0.08343-0.28917 0.1296-0.64846 0.11932-1.0674-0.0097-0.39606-0.06939-0.8175-0.1764-1.235-0.1173-0.45767-0.28202-0.8747-0.47128-1.2324-0.19807-0.37436-0.40497-0.65008-0.5764-0.83823-0.05572-0.06116-0.12602-0.13152-0.20949-0.20511-0.26005-0.22925-0.63306-0.47715-1.1027-0.60805-0.41238-0.11493-0.84424-0.12478-1.291-0.02555-0.58496 0.12994-1.0794 0.42002-1.4419 0.65476z"/>
 </g>
</svg>
