<?xml version="1.0" encoding="UTF-8"?>
<svg cursor="default" version="1.1" viewBox="0 0 256 256" xmlns="http://www.w3.org/2000/svg" xmlns:cc="http://creativecommons.org/ns#" xmlns:dc="http://purl.org/dc/elements/1.1/" xmlns:rdf="http://www.w3.org/1999/02/22-rdf-syntax-ns#" xmlns:xlink="http://www.w3.org/1999/xlink">
 <metadata>
  <rdf:RDF>
   <cc:Work rdf:about="">
    <dc:format>image/svg+xml</dc:format>
    <dc:type rdf:resource="http://purl.org/dc/dcmitype/StillImage"/>
    <dc:title/>
   </cc:Work>
  </rdf:RDF>
 </metadata>
 <defs>
  <linearGradient id="innoGrad3">
   <stop stop-color="#ff2a2a" offset="0"/>
   <stop stop-color="#f55" offset="1"/>
  </linearGradient>
  <linearGradient id="innoGrad1">
   <stop stop-color="#faa" offset="0"/>
   <stop stop-color="#ffd5d5" offset="1"/>
  </linearGradient>
  <linearGradient id="linearGradient869" x1="86.78" x2="135.05" y1="168.68" y2="72.136" gradientUnits="userSpaceOnUse">
   <stop stop-color="#ff8080" offset="0"/>
   <stop stop-color="#faa" offset="1"/>
  </linearGradient>
  <linearGradient id="linearGradient877" x1="100.88" x2="195.53" y1="224" y2="129.63" gradientUnits="userSpaceOnUse" xlink:href="#innoGrad1"/>
  <linearGradient id="linearGradient879" x1="242.98" x2="219.93" y1="188.2" y2="199.32" gradientUnits="userSpaceOnUse" xlink:href="#innoGrad3"/>
  <linearGradient id="linearGradient891" x1="129.9" x2="75.39" y1="122.31" y2="148.88" gradientUnits="userSpaceOnUse" xlink:href="#innoGrad3"/>
  <linearGradient id="linearGradient895" x1="95.783" x2="123.49" y1="42.478" y2="43.053" gradientUnits="userSpaceOnUse" xlink:href="#innoGrad1"/>
  <linearGradient id="linearGradient909" x1="53.861" x2="58.336" y1="92.379" y2="92.858" gradientUnits="userSpaceOnUse" xlink:href="#innoGrad1"/>
  <linearGradient id="linearGradient911" x1="55.226" x2="49.09" y1="93.294" y2="93.198" gradientUnits="userSpaceOnUse" xlink:href="#innoGrad1"/>
 </defs>
 <g fill-rule="evenodd" stroke="#000">
  <path d="m240.67 219.26c-2.168 6.807-4.92 12.112-15.368 13.074l-15.931-59.096 16.117-7.225c6.726 16.496 13.692 33.42 15.182 53.247z" fill="url(#linearGradient879)"/>
  <path d="m74.138 171.02c49.63-30.35 18.683-94.6 25.38-98.925l44.46 14.45-20.563 70.766c-16.375 7.967-32.46 35.384-49.277 13.709z" fill="url(#linearGradient891)"/>
  <path d="m83.03 188.61c21.888-2.157 32.784-17.618 45.757-30.567 13.604-13.465 11.373-27.993-1.002-37.914 1.71 6.387 1.808 14.385-1.896 26.185-44.209 70.833-98.371-29.571-66.483-80.062 7.3725-6.1782 17.497-4.2112 24.791-0.34783l-1.537-38.28c-100.39 24.627-48.022 161.74 0.37 160.98z" fill="#ff8080"/>
 </g>
 <g fill="#f55" stroke="#000">
  <path d="m102.62 99.472c-1.8711 0.26553-4.2152 7.2772-1.582 10.738l31.304 28.955c-12.113 4.7762-24.225-18.595-36.338-28.093-0.72113-8.1742 0.98844-13.838 6.6157-11.601z" stroke-width="1px"/>
  <path d="m101.06 123.3c-1.8711 0.26553-4.2152 7.2772-1.582 10.738l31.304 28.955c-12.113 4.7762-24.225-18.595-36.338-28.093-0.72113-8.1742 0.98844-13.838 6.6156-11.601z" stroke-width="1px"/>
  <ellipse cx="45.22" cy="92.339" rx="4.4826" ry="7.2622" stroke-linecap="round" stroke-linejoin="round" stroke-width=".98398"/>
 </g>
 <path d="m53.465 29.634c-58.763 29.232-40.561 128.4-5.364 151.7 4.9236 3.7859 25.179 8.8611 35.766 7.0776-42.551 0.48112-91.924-136.48-0.837-161.34-9.8559 0.8537-26.577 1.4433-29.565 2.5612z" fill="#faa" fill-rule="evenodd" stroke="#000"/>
 <g stroke="#000">
  <path d="m44.68 86.87c-2.1814 0.8611-4.5001 7.28 0.38352 11.505 4.1557-0.24668 6.5046-0.23526 10.265-0.42547-2.4854-0.91097-0.32106-10.294 0.066059-10.484-5.82-0.4158-10.715-0.59576-10.715-0.59576z" fill="url(#linearGradient911)" stroke-width="1px"/>
  <path d="m99.115 18.896c-0.867-2e-3 -1.6044 0.0094-2.1914 0.02539-27.845 0.79-35.506 41.31-38.717 63.912-9.8512 4.6138-5.5417 25.604 6.1211 16.275 9.4356 23.45 20.129 43.381 30.93 63.012 14.748-2.026 27.36 4.8914 36.68 25.566l54.275-95.59-36.494-33.715c4.363-36.34-37.598-39.458-50.604-39.486zm-40.206 67.652c2.153-1.25e-4 4.1381 2.1986 4.1381 5.8867-7.5e-5 3.6881-1.8893 6.4142-4.0423 6.4141-2.153 1.26e-4 -3.7545-2.7259-3.7546-6.4141 7.5e-5 -3.6881 1.5058-5.8869 3.6587-5.8867zm41.054 14.244c0.10337-9e-3 0.21117-8e-3 0.32227 0 0.82 0.058 1.852 0.59569 3.125 1.8047l21.861 20.748c3.944 3.743 6.1051 17.97 0.36914 12.598l-26.303-24.641c-2.1032-1.9704-2.5794-10.228 0.625-10.51zm-0.79102 24.141c0.82 0.059 1.851 0.59569 3.125 1.8047l21.859 20.75c3.943 3.743 6.1061 17.968 0.37109 12.596l-26.305-24.637c-2.17-2.033-2.6068-10.768 0.94922-10.514z" fill="url(#linearGradient869)" fill-rule="evenodd"/>
  <path d="m57.16 97.847c2.268-0.13954 5.0737-0.35589 8.9007-0.71814 3.9312-0.37211 2.2914-8.3389 0.09588-8.6291-2.9126-0.38492-6.247-0.6935-9.406-0.93412-2.5573 3.1368-0.9987 8.9856 0.40934 10.281z" fill="url(#linearGradient909)" stroke-width="1px"/>
 </g>
 <g stroke="#000">
  <path d="m157.71 76.185c11.336 1.424 24.343-10.518 34.009 4.273-0.222 1.53-2.25 5.768-4.161 8.348l-35.068-4.261c-1.579-3.04 3.018-6.142 5.22-8.36z" fill="#ffb380" fill-rule="evenodd"/>
  <path d="m212.47 180.06c2.1352-2.0561 1.184-6.7558 9.1085-7.1909 4.684 4.76 10.101 14.998 18.217 49.186 2.9682-3.4318-0.26412-36.461-17.162-56.185-12.587 2.414-11.603 8.7704-10.163 14.19z" fill="#f55" stroke-width="1px"/>
  <path d="m129.9 186.21c5.215 12.153 4.804 19.924 19.08 33.16 7.27 6.739 40.957 27.446 62.06 24.638 11.47-1.526 16.093-3.55 16.91-12.541 1.216-13.404-4.1-38.546-13.762-53.964-0.954-2.519 2.936-6.803 8.151-6.67 11.803 12.979 13.983 31.37 18.34 48.537 3.167-58.83-51.913-137.73-65.393-137.46-31.747 0.638-51.813 46.83-45.386 104.3z" fill="url(#linearGradient877)" fill-rule="evenodd"/>
  <path d="m95.627 161.92c-6.143-28.74-30.054-127.18 53.908-103.91" fill="none"/>
 </g>
 <g fill-rule="evenodd" stroke="#000">
  <path d="m152.1 84.033c-4.233-6.425-10.161-35.163-10.526-38.99 1.82-2.409 1.805-6.004 6.382-7.16 11.227 17.74 12.71 23.97 11.7 37.68z" fill="#f95"/>
  <path d="m146.38 48.192c2.4014-2.2393 1.7549-4.9305 0.556-6.484-12.394-4.282-20.058-3.044-29.825-4.26l0.37 4.816c10.121 2.1785 20.573 4.1865 28.899 5.928z" fill="#ffe680"/>
  <path d="m108.54 32.307c6.951-0.853 8.27 25.263 0.433 23.65-6.332-7.907-3.582-21.082-0.433-23.65z" fill="#f55"/>
  <path d="m108.41 33.557c26.18-1.758 28.692 21.362-0.371 20.749-4.77-7.863-2.779-18.181 0.37-20.749z" fill="url(#linearGradient895)"/>
 </g>
 <g stroke="#000">
  <ellipse cx="115.49" cy="46.983" rx="4.9891" ry="4.5484" fill="#faa" stroke-linecap="round" stroke-linejoin="round" stroke-width=".98792"/>
  <path d="m154.17 69.867c-8.47-1.507-36.741-4.1524-34.522-24.094-1.1529-3.7062-6.6491-3.145-7.966-0.8931-1.438 21.233 18.659 32.452 40.821 32.398 4.5495-1.8733 1.607-7.5601 1.667-7.41z" fill="#ffe680" fill-rule="evenodd"/>
  <path d="m191.96 80.056c-0.30484-13.233-3.3459-27.527-10.838-37.607-12.057-3.789-25.902-5.66-33.066-4.538 1.79 4.262 9.971 30.696 9.633 39.551z" fill="#fca" fill-rule="evenodd"/>
  <path d="m152.5 77.277c3.592 1.5132 3.6502-9.4379 0.78914-7.7855" fill="none" stroke-width="1px"/>
  <path d="m145.69 48.151c3.592 1.4073 3.6502-8.2014 0.78914-6.6646" fill="none" stroke-width=".96439px"/>
 </g>
</svg>
