<svg xmlns="http://www.w3.org/2000/svg" cursor="default" viewBox="0 0 256 256">
    <g transform="translate(0 -796.362)">
        <path fill="#ff2a2a" fill-rule="evenodd" stroke="#000" d="M119.614 851.37c-2.752 83.017.886 132.534 17.608 157.976l-13.26 2.742-4.465.196C98.704 962.9 102.963 906.087 105.61 852.703c0 0 13.29-1.366 14.004-1.333z"/>
        <path fill="#f95" fill-rule="evenodd" stroke="#000" d="M230.72 886.694c-5.458-23.151-42.156-33.958-67.414-35.046-32.258-1.39-71.43 2.06-102.113 6.911-15.128 2.392-33.992 16.16-37.82 25.996-2.253-4.633-8.115-8.15-6.36-14.714 3.09-14.406 24.86-26.779 38.014-29.079 36-6.295 80.766-9.88 107.815-8.203 19.754 1.225 59.682 7.757 71.884 27.816 1.543 11.925-2.525 17.706-4.006 26.32z"/>
        <path fill="#ffb380" fill-rule="evenodd" stroke="#000" d="M136.021 907.526l-1.138 21.22c-30.703-4.904-58.69-1.314-92.108-14.712-8.221-7.383-23.454-13.388-22.936-22.488l-2.615-17.279c4.594 12.988 25.116 17.71 39.6 25.565zM171.568 904.129c-.04.892-.214 20.547-.214 20.547s46-17.136 46.762-18.174c.762-1.038 14.911-17.469 14.911-17.469l.84-14.62c-13.692 18.855-40.776 20.768-62.299 29.716z"/>
        <path fill="#f55" fill-rule="evenodd" stroke="#000" d="M173.348 920.118c.105 1.614-.794 5.685-.794 5.685 31.911-5.578 63.952-22.8 61.347-44.238-8.481 28.867-48.128 36.194-60.553 38.553zM134.562 925.961l-.628 3.994c-23.295-.948-46.573-2.002-69.224-6.885-13.733-2.961-25.23-8.222-36.91-17.847-10.646-8.774-8.938-12.5-8.984-20.695 1.858 6.996-.645 10.284 11.3 18.923 15.518 11.224 29.904 15.085 42.597 17.127 26.032 4.188 41.62 3.396 61.849 5.383z"/>
        <path fill="#ffb380" fill-rule="evenodd" stroke="#000" d="M174.386 902.508c-10.3 2.019-24.752 3.45-39.784 4.775.155 31.088-3.2 64.995-4.892 96.306-12.918 8.645-10.49 10.608-10.49 10.608-.503 3.793 29.687-.056 43.233-7.34.583-1.995-.044-4.714-2.475-8.513z"/>
        <path fill="#f55" fill-rule="evenodd" stroke="#000" d="M175.667 920.223c-.892-.04-5.79.453-5.79.453s-8.303 61.586-12.04 79.538c-.45 2.165 4.492 3.767 3.407 5.695-1.479 2.63-36.547 12.796-40.24 8.369-3.022-3.622 9.343-6.854 10.782-9.165 2.592-4.162 6.594-82.557 6.594-82.557-1.221-1.115-2.86-1.484-5.542.02 0 0-4.53 80.413-5.269 80.916-.737.503-12.363 8.592-12.111 10.893.346 3.162 9.941 1.522 14.968 1.034.889-.086 34.96-5.63 34.739-11.21-.102-2.556-3.406-3.27-2.977-5.318 3.067-14.674 13.479-78.668 13.479-78.668z"/>
        <path fill="#fea" fill-rule="evenodd" stroke="#000" stroke-width=".5" d="M163.342 926.342c.182.284.27.574 1.138 1.176.774.417 4.042-8.095 5.21-12.466-.312-.572.81-1.74-.79-1.96-3.231 3.252-5.258 10.193-5.558 13.25z"/>
        <path fill="#ffe680" fill-rule="evenodd" stroke="#000" stroke-width=".5" d="M182.599 918.124c-.434 4.458-2.847 9.937-4.818 12.652-4.554-.824-8.917-1.992-13.213-3.279 1.657-4.222 4.25-9.157 5.122-12.46l-.604-2c4.47.631 8.865 1.74 13.217 3.123z"/>
        <path fill="#f55" fill-rule="evenodd" stroke="#000" d="M167.204 897.854c1.612 2.32 1.036 5.023.545 7.71-16.5 1.22-18.814 1.528-45.528 2.768-21.733 1.008-34.712-.721-63.516-6.627-14.53-2.98-34.676-11.204-40.847-21.69-7.504-12.749 5.72-24.532 15.48-30.045-9.73 8.945-22.016 17.153-12.367 28.4 8.456 9.855 21.922 14.013 37.45 17.78 27.823 6.753 41.417 6.76 61.25 6.355 24.108-.492 30.333-2.45 47.533-4.651zM174.551 899.437c-.362 1.533-1.792 3.513-.019 6.345 34.429-8.724 71.973-24.003 60.091-45.612.145 14.761-6.98 30.065-60.072 39.267z"/>
        <ellipse cx="297.594" cy="885.224" fill="#ff8080" stroke="#000" stroke-width=".345" rx="5.472" ry="5.222" transform="matrix(-.8863 .4631 .47255 .8813 0 0)"/>
        <path fill="none" stroke="#000" stroke-width=".5" d="M165.701 952.05c-10.1 1.482-19.88 2.67-29.484 3.698"/>
        <ellipse cx="-181.497" cy="911.567" fill="#fca" stroke="#000" stroke-width=".436" rx="2.697" ry="2.674" transform="scale(-1 1) rotate(-2.59)"/>
        <path fill="#fff6d5" fill-rule="evenodd" stroke="#000" stroke-width=".5" d="M168.538 915.193c.348.831-.165 1.272-.616 1.742 0 0-7.28-2.979-10.38-1.765-3.1 1.213-3.858 7.061-3.858 7.061l10.506 2.466-.47 1.306-11.776-2.334c-1.295-.157 1.154-11.735 7.654-10.619 3.96.68 8.94 2.143 8.94 2.143z"/>
        <ellipse cx="296.477" cy="889.258" fill="#faa" stroke="#000" stroke-width=".473" rx="7.506" ry="7.163" transform="matrix(-.8863 .4631 .47255 .8813 0 0)"/>
        <ellipse cx="296.235" cy="890.575" fill="#faa" stroke="#000" stroke-width=".473" rx="7.506" ry="7.163" transform="matrix(-.8863 .4631 .47255 .8813 0 0)"/>
        <ellipse cx="-181.854" cy="911.88" fill="#ffe6d5" stroke="#000" stroke-width=".232" rx="1.434" ry="1.421" transform="scale(-1 1) rotate(-2.59)"/>
        <path fill="none" stroke="#000" stroke-width=".5" d="M182.55 918.21l-12.863-3.128M160.608 952.79c-2.131 16.17-2.645 22.544-6.461 49M141.546 955.324c-1.623 16.492-3.327 32.98-5.187 49.46M131.502 1005.458c8.618-.818 17.242-1.803 25.955-4.725"/>
        <ellipse cx="-182.324" cy="957.18" fill="#fca" stroke="#000" stroke-width=".286" rx="1.77" ry="1.754" transform="scale(-1 1) rotate(-2.59)"/>
        <ellipse cx="-182.681" cy="957.493" fill="#ffe6d5" stroke="#000" stroke-width=".152" rx=".941" ry=".932" transform="scale(-1 1) rotate(-2.59)"/>
        <ellipse cx="-181.592" cy="977.953" fill="#fca" stroke="#000" stroke-width=".286" rx="1.77" ry="1.754" transform="scale(-1 1) rotate(-2.59)"/>
        <ellipse cx="-181.95" cy="978.266" fill="#ffe6d5" stroke="#000" stroke-width=".152" rx=".941" ry=".932" transform="scale(-1 1) rotate(-2.59)"/>
        <ellipse cx="-205.205" cy="953.457" fill="#fca" stroke="#000" stroke-width=".286" rx="1.77" ry="1.754" transform="scale(-1 1) rotate(-2.59)"/>
        <ellipse cx="-205.562" cy="953.77" fill="#ffe6d5" stroke="#000" stroke-width=".152" rx=".941" ry=".932" transform="scale(-1 1) rotate(-2.59)"/>
        <ellipse cx="-203.626" cy="973.155" fill="#fca" stroke="#000" stroke-width=".286" rx="1.77" ry="1.754" transform="scale(-1 1) rotate(-2.59)"/>
        <ellipse cx="-203.984" cy="973.468" fill="#ffe6d5" stroke="#000" stroke-width=".152" rx=".941" ry=".932" transform="scale(-1 1) rotate(-2.59)"/>
        <ellipse cx="-204.032" cy="964.27" fill="#ff7f2a" stroke="#000" stroke-width=".197" rx="1.228" ry="1.193" transform="scale(-1 1) rotate(-2.59)"/>
        <ellipse cx="-181.532" cy="968.266" fill="#ff7f2a" stroke="#000" stroke-width=".197" rx="1.228" ry="1.193" transform="scale(-1 1) rotate(-2.59)"/>
        <ellipse cx="-202.335" cy="981.614" fill="#ff7f2a" stroke="#000" stroke-width=".197" rx="1.228" ry="1.193" transform="scale(-1 1) rotate(-2.59)"/>
        <ellipse cx="-180.549" cy="986.926" fill="#ff7f2a" stroke="#000" stroke-width=".197" rx="1.228" ry="1.193" transform="scale(-1 1) rotate(-2.59)"/>
        <ellipse cx="-179.924" cy="995.386" fill="#ff7f2a" stroke="#000" stroke-width=".178" rx="1.059" ry="1.135" transform="scale(-1 1) rotate(-2.59)"/>
        <ellipse cx="-201.241" cy="990.832" fill="#ff7f2a" stroke="#000" stroke-width=".173" rx="1.039" ry="1.093" transform="scale(-1 1) rotate(-2.59)"/>
        <path fill="#ffe6d5" fill-rule="evenodd" d="M166.869 835.246c-8.79-.526-17.306-.867-25.74-.991-27.226.378-53.48 3.015-85.258 8.937 31.847-5.56 58.104-7.822 85.265-7.831 8.414-.245 16.927-.273 25.733-.115zM133.27 912.192a683.64 683.64 0 0 0-8.284-.479c-11.862.464-26.238.822-41.33-.766-18.791-1.977-38.736-6.973-56.325-18.582 17.456 11.846 37.37 17.132 56.233 19.389 15.14 1.812 29.574 1.67 41.466 1.423 2.911-.331 5.663-.668 8.24-.985z"/>
        <path fill="#fff" fill-rule="evenodd" d="M164.861 922.343a5.465 5.465 0 0 0-.388-2.757 6.712 6.712 0 0 0-.944-1.59 8.075 8.075 0 0 0-.745-.604c-1.516-1.086-3.371-1.663-4.878-1.712 1.48.302 3.155 1.113 4.393 2.3.21.2.406.411.586.631.422.356.802.765 1.114 1.227.472.698.797 1.532.862 2.505z"/>
    </g>
</svg>
