<?xml version="1.0" encoding="UTF-8"?>
<svg cursor="default" version="1.1" viewBox="0 0 256 256" xmlns="http://www.w3.org/2000/svg" xmlns:cc="http://creativecommons.org/ns#" xmlns:dc="http://purl.org/dc/elements/1.1/" xmlns:rdf="http://www.w3.org/1999/02/22-rdf-syntax-ns#">
 <metadata>
  <rdf:RDF>
   <cc:Work rdf:about="">
    <dc:format>image/svg+xml</dc:format>
    <dc:type rdf:resource="http://purl.org/dc/dcmitype/StillImage"/>
   </cc:Work>
  </rdf:RDF>
 </metadata>
 <path d="m128.38 183.4c-14.076 0-25.484 11.694-25.484 26.115s11.732 25.252 25.807 25.253c14.076 0 25.166-10.831 25.167-25.253 0-14.422-11.412-26.115-25.488-26.115zm-0.7695 3.3732a4.0743 4.077 0 0 1 4.0743 4.077 4.0743 4.077 0 0 1-4.0743 4.0761 4.0743 4.077 0 0 1-4.0743-4.077 4.0743 4.077 0 0 1 4.0743-4.077z" fill="#f95" stroke="#000" stroke-width=".7839"/>
 <g fill-rule="evenodd" stroke="#000" stroke-width="1.155">
  <path d="M123.791 179.986l.344 3.433c1.188-.088 3.058-.173 5.568-.185l-.549-3.3z" fill="#faa"/>
  <path d="M115.22 47.774c2.815 1.402 3.245-5.808 1.932-6.49l4.193 6.052zM97.573 53.462c2.815 1.402 3.245-5.808 1.932-6.49l4.193 6.052zM78.94 59.673c2.815 1.402 3.245-5.808 1.932-6.49l4.193 6.052z" fill="#1a1a1a"/>
  <path d="m132.71 28.547-66.207 23.306-19.8 1.443c-10.27 6.16-39.961 18.505-40.22 48.47l7.22 16.707c7.835-17.058 19.367-21.683 30.525-29.493 4.747-3.324 15.574-14.294 23.822-17.842 20.517-8.824 63.216-21.552 63.216-21.552l114.61 36.517c0.674-2.742 10.035-9.115 1.966-20.569-27.904-10.258-68.796-15.767-115.13-36.987zm-15.328 14.305a1.68 2.328 0 0 1 1.683 2.328 1.68 2.328 0 0 1-1.683 2.328 1.68 2.328 0 0 1-1.68-2.328 1.68 2.328 0 0 1 1.68-2.328zm-17.585 5.533a1.775 2.319 0 0 1 1.774 2.32 1.775 2.319 0 0 1-1.774 2.316 1.775 2.319 0 0 1-1.775-2.317 1.775 2.319 0 0 1 1.775-2.319zm-18.854 6.287a1.822 2.314 0 0 1 1.82 2.313 1.822 2.314 0 0 1-1.82 2.314 1.822 2.314 0 0 1-1.823-2.314 1.822 2.314 0 0 1 1.823-2.313z" fill="#f55"/>
  <path d="M144.588 31.646c39.173 16.812 74.163 25.152 102.9 33.506 1.043.3 3.597 2.82 3.672 9.167-.71-3.838-.645-6.086-3.185-7.729-18.078-5.506-58.744-13.67-103.933-33.196z" fill="#fca"/>
  <path d="m4.837 101.77 2.269 36.713c13.043 27.368 45.106 39.16 72.187 40.012 33.549 1.055 64.377 1.91 95.906-2.062 37.135-4.679 69.27-24.09 76.313-43.932l0.314-43.906c-6.146 39.197-66.655 50.971-126.96 53.806-54.642 2.568-107.7-4.106-120.03-40.63z" fill="#ff8080"/>
  <path d="m240.17 112.83c-9.194-10.212-22.323-15.617-35.002-22.825-12.494-7.102-7.267-12.274-45.357-27.49l-27.418-29.46 52.357 16.917 19.543 3.063c11.381 7.184 41.352 13.07 46.669 34.564 0.6 11.442-4.46 18.796-10.792 25.23z" fill="#f55"/>
  <path d="M129.984 34.734c-.098 2.163-.438 10.743-.438 16.553 9.364 8.174 26.41 11.821 29.956 13.271 4.39 1.796 4.602-11.07.817-20.053z" fill="#ff8080"/>
  <path d="M128.793 143.052c-55.245 1.877-114.295 2.472-123.931-41.286-.475-26.603 23.368-39.545 38.441-47.581 6.11-3.258 16.86-2.048 23.615-3.569 22.991-5.178 61.305-23.008 67.542-22.773 9.964.128 13.511 5.516-.815 1.99-11.67 2.665-43.82 17.204-65.325 22.252-8.17 1.917-14.164-.57-21.82 2.862-16.435 7.369-41.972 26.37-38.947 45.838 2.9 18.654 19.787 31.125 44.922 36.307 28.733 5.924 44.96 4.196 75.82 3.63 49.194-.9 108.884-10.262 120.652-46.135 6.523-19.884-27.32-32.77-46.11-41.29-5.96-2.702-12.819-.602-18.98-2.809-19.062-6.829-45.475-20.302-49.556-17.011-1.703 1.373 22.236 7.445 26.873 10.333 2.752 1.714 4.615 15.709.055 20.524 3.11-7.05 1.01-17.938-2.17-19.393-4.777-2.187-29.349-8.14-29.235-10.619.101-2.192 3.252-3.382 5.444-3.262 14.565.796 34.19 12.68 50.11 18.392 6.64 2.381 14.455.475 20.759 3.64 18.53 9.3 50.877 19.167 45.345 42.576-8.641 36.57-77.56 45.85-122.689 47.383z" fill="#faa"/>
 </g>
 <g stroke="#000">
  <ellipse transform="matrix(.98184 -.18971 .15725 .98756 0 0)" cx="139.61" cy="79.224" rx="4.201" ry="6.269" fill="#ffb380" stroke-width=".883"/>
  <g stroke-width="1.155">
   <path d="M135.161 34.442c.824.563-.565-5.017-1.663-5.995-.768-.686 3.011-.227 4.487-.048 2.252 1.248 3.563 4.733 3.666 7.574z" fill="#f55" fill-rule="evenodd"/>
   <path d="M118.893 32.672c0-.412.168-2.727 1.198-3.74 1.743-1.715 28.177-.904 31.612 1.086 2.155 1.248 1.84 5.078 1.84 5.078l-5.62-1.856s-1.012-1.214-1.702-1.547c-1.89-.914-21.55-1.488-22.636-.207-2.271.63-4.692 1.186-4.692 1.186zM120.956 149.72s-9.46-.463-17.429-.207c-19.392.623-19.15 26.77-1.856 27.019 6.018.086 19.181.464 19.181.464-.442 6.033 12.102 7.124 11.86-.155 0 0 9.17-.786 17.325-.928 18.718-.326 17.364-27.005 1.031-27.225-7.597-.102-18.46 1.237-18.46 1.237.37 5.855-10.03 11.368-11.652-.206z" fill="#f95" fill-rule="evenodd"/>
   <path d="m120.8 149.77-0.05 27.38m11.859-27.018 0.103 26.915" fill="none"/>
  </g>
  <ellipse cx="103.22" cy="164.36" rx="9.281" ry="8.044" fill="#fca" stroke-width=".924"/>
  <ellipse cx="151.79" cy="162.92" rx="9.281" ry="8.044" fill="#fca" stroke-width=".924"/>
 </g>
 <path d="M120.957 29.45c.163-.015.427-.03.777-.044.35-.014.789-.028 1.3-.04a215.841 215.841 0 0 1 14.416.182c3.734.18 7.387.489 10.127.989.45.082.873.169 1.268.261.82.124 1.522.27 2.08.44.414.128.75.269.996.425.124.079.227.162.308.253.081.09.143.19.178.302a.826.826 0 0 0-.08-.366 1.385 1.385 0 0 0-.256-.367c-.226-.241-.556-.468-.97-.679-.557-.283-1.266-.539-2.091-.77-.412-.082-.85-.158-1.31-.229-2.8-.426-6.492-.653-10.231-.752a197.24 197.24 0 0 0-10.578.019c-1.516.044-2.838.103-3.862.169-.512.033-.949.067-1.299.102-.35.035-.612.07-.773.105zM148.652 46.51c.836.25 1.416.744 1.82 1.351.406.608.656 1.361.8 2.175.08.462.128.947.148 1.44.377 1.212.582 2.529.732 3.676.266-1.108.487-2.482.512-3.846a11.47 11.47 0 0 0-.45-1.533c-.327-.867-.77-1.644-1.367-2.227a3.59 3.59 0 0 0-2.195-1.036zM156.002 168.233c.935-.713 1.675-1.445 2.234-2.198.56-.754.947-1.54 1.157-2.356a5.81 5.81 0 0 0 .182-1.592c-.261-1.092-.823-2.037-1.545-2.82-1.06-1.149-2.502-1.99-4.019-2.475-1.527-.489-3.157-.628-4.63-.354 1.491-.044 3.03.333 4.372.996 1.352.667 2.484 1.614 3.195 2.694.48.73.752 1.497.8 2.263.134.343.223.72.252 1.131.046.641-.056 1.369-.374 2.168-.317.8-.843 1.655-1.624 2.543zM107.371 169.477c.935-.712 1.675-1.445 2.234-2.197.56-.754.947-1.54 1.156-2.356a5.81 5.81 0 0 0 .183-1.593c-.262-1.09-.824-2.037-1.546-2.82-1.06-1.148-2.501-1.988-4.018-2.474-1.528-.489-3.158-.628-4.63-.354 1.491-.045 3.03.333 4.372.995 1.351.668 2.484 1.614 3.194 2.694.481.732.753 1.498.8 2.264.134.343.224.72.253 1.131.045.641-.057 1.369-.374 2.168-.318.8-.844 1.655-1.624 2.542z" fill="#ffe6d5" fill-rule="evenodd"/>
 <path d="m128.54 184.45c-14.077 0-25.486 11.694-25.485 26.115 0 14.422 11.731 25.252 25.807 25.253 14.076 0 25.166-10.832 25.166-25.253 9e-4 -14.422-11.411-26.116-25.488-26.115zm-0.7704 3.3732a4.0743 4.077 0 0 1 4.0743 4.0761 4.0743 4.077 0 0 1-4.0743 4.077 4.0743 4.077 0 0 1-4.0752-4.077 4.0743 4.077 0 0 1 4.0752-4.077z" fill="#fca" stroke="#000" stroke-width=".7839"/>
 <g fill-rule="evenodd">
  <path d="m152.62 212.66c0.2889-5.9247-1.0719-11.364-3.4047-15.818a26.589 26.589 0 0 0-1.6947-2.2284c-1.8459-2.1753-3.9168-3.879-6.0246-5.022-2.1114-1.1466-4.2399-1.7208-6.1938-1.6659 1.926 0.234 3.888 1.0827 5.733 2.4048 1.8495 1.3248 3.6018 3.141 5.1012 5.3415a25.839 25.839 0 0 1 1.3554 2.2257c2.7162 3.7908 4.743 8.8452 5.1282 14.763z" fill="#ffe6d5" stroke-width=".9"/>
  <path d="M124.256 155.185l.206-2.578 3.3-1.238c8.202 5.89 9.694 27.57 9.39 33.592-.19 3.74-2.282 8.418-4.646 8.896-3.528.713-5.708-1.316-7.154-4.033 1.106-1.049 2.82-1.596 4.993-.955 4.962-2.417 1.42-29.75-6.09-33.684z" fill="#fca" stroke="#000" stroke-width="1.155"/>
  <path d="M127.287 152.756c1.269 1.721 2.325 3.92 3.193 6.357.375.802.73 1.638 1.067 2.502 1.322 3.394 2.34 7.182 3.056 10.819.715 3.635 1.127 7.108 1.241 9.87.057 1.382.04 2.585-.05 3.543a9.41 9.41 0 0 1-.19 1.245c-.082.348-.183.629-.304.834.148-.19.28-.462.393-.81.113-.346.208-.764.285-1.246.154-.963.233-2.177.237-3.572.01-2.79-.282-6.305-.881-9.995-.6-3.689-1.51-7.565-2.742-11.075a43.369 43.369 0 0 0-1.008-2.607c-1.276-2.364-2.714-4.396-4.297-5.865z" fill="#ffe6d5"/>
 </g>
</svg>
