<?xml version="1.0" encoding="UTF-8"?>
<svg version="1.1" viewBox="0 0 300 300" xmlns="http://www.w3.org/2000/svg" xmlns:cc="http://creativecommons.org/ns#" xmlns:dc="http://purl.org/dc/elements/1.1/" xmlns:rdf="http://www.w3.org/1999/02/22-rdf-syntax-ns#" xmlns:xlink="http://www.w3.org/1999/xlink">
 <metadata>
  <rdf:RDF>
   <cc:Work rdf:about="">
    <dc:format>image/svg+xml</dc:format>
    <dc:type rdf:resource="http://purl.org/dc/dcmitype/StillImage"/>
    <dc:title/>
   </cc:Work>
  </rdf:RDF>
 </metadata>
 <defs>
  <linearGradient id="linearGradient1370">
   <stop stop-opacity=".50196" offset="0"/>
   <stop stop-opacity="0" offset="1"/>
  </linearGradient>
  <linearGradient id="innoGrad2">
   <stop stop-color="#ff8080" offset="0"/>
   <stop stop-color="#faa" offset="1"/>
  </linearGradient>
  <linearGradient id="linearGradient1280" x1="201.32" x2="213.24" y1="210.54" y2="189.88" gradientTransform="matrix(1.1583 .35002 -.35002 1.1583 30.653 -81.064)" gradientUnits="userSpaceOnUse">
   <stop stop-color="#ff8080" offset="0"/>
   <stop stop-color="#f55" offset=".52127"/>
   <stop stop-color="#ff8080" offset="1"/>
  </linearGradient>
  <linearGradient id="linearGradient1290" x1="189.25" x2="196.88" y1="224.68" y2="205.14" gradientTransform="matrix(1.1583 .35002 -.35002 1.1583 30.653 -81.064)" gradientUnits="userSpaceOnUse" xlink:href="#innoGrad2"/>
  <linearGradient id="linearGradient1298" x1="233.26" x2="239.62" y1="241.53" y2="205.61" gradientTransform="matrix(1.1583 .35002 -.35002 1.1583 30.653 -81.064)" gradientUnits="userSpaceOnUse" xlink:href="#innoGrad2"/>
  <linearGradient id="linearGradient1306" x1="177.33" x2="180.99" y1="203.55" y2="155.88" gradientTransform="matrix(1.1583 .35002 -.35002 1.1583 30.653 -81.064)" gradientUnits="userSpaceOnUse" xlink:href="#innoGrad2"/>
  <linearGradient id="linearGradient1314" x1="87.553" x2="90.254" y1="207.52" y2="156.36" gradientTransform="matrix(1.1583 .35002 -.35002 1.1583 30.653 -81.064)" gradientUnits="userSpaceOnUse" xlink:href="#innoGrad2"/>
  <linearGradient id="linearGradient1322" x1="68.326" x2="70.551" y1="202.75" y2="157.63" gradientTransform="matrix(1.1583 .35002 -.35002 1.1583 30.653 -81.064)" gradientUnits="userSpaceOnUse" xlink:href="#innoGrad2"/>
  <linearGradient id="linearGradient1330" x1="77.542" x2="67.214" y1="212.92" y2="164.78" gradientTransform="matrix(1.1583 .35002 -.35002 1.1583 30.653 -81.064)" gradientUnits="userSpaceOnUse">
   <stop stop-color="#ff2a2a" offset="0"/>
   <stop stop-color="#ff8080" offset="1"/>
  </linearGradient>
  <linearGradient id="linearGradient1338" x1="121.23" x2="121.68" y1="176.86" y2="132.25" gradientTransform="matrix(1.1583 .35002 -.35002 1.1583 30.653 -81.064)" gradientUnits="userSpaceOnUse">
   <stop stop-color="#f55" offset="0"/>
   <stop stop-color="#ff8080" offset="1"/>
  </linearGradient>
  <linearGradient id="linearGradient1346" x1="117.3" x2="118.54" y1="91.463" y2="74.497" gradientTransform="matrix(1.1583 .35002 -.35002 1.1583 30.653 -81.064)" gradientUnits="userSpaceOnUse" xlink:href="#innoGrad2"/>
  <linearGradient id="linearGradient1354" x1="142.25" x2="143.26" y1="94.609" y2="82.025" gradientTransform="matrix(1.1583 .35002 -.35002 1.1583 30.653 -81.064)" gradientUnits="userSpaceOnUse" xlink:href="#innoGrad2"/>
  <linearGradient id="linearGradient1372" x1="157.85" x2="168.55" y1="77.069" y2="77.228" gradientTransform="matrix(1.1583 .35002 -.35002 1.1583 30.653 -81.064)" gradientUnits="userSpaceOnUse" xlink:href="#linearGradient1370"/>
  <linearGradient id="linearGradient1380" x1="228.65" x2="275.37" y1="217.21" y2="151.91" gradientTransform="matrix(1.1583 .35002 -.35002 1.1583 30.653 -81.064)" gradientUnits="userSpaceOnUse">
   <stop stop-color="#ff2a2a" offset="0"/>
   <stop stop-color="#f55" offset=".52039"/>
   <stop stop-color="#ff2a2a" offset="1"/>
  </linearGradient>
  <linearGradient id="linearGradient1392" x1="202.47" x2="214.6" y1="131.69" y2="136.8" gradientTransform="matrix(1.1583 .35002 -.35002 1.1583 30.653 -81.064)" gradientUnits="userSpaceOnUse" xlink:href="#linearGradient1370"/>
 </defs>
 <g stroke="#000">
  <g stroke-width="1.21px">
   <path d="m56.716 188c-7.8002 4.335 50.256-41.615 49.977-31.908-11.497 9.9747-27.637 28.159-49.977 31.908z" fill="#ff2a2a"/>
   <path d="m164.18 198.04-10.293 2.5707c-3.3818 0.84468-6.1067 6.9284-3.5881 9.9937l47.349 57.626c6.2026 7.5489 11.375 0.0312 21.322 4.1708z" fill="url(#linearGradient1290)"/>
   <path d="m280.04 185.71 6.7584 36.79-3.6444 17.377c-14.963 28.459-38.338 24.248-55.35-4.2731 4.6816-49.136 45.46-84.835 52.236-49.894z" fill="url(#linearGradient1380)"/>
   <path d="m289.06 224.99c-0.20221 20.266-17.512 34.206-32.121 38.498 19.455-13.242 27.928-26.865 29.381-40.732z" fill="#ff8080"/>
   <path d="m113.39 153.63s20.407-8.423 29.93-38.558c11.55-36.552 1.0594-50.697 1.0594-50.697l19.565 5.7114s7.6494 17.457-4.6888 51.408c-11.961 32.914-28.218 38.874-28.218 38.874z" fill="#f55"/>
  </g>
  <path d="m125.75 160.79-2.7611 3.1503-20.454-3.6409c-2.7345-0.10611-0.79902-3.5293 1.1828-3.5767z" fill="#ffb380" stroke-width="1.0618px"/>
  <path d="m81.183 192.55-7.4805 1.7205-8.2823-7.826c-1.9509-1.6613-0.48945-3.7358 1.3427-3.3038z" fill="#f95" stroke-width="1.1786px"/>
 </g>
 <g fill="#ffb380" stroke="#000" stroke-width="1.0618px">
  <path d="m87.32 195.29-4.2687 0.31709-3.589-18.432c-0.93516-2.3797 3.3144-1.7951 4.1198-0.10909z"/>
  <path d="m106.6 180.68-3.3421 2.5255-19.292-7.7096c-2.6563-0.65794-0.06741-3.618 1.883-3.2628z"/>
  <path d="m109.83 179.01-4.1159 1.1754-7.249-17.323c-1.3979-2.1408 2.882-2.4294 4.0123-0.94154z"/>
 </g>
 <g stroke="#000" stroke-width="1.21px">
  <path d="m59.431 191.24c27.852 10.648 58.649-22.464 65.027-36.591l10.224 5.646c-15.134 17.163-50.286 67.973-75.251 30.945z" fill="#f55"/>
  <path d="m118.1 54.441c5.4602 6.0054 5.7552 11.16 7.898 16.163l-5.6926 0.97824-6.3484-16.121z" fill="#ff2a2a"/>
  <path d="m149.69 67.681c-20.176 13.549-54.29 73.719-26.648 91.649l-7.0877 1.8349c-29.621-3.0574-33.924-66.965 22.988-99.572z" fill="url(#linearGradient1338)"/>
  <path d="m149.27 67.459 5.0977 1.7413c-16.902 4.8346-56.837 76.244-28.053 85.522 25.289 8.1518 42.505-74.961 35.544-83.058l5.4658 1.8526c3.9931 15.352-12.577 96.943-43.119 86.192-35.831-12.613 7.6195-86.926 25.065-92.25z" fill="#faa"/>
  <path d="m151.95 135.83c9.5732 3.9079 46.906 38.695 59.907 51.934 2.2147 1.2098 3.7999-0.63426 2.1962-3.097-12.275-12.362-48.577-46.256-60.553-51.661-0.9607 0.48946-2.0242 0.0584-1.55 2.8239z" fill="#f95"/>
 </g>
 <path d="m153.77 134.48c1.3576 0.8417 3.3713 2.1075 6.2655 4.1209 2.8715 1.9975 5.8072 4.1743 8.5578 6.2969 1.5507 1.1967 2.8886 2.2577 3.808 3.0008 2.9474 2.3821 7.1896 5.9112 12.429 10.499 5.184 4.5394 10.216 9.1277 14.555 13.224 5.4361 5.1323 8.3881 8.1664 9.7765 9.6279-1.3599-1.4315-4.4097-4.4856-9.8637-9.5347-4.3815-4.0562-9.4441-8.5898-14.664-13.091-5.3175-4.5848-9.4845-8.0052-12.476-10.423-0.92326-0.74617-2.2373-1.814-3.7718-3.0378-2.722-2.1708-5.5892-4.394-8.4244-6.457-2.8076-2.0428-4.8759-3.4107-6.1908-4.2259z" fill="#fca"/>
 <path d="m162.07 105.11c11.513 4.6996 49.669 39.639 63.638 55.158 3.0113 0.39662 4.4602 0.43102 3.5362-1.73-13.573-15.034-50.601-49.47-65.624-56.252-0.9607 0.48946-2.0242 0.0584-1.55 2.8239z" fill="#f95" stroke="#000" stroke-width="1.21px"/>
 <path d="m162.19 103.34c1.4993 0.6727 3.7014 1.6774 6.8492 3.4749 3.1062 1.7738 6.195 3.7894 8.9364 5.7265 1.2347 0.87242 2.2911 1.6535 3.0484 2.2343 3.1912 2.4476 7.8481 6.2471 13.376 11.306 5.1396 4.7037 9.9802 9.5358 13.932 13.857 2.0798 2.2738 3.7481 4.225 5.048 5.8454 1.7402 2.1693 2.6938 3.5866 3.2474 4.4839-0.55129-0.89342-1.543-2.2968-3.3263-4.4192-1.333-1.5865-3.0463-3.5002-5.1687-5.7238-4.0394-4.2319-8.9577-8.9554-14.164-13.564-5.6444-4.9962-10.237-8.6346-13.463-11.109-0.75349-0.5779-1.7864-1.3806-2.9846-2.2892-2.6773-2.0304-5.6161-4.1601-8.639-6.0869-2.9893-1.9054-5.252-3.0901-6.6915-3.736z" fill="#fca"/>
 <g stroke="#000">
  <g stroke-width="1.21px">
   <path d="m148.08 68.474c-1.1477 1.3727-2.7405 3.1895-0.34695 3.9487 37.318 11.836 52.229 24.91 72.23 40.64l7.3479-1.7562c-10.888-11.372-26.28-21.97-40.068-32.844-35.673-13.561-33.741-11.493-39.163-9.9884z" fill="#ff8080"/>
   <path d="m180.3 79.687c2.2479-0.62849 4.4016-1.0228 9.634 0.85494 1.8554-0.57932 3.4454-3.1063 2.9655-5.9239 3.5366-0.84142 5.9174-7.8302 5.1411-10.699-0.22128-5.5633 1.0083-12.914-2.7709-14.094l-22.03 11.42c-0.76127 7.4284 0.0241 14.989 7.0602 18.441z" fill="#ff8080"/>
   <path d="m106.67 53.259c5.5314 8.0627 8.5194 15.357 10.958 22.485l5.8771-2.0587c-1.7199-7.7013-4.9516-14.718-10.18-20.83z" fill="#f55"/>
   <path d="m55.145 185.68c12.163 0.15702 30.109-13.71 49.284-30.555l-5.8421-8.8667c-12.635 16.125-27.274 30.359-46.809 36.852z" fill="#f55"/>
   <path d="m131.7 61.109c-37.841 17.264-59.897 96.953-15.15 99.952-24.252-3.005-31.549-58.527 21.397-98.065z" fill="#faa"/>
   <path d="m123.6 34.802c1.9881-2.882 4.7363-5.3277 9.7991-3.2879l50.771 20.455 6.2067-4.0895c1.2273-0.74978 7.67 2.2099 6.023 3.0983l-5.8041 4.6372c-4.9641-0.72641-11.044 6.0003-12.328 11.187-1.1262 4.5491-1.5869 9.7225 2.0444 12.974l-49.369-18.043z" fill="url(#linearGradient1354)"/>
  </g>
  <path d="m63.453 196.48-3.729 2.1341 1.1993-11.737c-0.04628-2.2634 2.7636-1.7088 2.67-0.54987z" fill="#f95" stroke-width="1.1786px"/>
  <path d="m52.156 188.75 3.1804 2.7688c-35.059-0.34142-47.395-45.496-34.663-85.584 11.123-35.024 41.328-64.035 60.509-65.08l8.5589 1.6813c-26.829 14.027-49.916 30.243-60.179 63.42-11.485 37.128-1.502 76.305 22.594 82.793z" fill="url(#linearGradient1330)" stroke-width="1.21px"/>
  <path d="m85.125 41.353 5.5068 13.736 4.8238-2.8031-6.0573-11.914z" fill="#ffb380" stroke-width="1.21px"/>
  <g fill="#f95" stroke-width="1.1786px">
   <path d="m52.999 171.45 0.37804 7.6665-9.1606 6.7768c-1.9785 1.6283-3.7637-0.1752-3.0162-1.9028z"/>
   <path d="m44.417 145.44 1.525 4.3514-16.38 13.438c-1.7993 2.0617-4.1147-1.8346-2.938-3.4159z"/>
   <path d="m56.297 188.4 1.445 4.0462-11.343-3.2448c-2.2362-0.35251-1.1961-3.0211-0.07171-2.7251z"/>
  </g>
  <g fill="#ffb380" stroke-width="1.21px">
   <path d="m46.826 119.21-0.42737 4.8452-20.729 8.6674c-2.5234 1.5429-3.0149-3.0793-1.2666-4.3232z"/>
   <path d="m55.892 93.884-1.8262 4.5082-22.357 2.2237c-2.8644 0.73711-1.9821-3.8266 0.0536-4.5047z"/>
   <path d="m73.088 72.173-2.7335 4.0232-22.325-2.5283c-2.9554 0.11818-1.133-4.1579 0.99983-4.3926z"/>
   <path d="m90.044 55.622-3.3407 3.5353-19.003-4.3224c-2.9363-0.35511-0.45469-4.2854 1.6882-4.1767z"/>
   <path d="m78.191 73.08-4.8464 0.41371-11.302-15.877c-1.9545-2.2199 2.5138-3.5003 4.0404-1.9925z"/>
   <path d="m60.944 91.176-3.6799 2.9161-14.376-16.775c-2.2838-1.8794 1.9228-3.8567 3.6705-2.6119z"/>
   <path d="m48.616 114.91-2.9843 3.6248-17.582-13.376c-2.628-1.357 1.0687-4.1749 3.039-3.3255z"/>
   <path d="m46.02 141.45-1.7932 4.3393-20.726-7.6466c-2.9101-0.52877-0.19952-4.3049 1.9332-4.0691z"/>
  </g>
  <path d="m51.647 167.98 0.0158 4.2965-22.014-3.7051c-2.9963 0.3625-1.9093-3.702 0.22601-4.1002z" fill="#f95" stroke-width="1.1786px"/>
  <g stroke-width="1.21px">
   <path d="m83.926 41.559-6.6043-5.4044c-41.099 20.261-56.121 48.768-63.117 73.797-11.95 42.752 8.2749 86.176 37.987 80.801-35.654 1.4194-58.496-107 31.735-149.19z" fill="url(#linearGradient1322)"/>
   <path d="m76.528 37.645c0.51428-4.1278 3.1003-6.5363 7.7845-6.4852 0 0 20.943-1.9539 31.03 0.33854 9.5638 2.1736 52.167 20.786 52.167 20.786-2.5285-1.7674-6.4461 0.45402-7.0211 2.2971l-3.2066 10.279-43.187-17.269-34.536-6.0177c-0.05739-2.3179-1.4153-3.2595-3.0307-3.9286z" fill="url(#linearGradient1346)"/>
   <path d="m125.67 156.29c3.9502 0.63432 8.6032 0.65638 13.198-3.255 2.2098-0.37074 2.5875-0.3092 4.3733 1.0375l56.406 49.341c-0.98586 0.61911 34.29 34.507 39.267 46.197 0.63222 1.485-22.74 13.578-29.085 14.312-7.8248-4.6885-28.514-29.814-35.803-39.703-5.9376-9.644-2.8005-17.248-6.3979-23.011-11.758-15.238-19.226-28.49-41.958-44.919z" fill="url(#linearGradient1280)"/>
   <path d="m102.54 45.763c4.0312-1.6283 13.953-0.19323 13.04 2.4246 0.31727 0.25054 17.941 7.1273 17.941 7.1273l0.10794 6.9443c-8.7068-2.5339-19.459-4.9981-25.586-7.4479-22.039 9.3065-41.818 38.224-50.551 68.239-10.023 34.446-2.2021 73.636 23.744 78.752 8.9097 1.7568 25.406-6.1046 50.903-38.26l0.31483 0.21624c-11.691 16.766-29.876 41.424-52.271 43.407-27.246 2.4127-49.027-40.356-34.763-88.621 7.49-25.344 23.818-52.754 57.121-72.78z" fill="url(#linearGradient1314)"/>
  </g>
  <path d="m164.87 83.546c16.59 5.2115 52.205 35.042 62.789 49.563l2.7584-3.3839c-12.566-14.574-42.98-41.583-64.237-49.122-0.91671 0.5676-2.0123 0.22644-1.31 2.9429z" fill="#f95" stroke-width="1.21px"/>
  <g fill="none">
   <path d="m166.19 51.766 16.786 7.0108" stroke-width="1.21px"/>
   <g stroke-width=".605">
    <path d="m145.5 36.591c-2.2664 0.35664-3.8011 2.4967-4.2667 4.2496"/>
    <path d="m159.95 42.441c-2.2664 0.35664-3.8011 2.4967-4.2667 4.2496"/>
    <path d="m171.92 47.479c-2.2664 0.35664-3.8011 2.4967-4.2667 4.2496"/>
   </g>
   <path d="m158.18 65.884 3.351-11.089c1.3162-2.1692 3.3537-2.6245 5.3272-2.5077" stroke-width="1.21px"/>
  </g>
  <path d="m181.85 74.292c-4.4003-3.1745 1.3498-15.405 5.3994-15.541l1.9047 0.676 6.4472-5.3829c0.4433 2.1297 0.89729 4.2494 0.56585 7.1005-0.78225 3.4463-0.68215 6.244-4.3791 11.833l-4.5092-1.3626c-2.465 3.0612-4.1475 3.5334-5.4288 2.6778z" fill="#ff2a2a" stroke-width="1.21px"/>
 </g>
 <path d="m181.85 74.292c-4.4003-3.1745 1.3498-15.405 5.3994-15.541l1.9047 0.676 6.4472-5.3829c0.4433 2.1297 0.89729 4.2494 0.56585 7.1005-0.78225 3.4463-0.68215 6.244-4.3791 11.833l-4.5092-1.3626c-2.465 3.0612-4.1475 3.5334-5.4288 2.6778z" fill="url(#linearGradient1372)"/>
 <g stroke="#000">
  <path d="m189.25 59.759 4.3974-2.5878c1.532 0.40419 1.407 1.3859 0.62093 2.5979l-4.4186 3.9874c-1.1209 2.3867-2.3651 4.7361-3.3322 7.1692-1.8822 4.7357-7.8222 4.3722-4.6981-4.7754 1.7028-4.9859 4.1981-7.9399 7.4306-6.3913z" fill="#fd5" stroke-width=".605"/>
  <ellipse transform="rotate(19.544)" cx="196.66" cy="1.1201" rx="2.2591" ry="6.6813" fill="#ffd42a" stroke-linecap="round" stroke-linejoin="round" stroke-width=".605"/>
  <path d="m125.49 159.55c16.268 6.2781 28.024 27.037 38.797 40.932l3.0663-5.3998c-12.566-14.574-20.161-31.58-41.418-39.12-0.68584 0.82203-2.8712 1.208-0.44445 3.5869z" fill="#ff8080" stroke-width="1.21px"/>
 </g>
 <path d="m168.49 82.998c1.5319 0.59476 3.7827 1.485 7.0187 3.1184 3.1932 1.6118 6.3816 3.4661 9.2189 5.2597 1.2779 0.80782 2.3731 1.5336 3.1592 2.0747 3.3128 2.2803 8.1587 5.8355 13.939 10.604 5.3745 4.4334 10.457 9.0103 14.626 13.123 2.1939 2.1639 3.9603 4.0268 5.3418 5.5783 1.8494 2.077 2.8745 3.4435 3.4736 4.3111-0.59648-0.86391-1.659-2.2144-3.549-4.2424-1.4128-1.5159-3.2222-3.339-5.456-5.4506-4.2515-4.0188-9.4061-8.4833-14.843-12.818-5.8936-4.6995-10.667-8.0971-14.016-10.402-0.7822-0.53842-1.855-1.2869-3.0983-2.1328-2.7781-1.8901-5.8224-3.866-8.9404-5.6349-3.0832-1.7492-5.4038-2.8162-6.8747-3.3872z" fill="#fca"/>
 <g fill="#ffb380" stroke="#000" stroke-width="1.21px">
  <path d="m113.91 131.62c16.268 6.2781 50.579 36.055 61.352 49.95l3.0663-5.3998c-12.566-14.574-41.939-41.996-63.196-49.535-1.4897 0.65971-3.6231 2.7211-1.222 4.9852z"/>
  <path d="m122 105.8c16.268 6.2781 52.173 36.891 62.946 50.786l3.0663-5.3998c-12.566-14.574-43.124-42.07-64.381-49.609-0.91671 0.5676-2.6855 1.9676-1.6307 4.2226z"/>
  <path d="m136.79 82.217c16.268 6.2781 51.802 36.708 62.575 50.603l3.0663-5.3998c-12.566-14.574-42.252-41.664-63.51-49.204-0.91672 0.5676-2.8339 1.2837-2.1316 4.0002z"/>
 </g>
 <path d="m160.94 206.96c7.6386-41.599 48.158-109.03 63.644-100.28l19.759 19.026c12.497 24.565-26.172 76.883-34.965 88.455-5.8359 1.6788-10.188-6.1749-11.506-11.109 13.602-20.838 33.181-55.216 29.045-65.539-29.569 22.742-46.226 76.779-41.548 83.654-3.3119 1.6986-5.8495 4.2505-11.021 3.9004-6.1994-5.9882-10.446-12.032-13.407-18.111z" fill="url(#linearGradient1306)" stroke="#000" stroke-width="1.21px"/>
 <path d="m227 137.45s0.37647 0.4736 0.37647 0.4736c0.73076-0.5809 1.5384-1.146 2.3195-1.4831 0.58896-0.25417 1.1014-0.35211 1.542-0.29517 0.38727 0.05 0.74888 0.22326 1.085 0.56432 0.32513 0.32988 0.60755 0.7986 0.84382 1.3941 0.48592 1.2246 0.71375 2.824 0.81962 4.3178 0.13188 1.8604 0.0834 3.7329 0.0493 4.4359 0.0263-0.54104 0.18875-2.7297 0.18947-4.4443 6.2e-4 -1.4906-0.097-3.1592-0.48553-4.504-0.18991-0.65728-0.45193-1.2482-0.8164-1.7171-0.38809-0.49933-0.88444-0.84884-1.4953-0.99897-0.67931-0.16696-1.4127-0.0661-2.1447 0.20056-0.95623 0.34835-1.8938 0.97388-2.6598 1.5828 0 0 0.37647 0.4736 0.37647 0.4736z"/>
 <path d="m198.43 253.04c11.779-54.779 57.09-99.618 71.696-93.022 11.636 6.3394 11.753 30.709 11.042 31.255-1.379-3.1912-2.2603-8.029-4.4394-8.5723-29.459 14.672-49.241 58.504-51.492 74.021 14.519 8.2309 37.954-45.78 56.935-51.487 7.615 6.9949 6.767 17.722 6.8807 21.763-0.92655-2.1861-5.1221-2.6268-8.183 3.1511-6.6522 12.557-13.334 22.581-22.718 33.306-10.682 12.208-26.554 14.788-39.413 10.786-13.272-4.1298-19.935-16.633-20.307-21.201z" fill="url(#linearGradient1298)" stroke="#000" stroke-width="1.21px"/>
 <path d="m226.93 137.96c3.0361 10.072-8.0278 26.686-13.694 39.677 9.0287-10.477 18.007-20.953 20.878-31.256 0.52349-11.933-2.5882-12.857-7.1843-8.4201z" fill="url(#linearGradient1392)"/>
 <g fill="#ffd5d5">
  <path d="m108.21 32.574c0.0868-0.09186 0.20496-0.17949 0.36753-0.25493 0.14141-0.06562 0.31589-0.12178 0.53149-0.16354 0.377-0.07302 0.87396-0.10089 1.5269-0.06201 1.1187 0.06661 2.6438 0.32601 4.6764 0.83566 3.6008 0.90284 8.3735 2.4851 14.025 4.5836 6.2518 2.3214 13.026 5.0705 18.654 7.4089 5.3712 2.2316 10.354 4.3631 12.727 5.3929 0.20281 0.08801 0.59887 0.84198 0.80168 0.92999-0.2028-0.08799-1.024 0.13772-1.2268 0.04972-3.9251-1.7033-8.7311-3.8356-12.656-5.5389-5.6001-2.4326-12.286-5.2856-18.495-7.7321-5.5961-2.2049-10.327-3.8916-13.885-4.8848-2.0099-0.56096-3.5194-0.86534-4.6268-0.96823-0.64663-0.06008-1.1406-0.05002-1.5168 0.0097-0.21521 0.03415-0.39035 0.0843-0.53279 0.14583-0.16388 0.07079-0.2836 0.15626-0.37052 0.24828z"/>
  <path d="m166.13 53.549c0.11266 0.04182 0.26763 0.66332 0.38214 0.70709 1.1839 0.45259 3.7494 1.3818 6.3972 2.4085 2.2233 0.86205 6.2651 2.4449 6.6476 2.6048-1.2776-0.53409-3.4149-1.6288-6.4231-3.1151-2.7428-1.3552-4.9002-2.3682-6.2454-2.8825-0.11629-0.04446-0.64577 0.31905-0.75843 0.27723z"/>
  <path d="m171.69 48.565c0.11266 0.04182 0.27298 0.6668 0.39241 0.71329-0.19192-0.07471 3.6947 1.4477 4.9355 1.9123 2.0029 0.74995 4.5473 1.6443 7.2738 2.3332 0.0425 0.01073 0.0849 0.0214 0.12742 0.03201l0.0904-0.06362c2.2874-1.6078 4.8924-3.201 7.1222-4.2916-1.7975 0.87917-5.16 2.5968-7.2978 3.7631-2.6282-0.78981-5.059-1.7665-6.992-2.5857-2.298-0.97398-3.9155-1.7073-4.8773-2.0817-0.12198-0.04749-0.66204 0.31056-0.7747 0.26874z"/>
  <path d="m142.84 37.083c-0.0556-0.02177 2e-3 -0.65451-0.0541-0.67692 0.64042 0.25668-5.8373-2.3033-6.9993-2.7346-1.3296-0.49345-2.5182-0.8946-3.57-1.1775-1.422-0.38249-2.2322-0.45044-2.7775-0.4592 0.529 0.0085 1.3619 0.18024 2.7006 0.69535 1.0008 0.38508 2.1386 0.90416 3.4007 1.5175 3.3548 1.6303 5.051 2.5918 6.792 3.2896 0.0576 0.02307 0.45191-0.47607 0.50747-0.4543z"/>
 </g>
 <path d="m144.56 37.738 12.871 5.1245" fill="none" stroke="#ffd5d5" stroke-width="1px"/>
 <path d="m159.34 43.538 10.289 4.0916" fill="none" stroke="#ffd5d5" stroke-width="1px"/>
 <g fill="#ffd5d5">
  <path d="m221.66 108.53c1.1604 0.68172 3.9099 3.8762 4.9904 4.7214 2.6062 2.0386 3.4312 2.4942 7.5072 5.8882 2.8457 2.3695 5.8847 5.0715 7.0468 6.2337-1.2839-1.2839-3.7088-4.1416-6.3122-7.0012-2.7847-3.0588-5.2035-5.4417-6.9327-6.7943-1.1155-0.87263-5.1392-2.366-6.2996-3.0477z"/>
  <path d="m265.6 161.44c1.4055 0.82574 3.0015 2.8198 4.0985 3.9125 0.0966 0.0963 0.18412 0.17716 0.26202 0.23909 0.78358 0.62293 2.0663 1.5563 3.3268 2.9424 1.0923 1.2011 2.0993 2.657 3.0304 4.5644 1.1687 2.3942 2.0188 5.1318 2.4708 7.0915-0.46144-2.0004-1.0114-4.7143-1.8716-7.3342-0.67467-2.0549-1.4459-3.7589-2.4031-5.254-1.1179-1.7461-2.3628-2.9832-3.231-3.6734-0.0852-0.0677-0.19308-0.1404-0.31997-0.2164-1.2126-0.7263-4.3124-1.6548-5.3629-2.2719z"/>
  <path d="m280.33 207.64c0.55991 0.43339 1.2725 2.4032 1.642 2.7676 0.27861 0.27477 0.62174 0.60323 0.97371 0.97348 0.70418 0.74076 1.3785 1.5756 1.9587 2.751 0.53232 1.0783 0.93572 2.337 1.3066 3.88 0.43643 1.8159 0.88973 4.3538 1.0997 5.7944-0.26695-1.8311-0.38624-3.6147-0.58686-5.8781-0.13923-1.5708-0.29387-2.9662-0.62191-4.2342-0.37056-1.4324-0.93088-2.5621-1.6526-3.5531-0.35244-0.48392-0.71558-0.89343-1.0287-1.2023-0.41619-0.41046-2.5308-0.86542-3.0907-1.2988z"/>
  <path d="m195.92 254.71c-2.0741-2.6279-4.9981-6.4586-7.0722-9.0865-2.8096-3.5642-5.9807-7.5164-7.4233-9.232-2.4772-2.9458-8.6332-10.048-13.668-16.387-5.7607-7.2521-9.5755-12.834-12.037-16.937 2.5776 4.2961 5.9453 9.627 11.635 17.247 4.9737 6.6611 10.687 13.631 13.293 16.731 1.6724 1.9888 4.5798 5.2327 7.8107 8.9032 3.2692 3.714 5.9099 6.7941 7.4626 8.7613z"/>
  <path d="m102.25 48.767c-1.5835 0.97168-6.7248 3.5288-8.2694 4.6875-3.8914 2.9194-9.1996 7.3559-15.117 13.624-5.9488 6.3012-11.913 13.822-17.306 22.362-6.3476 10.052-10.998 20.079-13.992 29.31-2.9812 9.1907-3.9004 16.263-4.1907 21.026 0.28988-4.7572 1.325-11.833 4.4566-20.937 3.1471-9.1492 7.9731-19.05 14.462-28.924 5.5171-8.3946 11.563-15.745 17.55-21.897 5.9584-6.1226 11.238-10.427 15.079-13.308 1.5225-1.1422 5.7442-4.9711 7.3276-5.9428z"/>
  <path d="m73.707 39.891c-1.2912 0.79233-5.3183 2.7655-6.5467 3.5561-3.7569 2.4178-9.3987 6.192-14.989 10.67-5.771 4.6234-11.549 10.022-16.797 16.637-6.0338 7.6044-10.724 15.999-14.467 25.521-3.6927 9.3942-5.9638 18.657-7.424 25.637 1.4592-6.9747 3.7976-16.235 7.5752-25.576 3.8313-9.4745 8.6157-17.779 14.714-25.261 5.3027-6.5062 11.115-11.795 16.899-16.327 5.5937-4.3829 11.261-8.1124 14.995-10.515 1.2244-0.78798 4.7498-3.5496 6.041-4.3419z"/>
  <path d="m132.36 63.823c-0.28276 0.20756-1.5895 0.27186-1.885 0.4974-2.8155 2.1492-9.0122 7.336-14.823 14.164-2.7024 3.1754-5.014 6.3495-6.8369 9.4441-2.4486 4.1567-3.5302 7.3417-4.0953 9.6024 0.56193-2.2477 1.7755-5.4224 4.3587-9.4402 1.9284-2.9994 4.3541-6.0569 7.1548-9.0911 6.0577-6.5627 12.325-11.374 15.13-13.515 0.29118-0.22227 0.71426-1.4531 0.99702-1.6607z"/>
  <path d="m143.71 68.318c-0.13952 0.12681-0.83156 0.23222-0.97716 0.36742-2.2343 2.0745-8.4776 8.1506-14.888 17.499-3.4527 5.035-6.563 10.439-9.2313 16.179-2.6633 5.7292-4.404 10.757-5.5774 14.606 1.1696-3.8373 2.9671-8.8746 5.6925-14.552 2.7348-5.6971 5.9252-11.046 9.4478-16.002 6.5394-9.1994 12.882-15.109 15.088-17.158 0.14438-0.13406 0.30619-0.81298 0.44571-0.9398z"/>
  <path d="m188.31 81.801c1.9007 1.3296 6.8534 5.4888 8.4773 6.7018 2.702 2.0183 5.5741 4.0702 9.9888 7.5225 3.9575 3.0947 7.6087 6.1388 9.7357 8.0226-1.986-1.7589-5.7142-5.1792-9.4339-8.3899-3.8872-3.3552-7.3946-6.1787-9.7217-7.9169-1.6292-1.2169-7.1456-4.6105-9.0462-5.9401z"/>
 </g>
 <g fill="#ffe6d5">
  <path d="m139.81 80.137c1.4068 0.60328 3.6822 1.757 6.7258 3.592 3.0947 1.8658 6.0314 3.8527 8.6057 5.6309 0.7858 0.5428 1.4676 1.017 2.0084 1.3871 3.5502 2.4296 8.7157 6.0654 15.148 11.113 5.5295 4.3386 10.776 8.7704 15.085 12.726 2.2842 2.097 4.1321 3.9017 5.577 5.4053 1.9322 2.0106 3.0158 3.3485 3.6267 4.214-0.61389-0.8697-1.6572-2.2248-3.5464-4.2893-1.4117-1.5426-3.2136-3.391-5.4549-5.5455-4.2225-4.0589-9.3888-8.6115-14.849-13.059-6.2895-5.1228-11.552-8.9552-15.05-11.349-0.54161-0.37065-1.2408-0.83388-2.0468-1.3511-2.6039-1.6708-5.7538-3.5454-8.9198-5.2094-3.2538-1.7102-5.4059-2.6199-6.9101-3.2649z"/>
  <path d="m125.9 103.81c1.4068 0.60328 3.6822 1.757 6.7258 3.592 3.0947 1.8658 6.0314 3.8527 8.6057 5.6309 0.7858 0.5428 1.4676 1.017 2.0084 1.3871 3.5502 2.4296 8.7157 6.0654 15.148 11.113 5.5295 4.3386 10.776 8.7704 15.085 12.726 2.2842 2.097 4.1321 3.9017 5.577 5.4053 1.9322 2.0106 3.0158 3.3485 3.6267 4.214-0.61389-0.8697-1.6572-2.2248-3.5464-4.2893-1.4117-1.5426-3.2136-3.391-5.4549-5.5455-4.2225-4.0589-9.3888-8.6115-14.849-13.059-6.2895-5.1228-11.552-8.9552-15.05-11.349-0.54161-0.37065-1.2408-0.83388-2.0468-1.3511-2.6039-1.6708-5.7538-3.5454-8.9198-5.2094-3.2538-1.7102-5.4059-2.6199-6.9101-3.265z"/>
  <path d="m115.89 128.44c1.4068 0.60328 3.6822 1.757 6.7258 3.592 3.0947 1.8658 6.0314 3.8527 8.6057 5.6309 0.7858 0.5428 1.4676 1.017 2.0084 1.3871 3.5502 2.4296 8.7157 6.0654 15.148 11.113 5.5295 4.3386 10.776 8.7704 15.085 12.726 2.2842 2.097 4.1321 3.9017 5.577 5.4053 1.9322 2.0106 3.0158 3.3485 3.6267 4.214-0.61389-0.8697-1.6572-2.2248-3.5464-4.2893-1.4117-1.5426-3.2136-3.391-5.4549-5.5455-4.2225-4.0589-9.3888-8.6115-14.849-13.059-6.2895-5.1228-11.552-8.9552-15.05-11.349-0.54161-0.37065-1.2408-0.83388-2.0468-1.3511-2.6039-1.6708-5.7538-3.5454-8.9198-5.2094-3.2538-1.7102-5.4059-2.6199-6.9101-3.265z"/>
 </g>
</svg>
