<svg xmlns="http://www.w3.org/2000/svg" xmlns:xlink="http://www.w3.org/1999/xlink" cursor="default" viewBox="0 0 256 256">
    <defs>
        <linearGradient id="linearGradientANKLE_SPREADER_BAR4406">
            <stop offset="0" stop-color="#ffb380"/>
            <stop offset="1" stop-color="#fca"/>
        </linearGradient>
        <linearGradient id="linearGradientANKLE_SPREADER_BAR4412" x1="131.607" x2="133.304" y1="940.041" y2="937.273" gradientTransform="translate(-9.893 -39.755) scale(1.05101)" gradientUnits="userSpaceOnUse" xlink:href="#linearGradientANKLE_SPREADER_BAR4406"/>
    </defs>
    <g transform="translate(0 -796.362)">
        <path fill="#ff2a2a" fill-rule="evenodd" stroke="#000" stroke-width=".5" d="M11.89 866.033c6.139-3.573 11.36-3.665 11.36-3.665l17.981 7.882c-.549-5.426.8-10.851-1.691-16.276l-9.785-5.165c-2.901-1.726-22.956-3.695-24.37 5.314-1.803 11.495 6.505 11.91 6.505 11.91z"/>
        <path fill="#faa" fill-rule="evenodd" stroke="#000" stroke-width=".5" d="M38.962 860.2l1.266-.262c-.02-2.114-1.462-6.802-4.492-7.582l.264.799c1.837 1.02 3.061 4.94 2.962 7.045z"/>
        <path fill="#f55" fill-rule="evenodd" stroke="#000" stroke-width=".5" d="M17.983 850.229c-.95 4.802 1.706 10.168 2.84 13.788 5.233 2.743 9.423 2.462 14.109 3.619l.824-10.81c-.28-2.204-10.562-8.556-17.773-6.597z"/>
        <path fill="#ff8080" fill-rule="evenodd" stroke="#000" stroke-width=".5" d="M7.348 875.65c9.35 14.33 28.674 5.353 30.379 1.212l-1.097-19.447c.666 2.201-15.488 20.593-32.392.973-.321 5.048 1.535 11.638 3.11 17.263z"/>
        <path fill="#faa" fill-rule="evenodd" stroke="#000" stroke-width=".5" d="M40.717 870.482c-.264-3.934-.018-7.634-.154-11.334-.132-3.602-1.612-6.78-5.957-7.33l-.212-.665c4.744.555 6.737 2.87 6.926 7.778l.437 11.41c-.297.246-.682.503-1.04.14z"/>
        <path fill="#ffb380" fill-rule="evenodd" stroke="#000" stroke-width=".5" d="M36.405 853.563c.559.297 1.04.44 1.197-.067-1.016-1.363-1.63-2.613-3.116-4.109-.942-.304-.972.034-1.04.346 1.202 1.276 2.602 2.551 2.96 3.83z"/>
        <path fill="#ffb380" fill-rule="evenodd" stroke="#000" stroke-width=".5" d="M36.484 854.491l.94.065c-.074-.538 2.092-.924 3.53.065.457 2.623.535 5.582.487 8.206.36-.029.81.296 1.003-.4.252-3.18-.244-6.498-.389-8.551-.247-.59-2.759-.833-5.215-.519-.617.378-.653.756-.356 1.134z"/>
        <path fill="#faa" fill-rule="evenodd" stroke="#000" stroke-width=".5" d="M3.85 857.253c-.028 8.17 8.878 11.13 17.103 10.656 6.123-.353 16.624-3.104 15.936-9.199-.984-8.721-16.894-9.576-16.894-9.576-1.86.025-2.565 1.346-1.569 1.284.732-.042 19.235 2.702 16.26 9.07-2.125 4.55-8.453 6.66-13.474 6.737-7.9.12-16.373-3.382-15.224-9.2 1.833-9.281 16.358-12.181 26.974-5.6 2.513 1.558 4.834 9.293 4.834 9.293l1.36-.777c-1.403-2.894-2.162-6.726-4.21-8.68-8.11-7.74-31.056-5.623-31.096 5.992z"/>
        <path fill="#ff8080" fill-rule="evenodd" stroke="#000" stroke-width=".5" d="M3.572 863.102c-.068 1.144 1.071 6.348 1.905 8.565 11.807 16.205 33.429 5.858 34.86-.481l-.206-7.146c-7.027 10.494-26.809 14.407-36.559-.938z"/>
        <path fill="#faa" fill-rule="evenodd" stroke="#000" stroke-width=".5" d="M37.228 865.991l1.324-.275c.12-.904-.397-1.997-.065-2.71 1.082-.33 2.385-.204 3.027-.111l.518 6.527c.561-2.053.377-6.474-.092-9.71-1.64-.22-3.28-.147-4.92.02-.103 1.468-.2 4.06.208 6.26z"/>
        <path fill="#faa" fill-rule="evenodd" stroke="#000" stroke-width=".5" d="M3.59 863.504c-.224-1.639.175-3.135.357-4.73-.37 5.718 4.957 10.683 10.84 12.86 4.71 1.745 9.68 1.62 14.377-.198 3.904-1.51 9.743-5.05 9.798-8.515l1.247-.032c.954 5.132-22.404 21.49-36.618.615z"/>
        <ellipse cx="22.035" cy="877.277" fill="#ffb380" stroke="#000" stroke-width=".5" rx="2.66" ry="1.891"/>
        <ellipse cx="-285.512" cy="827.946" fill="#ffb380" stroke="#000" stroke-width=".5" rx="2.474" ry="1.855" transform="rotate(-21.145)"/>
        <ellipse cx="-210.358" cy="827.284" fill="#ffb380" stroke="#000" stroke-width=".501" rx=".842" ry="2.388" transform="matrix(.94672 -.32205 .24722 .96896 0 0)"/>
        <path fill="#fff" fill-rule="evenodd" d="M31.059 874.355c.25-.198.573-.31.908-.354a2.821 2.821 0 0 1 1.131.087c.29.015.57.076.802.18.131.06.25.135.347.226.098.09.178.2.229.33a.943.943 0 0 0-.135-.405 1.365 1.365 0 0 0-.313-.353 2.396 2.396 0 0 0-.852-.423 3.12 3.12 0 0 0-1.26.15c-.35.122-.653.31-.857.562zM20.801 876.37c.278-.159.603-.228.932-.232a2.87 2.87 0 0 1 1.095.213c.29.044.571.131.817.255.277.14.515.33.666.57-.08-.278-.268-.541-.531-.768a2.953 2.953 0 0 0-.83-.492 3.14 3.14 0 0 0-1.243.01 1.955 1.955 0 0 0-.906.444zM4.913 867.656c.14.109.252.277.34.465.016.033.031.067.046.102.106.143.204.31.289.486a4.375 4.375 0 0 1 .32.915c.018.087.03.165.036.231a1.29 1.29 0 0 0 .01-.236 2.684 2.684 0 0 0-.028-.297 4.09 4.09 0 0 0-.165-.684 3.403 3.403 0 0 0-.24-.557 2.222 2.222 0 0 0-.084-.09c-.167-.169-.346-.29-.524-.335z"/>
        <path fill="#ff2a2a" fill-rule="evenodd" stroke="#000" stroke-width=".5" d="M243.561 982.769c-6.154-3.545-11.376-3.614-11.376-3.614l-17.945 7.963c.524-5.427-.85-10.847 1.618-16.283l9.76-5.21c2.895-1.738 22.94-3.798 24.394 5.205 1.855 11.487-6.45 11.939-6.45 11.939z"/>
        <path fill="#faa" fill-rule="evenodd" stroke="#000" stroke-width=".5" d="M216.464 977.059l-1.267-.257c.01-2.114 1.431-6.808 4.457-7.602l-.26.8c-1.832 1.028-3.04 4.954-2.93 7.059z"/>
        <path fill="#f55" fill-rule="evenodd" stroke="#000" stroke-width=".5" d="M237.398 966.993c.97 4.798-1.661 10.175-2.778 13.8-5.22 2.767-9.412 2.505-14.093 3.683l-.873-10.807c.27-2.204 10.523-8.603 17.744-6.676z"/>
        <path fill="#ff8080" fill-rule="evenodd" stroke="#000" stroke-width=".5" d="M248.147 992.366c-9.286 14.372-28.65 5.482-30.373 1.348l1.01-19.452c-.657 2.205 15.58 20.524 32.395.828.344 5.046-1.483 11.645-3.032 17.276z"/>
        <path fill="#faa" fill-rule="evenodd" stroke="#000" stroke-width=".5" d="M214.755 987.348c.246-3.935-.016-7.634.103-11.334.115-3.603 1.582-6.787 5.924-7.356l.209-.667c-4.742.576-6.724 2.9-6.89 7.81l-.387 11.41c.298.246.685.5 1.041.137z"/>
        <path fill="#ffb380" fill-rule="evenodd" stroke="#000" stroke-width=".5" d="M218.99 970.41c-.557.3-1.038.445-1.197-.062 1.01-1.367 1.619-2.62 3.097-4.123.94-.308.973.03 1.042.342-1.196 1.281-2.59 2.562-2.942 3.843z"/>
        <path fill="#ffb380" fill-rule="evenodd" stroke="#000" stroke-width=".5" d="M218.916 971.338l-.94.07c.072-.54-2.096-.915-3.53.08-.444 2.626-.51 5.585-.45 8.208-.36-.027-.808.3-1.004-.395-.267-3.178.214-6.498.35-8.553.245-.591 2.755-.845 5.212-.542.62.376.657.753.362 1.133z"/>
        <path fill="#faa" fill-rule="evenodd" stroke="#000" stroke-width=".5" d="M251.562 973.953c.065 8.17-8.828 11.17-17.054 10.733-6.125-.325-16.639-3.029-15.978-9.127.945-8.725 16.85-9.652 16.85-9.652 1.86.016 2.571 1.334 1.575 1.277-.732-.039-19.223 2.789-16.22 9.143 2.147 4.54 8.484 6.623 13.506 6.676 7.9.084 16.357-3.456 15.182-9.268-1.875-9.273-16.413-12.108-27-5.478-2.505 1.57-4.791 9.315-4.791 9.315l-1.364-.772c1.39-2.9 2.132-6.735 4.172-8.7 8.074-7.775 31.03-5.762 31.122 5.853z"/>
        <path fill="#ff8080" fill-rule="evenodd" stroke="#000" stroke-width=".5" d="M251.866 979.8c.073 1.145-1.042 6.353-1.866 8.574-11.734 16.258-33.402 6.01-34.862-.323l.174-7.147c7.075 10.462 26.873 14.286 36.554-1.104z"/>
        <path fill="#faa" fill-rule="evenodd" stroke="#000" stroke-width=".5" d="M218.224 982.842l-1.325-.27c-.124-.903.387-1.998.052-2.71-1.083-.324-2.386-.193-3.027-.097l-.489 6.53c-.57-2.051-.405-6.473.048-9.712 1.64-.226 3.28-.161 4.921 0 .11 1.466.218 4.058-.18 6.259z"/>
        <path fill="#faa" fill-rule="evenodd" stroke="#000" stroke-width=".5" d="M251.85 980.203c.217-1.64-.188-3.135-.378-4.728.396 5.716-4.909 10.704-10.781 12.909-4.704 1.765-9.673 1.663-14.379-.133-3.91-1.494-9.765-5.007-9.836-8.472l-1.247-.026c-.93 5.136 22.5 21.39 36.62.45z"/>
        <ellipse cx="-228.98" cy="995.102" fill="#ffb380" stroke="#000" stroke-width=".5" rx="2.66" ry="1.891" transform="scale(-1 1) rotate(.258)"/>
        <ellipse cx="-562.13" cy="847.286" fill="#ffb380" stroke="#000" stroke-width=".5" rx="2.474" ry="1.855" transform="scale(-1 1) rotate(-20.887)"/>
        <ellipse cx="-483.543" cy="858.085" fill="#ffb380" stroke="#000" stroke-width=".501" rx=".842" ry="2.388" transform="matrix(-.94816 -.31778 -.24285 .97006 0 0)"/>
        <path fill="#fff" fill-rule="evenodd" d="M224.43 991.178c-.205-.25-.508-.438-.86-.558a3.12 3.12 0 0 0-1.26-.145c-.326.095-.622.24-.85.428a1.365 1.365 0 0 0-.311.354.944.944 0 0 0-.133.406.89.89 0 0 1 .227-.332 1.29 1.29 0 0 1 .346-.226c.232-.107.51-.168.801-.185a2.773 2.773 0 0 1 1.13-.092c.336.043.659.154.91.35zM234.697 993.147a1.955 1.955 0 0 0-.908-.44 3.141 3.141 0 0 0-1.243-.005 2.953 2.953 0 0 0-.827.496c-.262.228-.449.492-.527.77.149-.241.387-.432.662-.572.245-.126.527-.214.816-.26a2.919 2.919 0 0 1 1.094-.217c.33.002.655.07.933.228zM250.546 984.36c-.178.046-.357.168-.522.338-.029.029-.057.06-.085.09a3.404 3.404 0 0 0-.237.559 4.09 4.09 0 0 0-.162.684 2.695 2.695 0 0 0-.027.297c-.003.09.001.17.012.236.005-.066.017-.144.035-.23a4.37 4.37 0 0 1 .316-.917c.084-.176.18-.344.287-.487.014-.035.029-.07.044-.102.089-.19.2-.358.339-.467z"/>
        <path fill="#ffb380" stroke="#000" stroke-width=".5" d="M227.923 999.595a3.195 3.726 50.598 0 0-3.355.855 3.195 3.726 50.598 0 0-.851 4.835 3.195 3.726 50.598 0 0 4.908.104 3.195 3.726 50.598 0 0 .85-4.835 3.195 3.726 50.598 0 0-1.552-.96zm-.359.9a2.33 2.716 50.598 0 1 1.132.7 2.33 2.716 50.598 0 1-.622 3.524 2.33 2.716 50.598 0 1-3.577-.076 2.33 2.716 50.598 0 1 .62-3.524 2.33 2.716 50.598 0 1 2.447-.624z"/>
        <path fill="#fca" fill-rule="evenodd" stroke="#000" stroke-width=".5" d="M221.285 1002.364l3.237 1.563c.673-.215.6-.553.39-1.209l-3.027-1.492z"/>
        <path fill="#ffb380" fill-rule="evenodd" stroke="#000" stroke-width=".5" d="M221.446 998.51s-1.775 3.26-2.851 4.899c.575.284.868.505 1.631 1.003.63-.83 2.97-4.96 2.97-4.96z"/>
        <path fill="#fca" fill-rule="evenodd" stroke="#000" stroke-width=".5" d="M229.603 988.952c-.362-.418-.786-.429-1.231-.157-.392 3.971-.76 7.948-1.826 11.767.175.845.536 1.083 1.136.545 1.246-3.903 1.298-8.1 1.921-12.155z"/>
        <path fill="#fff" fill-rule="evenodd" d="M228.94 989.117a8.342 8.342 0 0 0-.274.534 25.9 25.9 0 0 0-.168 1.15c-.08.633-.149 1.312-.216 1.994-.134 1.365-.26 2.75-.442 3.825.237-1.066.42-2.447.61-3.805.095-.679.192-1.351.298-1.976.069-.4.141-.78.22-1.128-.012-.206-.022-.406-.028-.594z"/>
        <path fill="#ffb380" stroke="#000" stroke-width=".5" d="M32.564 886.156a3.726 3.195 51.042 0 0-.83-3.362 3.726 3.195 51.042 0 0-4.827-.889 3.726 3.195 51.042 0 0-.143 4.908 3.726 3.195 51.042 0 0 4.828.887 3.726 3.195 51.042 0 0 .972-1.544zm-.899-.366a2.716 2.33 51.042 0 1-.708 1.126 2.716 2.33 51.042 0 1-3.519-.65 2.716 2.33 51.042 0 1 .104-3.575 2.716 2.33 51.042 0 1 3.519.647 2.716 2.33 51.042 0 1 .604 2.452z"/>
        <path fill="#fca" fill-rule="evenodd" stroke="#000" stroke-width=".5" d="M33.376 887.252l-2.438-1.715c-.698.107-.878.42-.773 1.1l2.44 1.645z"/>
        <path fill="#ffb380" fill-rule="evenodd" stroke="#000" stroke-width=".5" d="M33.61 891.073s1.568-2.099 2.886-3.55c-.67-.469-1.583-1.168-2-1.544-.751.721-3.178 3.574-3.178 3.574z"/>
        <path fill="#fca" fill-rule="evenodd" stroke="#000" stroke-width=".5" d="M25.876 872.152c.36-.419.784-.432 1.23-.161.41 3.969.796 7.943 1.88 11.758-.171.846-.532 1.086-1.134.55-1.263-3.898-1.334-8.093-1.976-12.147z"/>
        <path fill="#fff" fill-rule="evenodd" d="M26.54 872.314a27.1 27.1 0 0 1-.024.595c.08.348.153.727.224 1.127.11.624.21 1.296.307 1.975.197 1.357.385 2.737.627 3.802-.187-1.075-.319-2.46-.46-3.823-.07-.682-.142-1.36-.224-1.992a25.84 25.84 0 0 0-.173-1.15 8.327 8.327 0 0 0-.277-.534z"/>
        <path fill="url(#linearGradientANKLE_SPREADER_BAR4412)" fill-rule="evenodd" stroke="#000" stroke-width=".5" d="M32.615 890.626l3.286-3.708 185.884 111.531-3.239 5.263z"/>
        <path fill="#ffe6d5" fill-rule="evenodd" d="M201.529 988.12a4351.755 4351.755 0 0 1-16.9-10.866c-26.014-15.68-42.356-25.534-58.474-35.165-19.406-11.594-38.488-22.864-73.738-43.587 35.151 20.89 54.133 32.326 73.437 44.086 16.975 10.341 41.246 25.236 58.221 35.578 5.39 3.06 11.18 6.361 17.454 9.953z"/>
    </g>
</svg>
