<svg xmlns="http://www.w3.org/2000/svg" xmlns:xlink="http://www.w3.org/1999/xlink" cursor="default" viewBox="0 0 256 256">
    <defs>
        <linearGradient id="innoGrad3">
            <stop offset="0" stop-color="#f95"/>
            <stop offset=".088" stop-color="#ff7f2a"/>
            <stop offset=".265" stop-color="#f95"/>
            <stop offset=".446" stop-color="#ff7f2a"/>
            <stop offset=".601" stop-color="#ff7f2a"/>
            <stop offset=".733" stop-color="#f95"/>
            <stop offset=".863" stop-color="#ff7f2a"/>
            <stop offset="1" stop-color="#f95"/>
        </linearGradient>
        <linearGradient id="innoGrad4">
            <stop offset="0" stop-color="#ffb380"/>
            <stop offset="1" stop-color="#fca"/>
        </linearGradient>
        <linearGradient id="innoGrad5">
            <stop offset="0" stop-color="#fd5"/>
            <stop offset="1" stop-color="#fea"/>
        </linearGradient>
        <linearGradient id="innoGrad2">
            <stop offset="0" stop-color="#ff2a2a"/>
            <stop offset="1" stop-color="#f55"/>
        </linearGradient>
        <linearGradient id="innoGrad1">
            <stop offset="0" stop-color="#f55"/>
            <stop offset="1" stop-color="#ff8080"/>
        </linearGradient>
        <linearGradient id="linearGradient1232" x1="149.735" x2="147.337" y1="110.117" y2="107.689" gradientUnits="userSpaceOnUse" xlink:href="#innoGrad1"/>
        <linearGradient id="linearGradient1242" x1="86.619" x2="85.723" y1="171.391" y2="170.494" gradientUnits="userSpaceOnUse" xlink:href="#innoGrad2"/>
        <linearGradient id="linearGradient1250" x1="18.12" x2="21.466" y1="241.29" y2="228.726" gradientUnits="userSpaceOnUse" xlink:href="#innoGrad5"/>
        <linearGradient id="linearGradient1284" x1="30" x2="30.714" y1="226.179" y2="225.42" gradientUnits="userSpaceOnUse" xlink:href="#innoGrad4"/>
        <linearGradient id="linearGradient1292" x1="37.634" x2="38.214" y1="219.17" y2="218.589" gradientUnits="userSpaceOnUse" xlink:href="#innoGrad4"/>
        <linearGradient id="linearGradient1306" x1="40.045" x2="40.938" y1="216.759" y2="215.777" gradientUnits="userSpaceOnUse" xlink:href="#innoGrad4"/>
        <linearGradient id="linearGradient1314" x1="42.455" x2="43.348" y1="214.214" y2="213.321" gradientUnits="userSpaceOnUse" xlink:href="#innoGrad4"/>
        <linearGradient id="linearGradient1322" x1="50.58" x2="51.071" y1="206.491" y2="206.045" gradientUnits="userSpaceOnUse" xlink:href="#innoGrad4"/>
        <linearGradient id="linearGradient1330" x1="27.009" x2="54.821" y1="229.571" y2="202.83" gradientUnits="userSpaceOnUse" xlink:href="#innoGrad3"/>
    </defs>
    <path fill="#fea" fill-rule="evenodd" stroke="#000" d="M38.214 183.054c5.867 3.915 12.923 9.29 19.866 16.562 5.948 6.23 11.915 12.353 16.206 19.33-.482 3.364-38.828-35.451-36.072-35.892z"/>
    <path fill="url(#linearGradient1250)" fill-rule="evenodd" stroke="#000" d="M24.286 226.804c-3.634.589-7.62.284-9.822 3.928-5.128 8.49 3.933 16.68 10.715 12.054 4.014-2.739 3.495-6.595 4.553-10.09z"/>
    <path fill="url(#linearGradient1330)" fill-rule="evenodd" stroke="#000" d="M23.304 227.25l27.589-29.196 8.571 8.303-30.268 27.232c-1.543-2.814-3.64-4.707-5.892-6.339z"/>
    <path fill="#ffe680" fill-rule="evenodd" stroke="#000" d="M37.41 184.973c-1.56-1.63.193-2.655 1.34-1.607 12.88 11.766 24.499 23.606 35.357 35.491 1.093 1.197.16 2.739-1.25 1.34-7.623-7.567-12.689-10.696-18.348-16.25-5.983-5.873-10.149-11.712-17.098-18.974z"/>
    <path fill="url(#linearGradient1232)" fill-rule="evenodd" stroke="#000" d="M52.15 194.35c60.27-60.417 122.81-118.467 184.794-177.598 2.606-2.486 8.514-3.954 8.956-3.617.352.27-.349 5.643-3.558 8.92-60.786 62.073-118.036 121.368-179.273 183.44-3.593-3.765-7.472-7.468-10.92-11.146z"/>
    <path fill="url(#linearGradient1242)" fill-rule="evenodd" stroke="#000" d="M55.969 198.074L209.3 46.137c4.548-4.506 6.575-1.555 2.755 2.258L58.968 201.199z"/>
    <path fill="url(#linearGradient1284)" fill-rule="evenodd" stroke="#000" stroke-width=".5" d="M26.737 223.612l6.061 6.503c1.18 1.266 2.707-.324 1.579-1.515l-6.156-6.503c-.866-.915-2.791.112-1.484 1.515z"/>
    <path fill="url(#linearGradient1292)" fill-rule="evenodd" stroke="#000" stroke-width=".5" d="M33.65 216.326l6.85 7.04c1.208 1.24 3.145-.697 1.99-1.863l-6.882-6.944c-.887-.895-3.295.392-1.957 1.767z"/>
    <path fill="url(#linearGradient1306)" fill-rule="evenodd" stroke="#000" stroke-width=".5" d="M35.93 213.663l7.241 7.375c1.276 1.299 3.323-.73 2.102-1.952L38 211.811c-.938-.938-3.483.411-2.07 1.852z"/>
    <path fill="url(#linearGradient1314)" fill-rule="evenodd" stroke="#000" stroke-width=".5" d="M38.408 211.2l7.241 7.375c1.276 1.3 3.323-.73 2.102-1.95l-7.274-7.277c-.938-.937-3.483.412-2.07 1.852z"/>
    <path fill="url(#linearGradient1322)" fill-rule="evenodd" stroke="#000" stroke-width=".5" d="M46.242 203.067l7.576 8.081c1.184 1.262 2.708-.325 1.579-1.515l-7.671-8.081c-.868-.914-2.796.115-1.484 1.515z"/>
    <circle cx="19.398" cy="236.854" r="3.709" fill="#fff6d5" stroke="#000" stroke-linecap="round" stroke-linejoin="round" stroke-width=".5"/>
    <path fill="none" stroke="#000" stroke-width=".5" d="M213.75 44.036l32.054-30.715"/>
    <path fill="#ffd5d5" d="M140.133 110.209c3.78-3.668 9.732-9.354 18.677-17.789a7940.534 7940.534 0 0 1 30.916-28.962c2.97-2.77 22.966-21.37 25.936-24.14 9.654-8.973 15.48-14.385 19.04-17.725-2.476 2.289 2.812-2.6.336-.311 1.575-1.46 3.04-2.843 5.178-4.514a44.272 44.272 0 0 1 2.055-1.52c.727-.503 1.208-.794 1.454-.914-.259.126-.76.329-1.561.733-.613.309-1.37.72-2.251 1.264-2.111 1.302-4.167 2.892-5.574 4.197-.105.097-.218.204-.34.32-7.63 7.222-11.256 10.663-18.886 17.885 16.971-16.06-42.699 40.423-25.728 24.363a8766.196 8766.196 0 0 0-30.681 29.212 3535.055 3535.055 0 0 0-18.57 17.9z"/>
    <path fill="#fff6d5" d="M41.29 187.183c1.354 1.253 4.76 4.936 5.864 6.005 2.804 2.719 2.822 2.704 6.688 6.484 4.085 3.996 2.434 2.387 6.52 6.382 2.158 2.102 4.25 4.114 5.614 5.436a263.146 263.146 0 0 1-5.508-5.542c-2.096-2.163-4.261-4.45-6.31-6.588-2.69-2.807-4.83-4.984-6.544-6.647-1.105-1.07-4.97-4.277-6.324-5.53zM14.375 233.634c.18-.551.682-1.382 1.507-2.169.674-.643 1.266-.993 1.671-1.266.13-.087.294-.2.486-.323.625-.397 1.454-.823 2.464-.986 1.162-.188 2.157.051 2.8.369-.644-.319-1.56-.725-2.827-.735a6.335 6.335 0 0 0-2.825.657c-.229.113-.42.226-.565.324-.425.286-1.035.86-1.573 1.649-.71 1.04-.947 1.894-1.138 2.48z"/>
</svg>
