<?xml version="1.0" encoding="UTF-8" standalone="no"?>
<!-- Created with Inkscape (http://www.inkscape.org/) -->

<svg
   xmlns:dc="http://purl.org/dc/elements/1.1/"
   xmlns:cc="http://creativecommons.org/ns#"
   xmlns:rdf="http://www.w3.org/1999/02/22-rdf-syntax-ns#"
   xmlns:svg="http://www.w3.org/2000/svg"
   xmlns="http://www.w3.org/2000/svg"
   xmlns:sodipodi="http://sodipodi.sourceforge.net/DTD/sodipodi-0.dtd"
   xmlns:inkscape="http://www.inkscape.org/namespaces/inkscape"
   viewBox="0 0 256 256"
   id="svg4206"
   version="1.1"
   inkscape:version="0.91 r13725"
   sodipodi:docname="leg_micro_skirt_belted.svg">
  <style
     id="style3">
    svg { cursor: default; }
  </style>
  <defs
     id="defs4208">
    <inkscape:path-effect
       effect="powerstroke"
       id="path-effect4298"
       is_visible="true"
       offset_points="0,0.5"
       sort_points="true"
       interpolator_type="CubicBezierJohan"
       interpolator_beta="0.2"
       start_linecap_type="zerowidth"
       linejoin_type="round"
       miter_limit="4"
       end_linecap_type="zerowidth"
       cusp_linecap_type="round" />
    <inkscape:path-effect
       effect="powerstroke"
       id="path-effect4294"
       is_visible="true"
       offset_points="0,0.5"
       sort_points="true"
       interpolator_type="CubicBezierJohan"
       interpolator_beta="0.2"
       start_linecap_type="zerowidth"
       linejoin_type="round"
       miter_limit="4"
       end_linecap_type="zerowidth"
       cusp_linecap_type="round" />
    <inkscape:path-effect
       effect="powerstroke"
       id="path-effect4290"
       is_visible="true"
       offset_points="0,0.5"
       sort_points="true"
       interpolator_type="CubicBezierJohan"
       interpolator_beta="0.2"
       start_linecap_type="zerowidth"
       linejoin_type="round"
       miter_limit="4"
       end_linecap_type="zerowidth"
       cusp_linecap_type="round" />
    <inkscape:path-effect
       effect="powerstroke"
       id="path-effect4237"
       is_visible="true"
       offset_points="0,0.5"
       sort_points="true"
       interpolator_type="CubicBezierJohan"
       interpolator_beta="0.2"
       start_linecap_type="zerowidth"
       linejoin_type="round"
       miter_limit="4"
       end_linecap_type="zerowidth"
       cusp_linecap_type="round" />
    <inkscape:path-effect
       effect="powerstroke"
       id="path-effect4233"
       is_visible="true"
       offset_points="0,0.5"
       sort_points="true"
       interpolator_type="CubicBezierJohan"
       interpolator_beta="0.2"
       start_linecap_type="zerowidth"
       linejoin_type="round"
       miter_limit="4"
       end_linecap_type="zerowidth"
       cusp_linecap_type="round" />
    <inkscape:path-effect
       effect="powerstroke"
       id="path-effect4229"
       is_visible="true"
       offset_points="0,0.5"
       sort_points="true"
       interpolator_type="CubicBezierJohan"
       interpolator_beta="0.2"
       start_linecap_type="zerowidth"
       linejoin_type="round"
       miter_limit="4"
       end_linecap_type="zerowidth"
       cusp_linecap_type="round" />
    <inkscape:path-effect
       effect="powerstroke"
       id="path-effect4225"
       is_visible="true"
       offset_points="0,0.5"
       sort_points="true"
       interpolator_type="CubicBezierJohan"
       interpolator_beta="0.2"
       start_linecap_type="zerowidth"
       linejoin_type="round"
       miter_limit="4"
       end_linecap_type="zerowidth"
       cusp_linecap_type="round" />
    <inkscape:path-effect
       effect="powerstroke"
       id="path-effect4221"
       is_visible="true"
       offset_points="0,0.5"
       sort_points="true"
       interpolator_type="CubicBezierJohan"
       interpolator_beta="0.2"
       start_linecap_type="zerowidth"
       linejoin_type="round"
       miter_limit="4"
       end_linecap_type="zerowidth"
       cusp_linecap_type="round" />
    <inkscape:path-effect
       effect="powerstroke"
       id="path-effect4217"
       is_visible="true"
       offset_points="0,0.5"
       sort_points="true"
       interpolator_type="CubicBezierJohan"
       interpolator_beta="0.2"
       start_linecap_type="zerowidth"
       linejoin_type="round"
       miter_limit="4"
       end_linecap_type="zerowidth"
       cusp_linecap_type="round" />
    <inkscape:path-effect
       effect="powerstroke"
       id="path-effect4213"
       is_visible="true"
       offset_points="0,0.5"
       sort_points="true"
       interpolator_type="CubicBezierJohan"
       interpolator_beta="0.2"
       start_linecap_type="zerowidth"
       linejoin_type="round"
       miter_limit="4"
       end_linecap_type="zerowidth"
       cusp_linecap_type="round" />
    <inkscape:path-effect
       effect="powerstroke"
       id="path-effect4209"
       is_visible="true"
       offset_points="0,0.5"
       sort_points="true"
       interpolator_type="CubicBezierJohan"
       interpolator_beta="0.2"
       start_linecap_type="zerowidth"
       linejoin_type="round"
       miter_limit="4"
       end_linecap_type="zerowidth"
       cusp_linecap_type="round" />
    <inkscape:path-effect
       effect="powerstroke"
       id="path-effect4205"
       is_visible="true"
       offset_points="0,0.5"
       sort_points="true"
       interpolator_type="CubicBezierJohan"
       interpolator_beta="0.2"
       start_linecap_type="zerowidth"
       linejoin_type="round"
       miter_limit="4"
       end_linecap_type="zerowidth"
       cusp_linecap_type="round" />
    <inkscape:path-effect
       effect="powerstroke"
       id="path-effect4201"
       is_visible="true"
       offset_points="0,0.5"
       sort_points="true"
       interpolator_type="CubicBezierJohan"
       interpolator_beta="0.2"
       start_linecap_type="zerowidth"
       linejoin_type="round"
       miter_limit="4"
       end_linecap_type="zerowidth"
       cusp_linecap_type="round" />
    <inkscape:path-effect
       effect="powerstroke"
       id="path-effect4250"
       is_visible="true"
       offset_points="0,0.5"
       sort_points="true"
       interpolator_type="Linear"
       interpolator_beta="0.2"
       start_linecap_type="zerowidth"
       linejoin_type="round"
       miter_limit="4"
       end_linecap_type="zerowidth"
       cusp_linecap_type="round" />
    <inkscape:path-effect
       effect="powerstroke"
       id="path-effect4258"
       is_visible="true"
       offset_points="0,0.5"
       sort_points="true"
       interpolator_type="Linear"
       interpolator_beta="0.2"
       start_linecap_type="zerowidth"
       linejoin_type="round"
       miter_limit="4"
       end_linecap_type="zerowidth"
       cusp_linecap_type="round" />
    <inkscape:path-effect
       effect="powerstroke"
       id="path-effect4262"
       is_visible="true"
       offset_points="0,0.5"
       sort_points="true"
       interpolator_type="Linear"
       interpolator_beta="0.2"
       start_linecap_type="zerowidth"
       linejoin_type="round"
       miter_limit="4"
       end_linecap_type="zerowidth"
       cusp_linecap_type="round" />
    <inkscape:path-effect
       effect="powerstroke"
       id="path-effect4266"
       is_visible="true"
       offset_points="0,0.5"
       sort_points="true"
       interpolator_type="Linear"
       interpolator_beta="0.2"
       start_linecap_type="zerowidth"
       linejoin_type="round"
       miter_limit="4"
       end_linecap_type="zerowidth"
       cusp_linecap_type="round" />
    <inkscape:path-effect
       effect="powerstroke"
       id="path-effect4299"
       is_visible="true"
       offset_points="0,0.5"
       sort_points="true"
       interpolator_type="Linear"
       interpolator_beta="0.2"
       start_linecap_type="zerowidth"
       linejoin_type="round"
       miter_limit="4"
       end_linecap_type="zerowidth"
       cusp_linecap_type="round" />
    <inkscape:path-effect
       effect="powerstroke"
       id="path-effect4303"
       is_visible="true"
       offset_points="0,0.5"
       sort_points="true"
       interpolator_type="Linear"
       interpolator_beta="0.2"
       start_linecap_type="zerowidth"
       linejoin_type="round"
       miter_limit="4"
       end_linecap_type="zerowidth"
       cusp_linecap_type="round" />
    <inkscape:path-effect
       effect="powerstroke"
       id="path-effect4307"
       is_visible="true"
       offset_points="0,0.5"
       sort_points="true"
       interpolator_type="Linear"
       interpolator_beta="0.2"
       start_linecap_type="zerowidth"
       linejoin_type="round"
       miter_limit="4"
       end_linecap_type="zerowidth"
       cusp_linecap_type="round" />
    <inkscape:path-effect
       effect="powerstroke"
       id="path-effect4315"
       is_visible="true"
       offset_points="0,0.5"
       sort_points="true"
       interpolator_type="Linear"
       interpolator_beta="0.2"
       start_linecap_type="zerowidth"
       linejoin_type="round"
       miter_limit="4"
       end_linecap_type="zerowidth"
       cusp_linecap_type="round" />
    <inkscape:path-effect
       effect="powerstroke"
       id="path-effect4323"
       is_visible="true"
       offset_points="0,0.5"
       sort_points="true"
       interpolator_type="Linear"
       interpolator_beta="0.2"
       start_linecap_type="zerowidth"
       linejoin_type="round"
       miter_limit="4"
       end_linecap_type="zerowidth"
       cusp_linecap_type="round" />
  </defs>
  <sodipodi:namedview
     id="base"
     pagecolor="#ffffff"
     bordercolor="#666666"
     borderopacity="1.0"
     inkscape:pageopacity="0.0"
     inkscape:pageshadow="2"
     inkscape:zoom="1.4"
     inkscape:cx="-70.106559"
     inkscape:cy="244.73972"
     inkscape:document-units="px"
     inkscape:current-layer="g4443"
     showgrid="false"
     units="px"
     inkscape:window-width="2560"
     inkscape:window-height="1388"
     inkscape:window-x="-8"
     inkscape:window-y="-8"
     inkscape:window-maximized="1" />
  <metadata
     id="metadata4211">
    <rdf:RDF>
      <cc:Work
         rdf:about="">
        <dc:format>image/svg+xml</dc:format>
        <dc:type
           rdf:resource="http://purl.org/dc/dcmitype/StillImage" />
        <dc:title />
      </cc:Work>
    </rdf:RDF>
  </metadata>
  <g
     inkscape:label="Layer 1"
     inkscape:groupmode="layer"
     id="layer1"
     transform="translate(0,-796.36216)"
     style="display:inline">
    <g
       id="g4443"
       transform="matrix(1.39755,0,0,1.39755,-46.855002,-368.51025)">
      <path
         sodipodi:nodetypes="cccc"
         inkscape:connector-curvature="0"
         id="path4441"
         d="m 55.358066,884.84143 c 90.355094,21.35592 146.364124,24.42513 146.901734,27.80546 3.32619,20.3737 -37.17923,8.0943 -55.83122,12.0367 -31.47181,-13.08913 -96.775804,-11.06785 -91.070514,-39.84216 z"
         style="fill:#ff2a2a;fill-rule:evenodd;stroke:#000000;stroke-width:0.75;stroke-linecap:butt;stroke-linejoin:miter;stroke-miterlimit:4;stroke-dasharray:none;stroke-opacity:1" />
      <path
         sodipodi:nodetypes="ccccc"
         inkscape:connector-curvature="0"
         id="path4316"
         d="m 55.320176,884.79811 c -9.8718,17.81737 -17.33748,38.36168 -17.1726,67.55396 51.87361,-5.22301 129.669624,25.78419 169.074294,19.5717 -0.47985,-19.65588 -1.76118,-39.31177 -4.9245,-58.96765 C 177.62502,924.03304 90.385416,892.54779 55.320176,884.79811 Z"
         style="fill:#ff8080;fill-rule:evenodd;stroke:#000000;stroke-width:0.75;stroke-linecap:butt;stroke-linejoin:miter;stroke-miterlimit:4;stroke-dasharray:none;stroke-opacity:1" />
      <path
         sodipodi:nodetypes="cssc"
         inkscape:connector-curvature="0"
         id="path4397-6"
         d="m 54.922006,885.929 c 25.41768,7.49081 32.91378,9.37254 49.238264,13.94939 25.28061,7.08786 58.36308,16.29926 72.19086,16.94892 17.60218,0.82698 18.71422,-0.0762 25.80302,-0.8983"
         style="display:inline;fill:none;fill-rule:evenodd;stroke:#ff2a2a;stroke-width:0.5;stroke-linecap:butt;stroke-linejoin:miter;stroke-miterlimit:4;stroke-dasharray:1, 0.5;stroke-dashoffset:0;stroke-opacity:1" />
      <path
         sodipodi:nodetypes="cccccc"
         inkscape:connector-curvature="0"
         id="path4403"
         d="m 203.03572,915.94891 c -10.35914,2.1595 -53.47935,2.88299 -81.84269,-4.84866 l -3.02489,19.9432 c 40.05759,6.85732 42.05654,4.80396 51.29615,5.24728 0,0 36.87686,-2.5 36.69829,-2.14285 0.0213,0.4071 -1.51981,-17.79721 -3.12686,-18.19897 z"
         style="fill:#ff5555;fill-rule:evenodd;stroke:#000000;stroke-width:0.5;stroke-linecap:butt;stroke-linejoin:miter;stroke-miterlimit:4;stroke-dasharray:none;stroke-opacity:1" />
      <path
         sodipodi:nodetypes="csssc"
         inkscape:connector-curvature="0"
         id="path4397"
         d="m 44.732146,907.63002 c 5.89077,2.30711 9.89209,4.92167 18.6757,7.28445 4.29487,1.15531 38.597884,11.01984 54.223274,15.59351 25.87635,7.57421 37.72914,6.26713 48.35158,8.19892 17.33723,3.15293 31.74993,2.95949 39.73159,2.49455"
         style="fill:none;fill-rule:evenodd;stroke:#ff2a2a;stroke-width:0.5;stroke-linecap:butt;stroke-linejoin:miter;stroke-miterlimit:4;stroke-dasharray:1, 0.5;stroke-dashoffset:0;stroke-opacity:1" />
      <path
         sodipodi:nodetypes="ccccccccccc"
         inkscape:connector-curvature="0"
         id="path4331"
         d="m 52.946426,887.09431 c -2.97515,3.51242 -6.05746,10.04918 -7.34758,17.26912 23.97116,11.1802 48.35077,16.64201 72.526154,24.96302 5.80348,5.0956 12.97592,4.98913 20.44643,3.75 9.09812,1.59242 18.29975,3.01233 28.39286,2.94643 13.98559,3.73652 30.37177,5.10042 46.07143,7.14285 1.46246,-6.07143 0.61409,-11.70091 0.32016,-17.77234 -14.59558,-1.85748 -28.75934,-3.85136 -44.96302,-7.31694 -9.01869,-0.0943 -18.23166,-1.35424 -27.41071,-2.41072 -1.27278,1.60697 -19.82941,-1.91045 -20.35715,-4.55357 -23.116614,-7.7672 -45.739754,-15.74588 -67.678574,-24.01785 z"
         style="fill:#ffaaaa;fill-rule:evenodd;stroke:#000000;stroke-width:0.5;stroke-linecap:butt;stroke-linejoin:miter;stroke-miterlimit:4;stroke-dasharray:none;stroke-opacity:1" />
      <path
         inkscape:connector-curvature="0"
         id="path4333-4-9"
         d="m 136.84344,921.39 a 2.6246374,2.7883947 0 0 0 -2.626,2.78911 2.6246374,2.7883947 0 0 0 2.626,2.78744 2.6246374,2.7883947 0 0 0 2.62441,-2.78744 2.6246374,2.7883947 0 0 0 -2.62441,-2.78911 z m 0,0.95923 a 1.7220247,1.8294657 0 0 1 1.72162,1.82988 1.7220247,1.8294657 0 0 1 -1.72162,1.82822 1.7220247,1.8294657 0 0 1 -1.7232,-1.82822 1.7220247,1.8294657 0 0 1 1.7232,-1.82988 z"
         style="display:inline;fill:#999999;fill-opacity:1;stroke:#000000;stroke-width:0.41648504;stroke-linecap:butt;stroke-miterlimit:4;stroke-dasharray:none;stroke-dashoffset:0" />
      <path
         inkscape:connector-curvature="0"
         id="path4333-4-6"
         d="m 121.40769,918.08369 a 1.8709339,2.6974375 5.3908952 0 0 -2.11711,2.51032 1.8709339,2.6974375 5.3908952 0 0 1.61028,2.86046 1.8709339,2.6974375 5.3908952 0 0 2.11584,-2.50883 1.8709339,2.6974375 5.3908952 0 0 -1.60901,-2.86195 z m -0.0872,0.92383 a 1.2275198,1.7697887 5.3908952 0 1 1.05549,1.87766 1.2275198,1.7697887 5.3908952 0 1 -1.38796,1.64546 1.2275198,1.7697887 5.3908952 0 1 -1.05676,-1.87617 1.2275198,1.7697887 5.3908952 0 1 1.38923,-1.64695 z"
         style="display:inline;fill:#999999;fill-opacity:1;stroke:#000000;stroke-width:0.34585381;stroke-linecap:butt;stroke-miterlimit:4;stroke-dasharray:none;stroke-dashoffset:0" />
      <path
         sodipodi:nodetypes="ccccc"
         inkscape:connector-curvature="0"
         id="path4318"
         d="m 66.517856,888.74609 c -3.27637,6.36873 -6.00879,14.31215 -9.19643,25.35714 l 10.66964,2.72322 c 1.15883,-11.76971 5.12996,-19.10829 8.70535,-25.49108 z"
         style="fill:#ffaaaa;fill-rule:evenodd;stroke:#000000;stroke-width:0.75;stroke-linecap:butt;stroke-linejoin:miter;stroke-miterlimit:4;stroke-dasharray:none;stroke-opacity:1" />
      <path
         sodipodi:nodetypes="ccccc"
         inkscape:connector-curvature="0"
         id="path4329"
         d="m 161.78572,915.21931 c 1.78833,5.7178 2.06079,16.92846 -1.78572,23.21428 0,0 6.99463,2.14172 11.69643,2.23214 2.84206,-6.6422 3.13647,-22.25786 1.86865,-25.08928 -5.56684,-0.83402 -7.96817,-0.40095 -11.77936,-0.35714 z"
         style="fill:#ffaaaa;fill-rule:evenodd;stroke:#000000;stroke-width:0.75;stroke-linecap:butt;stroke-linejoin:miter;stroke-miterlimit:4;stroke-dasharray:none;stroke-opacity:1" />
      <path
         inkscape:connector-curvature="0"
         id="path4333"
         d="m 85.804246,905.72722 a 2.6618475,3.1304681 0 0 0 -2.66324,3.13128 2.6618475,3.1304681 0 0 0 2.66324,3.1294 2.6618475,3.1304681 0 0 0 2.66161,-3.1294 2.6618475,3.1304681 0 0 0 -2.66161,-3.13128 z m 0,1.07691 a 1.7464382,2.0539 0 0 1 1.74603,2.05437 1.7464382,2.0539 0 0 1 -1.74603,2.0525 1.7464382,2.0539 0 0 1 -1.74764,-2.0525 1.7464382,2.0539 0 0 1 1.74764,-2.05437 z"
         style="fill:#999999;fill-opacity:1;stroke:#000000;stroke-width:0.44441;stroke-linecap:butt;stroke-miterlimit:4;stroke-dasharray:none;stroke-dashoffset:0" />
      <path
         inkscape:connector-curvature="0"
         id="path4333-4"
         d="m 105.98293,912.54696 a 2.605658,2.8956849 0 0 0 -2.60701,2.89643 2.605658,2.8956849 0 0 0 2.60701,2.89469 2.605658,2.8956849 0 0 0 2.60543,-2.89469 2.605658,2.8956849 0 0 0 -2.60543,-2.89643 z m 0,0.99614 a 1.7095723,1.8998588 0 0 1 1.70917,1.90029 1.7095723,1.8998588 0 0 1 -1.70917,1.89856 1.7095723,1.8998588 0 0 1 -1.71074,-1.89856 1.7095723,1.8998588 0 0 1 1.71074,-1.90029 z"
         style="display:inline;fill:#999999;fill-opacity:1;stroke:#000000;stroke-width:0.4228847;stroke-linecap:butt;stroke-miterlimit:4;stroke-dasharray:none;stroke-dashoffset:0" />
      <path
         inkscape:connector-curvature="0"
         id="path4333-4-3"
         d="m 54.647156,895.5036 a 1.6862075,2.9358592 14.608137 0 0 -2.37317,2.41619 1.6862075,2.9358592 14.608137 0 0 0.89235,3.26547 1.6862075,2.9358592 14.608137 0 0 2.37175,-2.41474 1.6862075,2.9358592 14.608137 0 0 -0.89093,-3.26692 z m -0.25471,0.97731 a 1.1063208,1.9262172 14.608137 0 1 0.58439,2.14333 1.1063208,1.9262172 14.608137 0 1 -1.55578,1.58371 1.1063208,1.9262172 14.608137 0 1 -0.58582,-2.14188 1.1063208,1.9262172 14.608137 0 1 1.55721,-1.58516 z"
         style="display:inline;fill:#999999;fill-opacity:1;stroke:#000000;stroke-width:0.34253955;stroke-linecap:butt;stroke-miterlimit:4;stroke-dasharray:none;stroke-dashoffset:0" />
      <path
         inkscape:connector-curvature="0"
         id="path4333-4-34"
         d="m 153.33733,923.00314 a 2.605658,2.8956849 0 0 0 -2.60701,2.89643 2.605658,2.8956849 0 0 0 2.60701,2.89469 2.605658,2.8956849 0 0 0 2.60543,-2.89469 2.605658,2.8956849 0 0 0 -2.60543,-2.89643 z m 0,0.99614 a 1.7095723,1.8998588 0 0 1 1.70917,1.90029 1.7095723,1.8998588 0 0 1 -1.70917,1.89856 1.7095723,1.8998588 0 0 1 -1.71074,-1.89856 1.7095723,1.8998588 0 0 1 1.71074,-1.90029 z"
         style="display:inline;fill:#999999;fill-opacity:1;stroke:#000000;stroke-width:0.4228847;stroke-linecap:butt;stroke-miterlimit:4;stroke-dasharray:none;stroke-dashoffset:0" />
      <path
         sodipodi:nodetypes="cccccccccc"
         inkscape:connector-curvature="0"
         id="path4386"
         d="m 119.90374,907.99135 c -2.12772,8.27526 -2.74176,16.29051 -3.6914,24.68359 7.33348,2.77997 15.76341,4.56595 23.08007,4.73633 1.83852,-8.23077 3.50958,-16.50301 3.93946,-25.08594 -8.20658,-1.66463 -18.81495,-3.93566 -23.32813,-4.33398 z m 2.00782,3.69921 c 6.00412,0.8918 12.08133,2.2651 17.94531,3.72852 -0.3386,6.147 -1.45182,12.35702 -3.21875,18.62305 -5.21691,-0.60737 -9.37027,-0.54918 -18.05664,-3.28125 0.6314,-6.951 2.17252,-12.77242 3.33008,-19.07032 z"
         style="fill:#999999;fill-opacity:1;fill-rule:evenodd;stroke:#000000;stroke-width:0.5;stroke-linecap:butt;stroke-linejoin:miter;stroke-miterlimit:4;stroke-dasharray:none;stroke-opacity:1" />
      <path
         sodipodi:nodetypes="ccccc"
         inkscape:connector-curvature="0"
         id="path4393"
         d="m 121.84357,921.99935 c -0.0798,-0.0965 -6.23563,-2.02238 -6.54559,-2.00373 -0.23434,-0.15231 0.2712,-1.81479 0.41038,-1.79933 2.30917,0.7592 4.35629,1.43105 6.53442,2.14657 0.13328,0.62568 0.0499,1.12172 -0.39921,1.65649 z"
         style="fill:#999999;fill-opacity:1;fill-rule:evenodd;stroke:#000000;stroke-width:0.5;stroke-linecap:butt;stroke-linejoin:miter;stroke-miterlimit:4;stroke-dasharray:none;stroke-opacity:1" />
      <path
         sodipodi:nodetypes="cc"
         inkscape:connector-curvature="0"
         id="path4391"
         d="m 118.69499,929.39538 c -0.22906,3.60753 16.87532,7.19494 18.28442,3.38632"
         style="fill:#ffaaaa;fill-rule:evenodd;stroke:#000000;stroke-width:0.5;stroke-linecap:butt;stroke-linejoin:miter;stroke-miterlimit:4;stroke-dasharray:none;stroke-opacity:1" />
      <path
         sodipodi:nodetypes="cc"
         inkscape:connector-curvature="0"
         id="path4399"
         d="m 58.815556,913.97711 c 2.50128,-9.19363 5.41511,-16.9251 9.00208,-24.25318"
         style="fill:none;fill-rule:evenodd;stroke:#ff5555;stroke-width:0.5;stroke-linecap:butt;stroke-linejoin:miter;stroke-miterlimit:4;stroke-dasharray:1, 0.5;stroke-dashoffset:0;stroke-opacity:1" />
      <path
         sodipodi:nodetypes="cc"
         inkscape:connector-curvature="0"
         id="path4401"
         d="m 74.523906,891.38709 c -1.91023,2.09584 -7.49689,12.1163 -8.40773,24.53635"
         style="fill:none;fill-rule:evenodd;stroke:#ff5555;stroke-width:0.5;stroke-linecap:butt;stroke-linejoin:miter;stroke-miterlimit:4;stroke-dasharray:1, 0.5;stroke-dashoffset:0;stroke-opacity:1" />
      <path
         sodipodi:nodetypes="cc"
         inkscape:connector-curvature="0"
         id="path4401-1"
         d="m 163.92728,915.68496 c 1.81471,8.21989 1.0894,17.609 -2.09428,22.70545"
         style="display:inline;fill:none;fill-rule:evenodd;stroke:#ff5555;stroke-width:0.5;stroke-linecap:butt;stroke-linejoin:miter;stroke-miterlimit:4;stroke-dasharray:1, 0.5;stroke-dashoffset:0;stroke-opacity:1" />
      <path
         sodipodi:nodetypes="cc"
         inkscape:connector-curvature="0"
         id="path4401-3"
         d="m 172.13521,915.98794 c 1.56217,8.91437 -0.29955,17.35647 -1.7786,24.03128"
         style="display:inline;fill:none;fill-rule:evenodd;stroke:#ff5555;stroke-width:0.5;stroke-linecap:butt;stroke-linejoin:miter;stroke-miterlimit:4;stroke-dasharray:1, 0.5;stroke-dashoffset:0;stroke-opacity:1" />
    </g>
  </g>
</svg>
