<?xml version="1.0" encoding="UTF-8"?>
<svg cursor="default" version="1.1" viewBox="0 0 256 256" xmlns="http://www.w3.org/2000/svg">
 <g fill="#ff8080" stroke="#000" stroke-linecap="round" stroke-linejoin="round" stroke-width=".5">
  <path d="m111.28 110.84 96.627-0.82941-38.982 29.444 2.903 10.575 69.256-51.216-126.28 1.2441z"/>
  <path d="m146.23 112.93 30.026 92.263-37.872-27.043-9.1604 6.0287 67.934 49.107-39.583-120.34z"/>
  <path d="m155.42 149.12-76.732 56.954 13.401-44.557-8.357-5.916-25.303 79.032 100.48-74.718z"/>
  <path d="m126.27 168.66-77.934-55.917 46.356-1.2186 3.8673-10.262-83.645 1.0382 102.17 73.011z"/>
  <path d="m97.495 145.37 28.949-90.763 14.609 43.478 11.577-0.52977-25.442-77.131-38.858 118.26z"/>
 </g>
 <g fill="#ffb380" stroke="#000" stroke-linecap="round" stroke-linejoin="round" stroke-width=".5">
  <path d="m135.3 34.673 3.7324 12.545c22.955 1.1972 58.757 21.332 71.537 49.246l11.923 0.31103c-14.851-39.057-54.903-60.748-87.192-62.102z"/>
  <path d="m227.38 112.6-10.151 7.0048c5.9549 22.201-4.2542 60.747-26.853 81.527l3.3885 11.435c31.061-24.34 42.066-67.385 33.616-99.967z"/>
  <path d="m177.36 223.67-9.7989-7.4899c-19.837 10.951-51.507 12.827-77.443 0.0254l-9.8286 6.7564c32.906 17.905 68.899 15.475 97.071 0.70811z"/>
  <path d="m119.33 34.881-3.6287 12.026c-26.009 1.6513-57.726 24.305-68.444 51.366l-11.923 0.31103c12.938-36.98 51.039-61.624 83.995-63.704z"/>
  <path d="m30.036 116.49 10.151 7.0048c-4.7682 21.722 5.3502 54.069 25.749 76.013l-3.3885 11.435c-28.099-25.278-39.025-61.095-32.511-94.454z"/>
 </g>
</svg>
