<svg xmlns="http://www.w3.org/2000/svg" cursor="default" viewBox="0 0 256 256">
    <g fill="#ff8080" stroke="#000">
        <path d="M240.651 179.05c-.597 1.009-1.558 2.36-3.242 3.966-1.28 1.222-2.932 2.546-5.013 3.894-3.65 2.364-8.374 4.636-13.71 6.257-5.35 1.625-10.776 2.43-15.745 2.232-6.767-.269-11.417-2.331-14.382-4.608l1.308-1.704 1.308-1.703c2.295 1.762 5.965 3.843 12.035 4.578 4.508.546 9.642.25 14.94-.875 5.256-1.116 10.048-2.916 13.817-4.908 2.147-1.136 3.886-2.29 5.244-3.388 1.787-1.445 2.841-2.73 3.44-3.742zM14.326 178.935c.599 1.011 1.654 2.296 3.44 3.741 1.358 1.098 3.098 2.253 5.245 3.388 3.768 1.992 8.56 3.792 13.817 4.909 5.298 1.125 10.431 1.42 14.94.875 6.07-.736 9.74-2.816 12.035-4.578l1.308 1.703 1.308 1.703c-2.965 2.277-7.616 4.34-14.382 4.609-4.97.197-10.396-.607-15.746-2.233-5.336-1.62-10.06-3.893-13.71-6.257-2.08-1.348-3.733-2.671-5.013-3.893-1.683-1.607-2.644-2.958-3.242-3.967zM117.085 238.591c.034-1.267-.027-3.023-.587-5.626-.418-1.943-1.068-4.137-1.97-6.585-1.382-3.754-3.158-7.562-4.814-10.761 3.67-3.657 6.898-7.17 7.613-8.132.284-.383.074-1.552-.321-2.475-.403-.942-1.006-1.554-1.006-1.554s-.767-.388-1.782-.498c-.995-.107-2.168.024-2.447.4-1.056 1.42-3.488 5.696-6.427 10.489-.33.537-.66 1.074-.992 1.61.306.326.608.657.904.992 2.466 2.785 5.365 6.738 7.658 10.686 1.268 2.183 2.264 4.211 2.96 6.014.933 2.409 1.245 4.188 1.211 5.44zM137.766 238.2c-.034-1.251.279-3.031 1.21-5.44.698-1.802 1.693-3.83 2.961-6.014 2.294-3.948 5.192-7.9 7.658-10.686.296-.335.598-.665.904-.991-.332-.537-.662-1.074-.992-1.611-2.939-4.793-5.371-9.068-6.427-10.49-.279-.375-1.452-.505-2.447-.398a5.714 5.714 0 0 0-1.781.497s-.603.612-1.006 1.554c-.396.923-.606 2.093-.322 2.475.715.963 3.944 4.475 7.613 8.132-1.656 3.199-3.432 7.007-4.814 10.76-.902 2.45-1.552 4.644-1.97 6.587-.56 2.603-.621 4.359-.587 5.625z"/>
        <path d="M139.565 204.458l2.753-1.312a42.752 42.752 0 0 0-6.917-10.299c-2.254-2.47-4.374-4.216-6.657-6.193-2.257-1.955-4.29-3.833-6.336-6.465-2.724-3.506-4.825-7.603-6.245-11.335 1.47 3.86 3 7.87 5.237 11.993 1.651 3.044 3.265 5.374 5.101 7.873 1.895 2.579 3.342 4.459 5.022 7.114 2.241 3.543 3.715 6.635 5.29 9.937l2.752-1.313z"/>
        <path d="M115.413 204.344l2.752 1.312c1.575-3.301 3.048-6.394 5.29-9.936 1.68-2.656 3.127-4.536 5.021-7.115 1.836-2.498 3.45-4.828 5.102-7.873 2.236-4.123 3.767-8.132 5.236-11.992-1.42 3.732-3.52 7.829-6.245 11.334-2.045 2.633-4.079 4.51-6.336 6.465-2.283 1.977-4.402 3.723-6.657 6.194a42.752 42.752 0 0 0-6.916 10.298l2.753 1.313zM1.178 174.23c5.685-3.728 12.318-7.124 19.486-8.42 5.465-.987 10.867-.694 16.334 1.056 4.87 1.558 9.469 4.164 14.01 7.531 4.32 3.204 8.361 6.924 12.335 10.697 4.009 3.806 7.663 7.383 11.375 10.463 3.883 3.222 7.415 5.54 10.883 6.846 3.817 1.438 7.273 1.534 10.66.57 4.54-1.29 8.823-4.467 12.71-8.211l1.978 2.053 1.979 2.054c-4.174 4.02-9.405 7.855-15.354 9.244-4.619 1.078-9.168.579-13.736-1.486-4.013-1.815-7.79-4.713-11.592-8.268-3.631-3.396-7.191-7.296-10.922-11.252-3.74-3.965-7.498-7.818-11.53-11.162-4.228-3.507-8.543-6.27-13.166-8.016-5.196-1.962-10.462-2.512-15.9-1.724-7.15 1.035-13.854 4.29-19.55 8.025z"/>
        <path d="M96.909 189.263c-.083-.17 2.602-2.08 2.524-2.244-3.331-6.992-6.166-14.73-7.054-22.669-.695-6.213-.161-12.117 1.712-18.092 1.677-5.351 4.305-10.403 7.666-15.76 3.156-5.029 6.843-10.123 10.35-15.494 3.532-5.406 6.79-10.978 9.218-17.142 2.55-6.476 4.042-13.264 4.177-20.754.15-8.398-1.423-17.156-4.498-26.393-4.039-12.134-10.335-24.058-16.617-34.462 6.28 10.402 12.434 22.426 16.182 34.601 2.855 9.279 4.12 17.988 3.644 26.206-.423 7.308-2.192 13.819-4.962 19.925-2.639 5.818-6.08 11.048-9.827 16.163-3.728 5.088-7.69 9.974-11.223 14.98-3.746 5.308-6.907 10.601-9.061 16.433-2.434 6.588-3.351 13.28-2.794 20.358.705 8.948 3.711 17.521 7.223 24.893.082.174 3.257-.72 3.34-.55z"/>
        <path stroke-width="1.036" d="M110 197.262l3.198-.019c-.045-7.63-.98-15.237-3.533-22.205-1.963-5.362-4.494-9.383-7.38-13.367-2.459-3.393-4.993-6.52-6.846-10.145-1.783-3.487-3.1-7.712-3.22-13.77-.093-9.57 2.034-17.09 4.887-23.64 2.99-6.863 6.737-12.67 9.648-18.348 3.35-6.536 5.38-12.41 5.51-19.211.17-8.808-2.996-17.666-7.495-26.292 4.509 8.645 7.5 17.56 7.048 26.276-.347 6.681-2.598 12.365-6.174 18.625-3.124 5.47-7.148 11.093-10.54 18.024-3.24 6.622-5.836 14.441-6.082 24.541-.22 6.52.86 11.362 2.612 15.55 1.754 4.194 4.32 7.937 6.394 11.26 2.496 4 4.487 7.662 6.013 12.434 1.997 6.245 2.718 13.077 2.76 20.306l3.2-.019z"/>
        <path d="M65.726 161.59c2.506.74 6.616 1.974 12.072 4.427a95.094 95.094 0 0 1 12.967 7.082c4.422 2.895 8.356 6.043 11.563 9.31 4.321 4.402 6.616 8.302 7.739 11.254l-2.158.82-2.157.82c-.923-2.425-2.547-5.951-6.182-10.42-2.704-3.324-6.13-6.68-10.16-9.915a90.938 90.938 0 0 0-12.024-8.138c-5.122-2.895-9.187-4.51-11.66-5.24z" paint-order="stroke fill markers"/>
        <path d="M93.249 186.64c.271-.302 4.501 1.768 4.777 1.449 5.746-6.667 13.579-18.012 15.642-32.355 1.666-11.582-.536-24.18-8.657-37.535a78.784 78.784 0 0 0-2.09-3.254c.67 1.075 1.356 2.14 2.056 3.196-6.535-9.849-10.389-18.498-11.376-26.384-.559-4.466-.168-8.469.944-12.09 1.46-4.754 4.077-8.542 6.683-11.351-2.589 2.79-5.421 6.437-7.295 11.136-1.434 3.596-2.265 7.694-2.154 12.438.196 8.422 3.328 17.865 9.246 28.638l-.034-.058c6.755 12.98 7.536 24.315 5.401 33.959-2.672 12.073-9.982 21.617-15.25 27.728-.25.29 2.378 4.18 2.107 4.483z"/>
        <path d="M104.774 65.765c-1.42 3.78-3.008 8.594-3.329 13.993-.24 4.048.259 7.924 1.498 11.835 1.394 4.399 3.598 8.41 5.808 11.934 1.999 3.189 4.52 6.754 5.793 8.49.117.161.231.316.342.464 1.116 1.501 3.869 4.961 5.928 7.998 2.335 3.445 4.715 7.587 6.337 12.637 1.689 5.26 2.392 10.993 1.964 17.358-.423 6.303-1.903 12.241-3.417 16.74 1.524-4.527 3.306-10.293 4.254-16.65.952-6.384.909-12.348-.2-18.109-1.07-5.557-3.016-10.294-5.093-14.265-1.983-3.793-4.194-7.064-5.532-8.864-.113-.152-.232-.309-.355-.47-2.55-3.344-10.185-11.593-13.408-18.222-1.656-3.405-2.667-6.964-2.893-10.875-.302-5.236.882-10.212 2.303-13.994zM253.8 174.344c-5.697-3.735-12.4-6.99-19.55-8.025-5.439-.788-10.705-.237-15.9 1.725-4.623 1.746-8.938 4.508-13.167 8.016-4.031 3.343-7.79 7.196-11.53 11.162-3.73 3.956-7.29 7.856-10.922 11.251-3.802 3.555-7.578 6.454-11.591 8.268-4.568 2.065-9.118 2.564-13.736 1.486-5.95-1.389-11.18-5.223-15.354-9.244l1.978-2.053 1.979-2.054c3.886 3.745 8.169 6.921 12.71 8.212 3.386.963 6.842.867 10.66-.57 3.467-1.307 7-3.625 10.883-6.847 3.712-3.08 7.366-6.657 11.374-10.462 3.974-3.774 8.016-7.494 12.335-10.697 4.542-3.368 9.14-5.973 14.01-7.532 5.468-1.75 10.87-2.043 16.335-1.055 7.167 1.296 13.8 4.691 19.486 8.42z"/>
        <path d="M158.069 189.377c.083-.17 3.257.723 3.34.55 3.511-7.372 6.517-15.945 7.222-24.893.558-7.08-.36-13.771-2.794-20.359-2.154-5.832-5.315-11.125-9.06-16.432-3.534-5.007-7.496-9.893-11.224-14.98-3.747-5.115-7.188-10.345-9.827-16.163-2.77-6.107-4.539-12.618-4.962-19.926-.475-8.217.79-16.927 3.645-26.205 3.747-12.176 9.9-24.2 16.181-34.601-6.282 10.404-12.578 22.328-16.617 34.461-3.074 9.237-4.648 17.995-4.497 26.394.134 7.489 1.626 14.277 4.177 20.753 2.427 6.165 5.686 11.736 9.217 17.143 3.507 5.37 7.194 10.465 10.35 15.494 3.362 5.357 5.989 10.408 7.667 15.759 1.873 5.975 2.406 11.88 1.711 18.093-.888 7.938-3.723 15.676-7.053 22.669-.078.163 2.607 2.073 2.524 2.243z"/>
        <path d="M159.469 185.794l-2.828 1.748c1.834 2.966 4.046 6.935 5.475 11.958 1.426 5.014 1.845 10.339.959 15.618-.882 5.25-2.936 9.718-5.545 13.098-2.606 3.375-5.45 5.275-7.591 6.2 2.118-.915 5.184-2.44 8.364-5.506 3.188-3.074 6.159-7.409 7.996-12.983 1.848-5.606 2.276-11.667 1.297-17.628-.976-5.943-3.195-10.85-5.3-14.254l-2.827 1.749z"/>
        <path stroke-width="1.036" d="M144.978 197.376l3.199.02c.043-7.23.764-14.061 2.76-20.307 1.527-4.772 3.517-8.434 6.014-12.434 2.073-3.323 4.64-7.066 6.394-11.26 1.751-4.188 2.831-9.03 2.612-15.55-.247-10.1-2.843-17.919-6.083-24.54-3.391-6.931-7.416-12.555-10.54-18.024-3.575-6.26-5.826-11.944-6.173-18.625-.453-8.716 2.539-17.632 7.047-26.277-4.499 8.627-7.664 17.484-7.495 26.292.13 6.8 2.16 12.676 5.51 19.21 2.912 5.68 6.659 11.486 9.648 18.35 2.853 6.55 4.98 14.069 4.887 23.64-.12 6.057-1.437 10.282-3.22 13.77-1.852 3.624-4.387 6.75-6.845 10.144-2.887 3.985-5.417 8.006-7.381 13.367-2.552 6.969-3.488 14.575-3.533 22.205l3.199.02z"/>
        <path d="M189.346 161.825c-2.477.716-6.551 2.31-11.688 5.176a90.94 90.94 0 0 0-12.068 8.073c-4.047 3.212-7.492 6.55-10.213 9.86-3.66 4.449-5.303 7.966-6.239 10.386l-2.153-.832-2.153-.832c1.139-2.945 3.455-6.833 7.8-11.211 3.225-3.25 7.175-6.377 11.613-9.247 4.42-2.86 8.914-5.2 13.006-7.012 5.468-2.423 9.585-3.635 12.095-4.36z" paint-order="stroke fill markers"/>
        <path d="M161.729 186.755c-.272-.303 2.356-4.194 2.106-4.484-5.267-6.11-12.578-15.654-15.25-27.728-2.134-9.644-1.353-20.978 5.402-33.959l-.034.059c5.917-10.774 9.05-20.216 9.246-28.64.11-4.742-.72-8.841-2.155-12.437-1.873-4.699-4.706-8.345-7.294-11.136 2.606 2.81 5.223 6.597 6.683 11.352 1.111 3.62 1.502 7.624.943 12.09-.987 7.885-4.84 16.535-11.376 26.384l.018-.027-.052.085c-8.12 13.354-10.322 25.953-8.656 37.534 2.062 14.344 9.896 25.688 15.642 32.355.275.32 4.505-1.75 4.777-1.449z"/>
        <path d="M150.203 65.88c1.422 3.781 2.605 8.758 2.303 13.994-.226 3.91-1.236 7.469-2.892 10.875-3.223 6.628-10.86 14.878-13.408 18.22a49.52 49.52 0 0 0-.355.472c-1.339 1.8-3.55 5.07-5.533 8.864-2.076 3.97-4.022 8.708-5.092 14.265-1.11 5.76-1.152 11.724-.2 18.11.947 6.356 2.73 12.121 4.254 16.648-1.515-4.498-2.995-10.436-3.418-16.74-.427-6.364.275-12.098 1.965-17.358 1.621-5.05 4.001-9.191 6.337-12.637 2.059-3.036 4.811-6.496 5.928-7.997l.342-.464c1.273-1.737 3.793-5.302 5.793-8.49 2.21-3.525 4.413-7.536 5.807-11.935 1.24-3.91 1.738-7.787 1.498-11.835-.32-5.399-1.908-10.212-3.329-13.993zM95.509 185.68l-2.828-1.75c-2.104 3.404-4.324 8.312-5.3 14.254-.979 5.962-.55 12.022 1.297 17.629 1.572 4.767 3.989 8.665 6.685 11.632 3.604 3.964 7.25 5.808 9.676 6.856-2.46-1.062-5.801-3.394-8.642-7.665-2.12-3.19-3.74-7.142-4.494-11.633-.886-5.278-.468-10.603.958-15.617 1.429-5.023 3.641-8.992 5.475-11.958l-2.827-1.749z"/>
        <path d="M26.872 174.073c7.248 3.07 15.01 4.424 25.832 3.993 7.099-.283 16.049-1.422 23.982-.79 4.144.33 8.321 1.119 12.608 2.673 4.523 1.64 8.956 4.059 13.385 7.385 11.151 8.374 20.624 21.369 27.821 33.312.316.524-1.41 3.707-1.095 4.245-.315-.538-3.923-.524-4.232-1.035-7.104-11.788-15.67-24.215-25.633-32.556-3.91-3.273-7.8-5.73-11.79-7.515-3.788-1.695-7.563-2.739-11.44-3.372-7.68-1.254-16.14-.85-23.602-1.097-11.113-.367-18.474-2.125-25.836-5.243z"/>
        <path d="M228.106 174.187c-7.362 3.118-14.724 4.876-25.837 5.244-7.461.246-15.922-.157-23.601 1.097-3.877.633-7.652 1.677-11.44 3.372-3.99 1.785-7.881 4.242-11.79 7.515-9.964 8.34-18.53 20.767-25.634 32.556-.308.51-3.917.496-4.232 1.034.315-.538-1.41-3.72-1.095-4.245 7.198-11.943 16.67-24.938 27.821-33.312 4.43-3.326 8.862-5.744 13.385-7.384 4.287-1.555 8.465-2.343 12.608-2.673 7.934-.632 16.884.507 23.982.79 10.823.43 18.584-.924 25.833-3.994z"/>
    </g>
</svg>
