<?xml version="1.0" encoding="UTF-8" standalone="no"?>
<!-- Created with Inkscape (http://www.inkscape.org/) -->

<svg
   xmlns:dc="http://purl.org/dc/elements/1.1/"
   xmlns:cc="http://creativecommons.org/ns#"
   xmlns:rdf="http://www.w3.org/1999/02/22-rdf-syntax-ns#"
   xmlns:svg="http://www.w3.org/2000/svg"
   xmlns="http://www.w3.org/2000/svg"
   xmlns:sodipodi="http://sodipodi.sourceforge.net/DTD/sodipodi-0.dtd"
   xmlns:inkscape="http://www.inkscape.org/namespaces/inkscape"
   width="100%"
   height="100%"
   viewBox="0 0 64.000001 64.000001"
   id="svg4311"
   version="1.1"
   inkscape:version="0.91 r13725"
   sodipodi:docname="essenceAngel.svg">
  <defs
     id="defs4313">
    <inkscape:path-effect
       effect="powerstroke"
       id="path-effect4155"
       is_visible="true"
       offset_points="0.92799346,1.2886104"
       sort_points="true"
       interpolator_type="Linear"
       interpolator_beta="0.2"
       start_linecap_type="zerowidth"
       linejoin_type="round"
       miter_limit="4"
       end_linecap_type="zerowidth"
       cusp_linecap_type="round" />
    <inkscape:path-effect
       effect="powerstroke"
       id="path-effect4151"
       is_visible="true"
       offset_points="0,0.5"
       sort_points="true"
       interpolator_type="CubicBezierJohan"
       interpolator_beta="0.2"
       start_linecap_type="zerowidth"
       linejoin_type="round"
       miter_limit="4"
       end_linecap_type="zerowidth"
       cusp_linecap_type="round" />
    <inkscape:path-effect
       effect="powerstroke"
       id="path-effect4147"
       is_visible="true"
       offset_points="0,0.5"
       sort_points="true"
       interpolator_type="CubicBezierJohan"
       interpolator_beta="0.2"
       start_linecap_type="zerowidth"
       linejoin_type="round"
       miter_limit="4"
       end_linecap_type="zerowidth"
       cusp_linecap_type="round" />
    <inkscape:path-effect
       effect="powerstroke"
       id="path-effect4183"
       is_visible="true"
       offset_points="0.238227,0.51804536"
       sort_points="true"
       interpolator_type="Linear"
       interpolator_beta="0.2"
       start_linecap_type="zerowidth"
       linejoin_type="round"
       miter_limit="4"
       end_linecap_type="zerowidth"
       cusp_linecap_type="round" />
    <inkscape:path-effect
       effect="powerstroke"
       id="path-effect4258"
       is_visible="true"
       offset_points="0.26733603,0.17738073"
       sort_points="true"
       interpolator_type="Linear"
       interpolator_beta="0.2"
       start_linecap_type="zerowidth"
       linejoin_type="round"
       miter_limit="4"
       end_linecap_type="zerowidth"
       cusp_linecap_type="round" />
  </defs>
  <sodipodi:namedview
     id="base"
     pagecolor="#ffffff"
     bordercolor="#666666"
     borderopacity="1.0"
     inkscape:pageopacity="0.0"
     inkscape:pageshadow="2"
     inkscape:zoom="11.2"
     inkscape:cx="16.456375"
     inkscape:cy="26.843577"
     inkscape:document-units="px"
     inkscape:current-layer="layer5"
     showgrid="false"
     units="px"
     inkscape:window-width="2560"
     inkscape:window-height="1388"
     inkscape:window-x="-8"
     inkscape:window-y="-8"
     inkscape:window-maximized="1"
     showguides="false" />
  <metadata
     id="metadata4316">
    <rdf:RDF>
      <cc:Work
         rdf:about="">
        <dc:format>image/svg+xml</dc:format>
        <dc:type
           rdf:resource="http://purl.org/dc/dcmitype/StillImage" />
        <dc:title />
      </cc:Work>
    </rdf:RDF>
  </metadata>
  <g
     inkscape:groupmode="layer"
     id="layer5"
     inkscape:label="Stage5"
     style="display:inline;opacity:1">
    <path
       sodipodi:type="star"
       style="fill:#ff8080;fill-opacity:1;stroke:#000000;stroke-width:0.73031849;stroke-linecap:round;stroke-miterlimit:4;stroke-dasharray:none;stroke-dashoffset:0;stroke-opacity:1"
       id="path4168"
       sodipodi:sides="5"
       sodipodi:cx="1.4285713"
       sodipodi:cy="-9.5714273"
       sodipodi:r1="17.431536"
       sodipodi:r2="14.102408"
       sodipodi:arg1="0.90885469"
       sodipodi:arg2="1.5371732"
       inkscape:flatsided="true"
       inkscape:rounded="0"
       inkscape:randomized="0"
       d="M 12.142857,4.1785731 -8.3375598,4.867448 -15.321516,-14.397712 0.8425794,-26.993111 17.816495,-15.512335 Z"
       inkscape:transform-center-x="0.97927869"
       inkscape:transform-center-y="-3.2456342"
       transform="matrix(1.5645444,0.05692315,-0.03980006,1.6319874,29.685873,48.596329)" />
    <g
       id="g4274"
       transform="matrix(0.6983373,0,0,0.6983373,76.145121,4.1435037)"
       style="fill:#ff2a2a">
      <path
         sodipodi:nodetypes="sscscscscscscscssss"
         inkscape:connector-curvature="0"
         id="path4161-8"
         d="m -63.129971,53.660477 c 0.971162,0.078 -2.734665,6.7218 -5.021778,7.7816 -0.540716,0.2506 -0.338629,-0.9311 -0.244987,-3.3391 -1.76462,2.5048 -3.697438,4.6128 -5.160522,4.9933 -0.868653,0.2259 -0.07953,-3.1788 0.230749,-4.6995 -1.600839,1.6909 -4.452431,3.114 -6.429695,2.886 -0.970437,-0.1123 2.791812,-2.8361 3.360827,-4.9102 -2.057549,1.4562 -6.173577,1.9432 -8.021577,1.1454 -1.087437,-0.4694 2.849464,-1.572 4.365082,-3.0389 -3.871258,0.203 -6.898091,-1.991 -7.787106,-3.0181 -0.918726,-1.0614 2.662405,-0.8113 5.567066,-2.0096 -3.471753,-0.197 -6.323331,-1.156 -8.761398,-4.8233 -0.784736,-1.1804 4.206197,0.8878 7.259625,-0.7268 -6.059976,-1.5596 -8.988248,-6.2298 -8.670181,-7.0668 0.330122,-0.8686 2.250711,1.2764 7.298984,1.8433 -7.257291,-3.2264 -8.732249,-11.4155 -6.408389,-13.8541 0.778176,-0.8166 3.606616,9.9836 12.448167,9.2834 7.243089,-0.5735 6.390083,2.2131 5.45212,4.8319 -4.250063,11.8659 4.642464,14.2515 10.523013,14.7215 z"
         style="display:inline;fill:#ff2a2a;fill-opacity:1;fill-rule:evenodd;stroke:none;stroke-width:0.5;stroke-linecap:butt;stroke-linejoin:miter;stroke-miterlimit:4;stroke-dasharray:none;stroke-opacity:1" />
      <path
         style="display:inline;fill:#ff2a2a;fill-opacity:1;fill-rule:evenodd;stroke:none;stroke-width:0.5;stroke-linecap:butt;stroke-linejoin:miter;stroke-miterlimit:4;stroke-dasharray:none;stroke-opacity:1"
         d="m -61.876407,53.624577 c -0.971161,0.078 2.734667,6.7218 5.021783,7.7816 0.540719,0.2506 0.338618,-0.9311 0.244976,-3.3391 1.764629,2.5048 3.697451,4.6128 5.160531,4.9933 0.868655,0.2259 0.07949,-3.1788 -0.230749,-4.6995 1.600837,1.6909 4.45243,3.114 6.429692,2.886 0.970437,-0.1123 -2.791813,-2.8361 -3.360825,-4.9102 2.057547,1.4562 6.173575,1.9432 8.021576,1.1454 1.087437,-0.4694 -2.849465,-1.572 -4.365083,-3.0389 3.871258,0.203 6.898092,-1.991 7.787106,-3.0181 0.918726,-1.0614 -2.662404,-0.8113 -5.567066,-2.0096 3.471754,-0.197 6.323331,-1.156 8.761399,-4.8233 0.784735,-1.1804 -4.206198,0.8878 -7.259625,-0.7268 6.059975,-1.5596 8.988248,-6.2298 8.670181,-7.0668 -0.330123,-0.8686 -2.250711,1.2764 -7.298984,1.8433 7.25729,-3.2264 8.732249,-11.4153 6.408389,-13.854 -0.778176,-0.8167 -3.606617,9.9835 -12.448168,9.2833 -7.243091,-0.5735 -6.390082,2.2131 -5.452119,4.8319 4.250061,11.8659 -4.64246,14.2515 -10.523014,14.7215 z"
         id="path4235"
         inkscape:connector-curvature="0"
         sodipodi:nodetypes="sscscscscscscscssss" />
      <path
         inkscape:connector-curvature="0"
         id="path4239"
         d="m -62.402567,39.187777 a 7.4506458,3.4338133 0 0 0 -7.450762,3.4339 7.4506458,3.4338133 0 0 0 7.450762,3.4339 7.4506458,3.4338133 0 0 0 7.450762,-3.4339 7.4506458,3.4338133 0 0 0 -7.450762,-3.4339 z m -0.01152,1.0849 a 6.5067731,2.6483539 0 0 1 6.507152,2.649 6.5067731,2.6483539 0 0 1 -6.507152,2.6491 6.5067731,2.6483539 0 0 1 -6.507151,-2.6491 6.5067731,2.6483539 0 0 1 6.507151,-2.649 z"
         style="display:inline;opacity:1;fill:#ff2a2a;fill-opacity:1;stroke:none;stroke-width:0.25;stroke-linecap:round;stroke-linejoin:miter;stroke-miterlimit:4;stroke-dasharray:none;stroke-dashoffset:0;stroke-opacity:1" />
    </g>
    <flowRoot
       xml:space="preserve"
       id="flowRoot4156"
       style="fill:black;stroke:none;stroke-opacity:1;stroke-width:1px;stroke-linejoin:miter;stroke-linecap:butt;fill-opacity:1;font-family:sans-serif;font-style:normal;font-weight:normal;font-size:40px;line-height:125%;letter-spacing:0px;word-spacing:0px"><flowRegion
         id="flowRegion4158"><rect
           id="rect4160"
           width="42.678944"
           height="44.067905"
           x="6.5659914"
           y="11.21953" /></flowRegion><flowPara
         id="flowPara4162" /></flowRoot>    <flowRoot
       xml:space="preserve"
       id="flowRoot4168"
       style="fill:black;stroke:none;stroke-opacity:1;stroke-width:1px;stroke-linejoin:miter;stroke-linecap:butt;fill-opacity:1;font-family:sans-serif;font-style:normal;font-weight:normal;font-size:40px;line-height:125%;letter-spacing:0px;word-spacing:0px"><flowRegion
         id="flowRegion4170"><rect
           id="rect4172"
           width="63.765881"
           height="63.63961"
           x="0.25253814"
           y="-0.27095523" /></flowRegion><flowPara
         id="flowPara4174" /></flowRoot>    <text
       xml:space="preserve"
       style="font-style:normal;font-weight:normal;font-size:40px;line-height:125%;font-family:sans-serif;letter-spacing:0px;word-spacing:0px;fill:#000000;fill-opacity:1;stroke:none;stroke-width:1px;stroke-linecap:butt;stroke-linejoin:miter;stroke-opacity:1"
       x="38.482143"
       y="27.125002"
       id="text4158"
       sodipodi:linespacing="125%"><tspan
         sodipodi:role="line"
         id="tspan4160"
         x="38.482143"
         y="27.125002" /></text>
    <path
       style="display:inline;opacity:1;fill:#f9f9f9;fill-opacity:1;fill-rule:evenodd;stroke:none;stroke-width:1px;stroke-linecap:butt;stroke-linejoin:miter;stroke-opacity:1"
       d="M 32.58813,6.8299461 C 43.141652,14.150158 45.68552,16.35403 56.6841,24.88989 47.793699,22.27626 34.541579,9.5048609 32.58813,6.8299461 Z"
       id="path4281-0"
       inkscape:connector-curvature="0"
       sodipodi:nodetypes="ccc" />
    <path
       style="display:inline;opacity:1;fill:#000000;fill-opacity:0.44859811;fill-rule:evenodd;stroke:none;stroke-width:1px;stroke-linecap:butt;stroke-linejoin:miter;stroke-opacity:1"
       d="M 48.528934,55.968492 C 36.350582,56.180178 24.675347,56.047986 16.557409,55.981412 13.168111,46.178694 9.9127758,35.093102 6.3878346,24.118699 11.878755,36.064798 12.7552,43.733966 21.138496,50.327266 c 6.025034,4.738571 15.106093,4.469879 27.390438,5.641226 z"
       id="path4283-0"
       inkscape:connector-curvature="0"
       sodipodi:nodetypes="cccsc" />
  </g>
</svg>
