<?xml version="1.0" encoding="UTF-8" standalone="no"?>
<!-- Created with Inkscape (http://www.inkscape.org/) -->

<svg
   xmlns:dc="http://purl.org/dc/elements/1.1/"
   xmlns:cc="http://creativecommons.org/ns#"
   xmlns:rdf="http://www.w3.org/1999/02/22-rdf-syntax-ns#"
   xmlns:svg="http://www.w3.org/2000/svg"
   xmlns="http://www.w3.org/2000/svg"
   xmlns:sodipodi="http://sodipodi.sourceforge.net/DTD/sodipodi-0.dtd"
   xmlns:inkscape="http://www.inkscape.org/namespaces/inkscape"
   width="100%"
   height="100%"
   viewBox="0 0 64.000001 64.000001"
   id="svg4311"
   version="1.1"
   inkscape:version="0.91 r13725"
   sodipodi:docname="modifier_circle_orifice_ribbed.svg">
  <defs
     id="defs4313">
    <pattern
       y="0"
       x="0"
       height="6"
       width="6"
       patternUnits="userSpaceOnUse"
       id="EMFhbasepattern" />
  </defs>
  <sodipodi:namedview
     id="base"
     pagecolor="#ffffff"
     bordercolor="#666666"
     borderopacity="1.0"
     inkscape:pageopacity="0.0"
     inkscape:pageshadow="2"
     inkscape:zoom="22.627416"
     inkscape:cx="33.472731"
     inkscape:cy="27.463506"
     inkscape:document-units="px"
     inkscape:current-layer="layer1"
     showgrid="false"
     units="px"
     inkscape:window-width="2560"
     inkscape:window-height="1388"
     inkscape:window-x="-8"
     inkscape:window-y="-8"
     inkscape:window-maximized="1" />
  <metadata
     id="metadata4316">
    <rdf:RDF>
      <cc:Work
         rdf:about="">
        <dc:format>image/svg+xml</dc:format>
        <dc:type
           rdf:resource="http://purl.org/dc/dcmitype/StillImage" />
        <dc:title></dc:title>
      </cc:Work>
    </rdf:RDF>
  </metadata>
  <g
     inkscape:label="Layer 1"
     inkscape:groupmode="layer"
     id="layer1"
     transform="translate(0,-988.36216)"
     style="display:inline">
    <ellipse
       style="fill:#ff8080;fill-opacity:1;stroke:#000000;stroke-width:1;stroke-linecap:round;stroke-linejoin:round;stroke-miterlimit:4;stroke-dasharray:none;stroke-dashoffset:0;stroke-opacity:1"
       id="path4279"
       cx="31.860863"
       cy="1021.1718"
       rx="23.947079"
       ry="23.607878" />
    <path
       style="fill:#f9f9f9;fill-opacity:1;fill-rule:evenodd;stroke:none;stroke-width:1px;stroke-linecap:butt;stroke-linejoin:miter;stroke-opacity:1"
       d="m 33.182662,1000.6875 c 8.461942,1.1166 16.42753,3.7425 20.24587,18.9804 -11.689625,-16.7044 -13.195655,-13.7536 -20.24587,-18.9804 z"
       id="path4281"
       inkscape:connector-curvature="0"
       sodipodi:nodetypes="ccc" />
    <path
       style="fill:#000000;fill-opacity:0.44859811;fill-rule:evenodd;stroke:none;stroke-width:1px;stroke-linecap:butt;stroke-linejoin:miter;stroke-opacity:1"
       d="m 42.086563,1042.0758 c -21.987729,9.2736 -40.5847709,-11.5345 -31.665685,-30.3782 0.167726,16.1371 12.615755,31.9922 31.665685,30.3782 z"
       id="path4283"
       inkscape:connector-curvature="0"
       sodipodi:nodetypes="ccc" />
    <g
       id="g4245"
       transform="translate(-0.44194176,-0.88388349)">
      <path
         inkscape:connector-curvature="0"
         id="path4191"
         d="m 32.1875,1027.1454 a 14.279525,4.1857743 0 0 0 -14.279297,4.1855 14.279525,4.1857743 0 0 0 14.279297,4.1856 14.279525,4.1857743 0 0 0 14.279297,-4.1856 14.279525,4.1857743 0 0 0 -14.279297,-4.1855 z m -0.0625,1.6191 a 11.42362,2.5973184 0 0 1 11.423828,2.5977 11.42362,2.5973184 0 0 1 -11.423828,2.5976 11.42362,2.5973184 0 0 1 -11.423828,-2.5976 11.42362,2.5973184 0 0 1 11.423828,-2.5977 z"
         style="fill:#ff5555;fill-opacity:1;stroke:#000000;stroke-width:1;stroke-linecap:round;stroke-linejoin:bevel;stroke-miterlimit:4;stroke-dasharray:none;stroke-dashoffset:0;stroke-opacity:1" />
      <path
         id="path4191-8"
         d="m 32.467555,1021.7679 a 14.279525,4.1857743 0 0 0 -14.279297,4.1855 14.279525,4.1857743 0 0 0 14.279297,4.1856 14.279525,4.1857743 0 0 0 14.279297,-4.1856 14.279525,4.1857743 0 0 0 -14.279297,-4.1855 z m -0.0625,1.6191 a 11.42362,2.5973184 0 0 1 11.423828,2.5977 11.42362,2.5973184 0 0 1 -11.423828,2.5976 11.42362,2.5973184 0 0 1 -11.423828,-2.5976 11.42362,2.5973184 0 0 1 11.423828,-2.5977 z"
         style="display:inline;fill:#ff5555;fill-opacity:1;stroke:#000000;stroke-width:1;stroke-linecap:round;stroke-linejoin:bevel;stroke-miterlimit:4;stroke-dasharray:none;stroke-dashoffset:0;stroke-opacity:1"
         inkscape:connector-curvature="0" />
      <path
         id="path4191-6"
         d="m 32.386748,1016.2417 a 14.279525,4.1857743 0 0 0 -14.279297,4.1856 14.279525,4.1857743 0 0 0 14.279297,4.1855 14.279525,4.1857743 0 0 0 14.279297,-4.1855 14.279525,4.1857743 0 0 0 -14.279297,-4.1856 z m -0.0625,1.6192 a 11.42362,2.5973184 0 0 1 11.423828,2.5976 11.42362,2.5973184 0 0 1 -11.423828,2.5977 11.42362,2.5973184 0 0 1 -11.423828,-2.5977 11.42362,2.5973184 0 0 1 11.423828,-2.5976 z"
         style="display:inline;fill:#ff5555;fill-opacity:1;stroke:#000000;stroke-width:1;stroke-linecap:round;stroke-linejoin:bevel;stroke-miterlimit:4;stroke-dasharray:none;stroke-dashoffset:0;stroke-opacity:1"
         inkscape:connector-curvature="0" />
      <path
         id="path4191-6-5"
         d="m 32.625002,1010.9266 a 14.279525,4.1857743 0 0 0 -14.279297,4.1856 14.279525,4.1857743 0 0 0 14.279297,4.1855 14.279525,4.1857743 0 0 0 14.279297,-4.1855 14.279525,4.1857743 0 0 0 -14.279297,-4.1856 z m -0.0625,1.6192 a 11.42362,2.5973184 0 0 1 11.423828,2.5976 11.42362,2.5973184 0 0 1 -11.423828,2.5977 11.42362,2.5973184 0 0 1 -11.423828,-2.5977 11.42362,2.5973184 0 0 1 11.423828,-2.5976 z"
         style="display:inline;fill:#ff5555;fill-opacity:1;stroke:#000000;stroke-width:1;stroke-linecap:round;stroke-linejoin:bevel;stroke-miterlimit:4;stroke-dasharray:none;stroke-dashoffset:0;stroke-opacity:1"
         inkscape:connector-curvature="0" />
    </g>
  </g>
</svg>
