<?xml version="1.0" encoding="UTF-8" standalone="no"?>
<!-- Created with Inkscape (http://www.inkscape.org/) -->

<svg
   xmlns:dc="http://purl.org/dc/elements/1.1/"
   xmlns:cc="http://creativecommons.org/ns#"
   xmlns:rdf="http://www.w3.org/1999/02/22-rdf-syntax-ns#"
   xmlns:svg="http://www.w3.org/2000/svg"
   xmlns="http://www.w3.org/2000/svg"
   xmlns:sodipodi="http://sodipodi.sourceforge.net/DTD/sodipodi-0.dtd"
   xmlns:inkscape="http://www.inkscape.org/namespaces/inkscape"
   width="100%"
   height="100%"
   viewBox="0 0 64.000001 64.000001"
   id="svg4311"
   version="1.1"
   inkscape:version="0.91 r13725"
   sodipodi:docname="modifier_circle_penis_knotted.svg">
  <defs
     id="defs4313">
    <inkscape:path-effect
       effect="powerstroke"
       id="path-effect4208"
       is_visible="true"
       offset_points="0.4508179,0.19568827"
       sort_points="true"
       interpolator_type="Linear"
       interpolator_beta="0.2"
       start_linecap_type="zerowidth"
       linejoin_type="round"
       miter_limit="4"
       end_linecap_type="zerowidth"
       cusp_linecap_type="round" />
    <inkscape:path-effect
       effect="powerstroke"
       id="path-effect4204"
       is_visible="true"
       offset_points="0,0.5739992"
       sort_points="true"
       interpolator_type="CubicBezierJohan"
       interpolator_beta="0.2"
       start_linecap_type="zerowidth"
       linejoin_type="round"
       miter_limit="4"
       end_linecap_type="zerowidth"
       cusp_linecap_type="round" />
    <inkscape:path-effect
       effect="powerstroke"
       id="path-effect4200"
       is_visible="true"
       offset_points="0,0.5739992"
       sort_points="true"
       interpolator_type="CubicBezierJohan"
       interpolator_beta="0.2"
       start_linecap_type="zerowidth"
       linejoin_type="round"
       miter_limit="4"
       end_linecap_type="zerowidth"
       cusp_linecap_type="round" />
    <inkscape:path-effect
       effect="powerstroke"
       id="path-effect4194"
       is_visible="true"
       offset_points="0,0.5"
       sort_points="true"
       interpolator_type="CubicBezierJohan"
       interpolator_beta="0.2"
       start_linecap_type="zerowidth"
       linejoin_type="round"
       miter_limit="4"
       end_linecap_type="zerowidth"
       cusp_linecap_type="round" />
    <inkscape:path-effect
       effect="powerstroke"
       id="path-effect4188"
       is_visible="true"
       offset_points="0.5179533,0.3895235"
       sort_points="true"
       interpolator_type="Linear"
       interpolator_beta="0.2"
       start_linecap_type="zerowidth"
       linejoin_type="round"
       miter_limit="4"
       end_linecap_type="zerowidth"
       cusp_linecap_type="round" />
    <inkscape:path-effect
       effect="powerstroke"
       id="path-effect4162"
       is_visible="true"
       offset_points="0.047236572,0.21241752"
       sort_points="true"
       interpolator_type="Linear"
       interpolator_beta="0.2"
       start_linecap_type="zerowidth"
       linejoin_type="round"
       miter_limit="4"
       end_linecap_type="zerowidth"
       cusp_linecap_type="round" />
    <inkscape:path-effect
       effect="powerstroke"
       id="path-effect4158"
       is_visible="true"
       offset_points="0.025040308,0.20264143"
       sort_points="true"
       interpolator_type="Linear"
       interpolator_beta="0.2"
       start_linecap_type="zerowidth"
       linejoin_type="round"
       miter_limit="4"
       end_linecap_type="zerowidth"
       cusp_linecap_type="round" />
    <pattern
       y="0"
       x="0"
       height="6"
       width="6"
       patternUnits="userSpaceOnUse"
       id="EMFhbasepattern" />
  </defs>
  <sodipodi:namedview
     id="base"
     pagecolor="#ffffff"
     bordercolor="#666666"
     borderopacity="1.0"
     inkscape:pageopacity="0.0"
     inkscape:pageshadow="2"
     inkscape:zoom="7.9999996"
     inkscape:cx="38.294044"
     inkscape:cy="34.103004"
     inkscape:document-units="px"
     inkscape:current-layer="layer1"
     showgrid="false"
     units="px"
     inkscape:window-width="2560"
     inkscape:window-height="1388"
     inkscape:window-x="-8"
     inkscape:window-y="-8"
     inkscape:window-maximized="1" />
  <metadata
     id="metadata4316">
    <rdf:RDF>
      <cc:Work
         rdf:about="">
        <dc:format>image/svg+xml</dc:format>
        <dc:type
           rdf:resource="http://purl.org/dc/dcmitype/StillImage" />
        <dc:title />
      </cc:Work>
    </rdf:RDF>
  </metadata>
  <g
     inkscape:label="Layer 1"
     inkscape:groupmode="layer"
     id="layer1"
     transform="translate(0,-988.36216)"
     style="display:inline">
    <ellipse
       style="fill:#ff8080;fill-opacity:1;stroke:#000000;stroke-width:1;stroke-linecap:round;stroke-linejoin:round;stroke-miterlimit:4;stroke-dasharray:none;stroke-dashoffset:0;stroke-opacity:1"
       id="path4279"
       cx="31.860863"
       cy="1021.1718"
       rx="23.947079"
       ry="23.607878" />
    <path
       style="fill:#f9f9f9;fill-opacity:1;fill-rule:evenodd;stroke:none;stroke-width:1px;stroke-linecap:butt;stroke-linejoin:miter;stroke-opacity:1"
       d="m 33.182662,1000.6875 c 8.461942,1.1166 16.42753,3.7425 20.24587,18.9804 -11.689625,-16.7044 -13.195655,-13.7536 -20.24587,-18.9804 z"
       id="path4281"
       inkscape:connector-curvature="0"
       sodipodi:nodetypes="ccc" />
    <path
       style="fill:#000000;fill-opacity:0.44859811;fill-rule:evenodd;stroke:none;stroke-width:1px;stroke-linecap:butt;stroke-linejoin:miter;stroke-opacity:1"
       d="m 42.086563,1042.0758 c -21.987729,9.2736 -40.5847709,-11.5345 -31.665685,-30.3782 0.167726,16.1371 12.615755,31.9922 31.665685,30.3782 z"
       id="path4283"
       inkscape:connector-curvature="0"
       sodipodi:nodetypes="ccc" />
    <g
       id="g4178"
       transform="matrix(0.64963666,0.76024484,-0.76024484,0.64963666,856.98377,395.91148)">
      <path
         sodipodi:nodetypes="ccsscccsssccssscc"
         inkscape:connector-curvature="0"
         id="path4170"
         d="m -63.027693,1033.7312 c -0.976482,0.5179 -1.760593,0.9203 -2.600622,1.3563 l -14.590439,0.025 c -2.131181,0 -2.189159,-3.5934 0.03125,-3.5934 l 15.193513,10e-5 z m 2.702638,-4.8244 c 1.919961,-1.2964 4.013923,-2.3145 6.075053,-2.2948 6.107061,0.058 6.569917,4.522 6.625,6.875 0.08776,3.7487 -2.511938,6.6495 -6.65625,6.6874 -3.005714,0.028 -4.541667,-1.1874 -5.437501,-2.2812 1.096714,-0.6764 2.190994,-1.3748 3.328125,-1.6874 0.577287,0.1565 1.126829,0.2607 1.859376,0.2812 2.554883,0.071 3.170073,-1.6427 3.1875,-2.9375 0.03071,-2.2813 -1.24417,-3.5141 -2.9375,-3.4688 -1.002829,0.027 -2.020957,0.026 -3.83305,1.3673 -0.435808,-0.5848 -1.663265,-1.9967 -2.210753,-2.5412 z"
         style="fill:#ff5555;fill-rule:evenodd;stroke:#000000;stroke-width:0.5;stroke-linecap:butt;stroke-linejoin:miter;stroke-miterlimit:4;stroke-dasharray:none;stroke-opacity:1" />
      <path
         sodipodi:nodetypes="ccssccscc"
         inkscape:connector-curvature="0"
         id="path4172"
         d="m -52.656252,1031.4403 c 0.783419,0.8623 0.615295,2.7992 0.03125,3.7188 -0.589011,0.01 -1.075559,0.037 -2.03125,0.047 -4.179975,0.046 -7.95645,5.0485 -13.250001,5.125 -3.492231,0.05 -6.279529,-2.7412 -6.34375,-4.6093 l 4.140625,-0.031 c 0,0 0.757845,0.972 2.140625,0.9219 2.643777,-0.096 6.773481,-3.6593 11.683561,-4.9625 1.590338,-0.332 2.291867,-0.1711 3.62894,-0.21 z"
         style="fill:#ff5555;fill-opacity:1;fill-rule:evenodd;stroke:#000000;stroke-width:0.5;stroke-linecap:butt;stroke-linejoin:miter;stroke-miterlimit:4;stroke-dasharray:none;stroke-opacity:1" />
      <path
         sodipodi:nodetypes="csccscc"
         inkscape:connector-curvature="0"
         id="path4174"
         d="m -74.250003,1030.8309 c -0.130034,-1.3372 2.325148,-4.5293 6.28125,-4.5625 4.837036,-0.041 7.996741,3.9647 9.140625,5.4687 -1.125602,0.3448 -2.51441,0.9477 -3.515625,1.7344 -1.317708,-1.3541 -2.066737,-3.4812 -5.484375,-3.4374 -1.4632,0.019 -1.923074,0.3415 -1.984375,0.8437 z"
         style="fill:#ff5555;fill-opacity:1;fill-rule:evenodd;stroke:#000000;stroke-width:0.5;stroke-linecap:butt;stroke-linejoin:miter;stroke-miterlimit:4;stroke-dasharray:none;stroke-opacity:1" />
      <path
         sodipodi:nodetypes="ccssc"
         inkscape:connector-curvature="0"
         id="path4176"
         d="m -47.031252,1031.3309 c 0.35188,1.4479 0.343125,2.5521 0.0625,4.0781 l 6.3125,0.062 c 1.84741,0.018 2.050034,-4.1616 -0.09375,-4.1562 z"
         style="fill:#ff5555;fill-opacity:1;fill-rule:evenodd;stroke:#000000;stroke-width:0.5;stroke-linecap:butt;stroke-linejoin:miter;stroke-miterlimit:4;stroke-dasharray:none;stroke-opacity:1" />
    </g>
  </g>
</svg>
