<?xml version="1.0" encoding="UTF-8" standalone="no"?>
<!-- Created with Inkscape (http://www.inkscape.org/) -->

<svg
   xmlns:dc="http://purl.org/dc/elements/1.1/"
   xmlns:cc="http://creativecommons.org/ns#"
   xmlns:rdf="http://www.w3.org/1999/02/22-rdf-syntax-ns#"
   xmlns:svg="http://www.w3.org/2000/svg"
   xmlns="http://www.w3.org/2000/svg"
   xmlns:sodipodi="http://sodipodi.sourceforge.net/DTD/sodipodi-0.dtd"
   xmlns:inkscape="http://www.inkscape.org/namespaces/inkscape"
   width="100%"
   height="100%"
   viewBox="0 0 64.000001 64.000001"
   id="svg4311"
   version="1.1"
   inkscape:version="0.91 r13725"
   sodipodi:docname="modifier_circle_intelligence.svg">
  <defs
     id="defs4313">
    <pattern
       y="0"
       x="0"
       height="6"
       width="6"
       patternUnits="userSpaceOnUse"
       id="EMFhbasepattern" />
  </defs>
  <sodipodi:namedview
     id="base"
     pagecolor="#ffffff"
     bordercolor="#666666"
     borderopacity="1.0"
     inkscape:pageopacity="0.0"
     inkscape:pageshadow="2"
     inkscape:zoom="5.656854"
     inkscape:cx="55.784646"
     inkscape:cy="21.424603"
     inkscape:document-units="px"
     inkscape:current-layer="layer1"
     showgrid="false"
     units="px"
     inkscape:window-width="2560"
     inkscape:window-height="1388"
     inkscape:window-x="-8"
     inkscape:window-y="-8"
     inkscape:window-maximized="1" />
  <metadata
     id="metadata4316">
    <rdf:RDF>
      <cc:Work
         rdf:about="">
        <dc:format>image/svg+xml</dc:format>
        <dc:type
           rdf:resource="http://purl.org/dc/dcmitype/StillImage" />
        <dc:title></dc:title>
      </cc:Work>
    </rdf:RDF>
  </metadata>
  <g
     inkscape:label="Layer 1"
     inkscape:groupmode="layer"
     id="layer1"
     transform="translate(0,-988.36216)"
     style="display:inline">
    <ellipse
       style="fill:#ff8080;fill-opacity:1;stroke:#000000;stroke-width:1;stroke-linecap:round;stroke-linejoin:round;stroke-miterlimit:4;stroke-dasharray:none;stroke-dashoffset:0;stroke-opacity:1"
       id="path4279"
       cx="31.860863"
       cy="1021.1718"
       rx="23.947079"
       ry="23.607878" />
    <path
       style="fill:#f9f9f9;fill-opacity:1;fill-rule:evenodd;stroke:none;stroke-width:1px;stroke-linecap:butt;stroke-linejoin:miter;stroke-opacity:1"
       d="m 33.182662,1000.6875 c 8.461942,1.1166 16.42753,3.7425 20.24587,18.9804 -11.689625,-16.7044 -13.195655,-13.7536 -20.24587,-18.9804 z"
       id="path4281"
       inkscape:connector-curvature="0"
       sodipodi:nodetypes="ccc" />
    <path
       style="fill:#000000;fill-opacity:0.44859811;fill-rule:evenodd;stroke:none;stroke-width:1px;stroke-linecap:butt;stroke-linejoin:miter;stroke-opacity:1"
       d="m 42.086563,1042.0758 c -21.987729,9.2736 -40.5847709,-11.5345 -31.665685,-30.3782 0.167726,16.1371 12.615755,31.9922 31.665685,30.3782 z"
       id="path4283"
       inkscape:connector-curvature="0"
       sodipodi:nodetypes="ccc" />
    <g
       id="g4266"
       transform="matrix(2.3579477,0,0,2.3579477,87.242882,-1425.9657)"
       style="fill:#ff2a2a">
      <path
         style="fill:#ff2a2a;fill-opacity:1;fill-rule:evenodd;stroke:#000000;stroke-width:0.29633114px;stroke-linecap:butt;stroke-linejoin:miter;stroke-miterlimit:4;stroke-dasharray:none;stroke-opacity:1"
         d="m -22.35213,1040.6069 c 0.08467,1.8838 -1.185334,1.1007 -2.878639,3.8312 -0.635,0.6773 -1.926167,-0.127 -1.778,-0.5715 0.402167,-0.5715 0.508,-1.1219 0.6985,-1.7145 -2.666983,0.9948 -3.915808,-2.0743 -3.428977,-2.794 0.23283,-1.1853 7.006116,-0.4445 7.387116,1.2488 z"
         id="path4141"
         inkscape:connector-curvature="0" />
      <path
         style="fill:#ff2a2a;fill-opacity:1;fill-rule:evenodd;stroke:#000000;stroke-width:0.29633114px;stroke-linecap:butt;stroke-linejoin:miter;stroke-miterlimit:4;stroke-dasharray:none;stroke-opacity:1"
         d="m -23.516297,1032.0133 c 0.804333,-0.508 1.756833,-0.2963 2.053167,-0.042 0.338666,-0.127 0.931305,0.127 1.164138,0.5503 2.243667,0.4869 2.899833,1.3124 2.921,2.2014 1.037138,0.8043 0.973638,2.0531 0.529138,2.6034 -0.1905,1.6722 -0.867805,2.2649 -1.756805,2.286 -0.740833,0.5504 -1.799166,0.4234 -2.0955,0.063 -0.825471,1.1219 -2.116638,0.9314 -2.539971,0.6985 -1.672139,0.2752 -3.047972,0.2329 -3.344306,-0.8678 -0.994833,0.381 -1.968485,0.1693 -2.116652,-0.063 -1.82032,0.4868 -1.926153,-1.5028 -1.608656,-2.1378 -0.550328,-1.4182 0.550331,-2.3707 0.973661,-2.4765 -0.42333,-0.8255 0.761995,-1.524 1.523989,-1.1853 0,-0.8679 0.888992,-1.3759 1.206492,-1.1219 0.592666,-1.3546 2.476472,-1.1218 3.090305,-0.508 z"
         id="path4143"
         inkscape:connector-curvature="0" />
      <path
         style="fill:#ff2a2a;fill-opacity:1;fill-rule:evenodd;stroke:none"
         d="m -26.352602,1042.3002 c 0.465666,-0.6773 0.5715,-1.3335 0.592666,-1.9896 z"
         id="path4145"
         inkscape:connector-curvature="0" />
      <path
         style="fill:#ff2a2a;stroke:#000000;stroke-width:0.29633114px;stroke-linecap:butt;stroke-linejoin:miter;stroke-miterlimit:4;stroke-dasharray:none;stroke-opacity:1"
         d="m -26.352602,1042.3002 c 0.465666,-0.6773 0.5715,-1.3335 0.592666,-1.9896"
         id="path4147"
         inkscape:connector-curvature="0" />
      <path
         style="fill:#ff2a2a;fill-opacity:1;fill-rule:evenodd;stroke:none"
         d="m -20.701159,1039.6968 c -0.486805,-0.6139 -0.529138,-0.7832 -0.592638,-1.1854 z"
         id="path4149"
         inkscape:connector-curvature="0" />
      <path
         style="fill:#ff2a2a;stroke:#000000;stroke-width:0.29633114px;stroke-linecap:butt;stroke-linejoin:miter;stroke-miterlimit:4;stroke-dasharray:none;stroke-opacity:1"
         d="m -20.701159,1039.6968 c -0.486805,-0.6139 -0.529138,-0.7832 -0.592638,-1.1854"
         id="path4151"
         inkscape:connector-curvature="0" />
      <path
         style="fill:#ff2a2a;fill-opacity:1;fill-rule:evenodd;stroke:none"
         d="m -16.827687,1037.2414 c -0.550305,-0.5714 -1.015972,-0.1058 -1.312305,0 z"
         id="path4153"
         inkscape:connector-curvature="0" />
      <path
         style="fill:#ff2a2a;stroke:#000000;stroke-width:0.29633114px;stroke-linecap:butt;stroke-linejoin:miter;stroke-miterlimit:4;stroke-dasharray:none;stroke-opacity:1"
         d="m -16.827687,1037.2414 c -0.550305,-0.5714 -1.015972,-0.1058 -1.312305,0"
         id="path4155"
         inkscape:connector-curvature="0" />
      <path
         style="fill:#ff2a2a;fill-opacity:1;fill-rule:evenodd;stroke:none"
         d="m -17.356825,1034.7438 c -0.402167,1.7145 -3.026834,0.2328 -3.873472,1.3758 z"
         id="path4157"
         inkscape:connector-curvature="0" />
      <path
         style="fill:#ff2a2a;stroke:#000000;stroke-width:0.29633114px;stroke-linecap:butt;stroke-linejoin:miter;stroke-miterlimit:4;stroke-dasharray:none;stroke-opacity:1"
         d="m -17.356825,1034.7438 c -0.402167,1.7145 -3.026834,0.2328 -3.873472,1.3758"
         id="path4159"
         inkscape:connector-curvature="0" />
      <path
         style="fill:#ff2a2a;fill-opacity:1;fill-rule:evenodd;stroke:none"
         d="m -19.367659,1035.654 c -0.402166,-0.1905 -0.9525,-0.2964 -0.973666,-0.6985 z"
         id="path4161"
         inkscape:connector-curvature="0" />
      <path
         style="fill:#ff2a2a;stroke:#000000;stroke-width:0.29633114px;stroke-linecap:butt;stroke-linejoin:miter;stroke-miterlimit:4;stroke-dasharray:none;stroke-opacity:1"
         d="m -19.367659,1035.654 c -0.402166,-0.1905 -0.9525,-0.2964 -0.973666,-0.6985"
         id="path4163"
         inkscape:connector-curvature="0" />
      <path
         style="fill:#ff2a2a;fill-opacity:1;fill-rule:evenodd;stroke:none"
         d="m -20.320159,1032.4578 c -1.164138,0.5292 -0.994805,1.4605 -0.592666,2.0108 z"
         id="path4165"
         inkscape:connector-curvature="0" />
      <path
         style="fill:#ff2a2a;stroke:#000000;stroke-width:0.29633114px;stroke-linecap:butt;stroke-linejoin:miter;stroke-miterlimit:4;stroke-dasharray:none;stroke-opacity:1"
         d="m -20.320159,1032.4578 c -1.164138,0.5292 -0.994805,1.4605 -0.592666,2.0108"
         id="path4167"
         inkscape:connector-curvature="0" />
      <path
         style="fill:#ff2a2a;fill-opacity:1;fill-rule:evenodd;stroke:none"
         d="m -21.20913,1033.7066 c -0.0635,0.085 -0.4445,0.4022 -0.8255,0.2752 z"
         id="path4169"
         inkscape:connector-curvature="0" />
      <path
         style="fill:#ff2a2a;stroke:#000000;stroke-width:0.29633114px;stroke-linecap:butt;stroke-linejoin:miter;stroke-miterlimit:4;stroke-dasharray:none;stroke-opacity:1"
         d="m -21.20913,1033.7066 c -0.0635,0.085 -0.4445,0.4022 -0.8255,0.2752"
         id="path4171"
         inkscape:connector-curvature="0" />
      <path
         style="fill:#ff2a2a;fill-opacity:1;fill-rule:evenodd;stroke:none"
         d="m -23.473964,1031.9498 c 0.148167,0.2964 -0.550333,3.3232 0.486834,3.4502 z"
         id="path4173"
         inkscape:connector-curvature="0" />
      <path
         style="fill:#ff2a2a;stroke:#000000;stroke-width:0.29633114px;stroke-linecap:butt;stroke-linejoin:miter;stroke-miterlimit:4;stroke-dasharray:none;stroke-opacity:1"
         d="m -23.473964,1031.9498 c 0.148167,0.2964 -0.550333,3.3232 0.486834,3.4502"
         id="path4175"
         inkscape:connector-curvature="0" />
      <path
         style="fill:#ff2a2a;fill-opacity:1;fill-rule:evenodd;stroke:none"
         d="m -23.600964,1033.7701 c -0.613833,-0.021 -0.719666,0.1694 -0.8255,0.4657 z"
         id="path4177"
         inkscape:connector-curvature="0" />
      <path
         style="fill:#ff2a2a;stroke:#000000;stroke-width:0.29633114px;stroke-linecap:butt;stroke-linejoin:miter;stroke-miterlimit:4;stroke-dasharray:none;stroke-opacity:1"
         d="m -23.600964,1033.7701 c -0.613833,-0.021 -0.719666,0.1694 -0.8255,0.4657"
         id="path4179"
         inkscape:connector-curvature="0" />
      <path
         style="fill:#ff2a2a;fill-opacity:1;fill-rule:evenodd;stroke:none"
         d="m -26.606602,1032.5213 c -0.423334,1.016 0.910166,1.905 0.910166,1.905 z"
         id="path4181"
         inkscape:connector-curvature="0" />
      <path
         style="fill:#ff2a2a;stroke:#000000;stroke-width:0.29633114px;stroke-linecap:butt;stroke-linejoin:miter;stroke-miterlimit:4;stroke-dasharray:none;stroke-opacity:1"
         d="m -26.606602,1032.5213 c -0.423334,1.016 0.910166,1.905 0.910166,1.905"
         id="path4183"
         inkscape:connector-curvature="0" />
      <path
         style="fill:#ff2a2a;fill-opacity:1;fill-rule:evenodd;stroke:none"
         d="m -27.770769,1033.7701 c -0.740819,0.889 0.740833,1.6722 1.058333,1.2489 z"
         id="path4185"
         inkscape:connector-curvature="0" />
      <path
         style="fill:#ff2a2a;stroke:#000000;stroke-width:0.29633114px;stroke-linecap:butt;stroke-linejoin:miter;stroke-miterlimit:4;stroke-dasharray:none;stroke-opacity:1"
         d="m -27.770769,1033.7701 c -0.740819,0.889 0.740833,1.6722 1.058333,1.2489"
         id="path4187"
         inkscape:connector-curvature="0" />
      <path
         style="fill:#ff2a2a;fill-opacity:1;fill-rule:evenodd;stroke:none"
         d="m -27.791927,1034.6803 c -0.08467,0.3387 -0.359831,0.4657 -0.0635,1.2065 z"
         id="path4189"
         inkscape:connector-curvature="0" />
      <path
         style="fill:#ff2a2a;stroke:#000000;stroke-width:0.29633114px;stroke-linecap:butt;stroke-linejoin:miter;stroke-miterlimit:4;stroke-dasharray:none;stroke-opacity:1"
         d="m -27.791927,1034.6803 c -0.08467,0.3387 -0.359831,0.4657 -0.0635,1.2065"
         id="path4191"
         inkscape:connector-curvature="0" />
      <path
         style="fill:#ff2a2a;fill-opacity:1;fill-rule:evenodd;stroke:none"
         d="m -30.374242,1037.1356 c 0.380996,0.4868 1.883818,-0.063 1.883818,-0.063 z"
         id="path4193"
         inkscape:connector-curvature="0" />
      <path
         style="fill:#ff2a2a;stroke:#000000;stroke-width:0.29633114px;stroke-linecap:butt;stroke-linejoin:miter;stroke-miterlimit:4;stroke-dasharray:none;stroke-opacity:1"
         d="m -30.374242,1037.1356 c 0.380996,0.4868 1.883818,-0.063 1.883818,-0.063"
         id="path4195"
         inkscape:connector-curvature="0" />
      <path
         style="fill:#ff2a2a;fill-opacity:1;fill-rule:evenodd;stroke:none"
         d="m -28.702088,1039.4428 c 0.973652,-0.2752 0.719661,-1.3759 0.719661,-1.3759 z"
         id="path4197"
         inkscape:connector-curvature="0" />
      <path
         style="fill:#ff2a2a;stroke:#000000;stroke-width:0.29633114px;stroke-linecap:butt;stroke-linejoin:miter;stroke-miterlimit:4;stroke-dasharray:none;stroke-opacity:1"
         d="m -28.702088,1039.4428 c 0.973652,-0.2752 0.719661,-1.3759 0.719661,-1.3759"
         id="path4199"
         inkscape:connector-curvature="0" />
      <path
         style="fill:#ff2a2a;fill-opacity:1;fill-rule:evenodd;stroke:none"
         d="m -26.077436,1040.2048 c 1.143,-0.254 0.973667,-0.8255 0.846667,-1.2277 z"
         id="path4201"
         inkscape:connector-curvature="0" />
      <path
         style="fill:#ff2a2a;stroke:#000000;stroke-width:0.29633114px;stroke-linecap:butt;stroke-linejoin:miter;stroke-miterlimit:4;stroke-dasharray:none;stroke-opacity:1"
         d="m -26.077436,1040.2048 c 1.143,-0.254 0.973667,-0.8255 0.846667,-1.2277"
         id="path4203"
         inkscape:connector-curvature="0" />
      <path
         style="fill:#ff2a2a;fill-opacity:1;fill-rule:evenodd;stroke:none"
         d="m -23.36813,1040.3953 c 0.296333,-1.5452 -0.4445,-1.7357 -0.4445,-1.7357 z"
         id="path4205"
         inkscape:connector-curvature="0" />
      <path
         style="fill:#ff2a2a;stroke:#000000;stroke-width:0.29633114px;stroke-linecap:butt;stroke-linejoin:miter;stroke-miterlimit:4;stroke-dasharray:none;stroke-opacity:1"
         d="m -23.36813,1040.3953 c 0.296333,-1.5452 -0.4445,-1.7357 -0.4445,-1.7357"
         id="path4207"
         inkscape:connector-curvature="0" />
      <path
         style="fill:#ff2a2a;fill-opacity:1;fill-rule:evenodd;stroke:none"
         d="m -24.235964,1035.6963 c 0.275167,0.6985 -1.015972,1.2488 0.867834,2.1378 z"
         id="path4209"
         inkscape:connector-curvature="0" />
      <path
         style="fill:#ff2a2a;stroke:#000000;stroke-width:0.29633114px;stroke-linecap:butt;stroke-linejoin:miter;stroke-miterlimit:4;stroke-dasharray:none;stroke-opacity:1"
         d="m -24.235964,1035.6963 c 0.275167,0.6985 -1.015972,1.2488 0.867834,2.1378"
         id="path4211"
         inkscape:connector-curvature="0" />
      <path
         style="fill:#ff2a2a;fill-opacity:1;fill-rule:evenodd;stroke:none"
         d="m -24.38413,1036.543 c -0.423334,0.6773 -0.698472,0.7831 -0.931306,0.8043 z"
         id="path4213"
         inkscape:connector-curvature="0" />
      <path
         style="fill:#ff2a2a;stroke:#000000;stroke-width:0.29633114px;stroke-linecap:butt;stroke-linejoin:miter;stroke-miterlimit:4;stroke-dasharray:none;stroke-opacity:1"
         d="m -24.38413,1036.543 c -0.423334,0.6773 -0.698472,0.7831 -0.931306,0.8043"
         id="path4215"
         inkscape:connector-curvature="0" />
      <path
         style="fill:#ff2a2a;fill-opacity:1;fill-rule:evenodd;stroke:none"
         d="m -18.605659,1038.4479 c -0.846666,-1.1853 -1.735666,-0.254 -2.857471,-1.1006 z"
         id="path4217"
         inkscape:connector-curvature="0" />
      <path
         style="fill:#ff2a2a;stroke:#000000;stroke-width:0.29633114px;stroke-linecap:butt;stroke-linejoin:miter;stroke-miterlimit:4;stroke-dasharray:none;stroke-opacity:1"
         d="m -18.605659,1038.4479 c -0.846666,-1.1853 -1.735666,-0.254 -2.857471,-1.1006"
         id="path4219"
         inkscape:connector-curvature="0" />
    </g>
  </g>
</svg>
