<?xml version="1.0" encoding="UTF-8" standalone="no"?>
<!-- Created with Inkscape (http://www.inkscape.org/) -->

<svg
   xmlns:dc="http://purl.org/dc/elements/1.1/"
   xmlns:cc="http://creativecommons.org/ns#"
   xmlns:rdf="http://www.w3.org/1999/02/22-rdf-syntax-ns#"
   xmlns:svg="http://www.w3.org/2000/svg"
   xmlns="http://www.w3.org/2000/svg"
   xmlns:sodipodi="http://sodipodi.sourceforge.net/DTD/sodipodi-0.dtd"
   xmlns:inkscape="http://www.inkscape.org/namespaces/inkscape"
   width="100%"
   height="100%"
   viewBox="0 0 64.000001 64.000001"
   id="svg4311"
   version="1.1"
   inkscape:version="0.91 r13725"
   sodipodi:docname="attributeSquirrelMorphDrink.svg">
  <defs
     id="defs4313">
    <inkscape:path-effect
       effect="powerstroke"
       id="path-effect4155"
       is_visible="true"
       offset_points="0.92799346,1.2886104"
       sort_points="true"
       interpolator_type="Linear"
       interpolator_beta="0.2"
       start_linecap_type="zerowidth"
       linejoin_type="round"
       miter_limit="4"
       end_linecap_type="zerowidth"
       cusp_linecap_type="round" />
    <inkscape:path-effect
       effect="powerstroke"
       id="path-effect4151"
       is_visible="true"
       offset_points="0,0.5"
       sort_points="true"
       interpolator_type="CubicBezierJohan"
       interpolator_beta="0.2"
       start_linecap_type="zerowidth"
       linejoin_type="round"
       miter_limit="4"
       end_linecap_type="zerowidth"
       cusp_linecap_type="round" />
    <inkscape:path-effect
       effect="powerstroke"
       id="path-effect4147"
       is_visible="true"
       offset_points="0,0.5"
       sort_points="true"
       interpolator_type="CubicBezierJohan"
       interpolator_beta="0.2"
       start_linecap_type="zerowidth"
       linejoin_type="round"
       miter_limit="4"
       end_linecap_type="zerowidth"
       cusp_linecap_type="round" />
    <inkscape:path-effect
       effect="powerstroke"
       id="path-effect4183"
       is_visible="true"
       offset_points="0.238227,0.51804536"
       sort_points="true"
       interpolator_type="Linear"
       interpolator_beta="0.2"
       start_linecap_type="zerowidth"
       linejoin_type="round"
       miter_limit="4"
       end_linecap_type="zerowidth"
       cusp_linecap_type="round" />
  </defs>
  <sodipodi:namedview
     id="base"
     pagecolor="#ffffff"
     bordercolor="#666666"
     borderopacity="1.0"
     inkscape:pageopacity="0.0"
     inkscape:pageshadow="2"
     inkscape:zoom="7.919596"
     inkscape:cx="68.615309"
     inkscape:cy="24.400935"
     inkscape:document-units="px"
     inkscape:current-layer="layer5"
     showgrid="false"
     units="px"
     inkscape:window-width="2560"
     inkscape:window-height="1388"
     inkscape:window-x="-8"
     inkscape:window-y="-8"
     inkscape:window-maximized="1"
     showguides="false" />
  <metadata
     id="metadata4316">
    <rdf:RDF>
      <cc:Work
         rdf:about="">
        <dc:format>image/svg+xml</dc:format>
        <dc:type
           rdf:resource="http://purl.org/dc/dcmitype/StillImage" />
        <dc:title></dc:title>
      </cc:Work>
    </rdf:RDF>
  </metadata>
  <g
     inkscape:groupmode="layer"
     id="layer5"
     inkscape:label="Stage5"
     style="display:inline;opacity:1">
    <ellipse
       style="display:inline;fill:#ff8080;fill-opacity:1;stroke:#000000;stroke-width:1.12779903;stroke-linecap:round;stroke-linejoin:round;stroke-miterlimit:4;stroke-dasharray:none;stroke-dashoffset:0;stroke-opacity:1"
       id="path4279"
       cx="31.819803"
       cy="31.548853"
       rx="27.0075"
       ry="26.624949" />
    <path
       style="display:inline;fill:#f9f9f9;fill-opacity:1;fill-rule:evenodd;stroke:none;stroke-width:1px;stroke-linecap:butt;stroke-linejoin:miter;stroke-opacity:1"
       d="M 33.310526,8.4466623 C 42.853897,9.7059588 51.837481,12.667445 56.143804,29.852737 42.960254,11.013531 41.261755,14.341438 33.310526,8.4466623 Z"
       id="path4281"
       inkscape:connector-curvature="0"
       sodipodi:nodetypes="ccc" />
    <path
       style="display:inline;fill:#000000;fill-opacity:0.44859811;fill-rule:evenodd;stroke:none;stroke-width:1px;stroke-linecap:butt;stroke-linejoin:miter;stroke-opacity:1"
       d="M 43.352343,55.124348 C 18.554601,65.583105 -2.4191261,42.115746 7.6398162,20.86384 7.8289942,39.063247 21.867849,56.944615 43.352343,55.124348 Z"
       id="path4283"
       inkscape:connector-curvature="0"
       sodipodi:nodetypes="ccc" />
    <flowRoot
       xml:space="preserve"
       id="flowRoot4156"
       style="fill:black;stroke:none;stroke-opacity:1;stroke-width:1px;stroke-linejoin:miter;stroke-linecap:butt;fill-opacity:1;font-family:sans-serif;font-style:normal;font-weight:normal;font-size:40px;line-height:125%;letter-spacing:0px;word-spacing:0px"><flowRegion
         id="flowRegion4158"><rect
           id="rect4160"
           width="42.678944"
           height="44.067905"
           x="6.5659914"
           y="11.21953" /></flowRegion><flowPara
         id="flowPara4162" /></flowRoot>    <flowRoot
       xml:space="preserve"
       id="flowRoot4168"
       style="fill:black;stroke:none;stroke-opacity:1;stroke-width:1px;stroke-linejoin:miter;stroke-linecap:butt;fill-opacity:1;font-family:sans-serif;font-style:normal;font-weight:normal;font-size:40px;line-height:125%;letter-spacing:0px;word-spacing:0px"><flowRegion
         id="flowRegion4170"><rect
           id="rect4172"
           width="63.765881"
           height="63.63961"
           x="0.25253814"
           y="-0.27095523" /></flowRegion><flowPara
         id="flowPara4174" /></flowRoot>    <text
       xml:space="preserve"
       style="font-style:normal;font-weight:normal;font-size:40px;line-height:125%;font-family:sans-serif;letter-spacing:0px;word-spacing:0px;fill:#000000;fill-opacity:1;stroke:none;stroke-width:1px;stroke-linecap:butt;stroke-linejoin:miter;stroke-opacity:1"
       x="38.482143"
       y="27.125002"
       id="text4158"
       sodipodi:linespacing="125%"><tspan
         sodipodi:role="line"
         id="tspan4160"
         x="38.482143"
         y="27.125002" /></text>
    <g
       id="g4192"
       transform="matrix(0.97235055,-0.23352603,0.23352603,0.97235055,-73.506479,24.542331)">
      <path
         sodipodi:nodetypes="sssssccssss"
         inkscape:connector-curvature="0"
         id="path4168"
         d="m 95.535714,52.125001 9.866076,-0.02232 c 1.78944,-0.004 2.32276,-1.786418 2.32142,-2.946429 l -0.0223,-19.241071 c -0.003,-2.448784 -0.58672,-5.034571 -1.07619,-6.722852 -1.11652,-3.851115 -1.16469,-7.103003 -1.40149,-10.442327 l -9.687496,0.04464 c 0.10014,3.635067 -0.275209,6.983529 -1.428571,10.580357 -0.647736,2.020004 -0.848214,4.000642 -0.848214,6.160714 l 0,19.553572 c 0,1.374199 1.063312,3.038462 2.276765,3.035716 z"
         style="fill:#deaa87;fill-rule:evenodd;stroke:none;stroke-width:0.5;stroke-linecap:butt;stroke-linejoin:miter;stroke-miterlimit:4;stroke-dasharray:none;stroke-opacity:1" />
      <path
         sodipodi:nodetypes="sssssss"
         inkscape:connector-curvature="0"
         id="path4170"
         d="m 94.733368,46.701139 11.088002,-3e-6 c 0.89654,0 1.03383,-0.436788 1.03383,-0.883883 l 0,-11.932427 c 0,-2.922862 -12.70207,-3.904194 -12.690042,0.473509 l 0.03157,11.490485 c 0.0013,0.456655 0.10464,0.852319 0.53664,0.852319 z"
         style="fill:#f4e3d7;fill-opacity:1;fill-rule:evenodd;stroke:#000000;stroke-width:0.25;stroke-linecap:butt;stroke-linejoin:miter;stroke-miterlimit:4;stroke-dasharray:none;stroke-opacity:1" />
      <path
         sodipodi:nodetypes="cccc"
         inkscape:connector-curvature="0"
         id="path4178"
         d="m 95.133929,46.63393 4.330357,0 c 0.568304,-7.07926 -7.121077,-9.602002 -1.071429,-15.089286 -6.262991,3.492134 -1.045736,6.677171 -3.258928,15.089286 z"
         style="fill:#502d16;fill-opacity:1;fill-rule:evenodd;stroke:#000000;stroke-width:0.25;stroke-linecap:butt;stroke-linejoin:miter;stroke-miterlimit:4;stroke-dasharray:none;stroke-opacity:1" />
      <path
         sodipodi:nodetypes="cccc"
         inkscape:connector-curvature="0"
         id="path4180"
         d="m 98.325893,31.522322 c 0.178571,0 2.254467,-0.06696 2.254467,-0.06696 -5.647322,3.966963 0.89286,10.283577 -0.937503,15.200893 -0.512031,-5.050583 -7.583135,-10.634424 -1.316964,-15.133933 z"
         style="fill:#c87137;fill-opacity:1;fill-rule:evenodd;stroke:#000000;stroke-width:0.25;stroke-linecap:butt;stroke-linejoin:miter;stroke-miterlimit:4;stroke-dasharray:none;stroke-opacity:1" />
      <path
         inkscape:connector-curvature="0"
         id="path4182"
         d="m 99.888393,37.482144 c 0,0 0.937497,-1.830357 0.937497,-1.517857 0,0.3125 0.53572,1.964286 0.55804,1.852678 0.0223,-0.111607 0.66964,-1.741071 0.82589,-1.71875 0.15625,0.02232 1.51786,1.272322 1.51786,1.272322 l -1.33929,0.02232 1.71875,-1.339285 0.69197,1.383928 0.69196,-1.272321 0.37947,2.209821"
         style="fill:none;fill-rule:evenodd;stroke:#000000;stroke-width:0.5;stroke-linecap:round;stroke-linejoin:round;stroke-miterlimit:4;stroke-dasharray:none;stroke-opacity:1" />
      <path
         inkscape:connector-curvature="0"
         id="path4184"
         d="m 100.66964,39.379465 -0.49107,0.513393 1.00447,1.383929 0.89285,-1.696429 0.22322,1.40625 0.75893,-1.361607 -0.0893,2.455357 0.91518,-2.611607 -0.26786,2.678571 1.07143,-1.361607 -0.067,-0.714286 0.51339,1.205358 0.9375,-1.004465 c 0,0 -0.80357,-0.513393 -0.69197,-0.379464 0.11161,0.133929 0.71429,1.651786 0.71429,1.651786"
         style="fill:none;fill-rule:evenodd;stroke:#000000;stroke-width:0.5;stroke-linecap:round;stroke-linejoin:round;stroke-miterlimit:4;stroke-dasharray:none;stroke-opacity:1" />
      <path
         sodipodi:nodetypes="ssscs"
         inkscape:connector-curvature="0"
         id="path4186"
         d="m 95.490983,12.78211 c -0.626297,0.004 -0.865178,-0.942346 0.189399,-0.994369 1.444095,-0.07124 9.436678,-0.06289 9.501748,-0.06314 0.95321,-0.0036 0.96126,0.976864 0.0947,0.994369 z"
         style="fill:#b7bec8;fill-rule:evenodd;stroke:#000000;stroke-width:0.5;stroke-linecap:butt;stroke-linejoin:miter;stroke-miterlimit:4;stroke-dasharray:none;stroke-opacity:1" />
      <path
         sodipodi:nodetypes="ccssccc"
         inkscape:connector-curvature="0"
         id="path4188"
         d="m 95.34893,11.91401 c -0.608789,-0.0059 -0.547981,-0.820219 -0.03157,-0.899667 l 0.06313,-1.5625795 c 0.04996,-1.2365584 9.92582,-0.8824678 10.03839,0.063135 l 0.15783,1.3258245 c 0.7067,0.0021 0.56465,1.031581 -0.0485,0.965045 z"
         style="fill:#e3dedb;fill-rule:evenodd;stroke:#000000;stroke-width:0.5;stroke-linecap:butt;stroke-linejoin:miter;stroke-miterlimit:4;stroke-dasharray:none;stroke-opacity:1" />
      <path
         sodipodi:nodetypes="ccccc"
         inkscape:connector-curvature="0"
         id="path4176"
         d="m 95.245536,19.491072 c 0.261747,-3.294423 0.238095,-4.360119 0.357143,-6.540178 l 9.665181,-0.04464 0.22321,2.879464 z"
         style="fill:#f4e3d7;fill-rule:evenodd;stroke:#000000;stroke-width:0.25;stroke-linecap:butt;stroke-linejoin:miter;stroke-miterlimit:4;stroke-dasharray:none;stroke-opacity:1" />
      <path
         sodipodi:nodetypes="cccc"
         inkscape:connector-curvature="0"
         id="path4174"
         d="m 94.732143,20.986608 0.424107,-2.5 c 2.243681,1.960711 5.49166,-3.320972 10.20089,-3.169643 -3.45071,2.012473 -4.73262,6.948111 -10.624997,5.669643 z"
         style="fill:#c87137;fill-rule:evenodd;stroke:#000000;stroke-width:0.25;stroke-linecap:butt;stroke-linejoin:bevel;stroke-miterlimit:4;stroke-dasharray:none;stroke-opacity:1" />
      <path
         sodipodi:nodetypes="cccc"
         inkscape:connector-curvature="0"
         id="path4172"
         d="m 94.799107,21.098215 c 5.789443,1.269373 6.731323,-2.412771 10.848213,-2.991071 l -0.29018,-2.700893 c -5.582703,1.006235 -3.20743,5.963599 -10.558033,5.691964 z"
         style="fill:#502d16;fill-rule:evenodd;stroke:#000000;stroke-width:0.25;stroke-linecap:butt;stroke-linejoin:miter;stroke-miterlimit:4;stroke-dasharray:none;stroke-opacity:1" />
      <path
         style="fill:none;fill-rule:evenodd;stroke:#000000;stroke-width:0.5;stroke-linecap:butt;stroke-linejoin:miter;stroke-miterlimit:4;stroke-dasharray:none;stroke-opacity:1"
         d="m 95.535714,52.125001 9.866076,-0.02232 c 1.78944,-0.004 2.32276,-1.786418 2.32142,-2.946429 l -0.0223,-19.241071 c -0.003,-2.448784 -0.58672,-5.034571 -1.07619,-6.722852 -1.11652,-3.851115 -1.16469,-7.103003 -1.40149,-10.442327 l -9.687496,0.04464 c 0.10014,3.635067 -0.275209,6.983529 -1.428571,10.580357 -0.647736,2.020004 -0.848214,4.000642 -0.848214,6.160714 l 0,19.553572 c 0,1.374199 1.063312,3.038462 2.276765,3.035716 z"
         id="path4190"
         inkscape:connector-curvature="0"
         sodipodi:nodetypes="sssssccssss" />
    </g>
  </g>
</svg>
