<svg xmlns="http://www.w3.org/2000/svg" viewBox="0 0 64 64">
    <path fill="#f55" d="M36.564 37.842c2.4-2.383 5.563 8.607 5.563 8.607s1.19-.324 2.31-.027c1.08.288 2.084 1.254 2.102 2.367 0 0-.318.124-.738-.01 0 0 .158.152-.025.196-.183.044-1.213-.114-1.731-.341-1.823.051-3.425-.05-4.802-.14-1.443-.095-2.856-2.305-3.12-2.594"/>
    <path fill="#f95" d="M42.932 48.648c.362 0 .732-.004 1.113-.014.518.227 1.548.385 1.731.341.183-.044.025-.196.025-.196.42.134.738.01.738.01-.019-1.113-1.022-2.079-2.102-2.366-.863-.23-1.767-.09-2.136-.013 0 0 .12.467.398.53a1.459 1.459 0 0 0-.572.374s.3.265.59.297c-.296.094-.492.448-.492.448s.708.246.707.589z"/>
    <path fill="none" stroke="#000" stroke-linecap="round" stroke-width=".202" d="M44.386 46.663s1.112.139 1.957 1.303m-2.456-.912s1.927.683 1.914 1.725"/>
    <path fill="none" stroke="#000" stroke-linecap="round" stroke-linejoin="round" stroke-miterlimit="10" stroke-width=".686" d="M36.564 37.842c2.4-2.383 5.563 8.607 5.563 8.607s1.19-.324 2.31-.027c1.08.288 2.084 1.254 2.102 2.367 0 0-.318.124-.738-.01 0 0 .158.152-.025.196-.183.044-1.213-.114-1.731-.341-1.823.051-3.425-.05-4.802-.14-1.443-.095-2.856-2.305-3.12-2.594"/>
    <path fill="#f55" d="M43.569 26.205c-.287 1.255 2.338 9.568 4.347 10.253 1.644.56 3.406.262 4.84.682 1.485.435 1.652 2.108 2.607 1.938.236-.042.147-.295.147-.295s.123.162.292.048c.168-.114.117-.63.117-.63s.36.423.413.118c.093-.522 0-1.693-1.744-3.63-.506-.563-2.527-.936-3.942-2.844-1.416-1.908-.818-3.624-1.55-4.587"/>
    <path fill="#f95" d="M52.756 37.14c1.485.435 1.652 2.108 2.607 1.938.236-.042.147-.295.147-.295s.123.162.292.048c.168-.114.117-.63.117-.63s.36.423.413.118c.093-.522 0-1.693-1.744-3.63-.244.245-.623.143-.623.143s.194.36.118.447c-.112.126-.666-.093-.666-.093s-.084.32-.018.931c-.15-.105-.437-.038-.437-.038s-.017.253.22.826c-.137.033-.467.094-.467.223z"/>
    <path fill="none" stroke="#000" stroke-linecap="round" stroke-linejoin="round" stroke-miterlimit="10" stroke-width=".202" d="M55.217 36.681s.669.468.702 1.52"/>
    <path fill="none" stroke="#000" stroke-linecap="round" stroke-linejoin="round" stroke-miterlimit="10" stroke-width=".686" d="M43.569 26.205c-.287 1.255 2.338 9.568 4.347 10.253 1.644.56 3.406.262 4.84.682 1.485.435 1.652 2.108 2.607 1.938.236-.042.147-.295.147-.295s.123.162.292.048c.168-.114.117-.63.117-.63s.36.423.413.118c.093-.522 0-1.693-1.744-3.63-.506-.563-2.527-.936-3.942-2.844-1.416-1.908-.818-3.624-1.55-4.587"/>
    <path fill="#ff8080" stroke="#000" stroke-linecap="round" stroke-linejoin="round" stroke-miterlimit="10" stroke-width=".686" d="M50.372 16.172c-.658-.72-.989-3.818-1.28-3.71-2.739 1.019-2.74 5.598-2.74 5.598"/>
    <path fill="#7b6264" stroke="#000" stroke-linecap="round" stroke-linejoin="round" stroke-miterlimit="10" stroke-width=".202" d="M49.093 12.463c.29-.109.621 2.988 1.279 3.709-.394-.138-2.19 1.63-2.505 2.078-.765-1.03.392-5.025 1.226-5.787z"/>
    <path fill="#ff8080" d="M8.237 47.152s.114-1.592 2.148-2.793c-.189.038-.72 0-.72 0s3.286-3.222 9.983-4.296c-.37-.08-.493-.316-.493-.316s1.567-.443 5.156-.013c-.28-.187-.417-.43-.417-.43s.948 0 2.464.632c-.113-.341-.113-.316-.113-.316s1.364.354 2.906 1.832c-.215-.518-.215-.67-.215-.67 1.132.613 2.137 1.712 3.122 2.579 2.05 1.805 1.733 4.339-1.577 5.147 0 0-.146-.202 0-.512-1.747 1.32-8.925.609-8.925.609s0-.133.519-.367c-.879.316-10.83-.77-10.83-.77s.303-.215.758-.354c-1.984.089-3.766.038-3.766.038z"/>
    <path fill="#ffb380" d="M26.134 39.846c2.82 2.412 2.414 7.5 1.555 8.873-1.037.087-2.183.09-3.2.062.91-2.193 1.465-5.462-.178-9.047a1.417 1.417 0 0 1-.417-.43s.855 0 2.24.542zm-5.809 8.422c.793-1.882.945-5.707-.941-8.161l.264-.044c-.37-.08-.493-.316-.493-.316s.771-.218 2.47-.2c.883.925 2.9 4.65 1.043 9.146-.679-.045-1.111-.088-1.111-.088s0-.132.518-.366c-.198.07-.853.071-1.75.029zm-4.46-.338c.35-1.662.536-5.066-1.08-6.563.74-.288 1.56-.56 2.462-.798 1.176 1.099 2.507 5.345.708 7.54-.684-.054-1.396-.116-2.09-.18zm-4.166-.803c.422-.944.338-2.629-.826-3.718a17.59 17.59 0 0 1 1.938-1.155c1.315 1.233 2.073 4.047.737 5.453-1.347-.135-2.303-.24-2.303-.24s.303-.214.758-.353l-.304.013zm18.782.87c-.146.309 0 .511 0 .511 3.31-.808 3.627-3.342 1.577-5.147-.984-.866-1.99-1.966-3.122-2.578 0 0 0 .152.215.67 1.327 1.2 1.63 5.004 1.33 6.544z"/>
    <path fill="none" stroke="#000" stroke-linecap="round" stroke-linejoin="round" stroke-miterlimit="10" stroke-width=".686" d="M8.237 47.152s.114-1.592 2.148-2.793c-.189.038-.72 0-.72 0s3.286-3.222 9.983-4.296c-.37-.08-.493-.316-.493-.316s1.567-.443 5.156-.013c-.28-.187-.417-.43-.417-.43s.948 0 2.464.632c-.113-.341-.113-.316-.113-.316s1.364.354 2.906 1.832c-.215-.518-.215-.67-.215-.67 1.132.613 2.137 1.712 3.122 2.579 2.05 1.805 1.733 4.339-1.577 5.147 0 0-.146-.202 0-.512-1.747 1.32-8.925.609-8.925.609s0-.133.519-.367c-.879.316-10.83-.77-10.83-.77s.303-.215.758-.354c-1.984.089-3.766.038-3.766.038z"/>
    <path fill="#ff8080" d="M57.325 20.747c-.629-.62-1.787-1.557-2.327-2.593-.16.093-.016.421-.016.421-.24-.084-.774-.82-.94-1.02-1.252-1.511-2.397-3.146-4.747-3.158-.552-.215-1.183-.07-1.183-.07s.06.198.267.348c-1.106-.36-1.606-.209-1.606-.209s-.075.169.215.316c-3.43 1.281-3.114 5.959-3.114 5.959s-.66 1.355-1.576 2.51c-1.862 1.239-1.888 1.71-1.888 1.71s.337.019.632-.05c-1.305 1.262-3.38 2.654-5.312 4.037-2.295 1.643-2.843 2.595-2.843 2.595s.32-.036.548-.186c-3.968 4.32-3.867 7.328-3.867 7.328s.291-.278.443-.594c-.72 6.243 2.534 9.493 4.334 9.769 2.65.405 6.092.227 9.504-1.15-.127.366-.1.53-.1.53s1.401-.265 2.998-2.439c.124-.17.21-.36.348-.498 1.353-1.334 1.011-3.193 1.328-3.824.127.695.468.758.468.758s-.322-3.529.181-5.383c.338-1.247 1.079-2.717 1.6-3.623.093.413.16.548.16.548s.65-.742.422-2.232c.11.227.421.32.421.32s.143-.514-.168-2.696c.151.472.379.594.379.594s.05-.758-.228-2.92c-.04-.311.01-.645-.012-.972.206-.163.91-.64.985-.611-.202.244-.1.408-.1.408 1.907-1.301 3.56-.66 3.765-.834.329-.278.253-.43.253-.43s.581-.214.897-1.187c.26-.078.522-.56.48-.847-.04-.275-.455-.64-.6-.625z"/>
    <path fill="#ffe680" d="M38.32 47.997a18.554 18.554 0 0 0 5.528-1.287c-.126.366-.099.53-.099.53s1.401-.265 2.997-2.438c.125-.17.21-.361.349-.498 1.353-1.335 1.01-3.194 1.328-3.824.126.695.468.758.468.758s-.322-3.53.18-5.384c.339-1.247 1.08-2.716 1.601-3.622.093.412.16.547.16.547s.65-.741.422-2.232c.11.228.42.32.42.32s.144-.514-.168-2.696c.152.472.38.594.38.594s.05-.758-.228-2.919c-1.087 0-2.174 1.239-2.174 1.239s.203.1.48-.051c-.82.91-.783 2.856-3.159 6.091C44.43 36.36 44 37.258 44 37.258s.152.075.556-.114c-.367.303-5.004 7.885-5.004 7.885l-1.232 2.968z"/>
    <path fill="#ffe680" d="M51.646 24.873s-.19.248-.44.266c0 0-.04-.123-.022-.254-.345.346-1.087 1.552-1.731 1.928 0 0-.14-.146-.26-.613-.006.303-.132.613-.132.613s-.234-.196-.385-.706c.025.43-.11.624-.11.624s-.42-.186-.85-.884c.194.404.135.665.135.665s-.447-.236-1.189-1.247c.346.37.212.683.212.683s-.869-.397-1.222-1.887c0 .75-.127.834-.127.834-.704-.64-1.92-1.702-1.474-4.04.126.107.176.454.176.454s.007-.208.203-.417c.126.581.745 1.416.745 1.416s.05-.208.142-.414c.49.97.92.755.92.755s.442-1.239 2.376-2.882c-.392.215-.544.089-.544.089s.392-.986 1.694-1.668c-.493.1-.544.013-.544.013 1.53-1.947 2.874-1.302 3.121-1.264.684.103 2.263 2.287 3.981 3.728.895.75 1.125 1.554 1.125 1.554-.316.974-.897 1.187-.897 1.187s.076.153-.253.43c-.205.174-1.858-.467-3.766.835 0 0-.101-.164.101-.408-.076-.03-.779.448-.985.61z"/>
    <path fill="#ffb380" stroke="#ffb380" stroke-linejoin="round" stroke-miterlimit="10" stroke-width=".051" d="M53.337 17.67c.344.342.738.772 1.167 1.227h0s.338 1.544-.04 2.762c-.198.635-.714 1.073-1.062 1.66-.16.269-.53.488-.53.488s-.077-.278-.102-.716c-.29.637-1.112 1.002-1.112 1.002s-.092-.26.102-.539c-1.407.977-2.63.658-2.63.658s-.007-.119.051-.354c-.707.008-.893-.043-.893-.043s.017-.151.203-.337c-.27.034-.662-.071-.662-.071s.72-.73 1.175-1.058c-.345.034-.53-.008-.53-.008s.244-.345 1.087-1.474c.802-1.075 1.14-2.11 3.776-3.196z"/>
    <path fill="none" stroke="#000" stroke-linecap="round" stroke-linejoin="round" stroke-miterlimit="10" stroke-width=".202" d="M44.05 20.854c-.446 2.339.77 3.401 1.475 4.04 0 0 .127-.084.127-.833.353 1.49 1.222 1.887 1.222 1.887s.134-.313-.212-.683c.742 1.01 1.19 1.247 1.19 1.247s.058-.26-.136-.665c.43.698.85.884.85.884s.135-.194.11-.624c.151.51.385.706.385.706s.126-.31.133-.613c.12.467.259.613.259.613.644-.376 1.386-1.582 1.731-1.928a.631.631 0 0 0 .021.254c.251-.018.44-.266.44-.266"/>
    <path d="M56.549 23.33v.152l-.708-.076z"/>
    <path fill="none" stroke="#000" stroke-linecap="round" stroke-linejoin="round" stroke-miterlimit="10" stroke-width=".686" d="M57.325 20.747c-.629-.62-1.787-1.557-2.327-2.593-.16.093-.016.421-.016.421-.24-.084-.774-.82-.94-1.02-1.252-1.511-2.397-3.146-4.747-3.158-.552-.215-1.183-.07-1.183-.07s.06.198.267.348c-1.106-.36-1.606-.209-1.606-.209s-.075.169.215.316c-3.43 1.281-3.114 5.959-3.114 5.959s-.66 1.355-1.576 2.51c-1.862 1.239-1.888 1.71-1.888 1.71s.337.019.632-.05c-1.305 1.262-3.38 2.654-5.312 4.037-2.295 1.643-2.843 2.595-2.843 2.595s.32-.036.548-.186c-3.968 4.32-3.867 7.328-3.867 7.328s.291-.278.443-.594c-.72 6.243 2.534 9.493 4.334 9.769 2.65.405 6.092.227 9.504-1.15-.127.366-.1.53-.1.53s1.401-.265 2.998-2.439c.124-.17.21-.36.348-.498 1.353-1.334 1.011-3.193 1.328-3.824.127.695.468.758.468.758s-.322-3.529.181-5.383c.338-1.247 1.079-2.717 1.6-3.623.093.413.16.548.16.548s.65-.742.422-2.232c.11.227.421.32.421.32s.143-.514-.168-2.696c.151.472.379.594.379.594s.05-.758-.228-2.92c-.04-.311.01-.645-.012-.972.206-.163.91-.64.985-.611-.202.244-.1.408-.1.408 1.907-1.301 3.56-.66 3.765-.834.329-.278.253-.43.253-.43s.581-.214.897-1.187c.26-.078.522-.56.48-.847-.04-.275-.455-.64-.6-.625z"/>
    <path fill="#1a1a1a" stroke="#000" stroke-linecap="round" stroke-linejoin="round" stroke-miterlimit="10" stroke-width=".202" d="M57.325 20.747c.146-.015.56.35.601.625.042.287-.22.77-.48.847 0 0-1.036-.408-.656-1.4.04-.105.535-.072.535-.072z"/>
    <path fill="#ff8080" d="M33.612 39.305c2.401-2.384 3.867-2.384 3.867-2.384s.101.164-.084.534c2.528-1.196 5.089-.387 5.089-.387s-.885.19-1.429.19c3.274.48 3.67 1.972 3.67 1.972s-.055.087-.877-.305c1.833 1.214 1.213 3.526 1.213 3.526s-.215-.379-.278-.72c.152 3.134-3.437 5.22-3.437 5.22s-.013-.241.164-.646c-.631.797-2.334 1.607-2.334 1.607s1.19-.325 2.31-.027c1.08.288 2.083 1.253 2.102 2.367 0 0-.319.124-.738-.01 0 0 .158.151-.025.196-.184.044-1.214-.114-1.732-.342-1.822.052-3.425-.049-4.802-.14-1.443-.094-2.62-.193-2.772-.757-.05.168-.124.598-.26.531 0 0-.304-.75-.085-1.112-.177.11-.457.146-.453.1 0 0 .31-1.12 1.32-.875-.016-.159-.606-.192-.869-.48"/>
    <path fill="#ffb380" d="M39.981 50.11c.361.001.732-.003 1.112-.013.519.227 1.548.385 1.732.34.183-.043.025-.195.025-.195.42.134.738.01.738.01-.019-1.113-1.022-2.08-2.103-2.367-.862-.23-1.766-.09-2.135-.013 0 0 .12.468.398.531-.335.108-.572.373-.572.373s.3.266.59.297c-.296.095-.492.449-.492.449s.707.246.707.588z"/>
    <path fill="none" stroke="#000" stroke-linecap="round" stroke-width=".202" d="M41.435 48.126s1.112.138 1.957 1.302m-2.456-.911s1.927.682 1.914 1.725"/>
    <path fill="none" stroke="#000" stroke-linecap="round" stroke-linejoin="round" stroke-miterlimit="10" stroke-width=".686" d="M33.612 39.305c2.401-2.384 3.867-2.384 3.867-2.384s.101.164-.084.534c2.528-1.196 5.089-.387 5.089-.387s-.885.19-1.429.19c3.274.48 3.67 1.972 3.67 1.972s-.055.087-.877-.305c1.833 1.214 1.213 3.526 1.213 3.526s-.215-.379-.278-.72c.152 3.134-3.437 5.22-3.437 5.22s-.013-.241.164-.646c-.631.797-2.334 1.607-2.334 1.607s1.19-.325 2.31-.027c1.08.288 2.083 1.253 2.102 2.367 0 0-.319.124-.738-.01 0 0 .158.151-.025.196-.184.044-1.214-.114-1.732-.342-1.822.052-3.425-.049-4.802-.14-1.443-.094-2.62-.193-2.772-.757-.05.168-.124.598-.26.531 0 0-.304-.75-.085-1.112-.177.11-.457.146-.453.1 0 0 .31-1.12 1.32-.875-.016-.159-.606-.192-.869-.48"/>
    <path fill="none" stroke="#000" stroke-linecap="round" stroke-linejoin="round" stroke-miterlimit="10" stroke-width=".202" d="M39.176 47.912c-1.153.428-2.303.428-2.303.428s-.099-.037.508-.38c-.6.212-2.088.016-2.088.016"/>
    <path fill="#ff8080" d="M43.09 27.093c-.286 1.255-.286 3.504-.286 3.504s.059.064.425-.568c-.316 1.693.249 4.09.249 4.09s.135-.295.18-.716c0 1.626 1.77 3.258 3.78 3.942 1.643.56 3.406.263 4.84.683 1.484.435 1.652 2.108 2.607 1.937.236-.042.147-.295.147-.295s.123.163.291.049c.168-.114.118-.63.118-.63s.359.423.413.118c.092-.522 0-1.693-1.744-3.63-.507-.564-2.528-.936-3.943-2.844s-.818-3.624-1.55-4.588"/>
    <path fill="#ffb380" d="M52.277 38.028c1.485.435 1.653 2.108 2.608 1.938.236-.042.147-.295.147-.295s.123.162.291.048c.168-.114.118-.63.118-.63s.359.423.413.118c.092-.522 0-1.693-1.744-3.63-.245.245-.624.143-.624.143s.195.36.118.447c-.111.125-.665-.093-.665-.093s-.085.32-.02.931c-.15-.105-.435-.038-.435-.038s-.017.253.219.826c-.136.033-.466.094-.466.223z"/>
    <path fill="none" stroke="#000" stroke-linecap="round" stroke-width=".202" d="M54.253 37.984c.202.054.756 1.064.778 1.687m-.293-2.102s.669.468.703 1.52"/>
    <path fill="none" stroke="#000" stroke-linecap="round" stroke-linejoin="round" stroke-miterlimit="10" stroke-width=".686" d="M43.09 27.093c-.286 1.255-.286 3.504-.286 3.504s.059.064.425-.568c-.316 1.693.249 4.09.249 4.09s.135-.295.18-.716c0 1.626 1.77 3.258 3.78 3.942 1.643.56 3.406.263 4.84.683 1.484.435 1.652 2.108 2.607 1.937.236-.042.147-.295.147-.295s.123.163.291.049c.168-.114.118-.63.118-.63s.359.423.413.118c.092-.522 0-1.693-1.744-3.63-.507-.564-2.528-.936-3.943-2.844s-.818-3.624-1.55-4.588"/>
    <path fill="#ff8080" stroke="#000" stroke-linecap="round" stroke-linejoin="round" stroke-miterlimit="10" stroke-width=".686" d="M48.094 15.77c-.872-.514-2.096-3.402-2.359-3.219-2.476 1.728-1.162 6.133-1.162 6.133"/>
    <path fill="#7b6264" stroke="#000" stroke-linecap="round" stroke-linejoin="round" stroke-miterlimit="10" stroke-width=".202" d="M45.735 12.551c.263-.183 1.487 2.705 2.36 3.218-.439-.024-.564.049-.564.049s.184.483.07.904c-.248-.295-.619-.442-.619-.442s.05.884-.038 1.592c-.265 0-.644-.392-.644-.392s.049.456-.14.973c-1.07-.782-1.048-4.94-.425-5.902z"/>
    <ellipse cx="42.31" cy="37.442" rx=".533" ry=".651" transform="rotate(-21.673)"/>
    <ellipse cx="55.941" cy="3.752" fill="#fff" rx=".101" ry=".142" transform="rotate(15.867)"/>
</svg>
