<svg xmlns="http://www.w3.org/2000/svg" xmlns:xlink="http://www.w3.org/1999/xlink" viewBox="0 0 256 256">
    <defs>
        <linearGradient id="innoGrad6">
            <stop offset="0" stop-color="#ff2a2a" stop-opacity=".502"/>
            <stop offset="1" stop-color="#ff2a2a" stop-opacity="0"/>
        </linearGradient>
        <linearGradient id="innoGrad5">
            <stop offset="0" stop-color="#ff7f2a" stop-opacity=".502"/>
            <stop offset="1" stop-color="#ff7f2a" stop-opacity="0"/>
        </linearGradient>
        <linearGradient id="innoGrad3">
            <stop offset="0" stop-color="#ff2a2a" stop-opacity=".506"/>
            <stop offset=".5" stop-color="#ff2a2a" stop-opacity="0"/>
            <stop offset="1" stop-color="#ff2a2a" stop-opacity=".502"/>
        </linearGradient>
        <linearGradient id="innoGrad2">
            <stop offset="0" stop-color="#fff"/>
            <stop offset="1" stop-color="#ccc"/>
        </linearGradient>
        <linearGradient id="linearGradient1094" x1="198.229" x2="212.398" y1="105.071" y2="101.183" gradientUnits="userSpaceOnUse" xlink:href="#innoGrad5"/>
        <radialGradient id="radialGradient1126" cx="217.654" cy="88.081" r="1.625" fx="217.654" fy="88.081" gradientTransform="matrix(.4159 0 0 .4159 127.373 51.69)" gradientUnits="userSpaceOnUse" xlink:href="#innoGrad2"/>
        <radialGradient id="radialGradient1144" cx="207.6" cy="48.627" r="1.625" fx="207.6" fy="48.627" gradientTransform="translate(100.314 23.702) scale(.51323)" gradientUnits="userSpaceOnUse" xlink:href="#innoGrad2"/>
        <radialGradient id="radialGradient1146" cx="226.721" cy="52.969" r="1.625" fx="226.721" fy="52.969" gradientTransform="matrix(.58698 0 0 .58698 93.115 21.877)" gradientUnits="userSpaceOnUse" xlink:href="#innoGrad2"/>
        <linearGradient id="linearGradient1178" x1="221.952" x2="208.563" y1="26.002" y2="38.496" gradientUnits="userSpaceOnUse" xlink:href="#innoGrad6"/>
        <linearGradient id="linearGradient1210" x1="225.471" x2="203.589" y1="32.091" y2="50.787" gradientUnits="userSpaceOnUse" xlink:href="#innoGrad6"/>
        <linearGradient id="linearGradient1242" x1="226.337" x2="203.3" y1="32.472" y2="50.785" gradientUnits="userSpaceOnUse" xlink:href="#innoGrad6"/>
        <linearGradient id="linearGradient1274" x1="241.809" x2="215.66" y1="85.516" y2="94.433" gradientUnits="userSpaceOnUse" xlink:href="#innoGrad6"/>
        <linearGradient id="linearGradient1306" x1="213.836" x2="201.262" y1="90.716" y2="100.346" gradientUnits="userSpaceOnUse" xlink:href="#innoGrad5"/>
        <linearGradient id="linearGradient1306-7" x1="213.836" x2="201.262" y1="90.716" y2="100.346" gradientTransform="matrix(-1 0 0 1 256.229 .837)" gradientUnits="userSpaceOnUse" xlink:href="#innoGrad5"/>
        <linearGradient id="linearGradient1274-0" x1="241.809" x2="215.66" y1="85.516" y2="94.433" gradientTransform="matrix(-1 0 0 1 256.229 .837)" gradientUnits="userSpaceOnUse" xlink:href="#innoGrad6"/>
        <linearGradient id="linearGradient1242-5" x1="226.337" x2="203.3" y1="32.472" y2="50.785" gradientTransform="matrix(-1 0 0 1 256.229 .837)" gradientUnits="userSpaceOnUse" xlink:href="#innoGrad6"/>
        <linearGradient id="linearGradient1210-2" x1="225.471" x2="203.589" y1="32.091" y2="50.787" gradientTransform="matrix(-1 0 0 1 256.229 .837)" gradientUnits="userSpaceOnUse" xlink:href="#innoGrad6"/>
        <linearGradient id="linearGradient1178-0" x1="221.952" x2="208.563" y1="26.002" y2="38.496" gradientTransform="matrix(-1 0 0 1 256.229 .837)" gradientUnits="userSpaceOnUse" xlink:href="#innoGrad6"/>
        <radialGradient id="radialGradient1144-6" cx="207.6" cy="48.627" r="1.625" fx="207.6" fy="48.627" gradientTransform="translate(-155.915 24.54) scale(.51323)" gradientUnits="userSpaceOnUse" xlink:href="#innoGrad2"/>
        <radialGradient id="radialGradient1146-7" cx="226.721" cy="52.969" r="1.625" fx="226.721" fy="52.969" gradientTransform="matrix(.58698 0 0 .58698 -163.114 22.714)" gradientUnits="userSpaceOnUse" xlink:href="#innoGrad2"/>
        <radialGradient id="radialGradient1126-0" cx="217.654" cy="88.081" r="1.625" fx="217.654" fy="88.081" gradientTransform="matrix(.4159 0 0 .4159 -128.856 52.527)" gradientUnits="userSpaceOnUse" xlink:href="#innoGrad2"/>
        <linearGradient id="linearGradient1094-4" x1="198.229" x2="212.398" y1="105.071" y2="101.183" gradientTransform="matrix(-1 0 0 1 256.229 .837)" gradientUnits="userSpaceOnUse" xlink:href="#innoGrad5"/>
        <linearGradient id="linearGradient1706" x1="185.593" x2="177.131" y1="16.075" y2="35.922" gradientUnits="userSpaceOnUse" xlink:href="#innoGrad5"/>
        <linearGradient id="linearGradient1738" x1="183.215" x2="175.913" y1="19.285" y2="39.42" gradientUnits="userSpaceOnUse" xlink:href="#innoGrad5"/>
        <linearGradient id="linearGradient1738-6" x1="183.215" x2="175.913" y1="19.285" y2="39.42" gradientTransform="matrix(-1 0 0 1 254.677 0)" gradientUnits="userSpaceOnUse" xlink:href="#innoGrad5"/>
        <linearGradient id="linearGradient1706-3" x1="185.593" x2="177.131" y1="16.075" y2="35.922" gradientTransform="matrix(-1 0 0 1 254.677 0)" gradientUnits="userSpaceOnUse" xlink:href="#innoGrad5"/>
        <radialGradient id="radialGradient1791" cx="166.663" cy="84.766" r="1.625" fx="166.663" fy="84.766" gradientUnits="userSpaceOnUse" xlink:href="#innoGrad2"/>
        <radialGradient id="radialGradient1799" cx="170.203" cy="78.811" r="1.625" fx="170.203" fy="78.811" gradientUnits="userSpaceOnUse" xlink:href="#innoGrad2"/>
        <radialGradient id="radialGradient1801" cx="161.875" cy="73.618" r="1.625" fx="161.875" fy="73.618" gradientUnits="userSpaceOnUse" xlink:href="#innoGrad2"/>
        <radialGradient id="radialGradient1803" cx="158.27" cy="80.704" r="1.625" fx="158.27" fy="80.704" gradientUnits="userSpaceOnUse" xlink:href="#innoGrad2"/>
        <radialGradient id="radialGradient1799-4" cx="170.203" cy="78.811" r="1.625" fx="170.203" fy="78.811" gradientTransform="translate(-255.448 -.083)" gradientUnits="userSpaceOnUse" xlink:href="#innoGrad2"/>
        <radialGradient id="radialGradient1801-8" cx="161.875" cy="73.618" r="1.625" fx="161.875" fy="73.618" gradientTransform="translate(-255.448 -.083)" gradientUnits="userSpaceOnUse" xlink:href="#innoGrad2"/>
        <radialGradient id="radialGradient1803-9" cx="158.27" cy="80.704" r="1.625" fx="158.27" fy="80.704" gradientTransform="translate(-255.448 -.083)" gradientUnits="userSpaceOnUse" xlink:href="#innoGrad2"/>
        <radialGradient id="radialGradient1791-5" cx="166.663" cy="84.766" r="1.625" fx="166.663" fy="84.766" gradientTransform="translate(-255.448 -.083)" gradientUnits="userSpaceOnUse" xlink:href="#innoGrad2"/>
        <radialGradient id="radialGradient1892" cx="184.451" cy="122.125" r="2.125" fx="184.451" fy="122.125" gradientUnits="userSpaceOnUse" xlink:href="#innoGrad2"/>
        <radialGradient id="radialGradient1894" cx="177.701" cy="141.375" r="2.125" fx="177.701" fy="141.375" gradientUnits="userSpaceOnUse" xlink:href="#innoGrad2"/>
        <radialGradient id="radialGradient1896" cx="177.701" cy="207.5" r="2.125" fx="177.701" fy="207.5" gradientUnits="userSpaceOnUse" xlink:href="#innoGrad2"/>
        <radialGradient id="radialGradient1898" cx="182.826" cy="203.572" r="1" fx="182.826" fy="203.572" gradientTransform="matrix(1 0 0 1.25 0 -50.893)" gradientUnits="userSpaceOnUse" xlink:href="#innoGrad2"/>
        <radialGradient id="radialGradient1900" cx="183.41" cy="142.375" r="1" fx="183.41" fy="142.375" gradientTransform="matrix(1 0 0 1.25 0 -35.594)" gradientUnits="userSpaceOnUse" xlink:href="#innoGrad2"/>
        <radialGradient id="radialGradient1902" cx="190.424" cy="124.443" r="1" fx="190.424" fy="124.443" gradientTransform="matrix(1 0 0 1.25 0 -31.11)" gradientUnits="userSpaceOnUse" xlink:href="#innoGrad2"/>
        <radialGradient id="radialGradient1910" cx="71.542" cy="122.125" r="2.125" fx="71.542" fy="122.125" gradientUnits="userSpaceOnUse" xlink:href="#innoGrad2"/>
        <radialGradient id="radialGradient1912" cx="78.292" cy="141.375" r="2.125" fx="78.292" fy="141.375" gradientUnits="userSpaceOnUse" xlink:href="#innoGrad2"/>
        <radialGradient id="radialGradient1914" cx="78.292" cy="207.499" r="2.125" fx="78.292" fy="207.499" gradientUnits="userSpaceOnUse" xlink:href="#innoGrad2"/>
        <radialGradient id="radialGradient1916" cx="73.167" cy="203.572" r="1" fx="73.167" fy="203.572" gradientTransform="matrix(1 0 0 1.25 0 -50.893)" gradientUnits="userSpaceOnUse" xlink:href="#innoGrad2"/>
        <radialGradient id="radialGradient1918" cx="72.583" cy="142.375" r="1" fx="72.583" fy="142.375" gradientTransform="matrix(1 0 0 1.25 0 -35.594)" gradientUnits="userSpaceOnUse" xlink:href="#innoGrad2"/>
        <radialGradient id="radialGradient1920" cx="65.569" cy="124.442" r="1" fx="65.569" fy="124.442" gradientTransform="matrix(1 0 0 1.25 0 -31.11)" gradientUnits="userSpaceOnUse" xlink:href="#innoGrad2"/>
        <linearGradient id="linearGradient1961" x1="199.153" x2="181.172" y1="163.018" y2="163.018" gradientUnits="userSpaceOnUse" xlink:href="#innoGrad6"/>
        <linearGradient id="linearGradient1961-2" x1="199.153" x2="181.172" y1="163.018" y2="163.018" gradientTransform="matrix(-1 0 0 1 256.296 0)" gradientUnits="userSpaceOnUse" xlink:href="#innoGrad6"/>
        <linearGradient id="linearGradient2023" x1="55.328" x2="200.187" y1="147.532" y2="147.532" gradientUnits="userSpaceOnUse" xlink:href="#innoGrad3"/>
        <linearGradient id="linearGradient2080" x1="127.186" x2="126.915" y1="42.305" y2="24.136" gradientUnits="userSpaceOnUse" xlink:href="#innoGrad5"/>
    </defs>
    <g>
        <path fill="#f95" d="M143.749 21.333c7.324-3.621 12.907-12.337 19.403-10.353 6.682 2.042-.523 26.082-12.236 44.733-9.326 14.848-23.167 25.348-23.167 25.348H127s-13.841-10.5-23.167-25.348C92.12 37.062 84.915 13.021 91.596 10.98c6.496-1.985 12.08 6.731 19.404 10.353 7.632 3.772 25.117 3.772 32.749 0z"/>
        <path fill="url(#linearGradient2080)" stroke="#000" d="M143.749 21.333c7.324-3.621 12.907-12.337 19.403-10.353 6.682 2.042-.523 26.082-12.236 44.733-9.326 14.848-23.167 25.348-23.167 25.348H127s-13.841-10.5-23.167-25.348C92.12 37.062 84.915 13.021 91.596 10.98c6.496-1.985 12.08 6.731 19.404 10.353 7.632 3.772 25.117 3.772 32.749 0z"/>
    </g>
    <g stroke="#000">
        <path fill="#f95" d="M199.509 109.487l-1.919 4.333-5.692 3.167-.804-22.666zM56.724 109.487l1.919 4.333 5.69 3.167.806-22.666z"/>
        <path fill="#ffb380" d="M172.832 227.66c7.512-5.344 15.348-13.84 18.834-21.5 1.879-4.127.369-8.131 1.666-11 1.48-3.27 5.168-4.832 5.168-4.832s-1.006-9.309-.168-22.5c1.238-19.445 4.398-45.759 3.668-50.328-1.229-7.667-7.668-1.833-7.668-1.833s-5.895-13.205-2.332-37.333c3.666-24.832 20.666-39.667-2.668-49.665-32.527-13.938-30.592 10.625-39.832 22.165-11.955 14.929-31.839 13.939-43 0-9.24-11.54-7.306-36.104-39.833-22.166C43.333 38.667 60.333 53.501 64 78.333c3.563 24.128-2.333 37.333-2.333 37.333S55.228 109.833 54 117.5c-.731 4.568 2.43 30.883 3.667 50.327.839 13.191-.167 22.5-.167 22.5s3.688 1.563 5.167 4.832c1.298 2.87-.212 6.873 1.667 11 3.486 7.661 11.323 16.157 18.833 21.5 20.006 14.232 69.661 14.231 89.665.001z"/>
        <path fill="none" d="M61.667 115.667s4.344 12.08 5.833 28.655c1.489 16.575 3.167 71.498 3.167 71.498M194.565 115.667s-4.344 12.08-5.833 28.655c-1.489 16.575-3.166 71.498-3.166 71.498"/>
    </g>
    <g stroke="#000">
        <path fill="#fca" d="M137.557 59.888c6.469-2.739 7.451-4.311 7.451-4.311s23.777 19.09 32.059 24.24c8.279 5.15 14.432 4.676 14.432 4.676l-.404 17.339 3.472 13.834s-2.925 9.498-4.746 19.884c-1.821 10.385-9.921 63.768-9.921 63.768l-103.565-.001s-8.1-53.382-9.92-63.768c-1.82-10.386-4.746-19.883-4.746-19.883l3.472-14.167-.404-17.006s6.152.474 14.432-4.676c8.28-5.15 32.058-24.24 32.058-24.24s.982 1.572 7.451 4.311c6.383 2.702 12.494 2.703 18.879 0z"/>
        <path fill="#f95" d="M55.167 119.499s9.064 12.416 11.333 24.167c2.269 11.751 5.333 63.833 5.333 63.833l-13.667-39.333s-2.072-15.993-2.833-25.667c-.761-9.674-.166-23-.166-23zM201.169 119.499s-9.064 12.416-11.334 24.167c-2.27 11.751-5.334 63.833-5.334 63.833l13.668-39.333s2.072-15.993 2.832-25.667c.762-9.674.168-23 .168-23z"/>
    </g>
    <g>
        <path fill="#ff8080" d="M65.833 121.667c-1.484 1.333-2.85 3.001-4.055 4.997-7.172 11.874-8.209 8.934-4.612 35.671.979 7.284-.235 15.748 4.167 25 9.833 20.666 13.75 21.777 13.75 21.777s-.017-58.965-.775-66.139c-.758-7.174-8.475-21.306-8.475-21.306z"/>
        <path fill="url(#linearGradient1961-2)" stroke="#000" d="M65.833 121.667c-1.484 1.333-2.85 3.001-4.055 4.997-7.172 11.874-8.209 8.934-4.612 35.671.979 7.284-.235 15.748 4.167 25 9.833 20.666 13.75 21.777 13.75 21.777s-.017-58.965-.775-66.139c-.758-7.174-8.475-21.306-8.475-21.306z"/>
        <path fill="#ff8080" d="M190.463 121.667c1.484 1.333 2.85 3.001 4.055 4.997 7.172 11.874 8.209 8.934 4.612 35.671-.979 7.284.235 15.748-4.167 25-9.833 20.666-13.75 21.777-13.75 21.777s.017-58.965.775-66.139c.758-7.174 8.475-21.306 8.475-21.306z"/>
        <path fill="url(#linearGradient1961)" stroke="#000" d="M190.463 121.667c1.484 1.333 2.85 3.001 4.055 4.997 7.172 11.874 8.209 8.934 4.612 35.671-.979 7.284.235 15.748-4.167 25-9.833 20.666-13.75 21.777-13.75 21.777s.017-58.965.775-66.139c.758-7.174 8.475-21.306 8.475-21.306z"/>
        <path fill="#ff8080" stroke="#000" d="M180.833 211.166c3.074-5.38-.885-20.937 0-44.16.227-5.948-.07-14.398 1.168-22.001 1.6-9.815 4.902-18.399 6.24-20.252 5.592-7.744-3.074-10.078-4.574-18.078-.723-3.852-3.932-19.57-5.07-25.417-1.909-9.803-2.488-10.086-8.596-13.417-7.198-3.926-16.746.654-25.668 2.333-8.994 1.693-23.005 1.693-32 0-8.922-1.679-18.469-6.26-25.667-2.333-6.108 3.331-6.687 3.614-8.596 13.417-1.139 5.846-4.348 21.565-5.07 25.417-1.5 8-10.167 10.334-4.575 18.078 1.338 1.853 4.642 10.437 6.241 20.252 1.238 7.603.94 16.053 1.167 22.001.885 23.224-3.074 38.78 0 44.16 13.603 23.806 92.97 21.057 105 0z"/>
        <path fill="#ffe680" stroke="#000" stroke-width=".5" d="M118.083 75.144v21.713h21.834V75.144s-3.5.581-10.917.581-10.917-.581-10.917-.581z"/>
        <path fill="url(#linearGradient2023)" stroke="#000" d="M180.833 211.166c3.074-5.38-.885-20.937 0-44.16.227-5.948-.07-14.398 1.168-22.001 1.6-9.815 4.902-18.399 6.24-20.252 5.592-7.744-3.074-10.078-4.574-18.078-.723-3.852-3.932-19.57-5.07-25.417-1.909-9.803-2.488-10.086-8.596-13.417-7.198-3.926-16.746.654-25.668 2.333-8.994 1.693-23.005 1.693-32 0-8.922-1.679-18.469-6.26-25.667-2.333-6.108 3.331-6.687 3.614-8.596 13.417-1.139 5.846-4.348 21.565-5.07 25.417-1.5 8-10.167 10.334-4.575 18.078 1.338 1.853 4.642 10.437 6.241 20.252 1.238 7.603.94 16.053 1.167 22.001.885 23.224-3.074 38.78 0 44.16 13.603 23.806 92.97 21.057 105 0z"/>
    </g>
    <g>
        <path fill="#414042" stroke="#000" d="M91.125 99h75v18.25h-75z"/>
        <g fill="#f2f2f2">
            <path d="M93.09 113.23v-9.229h1.295v9.229H93.09zm.628-7.998v-1.231h5.3v1.232l-5.3-.001zm0 4.031v-1.231h4.603l.001 1.233-4.604-.002zm0 3.967v-1.232h5.301v1.233l-5.301-.001zM100.859 113.224v-9.223l1.175-.001 4.513 7.072-.154.164.001-7.235h1.282v9.223h-1.187l-4.501-6.963.153-.166v7.129h-1.282zM109.962 113.23v-9.229h1.295v9.229h-1.295zm.635-7.997V104h5.174l.001 1.232-5.175.001zm-.001 4.112l.001-1.232 4.474-.006v1.231l-4.475.007zM120.283 113.325c-.652 0-1.222-.14-1.708-.422a2.894 2.894 0 0 1-1.132-1.19c-.269-.512-.402-1.109-.402-1.79v-2.615c0-.681.133-1.278.402-1.79s.645-.91 1.132-1.191c.487-.282 1.057-.421 1.708-.421s1.221.139 1.708.421a2.89 2.89 0 0 1 1.132 1.191c.269.512.403 1.109.403 1.79v2.615c0 .681-.134 1.278-.403 1.79s-.646.91-1.132 1.191c-.487.282-1.056.421-1.708.421zm0-1.276c.58 0 1.044-.19 1.393-.571.35-.381.524-.884.524-1.511v-2.705c0-.626-.173-1.13-.522-1.511-.349-.381-.814-.571-1.394-.571s-1.045.191-1.394.572c-.35.381-.525.883-.525 1.51v2.705c0 .626.175 1.129.524 1.51.349.381.815.572 1.394.572zM125.621 113.23v-9.235h1.296v9.235h-1.296zm.566-3.904v-1.231h3.401c.301 0 .543-.131.725-.394.182-.263.273-.609.273-1.041 0-.432-.092-.779-.273-1.041-.181-.262-.424-.394-.725-.394h-3.401v-1.231h3.351c.488 0 .912.11 1.277.333.363.222.646.532.848.93.202.398.301.865.301 1.403s-.1 1.004-.301 1.402a2.254 2.254 0 0 1-.847.931c-.365.223-.79.333-1.278.333h-3.351zm4.627 3.904l-2.114-4.19 1.288-.291 2.361 4.481h-1.535zM137.021 113.325c-.644 0-1.207-.142-1.689-.427a2.938 2.938 0 0 1-1.123-1.205c-.266-.515-.401-1.119-.401-1.809v-2.533c0-.694.136-1.3.401-1.815a2.944 2.944 0 0 1 1.123-1.205c.482-.285 1.046-.427 1.689-.427.533 0 1.021.114 1.463.343.442.229.812.548 1.11.958.298.411.502.891.607 1.441h-1.328a2 2 0 0 0-1.065-1.295 1.802 1.802 0 0 0-.787-.185c-.567 0-1.024.202-1.369.602-.345.4-.517.927-.517 1.583v2.533c0 .656.172 1.182.517 1.58.345.398.802.598 1.369.598.402 0 .78-.117 1.136-.35.356-.233.594-.567.717-1.003h1.328a3.29 3.29 0 0 1-.61 1.375c-.3.391-.671.696-1.111.914a3.244 3.244 0 0 1-1.46.327zM142.04 113.23v-9.229h1.299v9.229h-1.299zm.632-7.997v-1.232h5.298v1.233l-5.298-.001zm0 4.03v-1.231h4.602v1.231h-4.602zm0 3.967v-1.232h5.298v1.232h-5.298zM149.813 113.23v-9.236h1.295v9.235l-1.295.001zm.564-3.904v-1.231h3.402c.301 0 .542-.131.725-.394.182-.262.272-.609.272-1.041 0-.432-.091-.779-.272-1.041-.183-.262-.424-.394-.725-.394h-3.402v-1.23l3.352-.001c.487 0 .911.11 1.275.333.364.222.646.533.847.931.201.398.304.865.304 1.402 0 .537-.103 1.004-.304 1.402a2.247 2.247 0 0 1-.847.931c-.364.223-.788.333-1.275.333h-3.352zm4.627 3.904l-2.113-4.191 1.289-.291 2.361 4.481-1.537.001zM160.965 113.325a5.645 5.645 0 0 1-1.835-.286 4.63 4.63 0 0 1-1.511-.856l.807-.99c.352.305.739.534 1.162.686.423.152.883.228 1.377.228.669 0 1.189-.125 1.558-.373.368-.247.55-.597.55-1.049v-.006c0-.351-.093-.621-.279-.807a1.711 1.711 0 0 0-.732-.416 8.705 8.705 0 0 0-.994-.225c-.339-.059-.69-.135-1.044-.216a3.545 3.545 0 0 1-.974-.375 1.905 1.905 0 0 1-.716-.733c-.182-.32-.274-.75-.274-1.292v-.006c0-.859.285-1.525.856-1.997.571-.472 1.378-.707 2.419-.707.494 0 .979.079 1.453.237.474.159.936.402 1.384.728-.295.411-.439.617-.734 1.028-.698-.516-1.4-.774-2.103-.774-.631 0-1.121.126-1.47.378-.35.252-.524.608-.524 1.069v.005c0 .347.102.612.305.792.203.18.469.313.797.402.328.089.681.172 1.057.248.339.068.678.15 1.016.245.338.095.646.233.924.413.277.18.498.426.665.739.167.313.253.722.253 1.226v.013c0 .851-.297 1.508-.889 1.973-.595.465-1.429.698-2.504.698z"/>
        </g>
        <path fill="none" stroke="#000" d="M66.167 126.625s-9.292 5.625-8.667 19.625c.3 6.723 1.96 16.728 2.5 21.625.54 4.897.657 13.365 1.667 15.25 1.944 3.625 10.167 18 10.167 18s.752-42.617 0-52.5c-.752-9.883-5.667-22-5.667-22zM190.034 126.625s9.292 5.625 8.667 19.625c-.3 6.723-1.96 16.728-2.5 21.625-.54 4.897-.656 13.365-1.667 15.25-1.944 3.625-10.167 18-10.167 18s-.752-42.617 0-52.5c.752-9.883 5.667-22 5.667-22z"/>
        <circle cx="71.542" cy="122.125" r="1.875" fill="url(#radialGradient1910)" stroke="#000" stroke-width=".5"/>
        <circle cx="78.292" cy="141.375" r="1.875" fill="url(#radialGradient1912)" stroke="#000" stroke-width=".5"/>
        <circle cx="78.292" cy="207.499" r="1.875" fill="url(#radialGradient1914)" stroke="#000" stroke-width=".5"/>
        <ellipse cx="73.167" cy="203.572" fill="url(#radialGradient1916)" stroke="#000" stroke-width=".5" rx=".75" ry="1"/>
        <ellipse cx="72.583" cy="142.375" fill="url(#radialGradient1918)" stroke="#000" stroke-width=".5" rx=".75" ry="1"/>
        <ellipse cx="65.569" cy="124.442" fill="url(#radialGradient1920)" stroke="#000" stroke-width=".5" rx=".75" ry="1"/>
        <circle cx="184.451" cy="122.125" r="1.875" fill="url(#radialGradient1892)" stroke="#000" stroke-width=".5"/>
        <circle cx="177.701" cy="141.375" r="1.875" fill="url(#radialGradient1894)" stroke="#000" stroke-width=".5"/>
        <circle cx="177.701" cy="207.5" r="1.875" fill="url(#radialGradient1896)" stroke="#000" stroke-width=".5"/>
        <ellipse cx="182.826" cy="203.572" fill="url(#radialGradient1898)" stroke="#000" stroke-width=".5" rx=".75" ry="1"/>
        <ellipse cx="183.41" cy="142.375" fill="url(#radialGradient1900)" stroke="#000" stroke-width=".5" rx=".75" ry="1"/>
        <ellipse cx="190.424" cy="124.443" fill="url(#radialGradient1902)" stroke="#000" stroke-width=".5" rx=".75" ry="1"/>
    </g>
    <g>
        <path fill="none" stroke="#000" d="M144.662 73.956c6.236-1.803 13.612-4.597 13.612-4.597l18.054 8.107-5.17 16.065 3.676 17.746 4.666 6.395-8.219 27.5 1.436 67.661s-10.31 6.088-20.05 7.339c-9.74 1.251-24.167 1.333-24.167 1.333s-14.426-.082-24.167-1.333c-9.741-1.251-20.05-7.339-20.05-7.339l1.437-67.661-8.22-27.5 4.667-6.395 3.676-17.746-5.169-16.065 18.053-8.107s7.375 2.794 13.612 4.597c6.237 1.803 26.087 1.802 32.323 0z"/>
    </g>
    <g stroke="#000">
        <path fill="#ffe6d5" d="M187.03 55c1.306.775.467 1.649-.166 2.75-.803 1.395-1.753 2.901-2.917 2.25-2.083-1.167-17.099-7.326-19.75-8.917-1.537-.922-1.082-2.625-.346-4.167.661-1.384 1.482-2.688 2.43-2.333 0 0 17.793 8.661 20.749 10.417zm-20.469-7.525l-1.113 2.191 19.167 8.75 1-2.25z"/>
        <path fill="#ffb380" d="M183.674 57.092l-16.07-7.083-8.823 16.741 17.5 9.166z"/>
        <path fill="#ffb380" d="M167.613 90.416l-15.332-7.666 7.826-15.306 15.315 8.022zM168.76 44.524s-.465-.865-1.167.849-.817 3.007-.817 3.007l17.167 7.333s1.365-1.071 1.65-1.756c.285-.685 0-1.25 0-1.25z"/>
        <circle cx="169.728" cy="79.082" r="1.5" fill="url(#radialGradient1799)" stroke-width=".25"/>
        <circle cx="161.672" cy="73.957" r="1.5" fill="url(#radialGradient1801)" stroke-width=".25"/>
        <circle cx="157.728" cy="81.145" r="1.5" fill="url(#radialGradient1803)" stroke-width=".25"/>
        <circle cx="166.29" cy="85.207" r="1.5" fill="url(#radialGradient1791)" stroke-width=".25"/>
        <path fill="#ffe6d5" d="M68.418 54.917c-1.306.775-.467 1.649.166 2.75.803 1.395 1.753 2.901 2.917 2.25C73.584 58.75 88.6 52.591 91.251 51c1.537-.922 1.082-2.625.346-4.167-.661-1.384-1.482-2.688-2.43-2.333 0 0-17.793 8.661-20.749 10.417zm20.469-7.525L90 49.583l-19.167 8.75-1-2.25z"/>
        <path fill="#ffb380" d="M87.844 49.926l8.823 16.741-17.5 9.166-7.393-18.824z"/>
        <path fill="#ffb380" d="M87.835 90.333l15.332-7.666-7.826-15.306-15.315 8.022zM86.688 44.441s.465-.865 1.167.849.817 3.007.817 3.007L71.505 55.63s-1.365-1.071-1.65-1.756c-.285-.685 0-1.25 0-1.25z"/>
        <circle cx="-85.72" cy="78.999" r="1.5" fill="url(#radialGradient1799-4)" stroke-width=".25" transform="scale(-1 1)"/>
        <circle cx="-93.776" cy="73.874" r="1.5" fill="url(#radialGradient1801-8)" stroke-width=".25" transform="scale(-1 1)"/>
        <circle cx="-97.72" cy="81.062" r="1.5" fill="url(#radialGradient1803-9)" stroke-width=".25" transform="scale(-1 1)"/>
        <circle cx="-89.158" cy="85.124" r="1.5" fill="url(#radialGradient1791-5)" stroke-width=".25" transform="scale(-1 1)"/>
    </g>
    <g fill="#f95" stroke="#000">
        <path d="M199.167 168.667S194.5 183 174.833 187.334c-8.344 1.839-61 12-61 12v19.333s58.377-9.201 72.167-13.833S199.167 190 199.167 190z"/>
        <path d="M57.333 172.667s1.187 9.798 8 12c16.5 5.333 83.667 9.5 83.667 9.5V215s-68.167-6.5-79.5-10c-11.333-3.5-13.667-13.333-13.667-13.333z"/>
    </g>
    <g>
        <path fill="#fca" d="M166.005 10.166c-1.338 0-17.223 17.979 12.081 30.333 26.091 11 26.091-18.167 26.091-18.167s-36.834-12.166-38.172-12.166z"/>
        <path fill="url(#linearGradient1738)" stroke="#000" d="M166.005 10.166c-1.338 0-17.223 17.979 12.081 30.333 26.091 11 26.091-18.167 26.091-18.167s-36.834-12.166-38.172-12.166z"/>
        <path fill="#ffb380" d="M168.559 10.98s-15.15 15.813 10.627 26.682c22.949 9.674 22.949-15.981 22.949-15.981z"/>
        <path fill="url(#linearGradient1706)" stroke="#000" d="M168.559 10.98s-15.15 15.813 10.627 26.682c22.949 9.674 22.949-15.981 22.949-15.981z"/>
        <path fill="#fca" d="M88.672 10.166c1.338 0 17.223 17.979-12.081 30.333C50.5 51.499 50.5 22.332 50.5 22.332s36.834-12.166 38.172-12.166z"/>
        <path fill="url(#linearGradient1738-6)" stroke="#000" d="M88.672 10.166c1.338 0 17.223 17.979-12.081 30.333C50.5 51.499 50.5 22.332 50.5 22.332s36.834-12.166 38.172-12.166z"/>
        <path fill="#ffb380" d="M86.118 10.98s15.15 15.813-10.627 26.682c-22.949 9.674-22.949-15.981-22.949-15.981z"/>
        <path fill="url(#linearGradient1706-3)" stroke="#000" d="M86.118 10.98s15.15 15.813-10.627 26.682c-22.949 9.674-22.949-15.981-22.949-15.981z"/>
    </g>
    <g>
        <path fill="#fca" stroke="#000" d="M203.646 33.33l37.708 77.333-19.555 3.527-11.32-2.027-17.833-37.667z"/>
        <path fill="#f95" d="M192.646 74.496s4.972 19.366 9 31.166c3.151 9.229 3.151 9.229 9.416 9.167 14.67-.148 39.81-5.063 25.734-3.9-12.977 1.071-17.184 6.379-24.067-4.767-7-11.333-8.833-38-8.333-45s-4.834-14.167-4.834-14.167z"/>
        <path fill="url(#linearGradient1306)" stroke="#000" d="M192.646 74.496s4.972 19.366 9 31.166c3.151 9.229 3.151 9.229 9.416 9.167 14.67-.148 39.81-5.063 25.734-3.9-12.977 1.071-17.184 6.379-24.067-4.767-7-11.333-8.833-38-8.333-45s-4.834-14.167-4.834-14.167z"/>
        <path fill="#ffb380" stroke="#000" d="M215.584 100.995c3.152 9.23 3.152 9.23 9.418 9.167 14.668-.148 5.728-3.304 1.666-8.667-8.043-10.618-8.834-38-8.334-45s-11.75-8.166-11.75-8.166 4.973 40.867 9 52.666z"/>
        <path fill="#ff8080" d="M216.396 61.663s-7.935 7.04-7.834 8c1.617 15.358 12.664 40.842 15 41.334 8.206 1.725 19.498-5.039 19.5-6 .007-2.678.42-6.157 0-9.334-.494-3.746-1.833-7-1.833-7s-.794-12.277-.25-8.125c.544 4.152-1.583-5.875-1.583-5.875s.674-4.131-.292-8.5-3.208-7.333-3.208-7.333z"/>
        <path fill="url(#linearGradient1274)" stroke="#000" d="M216.396 61.663s-7.935 7.04-7.834 8c1.617 15.358 12.664 40.842 15 41.334 8.206 1.725 19.498-5.039 19.5-6 .007-2.678.42-6.157 0-9.334-.494-3.746-1.833-7-1.833-7s-.794-12.277-.25-8.125c.544 4.152-1.583-5.875-1.583-5.875s.674-4.131-.292-8.5-3.208-7.333-3.208-7.333z"/>
        <path fill="#ffb380" stroke="#000" d="M207.229 24.162c-5.775 1.283-25.667 23.392 7.667 38.226 7.641 3.4 27.598-3.232 25.333-6.726-4.584-7.075-33-31.5-33-31.5z"/>
        <path fill="#fca" stroke="#000" d="M208.555 26.159c-5.079 1.128-22.573 20.574 6.743 33.621 6.721 2.991 24.274-2.843 22.282-5.915-4.033-6.223-29.025-27.706-29.025-27.706z"/>
        <path fill="#faa" d="M199.506 15.496c-15.276 52.167 35.224 42.145 39.057 38.667V50.33l-2.666-3.333.166-4.167-12-12.667s1.334-1.5-2.333-4.333c-3.667-2.833-3.438-.833-3.438-.833l-10.395-8-2.334.833z"/>
        <path fill="url(#linearGradient1242)" stroke="#000" d="M199.506 15.496c-15.276 52.167 35.224 42.145 39.057 38.667V50.33l-2.666-3.333.166-4.167-12-12.667s1.334-1.5-2.333-4.333c-3.667-2.833-3.438-.833-3.438-.833l-10.395-8-2.334.833z"/>
        <path fill="#ff8080" d="M235.896 46.996s-14.67 8.569-25.588-.001c-13.512-10.607-4.746-29.166-4.746-29.166l1.595-.569 11.134 7.736s1.124-1.5 3.438.833c3.08 3.105 2.333 4.333 2.333 4.333l12 12.667z"/>
        <path fill="url(#linearGradient1210)" stroke="#000" d="M235.897 46.997s-14.67 8.569-25.588-.001c-13.512-10.607-4.746-29.166-4.746-29.166l1.595-.569 11.134 7.736s1.124-1.5 3.438.833c3.08 3.105 2.333 4.333 2.333 4.333l12 12.667z"/>
        <path fill="#faa" d="M208.563 38.496c-2.334-1.5 9.729-13.5 9.729-13.5s.18-2.083 3.438.833c3.258 2.916 2.333 4.333 2.333 4.333s-13.167 9.834-15.5 8.334z"/>
        <path fill="url(#linearGradient1178)" stroke="#000" d="M208.563 38.496c-2.334-1.5 9.729-13.5 9.729-13.5s.18-2.083 3.438.833c3.258 2.916 2.333 4.333 2.333 4.333s-13.167 9.834-15.5 8.334z"/>
        <path fill="none" stroke="#000" d="M239.396 74.663s-4.531.293-11.303 2.167c-6.772 1.874-11.302 4.086-11.302 4.086M241.229 88.663s-4.968.077-10.5 1.833-10.5 4.833-10.5 4.833"/>
        <circle cx="206.584" cy="49.172" r="1.5" fill="url(#radialGradient1144)" stroke="#000" stroke-width=".25"/>
        <circle cx="225.906" cy="53.376" r="1.5" fill="url(#radialGradient1146)" stroke="#000" stroke-width=".25"/>
        <circle cx="218.236" cy="88.663" r="1.5" fill="url(#radialGradient1126)" stroke="#000" stroke-width=".25"/>
        <path fill="#ff7f2a" stroke="#000" d="M197.186 91.163l-2.292 3.331 3.335 10.577 3.417.591z"/>
        <path fill="#fca" d="M208.563 95.893c1.258 3.427 3.293 8.721 3.293 8.721s-.779 1.723-7.604 2.896c-3.855.662-6.023-2.439-6.023-2.439l-3.335-10.13s1.253 5.069 7.874 3.959c6.878-1.154 4.537-6.435 5.795-3.007z"/>
        <path fill="url(#linearGradient1094)" stroke="#000" d="M208.563 95.893c1.258 3.427 3.293 8.721 3.293 8.721s-.779 1.723-7.604 2.896c-3.855.662-6.023-2.439-6.023-2.439l-3.335-10.13s1.253 5.069 7.874 3.959c6.878-1.154 4.537-6.435 5.795-3.007z"/>
        <path fill="#fca" stroke="#000" d="M14.875 111.5l19.555 3.527L45.75 113l17.833-37.667-11-41.166z"/>
        <path fill="#f95" d="M63.583 75.333s-4.972 19.366-9 31.166c-3.151 9.229-3.151 9.229-9.416 9.167-14.67-.148-39.81-5.063-25.734-3.9 12.977 1.071 17.184 6.379 24.067-4.767 7-11.333 8.833-38 8.333-45s4.834-14.167 4.834-14.167z"/>
        <path fill="url(#linearGradient1306-7)" stroke="#000" d="M63.583 75.333s-4.972 19.366-9 31.166c-3.151 9.229-3.151 9.229-9.416 9.167-14.67-.148-39.81-5.063-25.734-3.9 12.977 1.071 17.184 6.379 24.067-4.767 7-11.333 8.833-38 8.333-45s4.834-14.167 4.834-14.167z"/>
        <path fill="#ffb380" stroke="#000" d="M40.645 101.832c-3.152 9.23-3.152 9.23-9.418 9.167-14.668-.148-5.728-3.304-1.666-8.667 8.043-10.618 8.834-38 8.334-45s11.75-8.166 11.75-8.166-4.973 40.867-9 52.666z"/>
        <path fill="#ff8080" d="M39.833 62.5s7.935 7.04 7.834 8c-1.617 15.358-12.664 40.842-15 41.334-8.206 1.725-19.498-5.039-19.5-6-.007-2.678-.42-6.157 0-9.334.494-3.746 1.833-7 1.833-7s.794-12.277.25-8.125c-.544 4.152 1.583-5.875 1.583-5.875s-.674-4.131.292-8.5 3.208-7.333 3.208-7.333z"/>
        <path fill="url(#linearGradient1274-0)" stroke="#000" d="M39.833 62.5s7.935 7.04 7.834 8c-1.617 15.358-12.664 40.842-15 41.334-8.206 1.725-19.498-5.039-19.5-6-.007-2.678-.42-6.157 0-9.334.494-3.746 1.833-7 1.833-7s.794-12.277.25-8.125c-.544 4.152 1.583-5.875 1.583-5.875s-.674-4.131.292-8.5 3.208-7.333 3.208-7.333z"/>
        <path fill="#f95" stroke="#000" d="M49 24.999c5.775 1.283 25.667 23.392-7.667 38.226-7.641 3.4-27.598-3.232-25.333-6.726 4.584-7.075 33-31.5 33-31.5z"/>
        <path fill="#ffb380" stroke="#000" d="M47.674 26.996c5.079 1.128 22.573 20.574-6.743 33.621-6.721 2.991-24.274-2.843-22.282-5.915 4.033-6.223 29.025-27.706 29.025-27.706z"/>
        <path fill="#faa" d="M56.723 16.333C71.999 68.5 21.499 58.478 17.666 55v-3.833l2.666-3.333-.166-4.167 12-12.667s-1.334-1.5 2.333-4.333c3.667-2.833 3.438-.833 3.438-.833l10.395-8 2.334.833z"/>
        <path fill="url(#linearGradient1242-5)" stroke="#000" d="M56.723 16.333C71.999 68.5 21.499 58.478 17.666 55v-3.833l2.666-3.333-.166-4.167 12-12.667s-1.334-1.5 2.333-4.333c3.667-2.833 3.438-.833 3.438-.833l10.395-8 2.334.833z"/>
        <path fill="#ff8080" d="M20.333 47.833s14.67 8.569 25.588-.001c13.512-10.607 4.746-29.166 4.746-29.166l-1.595-.569-11.134 7.736s-1.124-1.5-3.438.833c-3.08 3.105-2.333 4.333-2.333 4.333l-12 12.667z"/>
        <path fill="url(#linearGradient1210-2)" stroke="#000" d="M20.332 47.834s14.67 8.569 25.588-.001c13.512-10.607 4.746-29.166 4.746-29.166l-1.595-.569-11.134 7.736s-1.124-1.5-3.438.833C31.419 29.772 32.166 31 32.166 31l-12 12.667z"/>
        <path fill="#faa" d="M47.666 39.333c2.334-1.5-9.729-13.5-9.729-13.5s-.18-2.083-3.438.833c-3.258 2.916-2.333 4.333-2.333 4.333s13.167 9.834 15.5 8.334z"/>
        <path fill="url(#linearGradient1178-0)" stroke="#000" d="M47.666 39.333c2.334-1.5-9.729-13.5-9.729-13.5s-.18-2.083-3.438.833c-3.258 2.916-2.333 4.333-2.333 4.333s13.167 9.834 15.5 8.334z"/>
        <path fill="none" stroke="#000" d="M16.833 75.5s4.531.293 11.303 2.167c6.772 1.874 11.302 4.086 11.302 4.086M15 89.5s4.968.077 10.5 1.833S36 96.166 36 96.166"/>
        <circle cx="-49.645" cy="50.009" r="1.5" fill="url(#radialGradient1144-6)" stroke="#000" stroke-width=".25" transform="scale(-1 1)"/>
        <circle cx="-30.323" cy="54.213" r="1.5" fill="url(#radialGradient1146-7)" stroke="#000" stroke-width=".25" transform="scale(-1 1)"/>
        <circle cx="-37.993" cy="89.5" r="1.5" fill="url(#radialGradient1126-0)" stroke="#000" stroke-width=".25" transform="scale(-1 1)"/>
        <path fill="#ff7f2a" stroke="#000" d="M54.583 106.499L59.043 92l2.292 3.331L58 105.908z"/>
        <path fill="#f95" d="M47.666 96.73c-1.258 3.427-3.293 8.721-3.293 8.721s.779 1.723 7.604 2.896c3.855.662 6.023-2.439 6.023-2.439l3.335-10.13s-1.253 5.069-7.874 3.959c-6.878-1.154-4.537-6.435-5.795-3.007z"/>
        <path fill="url(#linearGradient1094-4)" stroke="#000" d="M47.666 96.73a785.563 785.563 0 0 1-3.293 8.721s.779 1.723 7.604 2.896c3.855.662 6.023-2.439 6.023-2.439l3.335-10.13s-1.253 5.069-7.874 3.959c-6.878-1.154-4.537-6.435-5.795-3.007z"/>
    </g>
</svg>
