<svg version="1.1" viewBox="0 0 64 64" xmlns="http://www.w3.org/2000/svg" xmlns:xlink="http://www.w3.org/1999/xlink">
 <defs>
  <linearGradient id="innoGrad3">
   <stop stop-color="#ffb380" offset="0"/>
   <stop stop-color="#fca" offset="1"/>
  </linearGradient>
  <linearGradient id="linearGradient873" x1="19.224" x2="22.292" y1="41.133" y2="20.087" gradientTransform="matrix(-1.1 0 0 1.1 67.465 -4.1898)" gradientUnits="userSpaceOnUse">
   <stop stop-color="#faa" offset="0"/>
   <stop stop-color="#ff8080" offset=".12217"/>
   <stop stop-color="#ff8080" offset=".79047"/>
   <stop stop-color="#faa" offset="1"/>
  </linearGradient>
  <linearGradient id="linearGradient885" x1="37.92" x2="38.831" y1="37.681" y2="19.368" gradientTransform="matrix(-1.1 0 0 1.1 67.465 -4.1898)" gradientUnits="userSpaceOnUse">
   <stop stop-color="#ff8080" offset="0"/>
   <stop stop-color="#faa" offset="1"/>
  </linearGradient>
  <linearGradient id="linearGradient926" x1="42.092" x2="41.543" y1="44.098" y2="45.527" gradientTransform="matrix(-1.1 0 0 1.1 67.465 -4.1898)" gradientUnits="userSpaceOnUse" xlink:href="#innoGrad3"/>
  <linearGradient id="linearGradient940" x1="47.73" x2="47.575" y1="45.535" y2="46.808" gradientTransform="matrix(-1.1 0 0 1.1 67.465 -4.1898)" gradientUnits="userSpaceOnUse" xlink:href="#innoGrad3"/>
  <linearGradient id="linearGradient948" x1="52.878" x2="52.061" y1="45.704" y2="47.096" gradientTransform="matrix(-1.1 0 0 1.1 67.465 -4.1898)" gradientUnits="userSpaceOnUse" xlink:href="#innoGrad3"/>
  <linearGradient id="linearGradient962" x1="48.393" x2="45.918" y1="44.555" y2="48.223" gradientTransform="matrix(-1.1 0 0 1.1 67.465 -4.1898)" gradientUnits="userSpaceOnUse">
   <stop stop-color="#f95" offset="0"/>
   <stop stop-color="#ffb380" offset="1"/>
  </linearGradient>
 </defs>
 <g stroke="#000" stroke-linecap="round" stroke-linejoin="round">
  <g stroke-width=".275">
   <path d="m16.008 48.904c-0.84959 0.67546-1.6899 1.3516-1.6529 2.0904 0.0093 0.33608-0.97389 0.42858-1.6042 0.60767-0.35531-0.04973-1.1154-0.6391-1.8473-1.191l-0.63198 0.09723c-3.1805-3.3691-1.9917-4.1614-4.1808-7.9969 0.14576-0.45441 0.47625-0.78092 1.4584-0.65628z" fill="#ff7f2a"/>
   <path d="m27.164 40.999c-3.5448 0.55824-4.7714 0.27221-8.7603 0.52885l-0.78288 0.80924-0.91094-0.15469-5.8094 0.92812-0.22344 0.05156c-1.9109 0.04131-2.6258 1.7749-2.1656 4.9156 0.26036 0.71971 2.0815 1.7482 6.875 1.0141l3.5726-0.73022 0.48369-0.42293 0.54964 0.2389 4.4063-1.6701 0.1316-0.88749c2.2097-1.1026 4.3142-2.2871 7.0812-2.9562z" fill="#f95"/>
   <path d="m22.74 41.539 1.8473 3.8162-0.38891 0.7049-4.1078 1.507-0.38891-0.29168-0.25902 0.6631c-3.77 0.73374-7.1132 1.2846-8.0296 0.79531l-0.24307-0.21876-0.43162 0.21581c-0.71655-0.32409-1.1864-0.59662-1.124-0.92071l-1.0209 0.07292c-0.65071-2.4283 0.022156-4.2346 2.0836-4.7211l6.0835-0.72361 0.92366 0.14584 1.0452-0.80212z" fill="url(#linearGradient962)"/>
   <path d="m23.723 45.293-2.9906 1.1688c-0.29561 0.11553-0.73836 5.75e-4 -0.89375-0.34375l-1.5125-3.3516c-0.12416-0.27513 0.21059-0.4056 0.42969-0.42969l3.5406-0.39531 1.1859 2.2859c0.1863 0.3591 0.57312 0.93568 0.24062 1.0656z" fill="url(#linearGradient926)"/>
   <path d="m19.306 46.118c0.15941 0.32281 0.1037 0.90288-0.55 0.97969l-6.875 0.80781c-0.47746 0.0561-0.6074-0.33742-0.70469-0.58438l-1.3406-3.4031 7.2875-0.825c0.35461-0.04015 0.672-0.0344 0.80781 0.24062z" fill="url(#linearGradient940)"/>
   <path d="m10.506 47.699c0.31132 0.08059 0.32337-0.20271 0.22344-0.46406l-1.1172-2.9219c-0.85989 1.172-2.517 2.503 0.89375 3.3859z" fill="url(#linearGradient948)"/>
   <path d="m10.677 43.162c-0.11039-0.93385 0.0483-1.8677 0.20625-2.8016-1.5531 0.33061-3.2099-0.39692-3.6781 1.4094l-0.20625 1.0656c0.18523 1.7077 0.82465 3.3408 1.5125 5.2422 1.245-1.5035 0.15722-2.781 2.1656-4.9156z" fill="#f95"/>
  </g>
  <path d="m18.14 41.556 4.607 0.29431s-0.47165 1.5611-2.3141 1.5668c-1.4992 0.0046-2.2929-1.8611-2.2929-1.8611zm2.3334 0.6557c-0.0058-2.07e-4 -0.01158-2.07e-4 -0.01737 0-0.1407 0-0.25476 0.12014-0.25476 0.26834 1e-6 0.1482 0.11406 0.26834 0.25476 0.26834s0.25476-0.12014 0.25476-0.26834c3.12e-4 -0.14134-0.10352-0.2587-0.23739-0.26834z" fill="#f55" stroke-width=".26159"/>
  <path d="m11.085 20.719c-4.9157 8.7709-3.7813 10.776-3.7891 19.547 0.35455 0.37264 4.9884 0.53075 11.735 0.70555 8.6 0.22281 20.354 0.30967 28.026-0.86375-1.4933-7.7897-0.84026-15.647-6.4335-23.308-8.8172-4.7644-24.328-5.6191-29.538 3.9197z" fill="url(#linearGradient885)" stroke-width=".275"/>
 </g>
 <path d="m44.21 39.243-0.07305-0.3438c-1.4932 0.3173-3.8155 0.66289-7.4499 0.95057-2.7436 0.21716-6.0034 0.38216-9.6342 0.47768-3.2139 0.08456-6.5456 0.10959-9.6437 0.07589-2.9427-0.03201-5.5711-0.11622-7.4926-0.24121-0.95332-0.03284-1.7186-0.08015-2.2595-0.13365-0.30839-0.0305-0.53472-0.06205-0.69461-0.0935-0.093766-0.01844-0.16394-0.0367-0.21586-0.05466-0.029721-0.01028-0.053401-0.02045-0.072129-0.03048-0.021514-0.01152-0.03644-0.02284-0.04631-0.03377 0.00981 0.01087 0.023698 0.02345 0.043867 0.03771 0.017583 0.01244 0.039896 0.02613 0.068302 0.04101 0.049697 0.02604 0.11735 0.05537 0.20917 0.08762 0.15705 0.05518 0.37913 0.11691 0.68602 0.18315 0.54055 0.11668 1.2971 0.23695 2.2548 0.34704 1.928 0.16262 4.5644 0.28369 7.511 0.35115 3.1009 0.07099 6.4446 0.08068 9.6636 0.02771 3.6356-0.05982 6.9153-0.19555 9.6709-0.38978 3.6481-0.25713 6.0162-0.58957 7.5473-0.91491l-0.07305-0.3438z" fill="#ffd5d5"/>
 <g fill="#f55" stroke="#000" stroke-linecap="round" stroke-linejoin="round" stroke-width=".275">
  <path d="m44.368 39.474-0.87905-0.63366-1.1186-9.2847c-0.68323-5.6708-7.6456-13.081-15.251-14.915-8.6548-2.0874-13.638 2.6546-16.034 6.078 1.0398-1.5721 1.7826-2.9383 3.0049-4.0049 6.9226-6.0406 17.059-4.2103 28.429 2.0659 5.9301 8.8909 4.7374 17.488 1.8485 20.695z"/>
  <path d="m4.6859 40.45c-0.089584 0.16969 0.055011 0.53454 0.097746 0.8145 0.47373 0.39435 8.5639 0.36071 17.302 0.6339 9.4369 0.29504 16.086 2.7047 18.868 3.2068 2.0119 0.36316 16.155-0.59099 19.427-2.3864v-0.9322z"/>
  <path d="m53.239 38.761-0.29796-3.1459c-0.5138-0.59935-1.5621-1.0205-2.3492-1.5288-0.3052 1.1871 0.86996 8.1405 2.6471 4.6747z"/>
 </g>
 <g stroke="#000" stroke-linecap="round" stroke-linejoin="round" stroke-width=".275">
  <path d="m52.172 38.631c0.21575 0.2718 0.53824 0.25626 1.0669 0.13051l6.9486 2.928c0.37062 0.15618 0.2165 0.53106-0.42187 0.73827-4.642 1.5068-10.583 1.6037-16.295 2.0039-1.2706 0.08902-2.3964 0.06711-3.4277-0.26367-5.6679-1.818-12.506-2.672-20.118-3.0322-5.3947-0.25528-13.771-0.10751-15.24-0.68553 0.36606-0.47126 0.7349-0.81789 1.4502-0.8701-1.2189 1.8501 28.97 1.908 38.232-0.10547-0.8416-5.5452-2.0658-14.411-2.5248-16.636-0.13769-0.66736-7.0401-9.4437-20.572-8.9402-2.5803 0.09602-7.2245 2.7949-7.2245 2.7949 1.6832-1.539 9.5219-5.2893 15.187-5.2206 2.6089 0.03166 5.4827 0.6795 7.7518 1.9511 4.3058 1.1472 9.9571 5.7751 10.652 7.9627 1.7325 5.4533 3.6938 11.4 4.5351 17.244z" fill="url(#linearGradient873)"/>
  <path d="m33.514 36.212c-0.0613 1.1807-0.15464 2.2552-0.17072 3.5289-0.0033 0.26517 0.03502 0.61404 0.13023 0.75764 0.20664 0.31168 0.33628 0.46002 0.47926 0.50521 2.0652-1.6228 2.4643-3.4586-0.43878-4.7917z" fill="#ff8080"/>
  <path d="m41.028 35.914c-1.3515 1.133-1.2918 3.4888 0.66384 4.5364-0.08898-1.5121-0.36738-3.0242-0.66384-4.5364z" fill="#f55"/>
  <path d="m41.028 35.914 0.12333 1.0823c0.18515 2.2136-6.6406 1.5983-7.119 0.2373l-0.51788-1.0213c0.69824 0.07234 5.7254-0.02593 7.5136-0.29831z" fill="#faa"/>
  <path d="m41.692 40.45-0.54052-3.454c-1.4724 0.44984-7.0944 0.52337-7.119 0.2373l-0.0791 3.7704c0.06017 0.17293 8.0672-0.09118 7.7386-0.5537z" fill="#f55"/>
  <path d="m7.0769 36.342-1.3797 1.3051 0.03729 2.722 1.2119-0.03729c0.38092-0.01173 0.62191-0.25186 0.6339-0.57797l0.093225-2.5356c0.017281-0.47-0.35898-1.1011-0.59662-0.87627z" fill="#f55"/>
 </g>
 <path d="m36.985 13.424-0.05382 0.10609c1.103 0.55955 2.7463 1.5242 4.6919 3.1854 1.8893 1.6131 3.1242 3.0847 3.7393 3.9308-0.6246-0.85906-1.793-2.3412-3.6609-4.0202-1.8945-1.703-3.5602-2.7488-4.6627-3.3081l-0.05382 0.10609z"/>
 <path d="m42.131 20.524c-2.2647-2.5149-5.6792-5.3671-10.7-6.7592-4.7709-1.3228-9.1347-0.79586-11.493-0.34239l0.05094 0.26488c2.3367-0.44932 6.6477-1.0392 11.407 0.20772 5.0045 1.3112 8.4711 4.1146 10.735 6.629z"/>
 <g stroke="#000" stroke-linecap="round" stroke-linejoin="round" stroke-width=".275">
  <path d="m19.149 35.969 0.04661 4.0926c3e-3 0.26372-0.02806 0.5858-0.20265 0.6377l-0.39396 0.11711-1.2305-3.5797z" fill="#ff2a2a"/>
  <path d="m12.372 36.231 0.67119-0.33559c0.1596 0.0021 0.24347 0.0048 0.45337 0.0076 0.04401 5.9e-4 -0.44698 0.17204-0.0602 0.18225 0.47327 0.01249 0.40753-0.17907 0.46405-0.17838 1.048 0.01287 2.5298 0.02386 4.0216-0.0097 0.0513-0.0011-0.59347 0.24686 0.26566 0.17685 0.07118-0.0058 0.03105-0.18408 0.10238-0.18605 0.29149-8e-3 0.58202-0.01792 0.86842-0.02995l-0.55932 0.37288c-1.7245 1.6724-6.2189 3.01e-4 -6.2271 2e-6z" fill="#faa"/>
  <path d="m18.599 36.231v4.5864h-6.1898l-0.03729-4.5864c1.6921 0.13983 4.8813 0.28749 6.2271 0z" fill="#f55"/>
 </g>
 <g fill="#fff" fill-opacity=".75294">
  <path d="m11.31 21.624c1.3371-1.7704 3.5814-3.6295 6.3557-4.5493 1.5197-0.50384 2.7828-0.60471 3.566-0.69006 0.72576-0.07909 1.7271-0.16278 2.9741-0.07742 2.0462 0.14006 4.2879 0.70865 6.5916 1.8549 2.7292 1.358 4.7394 3.1328 5.8188 4.3321-1.0897-1.2108-2.8758-3.1459-5.5347-4.8347-2.224-1.4126-4.5177-2.299-6.7247-2.6528-1.3462-0.21585-2.4752-0.20275-3.2878-0.1142-0.87564 0.09542-2.2752 0.43754-3.8067 1.2412-2.8633 1.5024-4.5945 3.6923-5.9524 5.4904z"/>
  <path d="m22.626 12.795c1.1631-0.28947 4.603-0.47599 5.7043-0.49478 1.0316-0.0176 2.6347-0.0068 4.513 0.36726 4.0909 0.81463 7.3121 2.9468 9.5641 5.0495-2.2615-2.1116-5.2904-4.431-9.4693-5.4722-1.9017-0.47383-3.5592-0.55542-4.6179-0.53736-1.1324 0.01931-4.5311 0.79805-5.6942 1.0875z"/>
  <path d="m34.138 36.751c0.33922 0.0092 1.4294 0.30812 1.8096 0.30985 0.21512 9.79e-4 0.49052-0.0032 0.80243-0.01441 0.73512-0.02651 1.7233-0.09387 2.6363-0.24778 0.52029-0.14511 1.0907-0.32104 1.3517-0.35703-0.26368 0.03636-0.8554 0.02035-1.3956 0.0083-0.90305 0.07445-1.8702 0.0717-2.5993 0.06402-0.30944-0.0033-0.57843-0.0074-0.79303-0.0084-0.37623-0.0017-1.4729 0.25465-1.8121 0.24548z"/>
 </g>
</svg>
