<svg xmlns="http://www.w3.org/2000/svg" cursor="default" viewBox="0 0 256 256">
    <path fill="#faa" fill-rule="evenodd" stroke="#000" stroke-width="1.102" d="M199.922 135.677c15.734-3.27 24.915-1.298 35.475 2.585l-4.68 1.796c-11.978-3.696-18.789-2.22-32.5-.466zM55.416 137.153c-15.43-4.496-24.736-3.25-35.569-.209l4.524 2.158c12.232-2.744 18.906-.737 32.437 2.088z"/>
    <path fill="#f55" fill-rule="evenodd" stroke="#000" stroke-width="1.102" d="M30.628 99.79c2.923-9.272 8.304 8.804.787 3.741-61.02 18.319 16.483 45.418 96.469 44.888 49.173-.326 162.275-11.631 98.634-47.841-5.773 2.544-2.003-10.43 1.182-4.528 57.164 32.552 5.007 57.224-99.62 58.078-125.536 1.025-151.547-41.63-97.452-54.338z"/>
    <path fill="#ff8080" fill-rule="evenodd" stroke="#000" stroke-width="1.102" d="M104.488 128.87c3.88-4.235 15.268-6.828 20.611 3.699 2.69 5.298.646 16.719-14.068 17.043-19.355.427-43.477-26.458-49.699-23.248-7.016 3.62-2.033 15.677 5.847 10.72 6.224-3.917 9.434 2.595 3.116 6.37-6.11 3.649-14.217.775-17.372-4.808-3.421-6.053-1.313-15.116 7.574-17.85 9.879-3.04 27.75 18.561 49.142 23.248 8.23.487 11.024-4.48 9.648-8.676-1.943-5.926-7.707-5.37-11.597-1.765-3.791 3.512-6.662-.957-3.202-4.733zM150.976 129.084c-3.88-4.234-15.269-6.827-20.612 3.7-2.689 5.297-.646 16.718 14.07 17.043 19.354.427 43.476-26.458 49.698-23.249 7.015 3.62 2.033 15.677-5.847 10.72-6.224-3.916-9.434 2.596-3.116 6.37 6.109 3.65 14.217.775 17.372-4.807 3.42-6.053 1.312-15.117-7.574-17.851-9.88-3.04-27.75 18.562-49.142 23.248-8.23.488-11.025-4.48-9.649-8.675 1.944-5.927 7.708-5.37 11.598-1.766 3.79 3.512 6.662-.957 3.202-4.733z"/>
    <path fill="#ffd5d5" fill-rule="evenodd" stroke="#000" stroke-width="1.102" d="M125.718 128.436c-7.98-.68-11.77-4.802-12.403-11.517-1.839-1.938.186-3.456 1.772-1.772 8.278.778 11.493 5.27 11.911 11.812 2.008 2.232.184 3.075-1.28 1.477zM130.47 128.235c7.98-.68 11.77-4.801 12.403-11.517 1.84-1.937-.186-3.456-1.772-1.772-8.277.779-11.492 5.27-11.91 11.813-2.009 2.231-.184 3.075 1.28 1.476z"/>
    <path fill="#ffd5d5" fill-rule="evenodd" stroke="#000" stroke-width="1.102" d="M127.14 122.675c-4.974-6.276-4.573-11.861-.117-16.925.15-2.667 2.644-2.234 2.505.075 5.108 6.56 4.041 11.98-.435 16.77-.248 2.991-2.113 2.241-1.952.08z"/>
    <ellipse cx="93.89" cy="120.283" fill="#ffd5d5" stroke="#000" stroke-linecap="round" stroke-linejoin="round" stroke-width=".813" rx="2.899" ry="2.862"/>
    <ellipse cx="94.369" cy="133.425" fill="#ffd5d5" stroke="#000" stroke-linecap="round" stroke-linejoin="round" stroke-width=".813" rx="2.899" ry="2.862"/>
    <ellipse cx="88.611" cy="130.693" fill="#ffd5d5" stroke="#000" stroke-linecap="round" stroke-linejoin="round" stroke-width=".813" rx="2.899" ry="2.862"/>
    <ellipse cx="88.094" cy="124.196" fill="#ffd5d5" stroke="#000" stroke-linecap="round" stroke-linejoin="round" stroke-width=".813" rx="2.899" ry="2.862"/>
    <ellipse cx="99.907" cy="123.236" fill="#ffd5d5" stroke="#000" stroke-linecap="round" stroke-linejoin="round" stroke-width=".813" rx="2.899" ry="2.862"/>
    <ellipse cx="100.054" cy="129.807" fill="#ffd5d5" stroke="#000" stroke-linecap="round" stroke-linejoin="round" stroke-width=".813" rx="2.899" ry="2.862"/>
    <ellipse cx="111.587" cy="137.571" fill="#faa" stroke="#000" stroke-linecap="round" stroke-linejoin="round" stroke-width="1.102" rx="4.676" ry="4.774"/>
    <ellipse cx="144.929" cy="137.71" fill="#faa" stroke="#000" stroke-linecap="round" stroke-linejoin="round" stroke-width="1.102" rx="4.676" ry="4.774"/>
    <ellipse cx="63.699" cy="133.951" fill="#faa" stroke="#000" stroke-linecap="round" stroke-linejoin="round" stroke-width="1.102" rx="4.676" ry="4.774"/>
    <ellipse cx="191.634" cy="133.742" fill="#faa" stroke="#000" stroke-linecap="round" stroke-linejoin="round" stroke-width="1.102" rx="4.676" ry="4.774"/>
    <ellipse cx="49.834" cy="132.265" fill="#ffd5d5" stroke="#000" stroke-linecap="round" stroke-linejoin="round" stroke-width=".659" rx="2.348" ry="2.318" transform="rotate(1.127)"/>
    <ellipse cx="38.349" cy="131.639" fill="#ffd5d5" stroke="#000" stroke-linecap="round" stroke-linejoin="round" stroke-width=".659" rx="2.348" ry="2.318" transform="rotate(1.127)"/>
    <ellipse cx="44.143" cy="131.378" fill="#ffd5d5" stroke="#000" stroke-linecap="round" stroke-linejoin="round" stroke-width=".659" rx="2.348" ry="2.318" transform="rotate(1.127)"/>
    <path fill="#fff" fill-rule="evenodd" d="M200.509 144.154c8.108-.566 17.573-2.5 25.794-5.122.611-.233 1.215-.47 1.81-.71 4.223-1.703 8.008-3.583 10.944-5.526 1.468-.972 2.723-1.96 3.712-2.947.99-.988 1.707-1.97 2.103-2.925-.5.896-1.3 1.786-2.344 2.662-1.046.878-2.344 1.75-3.845 2.602-3.002 1.705-6.824 3.34-11.07 4.798-.597.205-1.203.407-1.817.605-7.943 3.063-17.237 5.49-25.287 6.563zM190.698 122.385c1.763-.206 3.427.26 4.868 1.11 1.192.702 2.253 1.678 3.115 2.799.218.209.429.427.632.652 1.155 1.285 2.053 2.824 2.528 4.42.474 1.59.536 3.26-.02 4.803.778-1.458.985-3.183.713-4.956-.272-1.767-1.016-3.557-2.104-5.14a13.76 13.76 0 0 0-.607-.817c-1.154-1.097-2.483-1.976-3.89-2.524-1.716-.668-3.515-.832-5.235-.347zM112.557 126.999c1.763-.206 3.428.261 4.868 1.11 1.193.702 2.254 1.678 3.116 2.799.217.209.428.427.631.653 1.155 1.284 2.053 2.823 2.53 4.42.473 1.589.535 3.26-.022 4.803.779-1.46.986-3.184.713-4.957-.271-1.766-1.015-3.557-2.104-5.14a13.76 13.76 0 0 0-.606-.817c-1.155-1.097-2.484-1.976-3.891-2.524-1.716-.668-3.514-.832-5.235-.347zM115.079 117.036c2.824.36 4.88 1.612 6.26 3.206.165.12.325.246.482.378 1.788 1.498 3.041 3.67 3.615 6.094-.102-2.465-.922-5.02-2.598-7.083-.148-.182-.302-.36-.464-.534-2.002-1.46-4.461-2.216-7.295-2.061zM128.313 106.911c1.658 2.315 2.14 4.673 1.911 6.77.024.202.04.405.051.61.119 2.329-.619 4.725-2.005 6.795 1.737-1.752 3.05-4.092 3.422-6.723.032-.232.058-.467.075-.704-.292-2.46-1.412-4.777-3.454-6.748zM141.08 116.067c.104.458.106.902.022 1.337a4.16 4.16 0 0 1-.328.985 4.4 4.4 0 0 1-.056.37c-.2 1.039-.796 2.27-1.844 3.703 1.244-1.228 2.136-2.358 2.647-3.43.064-.136.123-.27.175-.406.043-.44.025-.85-.05-1.23a3.416 3.416 0 0 0-.567-1.329zM144.315 134.641a1.07 1.07 0 0 1 .628-.02c.209.05.423.152.63.292.42.28.823.72 1.11 1.24.066.123.127.248.18.377.308.328.57.737.72 1.209.193.615.203 1.37-.181 2.198.587-.697.874-1.473.9-2.284a4.267 4.267 0 0 0-.35-1.793 4.668 4.668 0 0 0-.37-.413c-.544-.54-1.187-.91-1.785-1.061-.301-.075-.59-.095-.849-.051-.26.043-.475.148-.633.306zM110.845 134.6a1.07 1.07 0 0 1 .629-.02c.208.05.422.152.63.292.419.28.822.72 1.109 1.24.067.123.127.249.18.377.309.328.571.737.72 1.209.194.615.203 1.37-.18 2.198.586-.696.873-1.473.9-2.284a4.267 4.267 0 0 0-.35-1.792 4.67 4.67 0 0 0-.37-.414c-.545-.54-1.187-.91-1.786-1.06-.3-.076-.59-.096-.848-.052-.26.043-.475.148-.634.306zM190.858 130.58a1.07 1.07 0 0 1 .628-.021c.208.05.423.153.63.292.42.28.823.72 1.109 1.24.067.123.127.249.18.377.31.328.571.737.72 1.209.194.615.203 1.37-.18 2.198.587-.696.873-1.473.9-2.284a4.267 4.267 0 0 0-.35-1.792 4.669 4.669 0 0 0-.37-.413c-.544-.54-1.187-.912-1.786-1.062-.3-.075-.59-.095-.848-.051-.26.043-.475.148-.633.306zM62.817 131.05a1.07 1.07 0 0 1 .629-.02c.208.05.422.153.63.292.419.28.822.721 1.109 1.24.067.123.127.249.18.377.309.328.571.737.72 1.209.194.615.203 1.37-.18 2.198.586-.696.873-1.473.9-2.284a4.267 4.267 0 0 0-.35-1.792 4.669 4.669 0 0 0-.37-.413c-.545-.54-1.187-.912-1.786-1.062-.3-.075-.59-.095-.848-.051-.26.043-.475.148-.634.306z"/>
    <ellipse cx="94.025" cy="126.509" fill="#faa" stroke="#000" stroke-linecap="round" stroke-linejoin="round" stroke-width="1.102" rx="4.676" ry="4.774"/>
    <path fill="#fff" fill-rule="evenodd" d="M92.995 123.294a1.07 1.07 0 0 1 .629-.02c.208.05.422.152.63.292.419.28.822.72 1.109 1.24.067.123.127.248.18.377.309.328.571.737.72 1.208.194.616.203 1.37-.18 2.198.586-.696.873-1.472.9-2.283a4.267 4.267 0 0 0-.35-1.793 4.669 4.669 0 0 0-.37-.413c-.545-.54-1.187-.911-1.786-1.061-.3-.075-.59-.095-.848-.052-.26.044-.475.15-.634.307z"/>
    <ellipse cx="160.823" cy="120.907" fill="#ffd5d5" stroke="#000" stroke-linecap="round" stroke-linejoin="round" stroke-width=".813" rx="2.899" ry="2.862"/>
    <ellipse cx="161.303" cy="134.048" fill="#ffd5d5" stroke="#000" stroke-linecap="round" stroke-linejoin="round" stroke-width=".813" rx="2.899" ry="2.862"/>
    <ellipse cx="155.544" cy="131.317" fill="#ffd5d5" stroke="#000" stroke-linecap="round" stroke-linejoin="round" stroke-width=".813" rx="2.899" ry="2.862"/>
    <ellipse cx="155.028" cy="124.82" fill="#ffd5d5" stroke="#000" stroke-linecap="round" stroke-linejoin="round" stroke-width=".813" rx="2.899" ry="2.862"/>
    <ellipse cx="166.84" cy="123.86" fill="#ffd5d5" stroke="#000" stroke-linecap="round" stroke-linejoin="round" stroke-width=".813" rx="2.899" ry="2.862"/>
    <ellipse cx="166.988" cy="130.431" fill="#ffd5d5" stroke="#000" stroke-linecap="round" stroke-linejoin="round" stroke-width=".813" rx="2.899" ry="2.862"/>
    <ellipse cx="160.958" cy="127.133" fill="#faa" stroke="#000" stroke-linecap="round" stroke-linejoin="round" stroke-width="1.102" rx="4.676" ry="4.774"/>
    <path fill="#fff" fill-rule="evenodd" d="M159.929 123.918a1.07 1.07 0 0 1 .628-.02c.209.05.423.152.63.292.42.28.823.72 1.11 1.24.066.123.127.248.18.377.308.328.57.737.72 1.208.193.616.203 1.37-.181 2.198.587-.696.874-1.472.9-2.283a4.266 4.266 0 0 0-.35-1.793 4.667 4.667 0 0 0-.37-.413c-.544-.54-1.187-.911-1.785-1.061-.301-.076-.59-.095-.849-.052-.26.044-.475.149-.633.307z"/>
    <ellipse cx="215.508" cy="141.664" fill="#ffd5d5" stroke="#000" stroke-linecap="round" stroke-linejoin="round" stroke-width=".659" rx="2.348" ry="2.318" transform="rotate(-2.374)"/>
    <ellipse cx="204.023" cy="141.037" fill="#ffd5d5" stroke="#000" stroke-linecap="round" stroke-linejoin="round" stroke-width=".659" rx="2.348" ry="2.318" transform="rotate(-2.374)"/>
    <ellipse cx="209.817" cy="140.776" fill="#ffd5d5" stroke="#000" stroke-linecap="round" stroke-linejoin="round" stroke-width=".659" rx="2.348" ry="2.318" transform="rotate(-2.374)"/>
</svg>
