<?xml version="1.0" encoding="UTF-8" standalone="no"?>
<!-- Created with Inkscape (http://www.inkscape.org/) -->

<svg
   xmlns:dc="http://purl.org/dc/elements/1.1/"
   xmlns:cc="http://creativecommons.org/ns#"
   xmlns:rdf="http://www.w3.org/1999/02/22-rdf-syntax-ns#"
   xmlns:svg="http://www.w3.org/2000/svg"
   xmlns="http://www.w3.org/2000/svg"
   xmlns:xlink="http://www.w3.org/1999/xlink"
   xmlns:sodipodi="http://sodipodi.sourceforge.net/DTD/sodipodi-0.dtd"
   xmlns:inkscape="http://www.inkscape.org/namespaces/inkscape"
   viewBox="0 0 300 300"
   version="1.1"
   id="svg8"
   inkscape:version="0.92.3 (2405546, 2018-03-11)"
   sodipodi:docname="strapless_dildo.svg">
  <sodipodi:namedview
     id="base"
     pagecolor="#ffffff"
     bordercolor="#666666"
     borderopacity="1.0"
     inkscape:pageopacity="0.0"
     inkscape:pageshadow="2"
     inkscape:zoom="0.7"
     inkscape:cx="-43.467544"
     inkscape:cy="613.91929"
     inkscape:document-units="mm"
     inkscape:current-layer="layer5"
     showgrid="false"
     inkscape:pagecheckerboard="false"
     inkscape:window-width="1360"
     inkscape:window-height="705"
     inkscape:window-x="-8"
     inkscape:window-y="-8"
     inkscape:window-maximized="1"
     showguides="false" />
  <defs
     id="defs2">
    <inkscape:path-effect
       effect="skeletal"
       id="path-effect4965"
       is_visible="true"
       pattern="m 2.5390605,3.2627481 c 0,-2.76000004 2.24,-5 5,-5 2.7600005,0 5.0000005,2.23999996 5.0000005,5 0,2.76 -2.24,5 -5.0000005,5 -2.76,0 -5,-2.24 -5,-5 z"
       copytype="single_stretched"
       prop_scale="0.2"
       scale_y_rel="false"
       spacing="0"
       normal_offset="0"
       tang_offset="0"
       prop_units="false"
       vertical_pattern="false"
       fuse_tolerance="0" />
    <inkscape:path-effect
       effect="skeletal"
       id="path-effect4961"
       is_visible="true"
       pattern="m 0.16704346,4.3986436 c 0,-2.76 2.24000004,-5.00000004 5.00000004,-5.00000004 2.76,0 4.9999995,2.24000004 4.9999995,5.00000004 0,2.76 -2.2399995,5 -4.9999995,5 -2.76,0 -5.00000004,-2.24 -5.00000004,-5 z"
       copytype="single_stretched"
       prop_scale="0.1"
       scale_y_rel="false"
       spacing="0"
       normal_offset="0"
       tang_offset="0"
       prop_units="false"
       vertical_pattern="false"
       fuse_tolerance="0" />
    <inkscape:path-effect
       effect="skeletal"
       id="path-effect4956"
       is_visible="true"
       pattern="m 0,4.0645567 c 0,-2.76 2.24,-5.00000005 5,-5.00000005 2.76,0 5,2.24000005 5,5.00000005 0,2.76 -2.24,5 -5,5 -2.76,0 -5,-2.24 -5,-5 z"
       copytype="single_stretched"
       prop_scale="0.2"
       scale_y_rel="false"
       spacing="0"
       normal_offset="0"
       tang_offset="0"
       prop_units="false"
       vertical_pattern="false"
       fuse_tolerance="0" />
    <linearGradient
       inkscape:collect="always"
       id="linearGradient4950">
      <stop
         style="stop-color:#ff8080;stop-opacity:1"
         offset="0"
         id="stop4946" />
      <stop
         style="stop-color:#ff5555;stop-opacity:1"
         offset="1"
         id="stop4948" />
    </linearGradient>
    <inkscape:path-effect
       effect="skeletal"
       id="path-effect4920"
       is_visible="true"
       pattern="M 0,5 C 0,2.24 2.24,0 5,0 7.76,0 10,2.24 10,5 10,7.76 7.76,10 5,10 2.24,10 0,7.76 0,5 Z"
       copytype="single_stretched"
       prop_scale="0.1"
       scale_y_rel="false"
       spacing="0"
       normal_offset="0"
       tang_offset="0"
       prop_units="false"
       vertical_pattern="false"
       fuse_tolerance="0" />
    <inkscape:path-effect
       effect="skeletal"
       id="path-effect4916"
       is_visible="true"
       pattern="m 54.247846,40.203601 c 0,-2.76 2.24,-5 5,-5 2.76,0 5,2.24 5,5 0,2.76 -2.24,5 -5,5 -2.76,0 -5,-2.24 -5,-5 z"
       copytype="single_stretched"
       prop_scale="0.1"
       scale_y_rel="false"
       spacing="0"
       normal_offset="0"
       tang_offset="0"
       prop_units="false"
       vertical_pattern="false"
       fuse_tolerance="0" />
    <inkscape:path-effect
       effect="taper_stroke"
       id="path-effect4911"
       is_visible="true"
       stroke_width="0.6"
       attach_start="0.72365859"
       end_offset="1.2011607"
       smoothing="0"
       jointype="bevel"
       miter_limit="100" />
    <inkscape:path-effect
       effect="skeletal"
       id="path-effect4909"
       is_visible="true"
       pattern="M 0,5 C 0,2.24 2.24,0 5,0 7.76,0 10,2.24 10,5 10,7.76 7.76,10 5,10 2.24,10 0,7.76 0,5 Z"
       copytype="single_stretched"
       prop_scale="0.26458333"
       scale_y_rel="false"
       spacing="0"
       normal_offset="0"
       tang_offset="0"
       prop_units="false"
       vertical_pattern="false"
       fuse_tolerance="0" />
    <inkscape:path-effect
       effect="taper_stroke"
       id="path-effect4881"
       is_visible="true"
       stroke_width="0.7"
       attach_start="1e-007"
       end_offset="0.5"
       smoothing="0.7"
       jointype="extrapolated"
       miter_limit="100" />
    <inkscape:path-effect
       effect="taper_stroke"
       id="path-effect4860"
       is_visible="true"
       stroke_width="0.5"
       attach_start="0.7478252"
       end_offset="0.73058746"
       smoothing="0.75"
       jointype="round"
       miter_limit="1" />
    <inkscape:path-effect
       effect="skeletal"
       id="path-effect4858"
       is_visible="true"
       pattern="M 0,0 H 1"
       copytype="single_stretched"
       prop_scale="1"
       scale_y_rel="false"
       spacing="0"
       normal_offset="0"
       tang_offset="0"
       prop_units="false"
       vertical_pattern="false"
       fuse_tolerance="0" />
    <inkscape:path-effect
       effect="powerstroke"
       id="path-effect4847"
       is_visible="true"
       offset_points="6.1607226e-015,0.47412085"
       sort_points="true"
       interpolator_type="CubicBezierSmooth"
       interpolator_beta="0.2"
       start_linecap_type="zerowidth"
       linejoin_type="extrp_arc"
       miter_limit="4"
       end_linecap_type="zerowidth" />
    <inkscape:path-effect
       effect="skeletal"
       id="path-effect4843"
       is_visible="true"
       pattern="m -2.078869,2.921131 c 0,-2.76000005 2.23999995,-5 5,-5 2.76,0 5,2.23999995 5,5 0,2.76 -2.24,5 -5,5 -2.76000005,0 -5,-2.24 -5,-5 z"
       copytype="single_stretched"
       prop_scale="0.1"
       scale_y_rel="false"
       spacing="0"
       normal_offset="0"
       tang_offset="0"
       prop_units="false"
       vertical_pattern="false"
       fuse_tolerance="0" />
    <inkscape:path-effect
       effect="powerstroke"
       id="path-effect4833"
       is_visible="true"
       offset_points="0,0.1144261"
       sort_points="true"
       interpolator_type="CubicBezierJohan"
       interpolator_beta="0.2"
       start_linecap_type="zerowidth"
       linejoin_type="extrp_arc"
       miter_limit="4"
       end_linecap_type="zerowidth" />
    <inkscape:path-effect
       effect="powerstroke"
       id="path-effect4829"
       is_visible="true"
       offset_points="0,0.13229166"
       sort_points="true"
       interpolator_type="CubicBezierJohan"
       interpolator_beta="0.2"
       start_linecap_type="zerowidth"
       linejoin_type="extrp_arc"
       miter_limit="4"
       end_linecap_type="zerowidth" />
    <inkscape:path-effect
       effect="powerstroke"
       id="path-effect4819"
       is_visible="true"
       offset_points="3,0.13229166"
       sort_points="true"
       interpolator_type="CubicBezierJohan"
       interpolator_beta="0.2"
       start_linecap_type="zerowidth"
       linejoin_type="extrp_arc"
       miter_limit="4"
       end_linecap_type="zerowidth" />
    <inkscape:path-effect
       effect="bspline"
       id="path-effect4817"
       is_visible="true"
       weight="33.333333"
       steps="2"
       helper_size="0"
       apply_no_weight="true"
       apply_with_weight="true"
       only_selected="false" />
    <inkscape:path-effect
       effect="powerstroke"
       id="path-effect4813"
       is_visible="true"
       offset_points="1,0.13229166"
       sort_points="true"
       interpolator_type="CubicBezierJohan"
       interpolator_beta="0.2"
       start_linecap_type="zerowidth"
       linejoin_type="extrp_arc"
       miter_limit="4"
       end_linecap_type="zerowidth" />
    <linearGradient
       inkscape:collect="always"
       id="linearGradient4736">
      <stop
         style="stop-color:#ffd5d5;stop-opacity:1"
         offset="0"
         id="stop4732" />
      <stop
         style="stop-color:#ffaaaa;stop-opacity:1"
         offset="1"
         id="stop4734" />
    </linearGradient>
    <linearGradient
       inkscape:collect="always"
       id="linearGradient4700">
      <stop
         style="stop-color:#ffd5d5;stop-opacity:1"
         offset="0"
         id="stop4696" />
      <stop
         style="stop-color:#ffaaaa;stop-opacity:1"
         offset="1"
         id="stop4698" />
    </linearGradient>
    <linearGradient
       inkscape:collect="always"
       xlink:href="#linearGradient4700"
       id="linearGradient4702"
       x1="251.02292"
       y1="169.16258"
       x2="177.28177"
       y2="222.1956"
       gradientUnits="userSpaceOnUse" />
    <linearGradient
       inkscape:collect="always"
       xlink:href="#linearGradient4736"
       id="linearGradient4738"
       x1="927.32007"
       y1="555.04089"
       x2="734.38092"
       y2="686.36072"
       gradientUnits="userSpaceOnUse" />
    <inkscape:path-effect
       effect="taper_stroke"
       id="path-effect4860-4"
       is_visible="true"
       stroke_width="0.75"
       attach_start="0.7478252"
       end_offset="0.73058746"
       smoothing="0.75"
       jointype="round"
       miter_limit="1" />
    <linearGradient
       inkscape:collect="always"
       xlink:href="#linearGradient4950"
       id="linearGradient4952"
       x1="454.28571"
       y1="519.57257"
       x2="291.42859"
       y2="659.57257"
       gradientUnits="userSpaceOnUse" />
  </defs>
  <metadata
     id="metadata5">
    <rdf:RDF>
      <cc:Work
         rdf:about="">
        <dc:format>image/svg+xml</dc:format>
        <dc:type
           rdf:resource="http://purl.org/dc/dcmitype/StillImage" />
        <dc:title />
      </cc:Work>
    </rdf:RDF>
  </metadata>
  <g
     inkscape:groupmode="layer"
     id="layer4"
     inkscape:label="Color"
     style="display:inline">
    <path
       style="opacity:1;fill:url(#linearGradient4702);fill-opacity:1;stroke:none;stroke-width:1.14536989;stroke-linecap:round;stroke-linejoin:miter;stroke-miterlimit:4;stroke-dasharray:none;stroke-dashoffset:0;stroke-opacity:1"
       d="m 182.96217,91.992847 c -15.53816,-0.323578 -31.50711,5.401519 -41.94239,17.196343 -10.50571,11.22255 -14.33478,26.63306 -18.41275,41.00964 -3.19468,13.22205 -4.89211,27.14602 -2.68263,40.65926 0.90651,4.63518 3.27742,8.80382 5.1799,13.04664 18.10721,26.12524 41.87983,48.22425 68.6831,65.23461 24.10711,15.17701 52.17754,25.91277 81.05643,24.33993 9.7156,-0.66227 19.68109,-0.97323 29.02294,-3.9138 3.59996,-3.14992 5.53772,-7.8728 8.11082,-11.85154 4.64436,-8.3621 9.13255,-18.10972 6.3241,-27.86359 -3.55486,-13.72373 -11.79549,-25.58282 -18.78035,-37.72727 -10.58142,-16.60595 -18.23629,-34.77686 -26.33025,-52.65889 -7.44776,-16.16678 -17.83346,-31.0064 -30.45728,-43.5463 -15.18243,-13.73015 -35.02016,-22.761826 -55.55445,-23.883601 -1.40497,-0.04732 -2.81129,-0.05979 -4.21719,-0.04143 z"
       id="path4694"
       inkscape:connector-curvature="0"
       transform="scale(0.26458333)" />
    <path
       style="display:inline;opacity:1;fill:url(#linearGradient4738);fill-opacity:1;stroke:#000000;stroke-width:2.29073977;stroke-linecap:round;stroke-linejoin:miter;stroke-miterlimit:4;stroke-dasharray:none;stroke-dashoffset:0;stroke-opacity:1"
       d="m 829.5836,439.93723 c -17.35352,-0.66824 -34.2878,7.256 -45.21024,20.69234 -16.05967,17.98188 -17.67429,44.48448 -12.46974,67.00937 8.28381,27.03812 30.36253,47.68248 36.72721,75.53855 6.37889,23.31732 5.77935,48.44328 -2.4526,71.23068 -7.2139,24.9314 -20.35872,49.38734 -18.63838,76.02311 0.91163,17.55881 10.7948,34.36159 26.60144,42.47337 23.1965,13.7594 51.58171,13.68171 77.42932,9.52027 30.2552,-5.71502 58.73026,-21.52495 79.27651,-44.46128 9.16552,-16.21003 6.92619,-35.67898 6.85714,-53.55439 -2.77461,-44.43099 -16.08127,-87.37199 -29.92294,-129.40949 -14.1077,-39.18037 -30.52094,-79.19391 -59.66214,-109.78702 -14.24571,-14.78745 -33.65508,-25.94829 -54.71988,-25.24986 -1.27185,-0.0279 -2.54359,-0.0367 -3.8157,-0.0256 z"
       id="path4729"
       inkscape:connector-curvature="0"
       transform="scale(0.26458333)" />
    <path
       style="display:inline;opacity:1;fill:url(#linearGradient4952);fill-opacity:1;stroke:none;stroke-width:1.09191918;stroke-linecap:round;stroke-linejoin:miter;stroke-miterlimit:4;stroke-dasharray:none;stroke-dashoffset:0;stroke-opacity:1"
       d="m 122.95707,202.93958 c 3.42261,68.63433 39.69736,163.26523 83.39994,235.4828 52.72527,93.21456 112.94122,142.10122 168.26036,214.23905 13.95424,32.74028 23.58982,11.51074 67.56707,75.23062 50.23683,59.05053 82.29411,100.90701 119.52019,166.02647 35.0488,56.80258 77.20626,107.81108 142.25992,130.81228 43.43741,14.0028 91.64635,20.1915 135.51648,4.6971 56.98493,-22.2582 88.73202,-78.72464 106.87099,-133.90033 12.80132,-41.24697 23.54495,-91.44009 23.3943,-134.4156 -27.29574,24.76843 -65.42839,45.27595 -103.57864,43.97255 -10.96311,-0.1833 -24.15779,-0.21986 -34.54216,-3.0335 12.87442,29.44547 6.32168,71.85829 -24.82844,85.98792 -26.50375,10.67899 -58.9489,0.21506 -73.91571,-24.26572 -10.7064,-18.06546 -20.37226,-35.57604 -15.24921,-55.54115 -4.82574,-45.32906 -16.01142,-98.2033 -35.84936,-139.39623 -6.38715,-12.29669 -21.14529,-28.39218 -36.67722,-26.85584 -35.63683,-2.27962 -43.55746,8.33767 -53.53412,-1.37318 C 569.59242,620.83016 552.32962,596.07376 531.16749,575.2823 477.75813,516.48698 417.92658,462.59489 373.61525,396.20909 362.73163,364.53002 360.2428,383.86071 326.31564,326.38624 c -7.14827,-11.86525 -13.45914,-25.31458 -20.7445,-37.0155 -37.98758,11.51179 -76.99263,3.36451 -108.50368,-17.67147 -28.91757,-17.14073 -51.4941,-41.52099 -74.11039,-68.75969 z"
       id="path4941"
       inkscape:connector-curvature="0"
       sodipodi:nodetypes="ccccccccccccccccccccccc"
       transform="scale(0.26458333)" />
  </g>
  <g
     inkscape:groupmode="layer"
     id="layer2"
     inkscape:label="Outline"
     style="display:inline">
    <path
       style="fill:none;stroke:#000000;stroke-width:0.60000002;stroke-linecap:butt;stroke-linejoin:miter;stroke-miterlimit:4;stroke-dasharray:none;stroke-opacity:1"
       d="M 70.826423,139.37101 C 47.039437,109.97137 36.728333,79.480897 33.67596,64.001006 c -1.403165,-7.116052 -1.069078,-10.69078 -1.069078,-10.69078 0,0 -4.009044,-4.543581 1.336347,-19.243405 5.34539,-14.699825 24.215114,-11.496349 32.473248,-1.469985 6.388758,7.756718 6.028989,10.340425 10.49033,19.042955 2.67355,5.215171 8.71939,12.659967 7.683997,17.506153 -0.789728,3.696341 -3.741774,7.416731 -3.741774,7.416731 0,0 10.938018,19.124449 12.63256,20.292036 3.714303,2.559259 3.144278,3.348329 6.123407,9.030209 1.377353,2.62692 12.705733,16.57858 18.260863,22.26077 22.1968,22.70448 30.74942,32.2289 34.74504,37.15046 3.52314,4.07112 5.90401,5.48853 5.90401,5.48853 0,0 14.07847,-2.69837 17.62199,0.70341 3.54353,3.40179 5.93731,7.83631 7.93751,14.69383 2.46731,8.45898 6.08074,24.25463 5.86813,27.25482 -0.21262,1.73632 -0.49847,2.26953 -0.58354,2.89428 -0.0851,0.62475 0.0307,1.34104 0.62124,3.44353 0.94548,3.36602 6.14413,18.33163 20.09357,16.01394 11.38172,-1.89107 12.25521,-13.90386 11.62622,-17.57296 -0.60135,-3.50792 -1.66578,-6.0062 -1.66578,-6.0062 -2.66504,-0.93013 -7.55121,-3.14649 -9.4259,-6.15457 -2.46599,-3.95688 -3.82607,-8.86654 -0.93545,-17.70661 2.98375,-9.12489 6.08039,-14.69982 5.07813,-23.4529 -1.69081,-14.76644 -10.13332,-17.50893 -11.33603,-28.19971 -1.25136,-9.59762 3.61517,-20.55715 16.62884,-20.67818 15.64287,-0.14549 26.51167,18.8061 34.72998,48.14554 8.69346,31.0357 1.80489,37.21464 1.80489,37.21464 0,0 0.53454,23.11882 -10.55715,46.63854 -11.09169,23.51972 -28.72589,26.44962 -33.27506,26.59331 -21.64565,0.6837 -35.00683,-5.06904 -47.03943,-16.03617 -14.36347,-13.09163 -23.87126,-36.41397 -40.3364,-55.81232 -5.31706,-5.71559 -14.85722,-18.91788 -16.80162,-20.45406 -5.55105,-4.3856 -7.63925,-5.16713 -9.242101,-9.20926 -0.746277,-1.88199 -19.000377,-22.48438 -28.500566,-33.72657 z"
       id="path4547"
       inkscape:connector-curvature="0"
       sodipodi:nodetypes="cscsssscsssccsscccsscssscsscssscsscc" />
    <path
       style="display:inline;fill:none;stroke:#000000;stroke-width:0.60000002;stroke-linecap:round;stroke-linejoin:miter;stroke-miterlimit:4;stroke-dasharray:none;stroke-opacity:1"
       d="m 80.84903,76.562674 c 0,0 -5.802526,1.761546 -13.22984,0.935444 C 56.0826,76.214962 41.514793,66.444156 32.606882,53.310226"
       id="path4638"
       inkscape:connector-curvature="0"
       sodipodi:nodetypes="csc" />
    <path
       style="fill:none;stroke:#000000;stroke-width:0.60000002;stroke-linecap:butt;stroke-linejoin:miter;stroke-miterlimit:4;stroke-dasharray:none;stroke-opacity:1"
       d="m 220.03425,212.20933 c 7.3104,1.59823 14.64085,1.64638 23.17999,-1.78576 4.73627,-1.90365 9.21724,-4.96105 13.36447,-9.04603"
       id="path4725"
       inkscape:connector-curvature="0"
       sodipodi:nodetypes="csc" />
  </g>
  <g
     inkscape:groupmode="layer"
     id="layer5"
     inkscape:label="Texture"
     style="display:inline">
    <path
       sodipodi:nodetypes="ccc"
       style="fill:#000000;fill-rule:nonzero;stroke:none;stroke-width:0.5;stroke-linecap:round;stroke-linejoin:miter;stroke-miterlimit:4;stroke-dasharray:none;stroke-opacity:1"
       d="m 177.6681,176.3017 c 0.009,2.40092 0.26122,3.20034 0.26122,3.20034 0,0 0.24691,-0.80121 0.23832,-3.20213 l -0.002,0.0355 c 0.0478,-0.34241 0.19174,-0.41786 0.0478,-0.40811 a 0.25,0.25 0 0 0 8e-5,-1e-5 c -0.11316,0.008 -0.014,0.005 0.0908,0.1269 0.10484,0.12197 0.2393,0.31546 0.38361,0.54926 l -0.0103,-0.0187 c 1.39474,2.76276 2.09337,3.60775 2.11267,3.63088 0,0 0,0 0,0 3e-4,2.6e-4 2.6e-4,2.2e-4 2.6e-4,2.2e-4 0,0 0,6e-5 1e-5,-3.5e-4 0,0 0,0 0,0 -0.007,-0.029 -0.26652,-1.08202 -1.66676,-3.85599 l -0.0103,-0.0187 c -0.15187,-0.24605 -0.29431,-0.45481 -0.42992,-0.61257 -0.1356,-0.15775 -0.24044,-0.31774 -0.50393,-0.29982 -0.42538,0.0288 -0.45493,0.44926 -0.50918,0.83784 z"
       id="path4596"
       inkscape:connector-curvature="0"
       inkscape:path-effect="#path-effect4860"
       inkscape:original-d="m 177.92935,179.50243 c 0,0 -0.2911,-3.78679 0.26704,-3.8246 0.55812,-0.038 2.59401,4.53799 2.59401,4.53799" />
    <path
       style="fill:#000000;fill-rule:nonzero;stroke:none;stroke-width:0.5;stroke-linecap:round;stroke-linejoin:miter;stroke-miterlimit:4;stroke-dasharray:none;stroke-opacity:1"
       d="m 176.03972,183.89551 c -0.31136,1.44703 -0.37914,2.96684 -0.40868,3.72121 0,0 0,0 0,0 -0.0396,1.61146 0.02,2.22619 0.02,2.22619 0,0 0.14524,-0.60062 0.33179,-2.19877 0,0 0,0 0,0 0.0776,-0.5872 0.27893,-2.41103 0.54566,-3.64316 0.071,-0.32905 0.14917,-0.60246 0.22393,-0.77798 0.0377,-0.0886 0.0776,-0.13691 0.0973,-0.16182 0.10199,0.0778 0.48257,0.36932 0.84019,0.87832 l -0.0148,-0.0242 c 1.95174,3.58137 2.83657,4.69439 2.85517,4.71765 0,0 0,0 0,0 0,0 0,0 0,0 0,0 0,0 0,0 0,0 0,0 0,0 0,0 0,0 0,0 0,0 0,0 0,0 0,0 0,0 0,0 0,0 0,0 0,0 0,0 0,0 0,0 0,0 0,0 0,0 0,0 0,0 0,0 2.1e-4,2.1e-4 1.8e-4,1.8e-4 1.8e-4,1.8e-4 0,0 0,4e-5 -2e-5,-2.6e-4 0,0 0,0 0,0 0,0 0,0 0,0 0,0 0,0 0,0 0,0 0,0 0,0 0,0 0,0 0,0 0,0 0,0 0,0 0,0 0,0 0,0 0,0 0,0 0,0 0,0 0,0 0,0 0,0 0,0 0,0 0,0 0,0 0,0 -0.009,-0.0279 -0.45696,-1.36019 -2.4166,-4.95665 l -0.0148,-0.0242 c -0.44373,-0.63157 -0.77716,-1.15946 -1.32078,-1.11007 a 0.25,0.25 0 0 0 -0.006,5.8e-4 c -0.28017,0.0319 -0.3828,0.25578 -0.48021,0.48451 -0.0974,0.22872 -0.17803,0.52261 -0.25266,0.86843 z"
       id="path4598"
       inkscape:connector-curvature="0"
       sodipodi:nodetypes="ccc"
       inkscape:path-effect="#path-effect4860"
       inkscape:original-d="m 175.65101,189.84312 c 0,0 0.35971,-6.96215 1.14988,-7.05216 0.9906,-0.09 3.72959,5.84219 3.72959,5.84219" />
    <path
       style="fill:#000000;fill-rule:nonzero;stroke:none;stroke-width:0.5;stroke-linecap:round;stroke-linejoin:miter;stroke-miterlimit:4;stroke-dasharray:none;stroke-opacity:1"
       d="m 180.35553,182.74201 c -0.12644,0.99379 -0.0229,1.99859 0.034,2.50041 0,0 0,0 0,0 l 0,0 c 0.0517,0.4605 0.11343,0.8077 0.16135,1.03699 l 0,0 c 0,0 0,0 0,0 0.0294,0.14034 0.055,0.24366 0.074,0.3141 0.0104,0.0387 0.0189,0.0676 0.025,0.0875 0,0 0,0 0,0 0.007,0.0234 0.011,0.0343 0.011,0.0343 0,0 0.002,-0.0114 0.005,-0.0356 0,0 0,0 0,0 0.003,-0.0206 0.006,-0.0505 0.0102,-0.0902 0.007,-0.0727 0.0166,-0.17787 0.0258,-0.32088 0,0 0,0 0,0 l 0,0 c 0.016,-0.24886 0.0294,-0.56714 0.0414,-1.04167 l 0,0 c 0,0 0,0 0,0 0.01,-0.38236 0.004,-1.62308 0.10821,-2.42114 0.037,-0.28745 0.12494,-0.45399 0.14962,-0.52901 0.0919,0.0905 0.3441,0.31594 0.57319,0.70953 l -0.0137,-0.0277 c 1.34751,3.15681 2.03685,4.15188 2.05396,4.17637 0,0 0,0 0,0 2.3e-4,2.6e-4 2e-4,2.2e-4 2e-4,2.2e-4 0,0 0,5e-5 2e-5,-3.1e-4 0,0 0,0 0,0 -0.006,-0.0289 -0.24034,-1.19877 -1.59469,-4.37239 l -0.0137,-0.0277 c -0.32641,-0.5608 -0.58174,-1.05901 -1.09284,-1.00159 a 0.25,0.25 0 0 0 -0.007,8.4e-4 c -0.45129,0.0629 -0.48989,0.53025 -0.55138,1.00792 z"
       id="path4600"
       inkscape:connector-curvature="0"
       sodipodi:nodetypes="ccc"
       inkscape:path-effect="#path-effect4860"
       inkscape:original-d="m 180.66088,186.71572 c 0,0 -0.413,-4.63729 0.28057,-4.73403 0.86071,-0.0967 2.67328,5.15356 2.67328,5.15356" />
    <path
       style="fill:#000000;fill-rule:nonzero;stroke:none;stroke-width:0.5;stroke-linecap:round;stroke-linejoin:miter;stroke-miterlimit:4;stroke-dasharray:none;stroke-opacity:1"
       d="m 179.11951,191.45568 c -0.33095,1.37937 -0.37403,2.85605 -0.39248,3.57138 0,0 0,0 0,0 -0.0116,1.54892 0.0589,2.13851 0.0589,2.13851 0,0 0.13492,-0.57868 0.29358,-2.11572 0,0 0,0 0,0 0.0726,-0.59078 0.23763,-2.28593 0.52608,-3.47701 0.14966,-0.6209 0.40821,-0.89435 0.35551,-0.89243 l 0,0 c 0.0368,-0.001 0.42433,0.30302 0.77396,0.90171 0.58499,0.99939 1.1972,2.4466 1.42433,2.95201 0,0 0,0 0,0 0.52931,1.24765 0.80292,1.71427 0.81256,1.73058 2e-4,2.5e-4 1.7e-4,2.1e-4 1.7e-4,2.1e-4 0,0 0,5e-5 1e-5,-2.7e-4 -0.003,-0.0186 -0.091,-0.54892 -0.48689,-1.85252 0,0 -1e-5,0 -1e-5,0 -0.20937,-0.64264 -0.64067,-1.91911 -1.3184,-3.08216 -0.37138,-0.63592 -0.68692,-1.16884 -1.22399,-1.14922 a 0.25,0.25 0 0 0 0,0 c -0.53473,0.0195 -0.6634,0.61143 -0.82333,1.27493 z"
       id="path4602"
       inkscape:connector-curvature="0"
       sodipodi:nodetypes="csc"
       inkscape:path-effect="#path-effect4860"
       inkscape:original-d="m 178.78592,197.16579 c 0,0 0.2103,-6.70029 1.16605,-6.73521 1.06503,-0.0389 3.02015,5.83434 3.02015,5.83434" />
    <path
       sodipodi:nodetypes="ccc"
       style="fill:#000000;fill-rule:nonzero;stroke:none;stroke-width:0.5;stroke-linecap:round;stroke-linejoin:miter;stroke-miterlimit:4;stroke-dasharray:none;stroke-opacity:1"
       d="m 183.02858,190.76906 c -0.10166,0.97344 -0.008,1.94828 0.0454,2.4454 0,0 0,0 0,0 l 0,0 c 0.0486,0.45578 0.10622,0.79818 0.15157,1.02611 l 0,0 c 0,0 0,0 0,0 0.0277,0.13933 0.0521,0.24193 0.0701,0.31198 0.01,0.0385 0.018,0.0672 0.0238,0.0871 0,0 0,0 0,0 0.007,0.0233 0.0106,0.0342 0.0106,0.0342 0,0 0.002,-0.0113 0.006,-0.0353 0,0 0,0 0,0 0.003,-0.0204 0.007,-0.05 0.0117,-0.0894 0.009,-0.072 0.0192,-0.17611 0.0303,-0.31768 0,0 0,0 0,0 l 0,0 c 0.0189,-0.24285 0.0364,-0.56413 0.0514,-1.0303 l 0,0 c 0,0 0,0 0,0 0.0109,-0.33525 0.0172,-1.6328 0.0969,-2.37968 0.0222,-0.20997 0.055,-0.38179 0.0878,-0.47738 0.0328,-0.0956 0.0423,-0.038 -0.0607,-0.0361 a 0.25,0.25 0 0 0 1e-5,0 c -0.15688,0.003 -0.0438,-0.005 0.047,0.15483 0.0908,0.15939 0.20146,0.4079 0.3167,0.70583 0.33568,0.86698 0.8914,2.57942 1.00833,2.91933 0,0 0,0 0,0 l 0,0 c 0.18873,0.54887 0.32721,0.92771 0.4352,1.20704 l 0,0 c 0.0629,0.16267 0.11153,0.28137 0.146,0.36258 l 0,0 0,0 c 0.0188,0.0443 0.0334,0.0774 0.0436,0.10006 l 0,0 0,0 c 0.0136,0.0202 0.0176,0.0381 0.0176,0.0384 0,0 0,0 0,0 0,0 0,0 0,0 0,0 0,0 0,0 0,0 0,0 0,0 0,0 0,0 0,0 0,0 0,0 0,0 0,0 0,0 0,0 0,0 0,0 0,0 0,0 0,0 0,0 0,0 0,0 0,0 8e-5,3e-4 7e-5,2.6e-4 7e-5,2.6e-4 0,0 1e-5,4e-5 -6e-5,-2.6e-4 0,0 0,0 0,0 0,0 0,0 0,0 0,0 0,0 0,0 0,0 0,0 0,0 0,0 0,0 0,0 0,0 0,0 0,0 0,0 0,0 0,0 0,0 0,0 0,0 0,0 0,0 0,0 0,0 0,0 0,0 -7e-5,-2.4e-4 -0.005,-0.018 -0.003,-0.0421 l 0,0 0,0 c -0.002,-0.0248 -0.005,-0.0607 -0.0103,-0.10874 l 0,0 0,0 c -0.009,-0.0876 -0.0249,-0.21555 -0.051,-0.38808 l 0,0 c -0.0429,-0.28436 -0.11685,-0.70731 -0.24117,-1.2643 l 0,0 c 0,0 0,0 0,0 -0.14185,-0.63645 -0.4244,-1.82803 -0.87902,-3.00452 -0.12,-0.31024 -0.23493,-0.5734 -0.34855,-0.7729 -0.11363,-0.1995 -0.18377,-0.41322 -0.49111,-0.40728 -0.24384,0.005 -0.34668,0.21107 -0.40248,0.37348 -0.0558,0.16241 -0.088,0.35781 -0.11221,0.58738 z"
       id="path4604"
       inkscape:connector-curvature="0"
       inkscape:path-effect="#path-effect4860"
       inkscape:original-d="m 183.33008,194.67422 c 0,0 -0.3405,-4.6053 0.21802,-4.61607 0.55849,-0.0108 2.0193,5.73825 2.0193,5.73825" />
    <path
       style="fill:#000000;fill-rule:nonzero;stroke:none;stroke-width:0.5;stroke-linecap:round;stroke-linejoin:miter;stroke-miterlimit:4;stroke-dasharray:none;stroke-opacity:1"
       d="m 181.83051,199.74426 c -0.37006,1.61025 -0.47116,3.3328 -0.51811,4.17326 0,0 0,0 0,0 l 0,0 c -0.0439,0.78107 -0.0524,1.37817 -0.0507,1.76963 l 0,0 c 0.001,0.2408 0.006,0.41836 0.0109,0.53879 l 0,0 0,0 c 0.003,0.0663 0.005,0.11549 0.007,0.14916 0.002,0.0382 0.004,0.0561 0.004,0.0561 0,0 0.004,-0.0175 0.011,-0.0551 0.006,-0.0329 0.0157,-0.0816 0.0274,-0.14672 l 0,0 0,0 c 0.0215,-0.11922 0.0512,-0.29271 0.0888,-0.53084 l 0,0 c 0.067,-0.42439 0.14118,-0.93698 0.25313,-1.7469 l 0,0 c 0,0 0,0 0,0 0.0941,-0.6798 0.32967,-2.69215 0.65362,-4.09513 0.0844,-0.36654 0.17628,-0.66923 0.26313,-0.86078 0.0434,-0.0959 0.0849,-0.14593 0.10624,-0.17196 0.0795,0.0969 0.42468,0.44641 0.71082,1.03293 0.56991,1.16632 1.18008,2.85329 1.39961,3.42468 0,0 0,0 0,0 0.52632,1.44416 0.7993,1.98788 0.80781,2.00472 0,0 0,0 0,0 1.5e-4,2.2e-4 1.3e-4,1.9e-4 1.3e-4,1.9e-4 0,0 0,4e-5 1e-5,-2.4e-4 0,0 0,0 0,0 -0.003,-0.0186 -0.0862,-0.61839 -0.47604,-2.11131 0,0 0,0 0,0 -0.20444,-0.73278 -0.62382,-2.18573 -1.28214,-3.53727 -0.3567,-0.73115 -0.60474,-1.34548 -1.17806,-1.34143 a 0.25,0.25 0 0 0 -1.7e-4,0 c -0.2981,0.002 -0.43134,0.24562 -0.5436,0.49323 -0.11226,0.24762 -0.20658,0.57124 -0.29498,0.955 z"
       id="path4606"
       inkscape:connector-curvature="0"
       sodipodi:nodetypes="ccc"
       inkscape:path-effect="#path-effect4860"
       inkscape:original-d="m 181.28376,206.43136 c 0,0 0.49681,-7.87842 1.38727,-7.88534 0.99069,-0.007 2.93446,6.74026 2.93446,6.74026" />
    <path
       sodipodi:nodetypes="csc"
       style="fill:#000000;fill-rule:nonzero;stroke:none;stroke-width:0.5;stroke-linecap:round;stroke-linejoin:miter;stroke-miterlimit:4;stroke-dasharray:none;stroke-opacity:1"
       d="m 185.49555,199.17652 c -0.0778,0.94276 -0.0329,1.84069 0.001,2.33974 0,0 0,0 0,0 l 0,0 c 0.0299,0.442 0.07,0.77123 0.10373,0.99459 l 0,0 c 0,0 0,0 0,0 0.0205,0.13568 0.0392,0.23575 0.0535,0.3043 0.008,0.0376 0.0143,0.0658 0.019,0.0853 0,0 0,0 0,0 0.006,0.023 0.009,0.0337 0.009,0.0337 0,0 0.003,-0.0108 0.008,-0.0339 0,0 0,0 0,0 0.004,-0.0196 0.01,-0.048 0.0167,-0.0857 0.0125,-0.0689 0.0289,-0.16902 0.0473,-0.30497 0,0 0,0 0,0 l 0,0 c 0.0309,-0.22902 0.0655,-0.54672 0.0993,-0.99192 l 0,0 c 0,0 0,0 0,0 0.043,-0.5659 0.0604,-1.32465 0.14154,-2.29989 0.006,-0.0671 0.0116,-0.13033 0.018,-0.18853 0.067,0.13671 0.14091,0.31234 0.21608,0.5121 0.28828,0.76497 0.76871,2.31184 0.86678,2.60764 0,0 0,0 0,0 l 0,0 c 0.16163,0.48776 0.28153,0.82499 0.37569,1.07345 l 0,0 c 0.0548,0.14448 0.0975,0.25011 0.12798,0.3225 l 0,0 0,0 0,0 c 0.024,0.0373 0.0369,0.0679 0.044,0.0881 0,0 0,0 0,0 0.007,0.0194 0.0104,0.0352 0.0106,0.0359 0,0 0,0 0,0 0,0 0,0 0,0 0,0 0,0 0,0 0,0 0,0 0,0 0,0 0,0 0,0 0,0 0,0 0,0 0,0 0,0 0,0 0,0 0,0 0,0 0,0 0,0 0,0 0,0 0,0 0,0 0,0 0,0 0,0 0,0 0,0 0,0 0,0 0,0 0,0 0,0 0,0 0,0 0,0 0,0 0,0 0,0 0,0 0,0 0,0 0,0 0,0 0,0 0,0 0,0 0,0 0,0 0,0 8e-5,3.4e-4 7e-5,2.9e-4 7e-5,2.9e-4 0,0 1e-5,5e-5 -7e-5,-2.9e-4 0,0 0,0 0,0 0,0 0,0 0,0 0,0 0,0 0,0 0,0 0,0 0,0 0,0 0,0 0,0 0,0 0,0 0,0 0,0 0,0 0,0 0,0 0,0 0,0 0,0 0,0 0,0 0,0 0,0 0,0 0,0 0,0 0,0 0,0 0,0 0,0 0,0 0,0 0,0 0,0 0,0 0,0 0,0 0,0 0,0 0,0 0,0 0,0 0,0 0,0 0,0 0,0 0,0 0,0 0,0 0,0 0,0 -1.2e-4,-5.3e-4 -0.004,-0.0166 -0.006,-0.0369 0,0 0,0 0,0 -0.003,-0.0213 -0.005,-0.0544 1e-4,-0.0984 l 0,0 0,0 0,0 c -0.005,-0.0782 -0.0149,-0.19234 -0.0328,-0.34614 l 0,0 c -0.0296,-0.25376 -0.0835,-0.63077 -0.18114,-1.12729 l 0,0 c 0,0 -1e-5,0 -1e-5,0 -0.11224,-0.57198 -0.33902,-1.63632 -0.7369,-2.69494 -0.10594,-0.2815 -0.2094,-0.5225 -0.31542,-0.70912 -0.10603,-0.18662 -0.18013,-0.37123 -0.45105,-0.39811 a 0.25,0.25 0 0 0 -3e-5,0 c -0.17499,-0.0173 -0.26676,0.11672 -0.29977,0.1828 -0.033,0.0661 -0.0485,0.12656 -0.064,0.19772 -0.031,0.14233 -0.0523,0.32258 -0.0701,0.53798 z"
       id="path4608"
       inkscape:connector-curvature="0"
       inkscape:path-effect="#path-effect4860"
       inkscape:original-d="m 185.6814,202.93456 c 0,0 -0.0712,-4.45695 0.22337,-4.42776 0.56756,0.0563 1.74835,5.16242 1.74835,5.16242" />
    <path
       sodipodi:nodetypes="csc"
       style="fill:#000000;fill-rule:nonzero;stroke:none;stroke-width:0.5;stroke-linecap:round;stroke-linejoin:miter;stroke-miterlimit:4;stroke-dasharray:none;stroke-opacity:1"
       d="m 184.88461,208.35532 c -0.31616,1.36348 -0.37682,2.80809 -0.40325,3.51888 0,0 0,0 0,0 l 0,0 c -0.0248,0.65708 -0.0195,1.15832 -0.009,1.48804 l 0,0 c 0.007,0.2025 0.0155,0.35191 0.0231,0.45345 l 0,0 0,0 c 0.004,0.0559 0.008,0.0974 0.0107,0.12592 0,0 0,0 0,0 0.003,0.0327 0.005,0.048 0.005,0.048 0,0 0.003,-0.015 0.01,-0.0472 0,0 0,0 0,0 0.006,-0.0279 0.0139,-0.069 0.0242,-0.12396 l 0,0 0,0 c 0.0188,-0.10051 0.0445,-0.24663 0.0766,-0.44675 l 0,0 c 0.0566,-0.35359 0.1197,-0.79078 0.21107,-1.4672 l 0,0 c 0,0 0,0 0,0 0.0763,-0.56338 0.26658,-2.27247 0.53816,-3.43589 0.0715,-0.30719 0.15097,-0.56031 0.22558,-0.71731 0.0339,-0.0713 0.0649,-0.11047 0.0827,-0.13172 0.0705,0.0873 0.4025,0.41204 0.67993,0.97659 0.54865,1.11443 1.13508,2.7371 1.34569,3.28438 0,0 0,0 0,0 0.5059,1.38807 0.77117,1.91061 0.77976,1.92742 0,0 0,0 0,0 0,0 0,0 0,0 0,0 0,0 0,0 0,0 0,0 0,0 0,0 0,0 0,0 0,0 0,0 0,0 0,0 0,0 0,0 0,0 0,0 0,0 0,0 0,0 0,0 0,0 0,0 0,0 0,0 0,0 0,0 1.6e-4,2.3e-4 1.4e-4,2e-4 1.4e-4,2e-4 0,0 0,4e-5 1e-5,-2.5e-4 0,0 0,0 0,0 0,0 0,0 0,0 0,0 0,0 0,0 0,0 0,0 0,0 0,0 0,0 0,0 0,0 0,0 0,0 0,0 0,0 0,0 0,0 0,0 0,0 0,0 0,0 0,0 0,0 0,0 0,0 0,0 0,0 0,0 -0.002,-0.0186 -0.0782,-0.59684 -0.4476,-2.03354 0,0 0,0 0,-1e-5 -0.19407,-0.7045 -0.59284,-2.10145 -1.22926,-3.39873 -0.34461,-0.70126 -0.59187,-1.29899 -1.15623,-1.27987 a 0.25,0.25 0 0 0 0,0 c -0.27176,0.009 -0.40402,0.22483 -0.50672,0.44091 -0.10269,0.21609 -0.18513,0.49261 -0.26097,0.81864 z"
       id="path4610"
       inkscape:connector-curvature="0"
       inkscape:path-effect="#path-effect4860"
       inkscape:original-d="m 184.51164,213.9898 c 0,0 0.32117,-6.61609 1.14913,-6.64417 0.9708,-0.0329 2.82461,6.46254 2.82461,6.46254" />
    <path
       sodipodi:nodetypes="ccc"
       style="fill:#000000;fill-rule:nonzero;stroke:none;stroke-width:0.5;stroke-linecap:round;stroke-linejoin:miter;stroke-miterlimit:4;stroke-dasharray:none;stroke-opacity:1"
       d="m 188.15067,207.69151 c -0.0538,0.90761 0.0226,1.77301 0.0732,2.24763 0,0 0,0 0,0 l 0,0 c 0.0447,0.42124 0.0963,0.73483 0.13778,0.94687 l 0,0 c 0,0 0,0 0,0 0.0252,0.1288 0.0474,0.22371 0.0641,0.28871 0,0 0,0 0,0 0.009,0.0357 0.0166,0.0624 0.022,0.0809 0,0 0,0 0,0 0.007,0.0219 0.01,0.0321 0.01,0.0321 0,0 0.002,-0.0105 0.006,-0.0329 0,0 0,0 0,0 0.003,-0.0189 0.008,-0.0463 0.0136,-0.0826 0,0 0,0 0,0 0.0101,-0.0664 0.0228,-0.1626 0.0363,-0.29309 0,0 0,0 0,0 l 0,0 c 0.0228,-0.2204 0.0462,-0.52428 0.065,-0.951 l 0,0 c 0,0 0,-1e-5 0,-1e-5 0.024,-0.54378 0.0145,-1.27194 0.0708,-2.20675 0.0118,-0.19699 0.03,-0.36007 0.0503,-0.45648 0.0203,-0.0964 0.0979,-0.005 -0.13228,0.007 a 0.25,0.25 0 0 0 2e-5,0 c -0.1539,0.008 -0.16176,-0.0697 -0.151,-0.0527 0.0108,0.017 0.0367,0.0691 0.0641,0.14037 0.0547,0.14248 0.12162,0.36477 0.1913,0.63063 0.2913,1.11064 0.47594,1.97198 0.64044,2.60485 0,0 0,0 0,0 l 0,0 c 0.12681,0.48791 0.22719,0.83356 0.305,1.08094 l 0,0 c 0.0459,0.14599 0.0825,0.2529 0.10877,0.32612 l 0,0 0,0 0,0 c 0.0219,0.0382 0.0331,0.0692 0.0391,0.0896 0,0 0,0 0,0 0.006,0.0196 0.008,0.0355 0.009,0.0362 0,0 0,0 0,0 0,0 0,0 0,0 0,0 0,0 0,0 0,0 0,0 0,0 0,0 0,0 0,0 0,0 0,0 0,0 0,0 0,0 0,0 0,0 0,0 0,0 0,0 0,0 0,0 0,0 0,0 0,0 0,0 0,0 0,0 0,0 0,0 0,0 0,0 0,0 0,0 0,0 0,0 0,0 0,0 0,0 0,0 0,0 0,0 0,0 0,0 0,0 0,0 0,0 0,0 0,0 0,0 0,0 0,0 6e-5,3.5e-4 5e-5,3e-4 5e-5,3e-4 0,0 1e-5,5e-5 -5e-5,-3e-4 0,0 0,0 0,0 0,0 0,0 0,0 0,0 0,0 0,0 0,0 0,0 0,0 0,0 0,0 0,0 0,0 0,0 0,0 0,0 0,0 0,0 0,0 0,0 0,0 0,0 0,0 0,0 0,0 0,0 0,0 0,0 0,0 0,0 0,0 0,0 0,0 0,0 0,0 0,0 0,0 0,0 0,0 0,0 0,0 0,0 0,0 0,0 0,0 0,0 0,0 0,0 0,0 0,0 0,0 0,0 0,0 0,0 -1e-4,-5.8e-4 -0.003,-0.0166 -0.004,-0.0369 0,0 0,0 0,0 -0.001,-0.0212 -0.001,-0.0542 0.006,-0.0975 l 0,0 0,0 0,0 c -5.1e-4,-0.0777 -0.003,-0.19102 -0.0115,-0.34404 l 0,0 c -0.0137,-0.2531 -0.0435,-0.62509 -0.10667,-1.12085 l 0,0 c 0,0 0,0 0,0 -0.0736,-0.578 -0.22213,-1.59676 -0.5019,-2.66508 -0.0721,-0.275 -0.14069,-0.50735 -0.20819,-0.68312 -0.0337,-0.0879 -0.0655,-0.16078 -0.10834,-0.22844 -0.0428,-0.0677 -0.1,-0.18983 -0.29812,-0.17928 -0.31294,0.0167 -0.30035,0.24653 -0.33045,0.3896 -0.0301,0.14307 -0.0476,0.32 -0.0601,0.52957 z"
       id="path4612"
       inkscape:connector-curvature="0"
       inkscape:path-effect="#path-effect4860"
       inkscape:original-d="m 188.45762,211.28808 c 0,0 -0.23145,-4.24862 0.0969,-4.26609 0.32836,-0.0175 1.21964,5.1059 1.21964,5.1059" />
    <path
       style="display:inline;opacity:1;fill:#000000;fill-rule:nonzero;stroke:none;stroke-width:0.5;stroke-linecap:round;stroke-linejoin:miter;stroke-miterlimit:4;stroke-dasharray:none;stroke-opacity:1"
       d="m 172.96442,176.84807 c -0.29461,1.45068 -0.30834,3.01674 -0.31446,3.76925 0,0 0,0 0,0 l 0,0 c -0.006,0.7143 0.0142,1.26019 0.0349,1.61785 l 0,0 c 0.0128,0.22077 0.0265,0.3835 0.0373,0.49391 l 0,0 0,0 c 0.006,0.0609 0.011,0.10603 0.0148,0.13698 0,0 0,0 0,0 0.004,0.0353 0.007,0.0518 0.007,0.0518 0,0 0.003,-0.0164 0.009,-0.0515 0,0 0,0 0,0 0.005,-0.0306 0.0119,-0.0758 0.0206,-0.13614 l 0,0 0,0 c 0.0159,-0.11036 0.0374,-0.27066 0.0637,-0.49044 l 0,0 c 0.0467,-0.39048 0.0961,-0.86104 0.16871,-1.60363 l 0,0 c 0,0 0,0 0,0 0.0603,-0.61423 0.19275,-2.43633 0.44906,-3.6882 0.0652,-0.31986 0.14172,-0.57783 0.2117,-0.72254 0.0216,-0.0447 0.0357,-0.0712 0.0433,-0.0869 0.11794,0.0968 0.53267,0.47227 0.92078,0.98821 0.67027,0.89055 1.70502,2.44438 1.96651,2.82395 0,0 0,0 0,0 l 0,0 c 0.35562,0.5163 0.6047,0.86644 0.79615,1.12651 l 0,0 c 0.11012,0.14959 0.1929,0.25807 0.25056,0.33191 l 0,0 c 0.0314,0.0402 0.0553,0.0701 0.0718,0.0904 l 0,0 c 0,0 0,0 0,0 0,0 0,0 0,0 0.0189,0.017 0.0281,0.0341 0.0282,0.0342 0,0 0,0 0,0 1.5e-4,2.6e-4 1.3e-4,2.2e-4 1.3e-4,2.2e-4 0,0 2e-5,4e-5 -1.2e-4,-2.2e-4 0,0 0,0 0,0 -4e-5,-6e-5 -0.0103,-0.0167 -0.0156,-0.0415 0,0 0,0 0,0 0,0 0,0 0,0 l 0,0 c -0.009,-0.0245 -0.0235,-0.06 -0.043,-0.10725 l 0,0 c -0.0357,-0.0864 -0.0899,-0.21243 -0.16782,-0.38114 l 0,0 c -0.12912,-0.27952 -0.33202,-0.69479 -0.62607,-1.234 l 0,0 c 0,0 0,0 0,0 -0.34668,-0.63605 -1.0112,-1.81323 -1.86114,-2.94371 -0.46528,-0.61852 -0.77773,-1.0847 -1.23259,-1.19744 a 0.25,0.25 0 0 0 0,0 c -0.27053,-0.0671 -0.47617,0.16184 -0.58121,0.37905 -0.10504,0.21722 -0.18208,0.49989 -0.25149,0.84031 z"
       id="path4593"
       inkscape:connector-curvature="0"
       sodipodi:nodetypes="czc"
       inkscape:path-effect="#path-effect4860"
       inkscape:original-d="m 172.74364,182.91808 c 0,0 0.11891,-7.26343 0.99334,-7.04671 0.87443,0.21673 4.00645,5.6626 4.00645,5.6626" />
    <path
       style="display:inline;fill:#000000;stroke:none;stroke-width:0;stroke-linecap:round;stroke-linejoin:miter;stroke-miterlimit:3;stroke-dasharray:none;stroke-opacity:1"
       d="m 72.248558,116.95176 c 0.09311,-0.0342 0.523391,1.06653 1.613892,2.73371 1.163896,1.77938 2.835058,3.76528 5.527713,6.04598 2.009536,1.69297 4.435371,3.45686 7.210498,4.81374 0.229146,0.11204 0.45874,0.22037 0.688808,0.32497 3.016168,1.39474 7.029685,1.45741 9.742498,1.69581 1.767253,0.14701 3.209493,0.41658 4.510243,0.95444 0,0 0,0 0,0 3.08478,1.28782 3.70798,3.25817 3.78944,3.19172 -0.0964,0.0787 -1.24199,-1.61364 -4.02307,-2.58333 0,0 0,0 0,0 -1.24689,-0.4402 -2.596056,-0.62305 -4.335396,-0.72073 -2.6989,-0.13923 -6.760368,-0.13854 -10.096861,-1.62803 -0.238995,-0.10839 -0.477289,-0.22075 -0.714879,-0.33704 -2.881712,-1.4105 -5.351276,-3.24955 -7.360638,-5.02954 -2.689768,-2.37017 -4.359511,-4.55895 -5.398392,-6.45223 -0.990981,-1.80598 -1.221383,-2.98465 -1.153856,-3.00947 z"
       id="path4841"
       inkscape:connector-curvature="0"
       inkscape:path-effect="#path-effect4843"
       inkscape:original-d="m 72.248558,116.95176 c 2.579603,7.01919 10.734089,12.51155 14.834338,14.37334 6.931917,3.14757 13.437644,-0.51146 18.248754,5.38703"
       sodipodi:nodetypes="csc" />
    <path
       style="display:inline;fill:#000000;fill-rule:nonzero;stroke:none;stroke-width:0.27750251px;stroke-linecap:butt;stroke-linejoin:miter;stroke-opacity:1"
       d="m 87.99593,131.79212 c 0,0 -0.360634,-0.30779 -0.360634,-0.30779 -0.05282,0.0619 -0.07971,0.12425 -0.0937,0.16532 -0.01467,0.0431 -0.02148,0.0815 -0.02498,0.10943 -0.007,0.0556 -0.0051,0.10586 -0.0023,0.14186 0.006,0.0761 0.02232,0.15652 0.04139,0.23182 0.04185,0.16528 0.112676,0.36683 0.203952,0.58259 0.221572,0.52375 0.551473,1.1074 0.95869,1.66554 1.057713,1.4497 2.273005,2.26231 3.181214,2.69743 0.887678,0.42528 1.343514,0.48319 1.343514,0.48319 0,0 -0.420296,-0.18204 -1.19794,-0.73183 -0.796549,-0.56316 -1.819532,-1.47092 -2.678273,-2.88306 -0.332112,-0.54613 -0.593098,-1.09576 -0.75976,-1.56335 -0.06926,-0.19431 -0.114963,-0.35523 -0.136867,-0.464 -0.009,-0.0448 -0.01431,-0.0868 -0.01218,-0.0838 -2.32e-4,-3.3e-4 0.0026,0.0115 -0.0015,0.0442 -0.0019,0.0153 -0.0063,0.0427 -0.01786,0.0767 -0.0109,0.032 -0.03395,0.0871 -0.08219,0.14363 0,0 -0.360634,-0.30779 -0.360634,-0.30779 z"
       id="path4845"
       inkscape:connector-curvature="0"
       inkscape:path-effect="#path-effect4847"
       inkscape:original-d="m 87.99593,131.79212 c -0.146028,0.1711 1.188147,4.23013 5.24716,5.76939"
       sodipodi:nodetypes="cc" />
    <path
       style="display:inline;fill:#000000;fill-rule:nonzero;stroke:#000000;stroke-width:0.1;stroke-linecap:round;stroke-linejoin:miter;stroke-miterlimit:4;stroke-dasharray:none;stroke-opacity:1"
       d="m 87.104661,99.658728 c 0,0 5.073949,0.628052 5.073949,0.628052 0,0 -4.965467,-1.218009 -4.965467,-1.218009 l 0.0087,0.0017 c -0.971463,-0.208451 -1.955021,-0.441977 -2.815128,-0.687932 -1.678396,-0.479951 -3.256612,-2.718704 -4.163381,-4.799148 0,0 -0.310766,-0.595042 -0.618162,-1.482709 -0.449695,-1.291444 -1.299449,-2.404798 -2.335128,-3.347357 0,0 0,0 0,0 -0.470169,-0.357104 -1.1305,-0.858396 -1.60067,-1.2155 -2.55e-4,-1.37e-4 -2.19e-4,-1.17e-4 -2.19e-4,-1.17e-4 0,0 -3.3e-5,-2.5e-5 1.97e-4,1.48e-4 -1.059373,-0.94279 2.555248,2.27464 1.495875,1.33185 0,0 10e-7,1e-6 10e-7,1e-6 0.946222,1.009688 1.678458,2.148605 1.988074,3.367641 0.246933,0.945219 0.520006,1.585774 0.520006,1.585774 0.942551,2.162543 2.512983,4.554237 4.548445,5.136295 0.879774,0.251579 1.874138,0.487403 2.854211,0.697701 z"
       id="path4907"
       inkscape:connector-curvature="0"
       inkscape:path-effect="#path-effect4911"
       inkscape:original-d="m 92.178942,100.28683 c 0,0 -4.706645,-0.715681 -7.854709,-1.615897 -2.324534,-0.66472 -4.206213,-4.125389 -4.924997,-6.501963 -0.849916,-2.810145 -3.710082,-4.631307 -3.710082,-4.631307"
       sodipodi:nodetypes="cssc" />
    <path
       style="fill:#000000;stroke:none;stroke-width:0.1799936px;stroke-linecap:butt;stroke-linejoin:miter;stroke-opacity:1"
       d="m 128.5762,149.47142 c 0.006,-0.006 0.0171,-0.007 0.0333,-0.003 0.0149,0.004 0.034,0.0121 0.0571,0.0246 0.0461,0.0249 0.10763,0.0665 0.18411,0.1254 l 0,0 0,0 c 0.1514,0.1166 0.35622,0.29657 0.60835,0.54507 l 0,0 c 0.48372,0.47677 1.13405,1.19717 1.84742,2.16835 l 0,0 c 1.28524,1.74739 2.88939,4.47096 3.57564,7.87224 0.29648,1.45212 0.64578,3.05566 1.21061,4.52148 0.27578,0.7157 0.59729,1.38633 0.98243,2.00923 1.1028,1.81729 2.90751,3.46772 4.20692,4.76595 1.8995,1.89004 3.28489,3.41521 4.26645,4.60196 0.44401,0.53663 0.76562,0.95772 0.97702,1.26565 0.19565,0.29121 0.28718,0.46227 0.26259,0.49812 0,0 0,0 0,0 0,0 0,1e-5 0,1e-5 0,0 0,0 0,0 -0.003,0.003 -0.003,0.003 -0.003,0.003 10e-6,-1e-5 8e-5,6e-5 -0.003,0.002 0,0 0,0 0,0 0,0 0,0 0,0 0,0 0,0 0,0 -0.0399,0.0177 -0.19401,-0.10122 -0.44718,-0.34001 -0.25481,-0.23544 -0.66507,-0.63621 -1.14127,-1.10251 -1.20349,-1.17826 -2.44122,-2.3929 -4.50608,-4.30963 -1.34361,-1.24196 -3.20843,-2.87965 -4.45491,-4.86406 -0.42137,-0.68234 -0.77216,-1.40752 -1.06871,-2.17038 -0.60985,-1.56879 -0.95819,-3.22088 -1.22532,-4.69964 -0.58663,-3.21673 -2.03127,-5.91151 -3.15624,-7.69587 l 0,0 c -0.62861,-0.99563 -1.18879,-1.75634 -1.58885,-2.29465 l 0,0 c -0.20347,-0.27378 -0.37293,-0.49957 -0.47661,-0.64856 l 0,0 0,0 c -0.0544,-0.0781 -0.0947,-0.14056 -0.11871,-0.18599 -0.0122,-0.023 -0.0203,-0.0419 -0.0242,-0.0565 -0.004,-0.016 -0.003,-0.0268 0.003,-0.0329 z"
       id="path4914"
       inkscape:connector-curvature="0"
       inkscape:path-effect="#path-effect4916"
       inkscape:original-d="m 128.57611,149.47133 c 0,0 4.60988,4.45816 5.8341,10.82377 1.22422,6.36563 2.56706,7.66355 6.57445,11.51537 4.00738,3.85181 5.80048,6.05917 5.80048,6.05917"
       sodipodi:nodetypes="cscc" />
    <path
       style="display:inline;fill:#000000;stroke:none;stroke-width:0.26458332px;stroke-linecap:butt;stroke-linejoin:miter;stroke-opacity:1"
       d="m 104.36888,175.45227 c -0.0883,-0.0574 0.36253,-0.93019 1.19338,-2.35369 0,0 0,0 0,0 0.46741,-1.23497 0.75878,-3.18752 -0.13294,-5.08424 -0.81823,-1.81486 -2.29395,-3.26089 -4.19459,-4.85423 -1.9e-4,-1.6e-4 -0.0413,-0.0345 -0.0414,-0.0347 -2.049131,-1.68932 -3.730397,-3.02096 -5.05945,-4.91161 0,0 -1e-6,0 -1e-6,0 -2.84083,-3.66538 -4.709704,-6.2507 -4.597099,-6.41172 0,0 0,0 0,0 0.003,-0.003 0.0031,-0.003 0.0031,-0.003 -1.5e-5,1e-5 -9e-5,-5e-5 0.0034,-0.003 0,0 0,0 0,0 0.172387,-0.0869 2.292823,2.28786 5.291507,5.88227 0,0 10e-7,0 10e-7,0 1.30454,1.74549 2.9075,2.93716 4.996562,4.67669 -1.1e-4,-9e-5 0.0427,0.0351 0.0426,0.035 1.95007,1.60447 3.50986,3.2349 4.37421,5.26571 0.92582,2.25773 0.44963,4.4176 -0.187,5.71104 0,0 0,0 0,0 -0.98829,1.37459 -1.60385,2.14261 -1.69226,2.08512 z"
       id="path4918"
       inkscape:connector-curvature="0"
       inkscape:path-effect="#path-effect4920"
       inkscape:original-d="m 104.36875,175.4524 c 0,0 3.34087,-3.34087 1.46998,-7.61718 -1.87089,-4.27632 -6.548106,-6.01357 -9.354431,-9.88898 -2.80633,-3.8754 -4.944487,-6.14719 -4.944487,-6.14719"
       sodipodi:nodetypes="cscc" />
    <path
       style="display:inline;fill:#000000;fill-rule:nonzero;stroke:none;stroke-width:0.06055048;stroke-linecap:round;stroke-linejoin:miter;stroke-miterlimit:4;stroke-dasharray:none;stroke-opacity:1"
       d="m 158.20271,170.47146 c -3.36728,2.26378 -3.29404,7.39185 -2.21421,13.34824 1.07982,5.95638 3.20843,12.85339 4.26504,18.84018 1.17787,6.67389 4.69435,14.86437 9.83557,22.25814 5.37436,7.74054 10.57985,11.92096 14.21544,14.23251 3.61577,2.29894 5.55032,2.86554 5.55032,2.86554 0,0 -1.8718,-0.73327 -5.35753,-3.15553 -3.52223,-2.44763 -8.49821,-6.68076 -13.83351,-14.34215 -5.08811,-7.31739 -8.56759,-15.44516 -9.72095,-21.98017 -1.06851,-6.05427 -3.19774,-12.95293 -4.26561,-18.84339 -1.06787,-5.89046 -1.03219,-10.66042 1.91599,-12.64245 z"
       id="path4831"
       inkscape:connector-curvature="0"
       sodipodi:nodetypes="csc"
       inkscape:path-effect="#path-effect4881"
       inkscape:original-d="m 158.39799,170.76192 c -6.31546,4.24581 0.0751,19.79606 2.20022,31.83713 2.33123,13.2089 13.99191,32.6365 29.25666,39.41702" />
    <path
       style="display:inline;fill:#ffffff;fill-opacity:1;stroke:none;stroke-width:0.26458332px;stroke-linecap:butt;stroke-linejoin:miter;stroke-opacity:1"
       d="m 52.117643,29.25599 c 0.176716,-0.383544 2.431481,0.259964 5.501058,1.515525 0,0 0,0 0,0 0.913624,0.52027 1.851954,1.172444 2.75969,1.967769 4.058032,3.555498 4.9318,7.682647 4.434468,7.875641 C 64.542373,40.71989 64.00521,39.87537 63.098776,38.64924 62.148291,37.363524 60.925694,35.857384 59.141494,34.287635 58.32959,33.573318 57.518963,32.95036 56.734631,32.402328 c 0,0 -10e-7,0 -10e-7,0 -2.853346,-1.472629 -4.793407,-2.763439 -4.616987,-3.146338 z"
       id="path4954"
       inkscape:connector-curvature="0"
       inkscape:path-effect="#path-effect4956"
       inkscape:original-d="m 52.117558,29.255968 c 0,0 9.220799,2.405427 12.695301,11.358956"
       sodipodi:nodetypes="cc" />
    <path
       style="fill:#ffd5d5;fill-opacity:1;stroke:none;stroke-width:0.26458332px;stroke-linecap:butt;stroke-linejoin:miter;stroke-opacity:1"
       d="m 162.84144,172.0614 c -0.002,-0.0159 0.004,-0.0318 0.017,-0.0488 0,0 0,0 0,0 0.0182,-0.0172 0.0483,-0.0375 0.0865,-0.058 0,0 0,0 0,0 0.0754,-0.0405 0.19566,-0.0894 0.34652,-0.13951 l 0,0 0,0 c 0.29594,-0.0985 0.74257,-0.21469 1.28858,-0.3255 l 0,0 c 1.02569,-0.20834 2.48228,-0.4186 4.10601,-0.46952 0,0 0,0 0,0 0.31056,-0.0104 0.63054,-0.0157 0.9561,-0.0131 1.32687,0.0107 2.48914,0.1538 3.53903,0.45789 2.34466,0.61074 2.79762,2.13214 2.59989,2.21812 -0.16815,0.0731 -0.93917,-0.94633 -2.80682,-1.38173 -0.99951,-0.20236 -2.05033,-0.28119 -3.34039,-0.29212 -0.31246,-0.003 -0.624,-0.001 -0.92676,0.001 0,0 0,0 0,0 -1.51957,0.0165 -3.06462,0.11024 -4.04514,0.15084 l 0,0 c -0.55979,0.0232 -0.99675,0.0346 -1.31824,0.0218 l 0,0 0,0 c -0.16204,-0.006 -0.28419,-0.0184 -0.37276,-0.039 0,0 0,0 0,0 -0.0439,-0.0102 -0.0763,-0.0218 -0.1,-0.0363 0,0 0,0 0,0 -0.0175,-0.0144 -0.0275,-0.0301 -0.0296,-0.0464 z"
       id="path4959"
       inkscape:connector-curvature="0"
       inkscape:path-effect="#path-effect4961"
       inkscape:original-d="m 162.83436,172.05953 c -0.0252,0.0739 11.34227,-2.06628 12.94674,1.62352"
       sodipodi:nodetypes="cc" />
    <path
       style="fill:#ffffff;fill-opacity:1;stroke:none;stroke-width:0.26458332px;stroke-linecap:butt;stroke-linejoin:miter;stroke-opacity:1"
       d="m 213.61797,122.30329 c -0.0206,-0.029 -0.0552,-0.0703 -0.0532,-0.13362 0,0 0,0 0,0 0.001,-0.0434 0.014,-0.0816 0.0389,-0.12895 0,0 0,0 0,0 0.0553,-0.10513 0.14638,-0.20264 0.27966,-0.31332 l 0,0 0,0 c 0.28536,-0.23549 0.69727,-0.46625 1.26911,-0.69981 0,0 1e-5,-1e-5 1e-5,-1e-5 l 0,0 c 1.10787,-0.45443 2.68349,-0.85674 4.61439,-0.93566 0.99308,-0.0429 2.06506,0.007 3.17,0.1967 1.01684,0.17458 1.96826,0.45163 2.84167,0.81295 0,0 0,0 0,0 4.05806,1.68928 5.15109,4.58644 4.92463,4.76366 -0.35379,0.27687 -2.26209,-1.84185 -5.60442,-2.97734 0,0 0,0 0,0 -0.77347,-0.26538 -1.60318,-0.47618 -2.49832,-0.6279 -0.96993,-0.16439 -1.92375,-0.24358 -2.82002,-0.27293 -1.78555,-0.0534 -3.18829,0.0766 -4.32865,0.19863 l 0,0 c 0,0 0,0 0,0 -0.27319,0.0304 -1.28706,0.13639 -1.31108,0.13857 l 0,0 0,0 c -0.12918,0.0147 -0.30615,0.0211 -0.36329,0.0213 0,0 0,0 0,0 -0.0315,1.6e-4 -0.0841,-8.8e-4 -0.099,-0.002 0,0 0,0 0,0 -0.0391,-0.002 -0.0363,-0.006 -0.0604,-0.0405 z"
       id="path4963"
       inkscape:connector-curvature="0"
       inkscape:path-effect="#path-effect4965"
       inkscape:original-d="m 213.61797,122.30329 c -0.32122,-0.39615 11.04119,-4.1613 17.08516,3.56194"
       sodipodi:nodetypes="cc" />
  </g>
</svg>
