<svg xmlns="http://www.w3.org/2000/svg" viewBox="0 0 64 64">
    <ellipse cx="31.82" cy="31.549" fill="#ff8080" stroke="#000" stroke-linecap="round" stroke-linejoin="round" stroke-width="1.128" rx="27.008" ry="26.625"/>
    <path fill="#f9f9f9" fill-rule="evenodd" d="M33.31 8.447c9.544 1.259 18.527 4.22 22.834 21.406C42.96 11.013 41.262 14.34 33.31 8.447z"/>
    <path fill-opacity=".449" fill-rule="evenodd" d="M43.352 55.124C18.555 65.584-2.419 42.116 7.64 20.864c.189 18.2 14.228 36.08 35.712 34.26z"/>
    <path fill="#e2f1f6" fill-rule="evenodd" stroke="#000" stroke-width=".5" d="M32.333 53.975c3.272-.262 5.964-1.106 8.878-2.248 2.672-1.048.835-4.205.596-6.259.04-.35.07-.7-.57-1.108.34-.876-.014-1.565-.529-2.212.159-.778.086-1.513-.572-2.134.107-.878-.176-1.652-.7-2.361.059-.669.098-1.334-.477-1.892.028-.763-.04-1.517-.667-2.225-.116-1.521-.527-2.47-1.046-3.21-.996-1.445-1.616-3.139-1.36-5.412.128-.807-.235-1.31-.407-1.855-.712-3.353-1.819-5.824-4.685-7.419-2.514.843-4.855 1.479-6.636 1.849-.794 2.18-2.403 3.14-.981 8.642.087.655.106 1.314.493 1.924 1.22 2.032 2.142 3.768 1.582 6.324.026.871.435 1.64.854 2.405.11.705.057 1.332.63 2.258-.178.402-.162 1.448.573 2.134-.172.81-.035 1.452.495 2.017-.106.894.015 1.71.695 2.332-.342.855.028 1.573.494 2.271-.15.307-.465.44-.044 1.214 1.023 1.743.967 5.16 3.384 4.965z"/>
    <path fill="none" stroke="#000" stroke-width=".25" d="M29.104 47.731c1.954-.062 9.447-1.843 12.056-3.34M29.08 49.135c1.963.04 10.138-1.85 12.723-3.535M28.5 45.516c1.57-.278 8.949-1.957 12.142-3.266M27.903 43.29c1.638-.184 8.987-1.974 12.142-3.265M27.34 41.136c1.768-.342 9.214-2.252 12.143-3.265M26.837 39.016c1.697-.467 9.115-2.429 12.142-3.265M26.188 36.961c1.48-.549 8.67-2.595 12.142-3.265M23.63 27.857c1.482-.548 8.67-2.595 12.143-3.265M23.232 26.069c1.481-.55 8.67-2.596 12.142-3.265"/>
    <path fill="none" stroke="#000" stroke-width=".5" d="M30.668 15.571a10.812 10.812 0 0 0-.608-.302c-.101-.32-.218-.628-.333-.931.623-.18.51-.674-.106-.53-2.62-.09-4.115.633-5.455 1.468-.717.274-.785.78.051.604.051.279.1.568.162.868-.05.217-.11.42-.176.614"/>
    <path fill="#59f" fill-rule="evenodd" stroke="#000" stroke-width=".5" d="M23.965 15.507s-.925-3.093-.93-3.16c-.174-.7 5.66-2.369 5.805-1.58l.853 3.179c-1.371.247-4.772 1.235-5.728 1.561z"/>
    <path fill="none" stroke="#000" stroke-width=".5" d="M24.246 15.86c.771-.248 4.691-1.44 5.529-1.533"/>
    <path fill="none" stroke="#0055d4" stroke-width=".25" d="M25.894 11.285l.812 3.053M23.643 12.126c.252 1.1.48 1.849.826 2.935M24.703 11.66c.246.961.449 1.65.875 3.032M28.139 10.873c.333 1.079.51 1.84.754 2.954M27.121 10.985c.269.955.438 1.652.762 3.062"/>
</svg>
