<svg xmlns="http://www.w3.org/2000/svg" viewBox="0 0 64 64">
    <path fill="#f55" fill-rule="evenodd" stroke="#000" stroke-width=".81" d="M5.3 41.888c7.351 5.306 19.04 9.954 27.21 12.475C37.086 51.01 56.44 34.931 58.62 30.787l-17.375-5.262C29.262 30.98 15.246 33.825 5.3 41.888z"/>
    <path fill="#d3c22a" fill-rule="evenodd" stroke="#000" stroke-width=".81" d="M54.778 33.873c-.59.616.704 1.292 1.228.762 1.073-1.082 3.956-3.221 3.649-4.135-.376-1.116-2.166-1.211-4.248-1.813-.993-.288-1.068.786-.567 1.104 1.005.638 2.252.282 2.468 1.014.299 1.01-1.47 1.96-2.53 3.068zM8.986 39.19c.7-.487-.41-1.227-1.029-.81-1.265.85-4.078 2.326-3.957 3.282.148 1.169 1.424 1.487 3.346 2.488.917.478 1.202-.56.774-.97-.86-.824-2.153-.721-2.22-1.481-.093-1.05 1.827-1.633 3.086-2.51z"/>
    <path fill="#ff2a2a" fill-rule="evenodd" stroke="#000" stroke-width=".81" d="M5.68 41.743c.583-.3 4.666-2.685 4.628-2.676l-.795-11.065-3.255 2.712c-1.504 3.808-.932 7.408-.578 11.03z"/>
    <path fill="#f55" fill-rule="evenodd" stroke="#000" stroke-width=".81" d="M5.246 41.888c-1.203-.5-1.094-12.659.759-12.24l.94.976c-1.348 3.58-.965 6.884-.831 10.65z"/>
    <path fill="#f4eed7" fill-rule="evenodd" stroke="#000" stroke-width=".81" d="M6.945 40.984c-.036-.217.145-10.233.145-10.233l50.95-9.62c-.615 3.215-2.7 5.612-.976 10.126L31.913 52.212z"/>
    <path fill="#d3c22a" fill-rule="evenodd" stroke="#000" stroke-width=".81" d="M27.358 51.398c-.77-.366-1.574 1.193-.922 1.555 1.83 1.02 4.878 2.178 5.786 2.098 1.683-.15 3.693-1.794 4.917-3.327.646-.808-.836-1.341-1.193-.868-.216.287-2.25 2.217-3.833 2.332-1.689.123-4.211-1.53-4.755-1.79z"/>
    <path fill="#ff8080" fill-rule="evenodd" stroke="#000" stroke-width=".81" d="M5.499 29.991c-.008-1.338 27.869-19.184 29.435-19.057 1.724.141 25.036 8.045 25.457 9.221.453 1.267-26.4 21.512-27.265 21.625-.935.121-27.62-10.718-27.627-11.789z"/>
    <path fill="#d3c22a" fill-rule="evenodd" stroke="#000" stroke-width=".81" d="M56.289 23.092c-.59.615.704 1.291 1.229.762 1.072-1.083 3.955-3.222 3.648-4.135-.376-1.117-2.038-1.467-4.12-2.07-.993-.287-1.502.838-1.002 1.156 1.005.638 2.892.512 3.108 1.244.298 1.01-1.802 1.935-2.863 3.043z"/>
    <path fill="none" stroke="#000" stroke-width=".405" d="M11.935 29.991l18.406 8.39c1.345-.768 2.77-1.24 4.593-.29L55.11 21.963c-1.273-.616-1.676-1.336-.542-2.242l-17.538-6.69c-1.575 1.13-2.78.779-3.978.399L12.19 28.147c.82.44 1.395.929-.254 1.844z"/>
    <ellipse cx="34.789" cy="12.724" fill="none" stroke="#000" stroke-linecap="round" stroke-linejoin="round" stroke-width=".203" rx=".663" ry=".283"/>
    <ellipse cx="10.742" cy="29.34" fill="none" stroke="#000" stroke-linecap="round" stroke-linejoin="round" stroke-width=".203" rx=".687" ry=".217"/>
    <ellipse cx="32.872" cy="39.212" fill="none" stroke="#000" stroke-linecap="round" stroke-linejoin="round" stroke-width=".259" rx=".659" ry=".37"/>
    <ellipse cx="56.051" cy="20.788" fill="none" stroke="#000" stroke-linecap="round" stroke-linejoin="round" stroke-width=".254" rx=".661" ry=".354"/>
    <path fill="#d38d5f" fill-rule="evenodd" d="M31.883 51.689c.18-.148.365-.299.548-.446-.327-1.248-.594-2.98-.68-4.673-.095-1.834.02-3.639.51-4.762-.695 1.048-1.037 2.865-1.159 4.758a30.21 30.21 0 0 0 .105 4.898c.226.082.451.158.676.225z"/>
    <path fill="#784421" fill-rule="evenodd" d="M31.656 50.107l.149-.376-6.478-2.128 6.18 2.881.149-.377z"/>
    <path fill="#784421" fill-rule="evenodd" d="M31.113 50.234l.38.27 8.66-7.556-9.223 6.857.183.429zM31.723 45.544l-12.67-4.915 12.354 5.661z"/>
    <path fill="#784421" fill-rule="evenodd" d="M31.022 46.044l.395.177 5.138-4.57-5.616 3.969.083.424zM23.075 40.87l-5.7-3.048-7.656-2.93 7.285 3.757 6.07 2.221zM51.432 32.25l-5.385 3.578-6.204 5.356 6.758-4.638 4.83-4.296z"/>
    <path fill="#d3c22a" fill-rule="evenodd" stroke="#000" stroke-width=".81" d="M9.973 27.093c.7-.487-.41-1.226-1.028-.81-1.265.85-4.079 2.326-3.958 3.282.148 1.17 1.424 1.487 3.346 2.488.917.478 1.202-.56.774-.97-.86-.824-2.153-.721-2.22-1.481-.093-1.05 1.828-1.633 3.086-2.509z"/>
    <path fill="#d3c22a" fill-rule="evenodd" stroke="#000" stroke-width=".71" d="M39.283 12.784c.706.32 1.493-.95.897-1.265-1.675-.885-4.043-1.462-4.888-1.416-1.568.084-4.138 1.374-5.316 2.614-.62.653.743 1.128 1.087.745.209-.233 2.77-2.137 4.245-2.196 1.573-.063 3.476 1.29 3.975 1.518z"/>
    <path fill="#d3c22a" fill-rule="evenodd" stroke="#000" stroke-width=".81" d="M27.888 38.792c-.77-.366-1.574 1.193-.923 1.555 1.831 1.02 4.88 2.178 5.786 2.098 1.683-.15 4.019-1.577 5.243-3.11.646-.808-.836-1.341-1.193-.868-.216.287-2.575 2-4.158 2.115-1.69.123-4.211-1.53-4.755-1.79z"/>
    <path fill="#784421" fill-rule="evenodd" d="M55.47 27.28l-.67.921-4.79 3.362 4.407-3.85 1.053-.432z"/>
    <path fill="#f55" fill-rule="evenodd" d="M21.371 30.164c2.439 2.233 5.436 3.696 10.834 1.843l-.92-.257a9.06 9.06 0 0 0 2.605-1.318l-.586-.133c.724-.603 1.44-1.177 2.222-1.973l-.762.088 1.423-2.017-.693.186c-.61.759 1.874-3.68 1.708-.13l.407-.294c-.177.923-.518 1.893-.867 2.865l.345-.11-.612 1.878s1.387-.919 2.366-1.56c-.148.377-.27.746-.27.746 1.129-.832 2.298-1.33 3.375-2.594l.032.531c.673-.894 1.416-1.759 1.615-2.853l.315.557c.969-2.505-.12-4.151-1.041-5.189l1.05.12c-.436-.724-.894-1.413-2.463-1.941.378-.137.686-.042 1.044-.112-1.294-1.107-2.581-.943-3.87-1.172l.722-.594c-1.452-.41-2.214-.105-3.233-.068l.611-.715c-1.147-.101-1.832.491-2.529 1.067l.127-.817c-1.099.845-1.763 1.951-2.373 3.09l-.353-.722c-.508.647-.708 1.388-.888 2.135l-.159-.345c-1.404 8.458-5.488 9.841-9.182 9.808z"/>
</svg>
