<svg xmlns="http://www.w3.org/2000/svg" viewBox="0 0 64 64">
    <ellipse cx="31.82" cy="31.549" fill="#ff8080" stroke="#000" stroke-linecap="round" stroke-linejoin="round" stroke-width="1.128" rx="27.008" ry="26.625"/>
    <path fill="#f55" fill-rule="evenodd" d="M22.25 33.786v3.849l.394-4.41c.828-1.453 2.77-3.25 4.888-4.932l.095 1.95 1.548-3.212c2.159-1.605 4.25-2.995 5.268-3.67l-1.018 3.237 1.71-3.505c1.956-1.198 7.78-2.79 11.582-7.519.285 5.43-6.53 12.694-7.753 15.523l-4.494 1.172 4.386-.663a18.576 18.576 0 0 1-2.078 4.308l-1.575.484.72.727c-1.086 1.44-2.403 2.778-3.938 4.052l-4.901 1.415 4.453-.905c-3.652 2.919-7.06 4.792-11.269 4.537 0 0-.15-.153-.299-.255-.923-5.964.557-10.246 2.281-12.183z"/>
    <path fill="#ff2a2a" fill-rule="evenodd" d="M42.784 21.31c-3.302 3.107-9.632 6.55-12.863 10.214-4.597 5.194-5.701 10.388-13.445 18.855 7.863-7.957 9.454-13.4 13.825-18.665 3.029-3.652 9.775-7.333 12.483-10.404z"/>
    <path fill="#f9f9f9" fill-rule="evenodd" d="M33.31 8.447c9.544 1.259 18.527 4.22 22.834 21.406C42.96 11.013 41.262 14.34 33.31 8.447z"/>
    <path fill-opacity=".449" fill-rule="evenodd" d="M43.352 55.124C18.555 65.584-2.419 42.116 7.64 20.864c.189 18.2 14.228 36.08 35.712 34.26z"/>
    <g stroke="#000" transform="rotate(-21.417 58.051 189.367)">
        <path fill="#b50028" fill-rule="evenodd" stroke-width=".6" d="M84.663 54.34l13.764.064 5.366-5.62-.19-21.086-5.492-5.24-13.89.252-4.924 5.05.126 21.088z"/>
        <path fill="#b3b3b3" fill-rule="evenodd" stroke-width=".6" d="M88.249 13.931l.004 3.426 5.727.063-.017-3.457c-2.005-.344-3.887-.281-5.714-.032z"/>
        <path fill="#333" fill-rule="evenodd" stroke-width=".6" d="M87.194 21.547l-.09-3.94c-.244-.932 7.802-.869 8.124-.048l.027 4.212z"/>
        <ellipse cx="91.07" cy="15.327" fill="#808080" stroke-width=".25" rx=".815" ry=".792"/>
        <path fill="#b50028" fill-opacity=".502" fill-rule="evenodd" stroke-width=".6" d="M82.27 12.983l.015 4.388 1.944 1.811 13.67.017 1.905-1.977.02-4.23-2.258-1.493-12.88.007z"/>
        <path fill="none" stroke-width=".25" d="M82.208 12.956l1.43-.041s14.726.104 14.883.104c.158 0 1.336.102 1.336.102M82.106 17.375l1.564-.158 15.017.019 1.002.076"/>
        <path fill="none" stroke-width=".25" d="M84.884 11.693l-1.262 1.168.031 4.325.726 1.862M97.29 11.693l1.326 1.357.063 4.104-1.105 1.989"/>
        <path fill="#1a1a1a" fill-rule="evenodd" stroke-width=".6" d="M84.31 22.718c-.01-.627 1.953-1.154 2.84-1.716 2.625-.138 5.273-.224 8.075.05 1 .49 3.025.844 3.007 1.566z"/>
        <path fill="#ff184c" fill-rule="evenodd" stroke-width=".248" d="M80.49 45.221c.063 2.755 1.447 6.993 10.76 6.752 6.511-.168 11.4-1.423 11.25-6.884l.224-14.552c-.223-3.297-4.367-7.03-11.567-7.094-7.304-.065-10.737 4.559-10.712 7.006z"/>
        <path fill="#1a1a1a" fill-rule="evenodd" stroke-width=".6" d="M98.667 54.023l3.677-3.847-4.219-17.962-14.018-9.375-3.258 3.376 16.696 6.178z"/>
        <path fill="#1a1a1a" fill-rule="evenodd" stroke-width=".6" d="M79.647 49.084l17.955-17.537.74-8.811 3.217 3.049-1.904 8.646-15.894 18.94z"/>
        <g fill-rule="evenodd">
            <path fill="#1a1a1a" stroke-width=".5" d="M114.174 64.87c1.055 4.417 4.369 4.559 5.558 4.018-.358-1.79-5.158-5.468-5.558-4.017z" transform="matrix(1.00154 -.16405 .15264 .86031 -33.847 -8.623)"/>
            <path fill="#333" stroke-width=".5" d="M120.2 69.87c-2.49-2.659-5.356-3.89-6.048-5.089-1.873 1.764-2.852 3.985-3.572 6.34.28.618 5.37 3.98 5.358 3.616.111-.09 4.263-4.866 4.263-4.866z" transform="matrix(1.00154 -.16405 .15264 .86031 -33.847 -8.623)"/>
            <path fill="#333" stroke-width=".5" d="M119.665 69.67c-5.087-.157-6.547 4.294-8.46 8.17-.26.34 4.597 6.554 4.733 6.316.143-.137 3.254-11.074 3.794-12.544z" transform="matrix(1.00154 -.16405 .15264 .86031 -33.847 -8.623)"/>
            <g stroke-width=".5">
                <path fill="#1a1a1a" d="M124.574 56.908c1.055 4.417 4.369 4.558 5.558 4.018-.357-1.79-5.157-5.468-5.558-4.018z" transform="matrix(-1.00154 .16405 .15264 .86031 219.79 -43.094)"/>
                <path fill="#333" d="M130.601 61.908c-2.491-2.66-5.357-3.89-6.049-5.09-1.872 1.764-2.851 3.986-3.571 6.34.279.619 5.37 3.98 5.357 3.616.111-.09 4.263-4.866 4.263-4.866z" transform="matrix(-1.00154 .16405 .15264 .86031 219.79 -43.094)"/>
                <path fill="#333" d="M130.065 61.707c-5.087-.157-6.546 4.294-8.46 8.17-.26.34 4.597 6.555 4.733 6.317.143-.138 3.255-11.075 3.794-12.545z" transform="matrix(-1.00154 .16405 .15264 .86031 219.79 -43.094)"/>
            </g>
            <path fill="#4d4d4d" stroke-width=".54" d="M119.238 68.879c.326 1.095.13 2.17.155 3.062l2.846-.08c-.315-.999-.44-1.991-.035-2.963z" transform="matrix(1.00154 -.16405 .15264 .86031 -33.847 -8.623)"/>
        </g>
    </g>
</svg>
