<svg xmlns="http://www.w3.org/2000/svg" viewBox="0 0 256 256">
    <g stroke="#000">
        <path fill="#b3b3b3" fill-rule="evenodd" d="M64.837 221.015l2.41 9.107c17.385 21.897 107.947 22.738 117.5 1.071l2.947-8.66M115.545 9.057c-8.248.157-19.678 4.075-16.798 9.102l7.858 16.316 19.73-1.037-2.962-21.153c-.06-2.361-3.507-3.31-7.828-3.228zm.401 5.012c2.522-.07 4.44.377 4.542 1.52l.964 5.871c-1.97-.61-10.374.147-15.773 3.894l-2.288-5.234c-1.47-3.241 7.007-5.897 12.555-6.05zm2.633 12.378a25.022 25.022 0 0 1 3.96.186l1.218 6.752-14.518.861c-.19-.315-1.526-3.972-1.526-3.972 3.774-2.515 7.091-3.684 10.866-3.827zM72.115 39.97c-14.078-9.176 120.672-9.925 107.59.446"/>
        <path fill="#f55" fill-rule="evenodd" d="M190.776 218.541l.135-156.964-11.207-21.25c8.008-6.65-114.196-7.024-107.678-.357L59.883 62.29l.535 154.464c8.64 25.224 119.67 27.009 130.358 1.786z"/>
        <path fill="none" d="M60.104 62.05c12.728-5.87 113.639-6.874 130.562-.757"/>
    </g>
</svg>
