<svg xmlns="http://www.w3.org/2000/svg" viewBox="0 0 64 64">
    <ellipse cx="31.82" cy="31.549" fill="#ff8080" stroke="#000" stroke-linecap="round" stroke-linejoin="round" stroke-width="1.128" rx="27.008" ry="26.625"/>
    <g fill="#f55" fill-rule="evenodd">
        <path d="M16.918 36.354c-5.806 1.433-6.809-10.608-4.3-12.472.43-2.007.931-3.154.931-3.154s1.29 1.075 2.294 2.294c3.226.143 6.236 12.042 1.075 13.332zM20.287 51.12c-2.509-.502-3.87-3.154-3.799-4.66.43-4.874 3.44-5.16 6.81-8.673 2.652-2.723 5.017-6.092 8.243-5.949 4.658.072 5.734 3.512 7.382 7.024 1.29 2.868 3.727 4.66 4.086 6.451.645 2.724-1.004 7.455-4.157 7.67-2.51.287-4.086-5.16-7.025-6.02-2.509-.646-9.031 4.586-11.54 4.156zM27.527 28.47c-5.663.501-4.946-11.612-2.222-13.046.645-1.935 1.361-3.01 1.361-3.01s1.004 1.29 1.792 2.652c3.01.645 4.23 12.902-.931 13.403zM39.282 30.046c-4.874-2.15-.215-13.117 2.437-13.188 1.218-1.506 2.15-2.15 2.15-2.15s.43 1.648.573 3.296c2.294 2.007-.788 13.978-5.16 12.042zM45.876 40.798c-3.942-3.942 3.154-13.045 5.662-12.114 1.434-1.003 2.437-1.29 2.437-1.29s0 1.72-.215 3.44c1.577 2.868-4.372 13.548-7.884 9.964z"/>
    </g>
    <g fill-rule="evenodd" stroke="#000">
        <path fill="#c8beb7" stroke-width=".5" d="M-139.563 42.473s1.614 4.82 2.666 7.132c.836 1.836 6.918 5.44 8.746 5.765 4.543.81 29.117-21.288 30.04-24.937.384-1.516-.691-4.516-.691-4.516z" transform="matrix(.93738 0 0 .90136 142.501 -.198)"/>
        <path fill="#6c5d53" stroke-width=".5" d="M-139.715 42.054c.638 3.364 8.347 9.463 11.376 9.263 3.445-.226 30.153-22.014 29.537-25.4-.61-3.347-7.77-7.011-10.689-7.235-3.189-.243-30.814 20.266-30.224 23.372z" transform="matrix(.93738 0 0 .90136 142.501 -.198)"/>
        <path fill="#e3dedb" stroke-width=".5" d="M-138.2 42.07c.52 2.74 7.3 7.963 9.768 7.8 2.806-.184 28.517-20.979 28.015-23.737-.495-2.725-6.639-5.925-9.016-6.107-2.597-.198-29.248 19.514-28.768 22.044z" transform="matrix(.93738 0 0 .90136 142.501 -.198)"/>
        <path fill="#e3dedb" stroke-width=".272" d="M-137.294 42.168c.487 2.553 6.583 7.072 8.893 6.92 2.626-.171 27.705-20.335 27.235-22.905-.464-2.54-6.088-5.142-8.314-5.311-2.431-.185-28.263 18.938-27.814 21.296z" transform="matrix(.93738 0 0 .90136 142.501 -.198)"/>
        <path fill="#b3b3b3" stroke-width=".5" d="M-129.654 38.06c-1.364.497-1.973 2.169-2.448 3.261-1.184 2.724-3.14 4.675-3.14 4.675.64.63 1.306 1.226 2.094 1.65 0 0 3.083-2.62 5.61-3.356 1.709-.498 3.453-1.457 3.581-2.876.164-1.811-3.197-4.264-5.697-3.354zm.458 1.429c1.572-.242 2.43.722 3.348 1.692-.642.998-1.324 1.305-2.144 1.48l-2.108-1.508c.046-.61.513-1.128.904-1.664z" transform="matrix(.93738 0 0 .90136 142.501 -.198)"/>
    </g>
    <path fill="#f9f9f9" fill-rule="evenodd" d="M33.31 8.447c9.544 1.259 18.527 4.22 22.834 21.406C42.96 11.013 41.262 14.34 33.31 8.447z"/>
    <path fill-opacity=".449" fill-rule="evenodd" d="M43.352 55.124C18.555 65.584-2.419 42.116 7.64 20.864c.189 18.2 14.228 36.08 35.712 34.26z"/>
</svg>
