<svg xmlns="http://www.w3.org/2000/svg" xmlns:xlink="http://www.w3.org/1999/xlink" viewBox="0 0 64 64">
    <defs>
        <linearGradient id="linearGradient4461">
            <stop offset="0" stop-color="#f5d"/>
            <stop offset=".598" stop-color="#f5d"/>
            <stop offset="1" stop-color="#eaf"/>
        </linearGradient>
        <linearGradient id="linearGradient4449">
            <stop offset="0" stop-color="#decd87"/>
            <stop offset="1" stop-color="#f4eed7"/>
        </linearGradient>
        <radialGradient id="radialGradient4459" cx="112.377" cy="31.701" r="25.025" fx="112.377" fy="31.701" gradientTransform="matrix(1 0 0 .44426 0 22.03)" gradientUnits="userSpaceOnUse" xlink:href="#linearGradient4449"/>
        <radialGradient id="radialGradient4469" cx="111.793" cy="24.404" r="22.416" fx="111.793" fy="24.404" gradientTransform="matrix(1.13145 -.002 .00085 .48286 -14.715 16.859)" gradientUnits="userSpaceOnUse" xlink:href="#linearGradient4461"/>
    </defs>
    <ellipse cx="31.82" cy="31.549" fill="#ff8080" stroke="#000" stroke-linecap="round" stroke-linejoin="round" stroke-width="1.128" rx="27.008" ry="26.625"/>
    <path fill="#f9f9f9" fill-rule="evenodd" d="M33.31 8.447c9.544 1.259 18.527 4.22 22.834 21.406C42.96 11.013 41.262 14.34 33.31 8.447z"/>
    <path fill-opacity=".449" fill-rule="evenodd" d="M43.352 55.124C18.555 65.584-2.419 42.116 7.64 20.864c.189 18.2 14.228 36.08 35.712 34.26z"/>
    <path fill="#f55" fill-rule="evenodd" stroke="#f55" stroke-width=".81" d="M22.71 39.598c-1.482-1.926-3.43-3.749-2.795-4.482.459-.528 3.219.58 5.782 1.475 1.052.367 1.627 1.107 2.548 1.847 1.255 1.007 1.973.486 1.371-.422-1.97-2.973-10.35-8.12-9.775-9.175.56-1.029 2 .861 2.198.116.706-2.657 2.17-5.158 2.937-7.97 1.237-4.529-4.885-6.438-5.098-7.31-.224-.915 3.92-2.26 6.522 3.777.33.767 1.223.7 1.318-.843.13-2.122-.384-5.936.37-6.195 1.253-.432 1.182 5.42 2.635 5.087 1.767-.403 1.718-4.626 2.478-4.64.704-.011 1.406.709 1.24 1.556-.143.722-.35.776-.449 1.186-.196.816 1.276-.56 2.32-1.08.74-.369 4.07 1.883 1.476 2.662-7.774 2.333-12.228 7.138-12.31 13.998-.043 3.535 2.75 5.99 7.328 6.274 4.593.284 8.138-5.159 8.778-8.067.33-1.498 3.772 1.528 2.742 2.505 0 0-4.41 3.363-3.981 4.007.574.86 2.294-.523 3.216-.66 1.85-.274 1.503 2.571.211 2.69-2.63.24-6.874.208-7.038 1.291-.196 1.291 3.097 1.96 6.669.554 1.876-.74 1.122 2.182-.237 2.61-3.48 1.094-9.478-2.14-9.543-1.556-.134 1.208 6.348 4.807 9.7 7.645 2.299 1.944-1.835 5.537-3.004 5.325-2.598-.473-2.513-1.816-6.38-1.925-1.62-.045-2.268.547-3.901 1.53-4.828 2.904-12.675-8.12-7.329-11.81z"/>
    <g stroke="#000" transform="matrix(.729 0 0 .729 -50.268 7.118)">
        <path fill="url(#radialGradient4459)" fill-rule="evenodd" stroke-width=".5" d="M92.24 29.276c-3.502 1.36-4.151 4.454-4.483 7.387-.272 2.408.898 4.17 2.525 6.566 2.44 3.591 6.677 4.845 10.354 5.808 5.477 1.434 10.795 1.352 16.1 1.01 6.933-.447 11.397-2.099 15.089-4.356 2.74-1.675 4.174-3.719 4.735-6.187 1.142-5.02-2.718-8.68-4.546-10.48z"/>
        <path fill="url(#radialGradient4469)" fill-rule="evenodd" stroke-width=".5" d="M90.598 33.506c1.3 4.43 7.242 5.424 12.753 6.882 5.269 1.393 10.45 3.15 17.3 1.326 5.556-1.481 11.141-3.01 13.068-7.135.75-1.607.45-3.65-.379-5.177-1.381-2.544-4.316-4.587-8.397-6.06-3.365-1.216-6.82-1.642-12.753-1.453-3.706.119-9.09.107-15.152 3.03-3.803 1.835-7.843 3.801-6.44 8.587z"/>
        <ellipse cx="105.826" cy="35.741" fill="#d5f" stroke-linecap="round" stroke-linejoin="round" stroke-width=".25" rx=".781" ry=".759"/>
        <ellipse cx="123.929" cy="34.223" fill="#d5f" stroke-linecap="round" stroke-linejoin="round" stroke-width=".25" rx=".781" ry=".759"/>
        <ellipse cx="113.795" cy="30.518" fill="#d5f" stroke-linecap="round" stroke-linejoin="round" stroke-width=".206" rx=".669" ry=".602"/>
        <circle cx="107.411" cy="23.844" r=".511" fill="#d5f" stroke-linecap="round" stroke-linejoin="round" stroke-width=".166"/>
        <ellipse cx="120.246" cy="24.156" fill="#d5f" stroke-linecap="round" stroke-linejoin="round" stroke-width=".15" rx=".496" ry=".43"/>
        <ellipse cx="95.067" cy="28.241" fill="#d5f" stroke-linecap="round" stroke-linejoin="round" stroke-width=".166" rx=".533" ry=".489"/>
        <ellipse cx="97.902" cy="34.223" fill="#f06" stroke-linecap="round" stroke-linejoin="round" stroke-width=".25" rx=".781" ry=".759"/>
        <ellipse cx="114.018" cy="39.179" fill="#f06" stroke-linecap="round" stroke-linejoin="round" stroke-width=".25" rx=".781" ry=".759"/>
        <ellipse cx="131.696" cy="31.991" fill="#f06" stroke-linecap="round" stroke-linejoin="round" stroke-width=".25" rx=".781" ry=".759"/>
        <ellipse cx="107.388" cy="28.308" fill="#f06" stroke-linecap="round" stroke-linejoin="round" stroke-width=".2" rx=".65" ry=".583"/>
        <ellipse cx="125.268" cy="26.723" fill="#f06" stroke-linecap="round" stroke-linejoin="round" stroke-width=".169" rx=".554" ry=".487"/>
        <ellipse cx="114.263" cy="22.929" fill="#f06" stroke-linecap="round" stroke-linejoin="round" stroke-width=".153" rx=".495" ry=".45"/>
        <ellipse cx="119.598" cy="37.125" fill="#0cf" stroke-linecap="round" stroke-linejoin="round" stroke-width=".25" rx=".781" ry=".759"/>
        <ellipse cx="102.879" cy="32.326" fill="#0cf" stroke-linecap="round" stroke-linejoin="round" stroke-width=".187" rx=".612" ry=".545"/>
        <ellipse cx="122.098" cy="29.58" fill="#0cf" stroke-linecap="round" stroke-linejoin="round" stroke-width=".181" rx=".548" ry=".57"/>
        <ellipse cx="101.808" cy="25.652" fill="#0cf" stroke-linecap="round" stroke-linejoin="round" stroke-width=".166" rx=".533" ry=".489"/>
        <ellipse cx="114.04" cy="26.612" fill="#0cf" stroke-linecap="round" stroke-linejoin="round" stroke-width=".162" rx=".535" ry=".468"/>
        <ellipse cx="130.893" cy="28.799" fill="#0cf" stroke-linecap="round" stroke-linejoin="round" stroke-width=".172" rx=".552" ry=".508"/>
        <ellipse cx="114.152" cy="34.424" fill="#37c871" stroke-linecap="round" stroke-linejoin="round" stroke-width=".216" rx=".664" ry=".664"/>
        <ellipse cx="99.107" cy="30.607" fill="#37c871" stroke-linecap="round" stroke-linejoin="round" stroke-width=".216" rx=".664" ry=".664"/>
        <ellipse cx="118.884" cy="27.884" fill="#37c871" stroke-linecap="round" stroke-linejoin="round" stroke-width=".19" rx=".633" ry=".543"/>
        <ellipse cx="110.848" cy="25.317" fill="#37c871" stroke-linecap="round" stroke-linejoin="round" stroke-width=".15" rx=".474" ry=".452"/>
        <ellipse cx="103.036" cy="24" fill="#37c871" stroke-linecap="round" stroke-linejoin="round" stroke-width=".135" rx=".437" ry=".393"/>
        <ellipse cx="124.754" cy="25.205" fill="#37c871" stroke-linecap="round" stroke-linejoin="round" stroke-width=".15" rx=".496" ry=".43"/>
        <ellipse cx="110.446" cy="39.179" fill="#ffd42a" stroke-linecap="round" stroke-linejoin="round" stroke-width=".216" rx=".664" ry=".664"/>
        <ellipse cx="95.089" cy="32.214" fill="#ffd42a" stroke-linecap="round" stroke-linejoin="round" stroke-width=".172" rx=".552" ry=".508"/>
        <ellipse cx="110" cy="31.433" fill="#ffd42a" stroke-linecap="round" stroke-linejoin="round" stroke-width=".169" rx=".509" ry=".532"/>
        <ellipse cx="117.299" cy="24.804" fill="#ffd42a" stroke-linecap="round" stroke-linejoin="round" stroke-width=".144" rx=".455" ry=".432"/>
        <ellipse cx="127.679" cy="30.696" fill="#ffd42a" stroke-linecap="round" stroke-linejoin="round" stroke-width=".197" rx=".629" ry=".585"/>
        <ellipse cx="98.906" cy="26.991" fill="#ffd42a" stroke-linecap="round" stroke-linejoin="round" stroke-width=".181" rx=".615" ry=".503"/>
        <ellipse cx="109.464" cy="34.402" fill="#fff" stroke-linecap="round" stroke-linejoin="round" stroke-width=".216" rx=".664" ry=".664"/>
        <ellipse cx="119.018" cy="32.259" fill="#fff" stroke-linecap="round" stroke-linejoin="round" stroke-width=".172" rx=".552" ry=".508"/>
        <ellipse cx="122.545" cy="26.277" fill="#fff" stroke-linecap="round" stroke-linejoin="round" stroke-width=".147" rx=".476" ry=".431"/>
        <ellipse cx="103.951" cy="27.772" fill="#fff" stroke-linecap="round" stroke-linejoin="round" stroke-width=".178" rx=".572" ry=".527"/>
        <ellipse cx="92.567" cy="30.362" fill="#fff" stroke-linecap="round" stroke-linejoin="round" stroke-width=".159" rx=".537" ry=".447"/>
    </g>
</svg>
