<svg xmlns="http://www.w3.org/2000/svg" viewBox="0 0 64 64">
    <ellipse cx="31.82" cy="31.549" fill="#ff8080" stroke="#000" stroke-linecap="round" stroke-linejoin="round" stroke-width="1.128" rx="27.008" ry="26.625"/>
    <path fill="#f55" fill-rule="evenodd" d="M32.366 53.02c-2.285 1.623-9.69-.879-12.768-4.008-2.14-2.176-2.276-6.089-2.103-8.68.19-2.843 1.14-6.19 1.596-8.824.071-1.211-2.341-16.112 1.488-15.85 2.031.14 1.288 12.728 2.796 14.16.236.225.884.06 1.209.122.638.122 1.075-3.161 1.917-6.902 1.263-5.613 3.088-12.371 5.066-11.114 1.375.875.258 5.51-.674 9.663-.824 3.668-1.467 6.95-.65 7.076 1.852.284 4.067-9.805 6.363-14.787.912-1.977 1.7-2.886 2.69-2.424 2.086.974.461 6.688-1.32 11.718-1.175 3.318-2.811 6.674-2.1 6.984 1.079.47 3.547-4.246 6.13-8.535 1.489-2.474 2.215-6.108 4.134-5.32 2.314.95-.626 7.884-5.794 16.024-.735 1.158-1.42 3.194-1.25 4.562.184 1.464-.365 4.237.91 3.606 2.125-1.053 4.535-3.635 6.634-5 3.164-2.06 6.055-2.472 5.572-.044-.18.908-4.883 4.56-10.195 10.258-2.539 2.723-6.23 4.884-9.651 7.315z"/>
    <path fill="#f9f9f9" fill-rule="evenodd" d="M33.31 8.447c9.544 1.259 18.527 4.22 22.834 21.406C42.96 11.013 41.262 14.34 33.31 8.447z"/>
    <path fill-opacity=".449" fill-rule="evenodd" d="M43.352 55.124C18.555 65.584-2.419 42.116 7.64 20.864c.189 18.2 14.228 36.08 35.712 34.26z"/>
    <path fill="#dbe2e3" fill-rule="evenodd" stroke="#000" stroke-width=".5" d="M36.241 52.465C23.653 55.843 21.714 40.892 25.46 32.26c1.782-4.108.69-8.75-.25-12.572l5.703-1.387c1.096 4.118 1.709 8.235 5.396 11.408 8.253 7.104 12.178 19.47-.068 22.756z"/>
    <path fill="#e2e3db" fill-rule="evenodd" d="M36.013 51.119c-10.792 2.896-12.454-9.922-9.243-17.323 1.528-3.522 1.355-7.953-.543-14.415l3.487-.769c1.172 7.064 3.196 10.276 6.358 12.997 7.076 6.09 10.44 16.692-.059 19.51z"/>
    <path fill="#e3e2db" stroke="#000" stroke-linecap="round" stroke-width=".5" d="M26.332 10.026a2.722 2.549 0 0 0-2.723 2.549 2.722 2.549 0 0 0 2.723 2.549 2.722 2.549 0 0 0 2.72-2.55 2.722 2.549 0 0 0-2.72-2.548zm0 1.023a1.63 1.526 0 0 1 1.629 1.526 1.63 1.526 0 0 1-1.63 1.525 1.63 1.526 0 0 1-1.63-1.525 1.63 1.526 0 0 1 1.63-1.526z"/>
    <path fill="#e3e2db" fill-rule="evenodd" stroke="#000" stroke-width=".5" d="M24.877 20.155l6.576-1.673-1.463-5.548-6.558 1.649z"/>
    <path fill="#afe" fill-rule="evenodd" d="M36.013 51.119c-10.792 2.896-12.454-9.922-9.243-17.323.712-1.64 1.054-3.479 1.026-5.627 1.997-.233 3.941-.135 5.17-.026.884 1.345 1.914 2.44 3.106 3.466 7.076 6.09 10.44 16.692-.059 19.51z"/>
    <path fill="#fff" fill-rule="evenodd" d="M33.745 29.879c1.752 1.215 3.463 3.403 4.735 5.726 1.352 1.68 2.476 3.545 3.107 5.176-.227-1.749-.986-3.862-2.05-5.871-1.705-2.217-3.804-4.165-5.792-5.031zM29.13 13.733c.195.649.261 1.323.303 1.987.283.74.53 1.5.894 2.176-.154-.737-.185-1.528-.256-2.322-.261-.645-.543-1.276-.942-1.841z"/>
</svg>
