<svg xmlns="http://www.w3.org/2000/svg" viewBox="0 0 64 64">
    <g fill="none" stroke="#ff2a2a">
        <path d="M11.696 12.393c.457.054.153.642-.089.759-.656.317-1.31-.328-1.428-.938-.211-1.09.757-2.003 1.785-2.098 1.509-.14 2.71 1.191 2.768 2.634.078 1.923-1.625 3.42-3.482 3.438-2.337.022-4.133-2.06-4.107-4.33.031-2.751 2.494-4.849 5.178-4.778 3.164.084 5.564 2.929 5.447 6.027-.135 3.577-3.363 6.28-6.875 6.116-3.99-.185-6.996-3.798-6.786-7.723.236-4.404 4.233-7.713 8.572-7.455 4.817.286 8.43 4.667 8.125 9.42" transform="matrix(.7882 0 0 .79632 .942 -.622)"/>
        <path d="M11.696 12.393c.457.054.153.642-.089.759-.656.317-1.31-.328-1.428-.938-.211-1.09.757-2.003 1.785-2.098 1.509-.14 2.71 1.191 2.768 2.634.078 1.923-1.625 3.42-3.482 3.438-2.337.022-4.133-2.06-4.107-4.33.031-2.751 2.494-4.849 5.178-4.778 3.164.084 5.564 2.929 5.447 6.027-.135 3.577-3.363 6.28-6.875 6.116-3.99-.185-6.996-3.798-6.786-7.723.236-4.404 4.233-7.713 8.572-7.455 4.817.286 8.43 4.667 8.125 9.42" transform="matrix(-.17345 -.5984 .61477 -.17233 4.37 66.072)"/>
        <path d="M11.696 12.393c.457.054.153.642-.089.759-.656.317-1.31-.328-1.428-.938-.211-1.09.757-2.003 1.785-2.098 1.509-.14 2.71 1.191 2.768 2.634.078 1.923-1.625 3.42-3.482 3.438-2.337.022-4.133-2.06-4.107-4.33.031-2.751 2.494-4.849 5.178-4.778 3.164.084 5.564 2.929 5.447 6.027-.135 3.577-3.363 6.28-6.875 6.116-3.99-.185-6.996-3.798-6.786-7.723.236-4.404 4.233-7.713 8.572-7.455 4.817.286 8.43 4.667 8.125 9.42" transform="matrix(-.17345 -.5984 .61477 -.17233 51.772 54.522)"/>
        <path d="M11.696 12.393c.457.054.153.642-.089.759-.656.317-1.31-.328-1.428-.938-.211-1.09.757-2.003 1.785-2.098 1.509-.14 2.71 1.191 2.768 2.634.078 1.923-1.625 3.42-3.482 3.438-2.337.022-4.133-2.06-4.107-4.33.031-2.751 2.494-4.849 5.178-4.778 3.164.084 5.564 2.929 5.447 6.027-.135 3.577-3.363 6.28-6.875 6.116-3.99-.185-6.996-3.798-6.786-7.723.236-4.404 4.233-7.713 8.572-7.455 4.817.286 8.43 4.667 8.125 9.42" transform="matrix(.39336 -.13908 .15618 .38005 50.721 54.775)"/>
        <path d="M11.696 12.393c.457.054.153.642-.089.759-.656.317-1.31-.328-1.428-.938-.211-1.09.757-2.003 1.785-2.098 1.509-.14 2.71 1.191 2.768 2.634.078 1.923-1.625 3.42-3.482 3.438-2.337.022-4.133-2.06-4.107-4.33.031-2.751 2.494-4.849 5.178-4.778 3.164.084 5.564 2.929 5.447 6.027-.135 3.577-3.363 6.28-6.875 6.116-3.99-.185-6.996-3.798-6.786-7.723.236-4.404 4.233-7.713 8.572-7.455 4.817.286 8.43 4.667 8.125 9.42" transform="matrix(-.08653 -.30405 .30667 -.08756 57.053 10.856)"/>
        <path d="M11.696 12.393c.457.054.153.642-.089.759-.656.317-1.31-.328-1.428-.938-.211-1.09.757-2.003 1.785-2.098 1.509-.14 2.71 1.191 2.768 2.634.078 1.923-1.625 3.42-3.482 3.438-2.337.022-4.133-2.06-4.107-4.33.031-2.751 2.494-4.849 5.178-4.778 3.164.084 5.564 2.929 5.447 6.027-.135 3.577-3.363 6.28-6.875 6.116-3.99-.185-6.996-3.798-6.786-7.723.236-4.404 4.233-7.713 8.572-7.455 4.817.286 8.43 4.667 8.125 9.42" transform="matrix(-.17345 -.5984 .61477 -.17233 46.162 18.36)"/>
    </g>
</svg>
