<svg xmlns="http://www.w3.org/2000/svg" viewBox="0 0 64 64">
    <path fill="#ff8080" stroke="#231f20" stroke-miterlimit="10" stroke-width=".682" d="M43.282 18.061c-.715-2.166.765-6.941-1.058-7.123-2.293 1.518-4.872 2.789-4.872 2.789l4.18 4.35z"/>
    <path fill="#ff8080" stroke="#231f20" stroke-linecap="round" stroke-linejoin="round" stroke-miterlimit="10" stroke-width=".682" d="M59.345 33.977c-.295-.765-6.56-3.972-9.173-5.329-.644-.334.595-3.302-2.861-8.018-.679-.926-3.568-3.917-5.08-4.81-4.094-2.419-4.674-3.566-4.674-3.566s-.5 1.166-.407 1.925c-.332-.944-1.146-1.573-1.146-1.573s-.037 1.369-.407 1.998c-.444-.722-2.497-1.221-2.497-1.221s.5.592 1.757 1.425c-2.608-1.37-4.402-.444-4.402-.444s.63-.148 1.369.555c-4.698 0-10.616 3.478-10.616 3.478s.776.518 3.92-.222c-8.051 2.874-11.097 5.551-11.097 5.551s1.406.703 4.698-.666c-4.072 2.602-5.955 4.737-5.955 4.737s1.146-.222 3.18-.888c-6.399 4.07-7.064 5.708-7.064 5.708s1.48.127 3.736-.601c-1.851.802-4.772 3.552-4.772 3.552s1.997-.283 2.774.37c-2.663.494-5.993 2.85-5.993 2.85s2.393.108 4.317-.444c-1.998.814-3.304 3.244-3.304 3.244s2.844.63 8.568-.913c-3.108 1.258-4.957 2.701-4.957 2.701s3.108 1.333 8.952-.296c.666 1.796-2.737 3.627-2.737 3.627s4.535-1.612 7.398-2.368c-2.96 1.702-3.847 3.774-3.847 3.774s5.919.444 9.396-1.998c-2.59 2.368-2.664 5.107-2.664 5.107s5.144-.985 6.88-3.33c1.16 1.997-.024 4.12-.024 4.12s3.727-.272 4.834-4.047c.151 2.961 1.627 4.145 1.627 4.145s1.028-.011 1.99-3.49c.892 3.494 3.78 4.452 3.78 4.452s-.739-4.07-2.17-6.686c1.579 2.171 3.207 2.073 3.207 2.073-1.086-4.293-2.812-5.742-2.812-6.267 0-1.554 6.905-.444 10.358-.814.83-.09 1.701-.37 1.96-1.258 1.162-.432 2.258-1.788 2.664-3.035.63-.418 1.418-2.788 1.294-3.108z"/>
    <path fill="#231f20" d="M27.163 30.859c-.119.021-.613.25-.644.03-.029-.199.26-.534.374-.681a3.47 3.47 0 0 1 .615-.63c.98-.765 2.124-1.011 3.318-1.075a6.769 6.769 0 0 1-2.26-2.543c-.055-.105-.199-.318-.013-.387.12-.045.237.1.316.163.284.223.578.435.884.626.43.27.894.519 1.391.63-.682-.802-1.29-1.65-1.632-2.667a7.678 7.678 0 0 1-.24-.883c-.025-.12-.103-.37-.042-.483.049-.09.182-.09.23 0 .083.068.148.26.206.352a7.451 7.451 0 0 0 .734.978c.49.55 1.048.968 1.721 1.22-.53-1.019-1.078-2.146-1.145-3.296-.083-.74-.055-1.5.215-2.204.046-.119.256-.698.427-.686.14.01.036.643.034.747-.006.26-.1 1.467.234 1.634.123-1.24.5-2.353 1.22-3.393-.56.85-.891 1.762-1.088 2.751-.026.13.036 1.02-.255.644-.21-.28-.207-.741-.226-1.074-.017-.33-.014-.66-.004-.989-.46.73-.478 1.719-.373 2.547.053.778.378 1.587.7 2.29.149.327.312.64.483.955.043.08.196.274.102.365-.09.086-.357-.035-.457-.07-1.003-.356-1.816-1.176-2.408-2.07.231 1.017.811 2.066 1.47 2.808l.417.47c.052.059.146.133.173.212.093.264-.36.168-.47.147-.751-.138-1.466-.56-2.098-1.03a6.44 6.44 0 0 0 1.61 1.822c.21.158.435.28.66.411.104.106.083.26-.09.263-.216.002-.44-.011-.656.01-1.377.135-3.003.582-3.711 1.889.618-.165 1.299-.146 1.923-.056.26.038.512.089.768.153.144.036.556.075.334.285-.054.05-.18.074-.249.103-.179.074-.337.196-.498.301-.239.16-.455.362-.66.562a13.311 13.311 0 0 0-1.688 2.14 4.13 4.13 0 0 1 1.272-.137c.041.002.475.002.378.12-.007.044-.1.12-.128.155-.232.283-.444.63-.483 1.004-.114 1.106.506 2.128 1.307 2.855-.654-.566-1.344-1.467-1.394-2.377-.035-.649.175-1.121.548-1.618a5.358 5.358 0 0 0-1.003.037c-.106.016-.706.236-.74.103-.026-.105.181-.339.236-.424a14.527 14.527 0 0 1 .88-1.224c.53-.658 1.12-1.268 1.866-1.663a8.448 8.448 0 0 0-1.497-.2 4.159 4.159 0 0 0-.895.077zM33.152 36.783c.813-.999 1.938-1.694 3.027-2.352-.753.537-1.507 1.075-2.173 1.72-.331.321-.665.662-.911 1.056-.232.371-.55.926-.434 1.392.274-.23.552-.447.86-.633.234-.142.31.53.365.655a6.32 6.32 0 0 0 1.288 1.862c.17-.341.272-.718.296-1.097.03-.45.33-.027.426.123.375.586 1.012 1.07 1.584 1.488-.056-.23-.068-.48.034-.686.1-.205.162-.122.235.045.248.57.757 1.044 1.227 1.433-.535-.375-1.011-.817-1.335-1.382-.064.231-.037.463.051.698.081.214-.008.215-.123.161l-.002.002v-.003a1.773 1.773 0 0 1-.24-.148c-.21-.148-.415-.3-.614-.461a5.978 5.978 0 0 1-1.013-1.01 3.122 3.122 0 0 1-.133.611c-.04.12-.23.775-.45.57-.225-.092-.466-.479-.62-.66a6.385 6.385 0 0 1-.322-.42c-.32-.446-.52-.93-.669-1.448-.146.092-.29.189-.428.296-.113.087-.333.368-.488.357-.178-.012-.193-.367-.195-.494-.04-.629.378-1.21.756-1.675z"/>
    <path fill="#231f20" d="M31.702 36.288c.02-.082.168-.133.226-.17.493-.312.971-.646 1.435-1.001 1.242-.951 2.363-2.018 3.19-3.346-.528-.039-1.065.134-1.568.294-.346.11-.312-.143-.118-.327.297-.284.598-.568.904-.842l1.04-.929c.597-.534 1.222-1.135 1.917-1.566a7.576 7.576 0 0 0-.627-.079c-.208-.015-.415-.03-.624-.033-.122-.002-.384.054-.489-.025-.173-.131.171-.386.27-.47.616-.543 1.398-.83 2.175-1.061a.789.789 0 0 0-.13-.016 7.32 7.32 0 0 0-.607.03c-.405.035-.808.085-1.21.14-.395.053.001-.307.137-.405.112-.081.223-.152.344-.22.718-.425 1.555-.633 2.35-.859-.452.152-.902.302-1.345.479-.446.178-1.15.437-1.47.869.357-.062.716-.116 1.076-.156.354-.04.75-.105 1.104-.035.2.053.257.22.046.285l-.408.126c-.658.204-1.47.538-1.977 1.064.605-.002 1.199.071 1.798.164.256.04.04.247-.063.303-.25.137-.477.325-.7.502-.469.375-.925.769-1.37 1.172a292 292 0 0 0-1.616 1.474c.291-.079.587-.143.885-.17.164-.013.767.019.571.338-.297.484-.627.931-.992 1.366-.806.96-1.828 1.78-2.892 2.487.356-.16.712-.318 1.07-.473.364-.157.73-.313 1.099-.458.266-.106.757-.383 1.048-.308-.247-.051-.625.18-.846.275-.258.111-.515.226-.77.344-.577.267-1.15.546-1.72.827-.308.15-.614.303-.921.455-.012.005-.035.017-.063.027l-.034.02-.004-.007c-.071.02-.145.019-.12-.085z"/>
    <path stroke="#231f20" stroke-linecap="round" stroke-linejoin="round" stroke-miterlimit="10" stroke-width=".227" d="M58.596 33.305c.421.293.693.526.75.672.123.32-.665 2.69-1.295 3.108 0 0-2.152-.259-1.96-3.22.879-.616 2.505-.56 2.505-.56z"/>
    <path fill="#ff8080" d="M42.293 16.658c-.605-1.924-1.665-2.405-1.665-2.405s.098.382-.115 1.088c-.616-1.259-1.464-1.446-1.464-1.446s-.135.382.025.802c-.641-.716-.961-.925-.961-.925s.32 1.714 0 2.516z"/>
    <path fill="#231f20" d="M38.068 13.668c.148-.062.52.305.799.603-.024-.281.003-.568.211-.518.23-.004.525.246.692.38.29.233.5.52.687.83.04-.2.07-.398.06-.606-.026-.601.823.352.948.511.418.534.634 1.15.827 1.79-.337-.752-.76-1.748-1.514-2.192a2.76 2.76 0 0 1-.08.678c-.04.185-.157.523-.336.215-.28-.481-.658-1.067-1.209-1.276-.02.13-.018.263.005.39.011.108.127.31-.055.354-.146.035-.336-.253-.418-.339-.14-.147-.28-.29-.426-.431.09.749.1 1.513-.147 2.23.064-.315.095-.614.086-.938a9.34 9.34 0 0 0-.086-.94c-.018-.125-.2-.677-.044-.741z"/>
    <path fill="#ff8080" stroke="#231f20" stroke-linecap="round" stroke-linejoin="round" stroke-miterlimit="10" stroke-width=".682" d="M40.011 16.387c-1.01-1.036-.245-5.057-1.825-5.058-.838 0-5.006 6.513-4.685 8.364-.345.777.006 1.683.006 1.683s.056-.684.98-1.683c-.345 1.085-.049 2.368-.049 2.368s.493-.494.79-1.332c-.1.69.64 1.875.64 1.875s.007-1.129.247-1.086c.019.34.641 1.086.641 1.086s-.252-1.006 0-1.184"/>
    <path stroke="#231f20" stroke-linejoin="round" stroke-miterlimit="10" stroke-width=".227" d="M38.433 16.164c-.814-.493-.468-2.615-.468-2.615-1.367.445-2.59 8.068-.247 9.055 0 0-.771-.858-.697-2.578 0 0 .296-.426.63-.277.184-.427-.648-1.185-.648-1.185s.216-.068.87 0c-.525-.383-.519-1.758-.519-1.758s.192.617.759.851c-.444-.308-.352-1.795-.352-1.795z"/>
</svg>
