<svg version="1.1" viewBox="0 0 64 64" xmlns="http://www.w3.org/2000/svg" xmlns:xlink="http://www.w3.org/1999/xlink">
 <defs>
  <linearGradient id="linearGradient849" x1="114.29" x2="116.16" y1="39.977" y2="25.964" gradientTransform="matrix(.93207 0 0 .93207 -69.428 .913)" gradientUnits="userSpaceOnUse">
   <stop stop-color="#faa" offset="0"/>
   <stop stop-color="#ff8080" offset="1"/>
  </linearGradient>
 </defs>
 <path d="M32.475 22.831c-.796.024-1.592.1-2.388.237-1.595.276-3.643 1.622-5.269 2.92-5.777 4.611-11.145 8.037-19.193 4.719-1.412-.583-2.855 1.056-1.403 1.563 6.753 2.363 13.432 2.086 19.682-3.579 1.576 2.094 3.09 4.276 6.574 3.621-.836.875-1.11 1.642-1.402 2.478-.38 1.188 1.937 1.307 3.191 1.891l-.384 1.63c-.269.982 2.7 1.256 4.087 1.7l-.977.697-.146.592-2.165 2.372c.672 1.367.885 2.278 1.832 1.873.504-1.591.758-3.167 2.996-4.872l3.235.476.384-.973-2.33-.873 1.391-.716 1.398-2.28c2.779-.848 5.072-2.159 6.949-3.87l4.576-2.954 2.831-.375c.58.132.988.187 1.415.25l1.498-1.54-1.457-2.58c-.65-.535-1.26-.678-1.873-.874l-.582-.997-.417.624-.707-.375-.666.874c-1.354.535-2.752 1.471-4.036 1.372-5.534-.85-11.075-3.196-16.644-3.03zM35.2 32.41c1.34.737 2.762.74 4.178.793-.172 1.921-1.218 3.632-2.281 4.972-1.16-.382-1.588-.727-2.34-2.5-.113-.976.008-2.053.443-3.265z" fill="url(#linearGradient849)" fill-rule="evenodd" stroke="#000" stroke-width=".932"/>
 <ellipse cx="31.208" cy="24.528" rx="1.04" ry=".451" paint-order="stroke fill markers"/>
 <ellipse cx="33.451" cy="26.045" rx=".918" ry=".524" paint-order="stroke fill markers"/>
 <ellipse cx="29.067" cy="26.821" rx="1.06" ry=".56" paint-order="stroke fill markers"/>
 <ellipse cx="32.317" cy="28.272" rx="1.04" ry=".437" paint-order="stroke fill markers"/>
 <ellipse cx="34.56" cy="29.742" rx=".918" ry=".507" paint-order="stroke fill markers"/>
 <ellipse cx="30.176" cy="30.494" rx="1.06" ry=".542" paint-order="stroke fill markers"/>
 <ellipse transform="rotate(181.85)" cx="-40.816" cy="-30.397" rx="1.04" ry=".451" paint-order="stroke fill markers"/>
 <ellipse transform="rotate(181.85)" cx="-38.573" cy="-28.88" rx=".918" ry=".524" paint-order="stroke fill markers"/>
 <ellipse transform="rotate(181.85)" cx="-43.063" cy="-27.517" rx="1.06" ry=".56" paint-order="stroke fill markers"/>
 <ellipse transform="rotate(181.85)" cx="-39.707" cy="-26.653" rx="1.04" ry=".437" paint-order="stroke fill markers"/>
 <ellipse transform="rotate(181.85)" cx="-37.464" cy="-25.183" rx=".918" ry=".507" paint-order="stroke fill markers"/>
 <ellipse transform="rotate(181.85)" cx="-41.848" cy="-24.43" rx="1.06" ry=".542" paint-order="stroke fill markers"/>
 <ellipse transform="rotate(181.85)" cx="-36.37" cy="-23.412" rx=".918" ry=".507" paint-order="stroke fill markers"/>
 <ellipse transform="rotate(174.61)" cx="-41.592" cy="-37.069" rx="1.04" ry=".451" paint-order="stroke fill markers"/>
 <ellipse transform="rotate(174.61)" cx="-40.255" cy="-35.261" rx=".918" ry=".524" paint-order="stroke fill markers"/>
 <ellipse transform="rotate(174.61)" cx="-43.093" cy="-33.587" rx="1.06" ry=".56" paint-order="stroke fill markers"/>
 <ellipse transform="rotate(174.61)" cx="-46.157" cy="-32.104" rx="1.04" ry=".437" paint-order="stroke fill markers"/>
 <ellipse transform="rotate(174.61)" cx="-42.587" cy="-31.057" rx="1.06" ry=".542" paint-order="stroke fill markers"/>
</svg>
