<?xml version="1.0" encoding="UTF-8" standalone="no"?>
<!-- Created with Inkscape (http://www.inkscape.org/) -->

<svg
   xmlns:dc="http://purl.org/dc/elements/1.1/"
   xmlns:cc="http://creativecommons.org/ns#"
   xmlns:rdf="http://www.w3.org/1999/02/22-rdf-syntax-ns#"
   xmlns:svg="http://www.w3.org/2000/svg"
   xmlns="http://www.w3.org/2000/svg"
   xmlns:sodipodi="http://sodipodi.sourceforge.net/DTD/sodipodi-0.dtd"
   xmlns:inkscape="http://www.inkscape.org/namespaces/inkscape"
   width="100%"
   height="100%"
   viewBox="0 0 64.000001 64.000001"
   id="svg4311"
   version="1.1"
   inkscape:version="0.92.3 (2405546, 2018-03-11)"
   sodipodi:docname="raceHorseMorphZebra.svg">
  <defs
     id="defs4313">
    <inkscape:path-effect
       effect="powerstroke"
       id="path-effect4155"
       is_visible="true"
       offset_points="0.92799346,1.2886104"
       sort_points="true"
       interpolator_type="Linear"
       interpolator_beta="0.2"
       start_linecap_type="zerowidth"
       linejoin_type="round"
       miter_limit="4"
       end_linecap_type="zerowidth"
       cusp_linecap_type="round" />
    <inkscape:path-effect
       effect="powerstroke"
       id="path-effect4151"
       is_visible="true"
       offset_points="0,0.5"
       sort_points="true"
       interpolator_type="CubicBezierJohan"
       interpolator_beta="0.2"
       start_linecap_type="zerowidth"
       linejoin_type="round"
       miter_limit="4"
       end_linecap_type="zerowidth"
       cusp_linecap_type="round" />
    <inkscape:path-effect
       effect="powerstroke"
       id="path-effect4147"
       is_visible="true"
       offset_points="0,0.5"
       sort_points="true"
       interpolator_type="CubicBezierJohan"
       interpolator_beta="0.2"
       start_linecap_type="zerowidth"
       linejoin_type="round"
       miter_limit="4"
       end_linecap_type="zerowidth"
       cusp_linecap_type="round" />
    <inkscape:path-effect
       effect="powerstroke"
       id="path-effect4183"
       is_visible="true"
       offset_points="0.238227,0.51804536"
       sort_points="true"
       interpolator_type="Linear"
       interpolator_beta="0.2"
       start_linecap_type="zerowidth"
       linejoin_type="round"
       miter_limit="4"
       end_linecap_type="zerowidth"
       cusp_linecap_type="round" />
  </defs>
  <sodipodi:namedview
     id="base"
     pagecolor="#ffffff"
     bordercolor="#666666"
     borderopacity="1.0"
     inkscape:pageopacity="0.0"
     inkscape:pageshadow="2"
     inkscape:zoom="0.9899495"
     inkscape:cx="491.63215"
     inkscape:cy="243.52777"
     inkscape:document-units="px"
     inkscape:current-layer="layer5"
     showgrid="false"
     units="px"
     inkscape:window-width="2560"
     inkscape:window-height="1388"
     inkscape:window-x="-8"
     inkscape:window-y="-8"
     inkscape:window-maximized="1" />
  <metadata
     id="metadata4316">
    <rdf:RDF>
      <cc:Work
         rdf:about="">
        <dc:format>image/svg+xml</dc:format>
        <dc:type
           rdf:resource="http://purl.org/dc/dcmitype/StillImage" />
        <dc:title />
      </cc:Work>
    </rdf:RDF>
  </metadata>
  <g
     inkscape:groupmode="layer"
     id="layer5"
     inkscape:label="Stage5"
     style="display:inline;opacity:1">
    <ellipse
       style="color:#000000;clip-rule:nonzero;display:inline;overflow:visible;visibility:visible;opacity:1;isolation:auto;mix-blend-mode:normal;color-interpolation:sRGB;color-interpolation-filters:linearRGB;solid-color:#000000;solid-opacity:1;fill:#f9f9f9;fill-opacity:1;fill-rule:evenodd;stroke:none;stroke-width:2;stroke-linecap:butt;stroke-linejoin:miter;stroke-miterlimit:4;stroke-dasharray:none;stroke-dashoffset:0;stroke-opacity:1;color-rendering:auto;image-rendering:auto;shape-rendering:auto;text-rendering:auto;enable-background:accumulate"
       id="path4184"
       cx="31.97764"
       cy="31.89609"
       rx="29.831066"
       ry="29.831068" />
    <path
       style="fill:#4d4d4d;fill-rule:evenodd;stroke:#4d4d4d;stroke-width:1px;stroke-linecap:butt;stroke-linejoin:miter;stroke-opacity:1"
       d="M 36.500836,60.439076 C 36.320672,52.1253 38.551198,37.087504 38.789908,24.175807 38.946366,15.713097 36.623365,8.9130464 37.877804,2.9005199 c 0.124878,-0.5985352 2.242317,0.075728 2.242317,0.075728 -1.638913,6.6508032 0.520936,13.1266471 0.465453,20.7316731 -0.100962,13.839016 -0.829229,28.680733 2.358534,35.747942 -2.262791,0.950411 -4.521271,1.877482 -6.443272,0.983213 z"
       id="path837"
       inkscape:connector-curvature="0"
       sodipodi:nodetypes="csccscc" />
    <path
       style="display:inline;opacity:1;fill:#4d4d4d;fill-rule:evenodd;stroke:#4d4d4d;stroke-width:1px;stroke-linecap:butt;stroke-linejoin:miter;stroke-opacity:1"
       d="M 28.3198,61.576109 C 28.193171,55.73278 31.708891,45.295623 31.709522,35.914405 31.710378,23.19991 28.403032,11.074051 30.226194,2.3356351 c 0.124878,-0.5985352 2.242317,0.075728 2.242317,0.075728 -1.261817,8.9600939 0.718515,21.2257709 0.60286,33.1011059 -0.103761,10.654236 -2.512208,21.133404 -0.176295,26.312082 -1.999825,0.345993 -3.046436,0.230768 -4.575276,-0.248442 z"
       id="path837-8"
       inkscape:connector-curvature="0"
       sodipodi:nodetypes="csccscc" />
    <path
       style="display:inline;opacity:1;fill:#4d4d4d;fill-rule:evenodd;stroke:#4d4d4d;stroke-width:1px;stroke-linecap:butt;stroke-linejoin:miter;stroke-opacity:1"
       d="M 18.712709,58.662515 C 18.550736,51.188201 22.052064,39.001889 22.734167,28.109566 23.30806,18.945245 20.908481,11.053638 22.356173,4.1148495 22.48105,3.5163143 24.916623,3.7281716 25.050352,3.167145 c -1.377451,7.395063 0.370075,16.007525 -0.544791,25.264337 -1.222805,12.372621 -4.647957,25.259622 -2.09195,31.807095 0,0 -1.778901,-0.681791 -3.700902,-1.576062 z"
       id="path837-4"
       inkscape:connector-curvature="0"
       sodipodi:nodetypes="csccscc" />
    <path
       style="display:inline;opacity:1;fill:#4d4d4d;fill-rule:evenodd;stroke:#4d4d4d;stroke-width:1px;stroke-linecap:butt;stroke-linejoin:miter;stroke-opacity:1"
       d="m 11.065622,52.941587 c -0.29825,-13.762873 1.836496,-37.5494 -1.3927155,-40.865244 0.061112,-0.29291 1.6162035,-1.595777 1.6162035,-1.595777 0.448248,0.244877 1.572928,11.72539 1.572928,11.72539 0,0 3.812295,-15.5982654 3.984046,-15.7448211 1.062286,-0.9064524 1.851711,-0.9406066 1.891525,-1.1076319 -3.550313,15.929885 -8.9556638,35.81389 -5.097936,49.616932 z"
       id="path837-1"
       inkscape:connector-curvature="0"
       sodipodi:nodetypes="cccccccc" />
    <path
       style="display:inline;opacity:1;fill:#4d4d4d;fill-rule:evenodd;stroke:#4d4d4d;stroke-width:0.83933139px;stroke-linecap:butt;stroke-linejoin:miter;stroke-opacity:1"
       d="M 47.19843,57.312241 C 46.81292,52.694414 45.071783,45.686477 44.61817,37.818836 44.317915,32.611086 46.269763,26.668702 46.769464,21.375741 47.389981,14.803053 45.244929,9.5819366 45.878551,5.4530253 c 0.07547,-0.491773 2.057468,0.8820958 2.057468,0.8820958 -0.384566,4.6337779 1.631667,8.5301159 0.752052,15.1140739 -0.653124,4.888662 -2.941567,11.864144 -2.64689,16.286108 0.509701,7.64869 3.130148,13.392378 5.148508,17.366989 -1.681281,0.18565 -2.519753,2.316217 -3.991259,2.209949 z"
       id="path837-8-7"
       inkscape:connector-curvature="0"
       sodipodi:nodetypes="cssccsscc" />
    <path
       style="display:inline;opacity:1;fill:#4d4d4d;fill-rule:evenodd;stroke:#4d4d4d;stroke-width:1px;stroke-linecap:butt;stroke-linejoin:miter;stroke-opacity:1"
       d="M 56.700929,14.937686 C 57.0284,22.23732 54.701405,20.38312 54.598802,28.0072 c -0.0907,6.739438 4.405426,12.279477 5.956218,13.799776 -0.05431,0.294247 -1.578808,1.632784 -1.578808,1.632784 -0.4538,-0.234429 -3.864395,-7.140125 -3.864395,-7.140125 0,0 -0.545797,15.051036 -0.714107,15.20153 0,0 -1.829428,0.983244 -1.865363,1.151146 1.454728,-7.322065 -1.191045,-16.764805 -0.02575,-25.003585 1.382331,-9.773231 3.334994,-8.440307 1.0689,-15.87928 z"
       id="path837-1-5"
       inkscape:connector-curvature="0"
       sodipodi:nodetypes="cscccccscc" />
    <path
       style="display:inline;opacity:1;fill:#4d4d4d;fill-rule:evenodd;stroke:#4d4d4d;stroke-width:0.58232874px;stroke-linecap:butt;stroke-linejoin:miter;stroke-opacity:1"
       d="M 4.2640168,43.734337 C 4.1525602,40.050975 6.5618896,34.803142 7.0312574,29.435376 7.4261639,24.919175 4.7648161,21.030169 5.7610001,17.610716 c 0.08593,-0.29496 1.8881626,-2.400265 1.980184,-2.67674 -0.9478498,3.644306 1.1385391,10.09826 0.5090027,14.660041 -0.8414351,6.097261 -2.6301355,15.66787 -0.8712992,18.894482 0,0 -1.7923059,-4.313463 -3.1148708,-4.754162 z"
       id="path837-4-1"
       inkscape:connector-curvature="0"
       sodipodi:nodetypes="csccscc" />
    <path
       style="fill:#333333;fill-rule:evenodd;stroke:#000000;stroke-width:0.99999988px;stroke-linecap:butt;stroke-linejoin:miter;stroke-opacity:1"
       d="m 20.683883,45.889265 c -2.609792,0.656621 -4.39304,1.407085 -8.445383,2.228895 -0.381865,-1.209028 -0.861333,-3.521892 -1.014813,-5.078087 1.295961,-1.157817 2.587578,-1.2917 2.617296,-2.121603 0.829065,-23.152824 7.971319,-30.682099 17.854234,-30.88529 11.46562,-0.235731 17.83853,7.093102 18.649467,30.483503 0.03047,0.878697 2.553932,1.140175 3.986329,2.608088 -0.265266,1.472212 -1.530739,3.302445 -2.122184,4.889393 C 49.502993,47.221672 48.301547,46.687303 44.846077,45.912086 44.579877,35.546679 45.404992,15.327024 31.35283,15.659823 20.031928,15.927937 20.212898,39.368509 20.683883,45.889265 Z"
       id="path4172"
       inkscape:connector-curvature="0"
       sodipodi:nodetypes="cccssscccsc" />
    <ellipse
       style="color:#000000;clip-rule:nonzero;display:inline;overflow:visible;visibility:visible;opacity:1;isolation:auto;mix-blend-mode:normal;color-interpolation:sRGB;color-interpolation-filters:linearRGB;solid-color:#000000;solid-opacity:1;fill:#000000;fill-opacity:1;fill-rule:evenodd;stroke:none;stroke-width:1px;stroke-linecap:butt;stroke-linejoin:miter;stroke-miterlimit:4;stroke-dasharray:none;stroke-dashoffset:0;stroke-opacity:1;color-rendering:auto;image-rendering:auto;shape-rendering:auto;text-rendering:auto;enable-background:accumulate"
       id="path4151"
       cx="-28.118965"
       cy="25.26248"
       rx="0.80524224"
       ry="1.0610498"
       transform="matrix(0.24684807,-0.96905419,0.96195306,0.27321476,0,0)" />
    <ellipse
       style="color:#000000;clip-rule:nonzero;display:inline;overflow:visible;visibility:visible;opacity:1;isolation:auto;mix-blend-mode:normal;color-interpolation:sRGB;color-interpolation-filters:linearRGB;solid-color:#000000;solid-opacity:1;fill:#000000;fill-opacity:1;fill-rule:evenodd;stroke:none;stroke-width:1px;stroke-linecap:butt;stroke-linejoin:miter;stroke-miterlimit:4;stroke-dasharray:none;stroke-dashoffset:0;stroke-opacity:1;color-rendering:auto;image-rendering:auto;shape-rendering:auto;text-rendering:auto;enable-background:accumulate"
       id="path4151-2"
       cx="-21.598497"
       cy="24.608595"
       rx="0.80524224"
       ry="1.0610498"
       transform="matrix(0.24684807,-0.96905419,0.96195306,0.27321476,0,0)" />
    <ellipse
       style="color:#000000;clip-rule:nonzero;display:inline;overflow:visible;visibility:visible;opacity:1;isolation:auto;mix-blend-mode:normal;color-interpolation:sRGB;color-interpolation-filters:linearRGB;solid-color:#000000;solid-opacity:1;fill:#000000;fill-opacity:1;fill-rule:evenodd;stroke:none;stroke-width:1px;stroke-linecap:butt;stroke-linejoin:miter;stroke-miterlimit:4;stroke-dasharray:none;stroke-dashoffset:0;stroke-opacity:1;color-rendering:auto;image-rendering:auto;shape-rendering:auto;text-rendering:auto;enable-background:accumulate"
       id="path4151-3"
       cx="-16.086523"
       cy="24.748045"
       rx="0.80524224"
       ry="1.0610498"
       transform="matrix(0.24684807,-0.96905419,0.96195306,0.27321476,0,0)" />
    <ellipse
       style="color:#000000;clip-rule:nonzero;display:inline;overflow:visible;visibility:visible;opacity:1;isolation:auto;mix-blend-mode:normal;color-interpolation:sRGB;color-interpolation-filters:linearRGB;solid-color:#000000;solid-opacity:1;fill:#000000;fill-opacity:1;fill-rule:evenodd;stroke:none;stroke-width:1px;stroke-linecap:butt;stroke-linejoin:miter;stroke-miterlimit:4;stroke-dasharray:none;stroke-dashoffset:0;stroke-opacity:1;color-rendering:auto;image-rendering:auto;shape-rendering:auto;text-rendering:auto;enable-background:accumulate"
       id="path4151-7"
       cx="-11.240751"
       cy="25.99078"
       rx="0.80524224"
       ry="1.0610498"
       transform="matrix(0.24684807,-0.96905419,0.96195306,0.27321476,0,0)" />
    <ellipse
       style="color:#000000;clip-rule:nonzero;display:inline;overflow:visible;visibility:visible;opacity:1;isolation:auto;mix-blend-mode:normal;color-interpolation:sRGB;color-interpolation-filters:linearRGB;solid-color:#000000;solid-opacity:1;fill:#000000;fill-opacity:1;fill-rule:evenodd;stroke:none;stroke-width:1px;stroke-linecap:butt;stroke-linejoin:miter;stroke-miterlimit:4;stroke-dasharray:none;stroke-dashoffset:0;stroke-opacity:1;color-rendering:auto;image-rendering:auto;shape-rendering:auto;text-rendering:auto;enable-background:accumulate"
       id="path4151-9"
       cx="29.364613"
       cy="-35.981674"
       rx="0.80472124"
       ry="1.0618036"
       transform="matrix(0.26884635,0.96318308,-0.95482798,0.29715911,0,0)" />
    <ellipse
       style="color:#000000;clip-rule:nonzero;display:inline;overflow:visible;visibility:visible;opacity:1;isolation:auto;mix-blend-mode:normal;color-interpolation:sRGB;color-interpolation-filters:linearRGB;solid-color:#000000;solid-opacity:1;fill:#000000;fill-opacity:1;fill-rule:evenodd;stroke:none;stroke-width:1px;stroke-linecap:butt;stroke-linejoin:miter;stroke-miterlimit:4;stroke-dasharray:none;stroke-dashoffset:0;stroke-opacity:1;color-rendering:auto;image-rendering:auto;shape-rendering:auto;text-rendering:auto;enable-background:accumulate"
       id="path4151-2-9"
       cx="34.607384"
       cy="-37.182449"
       rx="0.80472124"
       ry="1.0618036"
       transform="matrix(0.26884635,0.96318308,-0.95482798,0.29715911,0,0)" />
    <ellipse
       style="color:#000000;clip-rule:nonzero;display:inline;overflow:visible;visibility:visible;opacity:1;isolation:auto;mix-blend-mode:normal;color-interpolation:sRGB;color-interpolation-filters:linearRGB;solid-color:#000000;solid-opacity:1;fill:#000000;fill-opacity:1;fill-rule:evenodd;stroke:none;stroke-width:1px;stroke-linecap:butt;stroke-linejoin:miter;stroke-miterlimit:4;stroke-dasharray:none;stroke-dashoffset:0;stroke-opacity:1;color-rendering:auto;image-rendering:auto;shape-rendering:auto;text-rendering:auto;enable-background:accumulate"
       id="path4151-3-6"
       cx="40.868069"
       cy="-37.14418"
       rx="0.80472124"
       ry="1.0618036"
       transform="matrix(0.26884635,0.96318308,-0.95482798,0.29715911,0,0)" />
    <ellipse
       style="color:#000000;clip-rule:nonzero;display:inline;overflow:visible;visibility:visible;opacity:1;isolation:auto;mix-blend-mode:normal;color-interpolation:sRGB;color-interpolation-filters:linearRGB;solid-color:#000000;solid-opacity:1;fill:#000000;fill-opacity:1;fill-rule:evenodd;stroke:none;stroke-width:1px;stroke-linecap:butt;stroke-linejoin:miter;stroke-miterlimit:4;stroke-dasharray:none;stroke-dashoffset:0;stroke-opacity:1;color-rendering:auto;image-rendering:auto;shape-rendering:auto;text-rendering:auto;enable-background:accumulate"
       id="path4151-7-0"
       cx="46.739761"
       cy="-36.049152"
       rx="0.80472124"
       ry="1.0618036"
       transform="matrix(0.26884635,0.96318308,-0.95482798,0.29715911,0,0)" />
    <ellipse
       ry="29.831068"
       rx="29.831066"
       cy="31.89609"
       cx="31.97764"
       id="ellipse923"
       style="color:#000000;clip-rule:nonzero;display:inline;overflow:visible;visibility:visible;opacity:1;isolation:auto;mix-blend-mode:normal;color-interpolation:sRGB;color-interpolation-filters:linearRGB;solid-color:#000000;solid-opacity:1;fill:none;fill-opacity:1;fill-rule:evenodd;stroke:#000000;stroke-width:2;stroke-linecap:butt;stroke-linejoin:miter;stroke-miterlimit:4;stroke-dasharray:none;stroke-dashoffset:0;stroke-opacity:1;color-rendering:auto;image-rendering:auto;shape-rendering:auto;text-rendering:auto;enable-background:accumulate" />
  </g>
</svg>
