<svg xmlns="http://www.w3.org/2000/svg" viewBox="0 0 64 64">
    <g fill="#ff8080" fill-rule="evenodd" stroke="#000">
        <path d="M17.146 36.774C11.3 38.915 8.89 26.44 11.36 24.257c.204-2.127.636-3.386.636-3.386s1.4.95 2.604 2.142c3.336-.241 7.838 11.823 2.546 13.761zM22.27 51.737c-2.663-.203-4.374-2.82-4.415-4.418-.131-5.097 2.97-5.752 6.118-9.735 2.483-3.143 4.553-6.885 7.893-7.142 4.866-.374 6.362 3.053 8.455 6.555 1.672 2.797 4.393 4.43 5.016 6.236.955 2.767-.235 7.828-3.478 8.467-2.64.52-4.875-4.975-8.027-5.496-2.632-.435-8.867 5.74-11.562 5.533zM27.381 27.39c-5.857 1.183-6.416-11.552-3.763-13.317.49-2.073 1.075-3.25 1.075-3.25s1.199 1.165 2.179 2.537c3.205.296 5.81 12.96.51 14.03zM39.721 27.741c-5.284-1.724-1.643-13.637 1.147-13.98 1.078-1.66 1.948-2.457 1.948-2.457s.628 1.64 1.006 3.364c2.587 1.806.682 14.633-4.1 13.073zM47.778 38.217c-4.52-3.68 1.871-13.914 4.572-13.192 1.426-1.211 2.44-1.658 2.44-1.658s.178 1.836.1 3.66c1.974 2.739-3.02 14.52-7.112 11.19z"/>
    </g>
</svg>
