<svg xmlns="http://www.w3.org/2000/svg" viewBox="0 0 64 64">
    <g fill="#ff8080" fill-rule="evenodd" stroke="#000">
        <path d="M27.907 16.75c-6.399 1.58-14.273 7.41-14.613 12.535-.142 2.14 3.312 7.96 9.26 8.318 10.65.64 8.486 5.83 8.861 8.438 11.1.865 16.429-6.678 19.044-10.568-6.13-4.578-3.978-12.977-10.79-17.201-4.02-2.493-7.7-2.525-11.762-1.522zm-1.975 5.418a2.557 2.557 0 1 1 .002 5.114 2.557 2.557 0 0 1-.002-5.114z"/>
        <path d="M33.126 16.117c-.029.176.473-.267.435-.08-2.08 10.071-18.745 35.93-1.07 36.921 21.802 1.224 9.533-24.304 8.846-33.002-.024-.312.256.514.263.247 1.408-2.193-8.644-6.842-8.474-4.086z"/>
    </g>
</svg>
