<svg xmlns="http://www.w3.org/2000/svg" viewBox="0 0 64 64">
    <g fill-rule="evenodd" stroke="#000">
        <g stroke-width=".5">
            <path fill="#ff8080" stroke-width=".32805" d="M49.098 20.782c-1.61-6.845-12.538-10.111-15.993-4.168-3.8 6.536.013 14.015-3.203 20.58-1.39 2.833-3.53 4.458-6.443 4.56 4.038 1.488 11.132 3.053 14.867-2.406 4.855-7.094 1.638-12.5 4.965-18.407 1.578-2.802 3.953-1.122 5.807-.159z"/>
            <path fill="#ffd5d5" stroke-width=".32805" d="M40.117 23.115c1.198-3.005 2.996-6.202 5.962-4.923-3.742-3.838-7.943-4.348-10.882-1.069 1.199-.277 2.297-.432 3.06-.176-.32 1.266-.688 2.065-1.046 2.96.89-.14 1.778-.28 2.628-.803-.038 1.377.175 2.677.278 4.011z"/>
        </g>
        <path fill="#faa" stroke-width=".328" d="M37.894 22.402c-2.66-6.509-13.965-8.026-16.448-1.615-2.73 7.05 2.205 13.84.054 20.826-.928 3.017-2.788 4.956-5.65 5.513 4.221.838 11.473 1.275 14.309-4.702 3.685-7.766-.338-12.601 2.024-18.957 1.12-3.014 3.729-1.726 5.711-1.065z"/>
        <path fill="#ffd5d5" stroke-width=".328" d="M29.389 26.111c.713-3.155 1.988-6.595 5.118-5.795-4.297-3.205-8.525-3.052-10.915.646 1.14-.461 2.201-.786 2.995-.652-.119 1.3-.357 2.147-.57 3.086.856-.277 1.711-.554 2.47-1.203.177 1.366.591 2.617.902 3.918z"/>
        <path fill="#faa" stroke-width=".328" d="M46.289 34.44c.437-7.018-9.08-13.304-14.106-8.612-5.527 5.158-4.039 13.42-9.015 18.774-2.15 2.312-4.668 3.248-7.487 2.504 3.436 2.591 9.775 6.14 14.929 1.994 6.698-5.388 5.18-11.492 10.073-16.186 2.32-2.227 4.109.068 5.606 1.526z"/>
        <path fill="#ffd5d5" stroke-width=".328" d="M37.017 34.078c2.015-2.53 4.66-5.072 7.13-2.99-2.474-4.756-6.347-6.459-10.108-4.169 1.227.081 2.323.25 2.98.717-.673 1.119-1.256 1.777-1.857 2.53.891.123 1.783.246 2.748-.008-.435 1.307-.606 2.613-.893 3.92z"/>
    </g>
</svg>
