<svg version="1.1" viewBox="0 0 64 64" xmlns="http://www.w3.org/2000/svg">
 <g stroke="#000" stroke-linecap="round" stroke-linejoin="round">
  <path d="m7.3658 23.784c-0.62992 1.6198-8.7135-5.6336-6.2405-9.45 0.92332-1.4248 3.6651-0.87268 4.5264-2.3358 0.75074-1.2753 0.13193-3.4742-0.1345-4.4376-0.73101-2.6434 0.65318-5.0395 2.9988 0.020153 0.42043 0.9069 1.9082 4.9469 0.72149 6.9516-0.90091 1.5219-3.7725 0.68754-4.8901 2.0582-1.3771 1.6888 4.8981 4.4463 4.8981 4.4463z" fill="#ffd42a" stroke-width=".57881"/>
  <g fill="#fea" stroke-width=".25">
   <ellipse transform="rotate(51.394)" cx="11.81" cy="-.088561" rx="1.0471" ry=".97124"/>
   <ellipse transform="rotate(51.394)" cx="15.086" cy="2.7647" rx="1.0471" ry=".97124"/>
   <ellipse transform="rotate(51.394)" cx="13.747" cy="7.1193" rx="1.0471" ry=".97124"/>
   <ellipse transform="rotate(51.394)" cx="17.337" cy="9.2414" rx="1.0471" ry=".97124"/>
  </g>
 </g>
 <g transform="matrix(.0072521 .99997 .99997 -.0072521 -.15892 .38403)" stroke="#000" stroke-linecap="round" stroke-linejoin="round">
  <path d="m14.176 18.745s-2.2659-5.5826-4.6078-7.2115c-1.3938-0.96948-3.7659 0.11082-4.9782-1.0779-1.0567-1.0361-1.0312-3.3202-1.0246-4.3198 0.01816-2.7426-1.9417-4.696-2.8903 0.79958-0.17002 0.98504-0.55562 5.273 1.1118 6.9 1.2658 1.2351 3.8215-0.31754 5.2572 0.71513 1.769 1.2724 2.8958 5.8609 2.8958 5.8609z" fill="#ffd42a" stroke-width=".57881"/>
  <g fill="#fea" stroke-width=".25">
   <ellipse transform="matrix(-.39918 .91687 .91687 .39918 0 0)" cx="6.2015" cy="4.9859" rx="1.0471" ry=".97124"/>
   <ellipse transform="matrix(-.39918 .91687 .91687 .39918 0 0)" cx="9.3503" cy="7.347" rx="1.0471" ry=".97124"/>
   <ellipse transform="matrix(-.39918 .91687 .91687 .39918 0 0)" cx="8.8418" cy="11.584" rx="1.0471" ry=".97124"/>
   <ellipse transform="matrix(-.39918 .91687 .91687 .39918 0 0)" cx="9.7231" cy="15.144" rx="1.0471" ry=".97124"/>
  </g>
 </g>
 <g transform="rotate(-90 31.897 32.047)" stroke="#000" stroke-linecap="round" stroke-linejoin="round">
  <path d="m7.3658 23.784c-0.62992 1.6198-8.7135-5.6336-6.2405-9.45 0.92332-1.4248 3.6651-0.87268 4.5264-2.3358 0.75074-1.2753 0.13193-3.4742-0.1345-4.4376-0.73101-2.6434 0.65318-5.0395 2.9988 0.020153 0.42043 0.9069 1.9082 4.9469 0.72149 6.9516-0.90091 1.5219-3.7725 0.68754-4.8901 2.0582-1.3771 1.6888 4.8981 4.4463 4.8981 4.4463z" fill="#ffd42a" stroke-width=".57881"/>
  <g fill="#fea" stroke-width=".25">
   <ellipse transform="rotate(51.394)" cx="11.81" cy="-.088561" rx="1.0471" ry=".97124"/>
   <ellipse transform="rotate(51.394)" cx="15.086" cy="2.7647" rx="1.0471" ry=".97124"/>
   <ellipse transform="rotate(51.394)" cx="13.747" cy="7.1193" rx="1.0471" ry=".97124"/>
   <ellipse transform="rotate(51.394)" cx="17.337" cy="9.2414" rx="1.0471" ry=".97124"/>
  </g>
 </g>
 <g transform="matrix(.99997 -.0072521 -.0072521 -.99997 .23385 64.103)" stroke="#000" stroke-linecap="round" stroke-linejoin="round">
  <path d="m14.176 18.745s-2.2659-5.5826-4.6078-7.2115c-1.3938-0.96948-3.7659 0.11082-4.9782-1.0779-1.0567-1.0361-1.0312-3.3202-1.0246-4.3198 0.01816-2.7426-1.9417-4.696-2.8903 0.79958-0.17002 0.98504-0.55562 5.273 1.1118 6.9 1.2658 1.2351 3.8215-0.31754 5.2572 0.71513 1.769 1.2724 2.8958 5.8609 2.8958 5.8609z" fill="#ffd42a" stroke-width=".57881"/>
  <g fill="#fea" stroke-width=".25">
   <ellipse transform="matrix(-.39918 .91687 .91687 .39918 0 0)" cx="6.2015" cy="4.9859" rx="1.0471" ry=".97124"/>
   <ellipse transform="matrix(-.39918 .91687 .91687 .39918 0 0)" cx="9.3503" cy="7.347" rx="1.0471" ry=".97124"/>
   <ellipse transform="matrix(-.39918 .91687 .91687 .39918 0 0)" cx="8.8418" cy="11.584" rx="1.0471" ry=".97124"/>
   <ellipse transform="matrix(-.39918 .91687 .91687 .39918 0 0)" cx="9.7231" cy="15.144" rx="1.0471" ry=".97124"/>
  </g>
 </g>
 <g transform="rotate(180 31.923 32.017)" stroke="#000" stroke-linecap="round" stroke-linejoin="round">
  <path d="m7.3658 23.784c-0.62992 1.6198-8.7135-5.6336-6.2405-9.45 0.92332-1.4248 3.6651-0.87268 4.5264-2.3358 0.75074-1.2753 0.13193-3.4742-0.1345-4.4376-0.73101-2.6434 0.65318-5.0395 2.9988 0.020153 0.42043 0.9069 1.9082 4.9469 0.72149 6.9516-0.90091 1.5219-3.7725 0.68754-4.8901 2.0582-1.3771 1.6888 4.8981 4.4463 4.8981 4.4463z" fill="#ffd42a" stroke-width=".57881"/>
  <g fill="#fea" stroke-width=".25">
   <ellipse transform="rotate(51.394)" cx="11.81" cy="-.088561" rx="1.0471" ry=".97124"/>
   <ellipse transform="rotate(51.394)" cx="15.086" cy="2.7647" rx="1.0471" ry=".97124"/>
   <ellipse transform="rotate(51.394)" cx="13.747" cy="7.1193" rx="1.0471" ry=".97124"/>
   <ellipse transform="rotate(51.394)" cx="17.337" cy="9.2414" rx="1.0471" ry=".97124"/>
  </g>
 </g>
 <g transform="matrix(-.0072521 -.99997 -.99997 .0072521 64.004 63.65)" stroke="#000" stroke-linecap="round" stroke-linejoin="round">
  <path d="m14.176 18.745s-2.2659-5.5826-4.6078-7.2115c-1.3938-0.96948-3.7659 0.11082-4.9782-1.0779-1.0567-1.0361-1.0312-3.3202-1.0246-4.3198 0.01816-2.7426-1.9417-4.696-2.8903 0.79958-0.17002 0.98504-0.55562 5.273 1.1118 6.9 1.2658 1.2351 3.8215-0.31754 5.2572 0.71513 1.769 1.2724 2.8958 5.8609 2.8958 5.8609z" fill="#ffd42a" stroke-width=".57881"/>
  <g fill="#fea" stroke-width=".25">
   <ellipse transform="matrix(-.39918 .91687 .91687 .39918 0 0)" cx="6.2015" cy="4.9859" rx="1.0471" ry=".97124"/>
   <ellipse transform="matrix(-.39918 .91687 .91687 .39918 0 0)" cx="9.3503" cy="7.347" rx="1.0471" ry=".97124"/>
   <ellipse transform="matrix(-.39918 .91687 .91687 .39918 0 0)" cx="8.8418" cy="11.584" rx="1.0471" ry=".97124"/>
   <ellipse transform="matrix(-.39918 .91687 .91687 .39918 0 0)" cx="9.7231" cy="15.144" rx="1.0471" ry=".97124"/>
  </g>
 </g>
 <g transform="rotate(90 31.953 32.042)" stroke="#000" stroke-linecap="round" stroke-linejoin="round">
  <path d="m7.3658 23.784c-0.62992 1.6198-8.7135-5.6336-6.2405-9.45 0.92332-1.4248 3.6651-0.87268 4.5264-2.3358 0.75074-1.2753 0.13193-3.4742-0.1345-4.4376-0.73101-2.6434 0.65318-5.0395 2.9988 0.020153 0.42043 0.9069 1.9082 4.9469 0.72149 6.9516-0.90091 1.5219-3.7725 0.68754-4.8901 2.0582-1.3771 1.6888 4.8981 4.4463 4.8981 4.4463z" fill="#ffd42a" stroke-width=".57881"/>
  <g fill="#fea" stroke-width=".25">
   <ellipse transform="rotate(51.394)" cx="11.81" cy="-.088561" rx="1.0471" ry=".97124"/>
   <ellipse transform="rotate(51.394)" cx="15.086" cy="2.7647" rx="1.0471" ry=".97124"/>
   <ellipse transform="rotate(51.394)" cx="13.747" cy="7.1193" rx="1.0471" ry=".97124"/>
   <ellipse transform="rotate(51.394)" cx="17.337" cy="9.2414" rx="1.0471" ry=".97124"/>
  </g>
 </g>
 <g transform="matrix(-.99997 .0072521 .0072521 .99997 63.611 -.069296)" stroke="#000" stroke-linecap="round" stroke-linejoin="round">
  <path d="m14.176 18.745s-2.2659-5.5826-4.6078-7.2115c-1.3938-0.96948-3.7659 0.11082-4.9782-1.0779-1.0567-1.0361-1.0312-3.3202-1.0246-4.3198 0.01816-2.7426-1.9417-4.696-2.8903 0.79958-0.17002 0.98504-0.55562 5.273 1.1118 6.9 1.2658 1.2351 3.8215-0.31754 5.2572 0.71513 1.769 1.2724 2.8958 5.8609 2.8958 5.8609z" fill="#ffd42a" stroke-width=".57881"/>
  <g fill="#fea" stroke-width=".25">
   <ellipse transform="matrix(-.39918 .91687 .91687 .39918 0 0)" cx="6.2015" cy="4.9859" rx="1.0471" ry=".97124"/>
   <ellipse transform="matrix(-.39918 .91687 .91687 .39918 0 0)" cx="9.3503" cy="7.347" rx="1.0471" ry=".97124"/>
   <ellipse transform="matrix(-.39918 .91687 .91687 .39918 0 0)" cx="8.8418" cy="11.584" rx="1.0471" ry=".97124"/>
   <ellipse transform="matrix(-.39918 .91687 .91687 .39918 0 0)" cx="9.7231" cy="15.144" rx="1.0471" ry=".97124"/>
  </g>
 </g>
</svg>
