<svg xmlns="http://www.w3.org/2000/svg" viewBox="0 0 64 64">
    <path fill="#ff8080" fill-rule="evenodd" stroke="#000" stroke-width=".59" d="M32.595 47.28c-3.148-4.242-4.914-11.239-15.879-8.184-.336-3.498-1.567-6.045-6.99-8.566-.28-2.82-.707-3.63-4.312-5.423 7.135-.382 10.167.029 17.302 2.869.685 3.112 6.806 12.733 6.975 3.532-3.03-.968-1.367-3.674.158-5.747.954 1.207 1.873 2.127 1.687 3.902l1.845.053c-.172-1.371.445-2.584 1.767-3.981 1.08 1.413 3.163 4.201.184 5.879-.377 9.419 6.661.034 7.017-3.396 3.166-1.779 10.488-4.245 16.297-3.073-2.926 1.63-3.679 4.09-3.517 5.592-3.074.687-6.22 3.103-6.988 8.575-10.272-2.722-12.26 2.427-15.546 7.968z"/>
</svg>
