<svg version="1.1" viewBox="0 0 64 64" xmlns="http://www.w3.org/2000/svg" xmlns:xlink="http://www.w3.org/1999/xlink">
 <defs>
  <radialGradient id="radialGradient831" cx="31.977" cy="31.897" r="31.618" gradientTransform="matrix(1 0 0 .99997 0 .0010506)" gradientUnits="userSpaceOnUse">
   <stop stop-color="#ffe680" offset="0"/>
   <stop stop-color="#fea" offset=".76835"/>
   <stop stop-color="#ffd42a" offset="1"/>
  </radialGradient>
 </defs>
 <path d="m31.828 0.54297c-1.0452 0.005102-2.0895 0.062466-3.1289 0.17188-17.221 1.8106-29.714 17.24-27.902 34.461 1.8116 17.221 17.24 29.712 34.461 27.9 17.22-1.8116 29.711-17.239 27.9-34.459-1.6837-16.015-15.227-28.151-31.33-28.074zm0.0332 7.2109c2.336-0.01127 4.6021 0.31119 6.7503 0.92449 0.94111 0.4315 4.1572-3.021 5.4541-4.9364 0 0-1.2659 6.557-0.61782 6.9075 2.433 1.3156 4.6196 3.0385 6.4641 5.0832 1.0069 1.1162 5.1924-3.233 5.1924-3.233s-0.79541 3.7627-0.09417 5.954c0.32054 1.0017 3.8018 1.5965 3.8018 1.5965s-4.2115 3.3321-3.874 4.3712c0.51351 1.5808 0.86997 3.2364 1.0502 4.9497 0.13421 1.2764 5.8319 4.0199 5.8319 4.0199s-5.9379 2.1259-6.1682 3.2715c-0.7164 3.5635-2.2255 6.8719-4.353 9.71-0.66995 0.89372-1.4012 1.7408-2.1884 2.5345-1.1004 1.1096-0.60872 8.3588-0.60872 8.3588s-5.8482-3.6426-7.4085-3.0074c-1.4958 0.60892-3.0714 1.074-4.7117 1.3764-0.61705 0.11378-0.82312 5.9282-0.82312 5.9282s-2.5377-1.9456-3.6023-2.0413c-2.1347-0.19172-3.4278 2.312-3.4278 2.312s-0.79279-4.8456-1.8874-5.0506c-1.7159-0.32135-3.3746-0.82616-4.9524-1.4952-0.76672-0.32513-3.3926 2.0291-3.3926 2.0291s0.45252-5.2036-0.29425-5.7341c-1.7219-1.2233-3.2815-2.6694-4.6335-4.3016-0.53821-0.64974-5.6838 1.7519-5.6838 1.7519s3.2231-5.3024 2.8119-6.1023c-0.73288-1.4258-1.4285-2.9141-1.7712-4.5225-0.3708-1.7402-6.25-5.4782-6.25-5.4782s5.3135-1.5947 5.4373-3.0959c0.13892-1.6842 0.4523-3.3266 0.92615-4.9049 0.16978-0.56547-3.9041-3.3317-3.9041-3.3317s3.9527-1.2408 4.1119-1.6004c0.50512-1.141 1.099-2.2367 1.7755-3.2772 0.64359-0.98994-0.20971-5.4664-0.20971-5.4664s3.2309 0.56792 4.0006-0.12423c0.90088-0.8101 2.935-4.8913 2.935-4.8913s3.0491 4.3285 4.0436 3.8547c1.6891-0.80463 3.4926-1.421 5.3865-1.8194 0.80918-0.17023 2.2834-4.1283 2.2834-4.1283s1.7955 3.6119 2.6 3.6084z" color="#000000" fill="url(#radialGradient831)" fill-rule="evenodd" solid-color="#000000" stroke="#000" stroke-width=".526" style="isolation:auto;mix-blend-mode:normal"/>
</svg>
