<svg xmlns="http://www.w3.org/2000/svg" viewBox="0 0 64 64">
    <g fill-rule="evenodd" stroke="#000" stroke-width=".275">
        <path fill="#f55" d="M21.29 31.982v4.489l.46-5.143c.966-1.695 3.23-3.79 5.7-5.753l.112 2.275 1.805-3.746c2.518-1.873 4.957-3.493 6.144-4.281l-1.187 3.775 1.995-4.087c2.28-1.397 9.074-3.255 13.509-8.77.332 6.332-7.618 14.805-9.043 18.105l-5.242 1.367 5.115-.773a21.666 21.666 0 0 1-2.423 5.024l-1.837.565.84.847c-1.267 1.68-2.803 3.24-4.593 4.727l-5.717 1.65 5.194-1.055c-4.26 3.404-8.234 5.589-13.144 5.291 0 0-.174-.178-.348-.297-1.077-6.956.65-11.95 2.66-14.21z"/>
        <path fill="#4d4d4d" d="M45.24 17.43c-3.852 3.624-11.235 7.64-15.003 11.914-5.361 6.058-6.65 12.116-15.682 21.991 9.171-9.28 11.027-15.629 16.125-21.77 3.533-4.26 11.4-8.552 14.56-12.135z"/>
    </g>
</svg>
