<svg xmlns="http://www.w3.org/2000/svg" viewBox="0 0 64 64">
    <g fill-rule="evenodd" stroke="#000">
        <path fill="#f55" stroke-width=".328" d="M33.401 8.375c-5.29-4.632-16.08-.933-15.434 5.912.71 7.526 8.162 11.393 9.363 18.603.519 3.113-.278 5.68-2.588 7.458 4.15-1.14 10.831-3.991 10.695-10.605-.178-8.594-5.938-11.12-6.668-17.86-.346-3.198 2.563-3.213 4.632-3.508z"/>
        <path fill="#faa" stroke-width=".328" d="M27.452 15.496c-.773-3.14-1.17-6.787 1.986-7.471-5.276-.946-8.99 1.082-9.473 5.459.814-.923 1.617-1.688 2.387-1.923.476 1.216.64 2.08.87 3.015.642-.63 1.283-1.261 1.671-2.18.77 1.142 1.7 2.075 2.56 3.1z"/>
        <path fill="#f55" stroke-width=".328" d="M45.724 14.724c-2.924-6.395-14.28-7.45-16.5-.943-2.441 7.155 2.768 13.739.903 20.807-.804 3.052-2.584 5.065-5.42 5.739 4.252.664 11.515.805 14.104-5.282 3.366-7.91-.85-12.578 1.25-19.024.996-3.058 3.656-1.877 5.663-1.297z"/>
        <path fill="#faa" stroke-width=".328" d="M37.377 18.776c.584-3.181 1.718-6.67 4.877-5.998-4.423-3.028-8.642-2.703-10.879 1.09 1.12-.507 2.167-.875 2.966-.773-.066 1.304-.269 2.159-.444 3.106.844-.311 1.688-.623 2.419-1.303.233 1.358.698 2.59 1.061 3.878z"/>
        <path fill="#f55" stroke-width=".328" d="M55.69 28.075c.55-7.01-8.865-13.447-13.965-8.837-5.609 5.069-4.253 13.354-9.315 18.627-2.186 2.277-4.72 3.173-7.526 2.384 3.394 2.646 9.675 6.296 14.895 2.233 6.783-5.28 5.364-11.408 10.331-16.023 2.356-2.19 4.107.134 5.58 1.616z"/>
        <path fill="#faa" stroke-width=".328" d="M46.426 27.564c2.055-2.498 4.74-4.996 7.177-2.875-2.397-4.795-6.243-6.56-10.04-4.33 1.226.1 2.32.287 2.968.764-.69 1.108-1.284 1.757-1.897 2.5.89.138 1.778.275 2.748.036-.456 1.3-.648 2.603-.956 3.905z"/>
        <path fill="#f55" stroke-width=".328" d="M57.776 42.602c3.546-6.072-2.129-15.966-8.727-14.035-7.256 2.123-9.641 10.172-16.494 12.717-2.958 1.099-5.63.803-7.813-1.129 1.905 3.86 5.97 9.88 12.439 8.493 8.405-1.802 9.794-7.936 16.275-9.93 3.073-.945 3.64 1.909 4.32 3.884z"/>
        <path fill="#faa" stroke-width=".328" d="M49.657 38.11c2.938-1.355 6.443-2.435 7.713.535-.07-5.36-2.765-8.623-7.154-8.268 1.06.624 1.963 1.268 2.34 1.98-1.105.697-1.92 1.023-2.796 1.425.74.51 1.481 1.021 2.458 1.228-.976.972-1.717 2.062-2.56 3.1z"/>
        <g stroke-width=".5">
            <path fill="#ff8080" stroke-width=".32805" d="M34.26 16.991c-3.846-5.887-15.233-5.236-16.457 1.53-1.346 7.439 4.786 13.172 3.998 20.439-.34 3.138-1.8 5.394-4.504 6.483 4.303.023 11.506-.921 13.159-7.327 2.147-8.323-2.718-12.31-1.603-18.997.53-3.172 3.335-2.402 5.407-2.128z"/>
            <path fill="#ffd5d5" stroke-width=".32805" d="M26.61 22.244c.103-3.233.704-6.852 3.928-6.66-4.825-2.333-8.949-1.382-10.595 2.702 1.033-.669 2.013-1.189 2.817-1.207.13 1.3.057 2.175.025 3.138.788-.434 1.576-.869 2.197-1.65.434 1.308 1.077 2.458 1.628 3.677z"/>
            <path fill="#ff8080" stroke-width=".32805" d="M46.106 28.706c-.502-7.013-10.772-11.974-15.128-6.655-4.79 5.85-2.213 13.84-6.431 19.809-1.822 2.578-4.194 3.842-7.086 3.48 3.75 2.11 10.506 4.782 15.061-.014 5.92-6.233 3.602-12.08 7.825-17.385 2.003-2.516 4.081-.48 5.76.765z"/>
            <path fill="#ffd5d5" stroke-width=".32805" d="M36.869 29.583c1.66-2.776 3.942-5.648 6.667-3.913-3.085-4.384-7.15-5.555-10.573-2.784 1.227-.084 2.336-.062 3.049.312-.518 1.2-1.007 1.93-1.503 2.756.9.003 1.8.006 2.722-.375-.256 1.354-.252 2.671-.362 4.004z"/>
            <g>
                <path fill="#ff8080" stroke-width=".32805" d="M50.336 42.76c2.6-6.534-4.488-15.47-10.724-12.576-6.858 3.182-8.015 11.497-14.412 15.035-2.761 1.528-5.447 1.634-7.894.05 2.46 3.531 7.378 8.877 13.567 6.541 8.042-3.035 8.5-9.308 14.61-12.246 2.9-1.393 3.884 1.344 4.853 3.196z"/>
                <path fill="#ffd5d5" stroke-width=".32805" d="M41.637 39.529c2.703-1.777 6.008-3.37 7.707-.622-.87-5.29-4.021-8.113-8.308-7.108 1.141.46 2.13.961 2.609 1.608-.988.855-1.746 1.299-2.552 1.827.808.395 1.617.789 2.614.847-.82 1.107-1.39 2.295-2.07 3.448z"/>
            </g>
        </g>
        <path fill="#faa" stroke-width=".328" d="M34.614 25.946c-2.342-6.63-13.559-8.695-16.35-2.412-3.07 6.909 1.53 13.931-.958 20.805-1.074 2.967-3.026 4.814-5.911 5.232 4.175 1.04 11.397 1.83 14.52-4.002 4.058-7.578.275-12.603 2.943-18.836 1.265-2.957 3.808-1.544 5.756-.787z"/>
        <path fill="#ffd5d5" stroke-width=".328" d="M25.938 29.237c.866-3.116 2.307-6.49 5.394-5.539-4.136-3.41-8.367-3.463-10.933.115 1.16-.405 2.236-.678 3.022-.506-.181 1.294-.46 2.127-.719 3.055.868-.235 1.737-.47 2.526-1.082.11 1.373.463 2.643.71 3.957z"/>
        <path fill="#faa" stroke-width=".328" d="M42.413 38.378c.778-6.989-8.423-13.73-13.67-9.288-5.77 4.884-4.686 13.209-9.917 18.314-2.258 2.205-4.82 3.018-7.6 2.138 3.307 2.755 9.466 6.608 14.815 2.717 6.952-5.057 5.733-11.227 10.848-15.678 2.425-2.111 4.1.268 5.524 1.797z"/>
        <path fill="#ffd5d5" stroke-width=".328" d="M33.17 37.565c2.136-2.43 4.901-4.84 7.267-2.64-2.24-4.87-6.026-6.759-9.894-4.654 1.222.14 2.31.362 2.942.86-.727 1.085-1.34 1.714-1.977 2.437.884.167 1.768.332 2.745.125-.498 1.285-.733 2.581-1.083 3.872z"/>
    </g>
</svg>
