<svg xmlns="http://www.w3.org/2000/svg" viewBox="0 0 64 64">
    <g stroke="#000">
        <path fill="#ff8080" stroke-linecap="round" stroke-linejoin="round" stroke-width="2.722" d="M-26.25 29.982l-16.666 9.76-16.786-9.553-.12-19.314 16.667-9.76 16.786 9.554z" transform="matrix(.44756 .00205 -.00096 .30147 58.994 37.998)"/>
        <path fill="#ff8080" stroke-linecap="round" stroke-linejoin="round" stroke-width="2.722" d="M-26.25 29.982l-16.666 9.76-16.786-9.553-.12-19.314 16.667-9.76 16.786 9.554z" transform="matrix(.44756 .00205 -.00096 .30147 43.789 37.929)"/>
        <path fill="#ff8080" stroke-linecap="round" stroke-linejoin="round" stroke-width="2.722" d="M-26.25 29.982l-16.666 9.76-16.786-9.553-.12-19.314 16.667-9.76 16.786 9.554z" transform="matrix(.44756 .00205 -.00096 .30147 66.753 29.05)"/>
        <path fill="#ff8080" stroke-linecap="round" stroke-linejoin="round" stroke-width="2.722" d="M-26.25 29.982l-16.666 9.76-16.786-9.553-.12-19.314 16.667-9.76 16.786 9.554z" transform="matrix(.44756 .00205 -.00096 .30147 36.597 29.102)"/>
        <path fill="#f55" stroke-linecap="round" stroke-linejoin="round" stroke-width="2.722" d="M-26.25 29.982l-16.666 9.76-16.786-9.553-.12-19.314 16.667-9.76 16.786 9.554z" transform="matrix(.44756 .00205 -.00096 .30147 58.854 32)"/>
        <path fill="#f55" stroke-linecap="round" stroke-linejoin="round" stroke-width="2.722" d="M-26.25 29.982l-16.666 9.76-16.786-9.553-.12-19.314 16.667-9.76 16.786 9.554z" transform="matrix(.44756 .00205 -.00096 .30147 43.649 31.93)"/>
        <path fill="#f55" stroke-linecap="round" stroke-linejoin="round" stroke-width="2.722" d="M-26.25 29.982l-16.666 9.76-16.786-9.553-.12-19.314 16.667-9.76 16.786 9.554z" transform="matrix(.44756 .00205 -.00096 .30147 51.492 23.266)"/>
        <path fill="#f55" stroke-linecap="round" stroke-linejoin="round" stroke-width="2.722" d="M-26.25 29.982l-16.666 9.76-16.786-9.553-.12-19.314 16.667-9.76 16.786 9.554z" transform="matrix(.44756 .00205 -.00096 .30147 66.613 23.052)"/>
        <path fill="#f55" stroke-linecap="round" stroke-linejoin="round" stroke-width="2.722" d="M-26.25 29.982l-16.666 9.76-16.786-9.553-.12-19.314 16.667-9.76 16.786 9.554z" transform="matrix(.44756 .00205 -.00096 .30147 36.456 23.103)"/>
        <path fill="#f55" stroke-linecap="round" stroke-linejoin="round" stroke-width="2.722" d="M-26.25 29.982l-16.666 9.76-16.786-9.553-.12-19.314 16.667-9.76 16.786 9.554z" transform="matrix(.44756 .00205 -.00096 .30147 43.99 14.365)"/>
        <path fill="#f55" stroke-linecap="round" stroke-linejoin="round" stroke-width="2.722" d="M-26.25 29.982l-16.666 9.76-16.786-9.553-.12-19.314 16.667-9.76 16.786 9.554z" transform="matrix(.44756 .00205 -.00096 .30147 58.856 14.433)"/>
        <path fill="none" d="M24.43 43.776l-.062 5.84M39.582 43.929l.065 6.01"/>
    </g>
</svg>
