<svg xmlns="http://www.w3.org/2000/svg" viewBox="0 0 64 64">
    <path fill="#ff8080" fill-rule="evenodd" stroke="#000" d="M21.107 41.45c-1.829-2.377-4.234-4.627-3.45-5.532.567-.652 3.974.716 7.139 1.82 1.298.453 2.008 1.368 3.146 2.28 1.549 1.244 2.435.601 1.692-.52-2.433-3.67-12.779-10.025-12.068-11.327.692-1.27 2.47 1.063 2.714.143.871-3.28 2.678-6.367 3.626-9.84 1.527-5.59-6.032-7.947-6.294-9.024-.276-1.13 4.84-2.79 8.052 4.663.407.947 1.51.864 1.627-1.041.16-2.62-.475-7.328.455-7.648 1.55-.534 1.46 6.69 3.255 6.28 2.181-.497 2.12-5.711 3.06-5.727.869-.015 1.735.874 1.529 1.92-.176.891-.432.958-.554 1.465-.242 1.007 1.576-.693 2.864-1.335.913-.455 5.026 2.326 1.823 3.287-9.597 2.88-15.097 8.813-15.198 17.282-.053 4.364 3.395 7.395 9.047 7.745 5.67.351 10.047-6.369 10.837-9.959.408-1.85 4.657 1.887 3.385 3.092 0 0-5.444 4.153-4.914 4.947.708 1.062 2.832-.645 3.97-.814 2.284-.339 1.855 3.174.26 3.32-3.247.297-8.486.257-8.689 1.595-.242 1.593 3.824 2.42 8.234.683 2.317-.912 1.385 2.694-.293 3.222-4.297 1.351-11.701-2.642-11.781-1.92-.165 1.492 7.837 5.935 11.976 9.438 2.837 2.4-2.266 6.836-3.71 6.574-3.207-.583-3.101-2.242-7.876-2.376-2-.056-2.8.674-4.816 1.888-5.96 3.586-15.648-10.024-9.048-14.58z"/>
</svg>
