<svg xmlns="http://www.w3.org/2000/svg" viewBox="0 0 64 64">
    <g fill-rule="evenodd" stroke="#000">
        <g stroke-width=".5">
            <path fill="#ff8080" stroke-width=".32805" d="M44.177 16.95c-2.89-6.409-14.242-7.522-16.495-1.027-2.477 7.143 2.697 13.753.797 20.812-.82 3.048-2.61 5.052-5.45 5.71 4.249.687 11.511.865 14.132-5.209 3.406-7.892-.787-12.581 1.347-19.017 1.012-3.052 3.665-1.858 5.67-1.268z"/>
            <path fill="#ffd5d5" stroke-width=".32805" d="M35.81 20.96c.6-3.178 1.752-6.66 4.908-5.973-4.408-3.05-8.629-2.746-10.885 1.035 1.123-.502 2.172-.864 2.97-.758-.073 1.304-.28 2.157-.46 3.104.845-.307 1.69-.615 2.425-1.29.227 1.358.685 2.593 1.042 3.883z"/>
        </g>
        <g stroke-width=".5">
            <path fill="#ff8080" stroke-width=".32805" d="M54.415 28.06c-.091-7.03-10.054-12.583-14.713-7.527-5.123 5.559-3.018 13.686-7.578 19.398-1.97 2.467-4.41 3.59-7.277 3.06 3.62 2.326 10.208 5.389 15.036.866 6.274-5.876 4.302-11.849 8.828-16.897 2.146-2.395 4.102-.241 5.704 1.1z"/>
            <path fill="#ffd5d5" stroke-width=".32805" d="M45.142 28.396c1.82-2.675 4.266-5.408 6.885-3.517-2.823-4.557-6.814-5.963-10.392-3.397 1.23-.012 2.336.074 3.025.49-.587 1.167-1.118 1.867-1.66 2.663.897.056 1.795.111 2.738-.215-.335 1.336-.408 2.651-.596 3.976z"/>
        </g>
        <path fill="#faa" stroke-width=".328" d="M37.894 22.402c-2.66-6.509-13.965-8.026-16.448-1.615-2.73 7.05 2.205 13.84.054 20.826-.928 3.017-2.788 4.956-5.65 5.513 4.221.838 11.473 1.275 14.309-4.702 3.685-7.766-.338-12.601 2.024-18.957 1.12-3.014 3.729-1.726 5.711-1.065z"/>
        <path fill="#ffd5d5" stroke-width=".328" d="M29.389 26.111c.713-3.155 1.988-6.595 5.118-5.795-4.297-3.205-8.525-3.052-10.915.646 1.14-.461 2.201-.786 2.995-.652-.119 1.3-.357 2.147-.57 3.086.856-.277 1.711-.554 2.47-1.203.177 1.366.591 2.617.902 3.918z"/>
        <path fill="#faa" stroke-width=".328" d="M46.289 34.44c.437-7.018-9.08-13.304-14.106-8.612-5.527 5.158-4.039 13.42-9.015 18.774-2.15 2.312-4.668 3.248-7.487 2.504 3.436 2.591 9.775 6.14 14.929 1.994 6.698-5.388 5.18-11.492 10.073-16.186 2.32-2.227 4.109.068 5.606 1.526z"/>
        <path fill="#ffd5d5" stroke-width=".328" d="M37.017 34.078c2.015-2.53 4.66-5.072 7.13-2.99-2.474-4.756-6.347-6.459-10.108-4.169 1.227.081 2.323.25 2.98.717-.673 1.119-1.256 1.777-1.857 2.53.891.123 1.783.246 2.748-.008-.435 1.307-.606 2.613-.893 3.92z"/>
    </g>
</svg>
