<svg version="1.1" viewBox="0 0 64 64" xmlns="http://www.w3.org/2000/svg" xmlns:xlink="http://www.w3.org/1999/xlink">
 <g fill-rule="evenodd">
  <circle cx="31.978" cy="31.896" r="29.831" color="#000000" fill="#cad4e0" overflow="visible" solid-color="#000000" stroke="#000" stroke-width="2" style="isolation:auto;mix-blend-mode:normal"/>
  <g stroke-width=".1853">
   <path d="m15.696 14.175c-14.761 17.508 24.154 18.341 33.819 7.1434-12.961 5.282-40.668 2.1721-33.819-7.1434z" fill="#a2afbf"/>
   <path d="m48.806 14.601c20.117 15.196-19.943 22.099-32.647 12.469 12.012 6.2599 43.387-1.7035 32.647-12.469z" fill="#8f9fb5"/>
   <path d="m15.811 27.138c-2.844 14.94 26.772 9.8078 33.498 1.6844-6.4333 4.7695-30.451 5.3108-33.498-1.6844z" fill="#b1bdce"/>
   <path d="m49.719 28.957c6.2449 16.299-23.957 15.217-30.283 6.808 7.3893 4.6924 28.079-1.0618 30.283-6.808z" fill="#8f9fb5"/>
   <path d="m19.197 35.683c-1.4865 11.563 18.918 11.681 22.959 6.1522-9.0928 1.7168-21.091-1.6247-22.959-6.1522z" fill="#b1bdce"/>
   <path d="m43.945 41.33c1.4676 6.2977-11.625 8.7374-18.878 4.0309 9.1085 1.6612 16.667-1.1791 18.878-4.0309z" fill="#a6b2c7"/>
   <path d="m22.552 43.041c-2.1567 8.5187 10.979 8.3638 14.636 5.2174-6.3822 0.67821-14.643-2.1252-14.636-5.2174z" fill="#8f9fb5"/>
   <path d="m38.388 47.788c0.4829 5.0126-8.571 6.0473-13.096 1.8925 6.0268 1.9012 11.369 0.1866 13.096-1.8925z" fill="#a6b2c7"/>
   <path d="m26.033 50.394c-0.78457 4.7424 7.3009 3.9579 9.3535 2.0537-3.8899 0.70878-9.1606-0.37357-9.3535-2.0537z" fill="#b1bdce"/>
   <path d="m36.517 51.977c0.89408 2.6183-4.4819 4.2286-7.7284 2.5399 3.8889 0.31038 6.9288-1.2289 7.7284-2.5401z" fill="#a6b2c7"/>
   <path d="m16.174 15.055c1.5873-2.449 28.425-3.9232 32.21 0.21866 10.558 11.554-38.753 9.8755-32.21-0.21866z" fill="#8f9fb5"/>
  </g>
 </g>
</svg>
