<svg xmlns="http://www.w3.org/2000/svg" viewBox="0 0 64 64">
    <g stroke="#000">
        <path fill="none" stroke-width=".5" d="M15.562 36.412c-.944-2.896-.425-6.174-10.688-8.147M14.88 34.91c2.805-4.134-.035-7.86-4.157-11.252M15.932 36.827c1.843-4.326-.952-7.308-6.652-10.27"/>
        <path fill="#ff8080" fill-rule="evenodd" d="M54.24 25.96c-.827 9.195-2.207 18.71-20.613 21.352-1.405-.488-2.508-1.577-3.42-3.05-8.415-.52-14.25-2.909-15.53-8.596-3.577-2.59-2.374-3.813.925-4.437 2.377-1.49 3.811-3.552 10.075-4.622 2.77-2.27 6.383-3.275 10.63-3.328-1.097-2.423-1.194-6.872 3.946-6.384 3.625.344 2.842 4.832.306 6.939.962.044 1.94.12 3.143.647-.592-3.694 1.063-8.04 7.672-7.58 4.533.316 4.598 5.324 1.48 8.874z"/>
        <path fill="none" stroke-width=".5" d="M16.34 34.24c-.225 3.97.696 8.158-6.582 12.717M18.35 36.01c2.364 5.44.435 10.39-2.482 14.91M16.855 33.034c2.24 5.1.818 9.714-2.727 15.084"/>
    </g>
</svg>
