<svg version="1.1" viewBox="0 0 64 64" xmlns="http://www.w3.org/2000/svg" xmlns:xlink="http://www.w3.org/1999/xlink">
 <defs>
  <linearGradient id="linearGradient866" x1="117.43" x2="117.62" y1="49.795" y2="27.571" gradientTransform="translate(-85.358 3.536)" gradientUnits="userSpaceOnUse">
   <stop stop-color="#faa" offset="0"/>
   <stop stop-color="#ff8080" offset=".277"/>
   <stop stop-color="#ff8080" offset=".587"/>
   <stop stop-color="#f55" offset="1"/>
  </linearGradient>
 </defs>
 <g fill-rule="evenodd" stroke="#000">
  <path d="M31.499 14.44c-.951-2.126-1.368-4.252-1.926-6.377.041-1.238.242-2.243 1.2-2.147 1.408 2.582 1.93 5.558 2.62 8.46z" fill="#1a1a1a" stroke-width=".5"/>
  <path d="M23.258 26.062c1.84-4.701 4.811-6.727 8.348-11.74.726-.188 1.306-.082 1.92-.045.931 4.078-.955 7.911-1.83 10.67z" fill="#f55"/>
  <path d="M30.4 19.68l-1.926-4.388c-.782-1.524.366-2.662 1.515-1.295l2.146 4.104c-.392.806-.66 1.798-1.736 1.579z" fill="#1a1a1a" stroke-width=".5"/>
  <path d="M31.882 17.786c-3.012 6.243-14.064 6.507-11.804 19.445-3.728 6.194-2.279 11.514 3.156 16.162l4.04-2.336c1.793.151 3.879.135 6.503-.19 2.862.485 7.191 1.648 8.586 1.454 1.04-.173 1.566-1.372 2.146-2.463 1.121-.416 1.808-1.266 2.336-2.274.546-.719 2.033-1.2 1.2-3.724l-2.526-3.473c-.466-2.805-.92-5.637-2.082-6.818a677.545 677.545 0 0 0-8.207-5.998c-1.286-.503-2.08-.39-2.904-.315 1.655-9.113.566-9.162-.444-9.47zm6.166 19.199l3.637.357c.5.017-.07 2.534-.885 2.778z" fill="url(#linearGradient866)"/>
 </g>
 <path d="M29.508 20.794l-.295-.403c-.639.467-1.497 1.343-2.383 2.857a18.885 18.885 0 0 0-1.711 3.952c-.453 1.476-.706 2.912-.76 4.189-.075 1.725.22 2.843.506 3.557-.285-.712-.502-1.859-.31-3.542.142-1.248.493-2.638 1.036-4.04a18.347 18.347 0 0 1 1.917-3.687c.944-1.38 1.765-2.091 2.295-2.479l-.295-.404zM32.392 26.798l-.475-.155c-.108.33-.167.993-.286 1.825-.049.339-.102.655-.164.933-.083.371-.173.626-.262.768.086-.138.253-.366.446-.695.15-.257.3-.539.457-.857.322-.65.705-1.499.76-1.664l-.476-.155z"/>
</svg>
