<svg xmlns="http://www.w3.org/2000/svg" xmlns:xlink="http://www.w3.org/1999/xlink" viewBox="0 0 64 64">
    <defs>
        <linearGradient id="impFortress1Gradient">
            <stop offset="0" stop-color="#f55"/>
            <stop offset="1" stop-color="#ff8080"/>
        </linearGradient>
        <linearGradient id="linearGradient15" x1="29.5" x2="44.125" y1="1025.487" y2="1003.362" gradientTransform="matrix(1.28844 0 0 1.29051 -9.225 -296.313)" gradientUnits="userSpaceOnUse" xlink:href="#impFortress1Gradient"/>
    </defs>
    <g fill-rule="evenodd" transform="translate(0 -988.362)">
        <ellipse cx="32" cy="1020.368" fill="url(#linearGradient15)" rx="30.383" ry="30.381"/>
        <path fill="#fff" stroke="#fff" d="M44.54 1006.276l-5.134.031.076 3.3-4.23-.055v-3.176l-5.39.035.142 3.234-4.387.102-.043-3.35-5.166.073-.088 8.152 3.97-.045-4.665 27.035h25.75l-4.336-27.037 3.625-.088zm-7.868 35.116l-7.687.062c-.773-12.28 8.14-11.81 7.687-.062z"/>
        <path fill="#fff" stroke="#fff" d="M32.875 1007.425v-11.688s2.88 1.039 4.387 1.12c1.583.085 3.137-.882 4.71-.674 1.83.241 5.09 2.18 5.09 2.18s-3.422-.72-5.112-.457c-1.596.249-2.873 1.611-4.465 1.879-1.498.251-4.548-.298-4.548-.298"/>
    </g>
</svg>
