<svg cursor="default" version="1.1" viewBox="0 0 256 256" xmlns="http://www.w3.org/2000/svg" xmlns:xlink="http://www.w3.org/1999/xlink">
 <defs>
  <linearGradient id="innoGrad1">
   <stop stop-color="#f55" offset="0"/>
   <stop stop-color="#ff8080" offset="1"/>
  </linearGradient>
  <linearGradient id="linearGradient887" x1="-157.83" x2="-269.16" y1="231.59" y2="173.37" gradientTransform="matrix(-.53723 .14299 .14299 .53723 18.42 62.68)" gradientUnits="userSpaceOnUse" xlink:href="#innoGrad1"/>
  <linearGradient id="linearGradient1209-3" x1="88.949" x2="89.763" y1="159.05" y2="153.63" gradientTransform="matrix(-.99686 -.07915 -.07915 .99686 175.47 10.079)" gradientUnits="userSpaceOnUse">
   <stop stop-color="#4d4d4d" offset="0"/>
   <stop stop-color="#808080" offset="1"/>
  </linearGradient>
  <linearGradient id="linearGradient1191-1" x1="76.263" x2="76.885" y1="158.91" y2="149.29" gradientTransform="matrix(-.99686 -.07915 -.07915 .99686 175.47 10.079)" gradientUnits="userSpaceOnUse" xlink:href="#linearGradient1209-3"/>
  <linearGradient id="linearGradient1171-5" x1="55.869" x2="45.528" y1="178.19" y2="171.44" gradientTransform="matrix(-.65351 -.058246 -.058246 .65351 148.71 65.726)" gradientUnits="userSpaceOnUse" xlink:href="#innoGrad1"/>
  <linearGradient id="linearGradient975" x1="111.79" x2="125.12" y1="147.08" y2="102.11" gradientUnits="userSpaceOnUse" xlink:href="#innoGrad1"/>
  <linearGradient id="linearGradient983" x1="108.15" x2="116.4" y1="155.52" y2="113.24" gradientUnits="userSpaceOnUse">
   <stop stop-color="#ff2a2a" offset="0"/>
   <stop stop-color="#f55" offset="1"/>
  </linearGradient>
 </defs>
 <g stroke="#000" stroke-linecap="round" stroke-linejoin="round">
  <ellipse transform="matrix(-.99992 .013019 .013019 .99992 0 0)" cx="-86.402" cy="158.1" rx="3.8814" ry="7.4348" fill="#1a1a1a" stroke-width=".50329"/>
  <path d="m101.82 178.92s-1.1651 12.091 1.7724 17.559c9.7683 18.183 15.329 22.525 14.737 54.847-0.0892 0.61068 5.4173 1.0023 5.4875-0.0331 1.1491-35.711-5.3183-38.622-15.067-56.816-2.1425-3.9984-1.5193-15.413-1.5193-15.413z" fill="#9fb4bd" fill-opacity=".50196" stroke-width=".32805"/>
  <g>
   <path d="m113.46 174.39 0.0397 5.6615c-2.8883 1.5384-14.72 1.6968-17.528 0.075l-0.03001-5.7244c0.81281-0.29828 16.806-0.17538 17.518-0.0121z" fill="url(#linearGradient1171-5)" stroke-width=".32805"/>
   <ellipse transform="matrix(-.99999 .0033595 .0033595 .99999 0 0)" cx="-104.12" cy="174.66" rx="8.7914" ry=".67652" fill="#ff8080" stroke-width=".32805"/>
   <ellipse transform="matrix(-.99999 .0033595 .0033595 .99999 0 0)" cx="-104.09" cy="174.69" rx="7.3353" ry=".28632" fill="#ff2a2a" stroke-width=".19494"/>
  </g>
  <path d="m122.19 112.57 0.17575 55.522c7e-3 2.3488-5.5909 3.9671-5.6353 6.1023-0.27704 1.5624-24.386 1.6592-24.674 0.0292 0.02642-2.2194-5.0133-3.4548-5.0236-6.0344l-0.15154-37.979c-0.04108-10.296 15.058-22.495 18.008-32.057-0.58826 1.1453 7.1888 11.142 17.302 14.416z" fill="#dbe3e3" fill-opacity=".50196" stroke-width=".30761"/>
  <g fill="none">
   <ellipse transform="matrix(-.99999 .0033595 .0033595 .99999 0 0)" cx="-104.17" cy="128.16" rx="17.676" ry="2.0396" stroke-width=".17893"/>
   <ellipse transform="matrix(-.99999 .0033595 .0033595 .99999 0 0)" cx="-104.14" cy="168.39" rx="17.676" ry="2.0396" stroke-width=".17893"/>
   <ellipse transform="matrix(-.99999 .0033595 .0033595 .99999 0 0)" cx="-103.82" cy="174.55" rx="12.381" ry="1.3363" stroke-width=".12122"/>
  </g>
  <path d="m115.82 95.691c-3.3221 0.44538-6.5602 0.79266-10.932 2.4629-19.064 14.686-8.3588 52.628 14.767 57.653z" fill="url(#linearGradient983)" stroke-width=".5"/>
 </g>
 <path d="m107.27 195.96c1.5567 2.0967 3.7643 5.352 5.8218 8.907 2.079 3.5921 3.2791 6.2055 4.0694 7.8817 0.54014 1.1457 1.2434 2.6694 1.9569 4.4631 2.717 6.8302 3.3853 12.271 3.4412 15.743-0.0571-3.5462-0.26496-8.8711-2.8209-15.978-0.65717-1.8272-1.341-3.4078-1.8823-4.556-0.7589-1.6097-2.2266-4.3372-4.4367-7.7547-2.33-3.6028-4.4935-6.4759-6.1494-8.7063z" fill="#f9f9f9"/>
 <path d="m115.41 153.22c-18.582-13.784-17.289-37.337-18.077-39.13-4.1985-9.5596-8.9362-18.044-11.534-29.157-4.9606-21.22 14.072-43.505 28.688-49.705 9.8392-4.1742 20.083-5.4284 26.406-4.9193 9.2128 0.7418 14.795 7.6536 13.397 14.986-2.8792 15.101-22.191 53.942-20.741 59.031 1.8442 6.471-1.0775 12.091-0.8855 17.366 0.81905 7.4392 2.869 12.879 3.1906 20.816 0.38671 9.5412-13.25 16.047-20.443 10.711z" fill="#dbe3e3" fill-opacity=".50196" fill-rule="evenodd"/>
 <g stroke="#000">
  <path d="m115.82 95.691c4.9002-0.3175 14.11 3.2879 15.436 9.492l1.8217 7.8621 1.1506 34.9c-8.7476 4.4301-17.417 12.241-26.654-4.4104-4.6013-9.6238-8.3926-19.608-8.4373-31.257-0.09177-5.103 4.6996-15.811 16.683-16.587z" fill="url(#linearGradient975)" stroke-linecap="round" stroke-linejoin="round" stroke-width=".5"/>
  <path d="m138.72 28.936c-6.4595-0.044806-15.56 1.4003-24.344 5.127-14.912 6.326-34.333 29.064-29.271 50.715 2.6504 11.339 7.4858 19.994 11.77 29.748 0.804 1.829-0.51564 25.86 18.443 39.924 7.339 5.445 21.254-1.1928 20.859-10.928-0.22069-5.4452-1.2335-9.7547-2.1309-14.291l-0.66211 12.043c0.56851 11.749-12.633 13.488-17.736 8.9277v-0.00195c-15.839-14.156-15.663-36.398-16.242-37.77-3.8837-9.2052-8.1743-17.417-10.551-28.143-4.5378-20.481 13.302-41.625 26.729-47.461 5.3043-2.3058 17.541-4.6649 23.324-4.1738 8.4275 0.71624 13.027 5.2742 11.748 12.352-2.8041 15.518-20.921 55.148-20.047 59.826 0.68276 3.6569 2.4103 6.376 3.3926 9.0723 0.48782-2.9383 0.76542-6.0284-0.17774-9.3379-1.48-5.193 18.224-44.822 21.162-60.23 1.426-7.481-4.2682-14.534-13.668-15.291-0.80637-0.064925-1.6749-0.10102-2.5976-0.10742z" fill="#ffb380" fill-rule="evenodd" stroke-width=".60335"/>
  <path d="m117.71 103.51c-0.51352-0.2693-0.64207-3.1636 0.16929-3.2912 3.7536-0.63863 8.7613 1.2996 9.3236 7.5935 0.19196 2.15-2.2974 2.2694-2.3846 0.49127-1.2612-3.9694-4.0899-4.5421-7.1083-4.7936z" fill="#ff2a2a" stroke-linecap="round" stroke-linejoin="round" stroke-width=".48365"/>
  <path d="m127 146.09c-0.16201 0.18374 0.60007 3.1867 1.6241 2.2066 2.9168-2.7917 5.6619-9.427 1.1872-13.932-1.5286-1.5389-4.4016 1.6053-3.0912 2.817 3.3138 3.569 2.3959 5.9459 0.27993 8.9084z" fill="#ff2a2a" stroke-linecap="round" stroke-linejoin="round" stroke-width=".5"/>
 </g>
 <path d="m127 146.09c-0.16201 0.18374 0.60007 3.1867 1.6241 2.2066 2.9168-2.7917 5.6619-9.427 1.1872-13.932-1.5286-1.5389-4.4016 1.6053-3.0912 2.817 3.3138 3.569 2.3959 5.9459 0.27993 8.9084z" fill-opacity=".25098"/>
 <path d="m117.71 103.51c-0.51352-0.2693-0.64207-3.1636 0.16929-3.2912 3.7536-0.63863 8.7613 1.2996 9.3236 7.5935 0.19196 2.15-2.2974 2.2694-2.3846 0.49127-1.2612-3.9694-4.0899-4.5421-7.1083-4.7936z" fill-opacity=".25098"/>
 <g transform="translate(7.1784 -29.511)">
  <path d="m109.28 134.44c-12.367 3.4338-7.2348 36.641 8.7309 40.423 21.917-6.1891 47.437-2.6046 70.771-6.6673 30.129-5.2463 41.501-30.372 37.7-51.787-1.8162-10.233-12.856-17.692-21.022-15.68-11.56 2.849-11.702 13.423-17.527 16.209-4.2954 2.0556-16.617 3.1725-25.146 5.7567-12.223 3.7037-22.868 10.979-35.298 13.92-8.6804 2.0531-16.267-2.7133-18.208-2.1748z" fill="url(#linearGradient887)" fill-rule="evenodd" stroke="#000" stroke-width=".55565"/>
  <path d="m190.86 114.57 0.21719 0.17317c-0.6069 0.76402-2.4872 3.1031-4.2406 4.762-2.1243 2.0099-3.8479 2.9221-5.319 3.4603 1.4455-0.52894 3.1588-1.5875 5.1231-3.6568 1.5638-1.6481 3.4579-4.2267 4.0015-4.9116l0.21717 0.17317z" stroke-width=".59049"/>
  <path d="m184.88 119.24c-3.4707 0.49845-8.3386 1.4892-13.992 3.1826-5.3944 1.616-9.9 3.3847-12.403 4.3242-0.77946 0.29242-1.4422 0.53905-2.2217 0.83146-3.4478 1.294-8.4534 3.2661-13.056 5.0416-5.4029 2.0845-8.0539 2.9948-11.108 4.0221 2.6617-0.89542 6.0353-2.2406 10.962-4.3781 5.2651-2.2831 8.6719-3.8296 12.88-5.5142a110.86 110.86 0 0 1 2.2203-0.86409c2.46-0.92302 7.182-2.5263 12.603-3.9056 5.9014-1.5017 10.483-2.2182 14.114-2.7399zm32.918-14.066c-1.1549-0.93671-3.242-1.712-6.2061-1.5531-2.5147 0.13464-4.6293 0.8539-5.9594 1.2586-0.29571 0.0897-0.65074 0.19524-1.0507 0.3224-1.893 0.60163-4.3014 1.5463-6.4819 3.141-2.4075 1.7608-3.4957 3.5818-3.8222 4.8852 0.32805-1.3112 1.0112-3.2694 3.2739-5.5239 1.9993-1.9907 4.4462-3.3991 6.4226-4.1903a14.121 14.121 75.096 0 1 1.1223-0.39776c1.4008-0.42602 3.9065-0.82835 6.5329-0.50877 3.2277 0.39296 5.0043 1.6225 6.1685 2.5665z" fill="#ffd5d5" stroke-width=".59049"/>
 </g>
 <path d="m100.1 47.393c-1.0189 0.78631-2.5564 2.3382-4.4741 5.2115-1.8767 2.8117-3.2969 5.6467-4.1657 7.4331l-0.0339 0.0701c-0.85758 1.7644-2.1794 4.558-3.2626 7.7543-1.0952 3.2318-1.4211 5.3546-1.459 6.5758 0.03921-1.2509 0.25198-3.3258 1.248-6.6431 0.96073-3.1997 2.2358-6.1483 3.0777-7.8798l0.0339-0.0701c0.86077-1.7616 2.4223-4.6373 4.3817-7.3653 2.044-2.8465 3.6148-4.2844 4.654-5.0865z" fill="#fff" stroke-width=".59049"/>
 <g fill="#ff2a2a" stroke="#000" stroke-linecap="round" stroke-linejoin="round">
  <path d="m107.85 111.48c-0.29434 0.9131-3.8304 1.7472-3.7991 0.10155 0.0768-4.0404 4.5995-11.007 10.539-11.179 0.93153-0.0268 0.70823 3.3156 0.30084 3.3617-3.34 0.37829-7.0414 4.5146-7.0414 7.7155z" stroke-width=".48365"/>
  <g stroke-width=".5">
   <path d="m103.79 114.62c0.0971-0.87723 3.1642-0.80167 3.1186-0.20339-0.34769 4.5626-0.27835 9.0816 0.94916 13.492 0.20252 0.72756-2.4031 1.3998-2.7118 0.61017-1.9768-5.0562-1.7288-10.531-1.3559-13.898z"/>
   <path d="m105.8 131.61c-0.27198-0.83963 2.4751-1.9026 2.6794-1.3384 1.5581 4.3024 3.4784 8.3937 6.4098 11.91 0.48363 0.58005-1.5355 2.1351-2.1414 1.5421-3.88-3.7971-5.9038-8.8899-6.9478-12.113z"/>
   <path d="m116.75 143.42c-0.62816-0.31676-2.7904 1.688-2.1975 2.3916 2.3774 3.2634 7.2909 5.5979 11.345 3.9704 0.80591-0.58483-0.22227-3.3425-0.59447-3.115-3.597 1.4208-6.1909-1.0809-8.5532-3.247z"/>
  </g>
 </g>
 <g stroke="#000" stroke-linecap="round" stroke-linejoin="round">
  <path d="m70.764 160.35c2.0913-1.742 1.5264-3.2708 0.0233-4.7242-1.1037 0.40132-1.8624 4.2083-0.0233 4.7242z" fill="#333" stroke-width=".5"/>
  <path d="m72.141 156.12s-5.3874-0.19601-7.4132 1.502c-13.243 11.1 10.246 29.277 18.21 41.63 5.644 8.7535 10.375 22.328 10.333 51.506 0.13282 0.87581 2.8098 0.97982 2.8169-0.0488-0.07097-29.698-3.8452-41.407-11.091-52.914-7.8097-12.402-28.763-27.815-18.537-36.935 1.5721-1.4019 5.8241-1.099 5.8241-1.099 1.1509-0.34113 1.0406-3.4865-0.14331-3.6418z" fill="#ffe680" stroke-width=".5"/>
  <ellipse transform="matrix(-.99992 .013019 .013019 .99992 0 0)" cx="-73.605" cy="141.49" rx="7.7241" ry="9.2029" fill="#666" stroke-width=".50749"/>
  <path d="m87.227 164.18c-2.7594-1.773-1.4748-3.0041-5.5156-3.1007l-0.18262-6.6618c3.8808-1.297 2.6377-2.9684 5.3356-4.6207 5.4623 0.42126 4.8958 13.781 0.36257 14.383z" fill="url(#linearGradient1191-1)" stroke-width=".5"/>
  <ellipse transform="matrix(-.99992 .013019 .013019 .99992 0 0)" cx="-79.703" cy="158.79" rx="1.6681" ry="3.3696" fill="#4d4d4d" stroke-width=".5"/>
  <path d="m77.535 155.4-0.06894-6.7469-2.1548 0.26788-0.01306 6.5881c0.05193 1.1677 2.2263 1.2313 2.2368-0.10905z" fill="#808080" stroke-width=".5"/>
  <path d="m81.516 160.11-10.751 0.2368c0.86081-1.1961 0.98084-2.6395 0.0233-4.7242l10.751-0.23681c2.0362 2.3972 0.47352 4.672-0.0234 4.7242z" fill="url(#linearGradient1209-3)" stroke-width=".5"/>
  <ellipse transform="matrix(-.99992 .013019 .013019 .99992 0 0)" cx="-75.27" cy="141.51" rx="8.0577" ry="9.1976" fill="#999" stroke-width=".51819"/>
 </g>
 <path d="m61.651 167.06c-0.10258-0.9291-0.0031-2.3091 0.65088-3.8613 0.53822-1.2775 1.3006-2.3215 2.0488-3.1129 0.43673-0.46193 0.82542-0.7936 1.0949-1.023 0.33405-0.28443 0.78804-0.71754 1.4184-1.1254 1.0682-0.69123 2.0273-0.87528 2.6507-0.7454-0.63329-0.13193-1.5536-0.2991-2.917 0.20848-0.7509 0.27956-1.3792 0.68275-1.7311 0.98237-0.29743 0.25325-0.69532 0.65106-1.1141 1.1936-0.7178 0.92991-1.3776 2.13-1.7783 3.5064-0.49226 1.6905-0.42689 3.0379-0.32319 3.9772z" fill="#f9f9f9"/>
 <path d="m92.016 218.08c-0.3263-1.8066-0.78005-4.2238-1.6876-7.2045-0.86136-2.8291-1.8221-5.1049-2.4395-6.3814-0.8642-1.7868-2.2545-4.2393-4.1747-6.9636-1.8287-2.5944-3.5532-4.6138-4.4576-5.7093 0.88376 1.0706 2.5387 3.2321 4.2187 5.8695 1.8348 2.8805 2.9992 5.2002 3.8957 7.0538 0.63258 1.3079 1.6688 3.4071 2.6844 6.2216 1.0247 2.8398 1.6481 5.3842 1.9605 7.1138z" fill="#f9f9f9"/>
 <path d="m134.36 45.261c-0.53094 0.71384-1.0573 3.2381-1.5414 3.979-2.7635 4.2331-7.1494 11.411-9.8758 21.389-2.7779 10.167-2.7278 19.339-1.9591 25.648-0.78036-6.404-1.3735-15.332 0.85545-25.753 2.1534-10.068 6.1645-17.641 8.9615-21.926 0.49451-0.75732 3.0291-2.6236 3.5594-3.3373zm-7.291-3.9761c-0.71504 0.94016-1.316 4.3732-1.914 5.4254-1.1546 2.0337-2.6797 4.9015-4.2497 8.8141-1.5766 3.9278-2.9931 8.4044-4.1214 13.394a136.98 188.99 85.808 0 0-2.3843 17.351c-0.25643 5.2136-0.0153 9.2016 0.29602 11.675-0.31457-2.5004-0.77836-6.4113-0.85765-11.661-0.08-5.2891 0.24435-11.28 1.2198-17.481 0.79481-5.0507 1.929-9.6498 3.2988-13.693 1.3627-4.0205 2.8113-7.0559 4.0043-9.1567 0.31962-0.56315 1.2832-1.5209 2.3052-2.4453 0.98775-0.8925 2.067-1.7804 2.4031-2.222zm-11.658 6.8914c-0.57494 0.93561-1.0935 4.0893-1.5576 5.0762-1.8856 4.0037-4.4547 10.291-5.5671 19.036-0.65813 5.1729-0.67738 10.255-0.20759 15.029 0.46353 4.7124 1.3506 8.5518 2.1029 11.098-0.75789-2.5646-1.8007-6.3351-2.5184-11.056-0.72378-4.7649-1.0172-9.8566-0.66548-15.093 0.58884-8.779 2.8286-15.416 4.7406-19.476 0.47682-1.0143 3.0977-3.6794 3.6725-4.6155z" fill="#b4c5c5" fill-opacity=".46729" stroke-width=".57225"/>
 <g fill-opacity=".25098">
  <path d="m107.85 111.48c-0.29434 0.9131-3.8304 1.7472-3.7991 0.10155 0.0768-4.0404 4.5995-11.007 10.539-11.179 0.93153-0.0268 0.70823 3.3156 0.30084 3.3617-3.34 0.37829-7.0414 4.5146-7.0414 7.7155z"/>
  <path d="m103.79 114.62c0.0971-0.87723 3.1642-0.80167 3.1186-0.20339-0.34769 4.5626-0.27835 9.0816 0.94916 13.492 0.20252 0.72756-2.4031 1.3998-2.7118 0.61017-1.9768-5.0562-1.7288-10.531-1.3559-13.898z"/>
  <path d="m105.8 131.61c-0.27198-0.83963 2.4751-1.9026 2.6794-1.3384 1.5581 4.3024 3.4784 8.3937 6.4098 11.91 0.48363 0.58005-1.5355 2.1351-2.1414 1.5421-3.88-3.7971-5.9038-8.8899-6.9478-12.113z"/>
  <path d="m116.75 143.42c-0.62816-0.31676-2.7904 1.688-2.1975 2.3916 2.3774 3.2634 7.2909 5.5979 11.345 3.9704 0.80591-0.58483-0.22227-3.3425-0.59447-3.115-3.597 1.4208-6.1909-1.0809-8.5532-3.247z"/>
 </g>
</svg>
