<svg xmlns="http://www.w3.org/2000/svg" viewBox="0 0 64 64"><path d="M39.80519,49.15465c-5.36748-2.6789-10.15262-2.0325-14.695,0-1.78368-4.475-4.46348-8.41056-10.391-10.391a16.10492,16.10492,0,0,0,0-14.695,16.11374,16.11374,0,0,0,10.391-10.391c5.23317,2.60233,10.06913,2.11744,14.695,0,1.89655,5.67418,5.72981,8.61647,10.391,10.391a16.10524,16.10524,0,0,0,0,14.695C44.66716,40.62114,41.579,44.37683,39.80519,49.15465Zm-2.71376-9.82924c-2.66537-1.5575-5.04291-1.04152-7.34751,0a7.11553,7.11553,0,0,0-5.19548-5.19548,7.37256,7.37256,0,0,0,0-7.34752,8.04994,8.04994,0,0,0,5.19548-5.19549,8.93781,8.93781,0,0,0,7.34751,0c1.3108,3.14361,3.24867,4.18455,5.19549,5.19549-1.27816,2.7268-.808,5.07384,0,7.34752A8.06694,8.06694,0,0,0,37.09143,39.32541ZM41.16208,9.72306l-6.78441,19.7731L22.79327,54.06928M9.80458,22.71177l24.57309,6.7844,19.77311,11.5844m0-18.3688-19.7731,6.7844L9.80456,41.08057M22.79326,9.72306l11.58441,19.7731,6.78441,24.57312" style="fill:none;stroke:#000;stroke-linecap:round;stroke-linejoin:round"/><path d="M39.8052,49.15465c-5.36748-2.6789-10.15263-2.0325-14.695,0-1.78367-4.475-4.46347-8.41056-10.391-10.391a16.105,16.105,0,0,0,0-14.695,16.1137,16.1137,0,0,0,10.391-10.391c5.23318,2.60233,10.06914,2.11744,14.695,0,1.89654,5.67418,5.72981,8.61647,10.391,10.391a16.10524,16.10524,0,0,0,0,14.695C44.66717,40.62114,41.579,44.37683,39.8052,49.15465Zm-2.71376-9.82924c-2.66537-1.5575-5.04292-1.04152-7.34752,0a7.11553,7.11553,0,0,0-5.19548-5.19548,7.37251,7.37251,0,0,0,0-7.34752,8.04994,8.04994,0,0,0,5.19548-5.19549,8.93783,8.93783,0,0,0,7.34752,0c1.31079,3.14361,3.24867,4.18455,5.19549,5.19549-1.27816,2.7268-.808,5.07384,0,7.34752A8.06694,8.06694,0,0,0,37.09144,39.32541ZM41.16208,9.72306l-6.7844,19.7731L22.79328,54.06928M9.80458,22.71177l24.5731,6.7844,19.77311,11.5844m0-18.3688-19.7731,6.7844L9.80457,41.08057M22.79327,9.72306l11.58441,19.7731,6.7844,24.57312" style="fill:none;stroke:#ff8080;stroke-linecap:round;stroke-linejoin:round;stroke-width:0.85px"/></svg>