<svg xmlns="http://www.w3.org/2000/svg" viewBox="0 0 64 64">
    <path fill="#d7e3f4" fill-rule="evenodd" stroke="#000" stroke-width=".5" d="M15.008 60.615c-3.932.073-6.729-2.76-6.617-6.143.133-3.986 5-7.683 6.902-14.18 1.844 6.62 5.94 10.03 6.217 14.008.246 3.524-2.993 6.25-6.502 6.315z"/>
    <path fill="#fff" fill-rule="evenodd" d="M18.301 50.034c.943.652 1.429 2.067 1.524 3.466.015.21.02.422.017.63.268 1.154.272 2.384-.085 3.21.657-.68 1.03-1.948 1.079-3.298a8.546 8.546 0 0 0-.155-.69c-.411-1.529-1.247-2.892-2.38-3.318z"/>
    <path fill="#ff8080" fill-rule="evenodd" stroke="#000" stroke-width=".429" d="M5.708 43.206l16.134 16.428 2.036-1.96-16.216-16.44z"/>
    <path fill="#ff8080" stroke="#000" stroke-linejoin="round" stroke-width=".456" d="M14.545 37.262a12.966 13.243 89.457 0 0-.936.061 12.966 13.243 89.457 0 0-8.177 3.871 12.966 13.243 89.457 0 0-3.678 10.328 12.966 13.243 89.457 0 0 14.5 11.604 12.966 13.243 89.457 0 0 11.855-14.201 12.966 13.243 89.457 0 0-13.564-11.662zm.387 2.027a10.933 11.166 89.457 0 1 11.107 9.838 10.933 11.166 89.457 0 1-9.992 11.975A10.933 11.166 89.457 0 1 3.82 51.319a10.933 11.166 89.457 0 1 3.332-8.936 10.933 11.166 89.457 0 1 6.664-3.037 10.933 11.166 89.457 0 1 1.116-.057z"/>
    <path fill="#ff8080" fill-rule="evenodd" d="M5.7 42.984L22.036 59.66l1.845-1.783L7.466 41.185z"/>
</svg>
