<svg xmlns="http://www.w3.org/2000/svg" viewBox="0 0 64 64">
    <g fill="#f53ca4" fill-rule="evenodd" stroke="#000" stroke-width=".5">
        <path d="M46.606 1001.912l-6.845-8.081-1.049 2.308-1.03-6.378 6.459 1.282-2.472.905 7.787 7.248zM49.297 1005.493l-8.081 6.846 2.308 1.048-6.378 1.03 1.282-6.458.905 2.471 7.249-7.786zM52.967 1002.802l6.845 8.082 1.049-2.309 1.03 6.379-6.459-1.282 2.472-.906-7.787-7.248zM50.232 999.177l8.08-6.845-2.307-1.049 6.378-1.03-1.282 6.458-.905-2.471-7.249 7.787z" transform="matrix(.87424 0 0 .88395 6.883 -872.035)"/>
    </g>
</svg>
