<svg xmlns="http://www.w3.org/2000/svg" viewBox="0 0 64 64">
    <g fill-rule="evenodd">
        <path fill="#666" stroke="#000" stroke-width=".608" d="M20.971 51.66c4.387-1.393 7.549-5.756 9.323-9.077l-8.308-3.2zM32.232 43.044c1.349 4.1 7.073 7.494 10.86 7.662l-.676-11.2z"/>
        <path fill="#808080" stroke="#000" stroke-width=".486" d="M22.81 54.678c.107-4.171.113-8.385.108-12.604 2.172 1.585 4.052 3.913 7.832 1.392 6.563 2.464 8.226-1.052 9.66-2.436.038 4.566.48 8.998 1.135 13.359 6.776-.234 11.83 1.159 16.714-4.477 6.469-7.463 6.256-27.942-2.342-36.667-4.541-4.608-13.332-3.175-25.469-3.003-10.377.148-19.745-.919-23.87 4.046-8.759 10.54-6.335 32.84-.175 38.093 4.43 3.777 9.89 2.566 16.407 2.297z"/>
        <path d="M23.015 42.6a2.82 2.82 0 0 0 .32-.17 4.296 4.296 0 0 0-.182-.917 8.897 8.897 0 0 0-.5-1.252c-.425-.887-1.031-1.885-1.765-2.948-1.47-2.128-3.472-4.541-5.63-6.877-2.157-2.337-4.474-4.601-6.572-6.428a43.981 43.981 0 0 0-2.938-2.368c-.894-.65-1.685-1.145-2.327-1.439.629.318 1.403.835 2.278 1.505.874.67 1.85 1.493 2.878 2.425 2.057 1.863 4.329 4.16 6.439 6.525 2.111 2.367 4.057 4.799 5.464 6.932.704 1.067 1.269 2.053 1.652 2.914.191.43.336.825.43 1.18.077.294.119.555.125.783.11.04.22.085.328.136zM40.382 41.551c.085 0 .17-.01.254-.013-.04-1.43.268-3.004.949-4.7.682-1.701 1.734-3.518 3.171-5.424 2.875-3.814 7.275-7.971 13.28-12.274-6.05 4.23-10.522 8.333-13.482 12.119-1.48 1.893-2.586 3.711-3.323 5.432-.734 1.716-1.104 3.343-1.104 4.854.085 0 .17 0 .255.01z"/>
        <path fill="#333" stroke="#000" stroke-width=".492" d="M30.116 43.688c-.317-1.028-1.14-3.166-1.484-5.29 1.282 2.052 2.384 4.111 2.454 5.093-.325.03-.564.142-.97.196z"/>
    </g>
</svg>
