<?xml version="1.0" encoding="UTF-8"?>
<svg version="1.1" viewBox="0 0 64 64" xmlns="http://www.w3.org/2000/svg" xmlns:cc="http://creativecommons.org/ns#" xmlns:dc="http://purl.org/dc/elements/1.1/" xmlns:rdf="http://www.w3.org/1999/02/22-rdf-syntax-ns#">
 <metadata>
  <rdf:RDF>
   <cc:Work rdf:about="">
    <dc:format>image/svg+xml</dc:format>
    <dc:type rdf:resource="http://purl.org/dc/dcmitype/StillImage"/>
    <dc:title/>
   </cc:Work>
  </rdf:RDF>
 </metadata>
 <g stroke="#000">
  <path d="m62.526 11.343c-2.952 11.95-12.738 16.838-19.183 20.027-7.152 0.21335-10.848-0.23783-22.568-0.75227-7.2136-3.1011-13.791-6.0977-18.726-18.876" fill="#808080" stroke-width=".9"/>
  <path d="m43.342 31.369c-2.1064 3.1325-4.2127 4.7657-6.3191 5.3203-2.8369 2.4531-5.7089 2.308-8.8768 0.48367-2.404-1.0767-5.1291-2.5016-7.3723-7.0131 1.4459-2.873 21.191-4.4757 22.568 1.2092z" fill="#666" stroke-width="1.141"/>
  <path d="m37.656 35.693c-0.48103 6.8829-1.5015 11.985-2.1667 15.729-0.9215 5.1865-7.57 4.1564-8.5911 0.82477-1.2121-3.9549-1.1965-9.5853-0.50148-15.782 2.5271-2.6246 8.8934-2.7031 11.259-0.77177z" fill="#4d4d4d" stroke-width="1.0136"/>
 </g>
 <ellipse cx="31.198" cy="53.743" rx="1.7358" ry=".49849" fill="#1a1a1a" fill-opacity=".50196" stroke="#000" stroke-linecap="round" stroke-linejoin="round" stroke-width=".64879"/>
 <path d="m2.0483 11.741c2.5006-0.0022 7.483 0.0884 13.56 0.18922 6.1619 0.10224 12.325 0.19417 16.504 0.20671 0.56894 0.0017 1.0851 0.0018 1.5405 1.87e-4 3.1456-0.01123 9.2901-0.14107 15.224-0.3179 4.1656-0.12413 9.4828-0.35272 13.648-0.47684-2.646 0.07989-7.508 0.09818-13.653 0.06682-5.8753-0.02998-12.121-0.10324-15.222-0.09217-0.45512 0.0016-0.97146 0.0052-1.54 0.01029-3.501 0.03149-11.016 0.14926-16.502 0.23386-5.7981 0.08942-11.338 0.1779-13.56 0.17983z"/>
</svg>
