<svg xmlns="http://www.w3.org/2000/svg" viewBox="0 0 64 64">
    <path fill="#808080" fill-rule="evenodd" stroke="#000" stroke-width=".34046400000000004" d="M4.384 48.199c1.717-.995 3.325-2.01 4.762-3.05 3.101-2.24 2.94-4.232 6.384-7.968 1.785-1.936 3.966-4.104 4.959-5.663 3.089-4.855 5.505-9.131 10.109-12.545 3.342-2.478 5.469-5.426 8.274-7.878 3.391-2.963 7.07-5.461 10.572-8.255 2.18-1.74 4.976-.882 5.624 1.437 3.446-2.627 7.83.98 4.283 4.23-4.219 3.868-7.452 8.091-10.95 12.331-1.952 2.365-3.798 3.742-5.697 5.614 4.684-.633 4.316 4.665 3.713 5.432 3.357 3.647-.34 5.968-2.52 6.25 1.684 3.776-.982 5.757-2.2 8.198-1.743 3.493-4.468 6.18-7.4 8.653-2.967 2.502-6.926 3.448-10.31 5.36a94.471 94.471 0 0 1-4.128 2.174c-2.24 1.216-17.987-12.146-15.475-14.32z"/>
    <path fill="none" stroke="#000" stroke-width=".34046400000000004" d="M55.068 4.29c.734 2.242-2.53 3.581-6.01 6.85-3.969 3.728-8.696 8.804-11.86 12.115"/>
    <path fill-rule="evenodd" d="M36.052 22.625c.184.233.377.343.557.4.18.058.359.066.55.087h.04c.071.046.146.094.218.15.083.064.16.136.228.222.135.174.211.386.241.678-.119-.275-.27-.407-.416-.471a.872.872 0 0 0-.225-.062c-.068-.017-.14-.017-.217-.022-.01 0-.02-.017-.03-.019-.157-.098-.344-.197-.517-.348a1.556 1.556 0 0 1-.429-.618z"/>
    <path fill="none" stroke="#000" stroke-width=".34046400000000004" d="M21.894 31.378c1.07-1.346 1.908-1.554 5.5-1.626 3.224-.065 5.454-.821 8.499-1.239 1.92-.263 2.835-.34 4.798.846 2.147 1.297 4.425 1.076 5.796 2.596M42.971 26.384c-1.028.051-2.7 1.05-4.705 2.042M43.938 38.14c-.983.052-4.581.835-7.915-1.369-1.94.444-4.287 1.014-6.473 1.437M31.117 37.897c-.97 4.85-3.301 8.396-5.164 11.102"/>
    <path fill="none" stroke="#000" stroke-width=".34046400000000004" d="M41.21 40.057c-2.506 1.489-4.86 2.272-7.087 2.466-1.203.755-3.127 1.33-4.67.514"/>
    <path fill-rule="evenodd" d="M33.57 42.81l-.158.134c.265.351.56.848.854 1.43a20.23 20.23 0 0 1 1.51 4.047c.163.674.262 1.306.266 1.835.03-.53-.034-1.17-.166-1.857a17.936 17.936 0 0 0-.558-2.132 21.54 21.54 0 0 0-.77-2.026 11.688 11.688 0 0 0-.797-1.533l-.181.1zM36.384 42.108l-.187.093c.783 1.411 1.714 2.6 3.082 3.439-1.28-.948-2.075-2.203-2.708-3.626zM38.788 41.31l-.117.09c.295.362.6.634.918.839.316.205.643.342.98.437.669.188 1.393.216 2.181.275-.792-.11-1.496-.185-2.136-.416a3.403 3.403 0 0 1-.9-.478 3.859 3.859 0 0 1-.81-.837z"/>
    <path fill="#999" fill-rule="evenodd" stroke="#000" stroke-width=".34046400000000004" d="M42.584 31.414c-.538.299-.697 3.766-.392 4.045.833.763 1.743 1.278 2.53 1.358 2.12.214 3.466-3.806.708-4.903-.702-.28-2.414-.741-2.846-.5zM29.503 43.042c.305.116.852.329.924.267.517-.453 1.27-1.193 1.204-1.576-.151-.886-.242-2.208-.811-2.335-.178.454-.858 2.592-1.317 3.644z"/>
</svg>
