<svg version="1.1" viewBox="0 0 64 64" xmlns="http://www.w3.org/2000/svg" xmlns:xlink="http://www.w3.org/1999/xlink">
 <path d="m40.621 18.867c-4.2208 0.13041-8.1913-2.8808-8.1913-2.8808s-4.3571 2.7332-6.9983 2.7543c-4.2589 0.03161-7.0141-2.7754-7.0141-2.7754s-4.2699 3.2746-8.6857 3.2364m45.257 14.563c-4.2192 0.13172-8.1913-2.8808-8.1913-2.8808s-4.3555 2.7346-6.9967 2.7543c-4.2604 0.03161-7.0157-2.7754-7.0157-2.7754s-4.2699 3.2746-8.6841 3.2377m15.801 14.317c-4.2208 0.13172-8.1913-2.8808-8.1913-2.8808s-4.3571 2.7332-6.9983 2.7543c-4.2589 0.03161-7.0141-2.7754-7.0141-2.7754s-4.2699 3.2746-8.6857 3.2377" fill="none" stroke="#ffb380" stroke-linecap="round" stroke-width="4.3339"/>
</svg>
