<svg cursor="pointer" version="1.1" viewBox="0 0 256 256" xmlns="http://www.w3.org/2000/svg">
 <g fill="#ffb380" stroke-width="2.2839">
  <path d="m151.77 241.8-57.955-0.29814 1.522-68.751 55.181 0.42991z" stroke="#ffb380"/>
  <path d="m151.55 227.16 12.115 0.40298c5.4103-7.707 5.3901-42.612-0.81-41.173l-11.679-0.06 0.10464 8.0299 6.4224 0.17909c5.3733 3.101 2.9759 22.222 0.60369 24.529l-6.7182 0.54938z" stroke="#ffb380"/>
  <path d="m150.66 173.47c4.495-0.51785 12.184-10.497 1.1046-16.053 1.5824-11.187-17.731-10.331-18.379-3.0144-0.45768-10.271-19.899-11.065-20.295 0.47951-0.04-10.382-22.673-3.3263-19.289 3.696-10.889 2.5086-2.5745 14.949 0.80389 14.019l7.4444 0.18434 0.0535 17.957c0.0131 4.3743 7.651 4.0263 7.7372 0.0398l0.38279-17.662z" stroke="#fff"/>
 </g>
 <g transform="matrix(.729 0 0 .729 33.296 84.782)" fill="#ffb380" stroke="#ffb380" stroke-linecap="round" stroke-linejoin="round">
  <g stroke-width=".5">
   <path d="m-20.339-48.271c12.177-25.033 61.095-65.044 119.05-43.932-50.857 10.031-22.6 72.346 11.119 57.492 19.349-12.261 0.83132-26.319 23.322-41.22 2.5056-3.0157 4.3453-5.1435 6.0947-7.1509 1.3954-3.0683-4.6697-6.1329-8.1581-6.9606 4.0773 0.34353 8.6099 3.1641 10.199 4.62 6.5314 5.5372 18.871 21.184 8.9492 23.593-2.0511-6.5476-12.055-4.5532-11.119-8.1356-4.4714 2.145-8.8715 7.6523-8.4068 14.102 0.85394 11.852 9.3014 22.869 8.9492 38.78-0.74374 33.596-13.228 36.382-13.559 57.22-0.42721 26.857 37.293 38.765 52.068 12.203-4.4605 1.2486-6.6788 1.0269-9.3559 0.13559 8.5423-2.4633 12.338-7.3679 15.864-12.339 0.72506 9.2948-6.8512 32.564-34.983 33.085-16.455 0.30474-36.276-12.716-35.245-37.284 0.24105-5.7441 2.2529-11.299 2.2529-11.299 7.6241-24.197-19.77-51.193-49.224-27.858-0.057063-15.752-17.737-32.02-39.818-22.27 0.52754-27.293-26.703-37.903-48-22.78z"/>
   <path d="m137.9-78.915c-2.4285-4.2803-8.824-5.5854-14.102-7.7288 5.2636 0.72404 10.289-0.29886 16.271 5.6949"/>
   <path d="m143.63-37.389c3.4928 15.084 1.3926 24.924-0.76703 34.708 24.576-20.159 41.97-5.917 50.241-0.76703 2.4585-12.756 12.194-33.308 39.31-21.86-0.35157-20.173 25.332-41.667 47.748-22.819-18.055-36.915-73.578-62.406-120.42-43.529 47.53 3.2574 32.634 76.897-16.108 54.267z"/>
  </g>
  <path d="m137.07-75.005c-2.3413-2.9429-8.507-3.8402-13.595-5.3139 5.0745 0.49781 9.9194-0.20548 15.687 3.9155" stroke-width=".40708"/>
 </g>
</svg>
