<svg cursor="pointer" version="1.1" viewBox="0 0 256 256" xmlns="http://www.w3.org/2000/svg">
 <g fill="#ffb380" stroke-width="2.2839">
  <path d="m151.77 241.8-57.955-0.29814 1.522-68.751 55.181 0.42991z" stroke="#ffb380"/>
  <path d="m151.55 227.16 12.115 0.40298c5.4103-7.707 5.3901-42.612-0.81-41.173l-11.679-0.06 0.10464 8.0299 6.4224 0.17909c5.3733 3.101 2.9759 22.222 0.60369 24.529l-6.7182 0.54938z" stroke="#ffb380"/>
  <path d="m150.66 173.47c4.495-0.51785 12.184-10.497 1.1046-16.053 1.5824-11.187-17.731-10.331-18.379-3.0144-0.45768-10.271-19.899-11.065-20.295 0.47951-0.04-10.382-22.673-3.3263-19.289 3.696-10.889 2.5086-2.5745 14.949 0.80389 14.019l7.4444 0.18434 0.0535 17.957c0.0131 4.3743 7.651 4.0263 7.7372 0.0398l0.38279-17.662z" stroke="#fff"/>
 </g>
 <g transform="matrix(1.1025 0 0 1.1025 -26.46 5.3733)" fill="#ffb380" stroke="#ffb380" stroke-linecap="round" stroke-linejoin="round" stroke-width="5">
  <g transform="rotate(45 130.8 146.17)">
   <path d="m92.205 121.89 0.10544-5.1646c-13.702 2.564-28.116 3.8751-42.519 0.12678l0.17756 4.9961c14.511-3.8745 28.442-2.5332 42.236 0.0417z"/>
   <path d="m63.187 121.04 7.0508-114.98 9.2203 114.71c-7.5618 10.12-7.226 19.254-3.2542 27.932 5.6152 6.5254 0.44053 12.72-4.7849 12.256-6.0616-0.53823-9.8733-7.1299-4.9778-12.256 5.5018-8.8087 2.7641-18.132-3.2542-27.661z"/>
  </g>
  <g transform="rotate(-45 81.248 -18.868)">
   <path d="m92.205 121.89 0.10544-5.1646c-13.702 2.564-28.116 3.8751-42.519 0.12678l0.17756 4.9961c14.511-3.8745 28.442-2.5332 42.236 0.0417z"/>
   <path d="m63.187 121.04 7.0508-114.98 9.2203 114.71c-7.5618 10.12-7.226 19.254-3.2542 27.932 5.6152 6.5254 0.44053 12.72-4.7849 12.256-6.0616-0.53823-9.8733-7.1299-4.9778-12.256 5.5018-8.8087 2.7641-18.132-3.2542-27.661z"/>
  </g>
 </g>
</svg>
