<svg version="1.1" viewBox="0 0 64 64" xmlns="http://www.w3.org/2000/svg">
 <g transform="matrix(.65129 -.48158 .48158 .65129 -1.4467 32.01)" fill="#ffb380" stroke="#ffb380" stroke-linecap="round" stroke-linejoin="round" stroke-width=".5">
  <path d="m39.646 71.862c-2.7521 1.1143-6.2122-2.2751-6.7595-2.8764 0.16714-1.5172 1.1919-2.5419 2.4928-5.8007 0.90929-23.308-4.9537-49.777-3.4516-69.368 1.2173 1.0827 4.1659 2.3233 6.9033 0 0.1598 0.92683 0.3196 1.8537 0.47939 2.7805-4.2406 16.014 0.04073 35.106 0.81497 52.733 0.36826 8.3846 0.14269 15.344-0.47939 22.532z"/>
  <path d="m38.927-7.0767c-5.7466 3.2603-5.6287-0.7325-8.4853-0.86291-3.7958 1.1256-5.98 2.7347-8.5812 4.2187-1.7878-3.8667-2.3973-9.3831-0.67115-11.505 3.7172 1.1072 7.1154 0.91619 10.595 1.0547 2.917-0.39445 6.086-0.41093 9.2523-0.43146l0.43146 7.5744z"/>
  <path d="m31.928-15.1 6.8553-0.2397v-0.38352l-6.9512 0.28764z"/>
 </g>
</svg>
