<svg version="1.1" viewBox="0 0 64 64" xmlns="http://www.w3.org/2000/svg">
 <g fill="#ffb380">
  <path d="m32.37 31.753c0.6003 7.2175-0.24466 14.435 2.5892 21.652l-8.1578 0.07453c2.6195-7.3785 1.4739-14.62 2.0929-21.814"/>
  <path d="m18.901 31.867c5.1079 4.8444 14.573 3.3781 22.123-1.1201 6.0196-3.5734 3.2697-9.5703-5.7253-9.4903 5.8575-0.13794 6.4772-12.615-2.8985-7.1685-3.1818-9.6215-20.229 2.8224-11.452 6.8774-8.5003 2.0727-4.206 8.8553-2.0473 10.902z" fill-rule="evenodd"/>
  <path d="m21.951 31.224c0.21388 0.10694 9.2453 10.077 9.2453 10.077"/>
  <path d="m58.322 35.26c-3.8984 3.199-11.122 2.2307-16.885-0.73969-0.86815-0.44738-1.5201-0.98389-1.9564-1.5534 8.5833-3.5784 6.7789-9.1263 4.0329-10.255 1.1707-0.43817 2.5029-0.19844 4.5054 0.808 2.4285-6.3537 15.439 1.8638 8.7403 4.5415 6.4877 1.3688 3.2102 5.8477 1.5626 7.1989z" fill-rule="evenodd"/>
  <path d="m54.986 34.876c-0.16325 0.07062-5.6041 7.9634-5.6041 7.9634"/>
  <path d="m5.4551 37.585c3.5213 2.7278 10.046 1.9021 15.251-0.63073 0.96693-0.4704 1.3996-0.90282 1.7563-1.5093-4.1899-1.3488-6.9451-3.8643-7.7013-7.8709-2.1934-5.4177-13.946 1.5893-7.8945 3.8725-5.8599 1.1671-2.8996 4.9862-1.4114 6.1384z" fill-rule="evenodd"/>
  <path d="m8.4682 37.257c0.14745 0.06022 5.0618 6.7902 5.0618 6.7902"/>
  <path d="m31.772 39.944 6.3953-8.668"/>
  <path d="m14.953 35.533c0.41054 5.1277-0.16732 10.255 1.7708 15.383l-5.5791 0.05295c1.7915-5.2422 1.008-10.387 1.4313-15.498"/>
  <path d="m50.327 35.514c0.41054 5.1277-0.16732 10.255 1.7708 15.383l-5.5791 0.05295c1.7915-5.2422 1.008-10.387 1.4313-15.498"/>
  <path d="m14.306 42.527 2.9195-6.2761"/>
  <path d="m48.615 39.351-5.6015-5.0054"/>
 </g>
</svg>
