<svg xmlns="http://www.w3.org/2000/svg" xmlns:xlink="http://www.w3.org/1999/xlink" viewBox="0 0 64 64">
    <defs>
        <linearGradient id="nestRedGradient">
            <stop offset="0" stop-color="#f55"/>
            <stop offset="1" stop-color="#ff8080"/>
        </linearGradient>
        <linearGradient id="linearGradient15" x1="29.5" x2="44.125" y1="1025.487" y2="1003.362" gradientTransform="matrix(1.28844 0 0 1.29051 -9.225 -296.313)" gradientUnits="userSpaceOnUse" xlink:href="#nestRedGradient"/>
    </defs>
    <g fill-rule="evenodd" transform="translate(0 -988.362)">
        <ellipse cx="32" cy="1020.368" fill="url(#linearGradient15)" rx="30.383" ry="30.381"/>
        <path fill="#fff" stroke="#fff" stroke-width=".275" d="M21.502 1021.628v4.489l.46-5.143c.965-1.695 3.23-3.79 5.7-5.752l.111 2.274 1.805-3.746c2.518-1.873 4.957-3.493 6.145-4.28l-1.188 3.775 1.995-4.088c2.28-1.397 9.075-3.255 13.509-8.77.332 6.332-7.617 14.805-9.043 18.105l-5.242 1.367 5.116-.773a21.667 21.667 0 0 1-2.423 5.024l-1.837.565.839.847c-1.267 1.68-2.803 3.24-4.593 4.727l-5.716 1.65 5.194-1.055c-4.26 3.404-8.235 5.589-13.144 5.292 0 0-.174-.179-.349-.298-1.077-6.956.65-11.95 2.66-14.21z"/>
        <path fill="#fff" stroke="#fff" stroke-width=".275" d="M45.45 1007.077c-3.85 3.623-11.234 7.64-15.002 11.913-5.36 6.058-6.65 12.116-15.681 21.991 9.17-9.28 11.027-15.628 16.125-21.77 3.532-4.26 11.4-8.552 14.559-12.134z"/>
    </g>
</svg>
