<svg xmlns="http://www.w3.org/2000/svg" xmlns:xlink="http://www.w3.org/1999/xlink" viewBox="0 0 256 256">
    <defs>
        <linearGradient id="linearGradient1025">
            <stop offset="0" stop-color="#ff7f2a"/>
            <stop offset=".155" stop-color="#ff7f2a" stop-opacity="0"/>
            <stop offset=".874" stop-color="#ff7f2a" stop-opacity="0"/>
            <stop offset="1" stop-color="#ff7f2a"/>
        </linearGradient>
        <linearGradient id="innoGrad8">
            <stop offset="0" stop-color="#ff7f2a"/>
            <stop offset=".503" stop-color="#ff7f2a" stop-opacity="0"/>
            <stop offset="1" stop-color="#ff7f2a"/>
        </linearGradient>
        <linearGradient id="innoGrad5">
            <stop offset="0" stop-color="#ff7f2a"/>
            <stop offset=".075" stop-color="#ff7f2a" stop-opacity="0"/>
            <stop offset=".906" stop-color="#ff7f2a" stop-opacity="0"/>
            <stop offset="1" stop-color="#ff7f2a"/>
        </linearGradient>
        <linearGradient id="innoGrad4">
            <stop offset="0" stop-color="#ffd42a"/>
            <stop offset=".5" stop-color="#ffd42a" stop-opacity="0"/>
            <stop offset="1" stop-color="#ffd42a"/>
        </linearGradient>
        <linearGradient id="innoGrad3">
            <stop offset="0" stop-color="#ff7f2a"/>
            <stop offset="1" stop-color="#ff7f2a" stop-opacity="0"/>
        </linearGradient>
        <linearGradient id="innoGrad2">
            <stop offset="0" stop-color="#ff7f2a"/>
            <stop offset="1" stop-color="#ff7f2a" stop-opacity="0"/>
        </linearGradient>
        <linearGradient id="innoGrad1">
            <stop offset="0" stop-color="#ff7f2a"/>
            <stop offset=".155" stop-color="#ff7f2a" stop-opacity="0"/>
            <stop offset=".695" stop-color="#ff7f2a" stop-opacity="0"/>
            <stop offset="1" stop-color="#ff7f2a"/>
        </linearGradient>
        <linearGradient id="linearGradient1008" x1="130.426" x2="130.795" y1="101.878" y2="141.811" gradientUnits="userSpaceOnUse" xlink:href="#innoGrad1"/>
        <linearGradient id="linearGradient1043" x1="131.865" x2="131.836" y1="127.656" y2="143.381" gradientUnits="userSpaceOnUse" xlink:href="#innoGrad2"/>
        <linearGradient id="linearGradient1066" x1="131.658" x2="131.658" y1="81.342" y2="84.704" gradientUnits="userSpaceOnUse" xlink:href="#innoGrad3"/>
        <linearGradient id="linearGradient1091" x1="174.395" x2="174.373" y1="78.651" y2="94.291" gradientUnits="userSpaceOnUse" xlink:href="#innoGrad4"/>
        <linearGradient id="linearGradient1116" x1="108.123" x2="107.875" y1="79.425" y2="92.457" gradientTransform="translate(.213 -.01)" gradientUnits="userSpaceOnUse" xlink:href="#innoGrad4"/>
        <linearGradient id="linearGradient1139" x1="25.616" x2="25.616" y1="107.155" y2="138.244" gradientUnits="userSpaceOnUse" xlink:href="#innoGrad5"/>
        <linearGradient id="linearGradient1228" x1="25.616" x2="25.616" y1="138.244" y2="107.155" gradientTransform="scale(1.25616) rotate(45 141.405 70.481)" gradientUnits="userSpaceOnUse" xlink:href="#linearGradient1025"/>
        <linearGradient id="linearGradient1259" x1="228.844" x2="228.844" y1="103.343" y2="140.205" gradientUnits="userSpaceOnUse" xlink:href="#innoGrad5"/>
        <linearGradient id="linearGradient1282" x1="129.755" x2="161.36" y1="160.831" y2="150.255" gradientUnits="userSpaceOnUse" xlink:href="#innoGrad8"/>
    </defs>
    <g>
        <path fill="#ff7f2a" stroke="#000" stroke-miterlimit="10" stroke-width=".99990336" d="M99.982 138.967l-1.963 1.519s-.676 3.074-2.48 4.848c-1.389 1.367-4.145 1.776-4.307 2.066-.16.29 1.397 1.314 4.56-.408 3.212-1.748 6.927-5.51 6.927-5.51zM108.424 191.438s-.4 2.289-1.733 2.289c-2.11 0-9.089-4.938-10.088-4.827-1 .11-3.066.352-3.915-.053-.848-.404-8.84-6.919-4.386-8.376 4.454-1.456 20.122 10.967 20.122 10.967z"/>
        <path fill="#f95" d="M125.943 162.56s-7.204-1.17-8.884 3.033l-8.493 25.703-20.264-10.825c-.868-.539-1.002-.922-.555-1.887l4.774-4.996s7.902-12.75 8.125-14.416c.068-.509.333-1.665-7.661-5.884l-13.655-13.73c-.89-.96-1.22-3.729-.592-5.255l8.445-8.835zM89.47 128.455s-1.444-1.515-3.147.113c-1.703 1.628-5.44 4.33-5.7 5.403-.259 1.073-1.184 3.48.222 5.108 1.407 1.628 13.176 13.175 13.176 13.175s7.29 5.22 8.993 2.998l3.887-6.477c.54-1.312.658-1.605-.131-3.02z"/>
        <path fill="url(#linearGradient1282)" stroke="#000" stroke-miterlimit="10" stroke-width=".796" d="M153.981 141.244s-4.714 3.396-3.294 6.708l9.688 19.25-17.5 5.313c-.792.185-1.083.045-1.375-.75l-.125-5.5s-2.729-11.625-3.541-12.688c-.248-.325-.75-1.125-7.625 1l-15.415-.042c-1.042-.04-2.786-1.412-3.292-2.625l-.219-9.727zm-39.729 1.333s-1.666-.04-1.708 1.835c-.042 1.875-.625 5.5-.167 6.25.458.75 1.292 2.625 3 2.75s14.833 0 14.833 0 7.042-1.166 6.75-3.375l-1.458-5.834c-.435-1.042-.533-1.274-1.774-1.626z" transform="scale(1.25616) rotate(45 141.405 70.481)"/>
    </g>
    <g>
        <path fill="#fca" stroke="#000" stroke-miterlimit="10" stroke-width=".99990336" d="M224.857 222.54l5.7 5.699-11.62 11.62-5.7-5.699z"/>
        <path fill="#ffe6d5" stroke="#000" stroke-miterlimit="10" stroke-width=".99990336" d="M225.375 224.244l2.924 2.924-10.684 10.684-2.924-2.925z"/>
        <path fill="#f95" stroke="#000" stroke-miterlimit="10" stroke-width=".49995168" d="M229.513 228.32l.482.481-10.356 10.356-.482-.481z"/>
        <path fill="#f95" stroke="#000" stroke-miterlimit="10" stroke-width=".99990336" d="M191.284 230.21a1.255 1.255 0 0 1-1.776 0s-2.445-1.442-6.58-5.577c-4.136-4.136-5.578-6.58-5.578-6.58a1.255 1.255 0 0 1 0-1.777l1.551-1.552a1.255 1.255 0 0 1 1.777 0l12.158 12.159a1.255 1.255 0 0 1 0 1.776z"/>
        <path fill="#f95" d="M165.526 131.894s-5.809 6.773-7.626 8.66c-1.817 1.89-26.795 26.796-26.795 26.796l30.457 30.458 1.782.307 16.082 16.083s2.306 1.58 7.331 6.606c5.025 5.024 6.605 7.33 6.605 7.33l19.058 19.057c.453.167 1.612.575 2.923-.407 1.746-1.31 3.136-3.56 4.933-6.287l-5.595-5.559s-.898-.445-.077-1.405l9.29-9.216c.843-.683 1.48-.073 1.48-.073l4.997 4.921c2.459-2.027 4.928-4.414 7.143-6.402 2.433-2.182 4.974-3.868 5.712-5.567.637-1.469.901-2.718.684-3.656l-53.37-54.405-6.962-9.187-18.053-18.053z"/>
        <path fill="url(#linearGradient1259)" stroke="#000" stroke-miterlimit="10" stroke-width=".796" d="M159 101.7s.543 7.082.583 9.168c.04 2.086 0 30.167 0 30.167h34.29l1.176-.83h18.106s2.188-.408 7.845-.408 7.844.408 7.844.408H250.3c.349-.161 1.231-.584 1.416-1.875.246-1.72-.239-3.769-.762-6.316l-6.279.021s-.756.255-.834-.748l.042-10.417c.09-.859.792-.875.792-.875l5.583-.042c.243-2.525.289-5.259.417-7.625.141-2.598.622-4.977.081-6.349-.468-1.185-1.022-2.037-1.673-2.443l-60.667-.583-9.091-1.252H159z" transform="scale(1.25616) rotate(45 141.405 70.481)"/>
        <path fill="none" stroke="#000" stroke-miterlimit="10" stroke-width=".49995168" d="M157.9 140.556l18.356 18.21 6.44 9.548 54.624 54.624"/>
        <path fill="#ff7f2a" stroke="#000" stroke-miterlimit="10" stroke-width=".49995168" d="M176.294 187.855s5.273-7.606-.303-14.227c-4.625-5.492-10.412-4.482-10.412-4.482s1.13-1.13 6.607.055c4.25.92 6.44 3.22 6.44 3.22l54.423 54.423-1.248 1.108-55.173-55.419s2.85 3.04 3.017 8.42c.166 5.38-2.517 7.736-2.517 7.736z"/>
        <path fill="none" stroke="#000" stroke-miterlimit="10" stroke-width=".49995168" d="M183.579 149.947l-7.323 8.819-10.085 10.085M190.342 158.872l-7.646 9.442-4.07 4.108"/>
    </g>
    <g stroke="#000" stroke-miterlimit="10" transform="scale(1.25616) rotate(45 141.405 70.481)">
        <path fill="none" stroke-width=".796" d="M198.5 140.243a.54.54 0 0 1-.541.542v0a.541.541 0 0 1-.542-.542v-12.25a.54.54 0 0 1 .542-.541v0a.54.54 0 0 1 .541.541zM177.416 140.243a.54.54 0 0 1-.541.541v0a.54.54 0 0 1-.542-.541v-12.25c0-.299.242-.542.542-.542v0c.299 0 .541.243.541.542z"/>
        <circle cx="187.208" cy="129.119" r="7.406" fill="#cdde87" stroke-width=".796"/>
        <path fill="#dde9af" stroke-width=".796" d="M178.167 128.035c.25-.416 18.581.709 18.583 1.084.002.375.083 8.75-.667 9.625-2.889 3.37-15.9 2.531-17.916-1.5-.375-.75-.25-8.793 0-9.209zm2.671 1.605l-.171 2.438c.1.208.208.601.583.75l3.5.092c.472-.106.662-.403.792-.675v-2.792c-.354-.626-3.877-.677-4.25-.458-.314.184-.454.645-.454.645zm8.457.498l-.171 2.438c.1.208.208.601.583.75l3.5.092c.472-.106.662-.403.792-.675v-2.792c-.354-.626-3.877-.677-4.25-.458-.314.184-.454.645-.454.645z"/>
        <path fill="none" stroke-width=".199" d="M181.875 128v-3.006h.667v2.146h1.541v-2.146H185v3.145zM190.208 128.688v-3.007h.667v2.146h1.541v-2.146h.917v3.145zM181.604 129.119c.123-.211 3.25-.209 3.396.104.146.313-.583 3.209-.583 3.209h-.646l.229-2.354c0-.396-1.444-.395-1.5.021l-.292 2.167h-.75c0-.001.023-2.936.146-3.147zM190.013 129.64c.123-.211 3.25-.209 3.396.104.146.313-.583 3.209-.583 3.209h-.646l.229-2.354c0-.396-1.444-.395-1.5.021l-.292 2.167h-.75c-.001-.002.023-2.936.146-3.147zM177.931 133.202l18.759.773M188.172 128.318l-1.25-.075v1.25l1.187.131zM177.416 121.368l1.909 1.208M175.75 124.327l2.181.844"/>
        <path fill="#eef4d7" stroke-width=".199" d="M189.344 123.562s-.254-.168-.844-.297c-.59-.129-1.078 0-1.078 0l.125.328-1.594-.172 1.477-.783-.008.314s.582-.05 1.125.047.891.313.891.313z"/>
    </g>
    <g transform="scale(1.25616) rotate(45 141.405 70.481)">
        <path fill="#ffb380" d="M25.615 107.155v10.678l.001 20.41.97.002.727.818h46.686l3.753-.82h30.665l-.03-20.41h.676l-1.696-10.678z"/>
        <path fill="url(#linearGradient1228)" stroke="#000" stroke-miterlimit="10" d="M42.203 18.262l-9.484 9.484-18.13 18.131.86.861-.08 1.373 41.469 41.47 4.06 2.605 27.239 27.238 18.103-18.156.6.6 7.978-10.991z" transform="rotate(-45 141.405 70.481) scale(.79608)"/>
        <path fill="#eef4d7" stroke="#000" stroke-miterlimit="10" stroke-width=".398" d="M101.788 117.88c.754 0 .708.666.708.666v6.917s-.083.666-.708.666h-5.792c-1.125-.166-1.25-1.083-1.25-1.083v-6.125s-.083-1.042.917-1.042z"/>
        <path fill="#eef4d7" stroke="#000" stroke-miterlimit="10" stroke-width=".398" d="M101.997 118.278h.792v7.451h-.792zM101.107 118.278c.682 0 .64.602.64.602v6.248s-.075.602-.64.602h-5.232c-1.016-.15-1.13-.979-1.13-.979v-5.532s-.074-.94.829-.94h5.533z"/>
        <path fill="#333" stroke="#000" stroke-miterlimit="10" stroke-width=".398" d="M25.847 117.435h63.792v1.833H25.847zM25.847 121.643h63.792v1.833H25.847zM25.847 125.851h63.792v1.834H25.847z"/>
        <path fill="#ffb380" stroke="#000" stroke-miterlimit="10" stroke-width=".796" d="M18.866 107.396c-.501-.035-1.565 1.929-1.565 1.929l-2.917 2.614v21.372l2.917 2.613s1.25 1.928 1.582 1.938c.333.007.484-30.431-.017-30.466z"/>
        <path fill="#ffe6d5" d="M18.866 107.155h6.75v31.089h-6.75z"/>
        <path fill="url(#linearGradient1139)" stroke="#000" stroke-linejoin="round" stroke-miterlimit="10" stroke-width=".796" d="M18.866 107.155h6.75v31.089h-6.75z"/>
        <path fill="#ffe6d5" stroke="#000" stroke-miterlimit="10" stroke-width=".796" d="M23.304 136a.5.5 0 0 1-.5.5h-1.25a.5.5 0 0 1-.5-.5v-11.042a.5.5 0 0 1 .5-.5h1.25a.5.5 0 0 1 .5.5z"/>
        <circle cx="22.179" cy="120.875" r="1.125" fill="#ffe6d5" stroke="#000" stroke-miterlimit="10" stroke-width=".796"/>
        <path fill="#ffe6d5" stroke="#000" stroke-miterlimit="10" stroke-width=".398" d="M15.363 114.313v-1.819l2.688-2.119v3.938zM15.363 115.081h2.688v2.875h-2.688zM15.363 119.256h2.688v2.875h-2.688zM15.363 123.431h2.688v2.876h-2.688zM15.363 127.606h2.688v2.875h-2.688zM15.363 131.25v1.818l2.688 2.12v-3.938z"/>
        <path fill="none" stroke="#000" stroke-miterlimit="10" stroke-width=".597" d="M77.752 138.244l-4.002-1.369H28.325l-1.74 1.369"/>
    </g>
    <g transform="scale(1.25616) rotate(45 141.405 70.481)">
        <path fill="#414042" stroke="#000" stroke-miterlimit="10" stroke-width=".796" d="M158.875 99.396a.5.5 0 0 1-.5.5h-.916a.5.5 0 0 1-.5-.5v-3.708a.5.5 0 0 1 .5-.5h.916a.5.5 0 0 1 .5.5zM108.668 79.415c.959 0 .395 13.042.395 13.042h-1.188l.248-13.032z"/>
        <path fill="#ffe680" d="M108.336 79.415c.25.292-.25 2.208-.25 5.75s.417 6.833.25 7.292l-3.125-.024c-.491-.146-.44-.211-.917-.976V80.749c.185-.581.696-.983.921-1.201z"/>
        <path fill="url(#linearGradient1116)" stroke="#000" stroke-miterlimit="10" stroke-width=".796" d="M108.336 79.415c.25.292-.25 2.208-.25 5.75s.417 6.833.25 7.292l-3.125-.024c-.491-.146-.44-.211-.917-.976V80.749c.185-.581.696-.983.921-1.201z"/>
        <ellipse cx="157.697" cy="86.472" fill="#414042" stroke="#000" stroke-miterlimit="10" stroke-width=".796" rx=".45" ry="6.472"/>
        <path fill="#ffe680" d="M174.372 94.291s-1.917-2.458-2.333-2.5c-.416-.042-.459 1.458-1.167 1.458s-1.292-1.583-1.625-1.5c-.333.083-.583 1.208-1.042 1.195-.459-.013-1.166-1.445-1.583-1.445-.417 0-.583 1.083-1 1.083-.417 0-.375-.583-.75-.542-.375.041-2.583.903-2.583.903h-4.164c-.539-.43.319-.861.33-6.736.011-5.875-.5-5.875-.308-6.208h4.164s2.208.861 2.583.903c.375.042.333-.542.75-.542s.583 1.083 1 1.083c.417 0 1.124-1.431 1.583-1.445.459-.014.709 1.112 1.042 1.195.333.083.917-1.5 1.625-1.5s.751 1.5 1.167 1.458c.416-.042 2.333-2.5 2.333-2.5 2.237.25 2.207 15.392-.022 15.64z"/>
        <path fill="url(#linearGradient1091)" stroke="#000" stroke-miterlimit="10" stroke-width=".796" d="M174.373 94.291s-1.917-2.458-2.333-2.5c-.416-.042-.459 1.458-1.167 1.458s-1.292-1.583-1.625-1.5c-.333.083-.583 1.208-1.042 1.195-.459-.013-1.166-1.445-1.583-1.445-.417 0-.583 1.083-1 1.083-.417 0-.375-.583-.75-.542-.375.041-2.583.903-2.583.903h-4.164c-.539-.43.319-.861.33-6.736.011-5.875-.5-5.875-.308-6.208h4.164s2.208.861 2.583.903c.375.042.333-.542.75-.542s.583 1.083 1 1.083c.417 0 1.124-1.431 1.583-1.445.459-.014.709 1.112 1.042 1.195.333.083.917-1.5 1.625-1.5s.751 1.5 1.167 1.458c.416-.042 2.333-2.5 2.333-2.5 2.237.25 2.207 15.392-.022 15.64z"/>
        <path fill="none" stroke="#000" stroke-miterlimit="10" stroke-width=".398" d="M170.895 79.694s.692 2.709.686 6.778c-.006 4.069-.708 6.777-.708 6.777M168.228 79.999s.692 2.099.686 6.167c-.006 4.068-.708 6.777-.708 6.777M165.645 80.36s.464 2.043.457 6.111c-.007 4.068-.479 6.111-.479 6.111M166.894 81.322s.36.082.354 4.15c-.006 4.068-.625 6.027-.625 6.027M169.27 81.194s.734 1.148.728 5.216c-.006 4.068-.75 5.339-.75 5.339M172.062 81.152s.401.653.395 4.722c-.006 4.069-.417 5.917-.417 5.917M162.312 79.999s.776 2.099.77 6.167c-.006 4.068-.708 6.777-.708 6.777"/>
        <path fill="#fca" d="M110.086 81.563h46.997c1.042-.015 1.042-.015 1.042 1.938v20.827h-49.457V83.541c0-1.998 1.057-1.978 1.418-1.978zm40.602 10.25a1 1 0 0 0-1-1h-32.563a1 1 0 0 0-1 1v8.888a1 1 0 0 0 1 1h32.563a1 1 0 0 0 1-1z"/>
        <path fill="url(#linearGradient1066)" stroke="#000" stroke-miterlimit="10" stroke-width=".796" d="M110.086 81.563h46.997c1.042-.015 1.042-.015 1.042 1.938v20.827h-49.457V83.541c0-1.998 1.057-1.978 1.418-1.978zm40.602 10.25a1 1 0 0 0-1-1h-32.563a1 1 0 0 0-1 1v8.888a1 1 0 0 0 1 1h32.563a1 1 0 0 0 1-1z"/>
        <path fill="#f95" stroke="#000" stroke-miterlimit="10" stroke-width=".796" d="M114.875 96.938a2 2 0 0 1-2 2H112a2 2 0 0 1-2-2v-4.125a2 2 0 0 1 2-2h.875a2 2 0 0 1 2 2zM156.875 96.938a2 2 0 0 1-2 2H154a2 2 0 0 1-2-2v-4.125a2 2 0 0 1 2-2h.875a2 2 0 0 1 2 2z"/>
        <path fill="none" stroke="#000" stroke-miterlimit="10" stroke-width=".398" d="M113.836 101.47c0 .594-.328 1.111-.811 1.383l-.004 1.413h-1.486l-.002-1.385a1.583 1.583 0 1 1 2.303-1.411z"/>
        <circle cx="112.252" cy="101.432" r=".865" fill="none" stroke="#000" stroke-miterlimit="10" stroke-width=".398"/>
        <path fill="none" stroke="#000" stroke-miterlimit="10" stroke-width=".398" d="M156.021 101.47a1.588 1.588 0 0 1-.812 1.383l-.005 1.413h-1.485l-.002-1.385a1.583 1.583 0 1 1 2.304-1.411z"/>
        <circle cx="154.436" cy="101.432" r=".865" fill="none" stroke="#000" stroke-miterlimit="10" stroke-width=".398"/>
    </g>
    <g>
        <path fill="#fca" d="M129.631 165.143l-11.593-8.12-30.016-30.015c-1.389-1.272-1.161-1.242-.037-2.406l1.67-1.727c1.179-.931-.267-2.527-.267-2.527L96.736 113l42.519 42.519z"/>
        <path fill="url(#linearGradient1043)" stroke="#000" stroke-miterlimit="10" d="M157.511 140.622l-11.097 1.955h-33.792c-1.498.066-1.353-.045-1.375-1.333l-.033-1.912c.14-1.188-1.572-1.272-1.572-1.272v-8.273h47.869z" transform="scale(1.25616) rotate(45 141.405 70.481)"/>
        <path fill="#ffb380" d="M118.485 89.52l43.93 43.93 2.054-2.055s.612.055 1.057.499c.444.444-7.263 8.275-7.263 8.275l-27.158 27.181s-2.054-.536-1.333-2.924c.435-1.436 1.909-2.731 2.958-4.995.694-1.5 1.63-3.189.407-6.477L99.09 119.129c-1.587-1.083-3.681-1.8-4.96-1.48-2.665.666-4.175 2.677-4.938 2.754l-1.055-.98c5.93-6.493 22.764-22.616 22.764-22.616l.222-1.333 1.904-1.904s1.529-1.246 2.167-1.649c1.407-.888 1.942-2.126 1.942-2.126.85-.85.74-.74 1.35-.275z"/>
        <path fill="#ffe6d5" fill-rule="evenodd" d="M127.065 126.266l-4.24 2.05 4.68.783-3.304-3.317.802 4.724z"/>
        <path fill="url(#linearGradient1008)" stroke="#000" stroke-miterlimit="10" d="M108.668 104.327h49.457v-2.313s.375-.314.875-.314.57 8.746.57 8.746l.013 30.589s-1.458.854-2.396-.896c-.564-1.053-.463-2.612-1.147-4.477-.454-1.235-.877-2.713-3.417-3.875l-38.206.125c-1.503.284-3.085 1.059-3.625 1.959-1.125 1.875-.843 3.857-1.229 4.33l-1.146.042c-.317-6.993.083-25.545.083-25.545l-.625-.875v-2.144s.159-1.562.292-2.148c.292-1.292-.104-2.29-.104-2.29 0-.957 0-.832.605-.914z" transform="scale(1.25616) rotate(45 141.405 70.481)"/>
        <path fill="none" stroke="#000" stroke-miterlimit="10" stroke-width=".62808" d="M157.9 140.556s-13.95-15.291-22.687-24.316c-8.737-9.024-22.428-22.428-22.428-22.428"/>
        <path fill="#ffe6d5" stroke="#000" stroke-miterlimit="10" stroke-width=".49995168" d="M112.849 93.748s.37.34.954.822l-.505.505 1.388 1.389.692-.68c1.89 1.352 4.332 2.698 5.457 1.637 1.97-1.859-3.196-8.108-3.196-8.108s-.247.144-.505.484c-.302.398-.676 1.045-1.547 1.85-.63.582-1.126.805-1.569 1.136-.692.515-1.17.965-1.17.965z"/>
        <path fill="#fca" stroke="#000" stroke-miterlimit="10" stroke-width=".99990336" d="M116.06 94.923l-1.22 1.221-1.139-1.138 1.222-1.221 3.358-3.359c.382-.312.934.213 1.431.765.497.553.942 1.136.706 1.4 0 0-2.983 3.097-3.288 3.374z"/>
        <path fill="none" stroke="#000" stroke-miterlimit="10" stroke-width=".31404" d="M115.367 93.563l1.928 1.928M117.656 95.13l-1.929-1.928"/>
        <path fill="none" stroke="#000" stroke-miterlimit="10" stroke-width=".24997584" d="M118.03 94.757l-1.929-1.929M116.435 92.494l1.929 1.929M118.683 94.104l-1.929-1.929"/>
        <path fill="#ed1c24" d="M125.657 148.374l1.116 1.116-.22.221-.854-.853-.573.572.77.77-.22.222-.771-.77-.928.927-.263-.263z" font-family="ArialMT" font-size="3"/>
        <path fill="#fff" d="M128.088 154.893l-.256.257q-.078-.221-.176-.39-.097-.167-.22-.29-.215-.215-.416-.25-.199-.032-.352.122-.13.129-.119.272.013.143.189.4l.126.19q.238.35.236.631 0 .282-.237.518-.283.283-.618.238-.335-.043-.7-.408-.138-.138-.263-.325-.124-.187-.23-.414l.272-.27q.07.249.178.448.108.2.256.347.225.226.436.26.21.033.375-.13.143-.144.135-.313-.006-.168-.166-.409l-.13-.19q-.235-.353-.241-.61-.007-.256.216-.479.257-.257.587-.225.33.034.649.353.136.137.254.303.117.167.216.364z" font-family="ArialMT" font-size="3"/>
        <path fill="#fca" stroke="#000" stroke-miterlimit="10" stroke-width=".49995168" d="M125.392 153.996c.22.321-.083 1.298-.917 1.156-.89-.152-2.143-.782-3.396-1.13-1.269-.352-2.532-.417-2.69-.363a3.273 3.273 0 0 1-3.39-5.401 3.272 3.272 0 0 1 5.49 1.512c.141.557 1.184 1.47 2.326 2.288 1.067.763 2.229 1.43 2.577 1.938z"/>
        <g fill="#fff">
            <path d="M106.745 110.872c.537-.353.808-.528 1.346-.88l.334.334c.081.081.137.15.167.203.044.075.07.155.073.238a.522.522 0 0 1-.055.249.858.858 0 0 1-.17.237 1.028 1.028 0 0 1-.584.291.734.734 0 0 1-.508-.107 1.163 1.163 0 0 1-.201-.165l-.402-.4zm.3.049l.178.176c.079.08.155.143.232.19a.446.446 0 0 0 .327.064.904.904 0 0 0 .263-.076c.087-.04.168-.1.25-.182a.55.55 0 0 0 .161-.256.325.325 0 0 0-.023-.217.862.862 0 0 0-.152-.185l-.196-.197-1.04.683zM108.405 111.601c.199-.199.416-.303.654-.31a.775.775 0 0 1 .6.234.64.64 0 0 1 .205.475c-.003.178-.082.341-.233.493a.963.963 0 0 1-.67.291.777.777 0 0 1-.575-.23.668.668 0 0 1-.18-.307.575.575 0 0 1 .012-.344c.04-.115.1-.216.187-.302zm.14.152a.553.553 0 0 0-.137.223.415.415 0 0 0-.009.25.494.494 0 0 0 .327.336c.08.024.163.033.252.026a.758.758 0 0 0 .274-.083.947.947 0 0 0 .244-.171.522.522 0 0 0 .17-.359.427.427 0 0 0-.13-.328.57.57 0 0 0-.457-.159c-.188.01-.368.098-.535.265zM109.075 113.203l1.347-.882.182.184-.61.833a6.29 6.29 0 0 1-.244.302c.001.002.26-.093.46-.148l1.08-.3.185.186c-.539.351-.806.53-1.344.882l-.148-.15.656-.424c.152-.099.535-.303.535-.303s-.22.078-.35.114l-1.141.315-.145-.145.603-.825c.055-.076.206-.25.206-.25s-.2.15-.27.195c-.343.224-.516.335-.858.56-.056-.058-.085-.086-.144-.144zM110.392 114.519c.537-.353.807-.529 1.345-.88l.149.148-1.346.88-.148-.148zM110.81 114.937l1.346-.88.145.145-.232.605c-.071.184-.133.335-.186.455-.031.07-.137.274-.137.274.002.002.22-.16.341-.24l.79-.519.147.147-1.345.88-.149-.148.367-.92c.065-.162.187-.413.187-.413-.001-.001-.184.137-.311.222l-.818.535a10.855 10.855 0 0 1-.145-.143zM111.946 116.073l1.347-.879.147.147-1.345.882-.149-.15zM112.897 116.093c.199-.2.416-.303.654-.31a.776.776 0 0 1 .6.233.642.642 0 0 1 .205.474c-.004.178-.082.341-.234.493a.964.964 0 0 1-.669.29.798.798 0 0 1-.573-.229.667.667 0 0 1-.18-.306.578.578 0 0 1 .012-.345.738.738 0 0 1 .185-.3zm.139.154a.576.576 0 0 0-.14.22.417.417 0 0 0-.008.25.467.467 0 0 0 .123.213.505.505 0 0 0 .205.124c.08.024.162.032.25.025a.758.758 0 0 0 .275-.083.945.945 0 0 0 .244-.172.527.527 0 0 0 .172-.357.426.426 0 0 0-.13-.327.573.573 0 0 0-.458-.16c-.188.01-.365.099-.533.267zM113.575 117.7l1.346-.88.145.145-.232.607a8.867 8.867 0 0 1-.187.455c-.03.07-.137.273-.137.273.002.002.222-.159.342-.239l.793-.519c.058.058.085.088.144.146-.539.352-.809.528-1.345.881l-.148-.147.366-.92c.065-.163.187-.414.187-.414-.001-.001-.183.138-.311.222l-.818.535c-.06-.057-.087-.087-.145-.144zM114.963 119.09l1.744-.482.176.176c-.372.518-.559.777-.93 1.296l-.144-.144.267-.375-.452-.449-.497.14-.164-.161zm.84-.03l.37.37c.094-.13.14-.194.235-.322.094-.127.246-.308.246-.308-.002-.002-.2.077-.338.116l-.512.144zM116.104 120.231c.537-.352.807-.53 1.346-.88l.467.467c.092.093.154.17.186.232.032.063.04.13.024.199a.425.425 0 0 1-.121.202.43.43 0 0 1-.314.135c-.119 0-.404-.173-.404-.173-.004.003.013.133.004.182a1.388 1.388 0 0 1-.09.314l-.123.297-.167-.167.127-.286c.046-.104.078-.202.096-.294a.288.288 0 0 0 0-.151.473.473 0 0 0-.113-.146l-.172-.172c-.238.156-.36.232-.6.39a11.47 11.47 0 0 0-.146-.149zm.89-.338c.084.082.125.124.207.206.095.095.158.156.19.182.06.05.12.083.175.1a.29.29 0 0 0 .163.002c.052-.013.1-.039.137-.077a.217.217 0 0 0 .062-.107.158.158 0 0 0-.008-.106.565.565 0 0 0-.11-.136l-.36-.36c-.18.119-.273.178-.455.296zM117.623 121.03l.16.132-.042.036a.344.344 0 0 0-.088.149.27.27 0 0 0 .014.18c.027.065.071.129.134.192.09.089.176.139.262.147.087.008.154-.014.204-.064a.204.204 0 0 0 .058-.132c.003-.053-.028-.16-.092-.322a1.783 1.783 0 0 1-.09-.267.493.493 0 0 1-.004-.218.383.383 0 0 1 .542-.243.779.779 0 0 1 .24.167c.091.09.151.181.183.274a.42.42 0 0 1-.09.443c-.004.004-.01.013-.021.022l-.156-.13a.335.335 0 0 0 .066-.084.267.267 0 0 0 .03-.125.312.312 0 0 0-.036-.139.525.525 0 0 0-.107-.144.416.416 0 0 0-.244-.134.19.19 0 0 0-.163.06.192.192 0 0 0-.053.092.311.311 0 0 0 .013.14c.012.041.046.133.1.275.044.115.073.199.083.25.014.067.01.13-.005.19a.396.396 0 0 1-.318.275.498.498 0 0 1-.27-.033.806.806 0 0 1-.265-.181.746.746 0 0 1-.225-.39c-.02-.135.037-.274.18-.417zM118.26 122.387c.537-.353.807-.529 1.346-.88l.803.804-.154.099-.653-.653-.42.273.638.638-.152.1-.639-.637-.469.307.7.7-.151.1-.85-.851zM119.304 123.431c.538-.352.806-.53 1.345-.88l.144.143c-.092.242-.14.364-.23.606-.072.185-.13.338-.184.458-.032.07-.14.27-.14.27.002.003.222-.16.343-.238l.79-.517.145.143-1.347.882c-.058-.06-.086-.087-.144-.145.146-.369.216-.553.364-.92.065-.163.186-.416.186-.416-.002-.002-.184.14-.312.223l-.816.535-.144-.144zM120.319 124.444c.696-.194 1.045-.289 1.742-.481l.174.173c-.372.519-.556.78-.928 1.298l-.142-.142c.107-.149.16-.226.265-.376l-.451-.45-.499.142-.161-.164zm.84-.03l.367.37.235-.322c.094-.128.247-.31.247-.31-.002-.001-.202.078-.338.117l-.512.146zM121.448 125.575c.537-.353.807-.529 1.345-.88l.149.148-1.192.782.577.577-.151.101-.728-.728z"/>
        </g>
        <g fill="#fff">
            <path d="M127.09 130.635l.15.116c-.066.088-.1.167-.099.235.001.068.03.13.085.186a.34.34 0 0 0 .248.103.327.327 0 0 0 .241-.094.256.256 0 0 0 .08-.192.289.289 0 0 0-.094-.202.628.628 0 0 0-.048-.04l.138-.091c.011.014.024.029.037.041.079.08.155.118.236.123a.262.262 0 0 0 .283-.258.252.252 0 0 0-.078-.182.269.269 0 0 0-.184-.078.37.37 0 0 0-.229.075l-.106-.161a.505.505 0 0 1 .337-.084.506.506 0 0 1 .303.15c.092.092.14.195.14.306.001.111-.04.205-.12.286a.379.379 0 0 1-.2.108c-.073.014-.247-.029-.247-.029-.006.006.02.132.005.19a.34.34 0 0 1-.092.156c-.1.1-.227.149-.374.147a.512.512 0 0 1-.373-.155.497.497 0 0 1-.161-.329.46.46 0 0 1 .123-.327zM128.054 131.451c.094-.094.204-.175.328-.244.124-.07.234-.116.326-.14a.8.8 0 0 1 .245-.03c.07.004.129.017.18.038.05.02.1.051.143.095a.388.388 0 0 1 .119.307c-.007.12-.07.24-.19.36a1.656 1.656 0 0 1-.423.306.99.99 0 0 1-.515.126.465.465 0 0 1-.3-.136.387.387 0 0 1-.113-.31c.008-.124.075-.246.2-.372zm.098.167a.46.46 0 0 0-.126.196.21.21 0 0 0 .058.216c.054.054.125.077.217.073a.945.945 0 0 0 .44-.158c.162-.098.284-.187.368-.27.08-.08.122-.155.127-.222a.214.214 0 0 0-.07-.174.267.267 0 0 0-.127-.072.4.4 0 0 0-.188.004 1.41 1.41 0 0 0-.394.184 1.75 1.75 0 0 0-.305.223zM128.496 132.623c.538-.352.809-.527 1.348-.878l.134.135c-.333.219-.5.326-.834.546l.784.018.18.18-.645-.045c-.119.286-.177.43-.296.714l-.15-.149.252-.575a39.505 39.505 0 0 1-.31-.023l-.326.212-.137-.135zM129.484 133.61l1.044-1.18.151.15c-.21.231-.315.348-.525.577-.026.027-.092.101-.205.221-.031.033-.053.059-.067.072a8.223 8.223 0 0 1-.077.072c.003.004.322-.11.4-.134.392-.122.591-.18.984-.301.061.06.09.091.15.152-.244.276-.368.412-.613.687-.07.08-.26.278-.26.278l.166-.065c.118-.045.203-.079.257-.097.377-.123.567-.185.944-.31l.15.15-1.678.549-.158-.159.636-.712c.054-.061.203-.221.203-.221-.001-.002-.182.068-.242.086l-1.108.337-.152-.152zM131.188 135.313l1.345-.879.465.466c.08.08.13.149.152.206a.333.333 0 0 1 .005.197.413.413 0 0 1-.11.188.565.565 0 0 1-.17.112.52.52 0 0 1-.189.047.485.485 0 0 1-.285-.076 1.325 1.325 0 0 1-.24-.192l-.278-.278c-.219.142-.328.216-.547.358l-.148-.149zm.845-.308l.243.244a.76.76 0 0 0 .24.18.352.352 0 0 0 .202.012.353.353 0 0 0 .174-.092.248.248 0 0 0 .068-.11.193.193 0 0 0-.009-.111.61.61 0 0 0-.133-.167l-.283-.284c-.2.131-.3.198-.502.328zM132.765 135.961c.199-.199.416-.303.653-.31a.776.776 0 0 1 .6.232.645.645 0 0 1 .206.475c-.003.177-.082.341-.234.493a.964.964 0 0 1-.67.29.79.79 0 0 1-.576-.232.658.658 0 0 1-.178-.305.585.585 0 0 1 .012-.345.768.768 0 0 1 .187-.298zm.138.153a.572.572 0 0 0-.14.22.42.42 0 0 0-.005.253.458.458 0 0 0 .122.212.494.494 0 0 0 .203.121.68.68 0 0 0 .529-.053.94.94 0 0 0 .242-.174.522.522 0 0 0 .171-.358.425.425 0 0 0-.13-.328.572.572 0 0 0-.458-.159c-.187.01-.366.098-.534.266zM133.627 137.754c.418-.472.629-.707 1.046-1.18l.151.152c-.21.23-.314.348-.524.577-.024.029-.094.1-.207.22a2.077 2.077 0 0 1-.142.145c.003.005.322-.11.4-.134.393-.122.589-.181.98-.303l.153.152-.612.69c-.07.077-.262.276-.262.276.001 0 .088-.04.164-.068a5.05 5.05 0 0 1 .261-.092l.942-.312c.06.06.094.091.154.152l-1.679.547-.161-.162.635-.71c.054-.06.206-.221.206-.221-.002-.002-.182.07-.242.088l-1.107.337c-.063-.06-.095-.092-.156-.154zM134.904 139.029c.537-.353.805-.529 1.343-.88l.805.804c-.061.04-.092.06-.153.102l-.657-.658c-.168.11-.25.166-.418.275l.637.638-.151.1-.638-.638-.47.308.7.699-.151.1-.847-.85zM135.942 140.07c.538-.353.808-.53 1.347-.881l.464.465c.092.093.155.172.187.234.033.063.042.13.026.2a.414.414 0 0 1-.122.2.43.43 0 0 1-.314.136c-.119 0-.401-.17-.401-.17-.005.002.01.13.002.18a1.407 1.407 0 0 1-.087.316c-.05.118-.078.176-.128.293l-.167-.167c.05-.114.08-.17.13-.284.045-.104.077-.201.096-.293a.287.287 0 0 0-.004-.153.464.464 0 0 0-.11-.146l-.175-.174c-.239.155-.357.234-.596.39l-.148-.147zm.893-.337l.205.205c.094.094.155.153.187.18.061.05.123.085.178.101.055.016.11.018.165.005a.306.306 0 0 0 .136-.079.229.229 0 0 0 .061-.107.166.166 0 0 0-.009-.107.51.51 0 0 0-.104-.131l-.366-.366c-.183.118-.27.181-.453.3zM137.491 141.618l1.346-.88.465.464c.08.08.129.15.152.208a.327.327 0 0 1 .004.197.414.414 0 0 1-.109.189.565.565 0 0 1-.36.157.427.427 0 0 1-.155-.017.521.521 0 0 1-.129-.058 1.378 1.378 0 0 1-.24-.191l-.278-.278-.545.358a11.96 11.96 0 0 1-.151-.149zm.846-.308l.244.243a.76.76 0 0 0 .24.18c.065.025.133.03.201.015a.344.344 0 0 0 .173-.093.253.253 0 0 0 .07-.11.187.187 0 0 0-.01-.113.621.621 0 0 0-.13-.164l-.286-.286-.502.328zM138.313 142.44l1.745-.48.175.174-.93 1.297-.143-.144.266-.375-.453-.45c-.199.056-.299.083-.498.14l-.162-.161zm.842-.029l.367.368.234-.322c.094-.128.247-.31.247-.31-.002-.001-.2.079-.338.118l-.51.146zM140.71 144.054l.128.168a.846.846 0 0 1-.495.088.7.7 0 0 1-.399-.201.593.593 0 0 1-.196-.445c.003-.163.08-.323.234-.476a.99.99 0 0 1 .678-.314.74.74 0 0 1 .576.224.595.595 0 0 1 .19.381.528.528 0 0 1-.128.381l-.15-.123a.427.427 0 0 0 .089-.272.366.366 0 0 0-.117-.237.55.55 0 0 0-.513-.148.892.892 0 0 0-.48.261c-.114.115-.173.23-.177.347-.005.116.04.22.13.309.077.077.17.122.282.135a.602.602 0 0 0 .348-.078zM140.574 144.701c.537-.352.807-.53 1.345-.88l.147.147c-.26.168-.386.256-.646.426.455.027.685.043 1.143.07l.207.207-.971-.063-.28 1.038-.167-.167c.097-.354.148-.53.245-.883-.173-.011-.264-.02-.44-.032l-.435.286c-.058-.06-.09-.09-.148-.149z"/>
        </g>
        <g fill="#ffe6d5">
            <path d="M179.96 200.412c0 .057-.024.11-.062.152a.195.195 0 0 1-.141.061.19.19 0 0 1-.144-.053c-.05-.046-.075-.073-.124-.119a4.074 4.074 0 0 0-.188-.166c-.036-.03-.106-.087-.212-.16-.1-.07-.23-.131-.386-.201a3.106 3.106 0 0 0-.328-.135 1.742 1.742 0 0 0-.305-.024 1.284 1.284 0 0 0-.422.068 1.787 1.787 0 0 0-.428.2c-.12.08-.221.145-.277.196a3.626 3.626 0 0 0-.29.328c-.137.17-.227.289-.272.362a4.49 4.49 0 0 0-.187.372 4.13 4.13 0 0 0-.17.435 2.306 2.306 0 0 0-.088.42c-.02.154-.028.264-.022.33.007.067.038.189.095.358.055.161.122.296.206.4.08.103.15.183.197.221a1.999 1.999 0 0 0 .55.302c.134.052.253.094.36.122.103.027.191.047.24.05.04.002.08-.004.12-.008.035-.003.045-.001.08-.004a.191.191 0 0 1 .153.03.2.2 0 0 1 .085.132.194.194 0 0 1-.04.153.196.196 0 0 1-.124.081l-.093.015c-.074.008-.15.008-.227.002a1.871 1.871 0 0 1-.292-.055 3.33 3.33 0 0 1-.409-.136 2.464 2.464 0 0 1-.399-.186 1.776 1.776 0 0 1-.521-.465 1.704 1.704 0 0 1-.271-.528c-.068-.2-.11-.353-.12-.449a2.215 2.215 0 0 1 .031-.423c.024-.182.054-.352.102-.496.045-.14.113-.298.196-.476.082-.179.151-.314.206-.405.054-.092.154-.23.304-.415.15-.186.267-.31.336-.373.07-.064.177-.142.319-.236a2.05 2.05 0 0 1 .52-.242 1.82 1.82 0 0 1 .95-.054c.09.02.225.07.403.152.18.08.328.17.445.25.115.076.205.131.254.173.045.04.11.103.198.182.05.05.068.075.117.124.043.038.074.08.074.138zM179.454 204.623l-.084.016-.069-.048a.201.201 0 0 1-.083-.133.178.178 0 0 1 .035-.149l.107-.162c.074-.1.124-.18.153-.237.034-.067.09-.185.167-.352.08-.178.152-.35.223-.512.07-.16.163-.353.26-.572.1-.222.169-.39.214-.493a26.358 26.358 0 0 0 .353-.944c.02-.063.027-.097.047-.16a.212.212 0 0 1 .11-.113.19.19 0 0 1 .153-.008c.053.019.094.05.121.1a.168.168 0 0 1 .007.145l-.05.163-.174.483c-.08.217-.145.381-.193.491-.048.11-.236.452-.214.504 0 .002.018.006.027.01.067.022.16.048.259.084.098.036.176.072.235.099.059.026.17.076.33.151.15.072.297.135.434.193.137.059.243.11.32.14.069.029.182.067.327.118.153.054.255.093.298.106.053.016.168.072.183.066.003 0 .008-.017.01-.022.02-.05.049-.141.09-.263.046-.13.087-.234.112-.31.029-.084.081-.235.153-.438s.132-.362.181-.478c.05-.115.082-.193.097-.23.075-.172.2-.114.354.176l.024.06c-.024.114-.06.25-.11.396-.048.136-.098.245-.128.327-.02.055-.081.23-.184.514l-.262.724c-.08.222-.134.382-.165.477-.03.095-.09.264-.166.496-.075.232-.117.391-.138.462-.025.08-.062.181-.107.304a4.04 4.04 0 0 1-.12.297c-.017.035-.026.05-.044.084a.184.184 0 0 1-.117.098.209.209 0 0 1-.152-.008.179.179 0 0 1-.105-.116.21.21 0 0 1 .01-.162c.016-.032.028-.05.044-.082a2.79 2.79 0 0 0 .102-.251c.044-.119.074-.216.095-.286.022-.075.077-.233.153-.465.075-.232.127-.406.157-.5.028-.084.155-.354.134-.399-.003-.009-.057-.023-.082-.035-.05-.02-.096-.035-.134-.047-.045-.016-.152-.057-.314-.112-.157-.053-.275-.091-.352-.123-.077-.033-.184-.082-.321-.14-.137-.059-.286-.123-.445-.198-.156-.074-.263-.127-.316-.15a4.338 4.338 0 0 0-.22-.09c-.088-.032-.168-.062-.233-.081-.029-.008-.074-.027-.08-.024-.026.01-.07.144-.093.199-.065.154-.14.334-.22.514-.082.18-.145.308-.18.372-.037.075-.1.17-.18.286-.045.063-.067.095-.113.157a.206.206 0 0 1-.131.081zM183.81 206.625a.199.199 0 0 1-.152.039.2.2 0 0 1-.133-.087.178.178 0 0 1-.03-.148l.006-.079c.011-.054.025-.12.045-.194.02-.074.05-.182.1-.325.05-.142.099-.262.135-.358l.153-.391c.062-.162.145-.374.242-.618.097-.245.17-.433.213-.556.045-.124.083-.241.122-.35.039-.108.089-.236.138-.373.05-.132.094-.254.14-.372.045-.118.069-.188.08-.217l.02-.047a.21.21 0 0 1 .114-.117.192.192 0 0 1 .156-.003c.05.02.087.056.11.109a.21.21 0 0 1-.002.157c-.008.02-.008.03-.015.049-.01.028-.043.1-.088.218s-.085.236-.131.364c-.049.132-.098.256-.139.37-.04.113-.082.236-.127.359-.044.123-.109.306-.206.552-.092.237-.18.452-.248.628-.063.162-.116.293-.151.385-.036.092-.081.209-.128.345-.048.136-.084.236-.097.287-.015.056-.026.116-.037.166-.006.03-.006.045-.012.076a.174.174 0 0 1-.077.13zM186.438 207.467a.275.275 0 0 1 .106.034c.021.013.033.017.054.03l.03.033c.012.014.024.037.048.071a.3.3 0 0 1 .047.092c.007.03.001.063-.024.099a.254.254 0 0 1-.132.084.318.318 0 0 1-.106.019c-.026 0-.045-.003-.053-.01-.008-.006-.02-.025-.036-.035-.039-.026-.1-.043-.135-.063l-.165-.093a5.636 5.636 0 0 0-.292-.141 2.523 2.523 0 0 0-.251-.103c-.051-.016-.124-.05-.217-.088a2.468 2.468 0 0 1-.22-.1c-.05-.026-.103-.046-.151-.067-.054-.023-.103-.06-.145-.085a.269.269 0 0 1-.117-.143.23.23 0 0 1 .017-.207c.015-.021.028-.052.041-.083.014-.031.036-.068.057-.11.021-.043.06-.16.13-.335.07-.175.124-.32.164-.43.04-.111.099-.27.168-.472.073-.211.142-.41.208-.58.065-.171.137-.356.217-.549.079-.186.166-.378.246-.567.081-.19.147-.332.196-.423.057-.105.113-.186.159-.232.02-.018.034-.023.054-.042a.216.216 0 0 1 .15-.055.182.182 0 0 1 .135.065.196.196 0 0 1 .05.147.207.207 0 0 1-.061.138c-.02.018-.026.03-.047.048a.438.438 0 0 0-.074.116c-.043.083-.11.22-.19.402-.08.185-.166.373-.245.561-.078.189-.149.373-.214.54-.064.166-.131.35-.202.556-.071.207-.124.372-.165.488-.042.116-.103.26-.172.436-.07.176-.113.298-.134.348-.014.037-.051.092-.05.097.006.016.113.047.158.07.044.024.109.056.193.09l.207.082a4.71 4.71 0 0 1 .587.267l.173.093c-.001.004 0 .006.003.007zM189.305 208.634a.295.295 0 0 1 .11.038c.021.012.032.014.053.027l.027.03c.011.013.03.037.054.072.023.034.039.067.046.096.007.03-.002.064-.027.1a.25.25 0 0 1-.132.078.337.337 0 0 1-.108.02c-.027 0-.046-.001-.054-.007s-.016-.023-.03-.033c-.04-.027-.102-.045-.138-.064l-.17-.093a5.195 5.195 0 0 0-.288-.143 2.523 2.523 0 0 0-.251-.103c-.05-.015-.124-.048-.217-.087a2.47 2.47 0 0 1-.221-.102 3.61 3.61 0 0 0-.147-.07 1.91 1.91 0 0 1-.149-.078.278.278 0 0 1-.114-.147.228.228 0 0 1 .016-.207c.015-.02.024-.05.038-.081.013-.031.038-.072.06-.115.02-.042.06-.157.13-.332.07-.175.124-.319.164-.43.04-.111.097-.27.166-.472.073-.211.141-.41.207-.58.066-.17.137-.355.218-.548.078-.186.168-.378.25-.567.08-.19.145-.332.194-.424.057-.105.114-.183.16-.23l.05-.044a.212.212 0 0 1 .15-.054c.056.001.1.023.139.065a.196.196 0 0 1 .05.147.216.216 0 0 1-.062.142l-.048.043a.447.447 0 0 0-.073.116c-.043.083-.109.22-.189.403-.08.185-.167.373-.245.561-.078.189-.146.373-.211.539-.065.166-.132.352-.204.56-.071.207-.133.368-.174.484a16.11 16.11 0 0 1-.167.437c-.07.176-.112.295-.134.345-.014.037-.052.095-.05.1.005.016.113.046.158.07.044.023.11.056.194.09.094.037.164.069.21.085.054.02.147.054.27.11.129.057.23.112.31.154.085.046.147.077.176.094-.001.002 0 .004.003.005zM194.923 211.3c-.032-.06-.188-.203-.323-.406a2.507 2.507 0 0 1-.257-.46 3.781 3.781 0 0 1-.119-.446 2.518 2.518 0 0 1-.064-.549c.002-.166.028-.364.074-.58.048-.217.095-.385.135-.494.04-.109.134-.266.282-.483.147-.216.26-.368.34-.441a3.342 3.342 0 0 1 1.032-.588 3.03 3.03 0 0 1 .52-.147c.098-.013.193-.026.288-.03.107-.006.285.022.528.086.238.063.414.125.527.18a2.109 2.109 0 0 1 .84.903c.119.242.191.427.218.546.025.112.04.282.044.507a2.87 2.87 0 0 1-.043.585 4.3 4.3 0 0 1-.157.545 3.174 3.174 0 0 1-.192.476 4.069 4.069 0 0 1-.336.465c-.165.203-.293.34-.378.408-.08.063-.194.137-.338.214-.16.085-.34.15-.535.195a3.316 3.316 0 0 1-.417.077 7.028 7.028 0 0 1-.33.018c-.153.004-.283 0-.39-.017a1.763 1.763 0 0 1-.33-.088 1.923 1.923 0 0 1-.235-.098 1.048 1.048 0 0 1-.21-.155l-.112-.102c-.034-.032-.046-.094-.062-.12zm1.007.151c.058.027.198.019.327.016.136-.002.241-.009.307-.012.06-.005.176-.03.35-.072.159-.04.306-.088.43-.156.133-.072.227-.133.284-.177.059-.046.164-.163.311-.347.15-.187.25-.325.294-.402a2.46 2.46 0 0 0 .172-.41c.064-.189.115-.358.14-.494.026-.133.035-.301.034-.497a2.313 2.313 0 0 0-.032-.427c-.018-.084-.087-.235-.191-.446a1.585 1.585 0 0 0-.342-.482 2.013 2.013 0 0 0-.317-.242 2.194 2.194 0 0 0-.441-.145c-.207-.052-.347-.084-.41-.08-.075.004-.166.02-.25.03a2.55 2.55 0 0 0-.448.126c-.207.073-.39.159-.543.26a2.39 2.39 0 0 0-.326.24c-.06.056-.162.181-.29.37-.13.19-.208.33-.239.409a2.648 2.648 0 0 0-.12.43 2.487 2.487 0 0 0-.063.496c0 .134.013.29.05.457.037.171.08.306.111.39.028.075.1.202.217.38.119.177.203.288.25.329.05.045.126.109.229.185.095.069.19.127.274.16.062.025.089.032.151.057.028.014.061.045.08.054zM200.399 208.386a.186.186 0 0 1 .139-.067.182.182 0 0 1 .144.057c.04.042.062.09.066.144l.007.053c0 .076-.043.17-.12.285a3.955 3.955 0 0 0-.19.354c-.087.17-.17.355-.24.546a6.362 6.362 0 0 0-.203.722 9.632 9.632 0 0 0-.126.615 7.913 7.913 0 0 0-.037.515c-.013.22-.019.396-.008.523.01.134.034.29.07.453a1.267 1.267 0 0 0 .323.605.582.582 0 0 0 .15.092.753.753 0 0 0 .232.035c.11.004.214-.002.3-.023.096-.023.212-.068.338-.13.13-.064.227-.118.284-.161.058-.04.114-.095.17-.151.06-.06.162-.195.294-.402a4.74 4.74 0 0 0 .275-.476c.048-.104.11-.275.189-.509.078-.234.144-.433.192-.603a18.456 18.456 0 0 0 .25-.998 2.03 2.03 0 0 0 .028-.233c.006-.072.014-.124.014-.161-.003-.028-.006-.043-.008-.07a.21.21 0 0 1 .049-.152.178.178 0 0 1 .138-.07.211.211 0 0 1 .147.05.19.19 0 0 1 .068.139c.005.03.004.042.007.074.002.06-.002.141-.013.234-.009.087-.017.177-.033.262a8.452 8.452 0 0 1-.106.447c-.054.21-.1.407-.148.581-.048.178-.117.393-.2.636a6.371 6.371 0 0 1-.206.545 4.544 4.544 0 0 1-.305.527c-.152.234-.27.386-.343.459a2.014 2.014 0 0 1-.567.398 2.294 2.294 0 0 1-.415.153 1.433 1.433 0 0 1-.43.038 1.13 1.13 0 0 1-.348-.059 1.177 1.177 0 0 1-.527-.491 1.66 1.66 0 0 1-.192-.5 4.49 4.49 0 0 1-.085-.5 4.313 4.313 0 0 1 .006-.592c.014-.236.02-.423.04-.545.017-.124.065-.335.136-.642.073-.313.144-.578.22-.783.073-.2.16-.396.251-.582.092-.185.168-.328.225-.404a.3.3 0 0 0 .037-.066l-.003-.026a.253.253 0 0 1 .064-.146zM204.282 210.381a.186.186 0 0 1 0-.155.205.205 0 0 1 .266-.117l.076.031c.05.02.128.05.222.08.098.032.171.06.207.07.035.012.107.04.198.074.097.037.222.087.363.147.14.06.248.104.312.136.009.003.028.014.035.013.036-.008.125-.083.207-.054.095.033.112.166.135.2.026.041.228.092.355.135.164.058.282.096.346.114l.18.048c.056.015.143.042.247.066.106.025.19.039.244.05.036.008.052.008.089.016a.232.232 0 0 1 .123.097c.032.048.04.1.026.154a.205.205 0 0 1-.09.126.196.196 0 0 1-.152.029l-.084-.028c-.054-.012-.137-.027-.247-.05a4.745 4.745 0 0 1-.256-.06c-.06-.016-.126-.032-.196-.053a7.95 7.95 0 0 1-.37-.121c-.122-.044-.32-.143-.338-.133-.021.01-.052.167-.075.231-.03.082-.08.243-.154.472-.074.228-.167.505-.27.819-.103.314-.176.528-.21.64l-.148.476c-.063.204-.126.402-.18.593-.055.19-.087.32-.104.374-.02.061-.047.127-.081.194-.018.036-.025.054-.044.088a.188.188 0 0 1-.113.107.194.194 0 0 1-.153-.004.206.206 0 0 1-.106-.121.209.209 0 0 1 .005-.154l.042-.087a.802.802 0 0 0 .056-.141l.111-.37.177-.597c.061-.203.113-.36.148-.475.036-.115.11-.337.215-.655.102-.308.188-.58.26-.799.08-.237.131-.411.161-.496.024-.067.1-.229.086-.255-.003-.006-.033-.013-.048-.019l-.3-.13c-.136-.057-.258-.11-.345-.142l-.191-.07-.205-.067c-.098-.032-.182-.067-.238-.09l-.08-.031a.198.198 0 0 1-.114-.106z"/>
        </g>
    </g>
</svg>
