<svg cursor="default" version="1.1" viewBox="0 0 256 256" xmlns="http://www.w3.org/2000/svg" xmlns:xlink="http://www.w3.org/1999/xlink">
 <defs>
  <linearGradient id="linearGradient877">
   <stop stop-color="#ff8080" offset="0"/>
   <stop stop-color="#faa" offset="1"/>
  </linearGradient>
  <linearGradient id="linearGradient879" x1="46.5" x2="114.83" y1="216" y2="171.28" gradientUnits="userSpaceOnUse" xlink:href="#linearGradient877"/>
  <linearGradient id="linearGradient895" x1="96" x2="71.25" y1="53.75" y2="25" gradientUnits="userSpaceOnUse">
   <stop stop-color="#f95" offset="0"/>
   <stop stop-color="#ffb380" offset="1"/>
  </linearGradient>
  <linearGradient id="linearGradient903" x1="161.5" x2="180.25" y1="52.75" y2="30.5" gradientUnits="userSpaceOnUse">
   <stop stop-color="#f95" offset="0"/>
   <stop stop-color="#ffb380" offset="1"/>
  </linearGradient>
  <linearGradient id="linearGradient911" x1="128.71" x2="128.69" y1="244.11" y2="233.55" gradientUnits="userSpaceOnUse">
   <stop stop-color="#ffe680" offset="0"/>
   <stop stop-color="#fea" offset="1"/>
  </linearGradient>
  <linearGradient id="linearGradient919" x1="61.25" x2="91" y1="155.75" y2="128.75" gradientUnits="userSpaceOnUse">
   <stop stop-color="#f95" offset="0"/>
   <stop stop-color="#ffb380" offset="1"/>
  </linearGradient>
  <linearGradient id="linearGradient927" x1="185.75" x2="164.25" y1="158" y2="124.25" gradientUnits="userSpaceOnUse">
   <stop stop-color="#f95" offset="0"/>
   <stop stop-color="#ffb380" offset="1"/>
  </linearGradient>
  <linearGradient id="linearGradient981" x1="210" x2="141.5" y1="224.25" y2="171.28" gradientUnits="userSpaceOnUse" xlink:href="#linearGradient877"/>
 </defs>
 <g>
  <g stroke="#000" stroke-width=".75">
   <g>
    <path d="m73.549 10.259c-0.78174 0.02716-1.4858 0.24452-2.1013 0.67932 0 0-8.5893 1.8592-13.973 26.468 0 0-3.5882 23.07-1.9219 42.04 0 0-3.5878 1.9226-8.0738 32.3-1.6213 10.979-7.1121 41.652 21.019 65.555 24.083 20.463 29.044 28.806 30.574 49.785 0 0-1.2684 17.765 16.133 18.671 0 0 8.1437-1.7086 12.215-1.6561 0.0583 7.6e-4 0.13417 9e-3 0.19409 0.0108v-192.03c-2.0315 0.07651-4.3234 0.3972-6.8206 1.1498 0 0-4.2301 1.3461-6.6013-0.70464-0.0146-0.07758-28.917-42.679-40.643-42.272zm-14.288 101.2c15.332 8.2413 24.533 9.3466 31.774 11.115 20.821 5.0843 22.205 20.206 19.122 24.378-3.3444 4.527-11.634 4.0009-16.188 2.8742-17.476-4.1909-27.485-19.475-34.708-38.367z" fill="url(#linearGradient879)"/>
    <path d="m51.175 125.14s10.829 4.7405 16.506 16.532c4.1835 8.689 6.8203 10.875 18.675 13.188 7.8689 1.5357 15.148 1.6879 20.764 4.7221 4.1875 2.2624 4.8504 3.8851 7.7082 11.695 0 0-5.1782-4.5368-25.381-2.1095-18.933 2.2748-27.712-14.382-29.821-27.81-1.3344-8.4966-5.2544-14.104-8.4516-16.218z" fill="#fea" stroke-linejoin="round"/>
    <path d="m55.851 102.88c3.1065 26.008 17.23 44.024 36.278 48.304 6.7273 1.5116 16.128 2.823 19.926-3.0759 3.5322-5.4861 4.3004-22.948-26.388-30.365-9.3236-2.2532-24.107-3.5339-29.816-14.863zm5.3544 10.791c4.9901 8.3297 22.054 7.8494 29.295 9.6176 20.821 5.0843 20.958 18.543 17.875 22.715-3.3444 4.527-10.749 3.2925-15.303 2.1658-17.653-4.3677-24.644-15.607-31.867-34.498z" fill="url(#linearGradient919)"/>
    <path d="m116.75 232.15s3.9559-14.409 6.0202-26.594c1.4847-8.764 1.7342-46.961 1.7984-53.281 0.19019-18.732-0.17011-32.894-4.8706-45.926-6.4225-17.807-6.2463-17.775-2.7557-44.155 0 0 5.5755-1.7944 4.2938-8.9721 0 0 2.5291-1.1076 6.6577-1.1306l-0.27633 178.71s-5.0997-0.44861-10.867 1.3458z" fill="#ffb380"/>
   </g>
   <g stroke-linejoin="round">
    <path d="m67.435 81.996c-0.27268-0.21814 14.178-21.539 33.262-23.474 1.1102-0.55206 2.3481-21.243-28.368-41.872-9.4938 10.872-11.059 29.071-10.435 41.414 6.1434 7.6264 2.0598 15.88 5.5405 23.931z" fill="url(#linearGradient895)"/>
    <path d="m100.7 58.523c-0.0134-0.02723-21.213-22.75-37.112-11.23-5.0019 3.6243-5.0631 14.619 1.9303 19.374-7.0104 1.4271-10.632 13.472 1.8665 20.885 7.2901-11.237 22.769-26.396 33.315-29.028z" fill="#fea"/>
    <path d="m66.945 101.78c2.4207 2.8494 6.3755 2.6192 7.3699 2.6276 17.51 0.1466 20.722 4.2488 24.673 11.471 4.7762 9.415 15.825 8.8205 13.042-2.1789-0.39675-1.2569-1.5726-18.556-33.421-13.33 0 0-6.5368 1.6662-10.959-0.3204l-3.7811-1.8906z" fill="#fea"/>
   </g>
   <g>
    <path d="m182.77 10.259c-11.726-0.40736-40.629 42.195-40.643 42.272-2.3712 2.0508-6.6013 0.70464-6.6013 0.70464-2.4972-0.75258-4.7891-1.0733-6.8206-1.1498v192.03c0.0599-2e-3 0.13576-0.01 0.19409-0.0108 4.0715-0.0525 12.215 1.6561 12.215 1.6561 17.401-0.90633 16.133-18.671 16.133-18.671 1.5301-20.979 6.4908-29.322 30.574-49.785 28.131-23.903 22.64-54.576 21.019-65.555-4.486-30.377-8.0738-32.3-8.0738-32.3 1.6662-18.97-1.922-42.04-1.922-42.04-5.3832-24.609-13.973-26.468-13.973-26.468-0.61541-0.43481-1.3195-0.65217-2.1013-0.67932zm13.758 101.02c-6.3391 18.892-12.987 33.203-30.64 37.571-4.5539 1.1267-16.379 2.625-19.724-1.9019-3.0822-4.172-1.7005-19.293 19.12-24.378 7.2406-1.7681 22.806-5.0831 31.243-11.292z" fill="url(#linearGradient981)"/>
    <path d="m205.15 125.14s-10.829 4.7405-16.506 16.532c-4.1834 8.689-6.8203 10.875-18.675 13.188-7.8689 1.5357-15.148 1.6879-20.764 4.7221-4.1875 2.2624-4.8504 3.8851-7.7082 11.695 0 0 5.1782-4.5368 25.381-2.1095 18.933 2.2748 27.712-14.382 29.821-27.81 1.3344-8.4966 5.2544-14.104 8.4516-16.218z" fill="#fea" stroke-linejoin="round"/>
    <path d="m139.58 232.15s-3.9559-14.409-6.0202-26.594c-1.4847-8.764-1.7342-46.961-1.7984-53.281-0.19018-18.732 0.17012-32.894 4.8706-45.926 6.4225-17.807 6.2463-17.775 2.7557-44.155 0 0-5.5755-1.7944-4.2938-8.9721 0 0-2.4076-1.1076-6.5362-1.1306l0.15481 178.71s5.0997-0.44861 10.867 1.3458z" fill="#ffb380"/>
   </g>
   <g stroke-linejoin="round">
    <path d="m189.38 101.78c-2.4207 2.8494-6.3755 2.6192-7.3699 2.6276-17.51 0.1466-20.722 4.2488-24.673 11.471-4.7762 9.415-15.825 8.8205-13.042-2.1789 0.39675-1.2569 1.5726-18.556 33.421-13.33 0 0 6.5368 1.6662 10.959-0.3204l3.7811-1.8906z" fill="#fea"/>
    <path d="m189.13 81.996c0.27268-0.21814-14.178-21.539-33.262-23.474-1.1102-0.55206-2.3481-21.243 28.368-41.872 9.4938 10.872 11.059 29.071 10.435 41.414-6.1434 7.6264-2.0598 15.88-5.5405 23.931z" fill="url(#linearGradient903)"/>
    <path d="m155.83 58.523c0.0134-0.02723 21.213-22.75 37.112-11.23 5.0019 3.6243 5.0631 14.619-1.9303 19.374 7.0104 1.4271 10.632 13.472-1.8665 20.885-7.2901-11.237-22.769-26.396-33.315-29.028z" fill="#fea"/>
   </g>
   <path d="m200.49 102.88c-3.1065 26.008-17.23 44.024-36.278 48.304-6.7273 1.5116-16.128 2.823-19.926-3.0759-3.5322-5.4861-4.3004-22.948 26.388-30.365 9.3236-2.2532 24.107-3.5339 29.816-14.863zm-5.3544 10.791c-4.9901 8.3297-22.054 7.8494-29.295 9.6176-20.821 5.0843-20.958 18.543-17.875 22.715 3.3445 4.527 10.749 3.2925 15.303 2.1658 17.653-4.3677 24.644-15.607 31.867-34.498z" fill="url(#linearGradient927)"/>
  </g>
  <path d="m126.62 231.33s1.3425 0.27361 3.0758 0l0.65039-178.78s-2.3552-0.2096-4.3178 0z" fill="#ffb380"/>
  <g stroke-width=".75">
   <path d="m141.04 245.76h5e-5s9.5065-10.33-1.7456-15.537c0 0-6.9113-2.9362-11.256 1.0729-4.3449-4.0091-11.085-1.0729-11.085-1.0729-11.252 5.2073-1.7456 15.537-1.7456 15.537h-1e-5c6.8127-1.8237 12.966-1.579 12.966-1.579s6.0537-0.24465 12.866 1.579z" fill="url(#linearGradient911)" stroke="#000"/>
   <ellipse cx="128.28" cy="82.971" rx="23.76" ry="23.76" fill="#ffb380" stroke="#000004" stroke-linecap="round" stroke-linejoin="round" style="paint-order:normal"/>
   <circle cx="128.22" cy="83.029" r="18.352" fill="#fea" stroke="#000004" stroke-linecap="round" stroke-linejoin="round" style="paint-order:normal"/>
  </g>
  <path d="m118.96 103.6c0.19642 0.38183-2e-3 0.15906 0.4497 0.73158 0.39342 0.4989 0.63447 1.6956 1.2806 2.8733l6.7531 1.45 8.3312-1.9226c0.4714-0.59398 0.77868-2.0802 1.2633-2.5738 0.53756-0.54749 0.41899-0.68391 0.75545-1.3355z" fill="#ffb380"/>
  <path d="m120.37 59.984c-1.2015 1.8396-2.2533 2.7874-2.9463 2.307-0.49596-0.3438 21.07 0.22403 21.07 0.22403-0.0351 0.2106-2.8815-2.724-3.0485-3.2615-0.0877-1.0057-13.036-1.3385-13.083-0.16463z" fill="#ffb380"/>
  <g fill="#fff6d5">
   <path d="m110.38 114.75c-0.31351-0.79006-0.83702-2.385-1.513-3.8646-0.70708-1.5477-1.467-2.7832-2.0223-3.4448-0.43022-0.51264-1.1069-1.2119-1.9928-1.9362-3.3464-2.7362-6.8143-3.6478-9.8469-4.2543 1.1576 0.23153 2.864 0.75156 4.6399 1.6905 1.8057 0.95476 3.2705 2.1149 4.4977 3.3481 0.76566 0.76942 1.3407 1.4676 1.7479 1.9527 0.62453 0.74418 1.3729 1.4734 2.4373 2.9559 0.961 1.3384 1.7133 2.6987 2.0522 3.5527z"/>
   <path d="m146.56 114.38c0.33889-0.85403 1.0912-2.2143 2.0522-3.5527 1.0644-1.4824 1.8128-2.2117 2.4373-2.9559 0.40716-0.48517 0.98222-1.1833 1.7479-1.9527 2.7929-2.8066 6.1551-4.4422 9.1376-5.0387-3.0326 0.60652-6.5005 1.5182-9.8469 4.2543-0.8859 0.72436-1.5626 1.4236-1.9928 1.9362-0.55528 0.66166-1.3152 1.8972-2.0223 3.4448-0.67597 1.4796-1.1995 3.0746-1.513 3.8646z"/>
   <path d="m144.69 88.25c0.0984-2.8606 0.15283-6.4546-1.4789-10.564-1.1241-2.8308-2.6903-4.8791-3.7511-5.9061-0.49895-0.48301-1.1855-1.0574-2.039-1.6402-2.2268-1.5205-4.9995-2.6986-7.9145-3.171-3.3703-0.54611-5.5652 0.03661-6.8164 0.40611 1.2466-0.36816 3.5576-0.43854 6.5564 0.62218 2.6432 0.93494 4.9195 2.4209 6.7597 3.9997 0.70624 0.60594 1.2662 1.1518 1.7117 1.583 0.94275 0.91263 2.6339 2.3941 4.1489 4.7855 2.1373 3.3737 2.9197 7.0873 2.8234 9.8846z"/>
  </g>
 </g>
</svg>
