<svg version="1.1" viewBox="0 0 64 64" xmlns="http://www.w3.org/2000/svg">
 <g transform="matrix(2.1436 0 0 2.1436 -39.191 -40.498)" stroke="#000">
  <path d="m37.137 37.714c-3.7783-1.6248-5.2611 0.52088-6.158 2.5657-1.5796 3.601 2.1721 7.2491 5.7541 7.7943 5.0351 0.76646 7.8636-5.0259 7.3104-7.3168-0.68246-2.8262-3.2146-4.3811-6.9065-3.0432z" fill="#faa" stroke-width=".75"/>
  <path d="m29.21 35.354c-0.65462-2.1015-4.1993-3.8457-6.36-1.9219-4.5318 4.0349-1.2659 9.3803 1.257 11.074 2.1885 1.4695 3.7781 1.5028 5.8173 0.5539-2.4748-4.4854 1.0559-7.9454 2.6377-8.7288-0.32216-0.70307-1.485-1.3517-3.3521-0.97754z" fill="#faa" stroke-width=".75"/>
  <path d="m30.234 33.274c3.9827-5.2132 0.0074-4.7647 4.4975-13.497l1.6157 0.62989c-0.45446 7.6867 4.9611 9.0461 1.5686 16.02-0.2717 0.55852-1.0991 0.06885-0.85476-0.64679 2.1046-6.1646-1.5308-7.3303-2.0793-12.847-2.2627 5.9151-0.46062 7.5352-4.2792 11.211-0.41998 0.40427-1.0388-0.12391-0.46844-0.87055z" fill="#ff2a2a" stroke-width=".5"/>
  <path d="m37.005 21.582c6.3232-1.8989 9.3659 6.9408 9.1025 9.4865-5.5454-0.32203-8.7712-3.0598-9.1025-9.4865z" fill="#ff8080" stroke-width=".6"/>
 </g>
 <path d="m47.641 42.485c0.76621 0.18801 1.6391 0.88464 2.1687 1.8263 0.40128 0.71351 0.54085 1.4227 0.70042 1.7578 0.05594 0.11752 0.13884 0.26139 0.23635 0.43127 0.66303 1.1551 1.5735 3.9007 1.4723 4.777 0.15063-1.3054 0.98569-3.1639 0.39575-5.4951-0.06229-0.24606-0.13582-0.4544-0.21187-0.61414-0.22664-0.47603-0.86222-1.1903-1.7578-1.7207-1.2207-0.72288-2.1991-0.76494-3.004-0.96243z" fill="#ffd5d5" stroke-width="2.1436"/>
 <path d="m12.69 31.658c0.77122-0.14506 1.9365-0.09562 3.0634 0.28778 1.1263 0.38319 1.7954 0.92922 2.2469 1.2209 0.0084 0.0053 0.01665 0.01078 0.02462 0.01562 0.78548 0.49708 2.9822 2.3179 3.2394 3.1987-0.15176-0.51976-0.26154-1.2914-0.78219-2.2966-0.50282-0.97094-1.1934-1.7118-1.7299-2.0513-0.0099-0.0062-0.01993-0.01237-0.03023-0.0189-0.54961-0.33552-1.5766-0.67939-2.851-0.72784-1.3523-0.05141-2.362 0.21738-3.1811 0.37144z" fill="#ffd5d5" stroke-width="2.1436"/>
 <path d="m40.739 6.2991c6.8728 5.4391 13.061 11.734 18.384 19.111" fill="none" stroke="#f55" stroke-width=".5359"/>
</svg>
