<svg version="1.1" viewBox="0 0 64 64" xmlns="http://www.w3.org/2000/svg">
 <path d="m49.104 34.717c6.1817-1.0366 11.487 3.3214 11.07 9.9026-0.50433 7.9742-10.536 10.456-13.78 7.0066l0.65395-1.8217c5.0959 3.3767 10.814-0.94 11.024-5.2315 0.29217-5.9814-4.1743-8.9623-8.9684-7.8941z" fill="#faa" stroke="#000" stroke-linecap="round" stroke-linejoin="round" stroke-width=".97436"/>
 <path d="m21.282 22.254c-8.0209-1.407-5.4759-2.6834 1.9487-3.8974 7.752-1.2394 9.6968-2.5275 1.9487-3.8974-7.2297-1.3056-6.4035-2.6054 1.9487-3.8974 8.4808-1.3017 9.0596-2.6015 1.9487-3.8974-7.0154-1.2862-6.6412-2.584 1.9487-3.8974-7.0017 1.2862-6.6549 2.584 1.9487 3.8974 7.8631 1.2491 9.6013 2.5411 1.9487 3.8974-6.7893 1.2667-6.8848 2.5606 1.9487 3.8974 7.2629 1.2024 10.094 2.471 1.9487 3.8974-7.1459 1.2998-6.497 2.5996 1.9487 3.8974z" fill="#f9f9f9" stroke-width="1.9487"/>
 <g transform="matrix(1.9487 0 0 1.9487 -26.286 -30.4)">
  <ellipse cx="29.381" cy="30.525" rx="9.7705" ry="2.2366" fill="#faa" stroke="#000" stroke-linecap="round" stroke-linejoin="round" stroke-width=".50135"/>
  <ellipse cx="29.35" cy="31.309" rx="9.4692" ry="1.7196" fill="#ff2a2a"/>
  <path d="m22.021 45.206c-1.887-4.8127-2.4065-11.003-2.4076-14.686 0.2928 2.515 19.801 1.9782 19.517 0.1288 0.12927 4.813-0.94941 10.016-2.3145 14.371-0.94772 2.0914-12.501 2.6096-14.795 0.18644z" fill="#faa"/>
 </g>
 <g stroke-width="1.9487">
  <path d="m17.246 57.326c9.1099 4.7003 22.753 2.1315 27.348 0.06605 2.5448-7.6292 4.1691-17.286 4.558-25.961" fill="none" stroke="#f55" stroke-linejoin="round"/>
  <path d="m22.974 42.944c-1.4323-5.7253 6.8342-5.7097 8.0502-1.2004 0.96656-4.5522 8.6796-4.56 7.6974 1.3933-0.7522 4.5658-6.3976 4.4353-8.0677 11.221-1.4343-6.7659-6.5652-6.9569-7.6779-11.414z" fill="#f55" fill-rule="evenodd"/>
  <path d="m49.767 31.061c-8.3039 4.197-32.012 3.0564-37.144 0.0387 1.1293 8.7926 1.4948 16.233 4.9544 26.356" fill="none" stroke="#ffd5d5" stroke-linejoin="round"/>
 </g>
 <path d="m16.627 57.694c-3.6772-9.3786-4.6896-21.442-4.6917-28.619 0.57058 4.901 38.587 3.855 38.033 0.25099 0.25191 9.3792-1.8501 19.518-4.5103 28.005-1.8468 4.0755-24.361 5.0854-28.831 0.36332z" fill="none" stroke="#000" stroke-linecap="round" stroke-linejoin="round" stroke-width=".97436"/>
</svg>
