<svg version="1.1" viewBox="0 0 64 64" xmlns="http://www.w3.org/2000/svg">
 <g fill="#f55" fill-rule="evenodd" stroke="#000" stroke-width=".70864">
  <path d="m58.932 33.403c-3.9785 8.0941-12.661 10.842-19.406 7.0806-7.9481-4.4306-10.34-18.221-21.525-28.879 15.368 3.1501 26.581-1.6441 34.943 1.9431 7.4087 3.1767 9.5399 12.629 5.9891 19.854z"/>
  <path d="m12.07 49.42c-5.4388-0.43771-8.9168-4.7114-8.301-9.3432 0.72457-5.4574 7.9504-9.871 11.459-18.534 1.6466 9.347 6.8386 14.589 6.6805 20.092-0.13909 4.8749-4.983 8.1768-9.8377 7.7864z"/>
  <path d="m35.079 58.361c-4.193 1.6594-8.3311-0.24126-9.5642-3.9009-1.4534-4.3114 2.2953-10.22 1.7368-17.925 4.6308 6.331 10.393 8.3246 12.283 12.463 1.6751 3.666-0.71257 7.8815-4.4552 9.3629z"/>
 </g>
 <g transform="matrix(1.7716 0 0 1.7716 -24.808 -27.129)" fill="#ffd5d5">
  <path d="m37.424 23.186c1.0373-0.15234 2.5281-0.09327 3.9782 0.44731 1.4183 0.52873 2.258 1.2954 2.7636 1.7206 1.7e-5 1.5e-5 5e-3 0.0042 0.0051 0.0042 0.54494 0.45772 1.3364 1.0834 2.0242 2.1845 0.66652 1.067 0.91631 2.1136 0.92392 2.762-0.0078-0.66182 0.01432-1.6935-0.44879-2.9897-0.45844-1.2831-1.2123-2.2526-1.8185-2.7648-0.0019-0.0016-0.0039-0.0033-0.0058-0.0049-0.58319-0.49046-1.7289-1.1389-3.3052-1.4225-1.6503-0.29694-3.054-0.09276-4.1165 0.06329z"/>
  <path d="m32.785 40.605c0.51403 0.23024 1.1358 0.71344 1.5762 1.4191 0.40242 0.64486 0.51864 1.2368 0.6112 1.5707 0.0088 0.03189 0.01887 0.06659 0.02976 0.10395 0.12439 0.42687 0.27509 0.96202 0.28461 1.659 0.0095 0.69605-0.13658 1.2357-0.28543 1.503 0.1556-0.27938 0.44143-0.71781 0.62214-1.4636 0.17068-0.70447 0.16327-1.383 0.05811-1.8688-0.0095-0.04407-0.01958-0.08481-0.02985-0.12186-0.10742-0.38745-0.4222-1.0288-1.0044-1.6119-0.65479-0.65583-1.3363-0.95394-1.8624-1.1896z"/>
  <path d="m23.293 32.36c0.49891 0.9288 1.0373 2.28 1.2782 3.6321 0.23586 1.3233 0.12038 2.2092 0.06069 2.7266-0.0031 0.02696-6e-3 0.05245-0.0086 0.07659-0.059 0.5442-0.0934 1.1339-0.35909 1.9017-0.23571 0.6811-0.56756 1.2022-0.76832 1.4184 0.19779-0.21297 0.67426-0.60919 1.1038-1.2495 0.45658-0.68075 0.70915-1.4251 0.77035-1.9895 0.0029-0.02716 0.0056-0.05596 8e-3 -0.08634 0.04558-0.58602-0.02821-1.575-0.45741-2.8861-0.457-1.3961-1.104-2.5691-1.6276-3.5438z"/>
 </g>
</svg>
