<svg xmlns="http://www.w3.org/2000/svg" viewBox="0 0 256 256">
    <g stroke="#231f20" stroke-linejoin="round" stroke-miterlimit="10" stroke-width="1.353">
        <path fill="#ff2a2a" d="M130.293 68.468l-6.141-6.833c-5.186 5.89-7.991 12.061-9.151 18.188-9.186 11.858-24.315 14.354-32.754 10.711l2.116 3.999c10.5 3 26.289-2.564 29.985-7.706v-.002c.001 23.117 20.138 43.77 20.138 43.77l9.381-5.625c0-.002-33.216-33.503-13.574-56.502z" transform="matrix(1.4781 0 0 1.47778 -60.794 -84.583)"/>
        <path fill="#ffd5d5" d="M83.845 70.508c-10.025-3.964-23.358 1.02-23.358 1.02-.001 0 3.49 1.417 4.202 6.364.966 6.711 5.503 8.263 5.503 8.263-6.871 1.95-11.471 7.536-15.16 11.333-2.256 2.323-5.149 3.843-5.149 3.844 0 0 3.05.063 5.603 1.04 5.25 2.011 13.04 5.656 20.407 4.937 0 0-4.321 4.316-3.683 9.915.549 4.821-1.135 8.167-1.135 8.167s12.941.414 21.058-6.794c3.38 3.988 7.544 6.136 7.544 6.136s10.333-21.599-5.787-31.221c8.186-16.076-5.168-31.166-5.168-31.166s-3.105 3.436-4.877 8.162z" transform="matrix(1.4781 0 0 1.47778 -60.794 -84.583)"/>
    </g>
    <g stroke-width=".677" transform="matrix(1.4781 0 0 1.47778 -60.794 -84.583)">
        <circle cx="154.858" cy="118.856" r="20.5" fill="#faa" stroke="#231f20" stroke-miterlimit="10" stroke-width="1.353"/>
        <circle cx="118.715" cy="131.215" r="20.5" fill="#ff8080" stroke="#231f20" stroke-miterlimit="10" stroke-width="1.353"/>
        <circle cx="107.928" cy="159.856" r="20.5" fill="#f55" stroke="#231f20" stroke-miterlimit="10" stroke-width="1.353"/>
        <path fill="#fff" d="M104.25 142.292s-5.447 0-10 5.875c-4.554 5.875-4.75 12.125-4.75 12.125s1.686-6.111 5.928-11.25c3.742-4.533 8.822-6.75 8.822-6.75z"/>
        <circle cx="185.072" cy="131.215" r="20.5" fill="#ff8080" stroke="#231f20" stroke-miterlimit="10" stroke-width="1.353"/>
        <path fill="#fff" d="M181.857 114.959s-5.447 0-10 5.875c-4.555 5.875-4.75 12.125-4.75 12.125s1.686-6.111 5.928-11.25c3.742-4.533 8.822-6.75 8.822-6.75z"/>
        <circle cx="181.857" cy="155.786" r="20.5" fill="#f55" stroke="#231f20" stroke-miterlimit="10" stroke-width="1.353"/>
        <circle cx="157.857" cy="137.215" r="20.5" fill="#f55" stroke="#231f20" stroke-miterlimit="10" stroke-width="1.353"/>
        <path fill="#fff" d="M153.459 120.334s-5.447 0-10 5.875c-4.555 5.875-4.75 12.125-4.75 12.125s1.686-6.111 5.928-11.25c3.742-4.533 8.822-6.75 8.822-6.75z"/>
        <circle cx="123.572" cy="146.929" r="20.5" fill="#ff8080" stroke="#231f20" stroke-miterlimit="10" stroke-width="1.353"/>
        <circle cx="173.358" cy="182.071" r="20.5" fill="#faa" stroke="#231f20" stroke-miterlimit="10" stroke-width="1.353"/>
        <circle cx="163.428" cy="205.571" r="20.5" fill="#f55" stroke="#231f20" stroke-miterlimit="10" stroke-width="1.353"/>
        <circle cx="123.572" cy="173.786" r="20.5" fill="#faa" stroke="#231f20" stroke-miterlimit="10" stroke-width="1.353"/>
        <circle cx="144.072" cy="192.571" r="20.5" fill="#ff8080" stroke="#231f20" stroke-miterlimit="10" stroke-width="1.353"/>
        <path fill="#fff" d="M140.392 175.536s-5.447 0-10 5.875c-4.554 5.875-4.75 12.125-4.75 12.125s1.686-6.111 5.928-11.25c3.742-4.533 8.822-6.75 8.822-6.75z"/>
        <circle cx="152.857" cy="167.428" r="20.5" fill="#ff8080" stroke="#231f20" stroke-miterlimit="10" stroke-width="1.353"/>
    </g>
    <g fill="#fff" stroke-width=".677">
        <path d="M111.158 83.822s-8.05 0-14.781 8.682c-6.732 8.682-7.021 17.918-7.021 17.918s2.492-9.03 8.763-16.625c5.531-6.699 13.039-9.975 13.039-9.975zM117.686 108.054s-8.05 0-14.78 8.682c-6.732 8.682-7.022 17.918-7.022 17.918s2.492-9.03 8.763-16.625c5.53-6.698 13.04-9.975 13.04-9.975zM117.686 145.634s-8.05 0-14.78 8.682c-6.732 8.682-7.022 17.918-7.022 17.918s2.492-9.03 8.763-16.625c5.53-6.698 13.04-9.975 13.04-9.975zM160.49 137.057s-8.05 0-14.78 8.682c-6.733 8.682-7.021 17.918-7.021 17.918s2.492-9.03 8.762-16.625c5.531-6.698 13.04-9.975 13.04-9.975zM164.035 66.643s-8.051 0-14.78 8.682c-6.734 8.681-7.022 17.918-7.022 17.918s2.492-9.031 8.762-16.625c5.531-6.7 13.04-9.975 13.04-9.975z"/>
    </g>
</svg>
