<svg version="1.1" viewBox="0 0 64 64" xmlns="http://www.w3.org/2000/svg">
 <g transform="matrix(2.4368 0 0 2.3579 -119.8 -47.167)" fill="#faa" stroke="#000" stroke-linecap="round" stroke-linejoin="round" stroke-width=".24451">
  <path d="m71.506 33.907 2.1228 3.8416-2.1249 3.8403-4.2476-0.0013-2.1228-3.8416 2.1249-3.8403z"/>
  <path d="m64.472 29.575 2.1228 3.8416-2.1249 3.8403-4.2476-0.0013-2.1228-3.8416 2.1249-3.8403z"/>
  <path d="m57.354 33.839 2.1228 3.8416-2.1249 3.8403-4.2476-0.0013-2.1228-3.8416 2.1249-3.8403z"/>
  <path d="m64.41 38.135 2.1228 3.8416-2.1249 3.8403-4.2476-0.0013-2.1228-3.8416 2.1249-3.8403z"/>
  <path d="m53.242 33.039-2.1228-3.8416 2.1249-3.8403 4.2476 0.0013 2.1228 3.8416-2.1249 3.8403z"/>
  <path d="m67.394 33.107-2.1228-3.8416 2.1249-3.8403 4.2476 0.0013 2.1228 3.8416-2.1249 3.8403z"/>
  <path d="m60.337 28.811-2.1228-3.8416 2.1249-3.8403 4.2476 0.0013 2.1228 3.8416-2.1249 3.8403z"/>
 </g>
</svg>
