<svg version="1.1" viewBox="0 0 64 64" xmlns="http://www.w3.org/2000/svg">
 <g transform="matrix(1.2705 0 0 1.2705 -9.5527 -8.6393)" fill="#ff8080" fill-rule="evenodd" stroke="#000" stroke-width=".78709">
  <path d="m14.55 37.852c-8.33-0.095-6.247-12.694-2.198-13.855 1.138-1.927 2.208-2.955 2.208-2.955s1.39 1.398 2.431 2.953c4.347 0.976 5.097 13.943-2.441 13.857zm6.59 14.011c-2.626-0.48-4.946-5.043-4.91-6.641 0.082-3.663 8.016-15.979 15.61-15.766 8.775 0.246 12.876 12.527 13.846 16.72 0.66 2.851-2.66 6.152-5.952 6.449-2.68 0.24-4.596-2.333-7.676-3.18-2.572-0.709-8.258 2.905-10.918 2.418zm6.393-23.67c-8.31 0.564-7.227-12.16-3.283-13.638 0.983-2.01 1.968-3.12 1.968-3.12s1.497 1.284 2.657 2.752c4.41 0.63 6.18 13.496-1.342 14.006zm12.775 0.995c-8.244-1.197-4.516-13.41-0.35-14.025 1.382-1.758 2.578-2.636 2.578-2.636s1.194 1.57 2.02 3.25c4.18 1.543 3.212 14.495-4.248 13.411zm8.502 11.732c-7.957-2.466-2.382-13.95 1.83-13.91 1.637-1.522 2.955-2.203 2.955-2.203s0.936 1.737 1.492 3.524c3.89 2.176 0.926 14.82-6.276 12.589z" stroke-width=".78709"/>
 </g>
</svg>
