<svg xmlns="http://www.w3.org/2000/svg" viewBox="0 0 64 64">
    <path fill="#fff" stroke-width=".194" d="M32.799 30.253c1.431 2.41 4.854-1.058 3.349-2.54-1.276-1.373-2.707-.967-3.302.936-.13.455-.521 1.236-.047 1.604z"/>
    <path style="font-variation-settings:normal;-inkscape-stroke:none" fill="#ff8080" stroke="#000" stroke-linecap="round" stroke-linejoin="bevel" d="M37.072 19.762c-1.624-.55-4.346-.65-4.644 1.49l-1.064 2.73c1.343.522 2.728.977 3.664 2.14.733 1.25 1.37-.36 2.045-.866.955-.955 2.16-1.874 1.336-3.38-.253-.808-.801-1.477-1.337-2.114z" opacity=".999"/>
    <ellipse style="font-variation-settings:normal;-inkscape-stroke:none" cx="45.233" cy=".182" fill="#ff8080" stroke="#000" stroke-linecap="round" stroke-linejoin="bevel" opacity=".999" rx="2.553" ry="2.389" transform="rotate(32.423)"/>
    <ellipse style="font-variation-settings:normal;-inkscape-stroke:none" cx="-38.545" cy=".182" fill="#ff8080" stroke="#000" stroke-linecap="round" stroke-linejoin="bevel" opacity=".999" rx="2.553" ry="2.389" transform="scale(-1 1) rotate(-32.423)"/>
    <path style="font-variation-settings:normal;-inkscape-stroke:none" fill="#ff8080" stroke="#000" stroke-linecap="round" stroke-linejoin="bevel" d="M30.147 30.67c-1.665-1.503-2.435-.324-3.014 1.564-3.566 7.151-9.371 12.846-13.54 19.615-1.79 1.796-1.79 7.322 1.83 5.297 3.633-2.682 5.049-7.231 7.305-10.967 2.607-5.01 5.233-10.068 9.03-14.304l-1.611-1.206zM34.395 30.763c1.111-1.346 2.042-1.385 3.235-.175 3.429 2.304 6.805 4.678 9.993 7.308 2.813 2.176 6.032 3.737 9.175 5.347 3.122 1.43 1.07 4.856-1.741 4.346-4.4.022-8.852-1.479-12.41-4.055-4.228-3.097-5.974-8.275-8.252-12.77z" opacity=".999"/>
    <path style="font-variation-settings:normal;-inkscape-stroke:none" fill="#ff8080" stroke="#000" stroke-linecap="round" stroke-linejoin="bevel" d="M36.54 27.964c-1.144 1.601.425 2.147 1.532 2.927 3.378 2.245 6.657 4.627 9.796 7.198 2.161 2.199 5.37 1.59 8.17 1.546 2.57.433 6.17-1.975 3.408-4.38-2.201-1.488-4.965-1.984-7.441-2.935-5.082-1.7-10.297-2.956-15.465-4.356zM28.521 26.987c.61-1.635.179-2.461-1.466-2.889-3.71-1.817-7.454-3.554-11.325-5-3.29-1.348-6.253-3.355-9.218-5.273-2.8-1.988-4.741 1.502-2.893 3.681 2.18 3.822 5.706 6.927 9.716 8.72 4.796 2.113 10.153 1.036 15.186.761z" opacity=".999"/>
    <path style="font-variation-settings:normal" fill="#ff8080" stroke="#000" stroke-linecap="round" stroke-linejoin="bevel" d="M29.873 23.73c-.815 1.791-2.072.705-3.3.137-3.635-1.803-7.337-3.452-11.133-4.885-2.985-.772-4.062-3.855-5.424-6.302-1.66-2.009-1.374-6.33 2.09-5.142 2.388 1.163 4.2 3.308 6.262 4.977 4.012 3.552 7.708 7.44 11.505 11.215z" opacity=".999"/>
    <path style="font-variation-settings:normal;-inkscape-stroke:none" fill="#ff8080" stroke="#000" stroke-linecap="round" stroke-linejoin="bevel" d="M33.245 24.574c-2.285-1.626-5.718-.637-5.076 2.587-.985 1.621.193 3.188 1.97 3.515 1.099 1.569 3.03 1.787 4.11.212 3.355-.804 2.303-4.569-.17-5.767-.336-.09-.533-.396-.834-.547z" opacity=".999"/>
</svg>
