<svg xmlns="http://www.w3.org/2000/svg" xmlns:xlink="http://www.w3.org/1999/xlink" cursor="default" viewBox="0 0 256 256">
    <defs>
        <linearGradient id="innoGrad3">
            <stop offset="0" stop-color="#fca"/>
            <stop offset="1" stop-color="#ffb380"/>
        </linearGradient>
        <linearGradient id="innoGrad2">
            <stop offset="0" stop-color="#ff8080"/>
            <stop offset="1" stop-color="#f55"/>
        </linearGradient>
        <linearGradient id="innoGrad1">
            <stop offset="0" stop-color="#ff8080"/>
            <stop offset="1" stop-color="#f55"/>
        </linearGradient>
        <linearGradient id="linearGradient1194" x1="546.893" x2="587.162" y1="208.061" y2="244.878" gradientTransform="matrix(1.68298 0 0 1.68298 -864.76 -278.567)" gradientUnits="userSpaceOnUse" xlink:href="#innoGrad1"/>
        <linearGradient id="linearGradient1202" x1="541.716" x2="548.427" y1="277.86" y2="290.325" gradientTransform="matrix(1.68298 0 0 1.68298 -864.76 -278.567)" gradientUnits="userSpaceOnUse" xlink:href="#innoGrad2"/>
        <linearGradient id="linearGradient1267" x1="649.745" x2="677.567" y1="289.203" y2="295.914" gradientTransform="matrix(1.68298 0 0 1.68298 -914.46 -288.248)" gradientUnits="userSpaceOnUse" xlink:href="#innoGrad2"/>
        <linearGradient id="linearGradient1275" x1="653.91" x2="688.933" y1="209.351" y2="277.234" gradientTransform="matrix(1.68298 0 0 1.68298 -914.46 -288.248)" gradientUnits="userSpaceOnUse" xlink:href="#innoGrad1"/>
        <linearGradient id="linearGradient1328" x1="85.966" x2="99.525" y1="160.814" y2="182.237" gradientUnits="userSpaceOnUse" xlink:href="#innoGrad3"/>
        <linearGradient id="linearGradient1338" x1="201.763" x2="216.678" y1="175.729" y2="193.627" gradientUnits="userSpaceOnUse" xlink:href="#innoGrad3"/>
    </defs>
    <path fill="#ff2a2a" fill-rule="evenodd" stroke="#000" stroke-width="1.683" d="M153.355 50.905c2.17 30.12 87.673 7.569 82.536-12.608-1.03-3.663-81.673 3.006-82.536 12.608z"/>
    <path fill="#ff7f2a" fill-rule="evenodd" stroke="#000" stroke-width="1.683" d="M9.179 208.754c-.67 1.225-.826 2.707.322 4.84 0 0 11.383 6.84 17.75 7.1 20.468.84 38.78-13.447 58.736-18.072 14.748-3.418 40.358-7.768 42.805-8.24 3.138-.607 3.043-7.912.551-7.46z"/>
    <path fill="url(#linearGradient1202)" fill-rule="evenodd" stroke="#000" stroke-width="1.683" d="M9.16 208.529s11.612 7.615 17.827 8.352c20.707 2.453 31.696-11.37 51.739-16.195 13.302-3.203 49.78-12.667 49.78-12.667 4.216-8.52.885-10.859.726-18.88l-74.08-8.364c-5.566 13.813-21.191 23.18-39.747 31.253-3.808 1.656-7.781 12.516-6.246 16.501z"/>
    <path fill="#ff2a2a" fill-rule="evenodd" stroke="#000" stroke-width="1.683" d="M63.561 32.357c.654 30.19 87.182 11.966 83.065-8.443-.843-3.71-81.72-1.103-83.065 8.443z"/>
    <path fill="url(#linearGradient1194)" fill-rule="evenodd" stroke="#000" stroke-width="1.683" d="M60.3 153.881c8.399-8.002 9.424-20.378 12.549-28.994-2.276-11.458-.91-24.603 2.643-33.544-3.673-9.496-8.229-18.56-5.964-25.627-6.73-13.004-7.64-25.383-5.809-33.815.198 13.817 81.377 4.297 82.94-8.391 1.132 10.8.405 25.568-5.163 35.822 2.362 11.632-1.014 24.316-7.521 35.178 1.959 12.65.13 28.303-4.975 43.084 6.824 7.853 5.75 22.034-.992 28.737-27.87 18.994-43.111 1.587-67.708-12.45z"/>
    <path fill="#fd5" fill-rule="evenodd" stroke="#000" stroke-width="1.683" d="M130.753 134.95l.998 5.042c-32.917 11.056-50.046 13.667-71.743 15.996l-1.13-5.163c26.518-1.802 47.938-7.62 71.875-15.875z"/>
    <path fill="url(#linearGradient1328)" fill-rule="evenodd" stroke="#000" stroke-width="1.683" d="M55.407 149.392c-3.551 4.38-5.63 8.999-2.276 14.822 7.265-3.082 43.398 19.033 63.763 17.03 10.014-.985 16.612-7.827 20.16-12.843 4.194-5.932.495-15.862-2.901-18.645.172 2.219-.955 4.931-2.68 7.542-3.807 5.76-6.82 8.39-13.028 8.475-15.49.21-61.687-18.048-63.038-16.381z"/>
    <path fill="#fd5" fill-rule="evenodd" stroke="#000" stroke-width="1.683" d="M70.72 123.012c32.836-8.625 44.772-20.514 64.875-30.6 1.516-.217 4.489 2.91.322 5.647-17.636 9.088-35.852 23.577-63.744 28.019z"/>
    <path fill="#ffe680" fill-rule="evenodd" stroke="#000" stroke-width="1.683" d="M70.54 126.904c14.381 9.72 33.093 10.017 60.97 13.411 3.226-2.225 1.92-4 .564-5.809-24.267-1.51-39.557-1.853-60.405-12.765-1.705-.06-3.49 3.051-1.13 5.163z"/>
    <path fill="#fd5" fill-rule="evenodd" stroke="#000" stroke-width="1.683" d="M73.394 92.442v-2.905c26.706-8.972 45.846-18.89 69.755-32.595v5.325c-21.083 10.729-41.247 24.82-69.755 30.175z"/>
    <path fill="#ffe680" fill-rule="evenodd" stroke="#000" stroke-width="1.683" d="M135.534 97.948c3.98-.228 4.013-5.552-.799-5.976-23.288-.348-38.836 2.419-61.28-3.412-1.877 2.043-2.602 3.49-.606 5.103 4.378 5.264 37.334 4.189 62.685 4.285zM143.11 62.56c3.26-2.27 2.969-4.401.645-6.455-24.602 5.176-49.257 9.585-76.566 6.132-3.116 2.638-1.956 4.29.484 5.647 26.277 2.107 51.104-.523 75.437-5.325z"/>
    <path fill="#fd5" fill-rule="evenodd" stroke="#000" stroke-width="1.683" d="M62.306 32.357c3.796-10.014 80.206-12.69 85.233-8.785l.114 7.074c-3.374-4.56-61.855-5.503-84.662 6.732z"/>
    <path fill="#fea" fill-rule="evenodd" stroke="#000" stroke-width="1.683" d="M63.477 32.304c-2.104-1.78-4.037 7.784-1.049 8.149 18.602 9.985 62.584 4.705 84.635-7.18 4.576-1.796 1.86-11.37-.161-8.876-26.762 18.265-76.844 14.941-83.425 7.907z"/>
    <path fill="#ffe680" fill-rule="evenodd" stroke="#000" stroke-width="1.683" d="M15.73 191.72c19.342.162 25.883 11.887 32.332 21.451 2.564-1.066 5.207-2.113 6.939-3.388-8.25-9.696-14.702-21.725-31.122-21.209-2.844-.183-10.594 3.385-8.149 3.147zM38.472 179.132c19.343.162 27.07 13.975 33.518 23.54 2.563-1.382 5.045-1.418 6.777-2.502-8.25-9.695-17.824-25.426-34.244-24.91-2.843-.184-8.496 4.11-6.05 3.872z"/>
    <path fill="#ff7f2a" fill-rule="evenodd" stroke="#000" stroke-width="1.683" d="M160.595 234.903c-.75 2.015-1.343 4.031 0 6.047 10.563 4.083 50.988 1.731 54.54.456 11.756-1.954 13.788-23.67 15.175-27.384-22.134-.973-47.729 18.649-69.715 20.88z"/>
    <path fill="url(#linearGradient1267)" fill-rule="evenodd" stroke="#000" stroke-width="1.683" d="M161.051 237.299c-5.692-23.181 20.99-33.375 19.397-54.084l58.42 5.705c-4.667 13.317-9.551 28.806-13.464 43.13 0 0-6.818 5.145-10.84 6.276-17.289 4.861-53.513-1.027-53.513-1.027z"/>
    <path fill="url(#linearGradient1275)" fill-rule="evenodd" stroke="#000" stroke-width="1.683" d="M182.95 174.626l1.224-11c-2.312-7.987-6.149-16.741-2.995-24.728-3.262-9.356-6.755-17.754-4.61-27.11-8.334-10.801-12.124-21.603-12.551-32.404-9.25-10.917-10.639-19.905-13.464-30.237 2.326 13.21 84.947 9.505 85.461-12.78 1.39 12.39 2.775 24.38-4.221 36.17 2.72 10.108 2.68 19.94-.685 29.438 6.44 9.28 5.538 19.711 3.486 28.991 6.393 6.686 4.42 23.145 3.12 28.894 3.254 8.699 5.164 20.786 1.61 28.832z"/>
    <path fill="#ffe680" fill-rule="evenodd" stroke="#000" stroke-width="1.683" d="M163.432 219.972c24.539-1.63 44.548 1.772 63.669 6.161 2.056.472 3.315-6.799 2.053-7.074-20.922-4.567-41.864-6.192-62.527-6.161-1.249 0-5.059 7.198-3.195 7.074zM173.885 202.376c24.539-1.63 39.076 2.629 58.197 7.018 2.056.473 3.315-6.798 2.054-7.074-20.923-4.567-36.393-7.048-57.056-7.018-1.249.001-5.059 7.198-3.195 7.074z"/>
    <path fill="#fd5" fill-rule="evenodd" stroke="#000" stroke-width="1.683" d="M180.79 159.817l1.426 4.225c18.071-17.857 33.32-21.139 54.542-31.515l-.81-4.84c-20.918 11.54-34.239 13.48-55.157 32.13zM179.126 135.449l1.196 4.898c26.963-11.931 36.01-24.831 53.737-37.164l-1.33-4.803c-17.145 13.154-25.95 27.551-53.603 37.069zM174.059 114.983c29.953-11.869 48.711-25.488 61.035-39.507.13-2.962-1.323-2.51-1.251-4.653-15.684 15.562-29.438 28.824-60.803 39.3z"/>
    <path fill="#ffe680" fill-rule="evenodd" stroke="#000" stroke-width="1.683" d="M180.669 159.4c-1.932 2.053-1.942 4.107 0 6.161 22.5.892 35.236-.28 58.132-2.959 2.215-2.473 1.61-4.946.417-7.42-9.926 4.813-34.025 7.734-58.55 4.218zM236.064 126.366c5.01 2.738 2.952 4.399 1.416 6.727l-58.838 8.361c-2.958-1.837-2.839-3.894.228-6.161 23.23-1.11 39.116-2.664 57.194-8.927zM233.299 104.075c5.824-3.395 1.94-5.6.301-6.125-21.903 9.181-41.137 15.38-60.91 11.784-1.974 2.173-1.053 4.751 1.369 6.39 19.55.89 37.97-2.183 59.24-12.049zM234.516 69.921c3.336.492 4.011 4.327-.484 7.125-26.102 11.625-48.179 8.03-72.658 7.08-2.2-1.329-2.907-4.836-1.236-7.024 26.087 1.62 50.787 5.34 74.378-7.18z"/>
    <path fill="url(#linearGradient1338)" fill-rule="evenodd" stroke="#000" stroke-width="1.683" d="M177.695 171.89c-1.066 5.135-4.637 10.634.165 15.882 0 0 19.493-2.085 29.516-.45 8.452 1.38 15.906 7.043 24.418 7.988 6.379.708 10.155-1.94 10.155-1.94 4.208-2.956.67-10.044.798-15.175 0 0-3.787 3.31-8.9 2.51-10.363-1.623-19.29-8.952-29.666-10.497-8.472-1.262-26.486 1.683-26.486 1.683z"/>
    <path fill="#fd5" fill-rule="evenodd" stroke="#000" stroke-width="1.7" d="M149.98 49.877c3.877-10.263 81.109-16.654 86.243-13.094l.116 6.26c-3.446-4.325-61.912-1.4-85.203 12.374z"/>
    <path fill="#fea" fill-rule="evenodd" stroke="#000" stroke-width="1.666" d="M151.495 48.366c-2.126-1.64-4.08 7.708-1.06 7.941 18.797 8.926 63.24 2.03 85.523-10.381 4.624-1.925 1.88-11.095-.163-8.596-27.043 18.786-77.65 17.589-84.3 11.036z"/>
    <path d="M129.627 177.085l-.318-.386c-2.686 2.218-8.094 6.219-15.764 9.098-7.932 2.978-14.03 3.12-17.952 2.406 3.95.719 9.975.825 18.12-1.935 7.797-2.642 13.5-6.542 16.232-8.798l-.318-.385zM72.814 121.627l.385.318c.656-.795 2.569-3.382 4.218-5.045 2.02-2.037 3.868-3.075 5.43-3.544-1.6.48-3.466 1.256-5.768 3.175-1.949 1.625-3.92 3.89-4.651 4.778l.386.318zM72 129.22l-.283.413a8.44 8.44 0 0 1 2.168 2.137c.583.818 1.084 1.784 1.509 2.9.957 2.511 1.372 5.46 1.487 6.618-.11-1.109-.282-4.17-1.012-6.774-.33-1.178-.76-2.247-1.31-3.18-.743-1.257-1.579-2.048-2.276-2.526l-.283.412zM129.085 133.56l.433-.25c-.474-.821-1.631-2.399-2.557-4.08-1.019-1.85-1.402-3.323-1.402-4.484 0 1.211.129 2.608.95 4.696.649 1.652 1.79 3.755 2.143 4.367l.433-.25zM129.898 141.017l-.461-.193a6.828 6.828 0 0 0-.502 2.91c.037.897.236 1.788.564 2.686.69 1.884 2.138 4.027 2.569 4.766-.478-.82-1.623-2.947-2.09-4.911-.213-.892-.293-1.73-.24-2.534.068-1.075.36-1.907.622-2.531l-.462-.193zM133.424 99.797l-.29-.408c-1.249.886-2.701 2.357-3.944 4.585-1.15 2.06-1.859 4.306-2.275 5.45.42-1.157 1.36-3.298 2.698-5.183 1.459-2.057 2.91-3.192 4.1-4.037l-.29-.407zM134.102 91.797l.241-.438c-1.831-1.01-4.37-1.919-8.003-2.547-3.291-.569-6.612-.833-8.238-1.083 1.228.189 5.305.86 8.134 1.572 3.626.913 5.81 1.933 7.624 2.933l.242-.437zM135.593 91.254l.494-.08c-.169-1.03-.442-2.436-.454-4.454-.012-1.922.24-3.59.503-4.55-.282 1.032-.739 2.492-1.002 4.519-.255 1.965-.2 3.634-.034 4.646l.493-.08zM74.44 88l.337.37c.72-.654 1.926-1.953 2.933-3.451 1.1-1.638 1.602-2.928 2.019-3.97-.393.983-1.175 2.29-2.413 3.662-1.196 1.324-2.485 2.359-3.211 3.019l.336.37zM74.44 95.593l-.213.452c.731.346 1.671.836 2.663 2.02.918 1.096 1.522 2.392 1.754 3.088-.23-.69-.594-2.072-1.343-3.373-.802-1.392-1.79-2.234-2.647-2.639l-.213.452zM69.56 68.881l-.284.412c.882.608 1.851 1.358 2.927 2.928.887 1.295 1.787 3.138 2.102 3.847-.366-.823-.9-2.526-1.67-4.098-.846-1.727-1.823-2.833-2.792-3.5l-.284.411zM68.339 62.102l.118.486c1.381-.335 3.065-1.088 5.19-2.453 1.927-1.239 3.759-2.605 4.726-3.186-.616.37-3.303 1.921-4.972 2.75-2.329 1.158-3.802 1.583-5.18 1.917l.118.486z"/>
    <path d="M67.661 61.695l.375.331c.533-.603 1.375-1.792 2.02-3.168.703-1.496.929-2.628 1.13-3.536-.189.853-.685 2.033-1.562 3.286-.86 1.23-1.8 2.148-2.338 2.756l.375.33zM142.237 56.136l-.034-.5c-1.441.1-3.11.086-5.665-.588-1.994-.525-4.743-1.57-5.555-1.895 1.08.431 3.181 1.525 5.402 2.371 2.453.935 4.37 1.214 5.886 1.11l-.034-.498zM184.407 166.508l.038.499c.543-.041 1.23-.127 2.145.175.862.284 1.638.843 2.02 1.225-.37-.37-.981-1.127-1.798-1.673-.877-.587-1.774-.775-2.443-.724l.038.498zM237.966 163.254l-.163-.473c-1.395.48-3.87 1.57-6.318 3.302-2.595 1.836-4.059 3.586-5.044 4.9.957-1.276 2.673-2.938 5.314-4.48 2.574-1.5 4.987-2.299 6.374-2.776l-.163-.473zM238.102 155.254l-.087-.492c-1.38.242-3.361.572-6.101.452-2.636-.115-4.872-.618-6.151-1.045 1.331.444 3.384 1.153 6.104 1.543 2.7.388 4.93.279 6.321.035l-.086-.493z"/>
    <path d="M238.78 154.44l.05-.497a2.426 2.426 0 0 1-.803-.216 3 3 0 0 1-.762-.521c-.47-.433-.907-1.057-1.267-1.837a9.425 9.425 0 0 1-.717-2.35c-.169-1.007-.121-1.746-.027-2.172a7.943 7.943 0 0 0-.17 2.192c.04.775.176 1.653.448 2.51.272.858.658 1.622 1.15 2.208.281.334.583.594.899.786.416.253.817.362 1.149.395l.05-.497zM182.915 156.746l.36.347c.865-.895 1.69-2.312 1.96-4.286.248-1.825-.045-3.652-.15-4.604.108.97.142 2.799-.34 4.503-.518 1.828-1.424 2.9-2.19 3.692l.36.348zM234.983 126.237l.106-.488a3.185 3.185 0 0 1-1.526-.76c-.427-.38-.803-.892-1.169-1.544-.35-.625-.67-1.344-.95-1.961-.445-.979-.641-1.36-.936-1.89.247.443.466 1.033.75 1.96.196.635.42 1.416.683 2.103.275.717.6 1.361 1.042 1.887.604.718 1.297 1.053 1.894 1.182l.106-.489zM179.932 134.78l.248.434c.925-.53 1.906-1.52 2.768-3.12.783-1.45 1.283-2.987 1.594-3.687-.279.628-1.085 2.193-2.015 3.418-1.085 1.429-2.032 2.057-2.843 2.52l.248.435zM181.153 141.695l-.046.498c.296.027.67.07 1.074.276.308.156.601.391.883.723.63.743 1.077 1.867 1.207 2.3-.102-.34-.353-1.701-.788-2.572a3.413 3.413 0 0 0-.848-1.113 2.633 2.633 0 0 0-1.437-.61l-.045.498zM231.322 98.44l-.052-.497c-1.336.14-3.04.257-5.309-.26-2.096-.478-4.054-1.385-5.08-1.954 1.02.567 2.86 1.696 4.94 2.434 2.224.788 4.148.922 5.553.775l-.052-.497z"/>
    <path d="M231.729 97.763l.192-.462c-.377-.157-.845-.392-1.246-.875-.304-.367-.54-.84-.687-1.429-.348-1.39-.086-2.941.114-3.607-.192.64-.717 2.156-.608 3.684.047.659.21 1.272.518 1.804a3.18 3.18 0 0 0 1.525 1.346l.192-.461zM231.864 105.356l-.424-.265c-.383.614-.7 1.626-.807 2.925-.098 1.192.011 2.278.011 2.764 0-.47.141-1.56.48-2.671.386-1.266.815-1.93 1.164-2.488l-.424-.265zM176.678 117.017l-.301.399c.453.343.994.69 1.673 1.488.602.708 1.048 1.492 1.204 1.91-.154-.411-.372-1.302-.783-2.179-.442-.945-1-1.646-1.492-2.017l-.301.399zM174.644 108.61l.314.39c1.248-1.006 3.152-2.856 4.894-5.34 1.8-2.569 2.718-4.763 3.334-6.304-.596 1.491-1.787 3.686-3.73 5.999-1.953 2.323-3.878 3.86-5.126 4.866l.314.39zM173.695 108.203l.463.188c.368-.909.668-2.335.625-4.105-.042-1.74-.383-3.185-.546-4.083.158.867.261 2.42.047 4.058-.228 1.746-.702 2.888-1.053 3.755l.464.187zM164.203 84.61l-.145.479c.395.12.901.3 1.448.72.412.318.79.728 1.156 1.244.714 1.006 1.552 2.82 1.745 3.252-.29-.652-.658-2.137-1.313-3.505-.286-.598-.623-1.133-1.046-1.582-.571-.606-1.19-.931-1.7-1.086l-.145.478zM162.44 77.017l.241.438c.859-.471 1.724-1.383 2.395-2.88.61-1.36.931-2.834 1.161-3.524-.213.639-.823 2.134-1.598 3.282-.889 1.317-1.73 1.857-2.439 2.246l.24.438zM233.085 70.373l.32-.385a5.109 5.109 0 0 1-1.252-1.507c-.326-.582-.586-1.253-.822-2.038-.533-1.774-.953-3.649-1.23-4.477.445 1.332.355 2.16.743 4.588.131.823.306 1.582.584 2.271.377.933.87 1.545 1.337 1.933l.32-.385zM231.729 70.373l.053-.497c-2.42-.26-6.926-.571-11.574-.303-5.039.29-8.647 1.135-11.394 1.885 2.668-.728 6.495-1.372 11.41-1.386 4.64-.013 9.02.537 11.451.798l.054-.497zM15.39 192.407l-.116.486c.853.204 1.773.494 3.14 1.475.941.675 2.575 2.106 2.874 2.378-.544-.495-1.48-1.68-2.549-2.758-1.184-1.195-2.249-1.832-3.233-2.068l-.116.487zM25.356 188l-.025.5c.817.04 1.964-.148 3.3-.663 1.236-.477 2.373-1.129 2.962-1.396-.586.266-1.836.69-3.098.914-1.428.254-2.333.185-3.114.146l-.025.499zM38.983 179.864l-.153.477c.755.241 1.47.474 2.806 1.257.832.488 2.5 1.582 2.703 1.724-.498-.349-1.412-1.252-2.41-2.129-1.1-.967-2.013-1.555-2.793-1.805l-.153.476zM70.983 202.17l.147-.479c-.747-.228-2.143-.47-3.706-.462-1.68.01-2.782.278-3.627.466.784-.174 2.054-.221 3.588.033 1.55.257 2.693.687 3.452.92l.146-.479zM78.373 200.136l.499.031c.094-1.481.367-3.501 1.655-5.939 1.224-2.314 2.912-4.101 3.948-5.008-1.042.912-2.884 2.494-4.377 4.753-1.554 2.348-2.123 4.537-2.224 6.13l.499.033zM55.458 209.492l.477-.15c-.21-.674-.533-1.613-.366-2.69.169-1.09.807-1.958 1.38-2.449-.556.477-1.401 1.169-1.861 2.313-.465 1.154-.347 2.355-.108 3.124l.478-.148zM47.458 213.424l.288-.409c-1.29-.91-3.358-1.87-6.265-2.4-2.769-.504-5.288-.446-6.634-.446 1.326 0 3.888.195 6.522.934 2.834.795 4.576 1.865 5.8 2.73l.289-.41zM162.712 220.475l-.12.485c.742.184 1.591.453 2.883 1.406.985.727 2.325 1.977 2.66 2.312-.479-.48-1.332-1.636-2.329-2.686-1.102-1.162-2.09-1.784-2.974-2.003l-.12.486zM167.593 212.339l-.01.5c2.039.045 4.88-.225 8.504-1.092 3.229-.771 6.673-1.938 8.184-2.391-1.575.472-4.969 1.362-8.282 1.901-3.754.611-6.31.628-8.385.582l-.01.5zM228.881 218.305l.108-.488c-.559-.124-1.205-.234-2.09-.751-.782-.457-1.51-1.118-1.814-1.473.31.361.821 1.169 1.504 1.866.743.757 1.53 1.19 2.185 1.334l.107-.488zM226.847 226.17l-.034-.5c-.92.064-2.939.345-4.641 1.126a7.568 7.568 0 0 0-1.918 1.233 6.68 6.68 0 0 0-1.407 1.802 4.965 4.965 0 0 1 1.53-1.647c.571-.395 1.23-.697 1.973-.92 1.687-.51 3.637-.534 4.532-.596l-.035-.499zM230.78 209.898l.003-.5c-1.018-.007-2.34.223-4.066.69-1.808.49-2.886.855-3.938 1.03.364-.06 2.869-.41 4.032-.539 1.955-.216 2.83-.189 3.965-.18l.003-.5zM233.492 201.763l.2-.458c-2.013-.884-2.939-1.258-6.199-2.861-2.481-1.22-4.974-2.439-6.205-3.054 1.533.766 3.309 1.873 5.964 3.492 2.606 1.588 4.522 2.673 6.039 3.339l.2-.458zM178.712 194.44l-.106.49c1.369.296 3.035.183 5.342-.482 2.061-.594 4.06-1.315 5.069-1.499-1.01.184-3.1.67-5.18 1.011-2.398.394-3.765.264-5.02-.008l-.105.49zM174.644 202.983l-.11.488c.75.168 1.458.33 2.727.978.772.394 2.452 1.38 2.671 1.517-.519-.324-1.429-1.158-2.399-1.937-1.07-.858-1.976-1.353-2.78-1.534l-.109.488z"/>
</svg>
