<?xml version="1.0" encoding="UTF-8" standalone="no"?>
<svg
   xmlns:dc="http://purl.org/dc/elements/1.1/"
   xmlns:cc="http://creativecommons.org/ns#"
   xmlns:rdf="http://www.w3.org/1999/02/22-rdf-syntax-ns#"
   xmlns:svg="http://www.w3.org/2000/svg"
   xmlns="http://www.w3.org/2000/svg"
   xmlns:xlink="http://www.w3.org/1999/xlink"
   xmlns:sodipodi="http://sodipodi.sourceforge.net/DTD/sodipodi-0.dtd"
   xmlns:inkscape="http://www.inkscape.org/namespaces/inkscape"
   version="1.1"
   id="svg4206"
   viewBox="0 0 256 256"
   sodipodi:docname="ragged_skirt.svg"
   inkscape:version="0.92.3 (2405546, 2018-03-11)">
  <sodipodi:namedview
     pagecolor="#ffffff"
     bordercolor="#666666"
     borderopacity="1"
     objecttolerance="10"
     gridtolerance="10"
     guidetolerance="10"
     inkscape:pageopacity="0"
     inkscape:pageshadow="2"
     inkscape:window-width="2560"
     inkscape:window-height="1388"
     id="namedview58"
     showgrid="false"
     inkscape:snap-global="false"
     inkscape:zoom="1.3037281"
     inkscape:cx="76.822925"
     inkscape:cy="154.07522"
     inkscape:window-x="-8"
     inkscape:window-y="-8"
     inkscape:window-maximized="1"
     inkscape:current-layer="svg4206" />
  <style
     id="style3">
    svg { cursor: default; }
  </style>
  <defs
     id="defs4208">
    <inkscape:path-effect
       effect="powerstroke"
       id="path-effect1041"
       is_visible="true"
       offset_points="0.50629564,0.91560314"
       sort_points="true"
       interpolator_type="CubicBezierJohan"
       interpolator_beta="0.2"
       start_linecap_type="zerowidth"
       linejoin_type="extrp_arc"
       miter_limit="4"
       end_linecap_type="zerowidth" />
    <inkscape:path-effect
       effect="powerstroke"
       id="path-effect1037"
       is_visible="true"
       offset_points="0.51579312,-1.0726794"
       sort_points="true"
       interpolator_type="CubicBezierJohan"
       interpolator_beta="0.2"
       start_linecap_type="zerowidth"
       linejoin_type="extrp_arc"
       miter_limit="4"
       end_linecap_type="zerowidth" />
    <inkscape:path-effect
       effect="powerstroke"
       id="path-effect1033"
       is_visible="true"
       offset_points="0,0.605"
       sort_points="true"
       interpolator_type="CubicBezierJohan"
       interpolator_beta="0.2"
       start_linecap_type="zerowidth"
       linejoin_type="extrp_arc"
       miter_limit="4"
       end_linecap_type="zerowidth" />
    <inkscape:path-effect
       effect="powerstroke"
       id="path-effect1029"
       is_visible="true"
       offset_points="0,0.605"
       sort_points="true"
       interpolator_type="CubicBezierJohan"
       interpolator_beta="0.2"
       start_linecap_type="zerowidth"
       linejoin_type="extrp_arc"
       miter_limit="4"
       end_linecap_type="zerowidth" />
    <inkscape:path-effect
       effect="powerstroke"
       id="path-effect1025"
       is_visible="true"
       offset_points="0,0.605"
       sort_points="true"
       interpolator_type="CubicBezierJohan"
       interpolator_beta="0.2"
       start_linecap_type="zerowidth"
       linejoin_type="extrp_arc"
       miter_limit="4"
       end_linecap_type="zerowidth" />
    <inkscape:path-effect
       effect="powerstroke"
       id="path-effect1021"
       is_visible="true"
       offset_points="0,0.605"
       sort_points="true"
       interpolator_type="CubicBezierJohan"
       interpolator_beta="0.2"
       start_linecap_type="zerowidth"
       linejoin_type="extrp_arc"
       miter_limit="4"
       end_linecap_type="zerowidth" />
    <linearGradient
       inkscape:collect="always"
       id="innoGrad1">
      <stop
         style="stop-color:#ff8080;stop-opacity:1;"
         offset="0"
         id="stop996" />
      <stop
         style="stop-color:#ffaaaa;stop-opacity:1"
         offset="1"
         id="stop998" />
    </linearGradient>
    <inkscape:path-effect
       effect="powerstroke"
       id="path-effect994"
       is_visible="true"
       offset_points="0,0.3645"
       sort_points="true"
       interpolator_type="CubicBezierJohan"
       interpolator_beta="0.2"
       start_linecap_type="zerowidth"
       linejoin_type="extrp_arc"
       miter_limit="4"
       end_linecap_type="zerowidth" />
    <inkscape:path-effect
       effect="powerstroke"
       id="path-effect990"
       is_visible="true"
       offset_points="0,0.3645"
       sort_points="true"
       interpolator_type="CubicBezierJohan"
       interpolator_beta="0.2"
       start_linecap_type="zerowidth"
       linejoin_type="extrp_arc"
       miter_limit="4"
       end_linecap_type="zerowidth" />
    <inkscape:path-effect
       effect="powerstroke"
       id="path-effect986"
       is_visible="true"
       offset_points="0,0.3645"
       sort_points="true"
       interpolator_type="CubicBezierJohan"
       interpolator_beta="0.2"
       start_linecap_type="zerowidth"
       linejoin_type="extrp_arc"
       miter_limit="4"
       end_linecap_type="zerowidth" />
    <inkscape:path-effect
       effect="powerstroke"
       id="path-effect982"
       is_visible="true"
       offset_points="0,0.3645"
       sort_points="true"
       interpolator_type="CubicBezierJohan"
       interpolator_beta="0.2"
       start_linecap_type="zerowidth"
       linejoin_type="extrp_arc"
       miter_limit="4"
       end_linecap_type="zerowidth" />
    <inkscape:path-effect
       effect="powerstroke"
       id="path-effect978"
       is_visible="true"
       offset_points="0,0.3645"
       sort_points="true"
       interpolator_type="CubicBezierJohan"
       interpolator_beta="0.2"
       start_linecap_type="zerowidth"
       linejoin_type="extrp_arc"
       miter_limit="4"
       end_linecap_type="zerowidth" />
    <inkscape:path-effect
       effect="powerstroke"
       id="path-effect974"
       is_visible="true"
       offset_points="0,0.3645"
       sort_points="true"
       interpolator_type="CubicBezierJohan"
       interpolator_beta="0.2"
       start_linecap_type="zerowidth"
       linejoin_type="extrp_arc"
       miter_limit="4"
       end_linecap_type="zerowidth" />
    <inkscape:path-effect
       effect="powerstroke"
       id="path-effect970"
       is_visible="true"
       offset_points="0,0.3645"
       sort_points="true"
       interpolator_type="CubicBezierJohan"
       interpolator_beta="0.2"
       start_linecap_type="zerowidth"
       linejoin_type="extrp_arc"
       miter_limit="4"
       end_linecap_type="zerowidth" />
    <inkscape:path-effect
       effect="powerstroke"
       id="path-effect966"
       is_visible="true"
       offset_points="0,0.3645"
       sort_points="true"
       interpolator_type="CubicBezierJohan"
       interpolator_beta="0.2"
       start_linecap_type="zerowidth"
       linejoin_type="extrp_arc"
       miter_limit="4"
       end_linecap_type="zerowidth" />
    <inkscape:path-effect
       effect="powerstroke"
       id="path-effect962"
       is_visible="true"
       offset_points="0,0.3645"
       sort_points="true"
       interpolator_type="CubicBezierJohan"
       interpolator_beta="0.2"
       start_linecap_type="zerowidth"
       linejoin_type="extrp_arc"
       miter_limit="4"
       end_linecap_type="zerowidth" />
    <inkscape:path-effect
       effect="powerstroke"
       id="path-effect958"
       is_visible="true"
       offset_points="0,0.3645"
       sort_points="true"
       interpolator_type="CubicBezierJohan"
       interpolator_beta="0.2"
       start_linecap_type="zerowidth"
       linejoin_type="extrp_arc"
       miter_limit="4"
       end_linecap_type="zerowidth" />
    <linearGradient
       inkscape:collect="always"
       id="innoGrad2">
      <stop
         style="stop-color:#ff2a2a;stop-opacity:1"
         offset="0"
         id="stop893" />
      <stop
         style="stop-color:#ff5555;stop-opacity:1"
         offset="1"
         id="stop895" />
    </linearGradient>
    <linearGradient
       inkscape:collect="always"
       xlink:href="#innoGrad1"
       id="linearGradient1049"
       x1="526.64404"
       y1="157.28815"
       x2="502.2373"
       y2="79.728813"
       gradientUnits="userSpaceOnUse"
       gradientTransform="matrix(1.21,0,0,1.21,-476.18182,-48.709157)" />
    <linearGradient
       inkscape:collect="always"
       xlink:href="#innoGrad2"
       id="linearGradient1057"
       x1="484.63229"
       y1="82.07634"
       x2="489.44443"
       y2="54.144135"
       gradientUnits="userSpaceOnUse"
       gradientTransform="matrix(1.21,0,0,1.21,-476.18182,-48.709157)" />
  </defs>
  <metadata
     id="metadata4211">
    <rdf:RDF>
      <cc:Work
         rdf:about="">
        <dc:format>image/svg+xml</dc:format>
        <dc:type
           rdf:resource="http://purl.org/dc/dcmitype/StillImage" />
        <dc:title></dc:title>
      </cc:Work>
    </rdf:RDF>
  </metadata>
  <path
     style="fill:url(#linearGradient1057);fill-opacity:1;fill-rule:evenodd;stroke:#000000;stroke-width:1.21000004px;stroke-linecap:butt;stroke-linejoin:miter;stroke-opacity:1"
     d="M 59.007344,13.472535 C 82.349188,2.0022135 195.56583,27.365785 205.02767,49.239315 150.9498,48.366633 94.358547,51.987572 54.085306,26.433893 c 0.320081,-4.430502 -0.401042,-8.94777 4.922038,-12.961358 z"
     id="path1017"
     inkscape:connector-curvature="0"
     sodipodi:nodetypes="cccc" />
  <path
     style="fill:url(#linearGradient1049);fill-opacity:1;fill-rule:evenodd;stroke:#000000;stroke-width:1.21000004px;stroke-linecap:butt;stroke-linejoin:miter;stroke-opacity:1"
     d="m 59.335351,13.246623 c -6.369416,2.926053 -12.017708,6.193596 -10.209375,12.99332 -1.76677,2.279533 -1.27914,5.202045 0,8.351836 0.290424,2.768079 -2.246111,3.113729 0.928772,8.354199 -4.676904,3.830753 -7.511293,8.847548 -7.397069,17.469375 -5.399589,9.345213 -5.023025,32.170419 -4.204278,48.425997 0.558439,11.08735 3.096571,20.09781 6.891325,27.78747 1.206697,2.44523 3.196566,10.66274 5.45445,15.65438 0.636242,-3.10584 1.194004,-4.82274 2.637425,-3.00137 3.856197,4.86589 8.188626,9.22825 12.679009,13.42344 2.345234,2.19105 5.391324,7.12611 10.400797,14.19623 -0.425291,-5.20469 0.458917,-4.33812 2.304203,-2.6256 3.208,2.97715 6.343207,6.02919 9.287694,9.27822 4.193848,4.62766 8.074681,8.84703 11.658057,12.79009 3.530009,3.88432 8.411349,12.42195 14.002449,29.34721 -1.68559,-10.2656 2.46584,-10.23865 5.26066,-6.26505 6.39616,9.09387 10.84046,18.23544 13.62669,30.02313 5.03004,-4.63153 9.78392,-8.82803 14.27657,-12.69318 4.73464,-4.07336 8.71671,-8.47545 7.78466,1.06347 4.99851,-10.8348 13.01418,-18.44042 16.40589,-21.28844 5.98165,-5.02281 11.29005,-9.6781 16.00178,-14.47273 2.45111,-2.49425 4.97203,-5.72294 3.39839,3.9325 2.91212,-6.39527 7.31833,-16.59699 9.05136,-19.29383 1.77504,-2.76215 3.42351,-5.68274 4.95345,-8.82449 12.49758,-25.66404 10.65478,-37.35436 13.10675,-54.6178 3.7798,-26.612316 -0.44021,-64.757697 -14.442,-74.741132 C 164.46346,29.26668 55.670781,34.231511 56.823185,20.100139 Z M 85.090394,161.04624 c 11.012525,10.19921 18.218436,18.57468 23.668266,30.62812 l -15.082469,-16.93763 9.512199,18.098 C 97.34981,185.7132 88.917491,173.99255 79.059295,162.67217 l 9.512209,6.26506 z m 100.236196,11.36974 -15.54565,23.66826 4.64147,-0.69717 c -4.69061,5.83879 -10.35775,12.04262 -19.95554,19.72158 l 3.48112,-7.65703 -9.04901,3.48113 c 9.64653,-7.08726 17.13411,-16.46201 24.36306,-27.61022 l -2.78393,7.88862 z"
     id="path1015"
     inkscape:connector-curvature="0" />
  <path
     style="fill:#000000;fill-rule:nonzero;stroke:none;stroke-width:1.21000004px;stroke-linecap:butt;stroke-linejoin:miter;stroke-opacity:1"
     d="m 48.671064,25.285417 c 0,0 -0.437891,0.417465 -0.437891,0.417465 3.799267,3.985157 9.270844,7.796697 17.959518,9.885103 6.463817,1.55364 13.441107,1.902195 21.286067,2.006993 8.024461,0.107195 15.005102,-0.0037 22.270092,0.746411 9.6311,0.9944 16.06185,3.25686 20.95611,5.975893 C 125.79922,41.59187 119.43503,39.251253 109.77521,38.103955 102.49466,37.239243 95.513,37.234344 87.492012,36.990123 79.64205,36.751109 72.761035,36.279919 66.427412,34.645671 57.963916,32.461858 52.759404,28.697011 49.108955,24.867952 c 0,0 -0.437891,0.417465 -0.437891,0.417465 z"
     id="path1019"
     inkscape:connector-curvature="0"
     inkscape:path-effect="#path-effect1021"
     inkscape:original-d="m 48.671064,25.285417 c 20.078849,21.061269 56.081376,4.613798 82.033896,19.031865" />
  <path
     style="fill:#000000;fill-rule:nonzero;stroke:none;stroke-width:1.21000004px;stroke-linecap:butt;stroke-linejoin:miter;stroke-opacity:1"
     d="m 49.327344,34.145079 c 0,0 -0.411155,0.44382 -0.411155,0.44382 0.940995,0.871737 2.500959,1.936493 4.569765,2.859233 2.025055,0.903225 3.899433,1.406465 5.029186,1.783048 -1.08755,-0.362515 -2.953924,-1.18405 -4.743956,-2.316606 -1.94294,-1.229302 -3.088479,-2.338604 -4.032685,-3.213315 0,0 -0.411155,0.44382 -0.411155,0.44382 z"
     id="path1023"
     inkscape:connector-curvature="0"
     inkscape:path-effect="#path-effect1025"
     inkscape:original-d="m 49.327344,34.145079 c 2.656386,2.460874 5.750949,3.940489 9.187796,5.086101" />
  <path
     style="fill:#000000;fill-rule:nonzero;stroke:none;stroke-width:1.21000004px;stroke-linecap:butt;stroke-linejoin:miter;stroke-opacity:1"
     d="m 49.655472,42.184401 c 0,0 -0.401366,0.452692 -0.401366,0.452692 2.847047,2.524252 6.838724,4.812302 13.040361,6.39727 5.583097,1.426886 11.413585,2.095062 14.268126,2.66597 -1.883612,-0.376723 -9.592004,-1.837657 -14.102983,-3.247995 -6.094111,-1.905297 -9.658583,-4.287574 -12.402772,-6.720629 0,0 -0.401366,0.452692 -0.401366,0.452692 z"
     id="path1027"
     inkscape:connector-curvature="0"
     inkscape:path-effect="#path-effect1029"
     inkscape:original-d="m 49.655472,42.184401 c 7.563153,6.70565 17.391983,7.612904 26.907121,9.515932" />
  <path
     style="fill:#000000;fill-rule:nonzero;stroke:none;stroke-width:1.21000004px;stroke-linecap:butt;stroke-linejoin:miter;stroke-opacity:1"
     d="m 42.764631,60.395925 c 0,0 0.184689,0.576121 0.184689,0.576121 1.316702,-0.422101 2.702706,-0.791066 5.308257,-0.942182 1.45169,-0.0842 5.35639,-0.126142 5.663665,-0.126142 -1.120229,0 -3.381567,-0.3061 -5.657957,-0.478831 -2.521286,-0.191314 -4.324982,-0.04054 -5.683343,0.394913 0,0 0.184689,0.576121 0.184689,0.576121 z"
     id="path1031"
     inkscape:connector-curvature="0"
     inkscape:path-effect="#path-effect1033"
     inkscape:original-d="m 42.764631,60.395925 c 3.514082,-1.126523 7.422515,-0.492203 11.156611,-0.492203" />
  <path
     style="fill:#000000;fill-rule:nonzero;stroke:none;stroke-width:1.21000004px;stroke-linecap:butt;stroke-linejoin:miter;stroke-opacity:1"
     d="m 81.812759,136.03119 c 7.386472,-0.67068 18.294371,-2.34444 30.893241,-5.95592 12.515,-3.58743 22.57948,-7.87304 29.60681,-11.01108 0.23576,-0.10527 1.51458,-0.67911 1.75033,-0.78438 6.50347,-2.91962 14.90471,-6.72934 26.21584,-13.06152 10.48766,-5.871176 19.83152,-11.924786 24.90462,-15.454238 -5.28079,3.673947 -13.90062,9.878019 -24.35934,16.377988 -10.69099,6.64433 -19.69614,11.3177 -25.88248,14.09495 -0.53931,0.24211 -1.13197,0.50311 -1.7724,0.77924 -7.0436,3.03698 -17.58949,6.96296 -30.2084,10.02335 -12.99651,3.15197 -23.570838,4.3036 -31.148221,4.99161 z"
     id="path1035"
     inkscape:connector-curvature="0"
     inkscape:path-effect="#path-effect1037"
     inkscape:original-d="M 81.812759,136.03119 C 126.31206,131.99075 161.99876,112.8514 195.1836,89.764052"
     sodipodi:nodetypes="cc" />
  <path
     style="fill:#000000;fill-rule:nonzero;stroke:none;stroke-width:1.21000004px;stroke-linecap:butt;stroke-linejoin:miter;stroke-opacity:1"
     d="m 96.250733,98.95186 c 6.098927,-0.379285 14.984517,-1.069627 27.030087,-3.402679 11.67269,-2.260834 21.86444,-5.23598 28.26333,-7.405803 0.23927,-0.08114 0.46983,-0.160038 0.69125,-0.236498 6.02325,-2.079881 15.49371,-5.841376 25.88836,-10.987994 10.5956,-5.246111 17.8679,-9.767995 22.63815,-12.749401 -4.55779,2.848618 -12.494,7.244336 -23.02716,11.920544 -10.84786,4.815922 -19.82392,7.91977 -26.09705,10.085935 -0.14416,0.04978 -0.54165,0.187126 -0.68581,0.236906 -6.51483,2.250391 -16.14993,5.513574 -27.85723,8.267815 -11.68272,2.748461 -20.95598,3.905011 -26.843927,4.271175 z"
     id="path1039"
     inkscape:connector-curvature="0"
     inkscape:path-effect="#path-effect1041"
     inkscape:original-d="M 96.250733,98.95186 C 131.45973,96.762256 172.8641,81.605627 200.76191,64.169485"
     sodipodi:nodetypes="cc" />
  <path
     style="fill:#ff2a2a;fill-rule:evenodd;stroke:#000000;stroke-width:1.21000004px;stroke-linecap:butt;stroke-linejoin:miter;stroke-opacity:1"
     d="m 169.08499,122.29875 c 9.4703,-5.79439 14.29491,-12.43344 20.6504,-18.79418 0,0 -4.75655,7.54088 -8.00493,12.8775 2.20426,-1.04412 3.47533,-2.68493 6.38075,-3.36439 -2.89079,5.34563 -25.51593,25.65035 -26.21905,23.66674 3.86699,-4.63079 7.95905,-8.57565 9.62912,-11.83336 -3.09369,1.01226 -10.47988,4.67723 -13.57357,6.26472 5.53495,-6.5613 11.18122,-13.05305 19.14221,-18.09809 -1.77763,2.38115 -3.24143,4.51123 -8.00493,9.28106 z"
     id="path1065"
     inkscape:connector-curvature="0"
     sodipodi:nodetypes="ccccccccc" />
  <path
     style="fill:#ffaaaa;fill-rule:evenodd;stroke:#000000;stroke-width:1;stroke-linecap:butt;stroke-linejoin:miter;stroke-miterlimit:4;stroke-dasharray:none;stroke-opacity:1"
     d="m 205.26471,49.560692 c -1.38758,26.401299 -1.59124,52.925598 0.68993,79.708068 l 1.65887,-5.83825 c 1.85264,2.70766 3.56727,4.17314 5.24036,5.26482 -3.49843,-26.56936 -4.75358,-53.138719 -5.5194,-79.708076 z"
     id="path1067"
     inkscape:connector-curvature="0"
     sodipodi:nodetypes="cccccc" />
  <path
     style="fill:#ffd5d5;fill-rule:evenodd;stroke:#000000;stroke-width:1;stroke-linecap:butt;stroke-linejoin:miter;stroke-miterlimit:4;stroke-dasharray:none;stroke-opacity:1"
     d="m 205.03474,48.987254 c 3.53257,20.165951 9.56388,40.331902 10.34885,60.497856 l 1.46429,-2.6958 4.05509,0.68876 c -2.48681,-19.879232 -8.23549,-39.758464 -13.33852,-59.637695 -1.23362,-0.08319 -1.77952,0.403275 -2.52971,1.146879 z"
     id="path1069"
     inkscape:connector-curvature="0"
     sodipodi:nodetypes="cccccc" />
  <path
     style="fill:#ffd5d5;fill-rule:evenodd;stroke:#000000;stroke-width:1;stroke-linecap:butt;stroke-linejoin:miter;stroke-miterlimit:4;stroke-dasharray:none;stroke-opacity:1"
     d="m 205.3591,46.730226 c -0.8988,3.394972 0.17374,6.511077 1.40044,9.732936 0,0 -5.19663,-3.734783 -5.18307,-6.336797 0.01,-1.824633 3.78263,-3.396139 3.78263,-3.396139 z"
     id="path1071"
     inkscape:connector-curvature="0"
     sodipodi:nodetypes="ccsc" />
  <path
     style="fill:#ffaaaa;fill-rule:evenodd;stroke:#000000;stroke-width:1;stroke-linecap:butt;stroke-linejoin:miter;stroke-miterlimit:4;stroke-dasharray:none;stroke-opacity:1"
     d="m 207.07617,56.562654 c -0.1514,-3.61966 -0.67835,-6.97209 -2.53225,-9.737213 0,0 4.78327,-0.52147 4.76401,2.080489 -0.0135,1.824593 -2.23176,7.656724 -2.23176,7.656724 z"
     id="path1071-2"
     inkscape:connector-curvature="0"
     sodipodi:nodetypes="ccsc" />
</svg>
