<svg xmlns="http://www.w3.org/2000/svg" xmlns:xlink="http://www.w3.org/1999/xlink" cursor="default" viewBox="0 0 256 256">
    <defs>
        <linearGradient id="innoGrad1">
            <stop offset="0" stop-color="#ff8080"/>
            <stop offset="1" stop-color="#faa"/>
        </linearGradient>
        <linearGradient id="linearGradient1131" x1="438.689" x2="480.81" y1="169.093" y2="50.855" gradientTransform="translate(-274.597 -9.204)" gradientUnits="userSpaceOnUse" xlink:href="#innoGrad1"/>
        <linearGradient id="linearGradient1131-8" x1="470.815" x2="504.714" y1="118.249" y2="44.486" gradientTransform="translate(-274.748 -9.232)" gradientUnits="userSpaceOnUse" xlink:href="#innoGrad1"/>
    </defs>
    <path fill="#f55" fill-rule="evenodd" stroke="#000" d="M32.115 105.779c34.603 14.922 67.264 6.04 98.983-14.373-32.551.58-65.028.454-98.983 14.373z"/>
    <path fill="#f55" fill-rule="evenodd" stroke="#000" stroke-width="1.2" d="M205.577 239.695c-31.641-47.873-66.524-54.254-103.137-38.49 23.425 5.925 36.24 5.16 103.137 38.49zM250.792 19.223c-58.107-20.42-46.486 73.833-16.442 107.246 1.045-19.666 4.136-44.781 8.444-65.658 1.228-5.951 2.129-4.8 3.952 3.935.192-18.631 3.205-29.953 3.783-33.757.93-6.138 1.167-10.353.263-11.766z"/>
    <path fill="url(#linearGradient1131)" fill-rule="evenodd" stroke="#000" stroke-width="1.2" d="M145.04 87.233c-57.006-.31-94.698-8.28-121.82 23.168-1.082 16.13-9.325 31.888-2.989 47.832-3.209 16.152-14.092 31.983 0 48.578 5.147.764 10.44 1.573 16.02 2.309 4.796.632 9.262 1.21 12.402 5.451 2.388-3.62 6.993-3.464 9.21-3.334 2.634.154 5.342.271 8.136.344 4.797.124 14.454-.427 20.884 2.373.699-5.026 2.941-2.838 7.56-3.22 12.256-1.016 25.984-2.943 41.628-6.165 59.415 14.698 64.93 41.89 78.474 34.379 1.862-1.032 4.034-3.3 6.147-6.457 2.047-3.058 3.768-12.103 4.287 1.38 4.443-13.78 3.953-21.215 4.516-25.86.49-4.041.544-8.23-.002-12.41-.357-2.73-2.153-4.1-2.153-4.1l7.198-39.809c.623-3.446-1.503-3.122-2.862-4.72.314-4.468 3.627-12.111 3.047-16.579-1.54-37.44-35.944-40.622-89.683-43.16zm-29.594 2.52l-19.43 3.736 33.256.748c-30.632 3.184-59.894 4.405-90.43 11.211L62.01 97.6l-23.916 4.485c31.757-14.227 52.729-10.595 77.352-12.332z"/>
    <path d="M232.108 147.022l.815-.535c-1.475-2.248-4.398-5.956-8.351-9.004-4.183-3.223-7.936-4.557-10.774-5.408 2.788.836 6.478 2.673 10.14 6.15 3.543 3.36 5.906 7.121 7.355 9.331l.815-.534zM227.25 190.743l.508-.832c-10.26-6.26-27.8-15.822-50.283-24.23-22.987-8.596-41.591-12.462-54.108-14.549 12.354 2.06 31.195 6.462 53.757 15.458 22.37 8.92 39.3 18.69 49.619 24.984l.507-.831zM134.95 204.569l.18.958c3.974-.743 10.095-2.54 16.594-6.23 6.585-3.74 10.99-7.918 13.869-10.797-2.828 2.828-7.68 6.752-14.32 9.934-6.701 3.21-12.582 4.445-16.501 5.177l.179.958zM20.23 158.606l.895.386c1.442-3.344 3.475-7.222 7.826-12.145 3.651-4.131 8.714-8.598 10.71-10.288-2.278 1.928-7.116 5.492-11.413 9.613-4.724 4.531-7.423 8.593-8.912 12.048l.894.386z"/>
    <path fill="url(#linearGradient1131-8)" fill-rule="evenodd" stroke="#000" stroke-width="1.2" d="M222.743 5.785c-1.048-.003-1.788.15-2.106.487-9.06 9.62-19.75 22.694-30.306 35.527-3.757 4.567-10.47 13.226-9.608 18.428-2.86-2.007-8.694 3.46-12.053 7.226-10.34 11.595-19.03 19.778-23.78 19.752 30.804 2.602 76.58 23.139 89.683 43.16-1.433-11.034-3.853-23.273-1.215-43.644.646-4.987 1.704-10.41 2.912 1.691 3.602-28.588 4.085-32.593 5.254-37.728 2.384-10.476 5.364-21.14 9.008-31.572 1.967-5.633-20.453-13.302-27.79-13.327z"/>
    <path fill="#ff2a2a" fill-rule="evenodd" stroke="#000" stroke-width="1.2" d="M197.188 54.914c-2.724-2.057 23.98-32.601 24.663-32.51-4.637 7.627-12.568 15.489-12.705 22.794l6.353-5.231c-5.501 7.63-12.3 14.507-25.037 32.51 4.23-8.95 8.816-17.304 14.127-24.451-1.682 1.016-3.443 1.972-7.4 6.888z"/>
</svg>
