<svg version="1.1" viewBox="0 0 64 64" xmlns="http://www.w3.org/2000/svg">
 <path d="m32.219 56.781c-9.2572 0.17477-15.842-6.6079-15.578-14.708 0.31313-9.5432 11.771-18.394 16.25-33.95 4.3414 15.849 13.985 24.014 14.636 33.538 0.57916 8.4371-7.0465 14.963-15.308 15.119z" fill="#faa" fill-rule="evenodd" stroke="#000" stroke-width="1.1871"/>
 <path d="m39.971 31.448c2.2202 1.561 3.3643 4.9488 3.5879 8.2982 0.03533 0.50278 0.04709 1.0103 0.04002 1.5083 0.63095 2.7629 0.64037 5.7078-0.20011 7.6854 1.5468-1.628 2.425-4.6639 2.5403-7.8961a20.119 20.46 0 0 0-0.36491-1.652c-0.96762-3.6607-2.9358-6.924-5.6032-7.9439z" fill="#fff" fill-rule="evenodd" stroke-width="2.3742"/>
 <g transform="matrix(1.051 0 0 1.0688 -2.0375 -2.6456)" fill="#ffb380">
  <path d="m11.761 16.604 36.141 36.8 4.5607-4.3905-36.325-36.826z" fill-rule="evenodd" stroke="#000" stroke-width=".96098"/>
  <path d="m31.557 3.2892a29.044 29.665 89.457 0 0-2.0967 0.13664 29.044 29.665 89.457 0 0-18.317 8.6712 29.044 29.665 89.457 0 0-8.2389 23.135 29.044 29.665 89.457 0 0 32.481 25.994 29.044 29.665 89.457 0 0 26.556-31.811 29.044 29.665 89.457 0 0-30.384-26.123zm0.8669 4.5406a24.49 25.012 89.457 0 1 24.88 22.038 24.49 25.012 89.457 0 1-22.383 26.825 24.49 25.012 89.457 0 1-27.389-21.914 24.49 25.012 89.457 0 1 7.4638-20.017 24.49 25.012 89.457 0 1 14.928-6.803 24.49 25.012 89.457 0 1 2.4999-0.1277z" stroke="#000" stroke-linejoin="round" stroke-width="1.0215"/>
  <path d="m11.599 15.819 36.881 37.547 4.037-3.7064-37.058-37.535z" fill-rule="evenodd" stroke-width="2.2401"/>
 </g>
</svg>
