<?xml version="1.0" encoding="UTF-8" standalone="no"?>
<!-- Created with Inkscape (http://www.inkscape.org/) -->

<svg
   xmlns:dc="http://purl.org/dc/elements/1.1/"
   xmlns:cc="http://creativecommons.org/ns#"
   xmlns:rdf="http://www.w3.org/1999/02/22-rdf-syntax-ns#"
   xmlns:svg="http://www.w3.org/2000/svg"
   xmlns="http://www.w3.org/2000/svg"
   xmlns:sodipodi="http://sodipodi.sourceforge.net/DTD/sodipodi-0.dtd"
   xmlns:inkscape="http://www.inkscape.org/namespaces/inkscape"
   width="100%"
   height="100%"
   viewBox="0 0 64.000001 64.000001"
   id="svg4311"
   version="1.1"
   inkscape:version="0.92.3 (2405546, 2018-03-11)"
   sodipodi:docname="coverableAreaAnus.svg">
  <defs
     id="defs4313">
    <inkscape:path-effect
       effect="powerstroke"
       id="path-effect881"
       is_visible="true"
       offset_points="0,0.15317902"
       sort_points="true"
       interpolator_type="CubicBezierJohan"
       interpolator_beta="0.2"
       start_linecap_type="zerowidth"
       linejoin_type="extrp_arc"
       miter_limit="4"
       end_linecap_type="zerowidth" />
    <inkscape:path-effect
       effect="powerstroke"
       id="path-effect877"
       is_visible="true"
       offset_points="0.0021520657,0.13581488"
       sort_points="true"
       interpolator_type="CubicBezierJohan"
       interpolator_beta="0.2"
       start_linecap_type="zerowidth"
       linejoin_type="extrp_arc"
       miter_limit="4"
       end_linecap_type="zerowidth" />
    <inkscape:path-effect
       effect="powerstroke"
       id="path-effect873"
       is_visible="true"
       offset_points="0,0.11264591"
       sort_points="true"
       interpolator_type="CubicBezierJohan"
       interpolator_beta="0.2"
       start_linecap_type="zerowidth"
       linejoin_type="extrp_arc"
       miter_limit="4"
       end_linecap_type="zerowidth" />
    <inkscape:path-effect
       effect="powerstroke"
       id="path-effect869"
       is_visible="true"
       offset_points="0.030750183,0.13502515"
       sort_points="true"
       interpolator_type="CubicBezierJohan"
       interpolator_beta="0.2"
       start_linecap_type="zerowidth"
       linejoin_type="extrp_arc"
       miter_limit="4"
       end_linecap_type="zerowidth" />
    <inkscape:path-effect
       effect="powerstroke"
       id="path-effect865"
       is_visible="true"
       offset_points="0,0.15573178"
       sort_points="true"
       interpolator_type="CubicBezierJohan"
       interpolator_beta="0.2"
       start_linecap_type="zerowidth"
       linejoin_type="extrp_arc"
       miter_limit="4"
       end_linecap_type="zerowidth" />
    <inkscape:path-effect
       effect="powerstroke"
       id="path-effect861"
       is_visible="true"
       offset_points="0,0.11148455"
       sort_points="true"
       interpolator_type="CubicBezierJohan"
       interpolator_beta="0.2"
       start_linecap_type="zerowidth"
       linejoin_type="extrp_arc"
       miter_limit="4"
       end_linecap_type="zerowidth" />
    <inkscape:path-effect
       effect="powerstroke"
       id="path-effect857"
       is_visible="true"
       offset_points="0.0019159526,0.14265332"
       sort_points="true"
       interpolator_type="CubicBezierJohan"
       interpolator_beta="0.2"
       start_linecap_type="zerowidth"
       linejoin_type="extrp_arc"
       miter_limit="4"
       end_linecap_type="zerowidth" />
    <inkscape:path-effect
       effect="powerstroke"
       id="path-effect4260"
       is_visible="true"
       offset_points="0,0.1198108"
       sort_points="true"
       interpolator_type="Linear"
       interpolator_beta="0.2"
       start_linecap_type="zerowidth"
       linejoin_type="round"
       miter_limit="4"
       end_linecap_type="zerowidth"
       cusp_linecap_type="round" />
    <inkscape:path-effect
       effect="powerstroke"
       id="path-effect4254"
       is_visible="true"
       offset_points="0,0.5"
       sort_points="true"
       interpolator_type="CubicBezierJohan"
       interpolator_beta="0.2"
       start_linecap_type="zerowidth"
       linejoin_type="round"
       miter_limit="4"
       end_linecap_type="zerowidth"
       cusp_linecap_type="round" />
    <inkscape:path-effect
       effect="powerstroke"
       id="path-effect4250"
       is_visible="true"
       offset_points="0.012650487,0.15127843"
       sort_points="true"
       interpolator_type="Linear"
       interpolator_beta="0.2"
       start_linecap_type="zerowidth"
       linejoin_type="round"
       miter_limit="4"
       end_linecap_type="zerowidth"
       cusp_linecap_type="round" />
    <inkscape:path-effect
       effect="powerstroke"
       id="path-effect4229"
       is_visible="true"
       offset_points="0,0.5"
       sort_points="true"
       interpolator_type="CubicBezierJohan"
       interpolator_beta="0.2"
       start_linecap_type="zerowidth"
       linejoin_type="round"
       miter_limit="4"
       end_linecap_type="zerowidth"
       cusp_linecap_type="round" />
    <inkscape:path-effect
       effect="powerstroke"
       id="path-effect4225"
       is_visible="true"
       offset_points="0,0.5"
       sort_points="true"
       interpolator_type="CubicBezierJohan"
       interpolator_beta="0.2"
       start_linecap_type="zerowidth"
       linejoin_type="round"
       miter_limit="4"
       end_linecap_type="zerowidth"
       cusp_linecap_type="round" />
    <inkscape:path-effect
       effect="powerstroke"
       id="path-effect4221"
       is_visible="true"
       offset_points="0,0.5"
       sort_points="true"
       interpolator_type="CubicBezierJohan"
       interpolator_beta="0.2"
       start_linecap_type="zerowidth"
       linejoin_type="round"
       miter_limit="4"
       end_linecap_type="zerowidth"
       cusp_linecap_type="round" />
    <inkscape:path-effect
       effect="powerstroke"
       id="path-effect4217"
       is_visible="true"
       offset_points="0,0.5"
       sort_points="true"
       interpolator_type="CubicBezierJohan"
       interpolator_beta="0.2"
       start_linecap_type="zerowidth"
       linejoin_type="round"
       miter_limit="4"
       end_linecap_type="zerowidth"
       cusp_linecap_type="round" />
    <inkscape:path-effect
       effect="powerstroke"
       id="path-effect4213"
       is_visible="true"
       offset_points="0,0.5"
       sort_points="true"
       interpolator_type="CubicBezierJohan"
       interpolator_beta="0.2"
       start_linecap_type="zerowidth"
       linejoin_type="round"
       miter_limit="4"
       end_linecap_type="zerowidth"
       cusp_linecap_type="round" />
    <inkscape:path-effect
       effect="powerstroke"
       id="path-effect4209"
       is_visible="true"
       offset_points="0,0.5"
       sort_points="true"
       interpolator_type="CubicBezierJohan"
       interpolator_beta="0.2"
       start_linecap_type="zerowidth"
       linejoin_type="round"
       miter_limit="4"
       end_linecap_type="zerowidth"
       cusp_linecap_type="round" />
    <inkscape:path-effect
       effect="powerstroke"
       id="path-effect4194"
       is_visible="true"
       offset_points="0.0094565613,0.2899147"
       sort_points="true"
       interpolator_type="Linear"
       interpolator_beta="0.2"
       start_linecap_type="zerowidth"
       linejoin_type="round"
       miter_limit="4"
       end_linecap_type="zerowidth"
       cusp_linecap_type="round" />
    <inkscape:path-effect
       effect="powerstroke"
       id="path-effect4190"
       is_visible="true"
       offset_points="0,0.5"
       sort_points="true"
       interpolator_type="CubicBezierJohan"
       interpolator_beta="0.2"
       start_linecap_type="zerowidth"
       linejoin_type="round"
       miter_limit="4"
       end_linecap_type="zerowidth"
       cusp_linecap_type="round" />
    <inkscape:path-effect
       effect="powerstroke"
       id="path-effect4184"
       is_visible="true"
       offset_points="0,0.5"
       sort_points="true"
       interpolator_type="CubicBezierJohan"
       interpolator_beta="0.2"
       start_linecap_type="zerowidth"
       linejoin_type="round"
       miter_limit="4"
       end_linecap_type="zerowidth"
       cusp_linecap_type="round" />
    <inkscape:path-effect
       effect="powerstroke"
       id="path-effect4180"
       is_visible="true"
       offset_points="0,0.5"
       sort_points="true"
       interpolator_type="CubicBezierJohan"
       interpolator_beta="0.2"
       start_linecap_type="zerowidth"
       linejoin_type="round"
       miter_limit="4"
       end_linecap_type="zerowidth"
       cusp_linecap_type="round" />
    <inkscape:path-effect
       effect="powerstroke"
       id="path-effect4176"
       is_visible="true"
       offset_points="0,0.5"
       sort_points="true"
       interpolator_type="CubicBezierJohan"
       interpolator_beta="0.2"
       start_linecap_type="zerowidth"
       linejoin_type="round"
       miter_limit="4"
       end_linecap_type="zerowidth"
       cusp_linecap_type="round" />
    <inkscape:path-effect
       effect="powerstroke"
       id="path-effect4172"
       is_visible="true"
       offset_points="0,0.5"
       sort_points="true"
       interpolator_type="CubicBezierJohan"
       interpolator_beta="0.2"
       start_linecap_type="zerowidth"
       linejoin_type="round"
       miter_limit="4"
       end_linecap_type="zerowidth"
       cusp_linecap_type="round" />
    <inkscape:path-effect
       effect="powerstroke"
       id="path-effect4168"
       is_visible="true"
       offset_points="0,0.5"
       sort_points="true"
       interpolator_type="CubicBezierJohan"
       interpolator_beta="0.2"
       start_linecap_type="zerowidth"
       linejoin_type="round"
       miter_limit="4"
       end_linecap_type="zerowidth"
       cusp_linecap_type="round" />
    <inkscape:path-effect
       effect="powerstroke"
       id="path-effect4163"
       is_visible="true"
       offset_points="0.46983584,0.15422053"
       sort_points="true"
       interpolator_type="Linear"
       interpolator_beta="0.2"
       start_linecap_type="zerowidth"
       linejoin_type="round"
       miter_limit="4"
       end_linecap_type="zerowidth"
       cusp_linecap_type="round" />
    <inkscape:path-effect
       effect="powerstroke"
       id="path-effect4154"
       is_visible="true"
       offset_points="0.54375131,-0.51546499"
       sort_points="true"
       interpolator_type="Linear"
       interpolator_beta="0.2"
       start_linecap_type="zerowidth"
       linejoin_type="round"
       miter_limit="4"
       end_linecap_type="zerowidth"
       cusp_linecap_type="round" />
  </defs>
  <sodipodi:namedview
     id="base"
     pagecolor="#ffffff"
     bordercolor="#666666"
     borderopacity="1.0"
     inkscape:pageopacity="0.0"
     inkscape:pageshadow="2"
     inkscape:zoom="5.656854"
     inkscape:cx="36.689776"
     inkscape:cy="21.480271"
     inkscape:document-units="px"
     inkscape:current-layer="layer1"
     showgrid="false"
     units="px"
     inkscape:window-width="2560"
     inkscape:window-height="1388"
     inkscape:window-x="-8"
     inkscape:window-y="-8"
     inkscape:window-maximized="1"
     inkscape:snap-others="false"
     inkscape:object-nodes="false"
     inkscape:snap-nodes="false" />
  <metadata
     id="metadata4316">
    <rdf:RDF>
      <cc:Work
         rdf:about="">
        <dc:format>image/svg+xml</dc:format>
        <dc:type
           rdf:resource="http://purl.org/dc/dcmitype/StillImage" />
        <dc:title></dc:title>
      </cc:Work>
    </rdf:RDF>
  </metadata>
  <g
     inkscape:label="Layer 1"
     inkscape:groupmode="layer"
     id="layer1"
     transform="translate(0,-988.36216)"
     style="display:inline">
    <g
       id="g3356"
       transform="matrix(0.91698216,0,0,0.93594156,0.27340339,62.623539)">
      <path
         sodipodi:nodetypes="csccccc"
         inkscape:connector-curvature="0"
         id="path4242"
         d="m 29.528714,1020.2375 c 0.225815,-4.5625 3.405558,-6.8681 3.467652,-11.6585 0.0637,-4.9144 -1.612675,-9.99617 -9.715408,-15.6343 l -8.788686,-0.0135 c 2.679204,13.4514 -4.127768,14.7366 -10.8940584,14.4638 l -0.1964701,12.8126 z"
         style="fill:#808080;fill-rule:evenodd;stroke:#000000;stroke-width:0.23914845;stroke-linecap:butt;stroke-linejoin:miter;stroke-miterlimit:4;stroke-dasharray:none;stroke-opacity:1" />
      <path
         sodipodi:nodetypes="cc"
         inkscape:connector-curvature="0"
         id="path4246"
         d="m 12.623676,1020.2176 c 10.62439,-1.6123 15.769262,-11.319 9.790599,-21.41786"
         style="fill:none;fill-rule:evenodd;stroke:#000000;stroke-width:0.23914845;stroke-linecap:butt;stroke-linejoin:miter;stroke-miterlimit:4;stroke-dasharray:none;stroke-opacity:1" />
      <path
         sodipodi:nodetypes="cc"
         inkscape:connector-curvature="0"
         inkscape:original-d="m 21.072016,1016.3073 c 0.981709,0.797 3.564866,1.0104 4.830019,0.5443"
         inkscape:path-effect="#path-effect4250"
         id="path4248"
         d="m 21.072016,1016.3073 c -0.01936,0.049 -0.03733,0.099 -0.05394,0.1501 0.268306,0.1903 0.621096,0.3375 1.010649,0.4464 0.412202,0.1153 0.875801,0.1905 1.344218,0.2255 0.468873,0.035 0.944667,0.03 1.381619,-0.016 0.437266,-0.046 0.83511,-0.1332 1.147472,-0.2619 -0.320121,0.1044 -0.719792,0.1653 -1.153276,0.1855 -0.433868,0.02 -0.902486,-6e-4 -1.360235,-0.06 -0.458148,-0.06 -0.903645,-0.1581 -1.291344,-0.2925 -0.369645,-0.1281 -0.678767,-0.2861 -0.895185,-0.4673 -0.04246,0.031 -0.08578,0.061 -0.129979,0.09 z"
         style="fill:#000000;fill-rule:evenodd;stroke:none;stroke-width:1px;stroke-linecap:butt;stroke-linejoin:miter;stroke-opacity:1" />
      <path
         sodipodi:nodetypes="cc"
         inkscape:connector-curvature="0"
         id="path4256"
         d="m 18.250098,1018.3629 c -0.687064,0.642 -1.002291,1.2894 -1.321119,1.8972"
         style="fill:none;fill-rule:evenodd;stroke:#000000;stroke-width:0.23914845;stroke-linecap:butt;stroke-linejoin:miter;stroke-miterlimit:4;stroke-dasharray:none;stroke-opacity:1" />
      <path
         sodipodi:nodetypes="cc"
         inkscape:connector-curvature="0"
         inkscape:original-d="m 22.427949,998.82342 c -0.766657,-1.3014 -2.018819,-2.65407 -2.935996,-4.76519"
         inkscape:path-effect="#path-effect4260"
         id="path4258"
         d="m 22.427949,998.82342 0.10323,-0.0608 c -0.402447,-0.64414 -0.92984,-1.30485 -1.465351,-2.05198 -0.538405,-0.75116 -1.097272,-1.60546 -1.573875,-2.6524 0.440588,1.06428 0.966362,1.94168 1.475011,2.72008 0.510729,0.78158 0.994345,1.44942 1.357755,2.10592 z"
         style="fill:#000000;fill-rule:evenodd;stroke:none;stroke-width:1px;stroke-linecap:butt;stroke-linejoin:miter;stroke-opacity:1" />
    </g>
    <ellipse
       style="opacity:1;fill:#4d4d4d;fill-opacity:1;stroke:#000000;stroke-width:0.28637657;stroke-linecap:round;stroke-linejoin:round;stroke-miterlimit:4;stroke-dasharray:none;stroke-dashoffset:0;stroke-opacity:1"
       id="path851"
       cx="-225.03525"
       cy="965.80713"
       rx="3.7555697"
       ry="5.6910172"
       transform="matrix(0.96539784,-0.26078154,0.23320488,0.97242762,0,0)" />
    <ellipse
       transform="matrix(0.96539784,-0.26078154,0.23320488,0.97242762,0,0)"
       ry="1.4465804"
       rx="0.95461553"
       cy="965.80713"
       cx="-225.03525"
       id="ellipse853"
       style="opacity:1;fill:#333333;fill-opacity:1;stroke:#000000;stroke-width:0.17615925;stroke-linecap:round;stroke-linejoin:round;stroke-miterlimit:4;stroke-dasharray:none;stroke-dashoffset:0;stroke-opacity:1" />
    <path
       style="fill:#000000;fill-rule:nonzero;stroke:none;stroke-width:1.38578188px;stroke-linecap:butt;stroke-linejoin:miter;stroke-opacity:1"
       d="m 7.5939206,996.47813 c -3.074e-4,-8.6e-4 0.1331465,-0.0513 0.1328689,-0.0521 -0.044356,-0.12469 -0.1086098,-0.32488 -0.168835,-0.68373 -0.044607,-0.26578 -0.07913,-0.57348 -0.1013638,-0.90442 -0.021993,-0.32736 -0.029595,-0.6427 -0.026829,-0.90806 0.0037,-0.35493 0.025023,-0.58472 0.048126,-0.70732 -0.024418,0.12958 -0.066115,0.34163 -0.1045129,0.70404 -0.028268,0.26679 -0.050703,0.5809 -0.059751,0.91415 -0.00906,0.33375 -0.00371,0.65238 0.016511,0.92882 0.027014,0.36921 0.076288,0.60719 0.1278505,0.75214 3.346e-4,9.4e-4 0.1356288,-0.0444 0.1359362,-0.0435 z"
       id="path855"
       inkscape:connector-curvature="0"
       inkscape:path-effect="#path-effect857"
       inkscape:original-d="M 7.5939206,996.47813 C 7.3265527,995.73361 7.3431293,993.93761 7.4778871,993.2225"
       sodipodi:nodetypes="cc" />
    <path
       style="fill:#000000;fill-rule:nonzero;stroke:none;stroke-width:1.38578188px;stroke-linecap:butt;stroke-linejoin:miter;stroke-opacity:1"
       d="m 8.3137453,996.63924 c 0,0 0.1020452,0.0449 0.1020452,0.0449 0.1579667,-0.35906 0.3961871,-0.78798 0.9021955,-1.2017 0.4633796,-0.37887 1.029963,-0.63469 1.325205,-0.74865 -0.289638,0.11179 -0.8854817,0.31803 -1.3916466,0.65912 -0.5557626,0.37453 -0.8706615,0.81689 -1.0398443,1.20143 0,0 0.1020452,0.0449 0.1020452,0.0449 z"
       id="path859"
       inkscape:connector-curvature="0"
       inkscape:path-effect="#path-effect861"
       inkscape:original-d="m 8.3137453,996.63924 c 0.4573149,-1.03946 1.3555896,-1.52956 2.3294457,-1.90545"
       sodipodi:nodetypes="cc" />
    <path
       style="fill:#000000;fill-rule:nonzero;stroke:none;stroke-width:1.38578188px;stroke-linecap:butt;stroke-linejoin:miter;stroke-opacity:1"
       d="m 8.922359,998.45399 c 0,0 -0.020703,0.15435 -0.020703,0.15435 0.091808,0.0123 0.2348916,0.0352 0.4681376,0.13711 0.1753549,0.0766 0.3733572,0.18536 0.6066963,0.33133 0.4276086,0.26749 1.2730076,0.87085 1.5109246,1.04662 -0.331653,-0.24502 -0.928065,-0.77299 -1.420272,-1.17325 -0.2151334,-0.17494 -0.4050979,-0.31742 -0.580697,-0.42578 -0.2351351,-0.1451 -0.4110969,-0.20699 -0.5433845,-0.22473 0,0 -0.020703,0.15435 -0.020703,0.15435 z"
       id="path863"
       inkscape:connector-curvature="0"
       inkscape:path-effect="#path-effect865"
       inkscape:original-d="m 8.922359,998.45399 c 0.6173239,0.0828 1.459545,0.85267 2.565056,1.66941"
       sodipodi:nodetypes="cc" />
    <path
       style="fill:#000000;fill-rule:nonzero;stroke:none;stroke-width:1.38578188px;stroke-linecap:butt;stroke-linejoin:miter;stroke-opacity:1"
       d="m 8.2779814,999.21061 c 0.002,0.0121 -0.1271673,0.0652 -0.12598,0.0769 0.00493,0.0484 0.010631,0.11509 0.011616,0.20674 9.991e-4,0.093 -0.00293,0.20644 -0.015671,0.3437 -0.02183,0.23528 -0.067144,0.51268 -0.1367235,0.80698 -0.068326,0.289 -0.1518431,0.5592 -0.2384406,0.7808 -0.049079,0.1255 -0.096951,0.2299 -0.1420685,0.3144 -0.05943,0.1112 -0.1111812,0.1825 -0.1528268,0.2267 0.041852,-0.044 0.098795,-0.1103 0.1698441,-0.2165 0.05389,-0.081 0.112911,-0.18 0.175817,-0.3016 0.1111294,-0.2149 0.2230994,-0.4776 0.322461,-0.7646 0.1003721,-0.2899 0.1765689,-0.572 0.2234963,-0.81422 0.02749,-0.14187 0.043838,-0.26408 0.051362,-0.36707 0.00745,-0.10189 0.00601,-0.18166 -2.076e-4,-0.24271 -0.0015,-0.0147 -0.1406779,-0.0374 -0.1426789,-0.0495 z"
       id="path867"
       inkscape:connector-curvature="0"
       inkscape:path-effect="#path-effect869"
       inkscape:original-d="m 8.2779814,999.21061 c 0.1084573,0.65499 -0.3734,2.30329 -0.8000943,2.75619"
       sodipodi:nodetypes="cc" />
    <path
       style="fill:#000000;fill-rule:nonzero;stroke:none;stroke-width:1.38578188px;stroke-linecap:butt;stroke-linejoin:miter;stroke-opacity:1"
       d="m 7.0236466,997.69466 c 0,0 0.0031,-0.1126 0.0031,-0.1126 -0.3953802,-0.0109 -0.8440092,0.0602 -1.4048708,0.24258 -0.5016389,0.16314 -0.9653263,0.34263 -1.2113115,0.39759 0.2459852,-0.055 0.7306964,-0.18177 1.2403803,-0.28876 0.5939246,-0.12467 0.9729059,-0.13713 1.3696014,-0.12621 0,0 0.0031,-0.1126 0.0031,-0.1126 z"
       id="path871"
       inkscape:connector-curvature="0"
       inkscape:path-effect="#path-effect873"
       inkscape:original-d="m 7.0236466,997.69466 c -1.0351379,-0.0285 -1.7931311,0.34436 -2.613082,0.52757"
       sodipodi:nodetypes="cc" />
    <path
       style="fill:#000000;fill-rule:nonzero;stroke:none;stroke-width:1.38578188px;stroke-linecap:butt;stroke-linejoin:miter;stroke-opacity:1"
       d="m 7.3999559,998.8379 c -5.955e-4,5.4e-4 -0.094214,-0.0979 -0.094916,-0.0972 -0.098661,0.0907 -0.2096494,0.24864 -0.342912,0.52273 -0.1001746,0.20603 -0.1974414,0.44455 -0.3000277,0.70481 -0.1044433,0.265 -0.1927621,0.4959 -0.2851881,0.7098 -0.1217251,0.2818 -0.2117165,0.4399 -0.2862169,0.5302 0.079305,-0.096 0.1778396,-0.2297 0.3343796,-0.5062 0.1174007,-0.2074 0.2272457,-0.4224 0.3608557,-0.6771 0.1309457,-0.24969 0.2490813,-0.46777 0.3673263,-0.65564 0.1586179,-0.25201 0.2635155,-0.36232 0.3356604,-0.42867 4.889e-4,-4.5e-4 -0.089557,-0.10215 -0.088962,-0.10269 z"
       id="path875"
       inkscape:connector-curvature="0"
       inkscape:path-effect="#path-effect877"
       inkscape:original-d="m 7.3999559,998.8379 c -0.4611558,0.41959 -0.9049313,1.88 -1.3092604,2.3703"
       sodipodi:nodetypes="cc" />
    <path
       style="fill:#000000;fill-rule:nonzero;stroke:none;stroke-width:1.38578188px;stroke-linecap:butt;stroke-linejoin:miter;stroke-opacity:1"
       d="m 7.1979976,996.80681 c 0,0 0.07988,-0.1307 0.07988,-0.1307 -0.3640878,-0.22252 -0.6734314,-0.44158 -1.3709596,-1.04292 -0.5732011,-0.49416 -1.147619,-0.96969 -1.4160688,-1.17321 0.3503236,0.26559 0.7055576,0.64546 1.3103071,1.28401 0.5891785,0.62212 0.9758153,0.98503 1.3169611,1.19352 0,0 0.07988,-0.1307 0.07988,-0.1307 z"
       id="path879"
       inkscape:connector-curvature="0"
       inkscape:path-effect="#path-effect881"
       inkscape:original-d="M 7.1979976,996.80681 C 6.3288018,996.27559 5.3856819,995.13839 4.4908493,994.45998"
       sodipodi:nodetypes="cc" />
  </g>
</svg>
