<svg xmlns="http://www.w3.org/2000/svg" viewBox="0 0 64 64">
    <g fill-rule="evenodd" stroke="#000">
        <path fill="#808080" stroke-width=".58116" d="M8.173 13.707c-1.489 26.065 6.92 37.28 10.942 48.543 3.68.403 7.47.642 11.917-.103 1.072-22.612 7.795-39.06-22.859-48.44z"/>
        <path fill="#808080" stroke-width=".58116" d="M31.032 62.095c2.242.961 12.617.993 15.394.147C51.398 42 60.213 23.609 55.432 8.929c-30.647 14.433-21.085 23.34-24.4 53.166zM8.137 11.88c-.013-3.372 2.2-5.724 3.428-10.752l41.286.023c.511 2.02 1.982 3.024 2.288 6.005-14.626 9.397-29.89 16.37-47.002 4.723z"/>
        <path fill="#333" stroke-width=".697392" d="M8.173 11.241c-.082 1.507-.197 3.014 0 4.52 14.11 4.287 14.733 4.891 21.24 11.764 1.901.325 3.013-.096 4.367-.59 5.042-9.482 16.827-14.397 21.652-17.543.104-1.219-.053-2.287-.514-3.673-16.646 8.262-25.854 13.448-46.745 5.522z"/>
    </g>
</svg>
