<?xml version="1.0" encoding="UTF-8" standalone="no"?>
<!-- Created with Inkscape (http://www.inkscape.org/) -->

<svg
   xmlns:dc="http://purl.org/dc/elements/1.1/"
   xmlns:cc="http://creativecommons.org/ns#"
   xmlns:rdf="http://www.w3.org/1999/02/22-rdf-syntax-ns#"
   xmlns:svg="http://www.w3.org/2000/svg"
   xmlns="http://www.w3.org/2000/svg"
   xmlns:sodipodi="http://sodipodi.sourceforge.net/DTD/sodipodi-0.dtd"
   xmlns:inkscape="http://www.inkscape.org/namespaces/inkscape"
   width="100%"
   height="100%"
   viewBox="0 0 64.000001 64.000001"
   id="svg4311"
   version="1.1"
   inkscape:version="0.92.3 (2405546, 2018-03-11)"
   sodipodi:docname="coverableAreaUrethraPenis.svg">
  <defs
     id="defs4313">
    <inkscape:path-effect
       effect="powerstroke"
       id="path-effect4244"
       is_visible="true"
       offset_points="0.00083944824,0.078909208"
       sort_points="true"
       interpolator_type="Linear"
       interpolator_beta="0.2"
       start_linecap_type="zerowidth"
       linejoin_type="round"
       miter_limit="4"
       end_linecap_type="zerowidth"
       cusp_linecap_type="round" />
    <inkscape:path-effect
       effect="powerstroke"
       id="path-effect4232"
       is_visible="true"
       offset_points="0.029851173,0.095391597"
       sort_points="true"
       interpolator_type="Linear"
       interpolator_beta="0.2"
       start_linecap_type="zerowidth"
       linejoin_type="round"
       miter_limit="4"
       end_linecap_type="zerowidth"
       cusp_linecap_type="round" />
    <inkscape:path-effect
       effect="powerstroke"
       id="path-effect4228"
       is_visible="true"
       offset_points="0,-0.12622391"
       sort_points="true"
       interpolator_type="Linear"
       interpolator_beta="0.2"
       start_linecap_type="zerowidth"
       linejoin_type="round"
       miter_limit="4"
       end_linecap_type="zerowidth"
       cusp_linecap_type="round" />
    <inkscape:path-effect
       effect="powerstroke"
       id="path-effect4163"
       is_visible="true"
       offset_points="0.46983584,0.065404561"
       sort_points="true"
       interpolator_type="Linear"
       interpolator_beta="0.2"
       start_linecap_type="zerowidth"
       linejoin_type="round"
       miter_limit="4"
       end_linecap_type="zerowidth"
       cusp_linecap_type="round" />
    <inkscape:path-effect
       effect="powerstroke"
       id="path-effect4154"
       is_visible="true"
       offset_points="0.54375131,-0.51546499"
       sort_points="true"
       interpolator_type="Linear"
       interpolator_beta="0.2"
       start_linecap_type="zerowidth"
       linejoin_type="round"
       miter_limit="4"
       end_linecap_type="zerowidth"
       cusp_linecap_type="round" />
  </defs>
  <sodipodi:namedview
     id="base"
     pagecolor="#ffffff"
     bordercolor="#666666"
     borderopacity="1.0"
     inkscape:pageopacity="0.0"
     inkscape:pageshadow="2"
     inkscape:zoom="5.656854"
     inkscape:cx="11.61969"
     inkscape:cy="29.030492"
     inkscape:document-units="px"
     inkscape:current-layer="layer1"
     showgrid="false"
     units="px"
     inkscape:window-width="2560"
     inkscape:window-height="1388"
     inkscape:window-x="-8"
     inkscape:window-y="-8"
     inkscape:window-maximized="1" />
  <metadata
     id="metadata4316">
    <rdf:RDF>
      <cc:Work
         rdf:about="">
        <dc:format>image/svg+xml</dc:format>
        <dc:type
           rdf:resource="http://purl.org/dc/dcmitype/StillImage" />
        <dc:title></dc:title>
      </cc:Work>
    </rdf:RDF>
  </metadata>
  <g
     inkscape:label="Layer 1"
     inkscape:groupmode="layer"
     id="layer1"
     transform="translate(0,-988.36216)"
     style="display:inline">
    <g
       id="g4142"
       transform="matrix(1.5691697,0,0,1.5691697,-32.564519,-598.28948)">
      <path
         sodipodi:nodetypes="cscccsscsc"
         inkscape:connector-curvature="0"
         id="path4213"
         d="m 25.460877,1038.5953 c -5.454062,2.4942 -4.605645,7.4058 -0.953037,9.9188 2.886922,1.986 7.031508,1.7664 8.604731,0.045 9.63106,2.9255 9.939587,-5.4558 8.660702,-7.5677 9.722895,-5.578 13.719927,-13.5972 18.246337,-20.6006 1.124083,-2.1996 1.375655,-5.3922 -1.681693,-6.1383 -1.996042,-0.4869 -6.686611,1.6904 -10.174224,5.0451 -0.326064,0.3137 -0.190922,1.1028 0.504508,1.3454 -5.739057,7.6651 -13.481551,13.5043 -23.207324,17.952 z"
         style="fill:#808080;fill-rule:evenodd;stroke:#000000;stroke-width:0.2378269px;stroke-linecap:butt;stroke-linejoin:miter;stroke-opacity:1" />
      <path
         sodipodi:nodetypes="cc"
         inkscape:connector-curvature="0"
         inkscape:original-d="m 48.665038,1020.648 c 1.203818,0.3815 2.198004,-0.3686 5.461082,-0.3244"
         inkscape:path-effect="#path-effect4228"
         id="path4226"
         d="m 48.665038,1020.648 0.03813,-0.1203 c 0.280734,0.1 0.553326,0.1349 0.859332,0.1298 0.307877,-0.01 0.64356,-0.05 1.050492,-0.1075 0.813162,-0.1139 1.880625,-0.2696 3.513126,-0.2264 -1.631165,-0 -2.691157,0.1963 -3.492401,0.3509 -0.399738,0.077 -0.742737,0.1454 -1.061576,0.1721 -0.321111,0.027 -0.623899,0.013 -0.945237,-0.078 z"
         style="fill:#000000;fill-rule:evenodd;stroke:none;stroke-width:1px;stroke-linecap:butt;stroke-linejoin:miter;stroke-opacity:1" />
      <path
         sodipodi:nodetypes="cc"
         inkscape:connector-curvature="0"
         inkscape:original-d="m 33.019533,1048.6356 c 0.504828,-0.6298 1.291482,-1.5369 1.515625,-2.3438"
         inkscape:path-effect="#path-effect4232"
         id="path4230"
         d="m 33.019533,1048.6356 c 0.03991,0 0.07992,0 0.120199,0 0.232348,-0.3127 0.523457,-0.6866 0.782991,-1.0798 0.276429,-0.4187 0.515828,-0.8575 0.612435,-1.2667 -0.127384,0.3976 -0.393688,0.816 -0.692677,1.2099 -0.281859,0.3713 -0.593626,0.7219 -0.851267,1.0169 0.0092,0.039 0.01858,0.078 0.02832,0.117 z"
         style="fill:#000000;fill-rule:evenodd;stroke:none;stroke-width:1px;stroke-linecap:butt;stroke-linejoin:miter;stroke-opacity:1" />
      <path
         sodipodi:nodetypes="cc"
         inkscape:connector-curvature="0"
         inkscape:original-d="m 59.953128,1020.5028 c -0.240812,-0.2328 -1.311827,-0.2919 -1.664063,-0.3359"
         inkscape:path-effect="#path-effect4244"
         id="path4242"
         d="m 59.953128,1020.5028 c 0.01808,-0.019 0.03609,-0.038 0.05404,-0.058 -0.04112,-0.035 -0.09442,-0.062 -0.151754,-0.085 -0.05849,-0.023 -0.126015,-0.042 -0.198448,-0.059 -0.144806,-0.034 -0.316213,-0.058 -0.488439,-0.076 -0.172669,-0.018 -0.348422,-0.031 -0.502751,-0.039 -0.154472,-0.01 -0.287834,-0.014 -0.376709,-0.019 0.08723,0.017 0.219936,0.036 0.372781,0.058 0.153057,0.022 0.326196,0.047 0.49539,0.078 0.169449,0.031 0.333383,0.068 0.467917,0.1122 0.06723,0.022 0.125862,0.046 0.173301,0.071 0.04769,0.025 0.0807,0.05 0.09942,0.073 0.01835,-0.019 0.03677,-0.038 0.05525,-0.056 z"
         style="fill:#000000;fill-rule:evenodd;stroke:none;stroke-width:1px;stroke-linecap:butt;stroke-linejoin:miter;stroke-opacity:1" />
    </g>
    <path
       style="display:inline;fill:#b3b3b3;fill-rule:evenodd;stroke:#000000;stroke-width:0.5;stroke-linecap:butt;stroke-linejoin:miter;stroke-miterlimit:4;stroke-dasharray:none;stroke-opacity:1"
       d="m 6.5869404,993.87257 c 0.684731,-3.10445 5.5429526,-1.4344 5.0854156,1.01708 -0.535576,2.86958 -5.9071545,20.71545 3.446779,21.01965 10.790124,0.3507 9.360524,-18.41229 9.549277,-21.13255 0.242137,-3.48955 4.650875,-2.00578 4.689884,0.39548 0.08267,5.08877 0.119355,26.45197 -14.57819,25.59687 -15.60245899,-0.9084 -8.7075372,-24.56444 -8.1931656,-26.89653 z"
       id="path4169"
       inkscape:connector-curvature="0"
       sodipodi:nodetypes="sssssss" />
  </g>
</svg>
