<?xml version="1.0" encoding="UTF-8"?>
<svg version="1.1" viewBox="0 0 64 64" xmlns="http://www.w3.org/2000/svg" xmlns:cc="http://creativecommons.org/ns#" xmlns:dc="http://purl.org/dc/elements/1.1/" xmlns:rdf="http://www.w3.org/1999/02/22-rdf-syntax-ns#">
 <metadata>
  <rdf:RDF>
   <cc:Work rdf:about="">
    <dc:format>image/svg+xml</dc:format>
    <dc:type rdf:resource="http://purl.org/dc/dcmitype/StillImage"/>
    <dc:title/>
   </cc:Work>
  </rdf:RDF>
 </metadata>
 <g fill-rule="evenodd">
  <path d="m20.971 51.66c4.387-1.393 7.549-5.756 9.323-9.077l-8.308-3.2zm11.261-8.616c1.349 4.1 7.073 7.494 10.86 7.662l-0.676-11.2z" fill="#666" stroke="#000" stroke-width=".608"/>
  <path d="m22.81 54.678c0.107-4.171 0.113-8.385 0.108-12.604 2.4262 3.2906 13.462 3.8849 17.492-1.044 0.038 4.566 0.48 8.998 1.135 13.359 6.776-0.234 11.83 1.159 16.714-4.477 6.469-7.463 6.256-27.942-2.342-36.667-4.541-4.608-13.332-3.175-25.469-3.003-10.377 0.148-19.745-0.919-23.87 4.046-8.759 10.54-6.335 32.84-0.175 38.093 4.43 3.777 9.89 2.566 16.407 2.297z" fill="#808080" stroke="#000" stroke-width=".486"/>
  <path d="m23.015 42.6a2.82 2.82 0 0 0 0.32-0.17 4.296 4.296 0 0 0-0.182-0.917 8.897 8.897 0 0 0-0.5-1.252c-0.425-0.887-1.031-1.885-1.765-2.948-1.47-2.128-3.472-4.541-5.63-6.877-2.157-2.337-4.474-4.601-6.572-6.428a43.981 43.981 0 0 0-2.938-2.368c-0.894-0.65-1.685-1.145-2.327-1.439 0.629 0.318 1.403 0.835 2.278 1.505 0.874 0.67 1.85 1.493 2.878 2.425 2.057 1.863 4.329 4.16 6.439 6.525 2.111 2.367 4.057 4.799 5.464 6.932 0.704 1.067 1.269 2.053 1.652 2.914 0.191 0.43 0.336 0.825 0.43 1.18 0.077 0.294 0.119 0.555 0.125 0.783 0.11 0.04 0.22 0.085 0.328 0.136zm17.367-1.049c0.085 0 0.17-0.01 0.254-0.013-0.04-1.43 0.268-3.004 0.949-4.7 0.682-1.701 1.734-3.518 3.171-5.424 2.875-3.814 7.275-7.971 13.28-12.274-6.05 4.23-10.522 8.333-13.482 12.119-1.48 1.893-2.586 3.711-3.323 5.432-0.734 1.716-1.104 3.343-1.104 4.854 0.085 0 0.17 0 0.255 0.01z"/>
 </g>
</svg>
