<?xml version="1.0" encoding="UTF-8"?>
<svg version="1.1" viewBox="0 0 64 64" xmlns="http://www.w3.org/2000/svg" xmlns:cc="http://creativecommons.org/ns#" xmlns:dc="http://purl.org/dc/elements/1.1/" xmlns:rdf="http://www.w3.org/1999/02/22-rdf-syntax-ns#">
 <metadata>
  <rdf:RDF>
   <cc:Work rdf:about="">
    <dc:format>image/svg+xml</dc:format>
    <dc:type rdf:resource="http://purl.org/dc/dcmitype/StillImage"/>
    <dc:title/>
   </cc:Work>
  </rdf:RDF>
 </metadata>
 <g transform="matrix(1.4641 0 0 1.4641 -132.79 -8.6309)">
  <path d="m126.47 13.786c3.1702 1.9712 5.7533 6.8799 5.8553 14.342 0.0607 4.4396-3.9333 10.03-6.4313 11.891-0.59398 0.8538-1.0696 1.7636-2.3997 2.2693-1.2035 4.732-3.2244 2.1721-3.2156-0.04539-0.88784-0.43791-1.7511-0.9561-2.4957-1.8608-3.4191-2.1781-5.1848-4.8399-6.7672-7.3526l2.5437-17.247" fill="#808080" stroke="#000" stroke-width=".5"/>
  <path d="m126.47 13.786c-0.53607 0.07999-1.6942 0.28285-3.0784 0.5308-1.2649 0.2266-2.9643 0.53657-3.6308 0.6483-0.46087 0.07726-1.1099 0.18224-1.8846 0.30866-1.6118 0.26302-3.4138 0.56186-5.2264 0.88765-1.7892 0.32158-3.0906 0.58099-3.8687 0.7539 0.87797-0.1951 1.9721-0.44466 3.854-0.83032 1.7799-0.36478 3.6249-0.7184 5.2073-1.0069 0.76965-0.14033 1.4235-0.25536 1.8817-0.33216 0.80231-0.13449 2.2408-0.3444 3.6501-0.53886 1.3714-0.18923 2.5551-0.34037 3.0958-0.42104z"/>
  <g stroke="#000" stroke-width=".5">
   <path d="m116.11 14.367c0.97456 4.7082 2.8526 9.6021 2.1093 13.902-1.0999 6.3633-4.8612 9.9807-9.3002 12.177-2.2788 0.06798-3.4564-0.07578-7.1909-0.2397-9.2294-3.9677-9.2698-12.274-8.725-20.47" fill="#808080"/>
   <path d="m108.92 40.446c-0.67115 0.62098-1.3423 0.94473-2.0134 1.0547-0.90394 0.48629-1.819 0.45752-2.8284 0.09588-0.76599-0.21345-1.6343-0.49591-2.349-1.3902 0.4607-0.56953 6.752-0.88723 7.1909 0.2397z" fill="#666"/>
   <path d="m106.9 41.501c-0.66045 4.676-3.4728 2.9387-2.8284 0.09588 0.28402-0.3549 2.1221-0.41144 2.8284-0.09588z" fill="#4d4d4d"/>
   <path d="m125.89 40.019c-0.59398 0.8538-1.0696 1.7636-2.3997 2.2693-1.4072 0.26165-1.8701 0.5422-3.2156-0.04539-0.88784-0.43791-1.7511-0.9561-2.4957-1.8608 1.0075-0.86968 6.8218-1.0734 8.1111-0.36308z" fill="#666"/>
   <path d="m123.49 42.288c-1.2035 4.732-3.2244 2.1721-3.2156-0.04539 0.84-0.40267 2.4682-0.4222 3.2156 0.04539z" fill="#4d4d4d"/>
  </g>
  <path d="m93.001 19.737c0.17598-0.03912 0.54512-0.13196 1.3119-0.32608-3.1448 0.79611 5.4144-1.37 2.2696-0.57386 1.9966-0.50329 4.3583-1.0933 6.3985-1.5909 0.74209-0.18102 1.3867-0.33636 1.8867-0.45449 1.098-0.25941 3.217-0.73604 5.3091-1.1904 3.3084-0.71843 4.534-0.95076 5.9309-1.2335-1.0078 0.20399-2.9965 0.66501-5.9004 1.3664-2.0725 0.50056-4.1816 1.0198-5.2868 1.2809-0.49427 0.11677-1.1513 0.26962-1.8897 0.44059-1.7821 0.41261-4.6814 1.0797-6.4254 1.4769-0.95698 0.21797-1.6946 0.3843-2.2837 0.51532-0.47118 0.10479-0.84953 0.18433-1.3207 0.28912z"/>
 </g>
</svg>
