<svg xmlns="http://www.w3.org/2000/svg" viewBox="0 0 64 64">
    <g fill-rule="evenodd">
        <path fill="#4d4d4d" stroke="#000" stroke-width=".571" d="M34.526 50.077c-5.155-.125-14.487-2.674-20.915-10.786C8.438 32.762 6.99 25.132 7.73 24.525c17.184-14.083 45.69-15.94 44.665-9.43-.802 5.103-3.115 10.123-3.36 15.3-.516 10.947-2.877 19.97-14.508 19.682z"/>
        <path fill="#e6e6e6" stroke="#000" stroke-width=".571" d="M53.149 17.733c-2.945-8.26-36.125 1.532-43.956 4.37 4.175-8.38 19.948-14.084 35.04-15.113 15.946-1.087 9.724 6.633 8.916 10.743z"/>
        <path fill="#b3b3b3" stroke="#000" stroke-width=".571" d="M46.774 46.995c-6.217-18.73-22.793-15.578-38.16-14.978.036 7.45 7.419 12.985 12.482 19.124 14.066 3.597 20.13-.056 25.678-4.146z"/>
        <path fill="#808080" stroke="#000" stroke-width=".571" d="M48.624 2.048c5.216-.095 9.73 4.324 9.072 7.946-1.415 7.806-6.441 12.28-7.757 18.99-1.832 9.346 4.198 30.272-13.106 32.188-10.24 1.134-29.727-11.965-30.248-37.225C6.52 20.79 31.63-2.962 43.342 3.842c1.73-1.233 3.544-1.763 5.282-1.794zm-5.383 9.461c-9.611.195-24.767 4.216-35.508 13.018-.74.607.7 8.239 5.874 14.767 6.428 8.112 15.763 10.663 20.919 10.788 11.631.286 13.994-8.736 14.51-19.681.245-5.178 2.553-10.2 3.355-15.303.384-2.44-3.383-3.704-9.15-3.589z"/>
        <path d="M12.76 32.194c4.842.388 8.243 1.289 11.027 2.596.185.07.367.142.548.216 3 1.224 5.44 2.942 8.307 5.08-2.698-2.303-5.043-4.251-8.018-5.722-.18-.09-.362-.176-.547-.262-2.97-1.115-6.474-1.77-11.317-1.908z"/>
    </g>
</svg>
