<svg version="1.1" viewBox="0 0 256 256" xmlns="http://www.w3.org/2000/svg" xmlns:xlink="http://www.w3.org/1999/xlink">
 <defs>
  <radialGradient id="radialGradient846" cx="55.322" cy="45.017" r="8.4068" gradientTransform="matrix(.86314 0 0 .83561 4.0238 3.0859)" gradientUnits="userSpaceOnUse" xlink:href="#innoGrad1"/>
  <linearGradient id="innoGrad1">
   <stop stop-color="#ffe6d5" stop-opacity=".23832" offset="0"/>
   <stop stop-color="#ffe6d5" stop-opacity=".28505" offset=".62903"/>
   <stop stop-color="#ffb380" offset=".79839"/>
   <stop stop-color="#ffe6d5" stop-opacity="0" offset="1"/>
  </linearGradient>
  <radialGradient id="radialGradient846-6" cx="55.322" cy="45.017" r="8.4068" gradientTransform="matrix(.57802 0 0 .56759 26.701 25.937)" gradientUnits="userSpaceOnUse" xlink:href="#innoGrad1"/>
  <radialGradient id="radialGradient846-6-2" cx="55.322" cy="45.017" r="8.4068" gradientTransform="matrix(.40694 0 0 .37941 29.837 40.928)" gradientUnits="userSpaceOnUse" xlink:href="#innoGrad1"/>
  <radialGradient id="radialGradient846-1" cx="55.322" cy="45.017" r="8.4068" gradientTransform="matrix(2.617 0 0 2.6225 -199.96 -86.699)" gradientUnits="userSpaceOnUse" xlink:href="#innoGrad1"/>
  <radialGradient id="radialGradient846-6-7" cx="55.322" cy="45.017" r="8.4068" gradientTransform="matrix(1.7526 0 0 1.7813 -131.2 -14.983)" gradientUnits="userSpaceOnUse" xlink:href="#innoGrad1"/>
  <radialGradient id="radialGradient846-6-2-0" cx="55.322" cy="45.017" r="8.4068" gradientTransform="matrix(1.2338 0 0 1.1908 -121.99 140.39)" gradientUnits="userSpaceOnUse" xlink:href="#innoGrad1"/>
  <radialGradient id="radialGradient846-0" cx="55.322" cy="45.017" r="8.4068" gradientTransform="matrix(2.7089 0 0 2.6225 -111.15 45.777)" gradientUnits="userSpaceOnUse" xlink:href="#innoGrad1"/>
 </defs>
 <g transform="translate(-5.4237 -2.1695)">
  <ellipse transform="scale(-1,1)" cx="-55.175" cy="31.358" rx="22.001" ry="22.047" fill="url(#radialGradient846-1)" stroke-width="3.1384"/>
  <g stroke-width="3.1384">
   <ellipse transform="scale(-1,1)" cx="-34.246" cy="65.207" rx="14.733" ry="14.975" fill="url(#radialGradient846-6-7)"/>
   <path d="m57.146 17.891c1.0012 0.27745 2.4196 1.007 3.5398 1.9722 1.1559 0.99589 1.6202 1.8564 2.0549 2.3933 0.0015 0.0018 0.0029 0.0036 0.0044 0.0054 0.49437 0.60747 1.1268 1.1032 1.9972 2.5019 0.77372 1.2433 1.3838 2.7371 1.5814 3.6591-0.2596-1.2115-0.38016-2.8222-0.63977-4.0338-0.33744-1.568-0.8465-2.7624-1.3691-3.4046-0.0018-0.0022-0.0038-0.0045-0.0056-0.0067-0.52063-0.63531-1.6065-1.4076-3.1114-1.9856-1.4393-0.5528-3.15-0.85117-4.0517-1.1011z" fill="#fff"/>
   <path d="m36.534 56.633c0.64187 0.20271 1.5359 0.72068 2.2346 1.4066 0.71945 0.70634 1.0018 1.3178 1.281 1.7108 9.44e-4 0.0013 0.0019 0.0026 0.0028 0.0041 0.32439 0.45422 0.73452 0.819 1.3122 1.8637 0.5089 0.92038 0.91118 2.0178 1.0372 2.6881-0.11859-0.63067-0.19226-1.8456-0.38283-2.9166-0.20006-1.1244-0.50883-1.9758-0.84009-2.4396-0.0012-0.0016-0.0023-0.0031-0.0035-5e-3 -0.33101-0.46009-1.0411-1.0401-2.0222-1.4795-1.0459-0.4685-1.9126-0.60933-2.6191-0.83244z" fill="#fff"/>
  </g>
 </g>
 <g transform="translate(8.5502 -50.255)" stroke-width="3.1384">
  <ellipse transform="scale(-1,1)" cx="-53.732" cy="194" rx="10.373" ry="10.01" fill="url(#radialGradient846-6-2-0)"/>
  <ellipse cx="38.716" cy="163.83" rx="22.773" ry="22.047" fill="url(#radialGradient846-0)"/>
  <path d="m40.897 150.74c1.0012 0.27744 2.4196 1.007 3.5398 1.9722 1.1559 0.99589 1.6202 1.8564 2.0549 2.3933 0.0015 2e-3 0.0029 4e-3 0.0044 5e-3 0.49437 0.60747 1.1268 1.1032 1.9972 2.5019 0.77372 1.2433 1.3838 2.7371 1.5814 3.6591-0.25961-1.2115-0.38016-2.8223-0.63977-4.0338-0.33744-1.568-0.8465-2.7624-1.3691-3.4046-0.0018-2e-3 -0.0038-4e-3 -0.0056-7e-3 -0.52063-0.63541-1.6065-1.4077-3.1114-1.9857-1.4393-0.5528-3.15-0.85117-4.0517-1.1011z" fill="#fff"/>
  <path d="m53.685 187.98c0.6204 0.13404 1.523 0.50983 2.2465 1.0041 0.75363 0.51485 1.0616 0.95298 1.3348 1.2161 9.1e-4 8.8e-4 0.0018 2e-3 0.0027 3e-3 0.29991 0.28732 0.67596 0.50795 1.1881 1.1537 0.45928 0.57908 0.82152 1.2893 0.94511 1.739-0.11556-0.42046-0.21523-1.2474-0.43853-1.9975-0.23532-0.79051-0.5803-1.4004-0.90895-1.7152-0.0011-1e-3 -0.0023-2e-3 -0.0035-3e-3 -0.32564-0.30973-0.97615-0.65772-1.8836-0.91081-0.86975-0.24257-1.921-0.36722-2.4827-0.48862z" fill="#fff"/>
 </g>
 <g transform="translate(28.016 -72.399)">
  <g transform="matrix(3.1384 0 0 3.1384 12.537 7.8082)">
   <ellipse cx="51.775" cy="40.702" rx="7.2562" ry="7.0248" fill="url(#radialGradient846)"/>
   <ellipse cx="58.678" cy="51.488" rx="4.8593" ry="4.7716" fill="url(#radialGradient846-6)"/>
   <ellipse cx="52.35" cy="58.008" rx="3.4211" ry="3.1896" fill="url(#radialGradient846-6-2)"/>
  </g>
  <g fill="#fff" stroke-width="3.1384">
   <path d="m177.59 123.21c1.0012 0.27744 2.4196 1.007 3.5398 1.9722 1.1559 0.99588 1.6202 1.8564 2.0549 2.3933 1e-3 2e-3 3e-3 4e-3 4e-3 5e-3 0.49437 0.60748 1.1268 1.1032 1.9972 2.5019 0.77371 1.2433 1.3838 2.7371 1.5814 3.6591-0.25961-1.2115-0.38016-2.8223-0.63977-4.0338-0.33744-1.568-0.8465-2.7624-1.3691-3.4046-2e-3 -2e-3 -4e-3 -4e-3 -6e-3 -7e-3 -0.52079-0.63534-1.6067-1.4076-3.1115-1.9856-1.4394-0.5528-3.15-0.85117-4.0517-1.1011z"/>
   <path d="m199.18 160.82c0.64187 0.20271 1.5359 0.72067 2.2346 1.4066 0.71945 0.70633 1.0018 1.3178 1.281 1.7108 9.4e-4 1e-3 2e-3 3e-3 3e-3 4e-3 0.32438 0.45422 0.73451 0.819 1.3122 1.8637 0.5089 0.92038 0.91118 2.0178 1.0372 2.6881-0.1186-0.63067-0.19226-1.8456-0.38282-2.9166-0.20008-1.1244-0.50884-1.9758-0.8401-2.4396-1e-3 -2e-3 -2e-3 -3e-3 -3e-3 -5e-3 -0.33104-0.46012-1.0411-1.0401-2.0222-1.4796-1.0459-0.4685-1.9126-0.60932-2.6192-0.83243z"/>
   <path d="m176.98 183.99c0.62041 0.13405 1.523 0.50984 2.2465 1.0041 0.75363 0.51486 1.0616 0.95299 1.3348 1.2161 9.1e-4 8.8e-4 2e-3 2e-3 3e-3 3e-3 0.2999 0.28733 0.67595 0.50796 1.1881 1.1537 0.45928 0.57907 0.82152 1.2893 0.94511 1.739-0.11556-0.42045-0.21523-1.2474-0.43853-1.9975-0.23532-0.79051-0.5803-1.4004-0.90896-1.7152l-3e-3 -3e-3c-0.32564-0.30973-0.97614-0.65772-1.8836-0.9108-0.86975-0.24257-1.921-0.36723-2.4828-0.48862z"/>
  </g>
 </g>
 <path d="m8.3626 201.83c7.076 6.8901 13.997 11.525 32.076 11.006 36.923-1.0585 51.009-85.339 103.65-85.837 23.115-0.21815 33.241 27.862 29.657 29.469-5.7393 2.5724-10.372-0.7584-29.752-2.9428-21.964-2.4743-38.613 54.601-6.7524 59.601 14.099 2.2122 22.292-7.9998 30.092-8.4947 11.17-0.70863 25.657 5.8447 32.401 6.0614 9.9222 0.31771 15.995-4.1024 21.954-4.1785 17.202-0.22401 15.89 6.0438 27.572 2.3367-3.874 9.095-12.577 15.628-24.518 15.736-13.985 0.12591-15.578-6.6646-23.912-6.9633-5.5973-0.20059-5.2078 7.8329-20.064 7.7451-16.644-0.0981-14.978-7.5445-20.778-7.5035-5.7832 0.041-7.5723 6.7773-21.071 7.1477-12.681 0.34993-11.856-6.4889-21.957-7.4127-9.5166-0.87114-14.483 8.8066-25.982 8.6265-11.121-0.17569-17.906-9.1858-23.975-5.7671-32.297 18.19-61.343-12.228-58.64-18.629z" fill="#faa" fill-rule="evenodd" stroke-width="1.4641"/>
 <path d="m146.63 206.27c-26.004 18.656-36.436-35.909-5.3703-51.144-7.5591 5.7363-14.634 35.433 5.3703 51.144z" fill="#ff8080" fill-rule="evenodd" stroke-width="1.4641"/>
 <g fill="#ffd5d5" fill-rule="evenodd" stroke-width="1.4641">
  <path d="m172.25 153.53a75.704 75.704 0 0 0-2.814-8.9896c-8.9705-12.137-19.714-15.626-29.326-14.745-11.347 1.0395-21.172 8.114-25.434 14.03 4.9121-5.4684 14.905-11.46 25.569-11.672 8.8358-0.17569 18.067 3.5797 25.642 14.89 2.1259 1.754 4.2605 3.9048 6.363 6.486z"/>
  <path d="m133.9 163.43c-6.9969 8.1419-9.5166 17.76-8.8886 26.36 0.0775 1.0659 0.20351 2.1127 0.3748 3.1405 2.0351 7.1009 6.2356 12.533 11.121 14.7-4.3454-2.937-7.4025-8.6704-8.3746-15.3a30.313 30.313 0 0 1-0.63835-2.8418c-1.3763-7.8432 0.0674-17.404 6.4054-26.058z"/>
  <path d="m246.99 210.11c-5.4464 1.7086-9.5357 1.1449-13.104 0.0615-1.7276-0.26794-3.3821-0.66471-5.098-1.0512-5.5196-1.243-10.893-2.1566-18.546 2.139 7.8227-3.7862 13.016-2.284 18.121-0.60321 1.631 0.53586 3.3235 1.1186 5.1038 1.5666 4.0585 0.46997 8.2927 0.26061 13.522-2.1127zm-46.964 1.9341c-5.7144-0.23425-11.047-1.6486-16.027-3.0966-2.3543-0.43044-4.6705-0.87846-6.9106-1.2225-7.1873-1.1039-13.547-1.1332-18.959 3.3733 5.6309-4.0058 11.847-3.3821 18.66-1.8082 2.1786 0.50218 4.4172 1.1039 6.7598 1.7028 5.2166 0.78476 10.725 1.5183 16.477 1.0512zm-80.49-8.0101c1.3162 4.5343 4.3645 8.2048 8.3732 10.814 1.9531 0.98094 4.0394 1.6998 6.1639 2.1639 6.7422 1.4729 13.907 0.38799 18.631-3.1551-4.9867 3.0805-12.017 3.4992-18.232 1.6134a24.295 24.295 0 0 1-5.5504-2.4568c-3.9428-1.776-7.4274-4.7232-9.3849-8.9793zm-108.13 1.59c2.9604 6.1463 9.338 9.4156 16.401 10.808l0.07467 0.01c7.1053 0.80232 14.55-0.30014 19.524-2.0058-5.1419 1.1596-12.502 1.6383-19.263 0.30892l-0.07028-0.0146c-6.7495-0.76133-13.25-3.3235-16.666-9.1067z"/>
 </g>
</svg>
