<svg xmlns="http://www.w3.org/2000/svg" viewBox="0 0 64 64">
    <g fill-rule="evenodd">
        <path fill="#808080" stroke="#000" stroke-width=".3748959" d="M61.244 4.844C58.71 2.192 44.854 9.574 42.3 19.44c-2.848 10.997 1.768 12.413.556 18.386-1.283 6.318-8.952 9.72-12.02 10.348-4.43.908-6.968-.858-14.388 3.21 1.423-.879 1.242-2.05 4.456-2.602-8.276-2.5-15.14 7.024-18.234 11.866 8.77-2.369 16.637-1.496 20.88-5.942-2.594-.285-3.256-.21-4.918-.863 3.931-3.286 8.718-1.507 13.013-2.542 4.61-1.11 12.97-4.667 15.284-12.662 1.936-6.691-2.63-11.493-.57-18.24 2.437-7.979 17.499-12.82 14.886-15.554z"/>
        <path d="M16.729 51.212a6.518 6.518 0 0 1-.166-.133c-.15.116-.347.237-.574.374-.252.153-.533.322-.816.525-.568.408-1.125.941-1.465 1.73.4-.753.998-1.222 1.578-1.555.292-.168.582-.302.848-.423.236-.108.465-.209.65-.311a3.86 3.86 0 0 0-.055-.207zM19.031 53.591c-.142.055-.28.09-.41.11a2.178 2.178 0 0 1-.881.305c-.428.056-.878.015-1.342-.07-.463-.078-.933-.187-1.391-.246-.46-.059-.906-.066-1.323.054.421-.094.862-.058 1.31.024.45.084.91.217 1.373.323.46.106.932.184 1.396.152a2.41 2.41 0 0 0 1.006-.287 2.72 2.72 0 0 0 .262-.365z"/>
    </g>
</svg>
