<?xml version="1.0" encoding="UTF-8" standalone="no"?>
<!-- Created with Inkscape (http://www.inkscape.org/) -->

<svg
   xmlns:dc="http://purl.org/dc/elements/1.1/"
   xmlns:cc="http://creativecommons.org/ns#"
   xmlns:rdf="http://www.w3.org/1999/02/22-rdf-syntax-ns#"
   xmlns:svg="http://www.w3.org/2000/svg"
   xmlns="http://www.w3.org/2000/svg"
   xmlns:xlink="http://www.w3.org/1999/xlink"
   xmlns:sodipodi="http://sodipodi.sourceforge.net/DTD/sodipodi-0.dtd"
   xmlns:inkscape="http://www.inkscape.org/namespaces/inkscape"
   viewBox="0 0 256 256"
   id="svg4166"
   version="1.1"
   inkscape:version="0.91 r13725"
   sodipodi:docname="ankle_spreaderbar.svg">
  <style
     id="style3">
    svg { cursor: default; }
  </style>
  <defs
     id="defs4168">
    <inkscape:path-effect
       effect="powerstroke"
       id="path-effect4416"
       is_visible="true"
       offset_points="0.084694799,0.50738917"
       sort_points="true"
       interpolator_type="Linear"
       interpolator_beta="0.2"
       start_linecap_type="zerowidth"
       linejoin_type="round"
       miter_limit="4"
       end_linecap_type="zerowidth"
       cusp_linecap_type="round" />
    <linearGradient
       inkscape:collect="always"
       id="linearGradientANKLE_SPREADER_BAR4406">
      <stop
         style="stop-color:#999999;stop-opacity:1"
         offset="0"
         id="stop4408" />
      <stop
         style="stop-color:#cccccc;stop-opacity:1"
         offset="1"
         id="stop4410" />
    </linearGradient>
    <inkscape:path-effect
       effect="powerstroke"
       id="path-effect4202"
       is_visible="true"
       offset_points="0,0.5"
       sort_points="true"
       interpolator_type="Linear"
       interpolator_beta="0.2"
       start_linecap_type="zerowidth"
       linejoin_type="round"
       miter_limit="4"
       end_linecap_type="zerowidth"
       cusp_linecap_type="round" />
    <inkscape:path-effect
       effect="powerstroke"
       id="path-effect4610"
       is_visible="true"
       offset_points="0.089858733,0.1462269"
       sort_points="true"
       interpolator_type="Linear"
       interpolator_beta="0.2"
       start_linecap_type="zerowidth"
       linejoin_type="round"
       miter_limit="4"
       end_linecap_type="zerowidth"
       cusp_linecap_type="round" />
    <inkscape:path-effect
       effect="powerstroke"
       id="path-effect4606"
       is_visible="true"
       offset_points="0.29328208,0.12562291"
       sort_points="true"
       interpolator_type="Linear"
       interpolator_beta="0.2"
       start_linecap_type="zerowidth"
       linejoin_type="round"
       miter_limit="4"
       end_linecap_type="zerowidth"
       cusp_linecap_type="round" />
    <inkscape:path-effect
       effect="powerstroke"
       id="path-effect4584-7"
       is_visible="true"
       offset_points="0.52899141,0.21496312"
       sort_points="true"
       interpolator_type="Linear"
       interpolator_beta="0.2"
       start_linecap_type="zerowidth"
       linejoin_type="round"
       miter_limit="4"
       end_linecap_type="zerowidth"
       cusp_linecap_type="round" />
    <inkscape:path-effect
       effect="powerstroke"
       id="path-effect4584"
       is_visible="true"
       offset_points="0.52899141,0.21496312"
       sort_points="true"
       interpolator_type="Linear"
       interpolator_beta="0.2"
       start_linecap_type="zerowidth"
       linejoin_type="round"
       miter_limit="4"
       end_linecap_type="zerowidth"
       cusp_linecap_type="round" />
    <inkscape:path-effect
       effect="powerstroke"
       id="path-effect4584-79"
       is_visible="true"
       offset_points="0.52899141,0.21496313"
       sort_points="true"
       interpolator_type="Linear"
       interpolator_beta="0.2"
       start_linecap_type="zerowidth"
       linejoin_type="round"
       miter_limit="4"
       end_linecap_type="zerowidth"
       cusp_linecap_type="round" />
    <inkscape:path-effect
       effect="powerstroke"
       id="path-effect4584-7-5"
       is_visible="true"
       offset_points="0.52899141,0.21496313"
       sort_points="true"
       interpolator_type="Linear"
       interpolator_beta="0.2"
       start_linecap_type="zerowidth"
       linejoin_type="round"
       miter_limit="4"
       end_linecap_type="zerowidth"
       cusp_linecap_type="round" />
    <inkscape:path-effect
       effect="powerstroke"
       id="path-effect4606-3"
       is_visible="true"
       offset_points="0.29328208,0.12562291"
       sort_points="true"
       interpolator_type="Linear"
       interpolator_beta="0.2"
       start_linecap_type="zerowidth"
       linejoin_type="round"
       miter_limit="4"
       end_linecap_type="zerowidth"
       cusp_linecap_type="round" />
    <inkscape:path-effect
       effect="powerstroke"
       id="path-effect4610-4"
       is_visible="true"
       offset_points="0.089858733,0.1462269"
       sort_points="true"
       interpolator_type="Linear"
       interpolator_beta="0.2"
       start_linecap_type="zerowidth"
       linejoin_type="round"
       miter_limit="4"
       end_linecap_type="zerowidth"
       cusp_linecap_type="round" />
    <linearGradient
       inkscape:collect="always"
       xlink:href="#linearGradientANKLE_SPREADER_BAR4406"
       id="linearGradientANKLE_SPREADER_BAR4412"
       x1="131.60715"
       y1="940.04071"
       x2="133.30357"
       y2="937.27289"
       gradientUnits="userSpaceOnUse" />
  </defs>
  <sodipodi:namedview
     id="base"
     pagecolor="#ffffff"
     bordercolor="#666666"
     borderopacity="1.0"
     inkscape:pageopacity="0.0"
     inkscape:pageshadow="2"
     inkscape:zoom="1.979899"
     inkscape:cx="145.34013"
     inkscape:cy="198.85736"
     inkscape:document-units="px"
     inkscape:current-layer="layer1"
     showgrid="false"
     units="px"
     inkscape:window-width="2560"
     inkscape:window-height="1388"
     inkscape:window-x="-8"
     inkscape:window-y="-8"
     inkscape:window-maximized="1" />
  <metadata
     id="metadata4171">
    <rdf:RDF>
      <cc:Work
         rdf:about="">
        <dc:format>image/svg+xml</dc:format>
        <dc:type
           rdf:resource="http://purl.org/dc/dcmitype/StillImage" />
        <dc:title></dc:title>
      </cc:Work>
    </rdf:RDF>
  </metadata>
  <g
     inkscape:label="Layer 1"
     inkscape:groupmode="layer"
     id="layer1"
     transform="translate(0,-796.36216)"
     style="display:inline">
    <g
       id="g4418"
       transform="matrix(1.05101,0,0,1.05101,-9.89314,-39.754976)">
      <path
         sodipodi:nodetypes="cccccsc"
         inkscape:connector-curvature="0"
         id="path4283"
         d="m 20.726159,861.82585 c 5.840364,-3.39961 10.809032,-3.48678 10.809032,-3.48678 l 17.10813,7.49932 c -0.522459,-5.1621 0.761078,-10.3242 -1.609619,-15.4863 l -9.309469,-4.91413 c -2.760997,-1.64169 -21.842701,-3.51545 -23.187116,5.05584 -1.715584,10.93768 6.189042,11.33205 6.189042,11.33205 z"
         style="display:inline;fill:#ff2a2a;fill-rule:evenodd;stroke:#000000;stroke-width:0.34867844px;stroke-linecap:butt;stroke-linejoin:miter;stroke-opacity:1" />
      <path
         sodipodi:nodetypes="ccccc"
         inkscape:connector-curvature="0"
         id="path4273"
         d="m 46.48408,856.27645 1.204134,-0.2492 c -0.01872,-2.01134 -1.390977,-6.47186 -4.273205,-7.21431 l 0.250749,0.7599 c 1.747465,0.9708 2.91287,4.70037 2.818322,6.70361 z"
         style="display:inline;fill:#ffaaaa;fill-rule:evenodd;stroke:#000000;stroke-width:0.34867844px;stroke-linecap:butt;stroke-linejoin:miter;stroke-opacity:1" />
      <path
         sodipodi:nodetypes="ccccc"
         inkscape:connector-curvature="0"
         id="path4259"
         d="m 26.522938,846.78909 c -0.903381,4.5695 1.623913,9.67431 2.702258,13.11903 4.978902,2.6099 8.965577,2.34234 13.42412,3.4432 l 0.784525,-10.28602 c -0.266247,-2.09647 -10.04917,-8.14033 -16.910903,-6.27621 z"
         style="display:inline;fill:#ff5555;fill-rule:evenodd;stroke:#000000;stroke-width:0.34867844px;stroke-linecap:butt;stroke-linejoin:miter;stroke-opacity:1" />
      <path
         sodipodi:nodetypes="ccccc"
         inkscape:connector-curvature="0"
         id="path4255"
         d="m 16.404628,870.97717 c 8.896738,13.63371 27.282438,5.09226 28.903946,1.15216 l -1.043469,-18.50332 c 0.633409,2.09498 -14.736048,19.59416 -30.819565,0.92631 -0.306075,4.80293 1.460695,11.07345 2.959088,16.42485 z"
         style="display:inline;fill:#ff8080;fill-rule:evenodd;stroke:#000000;stroke-width:0.34867844px;stroke-linecap:butt;stroke-linejoin:miter;stroke-opacity:1" />
      <path
         sodipodi:nodetypes="csccscc"
         inkscape:connector-curvature="0"
         id="path4271"
         d="m 48.153599,866.05888 c -0.250613,-3.74237 -0.01729,-7.26344 -0.146061,-10.78354 -0.125371,-3.42688 -1.534239,-6.45055 -5.668281,-6.97356 l -0.201417,-0.63289 c 4.513683,0.52716 6.410104,2.7295 6.589276,7.40004 l 0.416437,10.85545 c -0.282646,0.2349 -0.649361,0.47901 -0.989954,0.1345 z"
         style="display:inline;fill:#ffaaaa;fill-rule:evenodd;stroke:#000000;stroke-width:0.34867844px;stroke-linecap:butt;stroke-linejoin:miter;stroke-opacity:1" />
      <path
         sodipodi:nodetypes="ccccc"
         inkscape:connector-curvature="0"
         id="path4269"
         d="m 44.05134,849.96111 c 0.531459,0.2833 0.989463,0.41944 1.138551,-0.0632 -0.966272,-1.29709 -1.551117,-2.48665 -2.964297,-3.90974 -0.896174,-0.2895 -0.925491,0.0322 -0.989455,0.32942 1.143283,1.21381 2.475348,2.42695 2.815201,3.64356 z"
         style="display:inline;fill:#e6e6e6;fill-rule:evenodd;stroke:#000000;stroke-width:0.34867844px;stroke-linecap:butt;stroke-linejoin:miter;stroke-opacity:1" />
      <path
         sodipodi:nodetypes="cccccccc"
         inkscape:connector-curvature="0"
         id="path4267"
         d="m 44.126229,850.84454 0.893754,0.0616 c -0.07014,-0.51219 1.990912,-0.87928 3.359284,0.0616 0.434694,2.49635 0.509336,5.31146 0.463833,7.80781 0.34281,-0.0273 0.769732,0.28174 0.953845,-0.3804 0.239946,-3.02544 -0.231882,-6.18211 -0.369829,-8.13625 -0.23555,-0.56151 -2.624905,-0.79238 -4.961877,-0.4931 -0.587743,0.35955 -0.621446,0.71911 -0.33901,1.07866 z"
         style="display:inline;fill:#e6e6e6;fill-rule:evenodd;stroke:#000000;stroke-width:0.34867844px;stroke-linecap:butt;stroke-linejoin:miter;stroke-opacity:1" />
      <path
         sodipodi:nodetypes="sssccssssccss"
         inkscape:connector-curvature="0"
         id="path4257"
         d="m 13.076164,853.47191 c -0.02698,7.77344 8.447363,10.59101 16.272491,10.13949 5.826262,-0.33618 15.817501,-2.95349 15.163,-8.75263 -0.936533,-8.29805 -16.0739,-9.11124 -16.0739,-9.11124 -1.769855,0.0232 -2.44065,1.2806 -1.492991,1.22155 0.696753,-0.04 18.301581,2.57091 15.471194,8.62935 -2.02238,4.3289 -8.043285,6.33811 -12.82075,6.41038 -7.516812,0.11371 -15.578157,-3.21822 -14.484982,-8.75263 1.744462,-8.83169 15.564126,-11.59085 25.665107,-5.32835 2.390479,1.48208 4.599259,8.84173 4.599259,8.84173 l 1.294403,-0.73966 c -1.335494,-2.75317 -2.057297,-6.39938 -4.006484,-8.25952 -7.715779,-7.36331 -29.547983,-5.34947 -29.586347,5.70153 z"
         style="display:inline;fill:#ffaaaa;fill-rule:evenodd;stroke:#000000;stroke-width:0.34867844px;stroke-linecap:butt;stroke-linejoin:miter;stroke-opacity:1" />
      <path
         sodipodi:nodetypes="ccccc"
         inkscape:connector-curvature="0"
         id="path4261"
         d="m 12.811778,859.03706 c -0.06453,1.0892 1.019195,6.04025 1.812509,8.14972 11.23397,15.41819 31.806017,5.57392 33.168036,-0.45764 l -0.196132,-6.79923 c -6.68622,9.98508 -25.507535,13.70775 -34.784413,-0.89285 z"
         style="display:inline;fill:#ff8080;fill-rule:evenodd;stroke:#000000;stroke-width:0.34867844px;stroke-linecap:butt;stroke-linejoin:miter;stroke-opacity:1" />
      <path
         sodipodi:nodetypes="cccccccc"
         inkscape:connector-curvature="0"
         id="path4263"
         d="m 44.833841,861.78635 1.25958,-0.26196 c 0.11438,-0.86028 -0.37711,-1.89979 -0.06098,-2.57851 1.029379,-0.31298 2.269196,-0.19354 2.879868,-0.1054 l 0.492652,6.21065 c 0.533983,-1.95394 0.358347,-6.15999 -0.08717,-9.23998 -1.560695,-0.20783 -3.121388,-0.13908 -4.682083,0.0207 -0.09749,1.39612 -0.190368,3.86217 0.198133,5.95449 z"
         style="display:inline;fill:#ffaaaa;fill-rule:evenodd;stroke:#000000;stroke-width:0.34867844px;stroke-linecap:butt;stroke-linejoin:miter;stroke-opacity:1" />
      <path
         sodipodi:nodetypes="ccsscccc"
         inkscape:connector-curvature="0"
         id="path4265"
         d="m 12.829611,859.42 c -0.214005,-1.55926 0.165189,-2.98314 0.339011,-4.49959 -0.352508,5.44007 4.716056,10.16335 10.312882,12.23548 4.482687,1.65964 9.210352,1.54127 13.680002,-0.1885 3.714262,-1.43743 9.269704,-4.80508 9.322574,-8.10213 l 1.186537,-0.0308 c 0.90709,4.88348 -21.316923,20.44792 -34.841006,0.58557 z"
         style="display:inline;fill:#ffaaaa;fill-rule:evenodd;stroke:#000000;stroke-width:0.34867844px;stroke-linecap:butt;stroke-linejoin:miter;stroke-opacity:1" />
      <ellipse
         ry="1.7996587"
         rx="2.5304787"
         cy="872.52478"
         cx="30.378645"
         id="path4277"
         style="display:inline;fill:#cccccc;fill-opacity:1;stroke:#000000;stroke-width:0.25638902;stroke-miterlimit:4;stroke-dasharray:none;stroke-dashoffset:0" />
      <ellipse
         transform="matrix(0.9326675,-0.36073721,0.36073721,0.9326675,0,0)"
         ry="1.7651846"
         rx="2.3535795"
         cy="826.43597"
         cx="-276.5206"
         id="path4279"
         style="display:inline;fill:#cccccc;fill-opacity:1;stroke:#000000;stroke-width:0.26150882;stroke-miterlimit:4;stroke-dasharray:none;stroke-dashoffset:0" />
      <ellipse
         transform="matrix(0.94672121,-0.32205427,0.24722165,0.96895895,0,0)"
         ry="2.2723973"
         rx="0.80135751"
         cy="826.09265"
         cx="-200.37929"
         id="path4281"
         style="display:inline;fill:#cccccc;fill-opacity:1;stroke:#000000;stroke-width:0.22905429;stroke-miterlimit:4;stroke-dasharray:none;stroke-dashoffset:0" />
      <path
         sodipodi:nodetypes="cc"
         inkscape:connector-curvature="0"
         inkscape:original-d="m 38.964217,869.7444 c 0.867716,-0.85425 3.012101,-0.58519 3.251417,0.44688"
         inkscape:path-effect="#path-effect4584"
         id="path4582"
         d="m 38.964217,869.7444 c 0.473071,-0.37233 1.219897,-0.43211 1.834634,-0.28251 0.0358,0.009 0.07115,0.0181 0.105976,0.0282 0.576898,0.0302 1.136,0.25109 1.310807,0.70115 -0.04472,-0.52334 -0.568164,-0.93374 -1.236402,-1.12459 -0.04218,-0.003 -0.08451,-0.006 -0.126932,-0.008 -0.731741,-0.0287 -1.495909,0.20279 -1.888083,0.68535 z"
         style="display:inline;fill:#ffffff;fill-rule:evenodd;stroke:none;stroke-width:1px;stroke-linecap:butt;stroke-linejoin:miter;stroke-opacity:1" />
      <path
         sodipodi:nodetypes="cc"
         inkscape:connector-curvature="0"
         inkscape:original-d="m 29.204495,871.66188 c 0.983119,-0.71845 2.899678,-0.21782 3.339151,0.76566"
         inkscape:path-effect="#path-effect4584-7"
         id="path4582-4"
         d="m 29.204495,871.66188 c 0.523282,-0.29982 1.232585,-0.26995 1.825851,-0.0579 0.03466,0.0124 0.06895,0.0254 0.102814,0.039 0.580988,0.0901 1.144421,0.36061 1.410486,0.78449 -0.14451,-0.50267 -0.657281,-0.94414 -1.293863,-1.1983 -0.04129,-0.008 -0.08273,-0.0143 -0.124253,-0.0203 -0.718885,-0.10329 -1.462975,0.0331 -1.921035,0.45292 z"
         style="display:inline;fill:#ffffff;fill-rule:evenodd;stroke:none;stroke-width:1px;stroke-linecap:butt;stroke-linejoin:miter;stroke-opacity:1" />
      <path
         sodipodi:nodetypes="cc"
         inkscape:connector-curvature="0"
         inkscape:original-d="m 14.087596,863.37066 c 0.605414,0.29415 0.999273,1.58945 0.980658,2.09207"
         inkscape:path-effect="#path-effect4606"
         id="path4604"
         d="m 14.087596,863.37066 c 0.154682,0.12037 0.275613,0.31928 0.367255,0.53939 0.101144,0.13585 0.193917,0.29534 0.274729,0.46189 0.195034,0.40194 0.318689,0.84228 0.338674,1.09079 0.03925,-0.25238 -0.02602,-0.71446 -0.173962,-1.15763 -0.06125,-0.18346 -0.13723,-0.36539 -0.227926,-0.53004 -0.180255,-0.20388 -0.378631,-0.35473 -0.57877,-0.4044 z"
         style="display:inline;fill:#ffffff;fill-rule:evenodd;stroke:none;stroke-width:1px;stroke-linecap:butt;stroke-linejoin:miter;stroke-opacity:1" />
      <path
         sodipodi:nodetypes="cccccsc"
         inkscape:connector-curvature="0"
         id="path4283-1"
         d="m 241.15333,972.89637 c -5.85564,-3.37323 -10.82465,-3.43798 -10.82465,-3.43798 l -17.07412,7.57642 c 0.49916,-5.1644 -0.80765,-10.32065 1.53973,-15.49339 l 9.28721,-4.95608 c 2.75356,-1.65413 21.82662,-3.61396 23.20969,4.95118 1.76491,10.92982 -6.13786,11.35985 -6.13786,11.35985 z"
         style="display:inline;fill:#ff2a2a;fill-rule:evenodd;stroke:#000000;stroke-width:0.34867844px;stroke-linecap:butt;stroke-linejoin:miter;stroke-opacity:1" />
      <path
         sodipodi:nodetypes="ccccc"
         inkscape:connector-curvature="0"
         id="path4273-4"
         d="m 215.37064,967.46324 -1.20525,-0.24377 c 0.01,-2.01141 1.36177,-6.47807 4.24062,-7.23351 l -0.24732,0.76101 c -1.74307,0.97868 -2.89164,4.71347 -2.78805,6.71627 z"
         style="display:inline;fill:#ffaaaa;fill-rule:evenodd;stroke:#000000;stroke-width:0.34867844px;stroke-linecap:butt;stroke-linejoin:miter;stroke-opacity:1" />
      <path
         sodipodi:nodetypes="ccccc"
         inkscape:connector-curvature="0"
         id="path4259-4"
         d="m 235.28878,957.88592 c 0.92398,4.56538 -1.58026,9.68154 -2.64305,13.13108 -4.96708,2.63234 -8.95492,2.38277 -13.40845,3.50373 l -0.83092,-10.28237 c 0.25679,-2.09766 10.01234,-8.18559 16.88242,-6.35244 z"
         style="display:inline;fill:#ff5555;fill-rule:evenodd;stroke:#000000;stroke-width:0.34867844px;stroke-linecap:butt;stroke-linejoin:miter;stroke-opacity:1" />
      <path
         sodipodi:nodetypes="ccccc"
         inkscape:connector-curvature="0"
         id="path4255-7"
         d="m 245.51611,982.0281 c -8.83514,13.67372 -27.25919,5.2153 -28.89846,1.28255 l 0.95998,-18.50784 c -0.62395,2.09782 14.8243,19.52748 30.82343,0.78726 0.32774,4.8015 -1.41072,11.07992 -2.88495,16.43803 z"
         style="display:inline;fill:#ff8080;fill-rule:evenodd;stroke:#000000;stroke-width:0.34867844px;stroke-linecap:butt;stroke-linejoin:miter;stroke-opacity:1" />
      <path
         sodipodi:nodetypes="csccscc"
         inkscape:connector-curvature="0"
         id="path4271-4"
         d="m 213.74527,977.25309 c 0.23373,-3.74346 -0.0155,-7.26343 0.0974,-10.78408 0.10991,-3.42741 1.50512,-6.45741 5.63676,-6.99907 l 0.19856,-0.63378 c -4.51126,0.54751 -6.39772,2.75838 -6.55582,7.42968 l -0.36746,10.85722 c 0.2837,0.23363 0.65151,0.47608 0.99055,0.13003 z"
         style="display:inline;fill:#ffaaaa;fill-rule:evenodd;stroke:#000000;stroke-width:0.34867844px;stroke-linecap:butt;stroke-linejoin:miter;stroke-opacity:1" />
      <path
         sodipodi:nodetypes="ccccc"
         inkscape:connector-curvature="0"
         id="path4269-2"
         d="m 217.77486,961.13698 c -0.53017,0.28569 -0.98756,0.42391 -1.13882,-0.0581 0.96041,-1.30144 1.53988,-2.49362 2.94663,-3.92308 0.89485,-0.29353 0.92562,0.028 0.99093,0.32496 -1.1378,1.21895 -2.46438,2.43809 -2.79874,3.65622 z"
         style="display:inline;fill:#e6e6e6;fill-rule:evenodd;stroke:#000000;stroke-width:0.34867844px;stroke-linecap:butt;stroke-linejoin:miter;stroke-opacity:1" />
      <path
         sodipodi:nodetypes="cccccccc"
         inkscape:connector-curvature="0"
         id="path4267-8"
         d="m 217.70396,962.02075 -0.89347,0.0657 c 0.0678,-0.51251 -1.99486,-0.87029 -3.35897,0.0768 -0.42343,2.49828 -0.48537,5.3137 -0.4286,7.80982 -0.34293,-0.0258 -0.76846,0.28521 -0.95555,-0.37609 -0.2536,-3.02433 0.20398,-6.18309 0.33312,-8.13784 0.23301,-0.56257 2.6213,-0.80421 4.9596,-0.51548 0.58936,0.3569 0.62468,0.7163 0.34387,1.07713 z"
         style="display:inline;fill:#e6e6e6;fill-rule:evenodd;stroke:#000000;stroke-width:0.34867844px;stroke-linecap:butt;stroke-linejoin:miter;stroke-opacity:1" />
      <path
         sodipodi:nodetypes="sssccssssccss"
         inkscape:connector-curvature="0"
         id="path4257-5"
         d="m 248.76556,964.50801 c 0.0621,7.77324 -8.39949,10.62901 -16.22658,10.2128 -5.82772,-0.3099 -15.83066,-2.88211 -15.20233,-8.68414 0.89908,-8.3022 16.03263,-9.18366 16.03263,-9.18366 1.76994,0.0152 2.4464,1.26957 1.49849,1.2148 -0.69693,-0.0369 -18.2898,2.65345 -15.43211,8.69906 2.04189,4.31973 8.0718,6.30175 12.84954,6.35247 7.51725,0.0798 15.56348,-3.28846 14.44535,-8.81789 -1.78429,-8.82372 -15.61626,-11.52051 -25.68889,-5.2125 -2.38377,1.49284 -4.55932,8.86238 -4.55932,8.86238 l -1.29773,-0.73381 c 1.32306,-2.75917 2.02841,-6.40859 3.96918,-8.27751 7.68249,-7.39804 29.52355,-5.48272 29.61177,5.568 z"
         style="display:inline;fill:#ffaaaa;fill-rule:evenodd;stroke:#000000;stroke-width:0.34867844px;stroke-linecap:butt;stroke-linejoin:miter;stroke-opacity:1" />
      <path
         sodipodi:nodetypes="ccccc"
         inkscape:connector-curvature="0"
         id="path4261-4"
         d="m 249.05505,970.07191 c 0.0695,1.0889 -0.99193,6.04479 -1.77572,8.15781 -11.1643,15.46872 -31.78055,5.71736 -33.16977,-0.308 l 0.16546,-6.80004 c 6.7312,9.95481 25.56912,13.59253 34.78003,-1.04977 z"
         style="display:inline;fill:#ff8080;fill-rule:evenodd;stroke:#000000;stroke-width:0.34867844px;stroke-linecap:butt;stroke-linejoin:miter;stroke-opacity:1" />
      <path
         sodipodi:nodetypes="cccccccc"
         inkscape:connector-curvature="0"
         id="path4263-6"
         d="m 217.04572,972.96563 -1.26075,-0.25627 c -0.11826,-0.85976 0.36853,-1.90148 0.0494,-2.57876 -1.03078,-0.30834 -2.27005,-0.1833 -2.88032,-0.0924 l -0.46463,6.21281 c -0.54279,-1.9515 -0.38613,-6.15831 0.0455,-9.24028 1.55974,-0.21486 3.12073,-0.15315 4.68213,-4.1e-4 0.10379,1.39566 0.20779,3.86128 -0.17127,5.95532 z"
         style="display:inline;fill:#ffaaaa;fill-rule:evenodd;stroke:#000000;stroke-width:0.34867844px;stroke-linecap:butt;stroke-linejoin:miter;stroke-opacity:1" />
      <path
         sodipodi:nodetypes="ccsscccc"
         inkscape:connector-curvature="0"
         id="path4265-6"
         d="m 249.03895,970.45492 c 0.20697,-1.56021 -0.17865,-2.98236 -0.35931,-4.49801 0.37705,5.43843 -4.67016,10.18452 -10.25758,12.28188 -4.47515,1.67985 -9.2033,1.58281 -13.68071,-0.12678 -3.72071,-1.42066 -9.29129,-4.76321 -9.35903,-8.06 l -1.18667,-0.0255 c -0.88505,4.88752 21.40896,20.35154 34.8433,0.42838 z"
         style="display:inline;fill:#ffaaaa;fill-rule:evenodd;stroke:#000000;stroke-width:0.34867844px;stroke-linecap:butt;stroke-linejoin:miter;stroke-opacity:1" />
      <ellipse
         transform="matrix(-0.99998982,0.00451141,0.00451141,0.99998982,0,0)"
         ry="1.7996588"
         rx="2.5304787"
         cy="984.67334"
         cx="-227.10927"
         id="path4277-1"
         style="display:inline;fill:#cccccc;fill-opacity:1;stroke:#000000;stroke-width:0.25638905;stroke-miterlimit:4;stroke-dasharray:none;stroke-dashoffset:0" />
      <ellipse
         transform="matrix(-0.93428544,-0.3565259,-0.3565259,0.93428544,0,0)"
         ry="1.7651846"
         rx="2.3535795"
         cy="838.14783"
         cx="-557.12738"
         id="path4279-6"
         style="display:inline;fill:#cccccc;fill-opacity:1;stroke:#000000;stroke-width:0.26150885;stroke-miterlimit:4;stroke-dasharray:none;stroke-dashoffset:0" />
      <ellipse
         transform="matrix(-0.94816449,-0.31777995,-0.24284779,0.97006441,0,0)"
         ry="2.2723973"
         rx="0.80135751"
         cy="849.41205"
         cx="-478.44742"
         id="path4281-8"
         style="display:inline;fill:#cccccc;fill-opacity:1;stroke:#000000;stroke-width:0.22905429;stroke-miterlimit:4;stroke-dasharray:none;stroke-dashoffset:0" />
      <path
         sodipodi:nodetypes="cc"
         inkscape:connector-curvature="0"
         inkscape:original-d="m 222.95118,980.89713 c -0.87156,-0.85034 -3.01471,-0.57161 -3.24936,0.46154"
         inkscape:path-effect="#path-effect4584-79"
         id="path4582-9"
         d="m 222.95118,980.89713 c -0.39435,-0.48079 -1.15955,-0.70889 -1.89115,-0.67683 -0.0424,0.002 -0.0847,0.005 -0.1269,0.008 -0.66737,0.19387 -1.18896,0.60663 -1.23131,1.13017 0.17277,-0.45085 0.73087,-0.6743 1.30762,-0.70707 0.0348,-0.0103 0.0701,-0.0198 0.10585,-0.0287 0.61406,-0.15237 1.36114,-0.096 1.83589,0.27424 z"
         style="display:inline;fill:#ffffff;fill-rule:evenodd;stroke:none;stroke-width:1px;stroke-linecap:butt;stroke-linejoin:miter;stroke-opacity:1" />
      <path
         sodipodi:nodetypes="cc"
         inkscape:connector-curvature="0"
         inkscape:original-d="m 232.71946,982.77055 c -0.98635,-0.714 -2.90063,-0.20474 -3.33566,0.78072"
         inkscape:path-effect="#path-effect4584-7-5"
         id="path4582-4-4"
         d="m 232.71946,982.77055 c -0.45995,-0.41775 -1.20465,-0.55077 -1.92306,-0.44425 -0.0415,0.006 -0.0829,0.0131 -0.12416,0.0209 -0.63543,0.25702 -1.1462,0.7008 -1.28844,1.20412 0.26415,-0.42508 0.82636,-0.69818 1.40693,-0.79085 0.0338,-0.0138 0.068,-0.0269 0.10264,-0.0395 0.5923,-0.21477 1.30146,-0.24784 1.82609,0.0496 z"
         style="display:inline;fill:#ffffff;fill-rule:evenodd;stroke:none;stroke-width:1px;stroke-linecap:butt;stroke-linejoin:miter;stroke-opacity:1" />
      <path
         sodipodi:nodetypes="cc"
         inkscape:connector-curvature="0"
         inkscape:original-d="m 247.7988,974.41121 c -0.60408,0.29688 -0.99209,1.59395 -0.97121,2.09648"
         inkscape:path-effect="#path-effect4606-3"
         id="path4604-3"
         d="m 247.7988,974.41121 c -0.19991,0.0506 -0.39761,0.20232 -0.57694,0.40701 -0.0899,0.16505 -0.16511,0.34733 -0.22553,0.53107 -0.14595,0.44383 -0.20913,0.9062 -0.16874,1.1584 0.0189,-0.2486 0.14053,-0.68949 0.33375,-1.09231 0.0801,-0.16691 0.17211,-0.32682 0.27264,-0.46312 0.0907,-0.22053 0.21068,-0.41998 0.36482,-0.54105 z"
         style="display:inline;fill:#ffffff;fill-rule:evenodd;stroke:none;stroke-width:1px;stroke-linecap:butt;stroke-linejoin:miter;stroke-opacity:1" />
      <path
         inkscape:connector-curvature="0"
         id="path4342"
         d="m 226.27411,988.90554 a 3.0399327,3.5450091 50.597535 0 0 -3.19229,0.81382 3.0399327,3.5450091 50.597535 0 0 -0.81012,4.59986 3.0399327,3.5450091 50.597535 0 0 4.67028,0.0995 3.0399327,3.5450091 50.597535 0 0 0.80823,-4.60037 3.0399327,3.5450091 50.597535 0 0 -1.4761,-0.91279 z m -0.3414,0.85727 a 2.2161109,2.5843115 50.597535 0 1 1.07662,0.66595 2.2161109,2.5843115 50.597535 0 1 -0.59197,3.35252 2.2161109,2.5843115 50.597535 0 1 -3.40291,-0.072 2.2161109,2.5843115 50.597535 0 1 0.5901,-3.35302 2.2161109,2.5843115 50.597535 0 1 2.32816,-0.59346 z"
         style="fill:#b3b3b3;fill-opacity:1;stroke:#000000;stroke-width:0.41791523;stroke-miterlimit:4;stroke-dasharray:none;stroke-dashoffset:0" />
      <path
         sodipodi:nodetypes="ccccc"
         inkscape:connector-curvature="0"
         id="path4340"
         d="m 219.95761,991.54048 3.07997,1.48676 c 0.64039,-0.20393 0.57099,-0.52602 0.37153,-1.14988 l -2.87974,-1.41913 z"
         style="fill:#cccccc;fill-rule:evenodd;stroke:#000000;stroke-width:0.60000002;stroke-linecap:butt;stroke-linejoin:miter;stroke-miterlimit:4;stroke-dasharray:none;stroke-opacity:1" />
      <path
         sodipodi:nodetypes="ccccc"
         inkscape:connector-curvature="0"
         id="path4338"
         d="m 220.1109,987.87341 c 0,0 -1.68893,3.10246 -2.71254,4.66112 0.547,0.27054 0.82616,0.48118 1.55221,0.95468 0.59978,-0.78918 2.82528,-4.71931 2.82528,-4.71931 z"
         style="fill:#999999;fill-rule:evenodd;stroke:#000000;stroke-width:0.60000002;stroke-linecap:butt;stroke-linejoin:miter;stroke-miterlimit:4;stroke-dasharray:none;stroke-opacity:1" />
      <path
         sodipodi:nodetypes="ccccc"
         inkscape:connector-curvature="0"
         id="path4275-2"
         d="m 227.87274,978.7792 c -0.34487,-0.3974 -0.74788,-0.40794 -1.17181,-0.14881 -0.37267,3.7782 -0.72229,7.56159 -1.73702,11.19529 0.16615,0.80441 0.51002,1.03098 1.08102,0.51905 1.1849,-3.71402 1.23448,-7.70644 1.82781,-11.56553 z"
         style="display:inline;fill:#e6e6e6;fill-rule:evenodd;stroke:#000000;stroke-width:0.34867844px;stroke-linecap:butt;stroke-linejoin:miter;stroke-opacity:1" />
      <path
         sodipodi:nodetypes="cc"
         inkscape:connector-curvature="0"
         inkscape:original-d="m 227.24165,978.93614 c -0.46017,1.87748 -0.64825,5.10123 -1.04647,7.13943"
         inkscape:path-effect="#path-effect4610-4"
         id="path4608-8"
         d="m 227.24165,978.93614 c -0.0887,0.15714 -0.17578,0.32759 -0.26126,0.50853 -0.31252,1.81508 -0.49084,4.88637 -0.78521,6.6309 0.44139,-1.98568 0.61802,-4.54838 1.07211,-6.57416 -0.0108,-0.19555 -0.0197,-0.38573 -0.0256,-0.56527 z"
         style="display:inline;fill:#ffffff;fill-rule:evenodd;stroke:none;stroke-width:1px;stroke-linecap:butt;stroke-linejoin:miter;stroke-opacity:1" />
      <path
         inkscape:connector-curvature="0"
         id="path4342-9"
         d="m 40.396157,880.97248 a 3.5450091,3.0399327 51.042046 0 0 -0.789029,-3.19851 3.5450091,3.0399327 51.042046 0 0 -4.59344,-0.84578 3.5450091,3.0399327 51.042046 0 0 -0.135725,4.66937 3.5450091,3.0399327 51.042046 0 0 4.593957,0.84389 3.5450091,3.0399327 51.042046 0 0 0.924217,-1.46897 z m -0.854593,-0.34804 a 2.5843115,2.2161109 51.042046 0 1 -0.674289,1.07142 2.5843115,2.2161109 51.042046 0 1 -3.347822,-0.61796 2.5843115,2.2161109 51.042046 0 1 0.09839,-3.40225 2.5843115,2.2161109 51.042046 0 1 3.348341,0.6161 2.5843115,2.2161109 51.042046 0 1 0.575379,2.33269 z"
         style="display:inline;fill:#cccccc;fill-opacity:1;stroke:#000000;stroke-width:0.41791523;stroke-miterlimit:4;stroke-dasharray:none;stroke-dashoffset:0" />
      <path
         sodipodi:nodetypes="ccccc"
         inkscape:connector-curvature="0"
         id="path4340-0"
         d="m 41.169203,882.01584 -2.319615,-1.63204 c -0.664342,0.10167 -0.835375,0.39907 -0.735546,1.04639 l 2.32177,1.56561 z"
         style="display:inline;fill:#e6e6e6;fill-rule:evenodd;stroke:#000000;stroke-width:0.40000001;stroke-linecap:butt;stroke-linejoin:miter;stroke-miterlimit:4;stroke-dasharray:none;stroke-opacity:1" />
      <path
         sodipodi:nodetypes="ccccc"
         inkscape:connector-curvature="0"
         id="path4338-8"
         d="m 41.392447,885.65103 c 0,0 1.490891,-1.99699 2.744837,-3.37715 -0.637731,-0.44683 -1.50577,-1.11236 -1.901831,-1.46972 -0.715409,0.68609 -3.024478,3.40054 -3.024478,3.40054 z"
         style="display:inline;fill:#999999;fill-rule:evenodd;stroke:#000000;stroke-width:0.40000001;stroke-linecap:butt;stroke-linejoin:miter;stroke-miterlimit:4;stroke-dasharray:none;stroke-opacity:1" />
      <path
         sodipodi:nodetypes="ccccc"
         inkscape:connector-curvature="0"
         id="path4275"
         d="m 34.03316,867.6487 c 0.343074,-0.39895 0.746031,-0.41131 1.171126,-0.15409 0.389711,3.77648 0.756398,7.55825 1.787509,11.18734 -0.162523,0.80514 -0.505365,1.03327 -1.078669,0.52392 -1.201648,-3.70864 -1.269234,-7.7008 -1.879966,-11.55717 z"
         style="display:inline;fill:#e6e6e6;fill-rule:evenodd;stroke:#000000;stroke-width:0.34867844px;stroke-linecap:butt;stroke-linejoin:miter;stroke-opacity:1" />
      <path
         sodipodi:nodetypes="cc"
         inkscape:connector-curvature="0"
         inkscape:original-d="m 34.664952,867.8028 c 0.468636,1.87538 0.671251,5.09825 1.078669,7.13463"
         inkscape:path-effect="#path-effect4610"
         id="path4608"
         d="m 34.664952,867.8028 c -0.0052,0.17957 -0.01315,0.36978 -0.02309,0.56538 0.463286,2.02397 0.651352,4.58532 1.101761,6.56925 -0.302225,-1.74307 -0.494438,-4.81376 -0.815115,-6.62729 -0.0863,-0.18055 -0.174137,-0.35061 -0.263554,-0.50734 z"
         style="display:inline;fill:#ffffff;fill-rule:evenodd;stroke:none;stroke-width:1px;stroke-linecap:butt;stroke-linejoin:miter;stroke-opacity:1" />
      <path
         sodipodi:nodetypes="ccccc"
         inkscape:connector-curvature="0"
         id="path4334"
         d="m 40.444672,885.2259 3.126746,-3.52854 176.862802,106.11832 -3.0821,5.00744 z"
         style="fill:url(#linearGradientANKLE_SPREADER_BAR4412);fill-opacity:1;fill-rule:evenodd;stroke:#000000;stroke-width:0.75;stroke-linecap:butt;stroke-linejoin:miter;stroke-miterlimit:4;stroke-dasharray:none;stroke-opacity:1" />
      <path
         sodipodi:nodetypes="cc"
         inkscape:connector-curvature="0"
         inkscape:original-d="M 201.16071,977.98716 C 131.71838,935.92785 126.27064,932.31244 59.285714,892.7193"
         inkscape:path-effect="#path-effect4416"
         id="path4414"
         d="m 201.16071,977.98716 c -5.7938,-3.70688 -11.12843,-7.13791 -16.08026,-10.33839 C 130.52862,934.76756 120.684,928.81385 59.285714,892.7193 c 61.225526,36.38537 70.893496,42.62756 125.268576,75.79719 5.12732,2.9113 10.63741,6.05314 16.60642,9.47067 z"
         style="fill:#ffffff;fill-rule:evenodd;stroke:none;stroke-width:1px;stroke-linecap:butt;stroke-linejoin:miter;stroke-opacity:1" />
    </g>
  </g>
</svg>
