<?xml version="1.0" encoding="UTF-8" standalone="no"?>
<svg
   xmlns:dc="http://purl.org/dc/elements/1.1/"
   xmlns:cc="http://creativecommons.org/ns#"
   xmlns:rdf="http://www.w3.org/1999/02/22-rdf-syntax-ns#"
   xmlns:svg="http://www.w3.org/2000/svg"
   xmlns="http://www.w3.org/2000/svg"
   version="1.1"
   id="svg4164"
   viewBox="0 0 256 256">
  <style
     id="style3">
    svg { cursor: default;}
  </style>
  <defs
     id="defs4166">
    <marker
       style="overflow:visible"
       id="Arrow1Lstart"
       refX="0.0"
       refY="0.0"
       orient="auto">
      <path
         transform="scale(0.8) translate(12.5,0)"
         style="fill-rule:evenodd;stroke:#000000;stroke-width:1pt;stroke-opacity:1;fill:#000000;fill-opacity:1"
         d="M 0.0,0.0 L 5.0,-5.0 L -12.5,0.0 L 5.0,5.0 L 0.0,0.0 z "
         id="path4233" />
    </marker>
  </defs>
  <metadata
     id="metadata4169">
    <rdf:RDF>
      <cc:Work
         rdf:about="">
        <dc:format>image/svg+xml</dc:format>
        <dc:type
           rdf:resource="http://purl.org/dc/dcmitype/StillImage" />
        <dc:title></dc:title>
      </cc:Work>
    </rdf:RDF>
  </metadata>
  <g
     style="display:inline"
     id="layer2" />
  <g
     style="display:inline"
     transform="translate(0,-796.36219)"
     id="layer1">
    <path
       id="path4283-0"
       d="m 226.09888,948.93157 c -16.75,-9.75 -31,-10 -31,-10 l -49.06564,21.50784 c 1.4984,-14.80475 -2.18275,-29.6095 4.61634,-44.41425 l 26.6993,-14.09359 c 7.91846,-4.70833 62.64426,-10.08223 66.5,14.5 4.92025,31.36895 -17.75,32.5 -17.75,32.5 z"
       style="fill:#ff2a2a;fill-rule:evenodd;stroke:#000000;stroke-width:1px;stroke-linecap:butt;stroke-linejoin:miter;stroke-opacity:1" />
    <path
       id="path4273-9"
       d="m 152.22588,933.01605 -3.45342,-0.71469 c 0.0537,-5.76849 3.98928,-18.56112 12.25543,-20.69045 l -0.71914,2.17936 c -5.01168,2.78424 -8.35403,13.48053 -8.08287,19.22578 z"
       style="fill:#ffaaaa;fill-rule:evenodd;stroke:#000000;stroke-width:1px;stroke-linecap:butt;stroke-linejoin:miter;stroke-opacity:1" />
    <path
       id="path4259-4"
       d="m 209.47388,905.80657 c 2.59087,13.10519 -4.65734,27.74565 -7.75,37.625 -14.27935,7.48512 -25.71302,6.71777 -38.5,9.875 l -2.25,-29.5 c 0.7636,-6.01264 28.82074,-23.34626 48.5,-18 z"
       style="fill:#ff5555;fill-rule:evenodd;stroke:#000000;stroke-width:1px;stroke-linecap:butt;stroke-linejoin:miter;stroke-opacity:1" />
    <path
       id="path4255-2"
       d="m 238.49291,975.17729 c -25.51559,39.10111 -78.24527,14.60448 -82.89571,3.30438 l 2.99264,-53.06702 c -1.8166,6.00835 42.26258,56.19552 88.38965,2.65663 0.87782,13.77468 -4.18923,31.75834 -8.48658,47.10601 z"
       style="fill:#ff8080;fill-rule:evenodd;stroke:#000000;stroke-width:1px;stroke-linecap:butt;stroke-linejoin:miter;stroke-opacity:1" />
    <path
       id="path4271-1"
       d="m 147.43775,961.07177 c 0.71875,-10.73301 0.0496,-20.83132 0.4189,-30.92688 0.35956,-9.8282 4.40015,-18.49999 16.25647,-19.99998 l 0.57766,-1.8151 c -12.94512,1.51186 -18.384,7.82812 -18.89786,21.22309 l -1.19433,31.13314 c 0.81062,0.67369 1.86235,1.37379 2.83916,0.38573 z"
       style="fill:#ffaaaa;fill-rule:evenodd;stroke:#000000;stroke-width:1px;stroke-linecap:butt;stroke-linejoin:miter;stroke-opacity:1" />
    <path
       id="path4269-5"
       d="m 159.20291,914.90383 c -1.52421,0.81248 -2.83775,1.20295 -3.26533,-0.18138 2.77124,-3.72002 4.44856,-7.13163 8.50152,-11.21303 2.5702,-0.83027 2.65429,0.0923 2.83773,0.94478 -3.2789,3.48116 -7.09923,6.96043 -8.07392,10.44963 z"
       style="fill:#ffb380;fill-rule:evenodd;stroke:#000000;stroke-width:1px;stroke-linecap:butt;stroke-linejoin:miter;stroke-opacity:1" />
    <path
       id="path4267-8"
       d="m 158.98813,917.43749 -2.56326,0.17678 c 0.20116,-1.46896 -5.70988,-2.52175 -9.63433,0.17677 -1.24669,7.15946 -1.46076,15.23313 -1.33026,22.39259 -0.98317,-0.0784 -2.20757,0.80801 -2.7356,-1.09099 -0.68816,-8.67687 0.66503,-17.73011 1.06066,-23.33453 0.67555,-1.61041 7.52815,-2.27252 14.23052,-1.41421 1.68563,1.0312 1.78229,2.06239 0.97227,3.09359 z"
       style="fill:#ffb380;fill-rule:evenodd;stroke:#000000;stroke-width:1px;stroke-linecap:butt;stroke-linejoin:miter;stroke-opacity:1" />
    <path
       id="path4257-9"
       d="m 248.03885,924.97271 c 0.0774,22.29401 -24.2268,30.37471 -46.66905,29.07977 -16.70955,-0.96416 -45.36415,-8.47054 -43.48706,-25.1023 2.68595,-23.79859 46.0995,-26.13078 46.0995,-26.13078 5.07589,0.0665 6.99972,3.67272 4.28185,3.50337 -1.99826,-0.11478 -52.48842,7.37331 -44.37095,24.74874 5.80013,12.41516 23.06792,18.1775 36.76956,18.38477 21.558,0.32612 44.67772,-9.22974 41.54252,-25.10229 -5.00307,-25.32903 -44.63748,-33.24223 -73.60681,-15.28154 -6.85582,4.25054 -13.19055,25.35781 -13.19055,25.35781 l -3.71231,-2.12132 c 3.83016,-7.89602 5.90027,-18.35323 11.49049,-23.68807 22.12864,-21.11776 84.74279,-15.34213 84.85281,16.35184 z"
       style="fill:#ffaaaa;fill-rule:evenodd;stroke:#000000;stroke-width:1px;stroke-linecap:butt;stroke-linejoin:miter;stroke-opacity:1" />
    <path
       id="path4261-6"
       d="m 248.7971,940.93341 c 0.18507,3.12379 -2.92302,17.32326 -5.19822,23.37316 -32.21871,44.21893 -91.21877,15.98585 -95.125,-1.3125 l 0.5625,-19.5 c 19.17589,28.63692 73.1549,39.31343 99.76072,-2.56066 z"
       style="fill:#ff8080;fill-rule:evenodd;stroke:#000000;stroke-width:1px;stroke-linecap:butt;stroke-linejoin:miter;stroke-opacity:1" />
    <path
       id="path4263-9"
       d="m 156.95872,948.81828 -3.61244,-0.7513 c -0.32804,-2.46725 1.08154,-5.44854 0.17489,-7.39508 -2.95223,-0.89763 -6.50799,-0.55508 -8.25938,-0.30229 l -1.41291,17.81196 c -1.53145,-5.60382 -1.02773,-17.66667 0.25,-26.5 4.47603,-0.59604 8.95205,-0.39886 13.42808,0.0594 0.27961,4.00403 0.54597,11.07661 -0.56824,17.07731 z"
       style="fill:#ffaaaa;fill-rule:evenodd;stroke:#000000;stroke-width:1px;stroke-linecap:butt;stroke-linejoin:miter;stroke-opacity:1" />
    <path
       id="path4265-2"
       d="m 248.74596,942.03166 c 0.61376,-4.47193 -0.47376,-8.55556 -0.97227,-12.9047 1.01098,15.60198 -13.52552,29.14821 -29.57706,35.09102 -12.85622,4.7598 -26.41503,4.42032 -39.23387,-0.54061 -10.65239,-4.12251 -26.58525,-13.78083 -26.73688,-23.2367 l -3.40295,-0.0884 c -2.60151,14.00567 61.13634,58.64404 99.92303,1.67938 z"
       style="fill:#ffaaaa;fill-rule:evenodd;stroke:#000000;stroke-width:1px;stroke-linecap:butt;stroke-linejoin:miter;stroke-opacity:1" />
    <path
       id="path4518-3"
       d="m 139.57988,1007.7098 c -2.20346,-1.1315 -4.68002,-1.9446 -7.86417,-1.9896 l 0.33095,1.6518 7.39066,1.6597 c 0.49,0.1591 0.52427,-0.7699 0.14254,-1.3219 z"
       style="display:inline;fill:#ff7f2a;fill-rule:evenodd;stroke:#000000;stroke-width:0.75;stroke-linecap:butt;stroke-linejoin:miter;stroke-miterlimit:4;stroke-dasharray:none;stroke-opacity:1" />
    <path
       id="path4295-9"
       d="m 175.21452,1009.538 c -11.24448,1.2724 -18.87017,1.8909 -24.75775,2.3979 1.00371,-3.1227 -0.0107,-5.6748 -3.31505,-8.377 7.86568,-1.8882 16.91501,-3.371 23.9553,-7.00899 -1.6738,3.19538 -3.7707,8.84879 4.1175,12.98809 z"
       style="fill:#ffb380;fill-rule:evenodd;stroke:#000000;stroke-width:0.75;stroke-linecap:butt;stroke-linejoin:miter;stroke-opacity:1;stroke-miterlimit:4;stroke-dasharray:none" />
    <path
       id="ellipse4293-2"
       d="m 181.91746,994.10677 a 10.892848,8.2349977 5.0522092 0 1 7.86174,10.32393 10.892848,8.2349977 5.0522092 0 1 -13.22029,5.4638 10.892848,8.2349977 5.0522092 0 1 -7.85987,-10.32333 10.892848,8.2349977 5.0522092 0 1 13.21842,-5.4644 z m -0.58011,1.70919 a 8.5348302,6.4523352 5.0522112 0 0 -10.35718,4.28104 8.5348302,6.4523352 5.0522112 0 0 6.15885,8.0884 8.5348302,6.4523352 5.0522112 0 0 10.35719,-4.2811 8.5348302,6.4523352 5.0522112 0 0 -6.15886,-8.08834 z"
       style="fill:#ffccaa;fill-opacity:1;stroke:#000000;stroke-width:0.75;stroke-miterlimit:4;stroke-dasharray:none;stroke-dashoffset:0" />
    <ellipse
       transform="matrix(-0.99400959,0.10929286,0.15980602,0.98714844,0,0)"
       ry="1.130963"
       rx="3.1944151"
       cy="1018.4219"
       cx="3.2049012"
       id="path4297-9"
       style="fill:#ff7f2a;fill-opacity:1;stroke:#000000;stroke-width:0.71840751;stroke-miterlimit:4;stroke-dasharray:none;stroke-dashoffset:0" />
    <path
       id="ellipse4293-6-9"
       d="m 146.419,1002.978 a 7.6068818,5.750806 5.0522097 0 1 5.49015,7.2096 7.6068818,5.750806 5.0522097 0 1 -9.23223,3.8157 7.6068818,5.750806 5.0522097 0 1 -5.48885,-7.2092 7.6068818,5.750806 5.0522097 0 1 9.23093,-3.8161 z m -0.40514,1.1937 a 5.9601901,4.5059063 5.0522105 0 0 -7.23278,2.9895 5.9601901,4.5059063 5.0522105 0 0 4.30094,5.6485 5.9601901,4.5059063 5.0522105 0 0 7.23279,-2.9896 5.9601901,4.5059063 5.0522105 0 0 -4.30095,-5.6484 z"
       style="display:inline;fill:#ffccaa;fill-opacity:1;stroke:#000000;stroke-width:0.75;stroke-miterlimit:4;stroke-dasharray:none;stroke-dashoffset:0" />
    <path
       id="path4275-9"
       d="m 187.93477,965.63135 c -0.98392,-1.1442 -2.13959,-1.17963 -3.35875,-0.44194 -1.11768,10.83084 -2.16933,21.67686 -5.12653,32.08497 0.46611,2.30914 1.44938,2.96342 3.0936,1.5026 3.44629,-10.63628 3.64012,-22.08567 5.39168,-33.14563 z"
       style="fill:#ffb380;fill-rule:evenodd;stroke:#000000;stroke-width:1px;stroke-linecap:butt;stroke-linejoin:miter;stroke-opacity:1" />
    <ellipse
       transform="scale(-1,1)"
       ry="5.1613708"
       rx="7.2573419"
       cy="979.61591"
       cx="-198.41582"
       id="path4277-5"
       style="fill:#ffb380;fill-opacity:1;stroke:#000000;stroke-width:0.73531657;stroke-miterlimit:4;stroke-dasharray:none;stroke-dashoffset:0" />
    <ellipse
       transform="matrix(-0.9326675,-0.36073721,-0.36073721,0.9326675,0,0)"
       ry="5.0625"
       rx="6.75"
       cy="846.96045"
       cx="-510.05161"
       id="path4279-1"
       style="fill:#ffb380;fill-opacity:1;stroke:#000000;stroke-width:0.75;stroke-miterlimit:4;stroke-dasharray:none;stroke-dashoffset:0" />
    <ellipse
       transform="matrix(-0.94672121,-0.32205427,-0.24722166,0.96895895,0,0)"
       ry="6.5171719"
       rx="2.2982709"
       cy="830.93341"
       cx="-474.59521"
       id="path4281-3"
       style="fill:#ffb380;fill-opacity:1;stroke:#000000;stroke-width:0.65692127;stroke-miterlimit:4;stroke-dasharray:none;stroke-dashoffset:0" />
    <path
       id="path4518-7"
       d="m 132.73679,1006.5995 c -0.36822,-2.4494 -1.02685,-4.3349 -2.84976,-6.94598 l -0.8333,0.58928 1.99648,6.9467 c 0.15697,0.4906 1.46145,0.042 1.68658,-0.59 z"
       style="display:inline;fill:#ff7f2a;fill-rule:evenodd;stroke:#000000;stroke-width:0.75;stroke-linecap:butt;stroke-linejoin:miter;stroke-miterlimit:4;stroke-dasharray:none;stroke-opacity:1" />
    <path
       id="path4518-4"
       d="m 130.79392,1001.2594 c -2.20455,-1.62946 -5.8046,-3.3204 -10.07298,-4.52024 l 1.66089,2.06679 7.81361,3.69005 c 0.50173,0.292 0.84789,-0.5955 0.59848,-1.2366 z"
       style="display:inline;fill:#ff7f2a;fill-rule:evenodd;stroke:#000000;stroke-width:0.75;stroke-linecap:butt;stroke-linejoin:miter;stroke-miterlimit:4;stroke-dasharray:none;stroke-opacity:1" />
    <path
       id="path4518"
       d="m 123.02386,997.93057 c -0.70094,-2.77233 -1.34243,-5.22929 -3.11074,-8.21786 l -0.8907,0.99283 2.87983,7.97614 c 0.15226,0.56157 0.90323,-0.0274 1.12161,-0.75111 z"
       style="fill:#ff7f2a;fill-rule:evenodd;stroke:#000000;stroke-width:0.75;stroke-linecap:butt;stroke-linejoin:miter;stroke-miterlimit:4;stroke-dasharray:none;stroke-opacity:1" />
    <path
       id="path4295"
       d="m 85.395906,980.80839 c 10.174153,4.15122 17.157764,6.73602 22.539484,8.75948 0.12307,-3.20742 1.95489,-5.34723 5.99895,-7.02747 -6.77493,-3.84473 -14.805636,-7.61817 -20.202058,-12.89593 0.484301,3.45188 0.525438,9.33224 -8.336376,11.16392 z"
       style="fill:#ffb380;fill-rule:evenodd;stroke:#000000;stroke-width:0.75;stroke-linecap:butt;stroke-linejoin:miter;stroke-opacity:1;stroke-miterlimit:4;stroke-dasharray:none" />
    <path
       id="ellipse4293"
       d="m 84.359457,964.50086 a 10.791807,8.1421315 4.2263084 0 0 -10.956382,7.66937 10.791807,8.1421315 4.2263084 0 0 10.602068,8.62147 10.791807,8.1421315 4.2263084 0 0 10.954454,-7.66945 10.791807,8.1421315 4.2263084 0 0 -10.60014,-8.62139 z m -0.03836,1.76364 a 8.4556621,6.3795721 4.2263079 0 1 8.305825,6.75473 8.4556621,6.3795721 4.2263079 0 1 -8.583422,6.00883 8.4556621,6.3795721 4.2263079 0 1 -8.305826,-6.75472 8.4556621,6.3795721 4.2263079 0 1 8.583423,-6.00884 z"
       style="fill:#ffccaa;fill-opacity:1;stroke:#000000;stroke-width:0.75;stroke-miterlimit:4;stroke-dasharray:none;stroke-dashoffset:0" />
    <ellipse
       transform="matrix(0.9271342,0.37472946,-0.48215218,0.87608748,0,0)"
       ry="1.1472526"
       rx="3.1026013"
       cy="877.96143"
       cx="566.04022"
       id="path4297"
       style="fill:#ff7f2a;fill-opacity:1;stroke:#000000;stroke-width:0.71308857;stroke-miterlimit:4;stroke-dasharray:none;stroke-dashoffset:0" />
    <path
       id="ellipse4293-6"
       d="m 114.81535,982.18257 a 7.5363212,5.6859541 4.2263083 0 0 -7.65124,5.3558 7.5363212,5.6859541 4.2263083 0 0 7.40381,6.0207 7.5363212,5.6859541 4.2263083 0 0 7.64991,-5.35586 7.5363212,5.6859541 4.2263083 0 0 -7.40248,-6.02064 z m -0.0268,1.23161 a 5.9049041,4.4550931 4.2263081 0 1 5.80027,4.71708 5.9049041,4.4550931 4.2263081 0 1 -5.99413,4.19619 5.9049041,4.4550931 4.2263081 0 1 -5.80024,-4.71708 5.9049041,4.4550931 4.2263081 0 1 5.9941,-4.19619 z"
       style="display:inline;fill:#ffccaa;fill-opacity:1;stroke:#000000;stroke-width:0.75;stroke-miterlimit:4;stroke-dasharray:none;stroke-dashoffset:0" />
    <path
       id="path4516-3"
       d="m 131.36831,1008.1544 c 2.38091,1.5601 5.71828,1.737 8.13219,1.5386 0.67849,-0.5762 0.46659,-1.277 0.11894,-1.8777 -2.82709,-0.1785 -5.55164,-0.5724 -8.25278,-1.3174 -0.59103,0.5815 -0.18957,1.2026 0.002,1.6565 z"
       style="display:inline;fill:#ffccaa;fill-rule:evenodd;stroke:#000000;stroke-width:0.75;stroke-linecap:butt;stroke-linejoin:miter;stroke-miterlimit:4;stroke-dasharray:none;stroke-opacity:1" />
    <path
       id="path4516-96"
       d="m 128.35394,1000.4364 c 0.12398,2.8437 0.93493,5.9434 2.50563,7.7872 0.75346,0.5236 1.81737,1.2681 2.10198,0.6352 -1.50605,-2.3992 -2.29128,-6.7633 -3.26386,-9.39121 -0.8172,-0.14012 -1.08694,0.54851 -1.34375,0.96881 z"
       style="display:inline;fill:#ffccaa;fill-rule:evenodd;stroke:#000000;stroke-width:0.75;stroke-linecap:butt;stroke-linejoin:miter;stroke-miterlimit:4;stroke-dasharray:none;stroke-opacity:1" />
    <path
       id="path4516-9"
       d="m 121.35548,999.3701 c 2.17789,2.1792 6.75738,3.5577 9.55443,4.0478 0.36163,-0.8955 0.30951,-1.6764 -0.10603,-2.0453 -3.13982,-0.9707 -6.09244,-2.12064 -8.90231,-3.60302 -0.86107,0.39482 -0.61227,1.10812 -0.54609,1.60052 z"
       style="display:inline;fill:#ffccaa;fill-rule:evenodd;stroke:#000000;stroke-width:0.75;stroke-linecap:butt;stroke-linejoin:miter;stroke-miterlimit:4;stroke-dasharray:none;stroke-opacity:1" />
    <path
       id="path4516"
       d="m 118.02206,990.59824 c 0.12026,3.25484 1.47376,6.91585 2.99741,9.02613 0.48452,0.77553 1.97704,1.74543 2.25312,1.02093 -1.46093,-2.74599 -3.00358,-8.14816 -3.94703,-11.15585 -0.79272,-0.16038 -1.05438,0.62776 -1.3035,1.10879 z"
       style="fill:#ffccaa;fill-rule:evenodd;stroke:#000000;stroke-width:0.75;stroke-linecap:butt;stroke-linejoin:miter;stroke-miterlimit:4;stroke-dasharray:none;stroke-opacity:1" />
    <path
       id="path4283"
       d="m 36.789214,919.43173 c 16.75,-9.75 31,-10 31,-10 l 49.065636,21.50784 c -1.4984,-14.80475 2.18275,-29.6095 -4.61634,-44.41425 L 85.539214,872.43173 c -7.918462,-4.70833 -62.644256,-10.08223 -66.5,14.5 -4.920246,31.36895 17.75,32.5 17.75,32.5 z"
       style="fill:#ff2a2a;fill-rule:evenodd;stroke:#000000;stroke-width:1px;stroke-linecap:butt;stroke-linejoin:miter;stroke-opacity:1" />
    <path
       id="path4273"
       d="m 110.66221,903.51621 3.45342,-0.71469 c -0.0537,-5.76849 -3.98928,-18.56112 -12.25543,-20.69045 l 0.71914,2.17936 c 5.01168,2.78424 8.35403,13.48053 8.08287,19.22578 z"
       style="fill:#ffaaaa;fill-rule:evenodd;stroke:#000000;stroke-width:1px;stroke-linecap:butt;stroke-linejoin:miter;stroke-opacity:1" />
    <path
       id="path4259"
       d="m 53.414214,876.30673 c -2.590873,13.10519 4.657337,27.74565 7.75,37.625 14.279352,7.48512 25.713024,6.71777 38.5,9.875 l 2.249996,-29.5 c -0.76359,-6.01264 -28.82074,-23.34626 -48.499996,-18 z"
       style="fill:#ff5555;fill-rule:evenodd;stroke:#000000;stroke-width:1px;stroke-linecap:butt;stroke-linejoin:miter;stroke-opacity:1" />
    <path
       id="path4255"
       d="m 24.395184,945.67745 c 25.515593,39.10112 78.245266,14.60448 82.895706,3.30438 l -2.99264,-53.06702 c 1.8166,6.00835 -42.262572,56.19552 -88.389649,2.65663 -0.877813,13.77468 4.189233,31.75834 8.486583,47.10601 z"
       style="fill:#ff8080;fill-rule:evenodd;stroke:#000000;stroke-width:1px;stroke-linecap:butt;stroke-linejoin:miter;stroke-opacity:1" />
    <path
       id="path4271"
       d="m 115.45034,931.57193 c -0.71875,-10.73301 -0.0496,-20.83132 -0.4189,-30.92688 -0.35956,-9.8282 -4.40015,-18.49999 -16.256466,-19.99998 l -0.57766,-1.8151 c 12.945116,1.51186 18.383996,7.82812 18.897856,21.22309 l 1.19433,31.13314 c -0.81062,0.67369 -1.86235,1.37379 -2.83916,0.38573 z"
       style="fill:#ffaaaa;fill-rule:evenodd;stroke:#000000;stroke-width:1px;stroke-linecap:butt;stroke-linejoin:miter;stroke-opacity:1" />
    <path
       id="path4269"
       d="m 103.68518,885.40399 c 1.52421,0.81248 2.83775,1.20295 3.26533,-0.18138 -2.77124,-3.72002 -4.44856,-7.13163 -8.501519,-11.21303 -2.570202,-0.83027 -2.654283,0.0923 -2.837731,0.94478 3.278906,3.48116 7.09923,6.96043 8.07392,10.44963 z"
       style="fill:#ffb380;fill-rule:evenodd;stroke:#000000;stroke-width:1px;stroke-linecap:butt;stroke-linejoin:miter;stroke-opacity:1" />
    <path
       id="path4267"
       d="m 103.89996,887.93765 2.56326,0.17678 c -0.20116,-1.46896 5.70988,-2.52175 9.63433,0.17677 1.24669,7.15946 1.46076,15.23313 1.33026,22.39259 0.98317,-0.0784 2.20757,0.80801 2.7356,-1.09099 0.68816,-8.67687 -0.66503,-17.73011 -1.06066,-23.33453 -0.67555,-1.61041 -7.52815,-2.27252 -14.23052,-1.41421 -1.68563,1.0312 -1.78229,2.06239 -0.97227,3.09359 z"
       style="fill:#ffb380;fill-rule:evenodd;stroke:#000000;stroke-width:1px;stroke-linecap:butt;stroke-linejoin:miter;stroke-opacity:1" />
    <path
       id="path4257"
       d="m 14.849243,895.47287 c -0.07739,22.29401 24.226798,30.37471 46.669047,29.07977 16.709557,-0.96416 45.36415,-8.47054 43.48706,-25.1023 -2.68595,-23.79859 -46.099496,-26.13078 -46.099496,-26.13078 -5.075893,0.0665 -6.999717,3.67272 -4.281855,3.50337 1.998267,-0.11478 52.488421,7.37331 44.370951,24.74874 -5.800129,12.41516 -23.067918,18.1775 -36.769553,18.38477 -21.558007,0.32612 -44.677719,-9.22974 -41.542523,-25.10229 5.003068,-25.32903 44.637478,-33.24223 73.606809,-15.28154 6.855827,4.25054 13.190547,25.35781 13.190547,25.35781 l 3.71231,-2.12132 C 107.36238,894.91308 105.29227,884.45587 99.702057,879.12103 77.573418,858.00327 14.959268,863.7789 14.849243,895.47287 Z"
       style="fill:#ffaaaa;fill-rule:evenodd;stroke:#000000;stroke-width:1px;stroke-linecap:butt;stroke-linejoin:miter;stroke-opacity:1" />
    <path
       id="path4261"
       d="m 14.090991,911.43357 c -0.185072,3.12379 2.923023,17.32326 5.198223,23.37316 32.218713,44.21894 91.218766,15.98585 95.124996,-1.3125 l -0.5625,-19.5 c -19.175888,28.63692 -73.154893,39.31343 -99.760719,-2.56066 z"
       style="fill:#ff8080;fill-rule:evenodd;stroke:#000000;stroke-width:1px;stroke-linecap:butt;stroke-linejoin:miter;stroke-opacity:1" />
    <path
       id="path4263"
       d="m 105.92937,919.31844 3.61244,-0.7513 c 0.32804,-2.46725 -1.08154,-5.44854 -0.17489,-7.39508 2.95223,-0.89763 6.50799,-0.55508 8.25938,-0.30229 l 1.41291,17.81196 c 1.53145,-5.60382 1.02773,-17.66667 -0.25,-26.5 -4.47603,-0.59604 -8.95205,-0.39886 -13.42808,0.0594 -0.27961,4.00403 -0.54597,11.07661 0.56824,17.07731 z"
       style="fill:#ffaaaa;fill-rule:evenodd;stroke:#000000;stroke-width:1px;stroke-linecap:butt;stroke-linejoin:miter;stroke-opacity:1" />
    <path
       id="path4265"
       d="m 14.142136,912.53182 c -0.613762,-4.47193 0.473755,-8.55556 0.972272,-12.9047 -1.010983,15.60198 13.525516,29.14821 29.577058,35.09102 12.856219,4.7598 26.41503,4.42032 39.233863,-0.54061 10.652398,-4.12251 26.585251,-13.78083 26.736881,-23.2367 l 3.40295,-0.0884 c 2.60151,14.00567 -61.136334,58.64404 -99.923024,1.67938 z"
       style="fill:#ffaaaa;fill-rule:evenodd;stroke:#000000;stroke-width:1px;stroke-linecap:butt;stroke-linejoin:miter;stroke-opacity:1" />
    <path
       id="path4275"
       d="m 74.95332,936.13151 c 0.983926,-1.1442 2.139594,-1.17963 3.358756,-0.44194 1.117681,10.83084 2.169329,21.67686 5.126525,32.08497 -0.466111,2.30914 -1.449373,2.9634 -3.093592,1.5026 -3.446292,-10.63628 -3.640127,-22.08567 -5.391689,-33.14563 z"
       style="fill:#ffb380;fill-rule:evenodd;stroke:#000000;stroke-width:1px;stroke-linecap:butt;stroke-linejoin:miter;stroke-opacity:1" />
    <ellipse
       ry="5.1613708"
       rx="7.2573419"
       cy="950.11603"
       cx="64.472275"
       id="path4277"
       style="fill:#ffb380;fill-opacity:1;stroke:#000000;stroke-width:0.73531657;stroke-miterlimit:4;stroke-dasharray:none;stroke-dashoffset:0" />
    <ellipse
       transform="matrix(0.9326675,-0.36073721,0.36073721,0.9326675,0,0)"
       ry="5.0625"
       rx="6.75"
       cy="914.28046"
       cx="-254.22273"
       id="path4279"
       style="fill:#ffb380;fill-opacity:1;stroke:#000000;stroke-width:0.75;stroke-miterlimit:4;stroke-dasharray:none;stroke-dashoffset:0" />
    <ellipse
       transform="matrix(0.94672121,-0.32205427,0.24722166,0.96895895,0,0)"
       ry="6.5171719"
       rx="2.2982709"
       cy="887.84296"
       cx="-211.77356"
       id="path4281"
       style="fill:#ffb380;fill-opacity:1;stroke:#000000;stroke-width:0.65692127;stroke-miterlimit:4;stroke-dasharray:none;stroke-dashoffset:0" />
    <path
       id="path4566"
       d="m 194.85212,976.08305 c 2.29247,-0.19961 4.56731,-0.0321 6.27528,0.60316 0.18947,0.0705 0.37089,0.14633 0.54364,0.22753 0.6371,0.17254 1.20468,0.4207 1.67244,0.75828 0.60076,0.43356 1.06384,1.03471 1.27555,1.85817 -0.0482,-0.85061 -0.36984,-1.59505 -0.942,-2.22623 -0.44165,-0.48721 -1.01875,-0.89107 -1.69386,-1.21528 -0.20634,-0.0622 -0.41816,-0.11681 -0.63447,-0.16423 -1.91069,-0.41888 -4.26628,-0.29895 -6.49658,0.1586 z"
       style="fill:#ffffff;fill-rule:evenodd;stroke:none;stroke-width:1px;stroke-linecap:butt;stroke-linejoin:miter;stroke-opacity:1" />
    <path
       id="path4570"
       d="m 167.5843,970.02844 c 1.84617,-0.22606 3.52267,0.19511 4.99044,1.08669 0.6725,0.4085 1.29376,0.9115 1.85981,1.48509 0.47727,0.82822 0.84138,1.71122 1.10471,2.59894 -0.58031,-0.72737 -1.22287,-1.37336 -1.91363,-1.90478 -0.42976,-0.58674 -0.92051,-1.12309 -1.47331,-1.58398 -1.19582,-0.99697 -2.71225,-1.66475 -4.56802,-1.68196 z"
       style="fill:#ffffff;fill-rule:evenodd;stroke:none;stroke-width:1px;stroke-linecap:butt;stroke-linejoin:miter;stroke-opacity:1" />
    <path
       id="path4574"
       d="m 243.06796,955.84211 c 0.30693,-0.6013 0.6408,-1.09164 0.96981,-1.45555 0.22231,-0.2459 0.43905,-0.43025 0.63788,-0.55079 0.0803,-0.0765 0.15805,-0.13972 0.2325,-0.19015 0.11426,-0.0774 0.22056,-0.12445 0.31739,-0.14325 0.0957,-0.0186 0.19066,-0.0113 0.28366,0.0333 0.0947,0.0454 0.18849,0.13016 0.27206,0.26496 0.0833,0.13437 0.15308,0.31315 0.20351,0.5389 -0.0198,-0.22902 -0.0602,-0.42217 -0.12051,-0.57969 -0.0603,-0.15733 -0.14272,-0.28522 -0.25137,-0.37733 -0.11015,-0.0934 -0.24437,-0.14728 -0.39735,-0.15739 -0.15148,-0.01 -0.31369,0.0234 -0.47937,0.093 -0.1077,0.0452 -0.21733,0.10595 -0.3277,0.18069 -0.19691,0.1927 -0.39079,0.44107 -0.57548,0.73289 -0.27422,0.43329 -0.5374,0.97696 -0.76503,1.61042 z"
       style="fill:#ffffff;fill-rule:evenodd;stroke:none;stroke-width:1px;stroke-linecap:butt;stroke-linejoin:miter;stroke-opacity:1" />
    <path
       id="path4578"
       d="m 186.45522,966.36032 c -0.003,0.8405 0.0226,1.69766 0.0675,2.56515 -0.35243,2.23531 -0.57569,4.61068 -0.82256,7.05104 -0.34022,3.36321 -0.72185,6.80929 -1.54307,10.09442 0.64381,-3.31547 0.8452,-6.77001 1.00524,-10.13439 0.1159,-2.43642 0.21087,-4.84953 0.43763,-7.12937 0.26474,-0.84484 0.54715,-1.66277 0.85523,-2.44685 z"
       style="fill:#ffffff;fill-rule:evenodd;stroke:none;stroke-width:1px;stroke-linecap:butt;stroke-linejoin:miter;stroke-opacity:1" />
    <path
       id="path4582"
       d="m 89.095454,942.14192 c 0.685286,-0.53936 1.563508,-0.84501 2.478661,-0.96633 0.920859,-0.12208 1.896129,-0.0598 2.783015,0.15607 0.102677,0.025 0.20406,0.052 0.303934,0.081 0.792502,0.0414 1.554061,0.2069 2.187821,0.49394 0.358222,0.16224 0.680946,0.36566 0.947909,0.61353 0.266845,0.24775 0.484978,0.54645 0.623631,0.90343 -0.03278,-0.38359 -0.157291,-0.75534 -0.367708,-1.10735 -0.210052,-0.3514 -0.500663,-0.67458 -0.854001,-0.96272 -0.6241,-0.50895 -1.434134,-0.90099 -2.324253,-1.15524 -0.12097,-0.01 -0.242398,-0.0171 -0.36404,-0.0219 -1.046713,-0.0411 -2.120012,0.10323 -3.07287,0.43274 -0.958194,0.33136 -1.78424,0.84639 -2.342099,1.53283 z"
       style="fill:#ffffff;fill-rule:evenodd;stroke:none;stroke-width:1px;stroke-linecap:butt;stroke-linejoin:miter;stroke-opacity:1" />
    <path
       id="path4582-4"
       d="m 61.104842,947.64119 c 0.757904,-0.43425 1.64439,-0.6236 2.543101,-0.6335 0.902935,-0.01 1.836013,0.16104 2.693389,0.46755 0.0994,0.0355 0.197739,0.0729 0.294867,0.11195 0.789865,0.12242 1.559062,0.3597 2.230123,0.698 0.753543,0.37987 1.404438,0.89764 1.815112,1.5519 -0.217497,-0.75655 -0.730381,-1.47496 -1.448029,-2.09372 -0.630783,-0.54386 -1.410019,-1.00253 -2.262731,-1.34297 -0.11841,-0.0217 -0.237257,-0.0411 -0.356357,-0.0582 -1.026174,-0.14743 -2.075903,-0.12539 -3.035373,0.0869 -0.963681,0.21317 -1.822842,0.61522 -2.474102,1.21212 z"
       style="display:inline;fill:#ffffff;fill-rule:evenodd;stroke:none;stroke-width:1px;stroke-linecap:butt;stroke-linejoin:miter;stroke-opacity:1" />
    <path
       id="path4604"
       d="m 17.75,923.86219 c 0.380955,0.29646 0.686232,0.7546 0.929472,1.26907 0.04275,0.0904 0.08389,0.18328 0.123412,0.27814 0.290782,0.39009 0.556192,0.84606 0.788309,1.32443 0.28033,0.57773 0.508626,1.18089 0.674138,1.72905 0.08268,0.27381 0.149664,0.53383 0.1996,0.76989 0.04985,0.23564 0.08307,0.44916 0.09757,0.62942 0.02795,-0.17972 0.03734,-0.3984 0.02896,-0.64472 -0.0084,-0.24623 -0.03449,-0.51968 -0.07731,-0.80995 -0.08556,-0.57995 -0.238107,-1.22896 -0.450565,-1.86537 -0.17538,-0.52535 -0.393802,-1.04877 -0.653292,-1.5204 -0.07568,-0.0856 -0.152655,-0.16822 -0.230827,-0.24725 -0.454788,-0.45983 -0.942699,-0.79151 -1.429462,-0.91231 z"
       style="fill:#ffffff;fill-rule:evenodd;stroke:none;stroke-width:1px;stroke-linecap:butt;stroke-linejoin:miter;stroke-opacity:1" />
    <path
       id="path4608"
       d="m 76.76528,936.57345 c -0.01479,0.51516 -0.03771,1.06035 -0.06621,1.6215 0.217419,0.94974 0.419194,1.98469 0.610663,3.07562 0.298943,1.70327 0.571726,3.53694 0.83954,5.38897 0.535576,3.70369 1.049579,7.46859 1.709604,10.37582 -0.50839,-2.9321 -0.869262,-6.71078 -1.25231,-10.43239 -0.191519,-1.86077 -0.389048,-3.71203 -0.613583,-5.43673 -0.143854,-1.10496 -0.29922,-2.16135 -0.471848,-3.13775 -0.247468,-0.51777 -0.499421,-1.00556 -0.755852,-1.45504 z"
       style="fill:#ffffff;fill-rule:evenodd;stroke:none;stroke-width:1px;stroke-linecap:butt;stroke-linejoin:miter;stroke-opacity:1" />
    <path
       id="path4612"
       d="m 96.5625,974.17469 c 3.7699,2.81088 7.59008,5.15527 11.03109,7.35079 0.30802,0.0649 1.59839,0.33427 1.90641,0.39921 -0.4246,-0.47914 -0.86173,-0.9619 -1.30793,-1.44818 -3.6358,-1.84301 -7.64465,-3.83171 -11.62957,-6.30182 z"
       style="fill:#ffffff;fill-rule:evenodd;stroke:none;stroke-width:1px;stroke-linecap:butt;stroke-linejoin:miter;stroke-opacity:1" />
    <path
       id="path4612-3"
       d="m 166.59438,1000.7158 c -4.66423,0.5986 -9.04043,1.5675 -13.04049,2.38 -0.2669,0.1676 -1.38137,0.8703 -1.64827,1.0378 0.63828,0.049 1.2881,0.093 1.94688,0.1324 3.89516,-1.2013 8.15984,-2.5572 12.74188,-3.5502 z"
       style="display:inline;fill:#ffffff;fill-rule:evenodd;stroke:none;stroke-width:1px;stroke-linecap:butt;stroke-linejoin:miter;stroke-opacity:1" />
  </g>
</svg>
