<?xml version="1.0" encoding="UTF-8" standalone="no"?>
<svg
   xmlns:dc="http://purl.org/dc/elements/1.1/"
   xmlns:cc="http://creativecommons.org/ns#"
   xmlns:rdf="http://www.w3.org/1999/02/22-rdf-syntax-ns#"
   xmlns:svg="http://www.w3.org/2000/svg"
   xmlns="http://www.w3.org/2000/svg"
   xmlns:xlink="http://www.w3.org/1999/xlink"
   xmlns:sodipodi="http://sodipodi.sourceforge.net/DTD/sodipodi-0.dtd"
   xmlns:inkscape="http://www.inkscape.org/namespaces/inkscape"
   version="1.1"
   id="svg4206"
   viewBox="0 0 256 256"
   sodipodi:docname="penis_strapon.svg"
   inkscape:version="0.92.3 (2405546, 2018-03-11)">
  <sodipodi:namedview
     pagecolor="#ffffff"
     bordercolor="#666666"
     borderopacity="1"
     objecttolerance="10"
     gridtolerance="10"
     guidetolerance="10"
     inkscape:pageopacity="0"
     inkscape:pageshadow="2"
     inkscape:window-width="2560"
     inkscape:window-height="1388"
     id="namedview21"
     showgrid="false"
     inkscape:zoom="1.84375"
     inkscape:cx="202.398"
     inkscape:cy="209.69661"
     inkscape:window-x="-8"
     inkscape:window-y="-8"
     inkscape:window-maximized="1"
     inkscape:current-layer="svg4206" />
  <style
     id="style3">
    svg { cursor: default; }
  </style>
  <defs
     id="defs4208">
    <inkscape:path-effect
       effect="powerstroke"
       id="path-effect1402"
       is_visible="true"
       offset_points="0.43399884,-0.55473223"
       sort_points="true"
       interpolator_type="CubicBezierJohan"
       interpolator_beta="0.2"
       start_linecap_type="zerowidth"
       linejoin_type="extrp_arc"
       miter_limit="4"
       end_linecap_type="zerowidth" />
    <inkscape:path-effect
       effect="powerstroke"
       id="path-effect1380"
       is_visible="true"
       offset_points="0,0.5"
       sort_points="true"
       interpolator_type="CubicBezierJohan"
       interpolator_beta="0.2"
       start_linecap_type="zerowidth"
       linejoin_type="extrp_arc"
       miter_limit="4"
       end_linecap_type="zerowidth" />
    <inkscape:path-effect
       effect="powerstroke"
       id="path-effect1376"
       is_visible="true"
       offset_points="0.50620457,0.69354565"
       sort_points="true"
       interpolator_type="CubicBezierJohan"
       interpolator_beta="0.2"
       start_linecap_type="zerowidth"
       linejoin_type="extrp_arc"
       miter_limit="4"
       end_linecap_type="zerowidth" />
    <inkscape:path-effect
       effect="powerstroke"
       id="path-effect1372"
       is_visible="true"
       offset_points="0,0.5"
       sort_points="true"
       interpolator_type="CubicBezierJohan"
       interpolator_beta="0.2"
       start_linecap_type="zerowidth"
       linejoin_type="extrp_arc"
       miter_limit="4"
       end_linecap_type="zerowidth" />
    <inkscape:path-effect
       effect="powerstroke"
       id="path-effect1368"
       is_visible="true"
       offset_points="0.34304851,0.46051547"
       sort_points="true"
       interpolator_type="CubicBezierJohan"
       interpolator_beta="0.2"
       start_linecap_type="zerowidth"
       linejoin_type="extrp_arc"
       miter_limit="4"
       end_linecap_type="zerowidth" />
    <inkscape:path-effect
       effect="powerstroke"
       id="path-effect1364"
       is_visible="true"
       offset_points="0,0.5"
       sort_points="true"
       interpolator_type="CubicBezierJohan"
       interpolator_beta="0.2"
       start_linecap_type="zerowidth"
       linejoin_type="extrp_arc"
       miter_limit="4"
       end_linecap_type="zerowidth" />
    <inkscape:path-effect
       effect="powerstroke"
       id="path-effect1360"
       is_visible="true"
       offset_points="1.3635142,0.562531"
       sort_points="true"
       interpolator_type="CubicBezierJohan"
       interpolator_beta="0.2"
       start_linecap_type="zerowidth"
       linejoin_type="extrp_arc"
       miter_limit="4"
       end_linecap_type="zerowidth" />
    <inkscape:path-effect
       effect="powerstroke"
       id="path-effect1356"
       is_visible="true"
       offset_points="0,1.0488545"
       sort_points="true"
       interpolator_type="CubicBezierJohan"
       interpolator_beta="0.2"
       start_linecap_type="zerowidth"
       linejoin_type="extrp_arc"
       miter_limit="4"
       end_linecap_type="zerowidth" />
    <inkscape:path-effect
       effect="powerstroke"
       id="path-effect1352"
       is_visible="true"
       offset_points="0,0.5"
       sort_points="true"
       interpolator_type="CubicBezierJohan"
       interpolator_beta="0.2"
       start_linecap_type="zerowidth"
       linejoin_type="extrp_arc"
       miter_limit="4"
       end_linecap_type="zerowidth" />
    <linearGradient
       id="innoGrad1"
       inkscape:collect="always">
      <stop
         id="stop1331"
         offset="0"
         style="stop-color:#ff5555;stop-opacity:1" />
      <stop
         id="stop1333"
         offset="1"
         style="stop-color:#ff8080;stop-opacity:1" />
    </linearGradient>
    <inkscape:path-effect
       effect="powerstroke"
       id="path-effect1325"
       is_visible="true"
       offset_points="0.4779527,0.40196412"
       sort_points="true"
       interpolator_type="CubicBezierJohan"
       interpolator_beta="0.2"
       start_linecap_type="zerowidth"
       linejoin_type="extrp_arc"
       miter_limit="4"
       end_linecap_type="zerowidth" />
    <inkscape:path-effect
       effect="powerstroke"
       id="path-effect1321"
       is_visible="true"
       offset_points="0.56428837,0.28325962"
       sort_points="true"
       interpolator_type="CubicBezierJohan"
       interpolator_beta="0.2"
       start_linecap_type="zerowidth"
       linejoin_type="extrp_arc"
       miter_limit="4"
       end_linecap_type="zerowidth" />
    <inkscape:path-effect
       effect="powerstroke"
       id="path-effect1317"
       is_visible="true"
       offset_points="0.73439209,0.51847239"
       sort_points="true"
       interpolator_type="CubicBezierJohan"
       interpolator_beta="0.2"
       start_linecap_type="zerowidth"
       linejoin_type="extrp_arc"
       miter_limit="4"
       end_linecap_type="zerowidth" />
    <inkscape:path-effect
       effect="powerstroke"
       id="path-effect1313"
       is_visible="true"
       offset_points="0.2763238,0.30097409"
       sort_points="true"
       interpolator_type="CubicBezierJohan"
       interpolator_beta="0.2"
       start_linecap_type="zerowidth"
       linejoin_type="extrp_arc"
       miter_limit="4"
       end_linecap_type="zerowidth" />
    <inkscape:path-effect
       end_linecap_type="zerowidth"
       miter_limit="4"
       linejoin_type="extrp_arc"
       start_linecap_type="zerowidth"
       interpolator_beta="0.2"
       interpolator_type="CubicBezierJohan"
       sort_points="true"
       offset_points="0.50488754,0.71230354"
       is_visible="true"
       id="path-effect1143"
       effect="powerstroke" />
    <inkscape:path-effect
       end_linecap_type="zerowidth"
       miter_limit="4"
       linejoin_type="extrp_arc"
       start_linecap_type="zerowidth"
       interpolator_beta="0.2"
       interpolator_type="CubicBezierJohan"
       sort_points="true"
       offset_points="0,0.5"
       is_visible="true"
       id="path-effect1140"
       effect="powerstroke" />
    <inkscape:path-effect
       end_linecap_type="zerowidth"
       miter_limit="4"
       linejoin_type="extrp_arc"
       start_linecap_type="zerowidth"
       interpolator_beta="0.2"
       interpolator_type="CubicBezierJohan"
       sort_points="true"
       offset_points="0,0.5"
       is_visible="true"
       id="path-effect1137"
       effect="powerstroke" />
    <inkscape:path-effect
       end_linecap_type="zerowidth"
       miter_limit="4"
       linejoin_type="extrp_arc"
       start_linecap_type="zerowidth"
       interpolator_beta="0.2"
       interpolator_type="CubicBezierJohan"
       sort_points="true"
       offset_points="0,0.5"
       is_visible="true"
       id="path-effect1134"
       effect="powerstroke" />
    <linearGradient
       inkscape:collect="always"
       id="innoGrad2">
      <stop
         style="stop-color:#ffaaaa;stop-opacity:1"
         offset="0"
         id="stop1059" />
      <stop
         style="stop-color:#ffd5d5;stop-opacity:1"
         offset="1"
         id="stop1061" />
    </linearGradient>
    <inkscape:path-effect
       effect="powerstroke"
       id="path-effect1057"
       is_visible="true"
       offset_points="0,0.5"
       sort_points="true"
       interpolator_type="CubicBezierJohan"
       interpolator_beta="0.2"
       start_linecap_type="zerowidth"
       linejoin_type="extrp_arc"
       miter_limit="4"
       end_linecap_type="zerowidth" />
    <inkscape:path-effect
       effect="powerstroke"
       id="path-effect1053"
       is_visible="true"
       offset_points="0,0.5"
       sort_points="true"
       interpolator_type="CubicBezierJohan"
       interpolator_beta="0.2"
       start_linecap_type="zerowidth"
       linejoin_type="extrp_arc"
       miter_limit="4"
       end_linecap_type="zerowidth" />
    <inkscape:path-effect
       effect="powerstroke"
       id="path-effect1049"
       is_visible="true"
       offset_points="0,0.5"
       sort_points="true"
       interpolator_type="CubicBezierJohan"
       interpolator_beta="0.2"
       start_linecap_type="zerowidth"
       linejoin_type="extrp_arc"
       miter_limit="4"
       end_linecap_type="zerowidth" />
    <inkscape:path-effect
       effect="powerstroke"
       id="path-effect1045"
       is_visible="true"
       offset_points="0.50488754,0.71230354"
       sort_points="true"
       interpolator_type="CubicBezierJohan"
       interpolator_beta="0.2"
       start_linecap_type="zerowidth"
       linejoin_type="extrp_arc"
       miter_limit="4"
       end_linecap_type="zerowidth" />
    <linearGradient
       inkscape:collect="always"
       xlink:href="#innoGrad2"
       id="linearGradient1065"
       x1="-39.919647"
       y1="218.78886"
       x2="-59.927177"
       y2="195.95564"
       gradientUnits="userSpaceOnUse" />
    <linearGradient
       inkscape:collect="always"
       xlink:href="#innoGrad1"
       id="linearGradient1099"
       x1="43.161133"
       y1="193.64914"
       x2="23.356482"
       y2="146.953"
       gradientUnits="userSpaceOnUse" />
    <linearGradient
       gradientTransform="matrix(-0.94012917,0,0,0.98942585,189.32255,-822.40005)"
       gradientUnits="userSpaceOnUse"
       y2="879.28961"
       x2="128.4339"
       y1="876.47064"
       x1="123.77793"
       id="linearGradient5608"
       xlink:href="#innoGrad5" />
    <linearGradient
       id="innoGrad5">
      <stop
         style="stop-color:#ffccaa;stop-opacity:1"
         offset="0"
         id="stop5620" />
      <stop
         style="stop-color:#ff9955;stop-opacity:1"
         offset="1"
         id="stop5622" />
    </linearGradient>
    <inkscape:path-effect
       effect="powerstroke"
       id="path-effect1360-4"
       is_visible="true"
       offset_points="1.3635142,0.562531"
       sort_points="true"
       interpolator_type="CubicBezierJohan"
       interpolator_beta="0.2"
       start_linecap_type="zerowidth"
       linejoin_type="extrp_arc"
       miter_limit="4"
       end_linecap_type="zerowidth" />
  </defs>
  <metadata
     id="metadata4211">
    <rdf:RDF>
      <cc:Work
         rdf:about="">
        <dc:format>image/svg+xml</dc:format>
        <dc:type
           rdf:resource="http://purl.org/dc/dcmitype/StillImage" />
        <dc:title />
      </cc:Work>
    </rdf:RDF>
  </metadata>
  <path
     sodipodi:nodetypes="ccc"
     inkscape:connector-curvature="0"
     id="path1171"
     d="M 17.423205,44.664055 C 17.921356,39.133927 35.915586,41.215858 71.038183,40.832642 56.728642,60.043184 22.250311,55.308463 17.423205,44.664055 Z"
     style="fill:#ffccaa;fill-rule:evenodd;stroke:#000000;stroke-width:0.81px;stroke-linecap:butt;stroke-linejoin:miter;stroke-opacity:1" />
  <path
     sodipodi:nodetypes="ccccc"
     inkscape:connector-curvature="0"
     id="path1169"
     d="m 71.038183,40.832642 0.589129,3.337567 c 36.347138,0.544972 72.094808,-6.912475 83.052418,20.003856 l 11.06433,4.12467 C 154.15406,34.295745 96.578771,40.865901 71.038183,40.832642 Z"
     style="fill:#ffccaa;fill-rule:evenodd;stroke:#000000;stroke-width:0.81px;stroke-linecap:butt;stroke-linejoin:miter;stroke-opacity:1" />
  <path
     sodipodi:nodetypes="cccc"
     inkscape:connector-curvature="0"
     id="path1167"
     d="m 150.59506,66.184164 c -4.97134,-3.445563 -6.98179,11.970959 -8.46635,17.317028 l 9.90189,-14.367451 z"
     style="fill:#ff9955;fill-rule:evenodd;stroke:#000000;stroke-width:0.81px;stroke-linecap:butt;stroke-linejoin:miter;stroke-opacity:1" />
  <path
     style="fill:#ff9955;fill-rule:evenodd;stroke:#000000;stroke-width:0.81px;stroke-linecap:butt;stroke-linejoin:miter;stroke-opacity:1"
     d="M 29.775868,57.392698 C 16.772865,103.48218 41.213797,181.76378 81.755075,200.85372 l 3.420943,-1.48643 C 36.844176,173.5024 24.356984,111.18957 33.471266,54.623047 Z"
     id="path917-9"
     inkscape:connector-curvature="0"
     sodipodi:nodetypes="ccccc" />
  <path
     style="fill:#ff9955;fill-rule:evenodd;stroke:#000000;stroke-width:0.81px;stroke-linecap:butt;stroke-linejoin:miter;stroke-opacity:1"
     d="m 127.1591,57.133712 c 11.30891,18.683837 14.70553,102.266838 -40.898336,142.979338 -1.803993,0.0689 -5.749137,1.23585 -4.403994,-0.31018 55.7357,-34.69154 53.17964,-112.226859 41.12877,-144.646107 z"
     id="path917"
     inkscape:connector-curvature="0"
     sodipodi:nodetypes="ccccc" />
  <path
     style="fill:#ff9955;fill-rule:evenodd;stroke:#000000;stroke-width:0.81px;stroke-linecap:butt;stroke-linejoin:miter;stroke-opacity:1"
     d="M 70.990409,41.486105 70.259287,55.774 c 36.347133,0.544972 78.122543,1.132194 89.080153,28.048525 L 164.50148,67.67744 C 151.20291,35.460674 96.530997,41.519364 70.990409,41.486105 Z"
     id="path915"
     inkscape:connector-curvature="0"
     sodipodi:nodetypes="ccccc" />
  <path
     style="fill:#ff9955;fill-rule:evenodd;stroke:#000000;stroke-width:0.81px;stroke-linecap:butt;stroke-linejoin:miter;stroke-opacity:1"
     d="m 18.089333,44.109383 c 3.73815,-2.949111 17.77848,-2.240061 52.901076,-2.623278 L 70.259287,55.774 C 33.96735,55.299479 6.3812612,64.377278 6.5652041,70.642864 Z"
     id="path913"
     inkscape:connector-curvature="0"
     sodipodi:nodetypes="ccccc" />
  <path
     style="fill:none;fill-rule:evenodd;stroke:#000000;stroke-width:0.324;stroke-linecap:butt;stroke-linejoin:miter;stroke-miterlimit:4;stroke-dasharray:0.972, 0.324;stroke-dashoffset:0;stroke-opacity:1"
     d="M 155.11339,74.38294 C 135.25045,52.230002 97.981593,55.889361 70.002476,54.230906 51.986626,54.750872 24.69093,54.452509 13.651692,57.359211"
     id="path1160-3"
     inkscape:connector-curvature="0"
     sodipodi:nodetypes="ccc" />
  <path
     style="fill:none;fill-rule:evenodd;stroke:#000000;stroke-width:0.324;stroke-linecap:butt;stroke-linejoin:miter;stroke-miterlimit:4;stroke-dasharray:0.972, 0.324;stroke-dashoffset:0;stroke-opacity:1"
     d="M 159.77876,61.966254 C 140.28943,36.845179 96.054109,43.09653 71.14554,42.965576 53.12969,43.485541 29.356304,42.035823 18.317065,44.942525"
     id="path1160"
     inkscape:connector-curvature="0"
     sodipodi:nodetypes="ccc" />
  <path
     inkscape:connector-curvature="0"
     id="path5524-3-0-2"
     d="m 76.256794,49.382331 c 0.107722,-0.624486 -0.102149,-1.140046 -0.911995,-1.089675 l -10.315998,4.180411 c -1.193098,0.645314 -0.435602,1.547957 0.661624,1.168542 z"
     style="display:inline;fill:#ff7f2a;fill-opacity:1;fill-rule:evenodd;stroke:#000000;stroke-width:0.3738924;stroke-linecap:butt;stroke-linejoin:miter;stroke-miterlimit:4;stroke-dasharray:none;stroke-opacity:1"
     sodipodi:nodetypes="ccccc" />
  <ellipse
     style="display:inline;fill:#4d4d4d;fill-opacity:1;stroke:#000000;stroke-width:0.39226982;stroke-linecap:round;stroke-linejoin:bevel;stroke-miterlimit:4;stroke-dasharray:none;stroke-dashoffset:0;stroke-opacity:1"
     id="path4558-6-3-9-45-5-0"
     cx="-65.645187"
     cy="48.801647"
     rx="0.91731"
     ry="0.97794622"
     transform="scale(-1,1)" />
  <path
     inkscape:connector-curvature="0"
     id="path5524-3-0-2-9"
     d="m 76.826103,53.663131 c 0.107714,-0.624486 0.286295,-1.577014 -0.523527,-1.526643 l -6.330272,1.68298 c -1.193098,0.645314 -0.43561,1.547957 0.661624,1.168542 z"
     style="display:inline;fill:#ff7f2a;fill-opacity:1;fill-rule:evenodd;stroke:#000000;stroke-width:0.3738924;stroke-linecap:butt;stroke-linejoin:miter;stroke-miterlimit:4;stroke-dasharray:none;stroke-opacity:1"
     sodipodi:nodetypes="ccccc" />
  <ellipse
     style="display:inline;fill:#4d4d4d;fill-opacity:1;stroke:#000000;stroke-width:0.37847313;stroke-linecap:round;stroke-linejoin:bevel;stroke-miterlimit:4;stroke-dasharray:none;stroke-dashoffset:0;stroke-opacity:1"
     id="path4558-6-3-3"
     cx="-75.741142"
     cy="44.315762"
     rx="0.84793717"
     ry="0.98484457"
     transform="scale(-1,1)" />
  <ellipse
     style="display:inline;fill:#4d4d4d;fill-opacity:1;stroke:#000000;stroke-width:0.37847313;stroke-linecap:round;stroke-linejoin:bevel;stroke-miterlimit:4;stroke-dasharray:none;stroke-dashoffset:0;stroke-opacity:1"
     id="path4558-6-3-9"
     cx="-65.913155"
     cy="44.285789"
     rx="0.84793717"
     ry="0.98484457"
     transform="scale(-1,1)" />
  <path
     inkscape:connector-curvature="0"
     style="display:inline;fill:#ffccaa;fill-opacity:1;fill-rule:evenodd;stroke:#000000;stroke-width:0.3738924;stroke-linecap:butt;stroke-linejoin:miter;stroke-miterlimit:4;stroke-dasharray:none;stroke-opacity:1"
     d="m 75.77595,44.931061 c 0.949044,0.0099 0.759942,-1.35868 -0.04973,-1.308308 l -9.856291,-0.09845 c -1.193097,0.645313 -0.435602,1.547956 0.661624,1.168542 z"
     id="path4647-3-4-0-84-5" />
  <path
     inkscape:connector-curvature="0"
     style="display:inline;fill:url(#linearGradient5608);fill-opacity:1;fill-rule:evenodd;stroke:#000000;stroke-width:0.3738924;stroke-linecap:butt;stroke-linejoin:miter;stroke-miterlimit:4;stroke-dasharray:none;stroke-opacity:1"
     d="m 76.384565,44.727432 c 0.107714,-0.624487 -0.102157,-1.140046 -0.911987,-1.089675 l -10.131256,4.309348 c -1.193097,0.645314 -0.316974,2.073381 0.780269,1.693966 z"
     id="path4647-3-4-0-84"
     sodipodi:nodetypes="ccccc" />
  <ellipse
     style="display:inline;fill:#4d4d4d;fill-opacity:1;stroke:#000000;stroke-width:0.37847313;stroke-linecap:round;stroke-linejoin:bevel;stroke-miterlimit:4;stroke-dasharray:none;stroke-dashoffset:0;stroke-opacity:1"
     id="path4558-6-3-9-45-5-0-2"
     cx="-75.587303"
     cy="48.977928"
     rx="0.84793717"
     ry="0.98484457"
     transform="scale(-1,1)" />
  <path
     inkscape:connector-curvature="0"
     style="display:inline;fill:#ffb380;fill-rule:evenodd;stroke:#000000;stroke-width:0.3738924;stroke-linecap:butt;stroke-linejoin:miter;stroke-miterlimit:4;stroke-dasharray:none;stroke-opacity:1"
     d="m 65.836031,44.998879 c -1.004975,-0.736087 -0.194358,-1.778327 0.691632,-1.343911 l 9.242013,4.505235 c 1.19309,0.645314 0.418661,1.920838 -0.678581,1.541424 z"
     id="path4647-3-4-0-8"
     sodipodi:nodetypes="ccccc" />
  <ellipse
     style="display:inline;fill:#4d4d4d;fill-opacity:1;stroke:#000000;stroke-width:0.39430773;stroke-linecap:round;stroke-linejoin:bevel;stroke-miterlimit:4;stroke-dasharray:none;stroke-dashoffset:0;stroke-opacity:1"
     id="path4558-0-0"
     cx="-65.255623"
     cy="53.120331"
     rx="0.89151978"
     ry="1.0167186"
     transform="scale(-1,1)" />
  <path
     inkscape:connector-curvature="0"
     style="display:inline;fill:#ffb380;fill-rule:evenodd;stroke:#000000;stroke-width:0.39430773;stroke-linecap:butt;stroke-linejoin:miter;stroke-miterlimit:4;stroke-dasharray:none;stroke-opacity:1"
     d="m 64.679942,53.715371 c -0.09801,-0.763382 0.09298,-1.242422 0.829724,-1.18084 l 4.462638,1.284937 c 1.085521,0.78884 0.396333,1.892247 -0.601968,1.428445 z"
     id="path4647-3-4-40-3" />
  <ellipse
     style="display:inline;fill:#4d4d4d;fill-opacity:1;stroke:#000000;stroke-width:0.37847313;stroke-linecap:round;stroke-linejoin:bevel;stroke-miterlimit:4;stroke-dasharray:none;stroke-dashoffset:0;stroke-opacity:1"
     id="path4558-6-3-9-45-5-0-4"
     cx="-76.240021"
     cy="52.99535"
     rx="0.84793717"
     ry="0.98484457"
     transform="scale(-1,1)" />
  <path
     inkscape:connector-curvature="0"
     style="display:inline;fill:#ffb380;fill-rule:evenodd;stroke:#000000;stroke-width:0.37128022;stroke-linecap:butt;stroke-linejoin:miter;stroke-miterlimit:4;stroke-dasharray:none;stroke-opacity:1"
     d="m 65.3686,49.463227 c -0.877771,-0.506986 -0.31379,-1.624793 0.423381,-1.570228 l 10.676744,4.375479 c 1.086065,0.699041 0.39652,1.676836 -0.602267,1.265831 z"
     id="path4647-3-4-0-8-4-9-2"
     sodipodi:nodetypes="ccccc" />
  <path
     style="fill:#ff7f2a;fill-rule:evenodd;stroke:#000000;stroke-width:0.81px;stroke-linecap:butt;stroke-linejoin:miter;stroke-opacity:1"
     d="m 142.09605,90.961508 c -17.54888,3.303299 -36.48145,1.902046 -55.464403,0.329491 L 73.122491,110.62117 c 0,0 -7.485283,43.33114 1.317967,62.05424 1.941999,4.13033 11.063977,7.11967 18.831666,11.10397 5.86632,3.00902 10.393956,7.67083 13.678166,7.67705 5.28937,0.01 10.5388,-4.07311 15.42185,-7.0646 4.20705,-2.57735 8.14213,-3.86323 11.59645,-6.66422 13.10115,-10.62328 22.57023,-27.25226 20.75797,-65.45898 z"
     id="path909"
     inkscape:connector-curvature="0"
     sodipodi:nodetypes="cccssssscc" />
  <path
     style="fill:none;fill-rule:evenodd;stroke:#000000;stroke-width:0.405;stroke-linecap:butt;stroke-linejoin:miter;stroke-miterlimit:4;stroke-dasharray:1.215, 0.405;stroke-dashoffset:0;stroke-opacity:1"
     d="m 138.42331,97.205501 c -15.36747,2.892679 -31.94661,1.665611 -48.569896,0.288534 L 78.023509,114.42138 c 0,0 -6.554819,37.94483 1.154145,54.34056 1.700595,3.61691 9.688669,6.23466 16.49079,9.72369 5.137106,2.63498 9.101946,6.71731 11.977906,6.72275 4.63187,0.009 9.22877,-3.5668 13.50483,-6.18643 3.68409,-2.25697 7.13002,-3.383 10.15495,-5.83582 11.47261,-9.30275 19.76464,-23.86467 18.17765,-57.32208 z"
     id="path1151"
     inkscape:connector-curvature="0"
     sodipodi:nodetypes="cccssssscc" />
  <path
     sodipodi:nodetypes="cccssssscc"
     inkscape:connector-curvature="0"
     id="path1149"
     d="m 140.61871,93.472745 c -16.67144,3.138134 -34.65738,1.806943 -52.691193,0.313016 L 75.09382,112.14942 c 0,0 -7.111014,41.16458 1.252074,58.95153 1.844897,3.92382 10.510779,6.76369 17.890081,10.54877 5.573003,2.85857 9.874265,7.2873 12.994265,7.29319 5.02489,0.01 10.01185,-3.86944 14.65075,-6.71136 3.9967,-2.44849 7.73502,-3.67007 11.01663,-6.33101 12.44609,-10.09212 21.44172,-25.88964 19.72007,-62.18603 z"
     style="fill:none;fill-rule:evenodd;stroke:#000000;stroke-width:0.405;stroke-linecap:butt;stroke-linejoin:miter;stroke-miterlimit:4;stroke-dasharray:1.215, 0.405;stroke-dashoffset:0;stroke-opacity:1" />
  <path
     sodipodi:nodetypes="cccc"
     inkscape:connector-curvature="0"
     id="path1111"
     d="m 128.07027,122.52789 c -4.89001,0.59574 -9.167,-8.59533 -2.12904,-9.34607 2.30197,0.0682 11.37899,1.03726 13.89387,11.29683 z"
     style="fill:#ff8080;fill-opacity:1;fill-rule:evenodd;stroke:#000000;stroke-width:0.81px;stroke-linecap:butt;stroke-linejoin:miter;stroke-opacity:1" />
  <path
     sodipodi:nodetypes="cccc"
     inkscape:connector-curvature="0"
     id="path1120"
     d="m 142.80053,99.849583 -5.64685,0.266487 c 3.31412,18.32722 -9.56993,20.33188 -5.93314,24.80192 11.77196,4.16648 9.23053,-18.24198 11.57999,-25.068407 z"
     style="fill:#ff9955;fill-rule:evenodd;stroke:#000000;stroke-width:0.81px;stroke-linecap:butt;stroke-linejoin:miter;stroke-opacity:1" />
  <path
     style="fill:#ff7f2a;fill-opacity:1;fill-rule:evenodd;stroke:#000000;stroke-width:0.81px;stroke-linecap:butt;stroke-linejoin:miter;stroke-opacity:1"
     d="m 144.12078,100.16023 -6.07399,-0.0442 c 4.20724,17.9389 -9.14278,20.64252 -5.50599,25.11255 11.77195,4.16649 9.23052,-18.24198 11.57998,-25.0684 z"
     id="path853"
     inkscape:connector-curvature="0"
     sodipodi:nodetypes="cccc" />
  <path
     style="fill:#ff7f2a;fill-rule:evenodd;stroke:#000000;stroke-width:0.81px;stroke-linecap:butt;stroke-linejoin:miter;stroke-opacity:1"
     d="m 151.83765,66.572473 c -4.97134,-3.445563 -6.67114,11.15551 -9.04882,15.647298 L 153.27319,69.52205 Z"
     id="path1153"
     inkscape:connector-curvature="0"
     sodipodi:nodetypes="cccc" />
  <path
     inkscape:connector-curvature="0"
     style="fill:#ffe680;fill-rule:evenodd;stroke:#000000;stroke-width:0.55902463px;stroke-linecap:butt;stroke-linejoin:miter;stroke-opacity:1"
     d="m 166.83113,79.24601 c -0.93868,3.594646 -2.83511,6.805366 -5.13956,8.921188 -1.39585,1.281595 -3.02091,0.05193 -3.97784,-1.904036 l -8.70167,-17.786723 c -0.83825,-1.713374 -1.12888,-4.175644 0.70794,-5.745578 6.21177,-5.309222 12.89424,-1.506293 15.81192,3.845249 2.1963,4.028423 2.36303,8.59596 1.29921,12.6699 z m -1.6362,-0.378502 c 1.015,-3.397826 1.01978,-7.27541 -0.7245,-10.64516 -2.18845,-4.227835 -8.13879,-8.330784 -12.81777,-3.916706 -1.39181,1.313012 -1.23789,3.240667 -0.59329,4.583354 l 7.25048,15.102138 c 0.73586,1.532784 1.94952,2.506288 3.02997,1.469543 1.66482,-1.597481 3.06566,-3.950419 3.85511,-6.593171 z"
     id="path855-7-5" />
  <path
     inkscape:connector-curvature="0"
     style="fill:#ffe680;fill-rule:evenodd;stroke:#000000;stroke-width:0.55009031px;stroke-linecap:butt;stroke-linejoin:miter;stroke-opacity:1"
     d="m 163.91194,82.698377 c -0.91215,3.58191 -2.75498,6.781254 -4.99429,8.889581 -1.35639,1.277054 -2.93552,0.05175 -3.86541,-1.897291 l -8.45571,-17.723703 c -0.81456,-1.707304 -1.09697,-4.16085 0.68793,-5.725222 6.03619,-5.29041 12.52978,-1.500956 15.36499,3.831625 2.13422,4.014151 2.29624,8.565504 1.26249,12.62501 z m -1.58996,-0.377161 c 0.98632,-3.385787 0.99096,-7.249631 -0.70402,-10.607444 -2.12659,-4.212855 -7.90874,-8.301267 -12.45547,-3.902828 -1.35247,1.30836 -1.20289,3.229185 -0.57651,4.567115 l 7.04553,15.04863 c 0.71507,1.527353 1.89442,2.497409 2.94433,1.464336 1.61777,-1.591821 2.97901,-3.936422 3.74614,-6.569811 z"
     id="path855-7" />
  <path
     style="fill:#ffccaa;fill-rule:evenodd;stroke:#000000;stroke-width:0.81px;stroke-linecap:butt;stroke-linejoin:miter;stroke-opacity:1"
     d="m 132.5408,125.22863 c 2.39671,-1.23867 4.47913,-2.25342 5.82101,-8.56679 2.97987,-14.01985 0.0554,-13.45743 -0.54915,-20.428468 -0.95147,-10.972085 14.5136,-28.13211 13.31729,-29.192642 2.58498,-2.617022 7.25957,11.408591 5.762,13.971303 -13.24341,15.4683 0.0607,40.040957 -11.28723,51.792217 z"
     id="path851"
     inkscape:connector-curvature="0"
     sodipodi:nodetypes="csscccc" />
  <path
     sodipodi:nodetypes="cssccscc"
     inkscape:connector-curvature="0"
     id="path1157"
     d="m 136.10435,124.05531 c 2.21155,-1.14297 2.3758,-2.51865 3.61402,-8.34428 2.74966,-12.93675 0.0511,-12.41777 -0.50673,-18.850262 -0.87797,-10.124434 14.33397,-28.595797 13.23008,-29.574396 2.38528,-2.414844 8.6236,20.115482 7.24172,22.48021 -5.19809,6.175898 -5.66186,14.396918 -4.25651,22.701418 1.78941,10.57401 3.66471,20.5964 -2.4323,26.45116 z"
     style="fill:#ffb380;fill-rule:evenodd;stroke:#000000;stroke-width:0.74742323px;stroke-linecap:butt;stroke-linejoin:miter;stroke-opacity:1" />
  <path
     style="fill:none;fill-rule:evenodd;stroke:#000000;stroke-width:0.405;stroke-linecap:butt;stroke-linejoin:miter;stroke-miterlimit:4;stroke-dasharray:1.215, 0.405;stroke-dashoffset:0;stroke-opacity:1"
     d="m 153.27319,69.52205 c -13.58643,26.591199 -13.93229,19.386036 -11.00132,34.74225 1.25559,6.57837 -2.05236,23.34452 -6.96714,23.28247"
     id="path1152"
     inkscape:connector-curvature="0"
     sodipodi:nodetypes="csc" />
  <path
     style="fill:none;fill-rule:evenodd;stroke:#000000;stroke-width:0.405;stroke-linecap:butt;stroke-linejoin:miter;stroke-miterlimit:4;stroke-dasharray:1.215, 0.405;stroke-dashoffset:0;stroke-opacity:1"
     d="m 154.72656,132.03812 c 1.89737,-11.24413 -2.03764,-19.5887 -1.64746,-28.99525 0.41403,-9.981292 6.26034,-16.474582 6.26034,-16.474582"
     id="path1154"
     inkscape:connector-curvature="0"
     sodipodi:nodetypes="csc" />
  <g
     id="g1107"
     transform="matrix(-0.81,0,0,0.81,186.0009,21.751704)">
    <path
       sodipodi:nodetypes="csssccscsscc"
       inkscape:connector-curvature="0"
       id="path1015-5"
       d="m 71.519299,124.41504 c -23.65138,3.85193 -45.88154,11.59516 -67.7465249,20.41154 -3.17804003,1.28145 -7.04403,1.32653 -10.18653,2.71804 -2.63501,1.1668 -7.9618301,5.23945 -10.5541001,6.53077 -13.92843,6.93832 -23.81185,14.15811 -36.01981,26.10826 14.320462,25.35662 13.591682,28.97761 27.448146,40.65341 2.97705,-1.14937 6.511397,-1.67853 9.121404,-3.41703 23.9527853,-15.9547 48.768405,-32.3986 74.841715,-39.72923 -2.03411,1.35019 -8.36535,2.8096 -8.36535,2.8096 4.78379,16.80994 14.33037,26.64771 27.34937,26.33758 20.067624,-0.47804 25.983151,-36.21431 20.341066,-63.47149 C 82.878028,127.83784 86.982526,126.04817 71.519299,124.41504 Z"
       style="fill:url(#linearGradient1099);fill-opacity:1;fill-rule:evenodd;stroke:#000000;stroke-width:1px;stroke-linecap:butt;stroke-linejoin:miter;stroke-opacity:1" />
    <path
       style="fill:url(#linearGradient1065);fill-opacity:1;fill-rule:evenodd;stroke:#000000;stroke-width:1px;stroke-linecap:butt;stroke-linejoin:miter;stroke-opacity:1"
       d="m -52.987666,180.18365 c -5.9744,0.58985 -7.65453,3.0201 -8.62909,5.75274 -2.12499,2.82157 -4.49405,4.78891 -5.9445,9.9714 -15.005751,8.83465 -20.165617,38.40506 24.545,35.8587 1.78774,-0.10182 2.720979,-0.74726 3.81189,-2.334 4.57621,-0.94933 7.091361,-2.28999 9.17147,-5.37884 1.024095,-1.52073 2.552536,-2.44212 4.285174,-3.1348 2.569203,-15.38205 -6.503658,-43.14493 -27.239944,-40.7352 z"
       id="path1041"
       inkscape:connector-curvature="0"
       sodipodi:nodetypes="cccscscc" />
    <path
       inkscape:original-d="m -72.135593,224.27119 c -6.613158,-5.81717 8.610314,1.80794 1.084745,0.13559"
       inkscape:path-effect="#path-effect1045"
       inkscape:connector-curvature="0"
       id="path1043"
       d="m -72.135593,224.27119 c -0.324504,-0.28544 -0.678024,-0.63483 -0.959549,-0.97274 -0.215543,-0.25871 -0.379673,-0.49961 -0.468017,-0.69926 -0.03971,-0.0897 -0.06221,-0.16724 -0.06736,-0.22802 -0.0049,-0.0582 0.0072,-0.0968 0.02673,-0.10304 0.02062,-0.007 0.03349,0.0244 0.02956,0.0609 -0.0037,0.034 -0.01679,0.0603 -0.01006,0.0774 0.0066,0.0168 0.03045,0.0299 0.06925,0.0472 0.03892,0.0174 0.09198,0.0388 0.154422,0.0653 0.139463,0.0591 0.290615,0.12766 0.481156,0.22089 0.461621,0.22587 0.980633,0.51812 1.322552,0.68754 0.01938,0.01 0.03827,0.0188 0.05665,0.0277 0.320399,0.15423 0.859561,0.36992 1.356976,0.59551 0.205035,0.093 0.383645,0.17802 0.544249,0.25906 0.147336,0.0743 0.261938,0.14018 0.325867,0.16679 0.03278,0.0136 0.04986,0.0152 0.06493,-0.002 0.0153,-0.0175 0.03666,-0.0602 0.0674,-0.0781 0.01602,-0.009 0.0305,-0.0109 0.03885,-0.006 0.0084,0.005 0.0094,0.0159 0.0027,0.0286 -0.0144,0.0273 -0.05886,0.0574 -0.12532,0.0819 -0.149314,0.055 -0.383802,0.0759 -0.664695,0.0658 -0.367493,-0.0132 -0.793253,-0.0781 -1.161535,-0.15993 0.364441,0.081 0.786755,0.18377 1.149143,0.2604 0.269727,0.057 0.524907,0.10403 0.710243,0.11697 0.08544,0.006 0.173319,0.006 0.252068,-0.0102 0.03949,-0.008 0.08083,-0.0214 0.121019,-0.0431 0.04008,-0.0216 0.0793,-0.0519 0.112972,-0.0934 0.07004,-0.0864 0.09449,-0.19356 0.09121,-0.29652 -0.0031,-0.0964 -0.02995,-0.18981 -0.06356,-0.27117 -0.06804,-0.16471 -0.184658,-0.33101 -0.322679,-0.48995 -0.147238,-0.16954 -0.326758,-0.33964 -0.517548,-0.5004 -0.478952,-0.40357 -1.016837,-0.74059 -1.364398,-0.90789 -0.02022,-0.01 -0.04118,-0.0196 -0.06283,-0.0295 -0.373966,-0.1714 -0.998462,-0.38456 -1.603844,-0.48448 -0.237118,-0.0391 -0.47353,-0.061 -0.687566,-0.0529 -0.102965,0.004 -0.203988,0.0149 -0.299171,0.0356 -0.093,0.0202 -0.188686,0.0515 -0.2754,0.10015 -0.08816,0.0494 -0.174181,0.12101 -0.229433,0.22127 -0.05726,0.10391 -0.06587,0.21014 -0.04821,0.30398 0.0172,0.0913 0.05953,0.17438 0.106892,0.24758 0.04982,0.077 0.114842,0.15749 0.187062,0.23849 0.158731,0.17802 0.380843,0.39008 0.628922,0.61474 0.327077,0.2962 0.709073,0.62213 1.03036,0.90475 z"
       style="fill:#000000;fill-rule:nonzero;stroke:none;stroke-width:1px;stroke-linecap:butt;stroke-linejoin:miter;stroke-opacity:1" />
    <path
       sodipodi:nodetypes="cc"
       inkscape:original-d="m -67.561256,195.90779 c 2.104075,-0.93381 3.098577,-1.17707 5.431738,-0.98264"
       inkscape:path-effect="#path-effect1049"
       inkscape:connector-curvature="0"
       id="path1047"
       d="m -67.561256,195.90779 c 0,0 0.202827,0.45701 0.202827,0.45701 0.624033,-0.27695 1.568038,-0.82577 2.473981,-1.12585 0.932759,-0.30896 1.95032,-0.38085 2.75493,-0.3138 -0.80969,-0.0675 -1.786537,-0.2477 -2.848622,-0.17734 -1.028365,0.0681 -2.086568,0.39258 -2.785943,0.70297 0,0 0.202827,0.45701 0.202827,0.45701 z"
       style="fill:#000000;fill-rule:nonzero;stroke:none;stroke-width:1px;stroke-linecap:butt;stroke-linejoin:miter;stroke-opacity:1" />
    <path
       sodipodi:nodetypes="cc"
       inkscape:original-d="m -61.616756,185.93639 c 1.348307,-0.90587 1.991786,-2.03731 4.281182,-2.03731"
       inkscape:path-effect="#path-effect1053"
       inkscape:connector-curvature="0"
       id="path1051"
       d="m -61.616756,185.93639 c 0,0 0.27884,0.41503 0.27884,0.41503 0.434146,-0.29169 1.009564,-1.00621 1.64412,-1.56315 0.277436,-0.2435 0.577094,-0.44832 0.941253,-0.60365 0.486365,-0.20744 1.002725,-0.28554 1.416969,-0.28554 -0.420933,0 -0.922066,-0.005 -1.473367,0.0963 -0.411316,0.0755 -0.782305,0.1981 -1.155409,0.37238 -0.550108,0.25694 -1.825318,1.08239 -1.931246,1.15356 0,0 0.27884,0.41503 0.27884,0.41503 z"
       style="fill:#000000;fill-rule:nonzero;stroke:none;stroke-width:1px;stroke-linecap:butt;stroke-linejoin:miter;stroke-opacity:1" />
    <path
       sodipodi:nodetypes="cc"
       inkscape:original-d="m -39.204366,229.43249 c 0.577168,-1.25676 1.139609,-2.42466 1.373857,-3.12741"
       inkscape:path-effect="#path-effect1057"
       inkscape:connector-curvature="0"
       id="path1055"
       d="m -39.204366,229.43249 c 0,0 0.454374,0.20867 0.454374,0.20867 0.1667,-0.36298 0.413938,-1.18961 0.589062,-1.87739 0.17797,-0.69895 0.260147,-1.24787 0.330421,-1.45869 -0.07212,0.21636 -0.367523,0.64044 -0.786246,1.25321 -0.409762,0.59965 -0.862841,1.27545 -1.041985,1.66553 0,0 0.454374,0.20867 0.454374,0.20867 z"
       style="fill:#000000;fill-rule:nonzero;stroke:none;stroke-width:1px;stroke-linecap:butt;stroke-linejoin:miter;stroke-opacity:1" />
  </g>
  <path
     inkscape:connector-curvature="0"
     style="fill:#ffe680;fill-rule:evenodd;stroke:#000000;stroke-width:0.77080113px;stroke-linecap:butt;stroke-linejoin:miter;stroke-opacity:1"
     d="m 48.76733,51.029694 c 4.605336,-0.0017 9.150675,1.566578 12.57653,4.165062 2.075114,1.573953 1.294137,4.462249 -0.612668,6.64096 L 43.391449,81.647527 c -1.670309,1.90849 -4.443781,3.294956 -7.037572,1.178558 -8.771692,-7.157258 -7.032671,-18.548002 -1.9379,-24.953348 3.835139,-4.821684 9.131972,-6.841041 14.351353,-6.843043 z m 0.223317,2.574626 c -4.405307,-0.187874 -8.961751,1.309344 -12.207753,5.204784 -4.072559,4.88739 -6.462836,15.308191 0.631768,20.538383 2.110357,1.555769 4.311694,0.579542 5.625644,-0.897802 L 57.819201,61.83263 c 1.499983,-1.686506 2.148015,-3.864997 0.489249,-5.065949 -2.555939,-1.850509 -5.891446,-3.016237 -9.317803,-3.162361 z"
     id="path855-3" />
  <path
     inkscape:connector-curvature="0"
     style="display:inline;fill:#ff9955;fill-rule:evenodd;stroke:#000000;stroke-width:0.405;stroke-linecap:butt;stroke-linejoin:miter;stroke-miterlimit:4;stroke-dasharray:none;stroke-opacity:1"
     d="m 70.00248,54.230906 c 0.198637,-0.964794 0.794748,-1.46771 0.574063,-0.08807 l -1.945215,12.160685 c -0.259904,1.624777 -1.557103,2.150248 -1.05287,-0.298902 z"
     id="path4647-3-4-40-3-9-0"
     sodipodi:nodetypes="sssss" />
  <path
     inkscape:connector-curvature="0"
     style="display:inline;fill:#ff9955;fill-rule:evenodd;stroke:#000000;stroke-width:0.405;stroke-linecap:butt;stroke-linejoin:miter;stroke-miterlimit:4;stroke-dasharray:none;stroke-opacity:1"
     d="m 70.568411,55.354738 c -0.06051,-1.919546 0.375905,-2.206631 0.532113,-0.232707 l 0.945716,11.95041 c 0.129811,1.640304 -1.024925,2.646807 -1.10373,0.147531 z"
     id="path4647-3-4-40-3-9"
     sodipodi:nodetypes="sssss" />
  <path
     inkscape:connector-curvature="0"
     style="display:inline;fill:#ffb380;fill-rule:evenodd;stroke:#000000;stroke-width:0.30592677;stroke-linecap:butt;stroke-linejoin:miter;stroke-miterlimit:4;stroke-dasharray:none;stroke-opacity:1"
     d="m 70.536602,53.819468 c 0.331428,-0.301499 0.716008,-0.355537 1.049987,0.06012 7.705822,9.213988 -2.035603,17.975122 -1.129926,0.322189 0.125259,-0.578544 -0.251496,-0.08062 0.07995,-0.382154 z m 0.35636,0.713403 c -0.409617,13.913451 6.240086,8.878896 0.368469,0.04263 -0.567154,-0.391092 0,0 -0.368469,-0.04263 z"
     id="path4647-3-4-40-3-9-0-7"
     sodipodi:nodetypes="cccccccc" />
  <path
     inkscape:connector-curvature="0"
     style="display:inline;fill:#ffb380;fill-rule:evenodd;stroke:#000000;stroke-width:0.29691666;stroke-linecap:butt;stroke-linejoin:miter;stroke-miterlimit:4;stroke-dasharray:none;stroke-opacity:1"
     d="m 71.227816,54.174107 c 0.264173,0.460308 0.444382,1.123938 0.403404,1.902557 -0.745832,17.868239 -8.095763,5.331576 -1.314217,-2.592626 0.298234,-0.02949 0.646623,0.229844 0.910813,0.690069 z m -0.771153,0.02767 c -4.69267,5.522598 -0.4507,18.841805 0.436299,0.331096 -0.145063,-0.622329 -0.232098,-0.526465 -0.436299,-0.331096 z"
     id="path4647-3-4-40-3-9-0-7-1"
     sodipodi:nodetypes="ccccccc" />
  <path
     inkscape:connector-curvature="0"
     style="fill:#ffe680;fill-rule:evenodd;stroke:#000000;stroke-width:0.81px;stroke-linecap:butt;stroke-linejoin:miter;stroke-opacity:1"
     d="m 53.10087,55.387659 c 4.958942,-0.0018 9.853286,1.606606 13.542188,4.271484 2.234442,1.61417 1.3935,4.576266 -0.659713,6.810645 L 47.312214,86.787815 c -1.798557,1.957255 -4.784986,3.379147 -7.577931,1.208672 -9.445208,-7.340135 -7.572658,-19.021926 -2.086698,-25.590937 4.129607,-4.944884 9.833149,-7.015839 15.453285,-7.017891 z m 0.240465,2.64041 c -4.743562,-0.192674 -9.649862,1.3428 -13.145093,5.337774 -4.385267,5.012268 -6.959074,15.699334 0.680271,21.063164 2.272398,1.595521 4.642758,0.59435 6.057601,-0.920743 L 62.847762,66.466623 c 1.615157,-1.729598 2.312947,-3.963752 0.526816,-5.19539 -2.752185,-1.897792 -6.343806,-3.093307 -10.033243,-3.243164 z"
     id="path855" />
  <path
     sodipodi:nodetypes="cccc"
     inkscape:connector-curvature="0"
     id="path1110"
     d="m 86.248857,119.13142 -3.939427,2.16216 c 17.194089,7.72442 28.02773,25.6373 31.21508,24.53446 1.82301,-11.28651 -10.47245,-19.4846 -27.275653,-26.69662 z"
     style="fill:#ffb380;fill-rule:evenodd;stroke:#000000;stroke-width:0.81px;stroke-linecap:butt;stroke-linejoin:miter;stroke-opacity:1" />
  <path
     style="fill:#ff7f2a;fill-opacity:1;fill-rule:evenodd;stroke:#000000;stroke-width:0.81px;stroke-linecap:butt;stroke-linejoin:miter;stroke-opacity:1"
     d="m 87.180794,118.19947 -3.551121,2.39514 c 18.933287,9.19339 28.368667,25.60584 30.826777,24.30148 1.82301,-11.2865 -10.47246,-19.48459 -27.275656,-26.69662 z"
     id="path844"
     inkscape:connector-curvature="0"
     sodipodi:nodetypes="cccc" />
  <path
     style="fill:#ff9955;fill-rule:evenodd;stroke:#000000;stroke-width:0.81px;stroke-linecap:butt;stroke-linejoin:miter;stroke-opacity:1"
     d="m 133.07477,170.18634 c -1.58266,1.87824 5.0843,6.92819 -7.79869,13.88702 2.55458,3.68104 12.42889,-8.19483 14.48656,-14.69615 0.59728,-0.91073 -6.12331,-0.37994 -6.68787,0.80913 z"
     id="path1163"
     inkscape:connector-curvature="0"
     sodipodi:nodetypes="cccc" />
  <path
     style="fill:#ffe680;fill-rule:evenodd;stroke:#000000;stroke-width:0.81px;stroke-linecap:butt;stroke-linejoin:miter;stroke-opacity:1"
     d="m 144.67707,167.67812 c -31.40831,19.63368 -44.16657,-42.79899 -10.33001,-44.06213 1.30018,0.18906 2.95619,-2.28479 3.29404,-4.30626 -44.715624,-3.23156 -28.93775,79.2794 11.55484,49.85253 z"
     id="path1109"
     inkscape:connector-curvature="0"
     sodipodi:nodetypes="ccccc" />
  <path
     style="fill:#ffaaaa;fill-rule:evenodd;stroke:#000000;stroke-width:0.81px;stroke-linecap:butt;stroke-linejoin:miter;stroke-opacity:1"
     d="M 37.317745,77.452356 C 27.271728,71.144462 4.3882967,62.976788 6.5652041,70.642864 16.932645,69.181789 27.081232,74.723837 37.317745,77.452356 Z"
     id="path1161"
     inkscape:connector-curvature="0"
     sodipodi:nodetypes="ccc" />
  <path
     style="fill:#ff9955;fill-rule:evenodd;stroke:#000000;stroke-width:0.81px;stroke-linecap:butt;stroke-linejoin:miter;stroke-opacity:1"
     d="m 46.161277,72.985491 c 14.770852,17.442889 73.656703,32.801369 73.406753,53.281669 -6.54546,6.59238 -0.63598,10.79465 -5.11158,18.62893 0.45004,-9.02072 -25.543074,-19.36994 -41.333959,-32.4078 C 60.653464,102.19314 37.706051,79.681134 37.706051,79.681134 Z"
     id="path842"
     inkscape:connector-curvature="0"
     sodipodi:nodetypes="cccscc" />
  <path
     style="fill:#ffb380;fill-rule:evenodd;stroke:#000000;stroke-width:0.81px;stroke-linecap:butt;stroke-linejoin:miter;stroke-opacity:1"
     d="M 51.595712,59.000831 C 43.22642,63.145801 40.617726,70.491103 37.317745,77.452356 26.84724,75.438796 17.200204,66.462926 6.5652041,70.642864 3.6455429,67.491982 16.428291,43.899371 18.317073,43.73439 c 6.068366,-0.530062 25.62192,0.19107 33.278639,15.266441 z"
     id="path875"
     inkscape:connector-curvature="0"
     sodipodi:nodetypes="cccsc" />
  <path
     style="fill:#ffaaaa;fill-rule:evenodd;stroke:#000000;stroke-width:0.81px;stroke-linecap:butt;stroke-linejoin:miter;stroke-opacity:1"
     d="m 155.82258,62.476575 c -0.056,0.929098 -1.99918,3.188617 -3.98493,4.095898 3.50821,3.225832 8.57617,-4.604626 3.98493,-4.095898 z"
     id="path1165"
     inkscape:connector-curvature="0"
     sodipodi:nodetypes="ccc" />
  <path
     style="fill:#ffb380;fill-rule:evenodd;stroke:#000000;stroke-width:0.81px;stroke-linecap:butt;stroke-linejoin:miter;stroke-opacity:1"
     d="m 159.33944,83.822525 c 1.05314,3.794388 5.14152,-1.009068 6.04068,-6.919322 1.73691,-11.416838 -6.88347,-14.59471 -9.55754,-14.426628 2.62672,0.251975 -2.23433,5.890098 -3.98493,4.095898 3.6543,5.108651 5.84338,11.274879 7.50179,17.250052 z"
     id="path907"
     inkscape:connector-curvature="0"
     sodipodi:nodetypes="ssccs" />
  <path
     style="fill:#ffb380;fill-rule:evenodd;stroke:#000000;stroke-width:0.81px;stroke-linecap:butt;stroke-linejoin:miter;stroke-opacity:1"
     d="m 142.55585,168.85162 c -1.06544,-1.90156 -8.96251,-0.15129 -9.48108,1.33472 8.04284,11.1498 -12.19679,17.48862 -29.06635,20.58478 -13.015677,2.38883 -17.805766,8.0807 -22.15165,9.03175 -0.452072,0.3227 -1.756825,2.16377 4.403994,0.31018 2.294058,-0.35063 13.372606,-6.83222 20.775526,-8.25305 12.91446,-2.47864 36.14506,-6.65934 35.51956,-23.00838 z"
     id="path911"
     inkscape:connector-curvature="0"
     sodipodi:nodetypes="ccsccsc" />
  <path
     sodipodi:nodetypes="csccscc"
     inkscape:connector-curvature="0"
     id="path1159"
     d="m 57.965884,59.549983 c 6.189154,2.545435 15.793866,17.674745 31.007991,30.428801 13.982015,11.721176 44.098655,25.794516 41.855125,33.181896 -6.28753,6.33261 -11.42817,13.04272 -15.72741,20.5683 C 115.5339,135.06371 90.254372,124.65632 75.085712,112.1322 63.108007,102.24273 38.131366,78.962488 38.131366,78.962488 Z"
     style="fill:#ffb380;fill-rule:evenodd;stroke:#000000;stroke-width:0.77808279px;stroke-linecap:butt;stroke-linejoin:miter;stroke-opacity:1" />
  <path
     style="fill:none;fill-rule:evenodd;stroke:#000000;stroke-width:0.405;stroke-linecap:butt;stroke-linejoin:miter;stroke-miterlimit:4;stroke-dasharray:1.215, 0.405;stroke-dashoffset:0;stroke-opacity:1"
     d="M 115.95639,141.59338 C 118.02188,135.88257 99.113107,128.06861 76.548694,111.17855 63.918955,101.72485 51.434109,89.636956 39.294696,77.891678"
     id="path1130"
     inkscape:connector-curvature="0"
     sodipodi:nodetypes="csc" />
  <path
     style="fill:none;fill-rule:evenodd;stroke:#000000;stroke-width:0.405;stroke-linecap:butt;stroke-linejoin:miter;stroke-miterlimit:4;stroke-dasharray:1.215, 0.405;stroke-dashoffset:0;stroke-opacity:1"
     d="M 129.40584,123.93318 C 131.47133,118.22237 113.39889,110.25632 89.998136,93.51835 74.811957,82.656057 67.601717,67.317045 56.62723,61.0081"
     id="path1130-9"
     inkscape:connector-curvature="0"
     sodipodi:nodetypes="csc" />
  <path
     style="fill:none;fill-rule:evenodd;stroke:#000000;stroke-width:0.405;stroke-linecap:butt;stroke-linejoin:miter;stroke-miterlimit:4;stroke-dasharray:1.215, 0.405;stroke-dashoffset:0;stroke-opacity:1"
     d="M 49.563852,59.769644 C 45.555178,50.369524 30.989418,44.103443 16.83436,45.326932"
     id="path1147"
     inkscape:connector-curvature="0"
     sodipodi:nodetypes="cc" />
  <path
     style="fill:none;fill-rule:evenodd;stroke:#000000;stroke-width:0.405;stroke-linecap:butt;stroke-linejoin:miter;stroke-miterlimit:4;stroke-dasharray:1.215, 0.405;stroke-dashoffset:0;stroke-opacity:1"
     d="M 6.1807943,69.379813 C 13.080212,64.148848 25.860473,71.169657 37.811983,76.463881"
     id="path1150"
     inkscape:connector-curvature="0"
     sodipodi:nodetypes="cc" />
  <path
     style="fill:none;fill-rule:evenodd;stroke:#000000;stroke-width:0.405;stroke-linecap:butt;stroke-linejoin:miter;stroke-miterlimit:4;stroke-dasharray:1.215, 0.405;stroke-dashoffset:0;stroke-opacity:1"
     d="m 159.50419,83.218458 c 2.01831,2.405805 3.82483,-4.507513 5.71118,-7.907797"
     id="path1156"
     inkscape:connector-curvature="0"
     sodipodi:nodetypes="cc" />
  <path
     style="fill:none;fill-rule:evenodd;stroke:#000000;stroke-width:0.405;stroke-linecap:butt;stroke-linejoin:miter;stroke-miterlimit:4;stroke-dasharray:1.215, 0.405;stroke-dashoffset:0;stroke-opacity:1"
     d="m 158.51571,62.954729 c -0.92413,2.323483 -3.53297,6.751175 -5.7661,4.887457"
     id="path1158"
     inkscape:connector-curvature="0"
     sodipodi:nodetypes="cc" />
  <path
     style="fill:#fff6d5;fill-rule:nonzero;stroke:none;stroke-width:1px;stroke-linecap:butt;stroke-linejoin:miter;stroke-opacity:1"
     d="m 162.37288,63.79661 c 0.81936,0.72916 2.33952,3.125465 2.84413,4.448623 0.0657,0.172314 0.12194,0.32656 0.18766,0.498874 0.38115,0.997152 0.82959,2.42947 1.00977,4.351751 0.15311,1.633442 0.0777,3.272468 -0.16678,4.800427 -0.30608,1.91275 -0.81631,3.287429 -1.14999,4.004137 0.33517,-0.719908 0.91833,-2.053876 1.33281,-3.969737 0.32987,-1.524789 0.49991,-3.186132 0.42499,-4.865181 -0.0879,-1.968886 -0.49276,-3.500916 -0.88853,-4.53632 -0.0535,-0.140058 -0.12794,-0.314008 -0.22195,-0.510829 -0.63747,-1.334641 -2.55275,-3.492585 -3.37211,-4.221745 z"
     id="path1311"
     inkscape:connector-curvature="0"
     inkscape:path-effect="#path-effect1313"
     inkscape:original-d="m 162.37288,63.79661 c 5.67108,5.046761 4.78619,13.676157 2.72479,18.103812"
     sodipodi:nodetypes="cc" />
  <path
     style="fill:#fff6d5;fill-rule:nonzero;stroke:none;stroke-width:1px;stroke-linecap:butt;stroke-linejoin:miter;stroke-opacity:1"
     d="m 57.898305,56.915254 c 0.969076,0.210019 2.523859,0.665487 4.001367,1.365053 1.180327,0.558859 2.133952,1.188206 2.7959,1.853167 0.358652,0.360285 0.596359,0.695311 0.754253,0.995239 0.182022,0.34576 0.251142,0.632374 0.290853,0.836314 0.0066,0.0337 0.01697,0.07224 0.02971,0.115988 0.07013,0.240827 0.189564,0.584526 0.14644,1.090314 -0.04661,0.546726 -0.282146,1.096719 -0.526997,1.404942 0.262494,-0.330432 0.649217,-0.683809 0.982466,-1.252183 0.29574,-0.504399 0.418111,-0.991302 0.404989,-1.378747 -0.0023,-0.06777 -0.0089,-0.127923 -0.01878,-0.178505 -0.06175,-0.317124 -0.209142,-0.713408 -0.51076,-1.138241 -0.256896,-0.361843 -0.606149,-0.717654 -1.062231,-1.061845 -0.830385,-0.626666 -1.924424,-1.146685 -3.167162,-1.577316 -1.583385,-0.54867 -3.136579,-0.861041 -4.120049,-1.07418 z"
     id="path1315"
     inkscape:connector-curvature="0"
     inkscape:path-effect="#path-effect1317"
     inkscape:original-d="m 57.898305,56.915254 c 5.880813,1.274496 10.401315,3.998119 7.491526,7.661017"
     sodipodi:nodetypes="cc" />
  <path
     style="fill:#fff6d5;fill-rule:nonzero;stroke:none;stroke-width:1px;stroke-linecap:butt;stroke-linejoin:miter;stroke-opacity:1"
     d="m 50.847458,51.932203 c 0.989676,0.18157 3.537659,1.189844 4.921036,1.836825 0.244369,0.114287 0.451874,0.210687 0.615856,0.282086 0.841101,0.366218 3.426683,1.254731 4.22582,1.609903 -0.799137,-0.355172 -3.150271,-1.759495 -3.999662,-2.129323 -0.163999,-0.07141 -0.382014,-0.158547 -0.636049,-0.253483 -1.447273,-0.540863 -4.137325,-1.164438 -5.127001,-1.346008 z"
     id="path1319"
     inkscape:connector-curvature="0"
     inkscape:path-effect="#path-effect1321"
     inkscape:original-d="m 50.847458,51.932203 c 3.437258,0.630614 6.705887,2.370225 9.762712,3.728814" />
  <path
     style="fill:#fff6d5;fill-rule:nonzero;stroke:none;stroke-width:1px;stroke-linecap:butt;stroke-linejoin:miter;stroke-opacity:1"
     d="m 131.73759,120.2355 c 0.45908,0.002 1.83711,0.40888 2.29859,0.40411 0.50407,-0.005 1.9966,-0.46164 2.49535,-0.50001 -0.49875,0.0384 -2.00609,-0.30901 -2.50365,-0.30387 -0.45554,0.005 -1.83121,0.40206 -2.29029,0.39977 z"
     id="path1323"
     inkscape:connector-curvature="0"
     inkscape:path-effect="#path-effect1325"
     inkscape:original-d="m 131.73759,120.2355 c 1.60086,0.008 3.20166,0.0266 4.79394,-0.0959" />
  <path
     style="fill:none;fill-rule:evenodd;stroke:#000000;stroke-width:0.5;stroke-linecap:butt;stroke-linejoin:miter;stroke-opacity:1;stroke-miterlimit:4;stroke-dasharray:none"
     d="m 204.12615,199.62322 c -1.27531,-14.65572 8.10343,-35.62417 22.14802,-33.94113"
     id="path1337"
     inkscape:connector-curvature="0"
     sodipodi:nodetypes="cc" />
  <path
     style="fill:#ff2a2a;fill-rule:nonzero;stroke:none;stroke-width:1px;stroke-linecap:butt;stroke-linejoin:miter;stroke-opacity:1"
     d="m 197.9661,145.8983 c 0,0 -0.31086,-0.39162 -0.31086,-0.39162 -0.88526,0.70269 -1.81303,1.54173 -2.53803,2.44942 -0.55601,0.69613 -0.95872,1.38773 -1.21038,2.10493 -0.22462,0.64012 -0.31107,1.24635 -0.33362,1.86499 -0.0213,0.58355 0.0146,1.15604 0.0247,1.75047 0.0101,0.59714 -0.006,1.20837 -0.12527,1.88112 -0.12542,0.70745 -0.36026,1.4534 -0.7641,2.27434 -1.09275,2.22142 -3.2006,4.49318 -5.45433,6.50704 2.25789,-2.01758 4.40934,-4.21507 5.62928,-6.41553 0.4516,-0.81458 0.74223,-1.56545 0.92631,-2.29315 0.17542,-0.69349 0.24476,-1.32716 0.28793,-1.94024 0.0442,-0.62742 0.058,-1.15432 0.12849,-1.71206 0.0719,-0.56902 0.19595,-1.09054 0.42854,-1.62598 0.26051,-0.59972 0.64608,-1.18784 1.17793,-1.80178 0.70075,-0.80892 1.58237,-1.5762 2.44425,-2.26033 0,0 -0.31086,-0.39162 -0.31086,-0.39162 z"
     id="path1350"
     inkscape:connector-curvature="0"
     inkscape:path-effect="#path-effect1352"
     inkscape:original-d="m 197.9661,145.8983 c -8.80247,6.98715 1.39106,7.62589 -10.71187,18.44069"
     sodipodi:nodetypes="cc" />
  <path
     style="fill:#ff2a2a;fill-rule:nonzero;stroke:none;stroke-width:1px;stroke-linecap:butt;stroke-linejoin:miter;stroke-opacity:1"
     d="m 182.84745,139.32203 c 0,0 -0.95982,-0.42289 -0.95982,-0.42289 -0.60471,1.37247 -1.51031,2.97832 -3.25956,4.16813 -1.33765,0.90983 -3.0552,1.50898 -5.3088,1.80635 -2.2209,0.29307 -4.74747,0.26361 -7.31867,0.12334 -2.859,-0.15597 -7.20396,-0.56136 -8.84806,-0.72577 2.16116,0.21612 5.44475,0.71023 8.81061,1.13823 2.54275,0.32333 5.12051,0.58367 7.44035,0.50967 2.35793,-0.0752 4.37456,-0.4909 6.08884,-1.40705 2.30684,-1.23282 3.60015,-3.1448 4.31493,-4.76712 0,0 -0.95982,-0.42289 -0.95982,-0.42289 z"
     id="path1354"
     inkscape:connector-curvature="0"
     inkscape:path-effect="#path-effect1356"
     inkscape:original-d="m 182.84745,139.32203 c -3.67267,8.33569 -13.05853,6.2128 -25.69491,4.94916"
     sodipodi:nodetypes="cc" />
  <path
     style="fill:#ff2a2a;fill-rule:nonzero;stroke:none;stroke-width:1px;stroke-linecap:butt;stroke-linejoin:miter;stroke-opacity:1"
     d="m 192,182.91526 c -0.13137,-0.20924 -0.19596,-0.49292 -0.13852,-0.87191 0.0431,-0.28464 0.1438,-0.5736 0.27093,-0.914 0.1111,-0.29748 0.24416,-0.63817 0.31563,-0.97068 0.0369,-0.17181 0.0597,-0.34991 0.0559,-0.53182 -0.004,-0.19066 -0.0371,-0.38182 -0.1096,-0.56978 -0.3759,-0.79782 -0.87045,-1.38341 -1.4186,-1.83727 -0.61449,-0.50878 -1.30619,-0.85759 -1.93833,-1.12004 -0.70001,-0.29063 -1.48932,-0.53661 -2.02902,-0.7009 -0.59982,-0.18259 -1.53349,-0.40722 -2.67551,-0.79297 -1.55949,-0.52677 -3.41801,-1.35496 -5.25567,-3.08842 -2.34913,-2.21593 -3.95125,-5.26064 -4.97553,-7.99204 1.02951,2.74535 2.43465,5.82645 4.68147,8.28141 1.7628,1.92611 3.60544,2.98128 5.20726,3.68188 1.0754,0.47036 2.18245,0.83181 2.69033,0.98641 0.53085,0.16161 1.31792,0.39224 1.95727,0.63255 0.59107,0.22217 1.19466,0.49856 1.72219,0.8916 0.46326,0.34515 0.89635,0.79941 1.24544,1.45213 0.0592,0.0759 0.10848,0.16534 0.14517,0.27697 0.0356,0.10817 0.0575,0.23193 0.0669,0.37435 0.0188,0.28762 -0.0162,0.60543 -0.0519,0.94028 -0.0396,0.37105 -0.0692,0.68587 -0.0457,0.99553 0.0311,0.41018 0.14937,0.66884 0.27989,0.87672 z"
     id="path1358"
     inkscape:connector-curvature="0"
     inkscape:path-effect="#path-effect1360"
     inkscape:original-d="m 192,182.91526 c -0.67598,-1.07669 0.54025,-2.58052 0,-3.66102 -2.78124,-5.56247 -12.15491,-0.41309 -17.89831,-15.72881" />
  <path
     style="fill:#ff2a2a;fill-rule:nonzero;stroke:none;stroke-width:1px;stroke-linecap:butt;stroke-linejoin:miter;stroke-opacity:1"
     d="m 186.98305,175.86441 c 0,0 0.49992,0.009 0.49992,0.009 0.009,-0.48974 0.0794,-0.95054 0.2811,-1.31465 0.14875,-0.26854 0.37428,-0.49633 0.73553,-0.6701 0.33007,-0.15878 0.74945,-0.26131 1.27417,-0.31939 0.49865,-0.0552 1.04641,-0.0659 1.63822,-0.068 1.25587,-0.004 2.42856,0.0198 3.49311,-0.23039 0.59026,-0.1387 1.07159,-0.34727 1.46752,-0.62806 0.51816,-0.36746 0.83519,-0.82113 1.05111,-1.25296 -0.21714,0.43428 -0.55682,0.87076 -1.08956,1.1945 -0.40463,0.2459 -0.88791,0.40803 -1.46611,0.49259 -1.04224,0.15242 -2.18205,0.0327 -3.43542,-0.0753 -0.58784,-0.0506 -1.16162,-0.0932 -1.69785,-0.0864 -0.56193,0.007 -1.08037,0.0684 -1.53721,0.22976 -0.52259,0.18453 -0.93194,0.48972 -1.22177,0.92012 -0.37225,0.55281 -0.48241,1.21845 -0.49268,1.79024 0,0 0.49992,0.009 0.49992,0.009 z"
     id="path1362"
     inkscape:connector-curvature="0"
     inkscape:path-effect="#path-effect1364"
     inkscape:original-d="m 186.98305,175.86441 c 0.0963,-5.3601 8.26151,-0.11626 10.44068,-4.47458" />
  <path
     style="fill:#ff2a2a;fill-rule:nonzero;stroke:none;stroke-width:1px;stroke-linecap:butt;stroke-linejoin:miter;stroke-opacity:1"
     d="m 160.40678,164.61017 c -1.71856,-1.08521 -3.52469,-2.60445 -4.99834,-3.95507 -0.57664,-0.52851 -0.98232,-0.90985 -1.27707,-1.14566 -0.45818,-0.36657 -1.24534,-0.95637 -2.05508,-1.46571 -1.04567,-0.65776 -2.17878,-1.22439 -3.75425,-1.74173 -1.96904,-0.64657 -4.21446,-1.08048 -6.08476,-1.45454 1.83712,0.36742 4.12408,0.96089 5.97006,1.75747 1.4921,0.64387 2.51086,1.32778 3.43786,2.05324 0.76082,0.59541 1.42643,1.18295 1.91079,1.57046 0.27008,0.21608 0.77831,0.5702 1.41045,0.99101 1.46944,0.97818 4.1257,2.56038 5.44034,3.39053 z"
     id="path1366"
     inkscape:connector-curvature="0"
     inkscape:path-effect="#path-effect1368"
     inkscape:original-d="m 160.40678,164.61017 c -9.18176,-5.79797 -7.55117,-7.63905 -18.1695,-9.76271" />
  <path
     style="fill:#ff2a2a;fill-rule:nonzero;stroke:none;stroke-width:1px;stroke-linecap:butt;stroke-linejoin:miter;stroke-opacity:1"
     d="m 153.66101,159.86441 c 0,0 0.37469,0.33107 0.37469,0.33107 0.61256,-0.69329 1.40555,-1.38292 2.61435,-1.80219 0.91392,-0.317 1.88187,-0.42378 2.99223,-0.47807 1.13288,-0.0554 2.08719,-0.0539 3.07548,-0.20901 1.30517,-0.20484 2.10737,-0.62167 2.73986,-1.09604 -0.62995,0.47246 -1.48323,0.82141 -2.76133,0.89978 -0.9746,0.0598 -1.90939,-0.0365 -3.05332,-0.0947 -1.11068,-0.0566 -2.17385,-0.0532 -3.21988,0.20826 -1.42383,0.35588 -2.42955,1.10944 -3.13677,1.90986 0,0 0.37469,0.33107 0.37469,0.33107 z"
     id="path1370"
     inkscape:connector-curvature="0"
     inkscape:path-effect="#path-effect1372"
     inkscape:original-d="m 153.66101,159.86441 c 3.55946,-4.02852 8.4593,-0.75125 11.79661,-3.25424"
     sodipodi:nodetypes="cc" />
  <path
     style="fill:#ff2a2a;fill-rule:nonzero;stroke:none;stroke-width:1px;stroke-linecap:butt;stroke-linejoin:miter;stroke-opacity:1"
     d="m 145.8983,145.49153 c -0.14296,-1.0313 -0.35675,-2.44144 -1.37012,-4.13108 -0.94488,-1.57544 -2.23572,-2.75975 -3.12171,-3.36389 -0.0335,-0.0229 -0.0661,-0.0446 -0.0977,-0.0652 -0.87267,-0.56984 -2.42301,-1.2482 -4.30464,-1.70855 -1.94938,-0.47694 -3.31685,-0.52496 -4.25842,-0.62958 0.84795,0.0942 2.35869,0.51009 4.03024,1.28452 1.81603,0.84137 2.87552,1.62804 3.77444,2.21502 0.0289,0.0189 0.0591,0.0384 0.0904,0.0585 0.84303,0.54198 2.16807,1.32975 3.338,2.61485 1.21326,1.33268 1.77908,2.71251 1.91949,3.7254 z"
     id="path1374"
     inkscape:connector-curvature="0"
     inkscape:path-effect="#path-effect1376"
     inkscape:original-d="m 145.8983,145.49153 c -0.81003,-5.84341 -7.80488,-9.30412 -13.15254,-9.89831" />
  <path
     style="fill:#ff2a2a;fill-rule:nonzero;stroke:none;stroke-width:1px;stroke-linecap:butt;stroke-linejoin:miter;stroke-opacity:1"
     d="m 140.81355,138.40678 c 0,0 -0.0912,0.49162 -0.0912,0.49162 1.3903,0.25779 3.08317,0.39821 5.30292,0.30716 2.11849,-0.0869 4.45472,-0.39639 6.75317,-0.5717 2.02583,-0.15452 3.88196,-0.17773 5.72889,0.10449 2.47718,0.37852 4.3864,1.23975 5.83161,2.14301 -1.44871,-0.90545 -3.3069,-1.83368 -5.79709,-2.3374 -1.8565,-0.37554 -3.73167,-0.45504 -5.7879,-0.4095 -2.32613,0.0515 -4.6703,0.23519 -6.74465,0.22749 -2.19,-0.008 -3.76301,-0.19802 -5.10463,-0.44679 0,0 -0.0912,0.49162 -0.0912,0.49162 z"
     id="path1378"
     inkscape:connector-curvature="0"
     inkscape:path-effect="#path-effect1380"
     inkscape:original-d="m 140.81355,138.40678 c 8.36345,1.55078 15.66857,-2.43596 23.52543,2.47458"
     sodipodi:nodetypes="cc" />
  <path
     style="fill:#ff2a2a;fill-rule:nonzero;stroke:none;stroke-width:1px;stroke-linecap:butt;stroke-linejoin:miter;stroke-opacity:1"
     d="m 154.46089,169.90076 c 1.18909,-0.13347 2.63614,-0.28444 4.59263,0.198 1.35052,0.33301 2.51699,0.88132 3.13345,1.25767 0.31317,0.19119 0.65447,0.41344 1.02751,0.67359 1.8991,1.32439 4.40388,3.76044 7.17722,5.71045 1.01874,0.76648 2.30947,1.49262 3.58374,2.19042 1.59984,0.87608 2.91825,1.62935 3.59226,2.05061 -0.80941,-0.50588 -1.87007,-0.97671 -3.72714,-1.77362 -1.32141,-0.56706 -2.72009,-1.17195 -3.8622,-1.84741 -2.95877,-1.8714 -5.53718,-4.18769 -7.38319,-5.42507 -0.36313,-0.24341 -0.68923,-0.45066 -0.98631,-0.63203 -0.59423,-0.36278 -1.55868,-1.03878 -2.7684,-1.58005 -1.6768,-0.75027 -3.2365,-0.95086 -4.37957,-0.82256 z"
     id="path1400"
     inkscape:connector-curvature="0"
     inkscape:path-effect="#path-effect1402"
     inkscape:original-d="m 154.46089,169.90076 c 6.43912,-0.72276 10.83666,4.89139 15.72414,8.14971 2.15153,1.43436 5.31551,2.63906 7.38267,3.93103" />
</svg>
