<svg xmlns="http://www.w3.org/2000/svg" cursor="default" viewBox="0 0 256 256">
    <g stroke="#000">
        <path fill="#f55" fill-rule="evenodd" d="M240.669 219.26c-2.168 6.807-4.92 12.112-15.368 13.074l-15.931-59.096 16.117-7.225c6.726 16.496 13.692 33.42 15.182 53.247zM74.138 171.015c49.63-30.35 18.683-94.6 25.38-98.925l44.46 14.45-20.563 70.766c-16.375 7.967-32.46 35.384-49.277 13.709z"/>
        <path fill="#ff8080" fill-rule="evenodd" d="M83.03 188.614c21.888-2.157 32.784-17.618 45.757-30.567 13.604-13.465 11.373-27.993-1.002-37.914 1.71 6.387 1.808 14.385-1.896 26.185-50.285 80.567-114.02-46.786-48.787-83.861l5.558-34.828c-100.394 24.627-48.022 161.743.37 160.985z"/>
        <path fill="#faa" fill-rule="evenodd" d="M45.795 30.593C-3.008 42.81-5.795 199.254 83.867 188.415 48.308 193.468-6.34 53.057 83.03 27.073z"/>
        <path fill="#faa" fill-rule="evenodd" d="M99.116 18.896c-.867-.002-1.605.01-2.192.026-27.845.79-35.506 41.31-38.717 63.912 10.786 30.806 23.837 55.273 37.05 79.288 14.748-2.026 27.36 4.89 36.68 25.565l54.276-95.59-36.494-33.714c4.363-36.34-37.597-39.459-50.603-39.487zm1.17 81.896c.82.058 1.852.596 3.125 1.805l21.86 20.749c3.944 3.743 6.106 17.969.37 12.597l-26.304-24.64c-2.171-2.034-2.607-10.766.948-10.511zm-1.115 24.141c.82.059 1.852.597 3.126 1.806l21.86 20.749c3.943 3.743 6.105 17.968.37 12.596l-26.305-24.637c-2.17-2.033-2.607-10.768.949-10.514z"/>
        <path fill="#ffb380" fill-rule="evenodd" d="M157.708 76.185c11.336 1.424 24.343-10.518 34.009 4.273-.222 1.53-2.25 5.768-4.161 8.348l-35.068-4.261c-1.579-3.04 3.018-6.142 5.22-8.36z"/>
        <path fill="#ffd5d5" fill-rule="evenodd" d="M129.898 186.206c5.215 12.153 4.804 19.924 19.08 33.16 7.27 6.739 40.957 27.446 62.06 24.638 11.47-1.526 16.093-3.55 16.91-12.541 1.216-13.404-4.1-38.546-13.762-53.964-.954-2.519 2.936-6.803 8.151-6.67 11.803 12.979 13.983 31.37 18.34 48.537 3.167-58.83-51.913-137.729-65.393-137.458-31.747.638-51.813 46.83-45.386 104.298z"/>
        <path fill="none" d="M95.627 161.917c-6.143-28.74-30.054-127.182 53.908-103.906"/>
        <path fill="#f95" fill-rule="evenodd" d="M152.095 84.033c-4.233-6.425-10.161-35.163-10.526-38.99 1.82-2.409 1.805-6.004 6.382-7.16 11.227 17.74 12.71 23.97 11.7 37.68z"/>
        <path fill="#ffe680" fill-rule="evenodd" d="M146.385 48.192c2.31-2.161 1.045-4.322.556-6.484-12.394-4.282-20.058-3.044-29.825-4.26l.37 4.816c9.634 1.873 19.266 3.17 28.9 5.928z"/>
        <path fill="#f55" fill-rule="evenodd" d="M108.543 32.307c6.951-.853 8.27 25.263.433 23.65-6.332-7.907-3.582-21.082-.433-23.65z"/>
        <path fill="#ffd5d5" fill-rule="evenodd" d="M108.41 33.557c26.18-1.758 28.692 21.362-.371 20.749-4.77-7.863-2.779-18.181.37-20.749z"/>
        <path fill="#ffe680" fill-rule="evenodd" d="M154.166 69.867c-8.47-1.507-37.046-2.288-34.827-22.23-.267-6.538-7.616-5.447-7.966-.927-1.438 21.233 18.964 30.621 41.126 30.567 4.95-.872 1.667-7.41 1.667-7.41z"/>
        <path fill="#fca" fill-rule="evenodd" d="M191.957 80.056c.926-10.498-1.361-23.116-10.838-37.607-12.057-3.789-25.902-5.66-33.066-4.538 1.79 4.262 9.971 30.696 9.633 39.551z"/>
    </g>
</svg>
