<svg xmlns="http://www.w3.org/2000/svg" xmlns:xlink="http://www.w3.org/1999/xlink" cursor="default" viewBox="0 0 256 256">
    <defs>
        <linearGradient id="innoGrad1">
            <stop offset="0" stop-color="#f55"/>
            <stop offset="1" stop-color="#ff8080"/>
        </linearGradient>
        <linearGradient id="innoGrad2">
            <stop offset="0" stop-color="#faa"/>
            <stop offset="1" stop-color="#ffd5d5"/>
        </linearGradient>
        <linearGradient id="linearGradient1065" x1="-39.92" x2="-59.927" y1="218.789" y2="195.956" gradientUnits="userSpaceOnUse" xlink:href="#innoGrad2"/>
        <linearGradient id="linearGradient1099" x1="43.161" x2="23.356" y1="193.649" y2="146.953" gradientUnits="userSpaceOnUse" xlink:href="#innoGrad1"/>
        <linearGradient id="linearGradient5608" x1="123.778" x2="128.434" y1="876.471" y2="879.29" gradientTransform="matrix(-.94013 0 0 .98943 189.323 -822.4)" gradientUnits="userSpaceOnUse" xlink:href="#innoGrad5"/>
        <linearGradient id="innoGrad5">
            <stop offset="0" stop-color="#fca"/>
            <stop offset="1" stop-color="#f95"/>
        </linearGradient>
    </defs>
    <path fill="#fca" fill-rule="evenodd" stroke="#000" stroke-width=".81" d="M17.423 44.664c.498-5.53 18.493-3.448 53.615-3.831-14.31 19.21-48.788 14.475-53.615 3.831zM71.038 40.833l.59 3.337c36.346.545 72.094-6.912 83.052 20.004l11.064 4.125c-11.59-34.003-69.165-27.433-94.706-27.466z"/>
    <path fill="#f95" fill-rule="evenodd" stroke="#000" stroke-width=".81" d="M150.595 66.184c-4.971-3.445-6.982 11.971-8.466 17.317l9.902-14.367zM29.776 57.393c-13.003 46.09 11.438 124.37 51.98 143.46l3.42-1.486C36.844 173.502 24.357 111.19 33.471 54.623z"/>
    <path fill="#f95" fill-rule="evenodd" stroke="#000" stroke-width=".81" d="M127.16 57.134c11.308 18.684 14.705 102.267-40.9 142.98-1.803.068-5.748 1.235-4.403-.311 55.735-34.692 53.18-112.227 41.129-144.646z"/>
    <path fill="#f95" fill-rule="evenodd" stroke="#000" stroke-width=".81" d="M70.99 41.486l-.73 14.288c36.346.545 78.122 1.132 89.08 28.049l5.161-16.146c-13.298-32.216-67.97-26.158-93.51-26.19z"/>
    <path fill="#f95" fill-rule="evenodd" stroke="#000" stroke-width=".81" d="M18.09 44.11c3.737-2.95 17.778-2.24 52.9-2.624l-.73 14.288C33.966 55.299 6.38 64.377 6.564 70.643z"/>
    <path fill="none" stroke="#000" stroke-dasharray=".972,.324" stroke-width=".324" d="M155.113 74.383C135.25 52.23 97.982 55.889 70.003 54.23c-18.016.52-45.312.222-56.351 3.128"/>
    <path fill="none" stroke="#000" stroke-dasharray=".972,.324" stroke-width=".324" d="M159.779 61.966c-19.49-25.12-63.725-18.87-88.633-19-18.016.52-41.79-.93-52.829 1.977"/>
    <path fill="#ff7f2a" fill-rule="evenodd" stroke="#000" stroke-width=".374" d="M76.257 49.382c.108-.624-.102-1.14-.912-1.09l-10.316 4.181c-1.193.645-.436 1.548.661 1.169z"/>
    <ellipse cx="-65.645" cy="48.802" fill="#4d4d4d" stroke="#000" stroke-linecap="round" stroke-linejoin="bevel" stroke-width=".392" rx=".917" ry=".978" transform="scale(-1 1)"/>
    <path fill="#ff7f2a" fill-rule="evenodd" stroke="#000" stroke-width=".374" d="M76.826 53.663c.108-.624.286-1.577-.523-1.527l-6.33 1.683c-1.194.646-.436 1.548.66 1.169z"/>
    <ellipse cx="-75.741" cy="44.316" fill="#4d4d4d" stroke="#000" stroke-linecap="round" stroke-linejoin="bevel" stroke-width=".378" rx=".848" ry=".985" transform="scale(-1 1)"/>
    <ellipse cx="-65.913" cy="44.286" fill="#4d4d4d" stroke="#000" stroke-linecap="round" stroke-linejoin="bevel" stroke-width=".378" rx=".848" ry=".985" transform="scale(-1 1)"/>
    <path fill="#fca" fill-rule="evenodd" stroke="#000" stroke-width=".374" d="M75.776 44.931c.949.01.76-1.359-.05-1.308l-9.856-.099c-1.193.646-.436 1.548.662 1.169z"/>
    <path fill="url(#linearGradient5608)" fill-rule="evenodd" stroke="#000" stroke-width=".374" d="M76.385 44.727c.107-.624-.103-1.14-.912-1.09l-10.132 4.31c-1.193.645-.317 2.073.78 1.694z"/>
    <ellipse cx="-75.587" cy="48.978" fill="#4d4d4d" stroke="#000" stroke-linecap="round" stroke-linejoin="bevel" stroke-width=".378" rx=".848" ry=".985" transform="scale(-1 1)"/>
    <path fill="#ffb380" fill-rule="evenodd" stroke="#000" stroke-width=".374" d="M65.836 44.999c-1.005-.736-.194-1.778.692-1.344l9.242 4.505c1.193.646.418 1.921-.679 1.542z"/>
    <ellipse cx="-65.256" cy="53.12" fill="#4d4d4d" stroke="#000" stroke-linecap="round" stroke-linejoin="bevel" stroke-width=".394" rx=".892" ry="1.017" transform="scale(-1 1)"/>
    <path fill="#ffb380" fill-rule="evenodd" stroke="#000" stroke-width=".394" d="M64.68 53.715c-.098-.763.093-1.242.83-1.18l4.462 1.284c1.086.79.397 1.893-.602 1.429z"/>
    <ellipse cx="-76.24" cy="52.995" fill="#4d4d4d" stroke="#000" stroke-linecap="round" stroke-linejoin="bevel" stroke-width=".378" rx=".848" ry=".985" transform="scale(-1 1)"/>
    <path fill="#ffb380" fill-rule="evenodd" stroke="#000" stroke-width=".371" d="M65.369 49.463c-.878-.507-.314-1.625.423-1.57l10.677 4.375c1.086.7.396 1.677-.603 1.266z"/>
    <path fill="#ff7f2a" fill-rule="evenodd" stroke="#000" stroke-width=".81" d="M142.096 90.962c-17.549 3.303-36.481 1.902-55.464.329l-13.51 19.33s-7.485 43.331 1.318 62.054c1.942 4.13 11.064 7.12 18.832 11.104 5.866 3.01 10.394 7.671 13.678 7.677 5.29.01 10.54-4.073 15.422-7.064 4.207-2.578 8.142-3.863 11.597-6.664 13.1-10.624 22.57-27.253 20.758-65.46z"/>
    <path fill="none" stroke="#000" stroke-dasharray="1.215,.405" stroke-width=".405" d="M138.423 97.206c-15.367 2.892-31.946 1.665-48.57.288l-11.83 16.927s-6.554 37.945 1.155 54.34c1.7 3.618 9.688 6.236 16.49 9.725 5.138 2.635 9.102 6.717 11.978 6.722 4.632.01 9.23-3.566 13.505-6.186 3.684-2.257 7.13-3.383 10.155-5.836 11.473-9.303 19.765-23.865 18.178-57.322z"/>
    <path fill="none" stroke="#000" stroke-dasharray="1.215,.405" stroke-width=".405" d="M140.619 93.473c-16.672 3.138-34.658 1.807-52.691.313l-12.834 18.363s-7.111 41.165 1.252 58.952c1.845 3.924 10.51 6.764 17.89 10.549 5.573 2.858 9.874 7.287 12.994 7.293 5.025.01 10.012-3.87 14.651-6.711 3.997-2.449 7.735-3.67 11.017-6.331 12.446-10.093 21.441-25.89 19.72-62.186z"/>
    <path fill="#ff8080" fill-rule="evenodd" stroke="#000" stroke-width=".81" d="M128.07 122.528c-4.89.596-9.167-8.595-2.129-9.346 2.302.068 11.38 1.037 13.894 11.297z"/>
    <path fill="#f95" fill-rule="evenodd" stroke="#000" stroke-width=".81" d="M142.8 99.85l-5.646.266c3.314 18.327-9.57 20.332-5.933 24.802 11.771 4.166 9.23-18.242 11.58-25.068z"/>
    <path fill="#ff7f2a" fill-rule="evenodd" stroke="#000" stroke-width=".81" d="M144.12 100.16l-6.073-.044c4.207 17.939-9.143 20.643-5.506 25.113 11.772 4.166 9.23-18.242 11.58-25.069zM151.838 66.572c-4.972-3.445-6.671 11.156-9.05 15.648l10.485-12.698z"/>
    <path fill="#ffe680" fill-rule="evenodd" stroke="#000" stroke-width=".559" d="M166.831 79.246c-.939 3.595-2.835 6.805-5.14 8.921-1.395 1.282-3.02.052-3.977-1.904l-8.702-17.787c-.838-1.713-1.129-4.175.708-5.745 6.212-5.31 12.894-1.506 15.812 3.845 2.196 4.029 2.363 8.596 1.3 12.67zm-1.636-.378c1.015-3.398 1.02-7.276-.725-10.646-2.188-4.227-8.138-8.33-12.817-3.916-1.392 1.313-1.238 3.24-.594 4.583l7.25 15.102c.737 1.533 1.95 2.506 3.03 1.47 1.666-1.598 3.066-3.95 3.856-6.593z"/>
    <path fill="#ffe680" fill-rule="evenodd" stroke="#000" stroke-width=".55" d="M163.912 82.698c-.912 3.582-2.755 6.782-4.994 8.89-1.357 1.277-2.936.052-3.866-1.897l-8.455-17.724c-.815-1.707-1.097-4.16.687-5.725 6.037-5.29 12.53-1.501 15.365 3.831 2.135 4.015 2.297 8.566 1.263 12.625zm-1.59-.377c.986-3.386.99-7.25-.704-10.607-2.127-4.213-7.909-8.301-12.456-3.903-1.352 1.308-1.202 3.23-.576 4.567l7.046 15.049c.715 1.527 1.894 2.497 2.944 1.464 1.618-1.592 2.979-3.936 3.746-6.57z"/>
    <path fill="#fca" fill-rule="evenodd" stroke="#000" stroke-width=".81" d="M132.54 125.229c2.398-1.239 4.48-2.254 5.822-8.567 2.98-14.02.055-13.458-.55-20.429-.95-10.972 14.514-28.132 13.318-29.192 2.585-2.617 7.26 11.408 5.762 13.971-13.243 15.468.06 40.041-11.287 51.792z"/>
    <path fill="#ffb380" fill-rule="evenodd" stroke="#000" stroke-width=".747" d="M136.104 124.055c2.212-1.143 2.376-2.518 3.614-8.344 2.75-12.937.051-12.418-.506-18.85-.878-10.125 14.334-28.596 13.23-29.575 2.385-2.414 8.623 20.116 7.241 22.48-5.198 6.176-5.661 14.397-4.256 22.702 1.79 10.574 3.665 20.596-2.432 26.451z"/>
    <path fill="none" stroke="#000" stroke-dasharray="1.215,.405" stroke-width=".405" d="M153.273 69.522c-13.586 26.591-13.932 19.386-11.001 34.742 1.255 6.579-2.052 23.345-6.967 23.283M154.727 132.038c1.897-11.244-2.038-19.589-1.648-28.995.414-9.981 6.26-16.475 6.26-16.475"/>
    <path fill="url(#linearGradient1099)" fill-rule="evenodd" stroke="#000" d="M71.52 124.415c-23.652 3.852-45.882 11.595-67.747 20.412-3.178 1.281-7.044 1.326-10.187 2.718-2.635 1.166-7.962 5.24-10.554 6.53-13.928 6.939-23.812 14.159-36.02 26.109 14.32 25.356 13.592 28.977 27.448 40.653 2.978-1.15 6.512-1.678 9.122-3.417 23.953-15.955 48.768-32.399 74.842-39.73-2.035 1.351-8.366 2.81-8.366 2.81 4.784 16.81 14.33 26.648 27.35 26.338 20.067-.478 25.983-36.214 20.34-63.472-14.87-15.528-10.765-17.318-26.229-18.951z" transform="matrix(-.81 0 0 .81 186 21.752)"/>
    <path fill="url(#linearGradient1065)" fill-rule="evenodd" stroke="#000" d="M-52.988 180.184c-5.974.59-7.654 3.02-8.629 5.752-2.125 2.822-4.494 4.79-5.944 9.972-15.006 8.834-20.166 38.405 24.545 35.858 1.787-.101 2.72-.747 3.812-2.334 4.576-.949 7.091-2.29 9.171-5.378 1.024-1.521 2.553-2.442 4.285-3.135 2.57-15.382-6.503-43.145-27.24-40.735z" transform="matrix(-.81 0 0 .81 186 21.752)"/>
    <path d="M244.43 203.411c.264-.23.55-.514.778-.788.175-.21.308-.404.38-.566a.607.607 0 0 0 .054-.185c.004-.047-.006-.078-.022-.083-.017-.006-.027.02-.024.05.003.027.014.048.008.062-.005.014-.024.024-.056.038l-.125.053a7.74 7.74 0 0 0-.39.179c-.374.183-.794.42-1.071.557l-.046.022c-.26.125-.696.3-1.099.483-.166.075-.31.144-.44.21-.12.06-.213.113-.265.135-.026.01-.04.012-.052-.002-.013-.014-.03-.049-.055-.063-.013-.008-.025-.01-.031-.005-.007.004-.008.013-.003.023.012.022.048.047.102.066.12.045.31.062.538.054.298-.011.643-.064.941-.13-.295.066-.637.149-.93.211a4.664 4.664 0 0 1-.576.095.769.769 0 0 1-.204-.008.353.353 0 0 1-.098-.035.301.301 0 0 1-.092-.076.358.358 0 0 1-.074-.24.637.637 0 0 1 .052-.22c.055-.133.15-.268.261-.397.12-.137.265-.275.42-.405a5.8 5.8 0 0 1 1.156-.76 5.575 5.575 0 0 1 1.299-.392 2.84 2.84 0 0 1 .557-.043c.083.004.165.012.242.03a.807.807 0 0 1 .223.08.47.47 0 0 1 .186.18c.046.084.053.17.039.246a.568.568 0 0 1-.087.2c-.04.063-.093.128-.151.194a7.132 7.132 0 0 1-.51.497c-.265.24-.574.504-.834.733zM240.726 180.437l-.165.37c-.505-.224-1.27-.669-2.004-.912a5.823 5.823 0 0 0-2.231-.254c.656-.055 1.447-.2 2.307-.144.833.056 1.69.318 2.257.57l-.164.37zM235.91 172.36l-.225.336c-.352-.236-.818-.815-1.332-1.266a2.807 2.807 0 0 0-.763-.489 3.002 3.002 0 0 0-1.147-.231c.34 0 .747-.004 1.193.078.333.061.634.16.936.302.446.208 1.479.876 1.564.934l-.226.336zM217.756 207.592l-.368.169c-.135-.294-.335-.964-.477-1.52-.144-.567-.21-1.011-.267-1.182.058.175.297.519.636 1.015.332.486.7 1.033.844 1.349l-.368.169z"/>
    <path fill="#ffe680" fill-rule="evenodd" stroke="#000" stroke-width=".771" d="M48.767 51.03c4.606-.002 9.151 1.566 12.577 4.165 2.075 1.574 1.294 4.462-.613 6.64l-17.34 19.813c-1.67 1.908-4.443 3.294-7.037 1.178-8.772-7.157-7.033-18.548-1.938-24.953 3.835-4.822 9.132-6.841 14.351-6.843zm.224 2.574c-4.406-.188-8.962 1.31-12.208 5.205-4.073 4.887-6.463 15.308.632 20.538 2.11 1.556 4.311.58 5.625-.897l14.78-16.617c1.5-1.687 2.147-3.865.488-5.066-2.555-1.85-5.891-3.017-9.317-3.163z"/>
    <path fill="#f95" fill-rule="evenodd" stroke="#000" stroke-width=".405" d="M70.002 54.23c.2-.964.795-1.467.575-.087l-1.946 12.16c-.26 1.625-1.557 2.15-1.053-.298zM70.568 55.355c-.06-1.92.376-2.207.533-.233l.945 11.95c.13 1.64-1.025 2.647-1.103.148z"/>
    <path fill="#ffb380" fill-rule="evenodd" stroke="#000" stroke-width=".306" d="M70.537 53.82c.331-.302.716-.356 1.05.06 7.705 9.214-2.036 17.975-1.13.322.125-.579-.252-.08.08-.382zm.356.713c-.41 13.913 6.24 8.879.368.043-.567-.392 0 0-.368-.043z"/>
    <path fill="#ffb380" fill-rule="evenodd" stroke="#000" stroke-width=".297" d="M71.228 54.174c.264.46.444 1.124.403 1.903-.746 17.868-8.096 5.331-1.314-2.593.298-.03.647.23.91.69zm-.771.028c-4.693 5.522-.451 18.842.436.33-.145-.621-.232-.526-.436-.33z"/>
    <path fill="#ffe680" fill-rule="evenodd" stroke="#000" stroke-width=".81" d="M53.1 55.388c4.96-.002 9.854 1.606 13.543 4.271 2.234 1.614 1.394 4.576-.66 6.81l-18.67 20.319c-1.8 1.957-4.786 3.379-7.579 1.208-9.445-7.34-7.572-19.021-2.086-25.59 4.13-4.945 9.833-7.016 15.453-7.018zm.241 2.64c-4.743-.193-9.65 1.343-13.145 5.338-4.385 5.012-6.959 15.7.68 21.063 2.273 1.596 4.643.594 6.058-.92l15.914-17.042c1.615-1.73 2.313-3.964.527-5.196-2.753-1.898-6.344-3.093-10.034-3.243z"/>
    <path fill="#ffb380" fill-rule="evenodd" stroke="#000" stroke-width=".81" d="M86.249 119.131l-3.94 2.163c17.195 7.724 28.028 25.637 31.216 24.534 1.823-11.286-10.473-19.485-27.276-26.697z"/>
    <path fill="#ff7f2a" fill-rule="evenodd" stroke="#000" stroke-width=".81" d="M87.18 118.2l-3.55 2.395c18.933 9.193 28.368 25.605 30.826 24.301 1.823-11.286-10.472-19.484-27.275-26.697z"/>
    <path fill="#f95" fill-rule="evenodd" stroke="#000" stroke-width=".81" d="M133.075 170.186c-1.583 1.879 5.084 6.929-7.799 13.887 2.555 3.681 12.429-8.194 14.487-14.696.597-.91-6.124-.38-6.688.81z"/>
    <path fill="#ffe680" fill-rule="evenodd" stroke="#000" stroke-width=".81" d="M144.677 167.678c-31.408 19.634-44.167-42.799-10.33-44.062 1.3.19 2.956-2.285 3.294-4.306-44.716-3.232-28.938 79.28 11.555 49.852z"/>
    <path fill="#faa" fill-rule="evenodd" stroke="#000" stroke-width=".81" d="M37.318 77.452c-10.046-6.308-32.93-14.475-30.753-6.81 10.368-1.46 20.516 4.082 30.753 6.81z"/>
    <path fill="#f95" fill-rule="evenodd" stroke="#000" stroke-width=".81" d="M46.161 72.985c14.771 17.443 73.657 32.802 73.407 53.282-6.545 6.593-.636 10.795-5.112 18.63.45-9.022-25.543-19.37-41.334-32.409-12.469-10.295-35.416-32.807-35.416-32.807z"/>
    <path fill="#ffb380" fill-rule="evenodd" stroke="#000" stroke-width=".81" d="M51.596 59c-8.37 4.146-10.978 11.491-14.278 18.452-10.47-2.013-20.118-10.99-30.753-6.81-2.92-3.15 9.863-26.743 11.752-26.908 6.068-.53 25.622.191 33.279 15.267z"/>
    <path fill="#faa" fill-rule="evenodd" stroke="#000" stroke-width=".81" d="M155.823 62.477c-.056.929-2 3.188-3.985 4.095 3.508 3.226 8.576-4.604 3.985-4.095z"/>
    <path fill="#ffb380" fill-rule="evenodd" stroke="#000" stroke-width=".81" d="M159.34 83.823c1.053 3.794 5.141-1.01 6.04-6.92 1.737-11.417-6.883-14.595-9.557-14.426 2.626.252-2.235 5.89-3.985 4.095 3.654 5.11 5.843 11.275 7.501 17.25zM142.556 168.852c-1.066-1.902-8.963-.152-9.481 1.334 8.043 11.15-12.197 17.489-29.067 20.585-13.015 2.389-17.805 8.08-22.151 9.032-.452.323-1.757 2.164 4.404.31 2.294-.35 13.372-6.832 20.775-8.253 12.915-2.479 36.145-6.66 35.52-23.008z"/>
    <path fill="#ffb380" fill-rule="evenodd" stroke="#000" stroke-width=".778" d="M57.966 59.55c6.189 2.545 15.794 17.675 31.008 30.429 13.982 11.721 44.099 25.794 41.855 33.182-6.288 6.332-11.428 13.042-15.727 20.568.432-8.665-24.848-19.073-40.016-31.597-11.978-9.89-36.955-33.17-36.955-33.17z"/>
    <path fill="none" stroke="#000" stroke-dasharray="1.215,.405" stroke-width=".405" d="M115.956 141.593c2.066-5.71-16.843-13.524-39.407-30.414-12.63-9.454-25.115-21.542-37.254-33.287M129.406 123.933c2.065-5.71-16.007-13.677-39.408-30.415-15.186-10.862-22.396-26.201-33.37-32.51M49.564 59.77c-4.009-9.4-18.575-15.667-32.73-14.443M6.18 69.38c6.9-5.231 19.68 1.79 31.632 7.084M159.504 83.218c2.019 2.406 3.825-4.507 5.711-7.907M158.516 62.955c-.924 2.323-3.533 6.75-5.766 4.887"/>
    <path fill="#fff6d5" d="M162.373 63.797c.82.729 2.34 3.125 2.844 4.448l.188.5c.38.996.83 2.429 1.01 4.35a19.25 19.25 0 0 1-.167 4.801c-.306 1.913-.817 3.288-1.15 4.004.335-.72.918-2.053 1.332-3.97.33-1.524.5-3.185.425-4.864-.087-1.97-.492-3.501-.888-4.537a7.057 7.057 0 0 0-.222-.51c-.637-1.335-2.553-3.493-3.372-4.222zM57.898 56.915c.97.21 2.524.666 4.002 1.365 1.18.56 2.134 1.189 2.796 1.853.358.36.596.696.754.996.182.345.251.632.29.836.007.034.018.072.03.116.07.24.19.585.147 1.09-.047.547-.282 1.097-.527 1.405.262-.33.649-.684.982-1.252.296-.504.418-.991.405-1.379a1.147 1.147 0 0 0-.018-.178 2.961 2.961 0 0 0-.511-1.138 4.914 4.914 0 0 0-1.062-1.062c-.83-.627-1.925-1.147-3.168-1.578-1.583-.548-3.136-.86-4.12-1.074zM50.847 51.932c.99.182 3.538 1.19 4.921 1.837.245.114.452.21.616.282.841.366 3.427 1.255 4.226 1.61-.799-.355-3.15-1.76-4-2.13a13.478 13.478 0 0 0-.636-.253c-1.447-.54-4.137-1.164-5.127-1.346zM131.738 120.236c.459.001 1.837.408 2.298.404.504-.005 1.997-.462 2.496-.5-.5.038-2.007-.31-2.504-.304-.456.005-1.831.402-2.29.4z"/>
    <path fill="none" stroke="#000" stroke-width=".5" d="M204.126 199.623c-1.275-14.655 8.104-35.624 22.148-33.94"/>
    <path fill="#ff2a2a" d="M197.966 145.898l-.31-.391c-.886.702-1.814 1.541-2.539 2.45-.556.695-.959 1.387-1.21 2.104a6.165 6.165 0 0 0-.334 1.865c-.021.584.015 1.156.025 1.75a9.563 9.563 0 0 1-.125 1.882 8.435 8.435 0 0 1-.764 2.274c-1.093 2.221-3.201 4.493-5.455 6.507 2.258-2.018 4.41-4.215 5.63-6.416a9.473 9.473 0 0 0 .926-2.293c.175-.693.245-1.327.288-1.94.044-.627.058-1.154.128-1.712a5.78 5.78 0 0 1 .429-1.626c.26-.6.646-1.188 1.178-1.802.7-.809 1.582-1.576 2.444-2.26l-.31-.392zM182.847 139.322l-.96-.423c-.604 1.373-1.51 2.978-3.259 4.168-1.338.91-3.055 1.51-5.309 1.807-2.22.293-4.747.263-7.318.123-2.86-.156-7.204-.561-8.848-.726 2.16.216 5.444.71 8.81 1.138 2.543.324 5.12.584 7.44.51 2.358-.075 4.375-.49 6.09-1.407 2.306-1.233 3.6-3.145 4.314-4.767l-.96-.423zM192 182.915c-.131-.209-.196-.493-.139-.872.044-.284.144-.573.271-.914.112-.297.245-.638.316-.97.037-.172.06-.35.056-.532a1.668 1.668 0 0 0-.11-.57 5.233 5.233 0 0 0-1.418-1.837c-.615-.509-1.306-.858-1.939-1.12-.7-.29-1.489-.537-2.029-.701-.6-.183-1.533-.407-2.675-.793-1.56-.527-3.418-1.355-5.256-3.089-2.349-2.215-3.951-5.26-4.975-7.992 1.03 2.746 2.434 5.827 4.681 8.282 1.763 1.926 3.606 2.981 5.207 3.682a26.33 26.33 0 0 0 2.69.986c.532.162 1.319.392 1.958.633.591.222 1.195.498 1.722.891.463.345.897.8 1.246 1.452.059.076.108.166.145.277.035.109.057.232.067.375.019.287-.016.605-.052.94-.04.371-.07.686-.046.996.031.41.15.668.28.876z"/>
    <path fill="#ff2a2a" d="M186.983 175.864l.5.01c.009-.49.08-.951.281-1.315.149-.269.374-.497.736-.67.33-.16.75-.262 1.274-.32a15.728 15.728 0 0 1 1.638-.068c1.256-.004 2.429.02 3.493-.23.59-.139 1.072-.347 1.468-.628a3.304 3.304 0 0 0 1.05-1.253 2.88 2.88 0 0 1-1.089 1.194c-.404.246-.888.408-1.466.493-1.042.152-2.182.033-3.435-.075a17.611 17.611 0 0 0-1.698-.087c-.562.007-1.08.069-1.537.23-.523.185-.932.49-1.222.92-.372.553-.483 1.219-.493 1.79l.5.01zM160.407 164.61c-1.719-1.085-3.525-2.604-4.999-3.955-.576-.528-.982-.91-1.277-1.146a23.888 23.888 0 0 0-2.055-1.465c-1.045-.658-2.178-1.225-3.754-1.742-1.969-.647-4.214-1.08-6.085-1.455 1.837.368 4.124.961 5.97 1.758a14.82 14.82 0 0 1 3.438 2.053c.761.596 1.427 1.183 1.911 1.57.27.217.778.57 1.41.992 1.47.978 4.126 2.56 5.44 3.39z"/>
    <path fill="#ff2a2a" d="M153.661 159.864l.375.331c.612-.693 1.405-1.382 2.614-1.802.914-.317 1.882-.423 2.992-.478 1.133-.055 2.087-.054 3.076-.209 1.305-.205 2.107-.621 2.74-1.096-.63.473-1.484.822-2.762.9-.974.06-1.91-.037-3.053-.095-1.11-.056-2.174-.053-3.22.209a6.082 6.082 0 0 0-3.137 1.91l.375.33zM145.898 145.492c-.143-1.032-.356-2.442-1.37-4.132-.945-1.575-2.236-2.76-3.122-3.363a5.356 5.356 0 0 0-.097-.066c-.873-.57-2.423-1.248-4.305-1.708-1.95-.477-3.317-.525-4.258-.63.848.094 2.358.51 4.03 1.285 1.816.841 2.875 1.628 3.774 2.215l.09.058c.844.542 2.169 1.33 3.339 2.615 1.213 1.333 1.779 2.713 1.92 3.726z"/>
    <path fill="#ff2a2a" d="M140.814 138.407l-.092.491c1.39.258 3.084.399 5.303.308 2.119-.087 4.455-.397 6.753-.572 2.026-.155 3.882-.178 5.73.104 2.477.379 4.386 1.24 5.83 2.143-1.448-.905-3.306-1.833-5.796-2.337-1.857-.376-3.732-.455-5.788-.41-2.326.052-4.67.236-6.745.228-2.19-.008-3.763-.198-5.104-.447l-.092.492zM154.46 169.9c1.19-.133 2.637-.284 4.594.199 1.35.333 2.517.881 3.133 1.257.313.192.654.414 1.027.674 1.9 1.324 4.404 3.76 7.178 5.71 1.018.767 2.31 1.493 3.583 2.19 1.6.877 2.919 1.63 3.593 2.051-.81-.505-1.87-.976-3.727-1.773-1.322-.567-2.72-1.172-3.863-1.848-2.958-1.87-5.537-4.187-7.383-5.425a27.47 27.47 0 0 0-.986-.632c-.594-.362-1.559-1.038-2.769-1.58-1.676-.75-3.236-.95-4.38-.822z"/>
</svg>
