<?xml version="1.0" encoding="UTF-8" standalone="no"?>
<!-- Created with Inkscape (http://www.inkscape.org/) -->

<svg
   xmlns:dc="http://purl.org/dc/elements/1.1/"
   xmlns:cc="http://creativecommons.org/ns#"
   xmlns:rdf="http://www.w3.org/1999/02/22-rdf-syntax-ns#"
   xmlns:svg="http://www.w3.org/2000/svg"
   xmlns="http://www.w3.org/2000/svg"
   xmlns:sodipodi="http://sodipodi.sourceforge.net/DTD/sodipodi-0.dtd"
   xmlns:inkscape="http://www.inkscape.org/namespaces/inkscape"
   viewBox="0 0 256 256"
   id="svg4166"
   version="1.1"
   inkscape:version="0.91 r13725"
   sodipodi:docname="bdsm_groin_chastity_belt_full.svg">
  <style
     id="style3">
    svg { cursor: default; }
  </style>
  <defs
     id="defs4168">
    <inkscape:path-effect
       effect="powerstroke"
       id="path-effect4564"
       is_visible="true"
       offset_points="0.41496376,0.44569147"
       sort_points="true"
       interpolator_type="Linear"
       interpolator_beta="0.2"
       start_linecap_type="zerowidth"
       linejoin_type="round"
       miter_limit="4"
       end_linecap_type="zerowidth"
       cusp_linecap_type="round" />
    <inkscape:path-effect
       effect="powerstroke"
       id="path-effect4560"
       is_visible="true"
       offset_points="0.098545389,0.73224382"
       sort_points="true"
       interpolator_type="Linear"
       interpolator_beta="0.2"
       start_linecap_type="zerowidth"
       linejoin_type="round"
       miter_limit="4"
       end_linecap_type="zerowidth"
       cusp_linecap_type="round" />
    <inkscape:path-effect
       effect="powerstroke"
       id="path-effect4556"
       is_visible="true"
       offset_points="0.23652396,0.55306834"
       sort_points="true"
       interpolator_type="Linear"
       interpolator_beta="0.2"
       start_linecap_type="zerowidth"
       linejoin_type="round"
       miter_limit="4"
       end_linecap_type="zerowidth"
       cusp_linecap_type="round" />
    <inkscape:path-effect
       effect="powerstroke"
       id="path-effect4202"
       is_visible="true"
       offset_points="0,0.5"
       sort_points="true"
       interpolator_type="Linear"
       interpolator_beta="0.2"
       start_linecap_type="zerowidth"
       linejoin_type="round"
       miter_limit="4"
       end_linecap_type="zerowidth"
       cusp_linecap_type="round" />
  </defs>
  <sodipodi:namedview
     id="base"
     pagecolor="#ffffff"
     bordercolor="#666666"
     borderopacity="1.0"
     inkscape:pageopacity="0.0"
     inkscape:pageshadow="2"
     inkscape:zoom="3.959798"
     inkscape:cx="132.48834"
     inkscape:cy="130.77432"
     inkscape:document-units="px"
     inkscape:current-layer="layer1"
     showgrid="false"
     units="px"
     inkscape:window-width="2560"
     inkscape:window-height="1388"
     inkscape:window-x="-8"
     inkscape:window-y="-8"
     inkscape:window-maximized="1" />
  <metadata
     id="metadata4171">
    <rdf:RDF>
      <cc:Work
         rdf:about="">
        <dc:format>image/svg+xml</dc:format>
        <dc:type
           rdf:resource="http://purl.org/dc/dcmitype/StillImage" />
        <dc:title></dc:title>
      </cc:Work>
    </rdf:RDF>
  </metadata>
  <g
     inkscape:label="Layer 1"
     inkscape:groupmode="layer"
     id="layer1"
     transform="translate(0,-796.36216)"
     style="display:inline">
    <path
       inkscape:connector-curvature="0"
       style="fill:#ff2a2a;fill-rule:evenodd;stroke:#000000;stroke-width:1px;stroke-linecap:butt;stroke-linejoin:miter;stroke-opacity:1"
       d="m 119.61422,851.3696 c -2.752,83.01783 0.88531,132.53432 17.60765,157.9764 l -13.25977,2.7416 -4.46462,0.1969 c -20.793523,-49.38422 -16.53494,-106.19748 -13.8875,-159.58148 0,0 13.29068,-1.3657 14.00424,-1.33342 z"
       id="path4370"
       sodipodi:nodetypes="cccccc" />
    <path
       style="fill:#ff9955;fill-rule:evenodd;stroke:#000000;stroke-width:1px;stroke-linecap:butt;stroke-linejoin:miter;stroke-opacity:1"
       d="m 230.72,886.69439 c -5.45813,-23.15172 -42.15562,-33.95791 -67.41387,-35.04617 -32.25837,-1.38991 -71.430947,2.06015 -102.112987,6.91096 -15.127718,2.39168 -33.991856,16.15916 -37.820412,25.99621 -2.252372,-4.63384 -8.11475,-8.15115 -6.360079,-14.71439 3.090972,-14.40584 24.860746,-26.77856 38.014048,-29.07862 35.999863,-6.29513 80.76664,-9.88004 107.81489,-8.20313 19.75453,1.22472 59.6821,7.7572 71.88423,27.81604 1.54355,11.92462 -2.52471,17.70572 -4.00582,26.3191 z"
       id="path4368"
       inkscape:connector-curvature="0"
       sodipodi:nodetypes="cssccsscc" />
    <path
       style="fill:#ffb380;fill-rule:evenodd;stroke:#000000;stroke-width:1px;stroke-linecap:butt;stroke-linejoin:miter;stroke-opacity:1"
       d="m 136.02129,907.52601 -1.13856,21.22023 C 104.1801,923.84202 76.193936,927.43248 42.774869,914.03361 34.553854,906.65077 19.321081,900.64578 19.838985,891.54572 l -2.614798,-17.27866 c 4.593946,12.98813 25.11574,17.70998 39.599566,25.56542 z"
       id="path4372"
       inkscape:connector-curvature="0"
       sodipodi:nodetypes="ccccccc" />
    <path
       style="fill:#ffb380;fill-rule:evenodd;stroke:#000000;stroke-width:1px;stroke-linecap:butt;stroke-linejoin:miter;stroke-opacity:1"
       d="m 171.56825,904.12872 c -0.0404,0.89195 -0.21435,20.54701 -0.21435,20.54701 0,0 45.99982,-17.13544 46.76178,-18.1735 0.76197,-1.03806 14.91171,-17.46906 14.91171,-17.46906 l 0.84003,-14.61982 c -13.69194,18.85503 -40.7762,20.76739 -62.29917,29.71537 z"
       id="path4374"
       inkscape:connector-curvature="0"
       sodipodi:nodetypes="ccsccc" />
    <path
       style="fill:#ff5555;fill-rule:evenodd;stroke:#000000;stroke-width:1px;stroke-linecap:butt;stroke-linejoin:miter;stroke-opacity:1"
       d="m 173.34758,920.11831 c 0.10577,1.61357 -0.79337,5.68424 -0.79337,5.68424 31.91106,-5.57743 63.95143,-22.79869 61.34724,-44.23751 -8.48194,28.86647 -48.12808,36.19399 -60.55387,38.55327 z"
       id="path4362"
       inkscape:connector-curvature="0"
       sodipodi:nodetypes="cccc" />
    <path
       style="fill:#ff5555;fill-rule:evenodd;stroke:#000000;stroke-width:1px;stroke-linecap:butt;stroke-linejoin:miter;stroke-opacity:1"
       d="m 134.56182,925.96103 -0.62752,3.99358 c -23.29524,-0.94772 -46.573125,-2.00146 -69.223892,-6.8849 -13.733212,-2.96083 -25.230288,-8.22159 -36.909877,-17.84671 -10.646523,-8.77377 -8.93837,-12.49998 -8.984788,-20.69496 1.85841,6.99587 -0.644602,10.28426 11.29938,18.92273 15.518603,11.22382 29.904499,15.08523 42.597478,17.12719 26.032448,4.18789 41.620739,3.39559 61.849219,5.38307 z"
       id="path4366"
       inkscape:connector-curvature="0"
       sodipodi:nodetypes="ccsscssc" />
    <path
       style="fill:#ffb380;fill-opacity:1;fill-rule:evenodd;stroke:#000000;stroke-width:1px;stroke-linecap:butt;stroke-linejoin:miter;stroke-opacity:1"
       d="m 174.38605,902.50829 c -10.30023,2.01825 -24.75176,3.44921 -39.7838,4.77478 0.15437,31.08842 -3.20088,64.99497 -4.89227,96.30583 -12.91763,8.6452 -10.49005,10.6084 -10.49005,10.6084 -0.50308,3.7928 29.6866,-0.056 43.23294,-7.3399 0.58299,-1.9953 -0.0439,-4.7147 -2.475,-8.51331 z"
       id="path4376"
       inkscape:connector-curvature="0"
       sodipodi:nodetypes="ccccccc" />
    <path
       style="fill:#ff5555;fill-rule:evenodd;stroke:#000000;stroke-width:1px;stroke-linecap:butt;stroke-linejoin:miter;stroke-opacity:1"
       d="m 175.66663,920.2232 c -0.89194,-0.0403 -5.78926,0.45316 -5.78926,0.45316 0,0 -8.30303,61.58588 -12.03973,79.53724 -0.45082,2.1658 4.4917,3.7675 3.40685,5.6955 -1.47943,2.6291 -36.54741,12.796 -40.24068,8.3689 -3.02173,-3.6222 9.34288,-6.8539 10.78228,-9.1651 2.59173,-4.1616 6.5942,-82.55686 6.5942,-82.55686 -1.22179,-1.11483 -2.85969,-1.48376 -5.54229,0.0201 0,0 -4.53094,80.41309 -5.26869,80.91599 -0.73777,0.5029 -12.36343,8.5921 -12.11169,10.8925 0.34611,3.1625 9.94138,1.5221 14.96855,1.0345 0.88868,-0.086 34.96057,-5.631 34.7384,-11.2096 -0.10181,-2.5564 -3.40518,-3.2705 -2.97701,-5.31857 3.06783,-14.67373 13.47907,-78.66773 13.47907,-78.66773 z"
       id="path4358"
       inkscape:connector-curvature="0"
       sodipodi:nodetypes="ccssssccsssssc" />
    <path
       style="fill:#ffeeaa;fill-rule:evenodd;stroke:#000000;stroke-width:0.5;stroke-linecap:butt;stroke-linejoin:miter;stroke-miterlimit:4;stroke-dasharray:none;stroke-opacity:1"
       d="m 163.34154,926.34243 c 0.18288,0.2838 0.2712,0.57368 1.13888,1.17599 0.77352,0.41697 4.04186,-8.09547 5.21047,-12.46626 -0.31277,-0.572 0.80849,-1.74009 -0.79021,-1.95937 -3.23174,3.25136 -5.25842,10.19243 -5.55914,13.24964 z"
       id="path4397"
       inkscape:connector-curvature="0"
       sodipodi:nodetypes="ccccc" />
    <path
       style="fill:#ffe680;fill-rule:evenodd;stroke:#000000;stroke-width:0.5;stroke-linecap:butt;stroke-linejoin:miter;stroke-miterlimit:4;stroke-dasharray:none;stroke-opacity:1"
       d="m 182.59894,918.12357 c -0.43439,4.45818 -2.84673,9.93728 -4.81768,12.65238 -4.55443,-0.82425 -8.91703,-1.99238 -13.21355,-3.27897 1.6571,-4.22174 4.24969,-9.15733 5.1218,-12.45987 l -0.60379,-2.00034 c 4.4702,0.63135 8.86534,1.74029 13.21741,3.1234 z"
       id="path4393"
       inkscape:connector-curvature="0"
       sodipodi:nodetypes="ccccccc" />
    <path
       style="fill:#ff5555;fill-rule:evenodd;stroke:#000000;stroke-width:1px;stroke-linecap:butt;stroke-linejoin:miter;stroke-opacity:1"
       d="m 167.20447,897.85371 c 1.61128,2.31984 1.03544,5.02294 0.54499,7.71107 -16.50055,1.21996 -18.81409,1.52746 -45.52867,2.76705 -21.73265,1.00841 -34.711698,-0.72081 -63.51544,-6.62671 -14.530322,-2.97928 -34.67638,-11.20436 -40.847414,-21.68926 -7.503983,-12.74965 5.720032,-24.53322 15.480551,-30.04548 -9.729573,8.9445 -22.016174,17.15239 -12.367254,28.39875 8.45596,9.8559 21.921764,14.01347 37.449064,17.78173 27.82384,6.75245 41.418039,6.7592 61.251063,6.35451 24.10759,-0.49191 30.33274,-2.45042 47.53311,-4.65166 z"
       id="path4364"
       inkscape:connector-curvature="0"
       sodipodi:nodetypes="ccssscsssc" />
    <path
       style="fill:#ff5555;fill-rule:evenodd;stroke:#000000;stroke-width:1px;stroke-linecap:butt;stroke-linejoin:miter;stroke-opacity:1"
       d="m 174.55113,899.43728 c -0.36192,1.53229 -1.79169,3.51317 -0.0189,6.34492 34.42844,-8.72433 71.97307,-24.00275 60.09112,-45.61263 0.14447,14.76168 -6.97979,30.065 -60.07227,39.26771 z"
       id="path4360"
       inkscape:connector-curvature="0"
       sodipodi:nodetypes="cccc" />
    <ellipse
       style="fill:#ff8080;fill-opacity:1;stroke:#000000;stroke-width:0.3450959;stroke-miterlimit:4;stroke-dasharray:none;stroke-dashoffset:0"
       id="ellipse4389"
       cx="297.59375"
       cy="885.22357"
       rx="5.4721761"
       ry="5.2221599"
       transform="matrix(-0.88630919,0.46309396,0.47255267,0.88130243,0,0)" />
    <path
       style="fill:none;fill-rule:evenodd;stroke:#000000;stroke-width:0.5;stroke-linecap:butt;stroke-linejoin:miter;stroke-miterlimit:4;stroke-dasharray:none;stroke-opacity:1"
       d="m 165.7011,952.0504 c -10.10008,1.48129 -19.87989,2.67004 -29.48374,3.69804"
       id="path4381"
       inkscape:connector-curvature="0"
       sodipodi:nodetypes="cc" />
    <ellipse
       style="fill:#ffccaa;fill-opacity:1;stroke:#000000;stroke-width:0.43640703;stroke-miterlimit:4;stroke-dasharray:none;stroke-dashoffset:0"
       id="path4383"
       cx="-181.4968"
       cy="911.56726"
       rx="2.6974516"
       ry="2.6735439"
       transform="matrix(-0.99897864,-0.04518483,-0.04518483,0.99897864,0,0)" />
    <path
       style="fill:#fff6d5;fill-rule:evenodd;stroke:#000000;stroke-width:0.5;stroke-linecap:butt;stroke-linejoin:miter;stroke-miterlimit:4;stroke-dasharray:none;stroke-opacity:1"
       d="m 168.53816,915.19286 c 0.34832,0.83161 -0.16485,1.27259 -0.61597,1.74171 0,0 -7.28026,-2.9781 -10.37961,-1.76506 -3.10075,1.21357 -3.85856,7.06177 -3.85856,7.06177 l 10.50591,2.46596 -0.46987,1.30593 -11.77586,-2.3338 c -1.29496,-0.15747 1.1542,-11.73512 7.6534,-10.61888 3.95999,0.68013 8.94056,2.14237 8.94056,2.14237 z"
       id="path4399"
       inkscape:connector-curvature="0"
       sodipodi:nodetypes="ccsccccsc" />
    <ellipse
       transform="matrix(-0.88630919,0.46309396,0.47255267,0.88130243,0,0)"
       ry="7.1634564"
       rx="7.5064139"
       cy="889.25775"
       cx="296.47699"
       id="ellipse4387"
       style="fill:#ffaaaa;fill-opacity:1;stroke:#000000;stroke-width:0.47338262;stroke-miterlimit:4;stroke-dasharray:none;stroke-dashoffset:0" />
    <ellipse
       style="fill:#ffaaaa;fill-opacity:1;stroke:#000000;stroke-width:0.47338262;stroke-miterlimit:4;stroke-dasharray:none;stroke-dashoffset:0"
       id="path4385"
       cx="296.23474"
       cy="890.57544"
       rx="7.5064139"
       ry="7.1634564"
       transform="matrix(-0.88630919,0.46309396,0.47255267,0.88130243,0,0)" />
    <ellipse
       ry="1.4208308"
       rx="1.4335364"
       cy="911.87976"
       cx="-181.85393"
       id="ellipse4391"
       style="fill:#ffe6d5;fill-opacity:1;stroke:#000000;stroke-width:0.23192458;stroke-miterlimit:4;stroke-dasharray:none;stroke-dashoffset:0"
       transform="matrix(-0.99897864,-0.04518483,-0.04518483,0.99897864,0,0)" />
    <path
       style="fill:none;fill-rule:evenodd;stroke:#000000;stroke-width:0.5;stroke-linecap:butt;stroke-linejoin:miter;stroke-miterlimit:4;stroke-dasharray:none;stroke-opacity:1"
       d="m 182.55031,918.21076 -12.86282,-3.12904"
       id="path4395"
       inkscape:connector-curvature="0"
       sodipodi:nodetypes="cc" />
    <path
       style="fill:none;fill-rule:evenodd;stroke:#000000;stroke-width:0.5;stroke-linecap:butt;stroke-linejoin:miter;stroke-miterlimit:4;stroke-dasharray:none;stroke-opacity:1"
       d="m 160.60829,952.79034 c -2.13164,16.17021 -2.64577,22.54319 -6.4617,48.99926"
       id="path4442"
       inkscape:connector-curvature="0"
       sodipodi:nodetypes="cc" />
    <path
       style="fill:none;fill-rule:evenodd;stroke:#000000;stroke-width:0.5;stroke-linecap:butt;stroke-linejoin:miter;stroke-miterlimit:4;stroke-dasharray:none;stroke-opacity:1"
       d="m 141.54574,955.32445 c -1.62255,16.49116 -3.32667,32.97862 -5.18653,49.45905"
       id="path4444"
       inkscape:connector-curvature="0"
       sodipodi:nodetypes="cc" />
    <path
       style="fill:none;fill-rule:evenodd;stroke:#000000;stroke-width:0.5;stroke-linecap:butt;stroke-linejoin:miter;stroke-miterlimit:4;stroke-dasharray:none;stroke-opacity:1"
       d="m 131.50236,1005.4576 c 8.61718,-0.8175 17.24194,-1.8029 25.9543,-4.725"
       id="path4446"
       inkscape:connector-curvature="0"
       sodipodi:nodetypes="cc" />
    <ellipse
       style="display:inline;fill:#ffccaa;fill-opacity:1;stroke:#000000;stroke-width:0.28632665;stroke-miterlimit:4;stroke-dasharray:none;stroke-dashoffset:0"
       id="path4383-5"
       cx="-182.32437"
       cy="957.18011"
       rx="1.769798"
       ry="1.7541121"
       transform="matrix(-0.99897864,-0.04518483,-0.04518483,0.99897864,0,0)" />
    <ellipse
       ry="0.93220723"
       rx="0.94054317"
       cy="957.49261"
       cx="-182.6815"
       id="ellipse4391-9"
       style="display:inline;fill:#ffe6d5;fill-opacity:1;stroke:#000000;stroke-width:0.15216571;stroke-miterlimit:4;stroke-dasharray:none;stroke-dashoffset:0"
       transform="matrix(-0.99897864,-0.04518483,-0.04518483,0.99897864,0,0)" />
    <ellipse
       style="display:inline;fill:#ffccaa;fill-opacity:1;stroke:#000000;stroke-width:0.28632665;stroke-miterlimit:4;stroke-dasharray:none;stroke-dashoffset:0"
       id="path4383-5-0"
       cx="-181.59242"
       cy="977.95325"
       rx="1.769798"
       ry="1.7541121"
       transform="matrix(-0.99897864,-0.04518483,-0.04518483,0.99897864,0,0)" />
    <ellipse
       ry="0.93220723"
       rx="0.94054317"
       cy="978.26575"
       cx="-181.94957"
       id="ellipse4391-9-9"
       style="display:inline;fill:#ffe6d5;fill-opacity:1;stroke:#000000;stroke-width:0.15216571;stroke-miterlimit:4;stroke-dasharray:none;stroke-dashoffset:0"
       transform="matrix(-0.99897864,-0.04518483,-0.04518483,0.99897864,0,0)" />
    <ellipse
       style="display:inline;fill:#ffccaa;fill-opacity:1;stroke:#000000;stroke-width:0.28632665;stroke-miterlimit:4;stroke-dasharray:none;stroke-dashoffset:0"
       id="path4383-5-3"
       cx="-205.20474"
       cy="953.45703"
       rx="1.769798"
       ry="1.7541121"
       transform="matrix(-0.99897864,-0.04518483,-0.04518483,0.99897864,0,0)" />
    <ellipse
       ry="0.93220723"
       rx="0.94054317"
       cy="953.76953"
       cx="-205.56189"
       id="ellipse4391-9-7"
       style="display:inline;fill:#ffe6d5;fill-opacity:1;stroke:#000000;stroke-width:0.15216571;stroke-miterlimit:4;stroke-dasharray:none;stroke-dashoffset:0"
       transform="matrix(-0.99897864,-0.04518483,-0.04518483,0.99897864,0,0)" />
    <ellipse
       style="display:inline;fill:#ffccaa;fill-opacity:1;stroke:#000000;stroke-width:0.28632665;stroke-miterlimit:4;stroke-dasharray:none;stroke-dashoffset:0"
       id="path4383-5-6"
       cx="-203.62637"
       cy="973.15503"
       rx="1.769798"
       ry="1.7541121"
       transform="matrix(-0.99897864,-0.04518483,-0.04518483,0.99897864,0,0)" />
    <ellipse
       ry="0.93220723"
       rx="0.94054317"
       cy="973.46753"
       cx="-203.98352"
       id="ellipse4391-9-2"
       style="display:inline;fill:#ffe6d5;fill-opacity:1;stroke:#000000;stroke-width:0.15216571;stroke-miterlimit:4;stroke-dasharray:none;stroke-dashoffset:0"
       transform="matrix(-0.99897864,-0.04518483,-0.04518483,0.99897864,0,0)" />
    <ellipse
       style="display:inline;fill:#ff7f2a;fill-opacity:1;stroke:#000000;stroke-width:0.19668233;stroke-miterlimit:4;stroke-dasharray:none;stroke-dashoffset:0"
       id="path4383-5-3-5"
       cx="-204.03163"
       cy="964.26996"
       rx="1.2279433"
       ry="1.1929163"
       transform="matrix(-0.99897864,-0.04518483,-0.04518483,0.99897864,0,0)" />
    <ellipse
       style="display:inline;fill:#ff7f2a;fill-opacity:1;stroke:#000000;stroke-width:0.19668233;stroke-miterlimit:4;stroke-dasharray:none;stroke-dashoffset:0"
       id="path4383-5-3-5-6"
       cx="-181.53163"
       cy="968.26556"
       rx="1.2279433"
       ry="1.1929163"
       transform="matrix(-0.99897864,-0.04518483,-0.04518483,0.99897864,0,0)" />
    <ellipse
       style="display:inline;fill:#ff7f2a;fill-opacity:1;stroke:#000000;stroke-width:0.19668233;stroke-miterlimit:4;stroke-dasharray:none;stroke-dashoffset:0"
       id="path4383-5-3-5-1"
       cx="-202.33521"
       cy="981.61371"
       rx="1.2279433"
       ry="1.1929163"
       transform="matrix(-0.99897864,-0.04518483,-0.04518483,0.99897864,0,0)" />
    <ellipse
       style="display:inline;fill:#ff7f2a;fill-opacity:1;stroke:#000000;stroke-width:0.19668233;stroke-miterlimit:4;stroke-dasharray:none;stroke-dashoffset:0"
       id="path4383-5-3-5-63"
       cx="-180.54948"
       cy="986.92621"
       rx="1.2279433"
       ry="1.1929163"
       transform="matrix(-0.99897864,-0.04518483,-0.04518483,0.99897864,0,0)" />
    <ellipse
       style="display:inline;fill:#ff7f2a;fill-opacity:1;stroke:#000000;stroke-width:0.17814955;stroke-miterlimit:4;stroke-dasharray:none;stroke-dashoffset:0"
       id="path4383-5-3-5-62"
       cx="-179.92448"
       cy="995.38611"
       rx="1.0586382"
       ry="1.1352184"
       transform="matrix(-0.99897864,-0.04518483,-0.04518483,0.99897864,0,0)" />
    <ellipse
       style="display:inline;fill:#ff7f2a;fill-opacity:1;stroke:#000000;stroke-width:0.17316593;stroke-miterlimit:4;stroke-dasharray:none;stroke-dashoffset:0"
       id="path4383-5-3-5-69"
       cx="-201.24146"
       cy="990.83246"
       rx="1.0388087"
       ry="1.0930673"
       transform="matrix(-0.99897864,-0.04518483,-0.04518483,0.99897864,0,0)" />
    <path
       style="fill:#ffe6d5;fill-rule:evenodd;stroke:none;stroke-width:1px;stroke-linecap:butt;stroke-linejoin:miter;stroke-opacity:1"
       d="m 166.86858,835.24568 c -8.78969,-0.52603 -17.30534,-0.86689 -25.74009,-0.99101 -27.22506,0.37877 -53.479189,3.01512 -85.2578,8.9375 31.847111,-5.56007 58.10419,-7.82182 85.2657,-7.8314 8.4141,-0.24444 16.92704,-0.27273 25.73219,-0.11509 z"
       id="path4554"
       inkscape:path-effect="#path-effect4556"
       inkscape:original-d="m 166.86858,835.24568 c -37.1945,-1.44528 -69.329635,0.42666 -110.99789,7.94649"
       inkscape:connector-curvature="0"
       sodipodi:nodetypes="cc" />
    <path
       style="fill:#ffe6d5;fill-rule:evenodd;stroke:none;stroke-width:1px;stroke-linecap:butt;stroke-linejoin:miter;stroke-opacity:1"
       d="m 133.27077,912.19215 c -2.58992,-0.17137 -5.36445,-0.32189 -8.28445,-0.47872 -26.594417,1.03858 -65.973249,1.56333 -97.654972,-19.34861 31.499074,21.37712 70.953845,21.36733 97.698802,20.81246 2.91155,-0.33137 5.66209,-0.66841 8.24062,-0.98513 z"
       id="path4558"
       inkscape:path-effect="#path-effect4560"
       inkscape:original-d="m 133.27077,912.19215 c -26.22062,0.73631 -70.895713,3.62816 -105.939422,-19.82733"
       inkscape:connector-curvature="0"
       sodipodi:nodetypes="cc" />
    <path
       style="fill:#ffffff;fill-rule:evenodd;stroke:none;stroke-width:1px;stroke-linecap:butt;stroke-linejoin:miter;stroke-opacity:1"
       d="m 164.86113,922.3426 c 0.19045,-1.61942 -0.34674,-3.09927 -1.33165,-4.34726 -0.23715,-0.21689 -0.48709,-0.41803 -0.74593,-0.60355 -1.51532,-1.08607 -3.37083,-1.66272 -4.87743,-1.71191 1.48048,0.30166 3.15491,1.11333 4.39268,2.2996 0.20966,0.20094 0.40594,0.41178 0.58622,0.63171 1.05032,0.88669 1.86877,2.12289 1.97611,3.73141 z"
       id="path4562"
       inkscape:path-effect="#path-effect4564"
       inkscape:original-d="m 164.86113,922.3426 c 0.098,-3.8857 -3.96621,-6.31197 -6.95501,-6.66272"
       inkscape:connector-curvature="0"
       sodipodi:nodetypes="cc"
       inkscape:transform-center-x="-3.4157476"
       inkscape:transform-center-y="-4.0442642" />
  </g>
</svg>
