<?xml version="1.0" encoding="UTF-8" standalone="no"?>
<svg
   xmlns:dc="http://purl.org/dc/elements/1.1/"
   xmlns:cc="http://creativecommons.org/ns#"
   xmlns:rdf="http://www.w3.org/1999/02/22-rdf-syntax-ns#"
   xmlns:svg="http://www.w3.org/2000/svg"
   xmlns="http://www.w3.org/2000/svg"
   version="1.1"
   id="svg4206"
   viewBox="0 0 256 256">
  <style
     id="style3">
    svg { cursor: default; }
  </style>
  <defs
     id="defs4208" />
  <metadata
     id="metadata4211">
    <rdf:RDF>
      <cc:Work
         rdf:about="">
        <dc:format>image/svg+xml</dc:format>
        <dc:type
           rdf:resource="http://purl.org/dc/dcmitype/StillImage" />
        <dc:title></dc:title>
      </cc:Work>
    </rdf:RDF>
  </metadata>
  <g
     id="layer4">
    <path
       id="path4302"
       d="m 150.13392,72.025968 c 29.66212,1.003785 78.37799,18.294874 84.72655,49.623742 0.2701,1.33287 8.83883,-29.799499 8.83883,-29.799499 -8.51834,-20.361973 -34.1267,-50.034709 -92.68149,-54.800775 z"
       style="fill:#ff8080;fill-rule:evenodd;stroke:#000000;stroke-width:1px;stroke-linecap:butt;stroke-linejoin:miter;stroke-opacity:1" />
    <path
       id="path4298"
       d="m 8.8668444,102.81526 2.7499096,45.35096 c 38.740982,82.99291 209.716346,68.63531 233.345236,-7.57615 l 1.60452,-41.546239 C 208.03633,190.64802 44.129347,186.5645 8.8668444,102.81526 Z"
       style="fill:#ffaaaa;fill-rule:evenodd;stroke:#000000;stroke-width:1px;stroke-linecap:butt;stroke-linejoin:miter;stroke-opacity:1" />
    <path
       id="path4300"
       d="M 20.708127,129.73093 C 34.363373,75.67737 121.16912,67.400388 164.40233,73.414928 l 0.25253,-6.565992 -11.66007,-1.188724 -0.0893,-17.573065 12.0019,0.831581 0.25254,-10.101525 C 104.5641,32.384757 32.039095,50.119381 16.162441,87.051987 11.449515,103.98619 14.515633,117.53821 20.708127,129.73093 Z"
       style="fill:#ff5555;fill-rule:evenodd;stroke:#000000;stroke-width:1px;stroke-linecap:butt;stroke-linejoin:miter;stroke-opacity:1" />
    <path
       id="path4308"
       d="m 68.311566,166.09642 c -1.176005,0.50508 -1.049059,31.18846 0.252538,31.18846 11.379457,5.22159 24.208699,6.67373 37.249376,7.57615 1.60866,-10.64715 1.03027,-20.79571 0.65301,-31.77385 z"
       style="fill:#ff9955;fill-rule:evenodd;stroke:#000000;stroke-width:1px;stroke-linecap:butt;stroke-linejoin:miter;stroke-opacity:1" />
    <path
       id="path4296"
       d="M 164.65486,39.574817 C 130.18613,33.931071 24.300445,43.513965 15.731332,95.816855 10.651505,126.82236 56.659904,152.06153 87.526128,157.92854 139.64684,167.83558 224.86295,153.3 238.64854,105.48727 247.81445,73.697043 203.46527,46.162716 165.47561,39.701087 l 1.4521,-2.020305 c 33.5504,5.207799 88.07897,36.074501 78.65665,69.235058 C 230.26354,160.83536 139.77887,173.96283 84.638348,163.88486 50.696294,157.68131 0.91594139,128.71363 9.8489873,95.385745 24.551678,40.532156 126.49353,32.550999 165.91756,37.554512 Z"
       style="fill:#ffd5d5;fill-rule:evenodd;stroke:#000000;stroke-width:1px;stroke-linecap:butt;stroke-linejoin:miter;stroke-opacity:1" />
    <path
       id="path4304"
       d="m 71.783966,153.59579 c -1.740334,1.78881 -2.172418,3.95643 -2.272844,6.06091 2.546426,3.0515 6.229274,4.84032 7.639279,9.15451 l 13.068848,2.14658 c 2.395942,-3.34484 9.763377,-3.41106 14.647211,-5.1139 0.58805,-1.64209 1.0958,-3.56614 2.33598,-5.55584 0.1103,-0.79055 -10.264742,-2.23946 -18.855195,-3.8898 -8.660246,-1.66374 -15.855425,-3.77444 -16.563279,-2.80246 z"
       style="fill:#ffb380;fill-rule:evenodd;stroke:#000000;stroke-width:1px;stroke-linecap:butt;stroke-linejoin:miter;stroke-opacity:1" />
    <path
       id="path4263"
       d="m 82.590075,169.73569 a 29.389346,30.817882 0 0 0 -29.39094,30.81871 29.389346,30.817882 0 0 0 29.39094,30.81678 29.389346,30.817882 0 0 0 29.389075,-30.81678 29.389346,30.817882 0 0 0 -29.389075,-30.81871 z m 0,6.97194 A 22.740915,23.84629 0 0 1 105.33098,200.5544 22.740915,23.84629 0 0 1 82.590075,224.39924 22.740915,23.84629 0 0 1 59.849166,200.5544 22.740915,23.84629 0 0 1 82.590075,176.70763 Z"
       style="opacity:1;fill:#ffb380;fill-opacity:1;stroke:#000000;stroke-width:0.97137457;stroke-linecap:round;stroke-linejoin:round;stroke-miterlimit:4;stroke-dasharray:none;stroke-dashoffset:0;stroke-opacity:1" />
    <path
       id="path4306"
       d="m 77.27667,168.6218 c -1.468202,2.51055 -2.397608,6.01342 0.511422,8.05956 3.025059,1.07546 7.772883,1.19218 12.285082,1.49357 -1.618462,-2.79967 -0.732464,-5.34654 0.398613,-7.91163 z"
       style="fill:#ffccaa;fill-rule:evenodd;stroke:#000000;stroke-width:1px;stroke-linecap:butt;stroke-linejoin:miter;stroke-opacity:1" />
  </g>
  <g
     style="opacity:1"
     id="layer3" />
</svg>
