<svg xmlns="http://www.w3.org/2000/svg" xmlns:xlink="http://www.w3.org/1999/xlink" cursor="default" viewBox="0 0 256 256">
    <defs>
        <linearGradient id="usedGradient5">
            <stop offset="0" stop-color="#f55"/>
            <stop offset="1" stop-color="#ff8080"/>
        </linearGradient>
        <linearGradient id="linearGradient5135" x1="135.414" x2="135.47" y1="971.24" y2="953.562" gradientUnits="userSpaceOnUse" xlink:href="#usedGradient5"/>
    </defs>
    <g fill-rule="evenodd">
        <path fill="url(#linearGradient5135)" stroke="#000" stroke-width=".455" d="M134.087 909.085c-.994 29.142-8.89 39.19-9.146 48.196-.15 5.286.933 6.372 3 10.824 2.106 4.539.044 12.22 8.02 12.216 11.556 0 7.829-8.647 10.118-13.145 2.307-4.535 2.817-5.843 3.246-9.747.395-3.595-4.098-13.41-4.611-20.008-.514-6.604-3.333-14.215-2.397-21.039.802-5.841 1.243-2.285-2.296-8.133z" transform="translate(0 -796.362)"/>
        <path fill="#faa" stroke="#000" stroke-width=".514" d="M132.504 115.922c.092 1.926-.36 3.908 2.712 4.718 3.924-1.042 6.198-2.573 7.47-4.4 1.978-3.632-5.504-5.928-8.766-5.85z"/>
        <path fill="#ffd5d5" stroke="#000" stroke-width=".514" d="M133.566 110.658c-.902.847-3.257 1.206-1.76 3.912 1.25 2.3 2.906 2.39 4.592 2.314.512-1.014.454-2.027.554-3.04.604-1.67.927-5.493-3.386-3.186z"/>
        <path fill="#ffd5d5" stroke="#000" stroke-width=".606" d="M141.669 111.562c-6.586-1.853-3.963 1.18-4.54 2.663-.488 1.252-.81 2.8.973 3.846 2.49-.154 3.224-1.898 4.442-3.39.876-2.484.6-2.704-.875-3.12z"/>
        <path d="M139.965 118.398c1.37 8.444 1.064 15.032 2.16 23.666-.934-8.568-.491-15.297-1.707-23.736zM134.913 120.447c.082 8.148.507 13.919-1.434 21.766 2.094-7.825 1.822-13.61 1.893-21.767zM128.953 168.851c1.797.646 4.96 1.21 8.08 1.288h.024c3.134-.068 6.189-.631 7.711-2.071-1.593 1.312-4.628 1.718-7.71 1.643h-.025c-3.08.065-6.245-.352-8.08-.86z"/>
    </g>
</svg>
