<svg xmlns="http://www.w3.org/2000/svg" cursor="default" viewBox="0 0 256 256">
    <g fill-rule="evenodd" stroke="#000" stroke-width=".5">
        <path fill="#ff8080" d="M23.797 106.66c-.803-5.198-9.275-12.023-3.011-12.79 7.023-3.62 10.472 10.427 13.896 17.18z"/>
        <path fill="#faa" d="M32.135 120.996c6.13-3.078 5.241-7.147.682-9.088-3.629-1.545-5.314-3.754-9.852-3.408-3.198.245-10.33 1.91-.754 9.807 2.748 2.265 7.04 4.136 9.924 2.689z"/>
        <path fill="#f55" d="M31.036 119.275c4.994-2.507 3.502-4.43-.211-6.01-2.956-1.26-3.38-2.89-7.075-2.607-2.605.199-7.868.319-.068 6.75 2.237 1.845 5.006 3.046 7.354 1.867z"/>
    </g>
</svg>
