<svg xmlns="http://www.w3.org/2000/svg" cursor="default" viewBox="0 0 256 256">
    <g fill-rule="evenodd" stroke="#000">
        <path fill="#ff8080" stroke-width=".478" d="M197.025 134.023c-.458-8.042 1.76-18.616 6.186-20.697 11.401 5.266 10.794 18.007 15.532 27.73z"/>
        <path fill="#faa" stroke-width=".5" d="M213.484 147.325c7.666-4.142 6.554-9.619.853-12.231-4.537-2.08-6.644-5.053-12.318-4.586-3.998.328-12.916 2.571-.942 13.199 3.435 3.049 8.802 5.567 12.407 3.618z"/>
        <path fill="#f55" stroke-width=".5" d="M212.11 145.01c6.244-3.375 4.379-5.962-.264-8.09-3.696-1.694-4.224-3.889-8.845-3.509-3.257.268-9.839.43-.086 9.086 2.798 2.483 6.26 4.1 9.196 2.512z"/>
    </g>
</svg>
