<svg xmlns="http://www.w3.org/2000/svg" cursor="default" viewBox="0 0 256 256">
    <g fill-rule="evenodd" stroke="#000" stroke-width=".5">
        <path fill="#ff8080" d="M128.812 133.323c-.453-8.566 1.74-19.829 6.114-22.046 11.268 5.61 10.668 19.18 15.35 29.537z"/>
        <path fill="#faa" d="M145.237 147.105c7.373-4.144 6.303-9.621.82-12.234-4.364-2.08-6.391-5.054-11.848-4.588-3.846.33-12.424 2.572-.906 13.203 3.304 3.05 8.466 5.568 11.934 3.619z"/>
        <path fill="#f55" d="M143.915 144.788c6.006-3.375 4.212-5.963-.254-8.091-3.555-1.695-4.063-3.89-8.508-3.51-3.133.269-9.463.43-.082 9.088 2.69 2.484 6.02 4.1 8.844 2.513z"/>
    </g>
</svg>
