<svg xmlns="http://www.w3.org/2000/svg" xmlns:xlink="http://www.w3.org/1999/xlink" cursor="default" viewBox="0 0 256 256">
    <defs>
        <linearGradient id="usedGradient6">
            <stop offset="0" stop-color="#f55"/>
            <stop offset="1" stop-color="#ff8080"/>
        </linearGradient>
        <linearGradient id="linearGradient5143" x1="168.774" x2="167.406" y1="980.261" y2="959.368" gradientUnits="userSpaceOnUse" xlink:href="#usedGradient6"/>
    </defs>
    <g fill-rule="evenodd">
        <path fill="url(#linearGradient5143)" stroke="#000" stroke-width=".466" d="M165.308 916.19c-.995 30.553-8.888 41.086-9.144 50.53-.15 5.541.932 6.68 2.998 11.347 2.106 4.759.045 12.811 8.018 12.807 11.554 0 7.828-9.065 10.116-13.781 2.306-4.754 2.816-6.125 3.245-10.218.395-3.77-4.177-14.053-4.61-20.977-.432-6.915-.864-14.766-2.396-22.058-1.283-6.106-.67-4.769-2.194-10.9z" transform="translate(0 -796.362)"/>
        <path fill="#faa" stroke="#000" stroke-width=".466" d="M165.204 117.266c.072 2.032-.28 4.123 2.112 4.979 3.056-1.1 4.827-2.716 5.818-4.644 1.54-3.832-4.287-6.254-6.827-6.171z"/>
        <path fill="#ffd5d5" stroke="#000" stroke-width=".466" d="M165.183 111.641c-.703.895-2.696.855-1.53 3.71.974 2.428 2.264 2.521 3.577 2.442.398-1.07.353-2.139.43-3.208.47-1.752.598-4.833-2.477-2.944z"/>
        <path fill="#ffd5d5" stroke="#000" stroke-width=".466" d="M170.517 112.022c-4.377-1.65-2.99 1.842-3.373 3.162-.325 1.114-.538 2.492.646 3.422 1.655-.137 2.958-1.689 3.767-3.016.582-2.211-.06-3.2-1.04-3.568z"/>
        <path d="M171.198 120.13l-.231.033c1.37 8.846 1.425 18.032 2.52 27.07-.934-8.994-.844-18.284-2.059-27.137l-.23.034zM166.715 121.938c.082 8.543.356 17.56-1.583 25.787 2.094-8.205 1.976-17.237 2.049-25.788zM160.175 178.673c1.795.675 4.956 1.265 8.077 1.344h.025c3.135-.07 6.188-.658 7.708-2.165-1.594 1.378-4.628 1.806-7.708 1.73h-.024c-3.079.066-6.243-.374-8.078-.909z"/>
    </g>
</svg>
