<svg xmlns="http://www.w3.org/2000/svg" xmlns:xlink="http://www.w3.org/1999/xlink" cursor="default" viewBox="0 0 256 256">
    <defs>
        <linearGradient id="usedGradient8">
            <stop offset="0" stop-color="#f55"/>
            <stop offset="1" stop-color="#ff8080"/>
        </linearGradient>
        <linearGradient id="linearGradient4293-8-0" x1="133.34" x2="136.144" y1="225.455" y2="185.15" gradientTransform="matrix(.3475 0 0 .44045 190.509 865.205)" gradientUnits="userSpaceOnUse" xlink:href="#usedGradient8"/>
    </defs>
    <g fill-rule="evenodd">
        <path d="M235.953 137.221c1.089-5.464.402-7.151.79-9.469-.58 2.796.203 3.54-1.07 9.41zM231.208 141.538c.097-2.662.345-5.006 1.201-6.946-.947 1.91-1.293 4.253-1.486 6.931z"/>
        <path fill="url(#linearGradient4293-8-0)" stroke="#000" stroke-width=".391" d="M234.1 913.3c-.78 27.397-7.385 27.098-7.586 35.565-.118 4.97.733 5.99 2.356 10.176 1.655 4.267.036 11.487 6.302 11.484 9.08 0 6.152-8.129 7.95-12.358 1.812-4.263 2.213-5.492 2.55-9.163.31-3.38-2.242-4.074-2.581-10.283-.34-6.2-.995-11.997-2.145-18.56-.96-5.476.106-4.277-2.104-9.774z" transform="translate(0 -796.362)"/>
        <path fill="#faa" stroke="#000" stroke-width=".466" d="M232.889 113.415c.071 2.032-.28 4.123 2.111 4.978 3.057-1.1 4.827-2.715 5.818-4.643.795-3.188-.725-4.948-2.801-5.266-3.172-3.556-3.42 3.287-5.128 4.93z"/>
        <path fill="#ffd5d5" stroke="#000" stroke-width=".466" d="M235.049 107.349c-.703.894-3.706 1.692-2.54 4.547.974 2.428 1.092 2.125 2.405 2.045.398-1.069 1.362-2.138 1.44-3.207.512-1.948.904-3.404-1.305-3.385z"/>
        <path fill="#ffd5d5" stroke="#000" stroke-width=".466" d="M238.277 107.882c-1.806.138-1.685 1.373-2.152 2.65-.397 1.085-1.835 3.293-.65 4.223 1.654-.137 3.763-2.65 4.572-3.976.794-2.3.05-3.036-1.77-2.897z"/>
        <path d="M239.083 115.912c1.371 8.846 1.425 18.031 2.52 27.07-.933-8.995-.844-18.285-2.058-27.138zM234.975 118.247c.083 8.543.357 17.56-1.583 25.787 2.095-8.205 1.977-17.237 2.05-25.788zM230.257 161.85c1.41.797 3.92 1.498 6.411 1.578h.02c2.513-.068 4.931-.77 6.119-2.57-1.285 1.686-3.699 2.212-6.118 2.135h-.02c-2.428.065-4.94-.478-6.412-1.142z"/>
    </g>
</svg>
