<svg xmlns="http://www.w3.org/2000/svg" xmlns:xlink="http://www.w3.org/1999/xlink" cursor="default" viewBox="0 0 256 256">
    <defs>
        <linearGradient id="usedGradient1">
            <stop offset="0" stop-color="#f55"/>
            <stop offset="1" stop-color="#ff8080"/>
        </linearGradient>
        <linearGradient id="linearGradient5097" x1="21.02" x2="21.261" y1="937.717" y2="925.753" gradientUnits="userSpaceOnUse" xlink:href="#usedGradient1"/>
    </defs>
    <g fill-rule="evenodd">
        <path fill="url(#linearGradient5097)" stroke="#000" stroke-width=".351" d="M19.057 896.715c-.795 21.652-7.11 29.117-7.315 35.809-.12 3.927.746 4.734 2.399 8.042 1.684 3.372.036 9.079 6.414 9.076 9.243 0 6.262-6.424 8.093-9.767 1.845-3.369 2.253-4.34 2.596-7.241.316-2.67-3.342-9.959-3.688-14.866-.345-4.9-1.034-10.41-1.917-15.631-.732-4.328 1.076-3.38-1.755-7.725z" transform="translate(0 -796.362)"/>
        <path fill="#faa" stroke="#000" stroke-width=".351" d="M18.686 97.743c.058 1.44-.224 2.922 1.69 3.528 2.445-.779 3.861-1.924 4.654-3.29 1.232-2.716-3.43-4.432-5.461-4.374z"/>
        <path fill="#ffd5d5" stroke="#000" stroke-width=".351" d="M18.67 93.757c-.563.634-2.157.606-1.225 2.63.78 1.72 1.811 1.786 2.862 1.73.318-.758.282-1.516.344-2.274.376-1.242.625-2.416-1.982-2.086z"/>
        <path fill="#ffd5d5" stroke="#000" stroke-width=".351" d="M22.651 94.588c-3.501-1.168-2.106.745-2.413 1.68-.26.79-.43 1.766.517 2.425 1.324-.097 1.714-1.197 2.361-2.137.466-1.567.319-1.706-.465-1.968z"/>
        <path d="M23.653 99.518c1.093 6.268 1.132 12.77 2.006 19.178-.75-6.37-.684-12.961-1.659-19.236zM20.366 101.167c.063 6.054.279 12.444-1.277 18.275 1.672-5.813 1.574-12.214 1.629-18.275zM14.95 142.055c1.44.482 3.969.903 6.463.962h.02c2.503-.052 4.946-.472 6.166-1.544-1.27.973-3.699 1.273-6.166 1.216h-.02c-2.466.05-4.997-.258-6.462-.634z"/>
    </g>
</svg>
