<svg xmlns="http://www.w3.org/2000/svg" xmlns:xlink="http://www.w3.org/1999/xlink" cursor="default" viewBox="0 0 256 256">
    <defs>
        <linearGradient id="usedGradient7">
            <stop offset="0" stop-color="#f55"/>
            <stop offset="1" stop-color="#ff8080"/>
        </linearGradient>
        <linearGradient id="usedGradient6">
            <stop offset="0" stop-color="#f55"/>
            <stop offset="1" stop-color="#ff8080"/>
        </linearGradient>
        <linearGradient id="usedGradient5">
            <stop offset="0" stop-color="#f55"/>
            <stop offset="1" stop-color="#ff8080"/>
        </linearGradient>
        <linearGradient id="usedGradient4">
            <stop offset="0" stop-color="#f55"/>
            <stop offset="1" stop-color="#ff8080"/>
        </linearGradient>
        <linearGradient id="usedGradient3">
            <stop offset="0" stop-color="#f55"/>
            <stop offset="1" stop-color="#ff8080"/>
        </linearGradient>
        <linearGradient id="usedGradient2">
            <stop offset="0" stop-color="#f55"/>
            <stop offset="1" stop-color="#ff8080"/>
        </linearGradient>
        <linearGradient id="usedGradient1">
            <stop offset="0" stop-color="#f55"/>
            <stop offset="1" stop-color="#ff8080"/>
        </linearGradient>
        <linearGradient id="usedGradient8">
            <stop offset="0" stop-color="#f55"/>
            <stop offset="1" stop-color="#ff8080"/>
        </linearGradient>
        <linearGradient id="linearGradient4293-8-0" x1="133.34" x2="136.144" y1="225.455" y2="185.15" gradientTransform="matrix(.3475 0 0 .44045 190.509 865.205)" gradientUnits="userSpaceOnUse" xlink:href="#usedGradient8"/>
        <linearGradient id="linearGradient5097" x1="21.02" x2="21.261" y1="937.717" y2="925.753" gradientUnits="userSpaceOnUse" xlink:href="#usedGradient1"/>
        <linearGradient id="linearGradient5105" x1="43.393" x2="43.571" y1="958.969" y2="935.576" gradientUnits="userSpaceOnUse" xlink:href="#usedGradient2"/>
        <linearGradient id="linearGradient5113" x1="77.321" x2="78.036" y1="956.469" y2="929.148" gradientUnits="userSpaceOnUse" xlink:href="#usedGradient3"/>
        <linearGradient id="linearGradient5127" x1="104.07" x2="104.121" y1="962.46" y2="938.531" gradientUnits="userSpaceOnUse" xlink:href="#usedGradient4"/>
        <linearGradient id="linearGradient5135" x1="135.414" x2="135.47" y1="971.24" y2="953.562" gradientUnits="userSpaceOnUse" xlink:href="#usedGradient5"/>
        <linearGradient id="linearGradient5143" x1="168.774" x2="167.406" y1="980.261" y2="959.368" gradientUnits="userSpaceOnUse" xlink:href="#usedGradient6"/>
        <linearGradient id="linearGradient5151" x1="205.481" x2="205.002" y1="971.202" y2="950.845" gradientUnits="userSpaceOnUse" xlink:href="#usedGradient7"/>
    </defs>
    <g fill-rule="evenodd">
        <path fill="#ff8080" stroke="#000" stroke-width=".416" d="M128.812 133.323c-.453-8.566 1.74-19.829 6.114-22.046 11.268 5.61 10.668 19.18 15.35 29.537z"/>
        <path fill="#faa" stroke="#000" stroke-width=".351" d="M145.237 147.105c7.373-4.144 6.303-9.621.82-12.234-4.364-2.08-6.391-5.054-11.848-4.588-3.846.33-12.424 2.572-.906 13.203 3.304 3.05 8.466 5.568 11.934 3.619z"/>
        <path fill="#f55" stroke="#000" stroke-width=".351" d="M143.915 144.788c6.006-3.375 4.212-5.963-.254-8.091-3.555-1.695-4.063-3.89-8.508-3.51-3.133.269-9.463.43-.082 9.088 2.69 2.484 6.02 4.1 8.844 2.513z"/>
        <path fill="#ff8080" stroke="#000" stroke-width=".355" d="M71.635 120.684c-.359-7.881.28-17.432 3.743-19.472 8.922 5.161 9.545 16.836 13.252 26.363z"/>
        <path fill="#faa" stroke="#000" stroke-width=".317" d="M84.3 133.883c6.763-3.694 5.782-8.577.753-10.907-4.003-1.854-5.862-4.505-10.867-4.089-3.527.293-11.394 2.293-.831 11.77 3.03 2.718 7.765 4.963 10.945 3.226z"/>
        <path fill="#f55" stroke="#000" stroke-width=".317" d="M83.088 131.818c5.508-3.01 3.863-5.316-.233-7.214-3.26-1.51-3.727-3.467-7.803-3.128-2.873.239-8.68.383-.076 8.102 2.469 2.214 5.522 3.655 8.113 2.24z"/>
        <path fill="#ff8080" stroke="#000" stroke-width=".478" d="M197.025 134.023c-.458-8.042 1.76-18.616 6.186-20.697 11.401 5.266 10.794 18.007 15.532 27.73z"/>
        <path fill="#faa" stroke="#000" stroke-width=".5" d="M213.484 147.325c7.666-4.142 6.554-9.619.853-12.231-4.537-2.08-6.644-5.053-12.318-4.586-3.998.328-12.916 2.571-.942 13.199 3.435 3.049 8.802 5.567 12.407 3.618z"/>
        <path fill="#f55" stroke="#000" stroke-width=".5" d="M212.11 145.01c6.244-3.375 4.379-5.962-.264-8.09-3.696-1.694-4.224-3.889-8.845-3.509-3.257.268-9.839.43-.086 9.086 2.798 2.483 6.26 4.1 9.196 2.512z"/>
        <path fill="#1a1a1a" stroke="#000" stroke-width=".925" d="M239.255 104.727c-.234-7.68-218.918-12.672-218.703-9.3-10.275 12.9 204.926 8.196 213.685 17.801 12.61-1.575 5.168-4.914 5.018-8.501z"/>
        <path fill="#ff8080" stroke="#000" stroke-width=".371" d="M98.353 125.09c-.407-7.592.317-16.795 4.248-18.76 10.124 4.973 10.831 16.22 15.038 25.401z"/>
        <path fill="#faa" stroke="#000" stroke-width=".332" d="M115.464 138.289c7.674-3.56 6.56-8.264.854-10.509-4.542-1.787-6.652-4.34-12.332-3.94-4.003.283-12.93 2.21-.943 11.34 3.438 2.62 8.812 4.783 12.421 3.109z"/>
        <path fill="#f55" stroke="#000" stroke-width=".332" d="M114.089 136.299c6.25-2.9 4.383-5.122-.265-6.95-3.7-1.456-4.23-3.34-8.856-3.014-3.26.23-9.849.368-.085 7.805 2.8 2.134 6.266 3.522 9.206 2.159z"/>
        <path fill="#ff8080" stroke="#000" stroke-width=".5" d="M23.797 106.66c-.803-5.198-9.275-12.023-3.011-12.79 7.023-3.62 10.472 10.427 13.896 17.18z"/>
        <path fill="#faa" stroke="#000" stroke-width=".5" d="M32.135 120.996c6.13-3.078 5.241-7.147.682-9.088-3.629-1.545-5.314-3.754-9.852-3.408-3.198.245-10.33 1.91-.754 9.807 2.748 2.265 7.04 4.136 9.924 2.689z"/>
        <path fill="#f55" stroke="#000" stroke-width=".5" d="M31.036 119.275c4.994-2.507 3.502-4.43-.211-6.01-2.956-1.26-3.38-2.89-7.075-2.607-2.605.199-7.868.319-.068 6.75 2.237 1.845 5.006 3.046 7.354 1.867z"/>
        <path fill="#ff8080" stroke="#000" stroke-width=".372" d="M165.71 131.964c-1.024-7.332-6.651-19.55 1.337-20.631 13.781 6.331 11.816 15.303 15.885 24.123z"/>
        <path fill="#faa" stroke="#000" stroke-width=".428" d="M178.494 142.204c7.686-3.168 6.571-7.356.855-9.354-4.55-1.59-6.663-3.865-12.352-3.508-4.009.252-12.951 1.967-.945 10.095 3.445 2.331 8.827 4.257 12.442 2.767z"/>
        <path fill="#f55" stroke="#000" stroke-width=".428" d="M177.116 140.433c6.261-2.581 4.39-4.56-.265-6.187-3.706-1.296-4.236-2.974-8.87-2.683-3.265.205-9.865.328-.085 6.948 2.805 1.9 6.276 3.135 9.22 1.922z"/>
        <path fill="#ff8080" stroke="#000" stroke-width=".399" d="M47.403 115.107c-1.181-7.328-13.637-16.951-4.427-18.033 15.888 6.328 13.622 15.295 18.313 24.11z"/>
        <path fill="#faa" stroke="#000" stroke-width=".5" d="M57.914 133.41c6.475-4.353 5.535-10.108.72-12.853-3.832-2.186-5.612-5.31-10.404-4.82-3.377.346-10.91 2.702-.796 13.87 2.901 3.205 7.435 5.85 10.48 3.803z"/>
        <path fill="#f55" stroke="#000" stroke-width=".5" d="M56.754 130.976c5.273-3.546 3.698-6.264-.224-8.5-3.121-1.78-3.568-4.087-7.471-3.687-2.751.281-8.31.45-.072 9.547 2.363 2.61 5.286 4.308 7.767 2.64z"/>
        <path fill="#ff8080" stroke="#000" stroke-width=".5" d="M239.986 125.162c.997-7.335 3.943-16.967-3.835-18.049-13.417 6.334-7.688 14.824-11.65 23.647z"/>
        <path fill="#faa" stroke="#000" stroke-width=".5" d="M227.498 136.024c-5.49-2.624-4.693-6.093-.61-7.748 3.25-1.317 4.758-3.2 8.822-2.905 2.863.208 9.25 1.629.674 8.361-2.46 1.932-6.304 3.527-8.886 2.292z"/>
        <path fill="#f55" stroke="#000" stroke-width=".5" d="M228.482 134.557c-4.471-2.137-3.135-3.776.19-5.124 2.647-1.073 3.025-2.463 6.335-2.223 2.332.17 7.046.272.061 5.756-2.004 1.573-4.483 2.597-6.586 1.591z"/>
        <path fill="#333" stroke="#000" stroke-width=".923" d="M239.195 105.528c.438 5.75 13.566 9.708 13.323 11.052-37.331 29.423-182.73 14.175-246.398-9.56 4.335-3.578 5.886-7.524 14.114-10.86 39.15 10.95 87.676 17.084 122.982 19.777 56.129 4.282 91.737-.2 95.979-10.409z"/>
        <path d="M235.813 137.192l.14.03c.553-2.778.65-4.543.658-5.915.004-.685-.014-1.271-.007-1.837a10.93 10.93 0 0 1 .138-1.718 11.15 11.15 0 0 0-.21 1.716c-.03.567-.036 1.154-.064 1.836-.056 1.363-.199 3.11-.794 5.859zM231.065 141.53l.143.009c.097-2.663.345-5.007 1.201-6.946-.947 1.909-1.293 4.252-1.486 6.93z"/>
        <path fill="url(#linearGradient5105)" stroke="#000" stroke-width=".466" d="M40.438 902.73c-.994 30.552-11.027 32.142-11.283 41.585-.15 5.542.932 6.68 2.998 11.348 2.106 4.759 2.389 13.15 10.362 13.147 11.553 0 9.152-10.084 11.44-14.8 2.306-4.754 2.816-6.126 3.245-10.219.395-3.769-3.872-7.147-4.304-14.071-.432-6.915-3.126-11.972-4.23-19.34-.915-6.107 1.344-4.77-2.194-10.9z" transform="translate(0 -796.362)"/>
        <path fill="#faa" stroke="#000" stroke-width=".466" d="M39.975 102.684c.072 2.032-.28 4.124 2.111 4.979 3.057-1.1 4.827-2.715 5.818-4.644 1.54-3.832-4.286-6.254-6.826-6.171z"/>
        <path fill="#ffd5d5" stroke="#000" stroke-width=".466" d="M39.953 97.06c-.702.894-2.695.854-1.53 3.71.975 2.427 2.264 2.52 3.577 2.44.399-1.068.353-2.138.431-3.207.47-1.752.78-3.41-2.478-2.944z"/>
        <path fill="#ffd5d5" stroke="#000" stroke-width=".466" d="M44.93 98.232c-4.376-1.648-2.632 1.05-3.016 2.37-.324 1.115-.538 2.492.646 3.423 1.655-.138 2.143-1.69 2.952-3.016.583-2.212.398-2.408-.581-2.777z"/>
        <path d="M46.4 105.147l-.23.034c1.365 8.815 1.428 18.062 2.52 27.07-.937-9.025-.84-18.253-2.059-27.137zM42.295 107.516h-.234c.083 8.543.357 17.56-1.582 25.787 2.094-8.205 1.976-17.236 2.049-25.787zM35.102 157.515c.9.338 2.143.654 3.552.896a32 32 0 0 0 4.525.447h.024c1.566-.035 3.113-.198 4.46-.543 1.35-.345 2.492-.871 3.25-1.622-.801.692-1.96 1.142-3.298 1.41-1.34.27-2.87.358-4.411.32h-.024a32.63 32.63 0 0 1-4.494-.228c-1.41-.168-2.664-.412-3.584-.68z"/>
        <path fill="url(#linearGradient4293-8-0)" stroke="#000" stroke-width=".391" d="M234.1 913.3c-.78 27.397-7.385 27.098-7.586 35.565-.118 4.97.733 5.99 2.356 10.176 1.655 4.267.036 11.487 6.302 11.484 9.08 0 6.152-8.129 7.95-12.358 1.812-4.263 2.213-5.492 2.55-9.163.31-3.38-2.242-4.074-2.581-10.283-.34-6.2-.995-11.997-2.145-18.56-.96-5.476.106-4.277-2.104-9.774z" transform="translate(0 -796.362)"/>
        <path fill="#faa" stroke="#000" stroke-width=".466" d="M232.889 113.415c.071 2.032-.28 4.123 2.111 4.978 3.057-1.1 4.827-2.715 5.818-4.643.795-3.188-.725-4.948-2.801-5.266-3.172-3.556-3.42 3.287-5.128 4.93z"/>
        <path fill="#ffd5d5" stroke="#000" stroke-width=".466" d="M235.049 107.349c-.703.894-3.706 1.692-2.54 4.547.974 2.428 1.092 2.125 2.405 2.045.398-1.069 1.362-2.138 1.44-3.207.512-1.948.904-3.404-1.305-3.385z"/>
        <path fill="#ffd5d5" stroke="#000" stroke-width=".466" d="M238.277 107.882c-1.806.138-1.685 1.373-2.152 2.65-.397 1.085-1.835 3.293-.65 4.223 1.654-.137 3.763-2.65 4.572-3.976.794-2.3.05-3.036-1.77-2.897z"/>
        <path d="M239.314 115.878l-.23.034c1.365 8.815 1.428 18.062 2.52 27.07-.937-9.026-.84-18.254-2.06-27.138zM235.208 118.246h-.233c.083 8.544.357 17.561-1.583 25.788 2.095-8.205 1.977-17.237 2.05-25.788zM230.257 161.85c.707.4 1.69.775 2.809 1.06a17.05 17.05 0 0 0 3.602.518h.02c1.252-.034 2.486-.225 3.557-.636 1.073-.411 1.972-1.04 2.562-1.934-.646.849-1.574 1.399-2.634 1.729-1.062.33-2.27.445-3.484.406h-.02a17.064 17.064 0 0 1-3.556-.296c-1.119-.21-2.118-.513-2.856-.846z"/>
        <path fill="url(#linearGradient5143)" stroke="#000" stroke-width=".466" d="M165.308 916.19c-.995 30.553-8.888 41.086-9.144 50.53-.15 5.541.932 6.68 2.998 11.347 2.106 4.759.045 12.811 8.018 12.807 11.554 0 7.828-9.065 10.116-13.781 2.306-4.754 2.816-6.125 3.245-10.218.395-3.77-4.177-14.053-4.61-20.977-.432-6.915-.864-14.766-2.396-22.058-1.283-6.106-.67-4.769-2.194-10.9z" transform="translate(0 -796.362)"/>
        <path fill="#faa" stroke="#000" stroke-width=".466" d="M165.204 117.266c.072 2.032-.28 4.123 2.112 4.979 3.056-1.1 4.827-2.716 5.818-4.644 1.54-3.832-4.287-6.254-6.827-6.171z"/>
        <path fill="#ffd5d5" stroke="#000" stroke-width=".466" d="M165.183 111.641c-.703.895-2.696.855-1.53 3.71.974 2.428 2.264 2.521 3.577 2.442.398-1.07.353-2.139.43-3.208.47-1.752.598-4.833-2.477-2.944z"/>
        <path fill="#ffd5d5" stroke="#000" stroke-width=".466" d="M170.517 112.022c-4.377-1.65-2.99 1.842-3.373 3.162-.325 1.114-.538 2.492.646 3.422 1.655-.137 2.958-1.689 3.767-3.016.582-2.211-.06-3.2-1.04-3.568z"/>
        <path d="M171.198 120.13l-.231.033c1.366 8.815 1.429 18.062 2.52 27.07-.937-9.025-.84-18.253-2.059-27.137zM166.948 121.937h-.233c.082 8.544.356 17.561-1.583 25.788 2.094-8.205 1.976-17.237 2.049-25.788zM160.175 178.673c.9.338 2.143.655 3.552.897 1.401.24 2.968.407 4.525.447h.025c1.566-.035 3.112-.198 4.46-.543 1.349-.346 2.491-.871 3.248-1.622-.8.692-1.959 1.142-3.297 1.41-1.34.27-2.869.358-4.411.32h-.024a32.631 32.631 0 0 1-4.494-.228c-1.41-.168-2.664-.412-3.584-.68z"/>
        <path fill="url(#linearGradient5097)" stroke="#000" stroke-width=".351" d="M19.057 896.715c-.795 21.652-7.11 29.117-7.315 35.809-.12 3.927.746 4.734 2.399 8.042 1.684 3.372.036 9.079 6.414 9.076 9.243 0 6.262-6.424 8.093-9.767 1.845-3.369 2.253-4.34 2.596-7.241.316-2.67-3.342-9.959-3.688-14.866-.345-4.9-1.034-10.41-1.917-15.631-.732-4.328 1.076-3.38-1.755-7.725z" transform="translate(0 -796.362)"/>
        <path fill="#faa" stroke="#000" stroke-width=".351" d="M18.686 97.743c.058 1.44-.224 2.922 1.69 3.528 2.445-.779 3.861-1.924 4.654-3.29 1.232-2.716-3.43-4.432-5.461-4.374z"/>
        <path fill="#ffd5d5" stroke="#000" stroke-width=".351" d="M18.67 93.757c-.563.634-2.157.606-1.225 2.63.78 1.72 1.811 1.786 2.862 1.73.318-.758.282-1.516.344-2.274.376-1.242.625-2.416-1.982-2.086z"/>
        <path fill="#ffd5d5" stroke="#000" stroke-width=".351" d="M22.651 94.588c-3.501-1.168-2.106.745-2.413 1.68-.26.79-.43 1.766.517 2.425 1.324-.097 1.714-1.197 2.361-2.137.466-1.567.319-1.706-.465-1.968z"/>
        <path d="M23.827 99.489l-.174.029c1.089 6.242 1.136 12.796 2.006 19.178-.754-6.397-.68-12.935-1.659-19.236zM20.542 101.167h-.176c.063 6.054.279 12.444-1.277 18.275 1.672-5.813 1.574-12.214 1.629-18.275zM14.95 142.055c.722.242 1.717.468 2.845.64a28.78 28.78 0 0 0 3.637.322c1.252-.026 2.488-.143 3.565-.39a8.438 8.438 0 0 0 1.478-.469c.44-.191.821-.418 1.124-.685-.32.245-.71.446-1.155.61-.444.163-.943.29-1.48.384-1.072.19-2.296.25-3.531.222h-.02a29.455 29.455 0 0 1-3.597-.156c-1.128-.118-2.13-.29-2.865-.478z"/>
        <path fill="url(#linearGradient5127)" stroke="#000" stroke-width=".43" d="M100.774 909.728c-.995 26.037-8.897 35.014-9.153 43.061-.15 4.723.933 5.693 3.001 9.671 2.108 4.055.046 10.917 8.027 10.914 11.565 0 7.835-7.725 10.126-11.745 2.308-4.05 2.819-5.22 3.248-8.708.396-3.211-4.181-11.975-4.614-17.876-.432-5.893-1.294-12.518-2.399-18.797-.916-5.204 1.346-4.064-2.196-9.289z" transform="translate(0 -796.362)"/>
        <path fill="#faa" stroke="#000" stroke-width=".422" d="M100.67 111.154c.072 1.666-.28 3.38 2.114 4.08 3.06-.901 4.834-2.225 5.826-3.805 1.542-3.14-4.292-5.125-6.836-5.057z"/>
        <path fill="#ffd5d5" stroke="#000" stroke-width=".422" d="M101.657 106.945c-.704.733-2.7.7-1.532 3.04.976 1.99 2.267 2.066 3.582 2.001.399-.876.353-1.752.431-2.628.47-1.436.782-2.795-2.481-2.413z"/>
        <path fill="#ffd5d5" stroke="#000" stroke-width=".498" d="M107.817 107.384c-5.136-1.601-3.09 1.021-3.54 2.303-.38 1.083-.632 2.422.758 3.326 1.942-.134 2.514-1.641 3.464-2.93.684-2.15.467-2.34-.682-2.699z"/>
        <path d="M106.671 113.5l-.209.038c1.36 7.214 1.416 14.794 2.502 22.173-.946-7.398-.855-14.958-2.084-22.247zM102.415 114.982h-.212c.076 7 .344 14.388-1.606 21.132 2.09-6.72 1.965-14.123 2.03-21.132zM95.636 163.514c.902.291 2.148.564 3.56.773 1.402.208 2.97.352 4.526.389h.024c1.565-.033 3.112-.175 4.46-.471a10.873 10.873 0 0 0 1.85-.565c.55-.231 1.027-.505 1.407-.826-.4.294-.889.535-1.444.732-.556.196-1.18.348-1.852.461-1.342.227-2.874.3-4.42.265h-.025a38.372 38.372 0 0 1-4.502-.186c-1.41-.141-2.665-.346-3.584-.572z"/>
        <path fill="url(#linearGradient5151)" stroke="#000" stroke-width=".455" d="M201.833 912.705c-.995 29.142-8.89 39.19-9.146 48.197-.15 5.285.933 6.372 2.999 10.824 2.106 4.538.045 12.219 8.02 12.215 11.557 0 7.83-8.646 10.119-13.145 2.306-4.534 2.816-5.842 3.246-9.746.395-3.595-4.179-13.404-4.611-20.009-.432-6.595-.525-14.175-2.397-21.039-1.55-5.683-.094-4.229-2.195-10.396z" transform="translate(0 -796.362)"/>
        <path fill="#faa" stroke="#000" stroke-width=".455" d="M201.423 117.257c.072 1.938-.28 3.933 2.112 4.749 3.058-1.05 4.828-2.59 5.82-4.43 1.54-3.655-4.288-5.965-6.829-5.886z"/>
        <path fill="#ffd5d5" stroke="#000" stroke-width=".455" d="M202.193 111.557c-.703.853-2.48 1.616-1.314 4.34.975 2.315 2.264 2.404 3.578 2.328.398-1.02.353-2.04.43-3.06.47-1.671.565-4.053-2.694-3.608z"/>
        <path fill="#ffd5d5" stroke="#000" stroke-width=".537" d="M208.562 112.869c-5.13-1.865-3.086 1.188-3.536 2.68-.38 1.26-.63 2.819.758 3.87 1.94-.155 2.511-1.91 3.46-3.41.683-2.501.467-2.723-.682-3.14z"/>
        <path d="M207.58 119.833l-.226.034c1.364 8.406 1.426 17.226 2.517 25.817-.939-8.609-.843-17.41-2.063-25.886zM203.041 121.805h-.227c.081 7.96.353 16.362-1.59 24.029 2.094-7.644 1.974-16.06 2.044-24.03zM196.699 172.472c.9.323 2.144.627 3.554.858 1.402.231 2.968.391 4.525.43h.025c1.566-.035 3.112-.191 4.46-.521a10.007 10.007 0 0 0 1.847-.63c.55-.258 1.026-.563 1.404-.92-.401.33-.89.6-1.446.821-.556.221-1.18.392-1.85.52-1.342.255-2.871.339-4.415.302l-.024-.001a34.218 34.218 0 0 1-4.496-.213c-1.41-.16-2.664-.392-3.584-.646z"/>
        <path fill="url(#linearGradient5113)" stroke="#000" stroke-width=".404" d="M73.768 904.76c-.878 25.986-7.843 34.944-8.07 42.976-.132 4.713.824 5.681 2.647 9.651 1.858 4.047.04 10.895 7.075 10.892 10.195 0 6.907-7.71 8.926-11.72 2.035-4.044 2.485-5.21 2.864-8.691.349-3.206-3.686-11.952-4.068-17.841-.38-5.881-1.14-12.493-2.114-18.76-.808-5.194 1.186-4.056-1.936-9.27z" transform="translate(0 -796.362)"/>
        <path fill="#faa" stroke="#000" stroke-width=".404" d="M73.677 106.22c.063 1.728-.248 3.506 1.863 4.234 2.697-.936 4.26-2.31 5.133-3.95 1.36-3.259-3.782-5.319-6.023-5.248z"/>
        <path fill="#ffd5d5" stroke="#000" stroke-width=".404" d="M74.546 101.85c-.62.762-2.378.728-1.35 3.156.86 2.065 1.998 2.144 3.157 2.077.351-.91.311-1.819.38-2.728.415-1.49.689-2.9-2.187-2.504z"/>
        <path fill="#ffd5d5" stroke="#000" stroke-width=".476" d="M79.974 102.307c-4.525-1.663-2.722 1.059-3.12 2.39-.334 1.124-.556 2.513.67 3.451 1.71-.138 2.215-1.703 3.052-3.041.602-2.23.412-2.428-.602-2.8z"/>
        <path d="M78.965 108.655l-.202.03c1.204 7.496 1.26 15.36 2.223 23.021-.828-7.676-.742-15.524-1.819-23.082zM75.215 110.192h-.205c.072 7.266.314 14.935-1.398 21.933 1.848-6.978 1.743-14.66 1.808-21.933zM69.238 158.446c.794.289 1.892.56 3.136.766 1.236.206 2.618.348 3.992.383h.021c1.382-.03 2.746-.17 3.935-.465a8.762 8.762 0 0 0 1.63-.562c.485-.23.904-.501 1.238-.82a4.752 4.752 0 0 1-1.276.733c-.49.197-1.041.35-1.633.463-1.183.228-2.532.303-3.893.27l-.021-.001a29.862 29.862 0 0 1-3.967-.19c-1.243-.143-2.35-.35-3.162-.577z"/>
        <path fill="url(#linearGradient5135)" stroke="#000" stroke-width=".455" d="M134.087 909.085c-.994 29.142-8.89 39.19-9.146 48.196-.15 5.286.933 6.372 3 10.824 2.106 4.539.044 12.22 8.02 12.216 11.556 0 7.829-8.647 10.118-13.145 2.307-4.535 2.817-5.843 3.246-9.747.395-3.595-4.098-13.41-4.611-20.008-.514-6.604-3.333-14.215-2.397-21.039.802-5.841 1.243-2.285-2.296-8.133z" transform="translate(0 -796.362)"/>
        <path fill="#faa" stroke="#000" stroke-width=".514" d="M132.504 115.922c.092 1.926-.36 3.908 2.712 4.718 3.924-1.042 6.198-2.573 7.47-4.4 1.978-3.632-5.504-5.928-8.766-5.85z"/>
        <path fill="#ffd5d5" stroke="#000" stroke-width=".514" d="M133.566 110.658c-.902.847-3.257 1.206-1.76 3.912 1.25 2.3 2.906 2.39 4.592 2.314.512-1.014.454-2.027.554-3.04.604-1.67.927-5.493-3.386-3.186z"/>
        <path fill="#ffd5d5" stroke="#000" stroke-width=".606" d="M141.669 111.562c-6.586-1.853-3.963 1.18-4.54 2.663-.488 1.252-.81 2.8.973 3.846 2.49-.154 3.224-1.898 4.442-3.39.876-2.484.6-2.704-.875-3.12z"/>
        <path d="M140.192 118.363l-.227.035c.682 4.204.95 7.967 1.183 11.762.233 3.794.432 7.607.977 11.904-.469-4.304-.591-8.12-.748-11.916-.157-3.796-.348-7.582-.959-11.82zM135.143 120.446h-.23c.04 4.082.168 7.557.042 10.997-.126 3.438-.504 6.843-1.476 10.77 1.046-3.91 1.502-7.31 1.705-10.76.203-3.445.152-6.935.188-11.007zM128.953 168.851c.9.324 2.145.627 3.554.86 1.402.23 2.969.39 4.525.428h.025c1.566-.034 3.112-.19 4.46-.52a10.008 10.008 0 0 0 1.847-.63c.55-.258 1.026-.563 1.404-.921-.4.33-.89.601-1.446.822-.556.22-1.18.392-1.85.52-1.341.255-2.871.339-4.414.301h-.025a34.216 34.216 0 0 1-4.496-.214c-1.41-.16-2.664-.391-3.584-.646z"/>
    </g>
</svg>
