<svg xmlns="http://www.w3.org/2000/svg" xmlns:xlink="http://www.w3.org/1999/xlink" cursor="default" viewBox="0 0 256 256">
    <defs>
        <linearGradient id="usedGradient3">
            <stop offset="0" stop-color="#f55"/>
            <stop offset="1" stop-color="#ff8080"/>
        </linearGradient>
        <linearGradient id="linearGradient5113" x1="77.321" x2="78.036" y1="956.469" y2="929.148" gradientUnits="userSpaceOnUse" xlink:href="#usedGradient3"/>
    </defs>
    <g fill-rule="evenodd">
        <path fill="url(#linearGradient5113)" stroke="#000" stroke-width=".404" d="M73.768 904.76c-.878 25.986-7.843 34.944-8.07 42.976-.132 4.713.824 5.681 2.647 9.651 1.858 4.047.04 10.895 7.075 10.892 10.195 0 6.907-7.71 8.926-11.72 2.035-4.044 2.485-5.21 2.864-8.691.349-3.206-3.686-11.952-4.068-17.841-.38-5.881-1.14-12.493-2.114-18.76-.808-5.194 1.186-4.056-1.936-9.27z" transform="translate(0 -796.362)"/>
        <path fill="#faa" stroke="#000" stroke-width=".404" d="M73.677 106.22c.063 1.728-.248 3.506 1.863 4.234 2.697-.936 4.26-2.31 5.133-3.95 1.36-3.259-3.782-5.319-6.023-5.248z"/>
        <path fill="#ffd5d5" stroke="#000" stroke-width=".404" d="M74.546 101.85c-.62.762-2.378.728-1.35 3.156.86 2.065 1.998 2.144 3.157 2.077.351-.91.311-1.819.38-2.728.415-1.49.689-2.9-2.187-2.504z"/>
        <path fill="#ffd5d5" stroke="#000" stroke-width=".476" d="M79.974 102.307c-4.525-1.663-2.722 1.059-3.12 2.39-.334 1.124-.556 2.513.67 3.451 1.71-.138 2.215-1.703 3.052-3.041.602-2.23.412-2.428-.602-2.8z"/>
        <path d="M78.763 108.685c1.209 7.524 1.256 15.333 2.223 23.021-.825-7.648-.746-15.552-1.819-23.082zM75.01 110.193c.072 7.265.314 14.934-1.398 21.932 1.848-6.978 1.743-14.66 1.808-21.933zM69.238 158.446c1.585.576 4.375 1.08 7.128 1.149h.021c2.766-.061 5.46-.563 6.803-1.847-1.406 1.17-4.083 1.532-6.802 1.465h-.021c-2.718.058-5.51-.314-7.129-.767z"/>
    </g>
</svg>
