<svg xmlns="http://www.w3.org/2000/svg" xmlns:xlink="http://www.w3.org/1999/xlink" cursor="default" viewBox="0 0 256 256">
    <defs>
        <linearGradient id="linearGradient0">
            <stop offset="0" stop-color="#f55"/>
            <stop offset="1" stop-color="#ff8080"/>
        </linearGradient>
        <linearGradient id="linearGradient1" x1="130.815" x2="132.077" y1="1025.341" y2="869.272" gradientTransform="translate(-1.01 -7.576)" gradientUnits="userSpaceOnUse" xlink:href="#linearGradient0"/>
    </defs>
    <g fill-rule="evenodd" stroke="#000">
        <path fill="#f55" d="M107.708 103.214c-15.49-21.676-29.841-43.45-47.003-67.35l8.022-26.652c5.352-2.76 44.04 59.082 66.38 88.573 17.15-29.549 43.23-91.22 51.85-89.271l13.18 21.843c-21.711 28.024-28.826 53.803-42.3 80.56z"/>
        <path fill="#ff2a2a" d="M59.346 29.726c22.425 32.478 46.144 65.337 63.135 96.217l25.254-9.85C121.243 85.367 73.32 10.392 68.05 9.934z"/>
        <path fill="#ff2a2a" d="M186.878 9.144c1.263.505 13.89 12.5 13.89 12.5-26.679 40.126-35.634 67.527-50.255 98.996l-20.708-11.87c23.79-30.463 38.926-79.74 57.073-99.626z"/>
        <path fill="#faa" d="M21.444 149.595c-.092-29.252 11.641-34.795 17.512-52.735 2.816-8.604 4.185-44.632 9.362-79.524.837-3.885 12.649-5.267 20.31-8.129-15.264 76.864 45.007 92.953 61.43 93.376 51.322 1.324 70.584-32.367 56.063-94.07 1.783-.915 11.364 4.798 17.046 7.197 0 0 .875 17.85 3.747 38.444 2.53 18.145 6.89 38.78 9.637 46.156 3.66 9.827 13.859 20.399 17.552 44.573z"/>
        <path fill="#f55" d="M32.83 235.797l-4.04-27.527 86.115 2.778c14.836-.813 25.57-.087 38.007 0l72.605-.252-3.789 22.728z"/>
        <path fill="#ff2a2a" d="M31.188 231.125l3.662 18.309s21.867.798 32.176.84c18.042.073 41.51-1.878 65.356-1.894 44.525-.029 88.21.675 88.21.675 2.172-7.113 1.38-13.468 2.652-20.582-11.812 5.694-22.522 3.457-58.588 3.241-17.909-.107-37.075-1.401-57.578-.907-27.467.661-55.093 3.053-75.89.318z"/>
        <path fill="url(#linearGradient1)" d="M41.416 897.304c8.919-46.14 9.224-70.102 11.364-86.62 4.718-1.755 6.462-2.104 8.082-2.779-11.98 90.054 68.927 116.158 112.17 85.943 21.449-14.986 29.036-49.121 19.276-86.89l8.712 4.104c2.68 32.002 2.694 52.654 14.648 88.262l-57.882 110.642-49.34-1.964z" transform="translate(0 -796.362)"/>
        <path fill="#ff8080" d="M112 211.806c-30.051 12.206-65.005 24.691-80.433.757-3.013-4.674-17.51-35.102-10.101-64.144-2.42-15.62 13.63-33.163 20.233-49.75 13.34 12.276 52.108 42.376 70.302 113.137zM224.759 212.058c-8.078 21.433-40.462 12.551-71.468 1.516 7.46-59.324 47.414-91.925 62.187-110.99 3.536 6.691 12.582 20.808 17.362 32.829 8.566 21.54 2.169 61.792-8.081 76.645z"/>
    </g>
</svg>
