<svg xmlns="http://www.w3.org/2000/svg" xmlns:xlink="http://www.w3.org/1999/xlink" cursor="default" viewBox="0 0 256 256">
    <defs>
        <linearGradient id="innoGrad1">
            <stop offset="0" stop-color="#ff7f2a" stop-opacity=".784"/>
            <stop offset=".466" stop-color="#ffb380" stop-opacity=".664"/>
            <stop offset="1" stop-color="#ffe6d5" stop-opacity=".502"/>
        </linearGradient>
        <linearGradient id="linearGradient1" x1="65.966" x2="64.271" y1="95.307" y2="169.253" gradientTransform="translate(-10.67 -10.948) scale(1.071)" gradientUnits="userSpaceOnUse" xlink:href="#innoGrad1"/>
        <linearGradient id="linearGradient3" x1="189.428" x2="194.713" y1="95.464" y2="169.758" gradientTransform="translate(-10.67 -10.948) scale(1.071)" gradientUnits="userSpaceOnUse" xlink:href="#innoGrad1"/>
    </defs>
    <g stroke="#000">
        <path fill="#fff6d5" fill-rule="evenodd" stroke-width="1.071" d="M149.765 138.325c-2.791-4.7-5.757-9.854-6.766-16.181-.695-2.956-3.28.729-2.526 2.293 1.976 4.765 3.684 9.523 6.775 14.318 1.192.894 3.48 1.388 2.517-.43z"/>
        <path fill="#f55" fill-rule="evenodd" stroke-width="1.071" d="M108.24 130.357c-2.073-2.36-2.348-4.544.67-6.407 1.3-.924 1.492-2.586 2.103-3.969.473-.42 3.458-.94 2.582 2.534-1.178 2.31-1.54 4.213-5.355 7.842z"/>
        <path fill="#fff6d5" fill-rule="evenodd" stroke-width="1.071" d="M113.547 121.081c-1.612 5.223-3.444 10.88-7.458 15.874-1.726 2.498 2.74 1.943 3.394.335 2.208-4.663 4.59-9.122 6.072-14.631-.137-1.484-1.305-3.511-2.008-1.578z"/>
        <path fill="#f55" fill-rule="evenodd" stroke-width="1.05" d="M147.877 131.142c1.989-2.364 3.496-3.453.601-5.32-1.247-.925-1.575-3.165-2.161-4.55-.453-.42-3.317-.943-2.477 2.54 1.13 2.314.379 3.694 4.037 7.33z"/>
        <path fill="#f55" fill-rule="evenodd" stroke-width="1.071" d="M4.879 118.34c1.898-5.335 7.886-8.665 12.235-11.183 8.886 15.21 11.246 17.084 16.808 25.309 1.613 2.386-.217 10.077-2.276 6.38-5.437-9.76-1.123-6.635-15.269-29.11L7.75 120.332z"/>
        <path fill="#ff8080" fill-rule="evenodd" stroke-width="1.071" d="M14.687 119.609c-1.505.181-3.038.102-4.586-.107 2.776-2.707-3.818-1.488-5.421-1.043-.373 1.09-.88 4.166 0 6.289 3.76.874 6.636 1.045 9.94 1.555z"/>
        <path fill="#f55" fill-rule="evenodd" stroke-width="1.071" d="M252.572 119.579c-1.897-5.335-8.65-8.904-13-11.422-8.885 15.21-10.48 17.322-16.042 25.547-1.614 2.387.216 10.077 2.276 6.38 5.436-9.76.406-6.586 14.551-29.06l9.346 10.545z"/>
        <path fill="#ff8080" fill-rule="evenodd" stroke-width="1.071" d="M242.765 120.847c1.504.182 3.038.102 4.586-.106-2.776-2.708 3.817-1.49 5.42-1.043.373 1.09.881 4.166 0 6.288-3.76.874-6.636 1.045-9.939 1.555z"/>
        <path fill="none" stroke-width="1.071" d="M10.224 119.508c-2.276.067-3.757-.462-5.342-.913M247.459 120.69c2.54-.247 3.389-.495 4.97-.743"/>
        <path fill="url(#linearGradient1)" fill-rule="evenodd" stroke-width="2.142" d="M67.225 83.366c-38.352-.152-48.7 11.355-52.78 35.384l.151 8.082c4.887 26.04 20.987 42.666 41 43.355 38.825 1.335 57.965-46.374 58.69-59.233l.478-8.615c-1.938-3.744 2.035-18.776-47.539-18.973z"/>
        <path fill="#ff8080" fill-rule="evenodd" stroke-width="1.071" d="M74.663 83.366c39.451-1.978 84.383-.768 117.383.27l-19.54 1.623c.87-1.1-78.981-2.083-80.465-.202-.27-.068-17.378-1.69-17.378-1.69z"/>
        <path fill="url(#linearGradient3)" fill-rule="evenodd" stroke-width="2.142" d="M189.564 83.98c38.352-.152 48.7 12.216 52.78 36.244l-.151 8.083c-4.887 26.04-21.56 42.666-41.573 43.354-38.826 1.335-58.922-46.469-59.265-60.189l-.477-8.615c1.938-3.744-.888-18.68 48.686-18.877z"/>
        <path fill="#ff8080" fill-rule="evenodd" stroke-width="1.071" d="M114.073 102.386c.048.335-.047 8.654-.047 8.654l4.829-1.434 17.308.048 5.594 1.53-.144-8.415-4.78 1.817-17.93-.24z"/>
    </g>
</svg>
