<svg xmlns="http://www.w3.org/2000/svg" xmlns:xlink="http://www.w3.org/1999/xlink" cursor="default" viewBox="0 0 256 256">
    <defs>
        <linearGradient id="innoGrad1">
            <stop offset="0" stop-color="#fea" stop-opacity=".502"/>
            <stop offset="1" stop-color="#fff6d5" stop-opacity=".502"/>
        </linearGradient>
        <linearGradient id="linearGradient978" x1="64.821" x2="63.75" y1="125.107" y2="167.786" gradientUnits="userSpaceOnUse" xlink:href="#innoGrad1"/>
        <linearGradient id="linearGradient986" x1="197.143" x2="197.321" y1="125.286" y2="167.429" gradientUnits="userSpaceOnUse" xlink:href="#innoGrad1"/>
    </defs>
    <path fill="#ffb380" fill-rule="evenodd" stroke="#000" stroke-width="1.104" d="M233.664 90.46c.133-.679-1.948-2.167-2.462-.76.585 1.52-.095 1.47.407 1.872 7.134 11.404 10.364 23.523 16.897 32.096l2.81-4.401c-5.775-10.806-12.082-18.009-17.652-28.806zM113.528 141.898c7.395-6.54 35.228-1.779 29.416.349l-1.045-7.04c-8.825.409-17.635.831-28.092-.21zM22.51 89.532c-.133-.68 1.948-2.168 2.462-.76-.585 1.52.095 1.469-.407 1.871C17.43 102.047 14.2 114.167 7.668 122.74l-2.81-4.401c5.774-10.806 12.081-18.009 17.652-28.806z"/>
    <path fill="#f55" fill-rule="evenodd" stroke="#000" stroke-width="1.104" d="M2.313 125.239c.557-2.521.848-5.042 2.37-7.563l2.544.522-.056 3.347L2.8 133.69z"/>
    <path fill="#ececec" fill-opacity=".453" fill-rule="evenodd" stroke="#000" stroke-width="1.104" d="M143.492 142.054c7.092-5.81 16.459 14.234 9.131 17.984-2.254 1.154-12.025-15.613-9.131-17.984z"/>
    <path fill="none" stroke="#000" stroke-width="1.104" d="M153.61 149.399c.321 2.212-.654 4.379-1.528 1.873"/>
    <path fill="#ececec" fill-opacity=".455" fill-rule="evenodd" stroke="#000" stroke-width="1.104" d="M113.15 141.92c-7.093-5.81-16.46 14.234-9.132 17.984 2.254 1.154 12.026-15.613 9.132-17.984z"/>
    <path fill="none" stroke="#000" stroke-width="1.104" d="M103.038 149.166c-.321 2.212.654 4.379 1.528 1.873"/>
    <path fill="#f55" fill-rule="evenodd" stroke="#000" stroke-width="1.104" d="M109.95 149.195c.762-6.109.047-8.831-1.162-6.53.357 3.072-.536 6.1-1.75 9.041l-2.492-.685c3.043-9.692.151-6.994-1.55-1.568-.97-.808.813-7.232 2.865-7.276 2.137-.694 4.275-7.203 6.413 1.952zM146.682 149.33c-.762-6.11-.048-8.832 1.161-6.53-.357 3.07.537 6.1 1.751 9.04l2.491-.685c-3.043-9.692-.15-6.994 1.55-1.567.971-.81-.812-7.233-2.864-7.277-2.138-.694-4.275-7.203-6.413 1.952z"/>
    <path fill="#ff8080" fill-rule="evenodd" stroke="#000" stroke-width="1.104" d="M2.975 125.879l3.625-3.603c1.746-1.679 5.762-.4 5.507.872a23.82 23.82 0 0 1-.105 4.6z"/>
    <path fill="#f55" fill-rule="evenodd" stroke="#000" stroke-width="1.104" d="M13.884 126.912c-3.047-.255-7.398-.8-11.188-1.22l.105 7.772c4.836 2.24 7.56 2.51 11.153 3.59z"/>
    <path fill="url(#linearGradient978)" fill-rule="evenodd" d="M33.595 116.064c7.024.027 15.51 1.06 24.467 1.537 24.993 1.333 55.058 6.405 54.583 17.677l-.479 6.982s-5.426 19.287-15.852 26.114c-7.778 5.093-19.39 5.47-34.425 6.068-48.705 1.94-44.864-20.736-46.628-42.886-1.017-12.784 6.627-15.537 18.334-15.492z"/>
    <path fill="#ff8080" fill-rule="evenodd" stroke="#000" stroke-width="1.104" d="M36.582 114.557c-14.366-.22-24.374 2.372-23.22 16.865 1.817 22.828-1.751 47.114 48.445 45.114 15.496-.617 26.968-1.192 34.984-6.441 10.745-7.036 16.844-27.928 16.844-27.928l.493-7.196c.49-11.617-30.135-17.85-55.894-19.224-7.692-.41-15.122-1.09-21.652-1.19zm-2.987 1.507c7.024.027 15.51 1.06 24.467 1.537 24.993 1.333 55.058 6.405 54.583 17.677l-.479 6.982s-5.426 19.287-15.852 26.114c-7.778 5.093-19.39 5.47-34.425 6.068-48.705 1.94-44.864-20.736-46.628-42.886-1.017-12.784 6.627-15.537 18.334-15.492z"/>
    <path fill="url(#linearGradient986)" fill-rule="evenodd" d="M222.335 115.64c-7.024.027-15.51 1.06-24.467 1.538-24.993 1.333-55.058 6.404-54.583 17.676l.479 6.983s5.426 19.286 15.852 26.114c7.778 5.093 19.39 5.469 34.425 6.068 48.705 1.94 44.864-20.736 46.628-42.887 1.017-12.784-6.628-15.536-18.334-15.491z"/>
    <path fill="#ff8080" fill-rule="evenodd" stroke="#000" stroke-width="1.104" d="M219.348 114.133c14.366-.22 24.374 2.373 23.22 16.866-1.817 22.828 1.751 47.113-48.446 45.114-15.495-.618-26.967-1.192-34.983-6.441-10.745-7.037-16.844-27.928-16.844-27.928l-.493-7.196c-.49-11.617 30.135-17.85 55.894-19.224 7.692-.41 15.122-1.09 21.652-1.19zm2.987 1.508c-7.024.026-15.51 1.06-24.467 1.537-24.993 1.333-55.058 6.404-54.583 17.676l.479 6.983s5.426 19.286 15.852 26.114c7.778 5.093 19.39 5.469 34.425 6.068 48.705 1.94 44.864-20.736 46.628-42.887 1.017-12.784-6.628-15.536-18.334-15.491z"/>
    <path fill="#433c3c" fill-rule="evenodd" stroke="#000" stroke-width="1.104" d="M21.517 90.09c2.279-4.77 9.098-12.378 14.29-12.67 5.33-.298 19.907 7.74 28.927 12.722 1.735.958 2.08 9.41-1.707 8.26-3.869-1.278-24.69-17.901-27.917-17.008-3.062.847-7.261 7.168-10.892 10.752-.802-1.284-1.543-1.67-2.701-2.056z"/>
    <path fill="#f55" fill-rule="evenodd" stroke="#000" stroke-width="1.104" d="M253.735 126.456c-.556-2.52-.848-5.042-2.37-7.563l-2.544.523.057 3.346 4.37 12.146z"/>
    <path fill="#ff8080" fill-rule="evenodd" stroke="#000" stroke-width="1.104" d="M252.115 126.678l-3.624-3.602c-1.746-1.68-5.762-.401-5.507.87a23.82 23.82 0 0 0 .104 4.601z"/>
    <path fill="#f55" fill-rule="evenodd" stroke="#000" stroke-width="1.104" d="M242.714 127.92c3.048-.255 7.398-.8 11.188-1.22l-.104 7.772c-4.837 2.241-7.56 2.51-11.153 3.59z"/>
    <path fill="#433c3c" fill-rule="evenodd" stroke="#000" stroke-width="1.104" d="M233.988 90.03c-2.28-4.769-9.099-12.377-14.29-12.668-5.33-.3-19.907 7.74-28.928 12.72-1.735.959-2.08 9.411 1.708 8.261 3.868-1.278 24.69-17.901 27.917-17.008 3.061.847 7.26 7.168 10.891 10.752.803-1.284 1.544-1.67 2.702-2.056z"/>
</svg>
