<svg xmlns="http://www.w3.org/2000/svg" cursor="default" viewBox="0 0 256 256">
    <g stroke="#000">
        <path fill="#333" fill-rule="evenodd" stroke-width=".98" d="M252.157 221.512c5.795 6.67-45.713 6.325-67.2 6.064l-3.279-9.53z"/>
        <path fill="#ffd5d5" fill-rule="evenodd" stroke-width=".98" d="M115.592 133.15l17.078 45.418 15.223 10.767c-6.494-21.26-24.004-75.148-32.3-56.185z"/>
        <path fill="none" stroke-dasharray="1.9602,.9801" stroke-width=".49" d="M109.584 121.646c21.825 30.533 20.391 45.564 36.404 67.557"/>
        <path fill="#faa" fill-rule="evenodd" stroke-width=".98" d="M73.793 27.926C76.47 23.8 84.086 30.44 85.581 32.63 102.92 58 115.353 76.733 128.34 100.107c16.979 30.56 25.24 75.531 52.596 82.67l-6.187 8.415c-52.594-34.16-71.493-104.148-100.955-163.266z"/>
        <path fill="#f55" fill-rule="evenodd" stroke-width=".98" d="M145.195 186.848c-11.455-26.486-26.13-52.972-40.254-79.458L74.138 29.857c2.357-2.255 7.884.123 12.164 7.088 13.722 22.333 24.566 36.927 40.67 64.772 11.94 20.645 23.11 74.185 52.253 82.083.663 1.506-33.058 9.203-34.03 3.048z"/>
        <path fill="none" stroke-width=".49" d="M101.703 60.047c-5.02 5.514-2.897 13.005-6.125 19.252"/>
        <path fill="#ff8080" fill-rule="evenodd" stroke-width=".98" d="M54.647 51.48c6.69-7.826 11.568-17.705 19.734-24.266l37.498 89.476 21.24 55.981c5.384 14.192 20.682 15.3 29.053 13.302 11.705-2.795 31.175-7.23 33.078-5.863 19.487 13.983 59.954 32.141 57.406 41.741-1.412 5.321-85.273 3.231-127.063-1.925z"/>
        <path fill="#f55" fill-rule="evenodd" stroke-width=".98" d="M9.031 105.99c12.154 25.806 8.597 110.839 8.597 110.839l5.857.04s-1.26-74.162 5.673-85.152z"/>
        <path fill="#ffd5d5" fill-rule="evenodd" stroke-width=".98" d="M41.76 97.064l17.326 100.81 29.928 10.501 16.627-10.151L66.787 89.888z"/>
        <path fill="none" stroke-dasharray="1.9602,.9801" stroke-width=".49" d="M54.361 98.814c25.325 24.444 14.362 76.366 38.679 102.735"/>
        <path fill="#faa" fill-rule="evenodd" stroke-width=".98" d="M34.044 32.281c1.476-2.787 7.659-1.763 10.34.201 11.322 8.29 50.208 64.324 59.142 88.416 11.954 32.235 21.755 57.018 37.807 69.799l-1.732 1.485C102.495 179.284 33.099 54.165 34.044 32.282z"/>
        <path fill="#ff2a2a" fill-rule="evenodd" stroke-width=".98" d="M43.51 100.914c3.221-3.562 11.277-3.2 18.902-1.925L43.335 78.687z"/>
        <path fill="#f55" fill-rule="evenodd" stroke-width=".98" d="M137.868 190.573c-21.354-18.993-27.906-48.574-37.993-69.675-14.23-29.77-26.63-52.866-53.091-83.845-6.467-7.57-12.95-3.077-14.356-1.423l9.158 51.483c8.737-2.372 27.092 19.274 31.681 39.973 5.735 25.861 7.852 54.918 23.638 75.12z"/>
        <path fill="#ff8080" fill-rule="evenodd" stroke-width=".98" d="M56.042 226.064c36.04 14.657 134.977 8.462 137.022 5.472 6.258-9.15-36.808-34.011-49.008-41.83-7.305-4.681-43.896 8.998-62.373 9.901-14.212.695-27.578-23.958-28.96-48.017-1.21-21.1-5.1-52.195-9.898-77.39-4.204-22.073-9.553-39.576-8.417-42.407C21.6 46.913 14.765 61.23 6.412 77.943c-5.612 11.228-.506 27.793 9.623 39.315 37.105 42.208 22.488 101.681 40.007 108.806z"/>
        <path fill="#333" fill-rule="evenodd" stroke-width=".98" d="M50.686 220.801c2.11 9.931 19.584 14.096 55.655 15.752 29.399 1.35 80.107.128 84.096-2.1 1.88-1.05 2.045-2.45 2.888-3.5-1.124.837-17.379 3.536-75.96.805-25.013-1.167-57.753-.189-66.68-10.957zM17.677 215.368l-.201 6.311 6.176.019-.15-6.126z"/>
        <path fill="none" stroke-width=".49" d="M57.861 96.889c10.393-14.032 2.88-29.013 7.351-35.879M99.504 120.65c2.17-.849 3.176-.535 4.084-.123M103.588 121.517c1.772-2.373 7.9-5.537 8.401-4.39M24.384 127.457c-3.249 29.702-1.743 58.267-2.362 87.968"/>
    </g>
</svg>
