<svg xmlns="http://www.w3.org/2000/svg" xmlns:xlink="http://www.w3.org/1999/xlink" cursor="default" viewBox="0 0 256 256">
    <defs>
        <linearGradient id="innoGrad4">
            <stop offset="0" stop-color="#faa"/>
            <stop offset="1" stop-color="#ff8080"/>
        </linearGradient>
        <linearGradient id="innoGrad3">
            <stop offset="0" stop-color="#faa"/>
            <stop offset="1" stop-color="#ff8080"/>
        </linearGradient>
        <linearGradient id="linearGradient4354">
            <stop offset="0" stop-opacity=".251"/>
            <stop offset="1" stop-color="#f55" stop-opacity="0"/>
        </linearGradient>
        <linearGradient id="innoGrad2">
            <stop offset="0" stop-color="#faa"/>
            <stop offset="1" stop-color="#ff8080"/>
        </linearGradient>
        <linearGradient id="innoGrad1">
            <stop offset="0" stop-color="#faa"/>
            <stop offset="1" stop-color="#ff8080"/>
        </linearGradient>
        <linearGradient id="linearGradient4340" x1="368.453" x2="317.188" y1="88.567" y2="100.689" gradientTransform="translate(-243.571 -10.714)" gradientUnits="userSpaceOnUse" xlink:href="#innoGrad1"/>
        <linearGradient id="linearGradient4348" x1="405.576" x2="377.039" y1="184.784" y2="202.209" gradientTransform="translate(-243.571 -10.714)" gradientUnits="userSpaceOnUse" xlink:href="#innoGrad2"/>
        <linearGradient id="linearGradient4360" x1="335.446" x2="335.893" y1="43.589" y2="38.5" gradientTransform="matrix(1.0084 0 0 .99957 -246.171 -10.518)" gradientUnits="userSpaceOnUse" xlink:href="#linearGradient4354"/>
        <linearGradient id="linearGradient4374" x1="412.142" x2="375.777" y1="78.213" y2="85.284" gradientTransform="translate(-243.571 -10.714)" gradientUnits="userSpaceOnUse" xlink:href="#innoGrad3"/>
        <linearGradient id="linearGradient4382" x1="434.113" x2="415.93" y1="171.905" y2="182.511" gradientTransform="translate(-243.571 -10.714)" gradientUnits="userSpaceOnUse" xlink:href="#innoGrad4"/>
        <linearGradient id="linearGradient4360-4" x1="335.446" x2="335.893" y1="43.589" y2="38.5" gradientTransform="matrix(1.02632 -.03217 .03251 .99802 -215.768 -6.132)" gradientUnits="userSpaceOnUse" xlink:href="#linearGradient4354"/>
    </defs>
    <g fill-rule="evenodd">
        <path fill="url(#linearGradient4374)" stroke="#000" d="M170.591 83.03l-1.389-58.21-77.024-3.41-1.515 26.77 58.715 101.773z" transform="matrix(.9606 0 0 .9606 5.736 -.662)"/>
        <path fill="#faa" stroke="#000" stroke-width="1.023039" d="M94.583 20.045c.869 2.85 14.411 4.915 29.675 5.828.645.039 1.121 2.605 1.771 2.64.596.031 1.365-2.469 1.964-2.44 18.236.854 37.63.067 40.243-2.962 3.7-4.291-74.842-6.967-73.653-3.066z"/>
        <g stroke="#000">
            <path fill="#808080" stroke-width=".9606" d="M121.703 32.386c.154.18 3.457 2.123 3.457 2.123.553-.072 2.916-1.957 3.275-2.517 0 0 .816-2.904.576-3.73-.232-.797-1.93-1.718-2.76-1.759 0 0-2.96.88-3.305 1.486-.391.687-1.243 4.397-1.243 4.397z"/>
            <path fill="#ffd5d5" stroke-width=".9606" d="M122.35 32.402l-1.2 18.954 4.888.258.858-19.47z"/>
            <path fill="#b3b3b3" stroke-width=".9606" d="M123.723 32.852l.876-3.75c.644-.844 1.334-.771 2.058 0l-.878 3.392z"/>
        </g>
        <path fill="url(#linearGradient4382)" stroke="#000" d="M227.16 203.112c6.002-9.754-2.292-21.547-9.723-22.855-45.764-8.054-43.986-67.39-45.078-100.636-.031-.945-10.354 1.6-15.531 2.399-4.688.724-8.122 4.678-8.334 8.586l-3.41 62.756c-6.082 23.954-.328 43.68 32.704 53.664 16.622 1.483 33.39 5.48 49.372-3.914z" transform="matrix(.9606 0 0 .9606 5.736 -.662)"/>
        <path fill="#fca" stroke="#000" stroke-width=".9606" d="M174.457 198.57c28.557 2.535 46.228-2.46 49.943-4.458 1.03-.554-.928 12.187-3.316 13.64-2.861 1.743-20.91 5.95-34.11 5.365z"/>
        <path fill="#f55" stroke="#000" stroke-width=".8289978" d="M97.47 20.21c.777 2.129 14.105 3.733 28.735 4.444 17.194.836 36.188.437 38.722-1.797 3.466-3.056-68.48-5.453-67.457-2.648z"/>
        <path fill="url(#linearGradient4360-4)" d="M95.498 21.728c.804 2.205 14.543 3.87 29.683 4.616 17.96.884 37.892.475 40.54-1.86 3.608-3.181-71.289-5.676-70.223-2.756z" transform="matrix(.9606 0 0 .9606 5.736 -.662)"/>
    </g>
    <path fill="#ffb380" fill-rule="evenodd" stroke="#000" d="M54.802 134.295l23.482 16.276-3.657 61.885-16.71 2.885z"/>
    <path fill="#fca" fill-rule="evenodd" stroke="#000" d="M41.892 125.204c5.877 27.8 6.523 56.182 8.365 84.43l10.295 3.803c1.68-36.836-2.628-53.69-4.65-77.023z"/>
    <path fill="url(#linearGradient4340)" fill-rule="evenodd" stroke="#000" d="M85.107 200.586c-3.302-30.695-21.89-57.865-43.058-74.462-4.025-17.187 4.072-40.544 8.817-46.66 7.099-9.148 5.346-38.444 4.82-52.434l75.004 5.492 7.955 61.367c-17.838 35.57-1.494 90.673-53.538 106.697z"/>
    <path fill="url(#linearGradient4348)" fill-rule="evenodd" stroke="#000" d="M88.873 211.587c-1.307-3.696-2.594-7.412-3.668-11.342 19.524-18.002 26.627-31.41 21.873-91.33-.335-4.22 2.296-8.976 6.818-10.606 8.163-2.943 24.772-9.344 24.988-7.695 3.886 29.682 9.842 52.182 19.345 81.726 1.884 5.856 15.61 17.019 26.63 21.175 7.988 3.013 16.192 10.855 12.627 26.264-12.452 9.145-83.682 32.739-108.613-8.192z"/>
    <path fill="#fca" fill-rule="evenodd" stroke="#000" d="M194.582 233.669c1.37-.645 4.438-16.092 2.904-15.657-47.632 13.5-104.12 4.606-109.727-9.723 2.135 9.108 4.859 18.133 10.227 26.264 7.363 11.15 70.663 11.322 96.596-.884z"/>
    <path fill="#f95" fill-rule="evenodd" stroke="#000" d="M60.737 212.708s-.442 7.198.19 6.945c.63-.252 13.7-3.062 13.7-3.062l.031-6.627z"/>
    <path fill="#ffb380" fill-rule="evenodd" stroke="#000" d="M50.194 209.52c0 .505.031 6.124.031 6.124l10.362 3.896-.032-6.719z"/>
    <path fill="#faa" fill-rule="evenodd" stroke="#000" stroke-width="1.056" d="M55.511 26.854c1.792 6.772 69.846 11.482 75.156 5.599 3.925-4.35-76.241-9.7-75.156-5.6z"/>
    <path fill="none" stroke="#000" d="M71.247 159.18c-8.427-11.43-.54-44.292-5.964-61.124-2.48-7.696-14.647-18.183-14.647-18.183"/>
    <path fill="#f55" fill-rule="evenodd" stroke="#000" stroke-width=".856" d="M58.456 27.12c1.572 4.88 63.91 9.113 68.839 4.96 3.643-3.07-69.791-7.915-68.839-4.96z"/>
    <path fill="url(#linearGradient4360)" fill-rule="evenodd" d="M58.456 27.12c1.572 4.88 63.91 9.113 68.839 4.96 3.643-3.07-69.791-7.915-68.839-4.96z"/>
</svg>
