<?xml version="1.0" encoding="UTF-8" standalone="no"?>
<!-- Created with Inkscape (http://www.inkscape.org/) -->

<svg
   xmlns:dc="http://purl.org/dc/elements/1.1/"
   xmlns:cc="http://creativecommons.org/ns#"
   xmlns:rdf="http://www.w3.org/1999/02/22-rdf-syntax-ns#"
   xmlns:svg="http://www.w3.org/2000/svg"
   xmlns="http://www.w3.org/2000/svg"
   xmlns:sodipodi="http://sodipodi.sourceforge.net/DTD/sodipodi-0.dtd"
   xmlns:inkscape="http://www.inkscape.org/namespaces/inkscape"
   viewBox="0 0 256 256"
   id="svg4166"
   version="1.1"
   inkscape:version="0.91 r13725"
   sodipodi:docname="groin_panties.svg">
  <style
     id="style3">
    svg { cursor: default; }
  </style>
  <defs
     id="defs4168">
    <inkscape:path-effect
       effect="powerstroke"
       id="path-effect4202"
       is_visible="true"
       offset_points="0,0.5"
       sort_points="true"
       interpolator_type="Linear"
       interpolator_beta="0.2"
       start_linecap_type="zerowidth"
       linejoin_type="round"
       miter_limit="4"
       end_linecap_type="zerowidth"
       cusp_linecap_type="round" />
  </defs>
  <sodipodi:namedview
     id="base"
     pagecolor="#ffffff"
     bordercolor="#666666"
     borderopacity="1.0"
     inkscape:pageopacity="0.0"
     inkscape:pageshadow="2"
     inkscape:zoom="3.959798"
     inkscape:cx="91.424317"
     inkscape:cy="52.803454"
     inkscape:document-units="px"
     inkscape:current-layer="layer2"
     showgrid="false"
     units="px"
     inkscape:window-width="1895"
     inkscape:window-height="1134"
     inkscape:window-x="25"
     inkscape:window-y="0"
     inkscape:window-maximized="1" />
  <metadata
     id="metadata4171">
    <rdf:RDF>
      <cc:Work
         rdf:about="">
        <dc:format>image/svg+xml</dc:format>
        <dc:type
           rdf:resource="http://purl.org/dc/dcmitype/StillImage" />
        <dc:title />
      </cc:Work>
    </rdf:RDF>
  </metadata>
  <g
     inkscape:groupmode="layer"
     id="layer2"
     inkscape:label="patternLayer"
     style="display:inline">
    <path
       style="display:inline;fill:#ffd5d5;fill-opacity:1;fill-rule:evenodd;stroke:#000000;stroke-width:1;stroke-linecap:butt;stroke-linejoin:miter;stroke-miterlimit:4;stroke-dasharray:none;stroke-opacity:1"
       d="m 244.96885,83.617432 c 1.77785,7.135378 4.36139,16.707998 8.833,28.300908 -14.46471,23.82811 -38.06218,37.41185 -50.03848,45.52663 -33.00541,22.36345 -37.59962,28.67966 -44.53186,36.20366 -2.93802,3.20135 -6.26655,9.25799 -9.01093,10.14964 -9.10136,2.9572 -18.46396,3.3333 -29.0161,-0.82009 -2.61814,-1.03052 -3.04332,-4.87282 -5.32744,-7.26131 -8.85913,-10.23733 -19.038697,-17.93422 -41.691091,-32.5381 -22.646911,-14.60035 -56.338686,-35.75049 -57.776967,-46.29381 4.343704,-16.5792 4.825041,-19.81364 4.933287,-31.479298 26.619483,14.314075 63.074059,24.770848 93.931561,27.375618 28.05945,2.36857 50.6252,-2.281 73.61289,-6.3158 28.07826,-4.9283 49.68076,-13.35034 56.08213,-22.848048 z"
       id="path4196-3"
       inkscape:connector-curvature="0"
       sodipodi:nodetypes="ccscsscsccssc" />
  </g>
  <g
     inkscape:label="Layer 1"
     inkscape:groupmode="layer"
     id="layer1"
     transform="translate(0,-796.36216)"
     style="display:inline">
    <path
       style="fill:#ff8080;fill-rule:evenodd;stroke:#000000;stroke-width:1px;stroke-linecap:butt;stroke-linejoin:miter;stroke-opacity:1"
       d="m 21.339285,881.38002 c 46.5291,8.31229 92.284975,49.19325 223.839285,-3.125 l 0.89286,8.57142 c -66.31602,40.37808 -143.62624,35.98151 -223.750002,3.03572 z"
       id="path4159"
       inkscape:connector-curvature="0"
       sodipodi:nodetypes="ccccc" />
    <path
       style="fill:none;fill-opacity:1;fill-rule:evenodd;stroke:#000000;stroke-width:1;stroke-linecap:butt;stroke-linejoin:miter;stroke-miterlimit:4;stroke-dasharray:none;stroke-opacity:1"
       d="m 244.91021,879.87046 c 1.77785,7.13538 4.36139,16.708 8.833,28.30091 -14.46471,23.82811 -38.06218,37.41185 -50.03848,45.52663 -33.00541,22.36345 -37.59962,28.67966 -44.53186,36.20366 -2.93802,3.20135 -6.26655,9.25799 -9.01093,10.14964 -9.10136,2.9572 -18.46396,3.3333 -29.0161,-0.82009 -2.61814,-1.03052 -3.04332,-4.87282 -5.32744,-7.26131 C 106.95927,981.73257 96.779699,974.03568 74.127305,959.4318 51.480394,944.83145 17.78862,923.68131 16.350339,913.13799 c 4.343704,-16.5792 4.825041,-19.81364 4.933287,-31.4793 26.619482,14.31408 63.074058,24.77085 93.931564,27.37562 28.05945,2.36857 50.6252,-2.281 73.61289,-6.3158 28.07826,-4.9283 49.68076,-13.35034 56.08213,-22.84805 z"
       id="path4196"
       inkscape:connector-curvature="0"
       sodipodi:nodetypes="ccscsscsccssc" />
    <path
       style="fill:#ffaaaa;fill-rule:evenodd;stroke:#000000;stroke-width:1px;stroke-linecap:butt;stroke-linejoin:miter;stroke-opacity:1"
       d="m 21.019126,881.53058 c 0.02886,2.87339 0.160585,5.54105 -0.126269,9.04587 58.623527,41.44689 190.514773,31.77688 226.533173,-1.12373 -0.91622,-3.97006 -1.41854,-7.06558 -2.16359,-10.50508 -49.02093,34.30367 -154.304603,41.93 -224.243314,2.58294 z"
       id="path4157"
       inkscape:connector-curvature="0"
       sodipodi:nodetypes="ccccc" />
  </g>
</svg>
