<?xml version="1.0" encoding="UTF-8" standalone="no"?>
<!-- Created with Inkscape (http://www.inkscape.org/) -->

<svg
   xmlns:dc="http://purl.org/dc/elements/1.1/"
   xmlns:cc="http://creativecommons.org/ns#"
   xmlns:rdf="http://www.w3.org/1999/02/22-rdf-syntax-ns#"
   xmlns:svg="http://www.w3.org/2000/svg"
   xmlns="http://www.w3.org/2000/svg"
   xmlns:sodipodi="http://sodipodi.sourceforge.net/DTD/sodipodi-0.dtd"
   xmlns:inkscape="http://www.inkscape.org/namespaces/inkscape"
   viewBox="0 0 256 256"
   id="svg4166"
   version="1.1"
   inkscape:version="0.91 r13725"
   sodipodi:docname="hand_wraps.svg">
  <style
     id="style3">
    svg { cursor: default; }
  </style>
  <defs
     id="defs4168">
    <inkscape:path-effect
       effect="powerstroke"
       id="path-effect4416"
       is_visible="true"
       offset_points="0.084694799,0.50738917"
       sort_points="true"
       interpolator_type="Linear"
       interpolator_beta="0.2"
       start_linecap_type="zerowidth"
       linejoin_type="round"
       miter_limit="4"
       end_linecap_type="zerowidth"
       cusp_linecap_type="round" />
    <inkscape:path-effect
       effect="powerstroke"
       id="path-effect4202"
       is_visible="true"
       offset_points="0,0.5"
       sort_points="true"
       interpolator_type="Linear"
       interpolator_beta="0.2"
       start_linecap_type="zerowidth"
       linejoin_type="round"
       miter_limit="4"
       end_linecap_type="zerowidth"
       cusp_linecap_type="round" />
    <inkscape:path-effect
       effect="powerstroke"
       id="path-effect4610"
       is_visible="true"
       offset_points="0.089858733,0.1462269"
       sort_points="true"
       interpolator_type="Linear"
       interpolator_beta="0.2"
       start_linecap_type="zerowidth"
       linejoin_type="round"
       miter_limit="4"
       end_linecap_type="zerowidth"
       cusp_linecap_type="round" />
    <inkscape:path-effect
       effect="powerstroke"
       id="path-effect4606"
       is_visible="true"
       offset_points="0.29328208,0.12562291"
       sort_points="true"
       interpolator_type="Linear"
       interpolator_beta="0.2"
       start_linecap_type="zerowidth"
       linejoin_type="round"
       miter_limit="4"
       end_linecap_type="zerowidth"
       cusp_linecap_type="round" />
    <inkscape:path-effect
       effect="powerstroke"
       id="path-effect4584-7"
       is_visible="true"
       offset_points="0.52899141,0.21496312"
       sort_points="true"
       interpolator_type="Linear"
       interpolator_beta="0.2"
       start_linecap_type="zerowidth"
       linejoin_type="round"
       miter_limit="4"
       end_linecap_type="zerowidth"
       cusp_linecap_type="round" />
    <inkscape:path-effect
       effect="powerstroke"
       id="path-effect4584"
       is_visible="true"
       offset_points="0.52899141,0.21496312"
       sort_points="true"
       interpolator_type="Linear"
       interpolator_beta="0.2"
       start_linecap_type="zerowidth"
       linejoin_type="round"
       miter_limit="4"
       end_linecap_type="zerowidth"
       cusp_linecap_type="round" />
    <inkscape:path-effect
       effect="powerstroke"
       id="path-effect4584-79"
       is_visible="true"
       offset_points="0.52899141,0.21496313"
       sort_points="true"
       interpolator_type="Linear"
       interpolator_beta="0.2"
       start_linecap_type="zerowidth"
       linejoin_type="round"
       miter_limit="4"
       end_linecap_type="zerowidth"
       cusp_linecap_type="round" />
    <inkscape:path-effect
       effect="powerstroke"
       id="path-effect4584-7-5"
       is_visible="true"
       offset_points="0.52899141,0.21496313"
       sort_points="true"
       interpolator_type="Linear"
       interpolator_beta="0.2"
       start_linecap_type="zerowidth"
       linejoin_type="round"
       miter_limit="4"
       end_linecap_type="zerowidth"
       cusp_linecap_type="round" />
    <inkscape:path-effect
       effect="powerstroke"
       id="path-effect4606-3"
       is_visible="true"
       offset_points="0.29328208,0.12562291"
       sort_points="true"
       interpolator_type="Linear"
       interpolator_beta="0.2"
       start_linecap_type="zerowidth"
       linejoin_type="round"
       miter_limit="4"
       end_linecap_type="zerowidth"
       cusp_linecap_type="round" />
    <inkscape:path-effect
       effect="powerstroke"
       id="path-effect4610-4"
       is_visible="true"
       offset_points="0.089858733,0.1462269"
       sort_points="true"
       interpolator_type="Linear"
       interpolator_beta="0.2"
       start_linecap_type="zerowidth"
       linejoin_type="round"
       miter_limit="4"
       end_linecap_type="zerowidth"
       cusp_linecap_type="round" />
  </defs>
  <sodipodi:namedview
     id="base"
     pagecolor="#ffffff"
     bordercolor="#666666"
     borderopacity="1.0"
     inkscape:pageopacity="0.0"
     inkscape:pageshadow="2"
     inkscape:zoom="3.959798"
     inkscape:cx="162.65777"
     inkscape:cy="146.95898"
     inkscape:document-units="px"
     inkscape:current-layer="layer1"
     showgrid="false"
     units="px"
     inkscape:window-width="2560"
     inkscape:window-height="1388"
     inkscape:window-x="-8"
     inkscape:window-y="-8"
     inkscape:window-maximized="1" />
  <metadata
     id="metadata4171">
    <rdf:RDF>
      <cc:Work
         rdf:about="">
        <dc:format>image/svg+xml</dc:format>
        <dc:type
           rdf:resource="http://purl.org/dc/dcmitype/StillImage" />
        <dc:title />
      </cc:Work>
    </rdf:RDF>
  </metadata>
  <g
     inkscape:label="Layer 1"
     inkscape:groupmode="layer"
     id="layer1"
     transform="translate(0,-796.36216)"
     style="display:inline">
    <path
       style="display:inline;fill:#666666;fill-opacity:1;fill-rule:evenodd;stroke:#000000;stroke-width:0.55124998;stroke-linecap:butt;stroke-linejoin:miter;stroke-miterlimit:4;stroke-dasharray:none;stroke-opacity:1"
       d="m 171.67889,975.09846 c -0.0323,-2.60799 -0.199,-3.38671 2.54313,-4.51529 1.49,-0.76347 5.51339,0.0195 9.29968,-1.68266 3.49926,-1.57317 6.80318,-5.62083 7.54855,-6.69455 1.50372,-2.64488 0.41227,-4.70859 -2.76851,-5.68156 -1.40569,0.15139 -6.22172,1.83118 -8.97817,1.89017 -8.1859,1.00489 -9.41503,2.07613 -13.70419,0.0872 z"
       id="path4366-6"
       inkscape:connector-curvature="0"
       sodipodi:nodetypes="ccsccccc" />
    <path
       style="fill:#666666;fill-opacity:1;fill-rule:evenodd;stroke:#000000;stroke-width:1.10249996px;stroke-linecap:butt;stroke-linejoin:miter;stroke-opacity:1"
       d="m 72.633215,834.3371 c 3.788082,9.92463 7.491738,19.84926 11.24823,29.77388 18.725615,-3.21977 24.284305,-5.70833 32.087755,-12.13207 -4.99805,-10.78305 -10.06973,-21.86066 -15.21523,-33.23351 -6.870183,-16.31 -30.657324,-8.43092 -28.120755,15.5917 z"
       id="path4370"
       inkscape:connector-curvature="0"
       sodipodi:nodetypes="ccccc" />
    <path
       style="fill:#ff5555;fill-rule:evenodd;stroke:#000000;stroke-width:1px;stroke-linecap:butt;stroke-linejoin:miter;stroke-opacity:1"
       d="m 130.66964,996.1568 c -2.38706,-6.03559 -2.77746,-11.63307 -3.52678,-18.25893 0,0 41.77128,-2.21007 46.60714,-1.51785 2.42146,2.74635 1.12873,5.31106 2.99107,8.83928 -2.49943,3.57133 -38.88457,9.69839 -46.07143,10.9375 z"
       id="path4252"
       inkscape:connector-curvature="0"
       sodipodi:nodetypes="ccccc" />
    <path
       style="fill:#ff5555;fill-rule:evenodd;stroke:#000000;stroke-width:1px;stroke-linecap:butt;stroke-linejoin:miter;stroke-opacity:1"
       d="m 169.01785,959.50502 c -1.7032,-1.30161 -8.21258,-6.61919 -10.62499,-13.21429 l -32.94643,11.33929 c -0.65407,5.15078 -1.30401,10.29965 0.17857,14.46428 z"
       id="path4256"
       inkscape:connector-curvature="0"
       sodipodi:nodetypes="ccccc" />
    <path
       style="fill:#ff5555;fill-rule:evenodd;stroke:#000000;stroke-width:1px;stroke-linecap:butt;stroke-linejoin:miter;stroke-opacity:1"
       d="m 151.78571,935.2193 c 0.11814,-1.36868 -2.59442,-7.17651 -3.125,-6.96428 -19.13679,-2.69433 -19.51407,3.40486 -28.92857,5.26785 l 7.5,17.14286 z"
       id="path4260"
       inkscape:connector-curvature="0"
       sodipodi:nodetypes="ccccc" />
    <path
       style="fill:#ff8080;fill-rule:evenodd;stroke:#000000;stroke-width:1px;stroke-linecap:butt;stroke-linejoin:miter;stroke-opacity:1"
       d="m 158.32075,946.70204 c -1.33157,-4.31078 -3.43089,-8.39123 -6.44575,-12.19702 l -31.51709,12.17086 c 2.45576,2.85141 4.39962,6.3683 5.1778,11.40057 z"
       id="path4258"
       inkscape:connector-curvature="0"
       sodipodi:nodetypes="ccccc" />
    <path
       style="fill:#ff8080;fill-rule:evenodd;stroke:#000000;stroke-width:1px;stroke-linecap:butt;stroke-linejoin:miter;stroke-opacity:1"
       d="m 148.57143,927.98716 c -1.53189,-4.78766 -3.7185,-9.38825 -6.42857,-13.83928 0,0 -14.4482,17.39648 -14.09105,17.48576 -0.65971,0.81562 18.1245,-1.93568 20.51962,-3.64648 z"
       id="path4262"
       inkscape:connector-curvature="0"
       sodipodi:nodetypes="cccc" />
    <path
       style="fill:#ff5555;fill-rule:evenodd;stroke:#000000;stroke-width:1px;stroke-linecap:butt;stroke-linejoin:miter;stroke-opacity:1"
       d="m 104.46429,915.04073 c -0.48756,-0.31289 -5.302992,-9.42928 -5.892862,-13.83928 6.250002,-3.53041 12.500002,-1.54233 18.750002,-0.98215 z"
       id="path4264"
       inkscape:connector-curvature="0"
       sodipodi:nodetypes="cccc" />
    <path
       style="fill:#ff8080;fill-rule:evenodd;stroke:#000000;stroke-width:1px;stroke-linecap:butt;stroke-linejoin:miter;stroke-opacity:1"
       d="m 98.660714,901.91573 c -2.076518,-3.52517 -3.79068,-7.12281 -4.196429,-10.98214 l 29.464285,-9.46429 3.125,20.26786 c -9.46104,0.0485 -18.12594,-2.60989 -28.392856,0.17857 z"
       id="path4266"
       inkscape:connector-curvature="0"
       sodipodi:nodetypes="ccccc" />
    <path
       style="fill:#ff5555;fill-rule:evenodd;stroke:#000000;stroke-width:1px;stroke-linecap:butt;stroke-linejoin:miter;stroke-opacity:1"
       d="m 94.196428,890.93359 c -1.439663,-2.14506 -1.855634,-4.47955 -2.5,-6.78572 9.268712,-6.9382 19.547512,-12.59696 31.339282,-16.33928 l 7.5,15.89286 z"
       id="path4268"
       inkscape:connector-curvature="0"
       sodipodi:nodetypes="ccccc" />
    <path
       style="fill:#ff5555;fill-rule:evenodd;stroke:#000000;stroke-width:1px;stroke-linecap:butt;stroke-linejoin:miter;stroke-opacity:1"
       d="m 86.829042,871.35758 c -2.485539,-4.87232 -4.72925,-9.79837 -5.716144,-15.00372 l 30.404962,-13.72384 c 2.87047,5.25453 6.05014,10.263 7.62627,16.81187 -11.30258,4.2557 -21.685622,9.84761 -32.315088,11.91569 z"
       id="path4272"
       inkscape:connector-curvature="0"
       sodipodi:nodetypes="ccccc" />
    <path
       style="display:inline;fill:#666666;fill-opacity:1;fill-rule:evenodd;stroke:#000000;stroke-width:0.72345132;stroke-linecap:butt;stroke-linejoin:miter;stroke-miterlimit:4;stroke-dasharray:none;stroke-opacity:1"
       d="m 168.36975,995.24487 c 0,0 5.5877,8.48283 11.82335,14.54453 4.1619,4.0461 9.29429,8.269 12.55724,11.2058 2.80301,2.5227 8.85298,7.7481 8.85298,7.7481 1.81315,1.5192 6.47528,-2.9491 4.54697,-5.4447 -5.15043,-6.6661 -10.55246,-13.1823 -15.72085,-19.6505 -4.08444,-5.11167 -6.84604,-7.81303 -11.0101,-13.00017 -4.01414,-0.28837 -8.77705,-1.7328 -11.04959,4.59694 z"
       id="path4319-4-5"
       inkscape:connector-curvature="0"
       sodipodi:nodetypes="cssssscc" />
    <path
       style="display:inline;fill:#666666;fill-opacity:1;fill-rule:evenodd;stroke:#000000;stroke-width:0.55124998;stroke-linecap:butt;stroke-linejoin:miter;stroke-miterlimit:4;stroke-dasharray:none;stroke-opacity:1"
       d="m 131.58517,994.35018 c 0,0 -0.51682,6.83702 -1.05844,13.44962 -0.36149,4.4136 -0.76825,8.2652 -0.91397,11.6169 -0.12515,2.8792 -0.0723,8.6452 -0.0723,8.6452 -0.0151,1.8106 4.84793,2.6004 5.37899,0.2688 1.41844,-6.2276 2.4546,-12.4043 3.7487,-18.5517 1.02266,-4.8581 1.92183,-9.3017 4.5828,-13.87561 -1.7665,-2.58886 -6.86529,-3.08443 -11.66575,-1.55321 z"
       id="path4319-8"
       inkscape:connector-curvature="0"
       sodipodi:nodetypes="cssssscc" />
    <path
       style="display:inline;fill:#666666;fill-opacity:1;fill-rule:evenodd;stroke:#000000;stroke-width:0.64022553;stroke-linecap:butt;stroke-linejoin:miter;stroke-miterlimit:4;stroke-dasharray:none;stroke-opacity:1"
       d="m 156.7252,998.69518 c 0,0 4.13707,6.12952 8.4988,12.66662 2.91121,4.3633 6.61339,9.3664 8.93395,12.5808 1.99347,2.7615 12.75489,17.3198 12.75489,17.3198 2.22699,3.1282 9.29651,-0.011 6.36867,-5.2087 -1.65154,-2.9321 -4.41298,-8.0176 -7.45635,-12.9005 -3.82778,-6.1415 -8.00469,-12.1995 -9.8881,-15.9231 -2.67177,-5.2818 -7.00832,-10.42147 -9.73614,-15.78529 -3.39432,-1.04113 -6.50014,2.14966 -9.47572,7.25037 z"
       id="path4319-1-8-3"
       inkscape:connector-curvature="0"
       sodipodi:nodetypes="csssssscc" />
    <path
       style="fill:#666666;fill-opacity:1;fill-rule:evenodd;stroke:#000000;stroke-width:0.55124998;stroke-linecap:butt;stroke-linejoin:miter;stroke-miterlimit:4;stroke-dasharray:none;stroke-opacity:1"
       d="m 76.600743,972.22624 c -0.09415,0.0832 -4.421025,4.04737 -7.378216,3.82832 -3.18187,-0.50377 -6.487926,-0.86782 -8.658506,-2.5093 -2.252231,-2.04548 -1.857316,-4.3464 0.862651,-6.26104 1.382987,-0.29364 3.027068,-0.15212 4.80281,0.20883 6.364104,-4.4969 6.914174,-6.45014 10.371261,-9.67522 z"
       id="path4366"
       inkscape:connector-curvature="0"
       sodipodi:nodetypes="ccccccc" />
    <path
       style="display:inline;fill:#666666;fill-opacity:1;fill-rule:evenodd;stroke:#000000;stroke-width:0.72345132;stroke-linecap:butt;stroke-linejoin:miter;stroke-miterlimit:4;stroke-dasharray:none;stroke-opacity:1"
       d="m 78.594174,997.16769 c 0,0 -5.617216,8.46331 -11.873958,14.50331 -4.175984,4.0314 -9.323049,8.2364 -12.596217,11.1618 -2.811783,2.5129 -8.879932,7.7172 -8.879932,7.7172 -1.818431,1.5129 -6.464961,-2.9716 -4.527957,-5.4605 5.173625,-6.6481 10.598333,-13.1453 15.789234,-19.5955 4.102237,-5.0974 6.873216,-7.78913 11.05534,-12.96173 4.015107,-0.27441 8.783034,-1.7022 11.03349,4.63542 z"
       id="path4319-4"
       inkscape:connector-curvature="0"
       sodipodi:nodetypes="cssssscc" />
    <path
       style="display:inline;fill:#666666;fill-opacity:1;fill-rule:evenodd;stroke:#000000;stroke-width:0.64022553;stroke-linecap:butt;stroke-linejoin:miter;stroke-miterlimit:4;stroke-dasharray:none;stroke-opacity:1"
       d="m 91.670511,1000.5551 c 0,0 -4.285642,8.479 -8.139419,15.3279 -2.572166,4.5712 -5.88455,9.8406 -7.954847,13.2216 -1.778453,2.9045 -11.405638,18.2366 -11.405638,18.2366 -1.983519,3.2879 -9.270592,0.6939 -6.745095,-4.711 1.424596,-3.0489 3.792677,-8.3291 6.457254,-13.4286 3.351347,-6.4139 7.057147,-12.771 8.652961,-16.6265 2.263796,-5.4692 6.198376,-10.9227 8.511862,-16.47783 3.305648,-1.29537 7.269349,-0.4027 10.622922,4.45783 z"
       id="path4319-1-8"
       inkscape:connector-curvature="0"
       sodipodi:nodetypes="csssssscc" />
    <path
       style="display:inline;fill:#666666;fill-opacity:1;fill-rule:evenodd;stroke:#000000;stroke-width:0.55124998;stroke-linecap:butt;stroke-linejoin:miter;stroke-miterlimit:4;stroke-dasharray:none;stroke-opacity:1"
       d="m 102.6927,1004.5413 c 0,0 -1.65695,6.4426 -3.887915,12.6911 -1.48907,4.1704 -3.394443,7.8476 -4.642606,10.9616 -1.072225,2.675 -7.532004,17.4556 -7.532004,17.4556 -1.187789,3.0228 -7.994768,2.1808 -6.685373,-2.6604 1.66762,-6.1655 6.122602,-21.0748 7.476262,-27.2093 1.069756,-4.8479 4.341888,-9.8712 5.440805,-14.7977 2.676208,-1.63099 6.087641,0.186 9.830831,3.5591 z"
       id="path4319-1"
       inkscape:connector-curvature="0"
       sodipodi:nodetypes="cssssscc" />
    <path
       style="fill:#666666;fill-opacity:1;fill-rule:evenodd;stroke:#000000;stroke-width:0.55124998;stroke-linecap:butt;stroke-linejoin:miter;stroke-miterlimit:4;stroke-dasharray:none;stroke-opacity:1"
       d="m 118.18684,993.79802 c 0,0 1.02019,6.78018 2.04855,13.33478 0.68637,4.3748 1.37638,8.1859 1.76915,11.5176 0.33739,2.8621 0.71043,8.6164 0.71043,8.6164 0.14878,1.8045 -4.64271,2.9512 -5.34447,0.6652 -1.87436,-6.1059 -3.36372,-12.1893 -5.10815,-18.2244 -1.37856,-4.7693 -2.60334,-9.1344 -5.59475,-13.49932 1.57054,-2.71223 6.61883,-3.58288 11.51924,-2.41026 z"
       id="path4319"
       inkscape:connector-curvature="0"
       sodipodi:nodetypes="cssssscc" />
    <path
       style="fill:#666666;fill-opacity:1;fill-rule:evenodd;stroke:#000000;stroke-width:1.10249996px;stroke-linecap:butt;stroke-linejoin:miter;stroke-opacity:1"
       d="m 181.28527,836.29802 c -4.80344,7.43204 -8.55532,18.1358 -11.9496,27.45415 -1.66345,4.56669 -3.24102,8.80064 -4.81438,12.15369 -10.69972,-9.36499 -12.36307,-10.92642 -31.02693,-25.53019 8.09087,-15.39279 15.66302,-29.43508 16.29091,-31.7964 10.99735,-14.48777 33.52448,-2.97559 31.5,17.71875 z"
       id="path4245"
       inkscape:connector-curvature="0"
       sodipodi:nodetypes="cscccc" />
    <path
       style="display:inline;fill:#666666;fill-opacity:1;fill-rule:evenodd;stroke:#000000;stroke-width:0.55124998;stroke-linecap:butt;stroke-linejoin:miter;stroke-miterlimit:4;stroke-dasharray:none;stroke-opacity:1"
       d="m 146.16991,1004.1383 c 0,0 2.43543,6.1904 5.41675,12.1179 1.98987,3.9559 4.33229,7.3714 5.95337,10.3087 1.39254,2.5229 9.61823,16.3985 9.61823,16.3985 1.54996,2.8542 8.20205,1.1827 6.30816,-3.4609 -2.41203,-5.9142 -8.6639,-20.1638 -10.76052,-26.0856 -1.65689,-4.6799 -5.52103,-9.2635 -7.21652,-14.01779 -2.85622,-1.29005 -6.01875,0.93209 -9.31947,4.73919 z"
       id="path4319-1-0"
       inkscape:connector-curvature="0"
       sodipodi:nodetypes="cssssscc" />
    <path
       style="fill:#ff8080;fill-opacity:1;fill-rule:evenodd;stroke:#000000;stroke-width:1.10249996px;stroke-linecap:butt;stroke-linejoin:miter;stroke-opacity:1"
       d="m 65.719653,993.10895 c -1.839058,2.5142 31.56705,10.45525 40.183257,11.05695 4.03269,-1.0072 11.64725,-5.00669 13.16683,-10.36923 0.1355,-3.689 -44.603376,-13.78431 -48.428219,-7.28303 -1.183655,2.88389 -3.267435,4.4176 -4.921868,6.59531 z"
       id="path4247"
       inkscape:connector-curvature="0"
       sodipodi:nodetypes="ccccc" />
    <path
       style="fill:#ff8080;fill-opacity:1;fill-rule:evenodd;stroke:#000000;stroke-width:1.10249996px;stroke-linecap:butt;stroke-linejoin:miter;stroke-opacity:1"
       d="m 130.98468,996.11886 c 5.95006,0.94487 11.39527,3.15186 15.45039,8.83404 6.1804,-7.01366 21.09566,-9.43376 33.66954,-14.0027 l -3.75871,-6.12531 c -11.80305,2.3093 -47.74414,0.35495 -45.36122,11.29397 z"
       id="path4372"
       inkscape:connector-curvature="0"
       sodipodi:nodetypes="ccccc" />
    <path
       style="fill:#ff5555;fill-rule:evenodd;stroke:#000000;stroke-width:1px;stroke-linecap:butt;stroke-linejoin:miter;stroke-opacity:1"
       d="m 70.714285,986.20145 c 1.872415,-4.49275 2.704077,-8.46513 3.660715,-12.5 16.06061,3.19291 31.09621,5.77082 45.98215,8.25893 -0.3009,4.26298 0.16883,8.49952 -1.87501,12.54464 -14.65109,-1.14313 -28.968771,-1.86023 -47.767855,-8.30357 z"
       id="path4230"
       inkscape:connector-curvature="0"
       sodipodi:nodetypes="ccccc" />
    <path
       style="fill:#ff8080;fill-rule:evenodd;stroke:#000000;stroke-width:1px;stroke-linecap:butt;stroke-linejoin:miter;stroke-opacity:1"
       d="m 74.375,973.43359 c 1.536733,-5.4079 1.379605,-10.16432 1.428571,-15 l 44.642859,10.17857 c 0.0684,4.55357 0.46714,9.10714 0,13.66071 -17.8604,-1.57367 -35.4414,-3.30057 -46.07143,-8.83928 z"
       id="path4232"
       inkscape:connector-curvature="0"
       sodipodi:nodetypes="ccccc" />
    <path
       style="fill:#ff5555;fill-rule:evenodd;stroke:#000000;stroke-width:1px;stroke-linecap:butt;stroke-linejoin:miter;stroke-opacity:1"
       d="m 75.625,958.16573 c 0.03325,-1.31059 4.999849,-8.47238 8.482142,-11.875 l 38.839288,6.25 c -4.0661,9.14067 -1.83134,13.71496 -2.67857,18.03572 C 102.4275,967.59042 85.056056,964.42204 75.625,958.16573 Z"
       id="path4234"
       inkscape:connector-curvature="0"
       sodipodi:nodetypes="ccccc" />
    <path
       style="fill:#ff8080;fill-rule:evenodd;stroke:#000000;stroke-width:1px;stroke-linecap:butt;stroke-linejoin:miter;stroke-opacity:1"
       d="m 83.839285,947.00502 c 2.554197,-4.51093 4.619057,-9.20536 8.035714,-13.39286 l 35.982141,11.07143 c -1.70109,5.09629 -1.76402,4.09427 -5,8.48215 -13.44599,-3.84724 -31.614158,-2.08969 -39.017855,-6.16072 z"
       id="path4236"
       inkscape:connector-curvature="0"
       sodipodi:nodetypes="ccccc" />
    <path
       style="fill:#ff5555;fill-rule:evenodd;stroke:#000000;stroke-width:1px;stroke-linecap:butt;stroke-linejoin:miter;stroke-opacity:1"
       d="m 91.517857,933.79073 c 2.767266,-5.44821 5.56892,-10.79325 8.571433,-15.53571 11.51456,5.10087 22.87482,10.04744 34.15178,14.91071 -2.30186,4.70225 -4.26557,9.70481 -7.99107,13.75 -12.11244,-3.66159 -24.66027,-6.74266 -34.732143,-13.125 z"
       id="path4238"
       inkscape:connector-curvature="0"
       sodipodi:nodetypes="ccccc" />
    <path
       style="fill:#ff8080;fill-rule:evenodd;stroke:#000000;stroke-width:1px;stroke-linecap:butt;stroke-linejoin:miter;stroke-opacity:1"
       d="m 133.66072,933.43358 c 1.14623,0.15203 8.33918,-13.01434 7.85714,-13.30356 -10.97393,-5.45464 -22.06679,-10.79036 -34.91072,-14.375 -2.82085,4.44933 -9.321374,15.0423 -10.98214,20.53571 9.92649,6.09574 24.75004,8.48328 38.03572,7.14285 z"
       id="path4240"
       inkscape:connector-curvature="0"
       sodipodi:nodetypes="ccccc" />
    <path
       style="fill:#ff5555;fill-rule:evenodd;stroke:#000000;stroke-width:1px;stroke-linecap:butt;stroke-linejoin:miter;stroke-opacity:1"
       d="m 106.33929,906.11216 c 1.86228,-5.21469 4.30547,-10.13893 6.875,-15 l 31.94973,22.45065 c -1.67488,4.50445 -3.26708,6.93105 -5.74941,11.20481 -12.77453,-3.75498 -23.56208,-11.21603 -33.07532,-18.65546 z"
       id="path4242"
       inkscape:connector-curvature="0"
       sodipodi:nodetypes="ccccc" />
    <path
       style="fill:#ff8080;fill-rule:evenodd;stroke:#000000;stroke-width:1px;stroke-linecap:butt;stroke-linejoin:miter;stroke-opacity:1"
       d="m 113.03572,891.73716 c 1.20865,-4.22399 3.19313,-7.93077 5.08928,-11.69643 12.35369,2.7526 25.06533,6.16145 38.83928,11.51786 -3.10179,6.13385 -8.40845,17.9662 -12.42526,23.98568 -12.94855,-4.69075 -23.44597,-15.15681 -31.5033,-23.80711 z"
       id="path4244"
       inkscape:connector-curvature="0"
       sodipodi:nodetypes="ccccc" />
    <path
       style="fill:#ff5555;fill-rule:evenodd;stroke:#000000;stroke-width:1px;stroke-linecap:butt;stroke-linejoin:miter;stroke-opacity:1"
       d="m 118.34822,880.04073 c 1.1959,-3.84926 5.01286,-10.28322 7.13257,-14.24796 10.5379,3.03475 15.41137,6.22071 36.34956,15.2301 -1.71903,4.45179 -3.48357,9.01469 -6.27297,13.10969 -10.04678,-0.15309 -23.12404,-5.86206 -37.20916,-14.09183 z"
       id="path4246"
       inkscape:connector-curvature="0"
       sodipodi:nodetypes="ccccc" />
    <path
       style="fill:#ff8080;fill-rule:evenodd;stroke:#000000;stroke-width:1px;stroke-linecap:butt;stroke-linejoin:miter;stroke-opacity:1"
       d="m 125.81177,865.89738 c 2.05203,-4.7076 2.33836,-6.7106 5.08109,-11.30308 10.90592,4.32681 13.96115,3.21853 35.89285,15.17857 -1.45937,4.41964 -3.11218,8.83929 -5.98214,13.25893 -12.77971,-2.77271 -23.84024,-8.31427 -34.9918,-17.13442 z"
       id="path4248"
       inkscape:connector-curvature="0"
       sodipodi:nodetypes="ccccc" />
    <path
       style="fill:#ff5555;fill-rule:evenodd;stroke:#000000;stroke-width:1px;stroke-linecap:butt;stroke-linejoin:miter;stroke-opacity:1"
       d="m 131.07143,854.68359 c -0.18355,-0.73613 6.82726,-13.66318 7.05357,-13.48214 9.22842,4.937 18.15586,12.09918 34.55357,13.57142 -2.2605,5.6264 -3.76796,12.00585 -6.45921,17.20151 -12.53398,-4.31297 -27.07215,-7.18217 -35.14793,-17.29079 z"
       id="path4250"
       inkscape:connector-curvature="0"
       sodipodi:nodetypes="ccccc" />
    <path
       style="fill:#ff8080;fill-rule:evenodd;stroke:#000000;stroke-width:1px;stroke-linecap:butt;stroke-linejoin:miter;stroke-opacity:1"
       d="m 173.75,976.4693 c -6.10444,-6.79467 -3.98949,-11.26908 -4.86607,-17.00892 l -43.61607,11.91964 c -0.28312,0.96609 1.37666,7.3564 2.41071,7.67857 3.60809,-0.006 46.07143,-2.58929 46.07143,-2.58929 z"
       id="path4254"
       inkscape:connector-curvature="0"
       sodipodi:nodetypes="ccccc" />
    <path
       style="fill:#ff8080;fill-rule:evenodd;stroke:#000000;stroke-width:1px;stroke-linecap:butt;stroke-linejoin:miter;stroke-opacity:1"
       d="m 91.517857,883.9693 c -3.011097,-4.61258 -4.031242,-9.42426 -5.446429,-14.19643 L 118.75,857.45145 c 1.67931,2.71125 2.61151,6.01384 4.46429,10.17857 -9.3019,6.79425 -19.86916,12.23877 -31.696433,16.33928 z"
       id="path4270"
       inkscape:connector-curvature="0"
       sodipodi:nodetypes="ccccc" />
  </g>
</svg>
