<svg xmlns="http://www.w3.org/2000/svg" cursor="default" viewBox="0 0 256 256">
    <g fill-rule="evenodd" stroke="#000">
        <path fill="#666" stroke-width=".551" d="M171.679 178.736c-.032-2.608-.2-3.386 2.543-4.515 1.49-.763 5.513.02 9.3-1.683 3.499-1.573 6.803-5.62 7.548-6.694 1.504-2.645.413-4.709-2.768-5.682-1.406.152-6.222 1.831-8.978 1.89-8.186 1.005-9.415 2.077-13.705.088z"/>
        <path fill="#666" stroke-width="1.102" d="M72.633 37.975c3.788 9.925 7.492 19.85 11.248 29.774 18.726-3.22 24.285-5.709 32.088-12.132a3995.08 3995.08 0 0 1-15.215-33.234c-6.87-16.31-30.657-8.43-28.12 15.592z"/>
        <path fill="#f55" d="M130.67 199.795c-2.387-6.036-2.778-11.633-3.527-18.26 0 0 41.771-2.21 46.607-1.517 2.421 2.746 1.129 5.31 2.991 8.84-2.5 3.57-38.885 9.698-46.071 10.937zM169.018 163.143c-1.703-1.302-8.213-6.62-10.625-13.214l-32.947 11.339c-.654 5.15-1.304 10.3.179 14.464zM151.786 138.857c.118-1.369-2.595-7.176-3.125-6.964-19.137-2.694-19.514 3.405-28.929 5.268l7.5 17.143z"/>
        <path fill="#ff8080" d="M158.32 150.34c-1.33-4.31-3.43-8.391-6.445-12.197l-31.517 12.17c2.456 2.852 4.4 6.369 5.178 11.401zM148.571 131.625c-1.531-4.788-3.718-9.388-6.428-13.84 0 0-14.448 17.397-14.091 17.486-.66.816 18.124-1.935 20.52-3.646z"/>
        <path fill="#f55" d="M104.464 118.679c-.487-.313-5.303-9.43-5.893-13.84 6.25-3.53 12.5-1.542 18.75-.982z"/>
        <path fill="#ff8080" d="M98.66 105.554c-2.076-3.526-3.79-7.123-4.196-10.983l29.465-9.464 3.125 20.268c-9.461.049-18.126-2.61-28.393.179z"/>
        <path fill="#f55" d="M94.196 94.571c-1.44-2.145-1.855-4.48-2.5-6.785 9.27-6.938 19.548-12.597 31.34-16.34l7.5 15.893zM86.829 74.995c-2.485-4.872-4.73-9.798-5.716-15.003l30.405-13.724c2.87 5.254 6.05 10.263 7.626 16.812-11.302 4.255-21.685 9.847-32.315 11.915z"/>
        <path fill="#666" stroke-width=".723" d="M168.37 198.883s5.587 8.483 11.823 14.544c4.162 4.046 9.294 8.27 12.557 11.206 2.803 2.523 8.853 7.748 8.853 7.748 1.813 1.52 6.476-2.949 4.547-5.445-5.15-6.666-10.552-13.182-15.72-19.65-4.085-5.112-6.847-7.813-11.01-13-4.015-.289-8.778-1.733-11.05 4.597z"/>
        <path fill="#666" stroke-width=".551" d="M131.585 197.988s-.517 6.837-1.058 13.45c-.362 4.413-.769 8.265-.914 11.617-.125 2.879-.073 8.645-.073 8.645-.015 1.81 4.848 2.6 5.38.269 1.418-6.228 2.454-12.405 3.748-18.552 1.023-4.858 1.922-9.302 4.583-13.876-1.767-2.589-6.865-3.084-11.666-1.553z"/>
        <path fill="#666" stroke-width=".64" d="M156.725 202.333s4.137 6.13 8.499 12.667c2.911 4.363 6.613 9.366 8.934 12.58 1.993 2.762 12.755 17.32 12.755 17.32 2.227 3.128 9.296-.01 6.369-5.208-1.652-2.933-4.413-8.018-7.457-12.901-3.828-6.141-8.005-12.2-9.888-15.923-2.672-5.282-7.008-10.422-9.736-15.785-3.394-1.041-6.5 2.15-9.476 7.25z"/>
        <path fill="#666" stroke-width=".551" d="M76.6 175.864c-.093.083-4.42 4.047-7.377 3.828-3.182-.503-6.488-.867-8.659-2.509-2.252-2.045-1.857-4.346.863-6.26 1.383-.295 3.027-.153 4.802.208 6.365-4.497 6.915-6.45 10.372-9.675z"/>
        <path fill="#666" stroke-width=".723" d="M78.594 200.806s-5.617 8.463-11.874 14.503c-4.176 4.031-9.323 8.236-12.596 11.162-2.812 2.513-8.88 7.717-8.88 7.717-1.818 1.513-6.465-2.972-4.528-5.46 5.174-6.649 10.598-13.146 15.79-19.596 4.102-5.098 6.873-7.79 11.055-12.962 4.015-.274 8.783-1.702 11.033 4.636z"/>
        <path fill="#666" stroke-width=".64" d="M91.67 204.193s-4.285 8.479-8.139 15.328c-2.572 4.571-5.884 9.84-7.955 13.221-1.778 2.905-11.405 18.237-11.405 18.237-1.984 3.288-9.271.694-6.745-4.711 1.424-3.049 3.792-8.33 6.457-13.429 3.351-6.413 7.057-12.77 8.653-16.626 2.264-5.47 6.198-10.923 8.512-16.478 3.305-1.295 7.269-.403 10.623 4.458z"/>
        <path fill="#666" stroke-width=".551" d="M102.693 208.18s-1.657 6.442-3.888 12.69c-1.49 4.17-3.395 7.848-4.643 10.962-1.072 2.675-7.532 17.455-7.532 17.455-1.188 3.023-7.995 2.181-6.685-2.66 1.667-6.165 6.122-21.075 7.476-27.21 1.07-4.847 4.342-9.87 5.44-14.797 2.677-1.631 6.089.186 9.832 3.56zM118.187 197.436s1.02 6.78 2.048 13.335c.687 4.374 1.377 8.186 1.77 11.517.337 2.862.71 8.617.71 8.617.149 1.804-4.643 2.95-5.344.665-1.875-6.106-3.364-12.19-5.109-18.225-1.378-4.769-2.603-9.134-5.594-13.499 1.57-2.712 6.618-3.583 11.519-2.41z"/>
        <path fill="#666" stroke-width="1.102" d="M181.285 39.936c-4.803 7.432-8.555 18.136-11.95 27.454-1.663 4.567-3.24 8.8-4.814 12.154-10.7-9.365-12.363-10.927-31.027-25.53 8.091-15.393 15.663-29.436 16.291-31.797 10.998-14.488 33.525-2.975 31.5 17.719z"/>
        <path fill="#666" stroke-width=".551" d="M146.17 207.776s2.435 6.19 5.417 12.118c1.99 3.956 4.332 7.371 5.953 10.309 1.393 2.523 9.618 16.398 9.618 16.398 1.55 2.854 8.202 1.183 6.308-3.46-2.412-5.915-8.663-20.164-10.76-26.086-1.657-4.68-5.521-9.264-7.217-14.018-2.856-1.29-6.018.932-9.32 4.74z"/>
        <path fill="#ff8080" stroke-width="1.102" d="M65.72 196.747c-1.84 2.514 31.567 10.455 40.183 11.057 4.033-1.007 11.647-5.007 13.167-10.37.135-3.688-44.604-13.784-48.428-7.283-1.184 2.884-3.268 4.418-4.922 6.596zM130.985 199.757c5.95.945 11.395 3.152 15.45 8.834 6.18-7.014 21.096-9.434 33.67-14.003l-3.76-6.125c-11.802 2.309-47.743.355-45.36 11.294z"/>
        <path fill="#f55" d="M70.714 189.84c1.873-4.493 2.704-8.466 3.661-12.5 16.06 3.192 31.096 5.77 45.982 8.258-.3 4.263.169 8.5-1.875 12.545-14.651-1.143-28.969-1.86-47.768-8.304z"/>
        <path fill="#ff8080" d="M74.375 177.071c1.537-5.407 1.38-10.164 1.429-15l44.642 10.179c.069 4.554.468 9.107 0 13.66-17.86-1.573-35.441-3.3-46.071-8.839z"/>
        <path fill="#f55" d="M75.625 161.804c.033-1.311 5-8.473 8.482-11.875l38.84 6.25c-4.067 9.14-1.832 13.715-2.68 18.035-17.84-2.986-35.21-6.154-44.642-12.41z"/>
        <path fill="#ff8080" d="M83.84 150.643c2.553-4.511 4.618-9.206 8.035-13.393l35.982 11.071c-1.7 5.097-1.764 4.095-5 8.483-13.446-3.848-31.614-2.09-39.018-6.161z"/>
        <path fill="#f55" d="M91.518 137.429c2.767-5.449 5.569-10.794 8.571-15.536a3773.016 3773.016 0 0 0 34.152 14.91c-2.302 4.703-4.266 9.705-7.991 13.75-12.112-3.661-24.66-6.742-34.732-13.124z"/>
        <path fill="#ff8080" d="M133.66 137.071c1.147.152 8.34-13.014 7.858-13.303-10.974-5.455-22.067-10.79-34.91-14.375-2.822 4.45-9.322 15.042-10.983 20.536 9.926 6.095 24.75 8.483 38.036 7.142z"/>
        <path fill="#f55" d="M106.34 109.75c1.862-5.215 4.305-10.139 6.874-15l31.95 22.45c-1.675 4.505-3.267 6.932-5.75 11.205-12.774-3.755-23.561-11.216-33.075-18.655z"/>
        <path fill="#ff8080" d="M113.036 95.375c1.208-4.224 3.193-7.93 5.089-11.696 12.354 2.752 25.065 6.161 38.84 11.517-3.103 6.134-8.41 17.967-12.426 23.986-12.949-4.69-23.446-15.157-31.503-23.807z"/>
        <path fill="#f55" d="M118.348 83.679c1.196-3.85 5.013-10.284 7.133-14.248 10.538 3.034 15.411 6.22 36.35 15.23-1.72 4.452-3.484 9.014-6.274 13.11-10.046-.154-23.124-5.863-37.209-14.092z"/>
        <path fill="#ff8080" d="M125.812 69.535c2.052-4.707 2.338-6.71 5.08-11.303 10.907 4.327 13.962 3.219 35.894 15.179-1.46 4.42-3.112 8.839-5.982 13.259-12.78-2.773-23.84-8.315-34.992-17.135z"/>
        <path fill="#f55" d="M131.071 58.321c-.183-.736 6.828-13.663 7.054-13.482 9.228 4.937 18.156 12.1 34.554 13.572-2.26 5.626-3.768 12.006-6.46 17.201-12.534-4.313-27.072-7.182-35.148-17.29z"/>
        <path fill="#ff8080" d="M173.75 180.107c-6.104-6.795-3.99-11.269-4.866-17.009l-43.616 11.92c-.283.966 1.377 7.356 2.41 7.678 3.609-.006 46.072-2.589 46.072-2.589zM91.518 87.607c-3.011-4.612-4.031-9.424-5.447-14.196l32.679-12.322c1.68 2.712 2.612 6.014 4.464 10.179-9.302 6.794-19.869 12.239-31.696 16.34z"/>
    </g>
</svg>
