<svg xmlns="http://www.w3.org/2000/svg" cursor="default" viewBox="0 0 256 256">
    <g fill-rule="evenodd" stroke="#000">
        <path fill="#333" d="M125.505 230.867c-20.275 3.387-39.456 8.356-61.471 9.223-1.284-13.205-2.59-26.445-4.532-40.718 18.438-4.393 36.78-8.817 59.957-11.678 1.454 14.377 2.297 28.738 6.046 43.173zM31.334 68.75c.897 19.518 7.442 34.534 11.485 51.234l9.566-2.839-15.26-61.56c.208 6.348-1.367 15.322 9.738 58.985-2.152.27-8.674-46.217-15.53-45.82zM46.791 43.135c2.62.312 3.607 1.12 5.197 2.27 1.842 9.475 5.766 17.103 11.33 56.14-3.767-20.537-3.828-28.295-3.88-35.52l9.564 40.351-12.545 2.903c-3.222-22.048-13.706-43.068-9.666-66.144zM73.338 33.217c2.061-1.678 6.533 42.847 9.799 64.271-2.867-25.246-3.72-55.681.154-55.487 0 0 4.954 59.856 4.602 59.917-.352.061-13.126 1.645-13.126 1.645z"/>
        <path fill="#f55" d="M119.454 102.058c.963-6.716 4.817-13.846 2.228-20.052-4.611-2.803-12.128 15.107-12.538 17.039 4.29.856 7.103 1.968 10.31 3.013z"/>
        <path fill="#333" d="M110.346 127.11c.407-.042 10.732-22.342 9.077-25.228-4.624-2.156-7.836-2.953-10.207-2.94-.951 3.399-1.105 6.94-1.934 9.762zM95.062 37.553c1.12.674 1.898 1.49 2.873 5.802.464 1.18 5.586 42.62 5.265 42.856-.321.237-11.853-49.219-8.138-48.658zM141.267 209.405c20.147 4.076 39.148 9.698 61.12 11.315 1.734-13.153 3.491-26.341 5.92-40.54-18.278-5.02-36.459-10.067-59.524-13.718-1.944 14.32-3.277 28.643-7.516 42.943zM240.917 50.596c-1.563 19.476-8.617 34.26-13.227 50.812l-9.464-3.164 17.353-61.003c-.425 6.337.843 15.36-11.746 58.618 2.141.343 10.246-45.894 17.084-45.263zM226.343 24.468c-2.628.223-3.643.996-5.271 2.091-2.165 9.408-6.347 16.897-13.24 55.721 4.465-20.396 4.792-28.147 5.09-35.366l-10.936 40 12.44 3.33c3.972-21.925 15.167-42.575 11.917-65.776zM200.15 13.65c-2.003-1.748-7.991 42.6-11.987 63.9 3.727-25.134 5.62-55.523 1.74-55.46 0 0-6.994 59.651-6.645 59.724.35.074 13.063 2.092 13.063 2.092z"/>
        <path fill="#f55" d="M151.712 80.876c-.734-6.744-4.342-14.002-1.543-20.116 4.704-2.643 11.605 15.513 11.95 17.457-4.317.71-7.166 1.725-10.407 2.66z"/>
        <path fill="#333" d="M159.959 106.225c-.405-.056-9.964-22.695-8.21-25.524 4.694-1.996 7.931-2.683 10.3-2.59.835 3.43.868 6.974 1.6 9.823zM178.291 17.242c-1.142.635-1.948 1.424-3.07 5.701-.504 1.163-7.037 42.403-6.724 42.651.313.248 13.526-48.786 9.794-48.352z"/>
    </g>
    <path fill="#ff8080" fill-rule="evenodd" stroke="#000" d="M206.223 11.99c-3.327-.095-6.264.717-6.418 1.905-.73 21.497-4.424 42.97-8.541 64.437-1.837 3.78-6.047 1.592-6.264-.58 4.428-17.913 5.686-36.648 5.28-55.814-1.559-3.35-11.547-5.599-12.009-4.518-6.233 23.352-12.551 56.561-18.828 84.851-2.33-5.327-9.712-23.68-9.177-41.63-3.196.703-8.398 17.956-8.78 26.605-.325 7.377-1.025 27.724 1.114 45.86-.65 6.586-.79 12.529 5.252 20.253-2.211 10.85-.879 12.457.619 13.63l.28-1.512c-.032.516-.075 1.03-.106 1.546 15.376 7.634 36.94 15.026 59.109 13.084 0 0 4.698-.49 5.588-2.296.865-1.757-1.883-5.748-.38-8.655 12.111-23.418 25.88-65.416 28.802-74.523 4.15-12.935 8.106-32.102 6.627-37.381-.866-3.087-7.018-6.574-7.018-6.574-3.744 1.782-6.796 34.394-15.168 49.004-1.411 1.11-5.531-.94-5.256-3.653 0 0 7.112-19.56 9.483-29.097 2.86-11.505 5.7-33.952 5.7-33.952-.087-2.894-8.003-8.89-9.52-8.558-3.765 22.178-8.198 42.976-16.145 60.66-1.153 1.894-6.059-1.261-5.65-2.64 0 0 5.02-16.51 6.62-25.005 2.447-12.985 4.477-39.445 4.477-39.445-.491-4.255-5.414-5.88-9.691-6.002zM67.27 31.35c-4.279-.024-9.256 1.431-9.892 5.668 0 0 1.127 26.512 3.129 39.574 1.31 8.544 5.763 25.217 5.763 25.217.361 1.392-4.65 4.377-5.738 2.445-7.339-17.945-11.059-38.88-14.064-61.174-1.506-.383-9.622 5.337-9.809 8.227 0 0 2.074 22.53 4.54 34.127 2.043 9.612 8.484 29.404 8.484 29.404.182 2.72-4.005 4.629-5.377 3.47-7.869-14.887-9.806-47.585-13.487-49.494 0 0-6.268 3.277-7.238 6.332-1.66 5.226 1.642 24.515 5.348 37.584 2.609 9.202 14.936 51.645 26.24 75.463 1.403 2.957-1.48 6.852-.676 8.637.828 1.836 5.508 2.486 5.508 2.486 22.09 2.698 43.893-3.954 59.521-11.058-.014-.52-.039-1.038-.054-1.559l.23 1.53c1.537-1.121 2.922-2.681 1.082-13.6 6.303-7.514 6.366-13.458 5.942-20.063 2.756-18.052 2.75-38.41 2.677-45.793-.085-8.657-4.695-26.078-7.865-26.89-.078 17.958-8.083 36.048-10.594 41.293-5.307-28.488-10.489-61.894-15.921-85.446-.425-1.096-10.483.81-12.155 4.106-1.06 19.141-.442 37.907 3.371 55.96-.291 2.164-4.572 4.207-6.279.366-3.382-21.596-6.343-43.18-6.338-64.69-.114-1.191-3.02-2.104-6.348-2.122z"/>
    <g fill="none" stroke="#000">
        <path d="M119.727 188.191c1.537-1.12 2.922-2.681 1.082-13.6 6.303-7.514 6.366-13.457 5.942-20.062 2.756-18.052 2.75-38.41 2.677-45.794-.086-8.657-4.695-26.078-7.865-26.89-.092 21.27-10.637 41.55-10.637 41.55l6.067 26.874z"/>
        <path d="M60.03 199.28s-4.68-.651-5.507-2.487c-.805-1.785 2.079-5.68.676-8.636-11.304-23.818-23.632-66.261-26.242-75.463-3.706-13.07-7.006-32.36-5.347-37.586.97-3.055 7.238-6.331 7.238-6.331 3.681 1.909 5.618 34.607 13.486 49.494 1.373 1.158 5.561-.75 5.379-3.471 0 0-6.441-19.792-8.485-29.404C38.763 73.8 36.69 51.27 36.69 51.27c.187-2.89 8.304-8.611 9.809-8.228 3.005 22.294 6.725 43.23 14.064 61.175 1.088 1.932 6.099-1.054 5.738-2.447 0 0-4.454-16.67-5.764-25.215-2.002-13.061-3.129-39.575-3.129-39.575 1.132-7.532 15.98-6.27 16.24-3.545-.004 21.51 2.956 43.095 6.338 64.69 1.707 3.842 5.989 1.798 6.28-.365-3.813-18.054-4.433-36.82-3.372-55.962 1.671-3.295 11.731-5.2 12.156-4.104 5.436 23.566 10.62 57 15.93 85.5 6.117 20.826 7.965 42.765 8.572 65.028-15.628 7.104-37.43 13.756-59.521 11.058zM148.498 166.95c-1.497-1.172-2.828-2.78-.617-13.629-6.042-7.724-5.903-13.666-5.254-20.253-2.138-18.136-1.437-38.482-1.112-45.858.381-8.65 5.582-25.903 8.778-26.606-.633 21.26 8.672 42.053 8.672 42.053l-2.932 10.525-4.352 21.27z"/>
        <path d="M207.782 180.07s4.699-.49 5.589-2.297c.865-1.757-1.884-5.747-.38-8.654 12.11-23.419 25.88-65.416 28.801-74.523 4.15-12.935 8.107-32.103 6.627-37.382-.865-3.086-7.017-6.574-7.017-6.574-3.744 1.782-6.796 34.395-15.168 49.005-1.411 1.11-5.532-.94-5.257-3.653 0 0 7.113-19.56 9.483-29.098 2.86-11.504 5.701-33.95 5.701-33.95-.087-2.895-8.004-8.89-9.522-8.558-3.764 22.178-8.197 42.975-16.144 60.658-1.153 1.894-6.059-1.26-5.65-2.64 0 0 5.02-16.51 6.62-25.004 2.447-12.986 4.478-39.446 4.478-39.446-.873-7.565-15.756-6.811-16.11-4.097-.73 21.498-4.425 42.97-8.542 64.437-1.837 3.78-6.046 1.592-6.264-.58 4.428-17.913 5.688-36.647 5.281-55.814-1.558-3.35-11.547-5.597-12.009-4.516-6.237 23.366-12.56 56.603-18.84 84.905-6.823 20.606-9.419 42.469-10.786 64.698 15.377 7.633 36.94 15.026 59.11 13.084z"/>
    </g>
</svg>
