<svg xmlns="http://www.w3.org/2000/svg" cursor="default" viewBox="0 0 256 256">
    <g fill-rule="evenodd" stroke="#000">
        <path fill="#f55" d="M137.63 222.88c-3.178 5.19 18.268 15.268 22.313 9.75 59.585-81.3 67.914-183.274 32.141-204.278-10.862-5.3-17.984-6.233-36.56-3.31 46.93 44.2 24.492 128.61-17.894 197.837z"/>
        <path fill="#f95" d="M143.463 221.38c-1.441 2.532 11.442 7.298 13.175 5.305C191.99 167.4 239.018 59.891 170.536 21.18l-22.679-5c79.452 49.068 28.226 153.18-4.394 205.202z"/>
        <path fill="#ff8080" d="M131.406 235.66c3.848 2.06-2.414 17.04-7.576 13.89C18.71 185.387 45.534 14.97 145.043 12.667c27.776 4.43 34.017 6.59 51.576 18.813-29.316-14.164-61.173-5.823-89.559 46.96-36.684 68.214-10.104 138.768 24.346 157.219z"/>
    </g>
</svg>
