<svg xmlns="http://www.w3.org/2000/svg" cursor="default" viewBox="0 0 256 256">
    <g fill-rule="evenodd">
        <path fill="#ff8080" stroke="#000" d="M65.632 55.01c-46.012 79.352-39.41 91.45-59.114 137.175 7.665 3.69 13.646 4.488 20.965 7.315 4.997 1.93 8.464 5.321 13.605 7.278 4.881 1.857 12.287 2.317 16.483 2.785l-.648 4.991c25.89 5.683 50.016 6.057 70.232 3.698 27.218 6.116 57.953.687 70.418-4.068l-.37-4.621c7.5-1.022 13.716-1.25 19.262-3.05 6.347-2.062 8.935-5.643 14.449-8.39 4.637-2.31 12.188-3.798 17.435-5.569-21.298-69.97-36.928-103.307-58.93-138.098-39.238 9.27-95.55 6.473-123.787.555z"/>
        <path fill="#faa" stroke="#000" d="M70.45 29.406l-5.096 25.235c46.554 12.088 111.474 7.833 124.158-.277l-4.91-25.79c-42.717 5.119-80.162 4.768-114.152.832z"/>
        <path d="M58.163 209.587c2.917-62.093 14.423-97.222 21.67-149.923-7.562 52.546-19.418 87.761-22.668 149.874zM128.072 218.159c-.212-45.285.847-87.773 1.674-132.452-1.16 44.664-2.553 87.156-2.674 132.453zM197.792 209.596c-6.532-53.654-9.218-98.179-22.754-147.532 13.207 49.417 15.558 93.945 21.761 147.65z"/>
    </g>
</svg>
