<svg xmlns="http://www.w3.org/2000/svg" cursor="default" viewBox="0 0 256 256">
    <g fill-rule="evenodd" stroke="#000">
        <path fill="#f55" stroke-width=".92" d="M156.486 154.867c2.134 1.759 34.868 14.28 34.6 13.826 4.275-16.41 8.147-32.344 12.83-49.239l-23.79-11.625z"/>
        <path fill="#f55" stroke-width=".92" d="M128.96 151.205c2.133 1.759 34.868 14.28 34.6 13.826 4.274-16.41 8.146-32.344 12.83-49.239l-23.791-11.625z"/>
        <path fill="#f55" stroke-width=".92" d="M105.473 142.872c2.134 1.758 34.869 14.28 34.6 13.826 4.275-16.411 8.147-32.345 12.83-49.24l-23.79-11.625zM38.046 122.669c2.133 1.758 34.868 14.28 34.6 13.826 4.275-16.411 8.146-32.345 12.83-49.24L61.686 75.63z"/>
        <path fill="#f55" stroke-width=".92" d="M57.491 126.71c2.134 1.758 34.868 14.28 34.6 13.825 4.275-16.41 8.147-32.344 12.83-49.239l-23.79-11.625z"/>
        <path fill="#f55" stroke-width=".92" d="M80.186 134.908c2.133 1.758 34.868 14.28 34.6 13.826 4.275-16.411 8.146-32.345 12.83-49.24l-23.79-11.625z"/>
        <path fill="#1a1a1a" d="M54.424 70.541c4.36-10.292 169.854 48.73 167.857 53.215.615 20.496-157-50.561-168.757-40.234-8.528-5.917-1.168-8.185.9-12.98z"/>
        <path fill="#f55" d="M214.113 195.635c.206 2.349-10.52 4.734-18.235 4.442-4.608.115-5.95-4.106-3.982-4.123.252 0 22.217-.319 22.217-.319zM252.349 184.153l-12.248 9.154c-4.572.587-9.217-5.526-7.26-5.745.25-.028 19.508-3.41 19.508-3.41z"/>
        <path fill="#ff8080" d="M209.895 195.763l42.475-11.561c-5.558-16.091-19.331-28.14-22.877-41.712l-22.673 1.577zM39.334 81.434C17.96 105.64 14.452 111.1 2.184 125.948c5.62 2.994 25.304 15.172 24.472 14.861.268-.625 23.928-43.482 23.928-43.482z"/>
        <path fill="#ff8080" d="M165.553 197.349c18.091-1.74 37.544 2.681 48.529-1.43-.899-17.259-1.49-33.86-1.89-51.45l-33.044-.162z"/>
        <path fill="#ff8080" d="M116.299 187.773l-.715 3.304c25.912 1.4 34.65 7.273 53.036 8.787 1.75-11.167 7.853-36.254 12.41-54.144l-42.589-6.607z"/>
        <path fill="#f55" stroke-width="1.08" d="M137.207 190.604c-.271 2.488-12.348 2.799-20.613.93-4.997-.815-5.56-5.485-3.431-5.103.272.051 24.044 4.173 24.044 4.173z"/>
        <path fill="#ff8080" d="M80.407 180.152c18.252 4.934 38.225 7.057 56.874 10.568l10.089-51.964-34.375-5.447z"/>
        <path fill="#ff8080" d="M60.495 169.47c2.522 1.756 41.221 14.257 40.904 13.804 5.054-16.385 9.63-32.293 15.167-49.161l-28.125-11.607z"/>
        <path fill="#f55" d="M62.367 171.114c-.616 2.591-9.74-.63-16.125-4.824-3.923-3.183-2.784-6.598-.93-5.936.237.087 17.055 10.76 17.055 10.76z"/>
        <path fill="#ff8080" d="M34.424 154.47c12.414 6.946 18.56 15.5 27.47 17.608 10.961-13.995 16.067-30.01 29.405-46.626l-28.661-18.304z"/>
        <path fill="#ff8080" d="M24.066 137.863c-.805 2.707-7.316 16.298 10.268 21.16 3.778-7.422 16.248-31.994 28.75-49.375L47.906 94.113z"/>
        <path fill="#333" d="M54.548 70.384c-3.477 7.667-15.417 9.09-15.973 10.986 11.662 51.136 131.346 75.05 191.74 61.998-1.266-6.158-3.912-12.699-8.208-19.698-35.138 3.081-74.073-3.346-101.827-10.308-44.122-11.068-68.17-27.853-65.732-42.978z"/>
    </g>
</svg>
