<svg xmlns="http://www.w3.org/2000/svg" cursor="default" viewBox="0 0 256 256">
    <g transform="translate(0 -796.362)">
        <path fill="#ff2a2a" fill-rule="evenodd" stroke="#000" stroke-width=".194" d="M88.249 907.012c.12.55 1.282.547 1.332.253.448-5.612.571-37.824 1.27-42.702l-.682-1.738c-1.337 3.979-1.077 37.735-1.92 44.187z"/>
        <path fill="#f55" fill-rule="evenodd" stroke="#000" stroke-width=".194" d="M89.818 861.417c-2.46 4.097-2.81 19.238-3.655 40.128-.11 2.713-.914 5.75-1.097 8.974l1.366.447c.201-3.343 1.15-6.407 1.27-9.463.595-15.39 1.922-32.798 3.148-39.2-.1-1.407-.17-2.368-1.032-.886z"/>
        <path fill="#ff8080" fill-rule="evenodd" stroke="#000" stroke-width=".149" d="M90.785 859.663c-.66.067-1.019.877-1.715 2.331l-.314 1.304c.544-.65 1.097-1.892 1.622-1.379z"/>
        <path fill="#ff8080" fill-rule="evenodd" stroke="#000" stroke-width=".149" d="M89.135 861.847c-.456.838-.852 2.338-1.246 3.413-1.285 5.965-2.89 15.657-1.698 15.554-.621-1.372 1.008-11.274 2.944-18.967z"/>
        <path fill="#ff8080" fill-rule="evenodd" stroke="#000" stroke-width=".149" d="M86.149 880.773c1.14.973 6.514-21.122 4.622-21.167l-.387 2.192c-.832 11.153-3.732 18.61-4.235 18.975z"/>
        <path fill="#808080" fill-rule="evenodd" stroke="#000" stroke-width=".25" d="M88.136 810.873c-9.854 18.11-6.501 30.35 2.62 39.616-.116.476.117 1.262-.033 1.765-.143.482-.355.87-.368 1.331-.02.709.21 1.208.213 1.734.005.847-.093 1.039-.033 1.831l11.711 2.589 8.776 12.28 19.603-19.415-2.336-38.448z"/>
        <path fill="#f55" fill-rule="evenodd" stroke="#000" stroke-width=".5" d="M98.41 1042.047c-7.014.387-12.696.612-18.231-.488 1-21.154 2.086-42.214 1.607-64.018-.405-18.42 4.732-45.179 7.5-52.5 2.674-7.054 2.753-12.813 2.321-17.679-1.913-15.955-1.332-36.961-.11-45.873.55-4.026-1.078-2.698-1.006-5.289 2.575.776 8.24 1.812 12.545 2.465l5.682 9.092z"/>
        <path fill="#ff8080" fill-rule="evenodd" stroke="#000" stroke-width=".5" d="M97.81 1042.113c15.052-.386 29.969-3.8 31.119-8.01-3.602-4.834-6.795-5.69-6.518-7.143.258-1.358-.214-2.455-1.295-3.794.458-6.919-1.042-13.75-3.437-18.616.211-12.6.664-24.442.635-37.798-.026-12.019 5.451-51.181 8.713-72.352l-19.8-28.992c.768 25.11-5.097 48.895-7.474 66.872-.426 3.215-1.78 4.668-2.64 7.66-.747 2.6-.982 6.75-1.654 9.387-3.216 12.627-4.28 28.064-1.767 37.88 2.78 10.861 2.28 20.22 2.399 30.305.117 10.056 1.256 16.632 1.719 24.6z"/>
        <path fill="#ff2a2a" fill-rule="evenodd" stroke="#000" stroke-width=".25" d="M111.811 876.312c-3.47 1.084-3.582 9.325-2.949 13.032l.681-.578c-.503-5.935 1.436-9.418 3.057-11.381z"/>
        <path fill="#ff8080" fill-rule="evenodd" stroke="#000" stroke-width=".25" d="M112.214 877.416c-2.27.072-3.006.723-4.506 1.894l-.253 1.042c1.487-.529 2.62-1.53 4.798-1.136z"/>
        <path fill="#ff2a2a" fill-rule="evenodd" stroke="#000" stroke-width=".5" d="M109.949 871.419c-.028-1.759 1.527-2.586 2.872-3.536l19.414 35.198-3.535 1.673c-5.822-11.369-12.388-22.224-18.751-33.335z"/>
        <path fill="#ff2a2a" fill-rule="evenodd" stroke="#000" stroke-width=".276" d="M116.267 878.435c2.785 3.365-1.942 10.09-4.743 12.625l-.332-.955c3.98-4.424 4.113-8.624 3.667-11.371z"/>
        <path fill="#f55" fill-rule="evenodd" stroke="#000" stroke-width=".5" d="M162.256 1046.238c-10.296 4.396-24.229 2.094-31.82 1.578 1.19-38.603-3.612-77.063 3.85-115.677.863-4.467 2.374-8.663.223-13.348-2.123-4.624-4.148-9.78-6.602-14.47-5.7-10.89-12.343-21.414-18.086-32.316l.29-.712c3.04 3.56 13.059 22.617 18.193 30.615l.736-.327-17.139-33.347c4.791-5.102 9.707-8.71 14.349-15.604l28.66 50.982zM87.473 811.851c8.862-1.243 16.512 2.036 23.896 3.694l1.863-13.038c-6.604-1.288-13.36-2.289-21.072-1.828z"/>
        <path fill="#ff8080" fill-rule="evenodd" stroke="#000" stroke-width=".5" d="M110.201 816.081l1.926-14.679 21.718 4.073c3.05.571 6.451 2.108 7.65 4.88 1.355 3.137.01 13.05-.278 13.642-1.527 3.121-.086 4.122.573 7.277.374 1.786-.151 4.35.83 6.43 13.494 28.575 25.04 67.643 25.823 84.096.138 2.893-.126 22.135.126 32.962.358 15.391.77 30.776 2.273 46.082.19 1.942 1.016 4.885 1.334 7.34.315 2.434.02 3.729.055 4.403.348 6.674 3.742 9.99 4.356 17.583.288 3.562 3.602 7.273 4.61 9.818-6.676 2.386-12.642 5.623-18.941 8.46-5.653-7.973-7.888-17.6-8.965-24.623-1.708-11.126-3.24-22.076-3.87-32.963-.907-15.675-1.5-31.308-.929-46.965.198-5.415-1.27-10.249-1.49-15.547-.236-5.728.879-11.096.543-16.652-.28-4.63-3.141-10.37-6.488-18.2-4.488-10.503-10.24-24.406-15.546-41.02 3.393-17.328-3.108-32.267-15.31-36.397z"/>
        <path fill="#f55" fill-rule="evenodd" stroke="#000" stroke-width=".25" d="M105.674 895.863c.2.55 2.947.767 3.03.473.746-5.606 2.277-9.838 3.441-14.71l-1.136-1.736c-2.228 3.974-3.93 9.528-5.335 15.973z"/>
        <path fill="none" stroke="#000" stroke-dasharray=".75,.75" stroke-width=".25" d="M141.92 813.032c-2.31-6.031-17.623-8.42-28.17-9.554-.362 3.68-1.077 7.185-1.652 10.76 14.65 6.747 16.291 22.599 15.447 35.044 3.451-.352 6.148-9.924 4.285-21.072.385-6.33 9.657-6.553 8.527-1.696"/>
        <path fill="none" stroke="#000" stroke-width=".25" d="M125.67 852.407c7.454-3.924 8.94-5.833 7.711-24.281-.098-1.469.867-2.939 2.959-3.063 3.875-.231 2.193 4.474 5.312 5.603"/>
        <path fill="none" stroke="#000" stroke-dasharray=".75,.75" stroke-width=".25" d="M133.66 850.04c7.048 18.305 15.908 37.9 19.584 58.015 3.307 18.094 2.805 36.498 2.95 53.645.165 19.224 1.584 37.981 3.694 58.23l1.228-.113c-.167-3.966-3.633-27.4-3.713-57.923-.069-26.164-.377-39.671-3.43-56.152-2.84-15.333-14.597-45.103-18.884-55.97z"/>
        <g stroke="#000">
            <path fill="#ff2a2a" fill-rule="evenodd" stroke-width=".5" d="M140.47 1007.65c-.445 1.226-.465 2.312-.327 3.58 0 0 6.787.884 6.771.773-.016-.11.302-4.17.302-4.17z"/>
            <path fill="#f55" fill-rule="evenodd" stroke-width=".5" d="M165.034 1005.359c-1.764-.354-10.76 2.144-20.077 2.951l-2.78 3.256 3.096 1.763c4.5-.767 18.963-3.82 20.329-3.867-.41-1.505-.195-2.814-.568-4.103z"/>
            <path fill="#ccc" stroke-linecap="round" stroke-linejoin="round" stroke-width=".24" d="M146.156 1012.13a1.4 1.2 82.879 0 0 1.017-1.538 1.4 1.2 82.879 0 0-1.365-1.24 1.4 1.2 82.879 0 0-1.015 1.537 1.4 1.2 82.879 0 0 1.363 1.241zm-.079-.522a.883.756 82.879 0 1-.86-.784.883.756 82.879 0 1 .641-.969.883.756 82.879 0 1 .86.782.883.756 82.879 0 1-.64.971z"/>
            <path fill="#ccc" fill-rule="evenodd" stroke-width=".5" d="M151.566 1006.997c-1.566-.072-6.713.603-6.98 1.002-.259.387.029 5.24.351 5.566.373.378 7.305-.655 7.721-1.08.286-.292-.101-4.945-.664-5.41-.053-.044-.204-.068-.428-.078zm-.695.97c.166.01.277.027.316.058.418.324.707 3.563.495 3.767-.31.296-5.46 1.017-5.737.754-.24-.228-.452-3.61-.26-3.879.199-.278 4.022-.75 5.186-.699z"/>
            <ellipse cx="141.563" cy="1009.65" fill="#ccc" stroke-linecap="round" stroke-linejoin="round" stroke-width=".232" rx="1.27" ry="1.237"/>
            <path fill="#ccc" stroke-linecap="round" stroke-linejoin="round" stroke-width=".262" d="M154.884 1007.827a1.45 1.389 0 0 0-1.452 1.388 1.45 1.389 0 0 0 1.452 1.389 1.45 1.389 0 0 0 1.449-1.389 1.45 1.389 0 0 0-1.45-1.389zm.015.523a.914.875 0 0 1 .914.877.914.875 0 0 1-.914.875.914.875 0 0 1-.914-.875.914.875 0 0 1 .914-.877z"/>
            <path fill="#ccc" stroke-linecap="round" stroke-linejoin="round" stroke-width=".24" d="M159.203 1006.9a1.2 1.4 0 0 0-1.2 1.4 1.2 1.4 0 0 0 1.2 1.4 1.2 1.4 0 0 0 1.198-1.4 1.2 1.4 0 0 0-1.198-1.4zm.013.527a.756.883 0 0 1 .756.884.756.883 0 0 1-.756.883.756.883 0 0 1-.756-.883.756.883 0 0 1 .756-.884z"/>
            <path fill="#ccc" stroke-linecap="round" stroke-linejoin="round" stroke-width=".262" d="M150.358 1008.71a1.45 1.389 0 0 0-1.452 1.39 1.45 1.389 0 0 0 1.452 1.388 1.45 1.389 0 0 0 1.449-1.389 1.45 1.389 0 0 0-1.45-1.388zm.015.524a.914.875 0 0 1 .914.877.914.875 0 0 1-.914.875.914.875 0 0 1-.914-.875.914.875 0 0 1 .914-.877z"/>
            <path fill="#ccc" fill-rule="evenodd" stroke-width=".25" d="M149.66 1010.649c.034.066 3.15-.151 3.17-.257.094-.347.217-.688-.107-1.121a39.73 39.73 0 0 1-3.008.273c-.396.259-.31.816-.055 1.105z"/>
            <path fill="none" stroke-width=".5" d="M164.063 1005.532l.468 3.928"/>
        </g>
        <g stroke="#000" transform="translate(-.997 -9.443)">
            <path fill="#ff2a2a" fill-rule="evenodd" stroke-width=".5" d="M140.47 1007.65c-.445 1.226-.465 2.312-.327 3.58 0 0 6.787.884 6.771.773-.016-.11.302-4.17.302-4.17z"/>
            <path fill="#f55" fill-rule="evenodd" stroke-width=".5" d="M165.034 1005.359c-1.764-.354-10.76 2.144-20.077 2.951l-2.78 3.256 3.096 1.763c4.5-.767 18.963-3.82 20.329-3.867-.41-1.505-.195-2.814-.568-4.103z"/>
            <path fill="#ccc" stroke-linecap="round" stroke-linejoin="round" stroke-width=".24" d="M146.156 1012.13a1.4 1.2 82.879 0 0 1.017-1.538 1.4 1.2 82.879 0 0-1.365-1.24 1.4 1.2 82.879 0 0-1.015 1.537 1.4 1.2 82.879 0 0 1.363 1.241zm-.079-.522a.883.756 82.879 0 1-.86-.784.883.756 82.879 0 1 .641-.969.883.756 82.879 0 1 .86.782.883.756 82.879 0 1-.64.971z"/>
            <path fill="#ccc" fill-rule="evenodd" stroke-width=".5" d="M151.566 1006.997c-1.566-.072-6.713.603-6.98 1.002-.259.387.029 5.24.351 5.566.373.378 7.305-.655 7.721-1.08.286-.292-.101-4.945-.664-5.41-.053-.044-.204-.068-.428-.078zm-.695.97c.166.01.277.027.316.058.418.324.707 3.563.495 3.767-.31.296-5.46 1.017-5.737.754-.24-.228-.452-3.61-.26-3.879.199-.278 4.022-.75 5.186-.699z"/>
            <ellipse cx="141.563" cy="1009.65" fill="#ccc" stroke-linecap="round" stroke-linejoin="round" stroke-width=".232" rx="1.27" ry="1.237"/>
            <path fill="#ccc" stroke-linecap="round" stroke-linejoin="round" stroke-width=".262" d="M154.884 1007.827a1.45 1.389 0 0 0-1.452 1.388 1.45 1.389 0 0 0 1.452 1.389 1.45 1.389 0 0 0 1.449-1.389 1.45 1.389 0 0 0-1.45-1.389zm.015.523a.914.875 0 0 1 .914.877.914.875 0 0 1-.914.875.914.875 0 0 1-.914-.875.914.875 0 0 1 .914-.877z"/>
            <path fill="#ccc" stroke-linecap="round" stroke-linejoin="round" stroke-width=".24" d="M159.203 1006.9a1.2 1.4 0 0 0-1.2 1.4 1.2 1.4 0 0 0 1.2 1.4 1.2 1.4 0 0 0 1.198-1.4 1.2 1.4 0 0 0-1.198-1.4zm.013.527a.756.883 0 0 1 .756.884.756.883 0 0 1-.756.883.756.883 0 0 1-.756-.883.756.883 0 0 1 .756-.884z"/>
            <path fill="#ccc" stroke-linecap="round" stroke-linejoin="round" stroke-width=".262" d="M150.358 1008.71a1.45 1.389 0 0 0-1.452 1.39 1.45 1.389 0 0 0 1.452 1.388 1.45 1.389 0 0 0 1.449-1.389 1.45 1.389 0 0 0-1.45-1.388zm.015.524a.914.875 0 0 1 .914.877.914.875 0 0 1-.914.875.914.875 0 0 1-.914-.875.914.875 0 0 1 .914-.877z"/>
            <path fill="#ccc" fill-rule="evenodd" stroke-width=".25" d="M149.66 1010.649c.034.066 3.15-.151 3.17-.257.094-.347.217-.688-.107-1.121a39.73 39.73 0 0 1-3.008.273c-.396.259-.31.816-.055 1.105z"/>
            <path fill="none" stroke-width=".5" d="M164.063 1005.532l.468 3.928"/>
        </g>
        <path fill="#ff2a2a" fill-rule="evenodd" stroke="#000" stroke-width=".5" d="M136.966 979.736c-.446 1.226-.466 2.312-.328 3.58 0 0 6.787.884 6.771.773-.015-.11.302-4.17.302-4.17z"/>
        <path fill="#f55" fill-rule="evenodd" stroke="#000" stroke-width=".5" d="M163.213 978.339c-1.724-.513-10.911 1.155-20.262 1.11l-3.065 2.989 2.922 2.038c4.552-.354 19.232-2.076 20.597-1.999-.27-1.536.062-2.82-.192-4.138z"/>
        <path fill="#ccc" stroke="#000" stroke-linecap="round" stroke-linejoin="round" stroke-width=".24" d="M143.796 983.362a1.4 1.2 88.106 0 0 1.153-1.439 1.4 1.2 88.106 0 0-1.245-1.36 1.4 1.2 88.106 0 0-1.152 1.44 1.4 1.2 88.106 0 0 1.244 1.36zm-.03-.527a.883.756 88.106 0 1-.785-.858.883.756 88.106 0 1 .727-.907.883.756 88.106 0 1 .784.857.883.756 88.106 0 1-.726.908z"/>
        <path fill="#ccc" fill-rule="evenodd" stroke="#000" stroke-width=".5" d="M149.652 978.743c-1.553-.214-6.74-.01-7.042.362-.293.362-.449 5.22-.157 5.576.336.41 7.333.013 7.787-.373.31-.265.35-4.933-.169-5.448-.049-.048-.197-.086-.419-.116zm-.78.904c.164.025.273.05.31.085.386.362.378 3.614.148 3.797-.335.267-5.53.516-5.781.228-.218-.248-.121-3.635.095-3.886.222-.259 4.073-.38 5.227-.224z"/>
        <ellipse cx="138.058" cy="981.736" fill="#ccc" stroke="#000" stroke-linecap="round" stroke-linejoin="round" stroke-width=".232" rx="1.27" ry="1.237"/>
        <path fill="#ccc" stroke="#000" stroke-linecap="round" stroke-linejoin="round" stroke-width=".262" d="M152.88 979.872a1.45 1.389 5.227 0 0-1.572 1.25 1.45 1.389 5.227 0 0 1.32 1.516 1.45 1.389 5.227 0 0 1.569-1.251 1.45 1.389 5.227 0 0-1.317-1.515zm-.032.522a.914.875 5.227 0 1 .83.957.914.875 5.227 0 1-.99.788.914.875 5.227 0 1-.83-.954.914.875 5.227 0 1 .99-.79z"/>
        <path fill="#ccc" stroke="#000" stroke-linecap="round" stroke-linejoin="round" stroke-width=".24" d="M157.266 979.342a1.2 1.4 5.227 0 0-1.323 1.285 1.2 1.4 5.227 0 0 1.068 1.504 1.2 1.4 5.227 0 0 1.32-1.285 1.2 1.4 5.227 0 0-1.065-1.504zm-.035.527a.756.883 5.227 0 1 .672.95.756.883 5.227 0 1-.833.809.756.883 5.227 0 1-.673-.947.756.883 5.227 0 1 .834-.812z"/>
        <path fill="#ccc" stroke="#000" stroke-linecap="round" stroke-linejoin="round" stroke-width=".262" d="M148.292 980.34a1.45 1.389 5.227 0 0-1.571 1.25 1.45 1.389 5.227 0 0 1.318 1.516 1.45 1.389 5.227 0 0 1.57-1.251 1.45 1.389 5.227 0 0-1.317-1.515zm-.032.523a.914.875 5.227 0 1 .83.956.914.875 5.227 0 1-.99.788.914.875 5.227 0 1-.83-.954.914.875 5.227 0 1 .99-.79z"/>
        <path fill="#ccc" fill-rule="evenodd" stroke="#000" stroke-width=".25" d="M147.42 982.207c.03.068 3.152.136 3.18.033.126-.337.28-.666-.002-1.127a39.71 39.71 0 0 1-3.02-.002c-.42.222-.384.785-.157 1.096z"/>
        <path fill="none" stroke="#000" stroke-width=".5" d="M162.23 978.423l.109 3.955"/>
        <path fill="#ff2a2a" fill-rule="evenodd" stroke="#000" stroke-width=".5" d="M137.956 988.653c-.446 1.227-.466 2.313-.328 3.58 0 0 6.787.884 6.771.774-.016-.11.302-4.17.302-4.17z"/>
        <path fill="#f55" fill-rule="evenodd" stroke="#000" stroke-width=".5" d="M163.265 986.85c-1.742-.45-10.862 1.549-20.209 1.84l-2.955 3.098 2.993 1.932c4.537-.519 19.146-2.769 20.512-2.74-.326-1.527-.04-2.822-.341-4.13z"/>
        <path fill="#ccc" stroke="#000" stroke-linecap="round" stroke-linejoin="round" stroke-width=".24" d="M144.042 992.57a1.4 1.2 86.04 0 0 1.1-1.479 1.4 1.2 86.04 0 0-1.293-1.314 1.4 1.2 86.04 0 0-1.1 1.48 1.4 1.2 86.04 0 0 1.293 1.314zm-.05-.525a.883.756 86.04 0 1-.814-.83.883.756 86.04 0 1 .693-.932.883.756 86.04 0 1 .815.828.883.756 86.04 0 1-.693.934z"/>
        <path fill="#ccc" fill-rule="evenodd" stroke="#000" stroke-width=".5" d="M149.728 987.744c-1.56-.158-6.737.232-7.025.615-.28.373-.26 5.234.044 5.578.351.397 7.33-.251 7.768-.653.302-.276.172-4.943-.364-5.438-.05-.047-.2-.08-.423-.102zm-.748.93c.166.02.275.042.313.075.4.347.509 3.598.286 3.79-.325.278-5.508.714-5.77.436-.226-.24-.252-3.629-.045-3.888.213-.266 4.057-.526 5.216-.412z"/>
        <ellipse cx="139.159" cy="990.587" fill="#ccc" stroke="#000" stroke-linecap="round" stroke-linejoin="round" stroke-width=".232" rx="1.27" ry="1.237"/>
        <path fill="#ccc" stroke="#000" stroke-linecap="round" stroke-linejoin="round" stroke-width=".262" d="M153.663 988.718a1.45 1.389 0 0 0-1.45 1.389 1.45 1.389 0 0 0 1.45 1.389 1.45 1.389 0 0 0 1.45-1.389 1.45 1.389 0 0 0-1.45-1.389zm.016.524a.914.875 0 0 1 .914.877.914.875 0 0 1-.914.875.914.875 0 0 1-.914-.875.914.875 0 0 1 .914-.877z"/>
        <path fill="#ccc" stroke="#000" stroke-linecap="round" stroke-linejoin="round" stroke-width=".24" d="M158.474 988.037a1.2 1.4 0 0 0-1.2 1.4 1.2 1.4 0 0 0 1.2 1.4 1.2 1.4 0 0 0 1.198-1.4 1.2 1.4 0 0 0-1.198-1.4zm.013.528a.756.883 0 0 1 .755.884.756.883 0 0 1-.755.882.756.883 0 0 1-.756-.882.756.883 0 0 1 .756-.884z"/>
        <path fill="#ccc" stroke="#000" stroke-linecap="round" stroke-linejoin="round" stroke-width=".262" d="M148.426 989.388a1.45 1.389 3.16 0 0-1.525 1.307 1.45 1.389 3.16 0 0 1.372 1.466 1.45 1.389 3.16 0 0 1.524-1.306 1.45 1.389 3.16 0 0-1.37-1.467zm-.013.524a.914.875 3.16 0 1 .864.926.914.875 3.16 0 1-.96.823.914.875 3.16 0 1-.865-.924.914.875 3.16 0 1 .961-.825z"/>
        <path fill="#ccc" fill-rule="evenodd" stroke="#000" stroke-width=".25" d="M147.623 991.285c.03.068 3.154.023 3.179-.081.113-.342.255-.675-.044-1.126a39.714 39.714 0 0 1-3.019.107c-.41.237-.355.798-.116 1.1z"/>
        <path fill="none" stroke="#000" stroke-width=".5" d="M162.284 986.96l.469 3.928"/>
        <path fill="#ccc" stroke="#000" stroke-linecap="round" stroke-linejoin="round" stroke-width=".24" d="M131.432 903.47a1.4 1.2 89.268 0 0 1.182-1.415 1.4 1.2 89.268 0 0-1.218-1.385 1.4 1.2 89.268 0 0-1.18 1.416 1.4 1.2 89.268 0 0 1.216 1.384zm-.02-.527a.883.756 89.268 0 1-.767-.875.883.756 89.268 0 1 .744-.891.883.756 89.268 0 1 .768.872.883.756 89.268 0 1-.745.894zM129.572 897.868a1.4 1.2 49.75 0 0 .011-1.844 1.4 1.2 49.75 0 0-1.82-.293 1.4 1.2 49.75 0 0-.01 1.843 1.4 1.2 49.75 0 0 1.82.294zm-.35-.395a.883.756 49.75 0 1-1.149-.186.883.756 49.75 0 1 .007-1.162.883.756 49.75 0 1 1.147.185.883.756 49.75 0 1-.006 1.163zM127.078 892.596a1.4 1.2 49.75 0 0 .012-1.844 1.4 1.2 49.75 0 0-1.82-.293 1.4 1.2 49.75 0 0-.011 1.843 1.4 1.2 49.75 0 0 1.82.294zm-.35-.394a.883.756 49.75 0 1-1.149-.187.883.756 49.75 0 1 .007-1.162.883.756 49.75 0 1 1.147.185.883.756 49.75 0 1-.006 1.164zM124.71 887.672a1.4 1.2 49.75 0 0 .012-1.844 1.4 1.2 49.75 0 0-1.82-.294 1.4 1.2 49.75 0 0-.01 1.843 1.4 1.2 49.75 0 0 1.819.295zm-.35-.395a.883.756 49.75 0 1-1.148-.186.883.756 49.75 0 1 .007-1.162.883.756 49.75 0 1 1.147.185.883.756 49.75 0 1-.006 1.163zM121.633 882.515a1.4 1.2 62.974 0 0 .433-1.792 1.4 1.2 62.974 0 0-1.706-.702 1.4 1.2 62.974 0 0-.431 1.791 1.4 1.2 62.974 0 0 1.704.703zm-.251-.464a.883.756 62.974 0 1-1.076-.444.883.756 62.974 0 1 .273-1.13.883.756 62.974 0 1 1.074.443.883.756 62.974 0 1-.272 1.13zM119.597 877.128a1.4 1.2 49.75 0 0 .011-1.844 1.4 1.2 49.75 0 0-1.82-.293 1.4 1.2 49.75 0 0-.01 1.843 1.4 1.2 49.75 0 0 1.819.294zm-.35-.394a.883.756 49.75 0 1-1.15-.187.883.756 49.75 0 1 .008-1.162.883.756 49.75 0 1 1.147.185.883.756 49.75 0 1-.006 1.164zM116.882 871.983a1.4 1.2 49.75 0 0 .011-1.844 1.4 1.2 49.75 0 0-1.82-.294 1.4 1.2 49.75 0 0-.01 1.843 1.4 1.2 49.75 0 0 1.82.295zm-.35-.395a.883.756 49.75 0 1-1.149-.186.883.756 49.75 0 1 .007-1.162.883.756 49.75 0 1 1.147.185.883.756 49.75 0 1-.006 1.163z"/>
        <path fill="#ccc" stroke="#000" stroke-linecap="round" stroke-linejoin="round" stroke-width=".171" d="M128.843 905.317a1.187.725 62.78 0 0 .842-.596 1.187.725 62.78 0 0-.845-1.447 1.187.725 62.78 0 0-.84.597 1.187.725 62.78 0 0 .843 1.446zm-.01-.39a.748.457 62.78 0 1-.532-.913.748.457 62.78 0 1 .53-.375.748.457 62.78 0 1 .532.912.748.457 62.78 0 1-.53.376z"/>
        <path fill="#f55" fill-rule="evenodd" stroke="#000" stroke-width=".25" d="M131.446 902.907c.458-.268.047-1.72.047-1.72-2.97-.584-4.485-.909-6.676-1.831.223.843.397 1.69 1.231 2.493 1.82.571 3.578.778 5.398 1.058z"/>
        <path fill="#ff8080" fill-rule="evenodd" stroke="#000" stroke-width=".25" d="M129.297 897.042c-1.001 2.488-.268 5.094-.06 7.664-.34.061-.634-.082-.914-.522-1.986-2.38-1.171-7.724-.462-7.837 1.086-.306 1.324.185 1.436.695z"/>
        <path fill="#f55" fill-rule="evenodd" stroke="#000" stroke-width=".25" d="M126.384 892.372c.32-.427.478-.932.338-1.318-2.972-.584-5.144-.563-7.335-1.485.223.843.396 1.69 1.23 2.493 2.027.394 4.278-.201 5.767.31z"/>
        <path fill="#ff8080" fill-rule="evenodd" stroke="#000" stroke-width=".25" d="M124.525 886.909c-1.001 2.488-1.24 7.337-1.031 9.908-.34.06-.634-.92-.914-1.36-1.562-4.567-.16-9.224.548-9.337 1.087-.307 1.285.28 1.397.789z"/>
        <path fill="#f55" fill-rule="evenodd" stroke="#000" stroke-width=".25" d="M121.19 882.038c.32-.427.305-1.122-.01-1.54-3.334.048-5.633-.215-7.824-1.137.223.844.555 1.485 1.39 2.288 2.025.394 4.04 1.061 6.444.39z"/>
        <path fill="#ff8080" fill-rule="evenodd" stroke="#000" stroke-width=".25" d="M119.379 876.37c-1.001 2.488-1.697 8.237-1.49 10.807-.338.061-1.138-1.66-1.418-2.1-.804-3.432.802-9.384 1.51-9.496 1.088-.307 1.286.279 1.398.789zM116.47 871.694c-2.131 1.628-2.667 4.985-3.8 7.3-.323-.12-.132-2.009-.148-2.53 1.06-3.36 2.483-6.427 3.15-6.161 1.09.291.962.896.798 1.391zM107.842 879.192c-1.058.676-1.47 1.876-2.155 2.738-.637 4.763.029 12.488 4.149 12.374-3.074-1.07-3.79-8.962-1.994-15.112z"/>
        <path fill="#f55" fill-rule="evenodd" stroke="#000" stroke-width=".25" d="M111.264 879.153c-.169.334-.248.237-.55 1.813-2.133 11.158.406 18.421-2.247 46.44l2.277.447c2.022-20.155 1.183-34.95 1.69-46.001.049-1.277 1.325-3.002-1.17-2.699z"/>
        <path fill="#ff8080" fill-rule="evenodd" stroke="#000" stroke-width=".25" d="M109.66 894.273c4.632.74 9.142-16.916 2.468-16.9l.067 1.747c4.329 8.862-1.006 14.85-2.535 15.153z"/>
        <path fill="#ff8080" fill-rule="evenodd" d="M146.346 938.404c-.12-1.105-.75-2.024-1.631-2.852-.876-.824-1.989-1.547-3.043-2.267-1.067-.729-2.044-1.434-2.702-2.23-.648-.785-.937-1.595-.758-2.552.024-.092.059-.182.105-.273.109-.325.36-.676.758-1.048.516-.482 1.215-.945 1.982-1.397.781-.46 1.55-.863 2.287-1.288.71-.41 1.349-.817 1.746-1.229 1.622-1.614 2.096-4.232 2.062-6.937-.034-2.727-.585-5.638-1.122-7.916.446 2.305.899 5.214.838 7.914-.061 2.721-.645 5.137-2.17 6.528-.365.315-.96.647-1.691 1.015-.708.355-1.572.757-2.363 1.168-.8.416-1.596.877-2.223 1.393-.478.394-.898.853-1.13 1.392a2.32 2.32 0 0 0-.11.53c-.148 1.347.395 2.385 1.208 3.223.8.823 1.908 1.503 3.003 2.147 1.11.652 2.242 1.286 3.151 2.023.904.732 1.6 1.576 1.803 2.656zM136.055 915.108c1.645-1.109 2.878-2.6 3.779-4.34 1.632-4.024 1.457-8.938.83-12.96.387 4.105.276 8.892-1.516 12.662-.624 1.733-1.606 3.337-3.093 4.638zM132.709 899.387c.877-.368 1.59-.912 2.206-1.585.953-1.536 1.376-3.466 1.96-5.107-.828 1.642-1.411 3.362-2.511 4.72-.379.728-.894 1.412-1.655 1.972z"/>
        <path fill="#ccc" stroke="#000" stroke-linecap="round" stroke-linejoin="round" stroke-width=".253" d="M98.507 804.51a1.116 1.676 35.491 0 0-1.75-.004 1.116 1.676 35.491 0 0-.693 2.137 1.116 1.676 35.491 0 0 1.75 0 1.116 1.676 35.491 0 0 .693-2.134zm-.455.413a.703 1.056 35.491 0 1-.438 1.347.703 1.056 35.491 0 1-1.103 0 .703 1.056 35.491 0 1 .437-1.346.703 1.056 35.491 0 1 1.104 0z"/>
        <path fill="#ccc" stroke="#000" stroke-linecap="round" stroke-linejoin="round" stroke-width=".216" d="M95.14 804.34a.94 1.454 30.67 0 0-1.442-.003.94 1.454 30.67 0 0-.57 1.894.94 1.454 30.67 0 0 1.441.001.94 1.454 30.67 0 0 .571-1.893zm-.374.367a.592.916 30.67 0 1-.361 1.195.592.916 30.67 0 1-.91-.001.592.916 30.67 0 1 .36-1.194.592.916 30.67 0 1 .91 0z"/>
        <path fill="#ccc" stroke="#000" stroke-linecap="round" stroke-linejoin="round" stroke-width=".198" d="M92.446 804.442a.842 1.368 25.786 0 0-1.268-.003.842 1.368 25.786 0 0-.501 1.817.842 1.368 25.786 0 0 1.267 0 .842 1.368 25.786 0 0 .502-1.815zm-.33.352a.53.862 25.786 0 1-.317 1.146.53.862 25.786 0 1-.799-.001.53.862 25.786 0 1 .317-1.145.53.862 25.786 0 1 .8 0z"/>
        <path fill="#ff8080" fill-rule="evenodd" stroke="#000" stroke-width=".5" d="M87.009 812.54c3.185-4.31 4.498-8.094 6.116-11.964-.073-.56-.017-1.362-.402-1.339-.967.763-2.034.624-3.08.67-.34 1.931-1.239 3.356-1.833 5.379-.617 2.1-1.96 3.869-2.989 5.782z"/>
        <path fill="#ccc" stroke="#000" stroke-linecap="round" stroke-linejoin="round" stroke-width=".165" d="M90.02 804.645a.653 1.219 18.226 0 0-.958-.002.653 1.219 18.226 0 0-.379 1.663.653 1.219 18.226 0 0 .957 0 .653 1.219 18.226 0 0 .38-1.66zm-.25.322a.412.768 18.226 0 1-.239 1.049.412.768 18.226 0 1-.603-.001.412.768 18.226 0 1 .239-1.047.412.768 18.226 0 1 .604 0z"/>
        <path fill-rule="evenodd" d="M103.318 859.075l.146-.185c-3.192-4.143-9.203-6.99-13.902-11.299-4.768-4.371-8.432-10.398-7.051-21.153-1.457 10.746 2.128 16.845 6.896 21.32 4.8 4.505 10.562 7.218 13.694 11.407l.217-.09z"/>
        <path fill-rule="evenodd" d="M90.625 850.33l-.05.103c2.334 2.249 4.096 2.903 6.581 2.867-2.483-.037-4.183-.759-6.43-3.021l-.101.052z"/>
        <path fill="#ccc" stroke="#000" stroke-linecap="round" stroke-linejoin="round" stroke-width=".24" d="M93.635 861.922a1.4 1.2 80.54 0 0 .954-1.578 1.4 1.2 80.54 0 0-1.414-1.184 1.4 1.2 80.54 0 0-.952 1.578 1.4 1.2 80.54 0 0 1.412 1.184zm-.1-.518a.883.756 80.54 0 1-.89-.748.883.756 80.54 0 1 .6-.994.883.756 80.54 0 1 .891.746.883.756 80.54 0 1-.6.996z"/>
        <path fill="#ccc" stroke="#000" stroke-linecap="round" stroke-linejoin="round" stroke-width=".221" d="M93.055 867.815a1.391 1.024 85.334 0 0 .813-1.571 1.391 1.024 85.334 0 0-1.205-1.178 1.391 1.024 85.334 0 0-.812 1.57 1.391 1.024 85.334 0 0 1.204 1.18zm-.085-.516a.877.646 85.334 0 1-.76-.744.877.646 85.334 0 1 .513-.99.877.646 85.334 0 1 .759.742.877.646 85.334 0 1-.512.992z"/>
        <path fill="#ccc" stroke="#000" stroke-linecap="round" stroke-linejoin="round" stroke-width=".2" d="M92.012 872.482a1.4.84 87.287 0 0 .666-1.583 1.4.84 87.287 0 0-.988-1.187 1.4.84 87.287 0 0-.665 1.582 1.4.84 87.287 0 0 .987 1.188zm-.07-.52a.882.53 87.287 0 1-.622-.75.882.53 87.287 0 1 .42-.998.882.53 87.287 0 1 .622.749.882.53 87.287 0 1-.42.999zM91.8 878.56a1.4.84 87.287 0 0 .667-1.583 1.4.84 87.287 0 0-.988-1.187 1.4.84 87.287 0 0-.665 1.582 1.4.84 87.287 0 0 .987 1.188zm-.069-.52a.882.53 87.287 0 1-.622-.75.882.53 87.287 0 1 .42-.997.882.53 87.287 0 1 .622.748.882.53 87.287 0 1-.42.999z"/>
        <path fill="#ccc" stroke="#000" stroke-linecap="round" stroke-linejoin="round" stroke-width=".173" d="M91.196 883.792a1.413.62 88.429 0 0 .492-1.598 1.413.62 88.429 0 0-.729-1.199 1.413.62 88.429 0 0-.49 1.598 1.413.62 88.429 0 0 .727 1.199zm-.05-.525a.89.391 88.429 0 1-.46-.757.89.391 88.429 0 1 .31-1.007.89.391 88.429 0 1 .459.755.89.391 88.429 0 1-.31 1.009z"/>
        <path fill="#ccc" stroke="#000" stroke-linecap="round" stroke-linejoin="round" stroke-width=".166" d="M91.213 889.453a1.292.624 88.18 0 0 .494-1.46 1.292.624 88.18 0 0-.733-1.096 1.292.624 88.18 0 0-.494 1.46 1.292.624 88.18 0 0 .733 1.096zm-.052-.48a.814.393 88.18 0 1-.462-.692.814.393 88.18 0 1 .312-.92.814.393 88.18 0 1 .461.69.814.393 88.18 0 1-.311.922z"/>
        <path fill="#f55" fill-rule="evenodd" stroke="#000" stroke-width=".25" d="M91.159 888.964c.457-.269.025-1.5.025-1.5-.33-.02-.698-.324-1.187-.687-.153.435-.322.957.121 2.1.43.103.595.025 1.04.087zM91.087 883.17c.458-.269.025-1.5.025-1.5-.33-.02-.697-.324-1.187-.687-.152.435-.321.957.121 2.1.43.103.595.025 1.04.086zM91.628 877.866c.458-.268.025-1.5.025-1.5-.33-.02-.995-.346-1.485-.709-.152.435-.321.958.122 2.1.43.103.893.047 1.338.11zM91.866 871.845c.457-.269.025-1.5.025-1.5-.33-.02-.996-.346-1.485-.71-.153.436-.322.958.121 2.101.43.103.893.047 1.339.109zM93.059 867.182c.458-.268.025-1.5.025-1.5-.33-.02-1.747-.379-2.237-.742-.152.435-.32.958.122 2.1.43.103 1.645.08 2.09.142zM93.75 861.194c.359-.391-.418-1.44-.418-1.44-.321.077-1.88.638-2.455.436a9.336 9.336 0 0 0 .139 2.026c.44-.029 2.29-.95 2.734-1.022z"/>
        <path fill="#ff8080" fill-rule="evenodd" d="M90.89 965.385c.2-2.223-1.28-4.103-2.625-5.967-.674-.933-1.289-1.83-1.65-2.752-.356-.912-.448-1.81-.131-2.763.037-.096.083-.187.138-.272.335-.726 1.25-1.272 2.434-1.766 1.256-.525 2.741-.96 3.46-1.574 1.484-1.216 2.268-3.654 2.688-6.29.424-2.662.49-5.62.46-7.961-.054 2.345-.204 5.287-.708 7.917-.508 2.654-1.361 4.903-2.751 5.938-.68.477-2.01.772-3.419 1.265-1.158.405-2.443.97-3.03 2.02-.068.148-.121.303-.159.465-.315 1.224-.089 2.313.384 3.299.468.974 1.192 1.882 1.919 2.757 1.454 1.752 3.035 3.502 2.99 5.684zM89.71 929.274c1.935-.435 3.625-1.377 5.097-2.671 2.982-3.157 4.603-7.799 5.478-11.774-1.13 3.965-2.97 8.385-6.009 11.247-1.21 1.388-2.708 2.526-4.566 3.198zM92.3 913.412c.952-.025 1.814-.273 2.63-.676 1.447-1.086 2.542-2.73 3.683-4.047-1.369 1.229-2.537 2.62-4.054 3.485-.618.542-1.346.992-2.259 1.238z"/>
    </g>
</svg>
