<svg xmlns="http://www.w3.org/2000/svg" cursor="default" viewBox="0 0 256 256">
    <g fill-rule="evenodd">
        <path fill="#ffb380" stroke="#000" d="M176.917 43.54c-5.79-1.807-10.139-3.344-9.478-8.539-3.826-2.169-5.32-7.231-.813-9.327.233-4.94 4.944-8.214 10.332-6.881 2.332-5.488 10.28-3.917 13.943-.685 2.694-4.645 13.091-2.772 14.996 2.658 6.79-3.069 11.427 4.35 10.371 7.214 3.95.533 6.88 5.226 4.645 9.407 3.806 3.719.198 8.293-3.116 8.018-1.405 5.55-10.004 5.773-14.438 3.755-1.175 2.569-.008 15.958-1.608 12.835z"/>
        <path d="M171.004 33.886c-1.12-.079-2.09.589-2.63.868.81.005 1.614-.258 2.42.11zM170.679 28.913c-1.299-.693-2.563-1.71-3.758-2.62.935 1.122 2.016 2.43 3.188 3.442zM177.97 26.23l.484-.123c-.695-2.04-1.166-4.273-1.494-6.442-.005 2.183.136 4.502.526 6.69l.484-.124z"/>
        <path fill="#f55" stroke="#000" d="M43.368 123.458c-28.36 16.838 21.336 71.938 47.151 55.357l16.438-38.635-27.02-18.609z"/>
        <path fill="#ff8080" stroke="#000" d="M96.073 111.612c-11.66 4.74-38.434 11.686-55.304 11.883 29.455 3.237 71.527-5.678 49.757 55.26 6.866-10.874 8.259-21.747 21.411-32.62 10.179-23.677-3.473-34.788-15.864-34.523z"/>
        <path fill="#ffb380" stroke="#000" d="M34.82 121.624c-14.799 5.885-9.26 11.54-7.918 17.17-6.087 8.412-.343 10.91.409 15.903-4.763 10.047 2.588 10.088 5.914 13.455-4.72 10.725.739 14.1 9.787 14.883 1.042 11.722 8.927 11.067 17.945 8.36 6.667 4.018 13.544 3.19 20.596-1.631 11.68 7.993 10.32-1.588 14.07-4.282 13.73-3.357 15.348-10.094 11.012-16.31 5.477-5.405 1.88-10.02-1.223-14.678 3.635-3.805 4.34-7.612-1.225-11.418.53-3.214.299-5.378-3.677-8.525.221-3.682-6.469-14.426-14.254-11.887.024-3.65-10.823-5.958-15.641-3.798-2.664-5.41-13.531-5.912-17.039-3.172-5.997-4.921-19.736 1.153-18.757 5.93zm10.358 2.642c5.356-.087 16.099.43 22.886 1.076 10.097.96 20.537 3.655 25.432 12.219 2.507 4.384 4.086 12.285 2.328 18.177-2.248 7.538-10.748 11.314-22.342 23.922-23.092-9.209-44.87-45.14-31.517-55.088.242-.18 1.427-.278 3.213-.306z"/>
        <path fill="#f55" stroke="#000" d="M171.529 25.948c-.937 7.432-2.208 14.353-4.67 17.5-12.415 15.87-31.566 39.066-52.14 54.937-9.868 7.612-11.745 10.33-21.736 14.478 11.698 6.522 19.548 13.746 15.295 37.499l70.344-61.214 27.973-42.672c-9.041-6.48-8.93-23.088-35.066-20.528z"/>
        <path fill="#fca" stroke="#000" d="M194.475 34.03c-5.791-1.808-10.139-3.345-9.478-8.54-3.827-2.168-5.32-7.231-.813-9.326.232-4.94 4.944-8.215 10.332-6.882 2.332-5.488 10.279-3.916 13.943-.684 2.693-4.646 13.09-2.773 14.996 2.657 6.79-3.068 11.427 4.35 10.37 7.214 3.95.533 6.88 5.226 4.646 9.407 3.805 3.72.198 8.294-3.117 8.018-1.404 5.55-10.003 5.774-14.437 3.756-1.175 2.568-.008 15.957-1.609 12.835zM70.044 173.048c-10.794-5.504-28.823-3.37-29.848-1.874-3.875 5.698-2.397 15.441 5.19 17.155-8.5 8.582-1.555 21.289 2.02 21.192-4.642 14.488 6.092 18.053 9.66 16.146-3.25 12.9 8.676 18.566 13.266 14.704 2.464 12.951 19.354 9.354 22.639 7.64 12.564 6.635 21.395-3.182 20.475-7.496 11.318-2.4 11.355-7.781 8.652-11.677 5.76-5.754 5.914-11.841.288-15.857 2.29-3.313 1.056-8.501-3.893-8.218z"/>
        <path fill="#faa" stroke="#000" d="M95.485 152.856c-9.418 11.113-21.537 18.512-25.73 20.48-6.47 25.66 1.726 39.179 14.131 45.41 10.145 5.097 21.918 4.182 29.272-3.026 10.697-20.628 2.332-36.512 15.616-50.716z"/>
        <path fill="#ff8080" stroke="#000" d="M127.16 166.78c24.32-26.774 38.954-40.856 49.618-52.14 33.568-35.524 51.056-49.84 53.48-58.218 3.816-13.193 1.427-15.472 2.292-26.091-10.13-18.611-36.817-15.185-44.411-10.668.442 7.112 1.906 18.223-.577 21.335-44.807 56.156-62.773 71.273-92.837 112.743 8.633 7.972 24.199 14.54 32.435 13.04z"/>
        <path d="M67.16 184.149l.041-.499c-6.313-.356-11.926 1.673-17.489 4.103 5.749-2.146 11.324-3.778 17.406-3.106l.042-.498zM68.063 199.085c-4.843 1.215-9.765 3.626-14.602 5.102 5.105-1.204 9.86-3.226 14.814-4.125zM73.345 210.056c-2.952 1.08-5.293 3.397-7.475 5.818-2.196 2.438-4.301 5.07-6.785 6.91 2.593-1.713 4.835-4.247 7.148-6.566 2.33-2.335 4.658-4.37 7.43-5.214zM79.953 216.351c-4.746 4.345-7.31 10.165-10.054 15.659 3.086-5.427 5.878-10.927 10.71-14.904zM93.197 222.006c1.39 6.284-.467 14.117-1.092 20.671.936-6.35 3.166-14.36 2.074-20.861zM104.907 220.861c2.063 1.609 3.206 4.111 3.949 6.993.741 2.874 1.055 5.992 1.562 8.769-.337-2.767-.492-5.953-1.075-8.88-.58-2.922-1.607-5.72-3.796-7.65zM112.287 216.538c1.887 3.076 3.864 6.176 5.917 9.129-1.77-3.128-3.453-6.388-5.041-9.612zM115.635 211.248c.701-.03 1.44.226 2.248.59.792.36 1.576.783 2.34.998-.686-.362-1.377-.924-2.092-1.43-.704-.497-1.51-1.001-2.417-1.155zM38.321 138.738l.232-.442c-1.7-.798-3-.774-4.184-.453-1.1.298-2.286.932-3.546 1.328 1.413-.265 2.476-.694 3.643-.837 1.113-.137 2.208.011 3.623.847l.232-.443zM40.581 147.45c-2.425 2.421-5.932 4.179-8.605 5.849 2.745-1.33 6.54-2.855 9.276-5.108zM44.982 154.735c-3.221 4.726-7.831 8.206-11.996 12.115 4.305-3.587 9.25-6.909 12.805-11.528zM50.977 163.756c-1.508.186-2.153 1.152-2.516 2.122-.369.987-.492 2.037-.912 2.846.554-.708.886-1.806 1.365-2.634.492-.85 1.077-1.347 2.13-1.336zM41.194 125.506c-2.043-2.362-3.829-2.98-5.065-3.392 1.14.737 2.614 1.59 4.275 4.005zM54.536 124.662c.08-2.385-.268-4.833-.498-7.115-.101 2.343-.092 4.727-.497 7.013zM67.275 125.598c.26-.505.913-1.55 1.506-2.571.298-.513.584-1.026.803-1.472.219-.445.373-.826.401-1.064-.104.205-.332.543-.615.935a42.51 42.51 0 0 1-1.003 1.32c-.73.928-1.501 1.85-1.905 2.27zM81.249 128.273c1.063-.854 2.538-2.45 4.106-4.047-1.837 1.395-3.462 2.662-4.639 3.201zM93.388 137.452c2.868-1.184 2.471-1.224 5.442-2.422-3.083.883-2.79.608-5.774 1.479zM96.082 154.769c-3.606 2.813-5.171 5.496-5.926 7.981 1.065-2.363 2.865-4.739 6.512-7.17zM100.205 158.119c-2.926 3.435-5.908 6.455-7.46 10.945 1.842-4.317 5.035-7.07 8.197-10.269zM122.697 166.765c-2.166 3.544-4.23 6.283-4.446 12.905.546-6.549 2.88-9.061 5.277-12.349zM113.958 164.77l-.452-.213c-1.22 2.978-1.724 4.745-2.515 7.474 1.107-2.623 1.914-4.244 3.42-7.047l-.453-.213zM107.431 161.885c-1.488 2.295-2.38 4.993-3.385 7.368 1.34-2.303 2.485-4.748 4.19-6.774zM93.962 113.476c-.63.65-1.847 1.352-3.147 1.983-1.29.625-2.624 1.164-3.494 1.523.917-.2 2.315-.583 3.685-1.061 1.346-.47 2.745-1.058 3.604-1.683zM100.268 117.518c.067.157.118.328.155.506-.813.777-2.327 1.5-3.786 2.11-1.613.675-3.31 1.267-4.226 1.67.858-.546 2.489-1.28 4.029-2.09 1.435-.754 2.745-1.554 3.33-2.296.162.043.329.078.498.1zM105.51 123.81c-.973.804-2.12 2.162-3.18 3.5-1.072 1.353-2.108 2.755-2.866 3.69.884-.827 2.05-2.122 3.242-3.36 1.202-1.248 2.415-2.42 3.39-3.02zM188.457 24.864l.105-.488c-1.12-.08-2.09.588-2.63.867.81.005 1.614-.257 2.42.11l.105-.489zM188.236 19.403c-1.298-.694-2.562-1.71-3.757-2.62.935 1.122 2.016 2.43 3.188 3.442zM196.012 16.596c-.695-2.039-1.166-4.273-1.494-6.442-.005 2.183.136 4.502.525 6.69zM208.218 16.089l.494.077c.13-1.924.178-3.83.01-5.76-.166 1.92-.544 3.771-.998 5.606l.494.077zM220.137 19.207c1.314-1.655 2.247-3.478 2.98-5.391-1.04 1.782-2.231 3.366-3.712 4.71zM227.387 24.163c1.316-.188 2.27-.975 3.075-1.811.819-.852 1.541-1.82 2.41-2.566-.97.614-1.844 1.493-2.746 2.195-.92.716-1.798 1.189-2.818 1.185zM231.899 30.033c1.89.051 3.402-.689 4.856-1.507-1.655.542-3.12.87-4.741.514zM232.21 33.083c.757.63 1.65 1.142 2.398 1.63-.56-.768-1.174-1.478-1.642-2.284z"/>
    </g>
</svg>
