<svg xmlns="http://www.w3.org/2000/svg" cursor="default" viewBox="0 0 256 256">
    <g fill-rule="evenodd">
        <path fill="#fca" stroke="#000" d="M56.643 200.242C3.077 42.804 236.823 44.294 189.859 198.758l6.57 4.385 5-15.357 18.035 2.857c8.423-3.083 8.48-11.674 5.715-18.214 4.448-4.108 4.469-8.215-.358-12.322 6.927-5.844 7.478-13.453 1.786-17.5 5.265-4.084 6.566-17.052.893-19.821 4.536-8.153-1.785-16.247-5.893-16.429 3.86-7.736-1.26-18.676-6.964-18.928.328-10.965-7.82-15.789-13.75-15.893-.446-8.898-5.28-12.197-13.75-10.536-.064-8.741-11.04-10.256-14.107-7.857-4.755-8.674-9.513-9.284-15.179-8.393-5.848-6.332-10.515-6.548-16.428-3.393-4.477-7.594-14.583-6.573-17.858-3.75-3.275-4.915-13.415-7.476-18.928.714-3.233-2.894-9.379-4.493-14.643 3.036-7.014-2.4-14.179-1.12-18.75 8.393-4.414-1.207-13.085 5.206-13.036 10.893-6.843-1.967-14.57 3.86-14.821 11.071-10.1 2.633-10.815 8-10.357 16.965-5.9 3.597-11.016 10.628-10.179 19.642-5.959 6.661-6.864 15.94-2.857 23.929-2.813 6.685-5.311 13.603 1.607 22.321-3.283 2.28-3.268 12.459 2.143 15.893l20.357 34.286z"/>
        <path fill="#ff8080" stroke="#000" d="M34.464 177.429c-12.983-7.66-22.353-9.795-28.571-14.822-5.981 4.309-4.898 7.59-4.643 13.572 7.14 4.433 13.577 9.507 23.929 6.607 6.178-1.653 5.804-.587 9.821-2.857l-.696 1.233s-8.609 5.486-10.95 12.861c-2.158 6.792 4.325 34.834 4.325 34.834 7.898 3.3 15.626-2.764 15.714-6.786-10.835-15.608-9.336-17.869-6.158-35.519z"/>
        <path fill="#f55" stroke="#000" d="M27.857 150.464C15.881 8.64 238.154 13.19 221.786 160.464l-5.536-1.25C233.431 25.015 22.371 9.588 31.429 150.464z"/>
        <path fill="#ffb380" stroke="#000" d="M201.429 187.429C226.202 31.017-2.201 39.934 53.393 202.25l6.607-.893c-51.521-160.388 172.239-151.792 126.071 0l10.536 2.322z"/>
        <path fill="#ff8080" stroke="#000" d="M39.648 219.508c-9.627-14.51-7.212-25.146-2.904-33.587-3.619-1.428-6.19-4.535-1.136-7.45-8.515-.74-11.079-20.754-11.112-32.325 5.149-4.07 17.884-4.105 22.35-.126.395 10.522-2.758 29.505-8.713 32.198 3.455 1.456 4.552 6.042.758 7.703 5.009 4.377 16.022 12.33 22.223 26.516-.244 3.795-16.062 7.938-21.466 7.071zM215.614 191.721c9.964 12.5 22.297 18.556 24.977 19.621 6.7-3.073 9.306-9.91 10.21-15.827-11.344-2.897-13.676-9.77-23.396-9.276-6.38.43-7.455 1.473-11.835 2.926 10.601-9.119 22.95-4.037 34.062-6.491-.294-7.288.8-16.972-4.354-18.977-22.305 5.658-26.378 12.32-30.622 18.537z"/>
        <path fill="#ff8080" stroke="#000" d="M223.619 153.475c-.448 12.695 1.1 18.714-8.016 27.214 5.009-.117 4.477 9.842.641 9.963 6.922 6.313 8.27 16.097 6.069 27.457-5.837 3-16.446 1.334-20.06-3.432 1.643-10.4 3.15-20.224 10.604-24.595-4.46-1.817-4.445-8.175-.275-9.072-9.752-7.155-6.04-12.202-7.977-27.942.972-3.676 13.879-1.486 19.014.407z"/>
        <path d="M46.178 135.925c-4.72.512-8.673-.553-12.717-2.785 3.85 2.504 7.816 3.978 12.79 3.782zM48.945 124.818c-4.509-.545-7.802-4.314-10.938-7.209 2.752 2.982 6.012 7.272 10.78 8.196zM55.46 110.291c-3.023-.085-5.345-1.832-7.3-4.135-1.968-2.317-3.418-4.997-4.85-6.856 1.249 1.889 2.629 4.756 4.46 7.17 1.834 2.418 4.233 4.546 7.634 4.82zM67.715 94.786c-2.655-.816-5.073-2.801-7.187-5.275-2.103-2.461-3.86-5.352-5.222-7.889 1.21 2.607 2.83 5.6 4.835 8.203 1.995 2.59 4.413 4.853 7.252 5.908zM81.295 85.22c-2.775-1.35-4.572-3.6-5.981-6.287-1.413-2.692-2.387-5.716-3.593-8.549 1.036 2.857 1.873 5.988 3.144 8.77 1.273 2.788 3.025 5.33 5.97 6.953zM95.32 79.064c-2.011-5.734-3.988-10.152-5.536-16.007 1.227 5.944 2.899 10.505 4.583 16.312zM112.5 75.143c-.53-4.663-1.716-10.39-2.267-15.113.264 5.262 1.035 10.062 1.27 15.192zM126 74.907c1.162-6.338 1.279-9.561 2.446-15.755-1.461 5.983-1.978 9.471-3.424 15.549zM143.864 78.274c1.226-4.264 4.151-10.704 6.285-14.615-2.417 3.735-5.666 10.061-7.235 14.302zM157.836 83.516l.19.463c4.802-2.147 7.969-8.273 9.44-12.596-1.832 4.334-5.232 9.973-9.82 11.67l.19.463zM172.157 92.822c5.213-2.171 9.578-6.085 13.585-9.81-4.278 3.52-8.76 7.074-13.942 8.876zM185.318 106.617c5.416.323 9.282-3.128 12.924-6.307-3.988 3.031-7.825 5.932-12.834 5.31zM194.657 122.443c4.989.942 10.343-1.204 14.95-2.435-4.86.947-10.035 2.678-14.733 1.458zM199.746 136.778c4.737 1.189 9.278-1.009 13.522-2.375-4.532 1.101-8.873 2.846-13.246 1.413zM202.087 150.267c1.945.741 3.835.543 5.637.082 1.516-.387 3.896-1.284 5.418-1.678-2.046.34-3.528.867-5.52 1.189-1.816.293-3.512.275-5.142-.512zM35.883 178.172c-3.16-3.966-3.895-8.268-4.063-13.212-.166 4.872.206 9.425 3.26 13.81zM37.418 178.061c-.885-2.503-.685-5.797-1.179-8.682.14 2.711-.365 6.301.217 8.953zM40.262 176.943c1.412-6.788.975-13.889 1.66-20.696-1.035 6.914-.904 13.787-2.634 20.469zM37.306 185.603c-.193 2.187-.649 3.44-.868 5.556-.191 1.848-.044 3.661 1.064 5.62-.954-2.023-.912-3.81-.57-5.546.31-1.569 1.048-3.677 1.365-5.5zM38.538 186.222c3.422 3.443 4.098 8.303 4.267 13.083.165-4.658-.124-9.843-3.534-13.763zM33.168 183.629c-3.49 5.705-4.104 12.324-4.126 18.707.357-6.447 1.325-12.84 4.966-18.164zM32.704 180.617l.185-.464c-2.856-.96-5.412.164-7.888.97 2.733-.528 5.08-1.194 7.518-.041l.185-.465zM34.386 178.757c-1.198-.244-2.32-.672-3.576-1.044 1.065.651 2.116 1.415 3.242 1.987zM214.526 181.2c-.363-5.89-1.994-10.606-.69-16.05-1.638 5.403-.335 10.296-.31 16.084zM212.014 179.965c-1.25-1.605-2.24-4.248-2.47-6.292-.103 2.05.558 4.892 1.633 6.839zM216.108 180.847c.656-2.36 1.011-5.427.949-7.806-.27 2.372-.958 5.324-1.893 7.473zM213.564 189.943c-.332 2.517-1.062 3.371-1.858 4.979-.784 1.582-1.504 3.705-1.72 8.613.383-4.908 1.269-6.944 2.157-8.37.877-1.41 1.88-2.382 2.408-5.059z"/>
        <path d="M214.444 190.106c-.137 2.441.671 4.27 1.507 5.858.836 1.587 1.744 3.01 1.926 4.699-.017-1.728-.788-3.252-1.473-4.911-.686-1.662-1.245-3.375-.965-5.556zM218.369 190.27c2.812-.366 4.598-1.024 6.515-1.147 1.82-.117 3.607.3 5.936 2.227-2.211-2.045-3.989-2.68-5.945-2.727-1.875-.046-4.036.478-6.605.651zM218.75 193.805c3.391-.525 5.592-.022 8.282 2.217-2.456-2.477-4.676-3.435-8.387-3.212zM219.794 185.272c2.805-4.058 6.755-4.928 11.72-5.097-4.84-.164-9.202.307-12.523 4.5zM217.723 181.025c2.123-3.416 4.713-5.092 8.677-6.216-4.006.79-6.948 2.194-9.504 5.653z"/>
    </g>
</svg>
