<svg xmlns="http://www.w3.org/2000/svg" xmlns:xlink="http://www.w3.org/1999/xlink" cursor="default" viewBox="0 0 256 256">
    <defs>
        <linearGradient id="linearGradient4309">
            <stop offset="0"/>
            <stop offset="1" stop-color="#f55" stop-opacity="0"/>
        </linearGradient>
        <linearGradient id="linearGradient4315" x1="-82.768" x2="-69.375" y1="-20.964" y2="-22.929" gradientUnits="userSpaceOnUse" xlink:href="#linearGradient4309"/>
    </defs>
    <g fill-rule="evenodd">
        <path fill="#f55" stroke="#000" stroke-width=".77378" d="M140.206 16.38c.797-.466 10.145-9.141 9.77-8.891 5.83 5.774 7.977 12.306 11.383 18.808-7.92 1.341-13.44 1.685-16.317 2.736l-7.767.635z"/>
        <path fill="url(#linearGradient4315)" d="M-79.55-33.661c1.03-.603 13.112-11.814 12.627-11.49 7.535 7.462 10.31 15.904 14.71 24.306-10.235 1.734-17.368 2.178-21.086 3.536l-10.039.82z" transform="translate(201.76 42.426) scale(.77378)"/>
        <path fill="#ff8080" stroke="#000" stroke-width=".77378" d="M114.803 29.375c-4.72-1.673 20.676-8.578 26.38-13.728-2.648 6.025-1.929 10.672-1.857 15.584zM112.262 231.525c-.108 2.735 15.934 18.684 17.15 18.587 1.736-.138 17.965-15.605 17.828-17.707-4.143-64.006-1.102-166.628-13.092-180.265l-8.989-1.173c-16.327 9.203-10.557 121.467-12.897 180.558z"/>
        <path fill="#faa" stroke="#000" stroke-width=".77378" d="M114.018 29.106c4.896 8.199 6.782 15.822 9.121 24.02 3.45 1.27 8.27 1.131 11.974.524 1.479-8.896 6.41-16.851 12.23-25.024-7.242-.99-24.047-1.526-33.325.48z"/>
        <path d="M133.225 54.012l-.315.225c.317.443.73 1.093 1.138 2.154.305.794.562 1.702.79 2.756.446 2.07.888 5.537 1.012 6.576-.166-1.384-.299-4.18-.632-6.643-.145-1.078-.33-2.035-.582-2.888-.336-1.141-.739-1.904-1.096-2.405l-.315.225zM124.312 53.736l-.293-.252c-.394.458-.817 1.304-1.173 2.452-.322 1.037-.456 1.89-.537 2.187.063-.23.404-1.102.895-2.04.587-1.126 1.02-1.652 1.402-2.095l-.294-.252z"/>
    </g>
</svg>
