<?xml version="1.0" encoding="UTF-8" standalone="no"?>
<svg
   xmlns:dc="http://purl.org/dc/elements/1.1/"
   xmlns:cc="http://creativecommons.org/ns#"
   xmlns:rdf="http://www.w3.org/1999/02/22-rdf-syntax-ns#"
   xmlns:svg="http://www.w3.org/2000/svg"
   xmlns="http://www.w3.org/2000/svg"
   xmlns:xlink="http://www.w3.org/1999/xlink"
   version="1.1"
   id="svg4206"
   viewBox="0 0 256 256">
  <style
     id="style3">
    svg { cursor: default; }
  </style>
  <defs
     id="defs4208">
    <linearGradient
       id="linearGradient5680">
      <stop
         id="stop5682"
         offset="0"
         style="stop-color:#ff8080;stop-opacity:1" />
      <stop
         style="stop-color:#ff3d3d;stop-opacity:0"
         offset="0.93415368"
         id="stop5688" />
      <stop
         id="stop5684"
         offset="1"
         style="stop-color:#ffd5d5;stop-opacity:0;" />
    </linearGradient>
    <radialGradient
       gradientUnits="userSpaceOnUse"
       gradientTransform="matrix(0.9025,0,0,0.90250253,12.466071,12.493604)"
       r="126.92964"
       fy="128.14286"
       fx="127.85678"
       cy="128.14286"
       cx="127.85678"
       id="radialGradient5686"
       xlink:href="#linearGradient5680" />
  </defs>
  <metadata
     id="metadata4211">
    <rdf:RDF>
      <cc:Work
         rdf:about="">
        <dc:format>image/svg+xml</dc:format>
        <dc:type
           rdf:resource="http://purl.org/dc/dcmitype/StillImage" />
        <dc:title></dc:title>
      </cc:Work>
    </rdf:RDF>
  </metadata>
  <g
     id="layer4">
    <path
       id="path5678"
       d="M 13.755357,14.041073 14.4,241.6 241.95892,242.24464 241.63661,14.685716 Z"
       style="fill:url(#radialGradient5686);fill-opacity:1;fill-rule:evenodd;stroke:none;stroke-width:1px;stroke-linecap:butt;stroke-linejoin:miter;stroke-opacity:1" />
    <path
       id="path4503"
       d="m 154.87532,100.92127 c -4.12515,-0.997469 -5.16649,-3.536842 -3.40451,-7.477877 -1.26169,1.135258 -2.84851,2.026664 -2.47181,4.39071 1.09368,4.404147 3.69276,3.946817 5.87632,3.087167 z"
       style="fill:#ff2a2a;fill-rule:evenodd;stroke:#000000;stroke-width:1.03030097px;stroke-linecap:butt;stroke-linejoin:miter;stroke-opacity:1" />
    <path
       id="path4328"
       d="M 117.35359,79.587998 C 90.631746,82.304325 43.37596,84.615084 12.496314,99.753327 l 0.130807,32.784493 c 6.952389,-2.33346 3.830732,-7.94906 20.135142,-12.32336 68.893477,-18.48343 153.625597,-11.09583 189.983877,0.90353 7.11697,2.34883 20.88528,12.31704 22.36076,14.28133 l 0.64996,-30.57297 C 241.10219,94.593188 188.14822,85.914798 135.1766,79.978389 Z m 35.30723,13.798543 c 1.77705,-2.16e-4 3.64054,2.137607 3.64049,4.052627 5e-5,1.915021 -1.99353,4.247992 -3.77058,4.247772 -1.77706,2.2e-4 -3.60801,-2.397794 -3.60797,-4.312815 -4e-5,-1.91502 1.96101,-3.9878 3.73806,-3.987584 z"
       style="fill:#ff5555;fill-rule:evenodd;stroke:#000000;stroke-width:1.03030097px;stroke-linecap:butt;stroke-linejoin:miter;stroke-opacity:1" />
    <path
       id="path4322"
       d="m 7.4836631,104.61392 1.4718571,39.00424 c 11.1813618,18.12164 56.6394378,19.96788 111.8612598,19.87009 70.6498,-0.1251 103.15274,1.96248 127.13177,-14.71859 l 1.83983,-40.66009 c -15.82248,7.12121 -77.55559,9.92798 -125.19997,9.65907 -40.950759,-0.23112 -104.436434,-0.002 -117.1047469,-13.15472 z"
       style="fill:#ff8080;fill-rule:evenodd;stroke:#000000;stroke-width:1.03030097px;stroke-linecap:butt;stroke-linejoin:miter;stroke-opacity:1" />
    <path
       id="path4330"
       d="m 79.144776,85.387758 -10.82222,15.150182 11.805828,10.76303 1.361398,0.95744 c 20.539718,-2.67035 27.740858,-1.99047 48.301318,-2.42356 0.46851,-9.873639 0.66824,-20.348493 -0.21099,-30.222135 z"
       style="fill:#ff5555;fill-rule:evenodd;stroke:#000000;stroke-width:1.03030097px;stroke-linecap:butt;stroke-linejoin:miter;stroke-opacity:1" />
    <path
       id="path4324"
       d="m 116.54245,79.755885 4.55141,-0.317899 c 0.11104,1.513976 -21.398709,2.002617 -44.525269,5.48695 C 46.75067,89.41743 13.574679,97.427515 13.555083,103.694 c -0.04399,14.07997 67.827991,12.93291 109.285487,12.87875 51.09184,-0.0668 123.93011,-2.33005 120.87639,-9.75105 -4.18949,-10.181098 -47.10208,-17.964434 -96.98326,-24.266198 -4.97787,-0.628875 -11.44156,-1.345429 -16.10273,-3.030147 l 4.12764,0.02329 c 6.4365,0.841056 7.19058,0.889902 12.1833,1.417148 50.98544,5.384178 96.28824,13.173099 102.66249,25.671937 5.01301,9.82968 -82.53779,12.5174 -126.02789,12.14283 C 62.245367,118.25232 8.6219705,117.33592 7.2996822,104.42994 5.9565716,91.320684 87.631159,80.641882 116.54245,79.755885 Z"
       style="fill:#ffaaaa;fill-rule:evenodd;stroke:#000000;stroke-width:1.03030097px;stroke-linecap:butt;stroke-linejoin:miter;stroke-opacity:1" />
    <path
       id="path4336-0-5-6-9-9"
       d="m 135.37245,91.205116 a 4.1088009,4.5795906 0 0 0 -4.10936,4.579997 4.1088009,4.5795906 0 0 0 4.10936,4.579987 4.1088009,4.5795906 0 0 0 4.10751,-4.579987 4.1088009,4.5795906 0 0 0 -4.10751,-4.579997 z m 0,1.241306 a 2.9953159,3.3385211 0 0 1 2.99421,3.338691 2.9953159,3.3385211 0 0 1 -2.99421,3.338669 2.9953159,3.3385211 0 0 1 -2.99606,-3.338669 2.9953159,3.3385211 0 0 1 2.99606,-3.338691 z"
       style="opacity:1;fill:#ff9955;fill-opacity:1;stroke:#000000;stroke-width:0.83553815;stroke-linecap:round;stroke-linejoin:round;stroke-miterlimit:4;stroke-dasharray:none;stroke-dashoffset:0;stroke-opacity:1" />
    <path
       id="path4326"
       d="m 79.328757,85.387758 1.19588,1.379861 c 16.382829,-2.452507 50.396093,-3.880134 49.148483,-7.357534 l -3.033,0.04564 c -0.2159,1.627772 -31.540907,3.954717 -47.311363,5.932071 z"
       style="fill:#ffaaaa;fill-rule:evenodd;stroke:#000000;stroke-width:1.03030097px;stroke-linecap:butt;stroke-linejoin:miter;stroke-opacity:1" />
    <ellipse
       ry="4.748713"
       rx="4.5670419"
       cy="99.397003"
       cx="88.563583"
       id="path4336"
       style="opacity:1;fill:#ffb380;fill-opacity:1;stroke:#000000;stroke-width:0.89701748;stroke-linecap:round;stroke-linejoin:round;stroke-miterlimit:4;stroke-dasharray:none;stroke-dashoffset:0;stroke-opacity:1" />
    <path
       id="path4344"
       d="m 102.00213,80.368832 0.13009,-2.471816 c 0.11144,-2.117722 1.83279,-2.801965 4.098,-2.79704 l 29.92188,0.06501 c 3.66154,0.0082 4.16305,2.196498 4.16305,3.902862 l 0,1.040759 c -1.14432,-0.203114 -2.44664,-0.391082 -4.27779,-0.558331 -0.20086,-1.548429 -30.25343,-1.239287 -30.06734,0.233096 z"
       style="fill:#ffb380;fill-opacity:1;fill-rule:evenodd;stroke:#000000;stroke-width:1.03030097px;stroke-linecap:butt;stroke-linejoin:miter;stroke-opacity:1" />
    <path
       id="path4346"
       d="m 80.66652,86.74349 c 0,0 -0.399468,-0.325278 -0.399468,-0.325278 -0.379553,0.466123 -0.882298,1.160849 -1.641935,2.299443 -0.591209,0.886142 -1.24387,1.897898 -2.092379,3.216946 -1.414254,2.198527 -3.295044,5.13243 -5.325346,8.059011 a 0.24796308,0.26456914 47.291864 0 0 -0.01946,0.268368 c 1.305984,2.40558 3.199435,4.53016 4.954244,6.32975 2.332555,2.39208 4.321892,4.25515 5.369965,5.45526 -1.048073,-1.20011 -2.983212,-3.12775 -5.221808,-5.59464 -1.659585,-1.82884 -3.39626,-3.94215 -4.572854,-6.28218 2.079336,-2.814203 4.049658,-5.677392 5.502994,-7.776479 0.897423,-1.296168 1.572943,-2.266664 2.192697,-3.130933 0.798865,-1.114047 1.28894,-1.747117 1.652819,-2.19399 0,0 -0.399468,-0.325278 -0.399468,-0.325278 z"
       style="fill:#000000;fill-rule:evenodd;stroke:none;stroke-width:1px;stroke-linecap:butt;stroke-linejoin:miter;stroke-opacity:1" />
    <ellipse
       ry="4.748713"
       rx="4.5670419"
       cy="98.174538"
       cx="105.04029"
       id="path4336-0"
       style="opacity:1;fill:#ffb380;fill-opacity:1;stroke:#000000;stroke-width:0.89701748;stroke-linecap:round;stroke-linejoin:round;stroke-miterlimit:4;stroke-dasharray:none;stroke-dashoffset:0;stroke-opacity:1" />
    <ellipse
       transform="matrix(0.99396693,-0.10968018,0.10968018,0.99396693,0,0)"
       ry="3.8944061"
       rx="5.0926018"
       cy="109.65864"
       cx="111.25441"
       id="path4336-0-8"
       style="opacity:1;fill:#808080;fill-opacity:1;stroke:#000000;stroke-width:0.85779977;stroke-linecap:round;stroke-linejoin:round;stroke-miterlimit:4;stroke-dasharray:none;stroke-dashoffset:0;stroke-opacity:1" />
    <ellipse
       style="opacity:1;fill:#ff2a2a;fill-opacity:1;stroke:#000000;stroke-width:0.65392578;stroke-linecap:round;stroke-linejoin:round;stroke-miterlimit:4;stroke-dasharray:none;stroke-dashoffset:0;stroke-opacity:1"
       id="ellipse4420"
       cx="135.12141"
       cy="95.874748"
       rx="3.3293736"
       ry="3.4618115" />
    <path
       id="path4332"
       d="m 120.22762,94.01248 c -1.99425,0.845918 -3.54616,4.391915 0.203,6.06194 l 16.13564,-1.544009 c 1.5519,-1.808755 1.79884,-3.555774 -0.19515,-5.276738 z"
       style="fill:#ffb380;fill-rule:evenodd;stroke:#000000;stroke-width:1.03030097px;stroke-linecap:butt;stroke-linejoin:miter;stroke-opacity:1" />
    <path
       id="path4336-0-5-6-9"
       d="m 152.69499,92.897581 a 4.1088009,4.5795906 0 0 0 -4.10936,4.579997 4.1088009,4.5795906 0 0 0 4.10936,4.579982 4.1088009,4.5795906 0 0 0 4.10751,-4.579982 4.1088009,4.5795906 0 0 0 -4.10751,-4.579997 z m 0,1.241306 a 2.9953159,3.3385211 0 0 1 2.99422,3.338691 2.9953159,3.3385211 0 0 1 -2.99422,3.338672 2.9953159,3.3385211 0 0 1 -2.99605,-3.338672 2.9953159,3.3385211 0 0 1 2.99605,-3.338691 z"
       style="opacity:1;fill:#ff9955;fill-opacity:1;stroke:#000000;stroke-width:0.83553815;stroke-linecap:round;stroke-linejoin:round;stroke-miterlimit:4;stroke-dasharray:none;stroke-dashoffset:0;stroke-opacity:1" />
    <path
       id="path4522"
       d="m 104.31343,167.2662 c -10.872836,0.49453 -14.091177,10.67546 -14.209621,17.97586 -0.387424,23.87826 20.618051,37.13097 32.867091,37.1663 14.31149,0.0413 35.45646,-12.74406 34.72416,-41.08172 -0.15082,-5.83592 -2.5856,-13.24804 -12.9712,-14.17441 l 0.69982,7.786 c 3.49735,0.24721 4.6895,2.91403 4.87719,6.31676 0.77099,13.97796 -8.90875,33.60774 -27.01321,33.83193 -17.08868,0.21156 -26.46199,-16.22889 -26.280574,-29.7134 0.07305,-5.43065 1.678442,-9.87358 7.014404,-11.18396 z"
       style="fill:#ffb380;fill-rule:evenodd;stroke:#000000;stroke-width:1.03030097px;stroke-linecap:butt;stroke-linejoin:miter;stroke-opacity:1" />
    <path
       id="path4520"
       d="m 103.28611,163.51281 -0.25704,13.27296 43.32474,0.0854 -0.004,-13.40043 z"
       style="fill:#ff9955;fill-rule:evenodd;stroke:#000000;stroke-width:1.03030097px;stroke-linecap:butt;stroke-linejoin:miter;stroke-opacity:1" />
    <path
       id="path4526"
       d="m 36.922021,130.2278 c -0.09644,-2.02564 2.208965,-4.81867 4.065475,-4.71596 55.038094,3.04486 110.219064,3.612 165.741214,-0.13009 2.46335,-0.16603 4.09726,1.94059 4.74848,5.07371 -58.6256,7.45737 -116.955079,3.93735 -174.555169,-0.22766 z"
       style="fill:#ffd5d5;fill-rule:evenodd;stroke:#000000;stroke-width:1.03030097px;stroke-linecap:butt;stroke-linejoin:miter;stroke-opacity:1" />
    <path
       id="path4524"
       d="m 36.824451,130.84574 0,17.17256 c 0,2.98109 3.323638,4.81952 7.675619,5.20381 51.768496,4.57123 105.96993,4.63659 161.83836,1.56114 3.1715,-0.17459 5.76435,-1.34992 5.72419,-4.42324 l -0.23787,-18.20407 c -0.0255,-1.9463 -1.60642,-5.75739 -5.7269,-5.47324 -54.38785,3.75061 -107.370821,3.84104 -164.329788,0 -2.278006,-0.15362 -4.943611,1.10025 -4.943611,4.16304 z"
       style="fill:#ffaaaa;fill-rule:evenodd;stroke:#000000;stroke-width:1.03030097px;stroke-linecap:butt;stroke-linejoin:miter;stroke-opacity:1" />
    <path
       id="path5477-43-4-9"
       d="m 135.68968,127.25523 0.31652,31.5228 c 8.60261,0.0816 18.48321,0.90502 18.60584,-5.59249 0.10152,-5.37896 0.14577,-10.96119 -0.45658,-20.1973 -0.16989,-2.60502 -2.59569,-5.60372 -6.68717,-5.63715 z m 10.83955,8.60892 c 0.0384,1.40228 0.26624,10.21188 0.29354,13.58499 0.034,4.20586 -1.37823,3.75791 -2.51308,3.76628 l -0.32567,-20.56722 c 2.56466,0.0217 2.50922,1.90172 2.54521,3.21595 z"
       style="fill:#ffdd55;fill-opacity:1;fill-rule:evenodd;stroke:#000000;stroke-width:1px;stroke-linecap:butt;stroke-linejoin:miter;stroke-opacity:1" />
    <ellipse
       ry="8.6215048"
       rx="7.7475882"
       cy="140.44446"
       cx="48.314659"
       id="path4528"
       style="opacity:1;fill:#ffb380;fill-opacity:1;stroke:#000000;stroke-width:0.98963833;stroke-linecap:round;stroke-linejoin:round;stroke-miterlimit:4;stroke-dasharray:none;stroke-dashoffset:0;stroke-opacity:1" />
    <ellipse
       ry="8.6215048"
       rx="7.7475882"
       cy="140.76643"
       cx="202.04498"
       id="path4528-7"
       style="opacity:1;fill:#ffb380;fill-opacity:1;stroke:#000000;stroke-width:0.98963833;stroke-linecap:round;stroke-linejoin:round;stroke-miterlimit:4;stroke-dasharray:none;stroke-dashoffset:0;stroke-opacity:1" />
    <path
       id="path4545"
       d="m 106.02238,167.07105 c 11.21322,0.33328 25.37893,0.79907 36.87242,1.06189 0.56519,-0.35981 1.1234,-0.72017 1.67363,-1.08099 -0.55745,-0.34976 -1.12108,-0.69995 -1.69069,-1.05074 -11.47817,0.44712 -25.62719,0.693 -36.85536,1.06984 z"
       style="fill:#ffe6d5;fill-rule:evenodd;stroke:none;stroke-width:1px;stroke-linecap:butt;stroke-linejoin:miter;stroke-opacity:1" />
    <path
       id="path4549"
       d="m 151.11304,171.63057 c 1.13754,0.62099 2.13112,1.509 2.97826,2.63625 0.64389,0.8568 1.19065,1.83521 1.64789,2.90739 0.0792,0.3496 0.14869,0.70422 0.20901,1.06298 0.50555,3.00674 0.381,6.38 -0.0838,9.6684 -0.46647,3.30018 -1.2848,6.57728 -2.20957,9.40897 -0.46288,1.41738 -0.95334,2.72597 -1.44133,3.87299 -0.48809,1.14723 -0.97361,2.13256 -1.42569,2.90176 0.34342,-0.82153 0.71523,-1.84886 1.08623,-3.02715 0.37123,-1.17904 0.74237,-2.51146 1.08427,-3.94427 0.68449,-2.86853 1.24959,-6.13024 1.46643,-9.36295 0.21756,-3.24336 0.0803,-6.4013 -0.60195,-9.07384 -0.0804,-0.31482 -0.16804,-0.62186 -0.26321,-0.92059 -0.10422,-1.01259 -0.29614,-1.98368 -0.59696,-2.88922 -0.39328,-1.18387 -0.98409,-2.29031 -1.84958,-3.24072 z"
       style="fill:#ffe6d5;fill-rule:evenodd;stroke:none;stroke-width:1px;stroke-linecap:butt;stroke-linejoin:miter;stroke-opacity:1" />
    <path
       id="path4553"
       d="m 54.54503,137.14912 -1.827342,-2.16561 -6.610813,5.69093 8.694525,-0.70338 z"
       style="fill:#ffe6d5;fill-rule:evenodd;stroke:none;stroke-width:1px;stroke-linecap:butt;stroke-linejoin:miter;stroke-opacity:1" />
    <path
       id="path4553-7"
       d="m 208.48261,137.87288 -1.36531,-2.42744 -4.66608,4.7819 6.67174,0.35599 z"
       style="fill:#ffe6d5;fill-rule:evenodd;stroke:none;stroke-width:1px;stroke-linecap:butt;stroke-linejoin:miter;stroke-opacity:1" />
    <path
       id="path4575"
       d="m 88.549106,95.669441 c 0.734575,0.284234 1.339472,0.752703 1.778307,1.294434 0.09028,0.05307 0.17891,0.109618 0.265608,0.169511 0.658009,0.454575 1.210873,1.107194 1.512066,1.89226 -0.06004,-0.844164 -0.409183,-1.699875 -0.999214,-2.432078 -0.07725,-0.09586 -0.15856,-0.189507 -0.243797,-0.280605 -0.723004,-0.411839 -1.522605,-0.634549 -2.31297,-0.643522 z"
       style="fill:#ffe6d5;fill-rule:evenodd;stroke:none;stroke-width:1px;stroke-linecap:butt;stroke-linejoin:miter;stroke-opacity:1" />
    <path
       id="path4575-8"
       d="m 104.91814,94.357631 c 0.73458,0.284234 1.33947,0.752703 1.77831,1.294434 0.0903,0.05307 0.1789,0.109618 0.2656,0.169511 0.65801,0.454575 1.21088,1.107194 1.51207,1.89226 -0.06,-0.844164 -0.40918,-1.699875 -0.99921,-2.432078 -0.0772,-0.09586 -0.15856,-0.189507 -0.2438,-0.280604 -0.72301,-0.41184 -1.52261,-0.63455 -2.31297,-0.643523 z"
       style="fill:#ffe6d5;fill-rule:evenodd;stroke:none;stroke-width:1px;stroke-linecap:butt;stroke-linejoin:miter;stroke-opacity:1" />
    <path
       id="path4597"
       d="m 121.96665,95.414791 10.69377,-0.461646 2.59896,-0.412275 -2.63056,-0.06846 z"
       style="fill:#ffe6d5;fill-rule:evenodd;stroke:none;stroke-width:1px;stroke-linecap:butt;stroke-linejoin:miter;stroke-opacity:1" />
    <path
       id="path4597-4"
       d="m 139.19199,78.813912 c 0.0373,-0.405204 0.0327,-0.76887 -0.0639,-1.093861 -0.049,-0.16499 -0.12234,-0.322193 -0.22707,-0.470742 -0.10479,-0.148644 -0.23837,-0.284766 -0.40322,-0.408634 -0.20873,-0.156837 -0.46406,-0.29141 -0.76808,-0.407552 -0.18183,-0.04172 -0.37809,-0.07686 -0.58942,-0.106519 -0.5756,-0.08079 -1.2811,-0.123379 -2.13834,-0.142081 -1.71257,-0.03736 -4.09291,0.01992 -7.35977,0.08043 -3.2729,0.06063 -7.45125,0.124968 -12.77881,0.102958 5.32702,0.115991 9.50561,0.145615 12.77998,0.178964 3.27601,0.03337 5.63871,0.07046 7.33091,0.200811 0.84617,0.06518 1.51508,0.153048 2.0401,0.272383 0.19116,0.04345 0.36133,0.09065 0.51252,0.141665 0.27393,0.04478 0.4976,0.10265 0.68179,0.174984 0.14481,0.05687 0.26908,0.124173 0.37626,0.205027 0.10761,0.08118 0.2013,0.178502 0.28205,0.297628 0.16393,0.241854 0.26646,0.561595 0.32498,0.974534 z"
       style="fill:#ffe6d5;fill-rule:evenodd;stroke:none;stroke-width:1px;stroke-linecap:butt;stroke-linejoin:miter;stroke-opacity:1" />
    <path
       id="path5477-4"
       d="m 59.464156,125.2622 -1.136719,31.50389 c 12.925702,0.29215 17.684022,1.85958 18.687499,-3.4082 0.449721,-2.36083 0.571864,-4.71329 0.568359,-7.07031 -0.0031,-2.10919 -0.226217,-5.07761 -4.482422,-6.0625 2.275183,-0.47374 3.746694,-1.39896 4.167969,-3.59766 0.05069,-0.26457 0.385279,-2.02142 0.125,-4.79882 -0.243577,-2.59916 -2.082377,-5.70576 -6.167969,-5.92773 L 59.464156,125.2622 Z m 8.695311,5.74414 c 1.422419,-0.0125 2.0442,0.42319 1.976563,3.61914 -0.0701,3.31225 -0.980429,3.46877 -2.947265,3.39257 l 0.3125,-6.98632 c 0.236285,-0.0134 0.454999,-0.0236 0.658202,-0.0254 z m -0.511718,11.93749 c 1.377577,-0.0154 1.977611,0.5226 1.912109,4.45898 -0.06789,4.0796 -0.948681,4.27164 -2.853515,4.17774 l 0.302734,-8.60547 c 0.228837,-0.0165 0.441876,-0.0291 0.638672,-0.0312 z"
       style="fill:#ffdd55;fill-opacity:1;fill-rule:evenodd;stroke:#000000;stroke-width:1px;stroke-linecap:butt;stroke-linejoin:miter;stroke-opacity:1" />
    <path
       id="path5477"
       d="m 58.391462,126.36886 -1.136719,31.5039 c 12.925703,0.29215 17.684023,1.85958 18.6875,-3.4082 0.449721,-2.36083 0.571864,-4.71329 0.568359,-7.07031 -0.0031,-2.10919 -0.226217,-5.07761 -4.482422,-6.0625 2.275183,-0.47374 3.746694,-1.39896 4.167969,-3.59766 0.05069,-0.26457 0.385279,-2.02143 0.125,-4.79883 -0.243577,-2.59916 -2.082377,-5.70576 -6.167969,-5.92773 l -11.761718,-0.63867 z m 8.695312,5.74414 c 1.422419,-0.0125 2.0442,0.42319 1.976563,3.61914 -0.0701,3.31226 -0.980429,3.46878 -2.947266,3.39258 l 0.3125,-6.98633 c 0.236285,-0.0134 0.455,-0.0236 0.658203,-0.0254 z m -0.511719,11.9375 c 1.377578,-0.0154 1.977612,0.5226 1.91211,4.45898 -0.06789,4.0796 -0.948681,4.27164 -2.853516,4.17774 l 0.302734,-8.60547 c 0.228837,-0.0165 0.441876,-0.0291 0.638672,-0.0312 z"
       style="fill:#fff6d5;fill-opacity:1;fill-rule:evenodd;stroke:#000000;stroke-width:1px;stroke-linecap:butt;stroke-linejoin:miter;stroke-opacity:1" />
    <path
       id="path4706"
       d="m 70.198036,128.81351 c 0.992362,0.22758 1.748365,0.65583 2.309751,1.16095 0.272426,0.24512 0.500833,0.50983 0.690574,0.78209 0.269778,0.22266 0.510331,0.46905 0.72278,0.7297 0.413231,0.50698 0.713833,1.06026 0.913241,1.57721 0.09937,0.25759 0.173196,0.50516 0.222967,0.73145 0.04956,0.22536 0.07602,0.43313 0.07856,0.60965 0.06529,-0.16631 0.109247,-0.37877 0.127096,-0.62361 0.01783,-0.24461 0.0096,-0.52087 -0.02852,-0.81687 -0.07606,-0.59048 -0.271913,-1.26541 -0.62291,-1.92853 -0.181053,-0.34205 -0.404424,-0.68288 -0.675634,-1.00772 -0.31969,-0.24319 -0.668353,-0.45874 -1.046547,-0.6381 -0.781412,-0.37058 -1.674697,-0.58029 -2.691355,-0.57622 z"
       style="fill:#ffffff;fill-rule:evenodd;stroke:none;stroke-width:1px;stroke-linecap:butt;stroke-linejoin:miter;stroke-opacity:1" />
    <path
       style="fill:#ffdd55;fill-opacity:1;fill-rule:evenodd;stroke:#000000;stroke-width:1px;stroke-linecap:butt;stroke-linejoin:miter;stroke-opacity:1"
       d="m 81.545647,126.39377 -0.731022,31.51592 c 2.82912,0.0275 8.07592,0.19525 8.07592,0.19525 L 89.3258,143.58375 c 1.322705,0.0479 2.159539,0.83327 2.116108,2.92192 -0.08067,3.87983 -0.326623,11.58939 -0.326623,11.58939 l 8.296769,0.18398 c 0,0 0.332563,-8.69348 0.298713,-11.05026 -0.03025,-2.10898 -0.06836,-5.11892 -4.33689,-6.04893 2.268895,-0.50299 3.728372,-1.44708 4.121305,-3.65102 0.04728,-0.2652 0.359222,-2.02623 0.06321,-4.80004 -0.27702,-2.59581 -2.155664,-5.67848 -6.243776,-5.84783 z m 8.768545,5.63171 c 1.42214,-0.0308 2.049479,0.39684 2.022995,3.5934 -0.02745,3.31288 -0.935689,3.48111 -2.903344,3.43024 l 0.222527,-6.98977 c 0.236093,-0.0164 0.454659,-0.0295 0.657822,-0.0339 z"
       id="path5563" />
    <path
       id="path5477-43"
       d="m 80.206361,127.64377 -0.731022,31.51592 c 2.82912,0.0275 8.07592,0.19525 8.07592,0.19525 l 0.435255,-14.52119 c 1.322705,0.0479 2.159539,0.83327 2.116108,2.92192 -0.08067,3.87983 -0.326623,11.58939 -0.326623,11.58939 l 8.296769,0.18398 c 0,0 0.332563,-8.69348 0.298713,-11.05026 -0.03025,-2.10898 -0.06836,-5.11892 -4.33689,-6.04893 2.268895,-0.50299 3.728372,-1.44708 4.121305,-3.65102 0.04728,-0.2652 0.359222,-2.02623 0.06321,-4.80004 -0.27702,-2.59581 -2.155664,-5.67848 -6.243776,-5.84783 z m 8.768545,5.63171 c 1.42214,-0.0308 2.049479,0.39684 2.022995,3.5934 -0.02745,3.31288 -0.935689,3.48111 -2.903344,3.43024 l 0.222527,-6.98977 c 0.236093,-0.0164 0.454659,-0.0295 0.657822,-0.0339 z"
       style="fill:#fff6d5;fill-opacity:1;fill-rule:evenodd;stroke:#000000;stroke-width:1px;stroke-linecap:butt;stroke-linejoin:miter;stroke-opacity:1" />
    <path
       id="path4718"
       d="m 94.276856,144.32608 c 0.472394,0.2815 0.798451,0.66617 1.02725,1.09661 0.133442,0.25105 0.237642,0.5248 0.318512,0.81484 0.108707,0.18454 0.208849,0.38558 0.300677,0.60195 0.442346,1.04226 0.668,2.38104 0.76936,3.80734 0.100875,1.41947 0.07662,2.88697 0.04152,4.17768 -0.0175,0.64353 -0.03765,1.24234 -0.04578,1.76383 -0.0081,0.52194 -0.0043,0.96799 0.02622,1.30645 0.02245,-0.33736 0.07166,-0.77993 0.132491,-1.2959 0.06091,-0.51658 0.133961,-1.11078 0.204455,-1.75265 0.140755,-1.28163 0.272916,-2.76702 0.276989,-4.22077 0.004,-1.44571 -0.117818,-2.90414 -0.510042,-4.1168 -0.08313,-0.25702 -0.179233,-0.50572 -0.290309,-0.74296 -0.223248,-0.29297 -0.46764,-0.54998 -0.73385,-0.76389 -0.462317,-0.37149 -0.969272,-0.59643 -1.517499,-0.67573 z"
       style="fill:#ffffff;fill-rule:evenodd;stroke:none;stroke-width:1px;stroke-linecap:butt;stroke-linejoin:miter;stroke-opacity:1" />
    <path
       id="path5477-43-4"
       d="m 136.35102,128.67557 0.31652,31.5228 c 8.60261,0.0816 18.48321,0.90502 18.60584,-5.59249 0.10152,-5.37896 0.14577,-10.96119 -0.45658,-20.1973 -0.16989,-2.60502 -2.59569,-5.60372 -6.68717,-5.63715 z m 10.83955,8.60892 c 0.0384,1.40228 0.26624,10.21188 0.29354,13.58499 0.034,4.20586 -1.37823,3.75791 -2.51308,3.76628 l -0.32567,-20.56722 c 2.56466,0.0217 2.50922,1.90172 2.54521,3.21595 z"
       style="fill:#fff6d5;fill-opacity:1;fill-rule:evenodd;stroke:#000000;stroke-width:1px;stroke-linecap:butt;stroke-linejoin:miter;stroke-opacity:1" />
    <path
       id="path4746"
       d="m 144.21721,129.84289 c 2.47008,0.10325 4.23662,0.40645 5.48104,0.9669 0.61736,0.27805 1.09021,0.61257 1.45445,1.00159 0.034,0.0363 0.067,0.0731 0.0992,0.11038 0.35799,0.31407 0.65427,0.69644 0.89868,1.16407 0.54589,1.04446 0.81439,2.47513 0.94964,4.40275 0.13453,1.9175 0.13542,4.27912 0.1781,7.16488 0.0704,-2.87678 0.18305,-5.24952 0.16125,-7.17864 -0.0217,-1.92095 -0.1753,-3.46517 -0.67241,-4.674 -0.22816,-0.55483 -0.53135,-1.0466 -0.93289,-1.47499 -0.046,-0.0391 -0.0927,-0.0772 -0.14029,-0.11449 -0.51046,-0.39995 -1.10943,-0.69408 -1.80764,-0.90638 -1.38274,-0.42045 -3.22207,-0.53841 -5.66914,-0.46207 z"
       style="fill:#ffffff;fill-rule:evenodd;stroke:none;stroke-width:1px;stroke-linecap:butt;stroke-linejoin:miter;stroke-opacity:1" />
    <path
       id="path4706-2"
       d="m 71.541035,143.33794 c 0.826009,0.2283 1.343619,0.62406 1.649605,1.05318 0.107077,0.15016 0.189095,0.30517 0.251703,0.46107 0.228771,0.19485 0.424898,0.43641 0.592697,0.71921 0.260239,0.4386 0.435098,0.94678 0.562244,1.46475 0.127222,0.51829 0.199508,1.01358 0.271776,1.43289 0.08077,-0.40923 0.160655,-0.92306 0.183815,-1.47662 0.02302,-0.55019 -0.0088,-1.16478 -0.168983,-1.76359 -0.1045,-0.39069 -0.266638,-0.78618 -0.513817,-1.15687 -0.195291,-0.15038 -0.404211,-0.28032 -0.627429,-0.38781 -0.636903,-0.30669 -1.361015,-0.41759 -2.201611,-0.34621 z"
       style="fill:#ffffff;fill-rule:evenodd;stroke:none;stroke-width:1px;stroke-linecap:butt;stroke-linejoin:miter;stroke-opacity:1" />
    <path
       id="path4706-4"
       d="m 92.107844,129.47974 c 0.992364,0.22758 1.748367,0.65583 2.309753,1.16095 0.272426,0.24512 0.500833,0.50983 0.690573,0.78208 0.269779,0.22267 0.510331,0.46906 0.72278,0.7297 0.413231,0.50698 0.713832,1.06027 0.91324,1.57722 0.09937,0.25759 0.173197,0.50516 0.222968,0.73145 0.04956,0.22536 0.07602,0.43313 0.07856,0.60965 0.06529,-0.16631 0.109246,-0.37877 0.127095,-0.62361 0.01783,-0.24461 0.0096,-0.52087 -0.02852,-0.81687 -0.07606,-0.59049 -0.271912,-1.26541 -0.622908,-1.92853 -0.181054,-0.34206 -0.404425,-0.68288 -0.675634,-1.00772 -0.31969,-0.24319 -0.668354,-0.45874 -1.046547,-0.6381 -0.781413,-0.37058 -1.674698,-0.58029 -2.691357,-0.57622 z"
       style="fill:#ffffff;fill-rule:evenodd;stroke:none;stroke-width:1px;stroke-linecap:butt;stroke-linejoin:miter;stroke-opacity:1" />
    <path
       style="fill:#ffdd55;fill-opacity:1;fill-rule:evenodd;stroke:#000000;stroke-width:1px;stroke-linecap:butt;stroke-linejoin:miter;stroke-opacity:1"
       d="m 102.23214,127.33929 -0.58036,30.9375 14.10714,0.17858 0,-6.07143 -5.75893,-0.0893 0,-7.05357 5.17858,0.0893 -0.0447,-5.71429 -4.95535,-0.22321 0.0446,-6.02679 5.40178,0.0893 0.13393,-6.07143 z"
       id="path5565" />
    <path
       id="path5528"
       d="m 101.69643,128.76786 -0.58036,30.9375 14.10714,0.17858 0,-6.07143 -5.75893,-0.0893 0,-7.05357 5.17858,0.0893 -0.0447,-5.71429 -4.95535,-0.22321 0.0446,-6.02679 5.40178,0.0893 0.13393,-6.07143 z"
       style="fill:#fff6d5;fill-opacity:1;fill-rule:evenodd;stroke:#000000;stroke-width:1px;stroke-linecap:butt;stroke-linejoin:miter;stroke-opacity:1" />
    <path
       id="path4722"
       d="m 113.99811,130.07286 -1.38273,-0.56335 -9.24224,0.19539 9.20658,0.8343 z"
       style="fill:#ffffff;fill-rule:evenodd;stroke:none;stroke-width:1px;stroke-linecap:butt;stroke-linejoin:miter;stroke-opacity:1" />
    <path
       id="path4726"
       d="m 113.81413,142.67566 c 0,0 -0.0352,-0.51394 -0.0352,-0.51394 -0.0605,0.004 -0.17864,0.023 -0.35154,0.0467 -0.13811,0.0189 -0.29955,0.0395 -0.50587,0.0627 -0.37065,0.0417 -0.77851,0.0799 -1.25422,0.12176 -0.54672,0.0481 -0.81593,0.0699 -1.26479,0.11123 -0.46472,0.0428 -0.79419,0.0795 -0.91193,0.0795 0.13541,0 0.4283,0.0469 0.90503,0.12377 0.39819,0.0642 0.75693,0.12241 1.25416,0.20032 0.44618,0.0699 0.90814,0.14044 1.25857,0.19017 0.20533,0.0291 0.38338,0.0527 0.52692,0.0687 0.18984,0.0211 0.32241,0.0293 0.41415,0.023 0,0 -0.0352,-0.51394 -0.0352,-0.51394 z"
       style="fill:#ffffff;fill-rule:evenodd;stroke:none;stroke-width:1px;stroke-linecap:butt;stroke-linejoin:miter;stroke-opacity:1" />
    <path
       id="path4726-1"
       d="m 114.25646,155.37043 -0.0352,-0.51394 c -0.0816,0.0272 -0.20504,0.0525 -0.35131,0.0751 -0.1469,0.0227 -0.31895,0.043 -0.50653,0.0614 -0.3752,0.0369 -0.81443,0.0667 -1.25379,0.0947 -0.43984,0.028 -0.88098,0.0542 -1.26387,0.0842 -0.38225,0.0299 -0.70805,0.0637 -0.91285,0.10659 0.20605,0.0432 0.5235,0.0948 0.90411,0.15084 0.37897,0.0558 0.81709,0.1154 1.25508,0.17325 0.42889,0.0566 0.88604,0.11528 1.259,0.16309 -0.41339,-0.053 0.93965,0.12042 0.52625,0.0674 0.1409,0.018 0.3126,0.04 0.41439,0.0513 z"
       style="fill:#ffffff;fill-rule:evenodd;stroke:none;stroke-width:1px;stroke-linecap:butt;stroke-linejoin:miter;stroke-opacity:1" />
    <path
       style="fill:#ffdd55;fill-opacity:1;fill-rule:evenodd;stroke:#000000;stroke-width:1px;stroke-linecap:butt;stroke-linejoin:miter;stroke-opacity:1"
       d="m 157.04652,127.28744 0.46691,30.93942 14.10511,-0.29893 -0.20547,-6.06796 -5.75866,0.10564 -0.2387,-7.04953 5.17863,-0.086 -0.23806,-5.70951 -4.96006,-0.0554 -0.15934,-6.02485 5.4017,-0.0936 -0.0716,-6.07249 z"
       id="path5565-6-7" />
    <path
       id="path5528-2-2"
       d="m 158.47043,128.43204 0.48526,30.93914 14.10492,-0.30731 -0.20911,-6.06782 -5.75859,0.10901 -0.24285,-7.04939 5.17858,-0.089 -0.24144,-5.70937 -4.96009,-0.0525 -0.16292,-6.02475 5.40166,-0.0968 -0.0752,-6.07245 z"
       style="fill:#fff6d5;fill-opacity:1;fill-rule:evenodd;stroke:#000000;stroke-width:1px;stroke-linecap:butt;stroke-linejoin:miter;stroke-opacity:1" />
    <path
       id="path4722-1-8"
       d="m 170.80975,129.31268 -1.40131,-0.51541 -9.23003,0.51341 9.22984,0.51689 z"
       style="fill:#ffffff;fill-rule:evenodd;stroke:none;stroke-width:1px;stroke-linecap:butt;stroke-linejoin:miter;stroke-opacity:1" />
    <path
       id="path4726-0-4"
       d="m 171.05983,141.91434 -0.0529,-0.51243 c -0.0806,0.03 -0.20312,0.0595 -0.34852,0.0871 -0.14604,0.0277 -0.31729,0.0539 -0.50412,0.0788 -0.37371,0.0498 -0.81166,0.0947 -1.24979,0.1378 -0.43862,0.0431 -0.8786,0.0845 -1.26023,0.12768 -0.38099,0.0431 -0.70543,0.0881 -0.90863,0.138 0.20742,0.036 0.52646,0.0767 0.90877,0.11957 0.38067,0.0427 0.82058,0.0872 1.2603,0.12991 0.43055,0.0418 0.88952,0.0847 1.26387,0.11963 -0.48938,-0.0457 1.01763,0.0949 0.52825,0.0493 0.1414,0.0131 0.31382,0.0292 0.4159,0.037 z"
       style="fill:#ffffff;fill-rule:evenodd;stroke:none;stroke-width:1px;stroke-linecap:butt;stroke-linejoin:miter;stroke-opacity:1" />
    <path
       id="path4726-1-0-0"
       d="m 171.93901,154.58636 -0.0529,-0.51243 c -0.0806,0.03 -0.20312,0.0595 -0.34852,0.0871 -0.14604,0.0277 -0.31729,0.0539 -0.50412,0.0788 -0.37371,0.0498 -0.81166,0.0947 -1.24979,0.1378 -0.43862,0.0431 -0.87859,0.0845 -1.26022,0.12768 -0.381,0.0431 -0.70544,0.0881 -0.90863,0.138 0.20742,0.036 0.52645,0.0767 0.90877,0.11957 0.38066,0.0427 0.82058,0.0872 1.2603,0.12991 0.43054,0.0418 0.88951,0.0847 1.26386,0.11963 -0.48916,-0.0456 1.01741,0.0949 0.52825,0.0493 0.1414,0.0132 0.31382,0.0292 0.4159,0.0371 z"
       style="fill:#ffffff;fill-rule:evenodd;stroke:none;stroke-width:1px;stroke-linecap:butt;stroke-linejoin:miter;stroke-opacity:1" />
    <path
       style="fill:#ffdd55;fill-opacity:1;fill-rule:evenodd;stroke:#000000;stroke-width:1px;stroke-linecap:butt;stroke-linejoin:miter;stroke-opacity:1"
       d="m 173.85776,126.4375 1.26369,31.49906 c 2.82519,-0.15148 8.07209,-0.31592 8.07209,-0.31592 l -0.48402,-14.51963 c 1.32308,-0.0359 2.20793,0.69501 2.29667,2.78223 0.16485,3.87717 0.40701,11.58684 0.40701,11.58684 l 8.2918,-0.34112 c 0,0 -0.21792,-8.69711 -0.40077,-11.04703 -0.16353,-2.10284 -0.39201,-5.10434 -4.71077,-5.76252 2.23254,-0.64549 3.62938,-1.67999 3.88214,-3.90437 0.0304,-0.26766 0.23035,-2.0449 -0.24052,-4.79443 -0.44064,-2.5731 -2.51047,-5.53078 -6.60111,-5.44123 z m 9.10716,5.06586 c 1.41735,-0.12068 2.07048,0.26643 2.24622,3.45827 0.18208,3.30798 -0.71365,3.53331 -2.68058,3.60699 l -0.22,-6.98985 c 0.23458,-0.0313 0.45189,-0.0582 0.65435,-0.0755 z"
       id="path5563-4" />
    <path
       id="path5477-43-1"
       d="m 175.27999,127.51422 1.2637,31.49906 c 2.82519,-0.15148 8.07209,-0.31591 8.07209,-0.31591 l -0.48403,-14.51964 c 1.32309,-0.0359 2.20792,0.69501 2.29668,2.78223 0.16484,3.87717 0.407,11.58684 0.407,11.58684 l 8.2918,-0.34111 c 0,0 -0.21793,-8.69711 -0.40077,-11.04703 -0.16362,-2.10285 -0.39201,-5.10435 -4.71077,-5.76253 2.23254,-0.64548 3.62939,-1.67999 3.88214,-3.90438 0.0305,-0.26765 0.23035,-2.04489 -0.24051,-4.79442 -0.44063,-2.57309 -2.51049,-5.53077 -6.60113,-5.44123 z m 9.10717,5.06586 c 1.41735,-0.12067 2.07046,0.26642 2.24622,3.45826 0.18207,3.30799 -0.71367,3.53332 -2.6806,3.607 l -0.21999,-6.98985 c 0.23459,-0.0313 0.45188,-0.0582 0.65437,-0.0755 z"
       style="fill:#fff6d5;fill-opacity:1;fill-rule:evenodd;stroke:#000000;stroke-width:1px;stroke-linecap:butt;stroke-linejoin:miter;stroke-opacity:1" />
    <path
       id="path4718-6"
       d="m 190.3774,143.27324 c 0.48925,0.25105 0.83898,0.61433 1.09455,1.02944 0.14905,0.24211 0.27035,0.50871 0.36941,0.79306 0.12016,0.1773 0.23281,0.3716 0.33814,0.58173 0.50738,1.0122 0.81726,2.33403 1.00862,3.75106 0.19045,1.41025 0.25906,2.87634 0.30567,4.16669 0.0232,0.64335 0.041,1.24224 0.0659,1.76319 0.0249,0.52141 0.057,0.96633 0.1088,1.30218 0.001,-0.33811 0.0222,-0.7829 0.0503,-1.30168 0.0281,-0.5194 0.0634,-1.11704 0.0932,-1.76208 0.0594,-1.28796 0.0974,-2.77874 0.009,-4.22984 -0.0874,-1.44307 -0.30126,-2.89087 -0.76939,-4.0763 -0.0992,-0.25125 -0.21086,-0.49337 -0.33672,-0.72311 -0.24133,-0.27826 -0.50149,-0.5193 -0.78069,-0.71594 -0.48489,-0.34151 -1.00506,-0.53393 -1.5572,-0.5784 z"
       style="fill:#ffffff;fill-rule:evenodd;stroke:none;stroke-width:1px;stroke-linecap:butt;stroke-linejoin:miter;stroke-opacity:1" />
    <path
       id="path4706-4-8"
       d="m 187.27375,128.5938 c 1.00477,0.16436 1.78635,0.54394 2.37856,1.01254 0.28739,0.2274 0.53208,0.47713 0.73866,0.73685 0.28332,0.20515 0.53898,0.43583 0.76748,0.68252 0.44447,0.47983 0.77947,1.013 1.01117,1.51629 0.11546,0.2508 0.2048,0.4932 0.26878,0.7159 0.0637,0.22177 0.10326,0.42745 0.11696,0.60345 0.0546,-0.1701 0.0851,-0.38492 0.0874,-0.63039 0.002,-0.24525 -0.0234,-0.52044 -0.0801,-0.81343 -0.11325,-0.5845 -0.3514,-1.24568 -0.74363,-1.88528 -0.20233,-0.32992 -0.44681,-0.65594 -0.73802,-0.96297 -0.33443,-0.22248 -0.69603,-0.41555 -1.08481,-0.57063 -0.80329,-0.32042 -1.70805,-0.47322 -2.72242,-0.40485 z"
       style="fill:#ffffff;fill-rule:evenodd;stroke:none;stroke-width:1px;stroke-linecap:butt;stroke-linejoin:miter;stroke-opacity:1" />
    <path
       style="fill:#ffdd55;fill-opacity:1;fill-rule:evenodd;stroke:#000000;stroke-width:1px;stroke-linecap:butt;stroke-linejoin:miter;stroke-opacity:1"
       d="m 119.58272,127.44389 -0.38251,30.94058 14.10799,0.0884 -0.0388,-6.07131 -5.75938,-0.0525 -0.0451,-7.05343 5.17905,0.0562 -0.0812,-5.71389 -4.95668,-0.19152 0.006,-6.02695 5.40224,0.0548 0.0951,-6.07216 z"
       id="path5565-8" />
    <path
       id="path5528-8"
       d="m 119.05615,128.87586 -0.38251,30.94058 14.10799,0.0884 -0.0388,-6.0713 -5.75938,-0.0525 -0.0451,-7.05343 5.17905,0.0562 -0.0812,-5.71389 -4.95668,-0.19151 0.006,-6.02695 5.40224,0.0548 0.0951,-6.07216 z"
       style="fill:#fff6d5;fill-opacity:1;fill-rule:evenodd;stroke:#000000;stroke-width:1px;stroke-linecap:butt;stroke-linejoin:miter;stroke-opacity:1" />
    <path
       id="path4722-4"
       d="m 131.36593,130.10217 -1.38631,-0.55449 -9.2408,0.25448 9.21173,0.77541 z"
       style="fill:#ffffff;fill-rule:evenodd;stroke:none;stroke-width:1px;stroke-linecap:butt;stroke-linejoin:miter;stroke-opacity:1" />
    <path
       id="path4726-00"
       d="m 131.26254,142.70589 -0.0385,-0.51371 c -0.0814,0.0277 -0.20471,0.0538 -0.35083,0.0773 -0.14675,0.0236 -0.31867,0.045 -0.50613,0.0647 -0.37496,0.0393 -0.81399,0.0719 -1.25316,0.10269 -0.43965,0.0308 -0.88062,0.0598 -1.26331,0.0923 -0.38205,0.0324 -0.70763,0.0682 -0.91215,0.1124 0.20632,0.0418 0.5241,0.0915 0.90506,0.14507 0.37931,0.0534 0.81781,0.11019 1.25616,0.16523 0.42923,0.0539 0.88676,0.10962 1.26001,0.15505 -0.46213,-0.0563 0.98881,0.12031 0.52667,0.0641 0.14097,0.0171 0.31287,0.038 0.4147,0.0487 z"
       style="fill:#ffffff;fill-rule:evenodd;stroke:none;stroke-width:1px;stroke-linecap:butt;stroke-linejoin:miter;stroke-opacity:1" />
    <path
       id="path4726-1-4"
       d="m 131.78604,155.39757 -0.0385,-0.51371 c -0.0814,0.0277 -0.20471,0.0538 -0.35083,0.0773 -0.14675,0.0236 -0.31867,0.045 -0.50613,0.0647 -0.37496,0.0393 -0.81399,0.0719 -1.25316,0.1027 -0.43965,0.0308 -0.88062,0.0598 -1.26331,0.0923 -0.38205,0.0324 -0.70763,0.0683 -0.91215,0.11246 0.20633,0.0418 0.5241,0.0914 0.90507,0.14502 0.37931,0.0534 0.81781,0.11016 1.25616,0.16519 0.4292,0.0539 0.88678,0.10962 1.26001,0.15504 -0.48453,-0.059 1.01119,0.12303 0.52666,0.0641 0.14097,0.0171 0.31287,0.038 0.4147,0.0487 z"
       style="fill:#ffffff;fill-rule:evenodd;stroke:none;stroke-width:1px;stroke-linecap:butt;stroke-linejoin:miter;stroke-opacity:1" />
  </g>
  <g
     style="opacity:1"
     id="layer3" />
</svg>
