<svg xmlns="http://www.w3.org/2000/svg" cursor="default" viewBox="0 0 256 256">
    <g>
        <g>
            <g transform="translate(0 -796.362)">
                <ellipse cx="131.918" cy="980.806" fill="#faa" stroke="#000" stroke-linecap="round" stroke-width="1.009" rx="32.77" ry="33.083"/>
                <path fill="#ff8080" fill-rule="evenodd" stroke="#000" d="M115.102 866.539c10.954 29.36 10.697 45.45 10.598 82.754 3.562.777 9.6.744 12.375-.21 1.61-40.86-2.574-69.352-11.647-86.248z"/>
                <ellipse cx="116.002" cy="852.131" fill="#faa" stroke="#000" stroke-linecap="round" stroke-width="1.094" rx="21.078" ry="20.891"/>
                <path fill="#fff" fill-rule="evenodd" d="M118.688 834.73c1.467-.046 3.031.249 4.592.806.82.292 1.635.655 2.43 1.076.64.491 1.253 1.02 1.828 1.576 1.215 1.173 2.27 2.47 3.085 3.785.815 1.317 1.384 2.648 1.629 3.883-.452-1.166-1.206-2.363-2.161-3.5a19.82 19.82 0 0 0-3.401-3.168 19.773 19.773 0 0 0-1.882-1.228c-.633-.537-1.3-1.031-1.99-1.468-1.306-.826-2.708-1.456-4.13-1.763z"/>
            </g>
        </g>
    </g>
</svg>
