<svg xmlns="http://www.w3.org/2000/svg" cursor="default" viewBox="0 0 256 256">
    <g transform="translate(0 -796.362)">
        <path fill="#ff8080" stroke="#000" stroke-linecap="round" stroke-linejoin="round" stroke-width="1.089" d="M73.266 890.494a9.289 9.192 0 0 0-9.289 9.193 9.289 9.192 0 0 0 9.289 9.192 9.289 9.192 0 0 0 9.288-9.192 9.289 9.192 0 0 0-9.288-9.193zm-.145 4.866a4.567 4.279 0 0 1 4.569 4.278 4.567 4.279 0 0 1-4.57 4.28 4.567 4.279 0 0 1-4.566-4.28 4.567 4.279 0 0 1 4.567-4.278z"/>
        <path fill="#ff8080" fill-rule="evenodd" stroke="#000" stroke-width="1.089" d="M73.603 879.521l-1.829 16.748c-.788 7.217 3.963 2.79 4.332.29l2.502-16.46z"/>
        <ellipse cx="77.213" cy="871.532" fill="#faa" stroke="#000" stroke-linecap="round" stroke-linejoin="round" stroke-width="1.038" rx="9.507" ry="9.94"/>
        <path fill="#ff8080" fill-rule="evenodd" stroke="#000" stroke-width="1.089" d="M57.437 884.526c5.445-28.768 5.764-87.94 18.785-84.534 10.565 2.764 9.407 38.815 3.811 63.298-1.995 1.992-2.873.633-3.811-.544 4.61-14.838 9.24-54.29-.68-57.99-6.99-2.606-8.511 53.85-14.294 81.13-1.368 6.457-5.355 6.796-3.811-1.36z"/>
        <path fill="#ff8080" stroke="#000" stroke-linecap="round" stroke-linejoin="round" stroke-width="1.089" d="M188.24 921.859a9.289 9.192 0 0 1 9.289 9.193 9.289 9.192 0 0 1-9.289 9.192 9.289 9.192 0 0 1-9.288-9.192 9.289 9.192 0 0 1 9.288-9.193zm.145 4.866a4.567 4.279 0 0 0-4.569 4.278 4.567 4.279 0 0 0 4.569 4.28 4.567 4.279 0 0 0 4.567-4.28 4.567 4.279 0 0 0-4.567-4.278z"/>
        <path fill="#ff8080" fill-rule="evenodd" stroke="#000" stroke-width="1.089" d="M187.903 910.886l1.829 16.748c.788 7.217-3.963 2.79-4.332.29l-2.502-16.46z"/>
        <ellipse cx="-184.293" cy="902.897" fill="#faa" stroke="#000" stroke-linecap="round" stroke-linejoin="round" stroke-width="1.038" rx="9.507" ry="9.94" transform="scale(-1 1)"/>
        <path fill="#ff8080" fill-rule="evenodd" stroke="#000" stroke-width="1.089" d="M204.07 915.89c-5.446-28.767-5.765-87.94-18.786-84.533-10.565 2.764-9.407 38.815-3.812 63.298 1.995 1.993 2.873.634 3.812-.544-4.61-14.838-9.24-54.29.68-57.99 6.99-2.606 8.511 53.85 14.294 81.131 1.368 6.456 5.355 6.796 3.811-1.361z"/>
        <path fill="#fff" fill-rule="evenodd" d="M80 864.737c.504.382.856.842 1.1 1.325.215.429.354.89.436 1.358.036.044.07.09.105.136.626.84 1.086 1.981 1.355 3.27a13.8 13.8 0 0 1 .228 3.93c-.109 1.27-.395 2.456-.849 3.356.666-.776 1.21-1.916 1.575-3.223.363-1.303.552-2.776.512-4.228-.039-1.44-.305-2.921-.902-4.206a7.775 7.775 0 0 0-.104-.217 6.045 6.045 0 0 0-1.561-1.066 4.557 4.557 0 0 0-1.895-.435zM186.604 895.668c.315.173.561.438.76.737.2.3.371.665.515 1.066.17.477.309 1.027.404 1.625.241.335.472.718.685 1.141 1.038 2.063 1.627 5.036.974 8.057 1.364-2.801 1.62-6.01 1.155-8.726a13.246 13.246 0 0 0-.377-1.61c-.475-.623-.99-1.148-1.523-1.546-.452-.337-.914-.58-1.364-.71-.454-.132-.874-.14-1.23-.034zM184.75 833.737c.506-.055.934.01 1.28.153.04.017.08.034.117.053.284-.011.564.031.841.126.635.217 1.269.716 1.891 1.502.619.78 1.199 1.81 1.739 3.033.538 1.22 1.031 2.616 1.483 4.125.904 3.019 1.636 6.462 2.238 9.789.603 3.326 1.076 6.527 1.463 9.06-.292-2.544-.67-5.761-1.18-9.107-.508-3.345-1.149-6.827-1.968-9.898-.41-1.536-.865-2.976-1.374-4.248-.508-1.27-1.075-2.388-1.713-3.273-.634-.882-1.366-1.57-2.219-1.922a3.342 3.342 0 0 0-1.202-.256 3.914 3.914 0 0 0-1.396.864zM74.75 802.612c.611.15 1.085.417 1.443.746.286.058.563.155.832.29.665.333 1.288.902 1.862 1.699 1.155 1.6 2.02 3.984 2.651 6.716.629 2.718 1.015 5.726 1.249 8.545.234 2.817.315 5.437.338 7.38.102-1.94.145-4.567.034-7.403-.11-2.833-.374-5.886-.89-8.674-.513-2.773-1.287-5.349-2.454-7.19-.587-.926-1.294-1.701-2.156-2.215a4.692 4.692 0 0 0-1.13-.49 4.696 4.696 0 0 0-1.779.596zM77.543 893.668a4.924 4.924 0 0 1 1.676 2.225 5.836 5.836 0 0 1 1.202 2.731c.155.959.09 1.975-.233 2.933a5.635 5.635 0 0 1-1.794 2.586c.97-.61 1.7-1.451 2.18-2.425.481-.972.71-2.068.682-3.168a6.91 6.91 0 0 0-.982-3.392 5.794 5.794 0 0 0-2.731-1.49zM191.218 924.273c1.234.448 2.016 1.22 2.502 2.09.102.183.193.372.272.565.444.651.76 1.425.973 2.257.269 1.052.364 2.168.354 3.197a14.056 14.056 0 0 1-.26 2.63c.26-.64.501-1.56.638-2.604.137-1.04.172-2.216.012-3.367-.125-.91-.375-1.824-.807-2.652a6.091 6.091 0 0 0-.488-.56c-.838-.848-1.893-1.392-3.196-1.556z"/>
    </g>
    <path fill="#ff8080" fill-rule="evenodd" stroke="#000" stroke-width="1.429" d="M70.55 153.567l1.169-47.693 4.368-.264-.307 47.84z"/>
    <path fill="#f55" fill-rule="evenodd" stroke="#000" stroke-width="1.421" d="M74.883 183.393c-12.821-9.234-31.424-26.32-32.002-46.343-.56-19.366 17.604-29.892 30.78-8.22 9.197-21.92 31.678-11.598 31.892 7.827.22 19.872-19.68 36.781-30.67 46.736z"/>
    <path fill="#ff2a2a" fill-rule="evenodd" d="M74.85 182.455c-18.081-12.822-38.613-35.795-28.94-57.894-.615 9.428 3.21 23.765 8.942 31.58 10.933 14.902 15.156 19.897 19.998 26.314z"/>
    <path fill="#fff" fill-rule="evenodd" d="M79.012 122.901c4.01-2.486 7.726-3.212 10.87-2.713 3.03.48 5.553 2.098 7.418 4.431.07.07.14.14.208.212 2.169 2.257 3.786 5.48 4.492 9.357.704 3.869.491 8.351-.958 13.064 1.771-4.595 2.364-9.122 1.977-13.204-.386-4.074-1.754-7.745-3.95-10.56-.07-.09-.141-.178-.213-.266-2.445-2.465-5.505-3.921-8.866-4.091-3.455-.175-7.191 1.007-10.978 3.77zM74.762 125.745c.146-5.06.213-8.385.284-11.262.07-2.8.141-5.068.29-7.928l-.921-.195-.92.198c.155 2.887.386 5.175.62 7.952.24 2.84.482 6.198.647 11.235zM51.38 120.818a6.406 6.406 0 0 1 2.552-1.347c.914-.246 1.886-.305 2.875-.21 1.51.147 3.08.654 4.573 1.433.489.19.976.41 1.456.656 2.023 1.036 3.915 2.54 5.341 4.343 1.422 1.798 2.393 3.91 2.545 6.168.06-2.275-.71-4.524-2.027-6.54-1.313-2.01-3.16-3.772-5.226-5.077-.49-.31-.995-.596-1.508-.852-1.722-.656-3.484-.995-5.13-.939-1.081.037-2.106.243-3.031.636a6.69 6.69 0 0 0-2.42 1.729z"/>
    <path fill="#ff8080" fill-rule="evenodd" stroke="#000" stroke-width="1.429" d="M184.85 184.258l1.168-47.693 4.369-.265-.308 47.84z"/>
    <path fill="#f55" fill-rule="evenodd" stroke="#000" stroke-width="1.421" d="M189.183 214.084c-12.821-9.235-31.424-26.321-32.003-46.343-.56-19.366 17.604-29.892 30.78-8.22 9.197-21.92 31.678-11.598 31.893 7.827.22 19.871-19.68 36.781-30.67 46.736z"/>
    <path fill="#ff2a2a" fill-rule="evenodd" d="M189.15 213.146c-18.081-12.823-38.613-35.795-28.94-57.894-.615 9.428 3.21 23.765 8.942 31.58 10.932 14.901 15.155 19.897 19.998 26.314z"/>
    <path fill="#fff" fill-rule="evenodd" d="M193.312 153.592c4.01-2.486 7.726-3.212 10.87-2.713 3.03.48 5.552 2.098 7.418 4.43.07.07.139.14.208.212 2.168 2.257 3.786 5.48 4.491 9.357.704 3.87.492 8.352-.957 13.065 1.771-4.595 2.364-9.122 1.977-13.205-.386-4.073-1.754-7.744-3.95-10.56-.07-.089-.141-.178-.213-.265-2.445-2.466-5.506-3.922-8.866-4.091-3.455-.175-7.192 1.007-10.978 3.77zM189.062 156.436c.145-5.06.212-8.385.284-11.263.07-2.798.14-5.067.29-7.927-.308-.064-.614-.13-.921-.195l-.921.197c.155 2.887.387 5.175.621 7.953.24 2.84.481 6.198.647 11.235zM165.68 151.509a6.406 6.406 0 0 1 2.552-1.348c.914-.245 1.885-.304 2.875-.209 1.51.146 3.079.654 4.573 1.433.489.19.976.41 1.456.655 2.022 1.036 3.915 2.54 5.34 4.344 1.423 1.798 2.393 3.91 2.545 6.168.06-2.275-.71-4.524-2.027-6.54-1.313-2.01-3.159-3.772-5.225-5.078-.491-.31-.995-.595-1.508-.852-1.723-.655-3.484-.994-5.131-.938-1.08.036-2.105.243-3.03.635a6.69 6.69 0 0 0-2.42 1.73z"/>
</svg>
