<svg xmlns="http://www.w3.org/2000/svg" cursor="default" viewBox="0 0 256 256">
    <g transform="translate(0 -796.362)">
        <path fill="#ff2a2a" fill-rule="evenodd" stroke="#000" stroke-width=".9" d="M75.033 1023.024l109.575 12.375c7.081.8 16.907 1.987 17.325-10.35l3.375-99.45c.169-4.965-2.085-9.029-9.225-13.275-18.16-10.801-35.613-28.917-35.887-70.2.224-39.576-42.202-39.357-43.875.787-.756 18.144-11.93 48.456-32.513 61.988-6.043 3.973-9.8 6.857-10.012 11.812l-4.163 97.2c-.186 4.35 1.105 8.628 5.4 9.113z"/>
        <path fill="#ff8080" fill-rule="evenodd" stroke="#000" stroke-width=".9" d="M58.354 1022.892l113.85 20.475c7.013 1.26 16.894 1.986 17.325-10.35l3.6-103.05c.173-4.965-2.086-9.029-9.225-13.275-18.16-10.802-40.113-33.417-40.388-74.7.225-39.576-42.202-39.357-43.875.787-.756 18.144-11.93 48.456-32.512 61.988-6.043 3.973-9.8 6.857-10.013 11.812l-4.162 97.2c-.187 4.35 1.146 8.348 5.4 9.113z"/>
        <path fill="#faa" fill-rule="evenodd" stroke="#000" stroke-width=".9" d="M96.604 824.554c4.976-6.671 12.704-5.087 20.137-4.387 21.99 1.758 22.068 33.73 3.038 37.912-5.906-2.525-19.322-4.19-20.769-8.135z"/>
        <path fill="none" stroke="#000" stroke-width=".9" d="M123.387 829.889l7.08.716M123.148 843.015c.318.08 7.876.716 7.876.716M115.83 852.56l7.477.478M115.273 821.298l4.295.318"/>
        <path fill="none" stroke="#1a1a1a" stroke-linecap="round" stroke-linejoin="round" stroke-width="1.649" d="M118.885 884.059l-12.649 31.324 27.558-18.476-31.792-1.574 25.212 21.1z"/>
        <path fill="none" stroke="#1a1a1a" stroke-linecap="round" stroke-width="3.6" d="M84.281 1021.677l11.25-43.2c4.786-18.378-13.797-28.96-14.512-5.175-.506 16.813 9.167 21.044 13.5 8.55M71.455 955.657l-11.25 43.2c-4.786 18.378 13.797 28.96 14.513 5.175.505-16.813-9.168-21.045-13.5-8.55M165.756 1032.42l11.25-43.2c4.786-18.379-13.796-28.96-14.512-5.176-.506 16.813 9.167 21.044 13.5 8.55M152.93 966.399l-11.25 43.2c-4.786 18.378 13.797 28.96 14.513 5.175.506-16.813-9.168-21.044-13.5-8.55"/>
        <path fill="none" stroke="#1a1a1a" stroke-width="3.6" d="M100.636 1014.364l1.273-40.888c.523-16.819 12.096-14.243 11.455.636l-1.75 40.57c-.584 13.521-11.334 11.12-10.978-.318zM122.105 1017.38l1.273-40.889c.524-16.819 12.097-14.243 11.455.636l-1.75 40.57c-.583 13.521-11.334 11.12-10.978-.317z"/>
        <path fill="none" stroke="#1a1a1a" stroke-linecap="round" stroke-linejoin="round" stroke-width="1.895" d="M61.358 920.773l-.514 21.392s8.908.527 8.636-10.078c-.282-11.004-8.122-11.314-8.122-11.314zM73.852 942.923l.377-20.556 10.408 21.843.45-20.787"/>
        <path fill="none" stroke="#1a1a1a" stroke-linecap="round" stroke-width="1.917" d="M113.51 926.183l-6.357 15.24c-2.704 6.483 7.795 10.216 8.2 1.825.286-5.931-5.18-7.424-7.628-3.016"/>
        <path fill="none" stroke="#1a1a1a" stroke-linecap="round" stroke-width="1.952" d="M95.787 929.713c.46-3.478.605-5.35 4.108-5.146 3.468.202 3.5 2.087 3.27 5.24-.24 3.29-1.496 5.815-4.262 5.506-3.419-.383-3.924 1.619-4.363 5.284-.43 3.588-.058 5.56 3.133 5.976 4.01.522 3.952-1.815 4.34-5.784.256-2.611.535-5.137-3.192-5.372-2.535-.16-3.408-2.872-3.034-5.704z"/>
        <path fill="none" stroke="#1a1a1a" stroke-linecap="round" stroke-linejoin="round" stroke-width="1.8" d="M119.237 927.49l9.228.955-5.17 20.126"/>
        <path fill="none" stroke="#1a1a1a" stroke-linecap="round" stroke-width="1.8" d="M144.136 930.083l-8.91-.955-1.352 7.557c12.551-.297 9.054 17.218-1.511 12.887"/>
        <path fill="none" stroke="#1a1a1a" stroke-linecap="round" stroke-linejoin="round" stroke-width="1.8" d="M150.044 930.686l8.75.557-6.681 6.92c11.446-.143 2.764 18.392-5.887 12.57"/>
        <path fill="none" stroke="#1a1a1a" stroke-width="1.8" d="M162.51 951.347l.92-15.637c.378-6.433 8.739-5.447 8.275.243l-1.264 15.516c-.422 5.17-8.188 4.252-7.931-.122z"/>
        <path fill="none" stroke="#1a1a1a" stroke-linecap="round" stroke-width="1.788" d="M178.547 955.665l7.328-16.351c3.118-6.956-8.987-10.962-9.453-1.959-.33 6.364 5.972 7.965 8.794 3.236"/>
        <ellipse cx="105.323" cy="836.535" fill="#ffb380" stroke="#000" stroke-linecap="round" stroke-linejoin="round" stroke-width=".875" rx="13.119" ry="15.819"/>
    </g>
</svg>
