<svg xmlns="http://www.w3.org/2000/svg" cursor="default" viewBox="0 0 256 256">
    <g transform="translate(0 -796.362)">
        <ellipse cx="131.918" cy="980.806" fill="#faa" stroke="#000" stroke-linecap="round" stroke-width="1.009" rx="32.77" ry="33.083"/>
        <path fill="#ff8080" fill-rule="evenodd" stroke="#000" d="M115.102 866.539c10.954 29.36 10.697 45.45 10.598 82.754 3.562.777 9.6.744 12.375-.21 1.61-40.86-2.574-69.352-11.647-86.248z"/>
        <ellipse cx="116.002" cy="852.131" fill="#faa" stroke="#000" stroke-linecap="round" stroke-width="1.094" rx="21.078" ry="20.891"/>
        <path fill="#fff" fill-rule="evenodd" d="M118.688 834.73c1.467-.046 3.031.249 4.592.806.82.292 1.635.655 2.43 1.076.64.491 1.253 1.02 1.828 1.576 1.215 1.173 2.27 2.47 3.085 3.785.815 1.317 1.384 2.648 1.629 3.883-.452-1.166-1.206-2.363-2.161-3.5a19.82 19.82 0 0 0-3.401-3.168 19.773 19.773 0 0 0-1.882-1.228c-.633-.537-1.3-1.031-1.99-1.468-1.306-.826-2.708-1.456-4.13-1.763z"/>
        <ellipse cx="130.043" cy="980.431" fill="#f95" stroke="#000" stroke-linecap="round" stroke-width=".865" rx="28.096" ry="28.364"/>
        <ellipse cx="130.668" cy="980.806" fill="#ffe6d5" stroke="#000" stroke-linecap="round" stroke-width=".781" rx="25.357" ry="25.599"/>
        <path fill="#ffb380" fill-rule="evenodd" stroke="#000" stroke-width=".5" d="M124.753 992.129c.177.442-.474 13.256-.474 13.256 3.893 1.219 7.786 1.053 11.679.193l-1.738-13.469z"/>
        <path fill="#fca" fill-rule="evenodd" stroke="#000" stroke-width=".5" d="M140.132 986.08l15.04.16c.475-3.644 1.243-7.248-.038-11.132l-15.267 1.425z"/>
        <path fill="#ffb380" fill-rule="evenodd" stroke="#000" stroke-width=".5" d="M135.206 968.923l.287-13.017c-3.732-.634-6.978-.538-9.88.077l-.52 12.665z"/>
        <path fill="#ffe6d5" fill-rule="evenodd" stroke="#000" stroke-width=".5" d="M118.3 985.84l-12.286.416c-.704-3.654-.8-7.41-.004-11.314l11.838-.126z"/>
        <path fill="#ffe6d5" fill-rule="evenodd" stroke="#000" stroke-width=".5" d="M125.012 968.463l-7.282 6.156.5 11.25 6 6.25 10.715-.073 5.251-5.496-.185-11.262-4.243-6.82z"/>
        <path fill="#fca" fill-rule="evenodd" stroke="#000" stroke-width=".5" d="M124.31 992.355c.442-.354 4.84-10.363 4.84-10.363l-10.76 3.819-8.57 9.113c1.686 2.387 3.267 4.801 6.814 6.703z"/>
        <path fill="#ffb380" fill-rule="evenodd" stroke="#000" stroke-width=".5" d="M129.56 981.68c0-.181 5.714-13.086 5.714-13.086l6.626-10.512c4.605 2.548 8.31 5.726 10.562 9.922l-12.752 7.417z"/>
        <path fill="#fca" fill-rule="evenodd" stroke="#000" stroke-width=".5" d="M129.339 981.644c-.222-.045-11.752-7.122-11.752-7.122l-6.977-9.303c2.379-2.508 4.456-5.184 8.353-6.85l6.168 10.132z"/>
        <path fill="#ffb380" fill-rule="evenodd" stroke="#000" stroke-width=".5" d="M129.801 982.138l4.528 9.499 9.079 11.113c3.752-2.256 6.52-5.023 8.356-8.279l-12.048-8.5z"/>
        <path fill="#fff" fill-rule="evenodd" d="M112.842 964.351c1.45 2.246 2.364 3.783 3.12 5.134.734 1.308 1.317 2.442 2.107 3.897l1.234-.706 1.033-.975c-1.183-1.207-2.14-2.07-3.245-3.102a82.802 82.802 0 0 1-4.25-4.248zM127.574 956.494c-.345 1.224-.707 2.83-1.062 4.511l.075.74c.198 1.957.412 3.954.675 5.499.264-1.552.638-3.896.902-5.448l.125-.73c-.238-1.694-.468-3.324-.715-4.572zM106.831 976.686c1.358-.066 3.038-.432 4.66-.835l.354-.088c1.57.228 3.189.419 4.456.75-1.269.33-2.763.799-4.327 1.232a98.872 98.872 0 0 1-.37-.043c-1.734-.205-3.472-.47-4.773-1.016zM127.555 993.827a32.935 32.935 0 0 0-.663 2.301c-.177.683-.359 1.423-.544 2.181l.118.755c.157 1.022.312 2.046.472 2.965.16.917.325 1.733.502 2.325.179-.595.368-1.392.564-2.304.195-.91.396-1.926.593-2.944l.146-.754a68.538 68.538 0 0 0-.485-2.214c-.22-.915-.454-1.732-.703-2.311zM143.867 1000.713a95.686 95.686 0 0 1-1.538-2.284c-.599-.911-1.262-1.935-1.915-2.95a879.67 879.67 0 0 1-1.859-2.903l-.777-1.217-.218-.34c-.48.06-.954.15-1.38.287-.168.44-.314.834-.469 1.304.09.076.183.158.28.247.302.274.641.603 1.003.967.724.728 1.542 1.598 2.37 2.476.83.88 1.672 1.772 2.449 2.55.776.777 1.49 1.444 2.054 1.863zM113.23 995.181c1.378-1.96 2.838-3.918 3.991-5.508.291-.401.563-.78.808-1.127.33-.26.635-.49.91-.685.277-.199.522-.362.73-.486a2.58 2.58 0 0 1 .508-.246c-.007.135-.063.324-.155.55a8.707 8.707 0 0 1-.386.795c-.16.298-.352.63-.568.99-.314.286-.655.601-1.016.94a143.358 143.358 0 0 0-4.822 4.777zM136.042 969.588l-.457-.202c-1.318 2.977-.977 2.35-2.777 6.261-.738 1.606-2.198 4.753-2.188 4.732.424-.862 1.236-2.126 2.632-4.5 1.384-2.357 2.557-4.53 3.247-6.088l-.457-.203zM154.502 977.12c-.822.103-1.852.28-2.977.49-1.13.21-2.371.458-3.633.707a216.8 216.8 0 0 1-3.909.743c-1.196-.242-2.32-.52-3.24-.861.858-.319 2.017-.77 3.069-1.183h.147c1.207.01 2.503-.016 3.789-.041 1.285-.025 2.558-.05 3.718-.038 1.16.012 2.209.062 3.036.183z"/>
    </g>
</svg>
