<?xml version="1.0" encoding="UTF-8" standalone="no"?>
<svg
   xmlns:dc="http://purl.org/dc/elements/1.1/"
   xmlns:cc="http://creativecommons.org/ns#"
   xmlns:rdf="http://www.w3.org/1999/02/22-rdf-syntax-ns#"
   xmlns:svg="http://www.w3.org/2000/svg"
   xmlns="http://www.w3.org/2000/svg"
   xmlns:sodipodi="http://sodipodi.sourceforge.net/DTD/sodipodi-0.dtd"
   xmlns:inkscape="http://www.inkscape.org/namespaces/inkscape"
   version="1.1"
   id="svg4164"
   viewBox="0 0 256 256"
   sodipodi:docname="piercing_nose_skull.svg"
   inkscape:version="0.92.2 (5c3e80d, 2017-08-06)">
  <sodipodi:namedview
     pagecolor="#ffffff"
     bordercolor="#666666"
     borderopacity="1"
     objecttolerance="10"
     gridtolerance="10"
     guidetolerance="10"
     inkscape:pageopacity="0"
     inkscape:pageshadow="2"
     inkscape:window-width="1920"
     inkscape:window-height="1057"
     id="namedview2104"
     showgrid="false"
     inkscape:zoom="0.921875"
     inkscape:cx="128"
     inkscape:cy="128"
     inkscape:window-x="-8"
     inkscape:window-y="-8"
     inkscape:window-maximized="1"
     inkscape:current-layer="svg4164" />
  <style
     id="style3">
    svg { cursor: default;}
  </style>
  <defs
     id="defs4166">
    <marker
       style="overflow:visible"
       id="Arrow1Lstart"
       refX="0.0"
       refY="0.0"
       orient="auto">
      <path
         transform="scale(0.8) translate(12.5,0)"
         style="fill-rule:evenodd;stroke:#000000;stroke-width:1pt;stroke-opacity:1;fill:#000000;fill-opacity:1"
         d="M 0.0,0.0 L 5.0,-5.0 L -12.5,0.0 L 5.0,5.0 L 0.0,0.0 z "
         id="path4233" />
    </marker>
  </defs>
  <metadata
     id="metadata4169">
    <rdf:RDF>
      <cc:Work
         rdf:about="">
        <dc:format>image/svg+xml</dc:format>
        <dc:type
           rdf:resource="http://purl.org/dc/dcmitype/StillImage" />
        <dc:title></dc:title>
      </cc:Work>
    </rdf:RDF>
  </metadata>
  <g
     style="display:inline"
     id="layer2" />
  <g
     id="g4245"
     transform="matrix(1.21,0,0,1.21,-25.247008,-992.43549)">
    <g
       transform="matrix(0.84485293,0,0,0.89311055,16.919807,98.69901)"
       id="g4241">
      <path
         inkscape:connector-curvature="0"
         style="fill:#ff5555;fill-rule:evenodd;stroke:#000000;stroke-width:1.77156103px;stroke-linecap:butt;stroke-linejoin:miter;stroke-opacity:1"
         d="m 172.95572,966.33543 -45.51024,-21.77761 c -10.09201,-4.82924 -20.03772,-15.26896 -20.82507,-27.69639 -1.40796,-22.22313 -6.755137,-50.75258 -35.482189,-49.37556 -22.777236,1.09181 -37.207348,23.89355 -34.677917,62.08967 0.966307,14.59187 -16.317163,13.71634 -17.71561,3.54312 -4.382422,-31.88062 8.801638,-82.51092 48.727147,-83.44681 52.791819,-1.23751 51.804779,47.31095 57.857429,65.52548 3.41,10.26191 37.56487,20.52758 53.7417,30.76514 z"
         id="path4188" />
      <path
         inkscape:connector-curvature="0"
         style="fill:#ffffff;fill-rule:evenodd;stroke:none;stroke-width:1px;stroke-linecap:butt;stroke-linejoin:miter;stroke-opacity:1"
         d="m 56.876459,858.33196 c 7.033622,-1.80491 13.753678,-2.30152 19.950938,-1.56064 6.195726,0.74069 11.846424,2.71479 16.779223,5.8315 0.815497,0.51526 1.611615,1.06188 2.387652,1.63954 9.099698,5.71963 16.334408,15.70352 20.071448,30.10423 -2.82582,-14.52146 -9.30102,-25.45588 -18.512489,-32.36464 -0.87334,-0.55989 -1.76386,-1.08349 -2.670409,-1.57091 -5.486172,-2.94976 -11.548333,-4.56947 -17.947646,-4.90326 -6.397312,-0.33369 -13.151985,0.61592 -20.058717,2.82418 z"
         id="path4190" />
    </g>
    <g
       transform="matrix(0.97622987,0.00128373,-0.00132498,0.945971,-7.4361399,44.664932)"
       id="g4231">
      <path
         inkscape:connector-curvature="0"
         style="display:inline;fill:#ffffff;fill-rule:evenodd;stroke:none;stroke-width:1px;stroke-linecap:butt;stroke-linejoin:miter;stroke-opacity:1"
         d="m 179.30455,941.14863 c 2.11993,0.0314 4.15608,0.47729 5.99515,1.39146 1.84427,0.91675 3.48662,2.30429 4.77451,4.18898 0.0894,0.13085 0.17705,0.26399 0.26284,0.3994 0.75368,2.00265 1.09258,4.236 1.02107,6.65595 -0.0768,2.59971 -0.62825,5.45788 -1.69223,8.55341 0.59692,-3.23315 0.63296,-6.06134 0.23489,-8.46014 -0.37037,-2.23192 -1.10979,-4.05396 -2.0822,-5.48298 -0.0434,-0.12155 -0.0886,-0.24186 -0.13553,-0.36092 -0.67138,-1.70269 -1.71362,-3.17303 -3.12054,-4.34847 -1.41068,-1.17859 -3.18135,-2.05306 -5.25796,-2.53669 z"
         id="path4471-5" />
    </g>
  </g>
  <g
     style="display:inline"
     transform="matrix(0.32224089,0,0,0.32960512,-21044.162,-2742.287)"
     id="g1931">
    <path
       sodipodi:nodetypes="cccccccccscccc"
       inkscape:connector-curvature="0"
       id="path826"
       d="m 65763.507,8780.7792 c -31.562,-30.7746 -43.414,-80.8161 -27.327,-118.134 16.269,-35.7772 49.287,-56.4857 84.846,-65.9649 49.869,-12.2523 103.031,-11.0187 148.654,3.8056 40.266,15.1979 71.708,48.3408 75.73,84.9933 1.771,37.8779 -4.123,66.6312 -35.06,89.4333 16.922,51.4602 -14.84,69.0379 -25.081,72.032 -8.471,17.95 -16.015,31.5981 -12.016,72.0993 -3.052,13.5868 -8.624,25.782 -13.134,30.3054 -17.467,17.738 -51.609,26.1962 -72.112,26.4771 -20.504,0.2809 -43.465,-4.224 -70.591,-21.8012 -8.104,-9.498 -14.082,-15.5668 -19.165,-38.1266 1.581,-16.0197 4.974,-42.7057 -14.149,-72.5321 -9.813,-9.5308 -33.792,-14.3682 -20.595,-62.5872 z"
       style="fill:#ff8080;stroke:#000000;stroke-width:7.05759382;stroke-linecap:butt;stroke-linejoin:miter;stroke-miterlimit:4;stroke-dasharray:none;stroke-opacity:1" />
    <g
       transform="matrix(3.7102904,0,0,3.3561814,65484.58,8155.6796)"
       id="g856">
      <path
         style="fill:#000000;stroke:#000000;stroke-width:1;stroke-linecap:butt;stroke-linejoin:miter;stroke-miterlimit:4;stroke-dasharray:none;stroke-opacity:1"
         d="m 99.02976,174.7247 c -6.173611,0.31498 -10.457341,0.81895 -15.686011,2.64583 -3.338789,3.08681 -3.167082,5.96506 -2.645832,9.07143 0.613217,3.65445 3.089354,7.45882 6.425594,9.07143 2.101621,1.01584 6.99256,-0.37798 6.99256,-0.37798 3.716767,-3.40178 6.866569,-6.80357 8.315479,-11.33928 0,0 2.45684,-6.04762 -3.40179,-9.07143 z"
         id="path853"
         inkscape:connector-curvature="0"
         sodipodi:nodetypes="ccssccc" />
      <path
         style="fill:#000000;stroke:#000000;stroke-width:1;stroke-linecap:butt;stroke-linejoin:miter;stroke-miterlimit:4;stroke-dasharray:none;stroke-opacity:1"
         d="m 118.51163,174.34941 c 6.17362,0.31498 10.45735,0.81895 15.68601,2.64583 3.33879,3.08681 3.16708,5.96506 2.64583,9.07143 -0.61321,3.65445 -3.08935,7.45882 -6.42559,9.07143 -2.10162,1.01584 -6.99256,-0.37798 -6.99256,-0.37798 -3.71676,-3.40178 -6.86657,-6.80357 -8.31548,-11.33928 0,0 -2.45684,-6.04762 3.40179,-9.07143 z"
         id="path853-0"
         inkscape:connector-curvature="0"
         sodipodi:nodetypes="ccssccc" />
      <path
         style="fill:#000000;stroke:#000000;stroke-width:1;stroke-linecap:butt;stroke-linejoin:miter;stroke-miterlimit:4;stroke-dasharray:none;stroke-opacity:1"
         d="m 108.47917,190.97767 -0.18899,15.11905 c -0.97929,1.79064 -2.05212,2.64583 -3.77976,3.96875 -7.748513,-2.20486 -2.83482,-14.61508 3.96875,-19.0878 z"
         id="path870"
         inkscape:connector-curvature="0"
         sodipodi:nodetypes="cccc" />
      <path
         style="fill:#000000;stroke:#000000;stroke-width:1;stroke-linecap:butt;stroke-linejoin:miter;stroke-miterlimit:4;stroke-dasharray:none;stroke-opacity:1"
         d="m 109.81375,191.08348 0.18899,15.11905 c 1.25992,1.97773 1.95857,3.02001 3.77976,3.96875 7.74851,-2.20486 2.83482,-14.61508 -3.96875,-19.0878 z"
         id="path870-9"
         inkscape:connector-curvature="0"
         sodipodi:nodetypes="cccc" />
    </g>
    <path
       sodipodi:nodetypes="cccccc"
       inkscape:connector-curvature="0"
       id="path1481"
       d="m 65759.878,8681.7008 c -6.204,12.1491 -6.767,21.747 -1.441,28.6814 l 8.647,24.1184 c 3.853,16.7299 -0.943,30.8524 -3.577,46.2786 -5.385,28.0327 -1.404,46.9396 20.595,62.5872 42.609,8.9063 43.423,24.3311 45.677,34.541"
       style="fill:none;stroke:#000000;stroke-width:7.05759382;stroke-linecap:butt;stroke-linejoin:miter;stroke-miterlimit:4;stroke-dasharray:none;stroke-opacity:1" />
    <path
       sodipodi:nodetypes="cccccc"
       inkscape:connector-curvature="0"
       id="path1481-5"
       d="m 66014.655,8681.0638 c 6.204,12.1491 6.766,21.7469 1.441,28.6813 l -8.648,24.1185 c -3.852,16.7299 0.943,30.8524 3.577,46.2785 5.386,28.0328 1.404,46.9397 -20.594,62.5873 -42.609,8.9063 -43.423,24.331 -45.677,34.5409"
       style="fill:none;stroke:#000000;stroke-width:7.05759382;stroke-linecap:butt;stroke-linejoin:miter;stroke-miterlimit:4;stroke-dasharray:none;stroke-opacity:1" />
    <path
       sodipodi:nodetypes="ccscc"
       inkscape:connector-curvature="0"
       id="path1498"
       d="m 65801.675,8847.9223 c 9.134,21.8162 19.635,45.0531 19.457,65.1848 19.958,17.0297 42.453,20.968 65.375,20.9613 22.921,-0.01 46.27,-5.9142 68.661,-20.3093 -3.74,-15.5625 6.89,-40.0067 13.692,-61.9257"
       style="fill:none;stroke:#000000;stroke-width:4.23455667;stroke-linecap:butt;stroke-linejoin:miter;stroke-miterlimit:4;stroke-dasharray:none;stroke-opacity:1" />
    <path
       sodipodi:nodetypes="cc"
       inkscape:connector-curvature="0"
       id="path1500"
       d="m 65829.779,8877.9074 c 34.846,13.945 72.455,16.6494 114.975,-0.6371"
       style="fill:none;stroke:#000000;stroke-width:4.23455667;stroke-linecap:butt;stroke-linejoin:miter;stroke-miterlimit:4;stroke-dasharray:none;stroke-opacity:1" />
    <path
       inkscape:connector-curvature="0"
       id="path825"
       d="m 65829.779,8877.9074 -0.723,40.4143"
       style="fill:none;stroke:#000000;stroke-width:4.23455667;stroke-linecap:butt;stroke-linejoin:miter;stroke-miterlimit:4;stroke-dasharray:none;stroke-opacity:1" />
    <path
       inkscape:connector-curvature="0"
       id="path827"
       d="m 65845.631,8885.0775 -1.441,41.7183"
       style="fill:none;stroke:#000000;stroke-width:4.23455667;stroke-linecap:butt;stroke-linejoin:miter;stroke-miterlimit:4;stroke-dasharray:none;stroke-opacity:1" />
    <path
       inkscape:connector-curvature="0"
       id="path829"
       d="m 65859.322,8887.033 -0.72,44.9775"
       style="fill:none;stroke:#000000;stroke-width:4.23455667;stroke-linecap:butt;stroke-linejoin:miter;stroke-miterlimit:4;stroke-dasharray:none;stroke-opacity:1" />
    <path
       inkscape:connector-curvature="0"
       id="path831"
       d="m 65873.735,8888.9885 -0.72,43.022"
       style="fill:none;stroke:#000000;stroke-width:4.23455667;stroke-linecap:butt;stroke-linejoin:miter;stroke-miterlimit:4;stroke-dasharray:none;stroke-opacity:1" />
    <path
       inkscape:connector-curvature="0"
       id="path833"
       d="m 65887.427,8889.6404 -1.441,43.6739"
       style="fill:none;stroke:#000000;stroke-width:4.23455667;stroke-linecap:butt;stroke-linejoin:miter;stroke-miterlimit:4;stroke-dasharray:none;stroke-opacity:1" />
    <path
       inkscape:connector-curvature="0"
       id="path835"
       d="m 65901.119,8888.3367 2.162,43.6738"
       style="fill:none;stroke:#000000;stroke-width:4.23455667;stroke-linecap:butt;stroke-linejoin:miter;stroke-miterlimit:4;stroke-dasharray:none;stroke-opacity:1" />
    <path
       inkscape:connector-curvature="0"
       id="path837"
       d="m 65914.09,8887.033 2.162,43.6739"
       style="fill:none;stroke:#000000;stroke-width:4.23455667;stroke-linecap:butt;stroke-linejoin:miter;stroke-miterlimit:4;stroke-dasharray:none;stroke-opacity:1" />
    <path
       inkscape:connector-curvature="0"
       id="path839"
       d="m 65928.502,8883.1219 2.163,43.6739"
       style="fill:none;stroke:#000000;stroke-width:4.23455667;stroke-linecap:butt;stroke-linejoin:miter;stroke-miterlimit:4;stroke-dasharray:none;stroke-opacity:1" />
    <path
       sodipodi:nodetypes="cc"
       inkscape:connector-curvature="0"
       id="path843"
       d="m 65829.778,8900.07 c 35.064,15.4619 72.308,18.2168 113.137,0.6519"
       style="fill:none;stroke:#000000;stroke-width:4.23455667;stroke-linecap:butt;stroke-linejoin:miter;stroke-miterlimit:4;stroke-dasharray:none;stroke-opacity:1" />
    <path
       inkscape:connector-curvature="0"
       id="path845"
       d="m 65944.754,8877.2703 1.764,41.0514"
       style="fill:none;stroke:#000000;stroke-width:4.23455667;stroke-linecap:butt;stroke-linejoin:miter;stroke-miterlimit:4;stroke-dasharray:none;stroke-opacity:1" />
  </g>
</svg>
