<?xml version="1.0" encoding="UTF-8" standalone="no"?>
<svg
   xmlns:dc="http://purl.org/dc/elements/1.1/"
   xmlns:cc="http://creativecommons.org/ns#"
   xmlns:rdf="http://www.w3.org/1999/02/22-rdf-syntax-ns#"
   xmlns:svg="http://www.w3.org/2000/svg"
   xmlns="http://www.w3.org/2000/svg"
   version="1.1"
   id="svg4164"
   viewBox="0 0 256 256">
  <style
     id="style3">
    svg { cursor: default;}
  </style>
  <defs
     id="defs4166">
    <marker
       style="overflow:visible"
       id="Arrow1Lstart"
       refX="0.0"
       refY="0.0"
       orient="auto">
      <path
         transform="scale(0.8) translate(12.5,0)"
         style="fill-rule:evenodd;stroke:#000000;stroke-width:1pt;stroke-opacity:1;fill:#000000;fill-opacity:1"
         d="M 0.0,0.0 L 5.0,-5.0 L -12.5,0.0 L 5.0,5.0 L 0.0,0.0 z "
         id="path4233" />
    </marker>
  </defs>
  <metadata
     id="metadata4169">
    <rdf:RDF>
      <cc:Work
         rdf:about="">
        <dc:format>image/svg+xml</dc:format>
        <dc:type
           rdf:resource="http://purl.org/dc/dcmitype/StillImage" />
        <dc:title></dc:title>
      </cc:Work>
    </rdf:RDF>
  </metadata>
  <g
     style="display:inline"
     id="layer2" />
  <g
     style="display:inline"
     transform="translate(0,-796.36219)"
     id="layer1">
    <g
       transform="matrix(1.21,0,0,1.21,-25.247008,-196.0733)"
       id="g4245">
      <g
         id="g4241"
         transform="matrix(0.84485293,0,0,0.89311055,16.919807,98.69901)">
        <path
           id="path4188"
           d="m 172.95572,966.33543 -45.51024,-21.77761 c -10.09201,-4.82924 -20.03772,-15.26896 -20.82507,-27.69639 -1.40796,-22.22313 -6.755137,-50.75258 -35.482189,-49.37556 -22.777236,1.09181 -37.207348,23.89355 -34.677917,62.08967 0.966307,14.59187 -16.317163,13.71634 -17.71561,3.54312 -4.382422,-31.88062 8.801638,-82.51092 48.727147,-83.44681 52.791819,-1.23751 51.804779,47.31095 57.857429,65.52548 3.41,10.26191 37.56487,20.52758 53.7417,30.76514 z"
           style="fill:#ff5555;fill-rule:evenodd;stroke:#000000;stroke-width:1.77156103px;stroke-linecap:butt;stroke-linejoin:miter;stroke-opacity:1" />
        <path
           id="path4190"
           d="m 56.876459,858.33196 c 7.033622,-1.80491 13.753678,-2.30152 19.950938,-1.56064 6.195726,0.74069 11.846424,2.71479 16.779223,5.8315 0.815497,0.51526 1.611615,1.06188 2.387652,1.63954 9.099698,5.71963 16.334408,15.70352 20.071448,30.10423 -2.82582,-14.52146 -9.30102,-25.45588 -18.512489,-32.36464 -0.87334,-0.55989 -1.76386,-1.08349 -2.670409,-1.57091 -5.486172,-2.94976 -11.548333,-4.56947 -17.947646,-4.90326 -6.397312,-0.33369 -13.151985,0.61592 -20.058717,2.82418 z"
           style="fill:#ffffff;fill-rule:evenodd;stroke:none;stroke-width:1px;stroke-linecap:butt;stroke-linejoin:miter;stroke-opacity:1" />
      </g>
      <g
         id="g4231"
         transform="matrix(0.97622987,0.00128373,-0.00132498,0.945971,-7.4361399,44.664932)">
        <path
           id="path4287-8-8-5-2-0"
           d="m 183.68615,940.42355 0.5892,-16.62651 18.22722,-9.64631 c 0.9992,-3.89653 -0.20847,-7.10063 -5.43198,-5.86693 l -13.14051,6.4341 -0.0142,-4.82299 9.29227,-4.4447 c 2.01118,-0.51067 1.43705,-6.53109 -4.0068,-5.25986 l -3.9,1.35436 0.29738,-6.80108 c -3.57983,-4.1809 -6.49458,-3.57777 -9.02489,-0.20877 l -0.31227,7.60448 -3.40676,-2.28658 c -5.39958,-2.40813 -5.21931,2.27508 -4.2811,4.03468 l 7.55641,5.36806 -0.20029,5.27732 -11.92606,-9.95137 c -4.38233,-0.22607 -6.07196,1.55431 -4.51803,5.75162 l 16.47745,13.50142 0.32534,17.10694 z"
           style="display:inline;fill:#ff8080;fill-rule:evenodd;stroke:#000000;stroke-width:1.73627651px;stroke-linecap:butt;stroke-linejoin:miter;stroke-opacity:1" />
        <path
           id="path4287-8-8-5-2"
           d="m 175.84933,971.48837 -0.24828,16.63724 -18.02475,10.11163 c -0.91907,3.92116 0.35394,7.09336 5.55078,5.72596 l 13.0052,-6.7697 0.11232,4.8214 -9.19872,4.682 c -2.00017,0.5622 -1.30283,6.5663 4.11353,5.1556 l 3.87123,-1.454 -0.15785,6.8068 c 3.66457,4.0879 6.56621,3.4102 9.02678,-0.023 l 0.15643,-7.6105 3.45274,2.1985 c 5.44751,2.2689 5.17129,-2.4084 4.19728,-4.1435 l -7.66444,-5.1727 0.0921,-5.28106 12.12685,9.64266 c 4.38582,0.1135 6.03849,-1.7098 4.39896,-5.8661 L 183.9097,987.87486 183.23385,970.7808 Z"
           style="display:inline;fill:#ff8080;fill-rule:evenodd;stroke:#000000;stroke-width:1.73627651px;stroke-linecap:butt;stroke-linejoin:miter;stroke-opacity:1" />
        <path
           id="path4287-8-8-5"
           d="m 169.4282,943.90236 -12.39145,-9.19516 2.0959,-22.44281 c -2.45698,-2.97867 -5.53085,-3.48687 -7.30044,2.15006 l -1.90826,15.90961 -3.69023,-2.49091 1.42969,-11.1958 c 0.65409,-2.18889 -4.24165,-4.76518 -6.09696,1.10201 l -0.9904,4.43358 -5.03944,-3.81519 c -5.0513,1.25373 -6.10393,4.35492 -4.84469,8.52422 l 5.64533,4.2465 -3.51485,2.07163 c -4.6422,3.91472 -0.97211,6.17353 0.85871,6.1896 l 8.02237,-4.44118 3.92632,2.93108 -13.79104,6.24153 c -2.44773,4.07443 -1.96523,6.61494 2.04688,7.30753 l 18.86498,-8.75204 13.23312,8.56978 z"
           style="display:inline;fill:#ff8080;fill-rule:evenodd;stroke:#000000;stroke-width:1.73627651px;stroke-linecap:butt;stroke-linejoin:miter;stroke-opacity:1" />
        <path
           id="path4287-8-2-8-0-3"
           d="m 187.13026,953.71339 19.7298,-9.32433 15.2448,14.76777 c 3.58867,-0.55016 5.72026,-3.08032 2.60274,-7.93046 l -10.56516,-10.85668 3.93715,-1.96106 7.38512,7.71957 c 1.22948,1.853 5.91907,-1.16554 2.68192,-6.22624 l -2.68181,-3.44621 5.67968,-2.44164 c 1.97228,-5.3533 0.30235,-8.09414 -3.47317,-9.32479 l -6.3424,2.75083 0.49368,-4.41142 c -0.21156,-6.50085 -3.96703,-4.42543 -5.02666,-2.75437 l -1.33721,9.90443 -4.39476,1.92583 3.31957,-16.22887 c -1.58451,-4.5784 -3.72214,-5.58948 -6.52581,-2.30381 l -4.38389,22.32233 -19.75335,10.45478 z"
           style="display:inline;fill:#ff8080;fill-rule:evenodd;stroke:#000000;stroke-width:1.73627651px;stroke-linecap:butt;stroke-linejoin:miter;stroke-opacity:1" />
        <path
           id="path4287-8-2-8-0-7"
           d="m 184.47643,964.83125 18.15571,12.71371 -2.0395,22.44929 c 2.46443,2.97095 5.53951,3.46945 7.295,-2.17298 l 1.86841,-15.91554 3.69638,2.47933 -1.4015,11.20022 c -0.6486,2.19091 4.25356,4.75182 6.09419,-1.12117 l 0.97914,-4.43662 5.04915,3.7993 c 5.04808,-1.26959 6.09284,-4.37403 4.82326,-8.53938 l -5.656,-4.22875 3.5096,-2.08269 c 4.6324,-3.92925 0.95677,-6.17651 -0.87414,-6.18685 l -8.0113,4.46639 -3.93359,-2.91879 13.7753,-6.28483 c 2.43762,-4.0821 1.94868,-6.62105 -2.06509,-7.3011 l -18.84294,8.8113 -18.99592,-12.08569 z"
           style="display:inline;fill:#ff8080;fill-rule:evenodd;stroke:#000000;stroke-width:1.73627651px;stroke-linecap:butt;stroke-linejoin:miter;stroke-opacity:1" />
        <path
           id="path4287-8-2-8-0"
           d="m 172.67374,956.4015 -19.02039,11.01706 -16.22693,-13.39297 c -3.53942,0.86153 -5.48831,3.56993 -2.04248,8.1334 l 11.28913,9.90196 -3.78857,2.29858 -7.90032,-7.05185 c -1.3548,-1.74012 -5.81989,1.67836 -2.24013,6.44127 l 2.91366,3.20176 -5.49235,2.92966 c -1.59343,5.50908 0.26226,8.09591 4.11206,8.99342 l 6.13151,-3.2957 -0.18491,4.44107 c 0.66368,6.4626 4.26319,4.06589 5.2032,2.30748 l 0.64334,-9.99094 4.24725,-2.30334 -2.17917,16.46908 c 1.89855,4.42626 4.10009,5.24776 6.66641,1.72751 l 2.81589,-22.63683 18.96511,-12.14614 z"
           style="display:inline;fill:#ff8080;fill-rule:evenodd;stroke:#000000;stroke-width:1.73627651px;stroke-linecap:butt;stroke-linejoin:miter;stroke-opacity:1" />
        <path
           transform="matrix(-1.5579895,7.0715083e-5,6.3480303e-5,1.7517865,766.75,-683.85884)"
           d="m 384.40093,943.11424 -4.60679,2.69709 -5.33814,0.0323 -4.63915,-2.64105 -2.69709,-4.60679 -0.0324,-5.33815 2.64105,-4.63914 4.6068,-2.69709 5.33814,-0.0324 4.63914,2.64105 2.69709,4.60679 0.0324,5.33814 z"
           id="path4354-4-3"
           style="display:inline;opacity:1;fill:#ffaaaa;fill-opacity:1;stroke:#000000;stroke-width:1;stroke-linecap:round;stroke-linejoin:round;stroke-miterlimit:4;stroke-dasharray:none;stroke-dashoffset:0;stroke-opacity:1" />
        <path
           id="path4471-5"
           d="m 179.30455,941.14863 c 2.11993,0.0314 4.15608,0.47729 5.99515,1.39146 1.84427,0.91675 3.48662,2.30429 4.77451,4.18898 0.0894,0.13085 0.17705,0.26399 0.26284,0.3994 0.75368,2.00265 1.09258,4.236 1.02107,6.65595 -0.0768,2.59971 -0.62825,5.45788 -1.69223,8.55341 0.59692,-3.23315 0.63296,-6.06134 0.23489,-8.46014 -0.37037,-2.23192 -1.10979,-4.05396 -2.0822,-5.48298 -0.0434,-0.12155 -0.0886,-0.24186 -0.13553,-0.36092 -0.67138,-1.70269 -1.71362,-3.17303 -3.12054,-4.34847 -1.41068,-1.17859 -3.18135,-2.05306 -5.25796,-2.53669 z"
           style="display:inline;fill:#ffffff;fill-rule:evenodd;stroke:none;stroke-width:1px;stroke-linecap:butt;stroke-linejoin:miter;stroke-opacity:1" />
      </g>
    </g>
  </g>
</svg>
