<svg xmlns="http://www.w3.org/2000/svg" cursor="default" viewBox="0 0 256 256">
    <g>
        <g>
            <g transform="translate(0 -796.362)">
                <path fill="#ff8080" fill-rule="evenodd" stroke="#000" d="M115.102 866.539c10.954 29.36 10.697 45.45 10.598 82.754 3.562.777 9.6.744 12.375-.21 1.61-40.86-2.574-69.352-11.647-86.248z"/>
                <ellipse cx="116.002" cy="852.131" fill="#faa" stroke="#000" stroke-linecap="round" stroke-width="1.094" rx="21.078" ry="20.891"/>
                <path fill="#fff" fill-rule="evenodd" d="M118.688 834.73c1.467-.046 3.031.249 4.592.806.82.292 1.635.655 2.43 1.076.64.491 1.253 1.02 1.828 1.576 1.215 1.173 2.27 2.47 3.085 3.785.815 1.317 1.384 2.648 1.629 3.883-.452-1.166-1.206-2.363-2.161-3.5a19.82 19.82 0 0 0-3.401-3.168 19.773 19.773 0 0 0-1.882-1.228c-.633-.537-1.3-1.031-1.99-1.468-1.306-.826-2.708-1.456-4.13-1.763z"/>
                <path fill="#f55" fill-rule="evenodd" stroke="#000" stroke-width="1.406" d="M129.923 999.002c-13.011-8.907-31.89-25.39-32.477-44.703-.568-18.681 17.865-28.835 31.236-7.93 9.333-21.143 32.147-11.187 32.365 7.551.222 19.168-19.972 35.48-31.124 45.082z"/>
                <path fill="#ff2a2a" fill-rule="evenodd" d="M129.889 998.098c-18.349-12.37-39.184-34.53-29.369-55.846-.623 9.094 3.258 22.924 9.075 30.462 11.095 14.375 15.38 19.194 20.294 25.384z"/>
                <path fill="#fff" fill-rule="evenodd" d="M134.113 940.65c4.065-2.385 7.837-3.076 11.033-2.583 3.084.476 5.645 2.05 7.534 4.305l.21.202c2.19 2.158 3.828 5.245 4.544 8.972.716 3.72.505 8.04-.965 12.594 1.799-4.426 2.405-8.795 2.013-12.746-.391-3.943-1.784-7.504-4.023-10.24a15.403 15.403 0 0 0-.216-.259c-2.486-2.374-5.59-3.763-8.991-3.915-3.501-.157-7.293.993-11.139 3.67zM106.072 938.64a6.582 6.582 0 0 1 2.587-1.285c.928-.233 1.915-.286 2.92-.19 1.535.148 3.131.645 4.65 1.403.496.182.99.392 1.476.628 2.051.992 3.969 2.435 5.414 4.166 1.44 1.725 2.425 3.754 2.58 5.931.063-2.196-.718-4.372-2.058-6.326-1.334-1.948-3.211-3.656-5.309-4.922a17.939 17.939 0 0 0-1.531-.827c-1.746-.625-3.53-.945-5.199-.884-1.095.04-2.133.243-3.073.626-.94.382-1.77.94-2.457 1.68z"/>
            </g>
        </g>
    </g>
</svg>
