<?xml version="1.0" encoding="UTF-8" standalone="no"?>
<!-- Created with Inkscape (http://www.inkscape.org/) -->

<svg
   xmlns:dc="http://purl.org/dc/elements/1.1/"
   xmlns:cc="http://creativecommons.org/ns#"
   xmlns:rdf="http://www.w3.org/1999/02/22-rdf-syntax-ns#"
   xmlns:svg="http://www.w3.org/2000/svg"
   xmlns="http://www.w3.org/2000/svg"
   xmlns:xlink="http://www.w3.org/1999/xlink"
   xmlns:sodipodi="http://sodipodi.sourceforge.net/DTD/sodipodi-0.dtd"
   xmlns:inkscape="http://www.inkscape.org/namespaces/inkscape"
   viewBox="0 0 256 256"
   id="svg4166"
   version="1.1"
   inkscape:version="0.91 r13725"
   sodipodi:docname="sock_kneehigh_socks.svg">
  <style
     id="style3">
    svg { cursor: default; }
  </style>
  <defs
     id="defs4168">
    <linearGradient
       inkscape:collect="always"
       id="linearGradient6">
      <stop
         style="stop-color:#ff8080;stop-opacity:1"
         offset="0"
         id="stop4238" />
      <stop
         style="stop-color:#ff5555;stop-opacity:1"
         offset="1"
         id="stop4240" />
    </linearGradient>
    <linearGradient
       inkscape:collect="always"
       id="linearGradient4">
      <stop
         style="stop-color:#ff8080;stop-opacity:1"
         offset="0"
         id="stop4230" />
      <stop
         style="stop-color:#ff5555;stop-opacity:1"
         offset="1"
         id="stop4232" />
    </linearGradient>
    <linearGradient
       inkscape:collect="always"
       id="linearGradient2">
      <stop
         style="stop-color:#ff8080;stop-opacity:1;"
         offset="0"
         id="stop4222" />
      <stop
         style="stop-color:#ffaaaa;stop-opacity:1"
         offset="1"
         id="stop4224" />
    </linearGradient>
    <inkscape:path-effect
       effect="powerstroke"
       id="path-effect4416"
       is_visible="true"
       offset_points="0.084694799,0.50738917"
       sort_points="true"
       interpolator_type="Linear"
       interpolator_beta="0.2"
       start_linecap_type="zerowidth"
       linejoin_type="round"
       miter_limit="4"
       end_linecap_type="zerowidth"
       cusp_linecap_type="round" />
    <inkscape:path-effect
       effect="powerstroke"
       id="path-effect4202"
       is_visible="true"
       offset_points="0,0.5"
       sort_points="true"
       interpolator_type="Linear"
       interpolator_beta="0.2"
       start_linecap_type="zerowidth"
       linejoin_type="round"
       miter_limit="4"
       end_linecap_type="zerowidth"
       cusp_linecap_type="round" />
    <inkscape:path-effect
       effect="powerstroke"
       id="path-effect4610"
       is_visible="true"
       offset_points="0.089858733,0.1462269"
       sort_points="true"
       interpolator_type="Linear"
       interpolator_beta="0.2"
       start_linecap_type="zerowidth"
       linejoin_type="round"
       miter_limit="4"
       end_linecap_type="zerowidth"
       cusp_linecap_type="round" />
    <inkscape:path-effect
       effect="powerstroke"
       id="path-effect4606"
       is_visible="true"
       offset_points="0.29328208,0.12562291"
       sort_points="true"
       interpolator_type="Linear"
       interpolator_beta="0.2"
       start_linecap_type="zerowidth"
       linejoin_type="round"
       miter_limit="4"
       end_linecap_type="zerowidth"
       cusp_linecap_type="round" />
    <inkscape:path-effect
       effect="powerstroke"
       id="path-effect4584-7"
       is_visible="true"
       offset_points="0.52899141,0.21496312"
       sort_points="true"
       interpolator_type="Linear"
       interpolator_beta="0.2"
       start_linecap_type="zerowidth"
       linejoin_type="round"
       miter_limit="4"
       end_linecap_type="zerowidth"
       cusp_linecap_type="round" />
    <inkscape:path-effect
       effect="powerstroke"
       id="path-effect4584"
       is_visible="true"
       offset_points="0.52899141,0.21496312"
       sort_points="true"
       interpolator_type="Linear"
       interpolator_beta="0.2"
       start_linecap_type="zerowidth"
       linejoin_type="round"
       miter_limit="4"
       end_linecap_type="zerowidth"
       cusp_linecap_type="round" />
    <inkscape:path-effect
       effect="powerstroke"
       id="path-effect4584-79"
       is_visible="true"
       offset_points="0.52899141,0.21496313"
       sort_points="true"
       interpolator_type="Linear"
       interpolator_beta="0.2"
       start_linecap_type="zerowidth"
       linejoin_type="round"
       miter_limit="4"
       end_linecap_type="zerowidth"
       cusp_linecap_type="round" />
    <inkscape:path-effect
       effect="powerstroke"
       id="path-effect4584-7-5"
       is_visible="true"
       offset_points="0.52899141,0.21496313"
       sort_points="true"
       interpolator_type="Linear"
       interpolator_beta="0.2"
       start_linecap_type="zerowidth"
       linejoin_type="round"
       miter_limit="4"
       end_linecap_type="zerowidth"
       cusp_linecap_type="round" />
    <inkscape:path-effect
       effect="powerstroke"
       id="path-effect4606-3"
       is_visible="true"
       offset_points="0.29328208,0.12562291"
       sort_points="true"
       interpolator_type="Linear"
       interpolator_beta="0.2"
       start_linecap_type="zerowidth"
       linejoin_type="round"
       miter_limit="4"
       end_linecap_type="zerowidth"
       cusp_linecap_type="round" />
    <inkscape:path-effect
       effect="powerstroke"
       id="path-effect4610-4"
       is_visible="true"
       offset_points="0.089858733,0.1462269"
       sort_points="true"
       interpolator_type="Linear"
       interpolator_beta="0.2"
       start_linecap_type="zerowidth"
       linejoin_type="round"
       miter_limit="4"
       end_linecap_type="zerowidth"
       cusp_linecap_type="round" />
    <linearGradient
       inkscape:collect="always"
       xlink:href="#linearGradient4"
       id="linearGradient5"
       x1="98.742409"
       y1="821.79486"
       x2="98.742409"
       y2="828.36078"
       gradientUnits="userSpaceOnUse" />
    <linearGradient
       inkscape:collect="always"
       xlink:href="#linearGradient6"
       id="linearGradient7"
       x1="166.5489"
       y1="824.32025"
       x2="165.53874"
       y2="834.04297"
       gradientUnits="userSpaceOnUse" />
    <linearGradient
       gradientTransform="translate(0.0431823,-795.99538)"
       inkscape:collect="always"
       xlink:href="#linearGradient2"
       id="linearGradient1-3"
       x1="105.05586"
       y1="1010.4409"
       x2="100.76272"
       y2="846.79614"
       gradientUnits="userSpaceOnUse" />
  </defs>
  <sodipodi:namedview
     id="base"
     pagecolor="#ffffff"
     bordercolor="#666666"
     borderopacity="1.0"
     inkscape:pageopacity="0.0"
     inkscape:pageshadow="2"
     inkscape:zoom="1.979899"
     inkscape:cx="108.25717"
     inkscape:cy="225.03967"
     inkscape:document-units="px"
     inkscape:current-layer="layer1"
     showgrid="false"
     units="px"
     inkscape:window-width="1895"
     inkscape:window-height="1134"
     inkscape:window-x="25"
     inkscape:window-y="0"
     inkscape:window-maximized="1" />
  <metadata
     id="metadata4171">
    <rdf:RDF>
      <cc:Work
         rdf:about="">
        <dc:format>image/svg+xml</dc:format>
        <dc:type
           rdf:resource="http://purl.org/dc/dcmitype/StillImage" />
        <dc:title />
      </cc:Work>
    </rdf:RDF>
  </metadata>
  <g
     inkscape:groupmode="layer"
     id="layer2"
     inkscape:label="Layer 2">
    <path
       transform="translate(0,-796.36216)"
       style="display:inline;fill:url(#linearGradient5);fill-rule:evenodd;stroke:#000000;stroke-width:1px;stroke-linecap:butt;stroke-linejoin:miter;stroke-opacity:1;fill-opacity:1"
       d="m 76.741072,822.31752 c 0.498887,-3.27086 41.428578,-3.6756 41.428578,0.89285 -0.71159,8.30843 -12.0387,10.35714 -17.99108,15.44643 -7.648807,-5.625 -23.283678,-6.55531 -23.437498,-16.33928 z"
       id="path4204"
       inkscape:connector-curvature="0"
       sodipodi:nodetypes="cccc" />
    <path
       transform="translate(0,-796.36216)"
       style="display:inline;fill:url(#linearGradient7);fill-rule:evenodd;stroke:#000000;stroke-width:1px;stroke-linecap:butt;stroke-linejoin:miter;stroke-opacity:1;fill-opacity:1"
       d="m 144.70057,824.58254 c 1.21213,-4.21327 41.19926,-1.9573 42.24299,3.40911 -0.30027,12.31797 -14.02689,6.40783 -20.96142,9.81694 -7.08333,-4.16667 -21.48636,-1.68944 -21.28157,-13.22605 z"
       id="path4206"
       inkscape:connector-curvature="0"
       sodipodi:nodetypes="cccc" />
  </g>
  <g
     inkscape:groupmode="layer"
     id="layer3"
     inkscape:label="patternLayer"
     style="display:inline">
    <path
       style="display:inline;fill:url(#linearGradient1-3);fill-opacity:1;fill-rule:evenodd;stroke:#000000;stroke-width:1px;stroke-linecap:butt;stroke-linejoin:miter;stroke-opacity:1"
       d="m 76.777344,26.082031 c 1.46339,24.20117 -3.579856,51.738336 -1.857422,71.691407 1.94307,22.508892 9.741019,44.249312 12.880859,66.164062 2.2181,15.48148 -0.305303,17.04584 0.378907,22.98047 0.444579,3.85612 3.158043,8.40378 4.376953,13.82812 1.15693,5.14836 0.803263,11.14366 1.808593,16.03516 0.62407,3.0365 1.71718,6.81576 2.25,10.34766 0.63055,4.1797 0.705223,8.01267 1.539063,9.85547 1.855613,4.10079 24.725393,13.37197 36.492183,8.01757 2.59669,-1.1816 -0.26112,-7.02431 -1.26367,-10.35351 -0.72766,-2.4164 -0.77195,-4.95644 -1.97851,-7.18164 -1.58334,-2.9201 -4.41318,-5.49277 -5.84961,-8.47657 -3.5787,-7.4339 -6.3582,-11.17509 -10.40039,-22.45898 -1.88112,-5.25127 -1.9314,-10.59691 -3.01172,-14.72266 -1.19956,-4.58113 -2.95812,-6.61459 -4.07617,-11.3789 -1.73481,-7.3925 -1.79768,-19.10363 -1.45118,-26.44336 0.3919,-8.30122 3.05118,-22.1572 4.00586,-38.02344 1.22665,-20.386059 0.0313,-41.423407 0.53907,-47.585937 0.36181,-4.39115 5.47146,-19.342698 6.81836,-29.798828 -11.63368,9.65382 -39.085066,2.578696 -41.201176,-2.496094 z m 67.970706,3.126953 c -0.49669,10.42173 0.14252,12.575635 -1.75782,30.015625 -1.41514,12.98721 -10.54496,21.174979 -10.93945,39.455079 -0.58758,27.228332 1.79613,62.388672 -12.61523,79.957032 -3.21971,3.92503 -5.10062,7.06648 -2.00782,13.1582 3.67443,7.23732 11.92019,11.21887 15.34571,20.39063 2.70099,7.2318 4.85966,19.30257 6.78711,21.63867 4.56845,5.5368 15.01974,6.12296 24.78906,5.59766 3.2757,-0.1761 5.12625,-1.04433 4.82227,-6.36133 -0.087,-1.5214 -2.70477,-5.82032 -6.40821,-8.32032 -2.68639,-1.8135 -6.64438,-3.90007 -7.4707,-7.85937 -1.15039,-5.512 -1.63548,-12.17876 -2.28906,-17.22852 -0.78189,-6.0413 -3.01767,-11.17473 -2.98047,-16.76367 0.0684,-10.28569 0.76067,-10.85147 4.84179,-29.91406 4.65607,-21.74814 12.64854,-34.81353 19.01758,-63.750001 3.23791,-14.71072 10.18353,-36.826542 12.1543,-43.726562 1.17059,-4.09842 1.53148,-8.362589 1.00977,-12.880859 -7.17812,3.29326 -31.05833,5.513866 -42.29883,-3.408204 z"
       id="path4200-6"
       inkscape:connector-curvature="0" />
  </g>
  <g
     inkscape:label="Layer 1"
     inkscape:groupmode="layer"
     id="layer1"
     transform="translate(0,-796.36216)"
     style="display:inline">
    <path
       style="fill:none;fill-opacity:1;fill-rule:evenodd;stroke:#000000;stroke-width:1px;stroke-linecap:butt;stroke-linejoin:miter;stroke-opacity:1"
       d="m 117.93531,824.57276 c -1.3469,10.45613 -6.45672,25.40835 -6.81853,29.7995 -0.50776,6.16253 0.68705,27.20011 -0.5396,47.58617 -0.95468,15.86624 -3.61419,29.72304 -4.00609,38.02426 -0.3465,7.33973 -0.28324,19.0498 1.45157,26.4423 1.11805,4.76431 2.8767,6.79864 4.07626,11.37977 1.08032,4.12575 1.13079,9.47031 3.01191,14.72158 4.04219,11.28396 6.82192,15.02626 10.40062,22.46016 1.43643,2.9838 4.26543,5.5564 5.84877,8.4765 1.20656,2.2252 1.25226,4.7645 1.97992,7.1809 1.00255,3.3292 3.85938,9.1724 1.26269,10.354 -11.76679,5.3544 -34.636139,-3.9172 -36.491764,-8.018 -0.833841,-1.8428 -0.908097,-5.6753 -1.53865,-9.855 -0.532818,-3.5319 -1.625349,-7.3116 -2.249422,-10.3481 -1.005326,-4.8915 -0.651718,-10.8863 -1.808651,-16.03478 -1.21891,-5.42429 -3.933954,-9.97173 -4.378533,-13.82785 -0.684214,-5.93463 1.839298,-7.49949 -0.378808,-22.98097 -3.139831,-21.91475 -10.93638,-43.6561 -12.879445,-66.16499 -1.722435,-19.95307 3.320403,-47.49004 1.857008,-71.69121 2.116107,5.07479 29.567065,12.14958 41.200745,2.49576 z"
       id="path4200"
       inkscape:connector-curvature="0"
       sodipodi:nodetypes="cssssssssssssssssscc" />
    <path
       style="fill:none;fill-opacity:1;fill-rule:evenodd;stroke:#000000;stroke-width:1px;stroke-linecap:butt;stroke-linejoin:miter;stroke-opacity:1"
       d="m 144.70435,825.20411 c 11.2405,8.92207 35.12203,6.70252 42.30014,3.40926 0.52171,4.51827 0.16044,8.78102 -1.01015,12.87944 -1.97077,6.90002 -8.91716,29.01577 -12.15506,43.72649 -6.36904,28.93647 -14.36178,42.00186 -19.01785,63.75 -4.08112,19.06259 -4.77284,19.62952 -4.84123,29.91521 -0.0372,5.58894 2.19849,10.72226 2.98038,16.76353 0.65358,5.04986 1.13971,11.71616 2.2901,17.22816 0.82632,3.9593 4.78298,6.0455 7.46937,7.859 3.70344,2.5 6.32177,6.7993 6.40876,8.3207 0.30399,5.317 -1.54759,6.1857 -4.82329,6.3618 -9.76932,0.5253 -20.22048,-0.062 -24.78893,-5.5988 -1.92745,-2.3361 -4.08473,-14.406 -6.78572,-21.6378 -3.42552,-9.1718 -11.67188,-13.15423 -15.34631,-20.39155 -3.0928,-6.09172 -1.21209,-9.23323 2.00762,-13.15826 14.41136,-17.56836 12.02785,-52.72835 12.61543,-79.95668 0.39449,-18.2801 9.52368,-26.4681 10.93882,-39.45531 1.90034,-17.43999 1.26123,-19.59346 1.75792,-30.01519 z"
       id="path4202"
       inkscape:connector-curvature="0"
       sodipodi:nodetypes="ccsssssssssssssssc" />
    <path
       style="fill:none;fill-rule:evenodd;stroke:#000000;stroke-width:0.5;stroke-linecap:butt;stroke-linejoin:miter;stroke-miterlimit:4;stroke-dasharray:none;stroke-opacity:1"
       d="m 76.834728,833.97981 c 4.308017,5.77217 31.468032,8.31426 38.448932,2.77791"
       id="path4208"
       inkscape:connector-curvature="0"
       sodipodi:nodetypes="cc" />
    <path
       style="fill:none;fill-rule:evenodd;stroke:#000000;stroke-width:0.5;stroke-linecap:butt;stroke-linejoin:miter;stroke-miterlimit:4;stroke-dasharray:none;stroke-opacity:1"
       d="m 144.45181,837.76788 c 12.37434,5.80473 29.64287,7.20676 41.73193,3.03046"
       id="path4210"
       inkscape:connector-curvature="0"
       sodipodi:nodetypes="cc" />
  </g>
</svg>
