<svg xmlns="http://www.w3.org/2000/svg" cursor="default" viewBox="0 0 256 256">
    <g stroke="#000">
        <path fill="#ff8080" fill-rule="evenodd" d="M76.706 203.442c8.913 34.728 36.06 16.538 40.464 7.933 0 0 15.678-34.147 25.603-50.037 5.05-8.087 13.257-16.595 16.235-22.466 2.3-4.532-.102-10.925.19-16.376 1.515-28.258 5.76-75.141 5.81-87.24-15.22-.742-29.185-1.722-43.726-2.724-2.448 28.327-4.98 68.177-8.766 84.709-3.882 16.951-13.962 33.542-22.395 50.562-6.752 13.625-12.385 28.715-13.415 35.639z"/>
        <path fill="none" stroke-width=".5" d="M76.707 203.313c3.592.053 22.241.842 23.253 3.514M159.537 137.071c-6.444-5.88-13.95-7.197-22.395-9.4"/>
        <path fill="#f55" fill-rule="evenodd" d="M122.18 18.067c-.838 1.41-1.85 15.504-1.179 16.393.852 1.129 10.643 1.19 20.182 1.592 11.827.498 23.39 2.762 23.975.996.42-1.27.97-14.03.184-15.414-.582-1.026-12.333-1.949-23.111-2.919-9.73-.875-19.203-2.074-20.051-.648z"/>
        <g>
            <path fill="#ff8080" fill-rule="evenodd" d="M101.374 218.74c8.913 34.729 36.061 16.538 40.464 7.933 0 0 15.678-34.146 25.603-50.037 5.051-8.087 13.258-16.594 16.236-22.466 2.299-4.532-.102-10.925.19-16.376 1.515-28.258 5.76-75.141 5.81-87.24-15.22-.742-29.185-1.722-43.726-2.724-2.449 28.327-4.98 68.177-8.767 84.709-3.882 16.951-13.961 33.543-22.395 50.562-6.751 13.625-12.384 28.716-13.415 35.639z"/>
            <path fill="none" stroke-width=".5" d="M101.376 218.612c3.591.052 22.24.841 23.252 3.513M184.206 152.37c-6.445-5.88-13.95-7.198-22.396-9.401"/>
            <path fill="#f55" fill-rule="evenodd" d="M146.848 33.366c-.838 1.41-1.849 15.503-1.178 16.392.852 1.129 10.642 1.19 20.182 1.592 11.827.498 23.39 2.762 23.975.996.42-1.27.97-14.03.184-15.414-.583-1.026-12.333-1.949-23.112-2.918-9.73-.876-19.203-2.075-20.05-.648z"/>
        </g>
    </g>
</svg>
