<svg xmlns="http://www.w3.org/2000/svg" cursor="default" viewBox="0 0 256 256">
    <g stroke="#000">
        <path fill="#ff2a2a" fill-rule="evenodd" stroke-width=".98" d="M182.603 3.494l3.094.62-5.693 51.972-3.464-.99c3.647-16.018 4.07-34.38 6.063-51.602zM73.09 2.752c2.728 19.746 3.65 27.987 8.353 50.735l-1.98.866-9.838-51.106z"/>
        <path fill="#faa" fill-rule="evenodd" stroke-width=".98" d="M66.903 186.759c-1.181 4.26-1.953 9.643-2.475 15.715 11.266 25.003 25.648 25.387 38.484 37.99zM187.615 181.871l-36.938 57.479c5.249 1.093 35.052-29.56 40.464-38.237-1.633-6.623-3.526-19.242-3.526-19.242z"/>
        <path fill="#ff8080" fill-rule="evenodd" stroke-width=".98" d="M72.741 55.337l2.947-1.603-.247-2.722-2.416-48.319s-2.689-.282-3.88.904l3.697 48.157c.055 1.018-.048 2.351-.1 3.583zM182.48 55.096c.494.247 2.598 1.856 2.598 1.856-1.086-19.013.99-35.391 1.485-53.086l-3.589-.248c.286 16.859-.324 34.315-.495 51.478zM130.566 254.807c-2.3.397-9.026.083-11.288-.263-2.305-.352-11.233-8.884-16.6-14.18C84.54 222.462 65.99 187.382 67.15 186.51c-.145-16.416 14.82-38.928 15.035-56.056.21-16.756-5.73-26.715-6.497-42.01l51.23-10.952h3.341l49.003 16.83c-.178 5.148-7.865 30.954-6.064 44.918 1.697 13.145 15.012 33.563 14.479 42.816-3.322 8.987-24.203 47.11-37.619 57.912-6.36 5.121-13.815 13.858-19.492 14.838z"/>
        <path fill="none" stroke-width=".49" d="M81.319 212.498c15.422-56.124 23.886-72.989 13.55-111.989M162.928 101.128c-18.176 52.26.968 64.652 8.043 112.236"/>
        <path fill="#f55" fill-rule="evenodd" stroke-width=".98" d="M68.759 62.396c-.611 9.479 3.608 17.515 5.568 24.873 14.488 28.308 51.333 3.733 50.364-10.642-13.357-44.71-46.777-27.606-55.932-14.23zM182.232 88.878c2.64-8.168 6.882-15.053 7.92-24.502-29.611-33.373-52.872-5.134-57.48 12.127 14.07 37.12 44.61 23.903 49.56 12.375z"/>
        <path fill="#faa" fill-rule="evenodd" stroke-width=".98" d="M129.27 76.998c1.1-.853 2.109-1.07 3.093-1.114 8.68 19.715 31.963 33.124 49.869 13.117.14-.32.423 1.616-.866 2.723-7.402 12.591-33.764 18.89-52.097-14.726zM74.237 87.419c-.8.283.763 3.46 1.75 4.567 14.491 13.671 35.709 12.682 52.045-14.555-.933-1.618-2.515-1.503-3.589-1.299-10.765 24.316-36.282 26.517-50.206 11.287z"/>
        <path fill="none" stroke-width=".98" d="M73.12 57.818c-2.388-1.272 2.065-6.288 3.125-2.784M181.578 56.182c2.378-2.296 4.658 2.004 3.238 2.887"/>
    </g>
</svg>
