<svg xmlns="http://www.w3.org/2000/svg" cursor="default" viewBox="0 0 256 256">
    <g fill-rule="evenodd">
        <path fill="#808080" stroke="#000" stroke-width=".9703" d="M14.482 78.922L11.296 54.91l-7.84-12.007 221.376-1.948-5.009 17.63c-67.846 8.17-130.92 27.376-205.341 20.338z"/>
        <path fill="#333" d="M53.033 79.72c-2.257-4.812-4.894-7.848-7.517-10.094-2.576-2.205-5.222-3.707-7.51-5.406 2.028 2.288 4.082 4.037 6.22 6.665 2.049 2.517 3.948 5.609 5.46 10.18z"/>
        <path fill="#808080" stroke="#000" stroke-width=".9703" d="M10.806 202.911l-3.623 12.867 246.144-.395-7.04-23.008z"/>
        <path fill="#ff8080" stroke="#000" stroke-width=".9703" d="M125.245 201.449l-112.761 2.574 54.926-21.45z"/>
        <path fill="#faa" stroke="#000" stroke-width=".9703" d="M243.614 181.97c.98.98 3.745 13.776 3.745 13.776l-124.08 4.96c38.286-11.167 72.25-33.983 120.335-18.737z"/>
        <path fill="#ff8080" stroke="#000" stroke-width=".9703" d="M221.293 177.427l-96.3 24.014L57.119 188.7l55.501-18.008z"/>
        <path fill="#faa" stroke="#000" stroke-width=".9703" d="M234.959 146.501s8.442 26.477 9.074 38.045L79.662 169.83c50.344-11.218 100.67-22.48 155.297-23.33z"/>
        <path fill="#ff8080" stroke="#000" stroke-width=".9703" d="M22.813 116.903c-.49 9.557-2.757 24.933-2.757 24.933 90.57 9.931 165.65-14.668 205.43-31.102-1.054-12.284-3.457-20.67-5.476-30.168-67.09 24.31-132.875 38.778-197.197 36.337z"/>
        <path fill="#faa" stroke="#000" stroke-width=".9703" d="M18.402 99.996c2.008 9.376 2.697 15.151 3.737 23.523 66.874-1.709 134.125-13.977 198.433-40.43.604-6.932-.662-13.396-.994-20.094z"/>
        <path fill="#ff8080" stroke="#000" stroke-width=".9703" d="M229.508 123.274c3.986 7.93 4.571 16.343 5.938 24.058-35.461 7.42-70.392 8.967-106.297 11.95 2.293-23.929 66.933-25.783 100.36-36.008z"/>
        <path fill="#faa" stroke="#000" stroke-width=".9703" d="M225.214 108.327c2.27 5.333 3.887 11.534 5.478 17.773-35.134 14.092-74.983 25.563-122.116 33.195l-58.564-13.232zM90.443 165.42l23.789 7.713-104.65 33.454 3.675-22.544z"/>
        <path fill="#ff8080" stroke="#000" stroke-width=".9703" d="M19.97 141.08c.244.98-7.448 45.659-7.448 45.659 49.3-10.096 98.211-22.145 147.93-30.152zM13.848 76.544l5.575 30.129c87.198-3.734 151.007-25.489 200.632-34.165.083-10.391 2.835-19.841 4.353-29.721-22.242 13.346-115.999 33.32-210.56 33.757z"/>
        <path fill="#333" d="M8.478 45.107a75.901 75.901 0 0 1 3.324 2.314c12.577 3.723 21.249 8.683 32.084 13.614-10.31-5.581-18.828-11.385-31.317-15.938a170.24 170.24 0 0 0-4.09.01zM202.736 40.94c-.807.166-1.559.286-2.271.376-2.043 1.681-3.399 2.847-4.627 4.266-1.51 1.746-2.82 3.866-5.162 7.886 2.687-3.846 4.271-5.673 5.967-7.064 1.355-1.11 2.813-1.968 5.048-3.406.304-.65.652-1.336 1.045-2.057z"/>
    </g>
</svg>
