<svg xmlns="http://www.w3.org/2000/svg" xmlns:xlink="http://www.w3.org/1999/xlink" cursor="default" viewBox="0 0 256 256">
    <defs>
        <linearGradient id="innoGrad3">
            <stop offset="0" stop-opacity=".251"/>
            <stop offset="1" stop-color="#ff8080" stop-opacity="0"/>
        </linearGradient>
        <linearGradient id="innoGrad2">
            <stop offset="0" stop-opacity=".251"/>
            <stop offset="1" stop-opacity="0"/>
        </linearGradient>
        <linearGradient id="innoGrad1">
            <stop offset="0" stop-opacity="0"/>
            <stop offset="1" stop-opacity=".251"/>
        </linearGradient>
        <linearGradient id="linearGradient4608" x1="-93.036" x2="-117.321" y1="110.821" y2="98.857" gradientTransform="translate(245.972 -19.193)" gradientUnits="userSpaceOnUse" xlink:href="#innoGrad1"/>
        <linearGradient id="linearGradient4626" x1="-86.607" x2="-118.571" y1="122.786" y2="128.5" gradientTransform="translate(245.972 -19.193)" gradientUnits="userSpaceOnUse" xlink:href="#innoGrad2"/>
        <linearGradient id="linearGradient4680" x1="-106.95" x2="-109.349" y1="66.218" y2="42.353" gradientTransform="translate(245.972 -19.193)" gradientUnits="userSpaceOnUse" xlink:href="#innoGrad3"/>
    </defs>
    <path fill="#ffe680" fill-rule="evenodd" stroke="#000" stroke-width=".5" d="M166.423 94.818l-.947 2.525c-.095.713-.89 1.26 1.515.473-.033 1.676 1.04.22 1.704.19.982 1.142 1.43.132 1.61-.568 1.124 1.24 1.716-.216 1.579-.474 2.552.44 2.283-1.29 1.894-1.894.693.424 1.384.836 1.83-.631.707-.218 1.243.146.411-.979 1.126.582 1.547.239 1.326-.947 1.806-.368-.014-.693-1.105-.978-.985-.5-1.227-.453-2.21-.947-4.085-.37-5.71 2.085-7.607 4.23zM81.727 92.14c-1.597.072-3.028.56-4.387 1.225-.305.506-.823 1.01.126 1.516-.106.775 0 1.359 1.073 1.073.128.781.609 1.372 2.273 1.326-.108 2.099 1.143 1.221 1.831 1.578.04.845.179 1.57 1.39 1.01.37.477.23 1.692 1.577.758.334 1.733 1.044.74 2.027.85.4.58.863.729 1.383.476.921-.11 1.455.459 2.268-.732.777.298 1.08-.066 1.267-.594l-1.704-3.788c-.83-3.55-3.775-4.956-9.124-4.698z"/>
    <path fill="#ff8080" fill-rule="evenodd" stroke="#000" stroke-width=".5" d="M153.606 20.78c.772-.962 1.772-.397 4.545 1.862 2.106 1.716-2.042 21.21-.215 36.219.811.532.823 1.104.447 1.696.907.89 2.016 1.702.446 3.572 2.552 3.958 5.129 7.916 6.697 11.875L158.74 80.2l-10.357-18.66c1.74-13.587 2.948-27.233 5.223-40.76z"/>
    <path fill="#ffb380" fill-rule="evenodd" stroke="#000" stroke-width=".5" d="M155.88 80.044c1.883-3.138 3.957-6.146 11.363-5.493l7.008 16.1c-2.233.24-4.978 2.272-7.702 4.23z"/>
    <path fill="#f55" fill-rule="evenodd" stroke="#000" stroke-width=".5" d="M92.624 130.021c-.934 2.755 6.376 6.596 10.312 9.643l3.929-15.535z"/>
    <path fill="#faa" fill-rule="evenodd" stroke="#000" stroke-width=".5" d="M99.945 114.53l-7.366 15.447c5.006.765 9.935-1.444 14.822-5.313l1.785-7.321z"/>
    <path fill="#f55" fill-rule="evenodd" stroke="#000" stroke-width=".5" d="M97.58 110.245c-3.274 4.345 10.133 7.619 10.803 10.401l4.42-16.517c-4.762 2.038-13 3.41-15.224 6.116z"/>
    <path fill="#faa" fill-rule="evenodd" stroke="#000" stroke-width=".5" d="M104.99 98.012c-2.725 4.166-5.745 8.184-7.812 12.679 1.823-1.668 9.53-.841 16.116-4.732z"/>
    <path fill="#f55" fill-rule="evenodd" stroke="#000" stroke-width=".5" d="M103.294 98.057c3.453 3.932 6.082 5.39 9.107 8.036l2.812-10.848c-3.797.567-10.576-1.062-11.92 2.812z"/>
    <path fill="#faa" fill-rule="evenodd" stroke="#000" stroke-width=".5" d="M125.754 67.345l-8.71 29.998c-7.01-1.196-12.428-1.529-13.75.357 6.114-9.935 13.825-20.084 22.46-30.355z"/>
    <path fill="#f55" fill-rule="evenodd" stroke="#000" stroke-width=".5" d="M125.08 205.468c3.314-49.095 10.252-97.34 16.428-145.09l-13.393 1.25c-19.86 49.455-4.513 96.093-3.036 143.84z"/>
    <path fill="url(#linearGradient4608)" fill-rule="evenodd" d="M125.08 205.468c3.314-49.095 10.252-97.34 16.428-145.09l-13.393 1.25c-19.86 49.455-4.513 96.093-3.036 143.84z"/>
    <path fill="none" stroke="#000" stroke-width=".5" d="M167.936 76.584c-6.39-.369-9.794 3.459-10.49 4.509"/>
    <path fill="#f55" fill-rule="evenodd" stroke="#000" stroke-width=".5" d="M140.794 60.914c1.42 10.071-13.642 93.427-11.429 184.286 3.579.294 8.81.66 13.03-.262 4.158.961 8.36 1.523 12.684.976 7.046-66.464 14.768-157.328-7.5-185.714z"/>
    <path fill="url(#linearGradient4626)" fill-rule="evenodd" d="M140.794 60.914c1.42 10.071-13.642 93.427-11.429 184.286 3.579.294 8.81.66 13.03-.262 4.158.961 8.36 1.523 12.684.976 7.046-66.464 14.768-157.328-7.5-185.714z"/>
    <path fill="#ff2a2a" fill-rule="evenodd" stroke="#000" stroke-width=".5" d="M125.259 67.796c10.597-4.015 17.42-6.643 25.127-3.22-6.725-5.118 4.342-51.86-16.937-52.435-19.486-.528-5.163 50.941-8.19 55.655z"/>
    <path fill="url(#linearGradient4680)" fill-rule="evenodd" d="M125.259 67.796c10.597-4.015 17.42-6.643 25.127-3.22-6.725-5.118 4.342-51.86-16.937-52.435-19.486-.528-5.163 50.941-8.19 55.655z"/>
    <path fill="#ff8080" fill-rule="evenodd" stroke="#000" stroke-width=".5" d="M125.526 66.762c3.586-2.392 7.248-4.134 11.071-4.508-12.142 8.72-13.802 17.374-13.75 25.446.354 54.762 3.743 104.094 5.804 164.286-4.345 1.907-8.81 2.259-13.393 1.071-8.97-.546-17.811-1.998-15.714-5.893.763-1.418-1.293-2.002-2.5-1.607-4.344 1.422-8.165 2.25-11.429-.714l1.607-5.714c-6.944.582-13.396 1.01-18.616-2.545 4.78-30.453 23.347-56.812 43.68-134.739 2.997-11.484 9.34-21.538 13.24-35.083zM144.767 61.093c13.599 9.353 13.317 23.057 11.802 64.817-1.394 38.423-5.712 85.29-4.347 120.183 2.155.948 4.25 1.624 6.072 1.071 5.4 3.794 7.904 3.112 9.274.525 6.59 1.53 5.959-.6 5.273-3.203 3.078.378 6.648 1.74 8.31-.715-16.488-91.071-9.795-148.252-31.965-181.964z"/>
    <path fill="#ff8080" fill-rule="evenodd" stroke="#000" stroke-width=".5" d="M143.919 16.271c3.442 1.564 5.955 3.552 9.776 4.51-2.87 20.303-4.43 39.315-3.259 43.258-1.27-.965-3.998-2.645-8.861-2.165l-1.243-18.297c1.28-9.017 1.937-18.657 3.587-27.306z"/>
    <path fill="#ff8080" fill-rule="evenodd" stroke="#000" stroke-width=".5" d="M111.508 21.45c3.312-1.535 7.182-3.21 11.16-4.91l5 4.196c1.574 8.884 8.465 15.995 12.712 23.988l1.351 17.15c-5.879.475-12.688 2.755-16.205 5.38-.578-9.674-6.247-15.67-9.375-25.447z"/>
    <path fill="#f95" fill-rule="evenodd" stroke="#000" stroke-width=".5" d="M148.115 9.843c.623-.034 2.427 12.077 2.279 12.196-2.625-2.062-4.585-3.458-6.743-5.053z"/>
    <path fill="#ff8080" fill-rule="evenodd" stroke="#000" stroke-width=".5" d="M112.847 20.557c-.419-1.44-7.056-2.091-7.158 2.742-.407 19.34-4.744 16.982-6.681 26.901-1.77 9.06-5.698 17.578-8.66 26.34l9.38 4.969c6.127-12.254 11.048-21.942 17.405-37.38-.263-4.862 2.878-14.495-4.286-23.572z"/>
    <path fill="#ffb380" fill-rule="evenodd" stroke="#000" stroke-width=".5" d="M139.674 43.362c-6.543-3.6-13.042-7.33-19.253-11.927 2.252-3.616 4.369-6.61 7.462-9.89 4.433 7.588 7.925 14.504 11.791 21.817zM143.74 21.629c.072-4.839 2.691-8.127 4.554-11.875-5.902-5.568-22.4-8.52-24.822-4.332l-.604 11.65c2.282-2.459 14.553-6.956 20.872 4.557z"/>
    <path fill="#ffb380" fill-rule="evenodd" stroke="#000" stroke-width=".5" d="M142.67 20.084l-2.323 23.33c3.132-4.982 7.748-9.221 11.786-13.75-3.333-3.622-6.667-6.573-9.464-9.58zM89.08 75.28c-1.835 5.524-4.095 11.159-7.48 17.038 4.097.788 7.082 2.464 9.395 4.679 3.203-5.205 6.72-10.274 10.755-15.122-.796-2.734-6.415-8.21-12.67-6.595z"/>
    <path fill="none" stroke="#000" stroke-width=".5" d="M77.713 93.325c-.517 1.513 2.236.596 2.277.536.106.397-.731 1.319 1.34.625.414.511.78 1.345 1.428.357-.924 1.38.286 1.441 1.83 1.294.203.781.18 1.48 1.518.625.28.705-.102 1.626 1.875 1.429.137.67-.56 1.478.714.67.223.492.59 1.983 1.384.759-.54 1.484.633 1.516 1.518 1.339M165.412 97.974c.44.338.846.337 1.407-.527.81.594 1.874-.12 2.16-.799 1.237.403 1.375-.208 1.547-.789.814.076 1.88.39 1.326-.82 1.274-.07 1.91-.521 1.926-1.01.849.05 1.452-.527 1.294-.98.645.148 2.494-.939 1.029-1.54"/>
    <path fill="#f95" fill-rule="evenodd" stroke="#000" stroke-width=".5" d="M127.905 21.628c-.292-2.748-.138-7.821-1.066-8.023l-3.813 3.916c1.926 1.08 3.625 2.354 4.879 4.107z"/>
    <path fill="#ffb380" fill-rule="evenodd" stroke="#000" stroke-width=".5" d="M122.311 24.664c1.532-4.13 2.474-11.061 4.911-10.893l-3.84-8.482c-3.646 3.514-3.724 8.628-5.178 13.125 1.25 2.188 2.235 4.607 4.107 6.25z"/>
    <path fill-rule="evenodd" d="M87.18 239.378l.252-.045c5.618-19.229 10.191-44.672 14.552-69.106 4.37-24.484 8.53-47.972 13.321-63.215-4.864 15.224-9.1 38.702-13.546 63.175-4.438 24.43-9.082 49.836-14.766 69.017l.187.174zM99.231 248.001c.08.037.167.065.257.085.209-.295.409-.833.614-1.555.227-.8.467-1.865.72-3.157.506-2.586 1.064-6.101 1.657-10.28 1.186-8.358 2.515-19.383 3.856-30.956 2.683-23.144 5.413-48.491 7.137-59.08-1.81 10.583-4.623 35.913-7.39 59.05-1.384 11.568-2.755 22.584-3.983 30.931-.613 4.174-1.19 7.677-1.715 10.247-.263 1.285-.51 2.332-.742 3.11-.215.72-.41 1.185-.565 1.392.055.067.108.139.154.213zM115.325 253.102l.28-.041c.778-19.542.259-58.42.546-88.754-.473 30.341-.14 69.211-1.102 88.73l.276.065zM158.273 247.328l.247-.062c-.808-25.049 1.513-48.196.863-75.058.48 26.69-1.998 50.153-1.36 75.072l.25.048zM167.533 247.821l.2-.051c-1.106-25.858-3.127-65.878-5.34-93.384 2.079 27.514 3.965 67.54 4.937 93.4l.203.035zM172.81 244.528l.275-.038c-.978-9.809-2.64-32.91-4.568-57.855-1.928-24.956-4.122-51.764-6.162-68.98 1.948 17.225 4.05 44.039 5.886 69.001 1.835 24.952 3.405 48.054 4.292 57.887l.277-.015zM142.4 244.875l.28-.006c-.37-23.727 1.273-58.29 1.18-82.04-.093 23.708-1.921 58.332-1.738 82.047h.279z"/>
    <path fill="none" stroke="#000" stroke-width=".25" d="M128.294 45.736l4.853 17.72"/>
    <path fill="#ff8080" fill-rule="evenodd" stroke="#000" stroke-width=".5" d="M151.46 30.477c.306 5.928 1.789 7.405 1.56 11.672-.207 3.842-2.84 5.454-3.12 8.695"/>
    <path fill="none" stroke="#000" stroke-width=".25" d="M150.316 45.232l-1.755 17.736"/>
    <path fill-rule="evenodd" d="M120.713 47.277a12.313 12.313 0 0 0 3.1 3.875 11.983 11.983 0 0 0 6.37 2.25 11.73 11.73 0 0 1-6.137-2.554 12.048 12.048 0 0 1-3.333-3.57z"/>
    <ellipse cx="136.244" cy="49.266" fill="#ffe680" stroke="#000" stroke-linecap="round" stroke-linejoin="round" stroke-width=".25" rx="1.517" ry="1.548"/>
    <ellipse cx="135.963" cy="48.972" fill="#333" stroke="#000" stroke-linecap="round" stroke-linejoin="round" stroke-width=".185" rx=".201" ry=".208"/>
    <ellipse cx="136.589" cy="48.966" fill="#333" stroke="#000" stroke-linecap="round" stroke-linejoin="round" stroke-width=".185" rx=".201" ry=".208"/>
    <ellipse cx="135.966" cy="49.6" fill="#333" stroke="#000" stroke-linecap="round" stroke-linejoin="round" stroke-width=".185" rx=".201" ry=".208"/>
    <ellipse cx="136.592" cy="49.594" fill="#333" stroke="#000" stroke-linecap="round" stroke-linejoin="round" stroke-width=".185" rx=".201" ry=".208"/>
    <ellipse cx="145.367" cy="48.619" fill="#ffe680" stroke="#000" stroke-linecap="round" stroke-linejoin="round" stroke-width=".25" rx="1.517" ry="1.548"/>
    <ellipse cx="145.086" cy="48.324" fill="#333" stroke="#000" stroke-linecap="round" stroke-linejoin="round" stroke-width=".185" rx=".201" ry=".208"/>
    <ellipse cx="145.712" cy="48.319" fill="#333" stroke="#000" stroke-linecap="round" stroke-linejoin="round" stroke-width=".185" rx=".201" ry=".208"/>
    <ellipse cx="145.089" cy="48.953" fill="#333" stroke="#000" stroke-linecap="round" stroke-linejoin="round" stroke-width=".185" rx=".201" ry=".208"/>
    <ellipse cx="145.715" cy="48.947" fill="#333" stroke="#000" stroke-linecap="round" stroke-linejoin="round" stroke-width=".185" rx=".201" ry=".208"/>
    <ellipse cx="145.762" cy="58.026" fill="#ffe680" stroke="#000" stroke-linecap="round" stroke-linejoin="round" stroke-width=".25" rx="1.517" ry="1.548"/>
    <ellipse cx="145.481" cy="57.732" fill="#333" stroke="#000" stroke-linecap="round" stroke-linejoin="round" stroke-width=".185" rx=".201" ry=".208"/>
    <ellipse cx="146.107" cy="57.726" fill="#333" stroke="#000" stroke-linecap="round" stroke-linejoin="round" stroke-width=".185" rx=".201" ry=".208"/>
    <ellipse cx="145.484" cy="58.36" fill="#333" stroke="#000" stroke-linecap="round" stroke-linejoin="round" stroke-width=".185" rx=".201" ry=".208"/>
    <ellipse cx="146.11" cy="58.354" fill="#333" stroke="#000" stroke-linecap="round" stroke-linejoin="round" stroke-width=".185" rx=".201" ry=".208"/>
    <ellipse cx="136.797" cy="58.626" fill="#ffe680" stroke="#000" stroke-linecap="round" stroke-linejoin="round" stroke-width=".25" rx="1.517" ry="1.548"/>
    <ellipse cx="136.516" cy="58.331" fill="#333" stroke="#000" stroke-linecap="round" stroke-linejoin="round" stroke-width=".185" rx=".201" ry=".208"/>
    <ellipse cx="137.142" cy="58.325" fill="#333" stroke="#000" stroke-linecap="round" stroke-linejoin="round" stroke-width=".185" rx=".201" ry=".208"/>
    <ellipse cx="136.519" cy="58.96" fill="#333" stroke="#000" stroke-linecap="round" stroke-linejoin="round" stroke-width=".185" rx=".201" ry=".208"/>
    <ellipse cx="137.145" cy="58.954" fill="#333" stroke="#000" stroke-linecap="round" stroke-linejoin="round" stroke-width=".185" rx=".201" ry=".208"/>
    <path fill-rule="evenodd" d="M113.144 20.916a3.43 3.43 0 0 0-.02-.2c-.963-.427-2.173-.39-3.174-.067-1.044.337-1.878.99-2.014 1.783.19-.766 1.044-1.348 2.063-1.618.993-.263 2.13-.227 2.98.208.053-.036.108-.072.165-.106zM114.3 22.33a1.9 1.9 0 0 0-.194-.357c-.687-.282-1.462-.166-2.153.11-.81.323-1.557.887-2.008 1.42a5.47 5.47 0 0 1 2.084-1.204c.696-.209 1.372-.22 1.898.06.116-.024.241-.036.373-.03zM114.978 23.493a1.213 1.213 0 0 0-.185-.385 1.543 1.543 0 0 0-.852-.015c-.394.097-.786.318-1.136.59-.703.547-1.284 1.337-1.431 1.919.228-.546.87-1.254 1.585-1.7.36-.224.725-.375 1.056-.414.231-.028.432 0 .6.082a.843.843 0 0 1 .363-.077zM115.762 25.33a1.47 1.47 0 0 0 .008-.19 1.07 1.07 0 0 0-.806-.118c-.293.07-.574.249-.826.49-.505.484-.925 1.25-1.113 2.042.24-.78.706-1.499 1.221-1.92.258-.21.52-.34.764-.372a.795.795 0 0 1 .59.146c.05-.03.105-.056.163-.079zM153.182 25c.018.09.033.182.045.274 1.135.099 1.958.98 2.7 1.89-.549-.943-1.307-2.106-2.612-2.413a4.615 4.615 0 0 0-.133.248zM153.383 23.303l-.01.247c.53-.022 1.145.179 1.685.527.534.344.983.826 1.182 1.346-.122-.551-.514-1.108-1.034-1.545-.515-.432-1.168-.758-1.813-.823l-.01.248zM153.606 21.896c.019.093.036.186.053.279 1.25-.129 2.791.574 3.474 1.73-.515-1.238-2.016-2.238-3.49-2.29a9.99 9.99 0 0 0-.037.281zM158.963 64.092l-.017-.302c-2.456-.373-3.87.027-6.1 1.291 2.335-1.098 3.708-1.254 5.989-.716l.128-.273zM158.517 60.589c.033-.092.064-.184.093-.277-.992-.553-2.161-.476-3.274-.205-1.144.28-2.311.787-3.292 1.164 1.026-.291 2.204-.7 3.349-.883 1.131-.18 2.148-.12 2.921.408.066-.07.134-.14.203-.207zM158.03 58.647c-1.344-.269-2.732.27-3.916.718 1.29-.32 2.614-.656 3.8-.268z"/>
    <path fill="none" stroke="#000" stroke-width=".5" d="M88.74 76.718c5.897-.548 8.768 2.494 11.786 6.16"/>
</svg>
