<svg xmlns="http://www.w3.org/2000/svg" xmlns:xlink="http://www.w3.org/1999/xlink" cursor="default" viewBox="0 0 256 256">
    <defs>
        <linearGradient id="linearGradient6768">
            <stop offset="0" stop-color="#faa"/>
            <stop offset="1" stop-color="#ffd5d5"/>
        </linearGradient>
        <linearGradient id="linearGradient5959">
            <stop offset="0" stop-color="#999"/>
            <stop offset="1" stop-color="#f9f9f9"/>
        </linearGradient>
        <linearGradient id="linearGradient5879">
            <stop offset="0" stop-color="#ff2a2a"/>
            <stop offset="1" stop-color="#f55"/>
        </linearGradient>
        <linearGradient id="linearGradient5873">
            <stop offset="0" stop-color="#ff2a2a"/>
            <stop offset="1" stop-color="#ff8080" stop-opacity="0"/>
        </linearGradient>
        <linearGradient id="linearGradient5881" x1="98.992" x2="216.022" y1="89.049" y2="117.687" gradientUnits="userSpaceOnUse" xlink:href="#linearGradient5879"/>
        <radialGradient id="radialGradient5961" cx="147.57" cy="182.808" r="3.517" fx="147.57" fy="182.808" gradientTransform="matrix(1 0 0 1.00636 0 -1.178)" gradientUnits="userSpaceOnUse" xlink:href="#linearGradient5959"/>
        <radialGradient id="radialGradient5969" cx="146.831" cy="152.712" r="3.517" fx="146.831" fy="152.712" gradientTransform="matrix(1 0 0 1.00636 0 -.963)" gradientUnits="userSpaceOnUse" xlink:href="#linearGradient5959"/>
        <linearGradient id="linearGradient5881-9" x1="98.992" x2="216.022" y1="89.049" y2="117.687" gradientTransform="matrix(-1 0 0 1 258.344 -.381)" gradientUnits="userSpaceOnUse" xlink:href="#linearGradient5879"/>
        <radialGradient id="radialGradient6770" cx="129.718" cy="32.101" r="67.825" fx="129.718" fy="32.101" gradientTransform="matrix(2.4449 -.08846 .05284 1.46044 -189.413 -43.8)" gradientUnits="userSpaceOnUse" xlink:href="#linearGradient6768"/>
    </defs>
    <g transform="translate(-13.947 1.01) scale(1.1025)">
        <path fill="url(#radialGradient6770)" fill-rule="evenodd" stroke="#000" stroke-width="1.158" d="M88.428 21.629c29.428-.833 60.724-.178 91.659 2.856 1.496.526-7.505 64.643-3.41 117.154 2.913 37.341 19.97 62.457 20.139 63.466-28.41 21.747-124.13 12.923-134.42.756.106-.995 13.21-23.12 18.015-59.762 7.1-54.145 6.423-123.874 8.017-124.47z"/>
        <path fill="#faa" fill-rule="evenodd" d="M120.972 151.796a100.789 100.789 0 0 1-1.791-10.111c-3.573-19.392-1.974-39.46-2.137-59.175-.163 19.627-2.093 39.812 1.173 59.344a102.164 102.164 0 0 0 2.755 9.942z"/>
        <path fill="#f55" fill-rule="evenodd" stroke="#000" stroke-width="1.158" d="M102.965 12.335c4.48-1.185 14.52 1.615 25.841 1.87 9.77.22 20.78-2.24 26.574-1.489 2.56.9 1.554 7.352 1.962 9.778-3.093-.699-16.778 1.517-29.092 1.677-11.24.145-23.231-3.295-26.347-1.947.263-2.465-1.61-8.89 1.062-9.889z"/>
        <path fill="#faa" fill-rule="evenodd" d="M141.155 143.243c-.626-7.135-.925-14.317-1.018-21.518-.713-19.46.071-39.11-.053-58.482-.125 19.341-1.158 39.03-.693 58.505.342 7.21.89 14.384 1.764 21.495z"/>
        <path fill="url(#linearGradient5881)" fill-rule="evenodd" stroke="#000" stroke-width="1.158" d="M141.57 219.377c3.467 5.426 53.94-7.36 56.017-9.321 1.73-1.632-5.873-30.985-8.08-40.38-2.208-9.395-6.402-24.802-6.588-28.795-1.105-23.8.35-57.123-1.797-65.347 1.501 2 9.222 53.882 12.266 57.395 3.304 31.017 11.359 61.628 18.483 90.334 3.998 1.867 21.974.072 28.794-3.345-.79-5.857-3.7-12.337-6.723-21.904-3.733-11.808-10.165-45.063-16.891-78.62-3.414-17.031-6.904-34.14-10.155-48.564-2.196-9.743-2.08-21.828-2.911-32.116-.538-6.658-3.034-11.517-4.51-12.69-3.755-2.983-13.832-6.835-21.574-8.289-7.741-1.454-8.897-.312-22.521-5.019 3.421 13.709-.527 34.894-4.149 61.779-2.169 16.102-9.853 47.687-13.823 71.385 1.155 8.31 1.265 26.78 2.386 40.521-.138 17.47 1.776 32.976 1.776 32.976z"/>
        <path fill="#ff8080" fill-rule="evenodd" stroke="#000" stroke-width="1.158" d="M143.517 105.979c-2.456 9.733-4.593 26.57-5.724 30.28-1 3.278-.385 9.62-.385 9.62 2.904-8.516 3.432-13.026 16.74-54.267 2.915-5.9 10.882-33.752 10.653-34.732-.89-.584-12.128-4.95-10.666-4.348 5.522-1.176 5.79-1.438 8.602-2.466 2.673-13.32 4.303-22.755 2.227-35.35-4.321-1.567-8.535-3.948-10.38-2.15-.932.94-.665-1.342 1.006 3.229 1.026 2.804-1.136 12.96-1.476 15.756-5.622 24.326-5.122 33.953-10.597 74.428z"/>
        <path fill-rule="evenodd" d="M181.106 75.745l.518-.177c-1.254-10.054.207-20.488 3.616-30.088-3.738 9.462-5.598 19.932-4.678 30.202l.544.063z"/>
        <path fill="#ff8080" fill-rule="evenodd" stroke="#000" stroke-width=".579" d="M150.875 169.434l1.575 6.332c1.001 2.808 2.33 3.193 4.066 3.01l25.692-3.608c3.902-.494 3.369-2.773 3.115-4.463l-.98-5c-2.345.57-19.658 3.35-33.468 3.729z"/>
        <path fill-rule="evenodd" d="M150.875 169.434l.456.023c1.627-4.868 3.684-11.657 6.071-18.233 2.404-6.622 5.138-13.012 8.089-16.93-3.076 3.84-5.952 10.185-8.501 16.776-2.525 6.528-4.732 13.309-6.486 18.097.123.09.247.178.37.267z"/>
        <ellipse cx="143.384" cy="151.482" fill="url(#radialGradient5969)" stroke="#000" stroke-width=".805" rx="3.115" ry="3.137"/>
        <ellipse cx="145.537" cy="185.355" fill="url(#radialGradient5961)" stroke="#000" stroke-width=".805" rx="3.115" ry="3.137"/>
        <path fill="#808080" fill-rule="evenodd" stroke="#000" stroke-width=".5" d="M121.997 31.922c4.252.413 10.83.223 15.006-.156l-.063-4.483c-4.218.425-10.747.697-15.07.071-.05 1.5.084 3.06.127 4.568z"/>
        <path fill="#faa" fill-rule="evenodd" d="M117.19 142.862c.874-7.111 1.421-14.286 1.764-21.495.464-19.475-.569-39.164-.693-58.505-.125 19.372.66 39.023-.054 58.482-.093 7.201-.391 14.382-1.018 21.518z"/>
        <path fill="url(#linearGradient5881-9)" fill-rule="evenodd" stroke="#000" stroke-width="1.158" d="M116.774 218.996c-3.466 5.426-53.94-7.36-56.017-9.321-1.729-1.632 5.873-30.985 8.081-40.38 2.208-9.395 6.402-24.802 6.587-28.795 1.106-23.8-.35-57.123 1.798-65.347-1.502 2-9.223 53.882-12.266 57.395-3.305 31.017-11.36 61.628-18.483 90.334-3.998 1.867-21.974.072-28.794-3.345.789-5.857 3.699-12.337 6.723-21.904 3.733-11.808 10.164-45.063 16.89-78.62 3.414-17.031 6.904-34.14 10.155-48.564 2.197-9.743 2.08-21.828 2.912-32.116.538-6.658 3.034-11.517 4.509-12.69 3.755-2.983 13.832-6.835 21.574-8.289 7.742-1.454 8.897-.312 22.522-5.019-3.422 13.709.527 34.894 4.148 61.779 2.17 16.102 9.853 47.687 13.824 71.385-1.155 8.31-1.266 26.78-2.387 40.521.139 17.47-1.776 32.976-1.776 32.976z"/>
        <path fill="#ff8080" fill-rule="evenodd" stroke="#000" stroke-width="1.158" d="M114.827 105.598c2.456 9.733 4.594 26.57 5.725 30.28 1 3.278.385 9.62.385 9.62-2.904-8.516-3.433-13.026-16.741-54.267-2.914-5.9-10.881-33.752-10.653-34.732.891-.584 12.128-4.95 10.666-4.348-5.522-1.176-5.789-1.438-8.602-2.466-2.673-13.32-4.302-22.755-2.226-35.35 4.32-1.567 8.534-3.948 10.379-2.15.933.94.666-1.342-1.006 3.229-1.025 2.804 1.136 12.96 1.476 15.756 5.622 24.326 5.122 33.953 10.597 74.428z"/>
        <path fill-rule="evenodd" d="M77.238 75.364c.182-.02.363-.042.545-.063.92-10.27-.94-20.74-4.679-30.202 3.41 9.6 4.87 20.034 3.616 30.088.173.058.346.117.518.177z"/>
        <path fill="#ff8080" fill-rule="evenodd" stroke="#000" stroke-width=".579" d="M107.47 169.053l-1.576 6.332c-1 2.808-2.33 3.193-4.066 3.01l-25.692-3.608c-3.901-.494-3.369-2.773-3.115-4.463l.98-5c2.345.57 19.659 3.35 33.469 3.729z"/>
        <path fill-rule="evenodd" d="M107.47 169.053l.37-.267c-1.753-4.788-3.96-11.569-6.486-18.097-2.548-6.591-5.425-12.937-8.5-16.775 2.95 3.917 5.685 10.307 8.088 16.929 2.388 6.576 4.444 13.365 6.072 18.233l.456-.023z"/>
        <path fill="#f55" stroke="#000" stroke-width=".4" d="M113.83 151.757c-.08.388 1.733.693 2.118.77.384.077 1.62.235 1.66-.16.038-.396-1.121-.677-1.472-.725-.351-.049-2.224-.274-2.306.115z"/>
        <path fill-rule="evenodd" d="M49.56 208.2c-2.564 2.739-5.152 3.289-8.445 4.264 3.25-.637 6.151-.9 9.114-3.583zM207.188 206.57c2.963 2.682 5.864 2.945 9.114 3.582-3.293-.975-5.881-1.525-8.446-4.264zM40.577 120.04c.325 3.983 2.26 6.16 4.195 8.849-1.734-2.965-3.245-5.137-3.241-8.888zM216.27 118.18c.003 3.753-1.508 5.925-3.242 8.89 1.934-2.69 3.87-4.866 4.194-8.85zM52.394 60.986c.325 3.983 2.26 6.16 4.195 8.849-1.734-2.965-3.246-5.137-3.242-8.889zM205.233 63.819c.004 3.752-1.508 5.924-3.242 8.888 1.935-2.688 3.87-4.865 4.195-8.848z"/>
        <path fill="#f55" stroke="#000" stroke-width=".4" d="M111.912 185.1c-.08.389 1.732.694 2.117.77.385.078 1.62.235 1.66-.16.039-.396-1.12-.676-1.471-.725-.351-.048-2.225-.273-2.306.115z"/>
    </g>
</svg>