<svg xmlns="http://www.w3.org/2000/svg" cursor="default" viewBox="0 0 256 256">
    <g stroke="#ff2a2a">
        <path fill="#f55" fill-rule="evenodd" d="M195.54 224.81c-.175 1.836 16.484 8.297 16.646 7.287 1.826-4.428-14.046-12.675-16.647-7.287zM107.683 136.377c-.105 2.404 95.12-4.273 94.7-4.975.339-9.718-31.33-7.921-46.906-11.77-18.108 3.508-42.84.083-47.794 16.745z"/>
        <path fill="#666" fill-rule="evenodd" d="M107.683 33.637c-24.229.434-33.765 8.51-37.489 12.615-8.69 9.582-18.346 22.868-27.932 35.108-17.071 21.796-32.56 42.188-32.28 46.055 1.026 14.099 32.379 24.813 62.805 35.293 2.556-5.324 7.937-13.563 6.676-18.256-9.022-5.702-17.647-11.151-33.58-20.379 2.605.635 18.85-20.676 39.591-37.311 12.6 11.556 15.088 24.905 18.704 38.259 48.843-4.59 90.667-4.76 98.92-6.436 1.149-12.34 1.604-21.59 2.128-32.179-.4 52.828-1.92 87.612-8.022 130.066 6.233-.422 12.498 3.213 18.181 7.342 11.562-33.416 17.562-74.007 18.066-109.11.59-41.07-5.906-74.816-12.59-81.955-9.649-10.306-28.622-5.426-42.932-8.139-11.588 39.26-55.58 26.042-70.246 9.027z"/>
        <path fill="none" d="M77.034 143.35c-6.147-2.141-12.82 4.414-19.632 13.237M49.91 154.425c-2.098-3.655 9.84-14.583 20.788-15.28M41.703 151.463c-1.388-4.622 7.582-14.45 21.917-16.73M31.27 146.665c-.928-6.478 16.882-14.855 23.91-16.818M21.156 141.84c-.229-7.094 17.874-10.964 27.486-16.06M46.208 124.695c-13.083 3.782-31.275 2.718-31.69 10.912M10.496 125.76c10.006-3.23 23.482-1.73 35.89-1.687-9.446-3.248-19.366-5.707-27.895-10.483M46.919 123.54c-9.405-5.808-15.411-14.169-19.9-22.387M51.727 119.492c-14.81-10.352-16.713-17.48-14.26-31.962M54.919 115.657c-5.242-8.565-12.295-14.624-10.654-36.641M61.191 109.41c-4.268-8.298-14.605-19.856-10.097-39.26M68.062 101.864c-10.345-9.553-11.305-27.99-9.95-41.31M74.05 96.54c-9.424-18.077-8.353-30.793-9.008-44.247M79.641 91.357c-3.061-14.964-7.273-30.775-6.782-47.592M86.273 87.206c.101-.864-4.474-38.445-4.086-49.038M86.562 37.022c7.167 22.79 4.1 36.762.6 50.362M70.47 161.05c-1.645-7.714-1.573-14.834 1.131-21.043M65.571 159.857c-4.96-14.173-1.721-18.227.942-22.99M58.724 157.847c-5.346-16.8-.992-20.058 2.199-24.938M50.935 155.146c-4.022-9.347-3.266-17.702 5.59-24.373M42.957 152.005c-8.219-15.401.682-20.223 4.648-27.45M33.911 147.985c-3.835-18.99-1.154-18.593 12.375-24.122M46.537 124.743c-14.487.84-26.884-4.738-26.76 15.892"/>
        <path fill="#f55" fill-rule="evenodd" d="M82.657 166.704c5.347 1.688 10.582-14.133 6.91-15.83-12.176-6.683-17.494 11.716-6.91 15.83z"/>
        <path fill="#ff8080" fill-rule="evenodd" d="M72.858 162.935c-2.359-15.319 3.09-14.427 5.842-18.908l11.244 7.161c-7.33-4.497-15.152 10.427-6.784 15.58z"/>
        <path fill="none" d="M107.847 34.223c-8.749 2.995-16.118 6.887-19.222 9.925M113.635 39.92c-6.673 8.65-17.526 21.2-22.261 23M124.838 45.773c-10.73 10.51-21.604 22.944-34.37 28.024M134.23 49.113c-4.92 10.136-40.586 33.734-43.992 42.37M149.557 50.933c-18.185 20.777-56.545 30.782-52.492 51.76M102.264 118.032c5.478-43.451 47.824-22.712 95.233-92.035M100.088 110.481c-6.232-30.25 43.397-29.302 68.093-68.493M112.391 133.312c-1.529-46.846 80.144-56.473 97.277-105.627M130.07 125.939c-5.663-27.402 60.165-47.231 77.288-75.067M148.637 123.895c-5.408-18.36 36.02-28.634 56.056-56.144M167.204 123.895c-3.64-17.13 28.558-24.057 37.651-41.179M184.616 124.25c1.99-9.69 15.787-15.131 19.899-23.541M87.871 41.384c11.05 2.182 21.924 2.508 32.266 2.1M89.504 50.43c32.477 2.002 82.859 13.854 115.534 36.956M90.76 60.104c46.334 3.646 109.455 23.055 113.825 37.439M90.51 70.783c36.79-1.787 108.577 19.475 113.07 44.6M89.002 79.703c50.076-10.24 102.147 28.003 108.547 47.238M86.615 87.052c51.818-10.523 92.943 37.632 93.974 37.125M93.525 95.784c3.15-8.074 43.796 5.37 65.957 27.765M138.502 125.685c-.051-2.046-27.72-21.803-40.889-21.277M100.91 113.838c10.123 3.93 16.793 9.422 25.028 14.61M52.82 118.021c-12.138.666-18.132 3.33-38.696 1.256M58.497 112.33c-10.31 4.535-25.856-.992-38.217-1.47M68.02 101.94c-12.462 5.724-28.524 2.5-42.975 1.596M79.077 90.884C62.882 97.353 46.54 97.8 31.29 95.533M89.316 78.51c-18.8 6.879-38.068 9.872-51.196 8.48M90.258 70.594c-12.869 2.269-32.339 6.07-44.75 6.507M53.417 66.903c.488-1.109 33.731-5.953 37.344-5.983M88.5 42.892c-4-.886-8.596-1.712-14.442-.288M61.4 56.735c7.84-4.25 20.77-6.915 28.25-5.42M90.538 54.78c1.63-7.516 11.444-12.74 18.478-18.744M149.683 50.43c11.677 10.967 32.26 11.164 54.982 27.195M166.267 44.023c13.31 9.67 26.608 10.619 38.695 19.975M172.171 37.49c17.155 6.997 26.628 12.075 34.807 16.746M177.574 27.565c7.124.652 29.341 12.611 30.936 14.662M188.755 25.68c6.923 1.153 15.682 3.761 20.604 7.915M205.315 87.428c-2.876-24.177 3.712-32.56 4.708-60.187"/>
        <path fill="#ff8080" fill-rule="evenodd" d="M197.23 215.664l-1.51 8.617c7.343.75 12.351 3.707 16.701 7.284 1.333-2.717 2.483-5.8 3.48-9.187-7.521-5.923-13.32-7.305-18.67-6.714zM104.078 123.989c.34 3.801 2.22 7.859 3.455 11.81 28.399-10.118 88.396-11.888 94.916-5.591.41-4.019.638-8 .628-11.936-15.971-1.938-20.624-3.559-54.38-1.018-16.203 1.22-31.453 5.403-44.62 6.735z"/>
        <path fill="none" d="M221.039 32.927c-3.202 16.738-10.58 25.51-16.346 36.69M226.635 45.63c-3.97 13.104-11.97 25.212-21.853 35.713M229.656 59.755c-6.661 15.904-15.697 26.616-24.697 35.268M231.61 73.97c-5.2 12.62-14.643 24.274-26.473 33.58M232.41 88.005c-6.808 16.724-18.347 21.984-27.717 31.449M233.476 103.552c-7.088 12.23-18.57 19.03-28.816 26.52M204.07 142.64c7.428-4.753 26.228-18.93 29.317-25.585M203.605 152.36c9.535-6.217 19.352-12.324 29.338-19.67M202.472 163.161c7.95-5.05 12.243-8.546 28.96-17.323M202.205 170.357c6.395-5.311 15.029-9.876 27.806-13.059M201.495 178.885c6.051-6.17 16.848-9.02 27.717-12.437M201.14 185.37c5.913-4.547 16.782-5.997 26.206-8.35M200.206 193.1c1.067-2.8 15.648-4.598 25.097-6.752M199.14 202.605c6.076-4.288 15.11-5.734 24.208-6.574M198.296 208.956c6.78-2.53 14.967-3.477 22.92-4.13M204.07 215.841c1.167-1.608 13.316-3.796 14.392-3.198M209.845 35.503c7.532 4.394 14.579 9.62 18.834 19.633M208.069 47.318c9.289 6.572 19.9 11.761 23.541 26.918M206.203 59.489c12.768 6.673 20.282 17.475 26.473 29.316M204.515 70.593c11.792 9.048 21.193 20.064 28.96 32.426M233.298 115.811c-6.776-11.979-17.465-22.218-28.428-32.336M232.839 130.517c-6.71-14.804-16.471-25.412-27.436-33.361M205.403 113.057c10.954 6.222 19.533 14.818 27.184 24.342M231.166 150.902c-4.357-10.552-15.211-18.863-26.296-27.095M204.16 135.533c10.054 7.016 19.102 14.967 25.851 25.052M227.545 175.605c-.502-12.958-14.94-21.878-23.57-31.628M203.538 153.922c.814-.242 20.462 26.005 22.564 30.738M222.993 195.853c-4.697-12.025-13.218-20.573-20.255-30.47M221.172 204.204c-5.106-9.355-12.551-17.58-19.233-25.585M200.784 189.723c6.567 7.931 13.007 15.844 17.945 23.542M215.797 221.571c-4.868-7.24-10.338-14.48-16.39-21.72M198.385 210.333l5.42 5.864M11.562 131.624c9.997-18.714 22.278-4.272 35.712-8.173"/>
    </g>
</svg>
