<svg xmlns="http://www.w3.org/2000/svg" xmlns:xlink="http://www.w3.org/1999/xlink" cursor="default" viewBox="0 0 256 256">
    <defs>
        <linearGradient id="linearGradient4556">
            <stop offset="0" stop-color="#ff2a2a"/>
            <stop offset="1" stop-color="#ff8080"/>
        </linearGradient>
        <linearGradient id="linearGradient4562" x1="129.196" x2="129.286" y1="27.875" y2="18.857" gradientTransform="translate(3.929 -3.929)" gradientUnits="userSpaceOnUse" xlink:href="#linearGradient4556"/>
    </defs>
    <path fill="#ff8080" fill-rule="evenodd" stroke="#000" d="M41.742 239.094c2.85-69.342 1.018-191.27 27.8-200.131 9.284-3.072 21.48-8.883 28.828-12.796 21.51 9.709 42.675 6.706 63.71-1.12 8.428 4.018 21.865 11.164 33.186 16.408 17.11 7.925 22.171 139.286 23.698 196.976-7.111 1.66-15.233-1.118-21.174-1.27-1.808-24.678-4.626-42.931-6.93-68.596-3.176-35.36-4.636-73.759-9.451-70.087-.29-10.291 1.132-29.853-18.569-36.915-16.771-.944-51.351-1.1-68.283-.463-8.926 3.72-10.242 8.493-18.325 27.974-.253 52.364-11.664 91.389-13.42 149.247-5.372-.263-10.857 1.747-21.07.773z"/>
    <path fill="#faa" fill-rule="evenodd" stroke="#000" stroke-width=".25" d="M192.827 40.697c-.258 8.165-1.265 16.33-3.662 24.496l5.43-15.152c.833-2.882 1.417-5.538.876-8.326zM177.043 73.906l3.662 9.091c3.157-14.437 6.403-28.114 7.487-44.624l-4.3-2.072c-.789 13.524-3.466 25.495-6.849 37.605zM169.72 65.193l4.293 4.167c3.063-11.783 5.687-23.278 5.467-35.295l-4.88-2.473c-.28 12.997-2.23 23.448-4.88 33.601zM160.502 61.026l5.809 2.147c2.403-10.99 4.763-21.725 5.537-32.949l-4.27-2.22-2.783 2.465c.079 10.186-2.034 20.372-4.293 30.557zM151.916 60.269l5.303.126c1.826-8.652 3.876-16.744 4.798-27.653l-7.702 2.904c.336 8.775-1.457 16.487-2.4 24.623zM141.814 60.269h6.188c1.158-7.566 2.712-15.065 2.525-22.855l-5.556 1.389c.244 7.562-2.019 14.185-3.535 21.087zM131.713 60.395h5.935c2.3-5.828 2.02-13.721 3.03-20.582l-5.854.253c-1.037 6.776-.39 13.64-3.111 20.329zM123.884 39.94c-.656 5.788-1.343 13.478-2.02 20.581l5.556-.379c.696-6.734 1.708-13.468 1.515-20.203zM113.278 37.92c-1.366 8.58-.728 15.017-1.137 22.349l5.43.126c.369-6.836-.281-13.12 1.136-21.97zM102.292 33.247c-.112 8.475.435 17.608.758 26.517l5.556.126c-.265-7.955-.795-15.91-.632-23.865zM93.075 29.08c-1.362.632.453 31.315 1.136 31.315l5.177-.631c-.775-9.804-2.068-19.522-1.515-29.547l-2.652-2.273zM83.47 33.85c-.816 11.014 1.4 21.83 2.28 32.858l4.294-3.661c-.665-10.724-2.91-21.164-1.412-31.67zM68.296 39.82c.8.964 4.172 24.313 4.197 24.363L68.2 55.218c-1.044-4.293-1.057-8.497-3.424-12.79.944-1.023 1.88-2.05 3.52-2.607zM73.332 37.882c.446 13.997 3.767 27.134 6.737 40.443l3.283-6.566c-2.387-11.953-4.954-23.728-5.237-35.682z"/>
    <path fill="#ff2a2a" fill-rule="evenodd" stroke="#000" stroke-width=".5" d="M87.321 65.91c18.915 26.99 74.51 30.675 86.34 2.411l-11.518-6.696-67.232-1.071z"/>
    <path fill="#f55" fill-rule="evenodd" stroke="#000" stroke-width=".25" d="M161.639 61.153c1.413.724 1.2 18.932.505 18.814 0 0 6.945-.127 7.45-.127.505 0-1.383-16.085-1.383-16.085zM151.663 60.521c.846 9.303.724 16.737.253 24.496l6.06-.757c.408-7.955.9-15.91 0-23.865zM140.425 60.774c.16 13.636-.054 20.388.127 26.769l7.702-1.01c-.514-8.578-.166-16.433-1.016-25.76zM128.682 60.278l1.01 29.285 6.693-1.641-.825-27.577zM117.823 60.604c.231 8.94.243 16.81 1.516 25.424l6.44 1.389c-.479-9.215-.918-17.723-1.39-26.94zM106.207 60.9c.19 7.262 1.192 15.335 2.02 23.234 0 0 6.038 2.191 6.313 1.767.328-.505-1.199-25.297-1.857-25.297zM95.095 60.648c.126.63 2.02 18.309 1.389 18.309-.632 0 7.323 1.136 7.323 1.136-1.165-7.113-2.347-13.78-3.024-19.554z"/>
    <path fill="#ff8080" fill-rule="evenodd" stroke="#000" d="M180.714 98.857c-7.04 22.04-8.509 29.597-6.028 55.708 1.877 19.762 11.368 48.797 13.15 70.43-13.618 13.635-100.2 15.418-114.661 3.653-.726-38.883 12.384-46.87 13.598-73.184.664-14.385-8.477-48.186-10.54-66.39 6.04-14.664 8.107-20.431 11.704-23.214 7.13 7.204 14.66 12.463 23.526 15.208 12.609 3.904 28.386 4.01 40.611.358 8.721-2.605 14.67-7.387 20.763-12.87 7.68 6.4 9.559 22.171 7.877 30.301z"/>
    <path fill="#faa" fill-rule="evenodd" stroke="#000" stroke-width=".25" d="M74.59 227.862c.358 0 3.75 2.053 3.75 2.053s9.835-49.632 10.767-74.808c.993-26.829-10.36-46.276-5.893-81.786l-1.785 4.465c-5.152 22.906 7.079 52.055 6.25 77.143-.816 24.685-13.088 72.933-13.088 72.933z"/>
    <path fill="#faa" fill-rule="evenodd" stroke="#000" stroke-width=".25" d="M84.464 231.714l5 .536s7.575-49.526 6.25-74.464c-.926-17.44-8.025-33.98-8.75-51.429-.5-12.025 3.929-35.893 3.929-35.893L87.32 67.43 85 71.714s-1.47 22.642-.714 33.929c1.186 17.732 6.916 34.554 7.321 52.321.562 24.604-7.143 73.75-7.143 73.75z"/>
    <path fill="#faa" fill-rule="evenodd" stroke="#000" stroke-width=".25" d="M95.893 233.321l4.643.179s4.129-48.82 2.857-73.214c-.925-17.73-7.315-34.926-7.5-52.679-.108-10.32 3.928-30.714 3.928-30.714l-4.107-3.036s-4.822 21.07-4.821 31.786c.001 18.242 7.774 36.07 8.75 54.286 1.313 24.512-3.75 73.392-3.75 73.392z"/>
    <path fill="#faa" fill-rule="evenodd" stroke="#000" stroke-width=".25" d="M104.643 233.5l5.536.893s2.908-46.907 2.142-70.357c-.63-19.305-5.414-38.365-5.535-57.679-.054-8.6 2.143-25.714 2.143-25.714l-4.643-1.607s-3.588 17.293-3.75 26.071c-.355 19.152 5.322 38.003 6.071 57.143.93 23.74-1.964 71.25-1.964 71.25zM115.179 234.393h5.178c-.284-90.186.123-85.751-2.5-127.679-.683-10.92 1.2-15.435 1.786-23.393l-6.072-.892c-.684 7.857-2.13 14.191-1.964 23.75.748 43.044 6.224 41.369 3.572 128.214zM126.607 233.857h6.25c-.665-50.12-3.065-100.489-.714-150.178h-6.072c-1.322 50.06.148 100.119.536 150.178zM187.01 226.643l-3.75 2.053s-12.865-52.662-13.797-77.838c-.993-26.829 10.004-44.848 5.536-80.357l1.786 4.464c5.15 22.907-6.722 50.626-5.893 75.714.815 24.686 16.118 75.964 16.118 75.964z"/>
    <path fill="#faa" fill-rule="evenodd" stroke="#000" stroke-width=".25" d="M177.537 233.387l-5 .536s-12.5-49.527-11.175-74.464c.927-17.44 8.026-33.98 8.75-51.429.5-12.025-4.054-33.81-4.054-33.81 2.494-2.036 3.4-2.86 5.261-3.485 0 0 2.227 25.294 1.472 36.58-1.187 17.733-6.916 34.555-7.321 52.322-.562 24.604 12.067 73.75 12.067 73.75z"/>
    <path fill="#faa" fill-rule="evenodd" stroke="#000" stroke-width=".25" d="M165.381 236.362l-4.643.178s-7.79-49.83-6.518-74.224c.924-17.73 7.314-34.926 7.5-52.679.107-10.32-3.84-30.09-3.84-30.09l4.286-2.41s4.554 19.82 4.554 30.536c-.001 18.242-7.775 36.07-8.75 54.286-1.313 24.512 7.411 74.403 7.411 74.403z"/>
    <path fill="#faa" fill-rule="evenodd" stroke="#000" stroke-width=".25" d="M153.422 234.933l-5.535.893s-3.54-47.917-2.775-71.367c.63-19.305 5.415-38.365 5.536-57.679.054-8.601-1.696-24.732-1.696-24.732l4.553-1.429s3.23 16.133 3.393 24.911c.354 19.152-5.322 38.003-6.071 57.143-.93 23.74 2.595 72.26 2.595 72.26zM142.255 234.816h-5.178c.283-90.186-1.73-85.216.893-127.143.683-10.92-.664-15.614-1.25-23.572l6.07-.892c.685 7.857 1.596 14.37 1.43 23.928-.748 43.044-4.617 40.834-1.965 127.679z"/>
    <path fill="#ff8080" fill-rule="evenodd" stroke="#000" d="M73.176 225.364c-.176 2.119-.83 3.98.588 5.15 9.337 13.493 101.206 10.163 111.412 2.39 1.71-2.063 3.514-5.895 2.842-8.384-4.55 8.21-99.273 14.192-114.842.844z"/>
    <path fill="#faa" fill-rule="evenodd" stroke="#000" stroke-width=".5" d="M88.33 65.872l-1.41 1.605c8.12 7.875 13.985 11.716 22.306 14.482 8.075 2.684 27.96 5.248 46.197-.753 6.223-2.047 10.49-5.404 18.59-11.783l-1.768-1.894c-3.034 5.083-10.831 10.363-17.95 12.49-17.046 5.095-32.848 3.925-44.653-.303-8.668-3.103-16.7-9.374-21.312-13.844z"/>
    <path fill="#ffd5d5" fill-rule="evenodd" stroke="#000" stroke-width=".5" d="M76.205 89.348c2.241-9.37 6.54-19.678 10.67-23.884 3.131-3.188 6.462-5.782 10.09-5.893 1.746-.053 53.302-.479 63.214.893 6.984.967 13.497 6.219 17.321 12.143 4.862 7.533 4.643 26.072 4.643 26.072l-1.34.357s-.131-17.903-4.553-25.179c-3.333-5.483-8.947-11.32-15.357-11.607-25.734-1.153-42.69-.044-63.214-.893-3.25-.134-7.32 2.871-9.822 5.714-6.063 6.888-11.294 24.554-11.294 24.554z"/>
    <path fill="url(#linearGradient4562)" fill-rule="evenodd" stroke="#000" d="M109.87 15.03c.25-2.298 39.379-2.064 43.116.557 9.958 10.24-47.284 19.897-43.116-.557z"/>
    <path fill="#ff8080" fill-rule="evenodd" stroke="#000" d="M95.125 27.937c21.69 18.229 57.814 13.543 72.668-.063-10.817-4.82-12.827-12.227-14.71-12.312 1.26 6.628-45.746 8.14-43.184-.631-.172 2.55-7.309 8.913-14.774 13.006z"/>
    <path fill="none" stroke="#ff2a2a" d="M96.696 28.232c5.623-2.264 9.819-5.955 13.304-10.357M99.205 29.82c4.682-3.024 9.865-6.32 12.205-10.867M102.668 31.729c4.893-3.405 8.245-7.817 10.643-11.934M105.318 33.236c3.631-3.871 7.036-5.5 10.097-12.806M115.76 37.445c3.416-6.465 5.738-12.36 6.01-15.854M124.071 38.623c1.707-6.433 2.82-13.408 2.955-16.95M128.272 38.975c.93-6.65 1.472-17.252 1.472-17.252M131.501 38.975c.307-5.436.14-11.596.2-17.115M112.105 36.294c2.88-4.68 6.452-10.396 7.171-15.14M109.07 34.91c4.084-5.572 7.702-10.485 8.242-14.068M120.452 38.157c1.975-5.987 3.089-9.658 4.116-16.593M166.313 28.232c-5.623-2.264-9.819-5.955-13.304-10.357M163.804 29.82c-4.682-3.024-9.865-6.32-12.205-10.867M160.654 31.461c-4.893-3.404-8.246-7.817-10.644-11.934M158.36 32.924c-3.63-3.872-7.035-5.5-10.096-12.807M147.695 37.043c-3.415-6.465-5.738-12.36-6.01-15.854M139.384 38.623c-1.707-6.433-2.82-13.408-2.954-16.95M135.585 39.065c-.93-6.65-1.472-17.252-1.472-17.252M151.44 35.937c-2.88-4.68-6.453-10.396-7.172-15.14M154.565 34.598c-4.085-5.572-7.703-10.485-8.243-14.068M143.137 38.202c-1.975-5.987-3.088-9.658-4.115-16.593"/>
    <path fill="#faa" fill-rule="evenodd" stroke="#000" stroke-width=".25" d="M44.286 236.714h3.393C51.932 168.38 42.348 95.41 68.036 54.93L65 48.857C40.059 91.028 50.05 172.594 44.286 236.714z"/>
    <path fill="#faa" fill-rule="evenodd" stroke="#000" stroke-width=".25" d="M69.286 58.5l2.678 5C47.38 104.855 56.726 176.655 54.821 237.607l-3.75-.178C54.09 175.32 48.233 96.319 69.286 58.5z"/>
    <path fill="#faa" fill-rule="evenodd" stroke="#000" stroke-width=".25" d="M74.018 69.036l2.768 6.785C56.614 98.6 65.986 181.14 62.143 235.286l-2.679 2.5c4.033-56.334-8.156-127.34 14.554-168.75z"/>
    <path fill="#faa" fill-rule="evenodd" stroke="#000" stroke-width=".25" d="M66.786 184.393l1.384-11.16c1.834-26.571.729-54.112 7.428-77.034l.275-7.303c-10.39 23.598-8.002 62.594-9.087 95.497z"/>
    <path fill="#ff8080" fill-rule="evenodd" stroke="#000" d="M41.812 236.149c-.073 2.118-.127 3.422.053 5.999 2.596 1.908 17.986 2.228 21.137-1.236 0 0 .02-3.323.003-6.17-8.566 2.583-15.914 1.355-21.193 1.407z"/>
    <path fill="none" stroke="#ff2a2a" d="M43.224 242.01l.19-5.119M45.808 237.027l-.294 5.452M48.35 237.203l-.196 5.525M51.026 237.235l-.063 5.537M53.679 237.2l.055 5.567M56.082 237.01l.124 5.482M58.603 236.603c.032.158.08 5.34.08 5.34M60.952 236.145l.04 4.991"/>
    <path fill="none" stroke="#000" d="M62.857 44.393c6.924 13.675 11.999 25.963 16.072 37.5"/>
    <path fill="#faa" fill-rule="evenodd" stroke="#000" stroke-width=".25" d="M218.04 235.083h-3.393c-4.253-68.335-3.022-140.332-20.496-183.135l2.404-6.324c14.585 36.814 15.72 125.339 21.485 189.46z"/>
    <path fill="#faa" fill-rule="evenodd" stroke="#000" stroke-width=".25" d="M192.787 56.238l-2.426 5.631c19.815 41.525 12.858 113.21 17.143 174.107l3.75-.178c-5.212-62.047-.806-141.575-18.467-179.56z"/>
    <path fill="#faa" fill-rule="evenodd" stroke="#000" stroke-width=".25" d="M188.687 68.541l-2.01 7.67c16.328 22.617 8.157 106.085 13.684 160.301l3.572.536c-5.5-56.182 2.451-126.577-15.246-168.507z"/>
    <path fill="#faa" fill-rule="evenodd" stroke="#000" stroke-width=".25" d="M193.754 194.012l-2.053-21.384c-1.023-14.591.675-56.71-7.83-82.792l1.42-6.053c10.39 23.598 7.378 77.326 8.463 110.229z"/>
    <path fill="none" stroke="#000" d="M182.094 98.402c4.058-19.004 7.883-38.135 15.531-55.18"/>
    <path fill="#ff8080" fill-rule="evenodd" stroke="#000" d="M197.684 234.908c-.074 2.118-.127 3.422.052 5.999 2.596 1.908 17.987 2.228 21.137-1.236 0 0 .021-3.323.004-6.17-8.566 2.584-15.914 1.355-21.193 1.407z"/>
    <path fill="none" stroke="#ff2a2a" d="M199.096 240.77l.19-5.12M201.679 235.786l-.293 5.452M204.22 235.962l-.194 5.525M206.898 235.994l-.063 5.537M209.55 235.959l.055 5.567M211.953 235.77l.124 5.481M214.474 235.363c.032.157.08 5.338.08 5.338M216.824 234.904l.04 4.991"/>
</svg>
