<svg xmlns="http://www.w3.org/2000/svg" xmlns:xlink="http://www.w3.org/1999/xlink" cursor="default" viewBox="0 0 256 256">
    <defs>
        <linearGradient id="linearGradient0">
            <stop offset="0" stop-color="#ffd5d5"/>
            <stop offset=".522" stop-color="#faa"/>
            <stop offset="1" stop-color="#ff8080"/>
        </linearGradient>
        <linearGradient id="linearGradient1" x1="123.568" x2="117.885" y1="31.842" y2="238.371" gradientTransform="translate(-12.906 -16.839) scale(1.1025)" gradientUnits="userSpaceOnUse" xlink:href="#linearGradient0"/>
    </defs>
    <path fill="#f55" fill-rule="evenodd" stroke="#000" stroke-width="1.102" d="M109.745 7.169c7.42-.996 34.365.229 37.701 1.39.871 7.096-39.341 8.9-37.7-1.39z"/>
    <path fill="url(#linearGradient1)" fill-rule="evenodd" stroke="#000" stroke-width="1.102" d="M102.918 243.406c4.583-1.114 9.777-1.684 12.808-4.176 2.062-.994 4.665-.614 6.543-.14-.647 5.369 7.635 1.904 12.111 2.645 10.19-.723 18.142 2.19 27.007 3.62 1.364 1.3 1.699 2.598.836 3.898 4.312 4.383 10.93 2.837 16.427 4.176 3.624-2.987 6.245-2.46 9.188-3.063v2.506c1.103 4.33 12.763-4.04 18.097-5.011-2.014-4.826-3.942-9.652-6.125-14.478-2.34-10.31-6.504-20.098-10.023-30.07-9.01-24.376-13.576-40.64-14.757-51.787-2.889-27.274 1.485-29.141 2.228-43.712 9.494 43.39 16.268 84.968 23.666 126.96 10.423.337 20.107-.805 28.956-3.619-6.644-28.12-9.747-56.227-14.2-84.362-8.962-56.624-11.773-71.28-19.95-105.146-3.35-13.876-24.61-12.145-40.115-23.262l-54.854-1.059s-14.774 8.9-23.457 10.232c-18.757 2.876-20.187 10.102-23.11 19.003-8.372 25.498-9.008 52.915-13.642 79.35-6.105 34.823-18.655 104.409-18.655 104.409 8.856 4.644 18.054 3.177 27.706 5.033 6.14-45.527 15.727-83.924 22.967-126.147 2.449 7.831 5.132 10.937 3.898 32.297-.92 15.92-3.415 29.954-8.63 47.053-2.168 7.105-14.937 37.593-22.275 58.748 4.21 5.474 12.006 6.26 18.376 8.91-.338-1.671-.122-3.342.279-5.012 11.884 5 22.16-.818 30.07-3.341 3.956.193 9.19.582 8.63-4.455z"/>
    <path fill="none" stroke="#000" stroke-width=".551" d="M75.787 152.493c8.572-.945 14.752-3.42 21.557-5.807 10.73-3.764 43.861-5.745 56.504-.591 6.72 2.74 21.065 5.513 21.065 5.513"/>
    <path fill="none" stroke="#000" stroke-width="1.102" d="M72.489 109.968c.247-8.083-5.561-14.224-9.007-26.282M177.277 109.246c-.572-5.71 7.993-17.35 9.449-25.954"/>
    <path fill="none" stroke="#000" stroke-width=".551" d="M203.924 79.273c-5.742 2.595-9.85 7.13-18.034 7.958M46.942 79.064c6.074 3.32 9.466 7.237 18.222 9.961"/>
    <path fill="#faa" fill-rule="evenodd" stroke="#000" stroke-width="1.102" d="M96.002 19.598c7.51-5.031 9.872-8.495 13.352-12.3 4.957 2.622 18.045 9.873 38.39 1.378 4.084 4.05 8.168 8.107 12.252 11.976-12.35 7.331-28.858 18.246-63.994-1.054z"/>
    <path fill-rule="evenodd" d="M102.119 145.507c1.934-12.985-2.734-26.183-2.82-38.946-.087 12.942 4.413 25.903 2.307 38.866zM154.067 146.204l.253-.06c-1.187-10.137.36-20.525 3.866-30.117-3.664 9.526-5.404 19.93-4.379 30.173.087 0 .173.003.26.004zM64.705 251.376c.047-12.115.02-23.84 3.108-35.587-3.451 11.683-3.795 23.425-4.21 35.566zM95.325 247.473c-2.554-11.536-3.313-23.363-2.509-35.228-1.17 11.83-.787 23.732 1.429 35.45zM103.49 242.918c-6.075-22.812-5.765-46.433-5.949-69.95-.183 23.446-.87 47.194 4.88 70.226zM116.375 238.878c-3.633-27.766 3.574-55.568.854-83.431 2.272 26.985-5.138 56.384-1.948 83.566zM135.05 241.703c-1.688-15.916 1.952-41.275 1.768-62.336-.183 20.888-4.19 46.455-2.866 62.44zM157.547 244.09c2.32-27.5-3.16-55.429-2.42-83.13-1.118 27.99 4.017 55.47 1.322 83.03zM176.98 246.01l.55-.033c-1.939-30.165-4.266-60.76-11.28-90.333 6.651 29.635 8.61 60.24 10.18 90.397l.55-.032zM187.71 249.848l.536.13c3.89-16.882.624-34.766-3.49-51.12 3.776 16.517 6.611 34.289 2.418 50.86l.536.13zM178.787 253.455c3.458-11.923 2.47-23.723.162-35.599 1.955 11.994 2.53 23.669-1.216 35.276z"/>
    <path fill="none" stroke="#000" stroke-width="1.102" d="M161.427 245.222c4.167 2.705 12.926 1.304 15.898.344"/>
    <path fill-rule="evenodd" d="M122.75 239.05c.43-11.542-.089-23.079-.272-34.623-.184 11.575-.033 23.071-.83 34.564zM85.158 150.825c-.311-6.806.199-11.095-1.683-17.603 1.69 6.535.986 10.792 1.105 17.622zM167.253 150.004l.321-.012c-.148-6.001.274-10.59.855-12.73-.793 2.101-1.431 6.685-1.497 12.735l.321.007z"/>
</svg>
