<svg xmlns="http://www.w3.org/2000/svg" cursor="default" viewBox="0 0 256 256">
    <g transform="matrix(1.15762 0 0 1.15762 -19.461 -2.944)">
        <path fill="#f55" fill-rule="evenodd" stroke="#000" d="M108.214 18.679l13.393 32.678c29.506-7.037 15.476-20.476 23.214-30.714z"/>
        <path fill="#ff8080" fill-rule="evenodd" stroke="#000" d="M111.548 13.755c7.21-1.907 20.757-1.79 31.56-.39 2.213.779 1.344 6.351 1.696 8.447-5.341-1.206-28.787-1.844-34.174.485.228-2.13-1.39-7.68.918-8.542z"/>
        <path fill="#f55" fill-rule="evenodd" stroke="#000" d="M79.375 196.982c39.565 37.636 102.22 7.501 105.804-2.768z"/>
        <path fill="#ff8080" fill-rule="evenodd" stroke="#000" d="M130 202.964c-4.868 3-14.303 4.348-52.321-4.643l.535-36.785c-3.632 10.42-6.506 18.314-11.428 33.035-1.357 6.586-2.443 10.203-3.572 14.286-10.763-.634-18.93-4.606-28.214-7.143 1.37-4.581 2.689-9.216 4.286-13.571-.056-60.505 13.719-86.33 29.285-150.536 18.232-10.359 27.143-12.143 40.715-18.214l17.5 25.536z"/>
        <path fill="#ff8080" fill-rule="evenodd" stroke="#000" d="M124.821 204.929c2.995 4.687 45.395 1.192 61.965-9.286l-2.5-29.822c2.733 9.159 4.978 16.99 8.797 29.094.191 4.712 1.679 9.208 2.81 13.764 8.34-1.747 16.386-2.61 25.178-5.715-.681-5.06-1.861-10.119-3.035-15.178-2.956-49.798-17.447-107.458-31.607-150.893-11.863-6.65-25.345-11.68-38.572-16.964l-17.321 20.535-4.465 6.607s-.807 17.332-.773 41.623c.032 23.126.91 52.786.766 71.09-.12 15.09-1.243 45.145-1.243 45.145z"/>
        <path fill="#faa" fill-rule="evenodd" stroke="#000" d="M103.571 21c1.774 11.314 9.012 17.77 13.572 26.607l5.893-8.393c-4.631-7.81-12.116-12.765-12.143-25.178-2.429 1.065-4.786 4.453-7.322 6.964zM132.321 38.5c2.955 3.012 7.722 10.898 6.965 10.179 4.708-9.27 8.596-17.993 12.857-26.965-2.607-2.51-7.14-7.339-8.287-7.991-.077 12.276-6.795 17.053-11.535 24.777z"/>
        <path fill="#ececec" fill-rule="evenodd" stroke="#000" stroke-width=".5" d="M120.318 24.071l-.148 3.306 13.651-.197-.564-3.215z"/>
        <path fill="none" stroke="#000" stroke-width=".5" d="M141.786 70.375l-.625 27.679c.412 2.541 2.96 4.885 4.464 5l19.464 1.339c4.208.229 4.952-2.185 5-3.66l.715-28.304c-2.082.12-17.226-.22-29.018-2.054zM141.786 76.714c11.415 2.142 21.177 1.569 28.839 2.232"/>
        <path fill="none" stroke="#000" d="M78.201 162.395c-.666-29.367.682-58.412 2.692-87.11M176.607 82.964c1.487 28.156 4.588 55.665 7.721 83.162M39.396 188.194l26.895 6.566M193.318 194.886l24.496-6.566"/>
        <path fill-rule="evenodd" d="M39.464 176.536l.485.123c2.072-8.819 4.089-18.032 7.908-26.373-4.132 8.222-6.478 17.375-8.877 26.126l.484.124zM190.274 183.8c-1.502-15.987-3.644-33.194-3.31-49.229-.668 16.043 1.144 33.302 2.314 49.311zM177.551 88.638c.657-8.334.52-18.485 1.913-27.102-1.722 8.563-1.926 18.767-2.908 27.004zM80.417 90.27c.02-4.072-1.207-10.376-2.024-14.27.497 4 1.373 10.275 1.025 14.225zM78.574 198.452c6.14-12.938 10.091-28.144 12.676-41.916-2.916 13.73-7.18 28.779-13.574 41.477zM185.1 196.123c-8.534-4.6-17.45-12.777-24.921-19.052 7.197 6.479 15.973 14.984 24.432 19.924z"/>
        <ellipse cx="129.805" cy="171.715" fill="#e6e6e6" stroke="#000" stroke-width=".501" rx="1.938" ry="1.952"/>
        <ellipse cx="129.805" cy="148.671" fill="#e6e6e6" stroke="#000" stroke-width=".501" rx="1.938" ry="1.952"/>
        <ellipse cx="129.805" cy="124.554" fill="#e6e6e6" stroke="#000" stroke-width=".501" rx="1.938" ry="1.952"/>
        <ellipse cx="129.3" cy="101.447" fill="#e6e6e6" stroke="#000" stroke-width=".501" rx="1.938" ry="1.952"/>
        <ellipse cx="129.3" cy="77.708" fill="#e6e6e6" stroke="#000" stroke-width=".501" rx="1.938" ry="1.952"/>
        <ellipse cx="128.921" cy="55.106" fill="#e6e6e6" stroke="#000" stroke-width=".501" rx="1.938" ry="1.952"/>
        <ellipse cx="126.696" cy="-32.106" fill="#e6e6e6" stroke="#000" stroke-width=".6" rx="1.843" ry="1.162" transform="rotate(33.177)"/>
    </g>
</svg>
