<?xml version="1.0" encoding="UTF-8" standalone="no"?>
<svg
   xmlns:dc="http://purl.org/dc/elements/1.1/"
   xmlns:cc="http://creativecommons.org/ns#"
   xmlns:rdf="http://www.w3.org/1999/02/22-rdf-syntax-ns#"
   xmlns:svg="http://www.w3.org/2000/svg"
   xmlns="http://www.w3.org/2000/svg"
   xmlns:xlink="http://www.w3.org/1999/xlink"
   version="1.1"
   id="svg4206"
   viewBox="0 0 256 256">
  <style
     id="style3">
    svg { cursor: default; }
  </style>
  <defs
     id="defs4208">
    <linearGradient
       id="linearGradient1123">
      <stop
         style="stop-color:#ff5555;stop-opacity:1"
         offset="0"
         id="stop1127" />
      <stop
         id="stop1121"
         offset="1"
         style="stop-color:#ff8080;stop-opacity:1" />
    </linearGradient>
    <linearGradient
       gradientTransform="matrix(-1.2044768,-0.11548002,-0.11548002,1.2044768,1039.5179,-491.87796)"
       gradientUnits="userSpaceOnUse"
       y2="538.85712"
       x2="684.28577"
       y1="634.40179"
       x1="692.25885"
       id="linearGradient1125"
       xlink:href="#linearGradient1123" />
  </defs>
  <metadata
     id="metadata4211">
    <rdf:RDF>
      <cc:Work
         rdf:about="">
        <dc:format>image/svg+xml</dc:format>
        <dc:type
           rdf:resource="http://purl.org/dc/dcmitype/StillImage" />
        <dc:title></dc:title>
      </cc:Work>
    </rdf:RDF>
  </metadata>
  <g
     id="layer4">
    <path
       id="path1155"
       d="m 219.9926,220.2204 c -15.28701,-63.438 -116.75469,-15.47079 -167.203404,0.68305 -3.380798,6.06961 171.353224,2.76791 167.203404,-0.68305 z"
       style="fill:#ff2a2a;fill-rule:evenodd;stroke:#000000;stroke-width:1px;stroke-linecap:butt;stroke-linejoin:miter;stroke-opacity:1" />
    <path
       id="path1063"
       d="m 219.9926,220.2204 c -5.33089,-19.12726 -169.839866,5.38798 -167.203404,0.68305 0.54392,-2.06453 2.189962,-4.25974 1.243272,-6.1756 -5.617244,-11.36795 -5.585053,-21.95228 -8.347534,-32.92553 -0.132578,-1.79084 -0.06684,-4.63707 -0.630627,-7.00645 -3.497639,-0.39296 -5.705876,-2.21536 -3.968878,-8.41183 -1.630101,-3.52229 -3.782945,-6.89147 -2.389666,-11.29928 -4.401641,-1.83044 -6.686315,-5.22798 -4.499281,-11.93568 -0.87501,-2.16334 -0.976001,-5.47045 -3.140919,-5.72768 -2.829728,-0.5336 -3.608454,-2.88166 -3.314747,-6.17849 -2.815605,-8.99069 -6.401176,-17.92774 -10.451163,-26.83242 6.802773,-8.837128 14.387928,-16.883579 22.928287,-24.066263 23.228651,-19.535924 54.161336,-29.825084 78.5101,-30.226198 18.75536,-0.30897 35.24605,5.077895 52.81798,5.265595 0,0 20.76397,-0.69367 30.82032,0.964118 4.22401,0.696322 11.961,3.35463 11.961,3.35463 1.77179,11.745006 30.28418,16.849674 27.69024,55.427288 -1.45339,21.61488 -16.32179,38.05884 -25.03686,57.26535 0.29995,2.63351 0.57472,5.26459 -0.52729,7.76368 -0.83354,4.36053 0.93091,7.71919 1.72379,11.45252 0.76406,3.92076 0.4266,7.71924 -0.2326,11.48199 1.5257,2.30656 2.53719,5.03734 2.18634,8.89211 1.00465,2.84577 0.19595,5.51769 -0.13836,8.23509 z"
       style="fill:url(#linearGradient1125);fill-opacity:1;fill-rule:evenodd;stroke:#000000;stroke-width:1.21000004px;stroke-linecap:butt;stroke-linejoin:miter;stroke-opacity:1" />
    <path
       id="path1065"
       d="m 220.13096,211.98531 c -17.3485,-14.3349 -109.09613,-0.53435 -165.59171,3.11673"
       style="fill:none;fill-rule:evenodd;stroke:#000000;stroke-width:0.60500002;stroke-linecap:butt;stroke-linejoin:miter;stroke-miterlimit:4;stroke-dasharray:none;stroke-opacity:1" />
    <path
       id="path1067"
       d="m 210.97561,144.46942 c -1.24945,0.0291 -5.17047,0.0222 -8.30803,0.004 -3.44853,-0.0195 -7.0261,-0.0878 -8.81816,-0.0874 -2.41521,5.3e-4 -6.82742,0.0106 -11.44418,-0.32335 -4.76658,-0.34476 -9.61548,-1.03422 -14.20957,-2.36418 -5.88652,-1.70411 -9.82482,-4.03022 -12.38208,-5.9912 2.56946,1.97033 6.39977,4.3949 12.29007,6.29212 4.58305,1.47617 9.44443,2.32299 14.23813,2.80074 4.67134,0.46554 9.05146,0.54946 11.50784,0.54893 2.02823,-4.4e-4 5.16414,-0.15874 8.83204,-0.39436 3.66401,-0.23537 6.5115,-0.44415 8.29394,-0.48574 z"
       style="fill:#ff2a2a;fill-rule:nonzero;stroke:none;stroke-width:1.21000004px;stroke-linecap:butt;stroke-linejoin:miter;stroke-opacity:1" />
    <path
       id="path1071"
       d="m 95.755223,161.03566 c -2.6858,0.39017 -5.9973,0.94102 -10.519504,2.55912 -4.074525,1.4579 -7.907343,3.38473 -9.795985,4.45944 -0.284191,0.16172 -0.603573,0.34886 -0.955468,0.55995 -2.382722,1.42934 -6.15892,3.97273 -9.876693,6.26482 -4.02801,2.48335 -7.119251,4.06283 -9.488722,4.97659 2.640296,-1.0182 5.321688,-2.0759 9.831351,-4.36555 3.283962,-1.66733 8.518449,-4.55031 10.304381,-5.5416 0.354525,-0.19678 0.677583,-0.37752 0.957555,-0.53683 1.882443,-1.07119 5.442612,-3.29276 9.319742,-5.09427 4.160605,-1.93322 7.671988,-2.91103 10.223343,-3.28167 z"
       style="fill:#ff2a2a;fill-rule:nonzero;stroke:none;stroke-width:1.21000004px;stroke-linecap:butt;stroke-linejoin:miter;stroke-opacity:1" />
    <path
       id="path1075"
       d="m 89.250709,150.43543 c -2.787977,0.40331 -6.174055,1.0518 -10.560497,2.95304 -2.864317,1.24149 -5.359382,2.69075 -6.691629,3.55418 -0.722149,0.46802 -1.621931,1.08627 -2.700362,1.86812 -2.628528,1.90566 -6.054085,4.65535 -9.303356,7.0538 -3.508308,2.58966 -6.103583,4.19569 -8.180402,5.23246 2.214264,-1.10538 4.628051,-2.40064 8.423658,-4.88251 3.391216,-2.21745 6.976721,-4.75832 9.659476,-6.54051 1.152216,-0.76544 1.954869,-1.28212 2.719194,-1.77748 1.321808,-0.85665 3.649081,-2.44352 6.373574,-3.88207 4.050875,-2.13889 7.579993,-3.19129 10.260344,-3.57903 z"
       style="fill:#ff2a2a;fill-rule:nonzero;stroke:none;stroke-width:1.21000004px;stroke-linecap:butt;stroke-linejoin:miter;stroke-opacity:1" />
    <path
       id="path1079"
       d="m 41.085429,166.38404 c 0,0 0.53415,0.28409 0.53415,0.28409 0.179068,-0.33668 0.440222,-0.80326 1.036562,-1.47671 0.443616,-0.50098 0.975731,-1.00796 1.607564,-1.56712 1.424059,-1.26028 2.885501,-2.52906 3.501521,-3.12233 -0.835124,0.80428 -1.942461,1.41647 -3.865169,2.63881 -0.71353,0.45362 -1.359475,0.89163 -1.91562,1.34931 -0.748854,0.61626 -1.191888,1.15622 -1.433158,1.60986 0,0 0.53415,0.28409 0.53415,0.28409 z"
       style="fill:#ff2a2a;fill-rule:nonzero;stroke:none;stroke-width:1.21000004px;stroke-linecap:butt;stroke-linejoin:miter;stroke-opacity:1" />
    <path
       id="path1083"
       d="m 45.054307,174.79587 c 0,0 -0.143677,0.58769 -0.143677,0.58769 1.331601,0.32555 3.151845,0.32538 5.455534,-0.28995 2.10041,-0.56104 4.079207,-1.45811 5.075516,-1.80698 -0.922415,0.323 -3.154916,0.96859 -5.190598,1.21302 -2.352872,0.28253 -3.844126,0.004 -5.053098,-0.29147 0,0 -0.143677,0.58769 -0.143677,0.58769 z"
       style="fill:#ff2a2a;fill-rule:nonzero;stroke:none;stroke-width:1.21000004px;stroke-linecap:butt;stroke-linejoin:miter;stroke-opacity:1" />
    <path
       id="path1087"
       d="m 38.695763,155.08476 c 0,0 0.359493,0.48661 0.359493,0.48661 2.636834,-1.94801 5.439868,-3.32495 11.485255,-5.49726 5.092315,-1.82984 10.076973,-3.92126 12.310358,-5.2395 -3.069628,1.81182 -6.325333,2.82839 -12.49895,4.66465 -5.99581,1.78337 -9.343889,3.12508 -12.015649,5.09889 0,0 0.359493,0.48661 0.359493,0.48661 z"
       style="fill:#ff2a2a;fill-rule:nonzero;stroke:none;stroke-width:1.21000004px;stroke-linecap:butt;stroke-linejoin:miter;stroke-opacity:1" />
    <path
       id="path1091"
       d="m 34.196482,143.14908 c 0,0 0.253699,0.54924 0.253699,0.54924 0.697094,-0.322 2.456924,-1.04101 4.421532,-1.76396 2.450919,-0.9019 3.347883,-1.34226 4.426736,-1.96667 -0.881448,0.51016 -2.294215,0.90066 -4.5941,1.38528 -2.331649,0.49132 -3.758441,0.78352 -4.761566,1.24687 0,0 0.253699,0.54924 0.253699,0.54924 z"
       style="fill:#ff2a2a;fill-rule:nonzero;stroke:none;stroke-width:1.21000004px;stroke-linecap:butt;stroke-linejoin:miter;stroke-opacity:1" />
    <path
       id="path1095"
       d="m 27.740816,131.24291 c 0,0 0.534792,0.28288 0.534792,0.28288 0.995366,-1.88174 2.591418,-4.25864 5.476735,-6.6789 2.153202,-1.80614 4.715966,-3.38124 7.676752,-4.79822 3.383908,-1.61949 6.989946,-2.88614 10.115978,-3.89319 2.664193,-0.85827 6.17686,-1.89501 7.363555,-2.24258 -2.116115,0.61979 -11.756426,3.01631 -17.729606,5.58487 -3.044818,1.30932 -5.739091,2.81019 -8.036293,4.5932 -3.088382,2.39709 -4.87511,4.86211 -5.936705,6.86906 0,0 0.534792,0.28288 0.534792,0.28288 z"
       style="fill:#ff2a2a;fill-rule:nonzero;stroke:none;stroke-width:1.21000004px;stroke-linecap:butt;stroke-linejoin:miter;stroke-opacity:1" />
    <path
       id="path1099"
       d="m 58.611581,102.60318 c -2.291998,1.05743 -9.429072,3.63858 -11.73233,4.6727 -1.665648,0.74784 -4.916668,2.35787 -8.114663,4.10587 -3.723853,2.03542 -5.76509,3.34289 -7.835944,4.60662 1.762954,-1.07583 4.553786,-2.53389 8.070273,-4.13865 3.296715,-1.50447 6.653896,-2.87582 8.309056,-3.61895 2.297583,-1.03157 9.01161,-4.57016 11.303608,-5.62759 z"
       style="fill:#ff2a2a;fill-rule:nonzero;stroke:none;stroke-width:1.21000004px;stroke-linecap:butt;stroke-linejoin:miter;stroke-opacity:1" />
    <path
       id="path1103"
       d="m 211.11365,177.42119 c -0.93389,-0.92525 -3.63665,-3.87386 -4.68774,-4.69699 -1.24475,-0.97479 -3.37827,-2.42628 -6.01377,-3.90415 -2.73878,-1.5358 -4.8731,-2.48068 -6.4049,-3.19922 1.41272,0.66268 3.69298,1.9139 6.18082,3.56594 2.61444,1.73609 4.37511,3.17041 5.7079,4.21414 1.03596,0.81128 4.2838,3.09503 5.21769,4.02028 z"
       style="fill:#ff2a2a;fill-rule:nonzero;stroke:none;stroke-width:1.21000004px;stroke-linecap:butt;stroke-linejoin:miter;stroke-opacity:1" />
  </g>
  <g
     style="opacity:1"
     id="layer3" />
</svg>
