<svg xmlns="http://www.w3.org/2000/svg" xmlns:xlink="http://www.w3.org/1999/xlink" cursor="default" viewBox="0 0 256 256">
    <defs>
        <linearGradient id="innoGrad1">
            <stop offset="0" stop-color="#f55"/>
            <stop offset="1" stop-color="#ff8080"/>
        </linearGradient>
        <linearGradient id="innoGrad2">
            <stop offset="0" stop-color="#f55"/>
            <stop offset="1" stop-color="#ff8080"/>
        </linearGradient>
        <linearGradient id="innoGrad3">
            <stop offset="0" stop-color="#ff2a2a"/>
            <stop offset=".307" stop-color="#f55"/>
            <stop offset=".522" stop-color="#f55"/>
            <stop offset="1" stop-color="#ff2a2a"/>
        </linearGradient>
        <linearGradient id="linearGradient4693" x1="96.429" x2="147.857" y1="85.464" y2="93.143" gradientUnits="userSpaceOnUse" xlink:href="#innoGrad3"/>
        <linearGradient id="linearGradient4705" x1="107.834" x2="76.772" y1="63.061" y2="71.395" gradientUnits="userSpaceOnUse" xlink:href="#innoGrad2"/>
        <linearGradient id="linearGradient4713" x1="141.421" x2="175.261" y1="51.444" y2="66.091" gradientUnits="userSpaceOnUse" xlink:href="#innoGrad1"/>
    </defs>
    <path fill="url(#linearGradient4693)" fill-rule="evenodd" stroke="#000" d="M96.917 27.398c18.727-9.742 37.479-20.977 55.715-1.786l-9.822 145.536-51.607-.179z"/>
    <path fill="#f55" fill-rule="evenodd" stroke="#000" d="M92.275 192.755c15.08-4.51 34.71-3.711 53.928-3.393l-2.143-28.214c-12.955.633-23.8-.187-48.571 3.036z"/>
    <path fill="#ff8080" fill-rule="evenodd" stroke="#000" d="M74.417 36.148c-14.242-.328-13.432 4.554-13.214 14.286 1.838 81.978-6.121 129.639-9.726 193.477 5.533 5.49 19.824 3.785 20.569.08 4.33-80.403 9.803-84.384 8.443-135.522-2.024-24.107 14.681-71.844-6.072-72.321z"/>
    <path fill="url(#linearGradient4705)" fill-rule="evenodd" stroke="#000" d="M93.649 29.151c-7.585 2.738-10.423 7.13-20.035 7.086-3.125 7.828-1.754 52.715 6.996 74.927 7.293 18.515-1.131 46.738-4.176 71.582 5.678 10.72 9.76 13.68 16.594 16.435 1.713-4.46 3.457-9.432 4.96-12.854 0 0 8.605-22.355 9.197-34.108 1.47-29.186-2.02-52.944-6.285-79.14 3.935-15.371-2.338-41.385-7.251-43.928z"/>
    <path fill="none" stroke="#000" stroke-width=".5" d="M91.166 198.674c9.7-22.588 16.199-47.042 14.521-76.267"/>
    <path fill="#ff8080" fill-rule="evenodd" stroke="#000" d="M107.39 130.612c-1.658-19.218-24.547-28.928-32.973-49.107 4.842-17.314 14.171-26.72 26.943-31.764 6.488 29.551 5.292 54.416 6.03 80.871z"/>
    <path fill="#f55" fill-rule="evenodd" stroke="#000" d="M107.453 13.068l-5.178 17.187c8.48-7.206 35.511-10.718 51.607 2.679l-8.08-19.822c-9.504-11.798-31.214-7.486-38.349-.044z"/>
    <path fill="#ff8080" fill-rule="evenodd" stroke="#000" d="M181.402 34.698c5.466 1 7.418.768 12.34.716 5.158-.055 4.955 4.981 5.018 9.118.094 6.184-.665 11.982-.517 18.155 1.488 62.03 6.262 123.904 6.174 186.318-7.4 3.79-15.161 2.897-23.035.536-.872-53.41.97-106.678-8.393-160.536z"/>
    <path fill="url(#linearGradient4713)" fill-rule="evenodd" stroke="#000" d="M125.489 127.04c3.452 18.87 4.421 36.552 10.357 56.608 3.145 10.628 9.509 25.718 12.679 26.071 4.912.548 24.032-12.544 30.178-21.607-.836-40.128-11.543-45.079-12.857-63.66-.423-5.988 8.014-27.337 12.812-50.717 2.72-13.25 3.853-26.074 5.307-38.48-11.342-2.917-22.075-5.833-32.94-8.75-2.246 5.623-1.836 12.61-5.947 16.532-5.927 5.654-12.43 55.734-19.59 84.004z"/>
    <path fill="none" stroke="#000" stroke-width=".5" d="M127.433 126.084c2.883 23.917 6.853 50.063 16.477 72.817"/>
    <path fill="none" stroke="#000" d="M145.846 170.077s2.75-26.068 4.732-39.018c2.523-16.486 9.107-49.197 9.107-49.197"/>
    <path fill="none" stroke="#e3dedb" stroke-dasharray="1,1" d="M146.292 169.987s2.75-26.067 4.733-39.018c2.523-16.485 9.107-49.196 9.107-49.196"/>
    <path fill="#ff8080" fill-rule="evenodd" stroke="#000" d="M142.23 47.175c-11.072 26.567-19.361 75.97-16.25 81.607 19.844-33.366 31.6-36.804 47.187-54.42-2.202-7.106-19.326-17.841-30.937-27.187z"/>
    <path fill="#999" fill-rule="evenodd" stroke="#000" d="M121.203 27.577l-.357 4.285a54.987 54.987 0 0 1 15.536.625l.357-4.375c-5.544-.657-10.464-1.769-15.536-.535z"/>
    <path fill="#ff8080" fill-rule="evenodd" stroke="#000" d="M101.739 51.327c-5.403-12.202-15.38 5.165-24.107 14.464-1.928-1.679-3.76-3.39-4.286-5.536 10.57-23.395 21.944-36.7 35.357-48.482-5.423 11.305-9.329 23.529-6.964 39.554zM142.007 9.764c3.616 10.638 8.01 22.527.484 36.741 5.752-2.677 9.922 10.688 27.998 16.429l8.214-6.607C164.124 35.65 155.578 20.03 142.007 9.764z"/>
    <path fill="none" stroke="#000" stroke-width=".5" d="M51.65 239.273c5.439 2.311 11.104 4.274 20.178.982"/>
    <path fill="#f55" fill-rule="evenodd" stroke="#000" d="M76.686 180.67c-.408 3.332-.972 8.687-1.136 11.865-.118 2.29-.517 3.453.475 5.042 3.27 5.243 5.944 10.438 11.102 11.879 1.576.44 3.849-4.878 6.155-10.938-6.247-1.06-11.979-11.582-16.596-17.848zM141.916 199.97c2.466 5.426 4.966 9.566 6.609 9.75 4.912.547 24.032-12.545 30.178-21.608-.137-4.4-.404-8.58-.75-12.67-5.472 5.994-24.036 20.012-36.037 24.528z"/>
    <path fill="none" stroke="#000" stroke-width=".5" d="M75.13 80.233c11.19 18.238 28.838 31.167 31.946 42.3M125.327 126.553c10.56-19.901 36.482-43.852 47.033-53.197"/>
    <path fill="none" stroke="#e3dbdb" stroke-dasharray="1,1" d="M100.696 176.782c4.684-13.947 7.816-28.039 6.001-46.672.05-6.48-5.815-15.464-12.988-22.769-10.917-11.119-14.166-14.536-19.664-25.207"/>
    <path fill="#e3dedb" fill-rule="evenodd" stroke="#000" stroke-width=".5" d="M74.317 83.572l-.947 5.682c.867 1.226 1.57.646 2.273.064l-.695-5.62z"/>
    <path fill="#e3dedb" fill-rule="evenodd" stroke="#000" stroke-width=".5" d="M74.934 83.603l.196-1.32c-.27-.674-.768-.443-1.287-.123l.378 1.42z"/>
    <ellipse cx="78.346" cy="79.652" fill="#e3dedb" stroke="#000" stroke-linecap="round" stroke-linejoin="round" stroke-width=".5" rx="1.805" ry="1.738"/>
    <ellipse cx="168.695" cy="72.847" fill="#e3dedb" stroke="#000" stroke-linecap="round" stroke-linejoin="round" stroke-width=".5" rx="1.805" ry="1.738"/>
    <ellipse cx="169.958" cy="56.811" fill="#e3dedb" stroke="#000" stroke-linecap="round" stroke-linejoin="round" stroke-width=".5" rx="1.805" ry="1.738"/>
    <ellipse cx="31.319" cy="92.823" fill="#e3dedb" stroke="#000" stroke-linecap="round" stroke-linejoin="round" stroke-width=".437" rx="1.725" ry="1.39" transform="rotate(-33.906)"/>
    <path fill="none" stroke="#000" stroke-width=".5" d="M143.433 44.448c3.995-2.42 14.174 12.287 26.651 15.961 2.261-.956 4.277-2.526 6.061-4.672-8.793-11.228-15.06-22.771-22.097-34.219M101.025 47.04c-5.244-6.986-15.272 7.24-23.304 15.983-1.488-.655-2.321-1.667-2.857-3.036 5.489-10.882 11.597-21.676 18.75-32.321"/>
    <path fill-rule="evenodd" d="M169.513 139.384a19.635 19.635 0 0 0-.508-1.083c-4.006-4.135-9.864-6.955-15.123-8.939 5.212 2.206 10.876 5.202 14.631 9.397.338.198.672.406 1 .625zM166.604 130.014a7.304 7.304 0 0 0-.169-1.341c-.855-1.75-2.35-3.2-4.026-4.431-2.062-1.517-4.452-2.744-6.384-3.808 1.89 1.166 4.205 2.476 6.185 4.067 1.612 1.295 2.966 2.75 3.688 4.42.263.335.501.698.706 1.093zM166.078 121.916c.032-.348.038-.699.021-1.052-.482-1.584-1.443-2.968-2.396-4.18.85 1.313 1.655 2.733 1.982 4.287.15.299.283.614.393.945zM91.025 177.04c-2.612-8.308-4.932-17.018-6.222-25.78-.922-4.958-1.514-9.957-1.636-14.933-.12 4.98.23 10.018.918 15.048 1.537 8.77 4.1 17.442 6.94 25.666zM96.382 154.184c-1.832-3.828-3.193-7.796-4.287-11.835-1.745-5.466-3.001-11.103-4.285-16.737 1.07 5.665 2.12 11.369 3.668 16.922 1.31 4.009 2.878 7.915 4.904 11.65zM59.796 132.777c.177-.414.352-.824.528-1.23 2.18-17.696 3.19-28.542 2.448-44.332.498 15.789-.753 26.6-3.17 44.238.065.437.13.879.194 1.324zM179.101 144.543c.206-.241.408-.487.608-.736 3.38-9.674 2.363-21.072 1.016-31.011 1.148 10.018 1.931 21.321-1.598 30.8-.005.315-.013.63-.026.947zM198.842 73.068a10.542 10.542 0 0 1-.223-1.05c-1.192-2.194-1.773-5.082-2.1-8.092-.375-3.444-.408-6.895-.68-9.645.15 2.706.072 6.251.325 9.678.223 3.014.706 6.015 1.86 8.365.266.27.538.52.818.744z"/>
    <path fill="none" stroke="#000" stroke-width=".5" d="M181.172 243.98c5.44 2.31 14.14 2.978 23.215-.313"/>
    <path fill="#e3dedb" fill-rule="evenodd" stroke="#000" stroke-width=".5" d="M146.013 170.951l-.947 5.682c.867 1.225 1.57.646 2.273.063l-.695-5.619z"/>
    <path fill="#e3dedb" fill-rule="evenodd" stroke="#000" stroke-width=".5" d="M146.63 170.982l.196-1.321c-.27-.673-.767-.443-1.287-.122l.378 1.42z"/>
</svg>
