<svg xmlns="http://www.w3.org/2000/svg" xmlns:xlink="http://www.w3.org/1999/xlink" cursor="default" viewBox="0 0 256 256">
    <defs>
        <linearGradient id="linearGradient1123">
            <stop offset="0" stop-color="#f55"/>
            <stop offset="1" stop-color="#ff8080"/>
        </linearGradient>
        <linearGradient id="linearGradient1125" x1="692.259" x2="684.286" y1="634.402" y2="538.857" gradientTransform="scale(-1.21 1.21) rotate(-5.477 -4679.252 8777.912)" gradientUnits="userSpaceOnUse" xlink:href="#linearGradient1123"/>
    </defs>
    <path fill="#ff2a2a" fill-rule="evenodd" stroke="#000" d="M219.993 220.22c-15.287-63.438-116.755-15.47-167.204.683-3.38 6.07 171.353 2.768 167.204-.683z"/>
    <path fill="url(#linearGradient1125)" fill-rule="evenodd" stroke="#000" stroke-width="1.21" d="M219.993 220.22c-5.331-19.127-169.84 5.388-167.204.683.544-2.064 2.19-4.26 1.243-6.175-5.617-11.368-5.585-21.952-8.347-32.926-.133-1.79-.067-4.637-.63-7.006-3.498-.393-5.707-2.215-3.97-8.412-1.63-3.522-3.783-6.891-2.39-11.3-4.4-1.83-6.686-5.227-4.499-11.935-.875-2.163-.976-5.47-3.14-5.728-2.83-.533-3.609-2.881-3.315-6.178-2.816-8.99-6.401-17.928-10.451-26.833 6.802-8.837 14.388-16.883 22.928-24.066 23.229-19.536 54.161-29.825 78.51-30.226 18.755-.309 35.246 5.078 52.818 5.266 0 0 20.764-.694 30.82.964 4.224.696 11.961 3.354 11.961 3.354 1.772 11.745 30.285 16.85 27.69 55.428-1.453 21.615-16.321 38.058-25.036 57.265.3 2.634.574 5.265-.528 7.764-.833 4.36.931 7.719 1.724 11.452.764 3.921.427 7.72-.232 11.482 1.525 2.307 2.537 5.038 2.186 8.892 1.005 2.846.196 5.518-.138 8.235z"/>
    <path fill="none" stroke="#000" stroke-width=".605" d="M220.131 211.985c-17.349-14.335-109.096-.534-165.592 3.117"/>
    <path fill="#ff2a2a" d="M210.976 144.47c-1.25.029-5.17.022-8.308.003-3.449-.02-7.027-.087-8.819-.087-2.415 0-6.827.01-11.444-.323-4.766-.345-9.615-1.035-14.21-2.365-5.886-1.704-9.824-4.03-12.381-5.99 2.57 1.97 6.4 4.394 12.29 6.291 4.583 1.477 9.444 2.323 14.238 2.801 4.671.466 9.051.55 11.508.55 2.028-.001 5.164-.16 8.832-.395 3.664-.236 6.511-.444 8.294-.486zM95.755 161.036c-2.686.39-5.997.94-10.52 2.559-4.074 1.458-7.907 3.385-9.795 4.46-.284.16-.604.348-.956.56-2.382 1.429-6.159 3.972-9.876 6.264-4.028 2.483-7.12 4.063-9.49 4.977 2.641-1.019 5.323-2.076 9.832-4.366 3.284-1.667 8.519-4.55 10.305-5.542.354-.196.677-.377.957-.536 1.883-1.072 5.443-3.293 9.32-5.095 4.16-1.933 7.672-2.91 10.223-3.281zM89.25 150.435c-2.787.404-6.173 1.052-10.56 2.953-2.864 1.242-5.36 2.691-6.691 3.555a64.142 64.142 0 0 0-2.7 1.868c-2.63 1.905-6.055 4.655-9.304 7.054-3.508 2.59-6.104 4.195-8.18 5.232 2.214-1.105 4.628-2.4 8.423-4.882 3.391-2.218 6.977-4.759 9.66-6.541 1.152-.765 1.954-1.282 2.719-1.777 1.322-.857 3.649-2.444 6.373-3.883 4.051-2.138 7.58-3.19 10.26-3.579zM41.085 166.384l.535.284c.179-.337.44-.803 1.036-1.477.444-.5.976-1.008 1.608-1.567 1.424-1.26 2.885-2.529 3.501-3.122-.835.804-1.942 1.416-3.865 2.639-.713.453-1.36.891-1.916 1.35-.748.615-1.191 1.155-1.433 1.609l.534.284zM45.054 174.796l-.143.588c1.331.325 3.151.325 5.455-.29 2.1-.561 4.08-1.458 5.076-1.807-.923.323-3.155.968-5.19 1.213-2.354.282-3.845.004-5.054-.292l-.144.588zM38.696 155.085l.36.486c2.636-1.948 5.44-3.325 11.485-5.497 5.092-1.83 10.076-3.921 12.31-5.24-3.07 1.812-6.325 2.829-12.5 4.665-5.995 1.784-9.343 3.125-12.015 5.1l.36.486zM34.196 143.15l.254.548c.697-.322 2.457-1.04 4.422-1.764 2.45-.902 3.348-1.342 4.426-1.966-.881.51-2.294.9-4.594 1.385-2.331.491-3.758.783-4.761 1.247l.253.55zM27.74 131.243l.536.283c.995-1.882 2.591-4.259 5.476-6.68 2.154-1.805 4.716-3.38 7.677-4.797 3.384-1.62 6.99-2.886 10.116-3.894 2.664-.858 6.177-1.895 7.364-2.242-2.116.62-11.757 3.016-17.73 5.585-3.045 1.31-5.74 2.81-8.036 4.593-3.089 2.397-4.875 4.862-5.937 6.869l.535.283zM58.612 102.603c-2.292 1.058-9.43 3.639-11.733 4.673-1.665.748-4.916 2.358-8.114 4.106-3.724 2.035-5.766 3.343-7.836 4.606 1.763-1.075 4.553-2.534 8.07-4.138 3.297-1.505 6.654-2.876 8.309-3.62 2.298-1.03 9.012-4.57 11.304-5.627zM211.114 177.421c-.934-.925-3.637-3.874-4.688-4.697-1.245-.975-3.378-2.426-6.014-3.904-2.739-1.536-4.873-2.48-6.405-3.2 1.413.664 3.693 1.915 6.181 3.567 2.615 1.736 4.375 3.17 5.708 4.214 1.036.811 4.284 3.095 5.218 4.02z"/>
</svg>
