<svg xmlns="http://www.w3.org/2000/svg" xmlns:xlink="http://www.w3.org/1999/xlink" cursor="default" viewBox="0 0 256 256">
    <defs>
        <linearGradient id="linearGradient4374">
            <stop offset="0" stop-color="#f55"/>
            <stop offset="1" stop-color="#ff8080"/>
        </linearGradient>
        <linearGradient id="linearGradient4380" x1="128.929" x2="130" y1="222.429" y2="124.929" gradientUnits="userSpaceOnUse" xlink:href="#linearGradient4374"/>
    </defs>
    <g stroke="#000">
        <path fill="#f55" fill-rule="evenodd" d="M119.914 8.07c8.162-1.096 22.523-.026 26.192 1.251.958 7.806-27.997 10.069-26.192-1.251z"/>
        <path fill="#ff8080" fill-rule="evenodd" d="M67.895 176.68l13.514-.645c1.159-20.669 10.023-46.85 10.783-58.656 1.26-19.538.332-36.981-.244-58.32.654 19.234 2.182 29.02 3.82 37.572l68.406 2.917c.518-11.437 4.506-24.11 5.556-36.043-.761 18.246-4.339 35.285-2.284 54.739 2.308 21.85 6.137 41.036 6.45 65.822l15.557 1.39c-.686-25.291.67-50.088-2.06-75.872-2.856-26.986 3.646-78.921-8.461-81.116-4.76-.863-19.388-4.373-29.334-10.294l-33.482.05c-10.87 4.934-27.629 5.828-31.063 6.439-13.651 2.426-10.072 58.112-11.356 74.135-2.078 25.927-6.76 35.074-5.802 77.881z"/>
        <path fill="#faa" fill-rule="evenodd" d="M67.879 174.907c-.287 3.109.179 6.384.442 9.615l13.52-.864c-.918-3.528-.375-6.639-.481-9.935zM173.62 181.288c-.02 3.161-.866 6.681-.793 9.385 2.305-.199 13.356.52 16.765.928-.069-3.147-.056-6.213-.278-9.514-5.477-.868-10.442-1.052-15.695-.799z"/>
        <path fill="url(#linearGradient4380)" fill-rule="evenodd" d="M95.56 109.062c-9.686 38.087-22.875 65.644-10.66 122.093 16.014 17.708 74.977 4.91 83.606 1.608 17.457-54.176-2.686-107.513-4.887-118.7z"/>
        <path fill="none" stroke-width=".55" d="M85.388 24.802c4.441 13.408 7.095 23.795 6.814 38.004M179.175 28.642c-6.858 9.743-9.43 24.924-10.105 38.509"/>
        <path fill="#faa" fill-rule="evenodd" d="M95.004 92.187c.925 4.91 1.805 13.31-.417 20.695 25.558 7.298 47.54 5.303 69.726 4.792-1.679-8.278.06-13.292.139-22.223-23.94.1-46.617-1.146-69.448-3.264zM119.797 8.363c-.988 3.468-.836 6.931-6.95 11.107 7.573 10.684 34.147 9.83 40.424.907-2.821-4.074-7.258-6.69-7.153-10.764-12.176 2.882-20.24 1.777-26.321-1.25zM84.866 231.223c17.846-4.779 55.264-4.953 83.638 1.652-1.02 3.956-2.702 7.757-4.04 11.607-17.042-2.645-62.264-3.782-76.696-1.071-.98-4.023-1.933-7.48-2.902-12.188z"/>
        <path fill="none" stroke-width=".5" d="M80.893 170.554c5.417-22.4 15.645-31.937 19.643-56.161M157.857 117.786c1.24 16.767 11.626 31.74 16.786 53.035M127.857 228.143c.253-46.294 2.743-84.78 1.429-110"/>
    </g>
</svg>
