<svg cursor="default" version="1.1" viewBox="0 0 256 256" xmlns="http://www.w3.org/2000/svg" xmlns:xlink="http://www.w3.org/1999/xlink">
 <defs>
  <linearGradient id="linearGradient903" x1="140.94" x2="112.37" y1="155.9" y2="154.37" gradientUnits="userSpaceOnUse">
   <stop stop-color="#f55" offset="0"/>
   <stop stop-color="#ff8080" offset="1"/>
  </linearGradient>
  <linearGradient id="linearGradient911" x1="130.2" x2="131.07" y1="73.638" y2="33.177" gradientUnits="userSpaceOnUse">
   <stop stop-color="#ff2a2a" offset="0"/>
   <stop stop-color="#f55" offset="1"/>
  </linearGradient>
 </defs>
 <g fill-rule="evenodd" stroke="#000">
  <path d="m111.66 19.928s9.1397 38.44 14.877 37.993c17.235-1.3406 20.423-37.249 20.423-37.249-4.3207-4.7319-22.866-5.303-35.3-0.74419z" fill="url(#linearGradient911)" stroke-width="1.1025"/>
  <g stroke-width=".75">
   <path d="m112.61 9.6467c8.3349-3.8058 28.608-3.0153 31.205 0.099225l-0.0981 10.827c-11.099-2.3075-19.953-1.3825-30.712 0.78829z" fill="#ff8080"/>
   <path d="m125.31 246.49c-24.17 5.1454-43.05-6.6426-55.716-16.735l2.3627-113.01-8.8597 10.04c-19.019-8.7153-25.64-15.363-38.39-23.035 10.066-21.166 21.362-37.22 36.815-58.851 19.589-11.517 31.238-16.486 46.856-24.032l18.507 32.681s12.293 76.456 12.237 83.283c-0.46967 57.485-13.811 109.65-13.811 109.65z" fill="url(#linearGradient903)"/>
   <path d="m124.32 248.26c1.2877 0.65819 48.576 3.1664 59.653-22.247l-1.3781-110.05c2.5688 4.3516 4.3582 11.232 8.2688 11.221 17.225-7.8972 25.639-15.794 38.459-23.693-10.727-14.049-21.89-36.979-38.065-59.585-13.519-9.4782-27.038-13.987-40.557-20.476-2.2888 12.844-2.8599 15.622-20.233 27.998-1.0364 0.73868-0.65709 2.1014-1.8169 2.9106l-1.5336 3.3472s0.23814 11.199-0.13781 27.556c-0.28555 12.405-1.1753 27.609-1.345 44.109-0.25578 24.883 0.23594 52.728-0.0419 71.659-0.22712 15.488-1.2723 47.252-1.2723 47.252z" fill="#ff8080"/>
  </g>
 </g>
 <path d="m107.9 28.451-0.19473-0.46052c-3.6047 1.5242-9.2238 4.0255-13.901 6.5813-5.0908 2.782-8.8766 5.4667-12.094 7.7516 3.1392-2.2296 7.2264-4.8205 12.323-7.3074 4.6856-2.2863 10.533-4.6129 14.061-6.1044l-0.19473-0.46052z"/>
 <g stroke="#000">
  <path d="m152.97 21.755c-2.861-3.7595-5.5528-9.775-9.0559-11.911 0.53141 25.451-1.2723 30.046-13.29 40.162l6.1034-2.657 6.2997 3.937c7.5568-8.2876 8.6824-19.902 9.9424-29.53zm-27.858 28.546c-5.0792-12.573-11.121-26.355-12.403-40.655-2.3674 0.5382-4.1677 6.9877-6.7549 9.8343-0.69232 16.037 6.468 20.755 10.2 31.608l6.2016-4.2325z" fill="#faa" fill-rule="evenodd" stroke-width=".75"/>
  <ellipse cx="129.22" cy="124.29" rx="2.1653" ry="2.1168" fill="#ffb380" stroke-width=".55125"/>
  <path d="m124.07 26.888c0.0232-1.2727 0.0463-2.5453 0.0695-3.818 2.944-0.92387 8.419-0.62832 9.8787 0.15165 0.1619 1.2191 0.21185 2.4383 0.11816 3.6574-0.69127-0.17466-4.8297-0.79184-10.066 0.0089z" fill="#ffe680" fill-rule="evenodd" stroke-width=".55125"/>
 </g>
 <g fill="#ffb380" stroke="#000">
  <g stroke-width=".55125">
   <ellipse cx="129.25" cy="155.26" rx="2.1653" ry="2.1168"/>
   <ellipse cx="129.11" cy="183.38" rx="2.1653" ry="2.1168"/>
   <ellipse cx="128.83" cy="214.98" rx="2.1653" ry="2.1168"/>
   <ellipse cx="129.95" cy="94.285" rx="2.1653" ry="2.1168"/>
   <ellipse cx="130.78" cy="65.606" rx="2.1653" ry="2.1168"/>
  </g>
  <ellipse transform="rotate(52.665)" cx="117.73" cy="-66.145" rx="2.2811" ry="1.2568" stroke-width=".75"/>
 </g>
 <g>
  <path d="m69.591 229.75 0.41262 0.28238c1.9314-2.8222 6.4102-9.5978 9.9729-16.699 4.0186-8.0102 5.6897-13.938 6.5324-18.489-0.82809 4.4717-2.7737 10.496-6.9758 18.258-3.7499 6.9262-8.4433 13.572-10.355 16.366l0.41262 0.28238z"/>
  <path d="m183.97 226.01c-8e-3 -3e-3 0.10928-0.3357 0.10169-0.33898-4.7027-2.0389-10.153-5.4862-15.051-12.526-4.4533-6.4005-7.347-14.363-8.7161-18.318 1.361 3.9318 4.0982 11.99 8.425 18.516 4.7723 7.1974 10.263 10.892 15.062 12.973 8e-3 3e-3 0.17028-0.3093 0.17794-0.30598z"/>
  <path d="m183.08 227.77 0.0933-0.37341c-4.5664-1.1407-4.1216-0.98554-11.237-2.8221-3.4792-0.89806-9.6893-2.5136-10.112-2.628 1.8972 0.51393 5.1057 1.5157 10.008 2.9986 4.8868 1.4782 8.7545 2.5989 11.154 3.1983l0.0933-0.37341z"/>
  <path d="m191.26 43.904-0.49927-0.02696c-0.19866 3.6791-0.10509 8.0746 0.38448 13.357 0.43966 4.7435 0.97537 8.8476 1.0993 10.886 0.0149 0.24582-0.50187-8.447-0.60043-10.919-0.22246-5.5786-0.0973-9.3359 0.11516-13.27l-0.49927-0.02696z"/>
  <path d="m151.28 32.305-0.0501 0.49748c0.38858 0.03914 0.98764 0.11136 1.9149 0.28003 0.7051 0.12826 1.5716 0.30724 2.6155 0.55304 1.8344 0.43194 4.0769 1.038 6.5288 1.7995 2.4582 0.76341 4.8639 1.6016 7.0121 2.4456 2.8931 1.1367 4.8226 2.0876 6.0111 2.7736-1.2174-0.70272-3.0498-1.6917-5.9353-2.9559-2.1247-0.93093-4.4899-1.8648-6.9294-2.7375-2.4206-0.86596-4.6603-1.5808-6.4849-2.1019-1.0402-0.29705-1.9156-0.52278-2.63-0.68725-0.93868-0.21611-1.5748-0.32104-2.0026-0.36414l-0.0501 0.49748z"/>
  <path d="m61.518 44.901s-0.18367 0.46504-0.18367 0.46504c0.84715 0.33458 1.909 0.95871 2.9698 2.3389 0.78852 1.0259 1.4374 2.2895 1.9658 3.6888 0.51723 1.3697 0.86615 2.7304 1.0968 3.7938 0.13088 0.60338 0.2284 1.1336 0.2954 1.5276 0.08749 0.51456 0.13773 0.88119 0.15662 1.0674-0.02061-0.20315-0.04075-0.5415-0.08721-1.0763-0.03489-0.40162-0.08737-0.93446-0.17033-1.5528-0.14558-1.0851-0.39141-2.4818-0.81731-3.919-0.43257-1.4597-1.0147-2.839-1.7868-3.9963-1.0522-1.5769-2.2302-2.3974-3.2554-2.8023 0 0-0.18367 0.46504-0.18367 0.46504z"/>
  <path d="m71.764 117.75s0.49998 5e-3 0.49998 5e-3c0.05277-5.4159-0.01042-12.998-0.11809-20.14-0.10705-7.1009-0.23631-13.291-0.23631-17.453 0 3.9233-0.12074 10.591-0.26369 17.451-0.13668 6.5595-0.33476 15.298-0.38186 20.132 0 0 0.49998 5e-3 0.49998 5e-3z"/>
  <path d="m182.75 116.54 0.49973-0.0164c-0.0957-2.9224-0.25181-6.6732-0.41876-10.184-0.17174-3.6114-0.33185-6.5137-0.48449-9.201-0.15259-2.6865-0.26987-4.6912-0.37081-6.8198-0.0966-2.036-0.16336-3.9167-0.18862-5.3631 0.0251 1.4394 0.0297 3.335 0.0324 5.3669 3e-3 2.0814 4e-3 4.1907 0.0273 6.8323 0.0233 2.6434 0.0674 5.6479 0.14096 9.2134 0.0712 3.452 0.16886 7.3271 0.26256 10.188l0.49973-0.0164z"/>
 </g>
</svg>
