<svg xmlns="http://www.w3.org/2000/svg" xmlns:osb="http://www.openswatchbook.org/uri/2009/osb" xmlns:xlink="http://www.w3.org/1999/xlink" cursor="default" viewBox="0 0 256 256">
    <defs>
        <linearGradient id="linearGradient4509" osb:paint="solid">
            <stop offset="0" stop-color="#faa"/>
        </linearGradient>
        <linearGradient id="linearGradient4503" osb:paint="solid">
            <stop offset="0" stop-color="#ff8080"/>
        </linearGradient>
        <linearGradient id="linearGradient4497" osb:paint="solid">
            <stop offset="0" stop-color="#f55"/>
        </linearGradient>
        <linearGradient id="linearGradient4420">
            <stop offset="0" stop-color="#f55"/>
            <stop offset="1" stop-color="#ff2a2a"/>
        </linearGradient>
        <linearGradient id="linearGradient4426" x1="117.43" x2="117.935" y1="221.655" y2="174.178" gradientTransform="translate(8.081)" gradientUnits="userSpaceOnUse" xlink:href="#linearGradient4420"/>
        <linearGradient id="linearGradient4501" x1="106.836" x2="134.093" y1="8.604" y2="8.604" gradientTransform="translate(8.081)" gradientUnits="userSpaceOnUse" xlink:href="#linearGradient4497"/>
        <linearGradient id="linearGradient4507" x1="104.639" x2="135.552" y1="12.626" y2="12.626" gradientTransform="translate(8.081)" gradientUnits="userSpaceOnUse" xlink:href="#linearGradient4503"/>
        <linearGradient id="linearGradient4513" x1="116.732" x2="123.798" y1="16.844" y2="16.844" gradientTransform="translate(8.24)" gradientUnits="userSpaceOnUse" xlink:href="#linearGradient4509"/>
    </defs>
    <path fill="none" stroke="#000" d="M128.572 23.366l-6.92 20.313 23.795-10.09-34.464.224 25.402 9.82z"/>
    <path fill="#ff2a2a" fill-rule="evenodd" stroke="#000" stroke-width=".6" d="M125.133 10.533c-1.355 10.212-5.113 19.836-19.528 22.939l22.432 22.392 24.2-21.048c-16.348-3.794-19.63-16.667-21.361-24.315-1.879-.276-3.781-.362-5.743.032z"/>
    <path fill="#ff8080" fill-rule="evenodd" stroke="#000" stroke-width=".5" d="M122.148 39.28l.554-1.628-12.784-4.851 1.71 2.15z"/>
    <path fill="url(#linearGradient4501)" fill-rule="evenodd" stroke="#000" stroke-width=".6" d="M116.43 6.67c2.516-1.765 21.299-1.63 23.526-.268l1.518 5.312c-8.217-1.448-16.77-1.76-25.937 0z"/>
    <path fill="url(#linearGradient4426)" fill-rule="evenodd" stroke="#000" stroke-width=".6" d="M82.1 216.625c5.123 6.834 14.01 11.787 23.392 16.964 0 1.19-.096 2.381.357 3.572 1.1.809 3.262 1.44 5 2.143l-1.25 9.553c8.185 3.956 16.406-1.558 24.554-.714 11.549 1.196 10.51-5.368 12.232-10.982 4.16-2.288 11.153-4.083 10.357-7.232 5.394-3.508 12.113-6.612 12.321-11.697l-9.107-50.268-68.75 2.143z"/>
    <path fill="#ff8080" fill-rule="evenodd" stroke="#000" stroke-width=".6" d="M166.423 184.532l2.462 33.35c-5.527-6.73-19.178-12.714-18.625-16.683z"/>
    <path fill="#f55" fill-rule="evenodd" stroke="#000" stroke-width=".6" d="M157.963 171.652c-3.39 9.602-6.97 19.597-7.703 29.863 6.325-4.31 23.186-18.729 23.104-20.21-2.275-6.744-6.985-9.68-15.401-9.653z"/>
    <path fill="#ff8080" fill-rule="evenodd" stroke="#000" stroke-width=".6" d="M84.235 186.101l-2.027 29.22c5.527-6.731 19.724-12.959 19.171-16.927z"/>
    <path fill="#f55" fill-rule="evenodd" stroke="#000" stroke-width=".6" d="M91.01 174.828c5.622 4.334 5.898 11.204 9.935 22.72-8.736-4.668-17.963-9.42-20.47-10.992-.202-4.846 2.119-11.756 10.535-11.728z"/>
    <path fill="#ff8080" fill-rule="evenodd" stroke="#000" stroke-width=".5" d="M145.403 33.79l-1.201 2.01-22.092 9.342-1.35-1.263z"/>
    <path fill="#ff8080" fill-rule="evenodd" stroke="#000" stroke-width=".6" d="M92.278 94.237c.806-15.609 4.145-45.454 5.542-44.134 1.711 1.617 6.673 18.72 6.69 28.576.02 11.918-8.956 34.87-14.066 61.615-3.047 15.95-10.759 25.467-9.993 45.167 11.718-15.284 60.584-20.167 83.345-8.39 6.102 2.292 6.962 3.72 9.604 3.96-.674-9.705-6.176-26.048-7.475-34.685-3.409-22.668-13.899-52.765-14.63-66.834-.424-8.167 4.376-30.504 5.442-28.416 3.532 6.912 4.836 30.968 6.103 46.769l13.277-.972c-1.069-17.977-1.46-36.18-3.214-53.929-.785-7.944-3.46-22.143-15.59-22.75-11.49 11.49-18.602 24.402-28.517 31.5-15.863-14.29-15.073-16.902-33.572-31.696-13.81 6.329-13.893 16.65-14.732 28.214-1.078 14.86.084 21.327-1.205 44.755"/>
    <path fill-rule="evenodd" d="M164.087 176.987l.497.051c.617-7.656 2.57-15.342 1.65-22.116.586 6.783-1.686 14.297-2.645 22.014l.498.051z"/>
    <path fill="#f55" fill-rule="evenodd" stroke="#000" stroke-width=".6" d="M184.511 158.373c2.29 2.895-11.613 7.083-16.826 13.027-1.33 1.517-3.428.741-4.051-.453-.427-8.642 12.594-10.946 20.877-12.574z"/>
    <path fill="#ff8080" fill-rule="evenodd" stroke="#000" stroke-width=".6" d="M79.289 92.852c-.857 13.032-8.952 42.921-17.432 65.297l7.338 3.402c.446 4.349 7.156 6.177 10.355 8.712 4.898 3.883 6.967 9.175 12.248 12.627 1.81-31.23-1.928-59.386.505-89.101M162.75 96.74c1.595 25.116-1.022 49.658.895 74.407-.922-8.195 13.338-8.538 21.087-12.248-5.717-20.876-7.14-42.271-8.679-63.148"/>
    <path fill-rule="evenodd" d="M97.83 50.562a32.47 32.47 0 0 1 1.81-4.22c.638-1.235 1.266-2.247 1.745-2.842-.604.485-1.38 1.41-2.174 2.586a30.004 30.004 0 0 0-2.308 4.102zM157.163 51.002c-1.109-2.271-2.954-4.741-5.261-5.808 2.106 1.337 3.599 3.945 4.335 6.187zM159.604 50.245c-.041-2.536.413-5.032 1.194-7.415.635-2.617 1.665-5.165 2.91-7.548-1.419 2.278-2.652 4.768-3.498 7.381-.602 2.499-.85 5.052-.606 7.582zM69.536 161.586c.469-8.882-.174-18.484 2.816-26.93-3.318 8.373-3.015 18.04-3.813 26.86zM97.974 175.364c-2.522-15.128-.58-31.402-.747-46.896-.166 15.373-2.445 31.798-.241 47.05zM105.42 233.812l.388-.136c-.223-17.718-1.079-31.464-1.209-45.335-.13 13.824.468 27.69.431 45.339l.39.132zM111.153 239.408c1.214-11.566-.604-25.846-1.173-38.335.24 12.591 1.716 26.765.18 38.216zM146.543 237.204a77.5 77.5 0 0 0 .447-.082c1.69-12.16-1.525-25.25 2.26-37.06-4.036 11.657-1.18 25.105-3.11 36.932l.403.21zM157.427 229.758c-1.73-5.34-1.92-13.955-2.087-22.351-.166 8.32-.323 17.064 1.127 22.631zM119.83 231.504c.473-9.35-.122-23.532-.598-36.621-.556-8.3-1.064-16.163-1.219-22.109-.155 5.945.042 13.84.287 22.157.786 13.083 1.693 27.212 1.53 36.573zM132.209 234.497c.99-11.248 1.44-21.18 1.783-30.116.075-10.21.01-19.107.45-27.173-.735 8.052-.965 16.951-1.335 27.154-.047 8.93-.202 18.869-.898 30.135zM140.411 173.799c-.029 4.327-.324 10.183-.752 16.054a421.823 421.823 0 0 1-.084 3.668c-.191 7.049-.538 13.7-.805 17.275.585-3.546 1.252-10.176 1.763-17.227.088-1.215.172-2.443.25-3.67.054-5.906-.026-11.779-.372-16.1zM88.003 35.338c1.81 1.776 3.24 3.87 4.359 6.116 1.386 2.308 2.443 4.845 3.231 7.416-.59-2.618-1.462-5.256-2.696-7.71-1.327-2.201-2.943-4.194-4.894-5.822zM155.05 173.474c.605-7.182.632-14.232 1.397-21.393-1.092 7.088-1.463 14.222-2.39 21.286zM103.974 63.857c2.44 2 5.249 2.979 8.153 3.174 3.69.061 7.4-1.144 10.557-2.995-3.249 1.713-6.954 2.723-10.537 2.502-2.813-.027-5.634-.813-8.173-2.68zM132.407 63.996c2.393 1.475 5.824 1.88 9.129 1.607.122-.015.243-.032.365-.05 3.389-.488 6.529-1.676 8.127-3.072-1.68 1.268-4.838 2.292-8.182 2.622l-.36.033c-3.215.42-6.625.19-9.08-1.14z"/>
    <path fill="url(#linearGradient4507)" fill-rule="evenodd" stroke="#000" stroke-width=".5" d="M116.138 6.94c8.424 8.91 16.78 6.877 24.03-.33 1 .765 2.314 3.658 2.886 5.462-9.19 7.504-17.835 10.15-29.777.488.454-1.986 1.296-4.298 2.86-5.62z"/>
    <path fill="#ff8080" fill-rule="evenodd" stroke="#000" stroke-width=".5" d="M127.56 23.3l-7.001 20.512 1.54 1.295 7.12-21.696z"/>
    <path fill="#ffb380" stroke="#000" stroke-linecap="round" stroke-linejoin="round" stroke-width=".45" d="M128.416 19.221a4.001 2.375 0 0 0-4.001 2.377 4.001 2.375 0 0 0 4.001 2.374 4.001 2.375 0 0 0 4.002-2.374 4.001 2.375 0 0 0-4.002-2.377zm.032.979a2.573 1.373 0 0 1 2.572 1.373 2.573 1.373 0 0 1-2.572 1.37 2.573 1.373 0 0 1-2.573-1.37 2.573 1.373 0 0 1 2.573-1.373z"/>
    <path fill="url(#linearGradient4513)" fill-rule="evenodd" stroke="#000" stroke-width=".5" d="M126.029 12.821l.303 8.13 4.072.03.003-8.365c-2.016.496-2.972.296-4.378.205z"/>
    <path fill="#faa" fill-rule="evenodd" stroke="#000" stroke-width=".5" d="M111.324 34.129l33.387.42 1.495-1.63-36.495-.312z"/>
    <path fill="#ff8080" fill-rule="evenodd" stroke="#000" stroke-width=".5" d="M136.342 45.026l-12.424-5.061.507-1.764 12.987 5.567z"/>
    <path fill="#faa" fill-rule="evenodd" stroke="#000" stroke-width=".5" d="M137.345 43.522l-8.19-20.68c-.533.063-1.374-.013-1.827-.03l8.767 22.027z"/>
    <path fill-rule="evenodd" d="M181.552 159.777c-1.828-6.016-3.845-12.308-4.649-18.682.475 6.43 2.175 12.831 3.685 18.947zM166.708 165.411c-.377-1.694-.598-3.959-.723-6.073a85.903 85.903 0 0 1-.148-5.119c-.171 1.052-.31 3.003-.352 5.129-.042 2.118.013 4.442.237 6.232zM80.864 171.257c.59-1.854.343-4.603.055-7.19-.292-2.632-.655-5.26-.391-7-.432 1.729-.234 4.394-.107 7.04.128 2.685.17 5.229-.497 6.808z"/>
</svg>
