<svg xmlns="http://www.w3.org/2000/svg" xmlns:xlink="http://www.w3.org/1999/xlink" cursor="default" viewBox="0 0 256 256">
    <defs>
        <linearGradient id="innoGrad2">
            <stop offset="0" stop-color="#ff8080"/>
            <stop offset="1" stop-color="#f55"/>
        </linearGradient>
        <linearGradient id="innoGrad3">
            <stop offset="0" stop-color="#f55"/>
            <stop offset="1" stop-color="#ff8080"/>
        </linearGradient>
        <linearGradient id="innoGrad1">
            <stop offset="0" stop-color="#faa"/>
            <stop offset="1" stop-color="#f55"/>
        </linearGradient>
        <linearGradient id="linearGradient4584" x1="315.082" x2="313.538" y1="122.843" y2="132.491" gradientTransform="translate(-218.145 -24.803)" gradientUnits="userSpaceOnUse" xlink:href="#innoGrad1"/>
        <linearGradient id="linearGradient4654" x1="315.082" x2="313.538" y1="122.843" y2="132.491" gradientTransform="translate(-108.58 -24.053) scale(.9025)" gradientUnits="userSpaceOnUse" xlink:href="#innoGrad1"/>
        <linearGradient id="linearGradient4667" x1="50.847" x2="90.497" y1="205.678" y2="130.362" gradientUnits="userSpaceOnUse" xlink:href="#innoGrad3"/>
        <linearGradient id="linearGradient4680" x1="171.781" x2="140.668" y1="117.21" y2="186.888" gradientUnits="userSpaceOnUse" xlink:href="#innoGrad2"/>
    </defs>
    <path fill="#faa" fill-rule="evenodd" d="M133.7 60.2c-25.372 32.836 107.963 36.8 93.473 2.901-10.883-9.367-70.149-13.726-93.473-2.9z"/>
    <path fill="url(#linearGradient4654)" fill-rule="evenodd" d="M202.866 88.983c-14.378-5.93-36.982-10.6-52.944-9.33-29.616 12.58 81.073 33.418 52.944 9.33z" transform="matrix(1.20665 -.18041 .18 1.05732 -50.522 -.508)"/>
    <path fill="none" stroke="#000" stroke-width=".789" d="M140.53 81.396c-25.024 26.786 82.188 48.828 75.142 15.565-7.507-10.14-54.803-22.333-75.143-15.565z" transform="matrix(1.20665 -.18041 .18 1.05732 -50.522 -.508)"/>
    <path fill="url(#linearGradient4680)" fill-rule="evenodd" stroke="#000" stroke-width=".789" d="M124.893 175.468c16.54 14.716 55.734 24.333 76.372 10.216 2.925-2 2.935-2.456 3.116-4.426.614-6.722.289-17.59 1.873-20.159 7.463-12.097 8.666-23.912 8.157-35.684-.202-4.688.914-13.29 3.624-19.986.957-2.365.063-7.05-2.553-8.717.803 10.812-34.204 8.444-56.903.665-15.09-5.172-20.64-12.452-17.472-16.158-2.205.834-4.995 1.829-6.04 4.741-2.604 7.254-.349 17.07-2.058 21.685-4.81 12.988-5.775 23.763-5.519 36.997.067 3.459-3.87 20.546-3.981 21.468-.311 2.593-.696 7.507 1.384 9.358z" transform="matrix(1.20665 -.18041 .18 1.05732 -50.522 -.508)"/>
    <path fill-rule="evenodd" d="M139.383 61.892c-.141 1.57 1.117 2.992 3.437 4.227 2.307 1.228 5.639 2.258 9.619 3.092 7.33 1.535 16.881 2.407 26.388 2.617.82 0 1.639-.003 2.456-.013 10.3-.116 20.31-1.013 27.12-2.692 3.402-.84 6.026-1.88 7.467-3.123.724-.625 1.145-1.297 1.214-2.01.069-.707-.21-1.44-.852-2.201.596.798.795 1.528.673 2.185-.122.653-.562 1.249-1.277 1.795-1.438 1.1-4.009 2.014-7.394 2.74-6.765 1.452-16.698 2.133-26.922 2.037-.81-.007-1.623-.02-2.435-.037-9.442.002-18.944-.654-26.254-1.969-3.97-.714-7.287-1.62-9.604-2.72-2.303-1.093-3.646-2.389-3.636-3.928z"/>
    <path fill="#faa" fill-rule="evenodd" d="M35.881 86.364c-28.114 36.383 119.627 40.775 103.571 3.214C127.393 79.2 61.725 74.37 35.881 86.364z"/>
    <path fill="url(#linearGradient4584)" fill-rule="evenodd" d="M126.947 100.444c-15.932-6.57-40.978-11.745-58.664-10.338-32.816 13.94 89.832 37.029 58.664 10.338z" transform="matrix(1.20665 -.18041 .18 1.05732 -50.522 -.508)"/>
    <path fill="none" stroke="#000" stroke-width=".874" d="M57.875 92.038c-27.726 29.68 91.068 54.103 83.26 17.247-8.317-11.236-60.723-24.746-83.26-17.247z" transform="matrix(1.20665 -.18041 .18 1.05732 -50.522 -.508)"/>
    <path fill="url(#linearGradient4667)" fill-rule="evenodd" stroke="#000" stroke-width=".874" d="M40.55 196.273c18.326 16.306 61.755 26.962 84.622 11.32 3.241-2.218 3.253-2.721 3.452-4.905.681-7.447.321-19.49 2.077-22.336 8.269-13.404 9.601-26.495 9.038-39.54-.225-5.194-.073-13.978 2.93-21.399 1.06-2.62 1.821-7.325-1.744-10.404-1.19 10.19-37.9 9.356-63.05.736-16.72-5.73-22.87-13.796-19.36-17.903-2.443.924-5.534 2.026-6.692 5.253-2.885 8.038-.387 18.914-2.28 24.028-5.33 14.391-6.4 26.33-6.116 40.993.074 3.833-4.288 22.766-4.41 23.788-.346 2.873-.772 8.318 1.533 10.369z" transform="matrix(1.20665 -.18041 .18 1.05732 -50.522 -.508)"/>
    <path fill-rule="evenodd" d="M42.178 88.24c-.157 1.738 1.238 3.314 3.808 4.682 2.556 1.36 6.248 2.503 10.658 3.426 8.122 1.702 18.705 2.668 29.24 2.9.907.001 1.815-.004 2.72-.014 11.414-.129 22.505-1.122 30.05-2.983 3.77-.93 6.677-2.083 8.274-3.46.802-.693 1.268-1.438 1.345-2.227.076-.784-.233-1.596-.944-2.44.66.885.881 1.693.745 2.422-.134.724-.622 1.383-1.414 1.989-1.594 1.217-4.442 2.23-8.193 3.036-7.495 1.608-18.502 2.363-29.831 2.257-.898-.008-1.797-.022-2.697-.041-10.463.002-20.991-.725-29.09-2.182-4.4-.79-8.075-1.796-10.642-3.014-2.552-1.211-4.04-2.647-4.03-4.352z"/>
</svg>
