<?xml version="1.0" encoding="UTF-8"?>
<svg version="1.1" viewBox="0 0 64 64" xmlns="http://www.w3.org/2000/svg">
 <g stroke="#000" stroke-linecap="round" stroke-linejoin="round" stroke-width=".5">
  <path d="m32.035 46.835c-12.601 10.05-31.302 3.1346-30.931-13.802 0.36435-16.652 18.527-24.674 31.345-24.701 14.892-0.03105 30.871 11.734 30.445 24.765-0.65398 20.002-22.472 22.549-30.858 13.738z" fill="#ff8080"/>
  <path d="m32.284 39.509c-4.5125 10.961-26.936 10.835-27.199-5.9138-0.29301-18.635 23.32-17.833 26.772-5.7507 4.2374-11.732 26.378-12.492 26.964 5.4732 0.5572 17.098-21.929 17.965-26.537 6.1913z" fill="#ff8080"/>
  <ellipse transform="rotate(-1.5465)" cx="18.027" cy="33.86" rx="8.6003" ry="8.6841" fill="#f55"/>
  <ellipse transform="rotate(-1.5465)" cx="43.939" cy="34.837" rx="8.6003" ry="8.6841" fill="#f55"/>
  <path d="m31.771 55.669c-2.1101-5.7497-3.6575-9.8661-3.4215-14.992 0.1822-3.9566 6.7054-4.2271 7.0416 0.08924 0.39584 5.0825-1.2462 9.3692-3.6201 14.902z" fill="#ff8080"/>
 </g>
</svg>
