<svg xmlns="http://www.w3.org/2000/svg" viewBox="0 0 256 256">
    <path fill="#231f20" d="M186.936 102.416l-1.502 31.297c-.627 13.069 8.899 24.233 21.277 24.937 12.378.703 22.92-9.32 23.548-22.39l1.502-31.296z"/>
    <path fill="#777" d="M204.018 103.387l-9.265-.527 34.243 40.135a24.83 24.83 0 0 0 1.263-6.734l.097-2.005z"/>
    <path fill="#674a95" d="M186.79 105.47l38.239 44.817a23.818 23.818 0 0 0 3.556-6.164l-35.276-41.345-6.373-.362z"/>
    <path fill="#d75086" d="M186.716 106.995l-.47 9.782 32.991 38.666a22.728 22.728 0 0 0 5.111-4.342z"/>
    <path fill="#3971c6" d="M185.704 128.084l25.845 30.29a21.44 21.44 0 0 0 6.773-2.393l-32.148-37.679z"/>
    <path fill="#f1f2f2" stroke="#000" stroke-linejoin="round" stroke-width=".688" d="M192.246 109.653l-1.124 23.42c-.47 9.78 6.658 18.134 15.921 18.66 9.263.527 17.152-6.974 17.621-16.754l1.124-23.42z"/>
    <path fill="none" stroke="#231f20" stroke-linejoin="round" stroke-width=".688" d="M186.936 102.416l-1.502 31.297c-.627 13.069 8.899 24.233 21.277 24.937 12.378.703 22.92-9.32 23.548-22.39l1.502-31.296z"/>
    <path fill="#ebc633" stroke="#000" stroke-linecap="square" stroke-linejoin="round" stroke-width="1.887" d="M119.263 134.684L115.377 151l5.938-9.65 6.032 27.675 7.481-28.633L141.355 151l-3.731-15.666 21.949 15.886-16.288-22.505 16.44 3.916-10.207-6.279 41.873-6.71-41.872-6.71 10.206-6.28-16.44 3.916 16.288-22.505-21.949 15.887 3.731-15.667-6.527 10.608-6.833-42.645-6.68 41.687-5.938-9.65 3.886 16.316-22.847-16.536 16.134 22.291-15.543-3.702 10.053 6.186-42.461 6.804 42.462 6.803-10.054 6.186 15.542-3.701-16.133 22.29z" transform="matrix(.22272 .01266 -.01129 .23515 180.966 99.45)"/>
    <path fill="#726658" stroke="#000" stroke-linejoin="round" stroke-width=".432" d="M216.288 134.452c-2.4-.268-6.408-2.861-8.373-.927-1.768-2.147-6.004-.021-8.416-.028a5471.19 5471.19 0 0 1-4.497 7.45c2.965.03 6.42-.934 9.558-.76 1.047.057 1.743.564 3.005.63 1.261.066 2.038-.35 3.104-.284 3.122.197 6.444 1.532 9.378 1.837a4775.057 4775.057 0 0 1-3.759-7.918z"/>
    <path fill="#f1f2e0" stroke="#000" stroke-linejoin="round" stroke-width=".432" d="M207.74 137.178l-7.406-.421-4.626 2.454-.048 1c3.487.012 9.17-2.247 11.91.497h0c2.987-2.418 8.424.473 11.894.856l.048-1-4.367-2.965-7.405-.421"/>
    <path fill="#f1f2e0" stroke="#000" stroke-linejoin="round" stroke-width=".432" d="M207.57 140.708c2.913-5.264 8.473-.526 11.942-.144a6938.2 6938.2 0 0 1-3.589-7.74c-2.791-.32-5.828-2.882-7.955-.408-.117 2.43-.28 5.861-.398 8.292z"/>
    <path fill="#ef4136" stroke="#000" stroke-linejoin="round" stroke-width=".216" d="M208.118 132.313s.16-.187.453-.41c.294-.223.63-.418.63-.418l.153 4.362a40.743 40.743 0 0 1-.684-.413c-.269.244-.408.366-.696.61l.144-3.73z"/>
    <path fill="#f1f2e0" stroke="#000" stroke-linejoin="round" stroke-width=".432" d="M207.966 132.487c-1.879-2.701-5.145-.497-7.952-.496-1.435 2.431-2.871 4.862-4.31 7.291 3.486.013 9.47-4.068 11.863 1.497l.399-8.292z"/>
</svg>
