<svg xmlns="http://www.w3.org/2000/svg" xmlns:xlink="http://www.w3.org/1999/xlink" viewBox="0 0 256 256">
    <defs>
        <path id="path3395_2_" d="M127.904 37l-66.158.063.013 97.661c.368 43.881 31.396 69.271 66.106 84.818.181.106.118.038.13.072.029-.013-.024-.018.005-.03.029.014-.163-.059.011.027l.072-.043c34.729-15.546 65.79-40.946 66.159-84.845l.012-97.661L128.083 37z"/>
        <radialGradient id="radialGradient906" cx="100.334" cy="119.349" r="97.645" fx="100.334" fy="119.349" gradientTransform="matrix(1.33882 0 0 .74843 -38.493 29.692)" gradientUnits="userSpaceOnUse" xlink:href="#innoGrad1"/>
        <linearGradient id="innoGrad1">
            <stop offset="0" stop-color="#ff8080" stop-opacity="0"/>
            <stop offset="1" stop-color="#ff2a2a" stop-opacity=".502"/>
        </linearGradient>
        <linearGradient id="linearGradient943" x1="80.144" x2="225.998" y1="145.261" y2="145.261" gradientTransform="translate(-.835)" gradientUnits="userSpaceOnUse" xlink:href="#innoGrad2"/>
        <linearGradient id="innoGrad2">
            <stop offset="0" stop-color="#ff7f2a" stop-opacity=".502"/>
            <stop offset=".262" stop-color="#ff7f2a" stop-opacity="0"/>
            <stop offset=".839" stop-color="#ff7f2a" stop-opacity="0"/>
            <stop offset="1" stop-color="#ff7f2a" stop-opacity=".502"/>
        </linearGradient>
    </defs>
    <g>
        <path fill="#ff8080" d="M239.983 155.19s.534-35.207-19.755-60.787c-15.876-20.015-42.853-30.066-75.34-30.273-21.88-.14-47.994 3.597-76.027 24.452-31.826 23.676-40.031 40.36-51.17 77.64-7.541 25.234-3.395 40.479 5.371 43.066 22.027 6.503 30.692-7.263 53.367-26.102 22.675-18.838 27.654-18.92 27.654-18.92s18.086 8.036 40.805 6.502c22.719-1.533 95.095-15.578 95.095-15.578z"/>
        <path fill="url(#radialGradient906)" stroke="#000" stroke-miterlimit="10" d="M221.966 133.206S222.425 102.969 205 81c-13.635-17.19-36.804-25.822-64.705-26-18.792-.12-41.219 3.089-65.295 21-27.333 20.334-34.38 34.663-43.947 66.681-6.476 21.671-2.915 34.764 4.614 36.986 18.917 5.585 26.359-6.238 45.833-22.417 19.474-16.179 23.75-16.25 23.75-16.25s15.533 6.902 35.045 5.585c19.512-1.317 81.671-13.379 81.671-13.379z" transform="matrix(1.16437 0 0 1.16437 -18.467 .09)"/>
        <path d="M156.479 143.307c-.006-.036-.829.049-2.233.28-1.736.284-4.366.761-7.453 1.417-5.58 1.187-12.67 2.962-18.678 5.254a83.1 83.1 0 0 0-4.662 1.954c-5.784 2.62-11.214 5.772-12.511 6.523a150.52 150.52 0 0 0-4.905 2.95 211.26 211.26 0 0 0-3.243 2.119l.632.924c-.007.005 2.06-1.363 3.21-2.1.582-.372 2.677-1.718 4.824-3.019 1.333-.808 6.556-3.972 12.32-6.69a82.75 82.75 0 0 1 4.59-2.008c5.926-2.366 12.955-4.229 18.51-5.517a255.72 255.72 0 0 1 7.405-1.593c1.393-.28 2.2-.458 2.194-.494z"/>
    </g>
    <g>
        <path fill="#ffb380" d="M242.06 154.53c.582.613-.747.81-.683 2.655.075 2.196 1.253 4.196 1.556 6.21.427 2.824 0 5.317 0 5.317s-4.505 1.45-12.618 2.542c-8.22 1.107-20.121 1.868-31.534 3.688-23.422 3.734-48.147 8.478-52.978 8.916-5.403.49-35.711-1.171-44.343-1.251-8.631-.08-25.831 1.251-25.831 1.251s8.25-6.986 14.595-11.51c6.345-4.523 12.886-8.083 12.886-8.083s28.648 4.367 40.364 3.594c34.199-2.257 63.288-9.104 68.876-9.53 12.289-.936 29.128-4.412 29.71-3.799z"/>
        <path fill="url(#linearGradient943)" stroke="#000" stroke-miterlimit="10" d="M223.75 132.639c.5.526-.642.696-.587 2.28.065 1.886 1.076 3.604 1.337 5.333.366 2.426 0 4.567 0 4.567s-3.869 1.245-10.837 2.183c-7.06.951-17.281 1.604-27.083 3.167-20.115 3.207-41.35 7.282-45.499 7.658-4.64.42-30.67-1.006-38.083-1.075-7.413-.069-22.185 1.075-22.185 1.075s7.086-6 12.535-9.885S104.415 141 104.415 141s24.604 3.75 34.666 3.086c29.371-1.938 54.354-7.819 59.153-8.185 10.554-.803 25.016-3.789 25.516-3.262z" transform="matrix(1.16437 0 0 1.16437 -18.467 .09)"/>
        <g fill="none" stroke="#000" stroke-miterlimit="10" stroke-width=".5">
            <path stroke-width=".582185" d="M241.377 157.185l-.57.086"/>
            <path stroke-dasharray=".9969,.4984" stroke-width=".582185" d="M240.237 157.356c-9.788 1.474-79.606 11.949-93.75 13.118-13.73 1.135-40.672-3.294-45.814-4.17"/>
            <path stroke-width=".582185" d="M100.383 166.253l-.569-.099"/>
        </g>
    </g>
    <g>
        <g>
            <path fill="#58595b" d="M180.066 111.736l4.338 24.89c2.033 11.166 10.315 16.114 19.01 18.373.046.018.028.004.032.012.006-.005-.006-.003 0-.008.007.002-.04-.007.004.007l.015-.015c7.317-5.666 13.352-13.664 11.488-24.87l-4.333-24.891-30.554 6.502z"/>
        </g>
        <g transform="matrix(.23059 -.04907 .0444 .25486 164.162 105.324)">
            <path fill="#1a1a1a" d="M125.177 80.459L61.75 69.442l.002 21.142 63.42-9.303a2.628 2.628 0 0 1 .005-.822zM126.72 83.464l-50.311 97.32c8.039 11.268 18.818 20.426 30.91 27.934l20.242-124.965a2.834 2.834 0 0 1-.841-.289zM125.469 82.229l-63.713 31.613.003 20.883c.031 3.697.297 7.251.748 10.69l63.453-62.484a2.691 2.691 0 0 1-.491-.702zM126.016 78.864L85.755 37.041l-24.009.023.001 8.698L125.5 79.567c.154-.29.319-.514.516-.703zM127.673 78.094l-5.553-41.089-15.339.015 19.941 41.361c.299-.144.628-.243.951-.287zM129.276 78.384l.119.063 22.561-41.424-15.842-.015-7.622 41.099c.248.045.504.136.784.277zM128.391 83.747l19.821 125.263c12.109-7.456 22.929-16.554 31.034-27.748l-49.905-97.823c-.296.15-.624.257-.95.308zM130.018 82.955l63.42 62.93c.489-3.583.772-7.296.805-11.16l.002-20.533-63.702-31.99a2.895 2.895 0 0 1-.525.753zM130.813 81.451l63.435 12.504.003-21.166-63.414 7.845c.035.283.027.559-.024.817zM130.558 79.676l63.694-29.826.002-12.787-19.628-.019-44.545 41.916c.189.2.347.441.477.716z"/>
            <path fill="#f1f2f2" stroke="#010101" stroke-linejoin="round" stroke-width="3" d="M128.001 96c24.589-.027 32.054-13.715 32.054-13.715S150.923 68 128.001 68c-22.922 0-32.232 14.286-32.232 14.286S103.412 96.027 128.001 96z"/>
            <circle cx="127.912" cy="85.583" r="9.583" fill="#eb1f68" stroke="#010101" stroke-linejoin="round" stroke-width="3"/>
            <path stroke="#010101" stroke-linejoin="round" d="M126.412 85.583l1.5-9.583 1.678 9.583L128.001 95z"/>
            <path fill="#7f61a9" stroke="#010101" stroke-linejoin="round" stroke-width="2" d="M95.769 82.286s5.633-7.973 32.232-7.973 32.054 7.972 32.054 7.972S151.84 68.063 128.001 68c-23.839-.063-32.232 14.286-32.232 14.286z"/>
        </g>
        <g transform="matrix(.23059 -.04907 .0444 .25486 164.162 105.324)">
            <path fill="#7f61a9" stroke="#010101" stroke-miterlimit="10" d="M124.72 197.783s-4.584 6.002-11.712 2.001c-2.051-1.151-4.053-5.961-7.467-9.748-2.236-2.48-5.787-3.905-7.882-5.733-1.354-1.181-2.062-2.678-3.346-3.069-3.346-1.018-6.762-2.515-7.951-5.954-1.035-2.991-.245-7.338 2.35-8.377 2.594-1.037 6.983 1.238 6.983 1.238h58.924z"/>
            <circle cx="127.56" cy="144.425" r="44.739" fill="#daabcf" stroke="#010101" stroke-miterlimit="10" stroke-width="3"/>
            <path fill="#7f61a9" stroke="#010101" stroke-miterlimit="10" d="M115.045 192.655s.903-13.667 10.552-12.463c10.108 1.259-1.375 18.148-1.375 18.148"/>
            <path fill="#7f61a9" stroke="#010101" stroke-miterlimit="10" d="M149.163 169.667s-4.122-.955-7.202 1.455c-3.282 2.567-6.216 8.521-7.057 10.113-.751 1.419-3.036 2.013-4.002 3.636-.284.48-1.188 2.122-1.381 2.473-.867 1.581-.988 2.948-1.819 4.787-.83 1.836-2.982 5.652-2.982 5.652s.901.228 2.255 1.056c1.549.945 3.743 2.491 6.693 2.183 5.528-.583 8.948-6.293 8.948-6.293s6.26-.965 10.111-2.583c1.574-.66 2.438-2.981 2.438-2.981s1.147.304 2.291-.656c.942-.79 1.75-2.732 3.056-3.855 1.073-.925 2.814-1.301 3.637-2.545 1.351-2.041 1.21-4.461 1.526-6.62.334-2.256 1.092-4.218 1.083-4.624-.036-1.675.228-4.323-3.191-4.834-3.419-.509-3.928.547-3.928.547s-2.24-3.711-5.82-2.729c-3.581.98-4.656 5.818-4.656 5.818z"/>
            <path fill="none" stroke="#010101" stroke-miterlimit="10" stroke-width=".75" d="M149.163 169.667s2.981 1.602 2.327 5.748c-.103.648-1.169 2.288-1.892 4.292-.663 1.842-.948 3.992-1.891 5.965-.724 1.513-2.349 2.804-3.056 4.073-1.588 2.852-2.036 4.983-2.036 4.983M159.639 166.576s.638 1.755.436 3.891c-.318 3.384-1.31 4.511-1.674 9.676-.093 1.327-1.663 3.126-2.4 4.946-.833 2.062-.835 4.075-.835 4.075"/>
            <path fill="none" stroke="#010101" stroke-miterlimit="10" stroke-width=".5" d="M142.033 179.707s1.032 1.488 2.533 1.964c1.502.474 2.533-.364 2.533-.364M139.415 187.854s1.201.656 2.182.726c.981.07 2.97-.363 2.97-.363M155.855 183.125s-1.058.961-2.982 1.019c-2.038.062-2.983-1.019-2.983-1.019M157.639 175.269s-.547.872-2.474.872c-1.929 0-2.292-.872-2.292-.872M164.948 175.269s-.792.573-2.146.438c-1.354-.14-2.147-.875-2.147-.875M161.021 183.636h-1.691c-.854 0-1.69-.511-1.69-.511"/>
            <path stroke="#000" stroke-miterlimit="10" d="M162.291 162.442s-4.91 10.277.69 10.786c5.602.51-.69-10.786-.69-10.786zM157.019 161.155s5.059 14.293-1.763 13.33c-6.821-.962 1.763-13.33 1.763-13.33zM148.799 166.902s3.556 13.822-3.06 12.805c-6.615-1.019 3.06-12.805 3.06-12.805zM125.4 177.909s5.963 13.293-1.928 12.688c-7.889-.602 1.928-12.688 1.928-12.688z"/>
            <path fill="#7f61a9" stroke="#010101" stroke-miterlimit="10" d="M90.893 179.342s6.983.654 8.148-4.073c.627-2.547-2.252-5.962-3.347-7.128-1.774-1.893-6.983-1.238-6.983-1.238"/>
            <path stroke="#000" stroke-miterlimit="10" d="M92.979 168.784s-8.824-3.898-5.116 4.179c3.709 8.078 5.116-4.179 5.116-4.179z"/>
            <path fill="none" stroke="#010101" stroke-miterlimit="10" stroke-width=".327" d="M118.101 193.746s1.154.802 2.168.982c1.016.181 3.36 0 3.36 0"/>
            <path fill="none" stroke="#010101" stroke-miterlimit="10" stroke-width=".75" d="M115.481 187.563s-2.159.166-3.273 2.765c-1.114 2.6 0 4.874 0 4.874"/>
            <path fill="#f1f2f2" d="M124.515 153.752l-7.722-3.045 7.722-3.045 3.045-7.722 3.044 7.722 7.722 3.045-7.722 3.045-3.044 7.721zM101.501 147.694l-3.727-1.469 3.727-1.468 1.47-3.728 1.469 3.728 3.726 1.468-3.726 1.469-1.469 3.726zM128.488 120.528l-2.799-1.104 2.799-1.101 1.103-2.798 1.103 2.798 2.796 1.101-2.796 1.104-1.103 2.797zM154.57 146.01l-1.509-.596 1.509-.595.596-1.508.595 1.508 1.509.595-1.509.596-.595 1.509zM132.349 173.688l-1.536-.605 1.536-.606.606-1.536.606 1.536 1.535.606-1.535.605-.606 1.536zM103.439 125.789l-2.21-.872 2.21-.872.873-2.211.871 2.211 2.212.872-2.212.872-.871 2.211zM114.391 129.732l-1.658-.654 1.658-.654.654-1.657.654 1.657 1.658.654-1.658.654-.654 1.659zM149.475 119.099l-1.05-.415 1.05-.414.414-1.05.414 1.05 1.051.414-1.051.415-.414 1.05z"/>
        </g>
        <g>
            <path fill="none" stroke="#010101" stroke-width="4.051" d="M61.746 37.063l.013 97.661c.368 43.881 31.396 69.271 66.106 84.818.181.106.118.038.13.072.029-.013-.024-.018.005-.03.029.014-.163-.059.011.027l.072-.043c34.729-15.546 65.79-40.946 66.159-84.845l.012-97.661H61.746z" transform="matrix(.23059 -.04907 .0444 .25486 164.162 105.324)"/>
        </g>
    </g>
</svg>
