<svg xmlns="http://www.w3.org/2000/svg" xmlns:xlink="http://www.w3.org/1999/xlink" viewBox="0 0 256 256">
    <defs>
        <linearGradient id="innoGrad3">
            <stop offset="0" stop-color="#ff2a2a" stop-opacity="0"/>
            <stop offset="1" stop-color="#ff2a2a" stop-opacity=".502"/>
        </linearGradient>
        <linearGradient id="innoGrad2">
            <stop offset="0" stop-color="#ff2a2a" stop-opacity=".502"/>
            <stop offset="1" stop-color="#ff2a2a" stop-opacity="0"/>
        </linearGradient>
        <linearGradient id="innoGrad1">
            <stop offset="0" stop-color="#ff7f2a" stop-opacity=".502"/>
            <stop offset=".5" stop-color="#ff7f2a" stop-opacity="0"/>
            <stop offset="1" stop-color="#ff7f2a" stop-opacity=".502"/>
        </linearGradient>
        <linearGradient id="linearGradient855" x1="42.611" x2="246.112" y1="175.326" y2="175.326" gradientUnits="userSpaceOnUse" xlink:href="#innoGrad1"/>
        <linearGradient id="linearGradient885" x1="84.414" x2="170.58" y1="167.79" y2="141.82" gradientUnits="userSpaceOnUse" xlink:href="#innoGrad2"/>
        <radialGradient id="radialGradient893" cx="153.821" cy="119.399" r="122.546" fx="153.821" fy="119.399" gradientTransform="matrix(1.4754 0 0 1.47631 -63.92 -59.945)" gradientUnits="userSpaceOnUse" xlink:href="#innoGrad3"/>
    </defs>
    <path fill="#ff7f2a" stroke="#231f20" stroke-miterlimit="10" d="M243.61 181.26c-4.756-11.196-189.098-6.309-200.499 6.717-1.799 2.056 202.411-2.218 200.5-6.717z"/>
    <path fill="#ffb380" d="M242.011 168.145c7.036 8.316 1.6 13.115 1.6 13.115-31.977-8.317-144.54-2.879-200.5 6.717v-11.56c35.815-16.909 191.865-16.588 198.9-8.272z" style="font-variant-east_asian:normal"/>
    <path fill="url(#linearGradient855)" stroke="#231f20" stroke-miterlimit="10" d="M242.011 168.145c7.036 8.316 1.6 13.115 1.6 13.115-31.977-8.317-144.54-2.879-200.5 6.717v-11.56c35.815-16.909 191.865-16.588 198.9-8.272z"/>
    <path fill="none" stroke="#231f20" stroke-miterlimit="10" stroke-width=".4" d="M44.645 179.293c35.815-16.909 191.865-16.587 198.9-8.271"/>
    <path fill="#ff8080" d="M84.1 167.315c59.222-7.226 152.509-5.556 157.911.83 8.155-2.085 8.965-16.606 7.355-34.75-2.682-30.242-11.831-69.528-39.972-81.044-127.27-2.56-226.949 126.834-198.58 148.74C29.04 215.168 84.1 167.316 84.1 167.316z"/>
    <path fill="url(#linearGradient885)" d="M163.027 116.326c8.115 5.318-19.026 28.828-14.83 34.986 4.198 6.157 22.383 11.28 22.383 11.28-28.59.122-60.75 1.583-86.48 4.723l27.763-18.362s35.153-27.073 51.164-32.627z"/>
    <path fill="url(#radialGradient893)" stroke="#231f20" stroke-miterlimit="10" d="M84.1 167.315c59.222-7.226 152.509-5.556 157.911.83 8.155-2.085 8.965-16.606 7.355-34.75-2.682-30.242-11.831-69.528-39.972-81.044-127.27-2.56-226.949 126.834-198.58 148.74C29.04 215.168 84.1 167.316 84.1 167.316z"/>
    <path fill="#231f20" d="M111.863 148.953c-27.962 17.81-18.705 11.689-28.077 17.887l.628.95c9.372-6.199.117-.076 27.45-18.837z"/>
    <g stroke-width=".66" transform="matrix(.39757 .01287 -.0271 .41862 58.88 56.729)">
        <path fill="#ffde17" stroke="#000" stroke-miterlimit="10" stroke-width="2.448" d="M385.703 217.684l-45.738 8.498-6.067-46.113-22.195-40.883 41.986-20.02 32.014-33.746 32.038 33.747 41.962 20.019-22.219 40.883-6.067 46.113z"/>
        <path fill="#e78ebb" stroke="#000" stroke-linejoin="bevel" stroke-miterlimit="10" d="M386.122 106.48l-28.12 17.143h56.256zm-27.971 17.67l-25.174 21.255 7.348 32.103zm28.133 85.662l-45.755-32.73 12.911 30.31zm52.726-64.407l-7.348 32.103-17.826-53.357z"/>
        <path fill="#e78ebb" stroke="#000" stroke-linejoin="bevel" stroke-miterlimit="10" d="M431.458 177.082l-12.91 30.31-32.845 2.42z"/>
        <path fill="#ed2472" stroke="#000" stroke-linejoin="bevel" stroke-miterlimit="10" d="M386.122 93.98v12.5l-28.12 17.143zm0 0l28.136 29.643-28.136-17.142zm-53.145 51.425l7.348 32.103-19.203-36.063zm25.174-21.255l-25.174 21.255-11.855-3.96zm28.133 85.662l-40.117 7.748 7.273-10.167z"/>
        <path fill="#ed2472" stroke="#000" stroke-linejoin="bevel" stroke-miterlimit="10" d="M353.44 207.393l-7.273 10.167-5.638-40.478zm97.425-65.948l-11.855 3.96-7.348 32.103z"/>
        <path fill="#ed2472" stroke="#000" stroke-linejoin="bevel" stroke-miterlimit="10" d="M450.865 141.445l-37.029-17.294 25.174 21.254zm-32.317 65.948l-32.845 2.419 40.117 7.748zm12.91-30.311l-12.91 30.31 7.272 10.168z"/>
        <path fill="none" stroke="#000" stroke-miterlimit="10" d="M358.002 123.56l28.12-29.641 28.136 29.642 36.864 17.585-19.512 35.908-5.329 40.506-40.159-7.461-40.175 7.46-5.328-40.505-19.497-35.908z"/>
        <circle cx="386.122" cy="162.575" r="47.429" fill="#7f62aa" stroke="#000" stroke-miterlimit="10"/>
        <path fill="#88cdea" d="M422.122 162.575c0 19.877-16.121 36-36 36-19.881 0-36-16.123-36-36 0-19.882 16.119-36.001 36-36.001 19.879-.001 36 16.118 36 36z"/>
        <g fill="#f1f2f2">
            <path d="M349.33 145.867l1.013-1.233c.701.532 1.141 1.126 1.322 1.783.18.657.116 1.372-.194 2.146-.384.958-1.026 1.614-1.928 1.969-.902.355-1.919.305-3.055-.15-1.201-.481-2.009-1.165-2.425-2.051-.416-.886-.421-1.834-.017-2.844.354-.882.901-1.495 1.644-1.837.44-.205.981-.273 1.625-.206l-.233 1.58c-.408-.064-.775-.005-1.1.179-.325.184-.565.47-.72.856-.214.535-.196 1.045.055 1.532.25.486.805.902 1.665 1.246.912.365 1.627.46 2.146.289.519-.173.883-.522 1.093-1.047.155-.387.166-.77.031-1.146-.135-.378-.442-.733-.922-1.066zm3.839-1.218l-6.745-3.858.779-1.362 6.745 3.858zm2.438-3.889l-5.17-3.865-1.381 1.846-1.053-.787 3.698-4.945 1.053.788-1.377 1.842 5.17 3.867zm4.292-5.002l-2.237-2.385-5.154-1.335 1.341-1.258 3.437.99-.796-3.467 1.318-1.236 1.002 5.244 2.23 2.378zm3.747-8.083c-.367-.701-.57-1.345-.61-1.93a3.66 3.66 0 0 1 .146-1.28c.125-.42.313-.782.565-1.085.334-.406.781-.756 1.341-1.05 1.014-.531 1.99-.642 2.929-.332.938.31 1.701 1.026 2.288 2.146.582 1.11.735 2.139.46 3.083-.275.944-.918 1.68-1.93 2.21-1.023.536-2.001.65-2.932.342s-1.683-1.008-2.257-2.104zm1.408-.797c.408.78.897 1.276 1.468 1.49.571.214 1.133.175 1.687-.115s.904-.728 1.05-1.313c.146-.585.01-1.277-.408-2.075-.413-.79-.895-1.287-1.443-1.494-.549-.207-1.11-.161-1.683.14-.573.3-.932.738-1.077 1.315-.144.576-.009 1.26.406 2.052zm7.949.466l-2.216-7.448 5.106-1.52.375 1.26-3.602 1.073.524 1.763 3.109-.925.375 1.26-3.109.925.942 3.165zm8.677-9.931l2.866-.082c.646-.02 1.141.017 1.482.106.459.122.856.349 1.191.682.335.333.594.746.777 1.237.185.49.286 1.1.308 1.829.018.639-.046 1.192-.191 1.66-.179.57-.442 1.036-.793 1.396-.265.272-.626.49-1.084.65-.343.12-.804.188-1.383.205l-2.951.084zm1.606 1.269l.146 5.145 1.171-.034c.438-.012.753-.046.946-.101.253-.071.46-.185.624-.341.164-.156.293-.41.389-.761.096-.351.136-.827.119-1.427-.017-.6-.083-1.06-.198-1.378-.115-.318-.271-.565-.467-.74a1.497 1.497 0 0 0-.736-.345c-.221-.043-.65-.056-1.29-.038zm6.459 2.541c.139-.78.372-1.412.699-1.9.244-.357.544-.665.9-.92a3.008 3.008 0 0 1 1.111-.512c.513-.117 1.08-.12 1.703-.008 1.127.202 1.966.712 2.518 1.532.552.82.717 1.853.494 3.098-.221 1.235-.729 2.14-1.524 2.719-.796.577-1.756.766-2.88.565-1.138-.203-1.979-.712-2.527-1.525-.547-.815-.712-1.831-.494-3.05zm1.601.233c-.155.866-.072 1.558.248 2.077.32.519.788.833 1.403.943.616.11 1.161-.021 1.635-.395.475-.373.791-1.003.949-1.89.156-.876.081-1.565-.227-2.065-.307-.5-.779-.807-1.416-.92-.636-.114-1.188.013-1.656.38-.467.366-.779.989-.936 1.87zm5.945 5.113l3.032-7.154 2.162.917-.771 5.43 3.352-4.336 2.167.918-3.032 7.154-1.343-.57 2.388-5.631-3.808 5.03-1.391-.59.972-6.23-2.387 5.63zm7.917 3.71l4.095-6.604 1.333.827-4.095 6.604zm2.437 1.426l4.959-5.982 1.176.974-.863 6.025 3.312-3.995 1.122.93-4.959 5.982-1.212-1.005.822-5.9-3.234 3.9zm5.645 5.009l5.734-5.244 1.059 1.158-5.734 5.243zm4.971-.409c.655-.444 1.271-.72 1.849-.824a3.667 3.667 0 0 1 1.288 0 3.05 3.05 0 0 1 1.143.439c.441.286.84.69 1.194 1.214.643.948.862 1.905.66 2.873-.202.968-.827 1.806-1.874 2.516-1.039.704-2.043.972-3.012.805-.969-.167-1.773-.723-2.414-1.667-.648-.957-.872-1.915-.671-2.875.2-.96.812-1.787 1.837-2.481zm.951 1.309c-.729.494-1.167 1.036-1.314 1.627-.148.59-.047 1.146.305 1.664.351.518.825.816 1.423.896.598.079 1.27-.134 2.016-.64.737-.5 1.178-1.034 1.321-1.603.143-.57.034-1.121-.329-1.656-.362-.536-.839-.843-1.428-.921-.589-.078-1.255.13-1.994.633zm.463 7.905l7.193-2.94.577 1.414-3.601 4.907 4.804-1.963.551 1.35-7.192 2.939-.596-1.457 3.506-4.816-4.69 1.917z"/>
        </g>
        <g fill="#f1f2f2">
            <path d="M353.192 194.1l5.281-5.724 4.244 3.916-.894.968-3.088-2.85-1.171 1.27 2.874 2.65-.89.966-2.874-2.651-1.438 1.558 3.198 2.95-.89.965zm6.11 5.368l4.144-6.595 1.295.814-.068 6.1 2.768-4.403 1.237.777-4.144 6.594-1.336-.84.044-5.971-2.702 4.3zm7.475 4.38l2.912-7.224 4.952 1.996-.493 1.223-3.493-1.408-.689 1.709 3.016 1.216-.493 1.223-3.016-1.216-1.237 3.069zm7.45-1.164c.155-.777.402-1.407.74-1.89.251-.353.558-.655.92-.904a3.016 3.016 0 0 1 1.125-.49c.516-.106 1.085-.098 1.707.026 1.125.225 1.956.754 2.492 1.587s.68 1.87.432 3.114c-.246 1.233-.774 2.13-1.583 2.693-.81.563-1.775.73-2.897.508-1.136-.227-1.97-.754-2.501-1.58-.533-.827-.677-1.848-.435-3.064zm1.6.266c-.173.865-.104 1.56.206 2.086.311.526.773.85 1.388.974.615.123 1.164.002 1.646-.362.483-.364.813-.988.989-1.874.175-.876.113-1.566-.184-2.074-.298-.507-.765-.824-1.4-.951-.635-.127-1.191-.012-1.667.347s-.803.975-.978 1.854zm7.274 5.176l-.126-7.788 3.31-.054c.832-.013 1.437.047 1.816.18.381.135.686.379.918.732.232.354.354.762.361 1.222.008.585-.156 1.07-.492 1.456-.338.387-.848.635-1.529.745.344.192.627.406.854.64.225.233.529.65.914 1.25l.977 1.503-1.881.03-1.164-1.676c-.414-.6-.696-.976-.847-1.131a1.2 1.2 0 0 0-.478-.316c-.167-.056-.432-.081-.793-.075l-.319.006.053 3.25zm1.5-4.52l1.163-.02c.754-.012 1.225-.052 1.411-.118a.842.842 0 0 0 .436-.336c.104-.158.154-.354.15-.587-.004-.263-.078-.473-.221-.632-.143-.16-.342-.258-.596-.296-.128-.016-.511-.02-1.148-.008l-1.227.02zm11.509.472l1.588.185c-.066.879-.328 1.573-.783 2.08-.455.51-1.094.844-1.914 1.003-1.016.197-1.918.012-2.705-.555-.789-.567-1.299-1.452-1.533-2.655-.246-1.272-.109-2.324.412-3.156.52-.831 1.314-1.351 2.387-1.56.936-.181 1.748-.052 2.439.388.412.26.764.679 1.055 1.257l-1.457.66a1.643 1.643 0 0 0-.748-.828c-.33-.174-.701-.221-1.111-.141-.566.109-.988.402-1.262.877-.273.476-.322 1.169-.146 2.08.188.967.496 1.62.924 1.964.426.343.918.46 1.475.353.41-.08.738-.278.982-.597.245-.32.376-.77.397-1.355zm4.158 1.849l-2.873-7.24 5.367-2.13.486 1.226-3.906 1.55.637 1.604 3.635-1.442.484 1.22-3.635 1.442.781 1.97 4.045-1.604.484 1.22zm7.471-3.182l-4.158-6.585 2.799-1.768c.703-.444 1.252-.708 1.645-.791a1.797 1.797 0 0 1 1.166.147c.383.18.695.467.941.856.313.494.426.993.338 1.499-.088.505-.393.982-.918 1.43.393-.013.746.022 1.061.105.314.082.791.279 1.432.59l1.615.778-1.59 1.004-1.865-.826c-.666-.296-1.104-.472-1.313-.525a1.206 1.206 0 0 0-.572-.021c-.172.04-.412.156-.717.349l-.27.17 1.736 2.749zm-1.07-4.64l.984-.621c.637-.403 1.02-.682 1.143-.836a.838.838 0 0 0 .197-.514 1.015 1.015 0 0 0-.176-.58c-.141-.221-.313-.362-.518-.424-.205-.062-.426-.042-.664.058-.117.054-.445.25-.984.59l-1.037.656zm6.279-1.81l1.021-1.15c.418.315.811.465 1.182.45.369-.015.73-.185 1.08-.51.371-.344.578-.682.621-1.014.043-.332-.033-.603-.229-.813a.705.705 0 0 0-.438-.234c-.168-.021-.383.024-.645.137-.178.079-.563.28-1.154.606-.76.42-1.369.634-1.826.642-.641.01-1.172-.21-1.59-.662a2.012 2.012 0 0 1-.51-1.046c-.071-.406-.012-.82.176-1.24.189-.42.502-.833.941-1.24.717-.664 1.402-1.007 2.055-1.028.654-.021 1.234.222 1.738.729l-1.107 1.12c-.32-.248-.621-.361-.904-.34-.281.022-.584.184-.908.484-.336.31-.533.623-.596.937a.565.565 0 0 0 .145.524.601.601 0 0 0 .494.188c.258-.013.729-.213 1.412-.601.686-.387 1.227-.635 1.627-.742.4-.107.789-.11 1.17-.005.379.105.736.338 1.07.699.303.327.496.718.58 1.172.082.455.021.905-.182 1.353-.203.448-.553.9-1.051 1.36-.721.669-1.43 1.017-2.127 1.04-.695.026-1.377-.246-2.045-.816z"/>
        </g>
        <circle cx="344.408" cy="165.361" r="2.786" fill="#fff" stroke="#fff" stroke-miterlimit="10"/>
        <circle cx="427.789" cy="165.361" r="2.786" fill="#fff" stroke="#fff" stroke-miterlimit="10"/>
        <path fill="#f1f2f2" d="M390.461 197.929l9.729-68.502s-4.24-2.852-14.068-2.854c-9.828-.002-14.06 2.85-14.06 2.85l9.729 68.536zm-18.399-2.205l-16.654-51.936s1.271-2.088 4.047-5.225c2.776-3.137 4.28-4.181 4.28-4.181l15.887 63.305s-1.396-.03-4-.707c-2.604-.677-3.56-1.256-3.56-1.256zm-20.354-43.744l15.892 41.467s-4.561-2.383-7.946-6.475c-3.859-4.665-4.64-5.97-6.809-10.646-2.169-4.677-2.452-9.327-2.452-9.327s-.563-3.938 0-8.854c.563-4.916 1.315-6.164 1.315-6.164zm48.496 43.744l16.653-51.936s-1.271-2.088-4.048-5.225c-2.776-3.137-4.279-4.181-4.279-4.181l-15.887 63.305s1.396-.03 4-.707c2.604-.677 3.561-1.256 3.561-1.256zm20.354-43.744l-15.892 41.467s4.562-2.383 7.946-6.475c3.858-4.665 4.639-5.97 6.809-10.646 2.17-4.677 2.451-9.327 2.451-9.327s.563-3.938 0-8.854c-.563-4.916-1.314-6.164-1.314-6.164z"/>
        <path fill="#414042" stroke="#000" stroke-linejoin="round" stroke-width=".33" d="M391.289 176.479l-1.147-36.515-4-1.545-.013 39.477z"/>
        <path fill="#58595b" stroke="#000" stroke-linejoin="round" stroke-width=".33" d="M386.142 138.419l-4.078 1.545 4-6.172z"/>
        <path fill="#414042" stroke="#000" stroke-linejoin="round" stroke-width=".33" d="M386.064 133.792l.078 4.627 4 1.545z"/>
        <path fill="#59585b" stroke="#000" stroke-linejoin="round" stroke-width=".33" d="M382.064 139.964l4.078-1.545-.066 39.477-5.16-1.417z"/>
        <path fill="#6e7d81" stroke="#000" stroke-linejoin="round" stroke-width=".33" d="M396.224 166.549l-5.604-3.061v21.668h5.604z"/>
        <path fill="#a1b1b4" stroke="#000" stroke-linejoin="round" stroke-width=".33" d="M390.62 185.156l-6.289-.001v-18.606l6.289-3.061z"/>
        <path fill="#515456" stroke="#000" stroke-linejoin="round" stroke-width=".33" d="M379.453 185.16l4.878-.005v-9.378l-4.878-2.49z"/>
        <path fill="#848789" stroke="#000" stroke-linejoin="round" stroke-width=".33" d="M375.004 175.868l4.449-2.58v11.873l-4.449-.008z"/>
        <path fill="#7c564a" stroke="#000" stroke-linejoin="round" stroke-width=".33" d="M369.679 178.219v6.932l2.616-.001v-7.254z"/>
        <path fill="#492216" stroke="#000" stroke-linejoin="round" stroke-width=".33" d="M372.295 185.15v-7.254l2.709.323v6.934z"/>
        <path fill="#607a97" stroke="#000" stroke-linejoin="round" stroke-width=".33" d="M364.775 185.15h4.904l-.053-14.71-4.851-2.984z"/>
        <path fill="#93adca" stroke="#000" stroke-linejoin="round" stroke-width=".33" d="M359.264 170.53l5.511-3.074v17.694l-5.54-.001z"/>
        <path fill="#85adb3" stroke="#000" stroke-linejoin="round" stroke-width=".33" d="M407.085 185.16v-12.345l2.969 1.003.117 11.343z"/>
        <path fill="#b9e0e6" stroke="#000" stroke-linejoin="round" stroke-width=".33" d="M407.085 185.16l-2.983-.01v-11.415l2.983-.92z"/>
        <path fill="#3b5086" stroke="#000" stroke-linejoin="round" stroke-width=".33" d="M398.419 175.88v9.27l-2.195.006v-9.276z"/>
        <path fill="#42b3ae" stroke="#000" stroke-linejoin="round" stroke-width=".33" d="M401.149 171.386v-2.841l2.953 3.343zm0 0v-2.841l-2.73 3.343z"/>
        <path fill="#aca48c" stroke="#000" stroke-linejoin="round" stroke-width=".33" d="M404.102 185.15v-13.262l-2.953-.502v13.775z"/>
        <path fill="#dfd8bf" stroke="#000" stroke-linejoin="round" stroke-width=".33" d="M398.419 185.15l2.73.01v-13.774l-2.73.502z"/>
        <path fill="#954520" stroke="#000" stroke-linejoin="round" stroke-width=".33" d="M372.295 175.88l2.709 2.339-2.709-.323z"/>
        <path fill="#c87532" stroke="#000" stroke-linejoin="round" stroke-width=".33" d="M372.295 175.88l-2.616 2.339 2.616-.323z"/>
        <path fill="#467738" d="M356.207 182.605c4.569-1.815 9.29-.457 14.375 1.626 3.582-1.25 7.019-3.034 15.311.77l9 .022c1.119.079 2.288-1.188 3.313-.834 4.044-3.291 9.544-2.416 11.292-.916 1.96-1.75 6.3-.314 6.3-.314s-9.676 15.647-29.676 15.616c-20-.031-29.915-15.97-29.915-15.97z"/>
        <path fill="#005396" d="M381.685 189.189s.084-1.813 2.647-2.094c.541-.06 3.167-.483 3.75-.822.607-.354-1.918-.975-2.188-1.271l9 .02s2.777 1.105 1.311 1.592c-4.123 1.367-6.789 1.877-6.789 1.877z"/>
        <path fill="#6a9b57" d="M359.235 186.51c3.482-1.901 9.892-1.895 15.142 1.98h6.07c2.488-1.135 8.675-1.761 12.509.157 2.129-2.252 9.043-2.46 11.795-.5 3.833-3.263 8.643-2.067 8.643-2.067s-10.765 12.488-27.272 12.495c-16.443.007-26.887-12.064-26.887-12.064z"/>
        <path fill="#0378bd" d="M374.377 188.49s-.444.706-2.082 1.397c-1.856.784-4.872 1.58-3.713 1.83 1.099.239 4.916 1.043 5.509.857.788-.246.281-1.625 1.219-2.32 1.989-1.475 5.137-1.764 5.137-1.764z"/>
        <path fill="#91c27e" d="M363.997 190.939c2.27-1.524 5.835-.258 11.438 1.415l10.269.044c5.086-3.045 11.461-1.92 14.487-.625 3.057-1.878 8.391-1.064 8.391-1.064s-9.959 8.48-23.125 8.105c-14.664-.418-21.46-7.875-21.46-7.875z"/>
        <path fill="#359cd7" d="M385.777 192.354s-2.817 1.585-1.093 2.377c.727.334 4.603.414 7.959.656 2.823.204 4 1.594 4 1.594s-6.386 2.04-11.188 1.833c-4.802-.208-11.079-1.878-11.079-1.878s12.202.294 11.326-.08c-2.781-1.188-8.612-.844-10.237-2.094-1.533-1.18-.031-2.408-.031-2.408z"/>
        <path fill="none" stroke="#000" stroke-miterlimit="10" stroke-width=".33" d="M356.207 182.605c4.569-1.815 9.29-.457 14.375 1.626 3.582-1.25 7.019-3.034 15.311.77l9 .022c1.119.079 2.288-1.188 3.313-.834 4.044-3.291 9.544-2.416 11.292-.916 1.96-1.75 6.3-.314 6.3-.314s-9.676 15.647-29.676 15.616c-20-.031-29.915-15.97-29.915-15.97z"/>
        <path fill="none" stroke="#000" stroke-miterlimit="10" d="M422.122 162.575c0 19.877-16.121 36-36 36-19.881 0-36-16.123-36-36 0-19.882 16.119-36.001 36-36.001 19.879-.001 36 16.118 36 36z"/>
    </g>
</svg>
