<svg xmlns="http://www.w3.org/2000/svg" viewBox="0 0 256 256">
    <path fill="#414042" stroke="#000" stroke-miterlimit="10" stroke-width=".166" d="M76.57 72.964l40.893-1.494.194 5.32-40.892 1.494z"/>
    <path fill="#e6e7e8" d="M101.43 76.318l2.05-.075-.015-.426-1.603.059-.034-.946 1.36-.05-.015-.427-1.36.05-.036-.968 1.603-.058-.016-.427-2.05.075zm-.734-3.17l-.55.02-1.253 1.717-.06-1.67-.45.017.117 3.193.449-.016-.034-.927.497-.651.986 1.525.548-.02-1.23-1.904zm-2.93.107l-.55.02-1.253 1.717-.06-1.67-.449.017.117 3.193.448-.016-.034-.927.497-.651.987 1.525.548-.02-1.23-1.904zM94.2 75.282l.047 1.298-.448.017-.047-1.298-1.042-1.86.499-.018.751 1.415.645-1.466.499-.018zm-3.337 1.422l2.052-.075-.016-.426-1.603.059-.1-2.767-.45.016z"/>
</svg>
