<svg xmlns="http://www.w3.org/2000/svg" viewBox="0 0 256 256">
    <path fill="#414042" stroke="#000" stroke-miterlimit="10" stroke-width=".16599170000000002" d="M117.62 76.74l-40.775.917-.12-5.304 40.776-.918z"/>
    <path fill="#e6e7e8" d="M107.721 75.872l.509-.011-.75-1.348c.054-.018.119-.016.167-.043a.776.776 0 0 0 .305-.317.942.942 0 0 0 .101-.467.943.943 0 0 0-.121-.461.773.773 0 0 0-.318-.303.958.958 0 0 0-.469-.099l-1.215.027.069 3.062.43-.009-.029-1.294.64-.014zm-1.352-2.624l.802-.018a.402.402 0 0 1 .22.054.388.388 0 0 1 .148.164.57.57 0 0 1 .058.248.581.581 0 0 1-.046.25.393.393 0 0 1-.142.171.396.396 0 0 1-.216.063l-.802.019zm-2.709 2.607a.953.953 0 0 1-.386-.387 1.258 1.258 0 0 1-.147-.589l-.019-.867a1.263 1.263 0 0 1 .12-.595.955.955 0 0 1 .369-.404c.161-.097.348-.148.561-.152.213-.005.402.037.567.127.165.09.294.219.387.387.093.168.142.365.147.589l.02.867c.005.224-.035.423-.12.595a.955.955 0 0 1-.369.404 1.108 1.108 0 0 1-.561.152 1.114 1.114 0 0 1-.569-.127zm.89-.389a.574.574 0 0 0 .217-.247.8.8 0 0 0 .071-.365l-.021-.896a.792.792 0 0 0-.087-.361.58.58 0 0 0-.228-.237.636.636 0 0 0-.335-.078.638.638 0 0 0-.332.093.576.576 0 0 0-.218.247.785.785 0 0 0-.07.364l.02.896a.789.789 0 0 0 .087.361.57.57 0 0 0 .229.237.646.646 0 0 0 .335.078.637.637 0 0 0 .332-.092zm-1.732-2.137l-.009-.408-2.159.049.009.408.865-.02.06 2.652.43-.01-.06-2.651zm-3.662 2.768l-.244-.136a.95.95 0 0 1-.382-.392 1.3 1.3 0 0 1-.146-.597l-.019-.84a1.297 1.297 0 0 1 .12-.603.958.958 0 0 1 .364-.409c.159-.099.343-.15.555-.155.175-.004.337.03.486.102.149.072.275.175.377.311.102.135.172.293.211.473l-.439.01a.679.679 0 0 0-.364-.42.588.588 0 0 0-.262-.055.591.591 0 0 0-.326.098.596.596 0 0 0-.213.258.884.884 0 0 0-.07.382l.019.84a.862.862 0 0 0 .087.377.597.597 0 0 0 .224.249.611.611 0 0 0 .33.082.626.626 0 0 0 .604-.505l.44-.01a1.194 1.194 0 0 1-.191.482 1.036 1.036 0 0 1-.842.452c-.213.003-.319.006-.319.006zm-1.295-.003l-.009-.408-1.537.034-.02-.907 1.305-.029-.01-.408-1.304.029-.021-.928 1.536-.035-.009-.408-1.965.045.069 3.059zm-2.715-2.554a.814.814 0 0 0-.331-.322.967.967 0 0 0-.484-.106l-1.185.026.069 3.06.429-.01-.026-1.187.755-.017a.977.977 0 0 0 .479-.126.808.808 0 0 0 .315-.335 1.01 1.01 0 0 0 .104-.494 1.002 1.002 0 0 0-.125-.489zm-.366.777a.435.435 0 0 1-.159.189.453.453 0 0 1-.243.07l-.77.018-.024-1.057.77-.017a.45.45 0 0 1 .246.061.442.442 0 0 1 .167.183.617.617 0 0 1 .064.276.615.615 0 0 1-.051.277zm-3.523 1.957l-.199-.038a1.554 1.554 0 0 1-.698-.322l.26-.334c.119.098.249.171.39.218.142.047.294.069.458.065.222-.005.393-.05.513-.135a.394.394 0 0 0 .175-.352v-.002a.365.365 0 0 0-.089-.251.491.491 0 0 0-.218-.134c-.088-.028-.774-.151-.903-.192a.711.711 0 0 1-.335-.234c-.094-.115-.143-.281-.148-.497v-.002a.89.89 0 0 1 .116-.488.796.796 0 0 1 .365-.314 1.49 1.49 0 0 1 .584-.118 1.56 1.56 0 0 1 .64.127c.104.045.207.102.308.171l-.236.347a1.43 1.43 0 0 0-.353-.185.994.994 0 0 0-.35-.056c-.209.005-.371.05-.484.136a.415.415 0 0 0-.166.358v.002a.336.336 0 0 0 .095.246.543.543 0 0 0 .226.129c.09.027.794.169.919.218a.725.725 0 0 1 .317.245c.086.114.132.271.136.471v.004a.85.85 0 0 1-.122.482.833.833 0 0 1-.377.312 1.566 1.566 0 0 1-.605.118l-.219.005zm-1.454-.001l-.069-3.057-.425.009.051 2.286-1.497-2.253-.39.009.069 3.057.425-.01-.05-2.25 1.492 2.218zm-3.021.071l-.43.01-.069-3.06.429-.01z"/>
</svg>
