<svg version="1.1" viewBox="0 0 256 256" xmlns="http://www.w3.org/2000/svg">
 <path d="m163.39 42.71-7.666 4.161-7.695-16.106 1.563-6.368 5.493 2.359z" fill="#ffb380" stroke="#000" stroke-miterlimit="10"/>
 <g fill="#e6e6e6" stroke="#000" stroke-miterlimit="10">
  <path d="m153.67 28.801a1.8825 1.8825 0 1 1-3.765 0 1.883 1.883 0 0 1 3.765 0z" stroke-width=".5"/>
  <path d="m153.67 33.207s2.64 5.935 3.105 5.68c0.468-0.251-3.105-5.68-3.105-5.68z" stroke-linejoin="round" stroke-width=".25"/>
  <path d="m156.83 33.466s-1.816 4.139-0.406 4.274c1.411 0.137 0.406-4.274 0.406-4.274zm-4.086 3.569s4.472 0.705 3.825 1.968c-0.642 1.261-3.825-1.968-3.825-1.968z" stroke-linejoin="round" stroke-width=".25"/>
 </g>
 <path d="m157.99 44.516-0.342-2.053 1.272 0.136zm-2.292-2.281 1.95 0.228-0.202-1.185zm5.339 0.628-1.555-1.416-0.562 1.152zm-0.726-3.143-1.712 0.928 0.883 0.799zm-1.712 0.928-1.472-1.344 0.319 1.974z" fill="#ee4689" stroke="#010101" stroke-width=".25"/>
 <path d="m92.618 42.71 7.669 4.161 7.698-16.106-1.569-6.368-5.5 2.359z" fill="#ffb380" stroke="#000" stroke-miterlimit="10"/>
 <g fill="#e6e6e6" stroke="#000" stroke-miterlimit="10">
  <path d="m102.33 28.801c0 1.042 0.846 1.883 1.887 1.883a1.8845 1.8845 0 1 0 0-3.769 1.885 1.885 0 0 0-1.887 1.886z" stroke-width=".5"/>
  <path d="m102.33 33.207s-2.638 5.935-3.104 5.68c-0.468-0.251 3.104-5.68 3.104-5.68z" stroke-linejoin="round" stroke-width=".25"/>
  <path d="m99.176 33.466s1.818 4.139 0.409 4.274c-1.409 0.137-0.409-4.274-0.409-4.274zm4.078 3.569s-4.471 0.705-3.818 1.968c0.644 1.261 3.818-1.968 3.818-1.968z" stroke-linejoin="round" stroke-width=".25"/>
 </g>
 <path d="m98.013 44.516 0.341-2.053-1.271 0.136zm2.293-2.281-1.952 0.228 0.196-1.185zm-5.339 0.628 1.56-1.416 0.556 1.152zm0.726-3.143 1.705 0.928-0.871 0.799zm1.705 0.928 1.482-1.344-0.33 1.974z" fill="#ee4689" stroke="#010101" stroke-width=".25"/>
</svg>
