<svg xmlns="http://www.w3.org/2000/svg" viewBox="0 0 256 256">
    <path fill="#ffb380" stroke="#000" stroke-miterlimit="10" stroke-width=".999425" d="M96.025 18.467l-7.137 3.06L78.121 42.23l9.952 5.4 9.987-20.898z"/>
    <path fill="#e6e6e6" stroke="#000" stroke-miterlimit="10" stroke-width=".5" d="M90.724 24.182c0 1.353 1.1 2.445 2.448 2.445a2.446 2.446 0 1 0 0-4.892 2.445 2.445 0 0 0-2.448 2.447z"/>
    <path fill="#e6e6e6" stroke="#000" stroke-linejoin="round" stroke-miterlimit="7.5" stroke-width=".25" d="M90.727 29.9s-3.424 7.702-4.028 7.369c-.606-.326 4.028-7.369 4.028-7.369z"/>
    <path fill="#e6e6e6" stroke="#000" stroke-linejoin="round" stroke-miterlimit="7.5" stroke-width=".25" d="M91.921 34.866s-5.8.916-4.953 2.555c.836 1.634 4.953-2.555 4.953-2.555zm-5.29-4.631s2.36 5.37.53 5.545c-1.83.18-.53-5.545-.53-5.545zm6.794 1.88s-5.8.913-4.954 2.555c.834 1.633 4.954-2.555 4.954-2.555zm-5.293-4.63s2.365 5.374.535 5.543c-1.827.178-.535-5.544-.535-5.544z"/>
    <path fill="#ee4689" stroke="#010101" stroke-miterlimit="7.5" stroke-width=".24945648" d="M85.818 40.373l2.278 1.24-2.532.297zm-1.905 1.712l1.208 2.489.443-2.664zm0 0l-2.745.344 2.024-1.837zm-.72-1.493L82.11 38.35l2.212 1.204zm2.625-.22l-1.495-.818 1.923-1.743z"/>
    <path fill="#ffb380" stroke="#000" stroke-miterlimit="10" stroke-width=".999425" d="M167.11 21.528l-7.135-3.061-2.035 8.264 9.987 20.898 9.953-5.4z"/>
    <path fill="#e6e6e6" stroke="#000" stroke-miterlimit="10" stroke-width=".5" d="M162.828 21.734a2.446 2.446 0 1 0 0 4.891 2.447 2.447 0 1 0 0-4.891z"/>
    <path fill="#e6e6e6" stroke="#000" stroke-linejoin="round" stroke-miterlimit="7.5" stroke-width=".25" d="M169.301 37.269c-.604.333-4.028-7.369-4.028-7.369s4.633 7.043 4.028 7.369z"/>
    <path fill="#e6e6e6" stroke="#000" stroke-linejoin="round" stroke-miterlimit="7.5" stroke-width=".25" d="M169.032 37.42c.846-1.64-4.954-2.556-4.954-2.556s4.118 4.191 4.954 2.555zm-.195-1.638c-1.829-.176.531-5.546.531-5.546s1.3 5.723-.53 5.546zm-1.308-1.112c.846-1.642-4.954-2.555-4.954-2.555s4.12 4.188 4.954 2.555zm-.198-1.642c-1.83-.17.536-5.544.536-5.544s1.293 5.722-.536 5.544z"/>
    <path fill="#ee4689" stroke="#010101" stroke-miterlimit="7.5" stroke-width=".24945648" d="M170.18 40.373l.255 1.537-2.531-.296zm1.907 1.712l-1.652-.175.443 2.664zm0 0l.72-1.493 2.025 1.837zm.72-1.493l-1.13-1.038 2.212-1.204zm-2.626-.22l-.427-2.56 1.923 1.742z"/>
</svg>
