<svg xmlns="http://www.w3.org/2000/svg" viewBox="0 0 256 256">
    <path fill="#414042" stroke="#000" stroke-miterlimit="10" stroke-width=".166" d="M76.57 72.964l40.893-1.494.194 5.32-40.892 1.494z"/>
    <path fill="#e6e7e8" d="M102.646 73.076l.487-.017.858 2.475.675-2.531.488-.018-.925 3.23-.425.016zm-1.993 3.157a.994.994 0 0 1-.41-.398 1.316 1.316 0 0 1-.162-.612l-.033-.905c-.009-.234.03-.442.118-.624a.994.994 0 0 1 .378-.427c.166-.104.36-.159.583-.167.223-.008.42.033.594.124s.31.224.41.399c.1.174.154.378.163.613l.033.904c.009.234-.03.442-.118.623a.996.996 0 0 1-.38.427c-.165.104-.36.16-.582.168a1.167 1.167 0 0 1-.594-.125zm.922-.419a.607.607 0 0 0 .223-.261.829.829 0 0 0 .07-.382l-.035-.935a.826.826 0 0 0-.096-.376.607.607 0 0 0-.243-.244.678.678 0 0 0-.352-.076.672.672 0 0 0-.344.101.607.607 0 0 0-.224.262.829.829 0 0 0-.068.381l.034.936a.826.826 0 0 0 .096.375c.06.107.14.189.242.245.103.055.22.08.351.076a.676.676 0 0 0 .346-.102zM98.65 74.47l.98-1.283-.551.02-1.252 1.717-.061-1.67-.448.017.117 3.193.448-.016-.034-.927.497-.652.986 1.526.55-.02zm-3.91-1.105l.117 3.193 2.05-.075-.015-.425-1.603.058-.101-2.767zm-2.279 3.168a.994.994 0 0 1-.409-.399 1.316 1.316 0 0 1-.162-.612l-.033-.905c-.009-.233.03-.442.117-.623a.994.994 0 0 1 .379-.427c.166-.105.36-.16.583-.168.223-.008.42.033.594.125.173.09.31.223.41.398.1.174.154.379.162.613l.033.905c.009.234-.03.441-.117.622a.996.996 0 0 1-.38.428c-.166.104-.36.159-.583.167a1.167 1.167 0 0 1-.594-.124zm.923-.42a.607.607 0 0 0 .224-.26.83.83 0 0 0 .069-.382l-.034-.936a.83.83 0 0 0-.097-.376.607.607 0 0 0-.242-.244.678.678 0 0 0-.352-.076.672.672 0 0 0-.345.102.607.607 0 0 0-.223.26.83.83 0 0 0-.068.383l.034.935a.83.83 0 0 0 .096.376c.059.107.14.188.242.244.103.055.219.081.35.076a.678.678 0 0 0 .346-.101zm-4.427-2.536l.487-.018.858 2.475.675-2.531.488-.018-.925 3.23-.425.016z"/>
</svg>
