<?xml version="1.0" encoding="UTF-8"?>
<svg version="1.1" viewBox="0 0 256 256" xmlns="http://www.w3.org/2000/svg">
 <path d="M76.57 72.964l40.893-1.494.194 5.32-40.892 1.494z" fill="#414042" stroke="#000" stroke-miterlimit="10" stroke-width=".166"/>
 <g fill="#ffb380" stroke="#ffb380" stroke-width="4" aria-label="HIPPOS">
  <g fill="#e6e6e6" stroke="none">
   <path d="m91.835 76.697-0.12226-3.2283 0.45294-0.01715 0.12226 3.2283zm-1.834 0.06945-0.12226-3.2283 0.45294-0.01715 0.12226 3.2283zm0.22993-1.385-0.01632-0.43074 1.7918-0.06785 0.01632 0.43074z"/>
   <path d="m93.418 73.404 0.12225 3.2283-0.45294 0.01715-0.12226-3.2283z"/>
   <path d="m94.525 75.341-0.01632-0.43074 1.0324-0.03909q0.22203-0.0084 0.34944-0.16665 0.12964-0.15833 0.12022-0.407-0.0096-0.25311-0.15083-0.40118-0.13902-0.14816-0.36105-0.13975l-1.0324 0.03909-0.01633-0.43073 1.0169-0.03851q0.29308-0.0111 0.51537 0.105 0.22221 0.11388 0.35052 0.33136 0.13052 0.2174 0.14188 0.51714 0.01126 0.29752-0.10244 0.52417-0.11149 0.22657-0.32445 0.35693-0.21296 0.13035-0.50604 0.14146zm-0.18571 1.2611-0.12226-3.2283 0.45294-0.01715 0.12226 3.2283z"/>
   <path d="m97.312 75.235-0.01632-0.43074 1.0324-0.03908q0.22203-0.0084 0.34944-0.16665 0.12964-0.15833 0.12022-0.407-0.0096-0.25312-0.15082-0.40119-0.13902-0.14816-0.36105-0.13975l-1.0324 0.03908-0.01632-0.43074 1.0169-0.0385q0.29308-0.0111 0.51537 0.105 0.22221 0.11388 0.35051 0.33136 0.13053 0.2174 0.14188 0.51714 0.01135 0.29752-0.10244 0.52417-0.11149 0.22657-0.32445 0.35693-0.21296 0.13035-0.50604 0.14145zm-0.18571 1.2611-0.12225-3.2283 0.45294-0.01715 0.12225 3.2283z"/>
   <path d="m100.98 76.384q-0.34192 0.01294-0.60281-0.12392-0.26096-0.13909-0.41324-0.40236-0.15005-0.26336-0.16358-0.62082l-0.03472-0.91476q-0.01363-0.35969 0.11616-0.63142 0.13192-0.27404 0.38171-0.43024 0.24971-0.15843 0.59162-0.17138 0.34194-0.01294 0.6029 0.12614 0.26088 0.13687 0.41091 0.40023 0.15219 0.26105 0.16584 0.62074l0.0348 0.91476q0.0136 0.35747-0.11836 0.6315-0.12973 0.27395-0.37943 0.43238-0.24976 0.15621-0.5917 0.16916zm-0.017-0.44628q0.30417-0.01153 0.47869-0.21824 0.17671-0.2068 0.16426-0.53541l-0.0358-0.94584q-0.0125-0.33082-0.20429-0.52145-0.18962-0.19293-0.49382-0.18141-0.30194 0.01143-0.47867 0.21824-0.1768 0.20458-0.16427 0.53541l0.0358 0.94584q0.0124 0.3286 0.2043 0.52145 0.19185 0.19285 0.4938 0.18141z"/>
   <path d="m103.73 76.279q-0.23533 0.0089-0.44573-0.0276-0.20816-0.03658-0.3936-0.1185-0.18319-0.082-0.34588-0.20925l0.26885-0.35704q0.19033 0.15288 0.4154 0.2244 0.22505 0.07153 0.48482 0.06167 0.35082-0.01328 0.53901-0.1516 0.1882-0.13831 0.1793-0.37366l-9e-5 -0.0023q-9e-3 -0.18428-0.10836-0.27828-0.10141-0.09399-0.26302-0.13457-0.15951-0.04288-0.34941-0.06681-0.18323-0.0242-0.37133-0.05931-0.18586-0.03522-0.34467-0.11813-0.15887-0.08515-0.26072-0.25027-0.0996-0.16521-0.11033-0.44719l-8e-5 -0.0023q-0.017-0.45072 0.27333-0.70852 0.29033-0.26002 0.83653-0.28071 0.25977-0.0098 0.51163 0.06511 0.25178 0.07273 0.49361 0.23478l-0.24393 0.36951q-0.18952-0.13068-0.37631-0.19031-0.18459-0.05971-0.36887-0.05272-0.33083 0.01253-0.51007 0.15272-0.1771 0.13789-0.16793 0.3799l9e-5 0.0023q0.01 0.18206 0.11707 0.2735 0.1102 0.09144 0.28293 0.13159 0.17485 0.03785 0.37398 0.07033 0.17897 0.02879 0.35853 0.07313 0.17946 0.04213 0.3274 0.13213 0.15006 0.0877 0.24288 0.24872 0.0951 0.16094 0.10504 0.42515l1.7e-4 0.0045q0.017 0.44628-0.28468 0.70228-0.3016 0.256-0.86556 0.27736z"/>
  </g>
 </g>
</svg>
