<svg xmlns="http://www.w3.org/2000/svg" viewBox="0 0 256 256">
    <g transform="matrix(.06215 0 0 .06215 154.425 62.61)">
        <path fill="#231f20" d="M185.602 51.102c0 49.71-40.291 90-90 90-49.71 0-90-40.29-90-90 0-49.709 40.29-90 90-90 49.709 0 90 40.291 90 90z"/>
        <path fill="#be1e2d" d="M95.602 33.96c30.227 0 58.375 3.152 81.987 8.58-4.284-41.5-39.354-73.866-81.986-73.866-42.632 0-77.701 32.365-81.985 73.864 23.609-5.426 51.757-8.579 81.984-8.579z"/>
        <circle cx="95.602" cy="55.975" r="55.167" fill="#cb4b57"/>
        <path fill="#c2b59b" stroke="#231f20" stroke-miterlimit="10" stroke-width="2" d="M13.617 42.538a83.263 83.263 0 0 0-.443 8.564c0 1.09.029 2.174.07 3.254 14.872 2.53 17.576 11.691 37.088 11.691 22.635 0 22.635-12.338 45.27-12.338s22.635 12.338 45.27 12.338c19.513 0 22.217-9.162 37.088-11.69.042-1.08.07-2.165.07-3.255 0-2.892-.151-5.748-.441-8.563-23.611-5.427-51.76-8.58-81.987-8.58-30.227 0-58.375 3.153-81.985 8.58z"/>
        <path fill="#2b3990" d="M95.602 53.71c-22.635 0-22.635 12.337-45.27 12.337-19.512 0-22.216-9.162-37.087-11.69a82.428 82.428 0 0 0 1.968 15.014C28.4 72.333 31.712 80.677 50.332 80.677c22.635 0 22.635-12.338 45.27-12.338s22.635 12.338 45.27 12.338c18.62 0 21.934-8.344 35.12-11.306a82.416 82.416 0 0 0 1.968-15.015c-14.871 2.53-17.575 11.691-37.088 11.691-22.635 0-22.635-12.338-45.27-12.338z"/>
        <path fill="#1e2865" d="M95.602 68.338c-22.635 0-22.635 12.338-45.27 12.338-18.621 0-21.933-8.344-35.12-11.306a81.817 81.817 0 0 0 5.582 16.364c9.025 3.638 13.84 9.57 29.538 9.57 22.635 0 22.635-12.339 45.27-12.339s22.635 12.338 45.27 12.338c15.699 0 20.514-5.933 29.539-9.569a81.86 81.86 0 0 0 5.58-16.364c-13.186 2.962-16.498 11.306-35.12 11.306-22.634 0-22.634-12.338-45.27-12.338z"/>
        <path fill="#2b3990" d="M95.602 82.966c-22.635 0-22.635 12.338-45.27 12.338-15.698 0-20.513-5.932-29.538-9.569a82.581 82.581 0 0 0 14.746 21.797c3.804 1.415 8.393 2.401 14.792 2.401 22.635 0 22.635-12.338 45.27-12.338s22.635 12.338 45.27 12.338c6.399 0 10.989-.987 14.793-2.4a82.533 82.533 0 0 0 14.746-21.798c-9.025 3.637-13.84 9.57-29.54 9.57-22.634 0-22.634-12.339-45.27-12.339z"/>
        <path fill="#1e2865" d="M95.602 97.595c-22.635 0-22.635 12.338-45.27 12.338-6.4 0-10.988-.986-14.792-2.4A82.79 82.79 0 0 0 57.325 124.1c15.933-2.229 18.255-11.877 38.277-11.877 20.022 0 22.344 9.648 38.277 11.877a82.812 82.812 0 0 0 21.785-16.569c-3.804 1.414-8.394 2.401-14.793 2.401-22.634 0-22.634-12.338-45.27-12.338z"/>
        <path fill="none" stroke="#231f20" stroke-miterlimit="10" stroke-width="2" d="M177.959 54.356c-14.871 2.53-17.575 11.691-37.088 11.691-22.635 0-22.635-12.338-45.27-12.338S72.966 66.047 50.33 66.047c-19.512 0-22.216-9.162-37.087-11.69"/>
        <path fill="#bfa263" d="M103.958 87.498c2.728-5.046 7.223-7.934 7.414-8.057 2.925.122 5.824.263 8.646.451 13.719.914 19.233 3.307 20.379 3.88-1.521-.832-10.074-5.885-13.773-16.488-4.07-11.662-2.402-30.422-2.402-30.422l9.407 5.004s-3.431-3.388-6.405-12.809c-2.974-9.42-2-13.81-2-13.81s-9.15 13.791-10.81 26.418c-1.66 12.627 1.188 27.621 1.188 27.621l-14 .8-.997-43.832 5.805 1.601s-2.44-1.863-6.604-12.809C95.64 4.1 95.602-.564 95.602-.564s-.04 4.664-4.203 15.61-6.605 12.81-6.605 12.81l5.804-1.602-.996 43.831-14-.8s2.847-14.993 1.186-27.62C75.128 29.036 65.98 15.245 65.98 15.245s.974 4.39-2.001 13.81c-2.975 9.421-6.404 12.81-6.404 12.81l9.406-5.005s1.667 18.76-2.401 30.422C60.88 77.887 52.328 82.94 50.807 83.77c1.146-.572 6.659-2.965 20.379-3.879 2.818-.188 5.713-.329 8.635-.45.2.127 4.688 3.015 7.414 8.056 2.789 5.156 2.452 10.208 2.452 10.208l.005 35.591c1.955.14 3.92.234 5.912.234 1.987 0 3.95-.096 5.903-.233V97.705c-.002.001-.338-5.05 2.45-10.207z"/>
        <path fill="#816a39" d="M87.647 88.324c.345.718.634 1.428.873 2.117 0 0 .539 1.304.429 1.385.039-.029 2.215-1.122 6.665-1.122 4.517 0 6.586 1.092 6.626 1.122-.101-.076.43-1.388.43-1.388.246-.706.545-1.434.9-2.17-1.391-1.06-3.938-1.564-7.956-1.564-4.066 0-6.613.521-7.967 1.62zM89.569 95.061c.182 1.607.116 2.645.116 2.645s.002 1.478 0 1.48c.008-.008 2.527-1.219 6.01-1.219 3.315 0 5.804 1.212 5.81 1.218-.002-.003 0-1.479 0-1.479s-.065-1.057.123-2.688c-1.302-.703-3.256-1.05-5.932-1.05-3.044 0-4.942.464-6.127 1.093zM95.6 66.483L93 73.966h5.206zM98.206 73.966l1.606 4.951 6.315-4.789zM99.812 78.917l-4.211 3.06 6.504 4.525zM95.6 81.976l-4.21-3.059-2.294 7.585zM93 73.966l-1.61 4.951-6.314-4.789z"/>
        <path fill="none" stroke="#231f20" stroke-linejoin="round" stroke-miterlimit="10" stroke-width="2" d="M103.958 87.498c2.728-5.046 7.223-7.934 7.414-8.057 2.925.122 5.824.263 8.646.451 13.719.914 19.233 3.307 20.379 3.88-1.521-.832-10.074-5.885-13.773-16.488-4.07-11.662-2.402-30.422-2.402-30.422l9.407 5.004s-3.431-3.388-6.405-12.809c-2.974-9.42-2-13.81-2-13.81s-9.15 13.791-10.81 26.418c-1.66 12.627 1.188 27.621 1.188 27.621l-14 .8-.997-43.832 5.805 1.601s-2.44-1.863-6.604-12.809C95.64 4.1 95.602-.564 95.602-.564s-.04 4.664-4.203 15.61-6.605 12.81-6.605 12.81l5.804-1.602-.996 43.831-14-.8s2.847-14.993 1.186-27.62C75.128 29.036 65.98 15.245 65.98 15.245s.974 4.39-2.001 13.81c-2.975 9.421-6.404 12.81-6.404 12.81l9.406-5.005s1.667 18.76-2.401 30.422C60.88 77.887 52.328 82.94 50.807 83.77c1.146-.572 6.659-2.965 20.379-3.879 2.818-.188 5.713-.329 8.635-.45.2.127 4.688 3.015 7.414 8.056 2.789 5.156 2.452 10.208 2.452 10.208l.005 35.591c1.955.14 3.92.234 5.912.234 1.987 0 3.95-.096 5.903-.233V97.705c-.002.001-.338-5.05 2.45-10.207z"/>
        <path fill="#2b3990" stroke="#231f20" stroke-miterlimit="10" stroke-width="2" d="M57.325 124.101a82.046 82.046 0 0 0 38.277 9.43 82.043 82.043 0 0 0 38.277-9.43c-15.934-2.229-18.255-11.877-38.277-11.877-20.022 0-22.345 9.648-38.277 11.877z"/>
        <path fill="#d1d3d4" d="M120.545-27.463a82.066 82.066 0 0 0-21.508-3.787l7.467 20.52zM156.464-4.458a82.846 82.846 0 0 0-16.713-14.036l-3.792 21.5zM171.826 19.708A82.286 82.286 0 0 0 160.889.81l-10.914 18.9zM51.454-18.494A82.907 82.907 0 0 0 34.74-4.458l20.504 7.464zM30.316.81a82.292 82.292 0 0 0-10.937 18.9h21.849zM69.958-27.463a82.066 82.066 0 0 1 21.508-3.787l-7.467 20.52z"/>
        <path fill="#f1f2f2" d="M110.493-29.976a82.545 82.545 0 0 0-14.891-1.35c-5.086 0-10.061.465-14.89 1.35l14.89 25.791zM142.313-16.79a81.994 81.994 0 0 0-23.442-11.193l2.276 26.013zM164.895 6.49a82.871 82.871 0 0 0-14.011-16.493l-7.373 20.265zM177.528 42.07a81.84 81.84 0 0 0-6.923-25.15l-18.37 18.374zM72.334-27.983A82.02 82.02 0 0 0 48.892-16.79L70.06-1.97zM40.317-10A82.918 82.918 0 0 0 26.31 6.49l21.383 3.77zM20.598 16.923a81.87 81.87 0 0 0-6.922 25.146l25.292-6.776z"/>
        <path fill="none" stroke="#231f20" stroke-miterlimit="10" stroke-width="2" d="M177.528 42.07l-25.293-6.776 15.58-15.585h-17.84l6.807-11.788-13.271 2.341 4.195-11.532-11.747 4.276 3.089-17.51L121.147-1.97l-2.077-23.735-12.566 14.975-2.64-7.764-8.262 14.31-8.578-14.859-3.025 8.313-11.93-14.218-2.01 22.977-17.901-12.533 3.087 17.51-11.751-4.278 4.199 11.532L34.74 7.976l6.488 11.733H23.384l15.584 15.583-25.292 6.68"/>
        <circle cx="95.602" cy="51.102" r="82.428" fill="none" stroke="#231f20" stroke-miterlimit="10" stroke-width="4"/>
    </g>
</svg>
