<svg xmlns="http://www.w3.org/2000/svg" xmlns:xlink="http://www.w3.org/1999/xlink" viewBox="0 0 256 256">
    <defs>
        <linearGradient id="innoGrad3">
            <stop offset="0" stop-color="#ffe680" stop-opacity="0"/>
            <stop offset="1" stop-color="#ffd42a" stop-opacity=".502"/>
        </linearGradient>
        <linearGradient id="innoGrad2">
            <stop offset="0" stop-color="#ff2a2a" stop-opacity="0"/>
            <stop offset="1" stop-color="#ff2a2a" stop-opacity=".502"/>
        </linearGradient>
        <linearGradient id="innoGrad1">
            <stop offset="0" stop-color="#ff2a2a" stop-opacity=".502"/>
            <stop offset="1" stop-color="#ff2a2a" stop-opacity="0"/>
        </linearGradient>
        <linearGradient id="linearGradient950" x1="82.626" x2="129.996" y1="148.79" y2="148.79" gradientUnits="userSpaceOnUse" xlink:href="#innoGrad1"/>
        <linearGradient id="linearGradient973" x1="124.388" x2="171.758" y1="148.79" y2="148.79" gradientUnits="userSpaceOnUse" xlink:href="#innoGrad2"/>
        <radialGradient id="radialGradient1016" cx="129" cy="124.902" r="2.407" fx="129" fy="124.902" gradientUnits="userSpaceOnUse" xlink:href="#innoGrad3"/>
        <radialGradient id="radialGradient1018" cx="129" cy="142.652" r="2.407" fx="129" fy="142.652" gradientUnits="userSpaceOnUse" xlink:href="#innoGrad3"/>
        <radialGradient id="radialGradient1020" cx="128.5" cy="160.656" r="2.407" fx="128.5" fy="160.656" gradientUnits="userSpaceOnUse" xlink:href="#innoGrad3"/>
        <radialGradient id="radialGradient1022" cx="128.39" cy="178.239" r="2.407" fx="128.39" fy="178.239" gradientUnits="userSpaceOnUse" xlink:href="#innoGrad3"/>
        <radialGradient id="radialGradient1024" cx="128.915" cy="195.817" r="2.407" fx="128.915" fy="195.817" gradientUnits="userSpaceOnUse" xlink:href="#innoGrad3"/>
    </defs>
    <g stroke="#000" stroke-width=".625">
        <path fill="#ff2a2a" stroke="none" d="M129.292 123.559l31.779-106.963L128 10.299l-37.094 8.168z"/>
        <path fill="#f55" stroke-width=".999425" d="M98.51 8.485S101.24 6.3 129.292 6.3c28.051 0 28.592 2.185 28.592 2.185l3.511 8.94s.56-1.531-32.105-1.531c-32.664 0-34.685 1.959-34.685 1.959z"/>
    </g>
    <g transform="matrix(1.59908 0 0 1.59908 -75.39 -108.834)">
        <path fill="#ff8080" d="M85.518 85.407c-1.237 1.022 2.198 9.426 2.535 18.968.445 12.628-2.645 26.703-2.306 31.785.194 2.91 1.521 15.599 1.954 29.007.68 21.041-3.883 36.572-4.291 37.583-.551 1.363-.721 2.501 0 3.75 1.047 1.816 32.147 15.666 34.272 17.166s2.878-.195 4.166-3.75c1.288-3.555 5.934-15.338 6.75-16.749.184-.315 1.053-11.115 1.084-24.166.045-18.534-.877-53.63-1.292-56.857-.414-3.211-7.832-9.145-15.02-27.106-7.574-18.926-4.375-21.514-4.818-21.67-.21-.074-1.327 3.12-2.916 4.166-2.853 1.877-18.832 6.811-20.118 7.873z"/>
        <path fill="url(#linearGradient950)" stroke="#000" stroke-miterlimit="10" stroke-width=".625" d="M85.518 85.407c-1.237 1.022 2.198 9.426 2.535 18.968.445 12.628-2.645 26.703-2.306 31.785.194 2.91 1.521 15.599 1.954 29.007.68 21.041-3.883 36.572-4.291 37.583-.551 1.363-.721 2.501 0 3.75 1.047 1.816 32.147 15.666 34.272 17.166s2.878-.195 4.166-3.75c1.288-3.555 5.934-15.338 6.75-16.749.184-.315 1.053-11.115 1.084-24.166.045-18.534-.877-53.63-1.292-56.857-.414-3.211-7.832-9.145-15.02-27.106-7.574-18.926-4.375-21.514-4.818-21.67-.21-.074-1.327 3.12-2.916 4.166-2.853 1.877-18.832 6.811-20.118 7.873z"/>
        <path fill="none" stroke="#000" stroke-miterlimit="10" stroke-width=".625" d="M94.105 172.837l22.048 6.247-.5 6.083-22-6.75zM102.608 78.957s-7.253 13.666-7.003 14.411c.26.742 8.145 3.549 8.145 4.217 0 .669-5.383 3.881-5.294 4.645.104.764 4.881 3.332 12.392 8.526 7.145 4.943 17.544 11.388 17.544 11.388M103.749 97.584l7.633-7.821"/>
        <path fill="#ff8080" d="M168.866 85.407c1.236 1.022-2.198 9.426-2.535 18.968-.445 12.628 2.645 26.703 2.306 31.785-.194 2.91-1.521 15.599-1.954 29.007-.68 21.041 3.883 36.572 4.291 37.583.551 1.363.721 2.501 0 3.75-1.047 1.816-32.147 15.666-34.272 17.166s-2.878-.195-4.166-3.75c-1.288-3.555-5.934-15.338-6.75-16.749-.184-.315-1.053-11.115-1.084-24.166-.045-18.534.877-53.63 1.292-56.857.414-3.211 7.831-9.145 15.021-27.106 7.574-18.926 4.375-21.514 4.817-21.67.21-.074 1.327 3.12 2.916 4.166 2.853 1.877 18.831 6.811 20.118 7.873z"/>
        <path fill="url(#linearGradient973)" stroke="#000" stroke-miterlimit="10" stroke-width=".625" d="M168.866 85.407c1.236 1.022-2.198 9.426-2.535 18.968-.445 12.628 2.645 26.703 2.306 31.785-.194 2.91-1.521 15.599-1.954 29.007-.68 21.041 3.883 36.572 4.291 37.583.551 1.363.721 2.501 0 3.75-1.047 1.816-32.147 15.666-34.272 17.166s-2.878-.195-4.166-3.75c-1.288-3.555-5.934-15.338-6.75-16.749-.184-.315-1.053-11.115-1.084-24.166-.045-18.534.877-53.63 1.292-56.857.414-3.211 7.831-9.145 15.021-27.106 7.574-18.926 4.375-21.514 4.817-21.67.21-.074 1.327 3.12 2.916 4.166 2.853 1.877 18.831 6.811 20.118 7.873z"/>
        <path fill="none" stroke="#000" stroke-miterlimit="10" stroke-width=".625" d="M160.278 172.837l-22.048 6.247.5 6.083 22-6.75zM125.993 122.144s10.399-6.444 17.544-11.388c7.511-5.194 12.288-7.763 12.392-8.526.089-.763-5.294-3.976-5.294-4.645 0-.668 7.885-3.475 8.145-4.217.25-.746-7.004-14.411-7.004-14.411M143.002 89.763l7.633 7.821"/>
        <circle cx="129" cy="125.75" r="2.094" fill="#ffe680"/>
        <circle cx="129" cy="143.5" r="2.094" fill="#ffe680"/>
        <circle cx="128.5" cy="161.25" r="2.094" fill="#ffe680"/>
        <circle cx="128.39" cy="179.002" r="2.094" fill="#ffe680"/>
        <circle cx="129" cy="196.75" r="2.094" fill="#ffe680"/>
        <circle cx="129" cy="125.75" r="2.094" fill="url(#radialGradient1016)" stroke="#000" stroke-miterlimit="10" stroke-width=".625"/>
        <circle cx="129" cy="143.5" r="2.094" fill="url(#radialGradient1018)" stroke="#000" stroke-miterlimit="10" stroke-width=".625"/>
        <circle cx="128.5" cy="161.25" r="2.094" fill="url(#radialGradient1020)" stroke="#000" stroke-miterlimit="10" stroke-width=".625"/>
        <circle cx="128.39" cy="179.002" r="2.094" fill="url(#radialGradient1022)" stroke="#000" stroke-miterlimit="10" stroke-width=".625"/>
        <circle cx="129" cy="196.75" r="2.094" fill="url(#radialGradient1024)" stroke="#000" stroke-miterlimit="10" stroke-width=".625"/>
        <path fill="#f55" stroke="#000" stroke-miterlimit="10" stroke-width=".625" d="M169.044 86.305l-15.413-5.12-2.996-2.924 3.611 1.155 14.784 5.054z"/>
        <path fill="#ffb380" stroke="#000" stroke-miterlimit="10" stroke-width=".625" d="M168.13 83.912l-.025 2.573-14.258-4.75.782-2.32z"/>
        <path fill="#ffe680" fill-opacity=".941" stroke="#000" stroke-miterlimit="10" stroke-width=".625" d="M153.947 79.675c-.128.303-.793.313-1.479.023-.693-.291-1.147-.774-1.021-1.078.131-.304.792-.314 1.486-.022.686.294 1.14.773 1.014 1.077z"/>
        <path fill="#f55" stroke="#000" stroke-miterlimit="10" stroke-width=".625" d="M85.339 86.215l.014-1.835 14.785-5.054 3.611-1.155-2.996 2.924z"/>
        <path fill="#ffb380" stroke="#000" stroke-miterlimit="10" stroke-width=".625" d="M86.278 86.395l-.025-2.573 13.502-4.497.781 2.321z"/>
        <path fill="#ffe680" fill-opacity=".941" stroke="#000" stroke-miterlimit="10" stroke-width=".625" d="M101.448 78.508c.695-.292 1.355-.282 1.486.022.127.304-.326.787-1.02 1.078-.686.291-1.352.28-1.479-.023-.125-.304.33-.783 1.013-1.077z"/>
    </g>
    <g fill="none" stroke="#000" stroke-linejoin="round" stroke-miterlimit="10" stroke-width=".394">
        <path d="M132.666 94.786l-1.775-1.091-1.775 1.091.488-2.025-1.584-1.351 2.077-.16.794-1.926.795 1.926 2.077.16-1.586 1.351zM133.313 118.747l-1.027 1.812 1.153 1.735-2.042-.417-1.293 1.633-.235-2.07-1.951-.726 1.896-.862.086-2.081 1.407 1.537zM130.763 146.087l.297 2.061 1.973.667-1.869.919-.024 2.082-1.452-1.493-1.989.62.971-1.841-1.203-1.7 2.053.356zM127.611 175.278l1.929.785 1.571-1.367-.149 2.078 1.786 1.072-2.022.499-.468 2.03-1.101-1.77-2.074.182 1.342-1.592zM129.778 208.539l.019-2.082-1.849-.958 1.988-.625.338-2.056 1.209 1.698 2.06-.314-1.24 1.674.934 1.861-1.976-.66z"/>
    </g>
</svg>
