<svg xmlns="http://www.w3.org/2000/svg" viewBox="0 0 256 256">
    <path fill="#ffb380" stroke="#000" stroke-miterlimit="10" d="M155.72 46.871l-7.695-16.106 1.563-6.368 5.493 2.359 8.305 15.954z"/>
    <path fill="#ffde17" stroke="#000" stroke-miterlimit="10" stroke-width=".5" d="M153.67 28.801a1.882 1.882 0 1 1-3.765 0 1.883 1.883 0 0 1 3.765 0z"/>
    <path fill="#ffde17" stroke="#000" stroke-linejoin="round" stroke-miterlimit="10" stroke-width=".25" d="M153.668 33.207s2.64 5.935 3.105 5.68c.468-.251-3.105-5.68-3.105-5.68z"/>
    <path fill="#ffde17" stroke="#000" stroke-linejoin="round" stroke-miterlimit="10" stroke-width=".25" d="M152.742 37.035s4.472.705 3.825 1.968c-.642 1.261-3.825-1.968-3.825-1.968zm4.086-3.569s-1.816 4.139-.406 4.274c1.411.137.406-4.274.406-4.274zm-5.243 1.449s4.47.704 3.825 1.97c-.644 1.258-3.825-1.97-3.825-1.97zm4.085-3.569s-1.817 4.142-.406 4.273c1.41.137.406-4.273.406-4.273z"/>
    <path fill="#ee4689" stroke="#010101" stroke-width=".25" d="M157.648 42.463l-.202-1.185-1.748.957zm0 0l1.272.136-.93 1.917zm1.834-1.016l-.562 1.152 2.117.264zm-.883-.799l.883.799.829-1.727zm-1.472-1.344l.319 1.974 1.153-.63z"/>
    <path fill="#ffb380" stroke="#000" stroke-miterlimit="10" d="M100.287 46.871l7.698-16.106-1.569-6.368-5.5 2.359-8.298 15.954z"/>
    <path fill="#ffde17" stroke="#000" stroke-miterlimit="10" stroke-width=".5" d="M102.331 28.801c0 1.042.846 1.883 1.887 1.883a1.884 1.884 0 1 0 0-3.769 1.885 1.885 0 0 0-1.887 1.886z"/>
    <path fill="#ffde17" stroke="#000" stroke-linejoin="round" stroke-miterlimit="10" stroke-width=".25" d="M102.333 33.207s-2.638 5.935-3.104 5.68c-.468-.251 3.104-5.68 3.104-5.68z"/>
    <path fill="#ffde17" stroke="#000" stroke-linejoin="round" stroke-miterlimit="10" stroke-width=".25" d="M103.254 37.035s-4.471.705-3.818 1.968c.644 1.261 3.818-1.968 3.818-1.968zm-4.078-3.569s1.818 4.139.409 4.274c-1.409.137-.409-4.274-.409-4.274zm5.236 1.449s-4.47.704-3.818 1.97c.644 1.258 3.818-1.97 3.818-1.97zm-4.078-3.569s1.822 4.142.413 4.273c-1.41.137-.413-4.273-.413-4.273z"/>
    <path fill="#ee4689" stroke="#010101" stroke-width=".25" d="M98.354 42.463l.196-1.185 1.756.957zm0 0l-1.271.136.93 1.917zm-1.827-1.016l.556 1.152-2.116.264zm.871-.799l-.871.799-.834-1.727zm1.482-1.344l-.33 1.974-1.152-.63z"/>
</svg>
