<svg xmlns="http://www.w3.org/2000/svg" viewBox="0 0 256 256">
    <path fill="#414042" stroke="#000" stroke-miterlimit="10" stroke-width=".16599502000000002" d="M117.657 76.79l-40.89 1.493-.193-5.32 40.889-1.493z"/>
    <path fill="#e6e7e8" d="M115.126 73.125l-.015-.409-2.165.079.015.409.868-.031.097 2.659.43-.016-.097-2.659zm-2.406 2.749l-.112-3.067-.426.016.084 2.292-1.534-2.239-.391.014.113 3.067.426-.016-.083-2.257 1.528 2.204zm-2.88.107l-.015-.41-1.54.056-.034-.909 1.309-.048-.015-.409-1.309.048-.033-.931 1.54-.056-.015-.409-1.971.071.112 3.069zm-2.741-1.872a1.208 1.208 0 0 0-.16-.59.893.893 0 0 0-.412-.362 1.414 1.414 0 0 0-.636-.105l-.973.036.112 3.068.97-.036c.247-.009.455-.059.627-.151a.894.894 0 0 0 .386-.391c.085-.167.124-.368.116-.6a128.3 128.3 0 0 0-.03-.869zm-.578 1.407c-.12.122-.293.187-.52.195l-.555.021-.082-2.25.554-.02c.227-.008.404.044.533.157s.197.276.206.49l.033.903c.008.214-.049.382-.169.504zm-2.25.667l-.112-3.067-.427.015.084 2.292-1.533-2.238-.391.014.112 3.066.426-.015-.082-2.258 1.528 2.205zm-2.88.107l-.016-.41-1.541.057-.033-.91 1.309-.048-.015-.409-1.309.047-.034-.93 1.541-.056-.015-.41-1.971.072.112 3.068zm-2.406-2.575l-.015-.409-2.165.079.015.409.868-.031.097 2.658.43-.015-.097-2.659zm-2.405 2.748l-.113-3.066-.426.016.084 2.291-1.534-2.238-.39.014.112 3.066.426-.015-.082-2.258 1.528 2.205zm-3.028.113l-.431.016-.112-3.068.43-.016zm-1.518.055l.511-.019-.771-1.342c.053-.019.119-.017.166-.045a.784.784 0 0 0 .302-.323.942.942 0 0 0 .094-.469.95.95 0 0 0-.127-.461.769.769 0 0 0-.324-.3.958.958 0 0 0-.471-.092l-1.218.044.112 3.07.431-.016-.047-1.298.641-.023zm-1.393-2.613l.804-.029a.4.4 0 0 1 .22.051.39.39 0 0 1 .152.162.59.59 0 0 1 .061.249.565.565 0 0 1-.042.252.388.388 0 0 1-.355.24l-.804.029zm-.946 2.699l-.015-.409-1.54.056-.034-.909 1.309-.048-.015-.41-1.308.048-.034-.931 1.54-.056-.015-.41-1.971.073.112 3.068zm-2.766-2.524a.817.817 0 0 0-.336-.318.968.968 0 0 0-.487-.099l-1.188.043.112 3.068.431-.016-.043-1.19.758-.028a.989.989 0 0 0 .479-.133.813.813 0 0 0 .312-.34c.071-.145.104-.31.097-.497a1.03 1.03 0 0 0-.135-.49zm-.356.785a.433.433 0 0 1-.399.267l-.772.028-.039-1.06.772-.028a.456.456 0 0 1 .248.058.444.444 0 0 1 .17.181.632.632 0 0 1 .069.276.65.65 0 0 1-.049.278zm-3.925 1.894a.877.877 0 0 1-.383-.377 1.395 1.395 0 0 1-.149-.613l-.072-1.958.431-.016.072 1.973c.008.224.071.395.188.513s.278.173.483.166c.207-.008.365-.075.474-.201.108-.126.159-.302.15-.525l-.072-1.973.431-.016.071 1.958a1.37 1.37 0 0 1-.104.622.886.886 0 0 1-.355.404 1.192 1.192 0 0 1-.58.155 1.169 1.169 0 0 1-.585-.112zm-2.74-1.255a.713.713 0 0 1-.339-.23c-.096-.114-.147-.28-.155-.497v-.002a.89.89 0 0 1 .11-.491c.08-.137.2-.244.361-.32.161-.076.356-.119.585-.127.11-.004.218.004.325.024a1.7 1.7 0 0 1 .63.262l-.232.351a1.443 1.443 0 0 0-.356-.181 1 1 0 0 0-.352-.052c-.209.008-.371.056-.484.144a.411.411 0 0 0-.161.362v.002a.34.34 0 0 0 .099.246c.062.058.138.1.228.126l.925.206a.74.74 0 0 1 .322.241c.088.113.135.27.143.472v.004a.85.85 0 0 1-.115.485.83.83 0 0 1-.374.318 1.57 1.57 0 0 1-.605.126l-.222.008-.2-.036a1.585 1.585 0 0 1-.705-.312l.256-.339c.121.097.252.168.395.214.142.045.295.065.46.059.223-.008.394-.056.513-.142a.4.4 0 0 0 .171-.356v-.002a.37.37 0 0 0-.093-.251.493.493 0 0 0-.22-.131"/>
</svg>
