<svg xmlns="http://www.w3.org/2000/svg" viewBox="0 0 256 256">
    <path fill="#414042" stroke="#000" stroke-miterlimit="10" stroke-width=".200004" d="M117.955 94.975l-49.063-.756.098-6.382 49.063.756z"/>
    <path fill="#e6e7e8" d="M116.582 90.451l.008-.491-2.365-.037-.057 3.681 2.365.037.008-.491-1.849-.029.017-1.091 1.57.025.008-.492-1.57-.024.017-1.117zm-3.014 2.653l-1.847-.029.049-3.19-.517-.008-.057 3.682 2.365.036zm-3.209-.974a.827.827 0 0 0-.242-.316c-.107-.085-.383-.162-.383-.164 0 0 .274-.076.375-.153a.734.734 0 0 0 .229-.28.86.86 0 0 0 .079-.354 1.115 1.115 0 0 0-.11-.533.806.806 0 0 0-.355-.35 1.325 1.325 0 0 0-.595-.131l-1.45-.022-.057 3.681 1.493.023a1.26 1.26 0 0 0 .574-.115.874.874 0 0 0 .382-.346c.09-.15.138-.325.141-.524v-.008a.96.96 0 0 0-.081-.408zm-1.103-1.805c.216.003.377.052.484.145.106.093.159.231.156.415-.003.176-.053.307-.152.396-.099.088-.243.13-.434.127l-.915-.014.017-1.081zm.477 2.583c-.122.098-.313.145-.575.141l-.788-.012.019-1.177.914.014a.763.763 0 0 1 .356.078.44.44 0 0 1 .2.209.73.73 0 0 1 .059.322v.008a.51.51 0 0 1-.185.417zm-3 .582l.558.009-1.301-3.703-.44-.007-1.414 3.661.558.008.29-.803 1.485.023zm-1.573-1.324l.6-1.662.548 1.68zm-.966-2.398l-2.597-.04-.009.491 1.041.016-.049 3.191.517.008.049-3.191 1.041.016zm-4.5 3.651l-.237-.055a1.872 1.872 0 0 1-.823-.418l.327-.39c.138.124.291.217.459.28.167.063.351.097.548.1.267.004.474-.042.623-.138a.478.478 0 0 0 .227-.416v-.002a.444.444 0 0 0-.096-.307.605.605 0 0 0-.255-.171c-.105-.038-.924-.217-1.078-.272a.855.855 0 0 1-.392-.297c-.107-.143-.159-.344-.155-.604v-.002c.003-.228.058-.422.162-.582a.956.956 0 0 1 .453-.361 1.77 1.77 0 0 1 .708-.116c.131.002.261.018.388.049.127.031.252.075.375.134.123.059.244.132.362.22l-.3.406a1.684 1.684 0 0 0-.416-.238 1.165 1.165 0 0 0-.418-.083c-.251-.004-.447.043-.588.142a.494.494 0 0 0-.216.423v.002a.406.406 0 0 0 .103.301.66.66 0 0 0 .267.165c.107.036.945.24 1.094.305a.868.868 0 0 1 .371.309c.098.141.145.332.142.573v.005c-.003.224-.06.416-.169.573a.997.997 0 0 1-.467.358c-.203.08-.448.118-.733.114-.177-.006-.266-.007-.266-.007zm-2.21-3.754l-.043 2.749-1.696-2.776-.469-.008-.056 3.679.511.008.042-2.708 1.692 2.735.473.007.058-3.679zm-5.069 3.473a1.147 1.147 0 0 1-.447-.483 1.52 1.52 0 0 1-.15-.715l.016-1.043c.004-.27.062-.507.172-.71.11-.204.264-.36.462-.469a1.34 1.34 0 0 1 .681-.158c.257.004.482.063.676.179.194.116.343.277.447.483.104.206.154.445.149.715l-.017 1.043c-.004.27-.061.507-.171.71-.11.204-.265.36-.462.47a1.341 1.341 0 0 1-.681.157 1.331 1.331 0 0 1-.675-.179zm1.087-.426a.69.69 0 0 0 .273-.288.969.969 0 0 0 .102-.435l.016-1.079a.953.953 0 0 0-.088-.438.694.694 0 0 0-.264-.295.773.773 0 0 0-.4-.108.781.781 0 0 0-.403.096.694.694 0 0 0-.273.287.956.956 0 0 0-.102.435l-.017 1.079a.966.966 0 0 0 .088.438.691.691 0 0 0 .264.296.77.77 0 0 0 .4.108.773.773 0 0 0 .404-.096zm-4.016.549l-.287-.174a1.156 1.156 0 0 1-.442-.488 1.564 1.564 0 0 1-.148-.724l.016-1.01c.004-.273.061-.513.17-.719.109-.206.262-.364.457-.475.195-.111.42-.165.675-.161.211.003.405.052.581.145.175.093.322.223.438.391.117.167.194.36.233.578l-.529-.008a.804.804 0 0 0-.418-.523.729.729 0 0 0-.313-.079.714.714 0 0 0-.396.103.721.721 0 0 0-.268.301c-.064.13-.098.282-.101.456l-.016 1.01c-.003.172.026.324.086.457s.146.236.259.31a.722.722 0 0 0 .393.113c.11.002.216-.02.317-.063a.728.728 0 0 0 .266-.199.811.811 0 0 0 .166-.316l.529.008a1.43 1.43 0 0 1-.252.571 1.23 1.23 0 0 1-.452.376c-.178.087-.373.13-.582.127l-.382-.007zm-2.39-3.266l.008-.491-2.365-.037-.057 3.682 2.364.037.008-.492-1.848-.028.017-1.091 1.569.024.008-.492-1.57-.024.018-1.116zm-4.804 3.155l-.288-.174a1.15 1.15 0 0 1-.442-.488 1.554 1.554 0 0 1-.148-.724l.016-1.01c.004-.273.062-.513.171-.719.109-.206.262-.364.457-.475.195-.111.42-.165.675-.161.211.003.405.052.581.145.176.093.322.224.438.391.116.167.194.36.232.578l-.529-.008a.804.804 0 0 0-.418-.523.715.715 0 0 0-.313-.079.714.714 0 0 0-.396.103.728.728 0 0 0-.268.301c-.065.13-.098.282-.101.456l-.016 1.01a1.04 1.04 0 0 0 .087.457.71.71 0 0 0 .258.309.723.723 0 0 0 .393.114c.11.001.216-.02.317-.063a.72.72 0 0 0 .266-.199.798.798 0 0 0 .166-.316l.529.008a1.417 1.417 0 0 1-.252.571 1.236 1.236 0 0 1-1.033.503l-.382-.007zm-1.734-.065l-.517-.008.057-3.682.517.008zm-1.116-.508l-1.848-.029.049-3.19-.517-.008-.056 3.681 2.365.037zm-5.182.28a1.147 1.147 0 0 1-.447-.483 1.52 1.52 0 0 1-.149-.715l.016-1.043c.004-.27.062-.507.172-.71.11-.204.264-.36.461-.469.198-.109.425-.162.682-.158.256.004.481.063.676.179.194.115.343.276.447.483.104.207.154.445.15.715l-.016 1.043a1.517 1.517 0 0 1-.172.71c-.11.204-.264.36-.462.469a1.34 1.34 0 0 1-.681.158 1.339 1.339 0 0 1-.677-.179zm1.087-.426a.688.688 0 0 0 .273-.287.97.97 0 0 0 .102-.436l.017-1.078a.953.953 0 0 0-.088-.438.688.688 0 0 0-.264-.295.783.783 0 0 0-.399-.109.774.774 0 0 0-.403.096.688.688 0 0 0-.273.287.956.956 0 0 0-.102.435l-.017 1.079a.953.953 0 0 0 .088.438.682.682 0 0 0 .264.295c.115.07.248.106.4.109a.76.76 0 0 0 .402-.096zm-2.36-2.609a.97.97 0 0 0-.383-.402 1.165 1.165 0 0 0-.578-.149l-1.425-.022-.057 3.682.517.008.022-1.428.909.014c.219.003.413-.041.582-.13a.97.97 0 0 0 .395-.388c.094-.168.144-.365.147-.589a1.248 1.248 0 0 0-.129-.596zm-.475.918a.527.527 0 0 1-.2.22.542.542 0 0 1-.295.074l-.926-.014.02-1.271.927.014c.111.002.208.03.292.084.083.054.148.13.193.227a.76.76 0 0 1 .064.335.768.768 0 0 1-.075.331z"/>
</svg>
