<svg xmlns="http://www.w3.org/2000/svg" viewBox="0 0 256 256">
    <g>
        <path fill="#231f20" d="M169.626 62.532c-3.522-.833-6.086-.705-6.323-.602-.137.06-.385 1.066-.597 1.067-.214.001-2.125-3.133-2.388-3.129-.263.003-2.142 3.137-2.313 3.133-.168-.002-.499-1.04-.64-1.1-.238-.1-2.804-.187-6.311.703-4.894 1.241-6.587 3.894-6.389 3.969.198.075 2.744-1.328 3.322-.583.522.672-.872 1.805-.682 1.897.188.093 1.587-.566 2.482.308.896.875.287 2.026.518 2.012.23-.014 3.269-2.71 4.252-2.547.983.163 1.27.782 1.515.78.121-.001.449-.498.864-1.009 0 0 3.27 4.566 3.477 4.56.21-.006 3.374-4.574 3.374-4.574.438.517.787 1.032.912 1.031.245-.002.52-.625 1.501-.804.98-.179 4.062 2.467 4.292 2.478.231.011-.398-1.13.486-2.019.881-.889 2.29-.251 2.478-.348.188-.096-1.226-1.206-.713-1.887.566-.753 3.134.608 3.331.53.198-.079-1.538-2.704-6.448-3.866z"/>
        <path fill="#9981ba" stroke="#000" stroke-linejoin="round" stroke-miterlimit="10" stroke-width=".126" d="M175.164 65.738s-2.421-1.171-3.35-.421c-.737.599.827 1.947.827 1.947s-1.25-.386-2.023.351c-.773.737-.427 1.675-.427 1.675s-3.179-2.532-4.039-2.385c-.86.149-1.479.758-1.479.758s-.744-1.391-1.566-1.479c-1.132-.121-2.099.319-2.201.297-.101-.022 3.185-3.802 3.185-3.802s3.881.026 5.987.607c2.103.582 5.086 2.452 5.086 2.452z"/>
        <path fill="#664e87" stroke="#000" stroke-linejoin="round" stroke-miterlimit="10" stroke-width=".063" d="M164.647 62.676l-.554.18.58 4.807-.185-4.575 5.703 6.202-5.422-6.272 7.873 4.246z"/>
        <path fill="#664e87" stroke="#000" stroke-linejoin="round" stroke-miterlimit="10" stroke-width=".126" d="M160.368 66.147s1.066-.792 2.079-1.658c1.001-.859 1.441-1.989 1.441-1.989s2.43-.083 5.544.496c3.426.639 5.731 2.741 5.731 2.741s-3.328-2.01-6.001-2.482c-2.31-.408-4.724-.41-4.724-.41s-.508 1.095-1.547 1.978c-1.042.882-1.987 1.658-1.987 1.658z"/>
        <path fill="#9981ba" stroke="#000" stroke-linejoin="round" stroke-miterlimit="10" stroke-width=".126" d="M145.569 65.977s2.402-1.211 3.341-.474c.749.585-.796 1.958-.796 1.958s1.244-.406 2.029.319c.787.724.454 1.667.454 1.667s3.138-2.584 4.001-2.448c.863.133 1.491.733 1.491.733s.719-1.403 1.542-1.503c1.13-.139 2.104.285 2.204.262.103-.023-3.245-3.75-3.245-3.75s-3.88.088-5.975.704c-2.094.614-5.046 2.532-5.046 2.532z"/>
        <path fill="#664e87" stroke="#000" stroke-linejoin="round" stroke-miterlimit="10" stroke-width=".063" d="M156.033 62.745l.559.172-.502 4.815.111-4.578-5.603 6.293 5.319-6.359-7.803 4.373z"/>
        <path fill="#664e87" stroke="#000" stroke-linejoin="round" stroke-miterlimit="10" stroke-width=".126" d="M160.368 66.147s-1.076-.773-2.104-1.624a5.575 5.575 0 0 1-1.473-1.965s-2.431-.044-5.535.585c-3.416.693-5.687 2.833-5.687 2.833s3.296-2.063 5.96-2.579c2.302-.445 4.716-.487 4.716-.487s.525 1.087 1.58 1.953c1.054.866 2.011 1.626 2.011 1.626z"/>
        <path fill="#7f61a9" stroke="#000" stroke-width=".126" d="M156.655 65.96l3.752 4.919 3.673-4.979-3.754-4.919z"/>
        <path fill="#193" stroke="#000" stroke-width=".126" d="M158.773 65.447s.24-.742-.024-1.688c.826.532 1.606.52 1.606.52v0s.779-.001 1.597-.545c-.25.95.002 1.688.002 1.688v0s.242.742 1.013 1.35c-.981.056-1.606.524-1.606.524s-.632.458-.972 1.381c-.356-.916-.995-1.365-.995-1.365s-.631-.458-1.611-.498c.76-.621.989-1.367.99-1.367"/>
        <path fill="#eb1e67" stroke="#000" stroke-linecap="round" stroke-width=".126" d="M161.03 63.756c.356.02.429.645.246.906l-.91 1.286-.928-1.271c-.186-.259-.124-.884.233-.91.121-.008.204.274.68.27.476-.006.557-.287.679-.281zM158.487 64.641c.13-.333.746-.21.938.046l.94 1.262-1.494.49c-.304.098-.879-.155-.795-.502.032-.118.325-.11.469-.563.142-.456-.102-.62-.058-.733zM158.543 67.332c-.277-.226.03-.773.334-.878l1.489-.505.005 1.573c-.001.319-.419.788-.723.6-.104-.065-.005-.343-.392-.619-.387-.274-.617-.095-.713-.171zM161.118 68.11c-.299.193-.727-.269-.731-.588l-.021-1.574 1.499.482c.303.098.619.642.348.872-.094.078-.327-.102-.71.183-.381.283-.282.558-.385.625zM162.656 65.9c.091.346-.479.609-.785.515l-1.505-.467.924-1.276c.187-.257.802-.391.936-.059.046.112-.196.28-.045.729.15.451.443.442.475.558z"/>
        <path fill="none" stroke="#000" stroke-width=".126" d="M159.405 67.301l.307-1.139-.933-.733 1.169-.055.419-1.119.412 1.112 1.194.036-.927.764.332 1.117-1.005-.624z"/>
        <circle cx="160.368" cy="65.948" r=".712" fill="#ebc633" stroke="#000" stroke-width=".126"/>
    </g>
</svg>
