<svg version="1.1" viewBox="0 0 256 256" xmlns="http://www.w3.org/2000/svg">
 <path d="m155.72 46.871-7.695-16.106 1.563-6.368 5.493 2.359 8.305 15.954z" fill="#ffb380" stroke="#000" stroke-miterlimit="10"/>
 <g fill="#ffde17" stroke="#000" stroke-miterlimit="10">
  <path d="m153.67 28.801a1.8825 1.8825 0 1 1-3.765 0 1.883 1.883 0 0 1 3.765 0z" stroke-width=".5"/>
  <path d="m153.67 33.207s2.64 5.935 3.105 5.68c0.468-0.251-3.105-5.68-3.105-5.68z" stroke-linejoin="round" stroke-width=".25"/>
  <path d="m156.83 33.466s-1.816 4.139-0.406 4.274c1.411 0.137 0.406-4.274 0.406-4.274zm-4.086 3.569s4.472 0.705 3.825 1.968c-0.642 1.261-3.825-1.968-3.825-1.968zm2.928-5.689s-1.817 4.142-0.406 4.273c1.41 0.137 0.406-4.273 0.406-4.273zm-4.085 3.569s4.47 0.704 3.825 1.97c-0.644 1.258-3.825-1.97-3.825-1.97z" stroke-linejoin="round" stroke-width=".25"/>
 </g>
 <path d="m158.92 42.599-0.93 1.917-0.342-2.053zm-1.474-1.321-1.748 0.957 1.95 0.228zm1.474 1.321 2.117 0.264-1.555-1.416zm0.562-1.152 0.829-1.727-1.712 0.928zm-2.036-0.169 1.153-0.63-1.472-1.344z" fill="#ee4689" stroke="#010101" stroke-width=".25"/>
 <path d="m100.29 46.871 7.698-16.106-1.569-6.368-5.5 2.359-8.298 15.954z" fill="#ffb380" stroke="#000" stroke-miterlimit="10"/>
 <g fill="#ffde17" stroke="#000" stroke-miterlimit="10">
  <path d="m102.33 28.801c0 1.042 0.846 1.883 1.887 1.883a1.8845 1.8845 0 1 0 0-3.769 1.885 1.885 0 0 0-1.887 1.886z" stroke-width=".5"/>
  <path d="m102.33 33.207s-2.638 5.935-3.104 5.68c-0.468-0.251 3.104-5.68 3.104-5.68z" stroke-linejoin="round" stroke-width=".25"/>
  <path d="m99.176 33.466s1.818 4.139 0.409 4.274c-1.409 0.137-0.409-4.274-0.409-4.274zm4.078 3.569s-4.471 0.705-3.818 1.968c0.644 1.261 3.818-1.968 3.818-1.968zm-2.92-5.689s1.822 4.142 0.413 4.273c-1.41 0.137-0.413-4.273-0.413-4.273zm4.078 3.569s-4.47 0.704-3.818 1.97c0.644 1.258 3.818-1.97 3.818-1.97z" stroke-linejoin="round" stroke-width=".25"/>
 </g>
 <path d="m97.083 42.599 0.93 1.917 0.341-2.053zm1.467-1.321 1.756 0.957-1.952 0.228zm-1.467 1.321-2.116 0.264 1.56-1.416zm-0.556-1.152-0.834-1.727 1.705 0.928zm2.023-0.169-1.152-0.63 1.482-1.344z" fill="#ee4689" stroke="#010101" stroke-width=".25"/>
</svg>
