<svg xmlns="http://www.w3.org/2000/svg" viewBox="0 0 256 256">
    <path fill="#414042" stroke="#000" stroke-miterlimit="10" stroke-width=".166" d="M76.57 72.963l40.893-1.494.194 5.32-40.892 1.495z"/>
    <path fill="#e6e7e8" d="M111.908 75.827a.923.923 0 0 1-.397-.392 1.434 1.434 0 0 1-.157-.637l-.074-2.038.448-.017.075 2.053c.01.233.074.41.196.535.122.123.289.179.503.171.215-.008.38-.077.492-.207.113-.132.166-.314.158-.548l-.075-2.053.447-.016.075 2.037c.009.25-.027.467-.109.648a.915.915 0 0 1-.369.42c-.166.1-.366.154-.603.163a1.22 1.22 0 0 1-.61-.119zm-.934-3.056l-2.253.082.016.427.901-.033.102 2.767.448-.016-.1-2.767.902-.033zm-2.833 3.302l.53-.02-.79-1.376c.057-.02.111-.039.161-.068a.807.807 0 0 0 .314-.335.978.978 0 0 0 .1-.49.99.99 0 0 0-.134-.479.799.799 0 0 0-.337-.312 1.005 1.005 0 0 0-.49-.096l-1.267.047.117 3.195.447-.016-.05-1.351.667-.024zm-1.45-2.72l.838-.03a.404.404 0 0 1 .387.222c.038.074.06.16.064.257a.609.609 0 0 1-.045.263.414.414 0 0 1-.145.18.425.425 0 0 1-.225.07l-.837.031zm-1.311 2.82l.481-.017-1.294-3.15-.381.014-1.061 3.236.483-.018.215-.709 1.288-.047zm-1.425-1.076l.445-1.467.55 1.43zm-2.486.773l.7-1.782.08 2.2.437-.016-.116-3.194-.42.016-.86 2.142-1.015-2.074-.419.015.117 3.194.437-.016-.08-2.157.828 1.684zm-2.462.537l.482-.018-1.293-3.15-.382.014-1.06 3.236.482-.018.215-.71 1.288-.046zm-1.425-1.077l.446-1.467.55 1.43zm-1.267 1.175l-.448.016-.117-3.193.448-.016zm-1.736-1.299l.05 1.36.447-.016-.116-3.194-.448.017.051 1.408-1.366.05-.051-1.408-.449.016.117 3.194.449-.017-.05-1.36zm-2.543-1.277a.846.846 0 0 0-.35-.331 1.007 1.007 0 0 0-.507-.104l-1.236.046.117 3.193.447-.017-.045-1.239.789-.029a1.02 1.02 0 0 0 .498-.14.838.838 0 0 0 .324-.352c.075-.15.108-.322.101-.517a1.063 1.063 0 0 0-.138-.51zm-.37.817a.46.46 0 0 1-.165.199.476.476 0 0 1-.252.077l-.803.03-.04-1.103.803-.03a.469.469 0 0 1 .257.06.469.469 0 0 1 .178.188.662.662 0 0 1 .072.288.66.66 0 0 1-.05.29zm-4.003 1.961a1.005 1.005 0 0 1-.41-.4 1.313 1.313 0 0 1-.162-.612l-.033-.904a1.32 1.32 0 0 1 .117-.624.996.996 0 0 1 .38-.427c.166-.104.36-.16.583-.167.223-.009.42.032.594.124.173.09.31.224.41.398.1.175.154.379.162.614l.033.904c.009.234-.03.442-.117.623a1.005 1.005 0 0 1-.38.428c-.166.104-.36.16-.583.167a1.157 1.157 0 0 1-.594-.124zm.924-.418a.604.604 0 0 0 .222-.261.83.83 0 0 0 .07-.382l-.035-.935a.83.83 0 0 0-.097-.376.611.611 0 0 0-.593-.32.678.678 0 0 0-.345.101.599.599 0 0 0-.223.261.83.83 0 0 0-.068.382l.034.935a.83.83 0 0 0 .096.376c.059.107.14.187.241.245.103.055.22.08.352.075a.688.688 0 0 0 .346-.101zm-3.338.653l-.208-.037a1.626 1.626 0 0 1-.39-.117 1.688 1.688 0 0 1-.344-.208l.267-.352c.124.1.262.174.41.22.148.047.309.07.48.063.23-.008.409-.058.532-.148a.412.412 0 0 0 .178-.371v-.002a.385.385 0 0 0-.097-.262.52.52 0 0 0-.229-.136c-.093-.029-.81-.147-.945-.188a.734.734 0 0 1-.353-.24c-.1-.119-.154-.29-.162-.516v-.002a.924.924 0 0 1 .114-.51.836.836 0 0 1 .376-.334c.167-.08.37-.123.609-.132.114-.004.227.004.338.025a1.846 1.846 0 0 1 .654.273l-.241.365a1.496 1.496 0 0 0-.37-.188 1.034 1.034 0 0 0-.366-.054c-.219.008-.387.057-.504.149a.43.43 0 0 0-.168.377v.002a.35.35 0 0 0 .103.256c.065.06.144.103.237.13.094.028.831.166.963.216.13.05.242.133.334.25.092.118.142.28.15.49v.005a.884.884 0 0 1-.121.505.864.864 0 0 1-.39.33 1.663 1.663 0 0 1-.629.132l-.228.01zm-1.52.023l-.448.016-.116-3.193.447-.016zm-3.144-3.083l.117 3.194L82.754 77l-.016-.428-1.603.058-.101-2.766z"/>
</svg>
