<svg xmlns="http://www.w3.org/2000/svg" viewBox="0 0 256 256">
    <path fill="#3971c6" d="M159.531 75.11h2.163v2.986h-2.163z"/>
    <path fill="#d75086" d="M161.694 75.092h2.163v2.986h-2.163z"/>
    <path fill="#674a95" d="M167.292 75.092h2.172v2.986h-2.172z"/>
    <path fill="#777" d="M165.12 75.11h2.172v2.986h-2.172z"/>
    <path fill="#ebc633" d="M163.857 75.101h1.263v2.968h-1.263z"/>
    <path fill="#231f20" fill-opacity=".251" d="M159.512 75.148h9.953v.1h-9.953zm0 .249h9.953v.1h-9.953zm0 .249h9.953v.1h-9.953zm0 .249h9.953v.1h-9.953zm0 .248h9.953v.1h-9.953zm0 .25h9.953v.099h-9.953zm0 .248h9.953v.1h-9.953zm0 .249h9.953v.1h-9.953zm0 .249h9.953v.1h-9.953zm0 .248h9.953v.1h-9.953zm0 .25h9.953v.099h-9.953zm0 .248h9.953v.1h-9.953z"/>
    <path fill="none" stroke="#231f20" stroke-linejoin="round" stroke-miterlimit="10" stroke-width=".1" d="M159.512 75.092h9.953v2.986h-9.953z"/>
    <path fill="#e6e7e8" d="M169.514 75.092h9.953v2.986h-9.953z"/>
    <path fill="#674a95" d="M169.533 75.092h1.244v2.986h-1.244zM178.223 75.092h1.244v2.986h-1.244zM171.705 75.092h1.244v2.986h-1.244zM176.051 75.092h1.244v2.986h-1.244zM173.256 75.092h2.488v2.986h-2.488z"/>
    <path fill="#231f20" fill-opacity=".251" d="M169.514 75.148h9.953v.1h-9.953zm0 .249h9.953v.1h-9.953zm0 .249h9.953v.1h-9.953zm0 .249h9.953v.1h-9.953zm0 .248h9.953v.1h-9.953zm0 .25h9.953v.099h-9.953zm0 .248h9.953v.1h-9.953zm0 .249h9.953v.1h-9.953zm0 .249h9.953v.1h-9.953zm0 .248h9.953v.1h-9.953zm0 .25h9.953v.099h-9.953zm0 .248h9.953v.1h-9.953z"/>
    <path fill="none" stroke="#231f20" stroke-linejoin="round" stroke-miterlimit="10" stroke-width=".1" d="M169.514 75.092h9.953v2.986h-9.953z"/>
    <path fill="#b89300" d="M172.328 76.566l.59.309.566-.568z"/>
    <path fill="#ebc633" d="M172.328 76.566l1.156-.26-.791-.126z"/>
    <path fill="#ebc633" d="M172.693 76.18l-.365.386v-1.1z"/>
    <path fill="#fff966" d="M172.328 76.566v-1.1l-.365.714z"/>
    <path fill="#fff966" d="M171.963 76.18l.365.386-1.157-.26z"/>
    <path fill="#ebc633" d="M172.328 76.566l-1.157-.26.566.569z"/>
    <path fill="#ebc633" d="M172.328 76.566l-.591.309-.124.791z"/>
    <path fill="#b89300" d="M171.613 77.666l.715-1.1v.738zM172.328 76.566v.738l.715.362z"/>
    <path fill="#b89300" d="M172.328 76.566l.715 1.1-.125-.791z"/>
    <path fill="none" stroke="#231f20" stroke-linejoin="round" stroke-miterlimit="10" stroke-width=".09953" d="M172.328 77.304l-.715.362.124-.791-.566-.568.792-.127.365-.714.365.714.791.127-.566.568.125.791z"/>
    <path fill="#b89300" d="M176.673 76.566l.59.308.566-.567z"/>
    <path fill="#ebc633" d="M176.673 76.566l1.156-.26-.791-.126z"/>
    <path fill="#ebc633" d="M177.038 76.18l-.365.386v-1.1z"/>
    <path fill="#fff966" d="M176.673 76.566v-1.1l-.365.714z"/>
    <path fill="#fff966" d="M176.308 76.18l.365.386-1.157-.26z"/>
    <path fill="#ebc633" d="M176.673 76.566l-1.157-.26.566.568zM176.673 76.566l-.591.308-.124.792z"/>
    <path fill="#b89300" d="M175.958 77.666l.715-1.1v.738zM176.673 76.566v.738l.714.362z"/>
    <path fill="#b89300" d="M176.673 76.566l.714 1.1-.124-.792z"/>
    <path fill="none" stroke="#231f20" stroke-linejoin="round" stroke-miterlimit="10" stroke-width=".09953" d="M176.673 77.304l-.715.362.124-.792-.566-.567.792-.127.365-.714.365.714.791.127-.566.567.124.792z"/>
    <path fill="#be1e2d" d="M149.509 75.101h9.953v2.986h-9.953z"/>
    <path fill="#f1f2f2" d="M149.528 75.119h2.163v2.986h-2.163zM157.289 75.101h2.172v2.986h-2.172z"/>
    <path fill="#231f20" fill-opacity=".251" d="M149.51 75.194h9.952v.1h-9.953zm0 .249h9.952v.1h-9.953zm0 .249h9.952v.1h-9.953zm0 .249h9.952v.1h-9.953zm0 .248h9.952v.1h-9.953zm0 .25h9.952v.099h-9.953zm0 .248h9.952v.1h-9.953zm0 .249h9.952v.1h-9.953zm0 .249h9.952v.1h-9.953zm0 .248h9.952v.1h-9.953zm0 .25h9.952v.099h-9.953zm0 .248h9.952v.1h-9.953z"/>
    <path fill="none" stroke="#231f20" stroke-linejoin="round" stroke-miterlimit="10" stroke-width=".1" d="M149.509 75.092h9.953v2.986h-9.953z"/>
    <path fill="#ff6bda" d="M154.486 76.585l.454-.455.804.455z"/>
    <path fill="#cc38a7" d="M154.486 76.585h1.258l-.804.454zM154.94 77.039l-.454-.454v1.258zM154.486 76.585v1.258l-.455-.804z"/>
    <path fill="#ff6bda" d="M154.031 77.039l.455-.454h-1.259z"/>
    <path fill="#ff9eff" d="M154.486 76.585h-1.259l.804-.455z"/>
    <path fill="#ff6bda" d="M154.486 76.585l.454-.455-.454-.804z"/>
    <path fill="#ff9eff" d="M154.486 75.326v1.259l-.455-.455z"/>
    <path fill="none" stroke="#231f20" stroke-linejoin="round" stroke-miterlimit="10" stroke-width=".09953" d="M154.031 76.13l.455-.804.454.804.804.455-.804.454-.454.804-.455-.804-.804-.454z"/>
    <path fill="#a79e90" d="M139.507 75.101h1.991v2.986h-1.991z"/>
    <path fill="#ff6bda" d="M141.497 75.087h1.991v2.986h-1.991z"/>
    <path fill="#f95" d="M143.488 75.087h1.991v2.986h-1.991z"/>
    <path fill="#05c6ff" d="M145.478 75.101h1.991v2.986h-1.991z"/>
    <path fill="#85ff8b" d="M147.469 75.101h1.991v2.986h-1.991z"/>
    <path fill="#231f20" fill-opacity=".251" d="M139.507 75.135h9.952v.1h-9.952zm0 .248h9.952v.1h-9.952zm0 .25h9.952v.099h-9.952zm0 .248h9.952v.1h-9.952zm0 .249h9.952v.1h-9.952zm0 .249h9.952v.1h-9.952zm0 .249h9.952v.1h-9.952zm0 .248h9.952v.1h-9.952zm0 .25h9.952v.099h-9.952zm0 .248h9.952v.1h-9.952zm0 .249h9.952v.1h-9.952zm0 .249h9.952v.1h-9.952z"/>
    <path fill="none" stroke="#231f20" stroke-linejoin="round" stroke-miterlimit="10" stroke-width=".1" d="M139.507 75.092h9.953v2.986h-9.953z"/>
    <path fill="#919191" d="M144.483 76.59l.59.307.567-.567z"/>
    <path fill="#c4c4c4" d="M144.483 76.59l1.157-.26-.792-.127zM144.848 76.203l-.365.386v-1.1z"/>
    <path fill="#f7f7f7" d="M144.483 76.59v-1.1l-.365.713z"/>
    <path fill="#f7f7f7" d="M144.118 76.203l.365.386-1.157-.26z"/>
    <path fill="#c4c4c4" d="M144.483 76.59l-1.157-.26.566.567zM144.483 76.59l-.59.307-.125.792z"/>
    <path fill="#919191" d="M143.768 77.69l.715-1.1v.736zM144.483 76.59v.736l.715.363z"/>
    <path fill="#919191" d="M144.483 76.59l.715 1.1-.124-.793z"/>
    <path fill="none" stroke="#231f20" stroke-linejoin="round" stroke-miterlimit="10" stroke-width=".09953" d="M144.483 77.326l-.715.363.124-.792-.566-.567.792-.127.365-.714.365.714.792.127-.566.567.124.792z"/>
    <path fill="#ebc633" d="M154.51 72.056h1.991v2.986h-1.991z"/>
    <path fill="#674a95" d="M156.501 72.042h5.972v2.986h-5.972z"/>
    <path fill="#ebc633" d="M162.473 72.056h1.991v2.986h-1.991z"/>
    <path fill="#231f20" fill-opacity=".251" d="M154.51 72.106h9.953v.1h-9.953zm0 .249h9.953v.1h-9.953zm0 .248h9.953v.1h-9.953zm0 .25h9.953v.099h-9.953zm0 .248h9.953v.1h-9.953zm0 .249h9.953v.1h-9.953zm0 .249h9.953v.1h-9.953zm0 .249h9.953v.099h-9.953zm0 .248h9.953v.1h-9.953zm0 .25h9.953v.099h-9.953zm0 .248h9.953v.1h-9.953zm0 .249h9.953v.1h-9.953z"/>
    <path fill="none" stroke="#231f20" stroke-linejoin="round" stroke-miterlimit="10" stroke-width=".1" d="M154.51 72.047h9.953v2.986h-9.953z"/>
</svg>
