<svg xmlns="http://www.w3.org/2000/svg" viewBox="0 0 256 256">
    <path fill="#414042" stroke="#000" stroke-miterlimit="10" stroke-width=".166" d="M76.57 72.964l40.893-1.494.194 5.32-40.892 1.494z"/>
    <path fill="#e6e7e8" d="M111.65 75.822a.92.92 0 0 1-.398-.392 1.438 1.438 0 0 1-.155-.638l-.075-2.038.448-.016.075 2.053c.01.232.074.41.196.534.121.122.29.18.503.172.215-.007.38-.077.493-.209.113-.132.166-.314.157-.547l-.075-2.052.448-.017.074 2.038c.01.25-.027.466-.108.647a.922.922 0 0 1-.369.421c-.165.1-.367.154-.603.162a1.242 1.242 0 0 1-.611-.118zm-1.821-2.597l.901-.033-.015-.426-2.253.082.016.427.902-.033.101 2.766.449-.017zm-1.947 2.841l.532-.02-.79-1.375c.054-.02.11-.038.16-.068a.8.8 0 0 0 .314-.336.978.978 0 0 0 .099-.489.99.99 0 0 0-.134-.48.799.799 0 0 0-.336-.311 1.004 1.004 0 0 0-.491-.096l-1.267.046.116 3.195.448-.017-.05-1.35.667-.025zm-1.449-2.719l.836-.03a.421.421 0 0 1 .23.053.41.41 0 0 1 .159.169c.039.074.06.16.063.258a.594.594 0 0 1-.044.262.408.408 0 0 1-.371.251l-.837.03zm-1.313 2.82l.483-.018-1.294-3.15-.382.015-1.06 3.235.482-.017.216-.71 1.288-.047zm-1.424-1.076l.446-1.467.55 1.431zm-2.665.14l-1.014-2.075-.42.016.117 3.193.437-.016-.078-2.157.827 1.685.31-.011.7-1.783.081 2.198.437-.016-.117-3.192-.42.015zM96.91 73.27l.117 3.193 2.05-.075-.015-.426-1.603.059-.035-.947 1.361-.05-.015-.426-1.362.05-.035-.968 1.603-.058-.016-.427zm-1.326.476l.902-.033-.016-.427-2.252.082.015.427.903-.033.1 2.766.45-.016zm-2.494.09l.901-.032-.015-.427-2.253.083.016.426.902-.033.101 2.766.45-.016zm-1.637.06l-.016-.426-2.05.075.117 3.193.217-.008.23-.009 1.603-.058-.015-.426-1.603.059-.035-.947 1.362-.05-.015-.426-1.363.05-.035-.968zm-5.098 2.955l.443-.016-.086-2.349 1.59 2.294.411-.015-.117-3.191-.443.016.087 2.385-1.596-2.33-.406.015zm-2.436-.015a.92.92 0 0 1-.397-.393 1.437 1.437 0 0 1-.156-.638l-.074-2.037.448-.017.075 2.053c.008.233.074.41.195.534.122.123.29.18.504.173.215-.008.38-.078.493-.21.113-.131.165-.313.157-.546l-.075-2.053.447-.016.075 2.037c.009.25-.027.467-.109.648a.923.923 0 0 1-.368.42c-.166.1-.367.154-.604.163a1.242 1.242 0 0 1-.61-.118zm-3.073-2.979l.116 3.193 2.05-.075-.015-.426-1.603.059-.1-2.767z"/>
</svg>
