<svg xmlns="http://www.w3.org/2000/svg" viewBox="0 0 256 256">
    <path fill="#674a95" d="M162.291 75.101h2.172v2.986h-2.172z"/>
    <path fill="#3971c6" d="M154.529 75.109h2.163v2.986h-2.163z"/>
    <path fill="#d75086" d="M156.692 75.091h2.163v2.986h-2.163z"/>
    <path fill="#777" d="M160.118 75.109h2.172v2.986h-2.172z"/>
    <path fill="#c4c4c4" d="M158.855 75.101h1.263v2.968h-1.263z"/>
    <path fill="#231f20" fill-opacity=".251" d="M154.51 75.166h9.953v.1h-9.952zm0 .249h9.953v.1h-9.952zm0 .249h9.953v.1h-9.952zm0 .249h9.953v.1h-9.952zm0 .248h9.953v.1h-9.952zm0 .25h9.953v.099h-9.952zm0 .248h9.953v.1h-9.952zm0 .249h9.953v.1h-9.952zm0 .249h9.953v.1h-9.952zm0 .248h9.953v.1h-9.952zm0 .25h9.953v.099h-9.952zm0 .248h9.953v.1h-9.952zm0-2.737h9.953v.1h-9.952zm0 .249h9.953v.1h-9.952zm0 .249h9.953v.1h-9.952zm0 .249h9.953v.1h-9.952zm0 .248h9.953v.1h-9.952zm0 .25h9.953v.099h-9.952zm0 .248h9.953v.1h-9.952zm0 .249h9.953v.1h-9.952zm0 .249h9.953v.1h-9.952zm0 .248h9.953v.1h-9.952zm0 .25h9.953v.099h-9.952zm0 .248h9.953v.1h-9.952z"/>
    <path fill="none" stroke="#000000" stroke-linejoin="round" stroke-miterlimit="10" stroke-width=".1" d="M154.51 75.091h9.953v2.986h-9.953z"/>
    <path fill="#e6e7e8" d="M164.513 75.091h9.953v2.986h-9.953z"/>
    <path fill="#3971c6" d="M164.532 75.091h1.244v2.986h-1.244zM173.222 75.091h1.244v2.986h-1.244z"/>
    <path fill="#231f20" fill-opacity=".251" d="M164.513 75.166h9.953v.1h-9.953zm0 .249h9.953v.1h-9.953zm0 .249h9.953v.1h-9.953zm0 .249h9.953v.1h-9.953zm0 .248h9.953v.1h-9.953zm0 .25h9.953v.099h-9.953zm0 .248h9.953v.1h-9.953zm0 .249h9.953v.1h-9.953zm0 .249h9.953v.1h-9.953zm0 .248h9.953v.1h-9.953zm0 .25h9.953v.099h-9.953zm0 .248h9.953v.1h-9.953z"/>
    <path fill="none" stroke="#000000" stroke-linejoin="round" stroke-miterlimit="10" stroke-width=".1" d="M164.513 75.091h9.953v2.986h-9.953z"/>
    <path fill="#3971c6" d="M144.508 75.091h4.936v2.986h-4.936z"/>
    <path fill="#d75086" d="M149.444 75.091h5.016v2.986h-5.016z"/>
    <path fill="#231f20" fill-opacity=".251" d="M144.468 75.166h9.952v.1h-9.952zm0 .249h9.952v.1h-9.952zm0 .249h9.952v.1h-9.952zm0 .248h9.952v.1h-9.952zm0 .25h9.952v.099h-9.952zm0 .248h9.952v.1h-9.952zm0 .249h9.952v.1h-9.952zm0 .249h9.952v.1h-9.952zm0 .249h9.952v.1h-9.952zm0 .248h9.952v.1h-9.952zm0 .25h9.952v.099h-9.952zm0 .248h9.952v.1h-9.952z"/>
    <path fill="none" stroke="#000000" stroke-linejoin="round" stroke-miterlimit="10" stroke-width=".1" d="M144.508 75.091h9.953v2.986h-9.953z"/>
    <path fill="#785000" d="M146.976 76.584l.59.308.567-.567z"/>
    <path fill="#ab8317" d="M146.976 76.584l1.157-.26-.792-.126zM147.341 76.198l-.365.386v-1.1z"/>
    <path fill="#deb64a" d="M146.976 76.584v-1.1l-.365.714z"/>
    <path fill="#deb64a" d="M146.611 76.198l.365.386-1.156-.26z"/>
    <path fill="#ab8317" d="M146.976 76.584l-1.156-.26.566.568zM146.976 76.584l-.59.308-.125.792z"/>
    <path fill="#785000" d="M146.261 77.684l.715-1.1v.738zM146.976 76.584v.738l.715.362z"/>
    <path fill="#785000" d="M146.976 76.584l.715 1.1-.124-.792z"/>
    <path fill="none" stroke="#000000" stroke-linejoin="round" stroke-miterlimit="10" stroke-width=".09953" d="M146.976 77.322l-.715.362.125-.792-.566-.567.791-.127.365-.714.365.714.792.127-.566.567.124.792z"/>
    <path fill="#785000" d="M149.444 76.584l.59.308.567-.567z"/>
    <path fill="#ab8317" d="M149.444 76.584l1.157-.26-.792-.126z"/>
    <path fill="#ab8317" d="M149.81 76.198l-.366.386v-1.1z"/>
    <path fill="#deb64a" d="M149.444 76.584v-1.1l-.365.714z"/>
    <path fill="#deb64a" d="M149.08 76.198l.364.386-1.156-.26z"/>
    <path fill="#ab8317" d="M149.444 76.584l-1.156-.26.566.568zM149.444 76.584l-.59.308-.125.792z"/>
    <path fill="#785000" d="M148.73 77.684l.714-1.1v.738zM149.444 76.584v.738l.715.362z"/>
    <path fill="#785000" d="M149.444 76.584l.715 1.1-.124-.792z"/>
    <path fill="none" stroke="#000000" stroke-linejoin="round" stroke-miterlimit="10" stroke-width=".09953" d="M149.444 77.322l-.715.362.125-.792-.566-.567.791-.127.365-.714.365.714.792.127-.566.567.124.792z"/>
    <path fill="#785000" d="M151.952 76.584l.59.308.567-.567z"/>
    <path fill="#ab8317" d="M151.952 76.584l1.157-.26-.792-.126zM152.317 76.198l-.365.386v-1.1z"/>
    <path fill="#deb64a" d="M151.952 76.584v-1.1l-.365.714z"/>
    <path fill="#deb64a" d="M151.587 76.198l.365.386-1.156-.26z"/>
    <path fill="#ab8317" d="M151.952 76.584l-1.156-.26.566.568zM151.952 76.584l-.59.308-.125.792z"/>
    <path fill="#785000" d="M151.237 77.684l.715-1.1v.737zM151.952 76.584v.737l.715.363z"/>
    <path fill="#785000" d="M151.952 76.584l.715 1.1-.124-.792z"/>
    <path fill="none" stroke="#000000" stroke-linejoin="round" stroke-miterlimit="10" stroke-width=".09953" d="M151.952 77.321l-.715.363.125-.792-.566-.567.791-.127.365-.714.365.714.792.127-.566.567.124.792z"/>
</svg>
