<svg xmlns="http://www.w3.org/2000/svg" viewBox="0 0 256 256">
    <path fill="#414042" stroke="#000" stroke-miterlimit="10" stroke-width=".201" d="M68.945 87.714l49.071.816-.112 6.479-49.071-.816z"/>
    <path fill="#e6e7e8" d="M106.315 89.747l-2.598-.043-.009.498 1.041.018-.056 3.238.517.009.056-3.239 1.04.018zm-3.513-.059l-.049 2.791-1.691-2.82-.468-.007-.065 3.735.512.008.047-2.749 1.687 2.778.474.008.064-3.735zm-3.388 3.682l.557.01-1.293-3.76-.44-.007-1.422 3.715.557.009.292-.815 1.485.025zm-1.572-1.345l.604-1.687.544 1.706-1.148-.019zm-1.352-1.943l.009-.498-2.365-.04-.065 3.738 2.365.039.009-.499-1.849-.03.019-1.108 1.571.026.008-.499-1.57-.026.02-1.134zm-3.224 1.173l-.011.653a1.619 1.619 0 0 1-.172.731c-.11.21-.264.371-.46.484a1.311 1.311 0 0 1-.681.162 1.389 1.389 0 0 1-.682-.174 1.136 1.136 0 0 1-.45-.469 1.427 1.427 0 0 1-.15-.694l.019-1.103c.004-.278.062-.521.172-.73.11-.209.264-.37.461-.482.197-.113.423-.167.68-.163a1.238 1.238 0 0 1 1.022.544c.117.17.195.365.233.587l-.56-.009a.803.803 0 0 0-.149-.325.742.742 0 0 0-.252-.21.727.727 0 0 0-.704.028.714.714 0 0 0-.271.305 1.108 1.108 0 0 0-.102.463l-.019 1.103a.895.895 0 0 0 .089.424.685.685 0 0 0 .268.286.811.811 0 0 0 .405.107.76.76 0 0 0 .402-.098.681.681 0 0 0 .271-.297c.065-.131.099-.287.102-.469l.003-.162-.748-.012.009-.501 1.275.021zm-3.861 1.949l.613.01-.824-1.656c.064-.02.13-.038.188-.069a.936.936 0 0 0 .383-.373c.092-.162.141-.35.145-.564a1.177 1.177 0 0 0-.124-.569.923.923 0 0 0-.368-.385 1.145 1.145 0 0 0-.559-.144l-1.461-.024-.064 3.74.517.008.027-1.581.769.013zm-1.499-3.266l.965.016a.48.48 0 0 1 .261.076.472.472 0 0 1 .171.208c.04.089.059.191.057.305a.712.712 0 0 1-.067.304.465.465 0 0 1-.442.269l-.965-.016zm-1.249-.019l.009-.499-2.366-.039-.064 3.737 2.365.039.009-.498-1.849-.031.019-1.108 1.57.026.009-.498-1.57-.027.019-1.133zm-4.778 3.199l-.237-.055a1.87 1.87 0 0 1-.823-.426l.329-.396a1.46 1.46 0 0 0 1.006.388c.267.004.474-.042.623-.14a.485.485 0 0 0 .228-.422v-.002a.46.46 0 0 0-.095-.312.599.599 0 0 0-.255-.174c-.105-.039-.923-.221-1.077-.278a.853.853 0 0 1-.392-.302c-.107-.145-.158-.349-.154-.613v-.003c.004-.231.058-.428.163-.59a.97.97 0 0 1 .454-.367c.198-.082.434-.121.709-.116.132.002.261.019.388.05.127.031.252.077.375.136.124.06.244.134.362.223l-.301.412a1.691 1.691 0 0 0-.416-.242 1.185 1.185 0 0 0-.417-.085c-.251-.004-.448.043-.589.143a.506.506 0 0 0-.216.43v.002a.416.416 0 0 0 .103.305.65.65 0 0 0 .266.167c.107.037.946.245 1.094.311.148.066.272.17.37.313.098.143.145.337.141.582v.005a1.049 1.049 0 0 1-.17.583.994.994 0 0 1-.468.362c-.203.081-.448.12-.733.115l-.268-.004z"/>
</svg>
