<svg version="1.1" viewBox="0 0 256 256" xmlns="http://www.w3.org/2000/svg" xmlns:xlink="http://www.w3.org/1999/xlink">
 <path d="m155.08 26.756 8.305 15.954-7.666 4.161-7.695-16.106 1.563-6.368z" fill="#ffb380" stroke="#000" stroke-miterlimit="10"/>
 <g fill="#ffde17" stroke="#000" stroke-miterlimit="10">
  <path d="m153.67 28.801a1.8825 1.8825 0 1 1-3.765 0 1.883 1.883 0 0 1 3.765 0z" stroke-width=".5"/>
  <path d="m153.67 33.207s2.64 5.935 3.105 5.68c0.468-0.251-3.105-5.68-3.105-5.68z" stroke-linejoin="round" stroke-width=".25"/>
  <path d="m156.83 33.466s-1.816 4.139-0.406 4.274c1.411 0.137 0.406-4.274 0.406-4.274zm-4.086 3.569s4.472 0.705 3.825 1.968c-0.642 1.261-3.825-1.968-3.825-1.968zm2.928-5.689s-1.817 4.142-0.406 4.273c1.41 0.137 0.406-4.273 0.406-4.273zm-4.085 3.569s4.47 0.704 3.825 1.97c-0.644 1.258-3.825-1.97-3.825-1.97zm2.927-5.69s-1.817 4.145-0.405 4.276c1.409 0.135 0.405-4.276 0.405-4.276zm-4.086 3.571s4.472 0.704 3.825 1.968c-0.643 1.258-3.825-1.968-3.825-1.968z" stroke-linejoin="round" stroke-width=".25"/>
 </g>
 <path d="m157.65 42.463 1.272 0.136-0.93 1.917zl-0.202-1.185-1.748 0.957zm1.834-1.016-0.562 1.152 2.117 0.264zm-0.883-0.799 0.883 0.799 0.829-1.727zm-1.472-1.344 0.319 1.974 1.153-0.63z" fill="#ee4689" stroke="#010101" stroke-width=".25"/>
 <path d="m100.92 26.756-8.298 15.954 7.669 4.161 7.698-16.106-1.569-6.368z" fill="#ffb380" stroke="#000" stroke-miterlimit="10"/>
 <g fill="#ffde17" stroke="#000" stroke-miterlimit="10">
  <path d="m102.33 28.801c0 1.042 0.846 1.883 1.887 1.883a1.8845 1.8845 0 1 0 0-3.769 1.885 1.885 0 0 0-1.887 1.886z" stroke-width=".5"/>
  <path d="m102.33 33.207s-2.638 5.935-3.104 5.68c-0.468-0.251 3.104-5.68 3.104-5.68z" stroke-linejoin="round" stroke-width=".25"/>
  <path d="m99.176 33.466s1.818 4.139 0.409 4.274c-1.409 0.137-0.409-4.274-0.409-4.274zm4.078 3.569s-4.471 0.705-3.818 1.968c0.644 1.261 3.818-1.968 3.818-1.968zm-2.92-5.689s1.822 4.142 0.413 4.273c-1.41 0.137-0.413-4.273-0.413-4.273zm4.078 3.569s-4.47 0.704-3.818 1.97c0.644 1.258 3.818-1.97 3.818-1.97zm-2.919-5.69s1.824 4.145 0.412 4.276c-1.409 0.135-0.412-4.276-0.412-4.276zm4.078 3.571s-4.466 0.704-3.818 1.968c0.645 1.258 3.818-1.968 3.818-1.968z" stroke-linejoin="round" stroke-width=".25"/>
 </g>
 <path d="m98.354 42.463-1.271 0.136 0.93 1.917zl0.196-1.185 1.756 0.957zm-1.827-1.016 0.556 1.152-2.116 0.264zm0.871-0.799-0.871 0.799-0.834-1.727zm1.482-1.344-0.33 1.974-1.152-0.63z" fill="#ee4689" stroke="#010101" stroke-width=".25"/>
</svg>
