<svg xmlns="http://www.w3.org/2000/svg" viewBox="0 0 256 256">
    <path fill="#be1e2d" d="M144.508 75.101h9.953v2.986h-9.953z"/>
    <path fill="#f1f2f2" d="M144.526 75.119h2.163v2.986h-2.163zM152.288 75.101h2.172v2.986h-2.172z"/>
    <path fill="#231f20" fill-opacity=".251" d="M144.508 75.194h9.952v.1h-9.952zm0 .249h9.952v.1h-9.952zm0 .248h9.952v.1h-9.952zm0 .25h9.952v.099h-9.952zm0 .248h9.952v.1h-9.952zm0 .249h9.952v.1h-9.952zm0 .249h9.952v.1h-9.952zm0 .249h9.952v.1h-9.952zm0 .248h9.952v.1h-9.952zm0 .25h9.952v.099h-9.952zm0 .248h9.952v.1h-9.952zm0 .249h9.952v.1h-9.952z"/>
    <path fill="none" stroke="#231f20" stroke-linejoin="round" stroke-miterlimit="10" stroke-width=".1" d="M144.508 75.091h9.953v2.986h-9.953z"/>
    <path fill="#e6e7e8" d="M164.513 75.092h9.953v2.986h-9.953z"/>
    <path fill="#777" d="M164.532 75.092h1.244v2.986h-1.244zM173.221 75.092h1.244v2.986h-1.244zM166.704 75.092h1.244v2.986h-1.244zM171.049 75.092h1.244v2.986h-1.244zM168.254 75.092h2.488v2.986h-2.488z"/>
    <path fill="#231f20" fill-opacity=".251" d="M164.513 75.148h9.953v.1h-9.953zm0 .249h9.953v.1h-9.953zm0 .249h9.953v.1h-9.953zm0 .248h9.953v.1h-9.953zm0 .25h9.953v.099h-9.953zm0 .248h9.953v.1h-9.953zm0 .249h9.953v.1h-9.953zm0 .249h9.953v.1h-9.953zm0 .249h9.953v.099h-9.953zm0 .248h9.953v.1h-9.953zm0 .25h9.953v.099h-9.953zm0 .248h9.953v.1h-9.953z"/>
    <path fill="none" stroke="#231f20" stroke-linejoin="round" stroke-miterlimit="10" stroke-width=".1" d="M164.513 75.092h9.953v2.986h-9.953z"/>
    <path fill="#b89300" d="M169.499 76.566l.59.308.566-.567z"/>
    <path fill="#ebc633" d="M169.499 76.566l1.156-.26-.791-.126z"/>
    <path fill="#ebc633" d="M169.864 76.18l-.365.386v-1.1z"/>
    <path fill="#fff966" d="M169.499 76.566v-1.1l-.365.714z"/>
    <path fill="#fff966" d="M169.134 76.18l.365.386-1.157-.26z"/>
    <path fill="#ebc633" d="M169.499 76.566l-1.157-.26.566.568zM169.499 76.566l-.591.308-.124.792z"/>
    <path fill="#b89300" d="M168.784 77.666l.715-1.1v.737zM169.499 76.566v.737l.715.363z"/>
    <path fill="#b89300" d="M169.499 76.566l.715 1.1-.125-.792z"/>
    <path fill="none" stroke="#231f20" stroke-linejoin="round" stroke-miterlimit="10" stroke-width=".09953" d="M170.09 76.874l.124.792-.715-.363-.715.363.124-.792-.566-.567.792-.127.365-.714.365.714.791.127z"/>
    <path fill="#3971c6" d="M154.529 75.11h2.163v2.986h-2.163z"/>
    <path fill="#d75086" d="M156.692 75.092h2.163v2.986h-2.163z"/>
    <path fill="#674a95" d="M162.291 75.092h2.172v2.986h-2.172z"/>
    <path fill="#777" d="M160.118 75.11h2.172v2.986h-2.172z"/>
    <path fill="#ebc633" d="M158.855 75.101h1.263v2.968h-1.263z"/>
    <path fill="#231f20" fill-opacity=".251" d="M154.51 75.148h9.953v.1h-9.953zm0 .249h9.953v.1h-9.953zm0 .249h9.953v.1h-9.953zm0 .248h9.953v.1h-9.953zm0 .25h9.953v.099h-9.953zm0 .248h9.953v.1h-9.953zm0 .249h9.953v.1h-9.953zm0 .249h9.953v.1h-9.953zm0 .249h9.953v.099h-9.953zm0 .248h9.953v.1h-9.953zm0 .25h9.953v.099h-9.953zm0 .248h9.953v.1h-9.953z"/>
    <path fill="none" stroke="#231f20" stroke-linejoin="round" stroke-miterlimit="10" stroke-width=".1" d="M154.51 75.092h9.953v2.986h-9.953z"/>
</svg>
