<svg xmlns="http://www.w3.org/2000/svg" viewBox="0 0 256 256">
    <path fill="#414042" stroke="#000" stroke-miterlimit="10" stroke-width=".20099397000000002" d="M68.784 87.243l49.48 1.158-.15 6.437-49.48-1.158z"/>
    <path fill="#e6e7e8" d="M117.21 90.302l-2.115-.05-.01.401.847.02-.06 2.6.421.01.06-2.6.848.021zm-2.859-.067l-.053 2.241-1.365-2.272-.38-.01-.07 2.996.415.01.052-2.205 1.36 2.24.386.007.071-2.996zm-2.41.346l.008-.402-1.927-.045-.069 2.998 1.926.045.01-.4-1.507-.035.021-.888 1.28.03.01-.4-1.28-.03.021-.91zm-2.743.027a.88.88 0 0 0-.38-.375 1.387 1.387 0 0 0-.615-.14l-.95-.026-.072 3.003.951.02c.24.004.445-.032.62-.11a.865.865 0 0 0 .4-.357 1.2 1.2 0 0 0 .146-.58l.02-.85a1.17 1.17 0 0 0-.12-.585zm-.33 1.441c-.005.21-.07.37-.195.482-.125.11-.297.165-.517.16l-.543-.013.052-2.199.542.013c.221.005.392.067.511.184.12.12.175.281.171.491-.01.351-.013.53-.022.882zm-2.776-2.007l-.052 2.242-1.366-2.276-.38-.009-.07 2.997.416.01.052-2.206 1.362 2.24.385.01.07-2.998zm-2.405.343l.01-.398-1.928-.045-.07 2.998 1.928.044.008-.398-1.505-.036.021-.888 1.28.031.01-.4-1.28-.033.021-.91zm-1.774 2.16zm-.473-2.613l-2.117-.05-.01.401.848.02-.06 2.6.421.01.061-2.6.848.02zm-2.866-.065l-.05 2.241-1.366-2.275-.38-.01-.072 2.997.417.01.052-2.204 1.361 2.236.384.01.071-2.996zm-2.608 2.938l-.42-.009.07-3 .42.011-.07 2.998zm-1.487-.037l.498.014-.67-1.354c.052-.015.116-.01.164-.035a.768.768 0 0 0 .313-.296.905.905 0 0 0 .12-.454.94.94 0 0 0-.097-.458.725.725 0 0 0-.298-.31.944.944 0 0 0-.455-.12l-1.192-.026-.069 2.998.42.011.03-1.269.626.016zm-1.206-2.629l.787.02c.08 0 .151.024.212.063a.406.406 0 0 1 .14.166.577.577 0 0 1 .042.244.552.552 0 0 1-.056.247.382.382 0 0 1-.36.213l-.786-.019zm-1.019-.02l.01-.4-1.927-.046-.07 3 .421.01 1.503.035.011-.402-1.505-.033.021-.889 1.28.03.008-.4-1.279-.03.021-.91zm-1.775 2.157zm-.83-2.182a.803.803 0 0 0-.31-.33.929.929 0 0 0-.47-.127l-1.16-.026-.07 2.997.42.01.026-1.16.741.016a.942.942 0 0 0 .474-.1.788.788 0 0 0 .324-.314.99.99 0 0 0 .125-.479 1.015 1.015 0 0 0-.1-.487zm-.395.744a.427.427 0 0 1-.163.178.449.449 0 0 1-.24.058l-.756-.018.024-1.036.755.02c.092.002.17.022.236.071a.42.42 0 0 1 .158.184.624.624 0 0 1 .05.274.603.603 0 0 1-.064.27zm-3.946 1.616a.84.84 0 0 1-.35-.389 1.303 1.303 0 0 1-.109-.605l.044-1.914.421.01-.046 1.926c-.006.221.045.39.152.514.107.121.261.186.463.19.201.003.36-.053.474-.17.113-.116.171-.285.178-.503l.045-1.927.421.01-.044 1.912a1.373 1.373 0 0 1-.137.601.882.882 0 0 1-.37.373c-.16.084-.352.124-.575.117a1.153 1.153 0 0 1-.567-.145zm-2.36.075s-.064-.012-.194-.043a1.561 1.561 0 0 1-.669-.347l.271-.314a1.232 1.232 0 0 0 .818.313c.217.007.387-.029.51-.106a.387.387 0 0 0 .186-.338v-.002a.35.35 0 0 0-.076-.249.477.477 0 0 0-.207-.142l-.875-.229a.666.666 0 0 1-.318-.247c-.087-.114-.128-.28-.123-.493a.864.864 0 0 1 .137-.472.777.777 0 0 1 .37-.294c.161-.065.354-.093.578-.088a1.476 1.476 0 0 1 .62.154c.102.048.196.11.293.18l-.247.33a1.362 1.362 0 0 0-.337-.196.952.952 0 0 0-.34-.073c-.205-.005-.365.032-.48.111a.4.4 0 0 0-.178.344v.003a.331.331 0 0 0 .082.246c.056.06.13.105.215.134l.89.257a.683.683 0 0 1 .3.253c.08.114.117.271.111.47a.828.828 0 0 1-.14.468.806.806 0 0 1-.384.29 1.535 1.535 0 0 1-.597.086l-.217-.006zm-1.815-2.672l.008-.4-1.886-.045-.07 3 .42.01.03-1.264 1.238.03.01-.4-1.239-.03.022-.935zm-2.492-.059l.01-.4-1.926-.045-.07 3 1.926.043.01-.4-1.506-.034.021-.888 1.278.03.01-.402-1.279-.029.022-.909zm-2.726 2.536l-.42-.009.07-3 .42.011-.07 2.998zM74.4 89.298l-.03 1.323-1.284-.032.032-1.32-.422-.01-.07 3 .421.008.03-1.276 1.282.03-.03 1.277.421.01.07-3zm-3.719 2.946l-.232-.146a.944.944 0 0 1-.357-.398 1.262 1.262 0 0 1-.116-.592l.02-.82a1.27 1.27 0 0 1 .144-.587.92.92 0 0 1 .375-.382c.16-.09.343-.135.551-.13.171.004.33.044.471.121.142.08.26.186.354.324.094.135.158.295.188.47l-.432-.009a.629.629 0 0 0-.125-.252.622.622 0 0 0-.465-.243.592.592 0 0 0-.325.082.606.606 0 0 0-.22.244.857.857 0 0 0-.085.372l-.02.822c-.004.14.02.266.068.375a.58.58 0 0 0 .208.251.637.637 0 0 0 .578.047.659.659 0 0 0 .22-.16.666.666 0 0 0 .136-.256l.432.01c-.039.174-.109.33-.209.462a1.012 1.012 0 0 1-.846.405c-.209-.008-.313-.01-.313-.01z"/>
</svg>
