<svg xmlns="http://www.w3.org/2000/svg" viewBox="0 0 256 256">
    <path fill="#414042" stroke="#000" stroke-miterlimit="10" stroke-width=".166" d="M76.57 72.964l40.893-1.494.194 5.32-40.892 1.494z"/>
    <path fill="#e6e7e8" d="M109.502 73.351a.936.936 0 0 0-.429-.375 1.483 1.483 0 0 0-.661-.11l-1.013.037.117 3.192 1.01-.037c.256-.01.474-.062.653-.158a.93.93 0 0 0 .401-.407c.09-.175.13-.383.12-.624l-.032-.904a1.26 1.26 0 0 0-.166-.614zm-.26 1.554c.008.223-.05.398-.175.524-.125.127-.306.196-.541.204l-.578.021-.085-2.341.577-.021c.235-.009.42.047.555.164.134.117.204.288.212.51zm-4.122 1.164a.988.988 0 0 1-.41-.398 1.316 1.316 0 0 1-.162-.613l-.033-.904c-.009-.234.03-.442.117-.623a.988.988 0 0 1 .38-.427c.165-.104.36-.16.582-.167.223-.008.42.033.594.124a.99.99 0 0 1 .41.398c.1.175.154.379.163.613l.033.904c.009.234-.03.442-.118.623a.99.99 0 0 1-.38.427c-.166.104-.36.16-.583.167a1.157 1.157 0 0 1-.593-.124zm.923-.418a.607.607 0 0 0 .223-.261.829.829 0 0 0 .07-.382l-.035-.936a.827.827 0 0 0-.096-.376.607.607 0 0 0-.243-.244.678.678 0 0 0-.352-.077.672.672 0 0 0-.344.102.607.607 0 0 0-.224.261.829.829 0 0 0-.068.382l.034.936a.827.827 0 0 0 .096.376c.06.107.14.188.242.245.103.055.22.08.351.076a.678.678 0 0 0 .346-.102zm-3.738.52a.988.988 0 0 1-.408-.397 1.316 1.316 0 0 1-.163-.613l-.033-.904c-.009-.234.03-.442.117-.623a.988.988 0 0 1 .379-.427c.166-.104.36-.16.583-.168.223-.008.42.034.594.125a.99.99 0 0 1 .41.398c.1.175.154.379.163.613l.033.904c.009.234-.03.441-.118.623a.99.99 0 0 1-.38.427c-.166.104-.36.16-.583.167a1.157 1.157 0 0 1-.594-.124zm.923-.417a.607.607 0 0 0 .223-.261.829.829 0 0 0 .07-.382l-.035-.937a.826.826 0 0 0-.097-.375.607.607 0 0 0-.242-.245.678.678 0 0 0-.352-.076.672.672 0 0 0-.344.102.607.607 0 0 0-.224.261.829.829 0 0 0-.068.382l.034.936a.826.826 0 0 0 .096.376c.059.107.14.188.242.244.103.056.22.081.351.077a.676.676 0 0 0 .346-.102zm-3.912-2.556l.308-.011.746 2.48.472-2.525.465-.017-.662 3.22-.457.017-.67-2.209-.533 2.253-.457.017-.896-3.163.466-.017.656 2.482zm-2.234.082l-.418.015-.86 2.143-1.015-2.074-.42.015.117 3.193.437-.016-.08-2.157.828 1.685.31-.011.7-1.784.081 2.2.437-.016zm-3.731 3.333l.531-.02-.79-1.375c.055-.02.111-.038.16-.068a.799.799 0 0 0 .314-.335.983.983 0 0 0 .1-.489.987.987 0 0 0-.134-.48.805.805 0 0 0-.337-.311 1.015 1.015 0 0 0-.49-.096l-1.268.046.117 3.195.447-.016-.049-1.352.667-.024zm-1.45-2.72l.837-.03a.421.421 0 0 1 .23.053c.066.039.12.096.158.17.039.073.06.16.064.258a.597.597 0 0 1-.045.262.409.409 0 0 1-.371.251l-.836.03zm-2.743 2.76a.988.988 0 0 1-.409-.399 1.316 1.316 0 0 1-.162-.612l-.033-.905c-.009-.234.03-.441.117-.623a.988.988 0 0 1 .379-.427c.166-.104.36-.159.583-.167.223-.008.42.034.594.124a.99.99 0 0 1 .41.399c.1.174.154.378.162.612l.033.905c.009.233-.03.44-.117.622a.99.99 0 0 1-.38.427c-.166.105-.36.16-.583.168a1.157 1.157 0 0 1-.594-.125zm.924-.419a.607.607 0 0 0 .223-.261.83.83 0 0 0 .07-.382l-.035-.936a.83.83 0 0 0-.097-.376.607.607 0 0 0-.242-.244.678.678 0 0 0-.352-.076.672.672 0 0 0-.344.101.607.607 0 0 0-.224.262.83.83 0 0 0-.068.381l.034.937a.83.83 0 0 0 .096.376c.059.106.14.188.242.244.103.055.22.08.351.076a.678.678 0 0 0 .346-.102zM86.17 73.68l.307-.012.746 2.48.473-2.524.465-.017-.663 3.22-.456.017-.67-2.21-.533 2.254-.457.016-.896-3.163.465-.017.657 2.483z"/>
</svg>
