<svg xmlns="http://www.w3.org/2000/svg" xmlns:xlink="http://www.w3.org/1999/xlink" viewBox="0 0 256 256">
    <defs>
        <linearGradient id="innoGrad3">
            <stop offset="0" stop-color="#ff2a2a" stop-opacity=".502"/>
            <stop offset="1" stop-color="#ff2a2a" stop-opacity="0"/>
        </linearGradient>
        <linearGradient id="innoGrad2">
            <stop offset="0" stop-color="#ff2a2a" stop-opacity=".502"/>
            <stop offset=".5" stop-color="#ff2a2a" stop-opacity="0"/>
            <stop offset=".75" stop-color="#ff2a2a" stop-opacity="0"/>
            <stop offset="1" stop-color="#ff2a2a" stop-opacity=".502"/>
        </linearGradient>
        <linearGradient id="innoGrad1">
            <stop offset="0" stop-color="#ff2a2a" stop-opacity="0"/>
            <stop offset="1" stop-color="#ff2a2a" stop-opacity=".502"/>
        </linearGradient>
        <linearGradient id="linearGradient920" x1="26.297" x2="146.886" y1="222.679" y2="222.679" gradientUnits="userSpaceOnUse" xlink:href="#innoGrad1"/>
        <linearGradient id="linearGradient943" x1="64.837" x2="147.112" y1="139.5" y2="139.5" gradientUnits="userSpaceOnUse" xlink:href="#innoGrad1"/>
        <linearGradient id="linearGradient994" x1="173.898" x2="237.798" y1="236.878" y2="236.878" gradientUnits="userSpaceOnUse" xlink:href="#innoGrad2"/>
        <linearGradient id="linearGradient1021" x1="163.628" x2="174.92" y1="233.49" y2="233.49" gradientUnits="userSpaceOnUse" xlink:href="#innoGrad3"/>
        <linearGradient id="linearGradient1056" x1="145.783" x2="238.038" y1="146.429" y2="146.429" gradientUnits="userSpaceOnUse" xlink:href="#innoGrad3"/>
    </defs>
    <g stroke-width=".922">
        <path fill="#ff2a2a" stroke="#000000" stroke-miterlimit="10" d="M121.125 227.125l-17-4.416 17-4.584zM27.5 230.25c.081.651.612 2.56 6.833 3.329 12.887 1.595 35.437 2.001 35.437 2.001L38.5 219.875s-11.25 8.375-11 10.375z" transform="matrix(1.08516 0 0 1.08517 -15.868 -28.813)"/>
        <path fill="#f55" d="M15.052 213.754s-1.55 1.683-1.757 3.088c-.207 1.405-.047 4.027.678 4.205.725.178-.15-1.516 4.205-1.899 2.074-.182 24.814 9.404 47.476 7.416 15.208-1.335 26.111-9.5 35.674-13.7 6.123-2.69 14.243-4.432 14.243-2.262 0 2.17-.95 5.833 0 7.054.95 1.22 23.467-2.713 25.501-3.527 2.035-.814 2.033-1.27 1.8-3.527-.234-2.257-.443-11.71-.443-11.71z"/>
        <path fill="url(#linearGradient920)" stroke="#000000" stroke-miterlimit="10" d="M28.494 223.529s-1.428 1.551-1.619 2.846c-.191 1.295-.043 3.711.625 3.875.668.164-.138-1.397 3.875-1.75 1.911-.168 22.866 8.666 43.75 6.834 14.015-1.23 24.062-8.755 32.875-12.625 5.642-2.478 13.125-4.084 13.125-2.084 0 2-.875 5.375 0 6.5s21.625-2.5 23.5-3.25 1.873-1.17 1.658-3.25c-.215-2.08-.408-10.791-.408-10.791z" transform="matrix(1.08516 0 0 1.08517 -15.868 -28.813)"/>
        <path fill="#ff2a2a" stroke="#000000" stroke-miterlimit="10" d="M79.667 48.144c.166-1.903 6.321-2.773 32.666-2.773 43.834 0 39.837 6.617 39.501 8.463-.668 3.666-36.25 10.5-36.25 10.5s-36.251-12.357-35.917-16.19z" transform="matrix(1.08516 0 0 1.08517 -15.868 -28.813)"/>
        <path fill="#ff8080" d="M70.583 23.431c.35-1.04 17.853 4.486 36.534 5.993 19.84 1.602 40.94-.75 41.778.182 1.628 1.809-1.085 30.566-1.628 60.77-.04 2.315-1.385 4.946-1.627 7.234-.596 5.628 2.17 5.787 1.446 13.383-.433 4.548-3.697 8.764-4.132 13.022-.487 4.769 1.481 10.145 1.058 14.289-.468 4.568-2.781 7.615-3.075 11.12-.256 3.059 2.073 6.606 1.935 8.594-.18 2.586-1.717 4.149-1.61 4.471 1.085 3.256 1.3 7.729 1.61 12.35.647 9.653.168 21.24-.443 24.053-.36 1.653-20.806 5.176-43.632 11.396-10.607 2.89-12.525 8.86-32.012 11.213-15.398 1.859-26.498-4.585-34.725-6.514-8.758-2.053-16.758-.735-17.008-1.233-.343-.687-.816-7.167 5.432-13.414 6.873-6.873 14.158-2.939 17.905-4.972 1.138-.617 1.403-2.477 2.532-3.167 1.537-.94 3.914-.774 5.245-2.17 2.083-2.186 3.699-5.309 5.968-7.235 1.38-1.171 3.905-1.72 5.245-2.894 2.565-2.25 3.378-6.124 5.607-8.32 8.2-8.075 15.916-13.021 17-16.277 1.086-3.255-1.41-3.73-.723-5.88.827-2.585 2.815-3.543 2.626-7.866-.126-2.876-2.759-6.09-2.989-9.565-.15-2.27 3.16-4.651 2.989-7.123-.122-1.76-1.398-2.99-1.541-4.833-.188-2.409 2.745-3.443 2.532-5.97-.244-2.891-1.688-4.763-1.99-7.777-.542-5.408.09-11.772-.542-17.362-.693-6.134-3.36-7.85-4.16-13.746-3.499-25.804-6.33-49.607-5.605-51.752z"/>
        <path fill="#ff2a2a" fill-opacity=".251" d="M126.83 138.667c-.014-.085.955-.356 1.85-.63 1.59-.488 2.848-.931 4.006-1.43 1.877-.808 3.023-1.575 3.678-2.137.366-.313.748-.707.974-1.158.152-.304.266-.694.176-1.183-.001-.01-.012-.058-.077-.145a1.763 1.763 0 0 0-.326-.316c-.297-.233-.758-.505-1.433-.806-1.15-.511-2.865-1.082-5.262-1.67-3.67-.9-9.243-1.899-15.794-2.517a109.39 109.39 0 0 0-8.338-.49c-2.65-.05-5.1.024-7.178.24-2.092.216-3.748.571-4.846 1.055-.548.242-.906.494-1.117.731a1.073 1.073 0 0 0-.205.323.809.809 0 0 0-.054.326c.02.517.088.983.19 1.406.06.248.133.482.218.703.23.595.548 1.105.932 1.546.776.888 1.827 1.5 2.941 1.92 2.209.835 4.514.839 4.525.975.01.126-2.303.5-4.79-.112-1.237-.304-2.558-.865-3.615-1.877a6.127 6.127 0 0 1-1.337-1.88 6.632 6.632 0 0 1-.33-.879 7.588 7.588 0 0 1-.293-1.724c-.019-.33.03-.652.142-.957.113-.302.284-.573.496-.813.418-.473 1.003-.838 1.669-1.126 1.328-.575 3.18-.932 5.325-1.133 2.158-.203 4.672-.253 7.359-.186a120.416 120.416 0 0 1 8.441.528c6.61.63 12.252 1.642 15.998 2.559 2.44.597 4.246 1.188 5.503 1.744.736.326 1.312.651 1.737.98.234.182.434.374.59.58.169.221.295.47.349.744.17.873-.033 1.59-.285 2.102-.356.725-.918 1.269-1.363 1.626-.87.697-2.172 1.382-4.24 2.01-1.165.352-2.68.712-4.252.945-.939.139-1.948.228-1.964.126zM133.702 147.595c-.024.124-3.396-.238-5.738-.415-4.467-.338-8.574-.426-12.182-.224-1.823.102-4.057.309-6.202.767-1.608.343-3.454.888-5.009 1.79-1.19.69-2.294 1.637-2.932 2.97-.457.953-.735 2.223-.499 3.952.03.215.066.435.112.662.397 1.99 1.061 3.594 1.895 4.89a11.001 11.001 0 0 0 2.97 3.089c1.664 1.166 3.605 1.877 5.632 2.305.719.151 1.446.266 2.173.349 5.552.637 11.01-.593 11.099-.308.082.265-5.208 2.402-11.238 2.178-.789-.029-1.59-.1-2.394-.221-2.26-.344-4.539-1.112-6.53-2.512a12.743 12.743 0 0 1-3.52-3.74c-.967-1.558-1.688-3.424-2.104-5.64-.05-.267-.092-.53-.124-.788-.264-2.108.09-3.775.743-5.09.896-1.803 2.376-2.98 3.77-3.76 1.824-1.02 3.898-1.581 5.595-1.908 2.3-.443 4.62-.592 6.503-.625 3.67-.066 7.938.273 12.346.994 2.342.383 5.674 1.079 5.634 1.285zM143.83 76.63c.27.192-1.844 3.678-3.53 7.36-.809 1.762-1.683 3.879-2.165 5.822-.217.872-.36 1.727-.375 2.5-.013.661.067 1.23.25 1.686.01.03.023.058.035.087.539 1.284.986 2.526 1.686 3.513.583.822 1.209 1.508 1.797 2.073 1.286 1.232 2.37 1.856 2.303 2.02-.066.162-1.337-.17-2.944-1.202a14.043 14.043 0 0 1-2.334-1.888c-.937-.94-2.04-2.043-2.683-3.616a3.78 3.78 0 0 1-.064-.168c-.306-.855-.363-1.765-.307-2.61.067-1 .301-2.021.598-2.97.664-2.127 1.76-4.278 2.764-5.996 1.893-3.239 4.674-6.823 4.97-6.612zM118.872 85.13c-.168.071.785 2.872 1.392 6.785.219 1.407.377 2.957.41 4.579.06 3.078-.335 6.36-1.595 9.41-1.25 3.03-3.36 5.857-6.806 8.103l-.18.115c-2.835 1.817-5.863 3.038-9.068 3.127-2.6.071-4.971-.612-7.099-1.737-2.07-1.094-3.702-2.498-4.8-3.556-1.308-1.26-1.831-1.92-1.914-1.868-.062.039.185.814 1.369 2.355.953 1.24 2.501 2.912 4.62 4.295 2.183 1.423 4.809 2.43 7.818 2.52 3.72.109 7.24-1.21 10.322-3.195l.194-.127c3.88-2.547 6.18-5.849 7.42-9.311 1.233-3.445 1.412-7.023 1.135-10.208a34.922 34.922 0 0 0-.749-4.708c-.906-3.976-2.303-6.65-2.469-6.58zM144.735 113.344c.085.196-2.795 1.7-5.572 3.73-1.394 1.018-2.674 2.11-3.527 3.184-.431.543-.72 1.041-.876 1.487-.155.445-.167.812-.086 1.131.022.09.047.178.073.265.115.378.341 1.263 1.21 2.426.601.803 1.37 1.557 2.244 2.263 1 .808 2.06 1.48 2.509 1.782.524.353.569.43.552.474-.011.03-.11.094-.734-.074-.594-.16-1.698-.555-2.95-1.254-1.034-.577-2.027-1.284-2.853-2.11-1.23-1.228-1.726-2.366-1.894-2.928a6.115 6.115 0 0 1-.1-.377c-.188-.798-.069-1.582.238-2.305.296-.698.77-1.349 1.331-1.945 1.1-1.169 2.633-2.228 4.16-3.105 3.157-1.814 6.195-2.829 6.275-2.644z"/>
        <path fill="url(#linearGradient943)" stroke="#000000" stroke-miterlimit="10" d="M79.667 48.144c.323-.958 16.452 4.134 33.667 5.523 18.284 1.476 37.728-.691 38.5.167 1.5 1.667-1 28.167-1.5 56-.038 2.134-1.277 4.559-1.5 6.667-.549 5.186 2 5.333 1.333 12.333-.399 4.191-3.407 8.076-3.808 12-.449 4.394 1.365 9.348.975 13.167-.431 4.21-2.563 7.017-2.834 10.248-.236 2.818 1.911 6.087 1.783 7.919-.166 2.383-1.582 3.823-1.483 4.12 1 3 1.197 7.122 1.483 11.38.597 8.896.155 19.574-.408 22.166-.331 1.523-19.173 4.77-40.208 10.501-9.774 2.664-11.542 8.165-29.5 10.333-14.189 1.713-24.418-4.225-32-6.002-8.07-1.892-15.443-.678-15.673-1.137-.316-.633-.752-6.604 5.006-12.361 6.333-6.333 13.047-2.708 16.5-4.582 1.048-.568 1.293-2.282 2.333-2.918 1.416-.867 3.607-.713 4.833-2 1.92-2.014 3.409-4.892 5.5-6.667 1.271-1.079 3.599-1.585 4.833-2.667 2.364-2.073 3.113-5.643 5.167-7.666 7.557-7.442 14.667-12 15.667-15s-1.3-3.438-.667-5.419c.762-2.382 2.594-3.265 2.42-7.248-.116-2.651-2.542-5.612-2.754-8.815-.138-2.092 2.911-4.286 2.754-6.564-.112-1.621-1.288-2.755-1.42-4.453-.173-2.22 2.53-3.173 2.333-5.501-.225-2.665-1.555-4.39-1.833-7.167-.5-4.984.083-10.848-.5-16-.639-5.652-3.097-7.234-3.833-12.667-3.225-23.779-5.833-45.713-5.166-47.69z" transform="matrix(1.08516 0 0 1.08517 -15.868 -28.813)"/>
        <path fill="none" stroke="#000000" stroke-miterlimit="10" stroke-width=".461" d="M87.599 170.98s1.181-2.047 2.151-5.23c1.182-3.877 2.276-9.101 3.375-10.084 2-1.791 7.889-2.156 8.25 1.334.75 7.249-2.411 7.485-3 10.75-.589 3.265 1.125 3.793.875 6.021-.25 2.228-7.375 7.229-6.125 11.104.361 1.12-1.875 10.25 12.25 10.125s39.425-18.712 39.425-18.712" transform="matrix(1.08516 0 0 1.08517 -15.868 -28.813)"/>
        <g>
            <g fill="none" stroke="#000000" stroke-miterlimit="10" stroke-width=".461">
                <path d="M144.8 178.25s-.134.108-.389.308" transform="matrix(1.08516 0 0 1.08517 -15.868 -28.813)"/>
                <path stroke-dasharray=".91838719,.91838719" d="M143.626 179.165c-6.178 4.723-35.16 25.694-49.126 14.71-8.75-6.882.833-18.246 2.875-20.104 2.373-2.158-2.226-3.847-.542-7.096 1.75-3.376 4.642-8.243-.083-10.304-1.875-.817-3.924 5.379-5.875 10.628a92.733 92.733 0 0 1-2.844 6.766" transform="matrix(1.08516 0 0 1.08517 -15.868 -28.813)"/>
                <path d="M87.815 174.221c-.138.289-.216.447-.216.447l-.474-.159" transform="matrix(1.08516 0 0 1.08517 -15.868 -28.813)"/>
                <path stroke-dasharray=".55853349,.55853349" d="M86.55 174.316l-.862-.289" transform="matrix(1.08516 0 0 1.08517 -15.868 -28.813)"/>
                <path d="M85.401 173.931l-.474-.16" transform="matrix(1.08516 0 0 1.08517 -15.868 -28.813)"/>
            </g>
        </g>
        <path fill="#414042" stroke="#000000" stroke-miterlimit="10" d="M28.174 231.5l14.975.283M48.633 233.12l-14.3.459" transform="matrix(1.08516 0 0 1.08517 -15.868 -28.813)"/>
    </g>
    <g stroke-width=".922">
        <path fill="#ff2a2a" stroke="#000000" stroke-miterlimit="10" d="M146.359 52.62c-.076-3.12 22.134-7.093 40.391-7.245 18.257-.152 37.554 3.25 37.554 5.625 0 2.021-9.429 16.125-36.179 17.625s-41.71-13.708-41.766-16.005zM236.167 246.75c-.292 1.372-5.604 1.673-19.792 2.321-5.371.245-25.625-.151-27.959-.156-8.499-.018-9.16-1.711-9.16-1.711l31.77-19.627c-.001 0 25.433 17.801 25.141 19.173z" transform="matrix(1.08516 0 0 1.08517 -15.868 -28.813)"/>
        <path fill="none" stroke="#000000" stroke-miterlimit="10" d="M194.508 242.428h10.617L211 245.5l6.125-3.072 12.628.028" transform="matrix(1.08516 0 0 1.08517 -15.868 -28.813)"/>
        <path fill="none" stroke="#000000" stroke-miterlimit="10" d="M189.125 244.75h16.726l5.296 2.628 5.728-2.628h16.295" transform="matrix(1.08516 0 0 1.08517 -15.868 -28.813)"/>
        <path fill="#f55" d="M240.41 231.085s1.057 1.661 1.203 3.46c.168 2.045-.602 4.264-1.203 4.408-1.131.272-9.716-9.715-24.055-9.495-14.34.22-33.301 10.378-35.946 10.174-5.29-.407-6.24-1.628-6.782-2.985-.543-1.356 0-3.982 0-3.982l38.252-15.822h23.602z"/>
        <path fill="url(#linearGradient994)" stroke="#000000" stroke-miterlimit="10" d="M236.167 239.5s.974 1.531 1.109 3.188c.155 1.885-.555 3.93-1.109 4.063-1.042.25-8.953-8.953-22.167-8.75-13.214.203-30.688 9.563-33.125 9.375-4.875-.375-5.75-1.5-6.25-2.75s0-3.67 0-3.67l35.25-14.58h21.75z" transform="matrix(1.08516 0 0 1.08517 -15.868 -28.813)"/>
        <path fill="#ff2a2a" stroke="#000000" stroke-miterlimit="10" d="M168.625 242.428s-.131.38 1.961.573c2.092.193 4.25 0 4.25 0v-7.667h-5.167z" transform="matrix(1.08516 0 0 1.08517 -15.868 -28.813)"/>
        <path fill="url(#linearGradient1021)" stroke="#000000" stroke-miterlimit="10" d="M174.04 236.876s-2.54-.874-3.165 0-.128 3.442-.625 4.124c-.497.682-1.14 1.766-1.625 1.428-.485-.338-1.643-1.145-2.75-1.928-1.107-.783-1.107-.783-1.25-2.525-.143-1.742-1.042-11.391 0-12.35l1.042-.959 8.735 7.335z" transform="matrix(1.08516 0 0 1.08517 -15.868 -28.813)"/>
        <path fill="#f55" stroke="#000000" stroke-miterlimit="10" d="M174.04 236.876s-2.54-.874-3.165 0-.128 3.442-.625 4.124c-.497.682-1.14 1.766-1.625 1.428-.485-.338-1.643-1.145-2.75-1.928-1.107-.783-1.107-.783-1.25-2.525-.143-1.742-1.042-11.391 0-12.35l1.042-.959 8.735 7.335z" transform="matrix(1.08516 0 0 1.08517 -15.868 -28.813)"/>
        <path fill="#ff8080" d="M227.537 26.53c.256.348-1.285 19.674-2.32 40.873-.423 8.674-2.12 12.826-1.446 23.694.213 3.434 1.29 8.2.723 11.755-.448 2.805-2.596 4.38-2.35 7.236.286 3.344 2.577 7.394 2.845 10.787.542 6.872-4.962 7.284-4.473 11.638.179 1.599 2.737 3.298 2.557 5.649-.447 5.841-5.945 7.816-5.452 11.353.431 3.096 3.98 4.16 3.798 10.851-.117 4.33-4.265 9.003-3.616 12.119.867 4.169 3.168 3.962 5.157 11.92 4.112 16.447 13.822 27.972 17.45 36.008 2.71 6 0 10.672 0 10.672s-3.807-5.962-24.778-6.15c-20.256-.181-25.42 6.254-33.46 8.32-4.331 1.114-8.318.136-9.042-1.085-.724-1.22-.09-6.829 0-8.501.09-1.672-8.364-7.28-9.224-8.682-.09-.147-.315-4.328-1.266-8.861-1.03-4.91-1.221-.407-3.391-13.972-2.17-13.564 2.984-15.328 2.17-22.381-.257-2.235-2.306-2.578-3.12-6.783-.814-4.205 1.975-5.331 1.628-8.274-.376-3.18-6.24-4.34-7.596-10.716-1.357-6.375 3.647-3.208 2.984-9.63-.253-2.453-4.538-3.892-4.748-6.919-.678-9.766 1.451-14.911.679-24.01-2.86-33.655-9.168-74.659-8.292-75.153 2.894-1.627 3.77 11.442 47.9 9.453 34.54-1.557 35.745-12.476 36.683-11.21z"/>
        <path fill="#ff2a2a" fill-opacity=".251" d="M215.089 110.088c.043.081-1.11.878-1.944 1.496-1.531 1.135-2.88 2.245-4.039 3.366-.599.58-1.274 1.286-1.86 2.05-.456.596-.933 1.324-1.238 2.108-.235.606-.385 1.29-.298 1.998.06.488.237 1.036.647 1.618.07.1.148.201.232.302.262.314.54.547.825.716.286.168.59.278.913.338.648.119 1.397.038 2.236-.228 1.695-.537 3.595-1.777 5.447-3.232.154-.121.308-.244.462-.368 1.667-1.346 3.23-2.774 4.438-3.891 1.316-1.219 2.198-2.06 2.29-1.984.093.076-.56 1.118-1.696 2.537a37.073 37.073 0 0 1-4.143 4.386c-.152.136-.306.27-.462.404-1.828 1.564-3.906 2.97-5.89 3.58-.997.306-2.008.423-2.966.224-.48-.1-.94-.279-1.37-.545a4.66 4.66 0 0 1-1.17-1.048 6.196 6.196 0 0 1-.295-.396c-.536-.786-.78-1.557-.853-2.261-.104-1.005.133-1.916.434-2.642.39-.94.97-1.761 1.487-2.389a16.868 16.868 0 0 1 2.09-2.094c1.252-1.064 2.812-2.125 4.467-3.037.924-.509 2.195-1.12 2.256-1.008zM153.753 139.05c-.085.103 1.34.98 3.534 1.265 1.105.144 2.402.145 3.862-.131 1.455-.276 3.096-.83 4.92-1.823.678-.37 1.379-.798 2.098-1.273a54.624 54.624 0 0 0 3.751-2.736 76.877 76.877 0 0 0 5.696-5.001c.437-.424.856-.841 1.255-1.25 2.724-2.788 4.516-5.033 4.57-4.99.054.042-1.715 2.304-4.267 5.269-.373.433-.762.884-1.164 1.344-1.578 1.806-3.374 3.785-5.275 5.572-1.195 1.124-2.44 2.178-3.699 3.064-.74.52-1.486.985-2.226 1.378-2.007 1.063-3.87 1.538-5.509 1.647-1.638.11-3.03-.147-4.14-.517-2.223-.74-3.33-1.91-3.406-1.819zM161.012 158.739c-.003-.095 3.083-.272 7.147-1.133a47.198 47.198 0 0 0 5.869-1.624c2.345-.827 4.609-2.01 6.664-3.334.13-.084.258-.168.384-.253 3.391-2.293 5.873-5.113 8.52-7.379 1.395-1.194 2.954-2.402 4.613-3.316 1.412-.777 3.092-1.452 4.965-1.59-1.837.317-3.413 1.156-4.693 2.032-1.51 1.033-2.93 2.347-4.212 3.609-1.854 1.826-5.419 5.74-8.447 7.757-.134.09-.27.178-.41.266-2.195 1.396-4.72 2.264-7.13 2.988a48.407 48.407 0 0 1-6.023 1.377c-4.138.68-7.244.694-7.247.6zM218.746 152.078c.523-.278-1.444-1.518-3.069-3.39a12.373 12.373 0 0 1-.347-.419c-.703-.885-1.427-1.816-2.112-2.61-.818-.949-1.76-1.922-2.831-2.547 1.247.26 2.495.898 3.596 1.721.923.69 1.785 1.542 2.532 2.507.119.153.229.31.332.466 1.425 2.178 1.376 4.55 1.899 4.272zM197.546 149.425c.059.14-1.16.813-4.62 2.596a984.562 984.562 0 0 0-11.165 5.834c.304-.163-1.395.743-1.09.58-3.531 1.877-7.122 3.654-9.83 5.539a36.6 36.6 0 0 0-.246.173c-1.506 1.066-2.742 2.122-3.592 3.122-.425.499-.754.985-.974 1.454-.218.468-.331.925-.315 1.37-.074-.442-.017-.922.161-1.433.178-.509.474-1.042.87-1.593.792-1.1 1.981-2.27 3.425-3.472l.237-.196c2.596-2.128 5.897-4.492 9.45-6.461a67.58 67.58 0 0 1 1.1-.595c3.554-1.885 7.92-3.839 11.54-5.27 3.634-1.436 5-1.765 5.049-1.648zM177.47 163.622c.038.19 4.008-.287 8.064-.456l.264-.01c1.949-.075 3.867-.038 5.37.232.788.142 1.417.34 1.868.591.222.124.386.253.504.383.115.126.188.255.228.388.336 1.082.866 2.036 1.352 2.856.201.34.397.66.572.96.269.46.459.824.584 1.149.116.302.16.533.16.718a.99.99 0 0 1-.145.534c-.12.199-.325.411-.644.634-.373.26-.864.508-1.452.744-.685.275-1.611.534-2.552.76a67.87 67.87 0 0 1-3.613.738c-2.649.478-6.455 1.048-8.592 1.371-3.226.488-2.92.44-6.147.929-1.929.293-4.709.715-4.696.863.015.165 2.827.046 4.78-.07 2.172-.128 4.35-.304 6.217-.488 2.55-.252 5.616-.626 8.694-1.162a62.359 62.359 0 0 0 3.7-.748c.96-.23 1.97-.51 2.76-.83.642-.26 1.244-.558 1.741-.906.425-.298.801-.652 1.06-1.085.231-.388.355-.817.354-1.286 0-.412-.094-.822-.25-1.237-.165-.44-.4-.887-.676-1.37-.18-.314-.38-.65-.572-.974-.474-.808-.932-1.64-1.23-2.547a2.45 2.45 0 0 0-.57-.943 3.405 3.405 0 0 0-.885-.648c-.653-.343-1.46-.556-2.326-.686-1.66-.25-3.696-.214-5.666-.05-.09.007-.18.014-.269.023-4.138.374-8.023 1.435-7.986 1.623zM219.972 157.292c.072.118-1.49 1.279-3.6 2.887a70.053 70.053 0 0 0-4.133 3.382c-1.85 1.652-3.519 3.39-4.473 4.947-.478.78-.734 1.447-.788 1.986-.026.261-.003.478.054.662.056.18.151.352.303.52a4.325 4.325 0 0 0 1.269 1.005c.431.227.906.38 1.43.462 1.026.16 2.169.04 3.34-.249 2.354-.58 4.259-1.65 4.384-1.478.098.132-1.347 1.692-3.936 2.8-1.2.514-2.59.88-3.984.786a5.645 5.645 0 0 1-2.123-.557 5.368 5.368 0 0 1-1.317-.916 6.164 6.164 0 0 1-.555-.6 3.197 3.197 0 0 1-.65-1.305 3.482 3.482 0 0 1-.025-1.398c.158-.901.624-1.794 1.221-2.634 1.196-1.68 3.117-3.415 5.084-4.95a64.834 64.834 0 0 1 4.423-3.138c2.246-1.464 4.004-2.33 4.076-2.212z"/>
        <path fill="url(#linearGradient1056)" stroke="#000000" stroke-miterlimit="10" d="M224.304 51c.236.32-1.184 18.13-2.137 37.665-.39 7.993-1.954 11.819-1.333 21.834.196 3.165 1.189 7.557.666 10.833-.413 2.584-2.392 4.035-2.166 6.668.264 3.081 2.375 6.813 2.622 9.94.5 6.333-4.572 6.712-4.122 10.725.165 1.473 2.523 3.039 2.357 5.205-.412 5.383-5.479 7.203-5.024 10.462.397 2.853 3.667 3.834 3.5 10-.108 3.99-3.931 8.296-3.333 11.167.799 3.842 2.92 3.651 4.753 10.984 3.789 15.157 12.737 25.777 16.08 33.183 2.497 5.529 0 9.834 0 9.834s-3.508-5.494-22.833-5.667c-18.667-.167-23.425 5.763-30.834 7.667-3.992 1.026-7.666.125-8.333-1-.667-1.125-.083-6.293 0-7.834.083-1.541-7.708-6.709-8.5-8-.083-.136-.29-3.989-1.167-8.166-.949-4.524-1.125-.375-3.125-12.875s2.75-14.125 2-20.625c-.237-2.059-2.125-2.375-2.875-6.25s1.82-4.913 1.5-7.625c-.346-2.931-5.75-4-7-9.875s3.361-2.956 2.75-8.875c-.233-2.26-4.182-3.586-4.375-6.375-.625-9 1.337-13.741.625-22.125-2.636-31.014-8.448-68.8-7.641-69.255 2.667-1.5 3.475 10.544 44.141 8.711 31.829-1.435 32.94-11.497 33.804-10.331z" transform="matrix(1.08516 0 0 1.08517 -15.868 -28.813)"/>
        <path fill="none" stroke="#000000" stroke-miterlimit="10" stroke-width=".461" d="M222.956 205.193s-2.359-1.33-5.081-4.443c-2.468-2.824-5.252-7.383-6.5-8.75-2.625-2.875-1.5-28-2.75-30.75s-12.375-4.25-15.875-.875-3.25 25-3.875 27.625c-.32 1.346-3.802 7.99-7.75 12.375-3.755 4.169-5.486 6.738-7.993 6.119-2.507-.619-11.49-14.501-11.49-14.501" transform="matrix(1.08516 0 0 1.08517 -15.868 -28.813)"/>
        <g>
            <g fill="none" stroke="#000000" stroke-miterlimit="10" stroke-width=".23">
                <path d="M161.296 193.485l.272.413" transform="matrix(1.08516 0 0 1.08517 -15.868 -28.813)"/>
                <path stroke-dasharray=".91562263,.91562263" d="M162.117 194.724c2.324 3.477 8.893 13.095 10.633 13.401 2.125.375 5.616-2.478 9.5-6.75 4.505-4.957 7.385-11.925 7.625-13.875.447-3.632 1.477-23.838 3.75-26.25 2.273-2.412 13.125-2.125 14 .375s.75 27.75 2.25 30.875c.584 1.218 5.15 7.387 7.625 9.875 2.385 2.399 4.125 3.447 5.111 3.898" transform="matrix(1.08516 0 0 1.08517 -15.868 -28.813)"/>
                <path d="M223.071 206.465c.314.115.477.14.477.14" transform="matrix(1.08516 0 0 1.08517 -15.868 -28.813)"/>
            </g>
        </g>
    </g>
</svg>
