<svg version="1.1" viewBox="0 0 64 64" xmlns="http://www.w3.org/2000/svg" xmlns:xlink="http://www.w3.org/1999/xlink">
 <defs>
  <linearGradient id="linearGradient874" x1="18.969" x2="43.269" y1="36.366" y2="36.366" gradientTransform="matrix(1.1576 0 0 1.1576 -5.8093 -5.3068)" gradientUnits="userSpaceOnUse">
   <stop stop-color="#4950b6" offset="0"/>
   <stop stop-color="#45389b" offset="1"/>
  </linearGradient>
 </defs>
 <g stroke="#000">
  <g stroke-width=".34729">
   <path d="m19.796 54.145c0.31024 1.7341 0.64132 3.4787 0.64827 5.0623 1.0997 3.224 16.233 5.6793 20.66-0.76519-0.08103-0.93073-0.01505-2.7389 0.05789-4.5923" fill="#232323"/>
   <path d="m16.323 16.237c0.022 16.713 3.3166 21.075 3.4729 37.909 1.4204 4.1142 19.504 4.3724 21.367-0.29519 0.63554-20.755 2.7424-11.391 2.9427-37.73" fill="url(#linearGradient874)"/>
   <path d="m43.614 2.2149c-0.0015 0.01539 0.92248 0.13774 0.89603 0.4218-0.78192 5.2125 0.74306 1.2487 0.3024 6.7131 0.15975 3.7484-0.26625 6.1447-0.70615 6.7698-8.1381 1.829-17.339 2.4889-27.783 0.11692-0.50357-1.792-1.2989-3.0816-0.76519-6.6506-0.43409-4.379 1.2527-2.9378 0.18469-6.7974-0.25941-0.89567 2.7485-0.41233 2.8265-0.35251" fill="#232323"/>
   <ellipse cx="30.127" cy="2.5222" rx="14.275" ry="1.0002" fill="#0a0a0a" stroke-linecap="round" stroke-linejoin="round"/>
   <path d="m44.814 9.3499 7.1217 0.059042 0.41212 2.2365" fill="#232323"/>
  </g>
  <path d="m15.558 9.586c4.7185 1.5917 23.835 2.2562 29.254-0.23616" fill="none" stroke-width=".23152"/>
  <path d="m51.582 12.294c4.4546 16.446-2.8021 21.122-2.7895 22.945 2e-3 0.28008 0.24092 0.66026 0.68781 0.87015l3.867-5.686 3.826-15.128c-3.0249-2.4727-4.9199-3.5122-5.5913-3.0017z" fill="#232323" stroke-width=".34729"/>
  <path d="m44.814 9.3499c2.1115 1.0291 4.8018 0.71194 7.3567 0.70615-0.7212-2.2018 0.56145-0.97935 3.4034 1.748 0.44453 0.42716 3.459 0.83349 2.6012 1.8429 0.53945 10.485-5.273 18.879-8.1821 22.78-0.20892 0.23634-1.0887-0.33402-1.1773-1.0592 5.5554-7.2236 12.419-27.967-3.944-22.78" fill="#0a0a0a" stroke-width=".34729"/>
 </g>
</svg>
