<?xml version="1.0" encoding="UTF-8"?>
<svg version="1.1" viewBox="0 0 256 256" xmlns="http://www.w3.org/2000/svg">
 <defs>
  <linearGradient id="linearGradient882" x1="107.08" x2="122.57" y1="130.43" y2="155.3" gradientTransform="matrix(1.4016 0 0 1.4016 45.937 -31.228)" gradientUnits="userSpaceOnUse">
   <stop stop-color="#758bbf" offset="0"/>
   <stop stop-color="#96d3f0" offset=".089"/>
   <stop stop-color="#d0e6fe" offset=".179"/>
   <stop stop-color="#9acce1" offset=".27"/>
   <stop stop-color="#d4acce" offset=".361"/>
   <stop stop-color="#91a3d0" offset=".511"/>
   <stop stop-color="#e4e9e4" offset=".637"/>
   <stop stop-color="#7caedd" offset=".726"/>
   <stop stop-color="#7d72aa" offset=".861"/>
   <stop stop-color="#e1e9fb" offset="1"/>
  </linearGradient>
 </defs>
 <g stroke-linejoin="round">
  <rect transform="rotate(90)" x="55.243" y="-238.78" width="145.51" height="221.56" ry="2" fill="#dbe2e3" stroke="#000" stroke-linecap="round"/>
  <rect transform="rotate(90)" x="62.525" y="-230.53" width="130.95" height="206.06" ry="2" fill="#e9ebee" stroke="#000" stroke-linecap="round"/>
  <g fill="none" stroke="#1a1a1a" stroke-linecap="square" stroke-width=".37336">
   <path d="m30.78 186.18 0.75099-0.66818 0.41119 0.69245 2.2328-0.77269 0.46083 0.8654s1.0117-0.4946 1.5423-0.55806c0.52756-0.064-3.2243 0.0354-3.2243 0.0354s0.51669 0.64954 0.88754 0.58543c0.37239-0.0634 4.236-0.53006 4.236-0.53006s1.3608 0.80258 1.3623 0.7155c0-0.0859 1.3375-0.9258 1.3375-0.9258l-2.2778 0.29738s-1.384 0.6234-1.0148 0.62467m31.907-4.8031s-2.3615 0.78268-2.6657 0.49957c-0.30424-0.28305-0.51203-0.34962-0.51203-0.34962s-1.5159 0.76773-1.5625 0.63768c-0.04669-0.12998-2.7263-0.47283-2.7263-0.47283s1.9256-0.52697 2.1381-0.5475m-29.078 6.0615-2.0203 0.26754-0.54773-0.73916-1.0334 0.6197m33.57-4.2544s-0.96665 0.31731-1.2816 0.29369c-0.31673-0.0237-1.3034-0.39819-1.3034-0.39819l-0.97131 0.42555s1.7316 0.27189 2.1164-0.0497c0.38481-0.32164 0.45776-0.77523-0.49806-0.65202-0.95736 0.12324-1.9287 0.54874-1.9287 0.54874s-0.3724 0.0622-0.62839-0.11263c-0.2561-0.17484-0.35825-0.24078-0.35825-0.24078m-9.9336 2.5558s-0.55083 0.49337-1.0241 0.4467c-0.4748-0.0459-1.6711-0.44358-1.6711-0.44358s-0.87357 0.59913-0.72306 0.77269c0.15053 0.17421 1.8029-0.1387 2.2932-0.43737 0.48877-0.29927 0.35689-0.88343-0.71374-0.61032-1.0691 0.27374-2.8301 0.65015-3.0924 0.60472-0.26226-0.0448-1.7255-0.40067-1.7255-0.40067s-1.2382 0.4884-1.4461 0.40006m28.228-2.7338s-2.7107 0.32726-2.9698 0.21716m-28.436 3.7523s-0.86582 0.42616-1.3903 0.33596c-0.52445-0.0897-2.4842-1.1411-2.6005-0.9258-0.11483 0.21526-0.50428 0.64518-0.7153 0.64331m34.903-1.2978s-1.0334 0.61964-1.3841 0.20654c-0.35053-0.41311-1.3887-0.85233-2.0373-0.53319-0.64856 0.31979-1.1389 0.64082-1.1327 0.53256 0.0028-0.10766-0.81615-0.67568-0.81615-0.67568m-2.1723 0.2022-0.76964 0.66509-0.39099-0.69499-2.2546 0.76277-0.43445-0.86795s-1.0272 0.4903-1.5594 0.55124c-0.53066 0.061 3.2258-0.0204 3.2258-0.0204s-0.4996-0.65202-0.87199-0.58979c-0.3724 0.0622-4.2515 0.51016-4.2515 0.51016s-1.3375-0.80882-1.3422-0.72234c-0.0028 0.0866-1.3623 0.92017-1.3623 0.92017l2.2856-0.28682s1.4027-0.61716 1.0318-0.61964m3.4834-2.376-0.7215 0.67381-0.44222-0.68997-2.1972 0.78891-0.4996-0.86231s-0.98994 0.50146-1.5159 0.56925c-0.52755 0.0673 3.2211-0.0586 3.2211-0.0586s-0.5462-0.64579-0.91547-0.57921c-0.36773 0.0665-4.2111 0.55995-4.2111 0.55995s-1.3965-0.79261-1.3934-0.70679c0.0028 0.087-1.2956 0.93579-1.2956 0.93579l2.2638-0.3136s1.3561-0.63271 0.98684-0.63084m-20.894 2.1365s2.3244-0.7995 2.6424-0.51826c0.31656 0.2806 0.52755 0.34528 0.52755 0.34528s1.4802-0.77772 1.5331-0.64827c0.05277 0.13001 2.7464 0.45417 2.7464 0.45417s-1.9007 0.54006-2.1118 0.56183m19.81-3.3242 2.0078-0.28061 0.58187 0.7342 1.0039-0.62654m-18.97 3.1096s0.95116-0.32352 1.2677-0.30239c0.3181 0.0219 1.322 0.38887 1.322 0.38887l0.95116-0.43178s-1.744-0.25944-2.1149 0.0646c-0.36929 0.3235-0.42204 0.77766 0.52755 0.64827 0.9527-0.13 1.9038-0.56182 1.9038-0.56182s0.3693-0.0646 0.63462 0.10779c0.2638 0.17296 0.36929 0.23831 0.36929 0.23831m-6.388-1.2966s0.52755-0.49711 1.0039-0.45418c0.47478 0.0434 1.6913 0.43304 1.6913 0.43304s0.84563-0.60536 0.68582-0.77772c-0.15827-0.17359-1.7969 0.15054-2.2716 0.45355-0.47634 0.30238-0.31656 0.88598 0.74012 0.60476 1.0551-0.28059 2.8007-0.67005 3.0645-0.62654 0.2638 0.0433 1.744 0.38887 1.744 0.38887s1.2149-0.49709 1.4275-0.41063m-14.743-1e-3s2.6951-0.3459 2.9589-0.23768m14.21-1.3365s0.84563-0.43241 1.3732-0.3459c0.52755 0.087 2.5369 1.1242 2.6424 0.90831 0.10555-0.21649 0.47634-0.64893 0.68736-0.64893m-11.623 0.10518s1.0039-0.62654 1.3732-0.21591c0.37083 0.41064 1.4275 0.84241 2.0606 0.51826 0.63617-0.32352 1.111-0.64827 1.111-0.54002 0 0.10837 0.84564 0.67005 0.84564 0.67005m-16.749-0.32042 0.74013-0.67005 0.42204 0.69184 2.2189-0.77772 0.47636 0.8642s1.0039-0.49774 1.5331-0.56181c0.52755-0.0646-3.2243 0.0436-3.2243 0.0436s0.52755 0.64766 0.89994 0.58294c0.36774-0.0646 4.2267-0.54004 4.2267-0.54004s1.3732 0.7995 1.3732 0.71302c0-0.087 1.322-0.92955 1.322-0.92955l-2.2731 0.30238s-1.3732 0.62715-1.0039 0.62715"/>
   <path d="m31.391 170.99 0.75099-0.66818 0.41119 0.69245 2.2328-0.77269 0.46083 0.8654s1.0117-0.4946 1.5423-0.55806c0.52756-0.064-3.2243 0.0354-3.2243 0.0354s0.51669 0.64954 0.88754 0.58543c0.37239-0.0634 4.236-0.53006 4.236-0.53006s1.3608 0.80258 1.3623 0.7155c0-0.0859 1.3375-0.9258 1.3375-0.9258l-2.2778 0.29738s-1.384 0.6234-1.0148 0.62467m31.907-4.8031s-2.3615 0.78268-2.6657 0.49957c-0.30424-0.28305-0.51203-0.34962-0.51203-0.34962s-1.5159 0.76773-1.5626 0.63768c-0.0467-0.12998-2.7263-0.47283-2.7263-0.47283s1.9256-0.52697 2.1381-0.5475m-29.078 6.0615-2.0203 0.26754-0.54773-0.73916-1.0334 0.6197m33.57-4.2544s-0.96665 0.31731-1.2816 0.29369c-0.31673-0.0237-1.3034-0.39819-1.3034-0.39819l-0.97131 0.42555s1.7316 0.27189 2.1164-0.0497c0.38481-0.32164 0.45775-0.77523-0.49806-0.65202-0.95736 0.12324-1.9288 0.54874-1.9288 0.54874s-0.3724 0.0622-0.62839-0.11263c-0.2561-0.17484-0.35825-0.24078-0.35825-0.24078m-9.9336 2.5558s-0.55083 0.49337-1.0241 0.4467c-0.4748-0.0459-1.6711-0.44358-1.6711-0.44358s-0.87357 0.59913-0.72306 0.77269c0.15053 0.17421 1.8029-0.1387 2.2932-0.43737 0.48877-0.29927 0.35689-0.88343-0.71374-0.61032-1.0691 0.27374-2.8301 0.65015-3.0924 0.60472-0.26226-0.0448-1.7255-0.40067-1.7255-0.40067s-1.2382 0.4884-1.4461 0.40006m28.228-2.7338s-2.7107 0.32726-2.9698 0.21716m-28.436 3.7523s-0.86582 0.42616-1.3903 0.33596c-0.52445-0.0897-2.4842-1.1411-2.6005-0.9258-0.11483 0.21526-0.50428 0.64518-0.7153 0.64331m34.903-1.2978s-1.0334 0.61964-1.3841 0.20654c-0.35054-0.41311-1.3887-0.85233-2.0373-0.53319-0.64857 0.31979-1.1389 0.64082-1.1327 0.53256 3e-3 -0.10766-0.81615-0.67568-0.81615-0.67568m-2.1723 0.2022-0.76964 0.66509-0.39099-0.69499-2.2546 0.76277-0.43445-0.86795s-1.0272 0.4903-1.5594 0.55124c-0.53066 0.061 3.2258-0.0204 3.2258-0.0204s-0.49961-0.65202-0.872-0.58979c-0.3724 0.0622-4.2515 0.51016-4.2515 0.51016s-1.3375-0.80882-1.3422-0.72234c-0.0028 0.0866-1.3623 0.92017-1.3623 0.92017l2.2856-0.28682s1.4027-0.61716 1.0318-0.61964m3.4834-2.376-0.72151 0.67381-0.44222-0.68997-2.1972 0.78891-0.4996-0.86231s-0.98994 0.50146-1.5159 0.56925c-0.52755 0.0673 3.2211-0.0586 3.2211-0.0586s-0.5462-0.64579-0.91547-0.57921c-0.36773 0.0665-4.2111 0.55995-4.2111 0.55995s-1.3965-0.79261-1.3934-0.70679c0.0028 0.087-1.2956 0.93579-1.2956 0.93579l2.2638-0.3136s1.3561-0.63271 0.98684-0.63084m-20.894 2.1365s2.3244-0.7995 2.6424-0.51826c0.31656 0.2806 0.52755 0.34528 0.52755 0.34528s1.4802-0.77772 1.5331-0.64827c0.05277 0.13001 2.7464 0.45417 2.7464 0.45417s-1.9007 0.54006-2.1118 0.56183m19.81-3.3242 2.0078-0.28061 0.58187 0.7342 1.0039-0.62654m-18.97 3.1096s0.95116-0.32352 1.2677-0.30239c0.3181 0.0219 1.322 0.38887 1.322 0.38887l0.95116-0.43178s-1.744-0.25944-2.1149 0.0646c-0.36929 0.3235-0.42204 0.77766 0.52755 0.64827 0.9527-0.13 1.9038-0.56182 1.9038-0.56182s0.3693-0.0646 0.63462 0.10779c0.2638 0.17296 0.36929 0.23831 0.36929 0.23831m-6.388-1.2966s0.52755-0.49711 1.0039-0.45418c0.47478 0.0434 1.6913 0.43304 1.6913 0.43304s0.84563-0.60536 0.68582-0.77772c-0.15827-0.17359-1.7969 0.15054-2.2716 0.45355-0.47634 0.30238-0.31656 0.88598 0.74012 0.60476 1.0551-0.28059 2.8007-0.67005 3.0645-0.62654 0.2638 0.0433 1.744 0.38887 1.744 0.38887s1.2149-0.49709 1.4275-0.41063m-14.743-1e-3s2.6951-0.3459 2.9589-0.23768m14.21-1.3365s0.84563-0.43241 1.3732-0.3459c0.52755 0.087 2.5369 1.1242 2.6424 0.90831 0.10555-0.21649 0.47634-0.64893 0.68736-0.64893m-11.623 0.10518s1.0039-0.62654 1.3732-0.21591c0.37083 0.41064 1.4275 0.84241 2.0606 0.51826 0.63617-0.32352 1.111-0.64827 1.111-0.54002 0 0.10837 0.84564 0.67005 0.84564 0.67005m-16.749-0.32042 0.74013-0.67005 0.42204 0.69184 2.2189-0.77772 0.47636 0.8642s1.0039-0.49774 1.5331-0.56181c0.52755-0.0646-3.2243 0.0436-3.2243 0.0436s0.52755 0.64766 0.89994 0.58294c0.36774-0.0646 4.2267-0.54004 4.2267-0.54004s1.3732 0.7995 1.3732 0.71302c0-0.087 1.322-0.92955 1.322-0.92955l-2.2731 0.30238s-1.3732 0.62715-1.0039 0.62715"/>
   <path d="m69.618 174.67-0.70048 0.67816-0.4629-0.68645-2.1737 0.80289-0.52554-0.85869s-0.97401 0.50823-1.4996 0.57892c-0.52245 0.0711 3.22-0.0797 3.22-0.0797s-0.56519-0.64215-0.93101-0.57299c-0.36743 0.0685-4.1939 0.58778-4.1939 0.58778s-1.4203-0.78352-1.4153-0.69643c0.0065 0.0858-1.2674 0.94359-1.2674 0.94359l2.2543-0.32843s1.3366-0.64203 0.96739-0.63822m-31.53 5.2374s2.3016-0.81463 2.6269-0.53581c0.32532 0.27875 0.538 0.34243 0.538 0.34243s1.4576-0.78806 1.5138-0.65874c0.05641 0.12933 2.7603 0.43526 2.7603 0.43526s-1.8851 0.55308-2.0959 0.5765m-1.0369-1.9423s0.94236-0.33035 1.2589-0.31108c0.31833 0.0192 1.3326 0.38016 1.3326 0.38016l0.93889-0.43866s-1.7511-0.24804-2.1116 0.0787c-0.36049 0.32677-0.39936 0.7811 0.54672 0.64488 0.94763-0.13627 1.8865-0.57487 1.8865-0.57487s0.36753-0.0672 0.63651 0.1039c0.26908 0.17125 0.37613 0.23576 0.37613 0.23576m9.7367-2.6906s0.51353-0.50066 0.99003-0.4605c0.478 0.0393 1.7035 0.42051 1.7035 0.42051s0.82816-0.61081 0.66471-0.78226c-0.16348-0.17205-1.7916 0.16339-2.2594 0.46856-0.46606 0.30579-0.2904 0.88791 0.75917 0.60023 1.048-0.28824 2.78-0.68857 3.0455-0.64675 0.26549 0.0411 1.7546 0.37683 1.7546 0.37683s1.2009-0.5051 1.4154-0.41965m-28.008 3.1188s2.6848-0.36421 2.952-0.25771m-1.9467-2.4826s0.98636-0.6335 1.3679-0.22542c0.38134 0.40812 1.4519 0.8329 2.0762 0.50506 0.62424-0.32852 1.0903-0.65613 1.0922-0.54781 0.0045 0.10767 0.86643 0.66412 0.86643 0.66412m2.156-0.23186 0.71934-0.67526 0.44292 0.68924 2.1962-0.79327 0.49935 0.86153s0.98987-0.50408 1.5172-0.57229c0.52581-0.0682-3.2227 0.0646-3.2227 0.0646s0.54826 0.64488 0.9158 0.57755c0.36754-0.0673 4.2111-0.5681 4.2111-0.5681s1.3975 0.79006 1.3957 0.70358c-0.0031-0.0866 1.2926-0.93839 1.2926-0.93839l-2.2628 0.318s-1.3557 0.63604-0.98482 0.63344m-3.3033 2.4225 0.67058-0.68337 0.49375 0.68355 2.1368-0.81857 0.56405 0.85506s0.95181-0.51475 1.4724-0.58975c0.52226-0.0743-3.2152 0.10259-3.2152 0.10259s0.59436 0.63798 0.95846 0.56641c0.36254-0.0716 4.1669-0.61728 4.1669-0.61728s1.4552 0.77312 1.4457 0.68736c-0.0096-0.0869 1.2247-0.95297 1.2247-0.95297l-2.2391 0.34437s-1.3079 0.65099-0.939 0.64403m20.724-2.4215s-2.2632 0.83091-2.6022 0.5542c-0.3373-0.27613-0.55318-0.33792-0.55318-0.33792s-1.4212 0.79757-1.4836 0.66897c-0.06246-0.1291-2.779-0.41636-2.779-0.41636s1.8593-0.56579 2.0686-0.59043m-19.55 3.5937-1.9857 0.30793-0.63666-0.72585-0.95638 0.63997m18.728-3.3677s-0.92639 0.3364-1.2443 0.31958c-0.31956-0.0174-1.3505-0.37056-1.3505-0.37056l-0.91826 0.44458s1.7626 0.23543 2.1089-0.0936c0.34484-0.32841 0.36346-0.7831-0.57592-0.64076-0.94246 0.14299-1.8607 0.58761-1.8607 0.58761s-0.36424 0.0696-0.64237-0.0988c-0.27661-0.16929-0.38698-0.23314-0.38698-0.23314m6.4821 1.2085s-0.48998 0.5041-0.9693 0.46771c-0.47782-0.0371-1.7229-0.40967-1.7229-0.40967s-0.79979 0.61662-0.62713 0.78674c0.17119 0.17133 1.7845-0.17506 2.2364-0.48441 0.45342-0.30875 0.24991-0.88986-0.78511-0.59429-1.0335 0.29488-2.749 0.70805-3.0159 0.66811-0.26689-0.0399-1.7723-0.36476-1.7723-0.36476s-1.177 0.51352-1.396 0.42998m14.736-0.19876s-2.6678 0.38265-2.9397 0.27808m-14.102 1.5303s-0.81276 0.44375-1.3465 0.36455c-0.53382-0.08-2.6199-1.089-2.7092-0.8717-0.08922 0.21784-0.42741 0.65511-0.63832 0.65801m11.609-0.26427s-0.95638 0.63991-1.3563 0.23459c-0.40146-0.40533-1.49-0.82244-2.0985-0.48977-0.61158 0.33206-1.0618 0.66315-1.0699 0.55496-0.0079-0.10826-0.89547-0.65813-0.89547-0.65813m16.763 0.0909-0.68946 0.67986-0.47374-0.68573-2.1594 0.80767-0.54094-0.85723s-0.96603 0.51119-1.49 0.5825c-0.52243 0.0718 3.2194-0.0876 3.2194-0.0876s-0.57589-0.6401-0.94321-0.57034c-0.36266 0.0698-4.1839 0.59762-4.1839 0.59762s-1.4325-0.78025-1.426-0.69384c0.0065 0.087-1.2516 0.94711-1.2516 0.94711l2.2493-0.33337s1.3254-0.6456 0.95633-0.64052"/>
   <path d="m109.83 174.01-0.70049 0.67816-0.46289-0.68645-2.1737 0.80289-0.52554-0.85869s-0.97401 0.50823-1.4996 0.57892c-0.52245 0.0711 3.22-0.0797 3.22-0.0797s-0.56519-0.64215-0.93101-0.57299c-0.36743 0.0685-4.1939 0.58778-4.1939 0.58778s-1.4203-0.78352-1.4153-0.69643c7e-3 0.0858-1.2674 0.94359-1.2674 0.94359l2.2543-0.32843s1.3366-0.64203 0.96739-0.63822m-31.53 5.2374s2.3016-0.81463 2.6269-0.53581c0.32531 0.27875 0.53799 0.34243 0.53799 0.34243s1.4576-0.78806 1.5138-0.65874c0.0564 0.12933 2.7603 0.43526 2.7603 0.43526s-1.8851 0.55308-2.0959 0.5765m-1.0369-1.9423s0.94235-0.33035 1.2589-0.31108c0.31833 0.0192 1.3326 0.38016 1.3326 0.38016l0.93889-0.43866s-1.7511-0.24804-2.1116 0.0787c-0.36049 0.32677-0.39936 0.7811 0.54672 0.64488 0.94763-0.13627 1.8865-0.57487 1.8865-0.57487s0.36753-0.0672 0.63651 0.1039c0.26908 0.17125 0.37613 0.23576 0.37613 0.23576m9.7367-2.6906s0.51353-0.50066 0.99003-0.4605c0.478 0.0393 1.7035 0.42051 1.7035 0.42051s0.82816-0.61081 0.66471-0.78226c-0.16348-0.17205-1.7916 0.16339-2.2594 0.46856-0.46606 0.30579-0.2904 0.88791 0.75917 0.60023 1.048-0.28824 2.78-0.68857 3.0455-0.64675 0.26549 0.0411 1.7546 0.37683 1.7546 0.37683s1.2009-0.5051 1.4154-0.41965m-28.008 3.1188s2.6848-0.36421 2.952-0.25771m-1.9467-2.4826s0.98636-0.6335 1.3679-0.22542c0.38134 0.40812 1.4519 0.8329 2.0762 0.50506 0.62423-0.32852 1.0902-0.65613 1.0922-0.54781 4e-3 0.10767 0.86643 0.66412 0.86643 0.66412m2.156-0.23186 0.71934-0.67526 0.44292 0.68924 2.1962-0.79327 0.49935 0.86153s0.98987-0.50408 1.5172-0.57229c0.52582-0.0682-3.2227 0.0646-3.2227 0.0646s0.54826 0.64488 0.91579 0.57755c0.36755-0.0673 4.2111-0.5681 4.2111-0.5681s1.3975 0.79006 1.3957 0.70358c-3e-3 -0.0866 1.2926-0.93839 1.2926-0.93839l-2.2628 0.318s-1.3557 0.63604-0.98482 0.63344m-3.3033 2.4225 0.67057-0.68337 0.49376 0.68355 2.1368-0.81857 0.56404 0.85506s0.95181-0.51475 1.4724-0.58975c0.52226-0.0743-3.2152 0.10259-3.2152 0.10259s0.59436 0.63798 0.95847 0.56641c0.36254-0.0716 4.1669-0.61728 4.1669-0.61728s1.4552 0.77312 1.4457 0.68736c-0.01-0.0869 1.2247-0.95297 1.2247-0.95297l-2.2391 0.34437s-1.308 0.65099-0.939 0.64403m20.724-2.4215s-2.2632 0.83091-2.6022 0.5542c-0.3373-0.27613-0.55318-0.33792-0.55318-0.33792s-1.4212 0.79757-1.4836 0.66897c-0.0625-0.1291-2.779-0.41636-2.779-0.41636s1.8593-0.56579 2.0686-0.59043m-19.55 3.5937-1.9857 0.30793-0.63666-0.72585-0.95639 0.63997m18.728-3.3677s-0.92638 0.3364-1.2443 0.31958c-0.31957-0.0174-1.3505-0.37056-1.3505-0.37056l-0.91826 0.44458s1.7626 0.23543 2.1089-0.0936c0.34483-0.32841 0.36346-0.7831-0.57592-0.64076-0.94246 0.14299-1.8608 0.58761-1.8608 0.58761s-0.36424 0.0696-0.64237-0.0988c-0.27661-0.16929-0.38698-0.23314-0.38698-0.23314m6.4821 1.2085s-0.48999 0.5041-0.96931 0.46771c-0.47781-0.0371-1.7229-0.40967-1.7229-0.40967s-0.79978 0.61662-0.62713 0.78674c0.17119 0.17133 1.7845-0.17506 2.2364-0.48441 0.45342-0.30875 0.24991-0.88986-0.7851-0.59429-1.0335 0.29488-2.749 0.70805-3.0159 0.66811-0.26689-0.0399-1.7723-0.36476-1.7723-0.36476s-1.177 0.51352-1.396 0.42998m14.736-0.19876s-2.6678 0.38265-2.9396 0.27808m-14.102 1.5303s-0.81276 0.44375-1.3465 0.36455c-0.53382-0.08-2.6199-1.089-2.7092-0.8717-0.0892 0.21784-0.42741 0.65511-0.63832 0.65801m11.609-0.26427s-0.95639 0.63991-1.3563 0.23459c-0.40146-0.40533-1.49-0.82244-2.0985-0.48977-0.61157 0.33206-1.0618 0.66315-1.0699 0.55496-8e-3 -0.10826-0.89547-0.65813-0.89547-0.65813m16.763 0.0909-0.68946 0.67986-0.47374-0.68573-2.1594 0.80767-0.54094-0.85723s-0.96603 0.51119-1.49 0.5825c-0.52242 0.0718 3.2194-0.0876 3.2194-0.0876s-0.57589-0.6401-0.94321-0.57034c-0.36265 0.0698-4.1839 0.59762-4.1839 0.59762s-1.4325-0.78025-1.426-0.69384c6e-3 0.087-1.2516 0.94711-1.2516 0.94711l2.2493-0.33337s1.3254-0.6456 0.95633-0.64052"/>
  </g>
 </g>
 <path d="m223.35 183.68a2.8031 2.8031 0 0 1-2.8031 2.8031h-25.805a2.8031 2.8031 0 0 1-2.8031-2.8031v-29.21a2.8031 2.8031 0 0 1 2.8031-2.8031h25.804a2.8031 2.8031 0 0 1 2.8031 2.8031z" fill="url(#linearGradient882)" stroke-width="1.4016"/>
 <text x="110.03895" y="73.090492" font-family="'Komika Hand'" font-size="18.667px" letter-spacing="0px" text-align="center" text-anchor="middle" word-spacing="0px" style="line-height:1.2" xml:space="preserve"><tspan x="110.03895" y="73.090492"/></text>
 <g fill="none" stroke-linejoin="round">
  <path d="m41.669 155.7 1.0103-1.0603 0.5776 1.0954 3.0309-1.2321 0.64903 1.3677s1.3715-0.78673 2.0919-0.88846c0.72251-0.10272-4.4023 0.0676-4.4023 0.0676s0.72251 1.0264 1.2287 0.9235c0.50412-0.10164 5.7719-0.85451 5.7719-0.85451s1.8777 1.266 1.8777 1.1293 1.8042-1.4718 1.8042-1.4718l-3.1023 0.47929s-1.8777 0.99249-1.3736 0.99249m-18.573-1.0392s1.2981-0.51318 1.7307-0.47926c0.43474 0.0351 1.8042 0.61607 1.8042 0.61607l1.3001-0.68385s-2.3818-0.41031-2.886 0.10271c-0.50616 0.51319-0.5776 1.2321 0.72047 1.0263 1.3001-0.20573 2.5981-0.88962 2.5981-0.88962s0.50616-0.1027 0.86538 0.17066c0.36127 0.27356 0.50616 0.37644 0.50616 0.37644m18.279 0.22976 1.0103-1.0603 0.57759 1.0954 3.0309-1.2321 0.64903 1.3677s1.3716-0.78673 2.0921-0.8884c0.7225-0.10282-4.4025 0.0676-4.4025 0.0676s0.72251 1.0264 1.2287 0.92351c0.50412-0.10164 5.7719-0.85452 5.7719-0.85452 2.0401 1.4981 1.8888 1.0182 3.682-0.34249l-3.1023 0.47928" stroke="#c83737" stroke-linecap="square" stroke-width=".54989"/>
  <path d="m101.31 170.46-1.0096 1.061-0.57835-1.095-3.03 1.2342-0.64996-1.3673s-1.371 0.78766-2.0913 0.88988c-0.72244 0.1032 4.4023-0.0706 4.4023-0.0706s-0.72321-1.0259-1.2293-0.92267c-0.50406 0.10198-5.7714 0.85841-5.7714 0.85841s-1.8786-1.2648-1.8785-1.128c9.2e-5 0.1367-1.8032 1.473-1.8032 1.473l3.102-0.48139s1.8771-0.99375 1.3729-0.99341m18.574 1.0266s-1.2977 0.51406-1.7304 0.48043c-0.43476-0.0348-1.8046-0.61485-1.8046-0.61485l-1.2996 0.68473s2.3821 0.4087 2.8859-0.10466c0.50582-0.51353 0.57677-1.2325-0.72116-1.0258-1.3 0.20661-2.5975 0.89137-2.5975 0.89137s-0.50609 0.10305-0.86549-0.17007c-0.36145-0.27332-0.50642-0.3761-0.50642-0.3761m-18.279-0.21741-1.0096 1.061-0.57833-1.095-3.0301 1.2342-0.64995-1.3673s-1.371 0.78766-2.0915 0.88982c-0.72243 0.10331 4.4024-0.0706 4.4024-0.0706s-0.7232-1.0259-1.2293-0.92268c-0.50405 0.10198-5.7714 0.85842-5.7714 0.85842-2.0411-1.4967-1.8895-1.0169-3.6817 0.34498l3.102-0.48137" stroke="#c83737" stroke-linecap="square" stroke-width=".54989"/>
  <g transform="translate(79.769,40.537)" stroke="#fff">
   <path d="m116.24 124.07 23.523 9e-3 -11.665-6.993z" stroke-linecap="square" stroke-width="2.6472"/>
   <path d="m120 127.29v8.4569" stroke-linecap="square" stroke-width="2.4434"/>
   <path d="m140.07 138.95h-24.142" stroke-linecap="round" stroke-width="2.5713"/>
  </g>
 </g>
 <path d="m207.88 166.43-3.8123 10.75 9.2034-6.7504-11-0.0557 9.3396 7.0558z" fill="#fff" fill-rule="evenodd" stroke-width=".59231"/>
 <path d="m215.77 167.83v8.4569" fill="none" stroke="#fff" stroke-linecap="square" stroke-linejoin="round" stroke-width="2.4434"/>
 <g stroke-width="0">
  <path d="m83.903 94.528v1.2363h1.2129q0.43359 0 0.61523 0.16992 0.1875 0.16406 0.1875 0.43359 0 0.26367-0.1875 0.43359-0.18164 0.16406-0.61523 0.16406h-2.6016q-0.43359 0-0.62109-0.16406-0.18164-0.16992-0.18164-0.43945 0-0.26367 0.1875-0.42773 0.1875-0.16992 0.61523-0.16992h0.1875v-4.6992h-0.1875q-0.43359 0-0.62109-0.16406-0.18164-0.16992-0.18164-0.43945t0.18164-0.43359q0.1875-0.16992 0.62109-0.16992l2.7656 0.0059q1.2188 0 1.9277 0.66797 0.71484 0.66211 0.71484 1.6172 0 0.52734-0.24023 0.99609-0.18164 0.35156-0.60938 0.69727-0.42188 0.33984-0.86719 0.51562-0.43945 0.16992-1.166 0.16992zm0-1.2012h1.1133q0.78516 0 1.2422-0.35156 0.46289-0.35742 0.46289-0.85547 0-0.42188-0.375-0.73828-0.36914-0.31641-1.0605-0.31641h-1.3828z"/>
  <path d="m91.297 91.066v4.6992h2.5898v-1.1367q0-0.43359 0.16406-0.61523 0.16992-0.1875 0.43945-0.1875 0.26367 0 0.42773 0.1875 0.16992 0.18164 0.16992 0.61523v2.3379h-5.6895q-0.43359 0-0.62109-0.16406-0.18164-0.16992-0.18164-0.43945 0-0.26367 0.18164-0.42773 0.1875-0.16992 0.62109-0.16992h0.69726v-4.6992h-0.69726q-0.43359 0-0.62109-0.16406-0.18164-0.16992-0.18164-0.43945t0.18164-0.43359q0.1875-0.16992 0.62109-0.16992l2.6016 0.0059q0.43359 0 0.61524 0.16406 0.1875 0.16406 0.1875 0.43359t-0.1875 0.43945q-0.18164 0.16406-0.61524 0.16406z"/>
  <path d="m100.47 95.032h-2.918l-0.29297 0.73242h0.29297q0.43359 0 0.61524 0.16992 0.1875 0.16406 0.1875 0.43359 0 0.26367-0.1875 0.43359-0.18164 0.16406-0.61524 0.16406h-1.6172q-0.43359 0-0.61524-0.16406-0.1875-0.16992-0.1875-0.43945t0.19336-0.43945 0.63867-0.1582l1.8867-4.6992h-0.78516q-0.43359 0-0.62109-0.16406-0.18164-0.16992-0.18164-0.43945t0.18164-0.43359q0.1875-0.16992 0.62109-0.16992l2.5957 0.0059 2.3906 5.9004q0.42188 0 0.55664 0.09375 0.26953 0.19336 0.26953 0.50977 0 0.26367-0.18164 0.43359-0.18164 0.16406-0.61524 0.16406h-1.6172q-0.43359 0-0.62108-0.16406-0.18164-0.16992-0.18164-0.43945 0-0.26367 0.18164-0.42773 0.1875-0.16992 0.62108-0.16992h0.29297zm-0.49804-1.2012-0.9668-2.3789-0.97266 2.3789z"/>
  <path d="m106.78 91.066v4.6992h0.80859q0.43359 0 0.61523 0.16992 0.1875 0.16406 0.1875 0.43359 0 0.26367-0.1875 0.43359-0.18164 0.16406-0.61523 0.16406h-2.8125q-0.43359 0-0.62109-0.16406-0.18164-0.16992-0.18164-0.43945 0-0.26367 0.18164-0.42773 0.1875-0.16992 0.62109-0.16992h0.80273v-4.6992h-1.3008v1.1367q0 0.43359-0.16992 0.62109-0.16406 0.18164-0.43359 0.18164-0.26367 0-0.43359-0.18164-0.16406-0.1875-0.16406-0.62109v-2.3438l6.2227 0.0059v2.3379q0 0.43359-0.16992 0.62109-0.16406 0.18164-0.43359 0.18164-0.26367 0-0.43359-0.18164-0.16406-0.1875-0.16406-0.62109v-1.1367z"/>
  <path d="m114 91.066v4.6992h1.2129q0.43359 0 0.61523 0.16992 0.1875 0.16406 0.1875 0.43359 0 0.26367-0.1875 0.43359-0.18164 0.16406-0.61523 0.16406h-3.627q-0.43359 0-0.62109-0.16406-0.18164-0.16992-0.18164-0.43945 0-0.26367 0.18164-0.42773 0.1875-0.16992 0.62109-0.16992h1.2129v-4.6992h-1.2129q-0.43359 0-0.62109-0.16406-0.18164-0.16992-0.18164-0.43945t0.18164-0.43359q0.1875-0.16992 0.62109-0.16992l3.627 0.0059q0.43359 0 0.61523 0.16406 0.1875 0.16406 0.1875 0.43359t-0.1875 0.43945q-0.18164 0.16406-0.61523 0.16406z"/>
  <path d="m119.1 92.132v3.6328h0.43359q0.43359 0 0.61524 0.16992 0.1875 0.16406 0.1875 0.43359 0 0.26367-0.1875 0.43359-0.18164 0.16406-0.61524 0.16406h-1.5762q-0.43359 0-0.62109-0.16406-0.18164-0.16992-0.18164-0.43945 0-0.25781 0.18164-0.42773t0.5625-0.16992v-4.6992h-0.1875q-0.43359 0-0.62109-0.16406-0.18164-0.16992-0.18164-0.43945t0.18164-0.43359q0.1875-0.16992 0.62109-0.16992l1.3887 0.0059 3.0703 4.8164v-3.6152h-0.43359q-0.43359 0-0.62109-0.16406-0.18164-0.16992-0.18164-0.43945t0.18164-0.43359q0.1875-0.16992 0.62109-0.16992l1.5762 0.0059q0.43359 0 0.61524 0.16406 0.1875 0.16406 0.1875 0.43359 0 0.26367-0.18164 0.43359t-0.55664 0.16992v5.9004h-1.1895z"/>
  <path d="m130.55 91.066v3.4043q0 1.1133-0.80273 1.8926-0.79688 0.7793-1.9219 0.7793-0.55664 0-1.0488-0.19336-0.48633-0.19922-0.87891-0.58008-0.38672-0.38086-0.60352-0.79102-0.2168-0.41602-0.2168-1.1074v-3.4043q-0.38086 0-0.5625-0.16992t-0.18164-0.43359q0-0.26953 0.18164-0.43359t0.62109-0.16406l1.5762-0.0059q0.43359 0 0.61523 0.16992 0.1875 0.16406 0.1875 0.43359t-0.1875 0.43945q-0.18164 0.16406-0.61523 0.16406h-0.43359v3.5098q0 0.53906 0.44531 0.95508 0.45117 0.41016 1.084 0.41016 0.42188 0 0.79102-0.19922t0.60352-0.58008q0.14648-0.24023 0.14648-0.58594v-3.5098h-0.43359q-0.43359 0-0.62109-0.16406-0.18164-0.16992-0.18164-0.43945t0.18164-0.43359q0.1875-0.16988 0.62109-0.16988l1.5762 0.0059q0.43359 0 0.61523 0.16406 0.1875 0.16406 0.1875 0.43359 0 0.26367-0.18164 0.43359t-0.5625 0.16992z"/>
  <path d="m133.13 92.185v3.5801h0.43359q0.43359 0 0.61523 0.16992 0.1875 0.16406 0.1875 0.43359 0 0.26367-0.1875 0.43359-0.18164 0.16406-0.61523 0.16406h-1.5762q-0.43359 0-0.61523-0.16406-0.1875-0.16992-0.1875-0.43945 0-0.26367 0.18164-0.42773 0.18164-0.16992 0.5625-0.16992v-4.6992q-0.31641-0.0293-0.48047-0.19336-0.1582-0.16406-0.1582-0.41016 0-0.26953 0.18164-0.43359 0.1875-0.16992 0.62109-0.16992l1.3184 0.0059 1.6348 3.6152 1.6055-3.6211 1.3301 0.0059q0.43359 0 0.61523 0.16406 0.1875 0.16406 0.1875 0.43359 0 0.24609-0.16406 0.41016-0.16406 0.16406-0.47461 0.19336v4.6992q0.38086 0 0.5625 0.16992t0.18164 0.43359-0.1875 0.43359q-0.18164 0.16406-0.61523 0.16406h-1.582q-0.42773 0-0.61523-0.16406-0.18164-0.16992-0.18164-0.43945 0-0.26367 0.18164-0.42773 0.1875-0.16992 0.61523-0.16992h0.43945v-3.5801l-1.377 3.0938h-1.043z"/>
  <path d="m151.54 90.169q0.11133-0.15234 0.24023-0.22852 0.13477-0.07617 0.28711-0.07617 0.26367 0 0.42774 0.18164 0.16992 0.18164 0.16992 0.61523v1.0195q0 0.43359-0.16992 0.62109-0.16407 0.18164-0.42774 0.18164-0.24023 0-0.38672-0.13477-0.14648-0.13476-0.21679-0.50391-0.041-0.24609-0.16407-0.38086-0.24023-0.26367-0.67383-0.42188-0.42773-0.1582-0.86132-0.1582-0.53907 0-0.99024 0.23438t-0.79687 0.76172q-0.34571 0.52734-0.34571 1.2539v0.7793q0 0.86719 0.62696 1.4473 0.63281 0.58008 1.752 0.58008 0.66797 0 1.1309-0.18164 0.26953-0.10547 0.57422-0.41602 0.1875-0.1875 0.29297-0.24023 0.10547-0.05859 0.24023-0.05859 0.24024 0 0.42188 0.18164t0.18164 0.42774-0.2461 0.52734q-0.35742 0.41016-0.91992 0.64453-0.75586 0.31641-1.6699 0.31641-1.0664 0-1.9219-0.43945-0.6914-0.35156-1.1777-1.1074-0.48633-0.76172-0.48633-1.6582v-0.81445q0-0.9375 0.4336-1.7461 0.43945-0.81445 1.2129-1.2539 0.77343-0.43945 1.6406-0.43945 0.52149 0 0.97266 0.12305 0.45703 0.11719 0.84961 0.36328z"/>
  <path d="m158.33 95.032h-2.918l-0.29296 0.73242h0.29296q0.4336 0 0.61524 0.16992 0.1875 0.16406 0.1875 0.43359 0 0.26367-0.1875 0.43359-0.18164 0.16406-0.61524 0.16406h-1.6172q-0.4336 0-0.61524-0.16406-0.1875-0.16992-0.1875-0.43945t0.19336-0.43945 0.63867-0.1582l1.8867-4.6992h-0.78515q-0.4336 0-0.6211-0.16406-0.18164-0.16992-0.18164-0.43945t0.18164-0.43359q0.1875-0.16992 0.6211-0.16992l2.5957 0.0059 2.3906 5.9004q0.42188 0 0.55665 0.09375 0.26953 0.19336 0.26953 0.50977 0 0.26367-0.18164 0.43359-0.18164 0.16406-0.61524 0.16406h-1.6172q-0.43358 0-0.62108-0.16406-0.18165-0.16996-0.18165-0.43949 0-0.26367 0.18165-0.42773 0.1875-0.16992 0.62108-0.16992h0.29297zm-0.49804-1.2012-0.9668-2.3789-0.97266 2.3789z"/>
  <path d="m162.82 94.253v1.5117h0.4336q0.43359 0 0.61523 0.16992 0.1875 0.16406 0.1875 0.43359 0 0.26367-0.1875 0.43359-0.18164 0.16406-0.61523 0.16406h-1.8223q-0.43359 0-0.62109-0.16406-0.18164-0.16992-0.18164-0.43945 0-0.26367 0.1875-0.42773 0.1875-0.16992 0.61523-0.16992h0.1875v-4.6992h-0.1875q-0.43359 0-0.62109-0.16406-0.18164-0.16992-0.18164-0.43945t0.18164-0.43359q0.1875-0.16992 0.62109-0.16992l2.7188 0.0059q1.2715 0 1.9688 0.63281 0.70313 0.62695 0.70313 1.5293 0 0.5625-0.32813 1.0254-0.32812 0.45703-0.99023 0.81445 0.38086 0.33398 0.81445 0.85547 0.26953 0.33398 0.72656 1.043 0.45703 0 0.60352 0.09375 0.26367 0.18164 0.26367 0.50977 0 0.26367-0.18164 0.43359-0.18164 0.16406-0.61523 0.16406h-0.68555q-1.459-2.2559-2.4199-2.7129zm0-1.2012h0.9375q0.52149 0 0.93164-0.1582 0.55079-0.21094 0.73829-0.44531 0.19336-0.23438 0.19336-0.46289 0-0.33984-0.36329-0.62695-0.36328-0.29297-1.0605-0.29297h-1.377z"/>
  <path d="m168.58 95.765v-4.6992q-0.38086-0.0059-0.5625-0.16992-0.18164-0.16992-0.18164-0.43359 0-0.26953 0.18164-0.43359 0.1875-0.16992 0.62109-0.16992l2.5137 0.0059q0.58593 0 1.1426 0.2168 0.5625 0.2168 0.90235 0.55078 0.25781 0.25195 0.5332 0.69141 0.28125 0.43945 0.42188 0.87305 0.14062 0.43359 0.14062 1.0605v0.57422q0 0.76172-0.25781 1.3535-0.25781 0.58594-0.67969 0.96094-0.41601 0.36914-0.78516 0.54492-0.58593 0.27539-1.5176 0.27539h-2.4141q-0.4336 0-0.6211-0.16406-0.18163-0.16992-0.18163-0.43945 0-0.26367 0.18163-0.43359 0.1875-0.16992 0.5625-0.16406zm1.2012 0h1.2774q0.71484 0 1.0781-0.20508 0.47461-0.26953 0.71484-0.68555 0.24024-0.41602 0.24024-1.0781v-0.56836q0-0.56836-0.2168-0.99609-0.33984-0.66797-0.76758-0.91406-0.42187-0.25195-1.0605-0.25195h-1.2656z"/>
  <g stroke="#fff" aria-label="BANK OF DOMINION">
   <path d="m52.672 79.411v-6.2656h-0.25q-0.57812 0-0.82812-0.21875-0.24219-0.22656-0.24219-0.58594t0.24219-0.57812q0.25-0.22656 0.82812-0.22656h4.0156q1.4375 0 2.3125 0.80469 0.875 0.79688 0.875 1.8984 0 0.52344-0.20312 0.98438t-0.61719 0.85156q0.75781 0.45312 1.1328 1.0625 0.38281 0.60156 0.38281 1.3672 0 0.60938-0.27344 1.1328-0.20312 0.39844-0.5 0.63281-0.39844 0.32812-0.97656 0.53906-0.57812 0.20312-1.4453 0.20312h-4.7031q-0.57812 0-0.82812-0.21875-0.24219-0.22656-0.24219-0.58594 0-0.35156 0.25-0.57031 0.25-0.22656 0.82031-0.22656zm1.6016-3.9375h1.7578q0.94531 0 1.5703-0.47656 0.42188-0.32031 0.42188-0.79688 0-0.42188-0.39844-0.73438-0.39844-0.32031-1.2656-0.32031h-2.0859zm0 3.9375h2.7656q0.97656 0 1.375-0.28906 0.30469-0.21875 0.30469-0.625 0-0.48438-0.60156-0.95312-0.60156-0.46875-1.7266-0.46875h-2.1172z"/>
   <path d="m67.5 78.435h-3.8906l-0.39062 0.97656h0.39062q0.57812 0 0.82031 0.22656 0.25 0.21875 0.25 0.57812 0 0.35156-0.25 0.57812-0.24219 0.21875-0.82031 0.21875h-2.1562q-0.57812 0-0.82031-0.21875-0.25-0.22656-0.25-0.58594t0.25781-0.58594 0.85156-0.21094l2.5156-6.2656h-1.0469q-0.57812 0-0.82812-0.21875-0.24219-0.22656-0.24219-0.58594t0.24219-0.57812q0.25-0.22656 0.82812-0.22656l3.4609 0.0078 3.1875 7.8672q0.5625 0 0.74219 0.125 0.35938 0.25781 0.35938 0.67969 0 0.35156-0.24219 0.57812-0.24219 0.21875-0.82031 0.21875h-2.1562q-0.57812 0-0.82812-0.21875-0.24219-0.22656-0.24219-0.58594 0-0.35156 0.24219-0.57031 0.25-0.22656 0.82812-0.22656h0.39062zm-0.66406-1.6016-1.2891-3.1719-1.2969 3.1719z"/>
   <path d="m73.141 74.567v4.8438h0.57812q0.57812 0 0.82031 0.22656 0.25 0.21875 0.25 0.57812 0 0.35156-0.25 0.57812-0.24219 0.21875-0.82031 0.21875h-2.1016q-0.57812 0-0.82812-0.21875-0.24219-0.22656-0.24219-0.58594 0-0.34375 0.24219-0.57031t0.75-0.22656v-6.2656h-0.25q-0.57812 0-0.82812-0.21875-0.24219-0.22656-0.24219-0.58594t0.24219-0.57812q0.25-0.22656 0.82812-0.22656l1.8516 0.0078 4.0938 6.4219v-4.8203h-0.57812q-0.57812 0-0.82812-0.21875-0.24219-0.22656-0.24219-0.58594t0.24219-0.57812q0.25-0.22656 0.82812-0.22656l2.1016 0.0078q0.57812 0 0.82031 0.21875 0.25 0.21875 0.25 0.57812 0 0.35156-0.24219 0.57812t-0.74219 0.22656v7.8672h-1.5859z"/>
   <path d="m83.078 77.638v1.7734h0.57812q0.57812 0 0.82031 0.22656 0.25 0.21875 0.25 0.57812 0 0.35156-0.25 0.57812-0.24219 0.21875-0.82031 0.21875h-2.4297q-0.57812 0-0.82812-0.21875-0.24219-0.22656-0.24219-0.58594 0-0.35156 0.25-0.57031 0.25-0.22656 0.82031-0.22656h0.25v-6.2656h-0.25q-0.57812 0-0.82812-0.21875-0.24219-0.22656-0.24219-0.58594t0.24219-0.57812q0.25-0.22656 0.82812-0.22656l2.4297 0.0078q0.57812 0 0.82031 0.21875 0.25 0.21875 0.25 0.57812t-0.25 0.58594q-0.24219 0.21875-0.82031 0.21875h-0.57812v2.375l2.8438-2.4453q-0.25-0.17969-0.34375-0.33594t-0.09375-0.38281q0-0.36719 0.24219-0.59375 0.25-0.22656 0.82812-0.22656l1.6328 0.0078q0.57812 0 0.82031 0.21875 0.25 0.21875 0.25 0.57812 0 0.35156-0.25 0.57812-0.24219 0.22656-0.76562 0.22656l-2.875 2.5156q0.80469 0.46094 1.5078 1.4062 0.71094 0.94531 1.2578 2.3438h0.42969q0.57031 0 0.8125 0.22656 0.25 0.21875 0.25 0.57812 0 0.35156-0.24219 0.57812-0.24219 0.21875-0.82031 0.21875h-1.4531q-0.5-1.1953-1.0938-2.2812-0.48438-0.88281-0.92188-1.2812-0.42969-0.40625-1.0312-0.64844z"/>
   <path d="m108.45 76.278q0 2.1328-1.3594 3.5547-1.3516 1.4141-3.1328 1.4141-1.6016 0-2.8906-1.1797-1.5938-1.4609-1.5938-3.7891t1.5938-3.7969q1.2891-1.1797 2.8906-1.1797 1.7812 0 3.1328 1.4219 1.3594 1.4141 1.3594 3.5547zm-1.6016 0q0-1.4609-0.88281-2.4141-0.88281-0.96094-2.0078-0.96094-1.1172 0-2 0.96094-0.88282 0.96094-0.88282 2.4141t0.88282 2.4141q0.88281 0.95312 2 0.95312 1.125 0 2.0078-0.95312t0.88281-2.4141z"/>
   <path d="m112.45 77.067v2.3438h1.6406q0.57813 0 0.82031 0.22656 0.25 0.21875 0.25 0.57812 0 0.35156-0.25 0.57812-0.24218 0.21875-0.82031 0.21875h-3.4922q-0.57812 0-0.82812-0.21875-0.24219-0.22656-0.24219-0.58594 0-0.35156 0.25-0.57031 0.25-0.22656 0.82031-0.22656h0.25v-6.2656h-0.25q-0.57812 0-0.82812-0.21875-0.24219-0.22656-0.24219-0.58594t0.24219-0.57812q0.25-0.22656 0.82812-0.22656l7.5391 0.0078v2.4453q0 0.57031-0.22657 0.82031-0.21875 0.24219-0.57812 0.24219-0.35156 0-0.57813-0.24219-0.21875-0.24219-0.21875-0.82031v-0.84375h-4.0859v2.3203h1.4062q0-0.625 0.11718-0.80469 0.24219-0.38281 0.6875-0.38281 0.35157 0 0.57032 0.25 0.22656 0.24219 0.22656 0.82031v1.8438q0 0.57812-0.22656 0.82812-0.21875 0.24219-0.57813 0.24219-0.4375 0-0.67969-0.38281-0.11718-0.17969-0.11718-0.8125z"/>
   <path d="m129.17 79.411v-6.2656q-0.50781-0.0078-0.75-0.22656-0.24218-0.22656-0.24218-0.57812 0-0.35938 0.24218-0.57812 0.25-0.22656 0.82813-0.22656l3.3516 0.0078q0.78125 0 1.5234 0.28906 0.75 0.28906 1.2031 0.73438 0.34375 0.33594 0.71094 0.92188 0.375 0.58594 0.5625 1.1641t0.1875 1.4141v0.76562q0 1.0156-0.34375 1.8047-0.34375 0.78125-0.90625 1.2812-0.55469 0.49219-1.0469 0.72656-0.78125 0.36719-2.0234 0.36719h-3.2188q-0.57813 0-0.82813-0.21875-0.24218-0.22656-0.24218-0.58594 0-0.35156 0.24218-0.57812 0.25-0.22656 0.75-0.21875zm1.6016 0h1.7031q0.95313 0 1.4375-0.27344 0.63281-0.35938 0.95313-0.91406 0.32031-0.55469 0.32031-1.4375v-0.75781q0-0.75781-0.28906-1.3281-0.45313-0.89062-1.0234-1.2188-0.5625-0.33594-1.4141-0.33594h-1.6875z"/>
   <path d="m146.85 76.278q0 2.1328-1.3594 3.5547-1.3516 1.4141-3.1328 1.4141-1.6016 0-2.8906-1.1797-1.5938-1.4609-1.5938-3.7891t1.5938-3.7969q1.2891-1.1797 2.8906-1.1797 1.7812 0 3.1328 1.4219 1.3594 1.4141 1.3594 3.5547zm-1.6016 0q0-1.4609-0.88281-2.4141-0.88282-0.96094-2.0078-0.96094-1.1172 0-2 0.96094-0.88281 0.96094-0.88281 2.4141t0.88281 2.4141q0.88282 0.95312 2 0.95312 1.125 0 2.0078-0.95312 0.88281-0.95312 0.88281-2.4141z"/>
   <path d="m149.45 74.638v4.7734h0.57813q0.57812 0 0.82031 0.22656 0.25 0.21875 0.25 0.57812 0 0.35156-0.25 0.57812-0.24219 0.21875-0.82031 0.21875h-2.1016q-0.57813 0-0.82032-0.21875-0.25-0.22656-0.25-0.58594 0-0.35156 0.24219-0.57031 0.24219-0.22656 0.75-0.22656v-6.2656q-0.42187-0.03906-0.64062-0.25781-0.21094-0.21875-0.21094-0.54688 0-0.35938 0.24219-0.57812 0.25-0.22656 0.82812-0.22656l1.7578 0.0078 2.1797 4.8203 2.1406-4.8281 1.7734 0.0078q0.57813 0 0.82032 0.21875 0.25 0.21875 0.25 0.57812 0 0.32812-0.21875 0.54688t-0.63282 0.25781v6.2656q0.50782 0 0.75 0.22656 0.24219 0.22656 0.24219 0.57812t-0.25 0.57812q-0.24219 0.21875-0.82031 0.21875h-2.1094q-0.57031 0-0.82031-0.21875-0.24219-0.22656-0.24219-0.58594 0-0.35156 0.24219-0.57031 0.25-0.22656 0.82031-0.22656h0.58594v-4.7734l-1.8359 4.125h-1.3906z"/>
   <path d="m162.36 73.145v6.2656h1.6172q0.57813 0 0.82031 0.22656 0.25 0.21875 0.25 0.57812 0 0.35156-0.25 0.57812-0.24218 0.21875-0.82031 0.21875h-4.8359q-0.57812 0-0.82812-0.21875-0.24219-0.22656-0.24219-0.58594 0-0.35156 0.24219-0.57031 0.25-0.22656 0.82812-0.22656h1.6172v-6.2656h-1.6172q-0.57812 0-0.82812-0.21875-0.24219-0.22656-0.24219-0.58594t0.24219-0.57812q0.25-0.22656 0.82812-0.22656l4.8359 0.0078q0.57813 0 0.82031 0.21875 0.25 0.21875 0.25 0.57812t-0.25 0.58594q-0.24218 0.21875-0.82031 0.21875z"/>
   <path d="m169.16 74.567v4.8438h0.57812q0.57813 0 0.82032 0.22656 0.25 0.21875 0.25 0.57812 0 0.35156-0.25 0.57812-0.24219 0.21875-0.82032 0.21875h-2.1016q-0.57812 0-0.82812-0.21875-0.24219-0.22656-0.24219-0.58594 0-0.34375 0.24219-0.57031 0.24218-0.22656 0.75-0.22656v-6.2656h-0.25q-0.57813 0-0.82813-0.21875-0.24219-0.22656-0.24219-0.58594t0.24219-0.57812q0.25-0.22656 0.82813-0.22656l1.8516 0.0078 4.0938 6.4219v-4.8203h-0.57813q-0.57812 0-0.82812-0.21875-0.24219-0.22656-0.24219-0.58594t0.24219-0.57812q0.25-0.22656 0.82812-0.22656l2.1016 0.0078q0.57812 0 0.82031 0.21875 0.25 0.21875 0.25 0.57812 0 0.35156-0.24219 0.57812t-0.74219 0.22656v7.8672h-1.5859z"/>
   <path d="m181.56 73.145v6.2656h1.6172q0.57812 0 0.82031 0.22656 0.25 0.21875 0.25 0.57812 0 0.35156-0.25 0.57812-0.24219 0.21875-0.82031 0.21875h-4.8359q-0.57813 0-0.82813-0.21875-0.24218-0.22656-0.24218-0.58594 0-0.35156 0.24218-0.57031 0.25-0.22656 0.82813-0.22656h1.6172v-6.2656h-1.6172q-0.57813 0-0.82813-0.21875-0.24218-0.22656-0.24218-0.58594t0.24218-0.57812q0.25-0.22656 0.82813-0.22656l4.8359 0.0078q0.57812 0 0.82031 0.21875 0.25 0.21875 0.25 0.57812t-0.25 0.58594q-0.24219 0.21875-0.82031 0.21875z"/>
   <path d="m194.86 76.278q0 2.1328-1.3594 3.5547-1.3516 1.4141-3.1328 1.4141-1.6016 0-2.8906-1.1797-1.5938-1.4609-1.5938-3.7891t1.5938-3.7969q1.2891-1.1797 2.8906-1.1797 1.7812 0 3.1328 1.4219 1.3594 1.4141 1.3594 3.5547zm-1.6016 0q0-1.4609-0.88281-2.4141-0.88281-0.96094-2.0078-0.96094-1.1172 0-2 0.96094-0.88282 0.96094-0.88282 2.4141t0.88282 2.4141q0.88281 0.95312 2 0.95312 1.125 0 2.0078-0.95312t0.88281-2.4141z"/>
   <path d="m197.96 74.567v4.8438h0.57812q0.57813 0 0.82031 0.22656 0.25 0.21875 0.25 0.57812 0 0.35156-0.25 0.57812-0.24218 0.21875-0.82031 0.21875h-2.1016q-0.57813 0-0.82813-0.21875-0.24218-0.22656-0.24218-0.58594 0-0.34375 0.24218-0.57031 0.24219-0.22656 0.75-0.22656v-6.2656h-0.25q-0.57812 0-0.82812-0.21875-0.24219-0.22656-0.24219-0.58594t0.24219-0.57812q0.25-0.22656 0.82812-0.22656l1.8516 0.0078 4.0938 6.4219v-4.8203h-0.57813q-0.57812 0-0.82812-0.21875-0.24219-0.22656-0.24219-0.58594t0.24219-0.57812q0.25-0.22656 0.82812-0.22656l2.1016 0.0078q0.57813 0 0.82032 0.21875 0.25 0.21875 0.25 0.57812 0 0.35156-0.24219 0.57812t-0.74219 0.22656v7.8672h-1.5859z"/>
  </g>
 </g>
 <g fill="none" stroke-linecap="square" stroke-linejoin="round">
  <g stroke="#1a1a1a">
   <g stroke-width=".37336">
    <path d="m70.594 160.26-0.76543 0.65159-0.39594-0.70129-2.2491 0.72364-0.44178-0.87528s-1.0222 0.47234-1.5541 0.52417c-0.52883 0.0524 3.2243 0.0352 3.2243 0.0352s-0.50235-0.66069-0.87451-0.60472c-0.37369 0.0552-4.2466 0.43723-4.2466 0.43723s-1.3429-0.83218-1.3463-0.74515c-2e-3 0.0859-1.3574 0.8963-1.3574 0.8963l2.2838-0.24745s1.3974-0.59296 1.0282-0.60231m-32.004 4.1036s2.3781-0.73081 2.676-0.44111c0.29797 0.28964 0.50426 0.36074 0.50426 0.36074s1.5324-0.73437 1.5761-0.60333c0.04384 0.13097 2.7153 0.53239 2.7153 0.53239s-1.9367 0.4847-2.1496 0.50057m29.204-5.4236 2.0256-0.22326 0.53142 0.75097 1.0467-0.59693m-33.655 3.5186s0.97336-0.29607 1.2878-0.26556c0.31614 0.0306 1.2943 0.42662 1.2943 0.42662l0.98039-0.40419s-1.7252-0.30973-2.117 3e-3c-0.39176 0.31314-0.47461 0.76503 0.48367 0.66277 0.95983-0.10226 1.9403-0.5064 1.9403-0.5064s0.37367-0.054 0.62577 0.12636c0.25221 0.1804 0.35289 0.24856 0.35289 0.24856m9.9871-2.3378s0.5615-0.4812 1.0336-0.42418c0.47368 0.0563 1.661 0.48004 1.661 0.48004s0.88647-0.57986 0.7398-0.75667c-0.14668-0.17747-1.8056 0.0992-2.3023 0.38707-0.4952 0.2885-0.37614 0.87541 0.70021 0.62579 1.0748-0.25027 2.8437-0.58805 3.1049-0.53689 0.26122 0.0505 1.7163 0.43834 1.7163 0.43834s1.2486-0.46118 1.4545-0.36831m-28.281 2.1154s2.7172-0.26785 2.9739-0.15211m28.511-3.129s0.87494-0.40711 1.3973-0.30545c0.52237 0.10115 2.4586 1.1952 2.5796 0.98249 0.11952-0.21269 0.51828-0.63399 0.72921-0.6275m-34.923 0.53359s1.0467-0.59687 1.3883-0.1762c0.3414 0.42069 1.3697 0.88252 2.0251 0.57766 0.6554-0.30552 1.1527-0.61574 1.1441-0.50765-0.0054 0.10757 0.80117 0.69338 0.80117 0.69338m2.1762-0.1546 0.78401-0.64809 0.3757 0.70338 2.2707-0.71324 0.41535 0.87725s1.0377-0.4677 1.5711-0.51698c0.53186-0.0494-3.2255-0.0502-3.2255-0.0502s0.48522 0.66279 0.85888 0.60873c0.37367-0.054 4.2616-0.41699 4.2616-0.41699s1.3195 0.8379 1.326 0.75154c0.0047-0.0865 1.3821-0.89013 1.3821-0.89013l-2.2913 0.23673s-1.4159 0.58631-1.0451 0.59691m-3.5345 2.2992 0.73608-0.65786 0.42701 0.69948 2.2139-0.74063 0.48061 0.87304s1.0007-0.47967 1.528-0.53593c0.5289-0.0557-3.2217-0.0119-3.2217-0.0119s0.53193 0.65759 0.90257 0.59911c0.3691-0.0584 4.2223-0.46765 4.2223-0.46765s1.3788 0.82298 1.3776 0.73712c-8.95e-4 -0.087 1.3158-0.90721 1.3158-0.90721l-2.2701 0.26398s-1.3697 0.60287-1.0004 0.60909m20.936-1.6787s-2.3414 0.74843-2.6532 0.4603c-0.31034-0.28746-0.51987-0.35675-0.51987-0.35675s-1.4969 0.74514-1.5469 0.61456c-0.0499-0.13113-2.7358-0.51417-2.7358-0.51417s1.9121-0.49833 2.1236-0.51547m-19.878 2.8899-2.0135 0.2366-0.56566-0.74676-1.0174 0.60442m19.034-2.6936s-0.95801 0.30262-1.274 0.27457c-0.31755-0.0289-1.3132-0.41771-1.3132-0.41771l-0.96038 0.41086s1.7379 0.29755 2.1158-0.0183c0.37628-0.31534 0.43896-0.76824-0.51324-0.65966-0.95532 0.10912-1.9157 0.52002-1.9157 0.52002s-0.37063 0.0565-0.63211-0.12166c-0.25996-0.17869-0.36398-0.24633-0.36398-0.24633m6.3581 1.4361s-0.53831 0.48544-1.0136 0.4321c-0.47372-0.0538-1.6814-0.46995-1.6814-0.46995s-0.85868 0.5867-0.70268 0.76252c0.15443 0.17701 1.7997-0.11118 2.281-0.40373 0.48285-0.29188 0.33588-0.87884-0.7267-0.62081-1.061 0.25743-2.8147 0.60859-3.0774 0.55932-0.26279-0.0491-1.7351-0.42695-1.7351-0.42695s-1.2255 0.47038-1.4362 0.37929m14.739 0.32367s-2.7021 0.28683-2.9634 0.17286m-14.236 1.0251s-0.85489 0.4138-1.3804 0.31576c-0.52552-0.0985-2.5117-1.1795-2.6219-0.96592-0.11027 0.21412-0.49043 0.63834-0.7014 0.63373m11.623 0.14923s-1.0174 0.60442-1.3776 0.18581c-0.36176-0.41866-1.4088-0.87345-2.0488-0.56324-0.6431 0.30952-1.1249 0.6238-1.1225 0.51558 0.0024-0.10835-0.83078-0.6884-0.83078-0.6884m16.738 0.68692-0.75463 0.65369-0.4068-0.70091-2.2354 0.72897-0.45733-0.87442s-1.0146 0.47565-1.545 0.52812c-0.52884 0.053 3.2244 0.027 3.2244 0.027s-0.51325-0.65905-0.88697-0.6025c-0.36907 0.0565-4.2375 0.4474-4.2375 0.4474s-1.3554-0.82936-1.3572-0.7429c-2e-3 0.087-1.342 0.90039-1.342 0.90039l2.2792-0.25255s1.3866-0.59695 1.0174-0.60503"/>
    <path d="m110.7 160.3-0.76543 0.65159-0.39594-0.70129-2.2491 0.72364-0.44178-0.87528s-1.0222 0.47234-1.5541 0.52417c-0.52883 0.0524 3.2243 0.0352 3.2243 0.0352s-0.50235-0.66069-0.87451-0.60472c-0.37369 0.0552-4.2466 0.43723-4.2466 0.43723s-1.3429-0.83218-1.3463-0.74515c-2e-3 0.0859-1.3574 0.8963-1.3574 0.8963l2.2838-0.24745s1.3974-0.59296 1.0282-0.60231m-32.004 4.1036s2.3781-0.73081 2.676-0.44111c0.29797 0.28964 0.50426 0.36074 0.50426 0.36074s1.5324-0.73437 1.5761-0.60333c0.04384 0.13097 2.7153 0.53239 2.7153 0.53239s-1.9367 0.4847-2.1496 0.50057m29.204-5.4236 2.0256-0.22326 0.53142 0.75097 1.0467-0.59693m-33.655 3.5186s0.97336-0.29607 1.2878-0.26556c0.31614 0.0306 1.2943 0.42662 1.2943 0.42662l0.98039-0.40419s-1.7252-0.30973-2.117 3e-3c-0.39176 0.31314-0.47461 0.76503 0.48367 0.66277 0.95983-0.10226 1.9403-0.5064 1.9403-0.5064s0.37367-0.054 0.62577 0.12636c0.25221 0.1804 0.35289 0.24856 0.35289 0.24856m9.9871-2.3378s0.5615-0.4812 1.0336-0.42418c0.47368 0.0563 1.661 0.48004 1.661 0.48004s0.88648-0.57986 0.7398-0.75667c-0.14668-0.17747-1.8056 0.0992-2.3023 0.38707-0.4952 0.2885-0.37614 0.87541 0.70021 0.62579 1.0748-0.25027 2.8437-0.58805 3.1049-0.53689 0.26122 0.0505 1.7163 0.43834 1.7163 0.43834s1.2486-0.46118 1.4545-0.36831m-28.281 2.1154s2.7172-0.26785 2.9739-0.15211m28.511-3.129s0.87494-0.40711 1.3973-0.30545c0.52237 0.10115 2.4586 1.1952 2.5796 0.98249 0.11952-0.21269 0.51828-0.63399 0.72921-0.6275m-34.923 0.53359s1.0467-0.59687 1.3883-0.1762c0.3414 0.42069 1.3697 0.88252 2.0251 0.57766 0.6554-0.30552 1.1527-0.61574 1.1441-0.50765-0.0054 0.10757 0.80117 0.69338 0.80117 0.69338m2.1762-0.1546 0.78401-0.64809 0.3757 0.70338 2.2707-0.71324 0.41535 0.87725s1.0377-0.4677 1.5711-0.51698c0.53186-0.0494-3.2255-0.0502-3.2255-0.0502s0.48522 0.66279 0.85888 0.60873c0.37367-0.054 4.2616-0.41699 4.2616-0.41699s1.3195 0.8379 1.326 0.75154c0.0047-0.0865 1.3821-0.89013 1.3821-0.89013l-2.2913 0.23673s-1.4159 0.58631-1.0451 0.59691m-3.5345 2.2992 0.73608-0.65786 0.42701 0.69948 2.2139-0.74063 0.48061 0.87304s1.0007-0.47967 1.528-0.53593c0.5289-0.0557-3.2217-0.0119-3.2217-0.0119s0.53193 0.65759 0.90257 0.59911c0.3691-0.0584 4.2223-0.46765 4.2223-0.46765s1.3788 0.82298 1.3776 0.73712c-8.95e-4 -0.087 1.3158-0.90721 1.3158-0.90721l-2.2701 0.26398s-1.3697 0.60287-1.0004 0.60909m20.936-1.6787s-2.3414 0.74843-2.6532 0.4603c-0.31034-0.28746-0.51987-0.35675-0.51987-0.35675s-1.4969 0.74514-1.5469 0.61456c-0.0499-0.13113-2.7358-0.51417-2.7358-0.51417s1.9121-0.49833 2.1236-0.51547m-19.878 2.8899-2.0135 0.2366-0.56566-0.74676-1.0174 0.60442m19.034-2.6936s-0.95801 0.30262-1.274 0.27457c-0.31755-0.0289-1.3132-0.41771-1.3132-0.41771l-0.96038 0.41086s1.7379 0.29755 2.1158-0.0183c0.37628-0.31534 0.43896-0.76824-0.51324-0.65966-0.95532 0.10912-1.9157 0.52002-1.9157 0.52002s-0.37062 0.0565-0.63211-0.12166c-0.25995-0.17869-0.36398-0.24633-0.36398-0.24633m6.3581 1.4361s-0.53831 0.48544-1.0136 0.4321c-0.47372-0.0538-1.6814-0.46995-1.6814-0.46995s-0.85868 0.5867-0.70268 0.76252c0.15443 0.17701 1.7997-0.11118 2.281-0.40373 0.48285-0.29188 0.33588-0.87884-0.7267-0.62081-1.061 0.25743-2.8147 0.60859-3.0774 0.55932-0.2628-0.0491-1.7351-0.42695-1.7351-0.42695s-1.2255 0.47038-1.4362 0.37929m14.739 0.32367s-2.7021 0.28683-2.9634 0.17286m-14.236 1.0251s-0.85489 0.4138-1.3804 0.31576c-0.52552-0.0985-2.5117-1.1795-2.6219-0.96592-0.11027 0.21412-0.49043 0.63834-0.7014 0.63373m11.623 0.14923s-1.0174 0.60442-1.3776 0.18581c-0.36175-0.41866-1.4088-0.87345-2.0488-0.56324-0.64309 0.30952-1.1249 0.6238-1.1225 0.51558 2e-3 -0.10835-0.83078-0.6884-0.83078-0.6884m16.738 0.68692-0.75463 0.65369-0.4068-0.70091-2.2354 0.72897-0.45733-0.87442s-1.0146 0.47565-1.545 0.52812c-0.52884 0.053 3.2244 0.027 3.2244 0.027s-0.51325-0.65905-0.88697-0.6025c-0.36907 0.0565-4.2375 0.4474-4.2375 0.4474s-1.3554-0.82936-1.3572-0.7429c-2e-3 0.087-1.342 0.90039-1.342 0.90039l2.2792-0.25255s1.3866-0.59695 1.0174-0.60503"/>
    <path d="m72.402 183.61s2.3016-0.81463 2.6269-0.53581c0.32531 0.27875 0.53799 0.34243 0.53799 0.34243s1.4576-0.78806 1.5138-0.65874c0.0564 0.12933 2.7603 0.43526 2.7603 0.43526s-1.8851 0.55308-2.0959 0.5765m-1.0369-1.9423s0.94235-0.33035 1.2589-0.31108c0.31833 0.0192 1.3326 0.38016 1.3326 0.38016l0.93889-0.43866s-1.7511-0.24804-2.1116 0.0787c-0.36049 0.32677-0.39936 0.7811 0.54672 0.64488 0.94763-0.13627 1.8865-0.57487 1.8865-0.57487s0.36753-0.0672 0.63651 0.1039c0.26908 0.17125 0.37613 0.23576 0.37613 0.23576m-10.198-0.0147s2.6848-0.36421 2.952-0.25771m9.0285 0.40469 0.67057-0.68337 0.49376 0.68355 2.1368-0.81857 0.56404 0.85506s0.95181-0.51475 1.4724-0.58975c0.52226-0.0743-3.2152 0.10259-3.2152 0.10259s0.59436 0.63798 0.95847 0.56641c0.36254-0.0716 4.1669-0.61728 4.1669-0.61728s1.4552 0.77312 1.4457 0.68736c-0.01-0.0869 1.2247-0.95297 1.2247-0.95297l-2.2391 0.34437s-1.308 0.65099-0.939 0.64403m-4.1751 1.0506-1.9857 0.30793-0.63666-0.72585-0.95639 0.63997m20.34-2.2443s-0.48999 0.5041-0.96931 0.46771c-0.47781-0.0371-1.7229-0.40967-1.7229-0.40967s-0.79978 0.61662-0.62713 0.78674c0.17119 0.17133 1.7845-0.17506 2.2364-0.48441 0.45342-0.30875 0.24991-0.88986-0.78511-0.59429-1.0335 0.29488-2.749 0.70805-3.0159 0.66811-0.26689-0.0399-1.7723-0.36476-1.7723-0.36476s-1.177 0.51352-1.396 0.42998m14.736-0.19876s-2.6678 0.38265-2.9396 0.27808m-15.449 1.8948c-0.53382-0.08-2.6199-1.089-2.7092-0.8717-0.0892 0.21784-0.42741 0.65511-0.63832 0.65801"/>
   </g>
   <path d="m224.45 136.25-0.59985 0.68005-0.39639-0.68836-1.8614 0.80512-0.45004-0.86108s-0.83407 0.50965-1.2842 0.58053c-0.44738 0.0713 2.7574-0.0799 2.7574-0.0799s-0.48398-0.64394-0.79725-0.57458c-0.31464 0.0687-3.5914 0.58941-3.5914 0.58941s-1.2163-0.7857-1.212-0.69837c6e-3 0.086-1.0853 0.94622-1.0853 0.94622l1.9304-0.32934s1.1445-0.64382 0.8284-0.64m-27 5.252s1.9709-0.8169 2.2494-0.5373c0.27858 0.27953 0.4607 0.34339 0.4607 0.34339s1.2482-0.79026 1.2963-0.66058c0.0483 0.12969 2.3637 0.43647 2.3637 0.43647s-1.6143 0.55462-1.7948 0.57811m-0.88792-1.9477s0.80696-0.33127 1.078-0.31195c0.2726 0.0192 1.1411 0.38122 1.1411 0.38122l0.80399-0.43988s-1.4995-0.24873-1.8082 0.0789c-0.30869 0.32768-0.34198 0.78327 0.46817 0.64667 0.81148-0.13665 1.6155-0.57647 1.6155-0.57647s0.31472-0.0674 0.54506 0.10419c0.23042 0.17173 0.32209 0.23642 0.32209 0.23642m8.3378-2.6981s0.43975-0.50206 0.84779-0.46178c0.40932 0.0394 1.4588 0.42168 1.4588 0.42168s0.70917-0.61251 0.56921-0.78444c-0.13999-0.17253-1.5342 0.16384-1.9348 0.46986-0.3991 0.30665-0.24867 0.89039 0.6501 0.60191 0.89741-0.28905 2.3806-0.69049 2.6079-0.64856 0.22735 0.0412 1.5025 0.37788 1.5025 0.37788s1.0284-0.5065 1.212-0.42082m-23.984 3.1275s2.2991-0.36523 2.5278-0.25843m-1.667-2.4895s0.84465-0.63527 1.1713-0.22605c0.32656 0.40926 1.2433 0.83522 1.7779 0.50647 0.53455-0.32944 0.93361-0.65796 0.93525-0.54934 3e-3 0.10797 0.74195 0.66597 0.74195 0.66597m1.8462-0.2325 0.61599-0.67714 0.37928 0.69116 1.8807-0.79548 0.42761 0.86393s0.84765-0.50549 1.2992-0.57389c0.45027-0.0684-2.7597 0.0648-2.7597 0.0648s0.46949 0.64668 0.78422 0.57916c0.31474-0.0675 3.6061-0.56968 3.6061-0.56968s1.1967 0.79226 1.1951 0.70554c-3e-3 -0.0868 1.1069-0.94101 1.1069-0.94101l-1.9377 0.31889s-1.1609 0.63781-0.84332 0.6352m-2.8287 2.4293 0.57422-0.68528 0.42282 0.68546 1.8298-0.82085 0.483 0.85744s0.81506-0.51619 1.2609-0.5914c0.44723-0.0745-2.7532 0.10288-2.7532 0.10288s0.50897 0.63976 0.82076 0.56799c0.31046-0.0718 3.5682-0.619 3.5682-0.619s1.2461 0.77527 1.238 0.68927c-9e-3 -0.0871 1.0488-0.95562 1.0488-0.95562l-1.9174 0.34533s-1.12 0.6528-0.80409 0.64582m17.746-2.4282s-1.938 0.83323-2.2283 0.55575c-0.28884-0.2769-0.47371-0.33886-0.47371-0.33886s-1.217 0.79979-1.2705 0.67083c-0.0535-0.12946-2.3797-0.41752-2.3797-0.41752s1.5922-0.56737 1.7714-0.59207m-16.741 3.6037-1.7004 0.30879-0.54519-0.72787-0.81898 0.64175m16.037-3.3771s-0.79329 0.33734-1.0656 0.32048c-0.27366-0.0174-1.1565-0.3716-1.1565-0.3716l-0.78633 0.44582s1.5093 0.23609 1.8059-0.0939c0.29529-0.32932 0.31124-0.78528-0.49318-0.64254-0.80705 0.14338-1.5934 0.58924-1.5934 0.58924s-0.3119 0.0698-0.55007-0.0991c-0.23687-0.16976-0.33138-0.23379-0.33138-0.23379m5.5508 1.2118s-0.41959 0.5055-0.83005 0.46901c-0.40916-0.0372-1.4754-0.41081-1.4754-0.41081s-0.68487 0.61834-0.53704 0.78893c0.14661 0.17181 1.5282-0.17555 1.9151-0.48576 0.38828-0.30961 0.21401-0.89234-0.6723-0.59595-0.88503 0.29571-2.354 0.71003-2.5826 0.66998-0.22855-0.04-1.5177-0.36578-1.5177-0.36578s-1.0079 0.51495-1.1954 0.43118m12.619-0.19932s-2.2845 0.38372-2.5173 0.27886m-12.076 1.5345s-0.69599 0.44499-1.1531 0.36557c-0.45712-0.0802-2.2435-1.092-2.3199-0.87413-0.0764 0.21845-0.366 0.65694-0.54661 0.65984m9.9415-0.265s-0.81898 0.64169-1.1614 0.23524c-0.34379-0.40646-1.2759-0.82473-1.797-0.49113-0.5237 0.33298-0.9092 0.66499-0.91617 0.5565-7e-3 -0.10856-0.76681-0.65996-0.76681-0.65996m14.355 0.0911-0.5904 0.68176-0.40568-0.68764-1.8491 0.80992-0.46322-0.85962s-0.82724 0.51261-1.276 0.58412c-0.44736 0.072 2.7569-0.0878 2.7569-0.0878s-0.49315-0.64189-0.80769-0.57193c-0.31055 0.07-3.5828 0.59928-3.5828 0.59928s-1.2267-0.78242-1.2211-0.69577c5e-3 0.0872-1.0718 0.94975-1.0718 0.94975l1.9262-0.3343s1.135-0.6474 0.81893-0.64231" stroke-width=".34598"/>
  </g>
  <path d="m217.16 132.69-0.86451 1.0639-0.49526-1.098-2.5947 1.2376-0.55657-1.3711s-1.174 0.78985-1.7909 0.89236c-0.61865 0.10349 3.7698-0.0708 3.7698-0.0708s-0.6193-1.0288-1.0527-0.92524c-0.43164 0.10226-4.9422 0.8608-4.9422 0.8608s-1.6087-1.2683-1.6086-1.1311c7e-5 0.13708-1.5442 1.4771-1.5442 1.4771l2.6563-0.48273s1.6074-0.99652 1.1757-0.99618m15.906 1.0295s-1.1113 0.5155-1.4818 0.48177c-0.37229-0.0349-1.5454-0.61656-1.5454-0.61656l-1.1129 0.68664s2.0398 0.40984 2.4713-0.10495c0.43315-0.51496 0.4939-1.2359-0.61755-1.0287-1.1132 0.20718-2.2243 0.89385-2.2243 0.89385s-0.43338 0.10334-0.74114-0.17054c-0.30952-0.27408-0.43367-0.37715-0.43367-0.37715m-15.653-0.21802-0.86452 1.0639-0.49524-1.098-2.5947 1.2376-0.55658-1.3711s-1.174 0.78985-1.791 0.8923c-0.61863 0.1036 3.7699-0.0708 3.7699-0.0708s-0.61931-1.0288-1.0527-0.92525c-0.43163 0.10226-4.9422 0.86081-4.9422 0.86081-1.7478-1.5008-1.618-1.0198-3.1528 0.34594l2.6563-0.48271" stroke="#c83737" stroke-width=".50956"/>
  <path d="m192.4 145.88s1.9709-0.8169 2.2495-0.53731c0.27857 0.27953 0.46069 0.34339 0.46069 0.34339s1.2482-0.79026 1.2963-0.66058c0.0483 0.12969 2.3637 0.43647 2.3637 0.43647s-1.6143 0.55463-1.7948 0.57811m-0.88792-1.9477s0.80696-0.33127 1.0781-0.31195c0.27259 0.0192 1.1411 0.38122 1.1411 0.38122l0.804-0.43988s-1.4995-0.24873-1.8082 0.0789c-0.3087 0.32768-0.34199 0.78327 0.46817 0.64667 0.81148-0.13665 1.6155-0.57647 1.6155-0.57647s0.31473-0.0674 0.54506 0.10419c0.23042 0.17173 0.32209 0.23642 0.32209 0.23642m-8.7329-0.0147s2.2991-0.36523 2.5279-0.25843m7.7313 0.40582 0.57423-0.68528 0.42282 0.68546 1.8298-0.82085 0.483 0.85744s0.81506-0.51618 1.2609-0.59139c0.44722-0.0745-2.7532 0.10287-2.7532 0.10287s0.50896 0.63976 0.82076 0.56799c0.31045-0.0718 3.5682-0.619 3.5682-0.619s1.2461 0.77528 1.238 0.68928c-9e-3 -0.0871 1.0488-0.95563 1.0488-0.95563l-1.9174 0.34533s-1.12 0.6528-0.80409 0.64582m-3.5752 1.0536-1.7004 0.30879-0.54519-0.72787-0.81898 0.64175m17.417-2.2506s-0.41959 0.5055-0.83004 0.46901c-0.40916-0.0372-1.4754-0.41081-1.4754-0.41081s-0.68487 0.61834-0.53703 0.78893c0.1466 0.17181 1.5282-0.17555 1.9151-0.48576 0.38827-0.30961 0.214-0.89234-0.67231-0.59594-0.88502 0.2957-2.354 0.71002-2.5826 0.66997-0.22854-0.04-1.5177-0.36578-1.5177-0.36578s-1.0079 0.51495-1.1954 0.43118m12.619-0.19932s-2.2845 0.38372-2.5173 0.27886m-13.229 1.9001c-0.45713-0.0802-2.2435-1.092-2.3199-0.87413-0.0764 0.21845-0.36601 0.65694-0.54661 0.65984" stroke="#1a1a1a" stroke-width=".34598"/>
 </g>
 <g stroke="#000">
  <path d="m40.008 106.44h175.98" stroke-width="2"/>
  <path d="m104.7 123.39h106.94" stroke-dasharray="2.99999, 1"/>
  <path d="m74.144 138.98h42.778" stroke-dasharray="3.00001, 1"/>
  <g stroke-width="0" aria-label="Lilin Lineage">
   <path d="m41.451 117.96v3.1328h1.7266v-0.75781q0-0.28907 0.10938-0.41016 0.11328-0.125 0.29297-0.125 0.17578 0 0.28516 0.125 0.11328 0.12109 0.11328 0.41016v1.5586h-3.793q-0.28906 0-0.41406-0.10937-0.12109-0.11329-0.12109-0.29297 0-0.17578 0.12109-0.28516 0.125-0.11328 0.41406-0.11328h0.46484v-3.1328h-0.46484q-0.28906 0-0.41406-0.10938-0.12109-0.11328-0.12109-0.29297 0-0.17968 0.12109-0.28906 0.125-0.11328 0.41406-0.11328l1.7344 4e-3q0.28906 0 0.41016 0.10937 0.125 0.10938 0.125 0.28906 0 0.17969-0.125 0.29297-0.12109 0.10938-0.41016 0.10938z"/>
   <path d="m46.873 116.83v0.84766h-0.95312v-0.84766zm0.10938 1.5195v2.7461h0.96094q0.28906 0 0.41016 0.11328 0.125 0.10938 0.125 0.28906 0 0.17578-0.125 0.28907-0.12109 0.10937-0.41016 0.10937h-2.7227q-0.28906 0-0.41406-0.10937-0.12109-0.11329-0.12109-0.29297 0-0.17578 0.12109-0.28516 0.125-0.11328 0.41406-0.11328h0.96094v-1.9453h-0.64453q-0.28516 0-0.41016-0.10938-0.125-0.11328-0.125-0.29297 0-0.17578 0.12109-0.28515 0.125-0.11328 0.41406-0.11328z"/>
   <path d="m51.787 116.83v4.2656h0.96094q0.28906 0 0.41016 0.11328 0.125 0.10938 0.125 0.28906 0 0.17578-0.125 0.28907-0.12109 0.10937-0.41016 0.10937h-2.7227q-0.28906 0-0.41406-0.10937-0.12109-0.11329-0.12109-0.29297 0-0.17578 0.12109-0.28516 0.125-0.11328 0.41406-0.11328h0.96094v-3.4648h-0.64453q-0.28516 0-0.41016-0.10938-0.125-0.11328-0.125-0.29297 0-0.17578 0.12109-0.28515 0.125-0.11329 0.41406-0.11329z"/>
   <path d="m56.474 116.83v0.84766h-0.95312v-0.84766zm0.10938 1.5195v2.7461h0.96094q0.28906 0 0.41016 0.11328 0.125 0.10938 0.125 0.28906 0 0.17578-0.125 0.28907-0.12109 0.10937-0.41016 0.10937h-2.7227q-0.28906 0-0.41406-0.10937-0.12109-0.11329-0.12109-0.29297 0-0.17578 0.12109-0.28516 0.125-0.11328 0.41406-0.11328h0.96094v-1.9453h-0.64453q-0.28516 0-0.41016-0.10938-0.125-0.11328-0.125-0.29297 0-0.17578 0.12109-0.28515 0.125-0.11328 0.41406-0.11328z"/>
   <path d="m60.178 118.35v0.26953q0.21875-0.1875 0.48047-0.28125 0.26562-0.0937 0.57422-0.0937 0.71094 0 1.125 0.4414 0.32812 0.35157 0.32812 0.92188v1.4883q0.25391 0 0.375 0.11328 0.12109 0.10938 0.12109 0.28906 0 0.17578-0.125 0.28907-0.12109 0.10937-0.41016 0.10937h-0.72266q-0.28906 0-0.41406-0.10937-0.12109-0.11329-0.12109-0.29297 0-0.17578 0.12109-0.28516 0.12109-0.11328 0.375-0.11328v-1.5117q0-0.26172-0.14062-0.38281-0.18359-0.15625-0.55078-0.15625-0.27734 0-0.48828 0.10937-0.20703 0.10547-0.52734 0.45313v1.4883q0.30859 0 0.39844 0.0586 0.19141 0.11719 0.19141 0.34375 0 0.17578-0.125 0.28907-0.12109 0.10937-0.41016 0.10937h-0.91016q-0.28906 0-0.41406-0.10937-0.12109-0.11329-0.12109-0.29297 0-0.21875 0.1875-0.33985 0.09375-0.0586 0.40234-0.0586v-1.9453q-0.25391 0-0.375-0.11328-0.12109-0.11329-0.12109-0.28907t0.12109-0.28515q0.125-0.11328 0.41406-0.11328z"/>
   <path d="m70.256 117.96v3.1328h1.7266v-0.75781q0-0.28907 0.10938-0.41016 0.11328-0.125 0.29297-0.125 0.17578 0 0.28516 0.125 0.11328 0.12109 0.11328 0.41016v1.5586h-3.793q-0.28906 0-0.41406-0.10937-0.12109-0.11329-0.12109-0.29297 0-0.17578 0.12109-0.28516 0.125-0.11328 0.41406-0.11328h0.46484v-3.1328h-0.46484q-0.28906 0-0.41406-0.10938-0.12109-0.11328-0.12109-0.29297 0-0.17968 0.12109-0.28906 0.125-0.11328 0.41406-0.11328l1.7344 4e-3q0.28906 0 0.41016 0.10937 0.125 0.10938 0.125 0.28906 0 0.17969-0.125 0.29297-0.12109 0.10938-0.41016 0.10938z"/>
   <path d="m75.678 116.83v0.84766h-0.95312v-0.84766zm0.10938 1.5195v2.7461h0.96094q0.28906 0 0.41016 0.11328 0.125 0.10938 0.125 0.28906 0 0.17578-0.125 0.28907-0.12109 0.10937-0.41016 0.10937h-2.7227q-0.28906 0-0.41406-0.10937-0.12109-0.11329-0.12109-0.29297 0-0.17578 0.12109-0.28516 0.125-0.11328 0.41406-0.11328h0.96094v-1.9453h-0.64453q-0.28516 0-0.41016-0.10938-0.125-0.11328-0.125-0.29297 0-0.17578 0.12109-0.28515 0.125-0.11328 0.41406-0.11328z"/>
   <path d="m79.381 118.35v0.26953q0.21875-0.1875 0.48047-0.28125 0.26562-0.0937 0.57422-0.0937 0.71094 0 1.125 0.4414 0.32812 0.35157 0.32812 0.92188v1.4883q0.25391 0 0.375 0.11328 0.12109 0.10938 0.12109 0.28906 0 0.17578-0.125 0.28907-0.12109 0.10937-0.41016 0.10937h-0.72266q-0.28906 0-0.41406-0.10937-0.12109-0.11329-0.12109-0.29297 0-0.17578 0.12109-0.28516 0.12109-0.11328 0.375-0.11328v-1.5117q0-0.26172-0.14062-0.38281-0.18359-0.15625-0.55078-0.15625-0.27734 0-0.48828 0.10937-0.20703 0.10547-0.52734 0.45313v1.4883q0.30859 0 0.39844 0.0586 0.19141 0.11719 0.19141 0.34375 0 0.17578-0.125 0.28907-0.12109 0.10937-0.41016 0.10937h-0.91016q-0.28906 0-0.41406-0.10937-0.12109-0.11329-0.12109-0.29297 0-0.21875 0.1875-0.33985 0.09375-0.0586 0.40234-0.0586v-1.9453q-0.25391 0-0.375-0.11328-0.12109-0.11329-0.12109-0.28907t0.12109-0.28515q0.125-0.11328 0.41406-0.11328z"/>
   <path d="m87.002 120.53h-3.2852q0.125 0.3125 0.44141 0.50391 0.32031 0.19141 0.86328 0.19141 0.44531 0 1.1836-0.19141 0.30469-0.0781 0.42188-0.0781 0.16016 0 0.26953 0.11329 0.10938 0.11328 0.10938 0.28515 0 0.15625-0.11719 0.26563-0.15625 0.14453-0.76172 0.27734-0.60547 0.12891-1.1641 0.12891-0.96094 0-1.5391-0.54297-0.57422-0.54297-0.57422-1.3359 0-0.84375 0.62109-1.3711 0.625-0.53125 1.4375-0.53125 0.48828 0 0.89453 0.17187 0.41016 0.17188 0.60938 0.3711 0.28125 0.28906 0.46484 0.71484 0.125 0.29687 0.125 0.6875zm-0.88672-0.80078q-0.18359-0.34375-0.48047-0.51172-0.29688-0.17187-0.70703-0.17187-0.40625 0-0.70312 0.17187-0.29688 0.16797-0.48438 0.51172z"/>
   <path d="m90.514 121.89v-0.1875q-0.30078 0.16016-0.66406 0.23828-0.36328 0.082-0.66016 0.082-0.64453 0-1.0469-0.33984-0.40234-0.34375-0.40234-0.75781 0-0.50391 0.51172-0.9336 0.51562-0.43359 1.4219-0.43359 0.36328 0 0.83984 0.0781v-0.1914q0-0.17969-0.15625-0.29297-0.15234-0.11328-0.58594-0.11328-0.35547 0-0.92188 0.14062-0.21094 0.0508-0.32812 0.0508-0.16016 0-0.27344-0.11328-0.10938-0.11718-0.10938-0.29687 0-0.10156 0.03906-0.17578 0.03906-0.0742 0.10938-0.11719 0.07031-0.0469 0.29297-0.10938 0.29688-0.082 0.60547-0.1289 0.30859-0.0508 0.55859-0.0508 0.74609 0 1.1562 0.32422 0.41406 0.32031 0.41406 0.8789v1.6484h0.13672q0.28906 0 0.41016 0.11328 0.125 0.10938 0.125 0.28906 0 0.17578-0.125 0.28907-0.12109 0.10937-0.41016 0.10937zm0-1.4336q-0.48047-0.0937-0.88672-0.0937-0.48828 0-0.83984 0.23828-0.21875 0.15234-0.21875 0.30859 0 0.11328 0.10547 0.1836 0.19531 0.1289 0.53516 0.1289 0.28906 0 0.65234-0.11328 0.36719-0.11328 0.65234-0.30859z"/>
   <path d="m95.474 118.58v-0.23828h0.9375q0.28906 0 0.41016 0.11328 0.125 0.10937 0.125 0.28906 0 0.17578-0.125 0.28906-0.12109 0.10938-0.41016 0.10938h-0.13672v2.9141q0 0.42187-0.17969 0.73437-0.17578 0.31641-0.54297 0.54297-0.36719 0.22657-0.82812 0.22657h-0.90625q-0.28906 0-0.41406-0.11329-0.12109-0.10937-0.12109-0.28515 0-0.17969 0.12109-0.29297 0.125-0.10938 0.41406-0.10938h0.88281q0.36719 0 0.57031-0.19921 0.20312-0.19922 0.20312-0.50391v-0.39063q-0.26562 0.17188-0.54297 0.25782-0.27344 0.0859-0.5625 0.0859-0.81641 0-1.3672-0.54296-0.55078-0.54688-0.55078-1.3477 0-0.80469 0.55078-1.3477 0.55078-0.54687 1.3672-0.54687 0.30469 0 0.57812 0.0898 0.27734 0.0859 0.52734 0.26563zm-0.0039 1.5352q0-0.4414-0.32812-0.76562-0.32422-0.32422-0.78125-0.32422t-0.78516 0.32422q-0.32422 0.32422-0.32422 0.76562 0 0.44532 0.32422 0.76953 0.32812 0.32032 0.78516 0.32032 0.45703 0 0.78125-0.32032 0.32812-0.32421 0.32812-0.76953z"/>
   <path d="m101.4 120.53h-3.2852q0.125 0.3125 0.44141 0.50391 0.32031 0.19141 0.86328 0.19141 0.44531 0 1.1836-0.19141 0.30469-0.0781 0.42187-0.0781 0.16016 0 0.26954 0.11329 0.10937 0.11328 0.10937 0.28515 0 0.15625-0.11719 0.26563-0.15625 0.14453-0.76172 0.27734-0.60546 0.12891-1.1641 0.12891-0.96094 0-1.5391-0.54297-0.57422-0.54297-0.57422-1.3359 0-0.84375 0.62109-1.3711 0.625-0.53125 1.4375-0.53125 0.48828 0 0.89454 0.17187 0.41015 0.17188 0.60937 0.3711 0.28125 0.28906 0.46484 0.71484 0.125 0.29687 0.125 0.6875zm-0.88671-0.80078q-0.1836-0.34375-0.48047-0.51172-0.29688-0.17187-0.70703-0.17187-0.40625 0-0.70312 0.17187-0.29688 0.16797-0.48438 0.51172z"/>
  </g>
 </g>
 <path d="m111.87 110.03c-0.37281 5.0039-0.53864 8.5971-0.44065 11.016 0.18659 2.419 4.5716 0.25787 7.0504 0.17626 3.7175-1.0242 1.9557-3.4182 2.2914-5.2878-0.66767 2.6777-1.3452 5.362 2.1151 5.2878 3.6534-1.8801 2.4908-3.7602 2.6439-5.6403 0.12169 5.3151 2.7383 10.403-3.7015 17.979-4.45 5.235-9.8402 2.4373-3.3489-4.054 5.3466-5.3466 9.5694-13.958 16.304-13.748 2.0275 0.0632-4.5987-1.4021-5.9047 2.2033-1.2006 3.3143 2.4879 1.6384 6.3454 1.322 0.60731 3.5867-2.0823 4.1632-6.8742 2.8202 11.251 0.95365 4.8902-6.2211 14.63-7.0504-5.2517 0.27816-6.2812 1.5238-4.759 3.4371l4.054-0.0881c1.7027 6.3585-3.6484 3.018-7.2267 2.1151-1.1965-1.1751 5.8781 4.9099 10.399-3.5252-2.9862 3.7628-1.757 4.302-0.8813 5.1115 2.2134 0.26398 9.5702-4.0992 10.047-5.1115-1.4409-3.4734-5.6259-1.1021-5.5522 0.52878 0.127 3.2384 1.5479 4.7515 4.4946 4.2302 5.0111-2.1138 4.6078-7.3215 6.6979-11.104-2.108 5.7559-3.3872 10.424-1.7626 11.281 4.5772 1.5362 4.7814-6.866 7.0504-10.576l-0.96943 11.104c0.57847-1.847 0.0149-5.5129 1.8507-6.5216 3.697 0.17949 3.0418 3.4676 3.7015 5.8166 2.9055 6.484 22.975-8.3679-21.327-8.3902-0.91254-4.5e-4 -5.5538 0.53416-2.3796 1.6923" fill="none" stroke="#c25fd3"/>
 <rect x="121.95" y="127.15" width="59.095" height="59.088" ry="2.1452" fill="none" stroke="#000" stroke-dasharray="0.90525, 0.90525" stroke-width=".90525"/>
 <text x="151.24417" y="150.87881" fill="#d3d7dd" font-family="monospace" font-size="16px" font-weight="bold" stroke="#000000" stroke-width="0" text-anchor="middle" xml:space="preserve"><tspan x="151.24417" y="150.87881" text-align="center">STAMP</tspan><tspan x="151.24417" y="170.87881" text-align="center">HERE</tspan></text>
 <g fill="none" stroke-width="3">
  <g transform="rotate(10.596 151.39 59.276)" stroke="#b692ea">
   <path d="m163.27 139-7.4291 20.949 17.935-13.155-21.436-0.10855 18.2 13.75z" fill-rule="evenodd"/>
   <circle cx="163.08" cy="149.5" r="20"/>
  </g>
  <g transform="matrix(.80447 -.094499 .094499 .80447 16.44 54.956)" stroke="#a071e3">
   <path d="m163.27 139-7.4291 20.949 17.935-13.155-21.436-0.10855 18.2 13.75z" fill-rule="evenodd"/>
   <circle cx="163.08" cy="149.5" r="20"/>
  </g>
  <g transform="matrix(.69379 .41804 -.41804 .69379 92.099 -5.6826)" stroke="#7732d7">
   <path d="m163.27 139-7.4291 20.949 17.935-13.155-21.436-0.10855 18.2 13.75z" fill-rule="evenodd"/>
   <circle cx="163.08" cy="149.5" r="20"/>
  </g>
 </g>
 <g stroke="#000" stroke-width="0" aria-label="Expiry:">
  <path d="m41.707 135.33v1.1758h2.043v-0.4336q0-0.28906 0.10938-0.41015 0.11328-0.125 0.29297-0.125 0.17578 0 0.28516 0.125 0.11328 0.12109 0.11328 0.41015v1.2344h-3.7695q-0.28906 0-0.41406-0.10938-0.12109-0.11328-0.12109-0.29297 0-0.17578 0.125-0.28515 0.125-0.11328 0.41016-0.11328h0.125v-3.1328h-0.125q-0.28906 0-0.41406-0.10937-0.12109-0.11328-0.12109-0.29297t0.12109-0.28906q0.125-0.11328 0.41406-0.11328l3.5938 4e-3v1.2188q0 0.28516-0.10938 0.41016-0.10938 0.12109-0.28906 0.12109-0.17969 0-0.29297-0.12109-0.10938-0.12109-0.10938-0.41016v-0.41797h-1.8672v1.1562h0.70312q0-0.3125 0.05859-0.40234 0.12109-0.19141 0.34375-0.19141 0.17578 0 0.28516 0.125 0.11328 0.1211 0.11328 0.41016v0.92188q0 0.26171-0.0625 0.35156-0.125 0.18359-0.33594 0.18359-0.22266 0-0.34375-0.1914-0.05859-0.0898-0.05859-0.40625z"/>
  <path d="m47.93 135.46 1.2148 1.043q0.21875 0.0117 0.32812 0.125 0.10938 0.10937 0.10938 0.27734 0 0.17578-0.125 0.28906-0.12109 0.10938-0.41016 0.10938h-0.91016q-0.28906 0-0.41406-0.10938-0.12109-0.11328-0.12109-0.29687 0-0.14063 0.08594-0.2461 0.08984-0.10937 0.24219-0.14843l-0.59766-0.51563-0.60938 0.51563q0.18359 0.0469 0.26172 0.14453 0.08203 0.0976 0.08203 0.25 0 0.18359-0.12109 0.29687-0.12109 0.10938-0.41016 0.10938h-0.90234q-0.28906 0-0.41406-0.10938-0.12109-0.11328-0.12109-0.29297 0-0.16406 0.10938-0.27343 0.10938-0.11328 0.32812-0.125l1.1875-1.0469-1.0508-0.89844q-0.20703-0.0156-0.31641-0.125-0.10547-0.11328-0.10547-0.27734 0-0.17578 0.12109-0.28516 0.125-0.11328 0.41406-0.11328h0.75q0.28906 0 0.41016 0.11328 0.125 0.10938 0.125 0.28125 0 0.23047-0.21875 0.375l0.48438 0.40235 0.47656-0.41016q-0.21484-0.15234-0.21484-0.35156 0-0.1875 0.12109-0.29688 0.125-0.11328 0.41406-0.11328h0.74219q0.28906 0 0.41016 0.11328 0.125 0.10938 0.125 0.28907 0 0.16015-0.10938 0.27343-0.10547 0.10938-0.31641 0.125z"/>
  <path d="m51.137 136.87v1.3125h0.48047q0.28906 0 0.41016 0.10938 0.125 0.11328 0.125 0.29297 0 0.17578-0.125 0.28515-0.12109 0.11328-0.41016 0.11328h-1.418q-0.28906 0-0.41406-0.11328-0.12109-0.10937-0.12109-0.28515 0-0.17969 0.125-0.29297 0.125-0.10938 0.41016-0.10938h0.13672v-3.6172h-0.13672q-0.28906 0-0.41406-0.10937-0.12109-0.11328-0.12109-0.29297 0-0.17578 0.12109-0.28516 0.125-0.11328 0.41406-0.11328h0.9375v0.27344q0.28125-0.19141 0.58203-0.28516 0.30078-0.0937 0.61719-0.0937 0.82031 0 1.3984 0.5586 0.57812 0.55469 0.57812 1.2734 0 0.79296-0.68359 1.3086-0.57031 0.42969-1.2852 0.42969-0.30859 0-0.60938-0.0899-0.30078-0.0898-0.59766-0.26953zm2.375-1.375q0-0.16797-0.13281-0.42578-0.13281-0.26172-0.41016-0.43359-0.27344-0.17578-0.64453-0.17578-0.59766 0-0.94922 0.44921-0.23828 0.3086-0.23828 0.59375 0 0.32032 0.33984 0.625 0.34375 0.30079 0.84766 0.30079 0.50781 0 0.84766-0.30079 0.33984-0.30078 0.33984-0.63281z"/>
  <path d="m57.219 132.24v0.84766h-0.95312v-0.84766zm0.10938 1.5195v2.7461h0.96094q0.28906 0 0.41016 0.11328 0.125 0.10937 0.125 0.28906 0 0.17578-0.125 0.28906-0.12109 0.10938-0.41016 0.10938h-2.7227q-0.28906 0-0.41406-0.10938-0.12109-0.11328-0.12109-0.29297 0-0.17578 0.12109-0.28515 0.125-0.11328 0.41406-0.11328h0.96094v-1.9453h-0.64453q-0.28516 0-0.41016-0.10937-0.125-0.11328-0.125-0.29297 0-0.17578 0.12109-0.28516 0.125-0.11328 0.41406-0.11328z"/>
  <path d="m61.567 133.76v0.5q0.50391-0.36328 0.79297-0.48437 0.29297-0.1211 0.54688-0.1211 0.39062 0 0.75781 0.28907 0.25 0.19531 0.25 0.39843 0 0.17188-0.12109 0.29297-0.11719 0.11719-0.28516 0.11719-0.14844 0-0.3125-0.14844-0.16406-0.14843-0.29297-0.14843-0.16797 0-0.50391 0.21093-0.33203 0.21094-0.83203 0.63282v1.207h1.1406q0.28906 0 0.41016 0.11328 0.125 0.10937 0.125 0.28906 0 0.17578-0.125 0.28906-0.12109 0.10938-0.41016 0.10938h-2.418q-0.28906 0-0.41406-0.10938-0.12109-0.11328-0.12109-0.29297 0-0.17578 0.12109-0.28515 0.125-0.11328 0.41406-0.11328h0.47656v-1.9453h-0.28906q-0.28906 0-0.41406-0.10937-0.12109-0.11328-0.12109-0.29297 0-0.17578 0.12109-0.28516 0.125-0.11328 0.41406-0.11328z"/>
  <path d="m66.086 137.28-1.3867-2.7188q-0.19531-0.0234-0.29688-0.13281-0.10156-0.10937-0.10156-0.26562 0-0.17969 0.12109-0.28907 0.125-0.11328 0.41406-0.11328h0.73047q0.28906 0 0.41016 0.11328 0.125 0.10938 0.125 0.28907 0 0.17578-0.125 0.28906-0.12109 0.10937-0.38672 0.10937l0.94531 1.8398 0.9375-1.8398q-0.25781 0-0.38281-0.10937-0.12109-0.11328-0.12109-0.29297 0-0.17578 0.12109-0.28516 0.125-0.11328 0.41406-0.11328h0.75391q0.28516 0 0.40625 0.11328 0.125 0.10938 0.125 0.28907 0 0.16015-0.10547 0.27343-0.10547 0.10938-0.3125 0.125l-1.8359 3.6172q0.30078 0 0.39453 0.0586 0.1875 0.12109 0.1875 0.34375 0 0.17578-0.125 0.28515-0.12109 0.11328-0.41016 0.11328h-1.7461q-0.28906 0-0.41406-0.11328-0.12109-0.10937-0.12109-0.28515 0-0.17969 0.12109-0.29297 0.125-0.10938 0.41406-0.10938h0.79688z"/>
  <path d="m71.938 134.3q0 0.22656-0.16016 0.37891-0.16016 0.15234-0.44141 0.15234t-0.44141-0.15234q-0.16016-0.15235-0.16016-0.37891t0.16016-0.37891q0.16016-0.15234 0.44141-0.15234t0.44141 0.15234q0.16016 0.15235 0.16016 0.37891zm0.0078 2.6211q0 0.22657-0.16016 0.37891t-0.44141 0.15234-0.44141-0.15234q-0.16016-0.15234-0.16016-0.37891 0-0.22656 0.16016-0.3789 0.16016-0.15235 0.44141-0.15235t0.44141 0.15235q0.16016 0.15234 0.16016 0.3789z"/>
  <path d="m104.06 118.9q0 0.22656-0.16016 0.37891-0.16016 0.15234-0.44141 0.15234t-0.44141-0.15234q-0.16016-0.15235-0.16016-0.37891t0.16016-0.37891q0.16016-0.15234 0.44141-0.15234t0.44141 0.15234q0.16016 0.15235 0.16016 0.37891zm8e-3 2.6211q0 0.22657-0.16016 0.37891t-0.44141 0.15234-0.44141-0.15234-0.16016-0.37891q0-0.22656 0.16016-0.3789 0.16016-0.15235 0.44141-0.15235t0.44141 0.15235q0.16016 0.15234 0.16016 0.3789z"/>
 </g>
 <path d="m78.436 139.77c17.28-4.2465 29.889-6.9784 35.428-7.9317" fill="none" stroke="#c25fd3"/>
</svg>
