<?xml version="1.0" encoding="UTF-8"?>
<svg version="1.1" viewBox="0 0 256 256" xmlns="http://www.w3.org/2000/svg" xmlns:xlink="http://www.w3.org/1999/xlink">
 <defs>
  <linearGradient id="linearGradient4625">
   <stop stop-color="#ff8080" offset="0"/>
   <stop stop-color="#ff8080" offset=".78849"/>
   <stop stop-color="#f55" offset="1"/>
  </linearGradient>
  <radialGradient id="radialGradient4693" cx="106.45" cy="113.26" r="35.406" gradientTransform="matrix(1 0 0 .98966 0 1.1715)" gradientUnits="userSpaceOnUse" xlink:href="#linearGradient4625"/>
  <linearGradient id="linearGradient8829" x1="300.04" x2="300.45" y1="167.13" y2="100.57" gradientUnits="userSpaceOnUse">
   <stop stop-color="#f55" offset="0"/>
   <stop stop-color="#ff8080" offset=".061358"/>
   <stop stop-color="#ff8080" offset=".94489"/>
   <stop stop-color="#f55" offset="1"/>
  </linearGradient>
  <linearGradient id="linearGradient9779" x1="263.75" x2="334.98" y1="134.99" y2="135.61" gradientUnits="userSpaceOnUse">
   <stop stop-color="#f55" offset="0"/>
   <stop stop-color="#ff8080" stop-opacity="0" offset=".061358"/>
   <stop stop-color="#ff8080" stop-opacity="0" offset=".94489"/>
   <stop stop-color="#f55" offset="1"/>
  </linearGradient>
  <radialGradient id="radialGradient4693-5" cx="106.45" cy="113.26" r="35.406" gradientTransform="matrix(1 0 0 .98966 0 1.1715)" gradientUnits="userSpaceOnUse" xlink:href="#linearGradient4625"/>
 </defs>
 <path d="m149.84 15.429c-2.8969-0.84934-19.227-1.3991-15.792-0.99591 43.976 5.1618 40.604 85.266-26.11 78.416-4.9724-0.51055 5.8316 3.8599 12.171 5.782 45.876 4.6075 69.912-62.043 29.731-83.202z" fill="#f55" stroke="#000" stroke-linecap="round" stroke-linejoin="round"/>
 <g transform="matrix(-.72815 -.035276 -.035276 .72815 240.82 18.198)" stroke="#000" stroke-linecap="round" stroke-linejoin="round">
  <path d="m107.78 75.123c-32.372-1.9568-55.965 37.724-32.613 65.318l-5.0549 6.2193 0.8029 2.1382 5.1328 3.3711-32.404 69.205c-2.6852 5.7349 11.483 18.158 21.848 6.5996-1.9244-5.975 2.6871-7.371 4.5449-7.1856-1.0501-3.8046-4.0703-2.9271-3.0781-11.582 1.434-1.58 4.6227-2.2832 7.0371-3.373-0.66319-2.7349-2.3987-5.9295-1.3203-7.918 0.54835-0.4854 3.0011-2.1134 6.3047-4.252-0.76644-2.34-2.3538-4.1319-1.6133-7.4766 0.91434-1.5652 5.4441-2.802 9.2383-4.1055l-1.0273-5.7188c12.882-3.7092 12.521-9.2875 13.197-12.756 1.8863 2.0438 4.1606 2.3408 6.5977 1.9062l5.1309-9.2383c47.529-9.3865 47.955-62.599 12.885-77.846-5.2709-2.2916-10.541-3.0004-15.607-3.3066zm9.541 11.053c6.2438 2.25e-4 11.305 4.9636 11.305 11.086-6.7e-4 6.1215-5.0617 11.084-11.305 11.084-6.243-2.3e-4 -11.304-4.9624-11.305-11.084-4.3e-4 -6.1223 5.0609-11.086 11.305-11.086z" fill="#ff2a2a"/>
  <path d="m106.95 72.945c-32.372-1.9568-55.965 37.724-32.613 65.318l-4.252 8.3574 5.1328 3.3711-32.404 69.205c-2.6852 5.7349 11.483 18.158 21.848 6.5996-1.9244-5.975 2.6871-7.371 4.5449-7.1856-1.0501-3.8046-4.0703-2.9271-3.0781-11.582 1.434-1.58 4.6227-2.2832 7.0371-3.373-0.66319-2.7349-2.3987-5.9295-1.3203-7.918 0.54835-0.4854 3.0011-2.1134 6.3047-4.252-0.76644-2.34-2.3538-4.1319-1.6133-7.4766 0.91434-1.5652 5.4441-2.802 9.2383-4.1055l-1.0273-5.7188c12.882-3.7092 12.521-9.2875 13.197-12.756 1.8863 2.0438 4.1606 2.3408 6.5977 1.9062l5.1309-9.2383c47.529-9.3865 47.955-62.599 12.885-77.846-5.2709-2.2916-10.541-3.0004-15.607-3.3066zm9.541 11.053c6.2438 2.25e-4 11.305 4.9636 11.305 11.086-6.7e-4 6.1215-5.0617 11.084-11.305 11.084-6.243-2.3e-4 -11.304-4.9624-11.305-11.084-4.3e-4 -6.1223 5.0609-11.086 11.305-11.086z" fill="#ff8080"/>
  <path d="m106.45 78.6a35.031 34.664 0 0 0-35.031 34.664 35.031 34.664 0 0 0 35.031 34.666 35.031 34.664 0 0 0 35.031-34.666 35.031 34.664 0 0 0-35.031-34.664zm10.137 5.3789a11.456 11.093 0 0 1 11.457 11.094 11.456 11.093 0 0 1-11.457 11.092 11.456 11.093 0 0 1-11.455-11.092 11.456 11.093 0 0 1 11.455-11.094z" fill="url(#radialGradient4693-5)" stroke-width=".75"/>
  <path d="m44.719 224.92 29.617-63.633c2.9349-6.3057 8.2525-9.3771 12.609-13.489l-36.509 81.375c-2.4537-0.635-4.622-1.6777-5.7182-4.252z" fill="#f55"/>
 </g>
 <g transform="rotate(-15.264 127.42 781.87)" stroke="#000" stroke-linecap="round" stroke-linejoin="round">
  <path d="m282.44 174.82-1.0972 7.8711 0.90019 1.5037 6.0878 0.80521 0.89458 76.411c0.0742 6.332 18.234 11.362 22.545-3.5519-4.33-4.5447-0.78359-7.8063 0.97018-8.4467-0.34613-0.3955-1.0467-1.5948-1.0467-1.5948s-2.9904 0.38102-5.4766-6.7495c0.60478-2.0463 1.8881-4.8142 3.5889-6.8451-1.7859-2.1748-4.0674-6.9817-3.9604-9.2412 0.28288-0.67549 1.1142-0.52367 3.16-3.8855-1.7073-1.7743-3.2327-6.1079-4.0194-9.442 0.14316-1.8071 3.6852-4.8897 6.5358-7.7126l-1.062-1.5812-3.0318 0.287c-2.0266-14.969 3.3067-15.78 6.3416-17.224 2.2064 2.436 4.5654 1.0397 6.7704-1.1507l0.60572-10.55 17.905-2.2896c2.3181-1.8623 2.5031-69.597 0.40802-71.842-1.9537-2.0939-77.679-1.8556-78.752 0.96235-0.91197 2.3944-2.7825 68.108 1.1866 71.796zm14.379-67.194c5.6233-2.7135 12.339-0.44318 14.999 5.0708 2.66 5.5134 0.25867 12.182-5.3638 14.896-5.6226 2.7132-12.337 0.44377-14.999-5.0691-2.6613-5.5136-0.26021-12.184 5.3629-14.897z" fill="#ff2a2a"/>
  <path d="m281.41 173.2-0.19699 9.3748 6.0878 0.80521 0.89458 76.411c0.0742 6.332 18.234 11.362 22.545-3.5519-4.33-4.5447-0.78359-7.8063 0.97018-8.4467-2.5993-2.97-3.6551-0.11843-6.5232-8.3443 0.60478-2.0463 1.8881-4.8142 3.5889-6.8451-1.7859-2.1748-4.0674-6.9817-3.9604-9.2412 0.28288-0.67549 1.1142-0.52367 3.16-3.8855-1.7073-1.7743-3.2327-6.1079-4.0194-9.442 0.14316-1.8071 3.6852-4.8897 6.5358-7.7126l-4.0938-1.2942c-2.0266-14.969 3.3067-15.78 6.3416-17.224 2.2064 2.436 4.5654 1.0397 6.7704-1.1507l0.60572-10.55 17.905-2.2896c2.3181-1.8623 2.5031-69.597 0.40802-71.842-1.9537-2.0939-77.679-1.8556-78.752 0.96236-0.91197 2.3944-2.7825 68.108 1.1866 71.796zm14.379-67.194c5.6233-2.7135 12.339-0.44318 14.999 5.0708 2.66 5.5134 0.25867 12.182-5.3638 14.896-5.6226 2.7132-12.337 0.44377-14.999-5.0691-2.6613-5.5136-0.26021-12.184 5.3629-14.897z" fill="#ff8080"/>
  <path d="m272.08 100.4c-5.2017 0-9.3906 4.187-9.3906 9.3887v48.281c0 5.2017 4.189 9.3887 9.3906 9.3887h53.879c5.2016 0 9.3887-4.187 9.3887-9.3887v-48.281c0-5.2016-4.187-9.3887-9.3887-9.3887zm28.527 4.9004a10.668 10.719 0 0 1 10.668 10.719 10.668 10.719 0 0 1-10.668 10.719 10.668 10.719 0 0 1-10.668-10.719 10.668 10.719 0 0 1 10.668-10.719z" fill="url(#linearGradient8829)" stroke-width=".66536"/>
  <path d="m294.36 264.88 0.38687-71.401c0.0377-6.9552 0.66353-6.3768 2.8002-11.974l1.8542 83.958c-2.4858 0.49455-2.9352 1.2587-5.0413-0.58336z" fill="#f55"/>
  <path d="m272.08 100.4c-5.2017 0-9.3906 4.187-9.3906 9.3887v48.281c0 5.2017 4.189 9.3887 9.3906 9.3887h53.879c5.2016 0 9.3887-4.187 9.3887-9.3887v-48.281c0-5.2016-4.187-9.3887-9.3887-9.3887zm28.527 4.9004a10.668 10.719 0 0 1 10.668 10.719 10.668 10.719 0 0 1-10.668 10.719 10.668 10.719 0 0 1-10.668-10.719 10.668 10.719 0 0 1 10.668-10.719z" fill="url(#linearGradient9779)" stroke-width=".66536"/>
 </g>
 <g transform="matrix(.89997 -.007914 .007914 .89997 5.8763 11.512)" stroke="#000" stroke-linecap="round" stroke-linejoin="round">
  <path d="m107.78 75.123c-32.372-1.9568-55.965 37.724-32.613 65.318l-5.0549 6.2193 0.8029 2.1382 5.1328 3.3711-32.404 69.205c-2.6852 5.7349 11.483 18.158 21.848 6.5996-1.9244-5.975 2.6871-7.371 4.5449-7.1856-1.0501-3.8046-4.0703-2.9271-3.0781-11.582 1.434-1.58 4.6227-2.2832 7.0371-3.373-0.66319-2.7349-2.3987-5.9295-1.3203-7.918 0.54835-0.4854 3.0011-2.1134 6.3047-4.252-0.76644-2.34-2.3538-4.1319-1.6133-7.4766 0.91434-1.5652 5.4441-2.802 9.2383-4.1055l-1.0273-5.7188c12.882-3.7092 12.521-9.2875 13.197-12.756 1.8863 2.0438 4.1606 2.3408 6.5977 1.9062l5.1309-9.2383c47.529-9.3865 47.955-62.599 12.885-77.846-5.2709-2.2916-10.541-3.0004-15.607-3.3066zm9.541 11.053c6.2438 2.25e-4 11.305 4.9636 11.305 11.086-6.7e-4 6.1215-5.0617 11.084-11.305 11.084-6.243-2.3e-4 -11.304-4.9624-11.305-11.084-4.3e-4 -6.1223 5.0609-11.086 11.305-11.086z" fill="#ff2a2a"/>
  <path d="m106.95 72.945c-32.372-1.9568-55.965 37.724-32.613 65.318l-4.252 8.3574 5.1328 3.3711-32.404 69.205c-2.6852 5.7349 11.483 18.158 21.848 6.5996-1.9244-5.975 2.6871-7.371 4.5449-7.1856-1.0501-3.8046-4.0703-2.9271-3.0781-11.582 1.434-1.58 4.6227-2.2832 7.0371-3.373-0.66319-2.7349-2.3987-5.9295-1.3203-7.918 0.54835-0.4854 3.0011-2.1134 6.3047-4.252-0.76644-2.34-2.3538-4.1319-1.6133-7.4766 0.91434-1.5652 5.4441-2.802 9.2383-4.1055l-1.0273-5.7188c12.882-3.7092 12.521-9.2875 13.197-12.756 1.8863 2.0438 4.1606 2.3408 6.5977 1.9062l5.1309-9.2383c47.529-9.3865 47.955-62.599 12.885-77.846-5.2709-2.2916-10.541-3.0004-15.607-3.3066zm9.541 11.053c6.2438 2.25e-4 11.305 4.9636 11.305 11.086-6.7e-4 6.1215-5.0617 11.084-11.305 11.084-6.243-2.3e-4 -11.304-4.9624-11.305-11.084-4.3e-4 -6.1223 5.0609-11.086 11.305-11.086z" fill="#ff8080"/>
  <path d="m106.45 78.6a35.031 34.664 0 0 0-35.031 34.664 35.031 34.664 0 0 0 35.031 34.666 35.031 34.664 0 0 0 35.031-34.666 35.031 34.664 0 0 0-35.031-34.664zm10.137 5.3789a11.456 11.093 0 0 1 11.457 11.094 11.456 11.093 0 0 1-11.457 11.092 11.456 11.093 0 0 1-11.455-11.092 11.456 11.093 0 0 1 11.455-11.094z" fill="url(#radialGradient4693)" stroke-width=".75"/>
  <path d="m44.719 224.92 29.617-63.633c2.9349-6.3057 8.2525-9.3771 12.609-13.489l-36.509 81.375c-2.4537-0.635-4.622-1.6777-5.7182-4.252z" fill="#f55"/>
 </g>
 <path d="m120.99 98.506c-20.794-8.0837-29.691-34.982-21.454-54.132 7.6154-17.705 28.382-31.905 50.31-28.945-27.996-10.042-47.502 6.7395-55.76 27.282-9.7636 24.288 0.9565 55.447 26.904 55.794z" fill="#ff8080" stroke="#000" stroke-linecap="round" stroke-linejoin="round"/>
</svg>
