<?xml version="1.0" encoding="UTF-8"?>
<svg version="1.1" viewBox="0 0 256 256" xmlns="http://www.w3.org/2000/svg">
 <defs>
  <linearGradient id="linearGradient3080" x1="67.394" x2="58.08" y1="-103.76" y2="-80.763" gradientUnits="userSpaceOnUse" spreadMethod="repeat">
   <stop stop-color="#3d3d3d" offset="0"/>
   <stop stop-color="#3d3d3d" offset=".48129"/>
   <stop stop-color="#333" offset=".48129"/>
   <stop stop-color="#333" offset="1"/>
  </linearGradient>
 </defs>
 <rect transform="rotate(90)" x="55.243" y="-238.78" width="145.51" height="221.56" ry="2" fill="url(#linearGradient3080)" stroke="#000" stroke-linecap="round" stroke-linejoin="round"/>
 <text x="110.03895" y="73.090492" font-family="'Komika Hand'" font-size="18.667px" letter-spacing="0px" text-align="center" text-anchor="middle" word-spacing="0px" style="line-height:1.2" xml:space="preserve"><tspan x="110.03895" y="73.090492"/></text>
 <g fill="none" stroke="#ff553c" stroke-width="4.3938">
  <g>
   <path d="m145.14 99.082v-10.856c0-3.8385 3.9565-4.8403 6.1782-3.003 2.2284 1.8428 1.6536 6.0951-2.7208 6.0455"/>
   <path d="m105.78 120.52v-10.856c0-3.8384 3.9565-4.8403 6.1782-3.003 2.2284 1.8429 1.6536 6.0951-2.7208 6.0455"/>
   <path d="m225.95 103.91v10.856c0 3.8385-3.9564 4.8403-6.1781 3.0031-2.2284-1.8429-1.6536-6.0951 2.7207-6.0455"/>
   <path d="m134.33 120.62v-5.5587c0-3.8384-3.9564-4.8403-6.1782-3.003-2.2284 1.8428-1.6536 6.0951 2.7208 6.0455"/>
   <path d="m155.52 124.04c8.436 0.73137 6.4307-5.7859 6.4307-9.4041 0-3.8384-3.9565-4.8403-6.1781-3.003-2.2284 1.8429-1.6536 6.0951 2.7208 6.0455"/>
   <path d="m141.12 123.71c8.436 0.73134 6.5691-3.6424 6.7074-12.585"/>
   <path d="m158.96 99.082v-11.893"/>
   <path d="m119.47 120.41v-16.734"/>
   <path d="m165.88 87.051c-0.172 4.7368 2.783 5.0066 3.5959 5.0054 0.92387-0.0013 3.302-0.13997 3.3188-4.9363"/>
   <path d="m172.92 98.988c0.0904-4.739-2.8691-4.9577-3.6818-4.9425-0.92371 0.02143-3.2991 0.19721-3.2331 4.9929"/>
   <path d="m182.41 97.354c8.1404-0.1348 1.0998-7.6044 8.8508-7.7446"/>
   <path d="m179.09 88.779-0.069-6.0158"/>
  </g>
  <path d="m159.13 83.873v-0.26332" stroke-linecap="round"/>
  <g>
   <path d="m169.53 120.48 0.069-6.9148c0.0386-3.8765 2.4567-2.7261 4.1488-2.7659"/>
   <path d="m180.94 110.38c5.613 0.13471 5.1994 8.0982-8e-5 8.1595-5.2237 0.0617-5.7454-8.2971 8e-5 -8.1595z"/>
   <path d="m191.24 108.51 0.069 6.9147c0.0441 4.4303 6.7709 4.5359 6.6382 0.069l-0.20748-6.9839"/>
   <path d="m141.28 108.32 0.0691 6.9147c0.0442 4.4302 6.4502 4.4889 6.4426 0.0215l-6e-3 -6.935"/>
   <path d="m211.61 120.46-0.069-6.9147c-0.0444-4.4303-6.7708-4.5358-6.6381-0.069l0.20748 6.9839"/>
  </g>
 </g>
 <path d="m17.699 162.7h220.56" fill="#f00" stroke="#e6e6e6" stroke-width="22"/>
 <ellipse cx="58.76" cy="103.26" rx="28.907" ry="28.73" fill="none" stroke="#ff2a7f" stroke-width="4"/>
 <g transform="matrix(.81 0 0 .81 32.805 77.174)" fill="#fca" stroke="#ccc">
  <path d="m21.116 32h21.437" stroke-width="4"/>
  <path d="m9.2058 32h-3.4275" stroke-width="4"/>
  <g stroke-linecap="round">
   <path d="m12.306 39.763v-15.526" stroke-width="5"/>
   <path d="m18.071 44.13v-24.26" stroke-width="5"/>
   <path d="m7.0852 32h-1.9321" stroke-width="4"/>
  </g>
  <path d="m54.794 32h3.4275" stroke-width="4"/>
  <g stroke-linecap="round">
   <path d="m51.694 24.237v15.526" stroke-width="5"/>
   <path d="m45.929 19.87v24.26" stroke-width="5"/>
   <path d="m56.915 32h1.9321" stroke-width="4"/>
  </g>
 </g>
 <path d="m193.18 60.986c2.8178-0.03845 6.9951-0.28761 11.176-0.40958 4.2998-0.12544 8.2596-0.11574 11.858 0.16734 3.3287 0.26185 5.974 0.73183 8.0689 1.3542 1.3514 0.40149 2.3975 0.84583 3.1145 1.2604 0.82544 0.47724 1.7968 1.1896 2.75 2.1226 1.3434 1.3149 2.5086 2.9241 3.3632 4.8179 0.74919 1.6601 1.1847 3.3669 1.4223 5.092 0.57058 4.1422 0.0612 8.1237 0.19713 10.272-0.13388-2.1157-1.0572-6.2116-2.8591-9.4105-0.75714-1.3441-1.619-2.4692-2.5948-3.4338-1.0961-1.0835-2.2514-1.8814-3.3749-2.5533-0.8058-0.48188-1.5743-0.88491-2.1822-1.2364-0.52877-0.30572-1.2345-0.79511-2.2088-1.389-1.5155-0.92383-3.5616-2.0216-6.5001-3.0831-6.6156-2.3898-15.656-3.6601-22.23-3.5704z" fill="#fff"/>
</svg>
