<svg version="1.1" viewBox="0 0 256 256" xmlns="http://www.w3.org/2000/svg">
 <defs>
  <linearGradient id="linearGradient2006" x1="160.54" x2="174.37" y1="231.32" y2="127.73" gradientTransform="matrix(1.05 0 0 1.05 -7.2179 -6.29)" gradientUnits="userSpaceOnUse">
   <stop stop-color="#f55" offset="0"/>
   <stop stop-color="#ff8080" offset="1"/>
  </linearGradient>
  <linearGradient id="linearGradient2014" x1="189.56" x2="192" y1="236.75" y2="154.58" gradientTransform="matrix(1.05 0 0 1.05 -7.2179 -6.29)" gradientUnits="userSpaceOnUse">
   <stop stop-color="#ff2a2a" offset="0"/>
   <stop stop-color="#f55" offset="1"/>
  </linearGradient>
  <linearGradient id="linearGradient2032" x1="167.86" x2="106.31" y1="30.373" y2="18.169" gradientTransform="matrix(1.05 0 0 1.05 -7.2179 -6.29)" gradientUnits="userSpaceOnUse">
   <stop stop-color="#ff2a2a" offset="0"/>
   <stop stop-color="#f55" offset=".52541"/>
   <stop stop-color="#ff2a2a" offset="1"/>
  </linearGradient>
  <linearGradient id="linearGradient2042" x1="111.46" x2="119.32" y1="13.831" y2="51.797" gradientTransform="matrix(1.05 0 0 1.05 -7.2179 -6.29)" gradientUnits="userSpaceOnUse">
   <stop stop-color="#f55" offset="0"/>
   <stop stop-color="#ff8080" offset="1"/>
  </linearGradient>
 </defs>
 <g stroke="#000" stroke-linecap="round" stroke-linejoin="round" stroke-width=".7875">
  <path d="m135.17 113.39-40.435 0.1415-5.1249 6.5502v6.4066l51.538-0.57012v-6.8332zm-28.559 4.4851h17.75c0.26934 0 0.48604 0.21671 0.48604 0.48603v2.4445c0 0.26932-0.2167 0.48603-0.48604 0.48603h-17.75c-0.26934 0-0.48604-0.21671-0.48604-0.48603v-2.4445c0-0.26932 0.2167-0.48603 0.48604-0.48603z" fill="#dbdee3"/>
  <rect x="87.328" y="123.07" width="56.095" height="88.271" ry="4.4762" fill="#b7bec8"/>
  <rect x="90.132" y="127.48" width="50.485" height="79.444" ry="4.0285" fill="#dbdee3"/>
  <path d="m121.29 81.867c-4.3783 0.04494-9.9059-0.0492-14.583 0.15679v-0.0034c-1.1358 0.04999-1.8484 1.472-1.9329 2.4661-0.22012 2.589-0.28168 5.8038 0.47605 8.2548 0.36435 1.1785 1.1862 2.0968 2.57 2.237 4.0102 0.40633 10.886 0.50344 14.722 0.14425 1.503-0.14071 2.0757-1.1575 2.2622-2.4724 0.37381-2.6354 0.029-6.2097-0.136-8.1199-0.14111-1.6326-1.5112-2.683-3.379-2.6637zm-1.7575 1.8292c1.3616-0.01449 2.3598 0.74883 2.4626 1.939 0.12028 1.3925 0.36924 3.9993 0.0966 5.9205-0.13599 0.95847-0.55084 1.6984-1.6465 1.8009-2.7965 0.26178-7.8112 0.19271-10.735-0.10347-1.0088-0.10211-1.6064-0.77236-1.872-1.6315-0.55239-1.7867-0.50767-4.1304-0.3472-6.0177 0.0617-0.7247 0.57869-1.7613 1.4067-1.7978 3.4093-0.1502 7.4427-0.07706 10.634-0.10987z" fill="#ccc"/>
  <path d="m119.16 101.98c-0.79014-1.8593-6.7965-1.7322-7.7029 0.21962l-4.349 9.3655 0.12536 7.2978c0.0344 2.0001 16.502 1.4034 16.526 0.21647l0.12172-5.9895zm-3.8514 0.53965c1.9948-7.5e-4 3.6122 1.2947 3.6116 2.8928-1e-3 1.5968-1.6184 2.8904-3.6116 2.8896-1.9918-8.3e-4 -3.6064-1.2939-3.608-2.8896-5.6e-4 -1.5969 1.6147-2.892 3.608-2.8928z" fill="#b3b3b3"/>
  <path d="m110.15 92.997c-0.16916-2.6201 9.4435-2.6533 9.5671 0.10886l0.24852 5.5543-2.6092 5.8811h-3.6032l-3.2304-5.7722z" fill="#e6e6e6"/>
  <path d="m183.2 245.75c13.859 2.5463 17.199-16.23 18.171-23.054 0.35942-2.5225-9.2277-48.975-17.325-90.495-6.0755-31.152-10.503-59.091-13.719-66.014l1.4461 67.665s8.1376 47.489 16.51 71.276c2.7716 7.8741 9.929 20.203 10.168 27.383-1.3455 4.6825-4.4936 14.21-15.252 13.238z" fill="url(#linearGradient2014)"/>
  <path d="m119.08 21.808c7.2624-14.581 31.959-7.7277 42.767 12.288-1.0014-3.9123-3.5677-20.935-22.5-27.835-14.298-1.738-19.277 7.5559-20.267 15.547z" fill="url(#linearGradient2032)"/>
  <path d="m123.05 11.533c2.3089-3.8325 10.735-6.9155 16.309-5.6377 8.3233 1.9082 15.374 9.244 19.329 16.812 8.0664 15.437 5.6377 51.947 5.6377 51.947s1.3348-35.947-6.7969-51.295c-3.7358-7.0513-10.008-14.295-17.689-16.457-5.2195-1.4693-11.34 0.74263-16.79 4.631z" fill="#faa"/>
  <path d="m107.75 87.138h13.49c0.12951-13.023 0.83891-25.755 0-39.262-0.94958-15.289-3.518-29.078 3.4229-38.054-3.8256 3.467-7.6511 7.2779-11.477 14.296-5.7605 19.691-3.9641 41.901-5.4363 63.021z" fill="url(#linearGradient2042)"/>
  <path d="m185.07 246c-12.444-2.1771-13.949-13.546-13.49-20.739 2.6187-41.066 4.6087-89.735 2.2148-150.41l-11.678-43.088c0.45325 15.302 1.6432 30.428 1.0067 45.907-1.9281 46.89-1.6495 97.012 2.8188 145.77 0.80499 8.7846 4.6962 20.668 19.128 22.551z" fill="url(#linearGradient2006)"/>
 </g>
 <path d="m115.15 130.93-6.2716 18.011 15.645-11.162-18.959-0.0367 15.824 11.23z" fill="#d42aff" fill-rule="evenodd" stroke-width="1.05"/>
 <g fill="none" stroke-linecap="square" stroke-linejoin="round">
  <g stroke="#1a1a1a">
   <g stroke-width="1.3504">
    <path d="m121.99 164.24c-0.0817-1.6086-2.0673-1.0714-2.0385 0.0219 0.0323 1.2304 1.9809 1.3957 2.0385 2.4778 0.0859 1.6138-1.8465 1.8333-1.9748 0.0658"/>
    <path d="m118.36 164.31c-0.0817-1.6086-2.0673-1.0714-2.0385 0.0219 0.0323 1.2304 1.9809 1.3957 2.0385 2.4779 0.0859 1.6138-1.8465 1.8332-1.9748 0.0657"/>
    <path d="m112.46 167.81 0.5521-4.583h1.1042l0.70075 4.7145"/>
    <path d="m112.78 166.96 1.5926-0.0438"/>
    <path d="m109.37 167.95-0.1066-4.6445c1.3269-0.94872 4.0876 2.3158 0.15015 2.2328"/>
   </g>
   <path d="m94.463 175.8 42.569-0.14237" stroke-width="1.575"/>
   <g transform="translate(.067797 -1.7627)" stroke-width=".3805">
    <path d="m94.53 180.82 0.4768-1.0768 0.27246 1.1116 1.4304-1.2505 0.30652 1.3895s0.64709-0.79894 0.98766-0.90315c0.34058-0.10416-2.0775 0.0694-2.0775 0.0694s0.34056 1.0421 0.57896 0.9379c0.2384-0.10427 2.7246-0.86843 2.7246-0.86843s0.88551 1.2853 0.88551 1.1463c0-0.13896 0.85142-1.4937 0.85142-1.4937l-1.4645 0.48632s-0.88548 1.0074-0.64708 1.0074"/>
    <path d="m101.85 180.64s0.64709-1.0074 0.88549-0.34736c0.23841 0.65998 0.91954 1.3547 1.3282 0.83369 0.40869-0.52107 0.71522-1.0421 0.71522-0.86844s0.54491 1.0768 0.54491 1.0768"/>
    <path d="m106.31 180.61s0.54492-0.69474 0.88551-0.55578c0.34057 0.13893 1.6348 1.8063 1.7029 1.4589 0.068-0.34737 0.3065-1.0421 0.44274-1.0421"/>
    <path d="m95.245 183.14s1.7369-0.55579 1.9072-0.3821"/>
    <path d="m99.536 183.77s0.34057-0.79894 0.64709-0.72947c0.30652 0.0694 1.0898 0.69473 1.0898 0.69473s0.54493-0.97262 0.44276-1.2505c-0.10216-0.27789-1.158 0.24317-1.4645 0.72946-0.30651 0.48632-0.20434 1.4242 0.4768 0.97264 0.68115-0.45158 1.805-1.0768 1.9753-1.0074 0.17029 0.0694 1.1239 0.62525 1.1239 0.62525s0.78332-0.79894 0.91954-0.65999"/>
    <path d="m100.52 185.61s0.61304-0.52105 0.81738-0.48631c0.20434 0.0348 0.85145 0.62526 0.85145 0.62526l0.61303-0.69474s-1.1239-0.41683-1.3623 0.10427c-0.23842 0.52105-0.27248 1.2505 0.34056 1.0421 0.61303-0.20842 1.2261-0.90316 1.2261-0.90316s0.23839-0.10416 0.40868 0.17368c0.17029 0.27791 0.2384 0.38211 0.2384 0.38211"/>
    <path d="m110.43 180.89 1.2942-0.45159 0.37463 1.181 0.64709-1.0074"/>
    <path d="m94.223 185.92s1.4985-1.2852 1.7029-0.83368c0.20434 0.45158 0.34056 0.55578 0.34056 0.55578s0.95361-1.2505 0.98767-1.0421c0.03404 0.20841 1.771 0.72945 1.771 0.72945s-1.2261 0.86843-1.3623 0.90316"/>
   </g>
   <g transform="translate(.067797 -1.7627)">
    <path d="m110.52 201.86 26.197-0.21356" stroke-dasharray="0.7875, 1.575" stroke-width=".7875"/>
    <path d="m112.02 182.99-0.46456 1.0824-0.28504-1.1083-1.4161 1.2673-0.32224-1.3858s-0.63799 0.8065-0.97735 0.91473c-0.33937 0.10822 2.0766-0.0939 2.0766-0.0939s-0.35236-1.038-0.58957-0.93102c-0.23721 0.10703-2.7146 0.90049-2.7146 0.90049s-0.9-1.2747-0.89842-1.1358c2e-3 0.13893-0.83445 1.5036-0.83445 1.5036l1.4588-0.50356s0.87402-1.0177 0.63563-1.0149" stroke-width=".3805"/>
    <path d="m122.55 180.79-0.0712 10.464" stroke-width=".7875"/>
   </g>
  </g>
  <g>
   <g transform="translate(.067797 -1.7627)" stroke="#c83737">
    <g stroke-width=".3559">
     <path d="m124.92 181.89 0.49504-0.90743 0.28288 0.93669 1.4851-1.0538 0.31825 1.1709s0.67184-0.67325 1.0254-0.76106c0.35359-0.0879-2.157 0.0586-2.157 0.0586s0.3536 0.87815 0.60113 0.79033c0.24752-0.0879 2.8288-0.73179 2.8288-0.73179s0.91937 1.083 0.91937 0.96596c0-0.11708 0.88401-1.2587 0.88401-1.2587l-1.5205 0.40981s-0.91936 0.84886-0.67185 0.84886"/>
     <path d="m124.62 183.67s0.56576-0.58542 0.91937-0.46833c0.3536 0.11708 1.6973 1.5221 1.768 1.2294 0.0707-0.29272 0.31825-0.87815 0.45969-0.87815"/>
     <path d="m128.98 183.75 1.3437-0.38053 0.38896 0.99523 0.67184-0.84888"/>
     <path d="m124.53 185.48s0.63648-0.43907 0.84865-0.40979c0.21216 0.0293 0.884 0.52689 0.884 0.52689l0.63648-0.58544s-1.1669-0.35126-1.4144 0.0879c-0.24752 0.43907-0.28288 1.0538 0.35359 0.87814 0.63648-0.17562 1.273-0.76105 1.273-0.76105s0.24752-0.0879 0.42432 0.14636c0.1768 0.23417 0.24752 0.32198 0.24752 0.32198"/>
     <path d="m129.14 185.9 0.49504-0.90743 0.28288 0.93669 1.4851-1.0538 0.31825 1.1709s0.67184-0.67325 1.0254-0.76106c0.35359-0.0879-2.157 0.0586-2.157 0.0586s0.35359 0.87815 0.60112 0.79033c0.24752-0.0879 2.8288-0.73178 2.8288-0.73178s0.91937 1.083 0.91937 0.96595c0-0.11708 0.884-1.2587 0.884-1.2587l-1.5205 0.40981s-0.91936 0.84886-0.67185 0.84886"/>
    </g>
    <path d="m125.2 188.02s0.2575-0.63951 0.41845-0.51159c0.16093 0.12789 0.7725 1.6627 0.80468 1.343 0.0321-0.31976 0.14485-0.95927 0.20923-0.95927" stroke-width=".25095"/>
    <path d="m127.41 188.09s0.63648-0.43907 0.84864-0.40979c0.21216 0.0293 0.884 0.52689 0.884 0.52689l0.63648-0.58544s-1.1669-0.35126-1.4144 0.0879c-0.24752 0.43907-0.28288 1.0538 0.3536 0.87814 0.63648-0.17562 1.273-0.76105 1.273-0.76105s0.24751-0.0879 0.42431 0.14636c0.1768 0.23417 0.24753 0.32198 0.24753 0.32198" stroke-width=".3559"/>
   </g>
   <path d="m117.76 193.51-2.1356 6.9051 4.3424-3.5593-0.85424 3.6305 3.6305-7.1186c0.14237 1.5898 0.13962 1.1412 0.92543 4.9831 3.7948-6.4079-0.689-2.2279-1.6589-0.16323-2.5578 5.4448 8.2084-4.9311 10.628-4.2503-1.7262 0.82048-3.5448 2.1958-3.6858 2.7964-0.33986 1.4474 0.73157-0.37126 2.3814-0.23873 0.86545 0.0695 1.121 2.8677-3.3794 3.84-5.9851 1.2931-18.099 4.0341-13.229-5.5135" stroke="#6f6f91" stroke-width=".7875"/>
   <path d="m93.516 194.51 14.209-0.30674" stroke="#1a1a1a" stroke-dasharray="0.69507569, 1.39015139" stroke-width=".69508"/>
   <path d="m93.667 198.94 14.209-0.30674" stroke="#1a1a1a" stroke-dasharray="0.69507569, 1.39015139" stroke-width=".69508"/>
   <g transform="translate(.067797 -1.7627)" stroke="#6f6f91" stroke-width=".7875">
    <path d="m94.411 195.36c0-0.25168 1.6611-2.9698 1.7618-2.7182 0.10067 0.25169 1.5101 2.3658 0.80538 2.7685-0.70471 0.4027-2.2148-1.2584-1.9128-1.3087 0.30202-0.0503 3.9262 0.35235 3.9262 0.35235s0.35236 2.0135 0.15101 1.3088c-0.20134-0.7047 0.20135-2.9195 0.20135-2.9195s2.2148 1.8121 1.9631 1.8624c-0.25168 0.0503-5.7887 0.90605-5.3357 0.30202 0.45303-0.60404 5.99 0.70471 5.99 0.70471l1.3591-1.9128-0.20135 1.1074s0.85572 1.4598 1.0571 0.95639c0.20134-0.50337 1.4598-2.1645 1.4598-2.1645l0.4027 2.0135"/>
    <path d="m93.908 199.94s1.1074-1.3591 1.3591-1.2584c0.25168 0.10069 0.90606 1.3591 0.90606 1.3591l1.1577-1.1074"/>
    <path d="m100.1 199.74-1.1074-1.4094 2.6175-0.20135-0.0503 2.1645-1.8624 0.0503 4.0772-2.0638-0.5537 2.0135s-1.8121-0.95639-1.1577-1.0067c0.65437-0.0503 3.5739-0.45303 3.5739-0.45303l-1.2081-0.95639 0.70472 2.4665 1.9128-2.1141"/>
   </g>
   <g transform="translate(.067797 -1.7627)" stroke="#1a1a1a" stroke-width=".3805">
    <path d="m114.09 187.44-0.49634 1.0684-0.25218-1.1162-1.453 1.2253-0.28115-1.3946s-0.66154 0.7875-1.004 0.88574c-0.3424 0.0982 2.0784-0.0332 2.0784-0.0332s-0.32151-1.0479-0.56178-0.94786c-0.24026 0.10006-2.74 0.82067-2.74 0.82067s-0.86192-1.3005-0.86446-1.1616c-2e-3 0.13894-0.87852 1.4786-0.87852 1.4786l1.4731-0.46065s0.9037-0.99172 0.66534-0.99589"/>
    <path d="m118.95 187.87s-0.66538 0.9959-0.89169 0.33183c-0.22635-0.66403-0.89471-1.3706-1.3128-0.85676-0.41812 0.51383-0.73409 1.0294-0.73091 0.8558 3e-3 -0.17365-0.5252-1.0862-0.5252-1.0862"/>
    <path d="m99.489 189.87s-0.5575 0.6851-0.89548 0.54021c-0.33798-0.14486-1.6016-1.8346-1.676-1.4885-0.07434 0.34611-0.32546 1.0366-0.46167 1.0342"/>
    <path d="m119.73 183.49s-1.7468 0.52536-1.9139 0.3487"/>
    <path d="m106.76 187.35s-0.35508 0.79287-0.66029 0.71804c-0.30519-0.0748-1.077-0.71366-1.077-0.71366s-0.56256 0.96294-0.46547 1.2426c0.097 0.27964 1.1622-0.22288 1.4775-0.70375 0.31533-0.48088 0.23027-1.4204-0.459-0.98081-0.68927 0.4396-1.8244 1.0451-1.9934 0.97268-0.16901-0.0725-1.1123-0.6448-1.1123-0.6448s-0.79775 0.78512-0.93142 0.64381"/>
    <path d="m116.29 183.54s-0.62243 0.51024-0.82611 0.47194-0.83989-0.64005-0.83989-0.64005l-0.6256 0.68392s1.1161 0.43642 1.364-0.0803c0.24786-0.5168 0.29522-1.2456-0.32152-1.0479-0.61673 0.19768-1.2423 0.8816-1.2423 0.8816s-0.24027 0.10006-0.40547-0.1808c-0.1652-0.28083-0.2314-0.38622-0.2314-0.38622"/>
    <path d="m96.976 190.14-1.3022 0.42889-0.35304-1.1874-0.66534 0.99588"/>
    <path d="m119.15 180.77s-1.5217 1.2588-1.7178 0.80378c-0.19606-0.45508-0.33037-0.56164-0.33037-0.56164s-0.97626 1.2336-1.0065 1.0247c-0.0302-0.20898-1.7574-0.7603-1.7574-0.7603s1.2417-0.84686 1.3785-0.8792"/>
    <path d="m94.266 187.91 0.48423-1.0741 0.26479 1.1131 1.439-1.2423 0.29693 1.3912s0.65259-0.79523 0.99388-0.89751c0.34128-0.10227-2.078 0.0576-2.078 0.0576s0.33339 1.044 0.57251 0.94117c0.23912-0.1029 2.7305-0.85291 2.7305-0.85291s0.87662 1.2903 0.87757 1.1513c5.25e-4 -0.13896 0.86172-1.4888 0.86172-1.4888l-1.4678 0.47799s-0.89243 1.0023-0.65401 1.0037"/>
   </g>
  </g>
 </g>
 <g fill="#fff">
  <g>
   <path d="m119.92 107.75c0.1487 0.30775 0.29083 1.0432 0.46111 1.8722 0.0683 0.33242 0.13354 0.63466 0.19202 0.81853 0.0947 0.29778 0.28608 0.82982 0.49332 1.3992 0.25152 0.69105 0.55319 1.5097 0.82057 2.2023 0.33027 0.85555 0.61258 1.5023 0.73806 1.823-0.13346-0.34105-0.29991-0.96283-0.51864-1.8909-0.17072-0.72433-0.3581-1.5669-0.53031-2.2875-0.14745-0.61693-0.27693-1.1168-0.38098-1.444-0.0591-0.18568-0.18359-0.47403-0.33331-0.78388-0.23709-0.49066-0.70475-1.2184-0.94184-1.709z"/>
   <path d="m117.36 92.659-0.48387 0.2037c0.31869 0.757 0.66629 1.6338 0.83936 3.2655 0.14257 1.344 0.11639 2.9475 0.0716 3.5071 0.0529-0.66089 0.34165-2.0478 0.45334-3.5141 0.12263-1.61-0.0453-2.8314-0.39658-3.6659l-0.48387 0.2037z"/>
   <path d="m122.63 83.405c0.19078 0.23501 0.23165 1.142 0.30427 1.3987 8e-3 0.02728 0.019 0.0668 0.0267 0.09407 0.10359 0.36567 0.21491 0.81091 0.27259 1.503 0.0862 1.0343-3e-3 2.8856-0.0341 3.2687 0.0472-0.58965 0.42503-2.0021 0.54246-3.2651 0.0661-0.71129 0.0312-1.2693-0.0675-1.6898-9e-3 -0.03988-0.019-0.07728-0.0289-0.11206-0.0862-0.30486-0.8248-0.96247-1.0156-1.1975z"/>
  </g>
  <path d="m108.32 77.069 12.956 0.14237" stroke="#000" stroke-dasharray="0.525, 1.05" stroke-linecap="square" stroke-linejoin="round" stroke-width=".525"/>
  <path d="m108.53 74.72 12.956 0.14237" stroke="#000" stroke-dasharray="0.525, 1.05" stroke-linecap="square" stroke-linejoin="round" stroke-width=".525"/>
 </g>
 <g fill="none" stroke="#1a1a1a" stroke-linecap="square" stroke-linejoin="round" stroke-width="1.3504">
  <path d="m99.718 157.63c-3e-3 0.85813-0.50847 1.398-1.1179 1.3869-1.2516-0.0228-1.2778-4.9623 0.12742-4.9776 0.49622-5e-3 0.91345 0.27043 0.91353 1.3756"/>
  <path d="m102.37 158.9c-1.2516-0.0228-1.2778-4.9623 0.12742-4.9776 1.6375 0.10586 1.8149 5.002-0.12742 4.9776z"/>
  <path d="m105.47 158.8-0.0711-4.6789 2.3027 4.6981-0.0183-4.6337"/>
  <path d="m110.93 158.79-0.0425-4.6268"/>
  <path d="m109.51 154.15 2.8949 2e-3"/>
  <path d="m114.17 158.83-0.0388-4.676c1.3269-0.94872 4.0876 2.0761 0.15015 1.9931"/>
  <path d="m114.28 156.14c1.4034 0.14405 2.0781 1.4963 2.1014 2.6369"/>
  <path d="m118.16 158.61 0.55211-4.583h1.1042l0.70075 4.7145"/>
  <path d="m118.48 157.75 1.5926-0.0438"/>
  <path d="m124.06 157.44c-3e-3 0.85813-0.50847 1.398-1.1179 1.3869-1.2516-0.0228-1.2778-4.9623 0.12742-4.9776 0.49622-5e-3 0.91345 0.27043 0.91353 1.3756"/>
  <path d="m126.54 158.77c-1.2516-0.0228-1.2778-4.9623 0.12742-4.9776 1.6375 0.10586 1.8149 5.002-0.12742 4.9776z"/>
  <path d="m129.73 158.75-0.0628-4.7479c1.3269-0.94872 4.1116 2.148 0.17412 2.065"/>
  <path d="m129.84 156.07c1.4034 0.14405 2.0781 1.4963 2.1014 2.6369"/>
 </g>
</svg>
