<svg xmlns="http://www.w3.org/2000/svg" xmlns:xlink="http://www.w3.org/1999/xlink" viewBox="0 0 256 256">
    <defs>
        <linearGradient id="linearGradient2006" x1="160.54" x2="174.37" y1="231.32" y2="127.73" gradientTransform="matrix(1.05 0 0 1.05 -7.218 -6.29)" gradientUnits="userSpaceOnUse">
            <stop offset="0" stop-color="#f55"/>
            <stop offset="1" stop-color="#ff8080"/>
        </linearGradient>
        <linearGradient id="linearGradient2014" x1="189.56" x2="192" y1="236.75" y2="154.58" gradientTransform="matrix(1.05 0 0 1.05 -7.218 -6.29)" gradientUnits="userSpaceOnUse">
            <stop offset="0" stop-color="#ff2a2a"/>
            <stop offset="1" stop-color="#f55"/>
        </linearGradient>
        <linearGradient id="linearGradient2032" x1="167.86" x2="106.31" y1="30.373" y2="18.169" gradientTransform="matrix(1.05 0 0 1.05 -7.218 -6.29)" gradientUnits="userSpaceOnUse">
            <stop offset="0" stop-color="#ff2a2a"/>
            <stop offset=".525" stop-color="#f55"/>
            <stop offset="1" stop-color="#ff2a2a"/>
        </linearGradient>
        <linearGradient id="linearGradient2042" x1="111.46" x2="119.32" y1="13.831" y2="51.797" gradientTransform="matrix(1.05 0 0 1.05 -7.218 -6.29)" gradientUnits="userSpaceOnUse">
            <stop offset="0" stop-color="#f55"/>
            <stop offset="1" stop-color="#ff8080"/>
        </linearGradient>
        <linearGradient id="linearGradient882" x1="107.079" x2="122.57" y1="130.426" y2="155.305" gradientTransform="translate(-.001)" gradientUnits="userSpaceOnUse" xlink:href="#linearGradient880"/>
        <linearGradient id="linearGradient880">
            <stop offset="0" stop-color="#758bbf"/>
            <stop offset=".089" stop-color="#96d3f0"/>
            <stop offset=".179" stop-color="#d0e6fe"/>
            <stop offset=".27" stop-color="#9acce1"/>
            <stop offset=".361" stop-color="#d4acce"/>
            <stop offset=".511" stop-color="#91a3d0"/>
            <stop offset=".637" stop-color="#e4e9e4"/>
            <stop offset=".726" stop-color="#7caedd"/>
            <stop offset=".861" stop-color="#7d72aa"/>
            <stop offset="1" stop-color="#e1e9fb"/>
        </linearGradient>
    </defs>
    <g stroke="#000" stroke-linecap="round" stroke-linejoin="round" stroke-width=".788">
        <path fill="#dbdee3" d="M135.17 113.39l-40.435.141-5.125 6.55v6.407l51.538-.57v-6.833zm-28.559 4.485h17.75c.27 0 .486.217.486.486v2.445c0 .269-.217.486-.486.486h-17.75a.485.485 0 0 1-.486-.486v-2.445c0-.27.217-.486.486-.486z"/>
        <rect width="56.095" height="88.271" x="87.328" y="123.07" fill="#b7bec8" ry="4.476"/>
        <rect width="50.485" height="79.444" x="90.132" y="127.48" fill="#dbdee3" ry="4.029"/>
        <path fill="#ccc" d="M121.29 81.867c-4.378.045-9.906-.05-14.583.157v-.004c-1.136.05-1.848 1.472-1.933 2.466-.22 2.59-.282 5.804.476 8.255.365 1.179 1.186 2.097 2.57 2.237 4.01.407 10.886.504 14.722.145 1.503-.141 2.076-1.158 2.262-2.473.374-2.635.03-6.21-.136-8.12-.14-1.632-1.51-2.683-3.379-2.663zm-1.758 1.83c1.362-.015 2.36.748 2.463 1.938.12 1.393.37 4 .097 5.92-.136.96-.551 1.7-1.647 1.802-2.796.261-7.811.192-10.735-.104-1.009-.102-1.606-.772-1.872-1.631-.552-1.787-.507-4.13-.347-6.018.062-.725.579-1.761 1.407-1.798 3.409-.15 7.442-.077 10.634-.11z"/>
        <path fill="#b3b3b3" d="M119.16 101.98c-.79-1.86-6.796-1.732-7.703.22l-4.349 9.365.125 7.298c.035 2 16.502 1.403 16.526.216l.122-5.99zm-3.851.54c1.994-.001 3.612 1.294 3.611 2.892 0 1.597-1.618 2.89-3.611 2.89-1.992 0-3.607-1.294-3.608-2.89-.001-1.596 1.614-2.892 3.608-2.892z"/>
        <path fill="#e6e6e6" d="M110.15 92.997c-.17-2.62 9.444-2.653 9.567.109l.249 5.554-2.61 5.881h-3.603l-3.23-5.772z"/>
        <path fill="url(#linearGradient2014)" d="M183.2 245.75c13.859 2.546 17.199-16.23 18.171-23.054.36-2.522-9.228-48.975-17.325-90.495-6.075-31.152-10.503-59.091-13.719-66.014l1.446 67.665s8.138 47.489 16.51 71.276c2.772 7.874 9.93 20.203 10.168 27.383-1.345 4.683-4.493 14.21-15.252 13.238z"/>
        <path fill="url(#linearGradient2032)" d="M119.08 21.808c7.262-14.581 31.959-7.728 42.767 12.288-1.001-3.912-3.568-20.935-22.5-27.835-14.298-1.738-19.277 7.556-20.267 15.547z"/>
        <path fill="#faa" d="M123.05 11.533c2.309-3.833 10.735-6.915 16.309-5.638 8.323 1.909 15.374 9.244 19.329 16.812 8.066 15.437 5.638 51.947 5.638 51.947s1.335-35.947-6.797-51.295c-3.736-7.051-10.008-14.295-17.69-16.457-5.219-1.469-11.34.743-16.79 4.631z"/>
        <path fill="url(#linearGradient2042)" d="M107.75 87.138h13.49c.13-13.023.839-25.755 0-39.262-.95-15.289-3.518-29.078 3.423-38.054-3.826 3.467-7.651 7.278-11.477 14.296-5.76 19.691-3.964 41.901-5.436 63.021z"/>
        <path fill="url(#linearGradient2006)" d="M185.07 246c-12.444-2.177-13.949-13.546-13.49-20.739 2.619-41.066 4.609-89.735 2.215-150.41l-11.678-43.088c.453 15.302 1.643 30.428 1.006 45.907-1.928 46.89-1.649 97.012 2.82 145.77.804 8.785 4.695 20.668 19.127 22.551z"/>
    </g>
    <path fill="none" stroke="#1a1a1a" stroke-linecap="square" stroke-linejoin="round" stroke-width="1.575" d="M94.09 175.8l42.569-.142"/>
    <path fill="none" stroke="#1a1a1a" stroke-linecap="square" stroke-linejoin="round" stroke-width=".788" d="M122.618 179.027l-.071 10.464"/>
    <path fill="none" stroke="#c83737" stroke-linecap="square" stroke-linejoin="round" stroke-width=".356" d="M127.478 186.327s.636-.439.848-.41c.213.03.884.527.884.527l.637-.585s-1.167-.351-1.414.088c-.248.439-.283 1.054.353.878.637-.176 1.273-.761 1.273-.761s.248-.088.424.146c.177.234.248.322.248.322m-5.463-.275s.257-.64.418-.511c.161.128.773 1.662.805 1.343.032-.32.145-.96.21-.96m2.507-1.992l.495-.907.283.937 1.485-1.054.318 1.17s.672-.673 1.025-.76c.354-.088-2.157.058-2.157.058s.354.878.602.79c.247-.087 2.828-.731 2.828-.731s.92 1.083.92.966c0-.117.884-1.259.884-1.259l-1.52.41s-.92.849-.673.849m-9.1-.889s.636-.439.848-.41c.213.03.884.527.884.527l.637-.585s-1.167-.351-1.414.088c-.248.439-.283 1.054.353.878.637-.176 1.273-.761 1.273-.761s.248-.088.424.146c.177.234.248.322.248.322m1.197-1.935l1.343-.38.39.995.671-.849m-6.764.154s.566-.585.92-.468c.353.117 1.696 1.522 1.767 1.23.07-.293.318-.879.46-.879m-2.847-1.663l.495-.907.283.937 1.485-1.054.318 1.17s.672-.673 1.025-.76c.354-.088-2.157.058-2.157.058s.354.878.602.79c.247-.087 2.828-.731 2.828-.731s.92 1.083.92.966c0-.117.884-1.259.884-1.259l-1.52.41s-.92.849-.673.849"/>
    <path fill="none" stroke="#1a1a1a" stroke-dasharray=".69507569,1.39015139" stroke-linecap="square" stroke-linejoin="round" stroke-width=".695" d="M93.667 198.94l14.209-.307m-14.36-4.123l14.209-.307m2.863 5.894l26.197-.213"/>
    <path fill="none" stroke="#1a1a1a" stroke-linecap="square" stroke-linejoin="round" stroke-width=".38" d="M94.334 186.147l.484-1.074.265 1.113 1.439-1.242.297 1.391s.652-.795.994-.897c.34-.103-2.078.057-2.078.057s.333 1.044.572.941c.24-.102 2.73-.852 2.73-.852s.877 1.29.878 1.15c0-.138.862-1.488.862-1.488l-1.468.478s-.892 1.002-.654 1.004m20.563-7.72s-1.522 1.258-1.718.803c-.196-.455-.33-.562-.33-.562s-.977 1.234-1.007 1.025c-.03-.209-1.757-.76-1.757-.76s1.241-.847 1.378-.88m-18.74 9.743l-1.302.43-.353-1.188-.666.996m21.635-6.838s-.623.51-.826.472c-.204-.038-.84-.64-.84-.64l-.626.684s1.116.437 1.364-.08.295-1.246-.321-1.048c-.617.198-1.243.882-1.243.882s-.24.1-.405-.181c-.165-.281-.231-.387-.231-.387m-6.402 4.108s-.355.793-.66.718c-.306-.074-1.077-.713-1.077-.713s-.563.963-.466 1.242c.097.28 1.162-.223 1.478-.703.315-.481.23-1.42-.46-.981-.689.44-1.824 1.045-1.993.972-.169-.072-1.112-.644-1.112-.644s-.798.785-.932.643m18.192-4.394s-1.747.526-1.914.349m-18.327 6.031s-.558.685-.896.54c-.338-.144-1.601-1.834-1.676-1.488-.074.346-.325 1.037-.461 1.034m22.494-2.086s-.666.996-.892.332c-.226-.664-.895-1.37-1.313-.857-.418.514-.734 1.03-.73.856.002-.173-.526-1.086-.526-1.086m-1.4.325l-.496 1.069-.252-1.117-1.453 1.226-.28-1.395s-.662.788-1.005.886c-.342.098 2.079-.033 2.079-.033s-.322-1.048-.562-.948c-.24.1-2.74.82-2.74.82s-.862-1.3-.865-1.161c-.002.139-.878 1.479-.878 1.479l1.473-.461s.904-.992.665-.996m2.245-3.819l-.465 1.083-.285-1.109-1.416 1.268-.322-1.386s-.638.806-.977.915c-.34.108 2.076-.094 2.076-.094s-.352-1.038-.59-.931c-.237.107-2.714.9-2.714.9s-.9-1.274-.898-1.136c.002.14-.835 1.504-.835 1.504l1.459-.504s.874-1.017.636-1.014m-13.466 3.434s1.498-1.285 1.703-.833c.204.451.34.555.34.555s.954-1.25.988-1.042c.034.209 1.77.73 1.77.73s-1.225.868-1.361.903m12.767-5.343l1.294-.451.375 1.18.647-1.007m-12.226 4.998s.613-.52.817-.486c.205.035.852.625.852.625l.613-.694s-1.124-.417-1.363.104c-.238.52-.272 1.25.34 1.042.614-.209 1.227-.903 1.227-.903s.238-.104.409.173c.17.278.238.383.238.383m-4.117-2.084s.34-.799.647-.73c.306.07 1.09.696 1.09.696s.545-.973.442-1.25c-.102-.279-1.158.242-1.464.729-.307.486-.204 1.424.477.972.68-.451 1.805-1.077 1.975-1.007.17.07 1.124.625 1.124.625s.783-.799.92-.66m-9.502-.005s1.737-.556 1.907-.382m9.158-2.148s.545-.695.885-.556c.34.14 1.635 1.807 1.703 1.46.068-.348.307-1.043.443-1.043m-7.491.169s.647-1.007.885-.347c.239.66.92 1.354 1.328.833.41-.52.716-1.042.716-.868 0 .174.545 1.077.545 1.077m-10.794-.515l.477-1.077.272 1.112 1.43-1.25.307 1.389s.647-.8.988-.903c.34-.104-2.078.07-2.078.07s.34 1.041.58.937c.237-.104 2.724-.868 2.724-.868s.885 1.285.885 1.146c0-.14.852-1.494.852-1.494l-1.465.486s-.885 1.008-.647 1.008"/>
    <path fill="#fff" d="M119.92 107.75c.149.308.29 1.043.461 1.872.068.333.134.635.192.819.095.298.286.83.493 1.399.252.691.554 1.51.821 2.202.33.856.613 1.503.738 1.823-.133-.34-.3-.963-.519-1.89-.17-.725-.358-1.568-.53-2.288a22.778 22.778 0 0 0-.38-1.444 6.835 6.835 0 0 0-.334-.784c-.237-.49-.705-1.218-.942-1.71zM117.36 92.659l-.484.204c.319.757.666 1.634.84 3.265.142 1.344.116 2.948.071 3.507.053-.66.342-2.048.453-3.514.123-1.61-.045-2.831-.396-3.666l-.484.204zM122.63 83.405c.19.235.232 1.142.304 1.399l.027.094c.104.365.215.81.273 1.503.086 1.034-.003 2.885-.035 3.268.048-.59.425-2.002.543-3.265.066-.71.031-1.269-.068-1.69a2.08 2.08 0 0 0-.028-.111c-.087-.305-.825-.963-1.016-1.198z"/>
    <path fill="#fff" stroke="#000" stroke-dasharray=".525,1.05" stroke-linecap="square" stroke-linejoin="round" stroke-width=".525" d="M108.32 77.069l12.956.142M108.53 74.72l12.956.142"/>
    <path fill="none" stroke="#ddafe9" stroke-linecap="round" stroke-linejoin="round" stroke-width=".798" d="M111.52 199.47c1.317-1.749 2.784-3.249 2.213-8.136 1.152 2.46 2.397 4.805 2.744 8.274l-4.92-3.881c2.111.233 4.924 1.853 6.333.7 2.892-2.368-.083-2.175-1.058-.49-.86 1.481-1.026 3.48 3.185 2.47 1.883-.451 1.173-3.186 1.034-6.29.467 3.203-1.213 7.008.514 6.48 2.012-.616 1.146-4.296 1.665-6.501-.028 2.305-2.137 5.86.461 6.536 1.898.493-.596-1.722 1.945-2.724-2.932.791.034 4.366.508-.208-.078 3.498-.025 3.67 1.113 2.694 1.247-1.07-.068-2.964 4.258-3.394-2.237.501-2.418.174-3.183 1.735-.485.99 3.293-1.056 2.831.196-.513 1.39-4.147 2.353-3.32 2.217.638-.104 3.248-.843 4.37-2.82l-.49 2.357 1.844-2.203c-.347 1.181-2.07 5.509-8.296 3.895 5.412 1.433 9.555-1.6 11.547-5.89-2.024.935-3.298 1.881-2.35 2.69 1.401.78 3.203-1.957 2.962-1.01-8.207 11.847-27.417 4.178-26.977 1.905m-10.285-.095l-1.108-1.41 2.618-.2-.05 2.164-1.863.05 4.077-2.063-.553 2.013s-1.812-.956-1.158-1.007c.654-.05 3.574-.453 3.574-.453l-1.208-.956.705 2.466 1.912-2.114m-13.138 1.71s1.107-1.359 1.359-1.258c.252.1.906 1.359.906 1.359l1.158-1.107m-2.92-3.574c0-.251 1.66-2.97 1.762-2.718.1.252 1.51 2.366.805 2.769-.705.402-2.215-1.259-1.913-1.31.302-.05 3.926.353 3.926.353s.353 2.014.151 1.309c-.201-.705.202-2.92.202-2.92s2.215 1.813 1.963 1.863c-.252.05-5.789.906-5.336.302.453-.604 5.99.705 5.99.705l1.36-1.913-.202 1.107s.856 1.46 1.057.957c.201-.504 1.46-2.165 1.46-2.165l.402 2.014"/>
    <path d="M121.117 172.541l-.321-.068a2.513 2.513 0 0 1-1.121-.547l.434-.533c.189.164.397.287.625.369.228.082.475.123.742.123.36 0 .639-.066.837-.199a.644.644 0 0 0 .297-.566v-.003a.598.598 0 0 0-.135-.412.8.8 0 0 0-.349-.226c-.142-.049-1.251-.273-1.459-.345a1.139 1.139 0 0 1-.535-.394c-.148-.191-.222-.461-.222-.812v-.003c0-.309.069-.57.207-.788a1.29 1.29 0 0 1 .604-.497c.264-.114.582-.172.954-.172.178 0 .353.02.525.059.172.039.342.097.509.173.168.076.333.173.494.288l-.396.555a2.282 2.282 0 0 0-.565-.313 1.635 1.635 0 0 0-.566-.104c-.339 0-.603.068-.792.204a.667.667 0 0 0-.282.575v.004c0 .171.048.306.145.403.097.098.218.17.362.217.145.047 1.282.304 1.483.388.202.085.371.221.506.409.136.188.204.444.204.771v.007c0 .303-.072.563-.215.777-.144.216-.352.38-.624.492-.272.113-.601.169-.986.169l-.36-.001zm-4.174 0l-.321-.068a2.513 2.513 0 0 1-1.121-.547l.434-.533c.189.164.397.287.625.369.228.082.475.123.742.123.36 0 .639-.066.837-.199a.644.644 0 0 0 .297-.566v-.003a.598.598 0 0 0-.135-.412.8.8 0 0 0-.349-.226c-.142-.049-1.251-.273-1.459-.345a1.139 1.139 0 0 1-.535-.394c-.148-.191-.222-.461-.222-.812v-.003c0-.309.069-.57.207-.788a1.29 1.29 0 0 1 .604-.497c.264-.114.582-.172.954-.172.178 0 .353.02.525.059.172.039.342.097.509.173.168.076.333.173.494.288l-.396.555a2.282 2.282 0 0 0-.565-.313 1.635 1.635 0 0 0-.566-.104c-.339 0-.603.068-.792.204a.667.667 0 0 0-.282.575v.004c0 .171.048.306.145.403.097.098.218.17.362.217.145.047 1.282.304 1.483.388.202.085.371.221.506.409.136.188.204.444.204.771v.007c0 .303-.072.563-.215.777-.144.216-.352.38-.624.492-.272.113-.601.169-.986.169l-.36-.001zm-2.365-.051h.752l-1.832-4.97h-.595l-1.832 4.97h.752l.375-1.09h2.006zm-2.152-1.754l.775-2.256.775 2.256zm-1.695-2.491a1.323 1.323 0 0 0-.524-.535 1.578 1.578 0 0 0-.783-.189H107.5v4.97h.697v-1.928h1.227c.296 0 .557-.063.783-.188.226-.126.4-.303.524-.532a1.64 1.64 0 0 0 .187-.798c0-.303-.062-.569-.187-.8zm-.622 1.247a.702.702 0 0 1-.661.407h-1.251v-1.716h1.251c.15 0 .283.036.396.107a.72.72 0 0 1 .265.303c.063.13.094.28.094.451 0 .17-.031.319-.094.448zm25.365-5.402h.827l-1.15-2.184c.087-.027.175-.053.253-.096.218-.119.388-.287.508-.505.12-.218.181-.469.181-.753 0-.285-.06-.536-.179-.754a1.24 1.24 0 0 0-.506-.504 1.554 1.554 0 0 0-.757-.178H132.678v4.973h.697v-2.102h1.038zm-2.099-4.311h1.303c.134 0 .252.032.354.096.102.064.18.155.235.272a.942.942 0 0 1 .084.405.926.926 0 0 1-.084.404.629.629 0 0 1-.589.367h-1.303zm-4.42 4.135a1.552 1.552 0 0 1-.613-.643 2.047 2.047 0 0 1-.217-.963V160.9c0-.364.072-.685.217-.962a1.57 1.57 0 0 1 .613-.643c.265-.151.57-.228.916-.228.347 0 .652.076.916.228.265.151.469.366.614.643.145.277.217.598.217.962v1.408c0 .365-.072.686-.217.963-.146.276-.35.491-.614.643a1.812 1.812 0 0 1-.916.227c-.346 0-.651-.076-.916-.227zm1.458-.599a.925.925 0 0 0 .362-.393c.086-.17.129-.366.129-.59v-1.456c0-.224-.043-.42-.129-.59a.925.925 0 0 0-.362-.393 1.036 1.036 0 0 0-.542-.139c-.205 0-.385.046-.541.139a.925.925 0 0 0-.362.393c-.086.17-.128.366-.128.59v1.456c0 .224.042.42.128.59.085.17.206.301.362.393.156.093.336.139.541.139.205 0 .387-.046.542-.139zm-4.834-3.532v4.307h.697v-4.307h1.405v-.663h-3.507v.663zm-3.941 4.358l-.391-.229a1.555 1.555 0 0 1-.607-.649 2.099 2.099 0 0 1-.215-.974v-1.364c0-.369.072-.694.215-.974a1.56 1.56 0 0 1 .607-.651 1.75 1.75 0 0 1 .907-.231c.285 0 .547.062.786.184s.439.294.6.518c.161.224.27.482.327.775h-.714a1.116 1.116 0 0 0-.574-.697.98.98 0 0 0-.424-.099.965.965 0 0 0-.533.147.966.966 0 0 0-.355.411 1.425 1.425 0 0 0-.126.617v1.364c0 .232.042.438.126.615a.967.967 0 0 0 .355.411.973.973 0 0 0 .533.146c.148 0 .29-.031.426-.092.135-.063.254-.153.355-.273.101-.121.173-.265.217-.432h.714a1.933 1.933 0 0 1-.328.776 1.665 1.665 0 0 1-.602.518 1.7 1.7 0 0 1-.783.183h-.516zm-2.342-.051h.752l-1.832-4.97h-.595l-1.832 4.97h.752l.375-1.09h2.006zm-2.152-1.754l.775-2.256.775 2.256zm-2.472 1.754h.827l-1.15-2.184c.087-.027.175-.053.253-.096a1.26 1.26 0 0 0 .508-.505c.121-.218.181-.469.181-.753 0-.285-.06-.536-.179-.754a1.247 1.247 0 0 0-.506-.504 1.554 1.554 0 0 0-.757-.178h-1.972v4.973h.697v-2.102h1.038zm-2.099-4.311h1.302c.134 0 .252.032.354.096.101.064.18.155.235.272a.928.928 0 0 1 .084.405.926.926 0 0 1-.084.404.629.629 0 0 1-.589.367h-1.302zm-4.887-.659v.663h1.404v4.307h.698v-4.307h1.404v-.663zm-3.801 4.966v-3.655l2.341 3.655h.639v-4.966h-.69v3.712l-2.348-3.712h-.633v4.966zm-4.413-.172a1.555 1.555 0 0 1-.614-.643 2.047 2.047 0 0 1-.217-.963V160.9c0-.364.072-.685.217-.962.145-.276.35-.491.614-.643.264-.152.57-.228.916-.228.346 0 .652.076.916.228.264.152.469.366.614.643.145.277.217.598.217.962v1.408c0 .365-.072.686-.217.963-.145.276-.35.491-.614.643-.264.152-.57.227-.916.227-.346 0-.652-.076-.916-.227zm1.458-.599a.925.925 0 0 0 .362-.393c.086-.17.128-.366.128-.59v-1.456c0-.224-.042-.42-.128-.59a.925.925 0 0 0-.362-.393 1.036 1.036 0 0 0-.542-.139c-.206 0-.386.046-.542.139a.925.925 0 0 0-.362.393c-.086.17-.128.366-.128.59v1.456c0 .224.042.42.128.59.085.17.206.301.362.393.156.093.336.139.542.139.206 0 .386-.046.542-.139zm-5.269.826l-.391-.229a1.555 1.555 0 0 1-.607-.649 2.099 2.099 0 0 1-.215-.974v-1.364c0-.369.072-.694.215-.974a1.56 1.56 0 0 1 .607-.651 1.75 1.75 0 0 1 .907-.231c.285 0 .547.062.786.184s.439.294.6.518c.161.224.27.482.327.775h-.714a1.116 1.116 0 0 0-.574-.697.98.98 0 0 0-.424-.099.965.965 0 0 0-.533.147.966.966 0 0 0-.355.411 1.425 1.425 0 0 0-.126.617v1.364c0 .232.042.438.126.615a.967.967 0 0 0 .355.411.973.973 0 0 0 .533.146c.148 0 .29-.031.426-.092.135-.063.254-.153.355-.273.101-.121.173-.265.217-.432h.714a1.933 1.933 0 0 1-.328.776 1.665 1.665 0 0 1-.602.518 1.7 1.7 0 0 1-.783.183h-.516z"/>
    <path fill="url(#linearGradient882)" d="M126.58 153.334a2 2 0 0 1-2 2H106.17a2 2 0 0 1-2-2v-20.841a2 2 0 0 1 2-2h18.411a2 2 0 0 1 2 2z"/>
    <path fill="#fff" d="M109.598 140.85l4.502.023-.945 2.638zm6.012-4.182l-1.506 4.201 2.956.016zm1.446 4.217l.87 2.534 3.464-2.514zm.87 2.534l-2.48 1.796 4.161 3.11zm-4.767.088l2.287 1.708-3.922 2.842zm10.65-8.834c.161-.576-.05-.75-.517-.75-.702 0-1.98.393-3.432.393-1.385 0-2.928-.357-4.277-1.759-1.395 1.491-3.013 1.886-4.467 1.886-1.646 0-3.079-.506-3.73-.506-.319 0-.452.119-.334.479 1.8 5.465-.682 7.66-.238 11.564.596 5.234 5.335 5.762 8.993 8.031 3.638-2.432 7.5-3.469 8.1-8.008v-.001c.514-3.898-1.589-6.001-.099-11.329zm-1.614 11.103l-.004.034c-.35 2.544-1.987 3.602-4.843 5.247-.52.299-1.051.605-1.59.936a39.085 39.085 0 0 0-2.123-1.039c-3.048-1.418-4.788-2.357-5.107-5.169-.143-1.264.097-2.341.376-3.589.38-1.709.802-3.598.335-6.188.562.09 1.198.16 1.877.16 1.706 0 3.21-.453 4.49-1.352 1.22.814 2.646 1.225 4.255 1.225.697 0 1.337-.073 1.901-.159-.457 2.599-.121 4.471.18 6.157.232 1.284.432 2.393.254 3.737z"/>
</svg>
