<?xml version="1.0" encoding="UTF-8" standalone="no"?>
<!-- Created with Inkscape (http://www.inkscape.org/) -->

<svg
   xmlns:dc="http://purl.org/dc/elements/1.1/"
   xmlns:cc="http://creativecommons.org/ns#"
   xmlns:rdf="http://www.w3.org/1999/02/22-rdf-syntax-ns#"
   xmlns:svg="http://www.w3.org/2000/svg"
   xmlns="http://www.w3.org/2000/svg"
   xmlns:xlink="http://www.w3.org/1999/xlink"
   xmlns:sodipodi="http://sodipodi.sourceforge.net/DTD/sodipodi-0.dtd"
   xmlns:inkscape="http://www.inkscape.org/namespaces/inkscape"
   viewBox="0 0 256 256"
   id="svg4166"
   version="1.1"
   inkscape:version="0.91 r13725"
   sodipodi:docname="ankle_shin_guards.svg">
  <style
     id="style3">
    svg { cursor: default; }
  </style>
  <defs
     id="defs4168">
    <linearGradient
       inkscape:collect="always"
       id="linearGradient4242">
      <stop
         style="stop-color:#666666;stop-opacity:1;"
         offset="0"
         id="stop4244" />
      <stop
         style="stop-color:#4d4d4d;stop-opacity:1"
         offset="1"
         id="stop4246" />
    </linearGradient>
    <linearGradient
       inkscape:collect="always"
       id="linearGradient4228">
      <stop
         style="stop-color:#4d4d4d;stop-opacity:1;"
         offset="0"
         id="stop4230" />
      <stop
         style="stop-color:#666666;stop-opacity:1"
         offset="1"
         id="stop4232" />
    </linearGradient>
    <inkscape:path-effect
       effect="powerstroke"
       id="path-effect4416"
       is_visible="true"
       offset_points="0.084694799,0.50738917"
       sort_points="true"
       interpolator_type="Linear"
       interpolator_beta="0.2"
       start_linecap_type="zerowidth"
       linejoin_type="round"
       miter_limit="4"
       end_linecap_type="zerowidth"
       cusp_linecap_type="round" />
    <inkscape:path-effect
       effect="powerstroke"
       id="path-effect4202"
       is_visible="true"
       offset_points="0,0.5"
       sort_points="true"
       interpolator_type="Linear"
       interpolator_beta="0.2"
       start_linecap_type="zerowidth"
       linejoin_type="round"
       miter_limit="4"
       end_linecap_type="zerowidth"
       cusp_linecap_type="round" />
    <inkscape:path-effect
       effect="powerstroke"
       id="path-effect4610"
       is_visible="true"
       offset_points="0.089858733,0.1462269"
       sort_points="true"
       interpolator_type="Linear"
       interpolator_beta="0.2"
       start_linecap_type="zerowidth"
       linejoin_type="round"
       miter_limit="4"
       end_linecap_type="zerowidth"
       cusp_linecap_type="round" />
    <inkscape:path-effect
       effect="powerstroke"
       id="path-effect4606"
       is_visible="true"
       offset_points="0.29328208,0.12562291"
       sort_points="true"
       interpolator_type="Linear"
       interpolator_beta="0.2"
       start_linecap_type="zerowidth"
       linejoin_type="round"
       miter_limit="4"
       end_linecap_type="zerowidth"
       cusp_linecap_type="round" />
    <inkscape:path-effect
       effect="powerstroke"
       id="path-effect4584-7"
       is_visible="true"
       offset_points="0.52899141,0.21496312"
       sort_points="true"
       interpolator_type="Linear"
       interpolator_beta="0.2"
       start_linecap_type="zerowidth"
       linejoin_type="round"
       miter_limit="4"
       end_linecap_type="zerowidth"
       cusp_linecap_type="round" />
    <inkscape:path-effect
       effect="powerstroke"
       id="path-effect4584"
       is_visible="true"
       offset_points="0.52899141,0.21496312"
       sort_points="true"
       interpolator_type="Linear"
       interpolator_beta="0.2"
       start_linecap_type="zerowidth"
       linejoin_type="round"
       miter_limit="4"
       end_linecap_type="zerowidth"
       cusp_linecap_type="round" />
    <inkscape:path-effect
       effect="powerstroke"
       id="path-effect4584-79"
       is_visible="true"
       offset_points="0.52899141,0.21496313"
       sort_points="true"
       interpolator_type="Linear"
       interpolator_beta="0.2"
       start_linecap_type="zerowidth"
       linejoin_type="round"
       miter_limit="4"
       end_linecap_type="zerowidth"
       cusp_linecap_type="round" />
    <inkscape:path-effect
       effect="powerstroke"
       id="path-effect4584-7-5"
       is_visible="true"
       offset_points="0.52899141,0.21496313"
       sort_points="true"
       interpolator_type="Linear"
       interpolator_beta="0.2"
       start_linecap_type="zerowidth"
       linejoin_type="round"
       miter_limit="4"
       end_linecap_type="zerowidth"
       cusp_linecap_type="round" />
    <inkscape:path-effect
       effect="powerstroke"
       id="path-effect4606-3"
       is_visible="true"
       offset_points="0.29328208,0.12562291"
       sort_points="true"
       interpolator_type="Linear"
       interpolator_beta="0.2"
       start_linecap_type="zerowidth"
       linejoin_type="round"
       miter_limit="4"
       end_linecap_type="zerowidth"
       cusp_linecap_type="round" />
    <inkscape:path-effect
       effect="powerstroke"
       id="path-effect4610-4"
       is_visible="true"
       offset_points="0.089858733,0.1462269"
       sort_points="true"
       interpolator_type="Linear"
       interpolator_beta="0.2"
       start_linecap_type="zerowidth"
       linejoin_type="round"
       miter_limit="4"
       end_linecap_type="zerowidth"
       cusp_linecap_type="round" />
    <linearGradient
       inkscape:collect="always"
       xlink:href="#linearGradient4228"
       id="linearGradient4234"
       x1="93.571434"
       y1="998.43359"
       x2="92.85714"
       y2="1028.6122"
       gradientUnits="userSpaceOnUse" />
    <linearGradient
       inkscape:collect="always"
       xlink:href="#linearGradient4242"
       id="linearGradient4248"
       x1="155.68976"
       y1="1021.1737"
       x2="132.83505"
       y2="997.18256"
       gradientUnits="userSpaceOnUse" />
  </defs>
  <sodipodi:namedview
     id="base"
     pagecolor="#ffffff"
     bordercolor="#666666"
     borderopacity="1.0"
     inkscape:pageopacity="0.0"
     inkscape:pageshadow="2"
     inkscape:zoom="1.4"
     inkscape:cx="216.87636"
     inkscape:cy="89.232659"
     inkscape:document-units="px"
     inkscape:current-layer="layer1"
     showgrid="false"
     units="px"
     inkscape:window-width="2560"
     inkscape:window-height="1388"
     inkscape:window-x="-8"
     inkscape:window-y="-8"
     inkscape:window-maximized="1" />
  <metadata
     id="metadata4171">
    <rdf:RDF>
      <cc:Work
         rdf:about="">
        <dc:format>image/svg+xml</dc:format>
        <dc:type
           rdf:resource="http://purl.org/dc/dcmitype/StillImage" />
        <dc:title></dc:title>
      </cc:Work>
    </rdf:RDF>
  </metadata>
  <g
     inkscape:label="Layer 1"
     inkscape:groupmode="layer"
     id="layer1"
     transform="translate(0,-796.36216)"
     style="display:inline">
    <g
       id="g4250"
       transform="translate(10.714286,-1.4285714)">
      <path
         sodipodi:nodetypes="ccccc"
         inkscape:connector-curvature="0"
         id="path4236"
         d="m 165.80357,818.43359 c -1.00285,-0.76086 -2.15571,-2.72185 -2.94643,-1.78572 -7.60541,10.68969 -17.47415,23.12136 -36.16071,27.58929 l 7.67857,4.46429 c 17.93778,-7.25903 27.28081,-17.77813 31.42857,-30.26786 z"
         style="fill:#ff8080;fill-opacity:1;fill-rule:evenodd;stroke:#000000;stroke-width:1px;stroke-linecap:butt;stroke-linejoin:miter;stroke-opacity:1" />
      <path
         sodipodi:nodetypes="ccscc"
         inkscape:connector-curvature="0"
         id="path4240"
         d="m 169.50893,1029.6836 c 0.35715,1.7857 -0.49107,4.375 -0.49107,4.375 -9.3921,7.5124 -26.20152,3.3639 -34.64286,-2.3214 -8.40349,-5.6598 -13.99945,-11.9227 -19.55357,-18.125 z"
         style="fill:#ff2a2a;fill-opacity:1;fill-rule:evenodd;stroke:#000000;stroke-width:1px;stroke-linecap:butt;stroke-linejoin:miter;stroke-opacity:1" />
      <path
         sodipodi:nodetypes="ccsccc"
         inkscape:connector-curvature="0"
         id="path4224"
         d="m 54.553572,853.9693 c -0.297414,-2.3145 0.08464,-4.6759 0.267857,-6.5625 8.431335,-13.31116 15.924281,-38.56975 37.209163,-38.62559 25.528928,-0.067 23.754728,25.39863 38.763238,35.07189 l 0.0377,6.82346 z"
         style="fill:#ff8080;fill-rule:evenodd;stroke:#000000;stroke-width:1px;stroke-linecap:butt;stroke-linejoin:miter;stroke-opacity:1" />
      <path
         sodipodi:nodetypes="ccccc"
         inkscape:connector-curvature="0"
         id="path4220"
         d="m 131.50923,984.80821 c 0.0631,0.31567 0.75762,8.14435 0.75762,8.14435 l -16.60438,18.37214 -3.66181,-11.42734 c 6.49846,-5.03513 8.65125,-15.41878 19.50857,-15.08915 z"
         style="fill:#1a1a1a;fill-rule:evenodd;stroke:#000000;stroke-width:1px;stroke-linecap:butt;stroke-linejoin:miter;stroke-opacity:1" />
      <path
         sodipodi:nodetypes="ccccccccc"
         inkscape:connector-curvature="0"
         id="path4218"
         d="m 116.42857,1000.755 c 5.11486,-5.63419 7.26593,-12.22934 17.23214,-16.51784 l 0.43704,-11.29824 33.96638,-134.85537 c 0.38145,-5.59793 0.17799,-11.19586 1.6415,-16.79379 l -4.9245,-3.40926 c -8.16631,16.90391 -22.82276,24.05404 -37.1231,28.66308 l -16.05089,82.42572 z"
         style="fill:#333333;fill-opacity:1;fill-rule:evenodd;stroke:#000000;stroke-width:1px;stroke-linecap:butt;stroke-linejoin:miter;stroke-opacity:1" />
      <path
         sodipodi:nodetypes="ccccsc"
         inkscape:connector-curvature="0"
         id="path4216"
         d="m 132.32998,988.40688 c -3.35994,5.28613 -7.60212,9.2911 -12.80547,14.07452 l 29.66239,30.4353 c 7.22736,-1.2475 16.16182,0.935 19.88739,-6.2503 0,0 0.6758,-4.7192 -1.70464,-7.0079 -11.33591,-10.8992 -35.03967,-31.25162 -35.03967,-31.25162 z"
         style="fill:url(#linearGradient4248);fill-opacity:1;fill-rule:evenodd;stroke:#000000;stroke-width:1px;stroke-linecap:butt;stroke-linejoin:miter;stroke-opacity:1" />
      <path
         sodipodi:nodetypes="ccccccc"
         inkscape:connector-curvature="0"
         id="path4214"
         d="m 120.20815,1001.9808 c 0.36658,0.3891 25.66079,25.5267 31.31473,26.7059 8.9542,2.0837 16.98319,-0.484 17.61454,-4.23 l 0.44194,6.2503 c -5.8176,7.9821 -17.82483,5.9942 -19.1929,5.2402 -18.21105,-3.9085 -27.98009,-15.4612 -33.71384,-24.0543 0.8494,-3.3314 0.22211,-6.787 3.53553,-9.9121 z"
         style="fill:#333333;fill-opacity:1;fill-rule:evenodd;stroke:#000000;stroke-width:1px;stroke-linecap:butt;stroke-linejoin:miter;stroke-opacity:1" />
      <path
         sodipodi:nodetypes="cssssscc"
         inkscape:connector-curvature="0"
         id="path4208"
         d="m 73.299195,991.24793 c -2.232435,-0.0554 -5.15938,-0.13081 -5.240167,3.40926 -0.146557,6.42211 0.810733,13.40891 -0.568211,19.25601 -5.599342,23.7425 2.050893,30.5906 25.695755,30.9991 20.418388,0.3528 29.926288,-7.1651 25.001278,-28.4106 -1.15701,-4.9911 -0.10057,-15.0782 -0.82075,-19.19285 -0.46206,-2.63993 -5.87151,-5.49271 -5.87151,-5.49271 z"
         style="fill:#ff2a2a;fill-rule:evenodd;stroke:#000000;stroke-width:1px;stroke-linecap:butt;stroke-linejoin:miter;stroke-opacity:1" />
      <path
         sodipodi:nodetypes="cscc"
         inkscape:connector-curvature="0"
         id="path4204"
         d="m 68.262102,983.73843 c -0.121939,3.15968 -0.957987,5.13351 0.899202,7.38905 1.986573,2.41267 4.433516,0.72521 8.070839,1.05611 z"
         style="fill:#ff5555;fill-rule:evenodd;stroke:#000000;stroke-width:1px;stroke-linecap:butt;stroke-linejoin:miter;stroke-opacity:1" />
      <path
         sodipodi:nodetypes="ccccc"
         inkscape:connector-curvature="0"
         id="path4200"
         d="m 72.5,989.50502 4.464286,1.42857 c 3.539545,2.99322 25.143164,0.44233 30.178574,-0.35714 4.26197,-0.39074 7.44503,-0.68898 6.29464,-2.81251 C 96.859823,975.91355 83.487849,975.666 72.5,989.50502 Z"
         style="fill:#1a1a1a;fill-rule:evenodd;stroke:#000000;stroke-width:1px;stroke-linecap:butt;stroke-linejoin:miter;stroke-opacity:1" />
      <path
         sodipodi:nodetypes="cscc"
         inkscape:connector-curvature="0"
         id="path4206"
         d="m 116.77936,984.48335 c 0.24594,2.98342 0.57475,7.47632 -1.59816,8.5083 -2.60898,1.23909 -8.71203,-0.71242 -14.10977,-2.23663 6.12671,-2.03987 11.09326,-4.3998 15.70793,-6.27167 z"
         style="fill:#ff5555;fill-rule:evenodd;stroke:#000000;stroke-width:1px;stroke-linecap:butt;stroke-linejoin:miter;stroke-opacity:1" />
      <path
         sodipodi:nodetypes="csssssssscsc"
         inkscape:connector-curvature="0"
         id="path4198"
         d="m 54.48595,852.91429 c 3.630952,66.48809 11.506318,63.23222 12.656907,80.87644 1.155758,17.72349 0.628107,34.52537 0.9375,51.78572 0.04841,2.70091 3.175273,4.31581 5.178571,3.57143 6.138867,-2.28109 10.600153,-7.90893 17.812501,-7.72322 6.895913,0.17756 13.381671,4.55081 21.517851,7.45536 2.42017,0.86398 4.73536,-1.80029 4.73215,-4.55357 -0.0189,-16.21807 -1.1218,-32.65293 0.35714,-48.57143 1.85057,-19.91847 13.0314,-33.94875 13.39286,-49.46429 0.33843,-14.5272 -0.11905,-26.66667 -0.17857,-40 -14.11148,-5.06946 -15.04838,-35.38591 -38.297229,-35.23985 -19.859999,0.12477 -26.359028,20.98996 -38.109681,41.86341 z"
         style="fill:#4d4d4d;fill-rule:evenodd;stroke:#000000;stroke-width:1px;stroke-linecap:butt;stroke-linejoin:miter;stroke-opacity:1" />
      <path
         sodipodi:nodetypes="cscc"
         inkscape:connector-curvature="0"
         id="path4210"
         d="m 68.3747,1020.4792 c -3.364413,12.3746 1.945557,21.4596 25.443218,21.7183 23.216482,0.2556 23.851332,-10.559 23.359782,-21.6551 z"
         style="fill:#333333;fill-rule:evenodd;stroke:#000000;stroke-width:1px;stroke-linecap:butt;stroke-linejoin:miter;stroke-opacity:1" />
      <path
         sodipodi:nodetypes="sssscsscsss"
         inkscape:connector-curvature="0"
         id="path4212"
         d="m 77.592343,971.6131 c -0.01893,5.44566 28.004107,4.05024 28.158007,-0.18941 l 1.95716,-53.91689 c 0.44705,-12.31557 12.66427,-17.35192 12.62691,-27.40039 0,0 0.11175,-22.64668 -0.12627,-33.96638 -3.83408,-10.48822 -18.59107,-33.22167 -22.665295,-33.14563 -5.755218,0.10741 -7.833675,10e-4 -10.963946,0.10523 -4.062553,0.1352 -21.262545,25.84212 -21.676608,33.0404 -0.264698,11.57233 0.378807,34.72399 0.378807,34.72399 0.105765,9.69514 12.539363,15.12418 12.500638,26.26397 z"
         style="fill:#ff8080;fill-rule:evenodd;stroke:#000000;stroke-width:1;stroke-linecap:butt;stroke-linejoin:miter;stroke-miterlimit:4;stroke-dasharray:none;stroke-opacity:1" />
      <path
         sodipodi:nodetypes="ssssssccs"
         inkscape:connector-curvature="0"
         id="path4222"
         d="m 166.5489,833.15906 -14.64721,13.25825 c -3.1004,2.80639 -8.93785,30.09934 -13.63706,45.07806 -1.01015,3.21986 -0.68815,15.66858 0.88388,19.5717 1.77788,4.41424 2.41315,8.90164 1.51523,13.25825 -2.86237,13.88786 -12.13748,43.92695 -13.25825,48.36106 -2.32436,9.19591 7.24714,3.42592 10.73287,-0.63135 4.12479,-27.82128 11.57573,-87.73309 32.82996,-138.01209 -1.72063,-2.89327 -3.33456,-1.86587 -4.41942,-0.88388 z"
         style="fill:#ff8080;fill-opacity:1;fill-rule:evenodd;stroke:#000000;stroke-width:1px;stroke-linecap:butt;stroke-linejoin:miter;stroke-opacity:1" />
      <path
         sodipodi:nodetypes="ssssssss"
         inkscape:connector-curvature="0"
         id="path4202"
         d="m 71.696429,993.88002 c 0.357046,7.23718 -3.20274,18.20138 -3.75,27.94648 -0.628238,11.187 11.777499,14.0006 24.910714,14.4642 23.583687,0.8326 25.420487,-9.0174 24.821427,-13.75 -1.19048,-9.4048 -2.15889,-14.6645 -3.39286,-26.83032 -0.33446,-3.29753 -5.21001,-1.89831 -10.53571,-6.56251 -2.03199,-1.7796 -19.219904,-1.94561 -21.071428,-0.53571 -4.489028,3.4183 -11.121313,2.44696 -10.982143,5.26786 z"
         style="fill:url(#linearGradient4234);fill-opacity:1;fill-rule:evenodd;stroke:#000000;stroke-width:1px;stroke-linecap:butt;stroke-linejoin:miter;stroke-opacity:1" />
      <path
         style="fill:#666666;fill-rule:evenodd;stroke:#000000;stroke-width:0.91932124;stroke-linecap:butt;stroke-linejoin:miter;stroke-miterlimit:4;stroke-dasharray:none;stroke-opacity:1"
         d="m 80.098366,969.51653 c -0.04088,5.17433 23.270854,3.97494 23.403494,-0.0537 l 1.74078,-52.87343 c 0.38529,-11.70268 12.14806,-16.48781 12.11481,-26.0359 0,0 0.0994,-21.51891 -0.1123,-32.2749 -3.4102,-9.96593 -16.53573,-31.56729 -20.159524,-31.49502 -5.118948,0.10205 -6.967619,9.5e-4 -9.751823,0.10001 -3.613415,0.12847 -18.911855,24.55523 -19.28014,31.39504 -0.235434,10.99605 0.336926,32.99478 0.336926,32.99478 0.09407,9.21236 12.212405,14.37129 12.128779,24.95608 z"
         id="path4226"
         inkscape:connector-curvature="0"
         sodipodi:nodetypes="sssscsscsss" />
      <path
         style="fill:#4d4d4d;fill-opacity:1;fill-rule:evenodd;stroke:#000000;stroke-width:0.94999999px;stroke-linecap:butt;stroke-linejoin:miter;stroke-opacity:1"
         d="m 170.83494,834.25207 c -0.78669,-1.94063 -10.45632,9.99929 -15.68448,14.99893 -2.87125,2.74576 -9.20523,28.4158 -13.31234,43.27059 -0.85431,3.08994 -1.10017,11.76016 0.39325,15.46812 1.68899,4.19353 2.56036,9.52798 1.70733,13.66676 -2.71925,13.19347 -11.97703,42.9806 -13.04177,47.19301 -2.20814,8.73611 3.75979,7.09391 7.07123,3.23951 z"
         id="path4238"
         inkscape:connector-curvature="0"
         sodipodi:nodetypes="cssssscc" />
    </g>
  </g>
</svg>
