<?xml version="1.0" encoding="UTF-8" standalone="no"?>
<!-- Created with Inkscape (http://www.inkscape.org/) -->

<svg
   xmlns:dc="http://purl.org/dc/elements/1.1/"
   xmlns:cc="http://creativecommons.org/ns#"
   xmlns:rdf="http://www.w3.org/1999/02/22-rdf-syntax-ns#"
   xmlns:svg="http://www.w3.org/2000/svg"
   xmlns="http://www.w3.org/2000/svg"
   xmlns:sodipodi="http://sodipodi.sourceforge.net/DTD/sodipodi-0.dtd"
   xmlns:inkscape="http://www.inkscape.org/namespaces/inkscape"
   viewBox="0 0 256 256"
   id="svg4164"
   version="1.1"
   inkscape:version="0.91 r13725"
   sodipodi:docname="chest_bikini.svg">
  <style
     id="style3">
    svg { cursor: default;}
  </style>
  <defs
     id="defs4166">
    <inkscape:path-effect
       effect="powerstroke"
       id="path-effect4255"
       is_visible="true"
       offset_points="0.088828796,0.39810203"
       sort_points="true"
       interpolator_type="Linear"
       interpolator_beta="0.2"
       start_linecap_type="zerowidth"
       linejoin_type="round"
       miter_limit="4"
       end_linecap_type="zerowidth"
       cusp_linecap_type="round" />
    <inkscape:path-effect
       effect="powerstroke"
       id="path-effect4203"
       is_visible="true"
       offset_points="0.81276062,-1.286815"
       sort_points="true"
       interpolator_type="Linear"
       interpolator_beta="0.2"
       start_linecap_type="zerowidth"
       linejoin_type="round"
       miter_limit="4"
       end_linecap_type="zerowidth"
       cusp_linecap_type="round" />
    <inkscape:path-effect
       effect="powerstroke"
       id="path-effect4199"
       is_visible="true"
       offset_points="0.28308433,1.1604326"
       sort_points="true"
       interpolator_type="Linear"
       interpolator_beta="0.2"
       start_linecap_type="zerowidth"
       linejoin_type="round"
       miter_limit="4"
       end_linecap_type="zerowidth"
       cusp_linecap_type="round" />
    <marker
       inkscape:stockid="Arrow1Lstart"
       orient="auto"
       refY="0.0"
       refX="0.0"
       id="Arrow1Lstart"
       style="overflow:visible"
       inkscape:isstock="true">
      <path
         id="path4233"
         d="M 0.0,0.0 L 5.0,-5.0 L -12.5,0.0 L 5.0,5.0 L 0.0,0.0 z "
         style="fill-rule:evenodd;stroke:#000000;stroke-width:1pt;stroke-opacity:1;fill:#000000;fill-opacity:1"
         transform="scale(0.8) translate(12.5,0)" />
    </marker>
    <inkscape:path-effect
       effect="powerstroke"
       id="path-effect4203-4"
       is_visible="true"
       offset_points="0.45408377,-0.95413935"
       sort_points="true"
       interpolator_type="Linear"
       interpolator_beta="0.2"
       start_linecap_type="zerowidth"
       linejoin_type="round"
       miter_limit="4"
       end_linecap_type="zerowidth"
       cusp_linecap_type="round" />
    <inkscape:path-effect
       effect="powerstroke"
       id="path-effect4199-7"
       is_visible="true"
       offset_points="0.88158867,1.1916301"
       sort_points="true"
       interpolator_type="Linear"
       interpolator_beta="0.2"
       start_linecap_type="zerowidth"
       linejoin_type="round"
       miter_limit="4"
       end_linecap_type="zerowidth"
       cusp_linecap_type="round" />
  </defs>
  <sodipodi:namedview
     id="base"
     pagecolor="#ffffff"
     bordercolor="#666666"
     borderopacity="1.0"
     inkscape:pageopacity="0.0"
     inkscape:pageshadow="2"
     inkscape:zoom="0.70000001"
     inkscape:cx="475.7786"
     inkscape:cy="300.43329"
     inkscape:document-units="px"
     inkscape:current-layer="layer1"
     showgrid="false"
     units="px"
     inkscape:window-width="2560"
     inkscape:window-height="1388"
     inkscape:window-x="-8"
     inkscape:window-y="-8"
     inkscape:window-maximized="1" />
  <metadata
     id="metadata4169">
    <rdf:RDF>
      <cc:Work
         rdf:about="">
        <dc:format>image/svg+xml</dc:format>
        <dc:type
           rdf:resource="http://purl.org/dc/dcmitype/StillImage" />
        <dc:title></dc:title>
      </cc:Work>
    </rdf:RDF>
  </metadata>
  <g
     inkscape:label="Layer 1"
     inkscape:groupmode="layer"
     id="layer1"
     transform="translate(0,-796.36219)">
    <g
       id="g4375"
       transform="matrix(0.729,0,0,0.729,30.842389,262.05474)">
      <path
         sodipodi:nodetypes="ccccccc"
         inkscape:connector-curvature="0"
         id="path4337"
         d="m 128.00508,1064.2344 c -2.46851,6.24 6.20334,11.2592 9.40563,16.8778 l 3.92857,-5.1786 -4.02234,-2.2717 -0.62051,0.04 c -2.33248,-3.6184 -6.84147,-5.1243 -6.63237,-11.2095 z"
         style="fill:#ff8080;fill-rule:evenodd;stroke:#000000;stroke-width:1px;stroke-linecap:butt;stroke-linejoin:miter;stroke-opacity:1" />
      <path
         sodipodi:nodetypes="ccsccsc"
         inkscape:connector-curvature="0"
         id="path4335"
         d="m 127.5,1065.8443 c 0.18435,-0.2295 0.15484,-4.6749 0.53571,-6.0714 2.70106,-2.1951 8.90107,-3.6 11.00447,-10.0785 0.5179,-1.5951 -0.52338,-3.2063 -1.09561,-4.8025 1.73032,0.6905 2.41968,1.4611 3.07904,2.234 0.79357,2.2619 0.61704,4.3694 -0.625,6.6519 -1.50935,2.7737 -8.39074,6.1002 -12.89861,12.0665 z"
         style="fill:#ffd5d5;fill-rule:evenodd;stroke:#000000;stroke-width:1px;stroke-linecap:butt;stroke-linejoin:miter;stroke-opacity:1" />
      <path
         sodipodi:nodetypes="cccccc"
         inkscape:connector-curvature="0"
         id="path4333"
         d="m 124.99721,1039.8243 c 1.22787,1.2028 7.94903,1.6618 11.25279,2.0915 2.4649,1.7178 4.71419,3.113 4.75736,5.073 l -5.5925,-2.3728 c -4.68594,0.045 -4.80365,1.6248 -9.27489,-0.015 z"
         style="fill:#ff8080;fill-rule:evenodd;stroke:#000000;stroke-width:1px;stroke-linecap:butt;stroke-linejoin:miter;stroke-opacity:1" />
      <path
         sodipodi:nodetypes="cccccc"
         inkscape:connector-curvature="0"
         id="path4331"
         d="m 133.55611,1028.752 c -0.85228,3.6784 -6.60269,6.4777 -10.07397,9.7709 0.13782,4.5749 1.77292,4.2089 2.67857,6.25 -0.0249,-1.9659 -1.10933,-3.5786 0.44643,-6.0714 2.47717,-2.0086 9.30861,-3.2239 7.42511,-6.029 z"
         style="fill:#ffaaaa;fill-rule:evenodd;stroke:#000000;stroke-width:1px;stroke-linecap:butt;stroke-linejoin:miter;stroke-opacity:1" />
      <path
         sodipodi:nodetypes="cccccc"
         inkscape:connector-curvature="0"
         id="path4329"
         d="m 124.17832,1019.6809 c -0.22904,1.0655 6.41741,7.5145 9.27767,9.3515 l 0.625,5.4465 c 1.34896,-1.1631 1.60384,-2.7322 1.09758,-5.5096 -2.30067,-3.5209 -4.64984,-7.0903 -6.875,-10.5357 z"
         style="fill:#ff8080;fill-rule:evenodd;stroke:#000000;stroke-width:1px;stroke-linecap:butt;stroke-linejoin:miter;stroke-opacity:1" />
      <path
         sodipodi:nodetypes="ccccc"
         inkscape:connector-curvature="0"
         id="path4327"
         d="m 103.97322,1062.2283 c -3.01126,2.237 7.47023,9.1964 11.20535,13.7946 l 0.625,-6.25 c -3.49309,-3.0322 -8.79462,-4.4463 -10.26786,-9.2857 z"
         style="fill:#ff8080;fill-rule:evenodd;stroke:#000000;stroke-width:1px;stroke-linecap:butt;stroke-linejoin:miter;stroke-opacity:1" />
      <path
         sodipodi:nodetypes="ccccc"
         inkscape:connector-curvature="0"
         id="path4325"
         d="m 121.42857,1049.773 c -4.1919,4.7943 -10.23607,5.4211 -15.35714,8.1249 0,0 -2.99332,2.1693 -2.68353,5.1051 0.35715,0 17.14286,-8.3482 17.14286,-8.3482 z"
         style="fill:#ffaaaa;fill-rule:evenodd;stroke:#000000;stroke-width:1px;stroke-linecap:butt;stroke-linejoin:miter;stroke-opacity:1" />
      <path
         sodipodi:nodetypes="cscccscc"
         inkscape:connector-curvature="0"
         id="path4323"
         d="m 106.00558,1038.9351 c 0,1.4267 1.65689,4.7081 1.94085,4.8557 1.50419,0.7818 12.59437,5.3494 12.76785,8.125 l -0.4241,2.7678 c 2.56625,-0.9451 2.67871,-4.1964 2.65625,-5.9821 -4.10714,-6.0417 -8.41156,-6.1759 -10.71429,-9.2857 -2.35652,-3.1824 -1.43324,-3.2481 -2.14286,-4.8661 z"
         style="fill:#ff8080;fill-rule:evenodd;stroke:#000000;stroke-width:1px;stroke-linecap:butt;stroke-linejoin:miter;stroke-opacity:1" />
      <path
         sodipodi:nodetypes="csccc"
         inkscape:connector-curvature="0"
         id="path4313"
         d="m 116.07143,1012.4515 c -0.0893,-0.3572 -1.10773,-2.3795 0.35714,-3.5714 1.14616,-0.9325 1.60441,-1.128 4.28571,-3.7054 1.55007,1.2158 5.29699,-0.916 4.55358,3.7946 -1.15435,1.3644 -6.23337,4.237 -9.19643,3.4822 z"
         style="fill:#ff2a2a;fill-rule:evenodd;stroke:#000000;stroke-width:1px;stroke-linecap:butt;stroke-linejoin:miter;stroke-opacity:1" />
      <path
         sodipodi:nodetypes="ccccc"
         inkscape:connector-curvature="0"
         id="path4307"
         d="m 95.892856,1004.1033 c 5.358464,-0.6234 32.452264,-0.1859 28.660714,4.4643 l 4.82143,-4.5983 c -1.23145,-1.7169 3.86336,-3.3917 -21.25,-5.26782 z"
         style="fill:#ff5555;fill-rule:evenodd;stroke:#000000;stroke-width:1px;stroke-linecap:butt;stroke-linejoin:miter;stroke-opacity:1" />
      <path
         sodipodi:nodetypes="ccccc"
         inkscape:connector-curvature="0"
         id="path4309"
         d="m 156.51786,1003.8801 c -0.35715,0 -7.18696,-2.9924 -7.18696,-2.9924 0,0 -19.61877,-1.73881 -20.29324,3.0681 -1.01079,1.2684 -0.51372,1.7039 -1.98409,3.585 8.73729,-4.4133 19.62538,-2.5075 29.46429,-3.6607 z"
         style="fill:#ff5555;fill-rule:evenodd;stroke:#000000;stroke-width:1px;stroke-linecap:butt;stroke-linejoin:miter;stroke-opacity:1" />
      <path
         sodipodi:nodetypes="ccssccc"
         inkscape:connector-curvature="0"
         id="path4305"
         d="M 136.42857,990.75505 128.75,988.16576 c 0,0 2.93188,-5.9707 3.57143,-9.19643 5.74825,-28.99288 15.35152,-41.09496 21.96428,-49.46428 5.54074,-7.01253 21.33929,-19.37501 21.33929,-19.37501 l 4.55357,9.19643 c -9.20966,29.25922 -39.19011,49.88055 -43.75,71.42858 z"
         style="fill:#ffd5d5;fill-rule:evenodd;stroke:#000000;stroke-width:1px;stroke-linecap:butt;stroke-linejoin:miter;stroke-opacity:1" />
      <path
         sodipodi:nodetypes="cssssccssccc"
         inkscape:connector-curvature="0"
         id="path4299"
         d="m 25.535714,989.32648 c 6.499137,-8.2708 7.983003,-18.13013 10.52674,-27.5 5.535715,-20.39083 8.777356,-24.00725 15.975798,-35.50136 5.235189,-8.35928 8.368955,-12.31475 11.354604,-18.42721 2.975987,-6.09268 3.647039,-10.98031 24.864757,-40.35343 10.037318,-13.89533 32.635247,-39.99103 32.635247,-39.99103 1.9514,0.74805 3.334,1.36863 5.59699,2.73985 0,0 -12.89257,16.0936 -20.59699,24.59953 -10.813164,11.93809 -21.261276,28.30264 -29.107147,39.07651 -4.608441,6.32827 -10,21.24999 -10,21.24999 l -28.92857,79.46429 z"
         style="fill:#ffd5d5;fill-rule:evenodd;stroke:#000000;stroke-width:1px;stroke-linecap:butt;stroke-linejoin:miter;stroke-opacity:1" />
      <path
         sodipodi:nodetypes="csssccsccc"
         inkscape:connector-curvature="0"
         id="path4301"
         d="m 220,990.66576 c -4.71396,-10.25676 -5.95954,-18.62477 -8.75,-28.66071 -1.81924,-6.5429 -13.55403,-26.80876 -16.16072,-30.17857 C 184.593,918.25735 184.14161,920.23219 181.07143,913.25505 176.11624,901.99413 148.1185,854.91426 132.5,837.00505 l -3.92857,7.14286 c 12.50223,13.28362 41.14377,57.62965 41.60714,58.39285 4.55356,7.50001 8.03571,16.78572 8.03571,16.78572 l 34.10715,73.03571 c 1.55741,-0.8518 4.47094,-1.31612 7.67857,-1.69643 z"
         style="fill:#ffd5d5;fill-rule:evenodd;stroke:#000000;stroke-width:1px;stroke-linecap:butt;stroke-linejoin:miter;stroke-opacity:1" />
      <path
         sodipodi:nodetypes="ccssccc"
         inkscape:connector-curvature="0"
         id="path4303"
         d="m 115.71428,989.68362 9.10715,-1.60714 c -1.67037,-0.92798 -2.83609,-13.62878 -5.98215,-23.30358 -4.23296,-13.01723 -16.39664,-27.08039 -28.303567,-39.99999 -5.758921,-6.24872 -20.267857,-17.76786 -20.267857,-17.76786 l -3.660714,8.21428 z"
         style="fill:#ffd5d5;fill-rule:evenodd;stroke:#000000;stroke-width:1px;stroke-linecap:butt;stroke-linejoin:miter;stroke-opacity:1" />
      <path
         sodipodi:nodetypes="ccssssssccccccc"
         inkscape:connector-curvature="0"
         id="path4297"
         d="m 20.982143,989.7729 c -0.313496,2.45834 -0.897807,4.86981 -0.267858,8.03572 0,0 8.292423,-1.86737 12.053571,-0.44643 17.557137,6.63301 33.220259,12.05041 50.969773,9.55491 18.402461,-2.5873 29.271251,-12.4152 42.512371,-13.30491 6.38821,-0.42924 9.80235,2.80628 18.03571,6.60711 17.70192,8.1719 32.98208,13.1506 58.39286,3.3929 3.14442,-1.2075 8.45736,-4.04867 12.79726,-4.98047 6.28328,-1.34906 11.30988,-0.55525 11.30988,-0.55525 0.72259,-2.19823 0.42403,-4.90703 0,-7.67857 -9.27467,-0.0453 -10.1786,0.44642 -15.17857,1.87499 l -74.46428,-1.51785 c -7.91709,-4.48536 -17.28049,-2.49409 -21.78572,-1.07143 l -80.178569,1.42857 c -5.504317,-1.04308 -9.094254,-2.27493 -14.196428,-1.33929 z"
         style="fill:#ffaaaa;fill-rule:evenodd;stroke:#000000;stroke-width:1px;stroke-linecap:butt;stroke-linejoin:miter;stroke-opacity:1" />
      <path
         sodipodi:nodetypes="csscsscssc"
         inkscape:connector-curvature="0"
         id="path4293"
         d="m 116.33929,989.50504 c -6.41256,2.8965 -7.43234,6.97597 -11.51786,8.75001 -27.485972,11.93515 -42.473801,8.74625 -55.892859,-1.51786 -5.846212,-4.47169 -9.315477,-4.43452 -14.107143,-5.80357 0,0 3.740182,-2.06303 4.455312,-27.3954 0.374761,-13.27532 8.997965,-28.20515 13.549764,-34.24238 2.174499,-2.88413 14.26518,-14.12768 13.959209,-14.43365 0.464349,0.34826 17.563437,7.16237 21.785714,11.60714 9.332665,9.82446 29.752473,31.70337 30.000003,46.60715 0.0702,4.22941 -2.23214,16.42856 -2.23214,16.42856 z"
         style="fill:#ff8080;fill-rule:evenodd;stroke:#000000;stroke-width:1px;stroke-linecap:butt;stroke-linejoin:miter;stroke-opacity:1" />
      <path
         sodipodi:nodetypes="csscsscssc"
         inkscape:connector-curvature="0"
         id="path4295"
         d="m 136.60714,990.57648 c 0,0 -1.24427,-6.52752 -0.89286,-9.10714 3.88855,-28.54506 10.37684,-38.35583 23.92858,-52.85715 4.00555,-4.28622 12.13693,-7.67779 18.74999,-9.10714 0.67086,2.01259 13.75286,12.20562 15,13.57143 3.73578,4.09122 15.03519,25.06966 15.89286,28.21428 1.47889,5.42229 3.57143,31.07143 3.57143,31.07143 -5.17857,3.15477 -5.13568,3.28659 -15.53571,9.46431 -7.13768,4.2399 -14.64286,5.0983 -22.5,5 -16.73929,-0.2093 -28.24239,-7.8744 -38.21429,-16.25002 z"
         style="fill:#ff8080;fill-rule:evenodd;stroke:#000000;stroke-width:1px;stroke-linecap:butt;stroke-linejoin:miter;stroke-opacity:1" />
      <path
         sodipodi:nodetypes="ccccc"
         inkscape:connector-curvature="0"
         id="path4319"
         d="m 121.51786,1020.3533 c 0.83333,1.9196 2.08082,0.4596 2.5,5.7589 -2.21217,1.7263 -4.07739,3.3333 -6.60715,5.4464 9.6917,-2.7062 9.32794,-4.2231 7.09822,-12.1874 z"
         style="fill:#ff8080;fill-rule:evenodd;stroke:#000000;stroke-width:1px;stroke-linecap:butt;stroke-linejoin:miter;stroke-opacity:1" />
      <path
         sodipodi:nodetypes="ccccc"
         inkscape:connector-curvature="0"
         id="path4315"
         d="m 115.35714,1014.3265 c -3.17958,3.2198 0.1278,4.5317 0.53572,6.6964 2.62868,2.054 8.86905,-1.3095 13.30357,-1.9643 l -0.35715,-4.2857 z"
         style="fill:#ff5555;fill-rule:evenodd;stroke:#000000;stroke-width:1px;stroke-linecap:butt;stroke-linejoin:miter;stroke-opacity:1" />
      <path
         sodipodi:nodetypes="ccccc"
         inkscape:connector-curvature="0"
         id="path4311"
         d="m 132.5,1005.5318 -3.03572,10.5804 c -4.67262,0.4173 -9.34524,-1.3503 -14.01785,-2.0982 -1.43946,-2.6319 5.95723,-4.6171 9.01785,-6.9197 2.67857,-0.1786 6.49541,-1.9531 8.03572,-1.5625 z"
         style="fill:#ff8080;fill-rule:evenodd;stroke:#000000;stroke-width:1px;stroke-linecap:butt;stroke-linejoin:miter;stroke-opacity:1" />
      <path
         sodipodi:nodetypes="ccccc"
         inkscape:connector-curvature="0"
         id="path4321"
         d="m 122.32143,1027.3622 c -4.22619,1.0119 -10.6944,2.0869 -12.67857,3.0357 -1.72835,2.2925 -4.07096,3.4963 -3.66072,8.2143 3.8089,-2.232 2.7451,-3.6449 11.65178,-7.1428 z"
         style="fill:#ffaaaa;fill-rule:evenodd;stroke:#000000;stroke-width:1px;stroke-linecap:butt;stroke-linejoin:miter;stroke-opacity:1" />
      <path
         inkscape:connector-curvature="0"
         id="path4339"
         d="m 135.26574,1078.058 1.9256,-4.1038"
         style="fill:none;fill-rule:evenodd;stroke:#000000;stroke-width:1px;stroke-linecap:butt;stroke-linejoin:miter;stroke-opacity:1" />
      <path
         inkscape:connector-curvature="0"
         id="path4341"
         d="m 112.37947,1072.8809 c 0.0631,-0.1578 1.45209,-4.4194 1.45209,-4.4194"
         style="fill:none;fill-rule:evenodd;stroke:#000000;stroke-width:1px;stroke-linecap:butt;stroke-linejoin:miter;stroke-opacity:1" />
      <path
         sodipodi:nodetypes="ccccc"
         inkscape:connector-curvature="0"
         id="path4345"
         d="m 149.68749,811.46934 c 4.08473,-0.38245 14.60448,8.72132 15.17858,9.28571 l -3.08036,3.21428 c -5.39015,0.014 -8.58063,-4.12113 -17.41071,-9.10714 z"
         style="fill:#ffd5d5;fill-rule:evenodd;stroke:#000000;stroke-width:1px;stroke-linecap:butt;stroke-linejoin:miter;stroke-opacity:1" />
      <path
         sodipodi:nodetypes="ccccc"
         inkscape:connector-curvature="0"
         id="path4343"
         d="m 120.26786,839.59433 c 0.35714,0.26786 7.72321,4.77679 7.72321,4.77679 8.21909,-16.03142 10.94815,-23.67106 21.5625,-32.90178 l -13.39286,3.83928 c -8.27716,12.77738 -10.59523,16.19047 -15.89285,24.28571 z"
         style="fill:#ffaaaa;fill-rule:evenodd;stroke:#000000;stroke-width:1px;stroke-linecap:butt;stroke-linejoin:miter;stroke-opacity:1" />
      <path
         sodipodi:nodetypes="ccccc"
         inkscape:connector-curvature="0"
         id="path4347"
         d="m 162.05357,823.83541 c 4.32302,-4.46995 5.94993,-6.76319 10.53571,-14.82143 4.13635,-2.83947 10.68453,-4.88095 11.60715,-4.50893 -5.57327,7.05778 -8.86221,12.36872 -12.5,17.94643 -3.12155,0.82125 -6.75937,1.39587 -9.64286,1.38393 z"
         style="fill:#ffaaaa;fill-rule:evenodd;stroke:#000000;stroke-width:1px;stroke-linecap:butt;stroke-linejoin:miter;stroke-opacity:1" />
      <path
         sodipodi:nodetypes="cscccc"
         inkscape:connector-curvature="0"
         id="path4349"
         d="m 180.17857,810.93362 c 2.53579,-0.38015 10.20683,5.03521 13.39286,5.26786 3.47702,0.2539 2.83665,-0.1472 5.625,-0.35714 l 1.88227,-3.55518 c -9.79106,-1.93307 -10.49139,-5.11167 -17.0162,-7.69482 z"
         style="fill:#ffd5d5;fill-rule:evenodd;stroke:#000000;stroke-width:1px;stroke-linecap:butt;stroke-linejoin:miter;stroke-opacity:1" />
      <path
         sodipodi:nodetypes="ccccc"
         inkscape:connector-curvature="0"
         id="path4353"
         d="m 213.20345,791.50276 c 2.57646,-3.88429 16.84886,17.99924 20.01083,20.23443 -2.22126,1.7951 -3.59068,3.78677 -6.78571,5.35715 -5.26786,-6.75595 -7.69512,-15.07913 -15.80357,-20.26786 z"
         style="fill:#ffd5d5;fill-rule:evenodd;stroke:#000000;stroke-width:1px;stroke-linecap:butt;stroke-linejoin:miter;stroke-opacity:1" />
      <path
         sodipodi:nodetypes="ccccc"
         inkscape:connector-curvature="0"
         id="path4351"
         d="m 199.3326,815.76046 c 0.87852,-1.74606 5.0098,-16.50298 4.59597,-19.73755 2.6581,-2.29913 5.46598,-3.06219 8.88076,-4.35241 -1.5573,6.54847 -2.63464,10.4837 -4.41648,19.35241 -3.10426,1.53709 -5.59982,4.8626 -9.06025,4.73755 z"
         style="fill:#ffaaaa;fill-rule:evenodd;stroke:#000000;stroke-width:1px;stroke-linecap:butt;stroke-linejoin:miter;stroke-opacity:1" />
      <path
         sodipodi:nodetypes="ccccc"
         inkscape:connector-curvature="0"
         id="path4357"
         d="m 110.10663,809.0417 c -0.36635,-3.58838 8.44726,-4.427 13.00571,-8.64943 l 1.95717,6.12405 c -4.7716,5.45857 -6.55435,2.30329 -13.44766,7.07107 z"
         style="fill:#ffd5d5;fill-rule:evenodd;stroke:#000000;stroke-width:1px;stroke-linecap:butt;stroke-linejoin:miter;stroke-opacity:1" />
      <path
         sodipodi:nodetypes="ccccc"
         inkscape:connector-curvature="0"
         id="path4355"
         d="m 116.92516,831.95953 c -4.90611,-4.00545 -7.70243,-9.66858 -9.28078,-16.2887 0.73184,-2.35635 0.69059,-4.60225 2.20971,-7.07107 3.1411,6.433 6.0682,12.9049 11.74302,18.87722 z"
         style="fill:#ffaaaa;fill-rule:evenodd;stroke:#000000;stroke-width:1px;stroke-linecap:butt;stroke-linejoin:miter;stroke-opacity:1" />
      <path
         sodipodi:nodetypes="ccccc"
         inkscape:connector-curvature="0"
         id="path4361"
         d="m 124.15406,782.5252 c 1.59402,-0.93392 6.32495,3.39208 18.46685,3.72493 0,0 -1.73619,3.85121 -4.07218,5.74524 -1.85113,1.5895 -14.50231,-1.22677 -14.86818,-0.56821 z"
         style="fill:#ffd5d5;fill-rule:evenodd;stroke:#000000;stroke-width:1px;stroke-linecap:butt;stroke-linejoin:miter;stroke-opacity:1" />
      <path
         sodipodi:nodetypes="ccccc"
         inkscape:connector-curvature="0"
         id="path4359"
         d="m 125.10332,806.45701 c -1.15709,-5.51587 -4.07676,-11.02174 -7.60995,-16.41881 1.43671,-2.8875 5.39586,-7.27233 6.25032,-7.44987 1.96956,4.48495 3.51598,8.54676 5.27397,12.82014 -1.30478,3.68285 -1.83574,9.10679 -3.91434,11.04854 z"
         style="fill:#ffaaaa;fill-rule:evenodd;stroke:#000000;stroke-width:1px;stroke-linecap:butt;stroke-linejoin:miter;stroke-opacity:1" />
      <path
         sodipodi:nodetypes="ccccc"
         inkscape:connector-curvature="0"
         id="path4365"
         d="m 148.30554,767.6191 c -0.12627,0.37881 0.18688,6.63547 0.18688,6.63547 5.71763,2.26232 8.73076,2.56789 12.2852,0.38767 l 0.15231,-4.74395 c -4.19325,-0.5886 -8.52588,-4.43801 -12.62439,-2.27919 z"
         style="fill:#ffd5d5;fill-rule:evenodd;stroke:#000000;stroke-width:1px;stroke-linecap:butt;stroke-linejoin:miter;stroke-opacity:1" />
      <path
         sodipodi:nodetypes="ccccc"
         inkscape:connector-curvature="0"
         id="path4363"
         d="m 140.4112,789.8488 c 1.5063,-5.87077 0.55552,-11.53678 -0.75761,-17.17259 1.76801,-2.96001 5.94488,-4.46716 8.39689,-5.05076 -0.19239,5.04482 0.69672,10.02601 -0.57719,15.13445 -2.60846,2.47685 -3.2857,3.86882 -7.06209,7.0889 z"
         style="fill:#ffaaaa;fill-rule:evenodd;stroke:#000000;stroke-width:1px;stroke-linecap:butt;stroke-linejoin:miter;stroke-opacity:1" />
      <path
         sodipodi:nodetypes="ccccc"
         inkscape:connector-curvature="0"
         id="path4369"
         d="m 165.59357,753.85128 c 0.81768,-0.85773 17.01044,-2.63945 20.59017,-4.02977 -0.16585,-4.17818 -1.00863,-5.31015 -1.51523,-7.95495 -6.70098,1.52033 -9.10855,2.33683 -20.10294,4.561 z"
         style="fill:#ffd5d5;fill-rule:evenodd;stroke:#000000;stroke-width:1px;stroke-linecap:butt;stroke-linejoin:miter;stroke-opacity:1" />
      <path
         sodipodi:nodetypes="csccc"
         inkscape:connector-curvature="0"
         id="path4367"
         d="m 160.59193,774.75647 c -0.26844,-8.02067 -2.45297,-17.50351 -2.37679,-18.11643 0.25446,-2.04731 5.61483,-11.27347 6.37659,-10.10153 1.04081,6.06971 1.3452,10.23339 3.28299,18.62469 -2.42016,3.09359 -2.81842,7.88974 -7.28279,9.59327 z"
         style="fill:#ffaaaa;fill-rule:evenodd;stroke:#000000;stroke-width:1px;stroke-linecap:butt;stroke-linejoin:miter;stroke-opacity:1" />
      <path
         inkscape:connector-curvature="0"
         id="path4371"
         d="m 179.12946,743.0988 c 0.0223,0.0893 2.00893,7.70089 2.00893,7.70089"
         style="fill:none;fill-rule:evenodd;stroke:#000000;stroke-width:1px;stroke-linecap:butt;stroke-linejoin:miter;stroke-opacity:1" />
      <path
         inkscape:connector-curvature="0"
         id="path4373"
         d="m 222.99117,812.07216 6.31345,-4.35629"
         style="fill:none;fill-rule:evenodd;stroke:#000000;stroke-width:1px;stroke-linecap:butt;stroke-linejoin:miter;stroke-opacity:1" />
    </g>
  </g>
</svg>
