<?xml version="1.0" encoding="UTF-8" standalone="no"?>
<!-- Created with Inkscape (http://www.inkscape.org/) -->

<svg
   xmlns:osb="http://www.openswatchbook.org/uri/2009/osb"
   xmlns:dc="http://purl.org/dc/elements/1.1/"
   xmlns:cc="http://creativecommons.org/ns#"
   xmlns:rdf="http://www.w3.org/1999/02/22-rdf-syntax-ns#"
   xmlns:svg="http://www.w3.org/2000/svg"
   xmlns="http://www.w3.org/2000/svg"
   xmlns:sodipodi="http://sodipodi.sourceforge.net/DTD/sodipodi-0.dtd"
   xmlns:inkscape="http://www.inkscape.org/namespaces/inkscape"
   viewBox="0 0 256 256"
   id="svg4166"
   version="1.1"
   inkscape:version="0.91 r13725"
   sodipodi:docname="groin_lacy_panties_two.svg">
  <style
     id="style3">
    svg { cursor: default; }
  </style>
  <defs
     id="defs4168">
    <linearGradient
       id="linearGradient900"
       osb:paint="solid">
      <stop
         style="stop-color:#ffd5d5;stop-opacity:1;"
         offset="0"
         id="stop898" />
    </linearGradient>
    <inkscape:path-effect
       effect="powerstroke"
       id="path-effect4202"
       is_visible="true"
       offset_points="0,0.5"
       sort_points="true"
       interpolator_type="Linear"
       interpolator_beta="0.2"
       start_linecap_type="zerowidth"
       linejoin_type="round"
       miter_limit="4"
       end_linecap_type="zerowidth"
       cusp_linecap_type="round" />
    <inkscape:path-effect
       effect="powerstroke"
       id="path-effect4460-7-7"
       is_visible="true"
       offset_points="0,0.21409455"
       sort_points="true"
       interpolator_type="CubicBezierJohan"
       interpolator_beta="0.2"
       start_linecap_type="zerowidth"
       linejoin_type="round"
       miter_limit="4"
       end_linecap_type="zerowidth"
       cusp_linecap_type="round" />
    <inkscape:path-effect
       effect="powerstroke"
       id="path-effect4464-1"
       is_visible="true"
       offset_points="0,0.21409455"
       sort_points="true"
       interpolator_type="CubicBezierJohan"
       interpolator_beta="0.2"
       start_linecap_type="zerowidth"
       linejoin_type="round"
       miter_limit="4"
       end_linecap_type="zerowidth"
       cusp_linecap_type="round" />
    <inkscape:path-effect
       effect="powerstroke"
       id="path-effect4460-4"
       is_visible="true"
       offset_points="0,0.21409455"
       sort_points="true"
       interpolator_type="CubicBezierJohan"
       interpolator_beta="0.2"
       start_linecap_type="zerowidth"
       linejoin_type="round"
       miter_limit="4"
       end_linecap_type="zerowidth"
       cusp_linecap_type="round" />
    <inkscape:path-effect
       effect="powerstroke"
       id="path-effect4456-2"
       is_visible="true"
       offset_points="0,0.21409455"
       sort_points="true"
       interpolator_type="CubicBezierJohan"
       interpolator_beta="0.2"
       start_linecap_type="zerowidth"
       linejoin_type="round"
       miter_limit="4"
       end_linecap_type="zerowidth"
       cusp_linecap_type="round" />
    <inkscape:path-effect
       effect="powerstroke"
       id="path-effect4452-1"
       is_visible="true"
       offset_points="0,0.21409455"
       sort_points="true"
       interpolator_type="CubicBezierJohan"
       interpolator_beta="0.2"
       start_linecap_type="zerowidth"
       linejoin_type="round"
       miter_limit="4"
       end_linecap_type="zerowidth"
       cusp_linecap_type="round" />
    <inkscape:path-effect
       effect="powerstroke"
       id="path-effect4448-1"
       is_visible="true"
       offset_points="0,0.21409455"
       sort_points="true"
       interpolator_type="CubicBezierJohan"
       interpolator_beta="0.2"
       start_linecap_type="zerowidth"
       linejoin_type="round"
       miter_limit="4"
       end_linecap_type="zerowidth"
       cusp_linecap_type="round" />
  </defs>
  <sodipodi:namedview
     id="base"
     pagecolor="#ffffff"
     bordercolor="#666666"
     borderopacity="1.0"
     inkscape:pageopacity="0.0"
     inkscape:pageshadow="2"
     inkscape:zoom="3.959798"
     inkscape:cx="141.43091"
     inkscape:cy="126.89747"
     inkscape:document-units="px"
     inkscape:current-layer="layer1"
     showgrid="false"
     units="px"
     inkscape:window-width="2560"
     inkscape:window-height="1388"
     inkscape:window-x="-8"
     inkscape:window-y="-8"
     inkscape:window-maximized="1" />
  <metadata
     id="metadata4171">
    <rdf:RDF>
      <cc:Work
         rdf:about="">
        <dc:format>image/svg+xml</dc:format>
        <dc:type
           rdf:resource="http://purl.org/dc/dcmitype/StillImage" />
        <dc:title />
      </cc:Work>
    </rdf:RDF>
  </metadata>
  <g
     inkscape:label="Layer 1"
     inkscape:groupmode="layer"
     id="layer1"
     transform="translate(0,-796.36216)"
     style="display:inline">
    <path
       style="fill:#ff8080;fill-opacity:0.78431373;fill-rule:evenodd;stroke:#000000;stroke-width:0.40000001;stroke-linecap:butt;stroke-linejoin:miter;stroke-miterlimit:4;stroke-dasharray:3.20000005, 0.40000001;stroke-dashoffset:0;stroke-opacity:1"
       d="m 8.2142857,913.9693 c 13.1429243,1.08044 89.5893683,56.18851 89.4568463,64.08547 l 65.119478,-3.81498 c 3.10664,-7.9852 37.06751,-31.13543 80.60224,-69.91335 -1.86078,-4.37366 -3.03254,-10.12539 -4.46428,-15.35714 -87.04063,45.67958 -177.736617,25.2453 -225.840553,1.1779 -0.801986,8.52826 -2.946534,16.09756 -4.8737313,23.8221 z"
       id="path4205"
       inkscape:connector-curvature="0"
       sodipodi:nodetypes="ccccccc" />
    <path
       style="fill:#ff8080;fill-rule:evenodd;stroke:#000000;stroke-width:0.40000001;stroke-linecap:butt;stroke-linejoin:miter;stroke-miterlimit:4;stroke-dasharray:3.2, 0.4;stroke-dashoffset:0;stroke-opacity:1"
       d="m 13.124999,882.45145 c 46.5291,8.31229 92.284971,49.19325 223.839281,-3.125 l -0.53571,8.57142 C 170.11255,928.27595 92.6091,924.2199 12.485337,891.27411 Z"
       id="path4159"
       inkscape:connector-curvature="0"
       sodipodi:nodetypes="ccccc" />
    <path
       style="fill:#ffd5d5;fill-opacity:0.78431374;fill-rule:evenodd;stroke:#000000;stroke-width:0.6;stroke-linecap:butt;stroke-linejoin:miter;stroke-miterlimit:4;stroke-dasharray:4.8, 0.59999999999999998;stroke-opacity:1;stroke-dashoffset:0"
       d="m 236.69592,880.94189 c 1.77785,7.13538 4.36139,16.708 8.833,28.30091 -14.46471,23.82811 -38.06218,37.41185 -50.03848,45.52663 -33.00541,22.36345 -37.59962,28.67966 -44.53186,36.20366 -2.93802,3.20135 -6.26655,9.25801 -9.01093,10.14961 -9.10136,2.9572 -18.46396,3.3333 -29.0161,-0.8201 -2.61814,-1.03048 -3.04332,-4.87278 -5.32744,-7.26127 C 98.744984,982.804 88.565413,975.10711 65.913019,960.50323 43.266108,945.90288 9.5743343,924.75274 8.1360533,914.20942 c 4.3437037,-16.5792 4.8250407,-19.81364 4.9332867,-31.4793 26.619482,14.31408 63.074058,24.77085 93.93156,27.37562 28.05945,2.36857 50.6252,-2.281 73.61289,-6.3158 28.07826,-4.9283 49.68076,-13.35034 56.08213,-22.84805 z"
       id="path4196"
       inkscape:connector-curvature="0"
       sodipodi:nodetypes="ccscsscsccssc" />
    <path
       style="display:inline;fill:#ffaaaa;fill-opacity:1;fill-rule:evenodd;stroke:#000000;stroke-width:0.40000001;stroke-linecap:butt;stroke-linejoin:miter;stroke-miterlimit:4;stroke-dasharray:3.20000005, 0.40000001000000002;stroke-opacity:1;stroke-dashoffset:0"
       d="m 243.00937,902.78644 c 2.51955,6.45636 2.51955,6.45636 2.51955,6.45636 -14.46471,23.82811 -38.06218,37.41185 -50.03848,45.52663 -33.00541,22.36345 -37.59962,28.67966 -44.53186,36.20366 -2.93802,3.20135 -6.26655,9.25801 -9.01093,10.14961 -9.10136,2.9572 -18.46396,3.3333 -29.0161,-0.8201 -2.61814,-1.03044 -3.04332,-4.87278 -5.32744,-7.26127 C 98.744984,982.804 88.565413,975.10711 65.913019,960.50323 43.266108,945.90288 9.5743343,924.75274 8.1360533,914.20942 c 1.3618581,-5.67573 0,0 1.3618581,-5.67573 14.7501896,21.38515 70.2473836,53.82912 95.4826786,71.77765 22.50362,16.00563 31.68915,9.73817 50.88446,-3.53788 27.57319,-19.07043 73.67189,-48.83195 87.14432,-73.98702 z"
       id="path4196-9"
       inkscape:connector-curvature="0"
       sodipodi:nodetypes="ccscsscsccssc" />
    <path
       style="display:inline;fill:#ffaaaa;fill-opacity:1;fill-rule:evenodd;stroke:#000000;stroke-width:0.40000001;stroke-linecap:butt;stroke-linejoin:miter;stroke-miterlimit:4;stroke-dasharray:3.2, 0.4;stroke-dashoffset:0;stroke-opacity:1"
       d="m 164.17287,977.9374 c -13.65231,12.12987 -19.48084,22.2937 -22.22522,23.1853 -9.10136,2.9572 -18.46396,3.3333 -29.0161,-0.8201 -2.61814,-1.03049 -4.56118,-8.71208 -16.488154,-17.88629 0,0 13.189464,-20.17381 18.421134,-30.9213 5.23167,-10.7475 12.96889,-33.56368 12.96889,-33.56368 0,0 9.0796,23.12481 15.23348,33.12423 6.15388,9.99942 21.10597,26.88184 21.10597,26.88184 z"
       id="path4196-59"
       inkscape:connector-curvature="0"
       sodipodi:nodetypes="cssczczc" />
    <path
       style="fill:#ffaaaa;fill-rule:evenodd;stroke:#000000;stroke-width:0.40000001;stroke-linecap:butt;stroke-linejoin:miter;stroke-miterlimit:4;stroke-dasharray:3.2, 0.4;stroke-dashoffset:0;stroke-opacity:1"
       d="m 12.773437,882.25056 c 0.02886,2.87339 -0.0012,5.51873 -0.2881,9.02355 58.623527,41.44689 191.028163,32.00009 227.046563,-0.90052 -0.91622,-3.97006 -1.41854,-7.06558 -2.16359,-10.50508 -49.02093,34.30367 -154.656162,41.72911 -224.594873,2.38205 z"
       id="path4157"
       inkscape:connector-curvature="0"
       sodipodi:nodetypes="ccccc" />
    <path
       id="path1908-0-3"
       d="m 125.83344,916.89133 c -3.67997,1.12 -2.15999,-1.36 -6.79995,5.9997 1.19999,0.24 2.15998,0.4 3.51997,0.72 2.71998,-2.56 4.95997,-3.36 5.19996,-5.5197 1.51999,0.2399 -0.87999,-0.96 0.08,-0.16 0.08,2.3997 1.43999,2.6397 3.75998,5.1997 1.75998,-0.64 3.99997,-0.8 4.47996,-1.28 -3.27997,-4.0797 -4.71996,-1.44 -6.39995,-5.4397 z"
       style="display:inline;fill:#ff5555;fill-opacity:1;fill-rule:evenodd;stroke:#000000;stroke-width:0.39999703px;stroke-linecap:butt;stroke-linejoin:miter;stroke-miterlimit:4;stroke-dasharray:none;stroke-opacity:1"
       inkscape:connector-curvature="0"
       inkscape:transform-center-x="-1.3336921"
       inkscape:transform-center-y="2.7204327" />
    <path
       id="path1910-4-9"
       d="m 129.11341,918.81113 -2.47998,-0.2399 c -1.67999,1.9198 -4.95996,1.0398 -8.55993,2.1598 0.87999,-3.6797 0.08,-9.0397 0.08,-9.0397 3.99997,0.88 6.23995,2.08 8.23993,3.52 l 3.11998,0.24 c 2.23998,-1.6 4.31997,-3.04 7.75994,-4.4 0,0 -0.23999,4.8 1.12,7.8398 -3.59998,0.5599 -7.83995,3.2799 -9.27994,-0.08 z"
       style="display:inline;fill:#ff8080;fill-opacity:1;fill-rule:evenodd;stroke:#000000;stroke-width:0.39999703px;stroke-linecap:butt;stroke-linejoin:miter;stroke-miterlimit:4;stroke-dasharray:none;stroke-opacity:1"
       inkscape:connector-curvature="0"
       inkscape:transform-center-x="-2.0136921"
       inkscape:transform-center-y="-1.3995673" />
    <path
       id="path1912-4-7"
       d="m 126.47343,918.41123 -0.08,-0.2399 c -0.39999,0.08 -1.03999,0.3999 -1.67998,0.7198 -0.24,0.1599 -0.48,0.2399 -0.72,0.3199 -0.32,0.08 -0.63999,0.08 -0.87999,0.08 0.24,0 0.55999,0.08 0.87999,0 0.32,0 0.56,-0.08 0.8,-0.24 0.71999,-0.1599 1.35999,-0.3999 1.67998,-0.3999 z"
       style="display:inline;fill:#000000;fill-opacity:1;fill-rule:evenodd;stroke:none"
       inkscape:connector-curvature="0"
       inkscape:transform-center-x="1.4262879"
       inkscape:transform-center-y="1.4582105" />
    <path
       id="path1914-7-0"
       d="m 125.99344,917.37133 v -0.16 c -0.72,0.16 -2.63998,0.88 -3.35998,1.0399 0.72,-0.1599 2.79998,-0.4799 3.43998,-0.6399 z"
       style="display:inline;fill:#000000;fill-opacity:1;fill-rule:evenodd;stroke:none"
       inkscape:connector-curvature="0"
       inkscape:transform-center-x="1.8662829"
       inkscape:transform-center-y="0.44048271" />
    <path
       id="path1916-0-7"
       d="m 126.15344,916.65133 v -0.16 c -0.32,-0.08 -0.64,-0.08 -1.12,-0.4 -0.39999,-0.24 -0.95999,-0.64 -1.11999,-0.8 0.24,0.16 0.56,0.56 0.96,0.96 0.47999,0.4 0.87999,0.56 1.27999,0.64 z"
       style="display:inline;fill:#000000;fill-opacity:1;fill-rule:evenodd;stroke:none"
       inkscape:connector-curvature="0"
       inkscape:transform-center-x="1.1862879"
       inkscape:transform-center-y="-1.1994673" />
    <path
       id="path1918-1-5"
       d="m 129.19341,918.41123 v 0.16 c 0.4,0 0.8,0 1.35999,0.3199 0.4,0.2399 0.96,0.6399 1.19999,0.7999 -0.23999,-0.16 -0.63999,-0.64 -1.11999,-1.0399 -0.47999,-0.3999 -1.03999,-0.4798 -1.43999,-0.4798 z"
       style="display:inline;fill:#000000;fill-opacity:1;fill-rule:evenodd;stroke:none"
       inkscape:connector-curvature="0"
       inkscape:transform-center-x="-4.2536671"
       inkscape:transform-center-y="1.6404327" />
    <path
       id="path1920-1-2"
       d="m 129.43341,917.21133 v 0.24 c 0.4,0.08 1.59999,-0.16 1.99999,-0.24 -0.4,0.08 -1.59999,-0.16 -1.91999,-0.24 z"
       style="display:inline;fill:#000000;fill-opacity:1;fill-rule:evenodd;stroke:none"
       inkscape:connector-curvature="0"
       inkscape:transform-center-x="-4.2136721"
       inkscape:transform-center-y="-0.071416679" />
    <path
       id="path1922-9-1"
       d="m 126.55343,918.57123 c -0.79999,-0.16 -0.55999,-3.4399 -0.16,-3.3599"
       style="display:inline;fill:none;stroke:#000000;stroke-width:0.39999703px;stroke-linecap:butt;stroke-linejoin:miter;stroke-miterlimit:4;stroke-dasharray:none;stroke-opacity:1"
       inkscape:connector-curvature="0"
       inkscape:transform-center-x="-0.068452818"
       inkscape:transform-center-y="-0.40023716" />
    <path
       id="path1924-2-8"
       d="m 129.51341,915.45133 c 0.32,0.8 0.16,2.56 -0.4,3.3598"
       style="display:inline;fill:none;stroke:#000000;stroke-width:0.39999703px;stroke-linecap:butt;stroke-linejoin:miter;stroke-miterlimit:4;stroke-dasharray:none;stroke-opacity:1"
       inkscape:connector-curvature="0"
       inkscape:transform-center-x="-3.175224"
       inkscape:transform-center-y="-0.15956729" />
    <path
       id="path1926-0-8"
       d="m 129.59341,915.93133 v 0.24 c 0.4,0 0.87999,-0.16 1.43999,-0.56 0.4,-0.32 0.79999,-0.8 1.03999,-0.96 -0.16,0.16 -0.71999,0.56 -1.19999,0.8 -0.56,0.24 -0.95999,0.24 -1.27999,0.24 z"
       style="display:inline;fill:#000000;fill-opacity:1;fill-rule:evenodd;stroke:none"
       inkscape:connector-curvature="0"
       inkscape:transform-center-x="-4.6136671"
       inkscape:transform-center-y="-1.8794673" />
  </g>
</svg>
