<?xml version="1.0" encoding="UTF-8" standalone="no"?>
<!-- Created with Inkscape (http://www.inkscape.org/) -->

<svg
   xmlns:dc="http://purl.org/dc/elements/1.1/"
   xmlns:cc="http://creativecommons.org/ns#"
   xmlns:rdf="http://www.w3.org/1999/02/22-rdf-syntax-ns#"
   xmlns:svg="http://www.w3.org/2000/svg"
   xmlns="http://www.w3.org/2000/svg"
   xmlns:sodipodi="http://sodipodi.sourceforge.net/DTD/sodipodi-0.dtd"
   xmlns:inkscape="http://www.inkscape.org/namespaces/inkscape"
   viewBox="0 0 256 256"
   id="svg4166"
   version="1.1"
   inkscape:version="0.91 r13725"
   sodipodi:docname="groin_thong.svg">
  <style
     id="style3">
    svg { cursor: default; }
  </style>
  <defs
     id="defs4168">
    <inkscape:path-effect
       effect="powerstroke"
       id="path-effect4202"
       is_visible="true"
       offset_points="0,0.5"
       sort_points="true"
       interpolator_type="Linear"
       interpolator_beta="0.2"
       start_linecap_type="zerowidth"
       linejoin_type="round"
       miter_limit="4"
       end_linecap_type="zerowidth"
       cusp_linecap_type="round" />
  </defs>
  <sodipodi:namedview
     id="base"
     pagecolor="#ffffff"
     bordercolor="#666666"
     borderopacity="1.0"
     inkscape:pageopacity="0.0"
     inkscape:pageshadow="2"
     inkscape:zoom="1.979899"
     inkscape:cx="109.03354"
     inkscape:cy="196.32426"
     inkscape:document-units="px"
     inkscape:current-layer="layer1"
     showgrid="false"
     units="px"
     inkscape:window-width="2560"
     inkscape:window-height="1388"
     inkscape:window-x="-8"
     inkscape:window-y="-8"
     inkscape:window-maximized="1" />
  <metadata
     id="metadata4171">
    <rdf:RDF>
      <cc:Work
         rdf:about="">
        <dc:format>image/svg+xml</dc:format>
        <dc:type
           rdf:resource="http://purl.org/dc/dcmitype/StillImage" />
        <dc:title></dc:title>
      </cc:Work>
    </rdf:RDF>
  </metadata>
  <g
     inkscape:label="Layer 1"
     inkscape:groupmode="layer"
     id="layer1"
     transform="translate(0,-796.36216)"
     style="display:inline">
    <g
       id="g4208"
       transform="matrix(1.1025,0,0,1.1025,-13.275466,-92.365159)">
      <path
         sodipodi:nodetypes="cccccc"
         inkscape:connector-curvature="0"
         id="path4202"
         d="m 22.349625,889.34879 c 0.148426,5.13494 0.219758,10.7434 -0.126269,15.40483 37.020859,2.45707 55.728784,17.61208 70.486149,32.31854 l 36.463755,-32.19227 -17.42514,-16.16244 z"
         style="fill:#ffaaaa;fill-rule:evenodd;stroke:#000000;stroke-width:1px;stroke-linecap:butt;stroke-linejoin:miter;stroke-opacity:1" />
      <path
         sodipodi:nodetypes="cccccc"
         inkscape:connector-curvature="0"
         id="path4204"
         d="m 148.74496,888.96999 -19.69797,16.66751 34.09264,32.07235 c 23.31361,-27.99665 53.94711,-29.51591 72.88883,-31.66197 l 0.4735,-16.57282 z"
         style="fill:#ffaaaa;fill-rule:evenodd;stroke:#000000;stroke-width:1px;stroke-linecap:butt;stroke-linejoin:miter;stroke-opacity:1" />
      <path
         inkscape:connector-curvature="0"
         id="path4206"
         d="m 112.50574,889.47506 16.54125,15.78364 17.04632,-15.65737 z"
         style="fill:#ffaaaa;fill-rule:evenodd;stroke:#000000;stroke-width:1px;stroke-linecap:butt;stroke-linejoin:miter;stroke-opacity:1" />
      <path
         sodipodi:nodetypes="cccccc"
         inkscape:connector-curvature="0"
         id="path4200"
         d="m 114.39977,994.40466 c -7.38188,-18.90039 -8.15282,-38.30931 -22.145668,-56.70116 l 36.287808,-32.066 34.47146,32.32489 c -15.57818,17.52202 -19.3612,38.70198 -21.08694,56.06346 z"
         style="fill:#ff5555;fill-rule:evenodd;stroke:#000000;stroke-width:1px;stroke-linecap:butt;stroke-linejoin:miter;stroke-opacity:1" />
      <path
         inkscape:connector-curvature="0"
         id="path4196"
         d="m 91.418805,935.68954 c 0.631345,0.25254 2.399112,2.90419 2.399112,2.90419 l 55.558393,-48.10851 -3.91434,-2.52539 z"
         style="fill:#ff2a2a;fill-rule:evenodd;stroke:#000000;stroke-width:1px;stroke-linecap:butt;stroke-linejoin:miter;stroke-opacity:1" />
      <path
         sodipodi:nodetypes="ccccc"
         inkscape:connector-curvature="0"
         id="path4190"
         d="m 110.73797,994.64954 4.04061,0 c -10.47143,-60.70562 -34.284709,-84.30821 -92.555224,-91.78996 -0.153413,1.11478 -0.307492,2.22489 -0.378807,3.91435 60.021221,9.70491 78.883481,29.57124 88.893421,87.87561 z"
         style="fill:#ff2a2a;fill-rule:evenodd;stroke:#000000;stroke-width:1px;stroke-linecap:butt;stroke-linejoin:miter;stroke-opacity:1" />
      <path
         inkscape:connector-curvature="0"
         id="path4198"
         d="m 109.60155,890.23268 52.40166,49.24493 3.03046,-3.40926 -49.87628,-47.3509 z"
         style="fill:#ff2a2a;fill-rule:evenodd;stroke:#000000;stroke-width:1px;stroke-linecap:butt;stroke-linejoin:miter;stroke-opacity:1" />
      <path
         sodipodi:nodetypes="ccscc"
         inkscape:connector-curvature="0"
         id="path4192"
         d="m 139.2378,994.30006 4.26382,-0.046 c 12.38201,-76.60785 54.65568,-82.13631 92.11646,-85.83868 0.51809,-0.0512 0.63134,-4.04061 0.63134,-4.04061 -44.36253,4.20897 -83.13169,14.99347 -97.01162,89.92525 z"
         style="fill:#ff2a2a;fill-rule:evenodd;stroke:#000000;stroke-width:1px;stroke-linecap:butt;stroke-linejoin:miter;stroke-opacity:1" />
      <path
         sodipodi:nodetypes="ccccc"
         inkscape:connector-curvature="0"
         id="path4194"
         d="m 237.00704,887.45476 c 0.26685,1.23073 0.38446,2.60772 0,3.91434 -71.10952,-0.0966 -142.736689,-0.29674 -215.036222,-0.63135 -0.08769,-1.40182 -0.378387,-2.73596 0,-4.29314 71.928985,1.08745 143.583162,1.35048 215.036222,1.01015 z"
         style="fill:#ff2a2a;fill-rule:evenodd;stroke:#000000;stroke-width:1px;stroke-linecap:butt;stroke-linejoin:miter;stroke-opacity:1" />
    </g>
  </g>
</svg>
