<?xml version="1.0" encoding="UTF-8" standalone="no"?>
<!-- Created with Inkscape (http://www.inkscape.org/) -->

<svg
   xmlns:dc="http://purl.org/dc/elements/1.1/"
   xmlns:cc="http://creativecommons.org/ns#"
   xmlns:rdf="http://www.w3.org/1999/02/22-rdf-syntax-ns#"
   xmlns:svg="http://www.w3.org/2000/svg"
   xmlns="http://www.w3.org/2000/svg"
   xmlns:sodipodi="http://sodipodi.sourceforge.net/DTD/sodipodi-0.dtd"
   xmlns:inkscape="http://www.inkscape.org/namespaces/inkscape"
   viewBox="0 0 256 256"
   id="svg4166"
   version="1.1"
   inkscape:version="0.91 r13725"
   sodipodi:docname="groin_boyshorts.svg">
  <style
     id="style3">
    svg { cursor: default; }
  </style>
  <defs
     id="defs4168">
    <inkscape:path-effect
       effect="powerstroke"
       id="path-effect4202"
       is_visible="true"
       offset_points="0,0.5"
       sort_points="true"
       interpolator_type="Linear"
       interpolator_beta="0.2"
       start_linecap_type="zerowidth"
       linejoin_type="round"
       miter_limit="4"
       end_linecap_type="zerowidth"
       cusp_linecap_type="round" />
  </defs>
  <sodipodi:namedview
     id="base"
     pagecolor="#ffffff"
     bordercolor="#666666"
     borderopacity="1.0"
     inkscape:pageopacity="0.0"
     inkscape:pageshadow="2"
     inkscape:zoom="1.979899"
     inkscape:cx="189.89061"
     inkscape:cy="186.70694"
     inkscape:document-units="px"
     inkscape:current-layer="layer1"
     showgrid="false"
     units="px"
     inkscape:window-width="2560"
     inkscape:window-height="1388"
     inkscape:window-x="-8"
     inkscape:window-y="-8"
     inkscape:window-maximized="1" />
  <metadata
     id="metadata4171">
    <rdf:RDF>
      <cc:Work
         rdf:about="">
        <dc:format>image/svg+xml</dc:format>
        <dc:type
           rdf:resource="http://purl.org/dc/dcmitype/StillImage" />
        <dc:title></dc:title>
      </cc:Work>
    </rdf:RDF>
  </metadata>
  <g
     inkscape:label="Layer 1"
     inkscape:groupmode="layer"
     id="layer1"
     transform="translate(0,-796.36216)"
     style="display:inline">
    <path
       style="fill:#ff5555;fill-rule:evenodd;stroke:#000000;stroke-width:1px;stroke-linecap:butt;stroke-linejoin:miter;stroke-opacity:1"
       d="m 20.892857,966.11216 c 0.714286,0.17857 95.535713,28.75 95.535713,28.75 l 1.78571,-24.28571 c -32.202099,-8.04341 -64.643133,-9.51612 -97.321423,-4.46429 z"
       id="path4248"
       inkscape:connector-curvature="0"
       sodipodi:nodetypes="cccc" />
    <path
       style="fill:#ff5555;fill-rule:evenodd;stroke:#000000;stroke-width:1px;stroke-linecap:butt;stroke-linejoin:miter;stroke-opacity:1"
       d="m 146.42857,975.04073 -1.07143,21.25 96.07143,-29.46428 c -32.00953,2.06525 -72.50923,-12.51385 -95,8.21428 z"
       id="path4250"
       inkscape:connector-curvature="0"
       sodipodi:nodetypes="cccc" />
    <path
       style="fill:#ffaaaa;fill-rule:evenodd;stroke:#000000;stroke-width:1px;stroke-linecap:butt;stroke-linejoin:miter;stroke-opacity:1"
       d="m 145.23612,994.62152 0.96552,2.58535 c 33.95532,-8.94523 63.06895,-19.85762 96.72735,-29.2384 0.23178,-1.71218 -0.8002,-1.73934 -1.21805,-2.58535 -31.59873,9.46553 -63.39514,20.83068 -96.47482,29.2384 z"
       id="path4240"
       inkscape:connector-curvature="0"
       sodipodi:nodetypes="ccccc" />
    <path
       style="fill:#ff8080;fill-rule:evenodd;stroke:#000000;stroke-width:1px;stroke-linecap:butt;stroke-linejoin:miter;stroke-opacity:1"
       d="M 17.055298,964.71611 29.7995,884.17176 c 65.564014,11.66099 131.62635,10.47263 197.86363,0.25254 -0.25526,12.54172 9.65448,54.21972 14.8736,81.57802 -34.6964,-2.95787 -72.34869,1.96902 -94.81198,9.57293 -5.12211,10.08969 -3.36047,13.98399 -5.0407,20.97598 -8.84812,0.98695 -18.22132,-0.008 -27.52666,-0.16456 -0.1657,-6.28749 0.92215,-12.57497 -1.39531,-18.86246 -20.706218,-15.55345 -65.100511,-10.48839 -96.706782,-12.8081 z"
       id="path4230"
       inkscape:connector-curvature="0"
       sodipodi:nodetypes="ccccccccc" />
    <path
       style="fill:#ffaaaa;fill-rule:evenodd;stroke:#000000;stroke-width:1px;stroke-linecap:butt;stroke-linejoin:miter;stroke-opacity:1"
       d="m 114.90485,993.26824 0.0206,3.22171 C 82.751105,986.8553 56.283902,974.32902 17.361997,967.63561 l 0.568211,-2.90418 c 57.809486,10.71603 64.377338,19.97802 96.974642,28.53681 z"
       id="path4238"
       inkscape:connector-curvature="0"
       sodipodi:nodetypes="ccccc" />
    <path
       style="fill:#ffd5d5;fill-rule:evenodd;stroke:#000000;stroke-width:1px;stroke-linecap:butt;stroke-linejoin:miter;stroke-opacity:1"
       d="m 17.278512,963.5427 c -0.744603,1.35665 -0.457138,2.75794 -0.195205,3.93601 3.391145,-0.78903 73.893533,-4.82625 93.780933,9.62709 4.20135,3.05336 1.76777,19.44543 1.76777,19.44543 1.21564,0.43742 2.47281,0.73643 4.04061,0 0,0 1.17604,-18.11544 -1.76777,-20.20305 C 88.490582,957.6164 17.278512,963.5427 17.278512,963.5427 Z"
       id="path4232"
       inkscape:connector-curvature="0"
       sodipodi:nodetypes="ccsccsc" />
    <path
       style="fill:#ffd5d5;fill-rule:evenodd;stroke:#000000;stroke-width:1px;stroke-linecap:butt;stroke-linejoin:miter;stroke-opacity:1"
       d="m 30.052038,880.88877 c -0.584006,1.51654 -1.108602,3.04793 -0.757614,4.79822 84.797796,14.78305 135.636246,11.79972 198.368706,0.69448 0.33012,-1.68359 0.67811,-3.0515 -0.12627,-4.73509 -61.99973,12.23538 -131.484915,12.35936 -197.484822,-0.75761 z"
       id="path4234"
       inkscape:connector-curvature="0"
       sodipodi:nodetypes="ccccc" />
    <path
       style="fill:#ffd5d5;fill-rule:evenodd;stroke:#000000;stroke-width:1px;stroke-linecap:butt;stroke-linejoin:miter;stroke-opacity:1"
       d="m 141.16882,997.05631 c 0.0151,0.0453 3.16667,0.75196 5.6298,-0.26786 -0.70914,-6.01695 -1.90334,-12.38241 1.18873,-17.40981 8.34463,-13.56754 89.42075,-13.11961 95.19418,-11.57343 0.094,-1.25181 -0.0161,-2.52619 -0.49238,-4.33647 -48.93604,-2.5619 -96.59912,7.59428 -98.99495,13.38452 -3.02186,7.30322 -1.702,13.46857 -2.52538,20.20305 z"
       id="path4236"
       inkscape:connector-curvature="0"
       sodipodi:nodetypes="ccsccsc" />
    <path
       style="fill:none;fill-rule:evenodd;stroke:#000000;stroke-width:0.5;stroke-linecap:butt;stroke-linejoin:miter;stroke-miterlimit:4;stroke-dasharray:none;stroke-opacity:1"
       d="M 43.531102,962.58331 C 58.445619,933.30265 63.813237,915.52673 68.284645,891.31943"
       id="path4242"
       inkscape:connector-curvature="0"
       sodipodi:nodetypes="cc" />
    <path
       style="fill:none;fill-rule:evenodd;stroke:#000000;stroke-width:0.5;stroke-linecap:butt;stroke-linejoin:miter;stroke-miterlimit:4;stroke-dasharray:none;stroke-opacity:1"
       d="m 129.84158,895.48631 c -0.73101,34.3031 -1.11498,67.2669 -1.1734,101.57"
       id="path4244"
       inkscape:connector-curvature="0"
       sodipodi:nodetypes="cc" />
    <path
       style="fill:none;fill-rule:evenodd;stroke:#000000;stroke-width:0.5;stroke-linecap:butt;stroke-linejoin:miter;stroke-miterlimit:4;stroke-dasharray:none;stroke-opacity:1"
       d="m 186.51473,892.37554 c 3.54547,19.38168 14.75755,43.91762 26.24865,70.71439"
       id="path4246"
       inkscape:connector-curvature="0"
       sodipodi:nodetypes="cc" />
  </g>
</svg>
