<svg xmlns="http://www.w3.org/2000/svg" viewBox="0 0 64 64">
    <g stroke="#ff8080">
        <path fill="none" stroke-linecap="round" stroke-width="4.96271694" d="M43.522 60.064l-28.16-.264c-2.82-.026-5.073-2.758-5.088-5.877l-.176-35.179c-.021-4.244 3.084-5.614 6.229-5.614h20.44l11.23 10.702.35 30.442c.034 2.912-1.807 5.818-4.825 5.79zM18.676 48.288l21.605-.119M40.653 38.179l-22.484-.047M18.31 28.023l13.585-.068"/>
        <path fill="none" stroke-width="4.96271694" d="M16.502 8.743c.076-2.737 1.38-3.925 4.913-3.948l27.897-.175c4.06-.025 5.76 2.215 5.79 5.351l.351 36.67c.036 3.75-1.59 5.499-3.415 5.514"/>
        <path fill="#ff8080" fill-rule="evenodd" stroke-width=".9920803400000001" d="M35.811 13.682v6.451c0 2.983 2.624 5.065 5.087 5.087l7.071.062z"/>
    </g>
</svg>
