<svg xmlns="http://www.w3.org/2000/svg" viewBox="0 0 64 64">
    <g stroke="#000">
        <path fill="#f55" fill-rule="evenodd" d="M36.593 61.879c1.968.352 18.236-20.436 18.826-23.246.432-2.05 1.469-20.533-.452-20.476L35.532 42.522c-2.317 6.452-.898 12.904 1.06 19.357z"/>
        <path fill="#ff8080" fill-rule="evenodd" d="M36.593 61.879c-2.81.72-28.175-14.675-28.992-15.91-.659-.997-1.591-18.101-1.038-18.584l29.455 15.137z"/>
        <path fill="#faa" fill-rule="evenodd" stroke-linejoin="round" stroke-width="1.016" d="M36.134 44.634c-1.782.08-29.213-15.026-29.669-16.836-.58-2.304 18.295-23.593 20.923-23.804 2.658-.214 27.414 12.553 28 14.578.622 2.152-17.5 25.982-19.254 26.062z"/>
        <ellipse cx="15.628" cy="25.41" fill="#333" stroke-linecap="round" stroke-linejoin="round" paint-order="stroke fill markers" rx="4.195" ry="3.662"/>
        <ellipse cx="30.565" cy="22.629" fill="#333" stroke-linecap="round" stroke-linejoin="round" paint-order="stroke fill markers" rx="4.195" ry="3.662"/>
        <ellipse cx="45.315" cy="20.004" fill="#333" stroke-linecap="round" stroke-linejoin="round" paint-order="stroke fill markers" rx="4.195" ry="3.662"/>
        <ellipse cx="55.979" cy="9.151" fill="#333" stroke-linecap="round" stroke-linejoin="round" stroke-width="1.112" paint-order="stroke fill markers" rx="3.027" ry="2.659" transform="matrix(.51845 .8551 -.99648 -.08386 0 0)"/>
        <ellipse cx="85.803" cy="72.618" fill="#333" stroke-linecap="round" stroke-linejoin="round" stroke-width="1.287" paint-order="stroke fill markers" rx="3.299" ry="1.969" transform="matrix(-.3095 .9509 .92731 -.37429 0 0)"/>
        <ellipse cx="66.174" cy="76.799" fill="#333" stroke-linecap="round" stroke-linejoin="round" stroke-width="1.264" paint-order="stroke fill markers" rx="3.512" ry="1.782" transform="matrix(-.25383 .96725 .89421 -.44764 0 0)"/>
    </g>
</svg>
