<svg version="1.1" viewBox="0 0 190 100" xmlns="http://www.w3.org/2000/svg">
 <g transform="matrix(2.9869 0 0 2.9863 -201.23 -109.47)">
  <path d="m67.377 70.142-0.0042-33.484 63.568 0.04607 0.0251 33.421z" fill="#fff" stroke-width="1.0721"/>
  <g transform="matrix(1.0721 0 0 1.0721 65.198 33.323)" fill="#ff2a2a" stroke="#b22234" stroke-linejoin="bevel" stroke-width="2.4">
   <path d="m25.718 18.727 35.64-0.0068"/>
   <path d="m25.727 13.931 35.634-0.0016"/>
   <path d="m25.714 9.1175 35.654 0.0042"/>
   <path d="m25.716 4.3321 35.643-0.028938"/>
  </g>
  <path d="m67.378 54.7 25.439-0.01113-0.01226-18.005-25.432-0.02525z" fill="#3c3b6e" stroke-width="1.0721"/>
  <g transform="matrix(1.0721 0 0 1.0721 65.198 33.323)" fill="#ff2a2a" stroke="#b22234" stroke-linejoin="bevel" stroke-width="2.4">
   <path d="m2.0287 33.148 59.33-0.0055"/>
   <path d="m2.018 28.352 59.33-0.0055"/>
   <path d="m2.0337 23.54 59.33-0.0055"/>
  </g>
  <g transform="matrix(1.0721 0 0 1.0721 65.198 33.323)" fill="#fff">
   <path d="m6.5502 17.345c-0.026074 0.0215-0.513-0.39734-0.54679-0.39726-0.035648 8.1e-5 -0.56023 0.41898-0.5903 0.39983-0.028503-0.01816 0.21937-0.61068 0.20885-0.64279-0.011092-0.03388-0.5716-0.40334-0.56268-0.43785 0.00846-0.03272 0.64858 0.01992 0.67587-3e-6 0.028793-0.02102 0.20696-0.66826 0.24254-0.67044 0.03373-0.0021 0.18147 0.62299 0.20886 0.64279 0.028887 0.02089 0.69951-0.0097 0.71258 0.0235 0.012388 0.03144-0.53642 0.36511-0.54679 0.39727-0.010939 0.03393 0.22536 0.66228 0.19785 0.68496z"/>
   <path d="m4.5665 19.034c-0.026074 0.0215-0.513-0.39734-0.54679-0.39726-0.035648 8.1e-5 -0.56023 0.41898-0.5903 0.39983-0.028503-0.01816 0.21937-0.61068 0.20885-0.64279-0.011093-0.03388-0.5716-0.40334-0.56268-0.43785 0.00846-0.03272 0.64857 0.01992 0.67587-3e-6 0.028793-0.02102 0.20696-0.66826 0.24254-0.67044 0.03373-0.0021 0.18147 0.62299 0.20886 0.64279 0.028887 0.02089 0.69951-0.0097 0.71258 0.0235 0.012388 0.03144-0.53642 0.36511-0.54679 0.39727-0.010939 0.03393 0.22536 0.66228 0.19785 0.68496z"/>
   <path d="m10.511 17.346c-0.02607 0.0215-0.513-0.39734-0.54679-0.39726-0.035648 8.1e-5 -0.56023 0.41898-0.5903 0.39983-0.028503-0.01816 0.21937-0.61068 0.20885-0.64279-0.011092-0.03388-0.5716-0.40334-0.56268-0.43785 0.00846-0.03272 0.64858 0.01992 0.67587-3e-6 0.028793-0.02102 0.20696-0.66826 0.24254-0.67044 0.03373-0.0021 0.18147 0.62299 0.20886 0.64279 0.02889 0.02089 0.69951-0.0097 0.71258 0.0235 0.01239 0.03144-0.53642 0.36511-0.54679 0.39727-0.01094 0.03393 0.22536 0.66228 0.19785 0.68496z"/>
   <path d="m8.5277 19.035c-0.026074 0.0215-0.513-0.39734-0.54679-0.39726-0.035648 8.1e-5 -0.56023 0.41898-0.5903 0.39983-0.028503-0.01816 0.21937-0.61068 0.20885-0.64279-0.011092-0.03388-0.5716-0.40334-0.56268-0.43785 0.00846-0.03272 0.64857 0.01992 0.67587-3e-6 0.028793-0.02102 0.20696-0.66826 0.24254-0.67044 0.03373-0.0021 0.18147 0.62299 0.20886 0.64279 0.028887 0.02089 0.69951-0.0097 0.71258 0.0235 0.012388 0.03144-0.53642 0.36511-0.54679 0.39727-0.010939 0.03393 0.22536 0.66228 0.19785 0.68496z"/>
   <path d="m14.484 17.346c-0.02607 0.0215-0.513-0.39734-0.54679-0.39726-0.03565 8.1e-5 -0.56023 0.41898-0.5903 0.39983-0.0285-0.01816 0.21937-0.61068 0.20885-0.64279-0.01109-0.03388-0.5716-0.40334-0.56268-0.43785 0.0085-0.03272 0.64858 0.01992 0.67587-3e-6 0.02879-0.02102 0.20696-0.66826 0.24254-0.67044 0.03373-0.0021 0.18147 0.62299 0.20886 0.64279 0.02889 0.02089 0.69951-0.0097 0.71258 0.0235 0.01239 0.03144-0.53642 0.36511-0.54679 0.39727-0.01094 0.03393 0.22536 0.66228 0.19785 0.68496z"/>
   <path d="m12.5 19.035c-0.02607 0.0215-0.513-0.39734-0.54679-0.39726-0.03565 8.1e-5 -0.56023 0.41898-0.5903 0.39983-0.0285-0.01816 0.21937-0.61068 0.20885-0.64279-0.01109-0.03388-0.5716-0.40334-0.56268-0.43785 0.0085-0.03272 0.64858 0.01992 0.67587-3e-6 0.02879-0.02102 0.20696-0.66826 0.24254-0.67044 0.03373-0.0021 0.18147 0.62299 0.20886 0.64279 0.02889 0.02089 0.69951-0.0097 0.71258 0.0235 0.01239 0.03144-0.53642 0.36511-0.54679 0.39727-0.01094 0.03393 0.22536 0.66228 0.19785 0.68496z"/>
   <path d="m18.445 17.347c-0.02607 0.0215-0.513-0.39734-0.54679-0.39726-0.03565 8.1e-5 -0.56023 0.41898-0.5903 0.39983-0.0285-0.01816 0.21937-0.61068 0.20885-0.64279-0.01109-0.03388-0.5716-0.40334-0.56268-0.43785 0.0085-0.03272 0.64858 0.01992 0.67587-3e-6 0.02879-0.02102 0.20696-0.66826 0.24254-0.67044 0.03373-0.0021 0.18147 0.62299 0.20886 0.64279 0.02889 0.02089 0.69951-0.0097 0.71258 0.0235 0.01239 0.03144-0.53642 0.36511-0.54679 0.39727-0.01094 0.03393 0.22536 0.66228 0.19785 0.68496z"/>
   <path d="m16.461 19.036c-0.02607 0.0215-0.513-0.39734-0.54679-0.39726-0.03565 8.1e-5 -0.56023 0.41898-0.5903 0.39983-0.0285-0.01816 0.21937-0.61068 0.20885-0.64279-0.01109-0.03388-0.5716-0.40334-0.56268-0.43785 0.0085-0.03272 0.64858 0.01992 0.67587-3e-6 0.02879-0.02102 0.20696-0.66826 0.24254-0.67044 0.03373-0.0021 0.18147 0.62299 0.20886 0.64279 0.02889 0.02089 0.69951-0.0097 0.71258 0.0235 0.01239 0.03144-0.53642 0.36511-0.54679 0.39727-0.01094 0.03393 0.22536 0.66228 0.19785 0.68496z"/>
   <path d="m22.366 17.33c-0.02607 0.0215-0.513-0.39734-0.54679-0.39726-0.03565 8.1e-5 -0.56023 0.41898-0.5903 0.39983-0.0285-0.01816 0.21937-0.61068 0.20885-0.64279-0.01109-0.03388-0.5716-0.40334-0.56268-0.43785 0.0085-0.03272 0.64858 0.01992 0.67587-3e-6 0.02879-0.02102 0.20696-0.66826 0.24254-0.67044 0.03373-0.0021 0.18147 0.62299 0.20886 0.64279 0.02889 0.02089 0.69951-0.0097 0.71258 0.0235 0.01239 0.03144-0.53642 0.36511-0.54679 0.39727-0.01094 0.03393 0.22536 0.66228 0.19785 0.68496z"/>
   <path d="m20.383 19.019c-0.02607 0.0215-0.513-0.39734-0.54679-0.39726-0.03565 8.1e-5 -0.56023 0.41898-0.5903 0.39983-0.0285-0.01816 0.21937-0.61068 0.20885-0.64279-0.01109-0.03388-0.5716-0.40334-0.56268-0.43785 0.0085-0.03272 0.64858 0.01992 0.67587-3e-6 0.02879-0.02102 0.20696-0.66826 0.24254-0.67044 0.03373-0.0021 0.18147 0.62299 0.20886 0.64279 0.02889 0.02089 0.69951-0.0097 0.71258 0.0235 0.01239 0.03144-0.53642 0.36511-0.54679 0.39727-0.01094 0.03393 0.22536 0.66228 0.19785 0.68496z"/>
   <path d="m24.344 19.02c-0.02607 0.0215-0.513-0.39734-0.54679-0.39726-0.03565 8.1e-5 -0.56023 0.41898-0.5903 0.39983-0.0285-0.01816 0.21937-0.61068 0.20885-0.64279-0.01109-0.03388-0.5716-0.40334-0.56268-0.43785 0.0085-0.03272 0.64858 0.01992 0.67587-3e-6 0.02879-0.02102 0.20696-0.66826 0.24254-0.67044 0.03373-0.0021 0.18147 0.62299 0.20886 0.64279 0.02889 0.02089 0.69951-0.0097 0.71258 0.0235 0.01239 0.03144-0.53642 0.36511-0.54679 0.39727-0.01094 0.03393 0.22536 0.66228 0.19785 0.68496z"/>
   <path d="m6.5429 13.941c-0.026074 0.0215-0.513-0.39734-0.54679-0.39726-0.035648 8.1e-5 -0.56023 0.41898-0.5903 0.39983-0.028503-0.01816 0.21937-0.61068 0.20885-0.64279-0.011093-0.03388-0.5716-0.40334-0.56268-0.43785 0.00846-0.03272 0.64857 0.01992 0.67587-3e-6 0.028793-0.02102 0.20696-0.66826 0.24254-0.67044 0.03373-0.0021 0.18147 0.62299 0.20886 0.64279 0.028887 0.02089 0.69951-0.0097 0.71258 0.0235 0.012388 0.03144-0.53642 0.36511-0.54679 0.39727-0.010939 0.03393 0.22536 0.66228 0.19785 0.68496z"/>
   <path d="m4.5592 15.63c-0.026074 0.0215-0.513-0.39734-0.54679-0.39726-0.035648 8.1e-5 -0.56023 0.41898-0.5903 0.39983-0.028503-0.01815 0.21937-0.61068 0.20885-0.64279-0.011092-0.03388-0.5716-0.40334-0.56268-0.43785 0.00846-0.03272 0.64858 0.01992 0.67587-3e-6 0.028793-0.02102 0.20696-0.66826 0.24254-0.67044 0.03373-0.0021 0.18147 0.62299 0.20886 0.64279 0.028887 0.02089 0.69951-0.0097 0.71258 0.0235 0.012388 0.03144-0.53642 0.36511-0.54679 0.39727-0.010939 0.03393 0.22536 0.66228 0.19785 0.68496z"/>
   <path d="m10.504 13.942c-0.02607 0.0215-0.513-0.39734-0.54679-0.39726-0.035648 8.1e-5 -0.56023 0.41898-0.5903 0.39983-0.028503-0.01816 0.21937-0.61068 0.20885-0.64279-0.011093-0.03388-0.5716-0.40334-0.56268-0.43785 0.00846-0.03272 0.64858 0.01992 0.67587-3e-6 0.028793-0.02102 0.20696-0.66826 0.24254-0.67044 0.03373-0.0021 0.18147 0.62299 0.20886 0.64279 0.02889 0.02089 0.69951-0.0097 0.71258 0.0235 0.01239 0.03144-0.53642 0.36511-0.54679 0.39727-0.01094 0.03393 0.22536 0.66228 0.19785 0.68496z"/>
   <path d="m8.5204 15.631c-0.026074 0.0215-0.513-0.39734-0.54679-0.39726-0.035648 8.1e-5 -0.56023 0.41898-0.5903 0.39983-0.028503-0.01815 0.21937-0.61068 0.20885-0.64279-0.011092-0.03388-0.5716-0.40334-0.56268-0.43785 0.00846-0.03272 0.64858 0.01992 0.67587-3e-6 0.028793-0.02102 0.20696-0.66826 0.24254-0.67044 0.03373-0.0021 0.18147 0.62299 0.20886 0.64279 0.028887 0.02089 0.69951-0.0097 0.71258 0.0235 0.012388 0.03144-0.53642 0.36511-0.54679 0.39727-0.010939 0.03393 0.22536 0.66228 0.19785 0.68496z"/>
   <path d="m14.477 13.941c-0.02607 0.0215-0.513-0.39734-0.54679-0.39726-0.03565 8.1e-5 -0.56023 0.41898-0.5903 0.39983-0.0285-0.01816 0.21937-0.61068 0.20885-0.64279-0.01109-0.03388-0.5716-0.40334-0.56268-0.43785 0.0085-0.03272 0.64858 0.01992 0.67587-3e-6 0.02879-0.02102 0.20696-0.66826 0.24254-0.67044 0.03373-0.0021 0.18147 0.62299 0.20886 0.64279 0.02889 0.02089 0.69951-0.0097 0.71258 0.0235 0.01239 0.03144-0.53642 0.36511-0.54679 0.39727-0.01094 0.03393 0.22536 0.66228 0.19785 0.68496z"/>
   <path d="m12.493 15.631c-0.02607 0.0215-0.513-0.39734-0.54679-0.39726-0.03565 8.1e-5 -0.56023 0.41898-0.5903 0.39983-0.0285-0.01815 0.21937-0.61068 0.20885-0.64279-0.01109-0.03388-0.5716-0.40334-0.56268-0.43785 0.0085-0.03272 0.64858 0.01992 0.67587-3e-6 0.02879-0.02102 0.20696-0.66826 0.24254-0.67044 0.03373-0.0021 0.18147 0.62299 0.20886 0.64279 0.02889 0.02089 0.69951-0.0097 0.71258 0.0235 0.01239 0.03144-0.53642 0.36511-0.54679 0.39727-0.01094 0.03393 0.22536 0.66228 0.19785 0.68496z"/>
   <path d="m18.438 13.942c-0.02607 0.0215-0.513-0.39734-0.54679-0.39726-0.03565 8.1e-5 -0.56023 0.41898-0.5903 0.39983-0.0285-0.01816 0.21937-0.61068 0.20885-0.64279-0.01109-0.03388-0.5716-0.40334-0.56268-0.43785 0.0085-0.03272 0.64858 0.01992 0.67587-3e-6 0.02879-0.02102 0.20696-0.66826 0.24254-0.67044 0.03373-0.0021 0.18147 0.62299 0.20886 0.64279 0.02889 0.02089 0.69951-0.0097 0.71258 0.0235 0.01239 0.03144-0.53642 0.36511-0.54679 0.39727-0.01094 0.03393 0.22536 0.66228 0.19785 0.68496z"/>
   <path d="m16.454 15.631c-0.02607 0.0215-0.513-0.39734-0.54679-0.39726-0.03565 8.1e-5 -0.56023 0.41898-0.5903 0.39983-0.0285-0.01815 0.21937-0.61068 0.20885-0.64279-0.01109-0.03388-0.5716-0.40334-0.56268-0.43785 0.0085-0.03272 0.64858 0.01992 0.67587-3e-6 0.02879-0.02102 0.20696-0.66826 0.24254-0.67044 0.03373-0.0021 0.18147 0.62299 0.20886 0.64279 0.02889 0.02089 0.69951-0.0097 0.71258 0.0235 0.01239 0.03144-0.53642 0.36511-0.54679 0.39727-0.01094 0.03393 0.22536 0.66228 0.19785 0.68496z"/>
   <path d="m22.359 13.926c-0.02607 0.0215-0.513-0.39734-0.54679-0.39726-0.03565 8.1e-5 -0.56023 0.41898-0.5903 0.39983-0.0285-0.01816 0.21937-0.61068 0.20885-0.64279-0.01109-0.03388-0.5716-0.40334-0.56268-0.43785 0.0085-0.03272 0.64858 0.01992 0.67587-3e-6 0.02879-0.02102 0.20696-0.66826 0.24254-0.67044 0.03373-0.0021 0.18147 0.62299 0.20886 0.64279 0.02889 0.02089 0.69951-0.0097 0.71258 0.0235 0.01239 0.03144-0.53642 0.36511-0.54679 0.39727-0.01094 0.03393 0.22536 0.66228 0.19785 0.68496z"/>
   <path d="m20.375 15.615c-0.02607 0.0215-0.513-0.39734-0.54679-0.39726-0.03565 8.1e-5 -0.56023 0.41898-0.5903 0.39983-0.0285-0.01815 0.21937-0.61068 0.20885-0.64279-0.01109-0.03388-0.5716-0.40334-0.56268-0.43785 0.0085-0.03272 0.64858 0.01992 0.67587-3e-6 0.02879-0.02102 0.20696-0.66826 0.24254-0.67044 0.03373-0.0021 0.18147 0.62299 0.20886 0.64279 0.02889 0.02089 0.69951-0.0097 0.71258 0.0235 0.01239 0.03144-0.53642 0.36511-0.54679 0.39727-0.01094 0.03393 0.22536 0.66228 0.19785 0.68496z"/>
   <path d="m24.337 15.616c-0.02607 0.0215-0.513-0.39734-0.54679-0.39726-0.03565 8.1e-5 -0.56023 0.41898-0.5903 0.39983-0.0285-0.01815 0.21937-0.61068 0.20885-0.64279-0.01109-0.03388-0.5716-0.40334-0.56268-0.43785 0.0085-0.03272 0.64858 0.01992 0.67587-3e-6 0.02879-0.02102 0.20696-0.66826 0.24254-0.67044 0.03373-0.0021 0.18147 0.62299 0.20886 0.64279 0.02889 0.02089 0.69951-0.0097 0.71258 0.0235 0.01239 0.03144-0.53642 0.36511-0.54679 0.39727-0.01094 0.03393 0.22536 0.66228 0.19785 0.68496z"/>
   <path d="m6.5245 10.627c-0.026074 0.0215-0.513-0.39734-0.54679-0.39726-0.035648 8.1e-5 -0.56023 0.41898-0.5903 0.39983-0.028503-0.01816 0.21937-0.61068 0.20885-0.64279-0.011093-0.033879-0.5716-0.40334-0.56268-0.43785 0.00846-0.032718 0.64858 0.019922 0.67587-2.9e-6 0.028793-0.021019 0.20696-0.66826 0.24254-0.67044 0.03373-0.00207 0.18147 0.62299 0.20886 0.64279 0.028887 0.020888 0.69951-0.00967 0.71258 0.023497 0.012388 0.031441-0.53642 0.36511-0.54679 0.39727-0.010939 0.033928 0.22536 0.66228 0.19785 0.68496z"/>
   <path d="m4.5407 12.316c-0.026074 0.0215-0.513-0.39734-0.54679-0.39726-0.035648 8.1e-5 -0.56023 0.41898-0.5903 0.39983-0.028503-0.01816 0.21937-0.61068 0.20885-0.64279-0.011092-0.03388-0.5716-0.40334-0.56268-0.43785 0.00846-0.03272 0.64857 0.01992 0.67587-3e-6 0.028793-0.02102 0.20696-0.66826 0.24254-0.67044 0.03373-0.0021 0.18147 0.62299 0.20886 0.64279 0.028887 0.02089 0.69951-0.0097 0.71258 0.0235 0.012388 0.03144-0.53642 0.36511-0.54679 0.39727-0.010939 0.03393 0.22536 0.66228 0.19785 0.68496z"/>
   <path d="m10.486 10.628c-0.02607 0.0215-0.513-0.39734-0.54679-0.39726-0.035648 8.1e-5 -0.56023 0.41898-0.5903 0.39983-0.028503-0.01816 0.21937-0.61068 0.20885-0.64279-0.011093-0.033879-0.5716-0.40334-0.56268-0.43785 0.00846-0.032718 0.64858 0.019922 0.67587-2.9e-6 0.028793-0.021019 0.20696-0.66826 0.24254-0.67044 0.03373-0.00207 0.18147 0.62299 0.20886 0.64279 0.02889 0.020888 0.69951-0.00967 0.71258 0.023497 0.01239 0.031441-0.53642 0.36511-0.54679 0.39727-0.01094 0.033928 0.22536 0.66228 0.19785 0.68496z"/>
   <path d="m8.502 12.317c-0.026074 0.0215-0.513-0.39734-0.54679-0.39726-0.035648 8.1e-5 -0.56023 0.41898-0.5903 0.39983-0.028503-0.01816 0.21937-0.61068 0.20885-0.64279-0.011092-0.03388-0.5716-0.40334-0.56268-0.43785 0.00846-0.03272 0.64858 0.01992 0.67587-3e-6 0.028793-0.02102 0.20696-0.66826 0.24254-0.67044 0.03373-0.0021 0.18147 0.62299 0.20886 0.64279 0.028887 0.02089 0.69951-0.0097 0.71258 0.0235 0.012388 0.03144-0.53642 0.36511-0.54679 0.39727-0.010939 0.03393 0.22536 0.66228 0.19785 0.68496z"/>
   <path d="m14.458 10.628c-0.02607 0.0215-0.513-0.39734-0.54679-0.39726-0.03565 8.1e-5 -0.56023 0.41898-0.5903 0.39983-0.0285-0.01816 0.21937-0.61068 0.20885-0.64279-0.01109-0.033879-0.5716-0.40334-0.56268-0.43785 0.0085-0.032718 0.64858 0.019922 0.67587-2.9e-6 0.02879-0.021019 0.20696-0.66826 0.24254-0.67044 0.03373-0.00207 0.18147 0.62299 0.20886 0.64279 0.02889 0.020888 0.69951-0.00967 0.71258 0.023497 0.01239 0.031441-0.53642 0.36511-0.54679 0.39727-0.01094 0.033928 0.22536 0.66228 0.19785 0.68496z"/>
   <path d="m12.474 12.317c-0.02607 0.0215-0.513-0.39734-0.54679-0.39726-0.03565 8.1e-5 -0.56023 0.41898-0.5903 0.39983-0.0285-0.01816 0.21937-0.61068 0.20885-0.64279-0.01109-0.03388-0.5716-0.40334-0.56268-0.43785 0.0085-0.03272 0.64857 0.01992 0.67587-3e-6 0.02879-0.02102 0.20696-0.66826 0.24254-0.67044 0.03373-0.0021 0.18147 0.62299 0.20886 0.64279 0.02889 0.02089 0.69951-0.0097 0.71258 0.0235 0.01239 0.03144-0.53642 0.36511-0.54679 0.39727-0.01094 0.03393 0.22536 0.66228 0.19785 0.68496z"/>
   <path d="m18.419 10.628c-0.02607 0.0215-0.513-0.39734-0.54679-0.39726-0.03565 8.1e-5 -0.56023 0.41898-0.5903 0.39983-0.0285-0.01816 0.21937-0.61068 0.20885-0.64279-0.01109-0.033879-0.5716-0.40334-0.56268-0.43785 0.0085-0.032718 0.64858 0.019922 0.67587-2.9e-6 0.02879-0.021019 0.20696-0.66826 0.24254-0.67044 0.03373-0.00207 0.18147 0.62299 0.20886 0.64279 0.02889 0.020888 0.69951-0.00967 0.71258 0.023497 0.01239 0.031441-0.53642 0.36511-0.54679 0.39727-0.01094 0.033928 0.22536 0.66228 0.19785 0.68496z"/>
   <path d="m16.436 12.317c-0.02607 0.0215-0.513-0.39734-0.54679-0.39726-0.03565 8.1e-5 -0.56023 0.41898-0.5903 0.39983-0.0285-0.01816 0.21937-0.61068 0.20885-0.64279-0.01109-0.03388-0.5716-0.40334-0.56268-0.43785 0.0085-0.03272 0.64858 0.01992 0.67587-3e-6 0.02879-0.02102 0.20696-0.66826 0.24254-0.67044 0.03373-0.0021 0.18147 0.62299 0.20886 0.64279 0.02889 0.02089 0.69951-0.0097 0.71258 0.0235 0.01239 0.03144-0.53642 0.36511-0.54679 0.39727-0.01094 0.03393 0.22536 0.66228 0.19785 0.68496z"/>
   <path d="m22.341 10.612c-0.02607 0.0215-0.513-0.39734-0.54679-0.39726-0.03565 8.1e-5 -0.56023 0.41898-0.5903 0.39983-0.0285-0.01816 0.21937-0.61068 0.20885-0.64279-0.01109-0.033879-0.5716-0.40334-0.56268-0.43785 0.0085-0.032718 0.64858 0.019922 0.67587-2.9e-6 0.02879-0.021019 0.20696-0.66826 0.24254-0.67044 0.03373-0.00207 0.18147 0.62299 0.20886 0.64279 0.02889 0.020888 0.69951-0.00967 0.71258 0.023497 0.01239 0.031441-0.53642 0.36511-0.54679 0.39727-0.01094 0.033928 0.22536 0.66228 0.19785 0.68496z"/>
   <path d="m20.357 12.301c-0.02607 0.0215-0.513-0.39734-0.54679-0.39726-0.03565 8.1e-5 -0.56023 0.41898-0.5903 0.39983-0.0285-0.01816 0.21937-0.61068 0.20885-0.64279-0.01109-0.03388-0.5716-0.40334-0.56268-0.43785 0.0085-0.03272 0.64858 0.01992 0.67587-3e-6 0.02879-0.02102 0.20696-0.66826 0.24254-0.67044 0.03373-0.0021 0.18147 0.62299 0.20886 0.64279 0.02889 0.02089 0.69951-0.0097 0.71258 0.0235 0.01239 0.03144-0.53642 0.36511-0.54679 0.39727-0.01094 0.03393 0.22536 0.66228 0.19785 0.68496z"/>
   <path d="m24.318 12.302c-0.02607 0.0215-0.513-0.39734-0.54679-0.39726-0.03565 8.1e-5 -0.56023 0.41898-0.5903 0.39983-0.0285-0.01816 0.21937-0.61068 0.20885-0.64279-0.01109-0.03388-0.5716-0.40334-0.56268-0.43785 0.0085-0.03272 0.64858 0.01992 0.67587-3e-6 0.02879-0.02102 0.20696-0.66826 0.24254-0.67044 0.03373-0.0021 0.18147 0.62299 0.20886 0.64279 0.02889 0.02089 0.69951-0.0097 0.71258 0.0235 0.01239 0.03144-0.53642 0.36511-0.54679 0.39727-0.01094 0.03393 0.22536 0.66228 0.19785 0.68496z"/>
   <path d="m6.5392 7.2339c-0.026074 0.021498-0.513-0.39734-0.54679-0.39726-0.035648 8.05e-5 -0.56023 0.41898-0.5903 0.39983-0.028503-0.018155 0.21937-0.61068 0.20885-0.64279-0.011092-0.033878-0.5716-0.40334-0.56268-0.43785 0.00846-0.032718 0.64857 0.019922 0.67587-2.9e-6 0.028793-0.021019 0.20696-0.66826 0.24254-0.67044 0.03373-0.00207 0.18147 0.62299 0.20886 0.64279 0.028887 0.020888 0.69951-0.00967 0.71258 0.023497 0.012388 0.031441-0.53642 0.36511-0.54679 0.39727-0.010939 0.033928 0.22536 0.66228 0.19785 0.68496z"/>
   <path d="m4.5555 8.9119c-0.026074 0.021498-0.513-0.39734-0.54679-0.39726-0.035648 8.05e-5 -0.56023 0.41898-0.5903 0.39983-0.028503-0.018155 0.21937-0.61068 0.20885-0.64279-0.011092-0.033878-0.5716-0.40334-0.56268-0.43785 0.00846-0.032718 0.64858 0.019922 0.67587-2.8e-6 0.028792-0.021019 0.20696-0.66826 0.24254-0.67044 0.03373-0.00207 0.18147 0.62299 0.20886 0.64279 0.028887 0.020888 0.69951-0.00967 0.71258 0.023497 0.012388 0.031441-0.53642 0.36511-0.54679 0.39727-0.010939 0.033928 0.22536 0.66228 0.19785 0.68496z"/>
   <path d="m10.5 7.2347c-0.026074 0.021498-0.513-0.39734-0.54679-0.39726-0.035648 8.06e-5 -0.56023 0.41898-0.5903 0.39983-0.028503-0.018155 0.21937-0.61068 0.20885-0.64279-0.011092-0.033878-0.5716-0.40334-0.56268-0.43785 0.00846-0.032718 0.64857 0.019922 0.67587-2.9e-6 0.028793-0.021019 0.20696-0.66826 0.24254-0.67044 0.03373-0.00207 0.18147 0.62299 0.20886 0.64279 0.02889 0.020888 0.69951-0.00967 0.71258 0.023497 0.01239 0.031441-0.53642 0.36511-0.54679 0.39727-0.01094 0.033928 0.22536 0.66228 0.19785 0.68496z"/>
   <path d="m8.5167 8.9127c-0.026074 0.021498-0.513-0.39734-0.54679-0.39726-0.035648 8.05e-5 -0.56023 0.41898-0.5903 0.39983-0.028503-0.018155 0.21937-0.61068 0.20885-0.64279-0.011092-0.033878-0.5716-0.40334-0.56268-0.43785 0.00846-0.032718 0.64857 0.019922 0.67587-2.8e-6 0.028793-0.021019 0.20696-0.66826 0.24254-0.67044 0.03373-0.00207 0.18147 0.62299 0.20886 0.64279 0.028887 0.020888 0.69951-0.00967 0.71258 0.023497 0.012388 0.031441-0.53642 0.36511-0.54679 0.39727-0.010939 0.033928 0.22536 0.66228 0.19785 0.68496z"/>
   <path d="m14.473 7.2343c-0.02607 0.021498-0.513-0.39734-0.54679-0.39726-0.03565 8.05e-5 -0.56023 0.41898-0.5903 0.39983-0.0285-0.018155 0.21937-0.61068 0.20885-0.64279-0.01109-0.033878-0.5716-0.40334-0.56268-0.43785 0.0085-0.032718 0.64858 0.019922 0.67587-2.9e-6 0.02879-0.021019 0.20696-0.66826 0.24254-0.67044 0.03373-0.00207 0.18147 0.62299 0.20886 0.64279 0.02889 0.020888 0.69951-0.00967 0.71258 0.023497 0.01239 0.031441-0.53642 0.36511-0.54679 0.39727-0.01094 0.033928 0.22536 0.66228 0.19785 0.68496z"/>
   <path d="m12.489 8.9123c-0.02607 0.021498-0.513-0.39734-0.54679-0.39726-0.03565 8.05e-5 -0.56023 0.41898-0.5903 0.39983-0.0285-0.018155 0.21937-0.61068 0.20885-0.64279-0.01109-0.033878-0.5716-0.40334-0.56268-0.43785 0.0085-0.032718 0.64857 0.019922 0.67587-2.8e-6 0.02879-0.021019 0.20696-0.66826 0.24254-0.67044 0.03373-0.00207 0.18147 0.62299 0.20886 0.64279 0.02889 0.020888 0.69951-0.00967 0.71258 0.023497 0.01239 0.031441-0.53642 0.36511-0.54679 0.39727-0.01094 0.033928 0.22536 0.66228 0.19785 0.68496z"/>
   <path d="m18.434 7.2351c-0.02607 0.021498-0.513-0.39734-0.54679-0.39726-0.03565 8.06e-5 -0.56023 0.41898-0.5903 0.39983-0.0285-0.018155 0.21937-0.61068 0.20885-0.64279-0.01109-0.033878-0.5716-0.40334-0.56268-0.43785 0.0085-0.032718 0.64858 0.019922 0.67587-2.9e-6 0.02879-0.021019 0.20696-0.66826 0.24254-0.67044 0.03373-0.00207 0.18147 0.62299 0.20886 0.64279 0.02889 0.020888 0.69951-0.00967 0.71258 0.023497 0.01239 0.031441-0.53642 0.36511-0.54679 0.39727-0.01094 0.033928 0.22536 0.66228 0.19785 0.68496z"/>
   <path d="m16.45 8.9131c-0.02607 0.021498-0.513-0.39734-0.54679-0.39726-0.03565 8.05e-5 -0.56023 0.41898-0.5903 0.39983-0.0285-0.018155 0.21937-0.61068 0.20885-0.64279-0.01109-0.033879-0.5716-0.40334-0.56268-0.43785 0.0085-0.032718 0.64858 0.019922 0.67587-2.8e-6 0.02879-0.021019 0.20696-0.66826 0.24254-0.67044 0.03373-0.00207 0.18147 0.62299 0.20886 0.64279 0.02889 0.020888 0.69951-0.00967 0.71258 0.023497 0.01239 0.031441-0.53642 0.36511-0.54679 0.39727-0.01094 0.033928 0.22536 0.66228 0.19785 0.68496z"/>
   <path d="m22.355 7.2187c-0.02607 0.021498-0.513-0.39734-0.54679-0.39726-0.03565 8.05e-5 -0.56023 0.41898-0.5903 0.39983-0.0285-0.018155 0.21937-0.61068 0.20885-0.64279-0.01109-0.033878-0.5716-0.40334-0.56268-0.43785 0.0085-0.032718 0.64858 0.019922 0.67587-2.9e-6 0.02879-0.021019 0.20696-0.66826 0.24254-0.67044 0.03373-0.00207 0.18147 0.62299 0.20886 0.64279 0.02889 0.020888 0.69951-0.00967 0.71258 0.023497 0.01239 0.031441-0.53642 0.36511-0.54679 0.39727-0.01094 0.033928 0.22536 0.66228 0.19785 0.68496z"/>
   <path d="m20.372 8.8967c-0.02607 0.021498-0.513-0.39734-0.54679-0.39726-0.03565 8.05e-5 -0.56023 0.41898-0.5903 0.39983-0.0285-0.018155 0.21937-0.61068 0.20885-0.64279-0.01109-0.033878-0.5716-0.40334-0.56268-0.43785 0.0085-0.032718 0.64858 0.019922 0.67587-2.8e-6 0.02879-0.021019 0.20696-0.66826 0.24254-0.67044 0.03373-0.00207 0.18147 0.62299 0.20886 0.64279 0.02889 0.020888 0.69951-0.00967 0.71258 0.023497 0.01239 0.031441-0.53642 0.36511-0.54679 0.39727-0.01094 0.033928 0.22536 0.66228 0.19785 0.68496z"/>
   <path d="m24.333 8.8975c-0.02607 0.021498-0.513-0.39734-0.54679-0.39726-0.03565 8.05e-5 -0.56023 0.41898-0.5903 0.39983-0.0285-0.018155 0.21937-0.61068 0.20885-0.64279-0.01109-0.033879-0.5716-0.40334-0.56268-0.43785 0.0085-0.032718 0.64858 0.019922 0.67587-2.8e-6 0.02879-0.021019 0.20696-0.66826 0.24254-0.67044 0.03373-0.00207 0.18147 0.62299 0.20886 0.64279 0.02889 0.020888 0.69951-0.00967 0.71258 0.023497 0.01239 0.031441-0.53642 0.36511-0.54679 0.39727-0.01094 0.033928 0.22536 0.66228 0.19785 0.68496z"/>
   <path d="m4.6034 5.549c-0.026074 0.021498-0.513-0.39734-0.54679-0.39726-0.035648 8.06e-5 -0.56023 0.41898-0.5903 0.39983-0.028503-0.018155 0.21937-0.61068 0.20885-0.64279-0.011092-0.033878-0.5716-0.40334-0.56268-0.43785 0.00846-0.032718 0.64858 0.019922 0.67587-2.9e-6 0.028792-0.021019 0.20696-0.66826 0.24254-0.67044 0.03373-0.00207 0.18147 0.62299 0.20886 0.64279 0.028887 0.020888 0.69951-0.00967 0.71258 0.023497 0.012388 0.031441-0.53642 0.36511-0.54679 0.39727-0.010939 0.033928 0.22536 0.66228 0.19785 0.68496z"/>
   <path d="m8.5646 5.5498c-0.026074 0.021498-0.513-0.39734-0.54679-0.39726-0.035648 8.06e-5 -0.56023 0.41898-0.5903 0.39983-0.028503-0.018155 0.21937-0.61068 0.20885-0.64279-0.011092-0.033878-0.5716-0.40334-0.56268-0.43785 0.00846-0.032718 0.64858 0.019922 0.67587-2.9e-6 0.028793-0.021019 0.20696-0.66826 0.24254-0.67044 0.03373-0.00207 0.18147 0.62299 0.20886 0.64279 0.028887 0.020888 0.69951-0.00967 0.71258 0.023497 0.012388 0.031441-0.53642 0.36511-0.54679 0.39727-0.010939 0.033928 0.22536 0.66228 0.19785 0.68496z"/>
   <path d="m12.537 5.5494c-0.02607 0.021498-0.513-0.39734-0.54679-0.39726-0.03565 8.06e-5 -0.56023 0.41898-0.5903 0.39983-0.0285-0.018155 0.21937-0.61068 0.20885-0.64279-0.01109-0.033879-0.5716-0.40334-0.56268-0.43785 0.0085-0.032718 0.64858 0.019922 0.67587-2.9e-6 0.02879-0.021018 0.20696-0.66826 0.24254-0.67044 0.03373-0.00207 0.18147 0.62299 0.20886 0.64279 0.02889 0.020888 0.69951-0.00967 0.71258 0.023497 0.01239 0.031441-0.53642 0.36511-0.54679 0.39727-0.01094 0.033928 0.22536 0.66228 0.19785 0.68496z"/>
   <path d="m16.498 5.5502c-0.02607 0.021498-0.513-0.39734-0.54679-0.39726-0.03565 8.06e-5 -0.56023 0.41898-0.5903 0.39983-0.0285-0.018155 0.21937-0.61068 0.20885-0.64279-0.01109-0.033879-0.5716-0.40334-0.56268-0.43785 0.0085-0.032718 0.64858 0.019922 0.67587-2.9e-6 0.02879-0.021019 0.20696-0.66826 0.24254-0.67044 0.03373-0.00207 0.18147 0.62299 0.20886 0.64279 0.02889 0.020888 0.69951-0.00967 0.71258 0.023497 0.01239 0.031441-0.53642 0.36511-0.54679 0.39727-0.01094 0.033928 0.22536 0.66228 0.19785 0.68496z"/>
   <path d="m20.42 5.5338c-0.02607 0.021498-0.513-0.39734-0.54679-0.39726-0.03565 8.06e-5 -0.56023 0.41898-0.5903 0.39983-0.0285-0.018155 0.21937-0.61068 0.20885-0.64279-0.01109-0.033879-0.5716-0.40334-0.56268-0.43785 0.0085-0.032718 0.64858 0.019922 0.67587-2.9e-6 0.02879-0.021018 0.20696-0.66826 0.24254-0.67044 0.03373-0.00207 0.18147 0.62299 0.20886 0.64279 0.02889 0.020888 0.69951-0.00967 0.71258 0.023497 0.01239 0.031441-0.53642 0.36511-0.54679 0.39727-0.01094 0.033928 0.22536 0.66228 0.19785 0.68496z"/>
   <path d="m24.381 5.5346c-0.02607 0.021498-0.513-0.39734-0.54679-0.39726-0.03565 8.06e-5 -0.56023 0.41898-0.5903 0.39983-0.0285-0.018155 0.21937-0.61068 0.20885-0.64279-0.01109-0.033879-0.5716-0.40334-0.56268-0.43785 0.0085-0.032718 0.64858 0.019922 0.67587-2.9e-6 0.02879-0.021019 0.20696-0.66826 0.24254-0.67044 0.03373-0.00207 0.18147 0.62299 0.20886 0.64279 0.02889 0.020888 0.69951-0.00967 0.71258 0.023497 0.01239 0.031441-0.53642 0.36511-0.54679 0.39727-0.01094 0.033928 0.22536 0.66228 0.19785 0.68496z"/>
  </g>
 </g>
</svg>
