<svg xmlns="http://www.w3.org/2000/svg" viewBox="0 0 64 64">
    <g stroke="#000">
        <path fill="#ff8080" fill-rule="evenodd" d="M36.426 41.572c.305 6.707-4.27 3.86-10.23 13.568-2.311 2.422-6.907-.458-6.387-1.989 1.499-2.062 1.85-4.014 2.541-6.077-9.523 3.513-13.939-7.408-12.22-9.965.84-4.191 24.918-1.584 26.296 4.463z"/>
        <path fill="#ff8080" fill-rule="evenodd" d="M32.29 10.98c2.793-1.764 6.215-1.03 7.25-.126 1.217-.444 3.3.471 4.187 1.938 7.908 1.78 10.234 4.717 10.375 7.813 3.688 2.88 3.421 7.345 1.875 9.312-.702 5.916-3.078 8.034-6.25 8.063-2.68 1.978-6.4 1.572-7.5.25-2.864 3.972-7.503 3.294-9 2.5-5.96.959-10.82.819-11.875-3.125-3.537 1.393-6.997.62-7.5-.188-6.502 1.714-6.895-5.38-5.75-7.625-1.924-5.044 1.997-8.388 3.437-8.75-1.435-2.925 2.767-5.411 5.438-4.25-.02-3.066 3.137-4.907 4.312-3.937 2.082-4.872 8.807-4.004 11-1.876z"/>
        <path fill="none" d="M22.174 47.573c1.645-2.414 2.021-4.754 2.12-7.093M42.295 38.313c-1.797-2.188-1.918-2.786-2.125-4.188M56.035 29.595c-1.979-2.028-3.608-.409-4.678.03M54.154 20.703c-1.4 6.129-10.735.842-13.797 4.922M47.015 23.931c-1.46-.652-3.388-1.062-3.47-2.431M43.607 12.61c-4.133 1.898-3.56 5.18-2.062 7.14M40.439 17.065c-.223.297-1.546 1.357-2.933.909M32.404 10.797c.503 1.079-1.978 11.78 1.766 12.266M31.959 17.254c-2.172-.092-2.572.6-2.92 1.63M21.264 12.781c-1.492 3.672 3.28 6.782 3.28 6.782M17.107 17.219c-2.597 3.208 2.665 5.967 3.78 4.511M17.091 20.506c-.33 1.15-1.307 1.616-.218 4.26M7.92 29.25c1.347 1.694 6.625-.25 6.625-.25M13.81 37.438c3.495-.99 2.547-4.938 2.547-4.938M23.17 40.14c4.022-.93 3.477-2.968 3-4.39M32.795 40.813c1.068-5.52-1.563-6.188-1.563-6.188M29.67 24.063c.981 2.535-3.59 4.489 3.125 7.625M29.193 27.105c-1.554 2.438-2.478 2.777-3.336 2.895M49.695 33.877c-2.983-4.235-6.15-.917-10.15-3.877"/>
    </g>
</svg>
