<svg version="1.1" viewBox="0 0 64 64" xmlns="http://www.w3.org/2000/svg">
 <circle cx="31.978" cy="31.896" r="29.831" color="#000000" fill="#ffb380" fill-rule="evenodd" overflow="visible" solid-color="#000000" stroke="#000" stroke-width="2" style="isolation:auto;mix-blend-mode:normal"/>
 <g transform="translate(57.705,5.303)" stroke="#000">
  <path d="m-43.093 29.748c-2.702 11.407 1.355 18.984 19.28 18.455 16.51-0.488 17.603-7.877 16.234-20.744z" fill="#ff8080" fill-rule="evenodd" stroke-width=".968"/>
  <path d="m-42.09 29.132c-2.253 10.742 1.406 17.979 17.798 17.878 13.621-0.084 17.687-6.415 15.262-20.35" fill="none" stroke-width=".484"/>
  <path d="m-38.45 4.699c-0.078 2.918-0.59 5.403-1.844 8.473-2.477 6.063-4.44 9.387-4.578 13.928-0.289 9.455 9.713 12.4 20.08 11.913 7.73-0.363 18.379-3.796 18.148-11.828-0.19-6.622-1.88-7.811-4.139-12.736-0.96-2.094-1.837-7.137-1.926-10.421-0.026-0.97-7.005-1.41-6.975-0.232 0.084 3.293-0.924 7.9-1.895 11.674-2.859 0.486-5.91 0.82-8.966-0.069-0.788-2.481-1.092-5.173-0.888-10.99 0.052-1.482-6.976-1.276-7.017 0.288z" fill="#faa" fill-rule="evenodd" stroke-width=".977"/>
  <path d="m-37.347 4.113c-0.912 11.974-2.63 8.683-5.802 20.081-2.45 8.798 5.775 13.878 18.555 13.024 6.833-0.457 16.019-2.608 16.27-10.506 0.277-8.737-5.946-9.252-5.54-23.223" fill="none" stroke-width=".488"/>
  <path d="m-18.094 3.194c-0.508 2.704-0.779 12.045-2.16 13.5-0.63 0.662-10.825 0.762-11.357-0.188-1.116-1.996-1.97-10.303-0.809-12.736" fill="none" stroke-width=".488"/>
  <path d="m-26.914 32.191c-0.012 1.911-0.264 8.852 0.078 15.961 0.094 1.968 2.743 4.306 2.743 4.306s1.835-2.462 1.839-4.12c0.018-7.237-0.046-14.152-0.082-15.84-0.025-1.152-4.573-1.255-4.578-0.307z" fill="#faa" fill-rule="evenodd" stroke-width=".977"/>
  <ellipse transform="matrix(.95664 .29128 -.29951 .9541 0 0)" cx="-11.253" cy="46.385" rx="3.729" ry="3.661" fill="#ffd5d5" stroke-linecap="round" stroke-linejoin="round" stroke-width="1.111"/>
  <path d="m-40.257 13.321c12.794 4.408 20.16 2.374 29.252 0.147" fill="none" stroke-width=".429"/>
 </g>
</svg>
