<?xml version="1.0" encoding="UTF-8" standalone="no"?>
<!-- Created with Inkscape (http://www.inkscape.org/) -->

<svg
   xmlns:dc="http://purl.org/dc/elements/1.1/"
   xmlns:cc="http://creativecommons.org/ns#"
   xmlns:rdf="http://www.w3.org/1999/02/22-rdf-syntax-ns#"
   xmlns:svg="http://www.w3.org/2000/svg"
   xmlns="http://www.w3.org/2000/svg"
   xmlns:sodipodi="http://sodipodi.sourceforge.net/DTD/sodipodi-0.dtd"
   xmlns:inkscape="http://www.inkscape.org/namespaces/inkscape"
   width="100%"
   height="100%"
   viewBox="0 0 64.000001 64.000001"
   id="svg4311"
   version="1.1"
   inkscape:version="0.91 r13725"
   sodipodi:docname="menu.svg">
  <defs
     id="defs4313" />
  <sodipodi:namedview
     id="base"
     pagecolor="#ffffff"
     bordercolor="#666666"
     borderopacity="1.0"
     inkscape:pageopacity="0.0"
     inkscape:pageshadow="2"
     inkscape:zoom="5.656854"
     inkscape:cx="35.892453"
     inkscape:cy="31.645432"
     inkscape:document-units="px"
     inkscape:current-layer="layer3"
     showgrid="false"
     units="px"
     inkscape:window-width="2560"
     inkscape:window-height="1388"
     inkscape:window-x="-8"
     inkscape:window-y="-8"
     inkscape:window-maximized="1" />
  <metadata
     id="metadata4316">
    <rdf:RDF>
      <cc:Work
         rdf:about="">
        <dc:format>image/svg+xml</dc:format>
        <dc:type
           rdf:resource="http://purl.org/dc/dcmitype/StillImage" />
        <dc:title />
      </cc:Work>
    </rdf:RDF>
  </metadata>
  <g
     inkscape:groupmode="layer"
     id="layer3"
     inkscape:label="Stage3"
     style="display:inline">
    <path
       style="fill:#999999;fill-rule:evenodd;stroke:#000000;stroke-width:1px;stroke-linecap:butt;stroke-linejoin:miter;stroke-opacity:1"
       d="m 24.250004,2.4999996 c -3.059912,0.6900883 -5.569787,1.9302133 -7.6875,3.5625 l -0.125,6.6250004 c -1.365308,1.1875 -2.351749,2.375 -3.25,3.5625 L 5.6875038,16.3125 C 3.9597616,18.470602 2.745176,20.955259 2.3125036,23.937497 l 5.0000002,5.9375 c -0.1391883,1.743355 -0.09469,3.303023 0,4.8125 l -4.8750002,5.25 c 0.6734067,2.554534 1.2285641,5.092176 3.5000002,7.875 l 6.8125002,0.125 c 1.158444,1.279056 2.418457,2.456543 3.8125,3.5 l 0.0625,7 c 2.144373,1.982964 4.641916,3.047686 7.375,3.5 l 5.75,-5 c 1.447261,0.195804 2.771126,0.484155 5.125,0 l 5.375,4.9375 c 3.236073,-0.409133 5.683869,-1.678203 7.625,-3.5 l 0.1875,-7.4375 c 1.493035,-0.883105 2.325133,-1.876367 3.125,-2.875 l 7.125,-0.25 c 1.744708,-2.079917 3.100336,-4.41922 3.4375,-7.4375 l -4.8125,-5.5 c 0.178154,-1.613512 0.336366,-3.246967 -0.0625,-5.4375 l 4.875,-4.875 C 61.12973,21.916665 60.531072,19.270832 58.187504,16.625 l -6.6875,-0.0625 c -0.937955,-1.520151 -2.153487,-2.623936 -3.5625,-3.4375 l -0.125,-7.0000004 c -2.234625,-1.9627925 -4.795654,-2.9463727 -7.5,-3.5 L 35.356698,7.1691938 C 33.709583,6.941309 31.957775,6.7297286 29.500004,7.3124996 Z m 8.148438,16.3066414 c 7.420171,-2.87e-4 13.435556,6.054448 13.435546,13.523436 1.3e-5,7.468989 -6.015374,13.523727 -13.435546,13.52344 -7.41941,-7.98e-4 -13.433607,-6.055218 -13.433594,-13.52344 -10e-6,-7.46822 6.014185,-13.522638 13.433594,-13.523436 z"
       id="path4204"
       inkscape:connector-curvature="0"
       sodipodi:nodetypes="ccccccccccccccccccccccccccccccccccscsc" />
  </g>
</svg>
