<svg xmlns="http://www.w3.org/2000/svg" viewBox="0 0 64 64">
    <g stroke="#000" stroke-linejoin="round" stroke-width="2">
        <path fill="#666" fill-rule="evenodd" d="M25.392 56.797c-4.387.414-11.781.343-16.44 0-3.145-13.145-4.627-28.48-3.315-38.14 4.154-.707 19.557-.615 23.113-.133.61 10.722.045 21.14-3.358 38.273z"/>
        <ellipse cx="17.172" cy="10.525" fill="#666" stroke-linecap="round" rx="7.513" ry="7.491"/>
        <path fill="#666" fill-rule="evenodd" d="M57.919 56.62c-4.387.415-11.781.344-16.44 0-3.145-13.145-4.627-28.48-3.315-38.14 4.154-.707 19.557-.615 23.113-.132.61 10.721.044 21.14-3.358 38.272z"/>
        <ellipse cx="49.698" cy="10.348" fill="#666" stroke-linecap="round" rx="7.513" ry="7.491"/>
        <path fill="#999" fill-rule="evenodd" d="M41.277 62.055c-4.386.415-11.78.344-16.44 0-3.145-13.144-4.626-28.479-3.314-38.14 4.154-.706 19.557-.614 23.113-.132.61 10.722.044 21.14-3.359 38.272z"/>
        <ellipse cx="33.057" cy="15.784" fill="#999" stroke-linecap="round" rx="7.513" ry="7.491"/>
    </g>
</svg>
