<svg xmlns="http://www.w3.org/2000/svg" viewBox="0 0 64 64">
    <g fill="#f55" fill-rule="evenodd" stroke="#000">
        <path stroke-width=".709" d="M9.642 47.41C25.316 33.33 47.597 9.172 57.834 6.27c-3.547 10.861-27.522 31.616-40.715 47.956z"/>
        <path stroke-width=".354" d="M57.026 6.92L12.435 52"/>
        <path stroke-width=".658" d="M2.5 44.719s5.622 4.063 8.509 6.042l-8.107 7.523c.39 2.754 2.15 3.138 3.865 3.597l7.184-8.382 6.931 7.712c1.6-.668 3.301-1.242 3.253-3.444l-6.393-5.2-3.416-2.445-2.936-3.337-5.247-5.767c-1.976.717-3.205 2.102-3.643 3.7z"/>
        <g>
            <path stroke-width=".709" d="M54.887 46.95C39.213 32.87 16.932 8.713 6.696 5.81c3.546 10.862 27.52 31.616 40.715 47.956z"/>
            <path stroke-width=".354" d="M7.504 6.46l44.59 45.079"/>
            <path stroke-width=".658" d="M62.03 44.259s-5.622 4.063-8.51 6.043l8.107 7.523c-.39 2.754-2.149 3.137-3.864 3.596l-7.184-8.382-6.932 7.712c-1.6-.668-3.3-1.242-3.253-3.444l6.393-5.2 3.416-2.445 2.936-3.336 5.247-5.768c1.976.717 3.205 2.102 3.643 3.701z"/>
        </g>
    </g>
</svg>
