<svg xmlns="http://www.w3.org/2000/svg" viewBox="0 0 64 64">
    <g fill-rule="evenodd" stroke="#000" stroke-width="1.12">
        <path fill="#333" d="M12.383 15.984l3.319-4.117 5.052-.777L35.41 28.65l16.702-16.997 4.32-.782 6.494 4.376-1.261 3.814-19.693 14.966 12.12 11.265 3.37 6.199-1.502 5.664-6.066-1.425-14.463-15.241-18.58 21.989-7.818-1.166-.62-6.113 2.933-5.544L30.03 34 12.824 20.623z"/>
        <path fill="#ff8080" d="M10.826 14.045l3.319-4.117 5.052-.778 14.656 17.56L50.555 9.715l4.32-.782 6.494 4.376-1.262 3.813-19.692 14.967 12.12 11.264 3.37 6.2-1.502 5.663-6.066-1.425-14.463-15.24-18.58 21.989-7.818-1.166-.62-6.113 2.933-5.544L28.474 32.06 11.267 18.684z"/>
    </g>
</svg>
