<svg xmlns="http://www.w3.org/2000/svg" viewBox="0 0 64 64">
    <g fill="#ff8080">
        <path fill-rule="evenodd" stroke="#000" stroke-width="1.065" d="M10.27 14.455L48.1 55.721l6.179-6.088L16.165 8.409z"/>
        <path stroke="#000" stroke-linejoin="round" stroke-width="1.037" d="M10.49 11.154a29.75 29.81 84.26 0 0-8.278 23.701A29.75 29.81 84.26 0 0 34.85 61.478a29.75 29.81 84.26 0 0 26.686-32.586 29.75 29.81 84.26 0 0-32.637-26.62 29.75 29.81 84.26 0 0-18.408 8.882zm4.552 3.429a24.11 24.159 84.26 0 1 14.42-6.699 24.11 24.159 84.26 0 1 26.446 21.573 24.11 24.159 84.26 0 1-21.623 26.409A24.11 24.159 84.26 0 1 7.835 34.29a24.11 24.159 84.26 0 1 7.207-19.707z"/>
        <path fill-rule="evenodd" d="M11.568 15.12l35.95 39.2 5.453-5.344L16.756 9.81z"/>
    </g>
</svg>
