<svg xmlns="http://www.w3.org/2000/svg" viewBox="0 0 64 64">
    <g fill-rule="evenodd">
        <path fill="#ff8080" stroke="#000" d="M31.458 62.664C18.217 50.07 8.353 33.714 8.511 13.236c3.163-.046 14.503-5.503 22.866-11.77 8.871 6.118 19.568 11.242 22.56 11.5.04 20.618-9.254 36.175-22.479 49.698z"/>
        <path fill="#fff" fill-opacity=".785" d="M32.313 2.994c9.602 5.584 11.366 7.71 20.845 10.79-9.267-.967-14.264-3.883-20.845-10.79z"/>
        <path fill-opacity=".15" d="M8.73 13.492c3.704-.949 16.199-7.336 22.592-11.806-.053 10.752.585 40.817.208 61.302C10.956 41.402 8.675 24.036 8.73 13.492z"/>
    </g>
</svg>
