<?xml version="1.0" encoding="UTF-8" standalone="no"?>
<!-- Created with Inkscape (http://www.inkscape.org/) -->

<svg
   xmlns:dc="http://purl.org/dc/elements/1.1/"
   xmlns:cc="http://creativecommons.org/ns#"
   xmlns:rdf="http://www.w3.org/1999/02/22-rdf-syntax-ns#"
   xmlns:svg="http://www.w3.org/2000/svg"
   xmlns="http://www.w3.org/2000/svg"
   xmlns:sodipodi="http://sodipodi.sourceforge.net/DTD/sodipodi-0.dtd"
   xmlns:inkscape="http://www.inkscape.org/namespaces/inkscape"
   width="100%"
   height="100%"
   viewBox="0 0 64.000001 64.000001"
   id="svg4311"
   version="1.1"
   inkscape:version="0.91 r13725"
   sodipodi:docname="staminaIcon.svg">
  <defs
     id="defs4313" />
  <sodipodi:namedview
     id="base"
     pagecolor="#ffffff"
     bordercolor="#666666"
     borderopacity="1.0"
     inkscape:pageopacity="0.0"
     inkscape:pageshadow="2"
     inkscape:zoom="1.4142135"
     inkscape:cx="299.72166"
     inkscape:cy="-40.090366"
     inkscape:document-units="px"
     inkscape:current-layer="layer3"
     showgrid="false"
     units="px"
     inkscape:window-width="2560"
     inkscape:window-height="1388"
     inkscape:window-x="-8"
     inkscape:window-y="-8"
     inkscape:window-maximized="1" />
  <metadata
     id="metadata4316">
    <rdf:RDF>
      <cc:Work
         rdf:about="">
        <dc:format>image/svg+xml</dc:format>
        <dc:type
           rdf:resource="http://purl.org/dc/dcmitype/StillImage" />
        <dc:title></dc:title>
      </cc:Work>
    </rdf:RDF>
  </metadata>
  <g
     inkscape:groupmode="layer"
     id="layer3"
     inkscape:label="Stage3"
     style="display:inline">
    <path
       style="fill:#ff8080;fill-opacity:1;stroke:#000000;stroke-width:0.97828817;stroke-linecap:round;stroke-linejoin:round;stroke-miterlimit:4;stroke-dasharray:none;stroke-dashoffset:0;stroke-opacity:1"
       d="M 32.0625 5.1933594 C 17.318625 5.1929493 5.3667811 17.18048 5.3671875 31.96875 C 5.3667806 46.757021 17.318624 58.744551 32.0625 58.744141 C 46.806376 58.744551 58.758219 46.757021 58.757812 31.96875 C 58.758218 17.180479 46.806376 5.1929489 32.0625 5.1933594 z M 33.5 13.337891 L 53.013672 31.669922 L 33.685547 50.138672 C 31.917936 48.274839 30.594609 46.56701 29.447266 44.513672 L 43.638672 32.066406 L 29.447266 18.753906 C 30.317702 17.102415 31.779771 15.178307 33.5 13.337891 z M 18.054688 13.625 L 37.568359 31.957031 L 18.240234 50.427734 C 16.472623 48.563901 15.149296 46.856072 14.001953 44.802734 L 28.193359 32.355469 L 14.001953 19.041016 C 14.872389 17.389525 16.334459 15.465416 18.054688 13.625 z "
       id="path4136" />
  </g>
</svg>
