<?xml version="1.0" encoding="UTF-8" standalone="no"?>
<!-- Created with Inkscape (http://www.inkscape.org/) -->

<svg
   xmlns:dc="http://purl.org/dc/elements/1.1/"
   xmlns:cc="http://creativecommons.org/ns#"
   xmlns:rdf="http://www.w3.org/1999/02/22-rdf-syntax-ns#"
   xmlns:svg="http://www.w3.org/2000/svg"
   xmlns="http://www.w3.org/2000/svg"
   xmlns:xlink="http://www.w3.org/1999/xlink"
   xmlns:sodipodi="http://sodipodi.sourceforge.net/DTD/sodipodi-0.dtd"
   xmlns:inkscape="http://www.inkscape.org/namespaces/inkscape"
   width="100%"
   height="100%"
   viewBox="0 0 64.000001 64.000001"
   id="svg4311"
   version="1.1"
   inkscape:version="0.92.2 5c3e80d, 2017-08-06"
   sodipodi:docname="thirstIcon.svg">
  <defs
     id="defs4313">
    <clipPath
       id="SVGID_2_">
      <use
         height="100%"
         width="100%"
         y="0"
         x="0"
         id="use3290"
         xlink:href="#SVGID_1_"
         style="overflow:visible" />
    </clipPath>
    <clipPath
       id="clipPath4603">
      <use
         height="100%"
         width="100%"
         y="0"
         x="0"
         id="use4601"
         xlink:href="#SVGID_1_"
         style="overflow:visible" />
    </clipPath>
    <path
       id="path4187"
       d="m 42.83,67.24 c -5.59,-0.03 -11.2,0.02 -16.79,0.33 -4.69,0.25 -11.26,-0.8 -12,5.54 -0.27,2.23 0.07,4.65 1.72,6.31 1.69,1.71 3.95,1.7 5.12,4.09 2.73,5.58 7.07,10.23 12.42,13.39 2.79,1.65 5.83,2.34 8.72,3.69 3.19,1.49 6.2,4.82 3.97,8.32 -1.99,3.14 -6.87,3.04 -7.48,7.31 -0.49,3.39 3.13,4.91 5.75,5.02 14.99,0.64 21.12,1.44 35.97,-0.9 2.53,-0.4 3.92,-1.79 3.45,-4.73 -0.42,-2.6 -2.46,-3.67 -4.6,-4.67 -2.1,-0.96 -2.28,-1.89 -2.74,-4.25 -1.08,-5.49 5.75,-7.27 8.71,-10.66 C 90.04,90.3 93.27,81.5 92.33,73.85 92.2,72.7 91.44,68.95 88.23,67.78 86.42,67.12 83.84,67.36 81.92,67.24 77.55,66.98 73.17,66.9 68.79,66.9 60.12,66.93 51.48,67.28 42.83,67.24 Z"
       inkscape:connector-curvature="0" />
    <clipPath
       id="SVGID_2_-3">
      <use
         height="100%"
         width="100%"
         y="0"
         x="0"
         id="use3290-6"
         xlink:href="#SVGID_1_"
         style="overflow:visible" />
    </clipPath>
    <clipPath
       id="clipPath4721">
      <use
         height="100%"
         width="100%"
         y="0"
         x="0"
         id="use4719"
         xlink:href="#SVGID_1_"
         style="overflow:visible" />
    </clipPath>
    <path
       id="path4187-7"
       d="m 42.83,67.24 c -5.59,-0.03 -11.2,0.02 -16.79,0.33 -4.69,0.25 -11.26,-0.8 -12,5.54 -0.27,2.23 0.07,4.65 1.72,6.31 1.69,1.71 3.95,1.7 5.12,4.09 2.73,5.58 7.07,10.23 12.42,13.39 2.79,1.65 5.83,2.34 8.72,3.69 3.19,1.49 6.2,4.82 3.97,8.32 -1.99,3.14 -6.87,3.04 -7.48,7.31 -0.49,3.39 3.13,4.91 5.75,5.02 14.99,0.64 21.12,1.44 35.97,-0.9 2.53,-0.4 3.92,-1.79 3.45,-4.73 -0.42,-2.6 -2.46,-3.67 -4.6,-4.67 -2.1,-0.96 -2.28,-1.89 -2.74,-4.25 -1.08,-5.49 5.75,-7.27 8.71,-10.66 C 90.04,90.3 93.27,81.5 92.33,73.85 92.2,72.7 91.44,68.95 88.23,67.78 86.42,67.12 83.84,67.36 81.92,67.24 77.55,66.98 73.17,66.9 68.79,66.9 60.12,66.93 51.48,67.28 42.83,67.24 Z"
       inkscape:connector-curvature="0" />
    <clipPath
       id="SVGID_2_-5">
      <use
         height="100%"
         width="100%"
         y="0"
         x="0"
         id="use3290-3"
         xlink:href="#SVGID_1_"
         style="overflow:visible" />
    </clipPath>
    <clipPath
       id="clipPath4773">
      <use
         height="100%"
         width="100%"
         y="0"
         x="0"
         id="use4771"
         xlink:href="#SVGID_1_"
         style="overflow:visible" />
    </clipPath>
    <path
       id="path4187-70"
       d="m 42.83,67.24 c -5.59,-0.03 -11.2,0.02 -16.79,0.33 -4.69,0.25 -11.26,-0.8 -12,5.54 -0.27,2.23 0.07,4.65 1.72,6.31 1.69,1.71 3.95,1.7 5.12,4.09 2.73,5.58 7.07,10.23 12.42,13.39 2.79,1.65 5.83,2.34 8.72,3.69 3.19,1.49 6.2,4.82 3.97,8.32 -1.99,3.14 -6.87,3.04 -7.48,7.31 -0.49,3.39 3.13,4.91 5.75,5.02 14.99,0.64 21.12,1.44 35.97,-0.9 2.53,-0.4 3.92,-1.79 3.45,-4.73 -0.42,-2.6 -2.46,-3.67 -4.6,-4.67 -2.1,-0.96 -2.28,-1.89 -2.74,-4.25 -1.08,-5.49 5.75,-7.27 8.71,-10.66 C 90.04,90.3 93.27,81.5 92.33,73.85 92.2,72.7 91.44,68.95 88.23,67.78 86.42,67.12 83.84,67.36 81.92,67.24 77.55,66.98 73.17,66.9 68.79,66.9 60.12,66.93 51.48,67.28 42.83,67.24 Z"
       inkscape:connector-curvature="0" />
  </defs>
  <sodipodi:namedview
     id="base"
     pagecolor="#ffffff"
     bordercolor="#666666"
     borderopacity="1.0"
     inkscape:pageopacity="0.0"
     inkscape:pageshadow="2"
     inkscape:zoom="3.2372234"
     inkscape:cx="48.457501"
     inkscape:cy="-28.391299"
     inkscape:document-units="px"
     inkscape:current-layer="layer1"
     showgrid="false"
     units="px"
     inkscape:window-width="2560"
     inkscape:window-height="1388"
     inkscape:window-x="0"
     inkscape:window-y="28"
     inkscape:window-maximized="1" />
  <metadata
     id="metadata4316">
    <rdf:RDF>
      <cc:Work
         rdf:about="">
        <dc:format>image/svg+xml</dc:format>
        <dc:type
           rdf:resource="http://purl.org/dc/dcmitype/StillImage" />
        <dc:title></dc:title>
      </cc:Work>
    </rdf:RDF>
  </metadata>
  <g
     inkscape:label="Layer 1"
     inkscape:groupmode="layer"
     id="layer1"
     transform="translate(0,-988.36216)"
     style="display:inline">
    <g
       transform="matrix(0.54356812,0,0,0.48006457,-31.448553,992.27066)"
       id="g3297">
      <defs
         id="defs3286">
        <path
           inkscape:connector-curvature="0"
           d="m 42.83,67.24 c -5.59,-0.03 -11.2,0.02 -16.79,0.33 -4.69,0.25 -11.26,-0.8 -12,5.54 -0.27,2.23 0.07,4.65 1.72,6.31 1.69,1.71 3.95,1.7 5.12,4.09 2.73,5.58 7.07,10.23 12.42,13.39 2.79,1.65 5.83,2.34 8.72,3.69 3.19,1.49 6.2,4.82 3.97,8.32 -1.99,3.14 -6.87,3.04 -7.48,7.31 -0.49,3.39 3.13,4.91 5.75,5.02 14.99,0.64 21.12,1.44 35.97,-0.9 2.53,-0.4 3.92,-1.79 3.45,-4.73 -0.42,-2.6 -2.46,-3.67 -4.6,-4.67 -2.1,-0.96 -2.28,-1.89 -2.74,-4.25 -1.08,-5.49 5.75,-7.27 8.71,-10.66 C 90.04,90.3 93.27,81.5 92.33,73.85 92.2,72.7 91.44,68.95 88.23,67.78 86.42,67.12 83.84,67.36 81.92,67.24 77.55,66.98 73.17,66.9 68.79,66.9 60.12,66.93 51.48,67.28 42.83,67.24 Z"
           id="path79" />
      </defs>
      <clipPath
         id="clipPath4154">
        <use
           height="100%"
           width="100%"
           y="0"
           x="0"
           id="use4152"
           xlink:href="#SVGID_1_"
           style="overflow:visible" />
      </clipPath>
      <path
         inkscape:connector-curvature="0"
         id="path3293"
         clip-path="url(#SVGID_2_-3)"
         style="fill:#b0bec5"
         d="m 81.56336,82.611348 c -1.64,0.09 -2.989393,0.231697 -2.989393,0.201697 0.17,2.07 0.626033,3.386955 0.186033,5.476955 -0.5,2.32 -1.47,4.61 -2.83,6.56 -1.29,1.84 -3.359443,3.604202 -5.159443,4.854202 C 69.100557,100.8642 67.5,101.98 66.57,103.83 c -0.92,1.81 -0.81,4.21 -0.08,6.07 1.58,4.03 4.18,8.24 -0.37,11.29 -0.36,0.24 -1.695229,0.1578 -1.645229,0.6078 1.36,0.19 3.33664,-0.26962 4.71664,-0.12962 1.08,0.11 1.595804,-0.29611 2.675804,-0.40611 1.2,-0.11 4.242279,-0.087 5.452279,-0.25705 1.43,-0.21 2.27982,-0.4473 3.67982,-0.5973 2.46,-0.27 2.360109,0.91367 2.350109,-1.78633 -0.01,-1.27 0.331652,-0.54142 -0.338348,-1.67142 -0.79,-1.33 -4.56033,-2.26978 -5.72033,-3.30978 -1.19,-1.07 -1.587028,-3.98461 -1.857108,-6.65693 0.04482,-4.00124 2.155723,-6.61188 3.685723,-8.321883 2.535861,-2.343222 4.517859,-3.844291 6.630941,-6.770044 0.81,-1.34 1.254613,-1.769101 2.193793,-3.23713 0.19,-0.65 1.278732,-2.881095 1.774234,-4.43546 0.617107,-1.017337 0.665099,-1.477606 0.765099,-2.037606 0.36,-1.95 -2.837075,8.07e-4 -4.017075,0.05081 -0.35,0.01 -2.802992,0.259404 -4.902992,0.379404 z"
         transform="matrix(0.94623794,0.06529723,-0.06671008,0.94145245,9.3171499,-0.11383812)"
         sodipodi:nodetypes="cccccccccccccccccccccccc" />
      <rect
         id="rect3295"
         clip-path="url(#SVGID_2_-3)"
         y="79.690002"
         x="15.18"
         width="78.959999"
         style="fill:#b0bec5"
         height="5.3099999"
         transform="matrix(0.93627645,0,0,1,4.2274506,-2.006232)" />
    </g>
    <g
       id="g1085"
       transform="translate(-8.8083877,2.5242537)">
      <path
         sodipodi:nodetypes="sscssccsccsss"
         inkscape:connector-curvature="0"
         id="path1019"
         d="m 52.359685,1022.7072 c -0.15448,20.2662 2.701823,24.0903 -18.379949,24.0946 -21.737869,0 -19.46109,-2.5162 -19.152216,-24.2491 -0.07723,-5.2788 -0.12051,-9.7041 0.158431,-13.083 0.27894,-3.379 0.880101,-5.7117 2.091757,-6.8053 1.818277,-1.6412 12.492745,-1.8422 12.492745,-1.8422 -0.02634,-1.55327 -0.02676,-6.6316 0.03132,-8.73458 1.36865,-0.57396 2.468184,-1.01626 4.40607,-0.99979 2.484603,0.0211 2.945098,0.49463 4.566595,1.03012 -0.01673,2.33754 -0.07443,7.40412 -0.01682,8.61445 0,0 9.961641,0.2801 11.802866,1.9414 1.356456,1.224 1.875565,3.699 2.045905,7.1347 0.17034,3.4357 -0.0081,7.8321 -0.04671,12.8987 z"
         style="opacity:1;fill:#b79568;fill-opacity:1;stroke:#000000;stroke-width:3;stroke-miterlimit:4;stroke-dasharray:none;stroke-opacity:1" />
      <path
         sodipodi:nodetypes="cc"
         inkscape:connector-curvature="0"
         id="path1024"
         d="m 14.673068,1009.5786 c 4.479148,1.8534 36.450991,2.0079 37.995525,-0.3089"
         style="fill:none;fill-rule:evenodd;stroke:#000000;stroke-width:1px;stroke-linecap:butt;stroke-linejoin:miter;stroke-opacity:1" />
      <path
         sodipodi:nodetypes="cc"
         inkscape:connector-curvature="0"
         id="path1024-9"
         d="m 15.024002,1016.3317 c 4.479148,1.8534 36.450991,2.0079 37.995525,-0.3089"
         style="display:inline;fill:none;fill-rule:evenodd;stroke:#000000;stroke-width:1px;stroke-linecap:butt;stroke-linejoin:miter;stroke-opacity:1" />
      <path
         transform="translate(0,988.36216)"
         inkscape:connector-curvature="0"
         id="path1043"
         d="M 30.12467,28.796419 C 24.156447,28.634979 18.78105,28.258312 16.865583,27.867323 l -0.590145,-0.120461 0.07614,-2.742118 c 0.04188,-1.508165 0.09061,-2.756593 0.108304,-2.774285 0.01769,-0.01769 0.273568,0.01327 0.568615,0.0688 2.414379,0.454423 10.730902,0.877535 17.300953,0.880205 6.453336,0.0026 13.912751,-0.424552 16.30034,-0.93346 l 0.300341,-0.06402 v 2.846188 2.846187 l -0.245733,0.0542 c -1.202382,0.265189 -4.144428,0.548532 -7.39092,0.711806 -2.316199,0.116487 -10.879881,0.217969 -13.168806,0.156053 z"
         style="opacity:1;fill:#000000;fill-opacity:1;stroke:#000000;stroke-width:0.32764503;stroke-miterlimit:4;stroke-dasharray:none;stroke-opacity:1" />
      <path
         sodipodi:nodetypes="ccscccc"
         inkscape:connector-curvature="0"
         id="path1019-0"
         d="m 27.578119,994.49751 c -0.03816,-1.55327 -0.03877,-2.30691 0.04537,-4.40989 1.982832,-0.57396 3.305517,-0.71184 6.112999,-0.69088 2.8273,0.0211 4.498389,0.37879 6.615851,1.03012 0.09161,2.33754 0.08919,3.0022 0.134039,4.21253 -3.378539,-0.94983 -9.456751,-0.8726 -12.908259,-0.14188 z"
         style="display:inline;opacity:1;fill:#000000;fill-opacity:1;stroke:#000000;stroke-width:3.61092019;stroke-miterlimit:4;stroke-dasharray:none;stroke-opacity:1" />
      <path
         sodipodi:nodetypes="cc"
         inkscape:connector-curvature="0"
         id="path1077"
         d="m 38.574438,992.11795 c 7.143754,-0.61041 10.078368,3.71428 4.054687,8.19345"
         style="fill:none;fill-rule:evenodd;stroke:#000000;stroke-width:3;stroke-linecap:butt;stroke-linejoin:miter;stroke-miterlimit:4;stroke-dasharray:none;stroke-opacity:1" />
    </g>
    <path
       style="opacity:1;fill:#98e9f6;fill-opacity:1;stroke:#000000;stroke-width:3;stroke-miterlimit:4;stroke-dasharray:none;stroke-opacity:1"
       d="m 62.344591,1009.399 c 10e-6,4.6063 -3.5267,8.3405 -7.877121,8.3405 -4.350421,0 -7.877131,-3.7342 -7.877121,-8.3405 4.2e-5,-4.6063 3.778054,-8.434 7.877121,-15.13628 4.659291,6.64138 7.877079,10.52998 7.877121,15.13628 z"
       id="path1087"
       inkscape:connector-curvature="0"
       sodipodi:nodetypes="csccc" />
  </g>
</svg>
