<svg xmlns="http://www.w3.org/2000/svg" viewBox="0 0 64 64">
    <g fill="#ff8080" fill-rule="evenodd" stroke="#000">
        <path stroke-width=".706" d="M60.537 43.325c-.672-.018-1.387.127-1.659.509l-2.03 2.844c-2.384-.99-4.254-.72-6.315.017l-2.045-2.872c-.464-.651-3.532-.403-3.133.147l2.999 4.129c-2.302 2.494-2.248 7.253.039 9.362-1.007 1.435-3.517 4.105-2.819 4.28.942.239 2.573.301 2.838.062.553-.498 1.441-2.076 2.167-3.13 2.018.722 4 .781 5.928-.154l2.09 3.006c.457.66 3.523.309 3.094-.262l-3.02-4.025c1.935-1.86 2.945-6.21.322-9.216 1.015-1.396 3.096-3.807 2.945-4.222-.1-.275-.729-.457-1.4-.475zm-6.945 4.8a4.15 4.515 0 0 1 4.15 4.515 4.15 4.515 0 0 1-4.15 4.516 4.15 4.515 0 0 1-4.15-4.516 4.15 4.515 0 0 1 4.15-4.515z"/>
        <path stroke-width=".493" d="M35.794 51.524a3.46 3.46 0 0 0 .022 2.02l8.968-.07c.21-.627.208-1.294-.024-2.005z"/>
        <path d="M21.402 3.527l.418 18.777-17.715.35c-1.011 3.473-.947 6.945.113 10.417l17.84-.234.146 18.275c3.766 1.607 7.161.885 10.52-.062l-.127-18.257 17.867-.08c1.081-3.237 1.077-6.679-.12-10.346l-17.918-.18-.26-18.542c-2.872-.87-6.048-1.388-10.764-.118z"/>
    </g>
</svg>
