<svg xmlns="http://www.w3.org/2000/svg" xmlns:xlink="http://www.w3.org/1999/xlink" viewBox="0 0 64 64">
    <defs>
        <linearGradient id="linearGradient4138">
            <stop offset="0" stop-color="#999"/>
            <stop offset="1" stop-color="#f3c"/>
        </linearGradient>
        <linearGradient id="linearGradient4144" x1="33.764" x2="33.057" y1="19.099" y2="60.288" gradientUnits="userSpaceOnUse" xlink:href="#linearGradient4138"/>
    </defs>
    <g stroke="#000">
        <path fill="#f3c" fill-rule="evenodd" stroke-linejoin="round" stroke-width="2" d="M22.264 28.96l-11.581 9.677 2.083 6.534-7.5 10.102 13.192-10.115-2.147-5.838zM46.588 30.137l2.12 7.643 2.083 6.535-7.5 10.102 13.192-10.115-2.147-5.838z"/>
        <path fill="#ccc" stroke-linecap="round" stroke-linejoin="round" stroke-width="4.432" d="M41.368 5.007A15.832 15.555 0 0 0 29.05 20.154 15.832 15.555 0 0 0 44.88 35.71a15.832 15.555 0 0 0 14.353-9.026 15.832 15.555 0 0 1-3.512.407 15.832 15.555 0 0 1-15.833-15.554 15.832 15.555 0 0 1 1.48-6.53z"/>
        <path fill="url(#linearGradient4144)" fill-rule="evenodd" stroke-width="3" d="M22.633 45.893C4.859 53.373.882 21.474 20.246 26.094c3.545-6.34 19.423-12.257 26.428-.707 19.458-1.061 16.42 24.995-1.06 20.506-7.149 5.07-16.04 6.96-22.981 0z"/>
        <path fill="#f3c" fill-rule="evenodd" stroke-linejoin="round" stroke-width="2" d="M41.133 34.727l-11.581 9.677 2.084 6.535-7.5 10.101 13.192-10.115-2.148-5.837z"/>
    </g>
</svg>
