<svg xmlns="http://www.w3.org/2000/svg" viewBox="0 0 64 64">
    <g stroke="#000">
        <path fill="#ccc" stroke-linecap="round" stroke-linejoin="round" stroke-width="4.432" d="M41.368 5.007A15.832 15.555 0 0 0 29.05 20.154 15.832 15.555 0 0 0 44.88 35.71a15.832 15.555 0 0 0 14.353-9.026 15.832 15.555 0 0 1-3.512.407 15.832 15.555 0 0 1-15.833-15.554 15.832 15.555 0 0 1 1.48-6.53z"/>
        <path fill="#999" fill-rule="evenodd" stroke-width="3" d="M22.633 45.893C4.859 53.373.882 21.474 20.246 26.094c3.545-6.34 19.423-12.257 26.428-.707 19.458-1.061 16.42 24.995-1.06 20.506-7.149 5.07-16.04 6.96-22.981 0z"/>
        <path fill="#08a" fill-rule="evenodd" stroke-width="2" d="M22.225 50.886l-2.742 7.748c-1.56 4.408 6.948 4.696 5.484 0zM46.26 50.614l-2.743 7.747c-1.56 4.409 6.949 4.697 5.485 0zM34.201 42.998L30.342 53.9c-2.196 6.203 9.778 6.608 7.718 0z"/>
    </g>
</svg>
