<svg xmlns="http://www.w3.org/2000/svg" xmlns:xlink="http://www.w3.org/1999/xlink" id="svg68" version="1.1" viewBox="0 0 64 64"><defs id="defs24"><linearGradient id="innoGrad3"><stop id="stop2" offset="0" stop-color="#f2d238"/><stop id="stop4" offset="1" stop-color="#ebf174"/></linearGradient><linearGradient xlink:href="#innoGrad3" id="e" x1="29.651" x2="35.116" y1="14.742" y2="14.128" gradientUnits="userSpaceOnUse"/><linearGradient id="innoGrad2" x1="31.559" x2="32.374" y1="5.864" y2="3.212" gradientTransform="translate(-2.627 -2.599) scale(1.0806)" gradientUnits="userSpaceOnUse"><stop id="stop13" offset="0" stop-color="#917c6f"/><stop id="stop15" offset="1" stop-color="#c8beb7"/></linearGradient><linearGradient id="innoGrad1" x1="24.597" x2="40.631" y1="34.09" y2="34.09" gradientUnits="userSpaceOnUse" spreadMethod="pad"><stop id="stop18" offset="0" stop-color="#60621b"/><stop id="stop20" offset="1" stop-color="#a46a43"/></linearGradient><linearGradient xlink:href="#innoGrad3" id="f" x1="26.847" x2="39.661" y1="47.051" y2="44.746" gradientUnits="userSpaceOnUse"/></defs><g id="g32" fill-rule="evenodd"><path id="path26" fill="url(#innoGrad1)" d="M25.872 59.995c2.354 1.354 11.721 1.561 13.505-.144 1.089-1.04 1.142-3.877 1.142-3.877s.362-19.718-.213-23.653c-.736-5.03-1.94-7.717-3.289-12.119-.678-2.21-1.667-5.332-2.108-13.092l-5.268.033c-.424 8.144-1.25 10.647-1.885 13.04-1.515 5.712-2.91 9.526-3.05 12.348-.236 4.737-.016 23.48-.016 23.48s-.058 3.27 1.182 3.984z" transform="translate(-2.627 -2.599) scale(1.0806)"/><path id="path28" fill="url(#e)" fill-opacity="1" d="m32.605 21.85-4.855-1.637c1.422-4.57 1.541-9.028 1.864-13.106 0 0-.322-.485-.387-.771-.174-.77.274-2.284.274-2.284l5.346-.14s.632 1.76.497 2.447c-.08.403-.435.752-.435.752.337 4.258.534 8.567 2.116 13.154z" transform="translate(-2.627 -2.599) scale(1.0806)"/><path id="path30" fill="url(#f)" stroke="#000" stroke-width=".25" d="M40.605 38.103c-3.358.506-11.797.639-16.067.016.03 3.89-.009 8.235.077 12.124 3.59 1.05 12.137 1.079 16.005-.139z" transform="translate(-2.627 -2.599) scale(1.0806)"/></g><g id="g48" stroke="#000"><g id="g38" fill="none"><path id="path34" stroke-width=".432" d="M29.404 5.12c2.001.361 4.154.336 5.86-.113"/><path id="path36" stroke-width=".54" d="M25.33 62.232c2.544 1.464 12.666 1.687 14.593-.156 1.177-1.124 1.235-4.189 1.235-4.189s.391-21.307-.23-25.56c-.797-5.435-2.096-8.339-3.554-13.095-.733-2.39-1.803-5.762-2.278-14.147.58-.969.114-1.728.08-2.573l-5.97.22c-.117.663-.407 1.2.197 2.388-.458 8.8-1.351 11.505-2.037 14.092-1.637 6.172-3.144 10.293-3.297 13.342-.254 5.12-.017 25.373-.017 25.373s-.062 3.534 1.277 4.305z"/></g><path id="path40" fill="url(#innoGrad2)" fill-rule="evenodd" stroke-width=".432" d="M28.662 3.133c1.91.429 4.848.349 6.948.005.022-.649.035-1.587-.373-1.893-.434-.27-5.988-.219-6.241.072-.24.276-.381 1.32-.334 1.816z"/><g id="g46" stroke-linecap="round" stroke-linejoin="round" stroke-width=".27"><path id="path42" fill="#ffde17" d="m29.86 3.082.156-1.373m.959 1.424.052-1.424m1.087 1.451-.026-1.4m2.293 1.322-.155-1.373m-.959 1.424-.052-1.424"/><path id="path44" fill="none" d="M28.996 1.317c.157.388 5.952.524 6.24-.072m-7.878 17.998 5.248 1.769 4.775-1.713"/></g></g><path id="path50" fill="#fff" d="M36.639 21.063c.404.758.96 1.784 1.595 3.55a35.295 35.295 0 0 1 1.356 4.933c.11.56.19 1.04.235 1.397.09.709.133 1.912.108 3.174-.031 1.654-.2 3.128-.217 3.722.018-.612-.138-1.992-.402-3.68-.188-1.202-.416-2.422-.5-3.087-.046-.354-.094-.822-.157-1.381-.166-1.479-.391-3.222-.791-4.97-.397-1.74-.853-2.955-1.227-3.658z"/><g id="g66" stroke="#000" transform="translate(-.067 .214)"><ellipse id="ellipse52" cx="33.683" cy="47.108" fill="none" stroke-width=".975" rx="4.605" ry="3.858"/><path id="path54" fill="none" stroke-width=".902" d="m29.02 46.669-2.006.499 1.783.567z"/><ellipse id="ellipse56" cx="36.893" cy="47.219" fill="none" rx=".209" ry=".516"/><path id="path58" fill="none" d="m34.008 50.884.056-7.58m-1.811.418-.056 6.688"/><path id="path60" fill="none" stroke-width="1.041" d="M30.58 44.196v5.713"/><path id="path62" fill="#d1d1d1" stroke-linejoin="round" stroke-width=".81" d="m32.253 43.722-1.086-2.345-2.714-.481.19 2.12 1.55 1.036 2.06-.33"/><path id="path64" fill="#d1d1d1" stroke-linejoin="round" d="m34.064 43.304-1.34-2.896-3.352-.594.236 2.619 1.912 1.278 2.544-.407"/></g></svg>