<svg xmlns="http://www.w3.org/2000/svg" xmlns:xlink="http://www.w3.org/1999/xlink" viewBox="0 0 256 256">
    <defs>
        <linearGradient id="innoGrad3">
            <stop offset="0" stop-color="#ff2a2a" stop-opacity="0"/>
            <stop offset="1" stop-color="#ff2a2a" stop-opacity=".502"/>
        </linearGradient>
        <linearGradient id="innoGrad2">
            <stop offset="0" stop-color="#ff7f2a"/>
            <stop offset=".5" stop-color="#ff7f2a" stop-opacity="0"/>
            <stop offset="1" stop-color="#ff7f2a" stop-opacity=".502"/>
        </linearGradient>
        <linearGradient id="innoGrad1">
            <stop offset="0" stop-color="#ff2a2a" stop-opacity=".502"/>
            <stop offset=".5" stop-color="#ff2a2a" stop-opacity="0"/>
            <stop offset="1" stop-color="#ff2a2a" stop-opacity=".502"/>
        </linearGradient>
        <linearGradient id="linearGradient851" x1="51.853" x2="204.05" y1="115.625" y2="115.625" gradientUnits="userSpaceOnUse" xlink:href="#innoGrad1"/>
        <linearGradient id="linearGradient884" x1="54.194" x2="201.411" y1="148.467" y2="148.467" gradientUnits="userSpaceOnUse" xlink:href="#innoGrad2"/>
        <linearGradient id="linearGradient913" x1="57.62" x2="197.725" y1="146.494" y2="146.494" gradientUnits="userSpaceOnUse" xlink:href="#innoGrad1"/>
        <radialGradient id="radialGradient946" cx="128" cy="234.157" r="114.639" fx="128" fy="234.157" gradientTransform="matrix(-1 0 0 -.8433 256 341.087)" gradientUnits="userSpaceOnUse" xlink:href="#innoGrad3"/>
        <linearGradient id="linearGradient985" x1="202.349" x2="202.349" y1="204.254" y2="188.146" gradientUnits="userSpaceOnUse" xlink:href="#innoGrad3"/>
    </defs>
    <path fill="#ff8080" d="M127.775 186.609l73.784-9.519s-7.886-20.941-9.246-53.306c-1.36-32.364 10.934-47.327 11.693-49.226.222-.554 2.107-29.916-76.028-29.916S51.674 74.004 51.896 74.558c.759 1.899 13.052 16.862 11.693 49.226-1.36 32.365-9.246 53.306-9.246 53.306z"/>
    <path fill="url(#linearGradient851)" d="M127.775 186.609l73.784-9.519s-7.886-20.941-9.246-53.306c-1.36-32.364 10.934-47.327 11.693-49.226.222-.554 2.107-29.916-76.028-29.916S51.674 74.004 51.896 74.558c.759 1.899 13.052 16.862 11.693 49.226-1.36 32.365-9.246 53.306-9.246 53.306z"/>
    <path fill="#ffb380" d="M201.41 177.09s-2.755-6.173-6.236-25.071c-3.48-18.898-2.781-23.897-2.781-23.897s-7.73-6.096-29.596-10.865c-21.865-4.769-48.124-4.77-69.99 0-21.864 4.77-29.594 10.865-29.594 10.865s.7 4.999-2.78 23.897c-3.482 18.898-6.239 25.071-6.239 25.071l73.784 6.165z"/>
    <path fill="url(#linearGradient884)" d="M201.41 177.09s-2.755-6.173-6.236-25.071c-3.48-18.898-2.781-23.897-2.781-23.897s-7.73-6.096-29.596-10.865c-21.865-4.769-48.124-4.77-69.99 0-21.864 4.77-29.594 10.865-29.594 10.865s.7 4.999-2.78 23.897c-3.482 18.898-6.239 25.071-6.239 25.071l73.784 6.165z"/>
    <path fill="#faa" d="M180.079 177.906l13.638-15.956 4.008 3.486-4.6-25.922-6.114-13.462-2.54 13.96-13.052 2.357 11.965 12.873zm-104.813 0l-13.64-15.956-4.006 3.486 4.6-25.922 6.114-13.462 2.538 13.96 13.053 2.357-11.965 12.873zm28.426-1.088l24.286-15.048 24.11 15.048-8.52-23.933 15.59-14.142-23.748-2.358-7.608-21.303-7.432 21.304-23.749 2.357 15.59 14.142z"/>
    <path fill="url(#linearGradient913)" d="M180.079 177.906l13.638-15.956 4.008 3.486-4.6-25.922-6.114-13.462-2.54 13.96-13.052 2.357 11.965 12.873zm-104.813 0l-13.64-15.956-4.006 3.486 4.6-25.922 6.114-13.462 2.538 13.96 13.053 2.357-11.965 12.873zm28.426-1.088l24.286-15.048 24.11 15.048-8.52-23.933 15.59-14.142-23.748-2.358-7.608-21.303-7.432 21.304-23.749 2.357 15.59 14.142z"/>
    <path fill="none" stroke="#231f20" stroke-miterlimit="10" d="M127.775 186.609l73.784-9.519s-7.886-20.941-9.246-53.306c-1.36-32.364 10.934-47.327 11.693-49.226.222-.554 2.107-29.916-76.028-29.916S51.674 74.004 51.896 74.558c.759 1.899 13.052 16.862 11.693 49.226-1.36 32.365-9.246 53.306-9.246 53.306z"/>
    <path fill="#ff8080" d="M129.51 211.358c134.32.075 111.758-47.119 110.39-49.226-4.058-6.255-36.655 7.986-64.615 14.142-42.047 9.257-48.683 9.36-91.2 0-27.96-6.156-64.501-25.253-68.88-14.142-.643 1.632-20.217 49.15 114.305 49.226z"/>
    <path fill="url(#radialGradient946)" stroke="#231f20" stroke-miterlimit="10" d="M129.51 211.358c134.32.075 111.758-47.119 110.39-49.226-4.058-6.255-36.655 7.986-64.615 14.142-42.047 9.257-48.683 9.36-91.2 0-27.96-6.156-64.501-25.253-68.88-14.142-.643 1.632-20.217 49.15 114.305 49.226z"/>
    <path fill="#f55" d="M201.85 190.96c0 3.44-36.473 12.454-76.08 12.454-39.61 0-71.717-10.542-71.717-13.983 0-3.439 32.108 1.528 71.717 1.528 39.607.001 76.08-3.437 76.08.001z"/>
    <path fill="url(#linearGradient985)" stroke="#231f20" stroke-miterlimit="10" d="M201.85 190.96c0 3.44-36.473 12.454-76.08 12.454-39.61 0-71.717-10.542-71.717-13.983 0-3.439 32.108 1.528 71.717 1.528 39.607.001 76.08-3.437 76.08.001z"/>
</svg>
