<svg version="1.1" viewBox="0 0 64 64" xmlns="http://www.w3.org/2000/svg">
 <path d="m60.417 25.186c2.1602 0.33674 5.2375-4.9527-1.2605-7.8995-1.3416-0.6096-2.079-1.4215-4.5786-1.303-1.1407 0.05457-2.4823 0.62025-4.2446 1.7236-1.6238 0.66151-2.7898 1.1713-3.9491 1.6797-3.1119 0.17702-6.1026 0.39398-9.6631 0.4206-0.84252-0.61625-1.4934-1.2325-2.7738-1.8488-0.75202-1.2112-1.2165-2.4118-3.06-3.6869-3.4539-2.3905-6.5512-1.7622-9.5446-0.93436-4.7144-1.5826-7.3764-0.72806-9.5792 0.67216l-2.1855 2.6886c-14.899 17.376-9.1879 32.902 13.361 34.79 2.4677-0.94102 3.7707-2.4823 6.9744-5.0418 12.831-4.552 30.541-3.5924 31.891-10.631 0.26088-1.3603 0.22627-1.713-3.8998-1.3443-0.37934 0.03327-1.1806-1.3842-1.8714-2.7632-0.35538 1.3882-0.43258 2.9921-1.0355 3.0573-1.8048 0.19699-3.6097 0.38732-5.4158 0.5497-0.57233 0.05191-1.4149-0.96897-2.1376-2.5582-0.51244 1.6584-0.96764 2.8057-1.6598 2.8483-2.2627 0.13842-4.5321 0.20497-6.8134 0.15573-0.5324-0.01198-1.5706-0.50578-1.9273-1.7183-0.49912 1.4242-0.96897 1.5932-1.6198 1.5413a51.616 51.616 0 0 1-6.3915-0.90242c-1.2871-0.2662-1.9499-0.77198-2.6048-1.6385 0.74004-0.89177 1.7609-1.8354 3.7401-1.8501a35.401 35.401 0 0 0 2.0764-0.07454c0.39531-0.02662 0.58032 0.23559 1.2671 1.5839 0.43391-1.347 0.78263-1.7756 1.2139-1.8341a38.403 38.403 0 0 0 4.3191-0.84518c0.34606-0.08785 0.66284 0.41261 1.4535 1.89 0.09317-1.4295 0.2449-2.3599 0.57499-2.4624a47.915 47.915 0 0 0 4.725-1.7436c1.3124-0.01331 2.6088-0.02795 3.8732-0.10648 0.73205-0.04525 1.0089 0.12644 2.1056 2.4624 0.4765-2.4198 1.0675-2.835 1.5613-2.9468 1.2911-0.28883 2.5342-0.72806 3.7188-1.3976 0.25954-0.14641 0.82921 0.73737 1.311 1.4188-0.07986-1.0741-0.29282-2.0511-0.09051-2.2068 0.14109-0.10648 0.44855-0.34473 0.58564-0.4592 0.6655 0.16504 1.1101 0.43923 1.5546 0.71475z" fill="#ff8080" fill-rule="evenodd" stroke="#000"/>
</svg>
