<svg xmlns="http://www.w3.org/2000/svg" xmlns:xlink="http://www.w3.org/1999/xlink" viewBox="0 0 256 256">
    <defs>
        <linearGradient id="linearGradient1612">
            <stop offset="0" stop-color="#ff2a2a" stop-opacity=".502"/>
            <stop offset=".15" stop-color="#ff2a2a" stop-opacity=".251"/>
            <stop offset=".5" stop-color="#ff2a2a" stop-opacity="0"/>
            <stop offset=".85" stop-color="#ff2a2a" stop-opacity=".251"/>
            <stop offset="1" stop-color="#ff2a2a" stop-opacity=".502"/>
        </linearGradient>
        <linearGradient id="innoGrad3">
            <stop offset="0" stop-color="#ff2a2a" stop-opacity=".502"/>
            <stop offset="1" stop-color="#ff2a2a" stop-opacity="0"/>
        </linearGradient>
        <linearGradient id="innoGrad2">
            <stop offset="0" stop-color="#ff2a2a" stop-opacity=".502"/>
            <stop offset=".5" stop-color="#ff2a2a" stop-opacity="0"/>
            <stop offset="1" stop-color="#ff2a2a" stop-opacity=".502"/>
        </linearGradient>
        <linearGradient id="innoGrad1">
            <stop offset="0" stop-color="#ff2a2a" stop-opacity="0"/>
            <stop offset="1" stop-color="#ff2a2a" stop-opacity=".502"/>
        </linearGradient>
        <linearGradient id="linearGradient1126" x1="127.277" x2="127.167" y1="21.794" y2="49.997" gradientUnits="userSpaceOnUse" xlink:href="#innoGrad1"/>
        <linearGradient id="linearGradient1149" x1="110.872" x2="144.438" y1="14.336" y2="14.336" gradientUnits="userSpaceOnUse" xlink:href="#innoGrad2"/>
        <linearGradient id="linearGradient1174" x1="61.485" x2="88.986" y1="110.036" y2="110.036" gradientUnits="userSpaceOnUse" xlink:href="#innoGrad1"/>
        <linearGradient id="linearGradient1197" x1="63.759" x2="85.173" y1="168.076" y2="168.076" gradientUnits="userSpaceOnUse" xlink:href="#innoGrad1"/>
        <linearGradient id="linearGradient1220" x1="74.94" x2="152.601" y1="133.631" y2="133.631" gradientUnits="userSpaceOnUse" xlink:href="#innoGrad3"/>
        <linearGradient id="linearGradient1251" x1="74.942" x2="129.234" y1="42.214" y2="42.214" gradientUnits="userSpaceOnUse" xlink:href="#innoGrad3"/>
        <linearGradient id="linearGradient1275" x1="96.786" x2="123.388" y1="68.887" y2="43.938" gradientUnits="userSpaceOnUse" xlink:href="#innoGrad3"/>
        <linearGradient id="linearGradient1298" x1="111.445" x2="116.454" y1="24.964" y2="33.5" gradientUnits="userSpaceOnUse" xlink:href="#innoGrad3"/>
        <linearGradient id="linearGradient1306" x1="107.451" x2="109.674" y1="30.654" y2="34.722" gradientUnits="userSpaceOnUse" xlink:href="#innoGrad3"/>
        <linearGradient id="linearGradient1329" x1="77.257" x2="105.954" y1="24.258" y2="24.258" gradientUnits="userSpaceOnUse" xlink:href="#innoGrad3"/>
        <linearGradient id="linearGradient1360" x1="101.62" x2="113.775" y1="19.331" y2="23.832" gradientUnits="userSpaceOnUse" xlink:href="#innoGrad3"/>
        <linearGradient id="linearGradient1383" x1="85.995" x2="92.773" y1="150.384" y2="152.283" gradientUnits="userSpaceOnUse" xlink:href="#innoGrad3"/>
        <linearGradient id="linearGradient1407" x1="165.968" x2="193.469" y1="110.036" y2="110.036" gradientUnits="userSpaceOnUse" xlink:href="#innoGrad3"/>
        <linearGradient id="linearGradient1430" x1="169.781" x2="191.195" y1="168.074" y2="168.074" gradientUnits="userSpaceOnUse" xlink:href="#innoGrad3"/>
        <linearGradient id="linearGradient1453" x1="102.353" x2="180.014" y1="133.631" y2="133.631" gradientUnits="userSpaceOnUse" xlink:href="#innoGrad1"/>
        <linearGradient id="linearGradient1476" x1="127.944" x2="158.168" y1="50.862" y2="68.887" gradientUnits="userSpaceOnUse" xlink:href="#innoGrad1"/>
        <linearGradient id="linearGradient1499" x1="138.5" x2="144.349" y1="33.5" y2="25.798" gradientUnits="userSpaceOnUse" xlink:href="#innoGrad1"/>
        <linearGradient id="linearGradient1507" x1="144.059" x2="146.012" y1="34.858" y2="28.214" gradientUnits="userSpaceOnUse" xlink:href="#innoGrad1"/>
        <linearGradient id="linearGradient1530" x1="149" x2="177.697" y1="24.258" y2="24.258" gradientUnits="userSpaceOnUse" xlink:href="#innoGrad1"/>
        <linearGradient id="linearGradient1553" x1="141.18" x2="153.334" y1="23.832" y2="19.331" gradientUnits="userSpaceOnUse" xlink:href="#innoGrad1"/>
        <linearGradient id="linearGradient1581" x1="161.736" x2="169.056" y1="150.384" y2="148.486" gradientUnits="userSpaceOnUse" xlink:href="#innoGrad1"/>
        <linearGradient id="linearGradient1604" x1="89.125" x2="166.251" y1="121.712" y2="121.712" gradientUnits="userSpaceOnUse" xlink:href="#linearGradient1612"/>
    </defs>
    <g>
        <path fill="#f55" d="M111.37 20.916h31.839v45.959H111.37z"/>
        <path fill="url(#linearGradient1126)" stroke="#000" stroke-linecap="round" stroke-linejoin="round" stroke-miterlimit="10" d="M111.37 20.916h31.839v45.959H111.37z"/>
        <path fill="#f55" d="M112.287 7.748c2.973-1.881 3.229.584 16.447.584 13.22 0 11.199-2.778 13.933-.584l1.271 13.502c-3.563.875-26.5.563-32.566-.334-.002 0 .417-12.853.915-13.168z"/>
        <path fill="url(#linearGradient1149)" stroke="#000" stroke-linecap="round" stroke-linejoin="round" stroke-miterlimit="10" d="M112.287 7.748c2.973-1.881 3.229.584 16.447.584 13.22 0 11.199-2.778 13.933-.584l1.271 13.502c-3.563.875-26.5.563-32.566-.334-.002 0 .417-12.853.915-13.168z"/>
        <path fill="#ff8080" d="M75.454 33.5c-6.772 5.849-7.717 28.888-10.167 54.75-4.666 49.253-3.25 97.336-2.5 98.17.75.834 21.168-2 22.334-3.25.566-.607-1.454-21.754-1-30.084 1.043-19.135 3.662-44.548 3.662-44.548S92.871 63.499 75.454 33.5z"/>
        <path fill="url(#linearGradient1174)" stroke="#000" stroke-linejoin="round" stroke-miterlimit="10" d="M75.454 33.5c-6.772 5.849-7.717 28.888-10.167 54.75-4.666 49.253-3.25 97.336-2.5 98.17.75.834 21.168-2 22.334-3.25.566-.607-1.454-21.754-1-30.084 1.043-19.135 3.662-44.548 3.662-44.548S92.871 63.499 75.454 33.5z"/>
        <path fill="#faa" d="M68.61 167.719c.259 0 .469.278.469.621 0 .344-.21.62-.469.62s-.469-.276-.469-.62c0-.343.211-.621.469-.621zm5.657.076c0 .301.265.545.592.545.327 0 .592-.244.592-.545 0-.301-.265-.545-.592-.545-.327 0-.592.244-.592.545zm10.034-3.484c-1.736-1.256-16.998-.759-20.042 1.805l.57 6.386c.875-1.125 16.375-2.188 19.844-1.312z"/>
        <path fill="url(#linearGradient1197)" stroke="#000" stroke-linejoin="round" stroke-miterlimit="10" d="M68.61 167.719c.259 0 .469.278.469.621 0 .344-.21.62-.469.62s-.469-.276-.469-.62c0-.343.211-.621.469-.621zm5.657.076c0 .301.265.545.592.545.327 0 .592-.244.592-.545 0-.301-.265-.545-.592-.545-.327 0-.592.244-.592.545zm10.034-3.484c-1.736-1.256-16.998-.759-20.042 1.805l.57 6.386c.875-1.125 16.375-2.188 19.844-1.312z"/>
        <path fill="#ff8080" stroke="#000" stroke-linejoin="round" stroke-miterlimit="10" d="M73.829 162h-2.313s-.625 6.5 0 11.438h2.313s-.625-6.063 0-11.438zM61.187 172.938s-.295.396-.67.354c-.375-.042 0-6.229 0-6.229l.252-.313z"/>
        <path fill="#fca" stroke="#000" stroke-linejoin="round" stroke-miterlimit="10" d="M63.517 164.813l-2.25.563c-.5.375-.75.688-.75 1.688l.625 6.375c-.063.25.563.688 1.25.813h2.438c.375-.25 1-.938.813-2l-.313-5.938c-.188-.876-1.188-1.439-1.813-1.501z"/>
        <path fill="#faa" stroke="#000" stroke-linejoin="round" stroke-miterlimit="10" d="M63.097 166.125s-1.205-.063-1.705.313c-.5.377-.002 6.313.593 6.688s1.72 0 1.72 0c.813-.125.625-1.063.625-1.063l-.625-5.188c-.001 0 .014-.864-.608-.75z"/>
        <path fill="#fca" stroke="#000" stroke-linejoin="round" stroke-miterlimit="10" d="M63.097 169v1s1.207.25 1.251-.5c.044-.75-1.251-.5-1.251-.5z"/>
        <path fill="#ff8080" d="M107.153 18.538s-1.866 10.71 9.301 14.962c0 0 33.212 63.668 32.875 69.625-2.209 39.041 1.125 115.875 2.75 141.625.185 2.909-.791 3.584-2.875 3.875-2.084.291-58.75.025-65.875-2-1.247-.354-2.25.128-2.25-1.5 0-24.792 1.708-97.959 9.466-117.692l.737-11.773c-3.08-2.33-5.828-12.16-8.161-42.66-1.531-20.013-7.853-38.907-7.667-39.5.79-2.515 25.034-12.311 31.696-14.961z"/>
        <path fill="url(#linearGradient1220)" stroke="#000" stroke-linejoin="round" stroke-miterlimit="10" d="M107.153 18.538s-1.866 10.71 9.301 14.962c0 0 33.212 63.668 32.875 69.625-2.209 39.041 1.125 115.875 2.75 141.625.185 2.909-.791 3.584-2.875 3.875-2.084.291-58.75.025-65.875-2-1.247-.354-2.25.128-2.25-1.5 0-24.792 1.708-97.959 9.466-117.692l.737-11.773c-3.08-2.33-5.828-12.16-8.161-42.66-1.531-20.013-7.853-38.907-7.667-39.5.79-2.515 25.034-12.311 31.696-14.961z"/>
        <path fill="#ff8080" d="M128.732 57.502C122.111 44.345 116.454 33.5 116.454 33.5c-11.167-4.252-9.301-14.962-9.301-14.962l-.003.001c-6.662 2.65-30.906 12.446-31.696 14.961-.164.522 4.715 15.227 6.93 32.39 4.491-2.63 14.903-1.14 23.07-3.017 11.009-2.53 20.469-5.617 23.28-5.366z"/>
        <path fill="url(#linearGradient1306)" d="M104.454 23.832h3.004c.811 3.33 3.064 7.41 8.996 9.668l-14.834 4.248z"/>
        <path fill="url(#linearGradient1251)" stroke="#000" stroke-linejoin="round" stroke-miterlimit="10" d="M128.732 57.502C122.111 44.345 116.454 33.5 116.454 33.5c-11.167-4.252-9.301-14.962-9.301-14.962l-.003.001c-6.662 2.65-30.906 12.446-31.696 14.961-.164.522 4.715 15.227 6.93 32.39 4.491-2.63 14.903-1.14 23.07-3.017 11.009-2.53 20.469-5.617 23.28-5.366z"/>
        <path fill="#ff8080" d="M117.055 34.655c-1.018.178-19.685 18.179-19.768 20.012-.083 1.833 50.917 31.498 52.042 48.458-4.209-26.791-31.257-68.647-32.274-68.47z"/>
        <path fill="url(#linearGradient1275)" stroke="#000" stroke-linejoin="round" stroke-miterlimit="10" d="M117.055 34.655c-1.018.178-19.685 18.179-19.768 20.012-.083 1.833 50.917 31.498 52.042 48.458-4.209-26.791-31.257-68.647-32.274-68.47z"/>
        <path d="M111.37 50.082l-2.708 2.828c-.369.386-2.478 3.195-3.142 2.557-.716-.683 2.246-2.515 2.631-2.821l3.219-2.564z"/>
        <path fill="#ff8080" d="M116.454 33.5l-2.679-9.668c-2.488-2.25-3.322-11.917-1.405-15.5-2.416 3.417-5.217 10.206-5.217 10.206s-1.866 10.71 9.301 14.962z"/>
        <path fill="url(#linearGradient1298)" stroke="#000" stroke-linejoin="round" stroke-miterlimit="10" d="M116.454 33.5l-2.679-9.668c-2.488-2.25-3.322-11.917-1.405-15.5-2.416 3.417-5.217 10.206-5.217 10.206s-1.866 10.71 9.301 14.962z"/>
        <path fill="#f55" stroke="#000" stroke-linejoin="round" stroke-miterlimit="10" d="M87.517 26.063s-6.639 5.121-8.569 4.873c-1.93-.248-.931-1.375-.931-1.375z"/>
        <path fill="#f55" stroke="#000" stroke-linejoin="round" stroke-miterlimit="10" d="M79.87 29.499l2.167-1.166v1.833l-2.167.624z"/>
        <path fill="#ff8080" d="M105.454 18.538c.003.302-1.417 2.378-1.417 2.378l-26.083 9.25s-.5.025.063-.605c2.08-2.331 25.879-11.202 25.879-11.202s1.555-.123 1.558.179z"/>
        <path fill="url(#linearGradient1329)" stroke="#000" stroke-linejoin="round" stroke-miterlimit="10" d="M105.454 18.538c.003.302-1.417 2.378-1.417 2.378l-26.083 9.25s-.5.025.063-.605c2.08-2.331 25.879-11.202 25.879-11.202s1.555-.123 1.558.179z"/>
        <ellipse cx="99.412" cy="20.187" fill="#ffe680" stroke="#000" stroke-miterlimit="10" rx=".638" ry="2.938" transform="rotate(65.367 99.412 20.187)"/>
        <path fill="#ff8080" d="M112.287 7.748c-.917-.167-6 8.667-10.667 11.583-.583 1-2.75 17.75 0 18.417 2.75.667 9.144-15.666 12.155-13.916-3.488-5.168-.571-15.918-1.488-16.084z"/>
        <path fill="url(#linearGradient1360)" stroke="#000" stroke-linejoin="round" stroke-miterlimit="10" d="M112.287 7.748c-.917-.167-6 8.667-10.667 11.583-.583 1-2.75 17.75 0 18.417 2.75.667 9.144-15.666 12.155-13.916-3.488-5.168-.571-15.918-1.488-16.084z"/>
        <path fill="#ff8080" d="M82.834 173.438s3.917 6.396 5 5.979c2.417-21.501 11.083-52.251 11.083-52.251l-7.333-1.5s-.775 2.758-2.5 8.582c-.592 2-1.118 7.402-2.25 13.501-.775 4.176-2.189 8.623-2.694 12.745-.905 7.395-1.306 12.944-1.306 12.944z"/>
        <path fill="url(#linearGradient1383)" stroke="#000" stroke-linejoin="round" stroke-miterlimit="10" d="M82.834 173.438s3.917 6.396 5 5.979c2.417-21.501 11.083-52.251 11.083-52.251l-7.333-1.5s-.775 2.758-2.5 8.582c-.592 2-1.118 7.402-2.25 13.501-.775 4.176-2.189 8.623-2.694 12.745-.905 7.395-1.306 12.944-1.306 12.944z"/>
        <path fill="none" stroke="#000" stroke-linejoin="round" stroke-miterlimit="10" d="M84.25 173.292s1.321 2.653 2.917 3.624c.5-11.667 10.918-49.92 10.918-49.92"/>
        <path d="M88 149.25c.526.235 3.235 1.028 2.871 1.84-.456 1.013-2.5-1.48-2.871-1.84z"/>
        <ellipse cx="88.003" cy="149.477" fill="#ffe680" stroke="#000" stroke-linejoin="round" stroke-miterlimit="10" rx="2.479" ry=".89" transform="rotate(-74.008 88 149.476)"/>
        <path fill="none" stroke="#000" stroke-linecap="round" stroke-linejoin="round" stroke-miterlimit="10" stroke-width=".75" d="M84.25 173.292s1.321 2.653 2.917 3.624c.5-11.667 10.918-49.92 10.918-49.92"/>
    </g>
    <g>
        <path fill="#ff8080" d="M179.5 33.5c6.771 5.849 7.717 28.888 10.167 54.75 4.666 49.253 3.25 97.336 2.5 98.17-.75.834-21.168-2-22.334-3.25-.565-.607 1.454-21.754 1-30.084-1.043-19.135-3.662-44.548-3.662-44.548S162.083 63.499 179.5 33.5z"/>
        <path fill="url(#linearGradient1407)" stroke="#000" stroke-linecap="round" stroke-linejoin="round" stroke-miterlimit="10" d="M179.5 33.5c6.771 5.849 7.717 28.888 10.167 54.75 4.666 49.253 3.25 97.336 2.5 98.17-.75.834-21.168-2-22.334-3.25-.565-.607 1.454-21.754 1-30.084-1.043-19.135-3.662-44.548-3.662-44.548S162.083 63.499 179.5 33.5z"/>
        <path fill="#faa" d="M186.813 168.34c0 .344-.209.62-.469.62-.259 0-.469-.276-.469-.62 0-.343.21-.621.469-.621.26 0 .469.278.469.621zm-6.717-1.09c-.326 0-.592.244-.592.545 0 .301.266.545.592.545.327 0 .592-.244.592-.545 0-.301-.265-.545-.592-.545zm-9.815 3.939c3.469-.877 18.969.186 19.844 1.311l.57-6.386c-3.045-2.563-18.307-3.062-20.043-1.804z"/>
        <path fill="url(#linearGradient1430)" stroke="#000" stroke-linecap="round" stroke-linejoin="round" stroke-miterlimit="10" d="M186.813 168.34c0 .344-.209.62-.469.62-.259 0-.469-.276-.469-.62 0-.343.21-.621.469-.621.26 0 .469.278.469.621zm-6.717-1.09c-.326 0-.592.244-.592.545 0 .301.266.545.592.545.327 0 .592-.244.592-.545 0-.301-.265-.545-.592-.545zm-9.815 3.939c3.469-.877 18.969.186 19.844 1.311l.57-6.386c-3.045-2.563-18.307-3.062-20.043-1.804z"/>
        <path fill="#ff8080" stroke="#000" stroke-linecap="round" stroke-linejoin="round" stroke-miterlimit="10" d="M181.125 162h2.313s.625 6.5 0 11.438h-2.313s.625-6.063 0-11.438z"/>
        <path fill="#fca" stroke="#000" stroke-linecap="round" stroke-linejoin="round" stroke-miterlimit="10" d="M191.438 164.813l2.25.563c.5.375.75.688.75 1.688l-.625 6.375c.063.25-.563.688-1.25.813h-2.438a1.98 1.98 0 0 1-.813-2l.313-5.938c.188-.876 1.188-1.439 1.813-1.501z"/>
        <path fill="#faa" stroke="#000" stroke-linecap="round" stroke-linejoin="round" stroke-miterlimit="10" d="M191.857 166.125s1.205-.063 1.705.313c.5.377.002 6.313-.594 6.688-.595.375-1.72 0-1.72 0-.813-.125-.625-1.063-.625-1.063l.625-5.188c.002 0-.014-.864.609-.75z"/>
        <path fill="#fca" stroke="#000" stroke-linecap="round" stroke-linejoin="round" stroke-miterlimit="10" d="M191.857 169v1s-1.207.25-1.252-.5c-.042-.75 1.252-.5 1.252-.5z"/>
        <path fill="#faa" stroke="#000" stroke-linecap="round" stroke-linejoin="round" stroke-miterlimit="10" d="M193.768 172.938s.295.396.67.354c.375-.042 0-6.229 0-6.229l-.252-.313z"/>
        <path fill="#ff8080" d="M147.801 18.538s1.866 10.71-9.301 14.962c0 0-33.212 63.668-32.875 69.625 2.208 39.041-1.125 115.875-2.75 141.625-.184 2.909.792 3.584 2.875 3.875 2.083.291 58.75.025 65.875-2 1.247-.354 2.25.128 2.25-1.5 0-24.792-1.708-97.959-9.466-117.692l-.737-11.773c3.08-2.33 5.828-12.16 8.161-42.66 1.53-20.012 7.854-38.906 7.667-39.499-.79-2.515-25.034-12.311-31.695-14.961z"/>
        <path fill="url(#linearGradient1507)" d="M150.5 23.832h-3.004c-.811 3.33-3.064 7.41-8.996 9.668l14.834 4.248z"/>
        <path fill="url(#linearGradient1453)" stroke="#000" stroke-linecap="round" stroke-linejoin="round" stroke-miterlimit="10" d="M147.801 18.538s1.866 10.71-9.301 14.962c0 0-33.212 63.668-32.875 69.625 2.208 39.041-1.125 115.875-2.75 141.625-.184 2.909.792 3.584 2.875 3.875 2.083.291 58.75.025 65.875-2 1.247-.354 2.25.128 2.25-1.5 0-24.792-1.708-97.959-9.466-117.692l-.737-11.773c3.08-2.33 5.828-12.16 8.161-42.66 1.53-20.012 7.854-38.906 7.667-39.499-.79-2.515-25.034-12.311-31.695-14.961z"/>
        <path fill="#ff8080" d="M137.898 34.655c1.019.178 19.686 18.179 19.769 20.012.083 1.833-50.917 31.498-52.042 48.458 4.208-26.791 31.257-68.647 32.273-68.47z"/>
        <path fill="url(#linearGradient1476)" stroke="#000" stroke-linejoin="round" stroke-miterlimit="10" d="M137.898 34.655c1.019.178 19.686 18.179 19.769 20.012.083 1.833-50.917 31.498-52.042 48.458 4.208-26.791 31.257-68.647 32.273-68.47z"/>
        <path fill="#ff8080" d="M138.5 33.5l2.68-9.668c2.487-2.25 3.321-11.917 1.404-15.5 2.416 3.417 5.217 10.206 5.217 10.206s1.866 10.71-9.301 14.962z"/>
        <path fill="url(#linearGradient1499)" stroke="#000" stroke-linecap="round" stroke-linejoin="round" stroke-miterlimit="10" d="M138.5 33.5l2.68-9.668c2.487-2.25 3.321-11.917 1.404-15.5 2.416 3.417 5.217 10.206 5.217 10.206s1.866 10.71-9.301 14.962z"/>
        <path fill="#f55" stroke="#000" stroke-linecap="round" stroke-linejoin="round" stroke-miterlimit="10" d="M167.438 26.063s6.64 5.121 8.569 4.873c1.931-.248.931-1.375.931-1.375z"/>
        <path fill="#f55" stroke="#000" stroke-linecap="round" stroke-linejoin="round" stroke-miterlimit="10" d="M172.917 28.333v1.833l2.167.624v-1.291z"/>
        <path fill="#ff8080" d="M149.5 18.538c-.003.302 1.417 2.378 1.417 2.378L177 30.166s.5.025-.063-.605c-2.08-2.331-25.879-11.202-25.879-11.202s-1.555-.123-1.558.179z"/>
        <path fill="url(#linearGradient1530)" stroke="#000" stroke-linecap="round" stroke-linejoin="round" stroke-miterlimit="10" d="M149.5 18.538c-.003.302 1.417 2.378 1.417 2.378L177 30.166s.5.025-.063-.605c-2.08-2.331-25.879-11.202-25.879-11.202s-1.555-.123-1.558.179z"/>
        <ellipse cx="154.977" cy="20.186" fill="#ffe680" stroke="#000" stroke-linecap="round" stroke-linejoin="round" stroke-miterlimit="10" rx=".638" ry="2.937" transform="rotate(-65.385 154.986 20.185)"/>
        <path fill="#ff8080" d="M142.667 7.748c.917-.167 6 8.667 10.667 11.583.583 1 2.75 17.75 0 18.417-2.75.667-9.145-15.666-12.154-13.916 3.487-5.168.57-15.918 1.487-16.084z"/>
        <path fill="url(#linearGradient1553)" stroke="#000" stroke-linecap="round" stroke-linejoin="round" stroke-miterlimit="10" d="M142.667 7.748c.917-.167 6 8.667 10.667 11.583.583 1 2.75 17.75 0 18.417-2.75.667-9.145-15.666-12.154-13.916 3.487-5.168.57-15.918 1.487-16.084z"/>
        <path d="M143.584 50.082l3.063 2.439c.421.334 3.405 2.172 2.832 2.896-.617.775-2.709-2.007-3.049-2.363l-2.846-2.972zM117.813 72.5c.595.497 4.606 3.241 3.982 3.982-.608.728-1.8-1.275-2.073-1.614l-1.909-2.368zM112.583 105.543l3.517-.083c.5-.012 3.42-.466 3.439.42.024.971-2.816.211-3.274.151l-3.682-.488zM115.12 140.063c.716-.08 4.911-1.006 5.018-.056.105.941-1.97.397-2.395.35-.874-.098-1.748-.197-2.623-.294z"/>
        <g>
            <ellipse cx="156.564" cy="39.958" fill="#ffe680" stroke="#000" stroke-miterlimit="10" rx="3.447" ry="3.382"/>
            <path fill="#fff6d5" d="M156.05 37.424c1.335-.74 3.157.761 2.808 2.209-.422-1.206-1.512-2.134-2.808-2.209zM154.15 39.811c.353 1.283 1.77 2.577 3.138 2.566-1.431.819-3.509-1.063-3.138-2.566z"/>
            <path fill="none" stroke="#000" stroke-linecap="round" stroke-miterlimit="10" stroke-width=".5" d="M156.257 38.956l-.207 1.355M157.288 39.312l-.123 1.283"/>
        </g>
        <g>
            <ellipse cx="147.271" cy="107.171" fill="#ffe680" stroke="#000" stroke-miterlimit="10" rx="3.479" ry="3.954"/>
            <path fill="#fff6d5" d="M146.751 104.207c1.458-.958 3.22 1.186 2.833 2.583-.327-1.222-1.434-2.665-2.833-2.583zM144.834 106.999c.33 1.334 1.645 3.099 3.167 3-1.616.96-3.526-1.502-3.167-3z"/>
            <path fill="none" stroke="#000" stroke-linecap="round" stroke-miterlimit="10" stroke-width=".5" d="M146.959 105.999l-.208 1.583M148.001 106.415l-.125 1.5"/>
        </g>
        <g>
            <ellipse cx="154.695" cy="72.494" fill="#ffe680" stroke="#000" stroke-miterlimit="10" rx="3.954" ry="3.48" transform="rotate(97.348 154.695 72.498)"/>
            <path fill="#fff6d5" d="M155.592 69.627c-1.378-.258-2.658 1.028-3.142 2.199-.203-1.436 1.818-3.334 3.142-2.199zM157.135 72.641c.164 1.534-2.045 3.726-3.523 2.569 1.495.295 3.027-1.288 3.523-2.569z"/>
            <path fill="none" stroke="#000" stroke-linecap="round" stroke-miterlimit="10" stroke-width=".5" d="M155.154 71.377l.005 1.597M154.068 71.657l-.067 1.504"/>
        </g>
        <g>
            <ellipse cx="144.891" cy="141.285" fill="#ffe680" stroke="#000" stroke-miterlimit="10" rx="3.715" ry="3.867"/>
            <path fill="#fff6d5" d="M145.445 138.389c-1.471.026-2.594 1.191-3.023 2.524-.354-1.649 1.493-3.202 3.023-2.524zM147.492 141.116c.371 1.61-1.768 3.836-3.381 2.935 1.541.073 3.034-1.522 3.381-2.935z"/>
            <path fill="none" stroke="#000" stroke-linecap="round" stroke-miterlimit="10" stroke-width=".5" d="M145.225 140.139l.22 1.549M144.111 140.547l.134 1.467"/>
        </g>
        <g>
            <circle cx="144.652" cy="176.125" r="3.953" fill="#ffe680" stroke="#000" stroke-miterlimit="10"/>
            <path fill="#fff6d5" d="M144.061 173.161c1.567-.661 3.578.837 3.219 2.583-.44-1.42-1.697-2.553-3.219-2.583zM141.883 175.952c.377 1.528 1.979 3.034 3.6 3-1.663.868-3.987-1.272-3.6-3z"/>
            <path fill="none" stroke="#000" stroke-linecap="round" stroke-miterlimit="10" stroke-width=".5" d="M144.297 174.952l-.236 1.584M145.48 175.369l-.141 1.5"/>
        </g>
        <g>
            <ellipse cx="114.364" cy="175.175" fill="#ffe680" stroke="#000" stroke-miterlimit="10" rx="3.604" ry="3.76"/>
            <path fill="#fff6d5" d="M113.825 172.355c1.479-.814 3.266.963 2.935 2.457-.427-1.287-1.509-2.419-2.935-2.457zM111.839 175.011c.347 1.37 1.786 2.91 3.281 2.854-1.575.887-3.642-1.288-3.281-2.854z"/>
            <path fill="none" stroke="#000" stroke-linecap="round" stroke-miterlimit="10" stroke-width=".5" d="M114.041 174.061l-.216 1.503M115.12 174.456l-.129 1.426"/>
        </g>
        <g>
            <ellipse cx="114.363" cy="140.061" fill="#ffe680" stroke="#000" stroke-miterlimit="10" rx="3.47" ry="3.51" transform="scale(-1) rotate(-77.28 -175.188 143.05)"/>
            <path fill="#fff6d5" d="M115.448 137.643c-1.314-.22-2.598.467-3.288 1.582-.016-1.515 2.119-2.618 3.288-1.582zM116.795 140.457c.021 1.572-2.448 3-3.697 1.866 1.361.331 3.068-.665 3.697-1.866z"/>
            <path fill="none" stroke="#000" stroke-linecap="round" stroke-miterlimit="10" stroke-width=".5" d="M114.896 139.129l-.101 1.402M113.791 139.255l-.167 1.311"/>
        </g>
        <g>
            <ellipse cx="111.174" cy="106.243" fill="#ffe680" stroke="#000" stroke-miterlimit="10" rx="3.454" ry="3.659"/>
            <path fill="#fff6d5" d="M110.658 103.5c1.439-.817 3.144.959 2.813 2.39-.422-1.233-1.437-2.346-2.813-2.39zM108.754 106.083c.341 1.302 1.699 2.829 3.144 2.776-1.526.891-3.504-1.276-3.144-2.776z"/>
            <path fill="none" stroke="#000" stroke-linecap="round" stroke-miterlimit="10" stroke-width=".5" d="M110.864 105.158l-.206 1.466M111.898 105.543l-.124 1.389"/>
        </g>
        <g>
            <ellipse cx="102.496" cy="72.183" fill="#ffe680" stroke="#000" stroke-miterlimit="10" rx="3.725" ry="3.562" transform="rotate(-105.593 102.495 72.183)"/>
            <path fill="#fff6d5" d="M101.232 69.634c1.237-1.046 3.367-.053 3.448 1.564-.75-1.111-2.079-1.904-3.448-1.564zM100.049 72.695c.696 1.208 2.475 2.305 3.883 1.851-1.266 1.267-3.815-.255-3.883-1.851z"/>
            <path fill="none" stroke="#000" stroke-linecap="round" stroke-miterlimit="10" stroke-width=".5" d="M101.891 71.203l.196 1.494M103.024 71.294l.257 1.395"/>
        </g>
        <path fill="#ff8080" d="M172.217 173.438s-3.917 6.396-5 5.979c-2.417-21.501-11.083-52.251-11.083-52.251l7.333-1.5s.775 2.758 2.5 8.582c.594 2 1.118 7.402 2.25 13.501.774 4.176 2.189 8.623 2.694 12.745.903 7.395 1.306 12.944 1.306 12.944z"/>
        <path fill="url(#linearGradient1581)" stroke="#000" stroke-linejoin="round" stroke-miterlimit="10" d="M172.217 173.438s-3.917 6.396-5 5.979c-2.417-21.501-11.083-52.251-11.083-52.251l7.333-1.5s.775 2.758 2.5 8.582c.594 2 1.118 7.402 2.25 13.501.774 4.176 2.189 8.623 2.694 12.745.903 7.395 1.306 12.944 1.306 12.944z"/>
        <path fill="none" stroke="#000" stroke-linecap="round" stroke-linejoin="round" stroke-miterlimit="10" stroke-width=".75" d="M170.8 173.292s-1.319 2.653-2.916 3.624c-.5-11.667-10.918-49.92-10.918-49.92"/>
        <path d="M167.052 149.25l-2.055 1.997a.51.51 0 1 1-.561-.83z"/>
        <ellipse cx="167.046" cy="149.475" fill="#ffe680" stroke="#000" stroke-linejoin="round" stroke-miterlimit="10" rx="2.479" ry=".889" transform="rotate(74.014 167.051 149.48)"/>
    </g>
    <g>
        <path fill="#ff2a2a" fill-opacity=".502" d="M157.417 103.75c-2.673 6.045-3.104 13.078-2.746 19.588.384 6.975 2.343 13.6 4.476 20.199-1.262-2.803-2.414-5.6-3.344-8.531-1.16-3.66-1.668-7.42-2.107-11.218-.337-6.621.169-14.221 3.721-20.038zM86.584 86.833c1.194 2.676 2.187 5.416 2.889 8.26.84 3.398 1.25 6.884 1.728 10.349.906 6.569 1.619 13.195 3.765 19.498l-.928.373c-1.977-6.305-2.557-12.883-3.28-19.426-.393-3.474-.688-6.984-1.425-10.405-.705-2.968-1.578-5.828-2.749-8.649zM103.833 124.626c.154 0-.253 3.174-.295 3.425-.274 1.643-.779 3.207-1.293 4.785-.78 2.393-2 4.609-3.16 6.831 2.026-4.563 4.345-9.832 3.751-14.959zM131.75 125.099c.17 5.075 1.184 9.901 3.168 14.568-2.316-4.582-3.66-9.399-4.166-14.515zM128.927 125.53a82.846 82.846 0 0 1-2.686 5.928c-1.295 2.588-2.694 5.288-4.823 7.292 1.896-2.033 3.072-4.654 4.154-7.186a81.743 81.743 0 0 0 2.417-6.379zM99.501 93.834c.149 3.459.432 6.919.823 10.359.544 4.777 1.07 10.078 3.459 14.339l-.836.55c-2.191-4.281-2.593-9.385-2.973-14.113-.296-3.7-.459-7.421-.473-11.135z"/>
        <path fill="#faa" d="M89.625 115.75c.882-.882 33.952-.264 55.938 0 10.729.129 18.963-.453 19.25-.125-.063 2.569.25 10.188.938 11.625-.625 1.5-75.5.75-76.125.188.562-2.188.249-10.25-.001-11.688z"/>
        <path fill="none" stroke="#ff2a2a" stroke-miterlimit="10" stroke-width=".25" d="M89.802 117.752c11.701-.709 36.073.04 36.073.04M89.909 120.335c16.428-.792 35.966.04 35.966.04M89.94 122.625c28.397.95 35.935.188 35.935.188M89.886 125.125c17.367.833 35.989.291 35.989.291M134.375 117.792c16.063.584 25.29-.04 30.447 0M134.375 120.335c7.623-.417 21.123 0 30.539 0M134.375 122.958s6.792.478 30.691-.146M134.375 125.417c3.969.334 27.54.084 30.922-.291"/>
        <path fill="url(#linearGradient1604)" stroke="#000" stroke-linejoin="round" stroke-miterlimit="10" d="M89.625 115.75c.882-.882 33.952-.264 55.938 0 10.729.129 18.963-.453 19.25-.125-.063 2.569.25 10.188.938 11.625-.625 1.5-75.5.75-76.125.188.562-2.188.249-10.25-.001-11.688z"/>
        <path fill="#ffb380" stroke="#000" stroke-miterlimit="10" d="M130.047 115.346h.87v13.107h-.87z"/>
        <path fill="#ffb380" stroke="#000" stroke-miterlimit="10" d="M125.875 116.875c0-2.188 1.25-2.938 2.563-2.938h4.031c.875.063 1.906.469 1.906 2.25v11.063c-.094 2.219-1.063 2.75-2.063 2.75h-4.625c-1.375 0-1.837-.438-1.813-2.938zm6.75-1.029a.5.5 0 0 0-.5-.5h-3.99a.5.5 0 0 0-.5.5v12.107a.5.5 0 0 0 .5.5h3.99a.5.5 0 0 0 .5-.5z"/>
        <path fill="#faa" d="M127.688 115.75c.976.273 3.651.33 4.938.156l-.219 11.875c-.438.75-3.156 1.031-4.938 0z"/>
        <path fill="none" stroke="#ff2a2a" stroke-miterlimit="10" stroke-width=".25" d="M132.625 118.376c0 1.235-4.938 1.192-4.938-.042M132.625 120.688c0 1.234-4.938 1.234-4.938 0M132.625 122.958c0 1.268-5.072 1.436-5.072.167M132.445 125.585c0 1.234-4.938 1.233-4.938-.001"/>
        <path fill="none" stroke="#000" stroke-linecap="round" stroke-linejoin="round" stroke-miterlimit="10" d="M127.688 115.75c.976.273 3.651.33 4.938.156l-.219 11.875c-.438.75-3.156 1.031-4.938 0z"/>
        <path fill="#ffb380" stroke="#000" stroke-miterlimit="10" d="M128 121.531c.656 0 .563 1.281 0 1.281h-.813c-.594-.438-.399-1.032 0-1.281z"/>
        <path fill="#ff8080" stroke="#000" stroke-linecap="round" stroke-linejoin="round" stroke-miterlimit="10" d="M150.438 115.346c1.125.798 1.75 11.148.563 13.279h3.04c1.063-2.881.724-9.817 0-13.279-.123-.585-3.202-.472-3.603 0z"/>
        <ellipse cx="104.656" cy="121.531" rx=".656" ry=".844"/>
        <ellipse cx="116.438" cy="121.75" rx=".656" ry=".844"/>
        <ellipse cx="139" cy="121.787" rx=".656" ry=".844"/>
        <ellipse cx="150.438" cy="121.787" rx=".656" ry=".844"/>
        <ellipse cx="159.146" cy="121.712" rx=".655" ry=".844"/>
    </g>
</svg>
