<svg version="1.1" viewBox="0 0 64 64" xmlns="http://www.w3.org/2000/svg" xmlns:xlink="http://www.w3.org/1999/xlink">
 <defs>
  <linearGradient id="linearGradient15" x1="29.5" x2="44.125" y1="1025.5" y2="1003.4" gradientTransform="matrix(1.2884 0 0 1.2905 -9.2252 -1284.7)" gradientUnits="userSpaceOnUse">
   <stop stop-color="#f55" offset="0"/>
   <stop stop-color="#ff8080" offset="1"/>
  </linearGradient>
 </defs>
 <ellipse cx="32" cy="32.006" rx="30.383" ry="30.381" fill="url(#linearGradient15)" fill-rule="evenodd" stroke-width=".95"/>
 <g transform="matrix(1.4641 0 0 1.4641 -15.405 -36.174)" fill="#fff" stroke="#fff" stroke-linecap="round" stroke-linejoin="bevel" stroke-width=".162">
  <path d="m28.368 46.319-9.5267 9.2406c-2.0363 1.9751 0.94041 5.5989 3.3977 3.0288l9.11-9.5227z"/>
  <path d="m33.331 41.757 3.8182-3.6714 2.4464 2.3493-3.7308 3.8919z"/>
  <path d="m39.984 40.512 1.029-0.93194c0.07162-0.06486 0.71762-0.07825 0.97077 0.11649 0.52837 0.40647 1.6115 1.1843 1.6115 1.1843 0.55502 0.4079 0.64345 1.4022 0.95136 1.8251 0.26133 0.35885 0.63424 0.6213 0.95136 0.93194 0.041 0.04017 0.70458 0.17267 1.0096-0.11649 0.57787-0.54782 1.6891-1.6891 1.6891-1.6891 0.14615-0.14615 0.30802-0.71342 0.01941-1.029-0.31524-0.34474-1.029-0.95136-1.029-0.95136-0.35694-0.33-0.68635 0.08714-1.9804-1.0873-0.81774-0.74215-0.68844-1.6135-1.1067-2.2522-2.5321-3.8666-8.4569-3.5298-12.484-1.7668 0.03063 0.34766 0.15067 0.53883 0.38831 0.52422 1.7656-0.41427 5.6192-0.60912 6.1353 0.5048 0.28208 0.60884-0.39703 1.2189-1.0484 1.9415-0.19936 0.22117-0.36035 0.12504-0.01941 0.46597l2.4269 2.4269c0.15256 0.15256 0.30151 0.06945 0.48538-0.09708z"/>
  <path d="m24.465 32.815c1.7381-0.04869 5.3491 1.5336 5.0008 5.545-0.05546 0.63873-0.03345 1.328 0.43822 1.813l10.709 11.011c0.29144 0.29966 0.65316 0.55886 1.2087 0.43822 4.1404-0.89917 6.8449 4.5736 3.789 7.2489-3.3994 2.976-8.0307-0.33262-7.1112-3.9266 0.13869-0.54209-0.36311-0.97913-0.7135-1.3178l-10.709-10.351c-0.43301-0.41858-1.0327-0.68629-1.6485-0.60434-4.4594 0.59352-6.1727-3.4772-5.8203-5.2713 0.08796-0.44778 0.36726-0.77264 0.916-0.20092l1.775 1.8478c0.30832 0.32123 0.7621 0.41077 1.3178 0.05537 1.2833-0.82069 1.7735-1.682 2.3066-2.3889 0.358-0.47469 0.1431-0.90325-0.13764-1.1802l-2.0313-2.0044c-0.31344-0.30921-0.04719-0.69228 0.71033-0.7135zm17.557 20.666-1.6501 1.6896 0.58219 2.2908 2.3098 0.64072 1.6896-1.7086-0.64072-2.2718z"/>
 </g>
</svg>
