<svg version="1.1" viewBox="0 0 64 64" xmlns="http://www.w3.org/2000/svg" xmlns:xlink="http://www.w3.org/1999/xlink">
 <defs>
  <linearGradient id="linearGradient15" x1="29.5" x2="44.125" y1="1025.5" y2="1003.4" gradientTransform="matrix(1.2884 0 0 1.2905 -9.225 -1284.7)" gradientUnits="userSpaceOnUse">
   <stop stop-color="#f55" offset="0"/>
   <stop stop-color="#ff8080" offset="1"/>
  </linearGradient>
 </defs>
 <ellipse cx="32" cy="32.006" rx="30.383" ry="30.381" fill="url(#linearGradient15)" fill-rule="evenodd"/>
 <g transform="scale(.96277 1.0387)" aria-label="A">
  <path d="m37.611 48.693v-1.3363q1.3258-0.27272 1.9622-0.59998 0.66291-0.32726 0.9811-0.89996 0.3182-0.59998 0.3182-1.5818 0-0.92724-0.21213-1.9908-0.21213-1.0909-0.60988-2.4272l-0.9811-3.518h-12.357l-0.90156 2.6726q-0.68942 2.0181-0.90156 3.0544-0.21213 1.0363-0.21213 1.8817 0 1.6363 0.79549 2.3999 0.82201 0.76361 2.4925 1.0091v1.3363h-11.322v-1.3363q1.4849-0.24544 2.5721-1.7727 1.1137-1.5272 2.1478-4.3635l11.057-30.19h4.1896l9.0156 30.408q0.63639 2.1272 1.1137 3.2453 0.50381 1.1181 1.1932 1.7454 0.68942 0.62725 1.8827 0.92724v1.3363zm-10.182-14.727h11.084l-5.0381-17.59z" fill="#fff" stroke-width="1.3768"/>
 </g>
</svg>
