<svg version="1.1" viewBox="0 0 64 64" xmlns="http://www.w3.org/2000/svg" xmlns:xlink="http://www.w3.org/1999/xlink">
 <defs>
  <linearGradient id="linearGradient15" x1="29.5" x2="44.125" y1="1025.5" y2="1003.4" gradientTransform="matrix(1.2884 0 0 1.2905 -9.2252 -1284.7)" gradientUnits="userSpaceOnUse">
   <stop stop-color="#f55" offset="0"/>
   <stop stop-color="#ff8080" offset="1"/>
  </linearGradient>
 </defs>
 <ellipse cx="32" cy="32.006" rx="30.383" ry="30.381" fill="url(#linearGradient15)" fill-rule="evenodd" stroke-width=".95"/>
 <path d="m49.78 50.4-0.2294-29.466-34.932 0.06436 0.03952 29.46-4.9952 0.05181 0.05127-33.702 22.816-9.4982 22.27 9.2733 0.06788 33.814z" fill="#fff"/>
 <g stroke="#fff">
  <g transform="matrix(.66504 0 0 .66504 -4.261 -641.08)">
   <path transform="matrix(.74076 0 0 .76781 27.875 242.75)" d="m9.2013 1036.9 24.166-0.0565 0.074-22.813-24.293-0.073z" fill="none" stroke-width="2.101"/>
   <path transform="matrix(.74076 0 0 .76781 27.875 242.75)" d="m30.545 1031.5 0.037-14.805-16.264-0.076zm-18.789 2.564 16.794 0.039-16.794-15.11z" fill="#fff" fill-rule="evenodd"/>
  </g>
  <g transform="matrix(.66504 0 0 .66504 10.349 -641.06)">
   <path transform="matrix(.74076 0 0 .76781 27.875 242.75)" d="m9.2013 1036.9 24.166-0.0565 0.074-22.813-24.293-0.073z" fill="none" stroke-width="2.101"/>
   <path transform="matrix(.74076 0 0 .76781 27.875 242.75)" d="m30.545 1031.5 0.037-14.805-16.264-0.076zm-18.789 2.564 16.794 0.039-16.794-15.11z" fill="#fff" fill-rule="evenodd"/>
  </g>
  <g transform="matrix(.66504 0 0 .66504 2.9852 -654.93)">
   <path transform="matrix(.74076 0 0 .76781 27.875 242.75)" d="m9.2013 1036.9 24.166-0.0565 0.074-22.813-24.293-0.073z" fill="none" stroke-width="2.101"/>
   <path transform="matrix(.74076 0 0 .76781 27.875 242.75)" d="m30.545 1031.5 0.037-14.805-16.264-0.076zm-18.789 2.564 16.794 0.039-16.794-15.11z" fill="#fff" fill-rule="evenodd"/>
  </g>
 </g>
</svg>
