<svg xmlns="http://www.w3.org/2000/svg" viewBox="0 0 256 256">
    <g transform="matrix(1.05 0 0 1.05 -9.572 -850.129)">
        <path fill="#ff2a2a" fill-rule="evenodd" stroke="#000" d="M226.099 948.932c-16.75-9.75-31-10-31-10l-49.066 21.507c1.499-14.804-2.183-29.61 4.617-44.414l26.699-14.093c7.918-4.709 62.644-10.083 66.5 14.5 4.92 31.369-17.75 32.5-17.75 32.5z"/>
        <path fill="#faa" fill-rule="evenodd" stroke="#000" d="M152.226 933.016l-3.454-.715c.054-5.768 3.99-18.56 12.256-20.69l-.72 2.18c-5.01 2.784-8.353 13.48-8.082 19.225z"/>
        <path fill="#f55" fill-rule="evenodd" stroke="#000" d="M209.474 905.807c2.59 13.105-4.657 27.745-7.75 37.625-14.28 7.485-25.713 6.717-38.5 9.875l-2.25-29.5c.763-6.013 28.82-23.347 48.5-18z"/>
        <path fill="#ff8080" fill-rule="evenodd" stroke="#000" d="M238.493 975.177c-25.516 39.101-78.245 14.605-82.896 3.305l2.993-53.067c-1.817 6.008 42.262 56.195 88.39 2.656.877 13.775-4.19 31.759-8.487 47.106z"/>
        <path fill="#faa" fill-rule="evenodd" stroke="#000" d="M147.438 961.072c.719-10.733.05-20.832.419-30.927.36-9.828 4.4-18.5 16.256-20l.578-1.815c-12.945 1.512-18.384 7.828-18.898 21.223l-1.194 31.133c.81.674 1.862 1.374 2.839.386z"/>
        <path fill="#e6e6e6" fill-rule="evenodd" stroke="#000" d="M159.203 914.904c-1.524.812-2.838 1.203-3.265-.182 2.77-3.72 4.448-7.131 8.501-11.213 2.57-.83 2.654.093 2.838.945-3.28 3.481-7.1 6.96-8.074 10.45z"/>
        <path fill="#e6e6e6" fill-rule="evenodd" stroke="#000" d="M158.988 917.437l-2.563.177c.201-1.469-5.71-2.521-9.634.177-1.247 7.16-1.461 15.233-1.33 22.393-.984-.079-2.208.808-2.736-1.091-.688-8.677.665-17.73 1.06-23.335.676-1.61 7.528-2.272 14.23-1.414 1.686 1.031 1.783 2.062.973 3.093z"/>
        <path fill="#faa" fill-rule="evenodd" stroke="#000" d="M248.039 924.973c.077 22.294-24.227 30.374-46.67 29.08-16.709-.965-45.363-8.471-43.486-25.103 2.686-23.798 46.1-26.13 46.1-26.13 5.075.066 6.999 3.672 4.281 3.503-1.998-.115-52.488 7.373-44.37 24.749 5.8 12.415 23.067 18.177 36.769 18.384 21.558.326 44.677-9.23 41.542-25.102-5.003-25.329-44.637-33.242-73.607-15.282-6.855 4.251-13.19 25.358-13.19 25.358l-3.712-2.121c3.83-7.896 5.9-18.353 11.49-23.688 22.129-21.118 84.743-15.342 84.853 16.352z"/>
        <path fill="#ff8080" fill-rule="evenodd" stroke="#000" d="M248.797 940.933c.185 3.124-2.923 17.324-5.198 23.374-32.219 44.218-91.219 15.985-95.125-1.313l.562-19.5c19.176 28.637 73.155 39.313 99.761-2.56z"/>
        <path fill="#faa" fill-rule="evenodd" stroke="#000" d="M156.959 948.818l-3.613-.751c-.328-2.467 1.082-5.449.175-7.395-2.952-.898-6.508-.555-8.26-.302l-1.412 17.812c-1.532-5.604-1.028-17.667.25-26.5 4.476-.596 8.952-.4 13.428.059.28 4.004.546 11.077-.568 17.077z"/>
        <path fill="#faa" fill-rule="evenodd" stroke="#000" d="M248.746 942.032c.614-4.472-.474-8.556-.972-12.905 1.01 15.602-13.526 29.148-29.577 35.091-12.857 4.76-26.415 4.42-39.234-.54-10.653-4.123-26.585-13.781-26.737-23.237l-3.403-.089c-2.602 14.006 61.136 58.644 99.923 1.68z"/>
        <path fill="#808080" fill-rule="evenodd" stroke="#000" stroke-width=".75" d="M139.58 1007.71c-2.204-1.132-4.68-1.945-7.864-1.99l.33 1.652 7.391 1.66c.49.159.525-.77.143-1.322z"/>
        <g stroke="#000" transform="matrix(.97884 .1744 -.21162 .8067 216.781 162.35)">
            <path fill="#ececec" fill-rule="evenodd" d="M176.342 1012.072c-10.65 3.88-17.933 6.221-23.55 8.064.18-3.91-1.463-6.718-5.38-9.221 7.193-3.896 15.646-7.561 21.586-13.355-.816 4.137-1.415 11.275 7.344 14.512z"/>
            <path fill="#e6e6e6" d="M178.933 992.383a10.928 9.931 3.428 0 1 10.316 10.568 10.928 9.931 3.428 0 1-11.504 9.26 10.928 9.931 3.428 0 1-10.314-10.567 10.928 9.931 3.428 0 1 11.502-9.26zm-.129 2.147a8.563 7.781 3.428 0 0-9.012 7.255 8.563 7.781 3.428 0 0 8.082 8.28 8.563 7.781 3.428 0 0 9.012-7.256 8.563 7.781 3.428 0 0-8.082-8.28z"/>
            <ellipse cx="191.76" cy="1005.282" fill="#333" stroke-width=".79" rx="3.199" ry="1.365" transform="scale(-1 1) rotate(19.799)"/>
            <path fill="#e6e6e6" stroke-width=".698" d="M146.558 1010.38a7.632 6.935 3.428 0 1 7.204 7.38 7.632 6.935 3.428 0 1-8.034 6.466 7.632 6.935 3.428 0 1-7.202-7.38 7.632 6.935 3.428 0 1 8.032-6.466zm-.09 1.499a5.98 5.434 3.428 0 0-6.294 5.066 5.98 5.434 3.428 0 0 5.644 5.782 5.98 5.434 3.428 0 0 6.294-5.067 5.98 5.434 3.428 0 0-5.644-5.781z"/>
        </g>
        <path fill="#e6e6e6" fill-rule="evenodd" stroke="#000" d="M187.935 965.631c-.984-1.144-2.14-1.18-3.359-.442-1.118 10.831-2.17 21.677-5.127 32.085.467 2.31 1.45 2.964 3.094 1.503 3.446-10.636 3.64-22.086 5.392-33.146z"/>
        <ellipse cx="-198.416" cy="979.616" fill="#ccc" stroke="#000" stroke-width=".735" rx="7.257" ry="5.161" transform="scale(-1 1)"/>
        <ellipse cx="-510.052" cy="846.96" fill="#ccc" stroke="#000" stroke-width=".75" rx="6.75" ry="5.063" transform="scale(-1 1) rotate(-21.145)"/>
        <ellipse cx="-474.595" cy="830.933" fill="#ccc" stroke="#000" stroke-width=".657" rx="2.298" ry="6.517" transform="matrix(-.94672 -.32205 -.24722 .96896 0 0)"/>
        <path fill="#808080" fill-rule="evenodd" stroke="#000" stroke-width=".75" d="M132.737 1006.6c-.368-2.45-1.027-4.335-2.85-6.946l-.833.589 1.996 6.947c.157.49 1.462.042 1.687-.59z"/>
        <path fill="#808080" fill-rule="evenodd" stroke="#000" stroke-width=".817" d="M130.794 1001.26c-2.205-1.63-5.805-3.321-10.073-4.52l1.66 2.066 7.814 3.69c.502.292.848-.595.599-1.237z"/>
        <path fill="#808080" fill-rule="evenodd" stroke="#000" stroke-width=".79" d="M123.024 997.93c-.701-2.772-1.343-5.229-3.11-8.217l-.892.993 2.88 7.976c.153.561.903-.028 1.122-.751z"/>
        <g stroke="#000" transform="matrix(.9834 .09252 -.07677 .81608 76.964 172.665)">
            <path fill="#ececec" fill-rule="evenodd" d="M85.132 980.628c10.649 3.88 17.933 6.221 23.55 8.064-.18-3.91 1.463-6.718 5.38-9.221-7.193-3.896-15.646-7.562-21.586-13.356.816 4.138 1.415 11.275-7.344 14.513z"/>
            <path fill="#e6e6e6" d="M82.541 960.939a9.931 10.928 86.572 0 0-10.316 10.567 9.931 10.928 86.572 0 0 11.504 9.26A9.931 10.928 86.572 0 0 94.043 970.2a9.931 10.928 86.572 0 0-11.502-9.26zm.129 2.146a7.781 8.563 86.572 0 1 9.012 7.256 7.781 8.563 86.572 0 1-8.082 8.279 7.781 8.563 86.572 0 1-9.012-7.255 7.781 8.563 86.572 0 1 8.082-8.28z"/>
            <ellipse cx="427.127" cy="887.131" fill="#333" stroke-width=".79" rx="3.199" ry="1.365" transform="rotate(19.799)"/>
            <path fill="#e6e6e6" stroke-width=".698" d="M114.916 978.935a6.935 7.632 86.572 0 0-7.204 7.38 6.935 7.632 86.572 0 0 8.033 6.467 6.935 7.632 86.572 0 0 7.203-7.38 6.935 7.632 86.572 0 0-8.032-6.467zm.09 1.5a5.434 5.98 86.572 0 1 6.294 5.066 5.434 5.98 86.572 0 1-5.644 5.782 5.434 5.98 86.572 0 1-6.294-5.067 5.434 5.98 86.572 0 1 5.644-5.782z"/>
        </g>
        <path fill="#ececec" fill-rule="evenodd" stroke="#000" stroke-width=".75" d="M131.368 1008.154c2.381 1.56 5.719 1.737 8.133 1.539.678-.576.466-1.277.118-1.878-2.827-.178-5.551-.572-8.252-1.317-.591.581-.19 1.202.002 1.656z"/>
        <path fill="#ececec" fill-rule="evenodd" stroke="#000" stroke-width=".75" d="M128.354 1000.436c.124 2.844.935 5.944 2.506 7.788.753.523 1.817 1.268 2.102.635-1.507-2.4-2.292-6.763-3.264-9.391-.818-.14-1.087.548-1.344.968z"/>
        <path fill="#ececec" fill-rule="evenodd" stroke="#000" stroke-width=".817" d="M121.355 999.37c2.178 2.18 6.758 3.558 9.555 4.048.362-.896.31-1.676-.106-2.045-3.14-.971-6.093-2.121-8.902-3.603-.862.394-.613 1.108-.547 1.6z"/>
        <path fill="#ececec" fill-rule="evenodd" stroke="#000" stroke-width=".79" d="M118.022 990.598c.12 3.255 1.474 6.916 2.997 9.026.485.776 1.978 1.746 2.254 1.021-1.461-2.746-3.004-8.148-3.947-11.156-.793-.16-1.055.628-1.304 1.11z"/>
        <path fill="#ff2a2a" fill-rule="evenodd" stroke="#000" d="M36.79 919.432c16.75-9.75 31-10 31-10l49.065 21.508c-1.499-14.805 2.183-29.61-4.616-44.415l-26.7-14.093c-7.918-4.709-62.644-10.082-66.5 14.5-4.92 31.369 17.75 32.5 17.75 32.5z"/>
        <path fill="#faa" fill-rule="evenodd" stroke="#000" d="M110.662 903.516l3.454-.714c-.054-5.769-3.99-18.562-12.256-20.69l.72 2.178c5.011 2.785 8.353 13.481 8.082 19.226z"/>
        <path fill="#f55" fill-rule="evenodd" stroke="#000" d="M53.414 876.307c-2.59 13.105 4.658 27.745 7.75 37.625 14.28 7.485 25.713 6.717 38.5 9.875l2.25-29.5c-.763-6.013-28.82-23.347-48.5-18z"/>
        <path fill="#ff8080" fill-rule="evenodd" stroke="#000" d="M24.395 945.677c25.516 39.102 78.245 14.605 82.896 3.305l-2.993-53.067c1.817 6.008-42.262 56.195-88.39 2.656-.877 13.775 4.19 31.759 8.487 47.106z"/>
        <path fill="#faa" fill-rule="evenodd" stroke="#000" d="M115.45 931.572c-.718-10.733-.05-20.831-.419-30.927-.36-9.828-4.4-18.5-16.256-20l-.578-1.815c12.945 1.512 18.384 7.828 18.898 21.223l1.195 31.133c-.811.674-1.863 1.374-2.84.386z"/>
        <path fill="#e6e6e6" fill-rule="evenodd" stroke="#000" d="M103.685 885.404c1.524.812 2.838 1.203 3.266-.181-2.772-3.72-4.449-7.132-8.502-11.213-2.57-.83-2.654.092-2.838.944 3.28 3.482 7.1 6.96 8.074 10.45z"/>
        <path fill="#e6e6e6" fill-rule="evenodd" stroke="#000" d="M103.9 887.938l2.563.176c-.2-1.469 5.71-2.521 9.635.177 1.246 7.16 1.46 15.233 1.33 22.393.983-.079 2.207.808 2.735-1.091.689-8.677-.665-17.73-1.06-23.335-.676-1.61-7.528-2.272-14.23-1.414-1.686 1.031-1.783 2.062-.973 3.094z"/>
        <path fill="#faa" fill-rule="evenodd" stroke="#000" d="M14.85 895.473c-.078 22.294 24.226 30.375 46.668 29.08 16.71-.965 45.364-8.47 43.487-25.103-2.686-23.798-46.1-26.13-46.1-26.13-5.075.066-6.999 3.672-4.281 3.503 1.998-.115 52.488 7.373 44.37 24.749-5.8 12.415-23.067 18.177-36.769 18.384-21.558.327-44.677-9.23-41.542-25.102 5.003-25.329 44.637-33.242 73.607-15.281 6.856 4.25 13.19 25.357 13.19 25.357l3.713-2.12c-3.83-7.897-5.9-18.354-11.49-23.689-22.13-21.118-84.744-15.342-84.854 16.352z"/>
        <path fill="#ff8080" fill-rule="evenodd" stroke="#000" d="M14.091 911.434c-.185 3.123 2.923 17.323 5.198 23.373 32.219 44.219 91.219 15.986 95.125-1.313l-.562-19.5c-19.176 28.637-73.155 39.314-99.761-2.56z"/>
        <path fill="#faa" fill-rule="evenodd" stroke="#000" d="M105.93 919.318l3.612-.75c.328-2.468-1.082-5.45-.175-7.396 2.952-.898 6.508-.555 8.26-.302l1.412 17.812c1.532-5.604 1.028-17.667-.25-26.5-4.476-.596-8.952-.4-13.428.06-.28 4.003-.546 11.076.568 17.076z"/>
        <path fill="#faa" fill-rule="evenodd" stroke="#000" d="M14.142 912.532c-.614-4.472.474-8.556.972-12.905-1.01 15.602 13.526 29.148 29.577 35.091 12.857 4.76 26.415 4.42 39.234-.54 10.653-4.123 26.586-13.781 26.737-23.237l3.403-.089c2.602 14.006-61.136 58.644-99.923 1.68z"/>
        <path fill="#e6e6e6" fill-rule="evenodd" stroke="#000" d="M74.953 936.132c.984-1.145 2.14-1.18 3.36-.442 1.117 10.83 2.168 21.676 5.126 32.085-.467 2.309-1.45 2.963-3.094 1.502-3.446-10.636-3.64-22.086-5.392-33.145z"/>
        <ellipse cx="64.472" cy="950.116" fill="#ccc" stroke="#000" stroke-width=".735" rx="7.257" ry="5.161"/>
        <ellipse cx="-254.223" cy="914.28" fill="#ccc" stroke="#000" stroke-width=".75" rx="6.75" ry="5.063" transform="rotate(-21.145)"/>
        <ellipse cx="-211.774" cy="887.843" fill="#ccc" stroke="#000" stroke-width=".657" rx="2.298" ry="6.517" transform="matrix(.94672 -.32205 .24722 .96896 0 0)"/>
        <path fill="#fff" fill-rule="evenodd" d="M194.852 976.083c2.293-.2 4.567-.032 6.275.603.19.07.371.147.544.228 1.426.386 2.576 1.17 2.948 2.616-.087-1.53-1.06-2.685-2.636-3.441a8.53 8.53 0 0 0-.634-.165c-1.911-.418-4.267-.298-6.497.16zM167.584 970.028c2.706-.33 5.036.732 6.85 2.572a12.13 12.13 0 0 1 1.105 2.6 11.225 11.225 0 0 0-1.913-1.905c-1.349-1.84-3.34-3.242-6.042-3.267zM243.068 955.842c.516-1.011 1.106-1.702 1.608-2.006.08-.077.158-.14.232-.19.222-.15.424-.195.601-.11.194.092.373.345.476.804-.04-.451-.159-.777-.372-.958-.227-.192-.54-.205-.877-.064a1.902 1.902 0 0 0-.328.18c-.48.47-.962 1.292-1.34 2.344zM186.455 966.36c-.003.84.023 1.698.068 2.565-.837 5.31-.951 11.486-2.366 17.146 1.113-5.729.902-11.826 1.443-17.264.265-.845.547-1.663.855-2.447zM89.095 942.142c1.357-1.068 3.5-1.24 5.262-.81.103.025.204.052.304.08 1.655.087 3.258.72 3.76 2.012-.129-1.501-1.63-2.678-3.547-3.226a8.476 8.476 0 0 0-.364-.022c-2.098-.082-4.29.582-5.415 1.966zM61.105 947.641c1.5-.86 3.535-.774 5.236-.166.1.036.198.073.295.112 1.666.258 3.282 1.034 4.045 2.25-.414-1.442-1.885-2.708-3.71-3.437a9.344 9.344 0 0 0-.357-.058c-2.061-.296-4.195.095-5.51 1.3zM17.75 923.862c.444.345.79.916 1.053 1.547.29.39.556.847.788 1.325.56 1.153.914 2.415.971 3.128.113-.724-.074-2.049-.498-3.32a9.246 9.246 0 0 0-.654-1.52c-.517-.585-1.086-1.017-1.66-1.16zM76.765 936.573a74.1 74.1 0 0 1-.066 1.622c1.329 5.805 1.868 13.15 3.16 18.84-.867-4.999-1.418-13.805-2.338-19.006-.247-.518-.5-1.006-.756-1.456zM96.563 974.175c3.77 2.81 7.59 5.155 11.03 7.35.648.137 1.277.268 1.907.4-.425-.48-.862-.962-1.308-1.448-3.636-1.843-7.645-3.832-11.63-6.302zM166.594 1000.716c-4.664.598-9.04 1.567-13.04 2.38-.56.351-1.104.695-1.648 1.038.638.049 1.288.093 1.946.132 3.896-1.201 8.16-2.557 12.742-3.55z"/>
    </g>
</svg>
