<svg xmlns="http://www.w3.org/2000/svg" xmlns:xlink="http://www.w3.org/1999/xlink" cursor="default" viewBox="0 0 256 256">
    <defs>
        <linearGradient id="linearGradient5904" x1="87.633" x2="75.361" y1="216.69" y2="200.966" gradientTransform="matrix(1.21 0 0 1.21 -26.385 -48.082)" gradientUnits="userSpaceOnUse" xlink:href="#linearGradient5902"/>
        <linearGradient id="linearGradient5902">
            <stop offset="0" stop-color="#f95"/>
            <stop offset="1" stop-color="#ffb380"/>
        </linearGradient>
        <linearGradient id="linearGradient5920" x1="55.993" x2="65.581" y1="125.988" y2="130.974" gradientTransform="matrix(1.21 0 0 1.21 -26.385 -48.082)" gradientUnits="userSpaceOnUse" xlink:href="#linearGradient5918"/>
        <linearGradient id="linearGradient5918">
            <stop offset="0" stop-color="#ffb380"/>
            <stop offset="1" stop-color="#f95"/>
        </linearGradient>
        <linearGradient id="linearGradient5928" x1="125.41" x2="133.08" y1="74.214" y2="86.87" gradientTransform="matrix(1.21 0 0 1.21 -26.385 -48.082)" gradientUnits="userSpaceOnUse" xlink:href="#linearGradient5918"/>
        <linearGradient id="linearGradient5912" x1="207.29" x2="195.593" y1="144.397" y2="116.017" gradientTransform="matrix(1.21 0 0 1.21 -26.385 -48.082)" gradientUnits="userSpaceOnUse" xlink:href="#linearGradient5902"/>
        <linearGradient id="linearGradient5896" x1="163.254" x2="111.729" y1="208.271" y2="133.966" gradientTransform="matrix(1.21 0 0 1.21 -26.385 -48.082)" gradientUnits="userSpaceOnUse" xlink:href="#linearGradient5894"/>
        <linearGradient id="linearGradient5894">
            <stop offset="0" stop-color="#ffb380"/>
            <stop offset="1" stop-color="#fca"/>
        </linearGradient>
    </defs>
    <g>
        <path fill="#ff8080" fill-rule="evenodd" stroke="#000" stroke-linejoin="bevel" stroke-width="1.21" d="M208.447 242.306L5.095 97.13l245.373-.504L47.153 245.322C75.827 167.12 105.222 85.75 133.093 9.161c23.388 75.575 50.043 154.833 75.354 233.145z"/>
        <path fill-opacity=".251" fill-rule="evenodd" d="M133.148 10.061l3.622 10.479c-.772 2.96 1.158 5.158 2.071 7.538.784 2.995 1.014 5.989 3.085 8.983l3.053 8.66-13.703-.376zM5.922 97.29l36.197 10.767-6.675 10.899zM48.716 243.517L71.813 210.5l8.77 10.44zM207.766 241.353l-30.831-21.81 9.818-8.182z"/>
        <path fill="#f95" fill-rule="evenodd" stroke="#000" stroke-width=".907" d="M195.673 190.145l9.04 6.688c3.873 2.867-35.123 30.378-36.06 27.17l-3.574-12.229z"/>
        <path fill="url(#linearGradient5904)" fill-rule="evenodd" stroke="#000" stroke-width=".907" d="M63.127 190.625l-9.039 6.688c-3.874 2.866 35.122 30.377 36.06 27.169l3.573-12.228z"/>
        <path fill="url(#linearGradient5920)" fill-rule="evenodd" stroke="#000" stroke-width=".907" d="M55.108 93.319l-9.332-6.272c-4-2.688-16.834 43.278-13.498 43.085l12.719-.736z"/>
        <path fill="url(#linearGradient5928)" fill-rule="evenodd" stroke="#000" stroke-width=".907" d="M113.476 55.07l-3.17-10.788c-1.357-4.624 46.339-3.015 45.15.108l-4.533 11.906z"/>
        <path fill-opacity=".251" fill-rule="evenodd" d="M249.397 97.051L223.9 115.59l-3.65-10.009z"/>
        <path fill="url(#linearGradient5912)" fill-rule="evenodd" stroke="#000" stroke-width=".907" d="M203.88 91.976l9.047-6.676c3.878-2.862 18.726 42.493 15.384 42.447l-12.738-.174z"/>
        <ellipse cx="129.769" cy="136.615" fill="#ff7f2a" stroke="#000" stroke-linecap="square" stroke-width="1.936" paint-order="stroke fill markers" rx="76.964" ry="75.322"/>
        <path fill-opacity=".251" fill-rule="evenodd" d="M164.345 208.162l-1.624-5.376c-18.495 6.911-42.875 8.93-66.143-2.934l39.278-28.158c-9.237-6.6-45.234 24.81-46.46 24.018l-6.848 6.836c21.9 15.677 55.243 23.5 81.797 5.614zM185.247 193.622l-4.44-3.44c13.113-14.847 23.745-36.986 20.893-63.068l-34.32 23.535c-6.958-11.136 33.372-29.94 33.049-31.47l8.834-3.95c6.805 26.058 2.186 59.993-24.016 78.393zM201.096 106.65l-4.987-.113c-9.872-16.96-29.137-32.931-49.002-37.005l9.126 33.481c-9.123 1.205-15.527-34.445-18.148-34.475l-1.64-11.014c26.89 1.5 55.158 18.548 64.65 49.125zM75.79 191.865l1.272-5.385c-13.04-18.559-20.826-40.664-16.166-61.418l32.918 23.024c4.143-10.826-31.165-27.453-30.69-28.764l-9.668-5.523c-8.354 25.604-2.718 58.13 22.335 78.066zM59.465 103.087l7.67.024C80.9 85.548 95.481 72.763 120.242 67.804l1.985-7.99c-25.027 1.46-52.218 16.51-62.763 43.273z"/>
        <path fill="#f95" stroke="#000" stroke-linecap="round" stroke-linejoin="round" stroke-width="1.21" d="M196.932 100.723c2.876 5.712 5.571 11.385 7.23 17.458l-36.814 26.026 15.947 46.07c-2.808 3.45-9.947 8.732-14.445 10.938l-40.258-29.657-39.938 28.263c-4.8-2.856-9.859-6.765-13.92-10.705l17.078-44.077-35.652-28.788a74.624 74.624 0 0 1 6.085-15.018l42.603-.454 14.696-38.315c8.853-1.278 14.46-1.104 22.838.278l12.21 37.852z"/>
        <ellipse cx="129.421" cy="131.626" fill="#faa" stroke="#000" stroke-linecap="round" stroke-width=".594" rx="19.271" ry="19.455"/>
        <path fill-opacity=".251" fill-rule="evenodd" d="M146.647 122.518c1.702 4.508-22.4 24.34-29.249 24.329 23.428 15.69 39.253-10.065 29.249-24.33zM102.255 143.902l-.95-6.104L58.15 107.08l-2.094 5.949zM131.234 161.324l-6.164-1.11-43.593 31.93 5.019 4.032zM156.826 145.651l.55-6.24 43.72-32.761 1.117 4.998zM148.714 109.93l-5.195-2.4-14.045-46.016 4.21.458z"/>
        <path fill-opacity=".251" fill-rule="evenodd" d="M128.772 159.913L99.67 147.185l16.942-45.028 3.058 2.93 25.069.39 6.5 8.518-14.213-.064c-4.956-.952-10.002-1.083-15.176-.068l-5.169.18-2.137 5.574c-2.236 3.414-3.345 7.15-4.057 11l-4.123 10.882z"/>
        <path fill="#ff8080" fill-rule="evenodd" stroke="#000" stroke-linejoin="bevel" stroke-width="1.21" d="M176.636 195.857L58.332 109.142l142.152-.51-118.748 85.87L130.71 62.299z"/>
        <path fill="url(#linearGradient5896)" stroke="#000" stroke-linecap="square" stroke-width="2.42" d="M129.769 51.46a87.01 85.154 0 0 0-87.01 85.154 87.01 85.154 0 0 0 87.01 85.156 87.01 85.154 0 0 0 87.01-85.156 87.01 85.154 0 0 0-87.01-85.154zm0 11.394a75.37 73.763 0 0 1 75.37 73.76 75.37 73.763 0 0 1-75.37 73.763 75.37 73.763 0 0 1-75.37-73.763 75.37 73.763 0 0 1 75.37-73.76z" paint-order="stroke fill markers"/>
        <path fill="#ffe6d5" d="M133.25 53.317c-4.641.168-11.113.412-18.767 1.705-7.648 1.291-14.628 3.33-20.934 5.999-5.296 2.24-9.36 4.614-11.832 6.31-4.428 3.038-10.232 7.822-15.908 14.7-7.642 9.26-13.138 19.975-16.408 31.072-3.199 10.855-3.579 19.665-3.626 24.904.047-5.232.974-14.048 4.785-24.523 3.909-10.74 9.95-20.762 17.76-29.269 5.814-6.332 11.477-10.607 15.711-13.512 2.368-1.625 5.999-4.167 10.895-6.802a88.836 88.836 0 0 1 19.797-7.76c7.325-1.907 13.99-2.66 18.526-2.824zM46.953 89.585c-.732 1.024-2.064 4.996-2.706 6.317-1.165 2.396-2.781 5.818-4.692 11.221-1.398 3.95-2.626 8.05-3.653 11.968-1.001 3.817-1.71 7.07-2.074 9.05.37-2.005.917-5.235 1.717-9.134.815-3.979 1.792-8.153 2.964-12.22 1.566-5.43 3.084-9.266 4.228-11.62.345-.71 1.173-1.893 2.072-3.015.88-1.101 1.778-2.055 2.144-2.567zM112.255 45.044c2.125-.368 8.591-1.977 10.789-2.154 2.918-.235 7.453-.388 12.545-.197 3.685.138 7.076.432 9.982.833 3.782.522 5.92 1.104 7.165 1.459-1.204-.343-3.473-.754-7.212-1.002-2.908-.193-6.29-.259-9.944-.184-5.224.108-9.353.457-12.407.703-2.171.175-8.793.174-10.918.542zM79.391 217.606c-4.33-3.002-9.887-6.841-14.942-10.965-4.103-3.347-6.48-5.768-7.762-7.252-.232-.269-.552-1.334-.756-1.592.204.258 1.183.764 1.41 1.027 1.285 1.489 3.43 3.927 7.42 7.45 4.728 4.175 10.456 8.438 14.63 11.332zM213.085 86.95c.224.43.576 1.85.787 2.262 2.011 3.923 4.708 9.215 6.954 14.55 2.438 5.79 3.418 9.475 3.824 11.632-.415-2.204-1.194-5.836-3.486-11.768-2.055-5.317-4.72-10.888-6.687-14.724-.212-.414-1.168-1.522-1.392-1.951zM200.805 200.198c-1.433 1.258-4.151 3.705-6.611 5.818-2.561 2.2-4.592 3.842-5.771 4.723-.487.364-1.126.826-1.853 1.331a72.845 72.845 0 0 1-6.168 3.863c-2.073 1.149-3.551 1.804-4.496 2.232.91-.412 2.414-1.194 4.382-2.426 2.035-1.274 4.028-2.685 5.96-4.118.707-.523 1.335-.998 1.819-1.359 1.391-1.04 3.068-2.231 5.938-4.476 2.65-2.073 5.242-4.22 6.8-5.588z"/>
        <path fill="#ffd5d5" d="M36.075 104.634c-.366-.091-1.303-.997-1.668-1.089-4.73-1.183-19.08-4.102-23.81-5.286 4.73 1.184 18.764 5.366 23.494 6.55.365.091 1.618-.266 1.984-.175zM65.86 214.858c-.198.32-1.345.94-1.543 1.26-2.56 4.15-9.687 16.941-12.247 21.091 2.56-4.15 10.795-16.258 13.356-20.408.197-.32.236-1.623.434-1.943zM223.468 102.614c.345-.075 1.51.3 1.856.226 4.47-.972 17.752-4.488 22.223-5.46-4.47.972-18.014 3.287-22.485 4.258-.345.075-1.25.901-1.594.976zM190.874 213.054c.194.322.218 1.626.411 1.948 2.513 4.179 10.61 16.38 13.123 20.56-2.513-4.18-9.493-17.052-12.006-21.231-.194-.323-1.334-.955-1.528-1.277zM107.847 120.506c-.61-.146-2.252-1.365-2.862-1.51-8.215-1.96-33.048-7.055-41.263-9.015 8.215 1.96 32.674 8.621 40.89 10.58.61.146 2.626-.2 3.235-.055zM127.068 107.14c.039-.572.924-2.238.963-2.81.522-7.716 1.322-30.914 1.845-38.63-.523 7.716-2.86 30.81-3.383 38.525-.039.573.614 2.343.575 2.916zM110.81 150.667c-.351.519-2.074 1.622-2.427 2.14-4.747 6.986-18.323 28.394-23.07 35.38 4.747-6.986 19.655-27.49 24.402-34.475.352-.518.744-2.526 1.096-3.045zM152.136 119.998c.61-.147 2.627.196 3.236.049 8.211-1.978 32.656-8.693 40.867-10.67-8.211 1.977-33.033 7.127-41.244 9.105-.61.146-2.25 1.37-2.859 1.516zM146.393 149.653c.35.521.727 2.532 1.075 3.053 4.699 7.018 19.463 27.625 24.161 34.644-4.698-7.019-18.124-28.521-22.823-35.54-.349-.52-2.064-1.636-2.412-2.157z"/>
        <path fill-opacity=".251" fill-rule="evenodd" d="M175.683 194.536l-46.91-34.623 13.592-8.822zM198.535 109.324l-41.16 30.087-5.002-15.073zM130.697 63.52l15.333 45.4-15.881.1zM60.181 109.87l47.178 14.54-5.962 15.873zM82.885 193.436l32.426-42.015 13.461 8.492z"/>
        <path fill="#fea" fill-rule="evenodd" stroke="#000" stroke-width=".121" d="M117.543 132.12l-3.896-.82c.453-4.256 2.08-8.31 5.701-12.019l1.682 3.405z"/>
        <path fill="#ffe680" fill-rule="evenodd" stroke="#000" stroke-width=".121" d="M137.68 124.033l3.335-2.176c2.689 3.33 4.404 7.347 4.467 12.53l-3.597-1.218z"/>
        <path fill="#fea" fill-rule="evenodd" stroke="#000" stroke-width=".121" d="M140.489 132.749l3.896.82c-.453 4.256-2.08 8.309-5.7 12.018l-1.683-3.404z"/>
        <path fill="#fd5" fill-rule="evenodd" stroke="#000" stroke-width=".121" d="M139.348 122.841l3.076 10.583-9.064-4.676z"/>
        <path fill="#fea" fill-rule="evenodd" stroke="#000" stroke-width=".121" d="M129.001 119.92l.82-3.896c4.256.453 8.309 2.08 12.019 5.701l-3.405 1.682z"/>
        <path fill="#fff6d5" fill-rule="evenodd" stroke="#000" stroke-width=".121" d="M121.054 122.87l-2.176-3.336c3.33-2.688 6.883-3.417 12.066-3.48l-.754 2.61z"/>
        <path fill="#ffe680" fill-rule="evenodd" stroke="#000" stroke-width=".121" d="M120.537 121.824l9.68-3.445-3.076 8.982zM130.343 118.59l9.087 4.207-9.223 4.135z"/>
        <path fill="#fea" fill-rule="evenodd" stroke="#000" stroke-width=".121" d="M126.403 125.024l3.856-6.604 2.748 6.85"/>
        <path fill="#ffe680" fill-rule="evenodd" stroke="#000" stroke-width=".121" d="M116.818 131.937l3.634-10.113 4.873 8.69z"/>
        <path fill="#fd5" fill-rule="evenodd" stroke="#000" stroke-width=".121" d="M138.15 139.729l2.176 3.335c-3.33 2.688-7.346 4.404-12.53 4.467l1.219-3.597z"/>
        <path fill="#ffe680" fill-rule="evenodd" stroke="#000" stroke-width=".121" d="M130.162 144.031l-.82 3.897c-4.256-.453-8.309-2.08-12.018-5.701l3.404-1.682z"/>
        <path fill="#fff6d5" fill-rule="evenodd" stroke="#000" stroke-width=".121" d="M121.706 141.242l-3.335 2.175c-2.689-3.33-4.404-7.346-4.467-12.529l3.597 1.218z"/>
        <path fill="#ffe680" fill-rule="evenodd" stroke="#000" stroke-width=".121" d="M121.355 141.528l-4.594-9.475 9.31 2.708z"/>
        <path fill="#fea" fill-rule="evenodd" stroke="#000" stroke-width=".121" d="M122.821 134.843l-6.152-2.871 6.398-3.733"/>
        <path fill="#fff6d5" fill-rule="evenodd" stroke="#000" stroke-width=".121" d="M122.479 129.665l-1.957-7.883 6.554 3.346"/>
        <path fill="#ffd42a" fill-rule="evenodd" stroke="#000" stroke-width=".121" d="M129.909 144.714l-8.636-3.141 6.762-5.899z"/>
        <path fill="#ffe680" fill-rule="evenodd" stroke="#000" stroke-width=".121" d="M127.586 137.495l-6.242 4.049 1.377-8.318"/>
        <path fill="#ffd42a" fill-rule="evenodd" stroke="#000" stroke-width=".121" d="M138.91 141.038l-9.106 3.815 2.748-8.573z"/>
        <path fill="#fd5" fill-rule="evenodd" stroke="#000" stroke-width=".121" d="M132.458 138.354l-2.584 6.563-4.02-6.809"/>
        <path fill="#ffd42a" fill-rule="evenodd" stroke="#000" stroke-width=".121" d="M142.506 133.468l-3.593 7.57-4.545-7.91z"/>
        <path fill="#fd5" fill-rule="evenodd" stroke="#000" stroke-width=".121" d="M134.768 128.248l7.793 5.209-7.342 1.477"/>
        <path fill="#fd5" fill-rule="evenodd" stroke="#000" stroke-width=".121" d="M135.438 133.713l3.515 7.308-7.374-2.977"/>
        <path fill="#ffe680" fill-rule="evenodd" stroke="#000" stroke-width=".121" d="M131.193 125.513l8.21-2.612-4.125 7.25"/>
        <path fill="#fea" fill-rule="evenodd" stroke="#000" stroke-width=".121" d="M126.275 124.983l-3.969 3.893.173 5.716 3.476 3.725 6.3.046 3.635-3.796.013-5.72-3.057-3.768z"/>
        <path fill="#f95" stroke="#000" stroke-linecap="round" stroke-width=".509" d="M129.138 115.22a16.522 16.68 0 0 0-16.522 16.68 16.522 16.68 0 0 0 16.522 16.68 16.522 16.68 0 0 0 16.524-16.68 16.522 16.68 0 0 0-16.524-16.68zm.04 1.516a14.911 15.054 0 0 1 14.912 15.054 14.911 15.054 0 0 1-14.912 15.055 14.911 15.054 0 0 1-14.913-15.055 14.911 15.054 0 0 1 14.913-15.054z"/>
        <path fill="#fff6d5" d="M126.151 125.915s.116.147.582.313c.43.153 1.074.3 1.408.292.273-.007.711-.057 1.227-.13a34.93 34.93 0 0 0 2.194-.378 8.17 8.17 0 0 0 .721-.18c.094-.03.158-.055.2-.075a.391.391 0 0 0 .065-.038l.003-.004v-.001h-.005a.191.191 0 0 1-.014-.005l-.054-.015a3.516 3.516 0 0 0-.205-.046 12.79 12.79 0 0 0-.728-.12 47.524 47.524 0 0 0-2.206-.244 12.818 12.818 0 0 0-1.23-.067c-.333.008-.969.186-1.391.359-.457.186-.567.338-.567.338z"/>
        <path fill="#fff6d5" d="M127.301 125.364s-.187-.017-.627.208c-.407.208-.955.574-1.179.822-.182.203-.447.557-.748.982a34.936 34.936 0 0 0-1.232 1.854c-.171.281-.289.494-.364.648a1.718 1.718 0 0 0-.083.197.336.336 0 0 0-.016.057c0 .007-.002.013 0 .016v.006h.001l.003-.003.013-.008.049-.029c.038-.024.094-.06.174-.117.14-.098.33-.242.586-.447.485-.388 1.15-.953 1.693-1.436.39-.346.711-.645.893-.848.223-.248.53-.832.695-1.258.178-.46.142-.644.142-.644zM133.689 125.657s.111.077.441.079c.307.002.75-.057.962-.15.257-.113.722-.365 1.26-.671a40.124 40.124 0 0 0 1.63-.97 8.33 8.33 0 0 0 .52-.354c.067-.05.111-.087.14-.114a.365.365 0 0 0 .04-.046v-.003-.001a.002.002 0 0 0 0-.001v.001l-.003.001-.012.003-.046.01c-.038.006-.092.018-.173.038-.14.034-.334.086-.604.163-.5.145-1.185.358-1.807.56-.589.192-1.087.362-1.344.475-.212.093-.555.378-.763.604-.222.243-.242.377-.242.377zM128.098 124.432s.133-.025.368-.256c.218-.216.49-.57.576-.786.102-.26.253-.768.418-1.365.176-.634.355-1.324.469-1.837.061-.274.099-.476.119-.619a1.695 1.695 0 0 0 .016-.227l-.002-.013a.01.01 0 0 0 0-.003h-.001l-.001-.001v.004l-.008.01-.026.04a4.388 4.388 0 0 0-.095.149c-.075.123-.177.297-.312.542-.252.455-.587 1.09-.884 1.673-.282.551-.515 1.023-.618 1.285-.084.215-.125.66-.112.966.013.33.094.438.094.438zM122.217 129.69s-.113-.075-.443-.068c-.307.006-.748.075-.958.174-.254.119-.712.383-1.243.703-.564.339-1.169.717-1.604 1.01a8.326 8.326 0 0 0-.512.367c-.065.052-.108.09-.135.118a.35.35 0 0 0-.04.047l-.001.003v.001l.004-.001a62.228 62.228 0 0 0 2.621-.84c.584-.207 1.078-.39 1.332-.509.21-.098.546-.393.747-.624.216-.248.233-.382.233-.382zM123.46 135.926s-.118.025-.316.231c-.184.193-.41.507-.474.697-.079.23-.188.672-.305 1.194-.125.555-.25 1.157-.326 1.605a6.85 6.85 0 0 0-.074.538 1.4 1.4 0 0 0-.006.155.245.245 0 0 0 .008.056l.001.001v-.001-.002l.006-.01c.005-.006.011-.017.021-.034.018-.028.042-.069.077-.131.06-.109.142-.262.251-.479.202-.4.468-.96.705-1.472.223-.486.408-.901.486-1.13.065-.19.079-.576.052-.841-.029-.284-.106-.377-.106-.377zM136.294 130.387s.006.144.21.417c.191.255.517.581.727.694.254.137.755.35 1.346.59.628.253 1.313.515 1.824.69.273.094.475.155.62.19a1.6 1.6 0 0 0 .18.038c.023.003.04.004.05.003l.014-.001.004-.001v-.001h0l-.003-.003-.01-.008-.036-.031a4.48 4.48 0 0 0-.14-.116c-.116-.093-.28-.218-.514-.388a61.77 61.77 0 0 0-1.595-1.114c-.527-.358-.98-.655-1.234-.791-.21-.113-.662-.204-.98-.222-.34-.02-.464.053-.464.053zM135.326 135.64s-.04.103.022.398c.058.274.19.665.305.85.14.221.431.62.78 1.082.369.49.775 1.014 1.084 1.39.165.2.288.343.378.44a1.867 1.867 0 0 0 .147.14.022.022 0 0 1 .005.003l.004.002h.001l.001.001h.001v-.002l-.002-.005-.002-.006-.014-.039a3.414 3.414 0 0 0-.06-.149c-.052-.12-.13-.29-.242-.525a62.77 62.77 0 0 0-.79-1.573 20.291 20.291 0 0 0-.638-1.17c-.116-.184-.41-.473-.632-.644-.238-.185-.349-.194-.349-.194zM127.944 138.726s-.064.09-.075.392c-.01.28.023.69.09.897.082.25.269.706.495 1.238.24.565.508 1.173.716 1.612.112.234.197.402.261.518a1.85 1.85 0 0 0 .11.172.018.018 0 0 1 .003.005l.003.003h.001l.001.001h.001v-.001-.001a.138.138 0 0 1-.001-.01l-.004-.041a3.602 3.602 0 0 0-.023-.16c-.021-.13-.055-.313-.108-.567a62.773 62.773 0 0 0-.387-1.719 20.292 20.292 0 0 0-.336-1.29c-.067-.205-.284-.557-.457-.776-.186-.237-.291-.272-.291-.272z"/>
        <path fill="#fea" d="M132.78 139.197s-.4.41-.52.685c-.112.258-.355.882-.633 1.606a94.851 94.851 0 0 0-.616 1.645c-.088.243-.148.42-.188.543a3.002 3.002 0 0 0-.055.199.046.046 0 0 0 0 .005c0 .001 0 0 0 0a.006.006 0 0 1 0-.001.06.06 0 0 1 .006-.01l.018-.035c.016-.03.04-.074.073-.14.06-.117.143-.28.258-.514.212-.427.493-1.004.77-1.577.34-.7.628-1.3.741-1.56.12-.274.147-.846.147-.846zM136.771 134.85s.013.573.126.85c.106.261.383.872.706 1.577.267.58.537 1.16.746 1.59.112.233.196.4.257.514a2.971 2.971 0 0 0 .099.174l.004.005.003.003a.018.018 0 0 0 .002.001v-.001l-.001-.001-.001-.004-.002-.005a61.767 61.767 0 0 0-1.435-4.005c-.113-.277-.503-.697-.503-.697zM137.195 128.859s.304.485.543.666c.225.17.774.554 1.412.994.525.362 1.055.723 1.453.987.216.142.374.243.484.31a3.152 3.152 0 0 0 .174.099l.005.002h.004l.001.001h.001l-.002-.001-.003-.002-.004-.004-.03-.027-.12-.104c-.099-.086-.238-.204-.437-.372-.366-.306-.86-.715-1.351-1.12-.6-.494-1.116-.916-1.341-1.087-.24-.181-.789-.343-.789-.343zM126.047 139.361s.1.565.253.822c.144.242.509.804.935 1.452.35.532.706 1.066.976 1.46.147.213.255.365.332.47a3.092 3.092 0 0 0 .124.156l.004.004.003.003h.001a.004.004 0 0 0 .001 0l-.001-.001-.002-.003a61.795 61.795 0 0 0-2.025-3.748c-.153-.258-.602-.614-.602-.614zM121.995 134.95s-.3.488-.355.782c-.052.276-.152.94-.262 1.707a94.54 94.54 0 0 0-.237 1.74c-.032.257-.052.443-.063.572a2.296 2.296 0 0 0-.01.21l.001.001a.006.006 0 0 1 0-.002l.001-.004.001-.006.01-.04c.01-.032.022-.08.04-.152.033-.127.077-.305.139-.558.112-.463.258-1.088.402-1.708.176-.757.325-1.407.377-1.685.056-.294-.044-.858-.044-.858zM121.869 128.25s-.563.107-.818.264c-.24.148-.796.521-1.438.957-.527.358-1.055.721-1.445.997-.211.15-.362.26-.465.339a3.042 3.042 0 0 0-.155.126l-.004.004-.003.003v.002l.001-.001.003-.002a.035.035 0 0 1 .005-.003l.036-.019.14-.073c.116-.062.277-.149.505-.274.418-.23.978-.542 1.534-.854.677-.38 1.257-.708 1.499-.856.255-.157.604-.611.604-.611zM126.324 123.934s.44-.367.587-.628c.138-.245.444-.842.794-1.534.287-.569.573-1.142.78-1.573.112-.233.19-.403.242-.522a3.087 3.087 0 0 0 .074-.185.02.02 0 0 0 .001-.006l.001-.004v-.001-.001l-.001.002-.002.003a.03.03 0 0 0-.003.005l-.022.033-.087.133c-.072.11-.17.264-.31.484-.254.404-.592.948-.926 1.49a61.784 61.784 0 0 0-.896 1.476c-.146.261-.232.828-.232.828zM133.076 123.955s.57.062.86-.013c.272-.071.914-.265 1.655-.493.61-.188 1.22-.38 1.674-.53.246-.082.422-.143.544-.188a3.029 3.029 0 0 0 .185-.076c.002 0 .004-.002.005-.003l.003-.002.001-.001H138l-.004.001-.006.001-.04.007-.155.03c-.129.024-.308.06-.563.113-.467.097-1.094.232-1.717.367-.759.165-1.41.308-1.684.38-.29.075-.757.407-.757.407z"/>
        <path fill="#ffd5d5" d="M129.807 39.94c.057-.617.966-2.428 1.022-3.045.151-1.64.35-5.276.55-9.172.253-4.945.516-10.786.643-12.311-.157 1.887-.836 6.963-1.531 12.23-.514 3.897-.98 7.447-1.134 9.117-.057.617.507 2.564.45 3.18z"/>
    </g>
</svg>
