<svg version="1.1" viewBox="0 0 256 256" xmlns="http://www.w3.org/2000/svg" xmlns:xlink="http://www.w3.org/1999/xlink">
 <path d="m77.53 58.84c-22.29 23.066-39.551 48.075-39.502 79.771 27.836 66.463 62.778 56.537 96.454 60.212 45.725-3.1554 76.397-22.827 85.332-66.348-8.7226-28.236-22.555-53.633-45.063-74.21l-12.464 27.613-67.882 1.5341z" fill="#ffb380"/>
 <path d="m222.26 137.02a71.761 71.76 0 0 1-4.242 16.115c4.4138 2.3658 21.812 11.875 20.784 14.268-0.97509 2.2719-18.101-4.9313-23.88-7.4409-11.645 22.473-37.489 43.035-87.05 42.991-49.532-0.0439-75.373-20.572-87.028-43.001-5.7566 2.4996-22.926 9.7248-23.904 7.4509-1.027-2.3937 16.411-11.923 20.8-14.276a71.763 71.762 0 0 1-4.254-16.109c-5.8026-0.22578-26.489-1.2088-26.287-3.7644 0.1998-2.5216 19.755-3.5126 25.642-3.7544-0.12989-4.6316 0.25176-8.9135 1.037-12.62-5.7326-2.7034-24.813-11.901-23.682-14.167 1.1309-2.2639 20.353 4.8514 26.094 7.0373 3.8784-6.286 36.696-59.322 40.426-59.32 7.5789 0 20.315 33.634 23.98 32.301 3.6646-1.3327 50.688-1.3327 54.353 0 3.6646 1.3327 16.399-32.301 23.978-32.301 3.7305-0.0018 36.548 53.034 40.426 59.32 5.7406-2.1879 24.961-9.3012 26.094-7.0373 1.1309 2.2658-17.951 11.465-23.682 14.167 0.78127 3.7065 1.1669 7.9884 1.039 12.62 5.8845 0.24178 25.44 1.2328 25.64 3.7544 0.19977 2.5536-20.473 3.5387-26.283 3.7665zm-8.3721-10.328c-10.56-33.968-35.916-62.441-36.895-62.441-3.4848-0.0064-8.8118 33.468-13.807 29.472-4.9953-3.9962-66.01-3.9962-71.005 0-4.9953 3.9962-10.322-29.478-13.805-29.472-0.97908 0-29.904 29.472-36.895 62.441-4.236 19.983 20.619 68.645 86.203 67.935 65.584-0.70933 92.269-48.432 86.205-67.935z" fill="#ff8080" stroke="#231f20" stroke-miterlimit="10" stroke-width="2.144"/>
</svg>
