<svg xmlns="http://www.w3.org/2000/svg" cursor="pointer" viewBox="0 0 256 256">
    <g fill-rule="evenodd">
        <path fill="#f9f9f9" stroke="#000" d="M58.922 194.47C5.356 37.032 239.103 38.522 192.14 192.986l6.569 4.385 5-15.357 18.035 2.857c8.423-3.083 8.48-11.674 5.715-18.214 4.448-4.108 4.469-8.215-.357-12.322 6.926-5.844 7.478-13.453 1.785-17.5 5.265-4.084 6.566-17.052.893-19.821 4.536-8.153-1.785-16.247-5.893-16.429 3.86-7.736-1.26-18.676-6.964-18.928.328-10.965-7.82-15.789-13.75-15.893-.446-8.898-5.28-12.197-13.75-10.536-.064-8.741-11.04-10.256-14.107-7.857-4.755-8.674-9.513-9.284-15.179-8.393-5.847-6.332-10.515-6.548-16.428-3.393-4.477-7.594-14.582-6.573-17.857-3.75-3.275-4.915-13.416-7.476-18.929.714-3.233-2.894-9.378-4.493-14.643 3.036-7.014-2.4-14.178-1.12-18.75 8.393-4.414-1.207-13.085 5.206-13.036 10.893-6.843-1.967-14.57 3.86-14.82 11.071-10.1 2.633-10.815 8-10.358 16.965-5.9 3.597-11.015 10.628-10.179 19.642-5.959 6.661-6.864 15.94-2.857 23.929-2.813 6.685-5.311 13.603 1.607 22.321-3.283 2.28-3.268 12.459 2.143 15.893l20.357 34.286z"/>
        <path fill="#ff8080" stroke="#000" d="M36.743 171.657c-12.982-7.66-22.353-9.795-28.57-14.822-5.982 4.309-4.898 7.59-4.644 13.572 7.14 4.433 13.578 9.507 23.929 6.607 6.178-1.653 5.804-.587 9.821-2.857l-.696 1.233s-8.609 5.486-10.95 12.861c-2.158 6.792 4.325 34.834 4.325 34.834 7.898 3.3 15.627-2.764 15.714-6.786-10.835-15.608-9.336-17.869-6.158-35.519z"/>
        <path fill="#f55" stroke="#000" d="M30.136 144.692C18.16 2.867 240.433 7.417 224.065 154.692l-5.536-1.25C235.711 19.243 24.65 3.816 33.708 144.692z"/>
        <path fill="#ececec" stroke="#000" d="M203.708 181.657C228.48 25.245.078 34.162 55.672 196.478l6.607-.893c-51.521-160.388 172.239-151.792 126.072 0l10.535 2.322z"/>
        <path fill="#ff8080" stroke="#000" d="M41.928 213.736c-9.628-14.51-7.213-25.146-2.905-33.587-3.618-1.428-6.19-4.535-1.136-7.45-8.515-.74-11.079-20.754-11.112-32.325 5.149-4.07 17.884-4.105 22.35-.126.395 10.522-2.758 29.505-8.713 32.198 3.455 1.456 4.553 6.042.758 7.703 5.009 4.377 16.022 12.33 22.223 26.516-.244 3.795-16.062 7.938-21.465 7.071zM217.893 185.95c9.965 12.499 22.297 18.555 24.977 19.62 6.7-3.073 9.307-9.91 10.21-15.827-11.344-2.897-13.676-9.77-23.395-9.276-6.382.43-7.456 1.473-11.835 2.926 10.6-9.119 22.949-4.037 34.06-6.491-.293-7.288.802-16.972-4.353-18.977-22.305 5.658-26.377 12.32-30.622 18.538z"/>
        <path fill="#ff8080" stroke="#000" d="M225.898 147.703c-.448 12.695 1.1 18.714-8.016 27.214 5.009-.117 4.477 9.842.641 9.963 6.922 6.313 8.27 16.097 6.069 27.457-5.837 3-16.446 1.334-20.06-3.432 1.643-10.4 3.15-20.224 10.604-24.595-4.46-1.817-4.444-8.175-.275-9.072-9.752-7.155-6.039-12.202-7.976-27.942.972-3.676 13.878-1.486 19.013.407z"/>
        <path d="M48.457 130.153c-4.72.512-8.673-.553-12.717-2.785 3.85 2.504 7.816 3.978 12.79 3.782zM51.224 119.046c-4.509-.545-7.802-4.314-10.938-7.209 2.752 2.982 6.012 7.272 10.78 8.196zM57.74 104.52c-3.024-.086-5.346-1.833-7.302-4.136-1.967-2.317-3.416-4.997-4.849-6.856 1.249 1.889 2.629 4.756 4.46 7.17 1.834 2.418 4.233 4.546 7.634 4.82zM69.994 89.014c-2.654-.816-5.073-2.801-7.186-5.275-2.104-2.461-3.861-5.352-5.223-7.889 1.21 2.607 2.83 5.6 4.835 8.203 1.995 2.59 4.413 4.853 7.252 5.908zM83.574 79.447c-2.775-1.348-4.572-3.6-5.981-6.286-1.413-2.692-2.387-5.716-3.593-8.549 1.036 2.857 1.873 5.988 3.144 8.77 1.274 2.788 3.026 5.33 5.97 6.953zM97.599 73.293c-2.011-5.734-3.987-10.153-5.536-16.008 1.227 5.944 2.9 10.505 4.583 16.312zM114.778 69.371c-.528-4.663-1.715-10.39-2.266-15.113.265 5.262 1.035 10.062 1.27 15.192zM128.28 69.135c1.161-6.338 1.278-9.561 2.445-15.755-1.461 5.983-1.977 9.471-3.424 15.549zM146.144 72.502c1.225-4.264 4.15-10.704 6.284-14.615-2.416 3.735-5.666 10.061-7.234 14.302zM160.116 77.744l.19.463c4.801-2.147 7.968-8.273 9.44-12.596-1.833 4.334-5.233 9.973-9.82 11.67l.19.463zM174.436 87.05c5.213-2.171 9.578-6.085 13.585-9.81-4.277 3.52-8.76 7.074-13.942 8.876zM187.597 100.845c5.416.323 9.282-3.128 12.925-6.307-3.989 3.031-7.826 5.932-12.835 5.31zM196.936 116.67c4.989.943 10.343-1.203 14.95-2.434-4.859.947-10.035 2.678-14.733 1.458zM202.163 130.525l-.138.48c4.737 1.19 9.279-1.008 13.523-2.374-4.533 1.101-8.874 2.846-13.247 1.413l-.138.48zM204.366 144.496c1.945.74 3.835.542 5.638.081 1.515-.387 3.895-1.284 5.417-1.678-2.046.34-3.528.867-5.52 1.189-1.816.293-3.512.275-5.142-.512zM38.162 172.4c-3.16-3.966-3.895-8.268-4.063-13.212-.165 4.872.206 9.425 3.26 13.81zM39.697 172.29c-.885-2.504-.685-5.798-1.179-8.683.14 2.711-.364 6.301.217 8.953zM42.54 171.17c1.413-6.787.976-13.888 1.66-20.695-1.033 6.914-.903 13.787-2.633 20.469zM39.585 179.83c-.193 2.188-.649 3.441-.868 5.557-.191 1.848-.044 3.661 1.064 5.62-.953-2.023-.912-3.81-.57-5.546.311-1.569 1.048-3.677 1.366-5.5zM40.817 180.45c3.422 3.443 4.099 8.303 4.267 13.083.165-4.658-.124-9.843-3.533-13.763zM35.447 177.857c-3.49 5.705-4.104 12.324-4.126 18.707.357-6.447 1.326-12.84 4.966-18.164zM34.983 174.845l.185-.464c-2.856-.96-5.412.164-7.888.97 2.733-.528 5.08-1.194 7.518-.041l.185-.465zM36.665 172.985c-1.198-.244-2.32-.672-3.576-1.044 1.065.651 2.117 1.415 3.242 1.987zM216.805 175.429c-.362-5.892-1.994-10.607-.69-16.052-1.638 5.404-.335 10.297-.31 16.085zM213.875 174.467l.418-.274c-1.249-1.605-2.24-4.248-2.47-6.292-.102 2.05.559 4.892 1.633 6.839l.419-.273zM218.387 175.075c.656-2.36 1.012-5.427.949-7.806-.27 2.372-.958 5.324-1.892 7.473zM215.844 184.17c-.333 2.518-1.063 3.372-1.859 4.98-.784 1.582-1.504 3.705-1.72 8.613.383-4.908 1.27-6.944 2.157-8.37.878-1.41 1.88-2.382 2.408-5.059z"/>
        <path d="M216.723 184.334c-.137 2.441.671 4.27 1.507 5.858.836 1.587 1.744 3.01 1.926 4.699-.017-1.728-.788-3.252-1.473-4.911-.686-1.662-1.245-3.375-.964-5.556zM220.648 184.497c2.812-.365 4.599-1.023 6.515-1.146 1.82-.117 3.608.3 5.936 2.227-2.211-2.045-3.988-2.68-5.945-2.727-1.875-.046-4.036.478-6.605.651zM221.03 188.033c3.39-.525 5.591-.022 8.281 2.217-2.456-2.477-4.676-3.435-8.387-3.212zM222.073 179.5c2.805-4.058 6.755-4.928 11.72-5.097-4.84-.164-9.202.307-12.523 4.5zM220.002 175.253c2.123-3.416 4.713-5.092 8.678-6.216-4.007.79-6.95 2.194-9.505 5.653z"/>
    </g>
</svg>
