<svg cursor="pointer" version="1.1" viewBox="0 0 256 256" xmlns="http://www.w3.org/2000/svg">
 <g stroke="#000">
  <g transform="translate(0 -796.36)">
   <g fill="#f9f9f9" stroke-width=".75">
    <path d="m76.187 1025c-12.295-2.167-49.059 0.733-43.004-13.743-43.445-6.164-3.491-19.455 20.732-19.547l93.59-0.356c33.246-1.904 122.04 8.902 89.325 25.471 26.606 7.762-10.43 19.764-40.872 11.491l-26.063-0.829c-21.953 12.19-99.578 9.911-93.708-2.488z" fill-rule="evenodd"/>
    <g stroke-linecap="round" stroke-linejoin="bevel">
     <ellipse cx="61.888" cy="1030.4" rx="6.869" ry="2.429"/>
     <ellipse cx="160.74" cy="1044.1" rx="6.869" ry="2.429"/>
     <ellipse cx="179.5" cy="1042.2" rx="9.551" ry="3.938"/>
     <ellipse cx="157.55" cy="1037.4" rx="5.119" ry="1.685"/>
    </g>
   </g>
   <g transform="translate(321.44 85.375) scale(.9025)">
    <g fill-rule="evenodd">
     <path d="m-243.45 803.74c-7.313 4.425-17.641 7.54-20.298 15.125-1.933 5.515 4.045 8.188 9.187 10.634l0.378-0.631c-2.73-3.37-8.62-2.898-7.545-9.246 1.086-6.408 11.996-10.646 19.036-14.366z" fill="#ccc"/>
     <path d="m-246.6 815.61-0.127-12.627c-0.057-5.748 8.613-4.04 9.47 0l2.652 12.5z" fill="#b3b3b3"/>
     <path d="m-270.72 1016.8c19.607 29.06 115.28 18.535 120.96 0.758l1.768-136.62-124.44 0.19z" fill="#ccc"/>
     <path d="M-272.489 880.889l17.425-33.083 89.399.253 17.588 32.65c-25.888 11.871-91.975 16.795-124.412.18z" fill="#e6e6e6"/>
     <path d="M-251.25 816.47v7.32l81.071.18 1.518-7.322c-12.128-3.737-54.835-5.309-82.589-.179z" fill="#666"/>
     <path d="M-254.811 849.574c.253-1.01-.253-30.305-.253-30.305a382.773 382.773 0 0 0 88.894 0l.252 29.8c-29.48 5.632-65.53 3.635-88.893.505z" fill="#ccc"/>
    </g>
    <path d="m-210.62 812.74a47.39 4.98 0 0 0-47.39 4.98 47.39 4.98 0 0 0 47.39 4.978 47.39 4.98 0 0 0 47.39-4.978 47.39 4.98 0 0 0-47.39-4.98zm0.268 1.722a40.69 2.9 0 0 1 40.691 2.9 40.69 2.9 0 0 1-40.691 2.9 40.69 2.9 0 0 1-40.692-2.9 40.69 2.9 0 0 1 40.692-2.9z" fill="#e6e6e6" stroke-linecap="round" stroke-linejoin="bevel" stroke-width=".791"/>
    <path d="M-187.762 827.603c.897 6.712 14.74 2.617 14.9.379 1.502-1.726 2.007-3.451 2.525-5.177l.126-12.248c.055-5.302-9.484-8.665-10.101-.126l-.758 10.48c-1.557 2.736-3.788 4.967-6.692 6.692z" fill="#ccc" fill-rule="evenodd"/>
    <path d="M-263.304 822.809c-5.128 2.589-3.286 5.446-1.607 8.035l26.965 4.732.755-4.754.762-4.8z" fill="#e9c6af" fill-rule="evenodd"/>
    <ellipse cx="-236.56" cy="831.02" rx="3.973" ry="4.821" fill="#deaa87" stroke-linecap="round" stroke-linejoin="bevel" stroke-width=".75"/>
    <ellipse cx="-174.96" cy="811.96" rx="2.871" ry="2.826" fill="#808080" stroke-linecap="round" stroke-linejoin="bevel"/>
    <path d="M-236.432 831.866c23.931.732 42.413-7.985 63.04-18.34 1.763-1.25 1.23-3.699-.727-3.714-19.363 11.631-38.249 18.342-61.897 19.735-2.045.773-1.142 1.546-.416 2.32z" fill="#ccc" fill-rule="evenodd"/>
    <ellipse cx="-242.05" cy="804.06" rx="2.054" ry="1.964" fill="#666" stroke-linecap="round" stroke-linejoin="bevel" stroke-width=".75"/>
   </g>
  </g>
  <path d="m179.66 71.501v-15.751l33.578-23.134 35.007 22.1v16.906l-34.99-23.367z" fill="#ffb380" fill-rule="evenodd" stroke-width="1.727"/>
  <path d="m180.26 46.045v-15.752l33.578-23.133 35.008 22.1v16.906l-34.99-23.367zm-0.242 50.901v-15.752l33.578-23.134 35.007 22.1v16.906l-34.99-23.367z" fill="#ffb380" fill-rule="evenodd" stroke-width="1.727"/>
 </g>
</svg>
