<svg xmlns="http://www.w3.org/2000/svg" cursor="default" viewBox="0 0 256 256">
    <path fill="#ff8080" fill-rule="evenodd" stroke="#000" stroke-linecap="round" stroke-linejoin="round" stroke-width=".88" d="M308.76 948.452c4.16-2.24-1.144.808 5.199-17.404 4.158-11.94-4.96-17.164-4.96-17.164 7.344.35 15.33 8.54 17.415 17.19 1.404 5.827 1.786 11.218-.854 18.418 5.12-10.96 11.68-11.2 13.12-17.76 8.8 8.56-1.84 14.24-5.52 20.88 11.04 1.44 16.4-18.16 30.64-13.68-8.88 6.8-2.08 16.24-21.52 23.28 7.44-1.12 15.2-5.6 21.76.8-10.96 4.48-17.2 6.24-17.92 11.2 0 0 4.72 2.96 14.72-1.36 6.24-2.64 17.52.72 19.68 6-4.88-1.52-15.6.4-20.24 5.84-3.28 4-15.76 0-15.76 0 6.48 3.68 15.2 4.16 16.64 14.72-11.2-7.52-16.08-5.2-21.6-3.76 0 0 2.32 4.88 13.44 9.2 10.4 4 7.6 14.64 7.6 14.64s-5.76-5.84-15.36-8.08c-10.72-2.48-11.68-9.92-11.68-9.92.64 7.12 4.16 13.36-2.08 22.72-1.6-7.92-4.4-14.8-9.28-19.68 0 0-2.96 6.32.24 15.36 4.32 12-5.36 18.72-5.36 18.72s.48-9.68-4.48-16.8c-5.12-7.36-1.36-16.96-1.36-16.96-6.08 5.2-11.76 10.56-13.6 16.88-4.88-3.36-4-10.48 2.56-21.28 0-.16-4.64-.24-8.56 10.16-4.16 10.72-19.36 11.28-18.56 9.68 1.76-5.92 7.52-5.52 10-17.04 1.2-5.92 9.12-11.44 9.12-11.44-7.6-1.52-13.76-.24-20 .88 1.12-3.76.56-7.68 16.96-10 .56-4.4-9.44-2.96-15.36.24-5.36 2.8-13.2.88-18.32-6.4 0 0 8.72 2 11.84-.96 7.04-6.8 14.48-8.88 22-5.68-3.44-11.04-14.72-6.64-15.52-14.8 5.76-4.24 17.52 7.84 21.44 4-1.04-2.4-3.28-7.28-10.8-8.24-6.88-.96-10.24-10.96-10-17.36 6 4.4 6.24 7.44 15.12 9.12 6.32 1.2 8.72 5.28 12.48 8.48 3.84-6.72.72-12.48-1.28-21.28 5.44 1.44 8.64 6.72 8 18.64z" transform="matrix(-1.93467 -.00658 .0031 1.94035 739.77 -1764.365)"/>
    <path fill="#faa" stroke="#000" stroke-linecap="round" stroke-linejoin="round" stroke-width=".88" d="M348.6 977.012c0 16.96-13.92 30.72-31.2 30.72-17.2 0-31.12-13.76-31.12-30.72s13.92-30.72 31.12-30.72c17.28 0 31.2 13.76 31.2 30.72z" transform="matrix(-1.93467 -.00658 .0031 1.94035 739.77 -1764.365)"/>
    <path fill="#f95" stroke="#000" stroke-linecap="round" stroke-width=".8" d="M342.28 977.172c0 14.08-11.36 25.52-25.28 25.52-14 0-25.28-11.44-25.28-25.52s11.28-25.52 25.28-25.52c13.92 0 25.28 11.44 25.28 25.52z" transform="matrix(-1.93467 -.00658 .0031 1.94035 739.77 -1764.365)"/>
    <path fill="#ffe6d5" stroke="#000" stroke-linecap="round" stroke-width=".72" d="M340.36 977.492c0 12.72-10.24 23.04-22.8 23.04-12.64 0-22.8-10.32-22.8-23.04 0-12.72 10.16-23.04 22.8-23.04 12.56 0 22.8 10.32 22.8 23.04z" transform="matrix(-1.93467 -.00658 .0031 1.94035 739.77 -1764.365)"/>
    <path fill="#ffb380" fill-rule="evenodd" stroke="#000" stroke-width=".48" d="M312.2 987.732c.16.32-.4 11.92-.4 11.92 3.52 1.04 7.04.88 10.48.16l-1.52-12.16z" transform="matrix(-1.93467 -.00658 .0031 1.94035 739.77 -1764.365)"/>
    <path fill="#fca" fill-rule="evenodd" stroke="#000" stroke-width=".48" d="M326.04 982.212l13.6.16c.4-3.28 1.12-6.48-.08-10l-13.76 1.28z" transform="matrix(-1.93467 -.00658 .0031 1.94035 739.77 -1764.365)"/>
    <path fill="#ffb380" fill-rule="evenodd" stroke="#000" stroke-width=".48" d="M321.64 966.772l.24-11.68c-3.36-.56-6.24-.48-8.88.08l-.48 11.36z" transform="matrix(-1.93467 -.00658 .0031 1.94035 739.77 -1764.365)"/>
    <path fill="#ffe6d5" fill-rule="evenodd" stroke="#000" stroke-width=".48" d="M306.44 982.052l-11.04.32c-.64-3.28-.72-6.64-.08-10.16l10.72-.08z" transform="matrix(-1.93467 -.00658 .0031 1.94035 739.77 -1764.365)"/>
    <path fill="#ffe6d5" fill-rule="evenodd" stroke="#000" stroke-width=".48" d="M312.44 966.372l-6.56 5.6.48 10.08 5.36 5.6h9.68l4.72-4.96-.16-10.16-3.84-6.16z" transform="matrix(-1.93467 -.00658 .0031 1.94035 739.77 -1764.365)"/>
    <path fill="#fca" fill-rule="evenodd" stroke="#000" stroke-width=".48" d="M311.8 987.892c.4-.32 4.4-9.36 4.4-9.36l-9.68 3.44-7.76 8.24c1.52 2.16 2.96 4.32 6.16 6z" transform="matrix(-1.93467 -.00658 .0031 1.94035 739.77 -1764.365)"/>
    <path fill="#ffb380" fill-rule="evenodd" stroke="#000" stroke-width=".48" d="M316.52 978.292c0-.16 5.2-11.76 5.2-11.76l5.92-9.52c4.16 2.32 7.52 5.2 9.52 8.96l-11.44 6.72z" transform="matrix(-1.93467 -.00658 .0031 1.94035 739.77 -1764.365)"/>
    <path fill="#fca" fill-rule="evenodd" stroke="#000" stroke-width=".48" d="M316.36 978.292c-.24-.08-10.56-6.48-10.56-6.48l-6.32-8.32c2.16-2.24 4-4.72 7.52-6.16l5.6 9.12z" transform="matrix(-1.93467 -.00658 .0031 1.94035 739.77 -1764.365)"/>
    <path fill="#ffb380" fill-rule="evenodd" stroke="#000" stroke-width=".48" d="M316.76 978.692l4.08 8.56 8.16 10c3.36-2 5.92-4.56 7.52-7.44l-10.8-7.68z" transform="matrix(-1.93467 -.00658 .0031 1.94035 739.77 -1764.365)"/>
    <path fill="#fff" fill-rule="evenodd" d="M159.495 101.61a91.048 91.048 0 0 0-5.402 8.985c-1.39 2.168-2.315 4.183-3.704 6.817-.774-.468-1.394-.936-2.169-1.25.155.157-2.015-2.024-1.86-1.713 2.164-2.166 3.709-3.713 5.718-5.413 2.01-1.856 4.173-4.022 7.417-7.426zM133.781 87.863c.623 2.02 1.246 4.816 1.87 7.767 0-.31-.152 1.707-.152 1.397a134.355 134.355 0 0 1-1.223 9.62c-.469-2.796-1.095-6.834-1.563-9.63 0-.31-.156-.776-.157-1.242.46-2.948.765-5.74 1.225-7.912zM169.9 123.222c-2.322-.163-5.264-.794-8.05-1.58-.156 0-.465-.001-.62-.157-2.785.456-5.57.757-7.737 1.37 2.168.629 4.8 1.414 7.433 2.199.31.001.464-.154.774-.153 2.94-.3 6.034-.755 8.2-1.68zM133.886 153.058c.31.932.777 2.331 1.244 4.04.312 1.088.623 2.486.935 3.729-.154.465-.153.93-.307 1.396-.152 1.707-.459 3.568-.766 5.12-.307 1.55-.614 2.947-.922 4.032-.311-1.087-.623-2.485-.935-4.039-.312-1.553-.625-3.417-1.092-5.126 0-.155-.157-1.242-.157-1.242.308-1.396.46-2.793.768-3.878.462-1.706.769-3.102 1.232-4.032zM105.582 164.914c.617-.93 1.544-2.323 2.624-4.027a73.22 73.22 0 0 0 3.242-5.111 66.967 66.967 0 0 0 3.243-4.956c-1.39 2.168 2.778-4.337 1.389-2.169.155-.155.309-.465.463-.62.774.159 1.549.316 2.323.474.31.778.621 1.555.777 2.331l-.463.464c-.464.465-1.082.928-1.7 1.702-1.236 1.238-2.627 2.785-4.172 4.177-1.39 1.548-2.936 3.095-4.172 4.487a52.68 52.68 0 0 1-3.554 3.248zM158.808 155.471c-2.327-3.423-4.964-6.847-6.98-9.648-.466-.777-.931-1.4-1.397-2.022-.465-.468-1.084-.78-1.55-1.247-.464-.312-.929-.625-1.239-.78-.464-.158-.62-.313-.929-.47 0 .31.156.622.311.933.156.466.311.932.621 1.399.31.622.621 1.089 1.087 1.866.465.468 1.085.935 1.705 1.558 2.48 2.337 5.58 5.297 8.37 8.411zM119.115 110.631l.773-.308c2.33 5.13 1.709 4.042 4.815 10.882 1.243 2.799 3.883 8.396 3.883 8.24-.776-1.4-2.173-3.732-4.656-7.777-2.483-4.199-4.5-7.931-5.589-10.73zM86.943 123.716c1.393.16 3.251.477 5.109.793 2.013.473 4.18.79 6.347 1.264 2.168.473 4.49.946 6.658 1.264h.154c2.167-.302 4.023-.762 5.725-1.377-1.549-.626-3.562-1.409-5.42-2.191l-.155.154c-2.167-.007-4.489-.17-6.656-.178-2.167-.007-4.488-.17-6.5-.022-2.012-.006-3.87-.013-5.262.293z"/>
</svg>
