<svg cursor="default" version="1.1" viewBox="0 0 256 256" xmlns="http://www.w3.org/2000/svg" xmlns:xlink="http://www.w3.org/1999/xlink">
 <defs>
  <linearGradient id="innoGrad1">
   <stop stop-color="#f55" offset="0"/>
   <stop stop-color="#ff8080" offset="1"/>
  </linearGradient>
  <linearGradient id="linearGradient961" x1="-153.54" x2="-163.96" y1="1056.5" y2="1045.1" gradientTransform="matrix(.9025 0 0 .9025 260.68 -718.96)" gradientUnits="userSpaceOnUse" xlink:href="#linearGradient4226"/>
  <linearGradient id="linearGradient971" x1="-184.6" x2="-184.98" y1="813.21" y2="823.82" gradientTransform="matrix(.9025 0 0 .9025 260.68 -718.96)" gradientUnits="userSpaceOnUse" xlink:href="#linearGradient4226"/>
  <linearGradient id="linearGradient971-0" x1="-184.6" x2="-184.98" y1="813.21" y2="823.82" gradientTransform="matrix(.8844 -.17985 .17985 .8844 196.97 -736.48)" gradientUnits="userSpaceOnUse" xlink:href="#linearGradient4226"/>
  <linearGradient id="linearGradient961-7" x1="-153.54" x2="-164.17" y1="1056.5" y2="1043.1" gradientTransform="matrix(.80454 .40893 -.40893 .80454 685.2 -569.31)" gradientUnits="userSpaceOnUse" xlink:href="#linearGradient4226"/>
  <linearGradient id="linearGradient1105" x1="4.7196" x2="230.08" y1="975.03" y2="938.39" gradientTransform="translate(0,-796.36)" gradientUnits="userSpaceOnUse" xlink:href="#innoGrad1"/>
  <linearGradient id="linearGradient1113" x1="35.836" x2="133.75" y1="1018.2" y2="994.57" gradientTransform="translate(0,-796.36)" gradientUnits="userSpaceOnUse" xlink:href="#innoGrad1"/>
  <linearGradient id="linearGradient4226">
   <stop stop-color="#ff2a2a" offset="0"/>
   <stop stop-color="#ff8080" offset="1"/>
  </linearGradient>
  <linearGradient id="linearGradient1094" x1="169.59" x2="205.19" y1="22.661" y2="19.018" gradientUnits="userSpaceOnUse" xlink:href="#linearGradient4226"/>
  <linearGradient id="linearGradient880">
   <stop stop-color="#ff8080" offset="0"/>
   <stop stop-color="#ff8080" offset=".18838"/>
   <stop stop-color="#faa" offset=".79255"/>
   <stop stop-color="#faa" offset="1"/>
  </linearGradient>
  <linearGradient id="linearGradient870" x1="109.73" x2="141.34" y1="135.14" y2="135.14" gradientTransform="rotate(47.061 151.5 167.86)" gradientUnits="userSpaceOnUse" xlink:href="#linearGradient880"/>
  <linearGradient id="linearGradient888" x1="162.6" x2="172.86" y1="149.77" y2="149.77" gradientTransform="matrix(-.99914 -.04151 -.04151 .99914 240.44 -16.546)" gradientUnits="userSpaceOnUse" xlink:href="#linearGradient880"/>
  <linearGradient id="linearGradient896" x1="130.78" x2="171.64" y1="13.23" y2="13.23" gradientTransform="rotate(-5.55 238.52 -223.33)" gradientUnits="userSpaceOnUse" xlink:href="#linearGradient880"/>
  <linearGradient id="linearGradient904" x1="130.02" x2="172.76" y1="14.527" y2="14.527" gradientTransform="rotate(-5.55 238.52 -223.33)" gradientUnits="userSpaceOnUse" xlink:href="#linearGradient880"/>
  <linearGradient id="linearGradient912" x1="105" x2="91.126" y1="31.495" y2="27.441" gradientTransform="rotate(160.36 101.72 27.302)" gradientUnits="userSpaceOnUse" xlink:href="#linearGradient4226"/>
  <linearGradient id="linearGradient1401" x1="86.556" x2="112.3" y1="23.406" y2="24.173" gradientUnits="userSpaceOnUse" xlink:href="#linearGradient4226"/>
 </defs>
 <g fill-rule="evenodd" stroke="#000" stroke-width=".902">
  <path d="m64.05 13.376c1.45 15.815 59.489 26.126 57.387 3.077 0.538-4.399-60.396-5.446-57.387-3.077z" fill="url(#linearGradient971)"/>
  <path d="m112.71 224.21c1.81 4.807 19.144-9.417 26.434-8.635 2.914 0.595 3.252-5.485-0.335-10.405-15.346-1.018-31.287 9.892-26.099 19.04z" fill="url(#linearGradient961-7)"/>
  <path d="m109.86 247.83c3.792 3.465 11.331-15.555 18.184-18.161 2.868-0.79 0.807-8.736-3.545-10.637-14.141 6.046-23.409 22.995-14.638 28.799z" fill="url(#linearGradient961)"/>
  <path d="m151.63 19.38c4.574 15.21 55.402 13.27 55.437-7.448-0.193-3.328-56.877 5.565-55.437 7.448z" fill="url(#linearGradient971-0)"/>
  <path d="m207.07 11.935c2.42 23.803 5.716 50.633-10.049 64.63-4.837 4.296-7.441 5.982-9.67 9.993-18.184 32.74-53.121 87.236-52.699 97.663 0.37 9.135 2.543 17.3 6.14 24.53-8.415-6.557-24.288 5.159-24.653 16.685-5.234-2.65-8.7-5.937-12.494-13.05 12.061-15.634 4.046-32.162-0.34-36.643 11.04-12.293 15.048-20.515 20.673-47.145 6.04-28.59 12.808-51.966 33.881-67.181-0.196-14.338-2.25-28.306-6.226-42.034-0.346 2.531 55.46-3.982 55.437-7.448z" fill="url(#linearGradient1105)"/>
 </g>
 <path d="m138.76 206.27c-7.2038-4.6853-15.926 1.5693-19.836 7.0582 4.0336-8.4394 16.189-11.912 19.836-7.0582z" fill="#ffd5d5" opacity=".216"/>
 <g stroke="#000">
  <path d="m64.05 13.376c2.32 3.95 55.189 7.685 57.387 3.077-0.665 45.5-14.871 52.09-18.817 79.076-4.696 32.121-0.9 69.221 1.14 91.394 0.423 4.602 5.603 15.925 7.407 18.233 1.323 1.692 10.334 8.65 15.562 15.447-4.852-2.214-18.124 16.931-16.868 27.228-6.238-3.486-11.685-7.006-11.685-7.006-0.457-0.246-0.94-0.468-1.442-0.67 12.587-24.108-10.714-36.199-17.158-36.635 0.111-1.317 0.72421-2.7826 0.67703-4.5467-4.66-24.378-31.531-72.171-13.974-120.81 5.489-15.207-0.531-42.708-2.23-64.784z" fill="url(#linearGradient1113)" fill-rule="evenodd" stroke-width=".902"/>
  <path d="m65.356 25.329c14.941 7.014 41.218 7.92 55.384 3.418" fill="none" stroke-width=".451"/>
  <path d="m154.02 28.296c21.2 1.597 41.41-2.629 54.284-6.85" fill="none" stroke-width=".451"/>
 </g>
 <path d="M157.829 60.866l-.426.031c.079 1.078.312 3.301.432 4.227.196 1.51.301 1.726.475 2.682-.13-.72-.11-1.44-.048-2.7.065-1.318.101-2.789-.007-4.271l-.426.031z"/>
 <path d="m207.07 11.932 0.89802 9.5479c-18.42 5.2647-36.289 8.5499-53.945 6.8161l-2.39-8.916c-0.346 2.531 55.46-3.982 55.437-7.448z" fill="url(#linearGradient1094)" fill-rule="evenodd" stroke="#000" stroke-width=".902"/>
 <path d="m64.049 13.376c2.32 3.95 55.189 7.685 57.387 3.077l-0.696 12.294c-15.517 2.786-30.896 5.7563-55.384-3.418l-1.308-11.953z" fill="url(#linearGradient1401)" fill-rule="evenodd" stroke="#000" stroke-width=".902"/>
 <style>svg { cursor: default; }</style>
 <style>svg { cursor: default; }</style>
 <path d="m131.16 105.88c8.4742-29.947 20.22-38.121 26.6-43.985-11.75 13.185-17.202 19.408-26.6 43.985z" fill="#f55" opacity=".9"/>
 <g>
  <path d="m194.57 77.809c-5.9128-0.08674-7.7617-0.4029-12.244-4.6259-1.3254 1.3344 0.59602 1.873 1.2312 3.0399 1.2959 2.3808 1.651 3.3363 4.449 3.2948-0.86654 0.83273-1.8272 4.771-1.758 5.301 3.0078-1.7156 5.8428-5.1047 8.3213-7.0098z" fill="#f55" opacity=".49"/>
  <path d="m69.577 159.42-1.2066-4.4605c-2.9835-15.839-5.2682-26.589-6.5173-42.224-0.01719-7.2175 0.88054-16.342 3.2342-22.151-0.73376 5.5456-2.7423 10.954-2.3471 22.788 0.90005 17.107 3.9305 28.453 6.8368 46.048z" fill="url(#linearGradient888)" opacity=".693"/>
  <path d="m137.66 166.87 35.14-60.575c4.98-7.9022 5.7264-15.528 5.09-20.032-0.72557 3.7474-0.65325 12.241-4.6877 17.64-5.9189 8.5234-5.4976 9.4096-11.435 19.332z" fill="url(#linearGradient870)"/>
 </g>
 <g fill="#faa">
  <path d="m75.203 32.063c-1.8665 1.0085-2.8006 1.6278-3.7261 1.6516-1.4498 0.03727-2.0544-0.45404-3.8976-0.58599 1.5206-0.81509 2.8645-1.5076 4.1027-1.5608 1.0831-0.04658 1.6928 0.23527 3.521 0.49519z" opacity=".753"/>
  <path d="m71.387 35.846c-1.0908 0.5124-1.0319 1.022-2.1024 1.6715 1.2065-0.01199 0.96498 0.67023 2.1518 0.56047 1.4485-0.38893 0.50443-0.51227 1.7987-1.3029-1.2925-0.13317-0.65361-0.73061-1.8482-0.929z" opacity=".784"/>
  <path d="m72.344 39.08c-0.51824 0.39821-0.95536 0.35263-1.5947 0.31576 0.88184 17.596 1.1144 21.442-0.49502 38.421 2.6933-16.376 1.2443-21.173 2.0897-38.737z" opacity=".578"/>
  <path d="m193.79 60.234c-2.4132-1.7339-9.1032-0.79667-11.149 3.8146 0.78177-0.68603 3.4728-2.696 4.7736-3.2706 2.3194-1.0245 3.6959-0.59325 6.375-0.54405z" opacity=".372"/>
 </g>
 <path d="m205.38 14.168c-20.253 5.3879-48.914 7.0915-52.556 6.4769-0.49749 0.56879 0.90307 3.8951 1.3178 6.0415-0.27117-1.9976-1.3198-5.2508-0.89223-5.8211 1.4205 0.75607 34.646-1.9602 53.215-7.4769z" fill="url(#linearGradient904)" opacity=".524"/>
 <path d="m108.82 73.603c-6.7016 6.1876-11.831 6.3569-19.892 4.2389-0.71143 2.444 3.603 2.8109 4.6291 4.2875 1.3857 1.994 6.2116-0.77706 8.4341-0.48673-2.2268 3.7611-2.8085 5.9151-6.6431 13.083 2.702-3.5464 5.3348-8.0265 6.2755-9.0333 3.84-5.2436 6.5528-10.068 7.196-12.09z" fill="#f55" opacity=".459"/>
 <path d="m92.122 63.71c-0.5253-3.0016 6.6133-6.2174 10.51-4.7398-0.65094 0.12076-3.8504 0.10005-6.1071 1.212-2.5378 1.2504-3.4393 2.508-4.4029 3.5278z" fill="#faa" opacity=".314"/>
 <path d="m194.9 19.308c-10.85 0.22011-29.883 1.4557-40.778 2.87 10.328-1.7972 32.591-3.3588 40.778-2.87z" fill="url(#linearGradient896)"/>
 <path d="m71.046 25.441c11.653 3.7447 31.721 6.586 43.849 2.1859-10.925 5.1635-36.351 1.2915-43.849-2.1859z" fill="url(#linearGradient912)"/>
 <style>svg { cursor: default; }</style>
 <path d="m124.5 219.03c-10.43 4.8317-15.693 17.916-16.393 25.41-0.99176-9.4151 9.5807-24.469 16.393-25.41z" fill="#ffd5d5" opacity=".203"/>
 <g fill="#faa">
  <path d="m160.76 31.756c2.8489-0.10091 3.9961 1.3779 5.7641 2.2804-2.2764-0.08472-5.2037-0.67835-5.5572 0.74034-0.89797-1.769-3.5398-0.7207-5.409-0.92058 1.7149-1.2767 3.4442-2.1187 5.2021-2.1002z" opacity=".517"/>
  <path d="m160.4 35.662c1.9177-0.24283 2.5674 0.89564 3.7065 1.5009-1.7658-0.50846-3.1643-1.1103-3.6206 0.40853-0.53289-1.6113-2.1246-0.32954-3.4184-0.58698 0.96439-0.58458 1.7552-1.3395 3.3326-1.3225z" opacity=".517"/>
  <path d="m159.26 37.744c1.2519 4.8244 1.8905 1.5985 2.6358-0.2275-0.76143 8.6644-0.53503 19.095-0.61918 28.971-0.43534-10.311-0.58341-21.506-2.0166-28.743z" opacity=".517"/>
 </g>
 <path d="m81.64 201.16c3.7705 3.3432 6.1225 2.3739 8.0844-0.80898 0.26822 2.3406-1.7576 3.9283-3.912 3.4781 3.8129 2.1736 7.8786 4.0103 9.8666 8.6171-2.714-3.2036-6.0994-5.4374-9.6183-7.4784-3.1069-1.3358-3.6132-2.8943-4.4207-3.8079z" fill="#f55" opacity=".432"/>
 <path d="m90.946 204.43c1.3422-0.79446 3.0073-0.62406 3.4575 1.7279-0.24348-0.26525-1.0478-0.876-1.4432-1.1291-0.70499-0.45134-1.1293-0.49396-2.0143-0.59883z" fill="#faa" opacity=".169"/>
 <path d="m100.66 159.58c-2.8056-33.673-1.6192-55.416 1.4353-63.526-2.7879 16.522-2.6241 36.265-1.4353 63.526z" fill="#f55" opacity=".9"/>
</svg>
