<svg cursor="default" version="1.1" viewBox="0 0 256 256" xmlns="http://www.w3.org/2000/svg" xmlns:xlink="http://www.w3.org/1999/xlink">
 <defs>
  <linearGradient id="innoGrad2">
   <stop stop-color="#fd5" offset="0"/>
   <stop stop-color="#ffe680" offset="1"/>
  </linearGradient>
  <linearGradient id="linearGradient912" x1="86.237" x2="91.797" y1="41.22" y2="37.288" gradientUnits="userSpaceOnUse" xlink:href="#innoGrad2"/>
  <linearGradient id="linearGradient914" x1="81.288" x2="89.695" y1="38.644" y2="33.559" gradientTransform="translate(.84746 .61017)" gradientUnits="userSpaceOnUse" xlink:href="#innoGrad2"/>
  <linearGradient id="linearGradient922" x1="79.797" x2="89.017" y1="33.695" y2="29.356" gradientTransform="translate(.88136 2.0339)" gradientUnits="userSpaceOnUse" xlink:href="#innoGrad2"/>
  <linearGradient id="linearGradient922-3" x1="79.797" x2="89.017" y1="33.695" y2="29.356" gradientTransform="matrix(.9364 -.35092 -.35092 -.9364 78.658 286.76)" gradientUnits="userSpaceOnUse" xlink:href="#innoGrad2"/>
  <linearGradient id="linearGradient914-3" x1="81.288" x2="89.695" y1="38.644" y2="33.559" gradientTransform="matrix(.9364 -.35092 -.35092 -.9364 78.778 287.77)" gradientUnits="userSpaceOnUse" xlink:href="#innoGrad2"/>
  <linearGradient id="linearGradient912-7" x1="86.237" x2="91.797" y1="41.22" y2="37.288" gradientTransform="matrix(.9364 -.35092 -.35092 -.9364 78.179 288.94)" gradientUnits="userSpaceOnUse" xlink:href="#innoGrad2"/>
  <linearGradient id="linearGradient984" x1="105.28" x2="202.69" y1="154.75" y2="114.1" gradientUnits="userSpaceOnUse">
   <stop stop-color="#f95" offset="0"/>
   <stop stop-color="#ffb380" offset="1"/>
  </linearGradient>
 </defs>
 <g stroke="#000">
  <path d="m83.9 44.947-61.549 99.437c3.414 3.723 81.528 58.157 118.8 84.68l1.1222-2.4778-117.91-82.569c0.089-0.285 43.786-67.532 62.244-97.881z" fill="#ffe680" stroke-width=".75"/>
  <path d="m74.656 22.313c3.1687 9.121 6.7456 17.803 8.747 22.284 1.642 6.619 7.0348 13.704 38.965 25.16 28.533 10.238 45.318 22.362 53.677 35.584 5.077 16.635 7.6206 34.466-10.338 61.463-29.878 44.915-25.941 56.797-24.651 70.09 0.58717 6.0505 13.271 5.3581 12.325-0.36-4.3304-26.171 12.892-46.684 29.493-69.538 17.385-23.933 32.779-51.169-6.8294-90.769-12.906-12.903-43.155-18.562-69.183-29.114-16.153-6.5487-18.781-21.438-20.278-28.035-1.1623-5.1239-13.814-2.1924-11.928 3.235z" fill="url(#linearGradient984)"/>
  <path d="m172.16 99.9c6.5038 6.5431 6.9328 17.298 7.7143 23.338 7.314-2.51 13.429-2.8736 20.742-2.8736-0.22082-7.5914-5.1532-20.326-11.126-27.609-6.878 1.333-12.309 3.7141-17.33 7.1451z" fill="#ffe680" stroke-width=".5"/>
  <path d="m175.74 106.14c5.576-4.4442 12.045-5.4178 18.523-7.0082m-16.805 13.179c6.1533-3.9327 12.537-6.4068 19.155-7.4008m-17.317 13.19c6.6181-3.5731 13.181-4.8297 20.262-5.475" fill="none" stroke-width=".5001"/>
  <path d="m94.35 43.288c15.489 15.647 69.367 18.148 89.56 47.364-3.672 0.7513-6.2449 2.2353-8.8628 3.6894-24.068-30.799-77.512-33.218-86.375-48.675z" fill="#faa" stroke-opacity=".985"/>
  <path d="m185.82 125.42c4.244-1.1317 7.1946-0.96987 10.015-0.67837-5.8154 36.365-30.421 48.891-42.03 82.646 0.25689 0.89911-6.9057 0.55943-6.9099-1.7665 6.6308-21.624 38.77-54.127 38.925-80.201z" fill="#faa"/>
 </g>
 <g fill-rule="evenodd">
  <path d="m107.49 124.75-24.331 2.958 49.792-9.897-18.188-0.015 49.98-9.226-13.807-1.276 83.142-10.884-76.093 25.389 10.52-7.274-50.486 14.924 15.897-8.183-47.273 12.672 21.485-7.797-103.14 22.237z" fill="#ff2a2a" stroke="#000" stroke-width=".898"/>
  <path d="m115.46 123.33-12.531 1.18 36.857-7.649-16.287-0.056 50.134-8.983-12.079-1.254 64.334-8.422-58.88 19.645 8.423-6.196-49.115 14.664 14.93-7.64-39.522 10.622 13.957-5.18-67.72 14.756z" fill="#ff8080"/>
 </g>
 <g stroke="#000" stroke-linecap="round" stroke-linejoin="round" stroke-width=".75">
  <path d="m79.892 39.301c-1.7289-0.51099-3.1045-0.66115-2.1462-3.8827 0.80956-2.7215 10.362-7.319 13.72-6.1041 3.8017 1.3754 1.0233 3.0604 1.0671 4.7149z" fill="url(#linearGradient922)"/>
  <path d="m81.156 42.153c-1.7289-0.51099-3.1045-0.66115-2.1462-3.8827 0.80956-2.7215 10.362-7.319 13.72-6.1041 3.8017 1.3754 1.0233 3.0604 1.0671 4.7149z" fill="url(#linearGradient914)"/>
  <path d="m84.186 47.038c-2.7834-0.65171-5.0705-1.9443-3.9799-5.7787 0.77479-2.7241 9.5751-6.9918 12.291-6.4672 5.4864 1.0595 4.7812 3.2718 4.3279 5.2029l-1.8785-1.7868c-2.7907-1.5233-12.131 3.3492-11.645 5.954z" fill="url(#linearGradient912)"/>
  <path d="m139.57 224.14c-1.4396 1.0852-2.675 1.7085-0.64714 4.3889 1.7131 2.2643 12.271 3.2172 14.99 0.9012 3.0772-2.622-0.11572-3.2248-0.65538-4.7895z" fill="url(#linearGradient922-3)"/>
  <path d="m139.4 220.68c-1.4396 1.0852-2.675 1.7085-0.64715 4.3889 1.7131 2.2643 12.271 3.2172 14.99 0.9012 3.0772-2.622-0.11572-3.2248-0.65537-4.7895z" fill="url(#linearGradient914-3)"/>
  <path d="m141.13 215.26c-2.3777 1.587-4.689 3.6959-2.3222 6.9037 1.6815 2.2789 11.42 3.187 13.779 1.7426 4.7656-2.9175 2.6099-4.8375 1.5077-6.4867l-0.94025 2.4282c-4.2394 2.5126-12.51 0.56981-12.466-1.489z" fill="url(#linearGradient912-7)"/>
 </g>
</svg>
