<svg version="1.1" viewBox="0 0 256 256" xmlns="http://www.w3.org/2000/svg" xmlns:xlink="http://www.w3.org/1999/xlink">
 <defs>
  <linearGradient id="linearGradient890" x1="96.508" x2="155.02" y1="153.21" y2="153.21" gradientTransform="matrix(1.0511 0 0 1.0511 -4.192 -10.381)" gradientUnits="userSpaceOnUse">
   <stop stop-color="#f7feff" offset="0"/>
   <stop stop-color="#fafeff" offset=".5"/>
   <stop stop-color="#f7feff" offset="1"/>
  </linearGradient>
  <linearGradient id="linearGradient902" x1="98.466" x2="153.06" y1="151.56" y2="151.56" gradientTransform="matrix(1.0511 0 0 1.0511 -4.192 -10.381)" gradientUnits="userSpaceOnUse">
   <stop stop-color="#e9fdff" offset="0"/>
   <stop stop-color="#f6feff" offset=".5"/>
   <stop stop-color="#e9fdff" offset="1"/>
  </linearGradient>
  <linearGradient id="linearGradient912" x1="114.53" x2="137" y1="34.026" y2="34.026" gradientTransform="matrix(1.0511 0 0 1.0511 -4.192 -10.381)" gradientUnits="userSpaceOnUse">
   <stop stop-color="#d4af37" offset="0"/>
   <stop stop-color="#ead79b" offset=".5"/>
   <stop stop-color="#d4af37" offset="1"/>
  </linearGradient>
  <linearGradient id="linearGradient937" x1="98.031" x2="153.5" y1="167.33" y2="167.33" gradientTransform="matrix(1.0511 0 0 1.0511 -4.192 -10.381)" gradientUnits="userSpaceOnUse">
   <stop stop-color="#e6e6e6" offset="0"/>
   <stop stop-color="#fff" offset=".5"/>
   <stop stop-color="#e6e6e6" offset="1"/>
  </linearGradient>
  <linearGradient id="linearGradient927" x1="98.031" x2="153.5" y1="167.33" y2="167.33" gradientTransform="matrix(1.0511 0 0 1.0511 -4.192 -10.381)" gradientUnits="userSpaceOnUse">
   <stop stop-color="#cd0000" offset="0"/>
   <stop stop-color="#e68080" offset=".5"/>
   <stop stop-color="#cd0000" offset="1"/>
  </linearGradient>
 </defs>
 <g stroke="#000">
  <g stroke-width="1.1576">
   <path d="m100.29 250.1c-1.3007-0.40685-2.5203-1.9065-2.5195-4.2713v-11.034c-8.1e-4 -2.1045 0.4052-3.7973 1.0748-4.4685l0.87586-124.03c-5.3428-10.117 16.993-49.665 16.993-57.987 4.7845-0.83084 17.047-0.83002 22.565 8.19e-4 0 8.3215 22.336 47.869 16.993 57.987l0.87505 124.03c0.67121 0.67122 1.0748 2.3632 1.0756 4.4677v11.034c0 2.3656-1.2041 3.9201-2.5204 4.2721-16.352 4.3506-39.199 5.0579-55.413-8.3e-4z" fill="url(#linearGradient890)" stroke-linejoin="round" stroke-miterlimit="10"/>
   <path d="m137.23 48.06c-5.2445-0.49687-13.54-0.50506-18.451-0.02209 8.2e-4 8.3207-22.335 48.137-16.993 58.253l-0.87586 124.03c-0.67124 0.67123-1.0748 2.3632-1.0748 4.4686l-8.1e-4 7.5676c8.1e-4 2.3648 1.2205 3.8644 2.5204 4.2704 16.215 5.0596 34.945 4.3531 51.298 0 1.3162-0.35034 2.5195-1.9056 2.5195-4.2713l8.3e-4 -7.5676c0-2.1037-0.40601-3.7965-1.0756-4.4677l-0.87586-124.03c5.3428-10.117-16.993-49.901-16.993-58.222z" fill="url(#linearGradient902)" stroke-linejoin="round" stroke-miterlimit="10"/>
   <path d="m99.724 106.29c6.172-1.277 49.132-1.5242 56.552-8.1e-4m-57.428 124.03c4.3621 4.3621 53.53 4.7731 58.303 0" fill="none"/>
  </g>
  <g stroke-miterlimit="10">
   <path d="m116.72 48.305c4.7845-0.83084 17.048-0.83084 22.566 0v-43.708c-2.4639-3.0483-19.659-2.9075-22.566 0z" fill="url(#linearGradient912)" stroke-width="1.1576"/>
   <path d="m129.54 2.364 8.3e-4 11.767m1.5356-11.686v11.748m1.5373-11.622-8.3e-4 11.696m1.5381-11.485 8.2e-4 11.605m1.5373-11.295-1e-3 11.504m1.538-11.081v11.331m1.5364-10.803 8.3e-4 11.107m-10.759-0.84803v-11.768m-1.5373 0 8.2e-4 11.767m-1.5381-11.687-8.2e-4 11.749m-1.5364-11.621v11.696m-1.5365-11.484 8.3e-4 11.605m-1.5381-11.297 8.2e-4 11.505m-1.5381-11.081 8.2e-4 11.331m-1.5373-10.803v11.106m22.041 0.29959c-1.5004-1.8606-20.607-1.9572-22.565-8.18e-4" fill="none" stroke-width=".86822"/>
   <g transform="matrix(.81856 .81856 -.81856 .81856 126.44 -80.975)" fill="none" stroke-linecap="round" stroke-width=".551">
    <path transform="matrix(.64204 -.64204 .64204 .64204 -36.675 122.92)" d="m136.5 28.352c-0.229-0.283-0.888-0.523-1.84-0.72"/>
    <path transform="matrix(.64204 -.64204 .64204 .64204 -36.675 122.92)" d="m131.12 27.182c-3.899-0.301-9.041-0.251-12.485 0.175" stroke-dasharray="3.93114819, 3.93114819"/>
    <path transform="matrix(.64204 -.64204 .64204 .64204 -36.675 122.92)" d="m116.88 27.641c-0.912 0.193-1.565 0.43-1.847 0.711"/>
   </g>
  </g>
 </g>
 <g stroke-width="1.1576">
  <path d="m156.28 108.85c-7.4195-1.5225-50.38-1.2762-56.552 8.2e-4l-0.87586 110.91c4.3621 4.3621 53.531 4.7722 58.304-8.3e-4z" fill="url(#linearGradient937)"/>
  <path d="m98.86 218.28-0.0123 1.4857c4.3629 4.363 53.532 4.773 58.305 0l-0.3675-46.448c-17.851 3.9193-51.879 27.656-57.925 44.962zm57.42-109.09c0.0802-0.0229-3e-3 -0.3389-3e-3 -0.3389-7.4195-1.5225-50.38-1.2762-56.552 8.2e-4l-0.35117 44.511c9.0787-18.17 42.889-40.068 56.907-44.173zm-28.282 39.87 3.0082 6.0942 6.7253 0.97901-4.8664 4.7436 1.1493 6.6991-6.0165-3.1646-6.0156 3.1638 1.1484-6.6983-4.8655-4.7444 6.7253-0.97736zm-1.6028 7.832-3.591 0.52143 2.5989 2.5335-0.61311 3.5763 3.2112-1.6887 3.2104 1.6879-0.61228-3.5755 2.5973-2.5335-3.5894-0.52143-1.606-3.2546zm21.294 5.5188c3.0811-1.6339 4.6118-2.382 7.6397-3.7433-4.6978-1.4955-7.8247-2.3108-11.615-2.9296v10.314l-0.61475-0.10395a85.624 85.624 0 0 0-5.1455-0.70724v1.2933c7.0086 0.77764 10.501 1.5103 17.291 3.6639-2.9943-3.248-4.5087-4.8066-7.5562-7.787zm-17.485-10.068 1.1501 2.3304 7.5062 1.0903-5.432 5.2961 0.56646 3.3037a90.092 90.092 0 0 1 9.1933 1.0666l-8.1e-4 -11.847a90.14 90.14 0 0 0-12.982-1.2393zm-17.304 13.605-0.61392 0.10639 1e-3 -10.316c-3.7908 0.61965-6.9177 1.4349-11.614 2.9305 3.0262 1.3613 4.5578 2.1086 7.6388 3.7425-3.0483 2.9828-4.5635 4.5389-7.5594 7.7886 6.7924-2.1561 10.286-2.8862 17.295-3.6647v-1.2933a84.416 84.416 0 0 0-5.148 0.70641zm9.0992-1.5831 0.56725-3.3045-5.432-5.2961 7.5062-1.0887 1.1509-2.3313a90.09 90.09 0 0 0-12.978 1.2385l-8.2e-4 11.847a90.059 90.059 0 0 1 9.1876-1.0658z" fill="url(#linearGradient927)"/>
  <path d="m156.28 108.85c-7.4195-1.5225-50.38-1.2762-56.552 8.2e-4l-0.87586 110.91c4.3621 4.3621 53.531 4.7722 58.304-8.3e-4z" fill="none" stroke="#000" stroke-linejoin="round" stroke-miterlimit="10"/>
 </g>
</svg>
