<svg xmlns="http://www.w3.org/2000/svg" xmlns:xlink="http://www.w3.org/1999/xlink" viewBox="0 0 256 256">
    <defs>
        <linearGradient id="innoGrad1">
            <stop offset="0" stop-color="#8c001d"/>
            <stop offset="1" stop-color="#a20027"/>
        </linearGradient>
        <linearGradient id="linearGradient1082" x1="129.744" x2="128.136" y1="180.532" y2="178.363" gradientTransform="matrix(.94691 0 0 .94675 14.905 14.67)" gradientUnits="userSpaceOnUse" xlink:href="#innoGrad3"/>
        <linearGradient id="innoGrad3">
            <stop offset="0" stop-color="#ee3a69"/>
            <stop offset="1" stop-color="#f04e78"/>
        </linearGradient>
        <linearGradient id="linearGradient1074" x1="44.459" x2="45.536" y1="173.58" y2="168.307" gradientTransform="matrix(.94691 0 0 .94675 14.905 14.67)" gradientUnits="userSpaceOnUse" xlink:href="#innoGrad3"/>
        <linearGradient id="linearGradient1066" x1="141.624" x2="141.624" y1="194.225" y2="139.174" gradientTransform="matrix(.94691 0 0 .94675 14.905 14.67)" gradientUnits="userSpaceOnUse" xlink:href="#innoGrad2"/>
        <linearGradient id="innoGrad2">
            <stop offset="0" stop-color="#b40d37"/>
            <stop offset="1" stop-color="#c80e3d"/>
        </linearGradient>
        <radialGradient id="radialGradient1058" cx="114.192" cy="165.936" r="48.173" fx="114.192" fy="165.936" gradientTransform="matrix(0 -.94675 .94885 0 -55.726 257.29)" gradientUnits="userSpaceOnUse" xlink:href="#innoGrad1"/>
        <linearGradient id="linearGradient1090" x1="212.667" x2="210.912" y1="96.441" y2="99.125" gradientTransform="matrix(.94691 0 0 .94675 14.905 14.67)" gradientUnits="userSpaceOnUse" xlink:href="#innoGrad4"/>
        <linearGradient id="innoGrad4">
            <stop offset="0" stop-color="#fca5be"/>
            <stop offset="1" stop-color="#e395ab"/>
        </linearGradient>
        <linearGradient id="linearGradient1098" x1="221.953" x2="222.3" y1="155.634" y2="161.216" gradientTransform="matrix(.94691 0 0 .94675 14.905 14.67)" gradientUnits="userSpaceOnUse" xlink:href="#innoGrad2"/>
        <linearGradient id="linearGradient1106" x1="206.582" x2="208.525" y1="173.749" y2="177.884" gradientTransform="matrix(.94691 0 0 .94675 14.905 14.67)" gradientUnits="userSpaceOnUse" xlink:href="#innoGrad5"/>
        <linearGradient id="innoGrad5">
            <stop offset="0" stop-color="#f5728e"/>
            <stop offset="1" stop-color="#f78ea5"/>
        </linearGradient>
        <linearGradient id="linearGradient1114" x1="200.513" x2="216.974" y1="148.659" y2="164.027" gradientTransform="matrix(.94691 0 0 .94675 14.905 14.67)" gradientUnits="userSpaceOnUse" xlink:href="#innoGrad6"/>
        <linearGradient id="innoGrad6">
            <stop offset="0" stop-color="#f16187"/>
            <stop offset="1" stop-color="#ee3a69"/>
        </linearGradient>
        <linearGradient id="linearGradient1122" x1="155.19" x2="189.983" y1="175.763" y2="86.271" gradientTransform="matrix(.94691 0 0 .94675 14.905 14.67)" gradientUnits="userSpaceOnUse" xlink:href="#innoGrad2"/>
        <radialGradient id="radialGradient1132" cx="172.425" cy="134.599" r="42.392" fx="172.425" fy="134.599" gradientTransform="matrix(0 -.97206 .97217 0 50.932 307.965)" gradientUnits="userSpaceOnUse" xlink:href="#innoGrad1"/>
        <linearGradient id="linearGradient1140" x1="216.512" x2="224.313" y1="102.616" y2="123.904" gradientTransform="matrix(.94691 0 0 .94675 14.905 14.67)" gradientUnits="userSpaceOnUse" xlink:href="#innoGrad7"/>
        <linearGradient id="innoGrad7">
            <stop offset="0" stop-color="#73923b"/>
            <stop offset="1" stop-color="#5c752f"/>
        </linearGradient>
        <linearGradient id="linearGradient1148" x1="218.042" x2="215.618" y1="147.431" y2="146.531" gradientTransform="matrix(.94691 0 0 .94675 14.905 14.67)" gradientUnits="userSpaceOnUse" xlink:href="#innoGrad5"/>
        <linearGradient id="linearGradient1156" x1="221.721" x2="227.465" y1="148.593" y2="148.593" gradientTransform="matrix(.94691 0 0 .94675 14.905 14.67)" gradientUnits="userSpaceOnUse" xlink:href="#innoGrad7"/>
        <linearGradient id="linearGradient1164" x1="149.25" x2="165.203" y1="174.822" y2="184.323" gradientTransform="matrix(.94691 0 0 .94675 14.905 14.67)" gradientUnits="userSpaceOnUse" xlink:href="#innoGrad7"/>
        <linearGradient id="linearGradient1335" x1="82.09" x2="93.956" y1="82.625" y2="109.267" gradientTransform="matrix(.94691 0 0 .94675 14.905 14.67)" gradientUnits="userSpaceOnUse" xlink:href="#innoGrad12"/>
        <linearGradient id="innoGrad12">
            <stop offset="0" stop-color="#b3ca3b"/>
            <stop offset=".589" stop-color="#a0bd0a"/>
            <stop offset="1" stop-color="#a0bd0a" stop-opacity="0"/>
        </linearGradient>
        <linearGradient id="linearGradient1335-0" x1="82.09" x2="97.599" y1="82.625" y2="114.061" gradientTransform="matrix(.94691 0 0 .94675 14.905 14.67)" gradientUnits="userSpaceOnUse" xlink:href="#innoGrad16"/>
        <linearGradient id="innoGrad16">
            <stop offset="0" stop-color="#f0557e"/>
            <stop offset="1" stop-color="#ef4c77"/>
        </linearGradient>
        <linearGradient id="linearGradient1327" x1="87.953" x2="97.099" y1="93.167" y2="91.345" gradientTransform="matrix(.94691 0 0 .94675 14.905 14.67)" gradientUnits="userSpaceOnUse" xlink:href="#innoGrad17"/>
        <linearGradient id="innoGrad17">
            <stop offset="0" stop-color="#fca5be" stop-opacity="0"/>
            <stop offset=".47" stop-color="#fca5be"/>
            <stop offset="1" stop-color="#e395ab"/>
        </linearGradient>
        <linearGradient id="linearGradient1311" x1="111.298" x2="106.032" y1="69.886" y2="82.926" gradientTransform="matrix(.94691 0 0 .94675 14.905 14.67)" gradientUnits="userSpaceOnUse" xlink:href="#innoGrad15"/>
        <linearGradient id="innoGrad15">
            <stop offset="0" stop-color="#b3ca3b"/>
            <stop offset=".691" stop-color="#a0bd0a"/>
            <stop offset="1" stop-color="#a0bd0a" stop-opacity="0"/>
        </linearGradient>
        <linearGradient id="linearGradient1295" x1="117.375" x2="135.4" y1="97.923" y2="92.649" gradientTransform="matrix(.94691 0 0 .94675 14.905 14.67)" gradientUnits="userSpaceOnUse" xlink:href="#innoGrad14"/>
        <linearGradient id="innoGrad14">
            <stop offset="0" stop-color="#b3ca3b"/>
            <stop offset=".34" stop-color="#a0bd0a"/>
            <stop offset="1" stop-color="#a0bd0a" stop-opacity="0"/>
        </linearGradient>
        <linearGradient id="linearGradient1279" x1="27.875" x2="121.684" y1="144.243" y2="144.243" gradientTransform="matrix(.94691 0 0 .94675 14.905 14.67)" gradientUnits="userSpaceOnUse" xlink:href="#innoGrad13"/>
        <linearGradient id="innoGrad13">
            <stop offset="0" stop-color="#b3ca3b"/>
            <stop offset=".831" stop-color="#a0bd0a"/>
            <stop offset="1" stop-color="#a0bd0a" stop-opacity="0"/>
        </linearGradient>
        <linearGradient id="linearGradient1269" x1="15.75" x2="62.159" y1="66.875" y2="119.521" gradientTransform="matrix(.94691 0 0 .94675 14.905 14.67)" gradientUnits="userSpaceOnUse" xlink:href="#innoGrad12"/>
        <linearGradient id="linearGradient1261" x1="66.191" x2="15.75" y1="125.623" y2="66.875" gradientTransform="matrix(.94691 0 0 .94675 14.905 14.67)" gradientUnits="userSpaceOnUse" xlink:href="#innoGrad11"/>
        <linearGradient id="innoGrad11">
            <stop offset="0" stop-color="#f0557e"/>
            <stop offset="1" stop-color="#f37798"/>
        </linearGradient>
        <linearGradient id="linearGradient1245" x1="58.917" x2="35.255" y1="84" y2="93.88" gradientTransform="matrix(.94691 0 0 .94675 14.905 14.67)" gradientUnits="userSpaceOnUse" xlink:href="#innoGrad7"/>
        <linearGradient id="linearGradient1237" x1="46" x2="53.153" y1="90.257" y2="91.504" gradientTransform="matrix(.94691 0 0 .94675 14.905 14.67)" gradientUnits="userSpaceOnUse" xlink:href="#innoGrad10"/>
        <linearGradient id="innoGrad10">
            <stop offset="0" stop-color="#82694b"/>
            <stop offset="1" stop-color="#b9966b"/>
        </linearGradient>
        <linearGradient id="linearGradient1229" x1="51.547" x2="70.978" y1="94.388" y2="100.457" gradientTransform="matrix(.94691 0 0 .94675 14.905 14.67)" gradientUnits="userSpaceOnUse" xlink:href="#innoGrad9"/>
        <linearGradient id="innoGrad9">
            <stop offset="0" stop-color="#bd2931"/>
            <stop offset="1" stop-color="#bd2931" stop-opacity="0"/>
        </linearGradient>
        <linearGradient id="linearGradient1220" x1="52.115" x2="133.431" y1="93.565" y2="131.168" gradientTransform="matrix(.94691 0 0 .94675 14.905 14.67)" gradientUnits="userSpaceOnUse" xlink:href="#innoGrad6"/>
        <linearGradient id="linearGradient1212" x1="36.517" x2="62.958" y1="93.143" y2="86.7" gradientTransform="matrix(.94691 0 0 .94675 14.905 14.67)" gradientUnits="userSpaceOnUse" xlink:href="#innoGrad8"/>
        <linearGradient id="innoGrad8">
            <stop offset="0" stop-color="#809708"/>
            <stop offset="1" stop-color="#b3ca3b"/>
        </linearGradient>
        <linearGradient id="linearGradient1204" x1="35.486" x2="31.929" y1="86.734" y2="86.35" gradientTransform="matrix(.94691 0 0 .94675 14.905 14.67)" gradientUnits="userSpaceOnUse" xlink:href="#innoGrad7"/>
        <linearGradient id="linearGradient1196" x1="156.057" x2="160.128" y1="86.461" y2="94.515" gradientTransform="matrix(.94691 0 0 .94675 14.905 14.67)" gradientUnits="userSpaceOnUse" xlink:href="#innoGrad7"/>
        <linearGradient id="linearGradient1188" x1="147.496" x2="148.469" y1="84.929" y2="88.093" gradientTransform="matrix(.94691 0 0 .94675 14.905 14.67)" gradientUnits="userSpaceOnUse" xlink:href="#innoGrad4"/>
        <linearGradient id="linearGradient1180" x1="124.875" x2="136.969" y1="63.938" y2="78.831" gradientTransform="matrix(.94691 0 0 .94675 14.905 14.67)" gradientUnits="userSpaceOnUse" xlink:href="#innoGrad7"/>
        <linearGradient id="linearGradient1172" x1="136.275" x2="131.636" y1="82.716" y2="75.43" gradientTransform="matrix(.94691 0 0 .94675 14.905 14.67)" gradientUnits="userSpaceOnUse" xlink:href="#innoGrad2"/>
    </defs>
    <ellipse cx="128" cy="128" fill="#ff8080" stroke="#000" stroke-linecap="round" stroke-linejoin="round" stroke-width="5.012" rx="119.994" ry="118.293"/>
    <path fill="#f55" d="M236.215 143.361c1.303 1.374 1.871 4.856 1.871 4.856-2.486-3.006-4.901-5.132-8.138-6.652-4.464 6.992-7.385 9.2-11.11 10.864-7.075 3.158-13.444-.497-28.803 2.653-13.993 2.87-27.92 11.875-43.773 7.58-7.333-1.987-11.534-5.494-16.485-8.212-2.551-1.4-4.874-2.79-6.968-4.134 1.11-.397 2.205-.971 2.946-1.415.815.078 1.513.091 1.912.091 1.14 0 1.527-.106 1.692-.15a2.28 2.28 0 0 0 .93-.512c.79-.72 1.684-2.368 1.334-4.193.445-1.542-.212-2.946-.638-3.854-.02-.046-.042-.092-.063-.137.255-1.228.186-2.601-.201-3.964.489-.992.799-2.125.698-3.208.449-.758.678-1.507.82-2.207 1.258-.805 2.266-2.047 2.58-3.408.63-.592 1.115-1.4 1.374-2.313.724-.5 1.62-1.185 2.124-2.187.956-.876 2.28-2.452 1.846-4.172a2.275 2.275 0 0 0-.845-1.265c-.047-.035-1.042-.775-2.256-1.48-.302-.271-1.722-1.52-3.965-3.065a56.766 56.766 0 0 1 2.743-1.503c5.829-2.975 16.33-3.696 28.244-3.104l-.006-.002s22.735-.81 27.094.39c4.358 1.2 6.44 3.73 9.923 4.452h-.001c12.993 2.6 23.586 5.676 27.027 7.864 9.538 6.064 9.727 7.201 3.98 17.054-.124.212-.239.401-.36.606 2.326 1.311 7.798 4.541 8.603 6.354 0 0-1.335-.774-4.13-1.626zM164.4 117.207a6.742 6.742 0 0 0-.496 2.518c0 4.058 3.614 7.348 8.07 7.348 3.18 0 5.923-1.68 7.238-4.115-4.19-2.586-9.615-5.06-14.812-5.751zm45.222 10.939s4.17-1.421 5.496.379c1.326 1.8-.569 4.548-.569 4.548s4.418-2.242 4.418-3.238c0-.995-2.512-4.218-3.838-4.597-1.326-.38-5.175.445-5.507 2.908zm-49.125-17.162c3.776-.63 7.678-.186 11.362.766 6.733 1.659 13.318 4.855 18.806 9.098-5.31-4.726-11.966-8.265-18.9-9.9-3.705-.873-7.616-1.273-11.372-.493-3.268.678-5.933 2.383-7.942 5.023 2.167-2.388 4.835-3.959 8.046-4.494zm-44.757-13.992a149.5 149.5 0 0 0-22.911-.123l1.133 2.596-2.227-2.512.567 4.503-3.638-4.226a144.663 144.663 0 0 0-34.16 7.7c13.42 1.681 25.156 2.84 35.3 3.626-11.028 2.433-23.63 6.311-37.785 12.29l4.802 5.054-7.365-3.954a297.246 297.246 0 0 0-17.553 8.342c19.257 5.056 36.787 5.172 51.062 3.403l.814-1.042a19.53 19.53 0 0 1-1.586-2.075 2.272 2.272 0 0 1 .982-3.334c3.356-1.476 7.031-2.343 10.954-2.586-.003-.003-.007-.006-.012-.008-3.358-2.265-4.78-3.448-4.301-5.272.525-2 2.84-2.154 5.518-2.332 1.946-.13 4.65-.2 7.61-.2 1.601 0 3.207.02 4.706.058l.013-.044a2.275 2.275 0 0 1 2.014-1.547c.062-.004.708-.044 1.733-.089-2.73-2.403-4.35-4.517-4.454-4.655a2.27 2.27 0 0 1 .933-3.472c.247-.104 2.528-1.012 6.307-1.012 4.055 0 8.242 1.023 12.447 3.041a46.98 46.98 0 0 1 4.316 2.367l.993-.577a58.562 58.562 0 0 1 2.853-1.564c.316-.161.65-.316.994-.467-4.827-2.481-11.928-6.547-20.059-11.888zm16.71 61.688c-1.287-.792-2.5-1.54-3.77-2.236a127.71 127.71 0 0 1-7.877-4.722 48.93 48.93 0 0 1-8.831 4.823c-3.838 1.595-7.641 2.404-11.304 2.404-4.535 0-7.24-1.244-7.532-1.385a2.272 2.272 0 0 1-.746-3.517c.135-.16 2.362-2.763 5.952-5.36-2.03-.334-3.45-.612-3.562-.634a2.273 2.273 0 0 1-.803-4.135 76.278 76.278 0 0 1 5.698-3.307c-5.952-.991-10.77-3.125-14.287-6.326l-.63.806c-.37.475-.915.783-1.513.857-4.582.568-9.223.896-13.841 1.002-1.686.576-2.805.992-2.805.992s1.677.742 4.118 1.626c-4.74 2.025-9.872 4.877-9.872 4.877s1.812.492 4.406 1.005c-5.153 1.341-11.193 3.688-11.193 3.688s3.314 1.407 7.405 2.612c-5.255 1.502-11.87 4.391-11.87 4.391s2.735 1.032 6.305 1.994c-4.566 2.196-9.364 5.117-9.364 5.117s2.843.653 6.503 1.125c-4.392 2.885-9.176 6.846-9.176 6.846s3.825.31 8.269.127c-3.804 3.421-7.674 7.687-7.674 7.687s3.253-.2 7.187-.866c-4.268 3.403-9.235 8.57-9.235 8.57s4.532-.147 9.388-1.002c-4.275 3.53-9.632 9.58-9.632 9.58s3.95-.292 8.398-1.188c-.032.185-.061.365-.09.547-2.782 3.5-5.202 7.062-5.202 7.062s1.88-.385 4.47-1.11c-.15 1.912-.147 3.004-.147 3.004s34.102 13.79 68.073 0c-5.263-16.259 7.638-30.946 29.693-38.378-.564-.124-1.129-.247-1.691-.399-5.702-1.545-9.695-4.006-13.218-6.177zm24.36-52.878c3.479 0 7.181.15 11.003.418-11.816-4.569-27.7-15.235-47.654-43.232-7.853-11.016-18.196-24.005-27.019-41.182.664 15.729 4.02 28.658 8.9 39.272l9.923 6.27-4.374 1.025c-4.096-4.148-8.362-8.377-12.933-12.584-11.866-10.923-15.412-16.802-23.529-19.834.037 3.256 1.347 9.393 3.211 15.615l13.465 9.809-10.676-1.607c2.048 5.296 4.291 9.588 6.16 10.67 20.437 18.858 43.481 32.635 53.922 37.88 4.62-1.671 11.189-2.52 19.602-2.52zm-18.854 13.442s-1.147-.856-2.425-1.555c.016-.006.03-.016.048-.022 0 0-3.97-3.64-9.92-6.495-10.073-4.835-16.892-1.981-16.892-1.981s3.748 4.935 9.509 8.168c-4.355-.037-8.455.22-8.455.22s.849.729 2.206 1.784c-6.173-.414-19.76-.366-20.012.59-.167.638 5.555 4.374 10.832 7.426-5.92-.935-12.53-.796-18.755 1.943 5.244 7.948 15.729 9.694 24.125 9.656.168.079.339.152.51.224-6.255 1.886-13.507 6.62-13.507 6.62s5.11 1.006 9.992 1.513c-6.556 2.831-11.086 8.181-11.086 8.181s6.657 3.218 16.975-1.071c6.094-2.533 10.254-5.953 10.254-5.953-.047-.017-.085-.048-.13-.068 1.592-.355 3.659-1.615 3.97-1.864l-.001-.015c1.532.222 3.21.2 3.564.103.197-.179 1.086-1.325.442-2.642.786-1.193-.2-2.376-.683-3.704.484-1.278.307-2.938-.284-4.363.78-1.133 1.232-2.572.711-3.425.94-1.04 1.076-2.086 1.232-3.25 1.469-.514 2.747-2.062 2.416-3.175.806-.19 1.47-1.259 1.53-2.369.608-.486 2.071-1.231 2.284-2.217.906-.724 1.682-1.737 1.55-2.26z"/>
    <path fill="#f9f9f9" fill-rule="evenodd" d="M134.62 25.36c42.403 5.593 82.314 18.749 101.45 95.105-58.576-83.705-66.12-68.923-101.45-95.105z"/>
    <path fill-opacity=".449" fill-rule="evenodd" d="M179.236 232.742C69.065 279.215-24.121 174.948 20.57 80.527c.84 80.861 63.214 160.3 158.666 152.215z"/>
    <path fill="url(#linearGradient1172)" stroke="#000" stroke-linecap="round" stroke-linejoin="round" stroke-miterlimit="10" d="M149.702 95.248c-.632-1.938-9.345-10.538-10.041-10.874-.4-.193-.243 1.73-.566 3.635-.238 1.406-1.051 2.802-.923 3.335.305 1.256 11.53 3.904 11.53 3.904z"/>
    <path fill="url(#linearGradient1180)" stroke="#000" stroke-linecap="round" stroke-linejoin="round" stroke-miterlimit="10" d="M133.15 75.203c-.531.177 2.013 3.964 2.96 5.266.947 1.302 6.962 9.335 9.164 9.335.779 0-11.59-14.779-12.123-14.6z"/>
    <path fill="url(#linearGradient1188)" stroke="#000" stroke-linecap="round" stroke-linejoin="round" stroke-miterlimit="10" d="M153.41 96.94s.455-1.293.75-1.693c.297-.4 4.288 3.55 4.216 4.444-.072.895-4.966-2.751-4.966-2.751z"/>
    <path fill="#5d7933" stroke="#000" stroke-linecap="round" stroke-linejoin="round" stroke-miterlimit="10" stroke-width="1.056" d="M167.811 94.25l-5.248-5 2.375-2.981z" transform="matrix(.94691 0 0 .94675 14.905 14.67)"/>
    <path fill="url(#linearGradient1196)" stroke="#000" stroke-linecap="round" stroke-linejoin="round" stroke-miterlimit="10" d="M158.884 100.014s2.024-1.126 3.266-3.294c.445-.775 1.736-.128 2.486 0 1.345.23 2.356.64 3.61 1.323 1.954 1.065 5.623 8.497 2.96 10.106-2.664 1.61-12.322-8.135-12.322-8.135z"/>
    <path fill="url(#linearGradient1204)" stroke="#000" stroke-linecap="round" stroke-linejoin="round" stroke-miterlimit="10" d="M47.85 109.72c2.801 3.333-6.533-6.544-2.615-12.651 3.917-6.108 11.778-8.04 11.778-8.04z"/>
    <path fill="url(#linearGradient1212)" stroke="#000" stroke-linecap="round" stroke-linejoin="round" stroke-miterlimit="10" d="M84.977 96.356c-.313-.102-3.988 2.419-6.614 1.164-1.587-.757-1.586-5.13-3.655-5.928-11.332-4.373-27.852-7.207-27.134 15.031.636 19.713 18.503 6.813 11.762 2.205-4.897-3.349-5.271-7.692-1.594-8.122 4.371-.51 12.326 1.042 17.844.118 5.998-1.005 9.39-4.468 9.39-4.468z"/>
    <path fill="url(#linearGradient1220)" d="M130.352 89.53c16.698 3.308 31.968 9.654 39.847 21.074 5.993 8.687 7.048 21.435 5.063 31.45-4.595 23.187-32.15 37.26-61.547 31.437-29.398-5.823-49.505-29.339-44.91-52.524l-8.566-9.619c1.35-2.101-.677-18.478 3.99-20.82 5.99-3.006 1.436 15.89 20.037 4.852 11.882-7.05 29.477-9.14 46.086-5.85z"/>
    <path fill="url(#linearGradient1229)" d="M82.926 100.5c-3.215 1.795-6.707 1.807-9.921-.096-2.997-1.701-5.24-4.188-7.097-7.072l.112-.885c1.67 2.868 4.407 5.776 7.228 7.552 3.058 2.005 6.456 2.108 9.678.501zm-17.1-6.566c0 3.142 2.015 7.418 4.32 9.534 2.879 2.644 6.358 3.034 10.097 2.879-3.966.338-7.957.038-10.923-2.98-2.303-2.48-3.286-5.133-3.757-8.066zm19.83 14.306c-3.353 1.153-7.443 1.896-10.938 1.054-4.022-1.232-7.711-3.195-11.002-5.262l.537-.78c3.163 2.185 6.71 4.414 10.407 5.554 3.433 1.059 7.61.444 10.996-.566zm-22.98-.566c0 .047 2.77.933 2.95 1.008 1.576.661 3.096 1.476 4.462 2.505 2.675 2.013 4.308 4.513 5.083 7.75-.885-2.971-2.49-5.406-5.107-7.153-2.15-1.414-4.262-2.29-6.534-2.939-.207-.055-.9-.092-1.055-.246l.202-.925z"/>
    <path fill="none" stroke="#000" stroke-linecap="round" stroke-linejoin="round" stroke-miterlimit="10" d="M130.352 89.53c16.698 3.308 31.968 9.654 39.847 21.074 5.993 8.687 7.048 21.435 5.063 31.45-4.595 23.187-32.15 37.26-61.547 31.437-29.398-5.823-49.505-29.339-44.91-52.524l-8.566-9.619c1.35-2.101-.677-18.478 3.99-20.82 5.99-3.006 1.436 15.89 20.037 4.852 11.882-7.05 29.477-9.14 46.086-5.85z"/>
    <path fill="url(#linearGradient1237)" stroke="#000" stroke-linecap="round" stroke-linejoin="round" stroke-miterlimit="10" d="M58.937 88.99s7.337-.708 7.278 1.421c-.058 2.13-2.426 19.864-5.976 20.937-1.266.383-.882-3.995-.734-5.54.266-2.792 1.323-4.084 1.584-6.302.404-3.443-2.152-10.516-2.152-10.516z"/>
    <path fill="url(#linearGradient1245)" stroke="#000" stroke-linecap="round" stroke-linejoin="round" stroke-miterlimit="10" d="M70.694 94.197s-1.364 3.251-5.523 6.312c-4.24 3.12-11.294 6.058-13.363 6.748-4.099 1.364-8.366-4.533-3.696-8.047 1.639-1.233 5.351-3.308 8.902-4.066 3.264-.698 6.047.053 8.639-.01 2.627-.065 5.041-.937 5.041-.937z"/>
    <path fill="#a0bd0a" stroke="#000" stroke-linecap="round" stroke-linejoin="round" stroke-miterlimit="10" d="M48.915 119.129c-.118 1.025 2.378.947 4.258 2.326 1.88 1.378 3.142 4.211 5.231 4.555 4.18.687-4.122-7.748-4.122-7.748s-5.13-1.185-5.367.867z"/>
    <path fill="url(#linearGradient1261)" d="M86.989 128.646c-12.192-2.357-14.914-10.425-18.465-14.614-3.55-4.188-8.64-1.373-13.73-3.646-2.713-1.21-8.337-12.072-14.204-20.331-5.142-7.237-10.771-12.071-10.771-12.071s2.425 16.718 14.204 34.326c2.812 4.203 11.676 11.1 16.216 15.367 7.117 6.692 9.872 10.216 10.019 11.994"/>
    <path fill="url(#linearGradient1269)" d="M70.258 139.671c-.147-1.778-2.902-5.302-10.02-11.994-4.539-4.268-13.403-11.164-16.215-15.367-11.779-17.608-14.204-34.326-14.204-34.326s5.63 4.834 10.771 12.071c5.867 8.259 11.49 19.12 14.204 20.331 5.09 2.273 10.18-.542 13.73 3.646 3.551 4.189 6.273 12.256 18.465 14.614 0 0-3.454.875-6.971-.968-3.985-2.09-8.339-7.024-13.111-8.84-5.39-2.053-10.074-2.48-10.97-1.367-1.488 1.849 6.846 8.782 11.403 14.597 2.733 3.487 2.918 7.603 2.918 7.603z"/>
    <path fill="none" stroke="#000" stroke-linecap="round" stroke-linejoin="round" stroke-miterlimit="10" d="M86.989 128.646c-12.192-2.357-14.914-10.425-18.465-14.614-3.55-4.188-8.64-1.373-13.73-3.646-2.713-1.21-8.337-12.072-14.204-20.331-5.142-7.237-10.771-12.071-10.771-12.071s2.425 16.718 14.204 34.326c2.812 4.203 11.676 11.1 16.216 15.367 7.117 6.692 9.872 10.216 10.019 11.994"/>
    <path fill="url(#linearGradient1279)" d="M130.01 135.144c-.824-.06-1.04 4.009-2.836 6.627-1.632 2.38-.856 2.388-13.672 4.56-4.79.813-11.313.948-16.622 2.908-7.997 2.954-12.657 7.847-21.846 7.88-8.729.031-17.356-3.673-23.91-6.003-5.603-1.992-9.824-2.66-9.824-2.66s11.576 14.048 31.485 17.48c24.278 4.183 55.868-2.445 55.868-2.445s-3.59-4.284-2.565-11.425c1.025-7.14 4.748-16.862 3.923-16.922z"/>
    <path fill="none" stroke="#000" stroke-linecap="round" stroke-linejoin="round" stroke-miterlimit="10" d="M130.01 135.144c-.824-.06-1.04 4.009-2.836 6.627-1.632 2.38-.856 2.388-13.672 4.56-4.79.813-11.313.948-16.622 2.908-7.997 2.954-12.657 7.847-21.846 7.88-8.729.031-17.356-3.673-23.91-6.003-5.603-1.992-9.824-2.66-9.824-2.66s11.576 14.048 31.485 17.48c24.278 4.183 55.868-2.445 55.868-2.445"/>
    <path fill="url(#linearGradient1295)" d="M139.392 96.72c-.135.206.214 3.677-2.257 4.655-1.659.656-4.454-.08-6.55.079-3.164.242-5.444 1.192-5.444 1.45 0 .282 3.05 5.608 7.497 8.468 6.292 4.048 14.67 6.136 14.992 7.754 0 0 .825-2.611-.809-5.758-.907-1.747-4.399-3.478-4.853-5.446-.456-1.984.582-3.982.179-5.738-.72-3.123-2.755-5.464-2.755-5.464z"/>
    <path fill="none" stroke="#000" stroke-linecap="round" stroke-linejoin="round" stroke-miterlimit="10" d="M139.392 96.72c-.135.206.214 3.677-2.257 4.655-1.659.656-4.454-.08-6.55.079-3.164.242-5.444 1.192-5.444 1.45 0 .282 3.05 5.608 7.497 8.468 6.292 4.048 14.67 6.136 14.992 7.754"/>
    <path fill="url(#linearGradient1311)" d="M120.406 94.906s-10.258-7.652-8.995-9.94c.583-1.057 7.023 1.406 13.602 2.693 4.235.827 9.548.774 12.28-.385 2.214-.939 1.96-3.224 1.46-3.522-.526-.315-1.785 1.334-3.235 1.636-1.172.246-3.115-.31-4.942-.273-6.265.124-11.207-3.354-17.31-3.64-3.566-.167-8.823 2.89-8.971 3.966-.696 5.048 4.038 7.335 4.038 7.335s.168-2.36 2.684-1.774c2.516.585 9.39 3.904 9.39 3.904z"/>
    <path fill="none" stroke="#000" stroke-linecap="round" stroke-linejoin="round" stroke-miterlimit="10" d="M120.406 94.906s-10.258-7.652-8.995-9.94c.583-1.057 7.023 1.406 13.602 2.693 4.235.827 9.548.774 12.28-.385 2.214-.939 1.96-3.224 1.46-3.522-.526-.315-1.785 1.334-3.235 1.636-1.172.246-3.115-.31-4.942-.273-6.265.124-11.207-3.354-17.31-3.64-3.566-.167-8.823 2.89-8.971 3.966-.696 5.048 4.038 7.335 4.038 7.335"/>
    <path fill="url(#linearGradient1327)" d="M107.466 123.783s-12.873-9.587-4.233-23.66c.826-1.343.386-2.376.268-3.767-.057-.664-5.681-2.573-6.747-1.567-1.065 1.005-1.686 2.76-2.13 8.462-.94 12.059 12.842 20.532 12.842 20.532z"/>
    <path fill="none" stroke="#000" stroke-linecap="round" stroke-linejoin="round" stroke-miterlimit="10" d="M107.466 123.783s-12.873-9.587-4.233-23.66c.826-1.343.386-2.376.268-3.767-.057-.664-5.681-2.573-6.747-1.567"/>
    <path fill="url(#linearGradient1335-0)" d="M92.637 92.895c.239.515 1.307.873 2.4 0 2.42-1.933 4.695-6.232 7.26-4.142.93.759 1.242 5.02.79 9.35-.353 3.362-3.735 7.276-3.907 11.04-.263 5.806 3.322 12.07 8.286 14.64.627.325-1.783-4.448-3.712-7.272-1.65-2.417-2.835-2.526-2.733-6.633.108-4.316 4.363-8.225 8.516-12.13 2.485-2.338 6.015-8.139 3.403-9.913-1.48-1.006-3.916-2.606-8.118-2.435-3.464.14-6.37 2.514-8.897 4.418-1.91 1.438-3.575 2.457-3.288 3.077z"/>
    <path fill="url(#linearGradient1335)" d="M92.637 92.895c.239.515 1.307.873 2.4 0 2.42-1.933 4.695-6.232 7.26-4.142.93.759 1.242 5.02.79 9.35-.353 3.362-3.735 7.276-3.907 11.04-.263 5.806 3.322 12.07 8.286 14.64.627.325-1.783-4.448-3.712-7.272-1.65-2.417-2.835-2.526-2.733-6.633.108-4.316 4.363-8.225 8.516-12.13 2.485-2.338 6.015-8.139 3.403-9.913-1.48-1.006-3.916-2.606-8.118-2.435-3.464.14-6.37 2.514-8.897 4.418-1.91 1.438-3.575 2.457-3.288 3.077z"/>
    <path fill="none" stroke="#000" stroke-linecap="round" stroke-linejoin="round" stroke-miterlimit="10" d="M103.754 116.511c-1.65-2.417-2.835-2.526-2.733-6.633.108-4.316 4.363-8.225 8.516-12.13 2.485-2.338 6.015-8.139 3.403-9.913-1.48-1.006-3.916-2.606-8.118-2.435-3.464.14-6.37 2.514-8.897 4.418-1.91 1.438-3.576 2.457-3.288 3.077.239.515 1.307.873 2.4 0 2.42-1.933 4.695-6.232 7.26-4.142.93.759 1.242 5.02.79 9.35-.353 3.362-3.735 7.276-3.907 11.04-.263 5.806 3.322 12.07 8.286 14.64"/>
    <path fill="#73923b" stroke="#000" stroke-linejoin="round" stroke-miterlimit="10" d="M219.577 180.334c-.08.849-2.446 2-2.446 2l-.474-2.414s2.998-.433 2.92.414z"/>
    <path fill="url(#linearGradient1090)" stroke="#000" stroke-linejoin="round" stroke-miterlimit="10" d="M211.943 105.83s3.47-.154 4.24.38c.77.532 2.915 8.14 2.546 9.19z"/>
    <path fill="url(#linearGradient1098)" stroke="#000" stroke-linejoin="round" stroke-miterlimit="10" d="M220.594 169.648l7.364-26.775s1.064 1.075 1.466 3.812l-2.782 18.94c-2.515 3.566-6.048 4.023-6.048 4.023z"/>
    <path fill="url(#linearGradient1106)" stroke="#000" stroke-linejoin="round" stroke-miterlimit="10" d="M199.438 184.973s3.764-.541 5.944.29c.79.3-.247 1.925.463 1.924.744-.001 1.507.12 2.13-.227 1.458-.813 2.614-2.65 4.272-3.561 2.368-1.302 3.76-.726 4.883-1.064.592-.178.063-1.087.533-2.87.963-3.658 2.698-9.502 2.698-9.502z"/>
    <path fill="#bd2931" stroke="#000" stroke-linejoin="round" stroke-miterlimit="10" d="M190.834 187.41s-1.49 1.225-7.09 1.718l-9.313.868-7.038-4.609z"/>
    <path fill="url(#linearGradient1114)" stroke="#000" stroke-linejoin="round" stroke-miterlimit="10" d="M154.95 179.244c8.3 5.158 15.5 8.549 22.676 9.362 5.9.669 11.912-.631 17.43-2.195 10.893-3.09 20.944-9.404 26.908-18.761 4.79-7.516 6.751-17.254 5.84-26.903-1.13-11.941-7.689-26.823-19.254-37.95z"/>
    <path fill="url(#linearGradient1122)" stroke="#000" stroke-linejoin="round" stroke-miterlimit="10" d="M150.373 114.554c-5.067 5.882-8.227 12.584-10.553 19.169-3.194 9.044-4.285 18.05-1.815 26.097 1.817 5.92 5.82 11.208 10.601 15.325 6.006 5.171 13.196 7.007 21.12 7.18 13.208.286 27.917-5.396 38.638-17.84 9.44-10.96 13.008-23.855 12.495-35.812-.419-9.764-4.655-20.254-12.31-25.879-10.472-7.695-15.906-6.852-25.803-5.68-11.749 1.392-23.064 6.633-32.373 17.44z"/>
    <path fill="url(#radialGradient1132)" stroke="#000" stroke-linejoin="round" stroke-miterlimit="10" d="M152.452 115.478c-8.12 8.988-12.31 20.076-12.968 30.317-.683 10.603 2.439 20.318 10.017 27.161 7.95 7.18 18.914 8.475 29.922 6.212 7.056-1.45 13.534-4.03 19.835-8.58 2.285-1.65 5.05-3.412 7.102-5.681 8.82-9.765 12.367-22.307 12.369-33.314.002-9.61-2.44-18.61-9.383-24.882-14.899-13.45-40.37-9.526-56.894 8.767z"/>
    <path fill="url(#linearGradient1140)" stroke="#000" stroke-linejoin="round" stroke-miterlimit="10" d="M226.856 149.267s.415-4.566-.73-9.921c-2.327-10.885-7.033-26.945-6.293-27.95.283-.383 2.77 1.553 4.498 5.05 1.036 2.098 1.289 4.866 2.052 7.732 1.103 4.142.336 9.24.98 13.262 1.07 6.678-.507 11.827-.507 11.827z"/>
    <path fill="url(#linearGradient1148)" stroke="#000" stroke-linejoin="round" stroke-miterlimit="10" d="M223.996 141.061s-3.433 7.12-3.788 8.206c-.355 1.085-3.966 13.096-4.912 14.516-.417.625-1.118 2.967-2.9 5.444-2.27 3.152-5.675 6.514-5.742 6.746-.052.179 1.34-.691 3.847-2.84 1.329-1.139 3.235-2.18 4.824-4.616 2.318-3.557 6.007-11.657 7.072-16.095 1.066-4.437 1.599-11.36 1.599-11.36z"/>
    <path fill="url(#linearGradient1156)" stroke="#000" stroke-linejoin="round" stroke-miterlimit="10" d="M226.36 161.76c.507.433.216 1.103.27 1.816.045.621-.445 2.392.013 2.05 1.604-1.203 1.911-3.459 2.227-4.76.315-1.302.537-2.644.624-3.827.086-1.184.362-5.522.322-6.666-.04-1.145-.122-5.002-.752-5.316-.631-.315-1.472 2.01-1.842 4.022-.37 2.012.203 3.843-.112 5.5s-1.516 1.554-1.713 2.895c-.197 1.34.012 3.477.962 4.286z"/>
    <path fill="url(#linearGradient1164)" stroke="#000" stroke-linejoin="round" stroke-miterlimit="10" d="M156.232 180.183s4.38 1.549 8.325 3.324c3.945 1.775 8.79 2.677 9.982 3.699 3.117 2.672 7.282 2.02 9.205 1.922 1.924-.099-10.744 2.347-17.214.395-2.17-.655-3.65-2.315-5.623-3.698-3.911-2.742-7.608-5.634-7.398-6.105 1.736 1.933 2.723.463 2.723.463z"/>
    <path fill="#231f20" d="M151.52 126.31s1.534 2.857-.396 2.728c-2.041-.135.396-2.727.396-2.727zm14.172-10.937s-2.843-1.558-1.155-2.502c1.786-1 1.155 2.502 1.155 2.502zm-7.838 8.644s3.207-.477 2.433 1.295c-.819 1.875-2.433-1.295-2.433-1.295zm40.412 19.378s-2.74 1.732-2.749-.202c-.009-2.046 2.75.202 2.75.202zm-14.152.053s.355-3.223 1.872-2.023c1.606 1.267-1.872 2.023-1.872 2.023zm-10.788 32.8s2.32-2.265 2.731-.376c.434 2-2.731.375-2.731.375zm-4.605-7.407s-.476 3.207-1.947 1.952c-1.556-1.328 1.947-1.952 1.947-1.952zm-21.443-21.31s1.449-2.9 2.457-1.25c1.067 1.745-2.457 1.25-2.457 1.25zm6.189 14.024s-1.882 2.64-2.621.852c-.782-1.891 2.62-.852 2.62-.852zm-3.482-23.583s-2.677 1.83-2.755-.102c-.083-2.044 2.755.102 2.755.102zm9.337-1.707s3.071-1.038 2.624.844c-.474 1.99-2.624-.844-2.624-.844zm-2.379 8.498s2.835-1.573 2.733.359c-.11 2.043-2.733-.359-2.733-.359zm15.441 6.465s-2.159-2.419-.253-2.744c2.017-.345.253 2.744.253 2.744zm-9.017 3.324s-1.47-2.89.455-2.718c2.039.181-.455 2.718-.455 2.718zm10.278-16.402s3.056-1.085 2.637.804c-.443 1.996-2.637-.804-2.637-.804zm.21-9.506s-3.24.098-2.265-1.571c1.034-1.767 2.266 1.57 2.266 1.57zm10.12-18.172s3.192-.566 2.467 1.227c-.766 1.897-2.468-1.227-2.468-1.227zm-11.344 5.886s3.237.193 2.115 1.767c-1.187 1.667-2.115-1.767-2.115-1.767zm28.296 34.326s2.053 2.509.135 2.751c-2.03.259-.135-2.751-.135-2.751zm.55-41.115s-2.997 1.238-2.673-.67c.341-2.016 2.673.67 2.673.67zm-21.855-5.093s2.882 1.486 1.217 2.472c-1.76 1.044-1.217-2.472-1.217-2.472zm5.062 12.994s1.534 2.856-.396 2.728c-2.042-.137.396-2.728.396-2.728zm5.523 7.551s.585 3.189-1.212 2.476c-1.902-.754 1.212-2.476 1.212-2.476zm2.88 7.88s.05 3.242-1.604 2.241c-1.751-1.058 1.605-2.24 1.605-2.24zm4.943-10.272s-.826-3.135 1.02-2.56c1.954.608-1.02 2.56-1.02 2.56zm8.538-4.801s2.196-2.385 2.706-.52c.542 1.974-2.706.52-2.706.52zm-6.897 14.582s2.3-2.285 2.728-.399c.452 1.995-2.728.399-2.728.399zm15.012-.886s-2.812 1.616-2.74-.317c.077-2.045 2.74.317 2.74.317zm-7.776 10.137s3.136.823 1.727 2.149c-1.49 1.402-1.727-2.149-1.727-2.149zm-3.756 22.592s-3.167-.696-1.812-2.076c1.432-1.461 1.812 2.076 1.812 2.076zm-9.166 6.349s-2.956-1.331-1.347-2.405c1.702-1.135 1.347 2.405 1.347 2.405zm-3.337-13.404s2.891 1.469 1.233 2.465c-1.754 1.054-1.233-2.465-1.233-2.465zm-7.746 11.199s-1.144-3.034.752-2.652c2.006.405-.752 2.652-.752 2.652zm3.168-14.89s.39-3.219 1.894-2.003c1.59 1.286-1.894 2.002-1.894 2.002zm-11.358 7.66s-3.234.238-2.33-1.473c.955-1.808 2.33 1.473 2.33 1.473zm-14.982 1.871s-.452-3.21 1.315-2.423c1.87.834-1.315 2.423-1.315 2.423z"/>
    <path fill="url(#linearGradient1082)" stroke="#000" stroke-linejoin="round" stroke-miterlimit="10" d="M148.538 152.067s.829 7.896-3.277 18.91c-2.673 7.171-6.92 13.205-8.402 14.582-3.314 3.076-11.207 6.08-11.207 6.08z"/>
    <path fill="url(#linearGradient1074)" stroke="#000" stroke-linejoin="round" stroke-miterlimit="10" d="M60.18 182.186c-1.065-.415 1.076-2.117 2.727-1.355l-8.942-33.143c-2.6 7.97-1.092 16.811.829 23.729.816 2.94 1.332 5.714 2.249 7.634 1.44 3.015 3.137 3.135 3.137 3.135z"/>
    <path fill="url(#linearGradient1066)" stroke="#000" stroke-linejoin="round" stroke-miterlimit="10" d="M53.965 147.688l1.973-.631 90.272 4.813 2.327.197c0 49.71-69.598 64.143-92.028 18.817-2.958-5.978-4.32-14.32-2.544-23.196z"/>
    <path fill="url(#radialGradient1058)" stroke="#000" stroke-linejoin="round" stroke-miterlimit="10" d="M55.938 147.057s2.073-.665 5.84-.711c9.127-.11 27.043.466 41.111 1.578 10.983.868 22.96 1.15 31.564 1.972 6.966.666 11.758 1.974 11.758 1.974.336 12.126-7.123 26.097-16.256 33.689-16.564 13.768-43.558 14.674-62.106-2.455-8.57-7.914-11.279-17.507-11.911-36.047z"/>
    <path fill="#231f20" d="M124.078 166.782s-1.677 2.774-2.549 1.048c-.923-1.826 2.55-1.048 2.55-1.048zM94.9 185.542s-1.817 2.684-2.599.916c-.828-1.869 2.6-.916 2.6-.916zm-18.356-18.859s2.996 1.24 1.42 2.361c-1.665 1.188-1.42-2.36-1.42-2.36zm44.226-9.563s-.537-3.197 1.25-2.457c1.889.783-1.25 2.457-1.25 2.457zm-10.097 9.934s1.535 2.856-.395 2.728c-2.041-.136.395-2.728.395-2.728zm-10.614 1.365s.87 3.122-.985 2.574c-1.96-.58.985-2.574.985-2.574zM61.683 153.72s1.038-3.071 2.263-1.573c1.294 1.583-2.263 1.573-2.263 1.573zm6.8 3.852s2.552-2 2.756-.076c.216 2.034-2.756.076-2.756.076zm.582 17.215s-.138-3.239 1.544-2.282c1.778 1.01-1.544 2.282-1.544 2.282zm-1.568-12.464s-.234 3.234-1.796 2.092c-1.65-1.206 1.796-2.092 1.796-2.092zm9.98-11.16s3.213-.432 2.413 1.33c-.845 1.862-2.414-1.33-2.414-1.33zm6.266 7.694s-1.148 3.032-2.318 1.491c-1.238-1.629 2.318-1.49 2.318-1.49zm7.44 8.196s.494-3.204 1.958-1.94c1.548 1.337-1.958 1.94-1.958 1.94zm-11.06 16.833s-1.76-2.721.173-2.75c2.046-.031-.172 2.75-.172 2.75zm5.554-5.952s.816-3.137 2.144-1.731c1.405 1.485-2.144 1.731-2.144 1.731zm19.907 14.218s-2.126-2.448-.215-2.748c2.02-.318.215 2.748.215 2.748zm-4.957-11.975s-2.377-2.205-.508-2.709c1.975-.532.508 2.71.508 2.71zm13.868-1.365s1.535 2.856-.396 2.727c-2.04-.136.396-2.727.396-2.727zm8.28-.473s1.896 2.629-.034 2.756c-2.04.135.034-2.756.034-2.756zm7.386-7.862s1.765 2.719-.17 2.75c-2.045.033.17-2.75.17-2.75zm4.507-9.844s-3.166.7-2.518-1.122c.686-1.927 2.518 1.122 2.518 1.122zm-19.366-1.21s2.702 1.792.94 2.59c-1.863.845-.94-2.59-.94-2.59zm-10.245-3.038s-1.423-2.913.5-2.71c2.035.214-.5 2.71-.5 2.71zm-6.659 2.894s2.996 1.239 1.42 2.36c-1.664 1.188-1.42-2.36-1.42-2.36zm-5.247-4.254s-.722-3.16 1.105-2.525c1.932.671-1.105 2.525-1.105 2.525z"/>
</svg>
