<svg xmlns="http://www.w3.org/2000/svg" xmlns:xlink="http://www.w3.org/1999/xlink" cursor="default" viewBox="0 0 256 256">
    <defs>
        <linearGradient id="linearGradient4353">
            <stop offset="0" stop-color="#f55"/>
            <stop offset="1" stop-color="#ff8080"/>
        </linearGradient>
        <linearGradient id="linearGradient4327">
            <stop offset="0" stop-color="#f55"/>
            <stop offset="1" stop-color="#ff8080"/>
        </linearGradient>
        <linearGradient id="linearGradient4333" x1="-220.179" x2="-236.429" y1="126.179" y2="126" gradientTransform="translate(312.642 -4.546)" gradientUnits="userSpaceOnUse" xlink:href="#linearGradient4327"/>
        <linearGradient id="linearGradient4359" x1="-156.964" x2="-132.5" y1="132.429" y2="132.607" gradientTransform="translate(312.642 -4.546)" gradientUnits="userSpaceOnUse" xlink:href="#linearGradient4353"/>
    </defs>
    <path fill="#ff8080" fill-rule="evenodd" stroke="#000" d="M180.098 38.796c5.798 3.534 23.1 122.755 32.187 184.623-7.33.82-14.812 2.787-21.696.267-.158-3.322.08-6.502-.27-11.86-8.862.023-30.04-179.344-10.22-173.03z"/>
    <path fill="none" stroke="#ff2a2a" stroke-width=".4" d="M206.342 223.88c-6.101-57.415-13.858-106.629-26.955-165.982M203.373 224.24c-6.48-58.55-11.135-93.125-24.232-152.477M200.159 224.485c-6.177-58.075-8.857-81.558-20.571-138.258M197.212 224.463c-3.954-33.423-6.785-72.11-17.356-121.361M193.864 224.195c-1.682-15.62-7.142-69.802-13.294-105.29"/>
    <path fill="#ff8080" fill-rule="evenodd" stroke="#000" d="M71.928 225.204c-7.712-.069-15.528.197-22.322-2.857 6.455-60.02 16.132-150.877 21.43-174.464l8.035 72.321z"/>
    <path fill="none" stroke="#ff2a2a" stroke-width=".3" d="M51.856 222.843c6.218-55.11 12.16-112.348 19.893-165.317M54.606 223.624c5.839-55.236 11.258-101.578 18.107-157.073M57.578 224.15c5.586-55.235 10.623-92.073 16.335-147.568M60.415 224.473C66.128 168.858 68.73 143.51 75.2 88.015M63.468 224.667c5.207-54.983 6.69-70.114 12.402-125.483M66.439 224.778c3.726-41.725 5.376-60.945 10.315-115.43M69.465 224.801c2.304-28.72 4.102-60.652 7.163-93.166"/>
    <path fill="none" stroke="#ff2a2a" stroke-width=".4" d="M208.94 221.571c-7.172-59.378-21.71-155.007-29.365-173.481"/>
    <path fill="url(#linearGradient4359)" fill-rule="evenodd" stroke="#000" d="M153.136 20.592c8.014 5.252 17.787 12.077 26.65 18.005-1.772 58.588 1.262 117.088 10.535 173.214-4.498 3.852-15.38 7.25-19.643 10l-13.929-46.964z"/>
    <path fill="#faa" fill-rule="evenodd" stroke="#000" d="M107.642 28.419c.375 62.38-13.853 124.761 9.822 187.142 9.436 1.782 20.136 1.037 30.892.179l1.25-187.679z"/>
    <path fill="#f55" fill-rule="evenodd" stroke="#000" d="M110.637 13.974c1.93-3.582 8.215-3.387 15.305-3.33 7.612.06 15.21.874 15.718 2.507l2.232 17.5c-13.618-3.215-31.486-1.743-36.786.178z"/>
    <path fill="url(#linearGradient4333)" fill-rule="evenodd" stroke="#000" d="M70.767 49.758c-.172-10.933 17.768-18.542 26.875-26.697-1.428 65.239 3.579 129.892-4.285 195.715-3.765-2.134-11.846-3.053-10.935-5.924-2.927-2.668-7.053-3.253-11.028-4.873 0 0 5.967-58.46 5.608-87.775-.289-23.572-6.235-70.446-6.235-70.446z"/>
    <path fill="#faa" fill-rule="evenodd" stroke="#000" d="M93.808 214.877c-.146 1.3-.296 2.599-.452 3.899-3.764-2.134-11.845-3.053-10.934-5.924-2.927-2.668-7.053-3.253-11.028-4.873 0 0 .077-.751.212-2.125 4.492 1.004 9.753 3.155 13.34 5.892-.79 1.998 5.176 2.071 8.862 3.131z"/>
    <path fill="#ff8080" fill-rule="evenodd" stroke="#000" d="M121.392 215.561c1.657 5.858-6.76 22.505-13.214 31.965-8.89-1.288-12.47-14.817-17.5-27.5l3.571-55.179c12.919 17.72 20.554 34.327 27.143 50.714z"/>
    <path fill="#808080" fill-rule="evenodd" stroke="#000" stroke-width=".5" d="M119.577 32.251l.126 4.42c4.44-.994 8.798-1.027 13.069 0l-.063-4.483c-4.312-.637-8.654-.967-13.132.063z"/>
    <path fill="#faa" fill-rule="evenodd" stroke="#000" d="M189.925 209.39c.13.808.263 1.615.396 2.421-4.498 3.852-15.38 7.25-19.643 10l-.892-3.006c3.852-.86 14.924-4.978 20.139-9.414z"/>
    <path fill="#ff8080" fill-rule="evenodd" stroke="#000" d="M145.21 247.414c7.7 2.212 10.5-6.742 12.626-12.627 2.243-6.206 10.348-7.243 15.531-10.86-6.046-16-10.277-32.91-13.637-50.254-20.66 24.684-19.095 49.222-14.52 73.74z"/>
    <path fill="none" stroke="#ff2a2a" stroke-width=".4" d="M92.173 222.621c3.136-15.952 3.812-36.651 4.975-48.673M94.121 227.88c3.137-15.952 4.83-36.046 5.993-48.067M96.108 233.46c3.137-15.953 6-36.512 7.163-48.534M98.362 238.284c3.137-15.952 6.588-36.537 7.75-48.56M100.888 242.298c3.136-15.952 6.903-35.627 8.065-47.649M103.747 245.042c3.137-15.952 7.2-32.5 8.363-44.521M107.57 247.141c3.515-15.636 6.408-29.043 8.202-41.065M113.388 238.481c2.064-9.828 3.747-15.71 5.288-26.66M169.603 225.626c-3.136-15.952-10.441-31.98-11.604-44.001M166.329 227.287c-3.137-15.953-9.945-30.238-11.107-42.26M162.964 228.839c-3.137-15.953-8.663-27.939-9.826-39.961M160.23 230.528c-3.136-15.952-8.644-26.408-9.806-38.43M157.572 234.138c-3.137-15.953-7.375-25.094-8.537-37.116M155.199 240.448c-3.137-15.952-7.148-26.984-8.31-39.006M152.224 245.332c-3.76-15.002-6.257-26.222-7.482-39.723M148.169 247.197c-2.237-9.785-4.32-21.7-5.392-32.767"/>
    <path fill="#faa" fill-rule="evenodd" stroke="#000" d="M121.392 215.561c1.657 5.858-6.76 22.505-13.214 31.965-8.89-1.288-12.47-14.817-17.5-27.5l.186-2.879c5.117 8.668 8.518 23.469 16.706 27.023 5.857-10.488 10.148-17.99 11.682-31.821.39.953 1.758 2.261 2.14 3.212z"/>
    <path fill="#ff8080" fill-rule="evenodd" d="M96.392 141.99c-.05 19.038-4.744 8.538-3.424 27.794 11.185 12.157 18.075 30.724 28.737 46.849-5.236-28.632-7.268-56.664-11.92-86.786z"/>
    <path fill="none" stroke="#ff2a2a" stroke-width=".4" d="M120.29 209.653c-6.27-15.58-15.132-31.29-25.326-43.556M118.903 199.013c-6.017-15.454-12.67-25.23-21.097-37.306M117.135 187.207c-6.27-15.58-10.46-20.495-16.425-29.92M115.746 175.59c-2.481-6.552-7.808-15.128-12.51-22.659M113.726 162.395c-2.482-5.92-4.652-9.888-7.712-14.325M112.021 148.884c-.777-2.195-2.252-4.143-3.419-6.622"/>
    <path fill="none" stroke="#000" d="M96.392 141.99c-.05 19.038-1.458 8.538-3.424 27.794 11.185 12.157 18.075 30.724 28.737 46.849-5.236-28.632-7.268-56.664-11.92-86.786z"/>
    <path fill="#faa" fill-rule="evenodd" stroke="#000" d="M93.705 166.586c.036 1.137-.837 1.749-.737 3.198 11.185 12.157 18.075 30.724 28.737 46.849-.43-2.35-.838-4.694-1.228-7.037-2.244-1.395-17.126-32.623-26.772-43.01z"/>
    <path fill="#ff8080" fill-rule="evenodd" d="M93.073 168.763c7.37-8.706 12.377-19.458 18.17-30.193.282-7.96-11.338-20.211-18.028-30.064-3.94 17.338-1.25 40.167-.142 60.257z"/>
    <path fill="none" stroke="#ff2a2a" stroke-width=".4" d="M145.882 153.928c.777-2.195 2.252-4.143 3.419-6.622"/>
    <path fill="#faa" fill-rule="evenodd" stroke="#000" d="M145.21 247.414c7.7 2.212 10.5-6.742 12.626-12.627 2.243-6.206 10.348-7.243 15.531-10.86-.378-1.001-.75-2.007-1.114-3.016-5.956 2.775-14.157 6.044-16.482 12.802-1.982 5.763-4.142 10.392-8.217 10.44-2.5-11.7-3.156-29.412-2.98-41.72-3.83 15.02-2.159 30.004.635 44.98z"/>
    <path fill="#ff8080" fill-rule="evenodd" d="M143.19 209.028c5.555-14.553 20.476-28.531 20.72-38.194-.108-13.344-11.487-17.596-17.185-25.825-2.706 23.122-2.357 42.68-3.536 64.019z"/>
    <path fill="none" stroke="#ff2a2a" stroke-width=".4" d="M143.8 200.681c6.002-14.776 12.542-19.237 18.273-35.52M144.177 189.978c4.186-9.709 10.523-14.687 15.099-28.783M144.493 180.823c4.502-9.077 8.818-13.676 11.942-23.163M144.809 171.732c2.797-5.226 5.724-8.31 8.848-16.345M145.187 162.388c2.292-4.09 4.336-5.91 6.386-10.79"/>
    <path fill="none" stroke="#000" d="M143.19 209.028c5.555-14.553 20.476-28.531 20.72-38.194-.108-13.344-11.487-17.596-17.185-25.825-2.706 23.122-2.357 42.68-3.536 64.019z"/>
    <path fill="#faa" fill-rule="evenodd" stroke="#000" d="M143.19 209.028c5.555-14.553 20.476-28.531 20.72-38.194-.016-1.944-.271-3.695-.713-5.293-2.768 12.245-14.963 29.46-19.692 37.05a552.531 552.531 0 0 1-.316 6.437z"/>
    <path fill="#ff8080" fill-rule="evenodd" d="M139.687 141.678c9.103 8.641 17.698 17.677 24.21 27.954.01-20.74-.167-41.417-2.146-61.493-7.303 11.217-20.36 18.496-22.064 33.539z"/>
    <path fill="none" stroke="#ff2a2a" stroke-width=".4" d="M91.258 125.468c2.146-2.68 4.246-6.528 9.387-17.229M91.217 132.97c2.967-4.448 5.947-8.954 9.32-15.93M91.503 140.423c3.156-5.774 6.712-9.38 10.716-18.88M91.691 148.737c7.639-11.582 10.033-15.792 14.985-26.808M92.304 156.684c8.338-13.687 10.448-17.758 15.998-28.572M93.014 163.539c5.102-8.65 11.232-19.681 16.199-29.56"/>
    <path fill="none" stroke="#000" d="M93.073 168.763c7.37-8.706 12.377-19.458 18.17-30.193.282-7.96-11.338-20.211-18.028-30.064-3.94 17.338-1.25 40.167-.142 60.257z"/>
    <path fill="#faa" fill-rule="evenodd" stroke="#000" d="M93.073 168.763c7.37-8.706 12.377-19.458 18.17-30.193.04-1.134-.161-2.355-.555-3.643-6.855 15.326-15.636 28.257-17.873 29.507.092 1.455.18 2.9.258 4.33z"/>
    <path fill="#ff8080" fill-rule="evenodd" d="M96.437 23.374C91.66 49.91 86.288 77.298 81.749 107.347c5.938 5.67 12.9 8.292 17.813 17.01 2.49 2.54 6.036 4.832 7.455 7.053 1.433 3.135 3.165 4.857 4.49 10.223-.358-43.216-.062-85.84-.115-128.75-4.985 3.497-13.736 6.415-14.955 10.491z"/>
    <path fill="none" stroke="#ff2a2a" stroke-width=".4" d="M162.663 123.832c-2.42-2.435-4.984-6.667-8.275-10.316M163.192 131.854c-3.426-4.104-7.25-8.707-11.984-15.028M163.39 139.737c-3.756-5.402-8.183-9.806-14.382-18.318M163.4 147.391c-6.563-7.16-8.574-10.711-15.435-19.302M163.643 155.359c-6.86-9.525-11.782-15.25-20.042-22.148M163.671 162.25c-6-8.053-13.592-17.29-21.546-24.117"/>
    <path fill="none" stroke="#000" d="M139.687 141.678c9.103 8.641 17.698 17.677 24.21 27.954.01-20.74-.167-41.417-2.146-61.493-7.303 11.217-20.36 18.496-22.064 33.539z"/>
    <path fill="#faa" fill-rule="evenodd" stroke="#000" d="M139.687 141.678c9.103 8.641 17.698 17.677 24.21 27.954 0-1.484 0-2.968-.002-4.45-4.1-5.477-15.934-18.747-23.712-26.453.007 1.226-.54 1.843-.496 2.949z"/>
    <path fill="#ff8080" fill-rule="evenodd" d="M139.454 11.86c2.506 43.623 2.128 86.328.268 128.943 3.988-3.333 11.978-7.905 12.343-11.641 1.428-14.594 14.439-17.484 22.72-20.922-11.74-31.19-15.088-58.686-21.428-87.5-4.613-3.067-9.035-8.195-13.903-8.88z"/>
    <path fill="#ff2a2a" fill-rule="evenodd" d="M85.436 212.32c.097.07.203.132.316.184.617-.524.942-1.598 1.126-2.862.2-1.388.251-3.155.228-5.072-.046-3.806-.39-8.375-.446-11.776-.059 3.585.175 7.802.106 11.775-.033 1.916-.14 3.65-.391 4.99-.242 1.29-.596 2.105-1.04 2.422.044.108.078.221.101.339zM177.913 200.442c-1.99-4.955-2.723-10.122-3.203-15.35-.85-6.132-1.349-12.395-3.11-18.49 1.502 6.142 1.74 12.41 2.329 18.58.745 5.246 1.744 10.389 3.984 15.26zM85.61 183.269a144.22 144.22 0 0 0-.035-9.647c-.412-3.79-.982-7.557-1.732-11.314.508 3.797.834 7.582 1 11.37.364 3.176.616 6.37.767 9.591z"/>
    <path fill="none" stroke="#ff2a2a" stroke-width=".4" d="M111.392 134.847c-6.43-13.83-18.325-23.33-28.75-30.803M111.538 129.217c-6.43-13.83-18.325-23.33-28.75-30.804M111.45 123.592c-6.432-13.83-17.344-22.617-27.769-30.09M111.36 116.27c-7.324-12.267-16.272-21.143-26.697-28.616M111.404 109.306c-7.457-12.625-15.155-20.25-25.58-27.723M111.27 101.85c-7.1-11.062-14.039-18.598-24.464-26.07M111.628 94.574c-6.476-9.59-13.46-17.08-23.884-24.554M111.36 86.672c-6.208-8.92-12.165-15.607-22.59-23.08M111.36 79.127C103.724 68.87 100.356 65.083 89.93 57.61M111.494 71.538c-6.52-8.562-9.53-11.991-19.956-19.464M111.45 64.038c-5.673-8.071-8.148-10.83-18.572-18.304M111.315 57.208c-4.288-7.268-7.521-10.697-17.366-17.456M111.45 50.958c-4.914-6.866-6.273-9.536-16.697-17.01M111.404 44.306c-4.51-7.312-8.905-8.598-15.58-16.607M111.27 36.761c-4.645-4.589-9.44-7.17-14.196-14.42M111.45 28.77c-5.717-3.919-8.326-6.768-9.644-10.178M111.494 22.297c-2.324-1.955-3.683-3.822-4.554-6.563"/>
    <path fill="none" stroke="#000" d="M96.437 23.374C91.66 49.91 86.288 77.298 81.749 107.347c5.938 5.67 12.9 8.292 17.813 17.01 2.49 2.54 6.036 4.832 7.455 7.053 1.433 3.135 3.165 4.857 4.49 10.223-.358-43.216-.062-85.84-.115-128.75-4.985 3.497-13.736 6.415-14.955 10.491z"/>
    <path fill="none" stroke="#ff2a2a" stroke-width=".4" d="M140.131 134.285c10.787-4.675 5.888-21.815 32.412-31.372M140.427 128.023c5.042-2.34 6.961-21.941 30.455-30.109M140.516 121.893c6.747-15.787 19.3-25.141 28.336-29.9M140.669 114.32c7.323-12.268 15.45-20.765 26.822-27.922M140.94 107.229c7.457-12.625 14.777-18.798 25.201-26.271M141.074 99.9c7.1-11.062 13.155-17.147 23.58-24.62M141.095 92.623c6.476-9.589 11.944-15.187 22.37-22.66M141.048 84.532c6.207-8.92 10.775-12.956 21.2-20.429M141.237 77.05c7.636-10.258 9.236-11.772 19.66-19.245M141.166 69.398c6.52-8.562 8.079-10.35 18.503-17.823M141.021 62.213c5.672-8.07 7.01-9.378 17.435-16.851M140.966 55.888c4.288-7.267 6.448-9.37 16.293-16.13M140.706 49.575c4.913-6.866 9.428-10.862 15.497-15.683M140.561 43.68c3.564-5.544 7.77-7.398 14.444-15.407M140.695 36.136c4.645-4.589 8.431-6.223 13.186-13.472M140.516 28.145c5.717-3.92 8.136-6.326 9.454-9.737M140.472 21.672c2.323-1.955 3.998-4.2 4.869-6.941"/>
    <path fill="none" stroke="#000" d="M139.454 11.86c2.506 43.623 2.128 86.328.268 128.943 3.988-3.333 11.978-7.905 12.343-11.641 1.428-14.594 14.439-17.484 22.72-20.922-11.74-31.19-15.088-58.686-21.428-87.5-4.613-3.067-9.035-8.195-13.903-8.88z"/>
    <path fill="#faa" fill-rule="evenodd" stroke="#000" d="M71.928 225.204c-7.712-.069-15.528.197-22.321-2.857l.442-4.117c5.423 2.7 16.412 3.837 22.208 2.143zM211.647 219.073l.638 4.346c-7.33.82-14.812 2.787-21.696.267-.06-1.265-.063-2.51-.063-3.862 6.17 2.977 15.623 1.632 21.12-.751zM82.121 104.905a1146.9 1146.9 0 0 0-.372 2.442c5.938 5.67 12.9 8.292 17.813 17.01 2.49 2.54 6.036 4.832 7.455 7.053 1.433 3.135 3.165 4.857 4.49 10.223l-.045-5.944c-.567-1.134-1.76-4.196-2.828-6.113-1.794-2.27-4.555-4.186-7.166-6.865-1.718-4.632-14.17-14.427-19.347-17.806zM139.84 138.05l-.118 2.753c3.988-3.333 11.978-7.905 12.343-11.641 1.428-14.594 14.439-17.484 22.72-20.922-.232-.617-.461-1.233-.687-1.847-20.138 6.64-21.818 13.426-24.149 22.276-.987 3.749-8.042 7.848-10.109 9.382z"/>
    <path fill="#ff8080" fill-rule="evenodd" d="M126.071 210.643a100.789 100.789 0 0 1-1.791-10.111c-3.573-19.392-1.974-39.46-2.137-59.175-.163 19.627-2.093 39.812 1.173 59.344a102.164 102.164 0 0 0 2.755 9.942zM137.857 186.357c-.626-7.136-.925-14.317-1.018-21.518-.713-19.46.071-39.11-.053-58.482-.125 19.341-1.158 39.03-.693 58.505.342 7.21.89 14.383 1.764 21.495z"/>
</svg>
