<svg xmlns="http://www.w3.org/2000/svg" cursor="default" viewBox="0 0 256 256">
    <path fill="#f55" fill-rule="evenodd" stroke="#000" d="M102.946 17.607c15.593 1.806 29.556 2.886 42.322-.49 5.665.134 6.908 3.717 8.214 6.65-21.18 12.766-38.402 6.729-55.893 1.965z"/>
    <path fill="#ff8080" fill-rule="evenodd" stroke="#000" d="M38.527 243.737c2.85-69.342 1.197-193.592 27.98-202.453 9.283-3.071 16.3-6.382 23.65-10.295l74.245 2.272c8.428 4.019 13.949 7.425 25.507 12.122 23.896 9.711 22.707 157.858 18.877 201.084-7.112 1.66-18.002.4-23.943.247-1.272-2.713.681-23.738-1.662-49.399-3.175-34.767-11.491-66.059-2.11-107.386-12.054 37.738 2.124 87.17 3.014 138.995-22.724 5.063-80.913 9.525-116.982.974-.726-38.883 6.67-45.262 9.313-98.72.711-14.382.325-22.106-1.739-40.31 1.515 23.992 2.377 33.553-1.235 68.155-3.625 34.714-9.312 60.054-6.478 85.37-5.373-.263-18.223.318-28.437-.656z"/>
    <path fill="#faa" fill-rule="evenodd" stroke="#000" d="M38.598 242.13c-.176 2.12-.829 3.803.41 6.178 2.012 2.408 18.294 1.668 26.661 1.768 2.019-1.807 1.553-4.577.967-7.045-9.624.478-19.237.925-28.038-.9zM184.526 245.334c.203 2.497.024 3.296.694 4.22 2.691 1.943 15.86 1.769 21.99.6 1.45-1.934 1.678-1.8 1.66-5.372-6.884 2.056-15.842 1.083-24.344.552zM66.747 228.31c-.176 2.12.778 3.892 2.195 5.062 3.435 7.624 107.426 5.406 114.359.246.947-2.253 1.374-3.06.788-5.527-7.26 4.899-104.735 6.842-117.342.22z"/>
    <path fill="none" stroke="#ff2a2a" stroke-dasharray=".75,.75" stroke-width="1.5" d="M41.506 242.646l.037-.728c3.221-63.848 1.669-188.566 24.549-196.889 9.162-3.333 13.328-8.436 24.57-11.515"/>
    <path fill="none" stroke="#ff2a2a" stroke-dasharray=".75,.75" stroke-width="1.5" d="M45.742 243.14c3.271-63.622 1.262-187.833 24.23-196.188 9.161-3.333 11.364-9.329 22.604-12.408"/>
    <path fill="none" stroke="#ff2a2a" stroke-dasharray=".75,.75" stroke-width="1.5" d="M50.564 243.32c3.27-63.623 1.619-185.96 20.836-194.136 8.971-3.816 11.543-10.31 22.784-13.39"/>
    <path fill="none" stroke="#ff2a2a" stroke-dasharray=".75,.75" stroke-width="1.5" d="M55.474 243.32c1.435-27.905 2.754-66.163 4.035-101.445 1.64-45.162 3.901-85.221 13.587-90.012 8.74-4.322 11.543-11.56 22.784-14.64"/>
    <path fill="none" stroke="#ff2a2a" stroke-dasharray=".75,.75" stroke-width="1.5" d="M60.564 243.409c.269-37.405 3.454-68.456 4.655-104.378 1.386-41.427 2.387-78.35 10.288-83.686 8.08-5.456 10.65-14.06 21.89-17.14"/>
    <path fill="none" stroke="#ff2a2a" stroke-dasharray=".75,.75" stroke-width="1.5" d="M64.85 243.32c-1.656-42.644 5.21-72.334 6.04-107.154.914-38.242-.875-68.213 3.903-74.035 6.185-7.536 13.775-20.043 25.016-23.123M207.484 244.44c-.057-73.087 1.91-189.578-19.094-197.933-9.059-3.604-13.328-8.436-24.57-11.515"/>
    <path fill="none" stroke="#ff2a2a" stroke-dasharray=".75,.75" stroke-width="1.5" d="M203.752 245.06c-1.842-64.872 4.44-188.275-18.527-196.63-9.162-3.333-12.079-9.329-23.32-12.408"/>
    <path fill="none" stroke="#ff2a2a" stroke-dasharray=".75,.75" stroke-width="1.5" d="M199.625 245.365c-.4-54.142-2.685-73.661-1.947-105.955 1.028-44.996-4.02-84.248-14.596-88.748-8.971-3.817-11.543-10.31-22.784-13.39"/>
    <path fill="none" stroke="#ff2a2a" stroke-dasharray=".75,.75" stroke-width="1.5" d="M195.346 245.302c.35-64.333-4.627-75.596-3.408-111.77 1.522-45.167-.866-75.4-10.553-80.191-8.738-4.322-11.542-11.561-22.783-14.64"/>
    <path fill="none" stroke="#ff2a2a" stroke-dasharray=".75,.75" stroke-width="1.5" d="M191.014 245.139c2.767-49.369-5.954-78.736-4.787-113.559 1.448-43.21.65-69.422-7.252-74.757-8.08-5.456-10.65-14.061-21.89-17.14"/>
    <path fill="none" stroke="#ff2a2a" stroke-dasharray=".75,.75" stroke-width="1.5" d="M186.476 244.986c2.548-65.678-7.333-83.799-5.742-118.593 1.766-38.598 3.733-56.963-1.045-62.785-6.185-7.536-13.775-20.043-25.016-23.122"/>
    <path fill="none" stroke="#ff2a2a" stroke-dasharray=".75,.75" stroke-width="1.5" d="M180.283 228.698c-1.655-42.643-6.773-52.316-7.47-84.046-.967-44.139 4.94-54.871 5.025-82.466"/>
    <path fill="none" stroke="#ff2a2a" stroke-dasharray=".75,.75" stroke-width="1.5" d="M174.806 229.66c-1.655-42.644-3.962-52.389-6.22-84.047-1.093-15.349 2.599-55.342 3.677-91.41M168.913 230.017c-1.655-42.643-2.712-52.21-4.97-83.868-1.093-15.35 2.917-75.394 1.297-99.233M162.663 230.552c-1.655-42.643-1.284-52.566-3.54-84.225-1.095-15.349.455-53.112 1.311-102.839M156.056 230.91c-1.655-42.644-.927-52.032-3.183-83.69-1.095-15.349 1.58-79.502 1.714-105.509M148.936 231.89c-1.656-42.644-.034-60.246-2.291-91.904-1.094-15.35 1.202-69.69 1.336-95.697M142.923 231.754c-1.655-42.643-1.532-68.567-2.29-100.296-.38-15.885-.174-59.89-.04-85.897M135.692 231.828c-1.656-42.643.306-63.203-.083-94.94-.202-16.42-.667-64.554-.533-90.56M71.714 228.877c1.655-42.643 6.773-52.316 7.469-84.047.968-44.138-4.434-53.608-4.52-81.202"/>
    <path fill="none" stroke="#ff2a2a" stroke-dasharray=".75,.75" stroke-width="1.5" d="M77.19 229.838c1.656-42.643 3.963-52.388 6.22-84.046 1.094-15.35-2.598-53.07-3.676-89.137M83.083 230.195c1.656-42.643 2.713-52.21 4.97-83.867 1.094-15.35-2.916-75.394-1.296-99.234M89.333 230.73c1.656-42.642 1.285-52.566 3.541-84.224 1.094-15.349-.455-53.112-1.311-102.839M95.94 231.088c1.656-42.643.928-52.03 3.184-83.689 1.094-15.35-1.455-81.144-1.588-107.15M103.061 232.068c1.655-42.643.034-60.245 2.29-91.904 1.095-15.349-.949-71.962-1.083-97.97M109.073 231.933c1.656-42.643 1.533-68.567 2.291-100.297.38-15.885-.584-61.531-.717-87.538M115.295 232.007c1.655-42.643 1.84-63.203 2.23-94.94.2-16.42.287-65.438.153-91.445M122.086 232.141c1.656-42.643 1.84-62.95 2.23-94.686.201-16.42-.47-65.186-.604-91.193M128.798 232.015c1.655-42.643.325-62.824.714-94.56.202-16.42.288-65.06.154-91.067"/>
    <path fill="#ff8080" fill-rule="evenodd" stroke="#000" d="M89.714 31.494c18.407 21.07 64.127 17.205 74.436 1.894-4.062-5.198-11.186-15.826-13.07-15.91l-4.418-.253c17.61 13.955-58.86 15.298-43.121.505l-3.157-.379c-2.074-.05-7.113 9.429-10.67 14.143z"/>
    <path fill="none" stroke="#ff2a2a" stroke-dasharray=".75,.75" stroke-width="1.5" d="M91.372 32.335c3.667-4.384 7.627-14.594 10.377-13.604M94.535 35.241c3.668-4.384 4.28-10.49 6.905-11.71M99.65 38.398c3.666-4.384 2.691-8.798 4.936-12.353M105.165 41.343c2.594-4.89 2.603-8.263 4.47-13.586M112.833 43.652c1.9-5.457 2.4-8.51 4.077-15.033M162.331 34.547c-5.006-4.786-10.082-16.38-12.832-15.39M158.364 38.034c-3.578-4.697-7.629-11.785-9.806-14.165M151.817 41.454c-3.355-5.455-6.17-9.106-8.504-15.028M142.432 44.123c-1.824-5.38-2.818-9.233-4.881-16.341M132.96 45.418c-.886-6.981-1.579-8.619-2.266-16.774M121.381 45.15c1.555-6.759 1.132-8.039 1.82-16.195"/>
</svg>
