<?xml version="1.0" encoding="UTF-8"?>
<svg cursor="default" version="1.1" viewBox="0 0 256 256" xmlns="http://www.w3.org/2000/svg" xmlns:xlink="http://www.w3.org/1999/xlink">
 <defs>
  <linearGradient id="linearGradient16884">
   <stop stop-color="#803300" offset="0"/>
   <stop stop-color="#d45500" stop-opacity=".37849" offset="1"/>
  </linearGradient>
  <linearGradient id="linearGradient16886" x1="187.55" x2="177.39" y1="221.87" y2="198.75" gradientTransform="matrix(1.1025 0 0 1.1025 -13.524 -14.328)" gradientUnits="userSpaceOnUse" xlink:href="#linearGradient16884"/>
  <linearGradient id="linearGradient18511" x1="61.288" x2="76.756" y1="223.23" y2="203.58" gradientTransform="matrix(1.1025 0 0 1.1025 -13.282 -13.277)" gradientUnits="userSpaceOnUse" xlink:href="#linearGradient16884"/>
  <linearGradient id="linearGradient28426" x1="128.77" x2="131.25" y1="207.15" y2="23.638" gradientTransform="matrix(1.1025 0 0 1.1025 -13.282 -13.277)" gradientUnits="userSpaceOnUse">
   <stop stop-color="#eacd5b" offset="0"/>
   <stop stop-color="#ffe479" offset="1"/>
  </linearGradient>
  <linearGradient id="linearGradient30319" x1="68.219" x2="68.841" y1="16.174" y2="26.749" gradientTransform="matrix(1.1025 0 0 1.1025 -13.282 -13.277)" gradientUnits="userSpaceOnUse" xlink:href="#linearGradient16884"/>
  <linearGradient id="linearGradient30858" x1="68.219" x2="68.841" y1="16.174" y2="26.749" gradientTransform="matrix(-1.1025 0 0 1.1025 269.28 -13.306)" gradientUnits="userSpaceOnUse" xlink:href="#linearGradient16884"/>
  <linearGradient id="linearGradient15756" x1="27.25" x2="42.344" y1="1.9688" y2="2.4219" gradientTransform="translate(265.77 101.61)" gradientUnits="userSpaceOnUse">
   <stop stop-color="#b3b3b3" offset="0"/>
   <stop stop-color="#e6e6e6" offset=".7074"/>
   <stop stop-color="#b3b3b3" offset="1"/>
  </linearGradient>
  <linearGradient id="linearGradient17538" x1="29.188" x2="40.75" y1="19.312" y2="19.5" gradientTransform="translate(265.77 101.61)" gradientUnits="userSpaceOnUse">
   <stop stop-color="#1a1a1a" stop-opacity=".12" offset="0"/>
   <stop stop-color="#ececec" stop-opacity=".16" offset=".73008"/>
   <stop stop-color="#1a1a1a" stop-opacity=".08" offset="1"/>
  </linearGradient>
  <linearGradient id="linearGradient16598" x1="27.688" x2="41.101" y1="61.253" y2="60.922" gradientTransform="translate(265.77 101.61)" gradientUnits="userSpaceOnUse">
   <stop stop-color="#999" offset="0"/>
   <stop stop-color="#ccc" offset=".73688"/>
   <stop stop-color="#999" offset="1"/>
  </linearGradient>
  <linearGradient id="linearGradient884" x1="23.233" x2="31.559" y1="15.043" y2="12.841" gradientUnits="userSpaceOnUse">
   <stop stop-color="#bacac8" offset="0"/>
   <stop stop-color="#dbe3e2" offset="1"/>
  </linearGradient>
  <linearGradient id="linearGradient876" x1="22.436" x2="42.244" y1="49.522" y2="23.749" gradientUnits="userSpaceOnUse">
   <stop stop-color="#ff6c0a" offset="0"/>
   <stop stop-color="#ff761a" offset="1"/>
  </linearGradient>
  <linearGradient id="linearGradient928" x1="28.678" x2="33.356" y1="9.3559" y2="7.661" gradientTransform="translate(.20339 .20339)" gradientUnits="userSpaceOnUse">
   <stop stop-color="#bb9706" offset="0"/>
   <stop stop-color="#e4b808" offset="1"/>
  </linearGradient>
  <linearGradient id="linearGradient4351" x1="-38.208" x2="-26.563" y1="55.788" y2="29.79" gradientTransform="matrix(1.174 -.0062576 .0062576 1.174 415.78 60.437)" gradientUnits="userSpaceOnUse">
   <stop stop-color="#fa7800" offset="0"/>
   <stop stop-color="#ff9818" offset="1"/>
  </linearGradient>
  <linearGradient id="linearGradient1054" x1="85.559" x2="101.97" y1="54.644" y2="31.051" gradientTransform="matrix(1.1392 0 0 1.1392 327.54 42.604)" gradientUnits="userSpaceOnUse">
   <stop stop-color="#d95a1d" offset="0"/>
   <stop stop-color="#ef783f" offset="1"/>
  </linearGradient>
  <linearGradient id="linearGradient855" x1="18.847" x2="38.508" y1="57.831" y2="30.576" gradientTransform="translate(384.97 2.9696)" gradientUnits="userSpaceOnUse">
   <stop stop-color="#fceeb8" offset="0"/>
   <stop stop-color="#fdf1c5" offset="1"/>
  </linearGradient>
 </defs>
 <g stroke="#000">
  <g>
   <g stroke-linecap="square">
    <path d="m56.225 239.03v7.6583l6.8582-0.0571-0.05715-7.4869z" fill="#666"/>
    <path d="m192.58 238.92v7.6583l6.8582-0.0571-0.0571-7.4869z" fill="#666"/>
    <path d="m54.772 234.86 0.04962 5.1855 146.06-0.18532 0.0306-5.6289z" fill="#806600"/>
   </g>
   <g stroke-linecap="round" stroke-linejoin="round">
    <rect x="53.318" y="9.0305" width="149.36" height="225.99" rx="3.4048" ry="0" fill="url(#linearGradient28426)" stroke-width="1.1025"/>
    <path d="m162.92 158.39c2.8487-1.0052 5.8855-1.6968 7.4163-4.8985l8.5062-4.558c1.5626 0.74756 3.1252 0.27981 4.6878-0.32329l2.0362 5.63c-2.2071 0.17822-3.8655 1.0148-5.3141 2.1031-3.7035 3.3771-8.7321 4.0958-9.5732 8.836z" fill="#540" stroke-width=".55125"/>
    <g transform="matrix(.75341 -.15855 .15855 .75341 -323.09 89.04)" fill="none" stroke-width="7.1599">
     <path d="m499.62 31.829c0.0203 9.5433-0.57352 18.933-1.6588 28.2"/>
     <path d="m499.1 47.691c5.192-1.169 10.466-2.5251 14.722-1.5551"/>
     <path d="m514.75 32.347c0.0612 9.3548-1.191 18.381-2.1772 27.474"/>
     <path d="m519.63 59.407c0.92914-20.539 18.231-48.864 16.122 0-1.1613-5.8389-5.4758-9.4521-13.685-10.316"/>
     <path d="m594.66 59.369c0.92914-20.539 18.231-48.864 16.122 0-1.1613-5.8389-5.4758-9.4521-13.685-10.316"/>
     <path d="m541.04 32.295c13.187-0.07062 24.697-0.26741 9.6419 14.256-19.276 18.595 1.1125 13.011 8.8125 12.493"/>
     <path d="m564.42 59.459c1.0993-9.0979 3.0493-18.082 6.2206-26.904 1.6114 8.8855 3.449 17.703 6.428 26.178 2.1546-8.9159 4.5681-17.677 7.4129-26.178 1.2523 8.8505 2.6822 17.634 5.0283 26.075"/>
     <g transform="translate(-19.284 .51838)">
      <path d="m633.98 33.073c13.022-1.1706 13.077-0.95022 18.558-1.1404"/>
      <path d="m643.42 32.865c0.16648 9.0544-0.0295 18.109-0.4147 27.163"/>
     </g>
    </g>
   </g>
  </g>
  <path d="m60.27 67.734 0.15185 77.051 110.7 0.25139c6.5982-15.793 12.606-49.627 11.844-76.925z" fill="#dbe2e3" stroke-linecap="square" stroke-width="1.8845"/>
 </g>
 <g transform="matrix(.25432 .10725 -.10725 .25432 22.003 69.321)">
  <path d="m266.57 155.46 28.927-11.759s5.5628 3.4443 8.3706 2.297c3.314-1.3557 5.6943-6.3595 3.8241-9.5809-1.3534-2.3324-7.9561-2.9101-7.9561-2.9101s2.8217-6.1478 0.69627-8.478c-2.2952-2.5172-7.6509-2.9684-10.169-1.1698-2.5031 1.7858-1.9722 5.6183-1.9722 5.6183l-28.296 11.254s-5.8511-3.4578-8.8708-1.4552c-2.6596 1.7653-4.8147 7.3639-2.5005 9.9826 1.7842 2.0181 7.4445 2.653 7.4445 2.653s-4.9434 5.876-2.8882 8.1898c2.7144 3.0549 9.1961 5.4354 11.665 2.7492 1.9682-2.7842 1.5848-4.1097 1.7246-7.3905z" fill="#d6a67f" fill-rule="evenodd" stroke="#000" stroke-width=".4"/>
  <path d="m265.46 154.03 29.844-12.165s4.9806 3.0838 7.4945 2.0566c2.9672-1.2138 5.0983-5.6939 3.4239-8.5781-1.2117-2.0883-7.1234-2.6055-7.1234-2.6055s2.5264-5.5044 0.6234-7.5907c-2.055-2.2537-6.8502-2.6577-9.1045-1.0473-2.2411 1.5989-1.7658 5.0302-1.7658 5.0302l-29.279 11.713s-5.2387-3.0959-7.9424-1.3029c-2.3813 1.5806-4.3108 6.5932-2.2388 8.9378 1.5974 1.8069 6.6654 2.3754 6.6654 2.3754s-4.426 5.261-2.5859 7.3327c2.4303 2.7352 8.2336 4.8665 10.444 2.4615 1.7622-2.4928 1.419-3.6795 1.5441-6.617z" fill="#f9f9f9" fill-rule="evenodd" stroke="#000" stroke-width=".4"/>
  <path d="m255.73 151.29 0.18036 0.14922c0.42868-0.51816 1.2119-1.5647 2.0269-2.2803 0.90957-0.7986 1.7995-1.1572 2.5491-1.3013-0.75663 0.14551-1.6607 0.3832-2.6941 1.1176-0.92778 0.6593-1.8051 1.6367-2.2426 2.1656l0.18036 0.14922z"/>
  <path d="m299.81 132.86c-0.0828-0.013-0.30412-0.27297-0.38886-0.28211-1.1348-0.12244-2.5419-7e-3 -4.4253 0.5219-1.8116 0.50841-3.4313 1.1314-4.177 1.3104 0.74576-0.17898 2.4137-0.6873 4.2349-1.0761 1.9296-0.41194 3.2105-0.42082 4.3183-0.30128 0.0805 9e-3 0.35518-0.1858 0.43794-0.1728z"/>
  <g stroke="#000" stroke-linecap="round" stroke-linejoin="round" stroke-width=".14071">
   <g transform="translate(245.56 110.96)">
    <rect transform="rotate(206.02)" x="-32.661" y="-20.583" width="3.0692" height=".8432" ry=".4216" fill="#ed4646"/>
    <rect transform="rotate(152.79)" x="-13.672" y="-42.412" width="3.0692" height=".8432" ry=".4216" fill="#8ce6ef"/>
    <rect transform="rotate(83.769)" x="36.952" y="-20.443" width="3.0692" height=".8432" ry=".4216" fill="#ffbd21"/>
    <rect transform="rotate(137.68)" x="-12.948" y="-45.618" width="3.0692" height=".8432" ry=".4216" fill="#57e152"/>
    <rect transform="rotate(174.39)" x="-38.371" y="-35.174" width="3.0692" height=".8432" ry=".4216" fill="#ffbd21"/>
    <rect transform="rotate(6.3782)" x="32.051" y="22.728" width="3.0692" height=".8432" ry=".4216" fill="#ffbd21"/>
    <rect transform="rotate(65.391)" x="42.2" y="2.7769" width="3.0692" height=".8432" ry=".4216" fill="#57e152"/>
   </g>
   <g transform="translate(245.56 110.96)" fill="#ed4646">
    <rect transform="rotate(183.56)" x="-12.339" y="-32.846" width="3.0692" height=".8432" ry=".4216"/>
    <rect transform="rotate(182.17)" x="-49.562" y="-24.786" width="3.0692" height=".8432" ry=".4216"/>
    <rect transform="rotate(96.645)" x="31.926" y="-22.993" width="3.0692" height=".8432" ry=".4216"/>
   </g>
   <g transform="translate(245.56 110.96)">
    <rect transform="rotate(127.91)" x="17.284" y="-30.485" width="3.0692" height=".8432" ry=".4216" fill="#ffbd21"/>
    <rect transform="rotate(50.669)" x="32.443" y="15.65" width="3.0692" height=".8432" ry=".4216" fill="#57e152"/>
    <rect transform="rotate(178.75)" x="-13.764" y="-45.133" width="3.0692" height=".8432" ry=".4216" fill="#ffbd21"/>
    <rect transform="rotate(155.4)" x="3.2899" y="-48.915" width="3.0692" height=".8432" ry=".4216" fill="#ed4646"/>
    <rect transform="rotate(80.488)" x="39.882" y="-14.513" width="3.0692" height=".8432" ry=".4216" fill="#8ce6ef"/>
    <rect transform="rotate(127.91)" x="8.5612" y="-38.503" width="3.0692" height=".8432" ry=".4216" fill="#ed4646"/>
    <rect transform="rotate(16.455)" x="36.178" y="25.917" width="3.0692" height=".8432" ry=".4216" fill="#57e152"/>
    <rect transform="rotate(244.54)" x="-45.358" y="17.216" width="3.0692" height=".8432" ry=".4216" fill="#ed4646"/>
    <rect transform="rotate(34.669)" x="40.749" y="2.0305" width="3.0692" height=".8432" ry=".4216" fill="#ed4646"/>
    <rect transform="rotate(127.91)" x="-5.9799" y="-51.12" width="3.0692" height=".8432" ry=".4216" fill="#8ce6ef"/>
    <rect transform="rotate(96.83)" x="23.123" y="-47.852" width="3.0692" height=".8432" ry=".4216" fill="#57e152"/>
    <rect transform="rotate(174.81)" x="-42.523" y="-25.77" width="3.0692" height=".8432" ry=".4216" fill="#ed4646"/>
    <rect transform="rotate(183.36)" x="-55.728" y="-23.496" width="3.0692" height=".8432" ry=".4216" fill="#ffbd21"/>
    <rect transform="rotate(37.334)" x="58.399" y="-9.4489" width="3.0692" height=".8432" ry=".4216" fill="#8ce6ef"/>
    <rect transform="rotate(148.37)" x="-36.374" y="-53.121" width="3.0692" height=".8432" ry=".4216" fill="#57e152"/>
    <rect transform="rotate(10.44)" x="50.531" y="9.7516" width="3.0692" height=".8432" ry=".4216" fill="#57e152"/>
    <rect transform="rotate(211.1)" x="-50.363" y="10.686" width="3.0692" height=".8432" ry=".4216" fill="#ffbd21"/>
    <rect transform="rotate(95.08)" x="10.283" y="-53.087" width="3.0692" height=".8432" ry=".4216" fill="#ed4646"/>
   </g>
  </g>
 </g>
 <g transform="matrix(.41603 0 0 .41603 -79.226 92.885)">
  <path d="m429.5 54.271 0.0273-4.8501c2.5667-0.36027 6.9293-0.28582 9.2849-0.09323v4.965c-3.1041-0.2197-6.2081-0.12205-9.3122-0.02166z" fill="#36363d" stroke="#000" stroke-linecap="round" stroke-linejoin="round" stroke-width=".5696"/>
  <path d="m422.07 107.33c0 2.0279 1.6226 3.1013 2.4442 3.1572 6.3622 0.43261 12.709 0.65574 18.999 0.0772 1.0146-0.0933 2.7838-1.3102 2.7851-3.0355l0.0227-30.127c4e-3 -4.9633-6.9014-4.8088-6.7852-7.8571l-0.0951-3.2643c-3.5549-1.4259-6.3862-1.3976-10.39-3.6352-9e-3 0.22742-0.0161 0.46198-0.0204 0.70448l-0.10922 6.1677c-0.19242 3.1365-6.8511 2.7043-6.8511 7.8458z" fill="url(#linearGradient1054)"/>
  <path d="m422.07 107.33c0 2.0279 1.6233 3.0924 2.4442 3.1572 6.407 0.50564 12.738 0.51817 18.999 0.0772 1.0164-0.0716 2.7838-1.3102 2.7851-3.0355l0.0227-30.127c4e-3 -4.9633-6.9014-4.8088-6.7852-7.8571l-0.17983-6.1724c-0.0975-3.3449-0.69441-5.3429-0.75359-7.4105 1.166 0.04644 1.095-1.6715 0.11391-1.6734l-9.3094-0.01793c-0.85695-0.0016-1.0753 1.7299 0.2317 1.7764-0.0273 2.2477-0.55127 4.0716-0.6085 7.3029l-0.10922 6.1677c-0.19242 3.1365-6.8511 2.7043-6.8511 7.8458z" fill="#e1f9f9" fill-opacity=".12549"/>
  <g transform="translate(401.72 48.127)" stroke="#000" stroke-linecap="round" stroke-linejoin="round">
   <path d="m37.635 15.241c-0.09746-3.3449-0.69441-5.3429-0.75359-7.4105 1.166 0.046445 1.0925-1.6036 0.11391-1.6734-3.1032-0.22139-6.2063-0.15367-9.3094-0.017931-0.85613 0.037445-1.0753 1.7299 0.2317 1.7764-0.02731 2.2477-0.55127 4.0716-0.6085 7.3029 4.6188 0.5543 7.5549 0.24105 10.326 0.02261z" fill="#2d2d37" stroke-width=".2848"/>
   <path d="m20.388 56.881c7.3347 0.57828 15.492 0.51682 24.135 0.07724l0.15446-25.41c-8.0577 0.05186-16.164 0.05481-24.367-0.03862z" fill="#21212b" stroke-width=".2848"/>
   <path d="m27.918 7.9156c3.1558-0.19617 6.1164-0.19725 8.9637-0.084995" fill="none" stroke-width=".5696"/>
  </g>
  <path d="m444.59 78.44c0.0263-0.69468 0.11793-1.5611-0.25444-2.607-0.22268-0.6255-0.55101-1.1027-0.79826-1.349-0.1752-0.1745-0.43738-0.38673-0.78488-0.59804-1.7443-1.0607-3.758-1.1149-5.2293-1.1998 1.4645 0.0846 3.4248 0.74629 4.754 1.8678 0.27235 0.22978 0.46801 0.43122 0.6151 0.57772 0.21032 0.20947 0.5702 0.49992 0.91821 0.97359 0.55568 0.75631 0.80507 1.6583 0.77949 2.3348z" fill="#fff"/>
  <path d="m422.07 107.33c0 2.0279 1.6275 3.0519 2.4442 3.1572 4.7328 0.61012 15.413 0.49916 18.999 0.0772 1.0119-0.11904 2.7838-1.3102 2.7851-3.0355l0.0227-30.127c4e-3 -4.9633-6.9014-4.8088-6.7852-7.8571l-0.17983-6.1724c-0.0975-3.3449-0.69441-5.3429-0.75359-7.4105 1.166 0.04644 1.0925-1.6036 0.11391-1.6734-3.1032-0.22139-6.2063-0.15367-9.3094-0.01793-0.85613 0.03744-1.0753 1.7299 0.2317 1.7764-0.0273 2.2477-0.55127 4.0716-0.6085 7.3029l-0.10922 6.1677c-0.19242 3.1365-6.8511 2.7043-6.8511 7.8458z" fill="none" stroke="#000" stroke-linecap="round" stroke-linejoin="round" stroke-width=".5696"/>
  <path d="m428.74 70.798c-1.4761 0.0053-1.4053-2.2608 0.0546-2.2664l10.595-0.04095c1.5699-0.0058 1.7468 2.2604 0.15018 2.2664z" fill="#ef783f"/>
  <path d="m428.74 70.798c-1.4761 0.0053-1.4053-2.2608 0.0546-2.2664l10.595-0.04095c1.5699-0.0058 1.7468 2.2604 0.15018 2.2664z" fill="#e1f9f9" fill-opacity=".12549"/>
  <path d="m428.74 70.798c-1.4757 0.03748-1.4039-2.2026 0.0546-2.2664 3.5083-0.15337 7.0351-0.19595 10.595-0.04095 1.5684 0.06829 1.7466 2.2919 0.15018 2.2664-3.3118-0.05283-6.821-0.06009-10.8 0.04096z" fill="none" stroke="#000" stroke-linecap="round" stroke-linejoin="round" stroke-width=".5696"/>
  <path d="m439.85 69.927c4e-3 -0.04415 0.0264-0.11057 0.0349-0.19608 7e-3 -0.0665 4e-3 -0.13899-0.0161-0.21774-0.0425-0.16602-0.15244-0.30589-0.23503-0.35491-0.0169-0.01002-0.0352-0.02014-0.055-0.03026-0.23038-0.11778-0.58747-0.20087-1.1215-0.2302-0.42295-0.02323-0.88637-0.0094-1.3209 0.01429-0.5455 0.02969-0.97726 0.06743-1.198 0.06743 0.17808 0 0.68455 0.02463 1.1957 0.06949 0.4336 0.03805 0.88272 0.0921 1.2808 0.17564 0.51339 0.10774 0.77458 0.22885 0.93832 0.32318 0.0133 0.0077 0.0255 0.01488 0.0367 0.02148 0.0515 0.03056 0.16471 0.04196 0.26567 0.08978 0.0495 0.02342 0.094 0.05492 0.12966 0.09815 0.0469 0.05685 0.0686 0.12376 0.0648 0.16976z" fill="#fff"/>
  <path d="m430.54 97.811c0.22551-1.0774 0.8764-1.9088 1.1158-2.8315-0.68983-0.34824-0.86025-0.77932-0.84733-0.86329 0.0257-0.16434 0.78654-0.37769 1.4146-0.63113 0.76165-0.3074 0.80497-1.0244 1.8214-1.0151 0.14591 0.0014 1.2376-1.195 1.8981-1.8554 0.27738-0.27738 0.63968 0.8139 0.33817 1.6025l0.30302-0.18049 0.0711-0.18486 0.13906 0.06233 0.21374-0.05797c0.40848 0.31348 0.27624 0.89996-0.0851 1.2212-0.6469 0.57566-0.81846 1.2486-1.0734 1.9226-0.34311 0.90718 0.0564 1.5888-0.0712 2.421-0.10621 0.69307-0.5122 1.0172-0.37541 2.004-1.7859 0.11817-3.6002-0.06574-4.8625-1.6139z" fill="#f9f9f9" fill-rule="evenodd" stroke="#f9f9f9" stroke-width=".18998"/>
  <g transform="matrix(1.1392 0 0 1.1392 327.76 27.282)" fill="none" stroke="#f9f9f9" stroke-linecap="round" stroke-linejoin="round">
   <path d="m89.877 48.754 0.44552 1.4789 0.6712-0.75626 0.68669 0.79788 0.77711-1.6578c-0.0404 1.0518 0.15755 1.7136 0.81857 1.6176-0.03679 0.15159 0.98452-0.85776 0.01857-0.79566-0.90099 0.05792-0.39561 0.7127-0.01857 0.79566 0.6713-0.01054 1.2556-1.2396 1.8683-2.0698l-0.89985 2.1011 2.0122-1.6739-1.073 2.2705c-0.45629 0.07774-0.21008-1.408 1.2197-1.4926" stroke-width=".37421"/>
   <path d="m88.528 50.918 0.04351 1.5096 0.83398-0.54266 0.72369 0.55243 0.71848-1.371-0.09897 1.4313c0.2582-0.65282 0.5269-0.79118 0.81698 0.11776l0.58776-0.57288-0.07061 0.6668c0.20673-0.56087 0.76441-0.95976 1.3816-1.3312-0.7301 0.52999-0.17111 0.49486-0.25205 0.8478-1.8999 1.567 0.62594 0.46409 1.1368-0.83703l-0.39798 1.3511 1.0576-1.216-0.70381 0.7168 0.32388 0.29282c0.64419 0.16884 0.82673-0.2394 1.1087-0.5233-0.47385-0.61988-0.83459 0.18492-0.61998 0.35468 0.0032 0.32253 0.30953 0.342 0.92001 0.0573l0.25993-0.62413c-0.59545 1.5713 0.39376 0.62046 1.5488-0.16243-1.1066 1.5718-2.1838 3.1614-8.9025 1.3348" stroke-width=".41462"/>
   <ellipse cx="93.39" cy="50.831" rx="7.1172" ry="3.7104" stroke-width=".25283"/>
   <path d="m83.99 50.457c1.4815-0.71275 1.3942 3.7626 4.9617 4.0509" stroke-width=".25"/>
   <path d="m102.89 50.317c-1.4815-0.71275-1.3942 3.7626-4.9617 4.0509" stroke-width=".25"/>
  </g>
  <g transform="translate(401.72 48.127)" fill="#f9f9f9">
   <ellipse cx="22.106" cy="38.729" rx=".44409" ry=".40547" stroke="#f9f9f9" stroke-linecap="round" stroke-linejoin="round" stroke-width=".2848"/>
   <path d="m22.048 39.984c-0.0073 1.2063-0.33289 4.8232-0.34015 6.0295-0.0082 1.3623 0.2711 5.4511 0.26291 6.8134 0.0082-1.3623 0.33665-5.4474 0.34484-6.8098 0.0073-1.2063-0.27486-4.8269-0.2676-6.0331z"/>
   <ellipse cx="22.075" cy="54.494" rx=".44409" ry=".40547" stroke="#f9f9f9" stroke-linecap="round" stroke-linejoin="round" stroke-width=".2848"/>
   <ellipse cx="42.582" cy="38.642" rx=".44409" ry=".40547" stroke="#f9f9f9" stroke-linecap="round" stroke-linejoin="round" stroke-width=".2848"/>
   <path d="m42.525 39.897c-0.0073 1.2037-0.33303 4.8129-0.34029 6.0166-0.0082 1.3594 0.27124 5.4395 0.26305 6.7989 0.0082-1.3594 0.33679-5.4359 0.34498-6.7953 0.0073-1.2037-0.275-4.8166-0.26774-6.0203z"/>
   <ellipse cx="42.443" cy="54.216" rx=".44409" ry=".40547" stroke="#f9f9f9" stroke-linecap="round" stroke-linejoin="round" stroke-width=".2848"/>
  </g>
  <g transform="translate(401.72 48.127)" fill="none" stroke="#f9f9f9" stroke-linecap="round" stroke-linejoin="round" stroke-width=".2848">
   <path d="m28.664 53.958 0.65648-0.77233 0.61787 1.2743 0.84957-0.77233 1.7764 0.54064-1.3516-1.3902-0.61787 1.4288 2.2012-0.6951 0.27032 0.96542 1.1199-0.61787 0.15447-0.6951 0.6951 1.313 0.54063-1.004"/>
   <path d="m28.637 55.507 0.81095-0.34755 0.27032 0.54063 0.9268-0.54063 0.57925 0.57925-1.2357-0.54063 1.4674 0.07724"/>
   <path d="m32.294 55.232 0.2317 0.6951 0.84957-0.84957 0.19308 0.84957-0.57925-0.54064 1.5447 0.03862-0.11585-0.4634-0.38617 0.84957h0.9268l0.11585-0.81095 0.38617 0.81095"/>
  </g>
  <path d="m429.09 102.67c-0.37274-5e-3 -1.4883-0.20882-1.861-0.21407-0.42096-6e-3 -1.6865 0.16408-2.1075 0.15815 0.42096 6e-3 1.6812 0.21154 2.1022 0.21747 0.37274 5e-3 1.4936-0.1668 1.8663-0.16155z" fill="#f9f9f9"/>
  <path d="m442.46 102.54c-0.37274-5e-3 -1.4883-0.20882-1.861-0.21407-0.42096-6e-3 -1.6865 0.16408-2.1075 0.15815 0.42096 6e-3 1.6812 0.21154 2.1022 0.21747 0.37274 5e-3 1.4936-0.1668 1.8663-0.16155z" fill="#f9f9f9"/>
  <path d="m428.44 99.255c-1.1718-1.7691-1.1542-7.193 0.0386-8.6501" fill="none" stroke="#f9f9f9" stroke-linecap="round" stroke-linejoin="round" stroke-width=".2848"/>
  <path d="m439.65 99.061c1.1718-1.7691 1.1542-7.193-0.0386-8.6501" fill="none" stroke="#f9f9f9" stroke-linecap="round" stroke-linejoin="round" stroke-width=".2848"/>
  <path d="m437.67 56.584c0.0328 0.18219 0.0235 0.75887 0.0385 1.3474 6e-3 0.25678 0.0173 0.496 0.037 0.64202 0.0316 0.23391 0.0983 0.61418 0.17728 1.0561 0.10562 0.59124 0.20201 1.1217 0.30505 1.7187 0.11734 0.67994 0.19615 1.1758 0.21451 1.4145-0.0186-0.24207-0.0277-0.75311-0.0577-1.4314-0.025-0.56645-0.0596-1.186-0.1-1.747-0.0326-0.45206-0.0666-0.83244-0.0987-1.0704-0.0199-0.14722-0.0737-0.38074-0.13955-0.63079-0.14473-0.5493-0.34123-1.1041-0.37634-1.2991z" fill="#fff"/>
  <path d="m438.64 55.193c9e-3 -0.01051 0.0282-0.01675 0.0523-0.03267 0.0181-0.01202 0.0385-0.03061 0.0519-0.06223 0.0124-0.02933 0.016-0.06384 0.0114-0.10039-5e-3 -0.03654-0.0169-0.07192-0.0325-0.10278-0.0314-0.06217-0.0765-0.10769-0.10929-0.12154-0.0137-0.0058-0.0284-0.01143-0.0442-0.01697-0.0582-0.02035-0.13106-0.0388-0.22342-0.05516-0.14458-0.0256-0.33469-0.04561-0.57941-0.05939-0.21073-0.01187-0.45494-0.0187-0.72724-0.02074-1.1991-9e-3 -2.6917 0.09248-3.188 0.10846 0.43872-0.01413 1.9332 0.03656 3.1696 0.18427 0.26756 0.03196 0.50176 0.06616 0.70226 0.10207 0.23394 0.0419 0.40127 0.08242 0.52177 0.11878 0.076 0.02294 0.12724 0.04235 0.16275 0.05684 0.01 0.0039 0.0178 0.0074 0.0249 0.01039 0.0179 0.0076 0.049-0.0024 0.0761-0.02047 0.0154-0.01031 0.0248-0.01928 0.0403-0.03214 0.0135-0.01126 0.0283-0.02212 0.0451-0.02531 0.0186-0.0035 0.0346 0.0036 0.0443 0.01738 0.0127 0.01819 0.0102 0.0412 2e-3 0.05159z" fill="#fff"/>
 </g>
 <g transform="matrix(.29053 0 0 .29053 -44.886 86.081)">
  <path d="m402.55 58.541c2e-3 3.049 1.5279 5.3394 4.0775 6.0551 7.4433 0.97362 13.537 0.58532 19.473 0.07014 3.3763-0.54803 4.5643-3.6798 4.5909-6.261l0.30992-30.663c-7.3671 0.48134-15.616-8.4639-25.618-8.626-1.3024 1.5917-2.3411 3.4284-2.8455 5.7663z" fill="url(#linearGradient855)" fill-rule="evenodd" stroke-width="1.4071"/>
  <g transform="translate(384.97 2.9696)" stroke="#000" stroke-width=".4">
   <path d="m17.577 55.571c-6.44e-4 3.0482 1.5279 5.3394 4.0775 6.0551 7.3946 0.76375 13.382 0.65316 19.473 0.07014 3.3763-0.54803 4.5643-3.6798 4.5909-6.261l0.32738-32.419c0.05727-5.7292-8.5911-11.865-8.6029-13.175l-0.01655-1.8209c0.90377 0.032992 0.91715-1.5906-0.07785-1.5706l-0.01069-1.1299-11.056 0.039922-0.10125 1.035c-1.0745 0.098213-0.90478 1.578-0.05377 1.5652l0.0093 1.8613c0.0068 1.6761-8.5443 6.565-8.5469 13.208z" fill="#d7eef4" fill-opacity=".251" fill-rule="evenodd"/>
   <path d="m26.184 6.4037 11.371 0.070683" fill="none"/>
   <path d="m25.182 1.9158 0.03613 4.0202c3.082-0.11008 10.911 0.053346 13.163 0.096841l-0.03613-4.0202c0.05285-0.60341-13.104-0.55666-13.163-0.096852z" fill="#666" fill-rule="evenodd"/>
  </g>
  <g transform="translate(384.97 2.9696)" fill="none">
   <path d="m27.02 1.8923 0.04427 3.8279m2.9489-3.9879 0.05892 4.0941m6.4523-3.8542 0.03364 3.8395m-3.2061-4.0557 0.057 4.0496" stroke="#333" stroke-width="1.4071"/>
   <path d="m26.242 7.9467 11.372 0.04884" stroke="#000" stroke-width=".4"/>
   <path d="m37.53 39.492 1.1576-3.9673-1.7332-3.8175m-3.8375 11.52-2.5692 0.61193-3.2811-2.8361-3.0253 0.56934m13.51 5.0696 1.8285 1.9072-0.78032 4.2654 2.0237 2.32" stroke="#849398" stroke-linecap="round" stroke-linejoin="round" stroke-width=".352"/>
  </g>
  <g transform="translate(384.97 2.9696)" fill-rule="evenodd">
   <path d="m31.338 30.375-3.5734 5.7016c3.3551 6.7955 8.9419 12.056 18.014 15.526l0.08714-7.6715c-9.3572-3.354-10.236-7.384-14.528-13.556z" fill="#4d4d4d" stroke="#000" stroke-width=".25"/>
   <path d="m26.476 47.29 3.4427 5.496c7.4351-4.062 11.272-7.8853 15.973-13.459l-0.04156-7.8663c-0.30766-0.31625-0.6385-0.65377-0.9906-1.0193-5.323 6.7176-8.5104 12.354-18.383 16.849z" fill="#666" stroke="#000" stroke-width=".25"/>
   <path d="m38.527 15.78c1.817 1.1487 3.135 2.907 3.9927 4.7342 0.31923 0.4703 0.60889 0.95702 0.86762 1.4495 1.1733 2.2438 1.6896 4.61 1.4361 6.0698 0.57464-1.4163 0.39255-3.9328-0.55743-6.461-0.2075-0.55397-0.45385-1.1103-0.73808-1.6569-1.2908-1.7915-2.982-3.3243-5.0009-4.1356z" fill="#fff" stroke-width="1.4071"/>
  </g>
  <path d="m415.52 46.808-2.0388 1.1787-2-0.33898" fill="none" stroke="#849398" stroke-linecap="round" stroke-linejoin="round" stroke-width=".352"/>
  <path d="m424.05 53.682-2.339 1.017-0.50848 1.8644" fill="none" stroke="#849398" stroke-linecap="round" stroke-linejoin="round" stroke-width=".352"/>
 </g>
 <rect x="185.71" y="119.98" width="13.094" height="24.571" rx=".6615" fill="#808080" stroke="#000" stroke-linecap="square" stroke-width="1.1025"/>
 <g fill="#806600" stroke="#000" stroke-linecap="square">
  <circle cx="163.52" cy="166.23" r="8.5876" stroke-width="1.1025"/>
  <ellipse cx="175.78" cy="154.11" rx="6.2157" ry="6.2157" stroke-width="1.1025"/>
  <circle cx="185.61" cy="150.91" r="3.9174" stroke-width=".89822"/>
 </g>
 <g stroke="#000" stroke-linecap="square">
  <g>
   <rect x="191.44" y="158.57" width="6.0581" height="12.916" rx="3.029" fill="#666" stroke-width="1.1025"/>
   <rect x="145.66" y="148.06" width="19.799" height="4.6821" rx=".89518" fill="#333" stroke-width="1.1068"/>
   <g stroke-width="1.1025">
    <rect x="119.58" y="154.54" width="18.281" height="13.549" rx=".62232" fill="#e6e6e6"/>
    <rect x="81.705" y="198.81" width="81.841" height="24.461" rx=".6615" fill="#808080"/>
    <rect x="81.759" y="214.02" width="81.741" height="8.677" rx=".67772" fill="#4d4d4d"/>
    <rect x="97.364" y="154.34" width="12.002" height="17.717" rx=".6615" fill="#f2f2f2"/>
   </g>
  </g>
  <circle cx="185.61" cy="150.91" r="2.5989" fill="#808080" stroke-width=".5959"/>
  <g>
   <path d="m173.99 153.18c2.1559-0.15253 4.1627-0.57337 5.8429-1.5821-0.53927 2.0696-3.3569 2.5418-5.0865 2.9719-3.0568 3.5779-4.7896-3.3777-0.75638-1.3898z" fill="#666" stroke-width=".55125"/>
   <rect x="158.16" y="163.01" width="10.662" height="7.5763" rx=".66351" fill="#333" stroke-width=".51901"/>
   <rect x="186.81" y="120.84" width="10.967" height="18.322" rx=".55748" fill="#ececec" stroke-width=".49597"/>
  </g>
 </g>
 <g transform="matrix(.75341 -.15855 .15855 .75341 -323.09 89.04)" fill="none" stroke="#6be41b" stroke-linecap="round" stroke-linejoin="round" stroke-width="4">
  <path d="m499.62 31.829c0.0203 9.5433-0.57352 18.933-1.6588 28.2"/>
  <path d="m499.1 47.691c5.192-1.169 10.466-2.5251 14.722-1.5551"/>
  <path d="m514.75 32.347c0.0612 9.3548-1.191 18.381-2.1772 27.474"/>
  <path d="m519.63 59.407c0.92914-20.539 18.231-48.864 16.122 0-1.1613-5.8389-5.4758-9.4521-13.685-10.316"/>
  <path d="m594.66 59.369c0.92914-20.539 18.231-48.864 16.122 0-1.1613-5.8389-5.4758-9.4521-13.685-10.316"/>
  <path d="m541.04 32.295c13.187-0.07062 24.697-0.26741 9.6419 14.256-19.276 18.595 1.1125 13.011 8.8125 12.493"/>
  <path d="m564.42 59.459c1.0993-9.0979 3.0493-18.082 6.2206-26.904 1.6114 8.8855 3.449 17.703 6.428 26.178 2.1546-8.9159 4.5681-17.677 7.4129-26.178 1.2523 8.8505 2.6822 17.634 5.0283 26.075"/>
  <g transform="translate(-19.284 .51838)">
   <path d="m633.98 33.073c13.022-1.1706 13.077-0.95022 18.558-1.1404"/>
   <path d="m643.42 32.865c0.16648 9.0544-0.0295 18.109-0.4147 27.163"/>
  </g>
 </g>
 <g transform="matrix(.75121 -.16867 .16867 .75121 -278.83 67.095)" fill="none" stroke="#000" stroke-linecap="round" stroke-linejoin="round" stroke-width="7.1599">
  <path d="m570.88 117.6c0.92914-20.539 18.231-48.864 16.122 0-1.1613-5.8389-5.4758-9.4521-13.685-10.316"/>
  <g transform="translate(-42.145 58.111)">
   <path d="m633.98 33.073c13.022-1.1706 13.077-0.95022 18.558-1.1404"/>
   <path d="m643.42 32.865c0.16648 9.0544-0.0295 18.109-0.4147 27.163"/>
  </g>
  <path d="m550.11 118.3 1.3478-27.682"/>
  <path d="m562.03 117.78c-2.3328-2.3154-5.4508-4.4564-10.264-6.2206 28.869-6.9047 5.7122-27.003-4.6654-21.046"/>
 </g>
 <g transform="matrix(.75121 -.16867 .16867 .75121 -278.83 67.095)" fill="none" stroke="#6be41b" stroke-linecap="round" stroke-linejoin="round" stroke-width="4">
  <path d="m570.88 117.6c0.92914-20.539 18.231-48.864 16.122 0-1.1613-5.8389-5.4758-9.4521-13.685-10.316"/>
  <g transform="translate(-42.145 58.111)">
   <path d="m633.98 33.073c13.022-1.1706 13.077-0.95022 18.558-1.1404"/>
   <path d="m643.42 32.865c0.16648 9.0544-0.0295 18.109-0.4147 27.163"/>
  </g>
  <path d="m550.11 118.3 1.3478-27.682"/>
  <path d="m562.03 117.78c-2.3328-2.3154-5.4508-4.4564-10.264-6.2206 28.869-6.9047 5.7122-27.003-4.6654-21.046"/>
 </g>
 <g transform="matrix(.85309 0 0 .85309 23.74 -54.651)">
  <circle cx="128" cy="128" r="14" fill="#1a1a1a"/>
  <g transform="translate(-3.5135 67.595)">
   <g transform="translate(99.88 28.553)" fill="#0f0" fill-rule="evenodd">
    <g transform="matrix(1.6289,-9.4919e-6,9.4919e-6,1.6289,-183.07,-64.124)" fill="#0f0">
     <path d="m130.83 59.265c-0.102-0.671-0.292-1.282-0.609-1.816a3.162 3.162 0 0 0-2.94-0.469 4.159 4.159 0 0 0-1.774 1.193 4.389 4.389 0 0 0-0.997 1.89 4.169 4.169 0 0 1 1.249-1.625c0.525-0.413 1.117-0.673 1.692-0.747 0.574-0.074 1.105 0.037 1.554 0.329 0.15 0.097 0.292 0.215 0.427 0.356 0.44 0.104 0.926 0.384 1.397 0.889z"/>
     <path d="m131.57 57.865c-0.669-0.173-1.148-0.466-1.449-0.802a2.403 2.403 0 0 1-0.517-0.205c-0.47-0.255-0.823-0.668-1.032-1.208-0.21-0.54-0.265-1.185-0.153-1.843a4.169 4.169 0 0 1 0.83-1.874 4.389 4.389 0 0 0-1.183 1.78 4.159 4.159 0 0 0-0.2 2.128 3.162 3.162 0 0 0 1.818 2.358c0.62 0.023 1.248-0.102 1.886-0.334z"/>
     <path d="m129.43 58.361 1.086 1.074 0.546-0.265c-0.06-0.346-0.149-0.695 0.5-0.946l-0.024-0.76-1.444-0.408z"/>
     <path d="m132.57 59.555c-0.53 0.423-0.965 0.894-1.27 1.435-0.032 0.29-0.028 0.568 9e-3 0.834a3.162 3.162 0 0 0 1.056 1.947 4.159 4.159 0 0 0 1.92 0.94 4.389 4.389 0 0 0 2.136-0.082 4.169 4.169 0 0 1-2.032-0.27c-0.62-0.247-1.141-0.63-1.493-1.09-0.351-0.46-0.52-0.977-0.492-1.512 9e-3 -0.177 0.04-0.36 0.095-0.548-0.13-0.432-0.13-0.993 0.07-1.654z"/>
     <path d="m130.98 59.61c0.185 0.666 0.17 1.227 0.03 1.656 0.05 0.19 0.076 0.373 0.081 0.55 0.015 0.535-0.167 1.047-0.53 1.498s-0.894 0.822-1.52 1.054a4.169 4.169 0 0 1-2.037 0.219c0.678 0.222 1.42 0.263 2.132 0.134a4.159 4.159 0 0 0 1.943-0.89 3.162 3.162 0 0 0 1.134-2.754c-0.291-0.55-0.713-1.03-1.233-1.466z"/>
     <path d="m132.49 61.22 0.385-1.478-0.502-0.34c-0.269 0.224-0.527 0.475-1.069 0.039l-0.647 0.402 0.37 1.453z"/>
     <path d="m131.97 57.838c0.631 0.248 1.255 0.389 1.877 0.382a3.162 3.162 0 0 0 1.876-2.312c0.146-0.705 0.08-1.45-0.147-2.133a4.389 4.389 0 0 0-1.138-1.809c0.428 0.57 0.687 1.237 0.782 1.894 0.096 0.661 0.024 1.304-0.198 1.839-0.223 0.534-0.585 0.939-1.062 1.182-0.159 0.08-0.332 0.145-0.522 0.192-0.31 0.328-0.796 0.609-1.468 0.765z"/>
     <path d="m132.81 59.183c0.484-0.493 0.977-0.76 1.418-0.854 0.14-0.138 0.285-0.252 0.436-0.345 0.456-0.28 0.99-0.379 1.563-0.29 0.572 0.089 1.158 0.363 1.672 0.79 0.512 0.423 0.945 0.992 1.208 1.654a4.389 4.389 0 0 0-0.95-1.914 4.159 4.159 0 0 0-1.742-1.237 3.162 3.162 0 0 0-2.952 0.395c-0.33 0.527-0.535 1.133-0.653 1.8z"/>
     <path d="m133.45 57.077-1.473 0.405-0.044 0.605c0.33 0.12 0.676 0.219 0.57 0.906l0.67 0.36 1.075-1.047z"/>
    </g>
   </g>
   <path d="m126.53 59.164c-0.64991 2.8913 1.4612 5.4894 3.4109 5.8542m2.976 0.0912c2.8278-0.88125 4.0233-4.0071 3.3653-5.8803m-1.4237-2.6258c-2.1795-2.0068-5.4845-1.479-6.7762 0.02773" fill="none" stroke="#0f0" stroke-width="1.5654"/>
  </g>
 </g>
 <g fill="none" stroke-linecap="round" stroke-linejoin="round">
  <path d="m99.707 157.61c0.69228-0.1942 2.8015 0.0946 1.3734-0.82246 1.0135-6e-3 2.6656-0.34786 1.5493 0.76105 0.33128-0.0427 0.58179 0.11637 1.3245-0.9549-0.18024 0.58796 0.0542 1.0472 1.4285 1.1528-0.57113-0.54592-0.53284-0.97335 0.82959-1.1433-0.40075 0.7974 0.21349 0.95376 0.81025 1.1212" stroke="#ff2a2a" stroke-width=".27562"/>
  <g stroke="#000" stroke-width=".27562">
   <path d="m106.82 159.63c-0.31487-0.0156-2.2688-0.37025-1.3628 0.83985-0.59344-0.70034-2.6016 0.28003-1.5589-0.74127-0.34433 0.11521-0.70544 0.50225-1.3122 0.97166-0.0499-0.46304-0.37531-0.8705-1.443-1.1345 0.12847 0.56507-0.27672 1.0148-0.81497 1.1538 0.13134-1.5802-0.33353-1.2747-0.82445-1.1108"/>
   <path d="m99.599 161.99c0.31328 0.0352 2.2414 0.51075 1.4124-0.75341 0.5487 0.73592 2.614-0.11755 1.5097 0.83687 0.35085-0.0935 0.73535-0.45737 1.3701-0.8881 0.0209 0.46524 0.3204 0.89217 1.3696 1.2221-0.093-0.57196 0.33936-0.99564 0.88521-1.1008-0.22945 1.5689 0.25352 1.293 0.75372 1.1599"/>
   <path d="m106.95 163.08c-0.31487-0.0156-2.2689-0.37024-1.3628 0.83986-0.59344-0.70034-2.6016 0.28003-1.5589-0.74128-0.34435 0.11522-0.70546 0.50226-1.3122 0.97167-0.0499-0.46304-0.37531-0.8705-1.443-1.1345 0.12846 0.56506-0.27673 1.0148-0.81498 1.1538 0.13134-1.5802-0.33351-1.2747-0.82445-1.1107"/>
   <path d="m99.735 165.43c0.31328 0.0352 2.2414 0.51076 1.4124-0.7534 0.54871 0.73591 2.614-0.11755 1.5097 0.83687 0.35085-0.0937 0.73535-0.45737 1.3701-0.88811 0.021 0.46524 0.3204 0.89217 1.3696 1.2221-0.093-0.57196 0.33936-0.99565 0.88522-1.1008-0.22946 1.5689 0.25352 1.293 0.75371 1.1599"/>
   <path d="m106.98 166.45c-0.31487-0.0156-2.2688-0.37024-1.3628 0.83986-0.59344-0.70034-2.6016 0.28003-1.5589-0.74127-0.34434 0.11521-0.70545 0.50225-1.3122 0.97166-0.0499-0.46304-0.37531-0.8705-1.443-1.1345 0.12846 0.56507-0.27673 1.0148-0.81498 1.1538 0.13134-1.5802-0.33352-1.2748-0.82445-1.1108"/>
   <path d="m99.764 168.8c0.31329 0.0352 2.2414 0.51076 1.4124-0.7534 0.5487 0.73591 2.614-0.11755 1.5097 0.83687 0.35084-0.0936 0.73534-0.45737 1.3701-0.8881 0.021 0.46524 0.3204 0.89217 1.3696 1.2221-0.093-0.57195 0.33936-0.99563 0.88521-1.1008-0.22944 1.5689 0.25352 1.293 0.75372 1.1599"/>
  </g>
  <path d="m121.87 157.05c0.61169-0.16442 2.4753 0.08 1.2135-0.69629 0.89554-5e-3 2.3552-0.29451 1.369 0.6443 0.2927-0.0362 0.51404 0.0987 1.1702-0.80842-0.15925 0.49776 0.0479 0.88657 1.2622 0.97592-0.50465-0.46217-0.47081-0.82401 0.73299-0.96789-0.3541 0.67506 0.18863 0.80744 0.71593 0.94914" stroke="#ff2a2a" stroke-width=".23838"/>
  <path d="m136.09 156.47c-0.61351 0.15753-2.4743-0.10782-1.2212 0.68261-0.89553-4e-3 -2.3584 0.268-1.3616-0.65966-0.29308 0.033-0.51289-0.10437-1.1793 0.79522 0.16485-0.49594-0.0379-0.88706-1.2511-0.99003 0.49942 0.4678 0.46152 0.82923-0.74383 0.95958 0.36166-0.67104-0.17955-0.80952-0.70522-0.95714" stroke="#ff2a2a" stroke-width=".23838"/>
  <g stroke="#000">
   <path d="m135.06 158.57c-0.58183-0.012-4.1925-0.28452-2.5182 0.64542-1.0966-0.53819-4.8073 0.21517-2.8806-0.56965-0.63629 0.0885-1.3035 0.38596-2.4247 0.74669-0.0922-0.35584-0.69351-0.66896-2.6664-0.87182 0.23737 0.43424-0.51135 0.77987-1.506 0.88662 0.24269-1.2143-0.61629-0.9796-1.5234-0.85358" stroke-width=".32844"/>
   <path d="m121.71 160.38c0.48187 0.0277 3.4476 0.40182 2.1724-0.59271 0.84398 0.57897 4.0207-0.0925 2.3222 0.65839 0.53964-0.0736 1.1311-0.35985 2.1074-0.6987 0.0322 0.36601 0.49282 0.7019 2.1066 0.96146-0.14313-0.44997 0.52197-0.78329 1.3616-0.86602-0.35291 1.2343 0.38996 1.0173 1.1593 0.91254" stroke-width=".3032"/>
   <path d="m135.31 161.22c-0.58181-0.012-4.1925-0.28452-2.5181 0.6454-1.0966-0.5382-4.8073 0.21518-2.8806-0.56965-0.63629 0.0885-1.3035 0.38597-2.4247 0.74668-0.0922-0.35581-0.69352-0.66893-2.6665-0.8718 0.2374 0.43422-0.51135 0.77985-1.5059 0.88662 0.24268-1.2143-0.61629-0.97961-1.5234-0.85357" stroke-width=".32844"/>
   <path d="m121.94 163.03c0.33664 0.0287 2.4085 0.41832 1.5177-0.61703 0.5896 0.60271 2.8088-0.0964 1.6222 0.6854 0.377-0.0767 0.79014-0.3746 1.4722-0.72737 0.0225 0.38103 0.34428 0.73071 1.4717 1.0009-0.1-0.46845 0.36466-0.81544 0.9512-0.90155-0.24655 1.285 0.27241 1.059 0.80989 0.94996" stroke-width=".25857"/>
   <path d="m135.36 163.81c-0.58183-0.012-4.1925-0.28452-2.5182 0.6454-1.0966-0.53819-4.8073 0.21519-2.8805-0.56964-0.6363 0.0885-1.3036 0.38596-2.4247 0.74668-0.0922-0.35583-0.69351-0.66894-2.6664-0.87182 0.23738 0.43425-0.51134 0.77987-1.5059 0.88663 0.24268-1.2143-0.6163-0.97959-1.5235-0.85358" stroke-width=".32844"/>
   <path d="m122.02 165.62c0.57889 0.0271 4.1418 0.39251 2.6098-0.57896 1.0139 0.56553 4.8302-0.0904 2.7897 0.64311 0.6483-0.0719 1.3588-0.35148 2.5318-0.68247 0.0386 0.35751 0.59204 0.6856 2.5308 0.93914-0.17194-0.43954 0.6271-0.76511 1.6358-0.84592-0.42401 1.2057 0.46844 0.99366 1.3927 0.89136" stroke-width=".32844"/>
  </g>
 </g>
 <g transform="matrix(1.1025 0 0 1.1025 -8.9381 -120.49)" fill="#808080" stroke="#000">
  <rect x="176.02" y="201" width="12.756" height="13.782" rx="4.7054" stroke-linecap="square" stroke-width=".5"/>
  <g stroke-linecap="round" stroke-linejoin="round">
   <g stroke-width=".5">
    <path d="m179.67 201.24 0.10367 13.322"/>
    <path d="m177.83 202.06 0.0259 11.69"/>
    <path d="m186.83 202.01-0.0259 11.871"/>
    <path d="m181.46 201.17 0.10367 13.322"/>
    <path d="m183.3 201.17 0.10367 13.322"/>
    <path d="m185.1 201.14 0.10367 13.322"/>
   </g>
   <g stroke-width=".48642">
    <path d="m188.71 205.15-12.59 0.10383"/>
    <path d="m187.93 203.31-11.046 0.0259"/>
    <path d="m187.98 212.33-11.218-0.0259"/>
    <path d="m188.77 206.96-12.59 0.10383"/>
    <path d="m188.77 208.79-12.59 0.10383"/>
    <path d="m188.8 210.59-12.59 0.10383"/>
   </g>
  </g>
 </g>
 <g fill="#806600">
  <path d="m59.773 158.29c1.7565 2.0222 3.7554 4.209 6.6281 8.0116 2.6054 3.4487 4.949 6.9754 6.5137 9.5356 0.34767 0.56888 0.64782 1.0762 0.88723 1.4992 1.0926 1.9303 2.6349 5.2105 4.4615 9.0141 1.8345 3.8202 3.432 7.015 4.5889 8.9147-2.083-3.4202-8.7524-13.497-10.725-16.981-0.23918-0.42254-0.51729-0.93249-0.83194-1.5175-1.4473-2.6911-3.3024-6.2758-5.5679-10.008-2.29-3.7724-4.4038-6.683-5.9549-8.4687z"/>
  <path d="m64.108 155.11c1.7565 2.0222 3.7554 4.209 6.6281 8.0116 2.6054 3.4487 4.949 6.9754 6.5137 9.5356 0.34767 0.56888 0.64782 1.0762 0.88723 1.4992 1.0926 1.9303 2.6349 5.2106 4.4615 9.0141 1.8345 3.8202 3.432 7.015 4.5889 8.9147-2.083-3.4202-8.7524-13.497-10.725-16.981-0.23918-0.42255-0.51729-0.93249-0.83194-1.5175-1.4473-2.6911-3.3024-6.2758-5.5679-10.008-2.29-3.7724-4.4038-6.683-5.9549-8.4687z"/>
  <path d="m68.479 152.97c1.7565 2.0222 3.7554 4.209 6.6281 8.0116 2.6054 3.4487 4.949 6.9754 6.5137 9.5356 0.34767 0.56887 0.64782 1.0762 0.88723 1.4992 1.0926 1.9303 2.6349 5.2106 4.4615 9.0141 1.8345 3.8202 3.432 7.015 4.5889 8.9147-2.083-3.4202-8.7524-13.497-10.725-16.981-0.23918-0.42254-0.51729-0.93248-0.83194-1.5175-1.4473-2.6911-3.3024-6.2758-5.5679-10.008-2.29-3.7724-4.4038-6.683-5.9549-8.4687z"/>
 </g>
 <g>
  <path d="m59.773 158.29c1.6348 1.8821 3.7643 4.4263 6.3822 8.1578 2.4808 3.536 4.661 7.0984 6.1925 9.715 0.35044 0.59873 0.65788 1.1332 0.90488 1.5698 1.2472 2.2045 2.6049 4.8171 4.7347 8.8139 2.0582 3.8624 3.631 6.6922 4.8652 8.7187-2.0753-3.4076-8.1339-13.769-10.102-17.248-0.25606-0.45261-0.53823-0.95576-0.88724-1.5758-1.494-2.6542-3.5302-6.2384-5.9084-9.8569-2.4547-3.7349-4.5973-6.4702-6.1815-8.2941z"/>
  <path d="m64.108 155.11c1.6445 1.8933 3.772 4.4182 6.4114 8.158 2.4923 3.5314 4.6865 7.0932 6.2102 9.6879 0.3367 0.57339 0.63201 1.0855 0.87075 1.5073 1.2219 2.1587 2.6339 4.895 4.7287 8.8587 2.043 3.8659 3.6301 6.7464 4.8584 8.7633-2.0827-3.4198-8.2097-13.793-10.185-17.283-0.24331-0.42986-0.52142-0.92649-0.85095-1.5139-1.4807-2.6394-3.5022-6.2261-5.8721-9.8567-2.4432-3.7429-4.5878-6.4987-6.1709-8.3213z"/>
  <path d="m68.479 152.97c1.6428 1.8913 3.7748 4.4312 6.407 8.1745 2.4876 3.5378 4.6743 7.1026 6.1881 9.6866 0.32625 0.55689 0.6131 1.055 0.84613 1.4665 1.2427 2.1948 2.6298 4.8706 4.7543 8.8714 2.0618 3.8826 3.6457 6.7433 4.8839 8.7762-2.0876-3.4279-8.1999-13.841-10.181-17.34-0.2384-0.42103-0.5075-0.90068-0.82889-1.4722-1.4758-2.6244-3.5053-6.2113-5.8816-9.8395-2.4536-3.7461-4.6009-6.4962-6.1879-8.3233z"/>
 </g>
 <path d="m147.42 234.5 14.04-5.7925c2.4906-1.3265 6.9404 0.70546 10.831 1.7782 3.9302 0.44855 6.3353-3.4873 8.5674-7.9208 4.5764-5.8264 9.5337 0.15699 14.306 0.40412 2.6494-5e-3 4.7197-15.274 7.0367-22.926l-0.0516 31.599c0.0775 1.9681-1.628 2.83-2.7705 2.83z" fill="url(#linearGradient16886)"/>
 <path d="m90.659 234.53c-4.5515-1.1426-6.0787-3.4559-13.74-3.3946-4.6953 0.0376-10.417 5.748-14.023 1.3336-2.4022-2.9409-6.4534-2.1566-8.1633-4.5666-0.64533-0.90955 1.2559-9.0682 1.0103-14.144-0.12885-2.6629-1.9398-7.7592-1.9398-7.7592l0.01429 25.775c0.1683 1.4858 1.3299 2.5603 2.5977 2.7214z" fill="url(#linearGradient18511)"/>
 <path d="m61.23 68.536c12.624 0.24247 11.185 8.9921 17.588 8.8248 5.4011-0.14116 7.9124-8.2308 15.089-8.3063 16.075 0 22.608 4.928 28.587 4.9705 4.0946 0.02915 10.604-4.8113 10.604-4.8113 7.3283-0.08083 6.1469 6.8415 12.447 7.2241 3.1784 0.19299 2.5025-7.1098 12.372-7.2714 8.3045 0.08083 11.918 4.1441 14.783 4.1948 5.005 0.08859 9.3634-4.1116 9.3634-4.1116z" fill="#87de87" fill-opacity=".37849"/>
 <g transform="matrix(1.1025 0 0 1.1025 -13.282 -13.277)" fill="none" stroke="#ff7155" stroke-linecap="round" stroke-linejoin="round" stroke-opacity=".56972" stroke-width="3">
  <path d="m176 177.29c4.4805 0.0603 2.7688 7.5058-0.93309 7.361-2.7774-0.10861-4.7638-7.4378 0.93309-7.361z"/>
  <path d="m182.01 178.22 2.8511 5.9096"/>
  <path d="m181.29 183.25 4.2507-4.9246"/>
  <path d="m188.96 186.1 1.0368-4.821"/>
  <path d="m188.49 177.96 1.6602 3.3613 2.1759-2.7392"/>
  <path d="m173.98 187.76 0.31103 5.2357 1.918-2.4882 1.3478 2.4882 1.5033-5.6504"/>
  <path d="m182.63 189.78c2.8585 0.0798 2.0348 5.3145-0.72573 5.2357-2.84-0.0811-2.8786-5.3363 0.72573-5.2357z"/>
  <path d="m186.63 188.9 3.3695 0.77757-4.1471 4.7691 3.4732 0.20736"/>
  <path d="m165.68 201.7-0.20735-6.2206"/>
  <path d="m165.84 199.21 2.9548-0.15551"/>
  <path d="m168.85 195.64-0.10368 5.8577"/>
  <path d="m176.26 196.26-3.8198-0.0172-0.84564 6.1341 3.7842 0.10368"/>
  <path d="m172.01 198.9 3.4213 0.2592"/>
  <path d="m189.67 198.5-3.7182 0.87515 0.60997 6.162 3.7038-0.78274"/>
  <path d="m186.16 202.07 3.3873-0.5468"/>
  <path d="m177.24 204.24 1.1404-7.4129c2.0292 0.68466 8.9338 3.7388-0.46654 2.8511l4.3026 4.7691"/>
  <path d="m165.51 187.19-1.3453-7.3784c2.1415-0.0162 9.6652 0.6131 0.49105 2.847l5.6251 3.1007"/>
 </g>
 <g transform="matrix(1.1025 0 0 1.1025 -13.282 -13.277)" fill="none" stroke="#f63333" stroke-linecap="round" stroke-linejoin="round" stroke-width="2">
  <path d="m176 177.29c4.4805 0.0603 2.7688 7.5058-0.93309 7.361-2.7774-0.10861-4.7638-7.4378 0.93309-7.361z"/>
  <path d="m182.01 178.22 2.8511 5.9096"/>
  <path d="m181.29 183.25 4.2507-4.9246"/>
  <path d="m188.96 186.1 1.0368-4.821"/>
  <path d="m188.49 177.96 1.6602 3.3613 2.1759-2.7392"/>
  <path d="m173.98 187.76 0.31103 5.2357 1.918-2.4882 1.3478 2.4882 1.5033-5.6504"/>
  <path d="m182.63 189.78c2.8585 0.0798 2.0348 5.3145-0.72573 5.2357-2.84-0.0811-2.8786-5.3363 0.72573-5.2357z"/>
  <path d="m186.63 188.9 3.3695 0.77757-4.1471 4.7691 3.4732 0.20736"/>
  <path d="m165.68 201.7-0.20735-6.2206"/>
  <path d="m165.84 199.21 2.9548-0.15551"/>
  <path d="m168.85 195.64-0.10368 5.8577"/>
  <path d="m176.26 196.26-3.8198-0.0172-0.84564 6.1341 3.7842 0.10368"/>
  <path d="m172.01 198.9 3.4213 0.2592"/>
  <path d="m189.67 198.5-3.7182 0.87515 0.60997 6.162 3.7038-0.78274"/>
  <path d="m186.16 202.07 3.3873-0.5468"/>
  <path d="m177.24 204.24 1.1404-7.4129c2.0292 0.68466 8.9338 3.7388-0.46654 2.8511l4.3026 4.7691"/>
  <path d="m165.51 187.19-1.3453-7.3784c2.1415-0.0162 9.6652 0.6131 0.49105 2.847l5.6251 3.1007"/>
 </g>
 <g>
  <path d="m53.843 13.556s7.622 2.5321 11.516 2.2003c4.8654-0.41451 8.8922-4.388 13.716-5.1437 3.9193-0.61387 7.9555 1.098 11.888 0.57152 1.5883-0.21266 4.9436-1.6002 4.9436-1.6002l-39.206-0.057152c-1.8449 0.25686-3.0629 1.1996-2.8576 4.0292z" fill="url(#linearGradient30319)"/>
  <path d="m202.16 13.527s-7.622 2.5321-11.516 2.2003c-4.8654-0.41451-8.8922-4.388-13.716-5.1437-3.9193-0.61387-7.9556 1.098-11.888 0.57152-1.5884-0.21266-4.9436-1.6002-4.9436-1.6002l39.206-0.057151c1.8449 0.25686 3.0629 1.1996 2.8576 4.0292z" fill="url(#linearGradient30858)"/>
  <rect x="184.98" y="148.86" width="1.2932" height="4.1625" rx=".6615" fill="#1a1a1a" stroke="#000" stroke-linecap="round" stroke-linejoin="round" stroke-width=".27562"/>
  <ellipse cx="194.36" cy="165.02" rx="1.9398" ry="1.8994" fill="#333" stroke="#000" stroke-linecap="round" stroke-linejoin="round" stroke-width=".55125"/>
 </g>
 <g fill="#540" stroke="#f63333" stroke-linecap="round" stroke-linejoin="round" stroke-width=".55125">
  <path d="m168.35 192.93 0.11431 5.3723"/>
  <path d="m173.6 191.15 0.11429 5.3723"/>
  <path d="m168.86 209.21 0.1143 5.3723"/>
  <path d="m178.86 207.1 0.11429 5.3723"/>
  <path d="m176.58 210.53 0.11429 5.3723"/>
  <path d="m192.24 201.16 0.11431 5.3723"/>
  <path d="m198.64 184.52 0.1143 5.3723"/>
  <path d="m189.15 188.7 0.1143 5.3723"/>
  <path d="m187.32 212.24 0.1143 5.3723"/>
  <path d="m196.12 209.61 0.11429 5.3723"/>
  <path d="m184.92 208.87 0.11429 5.3723"/>
 </g>
 <g transform="matrix(.29053 0 0 .29053 65.392 57.225)">
  <path d="m286.79 160.94c0.21599 0.64069 0.33974 1.4839 0.64798 1.7107 2.5152 1.8502 18.56 2.08 20.073 0.1707 0.30036-0.37881 0.64458-1.1729 0.92105-1.7777z" fill="url(#linearGradient16598)" stroke="#000" stroke-linecap="round" stroke-linejoin="round" stroke-width=".4"/>
  <path d="m287.33 161.34c-0.6259-0.10768-1.2505-0.5542-1.2441-1.4385l0.38107-52.729c6e-3 -0.87552 0.72986-1.0024 0.74162-2.8136 0.56166-0.81626 18.029-1.4162 21.553 0.10997-0.045 1.4814 0.67806 1.7969 0.66831 2.9517l-0.44838 53.057c-3e-3 0.407-0.31132 0.77915-0.77643 0.87972-7.6784 1.6604-14.396 1.0974-20.875-0.0173z" fill="#333" stroke="#000" stroke-linecap="round" stroke-linejoin="round" stroke-width=".4"/>
  <path d="m287.33 161.34c-0.6259-0.10768-1.2505-0.5542-1.2441-1.4385l0.0137-2.5189c1.2842 1.2924 5.4998 1.2157 5.2844 1.4804l0.63791-2.9473c-2.1591-0.20774-4.537-0.22995-5.8599-1.163l0.11361-21.107c2.8698 0.65033 6.8467 0.5818 10.592 0.62326 0.43253-1.5824 6.001-26.07 6.1331-27.766 0.11015-1.4148 0.19135-2.2536 0.28334-2.8542 2.4583 0.13713 4.5026 0.3967 5.4782 0.81921-0.045 1.4814 0.67806 1.7969 0.66831 2.9517l-0.22457 26.574c-3.4552 0.64639-12.409 0.0626-12.338 0.27535-6e-3 -0.0106-2.7377 12.334-4.8325 21.654 2.7144 0.23802 11.869 0.65935 16.951-1.0905l0.0427 2.916c-5.7714 1.7857-12.442 1.5458-17.657 1.1203-0.24496 1.0839-0.47341 2.0905-0.67831 2.9876-1.1303-0.15042-3.3626-0.32557-3.3626-0.51699z" fill="#ff771d"/>
  <path d="m286.77 106.43c0.0327 2.8e-4 0.13004 0.1 0.16274 0.10028 0.52028 4e-3 2.0693-5e-3 4.385-0.0176 2.495-0.0136 4.2191-0.0302 6.7141-0.0438-1.4642 6e-3 -4.0927-0.019-6.7136-0.0591-2.3153-0.0354-3.8636-0.0727-4.3838-0.0772-0.0327-2.8e-4 -0.13174 0.0977-0.16444 0.0974z"/>
  <path d="m309.22 106.43c-0.0326 2.8e-4 -0.13133-0.0976-0.16394-0.0973-0.29144 3e-3 -0.76981 0.016-1.6134 0.037-0.70514 0.0176-1.6192 0.0396-2.6739 0.0595-2.6732 0.0503-5.102 0.0638-6.7329 0.0397 2.0986 0.031 3.5914 0.0559 6.7337 0.0632 1.0171 2e-3 2.0077 2e-3 2.6752 2e-3 0.79096-4.4e-4 1.3754-8.7e-4 1.6134-3e-3 0.0326-3.4e-4 0.1293-0.10009 0.16189-0.10043z"/>
  <g transform="translate(265.77 101.61)" fill="none" stroke="#fff">
   <path d="m39.765 26.878 0.01756-5.521c2.455-0.07122 2.7348 2.5318 0.73966 2.755 0.45947 0.90272 1.2338 1.7357 1.226 2.754" stroke-width=".92211"/>
   <path d="m21.508 26.757 0.01756-5.521c2.455-0.07122 2.7348 2.5318 0.73966 2.755 0.45947 0.90272 1.2338 1.7357 1.226 2.754" stroke-width=".92211"/>
   <path d="m38.406 25.202c0.0011 1.9458-2.3413 1.9966-2.3485 0.01296-0.0079-2.221 2.3473-2.2325 2.3485-0.01296z" stroke-width=".77208"/>
   <g transform="translate(.98438 -1.7969)" stroke-width=".77208">
    <path d="m26.311 26.8c0.0011 1.9458-2.3413 1.9966-2.3485 0.01296-0.0079-2.221 2.3473-2.2325 2.3485-0.01296z"/>
    <path d="m26.379 24.831-0.02747 3.8101"/>
   </g>
   <g transform="translate(.90625 -1.9062)" stroke-width=".78297">
    <path d="m28.162 26.764c-0.0011-1.944 2.41-1.9948 2.4174-0.01295 0.0082 2.219-2.4161 2.2305-2.4174 0.01295z"/>
    <path d="m28.063 30.739 0.05655-5.8136"/>
   </g>
   <g transform="translate(1.1094,-1.7656)">
    <path d="m33.876 25.285-2.4234-0.01451" stroke-width=".77208"/>
    <path d="m32.617 28.709-0.0097-5.8136" stroke-width=".783"/>
   </g>
   <ellipse cx="42.639" cy="21.426" rx=".20683" ry=".38553" stroke-width=".22122"/>
   <path d="m42.752 21.283c-0.21747-0.18377-0.2384 0.47158 0.02335 0.29104" stroke-width=".1"/>
   <g stroke-width=".129">
    <path d="m33.103 56.978 0.0057-1.6007c0.80288 3.98e-4 0.89436 0.75755 0.24189 0.80518 0.15026 0.26569 0.4035 0.51386 0.40096 0.80905"/>
    <path d="m27.132 56.787 0.0057-1.6007c0.80288 3.87e-4 0.89436 0.75755 0.24189 0.80518 0.15026 0.26569 0.4035 0.51386 0.40096 0.80905"/>
    <path d="m32.659 56.481c3.6e-4 0.5642-0.7657 0.55886-0.76803-0.01633-0.0026-0.64406 0.76763-0.62721 0.76803 0.01633z"/>
   </g>
   <g stroke-width=".41892">
    <g transform="matrix(.32703 .0085711 0 .28996 20.42 48.331)">
     <path d="m26.311 26.8c0.0011 1.9458-2.3413 1.9966-2.3485 0.01296-0.0079-2.221 2.3473-2.2325 2.3485-0.01296z"/>
     <path d="m26.379 24.831-0.02747 3.8101"/>
    </g>
    <g transform="matrix(.32703 .0085711 0 .28996 20.395 48.299)">
     <path d="m28.162 26.764c-0.0011-1.944 2.41-1.9948 2.4174-0.01295 0.0082 2.219-2.4161 2.2305-2.4174 0.01295z"/>
     <path d="m28.063 30.739 0.05655-5.8136"/>
    </g>
    <g transform="matrix(.32703 .0085711 0 .28996 20.461 48.341)">
     <path d="m33.876 25.285-2.4234-0.01451"/>
     <path d="m32.617 28.709-0.0097-5.8136"/>
    </g>
   </g>
   <ellipse transform="matrix(.99966 .0262 0 1 0 0)" cx="34.054" cy="54.53" rx=".067664" ry=".11179" stroke-width=".12902"/>
   <path d="m34.08 55.382c-0.07112-0.05516-0.07796 0.13469 0.0077 0.08459" stroke-width=".129"/>
   <path d="m35.736 38.824-0.01563-1.8281c0.54077-0.09687 1.3008 0.88739 0.14062 0.98438l0.59375 0.84375" stroke-linecap="square" stroke-linejoin="bevel" stroke-width=".25"/>
   <g stroke-linecap="square" stroke-linejoin="bevel">
    <g stroke-width=".25">
     <path d="m22.75 38.348 0.03125-1.7656 0.90625 1.8125 0.03125-1.7188"/>
     <path d="m25.25 36.801h-0.65625v1.6406l0.59375 0.01563"/>
     <path d="m25.188 37.583-0.59375-0.01563"/>
     <path d="m22.203 36.504h-0.65625v1.6406l0.59375 0.01563"/>
     <path d="m22.141 37.286-0.59375-0.01563"/>
     <path d="m26.094 38.614-0.01563-1.8281c0.54077-0.09687 1.3008 0.88739 0.14062 0.98438l0.59375 0.84375"/>
     <path d="m28.531 37.864 0.625 0.03125c0.0659 1.1317-1.458 1.0219-1.4687-0.1852-0.0088-0.99436 1.3053-1.2339 1.453-0.33043"/>
     <path d="m30.156 36.911 0.59375 1.0156 0.67188-0.90625"/>
     <path d="m30.75 37.926 0.01563 0.84375"/>
    </g>
    <g transform="matrix(.62898 -.12526 0 .77042 22.108 29.957)" stroke-width=".18531">
     <path d="m22.75 38.348 0.03125-1.7656 0.90625 1.8125 0.03125-1.7188"/>
     <path d="m25.25 36.801h-0.65625v1.6406l0.59375 0.01563"/>
     <path d="m25.188 37.583-0.59375-0.01563"/>
     <path d="m21.782 36.522h-0.65625v1.6406l0.59375 0.01563"/>
     <path d="m21.719 37.303-0.59375-0.01563"/>
     <path d="m26.094 38.614-0.01563-1.8281c0.54077-0.09687 1.3008 0.88739 0.14062 0.98438l0.59375 0.84375"/>
     <path d="m28.531 37.864 0.625 0.03125c0.0659 1.1317-1.458 1.0219-1.4687-0.1852-0.0088-0.99436 1.3053-1.2339 1.453-0.33043"/>
     <path d="m30.156 36.911 0.59375 1.0156 0.67188-0.90625"/>
     <path d="m30.75 37.926 0.01563 0.84375"/>
    </g>
    <g stroke-width=".25">
     <path d="m33.359 37.004c1.8546-0.06983 1.3885 2.0915 0.03125 1.7812z"/>
     <path d="m37.422 36.958v1.7969"/>
     <path d="m38.453 38.739v-1.7969l1.2344 1.7344-0.01563-1.8125"/>
     <path d="m40.5 36.786 0.01563 1.8438"/>
     <path d="m41.281 38.614-0.71875-0.98438 0.65625-0.89062"/>
    </g>
   </g>
  </g>
  <ellipse cx="296.71" cy="134.19" rx="3.706" ry="3.7619" fill="#fc0" stroke="#1a1a1a" stroke-width=".3"/>
  <g transform="matrix(.12217 0 0 .12217 296.51 128.94)">
   <g stroke="#000" stroke-linecap="round" stroke-linejoin="round" stroke-width=".5">
    <path d="m-9.8549 53.234 0.91638 3.5189c3.5472 0.50686 5.174-2.0997 5.4983-6.8179 1.0085 0.0018 2.009-0.25073 2.9691-1.7961 2.9091 0.82097 5.8054 2.3307 8.7606 0.65979 0.60139-0.09502 1.0548-0.09585 2.1627-0.51317 7.5187 2.4583 1.4738-3.6367 0.36655-3.6655-1.0761-0.02802-3.2719 1.1298-4.252 1.0263-0.66863-0.07058 0.65979-1.9061 0.65979-1.9061 2.3713 0.48164 2.4523-0.54352 3.079-1.2096 3.5636 0.5516 3.8152-1.2885 3.7022-2.0893 1.1619-1.3539 8.6866-1.7483 7.7709-3.4456-0.84228-1.1337-1.8949-1.994-3.2257-2.4926-5.7364 2.578-7.1636 3.502-8.1375 4.252-0.12533-0.68903 1.0703-1.2146-3.5189-2.4559-3.7853 3.6465-9.4286 4.3421-11.326 4.2887l-2.1993 5.2784c-0.38687 3.6949-1.9089 5.3466-3.2257 7.3677z" fill="#666"/>
    <path d="m-3.2203 40.478c0.3681 1.482-0.56513 5.0664-1.7961 5.7915-5.9356-2.0699-12.41-3.0628-19.024-3.7755-0.9152-1.5736-0.94741-6.2497 0.80642-8.1375 6.6484 2.1091 13.273 4.2899 20.014 6.1214z" fill="#333"/>
    <path d="m-9.7157 53.5c-4.6639 3.244-3.5139 9.0779-0.5443 8.8125-1.1018-0.41249-2.6041-4.3627 1.6588-6.3502-0.09381-1.0059-0.4001-1.8702-1.1145-2.4623z"/>
    <path d="m11.771 45.102c2.1168-0.02544 6.2602 2.1808 6.2724 5.443-0.48113-0.95114-3.1209-3.6421-5.9614-3.3436-0.45435-0.62467-0.80978-1.2705-0.31103-2.0995z"/>
    <path d="m18.718 34.683c4.6383-4.3166 9.1242-0.59287 8.8643 1.4256-1.5161-2.5211-6.1261-2.3929-6.8945-0.1296-0.73975-0.2103-1.4358-0.53707-1.9699-1.296z"/>
    <path d="m9.2831 37.534c-1.1193-0.09028-1.9304-0.48877-2.3586-1.27 0.54638-2.1577 6.8019-5.3224 7.05-0.18143-2.0102-3.4699-4.2324 0.17712-4.6914 1.4515z"/>
   </g>
   <path d="m10.579 38.597c-3e-3 0.0011-0.11848-0.289-0.12151-0.2879-0.88101 0.319-2.0625 0.77633-3.8264 1.2426-1.6688 0.44114-2.9711 0.64289-3.6723 0.67817 0.78149-0.03932 1.9352-0.07631 3.7376-0.37218 1.7141-0.28138 3.1665-0.66952 3.9736-0.96176 0.0031-0.0011-0.09405-0.29785-0.09098-0.29896z"/>
   <path d="m6.5267 45.628c-0.00432 2.69e-4 -0.03093-0.24268-0.0349-0.24247-0.12576 0.0068-0.30284 0.01276-0.55274-4.76e-4 -0.19847-0.01051-0.43193-0.03257-0.70654-0.07182-0.48278-0.069-1.0379-0.18347-1.6393-0.3409-0.59549-0.15589-1.1742-0.3377-1.6798-0.51809-0.67329-0.24022-1.1478-0.45256-1.417-0.59634 0.28062 0.14986 0.71383 0.38558 1.3807 0.68637 0.49328 0.22249 1.0551 0.45306 1.6436 0.66276 0.59027 0.21031 1.1485 0.37851 1.6386 0.49322 0.2797 0.06546 0.52465 0.11058 0.73695 0.1387 0.26764 0.03545 0.47109 0.04221 0.62181 0.03406 0.00477-2.58e-4 0.00422-0.24473 0.00854-0.245z"/>
  </g>
  <g transform="translate(265.77 101.61)" fill="none" stroke="#fff" stroke-linecap="square" stroke-linejoin="bevel" stroke-width=".129">
   <path d="m21.39 54.624-0.0221 1.1711"/>
   <path d="m24.951 55.327-0.42613 1.0911"/>
   <path d="m22.318 54.779c0.54088 0.02336 0.61415 1.2886-0.06629 1.2595-0.4323-0.01848-0.47849-1.2831 0.06629-1.2595z"/>
   <path d="m24.557 55.219c0.17995 0.0062 0.20433 0.34202-0.02205 0.3343-0.14383-0.0049-0.15919-0.34054 0.02205-0.3343z"/>
   <path d="m24.989 56.092c0.17995 0.0062 0.20433 0.34202-0.02205 0.3343-0.14383-0.0049-0.15919-0.34054 0.02205-0.3343z"/>
   <path d="m23.521 55.011c0.54088 0.02336 0.61415 1.2886-0.06629 1.2595-0.4323-0.01848-0.47849-1.2831 0.06629-1.2595z"/>
  </g>
  <path d="m287.33 161.34c-0.6259-0.10768-1.2505-0.5542-1.2441-1.4385l0.38107-52.729c6e-3 -0.87552 0.72986-1.0024 0.74162-2.8136 0.56166-0.81626 18.029-1.4162 21.553 0.10997-0.045 1.4814 0.67806 1.7969 0.66831 2.9517l-0.44838 53.057c-3e-3 0.407-0.31132 0.77915-0.77643 0.87972-7.6784 1.6604-14.396 1.0974-20.875-0.0173z" fill="url(#linearGradient17538)" stroke="#000" stroke-linecap="round" stroke-linejoin="round" stroke-width=".4"/>
  <path d="m287.12 104.76c-0.31816 0.0897-0.49952-1.2477-0.0916-1.3013 6.5735-0.86339 16.656-0.60349 21.828 0.27491 0.26962 0.0458 0.25275 1.2342-0.0183 1.1546-3.4742-1.0199-18.215-1.1161-21.718-0.12829z" fill="url(#linearGradient15756)" stroke="#000" stroke-linecap="round" stroke-linejoin="round" stroke-width=".4"/>
  <path d="m308.66 106.22c-0.0638-0.0712-0.14072-0.15826-0.21291-0.2728-0.0535-0.0849-0.0956-0.17098-0.13074-0.26376-0.0341-0.0899-0.0591-0.17935-0.0798-0.2601-0.0122-0.0475-0.0333-0.13363-0.0475-0.19287-0.0528-7e-3 -0.12348-0.0173-0.13454-0.0188-1.8576-0.259-7.3543-0.67214-9.1667-0.64405 1.8124-0.0281 7.3274 0.2148 9.1904 0.47455 0.0605 8e-3 0.12466 0.0176 0.19243 0.0274 0 0 0.0584 9e-3 0.0584 9e-3 5e-3 0.0194 9e-3 0.0389 0.0131 0.0586 0.0138 0.0741 0.0195 0.15347 0.0272 0.265 6e-3 0.0815 0.0121 0.16994 0.0276 0.25954 0.0159 0.0922 0.0404 0.18127 0.0793 0.27054 0.052 0.11929 0.12138 0.21842 0.1839 0.28819z" fill="#fff" fill-opacity=".85"/>
  <path d="m299.93 107.01c1.6512 0.0571 6.3666 0.20432 8.4749 0.12163 6e-3 0.0272 0.0121 0.0528 0.0175 0.0767 0.0416 0.18256 0.0937 0.40055 0.1411 0.70357 0.0466 0.29791 0.0764 0.60278 0.0963 0.95187 0.0433 0.75857 0.0614 1.5493 0.0742 1.934-0.0182-0.54736 0.0778-1.0049 0.16647-1.9292 0.0336-0.35058 0.0512-0.67422 0.0423-0.99085-9e-3 -0.31672-0.044-0.57698-0.0875-0.76797-0.0171-0.0752-0.0407-0.16388-0.0719-0.26262-0.0181-0.0574-0.0376-0.11441-0.0584-0.17091l-0.16498 0.0134c-1.9857 0.16217-6.929 0.37911-8.63 0.32034z" fill="#fff" fill-opacity=".85"/>
 </g>
 <g transform="matrix(.29053 0 0 .29053 76.538 34.158)">
  <g transform="translate(297.87 180.05)" fill-rule="evenodd">
   <path d="m22.891 61.467c6.2652 1.0286 12.623 0.80004 19.23-0.14455 0.58396-0.08214 1.6599-2.9393 1.726-4.6546l0.10575-2.8121c0.02108-0.53224-0.66006-0.97445-0.66006-0.97445l-0.19013-22.484s0.66817-0.73284 0.64255-1.1817l-0.15312-2.8095c-0.16581-3.0045-1.3769-7.099-2.4196-10.53-4.0006-0.47849-13.206-2.2703-17.4-2.9921-1.1043 3.9206-3.2376 12.225-3.2469 14.003l-0.01436 2.7672c-0.0016 0.3242 0.65959 0.7131 0.65959 0.7131l0.16335 23.027s-0.64914 0.63949-0.6458 1.0511l0.01892 2.1565c8e-3 1.0213 1.5031 4.7539 2.1832 4.8651z" fill="url(#linearGradient876)" stroke-width="1.4641"/>
   <path d="m22.891 61.467c6.2652 1.0286 12.623 0.80004 19.23-0.14455 0.58396-0.08214 1.6599-2.9393 1.726-4.6546l0.10575-2.8121c0.02108-0.53224-0.66006-0.97445-0.66006-0.97445l-0.19013-22.484s0.66817-0.4452 0.64255-0.8941l-0.15312-3.0972c-0.25897-4.6875-3.7228-15.002-3.7228-15.002-0.24306-0.71216-1.2364-0.50382-1.3153-1.3996l1.5504-0.04054c0.44034-0.0097 0.55049-0.98451 0.0057-0.98006l-1.5028 0.013321-0.03634-1.0466-13.324 0.12518 0.02771 1.0987-1.3075 0.011253c-0.40979 0.00242-0.54051 0.96891-0.01464 0.97329l1.3305 0.01113c-0.07961 0.9735-0.78371 0.95132-1.0332 1.4969-0.25088 0.55126-3.7094 12.651-3.7237 15.22l-0.01435 2.7672c-0.0017 0.3242 0.65959 0.7131 0.65959 0.7131l0.16335 23.027s-0.64914 0.63949-0.6458 1.0511l0.01892 2.1566c8e-3 1.0213 1.5034 4.7525 2.1832 4.8651z" fill="#d5f6ff" fill-opacity=".251" stroke="#000" stroke-width=".4"/>
   <path d="m23.923 8.3996c5.3873-0.22579 10.753-0.29254 16.083-0.088781 0.56527 0.021868 0.54325-1.3986 0.01078-1.4786-5.3839-0.81677-10.76-0.67121-16.129 0.11177-0.56905 0.082885-0.50757 1.4786 0.03543 1.457z" fill="#b7c8c4" stroke="#000" stroke-width=".4"/>
  </g>
  <g stroke="#000">
   <g transform="translate(297.87 180.05)">
    <g transform="matrix(1.4196 .35829 -.35829 1.4196 -1.1767 -25.795)" stroke-width=".27321">
     <path d="m22.22 17.437-0.766-2.866c-0.224-0.838 10.079-3.48 10.28-2.672l0.717 2.864a177.21 177.21 0 0 0-10.231 2.674z" fill="url(#linearGradient884)" fill-rule="evenodd"/>
     <g fill="none">
      <path d="m22.322 14.458 0.555 2.123"/>
      <path d="m23.437 14.044 0.59 2.26"/>
      <path d="m24.715 13.628 0.619 2.367"/>
      <path d="m25.977 13.152 0.635 2.428"/>
      <path d="m30.946 12.281 0.55 2.107"/>
      <path d="m29.793 12.427 0.583 2.23"/>
      <path d="m28.616 12.605 0.618 2.367"/>
      <path d="m27.344 12.856 0.634 2.428"/>
     </g>
    </g>
    <path d="m25.064 10.157 13.512-0.16382m-13.31-0.81047 13.512-0.16382" fill="none" stroke-width=".4"/>
    <path d="m21.334 53.394c6.7419 0.78503 16.776 0.44403 21.958-0.51301m-22.122-22.514c6.5115 0.44752 16.25 0.25393 21.931 0.02987" fill="none" stroke-width=".36603"/>
   </g>
   <g transform="translate(297.87 180.05)" fill-rule="evenodd">
    <path d="m43.07 31.648c-4.2022 0.61685-16.343 0.60889-21.829 0.05316l0.20732 20.769c5.2779 0.57862 16.132 0.44761 21.781-0.46861z" fill="#fdd9c1" stroke-width=".25"/>
    <path d="m25.138 47.033c2.6645-3.4131 5.8239-6.2863 9.4827-8.6146 0.71734-0.65247 4.7162 3.253 3.5892 3.8414-3.5869 2.3647-7.1686 4.7334-11.902 6.2162-0.83155 0.4349-2.4257-0.30268-1.17-1.4429z" fill="#f97017" stroke-width=".4"/>
    <path d="m36.453 39.082 0.32223-2.4374 0.58158 2.0811 2.656-0.891-1.4449 2.0755 2.0519 1.365-2.7924-0.50094z" fill="#5aa02c" stroke-linecap="round" stroke-linejoin="round" stroke-width=".4"/>
   </g>
   <path d="m323.52 221.56c1.4938-1.6904 0.38443-2.3186-1.1526-1.4969 0.98663-1.1039 1.0738-2.6042-1.1315-1.4724l2.0349 3.2131c2.0607-1.0839 0.43998-3.9595 0.22207-4.3456 0.97986 1.5243 1.4114 3.5581 2.7839 1.9102l-1.5071-2.5065 1.5071 2.5065 0.47676-0.36922-1.5342-2.4662 2.6887 1.7199-1.6879-2.4557 1.6879 2.4557 0.59776-0.50242-1.5855-2.3702 2.7484 1.7446-1.8621-2.4725 0.42105-0.17752 1.5574 0.66557 0.16833-1.5802-0.16833 1.5802 0.93164 1.2551m-0.95211 14.82c0.82912 0.86089 2.2903 0.27312 0.55522-2.3375l-1.0653 0.61756 2.3986-1.3833c1.0577 2.0354 1.3345 2.4619 2.5043 1.6483l-1.2817-2.3167 1.2817 2.3167 0.97628-0.55298-1.4147-2.2422 1.8046-0.92107c-1.778 1.13 0.20754 3.2275 1.2123 2.2688 0.0296-0.0282 0.91807-0.53437 0.91807-0.53437l-1.3243-2.1527 1.294-0.7668" fill="none" stroke-linecap="round" stroke-linejoin="round" stroke-width=".4"/>
  </g>
  <path d="m335.98 193.06a61.653 61.653 0 0 1 2.8941 11.011c0.5245 1.4099 0.97732 2.7986 1.3196 4.0749 0.0793-1.3254 0.0436-2.8052-0.0744-4.348-1.0331-3.7443-2.5833-7.7611-4.139-10.739z" fill="#fff" fill-rule="evenodd" stroke-width="1.4641"/>
  <path d="m324.16 226.25c0.91892 0.18814 1.307 0.69077 1.4881 1.3193m0.52189-3.2811c1.2151 0.18135 1.801 1.2263 2.0545 2.0528m0.17555-4.4137c1.2756 0.28269 2.4906 1.5958 2.8543 2.9968m-0.11995-4.9365c1.9836 0.15787 2.7458 1.4752 3.3288 2.9647" fill="none" stroke="#803300" stroke-width=".36603"/>
  <path d="m337.66 227.78 1.3493-0.79422" fill="#ffde17" stroke="#000" stroke-linecap="round" stroke-linejoin="round" stroke-width=".4"/>
  <path d="m337.06 226.67 0.83894-0.47939" fill="#ffde17" stroke="#000" stroke-linecap="round" stroke-linejoin="round" stroke-width=".4"/>
 </g>
 <g transform="matrix(.51071 .0085504 -.0085504 .51071 -90.445 33.586)">
  <path d="m369.32 125.89c-0.86176 0.22297-0.33807 2.8759-0.23498 4.3747 0.26729 3.8906 15.326 3.1353 15.864 0.43439 0.29848-1.4927 0.71105-4.7083-0.1744-4.9654l-0.0113-29.872c1.5492-2.5255-1.4902-4.0221-3.4212-7.4753-2.5985-0.04603-5.3457-1.7541-7.6875-2.331-0.94442 4.215-6.4209 7.1669-4.4941 9.704z" fill="url(#linearGradient4351)" fill-rule="evenodd" stroke-width=".5"/>
  <g transform="translate(345.45 70.096)" stroke="#000">
   <path d="m23.866 55.797c-0.86209 0.22323-0.33821 2.8753-0.23614 4.3737 0.26694 3.8903 15.326 3.1344 15.865 0.43451 0.29889-1.4925 0.71169-4.708-0.17505-4.9655l-0.0115-30.003c2.0688-3.3711-4.705-5.8049-4.9918-11.925-2.5848-2.9405-3.8919-3.6337-5.8926 0.25531-0.29332 6.7407-7.2061 8.4757-4.7183 11.699z" fill="#e0f7f8" fill-opacity=".12549" stroke-width=".58703"/>
   <path d="m28.22 13.967c-0.0059-0.03519 0.04669-4.9111-0.03824-7.3121 0.48223-0.39043 0.40581-0.58707-0.03156-0.8391l-0.11688-2.2785c-0.29556-0.78951-0.31157-1.5028-0.02572-2.2165 0.1708-0.42862 6.0112-0.56632 6.1989-0.043993 0.22914 0.64086 0.38036 1.3945 0.01079 2.1217l-0.04079 2.3602c-0.44441 0.31631-0.45494 0.57936 0.0051 0.865l0.25934 7.2112c-2.335 0.17646-4.0839 0.20057-6.221 0.13202z" fill="url(#linearGradient928)" fill-rule="evenodd" stroke-width=".5"/>
   <path d="m28.545 6.2022c1.7102-0.14668 3.4427-0.1955 5.2242-0.028723m-5.6469-2.7493c1.8487-0.33892 3.7716-0.51662 6.0404 0.04151" fill="none" stroke-width=".29352"/>
  </g>
  <path d="m369.24 125.95c-0.0398 0.0938-0.08 0.18877-0.11728 0.28314 0.68499 0.29911 1.796 0.61149 3.1392 0.79962a18.341 18.341 0 0 0 4.6891 0.0553c-1.7063 0.10202-3.3113-0.0682-4.6359-0.35648-1.3104-0.28624-2.3413-0.68678-2.9114-1.0403zm15.486-0.34401-0.1458-0.26553c-2.2457 1.3439-4.9701 1.6318-7.6293 1.7476 2.6106 0.0872 5.4595 0.0141 7.9209-1.2166z" fill-rule="evenodd" stroke-width="1.3045"/>
  <g stroke="#000">
   <path d="m370.04 98.372c3.0764 0.38704 9.5484 0.52391 13.719 0.02428l0.12454 24.896c-4.2064 0.94925-8.6866 0.95668-13.751 0.14094z" fill="#e9ddaf" fill-rule="evenodd" stroke-width=".27193"/>
   <g transform="translate(345.45 70.096)" fill="none" stroke-linecap="round" stroke-linejoin="round">
    <path d="m25.982 33.941c1.153-2e-3 1.7584-1.5161-0.12436-1.48 1.8782-0.65959 0.99752-1.5119-0.06208-1.3897l-0.02817 2.93c2.3232-0.14696 1.5706-1.1157 1.8321-2.8439-0.57623 3.0294 1.2818 4.1285 1.0037 1.6527-0.64145-0.13056-1.381 1.4352-0.13585 1.3509-0.22238 0.06039 0.51683-1.1096 1.0721-1.2743-0.67648 0.15488-0.69511 1.3058 0.59836 1.2689 0.06366-0.61743-0.11558-1.3357 0.06918-1.9886l0.03856 0.93957 0.71891-0.72788-0.71534 0.93785 0.88911 0.83247" stroke-width=".40144"/>
    <path d="m32.607 34.112-0.10551-2.641c1.3724 0.19244 1.4632 0.77166 0.16732 1.2286l0.98241 1.268c1.2596 0.13019 1.1783-0.53033 1.0801-1.3018-1.0595 0.15134-1.0487 1.4801-0.12512 1.2475 0.47466-0.05266 0.94022-0.74174 0.85693-2.3874l0.0186 0.59318-0.65647 0.15317 1.1387-0.18422-0.47986 0.1943-0.07532 1.381c1.1937 0.13586 0.19852-1.3975 1.6794-1.4034-0.87488 0.16115-0.93281 0.67336-0.30578 0.67377 0.41932 2.68e-4 0.40151 1.0406-0.60832 0.55164" stroke-width=".40144"/>
    <path d="m28.525 51.144-0.10823-2.7355c2.2272-0.60313 1.6476 1.6392 0.19907 1.2231 0.81505 1.7316 2.3124 2.0599 2.3386 0.16705-0.41594 1.2443 1.349 2.1134 1.1645-0.0098 0.35532 1.4327 0.37796 1.1267 0.92786 1.2052-0.2321-1.7194 0.87014-1.609 1.0471-0.0042 0.06975-1.6607 1.0377-1.793 1.287 0.13535" stroke-width=".44709"/>
   </g>
   <g transform="translate(345.45 70.096)">
    <path d="m33.93 36.986c-0.23158-0.03589-0.47509 0.14259-0.73055 0.53613-1.111-0.12364-1.6972 0.03004-0.61408 1.0664-1.9897 2.982-4.2156 3.3805-3.0846 5.738 0.38362 0.79912 1.2537 0.97027 2.3221 1.8624 0.47716 0.39874 0.8395-0.49749-0.0055-1.0308 0.66445 0.25698 1.4065 0.33847 2.19 0.08219 0.32485-0.10608-0.54722-0.65819-1.2068-0.46279 1.2352-0.80914 1.2956-1.7507 1.3789-2.8492 0.0084-0.1121 0.82043 0.22184 0.83126 0.10623 0.01156-0.13172-0.77726-0.71439-0.76-0.85034 0.1335-1.033 0.49036-2.1911 1.8963-3.4928 0.33114-0.3071-1.0522-0.28923-1.559 0.04261-0.20686-0.46111-0.42731-0.71205-0.65807-0.74794zm0.06124 1.0614a0.35926 0.45132 89.695 0 1 0.45404 0.35755 0.35926 0.45132 89.695 0 1-0.45022 0.36166 0.35926 0.45132 89.695 0 1-0.45404-0.35685 0.35926 0.45132 89.695 0 1 0.45021-0.36236z" fill="#1a1a1a" fill-rule="evenodd" stroke-width=".37834"/>
    <path d="m29.429 44.328s-2.191 0.04808-2.4677-0.65007c-0.39779-1.0021 2.1659-1.5389 2.1414-2.5984-0.02333-1.0041-2.1418-2.3872-2.1418-2.3872" fill="none" stroke-width=".37834"/>
    <path d="m29.582 3.7702 0.06439 1.7684m0.74807-1.8063 0.06439 1.7684m0.76296-1.8349 0.06439 1.7684m-2.5238-1.5847 0.06439 1.7684m3.8097-1.9225 0.06439 1.7684m0.64274-1.7134 0.06566 1.7687m-1.4362-1.8761 0.06439 1.7684" fill="none" stroke-width=".25242"/>
   </g>
  </g>
  <path d="m369.05 95.558c0.0398 0.08596 0.0797 0.17193 0.1223 0.25722 1.2654 0.58667 2.751 1.0998 6.9041 0.93993-4.1616 0.04387-5.5908-0.58728-6.7449-1.2466l-0.28013 0.04974zm15.725 0.0202a1.1858 1.1858 0 0 1-0.26469 0.01321c-0.33872 0.40728-1.0545 0.66948-2.0726 0.83264-1.1087 0.17772-2.5045 0.2265-3.9908 0.27781 1.4816 0.01866 2.8879 0.03812 4.017-0.07305 1.002-0.09592 1.8529-0.30036 2.334-0.76482a1.1871 1.1871 0 0 0-0.0229-0.28579z" fill-rule="evenodd" stroke-width="1.3045"/>
  <path d="m380.13 88.773c0.11194 0.44654 0.2547 0.87632 0.41791 1.2935 0.85434 1.2127 1.8779 2.1493 2.6278 2.9012 0.48989 0.49258 0.86859 0.91166 1.0441 1.2996 0.17164 0.37631 0.16101 0.752-0.19958 1.1554 0.39676-0.36391 0.49424-0.75506 0.34865-1.2123-0.1401-0.44657-0.50267-0.92751-0.95754-1.46-0.71274-0.83419-1.6349-1.7855-2.3902-2.9973a8.8355 8.8355 0 0 1-0.89114-0.98008z" fill="#fff" fill-rule="evenodd" stroke-width="1.3045"/>
  <g transform="translate(345.45 70.096)" fill="none" stroke="#000" stroke-linecap="round" stroke-linejoin="round" stroke-width=".4">
   <path d="m25.695 52c3.6527 0.7278 7.6129 0.70721 11.898-0.1017"/>
   <path d="m25.407 29.72c3.705 0.41393 7.6504 0.48181 11.898-0.1017"/>
   <path d="m25.441 35.245c3.705 0.41393 7.6504 0.48181 11.898-0.1017"/>
   <path d="m25.576 46.974c4.2136 0.44731 7.9428 0.54226 11.898-0.1017"/>
  </g>
  <path d="m381.84 101.6-0.0599 0.33559" fill="#bb9706" stroke="#000" stroke-linecap="round" stroke-linejoin="round" stroke-width=".4"/>
 </g>
 <g transform="matrix(-.12948 .34647 -.34647 -.12948 142.43 124.95)" fill-rule="evenodd" stroke="#000" stroke-width=".29849">
  <path d="m41.743 36.502c4.645 0.4 4.663-4.273 3.285-5.776-2.539-0.925-2.73-1.349-5.2 1.123 0.284 2.373 1.085 3.664 1.915 4.653z" fill="#5c3919"/>
  <path d="m41.646 36.327c0.95 0.163 1.472-0.516 0.317-2.777-0.47-0.92-1.018-1.194-2.11-1.466 0.075 0.658 0.197 2.886 1.793 4.243z" fill="#eac9b7"/>
  <path d="m44.548 26.103c4.15-2.124 1.688-6.095-0.277-6.64-2.644 0.563-3.031 0.305-3.814 3.71 1.498 1.862 2.863 2.532 4.09 2.93z" fill="#b77232"/>
  <path d="m44.372 26.006c0.892-0.366 0.975-1.218-1.203-2.523-0.887-0.531-1.497-0.473-2.566-0.124 0.412 0.518 1.697 2.342 3.77 2.647z" fill="#e4baa3"/>
  <path d="m35.26 39.079c4.149-2.125 1.687-6.095-0.278-6.64-2.643 0.562-3.03 0.305-3.813 3.71 1.498 1.861 2.862 2.531 4.09 2.93z" fill="#8a5626"/>
  <path d="m35.084 38.981c0.892-0.366 0.974-1.217-1.204-2.522-0.886-0.532-1.496-0.473-2.566-0.124 0.413 0.518 1.697 2.342 3.77 2.646z" fill="#eac9b7"/>
  <path d="m28.509 35.29c4.15-2.124 1.992-5.252 0.027-5.796-2.643 0.562-3.03 0.305-3.813 3.709 1.498 1.862 2.066 2.439 3.786 2.087z" fill="#8a5626"/>
  <path d="m25.476 37.493c0.364 4.647 4.846 3.918 6.105 2.314 0.498-2.656 0.905-2.899-1.936-4.931-2.295 0.666-3.329 1.637-4.169 2.617z" fill="#b77232"/>
  <path d="m25.495 37.435c0.216 0.972 2.5 2.727 3.633 1.094 1.243-1.791 0.706-2.568 0.4-3.622-0.638 0.182-2.954 0.733-4.033 2.528z" fill="#eac9b7"/>
  <path d="m19.508 33c1.285 4.48 5.656 2.83 6.568 1.006-0.043-2.702 0.285-3.033-2.905-4.456-2.116 1.112-3.036 2.322-3.663 3.45z" fill="#452b13"/>
  <path d="m19.637 32.847c0.187 0.945 1.007 1.19 2.707-0.696 0.692-0.768 0.752-1.377 0.616-2.494-0.588 0.305-2.625 1.214-3.323 3.19z" fill="#eac9b7"/>
  <path d="m25.229 29.565c1.286 4.48 4.77 2.966 5.683 1.143-0.043-2.702 0.284-3.033-2.906-4.456-2.116 1.112-2.79 1.558-2.777 3.313z" fill="#8a5626"/>
  <path d="m18.203 30.059c-4.631-0.538-4.778 4-3.446 5.545 2.51 1 2.67 1.446 5.211-0.95-0.212-2.38-0.965-3.582-1.765-4.595z" fill="#8a5626"/>
  <path d="m18.255 30.088c-0.995 0.025-3.157 1.928-1.772 3.355 1.517 1.565 2.384 1.187 3.477 1.087-0.056-0.66-0.15-3.039-1.705-4.443z" fill="#eac9b7"/>
  <path d="m25.376 41.75c4.15-2.125 1.688-6.095-0.277-6.64-2.643 0.563-3.03 0.305-3.813 3.71 1.498 1.862 2.862 2.531 4.09 2.93z" fill="#8a5626"/>
  <path d="m25.201 41.653c0.892-0.366 0.974-1.218-1.204-2.523-0.886-0.532-1.496-0.473-2.566-0.124 0.413 0.518 1.697 2.342 3.77 2.647z" fill="#eac9b7"/>
  <path d="m19.919 38.997c4.15-2.124 1.992-5.252 0.027-5.796-2.643 0.562-3.03 0.305-3.813 3.709 1.498 1.862 2.066 2.439 3.786 2.087z" fill="#b77232"/>
  <path d="m16.886 41.2c0.364 4.647 4.846 3.918 6.105 2.314 0.498-2.656 0.905-2.899-1.936-4.931-2.295 0.666-3.329 1.637-4.169 2.617z" fill="#5b3919"/>
  <path d="m16.905 41.142c0.216 0.972 2.5 2.727 3.633 1.094 1.243-1.791 0.706-2.568 0.4-3.622-0.638 0.182-2.954 0.733-4.033 2.528z" fill="#eac9b7"/>
  <path d="m30.206 32.228c2.292 4.06 6.159 1.438 6.623-0.548-0.67-2.618-0.428-3.015-3.862-3.659-1.8 1.573-2.413 2.964-2.761 4.207z" fill="#563618"/>
  <path d="m30.296 32.049c0.402 0.876 1.256 0.923 2.472-1.306 0.494-0.907 0.411-1.514 0.02-2.569-0.502 0.433-2.272 1.791-2.492 3.875z" fill="#eac9b7"/>
  <path d="m34.437 26.516c2.291 4.06 5.329 1.777 5.793-0.208-0.67-2.618-0.428-3.016-3.861-3.66-1.8 1.573-2.353 2.164-1.932 3.868z" fill="#8a5626"/>
  <path d="m33.64 24.1c-4.628 0.553-3.717 5.002-2.063 6.194 2.674 0.39 2.933 0.787 4.848-2.134-0.759-2.267-1.771-3.26-2.785-4.06z" fill="#8a5626"/>
  <path d="m33.699 24.117c-0.963 0.255-2.623 2.609-0.945 3.674 1.84 1.17 2.594 0.601 3.635 0.252-0.208-0.63-0.852-2.921-2.69-3.926z" fill="#eac9b7"/>
  <path d="m35.308 31.806c-1.203 4.504 3.394 5.337 5.114 4.243 1.354-2.34 1.805-2.454-0.198-5.316-2.386-0.136-3.798 0.428-4.916 1.073z" fill="#8a5626"/>
  <path d="m35.498 31.741c-0.326 0.907 0.25 1.54 2.679 0.797 0.988-0.302 1.353-0.794 1.811-1.822-0.66-0.041-2.876-0.31-4.49 1.025z" fill="#eac9b7"/>
  <path d="m42.496 28.38c-1.204 4.505 2.563 5 4.284 3.905 1.353-2.339 1.804-2.454-0.199-5.316-2.386-0.135-3.194-0.1-4.085 1.412z" fill="#8a5626"/>
  <path d="m42.971 24.867c-3.693-2.844-6.155 0.972-5.808 2.981 1.638 2.15 1.545 2.615 4.957 1.867 1.044-2.15 1.016-3.567 0.851-4.848z" fill="#8a5626"/>
  <path d="m43.001 24.92c-0.866-0.491-3.699 0.028-3.246 1.964 0.497 2.123 1.434 2.244 2.421 2.723 0.292-0.595 1.436-2.683 0.825-4.687z" fill="#eac9b7"/>
  <path d="m10.856 30.071c4.162 1.548 35.938-11.83 34.911-13.009l6.304 16.838c-11.636 4.41-21.982 6.863-34.676 13.164z" fill="#d7eef4" fill-opacity=".125" stroke-linejoin="bevel"/>
  <path d="m47.502 16.505c-0.891 0.065-1.552 0.459-1.847 0.82l5.967 16.747c1.32-0.564 1.482-0.254 2.365-0.398 0 0-1.276-2.244-1.716-3.408-0.328-0.87-0.43-1.86-0.825-2.973-0.592-1.665-1.711-3.396-2.325-5.072-0.362-0.99-0.442-2.101-0.678-2.928-0.497-1.74-0.941-2.788-0.941-2.788zm-38.434 14.185c0.529 1.193 1.276 2.102 1.7 3.347 0.498 1.46 0.667 3.258 1.24 4.683 0.607 1.506 1.602 2.856 2.142 4.348 0.594 1.639 0.953 3.15 1.53 4.803 0.58-0.273 1.15-0.54 1.842-0.883l-6.676-16.896c-0.75245 0.08415-1.3343 0.15475-1.778 0.598z" fill="#dbe2e3"/>
 </g>
 <g transform="matrix(.91345 0 0 .92206 -19.371 13.351)" fill="none">
  <path transform="matrix(.90726 0 0 .84569 31.765 19.889)" d="m78.902 135.25c-2.5727-0.258-4.2511-2.7993-3.9287-5.276 0.40339-3.0988 3.4884-5.0985 6.4935-4.646 3.625 0.54582 5.9476 4.1779 5.3634 7.711-0.58482 3.5364-3.7739 6.1032-7.3106 6.2005" stroke="#000" stroke-width="1.5086"/>
  <path transform="matrix(.90726 0 0 .84569 31.765 19.889)" d="m78.902 135.25c-2.5727-0.258-4.2511-2.7993-3.9287-5.276 0.40339-3.0988 3.4884-5.0985 6.4935-4.646 3.625 0.54582 5.9476 4.1779 5.3634 7.711-0.58482 3.5364-3.7739 6.1032-7.3106 6.2005" stroke="#ccc"/>
 </g>
 <g transform="matrix(.91345 0 0 .92206 5.2874 13.044)" fill="none">
  <path transform="matrix(.90726 0 0 .84569 31.765 19.889)" d="m78.902 135.25c-2.5727-0.258-4.2511-2.7993-3.9287-5.276 0.40339-3.0988 3.4884-5.0985 6.4935-4.646 3.625 0.54582 5.9476 4.1779 5.3634 7.711-0.58482 3.5364-3.7739 6.1032-7.3106 6.2005" stroke="#000" stroke-width="1.5086"/>
  <path transform="matrix(.90726 0 0 .84569 31.765 19.889)" d="m78.902 135.25c-2.5727-0.258-4.2511-2.7993-3.9287-5.276 0.40339-3.0988 3.4884-5.0985 6.4935-4.646 3.625 0.54582 5.9476 4.1779 5.3634 7.711-0.58482 3.5364-3.7739 6.1032-7.3106 6.2005" stroke="#ccc"/>
 </g>
 <g transform="matrix(.91345 0 0 .92206 30.543 13.168)" fill="none">
  <path transform="matrix(.90726 0 0 .84569 31.765 19.889)" d="m78.902 135.25c-2.5727-0.258-4.2511-2.7993-3.9287-5.276 0.40339-3.0988 3.4884-5.0985 6.4935-4.646 3.625 0.54582 5.9476 4.1779 5.3634 7.711-0.58482 3.5364-3.7739 6.1032-7.3106 6.2005" stroke="#000" stroke-width="1.5086"/>
  <path transform="matrix(.90726 0 0 .84569 31.765 19.889)" d="m78.902 135.25c-2.5727-0.258-4.2511-2.7993-3.9287-5.276 0.40339-3.0988 3.4884-5.0985 6.4935-4.646 3.625 0.54582 5.9476 4.1779 5.3634 7.711-0.58482 3.5364-3.7739 6.1032-7.3106 6.2005" stroke="#ccc"/>
 </g>
 <g transform="matrix(.91345 0 0 .92206 56.73 13.007)" fill="none">
  <path transform="matrix(.90726 0 0 .84569 31.765 19.889)" d="m78.902 135.25c-2.5727-0.258-4.2511-2.7993-3.9287-5.276 0.40339-3.0988 3.4884-5.0985 6.4935-4.646 3.625 0.54582 5.9476 4.1779 5.3634 7.711-0.58482 3.5364-3.7739 6.1032-7.3106 6.2005" stroke="#000" stroke-width="1.5086"/>
  <path transform="matrix(.90726 0 0 .84569 31.765 19.889)" d="m78.902 135.25c-2.5727-0.258-4.2511-2.7993-3.9287-5.276 0.40339-3.0988 3.4884-5.0985 6.4935-4.646 3.625 0.54582 5.9476 4.1779 5.3634 7.711-0.58482 3.5364-3.7739 6.1032-7.3106 6.2005" stroke="#ccc"/>
 </g>
 <g transform="matrix(.91345 0 0 .92206 -19.759 -21.399)" fill="none">
  <path transform="matrix(.90726 0 0 .84569 31.765 19.889)" d="m78.902 135.25c-2.5727-0.258-4.2511-2.7993-3.9287-5.276 0.40339-3.0988 3.4884-5.0985 6.4935-4.646 3.625 0.54582 5.9476 4.1779 5.3634 7.711-0.58482 3.5364-3.7739 6.1032-7.3106 6.2005" stroke="#000" stroke-width="1.5086"/>
  <path transform="matrix(.90726 0 0 .84569 31.765 19.889)" d="m78.902 135.25c-2.5727-0.258-4.2511-2.7993-3.9287-5.276 0.40339-3.0988 3.4884-5.0985 6.4935-4.646 3.625 0.54582 5.9476 4.1779 5.3634 7.711-0.58482 3.5364-3.7739 6.1032-7.3106 6.2005" stroke="#ccc"/>
 </g>
 <g transform="matrix(.91345 0 0 .92206 4.8988 -21.706)" fill="none">
  <path transform="matrix(.90726 0 0 .84569 31.765 19.889)" d="m78.902 135.25c-2.5727-0.258-4.2511-2.7993-3.9287-5.276 0.40339-3.0988 3.4884-5.0985 6.4935-4.646 3.625 0.54582 5.9476 4.1779 5.3634 7.711-0.58482 3.5364-3.7739 6.1032-7.3106 6.2005" stroke="#000" stroke-width="1.5086"/>
  <path transform="matrix(.90726 0 0 .84569 31.765 19.889)" d="m78.902 135.25c-2.5727-0.258-4.2511-2.7993-3.9287-5.276 0.40339-3.0988 3.4884-5.0985 6.4935-4.646 3.625 0.54582 5.9476 4.1779 5.3634 7.711-0.58482 3.5364-3.7739 6.1032-7.3106 6.2005" stroke="#ccc"/>
 </g>
 <g transform="matrix(.91345 0 0 .92206 30.154 -21.581)" fill="none">
  <path transform="matrix(.90726 0 0 .84569 31.765 19.889)" d="m78.902 135.25c-2.5727-0.258-4.2511-2.7993-3.9287-5.276 0.40339-3.0988 3.4884-5.0985 6.4935-4.646 3.625 0.54582 5.9476 4.1779 5.3634 7.711-0.58482 3.5364-3.7739 6.1032-7.3106 6.2005" stroke="#000" stroke-width="1.5086"/>
  <path transform="matrix(.90726 0 0 .84569 31.765 19.889)" d="m78.902 135.25c-2.5727-0.258-4.2511-2.7993-3.9287-5.276 0.40339-3.0988 3.4884-5.0985 6.4935-4.646 3.625 0.54582 5.9476 4.1779 5.3634 7.711-0.58482 3.5364-3.7739 6.1032-7.3106 6.2005" stroke="#ccc"/>
 </g>
 <g transform="matrix(.91345 0 0 .92206 55.695 -21.339)" fill="none">
  <path transform="matrix(.90726 0 0 .84569 31.765 19.889)" d="m78.902 135.25c-2.5727-0.258-4.2511-2.7993-3.9287-5.276 0.40339-3.0988 3.4884-5.0985 6.4935-4.646 3.625 0.54582 5.9476 4.1779 5.3634 7.711-0.58482 3.5364-3.7739 6.1032-7.3106 6.2005" stroke="#000" stroke-width="1.5086"/>
  <path transform="matrix(.90726 0 0 .84569 31.765 19.889)" d="m78.902 135.25c-2.5727-0.258-4.2511-2.7993-3.9287-5.276 0.40339-3.0988 3.4884-5.0985 6.4935-4.646 3.625 0.54582 5.9476 4.1779 5.3634 7.711-0.58482 3.5364-3.7739 6.1032-7.3106 6.2005" stroke="#ccc"/>
 </g>
 <g transform="matrix(.91345 0 0 .92206 76.162 -21.248)" fill="none">
  <path transform="matrix(.90726 0 0 .84569 31.765 19.889)" d="m78.902 135.25c-2.5727-0.258-4.2511-2.7993-3.9287-5.276 0.40339-3.0988 3.4884-5.0985 6.4935-4.646 3.625 0.54582 5.9476 4.1779 5.3634 7.711-0.58482 3.5364-3.7739 6.1032-7.3106 6.2005" stroke="#000" stroke-width="1.5086"/>
  <path transform="matrix(.90726 0 0 .84569 31.765 19.889)" d="m78.902 135.25c-2.5727-0.258-4.2511-2.7993-3.9287-5.276 0.40339-3.0988 3.4884-5.0985 6.4935-4.646 3.625 0.54582 5.9476 4.1779 5.3634 7.711-0.58482 3.5364-3.7739 6.1032-7.3106 6.2005" stroke="#ccc"/>
 </g>
 <rect x="61.976" y="139.34" width="108.6" height="2.7558" rx=".6413" fill="#4d4d4d" stroke="#000" stroke-linecap="round" stroke-linejoin="round" stroke-width=".54353"/>
 <rect x="62.504" y="105.14" width="116.47" height="2.7382" rx=".68777" fill="#4d4d4d" stroke="#000" stroke-linecap="round" stroke-linejoin="round" stroke-width=".56108"/>
 <g transform="matrix(1.1025 0 0 1.1025 63.34 18.083)">
  <ellipse cx="81.17" cy="94.376" rx="7.0494" ry="6.8687" fill="none" stroke="#fff" stroke-linecap="round" stroke-linejoin="round" stroke-width="1.7322"/>
  <g fill="#fff">
   <path d="m80.895 93.594 0.69024-0.03848c-0.11679-2.0948-0.50372-5.4166-0.93502-9.2257-0.43246-3.8193-0.74625-6.8765-0.80575-8.7787 0.05333 1.7051 0.05221 5.1912 0.1159 8.8236 0.05834 3.3274 0.15658 7.6827 0.24439 9.2576l0.69024-0.03848z"/>
   <path d="m81.502 93.952 0.64183 0.25683c0.77947-1.9479 1.8326-5.122 3.0515-8.7565 1.2222-3.6442 2.2298-6.5476 2.9798-8.2967-0.67226 1.5679-2.1466 4.7269-3.624 8.0459-1.3533 3.0403-3.1049 7.029-3.691 8.4936l0.64183 0.25683z"/>
   <path d="m81.485 94.01s0.47316 0.50402 0.47316 0.50402c1.5297-1.436 3.8256-3.8676 6.4663-6.6464 2.6478-2.7863 4.788-4.9918 6.2069-6.26-1.2719 1.1368-3.9431 3.3768-6.6848 5.7605-2.5114 2.1835-5.7846 5.0583-6.9347 6.1379 0 0 0.47316 0.50402 0.47316 0.50402z"/>
   <path d="m82.083 94.544s0.21582 0.65676 0.21582 0.65676c1.9932-0.65499 5.1017-1.8885 8.6693-3.2909 3.5772-1.4062 6.449-2.5006 8.271-3.0504-1.6332 0.49282-5.0008 1.394-8.493 2.3957-3.1989 0.91755-7.3804 2.1397-8.8789 2.6321 0 0 0.21582 0.65676 0.21582 0.65676z"/>
   <path d="m82.027 94.568-0.08196 0.68644c2.0833 0.24875 5.4218 0.44452 9.2479 0.6812 3.8364 0.23732 6.9016 0.45917 8.7852 0.73089-1.6884-0.24356-5.1214-0.85003-8.7097-1.4181-3.287-0.52034-7.5931-1.1799-9.1594-1.3669l-0.08196 0.68644z"/>
   <path d="m81.569 95.104-0.36438 0.58748c1.783 1.1059 4.726 2.6942 8.0935 4.5257 3.3766 1.8364 6.0609 3.3329 7.6532 4.3752-1.4273-0.9343-4.2823-2.9348-7.2944-4.9661-2.7591-1.8607-6.3831-4.2783-7.7236-5.1098l-0.36438 0.58748z"/>
   <path d="m81.515 95.077-0.57853 0.37845c1.1486 1.7558 3.1445 4.4391 5.4226 7.5221 2.2842 3.0914 4.0845 5.5821 5.0871 7.1997-0.89872-1.45-2.6408-4.4696-4.5122-7.5835-1.7142-2.8524-3.9769-6.5751-4.8405-7.8952l-0.57853 0.37845z"/>
   <path d="m81.278 95.228-0.67673 0.14126c0.42873 2.0538 1.308 5.2804 2.3041 8.9821 0.99872 3.7117 1.7661 6.6876 2.1094 8.5595-0.3077-1.6779-0.82789-5.125-1.434-8.7071-0.55525-3.2813-1.3036-7.5729-1.626-9.117l-0.67673 0.14126z"/>
   <path d="m80.785 95.372-0.68221-0.11183c-0.33939 2.0705-0.68059 5.3972-1.0839 9.2094-0.40443 3.8224-0.75977 6.875-1.1134 8.745 0.31698-1.6762 1.0726-5.0794 1.7966-8.6396 0.66322-3.2612 1.51-7.5344 1.7651-9.0911l-0.68221-0.11183z"/>
   <path d="m80.211 94.931-0.57103-0.38966c-1.1826 1.733-2.8978 4.6039-4.8744 7.8884-1.9819 3.2933-3.5941 5.9098-4.7049 7.4551 0.99567-1.3852 3.1188-4.1502 5.2795-7.0708 1.9793-2.6753 4.5527-6.1904 5.4418-7.4934l-0.57103-0.38966z"/>
   <path d="m80.293 94.812s-0.35285-0.59448-0.35285-0.59448c-1.8042 1.0709-4.572 2.9479-7.7515 5.0893-3.1881 2.1472-5.7549 3.8371-7.4147 4.7682 1.4878-0.83462 4.5805-2.4433 7.7731-4.1771 2.9245-1.5882 6.7423-3.6863 8.0988-4.4915 0 0-0.35285-0.59448-0.35285-0.59448z"/>
   <path d="m79.78 94.251s-0.06855-0.68791-0.06855-0.68791c-2.0878 0.20805-5.3895 0.73951-9.1761 1.3365-3.7968 0.59865-6.8374 1.0455-8.7351 1.1879 1.7011-0.12765 5.184-0.2786 8.8102-0.50067 3.3217-0.20342 7.6685-0.49154 9.2382-0.64797 0 0-0.06855-0.68791-0.06855-0.68791z"/>
   <path d="m79.925 94.237 0.22859-0.65243c-1.9801-0.69376-5.1971-1.6075-8.8812-2.6667-3.6941-1.062-6.6386-1.9421-8.4188-2.615 1.5957 0.60323 4.816 1.9383 8.1963 3.2696 3.0964 1.2194 7.1578 2.7954 8.6465 3.317l0.22859-0.65243z"/>
   <path d="m80.458 93.749s0.4829-0.49469 0.4829-0.49469c-1.5014-1.4656-4.0308-3.6532-6.9221-6.1702-2.8991-2.5237-5.1959-4.5657-6.5248-5.9279 1.1912 1.2211 3.5456 3.7921 6.0466 6.4272 2.291 2.4138 5.3058 5.5585 6.4346 6.6603 0 0 0.4829-0.49469 0.4829-0.49469z"/>
   <path d="m80.561 93.85 0.64672-0.24426c-0.74132-1.9628-2.1092-5.0144-3.666-8.5175-1.5609-3.5125-2.7795-6.3338-3.4082-8.1301 0.56358 1.6101 1.6108 4.9352 2.7639 8.3804 1.0562 3.1558 2.4596 7.28 3.0169 8.7557l0.64672-0.24426z"/>
  </g>
 </g>
</svg>
