<svg cursor="default" version="1.1" viewBox="0 0 256 256" xmlns="http://www.w3.org/2000/svg" xmlns:xlink="http://www.w3.org/1999/xlink">
 <defs>
  <radialGradient id="radialGradient873" cx="861.94" cy="206.66" r="30.931" fx="862.02" fy="199.22" gradientTransform="matrix(0 -4.1159 3.9728 0 131.21 3793.7)" gradientUnits="userSpaceOnUse">
   <stop stop-color="#ff7f2a" offset="0"/>
   <stop stop-color="#f95" offset=".5"/>
   <stop stop-color="#ffe6d5" offset="1"/>
  </radialGradient>
  <radialGradient id="radialGradient883" cx="946.07" cy="302.25" r="78.716" gradientTransform="matrix(0 -3.2346 3.2805 0 -45.453 3367.1)" gradientUnits="userSpaceOnUse">
   <stop stop-color="#ffd5d5" offset="0"/>
   <stop stop-color="#ff8080" offset=".45"/>
   <stop stop-color="#f55" offset=".56"/>
   <stop stop-color="#ff2a2a" offset="1"/>
  </radialGradient>
  <radialGradient id="radialGradient895" cx="698.35" cy="168.51" r="110.21" gradientTransform="matrix(0 2.1359 -1.9662 0 1028.1 -1329.2)" gradientUnits="userSpaceOnUse">
   <stop stop-color="#ffd5d5" offset="0"/>
   <stop stop-color="#ffd5d5" offset=".45"/>
   <stop stop-color="#faa" offset=".675"/>
   <stop stop-color="#f55" offset=".9025"/>
   <stop stop-color="#f55" offset="1"/>
  </radialGradient>
 </defs>
 <g transform="matrix(.61487 0 0 .61487 -387.24 -48.513)">
  <path d="m898.08 176.01c2.512-6.51 4.866-9.472-2.04-11.265-13.048-3.387-52.148-3.01-63.219 5.05s-12.541 6.955-7.574 22.626c27.44 86.593-77.847 156.12-77.847 156.12-12.172 6.734-25.119 6.475-37.29 19.682s-15.797 12.947-11.913 15.021c3.884 2.069 12.692-1.295 12.692-1.295-37.652 22.659 58.266 12.432 58.266 12.432 15.648 0.92 59.043-6.992 67.848-27.711 8.805-20.717 41.693-31.592 49.462-31.853 7.77-0.26 23.048-4.92 28.228-23.049 5.178-18.127-25.904-111.68-16.613-135.76z" fill="url(#radialGradient895)" stroke="#000" stroke-width="1.816"/>
  <g>
   <path d="M711.096 381.523c.795-1.034 1.558-2.092 2.381-3.107.822-1.018 1.646-2.037 2.502-3.025.839-1.007 1.728-1.972 2.601-2.951.897-.957 1.804-1.91 2.757-2.818.936-.928 1.915-1.813 2.912-2.68.995-.871 2.036-1.691 3.101-2.485 1.066-.789 2.16-1.551 3.292-2.252 1.12-.722 2.292-1.362 3.476-1.976 2.372-1.219 4.831-2.228 7.271-3.179 2.448-.934 4.881-1.813 7.251-2.805 1.183-.499 2.357-1.013 3.51-1.563 1.157-.546 2.308-1.104 3.434-1.711 1.132-.595 2.242-1.23 3.342-1.888 1.109-.642 2.192-1.328 3.276-2.015l-.101.074c3.064-2.517 6.143-5.135 9.113-7.828 2.98-2.692 5.91-5.45 8.775-8.275 2.862-2.826 5.635-5.747 8.308-8.756 2.688-2.996 5.252-6.102 7.745-9.26 4.969-6.33 9.505-12.991 13.634-19.871 2.048-3.45 4.032-6.932 5.882-10.48 1.842-3.552 3.564-7.161 5.154-10.821 3.176-7.323 5.652-14.929 7.295-22.689.823-3.88 1.38-7.808 1.725-11.749.346-3.948.336-7.896.139-11.862-.232-3.985-.565-8.003-.952-11.998-.396-3.997-.849-7.989-1.366-11.966-.551-3.978-1.174-7.916-2.264-11.771-.513-1.96-.916-4-1.09-6.033-.147-2.032-.184-4.137.625-6.097l.27.134c-.308.901-.363 1.928-.354 2.907.009.99.119 1.979.273 2.958.323 1.969.85 3.868 1.501 5.765 1.363 3.834 2.201 7.853 2.986 11.82.78 3.981 1.366 7.988 1.894 12 .527 4.016.998 8.022 1.373 12.078.374 4.076.372 8.211.102 12.304-.264 4.1-.875 8.168-1.733 12.174-1.711 8.02-4.505 15.748-7.854 23.164-1.676 3.712-3.537 7.333-5.539 10.869-1.992 3.54-4.11 7.004-6.377 10.366-2.256 3.368-4.612 6.662-7.041 9.898-2.436 3.229-4.955 6.392-7.508 9.522-2.549 3.135-5.17 6.205-7.812 9.262-2.664 3.035-5.34 6.061-8.072 9.04-2.721 2.989-5.506 5.924-8.363 8.792-2.875 2.856-5.743 5.691-8.851 8.365l-.037.032-.063.042c-1.097.74-2.192 1.481-3.32 2.178-1.13.689-2.28 1.354-3.451 1.979-2.331 1.27-4.752 2.375-7.207 3.355-4.909 1.987-9.907 3.416-14.503 5.603-1.144.56-2.282 1.13-3.385 1.769-1.112.621-2.191 1.305-3.25 2.019-1.062.714-2.091 1.478-3.109 2.26-1.017.784-2.021 1.591-2.991 2.443-.984.832-1.922 1.723-2.888 2.586-.935.895-1.888 1.776-2.794 2.705-1.843 1.827-3.602 3.741-5.393 5.646z"/>
  </g>
  <g stroke="#000">
   <path d="M920.398 155.402c.457-.036 1.66-.275 4.35-1.703 8.072-4.287-.298.281 15.271-6.651 15.568-6.932 12.302-8.323 30.37 1.635 18.069 9.958-11.193 20.417-22.264 27.75-11.068 7.333-19.284 9.628-24.286 5.327-5.003-4.301-2.895-9.41-7.645-17.731-2.525-4.423.602-6.314 4.253-7.133.001-.002-.64-1.448-.049-1.494z" fill="url(#radialGradient873)"/>
   <path d="m952.82 186.72s1.999-42.646-2.103-38.655" fill="none"/>
   <path d="m947.2 149.1s6.811-3.357 1.593 1.446-20.677 6.512-21.802 6.637-15.666-0.333-10.791 6.845c5.383 7.927 2.642 13.431 7.645 17.731 5.002 4.301 13.219 2.005 24.286-5.327 11.069-7.333 40.333-17.792 22.264-27.75-18.068-9.958-14.802-8.567-30.37-1.635s-7.198 2.364-15.271 6.651c-7.521 3.995-3.49-0.224-3.49-0.224s4.732-3.083 6.707-3.762c1.878-0.646 10.852-4.5 14.688-6.446 3.368-1.708 9.771-5.177 15.585-2.49 5.813 2.687 15.355 7.176 16.165 8.24 0.809 1.064 3.364 1.987 3.604 7.708 0.228 5.435 4.058 8.885 4.269 24.755 0.212 15.87 6.879 37.698 4.129 66.032-2.751 28.333-4.609 9.054-6.348 44.944-1.736 35.891-11.881 63.524-18.476 100.21-6.596 36.684-38.942 52.076-52.937 59.379-13.992 7.305-34.132 2.937-35.229-12.381 0 0 0.432-4.076 0-8.775-0.43-4.698-10.443 19.185-23.938 11.658-13.492-7.522-23.491-18.201-14.737-39.621s14.087-14.389 19.254-35.828c5.166-21.438 19.104-15.241 29.214-45.659 10.11-30.417 24.764-51.751 25.438-62.417 0.674-10.667-1.607-10.969 4.225-23.167 4.716-9.862 6.722-13.835 2.547-23.416-4.174-9.581 4.787-19.781 1.345-24.764-3.441-4.983-3.032-17.655-3.612-21.175-0.579-3.52-5.164-10.399 10.074-11.317s22.594-5.079 23.969-6.079z" fill="url(#radialGradient883)" stroke-width="1.816"/>
  </g>
  <g>
   <path d="M930.092 184.097c-.009.003-.049.004-.146.045-.097.041-.246.109-.384.265-.297.289-.483.953-.319 1.844.144.887.526 1.977 1.129 3.193.305.618.637 1.305.937 2.083.305.756.588 1.566.877 2.424.588 1.714 1.13 3.638 1.675 5.741.549 2.103 1.087 4.391 1.579 6.854.981 4.931 1.944 10.514 2.112 16.837.005 1.589-.038 3.222-.346 4.973-.194.887-.376 1.792-.965 2.804-.035.064.121-.213.04-.064l-.032.069-.063.138-.13.277-.26.556c-.151.36-.168.633-.271.95-.096.278-.162.658-.225 1.047-.06.384-.144.754-.195 1.15-.082.803-.211 1.59-.255 2.429-.14 1.653-.187 3.364-.264 5.112-.144 3.493-.253 7.131-.656 10.861-.401 3.715-.952 7.602-2.634 11.309-.766 1.753-1.688 3.485-2.384 5.268-.651 1.787-1.343 3.58-1.808 5.49-.252.945-.531 1.886-.765 2.843-.189.967-.381 1.938-.571 2.909-.428 1.937-.644 3.923-.909 5.906-.244 1.986-.341 3.997-.509 6.004-.013 2.016-.121 4.036-.057 6.058l.137 3.033.06 1.56c.03.491-.005 1.051-.054 1.617-.193 2.202-1.008 4.256-2.002 6.139-2.056 3.744-4.761 6.89-7.188 10.123-2.489 3.188-4.804 6.432-6.714 9.856-1.938 3.407-3.496 6.97-4.671 10.611-.563 1.829-1.07 3.664-1.453 5.517-.196.926-.391 1.848-.527 2.778-.156.952-.313 1.899-.47 2.844-.317 1.892-.604 3.771-.938 5.624-.16.928-.321 1.852-.481 2.77-.167.92-.389 1.841-.578 2.752-.396 1.828-.788 3.635-1.175 5.42-.385 1.787-.926 3.504-1.371 5.224-.877 3.438-1.977 6.726-3.014 9.902-1.16 3.139-2.269 6.177-3.508 9.017-.589 1.436-1.22 2.811-1.841 4.149-.62 1.335-1.226 2.64-1.815 3.911-.297.632-.592 1.256-.88 1.871-.366.704-.604 1.209-.979 1.852-.723 1.279-1.675 2.439-2.72 3.308-1.042.831-1.688 1.438-2.271 2.354-.555.904-1.006 1.885-1.404 2.851-.372.985-.742 1.927-1.027 2.865-.304.928-.609 1.812-.853 2.668-1.041 3.404-1.729 6.135-2.209 7.988-.491 1.854-.754 2.844-.754 2.844l-.354-.07s.15-1.014.438-2.913c.142-.95.329-2.121.584-3.491.241-1.374.524-2.953.904-4.716.352-1.77.839-3.711 1.51-5.819.358-1.054.771-2.149 1.363-3.273.33-.556.682-1.118 1.141-1.643.22-.266.465-.488.7-.736.224-.211.446-.424.673-.638.824-.785 1.459-1.694 1.98-2.752.268-.516.56-1.248.797-1.765.261-.629.525-1.268.793-1.913.527-1.291 1.068-2.614 1.622-3.971.555-1.351 1.103-2.738 1.625-4.162 1.121-2.824 2.101-5.83 3.13-8.931.901-3.146 1.957-6.354 2.741-9.748.904-3.363 1.614-6.854 2.399-10.41.188-.894.405-1.776.573-2.69.163-.918.326-1.84.49-2.769.32-1.854.689-3.721 1.037-5.606.177-.942.354-1.892.534-2.842.169-.979.395-1.951.624-2.926.448-1.951 1.03-3.889 1.673-5.816 1.344-3.834 3.054-7.607 5.229-11.125 2.154-3.53 4.704-6.814 7.353-9.945 2.648-3.123 5.485-6.072 7.571-9.405.998-1.671 1.808-3.469 2.067-5.342.063-.449.128-.906.123-1.438l.017-.729.006-.771.017-3.082c-.007-2.052.162-4.095.235-6.13.206-2.028.312-4.06.581-6.066.311-2 .465-4.015.881-5.981.181-.988.36-1.973.541-2.956.206-.978.446-1.946.668-2.917.39-1.948 1.055-3.843 1.603-5.76.604-1.886 1.397-3.633 2.054-5.439 1.288-3.395 1.616-7.124 1.774-10.739.075-1.816.089-3.621.096-5.414.017-1.802.03-3.583.046-5.338.015-1.766.087-3.521.211-5.272.133-1.771.29-3.449.814-5.329.15-.468.294-1.012.472-1.401.203-.413.405-.824.607-1.233.25-.393.446-1.08.593-1.744.271-1.391.349-2.902.363-4.376.037-2.965-.173-5.869-.447-8.614-.291-2.747-.598-5.362-.971-7.808-.74-4.892-1.534-9.146-2.343-12.597-.204-.86-.406-1.674-.628-2.422-.205-.733-.46-1.422-.71-2.078-.504-1.33-.83-2.523-.87-3.548-.067-1.013.255-1.883.73-2.243.453-.364.818-.322.8-.334z" fill="#ff2a2a"/>
  </g>
 </g>
</svg>
