<svg xmlns="http://www.w3.org/2000/svg" xmlns:xlink="http://www.w3.org/1999/xlink" cursor="default" viewBox="0 0 256 256">
    <defs>
        <linearGradient id="innoGrad4">
            <stop offset="0" stop-color="#ffb380"/>
            <stop offset="1" stop-color="#fca"/>
        </linearGradient>
        <linearGradient id="innoGrad5">
            <stop offset="0" stop-color="#f55"/>
            <stop offset="1" stop-color="#ff8080"/>
        </linearGradient>
        <linearGradient id="innoGrad2">
            <stop offset="0" stop-color="#ffb380"/>
            <stop offset="1" stop-color="#f95"/>
        </linearGradient>
        <linearGradient id="innoGrad1">
            <stop offset="0" stop-color="#faa"/>
            <stop offset="1" stop-color="#f55"/>
        </linearGradient>
        <linearGradient id="innoGrad3">
            <stop offset="0" stop-color="#f95"/>
            <stop offset="1" stop-color="#fca"/>
        </linearGradient>
        <radialGradient id="radialGradient928" cx="-307.458" cy="-102.31" r="206.534" fx="-307.458" fy="-102.31" gradientTransform="matrix(.24822 -.15735 .13428 .21183 150.75 73.382)" gradientUnits="userSpaceOnUse" xlink:href="#innoGrad3"/>
        <radialGradient id="radialGradient938" cx="-333.497" cy="-112.049" r="170.574" fx="-333.497" fy="-112.049" gradientTransform="matrix(.38096 -.23596 .12187 .19676 194.447 47.335)" gradientUnits="userSpaceOnUse" xlink:href="#innoGrad1"/>
        <linearGradient id="linearGradient971" x1="-52.925" x2="-99.714" y1="177.763" y2="180.064" gradientTransform="matrix(.24822 -.15735 .15735 .24822 154.05 78.586)" gradientUnits="userSpaceOnUse" xlink:href="#innoGrad2"/>
        <radialGradient id="radialGradient1382" cx="42.24" cy="-92.737" r="19.809" fx="42.24" fy="-92.737" gradientTransform="matrix(.24878 -.15647 .84968 1.35098 218.4 181.087)" gradientUnits="userSpaceOnUse" xlink:href="#innoGrad5"/>
        <linearGradient id="linearGradient1677" x1="120" x2="140.61" y1="69.153" y2="37.695" gradientUnits="userSpaceOnUse" xlink:href="#innoGrad4"/>
    </defs>
    <path fill="url(#linearGradient1677)" fill-rule="evenodd" stroke="#000" stroke-width=".294" d="M105.866 24.013c8.33 4.724 16.2 13.732 8.207 25.75.258-3.24-1.845-5.396-3.648-7.691.292 2.162 1.397 5.59-4.06 7.291l10.462 16.205c3.095-.675 6.003-2.03 9.182 3.67l5.601 2.582.137-4.993c-5.984-2.8-.08-10.174 4.16.706 3.567-2.904 1.265-6.579 3.839-10.17-18.906-2.315-.547-24.696 2.625-1.665 5.628.403 12.99 4.445 9.96 9.162l5.236 4.199c5.82-18.51-12.911-34.253-21.426-36.857-.303 4.304-7.938 11.435-11.486-.283l-2.543.007c-6.4-7.138-13.033-7.412-16.246-7.913zm11.446 27.25c1.144-.724 3.496.937 5.254 3.71 1.758 2.773 2.256 5.609 1.113 6.334-1.144.725-3.496-.936-5.254-3.71-1.758-2.773-2.256-5.609-1.113-6.333z"/>
    <path fill="url(#radialGradient938)" fill-rule="evenodd" stroke="#000" stroke-width=".294" d="M39.035 163.04c-19.81-25.28-20.903-61.352 3.227-79.13 17.324-12.763 44.68-16.266 62.045 2.522C94.681 59.611 75.901 47.096 31.6 74.471c-29.804 38.909-13.513 64.7 7.435 88.57z"/>
    <path fill="#ff8080" fill-rule="evenodd" stroke="#000" stroke-width=".294" d="M127.62 75.316l16.802 22.186 3.31 2.906c.803-9.743-13.661-28.047-21.208-29z"/>
    <path fill="url(#radialGradient928)" fill-rule="evenodd" stroke="#000" stroke-width=".294" d="M113.632 99.678c-.656.951-1.83.936-3.394.453-6.016-9.444-4.926-15.922-9.616-20.232-20.595-18.924-45.955-17.535-63.039-3.265-20.03 16.732-28.954 50.83 1.313 86.463-17.581-13.202-49.38-52.04-11.916-93.229 17.118-18.82 50.31-22.456 50.31-22.456C83.152 46.1 67.222 32.7 56.429 29.685l7.756-2.652c9.661 13.67 19.545 13.159 25.076 13.358l6.644 7.206-1.61.737c-3.228-1.634-4.645-1.848-5.2-.761-1.452 2.846 5.626 6.892 8.271 6.647 2.165-.2 4.266-2.363 6.389-3.767l14.548 21.163c-1.382-.948-3.788.688-4.117 5.489-5.036-12.892-17.454 7.962-2.59 5.368-4.101 11.757.171 12.965 2.037 17.205z"/>
    <path fill="url(#linearGradient971)" fill-rule="evenodd" stroke="#000" stroke-width=".294" d="M237.268 239.946c.41.486.961.483 1.712-.095l.428 1.156 1.518-1.132-1.017-.812c.733-.567.959-1.286.64-1.73L139.716 94.079l6.514 5.013c-1.85-10.594-12.508-24.011-19.271-26.085l.901 5.19-22.016-32c-.245-1.208 1.902-.963 3.41-.802-1.502-1.624-4.604-2.928-6.064-2.816.16-.797.998-.828 3.974-.797-1.637-2.315-4.001-3.753-7.181-4.027.166-1.667 2.266-1.33 3.586-1.434-2.082-2.168-4.903-3.442-7.021-4.023L72.81 2.25 92.8 34.807c-.134 2.49-.529 6.072.591 8.3.278-1.797 1.15-3.65 2.84-2.668-1.162 3.245-.276 5.601.652 7.86.568-2.177 1.43-3.936 2.636-3.15-1.47 1.37-1.23 4.802.076 6.903.37-.827.436-3.143 2.178-3.565l22.474 32.617c-.669 1.716-3.283 6.827-2.235 8.414.952-2.057 2.172-4.079 4.458-5.684-1.173 2.963-3.46 6.155-1.625 8.501.156-2.326 1.613-3.76 4.44-4.257-2.265 3.75-3.293 6.667-2.209 8.168.724-2 1.727-3.858 5.377-4.368-4.799 8.26-2.001 15.16 6.905 12.237-6.458.247-7.591-3.397-3.875-7.522.134.3 101.785 143.353 101.785 143.353z"/>
    <path fill="url(#radialGradient1382)" fill-rule="evenodd" stroke="#000" stroke-width=".294" d="M156.079 67.893l3.639 2.898c3.984-24.04-13.707-38.8-24.653-40.89 1.12.845 1.078 2.274.866 3.788 8.546 1.743 25.078 18.53 20.148 34.204z"/>
    <path fill="#ffe680" fill-rule="evenodd" stroke="#000" stroke-width=".294" d="M151.264 119.422c.675-1.897 3.317-3.572 4.476-3.195l-15.008-20.971c-2.326.306-4.061 1.458-4.411 3.546z"/>
    <ellipse cx="64.961" cy="150.885" fill="#f55" stroke="#000" stroke-linecap="square" stroke-width=".588" paint-order="stroke fill markers" rx="2.061" ry="2.061" transform="rotate(-32.371)"/>
    <ellipse cx="66.874" cy="146.342" fill="#f55" stroke="#000" stroke-linecap="square" stroke-width=".477" paint-order="stroke fill markers" rx="1.067" ry=".987" transform="rotate(-32.371)"/>
    <path fill="#f55" fill-rule="evenodd" stroke="#000" stroke-width=".294" d="M238.666 241.468c.678-1.316 1.693-2.04 2.95-2.342l5.893 11.08z"/>
    <path fill-opacity=".502" fill-rule="evenodd" d="M78.307 44.995c.423 1.34 1.763 4.63.655 4.823C8.729 62.043.426 113.082 23.717 147.928c-26.266-33.762-11.96-67.541 11.085-85.015 10.784-8.177 27.826-13.658 42.374-15.59.643-.085 1.674-.708 1.13-2.328zM56.661 29.691c9.614 1.407 15.26 6.859 20.112 12.674-5.87-4.982-11.71-9.992-20.112-12.674zM94.197 48.254c-6.837-6.012-9.034 2.312-1.462 4.466-5.035-2.855-5.532-8.194 1.462-4.466zM105.688 81.82c-6.604-5.243 4.036-15.34 7.49-6.816-5.116-6.295-10.848 3.468-7.49 6.816zM123.923 61.219c1.418-1.487 1.631-3.398-.46-6.745-2.345-3.752-4.826-4.567-6.047-3.31 3.957-.177 7.905 7.582 6.507 10.055zM131.562 66.953c-3.913-.448-4.052-4.333-2.232-5.625 3.427-2.433 6.49 3.306 6.503 6.153-3.682-10.088-9.798-4.555-4.271-.528zM139.691 57.35c-7.486 1.008-12.807-6.422-7.924-11.16 3.757-3.647 10.433-3.078 10.705 9.444-3.655-22.73-21.074-.913-2.78 1.716z"/>
    <path fill-opacity=".502" fill-rule="evenodd" d="M152.42 64.807c6.01-7.126-7.34-9.283-9.98-9.22 1.72.057 12.778 2.538 9.98 9.22zM124.655 31.919c-.476 9.083 9.652 10.624 11.193 1.728-2.747 5.814-8.59 6.924-11.193-1.728zM113.962 50.084c9.629-9.376 5.443-19.978-7.783-25.96 10.284 5.747 14.543 16.127 7.783 25.96zM110.505 42c.653 5.767-1.428 5.98-3.145 6.932 4.22.006 5.161-4.118 3.145-6.932zM99.646 52.16c-.889-2.661.266-3.992 2.11-3.743-1.292 1.02-2.135 2.429-2.11 3.744zM96.938 48.223c-.846-2.768 1.194-4.705 2.54-3.214-1.395-.196-2.568 1.872-2.54 3.214zM93.39 42.923c-.855-2.85 1.379-5.262 2.779-2.611-1.85-.283-2.83 1.236-2.78 2.611zM103.652 36.56c-2.003-1.886-4.943-1.489-3.771 1.234.655-1.576 2.58-1.831 3.77-1.235zM107.188 41.914c-2.641-1.888-4.297-1.069-4.1.641.728-.938 2.686-.888 4.1-.64z"/>
    <path fill-opacity=".502" fill-rule="evenodd" d="M109.58 45.54c-2.24-1.861-4.775-.792-3.851.437.57-.9 2.66-1.023 3.852-.437z"/>
    <path fill="#ffe6d5" d="M77.642 9.323c2.921 3.762 11.474 15.212 14.396 18.973.7.902 3.014 3.44 3.714 4.342-.7-.901-2.588-3.77-3.288-4.672-2.922-3.762-11.9-14.881-14.822-18.643zM96.678 33.187c.141.009.543.331.694.362.428.09 1.025.206 1.907.525 1.17.422 2.08.932 2.469 1.231-.434-.335-1.151-.916-2.34-1.526-.82-.42-1.502-.657-1.929-.746-.163-.034-.66.163-.801.154zM100.74 38.516c.14.008.543.33.694.362.428.089 1.025.205 1.907.524 1.17.422 2.08.932 2.468 1.231-.434-.334-1.15-.916-2.34-1.526-.82-.42-1.501-.657-1.928-.745-.163-.034-.66.162-.801.154zM103.149 43.358c.187.011.715.345.894.366.362.041 1.083.07 1.805.203.764.141 1.412.37 1.807.585-.702-.382-2.792-1.277-3.546-1.363-.187-.021-.773.22-.96.21zM63.37 27.833c1.235 1.494 3.193 3.694 5.471 5.727 2.342 2.09 4.596 3.635 6.834 4.75a24.63 24.63 0 0 0 4.215 1.638c.982.285 2.371.712 4.32.972 1.891.253 3.632.244 4.724.149-1.148.1-2.76.272-4.753.195-1.94-.075-3.52-.374-4.483-.655-1.034-.3-2.532-.846-4.28-1.81-2.237-1.235-4.444-2.909-6.713-5.092-2.217-2.134-4.093-4.371-5.336-5.874zM109.354 25.199c.656.184 1.485.347 2.968.87 1.212.428 2.404.948 3.401 1.47.386.202.713.39.956.544.602.382 1.617 1.21 2.618 2.179.973.941 1.811 1.935 2.244 2.39-.866-.91-4.317-2.973-5.428-3.678-.233-.147-.54-.355-.89-.588a44.28 44.28 0 0 0-3.084-1.909c-1.254-.696-2.237-1.124-2.785-1.278zM105.136 46.716c3.322 4.887 12.977 19.761 16.3 24.648 1.008 1.483 4.346 5.717 5.354 7.2-1.008-1.483-3.718-6.144-4.726-7.627-3.323-4.887-13.606-19.334-16.928-24.221z"/>
    <path fill-opacity=".502" fill-rule="evenodd" d="M117.764 71.438c-.775-.182-1.45.247-2.098.859-3.806-6.881-9.251-13.63-14.275-20.063l2.127-1.632z"/>
    <path d="M127.83 78.098l-.141.042c.157.52.524 2.088.646 2.67-.122-.582-.2-2.21-.365-2.755l-.14.043zM140.092 94.383c-.079-.067-.213-.359-.284-.414a3.877 3.877 0 0 0-.66-.395c-.352-.169-.69-.266-.844-.334.161.071.448.252.752.485.213.164.438.359.579.468.068.053.378.123.457.19zM135.231 96.86l.115.092c.187-.232.478-.615.667-.856.189-.241.294-.4.353-.478-.079.104-.194.167-.457.374-.267.21-.563.491-.792.776l.114.092zM132.31 92.134l.13.07c.136-.25.243-.476.482-.804a5.04 5.04 0 0 1 .539-.626c-.12.11-.385.292-.648.527a3.015 3.015 0 0 0-.631.763l.129.07zM129.194 88.215l.124.08c.19-.295.507-.828.783-1.243.275-.412.53-.753.673-.914-.143.16-.45.45-.788.823a9.86 9.86 0 0 0-.916 1.174l.124.08zM126.326 84.155l.132.064c.14-.288.322-.808.494-1.198.182-.417.373-.669.585-.839-.22.177-.445.36-.714.768-.208.315-.51.894-.63 1.14l.133.065zM96.111 40.807l.138.05c.07-.193.172-.581.326-.927.165-.373.362-.625.54-.768-.189.151-.414.33-.668.695a4.378 4.378 0 0 0-.474.9l.138.05zM99.28 45.397l.1.107c.179-.167.416-.432.629-.632a5.08 5.08 0 0 1 .703-.547c-.204.13-.527.283-.789.43-.267.149-.53.34-.741.536l.099.106zM103.567 42.586l.006-.147a1.91 1.91 0 0 0-1.09.312c-.334.217-.525.483-.605.575.084-.097.325-.304.673-.445.388-.156.722-.16 1.01-.149l.007-.146zM100.342 37.795l.012-.147a3.62 3.62 0 0 0-1.047.075c-.418.099-.665.259-.862.383.191-.12.488-.222.882-.237.377-.014.765.051 1.002.072l.013-.146zM92.781 35.08l.147.013c.036-.399.175-1.434.247-1.738-.072.304-.501 1.285-.54 1.711l.146.013zM96.94 32.42l.032-.144a5.234 5.234 0 0 0-.975-.097c-.364-.004-.728.026-.926.028.218-.002.551.04.909.118.348.077.718.191.928.238l.032-.143z"/>
    <path fill="none" stroke="#000" stroke-width=".294" d="M137.117 99.848c.676-1.917 2.995-3.421 4.53-3.222"/>
    <path fill-opacity=".502" fill-rule="evenodd" d="M137.128 99.89l.3.395c-.14-.984 2.812-4.198 4.66-3.122l-.352-.477c-1.536-.246-3.654 1.015-4.608 3.205z"/>
    <path fill="none" stroke="#000" stroke-width=".294" d="M138.096 101.237c.676-1.916 2.995-3.42 4.53-3.222"/>
    <path fill-opacity=".502" fill-rule="evenodd" d="M138.107 101.28l.3.394c-.14-.983 2.813-4.197 4.66-3.121l-.352-.477c-1.536-.246-3.654 1.015-4.608 3.204z"/>
    <path fill="none" stroke="#000" stroke-width=".294" d="M139.152 102.665c.677-1.916 2.996-3.42 4.53-3.222"/>
    <path fill-opacity=".502" fill-rule="evenodd" d="M139.163 102.708l.3.394c-.14-.983 2.813-4.197 4.66-3.121l-.352-.477c-1.535-.246-3.654 1.015-4.608 3.204z"/>
    <path fill="none" stroke="#000" stroke-width=".294" d="M140.132 104.055c.676-1.916 2.995-3.42 4.53-3.222"/>
    <path fill-opacity=".502" fill-rule="evenodd" d="M140.142 104.098l.3.394c-.14-.983 2.813-4.198 4.66-3.121l-.352-.478c-1.535-.246-3.654 1.015-4.608 3.205z"/>
    <path fill="none" stroke="#000" stroke-width=".294" d="M141.127 105.398c.676-1.916 2.995-3.42 4.53-3.222"/>
    <path fill-opacity=".502" fill-rule="evenodd" d="M141.138 105.441l.3.394c-.14-.983 2.813-4.197 4.66-3.121l-.352-.477c-1.536-.247-3.654 1.015-4.608 3.204z"/>
    <path fill="none" stroke="#000" stroke-width=".294" d="M142.106 106.788c.676-1.916 2.996-3.42 4.53-3.222"/>
    <path fill-opacity=".502" fill-rule="evenodd" d="M142.117 106.831l.3.394c-.14-.983 2.813-4.198 4.66-3.121l-.352-.478c-1.535-.246-3.654 1.015-4.608 3.205z"/>
    <path fill="none" stroke="#000" stroke-width=".294" d="M143.163 108.216c.676-1.916 2.995-3.42 4.53-3.222"/>
    <path fill-opacity=".502" fill-rule="evenodd" d="M143.173 108.259l.3.394c-.14-.983 2.813-4.198 4.66-3.121l-.352-.478c-1.535-.246-3.653 1.015-4.608 3.205z"/>
    <path fill="none" stroke="#000" stroke-width=".294" d="M144.142 109.605c.676-1.916 2.995-3.42 4.53-3.222"/>
    <path fill-opacity=".502" fill-rule="evenodd" d="M144.153 109.649l.3.394c-.14-.984 2.812-4.198 4.66-3.122l-.353-.477c-1.535-.246-3.653 1.015-4.607 3.205z"/>
    <path fill="none" stroke="#000" stroke-width=".294" d="M145.226 111.074c.676-1.916 2.995-3.42 4.53-3.222"/>
    <path fill-opacity=".502" fill-rule="evenodd" d="M145.236 111.117l.3.394c-.14-.983 2.813-4.197 4.66-3.121l-.352-.477c-1.535-.247-3.653 1.014-4.608 3.204z"/>
    <path fill="none" stroke="#000" stroke-width=".294" d="M146.205 112.464c.676-1.916 2.995-3.42 4.53-3.222"/>
    <path fill-opacity=".502" fill-rule="evenodd" d="M146.216 112.507l.3.394c-.14-.983 2.812-4.198 4.66-3.121l-.352-.478c-1.536-.246-3.654 1.015-4.608 3.205z"/>
    <path fill="none" stroke="#000" stroke-width=".294" d="M147.261 113.892c.676-1.916 2.995-3.42 4.53-3.222"/>
    <path fill-opacity=".502" fill-rule="evenodd" d="M147.272 113.935l.3.394c-.14-.983 2.813-4.198 4.66-3.121l-.352-.478c-1.536-.246-3.654 1.015-4.608 3.205z"/>
    <path fill="none" stroke="#000" stroke-width=".294" d="M148.24 115.281c.677-1.916 2.996-3.42 4.53-3.222"/>
    <path fill-opacity=".502" fill-rule="evenodd" d="M148.251 115.325l.3.393c-.14-.983 2.813-4.197 4.66-3.12l-.352-.478c-1.535-.246-3.654 1.015-4.608 3.205z"/>
    <path fill="none" stroke="#000" stroke-width=".294" d="M149.35 116.752c.676-1.916 2.995-3.42 4.53-3.222"/>
    <path fill-opacity=".502" fill-rule="evenodd" d="M149.361 116.796l.3.393c-.14-.983 2.813-4.197 4.66-3.12l-.352-.478c-1.536-.246-3.654 1.015-4.608 3.205z"/>
    <path fill="none" stroke="#000" stroke-width=".294" d="M150.33 118.142c.676-1.916 2.995-3.42 4.53-3.222"/>
    <path fill-opacity=".502" fill-rule="evenodd" d="M150.34 118.185l.3.394c-.14-.983 2.813-4.197 4.66-3.121l-.352-.477c-1.535-.247-3.654 1.014-4.608 3.204z"/>
    <path fill="#ffe680" fill-rule="evenodd" stroke="#000" stroke-width=".294" d="M181.275 161.79c.696-1.889 3.356-3.535 4.51-3.146l-10.734-15.49c-2.329.281-4.076 1.414-4.45 3.498z"/>
    <path fill="none" stroke="#000" stroke-width=".294" d="M171.387 147.706c.697-1.908 3.032-3.388 4.565-3.172"/>
    <path fill-opacity=".502" fill-rule="evenodd" d="M171.397 147.75l.296.397c-.13-.985 2.858-4.167 4.694-3.07l-.347-.482c-1.533-.263-3.665.975-4.643 3.155z"/>
    <path fill="none" stroke="#000" stroke-width=".294" d="M172.35 149.106c.698-1.908 3.033-3.387 4.566-3.172"/>
    <path fill-opacity=".502" fill-rule="evenodd" d="M172.361 149.15l.295.397c-.129-.985 2.86-4.167 4.695-3.07l-.347-.481c-1.533-.263-3.665.975-4.643 3.154z"/>
    <path fill="none" stroke="#000" stroke-width=".294" d="M173.391 150.546c.697-1.909 3.033-3.388 4.565-3.173"/>
    <path fill-opacity=".502" fill-rule="evenodd" d="M173.402 150.59l.295.396c-.13-.984 2.859-4.166 4.695-3.07l-.348-.48c-1.532-.264-3.664.974-4.642 3.153z"/>
    <path fill="none" stroke="#000" stroke-width=".294" d="M174.355 151.946c.697-1.909 3.033-3.388 4.565-3.172"/>
    <path fill-opacity=".502" fill-rule="evenodd" d="M174.366 151.99l.295.397c-.13-.985 2.859-4.167 4.695-3.07l-.348-.482c-1.532-.263-3.664.975-4.642 3.154z"/>
    <path fill="none" stroke="#000" stroke-width=".294" d="M175.336 153.3c.697-1.909 3.033-3.388 4.565-3.172"/>
    <path fill-opacity=".502" fill-rule="evenodd" d="M175.347 153.344l.295.397c-.13-.985 2.859-4.167 4.694-3.07l-.347-.482c-1.533-.263-3.664.975-4.642 3.155z"/>
    <path fill="none" stroke="#000" stroke-width=".294" d="M176.3 154.7c.697-1.908 3.033-3.387 4.565-3.172"/>
    <path fill-opacity=".502" fill-rule="evenodd" d="M176.31 154.744l.296.397c-.13-.985 2.859-4.167 4.694-3.07l-.347-.481c-1.533-.263-3.664.974-4.642 3.154z"/>
    <path fill="none" stroke="#000" stroke-width=".294" d="M177.341 156.14c.697-1.909 3.032-3.388 4.565-3.173"/>
    <path fill-opacity=".502" fill-rule="evenodd" d="M177.351 156.183l.296.397c-.13-.984 2.858-4.166 4.694-3.07l-.347-.481c-1.533-.263-3.665.975-4.643 3.154z"/>
    <path fill="none" stroke="#000" stroke-width=".294" d="M178.305 157.54c.697-1.909 3.032-3.388 4.565-3.172"/>
    <path fill-opacity=".502" fill-rule="evenodd" d="M178.315 157.583l.296.398c-.13-.985 2.858-4.167 4.694-3.07l-.347-.482c-1.533-.263-3.665.975-4.643 3.154z"/>
    <path fill="none" stroke="#000" stroke-width=".294" d="M179.373 159.02c.697-1.908 3.032-3.387 4.565-3.172"/>
    <path fill-opacity=".502" fill-rule="evenodd" d="M179.383 159.064l.295.397c-.129-.985 2.859-4.167 4.695-3.07l-.347-.481c-1.533-.263-3.665.975-4.643 3.154z"/>
    <path fill="none" stroke="#000" stroke-width=".294" d="M180.337 160.42c.697-1.908 3.032-3.387 4.565-3.172"/>
    <path fill-opacity=".502" fill-rule="evenodd" d="M180.347 160.464l.295.397c-.13-.984 2.859-4.166 4.695-3.07l-.347-.481c-1.533-.263-3.665.975-4.643 3.154z"/>
    <path fill="#ffd5d5" d="M35.296 158.419c-3.447-5.447-7.351-12.701-9.893-20.978-2.555-8.321-3.403-16.604-2.219-24.54 2.135-14.303 10.269-23.934 17.862-29.705a53.766 53.766 0 0 1 6.857-4.42c5.047-2.745 13.683-6.497 24.634-6.698 5.743-.106 11.237.806 16.213 2.656 6.602 2.454 11.092 6.107 13.884 9.033a39.176 39.176 0 0 0-13.755-9.366c-4.962-2.017-10.494-3.13-16.344-3.207-11.14-.148-20.162 3.43-25.354 6.255a50.326 50.326 0 0 0-7.01 4.616c-7.749 6.087-15.781 16.168-17.636 30.746-1.026 8.066 0 16.39 2.678 24.69 2.666 8.263 6.635 15.469 10.083 20.918zM137.01 31.164c.905.288 2.286.743 4.124 1.732a28.377 28.377 0 0 1 4.587 3.1c.16.133.304.256.429.367 1.788 1.578 4.674 4.483 7.361 8.742 2.22 3.516 3.98 7.453 4.929 11.559 1.236 5.347.778 9.564.095 12.474.682-2.908 1.058-7.146-.274-12.43-1.025-4.062-2.856-7.93-5.12-11.365a42.73 42.73 0 0 0-7.397-8.52l-.415-.368c-1.136-.999-2.586-2.21-4.334-3.323-1.712-1.089-3.11-1.69-3.985-1.968z"/>
    <path fill="#faa" d="M240.778 239.776c.05.078-.424.735-.368.824.244.38.73 1.063 1.354 1.933.522.728 1.366 1.901 1.98 2.747a103.122 103.122 0 0 0 1.868 2.519c.432.555.566.68.566.68s-.05-.176-.348-.813c-.303-.65-.776-1.6-1.4-2.81a209.57 209.57 0 0 0-1.58-3c-.516-.958-.913-1.671-1.167-2.07-.057-.089-.854.068-.905-.01z"/>
    <path fill="#ffd5d5" d="M134.035 91.33c.3-.158.793-.217 1.233-.058.388.14.609.393.765.566.038.042.071.078.102.106.122.112.46.289.753.655.31.387.498.874.51 1.194-.01-.287.056-.853-.028-1.394-.088-.571-.31-1.023-.531-1.226a1.193 1.193 0 0 0-.192-.139 2.028 2.028 0 0 0-1.349-.234c-.576.093-.97.375-1.263.53zM133.913 87.249c.178-.098.475-.155.736-.094.234.054.353.176.428.252a.587.587 0 0 0 .047.045c.053.042.194.091.327.24.167.186.26.46.247.644.013-.195.09-.436.047-.766-.036-.267-.15-.473-.263-.564a.564.564 0 0 0-.106-.066c-.193-.093-.452-.12-.738-.044-.317.085-.545.254-.725.353z"/>
    <path fill-opacity=".502" fill-rule="evenodd" d="M129.844 87.219c-1.524-.385-5.5 1.915-5.08 4.789.777-2.269 1.935-3.611 4.549-3.934zM126.865 82.93c-1.298.156-4.18 3.25-4.902 6.445 1.227-2.34 2.505-4.35 4.568-5.502zM132.978 91.157c-1.524-.385-5.523 1.506-5.92 4.803 1.021-2.33 2.755-3.73 5.369-4.053zM138.415 104.254c-7.545-.958-5.016-4.739-3.205-7.44-4.79 3.866-2.741 8.178 3.205 7.44z"/>
    <path fill="#ffd5d5" d="M128.362 72.6c1.38.705 3.515 2.138 6.013 4.526 1.461 1.397 2.572 2.662 3.323 3.516a53.946 53.946 0 0 1 2.433 2.957c1.65 2.164 3.314 4.727 4.63 7.532 1.595 3.399 2.172 6.081 2.352 7.848-.181-1.782-.654-4.448-2.155-7.936-1.231-2.862-2.826-5.507-4.435-7.734a41.147 41.147 0 0 0-2.409-3.033 36.86 36.86 0 0 0-3.49-3.425c-2.699-2.326-4.823-3.516-6.262-4.251z"/>
    <path fill="#ffe6d5" d="M155.696 118.036c2.695 3.927 10.559 15.861 13.254 19.788.646.942 2.806 3.613 3.452 4.554-.646-.941-2.362-3.917-3.008-4.858-2.695-3.928-11.003-15.557-13.698-19.484zM239.552 237.148c-8.74-12.248-34.738-49.146-43.477-61.393-2.095-2.935-8.597-11.584-10.692-14.52 2.095 2.936 8.159 11.898 10.253 14.833 8.74 12.247 35.177 48.832 43.916 61.08z"/>
</svg>
