<?xml version="1.0" encoding="UTF-8"?>
<svg cursor="default" version="1.1" viewBox="0 0 256 256" xmlns="http://www.w3.org/2000/svg" xmlns:cc="http://creativecommons.org/ns#" xmlns:dc="http://purl.org/dc/elements/1.1/" xmlns:rdf="http://www.w3.org/1999/02/22-rdf-syntax-ns#" xmlns:xlink="http://www.w3.org/1999/xlink">
 <metadata>
  <rdf:RDF>
   <cc:Work rdf:about="">
    <dc:format>image/svg+xml</dc:format>
    <dc:type rdf:resource="http://purl.org/dc/dcmitype/StillImage"/>
    <dc:title/>
   </cc:Work>
  </rdf:RDF>
 </metadata>
 <defs>
  <linearGradient id="linearGradient936" x1="24.929" x2="225.89" y1="123.69" y2="133.66" gradientTransform="rotate(-1.6319 154.95 -6.1754)" gradientUnits="userSpaceOnUse">
   <stop stop-color="#f55" offset="0"/>
   <stop stop-color="#ff8080" offset=".30068"/>
   <stop stop-color="#ff8080" offset=".69609"/>
   <stop stop-color="#faa" offset="1"/>
  </linearGradient>
  <linearGradient id="linearGradient948" x1="129.63" x2="129.34" y1="15.632" y2="48.039" gradientTransform="rotate(-1.6319 154.95 -6.1754)" gradientUnits="userSpaceOnUse">
   <stop stop-color="#f55" offset="0"/>
   <stop stop-color="#ff2a2a" offset="1"/>
  </linearGradient>
 </defs>
 <g stroke="#000">
  <path d="m85.824 17.814c11.316-3.5496 101.24-2.1969 95.887 0.01011l11.348 69.807-111.92-0.33832z" fill="url(#linearGradient948)" fill-rule="evenodd" stroke-width="1px"/>
  <path d="m93.774 21.796c24.516 6.6688 63.604 4.0646 77.14 0.77577" fill="none" stroke-width="1px"/>
  <path d="m86.288 20.407c37.581-0.12875 96.093-1.3641 94.784-1.2082" fill="none" stroke-width=".5"/>
  <path d="m85.824 17.814 10.605 3.2256-6.6792 58.954 8.5727-58.573c22.198 4.6738 44.718 2.6878 66.001 0.29003l11.373 56.377-9.4134-56.568 15.428-3.6951c14.002 70.283 28.262 136.13 41.597 207.85-13.022 2.7007-24.62 5.6218-29.029 9.5085-23.31 5.8773-46.687 6.1444-62.201 7.0896-20.334 1.2389-41.017-5.1004-47.198-9.3989-27.629-5.8822-32.794-14.786-43.208-21.558 13.05-62.193 20.341-115.16 44.151-193.5z" fill="url(#linearGradient936)" fill-rule="evenodd" stroke-width="1px"/>
 </g>
 <g fill="none" stroke="#000" stroke-width=".5">
  <path d="m84.881 232.87c0.21637-51.384 1.5615-102.43 4.8686-152.88"/>
  <path d="m175.7 78.087c7.8021 68.324 13.757 118.31 18.583 157.09"/>
  <path d="m82.923 26.064c2.5277 1.3591 5.0732 2.7118 8.6509 3.6873l-4.3878 50.722 5.3092 0.66263 7.5029-46.131c0.7298 0.05582 0.92933 0.05392 1.6854 0.09915 0.36296 0.02172 0.1803-7.9838 1.346-7.8879 3.5228-0.02994 2.1696 8.2192 2.6008 8.2385 16.698 0.74608 39.717-0.48825 52.512-2.0649 0.82827-0.10206-1.014-6.9128 2.1786-6.951 2.3225-0.27174 1.4238 6.4649 1.9945 6.3761 0.33203-0.0517 0.65328-0.1035 0.96327-0.15535l9.2262 47.689 6.6182-1.0024-7.6442-49.294c4.1303-1.4835 8.1604-2.2236 11.552-3.9916"/>
 </g>
 <g stroke="#000" stroke-linecap="round" stroke-linejoin="round">
  <ellipse transform="rotate(-1.6319)" cx="102.96" cy="30.178" rx="2.9039" ry="2.4971" fill="#ffb380" style="paint-order:stroke fill markers"/>
  <ellipse transform="rotate(-1.6319)" cx="102.96" cy="30.178" rx="1.0125" ry=".87069" fill="#f95" stroke-width=".34868" style="paint-order:stroke fill markers"/>
  <ellipse transform="rotate(-1.6319)" cx="159.42" cy="31.313" rx="2.9039" ry="2.4971" fill="#ffb380" style="paint-order:stroke fill markers"/>
  <ellipse transform="rotate(-1.6319)" cx="159.42" cy="31.313" rx="1.0125" ry=".87069" fill="#f95" stroke-width=".34868" style="paint-order:stroke fill markers"/>
 </g>
 <path d="m44.161 199.41c14.573 6.427 31.716 12.781 40.645 19.368 26.904 15.453 86.624 3.0408 107.63 0.38669 5.8748-2.5501 13.221-5.1618 28.161-8.092" fill="none" stroke="#000" stroke-width=".5"/>
</svg>
