<?xml version="1.0" encoding="UTF-8"?>
<svg cursor="default" version="1.1" viewBox="0 0 256 256" xmlns="http://www.w3.org/2000/svg" xmlns:cc="http://creativecommons.org/ns#" xmlns:dc="http://purl.org/dc/elements/1.1/" xmlns:rdf="http://www.w3.org/1999/02/22-rdf-syntax-ns#" xmlns:xlink="http://www.w3.org/1999/xlink">
 <metadata>
  <rdf:RDF>
   <cc:Work rdf:about="">
    <dc:format>image/svg+xml</dc:format>
    <dc:type rdf:resource="http://purl.org/dc/dcmitype/StillImage"/>
    <dc:title/>
   </cc:Work>
  </rdf:RDF>
 </metadata>
 <defs>
  <linearGradient id="innoGrad1">
   <stop stop-color="#f55" offset="0"/>
   <stop stop-color="#ff8080" offset="1"/>
  </linearGradient>
  <linearGradient id="innoGrad3">
   <stop stop-color="#ff8080" offset="0"/>
   <stop stop-color="#f55" offset=".52485"/>
   <stop stop-color="#ff8080" offset="1"/>
  </linearGradient>
  <linearGradient id="linearGradient1152" x1="97.492" x2="94.508" y1="186.98" y2="220.88" gradientTransform="translate(-10.355 -2.6846)" gradientUnits="userSpaceOnUse" xlink:href="#innoGrad1"/>
  <linearGradient id="linearGradient1160" x1="184.27" x2="186.44" y1="185.08" y2="213.15" gradientTransform="translate(-10.355 -2.6846)" gradientUnits="userSpaceOnUse" xlink:href="#innoGrad1"/>
  <linearGradient id="linearGradient1168" x1="127.59" x2="90.305" y1="126.37" y2="125.56" gradientTransform="translate(-10.355 -2.6846)" gradientUnits="userSpaceOnUse" xlink:href="#innoGrad3"/>
  <linearGradient id="linearGradient1178" x1="168.27" x2="193.9" y1="116.75" y2="120.27" gradientTransform="translate(-10.355 -2.6846)" gradientUnits="userSpaceOnUse" xlink:href="#innoGrad3"/>
  <linearGradient id="linearGradient1194" x1="124.47" x2="131.53" y1="186.85" y2="132.34" gradientTransform="translate(-10.355 -2.6846)" gradientUnits="userSpaceOnUse" xlink:href="#innoGrad3"/>
  <linearGradient id="linearGradient1210" x1="155.12" x2="158.1" y1="135.32" y2="187.93" gradientTransform="translate(-10.355 -2.6846)" gradientUnits="userSpaceOnUse" xlink:href="#innoGrad3"/>
  <linearGradient id="linearGradient1234" x1="139.93" x2="111.73" y1="159.73" y2="155.12" gradientTransform="translate(-10.355 -2.6846)" gradientUnits="userSpaceOnUse">
   <stop stop-color="#ff8080" offset="0"/>
   <stop stop-color="#faa" offset="1"/>
  </linearGradient>
  <linearGradient id="linearGradient1242" x1="138.85" x2="162.03" y1="159.46" y2="158.51" gradientTransform="translate(-10.355 -2.6846)" gradientUnits="userSpaceOnUse">
   <stop stop-color="#faa" offset="0"/>
   <stop stop-color="#ff8080" offset=".26"/>
   <stop stop-color="#faa" offset=".50493"/>
   <stop stop-color="#ff8080" offset=".80959"/>
   <stop stop-color="#faa" offset="1"/>
  </linearGradient>
  <linearGradient id="linearGradient1256" x1="143.63" x2="145.16" y1="69.995" y2="18.987" gradientTransform="translate(-10.355 -2.6846)" gradientUnits="userSpaceOnUse">
   <stop stop-color="#ff2a2a" offset="0"/>
   <stop stop-color="#f55" offset="1"/>
  </linearGradient>
  <linearGradient id="linearGradient1279" x1="88.592" x2="66.348" y1="87.061" y2="86.678" gradientTransform="translate(-10.355 -2.6846)" gradientUnits="userSpaceOnUse" xlink:href="#innoGrad1"/>
  <linearGradient id="linearGradient1287" x1="192.33" x2="209.97" y1="116.21" y2="115.83" gradientTransform="translate(-10.355 -2.6846)" gradientUnits="userSpaceOnUse" xlink:href="#innoGrad1"/>
 </defs>
 <g stroke="#000">
  <g fill-rule="evenodd" stroke-width="1px">
   <path d="m109.07 10.782c0.95757-6.1367 42.435-6.8046 44.985-0.30523 8.8064 24.283-10.516 50.157-18.915 75.414-18.564-17.409-30.214-45.059-26.07-75.109z" fill="url(#linearGradient1256)"/>
   <path d="m133.44 244.61c-5.4904 4.9745-21.485 1.3381-33.252 1.1677-1.8003-3.4935-5.8819-3.8097-9.1403-5.2724l0.81054-3.7485c-19.137-1.2929-17.486-6.464-21.541-10.573 1.3751-25.897-1.9122-51.902 9.3271-77.567l1.1764-8.8881c-4.5871-10.14-7.8374-19.489-11.523-29.095l-6.1252-78.191 38.563-7.0427 33.661 53.377z" fill="url(#linearGradient1194)"/>
   <path d="m132.29 245.62c-5.1584-62.018-1.7877-108.73 0.69126-170.14l35.925-50.186 31.786 11.778-10.751 61.157c-4.3811 13.117-5.7051 28.428-14.109 39.842l1.9245 15.906c6.3709 3.1221 14.964 55.137 15.336 85.372l-5.6035-1.4863c-0.68931 2.2856-7.2414 1.4818-10.704 1.4132-4.5744-0.0907-10.1 0.42369-15.299 1.9332l-0.0963 2.4716c-7.2274 3.5124-28.35 13.201-29.1 1.9438z" fill="url(#linearGradient1210)"/>
  </g>
  <g>
   <ellipse transform="rotate(4.0712)" cx="151.08" cy="161.64" rx="5.1361" ry="4.9327" fill="#ffb380" stroke-linecap="round" stroke-linejoin="round" stroke-width=".89723" style="paint-order:stroke fill markers"/>
   <ellipse transform="rotate(4.0712)" cx="148.95" cy="133.3" rx="5.1956" ry="5.06" fill="#ffb380" stroke-linecap="round" stroke-linejoin="round" stroke-width=".91397" style="paint-order:stroke fill markers"/>
   <path d="m189.38 96.373 10.498-59.364 3.2075 0.77204c9.6048 13.32 10.759 28.159 13.265 42.813 8.9034 52.052 6.158 107.59 8.6194 161.56l-34.131 0.15353c-0.27457-42.322-5.342-65.272-4.6291-89.991 0.57647-19.987 6.8739-46.086 3.1703-55.945z" fill="url(#linearGradient1287)" fill-rule="evenodd" stroke-width="1px"/>
   <path d="m70.017 108.24c-0.13275-23.237-0.33097-46.52-7.4575-74.752-15.03 6.0979-18.357 39.24-18.184 55.082 0.31334 28.691-1.6971 40.909-3.3795 56.241l-8.806 71.23-3.3178 24.324c4.0683 2.564 16.335 4.7043 27.963-0.38864l2.3902-22.123c3.6649-36.606 13.26-79.21 10.792-109.61z" fill="url(#linearGradient1279)" fill-rule="evenodd" stroke-width="1px"/>
  </g>
 </g>
 <g fill-rule="evenodd" stroke="#000" stroke-width="1px">
  <path d="m167.36 27.898c-2.8374-4.1488 28.741 5.7928 33.293 9.7102-1.4499-2.0836-2.6056-4.1949-6.1602-6.0798-11.748-4.5059-23.525-10.162-30.645-9.0939z" fill="#faa"/>
  <path d="m78.626 136.25c0.27026 5.138-0.12217 10.346-1.9084 17.264 18.554 5.8879 36.91 11.158 54.581 14.284l14.913-19.639c-25.281 1.6713-51.666-6.5228-67.585-11.909z" fill="url(#linearGradient1234)"/>
  <path d="m177.29 137.63c-8.9356 4.2841-19.913 7.5158-31.269 10.552-1.5195 1.3018-7.341 1.6011-10.955 1.1234l-13.921-0.17522-11.716 8.9535c-0.92794 0.70913-1.9613 1.8882 0.30998 3.2845l12.488 6.938 14.235-0.41418c4.4019 0.23229 6.974-0.74753 7.5543-1.0936 12.155-4.2317 28.108-6.7471 35.466-12.225-1.127-5.6763-1.7852-11.319-2.1924-16.944z" fill="url(#linearGradient1242)"/>
 </g>
 <path d="m139.91 168.53c0.30179-0.0609 0.71698-0.034 1.0878 0.15278 0.27653 0.13934 0.48538 0.34384 0.63853 0.58715 0.35442 0.56305 0.3722 1.2554 0.46378 1.6263 1e-3 5e-3 3e-3 0.0105 4e-3 0.0159 0.12493 0.48292 0.38436 1.0019 0.47633 2.0131 0.0834 0.91691-0.0652 1.6501-0.29753 1.9777 0.26036-0.36719 0.70574-0.8154 1.0842-1.8659 0.3497-0.97078 0.41959-1.9396 0.28958-2.5017-2e-3 -7e-3 -4e-3 -0.0149-5e-3 -0.0221-0.12818-0.51905-0.63562-1.4068-1.4976-1.8577-0.36243-0.18962-0.72718-0.27154-1.0831-0.28161-0.46547-0.0132-0.86794 0.0971-1.1607 0.1562z" fill="#fca"/>
 <g stroke="#000">
  <path d="m74.749 176.49c-7.5394 9.6236-9.1095 24.761-10.791 39.796 5.4726 0.28653 8.0104 1.0095 11.303 1.6201z" fill="#f55" fill-rule="evenodd" stroke-width="1px"/>
  <path d="m107.1 28.858c1.1105-4.7842 41.97-7.8502 49.085 0.27119" fill="none" stroke-width=".5"/>
  <path d="m132.88 75.451c11.645-7.4342 21.957-10.647 35.967-18.875 1.5588-0.91549 2.257-2.4768 1.3515-3.71-2.5274-3.4424-4.8781-6.8721-7.1514-10.296 2.8308-0.30188 6.726-0.70265 9.5735-1.2382 2.799-0.52644 1.6153-2.5942 0.87788-4.271-0.87807-1.9965-4.4742-8.9004-7.6263-12.615l-12.068-14.221c0.84434 18.554-4.3812 39.622-20.925 65.227z" fill="#ff8080" fill-rule="evenodd" stroke-width="1px"/>
 </g>
 <g>
  <path d="m161.12 241.55 0.49983-0.013c-9e-3 -0.32753-0.14307-2.2747-0.22207-3.2642-0.10446-1.3086-0.28564-2.6031-0.35666-3.2533 0.0834 0.76332 0.0139 1.8438-0.14327 3.2455-0.15895 1.4176-0.2986 2.4919-0.27766 3.2981l0.49983-0.013z"/>
  <path d="m187.21 237.84 0.49812 0.0434c0.15578-1.7896 0.22116-7.1896 0.54298-8.9411-0.32182 1.7514-1.3836 7.0668-1.5392 8.8543l0.49812 0.0434z"/>
  <path d="m100.24 245.84 0.49987 0.0112c0.0337-1.5028-0.2602-6.0795-0.15339-7.5801-0.10681 1.5007-0.81248 6.0462-0.84635 7.5577l0.49987 0.0112z"/>
 </g>
 <path d="m138.01 138.97c0.75763-0.0686 1.7349 0.25427 2.505 1.0677 0.73894 0.78049 1.0088 1.665 1.222 2.1203 3e-3 6e-3 6e-3 0.0127 9e-3 0.0191 0.24355 0.51003 0.68843 1.2018 0.85527 2.1686 0.0657 0.38094 0.071 0.7397 0.0103 1.0598-0.0815 0.42981-0.27336 0.73133-0.4661 0.88657 0.1875-0.15101 0.47711-0.35772 0.75412-0.7628 0.20812-0.30432 0.38235-0.68356 0.49499-1.1397 0.2714-1.0991 0.0873-2.2514-0.199-2.884-4e-3 -8e-3 -8e-3 -0.0169-0.0115-0.0251-0.27975-0.59749-1.0551-1.5404-2.2047-2.0983-1.225-0.59451-2.2281-0.47923-2.9694-0.41213z" fill="#ffe6d5"/>
 <g stroke="#000">
  <path d="m144.65 145.55-8.4525 0.33308c-1.7726 0.0697-2.3167 1.9928-2.3255 3.4214l-0.11404 18.655c-0.0116 1.8849 1.1464 2.6041 2.505 2.4373l9.1524-1.1248c1.7656-0.21678 1.7104-1.573 1.7414-3.2007l0.35901-18.744c0.0343-1.7979-1.6856-1.8234-2.8658-1.7771zm-0.74857 1.6535c0.93015-0.0441 2.2853-0.0247 2.2532 1.5396l-0.33488 16.308c-0.029 1.4163 0.0108 2.5971-1.3812 2.7907l-7.2162 1.0031c-1.0711 0.14897-1.9818-0.47294-1.9674-2.113l0.14227-16.231c0.0109-1.243 0.44416-2.9178 1.8412-2.9835z" fill="#fca" fill-rule="evenodd" stroke-width="1px"/>
  <circle transform="rotate(4.0712)" cx="135.32" cy="146.11" r=".76703" fill="#ff2a2a" stroke-linecap="round" stroke-linejoin="round" style="paint-order:stroke fill markers"/>
  <ellipse transform="rotate(4.0712)" cx="135.92" cy="152.65" rx=".88688" ry=".83894" fill="#ff2a2a" stroke-linecap="round" stroke-linejoin="round" style="paint-order:stroke fill markers"/>
  <path d="m142.39 160.77c0.71699-0.0731 3.9398-0.30316 3.9398-0.30316 1.6946-0.1316 1.1232 1.7413 0.2549 1.8139l-3.922 0.32824c-1.8445 0.0411-1.538-1.5643-0.27274-1.839z" fill="#fca" fill-rule="evenodd" stroke-width="1px"/>
  <path d="m143 153.58 3.7189-0.45751c1.2662-0.15575 1.0551 1.766 0.15689 1.8637l-3.8174 0.41527c-1.2468 0.0117-1.3522-1.7955-0.0584-1.8214z" fill="#fca" fill-rule="evenodd" stroke-width="1px"/>
  <ellipse transform="rotate(4.0712)" cx="146" cy="105.54" rx="5.2239" ry="5.1561" fill="#ffb380" stroke-linecap="round" stroke-linejoin="round" stroke-width=".92512" style="paint-order:stroke fill markers"/>
  <ellipse transform="rotate(4.0712)" cx="143.69" cy="75.336" rx="5.033" ry="5.0669" fill="#ffb380" stroke-linecap="round" stroke-linejoin="round" stroke-width=".90017" style="paint-order:stroke fill markers"/>
 </g>
 <g fill="none" stroke="#000" stroke-width=".5">
  <path d="m32.386 214.86c6.3696 3.9602 15.453 5.2048 26.896 4.0893"/>
  <path d="m42.319 218.55c7.6892-43.388 14.511-88.121 24.96-127.23"/>
  <path d="m190.37 216.45c9.7322 0.46784 20.183 0.50553 33.667-1.274"/>
  <path d="m206.67 216.52c-3.4522-49.075-7.2608-96.855-13.607-135.41"/>
 </g>
 <g fill-rule="evenodd" stroke="#000">
  <g stroke-width=".75">
   <path d="m69.341 226.59c-0.15748-16.508 0.62823-32.758 2.2483-48.777l33.09 10.647c-1.7028 16.69-1.0025 33.55 0.89187 50.496-12.238-3.7795-28.567 1.1201-36.23-12.366z" fill="url(#linearGradient1152)"/>
   <path d="m161.59 191.02c-3.0531 14.237-2.2848 28.746-1.8536 43.232 11.724-3.0184 23.462-6.2333 34.912-5.3994-1.6158-17.239-3.8432-32.799-7.2568-45.104z" fill="url(#linearGradient1160)"/>
   <path d="m107.29 168.94-1.559 23.814c-0.16426 2.5092-1.6626 6.5617-5.6599 5.0346-10.99-4.1986-24.577-6.2656-28.764-16.049-0.96228-2.2486-1.3238-3.4784-0.86108-5.0909 1.9824-6.909 1.8071-17.825 6.0848-20.472 8.7933 9.671 19.426 10.063 30.759 12.763z" fill="#ff8080"/>
   <path d="m159.49 166.02-0.66946 21.947c-0.1472 4.8258 1.5393 6.7508 3.7981 5.8437 8.0323-3.2255 16.225-6.2656 25.579-7.9668-0.94128-7.6801-0.49189-13.655-6.4699-27.512-5.9169 2.8073-12.828 6.2052-22.238 7.6878z" fill="#ff8080"/>
   <path d="m111.29 141.49c5.4177 0.89722 8.0053-1.6871 8.0751-4.5908l0.83175-34.605-47.762 0.67864c-3.1772 2.386-2.4492 10.367 5.7845 29.502 0.72108 1.6758 1.258 3.7462 2.8412 4.0084z" fill="url(#linearGradient1168)"/>
  </g>
  <g>
   <path d="m65.453 34.972s4.7309 33.219 4.9037 49.948c0.10726 10.387-3.9165 20.792-2.4035 31.068 0.63306 4.2998 0.39929 12.714 4.7097 12.158 8.3435-1.0769 2.8422-25.078 2.8422-25.078l3.7707-0.30836s3.0207 26.811-6.5234 28.18c-5.6858 0.81527-6.0986-8.6348-7.2965-14.252-2.2133-10.38 1.7959-21.858 1.7788-32.471-0.02675-16.593-4.7396-49.552-4.7396-49.552z" fill="#fea" stroke-width="1px"/>
   <path d="m95.79 28.786 5.7556-8.2903c-13.346 2.3292-26.898 5.7176-39.558 10.506-2.7437 2.0583 0.44789 5.4031 0.54702 4.7287 7.3154-2.1624 18.006-6.1306 33.255-6.9447z" fill="#faa" stroke-width="1px"/>
   <path d="m152.49 101.2-2.2824 28.248c-0.41669 5.1572 0.13374 9.4116 5.8856 8.9829l21.456-1.5994c9.9521-18.161 9.9282-28.439 12.027-41.012z" fill="url(#linearGradient1178)" stroke-width=".75"/>
  </g>
 </g>
 <g fill="#ff8080" fill-rule="evenodd" stroke="#000" stroke-width=".75">
  <path d="m85.433 101.73c-0.08341 12.847-2.8792 28.047 3.4674 35.318l13.835 2.344c-7.0517-7.6572-2.9957-23.666-1.816-37.512z"/>
  <path d="m121.1 85.777c-0.0481 0.67626-0.34655 21.052-0.91163 24.268-0.61976 3.5274-3.8564 3.2061-6.2889 0.50394-4.9256-5.4715-13.069-8.7863-19.129-2.449-1.6669 1.7432-3.5498 1.5829-4.4633-0.31767-1.8225-3.7917-9.1722-8.8832-18.819 0.83556-1.7004 1.7131-3.2832 1.0418-3.1011-0.35666l2.9986-23.032c14.686 1.8323 32.206 1.1849 49.714 0.54777z"/>
  <path d="m170.86 97.067c-1.3916 15.062-3.2136 31.232-6.6846 40.441l11.737-0.65989c4.4024-9.377 6.8172-25.471 9.5441-40.509z"/>
  <path d="m151.78 82.523 0.3244 22.181c0.0477 3.2607 3.1218 2.96 5.9799 0.0178 7.2619-7.4756 12.34-5.9334 16.393-3.0472 2.2255 1.5848 1.8439 3.7024 5.3229-0.30082 3.1597-3.6358 4.3856-3.1219 5.7864-1.0835 1.4467 2.1051 3.6481 2.3245 3.9127 0.41443l3.0761-22.211c-12.582 1.953-26.412 3.1571-40.796 4.0291z"/>
 </g>
 <g fill="#ffb380" stroke="#000">
  <g stroke-linecap="round" stroke-linejoin="round">
   <ellipse transform="rotate(4.0712)" cx="99.901" cy="96.256" rx="3.5254" ry="3.2542" style="paint-order:stroke fill markers"/>
   <ellipse transform="rotate(4.0712)" cx="183.88" cy="85.012" rx="3.0508" ry="3.322" style="paint-order:stroke fill markers"/>
   <ellipse transform="matrix(.99613 .087847 -.057349 .99835 0 0)" cx="87.652" cy="175.82" rx="3.3505" ry="4.2927" stroke-width=".99906" style="paint-order:stroke fill markers"/>
   <ellipse transform="matrix(.99484 .10144 -.049618 .99877 0 0)" cx="193.6" cy="162.59" rx="2.6708" ry="3.8114" stroke-width=".82562" style="paint-order:stroke fill markers"/>
  </g>
  <g fill-rule="evenodd" stroke-width=".93256px">
   <path d="m196.05 33.069c0.0382 0.14018-3.4926-1.6297-4.9261-2.3116 1.4379-2.2236 5.7231-2.008 4.9261 2.3116z"/>
   <path d="m188.21 29.68c0.0625 0.19674-4.0231-1.0746-5.1403-1.5551 1.1802-2.4205 5.4533-2.8481 5.1403 1.5551z"/>
   <path d="m173.23 24.535c0.85707 1.6301-5.195 0.45777-5.2848-0.61085 0.8442-2.6041 5.0087-3.7961 5.2848 0.61085z"/>
  </g>
 </g>
 <g fill="none" stroke="#000" stroke-width=".5">
  <path d="m74.498 158.59c5.8567 5.5159 13.773 10.402 32.503 11.985"/>
  <path d="m159.3 168.21c10.92-2.3104 18.184-5.0509 22.962-8.0839"/>
  <path d="m71.408 87.485c15.345 1.5766 32.08 1.2076 49.22 0.27119"/>
  <path d="m151.68 85.18c13.854-1.0162 27.62-2.1205 40.407-4.2034"/>
 </g>
 <path d="m132.88 75.451c11.645-7.4342 21.957-10.647 35.967-18.875 1.5588-0.91549 2.257-2.4768 1.3515-3.71-2.5274-3.4424-4.8781-6.8721-7.1514-10.296 2.8308-0.30188 6.726-0.70265 9.5735-1.2382 2.799-0.52644 1.6153-2.5942 0.87788-4.271-0.87807-1.9965-4.4742-8.9004-7.6263-12.615l-12.068-14.221c0.84434 18.554-4.3812 39.622-20.925 65.227z" fill="#fff" fill-opacity=".062745" fill-rule="evenodd"/>
 <ellipse transform="matrix(.99825 .059098 -.085258 .99636 0 0)" cx="168.85" cy="26.941" rx="4.7506" ry="3.4438" fill="#ffb380" stroke="#000" stroke-linecap="round" stroke-linejoin="round" stroke-width="1.3144" style="paint-order:stroke fill markers"/>
 <g fill="#ffe6d5">
  <path d="m76.256 180.04c0.30179-0.0609 0.71698-0.034 1.0877 0.15278 0.27654 0.13934 0.48538 0.34384 0.63853 0.58715 0.35442 0.56305 0.3722 1.2554 0.46378 1.6263 0.0013 5e-3 0.0026 0.0105 4e-3 0.0159 0.12493 0.48292 0.38436 1.0019 0.47633 2.0131 0.0834 0.91691-0.06525 1.6501-0.29754 1.9777 0.26036-0.36719 0.70574-0.8154 1.0842-1.8659 0.3497-0.97078 0.41959-1.9396 0.28958-2.5017-0.0017-7e-3 -0.0035-0.0149-0.0053-0.0221-0.12818-0.51905-0.63562-1.4068-1.4976-1.8577-0.36243-0.18962-0.72717-0.27154-1.0831-0.28161-0.46547-0.0132-0.86793 0.0971-1.1607 0.1562z"/>
  <path d="m183.27 178.83c0.29978-0.0817 0.70858-0.10647 1.0971 0.0193 0.28919 0.0936 0.52609 0.25623 0.71239 0.47074 0.40537 0.46674 0.51753 1.1088 0.59154 1.5811 0.0132 0.0842 0.025 0.16034 0.0372 0.22655 0.0759 0.41015 0.25875 0.95859 0.26765 1.8594 9e-3 0.96234-0.21452 1.7573-0.48087 2.1496 0.29177-0.42974 0.7492-0.98331 1.0973-2.0497 0.28895-0.88518 0.33991-1.7023 0.25337-2.1698-0.0155-0.0837-0.0392-0.1799-0.072-0.28446-0.18706-0.59737-0.62993-1.3555-1.3718-1.7427-0.33034-0.17244-0.6685-0.24436-1.0024-0.24834-0.44187-5e-3 -0.83529 0.10816-1.1295 0.18833z"/>
  <path d="m137.34 110.97c0.57078-0.0236 1.4043 0.29806 2.1485 1.0349 0.75694 0.74951 1.0636 1.5117 1.3414 1.9836 4e-3 6e-3 7e-3 0.0121 0.0108 0.0182 0.27088 0.45236 0.82835 1.163 1.0728 2.247 0.25124 1.114 0.0291 2.1538-0.37006 2.784 0.3995-0.6308 0.9872-1.4628 1.1642-2.8095 0.16759-1.2753-0.14399-2.426-0.48681-3.0262-5e-3 -8e-3 -9e-3 -0.0161-0.0138-0.0239-0.3454-0.58689-1.1768-1.3855-2.2826-1.8481-1.1641-0.48694-2.0112-0.38373-2.5843-0.36005z"/>
  <path d="m137.01 80.701c0.57078-0.02359 1.4043 0.29806 2.1485 1.0349 0.75694 0.7495 1.0636 1.5117 1.3414 1.9836 4e-3 6e-3 7e-3 0.01205 0.0108 0.01819 0.27088 0.45236 0.82835 1.163 1.0728 2.247 0.25124 1.114 0.0291 2.1538-0.37006 2.784 0.3995-0.6308 0.9872-1.4628 1.1642-2.8095 0.16759-1.2753-0.14399-2.4261-0.48681-3.0263-5e-3 -0.0081-9e-3 -0.01607-0.0138-0.02389-0.3454-0.58689-1.1768-1.3855-2.2826-1.8481-1.1641-0.48693-2.0112-0.38373-2.5843-0.36005z"/>
  <path d="m176.19 95.001c0.43921-0.01784 1.1054 0.18634 1.6248 0.61225 0.52113 0.42738 0.66272 0.85343 0.80141 1.0713 2e-3 0.0029 4e-3 0.0058 6e-3 0.0088 0.13148 0.20084 0.48397 0.54855 0.59921 1.2217 0.12145 0.70935-0.0899 1.491-0.40039 1.973 0.31263-0.48528 0.79286-1.0828 1.0191-1.9317 0.21975-0.82448 0.0747-1.5403-0.16233-1.9267-3e-3 -5e-3 -6e-3 -0.0099-9e-3 -0.01475-0.23943-0.37618-0.81012-0.79189-1.5896-0.97049-0.80376-0.18418-1.4379-0.06181-1.8887-0.04349z"/>
  <path d="m91.868 100.34c0.43921-0.0178 1.1054 0.18634 1.6247 0.61225 0.52113 0.42738 0.66272 0.85344 0.80141 1.0714 0.0018 3e-3 0.0037 6e-3 0.0057 9e-3 0.13148 0.20084 0.48397 0.54856 0.59921 1.2217 0.12145 0.70935-0.08987 1.491-0.40039 1.973 0.31263-0.48528 0.79286-1.0828 1.0191-1.9317 0.21975-0.82448 0.0747-1.5403-0.16232-1.9267-0.0031-5e-3 -0.0061-0.01-0.0092-0.0147-0.23943-0.37618-0.81012-0.79189-1.5895-0.97049-0.80376-0.18418-1.4379-0.0618-1.8887-0.0435z"/>
  <path d="m165.1 33.973c0.61716-0.02014 1.5818 0.23316 2.3608 0.75225 0.79482 0.52965 1.0226 1.0446 1.2153 1.2879 3e-3 0.0032 5e-3 0.0064 8e-3 0.0096 0.16717 0.20504 0.63609 0.55691 0.77587 1.2745 0.15427 0.79199-0.16691 1.709-0.6139 2.2665 0.43135-0.53795 1.1128-1.221 1.4073-2.2004 0.29653-0.98609 0.0411-1.8699-0.3085-2.3272-5e-3 -0.0059-9e-3 -0.01165-0.0135-0.0173-0.35024-0.44212-1.1276-0.87862-2.1892-1.0479-1.1185-0.17841-1.9783-0.01958-2.642 0.0021z"/>
  <path d="m185.4 26.997c0.20123-0.0043 0.47893 0.13694 0.71369 0.39266 0.21363 0.2327 0.32885 0.47563 0.42528 0.6423 0.0218 0.03776 0.0417 0.06916 0.0607 0.09284 0.0726 0.09017 0.27851 0.2127 0.45196 0.35062 0.0874 0.06953 0.16454 0.13893 0.2219 0.20591 0.0759 0.08868 0.11044 0.16774 0.0985 0.21512 0.0111-0.04397 0.0632-0.11806 0.0989-0.25028 0.0278-0.10296 0.0438-0.22741 0.0397-0.37021-8e-3 -0.28875-0.10039-0.584-0.20755-0.71718-0.0265-0.03295-0.0632-0.0695-0.10872-0.10775-0.19636-0.16506-0.52185-0.33652-0.88434-0.42086-0.44149-0.10272-0.68908-0.03789-0.91011-0.03317z"/>
  <path d="m193.34 30.083c0.20123-0.0043 0.47893 0.13694 0.71369 0.39266 0.21363 0.2327 0.32885 0.47563 0.42528 0.6423 0.0218 0.03776 0.0416 0.06916 0.0607 0.09284 0.0725 0.09017 0.27851 0.2127 0.45196 0.35062 0.0874 0.06953 0.16454 0.13893 0.2219 0.20591 0.0759 0.08868 0.11044 0.16774 0.0985 0.21512 0.0111-0.04397 0.0632-0.11806 0.099-0.25028 0.0278-0.10296 0.0438-0.22741 0.0397-0.37021-8e-3 -0.28875-0.10039-0.584-0.20755-0.71718-0.0265-0.03295-0.0632-0.0695-0.10872-0.10775-0.19636-0.16506-0.52185-0.33652-0.88434-0.42086-0.44149-0.10272-0.68908-0.03789-0.91011-0.03317z"/>
  <path d="m170.18 22.388c0.20123-0.0043 0.47893 0.13694 0.71369 0.39266 0.21363 0.2327 0.32885 0.47563 0.42528 0.6423 0.0218 0.03776 0.0417 0.06916 0.0607 0.09284 0.0726 0.09017 0.27851 0.2127 0.45196 0.35062 0.0874 0.06953 0.16454 0.13893 0.2219 0.20591 0.0759 0.08868 0.11044 0.16774 0.0985 0.21512 0.0111-0.04397 0.0633-0.11806 0.099-0.25028 0.0278-0.10296 0.0438-0.22741 0.0397-0.37021-8e-3 -0.28875-0.10039-0.584-0.20755-0.71718-0.0265-0.03295-0.0632-0.0695-0.10872-0.10775-0.19636-0.16506-0.52185-0.33652-0.88434-0.42086-0.44149-0.10272-0.68908-0.03789-0.91011-0.03317z"/>
 </g>
 <g fill="#ffb380" fill-rule="evenodd" stroke="#000" stroke-width="1px">
  <path d="m90.13 25.399c-1.1012 1.5472 5.964 0.8726 6.1411-0.17973-0.79519-2.65-5.5195-4.1676-6.1411 0.17973z"/>
  <path d="m62.964 31.615c-0.05355 0.13592 4.1429-1.3344 5.8442-1.895-1.5066-2.3206-6.4668-2.4522-5.8442 1.895z"/>
  <path d="m71.69 28.544c-0.08575 0.19003 4.717-0.74127 6.0394-1.1277-1.1956-2.4951-6.0978-3.2635-6.0394 1.1277z"/>
 </g>
 <path d="m92.498 23.395c0.20123-0.0043 0.47893 0.13694 0.71369 0.39266 0.21363 0.2327 0.32884 0.47563 0.42527 0.6423 0.02184 0.03776 0.04166 0.06916 0.06071 0.09284 0.07255 0.09017 0.27851 0.2127 0.45195 0.35062 0.08744 0.06953 0.16455 0.13893 0.2219 0.20591 0.07592 0.08868 0.11044 0.16774 0.09851 0.21512 0.01107-0.04397 0.06325-0.11806 0.09896-0.25028 0.0278-0.10296 0.04381-0.22741 0.03973-0.37021-0.0082-0.28875-0.10039-0.584-0.20755-0.71718-0.02651-0.03295-0.06321-0.0695-0.10872-0.10775-0.19636-0.16506-0.52185-0.33652-0.88434-0.42086-0.44148-0.10272-0.68908-0.03789-0.91011-0.03317z" fill="#ffe6d5"/>
 <path d="m132.72 74.676c-10.381-23.195-23.239-44.571-23.354-64.77-4.1741 3.2222-9.6579 10.912-14.487 16.369l-5.1732 19.207c-0.35909 1.3332-1.2323 3.4955 1.6625 3.3808l9.7402 0.6631-4.1155 8.1653c-0.8961 1.7779-1.2415 5.0766 2.011 6.1243z" fill="#ff8080" fill-rule="evenodd" stroke="#000" stroke-width="1px"/>
 <path d="m132.72 74.676c-10.381-23.195-23.239-44.571-23.354-64.77-4.1741 3.2222-9.6579 10.912-14.487 16.369l-5.1732 19.207c-0.35909 1.3332-1.2323 3.4955 1.6625 3.3808l9.7402 0.6631-4.1155 8.1653c-0.8961 1.7779-1.2415 5.0766 2.011 6.1243z" fill="#fff" fill-opacity=".062745" fill-rule="evenodd"/>
 <path d="m73.36 26.704c0.16297-0.11813 0.47168-0.16016 0.81028-0.08363 0.30812 0.06964 0.54117 0.20372 0.71534 0.28582 0.03945 0.0186 0.07362 0.03313 0.10277 0.04174 0.11098 0.03281 0.35006 0.01625 0.57118 0.03086 0.11147 0.0074 0.21437 0.0205 0.29966 0.04291 0.11291 0.02966 0.1863 0.075 0.20348 0.12073-0.01594-0.04245-0.01523-0.13306-0.06118-0.26208-0.03578-0.10047-0.09349-0.21188-0.17816-0.32695-0.1712-0.23266-0.41508-0.4229-0.57901-0.47136-0.04056-0.01199-0.09154-0.02113-0.15073-0.02666-0.25541-0.02387-0.62061 0.02054-0.96661 0.15763-0.42141 0.16696-0.58802 0.36124-0.76702 0.49099z" fill="#ffe6d5"/>
 <path d="m64.374 29.307c0.16297-0.11813 0.47168-0.16016 0.81028-0.08363 0.30812 0.06964 0.54117 0.20372 0.71534 0.28582 0.03945 0.0186 0.07362 0.03313 0.10277 0.04174 0.11098 0.03281 0.35006 0.01625 0.57118 0.03086 0.11147 0.0074 0.21437 0.0205 0.29966 0.04291 0.11291 0.02966 0.1863 0.075 0.20348 0.12073-0.01594-0.04245-0.01523-0.13306-0.06118-0.26208-0.03578-0.10047-0.09349-0.21188-0.17816-0.32695-0.1712-0.23266-0.41508-0.4229-0.57901-0.47136-0.04056-0.01199-0.09154-0.02113-0.15073-0.02667-0.25541-0.02387-0.62061 0.02054-0.96661 0.15763-0.42141 0.16696-0.58802 0.36124-0.76702 0.49099z" fill="#ffe6d5"/>
 <ellipse transform="matrix(.99825 .059098 -.085258 .99636 0 0)" cx="100.79" cy="37.458" rx="4.7506" ry="3.4438" fill="#ffb380" stroke="#000" stroke-linecap="round" stroke-linejoin="round" stroke-width="1.3144" style="paint-order:stroke fill markers"/>
 <path d="m95.97 40.383c0.61716-0.02014 1.5818 0.23316 2.3608 0.75225 0.79482 0.52965 1.0226 1.0446 1.2153 1.2879 0.0025 0.0032 0.0051 0.0064 0.0077 0.0096 0.16717 0.20504 0.63609 0.55691 0.77587 1.2745 0.15427 0.79199-0.16691 1.709-0.6139 2.2665 0.43135-0.53795 1.1128-1.221 1.4073-2.2004 0.29653-0.98609 0.0411-1.8699-0.3085-2.3272-4e-3 -0.0059-9e-3 -0.01165-0.0135-0.0173-0.35024-0.44212-1.1276-0.87862-2.1892-1.0479-1.1185-0.17841-1.9783-0.01958-2.642 0.0021z" fill="#ffe6d5"/>
</svg>
