<svg xmlns="http://www.w3.org/2000/svg" viewBox="0 0 64 64">
    <path fill="#ff8080" stroke="#000" stroke-linecap="round" stroke-width=".73" d="M12.143 4.179l-20.48.688-6.985-19.265L.843-26.993l16.973 11.48z" transform="matrix(1.56454 .05692 -.0398 1.63199 29.686 48.596)"/>
    <g fill="#ff2a2a" fill-rule="evenodd">
        <path d="M23.507 34.93v3.474l.356-3.98c.747-1.31 2.5-2.932 4.411-4.45l.086 1.76 1.397-2.9a108.123 108.123 0 0 1 4.754-3.312l-.919 2.922 1.544-3.163c1.765-1.081 7.022-2.519 10.453-6.786.257 4.9-5.894 11.456-6.997 14.009l-4.056 1.058 3.958-.598a16.765 16.765 0 0 1-1.875 3.888l-1.422.437.65.655c-.98 1.3-2.17 2.508-3.554 3.658l-4.423 1.276 4.019-.816c-3.296 2.634-6.372 4.325-10.17 4.094 0 0-.136-.138-.27-.23-.834-5.382.502-9.247 2.058-10.995z"/>
        <path d="M42.038 23.671c-2.98 2.804-8.692 5.912-11.608 9.219-4.148 4.687-5.145 9.375-12.134 17.016 7.096-7.181 8.532-12.093 12.477-16.845 2.733-3.296 8.821-6.618 11.265-9.39z"/>
    </g>
    <path fill="#f9f9f9" fill-rule="evenodd" d="M32.588 6.83c10.554 7.32 13.098 9.524 24.096 18.06-8.89-2.614-22.142-15.385-24.096-18.06z"/>
    <path fill-opacity=".449" fill-rule="evenodd" d="M48.529 55.968c-12.178.212-23.854.08-31.972.013-3.389-9.802-6.644-20.888-10.17-31.862 5.492 11.946 6.368 19.615 14.751 26.208 6.026 4.739 15.107 4.47 27.39 5.641z"/>
</svg>
