<svg xmlns="http://www.w3.org/2000/svg" viewBox="0 0 64 64">
    <g transform="translate(0 -988.362)">
        <ellipse cx="31.861" cy="1021.172" fill="#ff8080" stroke="#000" stroke-linecap="round" stroke-linejoin="round" rx="23.947" ry="23.608"/>
        <path fill="#f9f9f9" fill-rule="evenodd" d="M33.183 1000.688c8.462 1.116 16.427 3.742 20.246 18.98-11.69-16.704-13.196-13.754-20.246-18.98z"/>
        <path fill-opacity=".449" fill-rule="evenodd" d="M42.087 1042.076c-21.988 9.273-40.585-11.535-31.666-30.378.168 16.137 12.616 31.992 31.666 30.378z"/>
        <path fill="#f55" fill-rule="evenodd" stroke="#000" stroke-width=".5" d="M42.438 1011.925s.039-.088.03-.422c-.01-.47.845-.897.845.062-.007 6.875.235 13.346.25 21.36 0 .74-.75.877-.75 0v-.313c-11.47-6.5-18.094-7.954-28.312-8.56l.063-2.83c10.043-1.096 20.612-2.687 27.874-9.297z"/>
        <path fill="#ffd5d5" fill-rule="evenodd" d="M35.665 1017.976a7.948 7.948 0 0 0 1.737-.112c2.153-1.252 3.786-3.325 4.548-4.641-1.062 1.148-2.876 2.866-5.001 3.722-.38.378-.807.73-1.284 1.03z"/>
    </g>
</svg>
