<svg version="1.1" viewBox="0 0 64 64" xmlns="http://www.w3.org/2000/svg">
 <g transform="matrix(.81729 .44568 -.47876 .87795 22.849 -10.218)">
  <path d="m23.729 47.525h17.017l0.0678-27.119-17.288 0.13559z" fill="#f55" stroke="#000" stroke-width=".6"/>
  <g fill="none">
   <g stroke="#ff2a2a">
    <g stroke-width=".75">
     <path d="m35.68 20.753-0.01985 13.15"/>
     <path d="m30.053 20.78-0.01985 13.15"/>
     <path d="m24.194 20.845 0.08184 13.15"/>
    </g>
    <path d="m24.255 24.797 16.257-0.0339" stroke-width="1px"/>
   </g>
   <g>
    <path d="m23.802 25.409 16.721-0.01404" stroke="#000" stroke-width=".75"/>
    <path d="m24.317 29.679 16.177-0.0339" stroke="#ff2a2a" stroke-width="1px"/>
    <path d="m23.865 30.281 16.712-0.03099" stroke="#000" stroke-width=".75"/>
   </g>
  </g>
  <g stroke="#000">
   <path d="m23.155 33.798 18.361-3.2599-0.14382 17.69h-18.265z" fill="#ff8080" stroke-width=".6"/>
   <path d="m29.305 20.593-0.01695 12.169" fill="none" stroke-width=".75"/>
   <path d="m34.924 20.186 0.01695 11.78" fill="none" stroke-width=".75"/>
   <path d="m23.155 33.798c0.16336 0.84621-0.21782 1.7605 1.2859 2.4391 1.8417-0.05481 1.7765-0.98972 2.5763-1.5254 2.0455 0.02387 4.637 2.2315 6.1356 0.0678 1.1485 0.18101 2.1011-1.0891 2.2373-1.7627 0.11203 0.6697 3.8506 2.6348 4.1356 2.4068 1.4369-1.7144 2.1796-3.3517 1.9901-4.8855z" fill="#faa" stroke-width=".6"/>
  </g>
 </g>
</svg>
