<svg xmlns="http://www.w3.org/2000/svg" viewBox="0 0 64 64">
    <g transform="translate(0 -988.362)">
        <ellipse cx="31.861" cy="1021.172" fill="#ff8080" stroke="#000" stroke-linecap="round" stroke-linejoin="round" rx="23.947" ry="23.608"/>
        <path fill="#ff2a2a" fill-rule="evenodd" stroke="#000" stroke-width=".547" d="M19.984 1022.338c1.872-1.71 3.807-2.93 5.92-2.74-3.379-4.57-2.393-8.46-.086-13.104-5.845 3.733-8.919 9.126-5.834 15.844z"/>
        <path fill="#f9f9f9" fill-rule="evenodd" d="M33.183 1000.688c8.462 1.116 16.427 3.742 20.246 18.98-11.69-16.704-13.196-13.754-20.246-18.98z"/>
        <path fill="#ff2a2a" fill-rule="evenodd" stroke="#000" stroke-width=".547" d="M43.707 1022.677c-1.873-1.709-3.807-2.93-5.92-2.74 3.379-4.569 2.392-8.46.086-13.104 5.845 3.734 8.919 9.126 5.834 15.844zM46.26 1032.015c-.227 1.884-2.398 2.822-7.996 1.663-8.767-1.815-19.503-10.915-20.323-4.288-.822-1.273-2.085-1.268-2.14.182-.055 1.418 1.159 3.828 1.167 5.509.749-1.248 3.3-1.971 4.075-2.939.506-.633.016-2.587-2.046-2.155-.29-5.982 10.51 3.127 18.518 4.93 7.27 1.636 9.81-.451 9.964-2.834.263-4.055-5.988-6.828-6.063-5.666-.072 1.124 5.296 1.854 4.845 5.598z"/>
        <path fill-opacity=".449" fill-rule="evenodd" d="M42.087 1042.076c-21.988 9.273-40.585-11.535-31.666-30.378.168 16.137 12.616 31.992 31.666 30.378z"/>
    </g>
</svg>
