<svg xmlns="http://www.w3.org/2000/svg" viewBox="0 0 64 64">
    <g transform="translate(0 -988.362)">
        <ellipse cx="31.861" cy="1021.172" fill="#ff8080" stroke="#000" stroke-linecap="round" stroke-linejoin="round" rx="23.947" ry="23.608"/>
        <g fill="#f55" fill-rule="evenodd" stroke="#000" stroke-width=".65">
            <path stroke-width=".3612375" d="M31.932 1013.305c-1.409-1.783-9.714-1.788-9.665 5.454.032 4.8 6.123 10.127 9.637 12.526 4.962-3.26 9.69-8.332 9.668-12.537-.036-6.793-7.893-7.399-9.64-5.443zm7.123 5.339c-.014 3.163-2.525 5.499-7.112 9.604-4.154-3.663-6.756-6.406-6.99-9.535-.372-5.001 6.779-4.735 7.071-1.703.511-3.089 7.056-3.641 7.031 1.634z"/>
            <path stroke-width=".3612375" d="M40.502 1015.276l4.516-5.166.012 5.655 1.703-1.875c-.027-2.444-.007-6.986-.007-6.986l-7.605.073-1.717 1.903 5.067-.092-4.145 4.513"/>
        </g>
        <path fill="#f9f9f9" fill-rule="evenodd" d="M33.183 1000.688c8.462 1.116 16.427 3.742 20.246 18.98-11.69-16.704-13.196-13.754-20.246-18.98z"/>
        <path fill-opacity=".449" fill-rule="evenodd" d="M42.087 1042.076c-21.988 9.273-40.585-11.535-31.666-30.378.168 16.137 12.616 31.992 31.666 30.378z"/>
    </g>
</svg>
