<svg xmlns="http://www.w3.org/2000/svg" viewBox="0 0 64 64">
    <g transform="translate(0 -988.362)">
        <ellipse cx="31.861" cy="1021.172" fill="#ff8080" stroke="#000" stroke-linecap="round" stroke-linejoin="round" rx="23.947" ry="23.608"/>
        <path fill="#f9f9f9" fill-rule="evenodd" d="M33.183 1000.688c8.462 1.116 16.427 3.742 20.246 18.98-11.69-16.704-13.196-13.754-20.246-18.98z"/>
        <path fill-opacity=".449" fill-rule="evenodd" d="M42.087 1042.076c-21.988 9.273-40.585-11.535-31.666-30.378.168 16.137 12.616 31.992 31.666 30.378z"/>
        <g fill="#f55" fill-rule="evenodd" stroke="#000" stroke-width=".5">
            <path d="M30.15 1019.545c-1.028-.406-1.844-.74-2.72-1.096l-9.498-11.076c-1.385-1.62 1.31-4 2.752-2.311l9.87 11.55zm5.423-1.08c2.233.618 4.367 1.548 5.692 3.128 3.923 4.68.83 7.932-.923 9.503-2.793 2.502-6.687 2.41-9.409-.716-1.973-2.267-2.047-4.224-1.798-5.616 1.227.394 2.469.773 3.445 1.434.256.54.534 1.026.994 1.596 1.606 1.989 3.309 1.343 4.304.515 1.755-1.458 1.864-3.228.73-4.486-.673-.745-1.334-1.52-3.53-2.026.161-.711.437-2.562.495-3.332z"/>
            <path d="M38.63 1025.941c-.147 1.156-1.73 2.287-2.808 2.44-.39-.441-.727-.794-1.355-1.514-2.75-3.148-9.007-2.769-12.504-6.744-2.307-2.622-1.995-6.554-.617-7.817l2.714 3.128s-.247 1.207.69 2.226c1.79 1.948 7.182 2.772 11.362 5.659 1.286.993 1.62 1.631 2.517 2.622z"/>
            <path d="M25.064 1009.129c.932-.968 4.954-1.175 7.55 1.811 3.173 3.65 2.18 8.655 1.78 10.502-.993-.632-2.354-1.296-3.602-1.546.173-1.882 1.304-3.833-.95-6.403-.965-1.1-1.509-1.24-1.93-.96zM42.367 1030.147c-.873 1.208-1.718 1.918-3.06 2.696l4.053 4.84c1.187 1.416 4.496-1.145 3.1-2.772z"/>
        </g>
    </g>
</svg>
