<?xml version="1.0" encoding="UTF-8"?>
<svg version="1.1" viewBox="0 0 64 64" xmlns="http://www.w3.org/2000/svg" xmlns:cc="http://creativecommons.org/ns#" xmlns:dc="http://purl.org/dc/elements/1.1/" xmlns:rdf="http://www.w3.org/1999/02/22-rdf-syntax-ns#">
 <metadata>
  <rdf:RDF>
   <cc:Work rdf:about="">
    <dc:format>image/svg+xml</dc:format>
    <dc:type rdf:resource="http://purl.org/dc/dcmitype/StillImage"/>
    <dc:title/>
   </cc:Work>
  </rdf:RDF>
 </metadata>
 <ellipse cx="31.861" cy="32.81" rx="23.947" ry="23.608" fill="#ff8080" stroke="#000" stroke-linecap="round" stroke-linejoin="round"/>
 <g transform="matrix(.6561 0 0 .6561 -28.039 14.182)">
  <path d="m111.2 7.5265c4.6415 2.886 8.3409 10.074 8.5727 20.998 0.18474 8.7052-5.7587 14.685-9.4161 17.41-0.86965 1.25-1.566 2.5821-3.5134 3.3225-1.762 6.9281-4.7208 3.1802-4.708-0.06645-1.2999-0.64114-2.5638-1.3998-3.654-2.7244-5.0059-3.189-7.5911-7.0861-9.9079-10.765l3.7242-25.251" fill="#f55" stroke="#000" stroke-width=".73205"/>
  <path d="m111.2 7.5265c-0.78486 0.11711-2.4805 0.41412-4.5071 0.77714-1.8519 0.33176-4.34 0.78559-5.3158 0.94918-0.67476 0.11312-1.625 0.26682-2.7592 0.45191-2.3598 0.38509-4.9981 0.82262-7.652 1.2996-2.6196 0.47083-4.5249 0.85063-5.6642 1.1038 1.2854-0.28565 2.8874-0.65103 5.6426-1.2157 2.606-0.53408 5.3072-1.0518 7.624-1.4742 1.1268-0.20546 2.0842-0.37387 2.755-0.48632 1.1747-0.19691 3.2808-0.50424 5.3441-0.78894 2.0079-0.27705 3.7409-0.49834 4.5326-0.61644z" stroke-width="1.4641"/>
  <path d="m96.03 8.3772c1.4269 6.8933 4.1765 14.058 3.0882 20.354-1.6104 9.3165-7.1173 14.613-13.616 17.828-3.3364 0.099529-5.0605-0.11095-10.528-0.35094-13.513-5.8091-13.572-17.97-12.774-29.97" fill="#f55" stroke="#000" stroke-width=".73205"/>
  <g fill="#ff2a2a" stroke="#000" stroke-width=".73205">
   <path d="m85.503 46.559c-0.98263 0.90918-1.9653 1.3832-2.9478 1.5442-1.3235 0.71198-2.6632 0.66986-4.1411 0.14038-1.1215-0.31251-2.3928-0.72606-3.4392-2.0354 1.531-1.5538 9.1836-1.868 10.528 0.35083z"/>
   <path d="m82.546 48.104c-0.96696 6.8461-5.0845 4.3026-4.1411 0.14038 0.41583-0.51961 3.107-0.60239 4.1411-0.14038z"/>
   <path d="m110.35 45.934c-0.86965 1.25-1.566 2.5821-3.5134 3.3225-2.0603 0.38308-2.738 0.79384-4.708-0.06645-1.2999-0.64114-2.5638-1.3998-3.654-2.7244 1.4751-1.2733 9.9878-1.5716 11.875-0.53158z"/>
   <path d="m106.84 49.256c-1.762 6.9281-4.7208 3.1802-4.708-0.06646 1.2298-0.58955 3.6137-0.61814 4.708 0.06646z"/>
  </g>
  <path d="m62.196 16.239c0.25765-0.05728 0.79811-0.1932 1.9208-0.47741-4.6043 1.1656 7.9272-2.0058 3.3229-0.84019 2.9232-0.73687 6.381-1.6007 9.368-2.3292 1.0865-0.26503 2.0303-0.49246 2.7623-0.66542 1.6076-0.3798 4.71-1.0776 7.7731-1.7429 4.8438-1.0519 6.6382-1.392 8.6834-1.806-1.4755 0.29866-4.3872 0.97364-8.6388 2.0005-3.0343 0.73287-6.1223 1.4931-7.7404 1.8754-0.72366 0.17096-1.6856 0.39475-2.7667 0.64507-2.6092 0.6041-6.854 1.5808-9.4074 2.1623-1.4011 0.31913-2.4811 0.56265-3.3436 0.75448-0.68986 0.15342-1.2438 0.26988-1.9336 0.4233z" stroke-width="1.4641"/>
 </g>
 <path d="m33.183 12.326c8.462 1.116 16.427 3.742 20.246 18.98-11.69-16.704-13.196-13.754-20.246-18.98z" fill="#f9f9f9" fill-rule="evenodd"/>
 <path d="m42.087 53.714c-21.988 9.273-40.585-11.535-31.666-30.378 0.168 16.137 12.616 31.992 31.666 30.378z" fill-opacity=".449" fill-rule="evenodd"/>
</svg>
