<svg xmlns="http://www.w3.org/2000/svg" viewBox="0 0 64 64">
    <g transform="translate(0 -988.362)">
        <ellipse cx="31.861" cy="1021.172" fill="#ff8080" stroke="#000" stroke-linecap="round" stroke-linejoin="round" rx="23.947" ry="23.608"/>
        <path fill="#faa" fill-rule="evenodd" stroke="#000" stroke-width=".6894" d="M17.665 1022.772c-.223.853-.303 2.851.837 5.821 2.832 7.378 16.258 13.02 19.595-.682 1.246-5.117 1.434-7.64 4.085-10.608 2.375-2.659 1.756-5.656 1.46-6.442-3.601.368-20.809 8.53-25.977 11.911z"/>
        <path fill="#faa" fill-rule="evenodd" stroke="#000" stroke-width=".6894" d="M21.133 1017.738c-12.694 8.305 11.777 27.366 16.457 8.148 1.247-5.117 1.25-6.506 4.341-10.396 5.18-6.52-2.374-8.656-6.37-6.507-6.75 3.63-9.26 5.374-14.428 8.755z"/>
        <path fill="#ff2a2a" fill-rule="evenodd" stroke="#000" stroke-width=".558" d="M22.314 1018.953c-10.282 6.727 9.877 22.336 13.668 6.769 1.01-4.144 1.8-7.238 4.303-10.389 4.196-5.282-1.304-6.562-4.541-4.82-5.468 2.94-9.244 5.702-13.43 8.44z"/>
        <path fill="#faa" d="M26.655 1027.73c-.087-.303-.111-.785.074-1.493.14-.53.383-1.14.735-1.823.849-1.65 2.016-3.158 2.824-4.215l.109-.142c.755-.996 1.866-2.537 3.513-4.242 1.67-1.73 3.068-2.747 3.962-3.2-.955.484-2.355 1.226-4.293 2.844-1.78 1.487-3.215 3.067-3.94 4.023l-.11.148c-.783 1.064-1.861 2.838-2.493 4.598-.27.751-.426 1.41-.487 1.976-.082.756.02 1.224.106 1.525z"/>
        <path fill-opacity=".449" fill-rule="evenodd" d="M42.087 1042.076c-21.988 9.273-40.585-11.535-31.666-30.378.168 16.137 12.616 31.992 31.666 30.378z"/>
        <path fill="#f9f9f9" fill-rule="evenodd" d="M33.183 1000.688c8.462 1.116 16.427 3.742 20.246 18.98-11.69-16.704-13.196-13.754-20.246-18.98z"/>
    </g>
</svg>
