<svg xmlns="http://www.w3.org/2000/svg" viewBox="0 0 64 64">
    <g transform="translate(0 -988.362)">
        <ellipse cx="31.861" cy="1021.172" fill="#ff8080" stroke="#000" stroke-linecap="round" stroke-linejoin="round" rx="23.947" ry="23.608"/>
        <path fill="#ff2a2a" fill-rule="evenodd" stroke="#000" stroke-width=".5" d="M15.373 1030.857c2.568-2.345 5.221-4.02 8.12-3.759-4.635-6.267-3.282-11.605-.118-17.976-8.018 5.122-12.235 12.52-8.002 21.735z"/>
        <path fill-opacity=".449" fill-rule="evenodd" d="M42.087 1042.076c-21.988 9.273-40.585-11.535-31.666-30.378.168 16.137 12.616 31.992 31.666 30.378z"/>
        <path fill="#f9f9f9" fill-rule="evenodd" d="M33.183 1000.688c8.462 1.116 16.427 3.742 20.246 18.98-11.69-16.704-13.196-13.754-20.246-18.98z"/>
        <path fill="#ff2a2a" fill-rule="evenodd" stroke="#000" stroke-width=".5" d="M47.913 1031.322c-2.568-2.344-5.221-4.018-8.12-3.758 4.635-6.268 3.282-11.606.118-17.976 8.018 5.122 12.235 12.52 8.002 21.734z"/>
    </g>
</svg>
