<svg xmlns="http://www.w3.org/2000/svg" viewBox="0 0 64 64">
    <g transform="translate(0 -988.362)">
        <ellipse cx="31.861" cy="1021.172" fill="#ff8080" stroke="#000" stroke-linecap="round" stroke-linejoin="round" rx="23.947" ry="23.608"/>
        <path fill="#f9f9f9" fill-rule="evenodd" d="M33.183 1000.688c8.462 1.116 16.427 3.742 20.246 18.98-11.69-16.704-13.196-13.754-20.246-18.98z"/>
        <g fill="#ff2a2a" fill-rule="evenodd" stroke="#000">
            <path d="M-430.114 1084.973c-2.203-1.113-4.791-2.371-7.586-1.06-5.47 2.564-5.786 7.568-3.302 13.193 2.128 4.819 6.548-.709 5.6-2.45-1.305-2.393-1.78-3.69.64-4.869 4.131 1.29 8.782-2.313 4.648-4.814z" transform="matrix(.51782 -.02824 .02482 .45514 216.2 520.036)"/>
            <path d="M-421.431 1077.004c-2.202-1.112-4.79-2.37-7.586-1.06-8.544 4.007-7.436 15.672-.188 24 3.886 4.465 10.778 13.604 17.688 7.875 1.208-1.001 4.985-5.572-5.375-15.125-3.434-3.166-6.8-5.399-11.565-8.008-1.013 1.827-.111 5.314.761 6.824 4.142 2.773 14.62 10.58 11.929 10.934-4.068.534-9.453-6.675-11.375-9.875-2.137-3.559-3.024-8.76 1.062-10.75 4.132 1.29 8.783-2.314 4.649-4.815z" transform="matrix(.51782 -.02824 .02482 .45514 216.2 520.036)"/>
            <path d="M-412.235 1070.316c-2.202-1.113-4.79-2.371-7.586-1.06-8.544 4.006-7.436 15.671-.188 24 3.886 4.464 10.779 13.604 17.688 7.875 1.208-1.002 4.985-5.572-5.375-15.125-3.433-3.166-6.8-5.4-11.565-8.008-1.012 1.827-.111 5.314.762 6.824 4.142 2.773 14.619 10.58 11.928 10.934-4.068.534-9.453-6.676-11.375-9.875-2.137-3.559-3.024-8.76 1.062-10.75 4.133 1.289 8.784-2.314 4.65-4.815z" transform="matrix(.51782 -.02824 .02482 .45514 216.2 520.036)"/>
            <path d="M-404.193 1062.199c-2.202-1.112-4.79-2.371-7.586-1.06-8.544 4.007-7.436 15.671-.187 24 3.886 4.465 10.778 13.604 17.687 7.875 1.208-1.002 4.985-5.572-5.375-15.125-3.433-3.166-6.8-5.4-11.565-8.008-1.012 1.827-.11 5.314.762 6.824 4.142 2.773 14.619 10.58 11.928 10.934-4.068.534-9.453-6.675-11.375-9.875-2.137-3.559-3.023-8.76 1.063-10.75 4.132 1.289 8.783-2.314 4.648-4.815z" transform="matrix(.51782 -.02824 .02482 .45514 216.2 520.036)"/>
            <path d="M-395.434 1054.386c-2.202-1.113-4.79-2.371-7.586-1.06-8.544 4.006-7.436 15.671-.188 24 3.886 4.464 10.778 13.604 17.688 7.874 1.208-1.001 4.985-5.571-5.375-15.125-3.434-3.166-6.8-5.398-11.565-8.007-1.013 1.827-.111 5.313.761 6.824 4.142 2.773 14.62 10.58 11.929 10.933-4.068.535-9.453-6.675-11.375-9.875-2.137-3.558-3.024-8.759 1.062-10.75 4.132 1.29 8.783-2.313 4.649-4.814z" transform="matrix(.51782 -.02824 .02482 .45514 216.2 520.036)"/>
            <path d="M-383.791 1055.672c1.469.073 1.641-.77 1.824-2.656.317-3.278-9.082-7.755-12.93-5.988-8.5 3.902-6.539 14.756.71 23.084 3.885 4.465 10.778 13.605 17.687 7.875 1.208-1.001 4.985-5.572-5.375-15.125-3.433-3.166-6.845-5.31-11.61-7.919-.57 2.136-.331 4.032.895 6.692 3.568 3.303 14.53 10.624 11.84 10.977-4.068.535-9.453-6.675-11.375-9.875-2.137-3.558-3.127-8.377.959-10.368 1.704-.83 4.573 3.163 7.375 3.303z" transform="matrix(.51782 -.02824 .02482 .45514 216.2 520.036)"/>
        </g>
        <path fill-opacity=".449" fill-rule="evenodd" d="M42.087 1042.076c-21.988 9.273-40.585-11.535-31.666-30.378.168 16.137 12.616 31.992 31.666 30.378z"/>
    </g>
</svg>
