<svg xmlns="http://www.w3.org/2000/svg" viewBox="0 0 64 64">
    <g transform="translate(0 -988.362)">
        <ellipse cx="31.861" cy="1021.172" fill="#ff8080" stroke="#000" stroke-linecap="round" stroke-linejoin="round" rx="23.947" ry="23.608"/>
        <path fill="#f9f9f9" fill-rule="evenodd" d="M33.183 1000.688c8.462 1.116 16.427 3.742 20.246 18.98-11.69-16.704-13.196-13.754-20.246-18.98z"/>
        <path fill-opacity=".449" fill-rule="evenodd" d="M42.087 1042.076c-21.988 9.273-40.585-11.535-31.666-30.378.168 16.137 12.616 31.992 31.666 30.378z"/>
        <path fill="#f55" fill-rule="evenodd" stroke="#000" stroke-linejoin="round" stroke-width=".5" d="M48.814 1025.073c-1.54-4.933-4.154-7.325-9.303-8.351 1.722 2.562 2.792 3.38 2.634 8.363zM36.188 1025.194c-1.54-4.933-4.155-7.324-9.303-8.35 1.722 2.561 2.792 3.379 2.634 8.363zM23.1 1025.21c-1.54-4.933-4.154-7.324-9.303-8.35 1.723 2.561 2.792 3.38 2.635 8.363z"/>
    </g>
</svg>
