<svg xmlns="http://www.w3.org/2000/svg" viewBox="0 0 64 64">
    <g transform="translate(0 -988.362)">
        <ellipse cx="31.861" cy="1021.172" fill="#ff8080" stroke="#000" stroke-linecap="round" stroke-linejoin="round" rx="23.947" ry="23.608"/>
        <path fill="#ff2a2a" fill-rule="evenodd" stroke="#000" stroke-width=".376" d="M25.438 1033.121c2.69-.87 4.628-3.595 5.716-5.669l-5.094-1.999zM32.342 1027.74c.827 2.561 4.337 4.681 6.66 4.786l-.416-6.996z"/>
        <path fill="#f55" fill-rule="evenodd" stroke="#000" stroke-width=".301" d="M26.565 1035.007c.066-2.606.07-5.238.067-7.873 1.331.99 2.484 2.444 4.802.87 4.024 1.539 5.043-.657 5.923-1.522.023 2.852.293 5.62.695 8.344 4.155-.146 7.253.724 10.248-2.796 3.967-4.662 3.836-17.453-1.436-22.903-2.784-2.878-8.174-1.983-15.616-1.875-6.362.092-12.106-.574-14.635 2.526-5.37 6.584-3.884 20.513-.107 23.794 2.716 2.36 6.064 1.603 10.06 1.435z"/>
        <path fill-rule="evenodd" d="M26.691 1027.463c.067-.03.133-.067.198-.107-.058-.795-.647-1.935-1.5-3.194-.901-1.329-2.13-2.837-3.452-4.296a53.943 53.943 0 0 0-4.031-4.016c-1.287-1.141-2.441-2.01-3.229-2.378.77.397 1.9 1.29 3.16 2.454a54.996 54.996 0 0 1 3.948 4.075c1.294 1.478 2.487 2.997 3.35 4.33.834 1.288 1.334 2.364 1.353 3.047.069.025.136.054.203.085zM37.34 1026.807c.052 0 .104-.01.157-.01-.05-1.792.762-3.941 2.525-6.324 1.763-2.382 4.46-4.979 8.141-7.666-3.71 2.643-6.451 5.206-8.267 7.57-1.81 2.36-2.714 4.54-2.715 6.425h.158z"/>
        <path fill="#ff2a2a" fill-rule="evenodd" stroke="#000" stroke-width=".305" d="M31.045 1028.142c-.194-.642-.699-1.978-.91-3.304.786 1.282 1.462 2.568 1.505 3.181-.2.019-.346.089-.595.122z"/>
        <path fill="#f9f9f9" fill-rule="evenodd" d="M33.183 1000.688c8.462 1.116 16.427 3.742 20.246 18.98-11.69-16.704-13.196-13.754-20.246-18.98z"/>
        <path fill-opacity=".449" fill-rule="evenodd" d="M42.087 1042.076c-21.988 9.273-40.585-11.535-31.666-30.378.168 16.137 12.616 31.992 31.666 30.378z"/>
    </g>
</svg>
