<?xml version="1.0" encoding="UTF-8"?>
<svg version="1.1" viewBox="0 0 64 64" xmlns="http://www.w3.org/2000/svg" xmlns:cc="http://creativecommons.org/ns#" xmlns:dc="http://purl.org/dc/elements/1.1/" xmlns:rdf="http://www.w3.org/1999/02/22-rdf-syntax-ns#">
 <metadata>
  <rdf:RDF>
   <cc:Work rdf:about="">
    <dc:format>image/svg+xml</dc:format>
    <dc:type rdf:resource="http://purl.org/dc/dcmitype/StillImage"/>
    <dc:title/>
   </cc:Work>
  </rdf:RDF>
 </metadata>
 <ellipse cx="31.861" cy="32.81" rx="23.947" ry="23.608" fill="#ff8080" stroke="#000" stroke-linecap="round" stroke-linejoin="round"/>
 <g transform="matrix(.729 0 0 .729 -54.074 10.993)">
  <g fill="#ff2a2a">
   <path d="m124.61 22.847c0.72132-1.4712 3.5752-7.0391 9.0508-7.0847 9.551-0.07965 11.398 10.984 1.661 17.119-6.4122-0.49293-13.705 1.5855-18.102 3.2542 0.15821-1.6384 0.57649-3.2768 1.1864-4.9153 5.0706 0.53436 19.312-0.97856 19.288-9.0508-0.0233-7.949-10.643-2.4109-13.085 0.67797z"/>
   <path d="m110.71 15.458 11.661 2.6441c-1.9153 7.5694-5.915 12.724-5.8305 19.051 0.0407 3.0482 3.127 7.177 11.831 6.0678 2.0174-0.25711 4.5763-1.5932 4.5763-1.5932-6.0181-0.25501-7.7933 0.187-9.9322 0.91525-3.9684-0.65129-5.5421-2.8853-5.8644-5.6949 0 0 9.2918-4.023 18.271-3.3559 7.541 0.56021 9.3674 5.3231 9.4237 6.7119 0.28403 7.0007-12.495 9.6707-16.983 10.203-16.424 1.9493-20.151-7.8887-20.475-14.102-0.40516-7.7738 1.7509-13.831 3.322-20.847z"/>
   <path d="m109.63 45.119c-12.479 0.72606-20.023-4.5351-19.593-9.1525 0.68996-7.4174 10.825-6.766 16.881-5.9661-0.87154 6.2637 4e-3 11.058 2.7119 15.119z"/>
  </g>
  <g fill="#f55">
   <path d="m141.76 22.308c0.28572 3.4611-1.7117 7.597-6.4351 10.573-1.2414-0.09543-2.5158-0.09449-3.7957-0.0188 4.7984-2.7942 8.4422-6.8945 5.9592-12.386-0.46764-1.6702-1.6752-2.3452-3.1843-2.3972 1.6185-0.64956 4.7541-1.4125 7.456 4.2293z"/>
   <path d="m111.45 15.624 9.8645 2.2367c-5.4827 12.603-7.1326 21.43-5.6748 26.292 1.2545 4.1842 3.8114 5.6757 7.752 6.5018-10.109-0.15483-14.093-5.6497-15.434-10.711-0.42539-7.9123 1.8013-17.943 3.4921-24.32z"/>
   <g>
    <path d="m129.08 43.153c0.32972-0.02357 1.2588-0.30888 1.5611-0.34873 1.8827-0.24822 4.157-0.76029 6.0412-1.814 0.83637-0.46773 1.5308-1.0088 2.0325-1.6025 0.47008-0.55622 0.75519-1.1405 0.83666-1.7195 0.0807-0.57352-0.0396-1.1346-0.36431-1.6494-0.34029-0.5395-0.89348-1.0102-1.6278-1.3877-1.9934-1.0247-4.826-1.147-7.1911-0.9697 2.3625-0.17713 5.1946-0.09076 7.2268 0.89835 0.74979 0.36494 1.3342 0.83035 1.7083 1.383 0.35866 0.52986 0.51318 1.1253 0.44723 1.7498-0.0664 0.62902-0.35379 1.2625-0.83352 1.8614-0.51129 0.63829-1.2234 1.2163-2.0765 1.7133-1.9169 1.1166-4.2452 1.6633-6.1496 1.9144-0.30696 0.04047-1.2811-0.05231-1.6108-0.02874z"/>
    <path d="m132.81 41.759c0.0425-0.02038 0.2677 0.1201 0.30896 0.09925 0.39549-0.19993 0.83685-0.4589 1.2225-0.76825 0.33425-0.2681 0.61488-0.56468 0.79359-0.88166 0.15797-0.28019 0.2306-0.56718 0.19791-0.84497-0.031-0.26324-0.15404-0.49606-0.34683-0.69127-0.1911-0.1935-0.44863-0.34836-0.74943-0.46498-0.31594-0.12249-0.67722-0.20201-1.0603-0.24237-1.0328-0.10882-2.0528 0.07577-2.7989 0.27259 0.7447-0.19647 1.7783-0.34429 2.7869-0.18236 0.37477 0.06016 0.71877 0.15993 1.0096 0.29804 0.27817 0.13208 0.4953 0.29343 0.64154 0.47325 0.14595 0.17946 0.21472 0.36872 0.21737 0.55921 3e-3 0.20073-0.0675 0.41257-0.21247 0.63218-0.1662 0.25175-0.42102 0.49938-0.73915 0.73659-0.36669 0.27342-0.78411 0.50847-1.1659 0.70147-0.0395 0.01999-0.063 0.28291-0.10547 0.3033z"/>
    <path d="m106.81 38.136c-4e-3 4.26e-4 -0.0364-0.19303-0.0407-0.1926-2.1277 0.20771-4.829 0.14314-7.2713-0.76003-0.89517-0.33104-1.6723-0.74922-2.2714-1.2282-0.57013-0.45584-0.95875-0.95108-1.1329-1.4449-0.08623-0.24449-0.11947-0.48745-0.09739-0.72462 0.02233-0.2399 0.10136-0.47477 0.24043-0.69992 0.29266-0.4738 0.84086-0.88852 1.6313-1.2124 2.1533-0.88232 5.5018-0.88178 8.5012-0.58477-2.9983-0.2969-6.3422-0.33125-8.5298 0.51292-0.80244 0.30964-1.3866 0.71803-1.7163 1.2111-0.15781 0.236-0.25552 0.48895-0.29105 0.75423-0.03514 0.26235-0.0089 0.53276 0.07568 0.80489 0.17046 0.54836 0.57319 1.0899 1.1559 1.5816 0.61287 0.51713 1.4092 0.96696 2.3226 1.3238 2.4861 0.97125 5.2602 1.0667 7.421 0.85576 4e-3 -4.25e-4 -2e-3 -0.19644 3e-3 -0.19686z"/>
    <path d="m106.81 38.136 0.0137-0.21349c-1.023-0.06574-2.4773-0.23738-3.9144-0.71797-0.53869-0.18015-1.0456-0.39499-1.4892-0.64299-0.42294-0.23644-0.77757-0.49705-1.0437-0.7756-0.2658-0.27826-0.43746-0.56828-0.50775-0.86425-0.0738-0.3107-0.03544-0.62596 0.11632-0.93981 0.17106-0.35376 0.47644-0.68571 0.87472-0.98941 0.52251-0.39843 1.1656-0.71848 1.7469-0.95817-0.58117 0.23962-1.2285 0.5491-1.7647 0.93411-0.40737 0.29248-0.73443 0.61697-0.93192 0.97461-0.17627 0.31923-0.24471 0.65718-0.18601 1.0077 0.05589 0.33367 0.22458 0.66304 0.49349 0.97842 0.26843 0.31481 0.63035 0.60835 1.0604 0.87397 0.45124 0.27869 0.96834 0.52111 1.517 0.7252 1.458 0.54237 2.9584 0.75416 4.0014 0.82118l0.0137-0.21349z"/>
   </g>
  </g>
 </g>
 <path d="m42.087 53.714c-21.988 9.273-40.585-11.535-31.666-30.378 0.168 16.137 12.616 31.992 31.666 30.378z" fill-opacity=".449" fill-rule="evenodd"/>
 <path d="m33.183 12.326c8.462 1.116 16.427 3.742 20.246 18.98-11.69-16.704-13.196-13.754-20.246-18.98z" fill="#f9f9f9" fill-rule="evenodd"/>
</svg>
