<svg xmlns="http://www.w3.org/2000/svg" viewBox="0 0 64 64">
    <g transform="translate(0 -988.362)">
        <ellipse cx="31.861" cy="1021.172" fill="#ff8080" stroke="#000" stroke-linecap="round" stroke-linejoin="round" rx="23.947" ry="23.608"/>
        <ellipse cx="553.011" cy="887.55" fill="#faa" stroke="#000" stroke-linecap="round" stroke-width=".446" rx="3.51" ry="3.646" transform="matrix(.87325 .48727 -.50826 .8612 0 0)"/>
        <path fill="#f9f9f9" fill-rule="evenodd" d="M33.183 1000.688c8.462 1.116 16.427 3.742 20.246 18.98-11.69-16.704-13.196-13.754-20.246-18.98z"/>
        <path fill-opacity=".449" fill-rule="evenodd" d="M42.087 1042.076c-21.988 9.273-40.585-11.535-31.666-30.378.168 16.137 12.616 31.992 31.666 30.378z"/>
        <ellipse cx="545.141" cy="875.378" fill="#f55" stroke="#000" stroke-linecap="round" stroke-width=".5" rx="4.704" ry="4.828" transform="matrix(.87234 .4889 -.5069 .862 0 0)"/>
        <ellipse cx="537.45" cy="863.432" fill="#faa" stroke="#000" stroke-linecap="round" stroke-width=".441" rx="3.51" ry="3.562" transform="matrix(.87149 .49042 -.50557 .86278 0 0)"/>
    </g>
</svg>
