<svg xmlns="http://www.w3.org/2000/svg" viewBox="0 0 64 64">
    <g transform="translate(0 -988.362)">
        <ellipse cx="31.861" cy="1021.172" fill="#ff8080" stroke="#000" stroke-linecap="round" stroke-linejoin="round" rx="23.947" ry="23.608"/>
        <path fill-opacity=".449" fill-rule="evenodd" d="M42.087 1042.076c-21.988 9.273-40.585-11.535-31.666-30.378.168 16.137 12.616 31.992 31.666 30.378z"/>
        <path fill="#f9f9f9" fill-rule="evenodd" d="M33.183 1000.688c8.462 1.116 16.427 3.742 20.246 18.98-11.69-16.704-13.196-13.754-20.246-18.98z"/>
        <path fill="#ff2a2a" fill-rule="evenodd" stroke="#000" stroke-width=".45" d="M45.508 1016.584c-.29 4.667-3.899 7.71-7.876 7.255-4.686-.537-8.577-6.659-16.053-9.532 7.981-1.554 12.393-6.082 17.109-6.031 4.178.045 7.08 4.143 6.82 8.308z"/>
        <path fill="none" stroke="#fff" stroke-linecap="round" stroke-width=".5" d="M44.015 1015.554c.56-2.258-1.602-5.106-4.252-6.147"/>
        <path fill="#ff2a2a" fill-rule="evenodd" stroke="#000" stroke-width=".5" d="M26.025 1032.828c-2.879 1.387-5.9.254-6.959-2.269-1.247-2.973 1.101-7.34.314-12.758 3.595 4.238 7.77 5.353 9.317 8.182 1.37 2.506-.102 5.607-2.672 6.845z"/>
        <path fill="none" stroke="#fff" stroke-linecap="round" stroke-width=".5" d="M27.868 1029.057c.594-1.475-.6-3.609-2.295-4.565"/>
        <path fill="#ff2a2a" fill-rule="evenodd" stroke="#000" stroke-width=".5" d="M40.396 1035.94c-2.234 1.623-4.977 1.125-6.265-.857-1.517-2.336-.193-6.41-1.696-10.894 3.709 3.05 7.429 3.356 9.179 5.522 1.55 1.92.776 4.782-1.218 6.23z"/>
        <path fill="none" stroke="#fff" stroke-linecap="round" stroke-width=".531" d="M41.234 1032.61c.278-1.345-1.065-2.975-2.653-3.527"/>
    </g>
</svg>
