<svg version="1.1" viewBox="0 0 64 64" xmlns="http://www.w3.org/2000/svg">
 <ellipse cx="31.861" cy="32.81" rx="23.947" ry="23.608" fill="#ff8080" stroke="#000" stroke-linecap="round" stroke-linejoin="round"/>
 <g fill-rule="evenodd">
  <g transform="matrix(1.1 0 0 1.1 51.15 2.1786)" opacity=".5">
   <path d="m-12.336 19.111c-2.6167-0.48315-7.8835-5.9176-13.858 0.05058-1.0422 1.0395-2.0524 2.0364-2.6886 3.2263-2.2028 4.1101-5.1709 15.614-0.06655 18.855 4.2366 2.6886 12.085-1.922 18.497-6.056 6.2344-4.021 11.653-7.9048 10.975-11.063-2.2174-10.346-9.3383-4.3657-12.857-5.0125z" fill="#f55" stroke="#ff2a2a" stroke-width=".31145"/>
   <path d="m-12.147 19.144-0.31944-0.02662c0.0053-0.03061 0.03327-0.03061-0.03727 0.07054-0.05457 0.07853-0.14641 0.17968-0.27286 0.30347-0.25289 0.24624-0.62424 0.5537-1.0794 0.91839-0.90774 0.7254-2.1349 1.6611-3.3874 2.7498-2.5116 2.1788-5.1244 4.966-5.5622 7.9261 0.54039-2.9176 3.2157-5.6062 5.7686-7.6799 1.2778-1.0408 2.5276-1.926 3.4739-2.6128 0.46851-0.34207 0.87314-0.64154 1.162-0.88378a3.5405 3.5405 0 0 0 0.36602-0.3434 0.76532 0.76532 0 0 0 0.20764-0.39531z" fill="#ff2a2a"/>
  </g>
  <path d="m42.087 53.714c-21.988 9.273-40.585-11.535-31.666-30.378 0.168 16.137 12.616 31.992 31.666 30.378z" fill-opacity=".449"/>
  <path d="m33.183 12.326c8.462 1.116 16.427 3.742 20.246 18.98-11.69-16.704-13.196-13.754-20.246-18.98z" fill="#f9f9f9"/>
 </g>
</svg>
