<svg xmlns="http://www.w3.org/2000/svg" viewBox="0 0 64 64">
    <g transform="translate(0 -988.362)">
        <ellipse cx="31.861" cy="1021.172" fill="#ff8080" stroke="#000" stroke-linecap="round" stroke-linejoin="round" rx="23.947" ry="23.608"/>
        <g fill="#ff2a2a" fill-rule="evenodd" stroke="#000" stroke-width=".5">
            <path stroke-width=".55" d="M19.043 1014.834c1.418-.508.66-1.376-.151-2.147l-7.212 3.564c-.89.44-.07.996.381.85z"/>
            <path stroke-width=".55" d="M23.958 1021.538c1.59 1.653 2.928-.32 2.314-1.522l-7.49-7.497c.384.784 1.18 1.526.07 2.461z"/>
            <path stroke-width=".55" d="M25.447 1030.274H29.6l-3.322-10.29c.319.964-1.2 1.975-2.374 1.65z"/>
        </g>
        <path fill-opacity=".449" fill-rule="evenodd" d="M42.087 1042.076c-21.988 9.273-40.585-11.535-31.666-30.378.168 16.137 12.616 31.992 31.666 30.378z"/>
        <g fill="#ff2a2a" fill-rule="evenodd" stroke="#000" stroke-width=".5">
            <path stroke-width=".55" d="M43.614 1014.764c-1.417-.508-.659-1.376.152-2.147l7.212 3.564c.89.44.069.996-.382.85z"/>
            <path stroke-width=".55" d="M38.7 1021.467c-1.59 1.654-2.928-.32-2.315-1.521l7.49-7.497c-.383.784-1.179 1.525-.069 2.46z"/>
            <path stroke-width=".55" d="M37.21 1030.204H33.06l3.321-10.29c-.319.964 1.2 1.975 2.375 1.65z"/>
        </g>
        <path fill="#f9f9f9" fill-rule="evenodd" d="M33.183 1000.688c8.462 1.116 16.427 3.742 20.246 18.98-11.69-16.704-13.196-13.754-20.246-18.98z"/>
    </g>
</svg>
