<svg xmlns="http://www.w3.org/2000/svg" viewBox="0 0 64 64">
    <g transform="translate(0 -988.362)">
        <ellipse cx="31.861" cy="1021.172" fill="#ff8080" stroke="#000" stroke-linecap="round" stroke-linejoin="round" rx="23.947" ry="23.608"/>
        <path fill="none" stroke="#f55" stroke-width="2.46668022" d="M32.18 1023.008c.742-.703 1.314.653 1.169 1.233-.393 1.57-2.424 1.771-3.633 1.104-2.164-1.192-2.342-4.144-1.041-6.034 1.91-2.773 5.889-2.93 8.435-.977 3.395 2.603 3.525 7.641.913 10.837-3.288 4.02-9.398 4.124-13.237.848-4.65-3.967-4.727-11.156-.785-15.638 4.645-5.282 12.917-5.33 18.04-.72 5.914 5.32 5.933 14.677.656 20.44-5.996 6.547-16.44 6.538-22.841.592-7.182-6.67-7.144-18.201-.529-25.242 7.344-7.816 19.964-7.749 27.643-.464"/>
        <path fill="#ff2a2a" fill-rule="evenodd" stroke="#000" stroke-width=".45" d="M31.668 1034.09c-4.674.086-8-3.264-7.866-7.265.157-4.714 5.945-9.087 8.205-16.77 2.193 7.83 7.062 11.861 7.392 16.566.293 4.168-3.558 7.392-7.73 7.469z"/>
        <path fill="none" stroke="#fff" stroke-linecap="round" stroke-width=".9" d="M37.033 1030.181c1.69-1.598 1.406-5.164-.264-7.47"/>
        <path fill-opacity=".449" fill-rule="evenodd" d="M42.087 1042.076c-21.988 9.273-40.585-11.535-31.666-30.378.168 16.137 12.616 31.992 31.666 30.378z"/>
        <path fill="#f9f9f9" fill-rule="evenodd" d="M33.183 1000.688c8.462 1.116 16.427 3.742 20.246 18.98-11.69-16.704-13.196-13.754-20.246-18.98z"/>
    </g>
</svg>
