<svg xmlns="http://www.w3.org/2000/svg" viewBox="0 0 64 64">
    <g transform="translate(0 -988.362)">
        <ellipse cx="31.861" cy="1021.172" fill="#ff8080" stroke="#000" stroke-linecap="round" stroke-linejoin="round" rx="23.947" ry="23.608"/>
        <path fill="#f9f9f9" fill-rule="evenodd" d="M33.183 1000.688c8.462 1.116 16.427 3.742 20.246 18.98-11.69-16.704-13.196-13.754-20.246-18.98z"/>
        <path fill-opacity=".449" fill-rule="evenodd" d="M42.087 1042.076c-21.988 9.273-40.585-11.535-31.666-30.378.168 16.137 12.616 31.992 31.666 30.378z"/>
        <path fill="#ff2a2a" fill-rule="evenodd" stroke="#000" stroke-width=".5" d="M35.463 1013.97s-.298-1.632 1.449-3.46c1.752-1.834 5.942-2.692 6.607-1.907.687.81-1.303 4.446-3.326 5.592-2.322 1.315-3.938.818-3.938.818s-2.93 1.25-4.412 3.552c-1.268 1.97.208 3.942-.929 5.991-1.185 2.136-5.389 1.898-7.238 3.493-2.335 2.014-.995 5.667-3.002 10.715 1.283-4.862-.138-9.324 2.27-11.202 1.86-1.452 5.85-1.366 6.96-3.45 1.06-1.993-.436-3.85.795-5.742 1.648-2.533 4.764-4.4 4.764-4.4z"/>
    </g>
</svg>
