<svg xmlns="http://www.w3.org/2000/svg" viewBox="0 0 64 64">
    <g transform="translate(0 -988.362)">
        <ellipse cx="31.861" cy="1021.172" fill="#ff8080" stroke="#000" stroke-linecap="round" stroke-linejoin="round" rx="23.947" ry="23.608"/>
        <g fill="#f55" fill-rule="evenodd" stroke="#000" stroke-width=".65">
            <path d="M31.14 15.438c-2.535-3.208-17.48-3.217-17.392 9.814.058 8.637 11.018 18.222 17.34 22.539 8.93-5.865 17.438-14.992 17.398-22.558-.065-12.225-14.203-13.314-17.346-9.795zm12.817 9.606c-.027 5.692-4.544 9.895-12.798 17.282-7.474-6.59-12.156-11.526-12.576-17.156-.671-9 12.196-8.522 12.722-3.065.92-5.558 12.696-6.552 12.652 2.94z" transform="matrix(.55575 0 0 .55575 14.582 1004.775)"/>
            <path d="M28.511 45.746l.014 4.8-6.637.027v4.558h6.516l.03 7.095h5.39l-.057-7.041 6.622-.054-.013-4.612h-6.61l.017-4.766" transform="matrix(.55575 0 0 .55575 14.582 1004.775)"/>
        </g>
        <path fill="#f9f9f9" fill-rule="evenodd" d="M33.183 1000.688c8.462 1.116 16.427 3.742 20.246 18.98-11.69-16.704-13.196-13.754-20.246-18.98z"/>
        <path fill-opacity=".449" fill-rule="evenodd" d="M42.087 1042.076c-21.988 9.273-40.585-11.535-31.666-30.378.168 16.137 12.616 31.992 31.666 30.378z"/>
    </g>
</svg>
