<?xml version="1.0" encoding="UTF-8"?>
<svg version="1.1" viewBox="0 0 64 64" xmlns="http://www.w3.org/2000/svg" xmlns:cc="http://creativecommons.org/ns#" xmlns:dc="http://purl.org/dc/elements/1.1/" xmlns:rdf="http://www.w3.org/1999/02/22-rdf-syntax-ns#">
 <metadata>
  <rdf:RDF>
   <cc:Work rdf:about="">
    <dc:format>image/svg+xml</dc:format>
    <dc:type rdf:resource="http://purl.org/dc/dcmitype/StillImage"/>
    <dc:title/>
   </cc:Work>
  </rdf:RDF>
 </metadata>
 <ellipse cx="31.861" cy="32.81" rx="23.947" ry="23.608" fill="#ff8080" stroke="#000" stroke-linecap="round" stroke-linejoin="round"/>
 <path d="m42.087 53.714c-21.988 9.273-40.585-11.535-31.666-30.378 0.168 16.137 12.616 31.992 31.666 30.378z" fill-opacity=".449" fill-rule="evenodd"/>
 <path d="m33.183 12.326c8.462 1.116 16.427 3.742 20.246 18.98-11.69-16.704-13.196-13.754-20.246-18.98z" fill="#f9f9f9" fill-rule="evenodd"/>
 <path d="m34.712 45.172c1.4952 0.38037 5.4403 1.3707 5.9547 2.5181 0.15748 0.35129-0.50643 0.35941-0.92304 0.80493-0.27647 0.29565 0.22447 0.76571-0.14992 1.0136-0.26134 0.17305-1.2759 0.21301-1.5339 0.33334-0.49301 0.23002-0.0772 0.52929-0.31858 0.6563-0.82059 0.43175-2.3179-0.64961-2.861-1.0435-0.73556-0.53342-1.266 1.0785-2.1649 0.94616-1.27-0.18698-3.1105-1.4805-3.8549-2.8075-2.676-4.7709-4.5128-8.6066-7.6833-14.999-0.2647-0.53373-0.91754-0.63403-1.0929-1.8157-0.12525-0.84389 0.25472-1.3596 0.60113-1.8291 0.96385-1.3063 1.223-1.0773 2.3782-3.1781 0.84649-1.5393 0.75409-5.4466 4.5426-9.6878l10.72 0.12762c-1.1056 4.5343-10.958 10.203-11.054 15.51-0.06975 3.8423 4.8842 12.801 7.4404 13.451z" fill="#ff2a2a"/>
</svg>
