<svg xmlns="http://www.w3.org/2000/svg" viewBox="0 0 64 64">
    <g transform="translate(0 -988.362)">
        <ellipse cx="31.861" cy="1021.172" fill="#ff8080" stroke="#000" stroke-linecap="round" stroke-linejoin="round" rx="23.947" ry="23.608"/>
        <path fill="none" stroke="#000" stroke-linecap="round" stroke-width=".535" d="M28.717 1007.092s0 2.444-1.91 3.97c-1.374 1.146-4.81.612-6.337 2.063-1.757 1.603-.764 7.025-.764 10.996-.076 4.428-.993 8.247-.993 8.247M33.833 1007.245c.076 1.298-.23 2.596 1.756 3.818 1.604 1.222 5.04.764 6.567 2.443 1.756 1.986.687 7.179.611 11.073 0 4.428.61 8.247.61 8.247M30.473 1012.82c.534.534 1.145.763 1.833.151M23.605 1026.582c.457 4.103-.008 5.433-.772 7.266M39.713 1034.048c-.688-1.146-.917-2.814-.688-7.471"/>
        <path fill="#f55" d="M23.565 1023.36c.535.688.535 1.604 0 1.986-.534.381-1.374.151-1.832-.535-.535-.687-.535-1.527.076-1.985.458-.459 1.222-.153 1.756.535z"/>
        <path fill="none" stroke="#000" stroke-linecap="round" stroke-width=".305" d="M22.649 1022.75c-1.45-.612-1.604 1.374-.687 2.29.916.764 2.443.535 1.756-1.374"/>
        <path fill="none" stroke="#000" stroke-linecap="round" stroke-width=".153" d="M22.496 1023.819c-.458-.152-.534.382-.229.61.306.23.764.152.535-.381"/>
        <path fill="none" stroke="#000" stroke-linecap="round" stroke-width=".535" d="M22.104 1017.588c1.328 1.411-4.08 4.378-.682 7.84 2.488 2.534 7.587-.1 7.717-3.152"/>
        <g>
            <path fill="#f55" d="M38.49 1023.325c-.535.687-.535 1.603 0 1.985.534.382 1.374.151 1.832-.535.534-.687.534-1.527-.077-1.985-.458-.458-1.221-.153-1.756.535z"/>
            <path fill="none" stroke="#000" stroke-linecap="round" stroke-width=".305" d="M39.406 1022.713c1.45-.61 1.603 1.375.687 2.292-.917.763-2.444.534-1.757-1.375"/>
            <path fill="none" stroke="#000" stroke-linecap="round" stroke-width=".153" d="M39.558 1023.783c.458-.152.535.382.23.61-.306.23-.764.152-.535-.381"/>
            <path fill="none" stroke="#000" stroke-linecap="round" stroke-width=".535" d="M39.95 1017.552c-1.328 1.411 4.081 4.378.682 7.84-2.487 2.534-7.586-.1-7.717-3.152"/>
        </g>
        <path fill="#f9f9f9" fill-rule="evenodd" d="M33.183 1000.688c8.462 1.116 16.427 3.742 20.246 18.98-11.69-16.704-13.196-13.754-20.246-18.98z"/>
        <path fill-opacity=".449" fill-rule="evenodd" d="M42.087 1042.076c-21.988 9.273-40.585-11.535-31.666-30.378.168 16.137 12.616 31.992 31.666 30.378z"/>
    </g>
</svg>
