<?xml version="1.0" encoding="UTF-8"?>
<svg cursor="default" version="1.1" viewBox="0 0 256 256" xmlns="http://www.w3.org/2000/svg">
 <g fill="#faa" stroke="#000" stroke-linecap="round" stroke-linejoin="round" stroke-width=".5">
  <path d="m143.15 91.395c4.38 10.676-20.671 25.114-35.878-5.9337-3.4647-1.8153-8.5576-4.766-11.662-9.6193-0.57033-3.0383-1.4605-5.0816-0.61992-7.3539 3.1454-2.2386 4.7907-4.7433 6.6812-4.6042 2.5767 0.18958 4.7314 2.5985 7.5322 4.0522 0 0-0.42638 4.1281 0.58825 5.7762 2.5118 4.08 5.7695 6.908 8.3813 10.921 7.1136 3.534 13.967 4.5312 20.414 7.4194 1.4295 0.64034 3.0095-1.0348 4.5625-0.65769z"/>
  <path d="m145.08 92.292c0.70743 6.8799-3.8054 10.912-11.177 13.385 5.1713 6.3569 11.443 7.0751 18.077 5.9337 11.27 10.602 24.245 6.2173 23.666-10.212-4.4049 1.6723-7.8123 4.8407-13.523 4.5538-7.4679-2.1286-11.467-11.623-17.042-13.661z"/>
  <path d="m150.46 93.465c6.0043 7.5292 11.979 13.157 17.801 9.0386 6.5239-2.9011 14.721-5.1131 18.422-9.1766 0.54571-6.5735 3.0925-7.1437 6.0027-6.6237 2.9057-14.743-6.5268-12.363-11.867-15.662-3.0816 1.3645-6.176 2.7333-9.7975 4.2778l-7.4517-4.2088-1.5179 0.89696c10.058 9.0263 5.6721 24.515-11.591 21.458z"/>
  <path d="m182.34 69.799c2.252-3.4208 0.39416-9.1362 2.8979-13.178 5.8133 3.5688 23.041 14.025 9.7285 25.46 1.9974-5.5369-4.733-12.063-12.626-12.281z"/>
  <path d="m195.79 61.726c-2.709-2.5982-5.3059-5.286-8.9006-7.1757-0.29366-1.7426-1.3668-2.5759-2.7599-3.0359 2.827-4.8348 3.5492-10.626 4.4158-16.352 4.5189 10.254 12.697 10.576 7.2447 26.564z"/>
  <path d="m185.31 44.96c3.5738-10.645-0.42624-17.074-3.5188-28.91-6.3036 2.5268-12.789 4.7503-21.803 2.7599 2.1909 2.3229 4.7701 4.6458 5.9337 6.9687 13.142 4.7239 15.38 12.174 19.388 19.181z"/>
  <path d="m162.06 24.468c-9.0774-1.9912-25.87-7.8401-23.39 14.42l-1.3109 0.55198c-1.3514-3.927-3.5701-7.6539-9.6596-10.488-0.71608-15.315 19.231-19.322 22.562-18.146 4.8581 4.3225 9.1366 8.7898 11.798 13.661z"/>
  <path d="m134.73 37.233c-1.3055-4.4079-4.5844-5.5867-7.8656-6.7617-4.3226 5.0947-1.8079 12.024-3.4498 18.284 1.2531 3.9442 4.9091 2.9647 6.2787 5.4507 0.89668 16.409 8.8603 15.919 13.523 23.321l0.41399-4.4848c-6.6368-1.2106-10.542-5.8978-11.108-14.834-1.4469-3.3617-4.2583-8.8678-4.6918-14.834 0.2531-4.1686 2.8328-8.1929 6.8997-6.1407z"/>
  <path d="m128.18 19.5c-2.3624 2.8617-3.8872 6.0026-2.4149 10.143-2.8025 1.3141-7.667 18.867-0.34498 24.011l-0.68998 6.0027c-5.5818 0.70545-11.134 1.4771-14.558 7.0377l-9.3146-5.5197c-3.341-3.3768-2.0192-6.2582 0.13799-9.4526 11.214-11.561 9.4549-20.334 11.591-29.669 0.57818-2.3001 1.7611-7.066 9.3146-5.0368 2.0983 0.80456 4.2192 1.6095 6.2787 2.4839z"/>
  <path d="m124.66 61.243c-7.1355 0.54143-14.748 5.2264-12.833 11.384 2.9626 2.8979 4.792 5.7957 6.4857 8.6936 5.5489 3.8751 14.015 5.6072 21.389 8.4866 9.369 1.4774 17.145 2.89 23.459-0.41398 5.3273-8.5399 0.31158-14.829-3.2429-15.938l-4.8988 3.3118c6.1727 4.3524 3.9526 7.696 2.2769 8.8316-3.8638 1.7591-7.7276-2.1202-11.591-4.8988-6.4476 2.6945-15.515-1.7588-20.837-6.0717v-1.7939c4.7892 3.5912 9.9818 6.5773 17.318 6.3477-10.911-3.293-16.474-11.44-17.525-17.939z"/>
  <path d="m128.8 56.552-1.0349-2.6219c-3.4795 11.323 2.5947 18.664 12.488 22.562-7.023-5.7939-12.645-12.321-11.453-19.94z"/>
  <path d="m155.5 79.39c2.3164 2.2029 2.8319 5.7853-2.6909 4.7608-2.792-1.8618-5.6098-3.6117-7.8656-7.7966l-0.27597-4.5538c-1.1072 0.79558-10.385-1.086-9.9356-12.488-2.0219-6.1457-6.1405-12.181-5.0368-18.491 0.82206-5.4398 11.58-0.08147 4.0708 4.3468 0.91996 4.3102 2.7884 23.603 21.734 34.222z"/>
  <path d="m137.15 52.55c1.0324-5.6047 7.1002-23.55 24.356-15.524 2.0896 0.04271 4.2811 0.18732 6.5547 0.41398l0.27599-2.9669c-5.5129-3.8266-11.346-5.0947-17.594-3.0359-7.4213 3.8228-11.575 9.3571-15.179 15.179-0.25613 0.70437 0.84455 7.1473 1.5869 5.9337z"/>
  <path d="m140.18 36.957c6.4932-5.5871 14.858-13.359 29.324-3.3808l0.13799 4.3468c5.0324 2.1769 7.2694 5.5518 5.8647 10.488l2.6219 0.62097c1.2439-3.6587 0.5145-7.6358-3.9328-12.212-9.434-9.0776-32.613-23.588-34.015 0.13799z"/>
  <path d="m161.85 25.848c7.3542 4.6747 22.289 11.573 17.111 24.287 4.1068 1.6695 3.4496 20.318-12.488 19.388l-0.82795 1.2419c3.1994 1.582 6.3545 2.9533 8.8316 1.1039 2.6837-1.2362 6.3955-2.0985 7.2446-4.0018 0.14009-2.6721 0.4094-4.8918 0.207-8.7626 0.99562-1.3342 1.8992-2.3465 3.2428-4.8988-0.098-1.0357-1.1756-1.6515-2.5529-2.1389 0.32304-1.1729 0.68038-2.3459 1.7249-3.5188 0.48691-2.3986-1.7197-4.1239-3.3119-6.0027-3.7684-11.079-11.932-12.929-19.181-16.697z"/>
  <path d="m150.46 73.594c8.4099-5.9078 18.343-11.09 23.183-18.698-0.66235 5.2866-0.24604 10.315-17.318 19.526-2.3705 0.24351-4.2274-0.155-5.8647-0.82796z"/>
  <path d="m168.82 68.143c5.8125-4.9244 8.1084-13.152 5.7957-15.248 0.25573-1.2717 2e-3 -3.1241 1.4489-3.0359 4.4149 1.5609 6.6963 13.474-7.2446 18.284z"/>
  <path d="m150.33 70.972c-1.407 0.62384-2.7772 0.80637-4.0018-0.75898-3.4256-3.2939-5.796-7.0099-7.3827-11.039-0.99413-3.225 0.0581-4.4038 0.82796-5.8647 4.4353-6.076 1.8008-8.4648 11.867-12.764 1.6099-0.68987 3.2198-1.4434 4.8298-1.2419-3.7428 3.5892-2.3747 8.3141-3.1738 12.557 2.7858 4.4638 5.3553 8.2067 7.5896 10.832 0.47593 0.83646 0.45781 1.6235-0.89695 2.2769z"/>
  <path d="m139.56 49.514c5.104-13.063 13.039-15.114 21.044-11.108l-7.1066-0.20699c-2.493 1.2511-4.8663 2.3824-7.1757 3.4498-3.3056 2.4716-4.5992 5.2307-6.7617 7.8656z"/>
  <path d="m164.4 38.13c7.8243 4.124 9.0098 10.381 6.9687 17.801 4.5326-7.2853 5.1108-17.575-6.9687-17.801z"/>
  <path d="m162.06 39.164c4.1385 5.251 10.355 11.694 6.6237 19.457 2.6306-4.1326 4.7872-15.944-6.6237-19.457z"/>
  <path d="m157.54 40.096 3.4843-0.13799 1.5869 1.8284-3.0014 0.31049z"/>
  <path d="m155.85 42.269c-0.27133 3.6413-1.2556 7.4608 1.6214 10.315-0.53433-2.856-0.59255-6.2843-0.20699-10.246z"/>
  <path d="m161.02 59.795c5.4268-2.7474 4.6078-3.5818 6.8307-5.3817-1.4496 2.5747 9e-3 4.2278-4.7953 7.8656-0.75564-0.69999-1.7145-0.79022-2.1389-2.4839 0.051-0.34744 0.0874 0 0.10362 0z"/>
  <path d="m163.99 55.482c0.459-4.3013 0.91993-8.6034-4.2778-10.66 2.1875-0.03169 4.2109 0.52586 5.4852 4.1398 0.17912-2.3633-0.75377-4.14-2.1734-5.7612 3.3376 2.1817 7.0045 6.453 0.96596 12.281z"/>
  <path d="m158.88 45.995c2.4956-0.33763 5.1143 9.4145 3.9328 9.901l-2.6219 2.5529c-1.3678-1.0747-2.3809-2.3522-3.1049-3.7948 0.66697-0.2127 1.334-0.17528 2.0009-1.3454-0.50218-2.7267-0.20147-4.9181-0.20699-7.3137z"/>
 </g>
 <g fill="#ffb380" stroke="#000" stroke-linecap="round" stroke-linejoin="round" stroke-width=".5">
  <path d="m124.11 105.19 4.6918 1.1039c-21.159 20.715-25.12 40.376-26.633 49.264 6.786-6.4906 14.073-9.9186 23.183-2.2079-6.7897-3.1212-12.383-7.4488-22.493 6.7617-1.5196 10.864 4.9707 25.8 7.0377 38.776 2.7593 17.323-7.0336 30.422-12.281 44.848l-8.4176 1.6559c8.5619-10.569 19.577-34.694 17.249-44.296-0.93259-3.8475-1.8044-7.4149-2.603-10.741-0.22549-0.93908-8.4464-13.47-16.954-6.9561 7.2406-7.6891 15.76 1.9227 15.507 0.82939-3.9408-17.079-5.3065-27.279-1.8841-37.502 5.3237-15.902 13.585-30.033 23.597-41.536z"/>
  <path d="m122.62 148.17c-1.695-3.107-4.1594-5.4804-4.6037-9.7797l1.7106 0.46926c-1.8316-2.1059-1.4416-3.9753-1.6806-5.9117l1.5312 1.2676c0.20061-3.0821 2.2191-5.3291 5.1672-7.1491l0.30558 1.4133c1.9307-1.743 3.6809-3.6533 6.8188-4.2781l0.0248 1.3944c1.5367-0.97956 3.1169-1.9004 5.582-1.6261l0.0727 1.4989c2.2952-0.29153 3.405-1.2742 7.7088-0.39458-0.22758 3.1992 1.104 5.6112 3.0685 6.8658 0.10274 1.7608-0.72235 2.8999-1.3627 4.1629l2.5467-0.0825c-0.33546 2.269-0.69131 4.5304-1.456 6.6383l2.4664-1.1514c-0.90678 2.9502-2.928 4.8402-5.4327 6.2703l2.4704 0.49491c-2.2194 1.6297-4.4574 3.1452-6.8724 3.5654l1.5656 1.1939c-3.1559 0.71105-6.3841 1.1544-10.11-0.24765l-0.23472 1.1238c-2.5147-2.1122-7.5681-6.1844-7.5681-6.1844l0.69389-1.9756c2.53-0.72809 3.9948-2.0773 9.647-0.98492-2.5078-1.405-5.5819-1.7012-9.5716-0.20443 0.74782-1.5606 0.89572-3.0706 3.5286-4.7899 3.5023-1.025 6.9236-2.1303 11.876-1.7146-3.7349-1.3388-7.3735-0.80038-10.995 0.0709l6.6887-4.9505c3.4479 0.7446 5.8638 0.34527 8.2314-0.10784-2.4156-0.36272-5.6223 0.72297-6.534-0.63202l4.9094-3.5682c-2.3122 0.75061-4.0348 1.8171-5.634 2.9498-0.23367-1.3816 0.13091-3.0784 0.38332-4.7161-0.7138 1.3445-1.4336 2.6817-1.3478 5.002l-5.4343 3.6475c-1.0204-1.6-0.43662-4.091 0.24638-6.637-1.5324 2.0159-2.0377 4.367-1.2265 7.1476l-3.7235 4.0216c-0.57028-3.0248-2.0493-4.4158-3.3799-6.0736 0.98857 2.4354 2.7095 4.971 1.9059 7.161z"/>
  <path d="m88.958 179.04c1.1989-2.1757 2.9415-3.8375 3.2565-6.8484l-1.2094 0.32836c1.2952-1.4745 1.0199-2.7839 1.1892-4.14l-1.0827 0.88749c-0.14122-2.1586-1.5677-3.7326-3.6516-5.0077l-0.21631 0.98972c-1.3646-1.221-2.6015-2.5592-4.8197-2.9972l-0.01781 0.9766c-1.0862-0.68629-2.2031-1.3315-3.9459-1.1398l-0.05168 1.0498c-1.6225-0.20456-2.4069-0.89296-5.4497-0.27761 0.16026 2.2406-0.78161 3.9296-2.1706 4.8079-0.07298 1.2332 0.5101 2.0311 0.96254 2.9157l-1.8004-0.0582c0.2367 1.5892 0.48783 3.173 1.028 4.6493l-1.7434-0.80676c0.64047 2.0663 2.069 3.3903 3.8394 4.3922l-1.7465 0.34621c1.5687 1.1417 3.1505 2.2034 4.8577 2.4982l-1.107 0.83588c2.2309 0.49849 4.513 0.80948 7.1477-0.17178l0.16571 0.78707c1.7782-1.4788 5.3515-4.3299 5.3515-4.3299l-0.49016-1.3837c-1.7885-0.51032-2.8237-1.4554-6.8198-0.69136 1.7732-0.9836 3.9465-1.1905 6.7667-0.1416-0.52837-1.093-0.63262-2.1506-2.4936-3.3552-2.4757-0.71841-4.8942-1.4931-8.3954-1.2027 2.6407-0.93704 5.2128-0.55934 7.7729 0.0514l-4.7276-3.4682c-2.4376 0.52092-4.1455 0.24085-5.8191-0.0769 1.7078-0.25364 3.9745 0.50724 4.6193-0.44157l-3.47-2.4997c1.6345 0.52606 2.852 1.2733 3.9824 2.0668 0.16546-0.96755-0.09194-2.1559-0.27007-3.3029 0.50436 0.94176 1.0129 1.8784 0.95187 3.5033l3.8411 2.5554c0.72171-1.1204 0.30948-2.865-0.17288-4.6482 1.083 1.4121 1.4397 3.0587 0.86569 5.006l2.6316 2.8171c0.40376-2.1183 1.4496-3.0922 2.3906-4.253-0.69935 1.7054-1.9165 3.481-1.3488 5.0149z"/>
  <path d="m125.13 155.19c3.9724 1.3066 7.7821 1.4613 12.019 4.6403l-1.5641 0.85162c3.145 0.3933 4.6007 2.1961 6.5346 3.6l-2.1772 0.0724c2.6931 2.6533 3.4156 5.9379 3.1302 9.5452l-1.4984-0.92995c0.31853 2.811 0.90999 5.628-0.59707 8.3994l-1.2951-1.117c-0.12027 1.9055-0.32341 3.7945-2.2089 5.3489l-1.4226-1.1676c-1.254 1.8924-1.0886 3.4926-4.7479 5.8802-2.7826-2.7681-5.8769-3.771-8.3294-3.3756-1.6827-1.3591-2.1803-2.8813-2.9139-4.3711l-1.6124 1.9036c-1.8582-2.0888-3.6959-4.1861-5.1218-6.4532l-0.57909 2.7158c-2.1041-3.0552-2.4974-6.0512-2.1485-9.0214l-2.0912 1.3787c-0.0231-2.927 0.0705-5.7744 1.286-7.8579l-2.1324 0.15718c1.4398-2.8545 3.1731-5.5433 6.9287-7.0894l-0.87488-1.084c3.6036-0.0943 10.687-0.42382 10.687-0.42382l1.3515 2.1084c-1.0094 2.4171-0.74317 4.5716-5.4912 7.7584 2.9506-0.66483 5.2597-2.6407 6.5318-6.7359 0.93533 1.8095 2.2218 3.1453 2.0532 6.4434-1.3816 3.3598-2.6358 6.7268-6.2997 9.9597 3.7033-1.6036 5.6213-4.6658 7.223-7.9864l0.10582 8.8529c-2.9682 1.8803-4.2034 3.9475-5.3572 6.0236 1.9337-1.4467 3.0638-4.6428 4.9105-4.1974l0.0176 6.4446c0.84439-2.2784 1.0082-4.3887 1.0296-6.4638 1.4217 0.95604 2.7359 2.6 4.0703 4.115-0.75971-1.6091-1.5088-3.2166-3.6931-5.0433l0.25752-6.8876c2.1435 0.5665 4.0406 3.015 5.9224 5.5798-0.83272-2.7459-2.6536-5.024-5.7409-6.7022l-1.2195-5.9585c3.1516 2.0508 5.4074 2.1165 7.8094 2.5062-2.8883-1.2694-6.354-2.0922-7.8295-4.4543z"/>
  <path d="m84.498 185.83c-4.2035 0.55956-8.0373 0.0157-12.842 2.3688l1.4093 1.1235c-3.2126-0.18771-4.9912 1.3198-7.1758 2.3474l2.1621 0.46901c-3.1678 2.118-4.4804 5.217-4.8443 8.8176l1.6642-0.64101c-0.82392 2.707-1.9215 5.3699-0.91456 8.3714l1.4948-0.86221c-0.22257 1.8964-0.35953 3.7917 1.2444 5.6652l1.6312-0.88882c0.91233 2.0907 0.45919 3.6345 3.6854 6.6517 3.2778-2.2146 6.5495-2.6358 8.9285-1.7988 1.9254-1.0296 2.6965-2.436 3.6974-3.7674l1.2684 2.1671c2.2322-1.7152 4.4453-3.4425 6.2777-5.4122l0.08996 2.7773c2.6516-2.621 3.5835-5.4962 3.7693-8.4816l1.8412 1.7382c0.54973-2.875 0.96836-5.693 0.12893-7.9647l2.1021 0.5442c-0.9249-3.071-2.1728-6.0326-5.6465-8.2396l1.069-0.90643c-1.1303 0.24826-3.9193-0.26586-6.3651-0.9017-2.0287-0.5274-3.8213-1.1385-4.2352-1.4677l-1.7295 1.8271c0.57354 2.5621-0.07995 4.6328 4.0901 8.6351-2.8281-1.1931-4.7795-3.5586-5.3136-7.8194-1.2599 1.609-2.7854 2.688-3.2103 5.9631 0.7758 3.5574 1.4231 7.0986 4.5018 10.948-3.4112-2.254-4.7764-5.6166-5.7791-9.1758l-1.6983 8.6891c2.627 2.3919 3.4891 4.6511 4.2683 6.9041-1.6716-1.7764-2.2255-5.1268-4.1505-5.0261l-1.1769 6.3363c-0.43369-2.3955-0.21768-4.5013 0.13417-6.5464-1.5923 0.68071-3.201 2.0577-4.8065 3.3043 1.0484-1.4441 2.0859-2.8884 4.5967-4.2863l0.98179-6.8223c-2.2433 0.16563-4.579 2.2276-6.9204 4.4068 1.3259-2.549 3.5547-4.4572 6.941-5.544l2.2902-5.6385c-3.5174 1.4416-5.7828 1.094-8.2526 1.0385 3.1138-0.72098 6.7242-0.89721 8.6231-2.9512z"/>
 </g>
</svg>
