<svg cursor="default" version="1.1" viewBox="0 0 256 256" xmlns="http://www.w3.org/2000/svg">
 <g fill="none" stroke="#ffb380" stroke-linecap="round" stroke-linejoin="round">
  <path d="m159.15 81.182c1.095 3.546 3.821 6.684 6.187 9.913m4.546-8.965-6.945 15.404m6.516 5.112c4.077-1.404 5.843-8.5 2.147-6.313-0.53-7.032-3.43 0.398-2.147 6.313z" stroke-width="3"/>
  <path d="m85.297 85.79c8.634-4.673 18.163 6.637 4.883 16.688z" stroke-width="3"/>
  <path d="m102.51 98.216 5.719-15.155 6.773 12.68m0-3.17-13.32 3.557" stroke-width="3.625"/>
  <path d="m122.04 82.434c8.568-7.598 25.673 14.349-0.325 14.597zm19.003 0.632c8.568-7.597 25.674 14.35-0.325 14.597z" stroke-width="3"/>
 </g>
</svg>
