<svg cursor="default" version="1.1" viewBox="0 0 256 256" xmlns="http://www.w3.org/2000/svg">
 <g fill="none" stroke="#ffb380" stroke-width="3">
  <path d="m88.639 101c0.066-5.051-0.874-10.102-2.147-15.153 3.194 4.43 4.623 9.566 6.187 14.648l-0.505-17.173c2.1485 5.2858 4.2532 10.589 6.314 15.91" stroke-linecap="round" stroke-linejoin="round"/>
  <path d="m108.08 82.948c10.989-0.315 10.947 16.748 0.884 16.92-11.584 0.199-9.986-16.658-0.884-16.92z"/>
  <path d="m121.34 98.984c1.27-6.997 2.128-14.253 2.904-14.142 1.529 4.54 3.35 8.919 6.187 13.132 1.367-4.577 2.168-9.438 2.525-14.52 2.515 4.464 4.389 9.088 5.556 13.889m2.778 0.757c0.71-4.894 1.55-10.908 3.599-15.467 1.272 4.574 3.047 10.303 5.492 14.71l3.41-16.415c1.632 4.84 3.039 10.943 4.167 15.784m2.525-14.458c1.095 3.546 3.821 6.684 6.187 9.912m4.546-8.966-6.945 15.406m5.177 4.04c4.077-1.404 5.843-8.5 2.147-6.313-0.53-7.032-3.43 0.398-2.147 6.313z" stroke-linecap="round" stroke-linejoin="round"/>
 </g>
</svg>
