<svg cursor="default" version="1.1" viewBox="0 0 256 256" xmlns="http://www.w3.org/2000/svg">
 <g transform="matrix(.94646 0 0 .93117 8.7819 5.7349)" fill="none" stroke="#ffb380" stroke-width="3.1956">
  <path d="m89.766 66.796c7.4989-4.2542 15.775 6.0422 4.241 15.192z" stroke-linecap="round" stroke-linejoin="round"/>
  <path d="m109.22 63.174c9.5442-0.28677 9.5078 15.247 0.76778 15.404-10.061 0.18117-8.6731-15.165-0.76778-15.404z"/>
  <path d="m136.64 75.154c1.103-6.3699 1.8482-12.976 2.5222-12.875 1.328 4.1331 2.9096 8.1197 5.3736 11.955 1.1873-4.1668 1.883-8.5922 2.193-13.219 2.1844 4.0639 3.812 8.2735 4.8255 12.644m-32.812 3.3077c0.61666-4.4554 1.3462-9.9304 3.1258-14.081 1.1048 4.1641 2.6464 9.3796 4.77 13.392l2.9617-14.944c1.4174 4.4062 2.6395 9.9623 3.6192 14.369m19.764-13.25c0.95104 3.2282 3.3186 6.085 5.3736 9.0237m3.9483-8.1625-6.0319 14.025" stroke-linecap="round" stroke-linejoin="round"/>
 </g>
</svg>
