<?xml version="1.0" encoding="UTF-8"?>
<svg cursor="default" version="1.1" viewBox="0 0 256 256" xmlns="http://www.w3.org/2000/svg">
 <g fill="none" stroke="#ffb380" stroke-width="3">
  <path d="m150.33 105.68c7.542-0.133 6.496 13.351-0.379 13.384-7.383 0.036-7.253-13.25 0.379-13.384z"/>
  <path d="m164.04 106.21c7.542-0.133 6.496 13.351-0.379 13.384-7.383 0.036-7.253-13.25 0.379-13.384z"/>
  <g transform="translate(-19.316 .29324)">
   <g stroke-linecap="round">
    <path d="m118.75 116.72-1.768 3.03m7.892-3.282 2.336 2.462" stroke-linejoin="round"/>
    <path d="m118.19 108.14-2.21-2.462m8.271 2.336 1.768-2.526"/>
   </g>
   <path d="m121.59 117.93c5.683-0.25 4.502-12.21-0.884-11.617-4.77 0.525-3.513 11.81 0.884 11.617z"/>
  </g>
  <path d="m136.41 105.24c7.542-0.133 6.496 13.351-0.379 13.384-7.383 0.036-7.253-13.25 0.379-13.384z"/>
  <path d="m123.22 104.74c7.542-0.133 6.496 13.351-0.379 13.384-7.383 0.036-7.253-13.25 0.379-13.384z"/>
 </g>
 <g transform="translate(-19.882 8.6506)" fill="none" stroke="#ffb380" stroke-linecap="round" stroke-linejoin="round" stroke-width="3">
  <path d="m130.42 97.871 3.079-2.1993-0.43986 13.782"/>
  <path d="m130.86 109.89c1.7594 0 4.6919-0.14662 4.6919-0.14662"/>
 </g>
</svg>
