<?xml version="1.0" encoding="UTF-8"?>
<svg cursor="default" version="1.1" viewBox="0 0 256 256" xmlns="http://www.w3.org/2000/svg">
 <g fill="none" stroke="#ffb380" stroke-linecap="round">
  <path d="m120.42 63.485c5.8483 19.11-13.05 17.365-8.3609 1.1939" stroke-width="3"/>
  <path d="m151.23 63.596c0.90012 3.006 3.1409 5.6662 5.0859 8.4026m3.7369-7.6007-5.709 13.06" stroke-linejoin="round" stroke-width="3"/>
  <g stroke-linejoin="round" stroke-width="3">
   <path d="m106.79 66.614c-2.4022-4.395-8.1194 0.39643-7.3859 3.5998 0.67458 2.9462 6.6977 0.21518 8.125 4.0188 1.6625 4.4305-4.4387 7.4282-7.4284 4.1818"/>
   <path d="m126.47 76.73-1.0428-14.623c8.1279-1.797 11.197 4.1899 1.2375 7.5815 14.81-3.0954 8.2308 10.122-0.19472 7.0412z"/>
   <path d="m139.41 76.163 0.57598-14.649c8.2765-0.88978 10.666 5.3989 0.39397 7.6718 15.061-1.4435 7.0644 10.968-0.96995 6.9768z"/>
  </g>
 </g>
</svg>
