<svg xmlns="http://www.w3.org/2000/svg" viewBox="0 0 256 256">
    <defs>
        <linearGradient id="elementalFire2">
            <stop offset="0" stop-color="#fc0"/>
            <stop offset="1" stop-color="#ffdf5f"/>
        </linearGradient>
    </defs>
    <g>
        <g fill="none" stroke-linejoin="round">
            <path stroke="#000" stroke-width="20" d="M206.269 238.662L13.587 92.148l230.053-.943L56.298 239.61 128.78 10.068z" transform="matrix(.9352 0 0 .26543 11.192 160.096)"/>
            <path stroke="#f55" stroke-width="10" d="M206.269 238.662L13.587 92.148l230.053-.943L56.298 239.61 128.78 10.068z" transform="matrix(.9352 0 0 .26543 11.192 160.096)"/>
        </g>
        <path fill="#faa" fill-rule="evenodd" stroke="#000" d="M170.403 47.512c-1.19 15.753-13.868 29.105-30.935 41.54l-3.678-.183c-1.906-3.629 3.354-7.89-.236-16.357 4.214-5.414 3.985-11.294 3.787-17.172-1.486 5.047-1.531 10.478-6.313 14.647-2.876-1.423-5.806-2.652-9.85.126-5.142-3.673-6.247-9.245-7.448-14.773-1.162 5.494-.854 11.271 5.302 18.182-2.919 9.212 1.55 12.22.229 15.363l-3.954 1.306c-15.456-11.095-21.5-24.622-25.064-39.523-28.775 4.31-43.123 23.143-50.129 39.018 0 0 23.32-4.404 26.264-3.283 3.419 1.3 10.246 11.106 12.627 11.742 3.685.984 26.137-2.778 26.137-2.778 1.931 1.078 5.946 2.056 7.272 2.26-2.797 4.257-4.485 6.086-4.588 8.89-.148 4.033 3.787 7.794 6.156 11.327-3.448 8.98-2.746 13.012-2.526 18.182l2.147.505-.885 24.875-1.262 25.758-3.031 8.334c4.31 3.06 9.78 1.288 10.986.38-.336-2.021-.673-3.356-1.01-8.083l1.641-28.662.38-22.098 9.09-1.01c1.504 8.49 3.932 16.876 7.577 25.128l6.818 28.537c2.258 2.843 2.486 5.18 2.905 7.564l8.785-.195c-.82-2.897-.386-5.571-4.998-9.137l-7.576-29.674c-2.848-7.66-5.624-15.32-7.07-22.98l1.894-.252c.513-5.365-.472-11.6-1.606-16.729 2.883-5.728 7.377-7.618 7.426-12.589.024-2.4-1.08-5.064-3.212-9.31 0 0 8.903-4.001 12.165-4.304 8.206-.76 21.01 5.468 24.37 4.166 3.459-1.34 10.748-10.036 13.511-11.742 2.526-1.559 26.768 4.924 26.768 4.924-5.504-18.744-25.627-34.454-48.866-41.92zm-32.248 50.87c1.35 2.755 2.112 4.845 1.956 7.495-.102 1.728-2.317 3.84-4.067 6.028-3.857-4.842-.884-5.063 2.11-13.523zm-18.498.36c1.458 8.73 4.967 8.656-.492 12.723-2.25-1.574-3.812-3.085-3.755-4.887.062-1.974 1.17-4.727 4.247-7.836z"/>
    </g>
</svg>
