<svg xmlns="http://www.w3.org/2000/svg" xmlns:xlink="http://www.w3.org/1999/xlink" viewBox="0 0 256 256">
    <defs>
        <linearGradient id="elementalEarthDark">
            <stop offset="0" stop-color="#746459"/>
            <stop offset="1" stop-color="#938073"/>
        </linearGradient>
        <linearGradient id="elementalEarth3">
            <stop offset="0" stop-color="#927f72"/>
            <stop offset="1" stop-color="#ac9d93"/>
        </linearGradient>
        <linearGradient id="linearGradient4219" x1="95.357" x2="155.357" y1="204.214" y2="89.571" gradientTransform="matrix(.5 0 0 .5 63.857 65.395)" gradientUnits="userSpaceOnUse" xlink:href="#elementalEarth3"/>
        <linearGradient id="linearGradient885" x1="95.357" x2="155.357" y1="204.214" y2="89.571" gradientTransform="matrix(.625 0 0 .625 47.893 49.046)" gradientUnits="userSpaceOnUse" xlink:href="#elementalEarthDark"/>
    </defs>
    <g>
        <path fill="url(#linearGradient885)" fill-rule="evenodd" stroke="#6c5d53" stroke-width="1.82" d="M141.426 194.788l-39.973-1.261-34.39-34.248-6.253-30.256 12.506-25.424 10.719-25.634L130.26 66.83l42.206 17.23 12.282 30.886 9.826 33.408-22.108 30.466z"/>
        <path fill="none" stroke="#6c5d53" stroke-width="1.82" d="M67.28 158.5l32.827-10.085 30.594 15.758 10.272 28.785M130.7 163.753l16.972-22.272 29.03-5.463 17.42 11.556"/>
        <path fill="none" stroke="#6c5d53" stroke-width="1.82" d="M176.703 136.228l-25.458-20.17-4.02-17.02 25.24-14.98M147.45 98.828l-35.507-2.731-27.908-18.132M61.028 128.454l47.118-9.245"/>
        <path fill="url(#linearGradient4219)" fill-rule="evenodd" stroke="#6c5d53" stroke-width="1.456" d="M138.683 181.988l-31.978-1.008-27.512-27.399-5.002-24.205 10.004-20.339 8.576-20.507 36.98-8.908 33.765 13.783 9.825 24.71 7.86 26.725-17.685 24.373z"/>
        <path fill="none" stroke="#6c5d53" stroke-width="1.456" d="M79.372 153.75l26.261-8.07 24.475 12.607 8.218 23.029M130.108 157.951l13.578-17.817 23.224-4.37 13.935 9.244"/>
        <path fill="none" stroke="#6c5d53" stroke-width="1.456" d="M166.91 135.932l-20.366-16.137-3.216-13.615 20.724-12.775M143.507 106.012l-28.405-2.185L92.949 88.53M114.209 103.658l-1.787 18.658 31.085 17.65M112.422 122.148l-6.789 23.365M74.37 129.712l37.695-7.396"/>
        <path fill="none" stroke="#eacfb7" stroke-width="2.684" d="M136.206 168.544c-.02-2.176-.764-2.23-.764-2.23-1.405-3.792-2.356-9.773-3.33-12.892-1.573-3.437-2.42-6.723-2.827-10.453M122.84 141.948l-.059 10.677c-.392 3.08-.631 10.023-.752 12.46-.22 1.922-.595.538-.705 2.899"/>
        <path fill="none" stroke="#eacfb7" stroke-width="2.232" d="M123.477 126.416c-3.08.071-3.97 3.962-3.833 4.793.16.978 3.209 3.345 3.247 6.11M129.832 126.314c3.939.047 5.045 3.6 4.996 5.075-.026.774-4.64 2.28-5.318 6.367"/>
        <g fill="#eacfb7" stroke="#eacfb7" transform="matrix(.36948 0 0 .3744 78.9 88.05)">
            <path fill-rule="evenodd" stroke-width="3.608" d="M115.462 148.482l24.584-1.246c-1.17-8.243-.285-15.855-5.083-24.936-3.602-6.819 7.163-7.261 4.725-21.506-.339-1.98-18.295-1.398-19.142.232-7.482 14.4 8.92 15.195 1.735 21.363-5.024 4.314-8.075 15.927-6.819 26.093z"/>
            <ellipse cx="131.009" cy="83.903" stroke-linecap="round" stroke-linejoin="round" stroke-width="3.608" rx="7.206" ry="8.121" transform="rotate(1.158)"/>
            <path fill-rule="evenodd" stroke-width="3.608" d="M134.945 113.701c-23-17.732-41.612-30.086-46.25-54.488-25.442 6.497-40.937 20.01-50.364 37.8l26.686-3.398 13.85 12.448 26.921-2.551z"/>
            <path fill-rule="evenodd" stroke-width="3.608" d="M128.202 109.717c23.698-16.789 42.794-28.38 48.415-52.575 25.158 7.52 40.094 21.647 48.794 39.804l-26.526-4.473-14.341 11.877-26.797-3.636z"/>
            <path fill-rule="evenodd" d="M121.517 101.019c1.303-4.837-.66-8.596-.723-13.638l16.934-.937c-.193 4.982-.78 11.265-.184 14.558zM124.112 83.587c-8.513-7.05-8.095-13.589-8.571-20.179 1.964 6.216 2.308 12.684 11.518 17.768zM133.989 83.319c6.995-7.05 6.652-13.589 7.043-20.179-1.613 6.216-1.897 12.685-9.464 17.768z"/>
        </g>
    </g>
</svg>
