<svg xmlns="http://www.w3.org/2000/svg" xmlns:xlink="http://www.w3.org/1999/xlink" viewBox="0 0 256 256">
    <defs>
        <linearGradient id="linearGradient4353" x1="154.449" x2="68.529" y1="162.793" y2="162.734" gradientTransform="matrix(.0152 .89877 -1.2137 .00727 323.83 37.242)" gradientUnits="userSpaceOnUse" xlink:href="#elementalFire3"/>
        <linearGradient id="elementalFire3">
            <stop offset="0" stop-color="#d85c0a"/>
            <stop offset="1" stop-color="#f4900c"/>
        </linearGradient>
    </defs>
    <g>
        <path fill="url(#linearGradient4353)" fill-rule="evenodd" d="M110.628 71.185c-50.165 32.172-42.197 108.912 17.554 108.51 61.428-.414 65.14-82.827 16.328-106.931 8.166 15.49 12.053 32.963-.031 43.668-4.691 4.155 1.015-21.976-12.3-21.428 8.231 12.224-14.256 26.167-10.803 8.524-6.837 2.231-6.998 16.457-11.337 11.53-6.03-6.85-11.546-27.128.589-43.873z"/>
        <path fill="none" stroke="#fbffb3" stroke-width="2.514" d="M136.02 175.646c-.02-2.039-.716-2.088-.716-2.088-1.316-3.553-2.206-9.158-3.12-12.08-1.473-3.22-2.267-6.299-2.648-9.793M123.498 150.728l-.056 10.004c-.367 2.885-.591 9.39-.705 11.674-.205 1.8-.557.504-.66 2.716"/>
        <path fill="none" stroke="#fbffb3" stroke-width="2.091" d="M124.094 136.176c-2.886.066-3.72 3.712-3.591 4.49.15.917 3.007 3.135 3.042 5.726M130.049 136.08c3.69.045 4.726 3.373 4.68 4.756-.024.725-4.347 2.135-4.982 5.965"/>
        <g fill="#fbffb3" stroke="#fbffb3" transform="matrix(.34618 0 0 .35078 82.33 100.23)">
            <path fill-rule="evenodd" stroke-width="3.608" d="M115.462 148.482l24.584-1.246c-1.17-8.243-.285-15.855-5.083-24.936-3.602-6.819 7.163-7.261 4.725-21.506-.339-1.98-18.295-1.398-19.142.232-7.482 14.4 8.92 15.195 1.735 21.363-5.024 4.314-8.075 15.927-6.819 26.093z"/>
            <ellipse cx="131.009" cy="83.903" stroke-linecap="round" stroke-linejoin="round" stroke-width="3.608" rx="7.206" ry="8.121" transform="rotate(1.158)"/>
            <path fill-rule="evenodd" stroke-width="3.608" d="M134.945 113.701c-23-17.732-41.612-30.086-46.25-54.488-25.442 6.497-40.937 20.01-50.364 37.8l26.686-3.398 13.85 12.448 26.921-2.551z"/>
            <path fill-rule="evenodd" stroke-width="3.608" d="M128.202 109.717c23.698-16.789 42.794-28.38 48.415-52.575 25.158 7.52 40.094 21.647 48.794 39.804l-26.526-4.473-14.341 11.877-26.797-3.636z"/>
            <path fill-rule="evenodd" d="M121.517 101.019c1.303-4.837-.66-8.596-.723-13.638l16.934-.937c-.193 4.982-.78 11.265-.184 14.558zM124.112 83.587c-8.513-7.05-8.095-13.589-8.571-20.179 1.964 6.216 2.308 12.684 11.518 17.768zM133.989 83.319c6.995-7.05 6.652-13.589 7.043-20.179-1.613 6.216-1.897 12.685-9.464 17.768z"/>
        </g>
    </g>
</svg>
