<svg xmlns="http://www.w3.org/2000/svg" xmlns:xlink="http://www.w3.org/1999/xlink" viewBox="0 0 256 256">
    <defs>
        <linearGradient id="linearGradient861">
            <stop offset="0" stop-color="#c8540a"/>
            <stop offset="1" stop-color="#e5880b"/>
        </linearGradient>
        <linearGradient id="linearGradient4353" x1="154.449" x2="68.529" y1="162.793" y2="162.734" gradientTransform="matrix(.0152 .89877 -1.2137 .00727 323.115 53.313)" gradientUnits="userSpaceOnUse" xlink:href="#elementalFire3"/>
        <linearGradient id="elementalFire3">
            <stop offset="0" stop-color="#d85c0a"/>
            <stop offset="1" stop-color="#f4900c"/>
        </linearGradient>
        <linearGradient id="linearGradient855" x1="154.449" x2="68.529" y1="162.793" y2="162.734" gradientTransform="matrix(.01899 1.12347 -1.51712 .0091 372.83 18.764)" gradientUnits="userSpaceOnUse" xlink:href="#linearGradient861"/>
    </defs>
    <g>
        <path fill="url(#linearGradient855)" fill-rule="evenodd" d="M106.327 61.192c-62.706 40.216-52.746 136.14 21.943 135.637 76.785-.517 81.425-103.533 20.41-133.663 10.207 19.363 15.066 41.205-.04 54.585-5.863 5.195 1.27-27.47-15.374-26.784 10.29 15.279-17.82 32.708-13.503 10.655-8.547 2.788-8.748 20.57-14.172 14.41-7.537-8.56-14.433-33.909.736-54.84z"/>
        <path fill="url(#linearGradient4353)" fill-rule="evenodd" d="M109.913 87.256c-50.164 32.173-42.196 108.912 17.555 108.51 61.427-.414 65.14-82.827 16.328-106.931 8.165 15.49 12.053 32.964-.032 43.669-4.69 4.155 1.015-21.977-12.3-21.428 8.232 12.223-14.256 26.166-10.802 8.524-6.838 2.23-6.999 16.456-11.337 11.529-6.03-6.85-11.547-27.128.588-43.873z"/>
        <path fill="none" stroke="#fbffb3" stroke-width="2.514" d="M135.306 191.718c-.02-2.04-.716-2.089-.716-2.089-1.316-3.553-2.207-9.157-3.12-12.079-1.473-3.22-2.268-6.3-2.648-9.793M122.784 166.8l-.056 10.003c-.367 2.886-.591 9.39-.705 11.675-.205 1.8-.557.503-.66 2.715"/>
        <path fill="none" stroke="#fbffb3" stroke-width="2.091" d="M123.38 152.247c-2.886.067-3.72 3.712-3.592 4.491.152.916 3.007 3.134 3.043 5.725M129.335 152.152c3.69.044 4.726 3.373 4.68 4.755-.024.725-4.347 2.136-4.983 5.965"/>
        <g fill="#fbffb3" stroke="#fbffb3" transform="matrix(.34618 0 0 .35078 81.615 116.302)">
            <path fill-rule="evenodd" stroke-width="3.608" d="M115.462 148.482l24.584-1.246c-1.17-8.243-.285-15.855-5.083-24.936-3.602-6.819 7.163-7.261 4.725-21.506-.339-1.98-18.295-1.398-19.142.232-7.482 14.4 8.92 15.195 1.735 21.363-5.024 4.314-8.075 15.927-6.819 26.093z"/>
            <ellipse cx="131.009" cy="83.903" stroke-linecap="round" stroke-linejoin="round" stroke-width="3.608" rx="7.206" ry="8.121" transform="rotate(1.158)"/>
            <path fill-rule="evenodd" stroke-width="3.608" d="M134.945 113.701c-23-17.732-41.612-30.086-46.25-54.488-25.442 6.497-40.937 20.01-50.364 37.8l26.686-3.398 13.85 12.448 26.921-2.551z"/>
            <path fill-rule="evenodd" stroke-width="3.608" d="M128.202 109.717c23.698-16.789 42.794-28.38 48.415-52.575 25.158 7.52 40.094 21.647 48.794 39.804l-26.526-4.473-14.341 11.877-26.797-3.636z"/>
            <path fill-rule="evenodd" d="M121.517 101.019c1.303-4.837-.66-8.596-.723-13.638l16.934-.937c-.193 4.982-.78 11.265-.184 14.558zM124.112 83.587c-8.513-7.05-8.095-13.589-8.571-20.179 1.964 6.216 2.308 12.684 11.518 17.768zM133.989 83.319c6.995-7.05 6.652-13.589 7.043-20.179-1.613 6.216-1.897 12.685-9.464 17.768z"/>
        </g>
    </g>
</svg>
