<svg version="1.1" viewBox="0 0 64 64" xmlns="http://www.w3.org/2000/svg" xmlns:xlink="http://www.w3.org/1999/xlink">
 <defs>
  <linearGradient id="linearGradient1026">
   <stop stop-color="#872727" offset="0"/>
   <stop stop-color="#b33" offset=".38636"/>
   <stop stop-color="#932b2b" offset=".68939"/>
   <stop stop-color="#cd3b3b" offset="1"/>
  </linearGradient>
  <linearGradient id="linearGradient981" x1="5.9661" x2="18.644" y1="41.492" y2="41.424" gradientTransform="translate(20.61 -.81356)" gradientUnits="userSpaceOnUse">
   <stop stop-color="#41131a" offset="0"/>
   <stop stop-color="#321414" offset=".23151"/>
   <stop stop-color="#5a1a24" offset=".62359"/>
   <stop stop-color="#572326" offset=".84024"/>
   <stop stop-color="#431f24" offset="1"/>
  </linearGradient>
  <linearGradient id="linearGradient1028" x1="9.3559" x2="13.966" y1="9.4237" y2="9.4237" gradientTransform="translate(20.61 -.81356)" gradientUnits="userSpaceOnUse" xlink:href="#linearGradient1026"/>
  <linearGradient id="linearGradient1040" x1="9.492" x2="13.759" y1="2.9012" y2="2.9971" gradientTransform="translate(20.61 -.81356)" gradientUnits="userSpaceOnUse" xlink:href="#linearGradient1026"/>
  <linearGradient id="linearGradient1048" x1="9.8755" x2="13.375" y1="13.664" y2="13.616" gradientTransform="translate(20.61 -.81356)" gradientUnits="userSpaceOnUse">
   <stop stop-color="#9f4729" offset="0"/>
   <stop stop-color="#ce633f" offset=".38636"/>
   <stop stop-color="#a94b2b" offset=".68939"/>
   <stop stop-color="#cd603b" offset="1"/>
  </linearGradient>
 </defs>
 <path d="m29.311 3.2382v-1.5358c0.95384-0.32851 4.1104-0.44164 5.6089 0.071909l0.07191 1.5597z" fill="url(#linearGradient1040)" stroke="#000" stroke-linecap="round" stroke-linejoin="round" stroke-width=".4"/>
 <text transform="translate(5.218 3.442)" x="-16.558" y="22.879" font-family="sans-serif" font-size="40" font-weight="400" letter-spacing="0" word-spacing="0" style="line-height:1.25"/>
 <text transform="translate(5.218 3.442)" x="1.925" y="-12.924" font-family="sans-serif" font-size="40" font-weight="400" letter-spacing="0" word-spacing="0" style="line-height:1.25"/>
 <g>
  <path d="m34.876 2.6893c-0.8119-0.36964-4.6632-0.33134-5.446-0.07087-0.19842 0.066026-0.39131 0.1186-0.38758 0.36825l0.02211 1.4783c0.0033 0.21774 0.25677 0.1578 0.2541 0.27813l-0.22965 10.352c-0.02228 1.0046-0.68979 1.935-1.1313 2.481-1.2112 1.498-3.5134 4.2315-3.4988 7.5377l0.15039 34.087c0.0058 1.3171 0.13396 1.7803 0.93774 2.3238 1.4632 0.98926 11.436 0.97602 13.031 0.15831 0.64961-0.33291 1.2967-0.80457 1.2958-2.0042l-0.02723-34.658c-0.0021-2.6536-1.4237-5.0127-3.5856-7.5898-0.32428-0.38654-0.98356-1.2768-0.99709-2.1419l-0.16323-10.437c-0.0032-0.20673 0.17273-0.19635 0.16706-0.33357l-0.06461-1.5648c-0.0065-0.15825-0.09891-0.1603-0.32759-0.26441z" fill="url(#linearGradient981)" fill-rule="evenodd"/>
  <path d="m25.356 26.393-0.04794 17.282c3.0807 0.62962 12.428 0.58118 13.663-0.04794l-0.071909-17.282c-1.531 0.31986-11.326 0.28946-13.543 0.04794z" fill="#faf7ee" stroke="#000" stroke-linecap="round" stroke-linejoin="round" stroke-width=".25"/>
  <g stroke="#231f20" stroke-miterlimit="10" stroke-width=".12467">
   <path d="m31.673 34.142-0.35497-0.38329c-0.29977 0.3304-0.4619 0.67655-0.52896 1.0202-0.53098 0.66516-1.4055 0.80517-1.8933 0.60082l0.12231 0.22432c0.60693 0.16828 1.5196-0.14382 1.7332-0.43226v-1.12e-4c6.1e-5 1.2967 1.164 2.4552 1.164 2.4552l0.54225-0.31553c0-1.12e-4 -1.92-1.8793-0.78462-3.1694z" fill="#7e3b0c" stroke-linejoin="round"/>
   <path d="m28.989 34.257c-0.57947-0.22236-1.3502 0.05722-1.3502 0.05722-6e-5 0 0.20173 0.07948 0.24289 0.35698 0.05584 0.37645 0.31809 0.4635 0.31809 0.4635-0.39717 0.10937-0.66306 0.42272-0.8763 0.63571-0.1304 0.13031-0.29763 0.21557-0.29763 0.21563 0 0 0.1763 0.0035 0.32387 0.05833 0.30347 0.11281 0.75376 0.31727 1.1796 0.27694 0 0-0.24977 0.2421-0.21289 0.55617 0.03176 0.27043-0.0656 0.45812-0.0656 0.45812s0.74803 0.02323 1.2172-0.3811c0.19538 0.2237 0.43607 0.3442 0.43607 0.3442s0.59728-1.2116-0.33451-1.7513c0.47318-0.90177-0.29873-1.7482-0.29873-1.7482s-0.17948 0.19274-0.28191 0.45784z" fill="#c6e9af" stroke-linejoin="round"/>
   <ellipse cx="33.093" cy="36.969" rx="1.185" ry="1.1499" fill="#9831b1"/>
   <ellipse cx="31.004" cy="37.662" rx="1.185" ry="1.1499" fill="#672178"/>
   <ellipse cx="30.381" cy="39.269" rx="1.185" ry="1.1499" fill="#822998"/>
  </g>
 </g>
 <g stroke-miterlimit="10" stroke-width=".12467">
  <path d="m30.168 38.284s-0.31486 0-0.57804 0.32955c-0.26323 0.32955-0.27456 0.68014-0.27456 0.68014s0.09745-0.34279 0.34266-0.63106c0.2163-0.25428 0.50994-0.37864 0.50994-0.37864z" fill="#fff"/>
  <ellipse cx="34.84" cy="37.662" rx="1.185" ry="1.1499" fill="#672178" stroke="#231f20"/>
  <path d="m34.654 36.75s-0.31485 0-0.57804 0.32955c-0.26329 0.32955-0.27456 0.68014-0.27456 0.68014s0.09745-0.34279 0.34266-0.63106c0.2163-0.25428 0.50994-0.37864 0.50994-0.37864z" fill="#fff"/>
  <ellipse cx="34.654" cy="39.04" rx="1.185" ry="1.1499" fill="#822998" stroke="#231f20"/>
  <ellipse cx="33.267" cy="37.999" rx="1.185" ry="1.1499" fill="#822998" stroke="#231f20"/>
  <path d="m33.012 37.052s-0.31486 0-0.57803 0.32955c-0.26329 0.32955-0.27456 0.68014-0.27456 0.68014s0.09745-0.34279 0.34266-0.63106c0.2163-0.25427 0.50994-0.37863 0.50994-0.37863z" fill="#fff"/>
 </g>
 <g stroke="#231f20" stroke-miterlimit="10" stroke-width=".12467">
  <ellipse cx="31.285" cy="38.544" rx="1.185" ry="1.1499" fill="#672178"/>
  <ellipse cx="34.163" cy="40.515" rx="1.185" ry="1.1499" fill="#9831b1"/>
  <ellipse cx="33.589" cy="41.833" rx="1.185" ry="1.1499" fill="#822998"/>
  <ellipse cx="31.285" cy="40.05" rx="1.185" ry="1.1499" fill="#9831b1"/>
  <ellipse cx="32.47" cy="41.104" rx="1.185" ry="1.1499" fill="#672178"/>
 </g>
 <path d="m32.257 40.148s-0.31486 0-0.57803 0.32955c-0.26324 0.32955-0.27456 0.68014-0.27456 0.68014s0.09745-0.34279 0.34266-0.63106c0.2163-0.25427 0.50994-0.37864 0.50994-0.37864z" fill="#fff" stroke-miterlimit="10" stroke-width=".12467"/>
 <ellipse cx="32.978" cy="39.694" rx="1.185" ry="1.1499" fill="#672178" stroke="#231f20" stroke-miterlimit="10" stroke-width=".12467"/>
 <g fill="#fff">
  <g transform="matrix(.039106 0 0 .037958 26.519 33.512)" stroke-miterlimit="10" stroke-width="3.2359">
   <path d="m111.16 83.822s-8.05 0-14.781 8.682c-6.732 8.682-7.021 17.918-7.021 17.918s2.492-9.03 8.763-16.625c5.531-6.699 13.039-9.975 13.039-9.975zm6.528 24.232s-8.05 0-14.78 8.682c-6.732 8.682-7.022 17.918-7.022 17.918s2.492-9.03 8.763-16.625c5.53-6.698 13.04-9.975 13.04-9.975zm0 37.58s-8.05 0-14.78 8.682c-6.732 8.682-7.022 17.918-7.022 17.918s2.492-9.03 8.763-16.625c5.53-6.698 13.04-9.975 13.04-9.975zm42.804-8.577s-8.05 0-14.78 8.682c-6.733 8.682-7.021 17.918-7.021 17.918s2.492-9.03 8.762-16.625c5.531-6.698 13.04-9.975 13.04-9.975zm3.545-70.414s-8.051 0-14.78 8.682c-6.734 8.681-7.022 17.918-7.022 17.918s2.492-9.031 8.762-16.625c5.531-6.7 13.04-9.975 13.04-9.975z" stroke-miterlimit="10" stroke-width="3.2359"/>
  </g>
  <path d="m34.203 14.678c-0.01052 0.67984 0.04865 1.4964 0.55651 2.6775 0.38513 0.89573 0.95682 1.8253 1.4463 2.6254 0.36 0.58855 0.66576 1.0994 0.87292 1.4358 0.16257 0.26399 0.47446 0.68479 0.7901 1.1951 0.68805 1.1123 1.0824 2.2176 1.1139 3.117-0.03461-0.99024-0.04088-1.9594-0.53884-3.3887-0.20871-0.59908-0.45234-1.1067-0.62147-1.3813-0.23405-0.38008-0.56298-0.8289-1.0124-1.3988-0.58496-0.74176-1.27-1.5555-1.7657-2.3527-0.64047-1.03-0.85155-1.8628-0.84124-2.5293z"/>
  <path d="m38.169 45.22c0.01431 0.46396 0.43508 1.8226 0.44939 2.2866 0.03921 1.3274 7e-3 3.5168-0.0314 5.8317-0.03807 2.2973-0.07843 4.8091-0.0451 6.3563-0.03348-1.5543-0.18282-4.048-0.33488-6.3469-0.15069-2.2784-0.31021-4.5231-0.34848-5.8186-0.01371-0.46396 0.32418-1.8451 0.31048-2.309z"/>
 </g>
 <path d="m34.876 2.6893c-0.8119-0.36964-4.6632-0.33134-5.446-0.07087-0.19842 0.066026-0.39131 0.1186-0.38758 0.36825l0.02211 1.4783c0.0033 0.21774 0.25677 0.1578 0.2541 0.27813l-0.1846 8.3219c1.464-0.10272 4.3218-0.14726 6.0933-0.14339l-0.1262-8.0695c-0.0032-0.20673 0.17273-0.19635 0.16706-0.33357l-0.06461-1.5648c-0.0065-0.15825-0.09891-0.1603-0.32759-0.26441z" fill="url(#linearGradient1028)" fill-rule="evenodd"/>
 <path d="m29.179 13.621c0.77364-0.12666 5.1783-0.09109 6.1003 0.01198l-0.01198-1.4861c-1.2628-0.1187-4.5791-0.11252-6.1243 0.04794z" fill="url(#linearGradient1048)" stroke="#000" stroke-linecap="round" stroke-linejoin="round" stroke-width=".25"/>
 <g fill="none" stroke="#000">
  <path d="m34.876 2.6893c-0.8119-0.36964-4.6632-0.33134-5.446-0.07087-0.19842 0.066026-0.39131 0.1186-0.38758 0.36825l0.02211 1.4783c0.0033 0.21774 0.25677 0.1578 0.2541 0.27813l-0.22965 10.352c-0.02228 1.0046-0.68979 1.935-1.1313 2.481-1.2112 1.498-3.5134 4.2315-3.4988 7.5377l0.15039 34.087c0.0058 1.3171 0.13396 1.7803 0.93774 2.3238 1.4632 0.98926 11.436 0.97602 13.031 0.15831 0.64961-0.33291 1.2967-0.80457 1.2958-2.0042l-0.02723-34.658c-0.0021-2.6536-1.4237-5.0127-3.5856-7.5898-0.32428-0.38654-0.98356-1.2768-0.99709-2.1419l-0.16323-10.437c-0.0032-0.20673 0.17273-0.19635 0.16706-0.33357l-0.06461-1.5648c-0.0065-0.15825-0.09891-0.1603-0.32759-0.26441z" stroke-width=".4"/>
  <g stroke-linecap="round" stroke-linejoin="round">
   <path d="m29.356 4.7119c0.68803-0.28561 4.7584-0.39335 5.678 0.016949" stroke-width=".4"/>
   <g stroke-width=".34817">
    <path d="m27.26 27.23 0.77611 2.0026 0.71318-1.9403c0.03864 0.27241 0.01328 1.4354 0.41952 1.0584-0.1209 1.0776 0.92414 1.3886 0.75513-0.01037 0.29547 0.4628 0.51008-0.59434 0.75513-1.0791l-0.12586 1.9196c0.42865-0.32596 0.4373-0.28746 0.58733-0.96497l-0.04195 2.1894 0.04195-2.1894c0.65969-0.0023 1.3042 0.39336-3e-6 0.94423 0.50811-0.20772 0.9517 0.4441 1.311-0.89234v0.70557c0.18728 0.25534 0.05579 0.06717 0.56635 0.05188-0.08196-1.3072 0.89785-0.88798 0.88099-0.0415l1.1102-0.53363c-0.09314-0.63535-1.016-0.1493-0.79691 0.21324 0.19011 0.31453 0.49714 0.3006 0.99364 0.2106 0.08011-0.5064 0.46645-1.3482 1.2941-0.89669-0.68152-0.15399-0.8762 0.04694-0.91245 0.38392-0.02849 0.26488 0.95039-0.10452 0.96489 0.24903 0.01923 0.46868-0.99764 0.4552-0.99636 0.37354"/>
    <path d="m28.081 30.378 0.77127 1.8636 0.57846-1.8196c0.07028 0.26662-0.05224 0.67312 0.28181 0.74837l0.06674 0.88778c0.11111 0.07087 0.19692 0.24079 0.38564-0.01468-0.07013-0.96175 0.85188-1.0852 0.89735 0.02201l1.0531-0.71902c-0.21492-0.42297-0.99869-0.29734-0.73419 0.33016 0.12076 0.28649 0.31569 0.56647 0.79352 0.31549l0.37822-0.69702c-0.28456 1.0845 0.80873 0.55644 1.0457 0.02202 0.13689 0.62441-0.42645 1.2342-2.1655 1.8196 1.8396-0.50123 3.4263-1.1268 3.2928-1.7902-0.14935 0.27525-0.36294 0.77456-0.80094 0.41087-0.17314-0.84804 0.44607-0.37638 0.80094-0.41087l-0.0074 0.62364 0.33375-0.02935c-0.0688-0.95701 0.76825-0.45949 1.1792-0.57962-0.88385-0.06105-0.67771 0.81333 0.05933 0.58696l0.05933-1.8783"/>
    <path d="m35.178 27.468 0.01049 0.34241"/>
    <path d="m32.446 27.525 0.01049 0.13489"/>
    <path d="m29.864 30.527 0.01049 0.13489"/>
   </g>
  </g>
 </g>
</svg>
