<svg version="1.1" viewBox="0 0 64 64" xmlns="http://www.w3.org/2000/svg" xmlns:xlink="http://www.w3.org/1999/xlink">
 <defs>
  <linearGradient id="linearGradient4370" x1="102.56" x2="102.53" y1="20.532" y2="28.518" gradientTransform="matrix(1.3883 0 0 1.4543 -109.4 -14.751)" gradientUnits="userSpaceOnUse">
   <stop stop-color="#e5914d" offset="0"/>
   <stop stop-color="#deb387" offset="1"/>
  </linearGradient>
  <linearGradient id="linearGradient4426" x1="100.89" x2="100.76" y1="46.701" y2="41.903" gradientTransform="matrix(1.3194 0 0 1.3194 -101.83 -11.224)" gradientUnits="userSpaceOnUse">
   <stop stop-color="#d09355" offset="0"/>
   <stop stop-color="#deb387" offset="1"/>
  </linearGradient>
  <linearGradient id="linearGradient4434" x1="102.22" x2="102.28" y1="40.64" y2="38.746" gradientTransform="matrix(1.3194 0 0 1.3194 -101.83 -11.224)" gradientUnits="userSpaceOnUse">
   <stop stop-color="#6b442b" offset="0"/>
   <stop stop-color="#885637" offset="1"/>
  </linearGradient>
  <linearGradient id="linearGradient4442" x1="100.26" x2="100.26" y1="36.284" y2="34.516" gradientTransform="matrix(1.3194 0 0 1.3194 -101.83 -11.224)" gradientUnits="userSpaceOnUse">
   <stop stop-color="#6b442b" offset="0"/>
   <stop stop-color="#9a633f" offset="1"/>
  </linearGradient>
 </defs>
 <g fill-rule="evenodd" stroke="#000" stroke-width=".4">
  <path d="m5.0171 44.473c-0.13458 1.3049 0.45915 4.99 1.355 5.3607 8.5168 3.5215 48.809 1.2614 49.537 0.11875 1.0291-1.6229 2.3855-3.8764 2.0609-5.9505-0.06069-0.3879-0.7072-0.94206-0.7072-0.94206a5644.3 5644.3 0 0 1-51.304 0.1768c-0.35096 0.37471-0.87345 0.5779-0.94206 1.2363z" fill="url(#linearGradient4426)"/>
  <path d="m58.398 42.813-52.688 0.70852c-2.2008 0.029027-2.3591-5.0863-0.25069-5.0823l52.605 0.12534c2.4013 0.0053 1.1004 4.2379 0.33249 4.2485z" fill="url(#linearGradient4434)"/>
  <path d="m5.7507 37.149c-1.7574 0.47762-2.3129 1.2442-3.3737 3.6653-0.36284 0.83122 0.61748 1.7983 1.0001 1.1664 1.1386-1.8828 1.5886-2.5728 2.4567-3.4159 2.0926 1.3141 4.449 0.69533 7.2897 0.87476 3.4489 0.2177 5.3832 3.7748 7.7053 5.8318 2.1757-1.6532 3.222-4.3831 6.663-4.7894 9.6237-1.14 19.083-1.5252 28.614-1.6255 3.7075-0.03958 3.9582 2.3987 5.6233 3.8316 0.83122 0.71644 1.392-0.02243 1.1664-0.45783-0.91567-1.7654-0.97504-3.6204-4.7894-4.9979-17.435-0.10555-34.723-0.86685-52.354-0.083122z" fill="#f7c604"/>
  <path d="m58.361 36.817-52.136 0.70852c-2.177 0.029027-2.334-5.0889-0.24673-5.085l52.054 0.12534c2.3749 0.0053 1.0885 4.2406 0.32985 4.2511z" fill="url(#linearGradient4442)"/>
  <path d="m5.3759 31.36c-2.8684 0.63727-3.0214 3.4463-3.6653 6.2052-0.21506 0.92358 0.72567 1.7456 0.95789 1.0423 0.51193-1.5556 7.2792-5.2974 9.2886-5.2486 0 0 11.682-0.93678 17.284 0.41693 5.7394 1.3854 13.656 7.6565 15.952 7.7053 1.3168 0.02639 1.6255-6.8266 4.7894-7.7053 2.4501-0.68081 8.4323-0.2111 8.9561-0.45783 1.5094-0.71644 0.47103-1.1452-0.70852-1.2086-16.968-0.90115-33.74-1.9963-52.854-0.74942z" fill="#f7c604"/>
  <path d="m4.8759 31.4c-0.79164-1.8973 1.8894-1.6427 2.499-4.4978l50.606 1.5002c1.4091 1.3986 0.93018 2.5623 0.62408 3.7471-3.4186-0.17284-8.9403-0.48818-13.662-0.4486-3.7563 0.03035-7.4546 0.54755-10.703 0.4829-4.7551-0.095-7.1974-0.60297-12.033-0.67422-5.6497-0.08444-11.646-0.0079-17.33-0.10951z" fill="#bc1818"/>
  <path d="m8.9594 31.071 0.11875-2.2588c6.2975-0.093678 11.034-0.46179 20.996 0.087081l-0.11875 2.0556c-7.2013 0.13722-14.104 0.1293-20.997 0.11611z" fill="#707c40"/>
  <path d="m34.3 31.511 0.12139-2.2206c6.4361-0.09236 11.277-0.45388 21.459 0.08576l-0.12139 2.0226c-7.3596 0.13458-14.414 0.12666-21.459 0.11347z" fill="#707c40"/>
  <path d="m4.9788 28.284c17.189-0.073886 35.567 0.13722 54.737 0.55151 2.499-8.9152-10.648-15.259-26.734-15.93-11.809-0.49346-33.735 3.2457-28.003 15.379z" fill="url(#linearGradient4370)"/>
 </g>
 <g fill="#ffe6c3" stroke="#000" stroke-linecap="round" stroke-linejoin="round">
  <ellipse transform="matrix(.87671 .48102 -.44719 .89444 0 0)" cx="50.97" cy="-8.4672" rx="1.0225" ry=".47894" stroke-width=".28763"/>
  <ellipse transform="matrix(.7827 .6224 -.58676 .80976 0 0)" cx="48.942" cy="-10.569" rx="1.0291" ry=".47499" stroke-width=".28763"/>
  <ellipse transform="matrix(.99646 -.08412 .0767 .99705 0 0)" cx="43.233" cy="23.773" rx="1.012" ry=".4829" stroke-width=".28763"/>
  <ellipse transform="matrix(-.93737 .34834 -.32073 -.94717 0 0)" cx="-1.3224" cy="-22.706" rx="1.0173" ry=".48158" stroke-width=".28763"/>
  <ellipse transform="matrix(-.46258 .88658 -.86781 -.4969 0 0)" cx="10.974" cy="-24.483" rx="1.0489" ry=".46707" stroke-width=".28763"/>
  <ellipse transform="matrix(-.61883 .78552 -.75648 -.65401 0 0)" cx="2.4237" cy="-23.322" rx="1.041" ry=".47103" stroke-width=".28763"/>
  <ellipse transform="matrix(-.92342 .38379 -.35417 -.93518 0 0)" cx="-14.519" cy="-21.783" rx="1.0186" ry=".48026" stroke-width=".28763"/>
  <ellipse transform="matrix(-.16493 .98631 -.98358 -.1805 0 0)" cx="15.123" cy="-22.847" rx="1.0582" ry=".46179" stroke-width=".28763"/>
  <ellipse transform="matrix(.5104 .85994 -.83792 .5458 0 0)" cx="27.431" cy="-9.2068" rx="1.0463" ry=".46707" stroke-width=".28763"/>
  <ellipse transform="matrix(-.57282 .81968 -.79352 -.60855 0 0)" cx="-11.514" cy="-39.626" rx="1.0436" ry=".46971" stroke-width=".28763"/>
  <ellipse transform="matrix(.09322 .99565 -.99476 .10221 0 0)" cx="19.637" cy="-39.928" rx="1.0595" ry=".46179" stroke-width=".28763"/>
  <ellipse transform="matrix(-.87328 .48722 -.4532 -.89141 0 0)" cx="-18.454" cy="-26.047" rx="1.0225" ry=".47894" stroke-width=".28763"/>
  <ellipse transform="matrix(.26852 .96327 -.95626 .29253 0 0)" cx="22.83" cy="-25.49" rx="1.0555" ry=".46311" stroke-width=".28763"/>
  <ellipse transform="matrix(-.53615 .84412 -.82037 -.57183 0 0)" cx=".93664" cy="-36.066" rx="1.045" ry=".46839" stroke-width=".28763"/>
  <ellipse transform="matrix(.67346 .73922 -.70718 .70703 0 0)" cx="39.73" cy="-10.636" rx="1.037" ry=".47235" stroke-width=".28763"/>
  <ellipse transform="matrix(-.67885 -.73427 .70197 -.7122 0 0)" cx="-53.221" cy="25.858" rx="1.037" ry=".47234" stroke-width=".28763"/>
 </g>
 <path d="m47.151 33.484c-0.49214 0.19527-1.0133 0.53964-1.5173 0.9658a14.252 14.252 0 0 0-0.55019 2.2113c-0.23222 1.3893-0.25992 2.8037 0.02639 3.8197 0.05542-1.0291 0.43013-2.3367 0.96053-3.5281 0.29159-0.65574 0.632-1.2798 0.99351-1.8023a10.918 10.918 0 0 1 0.08708-1.6664zm-21.866 5.9136a12.437 12.437 0 0 0-2.0807 0.99747c-0.95921 1.0951-1.8379 2.3697-2.0424 3.4595 0.50929-0.93018 1.6189-1.925 2.7312-2.7021 0.46179-0.64651 0.96316-1.2548 1.392-1.7548zm-16.077-6.5799c-0.82463 0.17812-1.7337 0.4895-2.6256 0.84838-0.50137 0.34832-0.98955 0.71248-1.4395 1.0687-0.5779 0.45651-1.0977 0.90247-1.512 1.293-0.41297 0.3879-0.72567 0.72567-0.87872 0.95393 0.2177-0.14513 0.61484-0.40638 1.078-0.69928 0.47499-0.2995 1.0489-0.65179 1.6756-1.0107 0.49082-0.28103 1.0107-0.56602 1.5384-0.83254a21.506 21.506 0 0 1 2.1638-1.6229z" fill="#fff8e0" fill-rule="evenodd" stroke-width=".4"/>
 <path d="m57.438 29.569a1.012 1.012 0 0 1-0.05014 0.84706c0.05014 0.06201 0.095 0.13194 0.13458 0.2111 0.14909 0.29027 0.20847 0.63991 0.24937 0.89852 0.19527-0.16493 0.42221-0.51457 0.52116-0.94601 0.02771-0.11875 0.04618-0.24805 0.05146-0.38263a1.6664 1.6664 0 0 0-0.90643-0.62804zm-49.689-0.66762c-0.27312 0.07125-0.77581 0.32589-1.2693 0.59769l-0.015833 0.01847a11.401 11.401 0 0 0-0.50401 0.64915c-0.1425 0.20187-0.25465 0.39054-0.29291 0.52644-0.33645 0.19395 0.75602-0.43276 0.50929-0.29027 0.20847-0.12007 0.45256-0.25992 0.69797-0.39582l0.019791-0.01056c0.35096-0.43276 0.70852-0.84837 0.85497-1.0951zm23.991 0.20847c0.24541 0.18472 0.39978 0.54228 0.45915 0.84442 0.1227 0.07257 0.24541 0.16624 0.3536 0.2718 0.16361 0.15965 0.29555 0.34832 0.35756 0.53304a0.61088 0.61088 0 0 1-0.08708 0.60033 0.82595 0.82595 0 0 0 0.48026-0.59769 1.7443 1.7443 0 0 0-0.06597-0.9183 2.6388 2.6388 0 0 0-0.27708-0.59637c-0.43276-0.2111-0.90511-0.29027-1.2205-0.13722z" fill="#ffe7e7" fill-rule="evenodd" stroke-width=".4"/>
</svg>
