<!-- Generator: Adobe Illustrator 16.0.0, SVG Export Plug-In . SVG Version: 6.00 Build 0)  -->
<svg enable-background="new 0 0 256 256" version="1.1" viewBox="0 0 256 256" xml:space="preserve" xmlns="http://www.w3.org/2000/svg"><defs><radialGradient id="radialGradient2923" cx="-182.67" cy="100.05" r="22.654" gradientTransform="matrix(-6.5255 2.1324 -2.3786 -7.2794 -740.39 1175.2)" gradientUnits="userSpaceOnUse"><stop stop-color="#4d4d4d" offset="0"/><stop stop-color="#1a1a1a" offset="1"/></radialGradient><radialGradient id="radialGradient2925" cx="-182.13" cy="53.17" r="53.824" gradientTransform="matrix(-2.7467 .89731 -1.0012 -3.0639 -233.42 383.66)" gradientUnits="userSpaceOnUse"><stop stop-color="#4d4d4d" offset="0"/><stop stop-color="#1a1a1a" offset="1"/></radialGradient></defs>
<g><g><g stroke-width="0"><path d="m194.69 33.709c-0.92021 0.15072-0.0887 1.2779 0.0441 1.7621 8.1328 27.818-10.75 66.959-24.877 90.659-1.5418 2.2263-3.3666 4.2487-4.898 6.4765 0.16292 0.95126 1.0837 1.5946 1.3887 2.5266 1.1802 2.0892 1.1076 4.644 0.64982 6.8899-0.47747 1.7892 0.33667 3.6362 0.48533 5.4238 0.42675 2.8839 1.1654 5.7652 1.3443 8.6569-0.40632 0.29307-0.26044 1.0129-0.99254 0.70518-1.006 0.1332-0.14446 1.6019-0.28162 2.2966 2.2162 21.447 2.3873 46.646 1.018 68.167-0.1415 0.65959 1.0365-2.6801 1.1299-3.3777 11.437-40.202 38.704-75.962 49.734-112.13 3.7125-14.107 5.7578-28.394 2.6914-41.685-2.8091-13.114-10.144-25.631-21.481-33.098-1.9208-1.1576-3.8087-2.4732-5.9043-3.2766z" fill="url(#radialGradient2923)"/><path d="m27.82 84.377c-0.9514 6.9039-0.23466 14.88 1.8292 21.523 4.0978 13.579 13.309 24.941 23.635 34.373 39.566 31.127 77.989 59.07 112.67 88.413 0.77058 0.39503 0.66681-0.82691 0.64938-1.26-0.66528-23.211-2.1-46.411-4.6091-69.498-0.55084-4.7702-1.1375-9.5523-1.871-14.289-2.7149-3.2179-2.7475-6.1516-1.6371-9.7676-1.1852-1.5786-2.9697-2.6404-4.4552-3.931-22.074-17.304-46.901-31.643-74.045-39.214-6.7781-1.7863-50.514-11.3-52.169-6.3485z" fill="url(#radialGradient2925)"/><path d="m175.94 29.561c-10.62 0.13818-21.251 4.5203-28.466 12.396-3.2488 3.382-5.7729 7.4011-7.6073 11.707-0.42949 1.1023-1.0375 2.2102-1.1349 3.3878 31.24 102.78 37.341 29.817-6.3369-4.3547-17.115-11.148-30.927-15.467-49.309-14.835-19.411 1.9401-38.074 11.953-47.831 27.228-2.7655 4.4458-4.9247 9.2841-6.272 14.347 39.19 4.454 78.673 13.731 107 32.305 8.9773 6.0081 17.411 12.817 25.229 20.271 0.32573 0.41131 0.95603 0.4811 1.1821-0.0744 6.607-8.9917 12.376-18.611 17.02-28.762 7.4154-16.141 12.263-33.487 14.08-51.163 0.4882-5.3755 0.4547-11.118-2.2044-15.979-0.96423-1.7486-2.1252-3.4273-3.5342-4.8422-3.9346-1.3013-7.9787-1.6825-11.813-1.6321z" fill="#f55"/><path d="m166.19 157.08c-1.0388 0.10734-2.088 0.2154-3.1062 0.44542-0.38394 0.36574-0.059 0.97937-0.10631 1.445 1.9167 19.145 3.3371 38.349 4.0794 57.578 0.0958 1.907 0.0753 3.8278 0.24466 5.7266 0.12648 0.44996 0.76135 0.2744 0.77232-0.15206 0.26044-2.4639 0.27529-4.9525 0.40567-7.4272 0.36697-8.3235 0.34231-16.659 0.22417-24.987-0.28353-10.823-0.96913-21.639-2.1733-32.399-0.076-0.1393-0.16925-0.24991-0.34027-0.22947z" fill="#e6e6e6"/><path d="m164.86 139.24c-0.80903 1.6656 0.29017 4.7317 0.47964 6.4738-1.762 1.0613-2.4178 1.0077-3.258-0.0469-0.22929-1.8463-0.42864-3.7031-0.79602-5.5272-0.10385-0.40895-0.75373-0.34229-0.74604 0.0898 0.70544 5.3656 1.4041 10.737 2.1417 16.099 0.06 0.38923 0.50312 0.42002 0.80946 0.32408 1.4614-0.1976 2.9244-0.38779 4.3812-0.61651 0.43077-0.21815 0.0974-0.74693 0.0984-1.1062-0.86246-4.9669-1.6907-9.9405-2.6256-14.894-0.0864-0.28111-0.0772-0.79881-0.48487-0.79558zm0.9611 12.313c0.87284 0.93393 0.96272 2.0942 0.47427 3.4464-0.33564 0.37762-1.1307 0.44848-1.6712 0.58428-0.95463-0.81441-1.2189-2.661-0.52016-3.8102 0.54138-0.19757 1.1908-0.18429 1.7171-0.22042z" fill="#e6e6e6"/><path d="m164.37 152.64c0.0145 0.64411 0.0969 1.3022 0.20401 1.9335 0.87491 0.33513 1.1763-0.17344 1.4345-0.71103-0.10617-0.49055-0.0449-1.0181-0.24802-1.4791-0.53464-0.2083-1.1669 0.18814-1.3905 0.25667z" fill="#999"/><path d="m164.04 143.71c-0.4077 0.10993-0.84921 0.21573-1.1989 0.45409-0.23135 0.43294-0.0296 0.95985-0.0235 1.4268 0.61919 0.73874 1.305 0.088 1.7249-0.1269-0.0471-0.52773-0.0882-1.064-0.21094-1.5794-0.0834-0.0865-0.15461-0.19336-0.29158-0.17462z" fill="#999"/><path d="m161.54 136.64c0.31819 2.3564 0.6343 4.4805 1.0951 6.5365 0.93789 0.14022 1.237-0.40467 1.4905-0.91514-0.33694-2.0005-0.63749-4.0072-0.99101-6.0053-0.57391-0.48341-1.2804 0.20975-1.5945 0.38387z" fill="#ccc"/><path d="m163.81 133.22c-1.3969 0.22775-2.804 0.45712-4.1841 0.74592-0.45088 0.38397-0.62427 1.0143-0.84225 1.5558-0.71454 2.1881-0.26614 3.9516 0.87854 5.8747 0.35786-0.26551 0.1075-1.1309 0.0486-1.6289 0.71514-0.36348 0.89008-0.79829 1.3601-0.95782-0.0714-0.79297-0.25108-1.5814-0.34484-2.3754 0.32198 0.0268 0.67183-0.2446 0.52412-0.58829 0.37294-0.42133 1.2103-0.50268 1.7899-0.65664 0.0251 0.31684 0.23544 0.66717 0.59904 0.52929 0.43803 0.61837 0.513 1.8964 0.67799 2.6766 0.63781-0.0163 1.5098 0.92508 2.05 1.1383 0.59142-2.1834-1.642-5.5779-2.5571-6.3136z" fill="#ccc"/><path d="m28.706 80.591c-0.23536 0.67066-0.35528 1.409-0.4687 2.1142 0.19837 0.57415 0.98338 0.27126 1.4318 0.35602 14.754 0.28726 29.528 1.8268 43.915 5.1886 27.075 6.334 52.12 19.588 74.38 36.043 3.7801 2.7816 7.4649 5.6924 11.11 8.6378 0.38399 0.33059 1.1374 0.32512 1.4003-0.1322 0.0447-0.60478-0.66702-0.92013-0.99659-1.336-17.472-16.485-38.199-29.465-60.565-38.202-20.102-7.8605-41.586-12.192-63.167-12.658-2.3028-0.02024-4.6217-0.10649-6.9147-0.06089l-0.08173 0.03178z" fill="#e6e6e6"/><path d="m190.14 31.815c-0.53174 0.07328-0.28416 0.69895-8e-3 0.92748 1.9464 2.6004 3.3279 5.6239 3.8964 8.7958 0.63472 2.8454 0.48404 5.7774 0.40192 8.6579-0.33286 4.7533-1.0708 9.4788-1.9118 14.171-3.8965 21.3-12.088 41.808-23.885 59.97-1.4481 2.2721-3.047 4.4438-4.548 6.6787-0.22975 0.40047 0.37669 0.72557 0.62984 0.37057 1.9632-2.2298 3.7086-4.6462 5.4375-7.0602 6.3686-9.027 11.156-19.059 15.14-29.334 3.0603-7.8556 5.732-15.856 8.3047-23.883 2.2264-7.243 3.9524-14.811 3.4219-22.436-0.4102-5.5278-1.8672-11.001-4.4459-15.918-0.67403-0.42861-1.4952-0.64013-2.2507-0.91977-0.0598-0.01446-0.12157-0.02453-0.18323-0.02157z" fill="#e6e6e6"/></g><g fill="#fff"><path d="m212.84 129.81c7.6967-18.115 8.6068-22.049 9.3969-28.679 3.264-27.389 0.0687-31.773-1.8565-37.747-7.1473-22.181-25.695-29.673-25.695-29.673s13.008 9.4707 18.18 17.37c3.1406 4.7972 8.5062 17.765 9.4411 30.21 1.0105 13.452-9.4664 48.52-9.4664 48.52z" fill-opacity=".58824" style="paint-order:normal"/><path d="m211.12 53.372c-2.9176-2.8446-10.229 5.8467-13.953 11.21-2.808 4.0442-0.93121 12.365-1.3143 17.957-0.48722 7.1117-2.2981 16.542-1.217 20.153 0.99197 3.3128 3.6478 6.4133 6.1893 6.2115 7.7241-0.61314 16.224-16.525 17.803-22.868 2.753-11.062-0.60936-25.937-7.508-32.664z" fill-opacity=".098039" style="paint-order:normal"/><path d="m211.68 54.17c-2.7738-0.90382-6.7024 1.7365-7.8636 5.4898-0.71294 2.3044 7.6094 16.872 12.428 17.683 0.49359 0.08329 2.7228-1.8114 2.8562-2.788 0.85726-6.2764-6.2344-19.998-7.421-20.384z" fill-opacity=".19608" style="paint-order:normal"/><path d="m211.09 53.47c-2.1587-0.70339-5.8994 2.9184-5.8373 4.4289 0.0801 1.9487 4.7703 10.617 8.5208 11.247 0.38417 0.06483 2.119-1.4097 2.2229-2.1698 0.66715-4.8846-3.983-13.206-4.9064-13.507z" style="paint-order:normal"/><path d="m60.251 146 65.326 48.779s-20.27-15.798-36.442-28.677c-15.812-12.592-28.884-20.102-28.884-20.102z" fill-opacity=".58824" style="paint-order:normal"/><path d="m55.659 129.25c0.77966-2.1379 9.6776-1.0324 14.621-0.0865 3.7273 0.71309 6.0754 4.7402 8.7963 6.8965 3.4605 2.7424 8.8592 5.9895 9.6924 7.826 0.76458 1.6851 0.27929 3.84-1.5762 4.6076-5.639 2.3327-18.533-1.325-22.415-3.3883-6.7697-3.5984-10.962-10.8-9.1188-15.855z" fill-opacity=".098039" style="paint-order:normal"/><path d="m55.617 129.77c1.5316-1.2969 5.4218-1.5322 7.8766-0.38712 1.5072 0.70299 2.1162 9.4376-0.87819 11.38-0.30657 0.19908-2.688 0.1706-3.2095-0.18375-3.3511-2.2775-4.4442-10.255-3.7889-10.81z" fill-opacity=".19608" style="paint-order:normal"/><path d="m55.722 129.29c1.192-1.0093 5.3823-0.78077 6.0022-0.14287 0.79971 0.82288 1.344 5.9326-0.98644 7.4447-0.23861 0.15496-2.092 0.13278-2.4978-0.14302-2.608-1.7724-3.0279-6.727-2.518-7.1588z" style="paint-order:normal"/><path d="m188.99 156.2c-2.2737 2.8738-8.4986 13.729-11.218 21.864-1.8507 5.5355-4.4908 19.95-4.2099 28.692 1.7323-5.7664 12.613-33.419 14.157-39.262 1.1863-4.4887 1.0088-8.0901 1.271-11.294z" fill-opacity=".19608" style="paint-order:normal"/><path d="m188.71 156.66c-1.45 4.0745-2.7512 6.3143-3.7312 9.6069-1.6652 5.5941-3.2496 15.082-4.9242 20.892 1.7323-5.7663 6.1607-14.196 7.5096-19.752 0.84984-3.5009-0.17475-6.4836 1.1459-10.747z" style="paint-order:normal"/></g><g fill="none" stroke="#000" stroke-width="1px"><g><path transform="matrix(1.2933 0 0 1.2933 260.11 -34.643)" d="m-77.854 119.85c2.7629-17.136-3.0962-35.443-15.295-47.791-12.199-12.347-30.434-18.428-47.602-15.873-10.479 1.5596-20.586 6.2771-27.977 13.868-7.3907 7.5913-11.891 18.113-11.525 28.702 0.2582 7.4743 2.8696 14.752 6.7797 21.127s9.0853 11.898 14.697 16.841c6.9869 6.1549 14.67 11.458 22.244 16.875 22.582 16.151 44.351 33.438 65.198 51.775"/><path transform="matrix(1.2933 0 0 1.2933 344.43 -27.204)" d="m-159.54 65.393c2.0446-6.8836 6.6203-12.984 12.656-16.875 6.1754-3.9803 13.788-5.6075 21.08-4.7103 7.292 0.89726 14.224 4.2757 19.572 9.3124 6.0682 5.7141 10.058 13.448 11.894 21.579s1.59 16.645-0.0047 24.826c-3.8585 19.795-15.233 37.142-24.161 55.226-5.1003 10.33-9.4442 21.02-13.423 31.832-1.5919 4.3258-3.1262 8.6728-4.6022 13.04"/><path transform="matrix(1.2933 0 0 1.2933 344.43 -27.204)" d="m-244.68 83.034c7.9502-0.14358 15.912 0.3701 23.778 1.5341 29.837 4.4152 58.174 18.448 79.771 39.502"/><path transform="matrix(1.2933 0 0 1.2933 344.43 -27.204)" d="m-121.19 44.683c1.9663 1.889 3.4347 4.2918 4.2187 6.9033 1.1114 3.7022 0.84099 7.6672 0.38352 11.505-2.6236 22.012-11.187 43.288-24.545 60.979"/><path transform="matrix(1.2933 0 0 1.2933 344.68 -25.716)" d="m-142.76 127.71 1.8217 13.711"/><path transform="matrix(1.2933 0 0 1.2933 344.68 -25.716)" d="m-140.94 141.42 4.7939-0.67115"/><path transform="matrix(1.2933 0 0 1.2933 344.68 -25.716)" d="m-138.54 127.04 2.397 13.711"/><path transform="matrix(1.2933 0 0 1.2933 344.68 -25.716)" d="m-141.04 131.17-0.95879-6.0404"/><path transform="matrix(1.2933 0 0 1.2933 344.68 -25.716)" d="m-139.22 130.49-0.95879-5.8486"/><path transform="matrix(1.2933 0 0 1.2933 344.68 -25.716)" d="m-141.04 131.17 1.8217-0.67115"/><path transform="matrix(1.2933 0 0 1.2933 350.51 -45.183)" d="m-146.5 140.18 1.8217-0.4794"/><path transform="matrix(1.2933 0 0 1.2933 350.51 -45.183)" d="m-145.54 146.22 0.19176 2.0134"/><path transform="matrix(1.2933 0 0 1.2933 350.51 -45.183)" d="m-143.72 145.55 0.28764 2.3011"/><path transform="matrix(1.2933 0 0 1.2933 350.51 -45.183)" d="m-145.35 148.23 1.9176-0.38351"/><path transform="matrix(1.2933 0 0 1.2933 350.51 -45.183)" d="m-147.27 142.77h1.2464"/><path transform="matrix(1.2933 0 0 1.2933 350.51 -45.183)" d="m-143.05 142.1-1.3423 0.4794"/><path transform="matrix(1.2933 0 0 1.2933 350.88 -43.943)" d="m-148.13 137.3 3.7393-0.67115"/><path transform="matrix(1.2933 0 0 1.2933 350.88 -43.943)" d="m-148.13 137.3c-0.52423 0.76748-0.85662 1.6649-0.95878 2.5887-0.10519 0.95113 0.0342 1.9283 0.40103 2.8121 0.36687 0.88382 0.96047 1.6724 1.7083 2.2695"/><path transform="matrix(1.2933 0 0 1.2933 350.88 -43.943)" d="m-144.39 136.63c0.82945 0.79119 1.461 1.7883 1.8217 2.8764 0.50258 1.5159 0.46813 3.2039-0.0959 4.6981"/><path transform="matrix(1.2933 0 0 1.2933 350.51 -45.183)" d="m-144.3 152.55 0.28764 2.4929"/><path transform="matrix(1.2933 0 0 1.2933 350.51 -45.183)" d="m-142.57 152.35 0.28764 2.2052"/><path transform="matrix(1.2933 0 0 1.2933 350.51 -45.183)" d="m-144.01 155.04 1.7258-0.4794"/><path transform="matrix(1.2933 0 0 1.2933 350.51 -45.183)" d="m-144.3 152.55 1.7258-0.19175"/><path transform="matrix(1.2933 0 0 1.2933 344.43 -27.204)" d="m-143.15 124.36c-3.0943-2.5488-6.26-5.011-9.492-7.3827-16.124-11.832-34.067-21.459-53.405-26.558-9.3986-2.4786-19.064-3.8746-28.764-4.5063-3.3834-0.22034-6.7728-0.34825-10.163-0.38352"/><path transform="matrix(1.2933 0 0 1.2933 344.43 -27.204)" d="m-139.41 123.69c3.0582-3.6001 5.8192-7.4526 8.2456-11.505 5.8084-9.7017 9.6426-20.438 13.231-31.161 2.3003-6.8733 4.541-13.945 4.3146-21.189-0.15222-4.8701-1.4427-9.701-3.7393-13.998"/><path transform="matrix(1.2933 0 0 1.2933 344.43 -27.204)" d="m-140.75 142.58c0.41717 3.9916 0.8007 7.9868 1.1505 11.985 1.2893 14.735 2.1208 29.51 2.4929 44.296"/><path transform="matrix(1.2933 0 0 1.2933 344.43 -27.204)" d="m-137.3 142.19c0.82729 7.4543 1.3711 14.94 1.6299 22.436 0.4029 11.669 0.11459 23.361-0.86291 34.996"/></g><g transform="matrix(1.2933 0 0 1.2933 343.98 -26.997)"><path d="m-242.53 82.747 0.76703-3.6913"/><path d="m-241.76 79.056 1.582 0.04794"/><path d="m-240.18 79.103-0.52734 3.4996"/></g><g transform="matrix(1.2933 0 0 1.2933 348.35 -26.709)"><path d="m-242.53 82.747 0.76703-3.6913"/><path d="m-241.76 79.056 1.582 0.04794"/><path d="m-240.18 79.103-0.52734 3.4996"/></g><g transform="matrix(1.2933 0 0 1.2933 352.93 -26.523)"><path d="m-242.53 82.747 0.76703-3.6913"/><path d="m-241.76 79.056 1.582 0.04794"/><path d="m-240.18 79.103-0.52734 3.4996"/></g><g transform="matrix(1.2933 0 0 1.2933 357.58 -26.275)"><path d="m-242.53 82.747 0.76703-3.6913"/><path d="m-241.76 79.056 1.582 0.04794"/><path d="m-240.18 79.103-0.52734 3.4996"/></g><g transform="matrix(1.2933 0 0 1.2933 362.17 -25.841)"><path d="m-242.53 82.747 0.76703-3.6913"/><path d="m-241.76 79.056 1.582 0.04794"/><path d="m-240.18 79.103-0.52734 3.4996"/></g><g transform="matrix(1.2933 0 0 1.2933 366.96 -25.613)"><path d="m-242.53 82.747 0.76703-3.6913"/><path d="m-241.76 79.056 1.582 0.04794"/><path d="m-240.18 79.103-0.52734 3.4996"/></g><g transform="matrix(1.2933 0 0 1.2933 371.55 -24.683)"><path d="m-242.53 82.747 0.76703-3.6913"/><path d="m-241.76 79.056 1.582 0.04794"/><path d="m-240.18 79.103-0.52734 3.4996"/></g><g transform="matrix(1.2933 0 0 1.2933 376.01 -24.063)"><path d="m-242.53 82.747 0.76703-3.6913"/><path d="m-241.76 79.056 1.582 0.04794"/><path d="m-240.18 79.103-0.52734 3.4996"/></g><g transform="matrix(1.2832 .16063 -.16063 1.2832 390.71 16.194)"><path d="m-242.53 82.747 0.76703-3.6913"/><path d="m-241.76 79.056 1.582 0.04794"/><path d="m-240.18 79.103-0.52734 3.4996"/></g><g transform="matrix(1.2832 .16063 -.16063 1.2832 395.09 16.988)"><path d="m-242.53 82.747 0.76703-3.6913"/><path d="m-241.76 79.056 1.582 0.04794"/><path d="m-240.18 79.103-0.52734 3.4996"/></g><g transform="matrix(1.2832 .16063 -.16063 1.2832 399.24 18.104)"><path d="m-242.53 82.747 0.76703-3.6913"/><path d="m-241.76 79.056 1.582 0.04794"/><path d="m-240.18 79.103-0.52734 3.4996"/></g><g transform="matrix(1.2832 .16063 -.16063 1.2832 403.46 19.282)"><path d="m-242.53 82.747 0.76703-3.6913"/><path d="m-241.76 79.056 1.582 0.04794"/><path d="m-240.18 79.103-0.52734 3.4996"/></g><g transform="matrix(1.2832 .16063 -.16063 1.2832 407.49 20.522)"><path d="m-242.53 82.747 0.76703-3.6913"/><path d="m-241.76 79.056 1.582 0.04794"/><path d="m-240.18 79.103-0.52734 3.4996"/></g><g transform="matrix(1.2832 .16063 -.16063 1.2832 411.46 21.514)"><path d="m-242.53 82.747 0.76703-3.6913"/><path d="m-241.76 79.056 1.582 0.04794"/><path d="m-240.18 79.103-0.52734 3.4996"/></g><g transform="matrix(1.2832 .16063 -.16063 1.2832 415.3 22.94)"><path d="m-242.53 82.747 0.76703-3.6913"/><path d="m-241.76 79.056 1.582 0.04794"/><path d="m-240.18 79.103-0.52734 3.4996"/></g><g transform="matrix(1.2832 .16063 -.16063 1.2832 419.21 24.18)"><path d="m-242.53 82.747 0.76703-3.6913"/><path d="m-241.76 79.056 1.582 0.04794"/><path d="m-240.18 79.103-0.52734 3.4996"/></g><g transform="matrix(1.2832 .16063 -.16063 1.2832 423.11 25.791)"><path d="m-242.53 82.747 0.76703-3.6913"/><path d="m-241.76 79.056 1.582 0.04794"/><path d="m-240.18 79.103-0.52734 3.4996"/></g><g transform="matrix(1.2494 .33388 -.33388 1.2494 432.64 71.766)"><path d="m-242.53 82.747 0.76703-3.6913"/><path d="m-241.76 79.056 1.582 0.04794"/><path d="m-240.18 79.103-0.52734 3.4996"/></g><g transform="matrix(1.2494 .33388 -.33388 1.2494 436.4 73.182)"><path d="m-242.53 82.747 0.76703-3.6913"/><path d="m-241.76 79.056 1.582 0.04794"/><path d="m-240.18 79.103-0.52734 3.4996"/></g><g transform="matrix(1.2494 .33388 -.33388 1.2494 440 74.856)"><path d="m-242.53 82.747 0.76703-3.6913"/><path d="m-241.76 79.056 1.582 0.04794"/><path d="m-240.18 79.103-0.52734 3.4996"/></g><g transform="matrix(1.2494 .33388 -.33388 1.2494 443.53 76.654)"><path d="m-242.53 82.747 0.76703-3.6913"/><path d="m-241.76 79.056 1.582 0.04794"/><path d="m-240.18 79.103-0.52734 3.4996"/></g><g transform="matrix(1.2494 .33388 -.33388 1.2494 447.19 78.514)"><path d="m-242.53 82.747 0.76703-3.6913"/><path d="m-241.76 79.056 1.582 0.04794"/><path d="m-240.18 79.103-0.52734 3.4996"/></g><g transform="matrix(1.1832 .52217 -.52217 1.1832 450.18 131.11)"><path d="m-242.53 82.747 0.76703-3.6913"/><path d="m-241.76 79.056 1.582 0.04794"/><path d="m-240.18 79.103-0.52734 3.4996"/></g><g transform="matrix(1.1832 .52217 -.52217 1.1832 453.63 133.07)"><path d="m-242.53 82.747 0.76703-3.6913"/><path d="m-241.76 79.056 1.582 0.04794"/><path d="m-240.18 79.103-0.52734 3.4996"/></g><g transform="matrix(1.1832 .52217 -.52217 1.1832 457.22 135.31)"><path d="m-242.53 82.747 0.76703-3.6913"/><path d="m-241.76 79.056 1.582 0.04794"/><path d="m-240.18 79.103-0.52734 3.4996"/></g><g transform="matrix(1.1832 .52217 -.52217 1.1832 460.26 137.72)"><path d="m-242.53 82.747 0.76703-3.6913"/><path d="m-241.76 79.056 1.582 0.04794"/><path d="m-240.18 79.103-0.52734 3.4996"/></g><g transform="matrix(1.1832 .52217 -.52217 1.1832 463.55 139.83)"><path d="m-242.53 82.747 0.76703-3.6913"/><path d="m-241.76 79.056 1.582 0.04794"/><path d="m-240.18 79.103-0.52734 3.4996"/></g><g transform="matrix(1.1832 .52217 -.52217 1.1832 466.89 141.75)"><path d="m-242.53 82.747 0.76703-3.6913"/><path d="m-241.76 79.056 1.582 0.04794"/><path d="m-240.18 79.103-0.52734 3.4996"/></g><g transform="matrix(1.1832 .52217 -.52217 1.1832 470.12 144.05)"><path d="m-242.53 82.747 0.76703-3.6913"/><path d="m-241.76 79.056 1.582 0.04794"/><path d="m-240.18 79.103-0.52734 3.4996"/></g><g transform="matrix(1.0836 .70595 -.70595 1.0836 464.16 198.69)"><path d="m-242.53 82.747 0.76703-3.6913"/><path d="m-241.76 79.056 1.582 0.04794"/><path d="m-240.18 79.103-0.52734 3.4996"/></g><g transform="matrix(1.0836 .70595 -.70595 1.0836 467.34 201.07)"><path d="m-242.53 82.747 0.76703-3.6913"/><path d="m-241.76 79.056 1.582 0.04794"/><path d="m-240.18 79.103-0.52734 3.4996"/></g><g transform="matrix(1.0836 .70595 -.70595 1.0836 470.26 203.37)"><path d="m-242.53 82.747 0.76703-3.6913"/><path d="m-241.76 79.056 1.582 0.04794"/><path d="m-240.18 79.103-0.52734 3.4996"/></g><g transform="matrix(1.0836 .70595 -.70595 1.0836 473.23 206.03)"><path d="m-242.53 82.747 0.76703-3.6913"/><path d="m-241.76 79.056 1.582 0.04794"/><path d="m-240.18 79.103-0.52734 3.4996"/></g><g transform="matrix(1.0836 .70595 -.70595 1.0836 476.08 208.76)"><path d="m-242.53 82.747 0.76703-3.6913"/><path d="m-241.76 79.056 1.582 0.04794"/><path d="m-240.18 79.103-0.52734 3.4996"/></g><g transform="matrix(1.0836 .70595 -.70595 1.0836 478.63 211.55)"><path d="m-242.53 82.747 0.76703-3.6913"/><path d="m-241.76 79.056 1.582 0.04794"/><path d="m-240.18 79.103-0.52734 3.4996"/></g><g transform="matrix(-1.0836 .70595 .70595 1.0836 -154.87 209.57)"><path d="m-242.53 82.747 0.76703-3.6913"/><path d="m-241.76 79.056 1.582 0.04794"/><path d="m-240.18 79.103-0.52734 3.4996"/></g><g transform="matrix(.82057 -.99959 .99959 .82057 282.91 -183.75)"><path d="m-242.53 82.747 0.76703-3.6913"/><path d="m-241.76 79.056 1.582 0.04794"/><path d="m-240.18 79.103-0.52734 3.4996"/></g><g transform="matrix(.82057 -.99959 .99959 .82057 285.08 -187.1)"><path d="m-242.53 82.747 0.76703-3.6913"/><path d="m-241.76 79.056 1.582 0.04794"/><path d="m-240.18 79.103-0.52734 3.4996"/></g><g transform="matrix(.82057 -.99959 .99959 .82057 287.32 -190.51)"><path d="m-242.53 82.747 0.76703-3.6913"/><path d="m-241.76 79.056 1.582 0.04794"/><path d="m-240.18 79.103-0.52734 3.4996"/></g><g transform="matrix(.82057 -.99959 .99959 .82057 289.42 -194.11)"><path d="m-242.53 82.747 0.76703-3.6913"/><path d="m-241.76 79.056 1.582 0.04794"/><path d="m-240.18 79.103-0.52734 3.4996"/></g><g transform="matrix(.82057 -.99959 .99959 .82057 291.59 -197.83)"><path d="m-242.53 82.747 0.76703-3.6913"/><path d="m-241.76 79.056 1.582 0.04794"/><path d="m-240.18 79.103-0.52734 3.4996"/></g><g transform="matrix(.82057 -.99959 .99959 .82057 293.52 -201.92)"><path d="m-242.53 82.747 0.76703-3.6913"/><path d="m-241.76 79.056 1.582 0.04794"/><path d="m-240.18 79.103-0.52734 3.4996"/></g><g transform="matrix(.82057 -.99959 .99959 .82057 295.56 -205.76)"><path d="m-242.53 82.747 0.76703-3.6913"/><path d="m-241.76 79.056 1.582 0.04794"/><path d="m-240.18 79.103-0.52734 3.4996"/></g><g transform="matrix(.58537 -1.1532 1.1532 .58537 228.04 -228.02)"><path d="m-242.53 82.747 0.76703-3.6913"/><path d="m-241.76 79.056 1.582 0.04794"/><path d="m-240.18 79.103-0.52734 3.4996"/></g><g transform="matrix(.48476 -1.199 1.199 .48476 201.42 -234.58)"><path d="m-242.53 82.747 0.76703-3.6913"/><path d="m-241.76 79.056 1.582 0.04794"/><path d="m-240.18 79.103-0.52734 3.4996"/></g><g transform="matrix(.48476 -1.199 1.199 .48476 202.9 -238.31)"><path d="m-242.53 82.747 0.76703-3.6913"/><path d="m-241.76 79.056 1.582 0.04794"/><path d="m-240.18 79.103-0.52734 3.4996"/></g><g transform="matrix(.36513 -1.2406 1.2406 .36513 171.7 -242.67)"><path d="m-242.53 82.747 0.76703-3.6913"/><path d="m-241.76 79.056 1.582 0.04794"/><path d="m-240.18 79.103-0.52734 3.4996"/></g><g transform="matrix(.34917 -1.1864 1.1864 .34917 173.28 -232.17)"><path d="m-242.53 82.747 0.76703-3.6913"/><path d="m-241.76 79.056 1.582 0.04794"/><path d="m-240.18 79.103-0.52734 3.4996"/></g><g transform="matrix(.34917 -1.1864 1.1864 .34917 174.58 -235.9)"><path d="m-242.53 82.747 0.76703-3.6913"/><path d="m-241.76 79.056 1.582 0.04794"/><path d="m-240.18 79.103-0.52734 3.4996"/></g><g transform="matrix(.18116 -1.2234 1.2234 .18116 132.03 -235.29)"><path d="m-242.53 82.747 0.76703-3.6913"/><path d="m-241.76 79.056 1.582 0.04794"/><path d="m-240.18 79.103-0.52734 3.4996"/></g><g transform="matrix(.18116 -1.2234 1.2234 .18116 133.1 -239.35)"><path d="m-242.53 82.747 0.76703-3.6913"/><path d="m-241.76 79.056 1.582 0.04794"/><path d="m-240.18 79.103-0.52734 3.4996"/></g><g transform="matrix(.18116 -1.2234 1.2234 .18116 134.03 -243.13)"><path d="m-242.53 82.747 0.76703-3.6913"/><path d="m-241.76 79.056 1.582 0.04794"/><path d="m-240.18 79.103-0.52734 3.4996"/></g><g transform="matrix(-.0043115 -1.2367 1.2367 -.0043115 88.68 -235.11)"><path d="m-242.53 82.747 0.76703-3.6913"/><path d="m-241.76 79.056 1.582 0.04794"/><path d="m-240.18 79.103-0.52734 3.4996"/></g><g transform="matrix(-.0043115 -1.2367 1.2367 -.0043115 89.267 -239.03)"><path d="m-242.53 82.747 0.76703-3.6913"/><path d="m-241.76 79.056 1.582 0.04794"/><path d="m-240.18 79.103-0.52734 3.4996"/></g><g transform="matrix(-.0043115 -1.2367 1.2367 -.0043115 89.949 -243.12)"><path d="m-242.53 82.747 0.76703-3.6913"/><path d="m-241.76 79.056 1.582 0.04794"/><path d="m-240.18 79.103-0.52734 3.4996"/></g><g transform="matrix(-.0043115 -1.2367 1.2367 -.0043115 90.383 -247.03)"><path d="m-242.53 82.747 0.76703-3.6913"/><path d="m-241.76 79.056 1.582 0.04794"/><path d="m-240.18 79.103-0.52734 3.4996"/></g><g transform="matrix(-.20116 -1.2203 1.2203 -.20116 44.326 -231.2)"><path d="m-242.53 82.747 0.76703-3.6913"/><path d="m-241.76 79.056 1.582 0.04794"/><path d="m-240.18 79.103-0.52734 3.4996"/></g><g transform="matrix(-.27605 -1.2055 1.2055 -.27605 27.07 -225.51)"><path d="m-242.53 82.747 0.76703-3.6913"/><path d="m-241.76 79.056 1.582 0.04794"/><path d="m-240.18 79.103-0.52734 3.4996"/></g><g transform="matrix(-.27605 -1.2055 1.2055 -.27605 26.355 -229.11)"><path d="m-242.53 82.747 0.76703-3.6913"/><path d="m-241.76 79.056 1.582 0.04794"/><path d="m-240.18 79.103-0.52734 3.4996"/></g><g transform="matrix(-.27605 -1.2055 1.2055 -.27605 25.115 -232.71)"><path d="m-242.53 82.747 0.76703-3.6913"/><path d="m-241.76 79.056 1.582 0.04794"/><path d="m-240.18 79.103-0.52734 3.4996"/></g><g transform="matrix(-.27605 -1.2055 1.2055 -.27605 23.255 -236.18)"><path d="m-242.53 82.747 0.76703-3.6913"/><path d="m-241.76 79.056 1.582 0.04794"/><path d="m-240.18 79.103-0.52734 3.4996"/></g><g transform="matrix(-.27605 -1.2055 1.2055 -.27605 .93601 -109.21)"><path d="m-242.53 82.747 0.76703-3.6913"/><path d="m-241.76 79.056 1.582 0.04794"/><path d="m-240.18 79.103-0.52734 3.4996"/></g><g transform="matrix(-.27605 -1.2055 1.2055 -.27605 1.618 -104.87)"><path d="m-242.53 82.747 0.76703-3.6913"/><path d="m-241.76 79.056 1.582 0.04794"/><path d="m-240.18 79.103-0.52734 3.4996"/></g><g transform="matrix(-.27605 -1.2055 1.2055 -.27605 1.68 -100.53)"><path d="m-242.53 82.747 0.76703-3.6913"/><path d="m-241.76 79.056 1.582 0.04794"/><path d="m-240.18 79.103-0.52734 3.4996"/></g><g transform="matrix(-.27605 -1.2055 1.2055 -.27605 2.176 -95.942)"><path d="m-242.53 82.747 0.76703-3.6913"/><path d="m-241.76 79.056 1.582 0.04794"/><path d="m-240.18 79.103-0.52734 3.4996"/></g><g transform="matrix(-.27605 -1.2055 1.2055 -.27605 2.3 -91.478)"><path d="m-242.53 82.747 0.76703-3.6913"/><path d="m-241.76 79.056 1.582 0.04794"/><path d="m-240.18 79.103-0.52734 3.4996"/></g><g transform="matrix(-.27605 -1.2055 1.2055 -.27605 2.734 -86.952)"><path d="m-242.53 82.747 0.76703-3.6913"/><path d="m-241.76 79.056 1.582 0.04794"/><path d="m-240.18 79.103-0.52734 3.4996"/></g><g transform="matrix(-.23976 -1.0471 1.0471 -.23976 24.524 -47.609)"><path d="m-242.53 82.747 0.76703-3.6913"/><path d="m-241.76 79.056 1.582 0.04794"/><path d="m-240.18 79.103-0.52734 3.4996"/></g><g transform="matrix(-.23976 -1.0471 1.0471 -.23976 24.834 -43.784)"><path d="m-242.53 82.747 0.76703-3.6913"/><path d="m-241.76 79.056 1.582 0.04794"/><path d="m-240.18 79.103-0.52734 3.4996"/></g><g transform="matrix(-.23976 -1.0471 1.0471 -.23976 25.02 -39.878)"><path d="m-242.53 82.747 0.76703-3.6913"/><path d="m-241.76 79.056 1.582 0.04794"/><path d="m-240.18 79.103-0.52734 3.4996"/></g><g transform="matrix(-.23976 -1.0471 1.0471 -.23976 25.082 -36.034)"><path d="m-242.53 82.747 0.76703-3.6913"/><path d="m-241.76 79.056 1.582 0.04794"/><path d="m-240.18 79.103-0.52734 3.4996"/></g><g transform="matrix(-.20952 -.91501 .91501 -.20952 43.034 -3.0937)"><path d="m-242.53 82.747 0.76703-3.6913"/><path d="m-241.76 79.056 1.582 0.04794"/><path d="m-240.18 79.103-0.52734 3.4996"/></g><g transform="matrix(-.20952 -.91501 .91501 -.20952 43.22 .2591)"><path d="m-242.53 82.747 0.76703-3.6913"/><path d="m-241.76 79.056 1.582 0.04794"/><path d="m-240.18 79.103-0.52734 3.4996"/></g><g transform="matrix(-.18836 -.82258 .82258 -.18836 55.694 23.876)"><path d="m-242.53 82.747 0.76703-3.6913"/><path d="m-241.76 79.056 1.582 0.04794"/><path d="m-240.18 79.103-0.52734 3.4996"/></g><g transform="matrix(-.18533 -.80937 .80937 -.18533 57.706 29.774)"><path d="m-242.53 82.747 0.76703-3.6913"/><path d="m-241.76 79.056 1.582 0.04794"/><path d="m-240.18 79.103-0.52734 3.4996"/></g><g transform="matrix(-.18066 -.78896 .78896 -.18066 60.405 37.332)"><path d="m-242.53 82.747 0.76703-3.6913"/><path d="m-241.76 79.056 1.582 0.04794"/><path d="m-240.18 79.103-0.52734 3.4996"/></g><g transform="matrix(-.18066 -.78896 .78896 -.18066 60.394 40.364)"><path d="m-242.53 82.747 0.76703-3.6913"/><path d="m-241.76 79.056 1.582 0.04794"/><path d="m-240.18 79.103-0.52734 3.4996"/></g><g transform="matrix(-.14752 -.64422 .64422 -.14752 80.124 75.262)"><path d="m-242.53 82.747 0.76703-3.6913"/><path d="m-241.76 79.056 1.582 0.04794"/><path d="m-240.18 79.103-0.52734 3.4996"/></g></g></g></g></svg>
