<svg xmlns="http://www.w3.org/2000/svg" xmlns:xlink="http://www.w3.org/1999/xlink" viewBox="0 0 64 64">
    <defs>
        <linearGradient id="linearGradient4147">
            <stop offset="0" stop-color="#ff8080"/>
            <stop offset="1" stop-color="#f55"/>
        </linearGradient>
        <linearGradient id="linearGradient4153" x1="39.51" x2="25.279" y1="21.662" y2="22.634" gradientUnits="userSpaceOnUse" xlink:href="#linearGradient4147"/>
    </defs>
    <g>
        <path fill="url(#linearGradient4153)" fill-rule="evenodd" stroke="#000" stroke-width=".489" d="M43.588 62.382l-22.404.08c-2.003.008-2.103-4.885.035-4.907 2.027-.02 2.728-.999 2.724-2.167l-.13-41.63c-.012-3.712 2.424-4.692 4.534-5.462 2.906-1.06.71-5.955 4.002-5.973 3.801-.02 1.132 4.939 3.938 5.837 2.81.9 4.708 2.48 4.72 5.43l.183 41.899c.005 1.04.949 2.233 2.282 2.175 2.875-.123 2.244 4.71.116 4.718z"/>
        <path fill="#ffd5d5" fill-rule="evenodd" d="M34.825 9.553c2.078-.206 3.618.659 4.685 2.527.144.44.254.902.337 1.382.439 2.542.17 5.872-.16 9.172-.082-3.392-.249-6.586-1.049-8.864a7.535 7.535 0 0 0-.488-1.115c-.394-1.542-1.264-2.813-3.325-3.102z"/>
        <path fill="none" stroke="#000" stroke-width=".25" d="M21.531 57.652c4.068-.302 17.331-.09 21.887.13"/>
    </g>
</svg>
