<?xml version="1.0" encoding="UTF-8"?>
<svg version="1.1" viewBox="0 0 256 256" xmlns="http://www.w3.org/2000/svg" xmlns:cc="http://creativecommons.org/ns#" xmlns:dc="http://purl.org/dc/elements/1.1/" xmlns:rdf="http://www.w3.org/1999/02/22-rdf-syntax-ns#">
 <metadata>
  <rdf:RDF>
   <cc:Work rdf:about="">
    <dc:format>image/svg+xml</dc:format>
    <dc:type rdf:resource="http://purl.org/dc/dcmitype/StillImage"/>
    <dc:title/>
   </cc:Work>
  </rdf:RDF>
 </metadata>
 <g transform="matrix(1.1339 -.26036 .26036 1.1339 -50.113 15.223)" fill-rule="evenodd">
  <path d="m15.468 187.09 13.632 6.891 9.273 1.078 8.182 4.769 9.903 1.245 8.574 5.6 9.365 0.823 8.778 5.672 9.568 0.896 8.997 5.061 8.461 1.42 8.648 5.395 10.106 1.319 8.167 5.453 9.641 0.692 8.094 5.658 9.845 0.765 7.89 5.584 10.456 0.984 2.182 3.541c22.907-57.546 43.981-116.36 62.998-176.6l-9.276-1.711-8.998-5.061-10.237-1.596-7.76-5.308-8.883-0.88-9.666-5.76-9.292-1.028-8.647-5.395-9.772-0.97-8.094-5.657-9.903-1.245-8.036-5.177-9.568-0.896-8.37-5.526-9.715-0.489-8.224-5.934-9.86-0.08-8.544-6.969-7.065 0.46c-24.918 56.527-45.072 114.41-62.85 172.98z" fill="#ff8080" stroke="#000" stroke-width=".857"/>
  <path d="m83.48 44.014c-17.819 40.499-32.348 81.364-43.658 122.59-2.372 6.66 0.935 9.785 6.385 11.715 39.192 15.921 79.341 29.289 119.6 42.36 4.567 1.617 9.207 2.473 11.743-4.535 16.234-39.848 30.483-79.916 43.467-120.12 1.799-4.971 3.26-10.35-5.932-13.623-41.253-17.92-80.289-31.425-118.92-42.344-5-1.78-10.28-2.8-12.689 3.966z" fill="#fff" fill-opacity=".449" stroke="#000" stroke-width=".857"/>
  <path d="m95.68 155.89c2.409 2.981 4.879 5.416 7.886 7.474 4.33 3.957 10.387 7.203 20.344 10.195-10.062-2.37-16.559-5.06-21.543-8.74-2.766-2.674-4.812-5.614-6.688-8.929zm60.246-85.747c12.65 7.688 21.154 16.832 26.619 25.188 5.488 6.293 9.083 12.348 11.266 16.977-0.991-5.018-3.527-11.866-8.252-19.234-6.777-8.016-16.371-16.338-29.633-22.931z" fill="#fff"/>
 </g>
 <g fill="#ffb380" stroke="#000" stroke-width=".72727">
  <g transform="matrix(1.1283 -.78581 .78581 1.1283 144.12 214.3)">
   <path d="m-73.443-51.867-3.3948 0.17199c-1.4997 1.7274-1.5136 1.7324-3.1454 3.7167 1.7607 2.046 5.8836 6.9407 8.2094 9.6131 1.1247 0.66735 0.87431 0.56608 2.0101 1.1436 5.9135-3.3948 4.6554-14.689-3.6792-14.645zm-0.57422 2.0137c4.4049 0.15732 5.3189 8.7994 1.9623 11.156-1.6553-1.8022-2.472-3.096-4.472-5.2473l-0.12696-5.8619z"/>
   <path d="m-63.797-52.068v1.2207l2.1016 0.81445 0.13672 12-2.1016 0.8125v1.2207l7.9316-0.06836v-1.084l-2.1016-1.0176v-4.9492l1.5586 0.4082 4.4062 6.5078 5.2891 0.06836-0.06836-1.1543-2.1016-0.67774-3.8633-5.6934c4.2583-2.1698 2.9899-8.2088-1.4922-8.2715zm5.8984 2.3047h1.9668c2.7287 0 2.8153 5.2801 0 5.0859l-1.9668-0.13672z"/>
   <path d="m-38.441-52.34-5.8984 14.238-1.2871 0.60937v1.3574h5.4238v-1.2207l-2.0332-0.88086 1.2188-2.916 5.5605-0.13672 1.4902 3.2559-1.8301 0.60938v1.084l7.3906-0.06641 0.06641-1.1523-1.5586-0.47461-5.627-14.307zm0.61133 4 2.0332 5.4238h-4.2715z"/>
   <path d="m-13.492-41.763v5.0169s-14.943 3.8136-15.051-7.322c-0.11216-11.55 14.983-7.4576 14.983-7.4576l-0.0678 4.5424-1.5593 0.0678-0.67797-2.3729s-8.6905-4.1565-8.678 5.4237c0.01012 7.7634 7.2542 5.4237 7.2542 5.4237l0.13559-3.322-2.8475-1.0848 0.0678-0.94915 8.2034 0.0678 0.0678 1.0847z"/>
   <path d="m-1.8984-52.34c-3.9015 0.13446-8.2887 2.2012-8.2031 8.6797 0.07786 5.8976 4.406 8.0207 8.3379 8.0664 4.1541 0.04829 8.1164-1.878 8.2715-8.3379 0.15721-6.55-4.365-8.5475-8.4062-8.4082zm-0.052734 2.1602c2.0918-0.10334 4.4329 1.3784 4.3516 6.2383-0.080257 4.7931-2.131 6.2233-4.2812 6.1875-2.0352-0.03392-4.2761-1.6105-4.3164-5.9863-0.044272-4.8069 2.2266-6.3397 4.2461-6.4395z"/>
   <path d="m8.6102-37.153v1.2203l6.4407-0.13559v-0.94915l-1.8983-1.2203-0.0678-9.6271 8.2712 12 3.1186-0.0678-0.13559-14.034 2.1695-1.0169-0.0678-1.1525-6.5763 0.20339v1.0169l2.1017 1.1525 0.13559 8.7458-7.661-10.983-5.7627 0.13559 0.067797 1.0169 1.9661 1.0847 0.13559 11.525z"/>
  </g>
  <g transform="matrix(1.1283 -.78581 .78581 1.1283 296.23 106.15)">
   <path d="m-73.443-51.867-9.1562 0.04883v1.0547l2.0605 0.95703 0.14453 11.795-2.1562 0.91016-0.09766 0.91016h9.0605c9.8783 0 9.9397-15.727 0.14453-15.676zm-0.57422 2.0137c5.1013 0.18219 5.5207 11.744 0.04687 11.744h-2.6836v-11.697z"/>
   <path d="m-63.797-52.068v1.2207l2.1016 0.81445 0.13672 12-2.1016 0.8125v1.2207l7.9316-0.06836v-1.084l-2.1016-1.0176v-4.9492l1.5586 0.4082 4.4062 6.5078 5.2891 0.06836-0.06836-1.1543-2.1016-0.67774-3.8633-5.6934c4.2583-2.1698 2.9899-8.2088-1.4922-8.2715zm5.8984 2.3047h1.9668c2.7287 0 2.8153 5.2801 0 5.0859l-1.9668-0.13672z"/>
   <path d="m-38.441-52.34-5.8984 14.238-1.2871 0.60937v1.3574h5.4238v-1.2207l-2.0332-0.88086 1.2188-2.916 5.5605-0.13672 1.4902 3.2559-1.8301 0.60938v1.084l7.3906-0.06641 0.06641-1.1523-1.5586-0.47461-5.627-14.307zm0.61133 4 2.0332 5.4238h-4.2715z"/>
   <path d="m-19.25-36.119c-4.2217-0.07367-9.2299-1.5194-9.2923-7.9492-0.11216-11.55 14.983-7.4576 14.983-7.4576l-0.0678 4.5424-1.5593 0.0678-0.67797-2.3729s-8.6905-4.1565-8.678 5.4237c0.0082 6.31 4.7955 5.9456 6.5876 5.5881 0.45758-0.10476 0.65901-0.34432 0.68989-0.73456l0.11232-2.7518-2.8475-1.0848 0.0678-0.94915 7.1283-0.07891c-2.1487 2.5856-4.2974 5.1713-6.4461 7.7569z"/>
   <path d="m-6.5051-51.3c-1.3895 0.7811-2.5598 2.0069-3.211 3.8274 0.67361-0.67487 2.4453-2.8386 3.211-3.8274z"/>
  </g>
  <g transform="matrix(1.1283 -.78581 .78581 1.1283 169.67 86.211)">
   <path d="m-73.443-51.867-9.1562 0.04883v1.0547l2.0605 0.95703 0.14453 11.795-2.1562 0.91016-0.09766 0.91016h9.0605c9.8783 0 9.9397-15.727 0.14453-15.676zm-0.57422 2.0137c5.1013 0.18219 5.5207 11.744 0.04687 11.744h-2.6836v-11.697z"/>
   <path d="m-63.797-52.068v1.2207l2.1016 0.81445 0.13672 12-2.1016 0.8125v1.2207l7.9316-0.06836v-1.084l-2.1016-1.0176v-4.9492l1.5586 0.4082 4.4062 6.5078 5.2891 0.06836-0.06836-1.1543-2.1016-0.67774-3.8633-5.6934c4.2583-2.1698 2.9899-8.2088-1.4922-8.2715zm5.8984 2.3047h1.9668c2.7287 0 2.8153 5.2801 0 5.0859l-1.9668-0.13672z"/>
   <path d="m-38.441-52.34-5.8984 14.238-1.2871 0.60937v1.3574h5.4238v-1.2207l-2.0332-0.88086 1.2188-2.916 5.5605-0.13672 1.4902 3.2559-1.8301 0.60938v1.084l7.3906-0.06641 0.06641-1.1523-1.5586-0.47461-5.627-14.307zm0.61133 4 2.0332 5.4238h-4.2715z"/>
   <path d="m-13.492-41.763v5.0169s-14.943 3.8136-15.051-7.322c-0.11216-11.55 14.983-7.4576 14.983-7.4576l-0.0678 4.5424-1.5593 0.0678-0.67797-2.3729s-8.6905-4.1565-8.678 5.4237c0.01012 7.7634 7.2542 5.4237 7.2542 5.4237l0.13559-3.322-2.8475-1.0848 0.0678-0.94915 8.2034 0.0678 0.0678 1.0847z"/>
   <path d="m-1.8984-52.34c-3.9015 0.13446-8.2887 2.2012-8.2031 8.6797 0.07786 5.8976 4.406 8.0207 8.3379 8.0664 4.1541 0.04829 8.1164-1.878 8.2715-8.3379 0.15721-6.55-4.365-8.5475-8.4062-8.4082zm-0.052734 2.1602c2.0918-0.10334 4.4329 1.3784 4.3516 6.2383-0.080257 4.7931-2.131 6.2233-4.2812 6.1875-2.0352-0.03392-4.2761-1.6105-4.3164-5.9863-0.044272-4.8069 2.2266-6.3397 4.2461-6.4395z"/>
   <path d="m8.6102-37.153v1.2203l6.4407-0.13559v-0.94915l-1.8983-1.2203-0.06057-8.6002 0.79672 1.1972 1.441 0.8245 6.0262 8.9514 3.1186-0.0678-0.06106-1.3573c-1.2938-1.9772-1.8599-2.5803-3.0783-4.327-2.3841-1.2529-7.4334-3.9868-7.4334-3.9868s-2.6532-4.0904-4.2361-6.2535l-0.98776-0.0077 0.067797 1.0169 1.9661 1.0847 0.13559 11.525z"/>
  </g>
  <g transform="matrix(1.1283 -.78581 .78581 1.1283 277.44 249.97)">
   <path d="m-63.797-52.068v1.2207l2.1016 0.81445 0.01274 0.623c1.2175 0.60862 3.8005 2.0354 5.2442 2.7595 1.0258 1.6496 2.0847 2.8665 4.6025 6.9401 0.59824 0.40643 2.6887 1.2842 2.6887 1.2842l-3.4623-5.2338c4.2583-2.1698 2.9899-8.2088-1.4922-8.2715zm5.8984 2.3047h1.9668c2.4357 0 2.7663 4.207 0.80687 4.9724-0.69738-1.0601-1.3673-1.7936-1.3673-1.7936-0.0853-0.05884-0.72574-0.46131-1.4996-0.90314z"/>
   <path d="m-38.441-52.34-5.8984 14.238-1.2871 0.60937v0.63998c0.43309 0.28204 0.74604 0.39773 1.3453 0.71744h4.0785v-1.2207l-2.0332-0.88086 1.2188-2.916 5.5605-0.13672 1.4902 3.2559-1.8301 0.60938v1.084l7.3906-0.06641 0.06641-1.1523-1.5586-0.47461-5.627-14.307zm0.61133 4 2.0332 5.4238h-4.2715z"/>
   <path d="m-13.492-41.763-0.04118 0.92825c-2.4242 2.7641-3.0594 3.2333-4.465 4.6998-4.4091 0.18409-10.476-0.8523-10.545-7.9331-0.11216-11.55 14.983-7.4576 14.983-7.4576l-0.0678 4.5424-1.5593 0.0678-0.67797-2.3729s-8.6905-4.1565-8.678 5.4237c0.01012 7.7634 7.2542 5.4237 7.2542 5.4237l0.13559-3.322-2.8475-1.0848 0.0678-0.94915 8.2034 0.0678 0.02694 0.43103c0.15071 0.50934-0.12811 0.73507-0.75595 1.0374z"/>
   <path d="m-3.2569-52.213c-3.2427 0.50268-6.4281 2.5017-6.8081 7.3712 2.7147-3.103 4.7607-5.1577 6.8081-7.3712z"/>
  </g>
 </g>
 <path d="m143.33 52.434a76.796 74.24 6.7662 0 0-85.005 64.675 76.796 74.24 6.7662 0 0 67.511 82.77 76.796 74.24 6.7662 0 0 85.008-64.675 76.796 74.24 6.7662 0 0-67.513-82.771zm-2.6382 22.239a53.629 51.845 6.7662 0 1 47.145 57.803 53.629 51.845 6.7662 0 1-59.364 45.166 53.629 51.845 6.7662 0 1-47.147-57.803 53.629 51.845 6.7662 0 1 59.364-45.165z" fill="#fff" fill-opacity=".523" stroke-width="1.1634"/>
</svg>
