<?xml version="1.0" encoding="UTF-8"?>
<svg version="1.1" viewBox="0 0 256 256" xmlns="http://www.w3.org/2000/svg" xmlns:cc="http://creativecommons.org/ns#" xmlns:dc="http://purl.org/dc/elements/1.1/" xmlns:rdf="http://www.w3.org/1999/02/22-rdf-syntax-ns#">
 <metadata>
  <rdf:RDF>
   <cc:Work rdf:about="">
    <dc:format>image/svg+xml</dc:format>
    <dc:type rdf:resource="http://purl.org/dc/dcmitype/StillImage"/>
    <dc:title/>
   </cc:Work>
  </rdf:RDF>
 </metadata>
 <g fill-rule="evenodd">
  <path d="m67.251 227.48 13.671-1.4458 7.5372-3.7125 8.5145-0.38921 8.0951-3.8938 9.2166 0.0477 7.4823-3.9502 9.406 3e-3 7.6714-3.9941 9.2732-0.56636 7.0903-3.0574 9.1724-0.14343 8.2847-3.937 8.8371 0.13526 7.627-4.184 8.882 0.32589 7.8168-4.2284 8.6916 0.36954 8.3857-4.3611 3.3786 1.6118c-8.5775-56.541-23.431-110.48-38.597-164.28l-7.8485 3.2354-9.274 0.56685-8.519 3.7915-8.4586-0.22435-7.1457 3.6718-10.12 0.36451-7.5272 3.7596-9.1717 0.14295-7.8618 4.0378-8.8815-0.32514-8.0951 3.8938-8.6033 0.0095-7.6714 3.9941-9.0262-0.09134-7.5838 4.3736-9.115-0.47109-7.4937 4.7536-9.8623-1.0974-5.1169 3.7972c8.6553 55.342 21.575 108.91 36.939 161.47z" fill="#ff8080" stroke="#000" stroke-width=".7713"/>
  <path d="m48.816 86.098c5.9248 39.549 15.101 77.431 26.844 114 1.4584 6.1934 5.4844 6.9415 10.547 5.7397 37.351-5.9316 74.394-14.65 111.11-26.368 4.2424-1.0073 8.1684-2.6256 6.6641-9.1622-5.8838-36.764-14.504-74.117-25.787-112.04-1.0669-4.6367-2.5886-9.4168-11.136-7.4034-34.568 6.2331-70.542 13.968-110.58 26.046-4.6493 1.0955-9.1393 2.9022-7.6572 9.1939z" fill="#ffd5d5" fill-opacity=".449" stroke="#000" stroke-width=".7713"/>
  <path d="m112.66 164.73c3.2768 1.0776 6.3331 1.7126 9.6114 1.8004 5.2057 0.8776 11.37 0.37445 20.359-2.2249-8.7646 3.1209-14.99 4.2592-20.555 3.9104-3.3968-0.67123-6.3791-1.8951-9.416-3.4854zm3.6836-94.244c13.318-0.36377 24.212 2.3975 32.423 6.0469 7.2217 2.0784 12.896 4.901 16.807 7.3349-3.1993-3.31-8.4601-7.2493-15.63-10.513-9.0376-2.7517-20.354-4.3593-33.6-2.8689z" fill="#fff" stroke-width=".9"/>
 </g>
 <path d="m114.71 69.652a57.432 59.409 76.844 0 0-44.777 69.445 57.432 59.409 76.844 0 0 70.918 42.404 57.432 59.409 76.844 0 0 44.779-69.445 57.432 59.409 76.844 0 0-70.92-42.404zm3.9432 16.87a40.107 41.487 76.844 0 1 49.525 29.613 40.107 41.487 76.844 0 1-31.27 48.497 40.107 41.487 76.844 0 1-49.526-29.612 40.107 41.487 76.844 0 1 31.27-48.497z" fill="#fff" fill-opacity=".523" stroke-width=".9"/>
</svg>
