<?xml version="1.0" encoding="UTF-8"?>
<svg version="1.1" viewBox="0 0 256 256" xmlns="http://www.w3.org/2000/svg" xmlns:cc="http://creativecommons.org/ns#" xmlns:dc="http://purl.org/dc/elements/1.1/" xmlns:rdf="http://www.w3.org/1999/02/22-rdf-syntax-ns#">
 <metadata>
  <rdf:RDF>
   <cc:Work rdf:about="">
    <dc:format>image/svg+xml</dc:format>
    <dc:type rdf:resource="http://purl.org/dc/dcmitype/StillImage"/>
    <dc:title/>
   </cc:Work>
  </rdf:RDF>
 </metadata>
 <g transform="matrix(.94759 -.067588 .067588 .94759 -.93667 14.737)" fill-rule="evenodd">
  <path d="m15.468 187.09 13.632 6.891 9.273 1.078 8.182 4.769 9.903 1.245 8.574 5.6 9.365 0.823 8.778 5.672 9.568 0.896 8.997 5.061 8.461 1.42 8.648 5.395 10.106 1.319 8.167 5.453 9.641 0.692 8.094 5.658 9.845 0.765 7.89 5.584 10.456 0.984 2.182 3.541 62.998-176.6-9.276-1.711-8.998-5.061-10.237-1.596-7.76-5.308-8.883-0.88-9.666-5.76-9.292-1.028-8.647-5.395-9.772-0.97-8.094-5.657-9.903-1.245-8.036-5.177-9.568-0.896-8.37-5.526-9.715-0.489-8.224-5.934-9.86-0.08-8.544-6.969-7.065 0.46c-24.918 56.527-45.072 114.41-62.85 172.98z" fill="#ff8080" stroke="#000" stroke-width=".857"/>
  <path d="m83.48 44.014c-17.819 40.499-32.348 81.364-43.658 122.59-2.372 6.66 0.935 9.785 6.385 11.715 39.192 15.921 79.341 29.289 119.6 42.36 4.567 1.617 9.207 2.473 11.743-4.535 16.234-39.848 30.483-79.916 43.467-120.12 1.799-4.971 3.26-10.35-5.932-13.623-41.253-17.92-80.289-31.425-118.92-42.344-5-1.78-10.28-2.8-12.689 3.966z" fill="#fff" fill-opacity=".449" stroke="#000" stroke-width=".857"/>
  <path d="m95.68 155.89c2.409 2.981 4.879 5.416 7.886 7.474 4.33 3.957 10.387 7.203 20.344 10.195-10.062-2.37-16.559-5.06-21.543-8.74-2.766-2.674-4.812-5.614-6.688-8.929zm60.246-85.747c12.65 7.688 21.154 16.832 26.619 25.188 5.488 6.293 9.083 12.348 11.266 16.977-0.991-5.018-3.527-11.866-8.252-19.234-6.777-8.016-16.371-16.338-29.633-22.931z" fill="#fff"/>
 </g>
 <g fill="#ffb380" fill-opacity=".76863" stroke="#000">
  <g stroke-width=".54656">
   <path d="m157.24 45.677 1.6902 3.6046-9.123-5.7898-4.4413 2.0772 6.7526 14.399 3.405-1.5933-4.6326-9.8825 10.75 7.0224 3.5807-1.6745-3.3346-6.998c-0.93806-0.09209-2.8078-0.22287-2.8078-0.22287z"/>
   <path d="m85.051 73.785-4.2758 2.0009 1.4294 16.887 3.745-1.7518-0.36898-3.377 5.3415-2.4993 2.3624 2.4462 3.8403-1.7982zm-0.45942 4.7075 4.1931 4.3338-3.542 1.6572-0.65204-5.9909z"/>
   <path d="m134.98 50.067c-4.6625 2.2023-6.2082 6.1232-3.9029 10.974 1.9198 4.0399 5.7611 6.3688 10.936 4.0219 4.5281-2.0535 6.0842-6.2022 3.9189-10.97-2.2609-4.9786-6.558-6.1016-10.952-4.026zm7.0859 5.8228c1.2137 2.5765 1.162 5.1944-1.316 6.4518-2.6228 1.3308-4.7563-0.85588-5.811-3.1061-1.2086-2.5778-1.1764-5.216 1.3262-6.4557 2.6251-1.3003 4.6801 0.73197 5.8008 3.1099z"/>
   <path d="m74.818 78.572-12.714 5.9467 1.3036 2.7848 4.5011-2.1054 5.4454 11.615 3.7156-1.7393-5.4459-11.613 4.5003-2.1043z"/>
   <path d="m108.79 62.68-3.7146 1.7382 6.7516 14.398 10.393-4.8614-1.3066-2.7847-6.6761 3.123z"/>
   <path d="m96.173 68.583-3.7166 1.7383 6.7526 14.399 10.392-4.8622-1.3047-2.7858-6.6782 3.1232-5.445-11.611z"/>
   <path d="m125.49 54.87-8.4381 3.9468 1.1954 2.5524 2.3618-1.1038 4.3584 9.2918-2.3617 1.1048 1.1972 2.5535 8.4379-3.9489-1.1973-2.5513-2.3617 1.1048-4.3566-9.2929 2.3608-1.1037z"/>
  </g>
  <g transform="matrix(.94654 -.44293 .44293 .94654 -280.67 320.11)" stroke-width=".523">
   <path d="m431.58 12.272-3.5973-2e-6 7e-3 8.7168-5.5588-8.718-4.6917-9.45e-4 0.0129 15.218 3.5973 3e-6 -7e-3 -10.444 6.4687 10.446 3.7825 8.72e-4z"/>
   <path d="m354.02 12.261-4.5173 4.5e-5 -5.6101 15.216 3.9563 5.69e-4 1.0498-3.0765 5.6431 1.7e-4 1.0554 3.0782 4.0577-9.54e-4zm-2.3074 3.8937 1.8765 5.4567-3.742-2.17e-4 1.8646-5.4568z"/>
   <path d="m328 13.004c-2.4276-0.99179-6.5477-1.4543-9.3484-0.30666 0.61432 0.571 1.2401 1.3461 2.0684 2.3052 1.7133-0.74602 5.2285-0.1807 7.2819 1.5052z"/>
   <path d="m406.91 11.953c-4.9342 0.01779-7.864 2.7892-7.8335 7.9286 0.0254 4.28 2.4102 7.8564 7.8475 7.9212 4.7573 0.05666 7.7886-2.9079 7.8457-7.9185 0.0596-5.2319-3.2092-7.948-7.8597-7.9313zm3.7798 7.9204c7e-3 2.7253-1.0996 4.9733-3.7572 5.0581-2.8129 0.08967-3.7752-2.6708-3.7767-5.0488-2e-3 -2.7243 1.0958-4.9978 3.7676-5.0573 2.8025-0.06231 3.7594 2.5325 3.7663 5.048z"/>
   <path d="m343.21 12.26-13.431-0.0024 3.6e-4 2.9423 4.755 7.84e-4 8e-3 11.096 0.79759 0.54158 0.703 0.63716 2.4259-3.51e-4 -0.01-12.274 4.7538 0.0014z"/>
   <path d="m379.1 12.265-3.9244-3e-6 0.0123 15.217 10.979 0.0016-3e-3 -2.9434-7.0528-8.74e-4z"/>
   <path d="m365.77 12.263-3.9262-7.25e-4 0.0129 15.218 10.979 6.67e-4 -9.4e-4 -2.9436-7.0547-0.0016-0.01-12.272z"/>
   <path d="m396.74 12.268-8.914-0.0015 9.1e-4 2.697 2.4946 0.0012 9e-3 9.8208-2.495-2.65e-4 2e-3 2.6987 8.9147-3.99e-4 -3e-3 -2.6968-2.495-2.65e-4 -7e-3 -9.8211 2.4937 8.36e-4z"/>
   <path d="m328.56 23.395c0.0332-0.22427 0.0521-0.4585 0.0558-0.70299 0.0459-3.0357-2.5626-3.9292-4.9653-4.5034 1.855 1.715 3.1574 3.8735 4.9094 5.2064z"/>
  </g>
  <g transform="matrix(.94759 -.067588 .067588 .94759 -.93667 14.737)" stroke-width=".5753">
   <path d="m192.56 118.5-4.6391 1.7806 0.23633 17.837 4.0632-1.5589-0.13459-3.5732 5.7952-2.2242 2.2972 2.7451 4.1667-1.6004zm-0.83476 4.9082 4.078 4.8641-3.8429 1.4748-0.23613-6.3388z"/>
   <path d="m166.13 129.52c-4.6303-0.0989-13.203 2.9228-11.154 8.7462 2.0183 5.7361 10.793 0.77512 11.733 3.2762 0.7902 2.1032-6.6833 3.5004-9.4033 3.0539l1.4398 3.745c4.4821 0.5623 14.107-2.9074 11.832-9.1139-2.1334-5.8197-10.749-0.45678-11.658-3.089-0.81725-2.365 4.8531-4.2647 8.5947-3.0209z"/>
   <path d="m181.46 122.76-13.794 5.2917 1.1602 3.0215 4.8835-1.8735 4.8479 12.603 4.0312-1.548-4.8485-12.601 4.8824-1.8724z"/>
   <path d="m218.32 108.62-4.0301 1.5469 6.0106 15.622 10.317-3.9581c0.27982-0.5807 0.3928-0.83965 0.50275-1.5527l-0.70732-1.8367-7.2432 2.7791z"/>
   <path d="m204.63 113.87-4.0323 1.5469 6.0117 15.623 11.276-4.3271-1.1613-3.0226-7.2454 2.7791-4.8476-12.599z"/>
   <path d="m236.43 101.67-9.1548 3.5121 1.064 2.7694 2.5623-0.98208 2.7898 7.2498c0.58735-2.6714 1.3513-3.27 2.2447-6.1883l-1.0034-2.6079 1.6518-0.63336c0.25645-0.44199 0.34528-0.73598 0.52451-1.3512z"/>
  </g>
  <g transform="matrix(.94654 -.44293 .44293 .94654 -179.44 358.86)" stroke-width=".523">
   <path d="m354.02 12.261-4.5173 4.5e-5 -4.1602 11.283c0.32955 0.53977 1.9356 3.3259 2.5064 3.9329l1.0498-3.0765 5.6431 1.7e-4 1.0554 3.0782 4.0577-9.54e-4zm-2.3074 3.8937 1.8765 5.4567-3.742-2.17e-4 1.8646-5.4568z"/>
   <path d="m343.21 12.26-11.127-2e-3 1.9158 2.9779 0.53578-0.0352 0.12344 0.86734 3.9019 1.8514-0.10072-2.7184 4.7538 0.0014z"/>
   <path d="m379.1 12.265-3.9244-3e-6 0.0123 15.217 10.979 0.0016-3e-3 -2.9434-7.0528-8.74e-4z"/>
   <path d="m365.77 12.263-3.9262-7.25e-4 0.0129 15.218 10.979 6.67e-4 -9.4e-4 -2.9436-7.0547-0.0016-0.01-12.272z"/>
   <path d="m396.74 12.268-8.914-0.0015 9.1e-4 2.697 2.4946 0.0012 7e-3 8.0601c-0.75978 0.95564-0.84036 0.63292-1.8544 1.7606l-0.63897-6.8e-5 5e-4 0.67719c1.0076-1.2212 3.5238-3.9376 6.4136-7.0822l-2e-3 -3.4148 2.4937 8.36e-4z"/>
  </g>
 </g>
 <path d="m150.47 69.068a62.71 60.622 15.618 0 0-76.713 41.501 62.71 60.622 15.618 0 0 44.07 75.266 62.71 60.622 15.618 0 0 76.715-41.501 62.71 60.622 15.618 0 0-44.072-75.267zm-4.9231 17.612a43.792 42.335 15.618 0 1 30.776 52.562 43.792 42.335 15.618 0 1-53.573 28.982 43.792 42.335 15.618 0 1-30.777-52.562 43.792 42.335 15.618 0 1 53.573-28.982z" fill="#fff" fill-opacity=".523" stroke-width=".95"/>
 <path d="m60.75 86.014c-2.328 0.11615-5.6452 1.137-7.903 2.8712-0.69372 2.2727-1.4145 4.4056-1.7736 6.7554 2.6243 4.3038 10.02-0.48785 11.038 1.7266 0.89094 1.9396-6.0965 3.7687-8.7041 3.5294l1.6175 3.4514c4.2852 0.2299 13.171-3.7085 10.596-9.436-2.4149-5.3705-10.217 0.29366-11.256-2.1392-0.93426-2.1858 4.3105-4.3692 7.9401-3.4435z" fill="#ffb380" fill-opacity=".76863" stroke="#000" stroke-width=".54653"/>
</svg>
