<svg cursor="default" version="1.1" viewBox="0 0 256 256" xmlns="http://www.w3.org/2000/svg" xmlns:xlink="http://www.w3.org/1999/xlink">
 <defs>
  <linearGradient id="innoGrad1">
   <stop stop-color="#f55" offset="0"/>
   <stop stop-color="#ff8080" offset="1"/>
  </linearGradient>
  <linearGradient id="linearGradient860" x1="60.691" x2="51.966" y1="129.63" y2="104.51" gradientTransform="matrix(1.1 0 0 .98358 -8.3781 10.404)" gradientUnits="userSpaceOnUse" xlink:href="#innoGrad1"/>
  <linearGradient id="linearGradient860-4" x1="60.691" x2="51.966" y1="129.63" y2="104.51" gradientTransform="matrix(-1.1 0 0 .98358 271.76 10.127)" gradientUnits="userSpaceOnUse" xlink:href="#innoGrad1"/>
 </defs>
 <g fill-rule="evenodd" stroke="#000" stroke-width="1.0402">
  <path d="m18.795 128.99c-0.8351 0.11398 7.3294-26.773 7.9671-28.799 1.3893-0.3108 47.075 9.3747 47.075 9.3747 18.087 27.745-24.404 27.986-55.042 19.424z" fill="url(#linearGradient860)"/>
  <path d="m31.89 80.15c37.399 4.7674 113.14 12.546 201.34 0.5272-23.933 11.72-55.44 24.097-104.11 25.204-37.612-6.1051-66.495-16.553-97.232-25.731z" fill="#f55"/>
  <path d="m11.869 165.19c4.1668 5.7579 34.628 25.667 64.213 29.118 23.828 2.7792 39.9 3.352 50.407 6.9097 2.3617-0.28918 1.5741-7.6179 2.3617-11.426 1.6379-2.9134 3.4089-3.4494 5.4164 0.24884l2.0834 12.42c8.0168 0.68359 12.305-3.4157 35.31-6.4543 55.325-7.3075 72.874-21.287 79.492-28.879 0.23352-11.833-4.6939-30.154-5.8212-36.584l-40.358-20.482-129.22 0.58036c-1.7336 24.013-25.117 25.776-56.956 18.343-4.2876 17.401-5.9339 18.387-6.9267 36.207z" fill="#ff8080"/>
  <path d="m244.58 128.71c0.8351 0.11397-7.3294-26.773-7.9671-28.799-1.3893-0.31082-47.075 9.3747-47.075 9.3747-4e-3 27.451 25.712 27.965 55.042 19.424z" fill="url(#linearGradient860-4)"/>
 </g>
 <g fill="#faa" fill-rule="evenodd" stroke="#000" stroke-width="1.0402">
  <path d="m244.01 125.55c-5.8666 1.8996-27.388 8.138-38.754 5.0303-11.849-3.2397-10.076-9.5221-13.546-21.19l-5.0944 1.5788c1.7279 7.8401 0.95857 18.639 16.559 23.735 12.595 4.1145 29.534-1.3576 42.161-4.1631-0.83637-3.5417-1.0776-3.8497-1.3256-4.9914z"/>
  <path d="m19.374 125.83c5.8666 1.8996 27.388 8.138 38.754 5.0303 11.849-3.2397 10.076-9.5221 13.546-21.19l5.0944 1.5788c-1.7279 7.8401-0.95858 18.639-16.559 23.735-12.595 4.1144-29.534-1.3576-42.161-4.1631 0.83637-3.5417 1.0776-3.8497 1.3255-4.9914z"/>
  <path d="m31.763 80.006c-2.8046 6.5533-0.98836 8.3798-5.0006 20.182 19.622 4.6583 34.357 9.4975 49.322 12.553 20.053 4.0947 38.59 7.011 57.487 7.0975 37.934 0.17509 73.953-8.0388 103.05-19.927-3.487-8.868-1.8403-12.855-2.761-19.283-0.5467-0.80162-26.187 7.9031-54.894 13.327-16.807 3.175-35.31 4.4173-48.734 4.1153-50.006-1.1272-97.826-18.681-98.464-18.064z"/>
 </g>
 <path d="m132.66 119.85c-0.9548 22.215-2.5146 44.07-1.375 67.533m-118.57-25.528c46.31 34.411 61.07 28.102 115.16 34.541m7.9042 1.7371c38.698-8.5264 91.991-10.792 114.84-34.172" fill="none" stroke="#000" stroke-width=".52008"/>
</svg>
