<svg cursor="default" version="1.1" viewBox="0 0 256 256" xmlns="http://www.w3.org/2000/svg" xmlns:xlink="http://www.w3.org/1999/xlink">
 <defs>
  <linearGradient id="linearGradient992" x1="129.24" x2="104.7" y1="130.21" y2="234.91" gradientUnits="userSpaceOnUse">
   <stop stop-color="#ff8080" offset="0"/>
   <stop stop-color="#faa" offset="1"/>
  </linearGradient>
  <linearGradient id="linearGradient1004" x1="181.42" x2="178.58" y1="103.59" y2="117.02" gradientUnits="userSpaceOnUse">
   <stop stop-color="#f55" offset="0"/>
   <stop stop-color="#ff2a2a" offset="1"/>
  </linearGradient>
 </defs>
 <g fill-rule="evenodd" stroke="#000">
  <path d="m30.51 71.738c126.28 29.846 204.55 34.135 205.3 38.86 4.649 28.473-51.96 11.311-78.027 16.821-43.983-18.293-135.25-15.468-127.28-55.681z" fill="url(#linearGradient1004)" stroke-width="1.0482"/>
  <path d="m30.458 71.677c-13.797 24.9-24.23 53.613-24 94.41 72.496-7.3 181.22 36.035 236.29 27.353-0.67-27.47-2.461-54.94-6.882-82.41-34.481 15.48-156.4-28.522-205.41-39.353z" fill="url(#linearGradient992)" stroke-width=".75"/>
  <path d="m236.9 115.21c-4.0783 4.8456-23.541 4.596-49.237 1.3344-15.606-1.9808-33.172-3.7167-51.325-7.4528-25.607-5.27-51.681-15.371-72.619-22.271-16.221-5.3457-23.668-8.0778-34.627-12.326 0.33361-0.5304-0.83987-0.22209-1.0628-0.058126-18.712 30.063 55.898 33.874 85.926 54.411 55.982 9.584 63.115 14.172 76.028 14.792 0 0 51.537-3.494 51.288-2.995-0.0784-0.1896-2.5218-27.658-4.37-25.434z" fill="#f55" stroke-width=".69877"/>
  <path d="m28.004 75.233c-0.23984-0.07407 0.98639-1.0883-0.37213-0.83939-4.1159 4.9459-8.9768 14.645-10.76 24.627 33.5 15.625 67.572 23.258 101.36 34.887 8.11 7.121 18.134 6.972 28.574 5.24 12.716 2.226 25.575 4.21 39.68 4.118l1.997-25.081c-12.604-0.131-25.48-1.892-38.307-3.369-1.78 2.246-27.713-2.67-28.45-6.364-32.308-10.855-63.061-21.658-93.721-33.219z" fill="#faa" stroke-width=".69877"/>
 </g>
 <ellipse cx="144.54" cy="126.8" rx="3" ry="3.1525" fill="#f55"/>
 <path d="m144.39 122.82a3.668 3.897 0 0 0-3.67 3.898 3.668 3.897 0 0 0 3.67 3.896 3.668 3.897 0 0 0 3.668-3.896 3.668 3.897 0 0 0-3.667-3.898zm0 1.34a2.407 2.557 0 0 1 2.407 2.558 2.407 2.557 0 0 1-2.406 2.555 2.407 2.557 0 0 1-2.409-2.555 2.407 2.557 0 0 1 2.409-2.557z" fill="#ffb380" stroke="#000" stroke-width=".58138"/>
 <ellipse cx="121.91" cy="121.77" rx="3" ry="3.1525" fill="#f55"/>
 <path d="m122.82 118.2a2.615 3.77 5.39 0 0-2.958 3.509 2.615 3.77 5.39 0 0 2.25 3.997 2.615 3.77 5.39 0 0 2.957-3.506 2.615 3.77 5.39 0 0-2.249-4zm-0.122 1.292a1.716 2.473 5.39 0 1 1.476 2.624 1.716 2.473 5.39 0 1-1.94 2.3 1.716 2.473 5.39 0 1-1.477-2.623 1.716 2.473 5.39 0 1 1.941-2.301z" fill="#ffb380" stroke="#000" stroke-width=".48355"/>
 <path d="m181.41 110.79c0.27774 0.88812 0.1825 1.7723-0.0485 2.8621 1.6029 9.0996 0.17378 25.177-4.6047 32.985l-0.43683 1.9681c5.4833 1.2836 11.827 1.7331 16.437 1.8852 0 0 0.28602-1.5002 0.29788-2.1714 3.4643-8.0964 4.2205-25.732 3.1816-32.734 0.18331-0.97834 0.18424-2.0638-0.0423-2.5698-2.4587-0.11033-10.177-1.2791-14.784-2.2248z" fill="#ff8080" fill-rule="evenodd" stroke="#000" stroke-width=".75"/>
 <ellipse cx="73.156" cy="105.28" rx="3" ry="3.1525" fill="#f55"/>
 <path d="m73.06 100.93a3.72 4.375 0 0 0-3.721 4.376 3.72 4.375 0 0 0 3.722 4.373 3.72 4.375 0 0 0 3.72-4.373 3.72 4.375 0 0 0-3.72-4.376zm0 1.505a2.44 2.87 0 0 1 2.44 2.87 2.44 2.87 0 0 1-2.44 2.87 2.44 2.87 0 0 1-2.442-2.87 2.44 2.87 0 0 1 2.443-2.87z" fill="#ffb380" stroke="#000" stroke-width=".62051"/>
 <ellipse cx="101.3" cy="114.43" rx="3" ry="3.1525" fill="#f55"/>
 <path d="m101.26 110.46a3.642 4.047 0 0 0-3.643 4.047 3.642 4.047 0 0 0 3.643 4.046 3.642 4.047 0 0 0 3.642-4.046 3.642 4.047 0 0 0-3.642-4.047zm0 1.392a2.39 2.655 0 0 1 2.39 2.655 2.39 2.655 0 0 1-2.39 2.654 2.39 2.655 0 0 1-2.39-2.654 2.39 2.655 0 0 1 2.39-2.655z" fill="#ffb380" stroke="#000" stroke-width=".59116"/>
 <ellipse transform="rotate(16.815)" cx="53.479" cy="78.444" rx="2.3528" ry="3.1525" fill="#f55"/>
 <path d="M29.517 86.639a2.357 4.103 14.608 0 0-3.316 3.376 2.357 4.103 14.608 0 0 1.247 4.564 2.357 4.103 14.608 0 0 3.314-3.375 2.357 4.103 14.608 0 0-1.245-4.565zm-.356 1.365A1.546 2.692 14.608 0 1 29.978 91a1.546 2.692 14.608 0 1-2.174 2.213 1.546 2.692 14.608 0 1-.82-2.993 1.546 2.692 14.608 0 1 2.177-2.216z" fill="#ffb380" stroke="#000" stroke-width=".47936"/>
 <ellipse cx="167.44" cy="129.05" rx="3" ry="3.1525" fill="#f55"/>
 <path d="m167.44 125.07a3.642 4.047 0 0 0-3.644 4.049 3.642 4.047 0 0 0 3.644 4.045 3.642 4.047 0 0 0 3.64-4.045 3.642 4.047 0 0 0-3.64-4.048zm0 1.393a2.39 2.655 0 0 1 2.388 2.656 2.39 2.655 0 0 1-2.388 2.653 2.39 2.655 0 0 1-2.391-2.653 2.39 2.655 0 0 1 2.39-2.656z" fill="#ffb380" stroke="#000" stroke-width=".59116"/>
 <g fill="none" stroke="#000">
  <path d="m183.19 114.1c1.7119 12.183-0.62837 25.72-4.927 32.715m16.262-31.24c1.3861 8.9824-0.0576 26.157-3.0962 32.567" stroke-dasharray="0.71553791, 0.35776896" stroke-width=".5"/>
  <g>
   <path d="m176.75 146.64c6.7269 1.2963 12.009 2.0233 16.298 1.6819" stroke-linecap="round" stroke-width=".5"/>
   <path d="m181.36 113.65c6.7269 1.2963 9.942 1.9011 14.875 1.9326" stroke-linecap="round" stroke-width=".5"/>
   <path d="m182.24 111.77c4.3469 0.73082 8.6184 1.9035 13.384 1.9644" stroke-dasharray="0.75, 0.25" stroke-miterlimit="0" stroke-width=".25"/>
   <path d="m177.15 147.83c3.2218 1.11 7.933 1.7259 15.149 1.9601" stroke-dasharray="0.79704765, 0.26568255" stroke-miterlimit="0" stroke-width=".26568"/>
  </g>
 </g>
 <path d="m65.75 80.981c-0.60419 0.70771-0.8638 1.5582-1.0793 2.6512-5.0475 7.7392-10.047 23.086-8.7182 32.143l-0.37114 1.9816c-5.5469-0.97282-11.557-3.0505-15.857-4.7211 0 0 0.32609-1.492 0.57876-2.1139-0.0065-8.8064 6.2234-25.322 9.9286-31.354 0.21561-0.97173 0.86137-2.1229 1.2684-2.4993 4.8734 1.3995 9.5323 2.8403 14.25 3.9121z" fill="#ff8080" fill-rule="evenodd" stroke="#000" stroke-width=".75"/>
 <g fill="none" stroke="#000">
  <path d="m62.809 83.323c-6.3588 10.532-9.5223 23.901-8.316 32.022m-2.6879-35.117c-4.8021 7.7165-10.219 24.078-9.9417 31.167" stroke-dasharray="0.71553791, 0.35776896" stroke-width=".5"/>
  <g>
   <path d="m55.953 115.78c-6.6955-1.4495-11.839-2.8552-15.649-4.8535" stroke-linecap="round" stroke-width=".5"/>
   <path d="m64.671 83.632c-6.6064-1.9248-9.847-2.3845-14.439-4.0641" stroke-linecap="round" stroke-width=".5"/>
   <path d="m64.601 81.556c-4.2847-1.0349-8.4165-1.9955-12.945-3.568" stroke-dasharray="0.75, 0.25" stroke-miterlimit="0" stroke-width=".25"/>
   <path d="m55.119 116.72c-3.3989-0.24432-7.9734-1.528-14.702-4.1463" stroke-dasharray="0.79704765, 0.26568255" stroke-miterlimit="0" stroke-width=".26568"/>
  </g>
  <path d="m29.748 73.021c8.0442 2.3705 14.753 4.1695 20.663 5.8709 5.4246 1.5618 10.012 2.86 14.361 4.1187 53.482 16.232 93.823 26.558 116.68 29.969 6.568 1.3919 12.258 1.9221 15.082 2.0226 27.414 2.0702 35.427 0.11084 39.639-1.6144" stroke-dasharray="1.2, 0.4" stroke-width=".4"/>
  <path d="m16.954 101.72c6.5115 2.414 11.058 5.5896 23.224 9.9882 2.1471 0.96762 8.1908 3.3758 15.731 4.7051 30.267 8.9888 68.684 21.967 120.78 30.802 5.0918 1.1589 12.801 2.0063 16.434 1.8189 27.891 1.6273 42.739 1.1056 47.792-1.7807" stroke-dasharray="1.20000002, 0.40000001" stroke-width=".4"/>
 </g>
 <g fill-rule="evenodd" stroke="#000">
  <path d="m194.55 143.81c19.547 5.222 37.362 4.2128 54.693 14.322-1.0746-12.621 3.0275-21.912 0.58359-27.957-11.857-3.8841-34.973-10.738-53.212-11.514 0.17589 4.3392 0.15825 16.435-2.0648 25.149z" fill="#faa" stroke-width=".69877"/>
  <path d="m120.72 104.09c-2.973 11.566-3.831 22.768-5.158 34.497 10.248 3.886 22.03 6.382 32.255 6.62 2.57-11.503 4.905-23.064 5.506-35.06-10.921-1.6904-21.644-4.9702-32.603-6.057zm2.806 5.17c8.392 1.247 16.885 3.166 25.08 5.212-0.473 8.59-2.029 17.27-4.498 26.026-7.291-0.849-13.096-0.767-25.235-4.586 0.882-9.714 3.036-17.85 4.653-26.651z" fill="#ffb380" stroke-width=".69877"/>
  <path d="M123.427 123.668c-.111-.135-8.714-2.827-9.147-2.8-.328-.213.379-2.537.573-2.515l9.132 3c.187.874.07 1.567-.558 2.315z" fill="#fca" stroke-width=".69878"/>
  <path d="m119.03 134c-0.32 5.042 23.584 10.055 25.554 4.733" fill="#faa" stroke-width=".69878"/>
 </g>
 <path d="m149.49 130.58c0.85161-4.3437 1.6022-8.5337 2.195-13.745 0.2059-1.8099 0.33133-3.2352 0.39838-4.1281 0.0396-0.52697 0.0619-0.90807 0.0704-1.1459 5e-3 -0.14628 6e-3 -0.25761 9.4e-4 -0.33998-3e-3 -0.0479-9e-3 -0.10047-0.0229-0.15535-4e-3 -0.0149-9e-3 -0.0321-0.0155-0.0508-7e-3 -0.0205-0.0195-0.0516-0.0387-0.087-0.0157-0.0288-0.0461-0.0791-0.097-0.1302-0.0488-0.0491-0.14043-0.12256-0.27837-0.15197-2.5093-0.52765-9.2651-1.8916-14.438-2.8269-6.7155-1.2142-10.694-1.7423-14.791-2.2899 3.6177 0.48356 8.5183 1.3922 14.687 2.7987 5.687 1.2966 11.217 2.6993 14.31 3.388-0.13522-0.0288-0.22417-0.10067-0.27046-0.14714-0.0483-0.0484-0.0761-0.095-0.0893-0.11923-0.0165-0.0302-0.026-0.0549-0.0307-0.0682-4e-3 -0.0126-7e-3 -0.0225-9e-3 -0.0294-0.0202-0.0817 0.0123 0.0325 3e-3 -3e-3 9e-3 0.0356 0.0232 0.11559 0.0379 0.24679 0.0243 0.21607 0.0504 0.56718 0.0667 1.0908 0.028 0.89655 0.026 2.2721-0.0587 4.1033-0.21917 4.74-0.86985 9.9107-1.6304 13.79z" fill="#ffe6d5"/>
</svg>
