<svg cursor="default" version="1.1" viewBox="0 0 256 256" xmlns="http://www.w3.org/2000/svg" xmlns:xlink="http://www.w3.org/1999/xlink">
 <defs>
  <linearGradient id="linearGradient1" x1="127.14" x2="126.07" y1="1034.9" y2="833.43" gradientTransform="matrix(1.155 0 0 1.155 -17.698 -930.07)" gradientUnits="userSpaceOnUse">
   <stop stop-color="#f55" offset="0"/>
   <stop stop-color="#ff8080" offset="1"/>
  </linearGradient>
  <linearGradient id="linearGradient862" x1="126.8" x2="118.7" y1="17.405" y2="17.405" gradientUnits="userSpaceOnUse">
   <stop stop-color="#ff8080" offset="0"/>
   <stop stop-color="#faa" offset="1"/>
  </linearGradient>
 </defs>
 <g fill-rule="evenodd" stroke="#000" stroke-width=".75">
  <path d="m90.488 10.044c38.95 1.44 56.954-2.489 78.62-4.803l-37.769 14.063z" fill="#ff2a2a"/>
  <path d="m90.297 23.694c0.292-0.292 0.73-2.188 0.73-2.188-1.058-3.118-1.616-6.782 0.109-8.86v-1.677c-4.249 1.833-2.117 9.114-0.839 12.725zm78.492-16.644c4.346 0.902 2.361 8.207 1.531 11.91l-1.02-1.02c0.943-5.3 1.971-8.123-0.54-8.903z" fill="#f55"/>
  <path d="m93.885 245.7c5.91 0.387 8.03 1.721 11.871 2.625 5.057 0.073 9.834-0.416 14.115-1.896 1.85-28.372-0.309-52.987-2.063-79.406-0.404-6.09 2.637-16.757 3.506-25.163 1.715-16.58 1.902-17.878 3.094-26.812 2.452-18.372 3.713-20.075 5.569-30.113 0 0 3.352 9.488 3.506 14.438 0.632 20.226 0.42 45.356 0 52.387-0.884 14.807-3.518 34.694-4.331 44.24-0.596 6.998-3.684 23.821-1.856 49.398 7.098 0.628 12.895 2.34 18.356 4.331 1.714-0.76 3.45-1.5 5.569-1.856 2.362-18 5.239-47.795 7.425-54.038 0.617-1.762 4.606-31.545 5.568-47.437 1.498-24.735 5.345-53.098 9.694-79.406 2.715-16.423 1.889-29.875 1.26-36.034-0.642-6.3-4.718-11.435-7.218-17.179-24.97 4.012-50.215 6.02-75.96 4.404 0 0-6.974 18.423-6.938 21.123 0.087 6.468-0.857 21.626-0.45 32.43 0.61 16.208 3.609 32.264 4.331 48.468 0.558 12.5-0.407 24.007-0.146 36.517 0.31 14.79 1.792 30.572 2.002 45.364 0.147 10.313 0.747 26.98 1.046 30.209 0.405 4.365 2.05 13.406 2.05 13.406z" fill="url(#linearGradient1)"/>
  <path d="m90.808 10.131c9.213 2.11 25.326 3.494 36.46 3.135l1.531 8.022c-13.08 0.884-25.183-1.326-37.481-2.917z" fill="url(#linearGradient862)"/>
 </g>
 <g fill="none" stroke="#000">
  <path d="m105.98 247.92c-1.605-18.066-2.18-22.465-2.61-39.669-0.377-15.127-0.609-31.58-0.765-48.417-0.179-19.191-1.844-39.502-1.553-58.304 0.19-12.352 0.232-23.185 2.303-34.89m54.253-7.729c2.631 4.306 3.474 18.072 2.822 26.809-1.41 18.896-2.214 46.094-4.547 71.264-1.664 17.95-4.714 36.229-6.45 51.112-2.845 24.37-4.076 40.845-4.076 40.845" stroke-width=".25"/>
  <path d="m129.89 85.385 3.719-17.866-1.604-47.909" stroke-width=".75"/>
  <path d="m133.4 61.245c15.441-0.39159 5.4535-26.884 7.9815-40.357" stroke-dasharray="0.8, 0.4" stroke-width=".4"/>
 </g>
 <g stroke="#000">
  <path d="m122.5 17.457c1.14 1.879 2.778 2.668 4.229 3.865 18.157 0.036 27.461-3.928 42.32-6.962l-0.073-8.969c-14.1 3.543-18.848 6.431-42.589 7.904-1.7918 1.5684-3.2308 2.6468-3.8868 4.162z" fill="#faa" fill-rule="evenodd" stroke-width=".75"/>
  <path d="m109.51 12.26c-0.74282 1.0452-1.6795 6.9157-1.4616 10.957 0.0235 0.43623-0.17838 1.2759-0.12441 1.6463l2.522 0.128c-0.033-0.47511 0.16529-1.0098 0.20092-1.6613 0.21713-3.97 1.49-10.399 1.486-10.704-0.85251-0.63914-1.8269-0.65903-2.6228-0.36609zm41.234-2.3985c2.3147 3.5672 1.8763 6.6701 2.1929 10.105 0.0628 0.68145 0.20219 1.2121 0.34226 1.8987l2.673-0.4761c0.0332-0.48016-0.34323-0.95699-0.34873-1.6249-0.03241-3.9948-0.73575-10.58-1.8641-10.58-1.0341-0.09532-2.2196 0.13398-2.9953 0.67814z" fill="#ff8080" fill-rule="evenodd" stroke-width=".75"/>
  <ellipse cx="127.52" cy="17.399" rx="2.183" ry="2.091" fill="#ffb380" stroke-width=".624"/>
  <ellipse cx="127.52" cy="17.399" rx=".761" ry=".729" fill="#ffe6d5" stroke-width=".218"/>
  <path d="m133.54 60.228c14.017-0.256 3.962-26.342 6.49-39.815" fill="none" stroke-width=".4"/>
 </g>
</svg>
