<svg xmlns="http://www.w3.org/2000/svg" cursor="default" viewBox="0 0 256 256">
    <g stroke="#000">
        <path fill="#ff2a2a" fill-rule="evenodd" stroke-width=".525" d="M93.871 4.606c3.99 1.28 19.56 3.873 35.514 4.467 15.928.594 33.154-.93 36.845-1.365 2.647 10.486-19.934 8.06-29.862 11.958-15.171-4.02-44.82-3.066-42.497-15.06z"/>
        <path fill="#f55" fill-rule="evenodd" stroke-width=".525" d="M116.646 249.58c-5.408 2.04-9.593 1.766-15.808 1.459 0 0-3.302-24.7-6.293-37.833-3-13.17-3.177-33.77-1.765-43.359 9.912 24.391 17.45 26.256 27.32 34.687-2.691 15.324-2.647 30.1-3.454 45.047z"/>
        <path fill="#ff8080" fill-rule="evenodd" stroke-width=".5" d="M92.665 170.577c3.147-19.533 1.236-29.641-1.573-44.011-6.043-30.909-9.618-44.168-10.59-61.009 5.682-7.93 12.521-32.214 6.12-41.645 3.216-7.616 4.838-12.954 7.155-19.287 25.069 13.814 61.188 9.489 72.52 3.3 1.898 6.856 4.747 13.711 5.679 20.567-9.174 10.031.461 31.483 1.581 45.882-.815 25.482-4.519 43.843-7.183 60.787-1.477 9.394-2.537 14.675-1.868 28.468.053 1.105 2.25 8.256 2.804 11.074-7.444 8.326-15.325 20.26-26.299 22.54 0 0 .015-15.367-.806-22.791-.73-6.608-4.257-13.682-4.988-20.106-.996-8.766-.912-21.075-.997-31.924-.064-8.122-4.795-20.94-4.873-53.527-1.126-.536-2.234-.724-2.955.154 1.33 24.199-.86 35.01-1.074 47.54-.168 9.823.67 18.196.077 29.239-.461 8.586-4.093 14.261-4.528 25.708-.422 11.107 1.396 22.72-.86 33.576-13.585-2.705-25.14-24.346-27.342-34.535z"/>
        <path fill="#f55" fill-rule="evenodd" stroke-width=".5" d="M145.495 252.306c1.013 1.755 10.73 3.009 15.11 1.615.96-26.898 7.734-39.165 8.248-60.287.092-3.419.998-10.48-2.035-21.068-1.202 8.239-15.233 16.166-25.808 24.372.344 15.893 5.51 36.371 4.485 55.368z"/>
        <path fill="none" stroke-width=".5" d="M86.48 23.409c25.236 19.256 62.668 13.683 85.194 5.426"/>
        <path fill="none" stroke-width=".25" d="M127.178 36.378c-.932 10.826.71 21.172.677 31.999"/>
        <path fill="#f55" fill-rule="evenodd" stroke-width=".525" d="M161.92 31.922c4.194 14.172 6.078 34.706 11.707 43.043.685-11.893.994-31.34-1.643-46.471-2.045.925-4.842 2.078-10.065 3.428zM86.785 23.55c-6.7 14.937-7.23 31.136-6.284 42.506C88.155 55.68 92.633 42.691 95.37 28.98c-3.184-1.917-4.1-2.59-8.585-5.43z"/>
    </g>
</svg>
