<svg xmlns="http://www.w3.org/2000/svg" viewBox="0 0 64 64">
    <path fill="#fff" stroke-width=".181" d="M34.584 32.018c1.339 2.255 4.54-.99 3.132-2.376-1.193-1.284-2.53-.905-3.088.876-.122.426-.488 1.156-.044 1.5z"/>
    <path style="font-variation-settings:normal;-inkscape-stroke:none" fill="#ff8080" stroke-linecap="round" stroke-linejoin="bevel" stroke-width=".935" d="M38.581 22.205c-1.519-.514-4.065-.608-4.344 1.394l-.995 2.552c1.256.49 2.552.915 3.427 2.004.686 1.168 1.282-.338 1.913-.811.893-.893 2.02-1.753 1.25-3.162-.237-.756-.75-1.381-1.25-1.977z" opacity=".999"/>
    <ellipse style="font-variation-settings:normal;-inkscape-stroke:none" cx="47.6" cy="1.217" fill="#ff8080" stroke-linecap="round" stroke-linejoin="bevel" stroke-width=".935" opacity=".999" rx="2.388" ry="2.234" transform="rotate(32.423)"/>
    <ellipse style="font-variation-settings:normal;-inkscape-stroke:none" cx="-41.345" cy="1.217" fill="#ff8080" stroke-linecap="round" stroke-linejoin="bevel" stroke-width=".935" opacity=".999" rx="2.388" ry="2.234" transform="scale(-1 1) rotate(-32.423)"/>
    <path style="font-variation-settings:normal;-inkscape-stroke:none" fill="#ff8080" stroke-linecap="round" stroke-linejoin="bevel" stroke-width=".935" d="M32.103 32.408c-1.557-1.405-2.277-.303-2.82 1.463-3.335 6.69-8.765 12.017-12.665 18.349-1.673 1.68-1.675 6.848 1.712 4.955 3.399-2.51 4.723-6.765 6.834-10.26 2.438-4.686 4.895-9.417 8.446-13.38l-1.507-1.127zM36.077 32.495c1.04-1.258 1.91-1.296 3.026-.163 3.207 2.154 6.366 4.376 9.348 6.836 2.631 2.035 5.642 3.495 8.582 5 2.92 1.339 1.002 4.544-1.629 4.066-4.116.021-8.28-1.382-11.608-3.792-3.954-2.897-5.588-7.74-7.72-11.947z" opacity=".999"/>
    <path style="font-variation-settings:normal;-inkscape-stroke:none" fill="#ff8080" stroke-linecap="round" stroke-linejoin="bevel" stroke-width=".935" d="M38.083 29.877c-1.07 1.498.398 2.009 1.433 2.738 3.16 2.1 6.228 4.328 9.164 6.733 2.021 2.057 5.023 1.488 7.643 1.447 2.403.404 5.77-1.848 3.188-4.099-2.06-1.39-4.645-1.854-6.962-2.745-4.753-1.589-9.631-2.765-14.466-4.074zM30.583 28.964c.57-1.53.167-2.303-1.372-2.703-3.47-1.7-6.972-3.325-10.594-4.677-3.078-1.262-5.848-3.139-8.622-4.932-2.619-1.86-4.435 1.404-2.706 3.443 2.04 3.575 5.337 6.479 9.088 8.157 4.486 1.976 9.498.969 14.206.712z" opacity=".999"/>
    <path style="font-variation-settings:normal" fill="#ff8080" stroke-linecap="round" stroke-linejoin="bevel" stroke-width=".935" d="M31.847 25.917c-.762 1.675-1.938.66-3.087.128-3.4-1.687-6.863-3.23-10.413-4.57-2.793-.722-3.8-3.606-5.075-5.895-1.552-1.879-1.285-5.922 1.956-4.81 2.234 1.088 3.928 3.095 5.858 4.656 3.752 3.322 7.21 6.958 10.761 10.49z" opacity=".999"/>
    <path style="font-variation-settings:normal;-inkscape-stroke:none" fill="#ff8080" stroke-linecap="round" stroke-linejoin="bevel" stroke-width=".935" d="M35.001 26.706c-2.137-1.52-5.348-.596-4.748 2.42-.922 1.516.18 2.982 1.843 3.288 1.028 1.467 2.834 1.671 3.845.198 3.138-.752 2.153-4.273-.159-5.395-.315-.084-.499-.37-.78-.51z" opacity=".999"/>
</svg>
