<svg xmlns="http://www.w3.org/2000/svg" viewBox="0 0 64 64">
    <path fill="#f55" d="M18.624 8.464c-3.333-.063-5.317 1.11-7.781 3.972-3.91 4.541-4.24 20.73-4.24 20.73S7.887 17.75 11.735 13.5c2.606-2.878 4.155-3.876 8.022-3.532 4.332.386 9.215 5.764 9.215 5.764l1.02-.596s-5.203-6.067-9.852-6.57a17.088 17.088 0 00-1.516-.101zm26.752 0c-.476.008-.98.043-1.516.101-4.65.503-9.851 6.57-9.851 6.57l1.02.596s4.882-5.378 9.214-5.764c3.867-.344 5.416.654 8.022 3.532 3.848 4.25 5.132 19.668 5.132 19.668s-.33-16.19-4.24-20.73C50.693 9.572 48.71 8.4 45.376 8.463zM15.558 19.776l5.806 7.524 4.65 1.732.362-2.885-4.05-.77zm32.884 0l-6.767 5.602-4.051.77.361 2.884 4.65-1.732zm-28.36 11.16l-3.276 4.031-4.295 1.92 4.883-.472 3.046-3.22 5.358 2.71 1.154-3.988zm23.837 0l-6.871.98 1.154 3.989 5.358-2.71 3.046 3.22 4.883.472-4.295-1.92zm-14.582 6.819L18.812 41.02 16.67 51.6l-4.178 3.407c1.083-.877 3.189-1.446 5.988-2.577l1.86-8.933 9.154-3.08zm5.326 0l-.158 2.662 9.154 3.08 1.86 8.933c2.8 1.131 4.905 1.7 5.988 2.577L47.329 51.6l-2.14-10.58z"/>
    <path style="font-variation-settings:normal;-inkscape-stroke:none" fill="#ff8080" d="M32 21.95l-5.863.063s-3.53 5.218-3.53 11.837c0 7.418.198 13.355 4.377 19.483 1.045 1.53 3.597 3.89 5.016 3.89 1.42 0 3.971-2.36 5.016-3.89 4.18-6.128 4.377-12.065 4.377-19.483 0-6.619-3.53-11.837-3.53-11.837z" paint-order="stroke fill markers"/>
    <path style="font-variation-settings:normal;-inkscape-stroke:none" fill="#ff8080" d="M32 15.866c-2.518 0-5.96 3.405-6 5.646-.03 1.597 4.017 2.157 6 2.157 1.983 0 6.03-.56 6-2.157-.04-2.241-3.482-5.646-6-5.646z" paint-order="stroke fill markers"/>
    <path fill="#f55" d="M30.165 17.56c-.917.056-2.544 2.256-2.701 3.156-.243 1.39 1.93 2.004 2.764 1.504.856-.514 1.314-3.04.36-4.447a.452.452 0 00-.423-.213zm3.62 0a.448.448 0 00-.374.213c-.953 1.407-.495 3.933.361 4.447.833.5 3.007-.115 2.764-1.504-.16-.916-1.845-3.18-2.752-3.156z"/>
    <path fill="none" d="M33.53 23.584c2.011 20.766.736 29.08-1.53 33.64"/>
    <path fill="#f55" d="M26.178 25.01s-2.182 7.23-2.38 10.964c-.18 3.415.09 6.934 1.105 10.2.974 3.135 4.675 8.669 4.675 8.669s-2.323-5.972-2.975-9.094c-.669-3.204-.855-6.503-.935-9.775-.09-3.657.51-10.964.51-10.964z"/>
    <path fill="#f55" d="M28.473 25.605s-.94 8.445-.68 12.664c.268 4.338 2.295 12.834 2.295 12.834s-.41-8.558-.68-12.834c-.268-4.224-.935-12.664-.935-12.664zM30.598 25.945s1.118 9.107 1.36 13.684c.238 4.527.084 13.599.084 13.599s1.383-9.513 1.105-14.279c-.257-4.41-2.55-13.004-2.55-13.004zM35.187 25.52s.726 9.73.85 14.619c.08 3.117.078 6.259-.34 9.35-.214 1.586-.68 4.674-.68 4.674s1.76-3.593 2.21-5.61c1.068-4.783.703-9.853 0-14.704-.415-2.865-2.04-8.329-2.04-8.329zM36.887 24.245s1.717 6.488 2.082 9.86c.42 3.86.043 11.644.043 11.644s1.6-7.542 1.487-11.39a17.35 17.35 0 00-1.487-6.502c-.6-1.345-2.125-3.612-2.125-3.612z"/>
    <path style="font-variation-settings:normal;-inkscape-stroke:none" fill="none" d="M31.998 15.866c-2.518 0-5.96 3.405-6 5.647a.933.933 0 00.139.5h-.002s-3.53 5.218-3.53 11.837c0 7.418.198 13.355 4.377 19.483 1.045 1.53 3.597 3.89 5.016 3.89 1.42 0 3.971-2.36 5.016-3.89 4.18-6.128 4.377-12.065 4.377-19.483 0-6.619-3.53-11.837-3.53-11.837h-.002a.933.933 0 00.139-.5c-.04-2.242-3.482-5.647-6-5.647z" paint-order="stroke fill markers"/>
</svg>
