<?xml version="1.0" encoding="UTF-8"?>
<svg cursor="default" version="1.1" viewBox="0 0 256 256" xmlns="http://www.w3.org/2000/svg">
 <g transform="translate(95.881,-95.63)">
  <ellipse transform="rotate(-30.561)" cx="-147.1" cy="210.55" rx="60.533" ry="60.265" fill="#c88fb2" stroke="#180a5a" stroke-linecap="round" stroke-linejoin="round" stroke-opacity=".678" stroke-width="7.4731"/>
  <path d="m-58.964 264.31c-20.134-20.414 14.218-40.68 30.452-24.826-7.2028-21.432 25.323-40.615 35.925-13.278 8.1326 20.971-15.812 34.372-6.0365 66.897-22.717-24.773-44.654-12.892-60.34-28.793z" fill="#ff80b2" fill-rule="evenodd" stroke="#000" stroke-width=".99898"/>
  <ellipse transform="rotate(22.114)" cx="149.6" cy="145.54" rx="60.533" ry="60.265" fill="#c88fb2" stroke="#180a5a" stroke-linecap="round" stroke-linejoin="round" stroke-opacity=".678" stroke-width="7.4731"/>
  <path d="m53.403 164.84c4.026-28.388 40.969-13.36 38.206 9.1626 12.676-18.723 47.652-4.4891 32.341 20.517-11.746 19.183-36.921 8.2675-56.857 35.761 5.926-33.085-16.823-43.326-13.69-65.441z" fill="#ff2a7f" fill-rule="evenodd" stroke="#000" stroke-width=".99898"/>
 </g>
</svg>
