<svg cursor="default" version="1.1" viewBox="0 0 256 256" xmlns="http://www.w3.org/2000/svg">
 <g stroke="#000">
  <ellipse cx="128" cy="128" rx="100.14" ry="97.225" fill="#ff8080" stroke-linecap="round" stroke-linejoin="bevel" stroke-width="1.974"/>
  <ellipse cx="128.97" cy="127.22" rx="90.128" ry="87.503" fill="#f55" stroke-linecap="round" stroke-linejoin="bevel" stroke-width="1.777"/>
  <path d="m82.284 193.36 123.7-88.545-155.58 0.26 124.3 88.686-46.214-147.17z" fill="#faa" fill-rule="evenodd" stroke-width="2.372"/>
 </g>
 <g fill="#ffd5d5" fill-rule="evenodd">
  <path d="m128.76 33.412c29.668 1.666 52.163 14.097 67.426 30.712 18.092 17.645 27.988 41.453 28.645 63.217 0.65-21.744-7.956-46.665-25.832-65.964-16.907-16.424-40.54-27.606-70.24-27.965z"/>
  <path d="m128.21 41.805c26.467 1.534 46.511 13.05 60.108 28.445 16.167 16.393 25.011 38.5 25.61 58.698 0.592-20.167-7.071-43.269-22.997-61.15-15.106-15.257-36.218-25.649-62.721-25.993z"/>
  <path d="m153.19 108.6 6.559 1.531 36.246-2.415-36.315-0.916zm-13.204-7.238-0.035-6.735-10.769-34.694 7.544 35.535z"/>
 </g>
 <g transform="translate(-245.23 -46.192)" fill="none" fill-rule="evenodd" stroke="#ffd5d5" stroke-linecap="round" stroke-linejoin="round">
  <g transform="rotate(-45 363.16 178.34)">
   <path d="m350.84 72.9c8.1402-7.0612 34.579-7.1384 42.675-0.20788" stroke-width="2"/>
   <path d="m341.96 63.592c11.64-9.9743 50.256-10.15 62.344-0.1973" stroke-width="4"/>
   <path d="m330.31 51.848c15.812-14.423 68.27-14.677 84.69-0.2853" stroke-width="6"/>
  </g>
  <g fill-rule="evenodd">
   <g transform="rotate(225 371.43 178.44)">
    <path d="m350.84 72.9c8.1402-7.0612 34.579-7.1384 42.675-0.20788" stroke-width="2"/>
    <path d="m341.96 63.592c11.64-9.9743 50.256-10.15 62.344-0.1973" stroke-width="4"/>
    <path d="m330.31 51.848c15.812-14.423 68.27-14.677 84.69-0.2853" stroke-width="6"/>
   </g>
   <g transform="rotate(135 375.25 178.25)">
    <path d="m350.84 72.9c8.1402-7.0612 34.579-7.1384 42.675-0.20788" stroke-width="2"/>
    <path d="m341.96 63.592c11.64-9.9743 50.256-10.15 62.344-0.1973" stroke-width="4"/>
    <path d="m330.31 51.848c15.812-14.423 68.27-14.677 84.69-0.2853" stroke-width="6"/>
   </g>
   <g transform="rotate(45 384.2 178.86)">
    <path d="m350.84 72.9c8.1402-7.0612 34.579-7.1384 42.675-0.20788" stroke-width="2"/>
    <path d="m341.96 63.592c11.64-9.9743 50.256-10.15 62.344-0.1973" stroke-width="4"/>
    <path d="m330.31 51.848c15.812-14.423 68.27-14.677 84.69-0.2853" stroke-width="6"/>
   </g>
  </g>
 </g>
</svg>
