<svg version="1.1" viewBox="0 0 256 256" xmlns="http://www.w3.org/2000/svg" xmlns:xlink="http://www.w3.org/1999/xlink">
 <defs>
  <linearGradient id="linearGradient4207">
   <stop stop-color="#fff6d4" offset="0"/>
   <stop stop-color="#ffefb4" stop-opacity=".773" offset=".455"/>
   <stop stop-color="#ffdb47" stop-opacity="0" offset="1"/>
  </linearGradient>
  <radialGradient id="radialGradient4215-7" cx="130.89" cy="135.36" r="74.165" gradientTransform="matrix(1 0 0 .98413 -4.04 6.034)" gradientUnits="userSpaceOnUse" xlink:href="#linearGradient4207"/>
 </defs>
 <g transform="translate(.38352 -57.344)">
  <path d="m3.5344 191.16-0.016465-130.46 247.67 0.17959 0.0976 130.22z" fill="#fff" stroke-width="4.1772"/>
  <g transform="matrix(4.1772 0 0 4.1772 -4.9525 47.713)" fill="#ff2a2a" stroke="#b22234" stroke-linejoin="bevel" stroke-width="2.4">
   <path d="m25.718 18.727 35.64-0.0068"/>
   <path d="m25.727 13.931 35.634-0.0016"/>
   <path d="m25.714 9.1175 35.654 0.0042"/>
   <path d="m25.716 4.3321 35.643-0.028938"/>
  </g>
  <path d="m3.5394 131 99.114-0.0431-0.0476-70.153-99.088-0.0986z" fill="#3c3b6e" stroke-width="4.1772"/>
  <g transform="matrix(4.1772 0 0 4.1772 -4.9525 47.713)" fill="#ff2a2a" stroke="#b22234" stroke-linejoin="bevel" stroke-width="2.4">
   <path d="m2.0287 33.148 59.33-0.0055"/>
   <path d="m2.018 28.352 59.33-0.0055"/>
   <path d="m2.0337 23.54 59.33-0.0055"/>
  </g>
  <g transform="matrix(4.1772 0 0 4.1772 -4.9525 47.713)" fill="#fff">
   <path d="m6.5502 17.345c-0.026074 0.0215-0.513-0.39734-0.54679-0.39726-0.035648 8.1e-5 -0.56023 0.41898-0.5903 0.39983-0.028503-0.01816 0.21937-0.61068 0.20885-0.64279-0.011092-0.03388-0.5716-0.40334-0.56268-0.43785 0.00846-0.03272 0.64858 0.01992 0.67587-3e-6 0.028793-0.02102 0.20696-0.66826 0.24254-0.67044 0.03373-0.0021 0.18147 0.62299 0.20886 0.64279 0.028887 0.02089 0.69951-0.0097 0.71258 0.0235 0.012388 0.03144-0.53642 0.36511-0.54679 0.39727-0.010939 0.03393 0.22536 0.66228 0.19785 0.68496z"/>
   <path d="m4.5665 19.034c-0.026074 0.0215-0.513-0.39734-0.54679-0.39726-0.035648 8.1e-5 -0.56023 0.41898-0.5903 0.39983-0.028503-0.01816 0.21937-0.61068 0.20885-0.64279-0.011093-0.03388-0.5716-0.40334-0.56268-0.43785 0.00846-0.03272 0.64857 0.01992 0.67587-3e-6 0.028793-0.02102 0.20696-0.66826 0.24254-0.67044 0.03373-0.0021 0.18147 0.62299 0.20886 0.64279 0.028887 0.02089 0.69951-0.0097 0.71258 0.0235 0.012388 0.03144-0.53642 0.36511-0.54679 0.39727-0.010939 0.03393 0.22536 0.66228 0.19785 0.68496z"/>
   <path d="m10.511 17.346c-0.02607 0.0215-0.513-0.39734-0.54679-0.39726-0.035648 8.1e-5 -0.56023 0.41898-0.5903 0.39983-0.028503-0.01816 0.21937-0.61068 0.20885-0.64279-0.011092-0.03388-0.5716-0.40334-0.56268-0.43785 0.00846-0.03272 0.64858 0.01992 0.67587-3e-6 0.028793-0.02102 0.20696-0.66826 0.24254-0.67044 0.03373-0.0021 0.18147 0.62299 0.20886 0.64279 0.02889 0.02089 0.69951-0.0097 0.71258 0.0235 0.01239 0.03144-0.53642 0.36511-0.54679 0.39727-0.01094 0.03393 0.22536 0.66228 0.19785 0.68496z"/>
   <path d="m8.5277 19.035c-0.026074 0.0215-0.513-0.39734-0.54679-0.39726-0.035648 8.1e-5 -0.56023 0.41898-0.5903 0.39983-0.028503-0.01816 0.21937-0.61068 0.20885-0.64279-0.011092-0.03388-0.5716-0.40334-0.56268-0.43785 0.00846-0.03272 0.64857 0.01992 0.67587-3e-6 0.028793-0.02102 0.20696-0.66826 0.24254-0.67044 0.03373-0.0021 0.18147 0.62299 0.20886 0.64279 0.028887 0.02089 0.69951-0.0097 0.71258 0.0235 0.012388 0.03144-0.53642 0.36511-0.54679 0.39727-0.010939 0.03393 0.22536 0.66228 0.19785 0.68496z"/>
   <path d="m14.484 17.346c-0.02607 0.0215-0.513-0.39734-0.54679-0.39726-0.03565 8.1e-5 -0.56023 0.41898-0.5903 0.39983-0.0285-0.01816 0.21937-0.61068 0.20885-0.64279-0.01109-0.03388-0.5716-0.40334-0.56268-0.43785 0.0085-0.03272 0.64858 0.01992 0.67587-3e-6 0.02879-0.02102 0.20696-0.66826 0.24254-0.67044 0.03373-0.0021 0.18147 0.62299 0.20886 0.64279 0.02889 0.02089 0.69951-0.0097 0.71258 0.0235 0.01239 0.03144-0.53642 0.36511-0.54679 0.39727-0.01094 0.03393 0.22536 0.66228 0.19785 0.68496z"/>
   <path d="m12.5 19.035c-0.02607 0.0215-0.513-0.39734-0.54679-0.39726-0.03565 8.1e-5 -0.56023 0.41898-0.5903 0.39983-0.0285-0.01816 0.21937-0.61068 0.20885-0.64279-0.01109-0.03388-0.5716-0.40334-0.56268-0.43785 0.0085-0.03272 0.64858 0.01992 0.67587-3e-6 0.02879-0.02102 0.20696-0.66826 0.24254-0.67044 0.03373-0.0021 0.18147 0.62299 0.20886 0.64279 0.02889 0.02089 0.69951-0.0097 0.71258 0.0235 0.01239 0.03144-0.53642 0.36511-0.54679 0.39727-0.01094 0.03393 0.22536 0.66228 0.19785 0.68496z"/>
   <path d="m18.445 17.347c-0.02607 0.0215-0.513-0.39734-0.54679-0.39726-0.03565 8.1e-5 -0.56023 0.41898-0.5903 0.39983-0.0285-0.01816 0.21937-0.61068 0.20885-0.64279-0.01109-0.03388-0.5716-0.40334-0.56268-0.43785 0.0085-0.03272 0.64858 0.01992 0.67587-3e-6 0.02879-0.02102 0.20696-0.66826 0.24254-0.67044 0.03373-0.0021 0.18147 0.62299 0.20886 0.64279 0.02889 0.02089 0.69951-0.0097 0.71258 0.0235 0.01239 0.03144-0.53642 0.36511-0.54679 0.39727-0.01094 0.03393 0.22536 0.66228 0.19785 0.68496z"/>
   <path d="m16.461 19.036c-0.02607 0.0215-0.513-0.39734-0.54679-0.39726-0.03565 8.1e-5 -0.56023 0.41898-0.5903 0.39983-0.0285-0.01816 0.21937-0.61068 0.20885-0.64279-0.01109-0.03388-0.5716-0.40334-0.56268-0.43785 0.0085-0.03272 0.64858 0.01992 0.67587-3e-6 0.02879-0.02102 0.20696-0.66826 0.24254-0.67044 0.03373-0.0021 0.18147 0.62299 0.20886 0.64279 0.02889 0.02089 0.69951-0.0097 0.71258 0.0235 0.01239 0.03144-0.53642 0.36511-0.54679 0.39727-0.01094 0.03393 0.22536 0.66228 0.19785 0.68496z"/>
   <path d="m22.366 17.33c-0.02607 0.0215-0.513-0.39734-0.54679-0.39726-0.03565 8.1e-5 -0.56023 0.41898-0.5903 0.39983-0.0285-0.01816 0.21937-0.61068 0.20885-0.64279-0.01109-0.03388-0.5716-0.40334-0.56268-0.43785 0.0085-0.03272 0.64858 0.01992 0.67587-3e-6 0.02879-0.02102 0.20696-0.66826 0.24254-0.67044 0.03373-0.0021 0.18147 0.62299 0.20886 0.64279 0.02889 0.02089 0.69951-0.0097 0.71258 0.0235 0.01239 0.03144-0.53642 0.36511-0.54679 0.39727-0.01094 0.03393 0.22536 0.66228 0.19785 0.68496z"/>
   <path d="m20.383 19.019c-0.02607 0.0215-0.513-0.39734-0.54679-0.39726-0.03565 8.1e-5 -0.56023 0.41898-0.5903 0.39983-0.0285-0.01816 0.21937-0.61068 0.20885-0.64279-0.01109-0.03388-0.5716-0.40334-0.56268-0.43785 0.0085-0.03272 0.64858 0.01992 0.67587-3e-6 0.02879-0.02102 0.20696-0.66826 0.24254-0.67044 0.03373-0.0021 0.18147 0.62299 0.20886 0.64279 0.02889 0.02089 0.69951-0.0097 0.71258 0.0235 0.01239 0.03144-0.53642 0.36511-0.54679 0.39727-0.01094 0.03393 0.22536 0.66228 0.19785 0.68496z"/>
   <path d="m24.344 19.02c-0.02607 0.0215-0.513-0.39734-0.54679-0.39726-0.03565 8.1e-5 -0.56023 0.41898-0.5903 0.39983-0.0285-0.01816 0.21937-0.61068 0.20885-0.64279-0.01109-0.03388-0.5716-0.40334-0.56268-0.43785 0.0085-0.03272 0.64858 0.01992 0.67587-3e-6 0.02879-0.02102 0.20696-0.66826 0.24254-0.67044 0.03373-0.0021 0.18147 0.62299 0.20886 0.64279 0.02889 0.02089 0.69951-0.0097 0.71258 0.0235 0.01239 0.03144-0.53642 0.36511-0.54679 0.39727-0.01094 0.03393 0.22536 0.66228 0.19785 0.68496z"/>
   <path d="m6.5429 13.941c-0.026074 0.0215-0.513-0.39734-0.54679-0.39726-0.035648 8.1e-5 -0.56023 0.41898-0.5903 0.39983-0.028503-0.01816 0.21937-0.61068 0.20885-0.64279-0.011093-0.03388-0.5716-0.40334-0.56268-0.43785 0.00846-0.03272 0.64857 0.01992 0.67587-3e-6 0.028793-0.02102 0.20696-0.66826 0.24254-0.67044 0.03373-0.0021 0.18147 0.62299 0.20886 0.64279 0.028887 0.02089 0.69951-0.0097 0.71258 0.0235 0.012388 0.03144-0.53642 0.36511-0.54679 0.39727-0.010939 0.03393 0.22536 0.66228 0.19785 0.68496z"/>
   <path d="m4.5592 15.63c-0.026074 0.0215-0.513-0.39734-0.54679-0.39726-0.035648 8.1e-5 -0.56023 0.41898-0.5903 0.39983-0.028503-0.01815 0.21937-0.61068 0.20885-0.64279-0.011092-0.03388-0.5716-0.40334-0.56268-0.43785 0.00846-0.03272 0.64858 0.01992 0.67587-3e-6 0.028793-0.02102 0.20696-0.66826 0.24254-0.67044 0.03373-0.0021 0.18147 0.62299 0.20886 0.64279 0.028887 0.02089 0.69951-0.0097 0.71258 0.0235 0.012388 0.03144-0.53642 0.36511-0.54679 0.39727-0.010939 0.03393 0.22536 0.66228 0.19785 0.68496z"/>
   <path d="m10.504 13.942c-0.02607 0.0215-0.513-0.39734-0.54679-0.39726-0.035648 8.1e-5 -0.56023 0.41898-0.5903 0.39983-0.028503-0.01816 0.21937-0.61068 0.20885-0.64279-0.011093-0.03388-0.5716-0.40334-0.56268-0.43785 0.00846-0.03272 0.64858 0.01992 0.67587-3e-6 0.028793-0.02102 0.20696-0.66826 0.24254-0.67044 0.03373-0.0021 0.18147 0.62299 0.20886 0.64279 0.02889 0.02089 0.69951-0.0097 0.71258 0.0235 0.01239 0.03144-0.53642 0.36511-0.54679 0.39727-0.01094 0.03393 0.22536 0.66228 0.19785 0.68496z"/>
   <path d="m8.5204 15.631c-0.026074 0.0215-0.513-0.39734-0.54679-0.39726-0.035648 8.1e-5 -0.56023 0.41898-0.5903 0.39983-0.028503-0.01815 0.21937-0.61068 0.20885-0.64279-0.011092-0.03388-0.5716-0.40334-0.56268-0.43785 0.00846-0.03272 0.64858 0.01992 0.67587-3e-6 0.028793-0.02102 0.20696-0.66826 0.24254-0.67044 0.03373-0.0021 0.18147 0.62299 0.20886 0.64279 0.028887 0.02089 0.69951-0.0097 0.71258 0.0235 0.012388 0.03144-0.53642 0.36511-0.54679 0.39727-0.010939 0.03393 0.22536 0.66228 0.19785 0.68496z"/>
   <path d="m14.477 13.941c-0.02607 0.0215-0.513-0.39734-0.54679-0.39726-0.03565 8.1e-5 -0.56023 0.41898-0.5903 0.39983-0.0285-0.01816 0.21937-0.61068 0.20885-0.64279-0.01109-0.03388-0.5716-0.40334-0.56268-0.43785 0.0085-0.03272 0.64858 0.01992 0.67587-3e-6 0.02879-0.02102 0.20696-0.66826 0.24254-0.67044 0.03373-0.0021 0.18147 0.62299 0.20886 0.64279 0.02889 0.02089 0.69951-0.0097 0.71258 0.0235 0.01239 0.03144-0.53642 0.36511-0.54679 0.39727-0.01094 0.03393 0.22536 0.66228 0.19785 0.68496z"/>
   <path d="m12.493 15.631c-0.02607 0.0215-0.513-0.39734-0.54679-0.39726-0.03565 8.1e-5 -0.56023 0.41898-0.5903 0.39983-0.0285-0.01815 0.21937-0.61068 0.20885-0.64279-0.01109-0.03388-0.5716-0.40334-0.56268-0.43785 0.0085-0.03272 0.64858 0.01992 0.67587-3e-6 0.02879-0.02102 0.20696-0.66826 0.24254-0.67044 0.03373-0.0021 0.18147 0.62299 0.20886 0.64279 0.02889 0.02089 0.69951-0.0097 0.71258 0.0235 0.01239 0.03144-0.53642 0.36511-0.54679 0.39727-0.01094 0.03393 0.22536 0.66228 0.19785 0.68496z"/>
   <path d="m18.438 13.942c-0.02607 0.0215-0.513-0.39734-0.54679-0.39726-0.03565 8.1e-5 -0.56023 0.41898-0.5903 0.39983-0.0285-0.01816 0.21937-0.61068 0.20885-0.64279-0.01109-0.03388-0.5716-0.40334-0.56268-0.43785 0.0085-0.03272 0.64858 0.01992 0.67587-3e-6 0.02879-0.02102 0.20696-0.66826 0.24254-0.67044 0.03373-0.0021 0.18147 0.62299 0.20886 0.64279 0.02889 0.02089 0.69951-0.0097 0.71258 0.0235 0.01239 0.03144-0.53642 0.36511-0.54679 0.39727-0.01094 0.03393 0.22536 0.66228 0.19785 0.68496z"/>
   <path d="m16.454 15.631c-0.02607 0.0215-0.513-0.39734-0.54679-0.39726-0.03565 8.1e-5 -0.56023 0.41898-0.5903 0.39983-0.0285-0.01815 0.21937-0.61068 0.20885-0.64279-0.01109-0.03388-0.5716-0.40334-0.56268-0.43785 0.0085-0.03272 0.64858 0.01992 0.67587-3e-6 0.02879-0.02102 0.20696-0.66826 0.24254-0.67044 0.03373-0.0021 0.18147 0.62299 0.20886 0.64279 0.02889 0.02089 0.69951-0.0097 0.71258 0.0235 0.01239 0.03144-0.53642 0.36511-0.54679 0.39727-0.01094 0.03393 0.22536 0.66228 0.19785 0.68496z"/>
   <path d="m22.359 13.926c-0.02607 0.0215-0.513-0.39734-0.54679-0.39726-0.03565 8.1e-5 -0.56023 0.41898-0.5903 0.39983-0.0285-0.01816 0.21937-0.61068 0.20885-0.64279-0.01109-0.03388-0.5716-0.40334-0.56268-0.43785 0.0085-0.03272 0.64858 0.01992 0.67587-3e-6 0.02879-0.02102 0.20696-0.66826 0.24254-0.67044 0.03373-0.0021 0.18147 0.62299 0.20886 0.64279 0.02889 0.02089 0.69951-0.0097 0.71258 0.0235 0.01239 0.03144-0.53642 0.36511-0.54679 0.39727-0.01094 0.03393 0.22536 0.66228 0.19785 0.68496z"/>
   <path d="m20.375 15.615c-0.02607 0.0215-0.513-0.39734-0.54679-0.39726-0.03565 8.1e-5 -0.56023 0.41898-0.5903 0.39983-0.0285-0.01815 0.21937-0.61068 0.20885-0.64279-0.01109-0.03388-0.5716-0.40334-0.56268-0.43785 0.0085-0.03272 0.64858 0.01992 0.67587-3e-6 0.02879-0.02102 0.20696-0.66826 0.24254-0.67044 0.03373-0.0021 0.18147 0.62299 0.20886 0.64279 0.02889 0.02089 0.69951-0.0097 0.71258 0.0235 0.01239 0.03144-0.53642 0.36511-0.54679 0.39727-0.01094 0.03393 0.22536 0.66228 0.19785 0.68496z"/>
   <path d="m24.337 15.616c-0.02607 0.0215-0.513-0.39734-0.54679-0.39726-0.03565 8.1e-5 -0.56023 0.41898-0.5903 0.39983-0.0285-0.01815 0.21937-0.61068 0.20885-0.64279-0.01109-0.03388-0.5716-0.40334-0.56268-0.43785 0.0085-0.03272 0.64858 0.01992 0.67587-3e-6 0.02879-0.02102 0.20696-0.66826 0.24254-0.67044 0.03373-0.0021 0.18147 0.62299 0.20886 0.64279 0.02889 0.02089 0.69951-0.0097 0.71258 0.0235 0.01239 0.03144-0.53642 0.36511-0.54679 0.39727-0.01094 0.03393 0.22536 0.66228 0.19785 0.68496z"/>
   <path d="m6.5245 10.627c-0.026074 0.0215-0.513-0.39734-0.54679-0.39726-0.035648 8.1e-5 -0.56023 0.41898-0.5903 0.39983-0.028503-0.01816 0.21937-0.61068 0.20885-0.64279-0.011093-0.033879-0.5716-0.40334-0.56268-0.43785 0.00846-0.032718 0.64858 0.019922 0.67587-2.9e-6 0.028793-0.021019 0.20696-0.66826 0.24254-0.67044 0.03373-0.00207 0.18147 0.62299 0.20886 0.64279 0.028887 0.020888 0.69951-0.00967 0.71258 0.023497 0.012388 0.031441-0.53642 0.36511-0.54679 0.39727-0.010939 0.033928 0.22536 0.66228 0.19785 0.68496z"/>
   <path d="m4.5407 12.316c-0.026074 0.0215-0.513-0.39734-0.54679-0.39726-0.035648 8.1e-5 -0.56023 0.41898-0.5903 0.39983-0.028503-0.01816 0.21937-0.61068 0.20885-0.64279-0.011092-0.03388-0.5716-0.40334-0.56268-0.43785 0.00846-0.03272 0.64857 0.01992 0.67587-3e-6 0.028793-0.02102 0.20696-0.66826 0.24254-0.67044 0.03373-0.0021 0.18147 0.62299 0.20886 0.64279 0.028887 0.02089 0.69951-0.0097 0.71258 0.0235 0.012388 0.03144-0.53642 0.36511-0.54679 0.39727-0.010939 0.03393 0.22536 0.66228 0.19785 0.68496z"/>
   <path d="m10.486 10.628c-0.02607 0.0215-0.513-0.39734-0.54679-0.39726-0.035648 8.1e-5 -0.56023 0.41898-0.5903 0.39983-0.028503-0.01816 0.21937-0.61068 0.20885-0.64279-0.011093-0.033879-0.5716-0.40334-0.56268-0.43785 0.00846-0.032718 0.64858 0.019922 0.67587-2.9e-6 0.028793-0.021019 0.20696-0.66826 0.24254-0.67044 0.03373-0.00207 0.18147 0.62299 0.20886 0.64279 0.02889 0.020888 0.69951-0.00967 0.71258 0.023497 0.01239 0.031441-0.53642 0.36511-0.54679 0.39727-0.01094 0.033928 0.22536 0.66228 0.19785 0.68496z"/>
   <path d="m8.502 12.317c-0.026074 0.0215-0.513-0.39734-0.54679-0.39726-0.035648 8.1e-5 -0.56023 0.41898-0.5903 0.39983-0.028503-0.01816 0.21937-0.61068 0.20885-0.64279-0.011092-0.03388-0.5716-0.40334-0.56268-0.43785 0.00846-0.03272 0.64858 0.01992 0.67587-3e-6 0.028793-0.02102 0.20696-0.66826 0.24254-0.67044 0.03373-0.0021 0.18147 0.62299 0.20886 0.64279 0.028887 0.02089 0.69951-0.0097 0.71258 0.0235 0.012388 0.03144-0.53642 0.36511-0.54679 0.39727-0.010939 0.03393 0.22536 0.66228 0.19785 0.68496z"/>
   <path d="m14.458 10.628c-0.02607 0.0215-0.513-0.39734-0.54679-0.39726-0.03565 8.1e-5 -0.56023 0.41898-0.5903 0.39983-0.0285-0.01816 0.21937-0.61068 0.20885-0.64279-0.01109-0.033879-0.5716-0.40334-0.56268-0.43785 0.0085-0.032718 0.64858 0.019922 0.67587-2.9e-6 0.02879-0.021019 0.20696-0.66826 0.24254-0.67044 0.03373-0.00207 0.18147 0.62299 0.20886 0.64279 0.02889 0.020888 0.69951-0.00967 0.71258 0.023497 0.01239 0.031441-0.53642 0.36511-0.54679 0.39727-0.01094 0.033928 0.22536 0.66228 0.19785 0.68496z"/>
   <path d="m12.474 12.317c-0.02607 0.0215-0.513-0.39734-0.54679-0.39726-0.03565 8.1e-5 -0.56023 0.41898-0.5903 0.39983-0.0285-0.01816 0.21937-0.61068 0.20885-0.64279-0.01109-0.03388-0.5716-0.40334-0.56268-0.43785 0.0085-0.03272 0.64857 0.01992 0.67587-3e-6 0.02879-0.02102 0.20696-0.66826 0.24254-0.67044 0.03373-0.0021 0.18147 0.62299 0.20886 0.64279 0.02889 0.02089 0.69951-0.0097 0.71258 0.0235 0.01239 0.03144-0.53642 0.36511-0.54679 0.39727-0.01094 0.03393 0.22536 0.66228 0.19785 0.68496z"/>
   <path d="m18.419 10.628c-0.02607 0.0215-0.513-0.39734-0.54679-0.39726-0.03565 8.1e-5 -0.56023 0.41898-0.5903 0.39983-0.0285-0.01816 0.21937-0.61068 0.20885-0.64279-0.01109-0.033879-0.5716-0.40334-0.56268-0.43785 0.0085-0.032718 0.64858 0.019922 0.67587-2.9e-6 0.02879-0.021019 0.20696-0.66826 0.24254-0.67044 0.03373-0.00207 0.18147 0.62299 0.20886 0.64279 0.02889 0.020888 0.69951-0.00967 0.71258 0.023497 0.01239 0.031441-0.53642 0.36511-0.54679 0.39727-0.01094 0.033928 0.22536 0.66228 0.19785 0.68496z"/>
   <path d="m16.436 12.317c-0.02607 0.0215-0.513-0.39734-0.54679-0.39726-0.03565 8.1e-5 -0.56023 0.41898-0.5903 0.39983-0.0285-0.01816 0.21937-0.61068 0.20885-0.64279-0.01109-0.03388-0.5716-0.40334-0.56268-0.43785 0.0085-0.03272 0.64858 0.01992 0.67587-3e-6 0.02879-0.02102 0.20696-0.66826 0.24254-0.67044 0.03373-0.0021 0.18147 0.62299 0.20886 0.64279 0.02889 0.02089 0.69951-0.0097 0.71258 0.0235 0.01239 0.03144-0.53642 0.36511-0.54679 0.39727-0.01094 0.03393 0.22536 0.66228 0.19785 0.68496z"/>
   <path d="m22.341 10.612c-0.02607 0.0215-0.513-0.39734-0.54679-0.39726-0.03565 8.1e-5 -0.56023 0.41898-0.5903 0.39983-0.0285-0.01816 0.21937-0.61068 0.20885-0.64279-0.01109-0.033879-0.5716-0.40334-0.56268-0.43785 0.0085-0.032718 0.64858 0.019922 0.67587-2.9e-6 0.02879-0.021019 0.20696-0.66826 0.24254-0.67044 0.03373-0.00207 0.18147 0.62299 0.20886 0.64279 0.02889 0.020888 0.69951-0.00967 0.71258 0.023497 0.01239 0.031441-0.53642 0.36511-0.54679 0.39727-0.01094 0.033928 0.22536 0.66228 0.19785 0.68496z"/>
   <path d="m20.357 12.301c-0.02607 0.0215-0.513-0.39734-0.54679-0.39726-0.03565 8.1e-5 -0.56023 0.41898-0.5903 0.39983-0.0285-0.01816 0.21937-0.61068 0.20885-0.64279-0.01109-0.03388-0.5716-0.40334-0.56268-0.43785 0.0085-0.03272 0.64858 0.01992 0.67587-3e-6 0.02879-0.02102 0.20696-0.66826 0.24254-0.67044 0.03373-0.0021 0.18147 0.62299 0.20886 0.64279 0.02889 0.02089 0.69951-0.0097 0.71258 0.0235 0.01239 0.03144-0.53642 0.36511-0.54679 0.39727-0.01094 0.03393 0.22536 0.66228 0.19785 0.68496z"/>
   <path d="m24.318 12.302c-0.02607 0.0215-0.513-0.39734-0.54679-0.39726-0.03565 8.1e-5 -0.56023 0.41898-0.5903 0.39983-0.0285-0.01816 0.21937-0.61068 0.20885-0.64279-0.01109-0.03388-0.5716-0.40334-0.56268-0.43785 0.0085-0.03272 0.64858 0.01992 0.67587-3e-6 0.02879-0.02102 0.20696-0.66826 0.24254-0.67044 0.03373-0.0021 0.18147 0.62299 0.20886 0.64279 0.02889 0.02089 0.69951-0.0097 0.71258 0.0235 0.01239 0.03144-0.53642 0.36511-0.54679 0.39727-0.01094 0.03393 0.22536 0.66228 0.19785 0.68496z"/>
   <path d="m6.5392 7.2339c-0.026074 0.021498-0.513-0.39734-0.54679-0.39726-0.035648 8.05e-5 -0.56023 0.41898-0.5903 0.39983-0.028503-0.018155 0.21937-0.61068 0.20885-0.64279-0.011092-0.033878-0.5716-0.40334-0.56268-0.43785 0.00846-0.032718 0.64857 0.019922 0.67587-2.9e-6 0.028793-0.021019 0.20696-0.66826 0.24254-0.67044 0.03373-0.00207 0.18147 0.62299 0.20886 0.64279 0.028887 0.020888 0.69951-0.00967 0.71258 0.023497 0.012388 0.031441-0.53642 0.36511-0.54679 0.39727-0.010939 0.033928 0.22536 0.66228 0.19785 0.68496z"/>
   <path d="m4.5555 8.9119c-0.026074 0.021498-0.513-0.39734-0.54679-0.39726-0.035648 8.05e-5 -0.56023 0.41898-0.5903 0.39983-0.028503-0.018155 0.21937-0.61068 0.20885-0.64279-0.011092-0.033878-0.5716-0.40334-0.56268-0.43785 0.00846-0.032718 0.64858 0.019922 0.67587-2.8e-6 0.028792-0.021019 0.20696-0.66826 0.24254-0.67044 0.03373-0.00207 0.18147 0.62299 0.20886 0.64279 0.028887 0.020888 0.69951-0.00967 0.71258 0.023497 0.012388 0.031441-0.53642 0.36511-0.54679 0.39727-0.010939 0.033928 0.22536 0.66228 0.19785 0.68496z"/>
   <path d="m10.5 7.2347c-0.026074 0.021498-0.513-0.39734-0.54679-0.39726-0.035648 8.06e-5 -0.56023 0.41898-0.5903 0.39983-0.028503-0.018155 0.21937-0.61068 0.20885-0.64279-0.011092-0.033878-0.5716-0.40334-0.56268-0.43785 0.00846-0.032718 0.64857 0.019922 0.67587-2.9e-6 0.028793-0.021019 0.20696-0.66826 0.24254-0.67044 0.03373-0.00207 0.18147 0.62299 0.20886 0.64279 0.02889 0.020888 0.69951-0.00967 0.71258 0.023497 0.01239 0.031441-0.53642 0.36511-0.54679 0.39727-0.01094 0.033928 0.22536 0.66228 0.19785 0.68496z"/>
   <path d="m8.5167 8.9127c-0.026074 0.021498-0.513-0.39734-0.54679-0.39726-0.035648 8.05e-5 -0.56023 0.41898-0.5903 0.39983-0.028503-0.018155 0.21937-0.61068 0.20885-0.64279-0.011092-0.033878-0.5716-0.40334-0.56268-0.43785 0.00846-0.032718 0.64857 0.019922 0.67587-2.8e-6 0.028793-0.021019 0.20696-0.66826 0.24254-0.67044 0.03373-0.00207 0.18147 0.62299 0.20886 0.64279 0.028887 0.020888 0.69951-0.00967 0.71258 0.023497 0.012388 0.031441-0.53642 0.36511-0.54679 0.39727-0.010939 0.033928 0.22536 0.66228 0.19785 0.68496z"/>
   <path d="m14.473 7.2343c-0.02607 0.021498-0.513-0.39734-0.54679-0.39726-0.03565 8.05e-5 -0.56023 0.41898-0.5903 0.39983-0.0285-0.018155 0.21937-0.61068 0.20885-0.64279-0.01109-0.033878-0.5716-0.40334-0.56268-0.43785 0.0085-0.032718 0.64858 0.019922 0.67587-2.9e-6 0.02879-0.021019 0.20696-0.66826 0.24254-0.67044 0.03373-0.00207 0.18147 0.62299 0.20886 0.64279 0.02889 0.020888 0.69951-0.00967 0.71258 0.023497 0.01239 0.031441-0.53642 0.36511-0.54679 0.39727-0.01094 0.033928 0.22536 0.66228 0.19785 0.68496z"/>
   <path d="m12.489 8.9123c-0.02607 0.021498-0.513-0.39734-0.54679-0.39726-0.03565 8.05e-5 -0.56023 0.41898-0.5903 0.39983-0.0285-0.018155 0.21937-0.61068 0.20885-0.64279-0.01109-0.033878-0.5716-0.40334-0.56268-0.43785 0.0085-0.032718 0.64857 0.019922 0.67587-2.8e-6 0.02879-0.021019 0.20696-0.66826 0.24254-0.67044 0.03373-0.00207 0.18147 0.62299 0.20886 0.64279 0.02889 0.020888 0.69951-0.00967 0.71258 0.023497 0.01239 0.031441-0.53642 0.36511-0.54679 0.39727-0.01094 0.033928 0.22536 0.66228 0.19785 0.68496z"/>
   <path d="m18.434 7.2351c-0.02607 0.021498-0.513-0.39734-0.54679-0.39726-0.03565 8.06e-5 -0.56023 0.41898-0.5903 0.39983-0.0285-0.018155 0.21937-0.61068 0.20885-0.64279-0.01109-0.033878-0.5716-0.40334-0.56268-0.43785 0.0085-0.032718 0.64858 0.019922 0.67587-2.9e-6 0.02879-0.021019 0.20696-0.66826 0.24254-0.67044 0.03373-0.00207 0.18147 0.62299 0.20886 0.64279 0.02889 0.020888 0.69951-0.00967 0.71258 0.023497 0.01239 0.031441-0.53642 0.36511-0.54679 0.39727-0.01094 0.033928 0.22536 0.66228 0.19785 0.68496z"/>
   <path d="m16.45 8.9131c-0.02607 0.021498-0.513-0.39734-0.54679-0.39726-0.03565 8.05e-5 -0.56023 0.41898-0.5903 0.39983-0.0285-0.018155 0.21937-0.61068 0.20885-0.64279-0.01109-0.033879-0.5716-0.40334-0.56268-0.43785 0.0085-0.032718 0.64858 0.019922 0.67587-2.8e-6 0.02879-0.021019 0.20696-0.66826 0.24254-0.67044 0.03373-0.00207 0.18147 0.62299 0.20886 0.64279 0.02889 0.020888 0.69951-0.00967 0.71258 0.023497 0.01239 0.031441-0.53642 0.36511-0.54679 0.39727-0.01094 0.033928 0.22536 0.66228 0.19785 0.68496z"/>
   <path d="m22.355 7.2187c-0.02607 0.021498-0.513-0.39734-0.54679-0.39726-0.03565 8.05e-5 -0.56023 0.41898-0.5903 0.39983-0.0285-0.018155 0.21937-0.61068 0.20885-0.64279-0.01109-0.033878-0.5716-0.40334-0.56268-0.43785 0.0085-0.032718 0.64858 0.019922 0.67587-2.9e-6 0.02879-0.021019 0.20696-0.66826 0.24254-0.67044 0.03373-0.00207 0.18147 0.62299 0.20886 0.64279 0.02889 0.020888 0.69951-0.00967 0.71258 0.023497 0.01239 0.031441-0.53642 0.36511-0.54679 0.39727-0.01094 0.033928 0.22536 0.66228 0.19785 0.68496z"/>
   <path d="m20.372 8.8967c-0.02607 0.021498-0.513-0.39734-0.54679-0.39726-0.03565 8.05e-5 -0.56023 0.41898-0.5903 0.39983-0.0285-0.018155 0.21937-0.61068 0.20885-0.64279-0.01109-0.033878-0.5716-0.40334-0.56268-0.43785 0.0085-0.032718 0.64858 0.019922 0.67587-2.8e-6 0.02879-0.021019 0.20696-0.66826 0.24254-0.67044 0.03373-0.00207 0.18147 0.62299 0.20886 0.64279 0.02889 0.020888 0.69951-0.00967 0.71258 0.023497 0.01239 0.031441-0.53642 0.36511-0.54679 0.39727-0.01094 0.033928 0.22536 0.66228 0.19785 0.68496z"/>
   <path d="m24.333 8.8975c-0.02607 0.021498-0.513-0.39734-0.54679-0.39726-0.03565 8.05e-5 -0.56023 0.41898-0.5903 0.39983-0.0285-0.018155 0.21937-0.61068 0.20885-0.64279-0.01109-0.033879-0.5716-0.40334-0.56268-0.43785 0.0085-0.032718 0.64858 0.019922 0.67587-2.8e-6 0.02879-0.021019 0.20696-0.66826 0.24254-0.67044 0.03373-0.00207 0.18147 0.62299 0.20886 0.64279 0.02889 0.020888 0.69951-0.00967 0.71258 0.023497 0.01239 0.031441-0.53642 0.36511-0.54679 0.39727-0.01094 0.033928 0.22536 0.66228 0.19785 0.68496z"/>
   <path d="m4.6034 5.549c-0.026074 0.021498-0.513-0.39734-0.54679-0.39726-0.035648 8.06e-5 -0.56023 0.41898-0.5903 0.39983-0.028503-0.018155 0.21937-0.61068 0.20885-0.64279-0.011092-0.033878-0.5716-0.40334-0.56268-0.43785 0.00846-0.032718 0.64858 0.019922 0.67587-2.9e-6 0.028792-0.021019 0.20696-0.66826 0.24254-0.67044 0.03373-0.00207 0.18147 0.62299 0.20886 0.64279 0.028887 0.020888 0.69951-0.00967 0.71258 0.023497 0.012388 0.031441-0.53642 0.36511-0.54679 0.39727-0.010939 0.033928 0.22536 0.66228 0.19785 0.68496z"/>
   <path d="m8.5646 5.5498c-0.026074 0.021498-0.513-0.39734-0.54679-0.39726-0.035648 8.06e-5 -0.56023 0.41898-0.5903 0.39983-0.028503-0.018155 0.21937-0.61068 0.20885-0.64279-0.011092-0.033878-0.5716-0.40334-0.56268-0.43785 0.00846-0.032718 0.64858 0.019922 0.67587-2.9e-6 0.028793-0.021019 0.20696-0.66826 0.24254-0.67044 0.03373-0.00207 0.18147 0.62299 0.20886 0.64279 0.028887 0.020888 0.69951-0.00967 0.71258 0.023497 0.012388 0.031441-0.53642 0.36511-0.54679 0.39727-0.010939 0.033928 0.22536 0.66228 0.19785 0.68496z"/>
   <path d="m12.537 5.5494c-0.02607 0.021498-0.513-0.39734-0.54679-0.39726-0.03565 8.06e-5 -0.56023 0.41898-0.5903 0.39983-0.0285-0.018155 0.21937-0.61068 0.20885-0.64279-0.01109-0.033879-0.5716-0.40334-0.56268-0.43785 0.0085-0.032718 0.64858 0.019922 0.67587-2.9e-6 0.02879-0.021018 0.20696-0.66826 0.24254-0.67044 0.03373-0.00207 0.18147 0.62299 0.20886 0.64279 0.02889 0.020888 0.69951-0.00967 0.71258 0.023497 0.01239 0.031441-0.53642 0.36511-0.54679 0.39727-0.01094 0.033928 0.22536 0.66228 0.19785 0.68496z"/>
   <path d="m16.498 5.5502c-0.02607 0.021498-0.513-0.39734-0.54679-0.39726-0.03565 8.06e-5 -0.56023 0.41898-0.5903 0.39983-0.0285-0.018155 0.21937-0.61068 0.20885-0.64279-0.01109-0.033879-0.5716-0.40334-0.56268-0.43785 0.0085-0.032718 0.64858 0.019922 0.67587-2.9e-6 0.02879-0.021019 0.20696-0.66826 0.24254-0.67044 0.03373-0.00207 0.18147 0.62299 0.20886 0.64279 0.02889 0.020888 0.69951-0.00967 0.71258 0.023497 0.01239 0.031441-0.53642 0.36511-0.54679 0.39727-0.01094 0.033928 0.22536 0.66228 0.19785 0.68496z"/>
   <path d="m20.42 5.5338c-0.02607 0.021498-0.513-0.39734-0.54679-0.39726-0.03565 8.06e-5 -0.56023 0.41898-0.5903 0.39983-0.0285-0.018155 0.21937-0.61068 0.20885-0.64279-0.01109-0.033879-0.5716-0.40334-0.56268-0.43785 0.0085-0.032718 0.64858 0.019922 0.67587-2.9e-6 0.02879-0.021018 0.20696-0.66826 0.24254-0.67044 0.03373-0.00207 0.18147 0.62299 0.20886 0.64279 0.02889 0.020888 0.69951-0.00967 0.71258 0.023497 0.01239 0.031441-0.53642 0.36511-0.54679 0.39727-0.01094 0.033928 0.22536 0.66228 0.19785 0.68496z"/>
   <path d="m24.381 5.5346c-0.02607 0.021498-0.513-0.39734-0.54679-0.39726-0.03565 8.06e-5 -0.56023 0.41898-0.5903 0.39983-0.0285-0.018155 0.21937-0.61068 0.20885-0.64279-0.01109-0.033879-0.5716-0.40334-0.56268-0.43785 0.0085-0.032718 0.64858 0.019922 0.67587-2.9e-6 0.02879-0.021019 0.20696-0.66826 0.24254-0.67044 0.03373-0.00207 0.18147 0.62299 0.20886 0.64279 0.02889 0.020888 0.69951-0.00967 0.71258 0.023497 0.01239 0.031441-0.53642 0.36511-0.54679 0.39727-0.01094 0.033928 0.22536 0.66228 0.19785 0.68496z"/>
  </g>
 </g>
 <g fill-rule="evenodd">
  <g transform="matrix(.23888 .086866 -.086866 .23888 10.38 126.77)">
   <path d="m122.5 98.164 58.872-79.535-25.419 94.204 77.937-31.083-70.38 51.316 81.23 34.178-90.977-12.282 44.336 69.508-63.153-52.946-5.746 63.302-10.536-59.103-43.217 45.24 21.057-59.3-69.179 32.713 64.273-47.826s-63.12-4.199-60.585-5.22c2.535-1.02 63.68-6.486 63.68-6.486l-69.162-50.674 79.748 29.766s-22.489-81.84-21.37-80.522c1.12 1.317 38.59 64.75 38.59 64.75z" fill="#fc0" stroke="#fc0" stroke-width="4.84"/>
   <path d="m125.12 110.87 39.41-53.242-17.016 63.062 52.173-20.808-47.114 34.353 54.377 22.879-60.902-8.222 29.68 46.53-42.277-35.443-3.846 42.376-7.053-39.565-28.93 30.285 14.096-39.697-46.31 21.898 43.025-32.015s-42.254-2.81-40.556-3.494c1.697-0.683 42.628-4.342 42.628-4.342l-46.297-33.923 53.385 19.926s-15.056-54.785-14.306-53.903 25.833 43.345 25.833 43.345z" fill="url(#radialGradient4215-7)"/>
  </g>
  <g transform="matrix(.069632 -.16376 .18835 .060542 45.729 190.71)">
   <path d="m122.5 98.164 58.872-79.535-25.419 94.204 77.937-31.083-70.38 51.316 81.23 34.178-90.977-12.282 44.336 69.508-63.153-52.946-5.746 63.302-10.536-59.103-43.217 45.24 21.057-59.3-69.179 32.713 64.273-47.826s-63.12-4.199-60.585-5.22c2.535-1.02 63.68-6.486 63.68-6.486l-69.162-50.674 79.748 29.766s-22.489-81.84-21.37-80.522c1.12 1.317 38.59 64.75 38.59 64.75z" fill="#fc0" stroke="#fc0" stroke-width="4.84"/>
   <path d="m125.12 110.87 39.41-53.242-17.016 63.062 52.173-20.808-47.114 34.353 54.377 22.879-60.902-8.222 29.68 46.53-42.277-35.443-3.846 42.376-7.053-39.565-28.93 30.285 14.096-39.697-46.31 21.898 43.025-32.015s-42.254-2.81-40.556-3.494c1.697-0.683 42.628-4.342 42.628-4.342l-46.297-33.923 53.385 19.926s-15.056-54.785-14.306-53.903 25.833 43.345 25.833 43.345z" fill="url(#radialGradient4215-7)"/>
  </g>
  <g transform="matrix(-.20544 -.14968 .14968 -.20544 231.64 216.21)">
   <path d="m122.5 98.164 58.872-79.535-25.419 94.204 77.937-31.083-70.38 51.316 81.23 34.178-90.977-12.282 44.336 69.508-63.153-52.946-5.746 63.302-10.536-59.103-43.217 45.24 21.057-59.3-69.179 32.713 64.273-47.826s-63.12-4.199-60.585-5.22c2.535-1.02 63.68-6.486 63.68-6.486l-69.162-50.674 79.748 29.766s-22.489-81.84-21.37-80.522c1.12 1.317 38.59 64.75 38.59 64.75z" fill="#fc0" stroke="#fc0" stroke-width="4.84"/>
   <path d="m125.12 110.87 39.41-53.242-17.016 63.062 52.173-20.808-47.114 34.353 54.377 22.879-60.902-8.222 29.68 46.53-42.277-35.443-3.846 42.376-7.053-39.565-28.93 30.285 14.096-39.697-46.31 21.898 43.025-32.015s-42.254-2.81-40.556-3.494c1.697-0.683 42.628-4.342 42.628-4.342l-46.297-33.923 53.385 19.926s-15.056-54.785-14.306-53.903 25.833 43.345 25.833 43.345z" fill="url(#radialGradient4215-7)"/>
  </g>
 </g>
 <g fill="#fde891">
  <path d="m35.283 182.37c1.4127 0.65097 3.3204 1.9151 5.3206 4.2527 1.5153 1.7709 2.8951 3.931 4.1523 6.4443 2.3062 4.6104 3.7335 9.4753 4.6207 12.375 0.36896 1.2059 0.82637 2.7131 1.3403 4.5717 1.5145 5.4773 2.8647 11.683 3.9486 18.742 1.1522 7.5053 1.6269 13.543 1.7109 16.127-0.08686-2.6702-0.13917-8.5496-0.84615-16.233-0.6486-7.0491-1.6656-13.575-2.9667-19.108-0.44586-1.8961-0.87802-3.4722-1.2513-4.6921-0.89209-2.9156-2.7653-7.8848-5.5136-12.363-1.5141-2.4671-3.1332-4.534-4.8434-6.1947-2.2621-2.1966-4.2564-3.2697-5.6723-3.9221z"/>
  <path d="m219.56 182.94c-1.5659 0.56694-3.7303 1.4565-6.1974 3.1686-2.4854 1.7249-4.8546 3.9924-7.076 6.8465-3.4671 4.4546-5.8267 9.4138-6.9675 12.343-0.47692 1.2247-1.0321 2.8082-1.6073 4.7143-1.6795 5.5659-3.0028 12.113-3.8598 19.184-0.9322 7.6911-1.0281 13.599-1.1381 16.257 0.10717-2.5887 0.68258-8.6143 2.1163-16.104 1.347-7.0365 3.0383-13.223 4.9414-18.667 0.64591-1.8474 1.2238-3.3496 1.691-4.5495 1.1227-2.8831 2.9658-7.7632 5.9306-12.394 4.0567-6.3368 8.517-9.4774 12.167-10.799z"/>
  <path d="m79.77 191.72c-0.58028 2.1994-1.2688 5.2001-1.4332 11.083-0.11328 4.0541 0.07672 8.3082 0.29092 10.61 0.09209 0.98968 0.23549 2.2519 0.42813 3.7535 0.59633 4.6484 1.3269 9.1515 2.1818 14.894 0.93663 6.2911 1.4264 10.367 1.5247 12.995-0.12873-3.4408-0.17878-5.9157-0.73545-13.084-0.40293-5.1888-0.90776-10.925-1.243-14.987-0.12101-1.4664-0.23056-2.7953-0.31868-3.7423-0.21112-2.2688-0.7544-6.4856-1.0408-10.463-0.40078-5.5653-0.18267-9.0571 0.34556-11.059z"/>
 </g>
 <g transform="matrix(.15247 -.10655 -.11109 -.14625 154.24 224.1)" fill-rule="evenodd">
  <path d="m122.5 98.164 58.872-79.535-25.419 94.204 77.937-31.083-70.38 51.316 81.23 34.178-90.977-12.282 44.336 69.508-63.153-52.946-5.746 63.302-10.536-59.103-43.217 45.24 21.057-59.3-69.179 32.713 64.273-47.826s-63.12-4.199-60.585-5.22c2.535-1.02 63.68-6.486 63.68-6.486l-69.162-50.674 79.748 29.766s-22.489-81.84-21.37-80.522c1.12 1.317 38.59 64.75 38.59 64.75z" fill="#fc0" stroke="#fc0" stroke-width="4.84"/>
  <path d="m125.12 110.87 39.41-53.242-17.016 63.062 52.173-20.808-47.114 34.353 54.377 22.879-60.902-8.222 29.68 46.53-42.277-35.443-3.846 42.376-7.053-39.565-28.93 30.285 14.096-39.697-46.31 21.898 43.025-32.015s-42.254-2.81-40.556-3.494c1.697-0.683 42.628-4.342 42.628-4.342l-46.297-33.923 53.385 19.926s-15.056-54.785-14.306-53.903 25.833 43.345 25.833 43.345z" fill="url(#radialGradient4215-7)"/>
 </g>
 <path d="m163.2 200.41c2.7087 0.94066 6.0264 3.1838 9.0437 7.7009 2.2044 3.3001 3.5757 6.7764 4.408 8.8265 0.34646 0.85337 0.77476 1.9219 1.253 3.2355 1.4092 3.87 2.6608 8.2712 3.6563 13.277 1.0599 5.3292 1.4833 9.6168 1.5628 11.46-0.0816-1.8902-0.15646-6.0993-0.85246-11.576-0.64013-5.0367-1.626-9.7002-2.8756-13.667-0.42787-1.3583-0.8406-2.4865-1.1948-3.3589-0.84741-2.0872-2.5954-5.6156-5.1644-8.783-3.596-4.4337-7.1035-6.1663-9.8368-7.1155z" fill="#fde891"/>
</svg>
