<svg version="1.1" viewBox="0 0 64 64" xmlns="http://www.w3.org/2000/svg">
 <g stroke="#000" stroke-width=".5">
  <g>
   <path d="m41.953 4.45c-9.403 0-17.026 7.617-17.025 17.013a17 17 0 0 0 0.963 5.584c0.602 1.399 3.274 0.043 2.968-0.625a13.986 13.986 0 0 1-0.914-4.96c0-7.729 6.272-13.995 14.008-13.995s14.008 6.266 14.008 13.996-6.272 13.996-14.008 13.996a14.018 14.018 0 0 1-5.922-1.33c-0.965-0.304-2.043 2.562-0.883 2.906a17.039 17.039 0 0 0 6.805 1.44c9.404 0 17.027-7.616 17.027-17.012 1e-3 -9.397-7.623-17.014-17.027-17.014z" fill="#ffd4f8" stroke-linecap="round" stroke-linejoin="round"/>
   <path d="m26.2 34.465s-0.298-1.633 1.45-3.461c1.752-1.834 5.941-2.691 6.607-1.907 0.687 0.81-1.303 4.447-3.326 5.592-2.322 1.315-3.938 0.818-3.938 0.818s-2.93 1.25-4.412 3.553c-1.268 1.97 0.208 3.942-0.929 5.99-1.185 2.136-5.389 1.899-7.239 3.494-2.335 2.013-0.994 5.666-3.001 10.714 1.283-4.862-0.138-9.324 2.27-11.202 1.86-1.451 5.85-1.366 6.959-3.45 1.06-1.992-0.435-3.85 0.796-5.742 1.648-2.532 4.763-4.399 4.763-4.399z" fill="#ebefef" fill-rule="evenodd"/>
   <path d="m39.17 10.008c1.77-0.318 3.592-0.362 5.487-0.015l0.062 8.48 8.324-0.094c0.37 1.779 0.403 3.61 0.11 5.471l-8.309 0.047 0.11 8.449c-1.817 0.262-3.657 0.402-5.597 0.046v-8.401l-8.651 0.078c-0.366-1.868-0.314-3.709-0.016-5.534l8.636-0.088z" fill="#ff56b9" fill-rule="evenodd"/>
  </g>
  <g>
   <path d="m58.205 43.458c-3.9719-3.8798-10.335-3.8076-14.211 0.16172a10.038 10.038 0 0 0-1.8972 2.7561c-0.32296 0.83934 1.3652 1.3691 1.5116 0.96063a8.2586 8.2586 0 0 1 1.6605-2.4723c3.1891-3.2648 8.4239-3.3237 11.692-0.13174 3.2678 3.192 3.3317 8.4267 0.14219 11.692-3.1895 3.2652-8.4243 3.3241-11.692 0.13217a8.2775 8.2775 0 0 1-1.9527-3.0053c-0.28219-0.52658-1.9201 0.23924-1.572 0.86318a10.061 10.061 0 0 0 2.2803 3.4161c3.9723 3.8802 10.335 3.8085 14.212-0.16048 3.8777-3.969 3.8002-10.332-0.17218-14.212z" fill="#ffd4f8" stroke-linecap="round" stroke-linejoin="round"/>
   <path d="m49.543 43.881c1.0452-0.18778 2.121-0.21376 3.24-0.0088l0.03661 5.0074 4.9152-0.05551c0.21848 1.0505 0.23797 2.1317 0.06495 3.2306l-4.9064 0.02775 0.06495 4.989c-1.0729 0.15471-2.1594 0.23738-3.305 0.02716v-4.9607l-5.1083 0.04605c-0.21612-1.103-0.18541-2.1901-0.0094-3.2678l5.0995-0.05197z" fill="#ff56b9" fill-rule="evenodd"/>
   <path d="m5.808 5.4137c-3.828 4.0218-3.6735 10.383 0.34577 14.208a10.038 10.038 0 0 0 2.7804 1.8614c0.84346 0.31206 1.3513-1.3828 0.94097-1.5239a8.2586 8.2586 0 0 1-2.4936-1.6283c-3.3058-3.1465-3.4325-8.3801-0.28316-11.689 3.1494-3.3088 8.3828-3.4405 11.689-0.2936 3.3063 3.1469 3.433 8.3805 0.28359 11.689a8.2775 8.2775 0 0 1-2.9798 1.9915c-0.52288 0.28899 0.26409 1.9168 0.88347 1.5607a10.061 10.061 0 0 0 3.3863-2.3244c3.8284-4.0223 3.6743-10.383-0.34453-14.208-4.0189-3.826-10.381-3.666-14.209 0.35624z" fill="#ffd4f8" stroke-linecap="round" stroke-linejoin="round"/>
  </g>
 </g>
 <g fill-rule="evenodd" stroke="#000" stroke-width=".5">
  <path d="m11.441 5.5755c1.0452-0.18778 2.121-0.21376 3.24-0.0088l0.03661 5.0074 4.9152-0.05551c0.21848 1.0505 0.23797 2.1317 0.06495 3.2306l-4.9064 0.02775 0.06495 4.989c-1.0729 0.15471-2.1594 0.23738-3.305 0.02716v-4.9607l-5.1083 0.04605c-0.21612-1.103-0.18541-2.1901-0.0094-3.2678l5.0995-0.05197z" fill="#ff56b9"/>
  <path d="m13.213 26.078s0.91366-0.35496 1.2929-1.7995c0.38099-1.4484-0.48298-3.8208-1.0833-3.9135-0.6199-0.09519-1.8344 2.0304-1.7849 3.4021 0.05633 1.5747 0.80599 2.234 0.80599 2.234s0.27701 1.8605-0.4234 3.3181c-0.59905 1.247-2.0475 1.1141-2.7262 2.3193-0.70822 1.2565 0.71076 3.2982 0.48031 4.7221-0.29079 1.7971-2.5432 2.2518-4.4622 4.8222 2.0493-2.1486 4.7334-2.8133 4.9337-4.6053 0.15492-1.3843-1.1214-3.3654-0.41588-4.5676 0.67442-1.1491 2.0714-0.97146 2.6426-2.1757 0.76429-1.6119 0.74048-3.7562 0.74049-3.7562z" fill="#ebefef"/>
  <path d="m37.329 50.096s0.42788-0.88187 1.8984-1.1427c1.4745-0.26228 3.769 0.79122 3.8127 1.3971 0.04461 0.62558-2.1725 1.6637-3.5357 1.5032-1.565-0.18384-2.1613-0.98449-2.1613-0.98449s-1.8319-0.42697-3.3415 0.15294c-1.2914 0.49596-1.2765 1.9504-2.5327 2.5292-1.3098 0.60399-3.2297-0.97587-4.6676-0.86164-1.8147 0.14411-2.4506 2.3522-5.1682 4.0565 2.3077-1.8683 3.1878-4.4897 4.9902-4.544 1.3923-0.04215 3.2633 1.3906 4.5188 0.78489 1.2-0.57902 1.1362-1.9858 2.3828-2.4575 1.6686-0.63107 3.8039-0.43346 3.8039-0.43346z" fill="#ebefef"/>
 </g>
</svg>
