<?xml version="1.0" encoding="UTF-8" standalone="no"?>
<!-- Created with Inkscape (http://www.inkscape.org/) -->

<svg
   xmlns:dc="http://purl.org/dc/elements/1.1/"
   xmlns:cc="http://creativecommons.org/ns#"
   xmlns:rdf="http://www.w3.org/1999/02/22-rdf-syntax-ns#"
   xmlns:svg="http://www.w3.org/2000/svg"
   xmlns="http://www.w3.org/2000/svg"
   xmlns:xlink="http://www.w3.org/1999/xlink"
   xmlns:sodipodi="http://sodipodi.sourceforge.net/DTD/sodipodi-0.dtd"
   xmlns:inkscape="http://www.inkscape.org/namespaces/inkscape"
   width="100%"
   height="100%"
   viewBox="0 0 64.000001 64.000001"
   id="svg4311"
   version="1.1"
   inkscape:version="0.91 r13725"
   sodipodi:docname="cavernBioluminescent.svg">
  <defs
     id="defs4313">
    <linearGradient
       inkscape:collect="always"
       id="cavernStaircaseGradient">
      <stop
         style="stop-color:#ff5555;stop-opacity:1"
         offset="0"
         id="stop4184" />
      <stop
         style="stop-color:#ff8080;stop-opacity:1"
         offset="1"
         id="stop4186" />
    </linearGradient>
    <linearGradient
       inkscape:collect="always"
       xlink:href="#cavernStaircaseGradient"
       id="linearGradient15"
       x1="29.499998"
       y1="1025.4872"
       x2="44.125"
       y2="1003.3622"
       gradientUnits="userSpaceOnUse"
       gradientTransform="matrix(1.2884366,0,0,1.290513,-9.2250812,-296.31254)" />
  </defs>
  <sodipodi:namedview
     id="base"
     pagecolor="#ffffff"
     bordercolor="#666666"
     borderopacity="1.0"
     inkscape:pageopacity="0.0"
     inkscape:pageshadow="2"
     inkscape:zoom="8.0000004"
     inkscape:cx="42.655144"
     inkscape:cy="17.264863"
     inkscape:document-units="px"
     inkscape:current-layer="layer1"
     showgrid="false"
     units="px"
     inkscape:window-width="2560"
     inkscape:window-height="1388"
     inkscape:window-x="-8"
     inkscape:window-y="-8"
     inkscape:window-maximized="1" />
  <metadata
     id="metadata4316">
    <rdf:RDF>
      <cc:Work
         rdf:about="">
        <dc:format>image/svg+xml</dc:format>
        <dc:type
           rdf:resource="http://purl.org/dc/dcmitype/StillImage" />
        <dc:title></dc:title>
      </cc:Work>
    </rdf:RDF>
  </metadata>
  <g
     inkscape:label="Layer 1"
     inkscape:groupmode="layer"
     id="layer1"
     transform="translate(0,-988.36216)"
     style="display:inline">
    <ellipse
       ry="30.381458"
       rx="30.382944"
       cy="1020.3683"
       cx="32.000488"
       id="ellipse4146"
       style="display:inline;fill:url(#linearGradient15);fill-opacity:1;fill-rule:evenodd;stroke:none;stroke-width:5.4000001;stroke-linecap:butt;stroke-linejoin:miter;stroke-miterlimit:4;stroke-dasharray:none;stroke-opacity:1" />
    <path
       inkscape:connector-curvature="0"
       style="fill:#ffffff;fill-rule:evenodd;stroke:#ffffff;stroke-width:1px;stroke-linecap:butt;stroke-linejoin:miter;stroke-opacity:1"
       d="m 32.399267,998.63357 c -13.716649,0.20524 -20.6132,8.04673 -20.728516,21.74223 -0.04511,5.3573 41.425405,5.2881 41.675785,-0.2208 0.58547,-12.8812 -10.79151,-21.6734 -20.947269,-21.52143 z m -6.103516,2.13863 a 2.0228561,3.5717013 72.170746 0 1 1.541016,0.3946 2.0228561,3.5717013 72.170746 0 1 -0.763672,3.08 2.0228561,3.5717013 72.170746 0 1 -4.828125,0.5586 2.0228561,3.5717013 72.170746 0 1 0.763672,-3.08 2.0228561,3.5717013 72.170746 0 1 3.287109,-0.9532 z m 9.519535,2.5176 a 5.0381806,3.9489991 62.329753 0 1 1.55078,0.2754 5.0381806,3.9489991 62.329753 0 1 3.57422,6.1582 5.0381806,3.9489991 62.329753 0 1 -4.75782,2.9356 5.0381806,3.9489991 62.329753 0 1 -3.574215,-6.1582 5.0381806,3.9489991 62.329753 0 1 3.207035,-3.211 z m 10.57812,5.5039 a 3.5717013,2.0228561 45.828793 0 1 1.83399,0.5391 3.5717013,2.0228561 45.828793 0 1 2.64453,4.0801 3.5717013,2.0228561 45.828793 0 1 -3.10157,0.6816 3.5717013,2.0228561 45.828793 0 1 -2.64257,-4.0781 3.5717013,2.0228561 45.828793 0 1 1.26562,-1.2227 z m -20.755858,3.3633 a 3.9332812,4.3310289 0 0 1 3.933594,4.3301 3.9332812,4.3310289 0 0 1 -3.933594,4.3301 3.9332812,4.3310289 0 0 1 -3.933594,-4.3301 3.9332812,4.3310289 0 0 1 3.933594,-4.3301 z m -10.5625,2.5273 a 1.5376083,2.8413365 0 0 1 1.537109,2.8418 1.5376083,2.8413365 0 0 1 -1.537109,2.8418 1.5376083,2.8413365 0 0 1 -1.53711,-2.8418 1.5376083,2.8413365 0 0 1 1.53711,-2.8418 z m 25.417968,2.2715 a 2.9225932,3.5474453 82.22395 0 1 3.05273,1.4629 2.9225932,3.5474453 82.22395 0 1 -1.5371,4.0117 2.9225932,3.5474453 82.22395 0 1 -4.75977,-1.0683 2.9225932,3.5474453 82.22395 0 1 1.53711,-4.0117 2.9225932,3.5474453 82.22395 0 1 1.70703,-0.3946 z"
       id="path4150" />
    <path
       style="fill:#ffffff;fill-rule:evenodd;stroke:#ffffff;stroke-width:1px;stroke-linecap:butt;stroke-linejoin:miter;stroke-opacity:1"
       d="m 23.692518,1038.0982 c -1.500258,5.9368 19.257328,5.2317 18.252198,0.4861 -0.94384,-4.4563 -1.618164,-7.7168 -1.901464,-12.0906 -4.918735,0.353 -10.672313,0.3283 -14.451632,0.037 -0.03371,3.4387 -0.839659,7.3746 -1.899102,11.567 z"
       id="path4152"
       inkscape:connector-curvature="0"
       sodipodi:nodetypes="ssccs" />
  </g>
</svg>
