<svg cursor="default" version="1.1" viewBox="0 0 256 256" xmlns="http://www.w3.org/2000/svg">
 <g transform="translate(-4.4104 -2.8764)" stroke-linecap="round" stroke-linejoin="round">
  <path d="m146.31 70.762v10.547h26.271l-0.12395-10.58z" fill="#f2f2f2" stroke="#000" stroke-width=".5"/>
  <g fill="none">
   <path d="m147.18 75.722 24.864 0.01695" stroke="#5c5c5c" stroke-dasharray="0.5, 0.5" stroke-width=".25"/>
   <g stroke="#000" stroke-width=".5">
    <path d="m147.61 75.099v-2.4369l1.6635 2.4369 0.0616-2.4979"/>
    <path d="m150.96 75.203 0.0255-1.4726"/>
    <path d="m150.31 72.659 0.67023 1.0714 0.74679-1.1219"/>
   </g>
   <g>
    <g transform="matrix(.90874 0 0 .89862 13.059 7.7786)" stroke="#000" stroke-width=".5533">
     <path d="m153.38 74.923 0.88887-2.7748 1.1409 2.7591"/>
     <path d="m153.74 73.926 1.2395-0.0075"/>
    </g>
    <path d="m148.97 78.036c-0.0335-0.7166-1.4628-1.0452-1.4475-0.0044 0.0127 0.86797 1.442 0.39009 1.4187 1.2578-0.0205 0.76282-1.4393 0.77677-1.3603-0.0015" stroke="#000" stroke-width=".5"/>
    <path d="m146.77 80.483 24.864 0.01695" stroke="#5c5c5c" stroke-dasharray="0.5, 0.5" stroke-width=".25"/>
   </g>
   <g stroke="#000" stroke-width=".5">
    <path d="m150.25 77.469-0.0306 2.4265"/>
    <path d="m149.58 77.379 1.3541-0.01497"/>
    <path d="m152.05 77.356c-0.7608-0.02602-0.89515 2.5235 0.078 2.5098 0.77648-0.01093 0.77155-2.4807-0.078-2.5098z"/>
    <path d="m154.54 79.86-1.076-1.0886c1.367 0.15599 1.4588-1.5807-0.011-1.4084l-0.0474 2.4843"/>
   </g>
  </g>
  <g transform="matrix(.69648 0 0 .78689 51.327 16.843)" fill="none" stroke="#000" stroke-width=".6754">
   <path d="m151.04 80.06-1.6278-0.02808v-3.1186l1.5675 0.01986"/>
   <path d="m149.55 78.532 1.0211 0.0082"/>
  </g>
  <g stroke="#000" stroke-width=".5">
   <path d="m157.82 79.848 0.38436-2.4819 0.45136 1.5788 0.46811-1.5664 0.44899 2.4695" fill="none"/>
   <path d="m167.56 77.55c-0.68425-0.42422-1.4068-0.07333-1.4056 0.95643 2e-3 1.5571 0.93831 1.3518 1.3299 1.2998l-0.0144-0.9736" fill="none"/>
   <path d="m167.02 78.716 0.80221 0.05171" fill="#f2f2f2"/>
  </g>
  <g fill="none" stroke="#000">
   <path d="m155.28 75.055v-2.4369l1.6635 2.4369 0.0616-2.4979" stroke-width=".5"/>
   <path d="m158.11 75.087c-0.0525 0.25605 0.15668 0.39704-0.3703 0.86159" stroke-width=".5"/>
   <g transform="matrix(.68875 0 0 .867 54.676 14.844)" stroke-width=".64704">
    <path d="m153.38 74.923 0.88887-2.7748 1.1409 2.7591"/>
    <path d="m153.74 73.926 1.2395-0.0075"/>
   </g>
   <path d="m162.33 79.82v-2.4102l1.264 2.4102 0.0468-2.4705" stroke-width=".5"/>
   <g transform="matrix(.69209 0 0 .86303 58.148 15.143)" stroke-width=".64696">
    <path d="m153.38 74.923 0.88887-2.7748 1.1409 2.7591"/>
    <path d="m153.74 73.926 1.2395-0.0075"/>
   </g>
  </g>
  <g transform="matrix(.69895 0 0 .77994 64.033 17.403)" fill="none" stroke="#000" stroke-width=".6772">
   <path d="m151.04 80.06-1.6278-0.02808v-3.1186l1.5675 0.01986"/>
   <path d="m149.55 78.532 1.0211 0.0082"/>
  </g>
  <path d="m171.43 79.883-1.076-1.101c1.367 0.15776 1.4588-1.5987-0.011-1.4244l-0.0474 2.5125" fill="none" stroke="#000" stroke-width=".5"/>
 </g>
</svg>
