<svg cursor="default" version="1.1" viewBox="0 0 256 256" xmlns="http://www.w3.org/2000/svg" xmlns:xlink="http://www.w3.org/1999/xlink">
 <defs>
  <linearGradient id="innoGrad2">
   <stop stop-color="#ff2a2a" offset="0"/>
   <stop stop-color="#f55" offset="1"/>
  </linearGradient>
  <linearGradient id="linearGradient1337" x1="118.75" x2="112.42" y1="123.3" y2="121.15" gradientUnits="userSpaceOnUse" xlink:href="#innoGrad2"/>
  <linearGradient id="linearGradient1345" x1="112.37" x2="116.59" y1="120.86" y2="103.89" gradientUnits="userSpaceOnUse" xlink:href="#innoGrad2"/>
  <linearGradient id="linearGradient1353" x1="63.322" x2="190.37" y1="168.54" y2="168.68" gradientUnits="userSpaceOnUse">
   <stop stop-color="#f55" offset="0"/>
   <stop stop-color="#ff8080" offset=".28472"/>
   <stop stop-color="#ff8080" offset=".64396"/>
   <stop stop-color="#f55" offset="1"/>
  </linearGradient>
 </defs>
 <path d="m99.98 39.714c-0.9878-0.39512-2.6667 0.31988-3.2649 1.8114-0.59835 1.4914 0.11038 3.171 1.0977 3.5913 1.2517 0.49225 2.7518-0.31856 3.3503-1.8108 0.59863-1.4922 0.0689-3.1005-1.1831-3.5919zm-0.46692 0.85242c0.712 0.27994 1.1208 1.5546 0.77989 2.4032-0.34054 0.84804-1.4208 1.3568-2.1325 1.0774-0.71149-0.27973-1.0725-1.3376-0.7326-2.1859 0.34006-0.84895 1.373-1.5743 2.0852-1.2947z" fill="#ffb380" stroke="#000" stroke-dashoffset="5.4" stroke-linecap="round" stroke-linejoin="round" stroke-width=".45023"/>
 <g fill="#f55" stroke="#000" stroke-dashoffset="5.4" stroke-linecap="round" stroke-linejoin="round">
  <path d="m145.16 34.52c-2.6028-10.703-4.4918-25.901 0.95878-31.017l-2.349-1.1505c-4.1934 8.6643-2.3841 17.503-0.29608 32.655 0.40743 2.9566-1.9628 6.1898-3.0968 8.2338l3.2324-2.2888c0.7633-2.1527 2.0608-4.3348 1.5507-6.4326z" stroke-width=".75"/>
  <path d="m149.26 31.175c2.3734-8.4537 4.096-20.457-0.87428-24.498l2.142-0.90874c3.8239 6.8434 2.174 13.824 0.26999 25.792-0.37152 2.3353 1.7898 4.8889 2.8238 6.5034l-2.9475-1.8078c-0.69603-1.7003-1.8792-3.4238-1.414-5.0807z" stroke-width=".6365"/>
  <path d="m145.35 5.4685c1.6269-0.22566 4.2885-1.683 4.2187 0.28764l-1.6299 45.974 1.7738-0.14382 1.3902-46.597c0.0315-1.056-0.81069-1.9932-5.7527 0.47939z" stroke-width=".75"/>
  <path d="m156.69 7.1943c-3.0157-3.2544-7.7274-2.7323-11.673-3.2599-0.17932 5.9271 0.16008 36.294-0.14382 54.555l1.7258-0.28764 0.33557-53.261c2.9807 0.46083 5.9646 1.0514 9.2523 2.9243z" stroke-width=".75"/>
 </g>
 <g stroke="#000" stroke-dashoffset="5.4" stroke-linecap="round" stroke-linejoin="round">
  <path d="m147.61 6.0135c1.0009-0.35629 1.843-1.0564 3.0508-0.96483 5.8168 0.44124 6.8573 28.143 4.2403 33.245-1.2083 1.6171-4.469-1.3761-4.4204-2.8479 1.1789 0.80977 2.7376 2.6527 3.3276 1.8634 2.0381-2.7265 2.3311-28.029-3.06-31.049-0.29368-0.16448-3.1382-0.24683-3.1382-0.24683z" fill="#ff8080" stroke-width=".6365"/>
  <path d="m111.3 13.877c3.0661-5.1101 18.67-14.421 35.777-9.1753 4.8112 1.4752 10.451 22.926 10.451 24.737l-0.57527 5.0816c0.01405-2.7908-6.327-25.292-10.259-27.325-10.553-5.458-30.156 0.1078-33.591 5.7735z" fill="#f55" stroke-width=".75"/>
  <path d="m157.83 33.568a2.6937 3.2444 0 0 0-2.6926 3.2446 2.6937 3.2444 0 0 0 2.6926 3.2446 2.6937 3.2444 0 0 0 2.6944-3.2446 2.6937 3.2444 0 0 0-2.6944-3.2446zm0 1.3981a1.5322 1.8454 0 0 1 1.5319 1.8465 1.5322 1.8454 0 0 1-1.5319 1.8446 1.5322 1.8454 0 0 1-1.5319-1.8446 1.5322 1.8454 0 0 1 1.5319-1.8465z" fill="#ffb380" stroke-width=".5"/>
 </g>
 <path d="m97.288 86.441c7.7413 8.3795 14.33 16.373 30.102 19.864 0.20919 15.423-5.2804 25.766-19.525 26.915z" fill="url(#linearGradient1345)" stroke="#000" stroke-dashoffset="5.4" stroke-linecap="round" stroke-linejoin="round" stroke-width=".75"/>
 <g>
  <path d="m124.32 108.26c-7e-3 -2e-3 0.0375-0.21408 0.0301-0.21651-1.0387-0.34126-6.3022-1.8849-10.878-4.2853-5.6203-2.9481-9.2326-6.469-11.577-9.8566 2.3562 3.4054 5.8582 6.9615 11.475 10.047 4.593 2.523 9.7717 4.151 10.846 4.504 7e-3 2e-3 0.0967-0.19462 0.10414-0.19219z"/>
  <path d="m122.16 113.51c-7e-3 -2e-3 0.038-0.21396 0.0307-0.21638-0.9519-0.31554-2.52-0.92417-4.7269-2.1429-1.6627-0.91822-3.5269-2.0966-5.4206-3.496-1.8989-1.4032-3.6332-2.8852-5.1035-4.3544-1.9778-1.9762-3.1409-3.5897-3.8173-4.7292 0.67913 1.1441 1.8068 2.7672 3.7566 4.7889 1.447 1.5003 3.1553 3.0195 5.0344 4.4669 1.872 1.4419 3.7239 2.6666 5.3802 3.6251 2.1957 1.2706 3.7857 1.9264 4.7619 2.25 8e-3 2e-3 0.0973-0.19439 0.10467-0.19196z"/>
  <path d="m125.42 109.97 0.40376-1.2746c-2.302-0.72923-5.1513-1.6334-8.0684-2.8183-2.9164-1.1846-5.4119-2.4532-7.6039-3.9124-4.177-2.7807-6.942-6.2147-8.2569-8.0625 1.2105 1.7011 3.6 5.789 7.4452 9.125 2.0822 1.8065 4.5443 3.4263 7.4816 4.9038 2.8918 1.4546 5.8768 2.5793 8.1948 3.3136l0.40376-1.2746z" fill-opacity=".25098"/>
  <path d="m121.42 114.44 0.42667-1.1214c-2.3424-0.89127-5.9352-2.412-10.476-5.9927-4.3661-3.4426-7.2857-7.0072-8.5944-9.1571 1.371 2.2523 3.657 5.9454 7.7985 10.055 4.1026 4.0709 7.9119 6.3838 10.419 7.3377l0.42667-1.1214z" fill-opacity=".25098"/>
 </g>
 <g stroke="#000" stroke-dashoffset="5.4" stroke-linecap="round" stroke-linejoin="round" stroke-width=".75">
  <path d="m100.19 98.471c1.5417 11.377 15.391 26.073 18.84 21.189-9.776 26.849-19.57-9.8801-18.84-21.189z" fill="url(#linearGradient1337)"/>
  <path d="m95.399 243.15c0.13086 4.3366 41.158 9.6856 56.185 8.3415 7.5089-0.67166 12.8-3.9588 15.436-6.6156 3.5354-32.292 11.077-50.009 9.6838-72.868-1.0518-17.258-14.408-32.16-14.478-49.282-0.0873-21.353 9.8975-32.349 10.355-41.228 0.71927-13.961-11.214-28.974-13.49-42.524-0.0456-0.27157-0.10429-0.98323-0.14197-1.2536-0.45249-0.56267-1.6881-0.51548-2.2053 0.16291-0.13405 0.17583 0.0186 1.0049-0.0788 1.2366-1.29 4.0444-20.404 22.34-24.257 34.325-5.1805 16.112-13.549 46.161-15.245 48.131-2.8726 3.3369-4.5812 3.8274-6.4239 3.7393-1.6829-0.0804-7.4407-20.047-11.647-40.983-2.916-14.514-2.1194-32.057-0.6446-38.698 0.06888-0.31012 0.57991-1.5117 0.65143-1.7728 0.08627-0.74583-0.89099-1.2328-1.4673-0.85992 0 0-0.4629 0.68112-0.7966 1.4514-3.7847 8.7356-12.996 19.341-12.846 28.608 0.31244 19.315 11.748 33.712 12.177 50.624 0.38425 15.173-8.9177 20.126-11.026 40.461-2.3454 22.622 8.6812 64.562 10.259 79.004z" fill="url(#linearGradient1353)"/>
  <path d="m146.97 2.6631c-1.0976-0.4511-2.0211-1.3376-3.3456-1.2216-6.379 0.55865-7.5201 35.631-4.6501 42.091 1.3251 2.0474 4.901-1.7423 4.8477-3.6057-1.2928 1.0252-3.0022 3.3585-3.6492 2.3592-2.2351-3.452-2.5564-35.487 3.3558-39.31 0.32205-0.20825 3.4415-0.3125 3.4415-0.3125z" fill="#ff8080"/>
  <path d="m143.22 4.4675c0.0326 1.2721 3.3849 1.765 3.3849 1.765 0.28837-1.1524 0.55911-2.3097-0.0701-3.7158 0 0-3.3476 0.66916-3.3148 1.9508z" fill="#f55"/>
 </g>
 <g>
  <path d="m90.744 76.138c0.44804 3.5012 1.453 8.498 3.869 15.813 1.7736 5.3702 3.9662 10.952 6.2692 16.317 2.2596 5.2634 4.4203 9.8375 5.849 12.787 0.82865 1.711 1.4947 3.0477 1.8802 3.8133 0.24342 0.48349 0.42044 0.82974 0.53161 1.0428 0.0672 0.12872 0.11662 0.22097 0.15248 0.28431 0.0153 0.027 0.0291 0.0505 0.0421 0.0715 4e-3 7e-3 9e-3 0.0145 0.0141 0.0221 8e-3 0.0122 0.0222 0.0336 0.0406 0.0581 8e-3 0.0102 0.0266 0.035 0.0526 0.0635 0.0125 0.0136 0.0374 0.0401 0.0721 0.0695 0.0204 0.0173 0.10911 0.0933 0.24707 0.14073 0.56126 0.18949 1.2113 0.27458 1.9508 0.18804 0.62003-0.0725 1.2826-0.26323 1.9904-0.58969 1.2296-0.56712 2.5745-1.5346 4.0365-2.9456 2.6093-2.5184 5.4408-6.3107 8.2112-10.943 2.7888-4.6632 5.2354-9.7072 7.1115-14.346 2.5444-6.2911 3.6509-10.818 4.1559-13.646-0.50125 2.807-1.7338 7.3505-4.4264 13.532-1.9914 4.5721-4.5709 9.5295-7.475 14.067-2.8967 4.5264-5.7953 8.1324-8.395 10.456-1.4545 1.2998-2.7143 2.1088-3.7788 2.545-0.60693 0.24868-1.1298 0.36785-1.5774 0.40235-0.52704 0.0406-0.95548-0.0356-1.3075-0.16067 0.1375 0.0473 0.22563 0.12289 0.24524 0.13952 0.0339 0.0288 0.058 0.0544 0.0695 0.0669 0.0239 0.0261 0.0405 0.048 0.0451 0.0541 0.0154 0.0203 0.0166 0.0228 0.0166 0.0226 1e-5 -9e-5 -8.2e-4 -1e-3 -2e-3 -4e-3 -7e-3 -0.0114-0.0178-0.0283-0.0249-0.0397-0.0294-0.0472-0.0781-0.12638-0.14984-0.24589-0.12012-0.2001-0.30912-0.52048-0.57704-0.98884-0.43805-0.76578-1.1277-1.9988-2.0366-3.6983-1.5557-2.9092-3.8273-7.3259-6.2493-12.539-2.4477-5.2677-4.7917-10.797-6.6907-16.098-2.5768-7.194-3.7195-12.253-4.1622-15.712z" fill-opacity=".50196"/>
  <path d="m107.07 134.95c-1.2237-1.1032-2.6698-2.981-4.3236-6.1264-1.4628-2.7823-2.5953-5.525-3.1513-6.6967-0.01099-0.0232-0.02219-0.0467-0.03361-0.0706-0.5546-1.1603-1.4432-3.6076-2.4683-6.3798-1.2214-3.3031-2.2489-5.2926-3.5301-7.2709 1.2272 1.895 2.2223 4.1297 3.2268 7.3739 0.8706 2.8118 1.6191 5.3473 2.1888 6.5537-1.99e-4 -4.2e-4 0.03352 0.0708 0.03332 0.0704 0.39399 0.8303 1.9705 4.081 3.4505 6.5787 1.8585 3.1362 3.3412 4.8263 4.6074 5.9678z"/>
  <path d="m144.16 88.516c-0.74177 4.1468-2.3142 9.5025-5.6264 15.342-3.2972 5.8129-7.6462 10.906-12.347 14.94-4.1342 3.548-7.9477 5.7734-10.727 6.9396-1.7434 0.73168-3.0277 1.0314-3.9105 1.1231-0.43328 0.045-0.76837 0.0403-1.024 0.0168-0.0956-9e-3 -0.18781-0.0213-0.276-0.0376-0.3221-0.0598-0.57244-0.16788-0.74775-0.32016-4e-3 -3e-3 -8e-3 -7e-3 -0.0117-0.0103-1e-3 -7.7e-4 -2e-3 -2e-3 -3e-3 -2e-3 -0.0499-0.0381-0.12708-0.10805-0.23484-0.22373-0.0974-0.10451-0.21464-0.2409-0.3541-0.41551-0.2531-0.31689-0.57223-0.7509-0.96603-1.328-0.6948-1.0181-1.6104-2.465-2.7436-4.3933-2.04-3.4713-4.7036-8.368-7.6057-14.277-1.6922-3.39-3.4809-6.281-4.9786-9.4588-2.1157-4.4892-3.326-8.7619-4.1244-13.165 0.80313 4.4289 1.92 8.664 3.9371 13.249 1.4197 3.2274 3.1173 6.1889 4.6932 9.6007 2.8008 5.9608 5.3794 10.938 7.3422 14.47 1.0909 1.9632 1.9779 3.4568 2.6531 4.5174 0.38299 0.60158 0.70065 1.0685 0.96039 1.4209 0.14332 0.1944 0.27091 0.35655 0.38453 0.48964 0.1231 0.14421 0.23635 0.2621 0.34204 0.35236l-0.0147-0.0126c0.36668 0.32922 0.8229 0.50195 1.2693 0.58622 0.12523 0.0236 0.25165 0.0407 0.37789 0.0523 0.33928 0.0312 0.75129 0.0273 1.2506-0.0368 1.0112-0.12974 2.3871-0.50882 4.1692-1.3208 2.8396-1.2939 6.6608-3.6806 10.744-7.361 4.6523-4.1935 8.9085-9.408 12.115-15.302 3.2228-5.9251 4.7136-11.283 5.4565-15.436z" fill-opacity=".50196"/>
 </g>
 <g>
  <path d="m149.39 3.6181c-0.62445-1.1087-3.8174 0.025363-3.8174 0.025363 0.2848 1.1533 0.58745 2.3027 1.8018 3.2505 0 0 2.6447-2.1587 2.0155-3.2758z" fill="#ff8080" stroke="#000" stroke-dashoffset="5.4" stroke-linecap="round" stroke-linejoin="round" stroke-width=".75"/>
  <path d="m90.744 76.138c0.44786 3.4997 1.5138 8.5034 4.0104 15.684 1.8333 5.2724 4.1045 10.757 6.5023 16.033 2.3293 5.1252 4.5498 9.5504 6.0741 12.494 0.85871 1.658 1.5382 2.9262 1.9616 3.7057 0.25002 0.46014 0.4348 0.79415 0.55366 1.0059 0.0676 0.12043 0.11789 0.2085 0.15218 0.26704 0.0184 0.0314 0.0339 0.0572 0.0458 0.0759 6e-3 9e-3 0.0132 0.0205 0.0209 0.0309 4e-3 5e-3 0.0105 0.0139 0.0197 0.0238 5e-3 5e-3 0.0129 0.0136 0.0245 0.0232 7e-3 6e-3 0.0363 0.03 0.081 0.0445 0.16205 0.0531 0.31978 0.0915 0.47102 0.11861 0.34397 0.0617 0.74205 0.0805 1.1979 0.0232 0.52891-0.0665 1.1246-0.23399 1.794-0.5431 1.118-0.51624 2.4015-1.4092 3.8595-2.7862 2.5264-2.386 5.3472-6.0156 8.1782-10.575 2.8015-4.512 5.2941-9.4211 7.2278-13.982 2.6142-6.1665 3.7811-10.642 4.3017-13.441-0.51926 2.7918-1.7296 7.2735-4.3936 13.402-1.9727 4.5381-4.5099 9.4174-7.3497 13.887-2.8736 4.523-5.7164 8.0907-8.2398 10.414-1.4554 1.34-2.7113 2.1822-3.7767 2.6573-0.63591 0.28356-1.1862 0.42855-1.6599 0.48355-0.40766 0.0473-0.7563 0.0277-1.0522-0.0253-0.13057-0.0234-0.26639-0.0561-0.40581-0.10104 0.0441 0.0144 0.0724 0.0379 0.0791 0.0434 0.0109 9e-3 0.0184 0.0168 0.0219 0.0206 7e-3 8e-3 0.0113 0.0134 0.0121 0.0146 5e-3 7e-3 -3e-3 -3e-3 -3e-3 -4e-3 -7e-3 -0.0101-0.0203-0.0295-0.0386-0.0581-0.0337-0.0528-0.0844-0.13524-0.15451-0.25261-0.12382-0.2073-0.31247-0.53071-0.57131-0.98641-0.44127-0.77687-1.1295-2.0143-2.0129-3.6671-1.5642-2.9264-3.8208-7.307-6.1989-12.414-2.443-5.2449-4.7609-10.713-6.6324-15.964-2.546-7.1433-3.6537-12.164-4.1-15.652z"/>
  <path d="m144.16 88.516c-0.86249 4.8216-2.7743 11.002-6.9318 17.563-3.0675 4.841-6.8433 9.0648-10.843 12.469-4.0321 3.4316-7.8136 5.6283-10.646 6.786-1.6868 0.68946-2.9884 0.99542-3.9311 1.0804-0.58709 0.0529-1.0266 0.0201-1.3522-0.0472-0.13862-0.0286-0.25682-0.0636-0.35768-0.10086-0.18552-0.0686-0.34811-0.15978-0.48121-0.27712-2e-3 -2e-3 -4e-3 -4e-3 -6e-3 -5e-3 -1e-3 -9.5e-4 -2e-3 -2e-3 -4e-3 -3e-3 -0.0612-0.0494-0.14539-0.12689-0.25709-0.24464-0.0996-0.10495-0.21852-0.23924-0.35935-0.40921-0.25122-0.30322-0.56968-0.71718-0.96361-1.2687-0.68206-0.95485-1.5954-2.3297-2.7254-4.1818-2.0068-3.2892-4.6657-8.0367-7.5578-13.969-1.6697-3.3879-3.5083-6.2931-5.0509-9.4835-2.1876-4.5243-3.4123-8.7641-4.2126-13.177 0.8035 4.4309 1.9656 8.6459 4.0885 13.236 1.4912 3.2243 3.2694 6.1769 4.8606 9.5759 2.8264 5.9699 5.4305 10.774 7.39 14.107 1.1037 1.8773 2 3.2844 2.6714 4.2675 0.38803 0.5682 0.70643 1.0031 0.9628 1.3281 0.14383 0.18234 0.26953 0.33187 0.37928 0.45334 0.11886 0.13155 0.2221 0.23362 0.31291 0.31058 0.21095 0.18755 0.45411 0.31988 0.70405 0.4123 0.13739 0.0508 0.29198 0.0948 0.46597 0.1287 0.40825 0.0796 0.92023 0.10294 1.5611 0.0317 1.0254-0.11396 2.3847-0.4723 4.0943-1.2115 2.8716-1.2417 6.6581-3.5394 10.66-7.0532 3.975-3.4903 7.7052-7.7834 10.724-12.675 4.0942-6.6331 5.9415-12.816 6.8048-17.642z"/>
 </g>
 <g fill="#faa">
  <path d="m108.56 124.7c-0.18035-0.2571-0.63902-0.96196-1.347-2.1307-0.55935-0.92335-1.2947-2.1713-2.1802-3.7552-2.0243-3.6205-3.6741-6.8979-5.3108-10.187-0.37728-0.7582-0.86838-1.7472-1.4376-2.9158-1.2473-2.5354-3.363-5.6998-5.3179-9.3911-2.414-4.558-3.7127-8.7787-4.4911-13.071 0.78764 4.3435 1.9332 8.49 4.2415 13.198 1.8481 3.7698 3.8426 7.0028 5.025 9.5245 0.56065 1.183 1.0406 2.1673 1.4216 2.9331 1.5176 3.0497 3.5382 6.7763 5.5674 10.086 0.95467 1.5571 1.7477 2.7579 2.3641 3.6545 0.80208 1.1665 1.2522 1.7512 1.465 2.0545z"/>
  <path d="m144.16 88.516c-0.77138 3.7417-2.3518 8.7565-5.4734 14.183-2.9631 5.1509-6.2344 8.7984-7.996 10.709-0.56952 0.61781-1.2672 1.358-2.0928 2.1832-2.7392 2.7378-5.718 5.2315-8.6889 7.242-1.3158 0.89043-2.4237 1.5443-3.2666 1.9895-0.48705 0.25727-0.88342 0.44387-1.1951 0.57521-0.40594 0.17104-0.67158 0.24998-0.84178 0.2823 0.16965-0.0322 0.43979-0.0962 0.85682-0.24339 0.32085-0.11321 0.72895-0.27584 1.2329-0.50687 0.87354-0.40044 2.0163-0.99833 3.3809-1.8378 3.0498-1.8763 6.191-4.328 8.9908-7.0227 0.84801-0.81616 1.5677-1.5612 2.1418-2.1839 1.7724-1.9227 4.9714-5.757 7.786-11.016 2.9964-5.5987 4.3854-10.57 5.1655-14.354z"/>
  <path d="m90.744 76.138c0.57848 3.1002 1.691 7.5743 3.7178 13.349 1.9302 5.4989 4.04 10.335 5.2901 13.185 0.22582 0.51489 0.06018 0.13718 0.286 0.65206 0.99338 2.2668 2.9226 6.6157 4.5346 10.103 1.6889 3.6533 2.829 6.1412 3.249 7.0708-0.57931-1.2822-1.4333-2.8428-3.5095-6.9448-1.9357-3.8245-3.6016-7.3011-4.7862-10.004-0.08801-0.20083-0.18305-0.41966-0.28422-0.65479-1.2184-2.8319-3.2371-7.8044-5.0284-13.323-1.9198-5.9146-2.8752-10.25-3.4691-13.432z"/>
  <path d="m117.55 121.84c0.39971-0.38345 1.0634-1.0342 2.011-2.1255 0.71425-0.82264 1.5376-1.8359 2.4523-3.0554 2.2131-2.9504 4.1979-6.091 5.5913-8.5267 0.073-0.12764 0.14236-0.2498 0.20782-0.36598 1.1774-2.0896 3.2417-6.0365 5.2563-10.965 2.1335-5.2194 3.3505-9.4009 4.1485-12.462-0.77915 2.9887-2.1532 7.2814-4.3758 12.366-2.1453 4.9073-4.266 8.7013-5.4591 10.819 0.0224-0.0397-0.22822 0.40457-0.20586 0.36487-1.4153 2.5045-3.2085 5.5443-5.3587 8.6287-0.86789 1.245-1.6509 2.2891-2.3297 3.1359-0.89853 1.121-1.5418 1.8062-1.938 2.1863z"/>
 </g>
 <path d="m145.19 92.401c-0.86149 4.816-2.7079 11.005-7.0056 17.733-3.173 4.9674-7.1211 9.3317-11.328 12.896-4.2977 3.6415-8.3563 6.0229-11.388 7.3188-1.882 0.80458-3.3622 1.1944-4.4732 1.3254-0.63322 0.0746-1.152 0.0665-1.5774 7e-3 -0.077-0.0108-0.15437-0.0236-0.23175-0.0385-0.50061-0.0969-1.054-0.29668-1.5048-0.70317l0.0272 0.0233c-0.1292-0.11175-0.25758-0.2497-0.38763-0.40604-0.12043-0.14478-0.25248-0.31776-0.39768-0.52061-0.26222-0.36637-0.57951-0.84737-0.95844-1.4598-0.66598-1.0763-1.5412-2.5899-2.6153-4.5696-1.9277-3.5528-4.4711-8.565-7.231-14.552-1.526-3.4196-3.1853-6.4114-4.5724-9.6607-1.9763-4.6295-3.0525-8.845-3.8578-13.286 0.79638 4.3916 2.0456 8.6773 4.2037 13.128 1.5312 3.1577 3.3587 6.0193 5.0994 9.3988 2.9471 5.8907 5.647 10.754 7.7168 14.195 1.1522 1.9154 2.0798 3.3428 2.7814 4.3412 0.3986 0.56719 0.7184 0.98775 0.96797 1.289 0.13779 0.16636 0.25079 0.29225 0.34095 0.38454 0.0997 0.10206 0.16476 0.15569 0.18925 0.17005 5.8e-4 3.4e-4 1e-3 6.8e-4 2e-3 1e-3 8e-3 8e-3 0.0167 0.0151 0.0254 0.0223 0.0931 0.0766 0.26364 0.16219 0.55321 0.21721 0.0418 8e-3 0.0853 0.0151 0.13043 0.0214 0.24718 0.0346 0.60407 0.0586 1.1045 0.0229 0.88752-0.0633 2.2066-0.31483 4.0193-0.97738 2.9199-1.0673 6.9559-3.1576 11.335-6.5534 4.272-3.3125 8.346-7.4679 11.657-12.28 4.4774-6.5082 6.5159-12.684 7.3752-17.488z" fill-opacity=".50196"/>
 <g>
  <path d="m145.19 92.401c-0.86175 4.8175-2.8601 10.97-7.2696 17.427-3.2552 4.7673-7.2717 8.8802-11.513 12.16-4.2966 3.323-8.304 5.3953-11.258 6.4586-1.7825 0.64158-3.1273 0.90168-4.0726 0.96127-0.60103 0.0379-1.0298-5e-3 -1.3302-0.069-0.0684-0.0145-0.13025-0.0301-0.18622-0.0462-0.23273-0.0667-0.41013-0.15795-0.53571-0.26701-5e-3 -4e-3 -9e-3 -8e-3 -0.0135-0.0119-1e-3 -1e-3 -3e-3 -2e-3 -4e-3 -3e-3 -0.0484-0.0373-0.12411-0.10399-0.23125-0.21387-0.0956-0.0981-0.21197-0.22603-0.35135-0.39036-0.24991-0.29465-0.56878-0.70025-0.96442-1.2434-0.68845-0.94514-1.6094-2.3076-2.7484-4.1457-2.0306-3.2769-4.7121-8.0022-7.6282-13.911-1.7035-3.3853-3.5669-6.27-5.1304-9.445-2.214-4.496-3.4647-8.744-4.2643-13.153 0.80534 4.441 1.9416 8.6438 4.0369 13.261 1.4691 3.2371 3.2218 6.2088 4.7811 9.6145 2.7955 5.9785 5.3763 10.806 7.3197 14.164 1.0906 1.8843 1.98 3.3062 2.6483 4.3036 0.38457 0.57395 0.70301 1.0182 0.96199 1.3534 0.14468 0.18719 0.27314 0.34338 0.38728 0.47219 0.12556 0.14169 0.23979 0.25709 0.34563 0.34714l-0.0178-0.0152c0.31121 0.27893 0.6826 0.44941 1.0448 0.55326 0.0895 0.0257 0.1847 0.0488 0.28584 0.069 0.44461 0.0886 1.0013 0.11815 1.6987 0.0496 1.0904-0.10722 2.539-0.45764 4.3656-1.1894 3.0287-1.2135 7.0522-3.472 11.3-6.9521 4.2016-3.4426 8.139-7.6893 11.307-12.555 4.2958-6.5971 6.1732-12.758 7.0362-17.583z"/>
  <path d="m107.77 127.96c-0.18035-0.2571-0.63902-0.96196-1.347-2.1307-0.55935-0.92335-1.2947-2.1713-2.1802-3.7552-2.0243-3.6205-3.6741-6.8979-5.3108-10.187-0.37728-0.7582-0.86838-1.7472-1.4376-2.9158-1.2473-2.5354-3.363-5.6998-5.3179-9.3911-2.414-4.558-3.7127-8.7787-4.4911-13.071 0.78764 4.3435 1.9332 8.49 4.2415 13.198 1.8481 3.7698 3.8426 7.0028 5.025 9.5245 0.56065 1.183 1.0406 2.1673 1.4216 2.9331 1.5176 3.0497 3.5382 6.7763 5.5674 10.086 0.95467 1.5571 1.7477 2.7579 2.3641 3.6545 0.80208 1.1665 1.2522 1.7512 1.465 2.0545z" fill="#faa"/>
  <path d="m145.19 92.401c-0.88442 4.2901-2.7906 9.8042-6.6369 15.59-2.8538 4.293-5.8591 7.3557-7.4964 8.9818-0.60553 0.60136-1.3477 1.321-2.2269 2.1222-2.9226 2.6632-6.089 5.0588-9.2506 6.9938-1.3958 0.85431-2.57 1.4819-3.4539 1.9082-0.51114 0.24652-0.92552 0.42603-1.248 0.5524-0.42009 0.16462-0.6907 0.24191-0.86043 0.27414 0.16909-0.0321 0.44432-0.0945 0.87451-0.23488 0.33102-0.108 0.75596-0.26298 1.2829-0.4826 0.91264-0.3804 2.1182-0.94988 3.5602-1.751 3.2323-1.7958 6.5606-4.1436 9.5418-6.7608 0.90156-0.79148 1.6661-1.5152 2.2768-2.1216 1.6521-1.6407 4.6045-4.8538 7.3426-9.2615 3.7254-5.9967 5.4007-11.476 6.2943-15.81z" fill="#faa"/>
 </g>
 <g>
  <path d="m107.07 134.95c-1.248-1.1251-2.845-2.7872-4.9133-5.8461-1.5933-2.3563-2.9676-4.816-3.8665-6.5276-0.53852-1.0266-0.90922-2.0762-1.1161-2.751-0.29838-0.97336-0.48344-2.0432-0.88186-3.9091-0.67804-3.1755-1.4874-5.5935-2.729-7.5107 0.93227 1.4396 2.6046 4.6301 3.5484 7.2779 0.45171 1.2673 1.154 3.393 1.2701 3.7717 0.19534 0.63721 0.50111 1.6805 0.90962 2.6456 0.7589 1.7806 1.8805 4.2705 3.2816 6.745 1.7568 3.1027 3.3096 5.0339 4.497 6.1043z" fill-opacity=".50196"/>
  <path d="m107.07 134.95c-0.61298-0.55262-1.3932-1.4225-2.2769-2.8176-0.65786-1.0385-1.2759-2.2119-1.8813-3.501-1.3711-2.9195-2.4518-5.7642-3.0114-6.9448 3.9e-5 8e-5 -0.01507-0.0317-0.01503-0.0316-0.54969-1.1548-1.505-3.5343-2.6336-6.1903-1.3249-3.1179-2.4241-5.1067-3.6885-7.0592 1.2168 1.8789 2.3118 4.0734 3.4751 7.1449 1.286 3.3957 1.5503 4.4467 2.4302 6.3026 5.83e-4 1e-3 0.01425 0.0301 0.01484 0.0313 0.55313 1.167 1.7397 3.9672 3.2207 6.8493 0.65474 1.2742 1.3163 2.4277 2.0126 3.4491 0.9385 1.3766 1.7356 2.2104 2.3533 2.7673z" fill="#faa"/>
  <path d="m107.5 135.86c-0.40542-0.21737-0.96167-0.60481-1.6697-1.2957-0.52789-0.51505-1.0679-1.1273-1.6217-1.818-1.2492-1.558-2.3299-3.1841-2.8324-3.8639-0.01-0.0134-0.02-0.0271-0.0303-0.0409-0.50047-0.67316-1.4312-2.1885-2.4909-3.8948-1.2624-2.0325-2.1654-3.1731-3.1832-4.2238 0.97088 1.0024 1.8875 2.3068 3.0034 4.3292 0.96699 1.7525 1.8182 3.3394 2.3333 4.039-1.7e-4 -2.4e-4 0.0303 0.0411 0.0301 0.0408 0.35622 0.48196 1.7799 2.3724 3.0084 3.7509 0.59412 0.66664 1.1683 1.2515 1.7264 1.7428 0.75214 0.66218 1.3163 1.0144 1.7265 1.2344z"/>
  <path d="m107.5 135.86c-0.82996-0.44499-1.9562-1.1949-3.5917-2.8158-1.2613-1.2501-2.4375-2.6393-3.2265-3.6212-0.47207-0.58793-0.8632-1.2362-1.0965-1.6592-0.3308-0.59981-0.62848-1.3182-1.168-2.5138-0.92486-2.0498-1.767-3.5167-2.7456-4.5271 0.73897 0.76296 2.2241 2.6116 3.2354 4.2682 0.50164 0.82176 1.2512 2.1107 1.3975 2.376 0.22176 0.40209 0.57374 1.0602 0.95671 1.6272 0.70887 1.0442 1.7274 2.484 2.8803 3.833 1.4463 1.6923 2.5672 2.6086 3.3583 3.0327z" fill-opacity=".50196"/>
  <path d="m107.5 135.86c-0.40831-0.21892-0.95768-0.6138-1.6595-1.3537-0.52234-0.55072-1.0514-1.2093-1.597-1.9545-1.2356-1.6876-2.3147-3.4058-2.8206-4.0909 3e-5 4e-5 -0.0136-0.0184-0.0136-0.0184-0.49641-0.66993-1.4419-2.112-2.526-3.7014-1.2724-1.8655-2.208-2.9821-3.2117-4.0183 0.9633 0.99458 1.9233 2.244 3.0865 4.1002 1.2834 2.048 1.6198 2.7283 2.4099 3.798 6.9e-4 9.3e-4 0.0127 0.0172 0.0134 0.0182 0.50029 0.67749 1.6413 2.3539 2.9421 4.0037 0.57508 0.72933 1.1295 1.37 1.6744 1.9051 0.73423 0.72103 1.2908 1.0916 1.7019 1.312z" fill="#faa"/>
  <path d="m116.56 134.67c1.9239-0.77362 6.6144-2.6646 11.83-5.8129 5.5744-3.365 9.0032-6.5263 10.926-8.9871 0.0167-0.0213 0.0335-0.0429 0.0504-0.0648 1.2651-1.6341 5.1837-6.5947 7.7956-11.952 3.1555-6.4727 4.1912-12.564 4.4984-18.03-0.30495 5.4241-1.576 11.578-4.8998 17.825-2.7277 5.1268-6.8805 10.022-8.1088 11.603-0.0163 0.021-0.0325 0.0417-0.0485 0.0622-1.8884 2.4172-4.9834 5.5607-10.455 9.1598-5.0296 3.3084-9.6934 5.4352-11.588 6.1969z"/>
  <path d="m116.56 134.67c1.551-0.62367 6.9342-2.9109 11.807-5.7899 4.8614-2.8724 8.3732-5.7942 10.589-8.7888 0.83108-1.1229 1.3738-1.8753 1.9739-2.7081 1.1471-1.5919 3.6962-4.965 5.878-9.3446 3.1906-6.4047 4.5479-12.819 4.8527-18.215-0.31118 5.5096-1.1679 11.743-4.0341 18.59-1.9368 4.6264-4.2764 8.2134-5.4625 9.8594-0.55846 0.77504-1.2454 1.6688-2.0785 2.6949-2.4949 3.08-6.3867 5.897-11.402 8.4839-4.9171 2.5361-10.736 4.6611-12.122 5.2187z" fill-opacity=".50196"/>
  <path d="m116.56 134.67c1.1532-0.46369 3.0207-1.2566 5.5953-2.6538 1.9275-1.0461 4.0726-2.336 6.2753-3.8384 5.5532-3.7877 9.093-7.2738 10.96-9.6686 0.0143-0.0184 0.0288-0.037 0.0433-0.0557 1.1018-1.4229 5.3126-6.5934 7.7602-11.299 3.14-6.0363 4.1569-11.864 4.4657-17.331-0.13066 2.3135-0.47875 5.267-1.3189 8.4154-0.8465 3.1721-2.0465 6.0143-3.575 8.6823-2.5023 4.3679-7.0872 9.6219-8.1056 10.933-2.9e-4 3.8e-4 -0.0415 0.0533-0.0418 0.0537-1.8525 2.3761-5.0344 5.8309-10.473 9.8705-2.1245 1.578-4.2098 2.9523-6.0864 4.0698-2.4966 1.4867-4.359 2.3639-5.4994 2.8224z" fill="#faa"/>
  <path d="m151.79 123.59c-0.52274 0.41402-1.4139 0.96458-2.9548 1.6439-1.149 0.50653-2.5011 1.0158-4.018 1.532-3.4217 1.1642-6.9554 2.1415-8.4522 2.6163-0.0296 9e-3 -0.0597 0.0189-0.0902 0.0287-1.4971 0.4786-4.8394 1.3659-8.5858 2.3703-4.4811 1.2014-6.9859 2.0714-9.3722 3.076 2.2324-0.93978 5.1007-1.7849 9.4506-2.757 4.5456-1.0157 6.5254-1.3704 8.7077-2.0586-4.2e-4 1.3e-4 0.0905-0.0286 0.09-0.0285 1.0848-0.34406 5.2412-1.7096 8.3666-2.9342 1.5006-0.58797 2.8284-1.1617 3.9594-1.7258 1.5249-0.76065 2.3677-1.3426 2.8987-1.7632z"/>
  <path d="m151.79 123.59c-0.54401 0.43087-1.3719 1.0302-2.8108 1.8272-1.0633 0.58901-2.3217 1.209-3.7786 1.86-2.8556 1.2761-5.9944 2.4544-8.1895 3.2345-1.3009 0.46254-2.6987 0.82644-3.614 1.0364-1.2333 0.28284-2.8572 0.52745-5.3436 0.94122-4.3353 0.72144-7.5122 1.4314-9.7366 2.3678 1.7132-0.72121 5.8916-2.2289 9.5501-3.2215 1.969-0.53422 4.505-1.1819 5.2404-1.3506 0.86529-0.19844 2.3246-0.51308 3.5596-0.85712 2.2703-0.63599 5.3828-1.5471 8.3456-2.6168 1.486-0.53652 2.7875-1.0605 3.8798-1.5653 1.4695-0.67913 2.3646-1.2338 2.8977-1.656z" fill-opacity=".50196"/>
  <path d="m151.79 123.59c-0.52662 0.41709-1.4354 0.96258-3.0824 1.6352-1.226 0.50073-2.6766 0.99779-4.3091 1.5038-3.6973 1.1461-7.4274 2.1207-8.9331 2.5978 9e-5 -2e-5 -0.0404 0.0128-0.0404 0.0128-1.4823 0.47168-4.663 1.3727-8.1675 2.4068-4.1291 1.2184-6.5927 2.1222-8.9406 3.1106 2.2188-0.93405 4.9824-1.8361 9.0037-2.8833 4.3854-1.1419 5.9667-1.4605 8.2476-2.183-2e-3 5e-4 0.0417-0.0132 0.0401-0.0127-0.34655 0.10981 6.8288-2.1239 8.8639-2.8234 1.6223-0.55762 3.0572-1.1009 4.2722-1.6433 1.6375-0.73101 2.5137-1.3003 3.0456-1.7215z" fill="#faa"/>
 </g>
 <path d="m158.73 35.807-0.59755-24.79c-0.0703-2.9165-1.6364-4.2079-2.6168-4.8774 1.2598 10.994 1.0083 18.683 1.3031 29.677 0.74966 0.901 1.6556 0.37678 1.9113-0.0096z" fill="#ff8080" stroke="#000" stroke-dashoffset="5.4" stroke-linecap="round" stroke-linejoin="round" stroke-width=".75"/>
 <path d="m100.05 41.728c5.0862-11.314 7.74-20.471 14.43-30.411l-3.1785 2.5596c-4.6023 9.0597-8.1778 17.545-12.685 27.144-0.11128 0.864 1.0331 1.2483 1.4334 0.70738z" fill="#ff8080" stroke="#000" stroke-dashoffset="5.4" stroke-linecap="round" stroke-linejoin="round" stroke-width=".75"/>
</svg>
