<svg xmlns="http://www.w3.org/2000/svg" cursor="default" viewBox="0 0 256 256">
    <g id="patternLayer" display="inline">
        <path fill="#ff8080" fill-rule="evenodd" stroke="#000" d="M193.866 243.187c-15.915-.16-23.765.226-38.261-.34-10.627-.414-24.635-1.623-37.604-1.987-16.483-.462-32.533.055-51.415 1.064 2.272-44.78 1.937-89.503 1.516-133.011-8.91 4.708-13.089 9.51-22.981 13.813-12.538-13.821-23.245-22.757-34.85-34.092 26.31-28.64 32.83-34.85 49.244-52.276 14.647-9.572 24.01-13.668 35.315-19.902 14.17 45.805 55.74 37.79 68.64-1.428 17.423 6.647 25.002 12.563 36.962 18.805 17.706 19.702 32.19 35.565 48.235 53.285-10.017 12.712-22.055 23.403-33.083 35.103-9.53-3.027-13.836-9.97-20.56-16.744-1.683 42.805-.686 95.208-1.158 137.71z"/>
    </g>
    <g>
        <path fill="#f55" fill-rule="evenodd" stroke="#000" d="M97.035 20.719c25.609 56.27 66.686 11.482 64.65-1.137z"/>
        <path fill="#ff8080" fill-rule="evenodd" stroke="#000" d="M97.792 15.194l1.642-1.105c19.745 5.856 44.134 7.179 58.841-.757l5.114 2.525c1.82.976-1.642 3.47-4.21 5.921-10.837 4.457-42.409 6.563-60.544-.105-1.78-1.487-.42-3.21-.843-6.479z"/>
        <path fill="none" stroke="#000" d="M193.946 243.457c-15.914-.16-23.764.226-38.26-.34-10.628-.413-24.635-1.623-37.605-1.986-16.483-.462-32.532.054-51.414 1.064 2.271-44.781 1.936-89.504 1.515-133.012-8.91 4.708-13.088 9.51-22.98 13.814-12.539-13.822-23.245-22.758-34.85-34.093 26.31-28.64 32.829-34.85 49.244-52.276 14.646-9.572 24.01-13.668 35.315-19.902 14.169 45.806 55.74 37.79 68.64-1.427 17.423 6.646 25.002 12.563 36.961 18.804 17.706 19.703 32.191 35.565 48.235 53.286-10.017 12.711-22.054 23.402-33.082 35.102-9.53-3.027-13.837-9.97-20.56-16.744-1.683 42.805-.686 95.208-1.159 137.71z"/>
        <path fill="#faa" fill-rule="evenodd" stroke="#000" d="M93.102 17.688c13.316 48.14 65.258 37.497 71.668-1.999l-5.37-1.863c-4.405 39.456-53.108 44.894-61.694 1.412z"/>
        <path fill="none" stroke="#faa" stroke-dasharray="1,.5" stroke-width=".5" d="M68.337 88.375c-.564-46.362-5.43-34.49-8.15-51.669"/>
        <path fill="none" stroke="#000" d="M68.127 109.804c.25-7.76.37-16.247.63-24.526"/>
        <path fill="none" stroke="#faa" stroke-dasharray=".97331638,.48665819" stroke-width=".487" d="M194.326 92.247c-8.714-23.918 3.984-60.994 4.952-58.372"/>
        <path fill="none" stroke="#000" d="M195.073 106.615c.295-9.365-.667-14.417-1-21.625"/>
        <path fill="none" stroke="#faa" stroke-dasharray="1,.5" stroke-width=".5" d="M14.472 84.92c18.96 14.317 27.322 27.932 35.09 35.447M67.15 236.528c41.954-3.03 58.801.246 126.429 1.25M211.972 120.367c21.859-28.024 24.555-26.847 34.107-36.518"/>
        <path fill="#b3b3b3" fill-rule="evenodd" stroke="#000" d="M120.633 29.831c.446.09 15.446.18 15.446.18l-.446 2.32-14.911-.089z"/>
    </g>
</svg>
