<?xml version="1.0" encoding="UTF-8"?>
<svg version="1.1" viewBox="0 0 64 64" xml:space="preserve" xmlns="http://www.w3.org/2000/svg"><g stroke="#000" stroke-linecap="square" stroke-linejoin="bevel" stroke-width=".5"><path d="m38.869 5.5538-2.8672 0.62305 0.125 2.8965-2.2441 1.2461-2.1191-1.4316-2.1172 2.1484 1.4941 2.2754-1.4316 2.0879-2.5566-0.0625-0.77734 3.1465 2.3984 1.123-0.03125 2.5547-2.3984 1.1211 0.96484 2.9297 2.2441-0.4375 1.5254 2.6797-1.5566 1.7148 2.4609 2.3984 1.9316-1.4336 2.3066 1.4023-0.28125 2.5859 3.0234 0.6543 0.90234-2.2422h2.8984l1.1211 2.3672 3.1172-0.96484-0.46875-2.3379 2.4004-1.4648 2.2109 1.3711 2.0879-2.2734-1.4961-2.0254 1.5586-2.2441 2.5547 0.43555 0.9043-3.1465-2.5859-1.0898v-2.9297l2.3672-0.7168-0.7793-3.1152-2.7715 0.03125-1.1855-2.4629 1.3398-1.9004-2.2734-2.1191-2.0879 1.4336-2.0566-1.4023 0.09375-2.5859-2.9922-0.68555-1.0273 2.3066-2.6797-0.03125zm2.623 5.7148a9.5 9.5 0 0 1 9.5 9.5 9.5 9.5 0 0 1-9.5 9.5 9.5 9.5 0 0 1-9.5-9.5 9.5 9.5 0 0 1 9.5-9.5z" fill="#ff8080"/><path d="m20.266 22.275-1.2793 2.1797-2.5859 0.3125-1.7441-2.1504-2.7422 1.3086 0.68555 2.4629-1.4961 1.9941-2.7734-0.34375-1.0898 2.9922 2.4297 1.3711 0.25 2.6797-2.1816 1.5566 1.2773 2.8672 2.4004-0.93555 1.9941 1.8086-0.3125 2.6484 3.209 1.1523 1.0918-2.6172 2.5234-0.09375 1.6211 2.2754 2.959-1.5898-0.81055-2.2441 1.8398-2.2734 2.7422 0.4668 0.99609-3.0527-2.3359-1.0293-0.4375-2.8047 2.1816-1.4023-1.3711-2.8965-2.4922 0.7168-1.8691-1.7148 0.12305-2.959zm-2.1992 4.7051a6.2329 6.2329 0 0 1 6.2324 6.2344 6.2329 6.2329 0 0 1-6.2324 6.2324 6.2329 6.2329 0 0 1-6.2324-6.2324 6.2329 6.2329 0 0 1 6.2324-6.2344z" fill="#ffb380"/><path d="m25.799 41.958-0.1543 2.7715-1.8086 0.87305-2.6484-0.7793-1.5566 2.7734 2.2109 1.5586 0.21875 1.9316-2.3691 1.7129 1.8398 2.8984 2.2422-1.0898 1.9316 0.80859 0.1875 3.0234h3.6152l0.18555-3.0547 1.8398-0.96484 2.4609 1.0898 1.3711-2.9277-1.9629-1.5586-0.09375-2.1191 2.1504-1.4336-1.6523-2.9277-2.5547 1.0273-1.7129-0.87109-0.375-2.6797zm1.9629 4.6875a3.3124 3.3124 0 0 1 3.3125 3.3125 3.3124 3.3124 0 0 1-3.3125 3.3125 3.3124 3.3124 0 0 1-3.3125-3.3125 3.3124 3.3124 0 0 1 3.3125-3.3125z" fill="#ffe680"/></g></svg>
