<?xml version="1.0" encoding="UTF-8"?>
<svg version="1.1" viewBox="0 0 64 64" xmlns="http://www.w3.org/2000/svg">
 <g transform="matrix(.81 0 0 .81 6.0255 6.0985)" fill-rule="evenodd">
  <path d="m4.74 27.17c-9.109-13.898 10.898-21.648 18.29-10.789-2.154-13.035 16.492-20.33 19.99-3.546 2.683 12.875-11.099 17.85-8.447 37.5-10.14-16.672-22.737-12.34-29.833-23.165z" fill="#ff24d3" stroke="#000" stroke-width=".475"/>
  <path d="m41.475 18.415c-0.088-7.67-6.447-14.966-16.207-7.27 6.96-11.558 18.983-3.48 16.207 7.27z" fill="#fff" fill-opacity=".785"/>
  <path d="m39.063 34.031c1.53-9.06 12.43-4.274 11.344 2.914 3.995-5.992 14.18-1.56 9.327 6.44-3.724 6.138-11.097 2.697-17.358 11.497 2.153-10.562-4.506-13.792-3.313-20.85z" fill="#d42aff" stroke="#000" stroke-width=".475"/>
  <path d="m58.462 43.18c1.342-4.73-0.644-6.959-4.92-7.3 4.437-1.55 8.552 1.848 4.92 7.3z" fill="#fff" fill-opacity=".785"/>
  <path d="m9.72 52.14c-4.94-5.72 3.928-9.706 7.916-5.244-1.673-5.569 6.588-9.315 9.078-2.168 1.91 5.483-4.218 8.072-1.971 16.485-5.562-6.889-11.174-4.616-15.022-9.072z" fill="#f06" stroke="#000" stroke-width=".475"/>
  <path d="m25.377 46.654c-0.827-3.717-3.15-4.352-6.435-2.756 2.679-2.922 7.02-2.418 6.435 2.756z" fill="#fff" fill-opacity=".785"/>
 </g>
</svg>
