<?xml version="1.0" encoding="UTF-8"?>
<svg version="1.1" viewBox="0 0 64 64" xmlns="http://www.w3.org/2000/svg">
 <g transform="matrix(.729 0 0 .729 8.7515 8.9592)" fill-rule="evenodd">
  <g stroke-width=".856">
   <path transform="matrix(.29027 -.05863 .06637 .28051 -68.751 -277.48)" d="m7.862 1015.1c-0.024-14.737 19.915-15.62 24.403-6.885 3.668-8.902 24.456-9.123 24.398 7.059-0.041 11.62-12.317 22.903-24.45 36.117-12.07-12.803-24.331-24.22-24.35-36.29z" fill="#ffb380" stroke="#000"/>
   <path d="m10.144 1.855c0.864-0.515 2.036-0.49 3.08 0.094a4.034 4.034 0 0 1 1.396 2.647c-0.33-1.048-1.02-1.768-1.761-2.147-0.742-0.627-1.763-0.92-2.715-0.594z" fill="#fff"/>
  </g>
  <g stroke-width="1.174">
   <path transform="matrix(.19787 .08633 -.07763 .19528 130.36 -145.73)" d="m7.862 1015.1c-0.024-14.737 19.915-15.62 24.403-6.885 3.668-8.902 24.456-9.123 24.398 7.059-0.041 11.62-12.317 22.903-24.45 36.117-12.07-12.803-24.331-24.22-24.35-36.29z" fill="#ffb380" stroke="#000"/>
   <path d="m60.701 54.076c0.732 0.054 1.421 0.558 1.8 1.344a2.94 2.94 0 0 1-0.272 2.165c0.24-0.765 0.13-1.483-0.154-2.02-0.182-0.684-0.668-1.286-1.374-1.49z" fill="#fff"/>
  </g>
  <g stroke-width="1.611">
   <path transform="matrix(.1198 -.10206 .10314 .11327 -61.847 -53.817)" d="m7.862 1015.1c-0.024-14.737 19.915-15.62 24.403-6.885 3.668-8.902 24.456-9.123 24.398 7.059-0.041 11.62-12.317 22.903-24.45 36.117-12.07-12.803-24.331-24.22-24.35-36.29z" fill="#ffb380" stroke="#000"/>
   <path d="m46.807 55.678c0.27-0.463 0.82-0.753 1.456-0.75 0.517 0.102 0.996 0.4 1.331 0.87a1.908 1.908 0 0 0-1.372-0.544c-0.506-0.1-1.056 0.026-1.415 0.424z" fill="#fff"/>
  </g>
  <g stroke-width="1.174">
   <path transform="matrix(.19787 .08633 -.07763 .19528 79.34 -181.13)" d="m7.862 1015.1c-0.024-14.737 19.915-15.62 24.403-6.885 3.668-8.902 24.456-9.123 24.398 7.059-0.041 11.62-12.317 22.903-24.45 36.117-12.07-12.803-24.331-24.22-24.35-36.29z" fill="#ffb380" stroke="#000"/>
   <path d="m9.682 18.671c0.731 0.054 1.42 0.559 1.8 1.344a2.94 2.94 0 0 1-0.273 2.165c0.24-0.764 0.13-1.482-0.154-2.019-0.181-0.684-0.668-1.287-1.373-1.49z" fill="#fff"/>
  </g>
  <g stroke-width="1.611">
   <path transform="matrix(.14636 .05786 -.05158 .14425 69.504 -144.86)" d="m7.862 1015.1c-0.024-14.737 19.915-15.62 24.403-6.885 3.668-8.902 24.456-9.123 24.398 7.059-0.041 11.62-12.317 22.903-24.45 36.117-12.07-12.803-24.331-24.22-24.35-36.29z" fill="#ffb380" stroke="#000"/>
   <path d="m23.846 2.488c0.535 0.02 1.05 0.37 1.346 0.933a2.144 2.144 0 0 1-0.143 1.584 1.908 1.908 0 0 0-0.164-1.467c-0.15-0.494-0.52-0.92-1.039-1.05z" fill="#fff"/>
  </g>
  <g stroke-width="1.988">
   <path transform="matrix(.11671 -.05127 .05363 .1119 1.175 -66.304)" d="m7.862 1015.1c-0.024-14.737 19.915-15.62 24.403-6.885 3.668-8.902 24.456-9.123 24.398 7.059-0.041 11.62-12.317 22.903-24.45 36.117-12.07-12.803-24.331-24.22-24.35-36.29z" fill="#ffb380" stroke="#000"/>
   <path d="m59.961 43.95c0.317-0.295 0.812-0.392 1.305-0.242 0.376 0.2 0.68 0.542 0.83 0.985a1.546 1.546 0 0 0-0.938-0.741c-0.37-0.196-0.826-0.226-1.197-2e-3z" fill="#fff"/>
  </g>
  <g stroke="#000" stroke-width="1.256">
   <path d="m52.015 23.578 0.044-7.086-37.926 0.208 0.037 6.886z" fill="#ff8080"/>
   <path d="m51.968 38.126 0.044-7.085-37.927 0.207 0.038 6.886z" fill="#faa" fill-opacity=".706" stroke-opacity=".706"/>
   <path d="m51.573 53.13 0.044-7.085-37.926 0.207 0.037 6.886z" fill="#ffd5d5" fill-opacity=".471" stroke-opacity=".471"/>
  </g>
 </g>
</svg>
