<?xml version="1.0" encoding="UTF-8"?>
<svg version="1.1" viewBox="0 0 256 256" xml:space="preserve" xmlns="http://www.w3.org/2000/svg" xmlns:xlink="http://www.w3.org/1999/xlink"><defs><linearGradient id="linearGradient5783"><stop stop-color="#ffb380" stop-opacity=".5" offset="0"/><stop stop-color="#ffb380" stop-opacity="0" offset="1"/></linearGradient><radialGradient id="radialGradient5878" cx="107.77" cy="101.54" r="8" gradientTransform="matrix(.46639 .0017444 -.0017436 .46618 55.11 53.12)" gradientUnits="userSpaceOnUse" xlink:href="#linearGradient5783"/><radialGradient id="radialGradient5878-3" cx="107.77" cy="101.54" r="8" gradientTransform="matrix(1.1114 .0041568 -.0041549 1.1109 39.124 -3.2519)" gradientUnits="userSpaceOnUse" xlink:href="#linearGradient5783"/></defs><ellipse cx="105.19" cy="100.64" rx="4.4041" ry="4.4041" fill="url(#radialGradient5878)"/><ellipse cx="158.47" cy="109.99" rx="10.495" ry="10.495" fill="url(#radialGradient5878-3)"/><g transform="translate(-.82426 -.70521)" fill="none" stroke="#ff8080" stroke-linecap="square" stroke-linejoin="round" stroke-width="2"><path d="m69.358 124.53c-0.54782-2.2488-1.8877-3.4201-5.3319-3.4811-3.2364-0.0574-4.8759 1.9277-4.8912 4.054-0.01756 2.43 2.6303 3.1742 5.1556 3.7896 4.0395 0.98439 5.8177 1.5746 5.7725 4.4506-0.03762 2.3968-2.0525 3.9196-5.3319 3.9659-4.195 0.0592-5.5483-1.6253-6.0369-4.0099"/><path d="m75.307 125.63 0.08813 11.942"/><path d="m75.307 122.15 5e-6 -0.70503"/></g><g transform="translate(60.182 -.73038)" fill="none" stroke="#ff8080" stroke-linecap="square" stroke-linejoin="round" stroke-width="2"><path d="m69.358 124.53c-0.54782-2.2488-1.8877-3.4201-5.3319-3.4811-3.2364-0.0574-4.8759 1.9277-4.8912 4.054-0.01756 2.43 2.6303 3.1742 5.1556 3.7896 4.0395 0.98439 5.8177 1.5746 5.7725 4.4506-0.03762 2.3968-2.0525 3.9196-5.3319 3.9659-4.195 0.0592-5.5483-1.6253-6.0369-4.0099"/><path d="m75.307 125.63 0.08813 11.942"/><path d="m75.307 122.15 5e-6 -0.70503"/></g><g fill="none" stroke="#ff8080" stroke-linejoin="round"><g stroke-linecap="square" stroke-width="2"><path d="m96.692 119.11c-4.8127 0.0585-7.2875-3.3355-7.3148-8.1961-0.02838-5.0582 2.6005-8.1025 7.0945-8.108 4.2271-5e-3 7.1481 2.7996 7.2707 7.7554 0.13574 5.4836-2.937 8.4986-7.0504 8.5486z"/><path d="m66.243 142.07 0.08813 20.182"/><path d="m66.243 115.01v-22.121"/><path d="m53.905 120.65-17.89-10.399"/><path d="m202.1 119.59 17.89-10.399"/><path d="m80.167 119.68 4.6709-2.8202"/><path d="m108.37 116.77 6.2572 3.6133"/><path d="m127.14 115.19v-22.473"/><path d="m127.05 141.71 0.17626 20.975"/><path d="m140.89 119.68 5.1116-2.8202"/></g><path d="m123.09 81.344c-8.4279 11.216-21.563 52.053 0 89.188" stroke-linecap="round" stroke-width="1.5"/><path d="m160.7 81.696c8.4279 11.216 21.563 52.053 0 89.188" stroke-linecap="round" stroke-width="1.5"/></g><g transform="translate(121.61 -.46599)" fill="none" stroke="#ff8080" stroke-linecap="square" stroke-linejoin="round" stroke-width="2"><path d="m69.358 124.53c-0.54782-2.2488-1.8877-3.4201-5.3319-3.4811-3.2364-0.0574-4.8759 1.9277-4.8912 4.054-0.01756 2.43 2.6303 3.1742 5.1556 3.7896 4.0395 0.98439 5.8177 1.5746 5.7725 4.4506-0.03762 2.3968-2.0525 3.9196-5.3319 3.9659-4.195 0.0592-5.5483-1.6253-6.0369-4.0099"/><path d="m75.307 125.63 0.08813 11.942"/><path d="m75.307 122.15 5e-6 -0.70503"/></g><g fill="none"><g stroke="#ff8080" stroke-linejoin="round"><g stroke-linecap="square" stroke-width="2"><path d="m169.8 117.04 6.2572 3.6133"/><path d="m188.57 115.45v-22.473"/><path d="m188.48 141.98 0.17626 20.975"/></g><path d="m170.21 174.66v-3.1159c0.0403-2.5972-3.405-1.7204-3.3963-0.68545l0.0623 3.8014-0.0935-4.9854" stroke-linecap="round" stroke-width="1.5"/></g><path d="m103.57 103.07 1.7205-5.6308 1.8456 5.7038-4.6611-3.5348 5.683 0.01056z" stroke="#ffb380" stroke-linecap="round" stroke-width=".58388"/><path d="m154.19 116.25 4.2867-14.029 4.5984 14.211-11.613-8.8071 14.159 0.0266z" stroke="#ffb380" stroke-linecap="round" stroke-width="1.4548"/></g></svg>
