<?xml version="1.0" encoding="UTF-8"?>
<svg version="1.1" viewBox="0 0 64 64" xml:space="preserve" xmlns="http://www.w3.org/2000/svg"><g transform="matrix(.6561 0 0 .6561 10.973 11.015)"><path d="m16.701 50.041c-0.3886 2.5014-5.0158 1.9264-4.6738-0.87244 0.51035-4.1765 1.5358-13.282 8.5375-13.461 5.1836-0.13241 4.6775 3.0821 9.4722 2.4304 6.1615-0.83747 1.4118-10.95 3.9883-14.956-2.5366-4.0964-2.4426-6.9393-2.3681-10.843l6.1071 0.06232 0.68549 6.7926c3.9412-0.28842 11.852 0.34852 13.523 11.093 1.0454 6.7214-5.551 18.609-16.514 18.259-5.4698-0.17478-10.513-1.4177-13.772-7.2911-0.50722-0.91403-2.35-1.4155-2.9912 0.43622-0.90694 2.6191-1.5688 5.6122-1.9942 8.3505z" fill="#ff8080"/><g fill="#f55"><path d="m36.442 20.006c-1.2189-2.3223-1.2447-5.0025-1.322-7.6673l2.2914 0.39658 0.66098 6.1691z"/><path d="m19.301 40.628c-3.4751-2.0717-4.3288 5.2382-5.6844 10.752l2.3795-0.04407z"/><path d="m37.896 47.943c17.715-3.5259 18.527-25.004 5.3759-28.158 11.156 8.1089 6.011 23.35-5.3759 28.158z"/><path d="m31.418 41.686c-5.2693 0.33531-9.7743-4.5161-10.62-5.7725 4.0321 1.0972 7.9493 2.7115 12.426 1.8067z"/></g><g fill="none" stroke="#000" stroke-linejoin="round" stroke-width="1.5"><path d="m16.701 50.041c-0.3886 2.5014-5.0158 1.9264-4.6738-0.87244 0.51035-4.1765 1.5358-13.282 8.5375-13.461 5.1836-0.13241 4.6775 3.0821 9.4722 2.4304 6.1615-0.83747 1.4118-10.95 3.9883-14.956-2.5366-4.0964-2.4426-6.9393-2.3681-10.843l6.1071 0.06232 0.68549 6.7926c3.9412-0.28842 11.852 0.34852 13.523 11.093 1.0454 6.7214-5.551 18.609-16.514 18.259-5.4698-0.17478-10.513-1.4177-13.772-7.2911-0.50722-0.91403-2.35-1.4155-2.9912 0.43622-0.90694 2.6191-1.5688 5.6122-1.9942 8.3505z" stroke-linecap="square"/><path d="m33.376 32.299c-0.05321 3.3187 0.28072 6.644-1.3452 9.3917" stroke-linecap="round"/><path d="m38.716 19.161c-0.73706 0.0082-2.1611 0.59176-2.6343 1.4037" stroke-linecap="round"/></g></g><g transform="matrix(3.1384 0 0 3.1384 -114.08 -80.974)"><path d="m41.216 31.675 9.458 10.317 1.5445-1.5221-9.5287-10.306z" fill="#ff8080" fill-rule="evenodd" stroke="#000" stroke-width=".26635"/><path d="m41.201 30.817a7.4377 7.4528 84.26 0 0-2.0698 5.9254 7.4377 7.4528 84.26 0 0 8.1594 6.6558 7.4377 7.4528 84.26 0 0 6.6718-8.1466 7.4377 7.4528 84.26 0 0-8.1594-6.6551 7.4377 7.4528 84.26 0 0-4.602 2.2206zm1.1378 0.85701a6.0279 6.04 84.26 0 1 3.6049-1.6745 6.0279 6.04 84.26 0 1 6.6119 5.3933 6.0279 6.04 84.26 0 1-5.4057 6.6025 6.0279 6.04 84.26 0 1-6.6132-5.394 6.0279 6.04 84.26 0 1 1.8025-4.927z" fill="#ff0e5f" stroke="#000" stroke-linejoin="round" stroke-width=".25932"/><path d="m41.539 31.84 8.9884 9.8004 1.3629-1.3363-9.054-9.7915z" fill="#ff0e5f" fill-rule="evenodd" stroke-width=".59049"/></g></svg>
