<?xml version="1.0" encoding="UTF-8"?>
<svg version="1.1" viewBox="0 0 64 64" xmlns="http://www.w3.org/2000/svg">
 <g transform="matrix(.53144 0 0 .53144 9.7657 6.005)">
  <g transform="matrix(.9703 0 0 .9703 .78 -184.81)">
   <g fill-rule="evenodd">
    <g>
     <path d="m51.219 222.48 0.038 0.224c2.09-0.372 3.065-0.208 3.645 9e-3 0.306 0.115 0.487 0.234 0.719 0.343 0.225 0.106 0.453 0.173 0.764 0.126 0.69-0.103 1.154-0.759 1.59-1.317 0.456-0.581 0.92-1.123 1.612-1.175 0.347-0.027 0.61 0.077 0.853 0.232 0.204 0.13 0.508 0.389 0.731 0.527 0.533 0.33 1.203 0.462 2.533-0.314-1.347 0.757-2 0.585-2.492 0.25-0.284-0.192-0.425-0.359-0.709-0.557-0.249-0.174-0.535-0.305-0.924-0.29-0.78 0.033-1.305 0.62-1.78 1.185-0.494 0.589-0.901 1.1-1.453 1.16-0.234 0.024-0.392-0.033-0.573-0.13-0.176-0.096-0.415-0.258-0.732-0.39-0.662-0.278-1.717-0.46-3.86-0.106l0.038 0.224z"/>
     <path d="m51.41 223c2.231-0.415 3.15-0.17 3.681 0.08 0.236 0.111 0.506 0.29 0.716 0.365 0.26 0.092 0.53 0.088 0.917-0.07 0.622-0.255 1.096-0.918 1.53-1.456 0.225-0.278 0.446-0.533 0.681-0.718 0.234-0.183 0.48-0.295 0.76-0.29 0.718 0.016 1.05 0.43 1.579 0.684 0.516 0.247 1.156 0.285 2.43-0.466-1.292 0.733-1.919 0.654-2.396 0.398-0.465-0.249-0.851-0.724-1.608-0.767-0.325-0.02-0.613 0.1-0.878 0.29-0.263 0.19-0.505 0.453-0.74 0.724-0.486 0.559-0.922 1.122-1.468 1.32-0.337 0.125-0.523 0.102-0.686 0.033-0.217-0.09-0.321-0.204-0.669-0.385-0.623-0.324-1.633-0.589-3.929-0.187z"/>
     <path d="m51.796 222.74c1.835-0.341 2.729-0.086 3.308 0.177 0.276 0.125 0.54 0.287 0.77 0.363 0.256 0.087 0.511 0.09 0.835-0.059 0.497-0.233 0.962-0.867 1.417-1.397 0.472-0.55 0.956-1.025 1.52-1.046 0.366-0.012 0.635 0.098 0.88 0.25 0.235 0.148 0.473 0.354 0.724 0.496 0.523 0.295 1.19 0.376 2.559-0.444-1.385 0.805-2.038 0.69-2.528 0.39-0.255-0.157-0.448-0.347-0.705-0.52a1.578 1.578 0 0 0-0.932-0.296c-0.635 1e-3 -1.173 0.512-1.658 1.046-0.502 0.553-0.932 1.106-1.379 1.293-0.268 0.114-0.451 0.096-0.64 0.023-0.217-0.084-0.396-0.217-0.73-0.38-0.637-0.314-1.6-0.597-3.507-0.264z" fill="#e3dedb"/>
     <path d="m47.538 223.01c-0.098-0.368 2.098-1.633 2.633-0.766 0 0 1.064-0.052 1.567-0.04 0.209 6e-3 0.35 0.555 0.149 0.61-0.657 0.177-1.545 0.155-1.545 0.155-0.083 1.031-2.694 0.455-2.804 0.041z" fill="#e3dedb" stroke="#000" stroke-width=".26427"/>
    </g>
    <g>
     <path d="m37.975 241.57-0.219 0.058c0.564 2.047 0.49 3.033 0.329 3.63-0.086 0.316-0.188 0.507-0.275 0.748-0.085 0.234-0.13 0.467-0.055 0.772 0.167 0.678 0.863 1.079 1.458 1.462 0.622 0.4 1.204 0.811 1.32 1.496 0.059 0.343-0.02 0.614-0.152 0.87-0.11 0.216-0.34 0.543-0.457 0.777-0.28 0.56-0.349 1.24 0.547 2.494-0.878-1.272-0.767-1.939-0.48-2.459 0.166-0.3 0.318-0.457 0.49-0.758 0.15-0.264 0.254-0.56 0.202-0.947-0.105-0.774-0.738-1.242-1.344-1.662-0.632-0.437-1.18-0.795-1.29-1.34-0.046-0.23-3e-3 -0.393 0.077-0.582 0.078-0.184 0.218-0.437 0.32-0.765 0.215-0.685 0.3-1.753-0.253-3.853l-0.218 0.058z"/>
     <path d="m37.47 241.81c0.62 2.182 0.462 3.12 0.262 3.672-0.09 0.246-0.243 0.53-0.297 0.747-0.068 0.267-0.039 0.536 0.154 0.906 0.312 0.596 1.015 1.006 1.592 1.39 0.297 0.197 0.572 0.393 0.778 0.61 0.204 0.216 0.338 0.451 0.36 0.73 0.05 0.717-0.332 1.085-0.535 1.636-0.199 0.537-0.178 1.177 0.69 2.377-0.85-1.22-0.83-1.85-0.62-2.35 0.205-0.486 0.643-0.915 0.615-1.672-0.01-0.325-0.156-0.601-0.37-0.847-0.214-0.244-0.498-0.461-0.79-0.67-0.601-0.432-1.202-0.814-1.45-1.339-0.156-0.325-0.15-0.512-0.097-0.68 0.07-0.225 0.174-0.34 0.322-0.702 0.264-0.65 0.435-1.68-0.178-3.93z"/>
     <path d="m37.762 242.17c0.51 1.794 0.338 2.708 0.13 3.309-0.1 0.286-0.235 0.565-0.29 0.8-0.063 0.263-0.043 0.518 0.136 0.826 0.278 0.474 0.952 0.878 1.523 1.282 0.591 0.418 1.108 0.856 1.182 1.417 0.046 0.362-0.039 0.64-0.168 0.898-0.124 0.249-0.308 0.504-0.426 0.767-0.246 0.549-0.265 1.22 0.68 2.507-0.93-1.304-0.876-1.966-0.623-2.48 0.132-0.27 0.304-0.479 0.452-0.75 0.143-0.264 0.248-0.562 0.209-0.956-0.06-0.633-0.619-1.12-1.196-1.555-0.597-0.448-1.187-0.824-1.415-1.253-0.138-0.256-0.137-0.44-0.082-0.634 0.063-0.225 0.179-0.415 0.311-0.763 0.253-0.663 0.446-1.649-0.063-3.516z" fill="#e3dedb"/>
     <path d="m37.1 237.95c0.357-0.132 1.82 1.938 1.006 2.55 0 0 0.15 1.055 0.185 1.557 0.014 0.208-0.52 0.401-0.593 0.205-0.237-0.638-0.298-1.524-0.298-1.524-1.035 0.013-0.703-2.64-0.3-2.788z" fill="#e3dedb" stroke="#000" stroke-width=".26427"/>
    </g>
    <g>
     <path d="m49.712 212.63 0.155 0.166c1.544-1.457 2.45-1.855 3.053-1.991 0.32-0.072 0.535-0.071 0.79-0.107 0.246-0.035 0.473-0.103 0.707-0.314 0.521-0.465 0.55-1.267 0.609-1.973 0.062-0.736 0.153-1.443 0.703-1.867 0.276-0.212 0.552-0.27 0.84-0.273 0.243-3e-3 0.639 0.046 0.901 0.04 0.627-0.015 1.26-0.273 1.947-1.651-0.712 1.371-1.353 1.586-1.947 1.575-0.344-5e-3 -0.553-0.067-0.9-0.077-0.303-0.01-0.614 0.038-0.931 0.265-0.635 0.455-0.752 1.233-0.839 1.965-0.09 0.764-0.15 1.415-0.58 1.768-0.181 0.148-0.345 0.187-0.55 0.204-0.2 0.017-0.488 0.012-0.826 0.075-0.706 0.132-1.689 0.558-3.286 2.03z"/>
     <path d="m50.16 212.96c1.638-1.57 2.54-1.87 3.122-1.952 0.259-0.036 0.583-0.034 0.8-0.087 0.267-0.066 0.49-0.217 0.728-0.56 0.38-0.555 0.413-1.37 0.482-2.058 0.035-0.355 0.08-0.69 0.175-0.973 0.095-0.282 0.24-0.51 0.476-0.66 0.61-0.38 1.114-0.215 1.695-0.294 0.568-0.076 1.124-0.394 1.778-1.722-0.68 1.322-1.247 1.6-1.786 1.647-0.526 0.047-1.11-0.139-1.765 0.24-0.283 0.162-0.459 0.42-0.575 0.725-0.116 0.302-0.175 0.655-0.223 1.01-0.1 0.735-0.156 1.444-0.503 1.91-0.214 0.289-0.382 0.371-0.556 0.403-0.232 0.043-0.38 5e-3 -0.77 0.045-0.7 0.07-1.69 0.403-3.39 1.997z"/>
     <path d="m50.342 212.54c1.347-1.291 2.235-1.568 2.863-1.665 0.3-0.047 0.61-0.057 0.843-0.118 0.261-0.069 0.478-0.205 0.666-0.508 0.289-0.467 0.33-1.253 0.42-1.945 0.092-0.72 0.237-1.381 0.698-1.709 0.298-0.21 0.584-0.265 0.872-0.272 0.278-7e-3 0.59 0.036 0.877 0.017 0.6-0.04 1.202-0.338 1.897-1.774-0.717 1.432-1.327 1.694-1.9 1.712-0.3 9e-3 -0.565-0.045-0.875-0.049-0.3-3e-3 -0.612 0.044-0.942 0.263-0.53 0.35-0.7 1.072-0.813 1.785-0.117 0.737-0.173 1.435-0.444 1.837-0.162 0.242-0.325 0.328-0.522 0.37-0.229 0.049-0.45 0.036-0.82 0.082-0.705 0.087-1.666 0.379-3.077 1.703z" fill="#e3dedb"/>
     <path d="m46.928 215.1c-0.284-0.254 0.86-2.516 1.782-2.084 0 0 0.862-0.627 1.289-0.892 0.177-0.11 0.598 0.271 0.459 0.427-0.453 0.508-1.207 0.977-1.207 0.977 0.495 0.908-2.004 1.858-2.323 1.572z" fill="#e3dedb" stroke="#000" stroke-width=".26427"/>
    </g>
    <g>
     <path d="m17.225 213.51 0.118-0.193c-1.818-1.096-2.444-1.862-2.737-2.406-0.156-0.288-0.213-0.497-0.316-0.732a1.237 1.237 0 0 0-0.492-0.598c-0.588-0.377-1.368-0.188-2.064-0.056-0.726 0.138-1.431 0.24-1.987-0.176-0.279-0.209-0.408-0.46-0.489-0.737-0.068-0.232-0.127-0.627-0.203-0.878-0.183-0.6-0.601-1.14-2.114-1.431 1.513 0.317 1.891 0.877 2.041 1.452 0.087 0.332 0.084 0.55 0.167 0.887 0.073 0.294 0.202 0.582 0.505 0.826 0.609 0.49 1.39 0.393 2.119 0.28 0.76-0.118 1.403-0.234 1.858 0.084 0.191 0.136 0.273 0.283 0.345 0.475 0.07 0.188 0.142 0.467 0.294 0.776 0.316 0.644 0.99 1.477 2.837 2.62z"/>
     <path d="m17.426 212.99c-1.952-1.156-2.483-1.945-2.718-2.483-0.105-0.24-0.19-0.552-0.299-0.746-0.135-0.24-0.341-0.415-0.735-0.551-0.636-0.218-1.43-0.03-2.111 0.088-0.352 0.061-0.686 0.108-0.985 0.092-0.297-0.016-0.556-0.094-0.763-0.28-0.53-0.486-0.507-1.016-0.739-1.556-0.225-0.526-0.681-0.976-2.136-1.25 1.456 0.3 1.876 0.772 2.066 1.279 0.186 0.493 0.164 1.105 0.705 1.636 0.232 0.228 0.528 0.329 0.853 0.36 0.322 0.03 0.678-9e-3 1.034-0.057 0.733-0.102 1.431-0.238 1.973-0.029 0.336 0.129 0.46 0.269 0.538 0.427 0.104 0.212 0.107 0.366 0.25 0.73 0.256 0.655 0.842 1.52 2.834 2.729z"/>
     <path d="m16.966 212.93c-1.605-0.951-2.11-1.732-2.373-2.31-0.125-0.277-0.218-0.573-0.34-0.78-0.136-0.235-0.325-0.406-0.667-0.506-0.528-0.153-1.296 0.018-1.987 0.118-0.717 0.104-1.394 0.142-1.833-0.214a1.488 1.488 0 0 1-0.497-0.767c-0.08-0.266-0.123-0.578-0.219-0.85-0.2-0.567-0.648-1.066-2.218-1.35 1.572 0.305 1.988 0.823 2.159 1.37 0.09 0.286 0.109 0.556 0.188 0.856 0.077 0.29 0.207 0.577 0.506 0.836 0.48 0.418 1.22 0.387 1.938 0.305 0.742-0.086 1.429-0.22 1.889-0.066 0.277 0.09 0.403 0.225 0.496 0.404 0.109 0.207 0.156 0.424 0.3 0.768 0.273 0.655 0.812 1.502 2.466 2.506z" fill="#e3dedb"/>
     <path d="m20.349 215.53c-0.17 0.342-2.654-0.152-2.487-1.157 0 0-0.835-0.661-1.205-1.002-0.154-0.141 0.101-0.648 0.289-0.557 0.61 0.3 1.265 0.9 1.265 0.9 0.742-0.72 2.328 1.432 2.138 1.816z" fill="#e3dedb" stroke="#000" stroke-width=".26427"/>
    </g>
   </g>
   <ellipse cx="32.861" cy="224" rx="14.491" ry="14.427" fill="#c88fb2" stroke="#180a5a" stroke-linecap="round" stroke-linejoin="round" stroke-opacity=".678" stroke-width="1.789"/>
   <g fill-rule="evenodd">
    <g>
     <path d="m42.45 202.99 0.196 0.113c1.05-1.845 1.8-2.49 2.337-2.796 0.285-0.163 0.492-0.225 0.724-0.334 0.225-0.105 0.423-0.237 0.585-0.506 0.363-0.597 0.155-1.373 5e-3 -2.065-0.156-0.722-0.276-1.425 0.127-1.991 0.202-0.284 0.449-0.42 0.724-0.507 0.23-0.074 0.624-0.143 0.873-0.225 0.594-0.198 1.124-0.63 1.378-2.149-0.28 1.52-0.83 1.912-1.4 2.076-0.33 0.095-0.55 0.098-0.883 0.19-0.293 0.08-0.577 0.215-0.814 0.525-0.473 0.62-0.358 1.4-0.227 2.125 0.137 0.757 0.27 1.397-0.038 1.86-0.13 0.194-0.276 0.28-0.466 0.356-0.186 0.075-0.463 0.154-0.768 0.313-0.636 0.333-1.452 1.027-2.55 2.901z"/>
     <path d="m42.976 203.17c1.107-1.98 1.882-2.53 2.415-2.779 0.236-0.11 0.547-0.203 0.738-0.317 0.237-0.141 0.407-0.352 0.533-0.75 0.201-0.64-5e-3 -1.429-0.141-2.107-0.07-0.35-0.125-0.683-0.117-0.983 9e-3 -0.297 0.08-0.558 0.262-0.769 0.472-0.543 1.003-0.532 1.536-0.777 0.52-0.24 0.959-0.706 1.196-2.167-0.263 1.463-0.724 1.894-1.226 2.097-0.489 0.199-1.101 0.192-1.618 0.746-0.223 0.238-0.316 0.535-0.338 0.861-0.022 0.323 0.025 0.678 0.082 1.032 0.12 0.73 0.274 1.426 0.078 1.972-0.12 0.34-0.257 0.468-0.414 0.549-0.21 0.109-0.363 0.116-0.724 0.268-0.647 0.272-1.497 0.88-2.656 2.9z"/>
     <path d="m43.025 202.71c0.91-1.629 1.678-2.153 2.25-2.43 0.274-0.132 0.567-0.233 0.772-0.359 0.23-0.142 0.397-0.336 0.488-0.68 0.14-0.532-0.05-1.295-0.167-1.983-0.122-0.715-0.177-1.39 0.168-1.838 0.224-0.288 0.481-0.425 0.755-0.516 0.264-0.087 0.574-0.138 0.843-0.24 0.562-0.213 1.05-0.674 1.295-2.251-0.266 1.579-0.773 2.008-1.316 2.192-0.284 0.097-0.553 0.123-0.85 0.21a1.578 1.578 0 0 0-0.824 0.527c-0.406 0.49-0.357 1.23-0.256 1.944 0.104 0.74 0.254 1.423 0.112 1.887-0.083 0.279-0.215 0.408-0.39 0.506-0.205 0.114-0.42 0.167-0.761 0.319-0.648 0.289-1.482 0.849-2.445 2.528z" fill="#e3dedb"/>
     <path d="m40.508 206.16c-0.346-0.161 0.087-2.658 1.095-2.515 0 0 0.64-0.852 0.972-1.23 0.137-0.157 0.65 0.085 0.563 0.275-0.283 0.618-0.868 1.287-0.868 1.287 0.74 0.723-1.373 2.362-1.762 2.182z" fill="#e3dedb" stroke="#000" stroke-width=".26427"/>
    </g>
    <g>
     <path d="m50.373 243.33-0.157 0.163c1.539 1.463 1.984 2.346 2.153 2.94 0.09 0.316 0.1 0.532 0.15 0.783 0.048 0.244 0.129 0.468 0.351 0.69 0.493 0.495 1.296 0.48 2.004 0.5 0.738 0.023 1.45 0.075 1.902 0.602 0.227 0.264 0.3 0.536 0.318 0.825 0.017 0.24-0.011 0.64 0.01 0.9 0.049 0.625 0.34 1.243 1.754 1.855-1.408-0.637-1.657-1.265-1.68-1.859-0.012-0.343 0.038-0.555 0.03-0.902-8e-3 -0.303-0.072-0.612-0.316-0.916-0.488-0.609-1.272-0.683-2.008-0.73-0.767-0.05-1.42-0.074-1.796-0.484-0.158-0.173-0.206-0.335-0.234-0.538-0.028-0.198-0.038-0.487-0.12-0.821-0.17-0.697-0.648-1.656-2.204-3.171z"/>
     <path d="m50.064 243.8c1.657 1.55 2.004 2.435 2.118 3.012 0.05 0.256 0.066 0.58 0.13 0.793 0.08 0.264 0.244 0.48 0.6 0.697 0.574 0.35 1.389 0.338 2.08 0.37 0.357 0.016 0.693 0.042 0.982 0.122 0.286 0.08 0.522 0.212 0.683 0.44 0.414 0.588 0.277 1.1 0.386 1.677 0.107 0.562 0.455 1.1 1.816 1.68-1.356-0.606-1.664-1.157-1.741-1.693-0.075-0.522 0.078-1.115-0.335-1.75-0.178-0.273-0.444-0.434-0.755-0.535-0.309-0.099-0.664-0.138-1.022-0.167-0.738-0.06-1.45-0.077-1.933-0.399-0.3-0.198-0.392-0.362-0.433-0.533-0.056-0.23-0.026-0.38-0.087-0.767-0.108-0.694-0.493-1.665-2.178-3.276z"/>
     <path d="m50.5 243.95c1.362 1.275 1.686 2.146 1.818 2.768 0.063 0.297 0.09 0.606 0.163 0.835 0.083 0.258 0.231 0.466 0.544 0.638 0.482 0.263 1.268 0.261 1.965 0.313 0.723 0.054 1.392 0.162 1.743 0.605 0.226 0.287 0.298 0.569 0.32 0.856 0.021 0.277-4e-3 0.59 0.03 0.877 0.073 0.597 0.403 1.181 1.875 1.798-1.47-0.638-1.764-1.233-1.813-1.805-0.025-0.298 0.014-0.566 1e-3 -0.876a1.578 1.578 0 0 0-0.313-0.926c-0.379-0.511-1.109-0.641-1.826-0.715-0.743-0.077-1.443-0.095-1.86-0.344-0.25-0.148-0.344-0.307-0.397-0.501-0.06-0.226-0.06-0.448-0.126-0.815-0.125-0.698-0.469-1.642-1.867-2.98z" fill="#e3dedb"/>
     <path d="m47.759 240.68c0.238-0.297 2.558 0.722 2.178 1.667 0 0 0.672 0.826 0.96 1.238 0.12 0.172-0.238 0.612-0.402 0.482-0.532-0.424-1.041-1.153-1.041-1.153-0.88 0.545-1.964-1.9-1.695-2.234z" fill="#e3dedb" stroke="#000" stroke-width=".26427"/>
    </g>
    <g>
     <path d="m50.313 234.64-0.092 0.207c1.942 0.856 2.66 1.536 3.02 2.039 0.192 0.266 0.275 0.465 0.407 0.685 0.128 0.213 0.28 0.396 0.564 0.53 0.631 0.3 1.381 0.013 2.054-0.206 0.703-0.23 1.39-0.42 1.994-0.079 0.303 0.172 0.463 0.404 0.579 0.669 0.096 0.221 0.205 0.605 0.313 0.845 0.258 0.57 0.741 1.054 2.278 1.15-1.54-0.122-1.987-0.629-2.209-1.18-0.128-0.319-0.153-0.536-0.278-0.858-0.11-0.284-0.274-0.552-0.606-0.756-0.666-0.407-1.429-0.213-2.137-8e-3 -0.74 0.214-1.362 0.411-1.854 0.153-0.207-0.11-0.307-0.246-0.403-0.427-0.093-0.177-0.2-0.445-0.39-0.732-0.396-0.599-1.17-1.339-3.147-2.238l-0.093 0.207z"/>
     <path d="m50.18 235.18c2.083 0.898 2.71 1.613 3.012 2.117 0.134 0.224 0.258 0.523 0.391 0.702 0.165 0.221 0.391 0.369 0.8 0.453 0.658 0.135 1.421-0.151 2.083-0.356 0.34-0.106 0.666-0.195 0.965-0.217 0.296-0.022 0.563 0.022 0.792 0.182 0.588 0.414 0.632 0.942 0.93 1.448 0.291 0.493 0.801 0.881 2.278 0.967-1.481-0.111-1.958-0.526-2.212-1.004-0.247-0.466-0.303-1.076-0.907-1.533-0.26-0.197-0.565-0.26-0.891-0.248-0.324 0.01-0.672 0.094-1.019 0.188-0.714 0.193-1.39 0.418-1.953 0.279-0.35-0.085-0.492-0.208-0.589-0.355-0.13-0.197-0.152-0.35-0.34-0.693-0.338-0.616-1.029-1.399-3.159-2.345z"/>
     <path d="m50.643 235.18c1.714 0.738 2.314 1.448 2.648 1.99 0.16 0.257 0.29 0.539 0.437 0.73 0.165 0.214 0.374 0.36 0.726 0.416 0.544 0.084 1.283-0.183 1.956-0.37 0.698-0.195 1.364-0.319 1.845-0.021 0.31 0.193 0.472 0.434 0.59 0.697 0.115 0.254 0.197 0.558 0.326 0.815 0.27 0.537 0.778 0.976 2.372 1.057-1.598-0.103-2.076-0.563-2.316-1.084-0.125-0.273-0.178-0.538-0.295-0.825a1.578 1.578 0 0 0-0.61-0.765c-0.528-0.353-1.259-0.229-1.96-0.055-0.724 0.179-1.389 0.399-1.865 0.305-0.286-0.055-0.428-0.172-0.543-0.337-0.134-0.192-0.209-0.4-0.395-0.724-0.354-0.615-0.997-1.387-2.766-2.172z" fill="#e3dedb"/>
     <path d="m46.957 233.04c0.124-0.36 2.652-0.187 2.614 0.83 0 0 0.912 0.55 1.323 0.841 0.17 0.121-0.018 0.657-0.216 0.59-0.644-0.22-1.37-0.733-1.37-0.733-0.643 0.81-2.49-1.123-2.35-1.528z" fill="#e3dedb" stroke="#000" stroke-width=".26427"/>
    </g>
    <g>
     <path d="m25.09 243.52-0.209-0.089c-0.823 1.957-1.49 2.686-1.987 3.055-0.263 0.196-0.46 0.282-0.678 0.418a1.237 1.237 0 0 0-0.521 0.573c-0.289 0.636 0.01 1.381 0.242 2.05 0.24 0.699 0.444 1.382 0.112 1.992-0.167 0.306-0.396 0.47-0.659 0.59-0.22 0.101-0.602 0.216-0.84 0.328-0.566 0.267-1.04 0.759-1.111 2.298 0.096-1.543 0.595-1.998 1.143-2.229 0.316-0.134 0.533-0.162 0.853-0.293 0.281-0.114 0.547-0.283 0.745-0.62 0.396-0.672 0.189-1.43-0.028-2.136-0.226-0.735-0.434-1.355-0.184-1.85 0.106-0.21 0.24-0.312 0.42-0.41 0.175-0.097 0.442-0.209 0.725-0.403 0.592-0.406 1.319-1.193 2.184-3.185l-0.208-0.089z"/>
     <path d="m24.545 243.39c-0.863 2.098-1.567 2.737-2.066 3.047-0.222 0.138-0.519 0.267-0.695 0.403-0.219 0.169-0.362 0.398-0.44 0.808-0.123 0.66 0.176 1.418 0.392 2.076 0.111 0.34 0.206 0.663 0.233 0.961 0.027 0.296-0.013 0.564-0.168 0.796-0.404 0.595-0.932 0.648-1.432 0.955-0.488 0.299-0.868 0.815-0.929 2.294 0.087-1.484 0.493-1.967 0.967-2.23 0.462-0.254 1.07-0.32 1.517-0.932 0.193-0.263 0.25-0.57 0.233-0.896-0.016-0.324-0.105-0.67-0.205-1.015-0.206-0.71-0.442-1.382-0.312-1.948 0.078-0.352 0.199-0.495 0.345-0.595 0.194-0.133 0.346-0.158 0.687-0.352 0.61-0.348 1.381-1.052 2.29-3.198z"/>
     <path d="m24.55 243.86c-0.709 1.726-1.408 2.338-1.943 2.682-0.256 0.163-0.535 0.298-0.723 0.448-0.212 0.169-0.355 0.381-0.404 0.734-0.075 0.545 0.205 1.28 0.403 1.95 0.206 0.694 0.342 1.358 0.052 1.844-0.188 0.313-0.426 0.48-0.687 0.602-0.252 0.118-0.554 0.205-0.809 0.339-0.533 0.28-0.962 0.795-1.017 2.39 0.076-1.6 0.528-2.086 1.045-2.334 0.27-0.13 0.535-0.188 0.82-0.31 0.275-0.118 0.541-0.288 0.754-0.621 0.344-0.535 0.207-1.264 0.022-1.961-0.191-0.722-0.422-1.383-0.337-1.86 0.05-0.287 0.165-0.431 0.328-0.55 0.19-0.137 0.397-0.215 0.717-0.406 0.609-0.365 1.37-1.02 2.125-2.802z" fill="#e3dedb"/>
     <path d="m26.638 240.13c0.362 0.118 0.231 2.649-0.787 2.628 0 0-0.534 0.921-0.818 1.336-0.117 0.173-0.656-6e-3 -0.592-0.205 0.208-0.648 0.709-1.382 0.709-1.382-0.821-0.63 1.08-2.51 1.488-2.377z" fill="#e3dedb" stroke="#000" stroke-width=".26427"/>
    </g>
    <g>
     <path d="m15.051 244.34-0.174-0.144c-1.344 1.643-2.19 2.153-2.772 2.366-0.307 0.113-0.522 0.14-0.769 0.208-0.24 0.067-0.456 0.164-0.662 0.402-0.457 0.528-0.381 1.328-0.35 2.035 0.034 0.738 0.035 1.451-0.456 1.942-0.247 0.246-0.513 0.338-0.8 0.38-0.239 0.033-0.638 0.035-0.897 0.075-0.62 0.096-1.214 0.433-1.718 1.888 0.53-1.452 1.137-1.747 1.728-1.813 0.341-0.038 0.557-4e-3 0.901-0.039 0.302-0.03 0.605-0.116 0.89-0.382 0.571-0.533 0.587-1.32 0.58-2.057-0.01-0.77-0.033-1.423 0.347-1.827 0.161-0.17 0.319-0.23 0.52-0.274 0.195-0.043 0.482-0.075 0.81-0.18 0.682-0.222 1.602-0.77 2.997-2.435z"/>
     <path d="m14.564 244.06c-1.422 1.767-2.278 2.18-2.845 2.336-0.251 0.07-0.573 0.11-0.78 0.19-0.258 0.1-0.46 0.278-0.651 0.65-0.306 0.598-0.234 1.41-0.213 2.101 0.01 0.358 9e-3 0.695-0.05 0.988-0.057 0.292-0.171 0.537-0.386 0.715-0.556 0.456-1.077 0.358-1.644 0.51-0.553 0.149-1.063 0.536-1.541 1.937 0.503-1.399 1.03-1.747 1.559-1.864 0.515-0.113 1.118-4e-3 1.72-0.464 0.259-0.198 0.4-0.476 0.477-0.793 0.076-0.315 0.089-0.672 0.09-1.031 5e-3 -0.74-0.03-1.451 0.254-1.958 0.175-0.314 0.331-0.418 0.5-0.472 0.224-0.072 0.376-0.054 0.758-0.143 0.684-0.16 1.623-0.617 3.104-2.416z"/>
     <path d="m14.439 244.51c-1.17 1.454-2.015 1.842-2.625 2.02-0.291 0.084-0.597 0.135-0.82 0.225-0.251 0.102-0.448 0.265-0.596 0.59-0.226 0.5-0.166 1.284-0.166 1.983 0 0.724-0.057 1.4-0.473 1.783-0.269 0.247-0.545 0.34-0.83 0.383-0.274 0.042-0.589 0.04-0.871 0.096-0.59 0.116-1.149 0.489-1.653 2.003 0.526-1.513 1.097-1.85 1.664-1.942 0.296-0.048 0.566-0.028 0.873-0.065 0.298-0.034 0.601-0.122 0.9-0.381 0.482-0.416 0.557-1.153 0.578-1.875 0.02-0.746-0.014-1.445 0.204-1.879 0.129-0.26 0.28-0.367 0.47-0.434 0.22-0.078 0.442-0.094 0.802-0.186 0.688-0.178 1.603-0.59 2.833-2.085z" fill="#e3dedb"/>
     <path d="m17.496 241.53c0.314 0.216-0.53 2.606-1.5 2.297 0 0-0.773 0.732-1.163 1.05-0.162 0.132-0.628-0.192-0.51-0.365 0.383-0.562 1.071-1.124 1.071-1.124-0.608-0.837 1.748-2.1 2.102-1.858z" fill="#e3dedb" stroke="#000" stroke-width=".26427"/>
    </g>
    <g>
     <path d="m25.58 204.7 0.208-0.088c-0.832-1.953-0.89-2.94-0.81-3.553 0.043-0.325 0.119-0.527 0.173-0.778 0.052-0.243 0.067-0.48-0.049-0.772-0.256-0.65-0.999-0.954-1.64-1.254-0.67-0.313-1.302-0.644-1.508-1.307-0.104-0.332-0.062-0.61 0.035-0.883 0.08-0.228 0.264-0.583 0.349-0.83 0.202-0.594 0.18-1.277-0.876-2.399 1.04 1.143 1.02 1.818 0.805 2.372-0.125 0.32-0.255 0.496-0.384 0.817-0.114 0.281-0.178 0.59-0.074 0.966 0.207 0.753 0.896 1.132 1.553 1.467 0.685 0.35 1.275 0.631 1.457 1.156 0.076 0.222 0.056 0.39 2e-3 0.587-0.053 0.193-0.158 0.462-0.216 0.801-0.12 0.708-0.062 1.777 0.766 3.785z"/>
     <path d="m26.048 204.39c-0.906-2.08-0.874-3.03-0.75-3.604 0.055-0.255 0.17-0.559 0.195-0.78 0.03-0.274-0.034-0.536-0.274-0.877-0.388-0.549-1.14-0.862-1.763-1.165-0.321-0.156-0.62-0.314-0.852-0.502-0.232-0.186-0.396-0.401-0.454-0.674-0.146-0.704 0.183-1.12 0.311-1.693 0.125-0.559 0.019-1.19-1-2.264 1.005 1.095 1.069 1.724 0.927 2.246-0.138 0.51-0.515 0.992-0.386 1.74 0.054 0.32 0.235 0.575 0.48 0.79 0.244 0.213 0.554 0.39 0.871 0.559 0.654 0.347 1.3 0.645 1.617 1.132 0.197 0.301 0.216 0.488 0.186 0.662-0.04 0.232-0.127 0.359-0.225 0.738-0.175 0.68-0.207 1.724 0.7 3.87z"/>
     <path d="m25.71 204.07c-0.744-1.71-0.696-2.64-0.57-3.262 0.06-0.298 0.157-0.592 0.18-0.832 0.027-0.269-0.026-0.519-0.245-0.8-0.339-0.433-1.06-0.744-1.68-1.068-0.642-0.335-1.213-0.7-1.36-1.246a1.488 1.488 0 0 1 0.046-0.913c0.09-0.263 0.238-0.54 0.32-0.817 0.17-0.576 0.099-1.244-1.008-2.394 1.096 1.168 1.13 1.831 0.948 2.376-0.095 0.284-0.237 0.514-0.348 0.803-0.107 0.28-0.17 0.59-0.08 0.975 0.145 0.62 0.763 1.028 1.393 1.381 0.651 0.365 1.287 0.659 1.57 1.053 0.17 0.235 0.195 0.418 0.166 0.617-0.033 0.232-0.122 0.435-0.207 0.798-0.162 0.691-0.221 1.694 0.532 3.477z" fill="#e3dedb"/>
     <path d="m26.93 208.16c-0.337 0.179-2.063-1.677-1.339-2.393 0 0-0.29-1.025-0.39-1.518-0.042-0.205 0.462-0.467 0.56-0.282 0.32 0.6 0.499 1.47 0.499 1.47 1.023-0.15 1.049 2.523 0.67 2.723z" fill="#e3dedb" stroke="#000" stroke-width=".26427"/>
    </g>
    <g>
     <path d="m12.768 229-0.065-0.217c-2.032 0.615-3.019 0.567-3.62 0.42-0.318-0.078-0.511-0.175-0.754-0.256a1.237 1.237 0 0 0-0.774-0.035c-0.674 0.184-1.056 0.89-1.424 1.494-0.384 0.632-0.781 1.224-1.462 1.358-0.342 0.067-0.615-5e-3 -0.875-0.13-0.218-0.106-0.55-0.326-0.788-0.438-0.567-0.266-1.249-0.317-2.479 0.61 1.25-0.91 1.919-0.816 2.446-0.542 0.304 0.158 0.465 0.307 0.77 0.47 0.267 0.144 0.567 0.24 0.952 0.179 0.77-0.125 1.223-0.769 1.627-1.386 0.422-0.643 0.766-1.198 1.307-1.323 0.23-0.051 0.393-0.013 0.584 0.062 0.186 0.074 0.442 0.208 0.773 0.302 0.69 0.197 1.76 0.254 3.846-0.35z"/>
     <path d="m12.516 228.51c-2.166 0.675-3.107 0.54-3.665 0.354-0.247-0.083-0.537-0.229-0.754-0.278-0.269-0.06-0.537-0.025-0.902 0.177-0.587 0.326-0.98 1.04-1.349 1.626-0.19 0.303-0.379 0.582-0.591 0.793-0.21 0.21-0.442 0.35-0.72 0.378-0.715 0.069-1.093-0.304-1.649-0.493-0.541-0.185-1.181-0.148-2.359 0.749 1.198-0.88 1.83-0.876 2.333-0.678 0.492 0.193 0.931 0.62 1.687 0.572 0.326-0.019 0.598-0.17 0.838-0.391 0.239-0.22 0.449-0.51 0.65-0.806 0.417-0.612 0.783-1.222 1.302-1.484 0.32-0.164 0.508-0.162 0.677-0.114 0.227 0.065 0.344 0.166 0.71 0.304 0.657 0.248 1.692 0.393 3.924-0.276z"/>
     <path d="m12.163 228.81c-1.782 0.555-2.7 0.407-3.305 0.214-0.29-0.092-0.571-0.22-0.807-0.27-0.265-0.056-0.52-0.03-0.823 0.157-0.467 0.29-0.854 0.974-1.243 1.555-0.403 0.602-0.828 1.13-1.387 1.217a1.488 1.488 0 0 1-0.902-0.145c-0.252-0.118-0.512-0.295-0.777-0.406-0.555-0.232-1.226-0.234-2.49 0.741 1.28-0.962 1.943-0.924 2.465-0.684 0.272 0.125 0.485 0.291 0.76 0.433 0.267 0.137 0.568 0.233 0.961 0.185 0.631-0.077 1.105-0.647 1.524-1.235 0.434-0.608 0.795-1.208 1.217-1.446 0.252-0.145 0.437-0.149 0.632-0.099 0.226 0.059 0.42 0.169 0.77 0.293 0.67 0.236 1.66 0.404 3.514-0.152z" fill="#e3dedb"/>
     <path d="m16.36 228.04c0.14 0.354-1.891 1.868-2.524 1.07 0 0-1.051 0.178-1.552 0.224-0.208 0.02-0.414-0.51-0.22-0.587 0.632-0.253 1.516-0.336 1.516-0.336-0.038-1.034 2.622-0.77 2.78-0.371z" fill="#e3dedb" stroke="#000" stroke-width=".26427"/>
    </g>
    <g>
     <path d="m13.852 202.16 0.156-0.164c-1.545-1.456-1.995-2.336-2.167-2.93-0.091-0.315-0.103-0.53-0.154-0.782a1.237 1.237 0 0 0-0.355-0.689c-0.494-0.492-1.297-0.473-2.005-0.49-0.739-0.019-1.45-0.068-1.905-0.592-0.229-0.263-0.302-0.536-0.323-0.824-0.017-0.24 9e-3 -0.64-0.013-0.9-0.052-0.625-0.347-1.242-1.763-1.847 1.411 0.63 1.663 1.257 1.688 1.85 0.014 0.344-0.035 0.557-0.025 0.903 0.01 0.304 0.075 0.612 0.32 0.914 0.491 0.607 1.275 0.678 2.011 0.722 0.768 0.045 1.422 0.067 1.799 0.475 0.159 0.172 0.207 0.334 0.237 0.536 0.028 0.199 0.04 0.487 0.123 0.821 0.173 0.697 0.656 1.653 2.22 3.16z"/>
     <path d="m14.158 201.7c-1.664-1.542-2.015-2.426-2.132-3.002-0.051-0.255-0.068-0.579-0.134-0.792-0.081-0.263-0.246-0.478-0.603-0.694-0.575-0.347-1.39-0.332-2.082-0.36-0.357-0.014-0.693-0.039-0.982-0.118-0.286-0.078-0.523-0.209-0.686-0.435-0.416-0.587-0.281-1.1-0.394-1.676-0.11-0.562-0.46-1.098-1.824-1.673 1.36 0.6 1.67 1.15 1.75 1.686 0.078 0.522-0.073 1.115 0.344 1.748 0.178 0.272 0.446 0.433 0.757 0.531 0.309 0.098 0.664 0.136 1.022 0.163 0.739 0.056 1.45 0.07 1.935 0.39 0.302 0.196 0.394 0.36 0.436 0.53 0.057 0.23 0.028 0.38 0.09 0.767 0.112 0.694 0.502 1.662 2.194 3.265z"/>
     <path d="m13.722 201.54c-1.369-1.268-1.697-2.138-1.831-2.759-0.065-0.297-0.093-0.605-0.168-0.834-0.084-0.258-0.233-0.465-0.546-0.635-0.484-0.261-1.27-0.256-1.967-0.304-0.723-0.05-1.392-0.156-1.746-0.597a1.488 1.488 0 0 1-0.324-0.854c-0.023-0.278 1e-3 -0.591-0.034-0.877-0.076-0.597-0.408-1.18-1.883-1.789 1.472 0.63 1.769 1.224 1.82 1.796 0.027 0.298-0.01 0.566 4e-3 0.876 0.014 0.299 0.08 0.608 0.318 0.924 0.38 0.51 1.111 0.637 1.83 0.707 0.743 0.073 1.443 0.088 1.86 0.335 0.25 0.147 0.346 0.305 0.4 0.5 0.062 0.225 0.062 0.447 0.13 0.813 0.128 0.698 0.476 1.64 1.881 2.971z" fill="#e3dedb"/>
     <path d="m16.479 204.8c-0.238 0.298-2.562-0.71-2.186-1.656 0 0-0.677-0.823-0.967-1.234-0.12-0.171 0.236-0.613 0.4-0.483 0.534 0.421 1.047 1.147 1.047 1.147 0.877-0.549 1.972 1.89 1.706 2.226z" fill="#e3dedb" stroke="#000" stroke-width=".26427"/>
    </g>
   </g>
  </g>
  <path transform="matrix(.64747 0 0 .64747 10.84 -628.56)" d="m17.628 1008 28.23 30.794 4.61-4.543-28.441-30.762z" fill="#ff8080" fill-rule="evenodd" stroke="#000" stroke-width=".795"/>
  <path transform="matrix(.64747 0 0 .64747 10.84 -628.56)" d="m17.793 1005.5a22.2 22.245 84.26 0 0-6.178 17.686 22.2 22.245 84.26 0 0 24.354 19.866 22.2 22.245 84.26 0 0 19.914-24.316 22.2 22.245 84.26 0 0-24.354-19.864 22.2 22.245 84.26 0 0-13.736 6.628zm3.396 2.558a17.992 18.028 84.26 0 1 10.76-4.998 17.992 18.028 84.26 0 1 19.735 16.098 17.992 18.028 84.26 0 1-16.135 19.707 17.992 18.028 84.26 0 1-19.739-16.1 17.992 18.028 84.26 0 1 5.38-14.706z" fill="#ff0e5f" stroke="#000" stroke-linejoin="round" stroke-width=".774"/>
  <path d="m22.881 24.409 17.37 18.94 2.634-2.583-17.497-18.923z" fill="#ff0e5f" fill-rule="evenodd"/>
 </g>
 <g transform="translate(-.53156 .53381)">
  <g stroke="#000">
   <path d="m39.738 21.003c-0.06732 0.69087-0.06555 1.7585-0.25745 2.0508-0.27044 0.41275-1.1591 0.96899-1.3941 1.9309-1.9327 2.2687-4.2645 6.3413-4.0071 7.0705 0.32713 0.92589 3.6894 4.0508 5.638 6.0596-1.0741 1.7874-2.0437 3.6232 0.13581 6.8898 0.12046 2.7446 0.15353 5.5069 0.61057 8.1789-0.1488 0.9684-0.92707 2.7895-0.92707 2.7895l3.7614 0.31709c0.3413-1.5329 0.77-2.8326 0.99734-4.6684 0.59167-3.6788 1.0912-6.5054 1.1066-9.4744 3.4833-0.20608 4.2114-2.9843 4.2439-4.7044 0.05787-3.0729-2.2084-4.2675-3.9905-6.4381 0.75996-0.43696 0.81015-1.0475 0.75996-1.7567-0.05078-0.71272-1.2211-1.7337-1.997-2.5568-0.79126-0.8385-1.1379-1.4774-1.3841-1.7815-0.15057-0.186-0.62887-0.34662-0.62887-0.34662-0.08267-0.70446-0.1742-1.3245 0.21258-1.8583zm-0.46767 8.9725c0.78063 2.307 1.2837 4.5964 1.2176 6.6017-1.0192-1.5087-1.729-2.8828-3.0765-4.535 0.75996-0.75288 1.2512-1.3363 1.5382-1.987z" fill="#999" fill-rule="evenodd" stroke-width=".31001"/>
   <path d="m41.216 31.675 9.458 10.317 1.5445-1.5221-9.5287-10.306z" fill="#ff8080" fill-rule="evenodd" stroke-width=".26635"/>
   <path d="m41.201 30.817a7.4377 7.4528 84.26 0 0-2.0698 5.9254 7.4377 7.4528 84.26 0 0 8.1594 6.6558 7.4377 7.4528 84.26 0 0 6.6718-8.1466 7.4377 7.4528 84.26 0 0-8.1594-6.6551 7.4377 7.4528 84.26 0 0-4.602 2.2206zm1.1378 0.85701a6.0279 6.04 84.26 0 1 3.6049-1.6745 6.0279 6.04 84.26 0 1 6.6119 5.3933 6.0279 6.04 84.26 0 1-5.4057 6.6025 6.0279 6.04 84.26 0 1-6.6132-5.394 6.0279 6.04 84.26 0 1 1.8025-4.927z" fill="#ff0e5f" stroke-linejoin="round" stroke-width=".25932"/>
  </g>
  <path d="m41.539 31.84 8.9884 9.8004 1.3629-1.3363-9.054-9.7915z" fill="#ff0e5f" fill-rule="evenodd" stroke-width=".59049"/>
 </g>
</svg>
