<svg xmlns="http://www.w3.org/2000/svg" xmlns:xlink="http://www.w3.org/1999/xlink" cursor="default" viewBox="0 0 256 256">
    <defs>
        <linearGradient id="innoGrad1">
            <stop offset="0" stop-color="#ff2a2a"/>
            <stop offset="1" stop-color="#f55"/>
        </linearGradient>
        <linearGradient id="innoGrad2">
            <stop offset="0" stop-color="#ff2a2a"/>
            <stop offset="1" stop-color="#f55"/>
        </linearGradient>
        <linearGradient id="linearGradient4317" x1="58.929" x2="75.714" y1="109.571" y2="54.571" gradientUnits="userSpaceOnUse" xlink:href="#innoGrad2"/>
        <linearGradient id="linearGradient4325" x1="219.286" x2="190.714" y1="96.357" y2="58.143" gradientUnits="userSpaceOnUse" xlink:href="#innoGrad1"/>
    </defs>
    <path fill="#ffb380" fill-rule="evenodd" stroke="#000" stroke-width="1.633" d="M92.383 19.298c.037-.47-.387-7.48 2.38-9.568 3.054-2.306 49.73-2.68 55.599-.643 3.681 1.278 2.585 8.817 2.585 8.817l-9.674-.568s.412-3.704-.977-4.496c-2.04-1.163-37.655-1-39.952.199-1.712.894-1.393 3.45-1.498 4.794-4.052.87-8.463 1.465-8.463 1.465z"/>
    <path fill="#ffe6d5" fill-rule="evenodd" d="M97.247 10.358c.142-.026.328-.052.554-.078.227-.027.494-.054.8-.081.61-.055 1.375-.11 2.268-.165 1.786-.109 4.092-.213 6.731-.297 5.28-.167 11.896-.253 18.374-.128 6.481.125 12.81.461 17.518 1.132.773.11 1.5.23 2.176.358 1.395.185 2.58.41 3.505.678.688.2 1.231.424 1.614.674.191.125.345.258.458.401.113.144.19.302.218.48a1.065 1.065 0 0 0-.1-.55 1.84 1.84 0 0 0-.402-.546c-.365-.353-.91-.68-1.6-.978-.93-.401-2.127-.756-3.531-1.068a52.164 52.164 0 0 0-2.224-.316c-4.77-.582-11.14-.82-17.625-.848-6.49-.028-13.113.155-18.393.42-2.64.132-4.945.285-6.73.443-.893.078-1.655.158-2.265.237-.305.04-.572.079-.797.118-.225.038-.41.076-.549.114z"/>
    <path fill="url(#linearGradient4325)" fill-rule="evenodd" stroke="#000" stroke-width="1.611" d="M126.207 79.879c46.163-3.827 80.03 7.442 100.662 26.843 19.813-65.205-18.166-89.175-109.406-91.308z"/>
    <path fill="url(#linearGradient4317)" fill-rule="evenodd" stroke="#000" stroke-width="1.611" d="M120.513 18.668c6.655-1.114 16.654 63.52 10.982 64.058-48.478 4.596-72.849 22.114-77.073 30.707-66.27-61.08 9.578-85.307 66.091-94.765z"/>
    <path fill="#ff8080" fill-rule="evenodd" stroke="#000" stroke-width="1.611" d="M24.034 70.278s1.33 67.14 3.342 71.448c37.377 80.003 183.401 52.73 204.478 2.3 1.174-2.81 1.533-51.743 2.3-78.105-13.357 77.823-181.013 92.835-210.12 4.357z"/>
    <path fill="none" stroke="#ff2a2a" stroke-dasharray="2,1" stroke-width=".5" d="M27.905 136.423c31.64 72.198 165.439 66.504 203.42 3.473"/>
    <path fill="#f55" fill-rule="evenodd" stroke="#000" stroke-width="1.611" d="M85.326 28.271c-3.661 1.098-3.624 68.353 2.013 66.865 41.15-10.864 69.727-7.941 69.166-11.36l1.582-61.257c-40.575-5.362-55.49.573-72.761 5.752z"/>
    <path fill="#faa" fill-rule="evenodd" stroke="#000" stroke-width="1.611" d="M106.202 18.544c5.852-.986 27.01-.914 37.466.5 44.308 5.987-26.707 8.127-37.607 8.529-1.997.073-13.538 1.695-16.991 2.732-5.152 1.546-6.447-1.571-1.963-2.914 1.109-.332 17.293-3.07 19.104-3.18 6.619-.403 37.221.552 37.329-2.066.127-3.102-32.118-.097-36.075.489-77.145 11.429-76.132 42.085-75.27 52.013 1.867 21.487 36.658 52.238 107.027 50.44 42.29-1.08 82.942-21.832 88.457-58.29 5.743-37.965-88.341-56.216-134.13-46.624-2.785.584-8.138 1.092-12.73 3.585-.068-2.824 1.282-4.408 7.814-7.134 12.74-5.318 141.632-7.924 145.57 48.568 2.307 33.072-45.77 65.112-94.111 66.588-62.928 1.92-113.469-21.24-115.928-57.926-2.633-39.264 62.57-52.03 82.038-55.31z"/>
    <ellipse cx="103.016" cy="39.345" fill="#ffb380" stroke="#000" stroke-width="1.228" rx="6.184" ry="8.228" transform="matrix(.9998 .0202 -.1718 .98513 0 0)"/>
    <path fill="#ffe6d5" fill-rule="evenodd" d="M97.363 33.965c.543.278.966.615 1.29.99.322.375.547.788.697 1.222.298.864.314 1.86.154 2.903a12.82 12.82 0 0 1-.428 1.82c-.033 1.664-.36 3.427-.688 4.962.855-1.283 1.774-2.925 2.408-4.617.077-.711.109-1.42.074-2.105-.06-1.214-.329-2.346-.906-3.264a4.286 4.286 0 0 0-1.08-1.172 4.787 4.787 0 0 0-1.521-.739z"/>
    <ellipse cx="110.496" cy="77.684" fill="#ffb380" stroke="#000" stroke-width="1.228" rx="6.184" ry="8.228" transform="matrix(.9998 .0202 -.1718 .98513 0 0)"/>
    <path fill="#ffe6d5" fill-rule="evenodd" d="M98.255 71.885c.543.278.966.615 1.29.99.322.375.547.788.697 1.222.297.864.313 1.86.154 2.903a12.82 12.82 0 0 1-.428 1.82c-.033 1.664-.36 3.427-.688 4.962.855-1.283 1.774-2.925 2.408-4.617.077-.711.109-1.42.074-2.105-.06-1.214-.33-2.346-.906-3.263a4.286 4.286 0 0 0-1.08-1.173 4.787 4.787 0 0 0-1.521-.739z"/>
    <path fill="#ffb380" fill-rule="evenodd" stroke="#000" stroke-width="1.611" d="M119.127 13.268c6.491 2.671 7.614 3.319 8.014 10.24 4.869.096 10.135.475 13.198-.719.046-6.19-6.746-11.15-8.964-11.393-3.857-.422-13.143-.844-12.248 1.872z"/>
    <path fill="#ffe6d5" fill-rule="evenodd" d="M130.58 12.822c1.875.519 3.525 1.763 4.862 3.377a15.54 15.54 0 0 1 1.71 2.559c.147 1.084.173 2.143.088 3.113a16.197 16.197 0 0 0-1.674-2.442 13.982 13.982 0 0 0-1.078-2.579c-.907-1.666-2.2-3.16-3.908-4.028z"/>
    <path fill="#f95" stroke="#000" stroke-width="1.023" d="M151.455 183.03c-18.311 1.559-33.526 18.15-33.987 37.057-.46 18.905 14.453 31.805 32.763 30.247 18.31-1.558 33.083-16.985 33.545-35.891.461-18.908-14.01-32.973-32.321-31.414zm-1.11 4.506a5.033 5.616 41.986 0 1 5.17 4.893 5.033 5.616 41.986 0 1-5.43 5.795 5.033 5.616 41.986 0 1-5.17-4.892 5.033 5.616 41.986 0 1 5.43-5.796z"/>
    <path fill="#ffb380" fill-rule="evenodd" stroke="#000" stroke-width="1.356" d="M146.197 179.184l.303 4.016c1.393-.223 3.585-.509 6.525-.774l-.549-3.837z"/>
    <path fill="#f95" fill-rule="evenodd" stroke="#000" stroke-width="1.356" d="M143.595 145.157s-11.062.934-20.398 2.482c-22.722 3.769-23.191 34.616-2.95 32.206 7.042-.839 22.442-2.452 22.442-2.452-.691 7.196 13.964 6.523 13.89-2.037 0 0 10.757-2.362 20.309-3.805 21.923-3.313 21.106-34.615 1.99-32.32-8.89 1.067-21.646 4.348-21.646 4.348.264 6.858-12.07 14.996-13.637 1.578z"/>
    <path fill="none" stroke="#000" stroke-width="1.356" d="M143.412 144.95l-.848 32.31M157.226 144.2l-.654 31.746"/>
    <ellipse cx="128.746" cy="176.042" fill="#ffb380" stroke="#000" stroke-width="1.088" rx="10.905" ry="9.493" transform="matrix(.9964 -.08482 -.02438 .9997 0 0)"/>
    <ellipse cx="183.594" cy="171.992" fill="#ffb380" stroke="#000" stroke-width="1.088" rx="10.905" ry="9.493" transform="matrix(.9964 -.08482 -.02438 .9997 0 0)"/>
    <path fill="#ffe6d5" fill-rule="evenodd" d="M183.518 162.218c2.223-1.842 3.573-3.716 4.105-5.623.173-.619.26-1.243.26-1.868a6.493 6.493 0 0 0-.29-.972 6.872 6.872 0 0 0-1.46-2.271c-1.223-1.28-2.897-2.137-4.652-2.561-1.768-.428-3.66-.43-5.376.04 1.764-.203 3.568.09 5.126.734 1.57.65 2.857 1.644 3.643 2.819.39.583.65 1.2.772 1.833.044.226.07.455.079.687.146.397.24.843.263 1.338.07 1.563-.59 3.567-2.47 5.844zM128.704 170.69c2.223-1.842 3.573-3.716 4.105-5.623.173-.619.26-1.243.26-1.868a6.492 6.492 0 0 0-.29-.972 6.872 6.872 0 0 0-1.46-2.271c-1.223-1.28-2.897-2.136-4.652-2.561-1.768-.428-3.66-.43-5.376.04 1.764-.202 3.568.09 5.126.734 1.57.65 2.857 1.644 3.643 2.819.39.584.65 1.2.772 1.833.044.226.07.455.079.687.146.397.24.843.263 1.338.07 1.563-.59 3.567-2.47 5.844z"/>
    <path fill="#fca" stroke="#000" stroke-width="1.023" d="M152.444 185.093c-18.31 1.559-33.526 18.151-33.986 37.058-.46 18.905 14.452 31.804 32.762 30.247 18.31-1.559 33.083-16.986 33.545-35.892.462-18.907-14.01-32.973-32.321-31.413zm-1.11 4.507a5.033 5.616 41.986 0 1 5.17 4.893 5.033 5.616 41.986 0 1-5.43 5.795 5.033 5.616 41.986 0 1-5.17-4.893 5.033 5.616 41.986 0 1 5.43-5.795z"/>
    <g fill="none" stroke="#ff7f2a" stroke-linecap="round" stroke-linejoin="round">
        <path stroke-width="1.61051" d="M122.15 222.538c.102-.406 4.881-13.726 4.881-13.726l3.966 13.625M122.71 218.725c2.469-1.568 5.198-2.801 8.337-3.508M133.386 220.2c-1.987-8.084 4.715-12.08 4.169-.102-.67-8.861 5.192-11.036 4.321-.813M145.333 206.32v12.914c6.104-6.28 12.137-12.513-.966-5.796M154.535 214.016c13.536-6.515-.649-5.821-1.118.642-.164 2.259 1.318 3.722 7.117-1.27M162.415 215.98c-.463-8.359 7.943-9.367 6.457-4.525M171.668 203.423c1.165 1.25.887 2.568-.05 3.914M178.836 206.219c-4.208 1.54-6.185 4.556-1.22 3.304 7.164-1.805-.603 4.813-2.847 4.881M136.58 231.445c11.171-5.02 9.154-1.18 2.444 1.905 14.994-6.1 3.394 8.499-1.725 5.14M137.838 228.964l-.431 11.432M149.054 237.952c.036-.432.252-7.478.252-7.478M149.162 226.88c-.036.251-.18.826-.18.826M154.051 225.98l-.144 13.23M151.39 231.445c.252-.072 5.285-1.007 5.285-1.007M163.11 227.922c-13.423 11.07-.198 9.856 1.402 3.99M166.274 222.961l.072 13.193c.032-10.561 6.81-11.23 4.996-1.474M162.391 208.653c-.036.216.036 7.406.036 7.406"/>
    </g>
    <path fill="#ffe6d5" fill-rule="evenodd" d="M182.859 219.412c.568-7.744-1.023-14.69-3.935-20.265a30.022 30.022 0 0 0-2.142-2.762c-2.341-2.676-4.988-4.697-7.692-5.973-2.709-1.278-5.446-1.796-7.967-1.508 2.52.093 5.057.987 7.416 2.506 2.365 1.522 4.58 3.691 6.45 6.382.598.86 1.161 1.775 1.683 2.74 3.393 4.674 5.874 11.11 6.187 18.88z"/>
    <path fill="#fca" fill-rule="evenodd" stroke="#000" stroke-width="1.356" d="M147.301 150.994l.316-3.062 3.899-1.789c9.433 6.132 10.556 31.562 10.026 38.697-.329 4.431-2.913 10.159-5.695 10.959-4.15 1.193-6.644-.983-8.258-4.045 1.324-1.348 3.347-2.164 5.872-1.625 5.879-3.346 2.519-35.24-6.16-39.135z"/>
    <path fill="#ffe6d5" fill-rule="evenodd" d="M150.92 147.826c1.44 1.891 2.613 4.36 3.556 7.121.415.908.807 1.86 1.175 2.846 1.45 3.875 2.532 8.248 3.266 12.475.733 4.224 1.115 8.288 1.17 11.545.027 1.627-.027 3.053-.16 4.196a11.884 11.884 0 0 1-.259 1.494c-.106.42-.231.765-.378 1.02.178-.237.34-.57.483-.989.143-.418.266-.92.37-1.493.207-1.148.336-2.584.381-4.226.091-3.284-.148-7.394-.744-11.682-.595-4.285-1.548-8.763-2.892-12.778a45.973 45.973 0 0 0-1.107-2.975c-1.428-2.689-3.055-4.966-4.861-6.554z"/>
    <path fill="none" stroke="#ff2a2a" stroke-dasharray="2,1" stroke-width=".5" d="M25.459 88.536c12.85 35.888 73.703 50.763 121.823 45.995 41.296-4.09 76.218-24.481 85.568-51.157"/>
</svg>
