<svg cursor="default" version="1.1" viewBox="0 0 256 256" xmlns="http://www.w3.org/2000/svg">
 <defs>
  <linearGradient id="linearGradient867" x1="127.86" x2="151.73" y1="217.69" y2="196.2" gradientTransform="translate(-.095879 1.0547)" gradientUnits="userSpaceOnUse">
   <stop stop-color="#f55" offset="0"/>
   <stop stop-color="#ff8080" offset="1"/>
  </linearGradient>
 </defs>
 <g fill-rule="evenodd" stroke="#000">
  <path d="m138.77 170.99c-132.76-38.128-141.32-81.186-129.61-103.91 18.191-35.314 91.366-35.271 120.37-39.431l9.1444-1.5372-3.9753 2.2586 4.4698 1.4038-9.8868-0.3171c-30.368 2.2712-103.76 5.1922-118.93 38.219-25.886 56.369 106.71 96.921 128.81 101.42 38.655-8.1154 106.67-37.252 107.26-95.143 0.294-28.494-42.847-42.224-102.57-44.496l-5.7466-0.13545-2.5778-1.0952 2.7636-1.3912 5.313 0.81375c10.933 2.4906 104.65 2.2606 104.31 46.071-0.6111 78.833-116.6 97.668-109.15 97.268z" fill="#ffb380" stroke-width=".5985"/>
 </g>
 <path d="m139.52 180.99a3.6456 3.5606 0 0 0-3.6456 3.5606 3.6456 3.5606 0 0 0 3.6456 3.5606 3.6456 3.5606 0 0 0 3.6435-3.5606 3.6456 3.5606 0 0 0-3.6435-3.5606zm-0.063 1.469a2.037 2.0118 0 0 1 2.037 2.0118 2.037 2.0118 0 0 1-2.037 2.0118 2.037 2.0118 0 0 1-2.037-2.0118 2.037 2.0118 0 0 1 2.037-2.0118z" fill="#fd5" stroke="#000" stroke-linecap="round" stroke-linejoin="round" stroke-width=".56558"/>
 <g fill-rule="evenodd" stroke="#000">
  <path d="m143.58 167.9c-0.23616 5.3858-2.2585 15.733-4.1072 15.696-1.8686-0.0376-4.5725-12.186-4.154-15.871 0.0673-0.59216 8.3006-0.72215 8.2613 0.17491z" fill="#ffe680" stroke-width=".56558"/>
  <path d="m136.82 190.74 1.2379-5.3011c0.46999-0.50287 2.6208-0.46746 2.9924-0.0758l1.5016 5.5066z" fill="#ff8080" stroke-width=".49495"/>
  <path d="m139.12 188.99c-13.228 0.2475-7.4874 15.777-0.96616 20.691-4.406-0.5472-12.654-2.0028-13.028-1.5805-0.40304 0.45465-0.32003 2.8857 0.098 3.4631 0.48138 0.66458 8.9228 0.0941 13.333-0.0362-0.89036 6.2772-3.4198 18.214-2.5325 18.706 0.55859 0.30971 7.3228 0.44035 7.6775-0.14775 0.45794-0.75947-1.8223-12.224-2.7233-18.429 4.2859 0.20447 11.886 0.98081 12.739 0.53177 0.47838-0.25147 0.44916-3.3626 0.0622-3.8563-0.41358-0.52754-8.3584 0.96291-12.538 1.4444 6.456-4.7025 13.06-21.071-2.1221-20.787zm-0.23779 2.5812c0.24466-0.0102 0.49638-0.0115 0.75513-5e-3 9.7439 0.23639 7.6261 10.839 0.17427 17.922-9.1346-9.5656-8.5143-17.606-0.9294-17.916z" fill="url(#linearGradient867)" stroke-width=".49495"/>
 </g>
 <path d="m136.41 168.17c0.55928-0.053 2.123-0.1287 3.4962-0.0146 0.60637 0.0504 1.1056 0.132 1.4892 0.24252 0.22292 0.0642 0.38578 0.13216 0.50563 0.19703 0.11355 0.0615 0.18214 0.11675 0.22594 0.15654 0.0183 0.0166 0.0361 0.0342 0.0525 0.0527 0.0293 0.0312 0.0761 0.0975 0.11864 0.24102 0.0344 0.11604 0.0621 0.26936 0.0789 0.46881 0.0306 0.36203 0.0207 0.81747-0.0157 1.3457-0.0356 0.51533-0.0957 1.0839-0.146 1.5562-0.068 0.63821-0.11609 1.133-0.14429 1.4151 0.0309-0.30914 0.10447-0.73598 0.22959-1.4025 0.0875-0.46606 0.19596-1.0294 0.27882-1.5436 0.0843-0.52339 0.1423-0.99419 0.15215-1.3804 5e-3 -0.21403-4e-3 -0.39626-0.0297-0.54913-0.0316-0.18853-0.088-0.33203-0.16965-0.43751-0.0317-0.0407-0.0652-0.0756-0.0976-0.10502-0.08-0.0726-0.19114-0.14593-0.34531-0.21226-0.16021-0.0689-0.3598-0.1274-0.60754-0.17309-0.42288-0.078-0.95277-0.11244-1.5662-0.11055-1.4051 4e-3 -2.9377 0.19932-3.5056 0.25313z" fill="#fff6d5"/>
 <path d="m140.31 189.92c1.6676 0.17179 3.571 0.71669 4.8522 1.8227 0.58373 0.50393 0.91531 1.0118 1.1272 1.3947 0.0541 0.0977 0.10014 0.18708 0.13893 0.26298 0.15687 0.30702 0.34305 0.72654 0.47817 1.2914 0.24689 1.0321 0.24773 2.2349 0.0147 3.6242-0.2531 1.5091-0.75307 3.0065-0.98307 3.6198 0.21581-0.57549 0.85058-2.1043 1.223-3.5692 0.34937-1.3742 0.47401-2.6454 0.28715-3.7831-0.10334-0.62916-0.28644-1.1163-0.4654-1.4666-0.0443-0.0866-0.10028-0.18576-0.16879-0.29314-0.27137-0.42539-0.71108-0.93994-1.4024-1.4083-1.509-1.0223-3.4324-1.3237-5.1016-1.4957z" fill="#ffd5d5"/>
 <path d="m153.19 209.33c-0.26404 4e-3 -1.087-0.24177-1.3636-0.22875-0.99328 0.0467-2.4256 0.19908-4.2572 0.43045-2.4408 0.30833-3.8076 0.50161-4.7004 0.52374 0.70115-0.0174 2.5806-0.0845 4.7294-0.20466 1.6977-0.0949 3.393-0.16433 4.2538-0.20482 0.27384-0.0129 1.074-0.31188 1.338-0.31596z" fill="#ffd5d5"/>
</svg>
