<svg xmlns="http://www.w3.org/2000/svg" xmlns:xlink="http://www.w3.org/1999/xlink" cursor="default" viewBox="0 0 256 256">
    <defs>
        <linearGradient id="innoGrad1">
            <stop offset="0" stop-color="#f95"/>
            <stop offset="1" stop-color="#ffb380"/>
        </linearGradient>
        <linearGradient id="innoGrad2">
            <stop offset="0" stop-color="#ff2a2a"/>
            <stop offset="1" stop-color="#f55"/>
        </linearGradient>
        <linearGradient id="innoGrad3">
            <stop offset="0" stop-color="#f55"/>
            <stop offset="1" stop-color="#ff8080"/>
        </linearGradient>
        <linearGradient id="linearGradient4479" x1="122.86" x2="99.879" y1="958.494" y2="955.135" gradientTransform="translate(.75 -1.75)" gradientUnits="userSpaceOnUse" xlink:href="#innoGrad3"/>
        <radialGradient id="radialGradient4489" cx="92.578" cy="949.901" r="34.466" fx="92.578" fy="949.901" gradientTransform="matrix(-1.05671 -.01539 .02066 -1.41855 163.793 2302.188)" gradientUnits="userSpaceOnUse" xlink:href="#innoGrad2"/>
        <radialGradient id="radialGradient4489-4" cx="92.578" cy="949.901" r="34.466" fx="92.578" fy="949.901" gradientTransform="matrix(1.05071 .11347 .15233 -1.4105 -64.16 2286.842)" gradientUnits="userSpaceOnUse" xlink:href="#innoGrad2"/>
        <linearGradient id="linearGradient4565" x1="122.86" x2="99.879" y1="958.494" y2="955.135" gradientTransform="scale(-1 1) rotate(-6.998 -26.194 3103.983)" gradientUnits="userSpaceOnUse" xlink:href="#innoGrad3"/>
        <linearGradient id="linearGradient4583" x1="136" x2="136" y1="923.862" y2="889.362" gradientUnits="userSpaceOnUse" xlink:href="#innoGrad1"/>
    </defs>
    <g transform="translate(0 -796.362)">
        <path fill="url(#linearGradient4583)" fill-rule="evenodd" stroke="#000" d="M42.125 877.112c-1.04-17.683 177.545-24.694 181.375 9l-6 53.25-158.25-9.25c-5.708-17.666-21.134-26.364-17.125-53z"/>
        <path fill="#fca" fill-rule="evenodd" stroke="#000" d="M106.75 921.112l33.875 1.625c18.928.908 17.554 34.168-1 32.25l-40.5-6.375z"/>
        <path fill="none" stroke="#000" d="M42.25 892.862c10.09-24.976 162.725-37.973 180.25 7.25"/>
        <path fill="#ffb380" fill-rule="evenodd" stroke="#000" d="M106.375 924.112l33.875 1.625c18.928.908 17.554 34.168-1 32.25l-40.5-6.375z"/>
        <path fill="#fca" fill-rule="evenodd" stroke="#000" d="M75.75 1025.362c3.878-2.1 19.792-63.75 33.75-104-30.273-8.854-65.556-18.725-67.25-45.25-7.794 26.34-16.477 50.24-24 77.75-4.943 18.074 49.984 75.569 57.5 71.5zM162.5 930.612c3 32.334 16.834 97.364 19.5 99.125 3.809 2.516 60.562-40.161 58-67.125-2.442-25.702-8.818-51.166-16.625-76.75 1.886 15.37-31.258 30.024-60.875 44.75z"/>
        <path fill="#fca" fill-rule="evenodd" stroke="#000" d="M167.618 928.828l-33.772-3.098c-18.87-1.73-22.131 31.397-3.49 32.077l40.992-.686z"/>
        <path fill="#ffb380" fill-rule="evenodd" stroke="#000" d="M168.368 931.584l-33.772-3.098c-18.871-1.73-22.132 31.397-3.491 32.076l40.993-.685z"/>
        <ellipse cx="135.125" cy="946.362" fill="#fd5" stroke="#000" stroke-linecap="round" stroke-linejoin="round" rx="13" ry="12.25"/>
        <path fill="none" stroke="#000" stroke-dasharray="2,2" stroke-width=".5" d="M19.445 950.716c7.184 27.694 26.235 50.378 54.624 69.12 12.225-30.656 20.775-62.945 28.815-95.46M168.115 932.684c3.188 30.583 7.301 61.165 16.086 91.747 17.27-10.984 42.858-28.089 55.331-63.816"/>
        <path fill="#ff2a2a" fill-rule="evenodd" d="M141.498 965.165c14.8-10.105 38.7-12.414 56.583-10.548-17.661-2.495-42.018-.961-57.656 8.913z"/>
        <path fill="url(#radialGradient4489)" fill-rule="evenodd" stroke="#000" d="M116.185 938.182c-15.556-12.02-41.525-37.517-46.669-36.062-12.13 15.074-19.128 24.837-20.864 40.364-1.877 16.791 3.369 29.615 8.313 56.156 9.25 2.602 38.773-20.86 58.16-31.29z"/>
        <path fill="url(#linearGradient4479)" fill-rule="evenodd" stroke="#000" d="M115.125 937.475c-7.546-9.865-7.417-19.57-36.063-29.875-31.182 30.464-25.76 60.929-11.137 91.393 15.75-7.595 31.706-7.773 47.023-30.936z"/>
        <path fill="#ff2a2a" fill-rule="evenodd" d="M118.585 964.837c-14.319-11.706-38.306-16.196-56.14-15.871 17.977.327 41.417 5.53 54.876 17.363zM116.716 952.148c.452-.232.902-.47 1.349-.713-2.235-4.207-6.717-7.72-10.719-9.54 3.587 2.748 6.9 6.81 7.906 10.679.486-.148.974-.29 1.464-.426zM114.84 967.37c-2.091-.024-3.873.794-5.419 1.797-1.531.993-2.996 2.283-4.373 3.31 1.594-.822 3.129-1.815 4.79-2.549 1.651-.729 3.235-1.107 4.863-.83z"/>
        <path fill="#faa" fill-rule="evenodd" d="M79.239 909.898c5.108 2.243 11.11 6.054 16.359 10.474a74.2 74.2 0 0 1 2.029 1.363c6.237 4.344 11.563 9.505 13.608 14.326-1.277-5.216-6.07-11.135-12.028-16.344-.633-.553-1.28-1.099-1.936-1.635-6.01-3.807-12.59-6.825-18.032-8.184z"/>
        <path fill="url(#radialGradient4489-4)" fill-rule="evenodd" stroke="#000" d="M149.28 938.798c16.905-10.036 47.2-32.178 52.129-30.107 10.204 16.44 14.368 30.871 14.2 46.494-.183 16.895-5.715 31.99-15.447 49.245-9.498 1.456-35.412-23.838-53.383-36.552z"/>
        <path fill="url(#linearGradient4565)" fill-rule="evenodd" stroke="#000" d="M150.418 938.226c8.692-8.873 9.746-18.521 39.434-25.26 27.238 34.037 18.144 63.614-.08 92.07-14.708-9.457-30.523-11.578-42.904-36.434z"/>
        <path fill="#ff2a2a" fill-rule="evenodd" d="M148.318 948.899c.403.31.802.624 1.198.942 2.379-3.212 6.97-5.74 11.325-6.948-4.393.192-9.862 1.774-13.508 4.84.324.393.652.782.985 1.166zM147.163 965.422c1.649-.077 3.175.492 4.725 1.416 1.56.93 2.962 2.104 4.444 3.114-1.241-1.187-2.538-2.646-3.937-3.818-1.412-1.184-3.081-2.213-5.16-2.444z"/>
        <path fill="#faa" fill-rule="evenodd" d="M189.397 915.226c-5.568.686-12.466 2.88-18.895 5.926a75.19 75.19 0 0 0-2.121 1.387c-6.549 4.445-12.027 9.735-13.93 14.757 2.617-4.536 8.532-9.01 15.253-12.56.717-.38 1.445-.75 2.18-1.107 5.747-3.748 12.17-6.8 17.513-8.403z"/>
        <path fill="#faa" fill-rule="evenodd" stroke="#000" d="M114.594 935.884c.38 12.139.85 21.803-1.59 33.941l35.178 1.591c3.894-11.09 1.86-21.347 1.768-32.88z"/>
        <path fill="#f95" fill-rule="evenodd" stroke="#000" d="M88 889.612l.75 17.25c30.097-8.02 61.82-8.563 95.25-1.25l.25-16.75c-32.083-6.562-64.167-6.685-96.25.75z"/>
    </g>
</svg>
