<svg cursor="default" version="1.1" viewBox="0 0 256 256" xmlns="http://www.w3.org/2000/svg">
 <g stroke="#000" stroke-linecap="round" stroke-linejoin="round">
  <path d="m4.0443 47.119 2.1093 0.21093c14.275 26.857 81.986 27.212 124.45 26.999 40.801-0.20456 108.6-8.042 119.39-26.999l2.1093-0.21093c-9.0626 20.694-79.809 29.347-121.5 29.531-43.319 0.1908-115.69-0.17285-126.56-29.531z" fill="#f55" stroke-dashoffset="5.4" stroke-width=".55"/>
  <path d="m33.45 129.69c-9.6212-16.759-21.385-38.136-29.406-82.569l2.1093 0.21093c8.4867 32.486 9.6396 43.448 29.434 79.138 19.775 35.656 52.806 73.443 92.485 72.523 39.679 0.9202 72.71-36.867 92.485-72.523 19.795-35.691 18.263-42.241 29.434-79.138l2.1093-0.21093c-5.9113 36.955-19.785 65.811-29.406 82.569-23.07 40.184-60.109 78.299-94.623 77.318-34.514 0.98123-71.553-37.134-94.623-77.318z" fill="#ff8080" stroke-dashoffset="5.4" stroke-width=".55"/>
  <g stroke-dashoffset="5.4">
   <g>
    <g>
     <ellipse transform="rotate(-22.553)" cx="40.581" cy="236.39" rx="6.0034" ry="5.9288" fill="#f95" stroke-width=".55"/>
     <g stroke-width=".22">
      <path d="m125.64 200.77-0.14378 2.7649 1.0723 1.1929 4.0893 0.0551-2.756-3.7612z" fill="#fca"/>
      <path d="m126.65 200.87-0.82197-3.2688 2.0721 3.4268z" fill="#ffe6d5"/>
      <path d="m130.34 201.4 0.8671-3.5439-3.3086 3.1648z" fill="#ffe6d5"/>
      <path d="m129.37 199.56-3.5397-1.9608c2.1808-1.0277 3.8429-0.47519 5.3807 0.26197z" fill="#fca"/>
      <path d="m131.79 202.02 2.027 0.95274c0.46421-1.4135-0.91887-4.4469-2.6103-5.1142z" fill="#ffb380"/>
      <path d="m130.34 201.4 0.31446 3.3821 3.1629-1.8118z" fill="#ffe6d5"/>
      <path d="m133.82 202.97c-0.0204 2.3147-1.5869 3.7921-2.9515 4.8518l-0.11476-2.1198z" fill="#ffb380"/>
     </g>
    </g>
    <g fill="#ff7f2a" stroke-width=".22">
     <path d="m130.65 204.79-2.907 1.1669 3.1184 1.8731z"/>
     <path d="m126.56 204.73-1.141 2.9361 2.3234-1.7141z"/>
     <path d="m125.42 207.67c-1.5735-0.48952-3.1487-2.8982-3.0361-5.6544l3.1049 1.5254z"/>
    </g>
    <path d="m125.83 197.6c-1.3479 0.60355-3.2956 2.4529-3.4383 4.4146l3.2487-1.2395z" fill="#fca" stroke-width=".22"/>
   </g>
   <g transform="matrix(.95 0 0 .95 -6.2768 9.2245)">
    <g>
     <ellipse transform="rotate(-22.553)" cx="40.581" cy="236.39" rx="6.0034" ry="5.9288" fill="#f95" stroke-width=".55"/>
     <g stroke-width=".22">
      <path d="m125.64 200.77-0.14378 2.7649 1.0723 1.1929 4.0893 0.0551-2.756-3.7612z" fill="#fca"/>
      <path d="m126.65 200.87-0.82197-3.2688 2.0721 3.4268z" fill="#ffe6d5"/>
      <path d="m130.34 201.4 0.8671-3.5439-3.3086 3.1648z" fill="#ffe6d5"/>
      <path d="m129.37 199.56-3.5397-1.9608c2.1808-1.0277 3.8429-0.47519 5.3807 0.26197z" fill="#fca"/>
      <path d="m131.79 202.02 2.027 0.95274c0.46421-1.4135-0.91887-4.4469-2.6103-5.1142z" fill="#ffb380"/>
      <path d="m130.34 201.4 0.31446 3.3821 3.1629-1.8118z" fill="#ffe6d5"/>
      <path d="m133.82 202.97c-0.0204 2.3147-1.5869 3.7921-2.9515 4.8518l-0.11476-2.1198z" fill="#ffb380"/>
     </g>
    </g>
    <g fill="#ff7f2a" stroke-width=".22">
     <path d="m130.65 204.79-2.907 1.1669 3.1184 1.8731z"/>
     <path d="m126.56 204.73-1.141 2.9361 2.3234-1.7141z"/>
     <path d="m125.42 207.67c-1.5735-0.48952-3.1487-2.8982-3.0361-5.6544l3.1049 1.5254z"/>
    </g>
    <path d="m125.83 197.6c-1.3479 0.60355-3.2956 2.4529-3.4383 4.4146l3.2487-1.2395z" fill="#fca" stroke-width=".22"/>
   </g>
   <g transform="matrix(.9025 0 0 .9025 -11.851 15.329)">
    <g>
     <ellipse transform="rotate(-22.553)" cx="40.581" cy="236.39" rx="6.0034" ry="5.9288" fill="#f95" stroke-width=".55"/>
     <g stroke-width=".22">
      <path d="m125.64 200.77-0.14378 2.7649 1.0723 1.1929 4.0893 0.0551-2.756-3.7612z" fill="#fca"/>
      <path d="m126.65 200.87-0.82197-3.2688 2.0721 3.4268z" fill="#ffe6d5"/>
      <path d="m130.34 201.4 0.8671-3.5439-3.3086 3.1648z" fill="#ffe6d5"/>
      <path d="m129.37 199.56-3.5397-1.9608c2.1808-1.0277 3.8429-0.47519 5.3807 0.26197z" fill="#fca"/>
      <path d="m131.79 202.02 2.027 0.95274c0.46421-1.4135-0.91887-4.4469-2.6103-5.1142z" fill="#ffb380"/>
      <path d="m130.34 201.4 0.31446 3.3821 3.1629-1.8118z" fill="#ffe6d5"/>
      <path d="m133.82 202.97c-0.0204 2.3147-1.5869 3.7921-2.9515 4.8518l-0.11476-2.1198z" fill="#ffb380"/>
     </g>
    </g>
    <g fill="#ff7f2a" stroke-width=".22">
     <path d="m130.65 204.79-2.907 1.1669 3.1184 1.8731z"/>
     <path d="m126.56 204.73-1.141 2.9361 2.3234-1.7141z"/>
     <path d="m125.42 207.67c-1.5735-0.48952-3.1487-2.8982-3.0361-5.6544l3.1049 1.5254z"/>
    </g>
    <path d="m125.83 197.6c-1.3479 0.60355-3.2956 2.4529-3.4383 4.4146l3.2487-1.2395z" fill="#fca" stroke-width=".22"/>
   </g>
   <g transform="matrix(.85738 0 0 .85738 -16.442 19.529)">
    <g>
     <ellipse transform="rotate(-22.553)" cx="40.581" cy="236.39" rx="6.0034" ry="5.9288" fill="#f95" stroke-width=".55"/>
     <g stroke-width=".22">
      <path d="m125.64 200.77-0.14378 2.7649 1.0723 1.1929 4.0893 0.0551-2.756-3.7612z" fill="#fca"/>
      <path d="m126.65 200.87-0.82197-3.2688 2.0721 3.4268z" fill="#ffe6d5"/>
      <path d="m130.34 201.4 0.8671-3.5439-3.3086 3.1648z" fill="#ffe6d5"/>
      <path d="m129.37 199.56-3.5397-1.9608c2.1808-1.0277 3.8429-0.47519 5.3807 0.26197z" fill="#fca"/>
      <path d="m131.79 202.02 2.027 0.95274c0.46421-1.4135-0.91887-4.4469-2.6103-5.1142z" fill="#ffb380"/>
      <path d="m130.34 201.4 0.31446 3.3821 3.1629-1.8118z" fill="#ffe6d5"/>
      <path d="m133.82 202.97c-0.0204 2.3147-1.5869 3.7921-2.9515 4.8518l-0.11476-2.1198z" fill="#ffb380"/>
     </g>
    </g>
    <g fill="#ff7f2a" stroke-width=".22">
     <path d="m130.65 204.79-2.907 1.1669 3.1184 1.8731z"/>
     <path d="m126.56 204.73-1.141 2.9361 2.3234-1.7141z"/>
     <path d="m125.42 207.67c-1.5735-0.48952-3.1487-2.8982-3.0361-5.6544l3.1049 1.5254z"/>
    </g>
    <path d="m125.83 197.6c-1.3479 0.60355-3.2956 2.4529-3.4383 4.4146l3.2487-1.2395z" fill="#fca" stroke-width=".22"/>
   </g>
   <g transform="matrix(.81451 0 0 .81451 -20.169 21.644)">
    <g>
     <ellipse transform="rotate(-22.553)" cx="40.581" cy="236.39" rx="6.0034" ry="5.9288" fill="#f95" stroke-width=".55"/>
     <g stroke-width=".22">
      <path d="m125.64 200.77-0.14378 2.7649 1.0723 1.1929 4.0893 0.0551-2.756-3.7612z" fill="#fca"/>
      <path d="m126.65 200.87-0.82197-3.2688 2.0721 3.4268z" fill="#ffe6d5"/>
      <path d="m130.34 201.4 0.8671-3.5439-3.3086 3.1648z" fill="#ffe6d5"/>
      <path d="m129.37 199.56-3.5397-1.9608c2.1808-1.0277 3.8429-0.47519 5.3807 0.26197z" fill="#fca"/>
      <path d="m131.79 202.02 2.027 0.95274c0.46421-1.4135-0.91887-4.4469-2.6103-5.1142z" fill="#ffb380"/>
      <path d="m130.34 201.4 0.31446 3.3821 3.1629-1.8118z" fill="#ffe6d5"/>
      <path d="m133.82 202.97c-0.0204 2.3147-1.5869 3.7921-2.9515 4.8518l-0.11476-2.1198z" fill="#ffb380"/>
     </g>
    </g>
    <g fill="#ff7f2a" stroke-width=".22">
     <path d="m130.65 204.79-2.907 1.1669 3.1184 1.8731z"/>
     <path d="m126.56 204.73-1.141 2.9361 2.3234-1.7141z"/>
     <path d="m125.42 207.67c-1.5735-0.48952-3.1487-2.8982-3.0361-5.6544l3.1049 1.5254z"/>
    </g>
    <path d="m125.83 197.6c-1.3479 0.60355-3.2956 2.4529-3.4383 4.4146l3.2487-1.2395z" fill="#fca" stroke-width=".22"/>
   </g>
   <g transform="matrix(.77378 0 0 .77378 -23.56 23.053)">
    <g>
     <ellipse transform="rotate(-22.553)" cx="40.581" cy="236.39" rx="6.0034" ry="5.9288" fill="#f95" stroke-width=".55"/>
     <g stroke-width=".22">
      <path d="m125.64 200.77-0.14378 2.7649 1.0723 1.1929 4.0893 0.0551-2.756-3.7612z" fill="#fca"/>
      <path d="m126.65 200.87-0.82197-3.2688 2.0721 3.4268z" fill="#ffe6d5"/>
      <path d="m130.34 201.4 0.8671-3.5439-3.3086 3.1648z" fill="#ffe6d5"/>
      <path d="m129.37 199.56-3.5397-1.9608c2.1808-1.0277 3.8429-0.47519 5.3807 0.26197z" fill="#fca"/>
      <path d="m131.79 202.02 2.027 0.95274c0.46421-1.4135-0.91887-4.4469-2.6103-5.1142z" fill="#ffb380"/>
      <path d="m130.34 201.4 0.31446 3.3821 3.1629-1.8118z" fill="#ffe6d5"/>
      <path d="m133.82 202.97c-0.0204 2.3147-1.5869 3.7921-2.9515 4.8518l-0.11476-2.1198z" fill="#ffb380"/>
     </g>
    </g>
    <g fill="#ff7f2a" stroke-width=".22">
     <path d="m130.65 204.79-2.907 1.1669 3.1184 1.8731z"/>
     <path d="m126.56 204.73-1.141 2.9361 2.3234-1.7141z"/>
     <path d="m125.42 207.67c-1.5735-0.48952-3.1487-2.8982-3.0361-5.6544l3.1049 1.5254z"/>
    </g>
    <path d="m125.83 197.6c-1.3479 0.60355-3.2956 2.4529-3.4383 4.4146l3.2487-1.2395z" fill="#fca" stroke-width=".22"/>
   </g>
   <g transform="matrix(.73509 0 0 .73509 -26.738 23.643)">
    <g>
     <ellipse transform="rotate(-22.553)" cx="40.581" cy="236.39" rx="6.0034" ry="5.9288" fill="#f95" stroke-width=".55"/>
     <g stroke-width=".22">
      <path d="m125.64 200.77-0.14378 2.7649 1.0723 1.1929 4.0893 0.0551-2.756-3.7612z" fill="#fca"/>
      <path d="m126.65 200.87-0.82197-3.2688 2.0721 3.4268z" fill="#ffe6d5"/>
      <path d="m130.34 201.4 0.8671-3.5439-3.3086 3.1648z" fill="#ffe6d5"/>
      <path d="m129.37 199.56-3.5397-1.9608c2.1808-1.0277 3.8429-0.47519 5.3807 0.26197z" fill="#fca"/>
      <path d="m131.79 202.02 2.027 0.95274c0.46421-1.4135-0.91887-4.4469-2.6103-5.1142z" fill="#ffb380"/>
      <path d="m130.34 201.4 0.31446 3.3821 3.1629-1.8118z" fill="#ffe6d5"/>
      <path d="m133.82 202.97c-0.0204 2.3147-1.5869 3.7921-2.9515 4.8518l-0.11476-2.1198z" fill="#ffb380"/>
     </g>
    </g>
    <g fill="#ff7f2a" stroke-width=".22">
     <path d="m130.65 204.79-2.907 1.1669 3.1184 1.8731z"/>
     <path d="m126.56 204.73-1.141 2.9361 2.3234-1.7141z"/>
     <path d="m125.42 207.67c-1.5735-0.48952-3.1487-2.8982-3.0361-5.6544l3.1049 1.5254z"/>
    </g>
    <path d="m125.83 197.6c-1.3479 0.60355-3.2956 2.4529-3.4383 4.4146l3.2487-1.2395z" fill="#fca" stroke-width=".22"/>
   </g>
   <g transform="matrix(.69834 0 0 .69834 -28.944 23.502)">
    <g>
     <ellipse transform="rotate(-22.553)" cx="40.581" cy="236.39" rx="6.0034" ry="5.9288" fill="#f95" stroke-width=".55"/>
     <g stroke-width=".22">
      <path d="m125.64 200.77-0.14378 2.7649 1.0723 1.1929 4.0893 0.0551-2.756-3.7612z" fill="#fca"/>
      <path d="m126.65 200.87-0.82197-3.2688 2.0721 3.4268z" fill="#ffe6d5"/>
      <path d="m130.34 201.4 0.8671-3.5439-3.3086 3.1648z" fill="#ffe6d5"/>
      <path d="m129.37 199.56-3.5397-1.9608c2.1808-1.0277 3.8429-0.47519 5.3807 0.26197z" fill="#fca"/>
      <path d="m131.79 202.02 2.027 0.95274c0.46421-1.4135-0.91887-4.4469-2.6103-5.1142z" fill="#ffb380"/>
      <path d="m130.34 201.4 0.31446 3.3821 3.1629-1.8118z" fill="#ffe6d5"/>
      <path d="m133.82 202.97c-0.0204 2.3147-1.5869 3.7921-2.9515 4.8518l-0.11476-2.1198z" fill="#ffb380"/>
     </g>
    </g>
    <g fill="#ff7f2a" stroke-width=".22">
     <path d="m130.65 204.79-2.907 1.1669 3.1184 1.8731z"/>
     <path d="m126.56 204.73-1.141 2.9361 2.3234-1.7141z"/>
     <path d="m125.42 207.67c-1.5735-0.48952-3.1487-2.8982-3.0361-5.6544l3.1049 1.5254z"/>
    </g>
    <path d="m125.83 197.6c-1.3479 0.60355-3.2956 2.4529-3.4383 4.4146l3.2487-1.2395z" fill="#fca" stroke-width=".22"/>
   </g>
   <g transform="matrix(.66342 0 0 .66342 -30.774 23.055)">
    <g>
     <ellipse transform="rotate(-22.553)" cx="40.581" cy="236.39" rx="6.0034" ry="5.9288" fill="#f95" stroke-width=".55"/>
     <g stroke-width=".22">
      <path d="m125.64 200.77-0.14378 2.7649 1.0723 1.1929 4.0893 0.0551-2.756-3.7612z" fill="#fca"/>
      <path d="m126.65 200.87-0.82197-3.2688 2.0721 3.4268z" fill="#ffe6d5"/>
      <path d="m130.34 201.4 0.8671-3.5439-3.3086 3.1648z" fill="#ffe6d5"/>
      <path d="m129.37 199.56-3.5397-1.9608c2.1808-1.0277 3.8429-0.47519 5.3807 0.26197z" fill="#fca"/>
      <path d="m131.79 202.02 2.027 0.95274c0.46421-1.4135-0.91887-4.4469-2.6103-5.1142z" fill="#ffb380"/>
      <path d="m130.34 201.4 0.31446 3.3821 3.1629-1.8118z" fill="#ffe6d5"/>
      <path d="m133.82 202.97c-0.0204 2.3147-1.5869 3.7921-2.9515 4.8518l-0.11476-2.1198z" fill="#ffb380"/>
     </g>
    </g>
    <g fill="#ff7f2a" stroke-width=".22">
     <path d="m130.65 204.79-2.907 1.1669 3.1184 1.8731z"/>
     <path d="m126.56 204.73-1.141 2.9361 2.3234-1.7141z"/>
     <path d="m125.42 207.67c-1.5735-0.48952-3.1487-2.8982-3.0361-5.6544l3.1049 1.5254z"/>
    </g>
    <path d="m125.83 197.6c-1.3479 0.60355-3.2956 2.4529-3.4383 4.4146l3.2487-1.2395z" fill="#fca" stroke-width=".22"/>
   </g>
   <g transform="matrix(.63025 0 0 .63025 -32.558 22.526)">
    <g>
     <ellipse transform="rotate(-22.553)" cx="40.581" cy="236.39" rx="6.0034" ry="5.9288" fill="#f95" stroke-width=".55"/>
     <g stroke-width=".22">
      <path d="m125.64 200.77-0.14378 2.7649 1.0723 1.1929 4.0893 0.0551-2.756-3.7612z" fill="#fca"/>
      <path d="m126.65 200.87-0.82197-3.2688 2.0721 3.4268z" fill="#ffe6d5"/>
      <path d="m130.34 201.4 0.8671-3.5439-3.3086 3.1648z" fill="#ffe6d5"/>
      <path d="m129.37 199.56-3.5397-1.9608c2.1808-1.0277 3.8429-0.47519 5.3807 0.26197z" fill="#fca"/>
      <path d="m131.79 202.02 2.027 0.95274c0.46421-1.4135-0.91887-4.4469-2.6103-5.1142z" fill="#ffb380"/>
      <path d="m130.34 201.4 0.31446 3.3821 3.1629-1.8118z" fill="#ffe6d5"/>
      <path d="m133.82 202.97c-0.0204 2.3147-1.5869 3.7921-2.9515 4.8518l-0.11476-2.1198z" fill="#ffb380"/>
     </g>
    </g>
    <g fill="#ff7f2a" stroke-width=".22">
     <path d="m130.65 204.79-2.907 1.1669 3.1184 1.8731z"/>
     <path d="m126.56 204.73-1.141 2.9361 2.3234-1.7141z"/>
     <path d="m125.42 207.67c-1.5735-0.48952-3.1487-2.8982-3.0361-5.6544l3.1049 1.5254z"/>
    </g>
    <path d="m125.83 197.6c-1.3479 0.60355-3.2956 2.4529-3.4383 4.4146l3.2487-1.2395z" fill="#fca" stroke-width=".22"/>
   </g>
   <g transform="matrix(.59874 0 0 .59874 -33.672 20.983)">
    <g>
     <ellipse transform="rotate(-22.553)" cx="40.581" cy="236.39" rx="6.0034" ry="5.9288" fill="#f95" stroke-width=".55"/>
     <g stroke-width=".22">
      <path d="m125.64 200.77-0.14378 2.7649 1.0723 1.1929 4.0893 0.0551-2.756-3.7612z" fill="#fca"/>
      <path d="m126.65 200.87-0.82197-3.2688 2.0721 3.4268z" fill="#ffe6d5"/>
      <path d="m130.34 201.4 0.8671-3.5439-3.3086 3.1648z" fill="#ffe6d5"/>
      <path d="m129.37 199.56-3.5397-1.9608c2.1808-1.0277 3.8429-0.47519 5.3807 0.26197z" fill="#fca"/>
      <path d="m131.79 202.02 2.027 0.95274c0.46421-1.4135-0.91887-4.4469-2.6103-5.1142z" fill="#ffb380"/>
      <path d="m130.34 201.4 0.31446 3.3821 3.1629-1.8118z" fill="#ffe6d5"/>
      <path d="m133.82 202.97c-0.0204 2.3147-1.5869 3.7921-2.9515 4.8518l-0.11476-2.1198z" fill="#ffb380"/>
     </g>
    </g>
    <g fill="#ff7f2a" stroke-width=".22">
     <path d="m130.65 204.79-2.907 1.1669 3.1184 1.8731z"/>
     <path d="m126.56 204.73-1.141 2.9361 2.3234-1.7141z"/>
     <path d="m125.42 207.67c-1.5735-0.48952-3.1487-2.8982-3.0361-5.6544l3.1049 1.5254z"/>
    </g>
    <path d="m125.83 197.6c-1.3479 0.60355-3.2956 2.4529-3.4383 4.4146l3.2487-1.2395z" fill="#fca" stroke-width=".22"/>
   </g>
   <g transform="matrix(.5688 0 0 .5688 -34.535 19.872)">
    <g>
     <ellipse transform="rotate(-22.553)" cx="40.581" cy="236.39" rx="6.0034" ry="5.9288" fill="#f95" stroke-width=".55"/>
     <g stroke-width=".22">
      <path d="m125.64 200.77-0.14378 2.7649 1.0723 1.1929 4.0893 0.0551-2.756-3.7612z" fill="#fca"/>
      <path d="m126.65 200.87-0.82197-3.2688 2.0721 3.4268z" fill="#ffe6d5"/>
      <path d="m130.34 201.4 0.8671-3.5439-3.3086 3.1648z" fill="#ffe6d5"/>
      <path d="m129.37 199.56-3.5397-1.9608c2.1808-1.0277 3.8429-0.47519 5.3807 0.26197z" fill="#fca"/>
      <path d="m131.79 202.02 2.027 0.95274c0.46421-1.4135-0.91887-4.4469-2.6103-5.1142z" fill="#ffb380"/>
      <path d="m130.34 201.4 0.31446 3.3821 3.1629-1.8118z" fill="#ffe6d5"/>
      <path d="m133.82 202.97c-0.0204 2.3147-1.5869 3.7921-2.9515 4.8518l-0.11476-2.1198z" fill="#ffb380"/>
     </g>
    </g>
    <g fill="#ff7f2a" stroke-width=".22">
     <path d="m130.65 204.79-2.907 1.1669 3.1184 1.8731z"/>
     <path d="m126.56 204.73-1.141 2.9361 2.3234-1.7141z"/>
     <path d="m125.42 207.67c-1.5735-0.48952-3.1487-2.8982-3.0361-5.6544l3.1049 1.5254z"/>
    </g>
    <path d="m125.83 197.6c-1.3479 0.60355-3.2956 2.4529-3.4383 4.4146l3.2487-1.2395z" fill="#fca" stroke-width=".22"/>
   </g>
   <g transform="matrix(.5688 0 0 .5688 -38.658 12.346)">
    <g>
     <ellipse transform="rotate(-22.553)" cx="40.581" cy="236.39" rx="6.0034" ry="5.9288" fill="#f95" stroke-width=".55"/>
     <g stroke-width=".22">
      <path d="m125.64 200.77-0.14378 2.7649 1.0723 1.1929 4.0893 0.0551-2.756-3.7612z" fill="#fca"/>
      <path d="m126.65 200.87-0.82197-3.2688 2.0721 3.4268z" fill="#ffe6d5"/>
      <path d="m130.34 201.4 0.8671-3.5439-3.3086 3.1648z" fill="#ffe6d5"/>
      <path d="m129.37 199.56-3.5397-1.9608c2.1808-1.0277 3.8429-0.47519 5.3807 0.26197z" fill="#fca"/>
      <path d="m131.79 202.02 2.027 0.95274c0.46421-1.4135-0.91887-4.4469-2.6103-5.1142z" fill="#ffb380"/>
      <path d="m130.34 201.4 0.31446 3.3821 3.1629-1.8118z" fill="#ffe6d5"/>
      <path d="m133.82 202.97c-0.0204 2.3147-1.5869 3.7921-2.9515 4.8518l-0.11476-2.1198z" fill="#ffb380"/>
     </g>
    </g>
    <g fill="#ff7f2a" stroke-width=".22">
     <path d="m130.65 204.79-2.907 1.1669 3.1184 1.8731z"/>
     <path d="m126.56 204.73-1.141 2.9361 2.3234-1.7141z"/>
     <path d="m125.42 207.67c-1.5735-0.48952-3.1487-2.8982-3.0361-5.6544l3.1049 1.5254z"/>
    </g>
    <path d="m125.83 197.6c-1.3479 0.60355-3.2956 2.4529-3.4383 4.4146l3.2487-1.2395z" fill="#fca" stroke-width=".22"/>
   </g>
   <g transform="matrix(.5688 0 0 .5688 -42.877 4.3399)">
    <g>
     <ellipse transform="rotate(-22.553)" cx="40.581" cy="236.39" rx="6.0034" ry="5.9288" fill="#f95" stroke-width=".55"/>
     <g stroke-width=".22">
      <path d="m125.64 200.77-0.14378 2.7649 1.0723 1.1929 4.0893 0.0551-2.756-3.7612z" fill="#fca"/>
      <path d="m126.65 200.87-0.82197-3.2688 2.0721 3.4268z" fill="#ffe6d5"/>
      <path d="m130.34 201.4 0.8671-3.5439-3.3086 3.1648z" fill="#ffe6d5"/>
      <path d="m129.37 199.56-3.5397-1.9608c2.1808-1.0277 3.8429-0.47519 5.3807 0.26197z" fill="#fca"/>
      <path d="m131.79 202.02 2.027 0.95274c0.46421-1.4135-0.91887-4.4469-2.6103-5.1142z" fill="#ffb380"/>
      <path d="m130.34 201.4 0.31446 3.3821 3.1629-1.8118z" fill="#ffe6d5"/>
      <path d="m133.82 202.97c-0.0204 2.3147-1.5869 3.7921-2.9515 4.8518l-0.11476-2.1198z" fill="#ffb380"/>
     </g>
    </g>
    <g fill="#ff7f2a" stroke-width=".22">
     <path d="m130.65 204.79-2.907 1.1669 3.1184 1.8731z"/>
     <path d="m126.56 204.73-1.141 2.9361 2.3234-1.7141z"/>
     <path d="m125.42 207.67c-1.5735-0.48952-3.1487-2.8982-3.0361-5.6544l3.1049 1.5254z"/>
    </g>
    <path d="m125.83 197.6c-1.3479 0.60355-3.2956 2.4529-3.4383 4.4146l3.2487-1.2395z" fill="#fca" stroke-width=".22"/>
   </g>
   <g transform="matrix(.5688 0 0 .5688 -46.952 -3.7139)">
    <g>
     <ellipse transform="rotate(-22.553)" cx="40.581" cy="236.39" rx="6.0034" ry="5.9288" fill="#f95" stroke-width=".55"/>
     <g stroke-width=".22">
      <path d="m125.64 200.77-0.14378 2.7649 1.0723 1.1929 4.0893 0.0551-2.756-3.7612z" fill="#fca"/>
      <path d="m126.65 200.87-0.82197-3.2688 2.0721 3.4268z" fill="#ffe6d5"/>
      <path d="m130.34 201.4 0.8671-3.5439-3.3086 3.1648z" fill="#ffe6d5"/>
      <path d="m129.37 199.56-3.5397-1.9608c2.1808-1.0277 3.8429-0.47519 5.3807 0.26197z" fill="#fca"/>
      <path d="m131.79 202.02 2.027 0.95274c0.46421-1.4135-0.91887-4.4469-2.6103-5.1142z" fill="#ffb380"/>
      <path d="m130.34 201.4 0.31446 3.3821 3.1629-1.8118z" fill="#ffe6d5"/>
      <path d="m133.82 202.97c-0.0204 2.3147-1.5869 3.7921-2.9515 4.8518l-0.11476-2.1198z" fill="#ffb380"/>
     </g>
    </g>
    <g fill="#ff7f2a" stroke-width=".22">
     <path d="m130.65 204.79-2.907 1.1669 3.1184 1.8731z"/>
     <path d="m126.56 204.73-1.141 2.9361 2.3234-1.7141z"/>
     <path d="m125.42 207.67c-1.5735-0.48952-3.1487-2.8982-3.0361-5.6544l3.1049 1.5254z"/>
    </g>
    <path d="m125.83 197.6c-1.3479 0.60355-3.2956 2.4529-3.4383 4.4146l3.2487-1.2395z" fill="#fca" stroke-width=".22"/>
   </g>
   <g transform="matrix(.5688 0 0 .5688 -50.499 -11.576)">
    <g>
     <ellipse transform="rotate(-22.553)" cx="40.581" cy="236.39" rx="6.0034" ry="5.9288" fill="#f95" stroke-width=".55"/>
     <g stroke-width=".22">
      <path d="m125.64 200.77-0.14378 2.7649 1.0723 1.1929 4.0893 0.0551-2.756-3.7612z" fill="#fca"/>
      <path d="m126.65 200.87-0.82197-3.2688 2.0721 3.4268z" fill="#ffe6d5"/>
      <path d="m130.34 201.4 0.8671-3.5439-3.3086 3.1648z" fill="#ffe6d5"/>
      <path d="m129.37 199.56-3.5397-1.9608c2.1808-1.0277 3.8429-0.47519 5.3807 0.26197z" fill="#fca"/>
      <path d="m131.79 202.02 2.027 0.95274c0.46421-1.4135-0.91887-4.4469-2.6103-5.1142z" fill="#ffb380"/>
      <path d="m130.34 201.4 0.31446 3.3821 3.1629-1.8118z" fill="#ffe6d5"/>
      <path d="m133.82 202.97c-0.0204 2.3147-1.5869 3.7921-2.9515 4.8518l-0.11476-2.1198z" fill="#ffb380"/>
     </g>
    </g>
    <g fill="#ff7f2a" stroke-width=".22">
     <path d="m130.65 204.79-2.907 1.1669 3.1184 1.8731z"/>
     <path d="m126.56 204.73-1.141 2.9361 2.3234-1.7141z"/>
     <path d="m125.42 207.67c-1.5735-0.48952-3.1487-2.8982-3.0361-5.6544l3.1049 1.5254z"/>
    </g>
    <path d="m125.83 197.6c-1.3479 0.60355-3.2956 2.4529-3.4383 4.4146l3.2487-1.2395z" fill="#fca" stroke-width=".22"/>
   </g>
   <g transform="matrix(.5688 0 0 .5688 -54.19 -20.205)">
    <g>
     <ellipse transform="rotate(-22.553)" cx="40.581" cy="236.39" rx="6.0034" ry="5.9288" fill="#f95" stroke-width=".55"/>
     <g stroke-width=".22">
      <path d="m125.64 200.77-0.14378 2.7649 1.0723 1.1929 4.0893 0.0551-2.756-3.7612z" fill="#fca"/>
      <path d="m126.65 200.87-0.82197-3.2688 2.0721 3.4268z" fill="#ffe6d5"/>
      <path d="m130.34 201.4 0.8671-3.5439-3.3086 3.1648z" fill="#ffe6d5"/>
      <path d="m129.37 199.56-3.5397-1.9608c2.1808-1.0277 3.8429-0.47519 5.3807 0.26197z" fill="#fca"/>
      <path d="m131.79 202.02 2.027 0.95274c0.46421-1.4135-0.91887-4.4469-2.6103-5.1142z" fill="#ffb380"/>
      <path d="m130.34 201.4 0.31446 3.3821 3.1629-1.8118z" fill="#ffe6d5"/>
      <path d="m133.82 202.97c-0.0204 2.3147-1.5869 3.7921-2.9515 4.8518l-0.11476-2.1198z" fill="#ffb380"/>
     </g>
    </g>
    <g fill="#ff7f2a" stroke-width=".22">
     <path d="m130.65 204.79-2.907 1.1669 3.1184 1.8731z"/>
     <path d="m126.56 204.73-1.141 2.9361 2.3234-1.7141z"/>
     <path d="m125.42 207.67c-1.5735-0.48952-3.1487-2.8982-3.0361-5.6544l3.1049 1.5254z"/>
    </g>
    <path d="m125.83 197.6c-1.3479 0.60355-3.2956 2.4529-3.4383 4.4146l3.2487-1.2395z" fill="#fca" stroke-width=".22"/>
   </g>
   <g transform="matrix(.5688 0 0 .5688 -57.307 -28.93)">
    <g>
     <ellipse transform="rotate(-22.553)" cx="40.581" cy="236.39" rx="6.0034" ry="5.9288" fill="#f95" stroke-width=".55"/>
     <g stroke-width=".22">
      <path d="m125.64 200.77-0.14378 2.7649 1.0723 1.1929 4.0893 0.0551-2.756-3.7612z" fill="#fca"/>
      <path d="m126.65 200.87-0.82197-3.2688 2.0721 3.4268z" fill="#ffe6d5"/>
      <path d="m130.34 201.4 0.8671-3.5439-3.3086 3.1648z" fill="#ffe6d5"/>
      <path d="m129.37 199.56-3.5397-1.9608c2.1808-1.0277 3.8429-0.47519 5.3807 0.26197z" fill="#fca"/>
      <path d="m131.79 202.02 2.027 0.95274c0.46421-1.4135-0.91887-4.4469-2.6103-5.1142z" fill="#ffb380"/>
      <path d="m130.34 201.4 0.31446 3.3821 3.1629-1.8118z" fill="#ffe6d5"/>
      <path d="m133.82 202.97c-0.0204 2.3147-1.5869 3.7921-2.9515 4.8518l-0.11476-2.1198z" fill="#ffb380"/>
     </g>
    </g>
    <g fill="#ff7f2a" stroke-width=".22">
     <path d="m130.65 204.79-2.907 1.1669 3.1184 1.8731z"/>
     <path d="m126.56 204.73-1.141 2.9361 2.3234-1.7141z"/>
     <path d="m125.42 207.67c-1.5735-0.48952-3.1487-2.8982-3.0361-5.6544l3.1049 1.5254z"/>
    </g>
    <path d="m125.83 197.6c-1.3479 0.60355-3.2956 2.4529-3.4383 4.4146l3.2487-1.2395z" fill="#fca" stroke-width=".22"/>
   </g>
   <g transform="matrix(.54036 0 0 .54036 -56.634 -31.937)">
    <g>
     <ellipse transform="rotate(-22.553)" cx="40.581" cy="236.39" rx="6.0034" ry="5.9288" fill="#f95" stroke-width=".55"/>
     <g stroke-width=".22">
      <path d="m125.64 200.77-0.14378 2.7649 1.0723 1.1929 4.0893 0.0551-2.756-3.7612z" fill="#fca"/>
      <path d="m126.65 200.87-0.82197-3.2688 2.0721 3.4268z" fill="#ffe6d5"/>
      <path d="m130.34 201.4 0.8671-3.5439-3.3086 3.1648z" fill="#ffe6d5"/>
      <path d="m129.37 199.56-3.5397-1.9608c2.1808-1.0277 3.8429-0.47519 5.3807 0.26197z" fill="#fca"/>
      <path d="m131.79 202.02 2.027 0.95274c0.46421-1.4135-0.91887-4.4469-2.6103-5.1142z" fill="#ffb380"/>
      <path d="m130.34 201.4 0.31446 3.3821 3.1629-1.8118z" fill="#ffe6d5"/>
      <path d="m133.82 202.97c-0.0204 2.3147-1.5869 3.7921-2.9515 4.8518l-0.11476-2.1198z" fill="#ffb380"/>
     </g>
    </g>
    <g fill="#ff7f2a" stroke-width=".22">
     <path d="m130.65 204.79-2.907 1.1669 3.1184 1.8731z"/>
     <path d="m126.56 204.73-1.141 2.9361 2.3234-1.7141z"/>
     <path d="m125.42 207.67c-1.5735-0.48952-3.1487-2.8982-3.0361-5.6544l3.1049 1.5254z"/>
    </g>
    <path d="m125.83 197.6c-1.3479 0.60355-3.2956 2.4529-3.4383 4.4146l3.2487-1.2395z" fill="#fca" stroke-width=".22"/>
   </g>
   <g transform="matrix(.54036 0 0 .54036 -59.127 -40.998)">
    <g>
     <ellipse transform="rotate(-22.553)" cx="40.581" cy="236.39" rx="6.0034" ry="5.9288" fill="#f95" stroke-width=".55"/>
     <g stroke-width=".22">
      <path d="m125.64 200.77-0.14378 2.7649 1.0723 1.1929 4.0893 0.0551-2.756-3.7612z" fill="#fca"/>
      <path d="m126.65 200.87-0.82197-3.2688 2.0721 3.4268z" fill="#ffe6d5"/>
      <path d="m130.34 201.4 0.8671-3.5439-3.3086 3.1648z" fill="#ffe6d5"/>
      <path d="m129.37 199.56-3.5397-1.9608c2.1808-1.0277 3.8429-0.47519 5.3807 0.26197z" fill="#fca"/>
      <path d="m131.79 202.02 2.027 0.95274c0.46421-1.4135-0.91887-4.4469-2.6103-5.1142z" fill="#ffb380"/>
      <path d="m130.34 201.4 0.31446 3.3821 3.1629-1.8118z" fill="#ffe6d5"/>
      <path d="m133.82 202.97c-0.0204 2.3147-1.5869 3.7921-2.9515 4.8518l-0.11476-2.1198z" fill="#ffb380"/>
     </g>
    </g>
    <g fill="#ff7f2a" stroke-width=".22">
     <path d="m130.65 204.79-2.907 1.1669 3.1184 1.8731z"/>
     <path d="m126.56 204.73-1.141 2.9361 2.3234-1.7141z"/>
     <path d="m125.42 207.67c-1.5735-0.48952-3.1487-2.8982-3.0361-5.6544l3.1049 1.5254z"/>
    </g>
    <path d="m125.83 197.6c-1.3479 0.60355-3.2956 2.4529-3.4383 4.4146l3.2487-1.2395z" fill="#fca" stroke-width=".22"/>
   </g>
   <g transform="matrix(.54036 0 0 .54036 -61.333 -49.675)">
    <g>
     <ellipse transform="rotate(-22.553)" cx="40.581" cy="236.39" rx="6.0034" ry="5.9288" fill="#f95" stroke-width=".55"/>
     <g stroke-width=".22">
      <path d="m125.64 200.77-0.14378 2.7649 1.0723 1.1929 4.0893 0.0551-2.756-3.7612z" fill="#fca"/>
      <path d="m126.65 200.87-0.82197-3.2688 2.0721 3.4268z" fill="#ffe6d5"/>
      <path d="m130.34 201.4 0.8671-3.5439-3.3086 3.1648z" fill="#ffe6d5"/>
      <path d="m129.37 199.56-3.5397-1.9608c2.1808-1.0277 3.8429-0.47519 5.3807 0.26197z" fill="#fca"/>
      <path d="m131.79 202.02 2.027 0.95274c0.46421-1.4135-0.91887-4.4469-2.6103-5.1142z" fill="#ffb380"/>
      <path d="m130.34 201.4 0.31446 3.3821 3.1629-1.8118z" fill="#ffe6d5"/>
      <path d="m133.82 202.97c-0.0204 2.3147-1.5869 3.7921-2.9515 4.8518l-0.11476-2.1198z" fill="#ffb380"/>
     </g>
    </g>
    <g fill="#ff7f2a" stroke-width=".22">
     <path d="m130.65 204.79-2.907 1.1669 3.1184 1.8731z"/>
     <path d="m126.56 204.73-1.141 2.9361 2.3234-1.7141z"/>
     <path d="m125.42 207.67c-1.5735-0.48952-3.1487-2.8982-3.0361-5.6544l3.1049 1.5254z"/>
    </g>
    <path d="m125.83 197.6c-1.3479 0.60355-3.2956 2.4529-3.4383 4.4146l3.2487-1.2395z" fill="#fca" stroke-width=".22"/>
   </g>
   <g transform="matrix(.54036 0 0 .54036 -63.106 -57.537)">
    <g>
     <ellipse transform="rotate(-22.553)" cx="40.581" cy="236.39" rx="6.0034" ry="5.9288" fill="#f95" stroke-width=".55"/>
     <g stroke-width=".22">
      <path d="m125.64 200.77-0.14378 2.7649 1.0723 1.1929 4.0893 0.0551-2.756-3.7612z" fill="#fca"/>
      <path d="m126.65 200.87-0.82197-3.2688 2.0721 3.4268z" fill="#ffe6d5"/>
      <path d="m130.34 201.4 0.8671-3.5439-3.3086 3.1648z" fill="#ffe6d5"/>
      <path d="m129.37 199.56-3.5397-1.9608c2.1808-1.0277 3.8429-0.47519 5.3807 0.26197z" fill="#fca"/>
      <path d="m131.79 202.02 2.027 0.95274c0.46421-1.4135-0.91887-4.4469-2.6103-5.1142z" fill="#ffb380"/>
      <path d="m130.34 201.4 0.31446 3.3821 3.1629-1.8118z" fill="#ffe6d5"/>
      <path d="m133.82 202.97c-0.0204 2.3147-1.5869 3.7921-2.9515 4.8518l-0.11476-2.1198z" fill="#ffb380"/>
     </g>
    </g>
    <g fill="#ff7f2a" stroke-width=".22">
     <path d="m130.65 204.79-2.907 1.1669 3.1184 1.8731z"/>
     <path d="m126.56 204.73-1.141 2.9361 2.3234-1.7141z"/>
     <path d="m125.42 207.67c-1.5735-0.48952-3.1487-2.8982-3.0361-5.6544l3.1049 1.5254z"/>
    </g>
    <path d="m125.83 197.6c-1.3479 0.60355-3.2956 2.4529-3.4383 4.4146l3.2487-1.2395z" fill="#fca" stroke-width=".22"/>
   </g>
   <g transform="matrix(.95 0 0 .95 19.331 9.1249)">
    <g>
     <ellipse transform="rotate(-22.553)" cx="40.581" cy="236.39" rx="6.0034" ry="5.9288" fill="#f95" stroke-width=".55"/>
     <g stroke-width=".22">
      <path d="m125.64 200.77-0.14378 2.7649 1.0723 1.1929 4.0893 0.0551-2.756-3.7612z" fill="#fca"/>
      <path d="m126.65 200.87-0.82197-3.2688 2.0721 3.4268z" fill="#ffe6d5"/>
      <path d="m130.34 201.4 0.8671-3.5439-3.3086 3.1648z" fill="#ffe6d5"/>
      <path d="m129.37 199.56-3.5397-1.9608c2.1808-1.0277 3.8429-0.47519 5.3807 0.26197z" fill="#fca"/>
      <path d="m131.79 202.02 2.027 0.95274c0.46421-1.4135-0.91887-4.4469-2.6103-5.1142z" fill="#ffb380"/>
      <path d="m130.34 201.4 0.31446 3.3821 3.1629-1.8118z" fill="#ffe6d5"/>
      <path d="m133.82 202.97c-0.0204 2.3147-1.5869 3.7921-2.9515 4.8518l-0.11476-2.1198z" fill="#ffb380"/>
     </g>
    </g>
    <g fill="#ff7f2a" stroke-width=".22">
     <path d="m130.65 204.79-2.907 1.1669 3.1184 1.8731z"/>
     <path d="m126.56 204.73-1.141 2.9361 2.3234-1.7141z"/>
     <path d="m125.42 207.67c-1.5735-0.48952-3.1487-2.8982-3.0361-5.6544l3.1049 1.5254z"/>
    </g>
    <path d="m125.83 197.6c-1.3479 0.60355-3.2956 2.4529-3.4383 4.4146l3.2487-1.2395z" fill="#fca" stroke-width=".22"/>
   </g>
   <g transform="matrix(.9025 0 0 .9025 37.079 15.23)">
    <g>
     <ellipse transform="rotate(-22.553)" cx="40.581" cy="236.39" rx="6.0034" ry="5.9288" fill="#f95" stroke-width=".55"/>
     <g stroke-width=".22">
      <path d="m125.64 200.77-0.14378 2.7649 1.0723 1.1929 4.0893 0.0551-2.756-3.7612z" fill="#fca"/>
      <path d="m126.65 200.87-0.82197-3.2688 2.0721 3.4268z" fill="#ffe6d5"/>
      <path d="m130.34 201.4 0.8671-3.5439-3.3086 3.1648z" fill="#ffe6d5"/>
      <path d="m129.37 199.56-3.5397-1.9608c2.1808-1.0277 3.8429-0.47519 5.3807 0.26197z" fill="#fca"/>
      <path d="m131.79 202.02 2.027 0.95274c0.46421-1.4135-0.91887-4.4469-2.6103-5.1142z" fill="#ffb380"/>
      <path d="m130.34 201.4 0.31446 3.3821 3.1629-1.8118z" fill="#ffe6d5"/>
      <path d="m133.82 202.97c-0.0204 2.3147-1.5869 3.7921-2.9515 4.8518l-0.11476-2.1198z" fill="#ffb380"/>
     </g>
    </g>
    <g fill="#ff7f2a" stroke-width=".22">
     <path d="m130.65 204.79-2.907 1.1669 3.1184 1.8731z"/>
     <path d="m126.56 204.73-1.141 2.9361 2.3234-1.7141z"/>
     <path d="m125.42 207.67c-1.5735-0.48952-3.1487-2.8982-3.0361-5.6544l3.1049 1.5254z"/>
    </g>
    <path d="m125.83 197.6c-1.3479 0.60355-3.2956 2.4529-3.4383 4.4146l3.2487-1.2395z" fill="#fca" stroke-width=".22"/>
   </g>
   <g transform="matrix(.85738 0 0 .85738 53.234 19.429)">
    <g>
     <ellipse transform="rotate(-22.553)" cx="40.581" cy="236.39" rx="6.0034" ry="5.9288" fill="#f95" stroke-width=".55"/>
     <g stroke-width=".22">
      <path d="m125.64 200.77-0.14378 2.7649 1.0723 1.1929 4.0893 0.0551-2.756-3.7612z" fill="#fca"/>
      <path d="m126.65 200.87-0.82197-3.2688 2.0721 3.4268z" fill="#ffe6d5"/>
      <path d="m130.34 201.4 0.8671-3.5439-3.3086 3.1648z" fill="#ffe6d5"/>
      <path d="m129.37 199.56-3.5397-1.9608c2.1808-1.0277 3.8429-0.47519 5.3807 0.26197z" fill="#fca"/>
      <path d="m131.79 202.02 2.027 0.95274c0.46421-1.4135-0.91887-4.4469-2.6103-5.1142z" fill="#ffb380"/>
      <path d="m130.34 201.4 0.31446 3.3821 3.1629-1.8118z" fill="#ffe6d5"/>
      <path d="m133.82 202.97c-0.0204 2.3147-1.5869 3.7921-2.9515 4.8518l-0.11476-2.1198z" fill="#ffb380"/>
     </g>
    </g>
    <g fill="#ff7f2a" stroke-width=".22">
     <path d="m130.65 204.79-2.907 1.1669 3.1184 1.8731z"/>
     <path d="m126.56 204.73-1.141 2.9361 2.3234-1.7141z"/>
     <path d="m125.42 207.67c-1.5735-0.48952-3.1487-2.8982-3.0361-5.6544l3.1049 1.5254z"/>
    </g>
    <path d="m125.83 197.6c-1.3479 0.60355-3.2956 2.4529-3.4383 4.4146l3.2487-1.2395z" fill="#fca" stroke-width=".22"/>
   </g>
   <g transform="matrix(.81451 0 0 .81451 67.948 21.544)">
    <g>
     <ellipse transform="rotate(-22.553)" cx="40.581" cy="236.39" rx="6.0034" ry="5.9288" fill="#f95" stroke-width=".55"/>
     <g stroke-width=".22">
      <path d="m125.64 200.77-0.14378 2.7649 1.0723 1.1929 4.0893 0.0551-2.756-3.7612z" fill="#fca"/>
      <path d="m126.65 200.87-0.82197-3.2688 2.0721 3.4268z" fill="#ffe6d5"/>
      <path d="m130.34 201.4 0.8671-3.5439-3.3086 3.1648z" fill="#ffe6d5"/>
      <path d="m129.37 199.56-3.5397-1.9608c2.1808-1.0277 3.8429-0.47519 5.3807 0.26197z" fill="#fca"/>
      <path d="m131.79 202.02 2.027 0.95274c0.46421-1.4135-0.91887-4.4469-2.6103-5.1142z" fill="#ffb380"/>
      <path d="m130.34 201.4 0.31446 3.3821 3.1629-1.8118z" fill="#ffe6d5"/>
      <path d="m133.82 202.97c-0.0204 2.3147-1.5869 3.7921-2.9515 4.8518l-0.11476-2.1198z" fill="#ffb380"/>
     </g>
    </g>
    <g fill="#ff7f2a" stroke-width=".22">
     <path d="m130.65 204.79-2.907 1.1669 3.1184 1.8731z"/>
     <path d="m126.56 204.73-1.141 2.9361 2.3234-1.7141z"/>
     <path d="m125.42 207.67c-1.5735-0.48952-3.1487-2.8982-3.0361-5.6544l3.1049 1.5254z"/>
    </g>
    <path d="m125.83 197.6c-1.3479 0.60355-3.2956 2.4529-3.4383 4.4146l3.2487-1.2395z" fill="#fca" stroke-width=".22"/>
   </g>
   <g transform="matrix(.77378 0 0 .77378 81.777 22.954)">
    <g>
     <ellipse transform="rotate(-22.553)" cx="40.581" cy="236.39" rx="6.0034" ry="5.9288" fill="#f95" stroke-width=".55"/>
     <g stroke-width=".22">
      <path d="m125.64 200.77-0.14378 2.7649 1.0723 1.1929 4.0893 0.0551-2.756-3.7612z" fill="#fca"/>
      <path d="m126.65 200.87-0.82197-3.2688 2.0721 3.4268z" fill="#ffe6d5"/>
      <path d="m130.34 201.4 0.8671-3.5439-3.3086 3.1648z" fill="#ffe6d5"/>
      <path d="m129.37 199.56-3.5397-1.9608c2.1808-1.0277 3.8429-0.47519 5.3807 0.26197z" fill="#fca"/>
      <path d="m131.79 202.02 2.027 0.95274c0.46421-1.4135-0.91887-4.4469-2.6103-5.1142z" fill="#ffb380"/>
      <path d="m130.34 201.4 0.31446 3.3821 3.1629-1.8118z" fill="#ffe6d5"/>
      <path d="m133.82 202.97c-0.0204 2.3147-1.5869 3.7921-2.9515 4.8518l-0.11476-2.1198z" fill="#ffb380"/>
     </g>
    </g>
    <g fill="#ff7f2a" stroke-width=".22">
     <path d="m130.65 204.79-2.907 1.1669 3.1184 1.8731z"/>
     <path d="m126.56 204.73-1.141 2.9361 2.3234-1.7141z"/>
     <path d="m125.42 207.67c-1.5735-0.48952-3.1487-2.8982-3.0361-5.6544l3.1049 1.5254z"/>
    </g>
    <path d="m125.83 197.6c-1.3479 0.60355-3.2956 2.4529-3.4383 4.4146l3.2487-1.2395z" fill="#fca" stroke-width=".22"/>
   </g>
   <g transform="matrix(.73509 0 0 .73509 94.87 23.544)">
    <g>
     <ellipse transform="rotate(-22.553)" cx="40.581" cy="236.39" rx="6.0034" ry="5.9288" fill="#f95" stroke-width=".55"/>
     <g stroke-width=".22">
      <path d="m125.64 200.77-0.14378 2.7649 1.0723 1.1929 4.0893 0.0551-2.756-3.7612z" fill="#fca"/>
      <path d="m126.65 200.87-0.82197-3.2688 2.0721 3.4268z" fill="#ffe6d5"/>
      <path d="m130.34 201.4 0.8671-3.5439-3.3086 3.1648z" fill="#ffe6d5"/>
      <path d="m129.37 199.56-3.5397-1.9608c2.1808-1.0277 3.8429-0.47519 5.3807 0.26197z" fill="#fca"/>
      <path d="m131.79 202.02 2.027 0.95274c0.46421-1.4135-0.91887-4.4469-2.6103-5.1142z" fill="#ffb380"/>
      <path d="m130.34 201.4 0.31446 3.3821 3.1629-1.8118z" fill="#ffe6d5"/>
      <path d="m133.82 202.97c-0.0204 2.3147-1.5869 3.7921-2.9515 4.8518l-0.11476-2.1198z" fill="#ffb380"/>
     </g>
    </g>
    <g fill="#ff7f2a" stroke-width=".22">
     <path d="m130.65 204.79-2.907 1.1669 3.1184 1.8731z"/>
     <path d="m126.56 204.73-1.141 2.9361 2.3234-1.7141z"/>
     <path d="m125.42 207.67c-1.5735-0.48952-3.1487-2.8982-3.0361-5.6544l3.1049 1.5254z"/>
    </g>
    <path d="m125.83 197.6c-1.3479 0.60355-3.2956 2.4529-3.4383 4.4146l3.2487-1.2395z" fill="#fca" stroke-width=".22"/>
   </g>
   <g transform="matrix(.69834 0 0 .69834 106.49 23.402)">
    <g>
     <ellipse transform="rotate(-22.553)" cx="40.581" cy="236.39" rx="6.0034" ry="5.9288" fill="#f95" stroke-width=".55"/>
     <g stroke-width=".22">
      <path d="m125.64 200.77-0.14378 2.7649 1.0723 1.1929 4.0893 0.0551-2.756-3.7612z" fill="#fca"/>
      <path d="m126.65 200.87-0.82197-3.2688 2.0721 3.4268z" fill="#ffe6d5"/>
      <path d="m130.34 201.4 0.8671-3.5439-3.3086 3.1648z" fill="#ffe6d5"/>
      <path d="m129.37 199.56-3.5397-1.9608c2.1808-1.0277 3.8429-0.47519 5.3807 0.26197z" fill="#fca"/>
      <path d="m131.79 202.02 2.027 0.95274c0.46421-1.4135-0.91887-4.4469-2.6103-5.1142z" fill="#ffb380"/>
      <path d="m130.34 201.4 0.31446 3.3821 3.1629-1.8118z" fill="#ffe6d5"/>
      <path d="m133.82 202.97c-0.0204 2.3147-1.5869 3.7921-2.9515 4.8518l-0.11476-2.1198z" fill="#ffb380"/>
     </g>
    </g>
    <g fill="#ff7f2a" stroke-width=".22">
     <path d="m130.65 204.79-2.907 1.1669 3.1184 1.8731z"/>
     <path d="m126.56 204.73-1.141 2.9361 2.3234-1.7141z"/>
     <path d="m125.42 207.67c-1.5735-0.48952-3.1487-2.8982-3.0361-5.6544l3.1049 1.5254z"/>
    </g>
    <path d="m125.83 197.6c-1.3479 0.60355-3.2956 2.4529-3.4383 4.4146l3.2487-1.2395z" fill="#fca" stroke-width=".22"/>
   </g>
   <g transform="matrix(.66342 0 0 .66342 117.27 22.956)">
    <g>
     <ellipse transform="rotate(-22.553)" cx="40.581" cy="236.39" rx="6.0034" ry="5.9288" fill="#f95" stroke-width=".55"/>
     <g stroke-width=".22">
      <path d="m125.64 200.77-0.14378 2.7649 1.0723 1.1929 4.0893 0.0551-2.756-3.7612z" fill="#fca"/>
      <path d="m126.65 200.87-0.82197-3.2688 2.0721 3.4268z" fill="#ffe6d5"/>
      <path d="m130.34 201.4 0.8671-3.5439-3.3086 3.1648z" fill="#ffe6d5"/>
      <path d="m129.37 199.56-3.5397-1.9608c2.1808-1.0277 3.8429-0.47519 5.3807 0.26197z" fill="#fca"/>
      <path d="m131.79 202.02 2.027 0.95274c0.46421-1.4135-0.91887-4.4469-2.6103-5.1142z" fill="#ffb380"/>
      <path d="m130.34 201.4 0.31446 3.3821 3.1629-1.8118z" fill="#ffe6d5"/>
      <path d="m133.82 202.97c-0.0204 2.3147-1.5869 3.7921-2.9515 4.8518l-0.11476-2.1198z" fill="#ffb380"/>
     </g>
    </g>
    <g fill="#ff7f2a" stroke-width=".22">
     <path d="m130.65 204.79-2.907 1.1669 3.1184 1.8731z"/>
     <path d="m126.56 204.73-1.141 2.9361 2.3234-1.7141z"/>
     <path d="m125.42 207.67c-1.5735-0.48952-3.1487-2.8982-3.0361-5.6544l3.1049 1.5254z"/>
    </g>
    <path d="m125.83 197.6c-1.3479 0.60355-3.2956 2.4529-3.4383 4.4146l3.2487-1.2395z" fill="#fca" stroke-width=".22"/>
   </g>
   <g transform="matrix(.63025 0 0 .63025 127.56 22.427)">
    <g>
     <ellipse transform="rotate(-22.553)" cx="40.581" cy="236.39" rx="6.0034" ry="5.9288" fill="#f95" stroke-width=".55"/>
     <g stroke-width=".22">
      <path d="m125.64 200.77-0.14378 2.7649 1.0723 1.1929 4.0893 0.0551-2.756-3.7612z" fill="#fca"/>
      <path d="m126.65 200.87-0.82197-3.2688 2.0721 3.4268z" fill="#ffe6d5"/>
      <path d="m130.34 201.4 0.8671-3.5439-3.3086 3.1648z" fill="#ffe6d5"/>
      <path d="m129.37 199.56-3.5397-1.9608c2.1808-1.0277 3.8429-0.47519 5.3807 0.26197z" fill="#fca"/>
      <path d="m131.79 202.02 2.027 0.95274c0.46421-1.4135-0.91887-4.4469-2.6103-5.1142z" fill="#ffb380"/>
      <path d="m130.34 201.4 0.31446 3.3821 3.1629-1.8118z" fill="#ffe6d5"/>
      <path d="m133.82 202.97c-0.0204 2.3147-1.5869 3.7921-2.9515 4.8518l-0.11476-2.1198z" fill="#ffb380"/>
     </g>
    </g>
    <g fill="#ff7f2a" stroke-width=".22">
     <path d="m130.65 204.79-2.907 1.1669 3.1184 1.8731z"/>
     <path d="m126.56 204.73-1.141 2.9361 2.3234-1.7141z"/>
     <path d="m125.42 207.67c-1.5735-0.48952-3.1487-2.8982-3.0361-5.6544l3.1049 1.5254z"/>
    </g>
    <path d="m125.83 197.6c-1.3479 0.60355-3.2956 2.4529-3.4383 4.4146l3.2487-1.2395z" fill="#fca" stroke-width=".22"/>
   </g>
   <g transform="matrix(.59874 0 0 .59874 136.75 20.883)">
    <g>
     <ellipse transform="rotate(-22.553)" cx="40.581" cy="236.39" rx="6.0034" ry="5.9288" fill="#f95" stroke-width=".55"/>
     <g stroke-width=".22">
      <path d="m125.64 200.77-0.14378 2.7649 1.0723 1.1929 4.0893 0.0551-2.756-3.7612z" fill="#fca"/>
      <path d="m126.65 200.87-0.82197-3.2688 2.0721 3.4268z" fill="#ffe6d5"/>
      <path d="m130.34 201.4 0.8671-3.5439-3.3086 3.1648z" fill="#ffe6d5"/>
      <path d="m129.37 199.56-3.5397-1.9608c2.1808-1.0277 3.8429-0.47519 5.3807 0.26197z" fill="#fca"/>
      <path d="m131.79 202.02 2.027 0.95274c0.46421-1.4135-0.91887-4.4469-2.6103-5.1142z" fill="#ffb380"/>
      <path d="m130.34 201.4 0.31446 3.3821 3.1629-1.8118z" fill="#ffe6d5"/>
      <path d="m133.82 202.97c-0.0204 2.3147-1.5869 3.7921-2.9515 4.8518l-0.11476-2.1198z" fill="#ffb380"/>
     </g>
    </g>
    <g fill="#ff7f2a" stroke-width=".22">
     <path d="m130.65 204.79-2.907 1.1669 3.1184 1.8731z"/>
     <path d="m126.56 204.73-1.141 2.9361 2.3234-1.7141z"/>
     <path d="m125.42 207.67c-1.5735-0.48952-3.1487-2.8982-3.0361-5.6544l3.1049 1.5254z"/>
    </g>
    <path d="m125.83 197.6c-1.3479 0.60355-3.2956 2.4529-3.4383 4.4146l3.2487-1.2395z" fill="#fca" stroke-width=".22"/>
   </g>
   <g transform="matrix(.5688 0 0 .5688 145.28 19.773)">
    <g>
     <ellipse transform="rotate(-22.553)" cx="40.581" cy="236.39" rx="6.0034" ry="5.9288" fill="#f95" stroke-width=".55"/>
     <g stroke-width=".22">
      <path d="m125.64 200.77-0.14378 2.7649 1.0723 1.1929 4.0893 0.0551-2.756-3.7612z" fill="#fca"/>
      <path d="m126.65 200.87-0.82197-3.2688 2.0721 3.4268z" fill="#ffe6d5"/>
      <path d="m130.34 201.4 0.8671-3.5439-3.3086 3.1648z" fill="#ffe6d5"/>
      <path d="m129.37 199.56-3.5397-1.9608c2.1808-1.0277 3.8429-0.47519 5.3807 0.26197z" fill="#fca"/>
      <path d="m131.79 202.02 2.027 0.95274c0.46421-1.4135-0.91887-4.4469-2.6103-5.1142z" fill="#ffb380"/>
      <path d="m130.34 201.4 0.31446 3.3821 3.1629-1.8118z" fill="#ffe6d5"/>
      <path d="m133.82 202.97c-0.0204 2.3147-1.5869 3.7921-2.9515 4.8518l-0.11476-2.1198z" fill="#ffb380"/>
     </g>
    </g>
    <g fill="#ff7f2a" stroke-width=".22">
     <path d="m130.65 204.79-2.907 1.1669 3.1184 1.8731z"/>
     <path d="m126.56 204.73-1.141 2.9361 2.3234-1.7141z"/>
     <path d="m125.42 207.67c-1.5735-0.48952-3.1487-2.8982-3.0361-5.6544l3.1049 1.5254z"/>
    </g>
    <path d="m125.83 197.6c-1.3479 0.60355-3.2956 2.4529-3.4383 4.4146l3.2487-1.2395z" fill="#fca" stroke-width=".22"/>
   </g>
   <g transform="matrix(.5688 0 0 .5688 149.41 12.246)">
    <g>
     <ellipse transform="rotate(-22.553)" cx="40.581" cy="236.39" rx="6.0034" ry="5.9288" fill="#f95" stroke-width=".55"/>
     <g stroke-width=".22">
      <path d="m125.64 200.77-0.14378 2.7649 1.0723 1.1929 4.0893 0.0551-2.756-3.7612z" fill="#fca"/>
      <path d="m126.65 200.87-0.82197-3.2688 2.0721 3.4268z" fill="#ffe6d5"/>
      <path d="m130.34 201.4 0.8671-3.5439-3.3086 3.1648z" fill="#ffe6d5"/>
      <path d="m129.37 199.56-3.5397-1.9608c2.1808-1.0277 3.8429-0.47519 5.3807 0.26197z" fill="#fca"/>
      <path d="m131.79 202.02 2.027 0.95274c0.46421-1.4135-0.91887-4.4469-2.6103-5.1142z" fill="#ffb380"/>
      <path d="m130.34 201.4 0.31446 3.3821 3.1629-1.8118z" fill="#ffe6d5"/>
      <path d="m133.82 202.97c-0.0204 2.3147-1.5869 3.7921-2.9515 4.8518l-0.11476-2.1198z" fill="#ffb380"/>
     </g>
    </g>
    <g fill="#ff7f2a" stroke-width=".22">
     <path d="m130.65 204.79-2.907 1.1669 3.1184 1.8731z"/>
     <path d="m126.56 204.73-1.141 2.9361 2.3234-1.7141z"/>
     <path d="m125.42 207.67c-1.5735-0.48952-3.1487-2.8982-3.0361-5.6544l3.1049 1.5254z"/>
    </g>
    <path d="m125.83 197.6c-1.3479 0.60355-3.2956 2.4529-3.4383 4.4146l3.2487-1.2395z" fill="#fca" stroke-width=".22"/>
   </g>
   <g transform="matrix(.5688 0 0 .5688 153.63 4.2403)">
    <g>
     <ellipse transform="rotate(-22.553)" cx="40.581" cy="236.39" rx="6.0034" ry="5.9288" fill="#f95" stroke-width=".55"/>
     <g stroke-width=".22">
      <path d="m125.64 200.77-0.14378 2.7649 1.0723 1.1929 4.0893 0.0551-2.756-3.7612z" fill="#fca"/>
      <path d="m126.65 200.87-0.82197-3.2688 2.0721 3.4268z" fill="#ffe6d5"/>
      <path d="m130.34 201.4 0.8671-3.5439-3.3086 3.1648z" fill="#ffe6d5"/>
      <path d="m129.37 199.56-3.5397-1.9608c2.1808-1.0277 3.8429-0.47519 5.3807 0.26197z" fill="#fca"/>
      <path d="m131.79 202.02 2.027 0.95274c0.46421-1.4135-0.91887-4.4469-2.6103-5.1142z" fill="#ffb380"/>
      <path d="m130.34 201.4 0.31446 3.3821 3.1629-1.8118z" fill="#ffe6d5"/>
      <path d="m133.82 202.97c-0.0204 2.3147-1.5869 3.7921-2.9515 4.8518l-0.11476-2.1198z" fill="#ffb380"/>
     </g>
    </g>
    <g fill="#ff7f2a" stroke-width=".22">
     <path d="m130.65 204.79-2.907 1.1669 3.1184 1.8731z"/>
     <path d="m126.56 204.73-1.141 2.9361 2.3234-1.7141z"/>
     <path d="m125.42 207.67c-1.5735-0.48952-3.1487-2.8982-3.0361-5.6544l3.1049 1.5254z"/>
    </g>
    <path d="m125.83 197.6c-1.3479 0.60355-3.2956 2.4529-3.4383 4.4146l3.2487-1.2395z" fill="#fca" stroke-width=".22"/>
   </g>
   <g transform="matrix(.5688 0 0 .5688 157.7 -3.8135)">
    <g>
     <ellipse transform="rotate(-22.553)" cx="40.581" cy="236.39" rx="6.0034" ry="5.9288" fill="#f95" stroke-width=".55"/>
     <g stroke-width=".22">
      <path d="m125.64 200.77-0.14378 2.7649 1.0723 1.1929 4.0893 0.0551-2.756-3.7612z" fill="#fca"/>
      <path d="m126.65 200.87-0.82197-3.2688 2.0721 3.4268z" fill="#ffe6d5"/>
      <path d="m130.34 201.4 0.8671-3.5439-3.3086 3.1648z" fill="#ffe6d5"/>
      <path d="m129.37 199.56-3.5397-1.9608c2.1808-1.0277 3.8429-0.47519 5.3807 0.26197z" fill="#fca"/>
      <path d="m131.79 202.02 2.027 0.95274c0.46421-1.4135-0.91887-4.4469-2.6103-5.1142z" fill="#ffb380"/>
      <path d="m130.34 201.4 0.31446 3.3821 3.1629-1.8118z" fill="#ffe6d5"/>
      <path d="m133.82 202.97c-0.0204 2.3147-1.5869 3.7921-2.9515 4.8518l-0.11476-2.1198z" fill="#ffb380"/>
     </g>
    </g>
    <g fill="#ff7f2a" stroke-width=".22">
     <path d="m130.65 204.79-2.907 1.1669 3.1184 1.8731z"/>
     <path d="m126.56 204.73-1.141 2.9361 2.3234-1.7141z"/>
     <path d="m125.42 207.67c-1.5735-0.48952-3.1487-2.8982-3.0361-5.6544l3.1049 1.5254z"/>
    </g>
    <path d="m125.83 197.6c-1.3479 0.60355-3.2956 2.4529-3.4383 4.4146l3.2487-1.2395z" fill="#fca" stroke-width=".22"/>
   </g>
   <g transform="matrix(.5688 0 0 .5688 161.25 -11.676)">
    <g>
     <ellipse transform="rotate(-22.553)" cx="40.581" cy="236.39" rx="6.0034" ry="5.9288" fill="#f95" stroke-width=".55"/>
     <g stroke-width=".22">
      <path d="m125.64 200.77-0.14378 2.7649 1.0723 1.1929 4.0893 0.0551-2.756-3.7612z" fill="#fca"/>
      <path d="m126.65 200.87-0.82197-3.2688 2.0721 3.4268z" fill="#ffe6d5"/>
      <path d="m130.34 201.4 0.8671-3.5439-3.3086 3.1648z" fill="#ffe6d5"/>
      <path d="m129.37 199.56-3.5397-1.9608c2.1808-1.0277 3.8429-0.47519 5.3807 0.26197z" fill="#fca"/>
      <path d="m131.79 202.02 2.027 0.95274c0.46421-1.4135-0.91887-4.4469-2.6103-5.1142z" fill="#ffb380"/>
      <path d="m130.34 201.4 0.31446 3.3821 3.1629-1.8118z" fill="#ffe6d5"/>
      <path d="m133.82 202.97c-0.0204 2.3147-1.5869 3.7921-2.9515 4.8518l-0.11476-2.1198z" fill="#ffb380"/>
     </g>
    </g>
    <g fill="#ff7f2a" stroke-width=".22">
     <path d="m130.65 204.79-2.907 1.1669 3.1184 1.8731z"/>
     <path d="m126.56 204.73-1.141 2.9361 2.3234-1.7141z"/>
     <path d="m125.42 207.67c-1.5735-0.48952-3.1487-2.8982-3.0361-5.6544l3.1049 1.5254z"/>
    </g>
    <path d="m125.83 197.6c-1.3479 0.60355-3.2956 2.4529-3.4383 4.4146l3.2487-1.2395z" fill="#fca" stroke-width=".22"/>
   </g>
   <g transform="matrix(.5688 0 0 .5688 164.94 -20.305)">
    <g>
     <ellipse transform="rotate(-22.553)" cx="40.581" cy="236.39" rx="6.0034" ry="5.9288" fill="#f95" stroke-width=".55"/>
     <g stroke-width=".22">
      <path d="m125.64 200.77-0.14378 2.7649 1.0723 1.1929 4.0893 0.0551-2.756-3.7612z" fill="#fca"/>
      <path d="m126.65 200.87-0.82197-3.2688 2.0721 3.4268z" fill="#ffe6d5"/>
      <path d="m130.34 201.4 0.8671-3.5439-3.3086 3.1648z" fill="#ffe6d5"/>
      <path d="m129.37 199.56-3.5397-1.9608c2.1808-1.0277 3.8429-0.47519 5.3807 0.26197z" fill="#fca"/>
      <path d="m131.79 202.02 2.027 0.95274c0.46421-1.4135-0.91887-4.4469-2.6103-5.1142z" fill="#ffb380"/>
      <path d="m130.34 201.4 0.31446 3.3821 3.1629-1.8118z" fill="#ffe6d5"/>
      <path d="m133.82 202.97c-0.0204 2.3147-1.5869 3.7921-2.9515 4.8518l-0.11476-2.1198z" fill="#ffb380"/>
     </g>
    </g>
    <g fill="#ff7f2a" stroke-width=".22">
     <path d="m130.65 204.79-2.907 1.1669 3.1184 1.8731z"/>
     <path d="m126.56 204.73-1.141 2.9361 2.3234-1.7141z"/>
     <path d="m125.42 207.67c-1.5735-0.48952-3.1487-2.8982-3.0361-5.6544l3.1049 1.5254z"/>
    </g>
    <path d="m125.83 197.6c-1.3479 0.60355-3.2956 2.4529-3.4383 4.4146l3.2487-1.2395z" fill="#fca" stroke-width=".22"/>
   </g>
   <g transform="matrix(.5688 0 0 .5688 168.06 -29.03)">
    <g>
     <ellipse transform="rotate(-22.553)" cx="40.581" cy="236.39" rx="6.0034" ry="5.9288" fill="#f95" stroke-width=".55"/>
     <g stroke-width=".22">
      <path d="m125.64 200.77-0.14378 2.7649 1.0723 1.1929 4.0893 0.0551-2.756-3.7612z" fill="#fca"/>
      <path d="m126.65 200.87-0.82197-3.2688 2.0721 3.4268z" fill="#ffe6d5"/>
      <path d="m130.34 201.4 0.8671-3.5439-3.3086 3.1648z" fill="#ffe6d5"/>
      <path d="m129.37 199.56-3.5397-1.9608c2.1808-1.0277 3.8429-0.47519 5.3807 0.26197z" fill="#fca"/>
      <path d="m131.79 202.02 2.027 0.95274c0.46421-1.4135-0.91887-4.4469-2.6103-5.1142z" fill="#ffb380"/>
      <path d="m130.34 201.4 0.31446 3.3821 3.1629-1.8118z" fill="#ffe6d5"/>
      <path d="m133.82 202.97c-0.0204 2.3147-1.5869 3.7921-2.9515 4.8518l-0.11476-2.1198z" fill="#ffb380"/>
     </g>
    </g>
    <g fill="#ff7f2a" stroke-width=".22">
     <path d="m130.65 204.79-2.907 1.1669 3.1184 1.8731z"/>
     <path d="m126.56 204.73-1.141 2.9361 2.3234-1.7141z"/>
     <path d="m125.42 207.67c-1.5735-0.48952-3.1487-2.8982-3.0361-5.6544l3.1049 1.5254z"/>
    </g>
    <path d="m125.83 197.6c-1.3479 0.60355-3.2956 2.4529-3.4383 4.4146l3.2487-1.2395z" fill="#fca" stroke-width=".22"/>
   </g>
   <g transform="matrix(.54036 0 0 .54036 174.67 -32.037)">
    <g>
     <ellipse transform="rotate(-22.553)" cx="40.581" cy="236.39" rx="6.0034" ry="5.9288" fill="#f95" stroke-width=".55"/>
     <g stroke-width=".22">
      <path d="m125.64 200.77-0.14378 2.7649 1.0723 1.1929 4.0893 0.0551-2.756-3.7612z" fill="#fca"/>
      <path d="m126.65 200.87-0.82197-3.2688 2.0721 3.4268z" fill="#ffe6d5"/>
      <path d="m130.34 201.4 0.8671-3.5439-3.3086 3.1648z" fill="#ffe6d5"/>
      <path d="m129.37 199.56-3.5397-1.9608c2.1808-1.0277 3.8429-0.47519 5.3807 0.26197z" fill="#fca"/>
      <path d="m131.79 202.02 2.027 0.95274c0.46421-1.4135-0.91887-4.4469-2.6103-5.1142z" fill="#ffb380"/>
      <path d="m130.34 201.4 0.31446 3.3821 3.1629-1.8118z" fill="#ffe6d5"/>
      <path d="m133.82 202.97c-0.0204 2.3147-1.5869 3.7921-2.9515 4.8518l-0.11476-2.1198z" fill="#ffb380"/>
     </g>
    </g>
    <g fill="#ff7f2a" stroke-width=".22">
     <path d="m130.65 204.79-2.907 1.1669 3.1184 1.8731z"/>
     <path d="m126.56 204.73-1.141 2.9361 2.3234-1.7141z"/>
     <path d="m125.42 207.67c-1.5735-0.48952-3.1487-2.8982-3.0361-5.6544l3.1049 1.5254z"/>
    </g>
    <path d="m125.83 197.6c-1.3479 0.60355-3.2956 2.4529-3.4383 4.4146l3.2487-1.2395z" fill="#fca" stroke-width=".22"/>
   </g>
   <g transform="matrix(.54036 0 0 .54036 177.17 -41.097)">
    <g>
     <ellipse transform="rotate(-22.553)" cx="40.581" cy="236.39" rx="6.0034" ry="5.9288" fill="#f95" stroke-width=".55"/>
     <g stroke-width=".22">
      <path d="m125.64 200.77-0.14378 2.7649 1.0723 1.1929 4.0893 0.0551-2.756-3.7612z" fill="#fca"/>
      <path d="m126.65 200.87-0.82197-3.2688 2.0721 3.4268z" fill="#ffe6d5"/>
      <path d="m130.34 201.4 0.8671-3.5439-3.3086 3.1648z" fill="#ffe6d5"/>
      <path d="m129.37 199.56-3.5397-1.9608c2.1808-1.0277 3.8429-0.47519 5.3807 0.26197z" fill="#fca"/>
      <path d="m131.79 202.02 2.027 0.95274c0.46421-1.4135-0.91887-4.4469-2.6103-5.1142z" fill="#ffb380"/>
      <path d="m130.34 201.4 0.31446 3.3821 3.1629-1.8118z" fill="#ffe6d5"/>
      <path d="m133.82 202.97c-0.0204 2.3147-1.5869 3.7921-2.9515 4.8518l-0.11476-2.1198z" fill="#ffb380"/>
     </g>
    </g>
    <g fill="#ff7f2a" stroke-width=".22">
     <path d="m130.65 204.79-2.907 1.1669 3.1184 1.8731z"/>
     <path d="m126.56 204.73-1.141 2.9361 2.3234-1.7141z"/>
     <path d="m125.42 207.67c-1.5735-0.48952-3.1487-2.8982-3.0361-5.6544l3.1049 1.5254z"/>
    </g>
    <path d="m125.83 197.6c-1.3479 0.60355-3.2956 2.4529-3.4383 4.4146l3.2487-1.2395z" fill="#fca" stroke-width=".22"/>
   </g>
   <g transform="matrix(.54036 0 0 .54036 179.37 -49.774)">
    <g>
     <ellipse transform="rotate(-22.553)" cx="40.581" cy="236.39" rx="6.0034" ry="5.9288" fill="#f95" stroke-width=".55"/>
     <g stroke-width=".22">
      <path d="m125.64 200.77-0.14378 2.7649 1.0723 1.1929 4.0893 0.0551-2.756-3.7612z" fill="#fca"/>
      <path d="m126.65 200.87-0.82197-3.2688 2.0721 3.4268z" fill="#ffe6d5"/>
      <path d="m130.34 201.4 0.8671-3.5439-3.3086 3.1648z" fill="#ffe6d5"/>
      <path d="m129.37 199.56-3.5397-1.9608c2.1808-1.0277 3.8429-0.47519 5.3807 0.26197z" fill="#fca"/>
      <path d="m131.79 202.02 2.027 0.95274c0.46421-1.4135-0.91887-4.4469-2.6103-5.1142z" fill="#ffb380"/>
      <path d="m130.34 201.4 0.31446 3.3821 3.1629-1.8118z" fill="#ffe6d5"/>
      <path d="m133.82 202.97c-0.0204 2.3147-1.5869 3.7921-2.9515 4.8518l-0.11476-2.1198z" fill="#ffb380"/>
     </g>
    </g>
    <g fill="#ff7f2a" stroke-width=".22">
     <path d="m130.65 204.79-2.907 1.1669 3.1184 1.8731z"/>
     <path d="m126.56 204.73-1.141 2.9361 2.3234-1.7141z"/>
     <path d="m125.42 207.67c-1.5735-0.48952-3.1487-2.8982-3.0361-5.6544l3.1049 1.5254z"/>
    </g>
    <path d="m125.83 197.6c-1.3479 0.60355-3.2956 2.4529-3.4383 4.4146l3.2487-1.2395z" fill="#fca" stroke-width=".22"/>
   </g>
   <g transform="matrix(.54036 0 0 .54036 181.14 -57.636)">
    <g>
     <ellipse transform="rotate(-22.553)" cx="40.581" cy="236.39" rx="6.0034" ry="5.9288" fill="#f95" stroke-width=".55"/>
     <g stroke-width=".22">
      <path d="m125.64 200.77-0.14378 2.7649 1.0723 1.1929 4.0893 0.0551-2.756-3.7612z" fill="#fca"/>
      <path d="m126.65 200.87-0.82197-3.2688 2.0721 3.4268z" fill="#ffe6d5"/>
      <path d="m130.34 201.4 0.8671-3.5439-3.3086 3.1648z" fill="#ffe6d5"/>
      <path d="m129.37 199.56-3.5397-1.9608c2.1808-1.0277 3.8429-0.47519 5.3807 0.26197z" fill="#fca"/>
      <path d="m131.79 202.02 2.027 0.95274c0.46421-1.4135-0.91887-4.4469-2.6103-5.1142z" fill="#ffb380"/>
      <path d="m130.34 201.4 0.31446 3.3821 3.1629-1.8118z" fill="#ffe6d5"/>
      <path d="m133.82 202.97c-0.0204 2.3147-1.5869 3.7921-2.9515 4.8518l-0.11476-2.1198z" fill="#ffb380"/>
     </g>
    </g>
    <g fill="#ff7f2a" stroke-width=".22">
     <path d="m130.65 204.79-2.907 1.1669 3.1184 1.8731z"/>
     <path d="m126.56 204.73-1.141 2.9361 2.3234-1.7141z"/>
     <path d="m125.42 207.67c-1.5735-0.48952-3.1487-2.8982-3.0361-5.6544l3.1049 1.5254z"/>
    </g>
    <path d="m125.83 197.6c-1.3479 0.60355-3.2956 2.4529-3.4383 4.4146l3.2487-1.2395z" fill="#fca" stroke-width=".22"/>
   </g>
  </g>
 </g>
</svg>
