<svg cursor="default" version="1.1" viewBox="0 0 256 256" xmlns="http://www.w3.org/2000/svg" xmlns:xlink="http://www.w3.org/1999/xlink">
 <defs>
  <linearGradient id="linearGradient838" x1="131.04" x2="146.15" y1="199.56" y2="186.62" gradientUnits="userSpaceOnUse">
   <stop stop-color="#f55" offset="0"/>
   <stop stop-color="#ff8080" offset="1"/>
  </linearGradient>
 </defs>
 <g fill-rule="evenodd" stroke="#000">
  <g>
   <path d="m138.77 170.99c-132.76-38.128-141.32-81.186-129.61-103.91 18.191-35.314 91.366-35.271 120.37-39.431l9.1444-1.5372-3.9753 2.2586 4.4698 1.4038-9.8868-0.3171c-30.368 2.2712-103.76 5.1922-118.93 38.219-25.886 56.369 106.71 96.921 128.81 101.42 38.655-8.1154 106.67-37.252 107.26-95.143 0.294-28.494-42.847-42.224-102.57-44.496l-5.7466-0.13545-2.5778-1.0952 2.7636-1.3912 5.313 0.81375c10.933 2.4906 104.65 2.2606 104.31 46.071-0.6111 78.833-116.6 97.668-109.15 97.268z" fill="#ffb380" stroke-width=".5985"/>
  </g>
  <path d="m138.12 187.9 0.11622-19.366c0.78846-0.68001 1.6607-0.46182 2.1334-0.15716l0.30649 19.415z" fill="#fca" stroke-width=".5"/>
  <path d="m139.3 208.38c2.9935-9.2928 14.141-12.023 14.155-20.052 0.0169-9.5167-12.032-9.1888-14.087-2.3186-2.0551-6.8702-14.104-7.1981-14.087 2.3186 0.0143 8.0289 11.025 10.759 14.018 20.052z" fill="url(#linearGradient838)" stroke-width=".5"/>
 </g>
 <path d="m142.92 183.21c0.98996-0.32848 2.6262-0.59413 4.1869-0.33759 1.5591 0.25628 2.3655 0.89701 2.8649 1.2983 0.0168 0.0135 0.027 0.0217 0.0438 0.0352 0.49237 0.3957 1.3625 1.1183 1.796 2.7652 0.45661 1.7348 0.22268 3.8017-0.18536 5.2987 0.41095-1.5076 0.9297-3.4648 0.76153-5.3968-0.16223-1.8636-0.93451-2.999-1.6185-3.5779-0.0192-0.0163-0.0381-0.0318-0.0565-0.0466-0.67552-0.54278-1.8753-1.0258-3.5686-0.9736-1.7138 0.0528-3.2198 0.60185-4.2242 0.93513z" fill="#ffd5d5"/>
</svg>
