<svg cursor="default" enable-background="new" version="1.1" viewBox="0 0 256 256" xmlns="http://www.w3.org/2000/svg" xmlns:xlink="http://www.w3.org/1999/xlink">
 <defs>
  <linearGradient id="innoGrad1">
   <stop stop-color="#f55" offset="0"/>
   <stop stop-color="#ff2a2a" offset="1"/>
  </linearGradient>
  <linearGradient id="linearGradient2272" x1="53.091" x2="122.6" y1="143.53" y2="143.53" gradientTransform="matrix(.92675 0 0 1.0466 8.6013 -6.3105)" gradientUnits="userSpaceOnUse" xlink:href="#innoGrad1"/>
  <linearGradient id="linearGradient2282" x1="134.07" x2="203.71" y1="142.19" y2="142.19" gradientTransform="matrix(.92675 0 0 1.0466 8.6013 -6.3105)" gradientUnits="userSpaceOnUse" xlink:href="#innoGrad1"/>
  <linearGradient id="linearGradient1973-2" x1="61.312" x2="65.46" y1="12.507" y2="12.507" gradientTransform="matrix(.4759 -.17614 .14497 .39167 81.491 244.67)" gradientUnits="userSpaceOnUse" xlink:href="#innoGrad1"/>
  <linearGradient id="linearGradient1973-2-8" x1="61.312" x2="65.46" y1="12.507" y2="12.507" gradientTransform="matrix(-.4759 -.17614 -.14497 .39167 173.47 242.51)" gradientUnits="userSpaceOnUse" xlink:href="#innoGrad1"/>
 </defs>
 <g>
  <g>
   <g stroke-width="0">
    <path d="m109.71 16.924c-30.933-12.374-45.775-12.931-50.953-9.1436-2.8647 26.337-0.16362 51.128 0.78726 60.81 0.57856 4.3107 0.67499 8.6883 1.2773 12.988 0.23483 9.2448 2.6394 9.3517 4.3586 16.319 0.7619 5.2546 0.26674 10.712 1.7026 15.869 4.2992 17.781 7.3223 35.971 12.629 53.432 5.6648 14.773 8.1246 30.187 12.381 44.213 1.3551 3.4011 1.1979 8.764 7.1971 9.855 4.5057 5.4035 7.8918 8.2492 11.182 14.742 3.228 6.3887 5.4711 5.3794 4.8045-3.0341-0.95094-6.0582-0.058-8.4724 1.1772-14.296 4.6877-6.2595 3.2446-9.6756 3.222-14.294-8.6519-29.086-15.438-58.895-19.839-89.181-3.2142-28.155-3.2677-28.521-1.4749-42.915 1.5113-10.355 3.2506-20.677 4.9962-30.974 2.9717-14.916 3.1688-15.769 6.5525-24.389z" fill="url(#linearGradient2272)"/>
    <path d="m145.4 15.483c3.5358 9.7487 6.9411 25.814 6.8976 26.687 2.5432 14.502 4.9278 29.075 6.699 43.711-4.1485 39.482-12.442 79.506-23.718 117.18-3.3017 7.8468 1.8622 13 3.8458 15.554 1.0588 7.8532-0.57468 25.837 4.6214 17.513 9.947-16.644 17.727-14.842 20.041-27.879 8.8171-31.715 17.82-59.541 23.952-93.832 5.0961-27.422-0.64844-11.096 5.77-27.69 0.79574-1.6408-0.26223-4.1193 0.80914-5.6774 2.0613-14.229 6.0853-62.867 1.7007-74.017-9.2012-8.4132-34.79 2.623-50.619 8.4543z" fill="url(#linearGradient2282)"/>
    <path d="m112.31 239.44c-0.94399 0.79556-1.4928 1.9685-1.5396 3.1314-0.0807 1.5015 0.65071 3.0783 2.0776 3.7561 0.88291 0.45355 2.0058 0.50712 2.9567 0.0873 1.4112-0.62306 2.3597-2.0379 2.4636-3.4707 0.14874-1.1123-0.20222-2.239-0.90505-3.0955-0.60947-0.71724-1.5373-1.2405-2.5455-1.2554-0.1916 0.1003-0.0861 0.36735-0.0615 0.51557 0.16213 0.11654 0.42623 0.073 0.62336 0.14958 1.3984 0.35142 2.3042 1.6349 2.4146 2.9704 0.11779 1.1716-0.34918 2.448-1.3272 3.256-0.42903 0.39723-1.0148 0.5718-1.569 0.72693-1.0486 0.16281-2.0923-0.2714-2.7357-1.0148-1.2099-1.3338-1.1463-3.5351 0.1156-4.9341 0.13578-0.17401 0.46603-0.33396 0.28628-0.5708-0.0488-0.0996-0.0798-0.32302-0.25414-0.25203z" fill="#ffb380"/>
    <path d="m113.03 237.5c-0.292 0.12744-0.62441 0.22554-0.85433 0.44325 0.1902 0.55925 0.46818 1.0954 0.70175 1.6418 0.15604 0.13635 0.37411-0.087 0.54307-0.15031 0.10238-0.0516 0.17446-0.16189 0.29765-0.11851 0.21078-0.0563 0.4464-0.0774 0.63667-0.18467 0.11554-0.19827-0.0144-0.44131-6e-3 -0.65409-0.0644-0.41174-0.0735-0.8426-0.19195-1.2399-0.20732-0.086-0.45194 0.0711-0.66923 0.10458-0.15466 0.0463-0.30705 0.1002-0.45787 0.15788z" fill="url(#linearGradient1973-2)"/>
   </g>
   <g fill="none" stroke="#000" stroke-width="1px">
    <path transform="matrix(-.47321 .16887 .1395 .50519 226.58 177.64)" d="m247.97 37.394c-2.0107 0.55063-3.7828 1.9244-4.8172 3.7344-0.822 1.4384-1.1798 3.1373-1.0077 4.785 0.17211 1.6477 0.87327 3.236 1.9748 4.4735 1.1015 1.2374 2.5979 2.1179 4.2146 2.4797 1.6167 0.36183 3.3456 0.20327 4.8695-0.44657s2.8352-1.7878 3.6933-3.2049c0.85807-1.4171 1.2586-3.1065 1.1282-4.7581s-0.79127-3.2571-1.8612-4.5219c-1.0699-1.2649-2.5436-2.1828-4.1506-2.5854"/>
    <path transform="matrix(-.37966 .13548 .11192 .40531 204.44 190.54)" d="m249.9 37.15c-1.3637 0.02784-2.7186 0.41247-3.8935 1.1053s-2.1672 1.6923-2.8516 2.8722c-0.87109 1.5018-1.2332 3.2929-1.014 5.0151 0.21919 1.7223 1.0184 3.3655 2.238 4.6013 1.2195 1.2357 2.8521 2.0566 4.5713 2.2986 1.7192 0.24194 3.5149-0.09651 5.0281-0.94768s2.7349-2.21 3.4209-3.8049 0.83224-3.4163 0.40946-5.1002-1.4121-3.2203-2.7701-4.3019-3.0767-1.7023-4.8125-1.7377"/>
    <path transform="matrix(-.47321 .16887 .1395 .50519 221.34 174.95)" d="m241.29 47.022h0.26156"/>
    <path transform="matrix(-.47321 .16887 .1395 .50519 221.34 174.95)" d="m239.51 47.404c-7e-3 -0.04419-0.0147-0.08839-0.0221-0.13258-0.24113-1.449-0.46948-2.9001-0.68501-4.3531"/>
    <path transform="matrix(-.47321 .16887 .1395 .50519 221.34 174.95)" d="m243.22 47.271 0.64082-4.3089"/>
    <path transform="matrix(-.47321 .16887 .1395 .50519 221.34 174.95)" d="m238.8 42.918c0.79555-0.13252 1.6021-0.19911 2.4086-0.19887 0.88882 2.63e-4 1.7776 0.08174 2.6516 0.24307"/>
   </g>
   <path d="m142.65 237.29c0.94399 0.79556 1.4928 1.9685 1.5396 3.1314 0.0807 1.5015-0.65071 3.0783-2.0776 3.7561-0.88291 0.45355-2.0058 0.50712-2.9567 0.0873-1.4112-0.62306-2.3597-2.0379-2.4636-3.4707-0.14874-1.1123 0.20222-2.239 0.90505-3.0955 0.60947-0.71724 1.5373-1.2405 2.5455-1.2554 0.1916 0.1003 0.0861 0.36735 0.0615 0.51557-0.16213 0.11654-0.42623 0.073-0.62336 0.14958-1.3984 0.35142-2.3042 1.6349-2.4146 2.9704-0.11779 1.1716 0.34918 2.448 1.3272 3.256 0.42903 0.39723 1.0148 0.5718 1.569 0.72693 1.0486 0.16281 2.0923-0.2714 2.7357-1.0148 1.2099-1.3338 1.1463-3.5351-0.1156-4.9341-0.13578-0.17401-0.46603-0.33396-0.28628-0.5708 0.0488-0.0996 0.0798-0.32302 0.25414-0.25203z" fill="#ffb380" stroke-width="0"/>
   <path d="m141.93 235.34c0.292 0.12744 0.62441 0.22554 0.85433 0.44325-0.1902 0.55925-0.46818 1.0954-0.70175 1.6418-0.15604 0.13635-0.37411-0.087-0.54307-0.15031-0.10238-0.0516-0.17446-0.16189-0.29765-0.11851-0.21078-0.0563-0.4464-0.0774-0.63667-0.18467-0.11554-0.19827 0.0144-0.44131 6e-3 -0.65409 0.0644-0.41174 0.0735-0.8426 0.19195-1.2399 0.20732-0.086 0.45194 0.0711 0.66923 0.10458 0.15466 0.0463 0.30705 0.1002 0.45787 0.15788z" fill="url(#linearGradient1973-2-8)" stroke-width="0"/>
   <g fill="none" stroke="#000" stroke-width="1px">
    <path transform="matrix(.47321 .16887 -.1395 .50519 28.38 175.48)" d="m247.97 37.394c-2.0107 0.55063-3.7828 1.9244-4.8172 3.7344-0.822 1.4384-1.1798 3.1373-1.0077 4.785 0.17211 1.6477 0.87327 3.236 1.9748 4.4735 1.1015 1.2374 2.5979 2.1179 4.2146 2.4797 1.6167 0.36183 3.3456 0.20327 4.8695-0.44657s2.8352-1.7878 3.6933-3.2049c0.85807-1.4171 1.2586-3.1065 1.1282-4.7581s-0.79127-3.2571-1.8612-4.5219c-1.0699-1.2649-2.5436-2.1828-4.1506-2.5854"/>
    <path transform="matrix(.37966 .13548 -.11192 .40531 50.526 188.38)" d="m249.9 37.15c-1.3637 0.02784-2.7186 0.41247-3.8935 1.1053s-2.1672 1.6923-2.8516 2.8722c-0.87109 1.5018-1.2332 3.2929-1.014 5.0151 0.21919 1.7223 1.0184 3.3655 2.238 4.6013 1.2195 1.2357 2.8521 2.0566 4.5713 2.2986 1.7192 0.24194 3.5149-0.09651 5.0281-0.94768s2.7349-2.21 3.4209-3.8049 0.83224-3.4163 0.40946-5.1002-1.4121-3.2203-2.7701-4.3019-3.0767-1.7023-4.8125-1.7377"/>
    <path transform="matrix(.47321 .16887 -.1395 .50519 33.624 172.79)" d="m241.29 47.022h0.26156"/>
    <path transform="matrix(.47321 .16887 -.1395 .50519 33.624 172.79)" d="m239.51 47.404c-7e-3 -0.04419-0.0147-0.08839-0.0221-0.13258-0.24113-1.449-0.46948-2.9001-0.68501-4.3531"/>
    <path transform="matrix(.47321 .16887 -.1395 .50519 33.624 172.79)" d="m243.22 47.271 0.64082-4.3089"/>
    <path transform="matrix(.47321 .16887 -.1395 .50519 33.624 172.79)" d="m238.8 42.918c0.79555-0.13252 1.6021-0.19911 2.4086-0.19887 0.88882 2.63e-4 1.7776 0.08174 2.6516 0.24307"/>
    <path d="m92.322 212.42c0.0079 0.22136 0.02261 0.44247 0.04419 0.66291 0.20435 2.0873 1.0386 4.1089 2.3659 5.7328s3.1423 2.8439 5.1471 3.4596"/>
    <path d="m119.47 204.38c0.68038 2.1903 0.85808 4.5351 0.51556 6.8028-0.45652 3.0226-1.8471 5.8974-3.9333 8.1317"/>
    <path d="m135.28 203.06c-1.6669 3.6956-1.4635 8.1797 0.53118 11.709 0.83797 1.4827 1.9715 2.7976 3.3146 3.8449"/>
    <path d="m161.62 213.75c-0.0273 0.13306-0.0567 0.26567-0.0884 0.39775-0.95581 3.9877-4.0393 7.3986-7.9108 8.7504"/>
   </g>
   <g fill="#fff">
    <path d="m175.76 90.205c9.7851-1.7558 14.765 2.9052 16.084-1.7871-0.47851 3.1256-0.76932 4.9158-1.9657 6.283 0.33057-2.4089-5.29-5.5383-14.118-4.4959z" fill-opacity=".58824" style="paint-order:normal"/>
    <path d="m153.98 131.92c1.2904-7.4654 5.5993-21.904 6.9917-21.409 0.74338 0.26383-1.2691 14.973-2.431 22.37-1.3657 8.6949-3.9958 25.999-5.3247 25.8-1.3341-0.19962-0.7502-18.002 0.76393-26.762z" fill-opacity=".098039" style="paint-order:normal"/>
    <path d="m180.94 102.61c-2.4833 4.1566-9.008 19.612-11.548 30.993-1.7281 7.7444-3.5954 27.686-2.4543 39.583 1.5639-8.0471 12.173-46.903 13.502-55.036 1.0215-6.2473 0.47671-11.143 0.49961-15.541z" fill-opacity=".19608" style="paint-order:normal"/>
    <path d="m180.64 103.27c-1.3781 5.7095-2.7445 8.9003-3.6266 13.494-1.4986 7.8052-2.5425 20.915-4.0327 29.015 1.5639-8.047 6.1407-20.007 7.2606-27.728 0.70557-4.8647-0.80587-8.8281 0.39862-14.782z" style="paint-order:normal"/>
    <path d="m82.107 95.231c7.9518-7.7242 14.285-5.7061 13.523-11.52 0.8623 3.6332 1.3414 5.7242 0.84347 7.9031-0.69845-2.7773-6.9692-2.7723-14.367 3.6165z" fill-opacity=".58824" style="paint-order:normal"/>
    <path d="m80.783 148.38c-1.9288-8.766-4.0518-26.803-2.6139-27.105 0.76761-0.16135 5.0379 16.794 7.0526 25.41 2.3682 10.128 7.159 30.231 5.8992 30.812-1.2648 0.58292-8.0746-18.832-10.338-29.118z" fill-opacity=".098039" style="paint-order:normal"/>
    <path d="m92.617 100.88c-0.49062 5.9348 0.08666 26.384 2.52 40.09 1.6556 9.3263 8.2081 31.798 14.117 43.859-1.9258-9.5524-8.5145-57.503-10.683-67.007-1.6659-7.3009-4.1638-12.218-5.9537-16.942z" fill-opacity=".19608" style="paint-order:normal"/>
    <path d="m92.62 101.77c1.1283 6.9378 1.2304 11.171 2.3393 16.618 1.8841 9.2543 6.3545 23.918 8.3678 33.484-1.9258-9.5523-2.7911-25.095-4.9763-34.033-1.3768-5.6314-4.3481-8.9736-5.7308-16.069z" style="paint-order:normal"/>
    <path d="m194.22 80.028s0.54068-15.274 0.79963-29.078c0.0654-3.4894 0.52778-11.731 0.20665-12.506 3.3235-17.603 2.9917-12.067 2.2742-0.37701-0.21975 17.347-2.7937 37.079-3.2805 41.961z" fill-opacity=".58824" style="paint-order:normal"/>
    <path d="m165.48 77.047c0.97925 0.0585-1.9078-17.924-2.786-22.801-0.71404-3.9647-3.5097-38.444-4.484-38.473-1.9379-0.05786 0.31569 34.348 0.91102 38.36 0.72059 4.8552 4.3103 22.792 6.359 22.914z" fill-opacity=".098039" style="paint-order:normal"/>
    <path d="m178.03 74.704c1.05-2.8518 2.5618-5.2095 2.4408-10.436-0.12815-5.5342-3.023-22.266-3.5424-25.293-0.48764 3.0932-1.9265 19.717-1.7432 25.262 0.17268 5.2256 1.9329 7.5529 2.8449 10.468z" fill-opacity=".19608" style="paint-order:normal"/>
    <path d="m192.75 86.167c-3.245 2.3507-7.7682 3.1642-3.6143 0.13233 4.0481-2.9547 5.4913-1.492 3.6143-0.13233z" fill-opacity=".19608" style="paint-order:normal"/>
    <path d="m178 74.141c0.10591-2.9697 1.5042-5.5259 1.3832-10.753-0.12816-5.5342-2.319-16.644-2.2841-19.634-0.089 3.0155-1.4891 13.996-1.3058 19.541 0.17267 5.2256 2.0257 7.9602 2.2066 10.845z" style="paint-order:normal"/>
    <path d="m191.99 86.165c-3.245 2.3507-5.5225 2.1667-2.7946 0.14273 2.3414-1.7372 4.6716-1.5024 2.7946-0.14273z" style="paint-order:normal"/>
    <path d="m95.63 83.712s2.5992-21.402 5.0601-34.801c3.3054-17.997 3.1214-18.2 6.9292-30.848 0.32032-1.064-10.47-3.8936-14.172-6.0022 2.8467 0.46452 15.872 4.5527 15.672 5.1946-4.8728 15.663-12.615 61.644-13.489 66.457z" fill-opacity=".58824" style="paint-order:normal"/>
    <path d="m67.446 80.383c0.97255 0.1316-1.0737-20.829-1.6903-25.769-0.5013-4.0169 3.2649-45.781 2.2956-45.883-1.9278-0.2026-6.23 41.448-5.8495 45.503 0.46066 4.9077 3.2094 25.874 5.2441 26.15z" fill-opacity=".098039" style="paint-order:normal"/>
    <path d="m79.931 76.762c1.2731-2.7334 2.9669-4.9277 3.2632-10.146 0.31376-5.5247-1.2349-22.483-1.5107-25.551-0.73236 3.031-3.4912 19.441-3.751 24.982-0.2448 5.2219 1.3226 7.7189 1.9985 10.715z" fill-opacity=".19608" style="paint-order:normal"/>
    <path d="m90.708 86.478c-2.8559 3.2937-6.8248 4.4819-3.1689 0.23433 3.5628-4.1394 4.8208-2.1395 3.1689-0.23433z" fill-opacity=".19608" style="paint-order:normal"/>
    <path d="m79.943 76.199c0.34231-2.9468 1.9389-5.3504 2.2352-10.568 0.31376-5.5247-0.9821-16.813-0.70886-19.786-0.32921 2.9942-2.5993 13.787-2.859 19.329-0.2448 5.2219 1.3826 8.1339 1.3327 11.026z" style="paint-order:normal"/>
    <path d="m90.041 86.486c-2.8559 3.2937-4.8515 3.0719-2.4504 0.23702 2.0609-2.4332 4.1023-2.1421 2.4504-0.23702z" style="paint-order:normal"/>
    <path d="m174.65 8.1125c-2.9548 2.7328-2.8112 7.4238-0.9574 10.247 1.4493 2.2072 5.0566 0.52388 7.2237 1.8496 3.1002 1.8965 5.4752 8.7992 7.5222 8.2773 2.8445-0.72526 2.6167-4.7441-0.68049-13.149-1.2393-3.159-3.0379-6.7196-5.9383-8.0488-2.2372-1.0253-5.3499-0.85935-7.1697 0.82366z" fill-opacity=".098039" style="paint-order:normal"/>
    <g fill-opacity=".19608">
     <path d="m183.3 11.722c-0.11669 1.803-2.1443 0.3826-2.2317-0.3067-0.15142-1.1847 2.2815-0.46269 2.2317 0.3067z" style="paint-order:normal"/>
     <path d="m180.52 15.541c-0.60493 0.49116-2.028-1.2771-1.2081-1.8463 1.0344-0.71797 1.6907 1.4549 1.2081 1.8463z" style="paint-order:normal"/>
     <path d="m185.99 20.738c0.42653-0.19092 1.042 1.2487 0.59581 1.4748-0.40993 0.20682-1.0069-1.2907-0.59581-1.4748z" style="paint-order:normal"/>
     <path d="m186.79 17.637c-0.38338 0.13409-0.92534 2.2468 0.27218 1.4674 0.5299-0.34494 0.40889-1.7056-0.27218-1.4674z" style="paint-order:normal"/>
    </g>
    <path d="m186.53 22.604c-1.0175 0.67791 0.67684 3.6703 1.4955 3.2026 0.87726-0.50118-0.54326-3.837-1.4955-3.2026z" style="paint-order:normal"/>
    <path d="m182.48 12.678c1.5526-1.1051 4.2168 3.2945 2.724 4.3235-1.9564 1.3485-5.068-2.6551-2.724-4.3235z" style="paint-order:normal"/>
    <path d="m183.74 24.702c1.3464 1.1464-0.28608 3.6711-1.7875 2.272-0.84658-0.78887 0.72849-3.1737 1.7875-2.272z" fill-opacity=".19608" style="paint-order:normal"/>
    <path d="m187.21 18.766c0.43113-0.19958 0.15951-1.3121-0.36661-1.1783-0.42456 0.10793-0.31527 1.494 0.36661 1.1783z" style="paint-order:normal"/>
    <path d="m83.895 13.278c-3.5666 1.9843-4.3093 6.6958-2.9335 9.9735 1.0757 2.5626 5.1158 1.7877 7.0993 3.6514 2.8374 2.6662 3.976 10.14 6.1864 10.133 3.0716-0.01099 3.5998-4.0736 1.7952-13.276-0.67826-3.4588-1.8571-7.4577-4.5962-9.5084-2.1127-1.5818-5.3546-2.1954-7.5512-0.97336z" fill-opacity=".098039" style="paint-order:normal"/>
    <g fill-opacity=".19608">
     <path d="m92.13 19.04c-0.46276 1.7678-2.2843-0.1553-2.2435-0.8642 0.06998-1.2185 2.4409 0.10982 2.2435 0.8642z" style="paint-order:normal"/>
     <path d="m88.544 22.153c-0.71739 0.33779-1.8491-1.7805-0.89537-2.1425 1.2032-0.4568 1.4675 1.8732 0.89537 2.1425z" style="paint-order:normal"/>
     <path d="m93.197 28.7c0.47613-0.08361 0.83754 1.5054 0.33437 1.6191-0.46204 0.1036-0.7934-1.5384-0.33437-1.6191z" style="paint-order:normal"/>
    </g>
    <path d="m93.395 30.695c-1.1782 0.42104 0.0011 3.8276 0.93421 3.5663 1-0.27994 0.16827-3.9603-0.93421-3.5663z" style="paint-order:normal"/>
    <path d="m91.107 19.789c1.8112-0.7129 3.7236 4.339 1.9884 4.9909-2.274 0.85443-4.7228-3.9147-1.9884-4.9909z" style="paint-order:normal"/>
    <path d="m90.316 35.357c1.171 1.4796-0.99227 3.5874-2.2751 1.8172-0.72336-0.99815 1.3541-2.9809 2.2751-1.8172z" fill-opacity=".19608" style="paint-order:normal"/>
    <path d="m148.55 205.21c8.8104 4.6051 14.957 1.6488 14.811 6.521 0.47929-3.1254 0.73785-4.9206 6e-3 -6.5834-0.40585 2.3974-6.7056 3.7003-14.817 0.0624z" fill-opacity=".58824" style="paint-order:normal"/>
    <path d="m103.92 207.41c9.8771-1.128 13.308-7.0227 15.92-2.9069-1.3559-2.8565-2.1486-4.4878-3.6869-5.4541 1.0084 2.2125-3.4768 6.8242-12.233 8.3608z" fill-opacity=".58824" style="paint-order:normal"/>
    <path d="m142.51 222.34c0.4868 0.0408-0.67551-4.8627-1.0546-7.3008-0.30828-1.9822-0.43713-5.9236-0.92184-5.9497-0.96405-0.0519-1.1042 3.8466-0.85554 5.8507 0.30095 2.4256 1.8136 7.3145 2.832 7.3998z" fill-opacity=".098039" style="paint-order:normal"/>
    <path d="m148.04 227.43c1.2387-0.86934 2.5262-1.4054 3.9593-3.579 1.5174-2.3014 5.0786-9.9703 5.7248-11.357-1.077 1.1276-6.3813 7.5232-7.8793 9.8447-1.4116 2.1877-1.3514 3.6395-1.8049 5.0912z" fill-opacity=".19608" style="paint-order:normal"/>
    <path d="m148.19 227.19c0.88569-1.1854 2.1831-1.8349 3.6163-4.0085 1.5174-2.3014 3.7722-7.47 4.6345-8.6836-0.89178 1.2089-4.5794 5.3058-6.0774 7.6273-1.4116 2.1877-1.4289 3.8326-2.1733 5.0648z" style="paint-order:normal"/>
    <path d="m105.76 227.67c0.46896-0.13683-2.3776-4.2953-3.6075-6.4342-0.99992-1.7391-2.5364-5.3709-2.998-5.2211-0.91832 0.29799 0.35169 3.9864 1.3038 5.7674 1.1524 2.1555 4.3206 6.1744 5.3017 5.888z" fill-opacity=".098039" style="paint-order:normal"/>
    <path d="m112.89 228.32c0.77151-1.3018 1.7246-2.3201 2.137-4.8907 0.43659-2.7218 0.52852-11.177 0.54735-12.706-0.5179 1.4708-2.7225 9.4819-3.1331 12.214-0.38692 2.5747 0.26509 3.8733 0.44873 5.383z" fill-opacity=".19608" style="paint-order:normal"/>
    <path d="m112.92 228.04c0.31978-1.4448 1.2352-2.5704 1.6476-5.1411 0.43659-2.7218 0.36608-8.3604 0.65294-9.8212-0.31565 1.4687-1.992 6.7197-2.4026 9.4519-0.38692 2.5747 0.27381 4.0811 0.10208 5.5104z" style="paint-order:normal"/>
    <path d="m196.66 37.494s0.52962-1.6164 0.18091-19.621c-0.0676-3.4894-1.6819-9.0796-2.0031-9.854-0.42262-1.0191 0.68323-1.2609-12.055-3.4743 2.8722 0.17304 12.536 1.5716 12.738 2.2135 4.1113 13.016 1.6257 25.854 1.1389 30.736z" fill-opacity=".58824" style="paint-order:normal"/>
   </g>
   <g fill="none" stroke="#000" stroke-width="1px">
    <path transform="matrix(.82752 -.2989 .26466 .93457 -4.0178 44.282)" d="m103.41 202.97c0.54757 5.9482 0.30916 11.968-0.70711 17.854-0.8902 5.1561-2.3764 10.209-4.4194 15.026-0.22992 0.56886-0.22544 1.2284 0.01218 1.7941 0.23762 0.56568 0.70552 1.0306 1.2727 1.2646 0.49874 0.20578 1.0691 0.23295 1.5851 0.0755s0.97406-0.49835 1.273-0.9475"/>
    <path transform="matrix(.82752 -.2989 .26466 .93457 -4.0178 44.282)" d="m150.79 192.01c-0.26573 0.38263-0.53089 0.76564-0.79549 1.149-5.1337 7.4387-10.054 15.022-14.938 22.627-1.2738 1.984-2.5784 4.0071-4.4194 5.4801-0.9523 0.76192-2.025 1.3568-3.0936 1.9445-5.2894 2.9091-10.623 5.738-15.998 8.4853l-9.1153 6.341"/>
    <path transform="matrix(.82752 -.2989 .26466 .93457 -4.0178 44.282)" d="m103.41 202.97c10.506-14.181 20.36-28.845 29.522-43.929 12.11-19.939 23.008-40.614 32.615-61.872"/>
    <path transform="matrix(.82752 -.2989 .26466 .93457 -4.0178 44.282)" d="m165.55 97.166c0.45612-2.7377 0.89807-5.4778 1.3258-8.2201 2.0289-13.007 3.7385-26.065 5.1265-39.156"/>
    <path transform="matrix(.82752 -.2989 .26466 .93457 -4.0178 44.282)" d="m223.19 62.391c-2.0463 7.7692-4.6819 15.383-7.8766 22.755-2.7173 6.2701-5.8388 12.367-8.3085 18.738-0.16729 0.4316-0.33542 0.87137-0.61872 1.2374-0.27868 0.36011-0.65425 0.63015-0.99522 0.93194-0.34098 0.30179-0.66203 0.65926-0.77255 1.101-0.1077 0.43046-2e-3 0.88209 0 1.3258 4e-3 0.82816-0.36104 1.6289-0.89222 2.2643-0.53117 0.63539-1.22 1.1207-1.9362 1.5364-1.1514 0.66839-2.3915 1.1752-3.5355 1.8562-1.9732 1.1745-3.6349 2.867-4.773 4.8614"/>
    <path transform="matrix(.82752 -.2989 .26466 .93457 -4.0178 44.282)" d="m199.76 113.87c-0.0573 0.11863-0.11628 0.2365-0.17678 0.35356-1.0144 1.9628-2.4591 3.6806-3.4472 5.6568-1.0095 2.0191-1.5131 4.2474-2.2981 6.364-1.4112 3.805-3.712 7.2029-5.922 10.607-7.974 12.281-15.031 25.151-23.335 37.212-4.2792 6.2158-8.8838 12.208-13.789 17.943"/>
    <path transform="matrix(.8533 -.2989 .27291 .93457 -8.6415 44.282)" d="m172.71 24.423c0.57589 4.7765 0.72399 9.6045 0.44194 14.407-0.21458 3.654-0.67786 7.2933-1.3856 10.885"/>
    <path transform="matrix(.8533 -.2989 .27291 .93457 -8.6415 44.282)" d="m172.71 24.423c7.0999 0.11224 14.202 0.11224 21.302 0 4.9562-0.07835 9.9355-0.21017 14.849 0.44194 7.2976 0.96848 14.357 3.6882 20.418 7.8666"/>
    <path transform="matrix(.8533 -.2989 .27291 .93457 -8.6415 44.282)" d="m229.28 32.731c-0.0152 1.2158-0.0667 2.4312-0.15437 3.644-0.65645 9.0757-3.3741 17.996-7.8892 25.897"/>
    <path transform="matrix(-.82752 -.2989 -.26466 .93457 259.13 45.724)" d="m103.41 202.97c0.54757 5.9482 0.30916 11.968-0.70711 17.854-0.8902 5.1561-2.3764 10.209-4.4194 15.026-0.35029 0.49794-0.51123 1.1258-0.4437 1.7308 0.06753 0.60506 0.36293 1.1819 0.81439 1.5904s1.0549 0.64484 1.6637 0.65168c0.60877 7e-3 1.2174-0.21593 1.6779-0.61414 0.27763-0.24007 0.50188-0.54156 0.65195-0.87651"/>
    <path transform="matrix(-.82752 -.2989 -.26466 .93457 259.13 45.724)" d="m150.79 192.01c-0.26575 0.38261-0.53091 0.76563-0.79549 1.149-5.1333 7.439-10.046 15.028-14.938 22.627-1.276 1.9823-2.583 4.0018-4.4194 5.4801-0.95017 0.76487-2.0199 1.3657-3.0936 1.9445-5.3151 2.8655-10.874 5.2908-15.998 8.4853-3.233 2.0156-6.2792 4.3306-9.0869 6.9058"/>
    <path transform="matrix(-.82752 -.2989 -.26466 .93457 259.13 45.724)" d="m103.41 202.97c10.506-14.181 20.36-28.845 29.522-43.929 12.11-19.939 23.008-40.614 32.615-61.872"/>
    <path transform="matrix(-.82752 -.2989 -.26466 .93457 259.13 45.724)" d="m165.55 97.166c0.45612-2.7377 0.89807-5.4778 1.3258-8.2201 2.0289-13.007 3.7385-26.065 5.1265-39.156"/>
    <path transform="matrix(-.82752 -.2989 -.26466 .93457 259.13 45.724)" d="m223.18 64.551c-2.2617 6.9954-4.8886 13.873-7.8666 20.594-2.768 6.2479-5.8407 12.366-8.3085 18.738-0.16716 0.43166-0.33538 0.87139-0.61872 1.2374-0.27872 0.36008-0.65429 0.63012-0.99526 0.93192s-0.662 0.65928-0.77251 1.101c-0.10769 0.43046-2e-3 0.88209 0 1.3258 4e-3 0.82816-0.36105 1.6289-0.89222 2.2643-0.53118 0.63539-1.22 1.1207-1.9362 1.5364-1.1514 0.6684-2.3915 1.1752-3.5355 1.8562-1.9732 1.1745-3.6349 2.867-4.773 4.8614"/>
    <path transform="matrix(-.82752 -.2989 -.26466 .93457 259.13 45.724)" d="m199.76 113.87c-0.0573 0.11863-0.11628 0.2365-0.17678 0.35356-1.0144 1.9628-2.4591 3.6806-3.4472 5.6568-1.0095 2.0191-1.5131 4.2474-2.2981 6.364-1.4112 3.805-3.712 7.2029-5.922 10.607-7.974 12.281-15.031 25.151-23.335 37.212-4.2792 6.2158-8.8838 12.208-13.789 17.943"/>
    <path transform="matrix(-.86032 -.2989 -.27516 .93457 265.01 45.724)" d="m172.71 24.423c0.59198 4.775 0.74013 9.605 0.44194 14.407-0.22661 3.6496-0.7107 7.2831-1.4475 10.865"/>
    <path transform="matrix(-.86032 -.2989 -.27516 .93457 265.01 45.724)" d="m172.71 24.423c7.0999 0.11224 14.202 0.11224 21.302 0 4.9562-0.07835 9.9355-0.21017 14.849 0.44194 7.2976 0.96848 14.357 3.6882 20.418 7.8666"/>
    <path transform="matrix(-.86032 -.2989 -.27516 .93457 265.01 45.724)" d="m220.95 63.837 8.3307-31.106"/>
   </g>
  </g>
 </g>
</svg>
