<svg cursor="default" enable-background="new" version="1.1" viewBox="0 0 256 256" xmlns="http://www.w3.org/2000/svg" xmlns:xlink="http://www.w3.org/1999/xlink">
 <defs>
  <linearGradient id="innoGrad2">
   <stop stop-color="#f55" offset="0"/>
   <stop stop-color="#ff8080" offset="1"/>
  </linearGradient>
  <linearGradient id="innoGrad3">
   <stop stop-color="#f55" offset="0"/>
   <stop stop-color="#ff8080" offset=".105"/>
   <stop stop-color="#ff8080" offset=".777"/>
   <stop stop-color="#f55" offset="1"/>
  </linearGradient>
  <linearGradient id="innoGrad1">
   <stop stop-color="#f55" offset="0"/>
   <stop stop-color="#ff2a2a" offset="1"/>
  </linearGradient>
  <linearGradient id="linearGradient2037" x1="97.798" x2="155.35" y1="196.52" y2="196.52" gradientTransform="matrix(1.172,0,0,1.172,-21.246,-39.24)" gradientUnits="userSpaceOnUse" xlink:href="#innoGrad1"/>
  <linearGradient id="linearGradient2045" x1="153.05" x2="181.09" y1="127.42" y2="127.42" gradientTransform="matrix(1.172,0,0,1.172,-21.246,-39.24)" gradientUnits="userSpaceOnUse" xlink:href="#innoGrad1"/>
  <linearGradient id="linearGradient2053" x1="72.452" x2="100.31" y1="126.99" y2="126.99" gradientTransform="matrix(1.172,0,0,1.172,-21.246,-39.24)" gradientUnits="userSpaceOnUse" xlink:href="#innoGrad1"/>
  <linearGradient id="linearGradient2061" x1="101.14" x2="152.06" y1="131.4" y2="131.4" gradientTransform="matrix(1.172,0,0,1.172,-21.246,-39.24)" gradientUnits="userSpaceOnUse" xlink:href="#innoGrad1"/>
  <linearGradient id="linearGradient2069" x1="93.757" x2="160.37" y1="95.508" y2="95.508" gradientTransform="matrix(1.172,0,0,1.172,-21.246,-39.24)" gradientUnits="userSpaceOnUse" xlink:href="#innoGrad1"/>
  <linearGradient id="linearGradient2077" x1="162.17" x2="189.2" y1="66.541" y2="66.541" gradientTransform="matrix(1.172,0,0,1.172,-21.246,-39.24)" gradientUnits="userSpaceOnUse" xlink:href="#innoGrad1"/>
  <linearGradient id="linearGradient2085" x1="135.84" x2="179.43" y1="66.032" y2="66.032" gradientTransform="matrix(1.172,0,0,1.172,-21.246,-39.24)" gradientUnits="userSpaceOnUse" xlink:href="#innoGrad1"/>
  <linearGradient id="linearGradient2093" x1="74.125" x2="117.79" y1="66.167" y2="66.167" gradientTransform="matrix(1.172,0,0,1.172,-21.246,-39.24)" gradientUnits="userSpaceOnUse" xlink:href="#innoGrad1"/>
  <linearGradient id="linearGradient2101" x1="64.555" x2="90.151" y1="66.858" y2="66.858" gradientTransform="matrix(1.172,0,0,1.172,-21.246,-39.24)" gradientUnits="userSpaceOnUse" xlink:href="#innoGrad1"/>
  <linearGradient id="linearGradient2109" x1="104.56" x2="118.4" y1="83.455" y2="83.455" gradientTransform="matrix(1.172,0,0,1.172,-21.246,-39.24)" gradientUnits="userSpaceOnUse" xlink:href="#innoGrad1"/>
  <linearGradient id="linearGradient2117" x1="121.42" x2="131.64" y1="82.45" y2="82.45" gradientTransform="matrix(1.172,0,0,1.172,-21.246,-39.24)" gradientUnits="userSpaceOnUse" xlink:href="#innoGrad2"/>
  <linearGradient id="linearGradient2125" x1="99.945" x2="119.65" y1="116.99" y2="116.99" gradientTransform="matrix(1.172,0,0,1.172,-21.246,-39.24)" gradientUnits="userSpaceOnUse" xlink:href="#innoGrad3"/>
  <linearGradient id="linearGradient2133" x1="135.52" x2="153.34" y1="117.01" y2="117.01" gradientTransform="matrix(1.172,0,0,1.172,-21.246,-39.24)" gradientUnits="userSpaceOnUse" xlink:href="#innoGrad3"/>
  <linearGradient id="linearGradient2141" x1="122.56" x2="132.78" y1="115.96" y2="115.96" gradientTransform="matrix(1.172,0,0,1.172,-21.246,-39.24)" gradientUnits="userSpaceOnUse" xlink:href="#innoGrad2"/>
  <linearGradient id="linearGradient2149" x1="122.75" x2="133.62" y1="144.71" y2="144.71" gradientTransform="matrix(1.172,0,0,1.172,-21.246,-39.24)" gradientUnits="userSpaceOnUse" xlink:href="#innoGrad2"/>
  <linearGradient id="linearGradient2157" x1="100.94" x2="119.91" y1="145.59" y2="145.59" gradientTransform="matrix(1.172,0,0,1.172,-21.246,-39.24)" gradientUnits="userSpaceOnUse" xlink:href="#innoGrad3"/>
  <linearGradient id="linearGradient2165" x1="135.77" x2="152.4" y1="145.6" y2="145.6" gradientTransform="matrix(1.172,0,0,1.172,-21.246,-39.24)" gradientUnits="userSpaceOnUse" xlink:href="#innoGrad3"/>
 </defs>
 <g display="none" fill="#ffd5d5">
  <path d="m125.8-66.918c0.19113-0.13799 0.36408-0.30229 0.53601-0.46375 0.14221-0.10162 0.26069-0.22783 0.40714-0.32395 0.16197-0.1145 0.35231-0.17689 0.51665-0.28607 0.19959-0.09748 0.38503-0.22094 0.58248-0.32348 0.16429-0.1074 0.34952-0.17162 0.51877-0.26764 0.14546-0.05932 0.27793-0.1424 0.42003-0.20938 0.12023-0.08121 0.24331-0.16517 0.378-0.22069 0.11434-0.06734 0.23138-0.13631 0.3565-0.18236 0.11722-0.09046 0.2551-0.14972 0.3702-0.24206 0.12005-0.09046 0.26297-0.14524 0.38556-0.22991 0.0832-0.03548 0.15839-0.08157 0.23866-0.12261l-0.11422 1.0484c-0.0771 0.04202-0.15789 0.07632-0.23389 0.12041-0.12825 0.06313-0.2543 0.13186-0.37378 0.21041-0.13283 0.08533-0.25518 0.18803-0.3953 0.26009-0.11865 0.05795-0.23519 0.12005-0.35306 0.17953-0.12646 0.065-0.24907 0.13719-0.37221 0.20819-0.1363 0.07532-0.27366 0.14348-0.42109 0.19516-0.17679 0.07013-0.34407 0.15971-0.51427 0.24448-0.19875 0.0963-0.38624 0.21057-0.57564 0.32339-0.17845 0.09301-0.3488 0.19995-0.51187 0.31788-0.13309 0.10018-0.25447 0.21623-0.39786 0.30275-0.19966 0.13825-0.38689 0.29452-0.53694 0.48733l0.0901-1.0262z"/>
  <path d="m120.85-66.835c0.0444-0.58608 0.20712-1.1269 0.35945-1.6828 0.0426-0.17144 0.1709-0.29008 0.25244-0.43939 0.0908-0.12969 0.22965-0.20993 0.36355-0.28833 0.11481-0.09222 0.21597-0.20065 0.34376-0.27466 0.11691-0.08744 0.24277-0.16205 0.3659-0.24035 0.12401-0.06714 0.24427-0.13918 0.3693-0.20488 0.12704-0.04094 0.21978-0.13815 0.33958-0.19322 0.13016-0.05459 0.26091-0.10723 0.39545-0.15359 0.14758-0.07245 0.30124-0.12868 0.44917-0.20449 0.17264-0.07193 0.33051-0.17437 0.50194-0.24755 0.12905-0.04661 0.24417-0.11976 0.37097-0.17224l-0.12165 1.0114c-0.12107 0.04466-0.24065 0.09361-0.35806 0.1472-0.16553 0.09957-0.33096 0.19871-0.50549 0.28211-0.15026 0.07766-0.31182 0.12952-0.46037 0.21079-0.12918 0.05722-0.25712 0.11707-0.38583 0.17521-0.11047 0.06853-0.21729 0.14262-0.33882 0.1916-0.11929 0.06619-0.24306 0.12408-0.36002 0.19469-0.12268 0.08035-0.24608 0.15912-0.36658 0.24273-0.11993 0.08554-0.2223 0.19376-0.34622 0.27334-0.12488 0.07823-0.24168 0.15534-0.31459 0.28895-0.0894 0.12685-0.17877 0.2506-0.22355 0.40223-0.12757 0.38943-0.33775 1.4102-1e-3 -0.2908 0 0-0.32924 0.97202-0.32924 0.97202z"/>
  <path d="m116.69-60.997c-8e-3 -0.27892-0.0422-0.55612-0.0636-0.83416-0.0144-0.19126-0.0178-0.38306-0.0196-0.57478-3e-3 -0.19291 3e-3 -0.38573 3e-3 -0.57862-8e-3 -0.19185 1e-4 -0.38068 0.0301-0.57012 0.0312-0.17479 0.0437-0.35181 0.0508-0.52895 5e-3 -0.17638 5e-3 -0.35287 5e-3 -0.52932-0.0259-0.5256 0.0959-0.96293 0.19265-1.5112 5e-3 -0.02456 7e-3 -0.04987 0.0151-0.07367 0.0151-0.04588 0.042-0.08718 0.0589-0.13241 0.0252-0.06716 0.0376-0.13421 0.0653-0.20071 0.0986-0.12572 0.1407-0.27044 0.16332-0.4256-0.56284 3.1388 0.46621-2.5482-0.0863 0.55712 0.25734-0.39361 0.0866-1.0068 0.31962-1.4368 0.0806-0.16312 0.12873-0.34032 0.20621-0.50422 0.0611-0.14307 0.0859-0.29579 0.17526-0.42547 0.0814-0.11955 0.14631-0.24728 0.21101-0.37658 0.0908-0.10021 0.18811-0.19153 0.26557-0.30395 0.0752-0.06626 0.0866-0.17006 0.14547-0.2469 0.0299-0.03903 0.0664-0.07265 0.0969-0.11123 0.10869-0.07863 0.17624-0.18992 0.26088-0.28912 0.0619-0.11825 0.17487-0.1924 0.2583-0.29231 0.0973-0.11774 0.22929-0.19974 0.32915-0.3144 0.10773-0.11992 0.25125-0.19223 0.37742-0.28705 0.12143-0.07475 0.24236-0.15575 0.3517-0.24773 0.12999-0.07679 0.25194-0.16251 0.37874-0.24426 0.14604-0.08205 0.26276-0.2007 0.39206-0.30424 0.0893-0.06275 0.19297-0.08278 0.29835-0.09911l-0.14198 1.0279c-0.0899 0.02274-0.17662 0.05023-0.25004 0.10976-0.13004 0.1024-0.26926 0.19199-0.39861 0.2952-0.12313 0.08901-0.254 0.16632-0.3758 0.25725-0.12169 0.08038-0.23167 0.17662-0.35817 0.24985-0.12738 0.07281-0.24883 0.15756-0.35054 0.2642-0.11 0.11066-0.22164 0.21976-0.32804 0.33395-0.0909 0.09692-0.1768 0.19793-0.25361 0.30653-0.0767 0.104-0.17409 0.18662-0.26148 0.28128-0.0947 0.11298-0.14905 0.24957-0.24035 0.36545-0.0832 0.09657-0.17878 0.18364-0.24671 0.29129-0.072 0.12893-0.13739 0.26141-0.21607 0.38664-0.0614 0.1304-0.0975 0.27023-0.16246 0.39914-0.0692 0.16698-0.13273 0.33632-0.20505 0.50204-0.13125 0.38871-0.25925 1.2156 0.057-0.56814-0.0629 0.36254-0.12473 0.72529-0.18882 1.0876-8e-3 0.04401-0.0245 0.10434-0.0357 0.14775-6e-3 0.0232-0.0216 0.0933-0.0177 0.06966 4e-3 -0.02311 0.46746-2.7256-0.0262 0.1518-0.0374 0.15385-0.10712 0.28896-0.17821 0.42928-0.0398 0.13792-0.10051 0.26883-0.12475 0.41076 0.0541-0.3123 0.10996-0.62429 0.16224-0.93689 5e-3 -0.02782-0.0162 0.05434-0.0194 0.08236-0.0131 0.11632 0.0103 0.23678 4e-4 0.35345 2.2e-4 0.1768 8.6e-4 0.35361-2e-3 0.53039-4e-3 0.18005-0.011 0.36049-0.0401 0.53857-0.0324 0.19299-0.0665 0.38219-0.0503 0.57937-1e-5 0.18722 5e-3 0.37436 2e-3 0.56158-8.3e-4 0.20509-2e-3 0.41022 2e-3 0.61529 7e-3 0.26144 0.0104 0.52738 0.0721 0.78264l-0.30497 0.9799z"/>
  <path d="m108.85-91.646c0.23117-0.03403 0.45037-0.15603 0.64236-0.28693 0.15619-0.108 0.32335-0.19766 0.47698-0.30751 0.12875-0.09908 0.26113-0.18233 0.41072-0.24778 0.1327-0.08249 0.26417-0.16436 0.39515-0.24896 0.14616-0.08444 0.28946-0.17053 0.43193-0.26043 0.11886-0.10848 0.25624-0.19514 0.39074-0.28286 0.12926-0.11898 0.26959-0.22626 0.41095-0.33005 0.13551-0.09077 0.26887-0.18348 0.40245-0.2777 0.13575-0.11526 0.25915-0.24402 0.40211-0.35183 0.0913-0.09669 0.20725-0.16717 0.27054-0.28672 0.0964-0.10344 0.18158-0.21481 0.27209-0.32348 0.11927-0.11582 0.22739-0.24393 0.35215-0.35383 0.0802-0.11362 0.1979-0.18135 0.30135-0.2681 0.019-0.01151 0.0371-0.02451 0.057-0.03452 0.0593-0.02996 0.0675-0.0182 0.11552-0.06238 0.0501-0.04611 0.0814-0.08415 0.14206-0.12033 0.0888-0.09243 0.20435-0.14792 0.30326-0.22613 0.0932-0.0496 0.16266-0.12989 0.24579-0.19321l-0.0936 1.0544c-0.0796 0.07006-0.16361 0.13468-0.25317 0.19167-0.10721 0.06783-0.20161 0.15166-0.30424 0.22607-0.0991 0.08048-0.19922 0.15309-0.30975 0.21748-0.10682 0.07396-0.1961 0.16676-0.29148 0.25459-0.11826 0.10895-0.24209 0.21519-0.33366 0.34868-0.0864 0.11679-0.18519 0.22412-0.26767 0.34407-0.0884 0.10155-0.19549 0.18451-0.30231 0.26594-0.14015 0.10439-0.27227 0.21622-0.40044 0.3351-0.13038 0.10365-0.27151 0.19046-0.40541 0.28913-0.14034 0.09983-0.27729 0.20303-0.41076 0.31196-0.13303 0.09964-0.25716 0.21104-0.39867 0.2988-0.14533 0.08621-0.29466 0.16621-0.43054 0.26741-0.13305 0.08447-0.26748 0.1677-0.40673 0.24145-0.1363 0.0729-0.26356 0.15989-0.39675 0.23808-0.15964 0.09403-0.31528 0.19501-0.47781 0.28409-0.21554 0.11549-0.46179 0.17044-0.66026 0.31988l0.12017-1.0261z"/>
 </g>
 <g>
  <g>
   <g stroke="#000">
    <g stroke-width=".022054">
     <path d="m118.11 135.69c-6.8258 0.81618-13.883 0.39034-20.562 2.139-1.5675 1.3802-0.43382 3.9367-1.0448 5.7298-0.75241 7.8965-1.8851 15.75-3.1231 23.572 10.406 24.169 16.805 49.867 20.798 75.813 0.33616 1.9396 3.1017 1.7384 4.5021 2.5218 6.4969 2.0989 13.669 1.2109 20.023-0.96225 2.7384-0.54007 1.5671-4.0955 2.336-6.112 3.526-24.061 10.382-47.552 19.368-70.12 1.2124-3.4757-0.73545-7.0499-0.80952-10.574-1.1345-6.4101-0.31361-13.52-1.6749-19.877-0.94306-1.9729-4.5858-0.28478-6.2538-0.89088-4.3392-0.1755-9.3728-1.9153-13.682-1.2898-0.71514 0.73788 0.58059 2.4796-1.0099 2.4724-5.36 0.61338-10.985 0.96188-16.344 0.62477-2.5764 0.0534-0.18739-3.258-2.5226-3.0462z" fill="url(#linearGradient2037)"/>
     <path d="m62.94 54.69c-0.84839 1.3614 1.4754 5.3405 1.4956 6.9036 3.5486 17.322 8.3914 34.411 11.213 51.859 1.0824 5.0837-2.0602 11.049-2.2487 16.059 0.96206 4.5997 5.3879 7.1691 7.2865 11.401 3.956 6.9949 7.1815 14.381 10.959 21.455 1.1972 0.94355 1.2713-1.6138 1.4294-2.3003 2.4952-16.594 3.7606-33.445 3.0131-50.223-0.73061-15.111-3.4188-30.373-9.4625-44.249-7.8338-0.65029-15.353-3.7331-21.579-8.5404-0.34208-0.16629-1.7035-2.3737-2.1059-2.365z" fill="url(#linearGradient2053)"/>
     <path d="m189.64 56.198c-3.8519 2.5789-7.5322 5.9422-12.033 7.2955-3.0632 1.2934-7.1602 0.37407-10.277 1.3205-2.1384 2.9447-2.1619 7.8151-3.4132 11.21-5.0396 16.288-6.2112 33.463-5.6563 50.422 0.26277 11.976 1.2052 26.027 3.2636 37.806 1.1602 1.3187 1.9221-3.6321 2.5133-4.266 4.9261-9.759 10.438-19.691 15.888-29.159 2.0632-4.8887-1.6544-9.9164-1.1456-14.956 1.2788-11.635 4.5783-22.962 6.9085-34.424 1.6822-8.0322 4.3674-17.54 5.2816-25.682-0.0414-0.20758-1.0987 0.39096-1.3306 0.43346z" fill="url(#linearGradient2045)"/>
     <path d="m136.61 54.206c-0.45936 3.8272-0.81183 7.7678-1.8882 11.474-2.4545 0.14028-2.2132 3.288-3.3884 4.999-1.5307 2.2767-2.2416 5.416-4.4592 7.0932-2.1833-1.6087-2.9246-4.6731-4.4216-6.8869-1.1065-1.9906-1.1766-4.4527-3.6821-4.8862-0.47641-1.3639-0.72156-3.5489-3.1196-2.6389-8.8211 0.67791-19.823-0.02496-28.551 1.4457-1.4823 0.86145 2.6886 3.5445 2.6518 4.7432 2.5085 7.165 4.2918 14.554 6.026 21.917 0.88738 1.5203 3.0533-0.088 4.4098 0.24579 6.0348-0.72895 12.813 0.67267 18.798-0.29565 0.77991-0.43169-0.30033-3.0698 0.97852-3.0149 5.4368-0.66616 11.095-0.86762 16.556-0.58187 1.9417-0.0605-0.22577 3.1029 1.6666 3.2125 6.0434 0.52656 12.983-0.032 18.967 1.0411 2.2469 0.58132 1.8273-2.4752 2.3197-3.7941 1.4656-7.5467 4.7335-15.713 7.2207-22.936-1.226-1.4493-4.5582 0.07392-6.2484-0.41654-7.4258-0.8525-15-0.92956-22.368-1.7575-0.67083-0.7555 0.36212-1.5613 1.2692-0.94039 4.2408 0.18925 10.72 0.66589 14.963 0.57541 0.50618-1.0881-4.0319-1.764-4.6719-2.4514-3.0329-1.6769-3.2683-5.5722-6.373-7.0828-1.5539-0.17051-5.2643 0.45156-6.6542 0.93628z" fill="url(#linearGradient2069)"/>
     <path d="m117.59 102.44c-6.8041 0.51383-13.557 1.541-20.295 2.5978 0.19336 5.7517 0.36462 11.924 0.28243 17.835-0.0191 1.9656-0.67461 5.1758 2.262 3.8393 6.3508-0.91434 13.188-0.73521 19.593-1.0488 0.49736-1.0225-1.1726-2.9618 0.9605-2.5691 5.5322-0.43992 11.441-1.4875 16.972-0.85948 1.0516 1.2551-0.19926 3.5569 2.3106 3.0966 5.6456 0.42932 11.326 0.75416 16.892 1.745 0.73756-2.339 0.0473-5.3228 0.23754-7.9181-0.17135-4.6525 0.3728-9.4897 0.0384-14.017-6.1153-1.2093-12.346-2.1354-18.563-2.4505-1.0501 0.35273-0.0105 2.2477-1.5652 2.2328-5.404 0.72008-10.98 0.8677-16.452 0.62963-2.535 0.0981-0.36483-3.3589-2.6739-3.1133z" fill="url(#linearGradient2061)"/>
     <path d="m188.12 12.526c-19.111 5.711-36.633 17.536-48.215 33.888-0.39947 0.78878-2.4596 6.4012-1.804 7.1149 0.78233-0.16815 3.2906-1.5008 3.4227-0.52983 4.2771 5.2262 8.9518 7.4402 15.598 9.4243 3.1502 0.84184 6.8371 2.5697 10.068 1.5203 5.7131-4.6167 9.719-11.334 13.238-17.722 5.2834-10.18 8.8336-22.599 8.5947-34.113-0.0322-0.30651-0.55032 0.3146-0.90239 0.41729z" fill="url(#linearGradient2085)"/>
     <path d="m190.11 14.119c-1.1362 3.3234-0.11298 7.2754-0.94514 10.739-2.1948 13.611-8.7226 26.225-17.602 36.656-0.70689 0.55344-3.9378 3.3285-2.2509 3.1224 13.925-1.7211 28.327-13.639 30.712-27.293 0.29374-4.3295 0.95923-10.963-0.18907-15.198-2.2329-3.3908-6.4559-6.8377-9.6561-9.2938z" fill="url(#linearGradient2077)"/>
     <path d="m65.446 12.393c-1.0821 1.3584 0.18981 3.7411 0.04406 5.3959 0.98128 17.421 9.6164 33.978 21.713 46.308 10.225-0.04656 21.714-2.6172 27.401-11.127 0.40251-1.0659 1.5414-0.38713 2.1904-0.81532-0.25466-3.9006-4.9056-9.4725-7.032-12.449-11.414-12.817-26.823-22.866-43.307-27.628z" fill="url(#linearGradient2093)"/>
     <path d="m64.153 12.998c-2.9484 2.6926-6.9357 5.9536-9.1066 9.3383-1.4383 6.0579-0.53743 13.544 1.4671 19.402 3.8386 11.163 13.89 19.781 25.511 21.861 0.62035 0.24826 4.7362 1.5823 3.7632 0.16409-7.9065-8.9067-15.761-20.114-18.862-31.672-1.7968-5.6504-1.4908-12.253-2.6116-18.043-0.07894-0.21137 0.10032-1.1022-0.16192-1.0512z" fill="url(#linearGradient2101)"/>
    </g>
    <g stroke-width=".0077972">
     <path d="m130.58 52.233c-3.0591 0.12635-6.1577 0.08443-9.1919 0.30369-0.32848 0.97638-0.10372 2.2026-0.22423 3.2718-0.0281 2.2436-0.19115 4.5218-0.0379 6.7445 0.82981 0.29623 1.8997-0.03427 2.8271 0.01191 2.6164-0.17923 5.2658-0.02826 7.8688-0.35207 0.94392-0.25444 0.57525-1.5234 0.56174-2.1994-0.86998-0.30991-1.9978 0.02257-2.9642-0.04233-0.29183-0.0402-0.15301-0.80147-0.6688-0.77922-0.51188 0.04707-0.14255-0.75988-0.26153-1.0621 0.10173-0.36784-0.26241-1.1928 0.38399-1.0847 0.47819-0.06436 0.14842-0.8117 0.68356-0.6704 1.021-0.08538 2.0635-0.01911 3.0719-0.20401 0.43282-0.68878 0.17907-1.6548 0.3168-2.4473 0.19636-0.90071 0.10313-1.9441-1.0958-1.5272-0.42312 0.01228-0.84623 0.02458-1.2694 0.03686z" fill="url(#linearGradient2117)"/>
     <path d="m114.78 53.723c-0.89103 0.13854-1.9414-0.15932-2.7322 0.26503-2.8455 3.0625-6.0523 5.8029-9.7747 7.7259-0.35773 0.21555-1.4046 0.68225-0.76339 1.1555 2.1849 0.12952 4.3928-0.22985 6.5843-0.29643 2.7595-0.20348 5.5284-0.26151 8.286-0.51188-0.0955 0.60637 0.0444 1.5618 0.88351 1.4179 0.48526-0.4611 0.10161-1.3963 0.23305-2.0374-0.0244-2.5502 0.0867-5.1354-0.0529-7.663-0.72512-0.31211-1.8339 0.01347-2.6637-0.05555z" fill="url(#linearGradient2109)"/>
     <path d="m113.89 92.043c-5.9206 0.1138-11.853 0.50302-17.702 1.4435-0.61932 0.31569-0.0852 1.214-0.14019 1.7516 0.40866 2.7421 0.65312 5.5189 0.93391 8.2685 0.50385 0.66622 1.5034 6e-3 2.1757 0.0212 5.8443-1.0939 11.742-1.8907 17.684-2.2023 0.6946-0.0748 1.6712 0.15311 2.1202-0.45179-0.0415-2.9248 0.0823-5.886-0.0614-8.7884-0.88046-0.31447-2.0192-5e-3 -2.9962-0.0819-0.67162 0.0131-1.3432 0.0264-2.0149 0.0395z" fill="url(#linearGradient2125)"/>
     <path d="m138.02 92.039c-0.26534 2.9614-0.2659 5.9804-0.43062 8.9641 0.4367 0.60989 1.5074 0.2318 2.2042 0.42863 5.6573 0.46533 11.287 1.2669 16.86 2.3531 1.0979 0.34385 0.78965-1.0246 0.922-1.674 0.20702-2.8056 0.73233-5.58 0.88405-8.3865-0.4813-0.59918-1.4785-0.38674-2.1703-0.58657-5.9965-0.68719-12.027-1.0677-18.062-1.1877l-0.13466 0.0577z" fill="url(#linearGradient2133)"/>
     <path d="m138.32 126.63c-0.26694 2.5134-0.22607 5.0993-0.44551 7.6327 0.38367 0.60379 1.4081 0.25441 2.0597 0.43288 5.5866 0.33523 11.202 0.84706 16.732 1.4898 1.0278 0.22389 0.59157-1.021 0.63862-1.6229-0.13473-2.0558-0.14103-4.1543-0.39583-6.1808-1.6038-0.47161-3.4253-0.51742-5.1218-0.76624-4.4462-0.50757-8.9468-0.84213-13.393-1.0122z" fill="url(#linearGradient2165)"/>
     <path d="m117.4 126.64c-6.4123 0.19833-12.846 0.54956-19.188 1.571-0.93292-7e-3 -0.7896 1.0808-0.86398 1.7189-0.0792 1.9506-0.22089 3.9058-0.29032 5.8468 0.37043 0.76417 1.4242 0.25275 2.0667 0.27285 6.4422-0.81886 12.928-1.2299 19.412-1.5885 1.1496 0.14402 0.59639-1.2549 0.71995-1.9279-0.0622-1.9608 0.12519-3.9764-0.0947-5.9025-0.55954-0.14261-1.1826 0.0299-1.7611 9e-3z" fill="url(#linearGradient2157)"/>
     <path d="m130.67 91.485c-2.6655 0.10067-5.371 0.0673-8.0089 0.31441-0.3062 0.94101-0.039 2.1233-0.12919 3.154 0.0369 2.287-0.13865 4.5858-0.1383 6.8477 0.73113 0.31478 1.7021-0.0632 2.5372 4e-3 2.8173-0.16468 5.674-0.032 8.4774-0.33321 0.6425-0.43385 0.22952-1.3949 0.35765-2.0286-0.51554-0.60223-1.6384-0.11357-2.3937-0.26953-0.55252 0.11846-0.69855-0.0299-0.77226-0.50244-0.23013-0.43227-1.0522 0.0432-0.78943-0.66954 0.17877-0.50347-0.40634-1.7444 0.36797-1.6667 0.44802 0.0387 0.47181-0.47602 0.5774-0.71102 1.1578-0.27266 2.3933-0.0312 3.5317-0.25437 0.10689-1.2471 0.10466-2.5827 4e-3 -3.8264-0.881-0.31297-2.0197 1e-3 -2.9971-0.0722-0.20778 5e-3 -0.41557 9e-3 -0.62335 0.0144z" fill="url(#linearGradient2141)"/>
    </g>
    <path d="m129.87 125.22c-2.2863 0.16511-5.0323-0.77305-7.0906 0.16962l-0.15539 10.154c1.7067 0.61989 4.1786-0.30983 6.0614-0.23681 1.7422-0.24868 3.9737 0.51558 5.5176-0.17193 0.23041-0.92182 0.31217-2.8313-0.90097-2.5563-0.89603 0.13678-2.1483 0.12729-2.8134-0.32359-0.53859-0.40476-0.32351-1.8272-0.0881-2.3977 0.65605-0.1764 1.0537-0.81589 1.8701-0.71303 1.4441 0.0161 3.6357 0.24982 2.9327-2.0324 0.7984-2.5414-2.5527-1.81-4.0881-1.8926l-1.2452 9.5e-4z" fill="url(#linearGradient2149)" stroke-width=".015594"/>
   </g>
   <g fill="#ffb380" stroke="#000" stroke-width=".0013784">
    <path d="m136.39 122.5c-5.1663 0.1244-10.34 0.21598-15.508 0.34763-0.18848-6e-3 -0.46697 8e-3 -0.48928 0.24977-0.0183 1.3979-2e-3 2.8002-8e-3 4.1998 1e-3 3.5565-4e-3 7.1129 7e-3 10.669 0.0105 0.21854 0.24559 0.29783 0.43235 0.26014 5.2601-0.14855 10.526-0.29208 15.782-0.44235 0.24666-0.0205 0.26439-0.30416 0.24434-0.49607-5e-3 -1.4301 8e-3 -2.8624-7e-3 -4.2912-0.0185-0.23689-0.28947-0.2689-0.4772-0.23894-0.2816 0.0146-0.56697-4.7e-4 -0.84604 0.0415-0.26537 0.10337-0.18768 0.42539-0.22387 0.64809-0.0473 0.68839-0.0875 1.3772-0.13116 2.0659-0.21862 5e-3 -0.45641-0.0716-0.66042 0.0176-0.21977 0.15409-0.0951 0.45274-0.11462 0.67667 1.4e-4 0.13878-0.25296 0.0402-0.36267 0.0762-3.8491 0.11988-7.6984 0.23667-11.547 0.36591-0.0294-0.20992 0.0588-0.4747-0.0735-0.66244-0.16121-0.16595-0.42714-0.0953-0.63841-0.12909-0.14223-9e-3 -0.0287-0.26224-0.0628-0.37407 0.0551-3.4845 0.12267-6.9715 0.17545-10.457 0.21459-9e-3 0.44905 0.0673 0.64836-0.0243 0.21263-0.15314 0.10114-0.44851 0.12881-0.67043-0.0135-0.1692 0.27336-0.0449 0.38836-0.0885 4.0028-0.0895 8.0055-0.18522 12.008-0.26643 0.034 0.21769-0.042 0.4789 0.0975 0.66197 0.16642 0.16097 0.4312 0.0772 0.64165 0.11473 0.10782 0.0486 0.0153 0.28435 0.0415 0.40913-0.0189 1.261-0.062 2.5224-0.0627 3.7833 0.0366 0.2015 0.25078 0.25887 0.42761 0.23239 0.27577-0.0203 0.56227 0.0215 0.82918-0.0573 0.21973-0.17323 0.10032-0.48366 0.13085-0.7232-0.0129-0.55202 0.0279-1.1086-0.0319-1.6579-0.0452-0.26037 7e-3 -0.53428-2e-3 -0.79923 0.0162-1.07 0.0381-2.1421 0.0353-3.211-0.0163-0.23941-0.29031-0.27292-0.47936-0.24034-0.0976 4e-3 -0.19529 7e-3 -0.29292 9e-3zm0.5316 4.0367c0.0544 0.0237 9e-3 5e-3 0 0z"/>
    <path d="m135.99 130.23c-1.4698 0.017-2.9419 0.0301-4.41 0.0653-0.24446 0.0236-0.25969 0.30496-0.24064 0.49572 0.0169 0.28209-0.0377 0.57334 0.0343 0.84834 0.16209 0.22489 0.46865 0.10888 0.702 0.13361 1.5322-0.025 3.0647-0.0471 4.5966-0.0856 0.20862-0.022 0.27179-0.23633 0.27648-0.41445 0.0218-0.27392 0.10056-0.55086 0.0682-0.82482-0.10044-0.26952-0.43515-0.20478-0.66199-0.21839-0.12165-7.3e-4 -0.24329-1.5e-4 -0.36495 2.8e-4z"/>
    <path d="m135.95 96.572c-1.5814 0.0189-3.1636 0.0183-4.7441 0.0765-0.22578 0.0177-0.28445 0.26194-0.25701 0.45052 0.0169 0.29179-0.0373 0.59267 0.0343 0.87742 0.16161 0.22546 0.46889 0.10888 0.70242 0.13622 1.5311-0.0141 3.0625-0.0318 4.5929-0.0799 0.22632-0.0259 0.26815-0.26776 0.28087-0.4528 0.022-0.26874 0.0956-0.54202 0.0614-0.81057-0.10044-0.28886-0.44408-0.17388-0.6708-0.1974z"/>
    <path d="m136.15 88.846c-5.3032 0.11122-10.608 0.22889-15.91 0.34537-0.23355 0.0178-0.26763 0.28401-0.24448 0.4702v14.632c7e-3 0.22359 0.24657 0.30096 0.4358 0.26995 5.1791-0.13506 10.358-0.27701 15.537-0.43215 0.18888 4e-3 0.46618-0.0149 0.48668-0.25607 0.0158-1.4991 2e-3 -3.0018 7e-3 -4.5022-7e-3 -0.21764-0.2381-0.30127-0.42492-0.26955-0.30711 0.0203-0.62782-0.0431-0.92659 0.0428-0.2573 0.12274-0.17378 0.45375-0.21156 0.68168-0.0428 0.68001-0.0773 1.3586-0.12222 2.0349-0.21712 8e-3 -0.44528-0.0846-0.65497-6e-3 -0.23694 0.14569-0.1049 0.45728-0.12239 0.68331 0.0159 0.14492-0.22947 0.0488-0.33173 0.0844-3.8591 0.12729-7.7188 0.24678-11.579 0.36379-0.0202-0.21722 0.049-0.45919-0.0523-0.65772-0.16433-0.2031-0.45819-0.0897-0.68346-0.11926-0.0945-0.0531-0.0129-0.27918-0.0368-0.40038 0.0536-3.476 0.11969-6.9529 0.17548-10.429 0.21765-0.0197 0.46004 0.0479 0.65907-0.0523 0.20239-0.16332 0.0901-0.45555 0.11927-0.67978 0.0269-0.10313 0.23664-0.0307 0.33935-0.0594 4.0158-0.0986 8.0348-0.18694 12.052-0.26581 0.0308 0.21944-0.0246 0.46665 0.0853 0.6634 0.16853 0.18717 0.4507 0.0808 0.67217 0.10887 0.0788 0.0619 8e-3 0.27005 0.0281 0.38911-0.0218 1.2568-0.0622 2.5134-0.0683 3.7705 7e-3 0.21976 0.24141 0.30374 0.42946 0.26744 0.27166-0.0213 0.5536 0.028 0.8173-0.0482 0.21978-0.16393 0.10548-0.46718 0.13311-0.69964 4e-3 -1.352-0.0148-2.7041-0.0313-4.0558 0.0789-0.32888 0.0246-0.67605 0.0377-1.0121-0.0259-0.24677 0.0491-0.52114-0.0591-0.74834-0.12746-0.17879-0.37057-0.0987-0.55558-0.11357z"/>
    <path d="m134.75 49.614c-5.2851 0.10276-10.57 0.23668-15.855 0.33575-0.21969 0.0032-0.30657 0.23657-0.274 0.42493v14.684c7e-3 0.23054 0.25661 0.30052 0.44861 0.27015 5.1845-0.13367 10.369-0.27667 15.553-0.43135 0.18335 0.0047 0.44194-0.03094 0.45858-0.25948 0.0138-1.4985 2e-3 -3.0001 6e-3 -4.4998-7e-3 -0.21763-0.23809-0.30127-0.42492-0.26954-0.31854 0.01765-0.64653-0.03846-0.958 0.03429-0.21834 0.16442-0.13832 0.47236-0.17901 0.70854-0.0422 0.67228-0.0763 1.3451-0.12124 2.0172-0.21083 0.01008-0.44326-0.07784-0.64772-0.0077-0.23538 0.13554-0.11509 0.43866-0.13063 0.65742 0.0588 0.1835-0.19449 0.07749-0.29647 0.11162-3.8702 0.12806-7.741 0.24749-11.612 0.36406-0.0294-0.21392 0.0603-0.48595-0.0734-0.67732-0.1689-0.17806-0.44712-0.07103-0.66534-0.10036-0.0916-0.05833-0.0117-0.28604-0.0353-0.41043 0.0548-3.4727 0.12185-6.9462 0.17504-10.419 0.21729-0.0196 0.45928 0.04779 0.65797-0.05224 0.20254-0.16474 0.0904-0.45758 0.11951-0.68346 0.0564-0.10772 0.30643-0.02553 0.44028-0.05729 3.9854-0.08983 7.9778-0.18519 11.959-0.26825 0.0243 0.21828-0.0396 0.46346 0.0654 0.66149 0.16686 0.19673 0.45617 0.08562 0.68036 0.11488 0.0927 0.04696 9e-3 0.26287 0.0341 0.37518-0.0206 1.261-0.0608 2.5218-0.0706 3.783 6e-3 0.21795 0.23786 0.30215 0.42494 0.27025 0.27627-0.01667 0.56159 0.03719 0.83084-0.03429 0.22485-0.16133 0.1097-0.46818 0.13793-0.7014-5e-3 -1.8986 8e-3 -3.7994-7e-3 -5.6966-0.0178-0.23355-0.28401-0.26763-0.4702-0.24448-0.0571-6.5e-5 -0.11415-2e-4 -0.17117 9.11e-4z"/>
    <path d="m134.61 57.339c-1.5913 0.01644-3.1829 0.02442-4.7736 0.07542-0.22729 0.01493-0.28905 0.26122-0.26044 0.45067 0.0169 0.29166-0.0373 0.59242 0.0343 0.87707 0.16035 0.22199 0.46289 0.11376 0.69543 0.1373 1.4914-0.02329 2.9837-0.02379 4.4745-0.07352 0.20439 0.01261 0.39702-0.14044 0.39618-0.35203 0.0334-0.29919 0.096-0.601 0.0789-0.90232-0.0856-0.29508-0.42063-0.19559-0.64519-0.21259z"/>
   </g>
   <g fill="#fff">
    <path d="m156.67 136.18s0.10114 10.92 0.75654 14.606c0.56809 3.1944 3.2692 18.29 3.2692 18.29 0.0478-8.0213-3.2063-31.677-4.0258-32.896z" fill-opacity=".58824" style="paint-order:normal"/>
    <path d="m135.78 143.26c-0.11544 4.7365 7.5559 11.515 8.6275 11.296 1.7529-0.35797 2.6382-9.2032 3.0393-14.381 0.49184-6.3485-1.7714-10.408-2.8294-15.789-1.1796-6.0001-0.10711-12.282-1.1406-18.309-0.7722-4.5036-3.6758-12.194-5.8068-12.17-1.3012 0.0143-4.1074 5.1667-4.4599 8.2824-0.43111 3.811 7.5661 14.57 8.6475 22.547 0.4378 3.2289 0.058 6.6291-0.94388 9.7297-1.0438 3.2302-5.0897 6.983-5.1338 8.7951z" fill-opacity=".098039" style="paint-order:normal"/>
    <g fill-opacity=".19608">
     <path d="m127.95 144.39c-0.0695 1.1249 1.278 5.4793 1.062 10.45 0.44023-2.4562 0.35729-6.0219 0.36404-10.361 5e-3 -2.9054 0.60179-5.634 0.57823-7.852-0.0775 2.2257-1.9404 6.7316-2.0041 7.7636z" style="paint-order:normal"/>
     <path d="m154.39 123.27c1.1285-3.8188 1.1044-6.4042 1.0638-8.9181-0.0373-2.3043-0.0758-8.3997-1.627-18.402 0.53812 9.4565-0.27896 16.76-0.29025 19.181-0.0117 2.4207-0.0595 4.4446 0.8535 8.1396z" style="paint-order:normal"/>
     <path d="m151.45 119.96c-0.45122-0.0924-0.54461 3.0215-0.0771 3.1188 0.40653 0.0846 0.51514-3.0292 0.0771-3.1188z" style="paint-order:normal"/>
    </g>
    <path d="m127.95 144.39c-0.0695 1.1249 0.98419 2.5347 0.85239 4.7759-0.0454-2.1321 1.104-4.2232 0.14639-7.8879-0.19853 1.1427-0.93495 2.08-0.99874 3.112z" style="paint-order:normal"/>
    <path d="m158.45 172.86c-0.82823 2.3286-8.0501 22.68-9.698 29.623-0.71144 2.9973-8.1171 33.744-7.757 38.289-0.34685-4.498 3.2656-22.143 3.0869-25.351-0.16414-2.9467 12.075-41.477 14.368-42.561z" fill-opacity=".58794" style="paint-order:normal"/>
    <path d="m153.53 114.65c-0.0136 2.9011 0.59915 7.8902 0.8721 8.0505 0.2105 0.12338 1.0835-5.8346 1.0429-8.3485-0.0373-2.3043-0.37789-6.7514-0.61388-6.83-0.23606-0.0784-1.2921 5.1877-1.3011 7.128z" style="paint-order:normal"/>
    <path d="m136.98 138.11c-1.3538 0.13842-1.4694 2.7481-1.3215 3.3848 0.15095 0.6494 1.4092 1.9437 2.0834 1.3432 0.76268-0.67922 0.66501-4.8739-0.76192-4.728z" style="paint-order:normal"/>
    <path d="m191.58 18.572c-3.0848 0.51382-4.84 3.9309-4.6967 6.8463 0.11205 2.2793 3.2251 2.8315 4.1724 4.8307 1.3552 2.8601 0.24097 8.9397 1.8364 9.5622 2.217 0.865 3.6496-2.1133 4.7311-9.7129 0.40649-2.8565 0.59199-6.2712-0.85167-8.6294-1.1136-1.8189-3.2917-3.2134-5.1915-2.8969z" fill-opacity=".098039" style="paint-order:normal"/>
    <g fill-opacity=".19608">
     <path d="m196.02 25.351c-0.79123 1.2298-1.6065-0.7692-1.3936-1.3035 0.366-0.91842 1.7312 0.77872 1.3936 1.3035z" style="paint-order:normal"/>
     <path d="m192.63 26.728c-0.60461 0.05613-0.87205-1.897-0.0907-1.9046 0.9856-0.0097 0.57292 1.8598 0.0907 1.9046z" style="paint-order:normal"/>
     <path d="m194.29 33.094c0.36488 0.07101 0.21401 1.3975-0.17807 1.3419-0.35992-0.05161-0.17367-1.4104 0.17807-1.3419z" style="paint-order:normal"/>
     <path d="m197.21 14.102c-0.33231 0.36941 0.28958 3.2236 1.1229 1.6325 0.36875-0.70411-0.53254-2.2887-1.1229-1.6325z" style="paint-order:normal"/>
    </g>
    <path d="m193.91 34.686c-0.95835-0.01078-0.99015 2.9479-0.2498 3.012 0.79334 0.0688 1.1466-3.0019 0.2498-3.012z" style="paint-order:normal"/>
    <path d="m195.09 25.637c1.4902-0.03393 1.5609 4.4003 0.1413 4.4089-1.8604 0.01137-2.3911-4.3577-0.1413-4.4089z" style="paint-order:normal"/>
    <path d="m190.49 37.401c0.46108 1.4724-1.644 2.4805-2.1105 0.75241-0.26303-0.97436 1.7479-1.9105 2.1105-0.75241z" fill-opacity=".19608" style="paint-order:normal"/>
    <path d="m199.03 32.095c0.34601-0.47459-0.57484-1.677-1.0594-1.2311-0.39104 0.3599 0.51218 1.9817 1.0594 1.2311z" style="paint-order:normal"/>
    <path d="m62.738 17.276c-1.0744 2.9369 1.0326 6.1491 3.6394 7.4623 2.0381 1.0267 4.0537-1.4091 6.2601-1.2472 3.1564 0.23164 7.8957 4.1993 9.2241 3.1184 1.8459-1.5021-0.03848-4.2171-6.1162-8.9059-2.2844-1.7624-5.1635-3.6079-7.9269-3.515-2.1315 0.07163-4.4188 1.2787-5.0805 3.0874z" fill-opacity=".098039" style="paint-order:normal"/>
    <g fill-opacity=".19608">
     <path d="m70.827 16.753c0.67959 1.2948-1.4614 1.0182-1.8212 0.56938-0.61845-0.77134 1.5312-1.122 1.8212-0.56938z" style="paint-order:normal"/>
     <path d="m70.353 20.382c-0.24936 0.55365-2.0803-0.17694-1.7016-0.86039 0.47762-0.86219 1.9005 0.41885 1.7016 0.86039z" style="paint-order:normal"/>
     <path d="m76.709 22.078c0.24173-0.2824 1.3212 0.50303 1.0796 0.81673-0.2224 0.28764-1.3126-0.5445-1.0796-0.81673z" style="paint-order:normal"/>
     <path d="m79.063 19.396c0.15747 0.47128 2.9471 1.338 1.9739-0.17173-0.43066-0.66804-2.2537-0.6655-1.9739 0.17173z" style="paint-order:normal"/>
    </g>
    <path d="m77.91 23.188c-0.48202 0.82838 2.0761 2.3152 2.4971 1.7028 0.45112-0.65622-2.0459-2.478-2.4971-1.7028z" style="paint-order:normal"/>
    <path d="m70.617 17.704c0.70544-1.3131 4.5977 0.81228 3.9051 2.0515-0.90766 1.6241-4.9701-0.06907-3.9051-2.0515z" style="paint-order:normal"/>
    <path d="m78.581 27.508c1.5083 0.32505 1.347 2.6535-0.38635 2.2071-0.97734-0.25173-0.79998-2.4628 0.38635-2.2071z" fill-opacity=".19608" style="paint-order:normal"/>
    <path d="m80.594 19.019c-0.24221-0.53506-1.7424-0.32702-1.5934 0.31447 0.12023 0.51768 1.9765 0.53178 1.5934-0.31447z" style="paint-order:normal"/>
    <path d="m180.06 105.87s-2.2381 9.383-2.3564 10.729c-0.25386 2.89 2.2957 12.62 2.2957 12.62l-1.1872-11.981z" fill-opacity=".58824" style="paint-order:normal"/>
    <path d="m190.15 56.181c2.8692-2.7486-5.45 30.238-6.7609 35.013 0 0-0.41139 1.6286 3.0309-17.346 0.51665-2.8478 3.7299-17.668 3.7299-17.668z" fill-opacity=".58824" style="paint-order:normal"/>
    <g transform="matrix(.9995 -.048386 .061448 1.0424 2.3822 2.8646)" fill-opacity=".098039">
     <path d="m175.45 115.16c0.2294 0.72134-0.99419 1.0156-1.2172 0.37551-0.32344-0.92843 0.93729-1.2556 1.2172-0.37551z" style="paint-order:normal"/>
     <path d="m170.75 98.039c0.98822-0.39877 1.7903 2.1478 1.0488 2.4473-0.84873 0.34276-2.2447-1.9647-1.0488-2.4473z" style="paint-order:normal"/>
     <path d="m176.6 75.172c-0.0693-0.98734-2.698-1.4667-4.1824-1.5927-1.1192-0.09505-2.0821 1.3586-3.017 1.9811-1.189 0.79178-2.9697 1.5908-3.3408 2.279-0.3405 0.63146-0.35679 1.5946 0.11945 2.1168 1.4473 1.5869 5.4049 1.4119 6.6656 0.95223 2.1987-0.80169 3.9188-3.4019 3.7551-5.7365z" style="paint-order:normal"/>
    </g>
    <g transform="translate(5.4237 -4.1482)" fill-opacity=".19608">
     <path d="m175.63 97.774c-0.58599-0.58599-2.4913-0.25619-2.8933 0.29299-0.42399 0.57924 1.8997 3.6504 3.223 4.9992 0.28419 0.28969 1.1328 0.0743 1.172-0.32962 0.12408-1.2812-0.81614-4.2771-1.5016-4.9626z" style="paint-order:normal"/>
     <path d="m174.35 95.027c0.0331 0.31144-1.2257 0.45058-1.291 0.16482-0.0733-0.32047 1.2502-0.54955 1.291-0.16482z" style="paint-order:normal"/>
     <path d="m179.05 104.03c0.1748 0.34314-0.70419 0.64256-0.79657 0.4578-0.23308-0.46615 0.59498-0.85351 0.79657-0.4578z" style="paint-order:normal"/>
     <path d="m176.58 75.394c-0.3453-0.71161-1.4428-1.2251-2.2286-1.002-0.48245 0.13698-1.2865 3.767-0.56868 4.9076 0.0735 0.11685 0.75778 0.35825 0.9327 0.26385 1.1242-0.60673 2.0123-3.8649 1.8646-4.1694z" style="paint-order:normal"/>
    </g>
    <path d="m182.93 86.162c0.43103-3.5893-0.83445-1.727-1.6738 1.5696-0.88525 3.4771-2.8495 18.335-2.4208 17.981 0.35819-0.29597 3.1719-14.236 4.0946-19.551z" stroke-width="1.6897" style="paint-order:normal"/>
    <path d="m182 71.246c-0.26873-0.55382-1.4857-0.90308-1.7092-0.69923-0.28841 0.26298-0.81263 2.3665-0.25399 3.2542 0.0572 0.09095 0.58974 0.27881 0.72587 0.20534 0.8749-0.4722 1.3523-2.5234 1.2373-2.7603z" style="paint-order:normal"/>
    <g fill-opacity=".58824">
     <path d="m184.25 58.841c11.356-7.1768 17.446-21.67 15.457-33.572-0.14445-0.86449-0.52685 5.2111-0.52685 5.2111s-0.57824 4.844-1.0374 6.7074c-3.9986 16.227-12.023 19.55-13.893 21.654z" style="paint-order:normal"/>
     <path d="m185.9 59.773c11.356-7.1768 17.446-21.67 15.457-33.572-0.14445-0.86449-0.52685 5.2111-0.52685 5.2111s-0.57824 4.844-1.0374 6.7074c-3.9986 16.227-12.023 19.55-13.893 21.654z" style="paint-order:normal"/>
     <path d="m87.202 64.096c13.367 1.3396 20.981-4.6494 26.744-15.251 0.41862-0.77004-4.4014 4.7133-4.4014 4.7133s-1.825 1.8651-3.3426 3.0398c-9.0523 7.0067-16.232 6.9919-19 7.4981z" style="paint-order:normal"/>
    </g>
    <path d="m129.3 165.56c2.533-1.8341 2.5823-5.6753 1.1554-8.2217-1.1156-1.9908-4.1487-1.0985-5.8874-2.4664-2.4873-1.957-4.1979-7.8964-5.9036-7.7431-2.3703 0.21316-2.3261 3.5177 0.0908 10.803 0.90843 2.7385 2.2634 5.8784 4.6064 7.3466 1.8072 1.1325 4.3784 1.4107 5.9384 0.28121z" fill-opacity=".098039" style="paint-order:normal"/>
    <path d="m139.95 242.66c-1.2496-0.0465-3.6611 0.60637-5.2026 1.2476-1.2052 0.50134-0.52682 0.78111-1.3169 1.2644-1.1303 0.6914-4.7892 1.9561-4.6263 2.1733 0.2264 0.30183 2.2976-0.27222 6.7734-1.8692 1.6823-0.60022 3.599-1.3332 4.4283-1.92 0.63973-0.45263 0.7137-0.86757-0.0558-0.89626z" fill-opacity=".098039" stroke-width=".31031" style="paint-order:normal"/>
   </g>
   <g fill="none" stroke="#000">
    <path d="m113.52 244.35c3.8261 1.8224 8.0677 2.8675 12.352 3.0439 5.166 0.21264 10.385-0.84656 14.999-3.0439" stroke-width="1.6137px"/>
    <g stroke-width="1.5653px">
     <path d="m113.52 244.35c-4.1074-32.369-13.692-64.038-28.224-93.253-3.6601-7.3578-7.631-14.561-11.899-21.584"/>
     <path d="m115.18 45.942c-7.3229-10.039-16.705-18.568-27.395-24.904-7.1695-4.2496-14.92-7.5176-22.966-9.685"/>
     <path d="m64.827 11.353-10.238 10.792"/>
     <path d="m54.588 22.145c-0.80392 3.4365-1.0849 6.995-0.83014 10.515 0.66633 9.2085 5.1473 18.087 12.175 24.075 7.0969 6.0458 16.78 9.0595 26.011 7.7481 9.3279-1.3255 17.925-7.0917 22.691-15.219"/>
     <path d="m129.06 56.889v2.5437"/>
     <path d="m129.06 56.889 6.8483-0.09784"/>
     <path d="m129.06 59.425 6.5548-0.0979"/>
     <path d="m135.9 56.78-0.29349 2.5437"/>
     <path d="m135.91 56.791v-7.7288"/>
     <path d="m135.91 49.058-17.806 0.39133"/>
     <path d="m118.1 49.45v16.436"/>
     <path d="m135.62 59.327v6.0656"/>
     <path d="m118.1 65.886 17.513-0.48916"/>
     <path d="m120.65 51.892-0.19566 11.349"/>
     <path d="m120.45 63.24 12.425-0.39132"/>
     <path d="m133.07 59.624-0.19568 3.2285"/>
     <path d="m120.65 51.892 12.914-0.2935"/>
     <path d="m133.57 51.594-0.098 4.8916"/>
     <path d="m130.43 96.122v2.5436"/>
     <path d="m130.43 96.122 6.8483-0.098"/>
     <path d="m130.43 98.658 6.5548-0.098"/>
     <path d="m137.27 96.012-0.29349 2.5436"/>
     <path d="m137.28 96.024v-7.7288"/>
     <path d="m137.28 88.291-17.806 0.39132"/>
     <path d="m119.47 88.683v16.436"/>
     <path d="m136.99 98.56v6.0656"/>
     <path d="m119.47 105.12 17.513-0.48916"/>
     <path d="m122.02 91.125-0.19566 11.349"/>
     <path d="m121.82 102.47 12.425-0.39133"/>
     <path d="m134.44 98.857-0.19567 3.2285"/>
     <path d="m122.02 91.125 12.914-0.29351"/>
     <path d="m134.94 90.827-0.0979 4.8916"/>
     <path d="m130.82 129.78v2.5437"/>
     <path d="m130.82 129.78 6.8483-0.098"/>
     <path d="m130.82 132.31 6.5548-0.0979"/>
     <path d="m137.66 129.67-0.2935 2.5436"/>
     <path d="m137.68 129.68v-7.7288"/>
     <path d="m137.68 121.95-17.806 0.39134"/>
     <path d="m119.86 122.34v16.436"/>
     <path d="m137.38 132.22v6.0656"/>
     <path d="m119.86 138.77 17.513-0.48916"/>
     <path d="m122.41 124.78-0.19567 11.349"/>
     <path d="m122.21 136.13 12.425-0.39132"/>
     <path d="m134.83 132.51-0.19568 3.2285"/>
     <path d="m122.41 124.78 12.914-0.29351"/>
     <path d="m135.33 124.48-0.0979 4.8916"/>
     <path d="m64.827 11.353c-0.14207 9.2763 1.5146 18.577 4.8511 27.234 3.8034 9.8681 9.7933 18.887 17.414 26.219"/>
     <path d="m87.1 64.806c2.3134 5.3877 4.2123 10.953 5.6743 16.632 3.8504 14.954 4.6398 30.549 4.109 45.981-0.46046 13.386-1.9005 26.739-4.3046 39.916"/>
     <path d="m117.42 53.066-6.2613 0.19566"/>
     <path d="m116.64 62.661c-4.4378 0.21024-8.8734 0.47115-13.305 0.78266-5.4195 0.38094-10.834 0.83754-16.24 1.3697"/>
     <path d="m118.99 91.416c-5.1581-0.0747-10.32 0.12117-15.458 0.58701-2.7478 0.24914-5.4885 0.57541-8.218 0.97831"/>
     <path d="m118.78 101.79c-4.3204 0.17795-8.6322 0.56993-12.914 1.174-3.2819 0.46299-6.546 1.0506-9.7833 1.761"/>
     <path d="m119.56 126.06c-3.6557-9e-3 -7.3118 0.11956-10.957 0.39134-3.9301 0.29297-7.8479 0.75005-11.74 1.3696"/>
     <path d="m119.17 135.04c-5.5557 0.19114-11.104 0.58282-16.632 1.174-2.1558 0.2306-4.3084 0.4915-6.457 0.78266"/>
     <path d="m73.405 129.52c0.18385-4.6119 2.2888-9.0883 1.9207-13.689-0.9332-11.664-12-51.605-13.006-62.457"/>
     <path d="m140.9 244.35c4.1074-32.369 13.692-64.038 28.224-93.253 3.66-7.3578 7.631-14.561 11.899-21.584"/>
     <path d="m139.24 45.942c7.3229-10.039 16.705-18.568 27.395-24.904 7.1695-4.2496 14.92-7.5176 22.966-9.685"/>
     <path d="m189.6 11.353 10.238 10.792"/>
     <path d="m199.84 22.145c0.80392 3.4365 1.0848 6.995 0.83013 10.515-0.66633 9.2085-5.1473 18.087-12.175 24.075-7.0969 6.0458-16.78 9.0595-26.011 7.7481-9.328-1.3255-17.925-7.0917-22.691-15.219"/>
     <path d="m189.6 11.353c0.14212 9.2763-1.5146 18.577-4.8511 27.234-3.8034 9.8681-9.7933 18.887-17.414 26.219"/>
     <path d="m167.32 64.806c-2.3134 5.3877-4.2123 10.953-5.6743 16.632-3.8504 14.954-4.6398 30.549-4.109 45.981 0.46046 13.386 1.9004 26.739 4.3047 39.916"/>
     <path d="m135.83 53.269h7.4353"/>
     <path d="m137.79 62.661c4.4379 0.21024 8.8734 0.47115 13.305 0.78266 5.4195 0.38094 10.834 0.83754 16.24 1.3697"/>
     <path d="m136.47 91.416c4.8159-0.0427 9.6338 0.1534 14.43 0.58701 2.7478 0.24836 5.4886 0.57464 8.218 0.97831"/>
     <path d="m136.31 101.79c4.0914 0.20543 8.1734 0.59731 12.229 1.174 3.2812 0.46657 6.5452 1.0541 9.7833 1.761"/>
     <path d="m136.86 125.99c2.9873 0.0604 5.9728 0.20732 8.9518 0.44024 3.9288 0.30722 7.8459 0.76421 11.74 1.3697"/>
     <path d="m136.75 135.1c5.0488 0.21155 10.091 0.58687 15.115 1.1251 2.1558 0.23092 4.3084 0.49185 6.457 0.78267"/>
     <path d="m181.02 129.51c-0.18384-4.6119-2.001-9.2301-1.6331-13.831 0.9332-11.664 10.974-46.624 11.98-61.138"/>
     <path d="m115.18 45.942 2.2317 7.1236"/>
     <path d="m139.23 45.942-2.2317 7.1236"/>
     <path d="m120.64 66.074 6.2613 11.642"/>
     <path d="m133.17 65.683-6.2613 12.033"/>
    </g>
   </g>
  </g>
 </g>
 <g fill="none" stroke="#000" stroke-width="1px">
  <path d="m126.9 77.716 0.2341 10.688"/>
  <path d="m128.09 105.28v16.491"/>
  <path d="m127.33 247.37c-0.22909-5.112-0.42085-10.226-0.57527-15.341-0.94169-31.192-0.49367-62.426 1.3423-93.578"/>
 </g>
</svg>
