<svg cursor="default" enable-background="new" version="1.1" viewBox="0 0 256 256" xmlns="http://www.w3.org/2000/svg" xmlns:xlink="http://www.w3.org/1999/xlink">
 <defs>
  <linearGradient id="innoGrad2">
   <stop stop-color="#f55" offset="0"/>
   <stop stop-color="#ff8080" offset="1"/>
  </linearGradient>
  <linearGradient id="innoGrad3">
   <stop stop-color="#f55" offset="0"/>
   <stop stop-color="#ff8080" offset=".105"/>
   <stop stop-color="#ff8080" offset=".777"/>
   <stop stop-color="#f55" offset="1"/>
  </linearGradient>
  <linearGradient id="innoGrad1">
   <stop stop-color="#f55" offset="0"/>
   <stop stop-color="#ff2a2a" offset="1"/>
  </linearGradient>
  <linearGradient id="linearGradient2036" x1="44.935" x2="80.142" y1="145.32" y2="145.32" gradientUnits="userSpaceOnUse" xlink:href="#innoGrad1"/>
  <linearGradient id="linearGradient2044" x1="174.51" x2="209.77" y1="145.01" y2="145.01" gradientUnits="userSpaceOnUse" xlink:href="#innoGrad1"/>
  <linearGradient id="linearGradient2052" x1="66.326" x2="188.55" y1="43.149" y2="43.149" gradientUnits="userSpaceOnUse" xlink:href="#innoGrad1"/>
  <linearGradient id="linearGradient2060" x1="106.65" x2="147.69" y1="23.786" y2="23.786" gradientUnits="userSpaceOnUse" xlink:href="#innoGrad1"/>
  <linearGradient id="linearGradient2068" x1="133.3" x2="182.26" y1="68.932" y2="68.932" gradientUnits="userSpaceOnUse" xlink:href="#innoGrad2"/>
  <linearGradient id="linearGradient2076" x1="72.406" x2="121.57" y1="69.129" y2="69.129" gradientUnits="userSpaceOnUse" xlink:href="#innoGrad2"/>
  <linearGradient id="linearGradient2084" x1="79.965" x2="126.23" y1="69.988" y2="69.988" gradientUnits="userSpaceOnUse" xlink:href="#innoGrad3"/>
  <linearGradient id="linearGradient2092" x1="129.87" x2="174.72" y1="69.812" y2="69.812" gradientUnits="userSpaceOnUse" xlink:href="#innoGrad3"/>
  <clipPath>
   <use width="100%" height="100%" xlink:href="#g2215"/>
  </clipPath>
 </defs>
 <g></g>
 <g display="none" fill="#ffd5d5">
  <path d="m125.8-66.918c0.19113-0.13799 0.36408-0.30229 0.53601-0.46375 0.14221-0.10162 0.26069-0.22783 0.40714-0.32395 0.16197-0.1145 0.35231-0.17689 0.51665-0.28607 0.19959-0.09748 0.38503-0.22094 0.58248-0.32348 0.16429-0.1074 0.34952-0.17162 0.51877-0.26764 0.14546-0.05932 0.27793-0.1424 0.42003-0.20938 0.12023-0.08121 0.24331-0.16517 0.378-0.22069 0.11434-0.06734 0.23138-0.13631 0.3565-0.18236 0.11722-0.09046 0.2551-0.14972 0.3702-0.24206 0.12005-0.09046 0.26297-0.14524 0.38556-0.22991 0.0832-0.03548 0.15839-0.08157 0.23866-0.12261l-0.11422 1.0484c-0.0771 0.04202-0.15789 0.07632-0.23389 0.12041-0.12825 0.06313-0.2543 0.13186-0.37378 0.21041-0.13283 0.08533-0.25518 0.18803-0.3953 0.26009-0.11865 0.05795-0.23519 0.12005-0.35306 0.17953-0.12646 0.065-0.24907 0.13719-0.37221 0.20819-0.1363 0.07532-0.27366 0.14348-0.42109 0.19516-0.17679 0.07013-0.34407 0.15971-0.51427 0.24448-0.19875 0.0963-0.38624 0.21057-0.57564 0.32339-0.17845 0.09301-0.3488 0.19995-0.51187 0.31788-0.13309 0.10018-0.25447 0.21623-0.39786 0.30275-0.19966 0.13825-0.38689 0.29452-0.53694 0.48733l0.0901-1.0262z"/>
  <path d="m120.85-66.835c0.0444-0.58608 0.20712-1.1269 0.35945-1.6828 0.0426-0.17144 0.1709-0.29008 0.25244-0.43939 0.0908-0.12969 0.22965-0.20993 0.36355-0.28833 0.11481-0.09222 0.21597-0.20065 0.34376-0.27466 0.11691-0.08744 0.24277-0.16205 0.3659-0.24035 0.12401-0.06714 0.24427-0.13918 0.3693-0.20488 0.12704-0.04094 0.21978-0.13815 0.33958-0.19322 0.13016-0.05459 0.26091-0.10723 0.39545-0.15359 0.14758-0.07245 0.30124-0.12868 0.44917-0.20449 0.17264-0.07193 0.33051-0.17437 0.50194-0.24755 0.12905-0.04661 0.24417-0.11976 0.37097-0.17224l-0.12165 1.0114c-0.12107 0.04466-0.24065 0.09361-0.35806 0.1472-0.16553 0.09957-0.33096 0.19871-0.50549 0.28211-0.15026 0.07766-0.31182 0.12952-0.46037 0.21079-0.12918 0.05722-0.25712 0.11707-0.38583 0.17521-0.11047 0.06853-0.21729 0.14262-0.33882 0.1916-0.11929 0.06619-0.24306 0.12408-0.36002 0.19469-0.12268 0.08035-0.24608 0.15912-0.36658 0.24273-0.11993 0.08554-0.2223 0.19376-0.34622 0.27334-0.12488 0.07823-0.24168 0.15534-0.31459 0.28895-0.0894 0.12685-0.17877 0.2506-0.22355 0.40223-0.12757 0.38943-0.33775 1.4102-1e-3 -0.2908 0 0-0.32924 0.97202-0.32924 0.97202z"/>
  <path d="m116.69-60.997c-8e-3 -0.27892-0.0422-0.55612-0.0636-0.83416-0.0144-0.19126-0.0178-0.38306-0.0196-0.57478-3e-3 -0.19291 3e-3 -0.38573 3e-3 -0.57862-8e-3 -0.19185 1e-4 -0.38068 0.0301-0.57012 0.0312-0.17479 0.0437-0.35181 0.0508-0.52895 5e-3 -0.17638 5e-3 -0.35287 5e-3 -0.52932-0.0259-0.5256 0.0959-0.96293 0.19265-1.5112 5e-3 -0.02456 7e-3 -0.04987 0.0151-0.07367 0.0151-0.04588 0.042-0.08718 0.0589-0.13241 0.0252-0.06716 0.0376-0.13421 0.0653-0.20071 0.0986-0.12572 0.1407-0.27044 0.16332-0.4256-0.56284 3.1388 0.46621-2.5482-0.0863 0.55712 0.25734-0.39361 0.0866-1.0068 0.31962-1.4368 0.0806-0.16312 0.12873-0.34032 0.20621-0.50422 0.0611-0.14307 0.0859-0.29579 0.17526-0.42547 0.0814-0.11955 0.14631-0.24728 0.21101-0.37658 0.0908-0.10021 0.18811-0.19153 0.26557-0.30395 0.0752-0.06626 0.0866-0.17006 0.14547-0.2469 0.0299-0.03903 0.0664-0.07265 0.0969-0.11123 0.10869-0.07863 0.17624-0.18992 0.26088-0.28912 0.0619-0.11825 0.17487-0.1924 0.2583-0.29231 0.0973-0.11774 0.22929-0.19974 0.32915-0.3144 0.10773-0.11992 0.25125-0.19223 0.37742-0.28705 0.12143-0.07475 0.24236-0.15575 0.3517-0.24773 0.12999-0.07679 0.25194-0.16251 0.37874-0.24426 0.14604-0.08205 0.26276-0.2007 0.39206-0.30424 0.0893-0.06275 0.19297-0.08278 0.29835-0.09911l-0.14198 1.0279c-0.0899 0.02274-0.17662 0.05023-0.25004 0.10976-0.13004 0.1024-0.26926 0.19199-0.39861 0.2952-0.12313 0.08901-0.254 0.16632-0.3758 0.25725-0.12169 0.08038-0.23167 0.17662-0.35817 0.24985-0.12738 0.07281-0.24883 0.15756-0.35054 0.2642-0.11 0.11066-0.22164 0.21976-0.32804 0.33395-0.0909 0.09692-0.1768 0.19793-0.25361 0.30653-0.0767 0.104-0.17409 0.18662-0.26148 0.28128-0.0947 0.11298-0.14905 0.24957-0.24035 0.36545-0.0832 0.09657-0.17878 0.18364-0.24671 0.29129-0.072 0.12893-0.13739 0.26141-0.21607 0.38664-0.0614 0.1304-0.0975 0.27023-0.16246 0.39914-0.0692 0.16698-0.13273 0.33632-0.20505 0.50204-0.13125 0.38871-0.25925 1.2156 0.057-0.56814-0.0629 0.36254-0.12473 0.72529-0.18882 1.0876-8e-3 0.04401-0.0245 0.10434-0.0357 0.14775-6e-3 0.0232-0.0216 0.0933-0.0177 0.06966 4e-3 -0.02311 0.46746-2.7256-0.0262 0.1518-0.0374 0.15385-0.10712 0.28896-0.17821 0.42928-0.0398 0.13792-0.10051 0.26883-0.12475 0.41076 0.0541-0.3123 0.10996-0.62429 0.16224-0.93689 5e-3 -0.02782-0.0162 0.05434-0.0194 0.08236-0.0131 0.11632 0.0103 0.23678 4e-4 0.35345 2.2e-4 0.1768 8.6e-4 0.35361-2e-3 0.53039-4e-3 0.18005-0.011 0.36049-0.0401 0.53857-0.0324 0.19299-0.0665 0.38219-0.0503 0.57937-1e-5 0.18722 5e-3 0.37436 2e-3 0.56158-8.3e-4 0.20509-2e-3 0.41022 2e-3 0.61529 7e-3 0.26144 0.0104 0.52738 0.0721 0.78264l-0.30497 0.9799z"/>
  <path d="m108.85-91.646c0.23117-0.03403 0.45037-0.15603 0.64236-0.28693 0.15619-0.108 0.32335-0.19766 0.47698-0.30751 0.12875-0.09908 0.26113-0.18233 0.41072-0.24778 0.1327-0.08249 0.26417-0.16436 0.39515-0.24896 0.14616-0.08444 0.28946-0.17053 0.43193-0.26043 0.11886-0.10848 0.25624-0.19514 0.39074-0.28286 0.12926-0.11898 0.26959-0.22626 0.41095-0.33005 0.13551-0.09077 0.26887-0.18348 0.40245-0.2777 0.13575-0.11526 0.25915-0.24402 0.40211-0.35183 0.0913-0.09669 0.20725-0.16717 0.27054-0.28672 0.0964-0.10344 0.18158-0.21481 0.27209-0.32348 0.11927-0.11582 0.22739-0.24393 0.35215-0.35383 0.0802-0.11362 0.1979-0.18135 0.30135-0.2681 0.019-0.01151 0.0371-0.02451 0.057-0.03452 0.0593-0.02996 0.0675-0.0182 0.11552-0.06238 0.0501-0.04611 0.0814-0.08415 0.14206-0.12033 0.0888-0.09243 0.20435-0.14792 0.30326-0.22613 0.0932-0.0496 0.16266-0.12989 0.24579-0.19321l-0.0936 1.0544c-0.0796 0.07006-0.16361 0.13468-0.25317 0.19167-0.10721 0.06783-0.20161 0.15166-0.30424 0.22607-0.0991 0.08048-0.19922 0.15309-0.30975 0.21748-0.10682 0.07396-0.1961 0.16676-0.29148 0.25459-0.11826 0.10895-0.24209 0.21519-0.33366 0.34868-0.0864 0.11679-0.18519 0.22412-0.26767 0.34407-0.0884 0.10155-0.19549 0.18451-0.30231 0.26594-0.14015 0.10439-0.27227 0.21622-0.40044 0.3351-0.13038 0.10365-0.27151 0.19046-0.40541 0.28913-0.14034 0.09983-0.27729 0.20303-0.41076 0.31196-0.13303 0.09964-0.25716 0.21104-0.39867 0.2988-0.14533 0.08621-0.29466 0.16621-0.43054 0.26741-0.13305 0.08447-0.26748 0.1677-0.40673 0.24145-0.1363 0.0729-0.26356 0.15989-0.39675 0.23808-0.15964 0.09403-0.31528 0.19501-0.47781 0.28409-0.21554 0.11549-0.46179 0.17044-0.66026 0.31988l0.12017-1.0261z"/>
 </g>
 <g>
  <g>
   <g fill="#ffb380" stroke-width="0">
    <path d="m126.9 51.419c-1.3141 11.387 0.5338 22.536-0.17059 32.951 0.5946 0.7547 1.8454 0.42581 2.5956 0.27202-0.2979-11.125 0.82404-23.273-0.14367-33.221-0.56408-0.14807-1.1817-0.02089-1.7664-0.06323-0.17509 0.0082-0.35633-0.03329-0.51501 0.06189z"/>
    <path d="m126.6 11.419c-0.20178 2.1813-0.24476 4.5947-0.28134 6.5915 0.67526 0.42325 1.7279 0.0038 2.024-0.07319-0.17819-2.1202-0.14554-4.2522-0.32569-6.3737-0.43436-0.34637-0.9526-0.19681-1.417-0.14465z"/>
    <path d="m125.8 7.7636c-0.2897 1.0606 0.24074 2.1392 0.643 2.9778 0.57547 0.0014 1.1841 0.0409 1.7461-0.06605 0.62403-0.79836 0.77776-1.9055 0.68034-2.8959-1.0188-0.34164-2.2025-0.1224-3.0694-0.015833z"/>
   </g>
   <g stroke-width="0">
    <path d="m125.43 51.357c-1.0299 0.02721-2.0721 0.02411-3.0931 0.10521-0.32322 0.19737-0.10472 0.69136-0.17559 1.0148-0.12359 10.409-0.45714 20.818-1.046 31.209-0.45217-0.23912-0.54354 0.2629-0.60021 0.47212-7.9895-0.23237-15.971 0.41554-23.919 1.1549-5.4888 0.5337-10.971 1.1452-16.439 1.8624-0.38846 0.11812-0.10801 0.56207 0.05383 0.75598 0.24978 0.28241 0.44616 0.82298 0.92102 0.65942 13.057-1.4666 26.16-2.552 39.282-3.2188 1.6243-0.10036 3.2573-0.10383 4.877-0.25162 0.73294-0.21243 0.98321-1.0688 0.91553-1.7539-0.43559-10.307-0.41758-20.634-3e-3 -30.941-0.0519-0.33865 0.15817-0.79696-0.14417-1.0441-0.20368-0.04965-0.42161-0.01511-0.62939-0.0249z" fill="url(#linearGradient2084)"/>
    <path d="m129.95 51.381c-0.17674 0.449 1e-3 0.97669-0.032 1.4574 0.41185 10.008 0.39763 20.034 0.0222 30.043 0.0266 0.71684-0.19993 1.5797 0.38201 2.1427 0.39453 0.44396 1.065 0.27861 1.5883 0.36001 13.816 0.51463 27.62 1.4625 41.368 2.8866 0.41321 0.07423 0.86548-0.0609 1.0448-0.47008 0.14207-0.246 0.63574-0.63197 0.23328-0.8551-1.7382-0.3149-3.5062-0.45383-5.2584-0.67916-10.686-1.2402-21.425-2.0411-32.178-2.3732-1.1008-0.02966-2.2018-0.05667-3.3017-0.11272 0.26656-0.51431-0.39331-0.41994-0.49304-0.61609-0.24504-10.499-0.4096-21.009-0.62573-31.513-0.14296-0.40548-0.68498-0.17882-1.0117-0.26475-0.57472 0.01053-1.1806-0.12133-1.7383-0.0061z" fill="url(#linearGradient2092)"/>
    <path d="m121.32 51.465c-2.2261 0.16789-4.4593 0.27706-6.6804 0.52724-5.3352 0.52854-10.638 1.4505-15.795 2.9298-5.7287 1.6157-11.369 3.5281-17.068 5.2387-2.5639 0.80176-5.1516 1.531-7.7068 2.3576-0.5526 0.1407-0.59004 0.80432-0.79956 1.2378-1.2899 3.4699-1.0151 7.3241 0.04126 10.816 1.2233 4.0127 3.1538 7.7877 5.453 11.286 0.25649 0.30449 0.40388 0.7657 0.78629 0.93312 0.23143 0.02804 0.29493-0.26564 0.54688-0.20618 9.8976-1.261 19.837-2.3315 29.798-2.8843 3.4581-0.16011 6.9308-0.23414 10.397-0.12716 0.40834-0.1311 0.20777-0.68946 0.29618-1.0214 0.56944-10.276 0.88827-20.565 0.98519-30.856-0.022-0.13609-0.11479-0.22597-0.25342-0.2312z" fill="url(#linearGradient2076)"/>
    <path d="m133.59 51.467c-0.44758 0.04813-0.21881 0.62367-0.26674 0.9211 0.16702 10.202 0.42036 20.402 0.57289 30.604 0.14247 0.41272 0.70356 0.16824 1.0366 0.24877 13.464 0.31711 26.905 1.4218 40.258 3.1559 0.39969-0.11469 0.50692-0.63238 0.77506-0.92344 2.3363-3.5761 4.282-7.4419 5.4938-11.547 0.75557-2.5514 1.0022-5.2682 0.62493-7.9059-0.2353-1.2584-0.5792-2.5162-1.1489-3.6654-0.5244-0.39114-1.1985-0.553-1.7864-0.83728-14.43-5.965-29.908-9.3887-45.508-10.051z" fill="url(#linearGradient2068)"/>
    <path d="m124.72 7.7198c-3.4796 0.33523-6.9302 0.91604-10.388 1.4185-6.8236 1.0902-4.9524 5.471 0.45663 7.3377 3.3433 1.0485 6.8591 1.4112 10.34 1.63 0.42211 0.13414 0.71703-0.17337 0.60017-0.59214 0.0456-2.1066 0.16331-4.228 0.20272-6.3369-0.3427-1.1532-0.56625-2.8278-0.76964-3.5014z" fill="#f55"/>
    <path d="m129.62 7.7533c-0.0973 1.2301-0.43871 2.3413-0.93994 3.3849-8e-3 2.4226 0.10636 4.6487 0.25658 6.8879 0.20754 0.32406 0.68793 0.05951 1.0167 0.10305 4.5008-0.80532 12.387-0.32998 14.546-4.6491 0.66535-2.0686-0.78902-2.6692-2.4306-3.3457-3.2734-1.1432-6.7056-1.7563-10.131-2.2365-0.75402-0.073327-1.5259-0.21571-2.2759-0.158z" fill="#f55"/>
    <path d="m65.09 43.389c-2.0306 1.6295-3.8243 3.6815-5.2309 5.8877-3.1523 5.3672-3.3403 11.759-4.5426 17.718-3.5167 21.531-4.6152 43.358-5.9158 65.108-1.926 36.721-3.3778 73.468-4.3868 110.23 0.11458 1.4481-0.32271 3.0958 0.13554 4.4473 4.4469 0.81734 9.04 0.38866 13.532 0.15438 1.0776-0.22624 2.4119-0.0265 3.3277-0.61385 1.5751-17.738 3.4994-35.438 5.6405-53.117 2.8319-24.392 4.8604-48.867 7.9612-73.229 1.3606-10.299 2.1266-20.702 4.532-30.827-3.8318-5.6403-7.5951-11.833-8.2598-18.78-0.33718-2.7678 0.23465-5.5071 1.165-8.1011-3.0149-5.9001-5.457-12.064-7.4834-18.369-0.10196-0.18761-0.1852-0.54902-0.47461-0.5044z" fill="url(#linearGradient2036)"/>
    <path d="m189.46 43.244c-0.89111 0.84233-0.92368 2.4096-1.434 3.5274-1.6733 5.2678-3.9989 10.311-6.4064 15.246 2.6419 6.1919 0.67802 13.125-2.2349 18.822-1.3709 2.7945-3.1445 5.3867-4.8676 7.959 2.6838 11.549 3.5678 23.49 5.0841 35.262 3.1565 26.278 5.3716 52.655 8.6076 78.924 1.7699 14.318 3.0896 28.682 4.5066 43.037 0.85917 0.6643 2.2795 0.44433 3.3659 0.61652 4.4944 0.0858 9.0339 0.30253 13.507-0.0828 0.40439-1.8123 1e-5 -3.8516 0.0763-5.739-1.4225-44.028-2.8874-88.067-5.8104-132.02-1.2624-18.093-2.9068-36.229-6.7098-53.989-1.0133-4.534-3.7612-8.6013-7.3672-11.476-0.0974-0.04954-0.20525-0.09291-0.31689-0.08203z" fill="url(#linearGradient2044)"/>
    <path d="m148.28 24.915c-10.484 12.085-34.984 8.9109-41.857-0.36002-1.4543-0.11592-2.7529 1.9259-4.1123 2.3625-11.794 5.6081-24.768 8.6506-35.944 15.545-0.24296 1.6185 0.77071 3.2403 1.1416 4.8047 1.7841 4.7884 3.4155 9.7175 6.0366 14.121 0.85371 0.99306 2.1619-0.39138 3.1722-0.38107 10.481-2.9942 20.741-6.9856 31.496-8.8506 22.954-3.4871 46.801-0.6859 68.452 7.6614 1.4246 0.43914 2.8516 1.3878 4.3525 1.3555 1.9007-2.6563 2.8667-5.8952 4.1852-8.8676 1.2802-3.2287 2.4804-6.4967 3.3553-9.8614-1.7484-1.4634-4.067-2.4403-6.1234-3.5561-10.786-5.11-22.35-8.3524-33.06-13.643-0.35812-0.09062-0.71008-0.49868-1.0945-0.33099z" fill="url(#linearGradient2052)"/>
   </g>
   <path d="m73.539 62.341c1.8409 3.157 3.2709 6.5533 4.2426 10.076 0.64616 2.3426 1.0903 4.7408 1.3258 7.1595" fill="none" stroke="#000" stroke-width="1px"/>
   <path d="m181.01 61.174c-1.4396 2.4562-2.5969 5.0777-3.4422 7.7963-1.0577 3.402-1.6251 6.956-1.6794 10.518" fill="none" stroke="#000" stroke-width="1px"/>
   <path d="m110.34 14.777c-0.8445 3.2204-1.6503 6.8732-3.5787 9.2006-0.30202 0.27569 0.0573 0.61491 0.16615 0.89893 4.7564 7.4534 14.388 7.7197 21.504 7.9183 7.8026-0.1044 14.649-2.4975 19.22-8.238 0.16254-0.34028-0.29727-0.47089-0.48752-0.67103-2.6811-2.2861-2.1373-6.1326-2.7834-8.9353-0.316-0.03742-0.4771 0.31561-0.71833 0.46119-1.596 1.2343-3.589 1.6998-5.5148 2.1861-6.2635 1.5038-12.788 1.4247-19.13 0.45641-3.3223-0.64653-6.0659-1.3004-8.4794-3.219-0.0582-0.03993-0.12645-0.0646-0.19801-0.05818z" fill="url(#linearGradient2060)" stroke-width="0"/>
   <g fill="#fff">
    <path d="m198.06 160.36c5.3109-3.9725 8.8189-1.2951 8.8892-5.6 0.18092 2.7657 0.27509 4.3541-0.20716 5.8148-0.1612-2.1218-3.8118-3.3405-8.682-0.21477z" fill-opacity=".58824" style="paint-order:normal"/>
    <path d="m190.29 198.1c-0.34838-6.6433 9e-3 -19.953 0.87284-19.888 0.46107 0.0343 1.4489 12.989 1.8605 19.542 0.48383 7.7026 1.4966 23.01 0.71198 23.179-0.78771 0.17028-3.0366-15.038-3.4453-22.833z" fill-opacity=".098039" style="paint-order:normal"/>
    <path d="m203.67 166.45c-0.8098 4.1475-2.2802 18.88-2.0746 29.154 0.13985 6.9907 1.9688 24.335 4.3428 34.109-0.27723-7.2049 0.12349-42.772-0.29927-49.99-0.32472-5.5446-1.3443-9.5473-1.9689-13.274z" fill-opacity=".19608" style="paint-order:normal"/>
    <path d="m203.6 167.08c0.0439 5.1802-0.27067 8.2268-0.10631 12.337 0.27915 6.9837 1.586 18.339 1.9129 25.571-0.27723-7.2049 0.59212-18.486 0.10973-25.302-0.30396-4.2946-1.7382-7.2633-1.9163-12.606z" style="paint-order:normal"/>
    <path d="m62.307 156.16c5.7767-3.2583 8.9122-0.15305 9.5341-4.4134-0.17538 2.766-0.28576 4.3534-0.95142 5.7402 0.11234-2.125-3.3517-3.8019-8.5827-1.3268z" fill-opacity=".58824" style="paint-order:normal"/>
    <path d="m48.528 169.73s-0.65774 10.962-0.83466 16.222c-0.19838 5.8976-1.8826 37.226-1.8826 37.226-0.79814-3.5103 1.7887-59.245 2.894-67.767z" fill-opacity=".58824" style="paint-order:normal"/>
    <path d="m49.924 193.25c0.50676-6.6331 2.5686-19.787 3.4171-19.612 0.45286 0.0932-0.22942 13.068-0.66188 19.619-0.50832 7.701-1.4677 23.011-2.2675 23.079-0.80305 0.0678-1.0823-15.303-0.48763-23.086z" fill-opacity=".098039" style="paint-order:normal"/>
    <path d="m67.098 162.93c-1.3352 4.0093-4.6835 18.432-5.7976 28.647-0.75813 6.9508-1.1693 24.386-0.06896 34.385 0.64937-7.181 5.6096-42.403 6.1163-49.615 0.38927-5.5404-0.10837-9.6409-0.24977-13.417z" fill-opacity=".19608" style="paint-order:normal"/>
    <path d="m66.942 163.54c-0.62102 5.143-1.3238 8.1241-1.6882 12.222-0.61909 6.9618-0.77976 18.391-1.3833 25.605 0.64937-7.181 2.9587-18.257 3.3548-25.079 0.2495-4.2981-0.79208-7.4263-0.28329-12.748z" style="paint-order:normal"/>
    <g fill-opacity=".58824">
     <path d="m185.45 165.54s0.92645 10.943 1.5082 16.173c0.65228 5.8647 3.4935 37.11 3.4935 37.11-1.2949-3.3589-6.7547-58.886-6.8871-67.478z" style="paint-order:normal"/>
     <path d="m198.35 60.371c-0.85348-2.4098-6.5981-14.597-9.9866-16.433-3.0796-1.6686-10.608-5.9461-16.692-9.5679 0 0 16.106 5.3897 19.929 10.244 4.1577 5.2802 6.7505 12.142 6.7505 15.757z" style="paint-order:normal"/>
     <path d="m145.9 24.673 27.434 10.45c-3.2385 0.04981-10.574-3.2222-14.76-4.9523-2.9245-1.2088-12.354-3.9188-12.675-5.498z" style="paint-order:normal"/>
    </g>
    <path d="m151.98 31.804c0.61583-1.4124 31.773 10.903 31.773 10.903s-32.969-8.1602-31.773-10.903z" fill-opacity=".19608" style="paint-order:normal"/>
    <path d="m152.47 31.919c0.31232-0.59435 23.47 8.3159 23.47 8.3159s-24.533-6.3018-23.47-8.3159z" style="paint-order:normal"/>
    <path d="m141.18 29.386c-1.3362 0.70244-3.7399 1.8268-5.6468 2.6383 0.84597-0.30883 4.0756-1.4877 5.8261-2.2438 0.14978-0.06469-0.14454-0.26607-0.1793-0.39449z" fill-opacity=".58824" style="paint-order:normal"/>
    <path d="m144.74 19.756s0.0106-2.1352-0.16224-2.9554c-0.13364-0.63423-0.51862-2.4133-0.51862-2.4133l-0.55511 0.59155z" fill-opacity=".58824" style="paint-order:normal"/>
    <path d="m107.75 26.312c4.2764 2.424 8.5022 4.3274 8.8316 3.8503 0.15979-0.2314-5.9312-3.0285-8.37-4.6918z" fill-opacity=".098039" style="paint-order:normal"/>
    <path d="m141.2 18.713c-2.008 0.2006 0.19767 5.6875 0.77994 9.527-0.0972-3.9083 0.86721-9.6916-0.77994-9.527z" fill-opacity=".19608" style="paint-order:normal"/>
    <path d="m141.18 18.748c-1.4213 0.18533 0.41113 4.8091 0.73055 8.8261-0.26-3.9832 0.37885-8.9708-0.73055-8.8261z" style="paint-order:normal"/>
    <path d="m110.54 14.835c-0.0229-0.6738-0.59328 5.6632-4.2669 9.8946-0.43857 0.50516 2.4812-2.2152 2.4812-2.2152 1.7246-3.1208 1.4351-4.8576 2.0077-5.8839z" fill-opacity=".58824" style="paint-order:normal"/>
    <path d="m143.67 15.412c0.0229-0.6738 0.59328 5.6632 4.2669 9.8946 0.43857 0.50516-2.4812-2.2152-2.4812-2.2152-1.7246-3.1208-1.4351-4.8576-2.0077-5.8839z" fill-opacity=".58824" style="paint-order:normal"/>
    <path d="m67.505 47.268c2.6872 1.254 8.7695-0.0485 12.928-2.003 3.2511-1.5281 2.0995-3.4843 4.4176-5.261 3.3162-2.5417 12.876-5.8913 12.78-7.1129-0.13265-1.6975-5.3729-0.51235-17.127 3.8347-4.4179 1.6339-9.5105 3.7416-12.04 6.005-1.9508 1.7458-2.6142 3.7649-0.95922 4.5372z" fill-opacity=".098039" style="paint-order:normal"/>
    <g fill-opacity=".19608">
     <path d="m74.59 40.61c2.2893-0.38673-0.11139 1.3219-1.0238 1.5572-1.5683 0.40442 0.0469-1.3922 1.0238-1.5572z" style="paint-order:normal"/>
     <path d="m78.728 41.464c0.4617 0.27454-2.2163 1.672-2.7183 1.2754-0.63336-0.50035 2.3502-1.4944 2.7183-1.2754z" style="paint-order:normal"/>
     <path d="m86.961 36.504c-0.12578-0.23336 1.9019-1.0116 2.0674-0.77423 0.1509 0.2183-1.9461 0.99916-2.0674 0.77423z" style="paint-order:normal"/>
    </g>
    <path d="m89.517 35.669c0.58645 0.49952 4.9179-1.3929 4.5462-1.8149-0.39827-0.45214-5.095 1.3474-4.5462 1.8149z" style="paint-order:normal"/>
    <path d="m75.592 40.904c-0.98588-0.74402 5.4313-3.6411 6.3359-2.917 1.1856 0.94889-4.8476 4.0403-6.3359 2.917z" style="paint-order:normal"/>
    <path d="m95.626 35.679c1.8558-1.1869 4.6477-0.75531 2.4226 0.59932-1.2546 0.7638-3.8824 0.33424-2.4226-0.59932z" fill-opacity=".19608" style="paint-order:normal"/>
    <path d="m52.651 90.044c1.1367-14.453 7.213-42.85 10.298-42.255 1.6468 0.31766 0.54057 28.664-0.3361 42.956-1.0303 16.799-2.8938 50.211-5.7786 50.161-2.8963-0.0501-5.5173-33.903-4.1834-50.861z" fill-opacity=".098039" style="paint-order:normal"/>
    <path d="m179.55 117.55c-1.0775-12.789 0.16253-38.467 2.9428-38.389 1.4841 0.04159 4.5786 24.963 5.8602 37.574 1.5066 14.823 4.6653 44.278 2.1379 44.648-2.5373 0.37115-9.6767-28.827-10.941-43.833z" fill-opacity=".098039" style="paint-order:normal"/>
   </g>
   <g fill="none" stroke="#000" stroke-width="1px">
    <path d="m127.44 7.3125c-3.7766 0.010519-7.51 0.72524-11.25 1.25-0.70904 0.099487-1.4192 0.19223-2.125 0.3125-1.0181 0.17348-2.0526 0.41504-2.9115 0.9884-0.42948 0.28668-0.80873 0.65554-1.075 1.098-0.26621 0.44245-0.41572 0.96045-0.38854 1.4761 0.027 0.51224 0.22529 1.0043 0.5 1.4375 0.38581 0.60839 0.92152 1.1128 1.5171 1.5181s1.2512 0.71508 1.9204 0.98191c2.094 0.83498 4.3287 1.2587 6.5625 1.5625 6.604 0.89805 13.423 0.76943 19.812-1.125 0.91253-0.27054 1.8213-0.57937 2.6476-1.0516 0.82638-0.47223 1.5722-1.1194 2.0399-1.9484 0.19837-0.35167 0.3457-0.73649 0.39195-1.1376 0.0463-0.4011-0.0128-0.81957-0.20445-1.1749-0.1696-0.31436-0.43589-0.56867-0.73277-0.76728s-0.62509-0.34516-0.95473-0.48272c-2.2011-0.9185-4.535-1.4765-6.875-1.9375-2.9257-0.57642-5.893-1.0083-8.875-1z"/>
    <path d="m125.44 7.3125c-0.0666 0.49704-0.0666 1.003 0 1.5 0.10668 0.79637 0.38576 1.5692 0.8125 2.25"/>
    <path d="m129.12 7.5c0.14416 0.6793 0.12253 1.3932-0.0625 2.0625-0.14989 0.5422-0.40617 1.0548-0.75 1.5"/>
    <path d="m126.25 11.063h2.0625"/>
    <path d="m126.25 11.063-0.25 7.1875"/>
    <path d="m128.31 11.063 0.3125 7.25"/>
    <path d="m109.44 11.75c0.45827 1.8985 0.50123 3.8961 0.125 5.8125-0.47798 2.4347-1.6375 4.732-3.3125 6.5625"/>
    <path d="m145.12 12.375c0.10038 1.6436 0.14208 3.2909 0.125 4.9375-0.0137 1.3255-0.0605 2.6855 0.375 3.9375 0.44744 1.2864 1.4094 2.3858 2.625 3"/>
    <path d="m106.25 24.125c0.5523 1.3367 1.4147 2.544 2.5 3.5 1.9329 1.7026 4.4602 2.5444 6.9375 3.25 4.0806 1.1623 8.2618 2.0738 12.502 2.2097 4.2407 0.13586 8.5618-0.53165 12.373-2.3972 3.0314-1.484 5.6942-3.7138 7.6875-6.4375"/>
    <path d="m106.42 24.555c-3.5847 1.7966-7.2421 3.4484-10.96 4.9497-9.3349 3.7695-19.113 6.6208-27.798 11.711-0.50796 0.29773-1.0118 0.60292-1.5026 0.92808-4.3904 2.9084-7.6676 7.4602-9.0156 12.551-0.4646 1.7547-0.70624 3.5591-1.0165 5.3475-0.1126 0.64912-0.23434 1.2966-0.35355 1.9445-2.979 16.191-4.3752 32.63-5.4801 49.056-1.0536 15.662-1.8461 31.341-2.5633 47.023-1.3618 29.776-2.4519 59.565-3.2704 89.361"/>
    <path d="m44.592 247.23c4.0828 0.46785 8.2089 0.55675 12.308 0.26516 1.8342-0.13047 3.663-0.33695 5.4801-0.61872"/>
    <path d="m62.38 246.87c1.0175-12.268 2.2331-24.519 3.646-36.747 0.95345-8.2518 1.9968-16.493 2.9168-24.749 1.3514-12.127 2.4366-24.281 3.7123-36.416 1.4886-14.16 3.2366-28.292 4.9497-42.426 0.53058-4.3777 1.0588-8.7616 1.9445-13.081 0.31011-1.5124 0.66386-3.0158 1.0607-4.5078"/>
    <path d="m73.539 62.341c-0.59379 1.2291-1.0118 2.5429-1.2374 3.8891-0.70737 4.2207 0.49422 8.542 2.2097 12.463 1.5981 3.6525 3.652 7.1054 6.0988 10.253"/>
    <path d="m65.673 42.631c1.1553 4.2183 2.6036 8.3563 4.331 12.374 1.0725 2.4946 2.2525 4.9431 3.5355 7.3362"/>
    <path d="m73.539 62.341c5.4943-1.6323 10.975-3.3118 16.44-5.0381 4.2424-1.34 8.4818-2.7099 12.816-3.7123 4.6768-1.0816 9.4463-1.7307 14.231-2.1213 21.802-1.7802 44.027 1.8834 64.104 10.567"/>
    <path transform="matrix(-1 0 0 1 254.67 -.30511)" d="m109.44 11.75c0.45827 1.8985 0.50123 3.8961 0.125 5.8125-0.47798 2.4347-1.6375 4.732-3.3125 6.5625"/>
    <path transform="matrix(-1 0 0 1 254.67 -.30511)" d="m106.42 24.555c-3.5847 1.7966-7.2421 3.4484-10.96 4.9497-9.3349 3.7695-19.113 6.6208-27.798 11.711-0.50796 0.29773-1.0118 0.60292-1.5026 0.92808-4.3904 2.9084-7.6676 7.4602-9.0156 12.551-0.4646 1.7547-0.70624 3.5591-1.0165 5.3475-0.1126 0.64912-0.23434 1.2966-0.35355 1.9445-2.979 16.191-4.3752 32.63-5.4801 49.056-1.0536 15.662-1.8461 31.341-2.5633 47.023-1.3618 29.776-2.4519 59.565-3.2704 89.361"/>
    <path transform="matrix(-1 0 0 1 254.67 -.30511)" d="m44.592 247.23c4.0828 0.46785 8.2089 0.55675 12.308 0.26516 1.8342-0.13047 3.663-0.33695 5.4801-0.61872"/>
    <path transform="matrix(-1 0 0 1 254.67 -.30511)" d="m62.38 246.87c1.0175-12.268 2.2331-24.519 3.646-36.747 0.95345-8.2518 1.9968-16.493 2.9168-24.749 1.3514-12.127 2.4366-24.281 3.7123-36.416 1.4886-14.16 3.2366-28.292 4.9497-42.426 0.53058-4.3777 1.0588-8.7616 1.9445-13.081 0.31011-1.5124 0.66386-3.0158 1.0607-4.5078"/>
    <path transform="matrix(-1 0 0 1 254.67 -.30511)" d="m73.539 62.341c-0.59379 1.2291-1.0118 2.5429-1.2374 3.8891-0.70737 4.2207 0.49422 8.542 2.2097 12.463 1.5981 3.6525 3.652 7.1054 6.0988 10.253"/>
    <path transform="matrix(-1 0 0 1 254.67 -.30511)" d="m65.673 42.631c1.1553 4.2183 2.6036 8.3563 4.331 12.374 1.0725 2.4946 2.2525 4.9431 3.5355 7.3362"/>
    <path d="m80.61 88.946c3.1482-0.35987 6.2991-0.69606 9.4523-1.0085 11.724-1.1617 23.48-1.9955 35.25-2.5"/>
    <path d="m125.31 85.438c0.42876-0.11116 0.80343-0.41558 1-0.8125 0.11774-0.23775 0.17268-0.5026 0.19294-0.76713 0.0202-0.26453 7e-3 -0.53035-5e-3 -0.79537-0.0234-0.49989-0.0435-0.99993-0.0625-1.5-0.38541-10.121-0.3437-20.258 0.125-30.375"/>
    <path transform="matrix(-1 0 0 1 256.12 .20707)" d="m125.31 85.438c0.42876-0.11116 0.80343-0.41558 1-0.8125 0.11774-0.23775 0.17268-0.5026 0.19294-0.76713 0.0202-0.26453 7e-3 -0.53035-5e-3 -0.79537-0.0234-0.49989-0.0435-0.99993-0.0625-1.5-0.38541-10.121-0.3437-20.258 0.125-30.375"/>
    <path d="m126.44 85c0.1248-0.0086 0.2502-0.0086 0.375 0 0.42058 0.02894 0.8297 0.15474 1.25 0.1875 0.61 0.04755 1.2341-0.10849 1.75-0.4375"/>
    <path d="m130.81 85.645c8.5712 0.29725 17.136 0.77003 25.688 1.4179 5.8601 0.44398 11.714 0.97018 17.559 1.5784"/>
    <path d="m121.87 51.313c-0.0813 10.11-0.39387 20.217-0.9375 30.312-0.0404 0.75007-0.0821 1.5001-0.125 2.25"/>
    <path d="m79.687 86.938c7.0643-0.93437 14.15-1.7055 21.25-2.3125 5.0734-0.43376 10.158-0.78391 15.25-0.8125 1.5419-0.0087 3.0839 0.01218 4.625 0.0625"/>
    <path d="m133.62 83.5c10.71 0.23834 21.41 0.92665 32.062 2.0625 3.1503 0.33592 6.2965 0.71096 9.4375 1.125"/>
    <path d="m133 51.625 0.625 31.875"/>
   </g>
  </g>
 </g>
</svg>
