<svg cursor="default" enable-background="new" version="1.1" viewBox="0 0 256 256" xmlns="http://www.w3.org/2000/svg" xmlns:xlink="http://www.w3.org/1999/xlink">
 <defs>
  <linearGradient id="innoGrad1">
   <stop stop-color="#f55" offset="0"/>
   <stop stop-color="#ff2a2a" offset="1"/>
  </linearGradient>
  <linearGradient id="linearGradient1922" x1="127.6" x2="219.21" y1="90.876" y2="90.876" gradientUnits="userSpaceOnUse" xlink:href="#innoGrad1"/>
  <linearGradient id="linearGradient1930" x1="39.72" x2="198.43" y1="129.76" y2="129.76" gradientUnits="userSpaceOnUse" xlink:href="#innoGrad1"/>
  <linearGradient id="linearGradient1938" x1="56.321" x2="125.44" y1="208.19" y2="208.19" gradientUnits="userSpaceOnUse" xlink:href="#innoGrad1"/>
 </defs>
 <g display="none" fill="#ffd5d5">
  <path d="m125.8-66.918c0.19113-0.13799 0.36408-0.30229 0.53601-0.46375 0.14221-0.10162 0.26069-0.22783 0.40714-0.32395 0.16197-0.1145 0.35231-0.17689 0.51665-0.28607 0.19959-0.09748 0.38503-0.22094 0.58248-0.32348 0.16429-0.1074 0.34952-0.17162 0.51877-0.26764 0.14546-0.05932 0.27793-0.1424 0.42003-0.20938 0.12023-0.08121 0.24331-0.16517 0.378-0.22069 0.11434-0.06734 0.23138-0.13631 0.3565-0.18236 0.11722-0.09046 0.2551-0.14972 0.3702-0.24206 0.12005-0.09046 0.26297-0.14524 0.38556-0.22991 0.0832-0.03548 0.15839-0.08157 0.23866-0.12261l-0.11422 1.0484c-0.0771 0.04202-0.15789 0.07632-0.23389 0.12041-0.12825 0.06313-0.2543 0.13186-0.37378 0.21041-0.13283 0.08533-0.25518 0.18803-0.3953 0.26009-0.11865 0.05795-0.23519 0.12005-0.35306 0.17953-0.12646 0.065-0.24907 0.13719-0.37221 0.20819-0.1363 0.07532-0.27366 0.14348-0.42109 0.19516-0.17679 0.07013-0.34407 0.15971-0.51427 0.24448-0.19875 0.0963-0.38624 0.21057-0.57564 0.32339-0.17845 0.09301-0.3488 0.19995-0.51187 0.31788-0.13309 0.10018-0.25447 0.21623-0.39786 0.30275-0.19966 0.13825-0.38689 0.29452-0.53694 0.48733l0.0901-1.0262z"/>
  <path d="m120.85-66.835c0.0444-0.58608 0.20712-1.1269 0.35945-1.6828 0.0426-0.17144 0.1709-0.29008 0.25244-0.43939 0.0908-0.12969 0.22965-0.20993 0.36355-0.28833 0.11481-0.09222 0.21597-0.20065 0.34376-0.27466 0.11691-0.08744 0.24277-0.16205 0.3659-0.24035 0.12401-0.06714 0.24427-0.13918 0.3693-0.20488 0.12704-0.04094 0.21978-0.13815 0.33958-0.19322 0.13016-0.05459 0.26091-0.10723 0.39545-0.15359 0.14758-0.07245 0.30124-0.12868 0.44917-0.20449 0.17264-0.07193 0.33051-0.17437 0.50194-0.24755 0.12905-0.04661 0.24417-0.11976 0.37097-0.17224l-0.12165 1.0114c-0.12107 0.04466-0.24065 0.09361-0.35806 0.1472-0.16553 0.09957-0.33096 0.19871-0.50549 0.28211-0.15026 0.07766-0.31182 0.12952-0.46037 0.21079-0.12918 0.05722-0.25712 0.11707-0.38583 0.17521-0.11047 0.06853-0.21729 0.14262-0.33882 0.1916-0.11929 0.06619-0.24306 0.12408-0.36002 0.19469-0.12268 0.08035-0.24608 0.15912-0.36658 0.24273-0.11993 0.08554-0.2223 0.19376-0.34622 0.27334-0.12488 0.07823-0.24168 0.15534-0.31459 0.28895-0.0894 0.12685-0.17877 0.2506-0.22355 0.40223-0.12757 0.38943-0.33775 1.4102-1e-3 -0.2908 0 0-0.32924 0.97202-0.32924 0.97202z"/>
  <path d="m116.69-60.997c-8e-3 -0.27892-0.0422-0.55612-0.0636-0.83416-0.0144-0.19126-0.0178-0.38306-0.0196-0.57478-3e-3 -0.19291 3e-3 -0.38573 3e-3 -0.57862-8e-3 -0.19185 1e-4 -0.38068 0.0301-0.57012 0.0312-0.17479 0.0437-0.35181 0.0508-0.52895 5e-3 -0.17638 5e-3 -0.35287 5e-3 -0.52932-0.0259-0.5256 0.0959-0.96293 0.19265-1.5112 5e-3 -0.02456 7e-3 -0.04987 0.0151-0.07367 0.0151-0.04588 0.042-0.08718 0.0589-0.13241 0.0252-0.06716 0.0376-0.13421 0.0653-0.20071 0.0986-0.12572 0.1407-0.27044 0.16332-0.4256-0.56284 3.1388 0.46621-2.5482-0.0863 0.55712 0.25734-0.39361 0.0866-1.0068 0.31962-1.4368 0.0806-0.16312 0.12873-0.34032 0.20621-0.50422 0.0611-0.14307 0.0859-0.29579 0.17526-0.42547 0.0814-0.11955 0.14631-0.24728 0.21101-0.37658 0.0908-0.10021 0.18811-0.19153 0.26557-0.30395 0.0752-0.06626 0.0866-0.17006 0.14547-0.2469 0.0299-0.03903 0.0664-0.07265 0.0969-0.11123 0.10869-0.07863 0.17624-0.18992 0.26088-0.28912 0.0619-0.11825 0.17487-0.1924 0.2583-0.29231 0.0973-0.11774 0.22929-0.19974 0.32915-0.3144 0.10773-0.11992 0.25125-0.19223 0.37742-0.28705 0.12143-0.07475 0.24236-0.15575 0.3517-0.24773 0.12999-0.07679 0.25194-0.16251 0.37874-0.24426 0.14604-0.08205 0.26276-0.2007 0.39206-0.30424 0.0893-0.06275 0.19297-0.08278 0.29835-0.09911l-0.14198 1.0279c-0.0899 0.02274-0.17662 0.05023-0.25004 0.10976-0.13004 0.1024-0.26926 0.19199-0.39861 0.2952-0.12313 0.08901-0.254 0.16632-0.3758 0.25725-0.12169 0.08038-0.23167 0.17662-0.35817 0.24985-0.12738 0.07281-0.24883 0.15756-0.35054 0.2642-0.11 0.11066-0.22164 0.21976-0.32804 0.33395-0.0909 0.09692-0.1768 0.19793-0.25361 0.30653-0.0767 0.104-0.17409 0.18662-0.26148 0.28128-0.0947 0.11298-0.14905 0.24957-0.24035 0.36545-0.0832 0.09657-0.17878 0.18364-0.24671 0.29129-0.072 0.12893-0.13739 0.26141-0.21607 0.38664-0.0614 0.1304-0.0975 0.27023-0.16246 0.39914-0.0692 0.16698-0.13273 0.33632-0.20505 0.50204-0.13125 0.38871-0.25925 1.2156 0.057-0.56814-0.0629 0.36254-0.12473 0.72529-0.18882 1.0876-8e-3 0.04401-0.0245 0.10434-0.0357 0.14775-6e-3 0.0232-0.0216 0.0933-0.0177 0.06966 4e-3 -0.02311 0.46746-2.7256-0.0262 0.1518-0.0374 0.15385-0.10712 0.28896-0.17821 0.42928-0.0398 0.13792-0.10051 0.26883-0.12475 0.41076 0.0541-0.3123 0.10996-0.62429 0.16224-0.93689 5e-3 -0.02782-0.0162 0.05434-0.0194 0.08236-0.0131 0.11632 0.0103 0.23678 4e-4 0.35345 2.2e-4 0.1768 8.6e-4 0.35361-2e-3 0.53039-4e-3 0.18005-0.011 0.36049-0.0401 0.53857-0.0324 0.19299-0.0665 0.38219-0.0503 0.57937-1e-5 0.18722 5e-3 0.37436 2e-3 0.56158-8.3e-4 0.20509-2e-3 0.41022 2e-3 0.61529 7e-3 0.26144 0.0104 0.52738 0.0721 0.78264l-0.30497 0.9799z"/>
  <path d="m108.85-91.646c0.23117-0.03403 0.45037-0.15603 0.64236-0.28693 0.15619-0.108 0.32335-0.19766 0.47698-0.30751 0.12875-0.09908 0.26113-0.18233 0.41072-0.24778 0.1327-0.08249 0.26417-0.16436 0.39515-0.24896 0.14616-0.08444 0.28946-0.17053 0.43193-0.26043 0.11886-0.10848 0.25624-0.19514 0.39074-0.28286 0.12926-0.11898 0.26959-0.22626 0.41095-0.33005 0.13551-0.09077 0.26887-0.18348 0.40245-0.2777 0.13575-0.11526 0.25915-0.24402 0.40211-0.35183 0.0913-0.09669 0.20725-0.16717 0.27054-0.28672 0.0964-0.10344 0.18158-0.21481 0.27209-0.32348 0.11927-0.11582 0.22739-0.24393 0.35215-0.35383 0.0802-0.11362 0.1979-0.18135 0.30135-0.2681 0.019-0.01151 0.0371-0.02451 0.057-0.03452 0.0593-0.02996 0.0675-0.0182 0.11552-0.06238 0.0501-0.04611 0.0814-0.08415 0.14206-0.12033 0.0888-0.09243 0.20435-0.14792 0.30326-0.22613 0.0932-0.0496 0.16266-0.12989 0.24579-0.19321l-0.0936 1.0544c-0.0796 0.07006-0.16361 0.13468-0.25317 0.19167-0.10721 0.06783-0.20161 0.15166-0.30424 0.22607-0.0991 0.08048-0.19922 0.15309-0.30975 0.21748-0.10682 0.07396-0.1961 0.16676-0.29148 0.25459-0.11826 0.10895-0.24209 0.21519-0.33366 0.34868-0.0864 0.11679-0.18519 0.22412-0.26767 0.34407-0.0884 0.10155-0.19549 0.18451-0.30231 0.26594-0.14015 0.10439-0.27227 0.21622-0.40044 0.3351-0.13038 0.10365-0.27151 0.19046-0.40541 0.28913-0.14034 0.09983-0.27729 0.20303-0.41076 0.31196-0.13303 0.09964-0.25716 0.21104-0.39867 0.2988-0.14533 0.08621-0.29466 0.16621-0.43054 0.26741-0.13305 0.08447-0.26748 0.1677-0.40673 0.24145-0.1363 0.0729-0.26356 0.15989-0.39675 0.23808-0.15964 0.09403-0.31528 0.19501-0.47781 0.28409-0.21554 0.11549-0.46179 0.17044-0.66026 0.31988l0.12017-1.0261z"/>
 </g>
 <g>
  <g>
   <g stroke-width="0">
    <path d="m56.659 13.361c-6.1682 0.08727-12.745 2.9513-15.581 8.7129-2.1857 3.7816-1.0671 8.3066-1.1068 12.429 0.28296 10.121 1.5017 20.182 3.2272 30.152 1.4478 8.3482 2.5543 16.753 4.0685 25.086 1.6772 6.9075 5.9435 12.816 10.05 18.482 7.5324 9.7673 15.942 18.814 23.955 28.183 10.152 11.791 20.686 23.241 31.044 34.848 8.2264 9.5926 15.477 19.973 22.698 30.328 5.6167 8.1896 10.66 16.785 14.209 26.076 1.7515 3.8659 3.3825 9.5686 6.428 12.962 4.0642-2.8621 1.3897-6.5442 0.62028-8.7029-1.4668-4.0527-3.1947-8.2082-3.1952-12.583-0.30183-2.2122 3.3955-3.1861 7.3626 5.056 3.7848 6.7719 7.099 13.893 11.876 20.047 0.85714 1.1783 2.8562 2.7226 4.1279 1.2222 2.7924-2.2762-8.3057-20.053-11.656-27.83 2.8294-1.8042 8.136 7.4925 10.643 9.3772 4.2897 4.2978 7.5026 9.6308 12.268 13.448 1.0916 1.1468 3.5174 1.1269 3.7959-0.72217 0.26041-3.2545-2.1306-5.9403-3.8247-8.4824-3.547-4.5475-6.8095-9.3098-10.363-13.849-1.8833-2.4007-4.3241-4.4617-5.6997-7.2031 5.2793-1.8065 14.069 8.3044 18.024 10.962 2.3378 1.4526 4.8314 3.4153 7.7257 3.2926 1.6287-0.34574 1.1489-2.4882 0.2876-3.3765-4.0218-4.8721-9.2244-8.5914-13.952-12.734-11.162-11.797-18.449-15.023-12.892-14.831 3.3612 1.4336 7.3998 2.0301 10.848 0.58307 1.3757-0.95492 3.1601-1.8869 3.7998-3.501-0.91462-1.0957-2.6744-1.1419-3.9647-1.6159-3.163-0.45441-6.2158-1.3449-9.1113-2.7222-9.632-4.2598-18.884-9.5708-26.881-16.467-2.6292-2.6434-3.974-6.2847-6.7508-8.8208-4.7622-4.8059-9.9368-9.2322-14.145-14.556-12.81-15.289-21.98-33.165-33.348-49.483-3.5377-5.174-7.9169-9.6954-11.609-14.737-3.197-4.4572-3.072-10.201-3.7567-15.443-0.44853-7.728-0.43026-15.522-0.012215-23.249 0.63086-6.5298 2.8337-15.237 6.1557-21.045-15.165-11.409-22.236-9.2186-25.365-9.2934z" fill="url(#linearGradient1930)"/>
    <path d="m108.73 168.96c-1.8139 1.0159-3.0097 2.9617-5.1094 3.5566-4.2668 2.3479-8.2415 5.219-12.613 7.3859-7.7575 4.167-15.467 8.4248-23.306 12.437-1.8417 1.198-4.2131 2.0883-5.3381 4.076 0.08783 1.6506 2.2784 1.8909 3.5532 2.0374 3.8157 0.47368 7.5467-0.86246 10.758-2.8314 1.8849-1.2336 4.2366-1.5245 6.0498-2.8423 12.962-17.252-0.56749 1.24-5.1685 6.9915-6.3319 7.4527-12.962 14.671-18.893 22.452-1.2706 1.8907-2.9474 4.2653-2.1245 6.6411 0.99996 1.3106 2.9497 0.21777 3.9263-0.59961 31.38-29.116 11.46-12.164-1.873 8.9331-1.0985 1.3816-1.7101 3.9037 0.16895 4.9312 1.5847 0.63728 3.0753-0.92036 4.2442-1.7961 4.8948-5.0202 9.3207-10.489 13.997-15.714 2.2696-2.4819 4.3232-5.2029 6.6735-7.5864 0.82978-0.2604 1.7322 0.9339 1.043 1.6343-4.757 8.4496-10.699 16.289-14.61 25.217-0.61534 1.1716-0.41324 2.6939 0.8374 3.3501 1.0053 0.69636 1.9274-0.82603 2.7275-1.2515 5.2185-4.3551 7.9193-10.802 12.034-16.069 2.454-3.2114 4.6782-6.6178 7.2005-9.7643 0.95066-0.86436 2.3466 0.43295 1.896 1.5493-1.3312 4.1036-3.6453 7.8444-5.3771 11.795-1.1635 2.8885-3.0014 5.7951-2.8368 9.009 0.07299 1.132 1.534 2.0032 2.3506 0.95459 5.3013-6.8012 7.8555-15.482 14.047-21.622 2.724-2.8493 3.8505-6.7555 6.4058-9.7246 5.716-7.2239 10.261-15.299 16.044-22.46-0.86082-1.948-2.5292-3.5506-3.7007-5.3508-3.9394-5.1577-7.7407-10.497-12.396-15.043-0.17968-0.13014-0.37339-0.30854-0.61182-0.29736z" fill="url(#linearGradient1938)"/>
    <path d="m196.26 13.069c-6.936 0.05531-14.212 3.5607-17.222 10.062-1.8698 3.3829-0.79654 7.3573-0.93876 11.017 0.10558 14.39 0.13022 28.787-0.26632 43.172-0.45592 2.8051 0.2611 1.5598-2.9512 5.9326-17.005 22.02-30.259 45.894-47.28 65.437 4.5191 6.5503 12.503 11.361 15.771 17.355 0.72578 0.79833 1.0658 2.4334 2.2267 2.6376 17.432-21.754 38.87-43.525 54.47-62.922 3.7071-4.8466 7.51-10.031 8.4197-16.229 3.9349-18.672 7.285-37.581 7.7144-56.699 0.13366-3.4812 0.58305-7.2437 3.0087-9.9419 0.0899-1.1201-1.806-1.6192-2.5652-2.4374-5.9526-4.1581-12.993-7.4281-20.388-7.3843z" fill="url(#linearGradient1922)"/>
   </g>
   <g fill="#fff">
    <g fill-opacity=".58824">
     <path d="m181 76.555c2.0764 1.4958 2.5124 1.8497 8.332 3.0609-6.2311-0.28579-8.7087-2.782-11.953 0.50937 1.0022-1.9409 2.266-3.1819 3.621-3.5703z" style="paint-order:normal"/>
     <path d="m75.999 76.08c-1.7946 0.7334-2.1789 0.91779-6.6484 0.69661 4.5954 1.0089 6.8705-0.40941 8.6166 2.7431-0.36569-1.6796-1.0536-2.8763-1.9682-3.4397z" style="paint-order:normal"/>
     <path d="m76.775 77.962c-1.7946 0.7334-2.1789 0.91778-6.6484 0.69661 4.5954 1.0089 6.8705-0.40941 8.6166 2.7431-0.36569-1.6796-1.0536-2.8763-1.9682-3.4397z" style="paint-order:normal"/>
     <path d="m39.988 24.783c1.645-0.20731 2.0074-0.22676 5.3412-2.6121-3.1365 3.1659-5.4039 2.9827-5.5638 6.7132-0.3464-1.7117-0.26658-3.14 0.22254-4.1011z" style="paint-order:normal"/>
     <path d="m106.69 172.35c0.97844 2.4321 1.1621 2.9772 5.5371 7.2128-5.2379-3.6598-6.0159-7.1776-10.627-6.1049 1.9306-1.1314 3.7043-1.5138 5.09-1.1079z" style="paint-order:normal"/>
    </g>
    <path d="m132.9 178.67c-2.3939-7.845-14.446-33.127-25.956-48.494-7.8318-10.456-31.002-33.674-47.449-44.29 8.4075 10.532 45.448 65.777 54.237 76.061 6.7512 7.9002 13.606 12.16 19.169 16.723z" fill-opacity=".19608" style="paint-order:normal"/>
    <path d="m132.41 177.57c-5.6529-7.8582-8.1186-13.106-12.931-19.103-8.176-10.189-23.622-25.189-32.183-35.671 8.4076 10.532 18.283 29.419 26.793 38.978 5.3615 6.0228 12.156 7.9356 18.321 15.796z" style="paint-order:normal"/>
    <path d="m189.33 79.616c-4.9743 4.076-19.479 18.961-26.823 29.696-4.9972 7.3046-14.06 25.855-16.144 36.698 4.851-7.5669 32.779-44.41 37.312-52.032 3.4823-5.8552 4.229-10.309 5.6548-14.361z" fill-opacity=".19608" style="paint-order:normal"/>
    <path d="m188.68 80.25c-3.8375 5.3956-6.8606 8.4707-9.6141 12.789-4.6783 7.3376-10.366 19.514-15.125 27.123 4.851-7.5669 15.38-19.038 19.473-26.26 2.5792-4.5504 1.6068-8.0493 5.2657-13.652z" style="paint-order:normal"/>
    <path d="m97.886 220.21c-1.4296 1.5987-5.4442 7.2488-7.3125 11.164-1.2713 2.6637-3.3042 9.242-3.4339 12.922 1.2096-2.7426 8.519-16.318 9.6211-19.063 0.84657-2.1083 0.86378-3.6142 1.1253-5.0228z" fill-opacity=".19608" style="paint-order:normal"/>
    <path d="m97.704 220.45c-0.98722 1.9751-1.8254 3.1437-2.5107 4.7083-1.1645 2.6582-2.4128 6.9629-3.59 9.7147 1.2096-2.7426 4.0894-7.0636 5.0672-9.6538 0.61605-1.6319 0.11582-2.7349 1.0335-4.7692z" style="paint-order:normal"/>
    <path d="m77.61 189.55c-1.4422 0.2024-6.0007 1.3727-8.6856 2.5839-1.8269 0.82411-5.7647 3.3444-7.445 5.1958 1.8295-0.89206 11.571-4.728 13.345-5.6682 1.3632-0.72224 2.0322-1.4956 2.7853-2.1115z" fill-opacity=".19608" style="paint-order:normal"/>
    <path d="m77.41 189.6c-1.3777 0.59152-2.3246 0.83015-3.3659 1.3411-1.7691 0.86805-4.3034 2.5532-6.1201 3.4642 1.8295-0.89206 5.217-1.8705 6.8595-2.7851 1.0348-0.57625 1.2589-1.3675 2.6265-2.0202z" style="paint-order:normal"/>
    <path d="m95.302 190.59c-1.1711-0.47256-2.1216 2.5453-1.2429 2.9002 1.0058 0.40619 2.6601-2.3283 1.2429-2.9002z" fill-opacity=".098039" style="paint-order:normal"/>
    <g fill-opacity=".19608">
     <path d="m89.517 190.27c0.69442-0.69442 2.9523-0.3036 3.4287 0.34721 0.50246 0.68643-2.2512 4.3259-3.8193 5.9243-0.33678 0.34329-1.3425 0.088-1.3888-0.39062-0.14704-1.5183 0.96717-5.0686 1.7795-5.8809z" style="paint-order:normal"/>
     <path d="m91.036 187.02c-0.03917 0.36907 1.4525 0.53396 1.5299 0.19531 0.0868-0.37976-1.4815-0.65124-1.5299-0.19531z" style="paint-order:normal"/>
     <path d="m85.46 197.69c-0.20715 0.40664 0.8345 0.76147 0.94397 0.54252 0.27622-0.55241-0.70508-1.0115-0.94397-0.54252z" style="paint-order:normal"/>
    </g>
    <path d="m89.517 190.27c0.69442-0.69442 2.9523-0.3036 3.4287 0.34721 0.50246 0.68643-1.9204 3.5662-2.8224 3.4865-0.75353-0.0667-0.92024-2.797-0.60634-3.8337z" style="paint-order:normal"/>
    <path d="m137.16 170.8c-0.89743 0.1463-0.35589 2.3592 0.31757 2.2496 0.77086-0.12544 0.7684-2.4266-0.31757-2.2496z" fill-opacity=".098039" style="paint-order:normal"/>
    <g fill-opacity=".19608">
     <path d="m133.48 172.76c0.16826-0.6868 1.7043-1.2892 2.2406-1.0664 0.56562 0.235 0.22912 3.5037-0.13954 5.0733-0.0792 0.3371-0.79364 0.55544-1.0009 0.27805-0.65739-0.87985-1.297-3.4816-1.1001-4.285z" style="paint-order:normal"/>
     <path d="m133.2 170.19c0.11368 0.24183 1.0936-0.21356 1.0148-0.45096-0.0883-0.26621-1.1552 0.15219-1.0148 0.45096z" style="paint-order:normal"/>
     <path d="m133.75 178.84c0.0243 0.32768 0.79806 0.15724 0.78371-0.0184-0.0362-0.44322-0.81171-0.35945-0.78371 0.0184z" style="paint-order:normal"/>
    </g>
    <path d="m133.48 172.76c0.16826-0.6868 1.7043-1.2892 2.2406-1.0664 0.56562 0.235 0.14916 2.9126-0.43592 3.2002-0.48881 0.24029-1.6108-1.3784-1.8046-2.1339z" style="paint-order:normal"/>
    <path d="m62.854 18.328c-0.03722-0.90851-2.2992-0.63726-2.2714 0.0445 0.03175 0.78036 2.3165 1.0549 2.2714-0.0445z" fill-opacity=".098039" style="paint-order:normal"/>
    <g fill-opacity=".19608">
     <path d="m61.345 14.439c0.66155 0.2497 1.0747 1.8471 0.78894 2.3526-0.30138 0.53322-3.5059-0.19426-5.0196-0.74916-0.32511-0.11917-0.45587-0.85472-0.15556-1.0271 0.95258-0.54671 3.6124-0.86846 4.3863-0.57638z" style="paint-order:normal"/>
     <path d="m63.931 14.47c-0.25377 0.08375 0.08038 1.1113 0.32553 1.0617 0.27491-0.05566-0.01203-1.1652-0.32553-1.0617z" style="paint-order:normal"/>
     <path d="m55.277 13.976c-0.32823-0.01533-0.25215 0.77334-0.07603 0.78024 0.44436 0.01742 0.45455-0.76255 0.07603-0.78024z" style="paint-order:normal"/>
    </g>
    <path d="m61.345 14.439c0.66155 0.2497 1.0747 1.8471 0.78894 2.3526-0.30138 0.53322-2.9094-0.20248-3.1245-0.81794-0.17973-0.51417 1.5623-1.4332 2.3356-1.5347z" style="paint-order:normal"/>
    <path d="m201.8 17.874c-0.0372-0.90851-2.2992-0.63726-2.2714 0.0445 0.0317 0.78036 2.3165 1.0549 2.2714-0.0445z" fill-opacity=".098039" style="paint-order:normal"/>
    <g fill-opacity=".19608">
     <path d="m200.29 13.985c0.66155 0.2497 1.0747 1.8471 0.78893 2.3526-0.30138 0.53322-3.5058-0.19426-5.0196-0.74916-0.32511-0.11917-0.45588-0.85472-0.15556-1.0271 0.95258-0.54671 3.6124-0.86846 4.3863-0.57638z" style="paint-order:normal"/>
     <path d="m202.88 14.016c-0.25376 0.08375 0.0804 1.1113 0.32553 1.0617 0.27491-0.05566-0.012-1.1652-0.32553-1.0617z" style="paint-order:normal"/>
     <path d="m194.22 13.522c-0.32823-0.01533-0.25216 0.77334-0.076 0.78024 0.44435 0.01742 0.45455-0.76255 0.076-0.78024z" style="paint-order:normal"/>
    </g>
    <path d="m200.29 13.985c0.66155 0.2497 1.0747 1.8471 0.78893 2.3526-0.30138 0.53322-2.9094-0.20248-3.1245-0.81794-0.17973-0.51417 1.5623-1.4332 2.3356-1.5347z" style="paint-order:normal"/>
    <g fill-opacity=".58824">
     <path d="m210.99 70.728s2.7069-16.92 3.4124-25.982c0.47953-6.1596 1.6908-13.552 1.6908-13.552s0.40124 7.5626-0.31055 13.835c-2.824 24.884-8.284 47.841-8.284 47.841z" style="paint-order:normal"/>
     <path d="m145.6 168.68s27.834-36.195 33.748-43.098c4.0199-4.6915 26.492-28.571 26.492-28.571s-1.6556 5.1425-23.92 29.614c-11.001 12.092-36.321 42.055-36.321 42.055z" style="paint-order:normal"/>
     <path d="m116.49 136.71s-17.866-26.84-23.19-34.207c-3.6187-5.0075-13.671-19.816-13.671-19.816s11.515 13.481 16.157 21.077c8.5246 13.949 20.704 32.946 20.704 32.946z" style="paint-order:normal"/>
    </g>
    <g fill-opacity=".098039">
     <path d="m51.093 68.707c2.499-0.38966 0.02166-19.161-0.17765-28.722-0.16205-7.7733 2.0303-23.783-0.46856-23.335-4.9702 0.89014-8.5284 17.032-8.692 24.963-0.19798 9.5993 4.11 27.91 9.3382 27.095z" style="paint-order:normal"/>
     <path d="m187.39 71.461c2.517-0.24769 1.1055-19.129 1.4472-28.686 0.27789-7.77 3.3723-23.63 0.8521-23.325-5.0126 0.60759-9.4781 16.522-10.09 24.431-0.74061 9.5727 2.5248 28.098 7.7907 27.58z" style="paint-order:normal"/>
     <path d="m150.07 215.14c1.1842-0.88843-5.257-9.9073-7.9885-14.793-2.2209-3.9722-5.4897-12.848-6.6579-11.929-2.3235 1.8264 0.2757 11.146 2.3717 15.289 2.5369 5.0147 9.7973 13.292 12.275 11.433z" style="paint-order:normal"/>
    </g>
    <path d="m146.22 171.65c-2.2413 1.3045-2.7472 1.5591-6.385 6.6636 2.9982-5.9566 5.4917-5.1885 4.0017-9.9613 1.28 1.9234 2.6357 1.7835 2.3833 3.2977z" fill-opacity=".58824" style="paint-order:normal"/>
    <path d="m171.36 197.83s14.614 12.586 17.84 15.149c2.831 2.2489 8.9009 8.9485 8.9009 8.9485s-2.2493-0.80761-13.09-11.169c-5.3566-5.1201-13.651-12.928-13.651-12.928z" fill-opacity=".58824" style="paint-order:normal"/>
    <path d="m158.72 181.06c-0.63923 0.71093 1.262 2.1681 1.7418 1.6347 0.54924-0.61049-0.96826-2.495-1.7418-1.6347z" fill-opacity=".098039" style="paint-order:normal"/>
    <g fill-opacity=".19608">
     <path d="m157 185.09c-0.31439-0.67375 0.54789-2.1791 1.1342-2.3496 0.61839-0.17988 2.4953 2.721 3.2268 4.2502 0.1571 0.32844-0.28476 0.97793-0.63728 0.88707-1.1183-0.28824-3.3559-1.9996-3.7237-2.7877z" style="paint-order:normal"/>
     <path d="m155.08 183.17c0.25244 0.12338 0.75572-0.89525 0.5348-1.038-0.24772-0.16002-0.84667 0.88556-0.5348 1.038z" style="paint-order:normal"/>
     <path d="m161.22 189.9c0.23572 0.25261 0.75769-0.3967 0.63024-0.53124-0.32156-0.33945-0.90207 0.23995-0.63024 0.53124z" style="paint-order:normal"/>
    </g>
    <path d="m157 185.09c-0.31439-0.67375 0.54789-2.1791 1.1342-2.3496 0.61839-0.17988 2.0404 2.2891 1.7503 2.9102-0.24243 0.51886-2.2281-0.069-2.8845-0.56055z" style="paint-order:normal"/>
   </g>
   <g fill="none" stroke="#000" stroke-width="1px">
    <path d="m82.024 22.655c-3.6566-2.7077-7.6435-4.9689-11.844-6.7175-4.3347-1.8045-8.9696-3.0722-13.664-2.9742-4.6943 0.09797-9.4673 1.6652-12.853 4.9188-2.2198 2.1334-3.7808 4.9431-4.4194 7.955"/>
    <path d="m220.09 22.655c-2.7935-2.4307-5.8889-4.5141-9.1924-6.1872-4.4444-2.2509-9.3366-3.7662-14.318-3.7867-4.9818-0.02053-10.059 1.5452-13.789 4.8474-2.5726 2.2774-4.4448 5.3353-5.3033 8.6621"/>
    <path d="m82.024 22.655c-2.128 3.2125-3.6368 6.8335-4.4194 10.607-0.21842 1.0531-0.38076 2.1169-0.53033 3.182-1.9169 13.65-1.7374 27.593 0.53033 41.189"/>
    <path d="m77.605 77.632c0.72147 1.8744 1.6737 3.6599 2.8284 5.3033 1.2759 1.8158 2.79 3.4488 4.2426 5.1265 6.1811 7.1389 11.284 15.134 16.263 23.158 10.293 16.585 20.398 33.717 35.002 46.669 1.6393 1.4539 3.3433 2.8635 4.6846 4.5962 1.7289 2.2334 2.8122 4.9498 4.773 6.9827 0.62394 0.64688 1.3262 1.2125 2.0329 1.7678 9.1959 7.2245 19.525 13.003 30.494 17.059"/>
    <path d="m177.93 188.29c1.5838 0.0248 3.164 0.26337 4.6846 0.70711 1.1945 0.34858 2.352 0.82348 3.4471 1.4142"/>
    <path d="m186.06 190.42c-0.48508 1.1576-1.2494 2.197-2.2097 3.0052-0.99573 0.83795-2.1924 1.4226-3.4471 1.7678-3.1463 0.86562-6.5451 0.22134-9.5459-1.0607-1.1647-0.49759-2.2892-1.0894-3.3588-1.7678"/>
    <path d="m162.99 185.47c1.3222 2.4095 2.8308 4.7168 4.5078 6.8943 2.916 3.7863 6.3285 7.1654 9.8995 10.341 5.9494 5.2912 12.367 10.052 18.12 15.556 1.1567 1.1068 2.3066 2.2718 3.0052 3.7123 0.15351 0.31655 0.2848 0.6471 0.34537 0.99365 0.0606 0.34655 0.0476 0.7115-0.0802 1.0393-0.18382 0.47152-0.59709 0.83288-1.0681 1.018-0.47102 0.18509-0.99468 0.20626-1.4952 0.13107-0.71213-0.10699-1.3815-0.40011-2.0329-0.70711-2.4466-1.153-4.7858-2.5486-6.8943-4.2426-2.3333-1.8748-4.3653-4.098-6.6627-6.0167-2.2974-1.9186-4.9561-3.563-7.9213-3.9712-0.3225-0.0444-0.64705-0.0739-0.97227-0.0884"/>
    <path d="m171.74 210.13c0.55892 0.9238 1.1795 1.8103 1.8562 2.6517 1.5047 1.8709 3.2802 3.5113 4.773 5.3917 1.0523 1.3255 1.9565 2.7607 2.9168 4.1542 1.9697 2.8582 4.177 5.5435 6.2756 8.3085 1.492 1.9659 2.9429 3.9962 3.8891 6.2756 0.2786 0.67115 0.51414 1.3712 0.55982 2.0964 0.0457 0.72524-0.11421 1.4838-0.55982 2.0578-0.43642 0.56218-1.145 0.91114-1.8562 0.88388-0.37479-0.0144-0.74097-0.12754-1.079-0.29009-0.33801-0.16256-0.65015-0.37385-0.95396-0.59379-1.4721-1.0657-2.7754-2.3494-3.9775-3.7123-1.7595-1.9949-3.3104-4.1647-5.0381-6.1872-2.3034-2.6964-4.9134-5.1223-7.1594-7.8666-1.139-1.3917-2.1908-2.8718-3.5355-4.0659-0.89562-0.79527-1.9128-1.4534-3.0052-1.9445"/>
    <path d="m164.84 217.29c1.1313 2.4537 2.2804 4.8992 3.4472 7.3362 2.5435 5.3125 5.1711 10.585 7.8666 15.822 0.34835 0.67681 0.6994 1.3568 0.93419 2.0808 0.23479 0.72407 0.34996 1.5011 0.21486 2.2502-0.0606 0.33616-0.17203 0.66509-0.34801 0.95785s-0.41809 0.54859-0.71265 0.72153c-0.43256 0.25396-0.96108 0.3174-1.4557 0.23398-0.49462-0.0834-0.95787-0.30558-1.3727-0.58753-0.72662-0.49382-1.3122-1.1662-1.8562-1.8562-1.7323-2.1973-3.1223-4.6402-4.5078-7.0711-2.0832-3.655-4.1727-7.3083-6.0988-11.049-0.77132-1.4978-1.5192-3.0142-2.4646-4.4088s-2.1042-2.6744-3.5458-3.5462c-1.4264-0.86255-3.1072-1.2983-4.773-1.2374"/>
    <path d="m153.88 217.64c-0.2252 0.56605-0.37428 1.1623-0.44195 1.7678-0.16577 1.4831 0.15655 2.9747 0.53033 4.4194 0.80347 3.1056 1.8542 6.1453 3.0936 9.104 0.43004 1.0266 0.88661 2.056 1.0752 3.1529 0.0943 0.54845 0.11994 1.1115 0.039 1.6621-0.081 0.55059-0.27075 1.0889-0.58388 1.549-0.45193 0.66397-1.1614 1.1477-1.9446 1.3258"/>
    <path d="m155.65 240.62c-0.75179-0.53215-1.4124-1.1928-1.9445-1.9446-0.81649-1.1535-1.3175-2.4942-1.8562-3.8007-0.6238-1.5129-1.3088-2.9999-1.9445-4.5078-0.95013-2.2536-1.7897-4.5524-2.74-6.8059-2.3848-5.6551-5.4557-10.997-8.7504-16.175-4.9857-7.8356-10.495-15.323-15.998-22.804-1.4839-2.0175-2.9679-4.0353-4.5078-6.0104-4.9316-6.3252-10.42-12.191-15.822-18.12-11.501-12.623-22.641-25.568-33.853-38.449-5.6401-6.4799-11.323-12.977-15.91-20.241-1.8892-2.9921-3.5931-6.1214-4.773-9.4576-0.33884-0.95814-0.63388-1.9318-0.88388-2.9168"/>
    <path d="m46.669 89.388c-0.73755-5.5222-1.5626-11.033-2.4749-16.529-1.3519-8.1448-2.8965-16.268-3.7123-24.484-0.5309-5.3465-0.75168-10.718-0.97227-16.087-0.088379-2.1508-0.17677-4.3016-0.26516-6.4523"/>
    <path d="m88.035 184.76c-0.47251 1.6542-1.1898 3.2382-2.1213 4.6846-1.428 2.2172-3.3311 4.0787-5.1265 6.0104-2.3326 2.5095-4.5038 5.1632-6.7175 7.7782-5.0803 6.001-10.395 11.81-15.203 18.031-0.67398 0.87214-1.3403 1.7559-1.8745 2.72-0.53427 0.96407-0.93552 2.0166-1.0423 3.1137-0.08092 0.83152 0.0099 1.6794 0.26516 2.4749"/>
    <path d="m79.726 210.3c-3.1176 2.7681-6.154 5.6276-9.104 8.5737-2.7862 2.7825-5.4951 5.642-8.3085 8.3969-0.89505 0.87646-1.8344 1.7641-3.0052 2.2097-0.98244 0.37389-2.0914 0.40558-3.0936 0.0884"/>
    <path d="m74.865 214.99c-1.9802 2.1824-3.8964 4.4228-5.7452 6.7175-4.1159 5.1084-7.8979 10.486-11.314 16.087"/>
    <path d="m57.806 237.79c-0.60064 0.79427-0.83287 1.8559-0.61872 2.8284 0.12103 0.54963 0.3831 1.0744 0.78556 1.4678s0.94977 0.64742 1.5125 0.65352c0.52744 6e-3 1.0344-0.19901 1.5026-0.44194 1.9756-1.0251 3.4871-2.7417 4.9497-4.4194 5.8048-6.6581 11.609-13.317 17.413-19.976"/>
    <path d="m83.35 217.9c0.0043-0.13331 0.05374-0.26476 0.13844-0.36779 0.08469-0.10304 0.20408-0.17703 0.33404-0.20702 0.12996-0.03 0.2697-0.0158 0.39097 0.0397 0.12128 0.0555 0.22335 0.15198 0.2856 0.26994 0.07866 0.14905 0.09225 0.32595 0.06665 0.49253-0.02561 0.16658-0.08802 0.3251-0.15504 0.47974-0.35211 0.81251-0.84077 1.5572-1.3258 2.2981-4.5331 6.9238-8.9773 13.925-12.728 21.302-0.30147 0.59296-0.59998 1.1922-0.78662 1.8307-0.18663 0.63847-0.25724 1.3243-0.09727 1.97 0.13025 0.52572 0.42025 1.0199 0.8523 1.3466 0.21602 0.16331 0.46551 0.28342 0.72963 0.34324 0.26412 0.0598 0.54271 0.0587 0.80456-0.0104 0.35914-0.0948 0.6727-0.31072 0.97227-0.53033 2.2608-1.6574 4.1868-3.7419 5.8336-6.0104 1.7288-2.3814 3.157-4.9653 4.773-7.4246 2.852-4.3403 6.2809-8.2804 9.104-12.64 0.1463-0.22591 0.29382-0.45626 0.49715-0.6326 0.10167-0.0882 0.21693-0.16191 0.34328-0.20822 0.12635-0.0463 0.26415-0.0645 0.397-0.0431 0.15183 0.0245 0.29338 0.1005 0.405 0.20631 0.11161 0.10581 0.19399 0.24047 0.24732 0.38472 0.10666 0.28851 0.09767 0.60698 0.05479 0.91157-0.11345 0.80586-0.44991 1.5613-0.7955 2.2981-2.4785 5.2841-5.6357 10.3-7.2478 15.91-0.20055 0.69781-0.37783 1.4155-0.34296 2.1407 0.01744 0.36261 0.0889 0.72452 0.23192 1.0582 0.14302 0.33367 0.35916 0.63859 0.64137 0.86696 0.18397 0.14887 0.39585 0.26478 0.62358 0.32918s0.47139 0.0764 0.70225 0.0244c0.28196-0.0636 0.53649-0.21988 0.75248-0.41194 0.21599-0.19207 0.39691-0.41979 0.57335-0.64872 4.8279-6.2641 7.143-14.294 12.551-20.064 1.1015-1.1753 2.3309-2.2563 3.182-3.6239 0.52246-0.8395 0.88792-1.7651 1.3258-2.6516 1.4908-3.0183 3.7955-5.5408 5.8336-8.2201 3.5978-4.7296 6.4082-10.017 9.9879-14.761 1.1344-1.5032 2.3444-2.9493 3.6239-4.331"/>
    <path d="m109.16 168.41c-0.80255 0.15311-1.5546 0.56049-2.1213 1.149-0.55174 0.57304-0.93678 1.3152-1.591 1.7678-0.52397 0.36246-1.1652 0.49996-1.7678 0.7071-1.7702 0.60858-3.2431 1.8382-4.773 2.9168-3.3123 2.3352-7.0227 4.0298-10.607 5.922-2.2042 1.1638-4.3661 2.4057-6.5407 3.6239-3.3465 1.8747-6.7249 3.6942-10.165 5.3917-2.4151 1.1918-4.8741 2.3315-7.0711 3.8891-1.0415 0.7384-2.0187 1.5675-2.9168 2.4749"/>
    <path d="m61.607 196.25c0.24269 0.70835 0.71376 1.3364 1.3258 1.7678 0.81662 0.57547 1.8344 0.78434 2.8284 0.88388 2.9594 0.29633 5.9957-0.27323 8.6621-1.591 1.4782-0.73054 2.8402-1.6822 4.331-2.3865 1.2855-0.60727 2.66-1.0256 4.0659-1.2374"/>
    <path d="m145.87 169.25c7.6628-9.5855 15.583-18.965 23.75-28.125 10.003-11.219 20.384-22.12 29.75-33.875 2.6764-3.3589 5.2821-6.8076 7.25-10.625 0.4793-0.9298 0.92072-1.8821 1.25-2.875 0.32466-0.97893 0.5382-1.9906 0.75-3 3.9023-18.597 7.4549-37.377 7.875-56.375 0.036-1.6286 0.0493-3.2626 0.26916-4.8766s0.65468-3.2194 1.4808-4.6234c0.48922-0.83137 1.1119-1.584 1.837-2.2202"/>
    <path d="m177.48 26.19c0.38758 11.265 0.51803 22.539 0.3912 33.81-0.0755 6.7102-0.24219 13.419-0.5 20.125"/>
    <path d="m182.87 79.25c-0.74055-0.13752-1.4988-0.17965-2.25-0.125-1.1416 0.08304-2.2777 0.39612-3.25 1-0.45422 0.28211-0.86909 0.62476-1.25 1-0.54772 0.53956-1.0252 1.1453-1.5 1.75-5.0454 6.4251-9.9858 12.941-14.5 19.75-4.5032 6.7922-8.5748 13.864-13.125 20.625-1.6526 2.4554-3.3674 4.8686-5.125 7.25-4.6272 6.2697-9.5512 12.32-14.75 18.125"/>
   </g>
  </g>
 </g>
</svg>
