<?xml version="1.0" encoding="UTF-8"?>
<svg cursor="default" enable-background="new" version="1.1" viewBox="0 0 256 256" xmlns="http://www.w3.org/2000/svg" xmlns:cc="http://creativecommons.org/ns#" xmlns:dc="http://purl.org/dc/elements/1.1/" xmlns:rdf="http://www.w3.org/1999/02/22-rdf-syntax-ns#" xmlns:xlink="http://www.w3.org/1999/xlink">
 <metadata>
  <rdf:RDF>
   <cc:Work rdf:about="">
    <dc:format>image/svg+xml</dc:format>
    <dc:type rdf:resource="http://purl.org/dc/dcmitype/StillImage"/>
   </cc:Work>
  </rdf:RDF>
 </metadata>
 <defs>
  <linearGradient id="linearGradient15604" x1="80.625" x2="248.49" y1="141.66" y2="107.17" gradientUnits="userSpaceOnUse">
   <stop stop-color="#ff2a2a" offset="0"/>
   <stop stop-color="#f55" offset="1"/>
  </linearGradient>
 </defs>
 <g fill="#ff3d3d" stroke="#000">
  <path d="m94.664 245.04c7.2784 5.055 8.1013 1.2637 14.316-0.18-0.46659-1.4446-0.93566-3.6951-0.81396-5.685 0.10375-1.6963 0.80891-3.1721 0.81396-4.1261 0.10473-19.792 5.4606-35.871 4.948-51.408-0.44715-13.553-4.6218-20.133-4.6774-24.437-0.0601-4.6585 1.0203-4.8266 0.98805-10.95-0.0316-5.9938-1.9202-11.82-2.2987-19.171-0.65745-12.768 7.8053-25.565 4.6701-56.932 3.49 14.902 8.7271 28.576 15.459 45.746 8.0973 20.651 16.949 44.562 24.841 54.842 4.8742 6.3489 4.4204 14.326 6.8075 21.654 1.1852 3.6383 4.6618 9.1554 7.9413 17.785 4.3561 11.463 8.7566 27.241 10.801 39.931 5.2408 5.2101 15.345 1.8253 14.014-1.9269-0.67685-2.1341-1.9008-3.5019-2.508-5.8087-2.2018-8.3649-4.9839-44.519-8.8969-62.221-2.8319-12.811-15.369-22.914-17.882-32.755-3.4295-13.43-1.0481-56.976-6.8426-80.843-2.9054-11.967-6.4786-21.916-7.3736-28.079-1.3552-9.3309-0.82135-26.284-5.5207-36.384-10.843-4.3032-14.884 4.9696-31.479 5.2464-9.4514 0.15764-17.434-4.0161-19.075-7.3636-6.2489 11.634-13.417 23.49-17.485 38.157-3.7144 13.394-4.6883 29.477-3.1479 42.92 1.8986 16.569 3.9142 30.697 6.9072 41.502 3.5719 12.895 8.8941 20.321 9.3223 25.792 0.24859 3.176 0.79297 17.861 1.5327 29.41 0.67436 10.528 3.2662 17.208 4.8304 29.765 1.6551 13.287 2.0695 28.098-0.19156 35.518z" fill="url(#linearGradient15604)" stroke="#000" stroke-linejoin="round"/>
  <path d="m83.061 20.582c-1.2841 4.1924 7.4901 7.8712 16.35 10.159 5.5578 1.435 11.155 1.5851 16.787 0.56293" fill="none" stroke="#000" stroke-linejoin="round" stroke-width=".5"/>
  <g>
   <path d="m116.05 31.329 0.0474 0.25216c0.71014-0.13352 1.8227-0.40227 2.7029-0.66636 0.90622-0.2719 1.7713-0.60856 2.2833-0.78319-0.59139 0.2017-1.3776 0.38246-2.3402 0.533-0.92585 0.1448-2.0645 0.28508-2.7408 0.41223l0.0474 0.25216z" fill="#000" stroke="none"/>
   <path d="m147.61 23.975c-7e-3 -0.0014 0.0398-0.34168 0.0327-0.3431-1.5259-0.30447-3.7499-0.32022-6.4032 0.43992-1.0472 0.30003-1.9882 0.67218-2.7864 1.0495-1.0552 0.49881-1.7757 0.96511-2.197 1.2432 0.42033-0.27743 1.1736-0.69789 2.2508-1.1184 0.81583-0.3185 1.7706-0.61811 2.8159-0.84057 2.6859-0.57164 4.7274-0.39227 6.1857-0.1013 7e-3 0.0013 0.0946-0.33065 0.10148-0.32925z" fill="#000" stroke="none"/>
   <path d="m100.43 30.855c0.24804-7.2429 0.95437-14.783 2.7859-22.513l1.2367 0.33066c-1.9126 7.4456-2.3985 14.962-2.8618 22.539z" fill="#fca" stroke="#000" stroke-linejoin="round" stroke-width=".5"/>
   <path d="m100.88 31.207-0.45798 0.02665c0.12936 2.2231 0.47642 6.0472 1.0143 9.5168 0.58291 3.7601 1.2769 6.7275 1.8298 9.3507-0.52068-2.4707-1.0544-5.7914-1.3744-9.4061-0.30808-3.4801-0.42464-7.2961-0.55374-9.5147l-0.45798 0.02665z" fill="#000" stroke="none"/>
   <path d="m112.92 72.655c-0.0655-0.08902 0.19959-0.6897 0.13583-0.77772-1.1302-1.5604-2.7002-3.6007-4.3773-6.3925-1.6132-2.6855-2.7231-5.1154-3.2902-6.6898 0.60703 1.6852 1.3692 3.9916 2.7897 6.959 1.3641 2.8496 2.8875 5.313 3.9573 6.7901 0.0648 0.08944 0.71919 0.02198 0.7847 0.111z" fill="#000" stroke="none"/>
  </g>
 </g>
 <g fill="#fff">
  <path d="m103.73 8.7607c-1.6975 6.4875-2.2361 14.34-2.6956 22.057" fill="none" stroke="#ff7f2a" stroke-dasharray="0.75,0.75" stroke-linejoin="round" stroke-width=".75"/>
  <path d="m151.57 138.25c-1.2284-0.13554-1.977 7.7759 0.41663 7.6823 3.0542-0.11946 2.2657-7.3864-0.41663-7.6823z" fill-opacity=".19608" style="paint-order:normal"/>
  <path d="m137.27 48.197c1.8189 11.652 5.6687 37.111 6.0532 39.833 0.38363 2.7168 2.7817 27.618 5.2408 43.449-2.3096-15.77-1.4575-33.648-2.4359-43.636-1.3455-13.737-7.042-27.82-8.8581-39.646z" style="paint-order:normal"/>
  <path d="m151.79 138.37c-1.2213-0.18902-1.2941 3.0179-0.46596 3.2782 0.58522 0.18387 2.5283-2.959 0.46596-3.2782z" style="paint-order:normal"/>
  <path d="m135.35 41.26c1.7961 11.656 4.8162 44.084 5.1954 46.808 0.37832 2.7175 4.8034 31.642 7.9634 47.668-1.3245-15.438-1.1583-38.194-2.1171-48.184-1.3187-13.739-9.2487-34.464-11.042-46.293z" fill-opacity=".19608" style="paint-order:normal"/>
  <path d="m129.14 27.074c1.1688-0.9719-2.0413-3.1588-2.9186-2.4297-1.0042 0.83458 1.5043 3.6058 2.9186 2.4297z" fill-opacity=".098039" style="paint-order:normal"/>
  <g fill-opacity=".19608">
   <path d="m134.39 22.593c0.4986 0.9769-1.1187 3.0646-2.1549 3.2715-1.0929 0.2182-4.153-4.0197-5.316-6.2382-0.24976-0.47646 0.56987-1.373 1.1785-1.2224 1.9306 0.47763 5.7091 3.0464 6.2923 4.1891z" style="paint-order:normal"/>
   <path d="m125.5 23.499c-0.43148-0.19067-1.3859 1.2269-1.0109 1.4432 0.42053 0.24248 1.5439-1.2076 1.0109-1.4432z" style="paint-order:normal"/>
   <path d="m133.47 17.539c-0.39264-0.37341-1.3522 0.51799-1.1397 0.71699 0.53601 0.5021 1.5925-0.28638 1.1397-0.71699z" style="paint-order:normal"/>
  </g>
  <path d="m134.39 22.593c0.4986 0.9769-1.1187 3.0646-2.1549 3.2715-1.0929 0.2182-3.3912-3.3781-2.8384-4.2434 0.46177-0.72296 3.8842 0.23327 4.9933 0.97193z" style="paint-order:normal"/>
  <path d="m169.95 211.42c-0.53541 0.37816-8.6725-14.763-10.911-22.925-1.0831-3.9488-1.7015-12.128-1.1186-12.233 0.55131-0.0991 1.8834 8.035 3.1466 11.959 2.5378 7.8821 9.3275 22.885 8.883 23.199z" fill-opacity=".098039" style="paint-order:normal"/>
  <path d="m168.57 172.64c0.69515 3.5338-3.4853 12.543 0.70199 22.266 2.1605 5.0164 10.778 25.182 11.901 31.595-1.0477-6.4888-7.8775-39.974-9.0171-44.687-0.71216-2.9453-2.8643-5.6485-3.5863-9.1737z" fill-opacity=".19608" style="paint-order:normal"/>
  <path d="m177.11 179.85c0.55928 0.92874 2.344 2.2121 2.9006 3.6682 0.77364 2.024 3.9164 18.852 3.7463 20.98-0.19107-1.9721-5.9585-23.266-6.6469-24.648z" fill-opacity=".19608" style="paint-order:normal"/>
  <path d="m168.57 172.64c0.69515 3.5338-0.19638 6.5868 0.27268 9.4444 0.80657 4.9136 3.301 7.0494 4.4247 13.463-1.0477-6.4888 0.0285-9.0205-1.1111-13.733-0.71216-2.9453-2.8643-5.6485-3.5863-9.1737z" style="paint-order:normal"/>
  <path d="m178.83 181.57c0.42819 0.996 2.0224 2.5095 2.3765 4.0276 0.49206 2.1102-0.0291 4.397-0.48619 6.4821 0.0781-1.9797-1.3956-9.0468-1.8903-10.51z" style="paint-order:normal"/>
  <path d="m188.13 241.98s-6.9522-22.009-9.9608-33.855c-2.045-8.052-6.0586-24.863-6.0586-24.863s1.8233 17.434 4.2945 25.554c6.4001 21.03 11.725 33.164 11.725 33.164z" fill-opacity=".58824" style="paint-order:normal"/>
  <path d="m96.664 174.11s1.4534 23.035 1.5239 35.257c0.0479 8.3075-0.10062 25.591-0.10062 25.591s2.4244-17.361 1.9792-25.837c-1.153-21.952-3.4025-35.011-3.4025-35.011z" fill-opacity=".58824" style="paint-order:normal"/>
  <path d="m85.437 30.467c-0.70443-0.63963-6.7037 3.6521-8.8791 12.674-0.89236 3.7008-0.46707 8.5765-0.6332 10.816-0.08737 1.1777-1.6814 14.414-1.5224 17.116 1.1118 18.887 4.1205 50.393 5.4372 50.169 1.7028-0.29012 0.61781-32.467 0.13087-48.69-0.17515-5.8354-1.3046-11.645-1.0974-17.48 0.12851-3.6191-0.19283-5.747 1.448-10.767 1.3613-4.1649 6.1528-12.897 5.116-13.839z" fill-opacity=".098039" style="paint-order:normal"/>
  <path d="m145.14 54.437c0.6611-0.68433 6.9282 3.2059 9.689 12.066 1.1324 3.6345 1.0269 8.5276 1.3392 10.751 0.16423 1.1694 2.6204 14.273 2.6384 16.98 0.12571 18.92-0.81617 50.555-2.1447 50.417-1.7182-0.17818-2.7397-32.357-3.3147-48.577-0.20684-5.8343 0.54022-11.706-0.048-17.514-0.3649-3.603-0.18342-5.7473-2.149-10.65-1.6307-4.067-6.9831-12.467-6.0101-13.475z" fill-opacity=".098039" style="paint-order:normal"/>
  <path d="m92.963 4.6543s-1.6098 3.624-2.5201 4.8984c-0.78894 1.1043-3.6712 5.2807-3.6712 5.2807 1.2405-3.0781 5.5875-9.8824 6.1912-10.179z" fill-opacity=".58824" style="paint-order:normal"/>
  <path d="m100.91 40.681c-0.36812 2.9083-5.689 6.3443-6.3242 6.1111-1.0392-0.38135-0.76142-5.8744-0.5272-9.0791 0.2872-3.9292 2.0478-6.2031 3.1935-9.397 1.2774-3.5613 1.2033-7.5038 2.3938-11.095 0.88958-2.6835 3.3782-7.119 4.6797-6.9073 0.79472 0.12921 2.0341 3.5412 1.9611 5.4799-0.0893 2.3713-5.9782 8.2125-7.3787 12.992-0.56691 1.9347-0.64955 4.05-0.32386 6.0396 0.33929 2.0727 2.4668 4.7433 2.3259 5.8559z" fill-opacity=".098039" style="paint-order:normal"/>
  <path d="m96.208 38.585c-0.95677-1.5907-0.78682-2.5438-0.6038-3.4679 0.16775-0.84702 0.54943-3.097 2.7193-6.5555-1.0883 3.4155-0.6499 6.2471-0.77385 7.1448-0.12396 0.89773-0.18738 1.6544-1.3417 2.8786z" fill-opacity=".19608" style="paint-order:normal"/>
  <path d="m96.124 39.36c0.4733 0.03672 0.39568 1.2039-0.09474 1.1664-0.42652-0.03256-0.36468-1.2021 0.09474-1.1664z" fill-opacity=".19608" style="paint-order:normal"/>
  <path d="m97.574 35.528c-0.14855 1.0759-1.0638 2.8262-1.3559 2.8427-0.22529 0.01255-0.79712-2.3297-0.6141-3.2538 0.16775-0.84702 0.7704-2.4395 1.0197-2.4315 0.24929 8e-3 1.0497 2.1231 0.95039 2.8426z" style="paint-order:normal"/>
  <path d="m102.23 15.875c0.81535 0.21008 0.64437 1.8173 0.4949 2.1931-0.15253 0.38327-1.0421 1.0585-1.399 0.62871-0.40365-0.48616 0.0447-3.0432 0.90407-2.8218z" style="paint-order:normal"/>
  <path d="m93.008 58.699c0.5164 5.1873 10.081 15.92 8.3496 31.144-0.89319 7.855-4.3895 39.403-3.2614 48.759-1.2651-9.429-5.822-58.684-6.2163-65.691-0.24641-4.379 1.6036-9.0254 1.1281-14.212z" fill-opacity=".19608" style="paint-order:normal"/>
  <g fill-opacity=".58824">
   <path d="m151.63 57.068s3.9502 13.885 4.7254 21.272c1.0304 9.8199 0.18752 16.522 2.9701 30.111-1.6613-17.193-0.0247-19.943-1.6447-29.737-1.2225-7.3912-4.4904-20.403-6.0507-21.645z" style="paint-order:normal"/>
   <path d="m105.79 160.33c13.513 32.335-2.5792 41.652 0.55352 84.226 0.63198-29.274 7.6814-45.801 6.4765-61.612-0.52051-6.8297-4.6309-18.179-7.03-22.615z" style="paint-order:normal"/>
   <path d="m104.97 136.57c-0.89756 2.0268-2.5077 4.1-3.696 6.0972-0.79025 1.3283-0.89739 2.4337-1.179 4.7135 0 0-0.78745-3.7004-0.17371-5.2718 0.90884-2.327 3.7623-4.6726 5.0486-5.5389z" style="paint-order:normal"/>
  </g>
  <path d="m123.95 21.586c0.86396-0.0885 0.61396-1.5106-0.16152-1.4525-1.1249 0.08426-0.89255 1.5605 0.16152 1.4525z" fill-opacity=".098039" style="paint-order:normal"/>
  <path d="m133.15 29.863c-2.2561 1.3155-4.5654-0.73764-6.4618-4.4308-0.60684-1.1818 1.346-2.7001 2.6443-2.982 2.4121-0.52369 4.0845 1.8914 4.726 3.8107 0.39255 1.1745 1.1178 2.4206-0.90859 3.6022z" fill-opacity=".19608" style="paint-order:normal"/>
  <path d="m131.54 31.036c-0.32228-0.97437 2.1253-1.3635 2.2724-0.43686 0.14915 0.93952-1.9299 1.4724-2.2724 0.43686z" fill-opacity=".19608" style="paint-order:normal"/>
  <path d="m133.15 29.863c-3.2691 1.0766-5.3099-4.035-2.2277-5.1256 3.8612-1.3663 4.2341 4.4648 2.2277 5.1256z" style="paint-order:normal"/>
  <path d="m146.27 36.206c1.528-12.548 1.9513-24.963-6.2105-30.732-1.8752-1.3254-5.6288 0.97964-3.8265 2.6049 3.664 3.3042 10.601 8.9009 8.5371 27.458-0.89217 1.0748 1.8298 9.9052 1.7499 7.6689z" fill-opacity=".098039" style="paint-order:normal"/>
  <path d="m105.27 57.619c-1.2089 0.21543-4.5636-20.524-3.6279-21.914 0.46806-0.69551 2.2557-3.6678 3.2042-3.2426 0.22606 0.10133-0.11601 5.6669-0.01 9.3001 0.21862 7.4389 0.69783 15.809 0.43294 15.856z" fill-opacity=".098039" style="paint-order:normal"/>
  <path d="m125.04 13.485c2.2282 2.4686 1.8856 8.5713 1.4745 12.785-0.24273 2.4876-7.39 7.0443 3.9902 4.0436 9.1528-2.4649 4.769-13.099 3.2004-14.728-4.3651-4.532-6.2698 0.27938-8.6651-2.1004z" fill-opacity=".19608" style="paint-order:normal"/>
  <path d="m149.74 150.57c0.27791 1.032 3.1768 4.1773 4.5078 8.6892-0.28166-2.4049-1.5047-5.5166-2.8717-9.3602-0.91526-2.5734-1.1061-5.3018-1.8353-7.2523 0.61771 2.0102-0.0556 6.9764 0.19934 7.9232z" fill-opacity=".19608" style="paint-order:normal"/>
  <path d="m149.74 150.57c0.27791 1.032 1.9128 1.7259 2.474 3.7785-0.72659-1.8629-0.0929-4.3172-2.3337-7.0571 0.13817 1.1155-0.39541 2.3319-0.14041 3.2786z" style="paint-order:normal"/>
 </g>
 <g stroke="#000" stroke-linejoin="round">
  <ellipse cx="117.49" cy="13.011" rx="3.5768" ry="3.836" fill="#fca" stroke-width=".75"/>
  <ellipse cx="117.53" cy="12.934" rx="2.5995" ry="2.6643" fill="#ffb380" stroke-width=".5"/>
  <ellipse cx="127.03" cy="11.016" rx="3.5768" ry="3.836" fill="#fca" stroke-width=".75"/>
  <ellipse cx="127.07" cy="10.938" rx="2.5995" ry="2.6643" fill="#ffb380" stroke-width=".5"/>
  <ellipse transform="rotate(4.8621)" cx="98.096" cy="3.3874" rx="3.0761" ry="3.8537" fill="#fca" stroke-width=".75"/>
  <ellipse transform="rotate(4.8621)" cx="97.749" cy="3.4197" rx="2.2356" ry="2.6765" fill="#ffb380" stroke-width=".5"/>
  <ellipse transform="matrix(.92931 .36929 -.30077 .9537 0 0)" cx="89.962" cy="-25.16" rx="2.5076" ry="3.5934" fill="#fca" stroke-width=".75099"/>
  <ellipse transform="matrix(.92931 .36929 -.30077 .9537 0 0)" cx="89.679" cy="-25.13" rx="1.8224" ry="2.4958" fill="#ffb380" stroke-width=".50066"/>
 </g>
</svg>
