<svg cursor="default" enable-background="new" version="1.1" viewBox="0 0 256 256" xmlns="http://www.w3.org/2000/svg" xmlns:xlink="http://www.w3.org/1999/xlink">
 <defs>
  <linearGradient id="innoGrad1">
   <stop stop-color="#f55" offset="0"/>
   <stop stop-color="#ff2a2a" offset="1"/>
  </linearGradient>
  <linearGradient id="linearGradient1948" x1="108.55" x2="171.81" y1="131.61" y2="131.61" gradientTransform="translate(-3.5 -4)" gradientUnits="userSpaceOnUse" xlink:href="#innoGrad1"/>
  <linearGradient id="linearGradient1956" x1="93.074" x2="136.47" y1="143.2" y2="143.2" gradientTransform="translate(-3.5 -4)" gradientUnits="userSpaceOnUse" xlink:href="#innoGrad1"/>
 </defs>
 <g display="none" fill="#ffd5d5">
  <path d="m125.8-66.918c0.19113-0.13799 0.36408-0.30229 0.53601-0.46375 0.14221-0.10162 0.26069-0.22783 0.40714-0.32395 0.16197-0.1145 0.35231-0.17689 0.51665-0.28607 0.19959-0.09748 0.38503-0.22094 0.58248-0.32348 0.16429-0.1074 0.34952-0.17162 0.51877-0.26764 0.14546-0.05932 0.27793-0.1424 0.42003-0.20938 0.12023-0.08121 0.24331-0.16517 0.378-0.22069 0.11434-0.06734 0.23138-0.13631 0.3565-0.18236 0.11722-0.09046 0.2551-0.14972 0.3702-0.24206 0.12005-0.09046 0.26297-0.14524 0.38556-0.22991 0.0832-0.03548 0.15839-0.08157 0.23866-0.12261l-0.11422 1.0484c-0.0771 0.04202-0.15789 0.07632-0.23389 0.12041-0.12825 0.06313-0.2543 0.13186-0.37378 0.21041-0.13283 0.08533-0.25518 0.18803-0.3953 0.26009-0.11865 0.05795-0.23519 0.12005-0.35306 0.17953-0.12646 0.065-0.24907 0.13719-0.37221 0.20819-0.1363 0.07532-0.27366 0.14348-0.42109 0.19516-0.17679 0.07013-0.34407 0.15971-0.51427 0.24448-0.19875 0.0963-0.38624 0.21057-0.57564 0.32339-0.17845 0.09301-0.3488 0.19995-0.51187 0.31788-0.13309 0.10018-0.25447 0.21623-0.39786 0.30275-0.19966 0.13825-0.38689 0.29452-0.53694 0.48733l0.0901-1.0262z"/>
  <path d="m120.85-66.835c0.0444-0.58608 0.20712-1.1269 0.35945-1.6828 0.0426-0.17144 0.1709-0.29008 0.25244-0.43939 0.0908-0.12969 0.22965-0.20993 0.36355-0.28833 0.11481-0.09222 0.21597-0.20065 0.34376-0.27466 0.11691-0.08744 0.24277-0.16205 0.3659-0.24035 0.12401-0.06714 0.24427-0.13918 0.3693-0.20488 0.12704-0.04094 0.21978-0.13815 0.33958-0.19322 0.13016-0.05459 0.26091-0.10723 0.39545-0.15359 0.14758-0.07245 0.30124-0.12868 0.44917-0.20449 0.17264-0.07193 0.33051-0.17437 0.50194-0.24755 0.12905-0.04661 0.24417-0.11976 0.37097-0.17224l-0.12165 1.0114c-0.12107 0.04466-0.24065 0.09361-0.35806 0.1472-0.16553 0.09957-0.33096 0.19871-0.50549 0.28211-0.15026 0.07766-0.31182 0.12952-0.46037 0.21079-0.12918 0.05722-0.25712 0.11707-0.38583 0.17521-0.11047 0.06853-0.21729 0.14262-0.33882 0.1916-0.11929 0.06619-0.24306 0.12408-0.36002 0.19469-0.12268 0.08035-0.24608 0.15912-0.36658 0.24273-0.11993 0.08554-0.2223 0.19376-0.34622 0.27334-0.12488 0.07823-0.24168 0.15534-0.31459 0.28895-0.0894 0.12685-0.17877 0.2506-0.22355 0.40223-0.12757 0.38943-0.33775 1.4102-1e-3 -0.2908 0 0-0.32924 0.97202-0.32924 0.97202z"/>
  <path d="m116.69-60.997c-8e-3 -0.27892-0.0422-0.55612-0.0636-0.83416-0.0144-0.19126-0.0178-0.38306-0.0196-0.57478-3e-3 -0.19291 3e-3 -0.38573 3e-3 -0.57862-8e-3 -0.19185 1e-4 -0.38068 0.0301-0.57012 0.0312-0.17479 0.0437-0.35181 0.0508-0.52895 5e-3 -0.17638 5e-3 -0.35287 5e-3 -0.52932-0.0259-0.5256 0.0959-0.96293 0.19265-1.5112 5e-3 -0.02456 7e-3 -0.04987 0.0151-0.07367 0.0151-0.04588 0.042-0.08718 0.0589-0.13241 0.0252-0.06716 0.0376-0.13421 0.0653-0.20071 0.0986-0.12572 0.1407-0.27044 0.16332-0.4256-0.56284 3.1388 0.46621-2.5482-0.0863 0.55712 0.25734-0.39361 0.0866-1.0068 0.31962-1.4368 0.0806-0.16312 0.12873-0.34032 0.20621-0.50422 0.0611-0.14307 0.0859-0.29579 0.17526-0.42547 0.0814-0.11955 0.14631-0.24728 0.21101-0.37658 0.0908-0.10021 0.18811-0.19153 0.26557-0.30395 0.0752-0.06626 0.0866-0.17006 0.14547-0.2469 0.0299-0.03903 0.0664-0.07265 0.0969-0.11123 0.10869-0.07863 0.17624-0.18992 0.26088-0.28912 0.0619-0.11825 0.17487-0.1924 0.2583-0.29231 0.0973-0.11774 0.22929-0.19974 0.32915-0.3144 0.10773-0.11992 0.25125-0.19223 0.37742-0.28705 0.12143-0.07475 0.24236-0.15575 0.3517-0.24773 0.12999-0.07679 0.25194-0.16251 0.37874-0.24426 0.14604-0.08205 0.26276-0.2007 0.39206-0.30424 0.0893-0.06275 0.19297-0.08278 0.29835-0.09911l-0.14198 1.0279c-0.0899 0.02274-0.17662 0.05023-0.25004 0.10976-0.13004 0.1024-0.26926 0.19199-0.39861 0.2952-0.12313 0.08901-0.254 0.16632-0.3758 0.25725-0.12169 0.08038-0.23167 0.17662-0.35817 0.24985-0.12738 0.07281-0.24883 0.15756-0.35054 0.2642-0.11 0.11066-0.22164 0.21976-0.32804 0.33395-0.0909 0.09692-0.1768 0.19793-0.25361 0.30653-0.0767 0.104-0.17409 0.18662-0.26148 0.28128-0.0947 0.11298-0.14905 0.24957-0.24035 0.36545-0.0832 0.09657-0.17878 0.18364-0.24671 0.29129-0.072 0.12893-0.13739 0.26141-0.21607 0.38664-0.0614 0.1304-0.0975 0.27023-0.16246 0.39914-0.0692 0.16698-0.13273 0.33632-0.20505 0.50204-0.13125 0.38871-0.25925 1.2156 0.057-0.56814-0.0629 0.36254-0.12473 0.72529-0.18882 1.0876-8e-3 0.04401-0.0245 0.10434-0.0357 0.14775-6e-3 0.0232-0.0216 0.0933-0.0177 0.06966 4e-3 -0.02311 0.46746-2.7256-0.0262 0.1518-0.0374 0.15385-0.10712 0.28896-0.17821 0.42928-0.0398 0.13792-0.10051 0.26883-0.12475 0.41076 0.0541-0.3123 0.10996-0.62429 0.16224-0.93689 5e-3 -0.02782-0.0162 0.05434-0.0194 0.08236-0.0131 0.11632 0.0103 0.23678 4e-4 0.35345 2.2e-4 0.1768 8.6e-4 0.35361-2e-3 0.53039-4e-3 0.18005-0.011 0.36049-0.0401 0.53857-0.0324 0.19299-0.0665 0.38219-0.0503 0.57937-1e-5 0.18722 5e-3 0.37436 2e-3 0.56158-8.3e-4 0.20509-2e-3 0.41022 2e-3 0.61529 7e-3 0.26144 0.0104 0.52738 0.0721 0.78264l-0.30497 0.9799z"/>
  <path d="m108.85-91.646c0.23117-0.03403 0.45037-0.15603 0.64236-0.28693 0.15619-0.108 0.32335-0.19766 0.47698-0.30751 0.12875-0.09908 0.26113-0.18233 0.41072-0.24778 0.1327-0.08249 0.26417-0.16436 0.39515-0.24896 0.14616-0.08444 0.28946-0.17053 0.43193-0.26043 0.11886-0.10848 0.25624-0.19514 0.39074-0.28286 0.12926-0.11898 0.26959-0.22626 0.41095-0.33005 0.13551-0.09077 0.26887-0.18348 0.40245-0.2777 0.13575-0.11526 0.25915-0.24402 0.40211-0.35183 0.0913-0.09669 0.20725-0.16717 0.27054-0.28672 0.0964-0.10344 0.18158-0.21481 0.27209-0.32348 0.11927-0.11582 0.22739-0.24393 0.35215-0.35383 0.0802-0.11362 0.1979-0.18135 0.30135-0.2681 0.019-0.01151 0.0371-0.02451 0.057-0.03452 0.0593-0.02996 0.0675-0.0182 0.11552-0.06238 0.0501-0.04611 0.0814-0.08415 0.14206-0.12033 0.0888-0.09243 0.20435-0.14792 0.30326-0.22613 0.0932-0.0496 0.16266-0.12989 0.24579-0.19321l-0.0936 1.0544c-0.0796 0.07006-0.16361 0.13468-0.25317 0.19167-0.10721 0.06783-0.20161 0.15166-0.30424 0.22607-0.0991 0.08048-0.19922 0.15309-0.30975 0.21748-0.10682 0.07396-0.1961 0.16676-0.29148 0.25459-0.11826 0.10895-0.24209 0.21519-0.33366 0.34868-0.0864 0.11679-0.18519 0.22412-0.26767 0.34407-0.0884 0.10155-0.19549 0.18451-0.30231 0.26594-0.14015 0.10439-0.27227 0.21622-0.40044 0.3351-0.13038 0.10365-0.27151 0.19046-0.40541 0.28913-0.14034 0.09983-0.27729 0.20303-0.41076 0.31196-0.13303 0.09964-0.25716 0.21104-0.39867 0.2988-0.14533 0.08621-0.29466 0.16621-0.43054 0.26741-0.13305 0.08447-0.26748 0.1677-0.40673 0.24145-0.1363 0.0729-0.26356 0.15989-0.39675 0.23808-0.15964 0.09403-0.31528 0.19501-0.47781 0.28409-0.21554 0.11549-0.46179 0.17044-0.66026 0.31988l0.12017-1.0261z"/>
 </g>
 <g>
  <g>
   <g stroke-width="0">
    <g fill="#ff2a2a">
     <path d="m89.186 219.34c-0.38368 0.12906-0.23082 0.66529-0.33179 0.97388-1.036 9.0711-0.82248 18.288 0.64905 27.299 0.03173 0.31335 0.39948 0.39603 0.61377 0.19324 2.9217-1.5156 5.2531-4.1679 6.2431-7.321 0.74788-2.2591 0.81556-4.6892 0.55899-7.0373-0.55445-4.2948-2.226-8.5182-5.1001-11.793-0.76341-0.80474-1.5061-1.6653-2.4379-2.2787-0.06062-0.028-0.12786-0.0457-0.19507-0.0366z"/>
     <path d="m138.17 224.22c-0.41299 0.10449-0.28435 0.65853-0.35782 0.97552-0.18778 2.5833-0.13145 5.1785-0.0883 7.7663 0.19668 3.5754 0.76216 7.1309 1.63 10.604 0.2461 0.89445 0.44396 1.8126 0.77454 2.6781 0.27137 0.30083 0.55626-0.11373 0.62378-0.36805 2.0957-4.602 2.5009-9.9587 1.0356-14.806-0.71589-2.4433-1.8591-4.7764-3.4273-6.7845-0.0517-0.047-0.12043-0.0712-0.19043-0.0657z"/>
     <path d="m147.18 7.4461c-0.81645 0.19185-1.6187 0.44287-2.427 0.66681-10.874 3.12-21.536 6.9825-31.879 11.564-0.23666 0.11989-0.50199 0.19708-0.71581 0.35488-0.16761 0.16612 0.0183 0.47083 0.24239 0.40628 2.4546-0.80079 4.9019-1.625 7.3461-2.4572 9.1621-3.1324 18.263-6.4451 27.286-9.9574 0.16201-0.06779 0.41031-0.12078 0.4072-0.34229-3.9e-4 -0.1327-0.12666-0.25066-0.25994-0.23513z"/>
    </g>
    <path d="m154.83 5.845c-8.6383 3.0283-17.104 6.5511-25.763 9.5347-7.9477 2.9522-16.119 5.3161-24.013 8.4097-0.13343 7.5154 3.2142 15.377 5.193 21.658 4.0454 21.619 23.206 39.71 23.314 55.809 0.41407 9.1419-2.9309 17.87-4.2198 26.831-1.1318 6.743-2.8676 13.462-2.5479 20.359 0.20704 16.954 6.8454 32.834 11.65 48.832 3.4929 11.777 3.2028 15.513-0.0713 25.821 5.5296 7.956 5.7032 15.683 2.7436 23.877 0.50487 0.88105 1.8513 0.74837 2.5381 1.5171 0.58249 0.53792 1.4368 1.4522 2.0425 0.39697 6.3276-6.3381 13.264-12.03 20.846-16.806-4.1226-18.442-5.8144-39.117-4.9157-55.751 0.98357-14.833 1.9528-29.736 0.75367-44.588-0.28271-15.282 6.8742-30.289 5.8334-43.916-2.8399-27.631-5.4193-56.65-13.022-81.697-0.0421-0.15777-0.17564-0.33373-0.36084-0.28906z" fill="url(#linearGradient1948)"/>
    <path d="m103.95 27.02c-1.3154 0.59057-2.8845 1.6537-3.127 3.1792 0.65367 20.775 3.5585 42.202 5.4956 61.288 1.8474 18.361-12.113 29.257-14.596 49.37-2.9573 16.398-1.5235 33.164-0.09256 49.642 1.2285 10.559 1.1449 18.972-2.0593 27.992 3.0267 2.8654 5.7864 6.2106 6.9263 10.288 1.7343 4.9201 1.8611 10.733-1.2081 15.189-1.3494 2.1502-3.3783 3.7313-5.6376 4.8405 0.01052 0.81143 0.44324 1.9481 1.0542 2.5571 7.4802 0.5965 16.303-10.087 23.064-15.275-0.7698-12.355-1.0344-24.805-0.0188-37.15 1.0147-12.374 5.1032-24.206 7.7555-36.289 4.5365-20.282 9.1412-38.952 11.313-57.39 1.6998-22.791-12.056-31.433-17.877-45.552-3.9208-9.4475-7.4774-19.11-10.003-29.03-0.36585-1.1695-0.1898-2.6273-0.81934-3.645-0.0547-0.01667-0.11282-0.02084-0.16943-0.01416z" fill="url(#linearGradient1956)"/>
   </g>
   <g fill="#fff">
    <path d="m109.49 214.9c-0.28275-0.9169-1.6861-2.4255-1.8089-3.7866-0.17088-1.8919 1.701-16.836 2.5055-18.59-0.39669 1.709-0.97333 21.047-0.69659 22.377z" fill-opacity=".19608" style="paint-order:normal"/>
    <path d="m109.49 214.9c-0.28275-0.9169-1.6861-2.4255-1.8089-3.7866-0.17088-1.8919 0.73213-3.8134 1.5367-5.5675-0.39669 1.709-5e-3 8.0237 0.27221 9.3541z" style="paint-order:normal"/>
    <g fill-opacity=".58824">
     <path d="m139.58 221.58c0.67896-6e-3 5.3778 0.86516 7.2459 0.67958-2.4672 0.40239-6.437-0.33944-7.7751-0.39913z" style="paint-order:normal"/>
     <path d="m90.429 217.28c0.67896-6e-3 5.3778 1.0006 7.2459 0.78593-2.4672 0.46538-6.437-0.39256-7.7751-0.46159z" style="paint-order:normal"/>
     <path d="m133.8 101.69c0.8761 0.07 6.7379-0.99808 9.186-0.51513-3.2681-0.9063-8.219 7e-3 -9.9299-0.0106z" style="paint-order:normal"/>
     <path d="m106.14 101.49c0.80589 0.22182 6.958-0.18191 9.0678 0.79106-2.6871-1.6203-7.8886-1.2661-9.5215-1.5524z" style="paint-order:normal"/>
     <path d="m129.41 131.94c-7.685 36.766 8.5496 40.394 11.115 75.136-6.1435-25.3-12.48-41.818-14.299-55.655-0.64294-4.8909-0.56641-8.4051 3.1837-19.481z" style="paint-order:normal"/>
     <path d="m162.01 129.4s-0.44785 14.687-0.67963 28.288c-0.50874 29.85-1.4988 29.272-0.5152 34.613 0 0 2.3301-21.686 2.2887-33.037-0.0345-9.458-1.0938-29.863-1.0938-29.863z" style="paint-order:normal"/>
     <path d="m165.1 85.066s-0.0211 3.9254-0.0767 5.9013c-0.0681 2.4217-0.20238 7.2713-0.20238 7.2713 0.95958-2.719 1.4258-12.04 0.27901-13.173z" style="paint-order:normal"/>
    </g>
    <path d="m135.54 176.21c-0.62105 0.21497-6.025-14.395-6.7398-21.835-0.34588-3.5994 0.60104-10.725 1.218-10.696 0.58341 0.0271 0.37569 7.2589 0.91083 10.873 1.075 7.2609 5.1265 21.479 4.611 21.658z" fill-opacity=".098039" style="paint-order:normal"/>
    <g fill-opacity=".19608">
     <path d="m142.53 182.22c-0.73831-3.0783-8.2397-8.2792-8.1237-17.76 0.0599-4.8918 0.23637-24.526-1.2337-30.051 1.5716 5.5506 8.3385 34.828 9.1226 39.028 0.49001 2.6247-0.47476 5.7001 0.23475 8.7836z" style="paint-order:normal"/>
     <path d="m155.76 197.37c-0.36921-0.88562-1.9105-2.253-2.163-3.5961-0.35116-1.8668 0.0818-16.922 0.71473-18.745-0.2313 1.7392 1.0455 21.043 1.4483 22.341z" style="paint-order:normal"/>
     <path d="m143.43 196.36s0.86106 17.008 2.5948 22.204c1.1716 3.5119 3.8514 8.1084 3.8514 8.1084s0.18354-5.8958-0.64124-9.026c-0.63961-2.4274-5.8049-21.287-5.8049-21.287z" style="paint-order:normal"/>
     <path d="m151.07 212.86c-1.2796-0.14127-2.2341 6.7767 0.26718 6.7385 3.1914-0.0487 2.527-6.4301-0.26718-6.7385z" style="paint-order:normal"/>
    </g>
    <g>
     <path d="m142.53 182.22c-0.73831-4.9792-2.7846-8.2076-3.4695-12.167-1.1776-6.8082 0.33421-11.31-1.1358-20.247 1.5716 8.9782 3.5865 11.413 4.3706 18.206 0.49003 4.2454-0.47474 9.2199 0.23475 14.207z" style="paint-order:normal"/>
     <path d="m155.76 197.37c-0.36921-0.88562-1.9105-2.253-2.163-3.5961-0.35116-1.8668 0.3638-3.8659 0.99676-5.689-0.2313 1.7391 0.76346 7.9873 1.1662 9.2851z" style="paint-order:normal"/>
     <path d="m144.92 205.74s0.7159 5.0512 1.2662 7.5506c0.50122 2.2765 1.8513 6.7692 1.8513 6.7692s-0.18714-4.7931-0.69342-7.1444c-0.52674-2.4464-2.424-7.1753-2.424-7.1753z" style="paint-order:normal"/>
     <path d="m151.29 212.97c-1.271-0.188-1.4171 2.6204-0.55811 2.8636 0.607 0.17186 2.7044-2.5462 0.55811-2.8636z" style="paint-order:normal"/>
    </g>
    <path d="m132.34 76.547c-0.52246 0.49302-11.088-16.258-14.498-25.505-1.6494-4.4737-3.336-13.904-2.7285-14.085 0.57447-0.17067 3.015 9.1354 4.8531 13.562 3.6925 8.8918 12.807 25.619 12.373 26.028z" fill-opacity=".098039" style="paint-order:normal"/>
    <path d="m138.77 84.269c-1.4632-3.9066-10.237-9.3847-12.335-21.845-1.0828-6.4294-5.4931-32.224-8.2654-39.21 2.8806 7.0011 16.54 44.202 18.312 49.572 1.1071 3.356 0.85365 7.5644 2.2891 11.483z" fill-opacity=".19608" style="paint-order:normal"/>
    <path d="m138.77 84.269c-1.9074-6.4008-4.7237-10.27-6.339-15.342-2.7775-8.7219-2.3061-14.9-5.8757-26.362 3.6815 11.498 6.2807 14.332 8.6582 23.105 1.4858 5.4826 1.6762 12.183 3.5565 18.6z" style="paint-order:normal"/>
    <path d="m127.89 129.72s-3.594 13.728-6.9639 26.907c-7.3961 28.924-7.4009 33.853-7.409 33.816 0 0 6.0355-20.727 8.6196-31.781 2.153-9.2097 5.7533-28.942 5.7533-28.942z" fill-opacity=".58824" style="paint-order:normal"/>
    <path d="m154.08 2.1583s2.214 14.017 4.413 27.441c4.8263 29.462 6.799 33.979 6.7768 33.949 0 0-2.7849-21.408-4.8512-32.569-1.7217-9.3-6.3385-28.82-6.3385-28.82z" fill-opacity=".58824" style="paint-order:normal"/>
    <path d="m155.05 234.84c-1.2796-0.14127-2.2341 6.7767 0.26718 6.7385 3.1914-0.0487 2.527-6.4301-0.26718-6.7385z" fill-opacity=".19608" style="paint-order:normal"/>
    <path d="m155.27 234.95c-1.271-0.188-1.4171 2.6204-0.55811 2.8636 0.607 0.17186 2.7044-2.5462 0.55811-2.8636z" style="paint-order:normal"/>
    <path d="m97.775 241.21c-1.2796-0.14127-2.2341 6.7767 0.26718 6.7385 3.1914-0.0487 2.527-6.4301-0.26718-6.7385z" fill-opacity=".19608" style="paint-order:normal"/>
    <path d="m97.997 241.31c-1.271-0.188-1.4171 2.6204-0.55811 2.8636 0.607 0.17186 2.7044-2.5462 0.55811-2.8636z" style="paint-order:normal"/>
    <path d="m92.906 181.79c-1.1355 0.10757-1.7434-30.25 1.2745-44.722 1.4601-7.0018 7.0162-20.074 8.0079-19.721 0.93787 0.33385-3.4704 13.965-4.6297 21.087-2.329 14.307-3.7101 43.266-4.6527 43.356z" fill-opacity=".098039" style="paint-order:normal"/>
    <path d="m109.01 78.005c-0.66559 0.2521-6.0404-17.916-6.6122-27.123-0.27666-4.4544 0.90999-13.238 1.565-13.189 0.61948 0.04615 0.21586 8.9764 0.69333 13.453 0.95919 8.9941 4.9063 26.649 4.3538 26.858z" fill-opacity=".098039" style="paint-order:normal"/>
   </g>
   <g fill="none" stroke="#000" stroke-width="1px">
    <path transform="translate(-3.5 -4)" d="m107.83 27.339c12.281-3.8761 24.456-8.0914 36.504-12.64 4.8527-1.8318 9.685-3.7176 14.496-5.6569"/>
    <path transform="translate(-3.5 -4)" d="m107.83 27.339c10.57-5.1594 21.508-9.5642 32.704-13.17 6.0302-1.9421 12.135-3.6526 18.296-5.1265"/>
    <path transform="translate(-3.5 -4)" d="m107.83 27.339c0.28769 0.97788 0.46593 1.9879 0.53033 3.0052 0.0503 0.79453 0.0314 1.5924 0.0884 2.3865 0.12776 1.7793 0.63354 3.5072 1.149 5.2149 4.2286 14.008 9.3474 27.821 16.529 40.57 3.4492 6.1234 7.4062 12.078 9.3692 18.827 0.81826 2.813 1.2759 5.7329 1.3258 8.6621 0.0767 4.4978-0.80156 8.9532-1.7678 13.347-2.2756 10.347-5.0763 20.696-5.2149 31.289-0.11226 8.578 1.532 17.094 3.8007 25.367 2.4916 9.0862 5.7376 17.946 8.4853 26.958 1.022 3.3519 1.9806 6.7563 2.2097 10.253 0.31215 4.7651-0.77564 9.6135-3.0936 13.789"/>
    <path transform="translate(-3.5 -4)" d="m143.72 251.58c1.8929-3.3753 2.8508-7.2687 2.74-11.137-0.14025-4.8966-2.0149-9.7261-5.2149-13.435"/>
    <path transform="translate(-3.5 -4)" d="m170.59 236.2c-5.6732 3.5249-11.034 7.5527-15.998 12.021-2.1377 1.924-4.2021 3.9294-6.1872 6.0104"/>
    <path transform="translate(-3.5 -4)" d="m143.72 251.58c0.99618 0.0568 1.9772 0.36335 2.8284 0.88389 0.73444 0.4491 1.3718 1.0561 1.8562 1.7678"/>
    <path transform="translate(-3.5 -4)" d="m170.59 236.2c-1.9426-7.4654-3.3905-15.059-4.331-22.716-0.77444-6.3042-1.2051-12.652-1.2374-19.004-0.0885-17.402 2.8095-34.783 1.6794-52.149-0.32395-4.978-0.97849-9.9693-0.53033-14.938 0.50346-5.5814 2.3791-10.931 3.8007-16.352 1.3407-5.1124 2.2875-10.359 2.2981-15.645 0.01-4.9175-0.78867-9.7949-1.4142-14.672-0.93461-7.2874-1.486-14.618-2.2981-21.92-1.8702-16.817-5.1257-33.479-9.7227-49.763"/>
    <path transform="translate(-3.5 -4)" d="m108.45 30.256c-0.92208 0.19854-1.8015 0.59278-2.5633 1.149-0.90496 0.66087-1.6414 1.5507-2.1213 2.5633"/>
    <path transform="translate(-3.5 -4)" d="m103.77 33.968c0.20707 0.66279 0.35515 1.344 0.44194 2.0329 0.16222 1.2877 0.10984 2.5914 0.0884 3.8891-0.12992 7.8642 0.88596 15.696 1.7678 23.511 1.0929 9.6865 1.9824 19.395 3.0936 29.08 0.51619 4.4987 1.0772 9.0856 0.17678 13.523-0.61314 3.0218-1.8845 5.8649-3.182 8.6621-3.5105 7.5679-7.3009 15.06-9.6343 23.069-2.3353 8.0158-3.1636 16.402-3.3588 24.749-0.21383 9.144 0.3189 18.292 1.149 27.4 0.60595 6.6487 1.3713 13.3 1.3258 19.976-0.01888 2.7744-0.18518 5.5874-1.0607 8.2201-0.52613 1.5822-1.305 3.08-2.2981 4.4194"/>
    <path transform="translate(-3.5 -4)" d="m92.277 222.5c1.4992 1.0671 2.8434 2.3515 3.9775 3.8007 2.0151 2.575 3.3474 5.649 4.0659 8.8388 0.77729 3.4508 0.82931 7.1644-0.53033 10.43-1.3427 3.2248-4.0643 5.848-7.3362 7.0711"/>
    <path transform="translate(-3.5 -4)" d="m117.64 240.36c-1.9441 1.3651-3.8318 2.8104-5.6568 4.331-2.1168 1.7638-4.1477 3.6275-6.1872 5.4801-2.1623 1.9641-4.4102 3.9623-7.1595 4.9498-1.5496 0.55658-3.2217 0.76939-4.8614 0.61871"/>
    <path transform="translate(-3.5 -4)" d="m92.454 252.64 1.3258 3.0936"/>
    <path transform="translate(-3.5 -4)" d="m92.719 251.76c-0.56569-3.4532-0.94942-6.9363-1.149-10.43-0.35881-6.2791-0.1217-12.592 0.70712-18.827"/>
    <path transform="translate(-3.5 -4)" d="m143.72 251.58c-1.2715-3.8118-2.1325-7.7605-2.5633-11.756-0.45898-4.2568-0.42926-8.5662 0.0884-12.816"/>
    <path transform="translate(-3.5 -4)" d="m117.64 240.36c-0.42934-6.4433-0.66518-12.9-0.7071-19.357-0.0648-9.9798 0.34048-20.019 2.3865-29.787 0.72817-3.4764 1.6616-6.9059 2.5633-10.341 4.492-17.115 8.2094-34.433 11.137-51.884"/>
   </g>
  </g>
 </g>
</svg>
