<svg cursor="default" enable-background="new" version="1.1" viewBox="0 0 256 256" xmlns="http://www.w3.org/2000/svg" xmlns:xlink="http://www.w3.org/1999/xlink">
 <defs>
  <linearGradient id="innoGrad1">
   <stop stop-color="#f55" offset="0"/>
   <stop stop-color="#ff2a2a" offset="1"/>
  </linearGradient>
  <linearGradient id="linearGradient1924" x1="99.005" x2="161.28" y1="120.11" y2="120.11" gradientUnits="userSpaceOnUse" xlink:href="#innoGrad1"/>
  <linearGradient id="linearGradient1932" x1="103.74" x2="130.9" y1="174.92" y2="174.92" gradientUnits="userSpaceOnUse" xlink:href="#innoGrad1"/>
  <linearGradient id="linearGradient1940" x1="88.438" x2="124.63" y1="47.967" y2="47.967" gradientUnits="userSpaceOnUse" xlink:href="#innoGrad1"/>
 </defs>
 <g display="none" fill="#ffd5d5">
  <path d="m125.8-66.918c0.19113-0.13799 0.36408-0.30229 0.53601-0.46375 0.14221-0.10162 0.26069-0.22783 0.40714-0.32395 0.16197-0.1145 0.35231-0.17689 0.51665-0.28607 0.19959-0.09748 0.38503-0.22094 0.58248-0.32348 0.16429-0.1074 0.34952-0.17162 0.51877-0.26764 0.14546-0.05932 0.27793-0.1424 0.42003-0.20938 0.12023-0.08121 0.24331-0.16517 0.378-0.22069 0.11434-0.06734 0.23138-0.13631 0.3565-0.18236 0.11722-0.09046 0.2551-0.14972 0.3702-0.24206 0.12005-0.09046 0.26297-0.14524 0.38556-0.22991 0.0832-0.03548 0.15839-0.08157 0.23866-0.12261l-0.11422 1.0484c-0.0771 0.04202-0.15789 0.07632-0.23389 0.12041-0.12825 0.06313-0.2543 0.13186-0.37378 0.21041-0.13283 0.08533-0.25518 0.18803-0.3953 0.26009-0.11865 0.05795-0.23519 0.12005-0.35306 0.17953-0.12646 0.065-0.24907 0.13719-0.37221 0.20819-0.1363 0.07532-0.27366 0.14348-0.42109 0.19516-0.17679 0.07013-0.34407 0.15971-0.51427 0.24448-0.19875 0.0963-0.38624 0.21057-0.57564 0.32339-0.17845 0.09301-0.3488 0.19995-0.51187 0.31788-0.13309 0.10018-0.25447 0.21623-0.39786 0.30275-0.19966 0.13825-0.38689 0.29452-0.53694 0.48733l0.0901-1.0262z"/>
  <path d="m120.85-66.835c0.0444-0.58608 0.20712-1.1269 0.35945-1.6828 0.0426-0.17144 0.1709-0.29008 0.25244-0.43939 0.0908-0.12969 0.22965-0.20993 0.36355-0.28833 0.11481-0.09222 0.21597-0.20065 0.34376-0.27466 0.11691-0.08744 0.24277-0.16205 0.3659-0.24035 0.12401-0.06714 0.24427-0.13918 0.3693-0.20488 0.12704-0.04094 0.21978-0.13815 0.33958-0.19322 0.13016-0.05459 0.26091-0.10723 0.39545-0.15359 0.14758-0.07245 0.30124-0.12868 0.44917-0.20449 0.17264-0.07193 0.33051-0.17437 0.50194-0.24755 0.12905-0.04661 0.24417-0.11976 0.37097-0.17224l-0.12165 1.0114c-0.12107 0.04466-0.24065 0.09361-0.35806 0.1472-0.16553 0.09957-0.33096 0.19871-0.50549 0.28211-0.15026 0.07766-0.31182 0.12952-0.46037 0.21079-0.12918 0.05722-0.25712 0.11707-0.38583 0.17521-0.11047 0.06853-0.21729 0.14262-0.33882 0.1916-0.11929 0.06619-0.24306 0.12408-0.36002 0.19469-0.12268 0.08035-0.24608 0.15912-0.36658 0.24273-0.11993 0.08554-0.2223 0.19376-0.34622 0.27334-0.12488 0.07823-0.24168 0.15534-0.31459 0.28895-0.0894 0.12685-0.17877 0.2506-0.22355 0.40223-0.12757 0.38943-0.33775 1.4102-1e-3 -0.2908 0 0-0.32924 0.97202-0.32924 0.97202z"/>
  <path d="m116.69-60.997c-8e-3 -0.27892-0.0422-0.55612-0.0636-0.83416-0.0144-0.19126-0.0178-0.38306-0.0196-0.57478-3e-3 -0.19291 3e-3 -0.38573 3e-3 -0.57862-8e-3 -0.19185 1e-4 -0.38068 0.0301-0.57012 0.0312-0.17479 0.0437-0.35181 0.0508-0.52895 5e-3 -0.17638 5e-3 -0.35287 5e-3 -0.52932-0.0259-0.5256 0.0959-0.96293 0.19265-1.5112 5e-3 -0.02456 7e-3 -0.04987 0.0151-0.07367 0.0151-0.04588 0.042-0.08718 0.0589-0.13241 0.0252-0.06716 0.0376-0.13421 0.0653-0.20071 0.0986-0.12572 0.1407-0.27044 0.16332-0.4256-0.56284 3.1388 0.46621-2.5482-0.0863 0.55712 0.25734-0.39361 0.0866-1.0068 0.31962-1.4368 0.0806-0.16312 0.12873-0.34032 0.20621-0.50422 0.0611-0.14307 0.0859-0.29579 0.17526-0.42547 0.0814-0.11955 0.14631-0.24728 0.21101-0.37658 0.0908-0.10021 0.18811-0.19153 0.26557-0.30395 0.0752-0.06626 0.0866-0.17006 0.14547-0.2469 0.0299-0.03903 0.0664-0.07265 0.0969-0.11123 0.10869-0.07863 0.17624-0.18992 0.26088-0.28912 0.0619-0.11825 0.17487-0.1924 0.2583-0.29231 0.0973-0.11774 0.22929-0.19974 0.32915-0.3144 0.10773-0.11992 0.25125-0.19223 0.37742-0.28705 0.12143-0.07475 0.24236-0.15575 0.3517-0.24773 0.12999-0.07679 0.25194-0.16251 0.37874-0.24426 0.14604-0.08205 0.26276-0.2007 0.39206-0.30424 0.0893-0.06275 0.19297-0.08278 0.29835-0.09911l-0.14198 1.0279c-0.0899 0.02274-0.17662 0.05023-0.25004 0.10976-0.13004 0.1024-0.26926 0.19199-0.39861 0.2952-0.12313 0.08901-0.254 0.16632-0.3758 0.25725-0.12169 0.08038-0.23167 0.17662-0.35817 0.24985-0.12738 0.07281-0.24883 0.15756-0.35054 0.2642-0.11 0.11066-0.22164 0.21976-0.32804 0.33395-0.0909 0.09692-0.1768 0.19793-0.25361 0.30653-0.0767 0.104-0.17409 0.18662-0.26148 0.28128-0.0947 0.11298-0.14905 0.24957-0.24035 0.36545-0.0832 0.09657-0.17878 0.18364-0.24671 0.29129-0.072 0.12893-0.13739 0.26141-0.21607 0.38664-0.0614 0.1304-0.0975 0.27023-0.16246 0.39914-0.0692 0.16698-0.13273 0.33632-0.20505 0.50204-0.13125 0.38871-0.25925 1.2156 0.057-0.56814-0.0629 0.36254-0.12473 0.72529-0.18882 1.0876-8e-3 0.04401-0.0245 0.10434-0.0357 0.14775-6e-3 0.0232-0.0216 0.0933-0.0177 0.06966 4e-3 -0.02311 0.46746-2.7256-0.0262 0.1518-0.0374 0.15385-0.10712 0.28896-0.17821 0.42928-0.0398 0.13792-0.10051 0.26883-0.12475 0.41076 0.0541-0.3123 0.10996-0.62429 0.16224-0.93689 5e-3 -0.02782-0.0162 0.05434-0.0194 0.08236-0.0131 0.11632 0.0103 0.23678 4e-4 0.35345 2.2e-4 0.1768 8.6e-4 0.35361-2e-3 0.53039-4e-3 0.18005-0.011 0.36049-0.0401 0.53857-0.0324 0.19299-0.0665 0.38219-0.0503 0.57937-1e-5 0.18722 5e-3 0.37436 2e-3 0.56158-8.3e-4 0.20509-2e-3 0.41022 2e-3 0.61529 7e-3 0.26144 0.0104 0.52738 0.0721 0.78264l-0.30497 0.9799z"/>
  <path d="m108.85-91.646c0.23117-0.03403 0.45037-0.15603 0.64236-0.28693 0.15619-0.108 0.32335-0.19766 0.47698-0.30751 0.12875-0.09908 0.26113-0.18233 0.41072-0.24778 0.1327-0.08249 0.26417-0.16436 0.39515-0.24896 0.14616-0.08444 0.28946-0.17053 0.43193-0.26043 0.11886-0.10848 0.25624-0.19514 0.39074-0.28286 0.12926-0.11898 0.26959-0.22626 0.41095-0.33005 0.13551-0.09077 0.26887-0.18348 0.40245-0.2777 0.13575-0.11526 0.25915-0.24402 0.40211-0.35183 0.0913-0.09669 0.20725-0.16717 0.27054-0.28672 0.0964-0.10344 0.18158-0.21481 0.27209-0.32348 0.11927-0.11582 0.22739-0.24393 0.35215-0.35383 0.0802-0.11362 0.1979-0.18135 0.30135-0.2681 0.019-0.01151 0.0371-0.02451 0.057-0.03452 0.0593-0.02996 0.0675-0.0182 0.11552-0.06238 0.0501-0.04611 0.0814-0.08415 0.14206-0.12033 0.0888-0.09243 0.20435-0.14792 0.30326-0.22613 0.0932-0.0496 0.16266-0.12989 0.24579-0.19321l-0.0936 1.0544c-0.0796 0.07006-0.16361 0.13468-0.25317 0.19167-0.10721 0.06783-0.20161 0.15166-0.30424 0.22607-0.0991 0.08048-0.19922 0.15309-0.30975 0.21748-0.10682 0.07396-0.1961 0.16676-0.29148 0.25459-0.11826 0.10895-0.24209 0.21519-0.33366 0.34868-0.0864 0.11679-0.18519 0.22412-0.26767 0.34407-0.0884 0.10155-0.19549 0.18451-0.30231 0.26594-0.14015 0.10439-0.27227 0.21622-0.40044 0.3351-0.13038 0.10365-0.27151 0.19046-0.40541 0.28913-0.14034 0.09983-0.27729 0.20303-0.41076 0.31196-0.13303 0.09964-0.25716 0.21104-0.39867 0.2988-0.14533 0.08621-0.29466 0.16621-0.43054 0.26741-0.13305 0.08447-0.26748 0.1677-0.40673 0.24145-0.1363 0.0729-0.26356 0.15989-0.39675 0.23808-0.15964 0.09403-0.31528 0.19501-0.47781 0.28409-0.21554 0.11549-0.46179 0.17044-0.66026 0.31988l0.12017-1.0261z"/>
 </g>
 <g>
  <g>
   <g stroke-width="0">
    <path d="m103.74 98.739c1.9092 9.9115 1.5802 21.205 2.1365 30.055 0.55764 11.301 2.559 22.475 4.9127 33.524 1.5632 7.378 3.8068 14.582 5.7556 21.861 1.186 4.113 0.76878 8.4356 0.93394 12.668 0.0498 5.5109 0.10571 11.027-0.64884 16.492-1.2328 9.9375-1.6798 20.152-5.4758 29.525-0.26377 0.84904-1.2465 2.1353-0.18713 2.826 1.213 0.89135 3.0139 0.54838 3.9581 1.8807 1.0689 1.2688 2.9262-0.0489 4.0124 1.1304 0.51188 0.61082 0.1955 1.6502 1.022 2.0768 1.0646 0.64983 2.4305 0.15832 3.5752-0.0186 1.3221-0.79428 1.0732-2.646 1.8437-3.8338 1.4133-2.8814 2.6666-5.9189 2.7725-9.1743 0.68528-6.0733-0.31047-12.616 1.1242-18.301 2.1674-3.9617 1.3296-7.8339 0.88551-11.155-0.90673-3.9485-0.37111-8.0389-1.1976-11.997-0.9946-3.8414-2.3334-7.6192-2.377-11.624-0.39536-8.0026-0.27853-16.044 0.0152-24.048 0.10889-1.3775 0.37722-2.7722-0.32141-4.0509-4.2265-12.442-8.051-25.035-12.917-37.249-3.1012-6.4772-5.7168-16.722-9.8226-20.587z" fill="url(#linearGradient1932)"/>
    <path d="m142.62 6.2943c-5.9506-0.00632-11.196 3.9141-14.187 8.8475-4.2286 8.9117-1.872 4.4735-3.3323 10.147-3.7855 10.587-9.692 20.175-15.306 29.864-4.2255 7.5303-7.1974 15.679-10.172 23.76-1.5659 4.6848 0.09591 9.6534 2.1728 13.894 5.7178 12.18 12.178 24.061 16.437 36.859 3.5801 10.511 7.2723 21.014 10.34 31.68 2.0526 6.7427 1.2832 13.875 2.1616 20.797 2.5723 6.418 5.312 12.834 6.5445 19.682 1.2553 5.6839 1.3776 11.514 2.1664 17.26 0.91362 3.8399 3.1988 7.1655 4.6235 10.819 0.88367 1.6015 1.6737 4.2011 3.9605 4.0186 2.2813-0.26196 4.7712-1.124 5.8099-3.3637 1.0888-1.9074 2.2473-3.8912 2.8874-5.9622-0.2368-5.3217-0.1083-10.87-2.4863-15.788-3.1101-6.7877-5.6282-13.817-7.2811-21.103-0.81995-4.0512-1.9632-8.0461-3.9343-11.703-0.86724-2.1211-0.46443-4.573-0.64282-6.8491-0.0965-13.97 0.92915-27.983-0.33368-41.923-1.4222-10.664-5.4104-20.804-10.651-30.145-2.0034-3.4737-3.3933-7.392-2.9346-11.443 0.46592-5.2057 4.2186-9.2558 6.5819-13.712 6.192-10.884 12.424-21.745 18.736-32.56 2.3631-4.4191 5.1771-8.6728 6.8372-13.423 1.7328-5.4482 0.0772-12.139-4.9212-15.294-3.8298-2.5846-8.3917-4.46-13.077-4.3609z" fill="url(#linearGradient1924)"/>
    <path d="m101.75 17.353c-4.0484-0.08232-8.0995 0.95735-11.625 2.9448-0.55923 0.37026-1.2932 0.59524-1.6874 1.1525 0.47611 2.464 0.29991 3.4048 0.60571 5.0487 2.3939 17.323 5.4967 34.547 9.2738 51.622-0.07464 0.3923 0.41256 0.65444 0.64651 0.28882 0.94305-2.1518 1.7299-4.3823 2.6077-6.5662 2.0586-5.3649 4.1059-10.766 6.9376-15.773 3.9769-7.2241 8.5412-14.132 11.993-21.64 1.4467-3.1521 2.9386-6.2986 4.0596-9.5844 0.17217-0.33764 0.0183-0.69998-0.35631-0.79394-6.0995-3.2671-12.682-5.9042-19.612-6.6198-0.9459-0.06765-1.8949-0.08493-2.843-0.08028z" fill="url(#linearGradient1940)"/>
   </g>
   <g fill="#fff">
    <path d="m140.87 4.3346c1.0076 0.39566-10.673 25.734-19.63 46.315-5.1083 11.737-9.058 23.805-9.949 24.096-1.6468 0.53795-5.9286-6.7345-5.7521-8.4821 0.29627-2.9335 34.078-62.421 35.331-61.929z" fill-opacity=".098039" style="paint-order:normal"/>
    <path d="m159.45 28.713s-5.7754 9.4392-12.905 21.4c-15.647 26.251-17.27 30.906-17.265 30.869 0 0 11.452-18.769 17.222-28.844 4.8073-8.3949 12.948-23.425 12.948-23.425z" fill-opacity=".58824" style="paint-order:normal"/>
    <path d="m159.35 14.456s1.2807 3.7822 1.3082 5.8097c0.0337 2.4851-0.16191 6.1357-0.16191 6.1357 0.72185-2.8184 1.9606-7.3961-1.1463-11.945z" fill-opacity=".58824" style="paint-order:normal"/>
    <path d="m122.21 41.969c-0.51713-0.11752 4.1906-13.203 7.8898-18.965 1.7898-2.7876 6.376-7.5842 6.7544-7.2901 0.35782 0.27809-3.8152 5.4795-5.4923 8.3618-3.3692 5.7905-8.7226 17.991-9.1519 17.893z" fill-opacity=".098039" style="paint-order:normal"/>
    <g fill-opacity=".19608">
     <path d="m143.46 34.746c-1.75 2.3298-9.4316 4.6883-13.016 12.467-1.8493 4.0134-9.3199 20.106-12.57 24.251 3.337-4.1403 19.788-26.363 22.007-29.598 1.3867-2.0217 1.8489-4.7787 3.5791-7.12z" style="paint-order:normal"/>
     <path d="m149.74 41.387c-0.7302 0.48592-2.4794 0.80749-3.39 1.68-1.2657 1.2129-9.3831 12.435-9.9944 14.05 0.82164-1.3764 12.403-14.957 13.384-15.73z" style="paint-order:normal"/>
     <path d="m158.12 18.295c-1.0714-0.29454-2.858 6.6235-0.71949 6.8799 2.7286 0.32704 3.059-6.2368 0.71949-6.8799z" style="paint-order:normal"/>
    </g>
    <g>
     <path d="m143.46 34.746c-1.75 2.3298-4.069 3.4449-5.5344 5.2728-2.5198 3.1432-2.4554 5.7992-5.7059 9.9444 3.337-4.1403 5.4423-4.8623 7.6612-8.0973 1.3867-2.0217 1.8489-4.7787 3.5791-7.12z" style="paint-order:normal"/>
     <path d="m149.74 41.387c-0.7302 0.48592-2.4794 0.80749-3.39 1.68-1.2657 1.2129-1.9227 2.9931-2.534 4.6083 0.82163-1.3764 4.9424-5.5153 5.9239-6.2884z" style="paint-order:normal"/>
     <path d="m158.3 18.43c-1.0575-0.34102-1.577 2.4959-0.87856 2.8445 0.4935 0.24626 2.6644-2.2687 0.87856-2.8445z" style="paint-order:normal"/>
    </g>
    <path d="m93.847 27.177c0.44438 2.8797 6.1058 8.5822 5.5979 17.131-0.26206 4.4112-1.2638 22.125-0.35248 27.313-0.98997-5.2247-5.0162-32.579-5.4472-36.478-0.26936-2.4367 0.62336-5.0858 0.20182-7.9664z" fill-opacity=".19608" style="paint-order:normal"/>
    <path d="m93.847 27.177c0.74073 5.2492 1.9579 9.2833 2.5929 13.497 1.092 7.2451 0.73778 11.114 2.1356 20.594-1.4488-9.5618-2.5883-12.794-3.4942-19.866-0.56617-4.4196-0.50639-8.979-1.2344-14.225z" style="paint-order:normal"/>
    <path d="m141.85 178.73c0.4979 2.001-1.6366 7.2716 1.034 12.712 1.378 2.8071 6.8783 14.093 7.7031 17.729-0.78345-3.6806-5.6401-22.634-6.4256-25.297-0.4909-1.6639-1.7983-3.1486-2.3114-5.1438z" fill-opacity=".19608" style="paint-order:normal"/>
    <path d="m127.37 87.966c-0.62336-0.60545-1.5797-2.9097-2.5269-3.3945-1.3167-0.674-11.955-1.5063-13.247-0.78851 1.2301-0.15946 14.86 3.4907 15.774 4.183z" fill-opacity=".19608" style="paint-order:normal"/>
    <path d="m141.85 178.73c0.4979 2.001 0.0748 3.7721 0.42424 5.3927 0.60081 2.7868 2.0879 3.9372 2.9126 7.5725-0.78344-3.6806-0.23996-5.1589-1.0255-7.8214-0.4909-1.6639-1.7983-3.1486-2.3114-5.1438z" style="paint-order:normal"/>
    <path d="m127.37 87.966c-0.62336-0.60545-1.5797-2.9097-2.5269-3.3945-1.3167-0.674-2.7335 0.14253-4.0255 0.86029 1.2301-0.15948 5.6381 1.8419 6.5524 2.5342z" style="paint-order:normal"/>
    <path d="m152.5 229.65c0.33687-0.2426 1.5009-0.49904 1.8083-0.90393 0.42733-0.56275 1.7104-5.4965 1.4811-6.1643-0.0281 0.5919-2.8872 6.6962-3.2894 7.0682z" fill-opacity=".19608" style="paint-order:normal"/>
    <path d="m152.5 229.65c0.33687-0.2426 1.5009-0.49904 1.8083-0.90393 0.42733-0.56275 0.16206-1.2975-0.0672-1.9653-0.0281 0.5919-1.3388 2.4973-1.741 2.8692z" style="paint-order:normal"/>
    <path d="m129.34 220.6c-0.15132-1.935 3.184-6.4605 1.3458-11.94-0.94848-2.8271-4.7188-14.187-4.9072-17.689 0.13486 3.5373 1.7203 21.889 2.0549 24.484 0.20911 1.6218 1.3378 3.2129 1.5066 5.1451z" fill-opacity=".19608" style="paint-order:normal"/>
    <path d="m130.62 214.73c-0.26854-2.0412-0.0207-3.7407-0.20796-5.3872-0.32196-2.8314-1.1515-4.1541-1.5946-7.8526 0.4196 3.7382 0.10568 5.133 0.53222 7.8644 0.26656 1.707 0.99321 3.338 1.2704 5.3754z" style="paint-order:normal"/>
    <g fill-opacity=".19608">
     <path d="m132.22 100.32c0.80702 4.6615 9.6288 13.65 9.2642 27.582-0.18814 7.1884-0.86727 36.052 0.75398 44.444-1.7417-8.4482-9.113-52.738-9.9478-59.058-0.52174-3.9498 0.70222-8.304-0.0704-12.968z" style="paint-order:normal"/>
     <path d="m141.99 182.01c-0.58689-3.39-7.0024-9.9267-6.7372-20.058 0.13682-5.2276 0.6307-26.218-0.54832-32.321 1.2666 6.1438 6.6273 38.353 7.2344 42.949 0.37943 2.8724-0.51068 6.039 0.0512 9.4308z" style="paint-order:normal"/>
     <path d="m115.31 124.53c0.44438 2.8797 6.1058 8.5822 5.5979 17.131-0.26206 4.4112-1.2638 22.125-0.35248 27.313-0.98997-5.2247-5.0162-32.579-5.4472-36.478-0.26936-2.4367 0.62335-5.0858 0.20182-7.9664z" style="paint-order:normal"/>
    </g>
    <path d="m115.31 124.53c0.74073 5.2492 1.9579 9.2833 2.5929 13.497 1.092 7.2451 0.73779 11.114 2.1356 20.594-1.4488-9.5618-2.5883-12.794-3.4942-19.866-0.56617-4.4196-0.50639-8.979-1.2344-14.225z" style="paint-order:normal"/>
    <path d="m118.42 221.27c0.12686-1.9191-2.7026-6.4054-1.1487-11.841 0.80174-2.8044 3.9886-14.073 4.1458-17.547-0.11179 3.5083-1.4424 21.71-1.7241 24.284-0.17606 1.6086-1.1313 3.1873-1.273 5.1037z" fill-opacity=".19608" style="paint-order:normal"/>
    <path d="m118.42 221.27c0.27589-3.4883 0.0705-6.262 0.26584-9.0678 0.33591-4.8246 1.1192-7.2665 1.5788-13.575-0.4384 6.3684-0.16799 8.6143-0.59898 13.301-0.26933 2.9287-0.962 5.8577-1.2456 9.3421z" style="paint-order:normal"/>
    <path d="m119.52 248.3c0.24216-0.6124-0.21086-2.3711 0.86442-3.9805 0.55482-0.83041 2.7729-4.1708 3.1876-5.2868-0.40352 1.1321-2.7418 6.9269-3.103 7.7366-0.22571 0.50601-0.70231 0.92075-0.94903 1.5307z" fill-opacity=".19608" style="paint-order:normal"/>
    <path d="m119.52 248.3c0.45493-1.1084 0.6782-2.0342 1.0355-2.9284 0.61432-1.5378 1.1252-2.2519 1.9351-4.2605-0.80928 2.0304-0.95613 2.7908-1.587 4.2736-0.39426 0.92664-0.92654 1.8091-1.3836 2.9154z" style="paint-order:normal"/>
    <path d="m116.37 220.72c-0.1169 1.0572 1.3369 3.6049 0.34583 6.5699-0.51138 1.5299-2.547 7.6782-2.7186 9.5934 0.14733-1.9356 1.3265-11.959 1.5449-13.375 0.13651-0.88445 0.70276-1.7334 0.82781-2.7887z" fill-opacity=".19608" style="paint-order:normal"/>
    <path d="m116.37 220.72c-0.23752 1.9205-0.1917 3.458-0.36809 5.0034-0.30328 2.6574-0.79561 3.9874-1.2034 7.4616 0.39757-3.5078 0.30297-4.7553 0.65539-7.3339 0.22026-1.6116 0.67439-3.2129 0.9161-5.1311z" style="paint-order:normal"/>
    <path d="m130.95 96.598s6.5896 10.842 8.9233 24.569c5.122 30.129 3.0174 23.852 2.9972 23.821 0 0 0.47324-12.344-1.6721-23.754-1.7875-9.5073-10.248-24.636-10.248-24.636z" fill-opacity=".58824" style="paint-order:normal"/>
    <path d="m88.438 21.451s2.0811 10.217 3.7355 20.596c3.6311 22.778 6.5611 36.969 6.568 36.941 0 0-5.8756-27.54-7.1039-36.217-1.0234-7.2291-3.1997-21.32-3.1997-21.32z" fill-opacity=".58824" style="paint-order:normal"/>
   </g>
   <g fill="none" stroke="#000" stroke-width="1px">
    <path d="m124.98 24.953c0.24168-3.6145 1.3745-7.1662 3.2704-10.253 2.3588-3.8407 6.0038-6.9954 10.341-8.2201 4.8448-1.3679 10.135-0.23428 14.584 2.1213 2.7664 1.4647 5.351 3.4638 6.8943 6.1872 1.2075 2.1309 1.7182 4.622 1.6267 7.0695-0.0916 2.4475-0.76871 4.8527-1.8035 7.0726-0.25052 0.53746-0.52186 1.0649-0.79549 1.591-5.4507 10.479-11.828 20.447-17.589 30.759-2.6011 4.6554-5.0795 9.3858-7.955 13.877-1.6625 2.5966-3.4829 5.1675-4.331 8.1317-0.20685 0.72296-0.35339 1.463-0.44194 2.2097-0.21326 1.7985-0.0874 3.6351 0.35355 5.3917 0.76938 3.0651 2.4583 5.8026 3.9775 8.5737 5.031 9.1769 8.4091 19.295 9.5459 29.698 0.47435 4.3407 0.56061 8.715 0.53033 13.081-0.0677 9.7542-0.71456 19.506-0.44195 29.257 0.0418 1.4936 0.1103 3.0144 0.61872 4.4194 0.42628 1.178 1.1447 2.2258 1.6794 3.3588 0.81375 1.7243 1.1895 3.6162 1.591 5.4801 1.5313 7.1096 3.5465 14.144 6.5407 20.771 1.1624 2.573 2.4809 5.1104 3.0936 7.8666 0.58478 2.6305 0.50311 5.3564 0.70711 8.0433 0.0625 0.82331 0.15213 1.6472 0.1248 2.4724-0.0273 0.82523-0.17732 1.6608-0.56674 2.3889-0.24323 0.45476-0.57518 0.85953-0.7955 1.3258-0.29511 0.62456-0.37909 1.3366-0.70711 1.9446-0.2802 0.5193-0.72154 0.93132-1.0607 1.4142-0.36706 0.52268-0.61687 1.1317-1.0607 1.591-0.3429 0.35491-0.7846 0.60073-1.2429 0.78376s-0.93733 0.30768-1.4087 0.45368c-0.72604 0.22485-1.4501 0.50376-2.2097 0.53033-0.76187 0.0266-1.5374-0.21698-2.1213-0.70711-0.35379-0.29699-0.63095-0.67415-0.88388-1.0607-1.3223-2.0206-2.0577-4.3594-3.0936-6.5407-0.86609-1.8238-1.9511-3.5562-2.5633-5.4801-0.67786-2.1303-0.74589-4.3979-0.88389-6.6291-0.55072-8.9043-2.3254-17.784-5.8336-25.986-0.82264-1.9234-1.7426-3.8168-2.2981-5.8336-0.35707-1.2963-0.55998-2.6342-0.61872-3.9775-0.0708-1.6196 0.067-3.2404 0.0884-4.8614 0.0324-2.4573-0.20322-4.9141-0.61872-7.3362-0.95968-5.5945-2.8672-10.974-4.6846-16.352-3.9524-11.695-7.5264-23.549-12.551-34.825-3.2559-7.3063-7.105-14.333-10.518-21.567-0.60275-1.2775-1.1926-2.5631-1.6794-3.8891-1.0041-2.7349-1.5632-5.704-1.0607-8.5737 0.32208-1.8392 1.0659-3.573 1.7678-5.3033 1.8986-4.6803 3.5319-9.4718 5.6568-14.054 3.1255-6.7393 7.2764-12.945 10.872-19.445 3.142-5.681 5.8625-11.595 8.1317-17.678"/>
    <path d="m125.16 24.246c-2.9456-1.6793-6.0221-3.1288-9.1924-4.331-6.4169-2.4335-13.487-3.8453-20.153-2.2097-2.7819 0.6827-5.4346 1.8884-7.7782 3.5355"/>
    <path d="m88.035 21.241c1.6069 12.459 3.582 24.87 5.922 37.211 1.4015 7.392 2.9339 14.759 4.5962 22.097"/>
    <path d="m103.06 96.989c0.80796 3.7884 1.3693 7.6293 1.6794 11.49 0.48615 6.0542 0.35421 12.14 0.61872 18.208 0.33988 7.7968 1.3342 15.554 2.6516 23.246 1.6551 9.6636 3.8228 19.244 6.6291 28.638 0.92167 3.0853 1.9168 6.1718 2.2981 9.3692 0.33178 2.782 0.1923 5.5952 0.17677 8.3969-0.0193 3.477 0.15314 6.9562 0 10.43-0.15524 3.5214-0.64416 7.0181-1.0607 10.518-1.0635 8.9375-1.708 18.128-5.3917 26.34-0.0947 0.21104-0.19152 0.42187-0.26101 0.64249-0.0695 0.22062-0.11125 0.45279-0.0926 0.68334 0.0231 0.28512 0.13949 0.55927 0.3138 0.78608s0.40489 0.40737 0.65847 0.53974c0.4529 0.23641 0.9676 0.31877 1.4704 0.40937s1.0169 0.19791 1.4464 0.47452c0.30187 0.1944 0.54688 0.46302 0.80354 0.71411 0.25665 0.25108 0.53712 0.49261 0.87584 0.61171 0.26881 0.0945 0.56002 0.1064 0.8444 0.0885s0.56635-0.0644 0.85068-0.0832c0.28432-0.0188 0.57542-9e-3 0.84515 0.083 0.26973 0.0919 0.51764 0.27393 0.64175 0.53042 0.0785 0.16215 0.10422 0.34439 0.11864 0.52395 0.0144 0.17955 0.0187 0.36096 0.0581 0.53671 0.0522 0.23223 0.16581 0.44929 0.32042 0.63025s0.34951 0.32612 0.56346 0.43041c0.39026 0.19024 0.83511 0.24273 1.2691 0.22973 0.43397-0.013 0.86328-0.0883 1.2942-0.14133 0.27649-0.034 0.5548-0.059 0.8268-0.11913 0.272-0.0602 0.54004-0.15741 0.76419-0.32281 0.31997-0.2361 0.52947-0.59558 0.66593-0.96909 0.13646-0.3735 0.20787-0.76696 0.30634-1.1522 0.51717-2.0234 1.7667-3.7805 2.4749-5.7452 0.49092-1.3621 0.71464-2.8047 0.88388-4.2426 0.68311-5.804 0.51911-11.68 0-17.501-0.14435-1.6186-0.31616-3.2367-0.35355-4.8614-0.0609-2.646 0.23731-5.3 0.88388-7.8666"/>
    <path d="m128.78 220.29c0.60669-0.52199 1.1184-1.1541 1.5026-1.8562 0.57715-1.0546 0.86002-2.2502 0.97227-3.4471 0.17415-1.857-0.0485-3.7284-0.35355-5.5685-0.34103-2.0567-0.78649-4.1046-0.88389-6.1872-0.0716-1.5311 0.0458-3.0693-0.0884-4.5962-0.30572-3.479-1.8955-6.7206-2.4749-10.165-0.21609-1.2844-0.28999-2.5881-0.35355-3.8891-0.2445-5.0043-0.34114-10.016-0.26517-15.026 0.0554-3.6563 0.20282-7.3112 0.44194-10.96"/>
   </g>
  </g>
 </g>
</svg>
