<svg cursor="default" version="1.1" viewBox="0 0 256 256" xmlns="http://www.w3.org/2000/svg" xmlns:xlink="http://www.w3.org/1999/xlink">
 <defs>
  <linearGradient id="linearGradient864">
   <stop stop-color="#e6e6e6" offset="0"/>
   <stop stop-color="#f2f2f2" offset="1"/>
  </linearGradient>
  <linearGradient id="linearGradient866" x1="126.02" x2="126.41" y1="179.57" y2="142.42" gradientTransform="matrix(.47635 1.0293 -.89877 .44108 212.59 -68.206)" gradientUnits="userSpaceOnUse" xlink:href="#linearGradient864"/>
  <linearGradient id="linearGradient866-0" x1="126.02" x2="126.41" y1="179.57" y2="142.42" gradientTransform="matrix(-.087529 .8168 -.74733 -.053675 208.95 38.216)" gradientUnits="userSpaceOnUse" xlink:href="#linearGradient864"/>
  <linearGradient id="linearGradient866-0-8" x1="126.02" x2="126.41" y1="179.57" y2="142.42" gradientTransform="matrix(-.15939 -.80587 -.73966 .11953 503.12 217.74)" gradientUnits="userSpaceOnUse" xlink:href="#linearGradient864"/>
 </defs>
 <g transform="matrix(.9 0 0 .9 1.1289 12.139)">
  <g transform="matrix(.81 0 0 .81 -25.687 28.078)" fill="#f2f2f2" stroke="#000" stroke-linecap="round" stroke-linejoin="round" stroke-width=".26636">
   <path d="m139.57 242.19-0.64105-21.712 1.5606-0.77999c-0.96421 4.828-0.6314 17.879 0.60068 22.067z"/>
   <path d="m100.16 237.46 2e-3 -21.722 1.5831-0.73343c-1.1068 4.7973-1.1605 17.853-0.053 22.075z"/>
   <path d="m121.98 241.52 4.0268-21.345 1.6916-0.42741c-1.9765 4.5092-4.4482 17.328-4.1423 21.683z"/>
   <path d="m161.91 250.89-7.2342-20.482 1.2483-1.2189c0.55458 4.892 4.8529 17.219 7.304 20.832z"/>
   <path d="m178.76 244.02 2e-3 -21.722 1.5831-0.73343c-1.1068 4.7973-1.1605 17.853-0.053 22.075z"/>
   <path d="m145.97 249.77 4.0268-21.345 1.6916-0.42741c-1.9765 4.5092-4.4482 17.328-4.1423 21.683z"/>
   <path d="m70.46 210.86 19.946-8.6013 1.3005 1.1631c-4.8433 0.88379-16.852 6.0051-20.291 8.6946z"/>
   <path d="m108.53 191.38c-15.34 18.254-42.489 52.612-42.836 56.265l-4.2322-0.76972c5.208-4.7099 31.514-37.032 45.831-56.147z"/>
   <path d="m72.397 226.51 26.485-11.954 1.2812 1.1843c-4.8572 0.80411-23.349 9.4094-26.831 12.042z"/>
   <path d="m183.06 244.22-13.545-16.982 0.78014-1.5606c2.1265 4.4404 10.226 14.68 13.725 17.29z"/>
   <path d="m177.31 180.2c7.904 22.495 23.659 63.353 26.627 65.511l-2.625 1.5253c-1.4032-6.8802-16.027-44.249-25.193-66.303z"/>
   <path d="m194.74 239.14-20.061-21.022 0.69245-1.6014c2.3693 4.3157 16.62 18.907 20.258 21.32z"/>
   <path d="m118.3 6.8227 13.545 16.982-0.78013 1.5606c-2.1265-4.4404-10.226-14.68-13.725-17.29z"/>
   <path d="m163.02 24.053-2e-3 21.722-1.5831 0.73343c1.1068-4.7973 1.1605-17.853 0.053-22.075z"/>
   <path d="m141.75 18.034-4.0268 21.345-1.6916 0.42742c1.9765-4.5092 4.4482-17.328 4.1423-21.683z"/>
   <path d="m99.2 14.051 13.545 16.982-0.78013 1.5606c-2.1265-4.4404-10.226-14.68-13.725-17.29z"/>
   <path d="m81.138 19.755-0.0021 21.722-1.5831 0.73343c1.1068-4.7973 1.1605-17.853 0.05301-22.075z"/>
   <path d="m124.28 8.4482-4.0268 21.345-1.6916 0.42742c1.9765-4.5092 4.4482-17.328 4.1423-21.683z"/>
   <path d="m183.26 39.679-16.033 14.656-1.6095-0.67345c4.2874-2.4203 13.959-11.19 16.328-14.857z"/>
   <path d="m156.35 63.001c15.34-18.254 42.489-52.612 42.836-56.265l4.2322 0.76972c-5.208 4.7099-31.514 37.032-45.831 56.147z"/>
   <path d="m188.65 30.749-26.485 11.954-1.2812-1.1843c4.8572-0.8041 23.349-9.4094 26.831-12.042z"/>
   <path d="m65.723 34.317 13.545 16.982-0.78013 1.5606c-2.1265-4.4404-10.226-14.68-13.725-17.29z"/>
   <path d="m87.595 66.606c-17.181-16.532-49.636-45.93-53.257-46.522l1.0525-4.1709c4.3491 5.5128 34.83 33.932 52.939 49.502z"/>
   <path d="m52.958 44.811 28.457 5.8789 0.3414 1.711c-4.4035-2.2018-24.424-6.0968-28.789-6.0113z"/>
  </g>
  <path d="m102.92 61.427c-2.2175-2.7057-2.8736-8.7059-9.5378-27.482-0.23008 13.919-2.0394 25.297-4.4577 25.539-2.1024 0.20998-5.6809-10.73-9.4009-26.759-0.06245 15.752-0.80883 19.694-2.7085 26.28-2.4344 58.501-7.0249 95.888-38.371 144.5 9.2923-8.3049 12.111-10.067 13.538-8.6565 2.4287 2.4028 0.88104 11.17-3.633 20.532 9.4227-6.6291 13.483-15.537 16.209-14.452 2.2723 0.90501-0.88266 12.277-4.1427 20.764 6.587-6.5149 10.932-18.834 12.702-18.725 2.0715-0.14505-0.33451 13.536-0.33451 13.536 41.594-63.951 33.751-117.01 39.594-153.16 0.99776-6.1724-1.3063-7.1754-1.7692-21.706-4.7718 18.122-6.6874 21.008-7.689 19.786z" fill="url(#linearGradient866-0)" fill-rule="evenodd" stroke="#000" stroke-width=".94114"/>
  <path d="m58.189 190.7c0.95548-0.99849 3.0138-2.8244 4.927-4.7371 1.9654-1.965 3.6431-3.8522 4.4283-5.002 2.9759-4.3581 6.3706-10.322 9.2129-18.147 3.4365-9.4624 5.4917-20.013 6.3779-32.241 0.95143-13.129 0.44247-26.853-0.08478-39.019-0.59768-13.791-0.94106-20.865-0.94106-29.15 0 6.6407 0.2487 17.038 0.53064 29.164 0.28348 12.192 0.47158 25.867-0.77847 38.898-1.1635 12.128-3.4395 22.451-6.9798 31.647-2.9257 7.6002-6.3056 13.34-9.1992 17.577-0.72358 1.0596-1.9901 3.3248-3.4419 5.5636-1.4962 2.3072-3.033 4.3831-4.0511 5.4471z" stroke-width=".81"/>
  <path d="m77.45 189.77c3.5549-5.7697 8.1697-13.982 12.476-24.65 4.3413-10.753 7.6821-22.283 10.021-34.772 3.8392-20.506 4.1897-39.856 4.081-50.591-0.0257-2.5437-1.0031-10.153-1.1047-12.694 0.10164 2.541-0.4804 10.176-0.45476 12.709 0.10847 10.712 0.0806 29.921-3.3951 50.419-2.1141 12.468-5.2416 24.027-9.4122 34.823-4.1328 10.698-8.6646 18.998-12.211 24.754z" stroke-width=".81"/>
  <g transform="matrix(.81 0 0 .81 -25.687 28.078)" stroke="#000">
   <path d="m176.14 204.05c9.4482-65.174-61.492-154.25-68.884-160.86-8.9048-8.5964-14.831-1.1281-16.533 3.1956 49.039 93.637 72.717 152.29 57.159 169.22 4.9199-31.434 11.645-22.038 28.258-11.555z" fill="#ccc" fill-rule="evenodd" stroke-width="1.2785"/>
   <path d="m136.13 121.65 7.9626-19.197 1.5619 0.0653c-3.8057 6.3751-6.3261 12.906-8.1255 19.524z" fill="#f2f2f2" stroke-linecap="round" stroke-linejoin="round" stroke-width=".26636"/>
   <g transform="rotate(69.716,157.83,147.84)" fill="#f2f2f2" stroke-linecap="round" stroke-linejoin="round" stroke-width=".26636">
    <path d="m94.219 164.16c-4.4854-4.7175-9.0487-9.4337-15.246-14.124l0.60271-1.4424 15.496 14.39z"/>
    <path d="m67.573 164.13 6.2057-11.95 1.7442-0.0425c-2.9253 3.96-5.7277 7.9393-6.3931 12.254z"/>
    <path d="m159.61 155.43c-23.772-1.8446-47.826-3.2314-71.947-4.5084l-0.57613-1.4508c24.241 2.0878 48.456 4.0616 72.333 4.5733z"/>
    <path d="m95.924 161.6c4.5542-5.4888 8.0511-11.172 10.859-16.981l1.7422 0.0847-11.075 17.27z"/>
   </g>
   <path d="m106.85 30.99c-4.4662-1.7157-9.4616-8.3987-30.405-26.198 9.57 16.687 15.526 31.424 12.911 33.344-2.2733 1.6695-14.125-8.9064-29.736-25.432 11.059 18.752 12.984 23.937 15.449 33.042 12.27 43.366 37.098 63.735 51.429 101.62 24.583 64.985 6.1256 83.391 6.4807 95.936 4.8352-16.141 6.8369-20.139 9.4772-19.426 4.4954 1.2132 8.9075 12.672 10.323 26.84 6.1694-14.238 4.5529-27.562 8.4596-28.114 3.2568-0.46007 7.6582 15.178 9.8993 27.459 2.984-12.187-0.71617-29.754 1.4011-30.82 2.2836-1.5716 9.1791 16.303 9.1791 16.303 2.7242-104.05-43.806-161.78-62.617-208.66-3.2121-8.0051-6.5748-7.6399-17.375-24.585 7.3084 24.747 7.1412 29.469 5.1239 28.694zm46.691 90.364c-3.7872 4.8439-6.5891 12.979-4.5971 37.132-8.2446-49.358-34.97-83.266-55.245-122.57 16.992 21.297 31.272 36.007 59.841 85.433z" fill="url(#linearGradient866)" fill-rule="evenodd" stroke-width="1.2785"/>
  </g>
  <path d="m50.111 73.28c1.1948 2.5836 4.0523 9.1862 6.4012 14.575 2.4291 5.5729 5.0592 11.589 6.2785 14.175 3.3098 7.0212 10.48 21.936 16.205 36.267 5.0159 12.554 9.1781 25.09 12.271 38.337 3.0728 13.162 4.4698 24.449 5.1307 32.71-0.66424-8.3025-1.9024-19.519-4.7774-32.79-2.8857-13.32-6.8145-25.96-11.623-38.648-5.5574-14.664-12.361-29.358-15.757-36.56-1.3786-2.9244-4.0562-8.1008-7.0042-13.835-2.9667-5.7703-5.6734-11.092-7.1252-14.232z" stroke-width=".81"/>
  <path d="m103.54 144.73c0.88071 2.4002 2.0789 10.078 2.7263 12.566 1.5468 5.9446 3.7146 14.681 4.9175 26.58 1.1727 11.601 0.94309 21.891 0.4331 28.265 0.52649-6.5812 1.2949-16.413 0.70529-28.351-0.58367-11.818-2.324-21.219-3.8463-27.069-0.65809-2.5292-4.0551-9.5904-4.9359-11.99z" stroke-width=".81"/>
 </g>
 <g transform="matrix(.9 0 0 .9 -136.25 4.5452)">
  <g transform="matrix(.80683 -.071603 -.071603 -.80683 270.3 248.59)" fill="#f2f2f2" stroke="#000" stroke-linecap="round" stroke-linejoin="round" stroke-width=".26636">
   <path d="m139.57 242.19-0.64105-21.712 1.5606-0.77999c-0.96421 4.828-0.6314 17.879 0.60068 22.067z"/>
   <path d="m100.16 237.46 2e-3 -21.722 1.5831-0.73343c-1.1068 4.7973-1.1605 17.853-0.053 22.075z"/>
   <path d="m121.98 241.52 4.0268-21.345 1.6916-0.42741c-1.9765 4.5092-4.4482 17.328-4.1423 21.683z"/>
   <path d="m161.91 250.89-7.2342-20.482 1.2483-1.2189c0.55458 4.892 4.8529 17.219 7.304 20.832z"/>
   <path d="m178.76 244.02 2e-3 -21.722 1.5831-0.73343c-1.1068 4.7973-1.1605 17.853-0.053 22.075z"/>
   <path d="m145.97 249.77 4.0268-21.345 1.6916-0.42741c-1.9765 4.5092-4.4482 17.328-4.1423 21.683z"/>
   <path d="m70.46 210.86 19.946-8.6013 1.3005 1.1631c-4.8433 0.88379-16.852 6.0051-20.291 8.6946z"/>
   <path d="m108.53 191.38c-15.34 18.254-42.489 52.612-42.836 56.265l-4.2322-0.76972c5.208-4.7099 31.514-37.032 45.831-56.147z"/>
   <path d="m72.397 226.51 26.485-11.954 1.2812 1.1843c-4.8572 0.80411-23.349 9.4094-26.831 12.042z"/>
   <path d="m183.06 244.22-13.545-16.982 0.78014-1.5606c2.1265 4.4404 10.226 14.68 13.725 17.29z"/>
   <path d="m177.31 180.2c7.904 22.495 23.659 63.353 26.627 65.511l-2.625 1.5253c-1.4032-6.8802-16.027-44.249-25.193-66.303z"/>
   <path d="m194.74 239.14-20.061-21.022 0.69245-1.6014c2.3693 4.3157 16.62 18.907 20.258 21.32z"/>
   <path d="m118.3 6.8227 13.545 16.982-0.78013 1.5606c-2.1265-4.4404-10.226-14.68-13.725-17.29z"/>
   <path d="m163.02 24.053-2e-3 21.722-1.5831 0.73343c1.1068-4.7973 1.1605-17.853 0.053-22.075z"/>
   <path d="m141.75 18.034-4.0268 21.345-1.6916 0.42742c1.9765-4.5092 4.4482-17.328 4.1423-21.683z"/>
   <path d="m99.2 14.051 13.545 16.982-0.78013 1.5606c-2.1265-4.4404-10.226-14.68-13.725-17.29z"/>
   <path d="m81.138 19.755-0.0021 21.722-1.5831 0.73343c1.1068-4.7973 1.1605-17.853 0.05301-22.075z"/>
   <path d="m124.28 8.4482-4.0268 21.345-1.6916 0.42742c1.9765-4.5092 4.4482-17.328 4.1423-21.683z"/>
   <path d="m183.26 39.679-16.033 14.656-1.6095-0.67345c4.2874-2.4203 13.959-11.19 16.328-14.857z"/>
   <path d="m156.35 63.001c15.34-18.254 42.489-52.612 42.836-56.265l4.2322 0.76972c-5.208 4.7099-31.514 37.032-45.831 56.147z"/>
   <path d="m188.65 30.749-26.485 11.954-1.2812-1.1843c4.8572-0.8041 23.349-9.4094 26.831-12.042z"/>
   <path d="m65.723 34.317 13.545 16.982-0.78013 1.5606c-2.1265-4.4404-10.226-14.68-13.725-17.29z"/>
   <path d="m87.595 66.606c-17.181-16.532-49.636-45.93-53.257-46.522l1.0525-4.1709c4.3491 5.5128 34.83 33.932 52.939 49.502z"/>
   <path d="m52.958 44.811 28.457 5.8789 0.3414 1.711c-4.4035-2.2018-24.424-6.0968-28.789-6.0113z"/>
  </g>
  <path d="m395.45 204c-1.9697 2.8912-2.0928 8.9258-7.0711 28.217-1.4596-13.844-4.2677-25.018-6.6979-25.045-2.1127-0.0233-4.7102 11.19-6.9986 27.485-1.4547-15.685-2.5466-19.546-5.021-25.937-7.5962-58.056-15.474-94.891-50.994-140.55 9.9901 7.451 12.954 8.9575 14.25 7.4259 2.2068-2.6081-0.10982-11.204-5.4338-20.13 9.9718 5.7702 14.804 14.285 17.423 12.963 2.1834-1.1023-1.9645-12.151-5.962-20.316 7.1371 5.9071 12.554 17.794 14.308 17.529 2.0762-0.03864-1.5298-13.453-1.5298-13.453 47.085 60.024 43.963 113.57 52.979 149.06 1.5395 6.0601-0.66687 7.2628 0.15648 21.777-6.3551-17.629-8.5183-20.335-9.408-19.029z" fill="url(#linearGradient866-0-8)" fill-rule="evenodd" stroke="#000" stroke-width=".94114"/>
  <path d="m339.47 79.184c1.04 0.91012 3.2516 2.5469 5.3264 4.283 2.1314 1.7835 3.9694 3.5151 4.8531 4.591 3.3495 4.078 7.2581 9.7183 10.781 17.262 4.2595 9.1216 7.2393 19.449 9.203 31.551 2.1083 12.994 2.8145 26.709 3.3647 38.873 0.62378 13.79 0.90705 20.866 1.6395 29.119-0.58703-6.6147-1.2585-16.994-2.0495-29.097-0.7954-12.169-1.8169-25.808-4.214-38.677-2.231-11.978-5.4107-22.059-9.7501-30.906-3.5861-7.3119-7.4602-12.73-10.717-16.695-0.81442-0.99153-2.2762-3.1359-3.9203-5.2376-1.6943-2.1659-3.4086-4.0978-4.5168-5.0676z" stroke-width=".81"/>
  <path d="m358.74 78.409c4.051 5.4329 9.3737 13.205 14.607 23.451 5.2748 10.327 9.6218 21.517 13.055 33.75 5.6369 20.086 7.6966 39.33 8.5372 50.032 0.19927 2.536-0.10171 10.201 0.0217 12.741-0.12338-2.54-1.3781-10.094-1.5764-12.619-0.83891-10.68-2.5647-29.811-7.8388-49.922-3.208-12.233-7.345-23.47-12.454-33.854-5.0623-10.29-10.31-18.157-14.351-23.578z" stroke-width=".81"/>
  <g transform="matrix(.80683 -.071603 -.071603 -.80683 270.3 248.59)" stroke="#000">
   <path d="m176.14 204.05c9.4482-65.174-61.492-154.25-68.884-160.86-8.9048-8.5964-14.831-1.1281-16.533 3.1956 49.039 93.637 72.717 152.29 57.159 169.22 4.9199-31.434 11.645-22.038 28.258-11.555z" fill="#ccc" fill-rule="evenodd" stroke-width="1.2785"/>
   <path d="m136.13 121.65 7.9626-19.197 1.5619 0.0653c-3.8057 6.3751-6.3261 12.906-8.1255 19.524z" fill="#f2f2f2" stroke-linecap="round" stroke-linejoin="round" stroke-width=".26636"/>
   <g transform="rotate(69.716,157.83,147.84)" fill="#f2f2f2" stroke-linecap="round" stroke-linejoin="round" stroke-width=".26636">
    <path d="m94.219 164.16c-4.4854-4.7175-9.0487-9.4337-15.246-14.124l0.60271-1.4424 15.496 14.39z"/>
    <path d="m67.573 164.13 6.2057-11.95 1.7442-0.0425c-2.9253 3.96-5.7277 7.9393-6.3931 12.254z"/>
    <path d="m159.61 155.43c-23.772-1.8446-47.826-3.2314-71.947-4.5084l-0.57613-1.4508c24.241 2.0878 48.456 4.0616 72.333 4.5733z"/>
    <path d="m95.924 161.6c4.5542-5.4888 8.0511-11.172 10.859-16.981l1.7422 0.0847-11.075 17.27z"/>
   </g>
   <path d="m106.85 30.99c-4.4662-1.7157-9.4616-8.3987-30.405-26.198 9.57 16.687 15.526 31.424 12.911 33.344-2.2733 1.6695-14.125-8.9064-29.736-25.432 11.059 18.752 12.984 23.937 15.449 33.042 12.27 43.366 37.098 63.735 51.429 101.62 24.583 64.985 6.1256 83.391 6.4807 95.936 4.8352-16.141 6.8369-20.139 9.4772-19.426 4.4954 1.2132 8.9075 12.672 10.323 26.84 6.1694-14.238 4.5529-27.562 8.4596-28.114 3.2568-0.46007 7.6582 15.178 9.8993 27.459 2.984-12.187-0.71617-29.754 1.4011-30.82 2.2836-1.5716 9.1791 16.303 9.1791 16.303 2.7242-104.05-43.806-161.78-62.617-208.66-3.2121-8.0051-6.5748-7.6399-17.375-24.585 7.3084 24.747 7.1412 29.469 5.1239 28.694zm46.691 90.364c-3.7872 4.8439-6.5891 12.979-4.5971 37.132-8.2446-49.358-34.97-83.266-55.245-122.57 16.992 21.297 31.272 36.007 59.841 85.433z" fill="url(#linearGradient866)" fill-rule="evenodd" stroke-width="1.2785"/>
  </g>
  <path d="m341.8 196.86c0.96169-2.6791 3.2244-9.5085 5.0877-15.084 1.927-5.7658 4.015-11.991 5.0008-14.675 2.6762-7.2863 8.4996-22.777 12.935-37.557 3.8865-12.948 6.9243-25.803 8.8337-39.272 1.8973-13.382 2.291-24.748 2.2191-33.036 0.0723 8.3287-0.16958 19.61-1.8601 33.084-1.6969 13.523-4.493 26.46-8.1608 39.524-4.2394 15.098-9.7178 30.335-12.463 37.81-1.1147 3.0348-3.3242 8.4277-5.7538 14.4-2.445 6.0099-4.6707 11.55-5.8392 14.806z" stroke-width=".81"/>
  <path d="m388.71 120.97c0.66508-2.4686 1.1799-10.222 1.6048-12.757 1.0152-6.0581 2.4022-14.952 2.5486-26.911 0.14263-11.659-0.99575-21.889-2.0672-28.193 1.1062 6.5089 2.7407 16.234 3.2087 28.177 0.4633 11.823-0.43916 21.341-1.4383 27.303-0.43193 2.5775-3.1914 9.9113-3.8566 12.38z" stroke-width=".81"/>
 </g>
</svg>
