<svg cursor="default" version="1.1" viewBox="0 0 256 256" xmlns="http://www.w3.org/2000/svg" xmlns:xlink="http://www.w3.org/1999/xlink">
 <defs>
  <linearGradient id="linearGradient1070">
   <stop stop-color="#ff8080" offset="0"/>
   <stop stop-color="#faa" offset="1"/>
  </linearGradient>
  <linearGradient id="linearGradient996" x1="130.92" x2="137.19" y1="1.5932" y2="1.5932" gradientTransform="matrix(-.67389 -.6696 -.6696 .67389 299.87 129.8)" gradientUnits="userSpaceOnUse">
   <stop stop-color="#fd5" offset="0"/>
   <stop stop-color="#fea" offset=".43714"/>
   <stop stop-color="#fd5" offset="1"/>
  </linearGradient>
  <linearGradient id="linearGradient1006" x1="133.75" x2="133.37" y1="2.4962" y2="-23.295" gradientTransform="matrix(-.67389 -.6696 -.6696 .67389 299.87 129.8)" gradientUnits="userSpaceOnUse">
   <stop stop-color="#fd5" offset="0"/>
   <stop stop-color="#ffe680" offset="1"/>
  </linearGradient>
  <linearGradient id="linearGradient1026" x1="72.101" x2="67.499" y1="255.62" y2="241.04" gradientUnits="userSpaceOnUse">
   <stop stop-color="#ff7f2a" offset="0"/>
   <stop stop-color="#f95" offset="1"/>
  </linearGradient>
  <linearGradient id="linearGradient1034" x1="49.492" x2="40.407" y1="217.76" y2="207.86" gradientUnits="userSpaceOnUse">
   <stop stop-color="#f95" offset="0"/>
   <stop stop-color="#ffb380" offset="1"/>
  </linearGradient>
  <linearGradient id="linearGradient1042" x1="23.322" x2="17.492" y1="239.32" y2="230.64" gradientUnits="userSpaceOnUse">
   <stop stop-color="#ffb380" offset="0"/>
   <stop stop-color="#fca" offset="1"/>
  </linearGradient>
  <linearGradient id="linearGradient1050" x1="73.108" x2="73.108" y1="180.26" y2="178" gradientUnits="userSpaceOnUse" xlink:href="#linearGradient1070"/>
  <linearGradient id="linearGradient1058" x1="74.977" x2="74.738" y1="178.63" y2="176.04" gradientUnits="userSpaceOnUse" xlink:href="#linearGradient1070"/>
 </defs>
 <g>
  <path d="m78.058 251.69c-2.4587 0.7366-6.9817 2.2033-7.3761 2.2098-3.6346-0.83913-5.8028-3.9756-7.163-9.7225-2.5319-10.697 6.0084-23.545 8.1738-36.446 1.4689-8.7515 3.659-25.054 2.6757-27.174l0.1017-1.5685c0.56175 1.2211 1.3836 2.5962 1.3882 4.5075 0.0096 4.0514-1.8067 17.164-2.1172 26.279-0.21631 6.3494-6.929 25.906-7.4335 30.389-0.56096 4.9846 3.7893 12.1 5.9481 12.158 2.1511 0.0577 3.8682-0.4212 5.8023-0.6318z" fill="url(#linearGradient1026)" stroke="#000" stroke-linecap="round" stroke-linejoin="round" stroke-width=".475"/>
  <path d="m75.471 177.24c2.4483 5.2864 4.9458 11.117 6.0644 38.875 0.80571 19.993 0.98928 25.677-3.4772 35.575-0.4041 0.88316-4.2985 1.2338-6.1196 1.8906 3.7714-2.8515 8.7183-21.068 8.0049-32.808-0.7128-11.73-1.1389-20.939-2.2628-31.226-0.5791-5.3006-1.0098-8.0099-2.5077-10.683z" fill="#ffb380" stroke="#000" stroke-linecap="round" stroke-linejoin="round" stroke-width=".475"/>
  <path d="m70.995 177.19c-8.4074 9.2853-14.062 11.931-24.811 22.445-6.7485 6.6009-11.394 13.711-18.983 20.81-3.4089 3.1885-6.08 6.0911-10.502 7.8159-0.0549 2.4978 5.0503 7.8438 6.7636 7.1534 1.6964-4.4354 4.5825-7.1255 7.7499-10.556 7.0499-7.6344 14.13-12.325 20.688-19.115 10.451-10.822 13.057-16.493 22.3-24.967-0.47318-1.2644-2.1848-2.6291-3.2053-3.5864z" fill="url(#linearGradient1034)"/>
  <path d="m75.896 178.74 104.16-107.6-0.96939-1.0274-106.42 105.29z" fill="#cdde87" stroke="#000" stroke-linecap="round" stroke-linejoin="round" stroke-width=".475"/>
  <path d="m212.53 44.294 26.698-22.279c1.0164-0.84816 1.3646-2.4842 0.50456-3.3508l-8.1037-8.1649c-1.02-1.0277-2.3552-0.78886-3.4763 0.52636l-22.476 26.368c-0.37518 2.1179 2.9428 6.9449 6.8534 6.9006z" fill="url(#linearGradient1006)" stroke="#000" stroke-linecap="round" stroke-linejoin="round" stroke-width=".475"/>
 </g>
 <g fill="#f95" stroke="#000" stroke-linecap="round" stroke-linejoin="round">
  <path d="m28.631 227.58c-1.8141-1.3646-3.1188-2.8753-4.3978-4.295l0.56746-0.57109c1.3408 1.4977 2.7814 2.9451 4.3645 4.3207z" stroke-width=".2375"/>
  <path d="m27.529 228.8c-1.8599-1.4115-3.206-2.9628-4.5247-4.4214l0.56563-0.56926c1.3825 1.5387 2.8654 3.028 4.4915 4.4468z" stroke-width=".24055"/>
  <path d="m29.712 226.41c-1.8141-1.3646-3.1188-2.8753-4.3978-4.295l0.56745-0.57109c1.3408 1.4977 2.7814 2.9451 4.3645 4.3206z" stroke-width=".2375"/>
  <path d="m66.293 188.92c-1.4948-1.1473-2.5856-2.3966-3.6532-3.5722l0.4379-0.44071c1.1193 1.24 2.3173 2.4425 3.6271 3.5919z" stroke-width=".19021"/>
  <path d="m65.446 189.87c-1.5329-1.1863-2.6582-2.4693-3.7587-3.6773l0.4365-0.4393c1.154 1.274 2.3871 2.5114 3.7326 3.6968z" stroke-width=".19265"/>
  <path d="m67.125 188.02c-1.4948-1.1473-2.5856-2.3966-3.6532-3.5722l0.43791-0.4407c1.1193 1.24 2.3173 2.4425 3.6271 3.5919z" stroke-width=".19021"/>
  <path d="m47.241 210.18c-2.2885-1.8375-4.0142-3.7658-5.6966-5.5858l0.56543-0.56905c1.7651 1.9188 3.6374 3.7949 5.6623 5.6102z" stroke-width=".27009"/>
  <path d="m44.606 212.55c-2.2182-1.7655-3.8001-3.552-5.4215-5.3123l0.56812-0.57175c1.701 1.8558 3.5083 3.6676 5.4673 5.4163z" stroke-width=".26602"/>
  <path d="m50.26 207.49c-2.3942-1.9453-4.2153-3.9671-5.9891-5.8769l0.56182-0.56542c1.8612 2.0132 3.8307 3.9859 5.9547 5.9008z" stroke-width=".2761"/>
  <path d="m55.338 202.03c-2.2885-1.8375-4.0142-3.7658-5.6966-5.5859l0.56542-0.56905c1.7651 1.9188 3.6374 3.7949 5.6623 5.6102z" stroke-width=".27009"/>
  <path d="m52.738 204.75c-2.3482-1.8982-4.1275-3.8792-5.8614-5.7498l0.56361-0.56722c1.8192 1.972 3.7463 3.9026 5.8271 5.7739z" stroke-width=".27356"/>
  <path d="m57.767 199.27c-2.1505-1.6966-3.8084-3.5594-5.3715-5.2622l0.62739-0.51725c1.6395 1.7954 3.3846 3.5453 5.2802 5.2304z" stroke-width=".26193"/>
 </g>
 <g stroke="#000" stroke-linecap="round" stroke-linejoin="round">
  <path d="m70.995 177.19c-8.4074 9.2853-14.062 11.931-24.811 22.445-6.7485 6.6009-11.394 13.711-18.983 20.81-3.4089 3.1885-6.08 6.0911-10.502 7.8159-0.0549 2.4978 5.0503 7.8438 6.7636 7.1534 1.6964-4.4354 4.5825-7.1255 7.7499-10.556 7.0499-7.6344 14.13-12.325 20.688-19.115 10.451-10.822 13.057-16.493 22.3-24.967-0.47318-1.2644-2.1848-2.6291-3.2053-3.5864z" fill="none" stroke-width=".475"/>
  <path d="m23.976 234.56c0.48026 0.52983-0.05569 3.4973-2.1307 2.5783-2.6606-1.1782-5.6246-4.4882-6.6531-6.3413-1.5936-2.8712 1.2811-3.1854 2.0695-2.8534-2.4317 0.66367 6.3621 9.4966 6.7144 6.6163z" fill="url(#linearGradient1042)" stroke-width=".475"/>
  <path d="m74.223 181.22-3.8498-3.8824c-0.30747-0.42149 0.60453-1.6275 1.2264-1.2124l3.7322 3.7512c0.4346 0.89585-0.57523 1.6076-1.1088 1.3438z" fill="url(#linearGradient1050)" stroke-width=".41169"/>
  <path d="m75.455 179.84-3.6408-3.7886c-0.31063-0.41913 0.59315-1.6312 1.2182-1.2206l3.5223 3.6582c0.4411 0.89243-0.564 1.6111-1.0996 1.3511z" fill="url(#linearGradient1058)" stroke-width=".41169"/>
 </g>
 <g stroke="#000" stroke-linecap="round" stroke-linejoin="round">
  <path d="m179.57 72.089c-0.41015 0.41008-1.7717-1.2247-1.5133-1.481l15.595-15.47c1.1588-1.1496 0.73447-1.8182 2.47-3.5823l6.3952-6.5008c2.6511-1.1299 3.9481-1.6506 2.7413 2.7238l-6.5102 6.3692c-1.3824 1.3525-2.6073 1.3499-3.618 2.3619z" fill="#fd5" stroke-width=".475"/>
  <path d="m202.52 45.054c1.9049-1.9364 2.2611-4.9736 3.1635-7.6613l1.6448 1.6343 6.2202-5.986c2.829-2.7225 6.4437 0.95948 3.6099 3.7685l-6.0381 5.9854 1.4166 1.4984c-2.4044 1.1217-5.4829 1.7305-7.2757 3.4845-1.2828-0.24224-2.3535-1.4882-2.7413-2.7238z" fill="url(#linearGradient996)" stroke-width=".475"/>
  <path d="m195.49 56.172c-0.44585-0.28862-1.0107-0.75563-1.4575-1.5057" fill="#fea" stroke-width=".2375"/>
 </g>
 <path d="m212.09 42.911 5.9548-5.9284c3.2229-3.2086-1.4742-8.0878-4.8778-4.7183l-5.8907 5.8316" fill="none" stroke="#000" stroke-dasharray="0.475, 0.95" stroke-linecap="round" stroke-linejoin="round" stroke-width=".475"/>
 <path d="m74.681 175.34c2.0849-2.0866 8.7237-7.9629 10.809-10.05 18.567-18.582 73.884-74.712 92.451-93.294-18.567 18.582-74.652 73.945-93.218 92.527-2.0849 2.0866-7.9558 8.7302-10.041 10.817z" fill="#eef4d7"/>
</svg>
