<svg version="1.1" viewBox="0 0 256 256" xmlns="http://www.w3.org/2000/svg" xmlns:xlink="http://www.w3.org/1999/xlink">
 <defs>
  <linearGradient id="linearGradient1090" x1="94.113" x2="1648.9" y1="1195.6" y2="1195.6" gradientUnits="userSpaceOnUse">
   <stop stop-color="#fff" stop-opacity=".2" offset="0"/>
   <stop stop-color="#fff" stop-opacity=".2" offset=".015775"/>
   <stop stop-color="#f55" stop-opacity=".2" offset=".046692"/>
   <stop stop-color="#faa" stop-opacity=".2" offset=".15564"/>
   <stop stop-color="#fff" stop-opacity=".2" offset=".33555"/>
   <stop stop-color="gray" stop-opacity=".2" offset=".42274"/>
   <stop stop-color="#fff" stop-opacity=".2" offset=".48131"/>
   <stop stop-color="#fff" stop-opacity=".2" offset=".49797"/>
   <stop stop-color="gray" stop-opacity=".2" offset=".55995"/>
   <stop stop-color="#fff" stop-opacity=".2" offset=".67849"/>
   <stop stop-color="#faa" stop-opacity=".2" offset=".84795"/>
   <stop stop-color="#f55" stop-opacity=".2" offset=".96093"/>
   <stop stop-color="#fff" stop-opacity=".2" offset=".98735"/>
   <stop stop-color="#fff" stop-opacity=".2" offset="1"/>
  </linearGradient>
 </defs>
 <g transform="matrix(.13712 0 0 .13712 11.437 -46.405)">
  <g>
   <path d="m120.67 866-5.461-200.38s4.906-43.498 21.411-44.998 377.38 15.382 575.98 109.5c84.516 40.051 260.42 31.379 307.2 9.689s410.88-140.65 588-90.686c11.875 3.35 13.191 20.426 14.865 44.215 0.849 12.063-14.865 204.77-14.865 204.77s1.907 29.999-21.417 37.499-245.05 36.394-330.38 19.728c-44.555-8.702-244.66-16.668-265.33 153.33-21.381 175.87 39.334 249.33 149.41 243.92 25.891-1.272 238.3 7.183 361.25-58.587 29.863-15.975 102.68-48.676 132-48 12.663 0.292 14.349 33.325 3.018 79.934-9.32 38.34-97.145 280.03-160.28 307.14-72.058 30.93-293.06 5.431-355.39 51.602-34.981 25.911-121.67 63.329-217.61 81.892-53.84 10.416-115.98-0.86-145.46-8.999-82.927-22.896-230.94-109.68-266.94-110.35-31.314-0.58-176.15-8.219-222.65-29.218s-157.33-182.67-168.87-377.91c-2.197-37.148 39.98-16.919 69.544 1.906 156 99.333 386.62 109.65 426.05 108.83 135.95-2.826 177.06-211.58 103.28-336.16-40.667-68.666-156.2-67.562-246.67-69.333-81.797-1.602-229.92-24.716-293.3-24.681-31.365 0.018-33.492-35.539-37.365-54.649z" fill="url(#linearGradient1090)" stroke="#000" stroke-miterlimit="10" stroke-width="9.88"/>
  </g>
  <g>
   <path d="m922.09 1326.1s5.999-73.497 37.498-91.496 22.498 26.998 32.998 62.997 128.99 289.48 148.49 295.48c32.695 10.061 27.054 107.96-212.99 158.99 0 0 17.245-182.07-6-425.98z" fill="#333" opacity=".25"/>
   <path d="m790.59 1752.2s-6.594-228.84 0-290.09c13.707-127.32 25.665-152.69-6.667-231.59s-42.831 4.417-45.831 19.006-56.038 191.87-179.99 337.07c-52.497 61.497 43.498 26.999 59.997 44.998s62.997 128.7 172.49 120.6z" fill="#333" opacity=".25"/>
   <g fill="#fff">
    <path d="m1065 962s20-70-72-84 6-38 50-41 43-48.863 160-46.932 126 43.94 67 85.936 22 43.996 50 61.996-110 7-125 7-103-11-130 17z" opacity=".3"/>
    <path d="m501 932s143 6 158 0 92-33.991 62-55.996-106-46.004-150-54.004-50-9-83-15-80 27-91 35 57.101 88.394 104 90z" opacity=".3"/>
    <path d="m1245 1563s-89-132-95-172 18-28 35-30 220 4 303-49 7 197-243 251z" opacity=".5"/>
    <path d="M458 1553s8-73 23-101 23-41-23-61 1.732-29 17.366-28S499 1347 410 1347s-140-38-140-38 17 59 56 76 52 38 21 53 44 101 111 115z" opacity=".4"/>
   </g>
  </g>
  <g fill="#ff2a2a" stroke="#000" stroke-miterlimit="10" stroke-width="6.18">
   <path d="m146.67 859-4.667-180.33s-13-20-17 0l4 177.33s8.334 20.912 17.667 2.998z"/>
   <path d="m1582.3 880.35 14.586-179.8s14.085-19.42 16.978 0.77l-13.754 176.84c-1e-3 0-9.478 20.587-17.81 2.187z"/>
   <path d="m1519.7 1548s62.666-124.67 71.333-158 13.668-19.334 14.334 0-64.001 152.67-69.334 158-20.333 22-16.333 0z"/>
   <path d="m204.67 1515.3s-48.021-80.621-71.333-167.33c-8.333-30.997-13.989-14.059-14.204-6.069-0.406 15.072 51.87 159.07 72.537 173.4 18.089 12.543 18.41 10.67 13 0z"/>
  </g>
 </g>
</svg>
