<svg xmlns="http://www.w3.org/2000/svg" viewBox="0 0 64 64">
    <g fill-rule="evenodd" stroke-width=".856">
        <path fill="#f0c" stroke="#000" d="M7.862 1015.051c-.024-14.737 19.915-15.62 24.403-6.885 3.668-8.902 24.456-9.123 24.398 7.059-.041 11.62-12.317 22.903-24.45 36.117-12.07-12.803-24.331-24.22-24.35-36.29z" transform="matrix(.29027 -.05863 .06637 .28051 -68.751 -277.477)"/>
        <path fill="#fff" d="M10.144 1.855c.864-.515 2.036-.49 3.08.094a4.034 4.034 0 0 1 1.396 2.647c-.33-1.048-1.02-1.768-1.761-2.147-.742-.627-1.763-.92-2.715-.594z"/>
    </g>
    <g fill-rule="evenodd" stroke-width="1.174">
        <path fill="#f0c" stroke="#000" d="M7.862 1015.051c-.024-14.737 19.915-15.62 24.403-6.885 3.668-8.902 24.456-9.123 24.398 7.059-.041 11.62-12.317 22.903-24.45 36.117-12.07-12.803-24.331-24.22-24.35-36.29z" transform="matrix(.19787 .08633 -.07763 .19528 130.359 -145.729)"/>
        <path fill="#fff" d="M60.701 54.076c.732.054 1.421.558 1.8 1.344a2.94 2.94 0 0 1-.272 2.165c.24-.765.13-1.483-.154-2.02-.182-.684-.668-1.286-1.374-1.49z"/>
    </g>
    <g fill-rule="evenodd" stroke-width="1.611">
        <path fill="#f0c" stroke="#000" d="M7.862 1015.051c-.024-14.737 19.915-15.62 24.403-6.885 3.668-8.902 24.456-9.123 24.398 7.059-.041 11.62-12.317 22.903-24.45 36.117-12.07-12.803-24.331-24.22-24.35-36.29z" transform="matrix(.1198 -.10206 .10314 .11327 -61.847 -53.817)"/>
        <path fill="#fff" d="M46.807 55.678c.27-.463.82-.753 1.456-.75.517.102.996.4 1.331.87a1.908 1.908 0 0 0-1.372-.544c-.506-.1-1.056.026-1.415.424z"/>
    </g>
    <g fill-rule="evenodd" stroke-width="1.174">
        <path fill="#f0c" stroke="#000" d="M7.862 1015.051c-.024-14.737 19.915-15.62 24.403-6.885 3.668-8.902 24.456-9.123 24.398 7.059-.041 11.62-12.317 22.903-24.45 36.117-12.07-12.803-24.331-24.22-24.35-36.29z" transform="matrix(.19787 .08633 -.07763 .19528 79.34 -181.134)"/>
        <path fill="#fff" d="M9.682 18.671c.731.054 1.42.559 1.8 1.344a2.94 2.94 0 0 1-.273 2.165c.24-.764.13-1.482-.154-2.019-.181-.684-.668-1.287-1.373-1.49z"/>
    </g>
    <g fill-rule="evenodd" stroke-width="1.611">
        <path fill="#f0c" stroke="#000" d="M7.862 1015.051c-.024-14.737 19.915-15.62 24.403-6.885 3.668-8.902 24.456-9.123 24.398 7.059-.041 11.62-12.317 22.903-24.45 36.117-12.07-12.803-24.331-24.22-24.35-36.29z" transform="matrix(.14636 .05786 -.05158 .14425 69.504 -144.856)"/>
        <path fill="#fff" d="M23.846 2.488c.535.02 1.05.37 1.346.933a2.144 2.144 0 0 1-.143 1.584 1.908 1.908 0 0 0-.164-1.467c-.15-.494-.52-.92-1.039-1.05z"/>
    </g>
    <g fill-rule="evenodd" stroke-width="1.988">
        <path fill="#f0c" stroke="#000" d="M7.862 1015.051c-.024-14.737 19.915-15.62 24.403-6.885 3.668-8.902 24.456-9.123 24.398 7.059-.041 11.62-12.317 22.903-24.45 36.117-12.07-12.803-24.331-24.22-24.35-36.29z" transform="matrix(.11671 -.05127 .05363 .1119 1.175 -66.304)"/>
        <path fill="#fff" d="M59.961 43.95c.317-.295.812-.392 1.305-.242.376.2.68.542.83.985a1.546 1.546 0 0 0-.938-.741c-.37-.196-.826-.226-1.197-.002z"/>
    </g>
    <path fill="#ffd5f6" fill-rule="evenodd" stroke="#000" stroke-width=".75" d="M20.902 28.093c-.186-7.637 11.772-8.733 12.898-1.73 1.535-6.919 12.229-6.005 12.298 1.564.077 8.52-7.532 11.41-12.28 17.984-4.686-6.566-12.727-10.078-12.916-17.818z"/>
    <path fill="#ff8080" fill-rule="evenodd" stroke="#000" stroke-width=".715" d="M19.223 20.824L44.63 48.538l4.15-4.089-25.598-27.685z"/>
    <path fill="#ff80e5" stroke="#000" stroke-linejoin="round" stroke-width=".697" d="M19.371 18.607a19.98 20.02 84.26 0 0-5.56 15.918 19.98 20.02 84.26 0 0 21.92 17.879A19.98 20.02 84.26 0 0 53.653 30.52a19.98 20.02 84.26 0 0-21.919-17.878 19.98 20.02 84.26 0 0-12.363 5.965zm3.057 2.303a16.192 16.225 84.26 0 1 9.685-4.5 16.192 16.225 84.26 0 1 17.76 14.49 16.192 16.225 84.26 0 1-14.521 17.735 16.192 16.225 84.26 0 1-17.765-14.49 16.192 16.225 84.26 0 1 4.841-13.235z"/>
    <path fill="#ff80e5" fill-rule="evenodd" d="M20.095 21.27L44.24 47.598l3.662-3.59L23.58 17.705z"/>
</svg>
