<svg xmlns="http://www.w3.org/2000/svg" viewBox="0 0 64 64">
    <g fill-rule="evenodd">
        <path fill="#f06" stroke="#000" stroke-width=".48" d="M47.475 7.46c4.39-.08 8.19 3.64 7.637 6.69-1.192 6.57-5.423 10.337-6.53 15.987-1.543 7.867 3.533 25.484-11.034 27.097-8.62.954-25.026-10.073-25.464-31.338-.055-2.658 21.083-22.653 30.943-16.926 1.457-1.038 2.984-1.484 4.448-1.51zm-4.532 7.965c-8.092.164-12.454 5.228-21.496 12.639-.623.51-7.807 5.256-3.452 10.752 5.411 6.83 13.27 8.976 17.61 9.082 9.792.24 1.529-8.769 1.964-17.984.206-4.358 12.401-7.171 13.077-11.468.323-2.055-2.848-3.118-7.703-3.02z"/>
        <g stroke-width=".856">
            <path fill="#f0c" stroke="#000" d="M7.862 1015.051c-.024-14.737 19.915-15.62 24.403-6.885 3.668-8.902 24.456-9.123 24.398 7.059-.041 11.62-12.317 22.903-24.45 36.117-12.07-12.803-24.331-24.22-24.35-36.29z" transform="matrix(.29027 -.05863 .06637 .28051 -68.751 -277.477)"/>
            <path fill="#fff" d="M10.144 1.855c.864-.515 2.036-.49 3.08.094a4.034 4.034 0 0 1 1.396 2.647c-.33-1.048-1.02-1.768-1.761-2.147-.742-.627-1.763-.92-2.715-.594z"/>
        </g>
        <g stroke-width="1.174">
            <path fill="#f0c" stroke="#000" d="M7.862 1015.051c-.024-14.737 19.915-15.62 24.403-6.885 3.668-8.902 24.456-9.123 24.398 7.059-.041 11.62-12.317 22.903-24.45 36.117-12.07-12.803-24.331-24.22-24.35-36.29z" transform="matrix(.19787 .08633 -.07763 .19528 130.359 -145.729)"/>
            <path fill="#fff" d="M60.701 54.076c.732.054 1.421.558 1.8 1.344a2.94 2.94 0 0 1-.272 2.165c.24-.765.13-1.483-.154-2.02-.182-.684-.668-1.286-1.374-1.49z"/>
        </g>
        <g stroke-width="1.611">
            <path fill="#f0c" stroke="#000" d="M7.862 1015.051c-.024-14.737 19.915-15.62 24.403-6.885 3.668-8.902 24.456-9.123 24.398 7.059-.041 11.62-12.317 22.903-24.45 36.117-12.07-12.803-24.331-24.22-24.35-36.29z" transform="matrix(.1198 -.10206 .10314 .11327 -61.847 -53.817)"/>
            <path fill="#fff" d="M46.807 55.678c.27-.463.82-.753 1.456-.75.517.102.996.4 1.331.87a1.908 1.908 0 0 0-1.372-.544c-.506-.1-1.056.026-1.415.424z"/>
        </g>
        <g stroke-width="1.174">
            <path fill="#f0c" stroke="#000" d="M7.862 1015.051c-.024-14.737 19.915-15.62 24.403-6.885 3.668-8.902 24.456-9.123 24.398 7.059-.041 11.62-12.317 22.903-24.45 36.117-12.07-12.803-24.331-24.22-24.35-36.29z" transform="matrix(.19787 .08633 -.07763 .19528 79.34 -181.134)"/>
            <path fill="#fff" d="M9.682 18.671c.731.054 1.42.559 1.8 1.344a2.94 2.94 0 0 1-.273 2.165c.24-.764.13-1.482-.154-2.019-.181-.684-.668-1.287-1.373-1.49z"/>
        </g>
        <g stroke-width="1.611">
            <path fill="#f0c" stroke="#000" d="M7.862 1015.051c-.024-14.737 19.915-15.62 24.403-6.885 3.668-8.902 24.456-9.123 24.398 7.059-.041 11.62-12.317 22.903-24.45 36.117-12.07-12.803-24.331-24.22-24.35-36.29z" transform="matrix(.14636 .05786 -.05158 .14425 69.504 -144.856)"/>
            <path fill="#fff" d="M23.846 2.488c.535.02 1.05.37 1.346.933a2.144 2.144 0 0 1-.143 1.584 1.908 1.908 0 0 0-.164-1.467c-.15-.494-.52-.92-1.039-1.05z"/>
        </g>
        <g stroke-width="1.988">
            <path fill="#f0c" stroke="#000" d="M7.862 1015.051c-.024-14.737 19.915-15.62 24.403-6.885 3.668-8.902 24.456-9.123 24.398 7.059-.041 11.62-12.317 22.903-24.45 36.117-12.07-12.803-24.331-24.22-24.35-36.29z" transform="matrix(.11671 -.05127 .05363 .1119 1.175 -66.304)"/>
            <path fill="#fff" d="M59.961 43.95c.317-.295.812-.392 1.305-.242.376.2.68.542.83.985a1.546 1.546 0 0 0-.938-.741c-.37-.196-.826-.226-1.197-.002z"/>
        </g>
        <path fill="#4d4d4d" stroke="#000" stroke-width=".418" d="M35.348 45.87c-3.774-.092-10.606-1.958-15.311-7.897-3.787-4.779-4.848-10.365-4.306-10.809 12.58-10.31 33.447-11.669 32.697-6.903-.588 3.736-2.28 7.41-2.46 11.2-.378 8.014-2.106 14.619-10.62 14.409z"/>
        <path fill="#e6e6e6" stroke="#000" stroke-width=".418" d="M48.98 22.192c-2.155-6.047-26.445 1.121-32.178 3.199 3.057-6.135 14.603-10.31 25.651-11.064 11.674-.795 7.119 4.856 6.527 7.865z"/>
        <path fill="#b3b3b3" stroke="#000" stroke-width=".418" d="M44.314 43.613c-4.552-13.71-16.686-11.403-27.936-10.965.027 5.454 5.432 9.506 9.138 14 10.297 2.633 14.736-.04 18.798-3.035z"/>
        <path fill="#808080" stroke="#000" stroke-width=".418" d="M45.668 10.71c3.818-.07 7.122 3.165 6.641 5.817-1.036 5.714-4.715 8.99-5.678 13.902-1.341 6.84 3.072 22.16-9.595 23.562-7.496.83-21.761-8.759-22.142-27.25C14.846 24.43 33.227 7.042 41.8 12.023c1.266-.902 2.594-1.29 3.867-1.314zm-3.94 6.926c-7.037.142-18.132 3.086-25.994 9.53-.542.444.513 6.03 4.3 10.81 4.705 5.938 11.54 7.805 15.313 7.897 8.515.21 10.245-6.395 10.623-14.408.179-3.79 1.868-7.466 2.456-11.202.28-1.787-2.477-2.711-6.698-2.627z"/>
        <path d="M19.413 32.778c3.544.284 6.036.944 8.074 1.9 2.38.903 4.257 2.219 6.482 3.877-2.096-1.788-3.896-3.281-6.271-4.38-2.175-.817-4.737-1.295-8.284-1.397z"/>
    </g>
</svg>
