<svg xmlns="http://www.w3.org/2000/svg" viewBox="0 0 64 64">
    <g fill-rule="evenodd">
        <path fill="#f06" stroke="#000" stroke-width=".25" d="M33.53 46.375c-.832 6.146-2.116 6.23-2.111 9.563.005 3.519 4.334 3.603 4.297 0-.032-3.22-1.239-3.635-2.186-9.563z"/>
        <g stroke-width=".856">
            <path fill="#f0c" stroke="#000" d="M7.862 1015.051c-.024-14.737 19.915-15.62 24.403-6.885 3.668-8.902 24.456-9.123 24.398 7.059-.041 11.62-12.317 22.903-24.45 36.117-12.07-12.803-24.331-24.22-24.35-36.29z" transform="matrix(.29027 -.05863 .06637 .28051 -68.751 -277.477)"/>
            <path fill="#fff" d="M10.144 1.855c.864-.515 2.036-.49 3.08.094a4.034 4.034 0 0 1 1.396 2.647c-.33-1.048-1.02-1.768-1.761-2.147-.742-.627-1.763-.92-2.715-.594z"/>
        </g>
        <g stroke-width="1.174">
            <path fill="#f0c" stroke="#000" d="M7.862 1015.051c-.024-14.737 19.915-15.62 24.403-6.885 3.668-8.902 24.456-9.123 24.398 7.059-.041 11.62-12.317 22.903-24.45 36.117-12.07-12.803-24.331-24.22-24.35-36.29z" transform="matrix(.19787 .08633 -.07763 .19528 130.359 -145.729)"/>
            <path fill="#fff" d="M60.701 54.076c.732.054 1.421.558 1.8 1.344a2.94 2.94 0 0 1-.272 2.165c.24-.765.13-1.483-.154-2.02-.182-.684-.668-1.286-1.374-1.49z"/>
        </g>
        <g stroke-width="1.611">
            <path fill="#f0c" stroke="#000" d="M7.862 1015.051c-.024-14.737 19.915-15.62 24.403-6.885 3.668-8.902 24.456-9.123 24.398 7.059-.041 11.62-12.317 22.903-24.45 36.117-12.07-12.803-24.331-24.22-24.35-36.29z" transform="matrix(.1198 -.10206 .10314 .11327 -61.847 -53.817)"/>
            <path fill="#fff" d="M46.807 55.678c.27-.463.82-.753 1.456-.75.517.102.996.4 1.331.87a1.908 1.908 0 0 0-1.372-.544c-.506-.1-1.056.026-1.415.424z"/>
        </g>
        <g stroke-width="1.174">
            <path fill="#f0c" stroke="#000" d="M7.862 1015.051c-.024-14.737 19.915-15.62 24.403-6.885 3.668-8.902 24.456-9.123 24.398 7.059-.041 11.62-12.317 22.903-24.45 36.117-12.07-12.803-24.331-24.22-24.35-36.29z" transform="matrix(.19787 .08633 -.07763 .19528 79.34 -181.134)"/>
            <path fill="#fff" d="M9.682 18.671c.731.054 1.42.559 1.8 1.344a2.94 2.94 0 0 1-.273 2.165c.24-.764.13-1.482-.154-2.019-.181-.684-.668-1.287-1.373-1.49z"/>
        </g>
        <g stroke-width="1.611">
            <path fill="#f0c" stroke="#000" d="M7.862 1015.051c-.024-14.737 19.915-15.62 24.403-6.885 3.668-8.902 24.456-9.123 24.398 7.059-.041 11.62-12.317 22.903-24.45 36.117-12.07-12.803-24.331-24.22-24.35-36.29z" transform="matrix(.14636 .05786 -.05158 .14425 69.504 -144.856)"/>
            <path fill="#fff" d="M23.846 2.488c.535.02 1.05.37 1.346.933a2.144 2.144 0 0 1-.143 1.584 1.908 1.908 0 0 0-.164-1.467c-.15-.494-.52-.92-1.039-1.05z"/>
        </g>
        <g stroke-width="1.988">
            <path fill="#f0c" stroke="#000" d="M7.862 1015.051c-.024-14.737 19.915-15.62 24.403-6.885 3.668-8.902 24.456-9.123 24.398 7.059-.041 11.62-12.317 22.903-24.45 36.117-12.07-12.803-24.331-24.22-24.35-36.29z" transform="matrix(.11671 -.05127 .05363 .1119 1.175 -66.304)"/>
            <path fill="#fff" d="M59.961 43.95c.317-.295.812-.392 1.305-.242.376.2.68.542.83.985a1.546 1.546 0 0 0-.938-.741c-.37-.196-.826-.226-1.197-.002z"/>
        </g>
        <g fill="#f06" stroke="#000" stroke-width=".248">
            <path d="M11.346 43.473c4.846-3.657 8.338-7.376 12.014-11.087.73-1.672.15-3.435.165-5.157.366-5.005 1.99-7.93 3.692-10.137.967-.71 5.977-.477 8.966-.715 3.504-.092 3.51 3.89 5.307 7.453.078.873-2.18 1.598-2.77 1.52-3.676-2.296-4.33-3.293-5.109-5.366.485 2.818-2.059 1.937-3.988 1.461 1.932.673 2.448.794 3.217 2.299.667 1.309 1.938 2.59 2.345 3.63 1.322 3.382-.41 6.06-2.035 8.172 1.006-1.385 2.217-1.887 3-4.233 2.722.29 1.99 3.061 2.736 4.77 2.99.89 3.846.756 5.768 1.133-1.997.767-2.804 1.365-3.382 1.93-.105.102 3.264 7.71-.107 7.746-3.31.035-.479-7.132-.637-6.976-.2.197-.426.398-.72.61-2.34 1.094-4.245.71-6.361 1.043-.49-2.996-1.44-2.656-2.209-3.638-.31-.808.089-1.166.165-1.729-1.44 1.625-2.879-.189-4.318-.626 1.152.8 3.048 1.875 3.263 2.326.33.787-2.087 2.365-3.131 3.547 1.22-1.003 2.13-1.449 3.659-3.01 1.294.183 1.916 2.416 2.142 3.428-1.006.934-1.64 1.96-3.263 2.743l-6.414 8.349c-.546-.29-5.744-4.434-9.119-7.151-.124-.1 1.506 4.646-.63 4.612-2.02-.032-.009-5.127-.14-5.232-1.174-.948-2-1.62-2.106-1.715z"/>
            <path d="M36.57 15.897c1.643-1.226 3.498-1.296 5.454-2.13 2.923-.4 3.767 3.077 4.591 4.006-.806 1.382-3.024 1.498-5.967 2.466-.729-2.598-1.901-4.308-4.079-4.342zM41.045 21.272c.845-.367 3.63-1.51 5.477-1.855.738.105 1.775 1.7 2.168 4.596-.706 1.282-5.832 1.954-12.027 3.836-.419-.044-2.293-2.787-1.958-4.11 1.12-.43 1.876 1.581 4.055 2.066.739.108 3.247-.583 3.31-1.813-.332-.907-.472-1.813-1.025-2.72zM37.199 29.072c-.092-.986 6.992-2.473 10.419-3.584 1.494-.14 2.424 4.568 2.027 4.828-3.087 1.105-5.972 1.535-8.88 2.045-2.49.288-3.636-1.96-3.566-3.289zM39.297 32.951c-.375.159-.18 1.147.186 2.55 1.903.422 2.455.768 5.71 1.266a16.227 16.227 0 0 0 4.243-1.413c.518.135.258-4.237-.63-4.195-3.624 1.268-5.573 1.628-9.51 1.792z"/>
        </g>
    </g>
</svg>
