<svg version="1.1" viewBox="0 0 64 64" xmlns="http://www.w3.org/2000/svg">
 <g fill-rule="evenodd">
  <g stroke-width=".856">
   <path transform="matrix(.29027 -.05863 .06637 .28051 -68.751 -277.48)" d="m7.862 1015.1c-0.024-14.737 19.915-15.62 24.403-6.885 3.668-8.902 24.456-9.123 24.398 7.059-0.041 11.62-12.317 22.903-24.45 36.117-12.07-12.803-24.331-24.22-24.35-36.29z" fill="#f0c" stroke="#000"/>
   <path d="m10.144 1.855c0.864-0.515 2.036-0.49 3.08 0.094a4.034 4.034 0 0 1 1.396 2.647c-0.33-1.048-1.02-1.768-1.761-2.147-0.742-0.627-1.763-0.92-2.715-0.594z" fill="#fff"/>
  </g>
  <g stroke-width="1.174">
   <path transform="matrix(.19787 .08633 -.07763 .19528 130.36 -145.73)" d="m7.862 1015.1c-0.024-14.737 19.915-15.62 24.403-6.885 3.668-8.902 24.456-9.123 24.398 7.059-0.041 11.62-12.317 22.903-24.45 36.117-12.07-12.803-24.331-24.22-24.35-36.29z" fill="#f0c" stroke="#000"/>
   <path d="m60.701 54.076c0.732 0.054 1.421 0.558 1.8 1.344a2.94 2.94 0 0 1-0.272 2.165c0.24-0.765 0.13-1.483-0.154-2.02-0.182-0.684-0.668-1.286-1.374-1.49z" fill="#fff"/>
  </g>
  <g stroke-width="1.611">
   <path transform="matrix(.1198 -.10206 .10314 .11327 -61.847 -53.817)" d="m7.862 1015.1c-0.024-14.737 19.915-15.62 24.403-6.885 3.668-8.902 24.456-9.123 24.398 7.059-0.041 11.62-12.317 22.903-24.45 36.117-12.07-12.803-24.331-24.22-24.35-36.29z" fill="#f0c" stroke="#000"/>
   <path d="m46.807 55.678c0.27-0.463 0.82-0.753 1.456-0.75 0.517 0.102 0.996 0.4 1.331 0.87a1.908 1.908 0 0 0-1.372-0.544c-0.506-0.1-1.056 0.026-1.415 0.424z" fill="#fff"/>
  </g>
  <g stroke-width="1.174">
   <path transform="matrix(.19787 .08633 -.07763 .19528 79.34 -181.13)" d="m7.862 1015.1c-0.024-14.737 19.915-15.62 24.403-6.885 3.668-8.902 24.456-9.123 24.398 7.059-0.041 11.62-12.317 22.903-24.45 36.117-12.07-12.803-24.331-24.22-24.35-36.29z" fill="#f0c" stroke="#000"/>
   <path d="m9.682 18.671c0.731 0.054 1.42 0.559 1.8 1.344a2.94 2.94 0 0 1-0.273 2.165c0.24-0.764 0.13-1.482-0.154-2.019-0.181-0.684-0.668-1.287-1.373-1.49z" fill="#fff"/>
  </g>
  <g stroke-width="1.611">
   <path transform="matrix(.14636 .05786 -.05158 .14425 69.504 -144.86)" d="m7.862 1015.1c-0.024-14.737 19.915-15.62 24.403-6.885 3.668-8.902 24.456-9.123 24.398 7.059-0.041 11.62-12.317 22.903-24.45 36.117-12.07-12.803-24.331-24.22-24.35-36.29z" fill="#f0c" stroke="#000"/>
   <path d="m23.846 2.488c0.535 0.02 1.05 0.37 1.346 0.933a2.144 2.144 0 0 1-0.143 1.584 1.908 1.908 0 0 0-0.164-1.467c-0.15-0.494-0.52-0.92-1.039-1.05z" fill="#fff"/>
  </g>
  <g stroke-width="1.988">
   <path transform="matrix(.11671 -.05127 .05363 .1119 1.175 -66.304)" d="m7.862 1015.1c-0.024-14.737 19.915-15.62 24.403-6.885 3.668-8.902 24.456-9.123 24.398 7.059-0.041 11.62-12.317 22.903-24.45 36.117-12.07-12.803-24.331-24.22-24.35-36.29z" fill="#f0c" stroke="#000"/>
   <path d="m59.961 43.95c0.317-0.295 0.812-0.392 1.305-0.242 0.376 0.2 0.68 0.542 0.83 0.985a1.546 1.546 0 0 0-0.938-0.741c-0.37-0.196-0.826-0.226-1.197-2e-3z" fill="#fff"/>
  </g>
 </g>
 <g fill="#5f8dd3">
  <path d="m29.289 49.928s-0.91373-3.5969-1.6705-6.2466c-0.04317-0.15114 1.1716 0.49468 2.4688 0.45696 1.4299-0.04158 2.9557-0.7648 2.9115-0.91301-0.04989-0.16712-1.6352 0.27718-3.0977 0.01418-1.4524-0.26118-2.7821-1.2298-2.8244-1.3597-0.67504-2.0693-1.1313-1.61-2.0473-5.1363-0.73976-2.848-0.89883-6.4825-1.7649-8.5809-0.75193-1.8219-2.4785-4.2977-3.8011-6.7453-1.0491-1.9414-1.8106-4.0942-1.8672-4.266-1.1134-3.3804 1.8513-4.1379 3.5987-1.7526 0 0 0.77076 0.92157 1.737 2.1591 0.101 0.12936-1.2562-0.03495-2.8388 1.3795 1.9725-0.69622 3.3453-0.72478 3.4455-0.59322 0.99844 1.31 2.0722 2.8045 2.6847 3.9186 1.6131 2.934 3.6614 9.3536 3.6614 9.3536 1.414 2.5582 4.5554 1.1087 4.1258-0.56253 0.30797 1.0401 1.2147 1.9822 2.1359 2.0238 0.19548 0.0088-5.0816 10.17 4.0588 9.0997-8.1976-0.56303-3.5312-8.6396-2.3371-9.4482 0.60241-0.40793 0.31977-1.2754 0.02082-2.3034 0.81169 2.5985 4.0128 1.0343 5.0116-0.81249 4.6217-1.6769 7.1172-9.5172 13.075-11.313 2.2569-0.68007 6.9711 2.3589 1.0929 5.0161-1.7377 0.78551-2.2339 4.0403-5.52 9.0615-1.4566 2.2257-2.2583 4.6521-4.4003 6.8766-3.9545 4.1068-4.534 2.2659-4.6783 10.701z"/>
  <path d="m26.788 21.773c-0.46211-1.4133 4.2997-3.0973 4.7907-0.85037 0 0 0.1358 2.4253 0.36729 4.1806 0.02627 0.1992-2.5261 0.14344-3.274 1.3228 1.8256-1.0004 3.4205-0.38336 3.4546-0.22672 0.35765 1.6438 1.5521 4.3341 1.5521 4.3341 0.4055 1.5952-2.161 2.6066-2.7483 1.5811-0.98925-1.7273-1.3487-2.4003-1.9377-4.2048-0.48225-1.4773-1.6323-4.3867-2.2046-6.1368z"/>
  <path d="m31.828 19.989c-0.26857-1.5853 4.6785-2.7704 4.8638-0.28241 0 0 0.06792 2.6712 0.16016 4.6283 0.01235 0.26213-1.3251-0.07893-1.9759 1.4385 1.7027-1.5579 2.0376-0.31167 2.0496-0.14828 0.13401 1.82 0.7599 4.991 0.7599 4.991 0.18803 1.774-2.8914 1.7382-3.3362 0.5545-0.74909-1.9937-1.3737-3.2509-1.7156-5.2748-0.27996-1.6569-0.47324-3.9436-0.80582-5.9067z"/>
  <path d="m38.218 30.245c0.89162 2.2319 4.4751 0.52604 4.2334-1.254-0.24407-1.7977-0.18237-3.3554 0.07933-5.2755 0.01299-0.09572-0.63292-0.17046-1.8995 0.16189 0.45911-0.81413 1.5574-1.1706 2.0333-1.3338 1.4014-0.48053-0.35036 4.2245 0.38598 6.3239 1.0732-0.20541 2.0079-0.95791 2.8866-1.9314-0.05289-1.3546-0.1975-2.5489-1.3976-5.8433-0.61684-1.6933-2.4676-4.2025-3.4292-4.3849-1.0468-0.19853-3.9904 1.1916-3.867 2.3951 0 0-0.04256 4.6588 0.18047 7.0873 0.11796 1.2844 0.79415 4.0549 0.79415 4.0549z"/>
 </g>
 <g transform="translate(-1.8983 -.88136)">
  <path d="m53.252 52.084s-7.1426-3.287-9.4577-3.621c-3.9285-0.56682-11.482 1.9805-15.319 2.3972-6.7694 0.73524-10.852-0.27525-12.163-3.0591-1.1211-2.3814 3.9322-6.8475 3.9322-6.8475s-8.865 3.3788-8.1356 6.8475c1.3817 6.5706 9.8792 5.8629 16.022 5.7134 10.125-0.24654 25.121-1.4305 25.121-1.4305z" fill="#80b3ff"/>
  <path d="m53.252 52.084s-8.1176-2.1342-10.678-2.1186c-3.9136 0.02397-10.343 2.5543-14.234 2.9547-7.1453 0.73524-12.854-0.91451-14.322-3.6542-2.3818-4.4428 6.2263-8.3122 6.2263-8.3122s-12.248 3.0697-10.663 8.3122c1.9477 6.4425 13.2 6.3903 19.684 6.2407 10.687-0.24654 23.987-3.4226 23.987-3.4226z" fill="#5f8dd3"/>
  <path d="m53.252 52.084s-5.9421-1.1387-11.39-0.46441c-3.0772 0.38091-9.0162 2.79-13.994 3.1557-7.7126 0.56671-15.433-1.776-17.015-4.5789-2.5656-4.5453 9.3907-9.2427 9.3907-9.2427s-15.877 3.8793-14.17 9.2427c2.098 6.5911 14.443 7.9002 21.403 7.2944 16.114-1.4028 25.775-5.4068 25.775-5.4068z" fill="#2c5aa0"/>
  <path d="m7.438 46.617c6.3201-5.8153 11.281-7.1439 15.341-7.5744 6.6195 0.14666 5.8129 3.6544 4.0749 4.1228-0.87561 0.236-1.8082-1.5085-2.9648-0.99002-0.43977 0.19717-0.05076 2.1568-0.96628 2.572-0.61774 0.28015-1.6973-1.2828-2.2857-1.0527-0.61813 0.24165-0.74632 2.2733-1.4535 2.443-0.73746 0.17696-1.0168-1.4958-2.2767-1.222-1.341 0.29132-0.41812 1.8629-1.6543 2.037-0.99788 0.14057-0.61712-4.3614-7.8141-0.33558z" fill="#e9f0f9"/>
 </g>
</svg>
