<svg xmlns="http://www.w3.org/2000/svg" viewBox="0 0 64 64">
    <g fill-rule="evenodd" stroke-width=".856">
        <path fill="#f0c" stroke="#000" d="M7.862 1015.051c-.024-14.737 19.915-15.62 24.403-6.885 3.668-8.902 24.456-9.123 24.398 7.059-.041 11.62-12.317 22.903-24.45 36.117-12.07-12.803-24.331-24.22-24.35-36.29z" transform="matrix(.29027 -.05863 .06637 .28051 -68.751 -277.477)"/>
        <path fill="#fff" d="M10.144 1.855c.864-.515 2.036-.49 3.08.094a4.034 4.034 0 0 1 1.396 2.647c-.33-1.048-1.02-1.768-1.761-2.147-.742-.627-1.763-.92-2.715-.594z"/>
    </g>
    <g fill-rule="evenodd" stroke-width="1.174">
        <path fill="#f0c" stroke="#000" d="M7.862 1015.051c-.024-14.737 19.915-15.62 24.403-6.885 3.668-8.902 24.456-9.123 24.398 7.059-.041 11.62-12.317 22.903-24.45 36.117-12.07-12.803-24.331-24.22-24.35-36.29z" transform="matrix(.19787 .08633 -.07763 .19528 130.359 -145.729)"/>
        <path fill="#fff" d="M60.701 54.076c.732.054 1.421.558 1.8 1.344a2.94 2.94 0 0 1-.272 2.165c.24-.765.13-1.483-.154-2.02-.182-.684-.668-1.286-1.374-1.49z"/>
    </g>
    <g fill-rule="evenodd" stroke-width="1.611">
        <path fill="#f0c" stroke="#000" d="M7.862 1015.051c-.024-14.737 19.915-15.62 24.403-6.885 3.668-8.902 24.456-9.123 24.398 7.059-.041 11.62-12.317 22.903-24.45 36.117-12.07-12.803-24.331-24.22-24.35-36.29z" transform="matrix(.1198 -.10206 .10314 .11327 -61.847 -53.817)"/>
        <path fill="#fff" d="M46.807 55.678c.27-.463.82-.753 1.456-.75.517.102.996.4 1.331.87a1.908 1.908 0 0 0-1.372-.544c-.506-.1-1.056.026-1.415.424z"/>
    </g>
    <g fill-rule="evenodd" stroke-width="1.174">
        <path fill="#f0c" stroke="#000" d="M7.862 1015.051c-.024-14.737 19.915-15.62 24.403-6.885 3.668-8.902 24.456-9.123 24.398 7.059-.041 11.62-12.317 22.903-24.45 36.117-12.07-12.803-24.331-24.22-24.35-36.29z" transform="matrix(.19787 .08633 -.07763 .19528 79.34 -181.134)"/>
        <path fill="#fff" d="M9.682 18.671c.731.054 1.42.559 1.8 1.344a2.94 2.94 0 0 1-.273 2.165c.24-.764.13-1.482-.154-2.019-.181-.684-.668-1.287-1.373-1.49z"/>
    </g>
    <g fill-rule="evenodd" stroke-width="1.611">
        <path fill="#f0c" stroke="#000" d="M7.862 1015.051c-.024-14.737 19.915-15.62 24.403-6.885 3.668-8.902 24.456-9.123 24.398 7.059-.041 11.62-12.317 22.903-24.45 36.117-12.07-12.803-24.331-24.22-24.35-36.29z" transform="matrix(.14636 .05786 -.05158 .14425 69.504 -144.856)"/>
        <path fill="#fff" d="M23.846 2.488c.535.02 1.05.37 1.346.933a2.144 2.144 0 0 1-.143 1.584 1.908 1.908 0 0 0-.164-1.467c-.15-.494-.52-.92-1.039-1.05z"/>
    </g>
    <g fill-rule="evenodd" stroke-width="1.988">
        <path fill="#f0c" stroke="#000" d="M7.862 1015.051c-.024-14.737 19.915-15.62 24.403-6.885 3.668-8.902 24.456-9.123 24.398 7.059-.041 11.62-12.317 22.903-24.45 36.117-12.07-12.803-24.331-24.22-24.35-36.29z" transform="matrix(.11671 -.05127 .05363 .1119 1.175 -66.304)"/>
        <path fill="#fff" d="M59.961 43.95c.317-.295.812-.392 1.305-.242.376.2.68.542.83.985a1.546 1.546 0 0 0-.938-.741c-.37-.196-.826-.226-1.197-.002z"/>
    </g>
    <path fill="#ccc" fill-rule="evenodd" stroke="#000" stroke-width=".407" d="M29.83 28.757c-2.49 7.698-6.095 13.419-9.4 19.671 1.419.574 2.774.828 4.095.92 1.219.797 2.237.902 3.172.717 1.008.749 2.496 1.016 4.757.512.31 1.011 1.394.941 2.661.614 2.584.32 2.677-.148 3.582-.359.955.122 1.91.485 2.865-.306 1.053.19 2.005.024 2.865-.461 1.948-.314 3.354-.898 4.144-1.791-3.456-6.455-7.114-12.895-9.362-19.443zm.553 1.788c.581 2.78-2.03 8.33-2.993 8.493.18-1.313 1.61-4.723 2.993-8.493zm5.675.832c1.012 2.338 1.757 7.607 1.31 8.684-1.247-1.196-1.747-6.46-1.31-8.684zm-3.113-.366c1.153 2.538-.162 7.248-1.022 9.222-1.408-2.02.595-3.918 1.022-9.222zm5.168-.285c.925 1.538 2.061 5.858 3.265 9.185-2.296-1.758-3.333-7.802-3.265-9.185zM30.113 26.346v-1.122c-1.197-1.668-1.16-2.722-1.085-4.414 1.311-.468 2.096-1.704 2.316-3.4l1.953-1.99c-.02 1.975.043 3.936 1.628 5.643 1.669-1.087 2.254-3.078 2.714-5.173.766 1.906.762 4.39 2.496 5.571-.246 1.594-.05 3.022-1.302 4.993z"/>
    <g fill="#fae">
        <path fill-rule="evenodd" stroke="#000" stroke-width="1.00021828" d="M17.114 19.852l29.343 30.376 3.702-3.625-29.492-30.398z"/>
        <path stroke="#000" stroke-linejoin="round" stroke-width=".81451" d="M17.144 17.318a23.415 23.368-5.74 0 0-6.502 18.617 23.415 23.368-5.74 0 0 25.635 20.912A23.415 23.368-5.74 0 0 57.24 31.25a23.415 23.368-5.74 0 0-25.636-20.91 23.415 23.368-5.74 0 0-14.46 6.977zm3.575 2.694a18.977 18.939-5.74 0 1 11.327-5.262 18.977 18.939-5.74 0 1 20.773 16.945 18.977 18.939-5.74 0 1-16.985 20.744A18.977 18.939-5.74 0 1 15.057 35.49a18.977 18.939-5.74 0 1 5.662-15.48z"/>
        <path fill-rule="evenodd" d="M17.277 19.655L46.67 50.058l3.318-3.25-29.533-30.433z"/>
    </g>
</svg>
