<svg xmlns="http://www.w3.org/2000/svg" viewBox="0 0 64 64">
    <g fill-rule="evenodd">
        <g stroke-width=".856">
            <path fill="#f0c" stroke="#000" d="M7.862 1015.051c-.024-14.737 19.915-15.62 24.403-6.885 3.668-8.902 24.456-9.123 24.398 7.059-.041 11.62-12.317 22.903-24.45 36.117-12.07-12.803-24.331-24.22-24.35-36.29z" transform="matrix(.29027 -.05863 .06637 .28051 -68.751 -277.477)"/>
            <path fill="#fff" d="M10.144 1.855c.864-.515 2.036-.49 3.08.094a4.034 4.034 0 0 1 1.396 2.647c-.33-1.048-1.02-1.768-1.761-2.147-.742-.627-1.763-.92-2.715-.594z"/>
        </g>
        <g stroke-width="1.174">
            <path fill="#f0c" stroke="#000" d="M7.862 1015.051c-.024-14.737 19.915-15.62 24.403-6.885 3.668-8.902 24.456-9.123 24.398 7.059-.041 11.62-12.317 22.903-24.45 36.117-12.07-12.803-24.331-24.22-24.35-36.29z" transform="matrix(.19787 .08633 -.07763 .19528 130.359 -145.729)"/>
            <path fill="#fff" d="M60.701 54.076c.732.054 1.421.558 1.8 1.344a2.94 2.94 0 0 1-.272 2.165c.24-.765.13-1.483-.154-2.02-.182-.684-.668-1.286-1.374-1.49z"/>
        </g>
        <g stroke-width="1.611">
            <path fill="#f0c" stroke="#000" d="M7.862 1015.051c-.024-14.737 19.915-15.62 24.403-6.885 3.668-8.902 24.456-9.123 24.398 7.059-.041 11.62-12.317 22.903-24.45 36.117-12.07-12.803-24.331-24.22-24.35-36.29z" transform="matrix(.1198 -.10206 .10314 .11327 -61.847 -53.817)"/>
            <path fill="#fff" d="M46.807 55.678c.27-.463.82-.753 1.456-.75.517.102.996.4 1.331.87a1.908 1.908 0 0 0-1.372-.544c-.506-.1-1.056.026-1.415.424z"/>
        </g>
        <g stroke-width="1.174">
            <path fill="#f0c" stroke="#000" d="M7.862 1015.051c-.024-14.737 19.915-15.62 24.403-6.885 3.668-8.902 24.456-9.123 24.398 7.059-.041 11.62-12.317 22.903-24.45 36.117-12.07-12.803-24.331-24.22-24.35-36.29z" transform="matrix(.19787 .08633 -.07763 .19528 79.34 -181.134)"/>
            <path fill="#fff" d="M9.682 18.671c.731.054 1.42.559 1.8 1.344a2.94 2.94 0 0 1-.273 2.165c.24-.764.13-1.482-.154-2.019-.181-.684-.668-1.287-1.373-1.49z"/>
        </g>
        <g stroke-width="1.611">
            <path fill="#f0c" stroke="#000" d="M7.862 1015.051c-.024-14.737 19.915-15.62 24.403-6.885 3.668-8.902 24.456-9.123 24.398 7.059-.041 11.62-12.317 22.903-24.45 36.117-12.07-12.803-24.331-24.22-24.35-36.29z" transform="matrix(.14636 .05786 -.05158 .14425 69.504 -144.856)"/>
            <path fill="#fff" d="M23.846 2.488c.535.02 1.05.37 1.346.933a2.144 2.144 0 0 1-.143 1.584 1.908 1.908 0 0 0-.164-1.467c-.15-.494-.52-.92-1.039-1.05z"/>
        </g>
        <g stroke-width="1.988">
            <path fill="#f0c" stroke="#000" d="M7.862 1015.051c-.024-14.737 19.915-15.62 24.403-6.885 3.668-8.902 24.456-9.123 24.398 7.059-.041 11.62-12.317 22.903-24.45 36.117-12.07-12.803-24.331-24.22-24.35-36.29z" transform="matrix(.11671 -.05127 .05363 .1119 1.175 -66.304)"/>
            <path fill="#fff" d="M59.961 43.95c.317-.295.812-.392 1.305-.242.376.2.68.542.83.985a1.546 1.546 0 0 0-.938-.741c-.37-.196-.826-.226-1.197-.002z"/>
        </g>
        <path fill="#f06" stroke="#000" stroke-width=".248" d="M18.02 38.58c4.217-5.357 1.268-15.093 12.632-26.447-.662 2.758-.31 3.618.977 4.871 3.428-4.022 7.667-2.574 11.838-7.418-1.805 5.8 6.025 4.379 5.647 12.341 1.226-.74 2.67-1.492 3.31-3.415 1.259 3.717 1.169 7.65-.933 13.28.873-.372 1.614-1.181 2.852-2.442-3.15 16.711-19.978 14.109-25.927 19.56"/>
        <path fill="#f9f9f9" stroke="#000" stroke-width=".248" d="M11.077 45.466c4.867-3.668 8.368-7.397 12.054-11.118.731-1.672.151-3.435.165-5.157.366-5.005 1.99-7.93 3.692-10.137.967-.71 5.977-.477 8.966-.715 3.504-.092 3.51 3.889 5.307 7.453.078.873-2.18 1.598-2.769 1.52-3.677-2.296-4.33-3.293-5.11-5.366.486 2.818-2.058 1.937-3.988 1.46 1.932.674 2.449.795 3.217 2.3.668 1.308 1.939 2.59 2.346 3.63 1.321 3.382-.41 6.06-2.036 8.172 1.006-1.385 2.218-1.888 3-4.233 2.722.29 1.99 3.061 2.736 4.77 2.991.89 3.846.755 5.768 1.133-3.613 1.388-3.33 2.22-4.845 3.309-2.341 1.095-4.246.712-6.362 1.044-.49-2.996-1.44-2.656-2.208-3.638-.31-.808.088-1.166.164-1.729-1.439 1.625-2.878-.189-4.318-.626 1.152.8 3.048 1.875 3.264 2.326.33.787-2.087 2.364-3.132 3.547 1.22-1.003 2.13-1.449 3.659-3.01 1.295.183 1.916 2.415 2.143 3.428-1.007.934-1.641 1.96-3.264 2.742l-6.428 8.349c-.628-.526-11.547-9.068-12.021-9.454z"/>
        <path fill="#f9f9f9" stroke="#000" stroke-width=".248" d="M36.34 17.858c1.645-1.226 3.499-1.295 5.455-2.129 2.924-.4 3.767 3.077 4.592 4.006-.806 1.381-3.025 1.497-5.967 2.466-.73-2.598-1.902-4.309-4.08-4.343zM40.816 23.234c.845-.367 3.63-1.51 5.478-1.855.738.105 1.775 1.7 2.167 4.596-.706 1.282-5.832 1.954-12.027 3.836-.418-.044-2.292-2.787-1.958-4.11 1.12-.43 1.876 1.58 4.056 2.065.738.109 3.246-.582 3.31-1.813-.333-.906-.472-1.813-1.026-2.719zM36.97 31.034c-.092-.986 6.993-2.474 10.419-3.584 1.494-.14 2.424 4.568 2.028 4.828-3.088 1.105-5.972 1.534-8.88 2.045-2.49.288-3.637-1.961-3.567-3.29zM39.068 34.913c-.375.159-.18 1.147.186 2.55 1.904.422 2.456.767 5.711 1.265a16.227 16.227 0 0 0 4.242-1.412c.519.135.259-4.237-.63-4.195-3.624 1.268-5.572 1.628-9.509 1.792z"/>
    </g>
</svg>
