<svg version="1.1" viewBox="0 0 64 64" xmlns="http://www.w3.org/2000/svg">
 <g fill-rule="evenodd">
  <g stroke-width=".856">
   <path transform="matrix(.29027 -.05863 .06637 .28051 -68.751 -277.48)" d="m7.862 1015.1c-0.024-14.737 19.915-15.62 24.403-6.885 3.668-8.902 24.456-9.123 24.398 7.059-0.041 11.62-12.317 22.903-24.45 36.117-12.07-12.803-24.331-24.22-24.35-36.29z" fill="#f0c" stroke="#000"/>
   <path d="m10.144 1.855c0.864-0.515 2.036-0.49 3.08 0.094a4.034 4.034 0 0 1 1.396 2.647c-0.33-1.048-1.02-1.768-1.761-2.147-0.742-0.627-1.763-0.92-2.715-0.594z" fill="#fff"/>
  </g>
  <g stroke-width="1.174">
   <path transform="matrix(.19787 .08633 -.07763 .19528 130.36 -145.73)" d="m7.862 1015.1c-0.024-14.737 19.915-15.62 24.403-6.885 3.668-8.902 24.456-9.123 24.398 7.059-0.041 11.62-12.317 22.903-24.45 36.117-12.07-12.803-24.331-24.22-24.35-36.29z" fill="#f0c" stroke="#000"/>
   <path d="m60.701 54.076c0.732 0.054 1.421 0.558 1.8 1.344a2.94 2.94 0 0 1-0.272 2.165c0.24-0.765 0.13-1.483-0.154-2.02-0.182-0.684-0.668-1.286-1.374-1.49z" fill="#fff"/>
  </g>
  <g stroke-width="1.611">
   <path transform="matrix(.1198 -.10206 .10314 .11327 -61.847 -53.817)" d="m7.862 1015.1c-0.024-14.737 19.915-15.62 24.403-6.885 3.668-8.902 24.456-9.123 24.398 7.059-0.041 11.62-12.317 22.903-24.45 36.117-12.07-12.803-24.331-24.22-24.35-36.29z" fill="#f0c" stroke="#000"/>
   <path d="m46.807 55.678c0.27-0.463 0.82-0.753 1.456-0.75 0.517 0.102 0.996 0.4 1.331 0.87a1.908 1.908 0 0 0-1.372-0.544c-0.506-0.1-1.056 0.026-1.415 0.424z" fill="#fff"/>
  </g>
  <g stroke-width="1.174">
   <path transform="matrix(.19787 .08633 -.07763 .19528 79.34 -181.13)" d="m7.862 1015.1c-0.024-14.737 19.915-15.62 24.403-6.885 3.668-8.902 24.456-9.123 24.398 7.059-0.041 11.62-12.317 22.903-24.45 36.117-12.07-12.803-24.331-24.22-24.35-36.29z" fill="#f0c" stroke="#000"/>
   <path d="m9.682 18.671c0.731 0.054 1.42 0.559 1.8 1.344a2.94 2.94 0 0 1-0.273 2.165c0.24-0.764 0.13-1.482-0.154-2.019-0.181-0.684-0.668-1.287-1.373-1.49z" fill="#fff"/>
  </g>
  <g stroke-width="1.611">
   <path transform="matrix(.14636 .05786 -.05158 .14425 69.504 -144.86)" d="m7.862 1015.1c-0.024-14.737 19.915-15.62 24.403-6.885 3.668-8.902 24.456-9.123 24.398 7.059-0.041 11.62-12.317 22.903-24.45 36.117-12.07-12.803-24.331-24.22-24.35-36.29z" fill="#f0c" stroke="#000"/>
   <path d="m23.846 2.488c0.535 0.02 1.05 0.37 1.346 0.933a2.144 2.144 0 0 1-0.143 1.584 1.908 1.908 0 0 0-0.164-1.467c-0.15-0.494-0.52-0.92-1.039-1.05z" fill="#fff"/>
  </g>
  <g stroke-width="1.988">
   <path transform="matrix(.11671 -.05127 .05363 .1119 1.175 -66.304)" d="m7.862 1015.1c-0.024-14.737 19.915-15.62 24.403-6.885 3.668-8.902 24.456-9.123 24.398 7.059-0.041 11.62-12.317 22.903-24.45 36.117-12.07-12.803-24.331-24.22-24.35-36.29z" fill="#f0c" stroke="#000"/>
   <path d="m59.961 43.95c0.317-0.295 0.812-0.392 1.305-0.242 0.376 0.2 0.68 0.542 0.83 0.985a1.546 1.546 0 0 0-0.938-0.741c-0.37-0.196-0.826-0.226-1.197-2e-3z" fill="#fff"/>
  </g>
 </g>
 <g>
  <path d="m40.173 54.371-18.716 0.08323c-0.86702-7.7959-7.115-24.183 3.5165-35.108l-0.40249-9.3216 18.917 0.16646c-0.01535 3.7382-0.25694 7.9835-0.09114 10.823 4.3093 23.861-2.9608 27.427-3.2246 33.358z" fill="#fae" stroke="#000" stroke-linecap="round" stroke-linejoin="round" stroke-width=".35"/>
  <path d="m38.076 51.597-14.073 0.07566c-0.65197-7.0872-4.6653-20.939 3.3292-30.87l-0.30265-8.4742 13.468 0.15132c-0.01155 3.3983-0.04901 6.9527 0.07566 9.5338 3.2404 21.692-2.2985 24.192-2.4969 29.584z" fill="#808080" stroke="#000" stroke-linecap="round" stroke-linejoin="round" stroke-width=".35"/>
  <g transform="matrix(.6561 0 0 .6561 11.004 11.005)" stroke-width=".83829">
   <path d="m24.896 14.81c3.2e-4 0.02207 0.25421 0.02288 0.25453 0.04495 0.0084 0.52625 0.13966 1.4966 0.09011 2.3872-0.05203 0.93511-0.0467 1.9148 0.04659 2.5762-0.08447-0.5988-0.34363-1.6204-0.5363-2.5385-0.18785-0.89516-0.01941-1.6394-0.02859-2.2158-3.54e-4 -0.02222 0.17402-0.23174 0.17367-0.25396z"/>
   <path d="m45.067 16.777c-1.42e-4 0.0016-0.25915-0.02747-0.25929-0.02589-0.05745 0.63897-0.27057 1.6397-0.3066 2.4875-0.03477 0.81782-0.12475 1.754-0.25434 2.3593 0.14766-0.68966 0.43531-1.4008 0.72665-2.2713 0.28409-0.84881 0.21039-1.6513 0.27837-2.4073 1.43e-4 -0.0016-0.18494-0.14063-0.18479-0.14222z"/>
   <path d="m26.304 38.064c0 3.0219 0.21403 4.9384 0.94151 8.6588 0.69581 3.5584 1.0602 5.2177 1.032 7.9022l0.7258 0.13122c0.02297-0.06448 0.07331-0.47362 0.09591-0.5331 0.33626-0.88484 0.9835-1.4871 2.1669-3.0565 0.88538-1.1742 2.0681-2.5521 3.3092-4.1865 1.4966-1.9708 2.8609-4.0587 4.0394-6.603 1.1747-2.5358 1.8788-4.9178 2.3614-6.9208-0.4795 1.99-1.2565 4.3823-2.513 6.8471-1.2631 2.4775-2.7252 4.4852-4.3067 6.3396-1.3176 1.545-2.5794 2.8377-3.561 3.984-1.3041 1.523-1.6202 2.0806-2.0012 3.0832-0.02584 0.06799-0.21607 0.68724-0.24157 0.7616l0.60706-0.07885c4.51e-4 -2.6523-0.25523-4.4589-1.2079-7.7918-0.97407-3.4075-1.4477-5.7255-1.4477-8.5372z"/>
   <path d="m28.828 53.639c-0.02454 0.20645-0.50334 0.75663-0.54068 0.97634-0.07013 0.4126-0.38094 1.8246-0.47384 2.9922-0.17461 2.1949-0.0873 3.2202 0.0202 4.5493-0.08885-1.0985 0.13693-2.5864 0.61872-4.4422 0.35532-1.3686 0.425-2.268 0.54356-2.9656 0.0385-0.22654-0.1925-0.90364-0.16796-1.1101z"/>
  </g>
 </g>
</svg>
