<svg xmlns="http://www.w3.org/2000/svg" viewBox="0 0 64 64">
    <g fill-rule="evenodd">
        <g stroke-width=".856">
            <path fill="#f0c" stroke="#000" d="M7.862 1015.051c-.024-14.737 19.915-15.62 24.403-6.885 3.668-8.902 24.456-9.123 24.398 7.059-.041 11.62-12.317 22.903-24.45 36.117-12.07-12.803-24.331-24.22-24.35-36.29z" transform="matrix(.29027 -.05863 .06637 .28051 -68.751 -277.477)"/>
            <path fill="#fff" d="M10.144 1.855c.396-.236.856-.36 1.344-.366.487-.006.996.105 1.482.331.085.04.169.083.252.13a4.027 4.027 0 0 1 1.398 2.646c-.33-1.047-1.02-1.768-1.76-2.147a3.044 3.044 0 0 0-1.393-.679 2.564 2.564 0 0 0-1.323.085z"/>
        </g>
        <g stroke-width="1.174">
            <path fill="#f0c" stroke="#000" d="M7.862 1015.051c-.024-14.737 19.915-15.62 24.403-6.885 3.668-8.902 24.456-9.123 24.398 7.059-.041 11.62-12.317 22.903-24.45 36.117-12.07-12.803-24.331-24.22-24.35-36.29z" transform="matrix(.19787 .08633 -.07763 .19528 130.359 -145.729)"/>
            <path fill="#fff" d="M60.701 54.076c.336.025.662.143.956.343a2.496 2.496 0 0 1 .843 1c.186.7.108 1.47-.27 2.166.24-.764.13-1.483-.154-2.018a2.219 2.219 0 0 0-.548-.988 1.87 1.87 0 0 0-.827-.503z"/>
        </g>
        <g stroke-width="1.611">
            <path fill="#f0c" stroke="#000" d="M7.862 1015.051c-.024-14.737 19.915-15.62 24.403-6.885 3.668-8.902 24.456-9.123 24.398 7.059-.041 11.62-12.317 22.903-24.45 36.117-12.07-12.803-24.331-24.22-24.35-36.29z" transform="matrix(.1198 -.10206 .10314 .11327 -61.847 -53.817)"/>
            <path fill="#fff" d="M46.807 55.678c.124-.212.305-.388.53-.517a1.82 1.82 0 0 1 .925-.233 2.14 2.14 0 0 1 1.332.87 1.91 1.91 0 0 0-1.37-.544 1.618 1.618 0 0 0-.822.043 1.363 1.363 0 0 0-.595.38z"/>
        </g>
        <g stroke-width="1.174">
            <path fill="#f0c" stroke="#000" d="M7.862 1015.051c-.024-14.737 19.915-15.62 24.403-6.885 3.668-8.902 24.456-9.123 24.398 7.059-.041 11.62-12.317 22.903-24.45 36.117-12.07-12.803-24.331-24.22-24.35-36.29z" transform="matrix(.19787 .08633 -.07763 .19528 79.34 -181.134)"/>
            <path fill="#fff" d="M9.682 18.671c.335.025.661.143.955.344a2.496 2.496 0 0 1 .844 1c.185.699.107 1.469-.272 2.165.24-.764.13-1.483-.153-2.018a2.219 2.219 0 0 0-.548-.988 1.87 1.87 0 0 0-.826-.503z"/>
        </g>
        <g stroke-width="1.611">
            <path fill="#f0c" stroke="#000" d="M7.862 1015.051c-.024-14.737 19.915-15.62 24.403-6.885 3.668-8.902 24.456-9.123 24.398 7.059-.041 11.62-12.317 22.903-24.45 36.117-12.07-12.803-24.331-24.22-24.35-36.29z" transform="matrix(.14636 .05786 -.05158 .14425 69.504 -144.856)"/>
            <path fill="#fff" d="M23.846 2.488c.245.01.486.087.705.225a1.82 1.82 0 0 1 .64.708 2.14 2.14 0 0 1-.142 1.584 1.91 1.91 0 0 0-.163-1.466 1.618 1.618 0 0 0-.425-.706 1.363 1.363 0 0 0-.615-.345z"/>
        </g>
        <g stroke-width="1.988">
            <path fill="#f0c" stroke="#000" d="M7.862 1015.051c-.024-14.737 19.915-15.62 24.403-6.885 3.668-8.902 24.456-9.123 24.398 7.059-.041 11.62-12.317 22.903-24.45 36.117-12.07-12.803-24.331-24.22-24.35-36.29z" transform="matrix(.11671 -.05127 .05363 .1119 1.175 -66.304)"/>
            <path fill="#fff" d="M59.961 43.95c.145-.135.327-.23.532-.277a1.474 1.474 0 0 1 .772.035c.377.2.68.542.83.985a1.548 1.548 0 0 0-.936-.742 1.31 1.31 0 0 0-.648-.158 1.104 1.104 0 0 0-.55.157z"/>
        </g>
        <path fill="#fae" stroke="#000" stroke-width=".751" d="M56.668 16.7c1.122-5.201-2.211-8.46-2.211-8.46-3.214-3.333-21.798 6.578-16.485 10.01-7.366 9.1-12.881 13.348-19.766 17.877-6.885 4.53-8.697 3.587-11.602 8.834-2.198 16.205 14.108 16.02 15.848 13.35 5.294.394 13.515.596 12.213-11.708 8.978-6.501 15.81-18.293 22.003-29.902z"/>
        <path fill="#808080" stroke="#000" stroke-width=".238" d="M25.46 1038.595c-5.453 2.494-4.605 7.406-.952 9.92 2.887 1.985 7.031 1.765 8.605.044 9.63 2.926 9.94-5.456 8.66-7.568 9.723-5.578 13.72-13.597 18.247-20.6 1.124-2.2 1.375-5.392-1.682-6.139-1.996-.486-6.687 1.69-10.174 5.046-.326.313-.191 1.102.504 1.345-5.739 7.665-13.481 13.504-23.207 17.952z" transform="matrix(1.19073 0 0 1.34575 -17.423 -1355.48)"/>
        <path d="M40.524 18.06l.045-.162c.335.134.66.181 1.024.175.366-.014.766-.068 1.25-.145.969-.153 2.24-.363 4.184-.305-1.943 0-3.205.264-4.159.472-.476.104-.884.196-1.264.232a2.724 2.724 0 0 1-1.125-.105zM21.894 55.724h.144c.276-.42.623-.924.932-1.453.329-.563.614-1.154.73-1.705-.153.535-.47 1.098-.826 1.629-.335.5-.707.971-1.013 1.368.01.053.022.105.033.158zM53.965 17.864c.022-.025.043-.05.064-.078a.64.64 0 0 0-.18-.114 1.6 1.6 0 0 0-.237-.08 4.327 4.327 0 0 0-.581-.102 10.462 10.462 0 0 0-.599-.052c-.184-.014-.343-.02-.448-.026.104.023.262.049.444.078.182.03.388.063.59.105.201.042.396.092.557.151.08.03.15.062.206.096a.392.392 0 0 1 .118.098 3.33 3.33 0 0 1 .066-.075z"/>
    </g>
</svg>
