<svg xmlns="http://www.w3.org/2000/svg" viewBox="0 0 64 64">
    <g fill-rule="evenodd" stroke-width=".856">
        <path fill="#f0c" stroke="#000" d="M7.862 1015.051c-.024-14.737 19.915-15.62 24.403-6.885 3.668-8.902 24.456-9.123 24.398 7.059-.041 11.62-12.317 22.903-24.45 36.117-12.07-12.803-24.331-24.22-24.35-36.29z" transform="matrix(.29027 -.05863 .06637 .28051 -68.751 -277.477)"/>
        <path fill="#fff" d="M10.144 1.855c.864-.515 2.036-.49 3.08.094a4.034 4.034 0 0 1 1.396 2.647c-.33-1.048-1.02-1.768-1.761-2.147-.742-.627-1.763-.92-2.715-.594z"/>
    </g>
    <g fill-rule="evenodd" stroke-width="1.174">
        <path fill="#f0c" stroke="#000" d="M7.862 1015.051c-.024-14.737 19.915-15.62 24.403-6.885 3.668-8.902 24.456-9.123 24.398 7.059-.041 11.62-12.317 22.903-24.45 36.117-12.07-12.803-24.331-24.22-24.35-36.29z" transform="matrix(.19787 .08633 -.07763 .19528 130.359 -145.729)"/>
        <path fill="#fff" d="M60.701 54.076c.732.054 1.421.558 1.8 1.344a2.94 2.94 0 0 1-.272 2.165c.24-.765.13-1.483-.154-2.02-.182-.684-.668-1.286-1.374-1.49z"/>
    </g>
    <g fill-rule="evenodd" stroke-width="1.611">
        <path fill="#f0c" stroke="#000" d="M7.862 1015.051c-.024-14.737 19.915-15.62 24.403-6.885 3.668-8.902 24.456-9.123 24.398 7.059-.041 11.62-12.317 22.903-24.45 36.117-12.07-12.803-24.331-24.22-24.35-36.29z" transform="matrix(.1198 -.10206 .10314 .11327 -61.847 -53.817)"/>
        <path fill="#fff" d="M46.807 55.678c.27-.463.82-.753 1.456-.75.517.102.996.4 1.331.87a1.908 1.908 0 0 0-1.372-.544c-.506-.1-1.056.026-1.415.424z"/>
    </g>
    <g fill-rule="evenodd" stroke-width="1.174">
        <path fill="#f0c" stroke="#000" d="M7.862 1015.051c-.024-14.737 19.915-15.62 24.403-6.885 3.668-8.902 24.456-9.123 24.398 7.059-.041 11.62-12.317 22.903-24.45 36.117-12.07-12.803-24.331-24.22-24.35-36.29z" transform="matrix(.19787 .08633 -.07763 .19528 79.34 -181.134)"/>
        <path fill="#fff" d="M9.682 18.671c.731.054 1.42.559 1.8 1.344a2.94 2.94 0 0 1-.273 2.165c.24-.764.13-1.482-.154-2.019-.181-.684-.668-1.287-1.373-1.49z"/>
    </g>
    <g fill-rule="evenodd" stroke-width="1.611">
        <path fill="#f0c" stroke="#000" d="M7.862 1015.051c-.024-14.737 19.915-15.62 24.403-6.885 3.668-8.902 24.456-9.123 24.398 7.059-.041 11.62-12.317 22.903-24.45 36.117-12.07-12.803-24.331-24.22-24.35-36.29z" transform="matrix(.14636 .05786 -.05158 .14425 69.504 -144.856)"/>
        <path fill="#fff" d="M23.846 2.488c.535.02 1.05.37 1.346.933a2.144 2.144 0 0 1-.143 1.584 1.908 1.908 0 0 0-.164-1.467c-.15-.494-.52-.92-1.039-1.05z"/>
    </g>
    <g fill-rule="evenodd" stroke-width="1.988">
        <path fill="#f0c" stroke="#000" d="M7.862 1015.051c-.024-14.737 19.915-15.62 24.403-6.885 3.668-8.902 24.456-9.123 24.398 7.059-.041 11.62-12.317 22.903-24.45 36.117-12.07-12.803-24.331-24.22-24.35-36.29z" transform="matrix(.11671 -.05127 .05363 .1119 1.175 -66.304)"/>
        <path fill="#fff" d="M59.961 43.95c.317-.295.812-.392 1.305-.242.376.2.68.542.83.985a1.546 1.546 0 0 0-.938-.741c-.37-.196-.826-.226-1.197-.002z"/>
    </g>
    <path fill="#ccc" fill-rule="evenodd" stroke="#000" stroke-width=".407" d="M11.284 40.257c-2.49 7.698-6.095 13.419-9.399 19.671 1.418.574 2.773.828 4.094.92 1.219.797 2.237.902 3.172.717 1.008.749 2.496 1.016 4.757.512.31 1.011 1.394.941 2.661.614 2.585.32 2.677-.148 3.582-.359.955.122 1.91.485 2.865-.306 1.053.19 2.005.024 2.865-.461 1.948-.314 3.354-.898 4.144-1.791-3.456-6.455-7.114-12.895-9.362-19.443zm.553 1.788c.581 2.78-2.03 8.33-2.993 8.493.18-1.313 1.61-4.723 2.993-8.493zm5.675.832c1.012 2.338 1.757 7.607 1.31 8.684-1.247-1.196-1.747-6.46-1.31-8.684zm-3.113-.366c1.153 2.538-.162 7.248-1.022 9.222-1.408-2.02.595-3.918 1.022-9.222zm5.168-.285c.925 1.538 2.061 5.858 3.265 9.185-2.296-1.758-3.333-7.802-3.265-9.185zM11.921 37.05v-1.121c-1.197-1.668-1.16-2.722-1.085-4.414 1.31-.469 2.096-1.704 2.315-3.4l1.954-1.991c-.02 1.975.042 3.936 1.628 5.644 1.669-1.088 2.254-3.078 2.713-5.174.767 1.907.763 4.391 2.497 5.572-.246 1.594-.05 3.021-1.303 4.993z"/>
    <g transform="matrix(1.21 0 0 1.21 49.266 -1239.033)">
        <ellipse cx="-12.365" cy="1032.336" fill="#ff80e5" stroke="#000" stroke-linecap="round" stroke-linejoin="round" stroke-width=".75" rx="6.29" ry="6.038"/>
        <path fill="none" stroke="#000" stroke-width="2.522" d="M-12.456 1037.998l.02 6.063"/>
        <path fill="none" stroke="#000" stroke-width="2.662" d="M-16.107 1040.625h7.487"/>
        <path fill="none" stroke="#ff80e5" stroke-width="1.019" d="M-12.41 1036.29l.021 7.072"/>
        <path fill="none" stroke="#ff80e5" stroke-width=".978" d="M-15.398 1040.626l6.165-.032"/>
    </g>
    <g transform="translate(67.059 -1258.846) scale(1.26445)">
        <path fill="none" stroke="#000" stroke-width="2.266" d="M-23.023 1023.652l5.657-.02-.006 6.153"/>
        <ellipse cx="-25.417" cy="1031.525" fill="#80b3ff" stroke="#000" stroke-linecap="round" stroke-linejoin="round" stroke-width=".75" rx="6.262" ry="6.011"/>
        <path fill="none" stroke="#000" stroke-width="2.385" d="M-20.968 1027.16l3.17-3.075"/>
        <path fill="none" stroke="#80b3ff" stroke-width=".964" d="M-22.17 1028.242l4.836-4.623"/>
        <path fill="none" stroke="#80b3ff" stroke-width=".842" d="M-22.35 1023.67l4.937-.026-.016 5.464"/>
    </g>
    <g fill="#ccc" fill-rule="evenodd" stroke="#000">
        <path stroke-width=".367" d="M47.373 23.523l1.796-7.664-.63-2.53s-.942 5.088-1.705 10.36c-.648.068-1.34.01-1.79.01 0-6.801 1.122-17.17 1.38-18.205 2.178-1.014 3.522-1.467 4.58-1.921l.223-.764 2.355 12.381 2.29-12.354.242.743c1.572.397 4.571 1.901 4.571 1.901s1.141 12.848 1.366 18.061l-1.693.069s-1.356-7.307-1.859-9.917c-.2.675-.578 2.283-.578 2.283l1.802 7.58-5.253 2.25-.941-4.223-.933 4.271z"/>
        <path stroke-width=".407" d="M53.526 12.224l-1.174-6.442 1.034-1.41-.499-1.086 1.34.031-.38 1.036.906 1.44z"/>
    </g>
</svg>
