<svg xmlns="http://www.w3.org/2000/svg" viewBox="0 0 64 64">
    <g fill-rule="evenodd">
        <path fill="#ff8080" stroke="#000" stroke-width=".8" d="M13.087 24.244c-.068-8.64 8.68-12.252 14.582-8.476.566.362 3.178 8.998 3.178 8.998l-3.887 9.131 4.339 9.965-.32-9.857 4.339-9.46s-1.526-8.21-1.193-8.454c5.64-4.144 15.295-.451 15.32 9.255.021 8.43-12.074 14.345-18.054 24.563C24.654 39.255 13.155 33 13.087 24.244z"/>
        <path fill="#fff" d="M38.541 17.338c2.424-.78 5.276-.057 7.494 1.945 1.493 1.999 2.247 4.574 1.94 7.305-.218-2.744-1.496-4.89-3.102-6.235-1.479-1.976-3.826-3.275-6.332-3.015z"/>
    </g>
</svg>
