<?xml version="1.0" encoding="UTF-8" standalone="no"?>
<svg
   xmlns:dc="http://purl.org/dc/elements/1.1/"
   xmlns:cc="http://creativecommons.org/ns#"
   xmlns:rdf="http://www.w3.org/1999/02/22-rdf-syntax-ns#"
   xmlns:svg="http://www.w3.org/2000/svg"
   xmlns="http://www.w3.org/2000/svg"
   xmlns:sodipodi="http://sodipodi.sourceforge.net/DTD/sodipodi-0.dtd"
   xmlns:inkscape="http://www.inkscape.org/namespaces/inkscape"
   viewBox="0 0 64 64"
   version="1.1"
   id="svg4"
   sodipodi:docname="goldenBackground.svg"
   inkscape:version="1.0.1 (3bc2e813f5, 2020-09-07)">
  <metadata
     id="metadata10">
    <rdf:RDF>
      <cc:Work
         rdf:about="">
        <dc:format>image/svg+xml</dc:format>
        <dc:type
           rdf:resource="http://purl.org/dc/dcmitype/StillImage" />
        <dc:title></dc:title>
      </cc:Work>
    </rdf:RDF>
  </metadata>
  <defs
     id="defs8" />
  <sodipodi:namedview
     pagecolor="#ffffff"
     bordercolor="#666666"
     borderopacity="1"
     objecttolerance="10"
     gridtolerance="10"
     guidetolerance="10"
     inkscape:pageopacity="0"
     inkscape:pageshadow="2"
     inkscape:window-width="1313"
     inkscape:window-height="1018"
     id="namedview6"
     showgrid="false"
     inkscape:zoom="11.484375"
     inkscape:cx="32"
     inkscape:cy="32"
     inkscape:window-x="0"
     inkscape:window-y="0"
     inkscape:window-maximized="0"
     inkscape:current-layer="svg4" />
  <g
     id="g40">
    <ellipse
       cx="28.466"
       cy="35.066"
       fill="#ffe6d5"
       fill-rule="evenodd"
       stroke="#000"
       stroke-width="2"
       color="#000"
       overflow="visible"
       rx="29.831"
       ry="29.831"
       transform="rotate(-6.004)"
       style="isolation:auto;mix-blend-mode:normal;solid-color:#000;solid-opacity:1"
       id="ellipse2" />
    <path
       style="fill:#c99722;stroke:none;stroke-width:0.0886523"
       d="m 6.996319,18.221728 5.08055,11.170212 2.543563,6.028369 h 0.08865 L 13.5566,28.594067 c 0.993262,0.846543 2.255053,1.382181 3.457446,1.861702 3.651507,1.456203 8.513563,2.398492 11.968085,-0.03892 1.582889,-1.116845 2.261434,-2.695479 3.014183,-4.393707 0.535195,1.20727 0.948582,2.375178 1.869681,3.368794 3.799556,4.098846 10.028548,2.165424 14.442374,0.35461 l -2.748223,5.67376 c -1.736526,-0.747341 -3.819063,-0.998937 -5.673759,-1.30789 -5.644773,-0.940427 -11.789363,-0.907979 -17.198582,1.147605 -2.164628,0.822608 -5.028901,2.08617 -6.471631,3.972341 2.016223,-0.868796 3.904432,-1.874203 6.028368,-2.507003 5.511347,-1.642288 11.378102,-1.711881 16.932624,-0.251509 2.676507,0.703726 4.974468,2.092463 7.535459,3.024471 l 7.297873,-15.336881 2.985816,-5.939715 c -1.82828,0.618528 -3.99211,1.769769 -4.63218,3.723404 -0.233512,0.712766 0.266399,2.048847 -0.102837,2.562943 -0.62509,0.870213 -1.89805,1.538032 -2.800443,2.082357 -2.92385,1.763653 -7.139362,3.430497 -10.549647,2.160639 -2.680585,-0.998138 -4.435018,-3.719327 -5.424557,-6.274025 -0.261259,-0.674379 -0.850621,-1.82961 -0.737499,-2.562942 0.05558,-0.361083 0.514094,-0.650355 0.752926,-0.894593 0.449025,-0.459042 0.878989,-1.026152 0.960104,-1.684308 0.153992,-1.249451 -0.829255,-2.52953 -1.549643,-3.457447 -0.195479,-0.251755 -0.554613,-0.868191 -0.9172,-0.868191 -0.397785,0 -0.773846,0.680709 -0.984485,0.956844 -0.703458,0.922358 -1.684751,2.216693 -1.467642,3.457447 0.109133,0.623909 0.53493,1.218306 0.971633,1.659042 0.234928,0.236967 0.677303,0.471809 0.727748,0.831206 0.105142,0.749556 -0.498758,1.962765 -0.771453,2.651595 -1.050267,2.65328 -2.950799,5.494326 -5.832979,6.34406 -3.331118,0.982093 -7.282802,-0.64539 -10.106383,-2.319504 -0.904455,-0.536345 -2.186121,-1.199554 -2.800411,-2.077657 -0.360674,-0.515603 0.132083,-1.782447 -0.07545,-2.478812 -0.569433,-1.910639 -2.8251955,-3.310372 -4.6595929,-3.812056 m 14.3617009,0.08865 c -0.671897,1.151418 -1.414362,2.828102 -0.902925,4.166666 0.187056,0.489716 1.075709,0.892731 1.094769,1.339096 0.05302,1.237234 -1.259486,2.30523 -1.521631,3.448138 2.027304,0.571011 5.571099,0.626596 6.648934,-1.684397 -0.82686,-0.50789 -2.611257,-1.339273 -2.951417,-2.306294 -0.150886,-0.429167 0.318263,-1.092642 0.283777,-1.594415 -0.09601,-1.395125 -1.463652,-2.777039 -2.651507,-3.368794 m 15.868794,7.269503 c 1.371011,2.308865 4.518882,2.192997 6.737589,1.684397 -0.263121,-1.120124 -1.611969,-2.224822 -1.526153,-3.448138 0.03193,-0.453812 0.875709,-0.781117 1.071099,-1.250443 0.566753,-1.36188 -0.187499,-3.077838 -0.874735,-4.255319 -1.175086,0.55913 -2.499556,1.930141 -2.644146,3.280141 -0.0547,0.510284 0.441577,1.273316 0.261345,1.684398 -0.420564,0.959397 -2.114183,1.879255 -3.024999,2.304964 m 11.170213,4.078014 -0.08866,0.08865 0.08866,-0.08865 m -4.875887,14.982267 h -0.08866 c -1.018085,1.441315 -3.149115,1.770834 -4.787235,1.954787 -3.948494,0.443528 -8.060462,0.452573 -11.968085,-0.341401 -1.420918,-0.28874 -2.938825,-0.678633 -4.166662,-1.475088 -0.465159,-0.301686 -1.148936,-0.831203 -0.898759,-1.467995 0.213475,-0.543443 0.851862,-0.877662 1.342022,-1.12961 1.290071,-0.662944 2.744059,-1.029344 4.166665,-1.271277 4.507182,-0.766577 9.623406,-0.75603 14.007093,0.687233 1.964446,0.646721 4.248847,1.85009 4.255317,4.195832 0.2625,-0.325264 0.386436,-0.749557 0.48954,-1.152481 0.71862,-2.808772 -1.992994,-4.517992 -4.301588,-5.287672 -3.540961,-1.180587 -7.477751,-1.356117 -11.170213,-1.103281 -2.423672,0.166046 -4.848672,0.390424 -7.180852,1.137944 -1.742554,0.558598 -5.345567,2.000353 -5.220922,4.277836 0.110372,2.017376 2.914982,3.005407 4.511702,3.515602 4.8539,1.550886 10.67349,1.799203 15.691488,1.056472 1.984665,-0.293796 5.265958,-1.099024 5.319149,-3.596897 z"
       id="path28" />
  </g>
</svg>
