<?xml version="1.0" encoding="UTF-8" standalone="no"?>
<svg
   xmlns:dc="http://purl.org/dc/elements/1.1/"
   xmlns:cc="http://creativecommons.org/ns#"
   xmlns:rdf="http://www.w3.org/1999/02/22-rdf-syntax-ns#"
   xmlns:svg="http://www.w3.org/2000/svg"
   xmlns="http://www.w3.org/2000/svg"
   xmlns:xlink="http://www.w3.org/1999/xlink"
   xmlns:sodipodi="http://sodipodi.sourceforge.net/DTD/sodipodi-0.dtd"
   xmlns:inkscape="http://www.inkscape.org/namespaces/inkscape"
   cursor="default"
   version="1.1"
   viewBox="0 0 256 256"
   id="svg25"
   sodipodi:docname="monkeyicon.svg"
   inkscape:version="1.0.1 (3bc2e813f5, 2020-09-07)">
  <metadata
     id="metadata29">
    <rdf:RDF>
      <cc:Work
         rdf:about="">
        <dc:format>image/svg+xml</dc:format>
        <dc:type
           rdf:resource="http://purl.org/dc/dcmitype/StillImage" />
        <dc:title />
      </cc:Work>
    </rdf:RDF>
  </metadata>
  <sodipodi:namedview
     pagecolor="#ffffff"
     bordercolor="#666666"
     borderopacity="1"
     objecttolerance="10"
     gridtolerance="10"
     guidetolerance="10"
     inkscape:pageopacity="0"
     inkscape:pageshadow="2"
     inkscape:window-width="1750"
     inkscape:window-height="1018"
     id="namedview27"
     showgrid="false"
     inkscape:zoom="2.8710938"
     inkscape:cx="128"
     inkscape:cy="128"
     inkscape:window-x="0"
     inkscape:window-y="0"
     inkscape:window-maximized="0"
     inkscape:current-layer="svg25"
     inkscape:document-rotation="0" />
  <defs
     id="defs9">
    <linearGradient
       id="innoGrad1">
      <stop
         stop-color="#f55"
         offset="0"
         id="stop2" />
      <stop
         stop-color="#ff8080"
         offset="1"
         id="stop4" />
    </linearGradient>
    <linearGradient
       id="linearGradient828"
       x1="173.54"
       x2="139.41"
       y1="204.61"
       y2="178.91"
       gradientTransform="translate(-4.8814,-1.0847)"
       gradientUnits="userSpaceOnUse"
       xlink:href="#innoGrad1" />
    <linearGradient
       id="linearGradient830"
       x1="144.01"
       x2="119.27"
       y1="149.77"
       y2="137.3"
       gradientTransform="translate(-4.8814,-1.0847)"
       gradientUnits="userSpaceOnUse"
       xlink:href="#innoGrad1" />
  </defs>
  <g
     id="g53">
    <ellipse
       style="fill:#ff8080;stroke:#ff8080;stroke-width:0.444979"
       id="path78"
       cx="126.71513"
       cy="49.918392"
       rx="30.70356"
       ry="33.595924" />
    <ellipse
       style="fill:#ff8080;stroke:#ff8080;stroke-width:0.444979"
       id="path80"
       cx="155.86127"
       cy="127.34474"
       rx="28.256172"
       ry="86.993416" />
    <circle
       style="fill:#ff8080;stroke:#ff8080;stroke-width:0.444979"
       id="path82-0"
       cx="130.71994"
       cy="83.95929"
       r="9.3445616" />
    <ellipse
       style="fill:#ff8080;stroke:#ff8080;stroke-width:0.605092"
       id="path84"
       cx="181.22507"
       cy="141.1391"
       rx="33.960846"
       ry="80.23867" />
    <ellipse
       style="fill:#ff8080;stroke:#ff8080;stroke-width:0.444979"
       id="path86"
       cx="174.77287"
       cy="66.160126"
       rx="7.5646448"
       ry="8.4546032" />
    <ellipse
       style="fill:#ff8080;stroke:#ff8080;stroke-width:0.444979"
       id="path88"
       cx="208.36879"
       cy="142.02907"
       rx="14.9068"
       ry="46.055336" />
    <ellipse
       style="fill:#ff8080;stroke:#ff8080;stroke-width:0.444979"
       id="path90"
       cx="162.98094"
       cy="209.44339"
       rx="9.56705"
       ry="9.7895403" />
    <ellipse
       style="fill:#ff8080;stroke:#ff8080;stroke-width:0.444979"
       id="path92"
       cx="128.94003"
       cy="170.06274"
       rx="28.923641"
       ry="26.476257" />
    <path
       style="fill:#ff8080;stroke:#ff8080;stroke-width:0.444979"
       id="path98"
       sodipodi:type="arc"
       sodipodi:cx="105.57862"
       sodipodi:cy="210.55583"
       sodipodi:rx="6.0072179"
       sodipodi:ry="5.11726"
       sodipodi:start="0"
       sodipodi:end="6.2360091"
       sodipodi:arc-type="slice"
       d="m 111.58584,210.55583 a 6.0072179,5.11726 0 0 1 -5.93637,5.11691 6.0072179,5.11726 0 0 1 -6.076396,-4.99621 6.0072179,5.11726 0 0 1 5.793046,-5.23476 6.0072179,5.11726 0 0 1 6.21304,4.87274 l -6.00054,0.24132 z" />
    <path
       style="fill:#ff8080;stroke:#ff8080;stroke-width:0.444979"
       id="path100"
       sodipodi:type="arc"
       sodipodi:cx="112.4758"
       sodipodi:cy="203.65868"
       sodipodi:rx="7.1196651"
       sodipodi:ry="6.2297072"
       sodipodi:start="0"
       sodipodi:end="6.2360091"
       sodipodi:arc-type="slice"
       d="m 119.59546,203.65868 a 7.1196651,6.2297072 0 0 1 -7.03569,6.22927 7.1196651,6.2297072 0 0 1 -7.20165,-6.08234 7.1196651,6.2297072 0 0 1 6.86582,-6.37274 7.1196651,6.2297072 0 0 1 7.3636,5.93202 l -7.11174,0.29379 z" />
    <path
       style="fill:#ff8080;stroke:#ff8080;stroke-width:0.444979"
       id="path102"
       sodipodi:type="arc"
       sodipodi:cx="132.72235"
       sodipodi:cy="198.54141"
       sodipodi:rx="21.136507"
       sodipodi:ry="8.2321138"
       sodipodi:start="0"
       sodipodi:end="6.2360091"
       sodipodi:arc-type="slice"
       d="m 153.85886,198.54141 a 21.136507,8.2321138 0 0 1 -20.88723,8.23154 21.136507,8.2321138 0 0 1 -21.37991,-8.03738 21.136507,8.2321138 0 0 1 20.38293,-8.42112 21.136507,8.2321138 0 0 1 21.86069,7.83875 l -21.11299,0.38821 z" />
    <path
       style="fill:#ff8080;stroke:#ff8080;stroke-width:0.444979"
       id="path106"
       sodipodi:type="arc"
       sodipodi:cx="107.35854"
       sodipodi:cy="208.33095"
       sodipodi:rx="7.7871346"
       sodipodi:ry="5.11726"
       sodipodi:start="0"
       sodipodi:end="6.2360091"
       sodipodi:arc-type="slice"
       d="m 115.14568,208.33095 a 7.7871346,5.11726 0 0 1 -7.6953,5.1169 7.7871346,5.11726 0 0 1 -7.876805,-4.99621 7.7871346,5.11726 0 0 1 7.509505,-5.23475 7.7871346,5.11726 0 0 1 8.05393,4.87273 l -7.77847,0.24133 z" />
    <path
       style="fill:#000000;stroke:none;stroke-width:0.444979"
       d="m 100.90635,90.856469 c 2.43849,4.520993 9.56483,5.819873 14.23933,6.229713 1.77858,0.155736 6.02324,-0.147831 7.10721,1.476428 1.57478,2.35973 0.70485,7.34084 1.02924,10.09302 0.41961,3.55316 1.46131,9.02152 0.47923,12.45942 -1.15783,4.05108 -4.40618,7.98692 -6.56833,11.56945 -2.44116,4.04487 -4.54902,7.92553 -9.61199,8.81326 -4.63446,0.81297 -11.328281,-2.34148 -15.574272,-4.00881 -3.560277,-1.39769 -7.509021,-2.73752 -10.08812,-5.71221 -5.450994,-6.28577 -5.701516,-16.60616 -6.451752,-24.45605 -0.158864,-1.66466 0.277667,-8.171599 -2.201756,-8.171599 -5.028709,0 -2.954217,10.328419 -3.648828,13.064589 -0.86059,3.3903 -5.572295,4.43823 -7.802218,6.75834 -3.038629,3.16203 -3.179909,16.06421 3.048951,14.60244 0.03902,4.64915 1.809284,9.05043 6.674685,10.33954 1.849334,0.48991 4.074229,-0.13488 5.78473,0.7351 3.109067,1.58101 5.922226,4.62779 8.899581,6.57146 2.394876,1.56321 5.774938,2.66809 7.850765,4.58773 1.992618,1.84311 0.412942,8.91694 0.679929,11.58458 0.556224,5.56447 2.580878,11.31315 5.572915,16.01925 1.45909,2.29476 5.17778,5.39582 5.6815,8.00962 0.3404,1.76658 -1.9855,4.02706 -2.9431,5.33975 -3.04365,4.17257 -7.497894,12.22759 -13.282176,12.56755 -3.96699,0.23317 -7.544622,-2.78689 -11.569457,-2.1804 -3.523789,0.53132 -6.603935,4.88231 -9.78954,4.98199 -2.078853,0.0654 -5.265437,-3.74628 -6.634858,-5.15197 C 33.733111,178.18005 26.427473,133.02091 46.112118,97.531156 51.101356,88.535906 57.437191,80.620161 64.863045,73.51964 c 2.989368,-2.858103 6.835323,-5.026041 9.576394,-8.104411 3.343129,-3.753835 3.561169,-13.759197 -3.791666,-12.205153 -2.765546,0.58453 -5.391322,3.02879 -7.564645,4.724173 -5.182268,4.041744 -10.046825,8.380732 -14.364636,13.343134 -18.828755,21.639338 -29.736591,51.722157 -25.93962,80.541227 2.289306,17.37598 7.560651,33.87848 17.497344,48.50272 23.343068,34.35505 65.843514,51.50857 106.462994,43.9368 10.26478,-1.91341 20.14686,-5.57782 29.36862,-10.43121 49.85989,-26.24131 68.6371,-89.72826 44.38309,-139.855603 C 209.85905,71.998694 188.59438,61.036198 171.21305,45.392717 158.94098,34.347845 155.06032,14.981827 137.83962,10.384281 122.35212,6.24946 102.61507,11.572855 93.652747,25.44454 c -4.652257,7.200421 -6.016562,16.038589 -5.633436,24.473845 0.282117,6.205243 7.258944,6.785939 7.756431,12.459427 0.496151,5.657897 -7.523707,7.295426 -5.002456,13.349373 1.056381,2.535935 4.995335,11.645093 7.949552,11.908532 4.641582,0.412935 6.458872,-3.73071 9.139872,-6.441083 0.67281,-0.679922 1.76479,-1.056816 2.32946,-0.01345 2.14836,3.969224 -6.48957,8.904044 -9.28582,9.675188 m 93.00064,115.249678 c -0.0168,-6.00632 -2.09096,-11.42439 -8.89959,-11.56944 2.41981,10.16377 -4.12807,17.75243 -14.23932,18.19786 -11.99843,0.52819 -26.50119,-6.0437 -36.04331,-12.85811 v -0.44499 c 12.45006,-12.45006 25.68685,-26.06599 27.14372,-44.49791 7.53483,2.21733 14.76707,10.32664 17.79916,17.35419 8.53781,-9.00593 -1.99929,-18.77857 -9.78953,-23.8758 -1.89695,-1.24106 -6.74901,-2.86389 -7.42315,-5.14262 -1.03102,-3.48463 -0.69105,-11.01546 1.19743,-14.14277 1.42261,-2.35527 4.10139,-3.62348 5.20983,-6.2315 0.80051,-1.88404 0.008,-3.65417 -2.1012,-3.93227 -6.45886,-0.85214 -11.44753,5.87149 -12.32547,11.49693 -1.79594,11.50982 1.2584,23.89003 -2.37931,35.15334 -1.40656,4.35545 -5.35308,8.13155 -8.24947,11.56946 -6.29955,7.47698 -12.85143,14.89123 -19.76151,21.80397 -4.96152,4.96329 -14.17126,18.37141 -22.67392,14.68031 -4.334983,-1.88181 0.46234,-5.43097 2.1982,-7.13301 6.11535,-5.99699 11.83021,-12.90484 16.61774,-20.00671 6.08554,-9.02685 11.72432,-18.81505 13.07528,-29.81361 1.55832,-12.68857 0.51484,-27.31103 -0.35777,-40.04812 -0.47345,-6.91407 -1.49378,-15.01181 0.25276,-21.803965 3.66483,-14.251799 19.26936,-15.070555 29.60089,-7.564651 -0.27322,-12.820292 -15.24677,-15.43766 -24.91883,-11.362532 -5.33174,2.245806 -9.05933,6.556758 -12.01444,11.362532 h -0.44497 c 0,-6.820634 0.13656,-13.84063 -6.6747,-17.64386 -2.95822,-1.651757 -6.19188,-2.200868 -9.34456,-3.270146 1.22459,-2.911501 3.56073,-5.168878 3.92116,-8.454615 0.98029,-8.937058 -7.12323,-12.512588 -14.600655,-11.124472 0,-5.963886 0.772928,-11.906531 4.355905,-16.909211 7.47698,-10.440547 24.84229,-14.025255 36.1372,-8.105437 5.46835,2.866159 7.45474,8.107303 10.68082,13.000212 3.98835,6.048767 8.55606,11.439644 13.79302,16.44668 12.67924,12.123199 27.91756,20.695288 38.38168,35.170902 20.21227,27.961583 23.4317,66.154143 8.00606,97.005433 -3.97499,7.95044 -9.11451,17.03782 -16.12915,22.69393 M 127.60509,49.028422 c 1.53963,-4.429671 5.43989,-9.170881 10.18781,-4.794877 2.57509,2.373305 3.99591,8.17419 0.0271,10.104824 -2.80114,1.362519 -9.20128,-0.895127 -6.76991,5.367331 1.93699,4.989109 10.79029,3.641272 13.67243,0.363557 7.76043,-8.827286 -0.24252,-25.918083 -11.77772,-25.260933 -6.40903,0.365105 -12.30189,10.399595 -5.33975,14.220098 m -20.02406,6.674703 c -3.46594,-0.822775 -4.72568,0.630528 -7.56464,2.224884 1.04392,-4.49807 4.30917,-6.36974 7.56464,-2.224884 m 17.35418,91.220715 c 0,11.23661 -2.35483,26.81489 -11.56945,34.70837 -3.75963,-5.07588 -8.16225,-10.72133 -8.33936,-17.35419 -0.26342,-9.87097 11.18055,-16.64133 19.90881,-17.35418 m 8.89959,87.2159 c -7.82318,0.0219 -15.35712,0.25365 -23.13892,-1.24727 -9.18348,-1.77147 -17.971367,-4.6963 -26.253762,-9.06156 -1.280207,-0.67459 -10.525536,-4.96462 -6.606606,-6.7134 3.379616,-1.50803 7.546401,2.16082 10.166437,3.75652 4.875191,2.96934 10.404501,4.69007 16.019251,2.93286 6.49269,-2.03178 11.81953,-7.54107 16.9092,-11.80663 1.84354,-1.54498 4.56104,-5.2027 7.11968,-5.34821 1.89427,-0.10763 4.15922,1.8511 5.78472,2.67744 4.37592,2.22445 15.81501,5.08077 17.44941,10.12772 0.91354,2.82162 -2.49544,4.43912 -4.54501,5.3362 -4.40708,1.92853 -12.47143,3.60032 -12.9044,9.34633 z"
       id="path67" />
  </g>
</svg>
