<svg xmlns="http://www.w3.org/2000/svg" xmlns:xlink="http://www.w3.org/1999/xlink" viewBox="0 0 256 256">
    <defs>
        <linearGradient id="innoGrad3">
            <stop offset="0" stop-color="#ff7f2a" stop-opacity="0"/>
            <stop offset="1" stop-color="#ff7f2a" stop-opacity=".502"/>
        </linearGradient>
        <linearGradient id="innoGrad2">
            <stop offset="0" stop-color="#ff2a2a" stop-opacity=".502"/>
            <stop offset="1" stop-color="#ff2a2a" stop-opacity="0"/>
        </linearGradient>
        <linearGradient id="innoGrad1">
            <stop offset="0" stop-color="#ff2a2a" stop-opacity="0"/>
            <stop offset="1" stop-color="#ff2a2a" stop-opacity=".502"/>
        </linearGradient>
        <linearGradient id="linearGradient935" x1="132.561" x2="132.561" y1="38.613" y2="90.887" gradientUnits="userSpaceOnUse" xlink:href="#innoGrad1"/>
        <linearGradient id="linearGradient958" x1="5.991" x2="135.991" y1="109.107" y2="109.107" gradientUnits="userSpaceOnUse" xlink:href="#innoGrad2"/>
        <linearGradient id="linearGradient989" x1="13.653" x2="33.464" y1="70.927" y2="103.819" gradientUnits="userSpaceOnUse" xlink:href="#innoGrad1"/>
        <linearGradient id="linearGradient1012" x1="13.411" x2="135.866" y1="80.571" y2="80.571" gradientUnits="userSpaceOnUse" xlink:href="#innoGrad2"/>
        <linearGradient id="linearGradient1035" x1="40.11" x2="48.06" y1="83.46" y2="84.994" gradientUnits="userSpaceOnUse" xlink:href="#innoGrad2"/>
        <linearGradient id="linearGradient1227" x1="74.461" x2="82.453" y1="96.128" y2="96.671" gradientUnits="userSpaceOnUse" xlink:href="#innoGrad2"/>
        <linearGradient id="linearGradient1250" x1="169.079" x2="177.338" y1="97.32" y2="97.033" gradientUnits="userSpaceOnUse" xlink:href="#innoGrad1"/>
        <linearGradient id="linearGradient1282" x1="2.48" x2="111.192" y1="172.864" y2="197.542" gradientUnits="userSpaceOnUse" xlink:href="#innoGrad2"/>
        <linearGradient id="linearGradient1317" x1="111.85" x2="247.352" y1="109.108" y2="109.108" gradientUnits="userSpaceOnUse" xlink:href="#innoGrad1"/>
        <linearGradient id="linearGradient1340" x1="222.256" x2="239.68" y1="105.72" y2="70.927" gradientUnits="userSpaceOnUse" xlink:href="#innoGrad2"/>
        <linearGradient id="linearGradient1372" x1="111.689" x2="240.215" y1="81.194" y2="81.194" gradientUnits="userSpaceOnUse" xlink:href="#innoGrad1"/>
        <linearGradient id="linearGradient1395" x1="205.231" x2="213.222" y1="85.358" y2="83.46" gradientUnits="userSpaceOnUse" xlink:href="#innoGrad1"/>
        <radialGradient id="radialGradient1447" cx="124.394" cy="105" r="8.894" fx="124.394" fy="105" gradientTransform="matrix(1 0 0 .88082 0 12.514)" gradientUnits="userSpaceOnUse" xlink:href="#innoGrad3"/>
        <radialGradient id="radialGradient1474" cx="124.966" cy="104.724" r="7.995" fx="124.966" fy="104.724" gradientTransform="matrix(1 0 0 .91895 0 8.488)" gradientUnits="userSpaceOnUse" xlink:href="#innoGrad3"/>
        <linearGradient id="linearGradient1497" x1="9.573" x2="32.042" y1="92.925" y2="105.151" gradientUnits="userSpaceOnUse" xlink:href="#innoGrad1"/>
        <linearGradient id="linearGradient1520" x1="134.34" x2="250.102" y1="172.864" y2="172.864" gradientUnits="userSpaceOnUse" xlink:href="#innoGrad1"/>
    </defs>
    <g stroke-width="1.015" transform="matrix(.98558 0 0 .98554 4.262 10.531)">
        <path fill="#f55" d="M26.25 38.75C27.958 37.083 79.787 63 124.394 63c44.607 0 101.021-24.917 102.688-24.25 1.667.667 7.417 20.916 7.417 20.916l5.181 70.001L16.333 128s8.209-87.583 9.917-89.25z"/>
        <path fill="url(#linearGradient935)" stroke="#231f20" stroke-miterlimit="10" d="M26.25 38.75C27.958 37.083 79.787 63 124.394 63c44.607 0 101.021-24.917 102.688-24.25 1.667.667 7.417 20.916 7.417 20.916l5.181 70.001L16.333 128s8.209-87.583 9.917-89.25z"/>
        <path fill="#ff8080" d="M26.25 38.75c.438.25-7.255 11.45 16.417 23.75C53.758 68.262 68.88 77.008 85 81.833c18.287 5.473 33.816 6.627 37 6.667 13.25.166 14.119 3.7 13.25 11.25l-7.25 63s-6.333-.083-9.667 4.417c-3.334 4.5-4.693 12.182-4.693 12.182L8.75 150.25s-1.417-.916-2.25-6.25c-.139-.892 2.639-3.4 3.5-8.667.411-2.513-2.867-5.779-2.333-9 .66-3.977 2.512-7.841 3-12.5.292-2.791-.931-6.195-.333-9.167.299-1.488.863-2.331 1.027-3.506.149-1.072-.106-2.476.264-3.785.12-.425 1.444-1.424 1.542-1.876.581-2.663-3.396-7.645-3-9.5.817-3.825-.573-3.743.458-7.374.274-.966 1.583-1.547 1.875-2.5.602-1.966 1.42-6.513 1.875-9.375.505-3.178.649-6.633 1.375-8.625 1.713-4.698 4.375-8.058 6-11 1.449-2.624 2.055-4.741 2.75-6.188.737-1.535 1.525-2.316 1.75-2.187z"/>
        <path fill="#ff2a2a" fill-opacity=".251" d="M10.25 118.334c.087-.344 12.67 2.874 21.134 5.263 10.352 2.922 19.33 5.785 26.272 8.167 6.83 2.343 12.517 4.499 17.47 6.551 6.894 2.857 14.744 6.371 22.688 10.41 4.123 2.096 8.238 4.322 11.733 6.423 3.368 2.025 6.001 3.88 5.859 4.089-.095.14-2.899-1.371-6.397-3.106a356.83 356.83 0 0 0-12.025-5.673c-7.74-3.489-16.318-7.07-22.841-9.771a532.144 532.144 0 0 0-17.253-6.785c-7.035-2.627-15.496-5.621-25.904-8.99-9.33-3.018-20.803-6.314-20.736-6.578z"/>
        <path fill="#ff2a2a" fill-opacity=".251" d="M30.167 132.001c.011-.162 6.69.393 13.88 1.598 7.647 1.282 15.718 3.177 23.453 5.752 13.579 4.546 26.77 10.602 33.513 13.857 5.229 2.524 9.037 4.538 11.355 5.839 1.467.823 2.52 1.46 3.214 1.927.381.256.694.488.917.69.113.103.247.238.352.4.054.084.126.214.169.383a1.147 1.147 0 0 1-.056.722c-.109.26-.288.436-.453.549-.163.11-.327.17-.453.204-.253.069-.516.08-.737.076-.463-.01-1.04-.1-1.69-.237-1.187-.25-2.81-.701-5.087-1.401-3.13-.962-7.847-2.557-13.886-4.4-5.999-1.85-14.87-3.861-14.824-4.126.075-.427 10.1 1.595 15.175 2.873 6.151 1.572 10.93 2.962 14.067 3.78 2.289.596 3.877.967 4.974 1.172.623.116 1.057.172 1.333.184.137.006.182-.003.145.01-.016.005-.093.03-.185.093a.877.877 0 0 0-.307.385.97.97 0 0 0-.05.604c.03.125.08.202.098.23.027.038.058.057-.008-.015-.097-.106-.306-.287-.646-.538-.605-.448-1.58-1.089-3.003-1.942-2.252-1.35-5.948-3.418-11.119-6.035-6.71-3.395-19.627-9.571-33.14-14.319-7.648-2.701-15.605-4.722-23.217-6.177-7.34-1.403-13.79-2.04-13.784-2.138zM61.5 152.167c-.124.323 9.017 4.115 13.442 5.904 4.854 1.963 8.93 3.533 11.87 4.614 4.26 1.567 7.665 2.676 10.844 3.476 2.794.703 6.417 1.41 10.078 1.667 3.396.238 7.796-.062 7.671-.661-.07-.334-3.952-.334-7.456-1.005-3.525-.676-6.887-1.639-9.605-2.47-3.194-.978-6.186-1.927-10.738-3.345a1032.485 1032.485 0 0 1-12.094-3.843c-4.528-1.467-13.914-4.593-14.012-4.337z"/>
        <path fill="url(#linearGradient958)" stroke="#231f20" stroke-miterlimit="10" d="M26.25 38.75c.438.25-7.255 11.45 16.417 23.75C53.758 68.262 68.88 77.008 85 81.833c18.287 5.473 33.816 6.627 37 6.667 13.25.166 14.119 3.7 13.25 11.25l-7.25 63s-6.333-.083-9.667 4.417c-3.334 4.5-4.693 12.182-4.693 12.182L8.75 150.25s-1.417-.916-2.25-6.25c-.139-.892 2.639-3.4 3.5-8.667.411-2.513-2.867-5.779-2.333-9 .66-3.977 2.512-7.841 3-12.5.292-2.791-.931-6.195-.333-9.167.299-1.488.863-2.331 1.027-3.506.149-1.072-.106-2.476.264-3.785.12-.425 1.444-1.424 1.542-1.876.581-2.663-3.396-7.645-3-9.5.817-3.825-.573-3.743.458-7.374.274-.966 1.583-1.547 1.875-2.5.602-1.966 1.42-6.513 1.875-9.375.505-3.178.649-6.633 1.375-8.625 1.713-4.698 4.375-8.058 6-11 1.449-2.624 2.055-4.741 2.75-6.188.737-1.535 1.525-2.316 1.75-2.187z"/>
        <path fill="#ff8080" d="M11.078 101.943s3.898 1.293 7.59 2.057c2.48.514 4.347.468 6.833.833 2.613.384 4.302.982 5.75.5 1.958-.652 4.27-3.777 6.583-6.5 3.447-4.057 9.042-6.637 9.042-6.638L13.653 70.927s.064 3.597-1.153 5.198c-.954 1.254-1.941 2.778-2.248 4.446-.164.892-.286 5.431.426 8.187.739 2.862 2.372 3.502 2.542 6.268.088 1.434-1.256 1.365-1.596 2.35-.313.902.256 3.028-.264 3.785-.318.464-.282.782-.282.782z"/>
        <path fill="url(#linearGradient989)" stroke="#231f20" stroke-linejoin="round" stroke-miterlimit="10" d="M11.078 101.943s3.898 1.293 7.59 2.057c2.48.514 4.347.468 6.833.833 2.613.384 4.302.982 5.75.5 1.958-.652 4.27-3.777 6.583-6.5 3.447-4.057 9.042-6.637 9.042-6.638L13.653 70.927s.064 3.597-1.153 5.198c-.954 1.254-1.941 2.778-2.248 4.446-.164.892-.286 5.431.426 8.187.739 2.862 2.372 3.502 2.542 6.268.088 1.434-1.256 1.365-1.596 2.35-.313.902.256 3.028-.264 3.785-.318.464-.282.782-.282.782z"/>
        <path fill="none" stroke="#231f20" stroke-dasharray="1.015" stroke-miterlimit="10" stroke-width=".507" d="M10.755 103.192s4.941 1.048 9.329 2.321c3.564 1.035 7.051 2.527 10.167 1.654 3.079-.863 6.136-4.73 9.5-7.679a91.504 91.504 0 0 1 8.467-6.531"/>
        <path fill="none" stroke="#231f20" stroke-dasharray="1.015" stroke-miterlimit="10" stroke-width=".507" d="M10.25 108.083s1.602 1.286 4.417 1.917c5.527 1.239 14.87 2.067 19.917.493 2.507-.782 4.851-3.405 7.417-5.66 5.23-4.596 10.089-9.808 10.089-9.808"/>
        <path fill="#ff8080" d="M13.653 70.927S15.955 75.004 21.5 79c4.209 3.034 10.789 5.31 17 8.5 6.212 3.191 12.055 7.296 18.375 9.625 20.965 7.725 75.77 25.267 75.77 25.267s1.844-18.141 2.605-22.642c.761-4.501 1.104-10-7.25-10.829-11.521-1.143-13.48-.409-28.711-3.481-12.028-2.427-25.109-6.951-33.782-11.22-11.237-5.532-29.471-14.264-36.956-22.509-5.608-6.178-2.005-13.003-2.301-12.961-.821.117-2.185 3.989-4.186 7.784-2.264 4.294-5.18 8.677-6.042 10.878-.78 1.99-1.258 6.555-1.648 9.338-.421 3.015-.722 4.177-.721 4.177z"/>
        <path fill="url(#linearGradient1012)" stroke="#231f20" stroke-linejoin="round" stroke-miterlimit="10" d="M13.653 70.927S15.955 75.004 21.5 79c4.209 3.034 10.789 5.31 17 8.5 6.212 3.191 12.055 7.296 18.375 9.625 20.965 7.725 75.77 25.267 75.77 25.267s1.844-18.141 2.605-22.642c.761-4.501 1.104-10-7.25-10.829-11.521-1.143-13.48-.409-28.711-3.481-12.028-2.427-25.109-6.951-33.782-11.22-11.237-5.532-29.375-14.456-36.86-22.7-5.101-5.948-2.014-12.84-2.397-12.77-.821.117-2.185 3.989-4.186 7.784-2.264 4.294-5.18 8.677-6.042 10.878-.78 1.99-1.258 6.555-1.648 9.338-.421 3.015-.722 4.177-.721 4.177z"/>
        <path fill="none" stroke="#231f20" stroke-dasharray="1.015" stroke-miterlimit="10" stroke-width=".507" d="M22.895 44.888S19.252 56.086 52.502 70.75C66.114 76.754 75.904 83.973 90.5 87.875c21.054 5.628 44.99 6.67 44.99 6.67M14.022 69.046S18.438 77.692 48 90.625s84.787 30.379 84.787 30.379"/>
        <path fill="#f55" stroke="#231f20" stroke-miterlimit="10" d="M48.68 93.25s3.757 1.875 3.82 3.063c.063 1.188-1.625 4.063-1.625 4.063l-4-1.563z"/>
        <path fill="#faa" d="M50.875 100.375c-.314.35-2.937-.396-5.25-.75-1.827-.28-3.46-.14-3.625-.25-.154-.103-.036-3.797-.313-8.25-.396-6.395-1.173-14.343-1.063-15.375.188-1.75 9.668-9.205 9.668-9.205l6.453 3.338s-1.874 2.998-4.309 5.242c-2.054 1.892-4.708 3.024-4.938 3.625-.498 1.313 3.94 21 3.377 21.625z"/>
        <path fill="url(#linearGradient1035)" stroke="#231f20" stroke-miterlimit="10" d="M50.875 100.375c-.314.35-2.937-.396-5.25-.75-1.827-.28-3.46-.14-3.625-.25-.154-.103-.036-3.797-.313-8.25-.396-6.395-1.173-14.343-1.063-15.375.188-1.75 9.668-9.205 9.668-9.205l6.453 3.338s-1.874 2.998-4.309 5.242c-2.054 1.892-4.708 3.024-4.938 3.625-.498 1.313 3.94 21 3.377 21.625z"/>
        <path fill="none" stroke="#231f20" stroke-dasharray="1.015" stroke-miterlimit="10" stroke-width=".507" d="M48.68 67.842l6.959 3.638M55.129 69.046s-2.752 3-5.44 5.266c-1.992 1.68-4.057 2.647-4.376 3.313-.75 1.563 2.711 22.446 2.711 22.446"/>
        <path fill="none" stroke="#231f20" stroke-dasharray="1.015" stroke-miterlimit="10" stroke-width=".507" d="M52.16 67.51s-2.648 2.451-5.285 4.74c-1.876 1.629-3.855 3.007-4.375 4.125-.525 1.129.539 5.439 1 10 .637 6.294.866 13.112.866 13.113"/>
        <path fill="#f55" stroke="#231f20" stroke-miterlimit="10" d="M80.11 104.882s4.141 1.108 4.204 2.296c.063 1.188-1.625 4.063-1.625 4.063l-4-1.563z"/>
        <path fill="#faa" d="M82.69 111.241c-.289.295-1.88-1.265-4-1.563-1.676-.235-3.222-1.39-3.373-1.483-.141-.087-.033-3.195-.287-6.942-.363-5.381.822-11.73.923-12.598.173-1.473 6.765-7.61 6.765-7.61l6.393 1.995s-1.99 2.862-4.223 4.75c-1.884 1.592-2.08 3.087-2.292 3.592-.456 1.105.61 19.333.093 19.86z"/>
        <path fill="url(#linearGradient1227)" stroke="#231f20" stroke-miterlimit="10" d="M82.69 111.241c-.289.295-1.88-1.265-4-1.563-1.676-.235-3.222-1.39-3.373-1.483-.141-.087-.033-3.195-.287-6.942-.363-5.381.822-11.73.923-12.598.173-1.473 6.765-7.61 6.765-7.61l6.393 1.995s-1.99 2.862-4.223 4.75c-1.884 1.592-2.08 3.087-2.292 3.592-.456 1.105.61 19.333.093 19.86z"/>
        <path fill="none" stroke="#231f20" stroke-dasharray="1.015" stroke-miterlimit="10" stroke-width=".507" d="M81.443 81.662l6.382 3.061M87.358 82.675s-2.524 2.524-4.99 4.43c-1.826 1.414-2.025 2.77-2.318 3.33-.688 1.316.792 18.345.792 18.345"/>
        <path fill="none" stroke="#231f20" stroke-dasharray="1.015" stroke-miterlimit="10" stroke-width=".507" d="M84.635 81.382s-1.75 2.537-4.17 4.463c-1.72 1.37-2.382 2.598-2.86 3.539-.48.95-.386 4.17.037 8.007.584 5.296-.155 10.898-.155 10.899"/>
        <path fill="#faa" d="M7.471 148.031c.359.086 32.878 9.592 51.529 13.719 16.56 3.656 49.75 11.75 57.814 11.875.983.016.704 1.581.683 1.779-.186 1.767-1.813 1.792-4.121 11.488-2.31 9.695-1.39 7.219-1.304 8.335.085 1.115-.242 2.873-1.49 2.444-7.017-2.417-34.049-6.649-60.415-12.922-31.049-7.389-39.683-9.27-40.042-9.417-.768-.308-7.207-3.733-6.934-4.666.272-.932.704-3.053.764-4.636.122-3.161-1.394-3.762-.456-6.813.94-3.053.709-4.424 1.334-7.052.35-1.466.135-1.874.167-2.667.027-.626 1.732-1.642 2.471-1.467z"/>
        <path fill="#ff2a2a" fill-opacity=".251" d="M4.386 154.87c.208.055.922.238 1.832.442.832.187 1.567.332 2.378.47-.088-.015 5.06.814 12.601 1.74 1.179.142 2.882.47 5.212 1.029 2.009.481 4.442 1.123 7.329 1.94 4.921 1.39 10.811 3.183 17.457 5.286 10.058 3.184 22.154 7.255 22.209 7.098.063-.178-12.732-4.781-21.928-7.95-6.553-2.257-12.491-4.227-17.345-5.752-2.87-.902-5.302-1.63-7.314-2.194-2.323-.651-4.075-1.08-5.33-1.316-7.347-1.395-12.423-2.857-12.26-2.814-.846-.223-1.428-.365-2.3-.577-.791-.192-1.758-.435-1.738-.43zM44.333 172.875c-.046.13 9.744 3.653 17.106 6.204a689.9 689.9 0 0 0 13.99 4.697c2.372.764 4.43 1.404 6.183 1.925 2.019.6 3.61 1.037 4.83 1.333 4.592 1.118 8.278 2.036 10.867 2.687 2.139.538 3.5.887 5.639 1.425 1.696.425 2.947.728 4.722 1.142 1.699.396 4.254.98 4.253.98l.534-2.323c-.454-.104-2.486-.572-4.26-.968a230.916 230.916 0 0 0-4.754-1.014c-1.296-.263-3.166-.633-5.707-1.138-1.643-.326-7.328-1.459-10.997-2.16-1.196-.229-2.775-.596-4.8-1.128a228.708 228.708 0 0 1-6.208-1.739c-4.09-1.2-8.835-2.674-14.081-4.353-7.989-2.557-17.276-5.687-17.317-5.57zM3.206 169.506c.13-.206 7.927 2.6 20.064 5.402-.743-.171 12.987 2.987 12.245 2.815a6375.18 6375.18 0 0 0 15.138 3.45c9.912 2.245 18.32 4.11 18.347 3.994.028-.117-8.324-2.217-18.18-4.694-4.927-1.24-10.231-2.573-15.051-3.8-4.82-1.227-9.157-2.349-12.148-3.162-11.94-3.25-19.491-6.48-19.36-6.687z"/>
        <path fill="url(#linearGradient1282)" stroke="#231f20" stroke-miterlimit="10" stroke-width="1.406" d="M7.471 148.031c.359.086 32.878 9.592 51.529 13.719 16.56 3.656 49.75 11.75 57.814 11.875.983.016.704 1.581.683 1.779-.186 1.767-1.813 1.792-4.121 11.488-2.31 9.695-1.39 7.219-1.304 8.335.085 1.115-.242 2.873-1.49 2.444-7.017-2.417-34.049-6.649-60.415-12.922-31.049-7.389-39.683-9.27-40.042-9.417-.768-.308-7.207-3.733-6.934-4.666.272-.932.704-3.053.764-4.636.122-3.161-1.394-3.762-.456-6.813.94-3.053.709-4.424 1.334-7.052.35-1.466.135-1.874.167-2.667.027-.626 1.732-1.642 2.471-1.467z"/>
        <path fill="#ff8080" d="M227.082 38.75c-.438.25 7.256 11.45-16.416 23.75-11.092 5.762-26.213 14.508-42.334 19.333-18.287 5.473-38.114 9.865-41.299 9.905-13.25.166-15.383 5.297-14.514 12.847.35 3.041 3.541 12.521 5.98 23.416 1.657 7.398-1.961 18.472-.743 24.875 1.441 7.574 7.576 9.875 7.576 9.875s6.333-.083 9.667 4.417c3.334 4.5 4.693 12.182 4.693 12.182l104.89-29.099s1.417-.916 2.25-6.25c.139-.892-.633-14.446-1.167-17.667-.659-3.977.947-7.549.46-12.208-.292-2.791-2.529-6.488-3.127-9.459-.299-1.488-.863-2.331-1.027-3.506-.148-1.072 1.483-2.351 1.112-3.66-.119-.425.099-2.923 0-3.375-.581-2.663-1.959-17.047-2.251-18-.602-1.966-1.42-6.513-1.875-9.375-.504-3.178-5.75-16.683-7.375-19.625-1.449-2.624-2.055-4.741-2.75-6.188-.736-1.536-1.524-2.317-1.75-2.188z"/>
        <path fill="#ff2a2a" fill-opacity=".251" d="M243.134 111.357c-.07-.21-5.503 1.38-10.468 2.89a1153.29 1153.29 0 0 0-15.654 4.901c-9.528 3.054-16.756 5.485-22.609 7.565-5.63 2-13.17 4.819-20.153 7.736-3.818 1.76-9.885 4.605-22.071 9.974 12.552-4.446 18.919-6.535 22.905-7.87 5.34-2.007 16.316-5.923 20.217-7.337 6.42-2.326 12.38-4.53 22.354-8.198 3.612-1.328 11.328-4.162 15.383-5.666 4.864-1.804 10.163-3.793 10.096-3.995zM139.811 164.926c.01.169.774.167 2.164-.165 2.116-.504 5.157-1.607 8.531-3.013 6.28-2.66 13.34-6.3 15.933-7.65 2.278-1.187 4.476-2.372 6.867-3.6 1.626-.834 3.587-1.81 5.105-2.39 3.99-1.416 8.145-2.124 12.293-2.024 2.626.064 4.916.586 4.963.45.07-.205-2.327-.94-4.91-1.229-4.204-.472-8.64.01-12.848 1.254-1.702.467-3.803 1.348-5.486 2.105-2.386 1.073-4.874 2.32-7.023 3.436-3.958 2.055-8.346 4.648-15.572 8.154-3.428 1.688-5.966 2.85-8.098 3.759-1.296.552-1.927.782-1.919.913z"/>
        <path fill="url(#linearGradient1317)" stroke="#231f20" stroke-miterlimit="10" d="M227.082 38.75c-.438.25 7.256 11.45-16.416 23.75-11.092 5.762-26.213 14.508-42.334 19.333-18.287 5.473-38.114 9.865-41.299 9.905-13.25.166-15.383 5.297-14.514 12.847.35 3.041 3.541 12.521 5.98 23.416 1.657 7.398-1.961 18.472-.743 24.875 1.441 7.574 7.576 9.875 7.576 9.875s6.333-.083 9.667 4.417c3.334 4.5 4.693 12.182 4.693 12.182l104.89-29.099s1.417-.916 2.25-6.25c.139-.892-.633-14.446-1.167-17.667-.659-3.977.947-7.549.46-12.208-.292-2.791-2.529-6.488-3.127-9.459-.299-1.488-.863-2.331-1.027-3.506-.148-1.072 1.483-2.351 1.112-3.66-.119-.425.099-2.923 0-3.375-.581-2.663-1.959-17.047-2.251-18-.602-1.966-1.42-6.513-1.875-9.375-.504-3.178-5.75-16.683-7.375-19.625-1.449-2.624-2.055-4.741-2.75-6.188-.736-1.536-1.524-2.317-1.75-2.188z"/>
        <path fill="#ff8080" d="M242.255 101.943c-.001 0-3.898 1.293-7.59 2.057-2.48.514-4.347.468-6.833.833-2.613.384-4.303.982-5.75.5-1.957-.652-4.27-3.777-6.583-6.5-3.446-4.057-9.042-6.637-9.042-6.638l33.223-21.269s.843 3.211 1.152 5.198c.212 1.359 2.429 16.538 2.258 19.304-.088 1.434-.33 1.844.01 2.829.313.902-1.648 2.146-1.129 2.903.32.465.284.783.284.783z"/>
        <path fill="url(#linearGradient1340)" stroke="#231f20" stroke-miterlimit="10" d="M242.255 101.943c-.001 0-3.898 1.293-7.59 2.057-2.48.514-4.347.468-6.833.833-2.613.384-4.303.982-5.75.5-1.957-.652-4.27-3.777-6.583-6.5-3.446-4.057-9.042-6.637-9.042-6.638l33.223-21.269s.843 3.211 1.152 5.198c.212 1.359 2.429 16.538 2.258 19.304-.088 1.434-.33 1.844.01 2.829.313.902-1.648 2.146-1.129 2.903.32.465.284.783.284.783z"/>
        <path fill="#ff8080" d="M239.68 70.927s-2.303 4.077-7.848 8.073c-4.209 3.034-10.789 5.31-17 8.5-6.212 3.191-12.055 7.296-18.375 9.625-20.965 7.725-79.707 26.375-79.707 26.375s-3.979-15.765-4.417-20.309c-.833-8.646 1.792-9.941 12.616-11.191 11.502-1.328 13.863-3.488 29.095-6.56 12.028-2.427 25.109-6.951 33.782-11.22 11.236-5.531 29.471-14.264 36.955-22.509 5.609-6.178 2.006-13.003 2.301-12.961.822.117 2.186 3.989 4.186 7.784 2.264 4.294 7.301 17.433 7.689 20.216.422 3.015.723 4.177.723 4.177z"/>
        <path fill="url(#linearGradient1372)" stroke="#231f20" stroke-miterlimit="10" d="M239.68 70.927s-2.303 4.077-7.848 8.073c-4.209 3.034-10.789 5.31-17 8.5-6.212 3.191-12.055 7.296-18.375 9.625-20.965 7.725-79.707 26.375-79.707 26.375s-3.979-15.765-4.417-20.309c-.833-8.646 1.792-9.941 12.616-11.191 11.502-1.328 13.863-3.488 29.095-6.56 12.028-2.427 25.109-6.951 33.782-11.22 11.236-5.531 29.471-14.264 36.955-22.509 5.609-6.178 2.006-13.003 2.301-12.961.822.117 2.186 3.989 4.186 7.784 2.264 4.294 7.301 17.433 7.689 20.216.422 3.015.723 4.177.723 4.177z"/>
        <path fill="none" stroke="#231f20" stroke-dasharray="1.015" stroke-miterlimit="10" stroke-width=".507" d="M230.438 44.888s3.643 11.198-29.606 25.862c-13.612 6.004-23.402 13.223-37.999 17.125-21.054 5.628-45.207 8.583-46.332 9.792-1.125 1.209-1.534 5.823-.5 13.691.803 6.112 4.162 13.459 4.545 20.268.533 9.481-1.194 18.233-.92 20.25.723 5.327 5.708 10.875 5.708 10.875M242.578 103.192s-4.941 1.048-9.329 2.321c-3.564 1.035-7.052 2.527-10.167 1.654-3.078-.863-6.135-4.73-9.5-7.679a91.504 91.504 0 0 0-8.467-6.531"/>
        <path fill="none" stroke="#231f20" stroke-dasharray="1.015" stroke-miterlimit="10" stroke-width=".507" d="M244.021 107.843c.001 0-2.539 1.526-5.354 2.157-5.527 1.239-14.871 2.067-19.917.493-2.507-.782-4.851-3.405-7.417-5.66-5.229-4.596-10.088-9.808-10.088-9.808"/>
        <path fill="#f55" stroke="#231f20" stroke-miterlimit="10" d="M204.652 93.25s-3.758 1.875-3.82 3.063c-.062 1.188 1.625 4.063 1.625 4.063l4-1.563z"/>
        <path fill="none" stroke="#231f20" stroke-dasharray="1.015" stroke-miterlimit="10" stroke-width=".507" d="M239.311 69.046s-4.416 8.646-33.979 21.579c-29.562 12.933-88.322 31.187-88.322 31.187"/>
        <path fill="#faa" d="M202.457 100.375c.314.35 2.938-.396 5.25-.75 1.828-.28 3.461-.14 3.625-.25.154-.103.036-3.797.313-8.25.396-6.395 1.174-14.343 1.063-15.375-.188-1.75-9.668-9.205-9.668-9.205l-6.453 3.338s1.875 2.998 4.309 5.242c2.055 1.892 4.709 3.024 4.938 3.625.498 1.313-3.939 21-3.377 21.625z"/>
        <path fill="url(#linearGradient1395)" stroke="#231f20" stroke-miterlimit="10" d="M202.457 100.375c.314.35 2.938-.396 5.25-.75 1.828-.28 3.461-.14 3.625-.25.154-.103.036-3.797.313-8.25.396-6.395 1.174-14.343 1.063-15.375-.188-1.75-9.668-9.205-9.668-9.205l-6.453 3.338s1.875 2.998 4.309 5.242c2.055 1.892 4.709 3.024 4.938 3.625.498 1.313-3.939 21-3.377 21.625z"/>
        <path fill="none" stroke="#231f20" stroke-dasharray="1.015" stroke-miterlimit="10" stroke-width=".507" d="M204.652 67.842l-6.959 3.638M198.203 69.046s2.752 3 5.441 5.266c1.992 1.68 4.057 2.647 4.375 3.313.75 1.563-2.711 22.446-2.711 22.446"/>
        <path fill="none" stroke="#231f20" stroke-dasharray="1.015" stroke-miterlimit="10" stroke-width=".507" d="M201.173 67.51c.001 0 2.648 2.451 5.284 4.74 1.877 1.629 3.855 3.007 4.375 4.125.525 1.129-.538 5.439-1 10-.637 6.294-.865 13.112-.865 13.113"/>
        <path fill="none" stroke="#231f20" stroke-linecap="round" stroke-linejoin="round" stroke-miterlimit="10" stroke-width="2.029" d="M124.394 104.724l14.773-3.391"/>
        <ellipse cx="124.394" cy="105" fill="#ffb380" stroke="#231f20" stroke-miterlimit="10" rx="8.394" ry="7.334"/>
        <ellipse cx="124.394" cy="105" fill="url(#radialGradient1447)" stroke="#231f20" stroke-miterlimit="10" rx="8.394" ry="7.334"/>
        <path fill="#ffe6d5" d="M120.703 105.242l-3.441-4.101 5.678.554 3.31-4.028 1.018 4.821 5.403 1.331-4.966 2.704-.111 5.257-3.866-3.495-5.558 1.625z"/>
        <path fill="url(#radialGradient1474)" stroke="#231f20" stroke-linejoin="round" stroke-miterlimit="10" stroke-width=".589" d="M127.268 102.488l5.403 1.331-4.966 2.704-.111 5.257-3.866-3.495-5.558 1.625 2.533-4.668-3.441-4.101 5.678.554 3.31-4.028z"/>
        <path fill="none" stroke="#231f20" stroke-dasharray="1.015" stroke-miterlimit="10" stroke-width=".507" d="M142.125 115.356s-3.25 10.325-2.875 20.729c.297 8.248 4.268 16.635 4.083 19.333-.417 6.102-23.236 3.024-23.236 3.024"/>
        <path fill="#ff8080" stroke="#231f20" stroke-miterlimit="10" d="M34.5 94.545l-1.036 9.274s-2.295 2.997-6.938 1.181c-2.5-.978-5.427-.543-7.858-1-4.333-.814-7.59-2.057-7.59-2.057s.315-1.108.333-2.455c.011-.824-.043-1.642.214-2.113.626-1.147 1.877-1.37 1.549-2.83-.721-3.206-2.642-6.52-2.861-7.884-.501-3.116-.061-6.091-.061-6.091z"/>
        <path fill="url(#linearGradient1497)" stroke="#231f20" stroke-miterlimit="10" d="M34.5 94.545l-1.036 9.274s-2.295 2.997-6.938 1.181c-2.5-.978-5.427-.543-7.858-1-4.333-.814-7.59-2.057-7.59-2.057s.315-1.108.333-2.455c.011-.824-.043-1.642.214-2.113.626-1.147 1.877-1.37 1.549-2.83-.721-3.206-2.642-6.52-2.861-7.884-.501-3.116-.061-6.091-.061-6.091z"/>
        <path fill="none" stroke="#231f20" stroke-dasharray="1.015" stroke-miterlimit="10" stroke-width=".507" d="M33.869 100.194L10.268 85.489M28.868 90.92l-.743 14.455M32.488 93.25l-.446 11.901"/>
        <path fill="#f1f2f2" stroke="#231f20" stroke-linejoin="round" stroke-miterlimit="10" d="M34.934 93.718l-6.066-3.968v.875l5.632 3.92z"/>
        <path fill="#faa" d="M245.111 148.031c-.359.086-32.879 9.592-51.529 13.719-16.561 3.656-49.75 11.75-57.814 11.875-.982.016-.703 1.581-.684 1.779.188 1.767 1.814 1.792 4.121 11.488 2.311 9.695 1.391 7.219 1.305 8.335-.086 1.115.242 2.873 1.49 2.444 7.017-2.417 34.049-6.649 60.414-12.922 31.049-7.389 39.683-9.27 40.041-9.417.768-.308 7.207-3.733 6.936-4.666-.273-.932-.705-3.053-.764-4.636-.123-3.161 1.393-3.762.455-6.813-.939-3.053-.709-4.424-1.334-7.052-.35-1.466-.135-1.874-.166-2.667-.027-.626-1.732-1.642-2.471-1.467z"/>
        <path fill="#ff2a2a" fill-opacity=".251" d="M248.588 155.652a252.2 252.2 0 0 0-1.327.257 44.75 44.75 0 0 0-1.749.383c.09-.022-4.042 1.058-13.048 2.708-.647.118-1.548.3-2.714.549-1.088.232-2.413.523-3.985.876-2.865.644-6.535 1.49-11.02 2.542a4135.598 4135.598 0 0 0-28.625 6.848c-15.857 3.845-38.403 9.398-38.37 9.534.026.109 22.637-5.175 38.537-8.823 11.172-2.563 20.897-4.761 28.706-6.468 4.5-.983 8.173-1.761 11.048-2.341 1.575-.318 2.899-.574 3.985-.77a55.345 55.345 0 0 1 2.674-.435c13.122-1.692 9.33-1.182 13.27-1.66a35.71 35.71 0 0 0 1.785-.258 62.924 62.924 0 0 0 1.357-.246zM248.696 159.224c.016-.011-2.186 1.554-3.742 2.578-1.453.957-2.997 1.93-4.332 2.744-1.108.676-3.07 1.855-5.38 3.077-2.035 1.075-6.659 3.431-11.524 4.738-2.585.694-6.264 1.496-11.307 2.42a499.383 499.383 0 0 1-13.247 2.216c-7.331 1.138-15.593 2.259-15.582 2.352.014.111 8.782-.927 15.654-1.852a513.817 513.817 0 0 0 13.307-1.952c5.061-.82 8.799-1.538 11.433-2.156 5.013-1.177 9.855-3.447 11.93-4.454a95.528 95.528 0 0 0 5.572-2.938 88.844 88.844 0 0 0 4.445-2.714 85.071 85.071 0 0 0 3.833-2.631z"/>
        <path fill="url(#linearGradient1520)" stroke="#231f20" stroke-miterlimit="10" stroke-width="1.406" d="M245.111 148.031c-.359.086-32.879 9.592-51.529 13.719-16.561 3.656-49.75 11.75-57.814 11.875-.982.016-.703 1.581-.684 1.779.188 1.767 1.814 1.792 4.121 11.488 2.311 9.695 1.391 7.219 1.305 8.335-.086 1.115.242 2.873 1.49 2.444 7.017-2.417 34.049-6.649 60.414-12.922 31.049-7.389 39.683-9.27 40.041-9.417.768-.308 7.207-3.733 6.936-4.666-.273-.932-.705-3.053-.764-4.636-.123-3.161 1.393-3.762.455-6.813-.939-3.053-.709-4.424-1.334-7.052-.35-1.466-.135-1.874-.166-2.667-.027-.626-1.732-1.642-2.471-1.467z"/>
        <path fill="#f55" stroke="#231f20" stroke-miterlimit="10" d="M171.16 105.228s-3.757 1.875-3.82 3.063c-.063 1.188 1.625 4.062 1.625 4.062l4-1.562z"/>
        <path fill="#faa" d="M168.965 112.353c.288.295 3.125-1.195 5.247-1.493 1.675-.235 2.118-1.891 2.27-1.984.14-.087.032-3.195.286-6.942.364-5.38-.822-11.73-.923-12.598-.172-1.472-6.765-7.61-6.765-7.61l-6.393 1.995s1.99 2.862 4.223 4.75c1.884 1.592 2.08 3.087 2.292 3.593.457 1.105-.753 19.764-.237 20.29z"/>
        <path fill="url(#linearGradient1250)" stroke="#231f20" stroke-miterlimit="10" d="M168.965 112.353c.288.295 3.125-1.195 5.247-1.493 1.675-.235 2.118-1.891 2.27-1.984.14-.087.032-3.195.286-6.942.364-5.38-.822-11.73-.923-12.598-.172-1.472-6.765-7.61-6.765-7.61l-6.393 1.995s1.99 2.862 4.223 4.75c1.884 1.592 2.08 3.087 2.292 3.593.457 1.105-.753 19.764-.237 20.29z"/>
        <path fill="none" stroke="#231f20" stroke-dasharray="1.015" stroke-miterlimit="10" stroke-width=".507" d="M170.355 82.343l-6.382 3.061M164.44 83.356s2.525 2.524 4.99 4.431c1.827 1.414 2.026 2.77 2.318 3.33.688 1.315.12 20.454.12 20.454"/>
        <path fill="none" stroke="#231f20" stroke-dasharray="1.015" stroke-miterlimit="10" stroke-width=".507" d="M167.164 82.064s1.75 2.537 4.169 4.463c1.72 1.37 2.382 2.598 2.86 3.538.48.95.386 4.17-.036 8.008-.585 5.296 1.113 12.383 1.113 12.384"/>
    </g>
</svg>
