<svg xmlns="http://www.w3.org/2000/svg" cursor="default" viewBox="0 0 256 256">
    <g transform="translate(0 -796.362)">
        <ellipse cx="-870.831" cy="-83.69" fill="#faa" stroke="#000" stroke-linecap="round" stroke-width=".8" rx="13.988" ry="14.08" transform="scale(-1 1) rotate(-88.739)"/>
        <path fill="#ff8080" fill-rule="evenodd" stroke="#000" stroke-width=".8" d="M219.6 901.644L113.75 875.52c-1.312-2.623.081-6.933 1.996-7.771l106.751 24.519z"/>
        <ellipse cx="-903.537" cy="-209.651" fill="#faa" stroke="#000" stroke-linecap="round" stroke-width=".8" rx="13.988" ry="14.08" transform="scale(-1 1) rotate(-88.739)"/>
        <path fill="#fff" fill-rule="evenodd" d="M114.22 865.68c-.344-1.427-1.194-2.822-2.26-4.008a13.124 13.124 0 0 0-.856-1.23c-1.306-1.668-3.001-3.033-4.58-3.597 1.677.288 3.615 1.433 5.231 3.01.383.373.748.77 1.088 1.188.861 1.52 1.39 3.144 1.377 4.637zM241.164 896.666c-.343-1.426-1.194-2.822-2.26-4.007a13.124 13.124 0 0 0-.856-1.231c-1.305-1.668-3-3.033-4.58-3.596 1.678.287 3.615 1.432 5.232 3.009.382.373.747.77 1.087 1.188.862 1.52 1.39 3.145 1.377 4.637z"/>
        <ellipse cx="-939.402" cy="221.51" fill="#faa" stroke="#000" stroke-linecap="round" rx="18.033" ry="18.151" transform="rotate(-88.739)"/>
        <path fill="#ff8080" fill-rule="evenodd" stroke="#000" d="M50.256 986.414l136.452-33.676c1.692-3.381-.104-8.938-2.572-10.018L46.52 974.328z"/>
        <ellipse cx="-981.565" cy="59.13" fill="#faa" stroke="#000" stroke-linecap="round" rx="18.033" ry="18.151" transform="rotate(-88.739)"/>
        <path fill="#fff" fill-rule="evenodd" d="M206.352 929.361c1.908.252 3.886 1.217 5.673 2.589.472.508.914 1.046 1.322 1.6 1.724 2.347 2.839 5.025 2.905 7.217-.436-2.116-1.875-4.525-3.77-6.49-.45-.466-.925-.907-1.418-1.313-1.324-1.573-2.952-2.909-4.712-3.603zM40.388 967.977c1.923-.01 4.015.676 5.972 1.792.537.44 1.048.911 1.528 1.406 2.027 2.09 3.496 4.591 3.86 6.754-.72-2.037-2.474-4.228-4.619-5.916-.509-.4-1.04-.773-1.584-1.108-1.525-1.38-3.32-2.48-5.157-2.928z"/>
    </g>
</svg>
