<svg xmlns="http://www.w3.org/2000/svg" cursor="default" viewBox="0 0 256 256">
    <g transform="translate(0 -796.362)">
        <ellipse cx="161.625" cy="1013.112" fill="#faa" stroke="#000" stroke-linecap="round" rx="19.125" ry="19.25"/>
        <path fill="#ff8080" fill-rule="evenodd" stroke="#000" d="M113.192 854.489l38.89 143.896c3.625 1.715 9.475-.32 10.563-2.961l-36.726-145.178z"/>
        <ellipse cx="116.909" cy="840.898" fill="#faa" stroke="#000" stroke-linecap="round" rx="19.125" ry="19.25"/>
        <path fill="#fff" fill-rule="evenodd" d="M165.52 997.447c2.039-.062 4.274.611 6.379 1.743.58.452 1.135.94 1.656 1.45 2.204 2.163 3.828 4.777 4.27 7.06-.817-2.14-2.733-4.417-5.052-6.15a17.943 17.943 0 0 0-1.708-1.134c-1.653-1.422-3.586-2.542-5.546-2.969zM119.347 824.863c2.039-.062 4.275.61 6.38 1.742.58.452 1.134.94 1.656 1.451 2.204 2.162 3.827 4.776 4.27 7.06-.817-2.141-2.734-4.418-5.053-6.152a17.95 17.95 0 0 0-1.708-1.133c-1.653-1.421-3.585-2.542-5.545-2.968z"/>
    </g>
</svg>
