<svg cursor="default" version="1.1" viewBox="0 0 256 256" xmlns="http://www.w3.org/2000/svg" xmlns:xlink="http://www.w3.org/1999/xlink">
 <defs>
  <linearGradient id="innoGrad3">
   <stop stop-color="#ff8080" offset="0"/>
   <stop stop-color="#faa" offset="1"/>
  </linearGradient>
  <linearGradient id="innoGrad1">
   <stop stop-color="#ff8080" offset="0"/>
   <stop stop-color="#f55" offset="1"/>
  </linearGradient>
  <linearGradient id="innoGrad2">
   <stop stop-color="#ff8080" offset="0"/>
   <stop stop-color="#faa" offset=".69422"/>
   <stop stop-color="#ffd5d5" offset="1"/>
  </linearGradient>
  <linearGradient id="linearGradient4659" x1="174.1" x2="185.63" y1="176.68" y2="176.54" gradientTransform="translate(-29.017 -8.8641)" gradientUnits="userSpaceOnUse" xlink:href="#innoGrad2"/>
  <linearGradient id="linearGradient4669" x1="198.28" x2="202.11" y1="168.75" y2="168.94" gradientTransform="translate(-29.017 -8.8641)" gradientUnits="userSpaceOnUse" xlink:href="#innoGrad2"/>
  <linearGradient id="linearGradient4677" x1="197.22" x2="186.96" y1="19.227" y2="17.645" gradientTransform="translate(-29.017 -8.8641)" gradientUnits="userSpaceOnUse" xlink:href="#innoGrad1"/>
  <linearGradient id="linearGradient4685" x1="173.06" x2="187.92" y1="34.807" y2="29.63" gradientTransform="translate(-29.017 -8.8641)" gradientUnits="userSpaceOnUse" xlink:href="#innoGrad3"/>
  <linearGradient id="linearGradient4669-0" x1="198.28" x2="202.11" y1="168.75" y2="168.94" gradientTransform="translate(-84.232 4.2698)" gradientUnits="userSpaceOnUse" xlink:href="#innoGrad2"/>
  <linearGradient id="linearGradient4685-2" x1="173.06" x2="187.92" y1="34.807" y2="29.63" gradientTransform="translate(-84.232 4.2698)" gradientUnits="userSpaceOnUse" xlink:href="#innoGrad3"/>
  <linearGradient id="linearGradient4677-5" x1="197.22" x2="186.96" y1="19.227" y2="17.645" gradientTransform="translate(-84.232 4.2698)" gradientUnits="userSpaceOnUse" xlink:href="#innoGrad1"/>
  <linearGradient id="linearGradient4659-7" x1="174.1" x2="185.63" y1="176.68" y2="176.54" gradientTransform="translate(-84.232 4.2698)" gradientUnits="userSpaceOnUse" xlink:href="#innoGrad2"/>
 </defs>
 <g stroke="#000" stroke-linecap="round" stroke-linejoin="round">
  <path d="m145 238.44c2e-3 1.7144 13.025 1.5101 13.017-0.15885l-0.6876-140.7c-7e-3 -1.5247-12.49-1.7376-12.488 0.11432z" fill="url(#linearGradient4659)" stroke-width=".75"/>
  <path d="m150.85 85.353c-3.295 1e-6 -5.9668 2.6863-5.9668 6 0 2.0129 1.0816 3.9622 2.5939 5.0506 2.1167-0.28258 5.3175-0.34934 6.8649-0.0639 1.4448-1.095 2.4748-3.0271 2.4748-4.9867 0-3.3137-2.6718-6-5.9668-6zm-0.11914 2.6426c1.7695 1.48e-4 3.2037 1.4274 3.2031 3.1875-5e-4 1.7594-1.4344 3.1854-3.2031 3.1855-1.7687-1.5e-4 -3.2026-1.4262-3.2031-3.1855-5.9e-4 -1.7601 1.4336-3.1874 3.2031-3.1875z" fill="#ff8080" stroke-width=".75"/>
  <path d="m150.59 88.2-0.38352-52.733" fill="none" stroke-dasharray="3, 3" stroke-width="3"/>
 </g>
 <path d="m150.59 88.2-0.38352-52.733" fill="none" stroke="#ff8080" stroke-dasharray="2, 4" stroke-dashoffset="5.4" stroke-linecap="round" stroke-linejoin="round" stroke-width="2"/>
 <g stroke="#000" stroke-dashoffset="5.4" stroke-linecap="round" stroke-linejoin="round" stroke-width=".5">
  <path d="m150.64 9.1698c9.176-6.6529 15.516-2.3842 18.086 6.5605 1.7629 6.1339 1.5443 14.631-0.0523 24.016l3.0508-0.13559c1.3561-9.1647 2.1838-23.457-3.1169-30.677-4.7055-6.409-14.897-7.4132-17.968 0.23639z" fill="url(#linearGradient4677)"/>
  <path d="m148.61 37.644c1.5694-0.19979 2.6208-1.2773 2.983-2.1017-5.1808-19.246-2.6721-30.695 8-30.915 5.9419-0.12269 9.6294 4.6966 11.292 11.109 2.0118 7.7606 1.2147 17.823-0.10531 23.874l1.5593 1.0847c1.2909-9.7963 1.1943-18.874-0.16938-25.248-1.659-7.7533-7.1826-12.196-12.441-12.651-15.831-1.3684-17.843 18.082-11.119 34.847z" fill="url(#linearGradient4685)"/>
  <path d="m168.68 39.746c-0.24028 1.4336 2.9278 2.9991 3.661 0.94915 0.6995-1.9558-3.3839-2.6026-3.661-0.94915z" fill="#f55"/>
 </g>
 <g stroke-linecap="round" stroke-linejoin="round">
  <path d="m171.16 140.34-0.65471-100.46" fill="none" stroke="#000" stroke-dasharray="3, 3" stroke-width="3"/>
  <path d="m171.16 140.34-0.65471-100.46" fill="none" stroke="#ff8080" stroke-dasharray="2, 4" stroke-dashoffset="5.4" stroke-width="2"/>
  <path d="m169.56 181.96c5.4e-4 0.48637 3.5394 0.42843 3.5372-0.045l-0.18684-39.918c-2e-3 -0.43256-3.3938-0.49297-3.3932 0.0325z" fill="url(#linearGradient4669)" stroke="#000" stroke-width=".75"/>
 </g>
 <g fill="#fff">
  <path d="m147.13 97.735c0.1957-0.06797 0.47705-0.15993 0.91893-0.24944 0.33239-0.06733 0.7308-0.12808 1.2046-0.17506 0.84632-0.08391 1.8295-0.11298 2.827-0.08128 1.048 0.0333 1.9738 0.129 2.6602 0.25747 0.45167 0.08453 0.78464 0.17986 1.0248 0.27901 0.0516 0.02129 0.0985 0.04261 0.14112 0.06382 0.0829 0.04126 0.17336 0.09293 0.26205 0.15554 0.10596 0.0748 0.22966 0.17946 0.32892 0.31722 0.0576 0.0799 0.1042 0.16713 0.13866 0.25938-4e-3 0.03644-8e-3 0.073-0.0103 0.10965-5e-3 0.07739-0.0101 0.22997-0.0151 0.45752-5e-3 0.21623-9e-3 0.50133-0.014 0.86054-9e-3 0.6756-0.0168 1.6042-0.0243 2.8103-0.0138 2.2296-0.0248 5.2979-0.0331 9.213-4e-3 1.9377-0.0183 24.781-0.0224 26.719 3e-3 -13.236-0.0195 42.507-0.0161 29.271-0.011 6.8306-0.0299 8.7602-0.0299 8.7602s-0.0421-1.9292-0.1335-8.7592c-0.0181-1.3548-0.33738-27.914-0.35552-29.269 0.16992 14.598-0.48654-41.315-0.31663-26.718-0.049-3.9217-0.0897-6.9764-0.12274-9.2131-0.0178-1.2069-0.0328-2.1346-0.0452-2.8117-7e-3 -0.35988-0.0123-0.64522-0.0173-0.86292-5e-3 -0.23242-0.01-0.3795-0.0132-0.46864l0.12839 0.36903c-3e-3 0.0091-0.0354-0.01213-0.0862-0.03988-0.0439-0.02399-0.0878-0.0466-0.14331-0.07423-0.0263-0.01312-0.0569-0.02845-0.0914-0.04543-0.16513-0.0812-0.4135-0.19568-0.80835-0.33281-0.60772-0.21106-1.4407-0.43186-2.4583-0.6171-0.95105-0.17313-1.9166-0.28776-2.7474-0.33014-0.46543-0.02374-0.86592-0.02375-1.1985-0.0047-0.44065 0.0252-0.73893 0.08243-0.9319 0.14944z"/>
  <path d="m170.16 142.31c0.28063-0.0586 0.5338-0.14425 1.0491-0.15954 0.42029-0.0125 0.78767 0.0385 0.94146 0.0946 9e-3 3e-3 0.0185 7e-3 0.0282 0.0111 0.0673 0.0282 0.1301 0.0662 0.18625 0.11286-2e-3 0.05-4e-3 0.10002-5e-3 0.15006-1e-3 0.0445-2e-3 0.12382-4e-3 0.248-1e-3 0.11113-3e-3 0.25711-4e-3 0.44558-3e-3 0.33752-6e-3 0.80022-8e-3 1.4255-5e-3 1.1003-8e-3 2.5998-0.0105 4.6119 7.9e-4 -0.71108 6.6e-4 12.563-1.2e-4 13.274 6.2e-4 1.266 3e-3 15.746 2e-3 14.48-4e-3 3.4077-0.0131 4.3426-0.0131 4.3426s-0.0224-0.93474-0.0718-4.3421c-8e-3 -0.56333-0.18152-13.915-0.18968-14.479-1.0357-82.947 0.86939 69.674-0.16635-13.273-4e-3 -0.31003-0.0571-4.302-0.0611-4.612-4e-3 -0.26001-0.0164-1.1663-0.02-1.4263 1e-3 0.0847-7e-3 -0.53158-6e-3 -0.44688-2e-3 -0.12417-3e-3 -0.206-3e-3 -0.25321l0.18078 0.26292c-9e-3 -3e-3 -0.0169-6e-3 -0.0247-8e-3 -0.13479-0.0492-0.42459-0.21613-0.78948-0.33595-0.40519-0.13304-0.77898-0.17101-1.01-0.12275z"/>
  <path d="m172.88 27.814c0.0351-2.5018 0.0168-6.5312-0.7713-10.645-0.79414-4.1456-2.0672-6.7579-3.1136-8.3184-0.0213-0.031777-0.0432-0.064155-0.0657-0.097094-1.0555-1.5436-2.9928-3.6986-6.1942-4.684-3.3165-1.0208-6.724-0.41405-9.245 0.28722 2.5284-0.70333 5.9574-1.1829 9.1702-0.059525 3.0824 1.0777 4.8578 3.2385 5.8696 4.7285 0.0217 0.031985 0.0429 0.063399 0.0636 0.094197 1.0202 1.5215 2.3569 3.9881 3.2764 8.0987 0.90368 4.0398 1.045 8.1156 1.0102 10.596z"/>
 </g>
 <g stroke="#000" stroke-linecap="round" stroke-linejoin="round">
  <path d="m89.788 251.57c2e-3 1.7144 13.025 1.5101 13.017-0.15885l-0.6876-140.7c-7e-3 -1.5247-12.49-1.7376-12.488 0.11432z" fill="url(#linearGradient4659-7)" stroke-width=".75"/>
  <path d="m95.637 98.487c-3.295 0-5.9668 2.6863-5.9668 6 0 2.0129 1.0816 3.9622 2.5939 5.0506 2.1167-0.28258 5.3175-0.34934 6.8649-0.0639 1.4448-1.095 2.4748-3.0271 2.4748-4.9867 0-3.3137-2.6718-6-5.9668-6zm-0.11914 2.6426c1.7695 1.5e-4 3.2037 1.4274 3.2031 3.1875-5e-4 1.7594-1.4344 3.1854-3.2031 3.1855-1.7687-1.5e-4 -3.2026-1.4262-3.2031-3.1855-5.9e-4 -1.7601 1.4336-3.1874 3.2031-3.1875z" fill="#ff8080" stroke-width=".75"/>
  <path d="m95.372 101.33-0.38352-52.733" fill="none" stroke-dasharray="3, 3" stroke-width="3"/>
 </g>
 <path d="m95.372 101.33-0.38352-52.733" fill="none" stroke="#ff8080" stroke-dasharray="2, 4" stroke-dashoffset="5.4" stroke-linecap="round" stroke-linejoin="round" stroke-width="2"/>
 <g stroke="#000" stroke-dashoffset="5.4" stroke-linecap="round" stroke-linejoin="round" stroke-width=".5">
  <path d="m95.429 22.304c9.176-6.6529 15.516-2.3842 18.086 6.5605 1.7629 6.1339 1.5443 14.631-0.0523 24.016l3.0508-0.13559c1.3561-9.1647 2.1838-23.457-3.1169-30.677-4.7055-6.409-14.897-7.4132-17.968 0.23639z" fill="url(#linearGradient4677-5)"/>
  <path d="m93.395 50.778c1.5694-0.19979 2.6208-1.2773 2.983-2.1017-5.1808-19.246-2.6721-30.695 8-30.915 5.9419-0.12269 9.6294 4.6966 11.292 11.109 2.0118 7.7606 1.2147 17.823-0.10531 23.874l1.5593 1.0847c1.2909-9.7963 1.1943-18.874-0.16938-25.248-1.659-7.7533-7.1826-12.196-12.441-12.651-15.831-1.3684-17.843 18.082-11.119 34.847z" fill="url(#linearGradient4685-2)"/>
  <path d="m113.46 52.88c-0.24028 1.4336 2.9278 2.9991 3.661 0.94915 0.6995-1.9558-3.3839-2.6026-3.661-0.94915z" fill="#f55"/>
 </g>
 <g stroke-linecap="round" stroke-linejoin="round">
  <path d="m115.95 153.48-0.65471-100.46" fill="none" stroke="#000" stroke-dasharray="3, 3" stroke-width="3"/>
  <path d="m115.95 153.48-0.65471-100.46" fill="none" stroke="#ff8080" stroke-dasharray="2, 4" stroke-dashoffset="5.4" stroke-width="2"/>
  <path d="m114.35 195.09c5.4e-4 0.48637 3.5394 0.42843 3.5372-0.045l-0.18684-39.918c-2e-3 -0.43256-3.3938-0.49297-3.3932 0.0325z" fill="url(#linearGradient4669-0)" stroke="#000" stroke-width=".75"/>
 </g>
 <g fill="#fff">
  <path d="m91.918 110.87c0.1957-0.068 0.47705-0.15993 0.91893-0.24944 0.33238-0.0673 0.7308-0.12808 1.2046-0.17506 0.84631-0.0839 1.8295-0.11297 2.827-0.0813 1.048 0.0333 1.9738 0.129 2.6602 0.25747 0.45167 0.0845 0.78464 0.17986 1.0248 0.27901 0.0516 0.0213 0.0985 0.0426 0.14112 0.0638 0.0829 0.0413 0.17337 0.0929 0.26205 0.15554 0.10596 0.0748 0.22966 0.17946 0.32892 0.31722 0.0576 0.0799 0.1042 0.16713 0.13866 0.25938-4e-3 0.0364-8e-3 0.073-0.0103 0.10965-5e-3 0.0774-0.0101 0.22997-0.0151 0.45751-5e-3 0.21624-9e-3 0.50133-0.014 0.86054-9e-3 0.6756-0.0168 1.6042-0.0242 2.8103-0.0139 2.2296-0.0248 5.2979-0.0331 9.213-4e-3 1.9377-0.0183 24.781-0.0224 26.719 3e-3 -13.236-0.0195 42.507-0.0161 29.271-0.011 6.8306-0.0299 8.7602-0.0299 8.7602s-0.0421-1.9292-0.1335-8.7592c-0.0181-1.3548-0.33738-27.914-0.35552-29.269 0.16992 14.598-0.48654-41.315-0.31663-26.718-0.049-3.9217-0.0897-6.9764-0.12274-9.2131-0.0178-1.2069-0.0328-2.1346-0.0452-2.8117-7e-3 -0.35988-0.0123-0.64522-0.0173-0.86292-5e-3 -0.23242-0.01-0.3795-0.0132-0.46864l0.12839 0.36903c-3e-3 9e-3 -0.0354-0.0121-0.0862-0.0399-0.0439-0.024-0.0878-0.0466-0.14331-0.0742-0.0263-0.0131-0.0569-0.0284-0.0914-0.0454-0.16513-0.0812-0.4135-0.19568-0.80835-0.33281-0.60772-0.21106-1.4407-0.43186-2.4583-0.6171-0.95105-0.17313-1.9166-0.28776-2.7474-0.33014-0.46544-0.0237-0.86592-0.0238-1.1985-5e-3 -0.44065 0.0252-0.73893 0.0824-0.9319 0.14944z"/>
  <path d="m114.94 155.45c0.28063-0.0586 0.5338-0.14425 1.0491-0.15954 0.42029-0.0125 0.78767 0.0385 0.94146 0.0946 9e-3 3e-3 0.0185 7e-3 0.0282 0.0111 0.0673 0.0282 0.1301 0.0662 0.18625 0.11286-2e-3 0.05-4e-3 0.10002-5e-3 0.15006-1e-3 0.0445-2e-3 0.12382-4e-3 0.248-1e-3 0.11113-3e-3 0.25711-4e-3 0.44558-3e-3 0.33752-6e-3 0.80022-8e-3 1.4255-5e-3 1.1003-8e-3 2.5998-0.0105 4.6119 7.9e-4 -0.71108 6.6e-4 12.563-1.2e-4 13.274 6.2e-4 1.266 3e-3 15.746 2e-3 14.48-4e-3 3.4077-0.0131 4.3426-0.0131 4.3426s-0.0224-0.93474-0.0718-4.3421c-8e-3 -0.56333-0.18152-13.915-0.18968-14.479-1.0357-82.947 0.86939 69.674-0.16635-13.273-4e-3 -0.31003-0.0571-4.302-0.0611-4.612-4e-3 -0.26001-0.0164-1.1663-0.02-1.4263 1e-3 0.0847-7e-3 -0.53158-6e-3 -0.44688-2e-3 -0.12417-3e-3 -0.206-3e-3 -0.25321l0.18078 0.26292c-9e-3 -3e-3 -0.0169-6e-3 -0.0247-8e-3 -0.13479-0.0492-0.42459-0.21613-0.78948-0.33595-0.40519-0.13304-0.77898-0.17101-1.01-0.12275z"/>
  <path d="m117.67 40.948c0.0351-2.5018 0.0168-6.5312-0.7713-10.645-0.79414-4.1456-2.0672-6.7579-3.1136-8.3184-0.0213-0.03178-0.0432-0.06416-0.0657-0.09709-1.0555-1.5436-2.9928-3.6986-6.1942-4.684-3.3165-1.0208-6.724-0.41406-9.245 0.28722 2.5284-0.70333 5.9574-1.1829 9.1702-0.05953 3.0824 1.0777 4.8578 3.2385 5.8696 4.7285 0.0217 0.03199 0.0429 0.0634 0.0636 0.0942 1.0202 1.5215 2.3569 3.9881 3.2764 8.0987 0.90368 4.0398 1.045 8.1156 1.0102 10.596z"/>
 </g>
</svg>
