<svg cursor="default" version="1.1" viewBox="0 0 256 256" xmlns="http://www.w3.org/2000/svg" xmlns:xlink="http://www.w3.org/1999/xlink">
 <defs>
  <linearGradient id="innoGrad1">
   <stop stop-color="#ffd5d5" offset="0"/>
   <stop stop-color="#faa" offset=".27966"/>
   <stop stop-color="#ff8080" offset=".59501"/>
   <stop stop-color="#f55" offset="1"/>
  </linearGradient>
  <radialGradient id="radialGradient915" cx="74.474" cy="119.62" r="41.72" gradientTransform="matrix(1.2666 .0011289 -.0013779 1.546 -19.453 -66.381)" gradientUnits="userSpaceOnUse" xlink:href="#innoGrad1"/>
 </defs>
 <g transform="rotate(26.924 249.39 336.69)">
  <g stroke="#000" stroke-linecap="round" stroke-linejoin="round">
   <ellipse cx="62.237" cy="135.46" rx="41.242" ry="43.141" fill="url(#radialGradient915)" stroke-width=".9559"/>
   <g>
    <path d="m155.59 196.07c-1.3602-1.6689-10.292-7.5871-19.254-3.7966-2.9801 1.4116-5.1116 2.4003-6.4637 5.0398 1.0765 4.8708-1.042 10.063-12.248 9.8077-12.419 8.1041-11.184 15.237-10.441 19.729-4.0348-6.4783-4.9525-13.682-1.2203-21.966l25.695-22.034c20.497-5.8693 24.855 7.9101 23.932 13.22z" fill="#ffb380"/>
    <path d="m156.47 192.72 0.67115 14.669c-1.9701 7.4972-12.174 9.8749-17.066 8.4374l-6.4239-9.5879c18.589 6.2576 22.263-7.0888 22.819-13.519z" fill="#f95"/>
    <path d="m153.89 237.88c-3.9836-6.357 2.4912-8.1817 5.6569-5.0816 1.6278 1.531-2.0621 8.178-5.6569 5.0816z" fill="#f95"/>
    <path d="m100.05 151.11c1.7978 7.6354-8.6255 25.899-25.779 25.463-1.7934-1.742-2.3597-3.6284-0.17938-5.4735 3.0734-1.5431 3.8421-3.8853 2.7656-6.711 0.15256-2.3352 1.807-4.2529 4.472-5.7452 2.6926 0.46149 4.6973-0.64737 5.2934-4.4741 0.73094-1.5739 2.7441-4.0827 5.4972-2.8335 1.9448 1.6783 4.0697 1.4029 4.7815-0.84254 1.4075-0.98566 2.4658-0.79068 3.1483 0.61667z" fill="#ffb380"/>
    <path d="m87.322 170.49c1.988-0.90903 5.3468-3.6894 6.2883-5.2994l65.932 67.611c-2.6639-2.0088-7.5145 2.0642-5.6569 5.0816z" fill="#ffb380"/>
    <path d="m110.64 210.98-1.8983-1.3559 0.74631 7.4257 1.8233 0.78741c6.546-5.4856 13.877-1.6641 19.751 2.8764 2.3302-14.596-11.88-15.498-20.422-9.7335z" fill="#f95"/>
    <path d="m102.59 216.21 1.4382 13.998c8.3834 13.23 26.978 7.2875 28.511-0.76222l-0.32253-11.702c-4.5135 15.902-27.488 17.972-29.627-1.5341z" fill="#f95"/>
   </g>
  </g>
  <path d="m110.64 210.98 0.67132 6.8572" fill="none" stroke="#000" stroke-linecap="round" stroke-linejoin="round"/>
  <path d="m130.44 191.59h-2.1695s-0.41819 5.1712 1.7428 10.081c2.9682 3.2857 4.9473 5.2196 7.1137 7.1478 4.9437 1.7331 11.732 0.3032 15.279-3.2623 4.453-4.4766 5.6573-13.774 1.8983-18.847-4.5804-6.182-17.366-7.9159-23.864-3.7966-4.9764 3.1545-22.433 18.264-24.949 21.559-4.9349 6.4624-3.7985 19.057 2.4407 24.271 5.3225 4.4482 16.037 3.4659 20.746-1.6271 4.0811-4.4137 5.7616-12.584 0-18.034-8.2083-7.764-19.932 0.54237-19.932 0.54237l1.8983 1.3559s9.4824-6.6441 16.271-0.13559c5.3234 5.1036 2.9158 11.266-0.54237 14.78-4.2225 4.2902-13.51 4.9205-18.034 0.94915-5.2346-4.5954-5.1364-16.158-1.3559-20.746 3.0826-3.7406 7.9664-0.16832 12.407-2.1017-0.58739-4.1209 4.9756-6.9643 6.6441-6.5763 1.7401-2.6667-1.2376-7.8314 5.5593-13.153 1.8342-1.4359 13.994-4.3146 21.085 3.5254 3.8404 4.246 2.3224 13.074-1.7627 17.085-3.8192 3.75-11.559 4.3437-16 1.3559-4.1632-2.8009-4.4746-14.373-4.4746-14.373z" fill="#fca" stroke="#000" stroke-linecap="round" stroke-linejoin="round"/>
  <g fill="#ffe6d5">
   <path d="m93.419 167.1c3.3901 3.6187 7.0963 7.9954 11.994 13.614 4.6952 5.386 7.9103 8.8419 10.36 11.083 0.16656 0.15242 1.24-0.034 1.405 0.11357-0.16498-0.14762-0.0819-1.2304-0.24575-1.3804-2.9538-2.7031-5.336-4.8103-10.891-10.402-3.9058-3.9316-10.535-10.801-12.622-13.029z"/>
   <path d="m154.99 230.85c-3.5925-3.511-9.6179-9.8652-16.649-17.44-6.4653-6.9655-10.675-11.586-12.862-13.802-0.16806-0.17034-1.2647-0.0579-1.4207-0.21502 0.15598 0.15709 0.031 1.2514 0.19841 1.4211 0.88925 0.90124 7.9594 7.8498 13.438 13.225 4.3714 4.2892 12.924 12.522 17.295 16.811z"/>
   <path d="m128 185.91c-0.69037 0.77823-2.0955 2.068-4.0219 3.6736-1.8563 1.5471-4.0058 3.2127-5.3302 4.2868-0.22974 0.18631-0.4345 0.35514-0.609 0.5036-0.97266 0.82744-2.8424 2.6185-4.676 4.2947-1.8755 1.7145-3.549 3.1772-4.4428 3.8284 0.87558-0.63789 2.8228-1.8653 4.8861-3.2673 2.1166-1.4382 4.1356-2.8957 5.1594-3.7666 0.17593-0.14967 0.37671-0.32707 0.59741-0.52772 1.3298-1.209 3.1568-3.0461 4.85-4.8966 1.6416-1.7942 2.9329-3.3915 3.587-4.1289z"/>
  </g>
  <g fill="#fca">
   <path d="m91.852 165.2 0.49364-0.0795c-0.41228-2.56-2.1428-10.16-2.555-12.72 0.41228 2.56 1.1555 10.319 1.5678 12.879l0.49364-0.0795z"/>
   <path d="m87.585 168.65s0.32196-0.38254 0.32196-0.38254c-1.6137-1.3582-6.686-5.3169-8.3278-6.7125 1.6419 1.3956 6.0481 6.1008 7.6839 7.4776 0 0 0.32196-0.38254 0.32196-0.38254z"/>
   <path d="m87.058 171.72-0.05906-0.4965c-2.5791 0.30681-10.258 1.7238-12.837 2.0306 2.5791-0.30681 10.376-0.73075 12.955-1.0376l-0.05906-0.4965z"/>
   <path d="m94.441 164.39 0.47592 0.15329c0.82456-2.56 2.8223-10.393 3.6469-12.953-0.82456 2.56-3.7742 10.087-4.5987 12.647l0.47592 0.15329z"/>
  </g>
 </g>
 <g transform="translate(2.3011 -8.0538)">
  <g stroke="#000" stroke-linecap="round" stroke-linejoin="round">
   <ellipse cx="62.237" cy="135.46" rx="41.242" ry="43.141" fill="url(#radialGradient915)" stroke-width=".9559"/>
   <g>
    <path d="m155.59 196.07c-1.3602-1.6689-10.292-7.5871-19.254-3.7966-2.9801 1.4116-5.1116 2.4003-6.4637 5.0398 1.0765 4.8708-1.042 10.063-12.248 9.8077-12.419 8.1041-11.184 15.237-10.441 19.729-4.0348-6.4783-4.9525-13.682-1.2203-21.966l25.695-22.034c20.497-5.8693 24.855 7.9101 23.932 13.22z" fill="#ffb380"/>
    <path d="m156.47 192.72 0.67115 14.669c-1.9701 7.4972-12.174 9.8749-17.066 8.4374l-6.4239-9.5879c18.589 6.2576 22.263-7.0888 22.819-13.519z" fill="#f95"/>
    <path d="m153.89 237.88c-3.9836-6.357 2.4912-8.1817 5.6569-5.0816 1.6278 1.531-2.0621 8.178-5.6569 5.0816z" fill="#f95"/>
    <path d="m100.05 151.11c1.7978 7.6354-8.6255 25.899-25.779 25.463-1.7934-1.742-2.3597-3.6284-0.17938-5.4735 3.0734-1.5431 3.8421-3.8853 2.7656-6.711 0.15256-2.3352 1.807-4.2529 4.472-5.7452 2.6926 0.46149 4.6973-0.64737 5.2934-4.4741 0.73094-1.5739 2.7441-4.0827 5.4972-2.8335 1.9448 1.6783 4.0697 1.4029 4.7815-0.84254 1.4075-0.98566 2.4658-0.79068 3.1483 0.61667z" fill="#ffb380"/>
    <path d="m87.322 170.49c1.988-0.90903 5.3468-3.6894 6.2883-5.2994l65.932 67.611c-2.6639-2.0088-7.5145 2.0642-5.6569 5.0816z" fill="#ffb380"/>
    <path d="m110.64 210.98-1.8983-1.3559 0.74631 7.4257 1.8233 0.78741c6.546-5.4856 13.877-1.6641 19.751 2.8764 2.3302-14.596-11.88-15.498-20.422-9.7335z" fill="#f95"/>
    <path d="m102.59 216.21 1.4382 13.998c8.3834 13.23 26.978 7.2875 28.511-0.76222l-0.32253-11.702c-4.5135 15.902-27.488 17.972-29.627-1.5341z" fill="#f95"/>
   </g>
  </g>
  <path d="m110.64 210.98 0.67132 6.8572" fill="none" stroke="#000" stroke-linecap="round" stroke-linejoin="round"/>
  <path d="m130.44 191.59h-2.1695s-0.41819 5.1712 1.7428 10.081c2.9682 3.2857 4.9473 5.2196 7.1137 7.1478 4.9437 1.7331 11.732 0.3032 15.279-3.2623 4.453-4.4766 5.6573-13.774 1.8983-18.847-4.5804-6.182-17.366-7.9159-23.864-3.7966-4.9764 3.1545-22.433 18.264-24.949 21.559-4.9349 6.4624-3.7985 19.057 2.4407 24.271 5.3225 4.4482 16.037 3.4659 20.746-1.6271 4.0811-4.4137 5.7616-12.584 0-18.034-8.2083-7.764-19.932 0.54237-19.932 0.54237l1.8983 1.3559s9.4824-6.6441 16.271-0.13559c5.3234 5.1036 2.9158 11.266-0.54237 14.78-4.2225 4.2902-13.51 4.9205-18.034 0.94915-5.2346-4.5954-5.1364-16.158-1.3559-20.746 3.0826-3.7406 7.9664-0.16832 12.407-2.1017-0.58739-4.1209 4.9756-6.9643 6.6441-6.5763 1.7401-2.6667-1.2376-7.8314 5.5593-13.153 1.8342-1.4359 13.994-4.3146 21.085 3.5254 3.8404 4.246 2.3224 13.074-1.7627 17.085-3.8192 3.75-11.559 4.3437-16 1.3559-4.1632-2.8009-4.4746-14.373-4.4746-14.373z" fill="#fca" stroke="#000" stroke-linecap="round" stroke-linejoin="round"/>
  <g fill="#ffe6d5">
   <path d="m93.419 167.1c3.3901 3.6187 7.0963 7.9954 11.994 13.614 4.6952 5.386 7.9103 8.8419 10.36 11.083 0.16656 0.15242 1.24-0.034 1.405 0.11357-0.16498-0.14762-0.0819-1.2304-0.24575-1.3804-2.9538-2.7031-5.336-4.8103-10.891-10.402-3.9058-3.9316-10.535-10.801-12.622-13.029z"/>
   <path d="m154.99 230.85c-3.5925-3.511-9.6179-9.8652-16.649-17.44-6.4653-6.9655-10.675-11.586-12.862-13.802-0.16806-0.17034-1.2647-0.0579-1.4207-0.21502 0.15598 0.15709 0.031 1.2514 0.19841 1.4211 0.88925 0.90124 7.9594 7.8498 13.438 13.225 4.3714 4.2892 12.924 12.522 17.295 16.811z"/>
   <path d="m128 185.91c-0.69037 0.77823-2.0955 2.068-4.0219 3.6736-1.8563 1.5471-4.0058 3.2127-5.3302 4.2868-0.22974 0.18631-0.4345 0.35514-0.609 0.5036-0.97266 0.82744-2.8424 2.6185-4.676 4.2947-1.8755 1.7145-3.549 3.1772-4.4428 3.8284 0.87558-0.63789 2.8228-1.8653 4.8861-3.2673 2.1166-1.4382 4.1356-2.8957 5.1594-3.7666 0.17593-0.14967 0.37671-0.32707 0.59741-0.52772 1.3298-1.209 3.1568-3.0461 4.85-4.8966 1.6416-1.7942 2.9329-3.3915 3.587-4.1289z"/>
  </g>
  <g fill="#fca">
   <path d="m91.852 165.2 0.49364-0.0795c-0.41228-2.56-2.1428-10.16-2.555-12.72 0.41228 2.56 1.1555 10.319 1.5678 12.879l0.49364-0.0795z"/>
   <path d="m87.585 168.65s0.32196-0.38254 0.32196-0.38254c-1.6137-1.3582-6.686-5.3169-8.3278-6.7125 1.6419 1.3956 6.0481 6.1008 7.6839 7.4776 0 0 0.32196-0.38254 0.32196-0.38254z"/>
   <path d="m87.058 171.72-0.05906-0.4965c-2.5791 0.30681-10.258 1.7238-12.837 2.0306 2.5791-0.30681 10.376-0.73075 12.955-1.0376l-0.05906-0.4965z"/>
   <path d="m94.441 164.39 0.47592 0.15329c0.82456-2.56 2.8223-10.393 3.6469-12.953-0.82456 2.56-3.7742 10.087-4.5987 12.647l0.47592 0.15329z"/>
  </g>
 </g>
</svg>
