<svg xmlns="http://www.w3.org/2000/svg" cursor="default" viewBox="0 0 256 256">
    <g transform="translate(0 -796.362)">
        <path fill="#ffb380" fill-rule="evenodd" stroke="#000" stroke-width=".95" d="M68.664 823.524l-.471 1.388-23.566 2.344c-1.453.144-1.654 1.754.135 1.59l23.664-2.184 1.27 1.072c1.504-2.457 1.61-3.161-1.032-4.21z"/>
        <path fill="#f55" fill-rule="evenodd" stroke="#000" stroke-width=".95" d="M29.868 853.35l4.714-2.725c.325-1.696-.215-4.232 1.292-5.116 6.621-3.88 13.385-6.264 19.796-11.755 1.168-1 2.593-7.809 3.89-11.713.378-1.247 2.093-.752 1.642.396-1.464 4.038-3.257 11.328-4.391 12.113-7.482 5.177-12.8 12.016-18.467 18.973-1.242 1.525-2.19-1.07-3.242-1.69l-4.324 3.108z"/>
        <ellipse cx="-34.516" cy="849.305" fill="#ff2a2a" stroke="#000" stroke-linecap="round" stroke-linejoin="round" stroke-width=".475" rx="1.811" ry="1.781" transform="rotate(-4.866)"/>
        <path fill="#ff8080" fill-rule="evenodd" stroke="#000" stroke-width=".95" d="M27.44 852.062c1.37-1.701 5.31 2.044 4.33 3.34-48.158 72.516 42.394 156.979 109.708 96.844 46.12-41.202 21.275-138.006-68.922-124.587-2.904.506-3.655-5.273-1.852-5.91 72.573-17.638 136.997 71.66 74.156 134.591-61.837 61.928-172.827-17.563-117.42-104.278z"/>
        <path fill="#ffd5d5" fill-rule="evenodd" d="M74.27 822.636c19.335-3.45 36.87.33 51.326 8.413 24.036 12.624 40.532 37.212 43.333 61.949-2.265-24.774-18.307-50.018-42.567-63.372-15.034-7.779-32.858-10.967-52.093-6.99z"/>
        <path fill="#ffb380" fill-rule="evenodd" stroke="#000" d="M149.023 873.022l-.619 1.414-24.925.354c-1.537.022-1.892 1.693 0 1.68l25.013-.177 1.238 1.237c1.796-2.443 1.97-3.172-.707-4.508z"/>
        <path fill="#f55" fill-rule="evenodd" stroke="#000" d="M105.668 900.841l5.188-2.437c.493-1.75.152-4.458 1.812-5.25 7.291-3.48 14.598-5.376 21.813-10.563 1.314-.944 3.417-7.958 5.125-11.937.508-1.274 2.263-.602 1.687.562-1.895 4.105-4.427 11.591-5.687 12.313-8.31 4.761-14.498 11.46-21.063 18.25-1.439 1.489-2.201-1.317-3.25-2.063l-4.812 2.875z"/>
        <ellipse cx="114.2" cy="897.154" fill="#ff2a2a" stroke="#000" stroke-linecap="round" stroke-linejoin="round" stroke-width=".5" rx="1.906" ry="1.875"/>
        <path fill="#ff8080" fill-rule="evenodd" stroke="#000" d="M103.238 899.274c1.589-1.662 5.386 2.618 4.242 3.889-56.984 71.758 30.449 168.43 106.42 111.369 52.052-39.096 34.636-142.846-61.165-136.825-3.09.27-3.363-5.857-1.414-6.364 77.691-12.02 137.29 87.39 65.76 147.785-70.386 59.43-179.7-33.852-113.843-119.854z"/>
        <path fill="#ffd5d5" fill-rule="evenodd" d="M154.98 872.591c20.588-1.892 38.644 3.64 53.083 13.407 24.082 15.387 39.19 42.648 39.918 68.843-.163-26.185-14.735-54.095-38.988-70.267-15.073-9.501-33.483-14.437-54.012-11.983z"/>
    </g>
</svg>
