<svg cursor="default" version="1.1" viewBox="0 0 256 256" xmlns="http://www.w3.org/2000/svg" xmlns:xlink="http://www.w3.org/1999/xlink">
 <defs>
  <linearGradient id="innoGrad2">
   <stop stop-color="#ff8080" offset="0"/>
   <stop stop-color="#faa" offset="1"/>
  </linearGradient>
  <linearGradient id="linearGradient1057" x1="-76.627" x2="-59.383" y1="9.0584" y2="45.962" gradientTransform="translate(-48.498 87.877)" gradientUnits="userSpaceOnUse" xlink:href="#innoGrad2"/>
  <linearGradient id="linearGradient1059" x1="62.666" x2="53.845" y1="44.054" y2="95.062" gradientTransform="translate(100.33 2.9299)" gradientUnits="userSpaceOnUse">
   <stop stop-color="#f55" offset="0"/>
   <stop stop-color="#ff8080" offset="1"/>
  </linearGradient>
  <linearGradient id="linearGradient1073" x1="343.11" x2="354.72" y1="93.699" y2="51.891" gradientUnits="userSpaceOnUse" xlink:href="#innoGrad2"/>
 </defs>
 <path d="m126.19 168.59c16.068-15.645 41.708-72.271 39.776-115.54-2.3645-3.4334-14.109 0.95175-16.465 2.7607 1.7057 35.337-17.039 83.153-36.64 105.07z" fill="url(#linearGradient1059)" fill-rule="evenodd" stroke="#000" stroke-width="1.1025"/>
 <ellipse transform="rotate(242.78)" cx="-114.92" cy="120.57" rx="23.015" ry="23.166" fill="url(#linearGradient1057)" stroke="#000" stroke-linecap="round" stroke-width="1.1025"/>
 <g transform="rotate(10.721 114.45 -921.06)">
  <g stroke="#000" stroke-linecap="round">
   <ellipse transform="rotate(18.758)" cx="351.42" cy="58.219" rx="32.77" ry="33.083" fill="url(#linearGradient1073)" stroke-width="1.009"/>
   <ellipse transform="rotate(18.758)" cx="349.55" cy="57.844" rx="28.096" ry="28.364" fill="#f95" stroke-width=".865"/>
   <ellipse transform="rotate(18.758)" cx="350.17" cy="58.219" rx="25.357" ry="25.599" fill="#ffe6d5" stroke-width=".781"/>
  </g>
  <g fill-rule="evenodd">
   <g stroke="#000" stroke-width=".5">
    <path d="m303.61 176.55c0.0255 0.47544-4.7117 12.399-4.7117 12.399 3.2942 2.4062 7.0338 3.5009 10.997 3.9384l2.6856-13.312z" fill="#ffb380"/>
    <path d="m320.12 175.77 14.19 4.988c1.6216-3.2977 3.5078-6.4633 3.5438-10.553l-14.914-3.5602z" fill="#fca"/>
    <path d="m320.97 157.94 4.4577-12.233c-3.3299-1.8004-6.4343-2.7534-9.38-3.1043l-4.5652 11.825z" fill="#ffb380"/>
    <path d="m299.52 168.52-11.767-3.557c0.50844-3.6863 1.6254-7.2737 3.6345-10.714l11.25 3.6875z" fill="#ffe6d5"/>
    <path d="m311.46 154.23-8.8748 3.4873-3.1443 10.813 3.6714 7.8475 10.169 3.3766 6.7395-3.5155 3.4464-10.723-1.8245-7.8222z" fill="#ffe6d5"/>
    <path d="m303.12 176.62c0.53236-0.19306 7.9154-8.2561 7.9154-8.2561l-11.417 0.15597-11.045 5.873c0.82885 2.8024 1.5496 5.5966 4.2965 8.5382z" fill="#fca"/>
    <path d="m311.52 168.2c0.0582-0.17139 9.6186-10.553 9.6186-10.553l9.6545-7.8229c3.541 3.8935 6.0272 8.0942 6.8103 12.791l-14.46 2.9223z" fill="#ffb380"/>
    <path d="m311.32 168.1c-0.19574-0.114-8.8375-10.523-8.8375-10.523l-3.6148-11.052c3.0592-1.6098 5.8864-3.4757 10.112-3.8l2.5822 11.577z" fill="#fca"/>
    <path d="m311.6 168.72 1.2328 10.451 5.0231 13.442c4.2782-0.92961 7.789-2.6595 10.574-5.1522l-8.6746-11.923z" fill="#ffb380"/>
   </g>
   <path d="m301.26 146.42c0.65072 2.593 1.0219 4.3423 1.3033 5.8646 0.27439 1.4746 0.46176 2.7358 0.7419 4.3676l1.3955-0.27167 1.2917-0.59102c-0.73202-1.5233-1.3607-2.6482-2.0751-3.9808a82.802 82.802 0 0 1-2.6582-5.3891zm16.476-2.7022c-0.72028 1.048-1.5795 2.4523-2.4562 3.9299l-0.16695 0.72481c-0.44185 1.9167-0.88141 3.8765-1.1292 5.424 0.74906-1.3847 1.857-3.4839 2.606-4.8686l0.35311-0.65103c0.3194-1.6806 0.62578-3.2979 0.79323-4.5591zm-26.134 12.449c1.3071 0.37421 3.0156 0.5679 4.681 0.7079l0.36349 0.0305c1.4133 0.72076 2.8849 1.4222 3.9781 2.1431-1.3077-0.0956-2.8732-0.13196-4.4934-0.22491a98.872 98.872 0 0 1-0.33652-0.1597c-1.576-0.75172-3.1364-1.5616-4.1928-2.4969zm14.111 22.895a32.935 32.935 0 0 0-1.3677 1.9656c-0.38723 0.5898-0.79753 1.232-1.2165 1.8902l-0.13106 0.75285c-0.17999 1.0182-0.36252 2.0376-0.50655 2.9593-0.14339 0.91974-0.24956 1.7455-0.27233 2.3629 0.36083-0.50584 0.79609-1.1997 1.275-2.0002 0.47728-0.79896 0.99433-1.6964 1.5082-2.5969l0.38071-0.667a68.538 68.538 0 0 0 0.25274-2.2524c0.0859-0.93714 0.12709-1.786 0.0775-2.4143zm13.231 11.766a95.686 95.686 0 0 1-0.72182-2.6573c-0.27423-1.0552-0.57272-2.238-0.86463-3.4091a879.67 879.67 0 0 1-0.82672-3.3466l-0.34436-1.4022-0.0971-0.39204c-0.4738-0.0975-0.95156-0.16475-1.399-0.17202-0.30057 0.3626-0.56552 0.68872-0.86343 1.0839 0.0608 0.10091 0.12247 0.20846 0.1857 0.32393 0.19785 0.35656 0.41304 0.7771 0.63876 1.2382 0.45144 0.92216 0.94621 2.009 1.4479 3.1066 0.50292 1.1002 1.0134 2.2156 1.4989 3.2021 0.48492 0.98527 0.9465 1.8464 1.3458 2.4246zm-27.231-15.09c1.9351-1.4128 3.9472-2.7972 5.5503-3.932 0.4045-0.28612 0.78393-0.55752 1.1275-0.8073 0.39609-0.14007 0.75885-0.25977 1.082-0.35598 0.32628-0.0993 0.61068-0.17491 0.84751-0.22543a2.58 2.58 0 0 1 0.56012-0.0696c-0.05 0.12558-0.16384 0.28653-0.32363 0.47095a8.707 8.707 0 0 1-0.62115 0.62864c-0.24733 0.23072-0.5359 0.48334-0.85619 0.75476-0.38929 0.16983-0.81348 0.35844-1.2643 0.56334a143.36 143.36 0 0 0-6.102 2.9726zm29.83-16.898-0.36777-0.33823c-2.2053 2.395-1.6808 1.911-4.6429 5.0354-1.2152 1.2834-3.6097 3.7937-3.5935 3.777 0.67868-0.67986 1.854-1.6156 3.9393-3.4146 2.0684-1.7867 3.8779-3.4671 5.0323-4.7205zm15.057 13.068c-0.81146-0.16681-1.8437-0.33043-2.9764-0.49336-1.1375-0.16454-2.3924-0.32879-3.6674-0.49885a216.8 216.8 0 0 1-3.9403-0.55351c-1.0546-0.61375-2.0296-1.2384-2.791-1.8572 0.91501-0.0262 2.1575-0.0805 3.2864-0.13325l0.1392 0.0473c1.1397 0.39761 2.3752 0.78975 3.6009 1.1796 1.2248 0.38955 2.4382 0.77525 3.5327 1.1596 1.0945 0.38439 2.0717 0.76907 2.8159 1.1496z" fill="#fff"/>
  </g>
 </g>
 <path d="m162.36 26.477c2.1171 0.23907 4.8546 0.39116 8.2828 2.1138 2.122 1.0663 3.7404 2.4017 4.5579 3.3489 0.51726 0.59933 1.1475 1.4729 1.7685 2.5818 1.4136 2.524 2.4326 5.6316 2.7315 8.9834 0.30009 3.3645-0.20258 5.8548-0.53055 7.5268 0.3218-1.6406 0.34754-4.2797-0.51158-7.338-0.87087-3.1002-2.361-5.6763-3.9226-7.7165-0.68882-0.89999-1.3077-1.5915-1.761-2.1167-0.74712-0.86567-1.7273-2.2474-3.372-3.7236-2.4675-2.2147-5.2286-3.4325-7.2431-3.6599z" fill="#fff"/>
 <path d="m112.91 156.13c3.2732 0.33434 7.607 1.0008 12.137 3.6022 3.168 1.8191 5.3459 3.9994 6.504 5.4537 0.54771 0.68774 1.2108 1.6235 1.8884 2.7913 1.8841 3.2471 3.3366 7.3421 3.8982 12.083 0.55507 4.6851 0.0741 8.5022-0.29549 10.93 0.36577-2.4031 0.54867-6.3148-0.35152-10.828-0.91916-4.6081-2.6595-8.3785-4.615-11.342-0.70332-1.0658-1.3585-1.9151-1.8727-2.5608-1.0929-1.3723-2.8698-3.5909-5.7195-5.6534-4.0031-2.8972-8.343-4.1461-11.574-4.4761z" fill="#fff"/>
</svg>
