<?xml version="1.0" encoding="UTF-8"?>
<svg cursor="default" version="1.1" viewBox="0 0 256 256" xmlns="http://www.w3.org/2000/svg" xmlns:xlink="http://www.w3.org/1999/xlink">
 <defs>
  <linearGradient id="innoGrad2">
   <stop stop-color="#ff8080" offset="0"/>
   <stop stop-color="#faa" offset="1"/>
  </linearGradient>
  <radialGradient id="radialGradient924-9" cx="74.797" cy="120.28" r="41.72" gradientTransform="matrix(1.6689 -.004747 .0049138 1.7276 -7.8858 -124.99)" gradientUnits="userSpaceOnUse">
   <stop stop-color="#faa" offset="0"/>
   <stop stop-color="#f55" offset="1"/>
  </radialGradient>
  <linearGradient id="linearGradient1024" x1="186.48" x2="186.68" y1="126.28" y2="122.06" gradientTransform="translate(-17.898,29.288)" gradientUnits="userSpaceOnUse" xlink:href="#innoGrad2"/>
  <linearGradient id="linearGradient1032" x1="236.44" x2="236.53" y1="125.99" y2="122.06" gradientTransform="translate(-17.898,29.288)" gradientUnits="userSpaceOnUse" xlink:href="#innoGrad2"/>
 </defs>
 <g transform="matrix(1.4074 .40341 -.40341 1.4074 -28.063 -138.51)" stroke="#000" stroke-linecap="round" stroke-linejoin="round" stroke-width=".75">
  <path d="m198.31 158.52 29.975 0.0385c2.9827-1.7972 1.8532-8.1695 0.0891-8.4462l-30.064-0.0189c-0.72102 2.5983-1.2927 5.9912 1.4e-4 8.4265z" fill="url(#linearGradient1032)"/>
  <path d="m200.88 160.94 4.6022 0.57527c6.1142 0.76427 6.3004-15.707 0.28764-15.053l-4.4104 0.47939z" fill="#fca"/>
  <path d="m191.2 142.92 11.314-1.3423c4.5703-0.54224 5.1734 25.305-0.28764 24.545l-11.026-1.5341z" fill="#ffb380"/>
  <path d="m183.72 138.41c3.3545 0.23174 4.5661 4.4339 7.4786 4.5063 2.6604 3.7143 3.4586 14.328 0 21.669-2.1144 0.37626-3.4614 5.1908-7.2868 4.7939 5.5538-10.597 4.7256-20.883-0.19175-30.969z" fill="#f95"/>
  <path d="m183.53 163.15c3.3717-5.8072 5.3241-11.782 0.0959-18.601-4.7989 6.2002-3.7021 12.4-0.0959 18.601z" fill="#ff7f2a"/>
  <path d="m183.62 138.41a7.095 15.628 0 0 0-7.0938 15.629 7.095 15.628 0 0 0 7.0938 15.627 7.095 15.628 0 0 0 7.0957-15.627 7.095 15.628 0 0 0-7.0957-15.629zm-0.24023 8.6289a2.349 6.7115 0 0 1 2.3496 6.7109 2.349 6.7115 0 0 1-2.3496 6.7129 2.349 6.7115 0 0 1-2.3477-6.7129 2.349 6.7115 0 0 1 2.3477-6.7109z" fill="#ffb380"/>
  <path d="m131.55 158.67 53.4 0.0686c0.88763-2.6476 0.80407-7.0305 0.30483-8.4462l-53.932-0.0337z" fill="url(#linearGradient1024)"/>
 </g>
 <g transform="matrix(.85738 0 0 .85738 10.446 17.692)">
  <ellipse transform="rotate(15.994)" cx="100.54" cy="104.34" rx="54.344" ry="56.847" fill="url(#radialGradient924-9)" stroke="#000" stroke-linecap="round" stroke-linejoin="round" stroke-width="1.0981"/>
  <path d="m77.947 76.569c5.9239 2.4246 13.594 7.3664 19.53 14.735 5.6292 6.9881 7.7572 13.558 9.2049 17.482 0.0812 0.22032 0.16812 0.45282 0.25978 0.69765 1.7559 4.6906 4.0226 11.021 4.5599 20.08 0.51556 8.6921-0.87306 16.525-2.3794 20.994 1.5649-4.6429 4.2889-11.641 5.4343-20.889 1.1443-9.2389 0.1431-17.048-1.5993-22.299-0.0931-0.28058-0.18605-0.54602-0.27807-0.79543-1.6379-4.4392-5.6616-11.323-12.854-17.549-7.7544-6.7126-15.825-9.9778-21.879-12.456z" fill="#fff" stroke-width="1.4641"/>
 </g>
 <path d="m114.63 133.62c4.2068 1.2058 16.693 5.2905 20.9 6.4963 4.8614 1.3934 19.579 5.1061 24.442 6.4999-4.8614-1.3934-19.311-6.0409-24.174-7.4346-4.2068-1.2058-16.961-4.3558-21.168-5.5615z" fill="#fff" stroke-width="1.4641"/>
 <path d="m207.68 160c2.4497 0.71738 9.6607 3.3398 12.11 4.0568 2.4007 0.70181 9.74 2.3378 12.141 3.0403-2.4007-0.70181-9.4637-3.2822-11.864-3.9847-2.4497-0.71738-9.937-2.3954-12.387-3.1124z" fill="#fff" stroke-width="1.4641"/>
</svg>
