<svg xmlns="http://www.w3.org/2000/svg" cursor="default" viewBox="0 0 256 256">
    <path fill="#ff8080" stroke="#000" stroke-linecap="round" stroke-width=".81192939" d="M127.799 28.872a106.42 104.45 0 0 0-106.42 104.45 106.42 104.45 0 0 0 106.42 104.451 106.42 104.45 0 0 0 106.422-104.45A106.42 104.45 0 0 0 127.799 28.871zm0 35.155a70.602 69.294 0 0 1 70.603 69.295 70.602 69.294 0 0 1-70.603 69.295 70.602 69.294 0 0 1-70.601-69.295 70.602 69.294 0 0 1 70.601-69.295z"/>
    <path fill="none" stroke="#000" stroke-width=".85737" d="M69.563 220.713c5.305-11.759 12.437-23.105 18.755-29.794M165.803 191.455c8.229 9.635 15.672 23.235 18.005 30.436"/>
    <path fill="#fff" fill-rule="evenodd" d="M131.74 34.35c30.37 2.81 53.325 15.992 68.757 34.142 20.477 22.056 29.878 53.098 26.729 83.473 4.29-30.156-3.809-62.176-24.14-85.804-16.909-18.054-40.922-30.159-71.346-31.81zM83.412 195.248c-1.551-1.094-4.224-2.757-7.64-5.527a71.33 71.33 0 0 1-11.35-11.574c-7.908-10.14-15.619-25.58-17.42-48.653 1.397 23.102 8.723 38.815 16.448 49.386 3.861 5.283 7.81 9.266 11.14 12.232 2.125 1.891 7.245 5.984 7.316 6.047zM83.605 198.125c7.37 4.81 17.499 8.047 28.099 9.78 10.629 1.737 21.83 1.978 31.397.725-9.605.877-20.736.249-31.193-1.842-10.484-2.095-20.202-5.643-27.022-10.536z"/>
</svg>
