<svg version="1.1" viewBox="0 0 64 64" xmlns="http://www.w3.org/2000/svg">
 <defs>
  <linearGradient id="linearGradient15" x1="29.5" x2="44.125" y1="1025.5" y2="1003.4" gradientTransform="matrix(1.2884 0 0 1.2905 -9.225 -1284.7)" gradientUnits="userSpaceOnUse">
   <stop stop-color="#f55" offset="0"/>
   <stop stop-color="#ff8080" offset="1"/>
  </linearGradient>
 </defs>
 <ellipse cx="32" cy="32.006" rx="30.383" ry="30.381" fill="url(#linearGradient15)" fill-rule="evenodd"/>
 <path d="m53.26 30.091-6.5694 0.01158 0.0288 2.6368-5.5418-0.08305v-2.5468l-5.9688 0.09415 0.0356 2.5058-6.1492 0.02307-0.06908-2.6022-6.3622 0.0092 3e-3 2.6645-5.9361 0.05998-0.07197-2.7152-6.0311 0.0092-0.10364 20.462 42.834 0.10297s-0.17537-16.366-0.09802-20.632zm-21.471 11.292c2.7638-0.03202 5.0467 1.2596 5.0879 3.0013 0.06989 2.9495-0.03656 5.4291-0.03656 5.4291h-9.8164s0.08392-1.6934 0.07087-5.2676c-6e-3 -1.6284 2.1023-3.1327 4.6941-3.1627z" fill="#fff" stroke-width="1.3194"/>
 <path d="m35.804 3.8484 0.01758 0.68945-3.9219 13.09-0.01953 1.9805h0.66992l0.09635 5.1054-2.0605-2.2773-4.6037 0.02404-2.0016 2.3138-1.2099 0.01182 6.87e-4 -1.4382-2.397-0.04794 0.04794 1.4382-3.8841 0.04794-2.9712 3.9307 4.3867 0.0245 0.04687 2.4434 3.6916 0.0245-0.04687-2.541 8.9155 2.39e-4 -0.02344 2.6133 3.5955-0.0245 0.02344-2.7559 8.3183 0.04794-0.04883 2.7559 3.381-0.02344-0.02539-2.8047 6.1367-0.04794-4.745-5.6566h-1.4863l-0.04883-1.3185h-2.3255v1.3654l-3.3366 0.04883-0.07422-3.2324 0.58203-2e-3 -0.07031-1.8945-3.8066-13.207 0.01367-0.68359zm0.51625 15.732c0.92299-0.0094 1.0251 0.57513 1.0443 2.5762l-2.0352-0.0332c7.86e-4 -1.9651 0.0033-2.5329 0.99086-2.543z" fill="#fff"/>
</svg>
