<svg version="1.1" viewBox="0 0 64 64" xmlns="http://www.w3.org/2000/svg" xmlns:xlink="http://www.w3.org/1999/xlink">
 <defs>
  <linearGradient id="linearGradient15" x1="29.5" x2="44.125" y1="1025.5" y2="1003.4" gradientTransform="matrix(1.2884 0 0 1.2905 -9.225 -1284.7)" gradientUnits="userSpaceOnUse">
   <stop stop-color="#f55" offset="0"/>
   <stop stop-color="#ff8080" offset="1"/>
  </linearGradient>
 </defs>
 <ellipse cx="32" cy="32.006" rx="30.383" ry="30.381" fill="url(#linearGradient15)" fill-rule="evenodd"/>
 <path d="m33.247 31.378c0.54449 6.5465-0.22191 13.093 2.3485 19.639l-7.3994 0.0676c2.376-6.6925 1.3369-13.261 1.8983-19.786" fill="#fff"/>
 <path d="m21.03 31.482c4.633 4.394 13.218 3.064 20.066-1.016 5.46-3.2412 2.9657-8.6805-5.193-8.608 5.3129-0.12512 5.875-11.442-2.629-6.502-2.886-8.727-18.348 2.56-10.387 6.238-7.71 1.88-3.815 8.032-1.857 9.888z" fill="#fff" fill-rule="evenodd"/>
 <path d="m23.796 30.899c0.194 0.097 8.3858 9.1403 8.3858 9.1403" fill="none" stroke="#fff" stroke-width="2.2"/>
 <path d="m56.786 34.559c-3.536 2.9016-10.088 2.0233-15.315-0.67092-0.78744-0.40579-1.3788-0.89242-1.7745-1.409 7.7853-3.2457 6.1487-8.2778 3.658-9.3019 1.0619-0.39743 2.2702-0.17999 4.0865 0.73288 2.2027-5.763 14.004 1.6905 7.9277 4.1193 5.8845 1.2415 2.9117 5.304 1.4173 6.5296z" fill="#fff" fill-rule="evenodd"/>
 <path d="m53.76 34.211c-0.14807 0.06406-5.0831 7.223-5.0831 7.223" fill="none" stroke="#fff" stroke-width="1.5619"/>
 <path d="m8.8341 36.668c3.1939 2.4742 9.1122 1.7253 13.833-0.57209 0.87703-0.42667 1.2695-0.81888 1.593-1.369-3.8004-1.2234-6.2994-3.505-6.9853-7.1391-1.9895-4.914-12.649 1.4415-7.1605 3.5125-5.3151 1.0586-2.63 4.5226-1.2802 5.5677z" fill="#fff" fill-rule="evenodd"/>
 <path d="m11.567 36.371c0.13374 0.05462 4.5912 6.1589 4.5912 6.1589" fill="none" stroke="#fff" stroke-width="1.3707"/>
 <path d="m32.704 38.808 5.8007-7.8621" fill="none" stroke="#fff" stroke-width="1px"/>
 <path d="m17.449 34.807c0.37237 4.651-0.15176 9.302 1.6062 13.953l-5.0604 0.04803c1.6249-4.7548 0.91427-9.4215 1.2982-14.057" fill="#fff"/>
 <path d="m49.534 34.79c0.37237 4.651-0.15176 9.302 1.6062 13.953l-5.0604 0.04803c1.6249-4.7548 0.91427-9.4215 1.2982-14.057" fill="#fff"/>
 <path d="m16.862 41.151 2.6481-5.6926" fill="none" stroke="#fff" stroke-width="1px"/>
 <path d="m47.981 38.27-5.0807-4.54" fill="none" stroke="#fff" stroke-width="1px"/>
</svg>
