<?xml version="1.0" encoding="UTF-8"?>
<svg cursor="default" version="1.1" viewBox="0 0 256 256" xmlns="http://www.w3.org/2000/svg" xmlns:cc="http://creativecommons.org/ns#" xmlns:dc="http://purl.org/dc/elements/1.1/" xmlns:rdf="http://www.w3.org/1999/02/22-rdf-syntax-ns#" xmlns:xlink="http://www.w3.org/1999/xlink">
 <metadata>
  <rdf:RDF>
   <cc:Work rdf:about="">
    <dc:format>image/svg+xml</dc:format>
    <dc:type rdf:resource="http://purl.org/dc/dcmitype/StillImage"/>
    <dc:title/>
   </cc:Work>
  </rdf:RDF>
 </metadata>
 <defs>
  <linearGradient id="innoGrad1">
   <stop stop-color="#f55" offset="0"/>
   <stop stop-color="#ff8080" offset="1"/>
  </linearGradient>
  <linearGradient id="linearGradient4234" x1="93.571" x2="92.857" y1="998.43" y2="1028.6" gradientTransform="translate(10.714,-797.79)" gradientUnits="userSpaceOnUse" xlink:href="#innoGrad1"/>
  <linearGradient id="linearGradient4248" x1="130.47" x2="158.33" y1="997.04" y2="1018.1" gradientTransform="translate(10.714,-797.79)" gradientUnits="userSpaceOnUse" xlink:href="#innoGrad1"/>
 </defs>
 <g fill-rule="evenodd" stroke="#000">
  <path d="m176.52 20.643c-1.003-0.761-2.156-2.722-2.947-1.786-7.605 10.69-17.474 23.121-36.16 27.59l7.678 4.464c17.938-7.26 27.281-17.778 31.429-30.268z" fill="#ffb380"/>
  <path d="m180.22 231.89c0.357 1.786-0.49 4.375-0.49 4.375-9.393 7.512-26.202 3.364-34.644-2.322-8.403-5.66-14-11.922-19.553-18.125z" fill="#ff7f2a"/>
  <path d="m65.268 56.179c-0.298-2.315 0.084-4.676 0.268-6.563 8.431-13.311 15.924-38.57 37.209-38.626 25.529-0.067 23.755 25.4 38.763 35.072l0.038 6.824z" fill="#ffb380"/>
  <path d="m142.22 187.02c0.063 0.316 0.757 8.145 0.757 8.145l-16.604 18.372-3.662-11.427c6.498-5.036 8.651-15.42 19.509-15.09z" fill="#ff2a2a"/>
  <path d="m127.14 202.96c5.115-5.634 7.266-12.23 17.232-16.518l0.437-11.298 33.966-134.86c0.382-5.598 0.178-11.196 1.642-16.794l-4.925-3.41c-8.166 16.905-22.822 24.055-37.123 28.664l-16.05 82.426z" fill="#f55"/>
  <path d="m143.04 190.62c-3.36 5.286-7.602 9.291-12.805 14.074l29.662 30.436c7.227-1.248 16.162 0.935 19.887-6.25 0 0 0.676-4.72-1.704-7.008-11.336-10.9-35.04-31.252-35.04-31.252z" fill="url(#linearGradient4248)"/>
  <path d="m130.92 204.19c0.367 0.39 25.661 25.527 31.315 26.706 8.954 2.084 16.983-0.484 17.615-4.23l0.442 6.25c-5.818 7.982-17.825 5.994-19.193 5.24-18.211-3.908-27.98-15.46-33.714-24.054 0.85-3.331 0.222-6.787 3.535-9.912z" fill="#f55"/>
  <path d="m84.013 193.46c-2.232-0.055-5.159-0.13-5.24 3.41-0.146 6.422 0.811 13.408-0.568 19.255-5.6 23.743 2.051 30.591 25.696 31 20.418 0.352 29.926-7.166 25.001-28.411-1.157-4.991-0.1-15.078-0.82-19.193-0.463-2.64-5.872-5.493-5.872-5.493z" fill="#ff7f2a"/>
  <path d="m78.976 185.95c-0.122 3.16-0.958 5.133 0.9 7.389 1.986 2.412 4.433 0.725 8.07 1.056z" fill="#f95"/>
  <path d="m83.214 191.71 4.465 1.429c3.54 2.993 25.143 0.442 30.178-0.357 4.262-0.391 7.445-0.69 6.295-2.813-16.578-11.85-29.95-12.098-40.938 1.741z" fill="#ff2a2a"/>
  <path d="m127.49 186.69c0.246 2.983 0.574 7.476-1.599 8.508-2.608 1.239-8.712-0.713-14.11-2.237 6.127-2.04 11.094-4.4 15.709-6.271z" fill="#f95"/>
  <path d="m65.2 55.124c3.631 66.488 11.507 63.232 12.657 80.876 1.156 17.723 0.628 34.525 0.938 51.786 0.048 2.7 3.175 4.316 5.178 3.571 6.14-2.28 10.6-7.909 17.813-7.723 6.896 0.177 13.381 4.55 21.518 7.455 2.42 0.864 4.735-1.8 4.732-4.553-0.02-16.218-1.122-32.653 0.357-48.572 1.85-19.918 13.031-33.948 13.393-49.464 0.338-14.527-0.12-26.667-0.179-40-14.111-5.07-15.048-35.386-38.297-35.24-19.86 0.125-26.36 20.99-38.11 41.864z" fill="#ff8080"/>
  <path d="m79.089 222.69c-3.364 12.375 1.946 21.46 25.443 21.719 23.217 0.255 23.852-10.56 23.36-21.655z" fill="#f55"/>
  <path d="m88.307 173.82c-0.02 5.446 28.004 4.05 28.158-0.189l1.957-53.917c0.447-12.316 12.664-17.352 12.627-27.4 0 0 0.111-22.647-0.127-33.967-3.834-10.488-18.59-33.221-22.665-33.145-5.755 0.107-7.834 0-10.964 0.105-4.062 0.135-21.262 25.842-21.676 33.04-0.265 11.573 0.378 34.724 0.378 34.724 0.106 9.695 12.54 15.124 12.501 26.264zm88.956-138.45-14.647 13.259c-3.1 2.806-8.938 30.099-13.637 45.078-1.01 3.22-0.688 15.668 0.884 19.571 1.778 4.415 2.413 8.902 1.515 13.259-2.862 13.887-12.137 43.927-13.258 48.36-2.325 9.197 7.247 3.427 10.733-0.63 4.124-27.822 11.575-87.734 32.83-138.01-1.721-2.893-3.335-1.866-4.42-0.884z" fill="#ffb380"/>
  <path d="m82.41 196.09c0.357 7.237-3.202 18.201-3.75 27.946-0.628 11.187 11.778 14.001 24.911 14.465 23.584 0.832 25.42-9.018 24.822-13.75-1.19-9.405-2.16-14.665-3.393-26.83-0.335-3.298-5.21-1.899-10.536-6.563-2.032-1.78-19.22-1.946-21.071-0.536-4.49 3.418-11.122 2.447-10.983 5.268z" fill="url(#linearGradient4234)"/>
  <path d="m90.813 171.73c-0.041 5.174 23.27 3.975 23.403-0.054l1.74-52.873c0.386-11.703 12.149-16.488 12.116-26.036 0 0 0.1-21.52-0.113-32.275-3.41-9.966-16.535-31.567-20.16-31.495-5.118 0.102-6.967 0-9.75 0.1-3.614 0.128-18.913 24.555-19.281 31.395-0.235 10.996 0.337 32.995 0.337 32.995 0.094 9.212 12.212 14.371 12.129 24.956z" fill="#faa" stroke-width=".919"/>
  <path d="m181.55 36.461c-0.787-1.94-10.457 10-15.685 15-2.872 2.745-9.205 28.415-13.313 43.27-0.854 3.09-1.1 11.76 0.394 15.468 1.689 4.194 2.56 9.528 1.707 13.667-2.72 13.193-11.977 42.98-13.042 47.193-2.208 8.736 3.76 7.094 7.071 3.24z" fill="#ff8080" stroke-width=".95"/>
 </g>
</svg>
