<svg version="1.1" viewBox="0 0 64 64" xmlns="http://www.w3.org/2000/svg">
 <g stroke="#000" stroke-linejoin="round">
  <g transform="matrix(-1.2155 0 0 1.2155 69.549 -6.3257)" fill="#c8b7b7" stroke-linecap="round" stroke-width=".25">
   <path d="m23.547 11.458c-0.28318 1.6185-2.1349 4.3984-2.1347 6.4711 3.82e-4 2.9602 1.7241 3.565 1.6692 8.9058-0.67091 0.22898-0.69472 1.2218-0.88276 1.9862l0.72226-0.27764 0.59386 1.5804 0.67411-1.6018 0.77041 0.27764c-0.17542-0.77532-0.35654-1.5449-0.86671-1.9862 0.10039-5.646 1.5368-6.0663 1.5569-8.9485 0.01492-2.1373-1.8101-4.7963-2.1026-6.4071z"/>
   <path d="m20.535 27.3c-3.3745 0.04477-2.3787 4.417 0.55134 3.9988 2.3705-0.33835 2.3094-3.0292 2.2384-4.2436-0.2289-3.9131-3.3064-6.7416-5.891-6.2532-3.7431 0.70732-3.6954 6.0774 0.06892 6.7729-0.38498-1.4606-0.29981-3.3138 1.7459-3.249 2.0718 0.06562 3.35 2.3169 3.2851 3.5739-0.15804 3.0594-3.4367 1.0258-1.9986-0.59982z"/>
   <path d="m21.538 38.235c-4.345 0.06117-3.0628 6.0352 0.70991 5.4638 3.0522-0.46231 2.9736-4.1389 2.8821-5.7983-0.29473-5.3467-4.2573-9.2114-7.5853-8.5441-4.8197 0.96645-4.7582 8.3039 0.08874 9.2542-0.4957-1.9957-0.38603-4.5278 2.248-4.4393 2.6677 0.08966 4.3135 3.1657 4.2299 4.8832-0.20349 4.1803-4.4252 1.4016-2.5734-0.81956z"/>
  </g>
  <g transform="matrix(1.2155 0 0 1.2155 -5.6836 -6.3257)" fill="#c8b7b7" stroke-linecap="round" stroke-width=".25">
   <path d="m23.547 11.458c-0.28318 1.6185-2.1349 4.3984-2.1347 6.4711 3.82e-4 2.9602 1.7241 3.565 1.6692 8.9058-0.67091 0.22898-0.69472 1.2218-0.88276 1.9862l0.72226-0.27764 0.59386 1.5804 0.67411-1.6018 0.77041 0.27764c-0.17542-0.77532-0.35654-1.5449-0.86671-1.9862 0.10039-5.646 1.5368-6.0663 1.5569-8.9485 0.01492-2.1373-1.8101-4.7963-2.1026-6.4071z"/>
   <path d="m20.535 27.3c-3.3745 0.04477-2.3787 4.417 0.55134 3.9988 2.3705-0.33835 2.3094-3.0292 2.2384-4.2436-0.2289-3.9131-3.3064-6.7416-5.891-6.2532-3.7431 0.70732-3.6954 6.0774 0.06892 6.7729-0.38498-1.4606-0.29981-3.3138 1.7459-3.249 2.0718 0.06562 3.35 2.3169 3.2851 3.5739-0.15804 3.0594-3.4367 1.0258-1.9986-0.59982z"/>
   <path d="m21.538 38.235c-4.345 0.06117-3.0628 6.0352 0.70991 5.4638 3.0522-0.46231 2.9736-4.1389 2.8821-5.7983-0.29473-5.3467-4.2573-9.2114-7.5853-8.5441-4.8197 0.96645-4.7582 8.3039 0.08874 9.2542-0.4957-1.9957-0.38603-4.5278 2.248-4.4393 2.6677 0.08966 4.3135 3.1657 4.2299 4.8832-0.20349 4.1803-4.4252 1.4016-2.5734-0.81956z"/>
  </g>
  <g transform="matrix(.87419 -.14483 .14483 .87419 13.712 1.9951)" stroke-linecap="square" stroke-width=".34294">
   <path d="m0.17678 63.823 1.3258 0.044194-0.012607-16.244-0.75072-47.643-0.5763 47.643z" fill="#808080"/>
   <path d="m0.125 45.038h1.4062c0.18652 2.3059 1.1439 4.4653 1.554 6.6967-0.48367 0.33059-3.6116 0.47948-4.2642-0.09754 0.35652-2.1883 1.2537-4.1811 1.304-6.5991z" fill="#b3b3b3"/>
  </g>
  <g transform="matrix(.79749 0 0 .79749 22.967 3.1313)" stroke-linecap="square" stroke-width=".38104">
   <path d="m6.2756 19.717c-0.075178-1.2498-0.3846-2.5714 0.30936-3.6681-0.051499-0.88092-0.55411-2.4064-1.2411-3.1157-0.32316-0.33365-0.43992-0.13583-0.82534-0.61624-0.89858-4.238 4.0007-4.089 6.7331-4.2699l0.17253 8.267c-1.3546-0.049471-2.493 0.54947-3.5576 1.37-0.74898-0.55225-1.1667 0.75874-1.591 2.0329z" fill="#4d4d4d"/>
   <path d="m4.5185 12.317c-0.25941-0.46954-1.1614-2.8741-0.29799-4.7755 3.5313-0.67728 7.019-1.3161 7.1816 0.97227-0.31856-0.17145-7.3675 0.60801-6.8836 3.8032z" fill="#999"/>
   <path d="m4.0217 7.9618c-0.15264-0.89053 2.0636-4.3728 5.469-4.4415 3.8185-0.077027 7.1541 3.3842 7.3915 3.7234 0.10654 0.15219 0.15218 0.21421 0 0.20992-2.4207-0.037614-3.9742 0.53695-5.9441 0.81759-0.67754 0.10231-1.374 0.024928-2.1103-0.43089-0.75275 0.19045-1.1259 0.090624-1.3811-0.099437-0.39775 0.30124-0.7955 0.26912-1.1932 0.011048-0.29967 0.2466-0.56577 0.22459-0.80654 0-0.27043 0.2515-0.40538 0.096551-0.56348 0.011049-0.24871 0.27653-0.39526 0.26704-0.49718 0.13258-0.090238 0.28811-0.21549 0.27863-0.3646 0.066291z" fill="#b3b3b3"/>
   <path d="m16.969 20.359c-0.84991-2.092-1.9292-4.0332-5.8906-4.0781-0.09219-0.32761-0.12084-0.8458-0.15625-1.3438 0.14844-0.2192 0.20972-0.19034 0.19848-0.74382-0.0099-0.48806-0.12578-0.52464-0.29223-0.59993l0.01563-0.3125c0.17549-0.18031 0.23237-0.04311 0.21426-0.52548-0.01262-0.33612-0.0801-0.4265-0.26113-0.49014l0.01563-0.32812c0.22702-0.14485 0.21027-0.36231 0.2004-0.56104-0.01445-0.29113-0.11538-0.55473-0.24728-0.59521l0.03125-0.3125c0.12402-0.07846 0.20567-0.22954 0.195-0.50856-0.0097-0.25446-0.0036-0.48313-0.195-0.53831v-0.25c0.54537-0.21875 0.25536-0.4375 0.03125-0.65625 1.98-1.2449 5.9031-0.47222 8.2656-0.1875-1.4606 1.2633-3.6813 5.6783-3.7188 7.7344-0.02412 1.3218 1.3993 2.471 1.5938 4.2969z" fill="#666"/>
   <path d="m10.828 8.5156c0.15027-0.40182 0.31414-0.79002 0.4375-1.2188 0.51906-0.24145 2.4163-0.66113 3-0.35938 2.315 1.1967 3.3694 1.0275 4.8281 1.3906-2.9969-0.36641-5.6417-0.074482-8.2656 0.1875z" fill="#b3b3b3"/>
  </g>
 </g>
 <g>
  <path d="m23.881 18.495c-0.68252 3.9457-2.3336 6.7614-4.3276 9.1771 3.709 6.9787-0.60758 15.977 12.362 20.602 12.97-4.6251 8.6531-13.623 12.362-20.602-1.9939-2.4157-3.645-5.2314-4.3276-9.1771-2.1586 0.51058-6.4699-0.423-8.0345-1.4375-1.5646 1.0145-5.8759 1.9481-8.0345 1.4375z" fill="#fc0" stroke="#000" stroke-linecap="round" stroke-linejoin="round" stroke-width=".30388"/>
  <path d="m20.847 28.195c3.3208 6.2483-0.54399 14.305 11.068 18.446v-18.474z" fill="#5f8dd3"/>
  <path d="m31.916 46.64c11.612-4.141 7.7475-12.197 11.068-18.446l-11.068-0.0282z" fill="#f13838"/>
  <path d="m24.722 19.978c-0.61109 3.5327-2.0894 6.0537-3.8746 8.2166l11.068-0.0282v-9.4754c-1.4009 0.90829-5.261 1.7442-7.1936 1.287z" fill="#f13838"/>
  <path d="m42.984 28.195c-1.7853-2.1629-3.2635-4.6839-3.8746-8.2166-1.9326 0.45715-5.7927-0.37872-7.1936-1.287v9.4754z" fill="#5f8dd3"/>
 </g>
 <g fill="#fc0">
  <g transform="matrix(.23061 0 0 .23061 25.383 16.547)">
   <path d="m9.7592 17.646c-0.28318 1.295-2.1349 3.5194-2.1347 5.1779 3.82e-4 2.3686 1.7241 2.8526 1.6692 7.1261-0.67091 0.18322-0.69472 0.97761-0.88276 1.5893l0.72226-0.22216 0.59386 1.2646 0.67411-1.2817 0.77041 0.22216c-0.17542-0.62038-0.35654-1.2362-0.86671-1.5893 0.10039-4.5177 1.5368-4.854 1.5569-7.1602 0.01492-1.7102-1.8101-3.8378-2.1026-5.1267z"/>
   <path d="m6.8305 28.39c-2.4897 0.03036-1.755 2.9955 0.40678 2.7119 1.7489-0.22946 1.7039-2.0543 1.6515-2.8779-0.16888-2.6538-2.4395-4.572-4.3464-4.2407-2.7617 0.47968-2.7265 4.1215 0.050847 4.5932-0.28404-0.99056-0.2212-2.2473 1.2881-2.2034 1.5286 0.0445 2.4716 1.5713 2.4237 2.4237-0.1166 2.0748-2.5356 0.69569-1.4746-0.40678z"/>
   <path d="m12.682 28.433c2.4897 0.03036 1.755 2.9955-0.40678 2.7119-1.7489-0.22946-1.7039-2.0543-1.6515-2.8779 0.16888-2.6538 2.4395-4.572 4.3464-4.2407 2.7617 0.47968 2.7265 4.1215-0.05085 4.5932 0.28404-0.99056 0.2212-2.2473-1.2881-2.2034-1.5286 0.0445-2.4716 1.5713-2.4237 2.4237 0.1166 2.0748 2.5356 0.69569 1.4746-0.40678z"/>
   <path d="m7.7458 29.051 4-0.050847c0.29313-0.0037 0.38272-0.78338-0.05085-0.77966l-3.9492 0.0339c-0.34013 0.0029-0.48574 0.80278 2e-6 0.79661z"/>
  </g>
  <g transform="matrix(.23061 0 0 .23061 23.505 19.985)">
   <path d="m9.7592 17.646c-0.28318 1.295-2.1349 3.5194-2.1347 5.1779 3.82e-4 2.3686 1.7241 2.8526 1.6692 7.1261-0.67091 0.18322-0.69472 0.97761-0.88276 1.5893l0.72226-0.22216 0.59386 1.2646 0.67411-1.2817 0.77041 0.22216c-0.17542-0.62038-0.35654-1.2362-0.86671-1.5893 0.10039-4.5177 1.5368-4.854 1.5569-7.1602 0.01492-1.7102-1.8101-3.8378-2.1026-5.1267z"/>
   <path d="m6.8305 28.39c-2.4897 0.03036-1.755 2.9955 0.40678 2.7119 1.7489-0.22946 1.7039-2.0543 1.6515-2.8779-0.16888-2.6538-2.4395-4.572-4.3464-4.2407-2.7617 0.47968-2.7265 4.1215 0.050847 4.5932-0.28404-0.99056-0.2212-2.2473 1.2881-2.2034 1.5286 0.0445 2.4716 1.5713 2.4237 2.4237-0.1166 2.0748-2.5356 0.69569-1.4746-0.40678z"/>
   <path d="m12.682 28.433c2.4897 0.03036 1.755 2.9955-0.40678 2.7119-1.7489-0.22946-1.7039-2.0543-1.6515-2.8779 0.16888-2.6538 2.4395-4.572 4.3464-4.2407 2.7617 0.47968 2.7265 4.1215-0.05085 4.5932 0.28404-0.99056 0.2212-2.2473-1.2881-2.2034-1.5286 0.0445-2.4716 1.5713-2.4237 2.4237 0.1166 2.0748 2.5356 0.69569 1.4746-0.40678z"/>
   <path d="m7.7458 29.051 4-0.050847c0.29313-0.0037 0.38272-0.78338-0.05085-0.77966l-3.9492 0.0339c-0.34013 0.0029-0.48574 0.80278 2e-6 0.79661z"/>
  </g>
  <g transform="matrix(.23061 0 0 .23061 27.244 19.953)">
   <path d="m9.7592 17.646c-0.28318 1.295-2.1349 3.5194-2.1347 5.1779 3.82e-4 2.3686 1.7241 2.8526 1.6692 7.1261-0.67091 0.18322-0.69472 0.97761-0.88276 1.5893l0.72226-0.22216 0.59386 1.2646 0.67411-1.2817 0.77041 0.22216c-0.17542-0.62038-0.35654-1.2362-0.86671-1.5893 0.10039-4.5177 1.5368-4.854 1.5569-7.1602 0.01492-1.7102-1.8101-3.8378-2.1026-5.1267z"/>
   <path d="m6.8305 28.39c-2.4897 0.03036-1.755 2.9955 0.40678 2.7119 1.7489-0.22946 1.7039-2.0543 1.6515-2.8779-0.16888-2.6538-2.4395-4.572-4.3464-4.2407-2.7617 0.47968-2.7265 4.1215 0.050847 4.5932-0.28404-0.99056-0.2212-2.2473 1.2881-2.2034 1.5286 0.0445 2.4716 1.5713 2.4237 2.4237-0.1166 2.0748-2.5356 0.69569-1.4746-0.40678z"/>
   <path d="m12.682 28.433c2.4897 0.03036 1.755 2.9955-0.40678 2.7119-1.7489-0.22946-1.7039-2.0543-1.6515-2.8779 0.16888-2.6538 2.4395-4.572 4.3464-4.2407 2.7617 0.47968 2.7265 4.1215-0.05085 4.5932 0.28404-0.99056 0.2212-2.2473-1.2881-2.2034-1.5286 0.0445-2.4716 1.5713-2.4237 2.4237 0.1166 2.0748 2.5356 0.69569 1.4746-0.40678z"/>
   <path d="m7.7458 29.051 4-0.050847c0.29313-0.0037 0.38272-0.78338-0.05085-0.77966l-3.9492 0.0339c-0.34013 0.0029-0.48574 0.80278 2e-6 0.79661z"/>
  </g>
 </g>
 <g transform="matrix(.8861 0 0 .8861 23.247 14.052)" fill="#f13838">
  <path d="m9.7592 17.646c-0.28318 1.295-2.1349 3.5194-2.1347 5.1779 3.82e-4 2.3686 1.7241 2.8526 1.6692 7.1261-0.67091 0.18322-0.69472 0.97761-0.88276 1.5893l0.72226-0.22216 0.59386 1.2646z"/>
  <path d="m6.8305 28.39c-2.4897 0.03036-1.755 2.9955 0.40678 2.7119 1.7489-0.22946 1.7039-2.0543 1.6515-2.8779-0.16888-2.6538-2.4395-4.572-4.3464-4.2407-2.7617 0.47968-2.7265 4.1215 0.050847 4.5932-0.28404-0.99056-0.2212-2.2473 1.2881-2.2034 1.5286 0.0445 2.4716 1.5713 2.4237 2.4237-0.1166 2.0748-2.5356 0.69569-1.4746-0.40678z"/>
  <path d="m7.7458 29.051 1.9994-0.02542-2.386e-4 -0.78835-1.9991 0.01716c-0.34013 0.0029-0.48574 0.80278 2e-6 0.79661z"/>
 </g>
 <g transform="matrix(.8861 0 0 .8861 23.247 14.052)" fill="#5f8dd3">
  <path d="m9.7592 17.646-0.0321 14.936 0.67411-1.2817 0.77041 0.22216c-0.17542-0.62038-0.35654-1.2362-0.86671-1.5893 0.10039-4.5177 1.5368-4.854 1.5569-7.1602 0.01492-1.7102-1.8101-3.8378-2.1026-5.1267z"/>
  <path d="m12.682 28.433c2.4897 0.03036 1.755 2.9955-0.40678 2.7119-1.7489-0.22946-1.7039-2.0543-1.6515-2.8779 0.16888-2.6538 2.4395-4.572 4.3464-4.2407 2.7617 0.47968 2.7265 4.1215-0.05085 4.5932 0.28404-0.99056 0.2212-2.2473-1.2881-2.2034-1.5286 0.0445-2.4716 1.5713-2.4237 2.4237 0.1166 2.0748 2.5356 0.69569 1.4746-0.40678z"/>
  <path d="m9.7263 29.026 2.0194-0.02567c0.29313-0.0037 0.38272-0.78338-0.05085-0.77966l-1.9603 0.01673z"/>
 </g>
 <path d="m24.649 19.85c-0.61726 3.5684-2.1105 6.1149-3.9138 8.2996 3.3543 6.3114-0.54949 14.449 11.18 18.632 11.73-4.1828 7.8257-12.32 11.18-18.632-1.8033-2.1847-3.2965-4.7312-3.9138-8.2996-1.9522 0.46176-5.8512-0.38255-7.2663-1.3-1.415 0.91747-5.3141 1.7618-7.2663 1.3z" fill="none" stroke="#000" stroke-linecap="round" stroke-linejoin="round" stroke-width=".30388"/>
 <g transform="matrix(1.0437 -.62306 .62306 1.0437 -20.718 16.287)" fill="#fc0">
  <path d="m39.086 29.448 0.0083 0.73108-0.18368-2.71e-4 -0.01198-0.19176-0.20428 2.71e-4 -0.0039 0.18732-0.20765-2.61e-4 -0.0076-0.75505z"/>
  <path d="m35.647 29.169 3.5556-0.0089v0.38352l-3.5595 0.01199z"/>
  <path d="m34.598 28.256c-0.61217 2.75e-4 -1.1091 0.4972-1.1094 1.1094-6.09e-4 0.6128 0.49658 1.1111 1.1094 1.1113 0.61342 6.1e-4 1.1119-0.4979 1.1113-1.1113-2.75e-4 -0.6128-0.49853-1.11-1.1113-1.1094zm0 0.3457c0.42249-4.15e-4 0.76544 0.34118 0.76562 0.76367 4.16e-4 0.42292-0.3427 0.76604-0.76562 0.76562-0.4225-1.89e-4 -0.76409-0.34314-0.76367-0.76562 1.89e-4 -0.42206 0.34161-0.76348 0.76367-0.76367z"/>
 </g>
 <g transform="matrix(-1.0437 -.62306 -.62306 1.0437 93.475 16.353)" fill="#fc0">
  <path d="m39.086 29.448 0.0083 0.73108-0.18368-2.71e-4 -0.01198-0.19176-0.20428 2.71e-4 -0.0039 0.18732-0.20765-2.61e-4 -0.0076-0.75505z"/>
  <path d="m35.647 29.169 3.5556-0.0089v0.38352l-3.5595 0.01199z"/>
  <path d="m34.598 28.256c-0.61217 2.75e-4 -1.1091 0.4972-1.1094 1.1094-6.09e-4 0.6128 0.49658 1.1111 1.1094 1.1113 0.61342 6.1e-4 1.1119-0.4979 1.1113-1.1113-2.75e-4 -0.6128-0.49853-1.11-1.1113-1.1094zm0 0.3457c0.42249-4.15e-4 0.76544 0.34118 0.76562 0.76367 4.16e-4 0.42292-0.3427 0.76604-0.76562 0.76562-0.4225-1.89e-4 -0.76409-0.34314-0.76367-0.76562 1.89e-4 -0.42206 0.34161-0.76348 0.76367-0.76367z"/>
 </g>
 <g transform="matrix(-.87419 -.14483 -.14483 .87419 50.195 1.9951)" stroke="#000" stroke-linecap="square" stroke-linejoin="round" stroke-width=".34294">
  <path d="m0.17678 63.823 1.3258 0.044194-0.012607-16.244-0.75072-47.643-0.5763 47.643z" fill="#808080"/>
  <path d="m0.125 45.038h1.4062c0.18652 2.3059 1.1439 4.4653 1.554 6.6967-0.48367 0.33059-3.6116 0.47948-4.2642-0.09754 0.35652-2.1883 1.2537-4.1811 1.304-6.5991z" fill="#b3b3b3"/>
 </g>
 <g transform="matrix(1.2688 0 0 1.2155 -7.3632 -6.2249)" stroke="#000" stroke-linecap="round" stroke-linejoin="round" stroke-width=".25">
  <path d="m38.67 50.852c5.3252 0.84642 10.111 2.5306 14.123 5.3817-0.54016-1.1785-0.29751-1.607-1.4644-2.7855 1.3589 0.07027 2.02 0.1547 3.3266 0.48679-4.1357-3.5777-9.8694-5.4925-15.323-6.5964z" fill="#e9c6af"/>
  <path d="m40.924 46.146-1.7015 0.7513-0.55243 3.9554c0.34901-0.81839 0.90206-1.178 1.7236-1.3921z" fill="#c87137"/>
  <path d="m23.379 50.852c-5.3252 0.84642-10.111 2.5306-14.123 5.3817 0.54016-1.1785 0.29751-1.607 1.4644-2.7855-1.3589 0.07027-2.02 0.1547-3.3266 0.48679 4.1357-3.5777 9.8694-5.4925 15.323-6.5964z" fill="#e9c6af"/>
  <path d="m21.125 46.146 1.7015 0.7513 0.55243 3.9554c-0.34901-0.81839-0.90206-1.178-1.7236-1.3921z" fill="#c87137"/>
  <path d="m21.655 49.46c6.7398-1.396 12.66-1.473 18.738 0l0.7955-3.403c-4.9027-1.1774-13.361-1.1046-20.064 0.08839-0.11393 0.77546 0.08579 2.3704 0.53033 3.3146z" fill="#e9c6af"/>
 </g>
 <g fill="none" stroke="#000" stroke-linecap="round" stroke-linejoin="round">
  <path d="m9.4301 58.471-0.91789-2.1384s1.0048-0.58078 1.2547-0.03695c0.24248 0.52772-0.78287 1.0359-0.78287 1.0359s1.0509-0.57402 1.3566 0.12819c0.27731 0.63704-0.91051 1.0112-0.91051 1.0112z" stroke-width=".33229"/>
  <path d="m45.634 53.555c0.19947-0.79072-1.0226-1.0881-1.2294-0.30724-0.19731 0.74543 1.1643 0.5022 0.99578 1.3092-0.19218 0.92038-1.5013 0.55626-1.2743-0.22269" stroke-width=".33229"/>
  <path d="m47.679 55.916 0.55396-2.2734s1.1455 0.13601 0.98357 0.76714c-0.16597 0.64684-1.2026 0.38502-1.2026 0.38502" stroke-width=".33229"/>
  <g transform="matrix(1.2152 -.028758 .028758 1.2152 -7.0335 -5.3265)" stroke-width=".27338">
   <path d="m46.681 50.358-0.94258-0.30451-0.58274 1.8049 0.94845 0.31542"/>
   <path d="m45.487 50.969 0.4837 0.16982"/>
  </g>
  <g transform="matrix(1.2141 .059444 -.059444 1.2141 -.95834 -8.6828)" stroke-width=".27338">
   <path d="m48.201 52.893 0.62409-1.8766"/>
   <path d="m48.248 50.805 1.216 0.40439"/>
  </g>
  <g transform="matrix(1.2094 .12148 -.12148 1.2094 2.5814 -11.449)" stroke-width=".27338">
   <path d="m50.615 51.684-0.94261-0.30442-0.58274 1.8049 0.94845 0.31542"/>
   <path d="m49.421 52.295 0.4837 0.16982"/>
  </g>
  <g stroke-width=".33229">
   <path d="m12.159 57.268c1.0586-0.2947 0.33763-2.5655-0.64131-2.2929-0.9981 0.27802-0.3485 2.5684 0.64131 2.2929z"/>
   <path d="m14.122 56.517-0.62918-2.3498 1.7285 2.0819-0.6424-2.3576"/>
   <path d="m17.122 55.708c1.0775-0.21575 0.52608-2.5336-0.47031-2.3339-1.0159 0.20358-0.53713 2.5357 0.47031 2.3339z"/>
   <path d="m25.405 52.152-0.25074-2.3709 0.9863 1.4135 0.71403-1.5744 0.2611 2.3908"/>
  </g>
  <g transform="matrix(1.1623 .35549 -.35549 1.1623 25.986 -14.16)" stroke-width=".27338">
   <path d="m18.011 51.36-0.25841-2.0017 1.242 1.6254"/>
   <path d="m17.945 50.539 0.54514-0.18449"/>
  </g>
  <g stroke-width=".33229">
   <path d="m32.858 51.826-1.3614-0.0092-0.0156-2.4614"/>
   <path d="m34.341 49.466c-0.05661 1.6439-0.15887 2.3287 0.547 2.3685 0.70123 0.03945 0.61599-0.69165 0.6573-2.3364"/>
   <path d="m36.874 51.917 0.24578-2.3714 0.67214 1.5871 1.0246-1.3923-0.23977 2.393"/>
   <path d="m46.283 53.137c-0.37742 1.601-0.6118 2.2526 0.07262 2.4298 0.67993 0.176 0.7395-0.55764 1.1021-2.1625"/>
   <path d="m51.047 56.969 0.74908-2.2168s1.0485 0.20364 0.83302 0.81862c-0.2209 0.63026-1.1554 0.30865-1.1554 0.30865l0.63483 1.438"/>
  </g>
  <g transform="matrix(.87184 .84694 -.84694 .87184 80.321 -2.5358)" stroke-width=".27338">
   <path d="m18.011 51.36-0.25841-2.0017 1.242 1.6254"/>
   <path d="m17.945 50.539 0.54514-0.18449"/>
  </g>
 </g>
</svg>
