<svg version="1.1" viewBox="0 0 64 64" xmlns="http://www.w3.org/2000/svg">
 <path d="m31.14 60.058c-3.1116-0.15308-6.1688-0.37147-6.7797-3.5254 0.86826-3.2804 0.07536-6.9926-7.661-12.61-1.5172-1.1017-3.0218-10.952-2.3729-16.068 2.1788-0.02971 1.9129 2.7159 2.1017 5.6271 1.2528 5.9808 3.6793 8.5188 6.8475 8.8814 0.56464-1.5031-5.1465-6.1759-2.5434-8.0596 2.67 2.3584 5.1125 6.291 8.984 10.026 2.0283 1.9302 0.95355 4.5905 1.0169 6.983z" fill="#808080" stroke="#000" stroke-linecap="round" stroke-linejoin="round" stroke-width=".5"/>
 <path d="m32.86 59.809c3.1116-0.15308 6.1688-0.37147 6.7797-3.5254-0.86825-3.2804-0.0754-6.9926 7.661-12.61 1.5172-1.1017 3.0218-10.952 2.3729-16.068-2.1788-0.02971-1.9129 2.7159-2.1017 5.6271-1.2528 5.9808-3.6793 8.5188-6.8475 8.8814-0.56465-1.5031 5.1465-6.1759 2.5434-8.0596-2.67 2.3584-5.1125 6.291-8.984 10.026-2.0283 1.9302-0.95355 4.5905-1.017 6.983z" fill="#808080" stroke="#000" stroke-linecap="round" stroke-linejoin="round" stroke-width=".5"/>
 <g fill-rule="evenodd" stroke="#000" stroke-width=".52345">
  <path d="m21.587 24.046v-4.7726l10.175-7.0102 10.607 6.6968v5.1226l-10.602-7.0803z" fill="#ff8080"/>
  <path d="m21.631 15.788v-4.773l10.174-7.0102 10.608 6.6968v5.1226l-10.602-7.0803z" fill="#ffd5d5"/>
  <path d="m21.543 32.304v-4.7726l10.175-7.0102 10.607 6.6968v5.1226l-10.602-7.0803z" fill="#ff2a2a"/>
 </g>
</svg>
