<svg xmlns="http://www.w3.org/2000/svg" viewBox="0 0 64 64">
    <g fill-rule="evenodd">
        <path fill="#333" stroke="#000" d="M63.091 35.952l-62.09-.31.177-6.805 62.005.442z"/>
        <path fill="#333" stroke="#000" d="M33.75 29.853c5.775-3.475 10.84-7.661 17.367-10.386 1.812-.756 5.358 21.812 3.978 21.479-6.16-1.486-13.906-4.817-21.169-7.248L12.801 44.614c-1.89.977-1.164-14.334-1.768-21.523-.29-3.447 15.174 4.302 22.716 6.762z"/>
        <path fill="#4d4d4d" stroke="#000" d="M31.23 29.234c-5.521-3.591-10.488-7.57-18.296-9.06-1.293-.246-3.075 22.603-1.768 22.805 9.662 1.49 15.678-7.454 22.097-7.867 5.724 3.282 9.955 7.782 19.445 7.292 1.823-.094 1.092-22.075.045-22.008-13.092.832-13.165 6.799-18.827 10.562z"/>
        <path d="M30.086 31.916c-4.395.126-8.947-.13-13.307.765 4.386-.562 8.877.028 13.297.235zM37.62 33.566c2.924-.858 5.589-2.641 8.194-3.978-2.844 1.078-5.514 2.493-8.423 3.005z"/>
        <path d="M37.787 34.02c3.572-.28 6.28 1.46 8.734 4.009-2.142-2.698-4.805-4.968-8.766-5.008z"/>
        <path fill="#808080" stroke="#000" d="M30.788 27.997c-.473 2.57-.457 5.195-1.281 8 2.248.606 4.49 1.236 6.982.927 1.004-2.795 1.175-4.833.884-6.452-1.09-1.312-3.727-2.106-6.585-2.475z"/>
    </g>
</svg>
