<svg xmlns="http://www.w3.org/2000/svg" viewBox="0 0 64 64">
    <g fill-rule="evenodd">
        <path fill="#d39a5f" stroke="#000" d="M40.056 46.25c-9.02 4.775-18.735 6.974-27.435 10.996-2.562 1.147-.725 4.626 1.316 3.75 10.197-4.508 15.944-8.067 26.824-12.804 8.49 3.417 12.856.819 15.67-.731 7.298-4.02 2.518-12.85-5.221-11.239-2.973.62-8.859 2.626-11.154 10.028z"/>
        <path fill="#666" stroke="#000" d="M9.639 36.055c-.472.16-.762.597-.974 1.08l-3.025 6.87c-.395.898-.376 1.581.827 2.172 3.386 1.663 7.658 4.771 9.872 5.106 2.975.45 5.369-1.182 7.752-2.342l14.333 5.812.783 1.698 11.733 4.847c2.594 1.071 3.858-2.655 1.817-3.534L40.981 52.69l-1.851.404-14.114-5.999c-.892-2.558-1.947-6.622-3.347-7.198-4.792-1.972-7.128-2.46-10.96-3.783-.437-.151-.787-.154-1.07-.058zm1.945 2.702l7.955 3.398c1.151.492.307 1.522-.496 1.168l-8.003-3.537c-1.006-.444-.22-1.356.544-1.029zm-1.002 2.54l7.916 3.431c1.149.498.307 1.521-.496 1.167l-7.976-3.512c-1.123-.495-.11-1.375.556-1.086zm-1.27 2.799l7.955 3.398c1.151.492.288 1.567-.514 1.21l-7.98-3.564c-1.004-.449-.234-1.375.539-1.044z"/>
        <path fill="#f9f9f9" stroke="#000" stroke-width=".6626610000000001" d="M21.036 23.992c-10.085-4.18-13.454-9.683-6.085-17.3 4.554-5.567 7.243-2.837 9.712-2.99 7.061-4.15 13.134.454 15.564 2.463 5.764.282 9.624 2.552 11.643 6.744 9.502 9.891 1.721 12.505-6.845 11.318z"/>
        <path d="M21.354 21.64c-2.191-.927-3.101-2.402-3.595-3.102.271.753 1.048 2.494 3.309 3.7zM29.732 20.219c-2.877-2.25-5.19-5.642-4.894-10.19-.519 4.552 1.588 8.157 4.47 10.7zM37.117 20.577c1.194-3.277 2.287-6.994 2.466-10.483-.397 3.454-1.698 7.083-3.081 10.236zM43.637 22.184c2.381-1.166 4.34-2.798 5.893-4.408-1.714 1.458-3.769 2.873-6.16 3.802zM45.38 22.852c2.036-.5 4.017-1.076 5.788-2.202-1.861.923-3.874 1.276-5.912 1.55zM51.695 12.63l-.305.13c.386.621.48 1.417.422 2.318.267-.819.435-1.716.188-2.577l-.305.13zM40.32 5.785c-1.022.378-1.734 1.24-2.2 2.08.671-.746 1.475-1.323 2.366-1.438zM24.19 3.93c.05.008.163.13.27.277.109.152.224.344.33.541.105.197.2.4.273.576.071.174.124.331.138.432.041-.101.044-.273.023-.472a4.866 4.866 0 0 0-.125-.655 7.33 7.33 0 0 0-.198-.65 2.403 2.403 0 0 0-.232-.506zM15.243 6.37l-.295-.15c-1.297 2.8-1.821 6.835.178 9.504-1.79-2.754-1-6.664.413-9.204l-.296-.15z"/>
        <path fill="#f9f9f9" stroke="#000" stroke-width=".6626610000000001" d="M20.644 37.135c6.814 2.017 14.12 3.572 23.996-.498l.58-14.347c-9.114-2.685-17.03-2.43-24.162-.249z"/>
    </g>
</svg>
