<svg version="1.1" viewBox="0 0 64 64" xmlns="http://www.w3.org/2000/svg">
 <path d="m33.667 10.798-1.0414 1.6865c-1.2095-0.56171-2.2531-0.49217-3.1853 0l-1.0614-1.6241-1.4578 0.02141 1.4373 2.3525c-1.0445 2.1358-0.8109 3.7604 0.08292 5.1211l-1.5403 2.311 1.5612 0.02051 0.97812-1.6027c1.2804 0.40613 2.1992 0.22513 3.04-0.08292l1.0619 1.6651 1.4984-0.0624-1.4984-2.3525c1.1992-1.7346 0.99323-3.393 0.14534-5.0169l1.5612-2.4363zm-2.7167 2.5322a2.0592 2.4132 0 0 1 2.0592 2.4118 2.0592 2.4132 0 0 1-2.0596 2.4136 2.0592 2.4132 0 0 1-2.0587-2.4132 2.0592 2.4132 0 0 1 2.0592-2.4122z" fill="#fc0" fill-rule="evenodd" stroke="#000" stroke-linecap="round" stroke-linejoin="round" stroke-width=".5"/>
 <g fill="#afe9c6" stroke="#000" stroke-linecap="round" stroke-linejoin="round" stroke-width=".5">
  <path d="m7.152 55.964-0.067798-16.477 7.3347-2e-6 0.0596 16.463z"/>
  <path d="m17.709 55.912-1e-6 -23.257 7.3347-2e-6 0.02567 23.209z"/>
  <path d="m27.73 55.767-1e-6 -20.409 7.3347-2e-6 -0.0082 20.395z"/>
  <path d="m38.287 55.715-0.13559-29.697 7.3347-2e-6 0.16126 29.649z"/>
  <path d="m48.873 55.64-0.0678-40.477 7.3347-2e-6 0.09347 40.429z"/>
 </g>
 <path d="m10.553 34.655 10.644-9.2881 9.7627 4.1356 11.363-10.521 11.213-9.6146" fill="none" stroke="#373e48" stroke-linecap="round" stroke-linejoin="round"/>
 <path d="m50.858 9.4011 2.678-0.033898-1e-6 2.7119" fill="none" stroke="#373e48" stroke-linecap="round" stroke-linejoin="round"/>
</svg>
