<svg cursor="default" version="1.1" viewBox="0 0 256 256" xmlns="http://www.w3.org/2000/svg" xmlns:xlink="http://www.w3.org/1999/xlink">
 <defs>
  <linearGradient id="linearGradient4590" x1="157.86" x2="153.21" y1="193.86" y2="172.07" gradientTransform="matrix(1.2155,0,0,1.2155,-29.035,-14.338)" gradientUnits="userSpaceOnUse">
   <stop stop-color="#f55" offset="0"/>
   <stop stop-color="#ff2a2a" offset="1"/>
  </linearGradient>
 </defs>
 <g fill-rule="evenodd">
  <g stroke="#000" stroke-width="1.216">
   <path d="m63.054 213.03c6.66-4.037 6.47-10.417 5.525-22.407-0.745-9.456 3.803-16.217 5.065-25.478 0.587-4.313 7.138-6.555 8.441-13.813 1.09-6.068 2.02-9.558 1.228-14.12-0.478-2.753-0.991-5.543-0.484-8.049 0.492-2.427 2.008-5.336 1.405-8.067-1.02-4.624-1.032-6.872 0.153-9.67 1.925-4.54-1.43-9.28 1.164-15.086 4.7-10.525 9.286-15.21 15.259-21.749 4.164-4.56 8.689-10.572 13.58-14.376 3.39-2.636 7.117-3.094 10.363-5.883 4.84-4.16 12.617-6.466 14.427-12.586 2.667-9.02 8.344-24.803 9.823-26.705 3.419-4.398 4.877-3.521 4.45 0.92-1.386 14.464 1.577 35.526-2.255 49.486-2.726 9.932-3.48 17.948-5.572 26.948-0.888 3.818-3.325 5.96-5.832 7.367 6.092 3.48 5.751 8.077 7.367 15.348 0 0 0.48 11.91 3.684 16.576 2.68 3.906 4.661 13.154 5.525 13.506 3.379 1.38 2.103 4.668 3.99 6.447 2.883 2.716 1.862 6.173 3.377 8.901 5.143 9.26 20.079 20.859 11.818 23.023z" fill="#ff8080"/>
   <path d="m4.174 232.8c51.226-13.819 156.87-45.87 240.28-66.853-44.537 64.264-68.747 63.281-126.58 66.906-33.013 2.069-76.596 1.294-113.7-0.053z" fill="url(#linearGradient4590)"/>
   <path d="m135.19 199.06c37.551-10.641 68.646-20.538 111.43-32.077 7.139-1.926 5.443-7.966-5.372-7.52-8.634 0.355-72.136 25.221-106.06 39.597z" fill="#f55"/>
   <path d="m4.174 232.91c11.715 2.498 25.763-6.876 54.346-12.78 39.113-8.078 92.272-23.36 139.05-45.933-53.1 19.168-52.042 8.808-98.22 22.414-15.827 4.664-38.723 16.783-58.135 23.932-21.84 8.044-40.282 11.675-37.04 12.367z" fill="#ff8080"/>
   <path d="m68 202.59c16.65-6.989 26.043-10.877 42.283-14.211 22.533-4.627 50.088-6.228 68.97-10.544-4.138-8.494-12.335-14.226-15.517-21.34 0 0-41.108 6.164-59.108 9.894-13.5 2.799-35.39 9.694-35.39 9.694-3.493 8.323-2.577 17.38-1.239 26.507z" fill="#faa"/>
   <path d="m119.06 159.03c-9.8 1.302-19.6 3.182-29.4 6.147-0.915 13.643 1.9 21.93 3.688 31.726a337.08 337.08 0 0 0 30.131-6.761c-0.982-10.469-2.253-20.88-4.419-31.112zm-3.2 3.525c1.92 8.122 3.07 16.502 3.561 25.1l-8.853 2.062-0.319-1.329-5.032 1.134 0.287 1.197-8.837 2.172c-2.265-8.448-2.965-16.896-3.598-25.344l8.92-1.995 0.198 1.115 4.357-0.792-0.12-1.253z" fill="#d4aa00"/>
  </g>
  <path d="m74.387 164.29c3.856-2.64 8.34-4.874 12.92-6.16-4.683 0.894-9.39 2.768-13.562 5.128zm9.473-24.115c0.677-0.01 1.653-0.053 2.572-0.21 0.927-0.16 1.813-0.438 2.287-0.904-0.564 0.283-1.449 0.344-2.325 0.297-0.884-0.047-1.79-0.207-2.37-0.388zm0.945-16.474c0.925-0.698 2.652-1.246 4.51-1.636a41.984 41.984 0 0 1 4.987-0.707c-1.256-0.1-3.182-0.084-5.08 0.106-1.86 0.186-3.817 0.55-5.058 1.204zm0.156-13.806c3.482-0.06 7.347 0.11 11.57-1.036-4.265 0.732-8.067 0.148-11.517-0.205zm55.194-10.642c-2.8-0.283-5.758-0.295-8.57 0.164 2.837-0.055 5.723 0.368 8.361 1.033zm16.747 45.529c-2.105-0.848-4.673-0.3-6.65-0.109 2.2 0.213 4.441 0.114 6.102 1.194zm3.009 6.728-0.093-0.6c-1.66 0.465-3.385 0.612-5.225 0.817 1.784 0.2 3.597 0.462 5.41 0.384l-0.092-0.6zm-37.306-94.981c4.49-1.695 11.243-2.105 15.71-1.5-4.38-1-11.261-1.035-16.09 0.346zm-7.95 76.858c4.465 0.094 9.227 0.132 13.821-0.468 4.186-0.841 8.16-2.21 11.575-4.525-3.56 2.046-7.585 3.097-11.723 3.622-4.484 0.89-9.19 1.16-13.673 1.37zm-19.318 17.58c2.492-0.994 5.011-1.964 7.555-2.874 8.477-2.233 17.115-3.815 25.872-3.637-8.737 0.178-17.27 2.11-25.579 4.665-2.628 0.564-5.244 1.19-7.848 1.847zm51.443-35.813 0.197-0.575c-7.069-2.22-14.178-0.976-21.035 0.14 7.035-0.731 13.954-1.508 20.64 1.01l0.197-0.575z"/>
  <path d="m90.926 166.1c9.292-1.991 14.695-3.322 26.123-4.83l0.434-0.07c1.15 5.167 3.76 17.94 4.76 27.87-0.667-10.34-3.07-23.765-3.782-28.607a0.536 0.566 82.141 0 0-0.629-0.45c-0.322 0.041-0.64 0.083-0.952 0.125-11.416 1.891-16.778 3.605-25.954 5.962z" fill="#fff6d5"/>
 </g>
</svg>
