<svg cursor="default" version="1.1" viewBox="0 0 256 256" xmlns="http://www.w3.org/2000/svg">
 <g stroke="#000" stroke-linecap="round" stroke-linejoin="round" stroke-miterlimit="10">
  <ellipse cx="128.24" cy="128.11" rx="126.83" ry="126.54" fill="#ffe680"/>
  <ellipse cx="128.24" cy="128.11" rx="114.14" ry="113.89" fill="#fea" stroke-width=".9"/>
  <g stroke-width=".75">
   <g transform="matrix(.80679 -.072049 .072049 .80679 229.53 24.136)">
    <path d="m-218.44 115.66s-14.974 1.5487-17.574 0.11909c-7.7231-4.2462-15.229-17.181-10.358-24.526 2.2992-3.4674 9.9454 0.13528 11.228-1.4614 1.0862-1.3521-3.2857-6.8717 3.8227-11.962 10.372-7.4281 22.176 8.8268 21.559 17.763 42.422 27.328 84.831 55.046 127.61 72.179 13.357 5.3501 22.3-3.5944 33.48-2.8912 11.222 0.70589 10.051 7.014 10.034 12.068-0.01142 3.2876-1.266 7.6146-2.8336 8.6869-3.6309 2.4836-10.276-1.047-8.1988 1.2869 11.044 12.41 10.79 23.518 8.5191 26.394-7.2827 9.2238-26.393 8.9053-28.475 1.7627-1.2643-4.3388-0.0079-9.7627-0.12878-13.913-0.22662-7.7777-11.688-9.2838-16.509-12.355-55.387-35.285-83.841-51.87-132.17-73.151z" fill="#ffb380"/>
    <g fill="#ff7f2a">
     <path d="m-73.763 187.8c9.7883 2.7628 14.537 8.4466 12.746 17.356-0.29531-10.885-6.5879-14.034-12.746-17.356z"/>
     <path d="m-50.241 186.01c-0.13424-3.2961 2.2963-4.8824 4.2187-6.8074-0.7299 2.2522-2.5815 3.5696-2.0135 6.9033z"/>
     <path d="m-227.7 89.822c-0.35111 7.3894-3.8554 10-12.544 8.5366 10.194-0.01122 10.528-4.0145 12.544-8.5366z"/>
    </g>
   </g>
   <g transform="matrix(-.49935 .63777 -.63777 -.49935 149.39 316.42)">
    <path d="m-218.44 115.66s-14.974 1.5487-17.574 0.11909c-7.7231-4.2462-15.229-17.181-10.358-24.526 2.2992-3.4674 9.9454 0.13528 11.228-1.4614 1.0862-1.3521-3.2857-6.8717 3.8227-11.962 10.372-7.4281 22.176 8.8268 21.559 17.763 42.422 27.328 84.831 55.046 127.61 72.179 13.357 5.3501 22.3-3.5944 33.48-2.8912 11.222 0.70589 10.051 7.014 10.034 12.068-0.01142 3.2876-1.266 7.6146-2.8336 8.6869-3.6309 2.4836-10.276-1.047-8.1988 1.2869 11.044 12.41 10.79 23.518 8.5191 26.394-7.2827 9.2238-26.393 8.9053-28.475 1.7627-1.2643-4.3388-0.0079-9.7627-0.12878-13.913-0.22662-7.7777-11.688-9.2838-16.509-12.355-55.387-35.285-83.841-51.87-132.17-73.151z" fill="#ffb380"/>
    <g fill="#ff7f2a">
     <path d="m-73.763 187.8c9.7883 2.7628 14.537 8.4466 12.746 17.356-0.29531-10.885-6.5879-14.034-12.746-17.356z"/>
     <path d="m-50.241 186.01c-0.13424-3.2961 2.2963-4.8824 4.2187-6.8074-0.7299 2.2522-2.5815 3.5696-2.0135 6.9033z"/>
     <path d="m-227.7 89.822c-0.35111 7.3894-3.8554 10-12.544 8.5366 10.194-0.01122 10.528-4.0145 12.544-8.5366z"/>
    </g>
   </g>
   <g transform="matrix(.81 0 0 .81 24.079 17.288)">
    <path d="m102.17 48.217c-3.7178-14.302-11.625-24.068-18.599-28.876-0.73874-0.50926-3.3366 2.4408-4.0483 2.0434-0.81376-0.45446 0.26378-4.2392-0.49754-4.5461-2.4129-0.97259-4.5167-1.2001-6.0215-0.65866-13.173 4.7401-21.508 17.704-23.765 32.03-0.13991 0.88805 4.7605 1.4424 4.6676 2.3392-0.09123 0.88074-5.1766 2.1039-5.2219 2.99-0.15416 3.0135-0.04128 6.0493 0.34964 9.0463 0.18498 1.4182 4.6435 1.2154 5.665 3.1268 0.8119 1.5193-1.0643 3.8101 0.1431 5.4178 0.91368 1.2166 2.8051 0.80305 3.886 1.9708 0.61177 0.66091 0.36488 2.9343 1.0174 3.558 0.82888 0.79235 1.4696 1.8661 2.1285 2.8899 0.32585 0.5063 3.7748-2.7962 4.1345-2.3544 0.3777 0.46389-2.3308 4.6667-1.8594 4.9689 1.9777 1.2676 4.0031 2.2111 5.9782 2.6661 5.8676 1.3517 17.02-6.4018 17.02-6.4018z" fill="#ff8080"/>
    <path d="m155.73 51.742c1.7698-6.8082 4.489-12.589 7.605-17.296 0.5482-0.82811 4.2727 2.4039 4.8424 1.6425 0.66587-0.88986-1.8196-5.7609-1.1332-6.5589 0.33013-0.38382 2.292 1.1606 2.6252 0.79818 0.4842-0.52664-0.65884-2.9482-0.17087-3.4295 5.9768-5.8946 12.114-8.3756 15.398-7.1939 13.116 4.7198 21.436 17.593 23.736 31.845 0.47644 2.9533-1.7985 4.8153-1.85 7.8267-0.0158 0.92265-6.2698 1.2657-6.1232 2.376 0.14993 1.1354 6.6994 3.0381 6.5774 3.974-0.16986 1.3022-1.6047 2.1284-2.4879 3.86-0.57749 1.1323 1.2048 3.4743 0.38651 4.6824-0.58313 0.86091-1.2209 1.7303-1.9043 2.5926-0.4791 0.60464-9.8734-3.636-10.394-3.0436-0.55358 0.62989 7.7639 6.0918 7.1707 6.6955-3.6904 3.7559-8.0739 6.882-12.234 7.8404-5.8676 1.3517-17.02-6.4018-17.02-6.4018z" fill="#ff8080"/>
    <path d="m55.302 41.685c4.694-12.548 24.434-41.166 38.508 11.661-2.8764 16.398-18.186 25.903-21.831 22.373 4.4273-19.396 16.153-7.6018 17.085-22.508 0.52205-8.3482-5.458-22.89-13.424-22.102-10.082 0.99746-20.339 10.576-20.339 10.576z" fill="#f55"/>
    <path d="m202.6 45.211c-4.694-12.548-24.434-41.166-38.508 11.661 2.8764 16.398 18.186 25.903 21.831 22.373-4.4273-19.396-16.153-7.6018-17.085-22.508-0.52205-8.3482 5.458-22.89 13.424-22.102 10.082 0.99746 20.339 10.576 20.339 10.576z" fill="#f55"/>
   </g>
  </g>
  <path d="m126.73 39.187c-6.5219-0.13477-12.421 5.6147-20.742 9.5823-3.9508 1.8838-8.6135 9.2421-8.5431 12.27 0.03742 1.605 0.17102 3.4028 1.6311 5.2033 0-1e-6 -1.0517 5.69-2.4079 8.5431-2.2793 4.795-7.3004 5.6967-7.6887 21.047 1.1971-1.4092 2.1893-0.76504 3.1846-0.15662 0.27-6.2118 1.8372-10.607 4.504-10.867 2.5803-0.25149 4.1156 3.3067 7.5874 5.7618 3.8894 2.7503 6.0837 1.1536 12.449 6.1161-0.67704 2.9776-4.1915 5.6574-4.8236 7.2805-0.99371 2.5517 1.0913 0.65392-0.73407 3.3365-2.5335 3.7234-6.831 3.9504-10.478 4.8347-3.2572 0.78976-5.9009 2.4648-7.8057 1.8652-2.4623-0.77503-2.919-3.0418-6.2918-3.6498 1.3326 11.272 6.1684 8.5641 13.669 12.193 4.3102 2.0854 6.6514 7.5201 9.4746 11.65 0.402 2.8006-0.31638 4.9077 4.1939 10.251 0.45928 8.1494-0.6693 15.77 2.7085 19.725 2.6755 3.1328 6.7643 1.8782 11.116 9.9411 4.351-8.0632 8.4402-6.8088 11.116-9.9411 3.3777-3.9551 2.2491-11.576 2.7085-19.725 4.5103-5.3439 3.7919-7.451 4.1939-10.251 2.8233-4.13 5.1645-9.5645 9.4746-11.65 7.5004-3.629 12.336-0.92081 13.669-12.193-3.3728 0.60795-3.8294 2.8747-6.2918 3.6498-1.9048 0.59958-4.5469-1.0754-7.8042-1.8652-3.6469-0.88419-7.9459-1.1113-10.48-4.8347-1.8253-2.6826 0.25965-0.7848-0.73406-3.3365-0.63208-1.6231-4.1466-4.303-4.8236-7.2805 6.3653-4.9625 8.5593-3.3659 12.449-6.1161 3.4718-2.455 5.0071-6.0133 7.5874-5.7618 2.6668 0.25992 4.234 4.6552 4.504 10.867 0.99533-0.60842 1.9875-1.2527 3.1846 0.15662-0.38831-15.35-5.4093-16.253-7.6887-21.047-1.3562-2.853-2.4079-8.5431-2.4079-8.5431 1.46-1.8005 1.5937-3.5983 1.6311-5.2033 0.0707-3.0283-3.9705-10.387-7.9212-12.27-8.876-4.2322-14.997-10.492-22.056-9.4746-0.44123-0.06356-0.87828-0.09859-1.3131-0.10758zm-15.73 78.939a2.0868 2.9105 66.271 0 1 2e-3 0 2.0868 2.9105 66.271 0 1 2.1231 1.0679 2.0868 2.9105 66.271 0 1-1.8241 3.0818 2.0868 2.9105 66.271 0 1-3.5042-0.74038 2.0868 2.9105 66.271 0 1 1.8241-3.0802 2.0868 2.9105 66.271 0 1 1.3795-0.32907zm34.18 0.55055a2.9105 2.0868 23.729 0 1 1.6517 0.32748 2.9105 2.0868 23.729 0 1 1.8241 3.0818 2.9105 2.0868 23.729 0 1-3.5042 0.73881 2.9105 2.0868 23.729 0 1-1.8241-3.0818 2.9105 2.0868 23.729 0 1 1.8526-1.0663zm-18.378 10.396c0.0468 2.1745 0.0432 4.3498 0.3876 6.5243-1.3984 0.42561-2.1544 2.7762-2.9505 5.0087-0.10356-3.8056-0.20654-7.9258-0.31008-11.066 0 0 0.5998 1.7221 1.3194 1.7086 0.89059-0.0167 1.5536-2.1753 1.5536-2.1753zm2.99 0.0586s0.66295 2.157 1.5536 2.1737c0.71962 0.0135 1.3194-1.7086 1.3194-1.7086-0.10354 3.1404-0.20652 7.2623-0.31007 11.068-0.79611-2.2325-1.552-4.5847-2.9505-5.0103 0.34439-2.1745 0.34079-4.3482 0.3876-6.5227z" fill="#ff8080" fill-opacity=".99533" stroke-width=".6075"/>
  <g transform="matrix(.81 0 0 .81 24.079 17.288)" fill="#f55">
   <g fill-opacity=".94393" stroke-width=".75">
    <path d="m108.29 123.79c-0.58733-0.0185-1.2247 0.0904-1.9141 0.34765-4.1185 1.5366-7.8224 6.2493 4.2715 19.119 2.8058 0.59014 0.54372-10.175 3.3906-7.2539 0.029-5.6932-1.6367-12.083-5.748-12.213zm-0.97461 0.70312a2.5763 3.5932 66.271 0 1 2.6211 1.3184 2.5763 3.5932 66.271 0 1-2.252 3.8047 2.5763 3.5932 66.271 0 1-4.3262-0.91406 2.5763 3.5932 66.271 0 1 2.252-3.8027 2.5763 3.5932 66.271 0 1 1.7051-0.40625z"/>
    <path d="m148.89 124.36c-4.1114 0.12985-5.777 6.5198-5.748 12.213 2.8469-2.921 0.58485 7.844 3.3906 7.2539 12.094-12.87 8.39-17.583 4.2715-19.119-0.6894-0.25722-1.3267-0.36621-1.9141-0.34766zm0.61328 0.8125a3.5932 2.5763 23.729 0 1 2.0391 0.4043 3.5932 2.5763 23.729 0 1 2.252 3.8047 3.5932 2.5763 23.729 0 1-4.3262 0.91211 3.5932 2.5763 23.729 0 1-2.252-3.8047 3.5932 2.5763 23.729 0 1 2.2871-1.3164z"/>
    <path d="m129.12 113.55c-7.5257 0.36018-8.6626 17.431-6.1367 43.816 0.84202 8.7957 3.6418 17.923 5.2734 17.93 1.5577 7e-3 3.4714-2.2954 6.041-17.066 3.4084-19.592 1.3062-44.99-5.1777-44.68zm-2.3008 24.449c0.0578 2.6846 0.0533 5.3701 0.47852 8.0547-1.7264 0.52545-2.6597 3.4274-3.6426 6.1836-0.12784-4.6983-0.25497-9.785-0.38281-13.662 0 0 0.74049 2.1261 1.6289 2.1094 1.0995-0.0207 1.918-2.6856 1.918-2.6856zm3.6914 0.0723s0.81846 2.6629 1.918 2.6836c0.88841 0.0167 1.6289-2.1094 1.6289-2.1094-0.12783 3.8771-0.25497 8.9658-0.38281 13.664-0.98285-2.7562-1.9161-5.6601-3.6426-6.1856 0.42518-2.6846 0.42073-5.3681 0.47852-8.0527z"/>
   </g>
   <g>
    <path d="m116.75 185.63c3.0374 6.7046 3.1149 18.355 10.373 14.169l-0.13559-4.2034c-5.3107-4.2032-4.3842-8.8771-10.237-9.9661z" stroke-width=".75"/>
    <path d="m139.25 185.63c-3.0374 6.7046-3.2844 18.287-10.542 14.102l0.13559-4.2034c5.3107-4.2032 4.5537-8.8093 10.407-9.8983z" stroke-width=".75"/>
    <path d="m114.83 97.499c-0.64342-14.534-7.2192-9.2985-11.793-29.863 2.5196 22.088 7.4708 12.206 7.4786 27.187z" fill-opacity=".94393" stroke-width=".79244"/>
    <path d="m141.29 97.437c0.64342-14.534 7.2192-9.2985 11.793-29.863-2.5196 22.088-7.4708 12.206-7.4786 27.187z" fill-opacity=".94393" stroke-width=".79244"/>
   </g>
  </g>
 </g>
 <g>
  <path d="m129.24 4.7973c10.316 0.83032 26.391 4.0241 43.188 12.104 17.142 8.2466 29.495 18.795 38.697 28.677 2.3025 2.4729 4.2251 4.7012 5.7832 6.5193 6.0271 7.0327 15.664 18.144 23.671 35.953 8.0215 17.842 11.199 35.711 11.769 47.908-0.58617-12.537-1.4974-29.846-7.664-49.466-5.9754-19.011-14.737-32.675-21.108-40.11-1.6733-1.9525-3.8396-4.2641-6.4686-6.7521-10.51-9.9461-24.948-19.51-43.291-26.06-18.182-6.4926-34.122-7.9328-44.576-8.7743z" fill="#fff"/>
  <path d="m131.74 18.22c10.37 0.77357 25.361 3.5228 40.738 11.172 15.401 7.661 26.381 17.773 34.287 27.128 2.3201 2.7452 4.2099 5.2259 5.6729 7.1943 4.933 6.6369 12.108 16.765 18.118 31.965 5.9082 14.943 8.294 28.998 8.9525 37.979-0.67401-9.192-1.8408-22.921-6.7331-38.759-4.845-15.684-11.529-27.221-16.562-33.992-1.5257-2.0526-3.5649-4.5833-6.0968-7.3424-8.6433-9.4189-20.743-19.048-36.855-25.878-16.156-6.8482-31.088-8.6886-41.521-9.467z" fill="#fff"/>
  <path d="m128.27 252.16c-10.316-0.83032-26.391-4.0241-43.188-12.104-17.142-8.2466-29.495-18.795-38.697-28.677-2.3025-2.4729-4.2251-4.7012-5.7832-6.5193-6.0271-7.0328-15.664-18.144-23.671-35.953-8.0215-17.842-11.199-35.711-11.769-47.908 0.58617 12.537 1.4974 29.846 7.664 49.466 5.9753 19.011 14.737 32.675 21.108 40.11 1.6733 1.9525 3.8396 4.2641 6.4686 6.7521 10.51 9.9461 24.948 19.51 43.291 26.06 18.182 6.4926 34.122 7.9328 44.576 8.7743z" fill="#ffd42a"/>
 </g>
</svg>
