<svg version="1.1" viewBox="0 0 64 64" xmlns="http://www.w3.org/2000/svg">
 <g fill-rule="evenodd">
  <path d="m11.718 4.9068c-0.10781 1.0918-0.10487 2.7796-0.40772 3.2412-0.42732 0.65275-1.8328 1.5319-2.2052 3.052-3.054 3.5872-6.7402 10.024-6.3334 11.177 0.51749 1.4642 5.8316 6.403 8.913 9.5794-1.6975 2.8256-3.2314 5.7277 0.21562 10.891 0.18916 4.3389 0.24208 8.7062 0.96442 12.93-0.23522 1.5309-1.4663 4.4085-1.4663 4.4085l5.9463 0.50181c0.53906-2.4228 1.2173-4.4771 1.576-7.3802 0.936-5.8149 1.725-10.283 1.7494-14.976 5.5062-0.32539 6.6578-4.7182 6.7087-7.437 0.09115-4.8574-3.4911-6.746-6.3089-10.177 1.2016-0.68999 1.282-1.6564 1.2016-2.7766-0.08037-1.1271-1.9298-2.7404-3.1559-4.0419-1.2507-1.3251-1.7995-2.3346-2.1885-2.8158-0.23718-0.29403-0.99382-0.54886-0.99382-0.54886-0.13133-1.1134-0.27443-2.0926 0.33617-2.9364zm-0.73998 14.184c1.234 3.6479 2.0288 7.2654 1.9249 10.437-1.6112-2.3855-2.7335-4.5575-4.8632-7.1695 1.2016-1.1898 1.9769-2.1131 2.4306-3.1412z" fill="#999" stroke="#000" stroke-width=".49005"/>
  <path d="m29.957 42.661c-2.978-4.3062 3.4241-6.3933 5.8393-3.0254-0.73994-3.9585 5.2269-5.9253 6.4108-0.8194 0.90906 3.9169-3.5021 5.2452-2.5792 11.205-3.3191-5.1555-7.352-4.0066-9.6709-7.36z" fill="#faa" stroke="#000" stroke-width=".65756"/>
  <path d="m41.145 40.044c-0.29379-2.6215-1.8458-3.2309-4.2267-2.3751 2.0616-1.8138 5.0133-1.1445 4.2267 2.3744z" fill="#fff" fill-opacity=".785" stroke-width=".729"/>
 </g>
 <g transform="translate(0 1.6271)" fill-rule="evenodd">
  <path d="m44.691 26.385c0.49572-6.8038 8.9397-3.7077 8.6416 1.684 2.5457-4.627 10.435-1.7642 7.3921 4.393-2.3328 4.7232-8.0598 2.4779-12.091 9.2896 0.8522-7.9468-4.3288-10.066-3.9424-15.367z" fill="#ff8080" stroke="#000" stroke-width=".65756"/>
  <path d="m58.585 32.843c1.8896-2.9036 0.77784-4.7888-2.4298-5.8597 3.6763-0.1633 6.2023 2.9233 2.4298 5.8597z" fill="#fff" fill-opacity=".785" stroke-width=".729"/>
 </g>
 <path d="m25.998 21.273c-4.9988-5.8962 4.2632-10.115 8.3019-5.5185-1.6198-5.7671 7.0101-9.7322 9.4435-2.3328 1.8662 5.6775-4.5307 8.42-2.3744 17.138-5.6191-7.1041-11.476-4.6933-15.371-9.2867z" fill="#f55" fill-rule="evenodd" stroke="#000" stroke-width=".65756"/>
 <path d="m42.32 15.434c-0.78076-3.8528-3.1726-4.4906-6.6077-2.8037 2.8329-3.0589 7.3184-2.5734 6.6077 2.8037z" fill="#fff" fill-opacity=".785" fill-rule="evenodd" stroke-width=".729"/>
</svg>
