<?xml version="1.0" encoding="UTF-8" standalone="no"?>
<svg
   xmlns:dc="http://purl.org/dc/elements/1.1/"
   xmlns:cc="http://creativecommons.org/ns#"
   xmlns:rdf="http://www.w3.org/1999/02/22-rdf-syntax-ns#"
   xmlns:svg="http://www.w3.org/2000/svg"
   xmlns="http://www.w3.org/2000/svg"
   xmlns:sodipodi="http://sodipodi.sourceforge.net/DTD/sodipodi-0.dtd"
   xmlns:inkscape="http://www.inkscape.org/namespaces/inkscape"
   version="1.1"
   viewBox="0 0 64 64"
   id="svg56"
   sodipodi:docname="npc_reindeer_overseer.svg"
   inkscape:version="0.92.3 (2405546, 2018-03-11)">
  <metadata
     id="metadata60">
    <rdf:RDF>
      <cc:Work
         rdf:about="">
        <dc:format>image/svg+xml</dc:format>
        <dc:type
           rdf:resource="http://purl.org/dc/dcmitype/StillImage" />
        <dc:title></dc:title>
      </cc:Work>
    </rdf:RDF>
  </metadata>
  <sodipodi:namedview
     pagecolor="#ffffff"
     bordercolor="#666666"
     borderopacity="1"
     objecttolerance="10"
     gridtolerance="10"
     guidetolerance="10"
     inkscape:pageopacity="0"
     inkscape:pageshadow="2"
     inkscape:window-width="2560"
     inkscape:window-height="1387"
     id="namedview58"
     showgrid="false"
     inkscape:zoom="7.375"
     inkscape:cx="35.657593"
     inkscape:cy="25.604138"
     inkscape:window-x="-8"
     inkscape:window-y="-8"
     inkscape:window-maximized="1"
     inkscape:current-layer="svg56" />
  <defs
     id="defs22">
    <linearGradient
       id="linearGradient1132"
       x1="-103.03"
       x2="-100.88"
       y1="108.93"
       y2="87.398"
       gradientTransform="translate(251.43,-10.357)"
       gradientUnits="userSpaceOnUse">
      <stop
         stop-color="#ffae27"
         offset="0"
         id="stop2" />
      <stop
         stop-color="#ffc62f"
         offset="1"
         id="stop4" />
    </linearGradient>
    <linearGradient
       id="linearGradient1124"
       x1="-106.44"
       x2="-102.2"
       y1="110.76"
       y2="86.956"
       gradientTransform="translate(251.43,-10.357)"
       gradientUnits="userSpaceOnUse">
      <stop
         stop-color="#dd9c23"
         offset="0"
         id="stop7" />
      <stop
         stop-color="#d6a527"
         stop-opacity=".98431"
         offset="1"
         id="stop9" />
    </linearGradient>
    <linearGradient
       id="linearGradient1027"
       x1="-107.08"
       x2="-102.91"
       y1="134.15"
       y2="79.476"
       gradientTransform="translate(251.43,-10.357)"
       gradientUnits="userSpaceOnUse">
      <stop
         stop-color="#fbc02d"
         offset="0"
         id="stop12" />
      <stop
         stop-color="#ffe63a"
         offset="1"
         id="stop14" />
    </linearGradient>
    <linearGradient
       id="linearGradient1035"
       x1="-98.265"
       x2="-92.131"
       y1="134.15"
       y2="77.704"
       gradientTransform="translate(251.43,-10.357)"
       gradientUnits="userSpaceOnUse">
      <stop
         stop-color="#dba727"
         offset="0"
         id="stop17" />
      <stop
         stop-color="#d7c430"
         offset="1"
         id="stop19" />
    </linearGradient>
  </defs>
  <g
     transform="matrix(0.33372,-0.026465,0.026465,0.33372,-20.074407,-10.286825)"
     id="g54">
    <path
       d="m 109.44,98.034 9.9753,-18.688 c -2.2276,-1.4386 -0.77311,-4.3028 1.1872,-4.902 1.8436,-0.56356 5.4844,1.0658 2.0958,4.902 l 10.67,15.152 14.332,-12.627 c -1.4085,-0.88388 -1.9003,-5.377 2.0906,-5.1035 4.6744,0.32028 3.3898,4.4618 1.3187,5.6086 l 9.6596,17.678 16.478,-16.099 c -1.1286,-1.0102 -1.4212,-5.2953 2.2632,-5.0566 4.0639,0.26332 2.5416,4.6594 0.83039,5.4354 l 7.1342,20.708 z"
       id="path38"
       style="fill:url(#linearGradient1132);stroke:url(#linearGradient1124);stroke-width:1.5"
       inkscape:connector-curvature="0" />
    <path
       d="m 109.38,122.4 69.195,5.177 c 4.3064,0.32219 8.1194,-3.1658 8.9651,-6.3134 2.8385,-10.565 5.0302,-21.129 6.1872,-31.694 5.5957,0.09152 4.868,-6.0564 2.1746,-7.2913 -2.9716,-1.3624 -8.6046,1.1803 -5.4576,5.5236 l -10.102,11.49 c -1.1496,1.3077 -4.0484,0.86564 -4.4194,-0.37881 l -6.9958,-23.463 c 3.8752,-0.21739 6.6022,-8.4567 -0.15877,-9.5963 -7.1779,-1.2099 -7.5747,6.892 -4.0834,8.5632 l -13.763,20.961 c -1.1048,1.6825 -5.5345,0.89389 -6.0609,-0.63135 l -7.7394,-22.424 c 3.2425,-0.8447 5.4365,-8.633 -1.7218,-8.9138 -6.7626,-0.2653 -5.6467,7.6012 -2.4081,8.8615 l -11.617,20.834 c -0.86172,1.5455 -5.3966,1.8358 -6.3134,0.12626 l -6.7956,-12.672 c 3.2351,-2.1992 -0.55854,-8.9777 -5.2794,-5.9708 -3.6451,2.3217 -2.311,8.2006 1.7209,7.6569 l -1.6415,31.946 c -0.17439,3.3939 2.2116,7.9006 6.3135,8.2075 z"
       id="path40"
       style="fill:url(#linearGradient1027);stroke:url(#linearGradient1035);stroke-width:2;stroke-linecap:round;stroke-linejoin:round"
       inkscape:connector-curvature="0" />
    <g
       id="g48"
       style="fill:#16a8ee;stroke:#2a9bca;stroke-linecap:round;stroke-linejoin:round">
      <ellipse
         transform="rotate(5.6591)"
         cx="113.61"
         cy="93.421997"
         rx="4.5535998"
         ry="4.9554"
         id="ellipse42" />
      <ellipse
         transform="rotate(5.6591)"
         cx="199.67999"
         cy="91.935997"
         rx="4.5535998"
         ry="4.9554"
         id="ellipse44" />
      <ellipse
         transform="matrix(0.99696,0.077931,-0.12464,0.9922,0,0)"
         cx="159.17999"
         cy="95.949997"
         rx="8.7744999"
         ry="7.5685"
         id="ellipse46"
         style="stroke-width:1.7155" />
    </g>
    <ellipse
       transform="matrix(0.99255,0.12187,-0.17196,0.9851,0,0)"
       cx="140.77"
       cy="90.278"
       rx="5.1290998"
       ry="4.3456001"
       id="ellipse50"
       style="fill:#ed3e78;stroke:#d0326e;stroke-width:0.99387002;stroke-linecap:round;stroke-linejoin:round" />
    <ellipse
       transform="matrix(0.98583,0.16777,-0.21746,0.97607,0,0)"
       cx="189.17"
       cy="79.926003"
       rx="5.1290998"
       ry="4.3456001"
       id="ellipse52"
       style="fill:#ed3e78;stroke:#d0326e;stroke-width:0.99387002;stroke-linecap:round;stroke-linejoin:round" />
  </g>
  <path
     inkscape:connector-curvature="0"
     style="fill:#ff8080;fill-rule:evenodd;stroke:#000000;stroke-width:0.53144097"
     d="m 26.100226,48.52971 c -0.972006,-1.263236 -2.250121,-2.458978 -1.833472,-2.939932 0.301327,-0.3465 2.111947,0.380512 3.793957,0.967223 0.689812,0.240742 1.067135,0.727011 1.671914,1.211685 0.823202,0.661113 1.294059,0.319395 0.899198,-0.27635 -1.292996,-1.950388 -6.791285,-5.327695 -6.413429,-6.019632 0.367757,-0.674929 1.312659,0.564922 1.442331,0.076 0.462885,-1.743126 1.423198,-3.383685 1.927004,-5.229379 0.811511,-2.970755 -3.205652,-4.223362 -3.344889,-4.795723 -0.146678,-0.600528 2.572174,-1.482721 4.279163,2.478109 0.216297,0.503275 0.802476,0.459165 0.864654,-0.55323 0.08503,-1.392375 -0.252435,-3.8944 0.241806,-4.064461 0.823733,-0.283789 0.775903,3.55534 1.72984,3.337449 1.159073,-0.264125 1.126655,-3.035059 1.62621,-3.043562 0.461823,-0.0079 0.922049,0.46448 0.812573,1.020367 -0.09353,0.473513 -0.229582,0.50912 -0.294418,0.778561 -0.128609,0.535161 0.837551,-0.368289 1.522047,-0.709475 0.485205,-0.241804 2.671022,1.236133 0.968817,1.746847 -5.10024,1.530551 -8.023165,4.68359 -8.07684,9.184364 -0.02817,2.319209 1.804242,3.930006 4.807946,4.116011 3.01327,0.186536 5.339388,-3.384748 5.759226,-5.292621 0.216828,-0.983166 2.474921,1.002829 1.798928,1.643215 0,0 -2.893165,2.207074 -2.611501,2.629039 0.37626,0.56439 1.505041,-0.342779 2.109821,-0.432593 1.213811,-0.180159 0.985823,1.686793 0.138175,1.764383 -1.725589,0.157839 -4.509809,0.136582 -4.617691,0.847649 -0.128609,0.846586 2.03223,1.286088 4.375884,0.362975 1.23135,-0.484675 0.736047,1.431702 -0.155711,1.712302 -2.283603,0.717977 -6.218391,-1.404067 -6.260906,-1.020366 -0.08769,0.79291 4.164902,3.154102 6.364536,5.015739 1.507699,1.275459 -1.204245,3.632931 -1.971646,3.493693 -1.70433,-0.309829 -1.647998,-1.19149 -4.185628,-1.262702 -1.062882,-0.02976 -1.488035,0.358191 -2.559421,1.00336 -3.167388,1.905747 -8.315989,-5.327165 -4.808478,-7.748409 z"
     id="path2" />
</svg>
