<!-- Created with Inkscape (http://www.inkscape.org/) -->
<svg version="1.1" viewBox="0 0 256 256" xmlns="http://www.w3.org/2000/svg">
 <style>svg { cursor: default; }</style>
 <g fill-rule="evenodd" stroke="#000" stroke-width=".5">
  <path d="m126.99 82.276c-0.736 20.632-23.567 21.113-29.323 3.239-0.842 14.918-17.42 25.582-28.476 3.512 2.413 14.721-14.287 24.721-24.018 12.411-0.049 11.493-11.033 20.623-19.375 7.947 0.975 9.724-3.652 20.121-9.898 9.279 0.78 10.773-1.732 14.117-5.476 7.512l4.566 11.37c1.732-2.788 6.074-4.716 3.352-12.523 4.374 3.664 10.872 5.048 9.242-7.87 6.665 7.102 17.473 2.643 19.464-8.572 8.317 8.79 23.04 2.808 24.59-5.375 8.07 7.897 21.96 5.116 27.553-6.5 7.086 9.793 21.715 9.628 28.654-1.98 6.28 9.252 19.195 13.224 29.918 1.444 4.488 7.386 14.961 15.043 25.843 4.01 1.143 9.182 12.489 13.308 21.57 8.47 0.896 8.53 10.28 15.2 18.76 7.884 0.514 9.486 3.705 14.988 12.148 10.414 0.478 7.666 1.383 14.59 7.45 10.859-1.347 4.533-0.753 8.22 1.139 8.705 1.15-6.465 2.897-8.299 2.975-13.924-8.848 9.439-8.25-6.488-7.638-13.025-11.865 11.912-14.456-2.046-13.304-10.625-7.204 10.679-21.936 2.272-18.765-8.571-10.902 12.416-26.838 0.41-21.949-11.775-6.478 20.428-28.49 12.383-28.303-4.286-7.15 23.344-29.154 13.465-30.7-2.03z" fill="#ff8080"/>
  <path d="m246.37 134.99c0.207-3.429-0.92-5.112-0.293-7.29 0.938-3.254 3.21-2.391 2.27 1.347 1.417-3.382 2.872-0.6 1.8 2.39-0.59 1.642-2.064 1.386-3.777 3.553z" fill="#fd5"/>
  <path d="m126.86 81.897c-0.735 20.632-23.44 22.25-29.196 4.375-0.842 14.92-18.051 26.087-29.107 4.018 2.413 14.72-14.288 24.721-24.018 12.41-0.223 10.797-11.196 19.974-19.375 7.947 0.975 9.724-3.652 20.122-9.898 9.28 0.779 10.773-0.911 14.022-4.656 7.417l3.745 11.465c1.676-3.266 5.75-7.446 3.352-12.523 4.375 3.663 9.472 4.847 9.243-7.87 6.665 7.102 15.547 1.759 19.464-8.572 8.317 8.789 22.913 1.04 24.464-7.143 8.07 7.897 22.085 6.884 27.679-4.732 7.086 9.793 22.346 9.375 29.285-2.232 6.28 9.25 18.564 13.476 29.286 1.696 4.489 7.385 16.35 14.16 27.232 3.125 2.108 8.44 12.359 13.073 21.697 8.66 0.999 6.16 10.153 13.807 18.571 7.947 0.774 6.495 4.192 15.036 12.59 10.982 0.878 4.667 1.208 12.393 7.008 10.67-0.926 3.69 0.094 5.517 0.95 8.074 0.977-6.466 1.839-7.226 2.533-12.85-8.414 6.334-7.67-7.035-8.08-13.215-9.108 10.363-12.88-2.993-13.304-10.625-7.265 10.561-17.395 1.286-19.018-8.572-9.979 12.386-22.83 0.095-21.697-11.964-5.372 20.06-27.078 11.912-28.303-4.286-7.369 22.795-29.01 11.742-30.447-3.482z" fill="#ffd5d5"/>
  <path d="m247.13 135.53c0.207-3.429-0.92-5.112-0.293-7.29 0.938-3.254 3.211-2.391 2.27 1.347 1.417-3.382 2.873-0.6 1.8 2.39-0.59 1.642-2.064 1.386-3.777 3.553z" fill="#ffe680"/>
 </g>
 <g stroke="#000">
  <g stroke-width=".5">
   <ellipse transform="matrix(.95951 .28167 -.2327 .97255 0 0)" cx="261.11" cy="45.291" rx="2.944" ry="3.939" fill="#ffe680" stroke-linecap="round" stroke-linejoin="round"/>
   <path d="m225.24 111.22c-0.395-5.425-3.635-7.806-2.656-11.367 1.463-5.319 7.327-4.487 5.982 1.592 2.62-5.63 6.964-1.598 5.095 3.336-1.026 2.711-4.748 2.648-8.42 6.44z" fill="#fd5" fill-rule="evenodd"/>
   <ellipse cx="207.8" cy="97.33" rx="4.512" ry="4.953" fill="#ffe680" stroke-linecap="round" stroke-linejoin="round"/>
   <path d="m184.89 91.709c-2.043-5.88-7.007-7.554-6.705-11.779 0.451-6.31 8.461-7.125 8.38-8e-3 1.897-6.997 8.788-3.824 7.691 2.181-0.602 3.3-5.557 4.33-9.366 9.606zm-115 0.549c1.81-5.956 6.704-7.824 6.236-12.034-0.7-6.288-8.736-6.786-8.373 0.322-2.173-6.917-8.933-3.475-7.6 2.483 0.732 3.274 5.723 4.107 9.737 9.23z" fill="#fd5" fill-rule="evenodd"/>
   <ellipse cx="44.252" cy="97.895" rx="5.114" ry="4.924" fill="#ffe680" stroke-linecap="round" stroke-linejoin="round"/>
   <path d="m26.914 112.04c0.396-5.426 3.636-7.807 2.657-11.367-1.463-5.32-7.327-4.488-5.982 1.591-2.62-5.63-6.964-1.598-5.095 3.336 1.026 2.711 4.748 2.648 8.42 6.44zm-15.264 16.102c-0.206-3.429 0.921-5.112 0.293-7.29-0.937-3.253-3.21-2.391-2.269 1.347-1.418-3.382-2.873-0.599-1.8 2.39 0.59 1.642 2.064 1.386 3.776 3.553z" fill="#fd5" fill-rule="evenodd"/>
  </g>
  <ellipse transform="matrix(-.88285 .46965 .37592 .92665 0 0)" cx="30.11" cy="110.76" rx="2.619" ry="3.704" fill="#ffe680" stroke-linecap="round" stroke-linejoin="round" stroke-width=".501"/>
  <path d="m174.36 180.47c-0.412-4.94 0.478-9.881 1.965-14.822 20.495 1.32 40.548-0.164 62.5-6.964 2.02 25.402-34.903 21.835-64.465 21.786zm-87.5 1.964c-0.054-5.562-0.301-11.1-2.232-16.429-29.206-1.254-44.41-9.635-60.982-17.321-11.294 26.12 37.59 29.802 63.214 33.75z" fill="#f55" fill-rule="evenodd"/>
  <path d="m21.744 163.48c-1.962-7.212-5.299-16.678-7.384-24.674 0 0 14.225-33.01 114.91-35.355 103.35-2.406 115.92 43.437 115.92 43.437-2.925 8.877-5.052 17.023-8.839 25.38 0 0 5.596-36.839-106.32-36.113-107.97 0.7-108.28 27.325-108.28 27.325z" fill="#faa" fill-rule="evenodd"/>
 </g>
 <g fill="#fea" stroke="#000" stroke-linecap="round" stroke-linejoin="round">
  <g stroke-width=".5">
   <ellipse cx="97.382" cy="82.367" rx="5.114" ry="4.924"/>
   <ellipse cx="157.8" cy="81.483" rx="5.114" ry="4.924"/>
   <ellipse cx="208.5" cy="97.646" rx="4.512" ry="4.953"/>
   <ellipse transform="matrix(.95951 .28167 -.2327 .97255 0 0)" cx="262" cy="45.663" rx="2.944" ry="3.939"/>
  </g>
  <ellipse transform="matrix(-.88285 .46965 .37592 .92665 0 0)" cx="31.181" cy="110.78" rx="2.619" ry="3.704" stroke-width=".501"/>
  <ellipse cx="43.472" cy="98.326" rx="5.114" ry="4.924" stroke-width=".5"/>
 </g>
 <path d="m127.11 85.621c-2.98-5.89-8.428-6.944-8.713-11.428-0.425-6.697 7.864-8.691 8.791-1.2 0.996-7.623 8.678-5.268 8.382 1.2-0.163 3.555-5.214 5.341-8.46 11.428zm58.371 6.326c-2.043-5.88-7.007-7.554-6.705-11.778 0.451-6.311 8.462-7.126 8.38-9e-3 1.898-6.997 8.788-3.824 7.692 2.182-0.603 3.3-5.557 4.33-9.366 9.605zm-116.21 0.395c1.81-5.956 6.704-7.824 6.236-12.033-0.7-6.289-8.736-6.787-8.373 0.321-2.172-6.916-8.933-3.475-7.6 2.483 0.732 3.274 5.723 4.108 9.737 9.23zm-43.322 20.386c0.395-5.426 3.636-7.807 2.656-11.367-1.463-5.32-7.327-4.488-5.982 1.591-2.62-5.63-6.963-1.598-5.095 3.336 1.027 2.711 4.749 2.648 8.421 6.44zm-14.856 15.874c-0.207-3.428 0.92-5.111 0.292-7.29-0.937-3.253-3.21-2.39-2.269 1.347-1.418-3.382-2.873-0.599-1.8 2.39 0.59 1.642 2.064 1.387 3.777 3.553zm214.91-16.933c-0.395-5.426-3.635-7.807-2.656-11.367 1.463-5.319 7.327-4.488 5.982 1.592 2.62-5.63 6.964-1.599 5.095 3.335-1.027 2.712-4.749 2.648-8.42 6.44z" fill="#ffe680" fill-rule="evenodd" stroke="#000" stroke-width=".5"/>
 <path d="m19.678 158.06c19.194-35.576 206.56-41.252 219.87 6.307 1.753 3.126 6.315-14.358 5.259-15.146-3.684-7.018-9.005-12.765-16.537-17.471-21.21-13.253-54.869-23.125-97.667-22.887-56.347 0.313-106.17 16.887-115.53 33.572-0.963 1.09 3.217 17.012 4.598 15.625z" fill="#ffd5d5" fill-rule="evenodd" stroke="#000"/>
 <path d="m132.3 112.44c6.783-0.094 17.716 0.11 29.69 1.339 12.29 1.26 21.045 3.099 26.888 4.438 3.43 0.785 8.202 1.964 13.468 3.68 9.024 2.938 18.018 6.966 25.808 12.587 9.383 6.771 14.341 13.952 17.025 19.14-2.686-5.191-7.44-12.478-16.743-19.522-7.714-5.84-16.695-10.11-25.75-13.223a134.63 134.63 0 0 0-13.535-3.852c-5.74-1.314-14.914-2.932-27.106-3.856-12.202-0.925-22.794-0.827-29.745-0.731z" fill="#f9f9f9"/>
 <g fill-rule="evenodd" stroke="#000">
  <g transform="translate(1.9518 -.95497)">
   <path d="m116.69 114.53 0.439 12.032 4.66 4.768 12.847-0.03 4.545-4.166 0.127-12.754-3.41-4.04-15.404 0.126z" fill="#ff8080"/>
   <path d="m118.84 115.73 0.355 9.747 3.774 3.862 10.406-0.024 3.682-3.375 0.102-10.33-2.761-3.273-12.478 0.102z" fill="#ffb380" stroke-width=".81"/>
   <path d="m121.32 117.12 0.26 7.105 2.75 2.816 7.587-0.018 2.684-2.46 0.074-7.53-2.013-2.387-9.096 0.075z" fill="#ffe6d5" stroke-width=".59"/>
   <path d="m134.29 112.5-1.564 2.086c-0.112 3e-3 1.9 2.561 1.9 2.561l2.209-1.79c-1.13-1.065-1.36-1.98-2.545-2.857zm-0.982 16.607-1.385-2.12s2.46-2.303 2.505-2.314l2.362 1.399z" fill="#fca" stroke-width=".5"/>
   <path d="m122.82 129.1 1.518-2.143-2.723-2.678-2.41 1.16zm-3.884-13.392 2.232 1.294 2.411-2.277-1.652-2.366z" fill="#f95" stroke-width=".5"/>
  </g>
  <path d="m175.45 117.21-1.495 10.733 3.383 4.955 11.39 1.985 4.682-2.981 2.108-11.283-2.389-3.803c-4.577-1.708-9.57-2.4-13.672-3.237z" fill="#ff8080" stroke-width=".9"/>
  <path d="m177.52 117.95-1.5 9.047 2.685 4.28 9.394 1.966 3.952-2.406 2.02-9.498-1.88-3.543-11.277-2.29z" fill="#ffb380" stroke-width=".754"/>
  <path d="m180 119.84-1.093 6.596 1.957 3.12 6.848 1.434 2.88-1.754 1.474-6.924-1.371-2.583-8.221-1.67z" fill="#ffe6d5" stroke-width=".55"/>
  <path d="m192.27 117.9-1.556 1.913 1.393 2.41 1.948-0.936zm-4.166 15.247-0.295-2.22 2.714-1.629 1.38 1.516z" fill="#fca" stroke-width=".466"/>
  <path d="m178.55 131.19 2.305-1.661-1.957-3.056-2.816 0.61zm-0.96-13.326 2.375 1.91 2.444-1.75-1.495-2.473z" fill="#f95" stroke-width=".466"/>
  <path d="m64.452 132.36-1.495-10.733 3.383-4.955c3.602-0.937 7.207-1.87 11.138-2.396l4.934 3.392 2.109 11.283-2.39 4.115c-4.523 0.868-9.065 1.682-13.672 2.3z" fill="#ff8080" stroke-width=".9"/>
  <path d="m65.187 131.46-1.478-9.149 2.752-4.305 9.565-1.925 4.007 2.456 2.007 9.606-1.931 3.567-11.482 2.24z" fill="#ffb380" stroke-width=".764"/>
  <path d="m66.362 129.93-1.077-6.67 2.006-3.138 6.973-1.403 2.921 1.79 1.463 7.003-1.407 2.6-8.37 1.634z" fill="#ffe6d5" stroke-width=".557"/>
  <path d="m79.979 131.58-2.738-1.495c-0.104 0.018 1.405-2.43 1.405-2.43l3.142 0.786c-0.842 1.204-0.883 2.1-1.809 3.139zm-3.977-15.291-1.818 2.436s2.978 1.774 3.02 1.776l2.559-2.035z" fill="#fca" stroke-width=".472"/>
  <path d="m66.364 118.25 0.742 1.914-1.827 3.095-1.56-0.92zm-1.088 13.207 1.119-1.4 2.636 1.67-0.387 2.29z" fill="#f95" stroke-width=".472"/>
  <path d="m25.712 146.55-3.892-7.868 1.397-4.704c2.437-1.698 4.6-3.254 7.837-4.628l4.707 1.316 4.505 8.133-0.626 4.531a150.94 150.94 0 0 0-9.732 4.79z" fill="#ff8080" stroke-width=".729"/>
  <path d="m26.022 145.88-3.332-6.884 1.141-4.09 7.057-3.883 3.73 0.958 3.855 7.117-0.67 3.302-8.49 4.605z" fill="#ffb380" stroke-width=".631"/>
  <path d="m26.342 144.53-2.428-5.019 0.832-2.98 5.145-2.831 2.72 0.698 2.81 5.188-0.49 2.407-6.188 3.357z" fill="#ffe6d5" stroke-width=".46"/>
  <path d="m37.67 142.33-2.644-0.401 0.458-2.328 2.926-0.393c-0.375 1.161-0.74 3.122-0.74 3.122zm-6.75-11.135-0.935 2.446 2.655 0.71 1.877-2.327z" fill="#fca" stroke-width=".389"/>
  <path d="m23.814 135.13 0.866 1.42-0.752 2.907-1.221-0.437zm2.278 10.731 0.28-1.26 2.34 0.738 0.506 1.594z" fill="#f95" stroke-width=".389"/>
  <path d="m217.94 130.5-3.622 7.996 1.493 4.625 8.395 4.153 4.32-1.243 4.224-8.283-0.913-3.744a67.932 67.932 0 0 0-9.653-5.741z" fill="#ff8080" stroke-width=".729"/>
  <path d="m219.97 131.38-3.288 6.93 1.078 4.124 6.827 3.933 3.632-0.955 3.8-7.162-0.628-3.33-8.213-4.665z" fill="#ffb380" stroke-width=".624"/>
  <path d="m222.02 133.75-2.397 5.05 0.785 3.008 4.977 2.867 2.648-0.696 2.77-5.221-0.457-2.428-5.988-3.4z" fill="#ffe6d5" stroke-width=".455"/>
  <path d="m231.32 135.13-0.92 1.241 0.399 2.335 1.137-0.69z" fill="#fca" stroke-width=".375"/>
  <path d="m224.62 146.19 0.84-1.513 2.545-0.684-7e-3 1.403z" fill="#fca" stroke-width=".385"/>
  <path d="m217.75 142.21 2.684-0.448-0.795-2.945-2.936-0.53zm2.294-10.81 1.977 2.242 2.38-0.672-1.188-2.768z" fill="#f95" stroke-width=".385"/>
  <path d="m174.36 180.47c18.111 0.884 60.106 0.04 59.473-11.405-1.668-30.169-79.15-31.848-102.64-31.847-41.582 2e-3 -105.48 7.562-105.66 24.374-0.092 8.708 26.046 16.329 61.322 20.842-23.693-2.282-65.678-9.225-65.357-20 0.407-13.652 37.065-25.536 109.82-26.583 35.593-0.512 104.87 4.547 105.71 33.726 0.35 12.155-43.258 13.617-62.679 10.893z" fill="#ff8080"/>
 </g>
 <path d="m127.67 88.058c0.642 1.428 1.663 3.624 3.307 5.77 1.657 2.16 3.32 3.434 4.507 4.116 0.1 0.058 0.211 0.12 0.332 0.183 1.345 0.711 3.39 1.459 6.046 1.495 2.832 0.038 5.306-0.736 7.058-1.385-1.743 0.646-4.29 1.281-7.045 1.082-2.594-0.188-4.493-1.042-5.762-1.743a21.537 21.537 0 0 1-0.315-0.178c-1.148-0.66-2.801-1.73-4.577-3.77-1.733-1.99-2.918-4.162-3.551-5.57zm29.643 2.789c0.662 1.473 1.62 3.517 3.125 5.527 1.471 1.966 2.925 3.153 3.887 3.776 0.084 0.054 0.176 0.111 0.275 0.171 1.167 0.702 2.84 1.423 4.958 1.75 2.098 0.322 3.903 0.153 5.076 0.026-1.16 0.126-3.008 0.152-5.02-0.315-2.059-0.478-3.576-1.294-4.685-1.994l-0.262-0.168a17.56 17.56 0 0 1-3.983-3.443c-1.591-1.848-2.723-3.887-3.371-5.33zm27.857 5c0.76 1.825 1.774 4.212 3.162 6.38 1.267 1.976 2.415 3.067 3.167 3.626 0.067 0.05 0.142 0.103 0.223 0.159 0.937 0.642 2.205 1.221 3.815 1.44 1.61 0.218 3.117 0.016 4.008-0.087-0.893 0.103-2.418 0.154-3.953-0.212-1.538-0.365-2.643-1.026-3.51-1.654a22.187 22.187 0 0 1-0.208-0.152c-0.711-0.529-1.886-1.44-3.272-3.306-1.484-1.999-2.69-4.414-3.432-6.194zm21.473 8.279c0.761 1.825 1.774 4.213 3.163 6.38 1.266 1.976 2.414 3.068 3.166 3.626 0.068 0.05 0.142 0.104 0.223 0.16 0.938 0.641 2.205 1.22 3.815 1.44 1.61 0.218 3.117 0.016 4.008-0.088-0.893 0.104-2.418 0.154-3.953-0.211-1.537-0.366-2.643-1.026-3.51-1.654a22.187 22.187 0 0 1-0.208-0.153c-0.711-0.528-1.886-1.439-3.272-3.306-1.484-1.999-2.69-4.414-3.432-6.194zm19.426 9.166c0.193 1.683 0.458 3.886 1.071 5.987 0.56 1.915 1.223 3.068 1.695 3.695a7.083 7.083 0 0 0 2.853 2.207c1.23 0.53 2.474 0.688 3.204 0.793-0.733-0.106-1.956-0.39-3.092-1.023-1.137-0.632-1.864-1.417-2.41-2.125-0.047-0.06-0.09-0.118-0.13-0.171-0.446-0.593-1.176-1.607-1.857-3.462-0.73-1.987-1.145-4.26-1.334-5.901zm13.286 10.92c-0.125 1.207-0.314 2.876-0.31 4.598 2e-3 1.691 0.2 2.814 0.397 3.477l0.058 0.184a6.44 6.44 0 0 0 1.456 2.43c0.786 0.812 1.647 1.239 2.216 1.512a5.962 5.962 0 0 1-2.057-1.65c-0.652-0.828-0.98-1.707-1.199-2.425l-0.053-0.176c-0.193-0.65-0.48-1.666-0.6-3.36-0.117-1.657-0.028-3.427 0.092-4.59zm-141.63-35.105c0.695 1.404 1.798 3.56 3.52 5.642 1.737 2.098 3.447 3.308 4.658 3.946 0.103 0.054 0.216 0.111 0.338 0.17 1.371 0.66 3.443 1.331 6.099 1.268 2.83-0.068 5.275-0.933 7-1.648-1.716 0.711-4.238 1.44-6.999 1.344-2.599-0.09-4.529-0.872-5.823-1.526a21.465 21.465 0 0 1-0.321-0.166c-1.172-0.617-2.864-1.624-4.715-3.596-1.806-1.924-3.072-4.05-3.757-5.434zm-27.556 6.765c1.264 1.52 2.934 3.504 4.899 5.167 1.792 1.517 3.21 2.222 4.092 2.535 0.08 0.028 0.167 0.057 0.26 0.086 1.086 0.338 2.467 0.52 4.07 0.254 1.603-0.264 2.984-0.9 3.806-1.261-0.823 0.361-2.266 0.858-3.84 0.96-1.578 0.103-2.829-0.204-3.842-0.548l-0.243-0.085c-0.836-0.296-2.226-0.821-4.1-2.198-2.006-1.474-3.87-3.427-5.102-4.91zm-25.128 9.647c1.36 0.887 3.167 2.056 5.18 2.972 1.945 0.887 3.38 1.203 4.242 1.297a9.444 9.444 0 0 0 3.883-0.431c1.375-0.447 2.486-1.132 3.148-1.523-0.66 0.39-1.84 0.97-3.214 1.281-1.381 0.314-2.553 0.278-3.526 0.18l-0.234-0.024c-0.833-0.092-2.208-0.263-4.2-1.02-2.002-0.76-3.956-1.869-5.28-2.732zm-18.324 8.782c0.951 0.873 2.198 1.99 3.652 2.747 1.331 0.692 2.421 0.853 3.097 0.86 0.06 0 0.127 0 0.198-3e-3 0.844-0.027 1.86-0.246 3.203-0.797 1.301-0.534 2.697-1.274 3.463-1.628-0.73 0.337-2.28 1.002-3.547 1.392-1.387 0.426-2.331 0.514-3.128 0.516l-0.184-1e-3a7.514 7.514 0 0 1-2.987-0.584c-1.459-0.6-2.83-1.64-3.767-2.502zm-10.638 8.405c0.657 0.739 1.499 1.698 2.45 2.35 0.879 0.6 1.574 0.734 2.021 0.718 0.04-1e-3 0.083-4e-3 0.128-0.01 0.541-0.054 1.166-0.308 1.884-0.907 0.694-0.579 1.371-1.397 1.763-1.825-0.399 0.436-1.158 1.158-1.91 1.621-0.77 0.475-1.335 0.573-1.777 0.595l-0.106 4e-3c-0.35 0.013-0.964 0.03-1.863-0.43-0.972-0.496-1.944-1.39-2.59-2.116zm-3.945 7.719c0.097 0.182 0.23 0.517 0.55 0.877 0.3 0.339 0.63 0.527 0.881 0.573a1.195 1.195 0 0 0 0.648-0.089c0.178-0.077 0.346-0.197 0.501-0.367 0.387-0.424 0.581-1.028 0.74-1.521-0.16 0.497-0.48 1.057-0.904 1.33a1.047 1.047 0 0 1-0.451 0.17c-0.164 0.018-0.301-0.01-0.395-0.028a1.746 1.746 0 0 1-0.047-9e-3c-0.176-0.031-0.43-0.054-0.8-0.268-0.366-0.211-0.631-0.497-0.724-0.669zm230.7-10.76c0.04-0.062 0.112-0.164 0.196-0.384 0.062-0.163 0.122-0.37 0.169-0.617 0.108-0.574 0.107-1.163 0.044-1.524a2.94 2.94 0 0 0-0.022-0.105c-0.089-0.4-0.322-1.037-0.76-1.529a2.252 2.252 0 0 0-0.628-0.5 2.355 2.355 0 0 0-0.778-0.241c0.206 0.031 0.472 0.124 0.724 0.324 0.188 0.148 0.347 0.338 0.48 0.565 0.3 0.517 0.393 1.11 0.454 1.48l0.017 0.097c0.069 0.393 0.166 0.789 0.199 1.414 0.012 0.238 0.01 0.446-3e-3 0.612-0.018 0.22-0.054 0.348-0.092 0.408zm-9.058-14.693c0.04-0.062 0.113-0.164 0.197-0.384 0.062-0.163 0.122-0.37 0.169-0.617 0.108-0.574 0.107-1.163 0.043-1.524a2.94 2.94 0 0 0-0.02-0.104c-0.09-0.4-0.323-1.037-0.761-1.53a2.252 2.252 0 0 0-0.628-0.5 2.355 2.355 0 0 0-0.778-0.24c0.206 0.03 0.472 0.124 0.724 0.323 0.188 0.148 0.347 0.339 0.48 0.566 0.3 0.516 0.393 1.11 0.454 1.48l0.017 0.096c0.069 0.393 0.166 0.79 0.199 1.415 0.012 0.237 0.01 0.445-3e-3 0.611-0.018 0.22-0.054 0.348-0.092 0.408zm-21.802-5.444c0.123-0.495 0.32-1.148 0.282-2.099-0.036-0.898-0.285-1.659-0.515-2.055a1.985 1.985 0 0 0-0.044-0.072c-0.272-0.43-0.804-0.985-1.5-1.365-0.744-0.406-1.32-0.438-1.706-0.477 0.38 0.038 0.931 0.287 1.454 0.817 0.515 0.52 0.793 1.076 1.011 1.468l0.036 0.062c0.206 0.356 0.58 0.876 0.837 1.694 0.254 0.808 0.261 1.557 0.145 2.027zm-18.048-17.233c0.125-0.437 0.324-1.025 0.268-1.881-0.052-0.784-0.314-1.447-0.544-1.79a1.844 1.844 0 0 0-0.044-0.064c-0.276-0.378-0.806-0.854-1.498-1.175-0.74-0.344-1.312-0.364-1.706-0.399 0.383 0.034 0.949 0.26 1.49 0.734 0.534 0.468 0.825 0.963 1.044 1.303 0.013 0.02 0.024 0.038 0.036 0.054 0.2 0.3 0.562 0.735 0.811 1.42 0.258 0.708 0.264 1.376 0.143 1.798zm-32.127 1.007c0.16-0.506 0.414-1.198 0.331-2.206-0.076-0.927-0.424-1.714-0.723-2.118a2.154 2.154 0 0 0-0.058-0.074c-0.364-0.45-1.056-1.006-1.956-1.37-0.933-0.378-1.65-0.395-2.154-0.434 0.484 0.038 1.212 0.3 1.916 0.85 0.718 0.562 1.11 1.16 1.398 1.564l0.046 0.063c0.256 0.346 0.716 0.845 1.029 1.632 0.325 0.817 0.328 1.596 0.17 2.093zm-27.418-7.947c0.163-0.513 0.422-1.214 0.338-2.238-0.078-0.94-0.433-1.74-0.738-2.149a2.141 2.141 0 0 0-0.058-0.075c-0.372-0.457-1.075-1.02-1.992-1.39-0.949-0.382-1.68-0.399-2.192-0.439 0.493 0.039 1.234 0.305 1.952 0.864 0.73 0.57 1.13 1.176 1.424 1.586l0.046 0.064c0.261 0.35 0.728 0.857 1.047 1.655 0.33 0.828 0.334 1.618 0.173 2.122zm-33.207 8.75c0.16-0.494 0.413-1.171 0.328-2.16-0.077-0.909-0.428-1.682-0.728-2.077a2.174 2.174 0 0 0-0.057-0.073c-0.365-0.441-1.054-0.982-1.952-1.337-0.93-0.367-1.647-0.382-2.15-0.42 0.483 0.036 1.212 0.294 1.918 0.835 0.72 0.551 1.114 1.138 1.402 1.534l0.046 0.061c0.256 0.338 0.713 0.825 1.025 1.592 0.323 0.797 0.325 1.559 0.168 2.045zm-26.411-2.398c0.037-0.56 0.126-1.32-0.154-2.335-0.257-0.929-0.73-1.659-1.088-2.013a2.26 2.26 0 0 0-0.069-0.065c-0.422-0.384-1.17-0.823-2.07-1.032-0.964-0.223-1.646-0.1-2.12-0.038 0.462-0.06 1.188 0.064 1.946 0.493 0.745 0.422 1.211 0.942 1.556 1.294l0.055 0.056c0.312 0.309 0.85 0.742 1.32 1.505 0.484 0.789 0.66 1.594 0.624 2.135zm-27.132 18.149c0.042-0.581 0.138-1.364-0.136-2.416-0.25-0.962-0.721-1.72-1.08-2.09a2.322 2.322 0 0 0-0.07-0.068c-0.424-0.403-1.18-0.867-2.091-1.095-0.975-0.244-1.667-0.125-2.145-0.067 0.467-0.057 1.198 0.078 1.959 0.528 0.747 0.443 1.213 0.985 1.558 1.353l0.056 0.059c0.313 0.323 0.857 0.779 1.33 1.577 0.486 0.824 0.66 1.66 0.62 2.219zm-19.549 3.631c0.062-0.45 0.177-1.061 0-1.9-0.162-0.77-0.513-1.39-0.79-1.697a1.814 1.814 0 0 0-0.052-0.056c-0.327-0.336-0.918-0.733-1.648-0.954-0.781-0.236-1.35-0.176-1.746-0.155 0.384-0.02 0.976 0.123 1.58 0.517 0.594 0.388 0.95 0.838 1.216 1.144l0.043 0.049c0.24 0.268 0.66 0.648 1.003 1.292 0.355 0.664 0.454 1.324 0.394 1.76zm-12.185 14.099c0-0.326 0.022-0.765-0.157-1.35-0.17-0.553-0.455-0.986-0.668-1.194a2.787 2.787 0 0 0-1.224-0.631c-0.543-0.126-0.917-0.05-1.174-8e-3 0.252-0.04 0.65 0.024 1.075 0.267 0.419 0.24 0.69 0.539 0.893 0.745l0.032 0.033c0.19 0.185 0.513 0.444 0.807 0.906 0.292 0.458 0.416 0.921 0.416 1.233zm-4.841 5.948c-7e-3 -0.555-0.07-2.057-0.213-2.45a2.257 2.257 0 0 0-0.619-0.908 1.112 1.112 0 0 0-0.31-0.189c-0.13-0.05-0.23-0.054-0.298-0.058 0.07 4e-3 0.165 0.036 0.266 0.116 0.075 0.059 0.148 0.14 0.218 0.244 0.157 0.235 0.262 0.523 0.35 0.78 0.017 0.052 0.033 0.1 0.048 0.14 0.132 0.363 0.551 1.77 0.558 2.325zm120.09-18.422c6.782-0.094 17.714 0.11 29.69 1.338 12.289 1.261 21.043 3.1 26.887 4.438 3.43 0.786 8.202 1.965 13.468 3.68 9.024 2.939 18.018 6.966 25.807 12.587 9.384 6.772 14.342 13.953 17.026 19.14-2.686-5.19-7.441-12.477-16.744-19.521-7.713-5.84-16.694-10.11-25.749-13.223a134.63 134.63 0 0 0-13.536-3.852c-5.739-1.315-14.913-2.932-27.106-3.856-12.201-0.925-22.793-0.828-29.744-0.731z" fill="#f9f9f9"/>
</svg>
