<svg xmlns="http://www.w3.org/2000/svg" viewBox="0 0 256 256">
    <path fill="#bce6fc" d="M250.023 15.188c0-5.265-4.269-9.533-9.533-9.533H15.51a9.533 9.533 0 0 0-9.533 9.533v225.624c0 5.264 4.268 9.533 9.533 9.533h23.869c55.449-32.614 121.788-32.61 177.238 0h23.873c5.264 0 9.533-4.269 9.533-9.533z"/>
    <path fill="#d8f0fa" d="M250.023 76.387a347.61 347.61 0 0 0-244.046.003v164.422c0 5.264 4.268 9.533 9.533 9.533h23.869c55.449-32.614 121.788-32.61 177.238 0h23.873c5.264 0 9.533-4.269 9.533-9.533z"/>
    <path fill="#f1faf9" d="M250.023 119.829c-77.978-33.794-166.068-33.792-244.046.003v120.98c0 5.264 4.268 9.533 9.533 9.533h23.869c55.449-32.614 121.788-32.61 177.238 0h23.873c5.264 0 9.533-4.269 9.533-9.533z"/>
    <path fill="#7ec21f" d="M250.023 136.893v35.912l-89.582 2.097-17.67-31.502c30.352-6.03 104.552-9.526 107.252-6.507z"/>
    <path fill="#5cb12a" d="M250.023 141.977s-4.289.952-20.177 3.971c-15.89 3.02-30.825 9.79-39.881 10.805-9.056 1.015-30.187 8.42-30.187 8.42l.663 9.73 89.582-2.098z"/>
    <path fill="none" stroke="#000" stroke-linecap="round" stroke-linejoin="round" stroke-miterlimit="10" d="M142.772 143.4l17.67 31.502 89.581-2.097v-35.912c-2.7-3.02-76.9.477-107.251 6.507z"/>
    <path fill="#edc72c" d="M5.977 134.668s131.715-19.543 180.872 36.383L5.977 197.428z"/>
    <path fill="#d18f21" d="M168.675 172.96c-38.086 2.71-60.694 1.589-106.453 9.533-23.687 4.113-34.16-6.673-56.245-.476v58.795c0 5.264 4.268 9.533 9.533 9.533h224.98c5.264 0 9.533-4.269 9.533-9.533v-68.007c-54.496-6.47-51.884-1.941-81.348.155z"/>
    <path fill="#f5b624" d="M66.664 181.738c11.085-1.843 20.8-3.145 29.75-4.107 0 0-20.26 19.797-8.215 72.713H57.413c-6.35-59.491 9.251-68.606 9.251-68.606zM130.857 175.046c8.273-.425 16.626-.787 25.732-1.312 0 0-17.944 18.77-1.181 76.611h-32.175c-10.724-60.94 7.624-75.299 7.624-75.299zM186.85 171.052c7.369-.962 13.402-1.755 23.493-1.567 0 0-16.009 27.943 22.363 80.86H190.76c-17.001-51.169-3.911-79.294-3.91-79.293zM34.024 181.562c-8.525-1.446-16.774-2.708-28.047.455v58.795c0 4.247 2.78 7.844 6.618 9.076l16.347.457c-12.046-54.51 5.082-68.783 5.082-68.783z"/>
    <path fill="#fac52b" d="M138.646 250.345H240.49c5.264 0 9.533-4.269 9.533-9.533v-56.12c-53.76 7.092-111.695 56.922-111.377 65.653z"/>
    <path fill="#fcd44a" d="M201.905 200.495a226.65 226.65 0 0 0-11.145 5.965s5.282 27.393 0 43.885h41.946c-9.494-41.278-30.8-49.848-30.8-49.848zM213.973 194.946c3.78-1.586 7.61-3.047 11.47-4.354 0 0 16.477 2.507 24.58 11.683v23.145c-9.89-18.021-36.05-30.474-36.05-30.474z"/>
    <path fill="none" stroke="#000" stroke-miterlimit="10" d="M186.849 171.05C137.692 115.126 5.977 134.669 5.977 134.669v106.144c0 5.264 4.268 9.533 9.533 9.533h224.98c5.264 0 9.533-4.269 9.533-9.533v-68.007c-40.2-4.772-49.326-3.56-63.174-1.754z"/>
    <path fill="#fbd000" stroke="#000" stroke-linecap="round" stroke-linejoin="round" stroke-miterlimit="10" d="M117.476 133.092S72.91 165.527 67.65 250.345H56.14c7.673-81.2 61.336-117.253 61.336-117.253z"/>
    <path fill="#fbd000" stroke="#000" stroke-linecap="round" stroke-linejoin="round" stroke-miterlimit="10" d="M120.15 153.903s-30.844 17.232-35.756 96.442h-10.75c7.166-75.833 46.506-96.442 46.506-96.442zM124.12 250.345h10.978c49.473-56.292 94.023-44.039 94.023-44.039s-55.89-15.48-105.002 44.04zM44.667 250.345c28.302-38.788 26.848-142.513 26.848-142.513s1.454 84.773-43.889 142.513zM173.911 190.831s-38.93 13.738-78.215 59.514H84.394c36.999-50.672 89.517-59.514 89.517-59.514z"/>
    <path fill="#f8bb01" stroke="#000" stroke-linecap="round" stroke-linejoin="round" stroke-miterlimit="10" stroke-width=".95331" d="M70.191 250.345l45.366-50.17 4.056 3.377-43.208 46.793z"/>
    <path fill="#ffe032" stroke="#000" stroke-linecap="round" stroke-linejoin="round" stroke-miterlimit="10" d="M172.859 104.376s-8.44 22.574-11.336 26.201c-5.045 2.35-15.643 9.063-10.034 22.233 15.106-1.501 13.664-16.473 12.658-21.915 4.783-11.1 8.712-26.52 8.712-26.52z"/>
    <path fill="#ffe032" stroke="#000" stroke-linecap="round" stroke-linejoin="round" stroke-miterlimit="10" d="M182.062 120.263s-10.778 27.205-15.35 30.083c-5.478-.899-21.112-1.772-21.492 17.44 16.524 5.53 21.75-10.12 23.018-15.39 7.25-9.997 13.824-32.133 13.824-32.133z"/>
    <path fill="#ffe032" stroke="#000" stroke-linecap="round" stroke-linejoin="round" stroke-miterlimit="10" d="M143.48 168.258c-11.207-12.959-2.049-24.47 1.195-27.845 1.992-10.506 13.827-28.369 13.827-28.369s-13.365 26.397-11.829 28.38c3.374 3.73 13.475 17.069-3.192 27.834z"/>
    <path fill="#ffe032" stroke="#000" stroke-linecap="round" stroke-linejoin="round" stroke-miterlimit="10" d="M183.377 143.387s-8.655 13.149-20.686 26.845c-4.457-3.212-18.155-11.052-27.048 6.066 12.93 12.853 25.055-.56 27.886-4.112 11.848-12.362 19.848-28.8 19.848-28.8z"/>
    <path fill="#ffe032" stroke="#000" stroke-linecap="round" stroke-linejoin="round" stroke-miterlimit="10" d="M135.619 179.607c-11.442-16.102-2.23-28.414-.076-30.814 2.616-14.392 9.8-28.858 9.8-28.858s-6.09 17.973-8.165 29.133c3.518 3.04 11.561 16.427-1.56 30.539z"/>
    <path fill="#ffe032" stroke="#000" stroke-linecap="round" stroke-linejoin="round" stroke-miterlimit="10" d="M159.498 181.82s-24.997-12.037-32.935 6.601c16.722 13.69 32.935-6.6 32.935-6.6z"/>
    <path fill="#ffe032" stroke="#000" stroke-linecap="round" stroke-linejoin="round" stroke-miterlimit="10" d="M127.668 192.534c-19.884-16.22-.071-32.064-.071-32.064s17.998 16.265.071 32.064z"/>
    <path fill="#ffe032" stroke="#000" stroke-linecap="round" stroke-linejoin="round" stroke-miterlimit="10" d="M149.666 195.654s-22.45-16.419-34.9 6.096c22.09 13.589 34.9-6.096 34.9-6.096z"/>
    <path fill="#ffe032" stroke="#000" stroke-linecap="round" stroke-linejoin="round" stroke-miterlimit="10" d="M117.618 204.57c-18.907-15.11-.091-35.003-.091-35.003s19.18 19.94.091 35.002z"/>
    <path fill="#ffe032" stroke="#000" stroke-linecap="round" stroke-linejoin="round" stroke-miterlimit="10" d="M139.126 208.417s-22.884-17.445-31.369 6.455c23.704 13.325 31.369-6.455 31.369-6.455z"/>
    <path fill="#ffe032" stroke="#000" stroke-linecap="round" stroke-linejoin="round" stroke-miterlimit="10" d="M108.584 213.082c19.822-18.745.908-32.692.908-32.692s-17.03 14.495-.908 32.692z"/>
    <path fill="#f8bb01" stroke="#000" stroke-linecap="round" stroke-linejoin="round" stroke-miterlimit="10" stroke-width="1.00002219" d="M159.06 250.345l15.308-25.139-3.317-2.222-16.365 27.361z"/>
    <path fill="#ffe032" stroke="#000" stroke-linecap="round" stroke-linejoin="round" stroke-miterlimit="10" d="M231.64 163.068s-14.572 10.941-16.586 13.814c-.626 4.16-3.235 13.284-13.987 12.026-2.133-11.277 9.035-13.428 13.198-13.86 7.03-5.839 17.375-11.98 17.375-11.98z"/>
    <path fill="#ffe032" stroke="#000" stroke-linecap="round" stroke-linejoin="round" stroke-miterlimit="10" d="M218.15 159.782s-17.435 13.625-18.544 17.558c1.82 3.78 5.792 14.935-8.064 19.314-7.54-10.807 2.696-17.94 6.252-19.984 5.7-7.392 20.356-16.888 20.356-16.888z"/>
    <path fill="#ffe032" stroke="#000" stroke-linecap="round" stroke-linejoin="round" stroke-miterlimit="10" d="M191.57 198.014c11.792 5.364 18.19-3.736 19.944-6.81 7.199-3.687 17.628-16.085 17.628-16.085s-16.298 15.33-18.062 14.64c-3.426-1.652-15.256-6.133-19.51 8.255z"/>
    <path fill="#ffe032" stroke="#000" stroke-linecap="round" stroke-linejoin="round" stroke-miterlimit="10" d="M201.096 163.764s-7.689 9.086-15.059 20.737c3.283 2.548 11.892 10.812 1.373 20.918-12.084-6.638-4.944-18.298-2.968-21.108 6.44-11.235 16.654-20.547 16.654-20.547z"/>
    <path fill="#ffe032" stroke="#000" stroke-linecap="round" stroke-linejoin="round" stroke-miterlimit="10" stroke-width=".953" d="M185.016 206.14c14.124 4.863 21.088-4.448 22.37-6.523 9.884-4.969 18.843-13.268 18.843-13.268s-11.738 8.253-19.391 12.142c-2.959-1.903-14.385-4.88-21.822 7.65z"/>
    <path fill="#ffe032" stroke="#000" stroke-linecap="round" stroke-linejoin="round" stroke-miterlimit="10" stroke-width=".953" d="M178.312 189.29s14.068 15.565 2.244 25.3c-13.502-9.208-2.244-25.3-2.244-25.3z"/>
    <path fill="#ffe032" stroke="#000" stroke-linecap="round" stroke-linejoin="round" stroke-miterlimit="10" d="M177.336 214.668c16.01 10.963 23.273-6.794 23.273-6.794s-15.641-9.584-23.273 6.794z"/>
    <path fill="#ffe032" stroke="#000" stroke-linecap="round" stroke-linejoin="round" stroke-miterlimit="10" d="M170.376 199.376s16.703 12.781 3.03 26.62c-14.575-13.126-3.03-26.62-3.03-26.62z"/>
    <path fill="#ffe032" stroke="#000" stroke-linecap="round" stroke-linejoin="round" stroke-miterlimit="10" d="M170.751 224.527c14.995 10.493 25.41-7.405 25.41-7.405s-18.56-9.658-25.41 7.405z"/>
    <path fill="#ffe032" stroke="#000" stroke-linecap="round" stroke-linejoin="round" stroke-miterlimit="10" d="M163.368 209.748s17.538 12.875 2.012 24.133c-14.727-14.35-2.012-24.133-2.012-24.133z"/>
    <path fill="#ffe032" stroke="#000" stroke-linecap="round" stroke-linejoin="round" stroke-miterlimit="10" d="M166.501 232.9c9.368-18.382 23.524-7.638 23.524-7.638s-6.878 15.447-23.524 7.638z"/>
    <path fill="#f8bb01" stroke="#000" stroke-linecap="round" stroke-linejoin="round" stroke-miterlimit="10" stroke-width="1.00002219" d="M68.167 250.345l-16.063-45.622-4.135 1.267 16.137 44.355z"/>
    <path fill="#ffe032" stroke="#000" stroke-linecap="round" stroke-linejoin="round" stroke-miterlimit="10" d="M39.083 114.177s-.77 19.74.27 23.4c3.071 3.375 8.96 11.806.547 19.99-10.944-5.92-5.113-16.784-2.63-20.58-.1-9.906 1.813-22.81 1.813-22.81z"/>
    <path fill="#ffe032" stroke="#000" stroke-linecap="round" stroke-linejoin="round" stroke-miterlimit="10" d="M27.091 123.276s-.466 23.983 2.08 27.606c4.427 1.053 16.524 5.345 10.726 19.992-14.246-1.053-13.24-14.54-12.53-18.927-2.315-9.853-.276-28.671-.276-28.671z"/>
    <path fill="#ffe032" stroke="#000" stroke-linecap="round" stroke-linejoin="round" stroke-miterlimit="10" d="M41.064 171.784c12.576-6.25 9.3-17.855 7.914-21.433 1.822-8.573-1.47-25.828-1.47-25.828s1.746 24.192-.045 25.204c-3.73 1.75-15.593 8.637-6.399 22.057z"/>
    <path fill="#ffe032" stroke="#000" stroke-linecap="round" stroke-linejoin="round" stroke-miterlimit="10" d="M18.774 140.34s2.382 12.686 7.14 26.852c4.387-1.016 17.226-2.607 18.53 13.153-13.847 5.621-18.768-8.36-19.782-11.941-5.044-13.1-5.888-28.064-5.888-28.064z"/>
    <path fill="#ffe032" stroke="#000" stroke-linecap="round" stroke-linejoin="round" stroke-miterlimit="10" d="M43.414 182.853c13.749-8.55 10.683-20.778 9.815-23.274 2.58-11.71 1.729-24.923 1.729-24.923s-1.088 15.517-3.053 24.611c-3.622 1.187-13.943 8.759-8.491 23.586z"/>
    <path fill="#ffe032" stroke="#000" stroke-linecap="round" stroke-linejoin="round" stroke-miterlimit="10" d="M24.658 176.963s22.712-1.182 22.81 15.422c-16.978 5.056-22.81-15.422-22.81-15.422z"/>
    <path fill="#ffe032" stroke="#000" stroke-linecap="round" stroke-linejoin="round" stroke-miterlimit="10" d="M45.33 195.145c20.172-5.968 10.21-24.22 10.21-24.22s-18.761 6.599-10.21 24.22z"/>
    <path fill="#ffe032" stroke="#000" stroke-linecap="round" stroke-linejoin="round" stroke-miterlimit="10" d="M27.71 190.537s22.175-5.303 24.458 15.663c-21.007 3.277-24.458-15.663-24.458-15.663z"/>
    <path fill="#ffe032" stroke="#000" stroke-linecap="round" stroke-linejoin="round" stroke-miterlimit="10" d="M49.118 207.428c19.08-5.436 11.153-26.438 11.153-26.438s-20.815 9.003-11.153 26.438z"/>
    <path fill="#ffe032" stroke="#000" stroke-linecap="round" stroke-linejoin="round" stroke-miterlimit="10" d="M31.638 203.525s22.827-5.943 21.672 14.817c-22.141 2.567-21.672-14.817-21.672-14.817z"/>
    <path fill="#ffe032" stroke="#000" stroke-linecap="round" stroke-linejoin="round" stroke-miterlimit="10" d="M53.254 216.726c-9.052-20.452 9.667-25.007 9.667-25.007s8.284 16.352-9.667 25.007z"/>
    <path fill="none" stroke="#000" stroke-miterlimit="10" stroke-width=".953" d="M250.023 240.812c0 5.264-4.269 9.533-9.533 9.533H15.51c-5.265 0-9.533-4.269-9.533-9.533V15.188a9.533 9.533 0 0 1 9.533-9.533h224.98c5.264 0 9.533 4.268 9.533 9.533z"/>
</svg>
