<?xml version="1.0" encoding="UTF-8"?>
<!-- Created with Inkscape (http://www.inkscape.org/) -->
<svg version="1.1" viewBox="0 0 256 256" xmlns="http://www.w3.org/2000/svg">
 <style>svg { cursor: default; }</style>
 <g fill-rule="evenodd" stroke="#000" stroke-width="1.102">
  <path d="m200.33 88.467c15.734-3.27 24.915-1.298 35.475 2.585l-4.68 1.796c-11.978-3.696-18.789-2.22-32.5-0.466zm-144.51 1.476c-15.43-4.496-24.736-3.25-35.569-0.209l4.524 2.158c12.232-2.744 18.906-0.737 32.437 2.088z" fill="#faa"/>
  <path d="m31.032 52.58c2.923-9.272 8.304 8.804 0.787 3.741-61.02 18.319 16.483 45.418 96.469 44.888 49.173-0.326 162.28-11.631 98.634-47.841-5.773 2.544-2.003-10.43 1.182-4.528 57.164 32.552 5.007 57.224-99.62 58.078-125.54 1.025-151.55-41.63-97.452-54.338z" fill="#f55"/>
  <path d="m104.89 81.66c3.88-4.235 15.268-6.828 20.611 3.699 2.69 5.298 0.646 16.719-14.068 17.043-19.355 0.427-43.477-26.458-49.699-23.248-7.016 3.62-2.033 15.677 5.847 10.72 6.224-3.917 9.434 2.595 3.116 6.37-6.11 3.649-14.217 0.775-17.372-4.808-3.421-6.053-1.313-15.116 7.574-17.85 9.879-3.04 27.75 18.561 49.142 23.248 8.23 0.487 11.024-4.48 9.648-8.676-1.943-5.926-7.707-5.37-11.597-1.765-3.791 3.512-6.662-0.957-3.202-4.733zm46.488 0.214c-3.88-4.234-15.269-6.827-20.612 3.7-2.689 5.297-0.646 16.718 14.07 17.043 19.354 0.427 43.476-26.458 49.698-23.249 7.015 3.62 2.033 15.677-5.847 10.72-6.224-3.916-9.434 2.596-3.116 6.37 6.109 3.65 14.217 0.775 17.372-4.807 3.42-6.053 1.312-15.117-7.574-17.851-9.88-3.04-27.75 18.562-49.142 23.248-8.23 0.488-11.025-4.48-9.649-8.675 1.944-5.927 7.708-5.37 11.598-1.766 3.79 3.512 6.662-0.957 3.202-4.733z" fill="#ff8080"/>
 </g>
 <g fill="#ffd5d5" stroke="#000">
  <path d="m126.12 81.226c-7.98-0.68-11.77-4.802-12.403-11.517-1.839-1.938 0.186-3.456 1.772-1.772 8.278 0.778 11.493 5.27 11.911 11.812 2.008 2.232 0.184 3.075-1.28 1.477zm4.752-0.201c7.98-0.68 11.77-4.801 12.403-11.517 1.84-1.937-0.186-3.456-1.772-1.772-8.277 0.779-11.492 5.27-11.91 11.813-2.009 2.231-0.184 3.075 1.28 1.476z" fill-rule="evenodd" stroke-width="1.102"/>
  <path d="m127.54 75.465c-4.974-6.276-4.573-11.861-0.117-16.925 0.15-2.667 2.644-2.234 2.505 0.075 5.108 6.56 4.041 11.98-0.435 16.77-0.248 2.991-2.113 2.241-1.952 0.08z" fill-rule="evenodd" stroke-width="1.102"/>
  <g stroke-linecap="round" stroke-linejoin="round" stroke-width=".813">
   <ellipse cx="94.294" cy="73.073" rx="2.899" ry="2.862"/>
   <ellipse cx="94.773" cy="86.215" rx="2.899" ry="2.862"/>
   <ellipse cx="89.015" cy="83.483" rx="2.899" ry="2.862"/>
   <ellipse cx="88.498" cy="76.986" rx="2.899" ry="2.862"/>
   <ellipse cx="100.31" cy="76.026" rx="2.899" ry="2.862"/>
   <ellipse cx="100.46" cy="82.597" rx="2.899" ry="2.862"/>
  </g>
 </g>
 <g fill="#faa" stroke="#000" stroke-linecap="round" stroke-linejoin="round" stroke-width="1.102">
  <ellipse cx="111.99" cy="90.361" rx="4.676" ry="4.774"/>
  <ellipse cx="145.33" cy="90.5" rx="4.676" ry="4.774"/>
  <ellipse cx="64.103" cy="86.741" rx="4.676" ry="4.774"/>
  <ellipse cx="192.04" cy="86.532" rx="4.676" ry="4.774"/>
 </g>
 <g fill="#ffd5d5" stroke="#000" stroke-linecap="round" stroke-linejoin="round" stroke-width=".659">
  <ellipse transform="rotate(1.127)" cx="49.309" cy="85.056" rx="2.348" ry="2.318"/>
  <ellipse transform="rotate(1.127)" cx="37.824" cy="84.43" rx="2.348" ry="2.318"/>
  <ellipse transform="rotate(1.127)" cx="43.618" cy="84.169" rx="2.348" ry="2.318"/>
 </g>
 <path d="m200.91 96.944c8.108-0.566 17.573-2.5 25.794-5.122 0.611-0.233 1.215-0.47 1.81-0.71 4.223-1.703 8.008-3.583 10.944-5.526 1.468-0.972 2.723-1.96 3.712-2.947 0.99-0.988 1.707-1.97 2.103-2.925-0.5 0.896-1.3 1.786-2.344 2.662-1.046 0.878-2.344 1.75-3.845 2.602-3.002 1.705-6.824 3.34-11.07 4.798-0.597 0.205-1.203 0.407-1.817 0.605-7.943 3.063-17.237 5.49-25.287 6.563zm-9.811-21.769c1.763-0.206 3.427 0.26 4.868 1.11 1.192 0.702 2.253 1.678 3.115 2.799 0.218 0.209 0.429 0.427 0.632 0.652 1.155 1.285 2.053 2.824 2.528 4.42 0.474 1.59 0.536 3.26-0.02 4.803 0.778-1.458 0.985-3.183 0.713-4.956-0.272-1.767-1.016-3.557-2.104-5.14a13.76 13.76 0 0 0-0.607-0.817c-1.154-1.097-2.483-1.976-3.89-2.524-1.716-0.668-3.515-0.832-5.235-0.347zm-78.141 4.614c1.763-0.206 3.428 0.261 4.868 1.11 1.193 0.702 2.254 1.678 3.116 2.799 0.217 0.209 0.428 0.427 0.631 0.653 1.155 1.284 2.053 2.823 2.53 4.42 0.473 1.589 0.535 3.26-0.022 4.803 0.779-1.46 0.986-3.184 0.713-4.957-0.271-1.766-1.015-3.557-2.104-5.14a13.76 13.76 0 0 0-0.606-0.817c-1.155-1.097-2.484-1.976-3.891-2.524-1.716-0.668-3.514-0.832-5.235-0.347zm2.522-9.963c2.824 0.36 4.88 1.612 6.26 3.206 0.165 0.12 0.325 0.246 0.482 0.378 1.788 1.498 3.041 3.67 3.615 6.094-0.102-2.465-0.922-5.02-2.598-7.083-0.148-0.182-0.302-0.36-0.464-0.534-2.002-1.46-4.461-2.216-7.295-2.061zm13.234-10.125c1.658 2.315 2.14 4.673 1.911 6.77 0.024 0.202 0.04 0.405 0.051 0.61 0.119 2.329-0.619 4.725-2.005 6.795 1.737-1.752 3.05-4.092 3.422-6.723 0.032-0.232 0.058-0.467 0.075-0.704-0.292-2.46-1.412-4.777-3.454-6.748zm12.767 9.156c0.104 0.458 0.106 0.902 0.022 1.337a4.16 4.16 0 0 1-0.328 0.985 4.4 4.4 0 0 1-0.056 0.37c-0.2 1.039-0.796 2.27-1.844 3.703 1.244-1.228 2.136-2.358 2.647-3.43 0.064-0.136 0.123-0.27 0.175-0.406 0.043-0.44 0.025-0.85-0.05-1.23a3.416 3.416 0 0 0-0.567-1.329zm3.235 18.574a1.07 1.07 0 0 1 0.628-0.02c0.209 0.05 0.423 0.152 0.63 0.292 0.42 0.28 0.823 0.72 1.11 1.24 0.066 0.123 0.127 0.248 0.18 0.377 0.308 0.328 0.57 0.737 0.72 1.209 0.193 0.615 0.203 1.37-0.181 2.198 0.587-0.697 0.874-1.473 0.9-2.284a4.267 4.267 0 0 0-0.35-1.793 4.668 4.668 0 0 0-0.37-0.413c-0.544-0.54-1.187-0.91-1.785-1.061-0.301-0.075-0.59-0.095-0.849-0.051-0.26 0.043-0.475 0.148-0.633 0.306zm-33.47-0.041a1.07 1.07 0 0 1 0.629-0.02c0.208 0.05 0.422 0.152 0.63 0.292 0.419 0.28 0.822 0.72 1.109 1.24 0.067 0.123 0.127 0.249 0.18 0.377 0.309 0.328 0.571 0.737 0.72 1.209 0.194 0.615 0.203 1.37-0.18 2.198 0.586-0.696 0.873-1.473 0.9-2.284a4.267 4.267 0 0 0-0.35-1.792 4.67 4.67 0 0 0-0.37-0.414c-0.545-0.54-1.187-0.91-1.786-1.06-0.3-0.076-0.59-0.096-0.848-0.052-0.26 0.043-0.475 0.148-0.634 0.306zm80.013-4.02a1.07 1.07 0 0 1 0.628-0.021c0.208 0.05 0.423 0.153 0.63 0.292 0.42 0.28 0.823 0.72 1.109 1.24 0.067 0.123 0.127 0.249 0.18 0.377 0.31 0.328 0.571 0.737 0.72 1.209 0.194 0.615 0.203 1.37-0.18 2.198 0.587-0.696 0.873-1.473 0.9-2.284a4.267 4.267 0 0 0-0.35-1.792 4.669 4.669 0 0 0-0.37-0.413c-0.544-0.54-1.187-0.912-1.786-1.062-0.3-0.075-0.59-0.095-0.848-0.051-0.26 0.043-0.475 0.148-0.633 0.306zm-128.04 0.47a1.07 1.07 0 0 1 0.629-0.02c0.208 0.05 0.422 0.153 0.63 0.292 0.419 0.28 0.822 0.721 1.109 1.24 0.067 0.123 0.127 0.249 0.18 0.377 0.309 0.328 0.571 0.737 0.72 1.209 0.194 0.615 0.203 1.37-0.18 2.198 0.586-0.696 0.873-1.473 0.9-2.284a4.267 4.267 0 0 0-0.35-1.792 4.669 4.669 0 0 0-0.37-0.413c-0.545-0.54-1.187-0.912-1.786-1.062-0.3-0.075-0.59-0.095-0.848-0.051-0.26 0.043-0.475 0.148-0.634 0.306z" fill="#fff" fill-rule="evenodd"/>
 <ellipse cx="94.429" cy="79.299" rx="4.676" ry="4.774" fill="#faa" stroke="#000" stroke-linecap="round" stroke-linejoin="round" stroke-width="1.102"/>
 <path d="m93.399 76.084a1.07 1.07 0 0 1 0.629-0.02c0.208 0.05 0.422 0.152 0.63 0.292 0.419 0.28 0.822 0.72 1.109 1.24 0.067 0.123 0.127 0.248 0.18 0.377 0.309 0.328 0.571 0.737 0.72 1.208 0.194 0.616 0.203 1.37-0.18 2.198 0.586-0.696 0.873-1.472 0.9-2.283a4.267 4.267 0 0 0-0.35-1.793 4.669 4.669 0 0 0-0.37-0.413c-0.545-0.54-1.187-0.911-1.786-1.061-0.3-0.075-0.59-0.095-0.848-0.052-0.26 0.044-0.475 0.15-0.634 0.307z" fill="#fff" fill-rule="evenodd"/>
 <g fill="#ffd5d5" stroke="#000" stroke-linecap="round" stroke-linejoin="round" stroke-width=".813">
  <ellipse cx="161.23" cy="73.697" rx="2.899" ry="2.862"/>
  <ellipse cx="161.71" cy="86.838" rx="2.899" ry="2.862"/>
  <ellipse cx="155.95" cy="84.107" rx="2.899" ry="2.862"/>
  <ellipse cx="155.43" cy="77.61" rx="2.899" ry="2.862"/>
  <ellipse cx="167.24" cy="76.65" rx="2.899" ry="2.862"/>
  <ellipse cx="167.39" cy="83.221" rx="2.899" ry="2.862"/>
 </g>
 <ellipse cx="161.36" cy="79.923" rx="4.676" ry="4.774" fill="#faa" stroke="#000" stroke-linecap="round" stroke-linejoin="round" stroke-width="1.102"/>
 <path d="m160.33 76.708a1.07 1.07 0 0 1 0.628-0.02c0.209 0.05 0.423 0.152 0.63 0.292 0.42 0.28 0.823 0.72 1.11 1.24 0.066 0.123 0.127 0.248 0.18 0.377 0.308 0.328 0.57 0.737 0.72 1.208 0.193 0.616 0.203 1.37-0.181 2.198 0.587-0.696 0.874-1.472 0.9-2.283a4.266 4.266 0 0 0-0.35-1.793 4.667 4.667 0 0 0-0.37-0.413c-0.544-0.54-1.187-0.911-1.785-1.061-0.301-0.076-0.59-0.095-0.849-0.052-0.26 0.044-0.475 0.149-0.633 0.307z" fill="#fff" fill-rule="evenodd"/>
 <g fill="#ffd5d5" stroke="#000" stroke-linecap="round" stroke-linejoin="round" stroke-width=".659">
  <ellipse transform="rotate(-2.374)" cx="217.87" cy="94.511" rx="2.348" ry="2.318"/>
  <ellipse transform="rotate(-2.374)" cx="206.38" cy="93.884" rx="2.348" ry="2.318"/>
  <ellipse transform="rotate(-2.374)" cx="212.18" cy="93.623" rx="2.348" ry="2.318"/>
 </g>
 <g transform="matrix(.50767 .12737 -.12737 .50767 -74.331 46.022)" fill="#f59" stroke="#000" stroke-width="1.499">
  <path d="m395.49 65.143a49.228 49.228 0 0 0-49.229 49.229 49.228 49.228 0 0 0 49.229 49.227 49.228 49.228 0 0 0 49.227-49.227 49.228 49.228 0 0 0-49.227-49.229zm0 13.34a35.887 35.887 0 0 1 35.887 35.889 35.887 35.887 0 0 1-35.887 35.887 35.887 35.887 0 0 1-35.887-35.887 35.887 35.887 0 0 1 35.887-35.889z" stroke-linecap="round" stroke-linejoin="round"/>
  <path d="m386.41 162.16 0.0482 16.571-22.913 0.0935v15.736h22.495l0.1034 24.494h18.608l-0.197-24.307 22.861-0.18629-0.0449-15.922h-22.819l0.059-16.454" fill-rule="evenodd"/>
 </g>
 <g transform="matrix(.47324 -.22355 .22355 .47324 -75.263 173.22)" fill="#ff077e" stroke="#000" stroke-width="1.499">
  <path d="m395.49 65.143a49.228 49.228 0 0 0-49.229 49.229 49.228 49.228 0 0 0 49.229 49.227 49.228 49.228 0 0 0 49.227-49.227 49.228 49.228 0 0 0-49.227-49.229zm0 13.34a35.887 35.887 0 0 1 35.887 35.889 35.887 35.887 0 0 1-35.887 35.887 35.887 35.887 0 0 1-35.887-35.887 35.887 35.887 0 0 1 35.887-35.889z" stroke-linecap="round" stroke-linejoin="round"/>
  <path d="m386.41 162.16 0.0482 16.571-22.913 0.0935v15.736h22.495l0.1034 24.494h18.608l-0.197-24.307 22.861-0.18629-0.0449-15.922h-22.819l0.059-16.454" fill-rule="evenodd"/>
 </g>
 <path d="m130.86 156.15c-0.29847 2.8009-1.1263 5.5293-2.3159 7.4899 1.6606 1.4221 4.0391 1.5597 6.5693 1.4258 1.0198-2.4117 1.7938-4.9914 2.1296-7.7246-2.0397-0.80755-3.9736-2.1097-6.3832-1.1912z" fill="#f59" stroke-width="3.1384"/>
 <path d="m128.22 163.74c1.5489-2.6343 2.1971-5.5133 2.4151-8.121" fill="none" stroke="#000" stroke-linecap="round" stroke-linejoin="round" stroke-width=".78461"/>
 <path d="m135.22 165.34c1.1635-2.5114 2.0096-5.6658 2.2774-8.2867" fill="none" stroke="#000" stroke-linecap="round" stroke-linejoin="round" stroke-width=".78461"/>
</svg>
