<svg xmlns="http://www.w3.org/2000/svg" viewBox="0 0 64 64">
    <g fill-rule="evenodd">
        <path fill="#d40055" stroke="#000" stroke-width=".993" d="M11.44 50.735c-4.492-6.496 5.168-9.645 8.811-4.563-1.115-5.973 7.888-8.941 9.675-1.237 1.37 5.91-5.285 7.914-3.893 16.907-5.007-7.78-11.092-6.046-14.592-11.107z"/>
        <path fill="#fff" fill-opacity=".785" d="M28.322 46.786c-.444-3.954-2.786-4.874-6.379-3.583 3.111-2.737 7.566-1.726 6.379 3.583z"/>
        <path fill="#d40055" stroke="#000" stroke-width=".993" d="M35.534 34.373c.748-10.267 13.49-5.596 13.04 2.54 3.841-6.981 15.745-2.66 11.154 6.629-3.52 7.127-12.162 3.738-18.245 14.017 1.286-11.991-6.532-15.189-5.95-23.186z"/>
        <path fill="#fff" fill-opacity=".785" d="M56.499 44.116c2.852-4.381 1.174-7.225-3.666-8.841 5.547-.247 9.359 4.41 3.666 8.841z"/>
        <path fill="#d40055" stroke="#000" stroke-width=".993" d="M4.854 21.533C-2.69 12.636 11.286 6.27 17.38 13.206c-2.444-8.703 10.577-14.685 14.25-3.52 2.816 8.566-6.837 12.705-3.584 25.86-8.479-10.72-17.316-7.082-23.192-14.013z"/>
        <path fill="#fff" fill-opacity=".785" d="M29.482 12.722c-1.178-5.814-4.787-6.777-9.97-4.23 4.275-4.617 11.043-3.885 9.97 4.23z"/>
        <path fill="#fc0" stroke="#000" stroke-linecap="round" stroke-linejoin="round" stroke-width="1.057" d="M57.628 3.038l-2.336 3.783c-2.713-1.26-5.054-1.104-7.145 0l-2.381-3.643-3.27.048 3.224 5.277c-2.343 4.791-1.819 8.435.186 11.487l-3.455 5.184 3.502.046 2.194-3.595c2.872.911 4.933.505 6.819-.186l2.382 3.735 3.361-.14-3.361-5.277c2.69-3.891 2.228-7.611.326-11.254l3.502-5.465h-3.548zm-6.094 5.68a4.619 5.413 0 0 1 4.619 5.41 4.619 5.413 0 0 1-4.62 5.414 4.619 5.413 0 0 1-4.618-5.413 4.619 5.413 0 0 1 4.619-5.411z"/>
    </g>
</svg>
