<svg xmlns="http://www.w3.org/2000/svg" viewBox="0 0 64 64">
    <g stroke="#000">
        <path fill="#808080" fill-rule="evenodd" stroke-width=".254" d="M38.022 18.204c7.54.255 19.923 4.65 21.537 12.614.068.339 2.246-7.575 2.246-7.575-2.165-5.175-8.674-12.718-23.558-13.93z"/>
        <path fill="#999" fill-rule="evenodd" stroke-width=".254" d="M2.114 26.03l.7 11.528c9.847 21.096 53.306 17.446 59.312-1.926l.408-10.56c-9.794 23.284-51.457 22.246-60.42.959z"/>
        <path fill="#666" fill-rule="evenodd" stroke-width=".254" d="M5.124 32.872C8.595 19.132 30.66 17.03 41.649 18.557l.064-1.669-2.963-.302-.023-4.467 3.05.212.065-2.568C26.439 8.128 8.004 12.636 3.969 22.023c-1.198 4.305-.419 7.75 1.155 10.85z"/>
        <path fill="#ececec" fill-rule="evenodd" stroke-width=".254" d="M17.224 42.116c-.299.128-.266 7.927.064 7.927 2.893 1.328 6.154 1.697 9.469 1.926.409-2.706.262-5.286.166-8.076z"/>
        <path fill="#ccc" fill-rule="evenodd" stroke-width=".254" d="M41.713 9.956c-8.761-1.435-35.676 1-37.854 14.296-1.291 7.88 10.403 14.296 18.25 15.788 13.248 2.518 34.908-1.177 38.413-13.33 2.33-8.08-8.944-15.08-18.6-16.722l.37-.514c8.527 1.324 22.388 9.17 19.993 17.599-3.895 13.705-26.895 17.042-40.91 14.48-8.628-1.576-21.282-8.94-19.011-17.411C6.1 10.199 32.014 8.17 42.034 9.442z"/>
        <path fill="#f2f2f2" fill-rule="evenodd" stroke-width=".254" d="M18.107 38.938c-.443.455-.552 1.006-.578 1.54.647.776 1.583 1.231 1.942 2.328l3.322.545c.609-.85 2.482-.867 3.723-1.3.15-.417.278-.906.594-1.412.028-.2-2.61-.569-4.793-.988-2.201-.423-4.03-.96-4.21-.713z"/>
        <path fill="#f9f9f9" stroke-linecap="round" stroke-linejoin="round" stroke-width=".247" d="M20.854 43.04a7.47 7.833 0 0 0-7.471 7.834 7.47 7.833 0 0 0 7.47 7.834 7.47 7.833 0 0 0 7.47-7.834 7.47 7.833 0 0 0-7.47-7.833zm0 1.773a5.78 6.061 0 0 1 5.78 6.061 5.78 6.061 0 0 1-5.78 6.062 5.78 6.061 0 0 1-5.78-6.062 5.78 6.061 0 0 1 5.78-6.061z"/>
        <path fill="#fff" fill-rule="evenodd" stroke-width=".254" d="M19.503 42.758c-.373.638-.61 1.528.13 2.048.769.274 1.976.303 3.123.38-.412-.712-.187-1.36.101-2.011z"/>
    </g>
</svg>
