<svg version="1.1" viewBox="0 0 64 64" xmlns="http://www.w3.org/2000/svg">
 <g transform="matrix(1.331,0,0,1.331,-10.592,-10.592)" stroke-linejoin="round">
  <path d="m32.075 16.033c-12.967-0.05025-19.693 14.374-11.861 28.023l-2.8251 0.76634 1.6096 2.9892 6.6526-2.6358c-5.6179-5.9798-3.2247-20.654 6.1286-20.716 10.419-0.06909 11.399 15.512 6.6946 20.837l6.6637 2.6712 1.5963-3.1886-2.8958-1.0749c7.9806-13.58 0.45776-27.623-11.763-27.671z" fill="none" stroke="#ffd5d5" stroke-width="3.5"/>
  <path d="m32.075 16.033c-12.967-0.05025-19.693 14.374-11.861 28.023l-2.8251 0.76634 1.6096 2.9892 6.6526-2.6358c-5.6179-5.9798-3.2247-20.654 6.1286-20.716 10.419-0.06909 11.399 15.512 6.6946 20.837l6.6637 2.6712 1.5963-3.1886-2.8958-1.0749c7.9806-13.58 0.45776-27.623-11.763-27.671z" fill="none" stroke="#ff8080" stroke-width="2"/>
  <path d="m32.075 16.033c-12.967-0.05025-19.693 14.374-11.861 28.023l-2.8251 0.76634 1.6096 2.9892 6.6526-2.6358c-5.6179-5.9798-3.2247-20.654 6.1286-20.716 10.419-0.06909 11.399 15.512 6.6946 20.837l6.6637 2.6712 1.5963-3.1886-2.8958-1.0749c7.9806-13.58 0.45776-27.623-11.763-27.671zm-3.6346 2.6798a1.952 1.9056 0 0 1 1.952 1.9056 1.952 1.9056 0 0 1-1.952 1.9064 1.952 1.9056 0 0 1-1.952-1.9064 1.952 1.9056 0 0 1 1.952-1.9056zm7.4513 0.04633a1.952 1.9056 0 0 1 1.9512 1.9056 1.952 1.9056 0 0 1-1.952 1.9056 1.952 1.9056 0 0 1-1.952-1.9056 1.952 1.9056 0 0 1 1.952-1.9056zm5.4271 4.185a1.952 1.9056 0 0 1 1.952 1.9056 1.952 1.9056 0 0 1-1.952 1.9056 1.952 1.9056 0 0 1-1.952-1.9056 1.952 1.9056 0 0 1 1.952-1.9056zm-18.996 0.46012a1.952 1.9056 0 0 1 1.952 1.9056 1.952 1.9056 0 0 1-1.952 1.9056 1.952 1.9056 0 0 1-1.952-1.9056 1.952 1.9056 0 0 1 1.952-1.9056zm-2.2519 5.6221a1.7565 1.7156 0 0 1 1.7565 1.7164 1.7565 1.7156 0 0 1-1.7565 1.7149 1.7565 1.7156 0 0 1-1.7565-1.7149 1.7565 1.7156 0 0 1 1.7565-1.7156zm23.492 0.32585a1.7565 1.7156 0 0 1 1.7565 1.7149 1.7565 1.7156 0 0 1-1.7572 1.7156 1.7565 1.7156 0 0 1-1.7565-1.7156 1.7565 1.7156 0 0 1 1.7565-1.7149z" fill="#ff8080" fill-rule="evenodd" stroke="#000" stroke-width=".53144"/>
 </g>
</svg>
