<svg version="1.1" viewBox="0 0 64 64" xmlns="http://www.w3.org/2000/svg">
 <path d="m2.0317 34.341-0.0039063-31.231 59.291 0.042969 0.023439 31.173z" fill="#fff"/>
 <g fill="#ff2a2a" stroke="#b22234" stroke-linejoin="bevel" stroke-width="2.4">
  <path d="m25.718 18.727 35.64-0.0068"/>
  <path d="m25.727 13.931 35.634-0.0016"/>
  <path d="m25.714 9.1175 35.654 0.0042"/>
  <path d="m25.716 4.3321 35.643-0.028938"/>
 </g>
 <path d="m2.0329 19.938 23.727-0.010381-0.011441-16.794-23.721-0.023551z" fill="#3c3b6e"/>
 <g fill="#ff2a2a" stroke="#b22234" stroke-linejoin="bevel" stroke-width="2.4">
  <path d="m2.0287 33.148 59.33-0.0055"/>
  <path d="m2.018 28.352 59.33-0.0055"/>
  <path d="m2.0337 23.54 59.33-0.0055"/>
 </g>
 <g fill="#fff">
  <path d="m6.5502 17.345c-0.026074 0.0215-0.513-0.39734-0.54679-0.39726-0.035648 8.1e-5 -0.56023 0.41898-0.5903 0.39983-0.028503-0.01816 0.21937-0.61068 0.20885-0.64279-0.011092-0.03388-0.5716-0.40334-0.56268-0.43785 0.00846-0.03272 0.64858 0.01992 0.67587-3e-6 0.028793-0.02102 0.20696-0.66826 0.24254-0.67044 0.03373-0.0021 0.18147 0.62299 0.20886 0.64279 0.028887 0.02089 0.69951-0.0097 0.71258 0.0235 0.012388 0.03144-0.53642 0.36511-0.54679 0.39727-0.010939 0.03393 0.22536 0.66228 0.19785 0.68496z"/>
  <path d="m4.5665 19.034c-0.026074 0.0215-0.513-0.39734-0.54679-0.39726-0.035648 8.1e-5 -0.56023 0.41898-0.5903 0.39983-0.028503-0.01816 0.21937-0.61068 0.20885-0.64279-0.011093-0.03388-0.5716-0.40334-0.56268-0.43785 0.00846-0.03272 0.64857 0.01992 0.67587-3e-6 0.028793-0.02102 0.20696-0.66826 0.24254-0.67044 0.03373-0.0021 0.18147 0.62299 0.20886 0.64279 0.028887 0.02089 0.69951-0.0097 0.71258 0.0235 0.012388 0.03144-0.53642 0.36511-0.54679 0.39727-0.010939 0.03393 0.22536 0.66228 0.19785 0.68496z"/>
  <path d="m10.511 17.346c-0.02607 0.0215-0.513-0.39734-0.54679-0.39726-0.035648 8.1e-5 -0.56023 0.41898-0.5903 0.39983-0.028503-0.01816 0.21937-0.61068 0.20885-0.64279-0.011092-0.03388-0.5716-0.40334-0.56268-0.43785 0.00846-0.03272 0.64858 0.01992 0.67587-3e-6 0.028793-0.02102 0.20696-0.66826 0.24254-0.67044 0.03373-0.0021 0.18147 0.62299 0.20886 0.64279 0.02889 0.02089 0.69951-0.0097 0.71258 0.0235 0.01239 0.03144-0.53642 0.36511-0.54679 0.39727-0.01094 0.03393 0.22536 0.66228 0.19785 0.68496z"/>
  <path d="m8.5277 19.035c-0.026074 0.0215-0.513-0.39734-0.54679-0.39726-0.035648 8.1e-5 -0.56023 0.41898-0.5903 0.39983-0.028503-0.01816 0.21937-0.61068 0.20885-0.64279-0.011092-0.03388-0.5716-0.40334-0.56268-0.43785 0.00846-0.03272 0.64857 0.01992 0.67587-3e-6 0.028793-0.02102 0.20696-0.66826 0.24254-0.67044 0.03373-0.0021 0.18147 0.62299 0.20886 0.64279 0.028887 0.02089 0.69951-0.0097 0.71258 0.0235 0.012388 0.03144-0.53642 0.36511-0.54679 0.39727-0.010939 0.03393 0.22536 0.66228 0.19785 0.68496z"/>
  <path d="m14.484 17.346c-0.02607 0.0215-0.513-0.39734-0.54679-0.39726-0.03565 8.1e-5 -0.56023 0.41898-0.5903 0.39983-0.0285-0.01816 0.21937-0.61068 0.20885-0.64279-0.01109-0.03388-0.5716-0.40334-0.56268-0.43785 0.0085-0.03272 0.64858 0.01992 0.67587-3e-6 0.02879-0.02102 0.20696-0.66826 0.24254-0.67044 0.03373-0.0021 0.18147 0.62299 0.20886 0.64279 0.02889 0.02089 0.69951-0.0097 0.71258 0.0235 0.01239 0.03144-0.53642 0.36511-0.54679 0.39727-0.01094 0.03393 0.22536 0.66228 0.19785 0.68496z"/>
  <path d="m12.5 19.035c-0.02607 0.0215-0.513-0.39734-0.54679-0.39726-0.03565 8.1e-5 -0.56023 0.41898-0.5903 0.39983-0.0285-0.01816 0.21937-0.61068 0.20885-0.64279-0.01109-0.03388-0.5716-0.40334-0.56268-0.43785 0.0085-0.03272 0.64858 0.01992 0.67587-3e-6 0.02879-0.02102 0.20696-0.66826 0.24254-0.67044 0.03373-0.0021 0.18147 0.62299 0.20886 0.64279 0.02889 0.02089 0.69951-0.0097 0.71258 0.0235 0.01239 0.03144-0.53642 0.36511-0.54679 0.39727-0.01094 0.03393 0.22536 0.66228 0.19785 0.68496z"/>
  <path d="m18.445 17.347c-0.02607 0.0215-0.513-0.39734-0.54679-0.39726-0.03565 8.1e-5 -0.56023 0.41898-0.5903 0.39983-0.0285-0.01816 0.21937-0.61068 0.20885-0.64279-0.01109-0.03388-0.5716-0.40334-0.56268-0.43785 0.0085-0.03272 0.64858 0.01992 0.67587-3e-6 0.02879-0.02102 0.20696-0.66826 0.24254-0.67044 0.03373-0.0021 0.18147 0.62299 0.20886 0.64279 0.02889 0.02089 0.69951-0.0097 0.71258 0.0235 0.01239 0.03144-0.53642 0.36511-0.54679 0.39727-0.01094 0.03393 0.22536 0.66228 0.19785 0.68496z"/>
  <path d="m16.461 19.036c-0.02607 0.0215-0.513-0.39734-0.54679-0.39726-0.03565 8.1e-5 -0.56023 0.41898-0.5903 0.39983-0.0285-0.01816 0.21937-0.61068 0.20885-0.64279-0.01109-0.03388-0.5716-0.40334-0.56268-0.43785 0.0085-0.03272 0.64858 0.01992 0.67587-3e-6 0.02879-0.02102 0.20696-0.66826 0.24254-0.67044 0.03373-0.0021 0.18147 0.62299 0.20886 0.64279 0.02889 0.02089 0.69951-0.0097 0.71258 0.0235 0.01239 0.03144-0.53642 0.36511-0.54679 0.39727-0.01094 0.03393 0.22536 0.66228 0.19785 0.68496z"/>
  <path d="m22.366 17.33c-0.02607 0.0215-0.513-0.39734-0.54679-0.39726-0.03565 8.1e-5 -0.56023 0.41898-0.5903 0.39983-0.0285-0.01816 0.21937-0.61068 0.20885-0.64279-0.01109-0.03388-0.5716-0.40334-0.56268-0.43785 0.0085-0.03272 0.64858 0.01992 0.67587-3e-6 0.02879-0.02102 0.20696-0.66826 0.24254-0.67044 0.03373-0.0021 0.18147 0.62299 0.20886 0.64279 0.02889 0.02089 0.69951-0.0097 0.71258 0.0235 0.01239 0.03144-0.53642 0.36511-0.54679 0.39727-0.01094 0.03393 0.22536 0.66228 0.19785 0.68496z"/>
  <path d="m20.383 19.019c-0.02607 0.0215-0.513-0.39734-0.54679-0.39726-0.03565 8.1e-5 -0.56023 0.41898-0.5903 0.39983-0.0285-0.01816 0.21937-0.61068 0.20885-0.64279-0.01109-0.03388-0.5716-0.40334-0.56268-0.43785 0.0085-0.03272 0.64858 0.01992 0.67587-3e-6 0.02879-0.02102 0.20696-0.66826 0.24254-0.67044 0.03373-0.0021 0.18147 0.62299 0.20886 0.64279 0.02889 0.02089 0.69951-0.0097 0.71258 0.0235 0.01239 0.03144-0.53642 0.36511-0.54679 0.39727-0.01094 0.03393 0.22536 0.66228 0.19785 0.68496z"/>
  <path d="m24.344 19.02c-0.02607 0.0215-0.513-0.39734-0.54679-0.39726-0.03565 8.1e-5 -0.56023 0.41898-0.5903 0.39983-0.0285-0.01816 0.21937-0.61068 0.20885-0.64279-0.01109-0.03388-0.5716-0.40334-0.56268-0.43785 0.0085-0.03272 0.64858 0.01992 0.67587-3e-6 0.02879-0.02102 0.20696-0.66826 0.24254-0.67044 0.03373-0.0021 0.18147 0.62299 0.20886 0.64279 0.02889 0.02089 0.69951-0.0097 0.71258 0.0235 0.01239 0.03144-0.53642 0.36511-0.54679 0.39727-0.01094 0.03393 0.22536 0.66228 0.19785 0.68496z"/>
  <path d="m6.5429 13.941c-0.026074 0.0215-0.513-0.39734-0.54679-0.39726-0.035648 8.1e-5 -0.56023 0.41898-0.5903 0.39983-0.028503-0.01816 0.21937-0.61068 0.20885-0.64279-0.011093-0.03388-0.5716-0.40334-0.56268-0.43785 0.00846-0.03272 0.64857 0.01992 0.67587-3e-6 0.028793-0.02102 0.20696-0.66826 0.24254-0.67044 0.03373-0.0021 0.18147 0.62299 0.20886 0.64279 0.028887 0.02089 0.69951-0.0097 0.71258 0.0235 0.012388 0.03144-0.53642 0.36511-0.54679 0.39727-0.010939 0.03393 0.22536 0.66228 0.19785 0.68496z"/>
  <path d="m4.5592 15.63c-0.026074 0.0215-0.513-0.39734-0.54679-0.39726-0.035648 8.1e-5 -0.56023 0.41898-0.5903 0.39983-0.028503-0.01815 0.21937-0.61068 0.20885-0.64279-0.011092-0.03388-0.5716-0.40334-0.56268-0.43785 0.00846-0.03272 0.64858 0.01992 0.67587-3e-6 0.028793-0.02102 0.20696-0.66826 0.24254-0.67044 0.03373-0.0021 0.18147 0.62299 0.20886 0.64279 0.028887 0.02089 0.69951-0.0097 0.71258 0.0235 0.012388 0.03144-0.53642 0.36511-0.54679 0.39727-0.010939 0.03393 0.22536 0.66228 0.19785 0.68496z"/>
  <path d="m10.504 13.942c-0.02607 0.0215-0.513-0.39734-0.54679-0.39726-0.035648 8.1e-5 -0.56023 0.41898-0.5903 0.39983-0.028503-0.01816 0.21937-0.61068 0.20885-0.64279-0.011093-0.03388-0.5716-0.40334-0.56268-0.43785 0.00846-0.03272 0.64858 0.01992 0.67587-3e-6 0.028793-0.02102 0.20696-0.66826 0.24254-0.67044 0.03373-0.0021 0.18147 0.62299 0.20886 0.64279 0.02889 0.02089 0.69951-0.0097 0.71258 0.0235 0.01239 0.03144-0.53642 0.36511-0.54679 0.39727-0.01094 0.03393 0.22536 0.66228 0.19785 0.68496z"/>
  <path d="m8.5204 15.631c-0.026074 0.0215-0.513-0.39734-0.54679-0.39726-0.035648 8.1e-5 -0.56023 0.41898-0.5903 0.39983-0.028503-0.01815 0.21937-0.61068 0.20885-0.64279-0.011092-0.03388-0.5716-0.40334-0.56268-0.43785 0.00846-0.03272 0.64858 0.01992 0.67587-3e-6 0.028793-0.02102 0.20696-0.66826 0.24254-0.67044 0.03373-0.0021 0.18147 0.62299 0.20886 0.64279 0.028887 0.02089 0.69951-0.0097 0.71258 0.0235 0.012388 0.03144-0.53642 0.36511-0.54679 0.39727-0.010939 0.03393 0.22536 0.66228 0.19785 0.68496z"/>
  <path d="m14.477 13.941c-0.02607 0.0215-0.513-0.39734-0.54679-0.39726-0.03565 8.1e-5 -0.56023 0.41898-0.5903 0.39983-0.0285-0.01816 0.21937-0.61068 0.20885-0.64279-0.01109-0.03388-0.5716-0.40334-0.56268-0.43785 0.0085-0.03272 0.64858 0.01992 0.67587-3e-6 0.02879-0.02102 0.20696-0.66826 0.24254-0.67044 0.03373-0.0021 0.18147 0.62299 0.20886 0.64279 0.02889 0.02089 0.69951-0.0097 0.71258 0.0235 0.01239 0.03144-0.53642 0.36511-0.54679 0.39727-0.01094 0.03393 0.22536 0.66228 0.19785 0.68496z"/>
  <path d="m12.493 15.631c-0.02607 0.0215-0.513-0.39734-0.54679-0.39726-0.03565 8.1e-5 -0.56023 0.41898-0.5903 0.39983-0.0285-0.01815 0.21937-0.61068 0.20885-0.64279-0.01109-0.03388-0.5716-0.40334-0.56268-0.43785 0.0085-0.03272 0.64858 0.01992 0.67587-3e-6 0.02879-0.02102 0.20696-0.66826 0.24254-0.67044 0.03373-0.0021 0.18147 0.62299 0.20886 0.64279 0.02889 0.02089 0.69951-0.0097 0.71258 0.0235 0.01239 0.03144-0.53642 0.36511-0.54679 0.39727-0.01094 0.03393 0.22536 0.66228 0.19785 0.68496z"/>
  <path d="m18.438 13.942c-0.02607 0.0215-0.513-0.39734-0.54679-0.39726-0.03565 8.1e-5 -0.56023 0.41898-0.5903 0.39983-0.0285-0.01816 0.21937-0.61068 0.20885-0.64279-0.01109-0.03388-0.5716-0.40334-0.56268-0.43785 0.0085-0.03272 0.64858 0.01992 0.67587-3e-6 0.02879-0.02102 0.20696-0.66826 0.24254-0.67044 0.03373-0.0021 0.18147 0.62299 0.20886 0.64279 0.02889 0.02089 0.69951-0.0097 0.71258 0.0235 0.01239 0.03144-0.53642 0.36511-0.54679 0.39727-0.01094 0.03393 0.22536 0.66228 0.19785 0.68496z"/>
  <path d="m16.454 15.631c-0.02607 0.0215-0.513-0.39734-0.54679-0.39726-0.03565 8.1e-5 -0.56023 0.41898-0.5903 0.39983-0.0285-0.01815 0.21937-0.61068 0.20885-0.64279-0.01109-0.03388-0.5716-0.40334-0.56268-0.43785 0.0085-0.03272 0.64858 0.01992 0.67587-3e-6 0.02879-0.02102 0.20696-0.66826 0.24254-0.67044 0.03373-0.0021 0.18147 0.62299 0.20886 0.64279 0.02889 0.02089 0.69951-0.0097 0.71258 0.0235 0.01239 0.03144-0.53642 0.36511-0.54679 0.39727-0.01094 0.03393 0.22536 0.66228 0.19785 0.68496z"/>
  <path d="m22.359 13.926c-0.02607 0.0215-0.513-0.39734-0.54679-0.39726-0.03565 8.1e-5 -0.56023 0.41898-0.5903 0.39983-0.0285-0.01816 0.21937-0.61068 0.20885-0.64279-0.01109-0.03388-0.5716-0.40334-0.56268-0.43785 0.0085-0.03272 0.64858 0.01992 0.67587-3e-6 0.02879-0.02102 0.20696-0.66826 0.24254-0.67044 0.03373-0.0021 0.18147 0.62299 0.20886 0.64279 0.02889 0.02089 0.69951-0.0097 0.71258 0.0235 0.01239 0.03144-0.53642 0.36511-0.54679 0.39727-0.01094 0.03393 0.22536 0.66228 0.19785 0.68496z"/>
  <path d="m20.375 15.615c-0.02607 0.0215-0.513-0.39734-0.54679-0.39726-0.03565 8.1e-5 -0.56023 0.41898-0.5903 0.39983-0.0285-0.01815 0.21937-0.61068 0.20885-0.64279-0.01109-0.03388-0.5716-0.40334-0.56268-0.43785 0.0085-0.03272 0.64858 0.01992 0.67587-3e-6 0.02879-0.02102 0.20696-0.66826 0.24254-0.67044 0.03373-0.0021 0.18147 0.62299 0.20886 0.64279 0.02889 0.02089 0.69951-0.0097 0.71258 0.0235 0.01239 0.03144-0.53642 0.36511-0.54679 0.39727-0.01094 0.03393 0.22536 0.66228 0.19785 0.68496z"/>
  <path d="m24.337 15.616c-0.02607 0.0215-0.513-0.39734-0.54679-0.39726-0.03565 8.1e-5 -0.56023 0.41898-0.5903 0.39983-0.0285-0.01815 0.21937-0.61068 0.20885-0.64279-0.01109-0.03388-0.5716-0.40334-0.56268-0.43785 0.0085-0.03272 0.64858 0.01992 0.67587-3e-6 0.02879-0.02102 0.20696-0.66826 0.24254-0.67044 0.03373-0.0021 0.18147 0.62299 0.20886 0.64279 0.02889 0.02089 0.69951-0.0097 0.71258 0.0235 0.01239 0.03144-0.53642 0.36511-0.54679 0.39727-0.01094 0.03393 0.22536 0.66228 0.19785 0.68496z"/>
  <path d="m6.5245 10.627c-0.026074 0.0215-0.513-0.39734-0.54679-0.39726-0.035648 8.1e-5 -0.56023 0.41898-0.5903 0.39983-0.028503-0.01816 0.21937-0.61068 0.20885-0.64279-0.011093-0.033879-0.5716-0.40334-0.56268-0.43785 0.00846-0.032718 0.64858 0.019922 0.67587-2.9e-6 0.028793-0.021019 0.20696-0.66826 0.24254-0.67044 0.03373-0.00207 0.18147 0.62299 0.20886 0.64279 0.028887 0.020888 0.69951-0.00967 0.71258 0.023497 0.012388 0.031441-0.53642 0.36511-0.54679 0.39727-0.010939 0.033928 0.22536 0.66228 0.19785 0.68496z"/>
  <path d="m4.5407 12.316c-0.026074 0.0215-0.513-0.39734-0.54679-0.39726-0.035648 8.1e-5 -0.56023 0.41898-0.5903 0.39983-0.028503-0.01816 0.21937-0.61068 0.20885-0.64279-0.011092-0.03388-0.5716-0.40334-0.56268-0.43785 0.00846-0.03272 0.64857 0.01992 0.67587-3e-6 0.028793-0.02102 0.20696-0.66826 0.24254-0.67044 0.03373-0.0021 0.18147 0.62299 0.20886 0.64279 0.028887 0.02089 0.69951-0.0097 0.71258 0.0235 0.012388 0.03144-0.53642 0.36511-0.54679 0.39727-0.010939 0.03393 0.22536 0.66228 0.19785 0.68496z"/>
  <path d="m10.486 10.628c-0.02607 0.0215-0.513-0.39734-0.54679-0.39726-0.035648 8.1e-5 -0.56023 0.41898-0.5903 0.39983-0.028503-0.01816 0.21937-0.61068 0.20885-0.64279-0.011093-0.033879-0.5716-0.40334-0.56268-0.43785 0.00846-0.032718 0.64858 0.019922 0.67587-2.9e-6 0.028793-0.021019 0.20696-0.66826 0.24254-0.67044 0.03373-0.00207 0.18147 0.62299 0.20886 0.64279 0.02889 0.020888 0.69951-0.00967 0.71258 0.023497 0.01239 0.031441-0.53642 0.36511-0.54679 0.39727-0.01094 0.033928 0.22536 0.66228 0.19785 0.68496z"/>
  <path d="m8.502 12.317c-0.026074 0.0215-0.513-0.39734-0.54679-0.39726-0.035648 8.1e-5 -0.56023 0.41898-0.5903 0.39983-0.028503-0.01816 0.21937-0.61068 0.20885-0.64279-0.011092-0.03388-0.5716-0.40334-0.56268-0.43785 0.00846-0.03272 0.64858 0.01992 0.67587-3e-6 0.028793-0.02102 0.20696-0.66826 0.24254-0.67044 0.03373-0.0021 0.18147 0.62299 0.20886 0.64279 0.028887 0.02089 0.69951-0.0097 0.71258 0.0235 0.012388 0.03144-0.53642 0.36511-0.54679 0.39727-0.010939 0.03393 0.22536 0.66228 0.19785 0.68496z"/>
  <path d="m14.458 10.628c-0.02607 0.0215-0.513-0.39734-0.54679-0.39726-0.03565 8.1e-5 -0.56023 0.41898-0.5903 0.39983-0.0285-0.01816 0.21937-0.61068 0.20885-0.64279-0.01109-0.033879-0.5716-0.40334-0.56268-0.43785 0.0085-0.032718 0.64858 0.019922 0.67587-2.9e-6 0.02879-0.021019 0.20696-0.66826 0.24254-0.67044 0.03373-0.00207 0.18147 0.62299 0.20886 0.64279 0.02889 0.020888 0.69951-0.00967 0.71258 0.023497 0.01239 0.031441-0.53642 0.36511-0.54679 0.39727-0.01094 0.033928 0.22536 0.66228 0.19785 0.68496z"/>
  <path d="m12.474 12.317c-0.02607 0.0215-0.513-0.39734-0.54679-0.39726-0.03565 8.1e-5 -0.56023 0.41898-0.5903 0.39983-0.0285-0.01816 0.21937-0.61068 0.20885-0.64279-0.01109-0.03388-0.5716-0.40334-0.56268-0.43785 0.0085-0.03272 0.64857 0.01992 0.67587-3e-6 0.02879-0.02102 0.20696-0.66826 0.24254-0.67044 0.03373-0.0021 0.18147 0.62299 0.20886 0.64279 0.02889 0.02089 0.69951-0.0097 0.71258 0.0235 0.01239 0.03144-0.53642 0.36511-0.54679 0.39727-0.01094 0.03393 0.22536 0.66228 0.19785 0.68496z"/>
  <path d="m18.419 10.628c-0.02607 0.0215-0.513-0.39734-0.54679-0.39726-0.03565 8.1e-5 -0.56023 0.41898-0.5903 0.39983-0.0285-0.01816 0.21937-0.61068 0.20885-0.64279-0.01109-0.033879-0.5716-0.40334-0.56268-0.43785 0.0085-0.032718 0.64858 0.019922 0.67587-2.9e-6 0.02879-0.021019 0.20696-0.66826 0.24254-0.67044 0.03373-0.00207 0.18147 0.62299 0.20886 0.64279 0.02889 0.020888 0.69951-0.00967 0.71258 0.023497 0.01239 0.031441-0.53642 0.36511-0.54679 0.39727-0.01094 0.033928 0.22536 0.66228 0.19785 0.68496z"/>
  <path d="m16.436 12.317c-0.02607 0.0215-0.513-0.39734-0.54679-0.39726-0.03565 8.1e-5 -0.56023 0.41898-0.5903 0.39983-0.0285-0.01816 0.21937-0.61068 0.20885-0.64279-0.01109-0.03388-0.5716-0.40334-0.56268-0.43785 0.0085-0.03272 0.64858 0.01992 0.67587-3e-6 0.02879-0.02102 0.20696-0.66826 0.24254-0.67044 0.03373-0.0021 0.18147 0.62299 0.20886 0.64279 0.02889 0.02089 0.69951-0.0097 0.71258 0.0235 0.01239 0.03144-0.53642 0.36511-0.54679 0.39727-0.01094 0.03393 0.22536 0.66228 0.19785 0.68496z"/>
  <path d="m22.341 10.612c-0.02607 0.0215-0.513-0.39734-0.54679-0.39726-0.03565 8.1e-5 -0.56023 0.41898-0.5903 0.39983-0.0285-0.01816 0.21937-0.61068 0.20885-0.64279-0.01109-0.033879-0.5716-0.40334-0.56268-0.43785 0.0085-0.032718 0.64858 0.019922 0.67587-2.9e-6 0.02879-0.021019 0.20696-0.66826 0.24254-0.67044 0.03373-0.00207 0.18147 0.62299 0.20886 0.64279 0.02889 0.020888 0.69951-0.00967 0.71258 0.023497 0.01239 0.031441-0.53642 0.36511-0.54679 0.39727-0.01094 0.033928 0.22536 0.66228 0.19785 0.68496z"/>
  <path d="m20.357 12.301c-0.02607 0.0215-0.513-0.39734-0.54679-0.39726-0.03565 8.1e-5 -0.56023 0.41898-0.5903 0.39983-0.0285-0.01816 0.21937-0.61068 0.20885-0.64279-0.01109-0.03388-0.5716-0.40334-0.56268-0.43785 0.0085-0.03272 0.64858 0.01992 0.67587-3e-6 0.02879-0.02102 0.20696-0.66826 0.24254-0.67044 0.03373-0.0021 0.18147 0.62299 0.20886 0.64279 0.02889 0.02089 0.69951-0.0097 0.71258 0.0235 0.01239 0.03144-0.53642 0.36511-0.54679 0.39727-0.01094 0.03393 0.22536 0.66228 0.19785 0.68496z"/>
  <path d="m24.318 12.302c-0.02607 0.0215-0.513-0.39734-0.54679-0.39726-0.03565 8.1e-5 -0.56023 0.41898-0.5903 0.39983-0.0285-0.01816 0.21937-0.61068 0.20885-0.64279-0.01109-0.03388-0.5716-0.40334-0.56268-0.43785 0.0085-0.03272 0.64858 0.01992 0.67587-3e-6 0.02879-0.02102 0.20696-0.66826 0.24254-0.67044 0.03373-0.0021 0.18147 0.62299 0.20886 0.64279 0.02889 0.02089 0.69951-0.0097 0.71258 0.0235 0.01239 0.03144-0.53642 0.36511-0.54679 0.39727-0.01094 0.03393 0.22536 0.66228 0.19785 0.68496z"/>
  <path d="m6.5392 7.2339c-0.026074 0.021498-0.513-0.39734-0.54679-0.39726-0.035648 8.05e-5 -0.56023 0.41898-0.5903 0.39983-0.028503-0.018155 0.21937-0.61068 0.20885-0.64279-0.011092-0.033878-0.5716-0.40334-0.56268-0.43785 0.00846-0.032718 0.64857 0.019922 0.67587-2.9e-6 0.028793-0.021019 0.20696-0.66826 0.24254-0.67044 0.03373-0.00207 0.18147 0.62299 0.20886 0.64279 0.028887 0.020888 0.69951-0.00967 0.71258 0.023497 0.012388 0.031441-0.53642 0.36511-0.54679 0.39727-0.010939 0.033928 0.22536 0.66228 0.19785 0.68496z"/>
  <path d="m4.5555 8.9119c-0.026074 0.021498-0.513-0.39734-0.54679-0.39726-0.035648 8.05e-5 -0.56023 0.41898-0.5903 0.39983-0.028503-0.018155 0.21937-0.61068 0.20885-0.64279-0.011092-0.033878-0.5716-0.40334-0.56268-0.43785 0.00846-0.032718 0.64858 0.019922 0.67587-2.8e-6 0.028792-0.021019 0.20696-0.66826 0.24254-0.67044 0.03373-0.00207 0.18147 0.62299 0.20886 0.64279 0.028887 0.020888 0.69951-0.00967 0.71258 0.023497 0.012388 0.031441-0.53642 0.36511-0.54679 0.39727-0.010939 0.033928 0.22536 0.66228 0.19785 0.68496z"/>
  <path d="m10.5 7.2347c-0.026074 0.021498-0.513-0.39734-0.54679-0.39726-0.035648 8.06e-5 -0.56023 0.41898-0.5903 0.39983-0.028503-0.018155 0.21937-0.61068 0.20885-0.64279-0.011092-0.033878-0.5716-0.40334-0.56268-0.43785 0.00846-0.032718 0.64857 0.019922 0.67587-2.9e-6 0.028793-0.021019 0.20696-0.66826 0.24254-0.67044 0.03373-0.00207 0.18147 0.62299 0.20886 0.64279 0.02889 0.020888 0.69951-0.00967 0.71258 0.023497 0.01239 0.031441-0.53642 0.36511-0.54679 0.39727-0.01094 0.033928 0.22536 0.66228 0.19785 0.68496z"/>
  <path d="m8.5167 8.9127c-0.026074 0.021498-0.513-0.39734-0.54679-0.39726-0.035648 8.05e-5 -0.56023 0.41898-0.5903 0.39983-0.028503-0.018155 0.21937-0.61068 0.20885-0.64279-0.011092-0.033878-0.5716-0.40334-0.56268-0.43785 0.00846-0.032718 0.64857 0.019922 0.67587-2.8e-6 0.028793-0.021019 0.20696-0.66826 0.24254-0.67044 0.03373-0.00207 0.18147 0.62299 0.20886 0.64279 0.028887 0.020888 0.69951-0.00967 0.71258 0.023497 0.012388 0.031441-0.53642 0.36511-0.54679 0.39727-0.010939 0.033928 0.22536 0.66228 0.19785 0.68496z"/>
  <path d="m14.473 7.2343c-0.02607 0.021498-0.513-0.39734-0.54679-0.39726-0.03565 8.05e-5 -0.56023 0.41898-0.5903 0.39983-0.0285-0.018155 0.21937-0.61068 0.20885-0.64279-0.01109-0.033878-0.5716-0.40334-0.56268-0.43785 0.0085-0.032718 0.64858 0.019922 0.67587-2.9e-6 0.02879-0.021019 0.20696-0.66826 0.24254-0.67044 0.03373-0.00207 0.18147 0.62299 0.20886 0.64279 0.02889 0.020888 0.69951-0.00967 0.71258 0.023497 0.01239 0.031441-0.53642 0.36511-0.54679 0.39727-0.01094 0.033928 0.22536 0.66228 0.19785 0.68496z"/>
  <path d="m12.489 8.9123c-0.02607 0.021498-0.513-0.39734-0.54679-0.39726-0.03565 8.05e-5 -0.56023 0.41898-0.5903 0.39983-0.0285-0.018155 0.21937-0.61068 0.20885-0.64279-0.01109-0.033878-0.5716-0.40334-0.56268-0.43785 0.0085-0.032718 0.64857 0.019922 0.67587-2.8e-6 0.02879-0.021019 0.20696-0.66826 0.24254-0.67044 0.03373-0.00207 0.18147 0.62299 0.20886 0.64279 0.02889 0.020888 0.69951-0.00967 0.71258 0.023497 0.01239 0.031441-0.53642 0.36511-0.54679 0.39727-0.01094 0.033928 0.22536 0.66228 0.19785 0.68496z"/>
  <path d="m18.434 7.2351c-0.02607 0.021498-0.513-0.39734-0.54679-0.39726-0.03565 8.06e-5 -0.56023 0.41898-0.5903 0.39983-0.0285-0.018155 0.21937-0.61068 0.20885-0.64279-0.01109-0.033878-0.5716-0.40334-0.56268-0.43785 0.0085-0.032718 0.64858 0.019922 0.67587-2.9e-6 0.02879-0.021019 0.20696-0.66826 0.24254-0.67044 0.03373-0.00207 0.18147 0.62299 0.20886 0.64279 0.02889 0.020888 0.69951-0.00967 0.71258 0.023497 0.01239 0.031441-0.53642 0.36511-0.54679 0.39727-0.01094 0.033928 0.22536 0.66228 0.19785 0.68496z"/>
  <path d="m16.45 8.9131c-0.02607 0.021498-0.513-0.39734-0.54679-0.39726-0.03565 8.05e-5 -0.56023 0.41898-0.5903 0.39983-0.0285-0.018155 0.21937-0.61068 0.20885-0.64279-0.01109-0.033879-0.5716-0.40334-0.56268-0.43785 0.0085-0.032718 0.64858 0.019922 0.67587-2.8e-6 0.02879-0.021019 0.20696-0.66826 0.24254-0.67044 0.03373-0.00207 0.18147 0.62299 0.20886 0.64279 0.02889 0.020888 0.69951-0.00967 0.71258 0.023497 0.01239 0.031441-0.53642 0.36511-0.54679 0.39727-0.01094 0.033928 0.22536 0.66228 0.19785 0.68496z"/>
  <path d="m22.355 7.2187c-0.02607 0.021498-0.513-0.39734-0.54679-0.39726-0.03565 8.05e-5 -0.56023 0.41898-0.5903 0.39983-0.0285-0.018155 0.21937-0.61068 0.20885-0.64279-0.01109-0.033878-0.5716-0.40334-0.56268-0.43785 0.0085-0.032718 0.64858 0.019922 0.67587-2.9e-6 0.02879-0.021019 0.20696-0.66826 0.24254-0.67044 0.03373-0.00207 0.18147 0.62299 0.20886 0.64279 0.02889 0.020888 0.69951-0.00967 0.71258 0.023497 0.01239 0.031441-0.53642 0.36511-0.54679 0.39727-0.01094 0.033928 0.22536 0.66228 0.19785 0.68496z"/>
  <path d="m20.372 8.8967c-0.026073 0.021498-0.513-0.39734-0.54679-0.39726-0.03565 8.05e-5 -0.56023 0.41898-0.5903 0.39983-0.0285-0.018155 0.21937-0.61068 0.20885-0.64279-0.01109-0.033878-0.5716-0.40334-0.56268-0.43785 0.0085-0.032718 0.64858 0.019922 0.67587-2.8e-6 0.02879-0.021019 0.20696-0.66826 0.24254-0.67044 0.03373-0.00207 0.18147 0.62299 0.20886 0.64279 0.02889 0.020888 0.69951-0.00967 0.71258 0.023497 0.01239 0.031441-0.53642 0.36511-0.54679 0.39727-0.01094 0.033928 0.22536 0.66228 0.19785 0.68496z"/>
  <path d="m24.333 8.8975c-0.02607 0.021498-0.513-0.39734-0.54679-0.39726-0.03565 8.05e-5 -0.56023 0.41898-0.5903 0.39983-0.0285-0.018155 0.21937-0.61068 0.20885-0.64279-0.01109-0.033879-0.5716-0.40334-0.56268-0.43785 0.0085-0.032718 0.64858 0.019922 0.67587-2.8e-6 0.02879-0.021019 0.20696-0.66826 0.24254-0.67044 0.03373-0.00207 0.18147 0.62299 0.20886 0.64279 0.02889 0.020888 0.69951-0.00967 0.71258 0.023497 0.01239 0.031441-0.53642 0.36511-0.54679 0.39727-0.01094 0.033928 0.22536 0.66228 0.19785 0.68496z"/>
  <path d="m4.6034 5.549c-0.026074 0.021498-0.513-0.39734-0.54679-0.39726-0.035648 8.06e-5 -0.56023 0.41898-0.5903 0.39983-0.028503-0.018155 0.21937-0.61068 0.20885-0.64279-0.011092-0.033878-0.5716-0.40334-0.56268-0.43785 0.00846-0.032718 0.64858 0.019922 0.67587-2.9e-6 0.028792-0.021019 0.20696-0.66826 0.24254-0.67044 0.03373-0.00207 0.18147 0.62299 0.20886 0.64279 0.028887 0.020888 0.69951-0.00967 0.71258 0.023497 0.012388 0.031441-0.53642 0.36511-0.54679 0.39727-0.010939 0.033928 0.22536 0.66228 0.19785 0.68496z"/>
  <path d="m8.5646 5.5498c-0.026074 0.021498-0.513-0.39734-0.54679-0.39726-0.035648 8.06e-5 -0.56023 0.41898-0.5903 0.39983-0.028503-0.018155 0.21937-0.61068 0.20885-0.64279-0.011092-0.033878-0.5716-0.40334-0.56268-0.43785 0.00846-0.032718 0.64858 0.019922 0.67587-2.9e-6 0.028793-0.021019 0.20696-0.66826 0.24254-0.67044 0.03373-0.00207 0.18147 0.62299 0.20886 0.64279 0.028887 0.020888 0.69951-0.00967 0.71258 0.023497 0.012388 0.031441-0.53642 0.36511-0.54679 0.39727-0.010939 0.033928 0.22536 0.66228 0.19785 0.68496z"/>
  <path d="m12.537 5.5494c-0.02607 0.021498-0.513-0.39734-0.54679-0.39726-0.03565 8.06e-5 -0.56023 0.41898-0.5903 0.39983-0.0285-0.018155 0.21937-0.61068 0.20885-0.64279-0.01109-0.033879-0.5716-0.40334-0.56268-0.43785 0.0085-0.032718 0.64858 0.019922 0.67587-2.9e-6 0.02879-0.021018 0.20696-0.66826 0.24254-0.67044 0.03373-0.00207 0.18147 0.62299 0.20886 0.64279 0.02889 0.020888 0.69951-0.00967 0.71258 0.023497 0.01239 0.031441-0.53642 0.36511-0.54679 0.39727-0.01094 0.033928 0.22536 0.66228 0.19785 0.68496z"/>
  <path d="m16.498 5.5502c-0.02607 0.021498-0.513-0.39734-0.54679-0.39726-0.03565 8.06e-5 -0.56023 0.41898-0.5903 0.39983-0.0285-0.018155 0.21937-0.61068 0.20885-0.64279-0.01109-0.033879-0.5716-0.40334-0.56268-0.43785 0.0085-0.032718 0.64858 0.019922 0.67587-2.9e-6 0.02879-0.021019 0.20696-0.66826 0.24254-0.67044 0.03373-0.00207 0.18147 0.62299 0.20886 0.64279 0.02889 0.020888 0.69951-0.00967 0.71258 0.023497 0.01239 0.031441-0.53642 0.36511-0.54679 0.39727-0.01094 0.033928 0.22536 0.66228 0.19785 0.68496z"/>
  <path d="m20.42 5.5338c-0.02607 0.021498-0.513-0.39734-0.54679-0.39726-0.03565 8.06e-5 -0.56023 0.41898-0.5903 0.39983-0.0285-0.018155 0.21937-0.61068 0.20885-0.64279-0.01109-0.033879-0.5716-0.40334-0.56268-0.43785 0.0085-0.032718 0.64858 0.019922 0.67587-2.9e-6 0.02879-0.021018 0.20696-0.66826 0.24254-0.67044 0.03373-0.00207 0.18147 0.62299 0.20886 0.64279 0.02889 0.020888 0.69951-0.00967 0.71258 0.023497 0.01239 0.031441-0.53642 0.36511-0.54679 0.39727-0.01094 0.033928 0.22536 0.66228 0.19785 0.68496z"/>
  <path d="m24.381 5.5346c-0.02607 0.021498-0.513-0.39734-0.54679-0.39726-0.03565 8.06e-5 -0.56023 0.41898-0.5903 0.39983-0.0285-0.018155 0.21937-0.61068 0.20885-0.64279-0.01109-0.033879-0.5716-0.40334-0.56268-0.43785 0.0085-0.032718 0.64858 0.019922 0.67587-2.9e-6 0.02879-0.021019 0.20696-0.66826 0.24254-0.67044 0.03373-0.00207 0.18147 0.62299 0.20886 0.64279 0.02889 0.020888 0.69951-0.00967 0.71258 0.023497 0.01239 0.031441-0.53642 0.36511-0.54679 0.39727-0.01094 0.033928 0.22536 0.66228 0.19785 0.68496z"/>
 </g>
 <g transform="translate(-13.603 2.3677)" stroke="#000">
  <g fill="#dfdcd5" stroke-linejoin="bevel" stroke-width=".99825">
   <rect transform="rotate(-19.118)" x="2.0381" y="41.644" width="4.8234" height="3.147" ry=".61625"/>
   <path d="m22.538 39.719 0.44366-3.6095c0.07815-0.63585 0.67222-1.1985 1.3902-1.4504l5.2004-1.8247c0.70667-0.24792 1.4857 0.11952 1.967 0.59478l2.376 2.346z"/>
   <rect transform="rotate(-19.118)" x="-.36478" y="44.536" width="28.949" height="19.882" ry="1.548"/>
  </g>
  <g>
   <path d="m15.808 46.666 27.234-9.4769 3.9066 11.016-27.308 9.4583z" fill="#ffb185" stroke-linejoin="round" stroke-width=".99825"/>
   <g stroke-linejoin="bevel">
    <ellipse transform="rotate(-19.118)" cx="14.193" cy="55.017" rx="6.447" ry="6.4054" fill="#d5e5ff" stroke-width=".99825"/>
    <ellipse transform="rotate(-19.118)" cx="14.193" cy="55.017" rx="3.8069" ry="3.7823" fill="#5f8dd3" stroke-width=".78594"/>
    <ellipse transform="rotate(-19.118)" cx="15.898" cy="53.624" rx=".97207" ry=".95128" fill="#fff" stroke-width=".30192"/>
    <rect transform="rotate(-19.118)" x="21.247" y="45.751" width="4.8747" height="2.1395" ry=".41896" fill="#d5e5ff" stroke-width=".6655"/>
   </g>
  </g>
  <g fill="#dfdcd5" stroke-linejoin="round" stroke-width=".33275">
   <path d="m16.783 38.693 0.73208 2.112"/>
   <path d="m17.537 38.308 0.73208 2.112"/>
   <path d="m18.328 38.142 0.73208 2.112"/>
   <path d="m19.081 37.757 0.73208 2.112"/>
  </g>
 </g>
 <g fill="none" stroke="#000" stroke-linecap="round" stroke-linejoin="round" stroke-width="2.5">
  <path d="m33.761 45.494c1.3133-1.7782 2.4954-3.4519 3.7004-5.1439 0.17244 2.6298 0.36863 5.2407 0.65391 7.7807 1.2627-1.7772 2.4287-3.8218 3.5966-5.8613"/>
  <path d="m45.632 49.545c-1.6698 2.4222-7.1663 0.5104-3.428-2.7178 3.5135-3.0341 6.846 2.3064 0.40188 0.20013"/>
  <path d="m51.241 51.307c2.8263-3.3136-6.1204-0.95115-5.7936 0.9982 0.21361 1.2743 3.9195 0.11654 5.7936-0.9982-0.5605 1.2031-2.6101 3.5145-1.6815 3.6094"/>
  <path d="m52.552 52.247c1.7289 0.66638 3.1561 1.3429 5.3345 1.9942"/>
  <path d="m56.547 50.71c-1.2457 2.1598-3.1126 4.1983-3.5238 6.43"/>
  <path d="m61.375 51.848c-0.31876 0.71103-0.62243 1.4242-1.2809 2.0865"/>
  <path d="m62.694 52.714c-0.26872 0.72572-0.71393 1.3926-1.2328 2.0756"/>
  <path d="m34.484 35.749c-0.31876 0.71103-0.62243 1.4242-1.2809 2.0865"/>
  <path d="m35.803 36.614c-0.26872 0.72572-0.71393 1.3926-1.2328 2.0756"/>
 </g>
 <g fill="none" stroke="#fff" stroke-linecap="round" stroke-linejoin="round" stroke-width="1.1596">
  <path d="m33.761 45.494c1.3133-1.7782 2.4954-3.4519 3.7004-5.1439 0.17244 2.6298 0.36863 5.2407 0.65391 7.7807 1.2627-1.7772 2.4287-3.8218 3.5966-5.8613"/>
  <path d="m45.632 49.545c-1.6698 2.4222-7.1663 0.5104-3.428-2.7178 3.5135-3.0341 6.846 2.3064 0.40188 0.20013"/>
  <path d="m51.241 51.307c2.8263-3.3136-6.1204-0.95115-5.7936 0.9982 0.21361 1.2743 3.9195 0.11654 5.7936-0.9982-0.5605 1.2031-2.6101 3.5145-1.6815 3.6094"/>
  <path d="m52.552 52.247c1.7289 0.66638 3.1561 1.3429 5.3345 1.9942"/>
  <path d="m56.547 50.71c-1.2457 2.1598-3.1126 4.1983-3.5238 6.43"/>
  <path d="m61.375 51.848c-0.31876 0.71103-0.62243 1.4242-1.2809 2.0865"/>
  <path d="m62.694 52.714c-0.26872 0.72572-0.71393 1.3926-1.2328 2.0756"/>
  <path d="m34.484 35.749c-0.31876 0.71103-0.62243 1.4242-1.2809 2.0865"/>
  <path d="m35.803 36.614c-0.26872 0.72572-0.71393 1.3926-1.2328 2.0756"/>
 </g>
</svg>
