<svg xmlns="http://www.w3.org/2000/svg" viewBox="0 0 64 64">
    <g fill-rule="evenodd" stroke="#000">
        <path fill="#afe9dd" d="M5.395 57.179c-.909-.017-1.787-.61-2.188-1.938.014-2.706-.2-4.509.063-5.875.223-1.161 2.137.372 3.5-1.312 3.276-4.051 7.123-7.361 12.062-9.25 1.748-2.202 3.444-4.433 6.813-6.313.3-2.918 1.584-5.23 6.187-5.5 3.492-3.022 4.662-5.3 10.688-7.125-.73-1.138-1.459-2.697-2.188-4.5l-7.375.688c-1.835 2.032-2.249 1.901-3.718 2.656-1.281.658-4.2-2.728-1.72-3.75 1.49-.614 3.225-.722 5.126-.844 4.708-2.128 7.465-2.508 8.416-2.26 4.223 1.097 5.049 4.043 7.271 6.448 1.528-5.534 9.687-4.599 8.625 1.875-.17 1.04-1.655 3.974-4.937 3.812l-.125 1.875c1.183.963 1.35 2.13 1.75 3.25l3.125-3.937c.609-1.662.818-3.436 2.125-4.5 1.358-1.107 3.997.566 2.5 2.125l-3.063 3.187c-1.767 3.302-2.344 5.16-4.25 7.188-1.472 1.566-5.59-4.398-5.687-6.25-1.092 2.441-5.79 1.902-11.563 5.062 5.581 3.854 6.67 7.684 7.188 11.563.338 2.537-9.625 2.458-14.438 3.687-1.108 1.303-.414 2.787-.375 4.25.065 2.447-.938 3.023-2.5.063-.958-1.818-.93-2.142-2.562-4.563-1.187-1.76 1-2.452 2.75-2.25 2.684.31 8.333-3.896 10.437-3.375-2.547-1.096-4.964-2.375-6.687-4.625-4.447 3.58-8.143 5.583-12.313 7.188-4.104 2.437-6.997 4.668-10.437 7.437-2.955 4.053-.975 5.84-2.5 5.813z"/>
        <path fill="#d7f4ee" stroke-linecap="round" d="M3.844 32c-.946.003-.797 1.673-.002 1.672l14.966-.01c.93 0 .971-1.705-.007-1.703zM4.274 23.026c-1.282.002-1.08 1.553-.003 1.553l20.281-.01c1.261 0 1.316-1.584-.01-1.581zM4.245 15.19c-.946.002-.797 1.672-.002 1.672l14.966-.01c.93-.001.971-1.706-.007-1.703z"/>
    </g>
</svg>
