<svg xmlns="http://www.w3.org/2000/svg" viewBox="0 0 64 64">
    <g stroke="#000" transform="translate(0 -988.362)">
        <circle cx="25.494" cy="1045.512" r="1.368" fill="#1a1a1a" stroke-linecap="round" stroke-linejoin="round"/>
        <circle cx="10.092" cy="1045.49" r="1.368" fill="#1a1a1a" stroke-linecap="round" stroke-linejoin="round"/>
        <ellipse cx="19.169" cy="1000.494" fill="#808080" stroke-linecap="round" stroke-linejoin="round" rx="5.089" ry="4.683"/>
        <path fill="#4d4d4d" fill-rule="evenodd" d="M16.617 1035.701l-.022 4.088c-2.785-.04-4.856 1.27-6.828 2.585-2.835 1.891-1.771 3.493-.133 2.52 2.164-1.287 4.677-2.585 7.204-2.564l2.652.022c2.524.021 4.726 1.58 6.673 2.762 1.744 1.06 2.655-1.206-.088-2.784-1.993-1.146-4.16-2.04-6.364-2.43v-4.11z"/>
        <path fill="#808080" fill-rule="evenodd" d="M13.5 1011.862l.125 14.125c.026 2.947 2.21 5.388 5.187 5.438l11.188.187v11.313c0 4.126 5.955 4.03 5.937.125l-.062-14.313c-.006-1.449-.496-3.326-2.625-3.312l-9.563.062-.187-9.25 2.562 1.375 9.563.125c3.6.047 3.75-5.657-.125-5.688l-7.813-.062c-1.616-.332-6.9-4.74-9.062-4.75-2.077-.01-5.146 2.206-5.125 4.625z"/>
        <path fill="#4d4d4d" fill-rule="evenodd" d="M7.38 1010.996l.089 22.805c.006 1.503.42 3.17 2.475 3.182l16.263.088c2.296.012 2.68-4.014.133-4.022l-13.568-.044c-1.035 0-1.283-.931-1.282-1.724l.045-20.285c.006-2.92-4.17-3.79-4.155 0zM31.201 1019.968c-1.557.019-1.666 2.866 0 2.873l12.065.044.133 22.715c.007 1.2.106 1.95 1.458 1.945l11.8-.044c1.194 0 1.595-.446 1.59-1.458l-.087-24.572c-.004-.893-.562-1.823-1.415-1.812z"/>
        <path fill="#666" fill-rule="evenodd" d="M46.469 1017.3c-1.239 0-1.042 1.843.031 1.843h5.156l-.031-13.875-3.188-3.406 1.125-4.875c.328-1.42-2.61-2.239-2.906-.844L43 1013.425c-.34 1.605 2.541 2.253 2.875.78l.906-4 2.813-.75-.063 7.845z"/>
    </g>
</svg>
