<?xml version="1.0" encoding="UTF-8"?>
<svg cursor="default" version="1.1" viewBox="0 0 256 256" xmlns="http://www.w3.org/2000/svg" xmlns:cc="http://creativecommons.org/ns#" xmlns:dc="http://purl.org/dc/elements/1.1/" xmlns:rdf="http://www.w3.org/1999/02/22-rdf-syntax-ns#">
 <metadata>
  <rdf:RDF>
   <cc:Work rdf:about="">
    <dc:format>image/svg+xml</dc:format>
    <dc:type rdf:resource="http://purl.org/dc/dcmitype/StillImage"/>
   </cc:Work>
  </rdf:RDF>
 </metadata>
 <text x="162.32295" y="206.1396" font-family="Bahnschrift" font-size="10.667px" letter-spacing="0px" text-align="center" text-anchor="middle" word-spacing="0px" style="line-height:1.2" xml:space="preserve"><tspan x="162.32295" y="206.1396"/></text>
 <g fill="none" stroke="#ff7f2a" stroke-linecap="round" stroke-linejoin="round">
  <path d="m128.84 215.57c3.344-0.18529 1.911 5.2629-0.59411 5.2422-4.3404-0.0359-1.9327-5.1022 0.59411-5.2422z" stroke-width="1.0935"/>
  <g transform="matrix(.729 0 0 .729 -28.928 98.778)" stroke-width="1.5">
   <path d="m204.16 160.53c2.216-0.17757 4.1333-0.25684 6.034-0.21012"/>
   <path d="m207.27 160.38c-0.2947 2.389-0.40468 4.5915-0.51038 6.9805"/>
  </g>
  <g transform="matrix(.729 0 0 .729 -16.032 98.786)" stroke-width="1.5">
   <path d="m204.16 160.53 2.7622 2.9334 3.2719-3.1436"/>
   <path d="m206.99 163.45c-0.2947 2.389-0.12568 1.5226-0.23138 3.9115"/>
  </g>
 </g>
</svg>
