<?xml version="1.0" encoding="UTF-8"?>
<svg cursor="default" version="1.1" viewBox="0 0 256 256" xmlns="http://www.w3.org/2000/svg" xmlns:cc="http://creativecommons.org/ns#" xmlns:dc="http://purl.org/dc/elements/1.1/" xmlns:rdf="http://www.w3.org/1999/02/22-rdf-syntax-ns#">
 <metadata>
  <rdf:RDF>
   <cc:Work rdf:about="">
    <dc:format>image/svg+xml</dc:format>
    <dc:type rdf:resource="http://purl.org/dc/dcmitype/StillImage"/>
   </cc:Work>
  </rdf:RDF>
 </metadata>
 <text x="162.32295" y="206.1396" font-family="Bahnschrift" font-size="10.667px" letter-spacing="0px" text-align="center" text-anchor="middle" word-spacing="0px" style="line-height:1.2" xml:space="preserve"><tspan x="162.32295" y="206.1396"/></text>
 <g fill="none" stroke="#ff7f2a" stroke-linecap="round" stroke-linejoin="round">
  <path d="m136.55 215.54c4.3583-0.0328 3.8308 4.2022-0.57664 5.2597z" stroke-width="1.0935"/>
  <path d="m122.47 215.71c-1.2272-0.61656-3.4356 0.5948-3.5122 1.5028-0.10193 1.2067 4.1222-0.42179 3.7744 1.4853-0.23848 1.3076-3.4403 2.9221-3.8268 1.3455" stroke-width="1.0935"/>
  <g transform="matrix(.729 0 0 .729 -24.397 98.564)" stroke-width="1.5">
   <path d="m204.16 160.53c2.216-0.17757 4.1333-0.25684 6.034-0.21012"/>
   <path d="m207.27 160.38c-0.2947 2.389-0.40468 4.5915-0.51038 6.9805"/>
  </g>
  <path d="m130.6 215.85c-0.33456 1.6806-0.66359 3.2359-0.4448 4.8188 0.12369 0.34437 2.8912 0.098 3.4967-0.64252 0.3786-0.91451 0.36244-2.7718 0.58073-4.2875" stroke-width="1.0935"/>
 </g>
</svg>
