<?xml version="1.0" encoding="UTF-8"?>
<svg cursor="default" version="1.1" viewBox="0 0 256 256" xmlns="http://www.w3.org/2000/svg" xmlns:cc="http://creativecommons.org/ns#" xmlns:dc="http://purl.org/dc/elements/1.1/" xmlns:rdf="http://www.w3.org/1999/02/22-rdf-syntax-ns#">
 <metadata>
  <rdf:RDF>
   <cc:Work rdf:about="">
    <dc:format>image/svg+xml</dc:format>
    <dc:type rdf:resource="http://purl.org/dc/dcmitype/StillImage"/>
   </cc:Work>
  </rdf:RDF>
 </metadata>
 <text x="162.32295" y="206.1396" font-family="Bahnschrift" font-size="10.667px" letter-spacing="0px" text-align="center" text-anchor="middle" word-spacing="0px" style="line-height:1.2" xml:space="preserve"><tspan x="162.32295" y="206.1396"/></text>
 <g fill="none" stroke="#ff7f2a" stroke-linecap="round" stroke-linejoin="round" stroke-width="1.0935">
  <path d="m135.45 208.75-0.10484-5.2072c3.4249-0.75006 4.7705 2.2218 0.17475 2.4813 5.8855-1.0896 3.1728 3.7329-0.0699 2.7259z"/>
  <path d="m119.33 203.92c4.3583-0.0328 3.8308 4.2022-0.57664 5.2597z"/>
  <path d="m129.28 208.78c0.15109-1.6969 0.36991-3.3938 0.81549-5.0906 0.4047 1.1614 0.80878 2.3229 1.1491 3.4844 0.72297-0.98982 1.3734-2.0704 1.9646-3.2249 0.22549 1.6169 0.20737 3.1526 0.24712 4.7076"/>
  <path d="m124.2 203.91c-0.33456 1.6806-0.66359 3.2359-0.4448 4.8188 0.12369 0.34437 2.8912 0.098 3.4967-0.64252 0.3786-0.91451 0.36244-2.7718 0.58073-4.2875"/>
 </g>
</svg>
