<?xml version="1.0" encoding="UTF-8"?>
<svg cursor="default" version="1.1" viewBox="0 0 256 256" xmlns="http://www.w3.org/2000/svg" xmlns:cc="http://creativecommons.org/ns#" xmlns:dc="http://purl.org/dc/elements/1.1/" xmlns:rdf="http://www.w3.org/1999/02/22-rdf-syntax-ns#">
 <metadata>
  <rdf:RDF>
   <cc:Work rdf:about="">
    <dc:format>image/svg+xml</dc:format>
    <dc:type rdf:resource="http://purl.org/dc/dcmitype/StillImage"/>
   </cc:Work>
  </rdf:RDF>
 </metadata>
 <text x="162.32295" y="206.1396" font-family="Bahnschrift" font-size="10.667px" letter-spacing="0px" text-align="center" text-anchor="middle" word-spacing="0px" style="line-height:1.2" xml:space="preserve"><tspan x="162.32295" y="206.1396"/></text>
 <g transform="matrix(.729 0 0 .729 34.922 55.645)" fill="none" stroke="#ff7f2a" stroke-linecap="round" stroke-linejoin="round" stroke-width="1.5">
  <path d="m111.8 208.92-0.14382-7.143c4.6981-1.0289 6.5438 3.0478 0.2397 3.4037 8.0734-1.4947 4.3523 5.1206-0.0959 3.7393z"/>
  <path d="m122.24 201.56c4.5871-0.25418 2.6214 7.2193-0.81497 7.1909-5.9539-0.0492-2.6512-6.9989 0.81497-7.1909z"/>
  <path d="m141.94 201.81c5.9785-0.0449 5.2548 5.7644-0.791 7.2149z"/>
  <path d="m134.63 208.74c-0.16399-2.1631-0.28666-4.4863-0.13555-6.5593 1.2106 2.4552 2.8911 4.7708 4.9153 6.5932-0.0157-2.3548 0.13793-4.7217-0.47458-7.0339"/>
  <path d="m127.32 201.91c-0.45894 2.3053-0.91028 4.4388-0.61016 6.6102 0.16967 0.4724 3.966 0.13438 4.7966-0.88136 0.51934-1.2545 0.49718-3.8023 0.79661-5.8814"/>
 </g>
</svg>
