<svg xmlns="http://www.w3.org/2000/svg" xmlns:xlink="http://www.w3.org/1999/xlink" viewBox="0 0 64 64">
    <defs>
        <linearGradient id="stocksGradient">
            <stop offset="0" stop-color="#f55"/>
            <stop offset="1" stop-color="#ff8080"/>
        </linearGradient>
        <linearGradient id="linearGradient15" x1="29.5" x2="44.125" y1="1025.487" y2="1003.362" gradientTransform="matrix(1.28844 0 0 1.29051 -9.225 -296.313)" gradientUnits="userSpaceOnUse" xlink:href="#stocksGradient"/>
    </defs>
    <g transform="translate(0 -988.362)">
        <ellipse cx="32" cy="1020.368" fill="url(#linearGradient15)" fill-rule="evenodd" rx="30.383" ry="30.381"/>
        <path fill="none" stroke="#fff" stroke-linecap="round" stroke-width="4.84" d="M15.943 1033.193l-.18-26.679"/>
        <path fill="#fff" fill-rule="evenodd" d="M15.964 1004.036l.063 12.937 33.75-.065.094-12.809-33.907-.064zm16.016 1.588a5.053 4.663 0 0 1 5.053 4.662 5.053 4.663 0 0 1-5.053 4.662 5.053 4.663 0 0 1-5.053-4.662 5.053 4.663 0 0 1 5.053-4.662zm-9.984 2.443a2.438 2.25 0 0 1 2.437 2.25 2.438 2.25 0 0 1-2.437 2.25 2.438 2.25 0 0 1-2.438-2.25 2.438 2.25 0 0 1 2.438-2.25zm20 .094a2.438 2.25 0 0 1 2.437 2.25 2.438 2.25 0 0 1-2.437 2.25 2.438 2.25 0 0 1-2.438-2.25 2.438 2.25 0 0 1 2.438-2.25z"/>
        <path fill="none" stroke="#fff" stroke-linecap="round" stroke-width="4.84" d="M50.06 1033.241l-.18-26.679"/>
        <path fill="none" stroke="#fff" stroke-width="3" d="M10.305 1034.459h44.724"/>
    </g>
</svg>
