<!-- Created with Inkscape (http://www.inkscape.org/) -->
<svg version="1.1" viewBox="0 0 256 256" xmlns="http://www.w3.org/2000/svg">
 <defs>
  <linearGradient id="linearGradient877" x1="106.02" x2="169.27" y1="60.754" y2="214.99" gradientTransform="matrix(1.3289 .073951 -.073951 1.3289 -48.221 -92.269)" gradientUnits="userSpaceOnUse">
   <stop stop-color="#ffd5d5" offset="0"/>
   <stop stop-color="#faa" offset="1"/>
  </linearGradient>
 </defs>
 <g stroke-linecap="round">
  <path d="m11.346 6.0757c118.72 9.0964 124.07 106.85 130.97 139.57l-44.202 0.16083 40.462 30.762-14.288 49.103 39.998-29.3 40.52 29.166-15.07-48.564 39.87-30.341-49.473-0.45941-16.317-50.379-7.4592 25.528c-7.5843-17.721-42.474-115.52-145.01-115.25z" fill="url(#linearGradient877)" stroke-linejoin="round" stroke-width="1.32"/>
  <path d="m151.79 151.26-36.156-0.28955 29.496 22.426-10.416 35.796 29.159-21.36 29.539 21.262-10.986-35.403 29.065-22.119-36.066-0.33491-11.895-36.726z" fill="#ff8080" stroke-linejoin="round" stroke-width=".96228"/>
  <path d="m149.02 187.36 14.721-47.792 15.047 47.609-39-29.241 48.267 0.19853z" fill="none" stroke="#ff2a2a" stroke-width="4.9596"/>
 </g>
 <g fill-rule="evenodd">
  <path d="m49.978 135.89c23.508-4.3417 24.71-5.8531 27.826-32.696 2.6431 26.548 5.2221 28.533 26.612 32.846-21.294 3.3369-23.835 4.7323-27.277 34.768-2.0042-30.652-3.7517-31.032-27.161-34.918z" fill="#f55"/>
  <path d="m210.34 196.4c16.721-3.6675 17.576-4.9442 19.792-27.618 1.88 22.426 3.7144 24.102 18.929 27.745-15.146 2.8187-16.953 3.9974-19.402 29.369-1.4256-25.892-2.6685-26.213-19.319-29.495z" fill="#f55"/>
  <path d="m27.21 39.772c10.056-1.9349 10.57-2.6084 11.903-14.571 1.1306 11.831 2.2338 12.715 11.384 14.638-9.1086 1.4871-10.196 2.1089-11.668 15.494-0.85733-13.66-1.6048-13.829-11.618-15.561z" fill="#faa"/>
  <path d="m10.021 27.456c8.0156-1.3828 8.4254-1.8642 9.4878-10.414 0.90124 8.4558 1.7806 9.0877 9.074 10.462-7.2606 1.0628-8.127 1.5072-9.3008 11.074-0.68339-9.7629-1.2792-9.8837-9.261-11.121z" fill="#ffd5d5"/>
  <path d="m121.77 32.672c12.185-2.2071 12.808-2.9754 14.423-16.621 1.37 13.496 2.7068 14.504 13.794 16.697-11.037 1.6963-12.354 2.4056-14.139 17.674-1.0389-15.582-1.9446-15.775-14.078-17.75z" fill="#ff8080"/>
  <path d="m112.16 13.535c8.0785-1.6148 8.4915-2.1769 9.5622-12.16 0.90832 9.8738 1.7946 10.612 9.1452 12.216-7.3176 1.2411-8.1908 1.76-9.3738 12.931-0.68876-11.4-1.2893-11.541-9.3337-12.986z" fill="#faa"/>
  <path d="m86.298 99.489c14.451-3.1238 15.19-4.2112 17.105-23.524 1.6248 19.101 3.2101 20.529 16.359 23.632-13.09 2.4009-14.652 3.4048-16.768 25.015-1.232-22.054-2.3062-22.327-16.696-25.123z" fill="#ff8080"/>
  <path d="m180.72 102.95c13.344-3.0936 14.027-4.1706 15.795-23.297 1.5004 18.917 2.9643 20.331 15.106 23.404-12.087 2.3777-13.53 3.372-15.484 24.773-1.1377-21.841-2.1297-22.111-15.418-24.88z" fill="#ff8080"/>
  <path d="m74.325 216.55c16.928-3.4423 17.793-4.6405 20.037-25.922 1.9033 21.048 3.7604 22.621 19.163 26.041-15.333 2.6456-17.163 3.7519-19.642 27.565-1.4432-24.302-2.7016-24.603-19.558-27.684z" fill="#faa"/>
  <path d="m45.39 194.64c13.494-2.4602 14.183-3.3166 15.972-18.527 1.5172 15.043 2.9975 16.167 15.275 18.612-12.223 1.8908-13.681 2.6815-15.657 19.701-1.1504-17.369-2.1535-17.584-15.59-19.786z" fill="#ffd5d5"/>
 </g>
</svg>
