<svg xmlns="http://www.w3.org/2000/svg" viewBox="0 0 256 256">
    <g fill="#f4eed7" fill-rule="evenodd" stroke="#000" stroke-width="2">
        <path stroke-width="2.31524" d="M48.533 32.877c-38.432 1.259-16.625 114.942-8.012 114.918 1.772-.004 9.027-30.772 15.846-57.119 4.77-18.428 11.23-35.163 11.184-38.264-.141-9.718-9.976-19.83-19.018-19.535zM73.856 33.187c-4.105 2.295 4.177 36.617 7.649 36.59 3.792-.03 11.002-10.262 11.06-14.47.129-9.656-12.429-25.63-18.709-22.12zM101.338 68.78c-4.388.316-5.575-21.973 3.604-22.515 2.54-.15 5.825 3.087 5.562 5.665-.493 4.826-4.207 16.492-9.166 16.85zM119.692 65.36c-4.37.64-7.156-18.109 1.992-19.347 2.533-.342 6.053 2.116 5.974 4.319-.147 4.124-3.027 14.305-7.966 15.029zM211.564 32.893c38.432 1.26 16.625 114.942 8.012 114.918-1.772-.004-9.027-30.772-15.846-57.118-4.77-18.429-11.229-35.164-11.184-38.265.141-9.718 9.977-19.83 19.018-19.535zM186.241 33.204c4.106 2.294-4.177 36.616-7.648 36.589-3.793-.03-11.003-10.262-11.06-14.47-.13-9.656 12.428-25.63 18.708-22.12zM158.76 68.796c4.388.316 5.574-21.973-3.605-22.514-2.54-.15-5.825 3.086-5.562 5.664.493 4.827 4.207 16.492 9.166 16.85zM140.405 65.377c4.37.64 7.156-18.11-1.992-19.348-2.532-.342-6.053 2.116-5.974 4.32.147 4.123 3.027 14.304 7.966 15.028zM74.193 230.597c-28.25-.925-30.205-66.818-16.949-73.725 1.155-.602 5.809 14.351 15.99 32.271 6.912 12.167 13.577 25.745 13.544 28.025-.104 7.144-5.939 13.647-12.585 13.43zM99.193 195.64c3.457.042 10.663 30.08 3.14 31.746-2.722.602-6.625-4.423-8.138-7.122-3.47-6.192-.29-24.69 4.998-24.624zM111.46 207.048c-2.503.543-4.15 17.289 2.597 17.687 1.867.11 3.557-2.179 3.262-4.06-.363-2.308-2.288-14.401-5.86-13.627zM123.143 211.525c-3.213-.47-5.261 13.313 1.464 14.222 1.861.252 3.415-1.607 3.358-3.226-.108-3.031-1.192-10.464-4.822-10.996zM186.399 231.09c28.25-.926 30.205-66.819 16.948-73.727-1.155-.602-5.808 14.352-15.989 32.272-6.912 12.167-13.577 25.745-13.544 28.024.104 7.144 5.938 13.648 12.585 13.43zM161.398 196.132c-3.457.042-10.663 30.08-3.14 31.745 2.723.603 6.626-4.423 8.138-7.122 3.471-6.192.29-24.688-4.998-24.623zM149.132 207.54c2.503.543 4.15 17.289-2.597 17.687-1.868.11-3.558-2.179-3.262-4.06.362-2.308 2.287-14.402 5.86-13.627zM137.449 212.017c3.212-.47 5.26 13.312-1.464 14.222-1.862.252-3.416-1.607-3.358-3.226.108-3.031 1.192-10.464 4.822-10.996z"/>
    </g>
</svg>
