<!-- Created with Inkscape (http://www.inkscape.org/) -->
<svg version="1.1" viewBox="0 0 256 256" xmlns="http://www.w3.org/2000/svg">
 <g fill-rule="evenodd">
  <path d="m127.94 239.61c-48.791-46.405-85.134-106.67-84.551-182.13 11.651-0.1695 53.436-20.279 84.253-43.371 32.688 22.547 72.102 41.426 83.125 42.379 0.1512 75.967-34.096 133.29-82.827 183.12z" fill="#faa"/>
  <path d="m131.1 19.745c35.379 20.577 41.88 28.406 76.807 39.762-34.145-3.5668-52.559-14.312-76.807-39.762z" fill="#ffd5d5"/>
  <path d="m44.198 58.427c13.648-3.4953 59.687-27.03 83.246-43.5-0.19809 39.619 2.1542 150.4 0.76562 225.88-75.811-79.538-84.216-143.53-84.011-182.38z" fill="#ff8080"/>
 </g>
</svg>
