<!-- Created with Inkscape (http://www.inkscape.org/) -->
<svg version="1.1" viewBox="0 0 256 256" xmlns="http://www.w3.org/2000/svg">
 <defs>
  <linearGradient id="offhand_strike" x1="106.02" x2="169.27" y1="60.754" y2="214.99" gradientTransform="matrix(-1.3289 .073951 .073951 1.3289 304.48 -92.269)" gradientUnits="userSpaceOnUse">
   <stop stop-color="#ffd5d5" offset="0"/>
   <stop stop-color="#faa" offset="1"/>
  </linearGradient>
 </defs>
 <g stroke-linecap="round" stroke-linejoin="round" stroke-width="1.32">
  <path d="m244.91 6.0757c-118.72 9.0964-124.07 106.85-130.97 139.57l50.49-30.533-32.55 49.666 72.294 12.354-75.165 8.9738 16.239 24.26-31.017-9.6471 13.456 46.053-30.056-38.374-26.304 40.07 6.2729-47.883-55.106 24.389 40.051-36.321-24.676-3.1309 23.886-13.952-50.422-53.988 59.113 35.15-10.188-56.595 35.435 46.706c6.4439-41.13 28.739-137.09 149.22-136.77z" fill="url(#offhand_strike)"/>
  <path d="m107.34 158.29 33.126-20.032-21.356 32.586 48.695 5.184-50.579 8.8095 10.654 15.918-20.35-6.3294 8.8284 30.215-19.72-25.177-17.258 26.29 4.1156-31.416-36.155 16.002 26.278-23.83-16.19-2.0541 15.672-9.154-33.082-35.421 38.784 23.063-6.6843-37.133 23.248 30.644 13.517-29.619z" fill="#f55" fill-opacity=".76863"/>
  <path d="m100.78 167.88 17.604-10.646-11.35 17.317 25.879 2.755-26.88 4.6817 5.6622 8.4592-10.815-3.3637 4.6918 16.058-10.48-13.38-9.1717 13.971 2.1871-16.696-19.215 8.5039 13.964-12.664-8.6042-1.0917 8.3289-4.8649-17.581-18.824 20.612 12.256-3.5523-19.734 12.355 16.286 7.1834-15.741z" fill="#ff2a2a" fill-opacity=".76863"/>
 </g>
</svg>
