<svg xmlns="http://www.w3.org/2000/svg" viewBox="0 0 256 256">
    <g fill-rule="evenodd">
        <path fill="#ff8080" stroke="#000" stroke-width="2" d="M192.857 235.286C94.515 222.384 24.748 117.715 128.571 58.857l-55-46.428C18.48 73.326 18.483 229.665 192.857 235.286z"/>
        <path fill="#f55" fill-opacity=".706" d="M182.87 224.275c-26.729-11.774-54.885-32.455-71.372-55.731a106.84 106.84 0 0 1-2.013-2.944c-8.007-10.711-13.367-22.11-14.632-33.617-1.267-11.516 1.549-23.36 10.277-34.81-9.355 10.916-13.233 22.768-12.745 34.975.487 12.211 5.339 24.557 13.054 36.287.736.992 1.492 1.977 2.269 2.955 18.32 23.088 47.93 42.612 75.162 52.885z"/>
        <path fill="#f55" fill-opacity=".706" d="M198.35 203.826c-22.843-9.674-46.911-26.656-61.009-45.764a87.726 87.726 0 0 1-1.72-2.415c-6.528-8.388-10.985-17.286-12.3-26.28-1.436-9.814.843-19.968 8.638-29.786-8.33 9.336-11.571 19.52-10.785 30.02.72 9.602 4.796 19.276 11.106 28.483.628.813 1.273 1.62 1.935 2.423 15.63 18.918 40.896 34.91 64.135 43.32z"/>
        <path fill="#f55" fill-opacity=".706" d="M215.988 185.395c-18.614-8.074-38.225-22.253-49.708-38.21a73.29 73.29 0 0 1-1.403-2.018c-5.57-7.335-9.297-15.14-10.175-23.02-.88-7.887 1.081-16.003 7.162-23.854-6.51 7.477-9.209 15.598-8.867 23.97.342 8.373 3.725 16.84 9.1 24.883.513.68 1.04 1.355 1.58 2.025 12.75 15.817 33.357 29.19 52.31 36.224z"/>
        <path fill="#f55" d="M174.526 232.735C78.825 213.907 24.74 115.12 120.725 56.775l-44.55-37.607C25.742 81.375 31.1 212.323 174.525 232.735z"/>
        <path fill="#ff2a2a" stroke="#000" stroke-linecap="round" stroke-width="1.5" d="M75.714 30.821l3.929 24.643L110 58.5"/>
        <path fill="#ff2a2a" stroke="#000" stroke-linecap="round" stroke-width="1.317" d="M60.286 54.915l5.764 21.217 26.693-.253"/>
        <path fill="#ff2a2a" stroke="#000" stroke-linecap="round" stroke-width=".979" d="M52.333 83.251l7.698 14.974 18.103-5.504"/>
        <path fill="#ff2a2a" stroke="#000" stroke-linecap="round" stroke-width=".714" d="M50.78 111.158l8.103 9.285 11.34-7.606"/>
        <path fill="#ff2a2a" stroke="#000" stroke-linecap="round" stroke-width=".531" d="M53.49 138.89l7.236 5.55 7.75-6.78"/>
        <path fill="#ff2a2a" stroke="#000" stroke-linecap="round" stroke-width=".449" d="M61.862 161.707l7.139 3.032 5.199-7.021"/>
        <path fill="#ff2a2a" stroke="#000" stroke-linecap="round" stroke-width=".329" d="M73.15 179.914l6.632.41 2.357-5.205"/>
        <path fill="#ff2a2a" stroke="#000" stroke-linecap="round" stroke-width=".253" d="M87.004 194.517l4.8-.733.763-4.485M100.612 205.396l4.8-.733.763-4.486"/>
        <path fill="#ff2a2a" stroke="#000" stroke-linecap="round" stroke-width=".187" d="M116.406 215.384l3.344-1.302-.172-3.358"/>
        <path fill="#ff2a2a" stroke="#000" stroke-linecap="round" stroke-width=".117" d="M134.72 223.009l2.345-.724-.122-1.865"/>
    </g>
</svg>
