<!-- Created with Inkscape (http://www.inkscape.org/) -->
<svg version="1.1" viewBox="0 0 64 64" xmlns="http://www.w3.org/2000/svg">
 <g transform="translate(0 -988.36)" fill-rule="evenodd">
  <path d="m15.205 1036.4c-4.085-5.907 4.697-8.77 8.01-4.15-1.015-5.43 7.17-8.128 8.794-1.124 1.247 5.373-4.804 7.195-3.538 15.37-4.553-7.072-10.085-5.496-13.266-10.096z" fill="#ff80e5" stroke="#000" stroke-width=".66"/>
  <path d="m30.551 1032.8c-0.403-3.596-2.532-4.432-5.798-3.258 2.828-2.488 6.877-1.57 5.798 3.257z" fill="#fff" fill-opacity=".785"/>
  <path d="m34.858 1016.9c0.68-9.333 12.263-5.086 11.854 2.31 3.492-6.347 14.314-2.42 10.14 6.026-3.2 6.479-11.056 3.399-16.586 12.743 1.169-10.901-5.938-13.808-5.408-21.079z" fill="#ff80e5" stroke="#000" stroke-width=".66"/>
  <path d="m53.917 1025.8c2.592-3.983 1.067-6.569-3.333-8.038 5.043-0.224 8.508 4.01 3.333 8.038z" fill="#fff" fill-opacity=".785"/>
  <path d="m9.2162 1009.9c-6.857-8.088 5.848-13.875 11.388-7.57-2.222-7.911 9.616-13.35 12.954-3.2 2.56 7.788-6.215 11.55-3.257 23.509-7.708-9.745-15.742-6.438-21.085-12.739z" fill="#ff80e5" stroke="#000" stroke-width=".66"/>
  <path d="m31.606 1001.9c-1.071-5.285-4.352-6.16-9.064-3.846 3.886-4.196 10.039-3.53 9.064 3.846z" fill="#fff" fill-opacity=".785"/>
 </g>
</svg>
