<svg xmlns="http://www.w3.org/2000/svg" xmlns:xlink="http://www.w3.org/1999/xlink" cursor="default" viewBox="0 0 256 256">
    <defs>
        <linearGradient id="innoGrad1">
            <stop offset="0" stop-color="#ff7f2a" stop-opacity=".753"/>
            <stop offset="1" stop-color="#fea" stop-opacity=".502"/>
        </linearGradient>
        <linearGradient id="linearGradient4799" x1="39.474" x2="-8.078" y1="150.635" y2="205.94" gradientTransform="matrix(.9951 0 0 .99731 .506 .364)" gradientUnits="userSpaceOnUse" xlink:href="#innoGrad1"/>
        <linearGradient id="linearGradient4799-2" x1="43.78" x2="-11.096" y1="155.38" y2="203.573" gradientTransform="matrix(.81412 0 0 .9296 -45.327 -51.65)" gradientUnits="userSpaceOnUse" xlink:href="#innoGrad1"/>
    </defs>
    <g>
        <path fill="#ff8080" stroke="#000" stroke-width=".5" d="M88.25 80.063c-15.063 4-71 22.187-72.438 22.624-1.437.438-1.874 1.438-1.75 3.626.126 2.187 1.25 2.437 4.313 3.124l.43-4.138 1.574-.52c3.388.25 4.135.298 5.121-.06 1.031-.375.937-.813 1.437-1.407.247-.292.908-.783 1.68-1.257 14.106-4.686 40.24-13.452 59.883-20.477.078-.516 1.828-1.203 1.828-1.203s-1.781-.078-2.078-.313z"/>
        <path fill="none" stroke="#000" stroke-width=".25" d="M25.398 104.797l.047-2.649c-1 .75-2.101.57-2.445.165-.344-.407.273-.82.687-.97l-2.054-.53"/>
        <path stroke="#000" stroke-width=".25" d="M24.188 101.68c-.548.18-.282.53.21.36.493-.173.337-.54-.21-.36z"/>
        <path d="M18.281 105.297c-.01-.001-.006-.255-.016-.256-.371-.048-1.02-.08-1.479-.222-.2-.061-.351-.14-.457-.24a.53.53 0 0 1-.172-.438c-.007.07-.012.16.005.259a.728.728 0 0 0 .086.24c.085.149.227.287.43.412.456.28 1.154.44 1.523.488.01.001.07-.244.08-.243z"/>
    </g>
    <g>
        <path fill="#ff8080" stroke="#000" stroke-width=".25" d="M71.294 129.62c-.335.72-.95 1.73-1.32 1.88l-1.494 3.745c1 .406 3.192-3.948 3.442-4.542.25-.594.86-.734.984-.047.125.688-.437 3.438-.437 3.438s-1.063-.063-1.438.5c-.375.562-.312 1.406-.281 2.437.031 1.032.404 1.696 1.594 2 1.211.31 2.2-.262 2.426-1.634.11-.667.373-2.875-1.041-3.172.264-1.27.463-2.572.394-3.282-.1-1.034-.333-1.748-1.06-2.037-.725-.287-1.465.063-1.769.715zm2.042 5.575c.542 0 .596 1.194.596 1.46 0 .264-.154 1.391-.662 1.347-.509-.044-.486-.796-.442-1.326.044-.53-.034-1.48.508-1.48z"/>
    </g>
    <g fill="#ccc" fill-opacity=".8" stroke="#000" stroke-width=".25">
        <path d="M77.623 132.61c1.149 3.977.353 8.397-.354 10.518-.707 2.121-4.861 2.829-5.303-.53-.442-3.359-.264-5.997-.085-9.716.219-4.543 4.268-5.374 5.742-.272zM93.692 141.007c-.442-5.215.442-6.718 1.944-6.895 1.503-.176 3.624 2.21 4.331 7.072.707 4.86.442 8.131-.618 9.369-1.061 1.237-2.917.353-4.332-2.122-1.414-2.474-1.124-5.045-1.325-7.424z"/>
    </g>
    <g>
        <path fill="#ff8080" stroke="#000" stroke-width=".25" d="M94.563 133.963c-.618.063-1.504.338-1.75 1.568-.247 1.23.109 4.516-.922 5.156l.75 2.344c1.015-.844 1.609-4.594 1.546-5.5-.062-.906-.25-2.219.376-2.219.624 0 .897.273 1.647 4.023-.97.844-.71 1.946-.46 3.165.25 1.219.67 2.5 1.858 2.532 1.188.031 1.642-.057 2.157-.577.67-.677.36-1.986.235-2.861-.125-.875-.283-1.974-1.29-2.477-.266-.133-.618-.211-1.094-.22-.344-2.155-.98-3.635-1.401-4.221-.421-.586-1.035-.776-1.653-.713zm3.553 6.341c.55-.16.947.665 1.103 1.415.156.75.243 1.612-.298 1.767-.511.147-.833-.555-1.051-1.398-.222-.854-.304-1.625.246-1.784z"/>
    </g>
    <g>
        <ellipse cx="-32.369" cy="114.621" fill="url(#linearGradient4799-2)" rx="24.873" ry="34.21" transform="matrix(.72106 -.69287 .59128 .80647 0 0)"/>
    </g>
    <g>
        <path fill="#ff8080" fill-opacity=".975" stroke="#000" stroke-linejoin="round" stroke-width=".5" d="M36.08 81.584c-13.278-.425-21.082 13.873-19.673 26.642 1.349 17.973 14.811 37.395 32.798 39.87 11.956 1.938 22.677-7.83 23.084-20.174C74.587 107 57.646 81.46 36.08 81.584zm1.218 2.034c.356.006.71.02 1.064.042 9.923.637 19.28 7.808 25.319 17.443 6.039 9.634 8.812 21.836 5.357 32.712a1.084.997 61.404 0 1-.006.016c-2.629 7.797-8.732 11.675-15.382 12.28-6.633.603-13.836-1.938-19.07-6.84-6.774-5.272-12.354-13.92-14.878-23.164-2.53-9.262-1.957-19.198 3.837-26.707a1.084.997 61.404 0 1 .043-.05c1.737-1.95 3.83-3.563 6.202-4.512a1.084.997 61.404 0 1 .04-.016 21.538 21.538 0 0 1 7.474-1.204z"/>
    </g>
    <g>
        <path fill="#ff8080" stroke="#000" stroke-width=".5" d="M71.508 122.656c4.118-.687 12.622 1.031 17.1 3.781l.39-2.593c-4.417-2.594-13.222-4.156-17.79-3.375z"/>
    </g>
    <g>
        <ellipse cx="16.345" cy="178.747" fill="url(#linearGradient4799)" rx="30.403" ry="36.702" transform="matrix(.82085 -.57114 .60644 .79513 0 0)"/>
    </g>
    <g>
        <path fill="#ff8080" stroke="#000" stroke-linejoin="round" stroke-width=".5" d="M116.688 98.143a32.802 32.802 0 0 0-2.295.011c-14.664-.293-27.121 13.083-26.655 27.713-.483 24.872 25.627 47.902 50.053 40.016 8.452-2.6 14.686-9.667 16.828-17.545 6.885-23.52-14.296-49.499-37.931-50.195zm-.924 1.986c.443 0 .885.01 1.326.03 12.352.538 23.667 8.26 30.43 18.573 6.76 10.311 8.99 23.312 2.95 34.356l-.001.006c-4.096 7.691-11.845 11.57-20.08 12.225-8.235.654-17.004-1.862-23.391-7.016-.003-.002-.007-.003-.01-.006-8.363-5.685-14.493-15.121-16.537-24.983-2.048-9.881.06-20.258 8.266-27.494a.745.75 0 0 1 .027-.021c2.242-1.797 4.796-3.29 7.592-4.223a.745.75 0 0 1 .013-.004 31.155 31.155 0 0 1 9.414-1.443z"/>
    </g>
    <g stroke="#000">
        <path fill="#ff8080" stroke-width=".5" d="M207.438 116.75c-6.99 3.41-25.909 11.523-32.51 14.338-.951.28-1.833.418-2.51.514-1.569.22-2.401.03-3.86.162-1.458.132-1.949 1.018-2.015 1.636-.04.376-.23.782-.936 1.334-1.312.428-1.51.522-2.357.797-2.425.789-4.844 1.188-8.281.25l-.625.25.406 3.625c1.781.844 6.25 1.282 9.344.25 3.094-1.031 5.094-1.5 9.344-3.312 4.25-1.813 28.087-12.469 37.457-17.33 9.369-4.862 12.629-6.667 16.076-8.7-.14-.763.7-1.767 2.388-2.908-2.078.547-2.571.593-3.09.054-2.381 1.048-11.02 5.229-18.832 9.04z"/>
        <path fill="none" stroke-width=".25" d="M168.315 131.754c-.969.28-1.551.823-1.27 1.402.281.578 2.197.359 2.87-.047l1.757.61-.063 3.656"/>
        <path stroke-width=".25" d="M168.28 132.519c.788-.219 1.023.117.335.305-.687.187-1.125-.086-.336-.305z"/>
    </g>
    <g fill="#4d4d4d" stroke="#000" stroke-width=".5">
        <path d="M105.741 77.125c4.254.311 10.478 3.14 17.063 7.56 6.585 4.42 10 7.62 16.54 10.846 6.541 3.226 7.823 3.58 8.22 4.596.398 1.017-1.679 3.491-3.358 4.11-1.68.619-4.906-.353-6.232-2.254-1.326-1.9-9.339-10.481-15.305-14.812-5.966-4.331-13.118-7.708-17.228-8.106-4.11-.398-8.694.588-16.029 2.314-.197.046-.339-.094-.399-.258.27-.214.127-.89-.19-.91-.05-.189-.041-.498.228-.568 7.158-1.839 12.601-2.818 16.69-2.518zM227.04 107.146c2.433-1.232 10.393-5.119 13.73-4.279 3.337.84 4.508 4.353 4.972 10.032.464 5.68.552 6.276 2.63 8.088 2.076 1.812 1.855 3.712.927 5.48-.928 1.768-2.519 3.138-3.845 2.121-1.325-1.016-1.06-2.342-1.237-5.038-.177-2.696-.84-11.402-1.458-14.054-.62-2.651-.796-4.198-3.138-4.066-2.342.133-9.173 3.46-11.86 4.932-.219.12-.374-.203-.448-.745.527-.338.444-1.543-.38-1.625-.071-.283-.196-.692.107-.846z"/>
    </g>
</svg>
