<svg cursor="default" version="1.1" viewBox="0 0 256 256" xmlns="http://www.w3.org/2000/svg" xmlns:xlink="http://www.w3.org/1999/xlink">
 <defs>
  <linearGradient id="linearGradient4026">
   <stop stop-color="#6c5353" offset="0"/>
   <stop stop-color="#916f6f" offset=".34862"/>
   <stop stop-color="#c8b7b7" offset=".71526"/>
   <stop stop-color="#ac9393" offset="1"/>
  </linearGradient>
  <linearGradient id="linearGradient3821">
   <stop stop-color="#c4c8b7" offset="0"/>
   <stop stop-color="#8a916f" offset="1"/>
  </linearGradient>
  <linearGradient id="linearGradient3547" x1="473.93" x2="471.99" y1="123.79" y2="89.05" gradientTransform="rotate(-40.396,397.43,748.42)" gradientUnits="userSpaceOnUse">
   <stop stop-color="#917c6f" offset="0"/>
   <stop stop-color="#ac9d93" offset=".66614"/>
   <stop stop-color="#c8beb7" offset="1"/>
  </linearGradient>
  <linearGradient id="linearGradient3557" x1="450.34" x2="450.23" y1="124.9" y2="89.501" gradientTransform="rotate(-40.396,397.43,748.42)" gradientUnits="userSpaceOnUse">
   <stop stop-color="#6c5d53" offset="0"/>
   <stop stop-color="#917c6f" offset=".58652"/>
   <stop stop-color="#ac9d93" offset="1"/>
  </linearGradient>
  <linearGradient id="linearGradient3561" x1="461.72" x2="463.03" y1="120.81" y2="123.47" gradientTransform="rotate(-40.396 397.43 748.42)" gradientUnits="userSpaceOnUse">
   <stop stop-color="#6c5353" offset="0"/>
   <stop stop-color="#916f6f" offset="1"/>
  </linearGradient>
  <linearGradient id="linearGradient3577" x1="518.24" x2="518.17" y1="83.974" y2="83.223" gradientTransform="rotate(-40.396 397.43 748.42)" gradientUnits="userSpaceOnUse">
   <stop stop-color="#916f6f" offset="0"/>
   <stop stop-color="#c8b7b7" offset="1"/>
  </linearGradient>
  <linearGradient id="linearGradient3585" x1="519.12" x2="521.38" y1="85.643" y2="81.389" gradientTransform="rotate(-40.396 397.43 748.42)" gradientUnits="userSpaceOnUse">
   <stop stop-color="#916f6f" offset="0"/>
   <stop stop-color="#ac9393" offset="1"/>
  </linearGradient>
  <radialGradient id="radialGradient3633" cx="542.55" cy="100.09" r="1.1988" gradientTransform="matrix(1 0 0 .94627 -579.78 84.505)" gradientUnits="userSpaceOnUse">
   <stop stop-color="#ac9393" offset="0"/>
   <stop stop-color="#c8b7b7" offset=".70047"/>
   <stop stop-color="#ac9393" stop-opacity="0" offset="1"/>
  </radialGradient>
  <linearGradient id="linearGradient3643" x1="550.09" x2="549.69" y1="101.05" y2="99.953" gradientTransform="translate(-579.78 79.128)" gradientUnits="userSpaceOnUse">
   <stop stop-color="#ac9393" offset="0"/>
   <stop stop-color="#c8b7b7" offset="1"/>
  </linearGradient>
  <linearGradient id="linearGradient3651" x1="530.9" x2="531.04" y1="101.78" y2="100.24" gradientTransform="rotate(-40.396 397.43 748.42)" gradientUnits="userSpaceOnUse">
   <stop stop-color="#6c5353" offset="0"/>
   <stop stop-color="#916f6f" offset=".40923"/>
   <stop stop-color="#ac9393" offset="1"/>
  </linearGradient>
  <linearGradient id="linearGradient3665" x1="522.6" x2="522.8" y1="87.703" y2="85.758" gradientTransform="translate(-579.78 79.128)" gradientUnits="userSpaceOnUse">
   <stop stop-color="#916f6f" offset="0"/>
   <stop stop-color="#ac9393" offset=".62303"/>
   <stop stop-color="#c8b7b7" offset="1"/>
  </linearGradient>
  <linearGradient id="linearGradient3679" x1="521.2" x2="521.15" y1="83.333" y2="82.549" gradientTransform="translate(-579.78,79.128)" gradientUnits="userSpaceOnUse">
   <stop stop-color="#ac9393" offset="0"/>
   <stop stop-color="#c8b7b7" offset="1"/>
  </linearGradient>
  <linearGradient id="linearGradient3687" x1="529.06" x2="540.31" y1="122.69" y2="107.88" gradientTransform="rotate(-40.396 397.43 748.42)" gradientUnits="userSpaceOnUse">
   <stop stop-color="#917c6f" offset="0"/>
   <stop stop-color="#ac9d93" offset="1"/>
  </linearGradient>
  <linearGradient id="linearGradient3689" x1="523.88" x2="536.5" y1="127.56" y2="113.31" gradientTransform="rotate(-40.396 397.43 748.42)" gradientUnits="userSpaceOnUse">
   <stop stop-color="#6c5d53" offset="0"/>
   <stop stop-color="#917c6f" offset="1"/>
  </linearGradient>
  <linearGradient id="linearGradient3703" x1="549.38" x2="548.78" y1="104.25" y2="109.09" gradientTransform="rotate(-40.396 397.43 748.42)" gradientUnits="userSpaceOnUse">
   <stop stop-color="#916f6f" offset="0"/>
   <stop stop-color="#ac9393" offset="1"/>
  </linearGradient>
  <linearGradient id="linearGradient3711" x1="554.72" x2="554.72" y1="89.594" y2="84.156" gradientTransform="rotate(-40.396 397.43 748.42)" gradientUnits="userSpaceOnUse">
   <stop stop-color="#916f6f" offset="0"/>
   <stop stop-color="#ac9393" offset=".092844"/>
   <stop stop-color="#ac9393" offset=".25727"/>
   <stop stop-color="#916f6f" offset=".31553"/>
   <stop stop-color="#916f6f" offset=".5614"/>
   <stop stop-color="#6c5353" offset=".60272"/>
   <stop stop-color="#c8b7b7" offset=".69212"/>
   <stop stop-color="#ac9393" offset=".83029"/>
   <stop stop-color="#916f6f" offset=".88312"/>
   <stop stop-color="#916f6f" offset="1"/>
  </linearGradient>
  <linearGradient id="linearGradient3745" x1="577.33" x2="577.31" y1="91.686" y2="85.3" gradientTransform="rotate(-40.396 397.43 748.42)" gradientUnits="userSpaceOnUse">
   <stop stop-color="#ac9393" offset="0"/>
   <stop stop-color="#ac9393" offset=".49979"/>
   <stop stop-color="#916f6f" offset=".61327"/>
   <stop stop-color="#6c5353" offset=".77855"/>
   <stop stop-color="#ac9393" offset=".82353"/>
   <stop stop-color="#6c5353" offset=".86504"/>
   <stop stop-color="#6c5353" offset="1"/>
  </linearGradient>
  <radialGradient id="radialGradient3765" cx="564.13" cy="102.22" r=".46525" gradientTransform="matrix(1 0 0 .96357 -579.78 82.854)" gradientUnits="userSpaceOnUse">
   <stop stop-color="#e3dbdb" offset="0"/>
   <stop stop-color="#ac9393" stop-opacity="0" offset="1"/>
  </radialGradient>
  <linearGradient id="linearGradient3781" x1="569.28" x2="564.59" y1="99.438" y2="99.406" gradientTransform="rotate(-40.396 397.43 748.42)" gradientUnits="userSpaceOnUse">
   <stop stop-color="#ac9393" offset="0"/>
   <stop stop-color="#c8b7b7" offset="1"/>
  </linearGradient>
  <linearGradient id="linearGradient3785" x1="575.83" x2="575.85" y1="96.901" y2="101.54" gradientTransform="rotate(-40.396 397.43 748.42)" gradientUnits="userSpaceOnUse">
   <stop stop-color="#916f6f" offset="0"/>
   <stop stop-color="#af9696" stop-opacity="0" offset=".10769"/>
   <stop stop-color="#c5b3b3" stop-opacity="0" offset=".89744"/>
   <stop stop-color="#916f6f" offset="1"/>
  </linearGradient>
  <linearGradient id="linearGradient3803" x1="560.08" x2="560.73" y1="106" y2="106" gradientTransform="rotate(-40.396 397.43 748.42)" gradientUnits="userSpaceOnUse">
   <stop stop-color="#916f6f" offset="0"/>
   <stop stop-color="#ac9393" offset="1"/>
  </linearGradient>
  <linearGradient id="linearGradient3811" x1="587.03" x2="584.64" y1="116.92" y2="116.92" gradientTransform="rotate(-40.396 397.43 748.42)" gradientUnits="userSpaceOnUse">
   <stop stop-color="#676c53" offset="0"/>
   <stop stop-color="#8a916f" offset=".43547"/>
   <stop stop-color="#c4c8b7" offset=".65873"/>
   <stop stop-color="#a7ac93" offset="1"/>
  </linearGradient>
  <linearGradient id="linearGradient3823" x1="568.69" x2="569.44" y1="122.03" y2="122.03" gradientTransform="rotate(-40.396 397.43 748.42)" gradientUnits="userSpaceOnUse" xlink:href="#linearGradient3821"/>
  <linearGradient id="linearGradient3823-0" x1="568.69" x2="569.44" y1="122.03" y2="122.03" gradientTransform="rotate(-40.396 392.1 739.98)" gradientUnits="userSpaceOnUse" xlink:href="#linearGradient3821"/>
  <linearGradient id="linearGradient3855" x1="581.97" x2="582.78" y1="116.09" y2="116.09" gradientTransform="rotate(-40.396 397.43 748.42)" gradientUnits="userSpaceOnUse" xlink:href="#linearGradient3821"/>
  <linearGradient id="linearGradient3863" x1="591.54" x2="591.52" y1="94.735" y2="86.007" gradientTransform="rotate(-40.396 397.43 748.42)" gradientUnits="userSpaceOnUse">
   <stop stop-color="#916f6f" offset="0"/>
   <stop stop-color="#ac9393" offset=".37974"/>
   <stop stop-color="#916f6f" offset=".63037"/>
   <stop stop-color="#ac9393" offset="1"/>
  </linearGradient>
  <linearGradient id="linearGradient3875" x1="590.24" x2="590.79" y1="74.649" y2="87.51" gradientTransform="rotate(-40.396 397.43 748.42)" gradientUnits="userSpaceOnUse">
   <stop stop-color="#916f6f" offset="0"/>
   <stop stop-color="#ac9393" offset=".22347"/>
   <stop stop-color="#ac9393" offset=".62411"/>
   <stop stop-color="#916f6f" offset="1"/>
  </linearGradient>
  <linearGradient id="linearGradient3887" x1="578.1" x2="577.97" y1="71.998" y2="67.733" gradientTransform="rotate(-40.396 397.43 748.42)" gradientUnits="userSpaceOnUse">
   <stop stop-color="#6c6753" offset="0"/>
   <stop stop-color="#aca793" offset=".2352"/>
   <stop stop-color="#c8c4b7" offset=".34141"/>
   <stop stop-color="#aca793" offset=".4575"/>
   <stop stop-color="#aca793" offset=".83562"/>
   <stop stop-color="#918a6f" offset="1"/>
  </linearGradient>
  <linearGradient id="linearGradient3909" x1="624.82" x2="624.75" y1="96.636" y2="86.93" gradientTransform="rotate(-40.396 397.43 748.42)" gradientUnits="userSpaceOnUse">
   <stop stop-color="#917c6f" offset="0"/>
   <stop stop-color="#ac9d93" offset=".34454"/>
   <stop stop-color="#c8beb7" offset=".50355"/>
   <stop stop-color="#ac9d93" offset="1"/>
  </linearGradient>
  <linearGradient id="linearGradient3932" x1="653.34" x2="653.3" y1="86.166" y2="84.917" gradientTransform="rotate(-40.396 397.43 748.42)" gradientUnits="userSpaceOnUse">
   <stop stop-color="#916f6f" offset="0"/>
   <stop stop-color="#ac9393" offset=".6238"/>
   <stop stop-color="#916f6f" offset="1"/>
  </linearGradient>
  <linearGradient id="linearGradient3942" x1="596.36" x2="596.34" y1="86.625" y2="84.125" gradientTransform="rotate(-40.396 397.43 748.42)" gradientUnits="userSpaceOnUse">
   <stop stop-color="#916f6f" offset="0"/>
   <stop stop-color="#c8b7b7" offset=".67505"/>
   <stop stop-color="#ac9393" offset="1"/>
  </linearGradient>
  <linearGradient id="linearGradient3952" x1="598.04" x2="598.06" y1="86.869" y2="84.438" gradientTransform="rotate(-40.396 397.43 748.42)" gradientUnits="userSpaceOnUse">
   <stop stop-color="#6c5353" offset="0"/>
   <stop stop-color="#916f6f" offset="1"/>
  </linearGradient>
  <linearGradient id="linearGradient3960" x1="596.89" x2="597.02" y1="95.973" y2="88.438" gradientTransform="rotate(-40.396 397.43 748.42)" gradientUnits="userSpaceOnUse">
   <stop stop-color="#916f6f" offset="0"/>
   <stop stop-color="#ac9393" offset=".65103"/>
   <stop stop-color="#916f6f" offset="1"/>
  </linearGradient>
  <linearGradient id="linearGradient3972" x1="665.14" x2="665.14" y1="86.188" y2="85" gradientTransform="rotate(-40.396 397.43 748.42)" gradientUnits="userSpaceOnUse">
   <stop stop-color="#916f6f" offset="0"/>
   <stop stop-color="#ac9393" offset="1"/>
  </linearGradient>
  <linearGradient id="linearGradient3988" x1="669.92" x2="669.94" y1="95.2" y2="93.498" gradientTransform="rotate(-40.396 397.43 748.42)" gradientUnits="userSpaceOnUse">
   <stop stop-color="#916f6f" offset="0"/>
   <stop stop-color="#ac9393" offset="1"/>
  </linearGradient>
  <linearGradient id="linearGradient4002" x1="662.63" x2="662.74" y1="94.846" y2="88.924" gradientTransform="rotate(-40.396 397.43 748.42)" gradientUnits="userSpaceOnUse">
   <stop stop-color="#916f6f" offset="0"/>
   <stop stop-color="#ac9393" offset=".50611"/>
   <stop stop-color="#916f6f" offset="1"/>
  </linearGradient>
  <linearGradient id="linearGradient4020" x1="675.04" x2="675.12" y1="94.268" y2="90.659" gradientTransform="rotate(-40.396 397.43 748.42)" gradientUnits="userSpaceOnUse" xlink:href="#linearGradient4026"/>
  <linearGradient id="linearGradient4038" x1="675.01" x2="675.03" y1="94.095" y2="90.316" gradientTransform="rotate(-40.396 397.43 748.42)" gradientUnits="userSpaceOnUse" xlink:href="#linearGradient4026"/>
  <linearGradient id="linearGradient4046" x1="696.78" x2="696.78" y1="93.75" y2="90.906" gradientTransform="rotate(-40.396 397.43 748.42)" gradientUnits="userSpaceOnUse" xlink:href="#linearGradient4026"/>
  <linearGradient id="linearGradient4060" x1="729.97" x2="729.97" y1="93.344" y2="90.344" gradientTransform="rotate(-40.396 397.43 748.42)" gradientUnits="userSpaceOnUse" xlink:href="#linearGradient4026"/>
  <linearGradient id="linearGradient4078" x1="752.02" x2="752" y1="92.469" y2="91.281" gradientTransform="rotate(-40.396 397.43 748.42)" gradientUnits="userSpaceOnUse">
   <stop stop-color="#6c5353" offset="0"/>
   <stop stop-color="#916f6f" offset="1"/>
  </linearGradient>
 </defs>
 <g stroke="#000" stroke-linecap="round" stroke-linejoin="round">
  <g>
   <g stroke-width=".25">
    <path d="m227.52 34.633 0.70208 0.8678 1.6538-1.5088-0.70299-0.809z" fill="#6c5353"/>
    <path d="m213.37 40.559c-0.40415 0.66346 2.6868 3.9473 2.8449 3.4879 1.7996-2.5883-0.55548-4.756-2.8449-3.4879z" fill="#6c5353"/>
    <path d="m242.53 20.982 1.0865-0.96548c-0.27135-1.1086-1.6073-2.5491-2.4236-2.8l-1.2376 1.0531z" fill="url(#linearGradient4078)"/>
    <path d="m186.24 69.16 34.077-28.969-2.5877-2.9046-33.927 28.87z" fill="url(#linearGradient4046)"/>
    <path d="m168.66 61.118c-1.139 1.0122-1.5672 2.87-0.0984 4.3025l2.2918 2.2352 3.8626-3.3689-1.6913-2.3974c-1.3757-1.95-3.2256-1.7835-4.3647-0.7713zm0.64867 0.82263a1.8438 1.8203 49.604 0 1 2.5812 0.22449 1.8438 1.8203 49.604 0 1-0.19145 2.5839 1.8438 1.8203 49.604 0 1-2.5812-0.22449 1.8438 1.8203 49.604 0 1 0.19144-2.5839z" fill="#6c5353"/>
    <path d="m171.32 65.06c-0.31901-0.87099-0.76789-1.6495-1.3082-2.2502-0.12253-0.13628-0.29043-0.15099-0.41653-0.28292l0.64079-0.5248c0.0925 0.11796 0.10197 0.30074 0.19528 0.40724 0.68833 0.7856 1.4833 1.211 2.1882 1.791-0.43129 0.289-0.27413 1.3309-1.2996 0.85969z" fill="#916f6f"/>
    <path d="m166.48 72.131c0.22915 0.09243 1.3097-0.9958 1.2477-1.0412l2.5918 3.1904-1.6196 1.2552z" fill="#6c5353"/>
    <path d="m167.39 71.684c0.74541 0.64234 1.4745 1.2986 2.1091 2.0352l0.75517-0.7151-2.1296-1.9742z" fill="#916f6f"/>
    <path d="m166.98 71.408 0.55208 0.38194 0.43102-0.32976c0.20698 0.09942 0.56096 0.23315 0.86615 0.6386l-0.46724 0.40415 0.56631 0.5379 0.47748-0.38333c0.16223 0.12784 0.31943 0.30347 0.41517 0.48788l-0.55791 0.53869 0.33592 0.37068 1.325-1.0055c-0.65301-1.1914-1.3819-2.445-2.8826-2.6896-0.5084 0.42342-1.1692 0.9419-1.0613 1.0482z" fill="#c8b7b7"/>
    <path d="m116.32 114.75c0.27561-0.10348 0.45086-0.27874 0.5784-0.48824l2.1624-1.8232c0.34123-0.12093 0.66397-0.45956 0.98411-0.82954l3.1013 3.7297 2.2458 8.7084-0.61174 0.49155c-3.1297-2.9995-6.3307-5.9383-8.4604-9.7888z" fill="url(#linearGradient3952)"/>
    <path d="m116.73 114.18 2.5827 2.9669 2.1805-1.8419-2.5874-3.0344z" fill="url(#linearGradient3942)"/>
    <path d="m118.79 117.86c1.4973 1.551 3.8439 4.1874 5.7748 6.8917l1.6664-1.391c0.41183-0.24685 0.70894 0.37795 0.8909 0.19938l1.4355-1.2795c-1.9785-2.7211-4.1254-5.233-6.3597-7.6824l-1.517 1.3525-0.0954 0.40526z" fill="url(#linearGradient3960)"/>
    <path d="m117.23 115.64c1.1258 1.1127 2.107 2.3059 3.0483 3.5213 1.792 1.6572 3.4125 3.5047 4.696 5.2774-1.5533 1.4467-3.565 2.3047-4.0283 5.1512l-8.4977-10.372z" fill="url(#linearGradient3863)"/>
    <path d="m109.94 150.2 18.004 21-0.53172 0.63051-17.982-20.974z" fill="#8a916f"/>
    <path d="m109.67 149.94 18.271 21.262 13.206-16.178-19.721-22.966z" fill="url(#linearGradient3811)"/>
    <path d="m118.24 136.3 18.215 20.909c0.74912 0.85996 1.8203-0.38088 1.2282-1.0674l-18.299-21.216z" fill="url(#linearGradient3855)"/>
    <path d="m108.98 153.48c0.69347-0.4356 1.2602-0.91014 2.0229-0.7571l-1.5717-1.8683-1.4822 1.3896z" fill="#916f6f"/>
    <path d="m104.94 154.64 0.96731 1.0644c0.87824 0.13154 1.2643-0.23941 1.6122-0.61282l-1.021-1.2239z" fill="#916f6f"/>
    <path d="m119.83 125.7 0.87711 1.3717 1.0137 3.3735c-0.48605 0.62722 0.19835 1.6648 0.73017 2.6641l-19.734 17.941-6.5435-2.551c4.2394-9.4176 15.596-15.287 23.656-22.8z" fill="#6c5353"/>
    <path d="m105.99 149.97c-0.85862-0.42068-2.7241 1.0097-2.3741 1.0761 0.56939 0.10807 1.3654 0.61192 1.2026 0.92043-0.37109 0.70308-0.61145 1.2638-0.75687 1.7166l0.97035 1.1644c2.0633-1.0023 2.3605-0.0948 3.9453-1.3671z" fill="url(#linearGradient3803)"/>
    <path d="m111.34 148.29 16.736 19.72c0.73834 0.86923 1.6006-0.17168 1.0068-0.85676l-17.14-19.776z" fill="url(#linearGradient3823)"/>
    <path d="m115.54 142.82 16.736 19.72c0.73834 0.86921 1.6006-0.17169 1.0068-0.85677l-17.14-19.776z" fill="url(#linearGradient3823-0)"/>
    <path d="m102.72 151.05 0.63133 0.69377 1.0508-0.93511c0.42369-0.37707 0.94277-0.19404 1.2299 0.14339l1.4582 1.7136c0.43449 0.51059 0.92493 0.28796 1.2917-0.0733l1.529-1.5063c1.346-1.326 8.4283-12.028 12.543-17.977-1.2811-1.631-2.1668-2.9118-1.3775-4.3673l-0.44393-1.9201-15.453 13.232c-1.5424 1.3204-3.0834 3.2873-2.2563 4.8949l-1.4214 1.2711c2.8628 0.96416 2.3451 3.8083 1.2182 4.8311z" fill="#ac9393"/>
    <path d="m99.548 137.52c3.1247 3.3226 19.309-11.763 16.504-13.856l-3.6859-3.8507c-8.53 6.5435-18.808 13.628-12.819 17.706z" fill="url(#linearGradient3745)"/>
    <path d="m61.192 168.29 0.06723-0.62373 6.5454-7.9137 0.30126 0.70269z" fill="#6c5353"/>
    <path d="m94.706 165.56c0.1197-0.23016 0.24893-0.43662 0.3329-0.75539-0.03066-0.60164-0.63024-1.1197-0.77863-1.0999l-0.56043 0.414z" fill="#6c5d53"/>
    <path d="m94.116 162.73 1.3391-1.0061c0.10782-0.31339-0.27871-0.64454-0.44291-0.55661l-1.3962 1.0958z" fill="#916f6f"/>
    <path d="m184.34 71.647c-0.25082 0.29103-0.37429 0.05535-0.55269-0.12287l0.58191-0.51566z" fill="#6c5353"/>
    <path d="m180.86 67.878c-0.15751 0.17106 0.11673 0.47524 0.30763 0.75372l0.64791-0.55134c-0.18879-0.22304-0.24127-0.60956-0.95554-0.20238z" fill="#6c5353"/>
    <path d="m186.57 68.87c-0.35904-0.75603-2.135-2.6113-2.5418-2.9097-0.50235 0.39241-0.72377 0.2365-1.095 0.5616l-2.8127 2.4635 2.9618 3.4837 2.7608-2.385c0.40712-0.35169 0.18805-0.6955 0.72703-1.2142z" fill="url(#linearGradient4020)"/>
    <path d="m178.26 79.582 5.928-4.8993c0.3365-0.82523-0.11857-1.9465-0.84085-2.7953l-4.3534-5.116c-0.34604-0.40666-0.83775-0.30382-1.0902-0.0878l-6.1955 5.3011z" fill="url(#linearGradient3988)"/>
    <path d="m55.244 174.37c1.9614-2.6565 2.7572-8.3172 5.9864-10.571l2.0186 2.5941c-2.7324 2.8187-8.7269 11.838-8.0051 7.9764z" fill="#ac9393"/>
    <path d="m67.036 179.94c0.09716-1.854 0.54962-2.88 0.65437-4.4085l-4.1408 0.20761c-2.4931 3.5175 0.13373 6.9449 3.4865 4.2009z" fill="#917c6f"/>
    <path d="m99.836 155.59c0.18168 0.50902 0.42208 0.86483 0.87454 0.99238 0.30512 0.086 2.5085 0.0473 4.0373 2.0983 1.1886 1.5946 1.4633 3.8423-0.51457 6.0402-1.8381 2.0425-5.3763 3.9513-7.8449 5.0275l-0.12026 0.28194c2.5963-0.47964 6.1754-2.945 8.3143-5.0715 2.2447-2.2316 1.7845-4.8298 0.46431-6.6361-1.3131-1.7965-3.6687-2.1252-3.9685-2.2161-0.60531-0.18364-0.46835-0.27848-0.72734-0.89179z" fill="#916f6f"/>
    <path d="m94.526 160.46-0.72885-0.5913 3.2307-2.267 0.37359 0.74529z" fill="#6c5353"/>
    <path d="m61.192 168.29 6.4983 7.248-1.4622 1.7339c-0.40449 0.47964-0.18267 0.94657 0.15122 1.4069l0.82085 1.1317s-2.528 3.0892-3.3408 4.1922c-0.24017 0.32596 0.32461 0.23598 0.36579 0.18207 0.43174-0.56529 4.9389-6.2384 5.8186-6.9146 6.3018-4.844 31.861-22.817 32.235-23.108 0.54644-0.42586 0.26784-1.088 0.0802-1.4372l-4.7118-5.763-29.611 13.082-2.6731 3.2208c-0.08429 0.58297-0.5973 1.1509-1.1024 1.3282z" fill="url(#linearGradient3651)"/>
   </g>
   <path d="m72.245 167.05c0.15278 0.14682 0.61232 0.60693 0.97142 0.29767l19.189-16.525c1.3554-1.1672 2.6606-1.0158 3.1374-0.68329l0.7029-0.59813c-5.3552-3.8273-24.876 16.364-24 17.508z" fill="#6c5353" stroke-width=".1"/>
  </g>
  <g fill="#6c5d53" stroke-width=".25">
   <path d="m31.062 238.59c-3.7909-11.02-17.528-22.102-21.501-21.763 7.5135 6.3276 14.513 13.328 21.501 21.763z"/>
   <path d="m12.052 218.2c-0.24484 0.24525-0.69652 0.6665-0.57018 0.7678 0.43925 0.35213 0.81146-0.71532 1.104-0.43674 0.28282 0.26941-0.63868 0.91742-0.42211 1.0931 0.25058 0.20328 0.74428-0.92172 1.0424-0.65535 0.29633 0.26477-0.70124 0.98204-0.45412 1.1882 0.20094 0.16763 0.73791-0.94748 1.0683-0.68461 0.34304 0.27289-0.70147 0.99702-0.38348 1.21 0.18542 0.12423 0.69745-0.9687 1.0359-0.71937 0.3588 0.26428-0.66488 1.0313-0.43654 1.2094 0.16697 0.13018 0.82033-0.89098 0.82033-0.89098l0.50024 0.39498-1.0056 1.1864 2.3228 2.0011s0.40774-0.21684 0.54872-0.0959c0.2465 0.21144 0.07629 0.38325 0.30006 0.56611l0.5928-0.75314c1.5734 1.1778 2.8442 2.6131 4.1072 4.0551l-0.66516 0.68905 3.2722 3.6167 0.78971-0.65152s0.64513 0.56539 0.54681 0.64258c0 0-0.96439 0.68229-0.87146 0.80827 0.17026 0.23078 0.61613-0.4065 0.79072-0.17893 0.16442 0.21436-0.48045 0.54737-0.30349 0.7515 0.20508 0.23638 0.71132-0.4649 0.91158-0.22443 0.19842 0.2378-0.57928 0.60861-0.38172 0.8471 0.20294 0.24466 0.7263-0.46957 0.92716-0.22318 0.1965 0.24172-0.60338 0.61232-0.3973 0.84584 0.22393 0.25391 0.74262-0.56864 0.96583-0.31411 0.226 0.25787-0.66833 0.66982-0.44314 0.92836 0.2127 0.24379 0.71184-0.53719 0.92502-0.29389 0.21912 0.24979-0.64311 0.65229-0.42409 0.90213 0.22414 0.25569 0.75325-0.56968 0.97199-0.3094 0.21476 0.25547-0.67306 0.62789-0.46336 0.88755 0.22478 0.27804 0.80753-0.56177 1.034-0.2851 0.22247 0.27223-0.7204 0.68918-0.47554 0.94143 0.28191 0.29039 0.81051-0.79829 1.0996-0.51497 0.3093 0.30315-0.82998 0.87762-0.52735 1.1874 0.2516 0.25756 1.6184-1.3771 1.6184-1.3771l-17.082-19.399z"/>
   <path d="m93.479 163.9 1.0351-0.81789c-0.26886-0.35298-0.81562-1.0186-1.1967-1.6097l-1.1479 0.74075z"/>
   <path d="m97.016 169.14c0.1197-0.23015 0.24893-0.43661 0.33289-0.75539-0.02632-0.28265-0.31061-0.53483-0.45896-0.51512l-0.56044 0.414z"/>
  </g>
  <g>
   <path d="m81.747 167.9-1.2802 1.7503c-0.15295 0.20906-0.33692 0.68671 0.21044 0.76513 2.8214 0.40424 5.3962 3.6668 4.9988 6.762l-1.824 14.204c-0.16383 1.2757 1.3716 2.952 2.593 2.6404l9.9303-2.5331c1.148-0.29284 1.3366-1.2201 1.2515-2.4498l-1.1247-17.707c-0.05532-0.87172 0.22453-1.3097 0.57803-1.6879 0.44502-0.47598 0.3035-0.67768 0.15658-0.8886-1.6931-2.4305-3.3054-4.6193-5.1241-6.9418-0.3216-0.41066-1.1769-0.38955-1.368-0.28055z" fill="url(#linearGradient3689)" stroke-width=".25"/>
   <path d="m82.039 168.46c1.4133 1.6609 4.5227 4.3226 4.7396 6.0929 0.47697 3.8924-1.0483 11.575-1.8093 17.541-0.0944 0.74036 0.66233 1.0934 1.1473 0.98215l10.241-2.3496c0.34234-0.0785 0.66338-0.33592 0.58448-0.98697l-2.2106-18.238c-0.15012-1.2386 1.8202-2.4359 1.5378-2.822l-5.0365-6.8863c-0.27409-0.37472-0.43108-0.35021-0.7349-0.13132l-8.5265 6.1428c-0.26682 0.19225-0.23051 0.30448 0.06751 0.6547z" fill="url(#linearGradient3687)" stroke-width=".1"/>
   <path d="m175.38 82.054 3.0614-2.5422c0.45068-0.37431 0.95707-0.91014 0.0336-2.1058-1.3091-1.6948-3.7636-4.4725-4.2501-5.0703-0.57435-0.70566 0.68508-1.5462 1.104-2.1037 0.48399-0.64422-0.29307-1.1139-0.62236-0.82935l-4.7518 4.1064c-0.85483 0.73922-2.4478-1.1948-3.6757-1.9653z" fill="url(#linearGradient4002)" stroke-width=".25"/>
   <path d="m119.1 110.8c1.0631 1.1692 2.1399 2.4491 3.2461 3.6671 3.0028 3.306 5.711 6.5958 6.5918 7.9906l47.233-40.103c-3.2032-4.2866-6.8274-7.6487-10.091-11.178zm37.246-26.894 4.5992-3.9137c0.57412-0.48855 1.4304-0.4196 1.919 0.15453 0.48856 0.57414 0.41833 1.429-0.1558 1.9175l-4.5992 3.9137c-0.57413 0.48856-1.4292 0.42109-1.9177-0.15305-0.48855-0.57413-0.4196-1.4304 0.15454-1.919zm-9.2042 7.863 4.6007-3.915c0.57414-0.48856 1.429-0.41833 1.9175 0.1558 0.48855 0.57413 0.42108 1.4292-0.15306 1.9177l-4.6007 3.915c-0.57414 0.48856-1.4304 0.4196-1.919-0.15453-0.48855-0.57413-0.4196-1.4304 0.15453-1.919z" fill="url(#linearGradient3909)" stroke-width=".25"/>
  </g>
  <g fill="#6c5d53">
   <path d="m147.14 91.772c-0.57414 0.48856-0.64308 1.3449-0.15453 1.919 0.0751 0.08825 0.16056 0.16106 0.25064 0.22526-0.22537-0.5326-0.0966-1.1667 0.36828-1.5623l4.5992-3.9137c0.48585-0.41343 1.1711-0.42549 1.6671-0.0722-0.053-0.12523-0.11944-0.2459-0.21246-0.35521-0.48855-0.57413-1.3434-0.64436-1.9175-0.1558z" stroke-width=".26101"/>
   <path d="m156.34 83.909c-0.57414 0.48856-0.64309 1.3449-0.15454 1.919 0.0549 0.06458 0.11549 0.11922 0.17883 0.17096-0.21691-0.52962-0.088-1.1561 0.37268-1.5481l4.6007-3.915c0.50948-0.43354 1.2378-0.42456 1.7374-0.01666-0.0534-0.13038-0.12038-0.25595-0.21691-0.36938-0.48855-0.57413-1.3449-0.64308-1.919-0.15453z" stroke-width=".26101"/>
   <ellipse transform="rotate(-40.396)" cx="73.463" cy="164.79" rx="1.4437" ry="1.3238" stroke-width=".23899"/>
  </g>
  <g stroke-width=".25">
   <path d="m83.345 123.14 3.7973 3.9446s0.96009-0.69841 1.3819-1.113c0.50641-0.49777 0.0754-1.5944 0.93928-2.373 1.0378-0.93525 1.8849-0.17832 2.5766-0.74474 0.85402-0.69941 0.22232-1.7711 1.5289-2.9376 1.1405-1.0183 2.0703-0.49651 2.8485-1.165 0.87036-0.74719 0.18394-1.6018 1.7681-2.9524 1.4965-1.2761 2.3407-0.3916 3.1863-1.1377 0.89687-0.79129-0.14579-1.6932 1.5005-3.0079 1.6428-1.3119 2.5477-0.67672 3.0539-1.1824l1.7012-1.6994c0.35555-0.35522 0.55354-0.73392 0.22222-1.0704l-2.3724-2.4091c-0.6627-0.67293-2.6658-0.80209-3.7185 0.13512l-18.336 16.325c-0.38415 0.34199-0.47454 0.97592-0.07773 1.3881z" fill="url(#linearGradient3887)"/>
   <path d="m129.7 168.95c0.45329-0.9421 0.45503-1.7289 1.448-2.9013l6.7498-7.9692c0.31861-0.37617 0.61626 0.11378 0.416 0.35818z" fill="#c4c8b7"/>
   <path d="m67.691 175.53-6.6367-7.4292c-0.9874 2.462-1.9449 4.9255 2.4959 7.6368z" fill="#ac9d93"/>
  </g>
  <g>
   <path d="m55.421 174.6c2.4898-3.7461 2.9522-7.6544 6.215-10.136" fill="none" stroke-width=".1"/>
   <g stroke-width=".25">
    <path d="m62.178 166.45 5.6272-6.6992-2.5783-3.0377c-0.16442-0.1937-0.45203-0.36551-0.6374-0.14751l-3.0813 3.6235-0.65534 3.0614c0.11178 0.59606 0.39043 1.2771 0.01348 1.6243z" fill="#ac9393"/>
    <path d="m62.766 158.83 0.65388 0.68988 2.106-2.3373-0.49986-0.5561c-0.14453-0.16059-0.33418-0.0823-0.4386 0.0417z" fill="#c8b7b7"/>
    <path d="m67.629 159.61-1.6439 0.56478c-0.69012-2.0827-2.4497 0.29511-0.65036 0.47477l-1.3672 2.2435-3.1021 1.9758 1.3117 1.5753 5.6272-6.6992z" fill="none"/>
   </g>
   <ellipse transform="rotate(-40.396)" cx="-57.097" cy="165.81" rx="1.2242" ry="1.1247" fill="url(#linearGradient3665)" stroke-width=".22781"/>
   <path d="m63.213 163.93 1.6807-1.1812" fill="none" stroke-width=".5"/>
  </g>
  <g>
   <path d="m60.395 158.34-2.6043-3.1344c-0.35284-0.42544 0.16159-0.80035 0.48376-0.41164l2.8808 3.4758z" fill="#c8b7b7" stroke-width=".25"/>
   <path d="m63.263 160.73-4.6065 4.9428-1.1692-1.3184 1.8409-1.8497-1.0256-1.0943 1.9439-3.0232c0.18083-0.28125 0.61759-0.45556 0.8793-0.15025z" fill="url(#linearGradient3585)" stroke-width=".25"/>
   <ellipse transform="rotate(-40.396)" cx="-58.538" cy="162.28" rx="1.0067" ry=".93482" fill="#6c5353" stroke-width=".1"/>
   <path d="m58.125 165.09 1.4758-1.539-0.71263-0.65253-1.4014 1.46z" fill="url(#linearGradient3577)" stroke-width=".25"/>
   <ellipse transform="rotate(-40.396)" cx="-57.148" cy="160.56" rx=".25168" ry=".22771" fill="#6c5353" stroke-width=".1"/>
   <circle transform="rotate(-40.396)" cx="-59.816" cy="174.94" r=".66102" fill="#6c5353" stroke-width=".1"/>
   <ellipse transform="rotate(-40.396)" cx="-55.727" cy="178.38" rx="1.156" ry="1.1468" fill="#916f6f" stroke-width=".10334"/>
   <ellipse transform="rotate(-40.396)" cx="-55.766" cy="178.38" rx="1.0605" ry="1.0678" fill="#ac9393" stroke-width=".095509"/>
   <ellipse transform="rotate(-40.396)" cx="-37.231" cy="179.22" rx="1.2725" ry="1.2013" fill="#6c5353" stroke-width=".105"/>
   <ellipse transform="rotate(-40.396)" cx="-37.231" cy="179.22" rx="1.1513" ry="1.0869" fill="url(#radialGradient3633)" stroke-width=".095"/>
   <ellipse transform="rotate(-40.396)" cx="-30.104" cy="180.01" rx="1.2636" ry="1.1924" fill="#6c5353" stroke-width=".105"/>
   <ellipse transform="rotate(-40.396)" cx="-30.104" cy="180.01" rx="1.1432" ry="1.0788" fill="url(#linearGradient3643)" stroke-width=".095"/>
   <ellipse transform="rotate(-40.396)" cx="-24.917" cy="178.72" rx="1.2636" ry="1.1924" fill="#6c5353" stroke-width=".105"/>
   <ellipse transform="rotate(-40.396)" cx="-24.917" cy="178.72" rx="1.1432" ry="1.0788" fill="#ac9393" stroke-width=".095"/>
   <path d="m71.129 165.69 1.0674 1.2282c0.2612 0.30078 0.62527 0.31764 0.90791 0.0731l18.74-16.214c2.0474-1.7714 3.4978-1.3044 3.9596-0.94362l1.4658-1.1805-4.3381-2.718z" fill="#ac9393" stroke-width=".25"/>
   <path d="m70.938 165.33 0.52595 0.61962 19.583-16.643c1.9113-1.6238 4.9375-1.1318 5.7297-0.3929l0.65504-0.54296c-8.8273-4.4223-21.886 12.513-26.494 16.96z" fill="#6c5353" stroke-width=".1"/>
   <path d="m119.63 123.88c-0.58654 0.31022-0.87855 0.88876-2.0004 0.0553l-1.4522-1.0788-0.80416 0.72881c0.67494 0.86646 0.54758 1.7658-0.3473 2.521l-12.72 10.735c-0.9758 0.8238-1.8084 0.3131-2.3233-0.11498l-31.035 26.454 2.1787 2.508 19.336-16.454c2.9872-2.542 6.2625-1.1784 6.8042-0.58229l0.53431-0.45468c0.18066-1.2572 1.7359-2.216 2.6778-2.1272l1.4008-1.2297c-0.46014-1.6638 0.61106-3.8694 2.7637-5.6703l15.522-12.986z" fill="#ac9393" stroke-width=".25"/>
  </g>
  <g>
   <rect transform="rotate(-40.396)" x="-21.865" y="173.06" width="3.6913" height="2.0614" ry="1.0307" fill="none" stroke-width=".25"/>
   <ellipse transform="rotate(-40.396)" cx="-19.168" cy="174.14" rx=".41947" ry=".43145" fill="none" stroke-width=".25"/>
   <ellipse transform="rotate(-40.396)" cx="-19.963" cy="178.73" rx="2.6612" ry="2.5939" fill="#ac9393" stroke-width=".25435"/>
   <ellipse transform="rotate(-40.396)" cx="-19.992" cy="178.7" rx=".72881" ry=".69492" fill="#916f6f" stroke-width=".25"/>
   <path d="m100.04 149.23 1.0768-0.3822" fill="none" stroke-width=".25"/>
  </g>
  <g>
   <ellipse transform="rotate(-40.396)" cx="-15.705" cy="181.42" rx=".41525" ry=".39831" fill="url(#radialGradient3765)" stroke-width=".1"/>
   <g stroke-width=".25">
    <path d="m68.95 163.18-0.66807-0.81132c-1.1332-1.3759-0.58974-2.4124-2.1487-4.5493l45.765-38.686 1.1417 1.3989-5.8357 4.8185c-2.9396 2.4272-3.4237 2.2135-6.8054 5.1556-1.0816 0.94097-0.67704 4.4157-0.414 6.2201z" fill="url(#linearGradient3711)"/>
    <path d="m111.31 119.01 4.2583 4.9161 0.60743-1.073-1.6992-1.6262c-0.98111-0.93896-1.6156-1.7511-0.35753-2.8569l3.104-2.7284-0.86174-0.97857c-0.19247-0.21848-0.27741-0.25856-0.41173-0.14289l-4.5416 3.9107c-0.12 0.10332-0.30294 0.3426-0.0979 0.57925z" fill="#916f6f"/>
    <path d="m94.526 160.46c0.66437 0.65869 1.9734 1.8585 1.9931 1.9761 0.85222 2.1519 2.4901 3.2775 4.7486 3.5927 0.18794 0.0224 0.27123-0.24879 0.049-0.30868-4.9936-1.7048-3.1428-6.1479-3.9151-7.3732z" fill="url(#linearGradient3703)"/>
    <path d="m43.067 234.27 0.75664-1.1226-1.8211-3.4698-0.99583 1.6598z" fill="#6c5353"/>
    <path d="m36.141 235.51c1.9817-1.5454 3.5491-2.546 5.6698-4.4185 0.96036-1.8972 0.94575-5.9694 1.2756-8.8324-2.6573 3.8493-4.8983 8.4007-6.9454 13.251z" fill="url(#linearGradient3561)"/>
    <path d="m39.58 231.74 2.4309 2.5158c0.56834 0.58811 1.5313 0.032 1.1318-0.81805l-1.539-3.2747c-0.98488-2.0957-3.5748-0.0286-2.0237 1.577z" fill="#916f6f"/>
    <ellipse transform="rotate(-40.396)" cx="-118.69" cy="201.61" rx=".61872" ry=".55243" fill="#6c5353"/>
    <path d="m42.42 234.21c0.46203-0.34377 0.46002-0.94484-0.0496-1.0374-1.5886-0.0699-1.4852 1.6029-1.3927 3.435 0.03413 0.68576 0.37244 1.12 0.9301 0.9527l1.2834-0.385c0.80687-0.24206 0.8675-1.3608 0.87834-1.8222l0.04123-1.754c0.0042-0.17913-0.14318-0.61873-0.28972-0.44408l-0.47589 0.56721c-0.0054 0.24925-0.01253 0.35785-0.16722 0.44395l-0.09349 1.9418c0.02879 0.30708-1.3529 0.74008-1.3678 0.45635-0.04027-0.77351-0.03211-1.9621 0.20758-2.126z" fill="#ac9393"/>
   </g>
  </g>
  <path d="m104.75 152.13 0.73023-1.36" fill="none" stroke-width=".1"/>
 </g>
 <g>
  <path d="m106.62 146.17c0.35253-0.12951 1.2366-0.58715 1.881-1.1445l12.112-10.476c0.2185-0.18856 0.30488-0.41828 0.0567-0.70482l-2.373-2.7405c-0.31996-0.36985-0.5968-0.43843-0.84658-0.22336l-12.166 10.475c-0.58815 0.50705-1.1318 1.2105-1.3475 1.516z" fill="url(#linearGradient3781)"/>
  <path d="m116.01 120.42c0.57368 0.65069 1.6332-0.29613 1.1031-0.89772l-3.0538-3.3717-0.99478 0.92857z" fill="#6c5353" stroke="#000" stroke-linecap="round" stroke-linejoin="round" stroke-width=".25"/>
  <path d="m116.18 120.35c0.42568 0.31524 1.1657-0.16171 0.7616-0.64806l-9.8945-10.784-0.77226 0.78018z" fill="url(#linearGradient3875)" stroke="#000" stroke-linecap="round" stroke-linejoin="round" stroke-width=".25"/>
 </g>
 <g stroke="#000" stroke-linecap="round" stroke-linejoin="round">
  <g fill="#916f6f">
   <path d="m106.18 110.02 0.42935 0.31168 1.0739-1.0164-0.37526-0.50133z" stroke-width=".25"/>
   <path d="m118.34 114.9 0.56302 0.6493 1.1967-1.0288-0.56881-0.64437z" stroke-width=".1"/>
   <path d="m119.74 116.6-0.0631-0.21595 1.1304-0.97646 0.13277 0.15139z" stroke-width=".1"/>
  </g>
  <g>
   <path d="m120.59 116.35c1.8724 1.666 4.1094 4.4578 5.8492 6.9546" fill="none" stroke-width=".1"/>
   <path d="m179.01 67.337 1.8596-1.6029c0.51613-0.44445 0.83705-1.3099 0.90276-1.5109l-0.44834-0.50418-3.6723 2.7718z" fill="#916f6f" stroke-width=".25"/>
   <ellipse transform="rotate(-40.396)" cx="88.271" cy="168.84" rx="1.5547" ry="1.4531" fill="none" stroke-width=".1"/>
  </g>
  <g>
   <ellipse transform="rotate(-40.396)" cx="88.283" cy="168.87" rx="1.243" ry="1.1221" fill="#916f6f" stroke-width=".11244"/>
   <g stroke-width=".25">
    <path d="m176.13 63.578 1.9067-1.6805 1.1497-0.45606 0.51553 0.60583-3.0714 2.3235z" fill="#ac9393"/>
    <path d="m179.87 62.311-0.32314-0.40134-1.1738 0.3924-1.5413 1.3612c-0.11415 0.10108-0.176 0.40097-0.0622 0.535l1.6348 1.9258c0.15009 0.17679 0.61424 0.20869 0.81376 0.0329l1.5381-1.3552 0.56012-1.0824-0.24362-0.29093-1.0602 0.90219-1.0909-1.2478c0.31826-0.21291 0.74474-0.60366 0.94836-0.7718z" fill="#c8b7b7"/>
    <path d="m167.6 70.599c0.28318-0.49266 2.4238 1.6022 2.7345 2.5395l8.1816-7.0948-2.0026-2.4216c-0.2616-0.31667-0.67146-0.34945-1.3811 0.25234l-5.8366 4.9496c-0.61388 0.52107-0.87172 0.17775-1.2229 0.49785l-0.61977 0.56494c-0.16686 0.14331-0.048 0.68102 0.14673 0.71215z" fill="url(#linearGradient3972)"/>
    <path d="m168.95 60.969c-1.139 1.0122-1.5672 2.87-0.0984 4.3025l2.2918 2.2352 3.8626-3.3689-1.6913-2.3974c-1.3757-1.95-3.2256-1.7835-4.3647-0.7713zm0.64372 0.79861a1.8438 1.8203 49.604 0 1 2.5812 0.22449 1.8438 1.8203 49.604 0 1-0.19145 2.5839 1.8438 1.8203 49.604 0 1-2.5812-0.22449 1.8438 1.8203 49.604 0 1 0.19144-2.5839z" fill="#ac9393"/>
   </g>
   <ellipse transform="rotate(-40.396)" cx="94.041" cy="164.77" rx=".71484" ry=".69141" fill="#ac9393" stroke-width=".1"/>
   <ellipse transform="rotate(-40.396)" cx="94.064" cy="164.79" rx=".37109" ry=".35156" fill="#916f6f" stroke-width=".1"/>
   <g stroke-width=".25">
    <path d="m185.04 72.512-0.49109-1.0593 1.3182-1.091 0.5193 0.98399z" fill="#916f6f"/>
    <path d="m185.11 71.475-0.0867 4.5308c-0.0124 0.64031 1.068 0.36506 1.0625 0.0057l-0.0695-4.5317c-6e-3 -0.36701-0.90092-0.28558-0.90629-0.0048z" fill="#ac9393"/>
    <path d="m239.74 17.976-26.37 22.583c0.15322-0.36399 3.1152 2.2101 2.8449 3.4878l26.635-22.706c0.0357-1.1948-2.1665-3.297-3.1097-3.3651zm-11.319 10.532 9.4068-8.0046c3.4934-2.9727 4.1258-2.0523 0.71397 0.8722l-9.3625 8.0235c-2.7194 2.3308-3.5602 1.4934-0.75819-0.89099z" fill="url(#linearGradient4060)"/>
   </g>
  </g>
  <path d="m220.67 34.374c0.38376-0.29452 2.6592 2.3092 2.918 3.4051" fill="none" stroke-width=".1"/>
  <g fill="#916f6f" stroke-width=".25">
   <path d="m223.49 37.546 0.37944 0.44599c0.83215 0.97807 2.6679-0.65168 1.9054-1.6649l-0.33272-0.44223z"/>
   <path d="m227.05 34.518 0.3437 0.40389 2.1444-1.8103-0.359-0.41262z"/>
   <path d="m227.95 35.432 0.57517 0.6929 2.035-1.7172-0.59309-0.71395z"/>
  </g>
  <path d="m228.42 28.507c-1.7338 1.4754-2.0714 2.3565-1.4334 2.2635 0.27911-0.36935 0.75855-0.86861 1.4844-1.4863l9.4186-8.0148c1.2508-1.0643 2.1023-1.6282 2.549-1.8024 0.9162-1.2098-0.0844-1.1156-2.612 1.0353z" fill="#6c5353" stroke-width=".25"/>
  <path d="m229.95 30.491c-2.8057 2.3875-2.0742 3.0961 0.64982 0.76365l9.3781-8.0299c3.4178-2.9265 2.8895-3.7257-0.60847-0.74915z" fill="#6c5353" stroke-width=".23148"/>
  <path d="m67.24 179.84c-0.21246-0.24965-2.0258 0.65226-2.2678 0.41385-1.7302-1.7048-1.6986-3.2136-0.07192-4.5969l-3.782-4.5013c-0.30791-0.36647-0.13358-2.0894-0.06476-3.0522l-5.3368 6.3038c-0.49021 0.57904-0.45069 0.10751-0.47304-0.0381-3.5038 5.9495-9.5661 13.619-13.246 16.685 0 0-12.145 9.9633-16.625 13.455-0.92058 0.71746-2.1815 0.76923-3.1871 1.45-3.2629 2.2088-9.1542 7.7924-9.1542 7.7924l20.669 23.328c0.64469-0.28008 2.0828-1.0147 2.7367-1.8881 0.62049-1.6679 4.8562-10.397 6.9584-13.349 0 0 9.1889-19.993 14.722-29.303 1.6804-2.8275 5.115-7.3254 6.1089-8.36-0.73512 0.18092 3.1151-4.2217 3.0149-4.3395z" fill="url(#linearGradient3547)" stroke-width=".25"/>
  <path d="m14.549 212.43-4.8696 4.006c-0.29599 0.244-0.090347 0.45211 0.19396 0.63372 8.751 5.5896 15.059 12.786 21.006 21.246 0.40737 0.57948 1.0307 0.56076 1.5186 0.1142l1.8017-1.6492-17.772-20.663c-1.1409-1.3269-1.8203-2.9289-1.8795-3.6882z" fill="url(#linearGradient3557)" stroke-width=".25"/>
  <ellipse transform="rotate(-40.396)" cx="-59.821" cy="174.94" rx=".49632" ry=".48851" fill="#ac9393" stroke-width=".11109"/>
  <ellipse transform="rotate(-40.396)" cx="-59.827" cy="174.93" rx=".17834" ry=".17639" fill="#6c5353" stroke-width=".040014"/>
  <ellipse transform="rotate(-40.396)" cx="-55.133" cy="165.7" rx=".43392" ry=".41829" fill="#c8b7b7" stroke-width=".086536"/>
  <path d="m61.055 163.67 5.0783-5.8545" fill="#916f6f" stroke-width=".1"/>
  <ellipse transform="rotate(-40.396)" cx="-58.577" cy="162.23" rx=".92145" ry=".82665" fill="url(#linearGradient3679)" stroke-width=".10493"/>
  <g>
   <path d="m67.236 159.76 2.3674 2.8368 3.7377 4.2268" fill="none" stroke-width=".1"/>
   <ellipse transform="rotate(-40.396)" cx="-50.844" cy="168.36" rx=".58662" ry=".54243" fill="#ac9393" stroke-width=".075807"/>
   <path d="m67.247 159.91 32.457-27.626" fill="none" stroke-width=".1"/>
   <path d="m106.62 146.17c0.35253-0.12951 1.2366-0.58715 1.881-1.1445l12.112-10.476c0.2185-0.18856 0.30488-0.41828 0.0567-0.70482l-2.373-2.7405c-0.31996-0.36985-0.5968-0.43843-0.84658-0.22336l-12.166 10.475c-0.58815 0.50705-1.1318 1.2105-1.3475 1.516z" fill="url(#linearGradient3785)" stroke-width=".1"/>
  </g>
 </g>
 <path d="m102.25 105.46c0.19597-0.0697 0.54393-0.0752 0.99665 0.0158 0.25076 0.0504 0.48783 0.12157 0.62577 0.15307 0.13026 0.0298 0.305 0.0664 0.52797 0.1261 0.36989 0.099 0.77186 0.23565 1.1617 0.41977 0.46463 0.21945 0.76539 0.43829 0.91681 0.59012-0.15942-0.15985-0.40452-0.40562-0.85618-0.69872-0.36717-0.23828-0.76431-0.4364-1.1349-0.5789-0.2213-0.0851-0.40957-0.14115-0.54377-0.1718-0.1498-0.0342-0.40444-0.0622-0.67874-0.0564-0.5222 0.011-0.79725 0.12336-1.0152 0.20093z" fill="#c8c4b7"/>
 <g stroke="#000" stroke-linecap="round" stroke-linejoin="round">
  <g stroke-width=".1">
   <path d="m101.97 105.35c2.1738-0.72191 3.6144 0.40403 4.773 1.2933" fill="none"/>
   <path d="m162.73 76.594c0.73218-0.15765 1.2879 0.71166 1.3398 1.1559l-1.6829 1.432c-0.5555-0.17045-1.1017-0.83737-0.88461-1.5227z" fill="url(#linearGradient3932)"/>
   <path d="m117.27 113.82 0.30101 0.18497 1.2614-1.0734-0.23899-0.2685z" fill="#916f6f"/>
  </g>
  <g fill-opacity="0">
   <path d="m168.89 69.078c0.99987 0.46246 2.3676 2.3716 2.8098 2.9069" stroke-width=".1"/>
   <path d="m170.85 67.656c0.80505 0.21487 1.9152 1.5731 2.6791 2.607" stroke-width=".1"/>
   <path d="m175.96 72.266 1.389-1.7187" stroke-width=".25"/>
  </g>
  <path d="m184.34 71.647 1.6576-1.4106c-0.13283-0.96779-2.794-3.777-3.4256-3.8762l-1.7142 1.5184c0.45047-0.2381 2.854 2.3589 3.4822 3.7683z" fill="url(#linearGradient4038)" stroke-width=".25"/>
 </g>
</svg>
