<svg cursor="default" version="1.1" viewBox="0 0 256 256" xmlns="http://www.w3.org/2000/svg" xmlns:xlink="http://www.w3.org/1999/xlink">
 <defs>
  <pattern id="pattern6116" patternTransform="matrix(2.2363 -2.4289 2.619 2.4112 17.17 17.578)" xlink:href="#Checkerboard"/>
  <pattern id="Checkerboard" width="2" height="2" patternTransform="scale(10)" patternUnits="userSpaceOnUse">
   <path d="M0 0h1v1H0zM1 1h1v1H1z"/>
  </pattern>
  <linearGradient id="linearGradient5816">
   <stop stop-color="#ffe6d5" offset="0"/>
   <stop stop-color="#f95" offset="1"/>
  </linearGradient>
  <linearGradient id="linearGradient5705" x1="24.938" x2="24.922" y1="58.65" y2="57.657" gradientTransform="translate(-5.497 -9.548) scale(1.051)" gradientUnits="userSpaceOnUse">
   <stop stop-color="#f95" offset="0"/>
   <stop stop-color="#fca" offset="1"/>
  </linearGradient>
  <linearGradient id="linearGradient5713" x1="98.927" x2="99" y1="56.035" y2="92.375" gradientTransform="matrix(1.051,0,0,1.051,-5.497,-9.548)" gradientUnits="userSpaceOnUse">
   <stop stop-color="#f95" offset="0"/>
   <stop stop-color="#ffe6d5" offset=".103"/>
   <stop stop-color="#f95" offset=".163"/>
   <stop stop-color="#f95" offset=".289"/>
   <stop stop-color="#ffe6d5" offset=".327"/>
   <stop stop-color="#f95" offset=".375"/>
   <stop stop-color="#ff7f2a" offset=".502"/>
   <stop stop-color="#ff7f2a" offset="1"/>
  </linearGradient>
  <radialGradient id="radialGradient5754" cx="144.94" cy="103.66" r="6.503" gradientTransform="matrix(.94747 .00462 -.00462 .9473 9.988 .533)" gradientUnits="userSpaceOnUse">
   <stop stop-color="#ff7f2a" offset="0"/>
   <stop stop-color="#f95" offset=".911"/>
   <stop stop-color="#ffe6d5" offset=".948"/>
   <stop stop-color="#ff7f2a" offset="1"/>
  </radialGradient>
  <radialGradient id="radialGradient5768" cx="107.71" cy="100.51" r="2.391" gradientTransform="matrix(.58354 -.01355 .01229 .52898 43.907 44.454)" gradientUnits="userSpaceOnUse" xlink:href="#linearGradient5816"/>
  <radialGradient id="radialGradient5768-8" cx="107.71" cy="100.51" r="2.391" gradientTransform="matrix(.58354 -.01355 .01229 .52898 71.71 84.77)" gradientUnits="userSpaceOnUse">
   <stop stop-color="#ffe6d5" offset="0"/>
   <stop stop-color="#f95" offset="1"/>
  </radialGradient>
  <linearGradient id="linearGradient5802" x1="181.75" x2="151.25" y1="207" y2="125.5" gradientTransform="matrix(1.051,0,0,1.051,-5.497,-9.548)" gradientUnits="userSpaceOnUse">
   <stop stop-color="#ff7f2a" offset="0"/>
   <stop stop-color="#ffb380" offset="1"/>
  </linearGradient>
  <radialGradient id="radialGradient5824" cx="-42.442" cy="39.11" r="72.008" gradientTransform="matrix(.1967 .10173 -.05724 .11068 35.796 79.511)" gradientUnits="userSpaceOnUse" xlink:href="#linearGradient5816"/>
  <linearGradient id="linearGradient1402" x1="196.61" x2="196.88" y1="72.475" y2="65.22" gradientTransform="rotate(-72.52 198.29 69.478)" gradientUnits="userSpaceOnUse">
   <stop stop-color="#ffb380" offset="0"/>
   <stop stop-color="#fca" offset="1"/>
  </linearGradient>
 </defs>
 <g fill-rule="evenodd" stroke="#000" stroke-width=".526">
  <path d="m245.3 208.64 4.598-0.033c1.345-2.914 2.666-5.852 2.3-10.477-0.836-7.598-4.327-15.385-7.524-23.151-6.688-15.173-16.311-28.67-20.065-45.52-0.382-4.25-0.811-8.492 0-12.912l-3.902-0.093-1.394 14.678c5.958 25.834 30.01 51.44 25.987 77.508z" fill="#ffe680"/>
  <path d="m247.34 100.84c1.235 1.894 0.489 6.342-2.792 7.03-13.512 2.828-19.047 8.331-19.378 9.294l-3.35-0.131c8.926-10.543 14.33-20.47 18.242-22.478 3.006 2.173 5.562 3.655 7.278 6.286zm-17.44 107.1 2.003 8.835c0.534 2.354-2.645 2.698-3.382 1.117-1.558-3.34-2.234-6.678-3.35-10.018z" fill="#f95"/>
  <path d="m224.21 76.24s-0.356-1.21 1.021-4.096c0.791-1.656 3.376-4.274 3.314-7.136a14.415 14.415 0 0 0-0.112-1.53c-0.066-0.512-0.018-1.08-0.282-1.525-0.197-0.333-0.665-0.425-0.9-0.732-0.24-0.311-0.147-0.867-0.48-1.074-0.239-0.15-0.614 0.192-0.846 0.03-0.293-0.203-0.057-0.793-0.336-1.016-0.23-0.184-0.637 0.082-0.878-0.087-0.253-0.176-0.131-0.686-0.403-0.832-0.291-0.157-0.688 0.28-0.985 0.131-0.28-0.14-0.153-0.756-0.46-0.82-0.321-0.069-0.46 0.617-0.788 0.59-0.394-0.032-0.426-0.854-0.821-0.854-0.348 0-0.374 0.752-0.723 0.756-0.371 4e-3 -0.417-0.813-0.788-0.789-0.413 0.028-0.347 0.92-0.755 0.986-0.327 0.052-0.498-0.631-0.821-0.559-0.36 0.081-0.204 0.855-0.559 0.953-0.264 0.073-0.474-0.51-0.722-0.394-0.253 0.118 0.065 0.662-0.164 0.82-0.283 0.197-0.727-0.345-1.019-0.163-0.35 0.218-0.03 0.937-0.36 1.182-0.247 0.182-0.693-0.206-0.92 0-0.327 0.295 0.165 0.99-0.132 1.314-0.158 0.172-0.538-0.047-0.69 0.131-0.227 0.267 0.17 0.765-0.032 1.051-0.156 0.221-0.592 0.08-0.756 0.296-0.326 0.43-0.164 1.61-0.164 1.61l3.71 3.943 0.126-3.85c1.108-2.88 3.523-1.957 5.515-2.268 1.113 1.915 3.142 3.81 0.518 5.807l-5.286 0.884z" fill="#ffb380"/>
  <path d="m232.62 87.145c2.742 4.485 7.339 6.96 11.036 10.411 4.415 4.122 2.7 6.692 0.788 6.865-11.736 1.059-17.169 6.35-18.13 7.915l-3.087 5.025-3.153-0.066 0.065-28.377z" fill="#ffb380"/>
  <path d="m212.49 91.349c6.805 0.316 20.426 1.339 20.417 0.95l-0.12-4.892c-4.506-6.994-8.407-13.364-15.191-18.754-6.58-5.227-9.98-8.804-11.612-14.164-2.871-0.716 4.332 24.555 6.506 36.86z" fill="#f95"/>
  <path d="m100.2 102.29 0.788 1.61 3.35-0.297 0.591-1.904z" fill="#ff7f2a"/>
  <path d="m104.07 102.06c2.946 4.972 5.625 9.963 5.978 15.108 0.654 9.529-6.113 16.004-13.072 19.575l-2.168 2.168c0.51 1.008 3.728 1.111 5.847 0.525 11.932-3.3 16.914-15.841 15.962-22.53 6.361-3.69 9.637-8.312 10.05-12.876-8.814-4.909-16.83-2.744-22.597-1.97z" fill="#f95"/>
  <path d="m85.415 139.5c-3.643-4.183-14.772-16.311-0.788-30.48 3.956-4.007 11.426-4.394 18.08-4.976l2.443-0.16 0.568-1.582-1.626 0.032c0.025 1.387-1.167 1.147-2.333 1.105l-1.499-1.71-17.604 2.234c-5.032 5.567-6.27 11.892-8.934 17.933 1.504 9.117 5.285 15.143 11.693 17.604z" fill="#f95"/>
  <path d="m54.739 102.98c0.065 0.263 0.262 1.708 0.262 1.708 7.157 0.05 16.915 8.102 17.145 13.795 0.783 19.376 10.006 28.034 30.61 28.18 12.05 0.086 23.464-2.078 35.012-3.547l-6.765-7.883c-2.635 2.606-5.89 4.72-10.248 6.175-5.917 1.976-12.413 1.87-18.787 1.905-17.068 0.096-24.242-10.819-25.092-15.24-1.348-7.005-0.284-13.697 5.452-19.969 3.27-3.576 9.634-4.88 15.24-6.175z" fill="#fca"/>
  <path d="m41.864 97.13 50.777 0.196c7.324 0.029 7.45 1.732 10.313 3.088l-54.062 1.707z" fill="#ff7f2a"/>
  <path d="m6.134 63.793c-5.961 4.67-1.796 18.605 1.17 19.167z" fill="#f95"/>
  <path d="m11.91 58.176-2.036 0.197c-7.78 0.753-4.668 27.666-0.92 27.59l3.219-0.066z" fill="#ff7f2a"/>
  <path d="m8.948 74.921c-0.09 11.582 4.914 18.873 10.126 18.907l7.014 0.047c-0.206-6.608-5.483-19.836-17.14-18.954z" fill="#ff7f2a"/>
  <path d="m8.88 74.869c-0.263 5.285 2.844 10.357 9.006 12.02 2.578 0.694 4.552 5.217 7.97 5.22l133.2 0.16-10.641-6.7z" fill="url(#radialGradient5824)"/>
  <path d="m8.623 65.495 0.279 9.707c11.286 0.135 19.335 10.135 20.205 12.774l110.83 0.088c5.101 4e-3 10.13 2.948 10.903 2.956l6.24 0.066v-23.91z" fill="#fca"/>
  <path d="m13.923 53.457c-3.689 3.13-3.779 7.25-5.223 11.844-0.043 0.824 0.282 1.438 0.852 1.912l147.34-0.093 0.201 23.963 1.565 0.91 52.259-0.242c1.009-4.73 3.908-17.424 3.942-22.773-4.596-4.25-8.704-8.37-8.825-14.213-0.014-0.679-0.978-1.788-1.765-2.601l-176.69 0.279-0.65 0.952z" fill="url(#linearGradient5713)"/>
  <path d="m189.89 52.428-0.03 1.474s9.39 0.04 9.443 0.029l-0.052-1.306c-1.685-0.86-1.441-5.79-4.894-5.649-2.713 0.11-2.585 4.588-4.467 5.452z" fill="#f95"/>
  <path d="m210.88 91.71 20.691-0.23c0.103-3.991-13.658-24.693-20.626-23.582z" fill="#fca"/>
 </g>
 <path d="M220.416 59.621a4.91 4.852 0 0 0-4.91 4.85 4.91 4.852 0 0 0 4.91 4.854 4.91 4.852 0 0 0 4.91-4.853 4.91 4.852 0 0 0-4.91-4.85zm-.808 3.625a2.891 2.357 22.898 0 1 1.307.275 2.891 2.357 22.898 0 1 1.747 3.295 2.891 2.357 22.898 0 1-3.58 1.047 2.891 2.357 22.898 0 1-1.747-3.297 2.891 2.357 22.898 0 1 2.273-1.32z" fill="#ff7f2a" stroke="#000" stroke-linecap="round" stroke-linejoin="round" stroke-width=".53"/>
 <path d="m157.31 67.204-0.012 24.556 2.172-0.04 0.01-25.756z" fill="#f95" fill-rule="evenodd" stroke="#000" stroke-width=".52551"/>
 <path d="m157.14 67.096c0.033 0.131-0.066 24.666-0.066 24.666" fill="#f55" fill-rule="evenodd" stroke="#ffe6d5" stroke-width=".3153"/>
 <path d="M38.087 77.291c.866.778 2.048 1.114 3.35 1.281-.514 1.051-.922 2.114-.657 3.252 0 0 4.599-1.956 7.029-2.036 4.174-.14 8.009 3.014 12.185 2.923 2.937-.065 8.473-2.43 8.473-2.43-.614-.862-1.578-1.303-2.627-1.643.319-1.002.652-2 .46-3.087 0 0-4.028 1.99-6.274 2.134-4.15.268-7.928-3.122-12.086-3.087-3.405.029-9.853 2.693-9.853 2.693z" fill="none" stroke="#333" stroke-width=".526"/>
 <g fill-rule="evenodd">
  <g>
   <path d="m160.04 67.195-0.012 24.556 2.171-0.041 0.01-25.755z" fill="#f95" stroke="#000" stroke-width=".52551"/>
   <path d="m159.87 67.086c0.033 0.132-0.065 24.666-0.065 24.666" fill="#f55" stroke="#ffe6d5" stroke-width=".3153"/>
   <path d="m162.73 67.171-0.012 24.556 2.172-0.04 0.01-25.756z" fill="#f95" stroke="#000" stroke-width=".52551"/>
   <path d="m162.56 67.063c0.033 0.131-0.066 24.666-0.066 24.666" fill="#f55" stroke="#ffe6d5" stroke-width=".3153"/>
   <path d="m165 67.237-0.012 24.556 2.172-0.041 0.01-25.755z" fill="#f95" stroke="#000" stroke-width=".52551"/>
   <path d="m164.82 67.129c0.033 0.131-0.065 24.666-0.065 24.666" fill="#f55" stroke="#ffe6d5" stroke-width=".3153"/>
   <path d="m167.56 67.138-0.013 24.556 2.172-0.04 0.01-25.756z" fill="#f95" stroke="#000" stroke-width=".52551"/>
   <path d="m167.38 67.03c0.033 0.131-0.066 24.666-0.066 24.666" fill="#f55" stroke="#ffe6d5" stroke-width=".3153"/>
   <path d="m170.15 67.237-0.012 24.556 2.172-0.041 0.01-25.755z" fill="#f95" stroke="#000" stroke-width=".52551"/>
   <path d="m169.98 67.129c0.033 0.131-0.066 24.666-0.066 24.666" fill="#f55" stroke="#ffe6d5" stroke-width=".3153"/>
   <path d="m172.29 67.138-0.012 24.556 2.172-0.04 0.01-25.756z" fill="#f95" stroke="#000" stroke-width=".52551"/>
   <path d="m172.11 67.03c0.032 0.131-0.066 24.666-0.066 24.666" fill="#f55" stroke="#ffe6d5" stroke-width=".3153"/>
   <path d="m174.78 67.089-0.012 24.556 2.172-0.04 0.01-25.756z" fill="#f95" stroke="#000" stroke-width=".52551"/>
   <path d="m174.61 66.98c0.033 0.132-0.066 24.667-0.066 24.667" fill="#f55" stroke="#ffe6d5" stroke-width=".3153"/>
   <path d="m177.38 67.187-0.012 24.557 2.171-0.041 0.01-25.756z" fill="#f95" stroke="#000" stroke-width=".52551"/>
   <path d="m177.2 67.08c0.032 0.13-0.066 24.665-0.066 24.665" fill="#f55" stroke="#ffe6d5" stroke-width=".3153"/>
  </g>
  <g fill="#f95">
   <path d="m179.52 67.089-0.012 24.556 2.171-0.04 0.01-25.756z" stroke="#000" stroke-width=".52551"/>
   <path d="m179.34 66.98c0.033 0.132-0.065 24.667-0.065 24.667" stroke="#ffe6d5" stroke-width=".3153"/>
   <path d="m182.04 67.22-0.012 24.556 2.171-0.04 0.01-25.756z" stroke="#000" stroke-width=".52551"/>
  </g>
  <g>
   <path d="m181.87 67.112c0.033 0.132-0.065 24.666-0.065 24.666" fill="#f55" stroke="#ffe6d5" stroke-width=".3153"/>
   <path d="m184.64 67.319-0.012 24.556 2.172-0.04 0.01-25.756z" fill="#f95" stroke="#000" stroke-width=".52551"/>
   <path d="m184.46 67.21c0.033 0.132-0.066 24.667-0.066 24.667" fill="#f55" stroke="#ffe6d5" stroke-width=".3153"/>
  </g>
  <g fill="#f95">
   <path d="m186.77 67.22-0.012 24.556 2.172-0.04 0.01-25.756z" stroke="#000" stroke-width=".52551"/>
   <path d="m186.6 67.112c0.033 0.132-0.066 24.666-0.066 24.666" stroke="#ffe6d5" stroke-width=".3153"/>
   <path d="m189.34 67.023-0.012 24.556 2.172-0.04 0.01-25.756z" stroke="#000" stroke-width=".52551"/>
  </g>
  <path d="m189.16 66.915c0.033 0.131-0.066 24.666-0.066 24.666" fill="#f55" stroke="#ffe6d5" stroke-width=".3153"/>
  <path d="m191.93 67.122-0.012 24.556 2.171-0.04 0.01-25.756z" fill="#f95" stroke="#000" stroke-width=".52551"/>
  <path d="m191.75 67.014c0.033 0.131-0.065 24.666-0.065 24.666" fill="#f55" stroke="#ffe6d5" stroke-width=".3153"/>
  <path d="m194.06 67.023-0.012 24.556 2.172-0.04 0.01-25.756z" fill="#f95" stroke="#000" stroke-width=".52551"/>
  <path d="m193.89 66.915c0.033 0.131-0.065 24.666-0.065 24.666" fill="#f55" stroke="#ffe6d5" stroke-width=".3153"/>
  <path d="m196.79 66.925-0.011 24.556 2.171-0.041 0.01-25.755z" fill="#f95" stroke="#000" stroke-width=".52551"/>
  <path d="m196.61 66.817c0.033 0.131-0.065 24.665-0.065 24.665" fill="#f55" stroke="#ffe6d5" stroke-width=".3153"/>
  <path d="m199.38 67.023-0.012 24.556 2.172-0.04 0.01-25.756z" fill="#f95" stroke="#000" stroke-width=".52551"/>
  <path d="m199.21 66.915c0.033 0.131-0.066 24.666-0.066 24.666" fill="#f55" stroke="#ffe6d5" stroke-width=".3153"/>
  <path d="m201.52 66.925-0.012 24.556 2.172-0.041 0.01-25.755z" fill="#f95" stroke="#000" stroke-width=".52551"/>
  <path d="m201.34 66.817c0.033 0.131-0.066 24.665-0.066 24.665" fill="#f55" stroke="#ffe6d5" stroke-width=".3153"/>
  <path d="m203.88 67.056-0.012 24.556 2.172-0.04 0.01-25.756z" fill="#f95" stroke="#000" stroke-width=".52551"/>
  <path d="m203.71 66.948c0.032 0.131-0.066 24.666-0.066 24.666" fill="#f55" stroke="#ffe6d5" stroke-width=".3153"/>
  <path d="m206.48 67.155-0.012 24.556 2.171-0.041 0.01-25.755z" fill="#f95" stroke="#000" stroke-width=".52551"/>
  <path d="m206.3 67.046c0.033 0.132-0.065 24.666-0.065 24.666" fill="#f55" stroke="#ffe6d5" stroke-width=".3153"/>
  <path d="m208.61 67.056-0.012 24.556 2.172-0.04 0.01-25.756z" fill="#f95" stroke="#000" stroke-width=".52551"/>
  <path d="m208.44 66.948c0.033 0.131-0.065 24.666-0.065 24.666" fill="#ffd5d5" stroke="#ffe6d5" stroke-width=".3153"/>
  <path d="m191.59 88.998c10.55 1.244 9.54-10.09 12.448-14.585l-13.043-5.5375s-8.3565 0.3041-12.535 0.45615c-1.3017 0.04737-1.8224 0.7286-1.8603 1.4301-0.55655 10.3 7.9383 18.652 14.99 18.236z" fill="#f95" stroke="#000" stroke-width=".526"/>
  <g stroke="#000" stroke-width=".526">
   <path d="m22.157 90.166c-0.058 2.474 3.95 7.202 6.306 7.357 13.804 0.912 19.236 6.481 22.334 6.7l6.306-0.262 43.223-1.511c8.54-0.52 17.08 0.796 25.619 1.97 7.475 4.795 9.595 12.333 9.853 16.817 0.496 8.625-5.208 12.398-5.866 15.286-0.881 3.87 2.128 5.731 4.8 6.236l8.817-24.675-14.911-21.546-26.473 3.416-52.944 1.248c-7.888-7.93-23.706-7.37-27.064-11.036z" fill="#f95"/>
   <path d="m131.46 137.95c0.316 2.379 0.428 5.813 6.372 5.124l5.387-0.624c3.743-0.434 11.432 0.707 13.728 7.226 6.73 19.106 9.954 38.594 14.894 57.9 0.29 1.136 1.287 1.598 2.113 1.65 1.476 0.093 2.484 0.023 3.74 0.116l-15.951-62.82c-5.947-13.319-19.35-7.829-30.283-8.572z" fill="#f95"/>
   <path d="m138.56 140.75c-3.346 1.068-10.675-1.122-5.19-7.554 3.415-4.004 4.83-6.012 4.073-14.583-0.268-3.037-5.483-18.86-20.692-18.59l-14.176 0.263c-4.31-2.856-6.233-2.72-10.112-2.949-1.522-0.09-29.449-0.117-49.348-0.204l-18.196-5.649 129.65-0.02c-0.31 4.551 7.708 8.818 0.836 13.655l25.535 101.19 39.6 2.162c0.428 1.193 0.726 2.915 0.986 3.94l-46.507-3.218-13.532-56.098c-1.128-4.675-7.394-14.194-16.29-13.137z" fill="url(#linearGradient5802)"/>
  </g>
 </g>
 <g stroke-linecap="round" stroke-linejoin="round">
  <ellipse cx="107.47" cy="96.554" rx="2.275" ry="2.111" fill="url(#radialGradient5768)" stroke="#000" stroke-width=".474"/>
  <ellipse cx="146.83" cy="99.402" rx="6.572" ry="6.456" fill="url(#radialGradient5754)" stroke="#000" stroke-width=".526"/>
  <g fill="none" stroke="#ffb380" stroke-width=".526">
   <ellipse cx="141.54" cy="98.556" rx=".267" ry=".244"/>
   <ellipse cx="141.85" cy="100.36" rx=".267" ry=".244"/>
   <ellipse cx="142.62" cy="99.334" rx=".267" ry=".244"/>
   <ellipse cx="143.71" cy="100.1" rx=".267" ry=".244"/>
   <ellipse cx="142.25" cy="97.476" rx=".267" ry=".244"/>
   <ellipse cx="143.39" cy="98.359" rx=".267" ry=".244"/>
   <ellipse cx="144.44" cy="99.114" rx=".267" ry=".244"/>
   <ellipse cx="144.74" cy="101.1" rx=".267" ry=".244"/>
   <ellipse cx="145.06" cy="102.9" rx=".267" ry=".244"/>
   <ellipse cx="145.82" cy="101.88" rx=".267" ry=".244"/>
   <ellipse cx="146.92" cy="102.64" rx=".267" ry=".244"/>
   <ellipse cx="145.45" cy="100.02" rx=".267" ry=".244"/>
   <ellipse cx="146.59" cy="100.9" rx=".267" ry=".244"/>
   <ellipse cx="147.65" cy="101.66" rx=".267" ry=".244"/>
   <ellipse cx="144.86" cy="96.28" rx=".267" ry=".244"/>
   <ellipse cx="145.18" cy="98.08" rx=".267" ry=".244"/>
   <ellipse cx="145.94" cy="97.058" rx=".267" ry=".244"/>
   <ellipse cx="147.03" cy="97.825" rx=".267" ry=".244"/>
   <ellipse cx="145.57" cy="95.2" rx=".267" ry=".244"/>
   <ellipse cx="146.71" cy="96.083" rx=".267" ry=".244"/>
   <ellipse cx="147.76" cy="96.838" rx=".267" ry=".244"/>
   <ellipse cx="148.15" cy="98.579" rx=".267" ry=".244"/>
   <ellipse cx="148.46" cy="100.38" rx=".267" ry=".244"/>
   <ellipse cx="149.23" cy="99.357" rx=".267" ry=".244"/>
   <ellipse cx="150.32" cy="100.12" rx=".267" ry=".244"/>
   <ellipse cx="148.86" cy="97.499" rx=".267" ry=".244"/>
   <ellipse cx="149.99" cy="98.382" rx=".267" ry=".244"/>
   <ellipse cx="151.05" cy="99.137" rx=".267" ry=".244"/>
   <ellipse cx="148.65" cy="102.38" rx=".267" ry=".244"/>
   <ellipse cx="149.74" cy="103.14" rx=".267" ry=".244"/>
   <ellipse cx="149.42" cy="101.4" rx=".267" ry=".244"/>
   <ellipse cx="150.48" cy="102.16" rx=".267" ry=".244"/>
   <ellipse cx="147.39" cy="94.968" rx=".267" ry=".244"/>
   <ellipse cx="148.48" cy="95.734" rx=".267" ry=".244"/>
   <ellipse cx="148.15" cy="93.993" rx=".267" ry=".244"/>
   <ellipse cx="149.21" cy="94.747" rx=".267" ry=".244"/>
   <ellipse cx="149.52" cy="96.42" rx=".267" ry=".244"/>
   <ellipse cx="150.62" cy="97.186" rx=".267" ry=".244"/>
   <ellipse cx="150.29" cy="95.444" rx=".267" ry=".244"/>
   <ellipse cx="151.35" cy="96.199" rx=".267" ry=".244"/>
   <ellipse cx="143.16" cy="96.39" rx=".267" ry=".244"/>
   <ellipse cx="143.87" cy="95.311" rx=".267" ry=".244"/>
   <ellipse cx="144.06" cy="97.244" rx=".267" ry=".244"/>
   <ellipse cx="144.69" cy="94.364" rx=".267" ry=".244"/>
   <ellipse cx="146.41" cy="94.132" rx=".267" ry=".244"/>
   <ellipse cx="146.24" cy="98.835" rx=".267" ry=".244"/>
   <ellipse cx="147.35" cy="99.578" rx=".267" ry=".244"/>
   <ellipse cx="142.89" cy="101.16" rx=".267" ry=".244"/>
   <ellipse cx="143.91" cy="102.02" rx=".267" ry=".244"/>
   <ellipse cx="143.15" cy="103.02" rx=".267" ry=".244"/>
   <ellipse cx="144.14" cy="103.77" rx=".267" ry=".244"/>
   <ellipse cx="146.03" cy="103.62" rx=".267" ry=".244"/>
   <ellipse cx="147.13" cy="104.29" rx=".267" ry=".244"/>
   <ellipse cx="148.84" cy="104.02" rx=".267" ry=".244"/>
   <ellipse cx="147.85" cy="103.32" rx=".267" ry=".244"/>
   <ellipse cx="151.28" cy="100.86" rx=".267" ry=".244"/>
  </g>
 </g>
 <g stroke-width=".526">
  <path d="M179.086 91.414c2.075 4.689 9.669 6.618 18.327 8.014l30.085-.525c-.69-4.565-2.147-5.445-5.452-7.489z" fill="#ffb380" fill-rule="evenodd" stroke="#000"/>
  <path d="M154.387 92.334c-1.497.042-2.146.826-1.248 2.036 3.492 4.706 1.32 8.666-.46 9.92 10.41 35.952 18.167 72.3 26.62 103.745.146.543 44.827.315 67.249.665 2.915-3.293 3.204-13.028.197-20.002l-23.47-54.421c-2.883-6.685-2.629-15.454-.178-19.15 5.168-7.79 7.403-20.99 1.051-22.333 2.74 1.899 2.22 3.471 2.496 5.123l-29.56.132c-2.473.01-14.337-2.675-16.815-6.438z" fill="#fd5" fill-rule="evenodd" stroke="#000"/>
  <ellipse cx="152.04" cy="99.961" rx=".267" ry=".244" fill="none" stroke="#ffb380" stroke-linecap="round" stroke-linejoin="round"/>
  <ellipse cx="151.72" cy="97.941" rx=".267" ry=".244" fill="none" stroke="#ffb380" stroke-linecap="round" stroke-linejoin="round"/>
 </g>
 <g fill-rule="evenodd" stroke="#000">
  <g stroke-width=".526">
   <path d="m126.04 104.33c-0.783 3.675-4.406 7.79-9.8 10.915 0.112 9.868-5.398 18.91-14.679 22.597-0.91 0.362-2.23-0.212-3.344-0.325 8.872-4.872 14.095-13.034 13.238-21.622-0.459-4.593-2.294-9.196-5.667-13.795 6.87 0.531 14.811-0.831 20.252 2.23z" fill="#ffb380"/>
   <path d="m172.62 210.55c0.062 0.382 0.704 11.158-3.974 16.904-2.78 3.415 0.754 8.144 5.001 7.07l45.791-11.568c2.637-0.666 2.96-3.309 2.647-4.35l-1.893-6.805-46.925-2.219a0.808 0.808 0 0 0-0.647 0.968z" fill="#bcd35f"/>
   <path d="m183.29 216.22-1.708 8.868c-0.416 2.164 0.916 3.365 2.234 3.021l31.727-8.276c0.936-0.244 1.848-0.497 1.774-1.577l-0.132-1.905c-0.058-0.847-1.055-1.316-2.233-1.314l-29.691 0.066c-0.924 2e-3 -1.822 0.346-1.97 1.117z" fill="#abc837"/>
  </g>
  <path d="m184.54 217.52-1.245 6.465c-0.304 1.578 0.665 2.442 1.628 2.203l29.239-7.249c0.684-0.17 1.33-0.36 1.293-1.15l-0.03-0.633c-0.03-0.618-0.77-0.973-1.629-0.957l-27.82 0.507c-0.852 0.016-1.372 0.485-1.436 0.814z" fill="#bcd35f" stroke-width=".383"/>
 </g>
 <g stroke="#000">
  <g>
   <ellipse transform="rotate(-11.29)" cx="181.85" cy="252.89" rx="1.1" ry="2.644" fill="#ff7f2a" stroke-linecap="round" stroke-linejoin="round" stroke-width=".526"/>
   <path d="M187.757 203.281l50.12.263c3.62.019 8.005-4.054 5.846-8.934l-26.669-60.301c-4.407-9.966-16.385-19.824-33.238-19.575-12.912.19-19.348 9.463-18.262 14.057l16.028 67.79c.898 3.797 2.678 6.682 6.175 6.7z" fill="url(#pattern6116)" fill-rule="evenodd" opacity=".468" stroke-width=".526"/>
   <g stroke-linecap="round" stroke-linejoin="round">
    <ellipse cx="216.53" cy="165.41" rx="8.093" ry="8.186" fill="#ffe680" stroke-width=".503"/>
    <ellipse cx="216.5" cy="165.22" rx="4.575" ry="4.598" fill="#fea" stroke-width=".526"/>
    <ellipse cx="216.69" cy="165.31" rx="2.531" ry="2.508" fill="#fff6d5" stroke-width=".526"/>
   </g>
  </g>
  <g fill-rule="evenodd">
   <path d="M222.411 116.38l3.248.193c-1.4 2.168-.695 6.018-.92 9.196-.891 12.64 23.226 46.902 28.575 71.14.882 3.998-.006 12.037-2.365 11.956l-5.471-.19s3.343.35 3.763-.73c1.27-3.26 2.58-9.338.92-15.043-1.892-6.5-7.083-19.073-12.284-29.822-5.019-10.373-10.387-21.152-13.729-31.727-1.442-4.565-.74-9.169 0-13.77-.719-.203-2.042-.146-2.042-.146zM167.616 108.413l-2.087-1.202c-1.789-1.031-1.506-2.609.136-3.954 1.296-1.06 7.324-4.486 12.123-4.737 7.44-.39 13.442 4.055 20.345 3.901 4.259-.095 8.314-2.74 8.314-2.74 1.764-.581 3.177-.905 3.252.14l.325 4.551 2.74 1.672c.954.582 1.455 2.089-.093 2.74-4.32 1.82-7.902 4.895-13.33 4.831-8.79-.103-15.552-4.13-20.02-3.762-4.257.351-5.695 1.906-8.175 3.066-1.948.911-3.32.238-3.39-1.347z" fill="#ffd42a" stroke-width=".526"/>
   <path d="M165.349 105.257c-.477.614 2.55 1.798 3.382 2.227.198 1.641-.347 4.334.694 4.73.924.35 3.697-3.16 8.317-3.29 8.72-.244 11.238 3.513 20.623 3.577 4.9.033 10.94-2.06 13.732-5.137.39-.428-1.635-1.568-3.196-2.476-.175-1.703-.05-2.916-.377-4.633-.203-1.065-4.13 3.15-10.716 3.049-6.895-.106-13.022-4.152-19.88-3.577-5.56.466-9.936 2.127-12.58 5.53z" fill="#ffe680" stroke-width=".526"/>
   <path d="M166.623 105.227c-.386.497 2.426 1.39 3.101 1.738.16 1.33-.015 3.625.385 3.856.693.4 2.613-2.585 8.392-2.886 7.057-.369 11.862 3.666 19.464 3.718 3.969.027 10.668-1.833 12.93-4.325.314-.347-1.785-1.304-3.05-2.039-.141-1.379.09-2.887-.174-3.72-.266-.837-4.593 2.913-9.928 2.831-5.585-.086-14.062-4.348-19.617-3.882-4.503.377-9.362 1.952-11.503 4.709z" fill="#fd5" stroke-width=".426"/>
  </g>
  <ellipse cx="194.3" cy="86.304" rx="3.321" ry="3.344" fill="#c83737" stroke-linecap="round" stroke-linejoin="round" stroke-width=".526"/>
 </g>
 <g fill="#1a1a1a" font-family="Browallia New" font-size="20" font-weight="400" letter-spacing="-1.42" word-spacing="0">
  <path d="M153.738 139.076l-2.558.442-.107-.51 1.686-.916.351-.188-.437-.066-1.909-.303-.095-.454 2.558-.442.068.326-2.14.37 2.296.372.064.304-2.024 1.116 2.179-.377.068.326zM152.718 135.345q.34.273.416.636.06.289-.045.487-.109.195-.355.238-.141.024-.266-.018-.125-.042-.24-.168-.118-.127-.226-.443-.13-.378-.224-.542l-.083.015q-.377.065-.284.51.051.244.163.327.11.08.291.096l.024.311q-.597-.021-.747-.734-.042-.2-.028-.349.012-.152.08-.254.066-.106.167-.151t.331-.085l.815-.141q.06-.01.167-.05.107-.044.192-.114l.07.328q-.09.065-.218.101zm-.695.148q.102.154.225.492.1.273.196.34.097.066.212.046.294-.05.216-.422-.027-.13-.081-.23-.057-.097-.142-.16-.085-.065-.196-.093-.114-.028-.315.007l-.115.02z"/>
  <path d="M152.615 133.716l-.233.04q.313.128.384.47.078.371-.155.633-.237.259-.646.33-.302.052-.542-.009-.24-.06-.39-.212-.15-.15-.202-.394-.068-.325.147-.553l-.916.158-.066-.312 2.558-.442.061.29zm-.717 1.152q.209-.036.357-.122.147-.09.215-.217.064-.13.03-.288-.047-.23-.26-.328-.214-.101-.524-.048-.345.06-.512.227-.17.168-.12.408.103.491.814.368zM151.67 132.154l-.027-.33q.632.057.769.71.058.278-.013.495-.074.215-.263.358-.192.141-.494.194-.451.078-.765-.109-.316-.186-.4-.586-.018-.088-.021-.17-.003-.08.008-.157.012-.077.04-.145.026-.071.066-.133.044-.066.101-.123.06-.06.13-.108.07-.046.157-.083.084-.036.181-.061.029-.008.21-.04l.29 1.38q.288-.066.427-.245.138-.179.086-.424-.074-.352-.482-.423zm-.292 1.118l-.216-1.033q-.263.068-.364.232-.104.164-.062.367.032.15.122.25.087.101.22.153.132.05.3.031zM149.826 131.27l-.36.062-.066-.313.36-.062.066.312zm2.197-.38l-1.852.32-.066-.313 1.853-.32.065.312zM151.94 130.49l-1.853.32-.06-.283.263-.045q-.347-.15-.428-.537-.132-.63.541-.747l1.222-.21.065.312-1.128.195q-.494.085-.414.47.103.49.712.385l1.013-.175.066.315zM151.33 127.577l-2.417 1.12-.072-.346 1.594-.68q.25-.107.501-.197l-.497-.033-1.828-.188-.086-.408 1.217-.59q.483-.232.865-.356-.248-.007-.583-.03l-1.728-.118-.07-.34 2.704.26.068.326-1.836.874-.282.131q.109.006.315.023l2.062.205.072.347zM149.944 123.912l-.027-.33q.632.057.769.711.058.278-.013.495-.074.214-.263.358-.192.14-.494.193-.452.078-.765-.108-.316-.186-.4-.587-.018-.088-.022-.17-.002-.08.01-.157.01-.076.038-.145.027-.07.066-.133.045-.066.102-.123.06-.06.13-.108.07-.045.157-.082.084-.037.18-.062.03-.008.211-.04l.29 1.38q.288-.066.427-.245.137-.178.086-.424-.074-.352-.482-.423zm-.292 1.119l-.216-1.033q-.263.067-.364.231-.104.165-.062.368.031.15.122.25.087.1.22.152.132.05.3.032z"/>
  <path d="M149.944 123.7l-.113-.3q.373-.123.284-.548-.089-.424-.383-.373-.107.018-.142.102-.035.083-.046.359-.007.178-.016.32-.012.141-.063.258-.05.114-.133.18-.086.068-.206.089-.14.024-.268-.023-.132-.05-.244-.187-.115-.138-.165-.378-.047-.222-.023-.387.024-.164.118-.269.092-.104.272-.169l.104.3q-.292.098-.217.458.084.4.322.36.067-.012.107-.058.04-.048.05-.105.01-.06.027-.32l.017-.302q.014-.237.119-.374.1-.14.285-.171.273-.047.475.139.202.186.27.506.143.684-.431.894z"/>
  <path d="M149.755 121.447l.268-.093q.055.128.076.233.031.146.01.253-.026.104-.104.167-.079.06-.381.113l-1.066.184.048.23-.244.042-.048-.23-.46.08-.252-.28.647-.112-.066-.315.243-.042.066.315 1.085-.188q.126-.022.168-.045.04-.024.052-.068.01-.043-.003-.107-.01-.053-.04-.137z"/>
  <path d="M149.31 121.735l-.315.055-.201-.964.315-.054.202.963z"/>
  <path d="M149.877 120.643l-2.558.442-.185-.881q-.052-.25-.058-.452-.007-.203.1-.407.104-.206.348-.364.24-.161.617-.226.577-.1.993.113.415.21.55.854l.193.92zm-.373-.287l-.114-.545q-.07-.336-.207-.498-.136-.161-.386-.215-.252-.053-.589.005-.235.04-.401.119-.167.076-.268.19-.1.114-.135.27-.033.155.034.475l.112.537 1.954-.338z"/>
  <path d="M148.525 118.775q-.481.084-.776-.12-.295-.203-.374-.58-.05-.237.01-.444.056-.206.244-.369.187-.162.508-.217.51-.089.807.123.293.21.37.572.056.272-.018.484-.078.213-.272.357-.195.142-.5.194zm-.068-.323q.227-.039.374-.133.145-.097.204-.23.055-.133.019-.304-.055-.264-.28-.37-.224-.107-.556-.05-.318.055-.477.232-.16.177-.106.433.057.275.289.376.228.1.533.046z"/>
  <path d="M149.093 116.9l-1.852.32-.06-.28.26-.045q-.343-.143-.42-.508-.085-.409.215-.58-.37-.165-.443-.515-.12-.574.502-.681l1.272-.22.066.312-1.168.202q-.455.078-.385.41.094.45.64.356l1.077-.186.066.315-1.203.208q-.42.073-.351.4.032.153.123.242.088.09.235.117.146.028.398-.016l.962-.166.066.315zM146.353 114.686l-.361.063-.066-.313.361-.062.066.312zm2.197-.38l-1.853.32-.065-.312 1.852-.32.066.312zM148.466 113.907l-1.852.32-.06-.283.262-.045q-.347-.15-.428-.537-.132-.63.542-.747l1.221-.21.066.312-1.128.195q-.495.085-.414.47.103.49.712.385l1.013-.175.066.315zM145.934 112.686l-.361.063-.065-.313.36-.062.066.312zm2.197-.38l-1.852.32-.066-.312 1.852-.32.066.313z"/>
  <path d="M147.144 112.185q-.48.083-.775-.12-.295-.204-.374-.58-.05-.238.01-.444.056-.207.244-.369.187-.162.508-.218.51-.088.807.123.293.21.369.573.057.272-.018.484-.077.213-.271.357-.195.141-.5.194zm-.067-.323q.227-.04.373-.134.146-.097.204-.229.055-.134.02-.304-.056-.265-.28-.37-.225-.107-.556-.05-.318.055-.478.232-.16.177-.106.433.058.275.29.376.228.099.533.046z"/>
  <path d="M147.713 110.31l-1.853.32-.059-.283.262-.046q-.347-.15-.428-.537-.132-.63.541-.746l1.222-.211.065.312-1.128.195q-.494.085-.414.47.103.49.713.386l1.013-.176.066.315z"/>
 </g>
 <path d="M24.94 53.385c-1.32-1.948-2.339-3.872-3.625-3.854-1.773.025-4.526.45-5.725 2.169-.767.523-1.383 1.05-1.71 1.857z" fill="url(#linearGradient5705)" fill-rule="evenodd" stroke="#000" stroke-width=".526"/>
 <path d="M172.649 229.425c3.555-3.716 4.441-8.078 4.584-11.488.071-1.708-.044-3.182-.11-4.236-.031-.52-.053-.957-.028-1.262.012-.15.038-.298.098-.414a.418.418 0 0 1 .38-.24c1.912.023 9.414.186 17.792.412 2.63.07 5.345.148 7.997.229 5.779.24 11.257.497 14.901.748.44.052.74.345.96.712.219.367.389.863.538 1.427.298 1.126.542 2.65.883 4.209-.444-1.552-.78-3.028-1.173-4.119-.197-.546-.401-.976-.625-1.26-.228-.289-.433-.375-.619-.362-3.64-.182-9.113-.37-14.894-.54-2.65-.106-5.362-.209-7.992-.306-8.362-.307-15.87-.552-17.785-.658.052-.02.039-.026.039-.026-.023.028-.051.104-.072.237-.04.263-.042.668-.03 1.197.024 1.051.099 2.543-.014 4.266-.227 3.452-1.21 7.807-4.83 11.474z" fill="#dde9af" fill-rule="evenodd"/>
 <ellipse cx="135.27" cy="136.87" rx="2.275" ry="2.111" fill="url(#radialGradient5768-8)" stroke="#000" stroke-linecap="round" stroke-linejoin="round" stroke-width=".474"/>
 <g fill="#333">
  <path d="m85.903 83.43h-0.433v-2.676l-0.904 1.821h-0.258l-0.897-1.821v2.677h-0.404v-3.107h0.59l0.866 1.73 0.84-1.73h0.6v3.107zm2.543-1.164c0 0.38-0.102 0.68-0.306 0.9-0.20333 0.22-0.47633 0.33-0.819 0.33-0.34467 0-0.619-0.11-0.823-0.33-0.20267-0.22-0.304-0.52-0.304-0.9s0.10133-0.67967 0.304-0.899c0.204-0.22133 0.47833-0.332 0.823-0.332 0.34267 0 0.616 0.11067 0.82 0.332 0.20333 0.22 0.305 0.52 0.305 0.9zm-0.424 0c0-0.30133-0.06167-0.525-0.185-0.671-0.124-0.148-0.296-0.222-0.516-0.222-0.22267 0-0.396 0.074-0.52 0.222-0.122 0.146-0.183 0.36967-0.183 0.671 0 0.29267 0.062 0.51467 0.186 0.666 0.12333 0.15 0.29567 0.225 0.517 0.225 0.21867 0 0.39-0.07433 0.514-0.223 0.12467-0.15 0.187-0.37267 0.187-0.668zm2.66 1.164h-0.411v-0.243c-0.118 0.09733-0.24133 0.173-0.37 0.227-0.12733 0.054-0.266 0.081-0.416 0.081-0.29133 0-0.523-0.107-0.695-0.321-0.17-0.214-0.255-0.51067-0.255-0.89 0-0.198 0.029-0.37433 0.087-0.529 0.06-0.154 0.14-0.28533 0.24-0.394 0.09933-0.106 0.21433-0.18667 0.345-0.242 0.13333-0.056 0.27-0.084 0.41-0.084 0.12867 0 0.24267 0.01333 0.342 0.04 0.09867 0.02533 0.20267 0.065 0.312 0.119v-1.01h0.41v3.247zm-0.411-0.573v-1.337c-0.11067-0.04733-0.20967-0.08033-0.297-0.099-0.08733-0.018-0.18267-0.027-0.286-0.027-0.23 0-0.409 0.07667-0.537 0.23-0.12867 0.15333-0.193 0.37-0.193 0.65 0 0.27733 0.04967 0.48833 0.149 0.633 0.09867 0.14333 0.25733 0.215 0.476 0.215 0.11667 0 0.23467-0.02433 0.354-0.073 0.11933-0.05 0.23067-0.114 0.334-0.192zm2.879-0.551h-1.797c0 0.14333 0.02267 0.26867 0.068 0.376 0.04533 0.10533 0.10733 0.192 0.186 0.26 0.07533 0.06667 0.16467 0.11667 0.268 0.15 0.10467 0.03333 0.21967 0.05 0.345 0.05 0.16667 0 0.33333-0.031 0.5-0.093 0.16933-0.064 0.28933-0.12667 0.36-0.188h0.023v0.428c-0.13867 0.05533-0.28 0.102-0.424 0.14-0.144 0.03733-0.29533 0.056-0.454 0.056-0.40533 0-0.72133-0.10433-0.948-0.313-0.22733-0.21-0.341-0.50767-0.341-0.893 0-0.38133 0.10833-0.684 0.325-0.908 0.21867-0.224 0.50567-0.336 0.861-0.336 0.32933 0 0.58267 0.092 0.76 0.276 0.17933 0.18333 0.269 0.444 0.269 0.782v0.213zm-0.399-0.3c-0.0013-0.20667-0.056-0.366-0.164-0.478-0.10667-0.11333-0.269-0.17-0.487-0.17-0.22 0-0.39533 0.06233-0.526 0.187-0.13 0.12333-0.20333 0.27667-0.22 0.46h1.397zm1.056 1.424h-0.41v-3.246h0.41v3.247zm10.662-1.17h-1.363v-0.377h1.363zm2.451 1.17h-2.057v-3.106h0.432v2.74h1.625v0.367zm1.312-1.17h-1.363v-0.377h1.363zm2.906 0.945c-0.08 0.03333-0.153 0.06467-0.219 0.094-0.064 0.02933-0.14833 0.06-0.253 0.092-0.0887 0.02667-0.18533 0.049-0.29 0.067-0.104 0.01933-0.21867 0.029-0.344 0.029-0.23533 0-0.45-0.03133-0.644-0.094-0.192-0.064-0.35933-0.16333-0.502-0.298-0.14-0.132-0.24933-0.29967-0.328-0.503-0.0787-0.20467-0.118-0.442-0.118-0.712 0-0.25533 0.038-0.484 0.114-0.686 0.0753-0.20133 0.18433-0.37167 0.327-0.511 0.13867-0.13533 0.30533-0.23833 0.5-0.309 0.19667-0.07067 0.41467-0.106 0.654-0.106 0.17467 0 0.34867 0.02 0.522 0.06 0.17467 0.04 0.368 0.111 0.58 0.213v0.49h-0.032c-0.17933-0.14333-0.357-0.24767-0.533-0.313-0.176-0.06533-0.36467-0.098-0.566-0.098-0.16467 0-0.313 0.02567-0.445 0.077-0.13133 0.05067-0.24867 0.12933-0.352 0.236-0.1 0.10467-0.17867 0.237-0.236 0.397-0.0553 0.158-0.083 0.34133-0.083 0.55 0 0.21867 0.0307 0.40667 0.092 0.564 0.0627 0.15733 0.14267 0.28533 0.24 0.384 0.102 0.10267 0.22067 0.17933 0.356 0.23 0.13667 0.048 0.281 0.072 0.433 0.072 0.208 0 0.403-0.034 0.585-0.102s0.35233-0.17033 0.511-0.307h0.03v0.484zm2.097 0.225h-0.408v-0.248l-0.149 0.1c-0.0607 0.042-0.12033 0.07533-0.179 0.1-0.068 0.03267-0.14667 0.05933-0.236 0.08-0.0887 0.022-0.19267 0.033-0.312 0.033-0.22 0-0.40633-0.06933-0.559-0.208-0.15333-0.13933-0.23-0.31667-0.23-0.532 0-0.17667 0.0397-0.31933 0.119-0.428 0.08-0.11 0.19333-0.19633 0.34-0.259 0.14867-0.06267 0.327-0.105 0.535-0.127 0.20867-0.022 0.43233-0.03867 0.671-0.05v-0.06c0-0.08933-0.0167-0.16333-0.05-0.222-0.032-0.058-0.0787-0.10367-0.14-0.137-0.058-0.032-0.128-0.05367-0.21-0.065-0.0813-0.01133-0.16633-0.017-0.255-0.017-0.108 0-0.228 0.014-0.36 0.042-0.13333 0.02667-0.27033 0.06567-0.411 0.117h-0.022v-0.399c0.08-0.02067 0.19567-0.04367 0.347-0.069 0.15133-0.02467 0.30067-0.037 0.448-0.037 0.172 0 0.32133 0.014 0.448 0.042 0.128 0.02667 0.23867 0.07233 0.332 0.137 0.0913 0.064 0.16133 0.147 0.21 0.249 0.0473 0.10133 0.071 0.227 0.071 0.377v1.582zm-0.408-0.573v-0.649c-0.12533 0.0067-0.273 0.017-0.443 0.031-0.16933 0.014-0.30333 0.034-0.402 0.06-0.118 0.03267-0.21333 0.083-0.286 0.151-0.0733 0.06667-0.11 0.15933-0.11 0.278 0 0.13333 0.0423 0.234 0.127 0.302 0.0847 0.06667 0.21367 0.1 0.387 0.1 0.144 0 0.27567-0.02667 0.395-0.08 0.12-0.05333 0.23067-0.11767 0.332-0.193zm1.237 0.573h-0.41v-3.246h0.41v3.247zm1.089 0h-0.522v-0.594h0.522v0.595zm2.731-2.64-1.472 2.64h-0.467l1.566-2.74h-1.852v-0.366h2.225v0.465zm1.161 2.046-0.616 1.367h-0.319l0.38-1.367zm2.589-0.413c0 0.316-0.109 0.574-0.327 0.774-0.21733 0.19867-0.484 0.298-0.8 0.298-0.16 0-0.30567-0.02333-0.437-0.07-0.13067-0.048-0.24633-0.11833-0.347-0.211-0.12533-0.116-0.222-0.26933-0.29-0.46-0.0667-0.19-0.1-0.41933-0.1-0.688 0-0.27533 0.03-0.51933 0.09-0.732 0.0633-0.21333 0.16267-0.40267 0.298-0.568 0.128-0.15667 0.29333-0.279 0.496-0.367 0.202-0.08867 0.43767-0.133 0.707-0.133 0.0867 0 0.159 0.0033 0.217 0.01s0.117 0.01933 0.177 0.038v0.398h-0.022c-0.0407-0.02067-0.10267-0.04-0.186-0.058-0.0813-0.02-0.165-0.03-0.251-0.03-0.31333 0-0.56333 0.094-0.75 0.282-0.186 0.18667-0.29433 0.439-0.325 0.757 0.12267-0.07067 0.24267-0.124 0.36-0.16 0.12-0.038 0.25767-0.057 0.413-0.057 0.13867 0 0.26033 0.01267 0.365 0.038 0.10667 0.024 0.21533 0.07267 0.326 0.146 0.128 0.08467 0.224 0.19167 0.288 0.321 0.0653 0.12933 0.098 0.28667 0.098 0.472zm-0.443 0.017c0-0.12933-0.0203-0.23667-0.061-0.322-0.04-0.08467-0.10567-0.158-0.197-0.22-0.0667-0.04533-0.141-0.07467-0.223-0.088-0.0813-0.014-0.16633-0.021-0.255-0.021-0.124 0-0.239 0.01367-0.345 0.041-0.10667 0.028-0.216 0.07133-0.328 0.13l-6e-3 0.09c-2e-3 0.02733-3e-3 0.06267-3e-3 0.106 0 0.22 0.0233 0.39367 0.07 0.521 0.048 0.12667 0.11367 0.22667 0.197 0.3 0.0667 0.062 0.13867 0.10733 0.216 0.136 0.0787 0.028 0.16367 0.042 0.255 0.042 0.21133 0 0.37733-0.061 0.498-0.183 0.12133-0.124 0.182-0.30133 0.182-0.532zm2.836 4e-3c0 0.14467-0.0277 0.283-0.083 0.415s-0.131 0.24333-0.227 0.334c-0.10533 0.09733-0.23067 0.17233-0.376 0.225-0.144 0.05133-0.31133 0.077-0.502 0.077-0.178 0-0.34933-0.018-0.514-0.054-0.164-0.03467-0.303-0.077-0.417-0.127v-0.44h0.03c0.12 0.072 0.26 0.13367 0.42 0.185 0.16 0.05 0.31733 0.075 0.472 0.075 0.10333 0 0.20333-0.01367 0.3-0.041 0.0973-0.028 0.184-0.07667 0.26-0.146 0.0633-0.06 0.111-0.13167 0.143-0.215 0.0333-0.084 0.05-0.18067 0.05-0.29 0-0.10733-0.0193-0.198-0.058-0.272-0.038-0.07333-0.0913-0.13233-0.16-0.177-0.076-0.05333-0.16833-0.09-0.277-0.11-0.108-0.02267-0.229-0.034-0.363-0.034-0.128 0-0.25167 0.0083-0.371 0.025-0.118 0.01667-0.22 0.03333-0.306 0.05v-1.6h1.957v0.365h-1.535v0.826c0.0627-0.0053 0.12667-0.0093 0.192-0.012 0.0653-0.0027 0.122-4e-3 0.17-4e-3 0.176 0 0.33033 0.01433 0.463 0.043 0.13267 0.028 0.25433 0.078 0.365 0.15 0.11667 0.07667 0.20667 0.17567 0.27 0.297 0.0647 0.12067 0.097 0.27233 0.097 0.455zm5.095 0.986h-0.41v-1.326c0-0.1-5e-3 -0.19667-0.016-0.29-9e-3 -0.09333-0.0283-0.168-0.059-0.224-0.0333-0.06-0.0813-0.105-0.144-0.135-0.0627-0.03067-0.15267-0.046-0.27-0.046-0.11533 0-0.23067 0.02767-0.346 0.083-0.11467 0.05467-0.22967 0.12433-0.345 0.209 5e-3 0.032 8e-3 0.06967 0.011 0.113 3e-3 0.04133 5e-3 0.083 5e-3 0.125v1.492h-0.411v-1.327c0-0.10333-5e-3 -0.20067-0.015-0.292-9e-3 -0.09333-0.0287-0.168-0.06-0.224-0.0333-0.06-0.081-0.10433-0.143-0.133-0.0627-0.03067-0.153-0.046-0.271-0.046-0.112 0-0.225 0.02667-0.339 0.08-0.112 0.052-0.224 0.11933-0.336 0.202v1.74h-0.41v-2.331h0.41v0.258c0.128-0.10133 0.25533-0.18067 0.382-0.238 0.128-0.05733 0.264-0.086 0.408-0.086 0.16667 0 0.30733 0.03333 0.422 0.1 0.11667 0.06667 0.20333 0.15933 0.26 0.278 0.166-0.13333 0.31733-0.22933 0.454-0.288 0.13733-0.06 0.284-0.09 0.44-0.09 0.26733 0 0.46433 0.078 0.591 0.234 0.128 0.15467 0.192 0.371 0.192 0.649zm3.97 0h-0.41v-1.326c0-0.1-5e-3 -0.19667-0.016-0.29-9e-3 -0.09333-0.0283-0.168-0.059-0.224-0.0333-0.06-0.0813-0.105-0.144-0.135-0.0627-0.03067-0.15267-0.046-0.27-0.046-0.11533 0-0.23067 0.02767-0.346 0.083-0.11533 0.05467-0.23033 0.12433-0.345 0.209 4e-3 0.032 7e-3 0.06967 0.01 0.113 3e-3 0.04133 5e-3 0.083 5e-3 0.125v1.492h-0.41v-1.327c0-0.10333-5e-3 -0.20067-0.016-0.292-9e-3 -0.09333-0.0283-0.168-0.059-0.224-0.0333-0.06-0.0813-0.10433-0.144-0.133-0.0627-0.03067-0.15267-0.046-0.27-0.046-0.11267 0-0.226 0.02667-0.34 0.08-0.11133 0.052-0.22333 0.11933-0.336 0.202v1.74h-0.41v-2.331h0.41v0.258c0.12867-0.10133 0.25633-0.18067 0.383-0.238 0.128-0.05733 0.264-0.086 0.408-0.086 0.16667 0 0.30733 0.03333 0.422 0.1 0.116 0.06667 0.20267 0.15933 0.26 0.278 0.166-0.13333 0.31733-0.22933 0.454-0.288 0.13667-0.06 0.283-0.09 0.439-0.09 0.268 0 0.46533 0.078 0.592 0.234 0.128 0.15467 0.192 0.371 0.192 0.649z"/>
  <g font-size="20">
   <path d="m74.82 77.192v-3.705h0.516v1.839l1.93-1.84h0.695l-1.63 1.503 1.703 2.203h-0.678l-1.386-1.874-0.634 0.589v1.285z"/>
   <path d="m79.833 77.192v-0.395q-0.325 0.457-0.894 0.457-0.26 0-0.451-0.07-0.187-0.07-0.305-0.209-0.118-0.14-0.162-0.317-0.041-0.182-0.041-0.488v-1.661h0.475v1.487q0 0.348 0.025 0.472 0.028 0.12 0.097 0.209 0.074 0.089 0.187 0.136 0.114 0.046 0.273 0.046 0.284 0 0.459-0.12 0.175-0.124 0.231-0.318 0.057-0.193 0.057-0.476v-1.435h0.48v2.683h-0.43zm0.758 0v-2.683h0.431v0.406q0.268-0.468 0.61-0.468 0.24 0 0.487 0.147l-0.162 0.422q-0.175-0.1-0.35-0.1-0.183 0-0.304 0.096-0.118 0.097-0.18 0.318-0.056 0.22-0.056 0.457v1.405z"/>
   <path d="m83.028 76.785 0.07 0.403q-0.204 0.039-0.363 0.039-0.223 0-0.373-0.062-0.147-0.066-0.22-0.194-0.069-0.128-0.069-0.565v-1.545h-0.35v-0.352h0.35v-0.666l0.475-0.27v0.936h0.48v0.352h-0.48v1.572q0 0.182 0.025 0.248 0.024 0.062 0.085 0.093 0.061 0.027 0.159 0.027 0.081 0 0.211-0.016zm2.228 0.407-1.032-3.705h0.528l0.593 2.427q0.094 0.38 0.163 0.76l0.174-0.686 0.74-2.501h0.622l0.557 1.874q0.219 0.743 0.304 1.312 0.073-0.344 0.191-0.805l0.614-2.381h0.516l-1.069 3.705h-0.496l-0.816-2.822-0.122-0.434q-0.037 0.151-0.114 0.434l-0.825 2.822zm5.911-0.863 0.492 0.058q-0.244 0.867-1.24 0.867-0.423 0-0.723-0.163-0.297-0.166-0.46-0.472-0.158-0.31-0.158-0.747 0-0.655 0.354-1.038 0.353-0.387 0.963-0.387 0.134 0 0.256 0.02 0.118 0.019 0.227 0.057 0.11 0.04 0.203 0.097 0.098 0.058 0.18 0.132 0.085 0.081 0.154 0.178 0.073 0.1 0.126 0.213 0.048 0.112 0.081 0.244 0.032 0.128 0.045 0.27 4e-3 0.043 4e-3 0.307h-2.101q0.024 0.422 0.252 0.67 0.227 0.243 0.601 0.243 0.537 0 0.744-0.55zm-1.569-0.736h1.573q-0.033-0.387-0.248-0.577-0.215-0.193-0.524-0.193-0.228 0-0.398 0.096-0.171 0.093-0.28 0.264-0.107 0.17-0.123 0.41z"/>
   <path d="m91.653 76.39 0.471-0.07q0.086 0.558 0.732 0.558t0.646-0.426q0-0.154-0.114-0.228t-0.516-0.17q-0.26-0.062-0.467-0.116-0.204-0.059-0.362-0.163-0.154-0.105-0.232-0.24-0.077-0.14-0.077-0.314 0-0.201 0.102-0.367 0.105-0.17 0.337-0.287 0.232-0.12 0.597-0.12 0.338 0 0.573 0.081 0.236 0.082 0.366 0.244 0.13 0.159 0.179 0.43l-0.467 0.058q-0.07-0.437-0.618-0.437-0.61 0-0.61 0.344 0 0.097 0.057 0.167 0.061 0.07 0.142 0.1 0.086 0.031 0.464 0.132 0.097 0.023 0.439 0.112 0.345 0.09 0.52 0.275 0.179 0.182 0.179 0.45 0 0.394-0.326 0.622-0.325 0.229-0.812 0.229-1.04 0-1.203-0.863zm3.534 0.395 0.069 0.403q-0.203 0.039-0.362 0.039-0.223 0-0.374-0.062-0.146-0.066-0.22-0.194-0.068-0.128-0.068-0.565v-1.545h-0.35v-0.352h0.35v-0.666l0.475-0.27v0.936h0.48v0.352h-0.48v1.572q0 0.182 0.025 0.248 0.024 0.062 0.085 0.093 0.06 0.027 0.158 0.027 0.082 0 0.212-0.016z"/>
   <path d="m97.168 76.329 0.492 0.058q-0.244 0.867-1.24 0.867-0.422 0-0.723-0.163-0.297-0.166-0.46-0.472-0.158-0.31-0.158-0.747 0-0.655 0.354-1.038 0.353-0.387 0.963-0.387 0.134 0 0.256 0.02 0.118 0.019 0.228 0.057 0.11 0.04 0.203 0.097 0.097 0.058 0.179 0.132 0.085 0.081 0.154 0.178 0.073 0.1 0.126 0.213 0.049 0.112 0.081 0.244 0.033 0.128 0.045 0.27 4e-3 0.043 4e-3 0.307h-2.1q0.024 0.422 0.251 0.67 0.228 0.243 0.602 0.243 0.536 0 0.743-0.55zm-1.568-0.736h1.572q-0.032-0.387-0.248-0.577-0.215-0.193-0.524-0.193-0.227 0-0.398 0.096-0.17 0.093-0.28 0.264-0.106 0.17-0.122 0.41zm2.241 1.599v-2.683h0.43v0.406q0.27-0.468 0.61-0.468 0.24 0 0.488 0.147l-0.162 0.422q-0.175-0.1-0.35-0.1-0.183 0-0.305 0.096-0.118 0.097-0.179 0.318-0.056 0.22-0.056 0.457v1.405z"/>
   <path d="m99.233 77.192v-2.683h0.431v0.38q0.309-0.442 0.898-0.442 0.96 0 0.96 0.976v1.769h-0.476v-1.634q0-0.716-0.585-0.716-0.748 0-0.748 0.883v1.467zm4.134 0v-3.705h2.621v0.437h-2.109v1.146h1.825v0.438h-1.825v1.684zm2.814-3.182v-0.523h0.476v0.523zm0 3.182v-2.683h0.476v2.683zm0.779 0v-2.683h0.43v0.406q0.27-0.468 0.61-0.468 0.24 0 0.488 0.147l-0.162 0.422q-0.175-0.1-0.35-0.1-0.183 0-0.305 0.096-0.118 0.097-0.179 0.318-0.056 0.22-0.056 0.457v1.405z"/>
   <path d="m110.28 76.329 0.491 0.058q-0.244 0.867-1.24 0.867-0.422 0-0.722-0.163-0.297-0.166-0.46-0.472-0.158-0.31-0.158-0.747 0-0.655 0.353-1.038 0.354-0.387 0.963-0.387 0.135 0 0.257 0.02 0.117 0.019 0.227 0.057 0.11 0.04 0.203 0.097 0.098 0.058 0.18 0.132 0.084 0.081 0.153 0.178 0.074 0.1 0.126 0.213 0.05 0.112 0.082 0.244 0.032 0.128 0.044 0.27 5e-3 0.043 5e-3 0.307h-2.101q0.024 0.422 0.252 0.67 0.227 0.243 0.601 0.243 0.536 0 0.744-0.55zm-1.569-0.736h1.573q-0.033-0.387-0.248-0.577-0.216-0.193-0.524-0.193-0.228 0-0.399 0.096-0.17 0.093-0.28 0.264-0.106 0.17-0.122 0.41zm4.086 1.266q-0.487 0.395-1.04 0.395-0.439 0-0.703-0.205-0.26-0.21-0.26-0.566 0-0.205 0.094-0.367 0.093-0.163 0.308-0.287 0.216-0.128 0.707-0.186 0.59-0.07 0.854-0.155v-0.12q0-0.545-0.679-0.545-0.37 0-0.52 0.131-0.146 0.132-0.215 0.38l-0.464-0.058q0.183-0.829 1.268-0.829 0.305 0 0.52 0.062 0.22 0.062 0.354 0.186 0.138 0.124 0.179 0.279 0.04 0.154 0.04 0.487v1.181q0 0.085 0.033 0.248 0.037 0.163 0.118 0.302h-0.5q-0.073-0.143-0.094-0.333zm-0.04-1.014q-0.252 0.096-0.78 0.17-0.427 0.058-0.549 0.174t-0.122 0.283q0 0.426 0.565 0.426 0.2 0 0.358-0.047 0.158-0.05 0.272-0.15 0.118-0.101 0.187-0.249 0.069-0.15 0.069-0.44zm0.803 1.347v-2.683h0.43v0.406q0.269-0.468 0.61-0.468 0.24 0 0.488 0.147l-0.163 0.422q-0.174-0.1-0.35-0.1-0.182 0-0.304 0.096-0.118 0.097-0.179 0.318-0.057 0.22-0.057 0.457v1.405z"/>
   <path d="m114.96 77.192v-2.683h0.427v0.376q0.296-0.438 0.853-0.438 0.622 0 0.797 0.468 0.337-0.468 0.87-0.468 0.873 0 0.873 0.902v1.843h-0.475v-1.692q0-0.658-0.504-0.658-0.687 0-0.687 0.79v1.56h-0.48v-1.742q0-0.608-0.5-0.608-0.231 0-0.386 0.1-0.154 0.097-0.231 0.295-0.077 0.197-0.077 0.561v1.394zm3.928-0.802 0.471-0.07q0.086 0.558 0.732 0.558t0.646-0.426q0-0.154-0.114-0.228-0.113-0.074-0.516-0.17-0.26-0.062-0.467-0.116-0.203-0.059-0.362-0.163-0.154-0.105-0.231-0.24-0.078-0.14-0.078-0.314 0-0.201 0.102-0.367 0.106-0.17 0.337-0.287 0.232-0.12 0.598-0.12 0.337 0 0.573 0.081 0.235 0.082 0.365 0.244 0.13 0.159 0.18 0.43l-0.468 0.058q-0.07-0.437-0.618-0.437-0.61 0-0.61 0.344 0 0.097 0.057 0.167 0.061 0.07 0.143 0.1 0.085 0.031 0.463 0.132 0.097 0.023 0.439 0.112 0.345 0.09 0.52 0.275 0.179 0.182 0.179 0.45 0 0.394-0.325 0.622-0.325 0.229-0.813 0.229-1.04 0-1.203-0.863zm3.983 0.802v-3.705h0.529l2.04 2.907v-2.907h0.495v3.705h-0.528l-2.044-2.911v2.91h-0.492zm3.449-3.182v-0.523h0.475v0.523zm0 3.182v-2.683h0.475v2.683zm0.782 0v-2.683h0.427v0.376q0.297-0.438 0.854-0.438 0.621 0 0.796 0.468 0.337-0.468 0.87-0.468 0.873 0 0.873 0.902v1.843h-0.475v-1.692q0-0.658-0.504-0.658-0.687 0-0.687 0.79v1.56h-0.48v-1.742q0-0.608-0.5-0.608-0.23 0-0.385 0.1-0.155 0.097-0.232 0.295-0.077 0.197-0.077 0.561v1.394z"/>
   <path d="m130.86 77.254 1.126-3.829h0.382l-1.122 3.829zm1.339-1.251 0.488-0.042q0.057 0.445 0.374 0.65t0.772 0.205q0.483 0 0.723-0.182 0.244-0.185 0.244-0.449 0-0.182-0.122-0.313-0.118-0.136-0.325-0.205-0.207-0.074-0.74-0.19-0.394-0.085-0.662-0.198-0.268-0.112-0.435-0.325-0.166-0.213-0.166-0.51 0-0.318 0.158-0.539 0.163-0.22 0.484-0.348 0.32-0.132 0.723-0.132 0.703 0 1.069 0.306 0.37 0.306 0.394 0.801l-0.492 0.035q-0.081-0.712-0.947-0.712-0.894 0-0.894 0.557 0 0.163 0.11 0.283 0.11 0.116 0.28 0.174 0.175 0.058 0.537 0.136 0.642 0.139 0.87 0.24 0.227 0.1 0.37 0.236 0.142 0.131 0.21 0.298 0.074 0.166 0.074 0.368 0 0.518-0.419 0.813-0.418 0.294-1.02 0.294-0.804 0-1.219-0.345-0.414-0.344-0.439-0.906zm5.253 0.326 0.492 0.058q-0.244 0.867-1.24 0.867-0.422 0-0.723-0.163-0.297-0.166-0.46-0.472-0.158-0.31-0.158-0.747 0-0.655 0.354-1.038 0.353-0.387 0.963-0.387 0.134 0 0.256 0.02 0.118 0.019 0.228 0.057 0.11 0.04 0.203 0.097 0.097 0.058 0.179 0.132 0.085 0.081 0.154 0.178 0.073 0.1 0.126 0.213 0.049 0.112 0.081 0.244 0.033 0.128 0.045 0.27 4e-3 0.043 4e-3 0.307h-2.1q0.024 0.422 0.251 0.67 0.228 0.243 0.601 0.243 0.537 0 0.744-0.55zm-1.569-0.736h1.573q-0.032-0.387-0.248-0.577-0.215-0.193-0.524-0.193-0.228 0-0.398 0.096-0.17 0.093-0.28 0.264-0.106 0.17-0.123 0.41zm2.38 1.599v-0.519h0.545v0.519z"/>
  </g>
  <g>
   <path d="m43.07 80.274-1.946-3.308 0.493-0.136 1.198 2.189q0.187 0.342 0.353 0.69l-0.02-0.706 0.027-2.602 0.58-0.16 1.017 1.665q0.402 0.66 0.632 1.188-0.023-0.351-0.035-0.826l-0.06-2.454 0.482-0.132-0.014 3.847-0.462 0.128-1.511-2.513-0.229-0.387q6e-3 0.155 9e-3 0.448l-0.021 2.933zm3.216-1v-3.706h2.721v0.437h-2.225v1.135h2.084v0.434h-2.084v1.262h2.312v0.438zm2.974-1.234 0.468 0.07q-0.051 0.446 0.198 0.718 0.25 0.272 0.677 0.376 0.455 0.11 0.723-0.011 0.274-0.125 0.336-0.38 0.043-0.178-0.04-0.334-0.08-0.158-0.257-0.273-0.178-0.12-0.65-0.354-0.351-0.173-0.577-0.344-0.226-0.17-0.332-0.415t-0.035-0.535q0.075-0.309 0.276-0.487 0.205-0.177 0.537-0.228 0.333-0.054 0.711 0.038 0.661 0.16 0.933 0.542 0.275 0.382 0.18 0.869l-0.47-0.079q0.092-0.71-0.722-0.909-0.84-0.205-0.972 0.337-0.039 0.158 0.036 0.3 0.076 0.138 0.223 0.234 0.15 0.096 0.472 0.254 0.57 0.283 0.76 0.433t0.292 0.314q0.103 0.16 0.129 0.338 0.029 0.178-0.019 0.374-0.123 0.504-0.586 0.694t-1.028 0.053q-0.757-0.184-1.065-0.614t-0.198-0.981zm3.52 2.318 1.07-3.089-1.174-0.406 0.143-0.414 2.82 0.977-0.143 0.413-1.178-0.408-1.069 3.089-0.468-0.162zm2.209 0.819 0.909-3.593 2.638 0.668-0.108 0.424-2.157-0.546-0.279 1.1 2.02 0.511-0.106 0.42-2.02-0.51-0.31 1.223 2.242 0.568-0.108 0.424zm4.127 0.99-0.566-3.663 1.648-0.255q0.466-0.072 0.674-0.037 0.209 0.034 0.358 0.125 0.15 0.09 0.277 0.27 0.13 0.18 0.17 0.436 0.133 0.858-0.89 1.16 0.236 0.062 0.434 0.216 0.2 0.153 0.372 0.346l0.803 0.895-0.622 0.096-0.607-0.686q-0.227-0.255-0.384-0.4-0.154-0.148-0.297-0.224-0.14-0.08-0.25-0.09-0.108-0.011-0.306 0.02l-0.572 0.088 0.252 1.626zm0.177-2.124 1.057-0.164q0.498-0.076 0.682-0.277 0.183-0.205 0.14-0.48-0.092-0.594-0.888-0.47l-1.178 0.181zm3.685 1.624-1.241-3.492 0.482-0.172 2.834 2.08-0.975-2.74 0.452-0.162 1.242 3.492-0.482 0.172-2.839-2.082 0.976 2.744z"/>
  </g>
 </g>
 <g fill="#0c0b09" font-family="Browallia New" font-weight="400" letter-spacing="-1" word-spacing="0">
  <path d="M172.777 108.386l-2.993-4.691.758-.193 1.842 3.104q.29.485.543.98l-.028-1.002.04-3.69.893-.226 1.564 2.36q.618.937.973 1.685-.036-.498-.055-1.171l-.091-3.48.74-.188-.021 5.456-.712.18-2.324-3.562-.352-.549q.01.22.014.635l-.032 4.16-.759.192zM177.725 106.968v-5.256h4.186v.62h-3.424v1.61h3.206v.615h-3.206v1.79h3.557v.62h-4.319zM182.3 105.218l.72.1q-.08.632.304 1.018.384.385 1.042.533.7.157 1.113-.016.42-.177.516-.54.066-.25-.062-.471-.121-.225-.396-.389-.273-.168-1-.501-.54-.246-.886-.488-.348-.241-.511-.589-.163-.348-.055-.758.116-.438.425-.69.316-.252.827-.324.512-.077 1.094.054 1.016.228 1.434.768.424.542.278 1.233l-.723-.112q.141-1.008-1.11-1.29-1.294-.29-1.497.479-.059.224.056.425.117.196.342.331.232.137.727.361.878.4 1.17.613.293.213.449.446.158.227.197.48.045.252-.028.53-.189.715-.901.985-.713.27-1.583.074-1.163-.261-1.638-.87-.474-.61-.304-1.392zM187.716 108.505l1.645-4.38-1.806-.576.22-.587 4.338 1.385-.22.586-1.812-.578-1.645 4.38-.72-.23zM191.112 109.667l1.399-5.095 4.058.947-.165.601-3.32-.774-.428 1.56 3.109.725-.164.596-3.108-.725-.477 1.736 3.449.804-.166.602-4.187-.977zM197.462 111.07l-.87-5.194 2.534-.36q.717-.103 1.038-.054.32.049.55.177.23.129.425.384.202.255.263.618.204 1.216-1.37 1.646.363.087.669.305.305.217.572.49l1.234 1.27-.956.136-.934-.973q-.349-.362-.591-.566-.237-.21-.457-.318-.215-.114-.383-.13-.168-.014-.473.03l-.879.124.387 2.307-.76.108zm.272-3.012l1.626-.231q.766-.11 1.048-.394.282-.29.217-.681-.141-.841-1.367-.667l-1.811.258.287 1.715zM203.403 110.361l-1.91-4.952.741-.242 4.36 2.948-1.498-3.886.695-.228 1.91 4.952-.741.243-4.368-2.952 1.501 3.891-.69.226z"/>
 </g>
 <path d="M187.757 203.281l50.12.263c3.62.019 8.005-4.054 5.846-8.934l-26.669-60.301c-4.407-9.966-16.385-19.824-33.238-19.575-12.912.19-19.348 9.463-18.262 14.057l16.028 67.79c.898 3.797 2.678 6.682 6.175 6.7z" fill="none" stroke="#000" stroke-width=".526"/>
 <g fill="#333">
  <path d="m100.15 81.239c0 0.13733-0.0253 0.26533-0.076 0.384-0.0493 0.11667-0.11933 0.218-0.21 0.304-0.112 0.10733-0.24433 0.188-0.397 0.242-0.15333 0.05333-0.34667 0.08-0.58 0.08h-0.432v1.158h-0.432v-3.107h0.882c0.19533 0 0.36067 0.016 0.496 0.048 0.13533 0.03067 0.25533 0.07933 0.36 0.146 0.124 0.07933 0.21967 0.178 0.287 0.296 0.068 0.11867 0.102 0.26833 0.102 0.449zm-0.45 0.01c0-0.10667-0.0197-0.2-0.059-0.28-0.0393-0.07867-0.099-0.143-0.179-0.193-0.07-0.04333-0.15-0.074-0.24-0.092-0.0887-0.02-0.20167-0.03-0.339-0.03h-0.428v1.242h0.365c0.17467 0 0.31667-0.01467 0.426-0.044 0.10933-0.03067 0.198-0.07867 0.266-0.144 0.0687-0.06667 0.117-0.13667 0.145-0.21 0.0287-0.074 0.043-0.157 0.043-0.249z"/>
  <path d="m97.751 81.234c0 0.13733-0.0253 0.26533-0.076 0.384-0.0493 0.11667-0.11933 0.218-0.21 0.304-0.112 0.10733-0.24433 0.188-0.397 0.242-0.15333 0.05333-0.34667 0.08-0.58 0.08h-0.432v1.158h-0.432v-3.107h0.882c0.19533 0 0.36067 0.016 0.496 0.048 0.13533 0.03067 0.25533 0.07933 0.36 0.146 0.124 0.07933 0.21967 0.178 0.287 0.296 0.068 0.11867 0.102 0.26833 0.102 0.449zm-0.45 0.01c0-0.10667-0.0197-0.2-0.059-0.28-0.0393-0.07867-0.099-0.143-0.179-0.193-0.07-0.04333-0.15-0.074-0.24-0.092-0.0887-0.02-0.20167-0.03-0.339-0.03h-0.428v1.242h0.365c0.17467 0 0.31667-0.01467 0.426-0.044 0.10933-0.03067 0.198-0.07867 0.266-0.144 0.0687-0.06667 0.117-0.13667 0.145-0.21 0.0287-0.074 0.043-0.157 0.043-0.249z"/>
  <path d="m103.01 83.466h-0.562l-1.286-1.383-0.323 0.33v1.054h-0.433v-3.107h0.433v1.621l1.579-1.621h0.524l-1.452 1.46 1.52 1.647z"/>
 </g>
 <g fill-rule="evenodd">
  <g stroke="#000">
   <path d="m192.72 76.108c-1.4054-0.6575-4.0974-3.2487-2.8269-7.4197 2.2576-7.4153 7.8371-7.4081 10.964-6.4987 3.2846 0.95573 6.6094 5.7089 5.3343 10.287-0.5568 2.0012-2.3109 3.706-3.0673 6.0249-4.1895 1.1637-5.3261 3.8409-9.2285-1.7991z" fill="url(#linearGradient1402)" stroke-width=".526"/>
   <path d="m196.81 96.846 5.7449-18.206-1.9047-0.11066-5.8812 18.799c0.54822 0.09023 1.2858 0.58103 2.041-0.48183z" fill="#ffb380" stroke-width=".42022"/>
   <path d="m194.74 97.252 5.8824-18.713-1.7874-0.2766-5.8956 18.731c0.53777 0.29578 1.1508 0.42867 1.7617 0.38176z" fill="#ffb380" stroke-width=".42022"/>
  </g>
  <path d="m195.17 97.233 5.6308-18.494" fill="#ffe6d5" stroke="#ffd5d5" stroke-width=".31219"/>
  <path d="m193.02 96.954 5.8094-18.691-1.7134-0.49838-5.8245 18.649c0.49756 0.24108 1.0569 0.54909 1.7283 0.54111z" fill="#ffb380" stroke="#000" stroke-width=".42022"/>
  <path d="m193.38 96.984 5.7707-18.49" fill="#ffe6d5" stroke="#ffd5d5" stroke-width=".31219"/>
  <path d="m191.75 96.383 5.6678-18.541-1.6791-0.48758-5.6439 18.308c0.45477 0.37699 0.91362 0.58121 1.4955 0.83756z" fill="#ffb380" stroke="#000" stroke-width=".42022"/>
  <path d="m192.04 96.554 5.642-18.389" fill="#ffe6d5" stroke="#ffd5d5" stroke-width=".31219"/>
  <path d="m190.28 95.352 5.5892-17.998-1.6029-0.65313-5.3753 18.015c0.35052 0.43168 0.78267 0.61412 1.3412 0.84148z" fill="#ffb380" stroke="#000" stroke-width=".42022"/>
  <path d="m190.55 95.729 5.56-18.031" fill="#ffe6d5" stroke="#ffd5d5" stroke-width=".31219"/>
  <path d="m188.97 94.498 5.5423-17.663-1.4739-0.65973c0.24108 0.66601 0.10095 1.0111 0.10095 1.0111-1.094 3.6903-4.4458 13.738-5.2322 16.405 0.30097 0.47582 0.66023 0.7599 1.0629 0.90626z" fill="#ffb380" stroke="#000" stroke-width=".42022"/>
  <path d="m189.22 94.732 5.5689-17.601" fill="#ffe6d5" stroke="#ffd5d5" stroke-width=".31219"/>
  <path d="m188.31 93.569c4e-3 -0.10584 5.3335-16.915 5.3335-16.915" fill="#ffe6d5" stroke="#ffd5d5" stroke-width=".31219"/>
 </g>
</svg>
