<?xml version="1.0" encoding="UTF-8" standalone="no"?>
<svg
   xmlns:dc="http://purl.org/dc/elements/1.1/"
   xmlns:cc="http://creativecommons.org/ns#"
   xmlns:rdf="http://www.w3.org/1999/02/22-rdf-syntax-ns#"
   xmlns:svg="http://www.w3.org/2000/svg"
   xmlns="http://www.w3.org/2000/svg"
   xmlns:sodipodi="http://sodipodi.sourceforge.net/DTD/sodipodi-0.dtd"
   xmlns:inkscape="http://www.inkscape.org/namespaces/inkscape"
   inkscape:version="1.0 (4035a4fb49, 2020-05-01)"
   sodipodi:docname="hockeymask.svg"
   id="svg94"
   xml:space="preserve"
   enable-background="new 0 0 250 250"
   viewBox="0 0 250 250"
   y="0px"
   x="0px"
   version="1.1"><metadata
   id="metadata100"><rdf:RDF><cc:Work
       rdf:about=""><dc:format>image/svg+xml</dc:format><dc:type
         rdf:resource="http://purl.org/dc/dcmitype/StillImage" /></cc:Work></rdf:RDF></metadata><defs
   id="defs98" /><sodipodi:namedview
   inkscape:current-layer="svg94"
   inkscape:window-maximized="1"
   inkscape:window-y="-4"
   inkscape:window-x="-4"
   inkscape:cy="103.12212"
   inkscape:cx="248.64542"
   inkscape:zoom="2.8284271"
   showgrid="false"
   id="namedview96"
   inkscape:window-height="1017"
   inkscape:window-width="1920"
   inkscape:pageshadow="2"
   inkscape:pageopacity="0"
   guidetolerance="10"
   gridtolerance="10"
   objecttolerance="10"
   borderopacity="1"
   bordercolor="#666666"
   pagecolor="#ffffff" />
<g
   id="Layer_6">
	<radialGradient
   gradientUnits="userSpaceOnUse"
   r="122.5"
   cy="124.5"
   cx="125.5"
   id="XMLID_35_">
		<stop
   id="stop2"
   style="stop-color:#000000"
   offset="0.0645" />
		<stop
   id="stop4"
   style="stop-color:#000000;stop-opacity:0"
   offset="1" />
	</radialGradient>
	<path
   d="M 248,124.5 A 122.5,122.5 0 0 1 125.5,247 122.5,122.5 0 0 1 3,124.5 122.5,122.5 0 0 1 125.5,2 122.5,122.5 0 0 1 248,124.5"
   style="fill:url(#XMLID_35_)"
   id="XMLID_32_" />
</g>
<g
   id="primary">
	<path
   style="fill:#ff8080"
   d="M212.5,112.67l-0.05-0.34l-2.99-0.79l-8.81-2.12l-2.25-0.67l-0.28-0.35l-0.35-2.4   l-0.07-3.62l0.05-5.19l0.47-7.13l0.33-2.62l0.46-0.86l0.56-0.22l0.72,0.01l1.55,0.55l4.14,2.06l4.48,1.36l0.01-0.45   c0,0-7.3-72.23-74.39-82.56l-0.58-0.05l0.03,1.51l0.41,0.22l0.74,2.67l0.24,6.15l-0.47,5.05l-0.28,1.28l-0.29,0.62l-1.05,0.53   l-3.61,0.74l-1.96,0.18l-7.02,0.2l-2.92-0.09l-4.76-0.53l-3.13-0.84l-0.27-0.55l-0.64-2.49l-0.12-2.64l-0.11-2.95l0.2-3.71   l0.41-2.92l0.42-0.76l0.33-0.2l-0.15-1.5C43.75,17,36.58,90.33,36.58,90.33l2.95-0.88l3.42-1.36l2.2-1.16l1.67-0.59l0.95,0.05   l0.55,0.59l0.48,3.11l0.53,7.3l0.03,6.91l-0.27,3.86l-0.31,0.47l-2.23,0.78l-5.77,1.36l-6.28,1.53l-0.09,0.2   c-2.42,45.25,20.41,80.25,20.41,80.25c36.42,55.25,68.66,53.01,68.66,53.01s32.75,1.74,68.25-52.51   C191.75,193.25,214.25,159.83,212.5,112.67z M50.96,148.96c-1.71-0.79-1.92-4.42-1.92-4.42s0-3.54,1.54-3.79   c1.83,0.88,1.79,4.5,1.79,4.5S52.71,147.83,50.96,148.96z M50.22,81.75c0,0-1.16-0.41-1.09-4.28s2.41-4.5,2.41-4.5   s0.91,0.47,1.13,3.94S50.22,81.75,50.22,81.75z M154.88,34.22c0,0,2.69-1.75,5,1.06s0.72,4.69,0.72,4.69s-2.22,1.69-4.84-0.88   S154.88,34.22,154.88,34.22z M154.16,53.03c0,0,3.72-1.28,6.13,1.84s-0.5,5.56-0.5,5.56s-2.69,1.41-5.81-1.38   C150.84,55.19,154.16,53.03,154.16,53.03z M159.97,77.19c-3.22,2.22-5.88-1.28-5.88-1.28s-2.22-3.47-0.16-5.72   c2.5-2.16,5.69,1.44,5.69,1.44S161.94,75.28,159.97,77.19z M132.38,75.63c0,0,2.25-2.34,5.81-0.28s1.59,5.25,1.59,5.25   s-1.94,2.47-5.84,0.53S132.38,75.63,132.38,75.63z M104.75,75.63c3.25-2.44,6.22,0.03,6.22,0.03s2.09,2.75-0.84,5.09   s-6.25,0.06-6.25,0.06S101.5,78.06,104.75,75.63z M83.78,34.97c2.66-2.38,4.78-0.75,4.78-0.75S90,36.25,87.75,39   s-4.91,1.03-4.91,1.03S81.13,37.34,83.78,34.97z M83.63,54.28c3.5-2.84,5.69-1.22,5.69-1.22s3,2.53,0.34,5.72s-6,1.63-6,1.63   S80.13,57.13,83.63,54.28z M89.22,76c-2.19,3.19-5.59,1.28-5.59,1.28s-2.31-2.97,0.34-5.94s5.53-1.03,5.53-1.03   S91.41,72.81,89.22,76z M58.88,167.54c-2.92-0.54-2.96-5.17-2.96-5.17s0.08-3.29,1.67-3.67c2.71,0.08,3,5.08,3,5.08   S60.5,167.17,58.88,167.54z M58.53,92.28c0,0-2.44-0.38-2.28-4.19s2.31-4.59,2.31-4.59s2.38,0.06,2.28,3.97   S58.53,92.28,58.53,92.28z M60.88,63.5c-0.78,3.75-3.66,3.69-3.66,3.69s-1.91-1.53-0.66-5.22s3.59-3.38,3.59-3.38   S61.66,59.75,60.88,63.5z M64.67,156.96c-3.71-1.17-3.42-5.13-3.42-5.13s-0.08-3.21,2.54-3.96c3.29,0.58,3.42,4.96,3.42,4.96   S67.29,156.25,64.67,156.96z M79.83,199.83c-3.29-0.29-3.96-6-3.96-6s-0.13-2.29,1-2.38c3.21-0.04,4.17,5.71,4.17,5.71   S81.25,199.58,79.83,199.83z M93.71,192.75c-4.04-0.42-4.13-5.25-4.13-5.25s-0.29-3.21,2.58-3.38c3.71,0.17,4,5.21,4,5.21   S96.13,192.63,93.71,192.75z M88.83,130.29c0,0-14.21-1.71-14.46-16.54c0.83-12.71,14.08-11.96,14.08-11.96s12.29-1,15.13,11.75   C102.63,130.63,88.83,130.29,88.83,130.29z M108.83,227.63c-5.38-0.54-5.71-4.21-5.71-4.21s-0.25-1.71,2.71-1.79   c5.46,0.21,5.75,4.17,5.75,4.17S111.92,227.54,108.83,227.63z M107.92,213.25c-5-0.58-4.88-4.42-4.88-4.42s-0.29-2.88,3.58-3.21   c4.96,0.17,5.08,4.5,5.08,4.5S111.88,213,107.92,213.25z M111.13,189.21c-3.46-0.08-3.83-4.63-3.83-4.63s-0.21-3.83,3.38-4.17   c3.58-0.33,4,4.5,4,4.5S114.58,189.29,111.13,189.21z M121.67,167.13c-3.88-0.04-4.58-3.33-4.58-3.33s0.71-3.58,4.58-3.5   c3.88,0.08,4.58,3.42,4.58,3.42S125.54,167.17,121.67,167.13z M128.71,184.96c0,0,0.17-4.63,3.88-4.54c3.71,0.08,3.5,4.25,3.5,4.25   s-0.04,4.33-4.17,4.54C128.5,188.67,128.71,184.96,128.71,184.96z M137.17,227c-3.96,1.67-5.25-0.67-5.25-0.67   s-0.96-2.42,2.71-4.08c3.67-1.67,5.38,0.25,5.38,0.25S141.13,225.33,137.17,227z M135.17,213.29c-3.75-0.33-3.46-3.21-3.46-3.21   s-0.42-3.63,4.83-4.42c3.67-0.13,3.79,2.88,3.79,2.88S140.54,212.92,135.17,213.29z M153.04,190.29c-1.83,3.42-4.33,2.29-4.33,2.29   s-2.5-1.5-1-5.79c2.42-4.5,5.21-2,5.21-2S154.63,186.58,153.04,190.29z M166.75,196.96c0,0-1.58,3.5-3.75,2.71   c-1.58-1.79,0.13-5.29,0.13-5.29s1.92-3.83,3.83-2.75C168.5,193.25,166.75,196.96,166.75,196.96z M154.63,130.25   c0,0-13.04,0.79-14.79-16.58c2.29-12.5,15.38-11.88,15.38-11.88s12.71-1.04,13.88,11.96C168.96,128.54,154.63,130.25,154.63,130.25   z M182.09,152.63c-0.47,4.06-3.41,4.28-3.41,4.28s-2.91-0.53-2.53-4.94c0.5-3.47,3.38-4.06,3.38-4.06S182.56,148.56,182.09,152.63z    M183.28,58.63c0,0,2.5-0.16,3.59,3.53s-0.66,5-0.66,5s-2.72,0.28-3.69-3.5S183.28,58.63,183.28,58.63z M184.94,83.53   c1.56,0.16,2.09,4,2.09,4s0.44,4.5-2.34,4.69c-1.75-0.72-2.16-4.41-2.16-4.41S182.47,83.38,184.94,83.53z M187.31,163.66   c-0.47,3.91-3.13,3.84-3.13,3.84s-2.13-2-1.19-5.5s3-3.28,3-3.28S187.78,159.75,187.31,163.66z M194.28,145.06   c-0.31,3.38-1.88,3.88-1.88,3.88s-1.66-0.88-1.44-4.22s1.88-4.03,1.88-4.03S194.59,141.69,194.28,145.06z M193.22,81.78   c0,0-2.09-0.44-2.38-4s0.97-4.84,0.97-4.84s2.03,0.25,2.44,4.25S193.22,81.78,193.22,81.78z"
   fill="#FF8080"
   id="XMLID_46_" />
	<path
   style="fill:#ff5555"
   d="M78.97,104.25c0,0-5.4,3.06-5.72,9.42c-0.19,1.39,0.14,3.53,0.14,3.53l0.19,1.29l2.08,4.79   l1.44,1.93c0,0,4.92,4.64,10.19,5.57l1.54-0.5c0,0-14.46-2.14-14.46-16.54C74.41,108.41,78.97,104.25,78.97,104.25z"
   fill="#FF5555"
   id="XMLID_5_" />
	<path
   style="fill:#ff5555"
   d="M154.5,130.41c0,0-0.31,0.41,1.69,0.22s6.38-2.28,6.38-2.28l0.66-0.44l1.5-1.09l0.56-0.56   l1.94-2.03c0,0,2.59-4.44,3-8.22l0.05-2.86l-0.11-0.75l-0.28-1.22l-0.23-0.7l-1.41-2.94l-0.5-0.66l-2.39-2.17l-0.88-0.39l0.33,0.45   c0,0,3.92,2.92,4.27,8.91c0.13,14.36-14.16,16.58-14.16,16.58L154.5,130.41z"
   fill="#FF5555"
   id="XMLID_6_" />
	<path
   style="fill:#ff5555"
   d="M184.67,92.29l1.02,0.33c0,0,2.4-0.63,2.19-3.98c-0.21-3.35-1.81-4.56-1.81-4.56   s1,1.58,1.02,4.81C187.1,92.13,184.67,92.29,184.67,92.29z"
   fill="#FF5555"
   id="XMLID_7_" />
	<path
   style="fill:#ff5555"
   d="M38.08,89.83c15.04-77.46,73.04-80.92,73.04-80.92l0.5-0.38l0.04-1.33   c-67.92,9.54-75.33,83.17-75.33,83.17L38.08,89.83z"
   fill="#FF5555"
   id="XMLID_9_" />
	<path
   style="fill:#ff5555"
   d="M208.92,89.83c-15.04-77.46-73.04-80.92-73.04-80.92l-0.5-0.38l-0.04-1.33   c67.92,9.54,75.33,83.17,75.33,83.17L208.92,89.83z"
   fill="#FF5555"
   id="XMLID_8_" />
	<path
   style="fill:#ff5555"
   d="M212.67,112.42l-1.63-0.5l-0.38,0.08c0,0-18.5,106.17-89.83,106.17S36.33,112,36.33,112   l-0.15-0.08l-1.77,0.42l-0.13,4.08l0.04,9.63l0.79,9.13l1.5,9.67l2.25,10.25l3,9.75l4,10.58l3.75,7.96l6.79,12.04l6.96,10.04   l4.96,6.38l5.08,5.46l7.38,7.33l8.08,6.42l7.08,4.92l9.21,5.04l8.13,3.29l6.71,1.25l6.67,0.04l6.08-1.13L142,241l10.75-6.21   l7.96-5.83l8.17-7.21l8.25-8.63l7.88-9.79l5.83-8.5l6.33-11.04l5.38-12.13l4.58-13.33l2.83-12.25l2-12.92l0.58-7.75l0.13-8.88   l-0.08-3.21L212.67,112.42z M108.83,227.63c-5.71-0.78-5.71-4.21-5.71-4.21s-0.19-1.7,2.71-1.79c5.67,0.38,5.75,4.17,5.75,4.17   S111.56,227.56,108.83,227.63z M140.19,223.88c0,0-0.14,2.91-5.84,3.69c-2.73-0.06-2.63-1.97-2.63-1.97s0.33-3.63,6-4   C140.61,221.69,140.19,223.88,140.19,223.88z"
   fill="#FF5555"
   id="XMLID_25_" />
	<path
   d="M140.47,223.16c0,0,1.06,3.88-5.47,4.78l-1.31-0.34c0,0,2.72,0.22,4.66-1.25   S140.47,223.16,140.47,223.16z"
   fill="#FF2A2A"
   id="XMLID_13_" />
	<path
   d="M103,222.97c0,0-1.59,3.53,5,4.94l1.94-0.31c0,0-5.41,0.28-6.66-3.41L103,222.97z"
   fill="#FF2A2A"
   id="XMLID_14_" />
	<path
   style="fill:#ff2a2a"
   d="M76.5,220.31c0,0,24.63,25.13,46.34,25.47s47.72-25.66,47.72-25.66   c-7.77,7.77-28.25,22.09-48.56,22.13C103.4,242.28,84.95,228.76,76.5,220.31z"
   fill="#FF2A2A"
   id="XMLID_18_" />
	<path
   style="fill:#ff5555"
   d="M111.19,24.59c0,0,2.22,2.59,12.75,2.59s12.03-2.56,12.03-2.56l-0.59,0.47l-3.25,0.81   l-8.19,0.59c-8.41,0-12.38-1.53-12.38-1.53L111.19,24.59z"
   fill="#FF5555"
   id="XMLID_34_" />
	<path
   style="fill:#ff2a2a"
   d="M198.88,108.88c0.69,1.25,12.38,4.47,13.63,5.81l-0.05-2.36L198.88,108.88z"
   fill="#FF2A2A"
   id="XMLID_37_" />
	<path
   style="fill:#ff2a2a"
   d="M47.5,108.88c-0.69,1.25-12.38,4.47-13.63,5.81l0.05-2.36L47.5,108.88z"
   fill="#FF2A2A"
   id="XMLID_30_" />
</g>
<g
   id="secondary">
	<path
   style="fill:#ffb380"
   d="M90.46,88.17c0,0,27.17,11.92,31.21,15.33c2.96-3.08,31.38-15.42,31.38-15.42l-31.42,2.75   L90.46,88.17z"
   fill="#FFB380"
   id="XMLID_1_" />
	<path
   style="fill:#ffb380"
   d="M160.17,139.21c0,0,10,30.5,9.83,37c3.04-1.25,5.42-2.42,7.96-3.54   C177,164.79,160.17,139.21,160.17,139.21z"
   fill="#FFB380"
   id="XMLID_3_" />
	<path
   style="fill:#ffb380"
   d="M65.75,173.08l7.92,3.58c0.79-9.79,9.71-36.96,9.71-36.96S64.79,168.88,65.75,173.08z"
   fill="#FFB380"
   id="XMLID_4_" />
</g>
<g
   id="tertiary">
	<path
   style="fill:#ffe680"
   d="M34.19,115.5c0,0-4.09-0.72-4.63-1.72c-0.06-8.25,2.91-20.94,3.16-21.44   s3.69-1.84,3.69-1.84l4.88-1.59l3.66-1.88l2-0.66l0.81,0.16l0.47,0.31l0.47,1.41l0.66,9.13l0.16,5.41l-0.25,4.06l-0.22,1.5   l-0.56,0.53l-3.19,0.84l-10.78,2.59l-0.25,2.41L34.19,115.5z"
   fill="#FFE680"
   id="XMLID_17_" />
	<path
   style="fill:#ffe680"
   d="M123.91,26.5c0,0-11.06-0.28-12.59-1.66c-2.38-8.5-0.03-15.94-0.03-15.94l0.31-0.09   c0,0-0.09-4.72,0.31-4.97c11.69-1.59,22.97-0.25,23.31,0.03s0.31,4.97,0.31,4.97l0.31,0.03c0,0,2.69,6.88-0.03,16   C133.56,26.28,123.91,26.5,123.91,26.5z"
   fill="#FFE680"
   id="XMLID_33_" />
	<path
   style="fill:#ffdd55"
   d="M42.17,88.54c0,0,2.83-1.75,4.38-0.96c1.17,6.13,0.25,20.13,0.25,20.13   c-1.46,1.54-5.17,2.75-5.17,2.75l-7.33,1.96l-0.1,3.08c0,0-4.19-0.88-4.6-1.58c-0.42-0.71,1.25-15.79,3.14-21.57   c0,0,3.07-1.89,5.36-2.51C40.38,89.21,42.17,88.54,42.17,88.54z"
   fill="#FFDD55"
   id="XMLID_11_" />
	<path
   style="fill:#ffd42a"
   d="M37.29,90.17c-1.42,2,0.75,1.33,2.42,1.38c1.67,0.04,2.75,0.92,2.75,0.92l-2.58-0.33   c0,0-3.75,0.29-3.88,6.71c-0.13,6.42,4.13,6.79,4.13,6.79l2.21-0.17c0,0-1.75,1-2.58,0.75s1.33,4.42-0.67,4.92   s-4.79,1.29-4.79,1.29l-0.1,3.08c0,0-4.31-1.02-4.63-1.72c-0.4-4.7,2.67-20.51,3.16-21.44C32.72,92.34,34.67,90.88,37.29,90.17z"
   fill="#FFD42A"
   id="XMLID_12_" />
	<path
   style="fill:#ffd42a"
   d="M40.08,92.17c0,0-3.92,0.42-4.08,6.67s4.13,6.79,4.13,6.79s5.33,0.71,4.92-6.88   C44.63,91.17,40.08,92.17,40.08,92.17z"
   fill="#FFEEAA"
   id="XMLID_10_" />
	<path
   style="fill:#ffd42a"
   d="M41.08,92.21c0,0,3.17,1.71,3.17,6.58s-2.88,6.71-2.88,6.71s3.67-0.13,3.71-6.54   C45.13,92.54,41.08,92.21,41.08,92.21z"
   fill="#FFF6D5"
   id="XMLID_15_" />
	<path
   style="fill:#ffe680"
   d="M212.83,115.5c0,0,4.09-0.72,4.63-1.72c0.06-8.25-2.91-20.94-3.16-21.44   s-3.69-1.84-3.69-1.84l-4.88-1.59l-3.66-1.88l-2-0.66l-0.81,0.16l-0.47,0.31l-0.47,1.41l-0.66,9.13l-0.16,5.41l0.25,4.06l0.22,1.5   l0.56,0.53l3.19,0.84l10.78,2.59l0.25,2.41L212.83,115.5z"
   fill="#FFE680"
   id="XMLID_24_" />
	<path
   style="fill:#ffdd55"
   d="M204.85,88.54c0,0-2.83-1.75-4.38-0.96c-1.17,6.13-0.25,20.13-0.25,20.13   c1.46,1.54,5.17,2.75,5.17,2.75l7.33,1.96l0.1,3.08c0,0,4.19-0.88,4.6-1.58c0.42-0.71-1.25-15.79-3.14-21.57   c0,0-3.07-1.89-5.36-2.51C206.64,89.21,204.85,88.54,204.85,88.54z"
   fill="#FFDD55"
   id="XMLID_23_" />
	<path
   style="fill:#ffd42a"
   d="M209.73,90.17c1.42,2-0.75,1.33-2.42,1.38c-1.67,0.04-2.75,0.92-2.75,0.92l2.58-0.33   c0,0,3.75,0.29,3.88,6.71c0.13,6.42-4.13,6.79-4.13,6.79l-2.21-0.17c0,0,1.75,1,2.58,0.75s-1.33,4.42,0.67,4.92   s4.79,1.29,4.79,1.29l0.1,3.08c0,0,4.31-1.02,4.63-1.72c0.4-4.7-2.67-20.51-3.16-21.44C214.3,92.34,212.35,90.88,209.73,90.17z"
   fill="#FFD42A"
   id="XMLID_20_" />
	<path
   style="fill:#ffd42a"
   d="M206.94,92.17c0,0,3.92,0.42,4.08,6.67s-4.13,6.79-4.13,6.79s-5.33,0.71-4.92-6.88   C202.39,91.17,206.94,92.17,206.94,92.17z"
   fill="#FFEEAA"
   id="XMLID_19_" />
	<path
   style="fill:#ffd42a"
   d="M205.94,92.21c0,0-3.17,1.71-3.17,6.58s2.88,6.71,2.88,6.71s-3.67-0.13-3.71-6.54   C201.89,92.54,205.94,92.21,205.94,92.21z"
   fill="#FFF6D5"
   id="XMLID_16_" />
	<path
   style="fill:#ffdd55"
   d="M110.71,22.46c0,0,1.08-2.79,6.92-2.79c-0.92-1.83-0.88-4.04-0.88-4.04s0.33-5.71,6.75-5.71   c6.42,0,6.83,5.67,6.83,5.67c0.08,2-0.71,3.71-0.71,3.71c5.42,0,6.79,3.13,6.79,3.13s1.31-11.04-0.57-13.54l-0.31-0.03   c0,0,0.07-4.43-0.31-4.97c-3.64-1.17-22.68-0.71-23.31-0.03c-0.28,0.45-0.31,4.97-0.31,4.97l-0.31,0.09   C109.29,12.25,110.71,22.46,110.71,22.46z"
   fill="#FFDD55"
   id="XMLID_28_" />
	<path
   style="fill:#ffd42a"
   d="M117.13,18.67c-0.92-1.29-0.92-3.62-0.92-3.62c-5.58,0-5.88,3.71-5.88,3.71   c-0.46-5.58,0.79-9.63,0.79-9.63l0.47-0.31c0,0-0.16-4.5,0.31-4.97c1.11-1.11,22.58-0.7,23.31,0.03c0.43,0.43,0.31,4.97,0.31,4.97   l0.31,0.03c0,0,1.57,4.17,0.99,9.54c0,0-0.29-3.5-5.92-3.5c0,0,0.08,3.04-0.83,3.5l0.25-2.83c0,0-0.5-5.67-6.83-5.67   c-6.33,0-6.75,5.71-6.75,5.71L117.13,18.67z"
   fill="#FFD42A"
   id="XMLID_29_" />
	<path
   style="fill:#ffd42a"
   d="M123.5,9.92c0,0-6.75,0.42-6.75,5.71s6.71,5.63,6.71,5.63s6.87-0.33,6.87-5.67   S123.5,9.92,123.5,9.92z"
   fill="#FFEEAA"
   id="XMLID_27_" />
	<path
   style="fill:#ffdd55"
   d="M116.92,17.08c0,0,1.46,4.17,6.54,4.17s6.71-4.17,6.71-4.17s-0.04,5.25-6.63,5.25   C116.96,22.33,116.92,17.08,116.92,17.08z"
   fill="#FFF6D5"
   id="XMLID_31_" />
</g>
<g
   id="lines">
	<g
   id="XMLID_428_">
		<path
   d="M103.75,113.59c-0.01-0.12-1.38-11.98-15.37-11.98c-2.64,0-4.78,0.42-6.53,1.11    c-7.71,2.33-8.6,9.46-8.7,10.97c0.03-0.01,0.07-0.02,0.11-0.02c0.11,0,0.19,0.04,0.25,0.1c0.04-0.7,0.27-3.18,1.72-5.63    c0.85-1.43,1.98-2.6,3.36-3.52c-4.28,3.53-4.36,8.9-4.36,8.98c0,13.91,12.54,16.53,14.02,16.79c-0.3,0.02-0.6,0.03-0.91,0.03    c-0.09-0.01-5.89-0.9-9.94-5.45c-0.08,0.1-0.17,0.18-0.27,0.24c4.15,4.65,10.08,5.56,10.19,5.57c2.17,0,4.04-0.36,5.66-0.98    c8.72-2.52,10.79-12.15,10.79-16.2L103.75,113.59z M88.41,130.07c-0.14-0.02-13.83-2.08-13.83-16.46c0-0.03,0.02-2.95,1.73-5.83    c2.25-3.8,6.43-5.8,12.07-5.8c13.5,0,14.96,11.27,15.01,11.64C103.38,118.21,100.68,130.07,88.41,130.07z"
   id="XMLID_451_" />
		<path
   d="M73.25,114.4c-0.04,0-0.07-0.01-0.11-0.02c0.02,1,0.11,1.94,0.25,2.83c0.11-0.04,0.23-0.09,0.35-0.12    c-0.14-0.88-0.22-1.8-0.24-2.79C73.44,114.35,73.36,114.4,73.25,114.4z"
   id="XMLID_452_" />
		<path
   d="M75.68,122.63c-0.59-1.01-1.1-2.15-1.47-3.44c-0.12,0.03-0.51-0.75-0.63-0.7    c0.39,1.33,1.46,3.74,2.08,4.79C75.71,123.17,75.56,122.66,75.68,122.63z"
   id="XMLID_453_" />
		<path
   d="M169.84,112.56c0.11-0.05,0.22-0.11,0.33-0.16c-0.07-0.37-0.16-0.78-0.28-1.23    c-0.11,0.02-0.22,0.04-0.34,0.07C169.69,111.72,169.78,112.17,169.84,112.56z"
   id="XMLID_454_" />
		<path
   d="M169.99,113.97c0,0.46-0.02,0.92-0.04,1.35c0.12,0.03,0.17,0.69,0.28,0.72c0.03-0.47,0.12-1.58,0.12-2.08    c0-0.02-0.01-0.34-0.07-0.86c-0.11,0.05-0.23,0.1-0.34,0.16C169.99,113.7,169.99,113.97,169.99,113.97z"
   id="XMLID_455_" />
		<path
   d="M167.4,123.35c-0.6,0.81-1.67,2.09-2.35,2.72c0.09,0.09,0.17,0.17,0.26,0.26    c0.69-0.64,1.35-1.36,1.96-2.18C167.16,124.07,167.49,123.42,167.4,123.35z"
   id="XMLID_456_" />
		<path
   d="M163.22,127.95c0.52-0.35,1.04-0.73,1.56-1.16c-0.09-0.09-0.17-0.17-0.26-0.26    c-0.5,0.42-1.01,0.8-1.52,1.13C163.07,127.76,163.14,127.85,163.22,127.95z"
   id="XMLID_457_" />
		<path
   d="M162.38,128.05c-3.17,1.92-6.14,2.37-6.2,2.38c-0.31,0-0.62-0.01-0.92-0.03c1.44-0.25,14-2.87,14-16.79    c0-0.08-0.08-5.45-4.36-8.98c1,0.66,1.87,1.46,2.59,2.4c0.11-0.04,0.22-0.09,0.33-0.13c-1.31-1.74-3.3-3.35-6.32-4.23    c-1.73-0.66-3.83-1.06-6.41-1.06c-13.98,0-15.36,11.86-15.37,11.98l0,0.02c0,4.04,2.07,13.66,10.79,16.19    c1.63,0.62,3.51,0.99,5.69,0.99h0c0.07-0.01,3.13-0.47,6.39-2.45C162.53,128.25,162.46,128.15,162.38,128.05z M140.09,113.62    c0.04-0.37,1.51-11.64,15.01-11.64c5.64,0,9.82,2.01,12.07,5.8c1.71,2.88,1.73,5.8,1.73,5.83c0,14.37-13.69,16.44-13.8,16.45    C142.8,130.07,140.1,118.21,140.09,113.62z M152.41,130.22c-0.37-0.02-0.73-0.1-1.09-0.21    C151.68,130.09,152.04,130.16,152.41,130.22z"
   id="XMLID_460_" />
		<path
   d="M169.34,110.54c0.11-0.02,0.22-0.04,0.34-0.07c-0.31-0.93-0.76-1.95-1.42-2.96    c-0.11,0.04-0.21,0.08-0.32,0.12c0.11,0.17,0.22,0.33,0.33,0.51C168.74,108.96,169.09,109.78,169.34,110.54z"
   id="XMLID_462_" />
		<path
   d="M110.8,180.21c-2.23,0-4.04,2.14-4.04,4.76c0,2.63,1.81,4.76,4.04,4.76c2.23,0,4.04-2.14,4.04-4.76    C114.84,182.35,113.03,180.21,110.8,180.21z M107.13,184.97c0-0.06,0.01-0.12,0.01-0.18c0.08,2.47,1.76,4.46,3.85,4.57    c-0.06,0-0.12,0.01-0.18,0.01C108.77,189.37,107.13,187.4,107.13,184.97z M113.34,188.15c-0.61,0.54-1.36,0.86-2.17,0.86    c-2.03,0-3.68-1.97-3.68-4.4c0-1.26,0.45-2.4,1.17-3.2c0.61-0.52,1.35-0.84,2.15-0.84c2.03,0,3.68,1.97,3.68,4.4    C114.48,186.23,114.04,187.35,113.34,188.15z"
   id="XMLID_465_" />
		<path
   d="M91.48,183.99c-0.92,0.25-1.65,0.96-2.06,2.02c-0.4,1.04-0.44,2.28-0.11,3.49    c0.33,1.22,0.98,2.27,1.85,2.97c0.66,0.53,1.38,0.81,2.09,0.81c0.24,0,0.47-0.03,0.7-0.09c0.92-0.25,1.65-0.96,2.06-2.02    c0.4-1.04,0.44-2.28,0.11-3.49C95.44,185.14,93.36,183.49,91.48,183.99z M91.39,192.19c-0.81-0.65-1.42-1.63-1.73-2.78    c-0.16-0.59-0.22-1.18-0.2-1.74c0.01,0.49,0.08,0.98,0.21,1.48c0.33,1.22,0.98,2.27,1.85,2.97c0.59,0.48,1.24,0.75,1.88,0.8    C92.73,192.95,92.03,192.71,91.39,192.19z M95.68,191.04c-0.14,0.36-0.32,0.68-0.54,0.95c-0.27,0.23-0.58,0.4-0.91,0.49    c-0.81,0.22-1.68-0.01-2.47-0.65c-0.81-0.65-1.42-1.63-1.73-2.78c-0.31-1.14-0.27-2.31,0.1-3.27c0.15-0.38,0.35-0.71,0.58-0.99    c0.26-0.21,0.55-0.37,0.87-0.45c0.2-0.05,0.4-0.08,0.6-0.08c1.51,0,3.04,1.44,3.6,3.51C96.08,188.91,96.05,190.08,95.68,191.04z"
   id="XMLID_469_" />
		<path
   d="M76.59,191.36c-1.36,0.51-1.7,2.87-0.76,5.37c0.44,1.17,1.09,2.19,1.84,2.86    c0.58,0.52,1.18,0.79,1.72,0.79c0.18,0,0.36-0.03,0.53-0.1c1.36-0.51,1.7-2.87,0.76-5.37C79.75,192.42,77.95,190.85,76.59,191.36z     M77.91,199.32c-0.71-0.63-1.33-1.6-1.75-2.72c-0.34-0.91-0.5-1.82-0.49-2.61c0.04,0.73,0.2,1.54,0.51,2.37    c0.44,1.17,1.09,2.19,1.84,2.86c0.51,0.45,1.03,0.72,1.51,0.78C79.05,200.07,78.49,199.83,77.91,199.32z M80.37,199.47    c-0.07,0.05-0.14,0.08-0.22,0.11c-0.54,0.2-1.21-0.02-1.88-0.63c-0.71-0.63-1.33-1.6-1.75-2.72c-0.67-1.78-0.64-3.57-0.03-4.43    c0.07-0.04,0.14-0.08,0.21-0.11c0.13-0.05,0.26-0.07,0.4-0.07c1.1,0,2.49,1.43,3.23,3.41C81.01,196.82,80.98,198.6,80.37,199.47z"
   id="XMLID_473_" />
		<path
   d="M108.59,205.78c-1.19-0.43-2.45-0.45-3.56-0.03c-1.12,0.42-1.94,1.21-2.32,2.25    c-0.78,2.12,0.6,4.58,3.06,5.48c0.62,0.23,1.25,0.33,1.85,0.33c1.82,0,3.44-0.96,4.03-2.55    C112.43,209.14,111.06,206.68,108.59,205.78z M105.9,213.14c-1.92-0.7-3.13-2.42-3.03-4.1c0.08,1.71,1.34,3.37,3.27,4.07    c0.56,0.21,1.13,0.31,1.68,0.33C107.2,213.46,106.54,213.37,105.9,213.14z M111.32,211.14c-0.13,0.36-0.32,0.68-0.56,0.96    c-1.09,0.97-2.83,1.29-4.5,0.68c-2.28-0.83-3.56-3.09-2.85-5.02c0.14-0.37,0.34-0.71,0.6-1.01c0.33-0.28,0.71-0.5,1.14-0.67    c0.5-0.19,1.03-0.28,1.57-0.28c0.58,0,1.17,0.1,1.74,0.31C110.75,206.95,112.03,209.2,111.32,211.14z"
   id="XMLID_477_" />
		<path
   d="M108.26,221.84c-2.46-0.91-4.95-0.35-5.54,1.25c-0.29,0.79-0.09,1.71,0.56,2.58    c0.64,0.85,1.64,1.55,2.82,1.99c0.8,0.3,1.6,0.44,2.34,0.44c1.54,0,2.8-0.61,3.2-1.69C112.24,224.81,110.73,222.76,108.26,221.84z     M106.23,227.33c-1.12-0.41-2.06-1.08-2.66-1.87c-0.45-0.6-0.66-1.21-0.61-1.77c0.05,0.53,0.28,1.09,0.69,1.63    c0.64,0.85,1.64,1.55,2.82,1.99c0.78,0.29,1.55,0.43,2.27,0.43C107.97,227.78,107.1,227.65,106.23,227.33z M111.31,226.28    c-0.06,0.17-0.15,0.32-0.26,0.46c-0.95,0.74-2.71,0.87-4.46,0.22c-1.12-0.41-2.06-1.08-2.66-1.87c-0.58-0.77-0.76-1.56-0.51-2.23    c0.06-0.17,0.15-0.32,0.26-0.45c0.54-0.42,1.32-0.65,2.22-0.65c0.7,0,1.47,0.14,2.24,0.42    C110.41,223.03,111.84,224.87,111.31,226.28z"
   id="XMLID_481_" />
		<path
   d="M66.93,155.27c0.48-1,0.61-2.23,0.39-3.47c-0.23-1.24-0.79-2.34-1.59-3.11    c-0.82-0.78-1.78-1.11-2.71-0.94c-1.9,0.35-3.06,2.73-2.58,5.32c0.23,1.24,0.79,2.34,1.59,3.11c0.68,0.65,1.45,0.99,2.23,0.99    c0.16,0,0.32-0.01,0.48-0.04C65.67,156.94,66.45,156.29,66.93,155.27z M60.79,152.99c-0.4-2.17,0.42-4.17,1.84-4.76    c-1.21,0.89-1.85,2.79-1.47,4.82c0.23,1.24,0.79,2.34,1.59,3.11c0.16,0.15,0.33,0.28,0.49,0.4c-0.34-0.15-0.66-0.37-0.97-0.66    C61.53,155.19,61,154.16,60.79,152.99z M64.67,156.76c-0.01,0-0.02,0-0.03,0c-0.57-0.08-1.13-0.37-1.64-0.85    c-0.75-0.71-1.27-1.75-1.49-2.91c-0.44-2.39,0.59-4.58,2.29-4.89c0.02,0,0.04,0,0.05,0c0.56,0.09,1.12,0.38,1.62,0.85    c0.75,0.71,1.27,1.75,1.49,2.91c0.21,1.17,0.09,2.32-0.36,3.25C66.17,156.02,65.48,156.61,64.67,156.76z"
   id="XMLID_485_" />
		<path
   d="M57.44,158.54c-1.56,0.14-2.62,2.39-2.38,5c0.23,2.53,1.61,4.49,3.1,4.49c0.05,0,0.1,0,0.16-0.01    c0.77-0.07,1.44-0.64,1.89-1.61c0.43-0.94,0.61-2.14,0.49-3.39C60.46,160.4,59,158.39,57.44,158.54z M58.29,167.66    c-1.36,0.13-2.64-1.74-2.87-4.15c-0.17-1.79,0.3-3.39,1.1-4.15c-0.58,0.93-0.88,2.31-0.74,3.82c0.21,2.31,1.38,4.15,2.73,4.44    C58.44,167.64,58.36,167.65,58.29,167.66z M59.88,166.25c-0.2,0.44-0.45,0.78-0.73,1.02c-0.05,0.01-0.09,0.02-0.14,0.02    c-1.36,0.13-2.64-1.74-2.87-4.15c-0.17-1.85,0.33-3.5,1.19-4.22c0.05-0.01,0.09-0.02,0.14-0.03c0.04,0,0.09-0.01,0.13-0.01    c1.31,0,2.52,1.82,2.74,4.16C60.45,164.24,60.29,165.37,59.88,166.25z"
   id="XMLID_489_" />
		<path
   d="M50.08,140.44c-1.23,0.08-2.06,2.08-1.9,4.54c0.16,2.41,1.21,4.24,2.41,4.24c0.03,0,0.05,0,0.08,0    c0.61-0.04,1.14-0.55,1.5-1.44c0.34-0.85,0.48-1.94,0.4-3.1C52.41,142.22,51.31,140.36,50.08,140.44z M48.55,144.96    c-0.14-2.1,0.51-3.93,1.45-4.13c-0.76,0.7-1.21,2.29-1.08,4.16c0.12,1.75,0.71,3.2,1.48,3.85    C49.5,148.62,48.68,146.95,48.55,144.96z M51.84,147.65c-0.23,0.58-0.54,0.97-0.88,1.13c-0.83-0.37-1.56-1.95-1.69-3.82    c-0.13-1.96,0.43-3.69,1.27-4.07c0.83,0.38,1.55,1.95,1.68,3.82C52.29,145.81,52.15,146.85,51.84,147.65z"
   id="XMLID_493_" />
		<path
   d="M106.85,82c0.36,0,0.72-0.03,1.09-0.11c2.58-0.5,4.34-2.64,3.93-4.77c-0.41-2.13-2.84-3.45-5.42-2.95    c-2.58,0.5-4.34,2.64-3.93,4.77C102.87,80.77,104.7,82,106.85,82z M107.87,81.54c-1.54,0.3-3.01-0.1-3.97-0.93    c-0.34-0.39-0.57-0.86-0.67-1.38c-0.37-1.93,1.26-3.88,3.64-4.34c0.35-0.07,0.69-0.1,1.02-0.1c1.16,0,2.21,0.39,2.95,1.04    c0.33,0.39,0.56,0.85,0.66,1.37C111.88,79.13,110.25,81.08,107.87,81.54z M106.51,74.53c0.35-0.07,0.69-0.1,1.02-0.1    c0.07,0,0.14,0,0.21,0.01c-0.31,0.01-0.63,0.04-0.94,0.1c-2.25,0.44-3.88,2.12-3.98,3.96C102.71,76.69,104.28,74.96,106.51,74.53z    "
   id="XMLID_497_" />
		<path
   d="M88.93,69.61c-0.88-0.58-1.99-0.7-3.11-0.35c-1.11,0.35-2.1,1.12-2.79,2.18    c-1.44,2.2-1.14,4.95,0.68,6.14c0.56,0.37,1.21,0.54,1.87,0.54c1.47,0,3.03-0.86,4.03-2.37C91.05,73.55,90.74,70.8,88.93,69.61z     M83.34,71.64c0.65-0.99,1.57-1.71,2.6-2.03c0.38-0.12,0.76-0.18,1.12-0.18c0.05,0,0.1,0.01,0.16,0.01    c-0.34,0.02-0.68,0.08-1.03,0.18c-1.11,0.35-2.1,1.12-2.79,2.18c-0.58,0.88-0.87,1.86-0.9,2.78    C82.45,73.62,82.72,72.58,83.34,71.64z M89.3,75.55c-1.33,2.03-3.75,2.8-5.4,1.72c-0.09-0.06-0.18-0.13-0.26-0.2    c-1.06-1.25-1.08-3.34,0.05-5.08c0.65-0.99,1.57-1.71,2.6-2.03c0.38-0.12,0.76-0.18,1.12-0.18c0.61,0,1.18,0.16,1.68,0.49    c0.09,0.06,0.18,0.13,0.26,0.19C90.41,71.72,90.44,73.81,89.3,75.55z"
   id="XMLID_501_" />
		<path
   d="M84.24,60.82c0.38,0.09,0.78,0.14,1.17,0.14c0.85,0,1.72-0.21,2.54-0.61c2.48-1.23,3.65-3.93,2.62-6.01    c-1.03-2.08-3.89-2.78-6.37-1.55c-1.2,0.59-2.13,1.54-2.62,2.67c-0.5,1.14-0.5,2.33,0,3.34C82.08,59.81,83.03,60.53,84.24,60.82z     M90.25,54.5c0.95,1.91-0.16,4.38-2.46,5.52c-1.12,0.56-2.35,0.71-3.47,0.45c-0.17-0.04-0.33-0.09-0.49-0.15    c-0.52-0.33-0.93-0.78-1.2-1.32c-0.46-0.92-0.45-1.99,0-3.03c0.46-1.05,1.33-1.94,2.45-2.49c0.78-0.39,1.6-0.57,2.38-0.57    c0.56,0,1.1,0.1,1.59,0.29C89.56,53.52,89.98,53.95,90.25,54.5z M81.91,55.6c0.46-1.05,1.33-1.94,2.45-2.49    c0.78-0.39,1.6-0.57,2.38-0.57c0.12,0,0.23,0.01,0.34,0.02c-0.72,0.05-1.45,0.24-2.16,0.59c-1.2,0.59-2.13,1.54-2.62,2.67    c-0.5,1.14-0.5,2.33,0,3.34c0.04,0.09,0.09,0.17,0.14,0.25c-0.21-0.23-0.4-0.49-0.54-0.77C81.45,57.72,81.45,56.64,81.91,55.6z"
   id="XMLID_505_" />
		<path
   d="M84.51,40.74c1.13,0,2.39-0.56,3.36-1.6c1.6-1.72,1.83-4.11,0.51-5.33c-1.31-1.22-3.68-0.82-5.28,0.89    c-1.6,1.72-1.83,4.11-0.51,5.33C83.11,40.51,83.78,40.74,84.51,40.74z M87.61,38.89c-1.41,1.51-3.44,1.93-4.64,0.98    c-0.89-1.14-0.59-3.11,0.76-4.56c0.9-0.97,2.06-1.49,3.09-1.49c0.59,0,1.12,0.18,1.55,0.52C89.26,35.49,88.95,37.44,87.61,38.89z     M83.37,34.95c0.9-0.97,2.06-1.49,3.09-1.49c0.06,0,0.12,0.01,0.18,0.01c-1.08,0.06-2.26,0.6-3.18,1.59    c-0.87,0.94-1.33,2.07-1.36,3.11C82.02,37.14,82.46,35.93,83.37,34.95z"
   id="XMLID_509_" />
		<path
   d="M58.81,83.34c-0.76-0.1-1.52,0.31-2.16,1.16c-0.62,0.82-1.05,1.95-1.21,3.2    c-0.34,2.6,0.61,4.88,2.12,5.08c0.07,0.01,0.15,0.01,0.22,0.01c0.68,0,1.36-0.41,1.94-1.17c0.62-0.82,1.05-1.95,1.21-3.2    c0.16-1.24,0.04-2.45-0.34-3.4C60.2,84.03,59.56,83.44,58.81,83.34z M57.61,92.42c-1.32-0.17-2.13-2.27-1.81-4.68    c0.16-1.18,0.56-2.26,1.14-3.03c0.07-0.09,0.14-0.17,0.21-0.25c-0.5,0.78-0.84,1.78-0.99,2.87c-0.33,2.51,0.55,4.72,1.97,5.05    C57.95,92.43,57.78,92.44,57.61,92.42z M60.57,88.37L60.57,88.37c-0.16,1.18-0.56,2.26-1.14,3.03c-0.19,0.25-0.4,0.46-0.6,0.62    c-0.17,0.04-0.33,0.06-0.5,0.03c-1.32-0.17-2.13-2.27-1.81-4.68c0.16-1.18,0.56-2.26,1.14-3.03c0.19-0.26,0.4-0.47,0.61-0.63    c0.11-0.02,0.21-0.04,0.32-0.04c0.06,0,0.12,0,0.17,0.01c0.62,0.08,1.15,0.6,1.5,1.46C60.62,86.05,60.73,87.19,60.57,88.37z"
   id="XMLID_513_" />
		<path
   d="M50.88,72.47c-0.63-0.05-1.27,0.4-1.78,1.3c-0.49,0.85-0.81,2-0.92,3.25c-0.23,2.66,0.59,4.83,1.87,4.94    c0.03,0,0.07,0,0.1,0c1.24,0,2.37-1.96,2.59-4.55c0.11-1.24-0.01-2.44-0.34-3.36C52.06,73.08,51.52,72.52,50.88,72.47z     M48.55,77.04c0.1-1.19,0.42-2.29,0.87-3.1c0.41-0.72,0.9-1.12,1.36-1.12c0.02,0,0.05,0,0.07,0c0.09,0.01,0.17,0.04,0.26,0.07    c-0.46,0.15-0.9,0.57-1.28,1.23c-0.49,0.85-0.81,2-0.92,3.25c-0.14,1.63,0.11,3.07,0.63,3.97C48.81,80.71,48.38,78.97,48.55,77.04    z M52.39,77.38c-0.2,2.32-1.22,4.22-2.24,4.21c-0.66-0.71-1.04-2.36-0.88-4.19c0.1-1.19,0.42-2.29,0.87-3.1    c0.41-0.71,0.9-1.12,1.36-1.12c0.22,0.23,0.41,0.56,0.56,0.99C52.38,75.05,52.5,76.18,52.39,77.38z"
   id="XMLID_517_" />
		<path
   d="M57.04,67.34c0.15,0.04,0.31,0.06,0.47,0.06c1.41,0,2.94-1.62,3.56-3.9c0.33-1.21,0.36-2.43,0.09-3.43    c-0.28-1.03-0.85-1.72-1.61-1.92c-0.76-0.21-1.6,0.09-2.37,0.84c-0.74,0.72-1.33,1.79-1.66,3C54.82,64.52,55.51,66.92,57.04,67.34    z M60.72,63.41c-0.62,2.27-2.15,3.85-3.47,3.6c-0.89-0.78-1.2-2.62-0.67-4.57c0.31-1.15,0.87-2.16,1.57-2.84    c0.54-0.52,1.11-0.8,1.63-0.8c0.09,0,0.18,0.01,0.27,0.03c0.33,0.29,0.59,0.75,0.75,1.33C61.06,61.11,61.03,62.26,60.72,63.41z     M55.86,62.08c0.31-1.15,0.87-2.16,1.57-2.84c0.54-0.52,1.11-0.8,1.63-0.8c0.12,0,0.23,0.02,0.34,0.04    c-0.51,0.1-1.02,0.38-1.51,0.86c-0.74,0.72-1.33,1.79-1.66,3c-0.45,1.67-0.31,3.27,0.27,4.29C55.63,65.85,55.33,64.02,55.86,62.08    z"
   id="XMLID_521_" />
		<path
   d="M90,88.22c0.28,0.12,28.22,12.2,31.53,15.39l0.13,0.12l0.13-0.12c3.31-3.19,31.25-15.27,31.53-15.39    l1.03-0.44l-32.68,2.87l-32.68-2.87L90,88.22z M121.63,91.01l0.02,0l30.49-2.68c-5.1,2.22-27.01,11.85-30.49,14.91    c-3.48-3.06-25.39-12.69-30.49-14.91L121.63,91.01z"
   id="XMLID_525_" />
		<path
   d="M65.54,173.04v0.12l8.32,3.78v-0.28c0-7.12,9.78-36.89,9.88-37.19l0.44-1.35l-0.77,1.19    C82.68,140.45,65.54,167.15,65.54,173.04z M73.5,176.38l-7.6-3.45c0.2-5.29,13.65-26.86,17.04-32.21    C81.02,146.63,73.7,169.62,73.5,176.38z"
   id="XMLID_528_" />
		<path
   d="M159.49,137.76l0.44,1.35c0.1,0.3,9.88,30.07,9.88,37.19v0.28l8.32-3.78v-0.12    c0-5.89-17.14-32.6-17.87-33.73L159.49,137.76z M177.76,172.56l-7.6,3.45c-0.2-6.76-7.53-29.74-9.45-35.67    C164.11,145.71,177.56,167.27,177.76,172.56z"
   id="XMLID_531_" />
		<path
   d="M121.72,160.14c-0.01,0-0.02,0-0.04,0c-0.01,0-0.02,0-0.04,0c-2.63,0-4.76,1.77-4.76,3.95    c0,2.18,2.14,3.95,4.76,3.95c0.01,0,0.02,0,0.04,0c0.01,0,0.02,0,0.04,0c2.63,0,4.76-1.77,4.76-3.95    C126.48,161.91,124.35,160.14,121.72,160.14z M126.02,163.71c-0.21,1.81-2.07,3.23-4.34,3.25c-2.27-0.01-4.13-1.44-4.34-3.25    c0.23-1.79,2.09-3.19,4.34-3.2C123.94,160.52,125.79,161.92,126.02,163.71z M117.74,165.6c0.86,1.03,2.29,1.71,3.91,1.71    c0.01,0,0.02,0,0.04,0c0.01,0,0.02,0,0.04,0c1.63,0,3.06-0.68,3.91-1.72c-0.7,1.22-2.2,2.06-3.95,2.08    C119.94,167.66,118.43,166.82,117.74,165.6z"
   id="XMLID_534_" />
		<path
   d="M136.61,184.97c0-2.63-1.81-4.76-4.04-4.76s-4.04,2.14-4.04,4.76c0,2.63,1.81,4.76,4.04,4.76    S136.61,187.6,136.61,184.97z M132.57,189.37c-0.06,0-0.12-0.01-0.18-0.01c2.09-0.11,3.77-2.1,3.85-4.57    c0,0.06,0.01,0.12,0.01,0.18C136.25,187.4,134.6,189.37,132.57,189.37z M132.57,180.57c0.8,0,1.54,0.31,2.15,0.84    c0.72,0.8,1.17,1.94,1.17,3.2c0,2.43-1.65,4.4-3.68,4.4c-0.81,0-1.56-0.32-2.17-0.86c-0.7-0.8-1.14-1.93-1.14-3.18    C128.89,182.55,130.54,180.57,132.57,180.57z"
   id="XMLID_538_" />
		<path
   d="M151.89,183.99c-1.88-0.51-3.96,1.15-4.64,3.68c-0.33,1.22-0.29,2.46,0.11,3.49    c0.41,1.05,1.14,1.77,2.06,2.02c0.23,0.06,0.46,0.09,0.7,0.09c0.71,0,1.43-0.28,2.09-0.81c0.86-0.7,1.52-1.75,1.85-2.97    c0.33-1.22,0.29-2.46-0.11-3.49C153.54,184.96,152.81,184.24,151.89,183.99z M147.6,187.77c0.56-2.07,2.09-3.51,3.6-3.51    c0.2,0,0.4,0.03,0.6,0.08c0.32,0.09,0.61,0.24,0.87,0.45c0.23,0.27,0.43,0.6,0.58,0.99c0.37,0.96,0.41,2.13,0.1,3.27    c-0.31,1.14-0.92,2.13-1.73,2.78c-0.79,0.63-1.67,0.86-2.47,0.65c-0.34-0.09-0.64-0.26-0.91-0.49c-0.22-0.27-0.4-0.58-0.54-0.95    C147.32,190.08,147.29,188.91,147.6,187.77z M153.71,189.41c-0.31,1.14-0.92,2.13-1.73,2.78c-0.64,0.52-1.34,0.76-2.02,0.72    c0.64-0.05,1.29-0.32,1.88-0.8c0.86-0.7,1.52-1.75,1.85-2.97c0.13-0.49,0.2-0.99,0.21-1.47    C153.93,188.24,153.87,188.83,153.71,189.41z"
   id="XMLID_542_" />
		<path
   d="M166.78,191.36c-1.36-0.51-3.16,1.05-4.09,3.55c-0.93,2.5-0.6,4.86,0.76,5.37    c0.17,0.06,0.35,0.1,0.53,0.1c0.54,0,1.13-0.27,1.72-0.79c0.75-0.67,1.41-1.69,1.84-2.86    C168.48,194.23,168.14,191.87,166.78,191.36z M163.03,195.04c0.74-1.98,2.13-3.41,3.23-3.41c0.14,0,0.27,0.02,0.4,0.07    c0.08,0.03,0.15,0.07,0.21,0.11c0.61,0.87,0.64,2.65-0.03,4.43c-0.42,1.12-1.04,2.08-1.75,2.72c-0.68,0.6-1.35,0.83-1.88,0.63    c-0.08-0.03-0.15-0.07-0.22-0.11C162.39,198.6,162.36,196.82,163.03,195.04z M167.21,196.6c-0.42,1.12-1.04,2.08-1.75,2.72    c-0.57,0.51-1.14,0.75-1.63,0.69c0.48-0.06,1-0.32,1.51-0.78c0.75-0.67,1.41-1.69,1.84-2.86c0.31-0.83,0.47-1.64,0.51-2.37    C167.7,194.79,167.55,195.69,167.21,196.6z"
   id="XMLID_546_" />
		<path
   d="M138.34,205.74c-1.11-0.41-2.37-0.4-3.56,0.03c-1.19,0.44-2.16,1.24-2.74,2.27    c-0.58,1.04-0.7,2.18-0.32,3.21c0.58,1.59,2.21,2.55,4.03,2.55c0.61,0,1.24-0.11,1.85-0.33c2.47-0.9,3.84-3.36,3.06-5.48    C140.28,206.96,139.46,206.16,138.34,205.74z M132.35,208.23c0.54-0.95,1.44-1.7,2.55-2.11c0.57-0.21,1.16-0.31,1.74-0.31    c0.54,0,1.08,0.09,1.57,0.28c0.43,0.16,0.82,0.39,1.14,0.67c0.26,0.3,0.47,0.63,0.6,1c0.71,1.93-0.57,4.19-2.85,5.02    c-1.66,0.61-3.4,0.29-4.5-0.68c-0.24-0.28-0.43-0.6-0.56-0.96C131.71,210.21,131.82,209.17,132.35,208.23z M137.47,213.14    c-0.64,0.23-1.29,0.33-1.92,0.3c0.55-0.02,1.12-0.12,1.68-0.33c1.93-0.71,3.19-2.37,3.27-4.07    C140.6,210.72,139.39,212.43,137.47,213.14z"
   id="XMLID_550_" />
		<path
   d="M135.11,221.84c-1.18,0.44-2.18,1.14-2.82,1.99c-0.66,0.87-0.86,1.78-0.56,2.58    c0.29,0.79,1.04,1.36,2.11,1.59c0.34,0.07,0.71,0.11,1.08,0.11c0.76,0,1.56-0.15,2.35-0.44c1.18-0.44,2.18-1.14,2.82-1.99    c0.66-0.87,0.86-1.78,0.56-2.58C140.06,221.49,137.57,220.93,135.11,221.84z M132.58,224.05c0.6-0.79,1.54-1.46,2.66-1.87    c0.77-0.28,1.54-0.42,2.24-0.42c0.9,0,1.69,0.23,2.22,0.65c0.11,0.14,0.2,0.29,0.26,0.45c0.25,0.67,0.07,1.46-0.51,2.23    c-0.6,0.79-1.54,1.45-2.66,1.87c-1.76,0.65-3.51,0.52-4.46-0.23c-0.11-0.14-0.19-0.29-0.25-0.45    C131.81,225.61,132,224.82,132.58,224.05z M139.8,225.46c-0.6,0.79-1.54,1.45-2.66,1.87c-0.85,0.31-1.71,0.45-2.5,0.41    c0.72-0.01,1.49-0.15,2.26-0.43c1.18-0.44,2.18-1.14,2.82-1.99c0.41-0.54,0.64-1.09,0.69-1.63    C140.46,224.25,140.25,224.86,139.8,225.46z"
   id="XMLID_554_" />
		<path
   d="M180.36,147.74c-0.93-0.17-1.89,0.16-2.71,0.94c-0.8,0.76-1.37,1.87-1.59,3.11    c-0.23,1.24-0.09,2.47,0.39,3.47c0.49,1.02,1.27,1.67,2.2,1.84c0.16,0.03,0.32,0.04,0.48,0.04c0.78,0,1.55-0.34,2.23-0.99    c0.8-0.76,1.37-1.87,1.59-3.11C183.41,150.48,182.25,148.09,180.36,147.74z M176.77,155.11c-0.44-0.93-0.57-2.08-0.36-3.25    c0.21-1.17,0.74-2.2,1.49-2.91c0.5-0.48,1.05-0.76,1.62-0.85c0.02,0,0.04,0,0.05,0c1.7,0.31,2.73,2.51,2.29,4.89    c-0.21,1.17-0.74,2.2-1.49,2.91c-0.51,0.48-1.07,0.77-1.64,0.85c-0.01,0-0.02,0-0.03,0C177.89,156.61,177.2,156.02,176.77,155.11z     M182.58,152.99c-0.21,1.17-0.74,2.2-1.49,2.91c-0.31,0.29-0.63,0.51-0.97,0.66c0.17-0.12,0.34-0.25,0.5-0.4    c0.8-0.76,1.37-1.87,1.59-3.11c0.37-2.03-0.26-3.93-1.47-4.82C182.17,148.82,182.98,150.83,182.58,152.99z"
   id="XMLID_558_" />
		<path
   d="M185.93,158.54c-1.55-0.15-3.02,1.87-3.26,4.48c-0.12,1.25,0.06,2.45,0.49,3.39    c0.45,0.97,1.12,1.54,1.89,1.61c0.05,0,0.1,0.01,0.16,0.01c1.49,0,2.87-1.96,3.1-4.49C188.55,160.92,187.48,158.68,185.93,158.54z     M183.49,166.25c-0.41-0.88-0.57-2.02-0.46-3.2c0.22-2.42,1.51-4.28,2.87-4.15c0.05,0,0.1,0.02,0.14,0.03    c0.86,0.72,1.36,2.37,1.19,4.22c-0.22,2.42-1.51,4.28-2.87,4.15c-0.05,0-0.09-0.01-0.14-0.02    C183.94,167.03,183.69,166.69,183.49,166.25z M187.95,163.5c-0.22,2.42-1.5,4.29-2.87,4.15c-0.08-0.01-0.15-0.02-0.22-0.04    c1.34-0.29,2.51-2.13,2.73-4.44c0.14-1.51-0.16-2.89-0.74-3.82C187.65,160.12,188.12,161.71,187.95,163.5z"
   id="XMLID_562_" />
		<path
   d="M193.29,140.44c-1.25-0.08-2.33,1.78-2.49,4.24c-0.08,1.15,0.06,2.25,0.4,3.1    c0.35,0.89,0.89,1.4,1.5,1.44c0.03,0,0.05,0,0.08,0c1.2,0,2.25-1.84,2.41-4.24C195.36,142.52,194.52,140.53,193.29,140.44z     M191.54,147.65c-0.32-0.8-0.45-1.84-0.38-2.94c0.13-1.87,0.85-3.44,1.68-3.82c0.84,0.38,1.4,2.11,1.27,4.07    c-0.13,1.87-0.86,3.45-1.69,3.82C192.08,148.62,191.76,148.22,191.54,147.65z M194.83,144.96c-0.13,1.99-0.95,3.65-1.85,3.88    c0.78-0.66,1.37-2.1,1.48-3.85c0.13-1.87-0.32-3.46-1.08-4.16C194.31,141.03,194.97,142.86,194.83,144.96z"
   id="XMLID_566_" />
		<path
   d="M135.44,81.9c0.37,0.07,0.73,0.11,1.09,0.11c2.14,0,3.98-1.23,4.33-3.06c0.41-2.13-1.35-4.27-3.93-4.77    c-1.24-0.24-2.49-0.07-3.51,0.48c-1.03,0.56-1.71,1.44-1.91,2.47C131.1,79.26,132.86,81.4,135.44,81.9z M136.87,74.53    c2.23,0.43,3.8,2.16,3.69,3.96c-0.1-1.84-1.73-3.52-3.98-3.96c-0.31-0.06-0.61-0.09-0.91-0.1c0.06,0,0.12-0.01,0.17-0.01    C136.18,74.43,136.52,74.46,136.87,74.53z M131.87,77.2c0.1-0.51,0.34-0.98,0.68-1.39c0.74-0.64,1.79-1.02,2.93-1.02    c0.33,0,0.68,0.03,1.02,0.1c2.38,0.46,4.01,2.41,3.64,4.34c-0.1,0.52-0.34,0.98-0.67,1.37c-0.96,0.83-2.43,1.23-3.97,0.93    C133.13,81.08,131.49,79.13,131.87,77.2z"
   id="XMLID_570_" />
		<path
   d="M157.55,69.26c-1.12-0.35-2.22-0.23-3.11,0.35c-1.81,1.19-2.11,3.94-0.67,6.14    c0.99,1.51,2.56,2.37,4.03,2.37c0.66,0,1.31-0.18,1.87-0.54c1.81-1.19,2.11-3.94,0.67-6.14    C159.64,70.38,158.65,69.61,157.55,69.26z M154.07,75.55c-1.14-1.74-1.11-3.83-0.05-5.08c0.08-0.07,0.17-0.13,0.26-0.19    c0.49-0.32,1.07-0.49,1.68-0.49c0.36,0,0.74,0.06,1.12,0.18c1.03,0.32,1.95,1.05,2.6,2.03c1.14,1.73,1.11,3.83,0.05,5.08    c-0.08,0.07-0.17,0.14-0.26,0.2C157.82,78.35,155.4,77.58,154.07,75.55z M160.88,74.58c-0.03-0.93-0.32-1.9-0.9-2.78    c-0.69-1.06-1.68-1.83-2.79-2.18c-0.35-0.11-0.7-0.17-1.04-0.19c0.42-0.02,0.86,0.03,1.3,0.17c1.03,0.32,1.95,1.05,2.6,2.03    C160.65,72.58,160.92,73.62,160.88,74.58z"
   id="XMLID_574_" />
		<path
   d="M155.42,60.34c0.81,0.4,1.69,0.61,2.54,0.61c0.4,0,0.79-0.05,1.17-0.14c1.21-0.29,2.15-1.01,2.66-2.02    c0.5-1.02,0.5-2.2,0-3.34c-0.5-1.13-1.43-2.08-2.62-2.67c-2.48-1.23-5.34-0.53-6.37,1.55c-0.5,1.02-0.5,2.2,0,3.34    C153.3,58.8,154.23,59.75,155.42,60.34z M159.01,53.11c1.12,0.56,1.99,1.44,2.45,2.49c0.46,1.04,0.46,2.12,0,3.03    c-0.14,0.29-0.33,0.54-0.54,0.77c0.05-0.08,0.1-0.16,0.14-0.25c0.5-1.02,0.5-2.2,0-3.34c-0.5-1.13-1.43-2.08-2.62-2.67    c-0.72-0.36-1.46-0.54-2.19-0.59C157.15,52.49,158.1,52.66,159.01,53.11z M153.13,54.5c0.27-0.54,0.68-0.98,1.17-1.3    c0.49-0.19,1.04-0.3,1.61-0.3c0.78,0,1.6,0.18,2.38,0.57c1.12,0.56,1.99,1.44,2.45,2.49c0.46,1.04,0.46,2.12,0,3.03    c-0.27,0.54-0.68,0.99-1.2,1.32c-0.16,0.06-0.32,0.11-0.49,0.15c-1.12,0.27-2.35,0.11-3.47-0.45c-1.12-0.56-1.99-1.44-2.45-2.49    C152.67,56.49,152.67,55.41,153.13,54.5z"
   id="XMLID_578_" />
		<path
   d="M155.5,39.13c0.77,0.82,1.73,1.37,2.72,1.55c0.22,0.04,0.44,0.06,0.64,0.06c0.75,0,1.41-0.24,1.91-0.71    c1.31-1.22,1.08-3.61-0.51-5.33c-1.6-1.71-3.96-2.12-5.28-0.89c-0.64,0.6-0.94,1.49-0.84,2.5    C154.26,37.31,154.74,38.31,155.5,39.13z M158.29,40.33c-0.91-0.16-1.8-0.67-2.52-1.44s-1.16-1.7-1.25-2.61    c-0.08-0.76,0.09-1.43,0.48-1.93c0.43-0.35,0.97-0.52,1.55-0.52c1.03,0,2.19,0.52,3.09,1.49c1.35,1.46,1.66,3.42,0.76,4.56    C159.85,40.31,159.11,40.47,158.29,40.33z M156.91,33.46c1.03,0,2.19,0.52,3.09,1.49c0.91,0.98,1.35,2.19,1.26,3.23    c-0.03-1.04-0.49-2.18-1.36-3.11c-0.92-0.99-2.09-1.53-3.17-1.59C156.79,33.47,156.85,33.46,156.91,33.46z"
   id="XMLID_582_" />
		<path
   d="M184.56,83.34c-0.75,0.1-1.39,0.7-1.78,1.68c-0.38,0.95-0.5,2.16-0.34,3.4c0.16,1.24,0.6,2.38,1.21,3.2    c0.58,0.76,1.26,1.17,1.94,1.17c0.07,0,0.15,0,0.22-0.01c1.52-0.2,2.47-2.48,2.12-5.08c-0.16-1.24-0.6-2.38-1.21-3.2    C186.08,83.65,185.32,83.24,184.56,83.34z M183.94,91.4c-0.58-0.77-0.99-1.84-1.14-3.03c-0.16-1.18-0.04-2.33,0.32-3.22    c0.35-0.86,0.88-1.38,1.5-1.46c0.06-0.01,0.12-0.01,0.17-0.01c0.1,0,0.21,0.02,0.32,0.04c0.21,0.16,0.42,0.37,0.61,0.63    c0.58,0.77,0.99,1.84,1.14,3.03c0.32,2.4-0.49,4.5-1.81,4.68c-0.16,0.02-0.33,0.01-0.5-0.03    C184.34,91.86,184.13,91.65,183.94,91.4z M185.77,92.42c-0.17,0.02-0.35,0.01-0.52-0.04c1.42-0.33,2.3-2.54,1.97-5.05    c-0.14-1.09-0.49-2.09-0.99-2.87c0.07,0.08,0.14,0.16,0.21,0.25c0.58,0.77,0.99,1.84,1.14,3.03    C187.9,90.15,187.08,92.24,185.77,92.42z"
   id="XMLID_586_" />
		<path
   d="M194.26,73.76c-0.51-0.89-1.13-1.35-1.78-1.3c-0.64,0.06-1.18,0.62-1.52,1.59    c-0.33,0.92-0.45,2.11-0.34,3.36c0.23,2.59,1.35,4.55,2.59,4.55c0.03,0,0.07,0,0.1,0c1.28-0.11,2.1-2.28,1.87-4.94    C195.08,75.76,194.75,74.61,194.26,73.76z M190.98,77.38c-0.1-1.19,0.01-2.33,0.32-3.2c0.15-0.42,0.35-0.76,0.56-0.99    c0.46,0,0.95,0.4,1.36,1.12c0.46,0.8,0.77,1.91,0.87,3.1c0.16,1.83-0.22,3.48-0.88,4.19C192.2,81.59,191.19,79.7,190.98,77.38z     M193.83,81.34c0.51-0.9,0.77-2.34,0.63-3.97c-0.11-1.24-0.44-2.4-0.92-3.25c-0.38-0.66-0.82-1.07-1.28-1.23    c0.08-0.04,0.17-0.06,0.26-0.07c0.02,0,0.05,0,0.07,0c0.46,0,0.95,0.4,1.36,1.12c0.46,0.8,0.77,1.91,0.87,3.1    C194.99,78.97,194.56,80.71,193.83,81.34z"
   id="XMLID_590_" />
		<path
   d="M182.31,63.5c0.62,2.28,2.15,3.9,3.56,3.9c0.16,0,0.32-0.02,0.47-0.06c1.53-0.42,2.21-2.82,1.52-5.35    c-0.69-2.53-2.5-4.25-4.03-3.84c-0.76,0.21-1.33,0.89-1.61,1.92C181.94,61.07,181.98,62.29,182.31,63.5L182.31,63.5z     M187.51,62.08c0.53,1.94,0.23,3.77-0.65,4.56c0.59-1.02,0.73-2.63,0.27-4.29c-0.33-1.21-0.92-2.28-1.66-3    c-0.49-0.47-1-0.76-1.51-0.86c0.11-0.03,0.23-0.04,0.35-0.04C185.56,58.45,186.93,59.96,187.51,62.08z M182.56,60.17    c0.16-0.58,0.42-1.04,0.75-1.33c0.09-0.02,0.18-0.03,0.27-0.03c0.53,0,1.1,0.27,1.63,0.8c0.7,0.68,1.25,1.69,1.57,2.84    c0.53,1.95,0.22,3.79-0.67,4.57c-1.31,0.24-2.85-1.33-3.47-3.6v0C182.34,62.26,182.31,61.11,182.56,60.17z"
   id="XMLID_594_" />
		<path
   d="M123.59,22.54c0.73-0.01,1.5-0.08,2.21-0.25c0.72-0.16,1.41-0.42,2.02-0.78    c0.61-0.36,1.13-0.82,1.54-1.32c0.41-0.5,0.72-1.03,0.94-1.55c0.44-1.03,0.56-1.97,0.61-2.61c0.04-0.65,0-1.01,0-1.01    s0.01,0.37-0.07,1.01c-0.07,0.57-0.23,1.37-0.6,2.24c0.16-0.48,0.25-0.98,0.26-1.5h0v-1.08h0c0-0.03,0-0.05,0-0.08    c0-3.22-3.11-5.85-6.93-5.85c-3.82,0-6.93,2.62-6.93,5.85c0,0.03,0,0.05,0,0.08h0v1.08h0c0.01,0.51,0.1,1.01,0.25,1.48    c-0.36-0.86-0.51-1.64-0.58-2.21c-0.08-0.64-0.07-1.01-0.07-1.01s-0.04,0.37,0,1.01c0.05,0.64,0.16,1.58,0.61,2.61    c0.22,0.51,0.52,1.05,0.94,1.55c0.41,0.5,0.93,0.96,1.55,1.31c0.61,0.36,1.3,0.62,2.02,0.78c0.49,0.11,0.98,0.17,1.48,0.21    c0.01,0,0.02,0,0.04,0c0.22,0.01,0.45,0.03,0.67,0.03c0.01,0,0.01,0,0.02,0c0,0,0,0,0,0C123.59,22.54,123.59,22.54,123.59,22.54z     M123.58,22.18c-3.17,0-5.81-1.89-6.42-4.38c1.03,2.14,3.52,3.66,6.42,3.66c2.9,0,5.39-1.51,6.42-3.65    C129.38,20.3,126.74,22.18,123.58,22.18z M123.58,10.13c3.62,0,6.57,2.46,6.57,5.48c0,3.02-2.95,5.48-6.57,5.48    c-3.62,0-6.57-2.46-6.57-5.48C117.01,12.59,119.96,10.13,123.58,10.13z"
   id="XMLID_598_" />
		<path
   d="M206.93,91.95c-0.02,0-0.04,0-0.05,0v0h-0.79v0c-0.37,0.01-0.73,0.1-1.07,0.25    c0.17-0.11,0.34-0.19,0.51-0.26c0.35-0.16,0.68-0.24,0.95-0.3c0.27-0.05,0.49-0.08,0.64-0.08c0.15-0.01,0.23,0,0.23,0    s-0.08-0.01-0.23-0.02c-0.15,0-0.37,0-0.65,0.04c-0.28,0.04-0.62,0.1-0.99,0.24c-0.19,0.07-0.38,0.14-0.58,0.25    c-0.1,0.05-0.2,0.1-0.3,0.16c-0.1,0.07-0.19,0.14-0.29,0.21c-0.4,0.28-0.77,0.68-1.11,1.13c-0.17,0.23-0.3,0.49-0.45,0.74    c-0.14,0.26-0.23,0.55-0.35,0.83c-0.18,0.58-0.35,1.19-0.42,1.83l-0.07,0.48c-0.02,0.16-0.02,0.32-0.03,0.48    c-0.02,0.32-0.03,0.65-0.05,0.98c0.02,0.32,0.03,0.64,0.05,0.96c0.01,0.16,0.01,0.32,0.03,0.48l0.07,0.48    c0.07,0.64,0.24,1.25,0.43,1.83c0.12,0.28,0.21,0.57,0.35,0.83c0.16,0.25,0.28,0.51,0.45,0.74c0.34,0.45,0.71,0.84,1.11,1.12    c0.1,0.07,0.2,0.14,0.29,0.21c0.1,0.06,0.2,0.11,0.3,0.16c0.19,0.11,0.39,0.18,0.58,0.25c0.37,0.14,0.71,0.2,0.99,0.24    c0.28,0.04,0.5,0.04,0.65,0.04c0.15-0.01,0.23-0.01,0.23-0.01s-0.08,0-0.23,0c-0.15-0.01-0.37-0.04-0.64-0.09    c-0.27-0.06-0.6-0.14-0.95-0.3c-0.18-0.08-0.36-0.16-0.54-0.28c0.35,0.16,0.71,0.25,1.09,0.26v0h0.79v0c0.02,0,0.04,0,0.05,0    c2.38,0,4.31-3.11,4.31-6.93C211.24,95.06,209.31,91.95,206.93,91.95z M202.32,100.83c0-0.02-0.01-0.04-0.01-0.05l-0.06-0.46    c-0.02-0.15-0.02-0.32-0.02-0.47c-0.01-0.32-0.02-0.64-0.04-0.96c0.01-0.31,0.02-0.63,0.03-0.94c0.01-0.16,0.01-0.32,0.02-0.47    l0.06-0.46c0-0.02,0.01-0.04,0.01-0.06c0.42-2.25,1.56-3.98,2.98-4.48c-1.57,1.04-2.68,3.52-2.68,6.41c0,2.89,1.11,5.37,2.67,6.41    C203.88,104.79,202.74,103.07,202.32,100.83z M206.93,105.46c-2.18,0-3.95-2.95-3.95-6.57c0-3.62,1.77-6.57,3.95-6.57    s3.95,2.95,3.95,6.57C210.88,102.51,209.11,105.46,206.93,105.46z"
   id="XMLID_602_" />
		<path
   d="M 123.57031 3.0390625 C 120.92031 3.0790625 112.24906 3.2597656 111.78906 3.7597656 C 111.50906 4.0597656 111.42992 5.5208594 111.41992 6.8808594 C 105.15992 7.7808594 98.969375 9.369375 93.109375 11.609375 C 82.149375 15.799375 72.400859 22.120625 64.130859 30.390625 C 54.790859 39.730625 47.479922 51.450703 42.419922 65.220703 C 39.569922 72.970703 37.439766 81.399686 36.009766 90.429688 C 35.949766 90.449686 35.899844 90.470234 35.839844 90.490234 C 35.799844 90.510234 35.749219 90.519064 35.699219 90.539062 C 35.659219 90.549064 35.620078 90.569844 35.580078 90.589844 C 35.340078 90.679844 35.110859 90.779141 34.880859 90.869141 C 34.810859 90.899141 34.749688 90.930937 34.679688 90.960938 C 34.429688 91.070937 34.200469 91.179062 33.980469 91.289062 C 33.950469 91.309062 33.920625 91.320078 33.890625 91.330078 C 33.840625 91.360078 33.790469 91.389922 33.730469 91.419922 C 33.680469 91.449922 33.630078 91.47 33.580078 91.5 C 33.520078 91.54 33.450625 91.579375 33.390625 91.609375 C 33.280625 91.679375 33.180078 91.740547 33.080078 91.810547 C 33.070078 91.820547 33.049062 91.829844 33.039062 91.839844 L 33.029297 91.849609 C 32.999297 91.869609 32.969687 91.899922 32.929688 91.919922 C 32.889688 91.949922 32.840781 91.989297 32.800781 92.029297 C 32.750781 92.069297 32.709922 92.110391 32.669922 92.150391 L 32.650391 92.169922 L 32.560547 92.269531 L 32.539062 92.289062 C 32.539062 92.289062 32.539297 92.300781 32.529297 92.300781 C 32.519297 92.310781 32.519531 92.320313 32.519531 92.320312 C 32.489531 92.360314 32.469453 92.410469 32.439453 92.480469 C 32.429453 92.500469 32.420156 92.530781 32.410156 92.550781 C 32.410156 92.560781 32.410391 92.560312 32.400391 92.570312 C 32.390391 92.590312 32.390859 92.609141 32.380859 92.619141 C 32.380859 92.629141 32.369141 92.640391 32.369141 92.650391 C 32.329141 92.760391 32.29 92.889062 32.25 93.039062 C 32.23 93.109062 32.209453 93.180234 32.189453 93.240234 C 32.189453 93.250234 32.189687 93.259766 32.179688 93.259766 C 32.139688 93.409766 32.100313 93.560937 32.070312 93.710938 C 31.820312 94.760936 31.520703 96.289063 31.220703 98.039062 C 31.210703 98.099063 31.199453 98.170469 31.189453 98.230469 C 31.149453 98.480469 31.100547 98.739766 31.060547 99.009766 C 31.010547 99.279766 30.969922 99.560078 30.919922 99.830078 C 30.539922 102.13008 30.219219 104.31008 29.949219 106.33008 C 29.819219 107.34008 29.679844 108.31047 29.589844 109.23047 C 29.539844 109.80047 29.489219 110.35086 29.449219 110.88086 C 29.299219 112.53086 29.260625 113.67086 29.390625 113.88086 C 29.830625 114.59086 32.310156 115.22031 33.910156 115.57031 C 33.890156 116.68031 33.880859 117.79016 33.880859 118.91016 C 33.880859 152.46016 45.799219 185.1693 67.449219 211.0293 C 84.999219 231.9993 107.50922 246.08984 123.44922 246.08984 C 139.38922 246.08984 161.88922 231.9993 179.44922 211.0293 C 201.08922 185.1793 213.01953 152.46016 213.01953 118.91016 C 213.01953 117.80016 213.01023 116.68961 212.99023 115.59961 C 214.58023 115.25961 217.18063 114.61086 217.64062 113.88086 C 217.77062 113.68086 217.73008 112.54064 217.58008 110.89062 C 217.54008 110.36062 217.48945 109.81023 217.43945 109.24023 C 217.34945 108.32023 217.21008 107.34984 217.08008 106.33984 C 216.81008 104.31984 216.48937 102.13984 216.10938 99.839844 C 216.06938 99.569844 216.0207 99.289531 215.9707 99.019531 C 215.9307 98.759531 215.87984 98.500234 215.83984 98.240234 C 215.82984 98.180234 215.82055 98.110781 215.81055 98.050781 C 215.51055 96.290781 215.21094 94.770703 214.96094 93.720703 C 214.93094 93.570703 214.88961 93.419531 214.84961 93.269531 C 214.84961 93.259531 214.84984 93.26 214.83984 93.25 C 214.81984 93.18 214.7993 93.110781 214.7793 93.050781 C 214.7393 92.900781 214.70016 92.770156 214.66016 92.660156 C 214.66016 92.650156 214.65039 92.640859 214.65039 92.630859 C 214.64039 92.610859 214.64086 92.590078 214.63086 92.580078 C 214.63086 92.570078 214.62914 92.570547 214.61914 92.560547 C 214.60914 92.530547 214.59984 92.510234 214.58984 92.490234 C 214.55984 92.420234 214.52977 92.370078 214.50977 92.330078 C 214.50977 92.330078 214.51 92.320547 214.5 92.310547 C 214.5 92.310547 214.50023 92.300781 214.49023 92.300781 L 214.4707 92.279297 L 214.38086 92.179688 L 214.35938 92.160156 C 214.31938 92.120156 214.28047 92.079063 214.23047 92.039062 C 214.19047 91.999062 214.13961 91.969687 214.09961 91.929688 C 214.06961 91.909688 214.04 91.879375 214 91.859375 L 213.99023 91.849609 C 213.98023 91.839609 213.95922 91.830314 213.94922 91.820312 C 213.84922 91.750314 213.75064 91.689141 213.64062 91.619141 C 213.58062 91.579141 213.50922 91.539766 213.44922 91.509766 C 213.39922 91.479766 213.35078 91.459687 213.30078 91.429688 C 213.25078 91.399687 213.20062 91.369844 213.14062 91.339844 C 213.11062 91.319844 213.08078 91.310781 213.05078 91.300781 C 212.83078 91.190781 212.59961 91.080703 212.34961 90.970703 C 212.27961 90.940703 212.22039 90.910859 212.15039 90.880859 C 211.93039 90.780859 211.68922 90.689609 211.44922 90.599609 C 211.40922 90.579609 211.37008 90.570781 211.33008 90.550781 C 211.29008 90.530781 211.23945 90.52 211.18945 90.5 C 211.08945 90.46 210.98086 90.420859 210.88086 90.380859 C 209.45086 81.370859 207.32047 72.960703 204.48047 65.220703 C 199.42047 51.450703 192.11953 39.730625 182.76953 30.390625 C 174.49953 22.120625 164.73906 15.799375 153.78906 11.609375 C 148.00906 9.399375 141.9007 7.8299219 135.7207 6.9199219 C 135.7107 5.5499219 135.62961 4.0697656 135.34961 3.7597656 C 134.88961 3.2597656 126.22031 3.0790625 123.57031 3.0390625 z M 123.57031 3.3808594 C 127.76031 3.4508594 134.56984 3.6702344 135.08984 3.9902344 C 135.31984 4.2702344 135.38984 6.479375 135.33984 8.609375 C 134.24984 8.419375 132.80055 8.4707813 130.56055 8.5507812 C 128.78055 8.6107813 126.56031 8.6894531 123.57031 8.6894531 C 120.58031 8.6894531 118.36008 8.6107813 116.58008 8.5507812 C 114.34008 8.4707812 112.89078 8.419375 111.80078 8.609375 C 111.75078 6.449375 111.83078 4.2302344 112.05078 3.9902344 C 112.53078 3.6702344 119.38031 3.4508594 123.57031 3.3808594 z M 111.43945 7.5195312 C 111.43945 7.9595313 111.45094 8.3501563 111.46094 8.6601562 C 111.45094 8.6601562 111.43992 8.6699219 111.41992 8.6699219 C 110.87992 8.8099219 110.49977 9.7507816 110.25977 11.550781 C 109.70977 15.710781 110.10914 24.319297 111.36914 25.029297 C 113.02914 25.969297 118.04984 26.619141 123.58984 26.619141 C 129.12984 26.619141 134.15055 25.969297 135.81055 25.029297 C 137.08055 24.309297 137.46992 15.710781 136.91992 11.550781 C 136.67992 9.7507814 136.29977 8.7999219 135.75977 8.6699219 C 135.74977 8.6699219 135.7407 8.6601563 135.7207 8.6601562 C 135.7307 8.3601563 135.74023 7.9803125 135.74023 7.5703125 C 168.15023 12.250312 201.44086 36.010312 210.13086 90.070312 C 209.91086 90.000314 209.70047 89.919609 209.48047 89.849609 L 209.4707 89.849609 C 209.1607 89.749609 208.86078 89.660547 208.55078 89.560547 C 208.53078 89.550547 208.51023 89.549063 208.49023 89.539062 C 208.15023 89.439064 207.82 89.34 207.5 89.25 C 207.42 89.23 207.33977 89.199686 207.25977 89.179688 C 207.14977 89.149687 207.03969 89.110078 206.92969 89.080078 C 206.84969 89.050078 206.75969 89.02 206.67969 89 C 206.61969 88.98 206.56977 88.959453 206.50977 88.939453 C 206.39977 88.899453 206.29945 88.860313 206.18945 88.820312 C 206.13945 88.800314 206.10078 88.779531 206.05078 88.769531 C 205.94078 88.729531 205.8307 88.680859 205.7207 88.630859 L 205.57031 88.570312 C 205.46031 88.520314 205.36 88.479687 205.25 88.429688 C 205.2 88.409688 205.14938 88.389375 205.10938 88.359375 C 204.99937 88.309375 204.8893 88.259219 204.7793 88.199219 C 204.7493 88.189219 204.71945 88.170156 204.68945 88.160156 C 204.40945 88.030156 204.13937 87.89 203.85938 87.75 C 203.72938 87.69 203.60047 87.620547 203.48047 87.560547 C 203.32047 87.480547 203.15977 87.400313 203.00977 87.320312 C 202.97977 87.310312 202.95969 87.289297 202.92969 87.279297 C 202.62969 87.129297 202.34031 86.989375 202.07031 86.859375 C 202.06031 86.859375 202.04906 86.849609 202.03906 86.849609 C 202.02906 86.849609 202.01977 86.839844 202.00977 86.839844 C 201.70977 86.699844 201.42039 86.570703 201.15039 86.470703 C 201.10039 86.450703 201.04977 86.439922 201.00977 86.419922 C 200.87977 86.369922 200.76063 86.330781 200.64062 86.300781 C 200.62062 86.300781 200.60984 86.289297 200.58984 86.279297 C 200.41984 86.229297 200.25961 86.199687 200.09961 86.179688 C 200.08961 86.179688 200.08008 86.179922 200.08008 86.169922 C 200.06008 86.169922 200.03953 86.170156 200.01953 86.160156 C 199.54953 86.110156 199.15914 86.190703 198.86914 86.470703 L 198.83984 86.5 C 198.81984 86.53 198.78953 86.550078 198.76953 86.580078 C 198.72953 86.630078 198.69016 86.680234 198.66016 86.740234 C 198.66016 86.750234 198.65039 86.749766 198.65039 86.759766 C 198.62039 86.809766 198.60031 86.869453 198.57031 86.939453 C 198.54031 87.009453 198.52 87.070625 198.5 87.140625 C 198.48 87.200625 198.46922 87.250547 198.44922 87.310547 L 198.44922 87.320312 C 198.44922 87.340312 198.43945 87.349141 198.43945 87.369141 C 198.43945 87.379141 198.42969 87.400156 198.42969 87.410156 C 197.77969 90.090156 197.3893 98.95937 197.5293 104.35938 C 197.5293 104.57936 197.53906 104.79953 197.53906 105.01953 C 197.55906 105.62953 197.58086 106.23984 197.63086 106.83984 C 197.65086 107.13984 197.68047 107.44023 197.73047 107.74023 C 197.75047 107.89023 197.78031 108.03945 197.82031 108.18945 C 197.84031 108.26945 197.86039 108.33969 197.90039 108.42969 C 197.91039 108.45969 197.96023 108.54008 197.99023 108.58008 L 198.0293 108.61914 L 198.05078 108.64062 L 198.06055 108.64062 C 198.07055 108.65064 198.06008 108.64039 198.08008 108.65039 L 198.09961 108.66992 C 198.10961 108.67992 198.11914 108.67969 198.11914 108.67969 C 198.33914 108.82969 198.58961 108.96031 198.84961 109.07031 C 198.87961 109.08031 198.89969 109.08961 198.92969 109.09961 C 199.01969 109.13961 199.12094 109.17094 199.21094 109.21094 C 199.25094 109.23094 199.29984 109.23977 199.33984 109.25977 C 199.79984 109.41977 200.23047 109.52008 200.48047 109.58008 C 200.78047 109.65008 201.06938 109.7093 201.35938 109.7793 C 202.42937 110.0293 203.45922 110.26977 204.44922 110.50977 C 205.43922 110.74977 206.38906 110.96945 207.28906 111.18945 C 208.18906 111.39945 209.04938 111.58953 209.85938 111.76953 C 210.70937 111.96953 211.4907 112.15031 212.2207 112.32031 C 212.2907 114.48031 212.33984 116.67016 212.33984 118.91016 C 212.29984 152.29016 200.44039 184.84031 178.90039 210.57031 C 161.48039 231.38031 139.19094 245.36914 123.46094 245.36914 C 107.73094 245.36914 85.439531 231.39031 68.019531 210.57031 C 46.479531 184.85031 34.619141 152.29992 34.619141 118.91992 C 34.619141 116.68992 34.660469 114.50937 34.730469 112.35938 C 35.490469 112.17937 36.320703 111.97953 37.220703 111.76953 C 38.030703 111.58953 38.879064 111.38945 39.789062 111.18945 C 40.689062 110.96945 41.640859 110.74977 42.630859 110.50977 C 43.620859 110.27977 44.650703 110.0393 45.720703 109.7793 C 46.000703 109.7093 46.299609 109.65008 46.599609 109.58008 C 46.849609 109.53008 47.280234 109.41977 47.740234 109.25977 C 47.780234 109.24977 47.829141 109.23094 47.869141 109.21094 C 47.959141 109.18094 48.060391 109.13961 48.150391 109.09961 C 48.180391 109.08961 48.200469 109.08031 48.230469 109.07031 C 48.490469 108.96031 48.740936 108.82969 48.960938 108.67969 C 48.970937 108.66969 48.980469 108.66992 48.980469 108.66992 L 49 108.65039 C 49.01 108.64039 49.009531 108.65062 49.019531 108.64062 L 49.029297 108.64062 C 49.039297 108.64062 49.040781 108.62914 49.050781 108.61914 L 49.089844 108.58008 C 49.119844 108.54008 49.169688 108.45969 49.179688 108.42969 C 49.209688 108.34969 49.239766 108.26945 49.259766 108.18945 C 49.299766 108.03945 49.319609 107.89023 49.349609 107.74023 C 49.389609 107.44023 49.419219 107.13984 49.449219 106.83984 C 49.499219 106.23984 49.519062 105.62953 49.539062 105.01953 C 49.549062 104.79953 49.550781 104.57936 49.550781 104.35938 C 49.690781 98.95937 49.300391 90.090156 48.650391 87.410156 C 48.650391 87.400156 48.650625 87.379141 48.640625 87.369141 C 48.640625 87.349141 48.630859 87.340313 48.630859 87.320312 L 48.630859 87.310547 C 48.620859 87.250547 48.600078 87.200625 48.580078 87.140625 C 48.560078 87.070625 48.539766 87.009453 48.509766 86.939453 C 48.479766 86.869453 48.459686 86.809766 48.429688 86.759766 C 48.429688 86.749766 48.419922 86.750234 48.419922 86.740234 C 48.389922 86.690234 48.350547 86.630078 48.310547 86.580078 C 48.290547 86.550078 48.260234 86.53 48.240234 86.5 L 48.210938 86.470703 C 47.920938 86.190703 47.530547 86.100156 47.060547 86.160156 C 47.040547 86.160156 47.02 86.159922 47 86.169922 C 46.99 86.169922 46.980469 86.169687 46.980469 86.179688 C 46.830469 86.199686 46.660234 86.239297 46.490234 86.279297 C 46.470234 86.279297 46.459453 86.290781 46.439453 86.300781 C 46.319453 86.330781 46.190314 86.379922 46.070312 86.419922 C 46.020314 86.439922 45.969687 86.450703 45.929688 86.470703 C 45.659686 86.570703 45.370313 86.699844 45.070312 86.839844 C 45.060313 86.839844 45.049063 86.849609 45.039062 86.849609 C 45.029063 86.849609 45.019766 86.859375 45.009766 86.859375 C 44.729766 86.989375 44.440391 87.129297 44.150391 87.279297 C 44.120391 87.289297 44.100313 87.310314 44.070312 87.320312 C 43.910314 87.400312 43.759609 87.480547 43.599609 87.560547 C 43.469609 87.620547 43.350703 87.69 43.220703 87.75 C 42.940703 87.89 42.670625 88.030156 42.390625 88.160156 C 42.360625 88.170156 42.330781 88.189219 42.300781 88.199219 C 42.190781 88.249219 42.080703 88.309375 41.970703 88.359375 C 41.920703 88.379375 41.870078 88.399687 41.830078 88.429688 C 41.720078 88.479686 41.619766 88.530313 41.509766 88.570312 L 41.359375 88.630859 C 41.249375 88.680859 41.139297 88.719531 41.029297 88.769531 C 40.979297 88.789531 40.940625 88.810312 40.890625 88.820312 C 40.780625 88.860314 40.680313 88.899453 40.570312 88.939453 C 40.510312 88.959453 40.460391 88.98 40.400391 89 C 40.320391 89.03 40.230391 89.060078 40.150391 89.080078 C 40.040391 89.120078 39.930313 89.149686 39.820312 89.179688 C 39.740313 89.199686 39.660078 89.23 39.580078 89.25 C 39.250078 89.34 38.919844 89.439064 38.589844 89.539062 C 38.569844 89.549064 38.549297 89.550547 38.529297 89.560547 C 38.229297 89.650547 37.919375 89.749609 37.609375 89.849609 L 37.599609 89.849609 C 37.339609 89.939609 37.070547 90.019375 36.810547 90.109375 C 45.500547 35.879375 78.949456 12.119531 111.43945 7.5195312 z M 113.80078 8.8203125 C 114.56078 8.8203125 115.47055 8.850625 116.56055 8.890625 C 118.35055 8.950625 120.57055 9.0292969 123.56055 9.0292969 C 126.55055 9.0292969 128.78055 8.950625 130.56055 8.890625 C 133.05055 8.800625 134.55062 8.7492969 135.64062 9.0292969 C 135.67063 9.0392969 135.7 9.0498437 135.75 9.0898438 C 135.76 9.1098437 135.7693 9.1401564 135.7793 9.1601562 C 135.9693 9.6601562 136.08969 10.240313 136.17969 10.820312 C 136.53969 13.140314 136.60008 15.470391 136.58008 17.650391 C 136.56008 18.740391 136.50992 19.810078 136.41992 20.830078 C 136.36992 21.340078 136.3107 21.840078 136.2207 22.330078 C 136.1307 22.810078 136.02961 23.289219 135.84961 23.699219 C 135.80961 23.799219 135.74945 23.900938 135.68945 23.960938 C 135.64945 24.030938 135.52969 24.070859 135.42969 24.130859 C 135.22969 24.240859 135.02078 24.320391 134.80078 24.400391 C 134.38078 24.560391 133.93953 24.669531 133.51953 24.769531 C 132.66953 24.969531 131.85008 25.110469 131.08008 25.230469 C 129.54008 25.460469 128.18055 25.559141 127.06055 25.619141 C 125.94055 25.679141 125.06094 25.710703 124.46094 25.720703 L 124.33984 25.720703 L 124.33984 25.730469 L 124.46094 25.730469 C 125.06094 25.720469 125.94055 25.710156 127.06055 25.660156 C 128.18055 25.610156 129.53984 25.519609 131.08984 25.349609 C 131.86984 25.259609 132.69078 25.140703 133.55078 24.970703 C 133.98078 24.880703 134.41914 24.780625 134.86914 24.640625 C 135.08914 24.570625 135.31906 24.490625 135.53906 24.390625 C 135.64906 24.340625 135.77086 24.299686 135.88086 24.179688 C 135.91086 24.139688 135.9407 24.110312 135.9707 24.070312 C 135.8507 24.420313 135.72008 24.650469 135.58008 24.730469 C 134.26008 25.470469 129.93906 26.269531 123.53906 26.269531 C 117.14906 26.269531 112.82 25.470469 111.5 24.730469 C 111.36 24.650469 111.22936 24.420312 111.10938 24.070312 C 111.13938 24.100313 111.15945 24.139922 111.18945 24.169922 C 111.23945 24.219922 111.30914 24.270781 111.36914 24.300781 L 111.5293 24.369141 C 111.7393 24.469141 111.97922 24.549141 112.19922 24.619141 C 112.64922 24.759141 113.08953 24.859219 113.51953 24.949219 C 114.37953 25.129219 115.21047 25.240078 115.98047 25.330078 C 117.53047 25.500078 118.88977 25.590625 120.00977 25.640625 C 121.17977 25.720625 122.06016 25.730703 122.66016 25.720703 C 122.06016 25.710703 121.18055 25.689141 120.06055 25.619141 C 118.94055 25.559141 117.57906 25.460469 116.03906 25.230469 C 115.26906 25.110469 114.44961 24.979531 113.59961 24.769531 C 113.17961 24.659531 112.74031 24.560391 112.32031 24.400391 C 112.10031 24.320391 111.90922 24.240859 111.69922 24.130859 L 111.53906 24.050781 C 111.49906 24.030781 111.47945 24.010703 111.43945 23.970703 C 111.37945 23.900703 111.3193 23.809219 111.2793 23.699219 C 111.0993 23.289219 111.00016 22.810078 110.91016 22.330078 C 110.82016 21.840078 110.76094 21.340078 110.71094 20.830078 C 110.61094 19.810078 110.56078 18.740391 110.55078 17.650391 C 110.53078 15.470391 110.58922 13.140313 110.94922 10.820312 C 111.04922 10.250312 111.15961 9.6699219 111.34961 9.1699219 C 111.35961 9.1399219 111.37086 9.1198437 111.38086 9.0898438 C 111.42086 9.0598437 111.46047 9.0392969 111.48047 9.0292969 C 112.09047 8.8692969 112.83078 8.8203125 113.80078 8.8203125 z M 199.56055 86.490234 C 199.70055 86.470234 199.85 86.470234 200 86.490234 L 200.00977 86.490234 C 200.31977 86.540234 200.62945 86.630234 200.93945 86.740234 C 200.94945 86.750234 200.97047 86.749766 200.98047 86.759766 C 201.28047 86.869766 201.57914 87.010625 201.86914 87.140625 C 202.16914 87.280625 202.46977 87.430078 202.75977 87.580078 C 202.77977 87.590078 202.81008 87.599375 202.83008 87.609375 C 203.11008 87.749375 203.39969 87.899064 203.67969 88.039062 C 203.68969 88.039062 203.68922 88.050781 203.69922 88.050781 C 203.78922 88.100781 203.89047 88.139453 203.98047 88.189453 L 204.16016 88.279297 C 204.24016 88.319297 204.31063 88.350625 204.39062 88.390625 C 204.48063 88.440625 204.57992 88.479297 204.66992 88.529297 C 204.71992 88.549297 204.77031 88.579609 204.82031 88.599609 C 204.93031 88.649609 205.05016 88.709766 205.16016 88.759766 C 205.21016 88.779766 205.25078 88.800314 205.30078 88.820312 C 205.41078 88.870312 205.52086 88.920937 205.63086 88.960938 C 205.69086 88.990938 205.75031 89.009062 205.82031 89.039062 C 205.91031 89.079064 205.99961 89.120391 206.09961 89.150391 C 206.17961 89.180391 206.26008 89.210234 206.33008 89.240234 C 206.41008 89.270234 206.49008 89.300078 206.58008 89.330078 C 206.65008 89.360078 206.72078 89.380391 206.80078 89.400391 C 206.92078 89.440391 207.03039 89.469766 207.15039 89.509766 C 207.16039 89.509766 207.16969 89.519531 207.17969 89.519531 C 207.27969 89.549531 207.3707 89.579609 207.4707 89.599609 C 207.7607 89.679609 208.04984 89.769609 208.33984 89.849609 L 208.42969 89.880859 L 209.30078 90.150391 C 209.35078 90.170391 209.38945 90.179219 209.43945 90.199219 C 209.68945 90.279219 209.94922 90.369219 210.19922 90.449219 C 210.23922 90.459219 210.28031 90.480234 210.32031 90.490234 L 211.07031 90.759766 L 211.31055 90.849609 C 211.54055 90.939609 211.77977 91.040859 212.00977 91.130859 C 212.06977 91.150859 212.11969 91.179219 212.17969 91.199219 C 212.41969 91.309219 212.67039 91.419063 212.90039 91.539062 C 212.94039 91.559062 212.9893 91.579375 213.0293 91.609375 C 213.2893 91.749375 213.53953 91.890547 213.76953 92.060547 L 213.7793 92.060547 C 213.8393 92.100547 213.88945 92.139453 213.93945 92.189453 C 213.94945 92.199453 213.9607 92.210937 213.9707 92.210938 C 214.0207 92.250938 214.06914 92.299609 214.11914 92.349609 L 214.18945 92.429688 L 214.21094 92.449219 L 214.21094 92.460938 L 214.24023 92.509766 C 214.29023 92.579766 214.30031 92.640938 214.32031 92.710938 C 214.51031 93.270938 214.6493 93.909766 214.7793 94.509766 C 214.9093 95.119766 215.03062 95.720312 215.14062 96.320312 C 215.37062 97.520314 215.56977 98.699609 215.75977 99.849609 C 216.13977 102.14961 216.46047 104.32984 216.73047 106.33984 C 216.86047 107.34984 216.97984 108.31047 217.08984 109.23047 C 217.11984 109.50047 217.14945 109.74953 217.18945 110.01953 C 217.39945 111.99953 217.47984 113.41039 217.33984 113.65039 C 217.00984 114.18039 214.87023 114.78945 212.99023 115.18945 C 212.97023 114.26945 212.94992 113.35922 212.91992 112.44922 C 213.29992 112.53922 213.66 112.6307 214 112.7207 C 214.57 112.8707 215.0893 113.00064 215.5293 113.14062 C 215.7493 113.21063 215.95086 113.26984 216.13086 113.33984 C 216.15795 113.35339 216.18749 113.36489 216.2168 113.37695 C 216.18717 113.36288 216.15753 113.35008 216.13086 113.33008 C 215.95086 113.25008 215.7493 113.17937 215.5293 113.10938 C 215.0893 112.95937 214.57953 112.81063 214.01953 112.64062 C 212.87953 112.31064 211.49063 111.92 209.89062 111.5 C 209.09062 111.29 208.23984 111.07008 207.33984 110.83008 C 206.43984 110.60008 205.49 110.39039 204.5 110.15039 C 203.51 109.92039 202.48016 109.67992 201.41016 109.41992 C 201.14016 109.35992 200.87961 109.29023 200.59961 109.24023 C 200.33961 109.18023 200.07055 109.11906 199.81055 109.03906 C 199.80055 109.03906 199.79906 109.0393 199.78906 109.0293 C 199.65906 108.9893 199.53039 108.95039 199.40039 108.90039 L 199.39062 108.90039 C 199.27062 108.86039 199.16078 108.80953 199.05078 108.76953 C 199.02078 108.75953 199.0007 108.75023 198.9707 108.74023 C 198.8707 108.69023 198.76016 108.64984 198.66016 108.58984 C 198.65016 108.57984 198.62914 108.58031 198.61914 108.57031 C 198.50914 108.51031 198.38906 108.43914 198.28906 108.36914 C 198.27906 108.36914 198.27953 108.35937 198.26953 108.35938 L 198.25977 108.34961 L 198.25 108.33984 L 198.23047 108.32031 C 198.23047 108.32031 198.2207 108.31078 198.2207 108.30078 C 198.2207 108.29078 198.22094 108.28977 198.21094 108.25977 C 198.19094 108.20977 198.17039 108.14008 198.15039 108.08008 C 198.12039 107.95008 198.09031 107.81016 198.07031 107.66016 C 198.03031 107.37016 198.00047 107.07906 197.98047 106.78906 C 197.93047 106.19906 197.91063 105.60023 197.89062 104.99023 C 197.85063 103.77023 197.84938 102.52 197.85938 101.25 C 197.88938 98.71 197.97086 96.089922 198.13086 93.419922 C 198.21086 92.089922 198.31094 90.750156 198.46094 89.410156 C 198.54094 88.740156 198.6293 88.069687 198.7793 87.429688 C 198.8193 87.269688 198.85992 87.110469 198.91992 86.980469 L 198.93945 86.929688 L 198.93945 86.919922 L 198.94922 86.900391 C 198.97922 86.850391 199.01078 86.799766 199.05078 86.759766 L 199.07031 86.740234 C 199.11031 86.700234 199.14945 86.670625 199.18945 86.640625 C 199.21945 86.620625 199.24953 86.609844 199.26953 86.589844 C 199.29953 86.569844 199.33914 86.549064 199.36914 86.539062 C 199.38914 86.529062 199.40969 86.529531 199.42969 86.519531 C 199.46969 86.509531 199.51055 86.500234 199.56055 86.490234 z M 47.039062 86.539062 L 47.050781 86.539062 C 47.200781 86.519064 47.350234 86.519063 47.490234 86.539062 C 47.540234 86.549064 47.579141 86.560313 47.619141 86.570312 C 47.639141 86.580314 47.659686 86.579844 47.679688 86.589844 C 47.719687 86.599844 47.749297 86.620625 47.779297 86.640625 C 47.809297 86.660625 47.839375 86.669453 47.859375 86.689453 C 47.899375 86.719453 47.940469 86.749063 47.980469 86.789062 L 48 86.810547 C 48.04 86.850547 48.069609 86.899219 48.099609 86.949219 L 48.109375 86.970703 L 48.109375 86.980469 L 48.119141 87 C 48.179141 87.13 48.219766 87.289219 48.259766 87.449219 C 48.409766 88.089219 48.500078 88.759687 48.580078 89.429688 C 48.730078 90.769688 48.830156 92.109453 48.910156 93.439453 C 49.070156 96.099453 49.149687 98.729532 49.179688 101.26953 C 49.189687 102.53953 49.190391 103.78977 49.150391 105.00977 C 49.130391 105.61977 49.110547 106.22055 49.060547 106.81055 C 49.040547 107.11055 49.010703 107.39969 48.970703 107.67969 C 48.950703 107.81969 48.920625 107.95961 48.890625 108.09961 C 48.870625 108.15961 48.850078 108.2293 48.830078 108.2793 C 48.820078 108.3093 48.820312 108.31031 48.820312 108.32031 C 48.820312 108.33031 48.810547 108.32984 48.810547 108.33984 L 48.789062 108.35938 L 48.779297 108.36914 L 48.769531 108.38086 C 48.759531 108.38086 48.76 108.39064 48.75 108.39062 C 48.64 108.46063 48.529922 108.52984 48.419922 108.58984 C 48.409922 108.59984 48.390859 108.59936 48.380859 108.60938 C 48.280859 108.65936 48.180313 108.70977 48.070312 108.75977 C 48.040312 108.76977 48.020234 108.77906 47.990234 108.78906 C 47.880234 108.83906 47.760391 108.87992 47.650391 108.91992 C 47.650391 108.91992 47.640625 108.91969 47.640625 108.92969 C 47.510625 108.96969 47.38 109.02055 47.25 109.06055 C 47.24 109.06055 47.240469 109.06031 47.230469 109.07031 C 46.970469 109.15031 46.699453 109.21953 46.439453 109.26953 C 46.159453 109.31953 45.900859 109.38922 45.630859 109.44922 C 44.560859 109.69922 43.529063 109.93969 42.539062 110.17969 C 41.549062 110.41969 40.599219 110.62937 39.699219 110.85938 C 38.799219 111.09936 37.950391 111.3193 37.150391 111.5293 C 35.550391 111.9593 34.159531 112.33992 33.019531 112.66992 C 32.449531 112.83992 31.939766 112.99063 31.509766 113.14062 C 31.289766 113.21063 31.090156 113.28937 30.910156 113.35938 C 30.870156 113.37936 30.819297 113.39969 30.779297 113.42969 C 30.739297 113.45969 30.689686 113.47906 30.679688 113.53906 C 30.649687 113.62906 30.690234 113.72906 30.740234 113.78906 C 30.860234 113.90906 30.999141 113.94047 31.119141 113.98047 C 31.239141 114.01047 31.339922 114.02906 31.419922 114.03906 C 31.579922 114.05906 31.669922 114.06055 31.669922 114.06055 C 31.669922 114.06055 31.589922 114.0593 31.419922 114.0293 C 31.339922 114.0193 31.239141 114.00094 31.119141 113.96094 C 31.009141 113.92094 30.869766 113.87953 30.759766 113.76953 C 30.709766 113.71953 30.680936 113.63078 30.710938 113.55078 C 30.730937 113.47078 30.829922 113.46016 30.919922 113.41016 C 31.099922 113.34016 31.299531 113.27094 31.519531 113.21094 C 31.959531 113.08094 32.470781 112.93906 33.050781 112.78906 C 33.350781 112.70906 33.67 112.63078 34 112.55078 C 33.97 113.44078 33.949688 114.33047 33.929688 115.23047 C 32.079687 114.83047 30.030936 114.2407 29.710938 113.7207 C 29.580938 113.4807 29.649375 112.06984 29.859375 110.08984 C 29.889375 109.82984 29.920936 109.57078 29.960938 109.30078 C 30.080938 108.38078 30.200313 107.42016 30.320312 106.41016 C 30.590312 104.40016 30.909063 102.21992 31.289062 99.919922 C 31.479063 98.769922 31.680156 97.590625 31.910156 96.390625 C 32.020156 95.790625 32.139531 95.180078 32.269531 94.580078 C 32.399531 93.980078 32.540469 93.339297 32.730469 92.779297 C 32.750469 92.719297 32.770547 92.660078 32.810547 92.580078 L 32.839844 92.529297 L 32.839844 92.519531 L 32.859375 92.5 L 32.929688 92.419922 C 32.979686 92.369922 33.030078 92.329297 33.080078 92.279297 C 33.090078 92.269297 33.099375 92.259766 33.109375 92.259766 C 33.159375 92.219766 33.219531 92.170859 33.269531 92.130859 L 33.279297 92.130859 C 33.509297 91.960859 33.759531 91.819688 34.019531 91.679688 C 34.059531 91.659688 34.110391 91.639375 34.150391 91.609375 C 34.390391 91.489375 34.629141 91.379531 34.869141 91.269531 C 34.929141 91.249531 34.979062 91.219219 35.039062 91.199219 C 35.269062 91.099219 35.500234 91.009922 35.740234 90.919922 L 35.980469 90.830078 L 36.730469 90.560547 C 36.770469 90.520547 36.809609 90.510234 36.849609 90.490234 C 37.099609 90.400234 37.359375 90.320234 37.609375 90.240234 C 37.659375 90.220234 37.7 90.209453 37.75 90.189453 L 38.619141 89.919922 L 38.710938 89.890625 C 39.000937 89.800625 39.290078 89.720625 39.580078 89.640625 C 39.680078 89.610625 39.769141 89.580547 39.869141 89.560547 C 39.879141 89.560547 39.890391 89.550781 39.900391 89.550781 C 40.020391 89.520781 40.14 89.479453 40.25 89.439453 C 40.32 89.419453 40.390703 89.389141 40.470703 89.369141 C 40.550703 89.339141 40.630703 89.309297 40.720703 89.279297 C 40.800703 89.249297 40.879219 89.219453 40.949219 89.189453 C 41.039219 89.149453 41.130469 89.120078 41.230469 89.080078 C 41.290469 89.050078 41.349922 89.03 41.419922 89 C 41.529922 88.95 41.64 88.899375 41.75 88.859375 C 41.8 88.839375 41.840625 88.820781 41.890625 88.800781 C 42.000625 88.750781 42.120469 88.700625 42.230469 88.640625 C 42.280469 88.620625 42.330859 88.590312 42.380859 88.570312 C 42.470859 88.530312 42.560156 88.479453 42.660156 88.439453 C 42.740156 88.399453 42.810625 88.370078 42.890625 88.330078 L 43.070312 88.240234 C 43.160314 88.190234 43.259609 88.149609 43.349609 88.099609 C 43.359609 88.099609 43.359141 88.089844 43.369141 88.089844 C 43.649141 87.949844 43.940703 87.800156 44.220703 87.660156 C 44.240703 87.650156 44.269062 87.640859 44.289062 87.630859 C 44.589062 87.480859 44.879687 87.329453 45.179688 87.189453 C 45.469687 87.059453 45.770314 86.920547 46.070312 86.810547 C 46.080312 86.800547 46.099375 86.799063 46.109375 86.789062 C 46.419375 86.679063 46.729062 86.589063 47.039062 86.539062 z M 216.26953 113.40625 C 216.3019 113.42483 216.33124 113.44605 216.33984 113.48047 C 216.36984 113.56047 216.33906 113.63922 216.28906 113.69922 C 216.18906 113.80922 216.03969 113.86062 215.92969 113.89062 C 215.79969 113.97064 215.69914 113.98977 215.61914 114.00977 C 215.69914 113.99977 215.79992 113.97922 215.91992 113.94922 C 216.02992 113.90922 216.18078 113.87977 216.30078 113.75977 C 216.36078 113.69977 216.39938 113.59977 216.35938 113.50977 C 216.35938 113.45417 216.30892 113.43294 216.26953 113.40625 z "
   id="XMLID_606_" />
		<path
   d="M200.2,89.43c-0.05,0.38-0.11,0.82-0.14,1.29c-0.05,0.47-0.07,0.99-0.11,1.53    c-0.04,0.54-0.06,1.12-0.09,1.71c-0.03,0.59-0.04,1.21-0.06,1.83c-0.02,0.62-0.02,1.26-0.03,1.89c-0.01,1.27,0.01,2.54,0.04,3.73    c0.03,1.19,0.08,2.3,0.13,3.25c0.01,0.48,0.06,0.91,0.1,1.3c0.04,0.38,0.08,0.72,0.11,1c0.06,0.55,0.1,0.87,0.1,0.87    s-0.01-0.32-0.04-0.87c-0.01-0.28-0.02-0.61-0.03-1c-0.01-0.39-0.02-0.82-0.05-1.3c-0.05-0.95-0.1-2.06-0.13-3.24    c-0.03-1.19-0.05-2.45-0.04-3.72c0.01-0.63,0.01-1.27,0.03-1.89c0.02-0.62,0.03-1.24,0.06-1.83c0.03-0.59,0.05-1.17,0.09-1.71    c0.04-0.54,0.06-1.06,0.11-1.53c0.05-0.47,0.08-0.91,0.1-1.29c0.03-0.39,0.06-0.72,0.08-1c0.05-0.55,0.07-0.87,0.07-0.87    s-0.05,0.31-0.14,0.86C200.31,88.71,200.26,89.04,200.2,89.43z"
   id="XMLID_611_" />
		<path
   d="M39.93,91.57c0.15,0.01,0.37,0.03,0.64,0.08c0.27,0.06,0.6,0.14,0.95,0.3c0.17,0.07,0.34,0.15,0.51,0.26    c-0.34-0.15-0.7-0.24-1.07-0.25v0h-0.79v0c-0.02,0-0.04,0-0.05,0c-2.38,0-4.31,3.11-4.31,6.93c0,3.82,1.93,6.93,4.31,6.93    c0.02,0,0.04,0,0.05,0v0h0.79v0c0.38-0.01,0.74-0.1,1.09-0.26c-0.18,0.12-0.36,0.2-0.54,0.28c-0.35,0.16-0.68,0.24-0.95,0.3    c-0.27,0.05-0.49,0.08-0.64,0.09c-0.15,0.01-0.23,0-0.23,0s0.08,0.01,0.23,0.01c0.15,0,0.37,0,0.65-0.04    c0.28-0.04,0.62-0.11,0.99-0.24c0.19-0.07,0.38-0.14,0.58-0.25c0.1-0.05,0.2-0.1,0.3-0.16c0.1-0.07,0.19-0.14,0.29-0.21    c0.4-0.28,0.77-0.67,1.11-1.12c0.17-0.22,0.3-0.49,0.45-0.74c0.14-0.26,0.23-0.55,0.35-0.83c0.19-0.58,0.36-1.19,0.43-1.83    l0.07-0.48c0.02-0.16,0.02-0.32,0.03-0.48c0.02-0.32,0.03-0.64,0.05-0.96c-0.02-0.33-0.03-0.65-0.05-0.98    c-0.01-0.16-0.01-0.32-0.03-0.48l-0.07-0.48c-0.07-0.63-0.24-1.25-0.42-1.83c-0.12-0.28-0.21-0.57-0.35-0.83    c-0.15-0.25-0.28-0.51-0.45-0.74c-0.34-0.45-0.7-0.84-1.11-1.13c-0.1-0.07-0.2-0.14-0.29-0.21c-0.1-0.06-0.2-0.11-0.3-0.16    c-0.19-0.11-0.39-0.18-0.58-0.25c-0.37-0.14-0.71-0.2-0.99-0.24c-0.28-0.04-0.5-0.04-0.65-0.04c-0.15,0.01-0.23,0.02-0.23,0.02    S39.79,91.56,39.93,91.57z M44.73,96.95c0,0.02,0.01,0.04,0.01,0.06l0.06,0.46c0.02,0.16,0.01,0.31,0.02,0.47    c0.01,0.31,0.02,0.62,0.03,0.94c-0.01,0.32-0.02,0.64-0.04,0.96c-0.01,0.16,0,0.32-0.02,0.47l-0.06,0.46    c0,0.02-0.01,0.04-0.01,0.05c-0.42,2.24-1.56,3.96-2.97,4.46c1.57-1.04,2.67-3.52,2.67-6.41c0-2.89-1.11-5.38-2.68-6.41    C43.17,92.97,44.31,94.7,44.73,96.95z M36.17,98.89c0-3.62,1.77-6.57,3.95-6.57c2.18,0,3.95,2.95,3.95,6.57    c0,3.62-1.77,6.57-3.95,6.57C37.94,105.46,36.17,102.51,36.17,98.89z"
   id="XMLID_614_" />
		<path
   d="M46.72,89.44c0.02,0.39,0.04,0.82,0.1,1.29c0.05,0.47,0.07,0.99,0.11,1.53c0.04,0.54,0.06,1.12,0.09,1.71    c0.03,0.59,0.04,1.21,0.06,1.83c0.02,0.62,0.02,1.26,0.03,1.89c0.01,1.27-0.01,2.53-0.04,3.72c-0.03,1.19-0.08,2.3-0.13,3.24    c-0.03,0.47-0.05,0.91-0.05,1.3c-0.01,0.39-0.02,0.72-0.03,1c-0.02,0.55-0.04,0.87-0.04,0.87s0.04-0.32,0.1-0.87    c0.03-0.28,0.06-0.61,0.11-1c0.04-0.38,0.08-0.82,0.1-1.3c0.05-0.95,0.1-2.06,0.13-3.25c0.03-1.19,0.05-2.46,0.04-3.73    c-0.01-0.63-0.01-1.27-0.03-1.89c-0.02-0.62-0.03-1.24-0.06-1.83c-0.03-0.59-0.05-1.17-0.09-1.71c-0.04-0.54-0.06-1.06-0.11-1.53    c-0.04-0.48-0.09-0.91-0.14-1.29c-0.06-0.38-0.11-0.72-0.15-0.99c-0.09-0.55-0.14-0.86-0.14-0.86s0.03,0.32,0.07,0.87    C46.66,88.72,46.68,89.06,46.72,89.44z"
   id="XMLID_616_" />
	</g>
</g>
</svg>
