<svg version="1.1" viewBox="0 0 100 100" xmlns="http://www.w3.org/2000/svg" xmlns:xlink="http://www.w3.org/1999/xlink">
 <defs>
  <linearGradient id="innoGrad0">
   <stop stop-color="#faa" offset="0"/>
   <stop stop-color="#ffd5d5" offset="1"/>
  </linearGradient>
  <linearGradient id="innoGrad5">
   <stop stop-color="#fca" offset="0"/>
   <stop stop-color="#ffb380" offset="1"/>
  </linearGradient>
  <linearGradient id="linearGradient1169" x1="40.547" x2="44.926" y1="36.725" y2="14.944" gradientTransform="scale(-1.5412 1.5412) rotate(-9.621 -1.554 507.73)" gradientUnits="userSpaceOnUse" xlink:href="#innoGrad5"/>
  <linearGradient id="linearGradient889" x1="42.966" x2="52.139" y1="2.531" y2="14.348" gradientTransform="scale(-1.5412 1.5412) rotate(-9.621 -1.554 507.73)" gradientUnits="userSpaceOnUse" xlink:href="#innoGrad5"/>
  <linearGradient id="linearGradient993" x1="-439.68" x2="-371.84" y1="204.89" y2="161.64" gradientTransform="matrix(-.13112 0 0 .13112 -19.988 46.857)" gradientUnits="userSpaceOnUse" xlink:href="#innoGrad0"/>
  <linearGradient id="linearGradient1001" x1="-451.87" x2="-388.13" y1="153.65" y2="89.331" gradientTransform="matrix(-.13112 0 0 .13112 -19.988 46.857)" gradientUnits="userSpaceOnUse" xlink:href="#innoGrad0"/>
  <linearGradient id="linearGradient1009" x1="-478.56" x2="-443.69" y1="127.98" y2="32.476" gradientTransform="matrix(-.13112 0 0 .13112 -19.988 46.857)" gradientUnits="userSpaceOnUse" xlink:href="#innoGrad0"/>
  <linearGradient id="linearGradient1025" x1="-555.95" x2="-595.9" y1="129.41" y2="45.97" gradientTransform="matrix(-.13112 0 0 .13112 -19.988 46.857)" gradientUnits="userSpaceOnUse" xlink:href="#innoGrad0"/>
  <linearGradient id="linearGradient1033" x1="-470.92" x2="-408.88" y1="229.02" y2="259.1" gradientTransform="matrix(-.13112 0 0 .13112 -19.988 46.857)" gradientUnits="userSpaceOnUse" xlink:href="#innoGrad0"/>
  <linearGradient id="linearGradient1035" x1="-501.68" x2="-463.65" y1="252.36" y2="326.05" gradientTransform="matrix(-.13112 0 0 .13112 -19.988 46.857)" gradientUnits="userSpaceOnUse" xlink:href="#innoGrad0"/>
  <linearGradient id="linearGradient1037" x1="-531.49" x2="-528.3" y1="264.84" y2="330.48" gradientTransform="matrix(-.13112 0 0 .13112 -19.988 46.857)" gradientUnits="userSpaceOnUse" xlink:href="#innoGrad0"/>
  <linearGradient id="linearGradient1039" x1="-560.88" x2="-593.74" y1="234.27" y2="309.93" gradientTransform="matrix(-.13112 0 0 .13112 -19.988 46.857)" gradientUnits="userSpaceOnUse" xlink:href="#innoGrad0"/>
  <linearGradient id="linearGradient1041" x1="-571.97" x2="-662.57" y1="198.24" y2="196.83" gradientTransform="matrix(-.13112 0 0 .13112 -19.988 46.857)" gradientUnits="userSpaceOnUse" xlink:href="#innoGrad0"/>
  <linearGradient id="linearGradient1043" x1="-587.34" x2="-630.33" y1="157.46" y2="107.96" gradientTransform="matrix(-.13112 0 0 .13112 -19.988 46.857)" gradientUnits="userSpaceOnUse" xlink:href="#innoGrad0"/>
  <linearGradient id="linearGradient952" x1="-558.59" x2="-487.54" y1="137.03" y2="248.12" gradientTransform="matrix(-.13112 0 0 .13112 -19.988 46.857)" gradientUnits="userSpaceOnUse">
   <stop stop-color="#fff6d5" offset="0"/>
   <stop stop-color="#ffe680" offset="1"/>
  </linearGradient>
  <linearGradient id="linearGradient946" x1="-522.38" x2="-511.69" y1="117.83" y2="15.826" gradientTransform="matrix(-.13112 0 0 .13112 -19.988 46.857)" gradientUnits="userSpaceOnUse" xlink:href="#innoGrad0"/>
 </defs>
 <path d="M61.84 19.894c2.118 9.442 1.714 19.378-.599 28.73-1.385 5.636-3.316 11.104-5.54 16.465-1.513-1.477-3.79-2.14-5.448-2.091 3.353-8.46 6.563-16.662 7.402-25.81.507-5.254.193-10.86-1.194-16.29-.203-.654.776.013 1.161-.002 1.44-.089 2.869-.753 4.191-1.256z" fill="url(#linearGradient1169)"/>
 <path d="M58.924 2.23c4.266.73 7.674 4.547 7.62 9.29.005 3.276-1.862 6.497-4.73 8.12-2.437 1.469-5.548 1.667-8.182.559-3.873-1.485-6.427-5.8-5.83-9.912.485-4.452 4.592-8.264 9.093-8.23.675-.01 1.364.053 2.029.174z" fill="url(#linearGradient889)"/>
 <path d="m47.851 9.895a9.427 9.427 0 0 0 7.719 10.87 9.427 9.427 0 0 0 10.872-7.72 9.427 9.427 0 0 0-7.72-10.87 9.427 9.427 0 0 0-10.87 7.719zm13.962 9.745c3.743 16.518-0.131 30.812-6.114 45.449m-5.446-2.091c5.646-13.805 9.952-26.475 6.185-42.133" fill="none" stroke="#000" stroke-width=".145"/>
 <path d="M59.733 3.444c-1.654-.662-3.357-.335-3.357-.335s1.596.596 3.022 1.17c.494.2.98.445 1.459.748a29.432 29.432 0 0 1 3.124 2.347s-.8-1.935-2.643-3.109a9.848 9.848 0 0 0-1.605-.82z" fill="#fff"/>
 <g stroke="#000">
  <path d="M59.994 66.917L47.538 55.773l-12.456 12.98L47.8 85.536l10.49-4.982z" fill="url(#linearGradient952)" stroke-width=".162"/>
  <g fill="none" stroke-width="1.235">
   <path d="m55.625 77.01c-5.136-0.772-14.417-6.29-16.365-10.008m16.44 7.291c-5.274-2.423-10.355-5.263-15.374-9.9m16.194 7.441c-4.513-3.343-8.697-6.983-14.02-9.597m15.822 7.204c-3.402-3.448-8.71-6.892-13.374-8.588m8.228 18.947c-5.408-1.587-10.205-4.394-14.652-7.9m20.115-1.263c-5.22 3.824-8.7 7.675-11.944 11.737m11.496-14.451c-6.654 2.688-11.269 7.318-15.658 11.68m-2.236-3.403c3.813-4.132 7.427-8.273 16.206-10.877m-2.308-1.915c-6.38 1.374-11.024 4.754-15.754 9.972m0.115-3.775c3.617-4.533 7.733-7.275 13.235-8.077" stroke-width=".16193"/>
  </g>
  <g stroke-width=".162">
   <path d="M32.21 66.687c-1.15-.024-2.325.057-3.431.37-1.423.404-4.504 1.829-5.129 2.728-.213.306-.41.656-.093.85 2.608 1.6 2.974 2.415 4.611 3.398 1.06.636 2.123 1.42 3.346 1.601 2.581.382 5.13-.72 7.602-1.623.092-.877.97-2.047.371-2.642.257-2.43-.766-2.273-.51-3.662 0 0-4.487-.972-6.768-1.02z" fill="url(#linearGradient993)"/>
   <path d="M43.937 79.389l-3.06 2.735s-2.462 1.724-3.847 2.271c-2.2.871-4.467.543-6.582.557-.929.006-1.985.615-2.782.139-1.184-.992.255-2.156.255-2.156.219-.694-.56-.395-.576-.696-.07-1.384 1.198-2.311 2.148-3.319 1.388-1.47 3.297-2.815 5.09-3.752 1.84-.963 3.976-1.503 5.045-1.352 1.587.224 1.594 1.833 2.13 3.07 1.493.39 1.296 1.664 2.18 2.503z" fill="url(#linearGradient1033)"/>
   <path d="M36.428 58.806c-2.311-.574-4.703-1.15-6.908-.788-1.03.17-1.307.565-2.758.974-1.031.29-.77 1.482-.278 2.248 1.542 2.4 3.575 4.323 5.98 5.447 2.305 1.078 4.769 1.5 6.328 1.46 1.085-.028.22-1.383.811-1.784.304-.207.924-.999.765-1.437 1.617-.67.818-1.731 2.132-2.69-1.685-2.49-3.526-2.797-6.072-3.43z" fill="url(#linearGradient1001)"/>
   <path d="M42.664 62.597c-.429.105-.905.062-1.323-.082-1.568-.543-2.884-1.502-4.097-2.828-1.213-1.325-1.826-3.086-2.149-4.854-.287-1.577-.323-3.343-.234-4.58.098-1.369-.303-1.717.102-2.19.226-.264.603-.538.947-.59.808-.12 1.513.1 2.233.486 2.132 1.145 4.079 2.794 5.47 4.775 1.077 1.533 1.23 3.548 2.04 5.238.4.836.892 2.387.892 2.387-1.597.494-1.411 1.242-2.963 1.38-.135.286-.57.774-.918.858z" fill="url(#linearGradient1009)"/>
   <path d="M55.7 65.089c.36-2.188 2.23-4.116 4.893-4.74 3.235-.756 8.357 1.134 9.466 3.224.762 1.435-5.452 4.31-6.79 4.922-1.84.853-5.697 1.854-5.697 1.854.242-.898-1.124-1.686-1.226-2.514-.067-.535.2-1.24.2-1.24s-.285.134-.506-.041c-.315-.25-.406-1.069-.34-1.465z" fill="url(#linearGradient1043)"/>
   <path d="M57.752 61.959c.914-1.292 2.394-2.224 2.867-5.104.843-5.131 2.13-7.876.883-8.207-1.67-.443-3.965.524-5.465 1.381-3.873 2.213-5.275 4.719-5.595 8.53-.084 1.006-.3 2.07.278 2.898.274.393 1.098.64 1.098.64s.024.582.175.876c.304.59.913.724 1.448.933.672.262 2.132.37 2.132.37s1.566-1.452 2.179-2.317z" fill="url(#linearGradient1025)"/>
   <path d="m66.884 63.35c-4.494 2.545-7.644-1.496-10.337 3.244" fill="none"/>
   <path d="M46.626 60.892c.642.11 1.202.056 1.669-.185 1.551.557 1.638.235 2.41.325 1.262-3.936 2.242-6.413 1.097-10.265-.421-1.417-1.038-2.656-1.947-3.822-1.193-1.619-2.446-1.72-4.06-.584-.775.56-1.025 1.374-1.385 2.26-1.146 2.824-1.37 6.445-.205 8.947.623 1.295 1.87 3.23 2.421 3.324z" fill="url(#linearGradient946)"/>
   <path d="M51.818 62.098c3.785-6.787 4.97-7.158 7.216-11.677M48.295 60.707s-.827-1.216-.788-1.9c.036-.636.805-1.045.927-1.67.17-.87-.066-1.793-.324-2.642-.459-1.507-1.51-4.218-1.51-4.218M43.582 61.74s-1.972-1.932-2.194-3.258c-.228-1.36-.748-2.675-1.39-3.894-.455-.861-1.716-2.364-1.716-2.364M40.368 64.926s-1.342-1.01-2.086-1.391c-1.058-.542-2.19-.945-3.338-1.252-1.74-.465-5.33-.88-5.33-.88M39.487 71.37s-2.982-.345-4.45-.65c-1.332-.276-2.59-.907-3.94-1.066-1.566-.185-4.729.139-4.729.139M41.759 76.886s-1.347.982-2.133 1.205c-1.175.333-2.467-.115-3.662.139-1.14.242-2.216.751-3.245 1.298-1.847.981-4.798 3.407-4.798 3.407" fill="none"/>
   <path d="M43.937 79.389c-1.313.139-2.343 1.264-3.337 2.132-1.42 1.24-2.479 2.754-3.43 4.381-1.057 1.806-1.652 3.816-1.994 5.887-.192 1.162-.227 2.254.093 3.361.126.437.11 1.029.51 1.206 1.286.57 2.768-.686 3.986-1.391 1.593-.922 2.999-2.199 4.172-3.616.98-1.184 1.74-2.563 2.318-3.987.863-2.125 2.625-4.484 1.646-6.49-.337-.69-1.206-.856-2.11-.927-.42-.46-1.333-.611-1.854-.556z" fill="url(#linearGradient1035)"/>
   <path d="M45.792 79.945s-1.357 1.059-1.715 1.808c-.505 1.055.032 2.418-.464 3.477-.33.703-1.043 1.15-1.576 1.715-1.066 1.128-2.212 2.061-3.06 3.361-.855 1.312-1.947 4.334-1.947 4.334" fill="none"/>
   <path d="M49.7 81.581s-.91-.29-1.359-.199c-.638.13-1.28.497-1.669 1.02-1.878 2.53-2.14 7.485-1.002 9.794 1.694 3.44 1.498 4.352 2.852 5.303 1.6 1.122 3.1-2.55 4.294-4.905.919-1.811 1.083-2.318 1.23-3.356.148-1.038-.08-1.757-.188-2.71-.232-2.027-1.669-5.887-1.669-5.887s-1.437-.084-2.078.297c-.258.153-.411.643-.411.643z" fill="url(#linearGradient1037)"/>
   <path d="M49.7 81.581s-.026 1.067.109 1.576c.14.526.638.93.711 1.47.07.514-.085 1.049-.278 1.53-.324.807-.69 1.428-.88 2.277-.239 1.066-.146 2.055-.094 3.147.049 1.004-.139 3.013-.139 3.013" fill="none"/>
   <path d="M55.225 77.374s-1.018.34-1.342.53c-.788.46-1.347 1.353-1.65 2.213-.41 1.166-.592 2.216-.23 3.398.526 1.712 1.845 3.18 3.153 4.404 1.127 1.054 5.7 3.9 6.56 3.129.827-.744-.3-3.406-.395-4.567-.127-1.79.238-3.215-.185-4.96-.506-2.086-2.123-4.608-3.732-5.4-.403-.199-.897-.343-1.177-.26-.464.135-.97.403-1.138.844-.081.213.136.669.136.669z" fill="url(#linearGradient1039)"/>
   <path d="M55.225 77.374c2.43 2.291.983 5.183 1.646 7.763.288 1.118 1.623 3.06 1.623 3.06" fill="none"/>
   <path d="M59.374 69.33a7.653 7.653 0 0 1 4.126.278c1.561.564 2.777 2.118 4.056 3.175.818.675 2.16 1.092 2.295 1.924.13.805-.454 1.637-1.02 2.225-.852.887-2.115 1.309-3.291 1.669-1.31.4-2.712.59-4.08.51-1.16-.068-2.406-.207-3.384-.835-.66-.424-1.853-1.318-1.938-2.411-.112-1.45-.657-.886-.68-1.413-.024-.51.532-1.507.532-1.507s-.068-.611 0-.996c.117-.661 1.206-1.46 1.206-1.46s1.374-.987 2.178-1.16z" fill="url(#linearGradient1041)"/>
   <path d="M55.99 72.945s2.55.223 3.662.788c.85.432 1.29 1.458 2.133 1.901 1.685.885 3.35.847 5.238.649" fill="none"/>
  </g>
 </g>
</svg>
