<svg version="1.1" viewBox="0 0 64 64" xmlns="http://www.w3.org/2000/svg">
 <path d="m57.074 17.93c-9.3431 0.91786-6.6754-5.0992-9.4124-7.2081-4.3967-3.3878-3.5795-6.0711-4.6194-5.8463-9.9345 2.1475-5.7868 11.525-8.6658 12.153-1.9789 0.4318-3.6239-1.1998-5.8371-2.8956-1.6-1.226-3.2557-1.7761-4.5349-2.9788-1.1197-1.0527-1.7417-3.9881-2.3426-3.6573-1.8065 0.99442-3.5959 5.7841-3.5132 8.5287 0.19845 6.5872 5.2517 8.7687 7.4178 13.247 0.96881 2.0028-7.7175 12.743-11.97 12.911-3.2614 0.12901-6.2552-1.2848-6.7217-0.19101-2.0267 4.7515 3.8309 13.778 6.2378 13.47 2.4287-0.31057 4.5292-0.33014 6.1499 0.3211 5.3627 2.1548 7.5104 3.1903 11.975 3.3433 5.646 0.1934 9.0444-3.259 14.551-2.8171 10.537-4.2623 12.938-29.853 11.286-38.381z" fill="#ff8080" stroke="#000" stroke-linecap="round" stroke-linejoin="round" stroke-width=".5"/>
</svg>
