<svg xmlns="http://www.w3.org/2000/svg" xmlns:xlink="http://www.w3.org/1999/xlink" cursor="default" viewBox="0 0 256 256">
    <defs>
        <linearGradient id="linearGradient2264">
            <stop offset="0" stop-color="#ff2a2a"/>
            <stop offset="1" stop-color="#ff8080"/>
        </linearGradient>
        <linearGradient id="linearGradient2248">
            <stop offset="0" stop-color="#f55"/>
            <stop offset="1" stop-color="#ff8080"/>
        </linearGradient>
        <linearGradient id="linearGradient2232">
            <stop offset="0" stop-color="#ff2a2a"/>
            <stop offset="1" stop-color="#f55"/>
        </linearGradient>
        <linearGradient id="linearGradient2234" x1="-134.098" x2="-126.774" y1="1025.467" y2="1028.876" gradientTransform="translate(236.429 -15.714)" gradientUnits="userSpaceOnUse" xlink:href="#linearGradient2232"/>
        <linearGradient id="linearGradient2242" x1="-85.863" x2="-92.934" y1="1034.937" y2="1038.725" gradientTransform="translate(236.429 -15.714)" gradientUnits="userSpaceOnUse" xlink:href="#linearGradient2232"/>
        <linearGradient id="linearGradient2266" x1="-111.622" x2="-110.359" y1="915.108" y2="818.512" gradientTransform="translate(236.429 -15.714)" gradientUnits="userSpaceOnUse" xlink:href="#linearGradient2264"/>
        <radialGradient id="radialGradient2268" cx="-79.929" cy="994.441" r="33.146" fx="-79.929" fy="994.441" gradientTransform="matrix(-.81173 .29041 -1.26672 -3.54058 1319.608 4432.502)" gradientUnits="userSpaceOnUse" xlink:href="#linearGradient2248"/>
        <radialGradient id="radialGradient2270" cx="-98.27" cy="927.456" r="33.646" fx="-98.27" fy="927.456" gradientTransform="matrix(.8233 .3084 -.64806 1.73009 818.34 -711.537)" gradientUnits="userSpaceOnUse" xlink:href="#linearGradient2248"/>
    </defs>
    <g stroke="#000" transform="translate(0 -796.362)">
        <path fill="url(#linearGradient2242)" fill-rule="evenodd" stroke-width=".75" d="M169.643 1041.737c-7.957-1.972-17.62-7.172-26.607-13.303-2.072-1.414-19.114-71.965-18.036-96.429z"/>
        <path fill="url(#linearGradient2266)" fill-rule="evenodd" stroke-width=".75" d="M111.16 811.47c5.956-8.406 26.24-5.106 28.441-1.776 16.58 36.98 3.63 71.766-13.708 106.418-24.676-35.943-20.824-70.353-14.732-104.643z"/>
        <path fill="none" stroke-width=".75" d="M105.993 824.074c6.57-6.652 38.537-5.67 40.153-.19"/>
        <path fill="url(#linearGradient2234)" fill-rule="evenodd" stroke-width=".75" d="M80.223 1042.184c10.194-1.798 17.231-8.105 28.31-12.084 1.69-.607 15.515-64.821 17.538-95.774-40.228 5-29.91 72.322-45.848 107.858z"/>
        <path fill="url(#radialGradient2268)" fill-rule="evenodd" stroke-width=".75" d="M128.216 921.996c-2.61 10.227-17.86 115.274-48.361 120.46 3.641-71.597 8.327-94.822 8.839-123.933.184-10.49-5.304-31.756-5.304-31.756-2.668 36.195-2.062 65.84-.73 94.033-6.546 3.983-12.726 2.955-19.978 1.3-.058-49.34 2.762-98.015 7.071-146.346.252-2.822 1.918-5.478 3.915-5.304l30.776-9.576c-5.393 37.085 18.39 67.703 23.772 101.122z"/>
        <path fill="#ff8080" fill-rule="evenodd" stroke-width=".75" d="M111.17 811.51c-3.624 34.632 6.43 66.024 15.152 97.732-15.118-19.712-32.24-36.787-38.765-67.806 2.861.837 5.587 1.133 8.334 1.515-1.842-1.14-3.99-2.177-5.177-3.535 4.953-9.53 12.12-19.01 20.456-27.906z"/>
        <path fill="url(#radialGradient2270)" fill-rule="evenodd" stroke-width=".75" d="M145.136 818.96c9.986 4.691 19.972 9.384 30.191 12.797 1.155.154 3.91.842 4.333 2.215 4.409 14.325 9.181 30.29 8.934 44.688-.67 39.035-3.753 64.871-1.915 104.576-7.675 1.91-15 .293-20.777-2.538-.222-27.195 2.803-52.898 1.457-81.052-.29-6.07-2.336-9.155-2.336-9.155-3.091 5.026-5.758 16.069-4.987 26.959 2.95 41.697 9.975 125.006 9.975 125.006-37.913-10.497-46.183-105.233-47.878-124.227-1.477-16.556 19.888-20.267 23.003-99.269z"/>
        <path fill="none" stroke-width=".75" d="M73.75 830.666c5.475 16.697 9.612 34.733 9.732 56.785M175.446 832.184c-6.981 16.997-7.542 38.581-10.206 58.663"/>
        <path fill="#ff8080" fill-rule="evenodd" stroke-width=".75" d="M139.201 809.111c6.9 9.278 14.336 17.251 19.677 30.314-.817 1.277-2.88 2.158-6.04 3.4 2.6 1.368 6.352.428 9.85 0-4.851 15.107-15.573 42.864-38.57 65.106 12.776-39.668 24.265-81.337 15.083-98.82z"/>
        <ellipse cx="80.891" cy="977.669" fill="#666" stroke-linecap="round" stroke-linejoin="round" stroke-width=".5" paint-order="stroke fill markers" rx=".543" ry="1.059"/>
        <ellipse cx="80.726" cy="974.836" fill="#666" stroke-linecap="round" stroke-linejoin="round" stroke-width=".5" paint-order="stroke fill markers" rx=".543" ry="1.059"/>
        <ellipse cx="80.573" cy="971.993" fill="#666" stroke-linecap="round" stroke-linejoin="round" stroke-width=".5" paint-order="stroke fill markers" rx=".543" ry="1.059"/>
        <ellipse cx="80.409" cy="969.16" fill="#666" stroke-linecap="round" stroke-linejoin="round" stroke-width=".5" paint-order="stroke fill markers" rx=".543" ry="1.059"/>
        <ellipse cx="-111.653" cy="985.952" fill="#666" stroke-linecap="round" stroke-linejoin="round" stroke-width=".5" paint-order="stroke fill markers" rx=".543" ry="1.059" transform="scale(-1 1) rotate(3.253)"/>
        <ellipse cx="-111.817" cy="983.119" fill="#666" stroke-linecap="round" stroke-linejoin="round" stroke-width=".5" paint-order="stroke fill markers" rx=".543" ry="1.059" transform="scale(-1 1) rotate(3.253)"/>
        <ellipse cx="-111.971" cy="980.276" fill="#666" stroke-linecap="round" stroke-linejoin="round" stroke-width=".5" paint-order="stroke fill markers" rx=".543" ry="1.059" transform="scale(-1 1) rotate(3.253)"/>
        <ellipse cx="-112.135" cy="977.443" fill="#666" stroke-linecap="round" stroke-linejoin="round" stroke-width=".5" paint-order="stroke fill markers" rx=".543" ry="1.059" transform="scale(-1 1) rotate(3.253)"/>
        <path fill="#ff2a2a" fill-rule="evenodd" stroke-width=".259" d="M124.512 915.561c-.249.056-1.474.47-1.474.47l1.513.489z"/>
        <ellipse cx="126.6" cy="915.871" fill="#666" stroke-linecap="round" stroke-linejoin="bevel" stroke-width="1.106" paint-order="stroke fill markers" rx="2.336" ry="2.308"/>
        <ellipse cx="126.6" cy="915.871" fill="#333" stroke-linecap="round" stroke-linejoin="bevel" stroke-width=".566" paint-order="stroke fill markers" rx="1.196" ry="1.182"/>
    </g>
</svg>
