<?xml version="1.0" encoding="UTF-8" standalone="no"?>
<!-- Created with Inkscape (http://www.inkscape.org/) -->

<svg
   xmlns:dc="http://purl.org/dc/elements/1.1/"
   xmlns:cc="http://creativecommons.org/ns#"
   xmlns:rdf="http://www.w3.org/1999/02/22-rdf-syntax-ns#"
   xmlns:svg="http://www.w3.org/2000/svg"
   xmlns="http://www.w3.org/2000/svg"
   xmlns:sodipodi="http://sodipodi.sourceforge.net/DTD/sodipodi-0.dtd"
   xmlns:inkscape="http://www.inkscape.org/namespaces/inkscape"
   width="100%"
   height="100%"
   viewBox="0 0 64.000001 64.000001"
   id="svg4311"
   version="1.1"
   inkscape:version="0.91 r13725"
   sodipodi:docname="responseSubResist.svg">
  <defs
     id="defs4313">
    <inkscape:path-effect
       effect="powerstroke"
       id="path-effect4154"
       is_visible="true"
       offset_points="0.54375131,-1.3033972"
       sort_points="true"
       interpolator_type="Linear"
       interpolator_beta="0.2"
       start_linecap_type="zerowidth"
       linejoin_type="round"
       miter_limit="4"
       end_linecap_type="zerowidth"
       cusp_linecap_type="round" />
    <inkscape:path-effect
       effect="powerstroke"
       id="path-effect4154-1"
       is_visible="true"
       offset_points="0.54375131,-0.29817548"
       sort_points="true"
       interpolator_type="Linear"
       interpolator_beta="0.2"
       start_linecap_type="zerowidth"
       linejoin_type="round"
       miter_limit="4"
       end_linecap_type="zerowidth"
       cusp_linecap_type="round" />
    <inkscape:path-effect
       effect="powerstroke"
       id="path-effect4154-1-5"
       is_visible="true"
       offset_points="0.54375131,-1.3033972"
       sort_points="true"
       interpolator_type="Linear"
       interpolator_beta="0.2"
       start_linecap_type="zerowidth"
       linejoin_type="round"
       miter_limit="4"
       end_linecap_type="zerowidth"
       cusp_linecap_type="round" />
    <inkscape:path-effect
       effect="powerstroke"
       id="path-effect4154-1-0"
       is_visible="true"
       offset_points="0.54375131,-0.29817548"
       sort_points="true"
       interpolator_type="Linear"
       interpolator_beta="0.2"
       start_linecap_type="zerowidth"
       linejoin_type="round"
       miter_limit="4"
       end_linecap_type="zerowidth"
       cusp_linecap_type="round" />
  </defs>
  <sodipodi:namedview
     id="base"
     pagecolor="#ffffff"
     bordercolor="#666666"
     borderopacity="1.0"
     inkscape:pageopacity="0.0"
     inkscape:pageshadow="2"
     inkscape:zoom="2.0000001"
     inkscape:cx="-92.507898"
     inkscape:cy="73.937343"
     inkscape:document-units="px"
     inkscape:current-layer="layer1"
     showgrid="false"
     units="px"
     inkscape:window-width="2560"
     inkscape:window-height="1388"
     inkscape:window-x="-8"
     inkscape:window-y="-8"
     inkscape:window-maximized="1" />
  <metadata
     id="metadata4316">
    <rdf:RDF>
      <cc:Work
         rdf:about="">
        <dc:format>image/svg+xml</dc:format>
        <dc:type
           rdf:resource="http://purl.org/dc/dcmitype/StillImage" />
        <dc:title />
      </cc:Work>
    </rdf:RDF>
  </metadata>
  <g
     inkscape:label="Layer 1"
     inkscape:groupmode="layer"
     id="layer1"
     transform="translate(0,-988.36216)"
     style="display:inline">
    <path
       inkscape:connector-curvature="0"
       style="display:inline;fill:#333333;fill-opacity:1;stroke:#000000;stroke-width:0.81028736;stroke-linecap:butt;stroke-linejoin:round;stroke-miterlimit:4;stroke-dasharray:none;stroke-dashoffset:0;stroke-opacity:1"
       d="m 9.128012,1005.6787 a 23.247177,23.293991 84.260036 0 0 -6.4685833,18.5205 23.247177,23.293991 84.260036 0 0 25.5030043,20.8032 23.247177,23.293991 84.260036 0 0 20.852993,-25.463 23.247177,23.293991 84.260036 0 0 -25.503037,-20.80117 23.247177,23.293991 84.260036 0 0 -14.384377,6.94047 z m 3.556975,2.6791 a 18.840414,18.878352 84.260036 0 1 11.268029,-5.2343 18.840414,18.878352 84.260036 0 1 20.665016,16.8573 18.840414,18.878352 84.260036 0 1 -16.896226,20.6366 18.840414,18.878352 84.260036 0 1 -20.6694592,-16.8599 18.840414,18.878352 84.260036 0 1 5.6326402,-15.3997 z"
       id="path4172-4" />
    <path
       style="display:inline;fill:#ff7adb;fill-opacity:1;fill-rule:evenodd;stroke:#000000;stroke-width:0.88964683;stroke-linecap:butt;stroke-linejoin:miter;stroke-miterlimit:4;stroke-dasharray:none;stroke-opacity:1"
       d="m 6.9812242,1015.857 c -0.018022,-13.3398 14.9450978,-14.1386 18.3126688,-6.2323 2.752904,-8.0578 18.352796,-8.258 18.309504,6.3894 -0.03107,10.519 -15.141351,15.4896 -18.160157,24.0368 -3.437293,-8.6894 -18.4472406,-13.2671 -18.4620158,-24.1939 z"
       id="path4859-9"
       inkscape:connector-curvature="0"
       sodipodi:nodetypes="scscs" />
    <path
       sodipodi:nodetypes="ccccc"
       inkscape:connector-curvature="0"
       id="path4157"
       d="m 8.0367762,1006.6345 29.1916748,30.2185 3.682155,-3.606 -29.338413,-30.2408 z"
       style="display:inline;fill:#ffaaee;fill-rule:evenodd;stroke:#000000;stroke-width:0.9948203;stroke-linecap:butt;stroke-linejoin:miter;stroke-miterlimit:4;stroke-dasharray:none;stroke-opacity:1" />
    <g
       id="g4160"
       transform="matrix(2.8531167,0,0,2.8531167,-6.2412843,-1950.684)">
      <path
         id="path4172"
         d="m 5.0148912,1035.6386 a 8.1479939,8.1644016 84.260036 0 0 -2.2671989,6.4913 8.1479939,8.1644016 84.260036 0 0 8.9386477,7.2914 8.1479939,8.1644016 84.260036 0 0 7.308847,-8.9246 8.1479939,8.1644016 84.260036 0 0 -8.938659,-7.2907 8.1479939,8.1644016 84.260036 0 0 -5.0416368,2.4326 z m 1.2466985,0.939 a 6.6034503,6.6167473 84.260036 0 1 3.9493753,-1.8346 6.6034503,6.6167473 84.260036 0 1 7.242962,5.9084 6.6034503,6.6167473 84.260036 0 1 -5.922024,7.233 6.6034503,6.6167473 84.260036 0 1 -7.2445192,-5.9093 6.6034503,6.6167473 84.260036 0 1 1.9742059,-5.3975 z"
         style="display:inline;fill:#ff0066;fill-opacity:1;stroke:#000000;stroke-width:0.28400078;stroke-linecap:butt;stroke-linejoin:round;stroke-miterlimit:4;stroke-dasharray:none;stroke-dashoffset:0;stroke-opacity:1"
         inkscape:connector-curvature="0" />
      <path
         sodipodi:nodetypes="ccccc"
         inkscape:connector-curvature="0"
         id="path4207"
         d="m 5.0613873,1036.4532 10.2485257,10.6009 1.157221,-1.1332 -10.2976744,-10.6112 z"
         style="display:inline;fill:#ff0066;fill-rule:evenodd;stroke:none;stroke-width:0.5;stroke-linecap:butt;stroke-linejoin:miter;stroke-miterlimit:4;stroke-dasharray:none;stroke-opacity:1" />
    </g>
  </g>
</svg>
