<svg xmlns="http://www.w3.org/2000/svg" xmlns:xlink="http://www.w3.org/1999/xlink" viewBox="0 0 64 64">
    <defs>
        <linearGradient id="linearGradient4228">
            <stop offset="0" stop-color="#f7f7ef"/>
            <stop offset=".812" stop-color="#faf7ef"/>
            <stop offset="1" stop-color="#efe7c1"/>
        </linearGradient>
        <radialGradient id="radialGradient4236" cx="109.704" cy="-5.149" r="38.243" fx="109.704" fy="-5.149" gradientTransform="matrix(.00232 .95713 -1.25581 .00305 102.983 -99.142)" gradientUnits="userSpaceOnUse" xlink:href="#linearGradient4228"/>
    </defs>
    <g fill-rule="evenodd">
        <path fill="#ff24d3" stroke="#000" stroke-width=".5" d="M3.5 26.91C-6.09 12.282 14.97 4.124 22.75 15.555c-2.266-13.72 17.362-21.4 21.043-3.733 2.825 13.553-11.682 18.79-8.89 39.474C24.228 33.745 10.968 38.306 3.498 26.91z" transform="matrix(.61194 0 0 .60087 1.04 .567)"/>
        <path fill="#fff" fill-opacity=".785" d="M26.845 11.2c-.057-4.852-4.153-9.467-10.44-4.599 4.484-7.31 12.228-2.2 10.44 4.599z"/>
        <path fill="#d42aff" stroke="#000" stroke-width=".5" d="M39.628 34.133c1.611-9.538 13.085-4.499 11.941 3.067 4.206-6.307 14.927-1.641 9.818 6.78-3.92 6.46-11.68 2.837-18.271 12.101 2.266-11.118-4.743-14.518-3.488-21.948z" transform="matrix(.61194 0 0 .60087 1.04 .567)"/>
        <path fill="#fff" fill-opacity=".785" d="M37.787 26.863c.865-2.992-.415-4.401-3.17-4.617 2.86-.98 5.51 1.169 3.17 4.617z"/>
        <path fill="#f06" stroke="#000" stroke-width=".5" d="M8.742 53.196c-5.2-6.022 4.134-10.217 8.331-5.521-1.76-5.862 6.935-9.805 9.556-2.282 2.01 5.772-4.44 8.496-2.075 17.353-5.854-7.252-11.761-4.86-15.812-9.55z" transform="matrix(.61194 0 0 .60087 1.04 .567)"/>
        <path fill="#fff" fill-opacity=".785" d="M16.475 29.06c-.532-2.35-2.028-2.753-4.145-1.743 1.726-1.848 4.523-1.529 4.145 1.743z"/>
    </g>
    <path fill="#c1c4c5" fill-rule="evenodd" stroke="#000" stroke-width=".4783" d="M25.158 47.64l1.196 5.594c9.843 10.593 27.185 3.475 30.918-.982l1.367-5.424z"/>
    <path fill="url(#radialGradient4236)" fill-rule="evenodd" stroke="#000" d="M76.518 33.91c-1.25 3.505 6.014 9.007 11.34 7.59 10.9 3.898 17.863 5.11 18.303 1.875 4.897-1.188 14.199 4.794 24.821-2.768 4.623-2.763 12.604-.399 13.214-9.286 3.676-1.894 6.23-4.537 2.143-11.607 2.835-1.207-2.97-4.141-6.875-6.696-.674-1.632 2.496-2.783-10.714-5.982 1.268-2.023-5.64-3.417-10.09-5-3.777-2.69-18.033-2.655-17.142-.09-4.61 1.691-14.492 2.855-12.768 5.179-4.468 2.198-12.67 4.156-10.446 6.786-3.98 3.672-4.615 7.537-4.733 11.428-1.608 5.04.054 7.324 2.947 8.572z" transform="matrix(.4783 0 0 .4783 -11.74 33.683)"/>
    <path fill-rule="evenodd" d="M25.525 40.49a3.522 3.522 0 0 0 1.63.634c-.398-.197-.918-.523-1.307-.988zM30.611 37.363c.583.395 1.008.398 1.369.398-.355-.165-.652-.306-1.057-.76zM24.672 50.078c.821.227 1.287.038 1.767-.148-.547.036-.94.037-1.596-.299zM58.324 42.843c-.674.27-1.474.492-2.13.693.674-.043 1.521-.11 2.258-.232zM39.082 54.2c-.216.028-.49.075-.796.072-.29-.003-.595-.05-.796-.231.15.243.448.381.762.468.24.066.699.137.804.168zM57.27 48.426a6.213 6.213 0 0 1-.817.184 9.315 9.315 0 0 1-.459.068c-.13.016-.246.025-.305.02.05.043.164.076.302.1.138.024.305.04.474.05.337.023.69.03.85.054zM30.318 53.551l.136-.196c-.425-.201-1.111-.43-1.47-.745.252.44.903.83 1.198 1.138l.136-.197z"/>
    <path fill="none" stroke="#000" stroke-width=".23915" d="M40.29 50.162c.453.906 2.074 1.188 4.862.846 1.972.392 2.98-.242 3.14-1.782 2.69.27 3.75.077 3.624-.453M26.505 45.451c-.223.695.142 1.228 1.24 1.883.23 1.799 2.928 2.796 4.528 2.526M31.292 40.167c-.194 1.75-.279 3.434 2.053 3.684.808.906 1.813 1.518 3.895.513M45.514 44.062c1.689.612 3.473 1.445 4.228-.12 1.86-.217 2.355-.872 1.963-1.812M36.335 39.08c-.417.742 2.692 1.803 3.17 1.178M45.303 40.318c3.716.106 3.235-.552 3.594-1.057M28.951 55.326l-.015-1.721M33.103 54.42l-.18 3.05M50.104 53.665c.03.12.121 2.96.121 2.96M51.524 52.76c0 .15-.06 3.2-.06 3.2M55.63 51.581l.06 2.024M44.88 54.933l-.03 3.171M30.537 53.665l-.121 2.688M38.509 55.235l-.181 3.413"/>
</svg>
