<svg version="1.1" viewBox="0 0 64 64" xmlns="http://www.w3.org/2000/svg" xmlns:xlink="http://www.w3.org/1999/xlink">
 <g fill="none" stroke-linecap="round">
  <path d="m26.804 20.087 5.1336-16.8 5.3031 16.734-13.703-10.262 16.956 0.031797z" stroke="#000" stroke-width="2.4085"/>
  <path d="m26.804 20.087 5.1336-16.8 5.323 16.713-13.724-10.242 16.956 0.031797z" stroke="#ff8080" stroke-width="1.742"/>
  <path d="m47.143 34.731 5.1336-16.8 5.3031 16.734-13.703-10.262 16.956 0.0318z" stroke="#000" stroke-width="2.4085"/>
  <path d="m47.143 34.731 5.1336-16.8 5.323 16.713-13.724-10.242 16.956 0.0318z" stroke="#ff8080" stroke-width="1.742"/>
  <path d="m39.686 58.596 5.1336-16.8 5.3031 16.734-13.703-10.262 16.956 0.0318z" stroke="#000" stroke-width="2.4085"/>
  <path d="m39.686 58.596 5.1336-16.8 5.323 16.713-13.724-10.242 16.956 0.0318z" stroke="#ff8080" stroke-width="1.742"/>
  <path d="m14.736 58.596 5.1336-16.8 5.3031 16.734-13.703-10.262 16.956 0.0318z" stroke="#000" stroke-width="2.4085"/>
  <path d="m14.736 58.596 5.1336-16.8 5.323 16.713-13.724-10.242 16.956 0.0318z" stroke="#ff8080" stroke-width="1.742"/>
  <path d="m6.3296 35.138 5.1336-16.8 5.3031 16.734-13.703-10.262 16.956 0.0318z" stroke="#000" stroke-width="2.4085"/>
  <path d="m6.3296 35.138 5.1336-16.8 5.323 16.713-13.724-10.242 16.956 0.0318z" stroke="#ffb380" stroke-width="1.742"/>
 </g>
</svg>
