<svg version="1.1" viewBox="0 0 64 64" xmlns="http://www.w3.org/2000/svg">
 <g transform="matrix(1.1 0 0 1.1 -3.2092 -1.2218)" fill-rule="evenodd">
  <path d="m23.053 8.9933c-0.0298-5.9971 7.7031-6.6663 9.0392-1.3246 1.3361-5.3417 9.069-4.6725 9.0392 1.3246-0.0225 4.5279-6.795 9.1126-9.0392 11.327-2.2442-2.2147-9.0167-6.7994-9.0392-11.327z" fill="#ff8080" stroke="#000" stroke-width=".34212"/>
  <path d="m39.103 11.6c0.5633-4.2466-1.3135-5.9246-4.8493-5.6907 3.4545-1.8858 7.2043 0.53754 4.8493 5.6907z" fill="#ffd5d5" stroke-width=".68423"/>
 </g>
 <g transform="matrix(1.1 0 0 1.1 -5.2065 -2.7304)" fill-rule="evenodd">
  <path d="m43.026 24.079c-0.0298-5.9971 7.7031-6.6663 9.0392-1.3246 1.3361-5.3417 9.069-4.6725 9.0392 1.3246-0.0225 4.5279-6.795 9.1126-9.0392 11.327-2.2442-2.2147-9.0167-6.7994-9.0392-11.327z" fill="#ffb380" stroke="#000" stroke-width=".34212"/>
  <path d="m59.075 26.685c0.5633-4.2466-1.3135-5.9246-4.8493-5.6907 3.4545-1.8858 7.2043 0.53754 4.8493 5.6907z" fill="#ffe6d5" stroke-width=".68423"/>
 </g>
 <g transform="matrix(1.1 0 0 1.1 -1.1116 -2.8015)" fill-rule="evenodd">
  <path d="m2.0765 24.79c-0.0298-5.9971 7.7031-6.6663 9.0392-1.3246 1.3361-5.3417 9.069-4.6725 9.0392 1.3246-0.0225 4.5279-6.795 9.1126-9.0392 11.327-2.2442-2.2147-9.0167-6.7994-9.0392-11.327z" fill="#ffb380" stroke="#000" stroke-width=".34212"/>
  <path d="m18.126 27.396c0.5633-4.2466-1.3135-5.9246-4.8493-5.6907 3.4545-1.8858 7.2043 0.53754 4.8493 5.6907z" fill="#ffe6d5" stroke-width=".68423"/>
 </g>
 <g transform="matrix(1.1 0 0 1.1 -1.9321 -5.1609)" fill-rule="evenodd">
  <path d="m10.282 48.384c-0.0298-5.9971 7.7031-6.6663 9.0392-1.3246 1.3361-5.3417 9.069-4.6725 9.0392 1.3246-0.0225 4.5279-6.795 9.1126-9.0392 11.327-2.2442-2.2147-9.0167-6.7994-9.0392-11.327z" fill="#ffb380" stroke="#000" stroke-width=".34212"/>
  <path d="m26.332 50.99c0.5633-4.2466-1.3135-5.9246-4.8493-5.6907 3.4545-1.8858 7.2043 0.53754 4.8493 5.6907z" fill="#ffe6d5" stroke-width=".68423"/>
 </g>
 <g transform="matrix(1.1 0 0 1.1 -4.4702 -5.148)" fill-rule="evenodd">
  <path d="m35.663 48.255c-0.0298-5.9971 7.7031-6.6663 9.0392-1.3246 1.3361-5.3417 9.069-4.6725 9.0392 1.3246-0.0225 4.5279-6.795 9.1126-9.0392 11.327-2.2442-2.2147-9.0167-6.7994-9.0392-11.327z" fill="#ffb380" stroke="#000" stroke-width=".34212"/>
  <path d="m51.713 50.862c0.5633-4.2466-1.3135-5.9246-4.8493-5.6907 3.4545-1.8858 7.2043 0.53754 4.8493 5.6907z" fill="#ffe6d5" stroke-width=".68423"/>
 </g>
</svg>
