<svg version="1.1" viewBox="0 0 64 64" xmlns="http://www.w3.org/2000/svg" xmlns:xlink="http://www.w3.org/1999/xlink">
 <defs>
  <linearGradient id="innoGrad1">
   <stop stop-color="#ffe6d5" stop-opacity=".23832" offset="0"/>
   <stop stop-color="#ffe6d5" stop-opacity=".28505" offset=".62903"/>
   <stop stop-color="#ffb380" offset=".79839"/>
   <stop stop-color="#ffe6d5" stop-opacity="0" offset="1"/>
  </linearGradient>
  <radialGradient id="radialGradient846" cx="55.322" cy="45.017" r="8.4068" gradientTransform="matrix(.86314 0 0 .83561 4.0238 3.0859)" gradientUnits="userSpaceOnUse" xlink:href="#innoGrad1"/>
  <radialGradient id="radialGradient846-6" cx="55.322" cy="45.017" r="8.4068" gradientTransform="matrix(.57802 0 0 .56759 26.701 25.937)" gradientUnits="userSpaceOnUse" xlink:href="#innoGrad1"/>
  <radialGradient id="radialGradient846-6-2" cx="55.322" cy="45.017" r="8.4068" gradientTransform="matrix(.40694 0 0 .37941 29.837 40.928)" gradientUnits="userSpaceOnUse" xlink:href="#innoGrad1"/>
  <radialGradient id="radialGradient846-6-2-0" cx="55.322" cy="45.017" r="8.4068" gradientTransform="matrix(.39314 0 0 .37941 -34.876 42.246)" gradientUnits="userSpaceOnUse" xlink:href="#innoGrad1"/>
  <radialGradient id="radialGradient846-6-7" cx="55.322" cy="45.017" r="8.4068" gradientTransform="matrix(.55842 0 0 .56759 -37.81 -7.2619)" gradientUnits="userSpaceOnUse" xlink:href="#innoGrad1"/>
  <radialGradient id="radialGradient846-1" cx="55.322" cy="45.017" r="8.4068" gradientTransform="matrix(.83387 0 0 .83561 -59.718 -30.113)" gradientUnits="userSpaceOnUse" xlink:href="#innoGrad1"/>
  <radialGradient id="radialGradient846-0" cx="55.322" cy="45.017" r="8.4068" gradientTransform="matrix(.86314 0 0 .83561 -39.409 12.098)" gradientUnits="userSpaceOnUse" xlink:href="#innoGrad1"/>
 </defs>
 <g fill-rule="evenodd" stroke="#000">
  <path d="m30.788 42.799-0.04545 5.8019-5.2474 0.01185-0.01675 7.0356 5.2718 0.02291 0.04405 5.467 7.7674 0.0606-0.04476-5.5498 5.2725 0.02842 0.02081-6.8825-5.2817-0.05631 0.02126-5.9161z" fill="#fea" stroke-width=".49757"/>
  <path d="m16.987 20.871-0.05566 7.1054-6.4263 0.01451-0.02052 8.6163 6.4563 0.02807 0.05395 6.6952 9.5124 0.07421-0.05482-6.7966 6.4571 0.03482 0.02548-8.4288-6.4683-0.06895 0.02604-7.2452z" fill="#ffe680" stroke-width=".60935"/>
  <g stroke-width=".75">
   <path d="m35.429 0.55494-0.06852 8.7454-7.9096 0.017867-0.02525 10.605 7.9465 0.03455 0.0664 8.2406 11.708 0.09135-0.06748-8.3654 7.9475 0.04287 0.03136-10.374-7.9613-0.08487 0.03204-8.9175z" fill="#fd5"/>
   <path d="m37.576 2.9824-0.05663 8.2922-8.1617-0.04126-0.0769 6.5793 8.1922 0.02855-0.0012 8.2672 7.3228 0.01946 0.05629-8.3143 7.9129 0.03543-0.03012-6.4446-7.8683-0.07014 0.02648-8.3784z" fill="#ff8080"/>
   <path d="m18.771 23.107-0.04587 6.7167-6.611-0.03342-0.06229 5.3292 6.6357 0.02312-9.8e-4 6.6964 5.9315 0.01576 0.04559-6.7346 6.4095 0.0287-0.0244-5.2201-6.3733-0.0568 0.02144-6.7865z" fill="#faa"/>
   <path d="m32.274 44.503-0.03716 5.4405-5.3549-0.02707-0.05046 4.3167 5.3749 0.01873-7.94e-4 5.4241 4.8045 0.01277 0.03693-5.455 5.1917 0.02324-0.01976-4.2283-5.1624-0.04601 0.01737-5.4971z" fill="#ffd5d5"/>
  </g>
 </g>
 <g>
  <ellipse cx="51.775" cy="40.702" rx="7.2562" ry="7.0248" fill="url(#radialGradient846)"/>
  <ellipse cx="58.678" cy="51.488" rx="4.8593" ry="4.7716" fill="url(#radialGradient846-6)"/>
  <ellipse cx="52.35" cy="58.008" rx="3.4211" ry="3.1896" fill="url(#radialGradient846-6-2)"/>
 </g>
 <ellipse transform="scale(-1,1)" cx="-13.586" cy="7.5038" rx="7.0102" ry="7.0248" fill="url(#radialGradient846-1)"/>
 <g>
  <ellipse transform="scale(-1,1)" cx="-6.9171" cy="18.289" rx="4.6945" ry="4.7716" fill="url(#radialGradient846-6-7)"/>
  <ellipse transform="scale(-1,1)" cx="-13.126" cy="59.325" rx="3.3051" ry="3.1896" fill="url(#radialGradient846-6-2-0)"/>
  <ellipse cx="8.3415" cy="49.714" rx="7.2562" ry="7.0248" fill="url(#radialGradient846-0)"/>
 </g>
 <g fill="#fff">
  <path d="m52.59 36.77c0.31901 0.0884 0.77097 0.32086 1.1279 0.6284 0.36829 0.31732 0.51626 0.59152 0.65475 0.76257 4.67e-4 5.78e-4 9.34e-4 0.0012 0.0014 0.0017 0.15752 0.19356 0.35902 0.3515 0.63638 0.79719 0.24653 0.39615 0.44093 0.87213 0.50387 1.1659-0.08272-0.38602-0.12113-0.89926-0.20385-1.2853-0.10752-0.49961-0.26972-0.8802-0.43624-1.0848-5.81e-4 -7.14e-4 -0.0012-0.0014-0.0018-0.0021-0.16594-0.20244-0.51194-0.44852-0.99143-0.63268-0.45862-0.17614-1.0037-0.27121-1.291-0.35084z"/>
  <path d="m59.469 48.755c0.20452 0.06459 0.48938 0.22963 0.712 0.4482 0.22924 0.22506 0.3192 0.41988 0.40815 0.5451 3e-4 4.23e-4 6e-4 8.44e-4 9e-4 0.0013 0.10336 0.14473 0.23404 0.26096 0.4181 0.59384 0.16215 0.29326 0.29033 0.64293 0.33049 0.85651-0.03779-0.20095-0.06126-0.58805-0.12198-0.92933-0.06375-0.35826-0.16213-0.62955-0.26768-0.77734-3.69e-4 -5.17e-4 -7.41e-4 -1e-3 -0.0011-0.0016-0.10548-0.14661-0.33174-0.33142-0.64433-0.47144-0.33326-0.14928-0.60942-0.19415-0.83454-0.26524z"/>
  <path d="m9.0366 45.543c0.31901 0.0884 0.77097 0.32086 1.1279 0.6284 0.36829 0.31732 0.51626 0.59152 0.65475 0.76257 4.67e-4 5.78e-4 9.34e-4 0.0012 0.0014 0.0017 0.15752 0.19356 0.35902 0.3515 0.63638 0.79719 0.24653 0.39615 0.44093 0.87213 0.50387 1.1659-0.08272-0.38602-0.12113-0.89926-0.20385-1.2853-0.10752-0.49961-0.26972-0.8802-0.43624-1.0848-5.81e-4 -7.14e-4 -0.0012-0.0014-0.0018-0.0021-0.16589-0.20246-0.51189-0.44854-0.99138-0.6327-0.45862-0.17614-1.0037-0.27121-1.291-0.35084z"/>
  <path d="m14.214 3.2128c0.31901 0.088404 0.77097 0.32086 1.1279 0.6284 0.36829 0.31732 0.51626 0.59152 0.65475 0.76257 4.67e-4 5.778e-4 9.34e-4 0.00115 0.0014 0.00172 0.15752 0.19356 0.35902 0.3515 0.63638 0.79719 0.24653 0.39615 0.44093 0.87213 0.50387 1.1659-0.082718-0.38601-0.12113-0.89925-0.20385-1.2853-0.10752-0.49961-0.26972-0.8802-0.43624-1.0848-5.81e-4 -7.133e-4 -0.0012-0.00143-0.0018-0.00215-0.16589-0.20243-0.51189-0.44851-0.99138-0.63267-0.45862-0.17614-1.0037-0.27121-1.291-0.35083z"/>
  <path d="m7.6463 15.557c0.20452 0.06459 0.48938 0.22963 0.712 0.4482 0.22924 0.22506 0.3192 0.41988 0.40815 0.5451 3.008e-4 4.23e-4 6.008e-4 8.44e-4 9.002e-4 0.0013 0.10336 0.14473 0.23404 0.26096 0.4181 0.59384 0.16215 0.29326 0.29033 0.64293 0.33049 0.85651-0.037787-0.20095-0.06126-0.58805-0.12198-0.92933-0.063747-0.35826-0.16213-0.62955-0.26768-0.77734-3.693e-4 -5.17e-4 -7.41e-4 -1e-3 -0.00112-0.0016-0.10547-0.1466-0.33174-0.33142-0.64432-0.47143-0.33326-0.14928-0.60942-0.19415-0.83454-0.26524z"/>
  <path d="m13.111 57.408c0.19768 0.04271 0.48528 0.16245 0.7158 0.31994 0.24013 0.16405 0.33827 0.30365 0.42531 0.38748 2.9e-4 2.79e-4 5.79e-4 5.57e-4 8.67e-4 8.33e-4 0.09556 0.09155 0.21538 0.16185 0.37858 0.3676 0.14634 0.18451 0.26176 0.4108 0.30114 0.55409-0.03682-0.13397-0.06858-0.39745-0.13973-0.63647-0.07498-0.25188-0.1849-0.4462-0.28962-0.54653-3.63e-4 -3.48e-4 -7.29e-4 -6.97e-4 -0.0011-1e-3 -0.10376-0.09869-0.31103-0.20957-0.60018-0.29021-0.27713-0.07729-0.61208-0.11701-0.79108-0.15569z"/>
  <path d="m52.398 56.138c0.19768 0.04271 0.48528 0.16245 0.7158 0.31994 0.24013 0.16405 0.33827 0.30365 0.42531 0.38748 2.9e-4 2.79e-4 5.79e-4 5.57e-4 8.67e-4 8.33e-4 0.09556 0.09155 0.21538 0.16185 0.37858 0.3676 0.14634 0.18451 0.26176 0.4108 0.30114 0.55409-0.03682-0.13397-0.06858-0.39745-0.13973-0.63647-0.07498-0.25188-0.1849-0.4462-0.28962-0.54653-3.63e-4 -3.48e-4 -7.29e-4 -6.97e-4 -0.0011-1e-3 -0.10376-0.09869-0.31103-0.20957-0.60018-0.29021-0.27713-0.07729-0.61208-0.11701-0.79108-0.15569z"/>
 </g>
</svg>
