<svg version="1.1" viewBox="0 0 64 64" xmlns="http://www.w3.org/2000/svg">
 <g stroke="#000" stroke-linecap="round" stroke-linejoin="round" stroke-width=".5">
  <path d="m55.432 61.815-2.2409-12.913 8.2994 0.04425v12.868z" fill="#d7eef4"/>
  <path d="m50.045 30.772-2.3788-13.707 13.825 0.03882v13.71z" fill="#ff80b2"/>
  <path d="m47.274 14.805-2.131-12.279 16.331-0.0016 0.01695 12.338z" fill="none"/>
  <path d="m52.824 46.782-2.3649-13.627 11.049 0.01419-0.01695 13.668z" fill="#ffd5e5"/>
 </g>
 <g>
  <g transform="matrix(.9 0 0 .9 2.5443 4.7603)" stroke="#000" stroke-linecap="round" stroke-linejoin="round" stroke-width=".38889">
   <path d="m15.262 26.994 0.02099-7.4599c0.028-9.9508 18.275-9.8597 18.207-0.04971l-0.05187 7.5155-2.7568-8.85e-4 -0.11144-7.553c-0.0946-6.4115-12.392-6.2831-12.369 0.04844l0.02786 7.5006z" fill="#c8c4b7" fill-opacity=".50196"/>
   <g>
    <path d="m11.209 41.167c-0.0168-5.2617 1.4858-10.202 2.2286-15.302 0.30477-2.6127 6.3646-2.2331 6.3795 0.02492-0.1112 4.7363 9.5293 4.8695 9.416-0.07476 0.02683-2.1398 5.5136-2.5164 6.073 0.02492 0.88234 5.1091 2.6703 10.2 2.6186 15.327-0.15925 15.796-26.667 15.269-26.716 5e-6z" fill="#c8ab37"/>
    <path d="m12.511 40.9c-0.01516-4.7486 1.3409-9.2069 2.0113-13.81 0.27505-2.3579 4.2954-2.1649 4.3088-0.12705-0.02036 0.94944-0.18791 4.1497-0.18791 4.1497l1.8571 0.06816 0.17728 19.647c2.2214 0.85273 6.1243 0.63018 7.8795 0.08727l-0.21669-19.81 2.1688-0.0029s-0.24386-3.6082-0.25507-4.1323c0.02421-1.9312 3.4996-2.1963 4.0044 0.09725 0.79632 4.6109 2.41 9.2058 2.3633 13.833-0.14372 14.256-24.067 13.781-24.111 5e-6z" fill="#e9ddaf"/>
    <path d="m22.864 53.082c0.69054 0.32146 2.4428 0.36049 3.3675 0.01762l0.0221-6.7607c1.77-2.6243 1.6953-7.4492-0.0577-9.7866l-0.02983-4.9349c0.01135-0.6362-2.9389-0.87775-3.302-0.01762l0.05291 4.9193c-1.6659 2.0045-1.9412 7.0138 0.02785 9.9423z" fill="#decd87"/>
    <ellipse cx="24.437" cy="32.626" rx=".67507" ry=".67507" fill="#a0892c"/>
    <ellipse cx="24.486" cy="51.922" rx=".67507" ry=".67507" fill="#a0892c"/>
    <path d="m23.327 43.916c0.71801 0.2249 1.8492 0.2616 2.5005 0.0045l-0.66398-3.5363c0.71716-0.34551 1.5642-2.1818 0.51261-2.7315-0.73022-0.38168-1.0566 0.76735-1.0566 0.76735s-0.42621-1.2718-1.2207-0.73748c-0.99806 0.67121-0.12839 2.343 0.5573 2.6714z" fill="#24221c"/>
   </g>
  </g>
  <g transform="matrix(.30719 .2455 -.2455 .30719 39.194 11.499)" fill-rule="evenodd" stroke-width=".63575">
   <path d="m-10.441 8.7981c-4.972-6.99 5.472-10.548 9.502-5.082-1.297-6.47 8.436-9.822 10.488-1.482 1.574 6.398-5.625 8.67-3.984 18.415-5.55-8.376-12.132-6.406-16.006-11.85z" fill="#f06" stroke="#000"/>
   <path d="m7.833 4.2671c-0.538-4.288-3.094-5.253-6.977-3.8 3.339-3.016 8.19-1.983 6.978 3.8z" fill="#fff" fill-opacity=".785"/>
  </g>
  <g transform="matrix(.24534 .11581 -.11581 .24534 15.122 12.376)" fill-rule="evenodd" stroke-width=".92149">
   <path d="m-10.441 8.7981c-4.972-6.99 5.472-10.548 9.502-5.082-1.297-6.47 8.436-9.822 10.488-1.482 1.574 6.398-5.625 8.67-3.984 18.415-5.55-8.376-12.132-6.406-16.006-11.85z" fill="#f06" stroke="#000"/>
   <path d="m7.833 4.2671c-0.538-4.288-3.094-5.253-6.977-3.8 3.339-3.016 8.19-1.983 6.978 3.8z" fill="#fff" fill-opacity=".785"/>
  </g>
  <g transform="matrix(.37188 -.014249 .014249 .37188 6.7421 48.977)" fill-rule="evenodd" stroke-width=".67176">
   <path d="m-10.441 8.7981c-4.972-6.99 5.472-10.548 9.502-5.082-1.297-6.47 8.436-9.822 10.488-1.482 1.574 6.398-5.625 8.67-3.984 18.415-5.55-8.376-12.132-6.406-16.006-11.85z" fill="#f06" stroke="#000"/>
   <path d="m7.833 4.2671c-0.538-4.288-3.094-5.253-6.977-3.8 3.339-3.016 8.19-1.983 6.978 3.8z" fill="#fff" fill-opacity=".785"/>
  </g>
  <g transform="matrix(.20254 -.085264 .085264 .20254 10.026 19.113)" fill-rule="evenodd" stroke-width="1.1376">
   <path d="m-10.441 8.7981c-4.972-6.99 5.472-10.548 9.502-5.082-1.297-6.47 8.436-9.822 10.488-1.482 1.574 6.398-5.625 8.67-3.984 18.415-5.55-8.376-12.132-6.406-16.006-11.85z" fill="#f06" stroke="#000"/>
   <path d="m7.833 4.2671c-0.538-4.288-3.094-5.253-6.977-3.8 3.339-3.016 8.19-1.983 6.978 3.8z" fill="#fff" fill-opacity=".785"/>
  </g>
  <g transform="matrix(.24461 .28048 -.28048 .24461 44.533 44.253)" fill-rule="evenodd" stroke-width=".67176">
   <path d="m-10.441 8.7981c-4.972-6.99 5.472-10.548 9.502-5.082-1.297-6.47 8.436-9.822 10.488-1.482 1.574 6.398-5.625 8.67-3.984 18.415-5.55-8.376-12.132-6.406-16.006-11.85z" fill="#f06" stroke="#000"/>
   <path d="m7.833 4.2671c-0.538-4.288-3.094-5.253-6.977-3.8 3.339-3.016 8.19-1.983 6.978 3.8z" fill="#fff" fill-opacity=".785"/>
  </g>
  <g transform="matrix(.20847 .12712 -.12712 .20847 38.862 55.417)" fill-rule="evenodd" stroke-width="1.0239">
   <path d="m-10.441 8.7981c-4.972-6.99 5.472-10.548 9.502-5.082-1.297-6.47 8.436-9.822 10.488-1.482 1.574 6.398-5.625 8.67-3.984 18.415-5.55-8.376-12.132-6.406-16.006-11.85z" fill="#f06" stroke="#000"/>
   <path d="m7.833 4.2671c-0.538-4.288-3.094-5.253-6.977-3.8 3.339-3.016 8.19-1.983 6.978 3.8z" fill="#fff" fill-opacity=".785"/>
  </g>
 </g>
</svg>
