<svg version="1.1" viewBox="0 0 64 64" xmlns="http://www.w3.org/2000/svg" xmlns:xlink="http://www.w3.org/1999/xlink">
 <g fill-rule="evenodd">
  <path d="m18.334 30.246c-0.36669-11.095 11.983-9.7227 13.633-4.4039 2.0303-4.7531 13.866-7.3913 13.823 4.3521-0.023328 6.3729-6.6565 10.293-13.722 16.803-4.1976-4.503-13.521-10.33-13.734-16.752z" fill="#ff8080" stroke="#000" stroke-width=".75"/>
  <path d="m44.522 30.644c-0.01968-5.5936-4.3886-8.0409-8.1619-7.2754 4.5234-2.7571 9.5091 1.8648 8.1626 7.2754z" fill="#ffd5d5" fill-opacity=".785" stroke-width=".729"/>
  <g stroke="#000" stroke-width=".75">
   <path d="m43.284 49.49c5.9247-1.1763 6.2271-1.5849 7.0128-8.8506 0.666 7.1865 1.3167 7.7238 6.7068 8.8902-5.3658 0.9036-6.0066 1.2816-6.8742 9.4113-0.5049-8.2962-0.945-8.3997-6.8454-9.4509z" fill="#ffb380"/>
   <path d="m41.187 6.0079c2.898-0.4662 3.0465-0.6282 3.4308-3.5055 0.3267 2.8467 0.6444 3.0591 3.2814 3.5208-2.6253 0.3582-2.9385 0.5076-3.3633 3.7278-0.2466-3.285-0.4626-3.3264-3.3489-3.744z" fill="#fca"/>
   <path d="m20.787 53.249c-4.059-0.7335-4.266-0.9891-4.8042-5.526-0.4572 4.4874-0.9018 4.8231-4.5954 5.5512 3.6765 0.5643 4.1157 0.8001 4.7097 5.8752 0.3465-5.1795 0.648-5.2434 4.6899-5.9004z" fill="#ffe6d5"/>
   <path d="m42.268 14.226c7.2522-1.3806 7.623-1.8612 8.5842-10.397 0.8154 8.442 1.611 9.0729 8.2098 10.445-6.5691 1.0611-7.353 1.5048-8.415 11.056-0.6183-9.747-1.1574-9.8676-8.379-11.103z" fill="#f95"/>
   <path d="m17.058 40.147c-5.9238-1.2123-6.2262-1.6335-7.011-9.1224-0.6669 7.407-1.3176 7.9605-6.7068 9.1629 5.3658 0.9315 6.0057 1.3212 6.8742 9.7002 0.504-8.55 0.945-8.658 6.8445-9.7407z" fill="#fca"/>
   <path d="m52.704 25.151c4.059-0.72 4.266-0.9702 4.8042-5.4171 0.4563 4.3992 0.9018 4.7277 4.5954 5.4414-3.6774 0.5535-4.1157 0.7848-4.7106 5.76-0.3456-5.0778-0.648-5.1408-4.689-5.7843z" fill="#ffb380"/>
   <path d="m5.188 16.788c2.898-0.4662 3.0465-0.6282 3.4308-3.5055 0.3267 2.8467 0.6444 3.0591 3.2814 3.5208-2.6253 0.3582-2.9385 0.5076-3.3633 3.7278-0.2466-3.285-0.4626-3.3264-3.3489-3.744z" fill="#fca"/>
   <path d="m20.01 10.2c-4.059-0.7335-4.266-0.9891-4.8042-5.526-0.4572 4.4874-0.9018 4.8231-4.5954 5.5512 3.6765 0.5643 4.1157 0.8001 4.7097 5.8752 0.3465-5.1795 0.648-5.2434 4.6899-5.9004z" fill="#ffe6d5"/>
  </g>
 </g>
</svg>
