<svg xmlns="http://www.w3.org/2000/svg" viewBox="0 0 64 64">
    <path fill="#ff8080" stroke="#000" stroke-linecap="round" stroke-width=".73" d="M12.143 4.179l-20.48.688-6.985-19.265L.843-26.993l16.973 11.48z" transform="matrix(1.56454 .05692 -.0398 1.63199 29.686 48.596)"/>
    <path fill="#f9f9f9" fill-rule="evenodd" d="M32.588 6.83c10.554 7.32 13.098 9.524 24.096 18.06-8.89-2.614-22.142-15.385-24.096-18.06z"/>
    <path fill-opacity=".449" fill-rule="evenodd" d="M48.529 55.968c-12.178.212-23.854.08-31.972.013-3.389-9.802-6.644-20.888-10.17-31.862 5.492 11.946 6.368 19.615 14.751 26.208 6.026 4.739 15.107 4.47 27.39 5.641z"/>
    <path fill="#ff2a2a" fill-rule="evenodd" stroke="#ff2a2a" stroke-width=".753" d="M50.22 30.575c1.28.226 3.163-3.011-.752-4.743-.828-.452-1.28-.904-2.786-.828-.677 0-1.505.376-2.56 1.054-1.053.376-1.656.753-2.409 1.054-1.882 0-3.689.226-5.872.226-.527-.377-.903-.828-1.656-1.13-.452-.753-.753-1.505-1.882-2.258-2.108-1.506-3.99-1.054-5.797-.527-2.861-.979-4.518-.452-5.873.376l-1.28 1.656c-9.034 10.54-5.57 19.952 8.131 21.08 1.506-.526 2.259-1.505 4.216-3.01 7.83-2.786 18.52-2.184 19.424-6.475.076-.828.076-1.054-2.409-.828-.226 0-.677-.829-1.13-1.657-.225.828-.225 1.807-.677 1.882-1.054.076-2.183.226-3.237.302-.377.075-.904-.603-1.28-1.506-.301.903-.602 1.656-1.054 1.656-1.355.075-2.71.15-4.14.15-.302 0-.98-.3-1.13-1.129-.301.904-.602.98-1.054.98-1.28-.076-2.56-.302-3.84-.528-.828-.226-1.204-.527-1.58-1.054.451-.527 1.053-1.054 2.258-1.054.452 0 .903 0 1.28-.075.226 0 .301.15.753.979.3-.829.451-1.13.753-1.13.903-.075 1.731-.3 2.635-.527.15-.075.376.226.828 1.13.075-.829.226-1.43.376-1.506.979-.226 1.958-.603 2.861-.979.753 0 1.581 0 2.334-.075.452-.076.602.075 1.28 1.505.301-1.505.677-1.806.979-1.806.828-.226 1.505-.452 2.258-.904.15 0 .452.452.753.904 0-.678-.15-1.205 0-1.356.075-.075.301-.15.376-.225.377.075.603.225.904.376z"/>
</svg>
