<svg xmlns="http://www.w3.org/2000/svg" viewBox="0 0 64 64">
    <path fill="#ff8080" stroke="#000" stroke-linecap="round" stroke-width=".73" d="M12.143 4.179l-20.48.688-6.985-19.265L.843-26.993l16.973 11.48z" transform="matrix(1.56454 .05692 -.0398 1.63199 29.686 48.596)"/>
    <path fill="#f9f9f9" fill-rule="evenodd" d="M32.588 6.83c10.554 7.32 13.098 9.524 24.096 18.06-8.89-2.614-22.142-15.385-24.096-18.06z"/>
    <path fill-opacity=".449" fill-rule="evenodd" d="M48.529 55.968c-12.178.212-23.854.08-31.972.013-3.389-9.802-6.644-20.888-10.17-31.862 5.492 11.946 6.368 19.615 14.751 26.208 6.026 4.739 15.107 4.47 27.39 5.641z"/>
    <path fill="#ff2a2a" fill-rule="evenodd" d="M31.96 51.094c-1.959 1.392-8.309-.753-10.947-3.435-1.834-1.866-1.951-5.22-1.803-7.443.162-2.437.977-5.307 1.369-7.565.06-1.039-2.008-13.814 1.275-13.589 1.742.12 1.105 10.912 2.397 12.14.203.193.758.051 1.037.104.547.105.921-2.71 1.643-5.917 1.083-4.813 2.648-10.607 4.344-9.529 1.18.75.222 4.724-.578 8.285-.706 3.145-1.257 5.96-.557 6.067 1.588.243 3.487-8.407 5.456-12.678.781-1.696 1.457-2.475 2.306-2.078 1.788.835.395 5.733-1.132 10.046-1.008 2.845-2.41 5.723-1.801 5.988.926.403 3.041-3.64 5.256-7.318 1.277-2.12 1.9-5.237 3.544-4.562 1.984.815-.536 6.761-4.967 13.74-.63.993-1.218 2.738-1.071 3.911.157 1.255-.314 3.633.78 3.091 1.821-.902 3.888-3.115 5.687-4.287 2.713-1.766 5.192-2.119 4.778-.037-.155.779-4.187 3.91-8.741 8.795-2.177 2.335-5.342 4.187-8.275 6.271z"/>
</svg>
