<svg xmlns="http://www.w3.org/2000/svg" viewBox="0 0 64 64">
    <path fill="#ff8080" stroke="#000" stroke-linecap="round" stroke-width=".73" d="M12.143 4.179l-20.48.688-6.985-19.265L.843-26.993l16.973 11.48z" transform="matrix(1.56454 .05692 -.0398 1.63199 29.686 48.596)"/>
    <path fill="#ff2a2a" fill-rule="evenodd" stroke="#ff2a2a" stroke-width=".5" d="M32.833 44.28c-2.627-3.502-4.128-9.381-13.259-6.817-.313-2.94-1.313-5.066-5.816-7.13-.25-2.376-.626-3.064-3.628-4.503 5.942-.375 8.506 0 14.448 2.377.562 2.564 5.69 10.632 5.816 2.94-2.564-.814-1.126-3.065.125-4.816.813 1 1.564 1.813 1.376 3.252l1.564.063c-.126-1.126.375-2.127 1.5-3.315.876 1.188 2.627 3.502.126 4.878-.313 7.88 5.566.063 5.879-2.814 2.626-1.501 8.693-3.565 13.571-2.565-2.439 1.376-3.064 3.44-2.94 4.691-2.564.563-5.19 2.564-5.816 7.13-8.568-2.252-10.257 2.001-12.946 6.63z"/>
    <path fill="#f9f9f9" fill-rule="evenodd" d="M32.588 6.83c10.554 7.32 13.098 9.524 24.096 18.06-8.89-2.614-22.142-15.385-24.096-18.06z"/>
    <path fill-opacity=".449" fill-rule="evenodd" d="M48.529 55.968c-12.178.212-23.854.08-31.972.013-3.389-9.802-6.644-20.888-10.17-31.862 5.492 11.946 6.368 19.615 14.751 26.208 6.026 4.739 15.107 4.47 27.39 5.641z"/>
</svg>
