<svg xmlns="http://www.w3.org/2000/svg" viewBox="0 0 64 64">
    <path fill="#ff8080" stroke="#000" stroke-linecap="round" stroke-width=".73" d="M12.143 4.179l-20.48.688-6.985-19.265L.843-26.993l16.973 11.48z" transform="matrix(1.56454 .05692 -.0398 1.63199 29.238 49.816)"/>
    <path fill="#ff2a2a" d="M22.898 19.462c-.72.098.007 1.128.007 1.128s-2.614-2.057-1.664.078 2.298 4.271 2.298 4.271l.395 1.186-1.03-.317s.951 1.662.476 2.531c-.475.87-2.376 3.796-2.534 4.666-.158.87.08 2.294-.475 3.4-.555 1.108-4.04 4.983-4.04 4.983s-1.268 1.027-1.189 1.502c.08.474.396 1.108 1.189 1.503.792.396 3.248.712 3.248.712s.633.316 1.821 0c1.188-.317 3.802-1.82 5.545-1.899 1.742-.079 3.247.633 3.247.633l-.318 6.406.793-.712.052 2.011a18.72 18.72 0 0 0 .654-.023l.007-.01h.16A18.72 18.72 0 0 0 48.861 33.19a35.006 35.006 0 0 0-1.403-1.372h-1.821l1.742-1.106s-2.773-3.163-3.565-3.084c-.792.079-3.484 0-3.484 0l2.851-2.136s-3.326-.394-5.86-1.66c-2.535-1.265-3.17-1.66-4.595-1.66-1.426 0-2.693.236-2.693.236s-5.385-2.688-6.732-2.925a1.34 1.34 0 0 0-.403-.021z"/>
    <text x="-22.665" y="27.006" font-family="sans-serif" font-weight="400" letter-spacing="0" word-spacing="0" style="line-height:0%">
        <tspan style="line-height:1.25" x="-22.665" y="27.006" font-size="40"></tspan>
    </text>
    <path fill-opacity=".449" fill-rule="evenodd" d="M48.08 57.188c-12.178.212-23.853.08-31.97.013C12.72 47.4 9.464 36.313 5.94 25.34c5.49 11.946 6.367 19.615 14.75 26.208 6.025 4.739 15.106 4.47 27.39 5.641z"/>
    <path fill="#f9f9f9" fill-rule="evenodd" d="M32.14 8.05c10.553 7.32 13.097 9.524 24.096 18.06-8.89-2.614-22.143-15.385-24.096-18.06z"/>
</svg>
