<svg xmlns="http://www.w3.org/2000/svg" viewBox="0 0 64 64">
    <path fill="#ff8080" stroke="#000" stroke-linecap="round" stroke-width=".73" d="M12.143 4.179l-20.48.688-6.985-19.265L.843-26.993l16.973 11.48z" transform="matrix(1.56454 .05692 -.0398 1.63199 29.686 48.596)"/>
    <g fill="#ff2a2a" fill-rule="evenodd">
        <path d="M19.299 33.943c2.091-1.91 4.253-3.273 6.614-3.061-3.775-5.105-2.673-9.453-.096-14.642-6.531 4.172-9.965 10.197-6.518 17.703zM45.803 34.322c-2.091-1.91-4.252-3.273-6.614-3.061 3.775-5.105 2.674-9.453.096-14.641 6.531 4.171 9.966 10.196 6.518 17.702zM48.657 44.755c-.254 2.106-2.68 3.153-8.935 1.858-9.795-2.028-21.79-12.195-22.706-4.79-.92-1.422-2.33-1.417-2.392.203-.06 1.584 1.295 4.277 1.304 6.155.837-1.395 3.688-2.202 4.553-3.284.566-.707.019-2.89-2.286-2.407-.324-6.684 11.744 3.493 20.69 5.507 8.123 1.829 10.961-.504 11.133-3.166.294-4.53-6.69-7.629-6.773-6.33-.081 1.256 5.916 2.071 5.412 6.254z"/>
    </g>
    <path fill="#f9f9f9" fill-rule="evenodd" d="M32.588 6.83c10.554 7.32 13.098 9.524 24.096 18.06-8.89-2.614-22.142-15.385-24.096-18.06z"/>
    <path fill-opacity=".449" fill-rule="evenodd" d="M48.529 55.968c-12.178.212-23.854.08-31.972.013-3.389-9.802-6.644-20.888-10.17-31.862 5.492 11.946 6.368 19.615 14.751 26.208 6.026 4.739 15.107 4.47 27.39 5.641z"/>
</svg>
