<svg version="1.1" viewBox="0 0 256 256" xmlns="http://www.w3.org/2000/svg">
 <g stroke="#000" stroke-linecap="round" stroke-linejoin="round">
  <path d="m155.38 15.457c1.23 21.128 19.791 39.111 24.15 59.608 2.8348 13.33 4.7881 34.86-25.461 34.608-25.613-0.2138-27.493-18.668-23.723-33.31 5.3036-20.595 24.201-41.393 25.034-60.905z" fill="#5aa02c" stroke-width="2"/>
  <path d="m156.09 41.908c0.73648 12.65 11.85 23.417 14.459 35.689 1.6973 7.981 2.8668 20.872-15.244 20.721-15.335-0.12801-16.461-11.177-14.204-19.944 3.1755-12.331 14.49-24.783 14.989-36.466z" fill="#ff80e5"/>
  <path d="m101.3 83.878c1.2301 21.128 19.791 39.111 24.15 59.608 2.8348 13.33 4.7881 34.86-25.461 34.608-25.613-0.21379-27.493-18.668-23.723-33.31 5.3036-20.595 24.201-41.393 25.034-60.905z" fill="#6ec535" stroke-width="2"/>
  <path d="m101.35 109.88c0.73648 12.65 11.85 23.417 14.459 35.689 1.6973 7.981 2.8668 20.872-15.244 20.721-15.335-0.128-16.461-11.177-14.204-19.944 3.1755-12.331 14.49-24.783 14.989-36.466z" fill="#fae"/>
  <path d="m155.58 146.32c1.2301 21.128 19.791 39.111 24.15 59.608 2.8348 13.33 4.7881 34.86-25.461 34.608-25.613-0.21379-27.493-18.668-23.723-33.31 5.3036-20.595 24.201-41.393 25.034-60.905z" fill="#8ed460" stroke-width="2"/>
  <path d="m155.85 174.11c0.73649 12.65 11.85 23.417 14.459 35.689 1.6973 7.9811 2.8668 20.872-15.244 20.721-15.335-0.12799-16.461-11.177-14.204-19.944 3.1754-12.331 14.49-24.783 14.988-36.466z" fill="#ffd5f6"/>
 </g>
</svg>
