<svg xmlns="http://www.w3.org/2000/svg" viewBox="0 0 64 64">
    <path fill="#ff8080" stroke="#000" stroke-linecap="round" stroke-width=".73" d="M12.143 4.179l-20.48.688-6.985-19.265L.843-26.993l16.973 11.48z" transform="matrix(1.56454 .05692 -.0398 1.63199 29.686 48.596)"/>
    <path fill="#f9f9f9" fill-rule="evenodd" d="M32.588 6.83c10.554 7.32 13.098 9.524 24.096 18.06-8.89-2.614-22.142-15.385-24.096-18.06z"/>
    <path fill-opacity=".449" fill-rule="evenodd" d="M48.529 55.968c-12.178.212-23.854.08-31.972.013-3.389-9.802-6.644-20.888-10.17-31.862 5.492 11.946 6.368 19.615 14.751 26.208 6.026 4.739 15.107 4.47 27.39 5.641z"/>
    <g fill="#ff2a2a" fill-rule="evenodd">
        <path d="M17.335 38.004c-6.895-.08-5.17-10.51-1.819-11.47.942-1.595 1.828-2.447 1.828-2.447s1.15 1.158 2.013 2.445c3.598.809 4.219 11.543-2.022 11.472zM22.791 49.603c-2.174-.398-4.095-4.175-4.065-5.498.068-3.032 6.636-13.228 12.923-13.052 7.265.204 10.66 10.37 11.462 13.84.546 2.362-2.202 5.095-4.927 5.34-2.219.2-3.805-1.93-6.355-2.633-2.129-.586-6.836 2.406-9.038 2.003zM28.083 30.008c-6.88.466-5.982-10.067-2.717-11.29.814-1.665 1.63-2.584 1.63-2.584s1.238 1.064 2.199 2.278c3.65.522 5.115 11.173-1.112 11.596zM38.659 30.831c-6.824-.99-3.739-11.101-.29-11.61 1.145-1.456 2.135-2.183 2.135-2.183s.988 1.3 1.673 2.69c3.46 1.278 2.658 12-3.518 11.103zM45.698 40.543c-6.587-2.04-1.972-11.548 1.514-11.514 1.356-1.26 2.447-1.824 2.447-1.824s.775 1.438 1.235 2.917c3.22 1.8.767 12.268-5.196 10.421z"/>
    </g>
</svg>
