<svg xmlns="http://www.w3.org/2000/svg" viewBox="0 0 64 64">
    <path fill="#ff8080" stroke="#000" stroke-linecap="round" stroke-width=".73" d="M12.143 4.179l-20.48.688-6.985-19.265L.843-26.993l16.973 11.48z" transform="matrix(1.56454 .05692 -.0398 1.63199 29.686 48.596)"/>
    <path fill="#f9f9f9" fill-rule="evenodd" d="M32.588 6.83c10.554 7.32 13.098 9.524 24.096 18.06-8.89-2.614-22.142-15.385-24.096-18.06z"/>
    <path fill-opacity=".449" fill-rule="evenodd" d="M48.529 55.968c-12.178.212-23.854.08-31.972.013-3.389-9.802-6.644-20.888-10.17-31.862 5.492 11.946 6.368 19.615 14.751 26.208 6.026 4.739 15.107 4.47 27.39 5.641z"/>
    <g fill="#ff2a2a" fill-rule="evenodd">
        <path d="M19.338 33.744c2.08-1.899 4.23-3.255 6.578-3.044-3.755-5.077-2.659-9.4-.096-14.56-6.495 4.148-9.91 10.14-6.482 17.604zM45.696 34.121c-2.08-1.899-4.23-3.255-6.578-3.044 3.755-5.077 2.66-9.4.096-14.56 6.495 4.148 9.91 10.14 6.482 17.604zM17.33 39.849c1.652 4.917 3.446 9.663 12.129 5.99zM48.059 39.806c-1.654 4.918-3.448 9.664-12.13 5.99z"/>
    </g>
</svg>
