<svg xmlns="http://www.w3.org/2000/svg" viewBox="0 0 64 64">
    <path fill="#ff8080" stroke="#000" stroke-linecap="round" stroke-width=".73" d="M12.143 4.179l-20.48.688-6.985-19.265L.843-26.993l16.973 11.48z" transform="matrix(1.56454 .05692 -.0398 1.63199 29.686 48.596)"/>
    <g fill="#ff2a2a" fill-rule="evenodd">
        <path d="M19.984 36.207c-4.978 1.23-5.839-9.095-3.688-10.693.369-1.72.8-2.704.8-2.704s1.105.922 1.966 1.967c2.765.123 5.346 10.324.922 11.43zM22.872 48.867c-2.151-.43-3.319-2.704-3.257-3.995.369-4.179 2.95-4.424 5.838-7.436 2.274-2.335 4.302-5.223 7.067-5.1 3.995.061 4.917 3.01 6.33 6.022 1.106 2.458 3.196 3.995 3.503 5.531.553 2.335-.86 6.391-3.564 6.576-2.151.245-3.503-4.425-6.023-5.162-2.15-.554-7.743 3.933-9.894 3.564zM29.079 29.447c-4.855.43-4.24-9.955-1.905-11.184.553-1.66 1.167-2.581 1.167-2.581s.86 1.106 1.537 2.273c2.58.553 3.625 11.062-.8 11.492zM39.157 30.8c-4.179-1.844-.184-11.247 2.09-11.308 1.044-1.29 1.843-1.844 1.843-1.844s.37 1.414.492 2.827c1.967 1.72-.676 11.984-4.425 10.324zM44.811 40.017c-3.38-3.38 2.704-11.184 4.855-10.385 1.229-.86 2.09-1.107 2.09-1.107s0 1.475-.185 2.95c1.352 2.458-3.749 11.615-6.76 8.542z"/>
    </g>
    <path fill="#f9f9f9" fill-rule="evenodd" d="M32.588 6.83c10.554 7.32 13.098 9.524 24.096 18.06-8.89-2.614-22.142-15.385-24.096-18.06z"/>
    <path fill-opacity=".449" fill-rule="evenodd" d="M48.529 55.968c-12.178.212-23.854.08-31.972.013-3.389-9.802-6.644-20.888-10.17-31.862 5.492 11.946 6.368 19.615 14.751 26.208 6.026 4.739 15.107 4.47 27.39 5.641z"/>
</svg>
