<svg xmlns="http://www.w3.org/2000/svg" viewBox="0 0 64 64">
    <g fill-rule="evenodd" stroke="#000" stroke-width=".5">
        <path fill="#999" d="M15.267 2.96c-.11 1.114-.107 2.836-.416 3.307-.436.666-1.869 1.563-2.249 3.114-3.116 3.66-6.878 10.228-6.463 11.404.528 1.494 5.951 6.533 9.094 9.774-1.732 2.883-3.296 5.844.22 11.112.193 4.427.247 8.883.984 13.192-.24 1.562-1.496 4.498-1.496 4.498l6.068.512c.55-2.472 1.24-4.568 1.608-7.53 1.265-5.83 1.863-11.216 1.681-16.081-.092-5.615 1.514-11.375.693-16.27.627 1.21 3.29.136 3.167-2.236-.06-1.154-4.092-4.294-5.343-5.622-1.276-1.352-1.835-2.382-2.233-2.873-.242-.3-1.013-.56-1.013-.56-.135-1.136-.281-2.135.343-2.996zm-.755 14.471c1.259 3.722 2.07 7.413 1.964 10.649-1.644-2.434-2.788-4.65-4.962-7.315 1.226-1.214 2.018-2.156 2.481-3.205z"/>
        <path fill="#fbfbf7" d="M48.036 48.725c-7.395 14.468 18.81 13.986 11.575 0l-5.868-11.253z"/>
    </g>
</svg>
