<?xml version="1.0" encoding="UTF-8" standalone="no"?>
<!-- Created with Inkscape (http://www.inkscape.org/) -->

<svg
   xmlns:dc="http://purl.org/dc/elements/1.1/"
   xmlns:cc="http://creativecommons.org/ns#"
   xmlns:rdf="http://www.w3.org/1999/02/22-rdf-syntax-ns#"
   xmlns:svg="http://www.w3.org/2000/svg"
   xmlns="http://www.w3.org/2000/svg"
   xmlns:sodipodi="http://sodipodi.sourceforge.net/DTD/sodipodi-0.dtd"
   xmlns:inkscape="http://www.inkscape.org/namespaces/inkscape"
   viewBox="0 0 256 256"
   id="svg2"
   version="1.1"
   inkscape:version="0.91 r13725"
   sodipodi:docname="meleeLevelOneFistIcon.svg">
  <defs
     id="defs4" />
  <sodipodi:namedview
     id="base"
     pagecolor="#ffffff"
     bordercolor="#666666"
     borderopacity="1.0"
     inkscape:pageopacity="0.0"
     inkscape:pageshadow="2"
     inkscape:zoom="1.979899"
     inkscape:cx="105.26175"
     inkscape:cy="185.44229"
     inkscape:document-units="px"
     inkscape:current-layer="layer2"
     showgrid="false"
     units="px"
     inkscape:window-width="2560"
     inkscape:window-height="1388"
     inkscape:window-x="-8"
     inkscape:window-y="-8"
     inkscape:window-maximized="1" />
  <metadata
     id="metadata7">
    <rdf:RDF>
      <cc:Work
         rdf:about="">
        <dc:format>image/svg+xml</dc:format>
        <dc:type
           rdf:resource="http://purl.org/dc/dcmitype/StillImage" />
        <dc:title />
      </cc:Work>
    </rdf:RDF>
  </metadata>
  <g
     inkscape:groupmode="layer"
     id="layer2"
     inkscape:label="Layer 2"
     style="display:inline">
    <path
       style="fill:#ff5555;fill-rule:evenodd;stroke:#000000;stroke-width:1.33979225px;stroke-linecap:butt;stroke-linejoin:miter;stroke-opacity:1"
       d="M 51.042416,161.5657 C 73.798556,132.64924 57.883508,80.109629 119.20633,18.839642 115.63495,33.722513 117.53442,38.362511 124.47884,45.12549 142.98187,23.41814 165.85938,31.230519 188.3664,5.0929642 178.62476,36.39144 220.88067,28.721323 218.84006,71.6913 c 6.61602,-3.993046 14.40682,-8.049112 17.86152,-18.429934 6.79623,20.060602 6.3103,41.286388 -5.03142,71.671984 4.71022,-2.00966 8.7072,-6.37894 15.38899,-13.18451 -16.99502,90.18518 -107.81525,76.14121 -139.91647,105.56172"
       id="path4728"
       inkscape:connector-curvature="0"
       sodipodi:nodetypes="ccccccccc" />
    <path
       style="fill:#f9f9f9;fill-rule:evenodd;stroke:#000000;stroke-width:1.33979225px;stroke-linecap:butt;stroke-linejoin:miter;stroke-opacity:1"
       d="m 13.339132,198.89551 c 26.386839,-19.84823 45.33291,-40.03291 65.284652,-60.17214 3.943021,-9.02419 0.812587,-18.54048 0.889438,-27.83363 1.975511,-27.005616 10.740893,-42.78885 19.923382,-54.701955 5.217536,-3.833747 32.256496,-2.574303 48.385356,-3.861312 18.91065,-0.495184 18.94183,20.989596 28.63987,40.222008 0.42205,4.712921 -11.76048,8.622369 -14.94253,8.205309 -19.84246,-12.391486 -23.37031,-17.772121 -27.57256,-28.959869 2.61524,15.209278 -11.11285,10.450552 -21.52437,7.883523 10.42607,3.631444 13.21365,4.284812 17.3584,12.405853 3.60476,7.063046 10.46355,13.975823 12.65968,19.595073 7.13069,18.24538 -2.21367,32.70226 -10.98413,44.09914 5.42824,-7.47652 11.96557,-10.18825 16.18776,-22.84611 14.68927,1.56796 10.73647,16.51997 14.76463,25.74208 16.14301,4.7989 20.75637,4.0772 31.1303,6.11375 -19.50103,7.49296 -17.96889,11.98224 -26.14944,17.85857 -12.63325,5.91019 -22.91372,3.8407 -34.33227,5.63108 -2.64278,-16.1662 -7.77379,-14.32892 -11.91844,-19.62834 -1.67405,-4.36041 0.479,-6.29328 0.88943,-9.3315 -7.76775,8.76717 -15.53549,-1.02109 -23.30324,-3.37866 6.21774,4.3125 16.44785,10.11925 17.61084,12.54927 1.77822,4.24909 -11.26117,12.76234 -16.899286,19.14568 6.581836,-5.41657 11.497706,-7.81961 19.745506,-16.24969 6.9879,0.98943 10.34075,13.03944 11.56266,18.50213 -5.4298,5.04255 -8.85526,10.5795 -17.61084,14.80169 l -34.688032,45.04866"
       id="path4718"
       inkscape:connector-curvature="0"
       sodipodi:nodetypes="cccccccccssccccccccccccccc" />
    <path
       style="fill:#f9f9f9;fill-rule:evenodd;stroke:#000000;stroke-width:1.33979225px;stroke-linecap:butt;stroke-linejoin:miter;stroke-opacity:1"
       d="m 149.9097,49.734648 c 8.87033,-6.615961 18.87776,-6.988611 29.43376,-11.490269 15.77717,-2.158523 20.33016,16.60329 24.77972,21.615358 -4.34931,7.457116 -16.32186,8.083373 -32.20106,13.310504 C 167.98697,59.148635 161.65966,49.918734 149.9097,49.734648 Z"
       id="path4720"
       inkscape:connector-curvature="0"
       sodipodi:nodetypes="ccccc" />
    <path
       style="fill:#f9f9f9;fill-rule:evenodd;stroke:#000000;stroke-width:1.33979225px;stroke-linecap:butt;stroke-linejoin:miter;stroke-opacity:1"
       d="m 174.06049,78.74474 c 4.56012,-1.980579 19.5929,-8.146549 29.55955,-10.01133 3.9832,0.568825 9.5797,9.173844 11.69803,24.800782 -3.80994,6.921078 -31.47392,10.545938 -64.90524,20.705238 -2.25853,-0.23818 -12.3719,-15.043076 -10.56597,-22.184191 6.04146,-2.319955 10.12436,8.534431 21.88666,11.148971 3.98584,0.58393 17.52006,-3.14454 17.86152,-9.78379 -1.79369,-4.891901 -2.54752,-9.78379 -5.53455,-14.67568 z"
       id="path4722"
       inkscape:connector-curvature="0"
       sodipodi:nodetypes="cccccccc" />
    <path
       style="fill:#f9f9f9;fill-rule:evenodd;stroke:#000000;stroke-width:1.33979225px;stroke-linecap:butt;stroke-linejoin:miter;stroke-opacity:1"
       d="m 153.3059,120.8378 c -0.49683,-5.32094 37.73561,-13.34843 56.22606,-19.34005 8.06238,-0.75332 13.08166,24.64909 10.9433,26.05219 -16.66347,5.96244 -32.2285,8.28219 -47.9242,11.03521 -13.43691,1.55578 -19.62252,-10.58016 -19.24516,-17.74735 z"
       id="path4724"
       inkscape:connector-curvature="0"
       sodipodi:nodetypes="ccccc" />
    <path
       style="fill:#f9f9f9;fill-rule:evenodd;stroke:#000000;stroke-width:1.33979225px;stroke-linecap:butt;stroke-linejoin:miter;stroke-opacity:1"
       d="m 164.62658,141.77057 c -2.02126,0.85841 -0.97369,6.18864 1.00629,13.76557 10.27246,2.27529 13.24901,4.13818 30.81739,6.8259 7.96135,-1.49497 15.60243,-4.00378 22.89294,-7.62226 2.79867,0.73024 1.39603,-22.86452 -3.39619,-22.63924 -19.5605,6.84154 -30.07468,8.78642 -51.32043,9.67003 z"
       id="path4726"
       inkscape:connector-curvature="0"
       sodipodi:nodetypes="cccccc" />
  </g>
</svg>
