<svg version="1.1" viewBox="0 0 64 64" xmlns="http://www.w3.org/2000/svg">
 <g stroke="#000" stroke-linecap="round" stroke-linejoin="round" stroke-width=".5">
  <ellipse cx="32.119" cy="13.232" rx="11.026" ry="9.9235" fill="#ffb380"/>
  <path d="m12.551 13.332c9.8855 14.884 28.158 15.022 37.879-0.04882-11.263-15.36-27.043-15.242-37.879 0.04882zm18.954-8.8895c4.9272-4.45e-4 8.9218 3.9156 8.9218 8.7461 5.6e-5 4.8308-3.9944 8.7469-8.9218 8.7461-4.9266-3.27e-4 -8.9203-3.9161-8.9203-8.7461-5.4e-5 -4.8303 3.9935-8.7461 8.9203-8.7461z" fill="#ff8080"/>
  <g>
   <path d="m31.525 27.414a16.961 16.924 0 0 0-16.961 16.926 16.961 16.924 0 0 0 16.961 16.924 16.961 16.924 0 0 0 16.961-16.924 16.961 16.924 0 0 0-16.961-16.926zm0 2.4141a14.542 14.51 0 0 1 14.541 14.512 14.542 14.51 0 0 1-14.541 14.51 14.542 14.51 0 0 1-14.541-14.51 14.542 14.51 0 0 1 14.541-14.512z" fill="#ffe680"/>
   <path d="m43.993 44.339c-1e-6 6.8709-5.582 12.441-12.468 12.441v-24.882c6.8858 0 12.468 5.57 12.468 12.441z" fill="#ffe680"/>
   <ellipse cx="31.472" cy="13.112" rx="6.0164" ry="5.9205" fill="#ff8080"/>
  </g>
 </g>
</svg>
