<svg version="1.1" viewBox="0 0 64 64" xmlns="http://www.w3.org/2000/svg">
 <g stroke="#000" stroke-miterlimit="10">
  <g stroke-linejoin="round">
   <path d="m29.582 30.582c12.904-9.8789 25.422-15.2 27.96-11.885 2.5376 3.3125-5.8659 14.006-18.773 23.886-12.904 9.8772-25.422 15.2-27.959 11.885-2.5378-3.3146 5.8655-14.008 18.773-23.886zm-17.218 22.696c2.0349 2.6582 13.449-2.6637 25.494-11.884 12.048-9.2218 20.163-18.851 18.128-21.507-2.0349-2.6586-13.45 2.662-25.494 11.883-12.049 9.2212-20.163 18.85-18.128 21.507z" fill="#fdfd96" stroke-width=".5"/>
   <path d="m25.232 26c12.904-9.8789 25.422-15.2 27.96-11.885 2.5375 3.3125-5.8659 14.006-18.774 23.886-12.904 9.8772-25.422 15.2-27.959 11.885-2.5375-3.3146 5.8657-14.008 18.773-23.886zm-17.218 22.696c2.0349 2.6582 13.449-2.6637 25.494-11.884 12.048-9.2218 20.163-18.851 18.128-21.507-2.0349-2.6586-13.45 2.662-25.494 11.883-12.049 9.2212-20.163 18.85-18.128 21.507z" fill="#fdfd96" stroke-width=".5"/>
   <g stroke-width="2.3565">
    <polygon transform="matrix(.21219 0 0 .21216 4.8398 4.8432)" points="28.537 171.15 30.925 152.27 44.239 159.97 62.687 149.6 54.238 168.99 63.239 181.47 44.703 185.75 31.852 203.82 28.84 187.08 11.854 185.78" fill="#7d7"/>
    <polygon transform="matrix(.21219 0 0 .21216 4.8398 4.8432)" points="191.25 37.185 177.42 48.712 155.03 44.755 167.52 60.426 159.29 75.095 180.85 73.255 198.14 86.279 198.96 69.472 217.89 62.851 196.82 54.309" fill="#ff6961"/>
    <polygon transform="matrix(.21219 0 0 .21216 4.8398 4.8432)" points="197.32 158.72 181.53 141.78 184.47 111.45 165.88 130.14 146.65 121.06 150.95 149.55 136.14 174.26 157.36 173.19 167.45 197.54 176.29 168.38" fill="#aec6cf"/>
   </g>
  </g>
  <path d="m51.531 8.0577c0.35542 1.3188-0.42756 2.6754-1.7471 3.0307-1.3162 0.35537-2.674-0.42432-3.0292-1.7431-0.35563-1.3188 0.42734-2.6754 1.7433-3.0309 1.316-0.35537 2.6774 0.42454 3.033 1.7433zm-28.988 44.853c-1.316 0.35642-2.099 1.7121-1.7433 3.0318 0.35541 1.3169 1.7132 2.0979 3.0292 1.7433 1.3198-0.35558 2.1028-1.7138 1.7433-3.0307-0.35541-1.3182-1.7094-2.0998-3.0292-1.7444zm-9.5077-25.757c-1.3162 0.35558-2.099 1.7121-1.7435 3.0309 0.35562 1.3177 1.7132 2.0976 3.0294 1.7423 1.3198-0.35537 2.1028-1.7119 1.7472-3.0299-0.35924-1.3177-1.7132-2.0987-3.033-1.7433z" fill="#ffb347" stroke-width=".5"/>
 </g>
</svg>
