<svg xmlns="http://www.w3.org/2000/svg" viewBox="0 0 64 64">
    <g fill-rule="evenodd">
        <path fill="#f06" stroke="#000" stroke-width=".475" d="M4.77 52.047c-4.94-5.72 3.929-9.707 7.916-5.245-1.673-5.569 6.588-9.315 9.078-2.168 1.91 5.483-4.218 8.072-1.971 16.485C14.23 54.23 8.619 56.503 4.77 52.047z"/>
        <path fill="#fff" fill-opacity=".785" d="M20.427 46.56c-.826-3.717-3.149-4.352-6.435-2.756 2.68-2.922 7.02-2.418 6.435 2.756z"/>
        <path fill="#f06" stroke="#000" stroke-width=".475" d="M43.822 43.596c2.431-7.157 10.359-1.528 8.53 4.17 3.955-4.263 11.37.964 6.467 6.73-3.76 4.424-9.096.45-15.213 6.648 3.124-8.284-1.678-11.973.216-17.548z"/>
        <path fill="#fff" fill-opacity=".785" d="M56.482 54.318c2.786-2.595 2.158-4.92-.883-6.944 3.877.83 5.64 4.83.883 6.944z"/>
        <path fill="#f06" stroke="#000" stroke-width=".475" d="M2.963 5.439c.894-7.506 9.817-3.644 9.21 2.309 2.985-4.99 11.321-1.415 7.722 5.243-2.762 5.107-8.805 2.327-13.504 9.659C7.73 13.898 2.267 11.285 2.963 5.439z"/>
        <path fill="#fff" fill-opacity=".785" d="M17.571 13.302c2.188-3.117 1.091-5.26-2.303-6.61 3.965.007 6.519 3.554 2.303 6.61z"/>
        <path fill="#f0c" stroke="#000" stroke-width=".46" d="M13.507 27.322c-.503-15.22 16.438-13.337 18.701-6.041 2.785-6.52 19.02-10.139 18.962 5.97-.032 8.742-9.131 14.12-18.823 23.05-5.758-6.177-18.548-14.17-18.84-22.979z"/>
        <g>
            <path fill="#f06" stroke="#000" stroke-width=".475" d="M44.01 12.947c-4.94-5.72 3.928-9.707 7.915-5.245-1.673-5.569 6.589-9.315 9.079-2.168 1.91 5.483-4.218 8.071-1.971 16.485-5.562-6.889-11.174-4.616-15.023-9.072z"/>
            <path fill="#fff" fill-opacity=".785" d="M59.667 7.46c-.827-3.717-3.15-4.353-6.435-2.756 2.679-2.923 7.02-2.418 6.435 2.756z"/>
        </g>
        <path fill="#fff" fill-opacity=".785" d="M49.43 27.868c-.027-7.673-6.02-11.03-11.196-9.98 6.205-3.782 13.044 2.558 11.197 9.98z"/>
    </g>
</svg>
