<?xml version="1.0" encoding="UTF-8"?>
<svg version="1.1" viewBox="0 0 64 64" xmlns="http://www.w3.org/2000/svg" xmlns:cc="http://creativecommons.org/ns#" xmlns:dc="http://purl.org/dc/elements/1.1/" xmlns:rdf="http://www.w3.org/1999/02/22-rdf-syntax-ns#">
 <metadata>
  <rdf:RDF>
   <cc:Work rdf:about="">
    <dc:format>image/svg+xml</dc:format>
    <dc:type rdf:resource="http://purl.org/dc/dcmitype/StillImage"/>
    <dc:title/>
   </cc:Work>
  </rdf:RDF>
 </metadata>
 <g stroke="#000">
  <path d="m46.736 3.5097c-5.6639-0.016526-11.377 4.2714-14.084 8.9631-0.35114 0.60853-0.38097 1.464-0.04232 2.0788 2.6018 4.7233 8.3971 8.8952 14.041 8.9232 5.7078 0.0284 11.594-4.1445 14.301-8.8833 0.32105-0.56196 0.31584-1.3499 0-1.9145-2.6786-4.7878-8.4751-9.1503-14.216-9.1674zm0.06596 2.9639a7.3336 6.9772 0 0 1 7.3335 6.9771 7.3336 6.9772 0 0 1-7.3335 6.9782 7.3336 6.9772 0 0 1-7.3347-6.9782 7.3336 6.9772 0 0 1 7.3347-6.9771z" fill="#ff8080" stroke-width=".675"/>
  <ellipse cx="46.732" cy="13.469" rx="4.7385" ry="4.4008" fill="#ff8080" stroke-linecap="round" stroke-linejoin="round" stroke-width=".75"/>
  <g stroke-width=".75">
   <path d="m35.744 32.677c-0.70837-4.4571 4.0503-6.0343 7.1865-1.2107 3.0274-4.9816 8.6508-3.0544 7.8008 1.1556-0.90449 4.4795-5.2024 4.4522-5.4299 10.752-3.9102-5.9607-8.8414-6.1923-9.5573-10.697z" fill="#ff7f2a"/>
   <path d="m59.65 43.968c1.0397-3.7816-2.4706-5.6145-5.4304-1.7559-1.7947-4.6038-6.3608-3.4938-6.1668 0.22825 0.20648 3.9603 3.537 4.3612 3.0187 9.8276 3.6844-4.7648 7.5276-4.4779 8.5785-8.2999z" fill="#ffb380"/>
   <path d="m39.079 51.861c-0.88369-3.0977 2.0998-4.5991 4.6154-1.4383 1.5253-3.7712 5.4062-2.8619 5.2412 0.18697-0.1755 3.244-3.0061 3.5724-2.5656 8.0502-3.1314-3.903-6.3979-3.668-7.291-6.7988z" fill="#ffe6d5"/>
  </g>
 </g>
</svg>
