<?xml version="1.0" encoding="UTF-8"?>
<svg version="1.1" viewBox="0 0 64 64" xmlns="http://www.w3.org/2000/svg" xmlns:cc="http://creativecommons.org/ns#" xmlns:dc="http://purl.org/dc/elements/1.1/" xmlns:rdf="http://www.w3.org/1999/02/22-rdf-syntax-ns#">
 <metadata>
  <rdf:RDF>
   <cc:Work rdf:about="">
    <dc:format>image/svg+xml</dc:format>
    <dc:type rdf:resource="http://purl.org/dc/dcmitype/StillImage"/>
    <dc:title/>
   </cc:Work>
  </rdf:RDF>
 </metadata>
 <g stroke="#000">
  <path d="m46.736 3.5097c-5.6639-0.016526-11.377 4.2714-14.084 8.9631-0.35114 0.60853-0.38097 1.464-0.04232 2.0788 2.6018 4.7233 8.3971 8.8952 14.041 8.9232 5.7078 0.0284 11.594-4.1445 14.301-8.8833 0.32105-0.56196 0.31584-1.3499 0-1.9145-2.6786-4.7878-8.4751-9.1503-14.216-9.1674zm0.06596 2.9639a7.3336 6.9772 0 0 1 7.3335 6.9771 7.3336 6.9772 0 0 1-7.3335 6.9782 7.3336 6.9772 0 0 1-7.3347-6.9782 7.3336 6.9772 0 0 1 7.3347-6.9771z" fill="#ff8080" stroke-width=".675"/>
  <ellipse cx="46.732" cy="13.469" rx="4.7385" ry="4.4008" fill="#ff8080" stroke-linecap="round" stroke-linejoin="round" stroke-width=".75"/>
  <g transform="matrix(.56722 0 0 .56722 28.034 25.138)" fill="#ffb380" fill-rule="evenodd">
   <path d="m14.55 37.852c-8.33-0.095-6.247-12.694-2.198-13.855 1.138-1.927 2.208-2.955 2.208-2.955s1.39 1.398 2.431 2.953c4.347 0.976 5.097 13.943-2.441 13.857zm6.59 14.011c-2.626-0.48-4.946-5.043-4.91-6.641 0.082-3.663 8.016-15.979 15.61-15.766 8.775 0.246 12.876 12.527 13.846 16.72 0.66 2.851-2.66 6.152-5.952 6.449-2.68 0.24-4.596-2.333-7.676-3.18-2.572-0.709-8.258 2.905-10.918 2.418zm6.393-23.67c-8.31 0.564-7.227-12.16-3.283-13.638 0.983-2.01 1.968-3.12 1.968-3.12s1.497 1.284 2.657 2.752c4.41 0.63 6.18 13.496-1.342 14.006zm12.775 0.995c-8.244-1.197-4.516-13.41-0.35-14.025 1.382-1.758 2.578-2.636 2.578-2.636s1.194 1.57 2.02 3.25c4.18 1.543 3.212 14.495-4.248 13.411zm8.502 11.732c-7.957-2.466-2.382-13.95 1.83-13.91 1.637-1.522 2.955-2.203 2.955-2.203s0.936 1.737 1.492 3.524c3.89 2.176 0.926 14.82-6.276 12.589z" fill="#ffb380"/>
  </g>
 </g>
</svg>
