<svg xmlns="http://www.w3.org/2000/svg" viewBox="0 0 64 64">
    <g fill-rule="evenodd">
        <path fill="#f9f9f9" stroke="#000" stroke-width=".633" d="M45.873 31.106L40.97 43.21c-5.013 12.37 14.944 11.684 10.046.078zM31.959 40.201l-4.904 12.103c-5.014 12.37 14.944 11.684 10.045.078zM17.696 31.193l-4.904 12.102c-5.013 12.371 14.944 11.684 10.046.078z"/>
        <path fill="#ff24d3" stroke="#000" stroke-width=".5" d="M38.856 11.542c-3.85-5.767 4.605-8.983 7.73-4.477-.911-5.409 6.97-8.436 8.448-1.471 1.134 5.343-4.691 7.407-3.57 15.562-4.286-6.92-9.61-5.122-12.608-9.614z"/>
        <path fill="#fff" fill-opacity=".785" d="M54.38 7.91c-.037-3.184-2.724-6.212-6.849-3.018 2.942-4.796 8.023-1.444 6.85 3.017z"/>
        <path fill="#d42aff" stroke="#000" stroke-width=".5" d="M53.361 14.39c.647-3.76 5.254-1.774 4.795 1.209 1.688-2.487 5.993-.648 3.941 2.672-1.573 2.547-4.69 1.119-7.335 4.77.91-4.382-1.905-5.723-1.4-8.652z"/>
        <path fill="#fff" fill-opacity=".785" d="M61.56 18.186c.567-1.963-.272-2.888-2.08-3.03 1.876-.642 3.615.768 2.08 3.03z"/>
        <path fill="#f06" stroke="#000" stroke-width=".5" d="M40.96 21.904c-2.087-2.373 1.66-4.027 3.345-2.176-.707-2.31 2.785-3.865 3.837-.9.807 2.276-1.782 3.35-.833 6.841-2.35-2.858-4.722-1.915-6.349-3.765z"/>
        <path fill="#fff" fill-opacity=".785" d="M47.577 19.628c-.35-1.543-1.33-1.807-2.72-1.144 1.133-1.213 2.968-1.003 2.72 1.144z"/>
    </g>
</svg>
