<svg version="1.1" viewBox="0 0 64 64" xmlns="http://www.w3.org/2000/svg">
 <path d="m24.643 45.151c-0.38892-4.223-0.571-8.0795-1.4622-13.192-0.15917 1.7829-0.26804 3.6728-0.86291 4.5295 0 0-0.02223-5.6699-0.28758-8.6849-0.19806-2.2505-1.1027-7.1118-1.1027-7.1118-0.23342 4.4053-0.13067 9.495-0.76703 10.644-0.71506-2.8779-1.0504-6.9039-1.7928-10.477-0.54831-2.6386-1.4881-4.4294-2.0902-8.4342-0.56813 5.1537-1.0555 10.295-0.91085 15.344-0.94575-3.3258-1.8678-6.5045-3.164-12.003 0 0-0.14962 4.4445-0.32612 6.4666-0.14309 1.6393-0.63267 4.5176-0.63267 4.5176-0.89396-1.539-2.4899-3.0294-3.3627-4.8939-0.86994-1.8585-1.0168-4.0901-1.8627-6.3167 0.27039 1.4584 0.53726 3.1416 0.71909 10.248-1.061-1.3443-1.9955-3.3604-2.8764-5.6619 0.40557 4.4815 1.7295 9.1506 3.3078 13.872z" fill="#ff8080" fill-opacity=".50196"/>
 <path d="m25.212 45.671c-6.519-1.7949-16.559-3.1758-17.149-3.4857-1.2888-0.67688-3.7302-9.5906-2.5763-12.237 0 0 9.5017 0.40545 13.424 2.7458 4.097 2.4447 6.5451 7.1108 6.3017 12.977z" fill="#ff8080" fill-opacity=".12549"/>
 <path d="m7.1209 36.738c0.1376 0.09632-0.49893-5.154-1.1985-6.6636 1.4723 1.0827 3.3721 0.90584 4.0749 1.1026z" fill="#f55"/>
 <path d="m24.643 45.151c-1.1554-1.0684-3.8459-2.5401-8.4373-3.2839-5.2939-0.85752-8.3529-2.0924-9.0366-5.1535-0.14636-0.65531-0.40469-5.9859 2.1093-5.4891 9.8182 1.9404 13.039 9.7822 15.365 13.926z" fill="#ff8080"/>
 <path d="m24.643 45.151c-1.0331-0.89258-2.3845-1.7848-4.7473-2.574-1.5539-0.51904-3.3915-0.92539-4.1225-1.0734-0.36732-0.07434-0.70912-0.13826-1.2219-0.23759-1.4119-0.27351-3.2409-0.63801-4.6583-1.3545-0.69149-0.34956-1.2536-0.76209-1.7012-1.2504-0.60025-0.65484-0.90926-1.3571-1.0707-1.9235 0.16089 0.56457 0.43527 1.2802 1.0043 1.9807 0.4257 0.52404 0.97098 0.98527 1.659 1.3914 1.4101 0.83228 3.2556 1.3129 4.6647 1.6377 0.46208 0.10649 0.90429 0.20082 1.221 0.26493 0.62294 0.12608 2.6876 0.4736 4.1393 0.85392 2.3288 0.6101 3.8276 1.4157 4.8335 2.2848z" fill="#f55"/>
 <path d="m24.643 45.151c-1.1769-2.4808-3.3013-6.5459-6.5704-9.7105-1.4373-1.3914-2.8645-2.3829-4.2346-3.0662-1.0219-0.5097-1.9159-0.79946-2.5965-0.9683-0.5885-0.14599-1.3554-0.28748-2.263-0.33378-0.24933-0.0088-0.49759 0.03097-0.72868 0.14097-0.20308 0.09667-0.37949 0.2412-0.52888 0.43101-0.27736 0.3524-0.44645 0.84155-0.54617 1.4029-0.10283 0.57892-0.12921 1.2218-0.12667 1.8119 0.00312 0.72414 0.055753 1.5322 0.073037 1.8785-0.018992-0.38056-0.039333-1.1222-0.00149-1.8769 0.029547-0.5892 0.095526-1.2197 0.23555-1.775 0.13733-0.54462 0.33378-0.96886 0.59504-1.2453 0.13722-0.14523 0.28501-0.24196 0.44079-0.30049 0.17693-0.06647 0.36622-0.08439 0.56408-0.06708 0.87658 0.05788 1.6164 0.20222 2.1846 0.34317 0.65752 0.16311 1.5265 0.42817 2.5319 0.90139 1.3483 0.6346 2.7747 1.5645 4.2332 2.9012 3.3137 3.037 5.5635 7.0563 6.7382 9.5324z" fill="#f55"/>
 <path d="m39.897 45.219c0.38892-4.2317 0.571-8.0963 1.4622-13.22 0.15917 1.7866 0.26804 3.6805 0.86291 4.5389 0 0 0.02223-5.6816 0.28758-8.7029 0.19806-2.2552 1.1027-7.1266 1.1027-7.1266 0.23342 4.4144 0.13067 9.5147 0.76703 10.666 0.71506-2.8839 1.0504-6.9182 1.7928-10.498 0.54831-2.6441 1.4881-4.4386 2.0902-8.4516 0.56813 5.1643 1.0555 10.317 0.91085 15.376 0.94575-3.3327 1.8678-6.518 3.164-12.028 0 0 0.14962 4.4537 0.32612 6.48 0.14309 1.6427 0.63267 4.5269 0.63267 4.5269 0.89396-1.5422 2.4899-3.0356 3.3627-4.904 0.86994-1.8624 1.0168-4.0986 1.8627-6.3298-0.27039 1.4614-0.53726 3.1481-0.71909 10.269 1.061-1.3471 1.9955-3.3674 2.8764-5.6737-0.40557 4.4908-1.7295 9.1696-3.3078 13.9z" fill="#ff8080" fill-opacity=".50196"/>
 <path d="m39.328 45.738c6.519-1.7949 16.559-3.1758 17.149-3.4857 1.2888-0.67688 3.7302-9.5906 2.5763-12.237 0 0-9.5017 0.40545-13.424 2.7458-4.097 2.4447-6.5451 7.1108-6.3017 12.977z" fill="#ff8080" fill-opacity=".12549"/>
 <path d="m57.419 36.806c-0.1376 0.09632 0.49893-5.154 1.1985-6.6636-1.4723 1.0827-3.3721 0.90584-4.0749 1.1026z" fill="#f55"/>
 <path d="m39.897 45.219c1.1554-1.0684 3.8459-2.5401 8.4373-3.2839 5.2939-0.85752 8.3529-2.0924 9.0366-5.1535 0.14636-0.65531 0.40469-5.9859-2.1093-5.4891-9.8182 1.9404-13.039 9.7822-15.365 13.926z" fill="#ff8080"/>
 <path d="m39.897 45.219c1.0059-0.8691 2.5046-1.6747 4.8335-2.2848 1.4517-0.38032 3.5164-0.72784 4.1393-0.85392 0.31676-0.06411 0.75897-0.15844 1.221-0.26493 1.4091-0.32474 3.2546-0.8054 4.6647-1.6377 0.68801-0.40609 1.2333-0.86732 1.659-1.3914 0.56906-0.70052 0.84344-1.4161 1.0043-1.9807-0.1614 0.56635-0.47041 1.2686-1.0707 1.9235-0.44762 0.48833-1.0097 0.90086-1.7012 1.2504-1.4173 0.71649-3.2463 1.081-4.6583 1.3545-0.5128 0.09933-0.85459 0.16325-1.2219 0.23759-0.73107 0.14796-2.5686 0.55432-4.1225 1.0734-2.3628 0.78921-3.7142 1.6815-4.7473 2.574z" fill="#f55"/>
 <path d="m39.897 45.219c1.1747-2.4761 3.4245-6.4954 6.7382-9.5324 1.4585-1.3367 2.8848-2.2666 4.2332-2.9012 1.0054-0.47322 1.8744-0.73828 2.5319-0.90139 0.5682-0.14096 1.3081-0.2853 2.1846-0.34317 0.19787-0.01731 0.38715 6.1e-4 0.56408 0.06708 0.15578 0.05852 0.30357 0.15526 0.44079 0.30049 0.26125 0.2765 0.45771 0.70073 0.59504 1.2453 0.14002 0.55529 0.206 1.1858 0.23555 1.775 0.03785 0.75469 0.0175 1.4963-0.0015 1.8769 0.01728-0.34635 0.06992-1.1544 0.07304-1.8785 0.0025-0.5901-0.02384-1.233-0.12667-1.8119-0.09972-0.56139-0.26881-1.0505-0.54617-1.4029-0.1494-0.18982-0.32581-0.33435-0.52888-0.43101-0.23109-0.11-0.47936-0.14975-0.72868-0.14097-0.90757 0.0463-1.6745 0.18779-2.263 0.33378-0.68063 0.16885-1.5746 0.4586-2.5965 0.9683-1.3701 0.68333-2.7973 1.6748-4.2346 3.0662-3.2691 3.1646-5.3935 7.2297-6.5704 9.7105z" fill="#f55"/>
 <g>
  <path d="m16.39 34.761c-1.1831 2.4746-1.3531 3.8644 0.06214 7.1186 1.5636-3.0968 1.7412-4.8457-0.06214-7.1186z" fill="#ffd5d5"/>
  <path d="m48.052 34.829c1.0935 2.4746 1.2506 3.8644-0.05743 7.1186-1.4452-3.0968-1.6094-4.8457 0.05743-7.1186z" fill="#ffd5d5"/>
  <path d="m47.985 35.337c0.64572 2.1447 0.73846 3.3492-0.03391 6.1696-0.85339-2.6839-0.95031-4.1996 0.03391-6.1696z" fill="#1a1a1a"/>
  <path d="m16.462 35.236c-0.69863 2.0778-0.79898 3.2448 0.0367 5.9772 0.92332-2.6002 1.0282-4.0687-0.0367-5.9772z" fill="#1a1a1a"/>
 </g>
</svg>
