<svg xmlns="http://www.w3.org/2000/svg" viewBox="0 0 64 64">
    <g fill-rule="evenodd" stroke="#000" stroke-width=".5">
        <path fill="#999" d="M15.225 2.947c-.11 1.114-.106 2.836-.415 3.307-.437.666-1.87 1.564-2.25 3.115-3.116 3.659-6.878 10.227-6.462 11.404.527 1.493 5.95 6.532 9.094 9.773-1.733 2.883-3.297 5.844.219 11.112.194 4.427.247 8.883.984 13.192-.24 1.562-1.496 4.498-1.496 4.498l6.068.512c.55-2.472 1.241-4.568 1.608-7.53 1.265-5.83 1.973-10.96 1.791-15.825 2.75-1.108 4.925-4.088 4.978-6.861.093-4.957-3.563-6.677-4.576-10.566 1.226-.703 1.307-1.69 1.226-2.833-.082-1.15-1.97-2.796-3.22-4.124-1.276-1.352-1.836-2.382-2.233-2.873-.243-.3-1.014-.56-1.014-.56-.134-1.136-.281-2.135.343-2.996zm-.754 14.471c1.258 3.722 2.07 7.414 1.963 10.649-1.644-2.434-2.788-4.65-4.962-7.314 1.226-1.215 2.018-2.157 2.481-3.206z"/>
        <path fill="#fbfbf7" d="M47.972 48.711c-7.395 14.469 18.81 13.987 11.575 0L53.68 37.458zM37.695 29.765c-6.672 13.022 16.96 12.54 10.45 0l-5.306-10.208z"/>
    </g>
</svg>
