<svg xmlns="http://www.w3.org/2000/svg" viewBox="0 0 64 64">
    <g fill-rule="evenodd" stroke="#000" stroke-width=".5">
        <path fill="#999" d="M15.266 2.948c-.11 1.114-.107 2.836-.416 3.307-.436.666-1.87 1.563-2.249 3.114-3.116 3.66-6.878 10.228-6.463 11.404.528 1.494 5.95 6.533 9.094 9.774-1.732 2.883-3.296 5.844.22 11.112.193 4.427.247 8.882.984 13.192-.24 1.562-1.496 4.498-1.496 4.498l6.067.512c.55-2.472 1.242-4.568 1.608-7.53.955-5.933 1.76-10.492 1.785-15.28 5.618-.332 6.793-4.814 6.845-7.588.093-4.956-3.562-6.883-6.436-10.384 1.225-.704 1.307-1.69 1.225-2.833-.082-1.15-1.969-2.796-3.22-4.124-1.276-1.352-1.836-2.382-2.233-2.873-.242-.3-1.014-.56-1.014-.56-.134-1.136-.28-2.135.343-2.996zM14.51 17.42c1.259 3.721 2.07 7.413 1.964 10.649-1.644-2.434-2.789-4.65-4.962-7.315 1.226-1.214 2.018-2.156 2.48-3.205z"/>
        <path fill="#fbfbf7" d="M47.995 48.723c-7.395 14.469 18.809 13.987 11.575 0L53.702 37.47zM37.717 29.777c-6.671 13.022 16.96 12.54 10.45 0L42.862 19.57zM49.195 14.477c-5.948 11.815 15.353 11.414 9.485 0l-4.823-9.164z"/>
    </g>
</svg>
