<svg xmlns="http://www.w3.org/2000/svg" viewBox="0 0 64 64">
    <g fill-rule="evenodd">
        <path fill="#f06" stroke="#000" d="M5.65 24.726c-7.926-11.784 9.482-18.357 15.914-9.148C19.69 4.524 35.916-1.663 38.96 12.57c2.335 10.919-9.657 15.138-7.35 31.802-8.823-14.14-19.784-10.466-25.959-19.647z"/>
        <path fill="#c0f" stroke="#000" d="M10.42 48.63c-2.924-5.019 4.635-7.258 7.02-3.33-.402-4.566 6.645-6.678 7.428-.783.6 4.522-4.596 5.939-4.209 12.809-3.218-6.005-7.961-4.785-10.24-8.695z"/>
        <path fill="#fff" fill-opacity=".785" d="M23.646 47.155c-.494-3.284-2.354-4.085-5.106-3.075 2.322-2.217 5.832-1.306 5.106 3.075zM35.702 12.339c-2.73-5.363-6.954-5.102-12.055-.834 3.59-6.013 11.247-7.567 12.055.834z"/>
        <path fill="#95f" stroke="#000" d="M39.128 49.765c-.219-4.354 5.978-3.223 6.217.218 1.405-3.177 7.19-2.139 5.565 2.055-1.248 3.217-5.462 2.357-7.73 7.062-.062-5.111-3.882-5.944-4.052-9.335z"/>
        <path fill="#fff" fill-opacity=".785" d="M49.501 53.115c.865-2.356-.16-3.534-2.488-3.816 2.47-.67 4.625 1.153 2.488 3.816z"/>
        <path fill="#f0c" stroke="#000" d="M39.54 26.336c-.327-7.284 8.953-5.392 9.312.365 2.104-5.315 10.769-3.578 8.334 3.438-1.869 5.382-8.18 3.945-11.576 11.817-.094-8.553-5.815-9.946-6.07-15.62z"/>
        <path fill="#fff" fill-opacity=".785" d="M54.755 32.054c1.296-3.943-.239-5.914-3.726-6.386 3.698-1.12 6.927 1.93 3.726 6.386z"/>
    </g>
</svg>
