<svg xmlns="http://www.w3.org/2000/svg" xmlns:xlink="http://www.w3.org/1999/xlink" viewBox="0 0 256 256">
    <defs>
        <linearGradient id="linearGradient4353" x1="159.57" x2="75.049" y1="168.301" y2="167.229" gradientTransform="matrix(0 1.0947 -1.51449 0 375.349 16.099)" gradientUnits="userSpaceOnUse" xlink:href="#twinComets2"/>
        <linearGradient id="twinComets2">
            <stop offset="0" stop-color="#f46e16"/>
            <stop offset="1" stop-color="#f4900c"/>
        </linearGradient>
        <linearGradient id="linearGradient4337" x1="150" x2="129.286" y1="167.429" y2="166.357" gradientTransform="matrix(0 1.0947 -1.51449 0 374.611 16.72)" gradientUnits="userSpaceOnUse" xlink:href="#twinComets1"/>
        <linearGradient id="twinComets1">
            <stop offset="0" stop-color="#ffb14d"/>
            <stop offset="1" stop-color="#ffcc4d"/>
        </linearGradient>
    </defs>
    <g fill-rule="evenodd">
        <path fill="url(#linearGradient4353)" d="M90.934 99.277c-26.413 20.761-28.058 82.48 28.381 89.265 34.26 4.117 70.179-14.995 62.475-63.539-3.118 22.112-26.865 18.361-25.2-1.116 1.266-14.792 17.496-36.452-20.61-82.116 22.88 43.949-19.585 52.2-11.85 21.622-11.682 6.595-19.48 22.706-15.357 41.521 4.008 18.293-5.789 21.588-11.895 20.429-7.34-1.393-14.007-10.286-5.944-26.066z" transform="matrix(.729 0 0 .729 33.983 96.29)"/>
        <path fill="url(#linearGradient4337)" d="M83.849 171.242c.421-11.932 6.998-26.617 17.383-33.396-2.28 44.265 36.032 12.393 25.713-35.054 28.023 40.953 4.93 62.114 19.153 65.633 5.45 1.348 7.453-5.678 3.195-20.422 10.503 9.536 13.668 19.45 11.684 32.179-13.325 8.45-27.74 10.212-42.81 8.244-19.328-2.524-29.62-11.252-34.318-17.184z" transform="matrix(.729 0 0 .729 33.983 96.29)"/>
        <path fill="#f47d12" d="M76.383 123.82l.115-16.44 52.331-23.982 54.223 23.238-.123 17.645-54.187-24.56z"/>
        <path fill="#ffa121" d="M76.807 95.377l.115-16.44 52.331-23.983 54.223 23.238-.123 17.645-54.187-24.56z"/>
        <path fill="#fec252" d="M76.948 67.427l.115-16.44 52.331-23.982 54.223 23.238-.123 17.645-54.187-24.56z"/>
    </g>
</svg>
