<svg version="1.1" viewBox="0 0 64 64" xmlns="http://www.w3.org/2000/svg">
 <g transform="matrix(.729 0 0 .729 15.775 15.638)">
  <path d="m27.93 2.412c-0.114 1.17-0.111 2.978-0.436 3.473-0.458 0.699-1.963 1.641-2.361 3.27-3.273 3.842-7.222 10.739-6.786 11.974 0.554 1.568 6.248 6.86 9.548 10.262-1.819 3.027-3.461 6.136 0.23 11.668 0.204 4.648 0.26 9.326 1.034 13.851-0.252 1.64-1.57 4.724-1.57 4.724l6.37 0.537c0.578-2.596 1.304-4.797 1.689-7.906 1.002-6.23 1.848-11.017 1.874-16.045 5.899-0.349 7.132-5.054 7.187-7.967 0.098-5.204-3.74-7.227-6.758-10.903 1.287-0.74 1.372-1.774 1.287-2.975-0.086-1.207-2.068-2.936-3.382-4.33-1.34-1.42-1.927-2.502-2.344-3.017-0.255-0.315-1.065-0.587-1.065-0.587-0.14-1.193-0.295-2.243 0.36-3.147zm-0.792 15.195c1.322 3.907 2.174 7.784 2.062 11.18-1.726-2.555-2.928-4.882-5.21-7.68 1.287-1.275 2.119-2.263 2.605-3.365z" fill="#999" fill-rule="evenodd" stroke="#000" stroke-width=".525"/>
  <g>
   <path transform="matrix(.56738 0 0 .56738 17.057 -549.68)" d="m17.628 1008 28.23 30.794 4.61-4.543-28.441-30.762z" fill="#ff8080" fill-rule="evenodd" stroke="#000" stroke-width=".795"/>
   <path transform="matrix(.56738 0 0 .56738 17.057 -549.68)" d="m17.793 1005.5a22.2 22.245 84.26 0 0-6.178 17.686 22.2 22.245 84.26 0 0 24.354 19.866 22.2 22.245 84.26 0 0 19.914-24.316 22.2 22.245 84.26 0 0-24.354-19.864 22.2 22.245 84.26 0 0-13.736 6.628zm3.396 2.558a17.992 18.028 84.26 0 1 10.76-4.998 17.992 18.028 84.26 0 1 19.735 16.098 17.992 18.028 84.26 0 1-16.135 19.707 17.992 18.028 84.26 0 1-19.739-16.1 17.992 18.028 84.26 0 1 5.38-14.706z" fill="#ff0e5f" stroke="#000" stroke-linejoin="round" stroke-width=".774"/>
   <path d="m27.608 22.515 15.222 16.597 2.308-2.263-15.333-16.582z" fill="#ff0e5f" fill-rule="evenodd"/>
  </g>
 </g>
 <g transform="translate(10.712 -12.61)" fill-rule="evenodd" stroke="#000">
  <path d="m17.902 48.729c-10.651-0.14585-16.724-8.9359-16.73-16.76-0.0059049-7.935 6.2096-16.786 16.754-16.91 8.0838-0.09566 16.247 5.9675 16.701 17.589 0.02067 0.53853 1.6179 0 1.6179 0l-2.4009 3.7969-2.4269-3.8754s1.6729 0.53676 1.6179 0c-1.0198-9.9551-7.5783-15.522-15.083-15.501-8.5231 0.02362-14.71 7.6823-14.693 14.953 0.017715 7.1597 5.0475 13.821 14.746 14.75 0.45054 0.0431 0.34839 1.964-0.10393 1.9575z" fill="#ff8080" stroke-width=".59049"/>
  <path d="m11.789 39.849s7.6043-5.3026 8.0295-6.1322c0.51963-1.0127 0.14172-14.893 0.14172-14.893 0.0059-0.59462-3.2595-0.67021-3.2583-0.12991 0 0 0.33776 13.197 0.03838 13.567-0.509 0.62946-6.8704 5.3534-6.8704 5.3534-0.39858 0.34662 1.2973 2.7659 1.9191 2.235z" fill="#faa" stroke-width=".53557"/>
 </g>
</svg>
