<svg xmlns="http://www.w3.org/2000/svg" viewBox="0 0 64 64">
    <g fill-rule="evenodd">
        <path fill="#ff2a2a" stroke="#000" stroke-width=".923" d="M34.38 45.897l3.387-4.077-11.935.213 15.65-14.084-17.661.276-3.148 2.93 12.67-.206L15.446 46.16z"/>
        <path fill="#fff" fill-opacity=".785" d="M39.55 28.73c-2.668-.09-12.758.193-15.306.21 6.057.707 14.933.144 15.305-.21z"/>
        <path fill="#ff2a2a" stroke="#000" stroke-width=".822" d="M16.03 60.67l2.62-2.74-8.573.2 11.887-9.482-12.685.268-2.396 1.971 9.1-.196L2.433 60.935z"/>
        <path fill="#fff" fill-opacity=".785" d="M20.541 49.179c-1.91-.047-9.163.189-10.993.212 4.314.444 10.71.026 10.993-.212z"/>
        <path fill="#ff2a2a" stroke="#000" d="M52.758 25.425l3.757-5.182-13.118.42 17.318-17.95-19.411.57-3.485 3.733 13.926-.419-19.796 19.4z"/>
        <path fill="#fff" fill-opacity=".785" d="M58.585 3.72c-2.931-.078-14.021.406-16.823.46 6.652.814 16.41-.008 16.823-.46z"/>
    </g>
</svg>
