<?xml version="1.0" encoding="UTF-8" standalone="no"?>
<!-- Created with Inkscape (http://www.inkscape.org/) -->

<svg
   xmlns:dc="http://purl.org/dc/elements/1.1/"
   xmlns:cc="http://creativecommons.org/ns#"
   xmlns:rdf="http://www.w3.org/1999/02/22-rdf-syntax-ns#"
   xmlns:svg="http://www.w3.org/2000/svg"
   xmlns="http://www.w3.org/2000/svg"
   xmlns:sodipodi="http://sodipodi.sourceforge.net/DTD/sodipodi-0.dtd"
   xmlns:inkscape="http://www.inkscape.org/namespaces/inkscape"
   width="100%"
   height="100%"
   viewBox="0 0 64.000001 64.000001"
   id="svg4311"
   version="1.1"
   inkscape:version="0.91 r13725"
   sodipodi:docname="overworked.svg">
  <defs
     id="defs4313" />
  <sodipodi:namedview
     id="base"
     pagecolor="#ffffff"
     bordercolor="#666666"
     borderopacity="1.0"
     inkscape:pageopacity="0.0"
     inkscape:pageshadow="2"
     inkscape:zoom="1.4142136"
     inkscape:cx="-100.65809"
     inkscape:cy="89.907628"
     inkscape:document-units="px"
     inkscape:current-layer="layer1"
     showgrid="false"
     units="px"
     inkscape:window-width="2560"
     inkscape:window-height="1388"
     inkscape:window-x="-8"
     inkscape:window-y="-8"
     inkscape:window-maximized="1" />
  <metadata
     id="metadata4316">
    <rdf:RDF>
      <cc:Work
         rdf:about="">
        <dc:format>image/svg+xml</dc:format>
        <dc:type
           rdf:resource="http://purl.org/dc/dcmitype/StillImage" />
        <dc:title></dc:title>
      </cc:Work>
    </rdf:RDF>
  </metadata>
  <g
     inkscape:label="Layer 1"
     inkscape:groupmode="layer"
     id="layer1"
     transform="translate(0,-988.36216)"
     style="display:inline">
    <path
       style="fill:#ff8080;fill-rule:evenodd;stroke:#000000;stroke-width:1px;stroke-linecap:butt;stroke-linejoin:miter;stroke-opacity:1"
       d="M 31.955527,1049.0141 C 13.918731,1048.7669 3.6338955,1033.8808 3.6239221,1020.6307 3.6138075,1007.1931 14.140285,992.2039 31.99658,991.99292 c 13.691127,-0.16177 27.515766,10.10628 28.28427,29.78688 0.03564,0.9126 2.740039,0 2.740039,0 l -4.065864,6.4302 -4.110058,-6.5628 c 0,0 2.833136,0.9085 2.740038,0 -1.7275,-16.8587 -12.834238,-26.28618 -25.544231,-26.25132 -14.434154,0.0396 -24.9122412,13.01032 -24.8813182,25.32322 0.030451,12.125 8.5475342,23.4063 24.9728472,24.9804 0.763098,0.073 0.589754,3.3251 -0.176776,3.3146 z"
       id="path4139"
       inkscape:connector-curvature="0"
       sodipodi:nodetypes="sssscccsssss" />
    <path
       style="display:inline;fill:#ffaaaa;fill-rule:evenodd;stroke:#000000;stroke-width:0.90727377;stroke-linecap:butt;stroke-linejoin:miter;stroke-miterlimit:4;stroke-dasharray:none;stroke-opacity:1"
       d="m 21.604319,1033.9756 c 0,0 12.877594,-8.9797 13.598059,-10.3841 0.879855,-1.715 0.238857,-25.22178 0.238857,-25.22178 0.01124,-1.00651 -5.518992,-1.13472 -5.517591,-0.2195 0,0 0.572021,22.34898 0.0658,22.97458 -0.862797,1.0664 -11.635336,9.0658 -11.635336,9.0658 -0.674637,0.5871 2.197156,4.6841 3.250169,3.785 z"
       id="path4143-1"
       inkscape:connector-curvature="0"
       sodipodi:nodetypes="cssssssc" />
    <path
       style="fill:#ff2a2a;fill-rule:evenodd;stroke:#000000;stroke-width:1px;stroke-linecap:butt;stroke-linejoin:miter;stroke-opacity:1"
       d="m 43.35225,1023.2997 c 1.218924,-2.0388 6.063438,-1.9992 7.522747,-0.125 1.228743,1.5781 -0.59713,18.0931 -1.867743,18.8419 -1.197214,0.7056 -2.438216,0.5663 -3.20459,0.081 -1.3288,-0.8414 -3.344495,-17.3025 -2.450414,-18.7979 z"
       id="path4160"
       inkscape:connector-curvature="0"
       sodipodi:nodetypes="sssss" />
    <ellipse
       style="opacity:1;fill:#ff2a2a;fill-opacity:1;stroke:#000000;stroke-width:1;stroke-linecap:round;stroke-linejoin:round;stroke-miterlimit:4;stroke-dasharray:none;stroke-dashoffset:0;stroke-opacity:1"
       id="path4162"
       cx="47.281246"
       cy="1047.5497"
       rx="3.2812498"
       ry="3.1249998" />
  </g>
</svg>
