<svg xmlns="http://www.w3.org/2000/svg" viewBox="0 0 64 64">
    <g transform="translate(0 -988.362)">
        <ellipse cx="32.26" cy="1020.302" fill="#ffd5d5" stroke="#000" stroke-linecap="round" stroke-linejoin="round" stroke-width=".722" rx="19.492" ry="19.215"/>
        <ellipse cx="32.26" cy="1020.302" fill="#ff8080" stroke="#000" stroke-linecap="round" stroke-linejoin="round" stroke-width=".656" rx="17.72" ry="17.469"/>
        <path fill="none" stroke="#ff2a2a" stroke-linecap="square" stroke-linejoin="round" stroke-width="2.718" d="M22.785 1032.622c0-.223 9.225-27.973 9.225-27.973l9.63 27.95-24.208-17.926 29.423-.236z"/>
        <path fill="#f55" fill-rule="evenodd" stroke="#000" stroke-width=".5" d="M1.563 1001.814c6.588-1.002 6.924-1.35 7.798-7.542.74 6.124 1.464 6.581 7.457 7.576-5.967.77-6.678 1.092-7.644 8.019-.561-7.07-1.05-7.157-7.61-8.053z"/>
        <path fill="#ffd5d5" fill-rule="evenodd" stroke="#000" stroke-width=".5" d="M13.724 995.602c4.94-.751 5.192-1.013 5.848-5.656.556 4.593 1.098 4.936 5.593 5.682-4.475.577-5.01.819-5.733 6.014-.421-5.302-.789-5.368-5.708-6.04zM47.31 1003.203c4.941-.751 5.194-1.012 5.849-5.656.556 4.593 1.098 4.936 5.593 5.682-4.475.578-5.009.819-5.733 6.014-.421-5.302-.788-5.368-5.708-6.04z"/>
        <path fill="#f55" fill-rule="evenodd" stroke="#000" stroke-width=".5" d="M2.182 1036.992c6.588-1.002 6.924-1.35 7.798-7.541.74 6.123 1.463 6.58 7.457 7.575-5.967.77-6.679 1.092-7.644 8.02-.561-7.07-1.051-7.158-7.611-8.054z"/>
        <path fill="#ffd5d5" fill-rule="evenodd" stroke="#000" stroke-width=".5" d="M43.51 1043.243c4.94-.751 5.193-1.012 5.848-5.656.556 4.593 1.098 4.936 5.593 5.682-4.475.577-5.009.819-5.733 6.014-.42-5.302-.788-5.368-5.708-6.04z"/>
        <path fill="#ff8080" fill-rule="evenodd" stroke="#000" stroke-width=".5" d="M49.465 1034.732c5.6-.851 5.885-1.147 6.628-6.41.63 5.205 1.244 5.594 6.339 6.44-5.072.654-5.677.928-6.498 6.816-.477-6.01-.893-6.084-6.47-6.846z"/>
    </g>
</svg>
