<svg xmlns="http://www.w3.org/2000/svg" viewBox="0 0 64 64">
    <g fill-rule="evenodd">
        <path fill="#999" stroke="#000" stroke-width=".5" d="M15.225 2.947c-.11 1.114-.106 2.836-.415 3.307-.437.666-1.87 1.564-2.25 3.115-3.116 3.659-6.878 10.227-6.462 11.404.527 1.493 5.95 6.532 9.094 9.773-1.733 2.883-3.297 5.844.219 11.112.194 4.427.247 8.883.984 13.192-.24 1.562-1.496 4.498-1.496 4.498l6.068.512c.55-2.472 1.241-4.568 1.608-7.53 1.265-5.83 1.973-10.96 1.791-15.825 2.75-1.108 4.925-4.088 4.978-6.861.093-4.957-3.563-6.677-4.576-10.566 1.226-.703 1.307-1.69 1.226-2.833-.082-1.15-1.97-2.796-3.22-4.124-1.276-1.352-1.836-2.382-2.233-2.873-.243-.3-1.014-.56-1.014-.56-.134-1.136-.281-2.135.343-2.996zm-.754 14.471c1.258 3.722 2.07 7.414 1.963 10.649-1.644-2.434-2.788-4.65-4.962-7.314 1.226-1.215 2.018-2.157 2.481-3.206z"/>
        <g stroke-width=".617">
            <path fill="#f06" stroke="#000" stroke-width=".49977000000000005" d="M41.804 30.997c.093-6.444 8.002-3.96 8.015 1.142 2.089-4.496 9.475-2.203 7.013 3.762-1.89 4.576-7.26 2.753-10.596 9.387.36-7.54-4.504-9.271-4.432-14.291z"/>
            <path fill="#fff" fill-opacity=".785" d="M54.889 36.37c1.579-2.836.459-4.557-2.54-5.401 3.363-.345 5.844 2.437 2.54 5.402z"/>
        </g>
        <path fill="#f06" stroke="#000" stroke-width=".49973885" d="M41.745 51.991c-2.815-4.21 3.41-6.132 5.695-2.838-.655-3.84 5.147-5.653 6.216-.695.82 3.803-3.468 5.02-2.665 10.801-3.133-5.038-7.052-3.988-9.246-7.268z"/>
        <path fill="#fff" fill-opacity=".785" d="M52.609 49.628c-.245-2.54-1.737-3.153-4.054-2.361 2.022-1.724 4.868-1.031 4.054 2.361z"/>
    </g>
</svg>
