<?xml version="1.0" encoding="UTF-8" standalone="no"?>
<!-- Created with Inkscape (http://www.inkscape.org/) -->

<svg
   xmlns:dc="http://purl.org/dc/elements/1.1/"
   xmlns:cc="http://creativecommons.org/ns#"
   xmlns:rdf="http://www.w3.org/1999/02/22-rdf-syntax-ns#"
   xmlns:svg="http://www.w3.org/2000/svg"
   xmlns="http://www.w3.org/2000/svg"
   xmlns:sodipodi="http://sodipodi.sourceforge.net/DTD/sodipodi-0.dtd"
   xmlns:inkscape="http://www.inkscape.org/namespaces/inkscape"
   width="100%"
   height="100%"
   viewBox="0 0 64.000001 64.000001"
   id="svg4311"
   version="1.1"
   inkscape:version="0.92.3 (2405546, 2018-03-11)"
   sodipodi:docname="raceFoxTail6.svg">
  <defs
     id="defs4313">
    <inkscape:path-effect
       effect="powerstroke"
       id="path-effect4155"
       is_visible="true"
       offset_points="0.92799346,1.2886104"
       sort_points="true"
       interpolator_type="Linear"
       interpolator_beta="0.2"
       start_linecap_type="zerowidth"
       linejoin_type="round"
       miter_limit="4"
       end_linecap_type="zerowidth"
       cusp_linecap_type="round" />
    <inkscape:path-effect
       effect="powerstroke"
       id="path-effect4151"
       is_visible="true"
       offset_points="0,0.5"
       sort_points="true"
       interpolator_type="CubicBezierJohan"
       interpolator_beta="0.2"
       start_linecap_type="zerowidth"
       linejoin_type="round"
       miter_limit="4"
       end_linecap_type="zerowidth"
       cusp_linecap_type="round" />
    <inkscape:path-effect
       effect="powerstroke"
       id="path-effect4147"
       is_visible="true"
       offset_points="0,0.5"
       sort_points="true"
       interpolator_type="CubicBezierJohan"
       interpolator_beta="0.2"
       start_linecap_type="zerowidth"
       linejoin_type="round"
       miter_limit="4"
       end_linecap_type="zerowidth"
       cusp_linecap_type="round" />
    <inkscape:path-effect
       effect="powerstroke"
       id="path-effect4183"
       is_visible="true"
       offset_points="0.238227,0.51804536"
       sort_points="true"
       interpolator_type="Linear"
       interpolator_beta="0.2"
       start_linecap_type="zerowidth"
       linejoin_type="round"
       miter_limit="4"
       end_linecap_type="zerowidth"
       cusp_linecap_type="round" />
  </defs>
  <sodipodi:namedview
     id="base"
     pagecolor="#ffffff"
     bordercolor="#666666"
     borderopacity="1.0"
     inkscape:pageopacity="0.0"
     inkscape:pageshadow="2"
     inkscape:zoom="5.6"
     inkscape:cx="40.40544"
     inkscape:cy="33.529845"
     inkscape:document-units="px"
     inkscape:current-layer="layer5"
     showgrid="false"
     units="px"
     inkscape:window-width="2560"
     inkscape:window-height="1388"
     inkscape:window-x="-8"
     inkscape:window-y="-8"
     inkscape:window-maximized="1"
     inkscape:snap-nodes="false" />
  <metadata
     id="metadata4316">
    <rdf:RDF>
      <cc:Work
         rdf:about="">
        <dc:format>image/svg+xml</dc:format>
        <dc:type
           rdf:resource="http://purl.org/dc/dcmitype/StillImage" />
        <dc:title></dc:title>
      </cc:Work>
    </rdf:RDF>
  </metadata>
  <g
     inkscape:groupmode="layer"
     id="layer5"
     inkscape:label="Stage5"
     style="display:inline;opacity:1">
    <flowRoot
       xml:space="preserve"
       id="flowRoot4156"
       style="font-style:normal;font-weight:normal;line-height:0.01%;font-family:sans-serif;letter-spacing:0px;word-spacing:0px;fill:#000000;fill-opacity:1;stroke:none;stroke-width:1px;stroke-linecap:butt;stroke-linejoin:miter;stroke-opacity:1"><flowRegion
         id="flowRegion4158"><rect
           id="rect4160"
           width="42.678944"
           height="44.067905"
           x="6.5659914"
           y="11.21953" /></flowRegion><flowPara
         id="flowPara4162"
         style="font-size:40px;line-height:1.25" /></flowRoot>    <flowRoot
       xml:space="preserve"
       id="flowRoot4168"
       style="font-style:normal;font-weight:normal;line-height:0.01%;font-family:sans-serif;letter-spacing:0px;word-spacing:0px;fill:#000000;fill-opacity:1;stroke:none;stroke-width:1px;stroke-linecap:butt;stroke-linejoin:miter;stroke-opacity:1"><flowRegion
         id="flowRegion4170"><rect
           id="rect4172"
           width="63.765881"
           height="63.63961"
           x="0.25253814"
           y="-0.27095523" /></flowRegion><flowPara
         id="flowPara4174"
         style="font-size:40px;line-height:1.25" /></flowRoot>    <ellipse
       style="color:#000000;clip-rule:nonzero;display:inline;overflow:visible;visibility:visible;opacity:1;isolation:auto;mix-blend-mode:normal;color-interpolation:sRGB;color-interpolation-filters:linearRGB;solid-color:#000000;solid-opacity:1;vector-effect:none;fill:#ffb380;fill-opacity:1;fill-rule:evenodd;stroke:#000000;stroke-width:2;stroke-linecap:butt;stroke-linejoin:miter;stroke-miterlimit:4;stroke-dasharray:none;stroke-dashoffset:0;stroke-opacity:1;color-rendering:auto;image-rendering:auto;shape-rendering:auto;text-rendering:auto;enable-background:accumulate"
       id="path4184"
       cx="31.97764"
       cy="31.89609"
       rx="29.831066"
       ry="29.831068" />
    <path
       style="display:inline;fill:#ff5555;fill-opacity:1;fill-rule:evenodd;stroke:#000000;stroke-width:0.32804999;stroke-linecap:butt;stroke-linejoin:miter;stroke-miterlimit:4;stroke-dasharray:none;stroke-opacity:1"
       d="m 51.800358,18.874603 c -0.75059,-6.991639 -11.19033,-11.5851657 -15.354539,-6.114835 -4.579093,6.015361 -1.721099,13.908851 -5.725537,20.024163 -1.728988,2.640517 -4.054347,3.987719 -6.957987,3.729079 3.823289,1.975373 10.668832,4.406934 15.051264,-0.548164 5.694984,-6.438953 3.171846,-12.200651 7.204091,-17.651075 1.912578,-2.585544 4.061719,-0.624604 5.782708,0.560832 z"
       id="path4159-7-4-5-6-4-1-8"
       inkscape:connector-curvature="0"
       sodipodi:nodetypes="csscssc" />
    <path
       style="display:inline;fill:#ffaaaa;fill-opacity:1;fill-rule:evenodd;stroke:#000000;stroke-width:0.32804999;stroke-linecap:butt;stroke-linejoin:miter;stroke-miterlimit:4;stroke-dasharray:none;stroke-opacity:1"
       d="m 42.599717,20.078402 c 1.560264,-2.833653 3.739956,-5.784194 6.524702,-4.147606 -3.238397,-4.271491 -7.343628,-5.29776 -10.665384,-2.407336 1.2235,-0.126886 2.332811,-0.144845 3.057981,0.204291 -0.474865,1.216721 -0.938153,1.963364 -1.403838,2.806849 0.89915,-0.02836 1.798336,-0.0576 2.706886,-0.470957 -0.208341,1.36174 -0.157475,2.678304 -0.220343,4.014756 z"
       id="path4333-8-6-5-1-5-3"
       inkscape:connector-curvature="0"
       sodipodi:nodetypes="ccccccc" />
    <g
       style="display:inline;opacity:1"
       id="g829-0-5-7-4-8-9"
       transform="matrix(0.54421659,-0.36646352,0.36646352,0.54421659,-6.5959312,23.07757)">
      <path
         sodipodi:nodetypes="csscssc"
         inkscape:connector-curvature="0"
         id="path4159-7-4-5-6-4-5-8-6"
         d="m 56.140156,24.916736 c -0.370192,-10.7112 -15.73389,-18.8451006 -22.667283,-10.9884 -7.62416,8.6395 -4.149796,20.954 -10.911414,29.808799 -2.919467,3.8234 -6.602932,5.615 -10.988423,4.9017 5.594242,3.4244 15.732517,7.8755 22.940844,0.8261 9.367212,-9.1604 6.166885,-18.197299 12.897439,-26.038299 3.192481,-3.7196 6.243344,-0.5017 8.728837,1.4901 z"
         style="display:inline;fill:#ff8080;fill-opacity:1;fill-rule:evenodd;stroke:#000000;stroke-width:0.5;stroke-linecap:butt;stroke-linejoin:miter;stroke-miterlimit:4;stroke-dasharray:none;stroke-opacity:1" />
      <path
         sodipodi:nodetypes="ccccccc"
         inkscape:connector-curvature="0"
         id="path4333-8-6-5-1-8-1-0"
         d="m 42.020948,25.732336 c 2.684268,-4.1356 6.32305,-8.3806 10.375887,-5.5857 -4.451956,-6.8504 -10.579446,-8.8631 -15.947727,-4.8354 1.873909,-0.058 3.562218,0.037 4.626114,0.6477 -0.855935,1.7973 -1.642618,2.8812 -2.443525,4.1121 1.369978,0.056 2.740114,0.1107 4.166831,-0.4175 -0.466837,2.0471 -0.53468,4.0541 -0.77758,6.0788 z"
         style="display:inline;fill:#ffd5d5;fill-opacity:1;fill-rule:evenodd;stroke:#000000;stroke-width:0.5;stroke-linecap:butt;stroke-linejoin:miter;stroke-miterlimit:4;stroke-dasharray:none;stroke-opacity:1" />
    </g>
    <g
       style="display:inline;opacity:1"
       id="g829-3-0-8-0-5"
       transform="matrix(0.64527341,-0.11869889,0.11869889,0.64527341,6.1757347,15.462011)">
      <path
         sodipodi:nodetypes="csscssc"
         inkscape:connector-curvature="0"
         id="path4159-7-4-2-3-6-5-23"
         d="m 56.140156,24.916736 c -0.370192,-10.7112 -15.73389,-18.8451006 -22.667283,-10.9884 -7.62416,8.6395 -4.149796,20.954 -10.911414,29.808799 -2.919467,3.8234 -6.602932,5.615 -10.988423,4.9017 5.594242,3.4244 15.732517,7.8755 22.940844,0.8261 9.367212,-9.1604 6.166885,-18.197299 12.897439,-26.038299 3.192481,-3.7196 6.243344,-0.5017 8.728837,1.4901 z"
         style="display:inline;fill:#ff8080;fill-opacity:1;fill-rule:evenodd;stroke:#000000;stroke-width:0.5;stroke-linecap:butt;stroke-linejoin:miter;stroke-miterlimit:4;stroke-dasharray:none;stroke-opacity:1" />
      <path
         sodipodi:nodetypes="ccccccc"
         inkscape:connector-curvature="0"
         id="path4333-8-0-2-0-5-1"
         d="m 42.020948,25.732336 c 2.684268,-4.1356 6.32305,-8.3806 10.375887,-5.5857 -4.451956,-6.8504 -10.579446,-8.8631 -15.947727,-4.8354 1.873909,-0.058 3.562218,0.037 4.626114,0.6477 -0.855935,1.7973 -1.642618,2.8812 -2.443525,4.1121 1.369978,0.056 2.740114,0.1107 4.166831,-0.4175 -0.466837,2.0471 -0.53468,4.0541 -0.77758,6.0788 z"
         style="display:inline;fill:#ffd5d5;fill-opacity:1;fill-rule:evenodd;stroke:#000000;stroke-width:0.5;stroke-linecap:butt;stroke-linejoin:miter;stroke-miterlimit:4;stroke-dasharray:none;stroke-opacity:1" />
    </g>
    <g
       style="display:inline;opacity:1"
       id="g829-1-7-8-8-4-5"
       transform="matrix(0.61293998,0.23403374,-0.23403374,0.61293998,21.81739,12.610417)">
      <path
         sodipodi:nodetypes="csscssc"
         inkscape:connector-curvature="0"
         id="path4159-7-4-3-6-8-3-5-24"
         d="m 56.140156,24.916736 c -0.370192,-10.7112 -15.73389,-18.8451006 -22.667283,-10.9884 -7.62416,8.6395 -4.149796,20.954 -10.911414,29.808799 -2.919467,3.8234 -6.602932,5.615 -10.988423,4.9017 5.594242,3.4244 15.732517,7.8755 22.940844,0.8261 9.367212,-9.1604 6.166885,-18.197299 12.897439,-26.038299 3.192481,-3.7196 6.243344,-0.5017 8.728837,1.4901 z"
         style="display:inline;fill:#ff8080;fill-opacity:1;fill-rule:evenodd;stroke:#000000;stroke-width:0.5;stroke-linecap:butt;stroke-linejoin:miter;stroke-miterlimit:4;stroke-dasharray:none;stroke-opacity:1" />
      <path
         sodipodi:nodetypes="ccccccc"
         inkscape:connector-curvature="0"
         id="path4333-8-8-1-3-7-4-5"
         d="m 42.020948,25.732336 c 2.684268,-4.1356 6.32305,-8.3806 10.375887,-5.5857 -4.451956,-6.8504 -10.579446,-8.8631 -15.947727,-4.8354 1.873909,-0.058 3.562218,0.037 4.626114,0.6477 -0.855935,1.7973 -1.642618,2.8812 -2.443525,4.1121 1.369978,0.056 2.740114,0.1107 4.166831,-0.4175 -0.466837,2.0471 -0.53468,4.0541 -0.77758,6.0788 z"
         style="display:inline;fill:#ffd5d5;fill-opacity:1;fill-rule:evenodd;stroke:#000000;stroke-width:0.5;stroke-linecap:butt;stroke-linejoin:miter;stroke-miterlimit:4;stroke-dasharray:none;stroke-opacity:1" />
    </g>
    <path
       style="display:inline;fill:#ffaaaa;fill-opacity:1;fill-rule:evenodd;stroke:#000000;stroke-width:0.32804999;stroke-linecap:butt;stroke-linejoin:miter;stroke-miterlimit:4;stroke-dasharray:none;stroke-opacity:1"
       d="m 33.87646,24.991258 c -2.660781,-6.508967 -13.965095,-8.025942 -16.448251,-1.615081 -2.730534,7.049595 2.20513,13.840364 0.05441,20.826571 -0.928569,3.016533 -2.788913,4.955962 -5.650323,5.513022 4.221223,0.837147 11.472638,1.274141 14.308382,-4.702249 3.685117,-7.766133 -0.337391,-12.601691 2.024469,-18.956814 1.120206,-3.014654 3.729003,-1.72691 5.711311,-1.065449 z"
       id="path4159-7-4-2-3-6-5-2"
       inkscape:connector-curvature="0"
       sodipodi:nodetypes="csscssc" />
    <path
       style="display:inline;fill:#ffd5d5;fill-opacity:1;fill-rule:evenodd;stroke:#000000;stroke-width:0.32804999;stroke-linecap:butt;stroke-linejoin:miter;stroke-miterlimit:4;stroke-dasharray:none;stroke-opacity:1"
       d="m 25.370934,28.700288 c 0.712895,-3.15528 1.988472,-6.594704 5.117933,-5.794914 -4.296293,-3.205411 -8.525097,-3.052503 -10.914585,0.646002 1.140268,-0.461336 2.201054,-0.78634 2.994621,-0.652087 -0.118622,1.300706 -0.356649,2.146562 -0.570044,3.086132 0.85598,-0.276704 1.71176,-0.554244 2.469973,-1.203427 0.177622,1.366085 0.591723,2.616861 0.902102,3.918294 z"
       id="path4333-8-0-2-0-5-2"
       inkscape:connector-curvature="0"
       sodipodi:nodetypes="ccccccc" />
    <path
       style="display:inline;fill:#ffaaaa;fill-opacity:1;fill-rule:evenodd;stroke:#000000;stroke-width:0.32804999;stroke-linecap:butt;stroke-linejoin:miter;stroke-miterlimit:4;stroke-dasharray:none;stroke-opacity:1"
       d="m 42.270688,37.029604 c 0.437261,-7.018207 -9.080084,-13.303823 -14.10585,-8.612679 -5.526485,5.158548 -4.038251,13.420534 -9.015112,18.774357 -2.148872,2.311732 -4.667859,3.248199 -7.486504,2.504387 3.436127,2.59086 9.774568,6.140252 14.928698,1.993724 6.697772,-5.388211 5.180719,-11.49246 10.073031,-16.186206 2.320578,-2.226635 4.1089,0.06815 5.605737,1.526417 z"
       id="path4159-7-4-3-6-8-3-5-2"
       inkscape:connector-curvature="0"
       sodipodi:nodetypes="csscssc" />
    <path
       style="display:inline;fill:#ffd5d5;fill-opacity:1;fill-rule:evenodd;stroke:#000000;stroke-width:0.32804999;stroke-linecap:butt;stroke-linejoin:miter;stroke-miterlimit:4;stroke-dasharray:none;stroke-opacity:1"
       d="m 32.99872,36.667173 c 2.015068,-2.530511 4.660398,-5.071957 7.129852,-2.989885 -2.473002,-4.755737 -6.346851,-6.458524 -10.107826,-4.168618 1.227399,0.08092 2.323895,0.249977 2.979936,0.716225 -0.672882,1.119432 -1.255322,1.777383 -1.856375,2.530427 0.891096,0.123414 1.782362,0.245991 2.74754,-0.0085 -0.434629,1.307224 -0.606161,2.613555 -0.893127,3.920348 z"
       id="path4333-8-8-1-3-7-4-3"
       inkscape:connector-curvature="0"
       sodipodi:nodetypes="ccccccc" />
  </g>
</svg>
