<?xml version="1.0" encoding="UTF-8"?>
<svg version="1.1" viewBox="0 0 64 64" xmlns="http://www.w3.org/2000/svg">
 <defs>
  <linearGradient id="linearGradient839" x1="23.394" x2="39.31" y1="37.921" y2="29.1" gradientUnits="userSpaceOnUse">
   <stop stop-color="#e6f3f7" offset="0"/>
   <stop stop-color="#f2f9fb" offset="1"/>
  </linearGradient>
  <linearGradient id="linearGradient917" x1="29.435" x2="35.451" y1="5.5378" y2="3.6922" gradientUnits="userSpaceOnUse">
   <stop stop-color="#4f8ce5" offset="0"/>
   <stop stop-color="#59f" offset="1"/>
  </linearGradient>
 </defs>
 <g transform="matrix(.729 0 0 .729 8.2477 -3.1927)" fill-rule="evenodd" stroke="#000" stroke-width="1.216">
  <path d="m8.392 55.047v-11.087l23.638-16.285 24.64 15.557v11.9l-24.63-16.448z" fill="#ffb380"/>
  <path d="m8.495 35.864v-11.088l23.635-16.285 24.642 15.557v11.9l-24.629-16.448z" fill="#ff8080"/>
 </g>
 <g transform="matrix(.4783 0 0 .4783 16.904 31.317)">
  <path d="m24.919 62.395c4.5622 0.8337 8.5445 0.66168 12.938 0.16397 4.0293-0.45779 2.671-5.4365 3.0926-8.3275 0.18204-0.46324 0.35044-0.93012-0.37471-1.7201 0.78312-1.0721 0.55072-2.1416 0.08325-3.2123 0.50034-1.0042 0.6683-2.0342-0.0039-3.1215 0.46576-1.1597 0.36124-2.3193-0.09595-3.478 0.32414-0.89181 0.61951-1.7854 0.03759-2.7566 0.31604-1.0314 0.49775-2.0855-0.10042-3.2803 0.39545-2.1186 0.17991-3.5638-0.25916-4.763-0.83356-2.3353-1.1-5.3546 0.07709-8.3644 0.60417-0.41101 0.54946-2.0507 0.10633-2.5862 0.24887-4.8366-0.31235-8.2264-3.6441-11.447-3.739 0.23546-7.1664 0.25132-9.7324 0.10795-1.8777 2.6869-4.4238 3.4116-4.4859 11.441-0.357 0.72246-0.41784 1.8184-0.0098 2.5209 0.92562 3.2182 1.5346 6.209-0.16052 9.4944-0.28164 1.1985-0.0033 2.3972 0.29016 3.5942-0.10654 1.0025-0.40718 1.8391 0.03788 3.3119-0.38937 0.48398-0.74839 1.9178 0.0052 3.1219-0.52974 1.0432-0.57647 1.9695-0.05866 2.9338-0.47022 1.1819-0.60215 2.3399 0.09968 3.4366-0.7782 1.0427-0.53452 2.1576-0.15251 3.2802-0.31656 0.36449-0.79501 0.43136-0.5021 1.6413 0.76192 2.752-0.5587 7.3963 2.8119 8.0102z" fill="url(#linearGradient839)" fill-rule="evenodd"/>
  <g stroke="#000">
   <path d="m24.919 62.395c4.5622 0.8337 8.5445 0.66168 12.938 0.16397 4.0293-0.45779 2.671-5.4365 3.0926-8.3275 0.18204-0.46324 0.35044-0.93012-0.37471-1.7201 0.78312-1.0721 0.55072-2.1416 0.08325-3.2123 0.50034-1.0042 0.6683-2.0342-0.0039-3.1215 0.46576-1.1597 0.36124-2.3193-0.09595-3.478 0.32414-0.89181 0.61951-1.7854 0.03759-2.7566 0.31604-1.0314 0.49775-2.0855-0.10042-3.2803 0.39545-2.1186 0.17991-3.5638-0.25916-4.763-0.83356-2.3353-1.1-5.3546 0.07709-8.3644 0.60417-0.41101 0.54946-2.0507 0.10633-2.5862 0.24887-4.8366-0.6997-9.3599-4.5109-12.221-0.36212-0.29701-0.24892-0.67608-0.27945-1.0204-0.02294-0.12161 0.47006 0.059688 0.74144-0.11959 0.14033-0.092707 0.21987-0.90632-0.11582-0.89527-2.5021-0.67867-7.7498-0.28834-9.2521 0.11871-0.13544-0.00704-0.20636 0.69586-0.01088 0.89472 0.18154 0.18468 0.6498 0.00429 0.65518 0.14146 0.01058 0.26919 0.0074 0.56606-0.0324 0.83098-2.0215 2.2795-4.9955 4.343-5.0576 12.372-0.357 0.72246-0.41784 1.8184-0.0098 2.5209 0.92562 3.2182 1.5346 6.209-0.16052 9.4944-0.28164 1.1985-0.0033 2.3972 0.29016 3.5942-0.10654 1.0025-0.40718 1.8391 0.03788 3.3119-0.38937 0.48398-0.74839 1.9178 0.0052 3.1219-0.52974 1.0432-0.57647 1.9695-0.05866 2.9338-0.47022 1.1819-0.60215 2.3399 0.09968 3.4366-0.7782 1.0427-0.53452 2.1576-0.15251 3.2802-0.31656 0.36449-0.79501 0.43136-0.5021 1.6413 0.76192 2.752-0.5587 7.3963 2.8119 8.0102z" fill="none" stroke-width=".4"/>
   <path d="m22.785 52.695c2.6901 0.62683 13.568 0.92376 17.675-0.16992m-18.218 2.0779c2.6652 0.76935 14.514 1.1658 18.656-0.19327m-18.13-4.9584c2.2445 0.19214 12.929 0.5868 17.765-0.03759m-17.769-3.2186c2.3031 0.34522 12.987 0.57743 17.765-0.03622m-17.749-3.1093c2.5381 0.17686 13.399 0.28058 17.766-0.03586m-17.681-3.0414c2.4867-0.01962 13.328 0.0029 17.765-0.03622m-17.902-3.0055c2.2203-0.21059 12.781-0.38576 17.765-0.03622m-17.942-13.324c2.2227-0.2085 12.781-0.38576 17.766-0.03586m-17.658-2.55c2.2221-0.21159 12.781-0.38712 17.765-0.03622" fill="none" stroke-width=".35322"/>
   <path d="m27.497 6.6392s-0.13674-4.1627-0.11915-4.2479c0.01705-0.93035 8.5996-1.0712 8.5101-0.03953l7e-3 4.246c-1.9639-0.14791-6.9725-0.047076-8.398 0.041444z" fill="url(#linearGradient917)" fill-rule="evenodd" stroke-width=".38244"/>
  </g>
  <path d="m31.673 1.8678-0.0031 4.4635m-3.4-4.171c-0.05651 1.5934 0.04195 2.627 0.11888 4.2356m1.5098-4.4379c-0.0144 1.4015 0.01218 2.3561 0.09053 4.3978m4.9107-4.305c0.06174 1.5943 0.0862 2.6856 0.0136 4.2952m-1.4561-4.4411c0.01949 1.4017 0.0084 2.3788-0.06269 4.4216" fill="none" stroke="#0055d4" stroke-width=".35322"/>
  <g fill="#fff">
   <path d="m36 10.441c0.41447 0.4512 1.2255 2.0853 1.5188 2.6042 0.19071 0.33738 0.48176 0.83085 0.7882 1.4903 0.81821 1.7606 1.2198 3.6593 1.2862 5.1259-0.06957-1.5357-0.15184-3.3205-0.82868-5.3089-0.24123-0.70867-0.50368-1.2662-0.70094-1.6152-0.3081-0.54505-1.6491-1.845-2.0636-2.2962z"/>
   <path d="m39.79 21.681c-0.38418-0.0117-1.4417-0.27906-1.7757-0.29637-0.92554-0.04795-3.4496 0.04814-4.3349 0.05158 0.88532-0.0034 3.3834 0.34246 4.312 0.39056 0.33515 0.01736 1.4144-0.15747 1.7986-0.14577z"/>
   <path d="m39.937 37.697c-0.32768-3.98e-4 -1.3105-0.22295-1.6382-0.22335-0.908-0.0011-3.6323 0.21695-4.5403 0.21585 0.908 0.0011 3.6317 0.22577 4.5397 0.22687 0.32768 3.98e-4 1.311-0.21977 1.6387-0.21937z"/>
   <path d="m40.242 40.816c-0.2804-4.39e-4 -1.139-0.22291-1.4194-0.22335-0.87189-0.0011-3.8872 0.21697-4.759 0.21585 0.87028 9.94e-4 3.8882 0.22588 4.7585 0.22687 0.28039 3.6e-4 1.1396-0.21973 1.4199-0.21937z"/>
   <path d="m40.208 43.731c-0.32768 0.07798-1.3277-0.01433-1.6488 7.56e-4 -0.40086 0.01883-0.74087 0.04551-1.4322 0.05025-0.65422 0.0045-2.9795-0.05384-3.0974-0.05851 0.59269 0.02346 1.9462 0.25378 3.081 0.37773 0.62872 0.06867 1.122 0.08909 1.4694 0.07277 0.33424-0.0157 1.3003-0.36501 1.628-0.443z"/>
   <path d="m40.31 47.087c-0.39393 0.05481-1.5035-0.04813-1.8402-0.02246-0.93293 0.07114-3.4304 0.28176-4.3043 0.25225 0.87391 0.02951 3.3896 0.2615 4.338 0.18919 0.34225-0.0261 1.4126-0.36417 1.8066-0.41898z"/>
   <path d="m40.276 50.171c-0.22961 0.07827-1.0887 0.03004-1.3953 0.06846-0.3824 0.04793-0.72784 0.10507-1.4742 0.17672-1.2146 0.11659-2.8955 0.19079-3.5462 0.18799 0.68019 0.0029 2.312 0.11897 3.5598 0.13136 0.68469 0.0068 1.193-0.01633 1.5157-0.05678 0.3179-0.03985 1.1106-0.42949 1.3402-0.50776z"/>
   <path d="m40.479 53.392c-0.37693 0.08454-1.4994 0.03704-1.8503 0.07166-0.97244 0.09595-3.7716 0.26019-4.701 0.22592 0.92937 0.03427 3.7454 0.31326 4.7444 0.21467 0.36054-0.03558 1.4299-0.42772 1.8069-0.51226z"/>
  </g>
  <path d="m27.637 7.8389c1.9902-0.10006 5.2367-0.14917 7.993-0.13176" fill="none" stroke="#000" stroke-linecap="round" stroke-linejoin="round" stroke-width=".4"/>
 </g>
</svg>
