<svg xmlns="http://www.w3.org/2000/svg" viewBox="0 0 64 64">
    <g fill-rule="evenodd">
        <path fill="#f5d" stroke="#000" stroke-width=".5" d="M5.332 30.283C2.51 19.007 18.68 19.013 21.08 27.893c1.902-8.966 17.212-8.958 15.278 2.771-1.484 8.998-12.605 8.74-15.897 22.109C17.638 39.442 7.53 39.068 5.33 30.283z"/>
        <path fill="#fff" fill-opacity=".785" d="M34.338 34.022c1.117-7.933-2.604-11.067-9.614-10.63 6.85-3.522 14.283 1.005 9.614 10.63z"/>
        <path fill="#f0c" stroke="#000" stroke-width=".25" d="M53.331 24.368l-5.578-.02.047-6.937-6.94.02.015-5.613 6.925.02.02-7.226 5.536.02-.026 7.203 7.026.024-.004 5.58-7.028-.022z"/>
        <path fill="#f5d" stroke="#000" stroke-width=".25" d="M52.486 43.389l-4.067-.015.035-5.057-5.06.014.011-4.092 5.049.014.013-5.268 4.037.013-.02 5.252 5.123.018-.003 4.068-5.124-.016z"/>
        <path fill="#fae" stroke="#000" stroke-width=".25" d="M51.698 60.062l-2.965-.012.025-3.686-3.689.011.01-2.983 3.68.011.01-3.84 2.942.01-.014 3.828 3.734.013-.002 2.966-3.735-.012z"/>
    </g>
</svg>
