<svg version="1.1" viewBox="0 0 64 64" xmlns="http://www.w3.org/2000/svg" xmlns:xlink="http://www.w3.org/1999/xlink">
 <g stroke="#000" stroke-width=".5">
  <path d="m48.621 23.226 3.2352 16.796 9.685-6e-3 0.01986-16.833z" fill="#ff8080"/>
  <path d="m52.125 41.798 3.3082 18.224h6.06l-0.04794-18.203z" fill="#ffd5d5" fill-rule="evenodd"/>
  <path d="m45.141 2.696 3.412 18.768 12.94-0.04276v-18.661z" fill="#ff2a2a"/>
 </g>
 <g fill="#ffb380" stroke-width=".86451">
  <path d="m18.503 46.923c-10.788 0.62769-18.009-3.9207-17.637-7.9125 0.59648-6.4124 9.7854-5.7717 15.021-5.0801"/>
  <path d="m30.753 27.668c0.62359-1.2719 3.0908-6.0854 7.8245-6.1248 8.257-0.06886 9.8537 9.4958 1.436 14.8-4.6115 2.0201-13.09 3.3898-16.892 4.8325-0.86788-1.542 0.17513-4.9313 1.3363-6.2685 4.3836 0.46196 17.627-0.84598 17.607-7.8245-0.02014-6.872-9.201-2.0843-11.312 0.58611z"/>
  <path d="m18.736 21.28 10.081 2.2859c-1.6558 6.5438-5.1136 11-5.0405 16.47 0.03519 2.6352 2.7033 6.2046 10.228 5.2457 1.7441-0.22228 3.9563-1.3773 3.9563-1.3773-5.2027-0.22046-6.9704 0.62762-8.8198 1.2572-2.6153-0.48539-5.2027-2.0365-5.3648-5.1255 0 0 8.5608-3.7416 16.324-3.165 6.5193 0.48431 8.0982 4.6019 8.1469 5.8025 0.24555 6.0522-10.802 8.3604-14.682 8.8206-14.199 1.6852-17.421-6.8199-17.701-12.191-0.35027-6.7206 1.5137-11.957 2.8719-18.023z"/>
 </g>
 <g transform="matrix(.86451 0 0 .86451 -76.974 7.9166)" fill="#fca">
  <path d="m141.76 22.308c0.28572 3.4611-2.2282 8.0237-6.9516 11-1.2414-0.09543-2.5158-0.09449-3.7957-0.0188 4.7984-2.7942 8.892-7.3854 6.409-12.877-0.46764-1.6702-1.8443-2.4944-3.3534-2.5464 3.574-0.3329 6.2437 1.5402 7.6917 4.4423z"/>
  <path d="m111.45 15.624 9.8645 2.2367c-5.4827 12.603-7.1326 21.43-5.6748 26.292 1.2545 4.1842 3.8114 5.6757 7.752 6.5018-10.109-0.15483-14.093-5.6497-15.434-10.711-0.42539-7.9123 1.7339-17.516 3.4247-23.893z"/>
  <g>
   <path d="m129.08 43.153c0.32972-0.02357 1.2588-0.30888 1.5611-0.34873 1.8827-0.24822 4.157-0.76029 6.0412-1.814 0.83637-0.46773 1.5308-1.0088 2.0325-1.6025 0.47008-0.55622 0.75519-1.1405 0.83666-1.7195 0.0807-0.57352-0.0396-1.1346-0.36431-1.6494-0.34029-0.5395-0.89348-1.0102-1.6278-1.3877-1.9934-1.0247-4.826-1.147-7.1911-0.9697 2.3625-0.17713 5.1946-0.09076 7.2268 0.89835 0.74979 0.36494 1.3342 0.83035 1.7083 1.383 0.35866 0.52986 0.51318 1.1253 0.44723 1.7498-0.0664 0.62902-0.35379 1.2625-0.83352 1.8614-0.51129 0.63829-1.2234 1.2163-2.0765 1.7133-1.9169 1.1166-4.2452 1.6633-6.1496 1.9144-0.30696 0.04047-1.2811-0.05231-1.6108-0.02874z"/>
   <path d="m132.81 41.759c0.0425-0.02038 0.2677 0.1201 0.30896 0.09925 0.39549-0.19993 0.83685-0.4589 1.2225-0.76825 0.33425-0.2681 0.61488-0.56468 0.79359-0.88166 0.15797-0.28019 0.2306-0.56718 0.19791-0.84497-0.031-0.26324-0.15404-0.49606-0.34683-0.69127-0.1911-0.1935-0.44863-0.34836-0.74943-0.46498-0.31594-0.12249-0.67722-0.20201-1.0603-0.24237-1.0328-0.10882-2.0528 0.07577-2.7989 0.27259 0.7447-0.19647 1.7783-0.34429 2.7869-0.18236 0.37477 0.06016 0.71877 0.15993 1.0096 0.29804 0.27817 0.13208 0.4953 0.29343 0.64154 0.47325 0.14595 0.17946 0.21472 0.36872 0.21737 0.55921 3e-3 0.20073-0.0675 0.41257-0.21247 0.63218-0.1662 0.25175-0.42102 0.49938-0.73915 0.73659-0.36669 0.27342-0.78411 0.50847-1.1659 0.70147-0.0395 0.01999-0.063 0.28291-0.10547 0.3033z"/>
   <path d="m106.81 38.136c-4e-3 4.26e-4 -0.0364-0.19303-0.0407-0.1926-2.1277 0.20771-4.829 0.14314-7.2713-0.76003-0.89517-0.33104-1.6723-0.74922-2.2714-1.2282-0.57013-0.45584-0.95875-0.95108-1.1329-1.4449-0.08623-0.24449-0.11947-0.48745-0.09739-0.72462 0.02233-0.2399 0.10136-0.47477 0.24043-0.69992 0.29266-0.4738 0.84086-0.88852 1.6313-1.2124 2.1533-0.88232 5.5018-0.88178 8.5012-0.58477-2.9983-0.2969-6.3422-0.33125-8.5298 0.51292-0.80244 0.30964-1.3866 0.71803-1.7163 1.2111-0.15781 0.236-0.25552 0.48895-0.29105 0.75423-0.03514 0.26235-0.0089 0.53276 0.07568 0.80489 0.17046 0.54836 0.57319 1.0899 1.1559 1.5816 0.61287 0.51713 1.4092 0.96696 2.3226 1.3238 2.4861 0.97125 5.2602 1.0667 7.421 0.85576 4e-3 -4.25e-4 -2e-3 -0.19644 3e-3 -0.19686z"/>
   <path d="m107.39 38.17 0.0137-0.21349c-1.023-0.06574-3.0612-0.27107-4.4983-0.75166-0.53869-0.18015-1.0456-0.39499-1.4892-0.64299-0.42294-0.23644-0.77757-0.49705-1.0437-0.7756-0.2658-0.27826-0.43746-0.56828-0.50775-0.86425-0.0738-0.3107-0.03544-0.62596 0.11632-0.93981 0.17106-0.35376 0.47644-0.68571 0.87472-0.98941 0.52251-0.39843 1.1656-0.71848 1.7469-0.95817-0.58117 0.23962-1.2285 0.5491-1.7647 0.93411-0.40737 0.29248-0.73443 0.61697-0.93192 0.97461-0.17627 0.31923-0.24471 0.65718-0.18601 1.0077 0.05589 0.33367 0.22458 0.66304 0.49349 0.97842 0.26843 0.31481 0.63035 0.60835 1.0604 0.87397 0.45124 0.27869 0.96834 0.52111 1.517 0.7252 1.458 0.54237 3.5423 0.78785 4.5853 0.85487l0.0137-0.21349z"/>
  </g>
 </g>
 <g transform="matrix(.86451 0 0 .86451 -76.974 7.9166)" fill="none" stroke="#000" stroke-width=".46846">
  <path d="m110.44 45.119c-12.479 0.72606-20.831-4.5351-20.401-9.1525 0.68996-7.4174 11.319-6.6762 17.375-5.8763"/>
  <path d="m117.64 31.288c5.0706 0.53436 20.076-1.0459 20.052-9.1182-0.0233-7.949-10.643-2.4109-13.085 0.67797l8e-4 -3.7e-4c0.72132-1.4712 3.5752-7.0391 9.0508-7.0847 9.6043-0.04633 11.708 11.22 0.69532 17.636"/>
  <path d="m110.71 15.458 11.661 2.6441c-1.9153 7.5694-5.915 12.724-5.8305 19.051 0.0407 3.0482 3.127 7.177 11.831 6.0678 2.0174-0.25711 4.5763-1.5932 4.5763-1.5932-6.0181-0.25501-8.0628 0.72598-10.202 1.4542-3.0252-0.56146-6.0181-2.3557-6.2056-5.9288 0 0 9.9025-4.328 18.882-3.661 7.541 0.56021 9.3674 5.3231 9.4237 6.7119 0.28403 7.0007-12.495 9.6707-16.983 10.203-16.424 1.9493-20.151-7.8887-20.475-14.102-0.40516-7.7738 1.7509-13.831 3.322-20.847z"/>
 </g>
</svg>
