<svg version="1.1" viewBox="0 0 64 64" xmlns="http://www.w3.org/2000/svg" xmlns:xlink="http://www.w3.org/1999/xlink">
 <defs>
  <linearGradient id="linearGradient1019">
   <stop stop-color="#e6e6e6" offset="0"/>
   <stop stop-color="#f2f2f2" offset="1"/>
  </linearGradient>
  <linearGradient id="linearGradient4189" x1="130.36" x2="129.29" y1="228.5" y2="177.43" gradientTransform="matrix(1.21,0,0,1.21,-29.3,-44.66)" gradientUnits="userSpaceOnUse">
   <stop stop-color="#e6e6e6" offset="0"/>
   <stop stop-color="#f2f2f2" offset="1"/>
  </linearGradient>
  <linearGradient id="linearGradient1021" x1="21.22" x2="22.78" y1="8.8136" y2="7.7966" gradientTransform="translate(-1.0847 .54237)" gradientUnits="userSpaceOnUse" xlink:href="#linearGradient1019"/>
  <linearGradient id="linearGradient1031" x1="25.356" x2="29.559" y1="7.661" y2="6.5763" gradientTransform="translate(-1.0847 .54237)" gradientUnits="userSpaceOnUse" xlink:href="#linearGradient1019"/>
 </defs>
 <g fill="#e6e6e6" stroke="#000" stroke-linecap="round" stroke-linejoin="round" stroke-width=".12709">
  <path d="m29.081 16.892-2.1856-1.2738-0.08143-0.3795c1.2427 0.68249 1.6182 1.0134 2.2476 1.3021z"/>
  <path d="m29.618 25.731-1.444 2.4117-0.11885-0.63801c0.85758-1.0063 1.0298-1.3096 1.5581-2.1595z"/>
  <path d="m32.41 42.521-0.41575 0.03909c-1.287-4.7711-5.3817-31.997-1.5759-39.397l0.41988-0.01182c-3.6971 7.4413-0.16973 33.384 1.5718 39.37z"/>
  <path d="m28.939 56.093 2.7348-10.301 0.38235-0.0668c-1.1203 3.4923-2.0402 6.9586-2.6456 10.384z"/>
  <path d="m20.595 25.906 3.7378-1.159 0.1676-0.63801c-1.5693 0.50919-2.872 1.5091-3.9376 1.5146z"/>
  <path d="m19.841 29.272c1.2179 1.5067 1.4561 2.6744 2.4178 4.1812l0.11885-0.63801-2.4801-3.8599z"/>
  <path d="m17.101 39.143 0.61071-0.08277c1.5109-6.1828 3.7388-15.808 4.3836-23.297l-0.22946-1.1091c-0.26001 7.8709-3.1471 19.573-4.7649 24.489z"/>
 </g>
 <g stroke="#000">
  <path d="m24.323 13.055c-0.18928 0.65872 0.96516 1.7636 1.9655 0.43146 0.76899-3.6989 2.6254-7.3114 5.0027-10.651l-2.7296-0.011133c-0.22376 2.1573-0.3661 4.3823-2.321 6.5396-1.3621-2.3201-1.8337-4.5032-1.5341-6.5677h-1.6779c1.2858 3.4563 3.332 8.4462 1.2944 10.259z" fill="url(#linearGradient1031)" stroke-linecap="round" stroke-linejoin="round" stroke-width=".25"/>
  <g stroke-width=".5">
   <path d="m48.621 23.226 3.2352 16.796 9.685-6e-3 0.01986-16.833z" fill="#ff8080"/>
   <path d="m52.125 41.798 3.3082 18.224h6.06l-0.04794-18.203z" fill="#ffd5d5" fill-rule="evenodd"/>
   <path d="m45.141 2.696 3.412 18.768 12.94-0.042758v-18.661z" fill="#ff2a2a"/>
  </g>
  <g transform="matrix(.25419 0 0 .25419 -8.4113 -4.1751)" fill-rule="evenodd" stroke-width="1.21">
   <path d="m120.33 90.061c-2.7225 75.263-25.717 74.44-26.418 97.703-0.41123 13.651 1.5682 16.784 7.2206 28.283 5.7627 11.723 3.8587 19.163 19.442 23.092 11.383-7.4506 21.674-2.4114 25.914 0.9596 6.3048-6.7974 1.3991-19.63 5.2525-26.78 6.3111-11.711 7.7072-15.089 8.8814-25.172 1.0812-9.2842-7.8067-11.193-8.9903-28.25-1.182-17.034-5.7669-32.839-8.7882-50.989-2.5035-15.044 3.6796-11.749-6.004-26.851z" fill="url(#linearGradient4189)"/>
   <path d="m119.06 80.989c0.19723 5.0058-0.76593 10.158 5.779 12.265 8.3647-2.7092 13.21-6.6889 15.921-11.439 2.1744-7.8529-1.9844-12.188-7.6654-12.971z" fill="#f2f2f2"/>
  </g>
  <path d="m24.323 13.055c-1.2407-0.21222-2.0921 0.82072-2.4168 1.6204-0.2762 0.67972-0.37432 1.5606 0.44935 2.1431 1.1512-0.08612 3.456-1.0098 4.0188-1.8405 0.40507-1.3847-1.3424-1.8015-2.0514-1.923z" fill="#f9f9f9" fill-rule="evenodd" stroke-width=".30757"/>
  <g transform="matrix(.25419 0 0 .25419 -8.4113 -4.1751)" fill="none" stroke-linecap="round" stroke-linejoin="round" stroke-width="1.21">
   <path d="m100.17 214.05c26.644-1.8477 47.513-10.699 59.631-30.163"/>
   <path d="m98.083 173.68c17.852-4.5136 35.553-10.106 51.278-29.815"/>
   <path d="m129.55 235.45c10.779-1.7055 18.489-3.0393 20.395-9.3339"/>
  </g>
 </g>
 <g transform="matrix(.25419 0 0 .25419 -8.4113 -4.1751)">
  <path d="m103.54 223.45c2.0834-0.2949 4.5555-0.54401 8.3993-1.2128 3.5647-0.62023 6.6613-1.345 8.5075-1.9006 3.3217-0.99963 8.7434-2.8749 14.63-5.884 5.652-2.8894 10.878-6.3796 15.43-10.505 4.5351-4.1105 7.4317-7.9738 9.3006-10.777-1.8619 2.7928-4.8737 6.6085-9.4878 10.565-4.6398 3.9784-9.9345 7.2801-15.605 9.9841-5.9163 2.8214-11.3 4.5391-14.594 5.5304-2.167 0.65212-4.4698 1.4354-8.3006 2.4328-3.4456 0.8972-6.5141 1.5176-8.2791 1.7674z"/>
  <path d="m118.04 234.24c1.8788-0.23927 4.9474-0.70722 9.082-1.9566 3.2324-0.97677 6.5193-2.2559 9.5955-3.7684 3.5844-1.7624 6.133-3.4733 7.703-4.7022 0.21263-0.16642 0.47098-0.38373 0.75672-0.64057 1.0476-0.94161 2.2142-2.1822 3.2366-3.5654 1.0539-1.426 1.5829-2.4794 1.994-3.2329-0.38274 0.70168-1.1554 1.7521-2.3388 2.9366-1.2093 1.2105-2.4672 2.1956-3.5751 3.0356-0.29727 0.22538-0.55802 0.42151-0.76477 0.58333-1.5454 1.2095-3.9096 2.9469-7.391 4.8549-2.9666 1.6259-6.1563 3.0489-9.3239 4.1699-4.0185 1.4221-7.1254 2.0504-8.9741 2.2858z"/>
  <path d="m96.227 204.89c3.6458 0.0303 8.8814-0.15448 15.199-1.4809 6.3537-1.3339 12.474-3.5435 18.278-6.4723 5.9686-3.0117 10.62-6.2968 13.402-8.4636 1.5841-1.2337 4.0559-3.4477 6.7086-6.1695 2.8381-2.9121 4.567-5.0017 6.043-6.6491-1.2802 1.4289-3.64 3.7399-6.4834 6.18-3.105 2.6646-5.2501 4.2146-7.0589 5.6232-2.7532 2.1442-7.2286 5.4905-13.045 8.652-5.6437 3.0679-11.636 5.4682-17.916 6.9833-6.2292 1.5028-11.499 1.827-15.128 1.7968z"/>
  <path d="m94.603 187.72c2.3446 0.10658 4.9818 0.33154 8.6965 0.26316 3.3844-0.0623 6.1281-0.37799 7.655-0.69863 1.0409-0.21858 2.225-0.50535 3.5115-0.88031 4.6705-1.3612 9.2501-3.4465 14.153-6.6442 4.0451-2.6383 7.6726-5.6101 11.054-8.223 4.7322-3.6563 7.8058-5.6227 10.848-7.0197-3.1414 1.4424-6.0994 3.1645-11.087 6.6968-3.5117 2.4869-7.2259 5.2654-11.333 7.7179-4.9668 2.9661-9.4611 4.8205-14.032 6.0693-1.2572 0.34348-2.4087 0.61002-3.4219 0.82278-1.6489 0.34627-3.9173 0.94666-7.4047 1.4151-3.3609 0.45142-6.5768 0.57467-8.6401 0.48088z"/>
  <path d="m111.19 148.62c1.7234-0.7451 4.469-1.9892 8.0732-4.0936 3.6333-2.1214 7.5182-4.7597 11.232-7.7824 3.8483-3.1322 6.7116-6.0248 8.7068-8.3643 0.42823-0.50214 0.79965-0.95912 1.1155-1.363 0.63731-0.81494 1.5879-2.343 2.4297-4.0152 0.9632-1.9135 1.2847-2.9207 1.7388-3.965-0.35805 0.82352-1.1618 2.1411-2.2787 3.6309-1.0682 1.4249-2.3083 2.8232-2.89 3.567-0.30796 0.3938-0.66515 0.84332-1.0748 1.3418-1.9225 2.3396-4.592 5.254-8.2945 8.5221-3.5536 3.1366-7.3027 5.9265-10.833 8.1851-3.4852 2.2296-6.2202 3.5996-7.9247 4.3365z"/>
  <path d="m118.73 113.24c0.70922-0.41301 3.0887-1.243 3.7849-1.6814 2.1908-1.3798 6.0977-4.0581 9.7067-7.5162 5.1051-4.8916 7.6457-9.3937 9.2471-13.077-1.5804 3.6349-4.4582 8.0804-9.6598 12.626-3.7219 3.2527-7.672 5.7183-9.8474 7.0884-0.68903 0.43397-2.5222 2.1471-3.2315 2.5601z"/>
 </g>
 <path d="m22.096 15.764c-0.7006-3.6008-0.50471-7.2594-6.0182-12.919l5.3382-0.025174c-1.8657 4.2739 0.98354 7.6124 2.5718 11.291 0.26189 1.2121-1.1105 1.942-1.8918 1.6535z" fill="url(#linearGradient1021)" stroke="#000" stroke-linecap="round" stroke-linejoin="round" stroke-width=".25"/>
</svg>
