<svg xmlns="http://www.w3.org/2000/svg" viewBox="0 0 256 256">
    <g stroke="#000" transform="translate(0 -796.362)">
        <ellipse cx="131.522" cy="932.508" fill="#f06" stroke-linecap="round" stroke-linejoin="round" stroke-width="5" rx="78.78" ry="78.208"/>
        <path fill="#e6e6e6" d="M198.43 863.854c.627-.616.425-1.173-.686-1.88-2.33-1.485-6.145-3.907-4.89-5.866 5.207-8.13 19.016-23.03 33.407-42.394.302-2.973-6.3-7.382-8.209-5.482-12.468 15.336-20.569 26.239-35.654 43.224l-3.285-2.002c-2.184-1.33-3.591-1.698-4.203-1.097-.725.712-.496 1.154 1.073 2.07 2.54 1.48 4.06 3.088 3.208 4.117-46.78 56.55-98.65 111.034-162.65 164.62-2.962 3.52 4.122 12.237 8.853 6.98 53.465-44.698 108.267-98.945 162.392-163.823 2.083-2.64 2.096-2.644 4.632-.84 4.093 2.913 5.07 3.3 6.012 2.373zm-5.053-11c-.791.677-3.014.773-4.547-.453-1.65-1.318-1.976-3.602-1.286-4.464.69-.863 2.893-.795 4.541.523 1.65 1.318 2.12 3.389 1.43 4.251-.04.052-.087.1-.138.143zm4.282-5.742c-.898.876-2.641.8-4.031-.175-1.495-1.047-2.043-2.749-1.224-3.802.82-1.052 2.698-1.056 4.194-.007 1.496 1.048 2.043 2.751 1.223 3.803-.05.064-.104.124-.162.181zm3.852-5.04c-.897.875-2.64.8-4.03-.174-1.495-1.048-2.043-2.75-1.222-3.803.82-1.051 2.697-1.054 4.193-.006 1.495 1.048 2.042 2.75 1.222 3.803-.05.063-.104.123-.163.18zm4.172-4.975c-.898.877-2.641.802-4.032-.174-1.495-1.048-2.042-2.75-1.222-3.802.82-1.052 2.697-1.056 4.193-.009 1.496 1.048 2.043 2.751 1.223 3.803a1.79 1.79 0 0 1-.162.181zm3.736-4.915c-.898.876-2.64.8-4.031-.175-1.496-1.048-2.043-2.75-1.223-3.803.821-1.051 2.698-1.054 4.193-.006 1.496 1.048 2.043 2.751 1.223 3.803a1.79 1.79 0 0 1-.162.181zm3.998-4.952c-.898.877-2.642.802-4.033-.173-1.495-1.048-2.041-2.75-1.221-3.802.82-1.053 2.697-1.057 4.193-.01 1.495 1.049 2.042 2.751 1.222 3.804-.05.063-.103.124-.161.18zm3.627-4.642c-.898.876-2.64.801-4.03-.173-1.496-1.048-2.043-2.75-1.223-3.803.82-1.052 2.698-1.055 4.193-.006 1.496 1.048 2.043 2.75 1.223 3.803-.05.063-.104.123-.163.18zm4.025-5.3c-.898.875-2.64.8-4.03-.174-1.496-1.048-2.043-2.75-1.223-3.803.82-1.051 2.698-1.054 4.193-.006 1.495 1.048 2.043 2.751 1.222 3.803-.05.064-.104.124-.162.18zM203.582 923.005c.651-.59.471-1.154-.61-1.907-2.267-1.578-5.981-4.153-4.648-6.058 5.533-7.913 11.572-12.317 26.738-31.08.422-2.96-5.994-7.633-7.98-5.813-13.08 14.818-13.253 15.46-29.015 31.819l-3.202-2.134c-2.127-1.418-3.519-1.843-4.155-1.266-.753.682-.543 1.133.988 2.11 2.477 1.583 3.946 3.266 3.039 4.245-44.518 48.032-52.523 57.144-95.583 96.866-3.103 3.398 3.621 12.394 8.562 7.334 30.049-26.326 75.763-74.227 95.292-96.08 2.189-2.554 2.202-2.557 4.662-.65 3.972 3.076 4.932 3.502 5.912 2.614zm-4.603-11.196c-.818.644-3.042.65-4.525-.637-1.595-1.384-1.827-3.68-1.103-4.513.725-.834 2.922-.677 4.516.707 1.595 1.385 1.981 3.472 1.256 4.306-.043.05-.091.096-.144.137zm4.512-5.564c-.933.84-2.671.693-4.02-.338-1.452-1.107-1.93-2.83-1.07-3.848.863-1.019 2.74-.946 4.192.163 1.452 1.108 1.93 2.832 1.067 3.85-.052.061-.108.12-.169.174zm4.054-4.88c-.933.84-2.67.694-4.02-.336-1.452-1.108-1.93-2.831-1.067-3.85.863-1.017 2.739-.944 4.19.165 1.452 1.108 1.93 2.831 1.067 3.85a1.803 1.803 0 0 1-.17.172zm4.37-4.8c-.932.84-2.671.694-4.022-.337-1.45-1.108-1.927-2.83-1.065-3.849.861-1.018 2.737-.946 4.19.162 1.451 1.108 1.929 2.831 1.066 3.85-.051.06-.108.119-.168.173zm3.933-4.76c-.933.84-2.67.693-4.02-.337-1.452-1.108-1.93-2.832-1.068-3.85.863-1.017 2.739-.944 4.19.164 1.452 1.108 1.93 2.832 1.067 3.85-.052.061-.108.12-.169.174zm4.195-4.785c-.932.84-2.671.694-4.022-.337-1.45-1.108-1.928-2.83-1.066-3.848.862-1.019 2.738-.946 4.19.161 1.452 1.108 1.93 2.832 1.067 3.85-.052.061-.108.12-.169.174z"/>
    </g>
</svg>
