<svg xmlns="http://www.w3.org/2000/svg" viewBox="0 0 256 256">
    <g stroke="#000" transform="translate(0 -796.362)">
        <ellipse cx="131.522" cy="932.508" fill="#f06" stroke-linecap="round" stroke-linejoin="round" stroke-width="5" rx="78.78" ry="78.208"/>
        <path fill="#e6e6e6" d="M211.43 865.354c.627-.616.425-1.173-.686-1.88-2.33-1.485-6.145-3.907-4.89-5.866 5.207-8.13 19.016-23.03 33.407-42.394.302-2.973-6.3-7.382-8.209-5.482-12.468 15.336-20.569 26.239-35.654 43.224l-3.285-2.002c-2.184-1.33-3.591-1.698-4.203-1.097-.725.712-.496 1.154 1.073 2.07 2.54 1.48 4.06 3.088 3.208 4.117-46.78 56.55-98.65 111.034-162.65 164.62-2.962 3.52 4.122 12.237 8.853 6.98 53.465-44.698 108.267-98.945 162.392-163.823 2.083-2.64 2.096-2.644 4.632-.84 4.093 2.913 5.07 3.3 6.012 2.373zm-5.053-11c-.791.677-3.014.773-4.547-.453-1.65-1.318-1.976-3.602-1.286-4.464.69-.863 2.893-.795 4.541.523 1.65 1.318 2.12 3.389 1.43 4.251-.04.052-.087.1-.138.143zm4.282-5.742c-.898.876-2.641.8-4.031-.175-1.495-1.047-2.043-2.749-1.224-3.802.82-1.052 2.698-1.056 4.194-.007 1.496 1.048 2.043 2.751 1.223 3.803-.05.064-.104.124-.162.181zm3.852-5.04c-.897.875-2.64.8-4.03-.174-1.495-1.048-2.043-2.75-1.222-3.803.82-1.051 2.697-1.054 4.193-.006 1.495 1.048 2.042 2.75 1.222 3.803-.05.063-.104.123-.163.18zm4.172-4.975c-.898.877-2.641.802-4.032-.174-1.495-1.048-2.042-2.75-1.222-3.802.82-1.052 2.697-1.056 4.193-.009 1.496 1.048 2.043 2.751 1.223 3.803a1.79 1.79 0 0 1-.162.181zm3.736-4.915c-.898.876-2.64.8-4.031-.175-1.496-1.048-2.043-2.75-1.223-3.803.821-1.051 2.698-1.054 4.193-.006 1.496 1.048 2.043 2.751 1.223 3.803a1.79 1.79 0 0 1-.162.181zm3.998-4.952c-.898.877-2.642.802-4.033-.173-1.495-1.048-2.041-2.75-1.221-3.802.82-1.053 2.697-1.057 4.193-.01 1.495 1.049 2.042 2.751 1.222 3.804-.05.063-.103.124-.161.18zm3.627-4.642c-.898.876-2.64.801-4.03-.173-1.496-1.048-2.043-2.75-1.223-3.803.82-1.052 2.698-1.055 4.193-.006 1.496 1.048 2.043 2.75 1.223 3.803-.05.063-.104.123-.163.18zm4.025-5.3c-.898.875-2.64.8-4.03-.174-1.496-1.048-2.043-2.75-1.223-3.803.82-1.051 2.698-1.054 4.193-.006 1.495 1.048 2.043 2.751 1.222 3.803-.05.064-.104.124-.162.18z"/>
    </g>
</svg>
