<svg xmlns="http://www.w3.org/2000/svg" viewBox="0 0 111 117">
    <g>
        <g stroke="#000">
            <path fill="#e6e6e6" stroke-width="1.867" d="M20.912 58.446c-8.351-8.143-11.487-21.383-7.23-31.256 4.304-9.467 13.04-14.946 22.448-17.454 13.195-3.241 27.26-2.915 39.332 1.007 10.653 4.021 18.972 12.79 20.037 22.488.468 10.022-1.091 17.63-9.277 23.663 4.477 13.615-3.926 18.266-6.636 19.058-2.241 4.75-4.237 8.36-3.179 19.076-.808 3.595-2.282 6.822-3.475 8.019-4.622 4.693-13.655 6.93-19.08 7.005-5.425.074-11.5-1.118-18.677-5.768-2.144-2.513-3.726-4.119-5.07-10.088.418-4.238 1.315-11.3-3.744-19.19-2.597-2.522-8.941-3.802-5.45-16.56z"/>
            <g>
                <path d="M99.03 174.725c-6.174.315-10.458.819-15.686 2.646-3.339 3.086-3.167 5.965-2.646 9.071.613 3.654 3.09 7.459 6.426 9.071 2.101 1.016 6.992-.378 6.992-.378 3.717-3.401 6.867-6.803 8.316-11.339 0 0 2.456-6.047-3.402-9.071zm19.482-.375c6.173.314 10.457.818 15.686 2.645 3.338 3.087 3.167 5.965 2.645 9.072-.613 3.654-3.089 7.458-6.425 9.071-2.102 1.016-6.993-.378-6.993-.378-3.716-3.402-6.866-6.803-8.315-11.34 0 0-2.457-6.047 3.402-9.07zm-10.032 16.628l-.19 15.119c-.98 1.79-2.052 2.646-3.78 3.968-7.748-2.204-2.834-14.615 3.97-19.087zm1.334.105l.189 15.12c1.26 1.977 1.958 3.02 3.78 3.968 7.748-2.205 2.834-14.615-3.97-19.088z" transform="matrix(.98168 0 0 .88799 -52.888 -106.945)"/>
            </g>
            <path fill="none" stroke-width="1.867" d="M19.952 32.231c-1.642 3.215-1.79 5.754-.382 7.589l2.288 6.381c1.02 4.427-.25 8.163-.946 12.245-1.425 7.417-.372 12.42 5.449 16.56 11.273 2.356 11.489 6.437 12.085 9.138m48.915-52.081c1.642 3.214 1.79 5.754.382 7.588l-2.289 6.382c-1.019 4.426.25 8.163.947 12.244 1.425 7.417.371 12.42-5.449 16.56-11.274 2.356-11.489 6.437-12.085 9.139"/>
            <path fill="none" stroke-width="1.12" d="M31.01 76.21c2.417 5.773 5.195 11.921 5.148 17.248 5.28 4.505 11.233 5.547 17.297 5.546C59.52 99 65.698 97.439 71.622 93.63c-.99-4.118 1.823-10.585 3.623-16.384m-36.799 6.898c9.22 3.69 19.17 4.405 30.42-.168m-30.42.168l-.191 10.693m4.385-8.796l-.38 11.038m4.003-10.52l-.19 11.9m4.003-11.383l-.19 11.383m3.813-11.21l-.381 11.555m4.004-11.9l.572 11.555m2.859-11.9l.572 11.555m3.242-12.59l.572 11.555m-26.693-7.071c9.277 4.091 19.131 4.82 29.934.173m.487-6.205l.466 10.861"/>
        </g>
    </g>
</svg>
