<svg xmlns="http://www.w3.org/2000/svg" viewBox="0 0 150 150">
    <g>
        <g fill-rule="evenodd" stroke="#000">
            <path fill="#f55" stroke-width="2.143" d="M75.273 125.039c-20.775-12.965-50.918-36.954-51.856-65.064-.907-27.19 28.525-41.968 49.874-11.54 14.903-30.775 51.33-16.284 51.678 10.989.356 27.898-31.889 51.639-49.696 65.615z"/>
            <path fill="#ff8080" stroke-width="1.835" d="M75.273 120.276c-17.9-11.028-43.873-31.434-44.68-55.346-.782-23.128 24.577-35.7 42.972-9.817 12.841-26.177 44.229-13.851 44.528 9.348.306 23.732-27.476 43.927-42.82 55.815z"/>
            <path fill="#faa" stroke-width="1.559" d="M75.273 116.043c-15.485-9.203-37.952-26.231-38.651-46.184-.676-19.3 21.261-29.79 37.174-8.192 11.108-21.845 38.26-11.559 38.518 7.8.265 19.803-23.768 36.655-37.04 46.576z"/>
            <path fill="#ffd5d5" stroke-width="1.18" d="M75.273 111.28c-11.246-7.264-27.563-20.706-28.07-36.457-.491-15.235 15.44-23.515 26.997-6.466 8.068-17.244 27.786-9.124 27.975 6.157.192 15.633-17.262 28.935-26.902 36.766z"/>
            <path fill="#f55" stroke-width=".758" d="M74.896 101.98C67.6 97.363 57.01 88.822 56.681 78.815c-.319-9.68 10.02-14.942 17.52-4.11 5.234-10.955 18.03-5.796 18.152 3.913.125 9.932-11.201 18.385-17.457 23.36z"/>
        </g>
    </g>
</svg>
