<?xml version="1.0" encoding="UTF-8"?>
<svg cursor="default" version="1.1" viewBox="0 0 256 256" xmlns="http://www.w3.org/2000/svg" xmlns:cc="http://creativecommons.org/ns#" xmlns:dc="http://purl.org/dc/elements/1.1/" xmlns:rdf="http://www.w3.org/1999/02/22-rdf-syntax-ns#" xmlns:xlink="http://www.w3.org/1999/xlink">
 <metadata>
  <rdf:RDF>
   <cc:Work rdf:about="">
    <dc:format>image/svg+xml</dc:format>
    <dc:type rdf:resource="http://purl.org/dc/dcmitype/StillImage"/>
    <dc:title/>
   </cc:Work>
  </rdf:RDF>
 </metadata>
 <defs>
  <linearGradient id="innoGrad3">
   <stop stop-color="#ffb380" offset="0"/>
   <stop stop-color="#f95" offset="1"/>
  </linearGradient>
  <linearGradient id="linearGradient977" x1="156.75" x2="159.46" y1="57.763" y2="85.966" gradientTransform="translate(-6.5085 13.559)" gradientUnits="userSpaceOnUse">
   <stop stop-color="#ff8080" offset="0"/>
   <stop stop-color="#f55" offset="1"/>
  </linearGradient>
  <linearGradient id="linearGradient985" x1="147.8" x2="151.86" y1="82.441" y2="130.44" gradientTransform="translate(-6.5085 13.559)" gradientUnits="userSpaceOnUse">
   <stop stop-color="#ff8080" offset="0"/>
   <stop stop-color="#ff8080" offset=".44695"/>
   <stop stop-color="#f55" offset=".80975"/>
   <stop stop-color="#ff8080" offset="1"/>
  </linearGradient>
  <linearGradient id="linearGradient997" x1="119.27" x2="120.23" y1="116.59" y2="133.28" gradientTransform="translate(-6.5085 13.559)" gradientUnits="userSpaceOnUse" xlink:href="#innoGrad3"/>
  <linearGradient id="linearGradient1005" x1="207.05" x2="207.15" y1="111.61" y2="126.71" gradientTransform="translate(-6.5085 13.559)" gradientUnits="userSpaceOnUse" xlink:href="#innoGrad3"/>
 </defs>
 <g fill-rule="evenodd" stroke="#000" stroke-width="1px">
  <path d="m46.915 154.58c-3.1292 18.583 86.97 28.112 141.23 22.911 35.674-3.4199 59.701-16.152 54.635-21.257z" fill="#f55"/>
  <path d="m235.87 106.76c-7.6136-4.4348-18.407-2.0151-22.436-0.19175 4.4083 12.228-0.51714 26.486 14.382 36.434 5.6546-3.7284 14.218-16.826 8.0538-36.242z" fill="#ff2a2a"/>
  <path d="m23.214 118.07c0.5924-0.47116 8.6931-2.0102 15.149-2.4928l8.5524 38.998c-8.0209-10.913-17.55-15.775-23.701-36.506z" fill="#ff2a2a"/>
  <path d="m213.63 94.101c-1.7955 3.6538 16.775-1.4739 23.778-5.1775 2.9621-1.5666 4.954-9.1527-1e-5 -12.464-23.155-15.478-57.804-15.773-106.62-12.464-22.875 1.5505-46.015 9.1362-68.212 16.088-14.188 4.4439-27.537 6.2473-41.665 13.826-5.9047 3.1673-8.1662 13.036-5.561 16.875 2.3301 3.4329 5.5959 6.6067 9.7796 6.328 4.5268-1.4992 5.1688-3.9916 6.5198-5.9445z" fill="url(#linearGradient977)"/>
  <path d="m226.48 140.31 4.2187-1.5341c3.3344-9.3087 8.5941-16.83 5.1775-32.407 3.1439 5.0654 6.8811 13.955-3.2599 35.667-2.3147 1.2416-4.1288 1.4821-5.9445 1.7258z" fill="#f55"/>
  <path d="m46.915 154.58c2.6966 18.985 90.404 24.8 136.95 21.966 21.556-1.3123 62.131-12.865 59.152-20.26-1.6412-4.0738-12.688-11.74-18.745-17.707-126.48-17.527-162.89-4.487-177.36 16z" fill="#ff8080"/>
  <path d="m31.172 111.07 9.6838 42.474c61.48-12.187 169.09-13.987 186.58-13.998-9.6179-25.96-9.0477-32.278-7.095-46.597-62.604-5.5234-126.4 1.6278-189.17 18.121z" fill="url(#linearGradient985)"/>
  <path d="m51.211 151.24c-15.246-1.9796-17.443-13.373-27.421-34.325l-2.4929 2.1093c2.5232 7.5699 9.9744 16.376 11.1 23.904 1.6921 11.317 2.0914 17.529 15.938 15.215z" fill="#f55"/>
 </g>
 <g>
  <path d="m152.29 91.709c-1.6838 0.11307-6.7222-0.79389-8.3725-0.97345-1.4032-0.15268-2.98-0.37673-4.6883-0.70675-3.5644-0.6886-7.5271-1.8138-10.979-3.407-1.444-0.6665-2.745-1.3929-3.7982-2.1492-0.99734-0.71622-1.7372-1.4345-2.1635-2.1152-0.20463-0.32671-0.33071-0.63479-0.38415-0.92221-0.052-0.27986-0.0375-0.55119 0.0529-0.8182 0.0903-0.26667 0.26234-0.54602 0.54766-0.83001 0.2841-0.28276 0.6754-0.56478 1.1932-0.83583 1.8615-1.0312 4.2795-1.6171 6.6057-2.072 4.302-0.84129 4.4055-0.7275 7.0097-1.3786-1.9076 0.4769-3.4277 0.57004-7.0646 1.0404-2.3244 0.30064-4.8784 0.7172-6.9331 1.6453-0.5822 0.27881-1.0634 0.58873-1.4422 0.93114-0.38275 0.34595-0.6651 0.72894-0.83661 1.1486-0.17432 0.42655-0.22634 0.87242-0.17016 1.3231 0.0566 0.4539 0.22121 0.90105 0.46391 1.3329 0.49749 0.88523 1.3435 1.7433 2.386 2.5409 1.112 0.85076 2.4717 1.6516 3.9558 2.3753 3.5423 1.7274 7.6171 2.9456 11.262 3.6824 1.7516 0.35414 3.3729 0.59292 4.8163 0.74997 1.6982 0.18478 6.8557-0.44861 8.5395-0.56168z"/>
  <path d="m184.22 91.496 1.0794-0.14204c-0.26467-2.0113-1.0237-4.3702-2.5032-7.8843-1.0083-2.395-2.2532-5.1045-2.9552-7.2769-0.35209-1.0896-0.57817-2.0633-0.63211-2.9092-0.0276-0.43295-0.01-0.82696 0.0565-1.1835 0.0687-0.36953 0.1895-0.69929 0.36612-0.99125 0.39327-0.65007 1.0595-1.1028 1.9742-1.3688 1.1944-0.34737 2.6741-0.33387 4.0244-0.18384-1.3445-0.14938-2.8248-0.2226-4.0612 0.036-0.94195 0.19702-1.7349 0.58347-2.288 1.2679-0.25052 0.31004-0.44523 0.67321-0.58334 1.0909-0.13288 0.40181-0.21095 0.84665-0.23968 1.3317-0.0559 0.94468 0.0764 2.0208 0.33166 3.1924 0.50646 2.3247 1.557 5.2016 2.3727 7.6142 1.245 3.6822 1.7324 5.6796 1.9784 7.5487l1.0794-0.14204z"/>
  <path d="m203.46 92.116c0.71028-0.124 2.9284 0.16511 3.553-0.06766 1.0795-0.40228 2.4132-1.061 3.7126-2.1031 1.663-1.3337 3.0094-3.0829 3.9485-5.2718 2.075-4.8365 1.521-10.339 1.2541-13.008 0.27389 2.7389 0.26885 8.1785-2.1354 12.581-1.0678 1.9553-2.4364 3.4031-3.9841 4.4741-1.2163 0.84165-2.4193 1.3654-3.3918 1.7278-0.56161 0.20928-2.2466 1.5435-2.9568 1.6676z"/>
  <path d="m217.83 92.668c0.42467-0.01734 1.9297 0.5192 2.4443 0.42875 0.52235-0.09181 1.2458-0.25858 2.094-0.52866 1.3776-0.43862 3.0818-1.1501 4.6875-2.2181 1.5027-0.99941 2.7512-2.1997 3.6181-3.5886 1.1538-1.8488 1.3654-3.5965 1.3654-4.9325 0 1.3462-0.36728 3.0702-1.6458 4.7387-0.95589 1.2474-2.2639 2.262-3.7689 3.0613-1.6162 0.85843-3.2783 1.3742-4.605 1.6909-0.81149 0.1937-1.504 0.31465-1.9874 0.39963-0.48046 0.08445-1.7775 0.93129-2.2022 0.94863z"/>
  <path d="m88.987 98.703 1.1037-0.28413c-0.52584-2.0426-1.9587-4.5272-5.1717-6.31-2.3496-1.3037-5.3483-2.0489-8.6942-2.0901-3.355-0.04126-6.7296 0.62799-9.7716 1.8237-4.1194 1.6192-6.9056 3.8929-8.7227 5.7099 1.8167-1.8167 4.7379-3.9526 8.8742-5.2862 3.061-0.98689 6.3782-1.3918 9.5638-1.1092 3.19 0.28299 5.8552 1.2188 7.8034 2.5168 2.597 1.7303 3.5218 3.7996 3.9115 5.3133l1.1037-0.28413z"/>
  <path d="m42.773 107.91 0.58548-0.32955c-0.40741-0.72381-0.99217-1.537-1.798-2.2026-0.61688-0.50952-1.3271-0.90306-2.138-1.1349-1.428-0.40825-2.9707-0.26076-4.5716 0.25861-1.5785 0.51211-3.1362 1.3614-4.4955 2.2047-1.8007 1.1173-3.2176 2.1671-4.0736 2.7377 0.71112-0.47408 2.4661-1.5989 4.2051-2.5073 1.4184-0.74092 2.9975-1.4354 4.5433-1.7876 1.571-0.35802 2.9189-0.32044 4.0541 0.11791 0.63862 0.24661 1.1817 0.60879 1.6533 1.0514 0.62244 0.58419 1.0887 1.2795 1.4499 1.9212l0.58548-0.32955z"/>
  <path d="m28.698 114.77 0.75881-0.60298c-0.36158-0.45502-1.1396-1.2682-2.2063-2.0423-0.82352-0.59762-1.8158-1.1686-2.9267-1.5292-1.1265-0.36575-2.2515-0.47593-3.3684-0.31813-1.4936 0.21103-2.694 0.85933-3.6137 1.4341 0.92694-0.57934 2.2045-1.0788 3.6379-1.0522 1.0599 0.0197 2.0499 0.32148 2.963 0.82729 0.90414 0.50083 1.6691 1.1659 2.2914 1.8159 0.78137 0.81609 1.4059 1.6938 1.7052 2.0705l0.75881-0.60298z"/>
 </g>
 <g stroke="#000">
  <path d="m34.911 139.93 70.95-10.355c28.161-2.4425 58.068-4.0123 90.318-4.4104 10.545 0.12784 20.639 0.25567 30.681 0.38351 3.0424 4.8514 3.3381 9.0162 2.3011 12.848-9.8643 0.24531-21.01-0.15028-31.832-0.38351-27.5 0.59015-55.863 2.0427-84.373 3.6434-25.311 2.4938-50.344 5.1958-73.635 9.2044z" fill="#ffb380" fill-rule="evenodd" stroke-width="1px"/>
  <path d="m36.254 141.94c0.40978-1.1151 75.948-11.736 76.032-11.314 28.992-2.2958 59.335-3.0148 89.839-3.5475l24.929 0.38351" fill="none" stroke-width=".5"/>
  <path d="m229.55 136.19-29.147-0.47939c-27.819 0.63076-55.824 1.3015-87.154 2.6846-25.851 3.1189-51.612 6.2726-74.21 10.643" fill="none" stroke-width=".5"/>
 </g>
 <g stroke="#000">
  <path d="m123.6 127.18c-3.5799 0.70715-1.0612 8.3843-1.4382 12.752 0.15742 0.95131 0.20192 1.3866 3.0681 1.7258 0.0645 2.1862-11.761 1.5341-17.642 2.3011-7.0858 0.92424-11.968-16.946 0-16.875 5.3373 0.032 12.909-1.4261 16.012 0.0959z" fill="url(#linearGradient997)" fill-rule="evenodd" stroke-width="1px"/>
  <path d="m190.62 124.45c4.249-1.2372 4.9995 13.749 0.28763 14.094 2.0027 2.4782 8.9167 1.7098 13.231 1.4861 3.0821-0.15981 6.1026-6.4312 5.9445-9.8755-0.2237-4.872-4.7642-7.4992-7.4786-7.3827-4.091 0.17569-11.072-1.0254-11.985 1.6779z" fill="url(#linearGradient1005)" fill-rule="evenodd" stroke-width="1px"/>
  <ellipse cx="112.81" cy="135.38" rx="2.2359" ry="1.9483" fill="#f95" stroke-linecap="round" stroke-linejoin="round" stroke-width=".65097" style="paint-order:stroke fill markers"/>
 </g>
</svg>
