<svg xmlns="http://www.w3.org/2000/svg" xmlns:xlink="http://www.w3.org/1999/xlink" cursor="pointer" viewBox="0 0 256 256">
    <defs>
        <linearGradient id="linearGradient3" x1="123.996" x2="119.956" y1="1032.412" y2="838.967" gradientTransform="matrix(.8559 0 0 .8559 25.073 130.842)" gradientUnits="userSpaceOnUse" xlink:href="#enforcerSet1"/>
        <linearGradient id="enforcerSet1">
            <stop offset="0" stop-color="#f06"/>
            <stop offset="1" stop-color="#f59"/>
        </linearGradient>
        <linearGradient id="linearGradient1" x1="126.774" x2="127.212" y1="1011.703" y2="849.101" gradientTransform="matrix(.8559 0 0 .8559 25.073 130.842)" gradientUnits="userSpaceOnUse" xlink:href="#enforcerSet2"/>
        <linearGradient id="enforcerSet2">
            <stop offset="0" stop-color="#892ca0"/>
            <stop offset="1" stop-color="#8d5fd3"/>
        </linearGradient>
        <linearGradient id="linearGradient5" x1="100.714" x2="125.306" y1="962.362" y2="873.143" gradientTransform="matrix(.9157 0 0 .9157 19.623 79.822)" gradientUnits="userSpaceOnUse" xlink:href="#enforcerSet3"/>
        <linearGradient id="enforcerSet3">
            <stop offset="0" stop-color="#f06"/>
            <stop offset="1" stop-color="#ff80b2"/>
        </linearGradient>
    </defs>
    <g fill-rule="evenodd">
        <path fill="url(#linearGradient3)" stroke="#000" stroke-width=".856" d="M132.804 1018.413C17.045 975.852 83.726 921.795 50.444 861.6c46.102.677 74.32-19.851 83.211-30.408 9.973 10.986 36.207 28.778 80.632 29.491-27.718 60.797 41.692 116.967-81.483 157.73z" transform="translate(-8.929 -799.22)"/>
        <path fill="url(#linearGradient1)" stroke="#000" stroke-width=".77" d="M133.237 1009.08c-104.184-38.305-44.472-86.778-72.64-141.131 41.492.608 65.327-16.68 73.33-26.181 8.975 9.887 32.182 24.713 72.164 25.355-24.946 54.717 38.003 105.27-72.854 141.957z" transform="translate(-8.929 -799.22)"/>
        <path fill="#fff" d="M126.492 36.246c23.05 18.955 41.366 23.853 62.107 25.177 3.347.657 6.782 1.22 10.34 1.733-3.58.248-7.08.445-10.527.542-21.126-2.12-39.352-7.907-61.92-27.452z"/>
        <path fill="url(#linearGradient5)" stroke="#000" d="M134.662 859.77l-40.6 116.58 101.27-72.246-122.72-.24L175.04 976.55z" transform="translate(-8.929 -799.22)"/>
        <path fill="#fff" d="M180.262 106.813l-27.182-.553-8.585 1.025 8.61.798 27.157-1.27zM125.922 66.522l8.15 30.38 3.047 5.639-.687-6.373-10.51-29.646z"/>
    </g>
</svg>
