<?xml version="1.0" encoding="UTF-8" standalone="no"?>
<!-- Created with Inkscape (http://www.inkscape.org/) -->

<svg
   xmlns:dc="http://purl.org/dc/elements/1.1/"
   xmlns:cc="http://creativecommons.org/ns#"
   xmlns:rdf="http://www.w3.org/1999/02/22-rdf-syntax-ns#"
   xmlns:svg="http://www.w3.org/2000/svg"
   xmlns="http://www.w3.org/2000/svg"
   xmlns:sodipodi="http://sodipodi.sourceforge.net/DTD/sodipodi-0.dtd"
   xmlns:inkscape="http://www.inkscape.org/namespaces/inkscape"
   viewBox="0 0 256 256"
   id="svg4164"
   version="1.1"
   inkscape:version="0.91 r13725"
   sodipodi:docname="bdsmIcon.svg">
  <defs
     id="defs4166">
    <inkscape:path-effect
       effect="powerstroke"
       id="path-effect4614"
       is_visible="true"
       offset_points="0.86644719,0.60384456"
       sort_points="true"
       interpolator_type="Linear"
       interpolator_beta="0.2"
       start_linecap_type="zerowidth"
       linejoin_type="round"
       miter_limit="4"
       end_linecap_type="zerowidth"
       cusp_linecap_type="round" />
    <inkscape:path-effect
       effect="powerstroke"
       id="path-effect4610"
       is_visible="true"
       offset_points="0.089858733,0.41937464"
       sort_points="true"
       interpolator_type="Linear"
       interpolator_beta="0.2"
       start_linecap_type="zerowidth"
       linejoin_type="round"
       miter_limit="4"
       end_linecap_type="zerowidth"
       cusp_linecap_type="round" />
    <inkscape:path-effect
       effect="powerstroke"
       id="path-effect4606"
       is_visible="true"
       offset_points="0.29328208,0.36028299"
       sort_points="true"
       interpolator_type="Linear"
       interpolator_beta="0.2"
       start_linecap_type="zerowidth"
       linejoin_type="round"
       miter_limit="4"
       end_linecap_type="zerowidth"
       cusp_linecap_type="round" />
    <inkscape:path-effect
       effect="powerstroke"
       id="path-effect4584"
       is_visible="true"
       offset_points="0.52899141,0.61650821"
       sort_points="true"
       interpolator_type="Linear"
       interpolator_beta="0.2"
       start_linecap_type="zerowidth"
       linejoin_type="round"
       miter_limit="4"
       end_linecap_type="zerowidth"
       cusp_linecap_type="round" />
    <inkscape:path-effect
       effect="powerstroke"
       id="path-effect4580"
       is_visible="true"
       offset_points="0.13749695,-0.46515609"
       sort_points="true"
       interpolator_type="Linear"
       interpolator_beta="0.2"
       start_linecap_type="zerowidth"
       linejoin_type="round"
       miter_limit="4"
       end_linecap_type="zerowidth"
       cusp_linecap_type="round" />
    <inkscape:path-effect
       effect="powerstroke"
       id="path-effect4576"
       is_visible="true"
       offset_points="0.41874474,0.215021"
       sort_points="true"
       interpolator_type="Linear"
       interpolator_beta="0.2"
       start_linecap_type="zerowidth"
       linejoin_type="round"
       miter_limit="4"
       end_linecap_type="zerowidth"
       cusp_linecap_type="round" />
    <inkscape:path-effect
       effect="powerstroke"
       id="path-effect4572"
       is_visible="true"
       offset_points="0.73015703,-0.53296366"
       sort_points="true"
       interpolator_type="Linear"
       interpolator_beta="0.2"
       start_linecap_type="zerowidth"
       linejoin_type="round"
       miter_limit="4"
       end_linecap_type="zerowidth"
       cusp_linecap_type="round" />
    <inkscape:path-effect
       effect="powerstroke"
       id="path-effect4568"
       is_visible="true"
       offset_points="0.55601668,0.4410637"
       sort_points="true"
       interpolator_type="Linear"
       interpolator_beta="0.2"
       start_linecap_type="zerowidth"
       linejoin_type="round"
       miter_limit="4"
       end_linecap_type="zerowidth"
       cusp_linecap_type="round" />
    <inkscape:path-effect
       effect="powerstroke"
       id="path-effect4242"
       is_visible="true"
       offset_points="0.22358219,-0.72791312"
       sort_points="true"
       interpolator_type="Linear"
       interpolator_beta="0.2"
       start_linecap_type="zerowidth"
       linejoin_type="round"
       miter_limit="4"
       end_linecap_type="zerowidth"
       cusp_linecap_type="round" />
    <inkscape:path-effect
       effect="powerstroke"
       id="path-effect4238"
       is_visible="true"
       offset_points="0.14544937,2.3549562"
       sort_points="true"
       interpolator_type="Linear"
       interpolator_beta="0.2"
       start_linecap_type="zerowidth"
       linejoin_type="round"
       miter_limit="4"
       end_linecap_type="zerowidth"
       cusp_linecap_type="round" />
    <inkscape:path-effect
       effect="powerstroke"
       id="path-effect4255"
       is_visible="true"
       offset_points="0.088828796,0.39810203"
       sort_points="true"
       interpolator_type="Linear"
       interpolator_beta="0.2"
       start_linecap_type="zerowidth"
       linejoin_type="round"
       miter_limit="4"
       end_linecap_type="zerowidth"
       cusp_linecap_type="round" />
    <inkscape:path-effect
       effect="powerstroke"
       id="path-effect4203"
       is_visible="true"
       offset_points="0.81276062,-1.286815"
       sort_points="true"
       interpolator_type="Linear"
       interpolator_beta="0.2"
       start_linecap_type="zerowidth"
       linejoin_type="round"
       miter_limit="4"
       end_linecap_type="zerowidth"
       cusp_linecap_type="round" />
    <inkscape:path-effect
       effect="powerstroke"
       id="path-effect4199"
       is_visible="true"
       offset_points="0.28308433,1.1604326"
       sort_points="true"
       interpolator_type="Linear"
       interpolator_beta="0.2"
       start_linecap_type="zerowidth"
       linejoin_type="round"
       miter_limit="4"
       end_linecap_type="zerowidth"
       cusp_linecap_type="round" />
    <marker
       inkscape:stockid="Arrow1Lstart"
       orient="auto"
       refY="0.0"
       refX="0.0"
       id="Arrow1Lstart"
       style="overflow:visible"
       inkscape:isstock="true">
      <path
         id="path4233"
         d="M 0.0,0.0 L 5.0,-5.0 L -12.5,0.0 L 5.0,5.0 L 0.0,0.0 z "
         style="fill-rule:evenodd;stroke:#000000;stroke-width:1pt;stroke-opacity:1;fill:#000000;fill-opacity:1"
         transform="scale(0.8) translate(12.5,0)" />
    </marker>
    <inkscape:path-effect
       effect="powerstroke"
       id="path-effect4203-4"
       is_visible="true"
       offset_points="0.45408377,-0.95413935"
       sort_points="true"
       interpolator_type="Linear"
       interpolator_beta="0.2"
       start_linecap_type="zerowidth"
       linejoin_type="round"
       miter_limit="4"
       end_linecap_type="zerowidth"
       cusp_linecap_type="round" />
    <inkscape:path-effect
       effect="powerstroke"
       id="path-effect4199-7"
       is_visible="true"
       offset_points="0.88158867,1.1916301"
       sort_points="true"
       interpolator_type="Linear"
       interpolator_beta="0.2"
       start_linecap_type="zerowidth"
       linejoin_type="round"
       miter_limit="4"
       end_linecap_type="zerowidth"
       cusp_linecap_type="round" />
    <inkscape:path-effect
       effect="powerstroke"
       id="path-effect4584-7"
       is_visible="true"
       offset_points="0.52899141,0.61650821"
       sort_points="true"
       interpolator_type="Linear"
       interpolator_beta="0.2"
       start_linecap_type="zerowidth"
       linejoin_type="round"
       miter_limit="4"
       end_linecap_type="zerowidth"
       cusp_linecap_type="round" />
    <inkscape:path-effect
       effect="powerstroke"
       id="path-effect4614-6"
       is_visible="true"
       offset_points="0.86644719,0.60384456"
       sort_points="true"
       interpolator_type="Linear"
       interpolator_beta="0.2"
       start_linecap_type="zerowidth"
       linejoin_type="round"
       miter_limit="4"
       end_linecap_type="zerowidth"
       cusp_linecap_type="round" />
  </defs>
  <sodipodi:namedview
     id="base"
     pagecolor="#ffffff"
     bordercolor="#666666"
     borderopacity="1.0"
     inkscape:pageopacity="0.0"
     inkscape:pageshadow="2"
     inkscape:zoom="0.70710678"
     inkscape:cx="-409.76044"
     inkscape:cy="180.68471"
     inkscape:document-units="px"
     inkscape:current-layer="layer1"
     showgrid="false"
     units="px"
     inkscape:window-width="2560"
     inkscape:window-height="1388"
     inkscape:window-x="-8"
     inkscape:window-y="-8"
     inkscape:window-maximized="1" />
  <metadata
     id="metadata4169">
    <rdf:RDF>
      <cc:Work
         rdf:about="">
        <dc:format>image/svg+xml</dc:format>
        <dc:type
           rdf:resource="http://purl.org/dc/dcmitype/StillImage" />
        <dc:title></dc:title>
      </cc:Work>
    </rdf:RDF>
  </metadata>
  <g
     inkscape:groupmode="layer"
     id="layer2"
     inkscape:label="Layer 2"
     style="display:inline" />
  <g
     inkscape:label="Layer 1"
     inkscape:groupmode="layer"
     id="layer1"
     transform="translate(0,-796.36219)"
     style="display:inline">
    <g
       id="g4218"
       transform="matrix(1.05,0,0,1.05,-9.5722024,-53.766673)">
      <path
         sodipodi:nodetypes="cccccsc"
         inkscape:connector-curvature="0"
         id="path4283-0"
         d="m 226.09888,948.93157 c -16.75,-9.75 -31,-10 -31,-10 l -49.06564,21.50784 c 1.4984,-14.80475 -2.18275,-29.6095 4.61634,-44.41425 l 26.6993,-14.09359 c 7.91846,-4.70833 62.64426,-10.08223 66.5,14.5 4.92025,31.36895 -17.75,32.5 -17.75,32.5 z"
         style="fill:#ff2a2a;fill-rule:evenodd;stroke:#000000;stroke-width:1px;stroke-linecap:butt;stroke-linejoin:miter;stroke-opacity:1" />
      <path
         sodipodi:nodetypes="ccccc"
         inkscape:connector-curvature="0"
         id="path4273-9"
         d="m 152.22588,933.01605 -3.45342,-0.71469 c 0.0537,-5.76849 3.98928,-18.56112 12.25543,-20.69045 l -0.71914,2.17936 c -5.01168,2.78424 -8.35403,13.48053 -8.08287,19.22578 z"
         style="fill:#ffaaaa;fill-rule:evenodd;stroke:#000000;stroke-width:1px;stroke-linecap:butt;stroke-linejoin:miter;stroke-opacity:1" />
      <path
         sodipodi:nodetypes="ccccc"
         inkscape:connector-curvature="0"
         id="path4259-4"
         d="m 209.47388,905.80657 c 2.59087,13.10519 -4.65734,27.74565 -7.75,37.625 -14.27935,7.48512 -25.71302,6.71777 -38.5,9.875 l -2.25,-29.5 c 0.7636,-6.01264 28.82074,-23.34626 48.5,-18 z"
         style="fill:#ff5555;fill-rule:evenodd;stroke:#000000;stroke-width:1px;stroke-linecap:butt;stroke-linejoin:miter;stroke-opacity:1" />
      <path
         sodipodi:nodetypes="ccccc"
         inkscape:connector-curvature="0"
         id="path4255-2"
         d="m 238.49291,975.17729 c -25.51559,39.10111 -78.24527,14.60448 -82.89571,3.30438 l 2.99264,-53.06702 c -1.8166,6.00835 42.26258,56.19552 88.38965,2.65663 0.87782,13.77468 -4.18923,31.75834 -8.48658,47.10601 z"
         style="fill:#ff8080;fill-rule:evenodd;stroke:#000000;stroke-width:1px;stroke-linecap:butt;stroke-linejoin:miter;stroke-opacity:1" />
      <path
         sodipodi:nodetypes="csccscc"
         inkscape:connector-curvature="0"
         id="path4271-1"
         d="m 147.43775,961.07177 c 0.71875,-10.73301 0.0496,-20.83132 0.4189,-30.92688 0.35956,-9.8282 4.40015,-18.49999 16.25647,-19.99998 l 0.57766,-1.8151 c -12.94512,1.51186 -18.384,7.82812 -18.89786,21.22309 l -1.19433,31.13314 c 0.81062,0.67369 1.86235,1.37379 2.83916,0.38573 z"
         style="fill:#ffaaaa;fill-rule:evenodd;stroke:#000000;stroke-width:1px;stroke-linecap:butt;stroke-linejoin:miter;stroke-opacity:1" />
      <path
         sodipodi:nodetypes="ccccc"
         inkscape:connector-curvature="0"
         id="path4269-5"
         d="m 159.20291,914.90383 c -1.52421,0.81248 -2.83775,1.20295 -3.26533,-0.18138 2.77124,-3.72002 4.44856,-7.13163 8.50152,-11.21303 2.5702,-0.83027 2.65429,0.0923 2.83773,0.94478 -3.2789,3.48116 -7.09923,6.96043 -8.07392,10.44963 z"
         style="fill:#e6e6e6;fill-rule:evenodd;stroke:#000000;stroke-width:1px;stroke-linecap:butt;stroke-linejoin:miter;stroke-opacity:1" />
      <path
         sodipodi:nodetypes="cccccccc"
         inkscape:connector-curvature="0"
         id="path4267-8"
         d="m 158.98813,917.43749 -2.56326,0.17678 c 0.20116,-1.46896 -5.70988,-2.52175 -9.63433,0.17677 -1.24669,7.15946 -1.46076,15.23313 -1.33026,22.39259 -0.98317,-0.0784 -2.20757,0.80801 -2.7356,-1.09099 -0.68816,-8.67687 0.66503,-17.73011 1.06066,-23.33453 0.67555,-1.61041 7.52815,-2.27252 14.23052,-1.41421 1.68563,1.0312 1.78229,2.06239 0.97227,3.09359 z"
         style="fill:#e6e6e6;fill-rule:evenodd;stroke:#000000;stroke-width:1px;stroke-linecap:butt;stroke-linejoin:miter;stroke-opacity:1" />
      <path
         sodipodi:nodetypes="sssccssssccss"
         inkscape:connector-curvature="0"
         id="path4257-9"
         d="m 248.03885,924.97271 c 0.0774,22.29401 -24.2268,30.37471 -46.66905,29.07977 -16.70955,-0.96416 -45.36415,-8.47054 -43.48706,-25.1023 2.68595,-23.79859 46.0995,-26.13078 46.0995,-26.13078 5.07589,0.0665 6.99972,3.67272 4.28185,3.50337 -1.99826,-0.11478 -52.48842,7.37331 -44.37095,24.74874 5.80013,12.41516 23.06792,18.1775 36.76956,18.38477 21.558,0.32612 44.67772,-9.22974 41.54252,-25.10229 -5.00307,-25.32903 -44.63748,-33.24223 -73.60681,-15.28154 -6.85582,4.25054 -13.19055,25.35781 -13.19055,25.35781 l -3.71231,-2.12132 c 3.83016,-7.89602 5.90027,-18.35323 11.49049,-23.68807 22.12864,-21.11776 84.74279,-15.34213 84.85281,16.35184 z"
         style="fill:#ffaaaa;fill-rule:evenodd;stroke:#000000;stroke-width:1px;stroke-linecap:butt;stroke-linejoin:miter;stroke-opacity:1" />
      <path
         sodipodi:nodetypes="ccccc"
         inkscape:connector-curvature="0"
         id="path4261-6"
         d="m 248.7971,940.93341 c 0.18507,3.12379 -2.92302,17.32326 -5.19822,23.37316 -32.21871,44.21893 -91.21877,15.98585 -95.125,-1.3125 l 0.5625,-19.5 c 19.17589,28.63692 73.1549,39.31343 99.76072,-2.56066 z"
         style="fill:#ff8080;fill-rule:evenodd;stroke:#000000;stroke-width:1px;stroke-linecap:butt;stroke-linejoin:miter;stroke-opacity:1" />
      <path
         sodipodi:nodetypes="cccccccc"
         inkscape:connector-curvature="0"
         id="path4263-9"
         d="m 156.95872,948.81828 -3.61244,-0.7513 c -0.32804,-2.46725 1.08154,-5.44854 0.17489,-7.39508 -2.95223,-0.89763 -6.50799,-0.55508 -8.25938,-0.30229 l -1.41291,17.81196 c -1.53145,-5.60382 -1.02773,-17.66667 0.25,-26.5 4.47603,-0.59604 8.95205,-0.39886 13.42808,0.0594 0.27961,4.00403 0.54597,11.07661 -0.56824,17.07731 z"
         style="fill:#ffaaaa;fill-rule:evenodd;stroke:#000000;stroke-width:1px;stroke-linecap:butt;stroke-linejoin:miter;stroke-opacity:1" />
      <path
         sodipodi:nodetypes="ccsscccc"
         inkscape:connector-curvature="0"
         id="path4265-2"
         d="m 248.74596,942.03166 c 0.61376,-4.47193 -0.47376,-8.55556 -0.97227,-12.9047 1.01098,15.60198 -13.52552,29.14821 -29.57706,35.09102 -12.85622,4.7598 -26.41503,4.42032 -39.23387,-0.54061 -10.65239,-4.12251 -26.58525,-13.78083 -26.73688,-23.2367 l -3.40295,-0.0884 c -2.60151,14.00567 61.13634,58.64404 99.92303,1.67938 z"
         style="fill:#ffaaaa;fill-rule:evenodd;stroke:#000000;stroke-width:1px;stroke-linecap:butt;stroke-linejoin:miter;stroke-opacity:1" />
      <path
         sodipodi:nodetypes="cccccc"
         inkscape:connector-curvature="0"
         id="path4518-3"
         d="m 139.57988,1007.7098 c -2.20346,-1.1315 -4.68002,-1.9446 -7.86417,-1.9896 l 0.33095,1.6518 7.39066,1.6597 c 0.49,0.1591 0.52427,-0.7699 0.14254,-1.3219 z"
         style="display:inline;fill:#808080;fill-rule:evenodd;stroke:#000000;stroke-width:0.75;stroke-linecap:butt;stroke-linejoin:miter;stroke-miterlimit:4;stroke-dasharray:none;stroke-opacity:1" />
      <g
         transform="matrix(0.97884436,0.17440482,-0.21162316,0.80669418,216.78143,162.3503)"
         id="g4510">
        <path
           style="fill:#ececec;fill-rule:evenodd;stroke:#000000;stroke-width:1px;stroke-linecap:butt;stroke-linejoin:miter;stroke-opacity:1"
           d="m 176.34165,1012.0723 c -10.64875,3.8796 -17.93303,6.2211 -23.54945,8.0639 0.1801,-3.9099 -1.46339,-6.7183 -5.38029,-9.2212 7.19342,-3.8958 15.64584,-7.5614 21.58567,-13.35528 -0.81548,4.13738 -1.41456,11.27508 7.34407,14.51258 z"
           id="path4295-9"
           inkscape:connector-curvature="0"
           sodipodi:nodetypes="ccccc" />
        <path
           style="fill:#e6e6e6;fill-opacity:1;stroke:#000000;stroke-width:1;stroke-miterlimit:4;stroke-dasharray:none;stroke-dashoffset:0"
           d="m 178.93273,992.38319 a 10.928162,9.9310675 3.427892 0 1 10.3163,10.56741 10.928162,9.9310675 3.427892 0 1 -11.50397,9.2603 10.928162,9.9310675 3.427892 0 1 -10.31434,-10.5672 10.928162,9.9310675 3.427892 0 1 11.50201,-9.26051 z m -0.12857,2.14655 a 8.5625,7.78125 3.427892 0 0 -9.01244,7.25536 8.5625,7.78125 3.427892 0 0 8.08192,8.2793 8.5625,7.78125 3.427892 0 0 9.01244,-7.2554 8.5625,7.78125 3.427892 0 0 -8.08192,-8.27926 z"
           id="ellipse4293-2"
           inkscape:connector-curvature="0" />
        <ellipse
           style="fill:#333333;fill-opacity:1;stroke:#000000;stroke-width:0.78969175;stroke-miterlimit:4;stroke-dasharray:none;stroke-dashoffset:0"
           id="path4297-9"
           cx="191.7601"
           cy="1005.2817"
           rx="3.1987462"
           ry="1.3646882"
           transform="matrix(-0.94088859,0.33871619,0.33871619,0.94088859,0,0)" />
        <path
           inkscape:connector-curvature="0"
           style="display:inline;fill:#e6e6e6;fill-opacity:1;stroke:#000000;stroke-width:0.69833726;stroke-miterlimit:4;stroke-dasharray:none;stroke-dashoffset:0"
           d="m 146.55782,1010.3796 a 7.6315432,6.9352348 3.427892 0 1 7.20425,7.3796 7.6315432,6.9352348 3.427892 0 1 -8.03364,6.4669 7.6315432,6.9352348 3.427892 0 1 -7.2029,-7.3795 7.6315432,6.9352348 3.427892 0 1 8.03229,-6.467 z m -0.0898,1.4991 a 5.979513,5.4339371 3.427892 0 0 -6.29372,5.0666 5.979513,5.4339371 3.427892 0 0 5.64391,5.7818 5.979513,5.4339371 3.427892 0 0 6.2937,-5.0667 5.979513,5.4339371 3.427892 0 0 -5.64389,-5.7817 z"
           id="ellipse4293-6-9" />
      </g>
      <path
         sodipodi:nodetypes="ccccc"
         inkscape:connector-curvature="0"
         id="path4275-9"
         d="m 187.93477,965.63135 c -0.98392,-1.1442 -2.13959,-1.17963 -3.35875,-0.44194 -1.11768,10.83084 -2.16933,21.67686 -5.12653,32.08497 0.46611,2.30914 1.44938,2.96342 3.0936,1.5026 3.44629,-10.63628 3.64012,-22.08567 5.39168,-33.14563 z"
         style="fill:#e6e6e6;fill-rule:evenodd;stroke:#000000;stroke-width:1px;stroke-linecap:butt;stroke-linejoin:miter;stroke-opacity:1" />
      <ellipse
         transform="scale(-1,1)"
         ry="5.1613708"
         rx="7.2573419"
         cy="979.61591"
         cx="-198.41582"
         id="path4277-5"
         style="fill:#cccccc;fill-opacity:1;stroke:#000000;stroke-width:0.73531657;stroke-miterlimit:4;stroke-dasharray:none;stroke-dashoffset:0" />
      <ellipse
         transform="matrix(-0.9326675,-0.36073721,-0.36073721,0.9326675,0,0)"
         ry="5.0625"
         rx="6.75"
         cy="846.96045"
         cx="-510.05161"
         id="path4279-1"
         style="fill:#cccccc;fill-opacity:1;stroke:#000000;stroke-width:0.75;stroke-miterlimit:4;stroke-dasharray:none;stroke-dashoffset:0" />
      <ellipse
         transform="matrix(-0.94672121,-0.32205427,-0.24722166,0.96895895,0,0)"
         ry="6.5171719"
         rx="2.2982709"
         cy="830.93341"
         cx="-474.59521"
         id="path4281-3"
         style="fill:#cccccc;fill-opacity:1;stroke:#000000;stroke-width:0.65692127;stroke-miterlimit:4;stroke-dasharray:none;stroke-dashoffset:0" />
      <path
         sodipodi:nodetypes="ccccc"
         inkscape:connector-curvature="0"
         id="path4518-7"
         d="m 132.73679,1006.5995 c -0.36822,-2.4494 -1.02685,-4.3349 -2.84976,-6.94598 l -0.8333,0.58928 1.99648,6.9467 c 0.15697,0.4906 1.46145,0.042 1.68658,-0.59 z"
         style="display:inline;fill:#808080;fill-rule:evenodd;stroke:#000000;stroke-width:0.75;stroke-linecap:butt;stroke-linejoin:miter;stroke-miterlimit:4;stroke-dasharray:none;stroke-opacity:1" />
      <path
         sodipodi:nodetypes="ccccc"
         inkscape:connector-curvature="0"
         id="path4518-4"
         d="m 130.79392,1001.2594 c -2.20455,-1.62946 -5.8046,-3.3204 -10.07298,-4.52024 l 1.66089,2.06679 7.81361,3.69005 c 0.50173,0.292 0.84789,-0.5955 0.59848,-1.2366 z"
         style="display:inline;fill:#808080;fill-rule:evenodd;stroke:#000000;stroke-width:0.81688714;stroke-linecap:butt;stroke-linejoin:miter;stroke-miterlimit:4;stroke-dasharray:none;stroke-opacity:1" />
      <path
         sodipodi:nodetypes="ccccc"
         inkscape:connector-curvature="0"
         id="path4518"
         d="m 123.02386,997.93057 c -0.70094,-2.77233 -1.34243,-5.22929 -3.11074,-8.21786 l -0.8907,0.99283 2.87983,7.97614 c 0.15226,0.56157 0.90323,-0.0274 1.12161,-0.75111 z"
         style="fill:#808080;fill-rule:evenodd;stroke:#000000;stroke-width:0.79027206;stroke-linecap:butt;stroke-linejoin:miter;stroke-miterlimit:4;stroke-dasharray:none;stroke-opacity:1" />
      <g
         transform="matrix(0.98340243,0.09251652,-0.07677486,0.81607684,76.964236,172.66453)"
         id="g4560">
        <path
           style="fill:#ececec;fill-rule:evenodd;stroke:#000000;stroke-width:1px;stroke-linecap:butt;stroke-linejoin:miter;stroke-opacity:1"
           d="m 85.132228,980.6279 c 10.64875,3.87958 17.933032,6.22113 23.549452,8.06391 -0.1801,-3.90987 1.46339,-6.71826 5.38029,-9.22123 -7.19342,-3.89574 -15.645841,-7.56139 -21.585672,-13.35524 0.815484,4.1374 1.414563,11.27513 -7.34407,14.51256 z"
           id="path4295"
           inkscape:connector-curvature="0"
           sodipodi:nodetypes="ccccc" />
        <path
           style="fill:#e6e6e6;fill-opacity:1;stroke:#000000;stroke-width:1;stroke-miterlimit:4;stroke-dasharray:none;stroke-dashoffset:0"
           d="m 82.541146,960.93881 a 9.9310675,10.928162 86.572108 0 0 -10.316298,10.56739 9.9310675,10.928162 86.572108 0 0 11.503969,9.26036 9.9310675,10.928162 86.572108 0 0 10.314347,-10.56727 9.9310675,10.928162 86.572108 0 0 -11.502018,-9.26048 z m 0.128577,2.14655 a 7.78125,8.5625 86.572108 0 1 9.012439,7.25536 7.78125,8.5625 86.572108 0 1 -8.081921,8.27929 7.78125,8.5625 86.572108 0 1 -9.012439,-7.25535 7.78125,8.5625 86.572108 0 1 8.081921,-8.2793 z"
           id="ellipse4293"
           inkscape:connector-curvature="0" />
        <ellipse
           style="fill:#333333;fill-opacity:1;stroke:#000000;stroke-width:0.78969175;stroke-miterlimit:4;stroke-dasharray:none;stroke-dashoffset:0"
           id="path4297"
           cx="427.12717"
           cy="887.13062"
           rx="3.1987462"
           ry="1.3646882"
           transform="matrix(0.94088859,0.33871619,-0.33871619,0.94088859,0,0)" />
        <path
           inkscape:connector-curvature="0"
           style="display:inline;fill:#e6e6e6;fill-opacity:1;stroke:#000000;stroke-width:0.69833726;stroke-miterlimit:4;stroke-dasharray:none;stroke-dashoffset:0"
           d="m 114.91606,978.93527 a 6.9352348,7.6315432 86.572108 0 0 -7.20425,7.37959 6.9352348,7.6315432 86.572108 0 0 8.03364,6.46686 6.9352348,7.6315432 86.572108 0 0 7.2029,-7.37951 6.9352348,7.6315432 86.572108 0 0 -8.03229,-6.46694 z m 0.0898,1.49901 a 5.4339371,5.979513 86.572108 0 1 6.29372,5.06669 5.4339371,5.979513 86.572108 0 1 -5.64391,5.78174 5.4339371,5.979513 86.572108 0 1 -6.2937,-5.06669 5.4339371,5.979513 86.572108 0 1 5.64389,-5.78174 z"
           id="ellipse4293-6" />
      </g>
      <path
         sodipodi:nodetypes="ccccc"
         inkscape:connector-curvature="0"
         id="path4516-3"
         d="m 131.36831,1008.1544 c 2.38091,1.5601 5.71828,1.737 8.13219,1.5386 0.67849,-0.5762 0.46659,-1.277 0.11894,-1.8777 -2.82709,-0.1785 -5.55164,-0.5724 -8.25278,-1.3174 -0.59103,0.5815 -0.18957,1.2026 0.002,1.6565 z"
         style="display:inline;fill:#ececec;fill-rule:evenodd;stroke:#000000;stroke-width:0.75;stroke-linecap:butt;stroke-linejoin:miter;stroke-miterlimit:4;stroke-dasharray:none;stroke-opacity:1" />
      <path
         sodipodi:nodetypes="ccccc"
         inkscape:connector-curvature="0"
         id="path4516-96"
         d="m 128.35394,1000.4364 c 0.12398,2.8437 0.93493,5.9434 2.50563,7.7872 0.75346,0.5236 1.81737,1.2681 2.10198,0.6352 -1.50605,-2.3992 -2.29128,-6.7633 -3.26386,-9.39121 -0.8172,-0.14012 -1.08694,0.54851 -1.34375,0.96881 z"
         style="display:inline;fill:#ececec;fill-rule:evenodd;stroke:#000000;stroke-width:0.75;stroke-linecap:butt;stroke-linejoin:miter;stroke-miterlimit:4;stroke-dasharray:none;stroke-opacity:1" />
      <path
         sodipodi:nodetypes="ccccc"
         inkscape:connector-curvature="0"
         id="path4516-9"
         d="m 121.35548,999.3701 c 2.17789,2.1792 6.75738,3.5577 9.55443,4.0478 0.36163,-0.8955 0.30951,-1.6764 -0.10603,-2.0453 -3.13982,-0.9707 -6.09244,-2.12064 -8.90231,-3.60302 -0.86107,0.39482 -0.61227,1.10812 -0.54609,1.60052 z"
         style="display:inline;fill:#ececec;fill-rule:evenodd;stroke:#000000;stroke-width:0.81688714;stroke-linecap:butt;stroke-linejoin:miter;stroke-miterlimit:4;stroke-dasharray:none;stroke-opacity:1" />
      <path
         sodipodi:nodetypes="ccccc"
         inkscape:connector-curvature="0"
         id="path4516"
         d="m 118.02206,990.59824 c 0.12026,3.25484 1.47376,6.91585 2.99741,9.02613 0.48452,0.77553 1.97704,1.74543 2.25312,1.02093 -1.46093,-2.74599 -3.00358,-8.14816 -3.94703,-11.15585 -0.79272,-0.16038 -1.05438,0.62776 -1.3035,1.10879 z"
         style="fill:#ececec;fill-rule:evenodd;stroke:#000000;stroke-width:0.79027206;stroke-linecap:butt;stroke-linejoin:miter;stroke-miterlimit:4;stroke-dasharray:none;stroke-opacity:1" />
      <path
         sodipodi:nodetypes="cccccsc"
         inkscape:connector-curvature="0"
         id="path4283"
         d="m 36.789214,919.43173 c 16.75,-9.75 31,-10 31,-10 l 49.065636,21.50784 c -1.4984,-14.80475 2.18275,-29.6095 -4.61634,-44.41425 L 85.539214,872.43173 c -7.918462,-4.70833 -62.644256,-10.08223 -66.5,14.5 -4.920246,31.36895 17.75,32.5 17.75,32.5 z"
         style="fill:#ff2a2a;fill-rule:evenodd;stroke:#000000;stroke-width:1px;stroke-linecap:butt;stroke-linejoin:miter;stroke-opacity:1" />
      <path
         sodipodi:nodetypes="ccccc"
         inkscape:connector-curvature="0"
         id="path4273"
         d="m 110.66221,903.51621 3.45342,-0.71469 c -0.0537,-5.76849 -3.98928,-18.56112 -12.25543,-20.69045 l 0.71914,2.17936 c 5.01168,2.78424 8.35403,13.48053 8.08287,19.22578 z"
         style="fill:#ffaaaa;fill-rule:evenodd;stroke:#000000;stroke-width:1px;stroke-linecap:butt;stroke-linejoin:miter;stroke-opacity:1" />
      <path
         sodipodi:nodetypes="ccccc"
         inkscape:connector-curvature="0"
         id="path4259"
         d="m 53.414214,876.30673 c -2.590873,13.10519 4.657337,27.74565 7.75,37.625 14.279352,7.48512 25.713024,6.71777 38.5,9.875 l 2.249996,-29.5 c -0.76359,-6.01264 -28.82074,-23.34626 -48.499996,-18 z"
         style="fill:#ff5555;fill-rule:evenodd;stroke:#000000;stroke-width:1px;stroke-linecap:butt;stroke-linejoin:miter;stroke-opacity:1" />
      <path
         sodipodi:nodetypes="ccccc"
         inkscape:connector-curvature="0"
         id="path4255"
         d="m 24.395184,945.67745 c 25.515593,39.10112 78.245266,14.60448 82.895706,3.30438 l -2.99264,-53.06702 c 1.8166,6.00835 -42.262572,56.19552 -88.389649,2.65663 -0.877813,13.77468 4.189233,31.75834 8.486583,47.10601 z"
         style="fill:#ff8080;fill-rule:evenodd;stroke:#000000;stroke-width:1px;stroke-linecap:butt;stroke-linejoin:miter;stroke-opacity:1" />
      <path
         sodipodi:nodetypes="csccscc"
         inkscape:connector-curvature="0"
         id="path4271"
         d="m 115.45034,931.57193 c -0.71875,-10.73301 -0.0496,-20.83132 -0.4189,-30.92688 -0.35956,-9.8282 -4.40015,-18.49999 -16.256466,-19.99998 l -0.57766,-1.8151 c 12.945116,1.51186 18.383996,7.82812 18.897856,21.22309 l 1.19433,31.13314 c -0.81062,0.67369 -1.86235,1.37379 -2.83916,0.38573 z"
         style="fill:#ffaaaa;fill-rule:evenodd;stroke:#000000;stroke-width:1px;stroke-linecap:butt;stroke-linejoin:miter;stroke-opacity:1" />
      <path
         sodipodi:nodetypes="ccccc"
         inkscape:connector-curvature="0"
         id="path4269"
         d="m 103.68518,885.40399 c 1.52421,0.81248 2.83775,1.20295 3.26533,-0.18138 -2.77124,-3.72002 -4.44856,-7.13163 -8.501519,-11.21303 -2.570202,-0.83027 -2.654283,0.0923 -2.837731,0.94478 3.278906,3.48116 7.09923,6.96043 8.07392,10.44963 z"
         style="fill:#e6e6e6;fill-rule:evenodd;stroke:#000000;stroke-width:1px;stroke-linecap:butt;stroke-linejoin:miter;stroke-opacity:1" />
      <path
         sodipodi:nodetypes="cccccccc"
         inkscape:connector-curvature="0"
         id="path4267"
         d="m 103.89996,887.93765 2.56326,0.17678 c -0.20116,-1.46896 5.70988,-2.52175 9.63433,0.17677 1.24669,7.15946 1.46076,15.23313 1.33026,22.39259 0.98317,-0.0784 2.20757,0.80801 2.7356,-1.09099 0.68816,-8.67687 -0.66503,-17.73011 -1.06066,-23.33453 -0.67555,-1.61041 -7.52815,-2.27252 -14.23052,-1.41421 -1.68563,1.0312 -1.78229,2.06239 -0.97227,3.09359 z"
         style="fill:#e6e6e6;fill-rule:evenodd;stroke:#000000;stroke-width:1px;stroke-linecap:butt;stroke-linejoin:miter;stroke-opacity:1" />
      <path
         sodipodi:nodetypes="sssccssssccss"
         inkscape:connector-curvature="0"
         id="path4257"
         d="m 14.849243,895.47287 c -0.07739,22.29401 24.226798,30.37471 46.669047,29.07977 16.709557,-0.96416 45.36415,-8.47054 43.48706,-25.1023 -2.68595,-23.79859 -46.099496,-26.13078 -46.099496,-26.13078 -5.075893,0.0665 -6.999717,3.67272 -4.281855,3.50337 1.998267,-0.11478 52.488421,7.37331 44.370951,24.74874 -5.800129,12.41516 -23.067918,18.1775 -36.769553,18.38477 -21.558007,0.32612 -44.677719,-9.22974 -41.542523,-25.10229 5.003068,-25.32903 44.637478,-33.24223 73.606809,-15.28154 6.855827,4.25054 13.190547,25.35781 13.190547,25.35781 l 3.71231,-2.12132 C 107.36238,894.91308 105.29227,884.45587 99.702057,879.12103 77.573418,858.00327 14.959268,863.7789 14.849243,895.47287 Z"
         style="fill:#ffaaaa;fill-rule:evenodd;stroke:#000000;stroke-width:1px;stroke-linecap:butt;stroke-linejoin:miter;stroke-opacity:1" />
      <path
         sodipodi:nodetypes="ccccc"
         inkscape:connector-curvature="0"
         id="path4261"
         d="m 14.090991,911.43357 c -0.185072,3.12379 2.923023,17.32326 5.198223,23.37316 32.218713,44.21894 91.218766,15.98585 95.124996,-1.3125 l -0.5625,-19.5 c -19.175888,28.63692 -73.154893,39.31343 -99.760719,-2.56066 z"
         style="fill:#ff8080;fill-rule:evenodd;stroke:#000000;stroke-width:1px;stroke-linecap:butt;stroke-linejoin:miter;stroke-opacity:1" />
      <path
         sodipodi:nodetypes="cccccccc"
         inkscape:connector-curvature="0"
         id="path4263"
         d="m 105.92937,919.31844 3.61244,-0.7513 c 0.32804,-2.46725 -1.08154,-5.44854 -0.17489,-7.39508 2.95223,-0.89763 6.50799,-0.55508 8.25938,-0.30229 l 1.41291,17.81196 c 1.53145,-5.60382 1.02773,-17.66667 -0.25,-26.5 -4.47603,-0.59604 -8.95205,-0.39886 -13.42808,0.0594 -0.27961,4.00403 -0.54597,11.07661 0.56824,17.07731 z"
         style="fill:#ffaaaa;fill-rule:evenodd;stroke:#000000;stroke-width:1px;stroke-linecap:butt;stroke-linejoin:miter;stroke-opacity:1" />
      <path
         sodipodi:nodetypes="ccsscccc"
         inkscape:connector-curvature="0"
         id="path4265"
         d="m 14.142136,912.53182 c -0.613762,-4.47193 0.473755,-8.55556 0.972272,-12.9047 -1.010983,15.60198 13.525516,29.14821 29.577058,35.09102 12.856219,4.7598 26.41503,4.42032 39.233863,-0.54061 10.652398,-4.12251 26.585251,-13.78083 26.736881,-23.2367 l 3.40295,-0.0884 c 2.60151,14.00567 -61.136334,58.64404 -99.923024,1.67938 z"
         style="fill:#ffaaaa;fill-rule:evenodd;stroke:#000000;stroke-width:1px;stroke-linecap:butt;stroke-linejoin:miter;stroke-opacity:1" />
      <path
         sodipodi:nodetypes="ccccc"
         inkscape:connector-curvature="0"
         id="path4275"
         d="m 74.95332,936.13151 c 0.983926,-1.1442 2.139594,-1.17963 3.358756,-0.44194 1.117681,10.83084 2.169329,21.67686 5.126525,32.08497 -0.466111,2.30914 -1.449373,2.9634 -3.093592,1.5026 -3.446292,-10.63628 -3.640127,-22.08567 -5.391689,-33.14563 z"
         style="fill:#e6e6e6;fill-rule:evenodd;stroke:#000000;stroke-width:1px;stroke-linecap:butt;stroke-linejoin:miter;stroke-opacity:1" />
      <ellipse
         ry="5.1613708"
         rx="7.2573419"
         cy="950.11603"
         cx="64.472275"
         id="path4277"
         style="fill:#cccccc;fill-opacity:1;stroke:#000000;stroke-width:0.73531657;stroke-miterlimit:4;stroke-dasharray:none;stroke-dashoffset:0" />
      <ellipse
         transform="matrix(0.9326675,-0.36073721,0.36073721,0.9326675,0,0)"
         ry="5.0625"
         rx="6.75"
         cy="914.28046"
         cx="-254.22273"
         id="path4279"
         style="fill:#cccccc;fill-opacity:1;stroke:#000000;stroke-width:0.75;stroke-miterlimit:4;stroke-dasharray:none;stroke-dashoffset:0" />
      <ellipse
         transform="matrix(0.94672121,-0.32205427,0.24722166,0.96895895,0,0)"
         ry="6.5171719"
         rx="2.2982709"
         cy="887.84296"
         cx="-211.77356"
         id="path4281"
         style="fill:#cccccc;fill-opacity:1;stroke:#000000;stroke-width:0.65692127;stroke-miterlimit:4;stroke-dasharray:none;stroke-dashoffset:0" />
      <path
         sodipodi:nodetypes="cc"
         inkscape:connector-curvature="0"
         inkscape:original-d="m 194.85212,976.08305 c 4.52614,-0.65907 9.24737,0.10278 9.76691,3.44714"
         inkscape:path-effect="#path-effect4568"
         id="path4566"
         d="m 194.85212,976.08305 c 2.29247,-0.19961 4.56731,-0.0321 6.27528,0.60316 0.18946,0.0705 0.3709,0.14634 0.54361,0.22754 1.42594,0.38629 2.57643,1.17111 2.94802,2.61644 -0.0867,-1.53045 -1.06012,-2.68498 -2.63584,-3.44152 -0.20637,-0.0622 -0.41817,-0.11679 -0.63449,-0.16422 -1.91069,-0.41888 -4.26628,-0.29895 -6.49658,0.1586 z"
         style="fill:#ffffff;fill-rule:evenodd;stroke:none;stroke-width:1px;stroke-linecap:butt;stroke-linejoin:miter;stroke-opacity:1" />
      <path
         sodipodi:nodetypes="cc"
         inkscape:connector-curvature="0"
         inkscape:original-d="m 167.5843,970.02844 c 3.70022,-0.20848 6.39273,2.17644 7.95496,5.17072"
         inkscape:path-effect="#path-effect4572"
         id="path4570"
         d="m 167.5843,970.02844 c 2.70575,-0.33131 5.03574,0.73179 6.85034,2.57143 0.47716,0.82861 0.8413,1.71159 1.10462,2.59929 -0.58029,-0.72735 -1.22287,-1.37345 -1.91372,-1.90443 -1.34833,-1.83993 -3.33967,-3.24123 -6.04124,-3.26629 z"
         style="fill:#ffffff;fill-rule:evenodd;stroke:none;stroke-width:1px;stroke-linecap:butt;stroke-linejoin:miter;stroke-opacity:1" />
      <path
         sodipodi:nodetypes="cc"
         inkscape:connector-curvature="0"
         inkscape:original-d="m 243.06796,955.84211 c 1.06931,-2.47057 2.63629,-3.32255 2.91681,-1.50259"
         inkscape:path-effect="#path-effect4576"
         id="path4574"
         d="m 243.06796,955.84211 c 0.51622,-1.01132 1.10592,-1.70213 1.60766,-2.00633 0.0803,-0.0765 0.15808,-0.13974 0.23253,-0.19016 0.22172,-0.15015 0.42389,-0.19485 0.60105,-0.10996 0.19368,0.0928 0.37323,0.34574 0.47557,0.80386 -0.0389,-0.45069 -0.15847,-0.7761 -0.37188,-0.95702 -0.22719,-0.19261 -0.53972,-0.20597 -0.87672,-0.0644 -0.1077,0.0452 -0.21734,0.10595 -0.32768,0.18067 -0.47968,0.46948 -0.96239,1.29103 -1.34053,2.34333 z"
         style="fill:#ffffff;fill-rule:evenodd;stroke:none;stroke-width:1px;stroke-linecap:butt;stroke-linejoin:miter;stroke-opacity:1" />
      <path
         sodipodi:nodetypes="cc"
         inkscape:connector-curvature="0"
         inkscape:original-d="m 186.45522,966.36032 c -1.1312,5.90977 -0.83328,13.10991 -2.2981,19.71061"
         inkscape:path-effect="#path-effect4580"
         id="path4578"
         d="m 186.45522,966.36032 c -0.003,0.84051 0.0226,1.69765 0.0675,2.56515 -0.8371,5.30935 -0.95082,11.48581 -2.36563,17.14546 1.11244,-5.72875 0.90204,-11.82609 1.44287,-17.26377 0.26474,-0.84483 0.54715,-1.66276 0.85523,-2.44684 z"
         style="fill:#ffffff;fill-rule:evenodd;stroke:none;stroke-width:1px;stroke-linecap:butt;stroke-linejoin:miter;stroke-opacity:1" />
      <path
         sodipodi:nodetypes="cc"
         inkscape:connector-curvature="0"
         inkscape:original-d="m 89.095454,942.14192 c 2.488584,-2.44999 8.638619,-1.67833 9.324971,1.28163"
         inkscape:path-effect="#path-effect4584"
         id="path4582"
         d="m 89.095454,942.14192 c 1.356754,-1.06784 3.498629,-1.23929 5.261676,-0.81026 0.102667,0.025 0.204069,0.052 0.303938,0.081 1.654525,0.0865 3.258016,0.72013 3.759357,2.0109 -0.128243,-1.50094 -1.629476,-2.67795 -3.545966,-3.22531 -0.120979,-0.01 -0.242381,-0.0171 -0.364036,-0.0219 -2.098616,-0.0825 -4.290227,0.58158 -5.414969,1.96557 z"
         style="fill:#ffffff;fill-rule:evenodd;stroke:none;stroke-width:1px;stroke-linecap:butt;stroke-linejoin:miter;stroke-opacity:1" />
      <path
         sodipodi:nodetypes="cc"
         inkscape:connector-curvature="0"
         inkscape:original-d="m 61.104842,947.64119 c 2.819559,-2.06049 8.316198,-0.62471 9.576592,2.1959"
         inkscape:path-effect="#path-effect4584-7"
         id="path4582-4"
         d="m 61.104842,947.64119 c 1.50076,-0.85988 3.53502,-0.77422 5.236491,-0.16595 0.0994,0.0355 0.197736,0.0729 0.294867,0.11195 1.666258,0.25825 3.282167,1.03422 4.045234,2.2499 -0.414449,-1.44164 -1.885061,-2.70777 -3.710761,-3.43669 -0.118408,-0.0217 -0.237257,-0.0411 -0.356356,-0.0582 -2.061742,-0.29621 -4.195771,0.0949 -5.509475,1.29897 z"
         style="display:inline;fill:#ffffff;fill-rule:evenodd;stroke:none;stroke-width:1px;stroke-linecap:butt;stroke-linejoin:miter;stroke-opacity:1" />
      <path
         sodipodi:nodetypes="cc"
         inkscape:connector-curvature="0"
         inkscape:original-d="m 17.75,923.86219 c 1.73631,0.84361 2.865888,4.55852 2.8125,6"
         inkscape:path-effect="#path-effect4606"
         id="path4604"
         d="m 17.75,923.86219 c 0.443624,0.34522 0.790449,0.91568 1.053276,1.54697 0.29008,0.38961 0.556149,0.84702 0.787917,1.32467 0.55935,1.15277 0.913992,2.41566 0.971307,3.12836 0.112568,-0.72381 -0.07462,-2.04905 -0.498919,-3.32004 -0.175651,-0.52616 -0.39357,-1.04795 -0.653684,-1.52016 -0.516966,-0.58471 -1.085904,-1.01736 -1.659897,-1.1598 z"
         style="fill:#ffffff;fill-rule:evenodd;stroke:none;stroke-width:1px;stroke-linecap:butt;stroke-linejoin:miter;stroke-opacity:1" />
      <path
         sodipodi:nodetypes="cc"
         inkscape:connector-curvature="0"
         inkscape:original-d="m 76.76528,936.57345 c 1.344037,5.37854 1.925129,14.62163 3.093593,20.46191"
         inkscape:path-effect="#path-effect4610"
         id="path4608"
         d="m 76.76528,936.57345 c -0.01479,0.51499 -0.03771,1.06052 -0.06623,1.62149 1.32869,5.80468 1.868062,13.15058 3.159821,18.84042 -0.866775,-4.99907 -1.418031,-13.80572 -2.337728,-19.00686 -0.247499,-0.51781 -0.499419,-1.00554 -0.755865,-1.45505 z"
         style="fill:#ffffff;fill-rule:evenodd;stroke:none;stroke-width:1px;stroke-linecap:butt;stroke-linejoin:miter;stroke-opacity:1" />
      <path
         sodipodi:nodetypes="cc"
         inkscape:connector-curvature="0"
         inkscape:original-d="m 96.5625,974.17469 c 4.47388,3.04627 9.0013,5.46547 12.9375,7.75"
         inkscape:path-effect="#path-effect4614"
         id="path4612"
         d="m 96.5625,974.17469 c 3.7699,2.81088 7.59008,5.15527 11.03109,7.35079 0.64727,0.13646 1.27666,0.26756 1.90641,0.39921 -0.4246,-0.47914 -0.86173,-0.9619 -1.30793,-1.44818 -3.6358,-1.84301 -7.64465,-3.83171 -11.62957,-6.30182 z"
         style="fill:#ffffff;fill-rule:evenodd;stroke:none;stroke-width:1px;stroke-linecap:butt;stroke-linejoin:miter;stroke-opacity:1" />
      <path
         sodipodi:nodetypes="cc"
         inkscape:connector-curvature="0"
         inkscape:original-d="m 166.59438,1000.7158 c -5.33403,0.9185 -10.27077,2.3252 -14.68876,3.4178"
         inkscape:path-effect="#path-effect4614-6"
         id="path4612-3"
         d="m 166.59438,1000.7158 c -4.66423,0.5986 -9.04043,1.5675 -13.04049,2.38 -0.56027,0.3517 -1.10394,0.6948 -1.64827,1.0378 0.63828,0.049 1.2881,0.093 1.94688,0.1324 3.89516,-1.2013 8.15984,-2.5572 12.74188,-3.5502 z"
         style="display:inline;fill:#ffffff;fill-rule:evenodd;stroke:none;stroke-width:1px;stroke-linecap:butt;stroke-linejoin:miter;stroke-opacity:1" />
    </g>
  </g>
</svg>
