<svg xmlns="http://www.w3.org/2000/svg" xmlns:xlink="http://www.w3.org/1999/xlink" viewBox="0 0 256 256">
    <defs>
        <linearGradient id="powerSuggestion1">
            <stop offset="0" stop-color="#f06"/>
            <stop offset="1" stop-color="#ff2b80"/>
        </linearGradient>
        <linearGradient id="linearGradient4188" x1="130.31" x2="128.289" y1="178.471" y2="151.197" gradientTransform="translate(-5.173 -71.397)" gradientUnits="userSpaceOnUse" xlink:href="#powerSuggestion1"/>
        <linearGradient id="linearGradient4196" x1="132.33" x2="133.34" y1="136.549" y2="116.851" gradientTransform="translate(-5.173 -71.397)" gradientUnits="userSpaceOnUse" xlink:href="#powerSuggestion1"/>
    </defs>
    <g fill-rule="evenodd">
        <path fill="#800033" d="M44.202 67.46c-7.371 12.594 47.232 7.71 84.986 37.337 24.992 19.613 63.181-8.725 76.13-39.897-27.885-19.01-127.06-10.863-161.116 2.56z"/>
        <path fill="#f2f2f2" d="M137.862 86.924c1.019-.709 17.109-1.526 16.072.893 0 0 .09-2.946 3.214-3.75.692-.178 5.319-1.89 8.036-1.607 1.803.188 5 2.143 5 2.143s-.878-4.769 3.571-6.607c2.577-1.065 5.268-1.988 8.036-2.322 1.42-.17 4.286.179 4.286.179s.95-2.352 2.589-3.214c2.893-1.522 10.982-2.5 10.982-2.5l-30.357 35.357c-18.25-1.43-24.494-10.213-31.429-18.572z"/>
        <path fill="#f9a6c7" d="M-66.733 1015.937c.915-1.635 2.834-4.235 5.312-6.64 2.481-2.408 5.506-4.603 8.625-5.452 1.403-.365 2.526-.304 3.843-.037 1.39.283 2.802.742 5.088 1.24a.325.359 38.383 0 0 .243-.04c1.878-1.072 3.279-2.17 4.377-2.833l.011-.01c1.112-.756 2.21-1.269 3.994-1.381 3.415-.222 7.876 1.275 13.882 4.444-5.872-3.313-10.344-5.053-13.903-5.018-1.908.022-3.16.484-4.431 1.228l-.012.01c-1.237.816-2.3 1.764-4.158 2.9-2.103-.407-3.68-.836-4.999-1.047-1.386-.223-2.575-.226-4.028.213-3.178.925-6.209 3.209-8.653 5.66-2.449 2.457-4.326 5.099-5.191 6.762z"/>
        <path fill="url(#linearGradient4188)" d="M205.005 65.139c-20.222 13.407-29.687 33.464-41.786 33.91-13.835.512-21.786-19.234-42.32-25.339-24.87-7.394-44.122 12.237-78.037-5.357.88 10.306 13.09 8.726 26.608 15.536 28.39 14.3 38.334 48.112 76.607 46.607 37.207-1.463 51.383-41.392 58.928-65.357z"/>
        <path fill="#f2f2f2" d="M84.648 64.96s.743 4.94 2.679 5.893c3.976 1.958 9.948 3.233 13.214 2.5 4.235-.95 5.536-11.786 5.536-11.786z"/>
        <path fill="#f2f2f2" d="M104.648 61.21c-.123.044-3.438 12.424 3.214 14.643 4.241 1.415 8.974 1.39 13.393.714 4.946-.756 5.558-14.392 5.536-14.464z"/>
        <path fill="#f2f2f2" d="M125.72 61.746c1.011 5.115-2.57 13.319 3.035 15.178 4.455 1.478 9.264 1.023 13.929.179 6.216-1.125 2.704-10.287 3.928-15.536z"/>
        <path fill="#f2f2f2" d="M146.434 60.674s-1.078 13.952 3.928 14.643c3.679.508 8.432-1.009 11.608-1.428 6.09-.805 5.892-11.786 5.178-11.786-.714 0-20.714-1.429-20.714-1.429z"/>
        <path fill="url(#linearGradient4196)" d="M42.684 68.532c-.847-2.934 12.898-7.485 24.643-11.965 15.209-5.8 8.87-16.05 62.321-16.428 38.666-.273 83.78 18.626 79.464 22.5-7.314 6.565-73.6-2.411-113.392 1.25-5.692.523-12.167 4.75-21.429 5.178-14.555.673-31.607-.535-31.607-.535z"/>
        <path fill="#ff4c94" d="M181.474 137.109l-.114 16.44-52.332 23.982-54.223-23.238.123-17.645 54.188 24.56z"/>
        <path fill="#f06" d="M181.05 165.552l-.115 16.44-52.331 23.982-54.223-23.238.123-17.645 54.187 24.56z"/>
        <path fill="#800033" d="M180.909 193.501l-.115 16.44-52.331 23.983-54.223-23.239.123-17.645 54.187 24.56z"/>
    </g>
</svg>
