<svg version="1.1" viewBox="0 0 64 64" xmlns="http://www.w3.org/2000/svg">
 <g fill-rule="evenodd">
  <path d="M12.688 33.43c-3.482-13.922 16.48-13.914 19.442-2.95 2.35-11.07 21.25-11.06 18.862 3.42C49.16 45.008 35.43 44.69 31.366 61.195 27.88 44.737 15.402 44.275 12.688 33.43z" fill="#ffdf80" stroke="#000" stroke-width=".5"/>
  <path d="m48.499 38.045c1.379-9.793-3.215-13.663-11.87-13.123 8.456-4.348 17.633 1.241 11.87 13.123z" fill="#fff" fill-opacity=".785"/>
  <path d="m32.08 30.48c10.259 6.984 1.421 22.067-0.647 29.796-1.882-7.607-10.235-23.08 0.647-29.796z" fill="#ffc413" stroke="#000" stroke-width=".45"/>
  <path d="M32.085 32.033c7.633 6.163.898 18.41-.546 23.807-1.314-5.312-7.588-17.297.546-23.807z" fill="#ffd862" stroke="#000" stroke-width=".314"/>
 </g>
 <path d="m31.807 9.012a23.474 5.25 0 0 0-23.473 5.25 23.474 5.25 0 0 0 23.474 5.25 23.474 5.25 0 0 0 23.474-5.25 23.474 5.25 0 0 0-23.474-5.25zm-0.275 0.885a19.786 4.056 0 0 1 19.786 4.056 19.786 4.056 0 0 1-19.786 4.056 19.786 4.056 0 0 1-19.786-4.056 19.786 4.056 0 0 1 19.786-4.056z" fill="#ffdf80" stroke="#000" stroke-linecap="round" stroke-width=".408"/>
</svg>
