<svg version="1.1" viewBox="0 0 64 64" xmlns="http://www.w3.org/2000/svg">
 <g fill-rule="evenodd">
  <path d="M12.688 33.43c-3.482-13.922 16.48-13.914 19.442-2.95 2.35-11.07 21.25-11.06 18.862 3.42C49.16 45.008 35.43 44.69 31.366 61.195 27.88 44.737 15.402 44.275 12.688 33.43z" fill="#ffdf80" stroke="#000" stroke-width=".5"/>
  <path d="m48.499 38.045c1.379-9.793-3.215-13.663-11.87-13.123 8.456-4.348 17.633 1.241 11.87 13.123z" fill="#fff" fill-opacity=".785"/>
  <path d="m32.08 30.48c4.353 8.11 1.421 22.067-0.647 29.796-1.882-7.607-4.11-21.86 0.647-29.796z" fill="#ffc413" stroke="#000" stroke-width=".45"/>
  <path d="M31.991 35.033c3.04 5.663.992 15.41-.452 20.807-1.314-5.312-2.87-15.266.452-20.807z" fill="#ffd862" stroke="#000" stroke-width=".314"/>
 </g>
 <g stroke="#000" stroke-linecap="round">
  <g stroke-linejoin="round" stroke-width=".4">
   <path d="m13.842 36.551c1.2614-2.4986 2.8259-3.1476 4.446-3.8562 2.4362-1.0656 4.1727 1.8578 2.2712 3.2373-2.1396 1.5522-2.7453 1.7589-4.339 3.983-1.211-1.3704-1.7134-2.0452-2.3782-3.3642z" fill="#f0c6a8"/>
   <path d="m14.288 37.373c0.37188-1.1103 0.846-1.7253 1.6271-2.3559 0.63986 0.64551 1.1248 1.0683 1.8983 1.8475-0.93285 0.6181-1.5645 1.4872-2.2373 2.322-0.53567-0.66822-0.84717-0.97115-1.2881-1.8136z" fill="#f7e4d5"/>
   <path d="m44.08 36.925c-1.1421-2.6927-3.9143-4.4195-6.7465-6.1106-2.283-1.3632 1.1242-4.2994 3.2087-3.2159 2.8395 1.4759 5.3069 3.3592 6.8103 6.2984 0.95103 1.8593-2.0026 6.0221-3.2725 3.0282z" fill="#f0c6a8"/>
   <path d="m43.44 34.359c-0.93247-1.2542-2.0176-1.9997-3.1401-2.6203 0.55848-0.71708 1.1296-1.4505 1.8035-2.3172 1.2243 0.73107 2.3394 1.6634 3.3347 2.9371-0.51574 0.82869-1.2189 1.4555-1.9981 2.0005z" fill="#f7e4d5"/>
  </g>
  <path d="m31.806 9.012a23.474 5.25 0 0 0-0.735 8e-3l0.305 0.4-0.432 0.482a19.786 4.056 0 0 1 0.586-4e-3 19.786 4.056 0 0 1 19.787 4.055 19.786 4.056 0 0 1-6.26 2.957l-0.068 0.73 1.045 0.79a23.474 5.25 0 0 0 9.246-4.168 23.474 5.25 0 0 0-23.474-5.25zm-8.577 0.367a23.474 5.25 0 0 0-14.898 4.883 23.474 5.25 0 0 0 11.566 4.517l-0.144-1.006 0.383-0.507a19.786 4.056 0 0 1-8.39-3.313 19.786 4.056 0 0 1 11.482-3.676l-0.381-0.37zm19.028 7.98a19.786 4.056 0 0 1-10.727 0.65 19.786 4.056 0 0 1-7.011-0.267l-0.479 0.65 0.404 0.848a23.474 5.25 0 0 0 7.362 0.272 23.474 5.25 0 0 0 9.79-0.485l0.962-1.12z" fill="#ffdf80" stroke-width=".408"/>
 </g>
</svg>
