<svg xmlns="http://www.w3.org/2000/svg" viewBox="0 0 64 64">
    <g stroke="#000">
        <path fill="#dbdbe3" stroke-linecap="round" stroke-linejoin="round" stroke-width=".965" d="M19.76 12.829A15.886 15.715 0 0 0 6.517 28.322a15.886 15.715 0 0 0 15.885 15.715 15.886 15.715 0 0 0 11.754-5.172 15.886 15.715 0 0 1-2.642.222A15.886 15.715 0 0 1 15.63 23.372a15.886 15.715 0 0 1 4.13-10.543z"/>
        <path fill="#535d6c" fill-rule="evenodd" stroke-width=".653" d="M54.837 36.237c6.231-.036 6.072-11.06-2.288-10.827 1.627-5.456-5.189-7.394-7.766-4.446-.297-5.69-9.808-9.162-13.179-1.498-14.594-2.294-13.675 16.982-3.882 16.926z"/>
        <path fill="#939dac" fill-rule="evenodd" stroke-width=".847" d="M9.302 49.207c-8.146-.046-7.939-14.256 2.992-13.955-2.127-7.034 6.785-9.532 10.154-5.732.388-7.335 12.824-11.81 17.231-1.93 19.082-2.958 17.88 21.889 5.077 21.817z"/>
    </g>
</svg>
