<svg xmlns="http://www.w3.org/2000/svg" viewBox="0 0 64 64">
    <g stroke="#000">
        <ellipse cx="24.717" cy="20.057" fill="#ffc100" stroke-linecap="round" stroke-linejoin="round" stroke-width=".965" rx="15.886" ry="15.715"/>
        <path fill="#939dac" fill-rule="evenodd" stroke-width=".653" d="M57.06 27.942c6.231-.036 6.072-11.06-2.288-10.826 1.627-5.457-5.189-7.395-7.766-4.447-.296-5.69-9.808-9.162-13.179-1.498-14.594-2.294-13.675 16.982-3.882 16.926z"/>
        <path fill="#dbdee3" fill-rule="evenodd" stroke-width=".847" d="M11.525 40.912c-8.146-.046-7.938-14.256 2.992-13.955-2.127-7.034 6.785-9.532 10.154-5.732.388-7.335 12.824-11.81 17.231-1.93 19.082-2.957 17.88 21.889 5.077 21.817z"/>
        <path fill="#aef" stroke-linecap="round" stroke-linejoin="round" stroke-width=".5" d="M379.186 72.839l-9.744-3.797-1.972 10.3-1.584-10.336-9.906 3.442 8.16-6.54-7.935-6.858 9.744 3.797 1.972-10.3 1.584 10.336 9.906-3.442-8.16 6.54z" transform="matrix(.1843 .28685 -.32858 .18959 -30.527 -71.36)"/>
        <path fill="#aef" stroke-linecap="round" stroke-linejoin="round" stroke-width=".5" d="M379.186 72.839l-9.744-3.797-1.972 10.3-1.584-10.336-9.906 3.442 8.16-6.54-7.935-6.858 9.744 3.797 1.972-10.3 1.584 10.336 9.906-3.442-8.16 6.54z" transform="matrix(.1843 .28685 -.32858 .18959 -1.819 -70.956)"/>
        <path fill="#aef" stroke-linecap="round" stroke-linejoin="round" stroke-width=".5" d="M379.186 72.839l-9.744-3.797-1.972 10.3-1.584-10.336-9.906 3.442 8.16-6.54-7.935-6.858 9.744 3.797 1.972-10.3 1.584 10.336 9.906-3.442-8.16 6.54z" transform="matrix(.1843 .28685 -.32858 .18959 -16.478 -69.456)"/>
        <path fill="#aef" stroke-linecap="round" stroke-linejoin="round" stroke-width=".5" d="M379.186 72.839l-9.744-3.797-1.972 10.3-1.584-10.336-9.906 3.442 8.16-6.54-7.935-6.858 9.744 3.797 1.972-10.3 1.584 10.336 9.906-3.442-8.16 6.54z" transform="matrix(.1843 .28685 -.32858 .18959 -25.696 -60.398)"/>
        <path fill="#aef" stroke-linecap="round" stroke-linejoin="round" stroke-width=".5" d="M379.186 72.839l-9.744-3.797-1.972 10.3-1.584-10.336-9.906 3.442 8.16-6.54-7.935-6.858 9.744 3.797 1.972-10.3 1.584 10.336 9.906-3.442-8.16 6.54z" transform="matrix(.1843 .28685 -.32858 .18959 -8.057 -59.947)"/>
    </g>
</svg>
