<svg version="1.1" viewBox="0 0 64 64" xmlns="http://www.w3.org/2000/svg">
 <g fill-rule="evenodd" stroke="#000">
  <path d="m4.7422 32.692v-12.618l26.898-18.533 28.044 17.705v13.543l-28.03-18.72z" fill="#ffe680" stroke-width="1.3835"/>
  <path d="m7.3587 36.243v-11.471l24.453-16.848 25.494 16.095v12.312l-25.482-17.018z" fill="#f55" stroke-width="1.2577"/>
  <path d="m11.587 36.395v-9.4802l20.208-13.924 21.069 13.301v10.175l-21.058-14.063z" fill="#ff8080" stroke-width="1.0397"/>
  <path d="m4.6645 58.598v-12.618l26.898-18.533 28.044 17.705v13.543l-28.03-18.72z" fill="#ffe680" stroke-width="1.3835"/>
  <path d="m7.281 62.149v-11.471l24.453-16.848 25.494 16.095v12.312l-25.482-17.018z" fill="#f95" stroke-width="1.2577"/>
  <path d="m11.509 62.302v-9.4802l20.208-13.924 21.069 13.301v10.175l-21.058-14.063z" fill="#ffb380" stroke-width="1.0397"/>
 </g>
</svg>
