<?xml version="1.0" encoding="UTF-8" standalone="no"?>
<!-- Created with Inkscape (http://www.inkscape.org/) -->

<svg
   xmlns:dc="http://purl.org/dc/elements/1.1/"
   xmlns:cc="http://creativecommons.org/ns#"
   xmlns:rdf="http://www.w3.org/1999/02/22-rdf-syntax-ns#"
   xmlns:svg="http://www.w3.org/2000/svg"
   xmlns="http://www.w3.org/2000/svg"
   xmlns:xlink="http://www.w3.org/1999/xlink"
   xmlns:sodipodi="http://sodipodi.sourceforge.net/DTD/sodipodi-0.dtd"
   xmlns:inkscape="http://www.inkscape.org/namespaces/inkscape"
   viewBox="0 0 100 100"
   version="1.1"
   id="svg8"
   inkscape:version="0.92.3 (2405546, 2018-03-11)"
   sodipodi:docname="realistic_dildo.svg">
  <defs
     id="defs2">
    <inkscape:path-effect
       effect="taper_stroke"
       id="path-effect1001"
       is_visible="true"
       stroke_width="0.3"
       attach_start="1.3415016"
       end_offset="0.6584984"
       smoothing="0.5"
       jointype="extrapolated"
       miter_limit="100" />
    <inkscape:path-effect
       effect="taper_stroke"
       id="path-effect997"
       is_visible="true"
       stroke_width="0.3"
       attach_start="0.48379475"
       end_offset="0.43599199"
       smoothing="0.5"
       jointype="extrapolated"
       miter_limit="100" />
    <inkscape:path-effect
       effect="taper_stroke"
       id="path-effect993"
       is_visible="true"
       stroke_width="0.26458332"
       attach_start="0.2"
       end_offset="0.30155266"
       smoothing="0.5"
       jointype="extrapolated"
       miter_limit="100" />
    <inkscape:path-effect
       effect="taper_stroke"
       id="path-effect991"
       is_visible="true"
       stroke_width="0.26458332"
       attach_start="0.033860142"
       end_offset="0.45729767"
       smoothing="0.5"
       jointype="extrapolated"
       miter_limit="100" />
    <inkscape:path-effect
       effect="taper_stroke"
       id="path-effect983"
       is_visible="true"
       stroke_width="0.26458332"
       attach_start="0.29877338"
       end_offset="0.30742024"
       smoothing="0.5"
       jointype="extrapolated"
       miter_limit="100" />
    <inkscape:path-effect
       effect="taper_stroke"
       id="path-effect971"
       is_visible="true"
       stroke_width="0.5"
       attach_start="0.28409324"
       end_offset="0.60799532"
       smoothing="0.5"
       jointype="extrapolated"
       miter_limit="100" />
    <inkscape:path-effect
       miter_limit="100"
       jointype="extrapolated"
       smoothing="0.5"
       end_offset="0.90700587"
       attach_start="1e-007"
       stroke_width="0.3"
       is_visible="true"
       id="path-effect967"
       effect="taper_stroke" />
    <inkscape:path-effect
       miter_limit="100"
       jointype="extrapolated"
       smoothing="0.5"
       end_offset="0.90700587"
       attach_start="1e-007"
       stroke_width="0.26458332"
       is_visible="true"
       id="path-effect965"
       effect="taper_stroke" />
    <inkscape:path-effect
       miter_limit="100"
       jointype="extrapolated"
       smoothing="0.5"
       end_offset="0.90700587"
       attach_start="1e-007"
       stroke_width="0.26458332"
       is_visible="true"
       id="path-effect963"
       effect="taper_stroke" />
    <inkscape:path-effect
       effect="taper_stroke"
       id="path-effect961"
       is_visible="true"
       stroke_width="0.26458332"
       attach_start="0.43542327"
       end_offset="0.29127827"
       smoothing="0.5"
       jointype="extrapolated"
       miter_limit="100" />
    <linearGradient
       inkscape:collect="always"
       id="innoGrad1">
      <stop
         style="stop-color:#ffaaaa;stop-opacity:1"
         offset="0"
         id="stop938" />
      <stop
         style="stop-color:#ff8080;stop-opacity:1"
         offset="1"
         id="stop940" />
    </linearGradient>
    <linearGradient
       inkscape:collect="always"
       id="innoGrad3">
      <stop
         style="stop-color:#ffccaa;stop-opacity:1"
         offset="0"
         id="stop930" />
      <stop
         style="stop-color:#ffb380;stop-opacity:1"
         offset="1"
         id="stop932" />
    </linearGradient>
    <linearGradient
       inkscape:collect="always"
       id="innoGrad2">
      <stop
         style="stop-color:#ffe6d5;stop-opacity:1"
         offset="0"
         id="stop922" />
      <stop
         style="stop-color:#ffccaa;stop-opacity:1"
         offset="1"
         id="stop924" />
    </linearGradient>
    <inkscape:path-effect
       effect="taper_stroke"
       id="path-effect899"
       is_visible="true"
       stroke_width="0.26458332"
       attach_start="0.43421373"
       end_offset="0.48124921"
       smoothing="0.5"
       jointype="extrapolated"
       miter_limit="100" />
    <inkscape:path-effect
       effect="taper_stroke"
       id="path-effect897"
       is_visible="true"
       stroke_width="0.26458332"
       attach_start="0.68911037"
       end_offset="0.25942097"
       smoothing="0.5"
       jointype="extrapolated"
       miter_limit="100" />
    <inkscape:path-effect
       effect="taper_stroke"
       id="path-effect895"
       is_visible="true"
       stroke_width="0.26458332"
       attach_start="0.52004118"
       end_offset="0.32586729"
       smoothing="0.5"
       jointype="extrapolated"
       miter_limit="100" />
    <inkscape:path-effect
       effect="taper_stroke"
       id="path-effect893"
       is_visible="true"
       stroke_width="0.26458332"
       attach_start="1e-007"
       end_offset="0.42162041"
       smoothing="0.5"
       jointype="extrapolated"
       miter_limit="100" />
    <inkscape:path-effect
       effect="taper_stroke"
       id="path-effect891"
       is_visible="true"
       stroke_width="0.26458332"
       attach_start="1e-007"
       end_offset="0.71897207"
       smoothing="0.5"
       jointype="extrapolated"
       miter_limit="100" />
    <inkscape:path-effect
       effect="taper_stroke"
       id="path-effect889"
       is_visible="true"
       stroke_width="0.26458332"
       attach_start="1e-007"
       end_offset="0.99999"
       smoothing="0.5"
       jointype="extrapolated"
       miter_limit="100" />
    <inkscape:path-effect
       effect="taper_stroke"
       id="path-effect887"
       is_visible="true"
       stroke_width="0.26458332"
       attach_start="0.76461398"
       end_offset="0.70374274"
       smoothing="0.5"
       jointype="extrapolated"
       miter_limit="100" />
    <inkscape:path-effect
       effect="taper_stroke"
       id="path-effect868"
       is_visible="true"
       stroke_width="0.26458332"
       attach_start="1e-007"
       end_offset="0.90700587"
       smoothing="0.5"
       jointype="extrapolated"
       miter_limit="100" />
    <inkscape:path-effect
       effect="taper_stroke"
       id="path-effect866"
       is_visible="true"
       stroke_width="0.26458332"
       attach_start="1e-007"
       end_offset="0.74538095"
       smoothing="0.5"
       jointype="extrapolated"
       miter_limit="100" />
    <inkscape:path-effect
       effect="taper_stroke"
       id="path-effect860"
       is_visible="true"
       stroke_width="0.26458332"
       attach_start="0.2"
       end_offset="0.2"
       smoothing="0.5"
       jointype="extrapolated"
       miter_limit="100" />
    <inkscape:path-effect
       effect="taper_stroke"
       id="path-effect868-6"
       is_visible="true"
       stroke_width="0.26458332"
       attach_start="1e-007"
       end_offset="0.35024254"
       smoothing="0.5"
       jointype="extrapolated"
       miter_limit="100" />
    <linearGradient
       inkscape:collect="always"
       xlink:href="#innoGrad2"
       id="linearGradient928"
       x1="299.27258"
       y1="233.00293"
       x2="275.53571"
       y2="281.70276"
       gradientUnits="userSpaceOnUse"
       gradientTransform="matrix(0.30808867,0.0310272,-0.0310272,0.30808867,-7.9158094,-14.202173)" />
    <linearGradient
       inkscape:collect="always"
       xlink:href="#innoGrad3"
       id="linearGradient936"
       x1="319.35165"
       y1="244.87668"
       x2="298.06873"
       y2="287.78107"
       gradientUnits="userSpaceOnUse"
       gradientTransform="matrix(0.30808867,0.0310272,-0.0310272,0.30808867,-7.9158094,-14.202173)" />
    <linearGradient
       inkscape:collect="always"
       xlink:href="#innoGrad1"
       id="linearGradient944"
       x1="194.12497"
       y1="161.99422"
       x2="161.97014"
       y2="203.74268"
       gradientUnits="userSpaceOnUse"
       gradientTransform="matrix(0.30808867,0.0310272,-0.0310272,0.30808867,-7.9158094,-14.202173)" />
  </defs>
  <sodipodi:namedview
     id="base"
     pagecolor="#ffffff"
     bordercolor="#666666"
     borderopacity="1.0"
     inkscape:pageopacity="0.0"
     inkscape:pageshadow="2"
     inkscape:zoom="5.6"
     inkscape:cx="79.723711"
     inkscape:cy="40.407516"
     inkscape:document-units="mm"
     inkscape:current-layer="layer4"
     showgrid="false" />
  <metadata
     id="metadata5">
    <rdf:RDF>
      <cc:Work
         rdf:about="">
        <dc:format>image/svg+xml</dc:format>
        <dc:type
           rdf:resource="http://purl.org/dc/dcmitype/StillImage" />
        <dc:title />
      </cc:Work>
    </rdf:RDF>
  </metadata>
  <g
     inkscape:groupmode="layer"
     id="layer4"
     inkscape:label="color"
     style="display:inline">
    <path
       style="fill:url(#linearGradient944);fill-opacity:1;stroke:none;stroke-width:0.15639541"
       d="M 14.163265,7.6629082 C 12.208117,7.4144785 10.320729,8.4598951 9.2455928,10.062712 6.936191,12.868221 6.2650308,17.212658 8.3506054,20.321407 c 0.9873101,1.517804 2.5475506,2.480463 3.9367616,3.569361 1.248589,1.694956 1.936211,3.739232 3.141952,5.471663 2.577109,4.022225 3.857028,8.755038 6.763002,12.589797 2.361127,3.307001 4.48393,6.819935 7.393172,9.692213 2.96377,3.294892 5.811673,6.703495 9.05546,9.733223 1.362026,1.220695 2.172115,3.143186 4.055095,3.68664 2.22756,1.108872 4.557467,2.295746 6.186499,4.227443 0.697395,1.075116 0.912585,2.157889 2.434363,2.965521 4.217606,2.326683 7.516444,6.642054 12.886101,8.722062 l 1.203804,-0.587971 c 4.52643,-2.574835 7.771705,-6.951453 9.9835,-11.581157 0.597206,-1.319628 0.919955,-2.752618 1.080263,-4.181602 -1.210259,-1.663691 -1.941204,-3.189102 -4.2243,-4.477479 -1.655199,-1.239905 -2.738809,-2.682068 -4.974634,-3.693942 -3.799386,-2.4243 -7.505233,-5.06905 -10.827313,-8.125423 -1.466285,-1.255326 -2.294229,-3.293375 -4.239369,-3.914822 -1.476479,-0.652953 -1.856499,-2.68837 -3.405473,-3.253399 -2.490107,-1.10613 -4.190133,-3.396539 -5.450374,-5.726844 -1.40215,-1.420523 -3.113907,-2.365297 -4.340576,-3.971343 -0.689349,-0.709445 -1.446804,-1.861492 -0.616309,-2.775683 0.50294,-0.849285 -0.504939,-1.67312 -1.295977,-1.742598 -0.07623,-0.601269 -0.529598,-1.160321 -1.162062,-1.307287 -0.283916,-0.104127 -1.004528,0.03504 -0.677669,-0.483627 0.223207,-1.346026 -1.395947,-2.025318 -2.498968,-2.076505 -0.887454,-0.03061 -0.459522,-1.139427 -0.551235,-1.687244 0.143619,-1.518891 0.08281,-3.263015 -1.174498,-4.335916 -0.74094,-0.893716 -1.952682,-1.119289 -2.841903,-1.839405 C 24.172,12.764165 20.513644,9.5568384 16.009062,8.0004572 15.408306,7.8216957 14.789362,7.7015517 14.163265,7.6629082 Z"
       id="path916"
       inkscape:connector-curvature="0"
       sodipodi:nodetypes="cccccccccccccccccccccccccccccccc" />
    <path
       style="fill:url(#linearGradient928);fill-opacity:1;stroke:none;stroke-width:0.15639541"
       d="m 76.687986,64.807987 c -0.746483,4.826953 -3.647878,9.043944 -6.956605,12.515665 -1.473618,1.510199 -3.599098,2.786537 -5.52837,3.655678 0.754002,0.589993 2.091535,1.35464 3.009877,1.823696 2.964831,-1.219394 5.133442,-3.773739 7.102483,-6.215049 2.112149,-2.867441 4.284331,-5.938804 4.897445,-9.52435 -0.790752,-0.738235 -1.649084,-1.736022 -2.52483,-2.25564 z"
       id="path918"
       inkscape:connector-curvature="0"
       sodipodi:nodetypes="ccccccc" />
    <path
       style="fill:url(#linearGradient936);fill-opacity:1;stroke:none;stroke-width:0.15639541"
       d="m 79.42098,67.334799 c -1.261465,4.536545 -4.056452,8.490718 -7.173837,11.956524 -1.347574,1.484167 -3.332921,2.687582 -5.102908,3.631867 1.254655,1.068276 3.325125,1.953925 4.740699,2.93637 1.774894,1.07366 3.475928,2.352636 5.295953,3.300879 1.253934,0.127788 2.68703,0.476926 3.742475,-0.452011 3.648451,-2.499249 6.371534,-6.197678 8.023332,-10.270867 0.887065,-1.599958 -0.442043,-3.535865 -1.830109,-4.486708 -2.51808,-2.228997 -5.058423,-4.432714 -7.58966,-6.646831 z"
       id="path920"
       inkscape:connector-curvature="0"
       sodipodi:nodetypes="cccccccccc" />
    <path
       style="fill:#ffd5d5;fill-rule:nonzero;stroke:none;stroke-width:0.26458332px;stroke-linecap:butt;stroke-linejoin:miter;stroke-opacity:1"
       d="M 16.683981,9.1168062 C 15.68695,8.6400175 14.716987,8.440062 13.88694,8.4493584 c -0.785519,0.0088 -1.271985,0.1985215 -1.271985,0.1985215 0,0 0.51741,-0.065133 1.254842,0.04884 0.808254,0.1249187 1.624829,0.417176 2.600626,0.8721846 0.502429,0.2373326 1.013465,0.5215224 1.533608,0.8388714 2.440446,1.490732 4.787576,3.25025 6.679919,4.300581 1.895143,1.051884 3.286288,1.4518 3.286288,1.4518 0,0 -1.350489,-0.518781 -3.159201,-1.665842 -1.811126,-1.148592 -4.063554,-3.00019 -6.546589,-4.5133679 -0.531118,-0.3240453 -1.05709,-0.616913 -1.580467,-0.8641409 z"
       id="path969"
       inkscape:connector-curvature="0"
       sodipodi:nodetypes="cc"
       inkscape:path-effect="#path-effect971"
       inkscape:original-d="m 12.614955,8.6478799 c 4.577654,-0.9157601 9.291501,5.3233031 15.355283,7.5122771" />
    <path
       style="fill:#ffd5d5;fill-rule:nonzero;stroke:none;stroke-width:0.26458332px;stroke-linecap:butt;stroke-linejoin:miter;stroke-opacity:1"
       d="m 57.685869,50.629242 c -1.529548,-1.302998 -2.962435,-2.713391 -2.962435,-2.713391 0,0 1.206536,1.61335 2.767962,2.941822 0.186756,0.158993 0.377228,0.318223 0.571008,0.477666 1.656182,1.362624 3.476403,2.493848 3.476403,2.493848 0,0 -1.641407,-1.372417 -3.285791,-2.72551 -0.192587,-0.158461 -0.381775,-0.316619 -0.567147,-0.474435 z"
       id="path995"
       inkscape:connector-curvature="0"
       sodipodi:nodetypes="cc"
       inkscape:path-effect="#path-effect997"
       inkscape:original-d="m 54.723434,47.915851 c 1.566272,1.916841 4.104407,3.908441 6.815373,5.913336" />
    <path
       style="fill:#ffd5d5;fill-rule:nonzero;stroke:none;stroke-width:0.26458332px;stroke-linecap:butt;stroke-linejoin:miter;stroke-opacity:1"
       d="m 43.092968,36.292949 c -0.135107,-0.26211 -0.251865,-0.570922 -0.491976,-0.823204 -0.506909,-0.51371 -1.119719,-0.842104 -1.605241,-1.223805 -1.587663,-1.251876 -2.525644,-2.483191 -2.525644,-2.483191 0,0 0.818496,1.318096 2.378496,2.661667 0.487954,0.4209 1.087706,0.767386 1.542113,1.248519 0.186235,0.188935 0.282995,0.474714 0.436961,0.760088 1.038522,1.964556 2.75848,3.297697 2.75848,3.297697 0,0 -1.501231,-1.556759 -2.493189,-3.437771 z"
       id="path999"
       inkscape:connector-curvature="0"
       sodipodi:nodetypes="csc"
       inkscape:path-effect="#path-effect1001"
       inkscape:original-d="m 38.470107,31.762749 c 1.558297,2.182297 3.638641,3.407984 4.025747,3.808591 0.40174,0.415752 0.70715,1.915431 3.090303,4.15938" />
  </g>
  <g
     inkscape:groupmode="layer"
     id="layer2"
     inkscape:label="outline"
     style="display:inline">
    <path
       id="path23"
       style="fill:none;stroke:#000000;stroke-width:0.30964708px;stroke-linecap:butt;stroke-linejoin:miter;stroke-opacity:1"
       d="M 79.317042,67.015778 76.580357,64.47124 C 76.38035,70.739345 68.717961,79.791687 64.20301,80.97933 l 2.941225,1.943859 m 22.177513,-5.527207 c 0.0078,-0.564457 -0.582163,-2.143692 -1.011534,-2.51902 l -8.993172,-7.861184 c -0.474019,4.55744 -7.50706,14.500908 -12.172807,15.907411 l 9.505982,6.10463 c 0.371416,0.238519 2.808984,0.585053 3.410968,0.308458 0.802241,-0.368625 3.586761,-2.16391 5.77791,-5.174796 2.343815,-3.220666 3.472048,-5.996782 3.482653,-6.765503 z"
       inkscape:connector-curvature="0"
       sodipodi:nodetypes="ccccccccscsc" />
    <path
       style="fill:none;stroke:#000000;stroke-width:0.31;stroke-linecap:round;stroke-linejoin:miter;stroke-miterlimit:4;stroke-dasharray:none;stroke-opacity:1"
       d="m 76.580357,64.471238 c -1.393021,-1.182929 -1.359543,-2.158583 -2.525939,-3.130522 -1.117811,-0.931453 -2.680254,-1.649644 -3.677004,-2.850282 -1.182367,-1.424226 -2.708991,-1.700174 -4.436836,-2.913674 -3.397652,-2.386234 -7.263625,-5.117677 -9.960759,-7.730203 -0.840698,-0.814326 -1.34537,-1.950355 -2.242912,-2.701568 -0.742814,-0.62171 -1.80568,-0.78785 -2.527808,-1.43347 -0.598697,-0.535268 -0.547582,-1.095653 -1.109604,-1.66931 -1.068379,-1.090498 -2.003345,-0.611098 -4.017138,-2.718294 -2.931841,-3.067822 -1.910768,-3.49435 -3.313238,-4.453894 -1.881736,-1.287449 -5.356819,-4.638416 -4.64525,-5.601371 0.265877,-0.300004 0.784291,-0.919576 0.317287,-1.687274 -0.39508,-0.649467 -1.303855,-0.612693 -1.303855,-0.612693 -0.01454,-0.238073 -0.0074,-0.686527 -0.487474,-1.110103 -0.577599,-0.509593 -1.559793,-0.412515 -1.559793,-0.412515 0.443177,-0.154704 0.40209,-0.97691 -7.83e-4,-1.444518 -0.826859,-0.959722 -2.491572,-0.99616 -2.491572,-0.99616 -1.419827,-0.329906 1.773487,-4.804512 -2.953797,-7.033135 C 24.607417,13.597869 14.929471,3.5718124 9.8317902,9.2065076 7.9802738,11.253069 6.2459421,14.245428 7.3662514,18.488777 c 0.7013773,2.656581 3.3283796,4.460601 4.8394936,5.325454 1.304776,1.874493 1.711249,3.565504 2.991867,5.354553 2.349137,3.281792 3.169453,6.794317 5.076797,10.014399 1.413175,2.385803 3.123852,4.582401 4.699369,6.864258 0.675851,0.978848 1.292179,2.002788 2.039178,2.928482 1.140041,1.412758 2.498843,2.634671 3.711036,3.986029 1.575771,1.756676 3.011899,3.637873 4.6289,5.35667 1.356996,1.442421 2.996006,2.618748 4.250113,4.151467 0.523151,0.639376 0.890765,1.37056 1.532348,1.891002 0.816027,0.661948 1.833,0.819241 2.756938,1.319656 1.51775,0.822031 3.589559,2.127218 4.769474,3.387023 0.861934,0.920292 0.683506,1.751128 1.620908,2.594425 0.78906,0.709846 1.779681,1.089323 2.677011,1.656152 1.815443,1.146789 3.323567,2.722022 5.042496,4.008974 0.931511,0.697418 1.852962,1.417092 2.854113,2.010221 1.069049,0.633353 3.346719,1.641788 3.346719,1.641788"
       id="path836"
       inkscape:connector-curvature="0"
       sodipodi:nodetypes="cssssssssscscccscssscssssssssssssssc" />
    <path
       style="display:inline;fill:#000000;fill-rule:nonzero;stroke:none;stroke-width:0.30964708px;stroke-linecap:butt;stroke-linejoin:miter;stroke-opacity:1"
       d="m 12.14711,23.932819 c 1.177785,0.582365 2.598094,0.805427 4.117487,0.78457 2.486828,-0.03512 4.862855,-0.670043 6.866351,-1.368077 3.339742,-1.162162 5.479426,-2.553127 5.479426,-2.553127 0,0 -2.193949,1.299794 -5.536986,2.381708 -2.010183,0.6497 -4.36927,1.242381 -6.812423,1.274938 -1.491135,0.02047 -2.870662,-0.200466 -3.996582,-0.757186 z"
       id="path28"
       inkscape:connector-curvature="0"
       sodipodi:nodetypes="cc"
       inkscape:path-effect="#path-effect866"
       inkscape:original-d="m 12.205745,23.814231 c 4.523829,2.236844 12.874007,-0.887097 16.404629,-3.018046" />
    <path
       style="display:inline;fill:#000000;fill-rule:nonzero;stroke:none;stroke-width:0.30964708px;stroke-linecap:butt;stroke-linejoin:miter;stroke-opacity:1"
       d="m 32.59896,22.873102 c -0.39729,-0.0038 -0.776493,0.0154 -1.145261,0.05374 -1.920412,0.201818 -3.859421,0.97805 -5.563163,1.469994 0,0 -1e-6,0 -1e-6,0 -5.271637,1.520587 -9.710524,1.52227 -9.710524,1.52227 0,0 4.438688,0.151305 9.770876,-1.307475 0,0 10e-7,0 10e-7,0 1.724222,-0.471234 3.665158,-1.229856 5.530173,-1.421625 0.359275,-0.03735 0.728214,-0.05608 1.115341,-0.05234 z"
       id="path30"
       inkscape:connector-curvature="0"
       sodipodi:nodetypes="cc"
       inkscape:path-effect="#path-effect868"
       inkscape:original-d="m 32.597682,23.005387 c -4.217565,-0.04078 -6.33782,2.552205 -16.417671,2.913722" />
    <path
       style="display:inline;fill:#000000;fill-rule:nonzero;stroke:none;stroke-width:0.30964708px;stroke-linecap:butt;stroke-linejoin:miter;stroke-opacity:1"
       d="m 35.161627,25.274678 c -0.653316,0.18642 -1.277954,0.352456 -1.877792,0.50041 -3.437725,0.849422 -6.980583,1.099376 -9.649682,1.242109 -2.669986,0.142781 -4.449396,0.204484 -4.449396,0.204484 0,0 1.780146,0.01356 4.455313,-0.0544 2.673029,-0.06791 6.239891,-0.245099 9.715608,-1.100918 0.60349,-0.148854 1.231629,-0.315827 1.888267,-0.503195 z"
       id="path32"
       inkscape:connector-curvature="0"
       sodipodi:nodetypes="cc"
       inkscape:path-effect="#path-effect967"
       inkscape:original-d="m 35.202788,25.41892 c -7.043216,2.00974 -10.780556,1.66174 -16.018031,1.802761" />
    <path
       style="display:inline;fill:#000000;fill-rule:nonzero;stroke:none;stroke-width:0.30964708px;stroke-linecap:butt;stroke-linejoin:miter;stroke-opacity:1"
       d="m 37.083243,26.84794 c -0.499574,0.223658 -0.98616,0.412221 -1.461758,0.570937 -2.14997,0.719067 -4.418495,0.854818 -6.410246,0.830452 0,0 -10e-7,0 -10e-7,0 -3.566689,-0.0456 -6.194504,0.210866 -6.194504,0.210866 0,0 2.615443,-0.145813 6.190101,-0.02354 0,0 10e-7,0 10e-7,0 2.001157,0.06949 4.300604,-0.03493 6.498404,-0.766796 0.483887,-0.161482 0.978681,-0.35325 1.486116,-0.580427 z"
       id="path34"
       inkscape:connector-curvature="0"
       sodipodi:nodetypes="cc"
       inkscape:path-effect="#path-effect965"
       inkscape:original-d="m 37.137301,26.968683 c -5.414375,2.423999 -9.346893,0.771616 -14.120567,1.491512" />
    <path
       style="display:inline;fill:#000000;fill-rule:nonzero;stroke:none;stroke-width:0.30964708px;stroke-linecap:butt;stroke-linejoin:miter;stroke-opacity:1"
       d="m 38.062751,29.151323 c -0.325446,0.169528 -0.702681,0.3165 -1.122091,0.442333 -2.656456,0.799612 -5.610609,0.718688 -8.042207,0.667426 0,0 -1e-6,0 -1e-6,0 -4.360728,-0.09401 -7.561402,-0.423615 -7.561402,-0.423615 0,0 3.187243,0.437087 7.555723,0.609601 0,0 1e-6,0 1e-6,0 2.431803,0.09725 5.403937,0.21345 8.123919,-0.599989 0.431858,-0.129567 0.824172,-0.281845 1.168292,-0.461101 z"
       id="path36"
       inkscape:connector-curvature="0"
       sodipodi:nodetypes="cc"
       inkscape:path-effect="#path-effect963"
       inkscape:original-d="M 38.123869,29.26865 C 34.52382,31.143957 25.143014,30.155268 21.33705,29.837467" />
    <path
       style="display:inline;fill:#000000;fill-rule:nonzero;stroke:none;stroke-width:0.30964708px;stroke-linecap:butt;stroke-linejoin:miter;stroke-opacity:1"
       d="m 45.052101,42.443019 c 2.098162,0.643314 4.193133,0.08831 4.193133,0.08831 0,0 -2.130424,0.273171 -4.115244,-0.341165 -3.238866,-0.99768 -4.385922,-4.044522 -7.171622,-6.048469 -1.602666,-1.1523 -3.491509,-1.386137 -3.491509,-1.386137 0,0 1.816681,0.506653 3.337001,1.60092 2.70879,1.94862 3.882715,5.049849 7.248241,6.086545 z"
       id="path38"
       inkscape:connector-curvature="0"
       sodipodi:nodetypes="cc"
       inkscape:path-effect="#path-effect860"
       inkscape:original-d="M 49.245234,42.531325 C 40.671446,43.705583 41.499118,36.245449 34.466859,34.755554" />
    <path
       style="display:inline;fill:#000000;fill-rule:nonzero;stroke:none;stroke-width:0.30964708px;stroke-linecap:butt;stroke-linejoin:miter;stroke-opacity:1"
       d="m 49.887937,45.967161 c 0.969686,-0.378716 2.066452,-0.02324 2.871032,0.283137 0.818277,0.311592 1.323034,0.540606 1.323034,0.540606 0,0 -0.471483,-0.290406 -1.26871,-0.667929 -0.781195,-0.369931 -1.913744,-0.800252 -3.018028,-0.403637 -0.281815,0.105383 -0.494784,0.307262 -0.572756,0.592858 -0.275889,1.01052 0.818511,2.310148 1.733919,3.452644 0.457704,0.571248 0.882555,1.101501 1.093317,1.495902 0.210762,0.394401 0.251372,0.547836 -0.04745,0.640967 -0.342358,0.106701 -1.428446,0.105317 -2.745828,-0.03856 -1.898883,-0.207635 -3.573637,-0.52727 -5.115382,-0.98531 -0.88032,-0.261944 -1.533366,-0.513262 -2.115113,-0.835007 -0.920497,-0.513418 -1.151748,-1.065016 -1.151748,-1.065016 0,0 0.192905,0.575924 1.111412,1.134245 0.571078,0.349869 1.228868,0.636032 2.104382,0.927723 1.527877,0.509738 3.233909,0.878714 5.137724,1.086384 1.330562,0.145315 2.379744,0.175724 2.853279,0.02814 0.42811,-0.133427 0.435268,-0.581888 0.202074,-1.018268 -0.233195,-0.436379 -0.662805,-0.965791 -1.120191,-1.536641 -0.914771,-1.1417 -1.893065,-2.455998 -1.685157,-3.217519 0.05558,-0.203559 0.185876,-0.330841 0.410186,-0.41472 z"
       id="path864"
       inkscape:path-effect="#path-effect887"
       inkscape:original-d="m 54.082003,46.790904 c -2.271925,-1.078133 -4.448197,-1.482916 -4.731873,-0.443865 -0.483797,1.77204 4.145388,5.227853 2.691532,5.68097 -1.377001,0.429163 -10.270245,-0.771411 -11.167434,-3.050192"
       inkscape:connector-curvature="0"
       sodipodi:nodetypes="ccsc" />
    <path
       style="display:inline;fill:#000000;fill-rule:nonzero;stroke:none;stroke-width:0.30964708px;stroke-linecap:butt;stroke-linejoin:miter;stroke-opacity:1"
       d="m 41.084663,50.744414 c 0.241831,-3.193772 -5.076881,-4.006176 -4.833242,-8.978357 l -4.51e-4,0.0062 c 0,0 6e-6,-6.1e-5 6e-6,-6.1e-5 0.04136,-0.446394 0.242861,-0.869679 0.524876,-1.211151 0.26926,-0.326702 0.602962,-0.596695 0.88705,-0.887696 0.301401,-0.30277 0.515644,-0.634378 0.556606,-0.998592 0,0 0,0 0,0 0.09186,-0.972836 -0.55164,-1.469191 -0.55164,-1.469191 0,0 0.588678,0.566794 0.427541,1.452349 0,0 0,0 0,0 -0.05225,0.322284 -0.268863,0.598633 -0.56581,0.878553 -0.267116,0.246873 -0.654626,0.546374 -0.938035,0.867074 -0.321964,0.3652 -0.553071,0.832774 -0.603951,1.343268 0,0 -7e-6,6.9e-5 -3.04e-4,0.0032 a 7.4856684,7.4856684 0 0 0 -1.54e-4,0.0031 c -0.252743,5.157978 5.052079,6.08702 4.83368,8.97133 z"
       id="path40"
       inkscape:connector-curvature="0"
       sodipodi:nodetypes="ccc"
       inkscape:path-effect="#path-effect889"
       inkscape:original-d="m 40.952749,50.734426 c 0.230116,-3.039041 -5.081652,-3.909764 -4.833461,-8.974844 0.209539,-2.174457 3.212789,-2.053257 1.54858,-4.554002" />
    <path
       style="display:inline;fill:#000000;fill-rule:nonzero;stroke:none;stroke-width:0.30964708px;stroke-linecap:butt;stroke-linejoin:miter;stroke-opacity:1"
       d="m 35.988871,41.737387 c -0.110277,0.648106 -0.480453,1.234332 -0.980999,1.839795 -0.738453,0.893321 -1.581646,1.722066 -2.201223,2.58927 0,0 0,0 0,0 -1.39787,1.957255 -1.43948,3.759805 -1.43948,3.759805 0,0 0.180274,-1.782412 1.602347,-3.639383 0,0 0,0 0,0 0.634309,-0.828635 1.489453,-1.63057 2.242277,-2.541108 0.512998,-0.620526 0.915707,-1.245791 1.037912,-1.963997 z"
       id="path42"
       inkscape:connector-curvature="0"
       sodipodi:nodetypes="cc"
       inkscape:path-effect="#path-effect891"
       inkscape:original-d="m 36.119288,41.759577 c -0.413627,2.430921 -4.248538,3.881666 -4.752119,8.16668" />
    <path
       style="display:inline;fill:#000000;fill-rule:nonzero;stroke:none;stroke-width:0.30964708px;stroke-linecap:butt;stroke-linejoin:miter;stroke-opacity:1"
       d="m 40.822375,50.71198 c -0.601298,3.49309 0.153961,5.515293 0.691772,7.518838 0.344415,1.285152 0.491014,2.409343 0.495344,3.421115 0.004,0.945591 -0.114283,1.575487 -0.114283,1.575487 0,0 0.183523,-0.614136 0.245968,-1.571449 0.0658,-1.008758 -0.02263,-2.196164 -0.371492,-3.493746 -0.542335,-2.0204 -1.278743,-3.965222 -0.686561,-7.40536 z"
       id="path44"
       inkscape:connector-curvature="0"
       sodipodi:nodetypes="cc"
       inkscape:path-effect="#path-effect893"
       inkscape:original-d="m 40.952749,50.734421 c -1.031745,5.993667 1.949908,7.553851 0.942459,12.492999" />
    <path
       style="display:inline;fill:#000000;fill-rule:nonzero;stroke:none;stroke-width:0.30964708px;stroke-linecap:butt;stroke-linejoin:miter;stroke-opacity:1"
       d="m 48.675576,55.31485 c -1.196449,-0.791978 -2.073567,-1.423584 -2.827422,-2.204018 -0.672657,-0.696373 -0.997912,-1.276559 -0.997912,-1.276559 0,0 0.265222,0.610231 0.900907,1.364081 0.692726,0.821494 1.594664,1.557835 2.778663,2.337306 0.484382,0.319756 0.880286,0.640413 1.151404,1.107139 1.79066,3.082607 0.31874,5.924422 0.342045,9.336466 0.01372,2.02964 0.919665,3.752844 0.919665,3.752844 0,0 -0.641739,-1.820693 -0.655087,-3.754651 -0.02277,-3.33324 1.479603,-6.269987 -0.377839,-9.467557 -0.300951,-0.518084 -0.737499,-0.867015 -1.234424,-1.195051 z"
       id="path46"
       inkscape:connector-curvature="0"
       sodipodi:nodetypes="csc"
       inkscape:path-effect="#path-effect897"
       inkscape:original-d="m 44.850242,51.834273 c 1.758252,3.205063 4.025315,3.158219 4.945366,4.742077 2.463007,4.240045 -1.111279,8.022794 1.147318,13.155759" />
    <path
       style="display:inline;fill:#000000;fill-rule:nonzero;stroke:none;stroke-width:0.30964708px;stroke-linecap:butt;stroke-linejoin:miter;stroke-opacity:1"
       d="m 56.773007,60.199478 c -2.998849,-0.873895 -5.62871,-2.667588 -5.62871,-2.667588 0,0 2.474561,2.020572 5.554555,2.921567 2.084512,0.608628 3.822978,0.583419 5.706177,0.590246 l -10e-7,0 c 1.347909,0.0049 2.570258,-0.113915 3.792502,-0.09541 1.81146,0.02805 3.558487,0.483557 3.558487,0.483557 0,0 -1.667518,-0.720174 -3.554481,-0.74811 -1.241913,-0.0188 -2.463879,0.100228 -3.795546,0.09538 a 21.542698,21.542698 0 0 1 0,0 175.73592,175.73592 0 0 0 -1e-6,0 c -1.886095,-0.0068 -3.588294,0.01736 -5.632982,-0.579643 z"
       id="path48"
       inkscape:connector-curvature="0"
       sodipodi:nodetypes="csc"
       inkscape:path-effect="#path-effect899"
       inkscape:original-d="m 51.144297,57.53189 c 5.112466,3.453878 7.930189,3.367447 11.261212,3.379522 2.58272,0.0094 4.728318,-0.441256 7.350508,0.520438" />
    <path
       style="display:inline;fill:#000000;fill-rule:nonzero;stroke:none;stroke-width:0.30964708px;stroke-linecap:butt;stroke-linejoin:miter;stroke-opacity:1"
       d="m 68.594644,59.430531 c 0.402185,0.528868 0.772766,1.04026 1.314979,1.389361 0,0 0,0 0,0 1.32153,0.833545 2.627411,0.673666 2.627411,0.673666 0,0 -1.314994,0.0048 -2.508382,-0.850915 0,0 0,0 0,0 -0.486954,-0.342103 -0.809488,-0.835896 -1.223975,-1.373018 -0.263475,-0.343917 -0.577996,-0.734972 -1.014825,-1.17334 -2.213909,-2.218285 -5.155994,-3.332742 -5.155994,-3.332742 0,0 2.822545,1.362506 4.968576,3.519501 0.42615,0.427651 0.731653,0.807379 0.99221,1.147487 z"
       id="path50"
       inkscape:connector-curvature="0"
       sodipodi:nodetypes="cc"
       inkscape:path-effect="#path-effect895"
       inkscape:original-d="M 72.537034,61.493558 C 67.507625,60.860811 70.901064,59.00371 62.633858,54.763543" />
    <path
       style="fill:#000000;fill-rule:nonzero;stroke:none;stroke-width:0.30964708px;stroke-linecap:butt;stroke-linejoin:miter;stroke-opacity:1"
       d="m 57.995254,68.683493 c -0.950473,-0.511812 -1.539652,-1.418494 -1.929447,-2.171951 -0.387404,-0.748836 -0.569945,-1.278352 -0.569945,-1.278352 0,0 0.116269,0.547695 0.448822,1.33511 0.333095,0.788697 0.899513,1.774933 1.923232,2.347118 0.622768,0.34193 1.343796,0.629792 2.288404,1.275857 2.251047,1.537618 4.017024,3.696547 4.017024,3.696547 0,0 -1.552416,-2.329426 -3.867656,-3.914936 -0.966149,-0.660798 -1.70877,-0.95905 -2.310434,-1.289393 z"
       id="path959"
       inkscape:connector-curvature="0"
       sodipodi:nodetypes="cc"
       inkscape:path-effect="#path-effect961"
       inkscape:original-d="m 55.495862,65.23319 c 1.810986,5.479363 3.006128,1.776148 8.677482,8.654632" />
    <path
       style="display:inline;opacity:1;fill:#000000;fill-rule:nonzero;stroke:none;stroke-width:0.30555916px;stroke-linecap:butt;stroke-linejoin:miter;stroke-opacity:1"
       d="m 22.932603,34.467177 c -0.414721,-0.940843 -0.835104,-1.89552 -0.835104,-1.89552 0,0 0.167625,1.036467 0.592982,2.002204 0.992405,2.252287 2.154184,3.122818 3.549435,3.388421 2.132292,0.405909 2.698543,-0.701896 4.238041,-1.381979 1.313029,-0.582493 2.805057,-0.662914 2.805057,-0.662914 0,0 -1.497966,-0.201242 -2.911971,0.420894 -1.612618,0.712385 -2.043063,1.752154 -4.081649,1.364083 -1.319877,-0.251255 -2.384426,-1.028382 -3.356791,-3.235189 z"
       id="path985"
       inkscape:connector-curvature="0"
       sodipodi:nodetypes="csc"
       inkscape:path-effect="#path-effect993"
       inkscape:original-d="m 22.097499,32.571657 c 1.155121,3.731157 2.470201,4.937631 4.167156,5.260667 2.985821,0.568389 2.718265,-1.878167 7.018359,-1.914935" />
    <path
       style="display:inline;opacity:1;fill:#000000;fill-rule:nonzero;stroke:none;stroke-width:0.30555916px;stroke-linecap:butt;stroke-linejoin:miter;stroke-opacity:1"
       d="m 26.491935,37.785953 c -0.17973,-0.0965 -0.413539,-0.05707 -0.413539,-0.05707 0,0 0.122888,0.201276 0.288351,0.290165 1.590057,0.853976 1.326258,1.713311 1.201844,3.10035 -0.121859,1.376464 0.212712,2.605664 0.648037,3.529993 0.421746,0.895499 0.8605,1.391066 0.8605,1.391066 0,0 -0.385294,-0.538008 -0.739518,-1.443199 -0.36817,-0.94083 -0.625792,-2.130958 -0.505493,-3.454222 0.122726,-1.368221 0.331381,-2.459331 -1.340182,-3.357081 z"
       id="path988"
       inkscape:connector-curvature="0"
       sodipodi:nodetypes="cc"
       inkscape:path-effect="#path-effect991"
       inkscape:original-d="m 26.078396,37.728881 c 3.710492,1.697936 -0.29866,3.701733 2.998732,8.311574" />
  </g>
</svg>
