<svg xmlns="http://www.w3.org/2000/svg" xmlns:xlink="http://www.w3.org/1999/xlink" viewBox="0 0 64 64">
    <defs>
        <linearGradient id="statueGradient">
            <stop offset="0" stop-color="#f55"/>
            <stop offset="1" stop-color="#ff8080"/>
        </linearGradient>
        <linearGradient id="linearGradient15" x1="29.5" x2="44.125" y1="1025.487" y2="1003.362" gradientTransform="matrix(1.28844 0 0 1.29051 -9.225 -296.313)" gradientUnits="userSpaceOnUse" xlink:href="#statueGradient"/>
    </defs>
    <g transform="translate(0 -988.362)">
        <ellipse cx="32" cy="1020.368" fill="url(#linearGradient15)" fill-rule="evenodd" rx="30.383" ry="30.381"/>
        <path fill="none" stroke="#fff" stroke-width="2" d="M16.375 1039.362h32.25"/>
        <path fill="none" stroke="#fff" stroke-width="4" d="M21.125 1038.05l22.562.062"/>
        <path fill="none" stroke="#fff" stroke-width="8" d="M32.187 1036.612v-15.75"/>
        <path fill="none" stroke="#fff" stroke-width="2" d="M26.541 1020.393h11.043"/>
        <g stroke="#fff" transform="translate(-10.575 -328.255) scale(1.331)">
            <path fill="none" stroke-width=".886" d="M35.264 1013.51c-.038-.077-.425-1.429-.425-1.429-.467-1.244-.907-2.447-1.231-3.47-.523-1.128-1.156-2.228-1.29-3.452M30.175 1004.824l-.13 3.482c-.13 1.01-.116 2.038-.156 2.838-.073.63-.322 1.34-.358 2.114"/>
            <path fill="#fff" fill-rule="evenodd" stroke-width=".443" d="M29.75 1005.38l3.02-.153c-.144-1.013.11-2.038-.669-3.03 1.042-.985.9-1.994 1.047-2.996l-2.728.295c-.257.575-.796 1.465.134 2.163-.948 1.227-.959 2.472-.805 3.721z"/>
            <path fill="none" stroke-width=".886" d="M31.011 999.64c-1.024.024-1.884.874-1.853 1.816.054.613.577.964.878 1.438M32.965 999.47c.13.046 1.202 1.405 1.195 1.89-.376.717-.997 1.52-1.713 2.264M31.566 999.383l-.076-1.092"/>
            <ellipse cx="51.44" cy="996.923" fill="#fff" stroke-linecap="round" stroke-linejoin="round" stroke-width=".443" rx=".885" ry=".998" transform="rotate(1.158)"/>
            <path fill="none" stroke-width=".886" d="M30.973 997.071c2.289-1.184.86 2.027 2.435 1.473"/>
            <path fill="#fff" fill-rule="evenodd" stroke-width=".443" d="M32.143 1001.107c-2.826-2.178-5.112-3.696-5.682-6.693-3.125.798-5.029 2.458-6.187 4.643l3.278-.417 1.702 1.529 3.307-.313z"/>
            <path fill="#fff" fill-rule="evenodd" stroke-width=".443" d="M31.314 1000.618c2.912-2.063 5.257-3.487 5.948-6.459 3.09.924 4.925 2.66 5.994 4.89l-3.259-.55-1.761 1.46-3.292-.447z"/>
        </g>
    </g>
</svg>
