<?xml version="1.0" encoding="UTF-8"?>
<svg cursor="default" version="1.1" viewBox="0 0 256 256" xmlns="http://www.w3.org/2000/svg">
 <g stroke="#000">
  <path d="m66.903 186.76c-1.181 4.26-1.953 9.643-2.475 15.715 11.266 25.003 25.648 25.387 38.484 37.99zm120.71-4.888-36.938 57.479c5.249 1.093 35.052-29.56 40.464-38.237-1.633-6.623-3.526-19.242-3.526-19.242z" fill="#faa" fill-rule="evenodd" stroke-width=".98"/>
  <path d="m130.57 254.81c-2.3 0.397-9.026 0.083-11.288-0.263-2.305-0.352-11.233-8.884-16.6-14.18-18.138-17.902-36.688-52.982-35.528-53.854-0.145-16.416 14.82-38.928 15.035-56.056 0.21-16.756-5.73-26.715-6.497-42.01l51.23-10.952h3.341l49.003 16.83c-0.178 5.148-7.865 30.954-6.064 44.918 1.697 13.145 15.012 33.563 14.479 42.816-3.322 8.987-24.203 47.11-37.619 57.912-6.36 5.121-13.815 13.858-19.492 14.838z" fill="#ff8080" fill-rule="evenodd" stroke-width=".98"/>
  <path d="m81.319 212.5c15.422-56.124 23.886-72.989 13.55-111.99m68.059 0.619c-18.176 52.26 0.968 64.652 8.043 112.24" fill="none" stroke-width=".49"/>
  <path d="m68.759 62.396c-0.611 9.479 3.608 17.515 5.568 24.873 14.488 28.308 51.333 3.733 50.364-10.642-13.357-44.71-46.777-27.606-55.932-14.23zm113.47 26.482c2.64-8.168 6.882-15.053 7.92-24.502-29.611-33.373-52.872-5.134-57.48 12.127 14.07 37.12 44.61 23.903 49.56 12.375z" fill="#f55" fill-rule="evenodd" stroke-width=".98"/>
  <path d="m129.27 76.998c1.1-0.853 2.109-1.07 3.093-1.114 8.68 19.715 31.963 33.124 49.869 13.117 0.14-0.32 0.423 1.616-0.866 2.723-7.402 12.591-33.764 18.89-52.097-14.726zm-55.033 10.421c-0.8 0.283 0.763 3.46 1.75 4.567 14.491 13.671 35.709 12.682 52.045-14.555-0.933-1.618-2.515-1.503-3.589-1.299-10.765 24.316-36.282 26.517-50.206 11.287z" fill="#faa" fill-rule="evenodd" stroke-width=".8"/>
 </g>
</svg>
