<?xml version="1.0" encoding="UTF-8"?>
<svg cursor="default" version="1.1" viewBox="0 0 256 256" xmlns="http://www.w3.org/2000/svg">
 <g stroke="#000" stroke-width=".75">
  <path d="m182.6 3.494 3.094 0.62-5.693 51.972-3.464-0.99c3.647-16.018 4.07-34.38 6.063-51.602zm-109.51-0.742c2.728 19.746 3.65 27.987 8.353 50.735l-1.98 0.866-9.838-51.106z" fill="#ff2a2a" fill-rule="evenodd"/>
  <path d="m73.12 57.818c-2.388-1.272 2.065-6.288 3.125-2.784m105.33 1.148c2.378-2.296 4.658 2.004 3.238 2.887" fill="none"/>
  <path d="m72.741 55.337 2.947-1.603-0.247-2.722-2.416-48.319s-2.689-0.282-3.88 0.904l3.697 48.157c0.055 1.018-0.048 2.351-0.1 3.583zm109.74-0.241c0.494 0.247 2.598 1.856 2.598 1.856-1.086-19.013 0.99-35.391 1.485-53.086l-3.589-0.248c0.286 16.859-0.324 34.315-0.495 51.478z" fill="#ff8080" fill-rule="evenodd"/>
 </g>
</svg>
