<svg xmlns="http://www.w3.org/2000/svg" xmlns:xlink="http://www.w3.org/1999/xlink" viewBox="0 0 256 256">
    <defs>
        <linearGradient id="linearGradient916">
            <stop offset="0" stop-color="#abc837"/>
            <stop offset=".5" stop-color="#abc837" stop-opacity="0"/>
            <stop offset="1" stop-color="#abc837"/>
        </linearGradient>
        <linearGradient id="innoGrad10">
            <stop offset="0" stop-color="#ff7f2a"/>
            <stop offset="1" stop-color="#ff7f2a" stop-opacity="0"/>
        </linearGradient>
        <linearGradient id="innoGrad9">
            <stop offset="0" stop-color="#ffd42a"/>
            <stop offset=".5" stop-color="#ffd42a" stop-opacity="0"/>
            <stop offset="1" stop-color="#ffd42a"/>
        </linearGradient>
        <linearGradient id="innoGrad8">
            <stop offset="0" stop-color="#ff7f2a"/>
            <stop offset=".5" stop-color="#ff7f2a" stop-opacity="0"/>
            <stop offset="1" stop-color="#ff7f2a"/>
        </linearGradient>
        <linearGradient id="innoGrad5">
            <stop offset="0" stop-color="#ffd42a" stop-opacity="0"/>
            <stop offset="1" stop-color="#ffd42a"/>
        </linearGradient>
        <linearGradient id="linearGradient1355" x1="32.018" x2="67.331" y1="60.51" y2="29.062" gradientUnits="userSpaceOnUse" xlink:href="#innoGrad8"/>
        <linearGradient id="linearGradient1402" x1="23.709" x2="40.943" y1="33.341" y2="17.617" gradientUnits="userSpaceOnUse" xlink:href="#innoGrad8"/>
        <linearGradient id="linearGradient1437" x1="99.686" x2="105.288" y1="108.144" y2="102.923" gradientUnits="userSpaceOnUse" xlink:href="#innoGrad8"/>
        <linearGradient id="linearGradient1472" x1="150.093" x2="154.922" y1="164.87" y2="160.589" gradientUnits="userSpaceOnUse" xlink:href="#innoGrad8"/>
        <linearGradient id="linearGradient1510" x1="116.119" x2="120.748" y1="125.72" y2="121.67" gradientUnits="userSpaceOnUse" xlink:href="#innoGrad9"/>
        <linearGradient id="linearGradient1541" x1="141.864" x2="181.051" y1="176.828" y2="145.955" gradientUnits="userSpaceOnUse" xlink:href="#innoGrad8"/>
        <linearGradient id="linearGradient1564" x1="153.218" x2="187.5" y1="184.32" y2="157.608" gradientUnits="userSpaceOnUse" xlink:href="#innoGrad8"/>
        <linearGradient id="linearGradient1595" x1="97.983" x2="103.177" y1="131.958" y2="127.164" gradientUnits="userSpaceOnUse" xlink:href="#innoGrad10"/>
        <linearGradient id="linearGradient1630" x1="137.499" x2="146.566" y1="167.041" y2="159.177" gradientUnits="userSpaceOnUse" xlink:href="#innoGrad8"/>
        <linearGradient id="linearGradient1682" x1="87.897" x2="94.719" y1="108.87" y2="102.808" gradientUnits="userSpaceOnUse" xlink:href="#innoGrad8"/>
        <linearGradient id="linearGradient1717" x1="139.339" x2="174.179" y1="170.016" y2="138.998" gradientUnits="userSpaceOnUse" xlink:href="#innoGrad8"/>
        <linearGradient id="linearGradient1749" x1="180.146" x2="190.041" y1="209.464" y2="209.464" gradientUnits="userSpaceOnUse" xlink:href="#innoGrad10"/>
        <linearGradient id="linearGradient1781" x1="203.081" x2="214.465" y1="189.039" y2="189.039" gradientUnits="userSpaceOnUse" xlink:href="#innoGrad10"/>
        <linearGradient id="linearGradient1812" x1="193.864" x2="159.857" y1="113.571" y2="141.014" gradientUnits="userSpaceOnUse" xlink:href="#innoGrad10"/>
        <linearGradient id="linearGradient1874" x1="222.854" x2="232.744" y1="182.4" y2="193.522" gradientUnits="userSpaceOnUse" xlink:href="#linearGradient916"/>
        <linearGradient id="linearGradient1913" x1="221.26" x2="228.942" y1="186.122" y2="194.529" gradientUnits="userSpaceOnUse" xlink:href="#innoGrad9"/>
        <radialGradient id="radialGradient1063" cx="207.847" cy="211.432" r="38.241" fx="207.847" fy="211.432" gradientTransform="matrix(.68926 .76656 -.62904 .5656 197.585 -67.483)" gradientUnits="userSpaceOnUse" xlink:href="#innoGrad5"/>
        <linearGradient id="linearGradient1094" x1="135.15" x2="141.337" y1="194.724" y2="200.284" gradientUnits="userSpaceOnUse" xlink:href="#innoGrad10"/>
        <linearGradient id="linearGradient1117" x1="70.977" x2="66.576" y1="221.101" y2="216.536" gradientTransform="translate(74 -14.915)" gradientUnits="userSpaceOnUse" xlink:href="#innoGrad10"/>
    </defs>
    <g fill="#ff7f2a" stroke="#000" stroke-miterlimit="10">
        <path d="M204.421 17.376c1.883-2.19-3.478-8.656-7.657-4.72-3.8 3.58 1.767 11.466 3.418 9.625 1.65-1.842-3.951-5.114-1.25-7.61 2.513-2.32 3.74 4.74 5.49 2.705zM107.196 131.776c1.882-2.19-3.479-8.656-7.657-4.72-3.8 3.58 1.767 11.466 3.417 9.625 1.651-1.842-3.95-5.114-1.249-7.61 2.512-2.32 3.74 4.738 5.49 2.705z"/>
    </g>
    <g>
        <path fill="#ff7f2a" stroke="#000" stroke-miterlimit="10" d="M42.098 189.95c-.699.66-2.252 15.454 3.99 21.44 7.163 6.872 23.144 5.211 24.824 4.115 3.143-2.05-3.164-12.071-11.506-19.848-8.005-7.46-15.76-7.168-17.308-5.706z"/>
    </g>
    <g>
        <path fill="#ffe6d5" stroke="#000" stroke-miterlimit="10" stroke-width=".5" d="M171.37 117.823s2.946 1.65 4.526 2.722c1.58 1.072 3.688 3.554 3.688 3.554l12.103-12.18-10.718-4.635z"/>
        <path fill="#f95" d="M164.965 126.9l17.804-17.74 7.34 3.73-21.399 20.691s-4.714-3.717-4.52-4.823a4.618 4.618 0 0 1 .775-1.857zm-10.674 8.554l10.54 5.224 26.026-25.208s5.016 4.138 10.387 8.812c5.379 4.681 7.771 8.18 8.964 8.115 2.62-.143 9.133-6.965 8.921-10.836-.088-1.613-1.834-3.78-10.598-10.812-4.014-3.221-11.504-7.077-13.938-9.043-2.951-2.386-.21-3.83-.21-3.83l19.52-20.282-5.98-7.685L68.98 205.381l6.124 6.675z"/>
        <path fill="url(#linearGradient1117)" d="M148.684 180.854l-8.122 8.934s-4.405 4.783-9.365 9.891c-4.968 5.115-8.593 7.313-8.593 8.507 0 2.625 6.457 9.5 10.333 9.5 1.616 0 3.875-1.625 11.375-9.993 3.435-3.832 7.694-11.1 9.79-13.423 2.543-2.817 3.768-3.66 3.768-3.66z" transform="rotate(-93.129 130.646 128.756)"/>
        <path fill="none" stroke="#000" stroke-miterlimit="10" d="M164.965 126.9l17.804-17.74 7.34 3.73-21.399 20.691s-4.714-3.717-4.52-4.823a4.618 4.618 0 0 1 .775-1.857zm-10.674 8.554l10.54 5.224 26.026-25.208s5.016 4.138 10.387 8.812c5.379 4.681 7.771 8.18 8.964 8.115 2.62-.143 9.133-6.965 8.921-10.836-.088-1.613-1.834-3.78-10.598-10.812-4.014-3.221-11.504-7.077-13.938-9.043-2.951-2.386-.21-3.83-.21-3.83l19.52-20.282-5.98-7.685L68.98 205.381l6.124 6.675z"/>
    </g>
    <g>
        <path fill="#ffe6d5" d="M185.736 106.11s8.034 2.691 15.06 7.565c7.027 4.874 14.597 10.129 14.1 11.24-.499 1.112-6.706 6.205-6.706 6.205s-3.233-3.954-13.376-12.387c-10.03-8.339-14.421-7.323-14.421-7.323z"/>
        <path fill="url(#linearGradient1094)" stroke="#000" stroke-miterlimit="10" d="M150.25 185s-3.125 7.875-8.375 14.625-10.91 14.022-11.993 13.464c-1.083-.558-5.829-7.034-5.829-7.034s4.124-3.012 13.098-12.68c8.874-9.56 8.099-14 8.099-14z" transform="rotate(-93.129 130.646 128.756)"/>
    </g>
    <g>
        <path fill="#ffe680" d="M181.082 42.64l.515-6.157 25.466-25.312s16.728-8.166 29.3 6.545c15.193 17.78 7.362 31.645 7.362 31.645l-26.911 25.257-5.274-.296-17.825 11.323-21.02-23.638 7.521-17.618 1.163-1.217z"/>
        <path fill="url(#radialGradient1063)" stroke="#000" stroke-miterlimit="10" d="M213.881 183.817l6.119.85 23.884 26.81s7.241 17.148-8.134 28.898c-18.582 14.201-32 5.625-32 5.625L180 217.75l.583-5.25-10.333-18.416L195 174.386l17.181 8.471 1.152 1.227z" transform="rotate(-93.129 130.646 128.756)"/>
        <path fill="#ffe680" d="M183.43 35.882l-4.37-4.601 8.558-8.314 4.009 4.622s-2.147 2.693-4.165 4.735c-2.019 2.042-4.031 3.558-4.031 3.558z"/>
        <path fill="url(#linearGradient1913)" stroke="#000" stroke-miterlimit="10" d="M220.5 186.531l4.833-4.114 7.834 9-4.834 3.75s-2.571-2.29-4.5-4.417c-1.929-2.127-3.333-4.219-3.333-4.219z" transform="rotate(-93.129 130.646 128.756)"/>
    </g>
    <g>
        <path fill="#cdde87" d="M176.862 30.739c-.192-1.065 1.104-2.479 4.588-5.595 3.71-3.316 4.72-4.272 5.649-4.188.928.084 4.314 4.256 4.314 4.256s-2.823 2.107-5.936 5.176c-3.113 3.07-4.288 4.904-4.288 4.904s-4.132-3.486-4.327-4.553z"/>
        <path fill="url(#linearGradient1874)" stroke="#000" stroke-miterlimit="10" d="M225.994 180.253c1.074-.134 2.415 1.237 5.336 4.886 3.109 3.885 4.008 4.947 3.874 5.869-.135.922-4.486 4.076-4.486 4.076s-1.949-2.934-4.844-6.21c-2.896-3.276-4.662-4.549-4.662-4.549s3.706-3.936 4.782-4.072z" transform="rotate(-93.129 130.646 128.756)"/>
    </g>
    <g>
        <path fill="#fca" d="M44.915 195.68l-2.018-3.206 84.372-84.169-10.737-26.954 41.501-43.58 22.182 6.618-29.668 54.632L49.055 202.715zM171.07 48.26l-11.455-3.041-35.272 36.465 4.356 11.52z"/>
        <path fill="url(#linearGradient1812)" stroke="#000" stroke-miterlimit="10" d="M68.5 39.5l3.312-1.84 79.438 88.84 27.5-9.25L220 161.068l-7.819 21.788-52.931-32.606-98-107zm140.315 134.012l3.662-11.272-34.486-37.21-11.741 3.721z" transform="rotate(-93.129 130.646 128.756)"/>
    </g>
    <g>
        <path fill="#f95" stroke="#000" stroke-miterlimit="10" d="M179.4 44.136l1.683-1.497s4.727 1.91 6.877 3.263c2.149 1.354 6.05 4.878 6.05 4.878l-1.708 1.392s-2.805-2.777-5.6-4.766c-2.795-1.99-7.302-3.27-7.302-3.27z"/>
        <path fill="url(#linearGradient1781)" stroke="#000" stroke-miterlimit="10" d="M212.478 182.056l1.403 1.762s-2.164 4.616-3.633 6.688c-1.469 2.072-5.201 5.775-5.201 5.775l-1.297-1.781s2.926-2.65 5.065-5.332c2.139-2.682 3.663-7.112 3.663-7.112z" transform="rotate(-93.129 130.646 128.756)"/>
        <path fill="#f95" d="M206.182 67.788l1.241-1.919s1.194 1.189 1.999 2.979c.805 1.79 1.042 3.782 1.042 3.782l-.215.97z"/>
        <path fill="url(#linearGradient1749)" stroke="#000" stroke-miterlimit="10" d="M187.4 207.507l1.848 1.344s-1.252 1.127-3.083 1.833c-1.831.706-3.834.834-3.834.834l-.956-.268z" transform="rotate(-93.129 130.646 128.756)"/>
        <path fill="#ffb380" d="M42.398 195.442l105.206-104.46 1.479-14.164 29.701-32.648s4.233.46 6.517 1.96c2.284 1.499 7 6.042 7 6.042l-13.54 13.384s2.589 1.4 3.636 2.43l3.47 3.414 5.68-5.541s.95.198 1.629 1.163c.679.964.408 1.73.408 1.73l-6.072 5.715s2.467 2.375 3.092 3.169c.624.794 2.29 3.672 2.29 3.672l12.867-13.845s1.8 1.24 3.104 3.418c1.305 2.178 1.383 2.719 1.383 2.719l1.93 2.177L68.784 215.532s-5.403 1.923-17.715-8.045c-5.28-4.274-8.67-12.045-8.67-12.045z"/>
        <path fill="#ffe6d5" fill-rule="evenodd" d="M92.725 148.311l6.633 12.86 2.032-14.439-9.925 10.413 14.446-2.84z"/>
        <path fill="url(#linearGradient1717)" stroke="#000" stroke-miterlimit="10" d="M68.875 37l98.563 110.75L181.5 150l30.978 31.439s-.69 4.201-2.312 6.4c-1.622 2.199-6.416 6.66-6.416 6.66l-12.625-14.25s-1.539 2.508-2.625 3.497l-3.598 3.278 5.223 5.975s-.25.938-1.25 1.563-1.75.313-1.75.313l-5.375-6.375s-2.506 2.334-3.333 2.914c-.827.58-3.792 2.086-3.792 2.086l13.122 13.604s-1.336 1.729-3.582 2.913c-2.246 1.184-2.79 1.232-2.79 1.232l-2.279 1.809L47.375 62.25s-1.625-5.5 9-17.25c4.556-5.038 12.5-8 12.5-8z" transform="rotate(-93.129 130.646 128.756)"/>
    </g>
    <g>
        <path fill="#ffb380" d="M146.2 126.382l7.322 6.563-71.526 69.71-6.11-6.832z"/>
        <path fill="url(#linearGradient1682)" stroke="#000" stroke-miterlimit="10" stroke-width=".5" d="M66.667 70.416l65.5 74.001-6.953 6.952-65.703-75.224z" transform="rotate(-93.129 130.646 128.756)"/>
        <path fill="#ffb380" d="M144.136 126.92s3.231 2.46 4.372 3.509c1.141 1.05 4.952 5.07 4.952 5.07l44.073-42.636s-2.97-3.793-4.632-5.337c-1.662-1.543-4.579-3.22-4.579-3.22z"/>
        <path fill="url(#linearGradient1630)" stroke="#000" stroke-miterlimit="10" stroke-width=".5" d="M131.742 142.326s-2.632 3.092-3.742 4.174c-1.11 1.082-5.333 4.668-5.333 4.668l40.167 46.334s3.95-2.759 5.582-4.334c1.632-1.575 3.465-4.396 3.465-4.396z" transform="rotate(-93.129 130.646 128.756)"/>
    </g>
    <g>
        <path fill="#fca" d="M110.875 162.42l24.77-24.721s22.21 1.748 24.242 3.765c2.033 2.018-32.012 32.713-32.012 32.713s-1.458.23-5.85-2.476c-4.39-2.706-11.15-9.28-11.15-9.28z"/>
        <path fill="url(#linearGradient1595)" stroke="#000" stroke-miterlimit="10" d="M98.11 107.177l23.333 26.083s-2.958 22.081-5.083 24c-2.125 1.919-30.917-33.75-30.917-33.75s-.15-1.469 2.792-5.706c2.942-4.237 9.875-10.627 9.875-10.627z" transform="rotate(-93.129 130.646 128.756)"/>
    </g>
    <g>
        <path fill="#ffb380" d="M174.993 104.03l-22.79-24.012 25.594-15.368s6.083 4.546 8.071 6.75c1.988 2.204 7.653 10.668 7.653 10.668z"/>
        <path fill="url(#linearGradient1564)" stroke="#000" stroke-miterlimit="10" stroke-width=".5" d="M152.915 174.386l25.219-21.445 13.948 26.394s-4.871 5.826-7.18 7.691c-2.309 1.865-11.07 7.059-11.07 7.059z" transform="rotate(-93.129 130.646 128.756)"/>
        <path fill="none" stroke="#000" stroke-miterlimit="10" stroke-width=".5" d="M175.72 102.738l16.471-20.22-1.098-.34-17.384 20.648-.9-1.202 17.276-20.088-1.357-.79-19.46 20.61-1.413-1.344 19.61-21.062-1.242-1.014-19.43 20.353-1.879-1.779 20.255-19.687-1.32-1.263-20.454 18.919-2.126-2.263 21.835-18.198-1.585-1.585-21.412 17.894-2-1.771 22.789-17.064-1.107-2.025-23.235 17.222-2.406-2.5 24.703-15.884-.827-1.5-23.865 15.687-1.968-1.797 24.681-14.908"/>
        <path fill="#ffb380" d="M149.083 76.818s11.012 9.434 13.375 11.856c2.363 2.423 11.988 15.385 11.988 15.385l-14.16-.91s-2.93-3.558-6.189-6.782c-3.257-3.224-6.493-5.384-6.493-5.384z"/>
        <path fill="url(#linearGradient1541)" stroke="#000" stroke-miterlimit="10" stroke-width=".5" d="M181.5 150s-10.021 10.481-12.569 12.708c-2.548 2.227-16.016 11.13-16.016 11.13l1.682-14.089s3.712-2.732 7.109-5.809 5.731-6.19 5.731-6.19z" transform="rotate(-93.129 130.646 128.756)"/>
    </g>
    <g transform="rotate(-93.129 130.646 128.756)">
        <ellipse cx="224.627" cy="42.783" fill="#ff7f2a" fill-rule="evenodd" stroke="#000" stroke-width=".456" rx=".916" ry="3.251" transform="matrix(.81155 .58428 -.71507 .69906 0 0)"/>
        <ellipse cx="151.096" cy="25.229" fill="#ff7f2a" fill-rule="evenodd" stroke="#000" stroke-width=".476" rx=".955" ry="3.398" transform="matrix(.80703 .59052 -.70938 .70483 0 0)"/>
        <path fill="#ffe680" d="M53.876 46.045l101.046 114.544-3.712 3.751L50.501 50.46z"/>
        <path fill="url(#linearGradient1510)" stroke="#000" stroke-miterlimit="10" stroke-width=".5" d="M50.501 50.46l3.375-4.415 101.046 114.544-3.712 3.751z"/>
        <path fill="#ffb380" d="M154.165 159.25s-.099 1.403-1.79 2.989c-1.691 1.586-2.875 1.386-2.875 1.386l4.665 6.5s1.847-2.248 2.585-4.5 0-3.386 0-3.386z"/>
        <path fill="url(#linearGradient1472)" stroke="#000" stroke-miterlimit="10" stroke-width=".5" d="M154.165 159.25s-.099 1.403-1.79 2.989c-1.691 1.586-2.875 1.386-2.875 1.386l4.665 6.5s1.847-2.248 2.585-4.5 0-3.386 0-3.386z"/>
        <path fill="#ffb380" d="M106.584 104.416s-1.506.818-2.833 2.083c-1.327 1.265-2.538 3.035-2.538 3.035l-3.379-3.452s0-.857 2.667-3.333c1.994-1.851 2.917-1.833 2.917-1.833z"/>
        <path fill="url(#linearGradient1437)" stroke="#000" stroke-miterlimit="10" stroke-width=".5" d="M106.584 104.416s-1.506.818-2.833 2.083c-1.327 1.265-2.538 3.035-2.538 3.035l-3.379-3.452s0-.857 2.667-3.333c1.994-1.851 2.917-1.833 2.917-1.833z"/>
    </g>
    <g stroke="#000" stroke-miterlimit="10" stroke-width=".5">
        <path fill="#ff8080" d="M101.696 143.159l46.301-45s1.48-.114 2.295.75l1.455 1.549-46.47 45.228s-1.156-1.022-1.669-1.478c-.512-.456-1.912-1.049-1.912-1.049z"/>
        <path fill="#ff2a2a" d="M147.623 99.491l4.124.967-3.489 3.396z"/>
    </g>
    <g fill="#f95" stroke="#000" stroke-miterlimit="10" stroke-width=".5">
        <path d="M40.774 237.562L29.87 247.837l-2.17-.958 2.39 2.63 19.643-18.618zM28.525 223.517l-10.602 10.587.892 2.197-2.558-2.469 19.208-19.067z"/>
    </g>
    <g>
        <path fill="#ffe6d5" d="M37.097 210.817l-11.513 15.965s-2.583 3.54-.837 5.303c.575.58 1.223-.979 2.122-.116 1.22 1.172 4.41 4.215 5.68 5.448.637.619-.4 1.837.13 2.372 2.367 2.39 5.492-.3 5.492-.3l18.142-11.633z"/>
        <path fill="url(#linearGradient1402)" stroke="#000" stroke-miterlimit="10" d="M53.813 30.867L38.5 18.5s-3.394-2.772-5.25-1.125c-.61.542.911 1.275 0 2.125-1.236 1.154-4.449 4.174-5.75 5.375-.652.602-1.812-.5-2.375 0-2.515 2.233 0 5.5 0 5.5l10.625 18.75z" transform="rotate(-93.129 130.646 128.756)"/>
        <path fill="#ffe6d5" d="M70.142 216.189s-9.697-.272-18.615-9.478c-9.022-9.314-9.918-16.146-9.918-16.146l-4.196 5.275-3.238 15.967s.668 4.203 8.413 12.293c3.954 4.13 10.752 5.797 10.752 5.797l1.932-.482z"/>
        <path fill="url(#linearGradient1355)" stroke="#000" stroke-miterlimit="10" d="M46.645 63.57s.801-9.668 10.48-18.07c9.792-8.5 16.663-9.022 16.663-9.022L68.75 32l-15.766-4.104s-4.234.437-12.734 7.729c-4.34 3.723-6.375 10.42-6.375 10.42L34.25 48z" transform="rotate(-93.129 130.646 128.756)"/>
    </g>
</svg>
