<?xml version="1.0" encoding="UTF-8"?>
<svg cursor="default" version="1.1" viewBox="0 0 256 256" xmlns="http://www.w3.org/2000/svg" xmlns:cc="http://creativecommons.org/ns#" xmlns:dc="http://purl.org/dc/elements/1.1/" xmlns:rdf="http://www.w3.org/1999/02/22-rdf-syntax-ns#">
 <metadata>
  <rdf:RDF>
   <cc:Work rdf:about="">
    <dc:format>image/svg+xml</dc:format>
    <dc:type rdf:resource="http://purl.org/dc/dcmitype/StillImage"/>
   </cc:Work>
  </rdf:RDF>
 </metadata>
 <g transform="matrix(-1 0 0 1 254.2 -1.6073)">
  <path d="m153.76 228.24c6.2284-5.466 9.9594-8.5292 43.945-41.725l-8.5e-4 -7.2e-4c0.42305-6.2907-2.4242-15.357-4.5174-20.24l-3.9683-9.8818-3.1528-7.7115-2.6841-7.5837-3.877-11.333-2.045-8.4357c-0.92058-3.8912-1.4866-7.7869-1.7894-11.674-0.19482-2.5003-0.25816-3.9806-0.17043-6.3481 1.9848-12.354 3.9196-19.044 3.9196-19.044 4.9422-15.508 8.1801-34.169 8.1801-34.169 1.5338-9.7991-2.1302-19.598-2.1302-19.598-1.5338-5.283-6.7041-12.476-8.6914-14.741-4.0444-4.6104-13.718-2.9911-15.862-2.5082-14.006 3.1557-22.423 17.068-35.29 17.174-10.79 0.088388-21.979-14.739-33.892-16.961-2.7762-0.51765-12.065-2.3349-16.11 2.2755-1.9873 2.2654-7.1576 9.458-8.6914 14.741 0 0-3.664 9.7989-2.1302 19.598 0 0 3.2379 18.661 8.1801 34.169 0 0 1.9348 6.69 3.9196 19.044 0.08773 2.3675 0.02439 3.8478-0.17043 6.3481-0.3028 3.8871-0.86882 7.7828-1.7894 11.674l-2.045 8.4357-3.877 11.333-2.6841 7.5837-3.1528 7.7115-3.9683 9.8818c-2.0932 4.883-4.9404 13.949-4.5174 20.24l-8.5e-4 7.2e-4c33.985 33.195 46.737 38.114 43.95 41.459 8.8009 9.5816 17.555 18.602 27.244 18.687 9.2776 0.0817 16.128-6.561 27.868-18.402z" fill="#ff8080" stroke="#000" stroke-linecap="round" stroke-linejoin="round"/>
 </g>
 <g stroke="#000" stroke-linejoin="round">
  <g stroke-width=".5">
   <path d="m81.595 11.656-5e-4 -5e-4c-7.4236 34.852 5.2417 57.046 8.4359 67.359 4.8586 15.686 6.3177 30.85 5.5459 46.412-1.2203 24.605-15.987 72.157-15.987 72.157 9.3398 14.921 19.155 28.893 34.249 41.435 4.5068 3.6905 9.3284 5.7283 14.428 5.7283s9.5565-2.0378 14.063-5.7283c15.094-12.542 24.909-26.514 34.249-41.435 0 0-14.767-47.552-15.987-72.157-0.7718-15.562 0.6873-30.726 5.5459-46.412 3.1942-10.313 15.86-32.507 8.4359-67.359l-5e-4 5e-4c-21.936-4.5618-31.179 17.334-46.489 17.334s-25.303-22.27-46.489-17.334z" fill="#ffb380" stroke-linecap="round"/>
   <path d="m60.714 165.57s-4.2176 9.0379-4.2176 19.341c0 0 22.354 31.403 43.945 41.459-17.124-24.206-16.013-18.825-39.727-60.8z" fill="#faa"/>
   <path d="m195.28 165.55s4.2176 9.0379 4.2176 19.341c0 0-22.354 31.403-43.945 41.459 17.124-24.206 16.013-18.825 39.727-60.8z" fill="#faa"/>
  </g>
  <path d="m60.714 165.57s-4.2176 9.0379-4.2176 19.341c0 0 22.354 31.403 43.945 41.459" fill="none"/>
  <path d="m195.28 165.55s4.2176 9.0379 4.2176 19.341c0 0-22.354 31.403-43.945 41.459" fill="none"/>
 </g>
</svg>
