<svg xmlns="http://www.w3.org/2000/svg" xmlns:xlink="http://www.w3.org/1999/xlink" viewBox="0 0 256 256">
    <defs>
        <linearGradient id="innoGrad8">
            <stop offset="0" stop-color="#ff7f2a" stop-opacity=".502"/>
            <stop offset=".16" stop-color="#ff7f2a" stop-opacity="0"/>
            <stop offset=".444" stop-color="#ff7f2a" stop-opacity=".502"/>
            <stop offset=".729" stop-color="#ff7f2a" stop-opacity="0"/>
            <stop offset="1" stop-color="#ff7f2a" stop-opacity=".502"/>
        </linearGradient>
        <linearGradient id="innoGrad7">
            <stop offset="0" stop-color="#ff7f2a" stop-opacity=".502"/>
            <stop offset=".529" stop-color="#ff7f2a" stop-opacity="0"/>
            <stop offset="1" stop-color="#ff7f2a" stop-opacity=".502"/>
        </linearGradient>
        <linearGradient id="innoGrad6">
            <stop offset="0" stop-color="#ffd42a" stop-opacity="0"/>
            <stop offset="1" stop-color="#ffd42a" stop-opacity=".502"/>
        </linearGradient>
        <linearGradient id="innoGrad5">
            <stop offset="0" stop-color="#ffd42a" stop-opacity=".502"/>
            <stop offset="1" stop-color="#ffd42a" stop-opacity="0"/>
        </linearGradient>
        <linearGradient id="innoGrad4">
            <stop offset="0" stop-color="#ff7f2a" stop-opacity=".502"/>
            <stop offset=".828" stop-color="#ff7f2a" stop-opacity="0"/>
            <stop offset="1" stop-color="#ff7f2a" stop-opacity=".502"/>
        </linearGradient>
        <linearGradient id="innoGrad3">
            <stop offset="0" stop-color="#ff7f2a" stop-opacity=".502"/>
            <stop offset=".5" stop-color="#ff7f2a" stop-opacity="0"/>
            <stop offset="1" stop-color="#ff7f2a" stop-opacity=".502"/>
        </linearGradient>
        <linearGradient id="innoGrad2">
            <stop offset="0" stop-color="#ff7f2a" stop-opacity=".502"/>
            <stop offset="1" stop-color="#ff7f2a" stop-opacity="0"/>
        </linearGradient>
        <linearGradient id="innoGrad1">
            <stop offset="0" stop-color="#ff2a2a" stop-opacity="0"/>
            <stop offset="1" stop-color="#ff2a2a" stop-opacity=".502"/>
        </linearGradient>
        <linearGradient id="linearGradient949" x1="123.657" x2="123.657" y1="98.708" y2="151.969" gradientUnits="userSpaceOnUse" xlink:href="#innoGrad2"/>
        <radialGradient id="radialGradient983" cx="101.654" cy="132.803" r="101.191" fx="101.654" fy="132.803" gradientTransform="matrix(0 .62857 -.6249 0 210.283 43.57)" gradientUnits="userSpaceOnUse" xlink:href="#innoGrad1"/>
        <linearGradient id="linearGradient1019" x1="85.824" x2="109.825" y1="130.082" y2="136.533" gradientUnits="userSpaceOnUse" xlink:href="#innoGrad2"/>
        <linearGradient id="linearGradient1021" x1="165.836" x2="141.835" y1="130.082" y2="136.533" gradientUnits="userSpaceOnUse" xlink:href="#innoGrad2"/>
        <radialGradient id="radialGradient1060" cx="125.685" cy="235.659" r="100.784" fx="125.685" fy="235.659" gradientTransform="matrix(0 .71542 -.7117 0 293.403 8.906)" gradientUnits="userSpaceOnUse" xlink:href="#innoGrad2"/>
        <linearGradient id="linearGradient1160" x1="-4.058" x2="24.98" y1="59.823" y2="100.021" gradientUnits="userSpaceOnUse" xlink:href="#innoGrad3"/>
        <linearGradient id="linearGradient1184" x1="-4.058" x2="24.98" y1="59.823" y2="100.021" gradientUnits="userSpaceOnUse" xlink:href="#innoGrad3"/>
        <linearGradient id="linearGradient1186" x1="-16.445" x2="25.856" y1="106.459" y2="98.183" gradientUnits="userSpaceOnUse" xlink:href="#innoGrad3"/>
        <linearGradient id="linearGradient1188" x1="-16.445" x2="25.172" y1="106.459" y2="101.463" gradientUnits="userSpaceOnUse" xlink:href="#innoGrad3"/>
        <linearGradient id="linearGradient1196" x1="-8.157" x2="24.809" y1="161.832" y2="99.599" gradientUnits="userSpaceOnUse" xlink:href="#innoGrad4"/>
        <linearGradient id="linearGradient1212" x1="25.061" x2="7.697" y1="103.14" y2="180.112" gradientUnits="userSpaceOnUse" xlink:href="#innoGrad7"/>
        <linearGradient id="linearGradient1220" x1="49.767" x2="54.925" y1="89.957" y2="89.957" gradientUnits="userSpaceOnUse" xlink:href="#innoGrad2"/>
        <linearGradient id="linearGradient1243" x1="2.357" x2="6" y1="182.571" y2="190.369" gradientUnits="userSpaceOnUse" xlink:href="#innoGrad5"/>
        <radialGradient id="radialGradient1278" cx="7.981" cy="185.933" r="2.492" fx="7.981" fy="185.933" gradientUnits="userSpaceOnUse" xlink:href="#innoGrad6"/>
        <radialGradient id="radialGradient1280" cx="4.722" cy="189.327" r="1.054" fx="4.722" fy="189.327" gradientUnits="userSpaceOnUse" xlink:href="#innoGrad6"/>
        <radialGradient id="radialGradient1282" cx="7.635" cy="189.659" r="1.054" fx="7.635" fy="189.659" gradientUnits="userSpaceOnUse" xlink:href="#innoGrad6"/>
        <radialGradient id="radialGradient1284" cx="9.953" cy="188.291" r="1.054" fx="9.953" fy="188.291" gradientUnits="userSpaceOnUse" xlink:href="#innoGrad6"/>
        <radialGradient id="radialGradient1286" cx="11.981" cy="185.913" r="1.054" fx="11.981" fy="185.913" gradientUnits="userSpaceOnUse" xlink:href="#innoGrad6"/>
        <linearGradient id="linearGradient1379" x1="-13.579" x2="-5.979" y1="168.938" y2="164.758" gradientUnits="userSpaceOnUse" xlink:href="#innoGrad6"/>
        <radialGradient id="radialGradient1387" cx="-10.325" cy="166.462" r="2.193" fx="-10.325" fy="166.462" gradientTransform="matrix(1 0 0 1.04776 0 -7.94)" gradientUnits="userSpaceOnUse" xlink:href="#innoGrad6"/>
        <radialGradient id="radialGradient1389" cx="-9.949" cy="171.362" r=".939" fx="-9.949" fy="171.362" gradientTransform="matrix(1 0 0 1.04172 0 -7.142)" gradientUnits="userSpaceOnUse" xlink:href="#innoGrad6"/>
        <radialGradient id="radialGradient1391" cx="-12.616" cy="170.059" r=".939" fx="-12.616" fy="170.059" gradientTransform="matrix(1 0 0 1.0421 0 -7.153)" gradientUnits="userSpaceOnUse" xlink:href="#innoGrad6"/>
        <radialGradient id="radialGradient1393" cx="-13.792" cy="167.42" r=".939" fx="-13.792" fy="167.42" gradientTransform="matrix(1 0 0 1.04163 0 -6.968)" gradientUnits="userSpaceOnUse" xlink:href="#innoGrad6"/>
        <radialGradient id="radialGradient1395" cx="-13.635" cy="164.713" r=".939" fx="-13.635" fy="164.713" gradientTransform="matrix(1 0 0 1.04202 0 -6.907)" gradientUnits="userSpaceOnUse" xlink:href="#innoGrad6"/>
        <linearGradient id="linearGradient1444" x1="225.112" x2="272.622" y1="99.653" y2="86.5" gradientUnits="userSpaceOnUse" xlink:href="#innoGrad3"/>
        <linearGradient id="linearGradient1452" x1="224.914" x2="271.227" y1="98.739" y2="83.627" gradientUnits="userSpaceOnUse" xlink:href="#innoGrad3"/>
        <linearGradient id="linearGradient1460" x1="224.773" x2="267.778" y1="101.77" y2="106.459" gradientUnits="userSpaceOnUse" xlink:href="#innoGrad3"/>
        <linearGradient id="linearGradient1476" x1="226.871" x2="267.778" y1="101.111" y2="106.459" gradientUnits="userSpaceOnUse" xlink:href="#innoGrad3"/>
        <linearGradient id="linearGradient1484" x1="224.443" x2="228.258" y1="103.209" y2="164.985" gradientUnits="userSpaceOnUse" xlink:href="#innoGrad8"/>
        <linearGradient id="linearGradient1492" x1="226.173" x2="248.75" y1="102.972" y2="179.156" gradientUnits="userSpaceOnUse" xlink:href="#innoGrad7"/>
        <linearGradient id="linearGradient1512" x1="-192.43" x2="-187.272" y1="-157.079" y2="-157.079" gradientUnits="userSpaceOnUse" xlink:href="#innoGrad2"/>
        <linearGradient id="linearGradient1550" x1="249.842" x2="252.971" y1="178.815" y2="186.833" gradientUnits="userSpaceOnUse" xlink:href="#innoGrad5"/>
        <radialGradient id="radialGradient1558" cx="248.657" cy="185.289" r="2.492" fx="248.657" fy="185.289" gradientUnits="userSpaceOnUse" xlink:href="#innoGrad6"/>
        <radialGradient id="radialGradient1560" cx="253.432" cy="185.356" r="1.054" fx="253.432" fy="185.356" gradientUnits="userSpaceOnUse" xlink:href="#innoGrad6"/>
        <radialGradient id="radialGradient1562" cx="251.67" cy="188.129" r="1.054" fx="251.67" fy="188.129" gradientUnits="userSpaceOnUse" xlink:href="#innoGrad6"/>
        <radialGradient id="radialGradient1564" cx="248.806" cy="188.868" r="1.054" fx="248.806" fy="188.868" gradientUnits="userSpaceOnUse" xlink:href="#innoGrad6"/>
        <radialGradient id="radialGradient1566" cx="245.395" cy="188.771" r="1.055" fx="245.395" fy="188.771" gradientUnits="userSpaceOnUse" xlink:href="#innoGrad6"/>
        <linearGradient id="linearGradient1604" x1="224.803" x2="231.728" y1="172.912" y2="169.138" gradientUnits="userSpaceOnUse" xlink:href="#innoGrad6"/>
        <radialGradient id="radialGradient1612" cx="226.155" cy="169.238" r="2.221" fx="226.155" fy="169.238" gradientTransform="matrix(1 0 0 1.02393 0 -4.045)" gradientUnits="userSpaceOnUse" xlink:href="#innoGrad6"/>
        <radialGradient id="radialGradient1614" cx="222.257" cy="166.49" r=".95" fx="222.257" fy="166.49" gradientTransform="matrix(1 0 0 1.02143 0 -3.567)" gradientUnits="userSpaceOnUse" xlink:href="#innoGrad6"/>
        <radialGradient id="radialGradient1616" cx="221.974" cy="169.487" r=".95" fx="221.974" fy="169.487" gradientTransform="matrix(1 0 0 1.02268 0 -3.842)" gradientUnits="userSpaceOnUse" xlink:href="#innoGrad6"/>
        <radialGradient id="radialGradient1618" cx="223.707" cy="171.654" r=".949" fx="223.707" fy="171.654" gradientTransform="matrix(1 0 0 1.02213 0 -3.798)" gradientUnits="userSpaceOnUse" xlink:href="#innoGrad6"/>
        <radialGradient id="radialGradient1620" cx="226.172" cy="173.54" r=".949" fx="226.172" fy="173.54" gradientTransform="matrix(1 0 0 1.02256 0 -3.911)" gradientUnits="userSpaceOnUse" xlink:href="#innoGrad6"/>
    </defs>
    <g stroke-width="1.187">
        <path fill="#f95" d="M85.308 131.173c-32.881-19.232-42.36-21.774-42.36-21.774l.892-2.796c83.097 27.69 84.562 27.691 167.657 0l.895 2.796s-9.48 2.542-42.361 21.774c-41.772 24.43-42.952 24.432-84.723 0z"/>
        <path fill="url(#linearGradient949)" stroke="#000000" stroke-linejoin="round" stroke-miterlimit="10" stroke-width="1.408" d="M75.44 128.818c-39-22.828-50.243-25.845-50.243-25.845l1.059-3.319c98.559 32.868 100.297 32.869 198.855 0l1.061 3.319s-11.244 3.017-50.244 25.845c-49.545 28.999-50.944 29-100.488 0z" transform="matrix(.84311 0 0 .84248 21.704 22.646)"/>
        <path fill="#ff8080" d="M140.74 165.333s15.345-24.184 41.253-44.116c19.368-14.9 30.4-11.819 30.4-11.819l-.895-2.796s-5.859-4.008-21.555 5.167c-18.71 10.938-25.566 19.404-25.566 19.404s-12.843-9.301-14.58-8.924c-1.738.378-11.458 15.707-11.458 15.707s-4.575 1.225-10.669 1.157c-6.093-.067-10.669-1.157-10.669-1.157s-9.72-15.33-11.457-15.707c-1.738-.376-14.58 8.924-14.58 8.924s-6.857-8.465-25.567-19.404c-15.696-9.175-21.555-5.167-21.555-5.167l-.893 2.796s11.03-3.082 30.399 11.82c25.908 19.931 41.253 44.115 41.253 44.115s-.375 1.95 12.695 1.95 13.443-1.95 13.443-1.95z"/>
        <path fill="url(#radialGradient983)" stroke="#000000" stroke-linejoin="round" stroke-miterlimit="10" stroke-width="1.408" d="M141.186 169.365s18.201-28.705 48.93-52.364c22.973-17.687 36.057-14.029 36.057-14.029l-1.061-3.319s-6.949-4.757-25.566 6.133c-22.191 12.983-30.324 23.032-30.324 23.032s-15.232-11.04-17.293-10.592c-2.061.448-13.59 18.644-13.59 18.644s-5.426 1.453-12.654 1.373c-7.227-.08-12.654-1.373-12.654-1.373s-11.529-18.196-13.59-18.644c-2.061-.447-17.293 10.592-17.293 10.592s-8.133-10.048-30.324-23.032c-18.617-10.89-25.566-6.133-25.566-6.133l-1.059 3.319s13.082-3.658 36.055 14.029c30.729 23.659 48.93 52.364 48.93 52.364s-.445 2.314 15.057 2.314 15.945-2.314 15.945-2.314z" transform="matrix(.84311 0 0 .84248 21.704 22.646)"/>
        <path fill="#ffb380" d="M94.063 132.238s9.525-7.317 10.943-7.26c1.42.059 9.292 12.695 9.292 12.695l-10.117-.394zM161.522 132.238s-9.525-7.317-10.944-7.26c-1.42.059-9.292 12.695-9.292 12.695l10.118-.348z"/>
        <path fill="url(#linearGradient1019)" stroke="#000000" stroke-linejoin="round" stroke-miterlimit="10" stroke-width=".297" d="M85.824 130.082s11.297-8.685 12.98-8.617c1.684.07 11.021 15.068 11.021 15.068l-12-.467z" transform="matrix(.84311 0 0 .84248 21.704 22.646)"/>
        <path fill="url(#linearGradient1021)" stroke="#000000" stroke-linejoin="round" stroke-miterlimit="10" stroke-width=".297" d="M165.836 130.082s-11.297-8.685-12.98-8.617c-1.684.07-11.021 15.068-11.021 15.068l12-.412z" transform="matrix(.84311 0 0 .84248 21.704 22.646)"/>
        <path fill="#ffb380" d="M90.962 131.173s-6.857-8.465-25.567-19.404c-15.696-9.175-21.555-5.167-21.555-5.167l-.892 2.796s11.03-3.082 30.398 11.82c25.908 19.931 41.253 44.115 41.253 44.115s-.175.911 3.893 1.489l-.002-.001s-11.726-19.953-26.107-34.2a85.955 85.955 0 0 0-1.456-1.41m73.449-.038s6.857-8.465 25.566-19.404c15.697-9.175 21.555-5.167 21.555-5.167l.895 2.796s-11.031-3.082-30.4 11.82c-25.908 19.931-41.254 44.115-41.254 44.115s-.159.828-3.89 1.405c0 0 11.725-19.87 26.106-34.118.45-.444.935-.914 1.455-1.406m-70.434 3.007c28.816 9.068 38.269 9.52 67.178.107l3.223-3.155c-32.506 10.84-41.112 10.33-73.413 0z"/>
        <path fill="url(#radialGradient1060)" stroke="#000000" stroke-linejoin="round" stroke-miterlimit="10" stroke-width=".593" d="M82.146 128.818s-8.133-10.048-30.324-23.032c-18.617-10.89-25.566-6.133-25.566-6.133l-1.059 3.319s13.082-3.658 36.055 14.029c30.729 23.659 48.93 52.364 48.93 52.364s-.208 1.082 4.617 1.767l-.002-.001s-13.908-23.683-30.965-40.595a102.044 102.044 0 0 0-1.727-1.672m87.116-.046s8.133-10.048 30.324-23.032c18.617-10.89 25.566-6.133 25.566-6.133l1.061 3.319s-13.084-3.658-36.057 14.029c-30.729 23.659-48.93 52.364-48.93 52.364s-.189.983-4.615 1.668c0 0 13.908-23.585 30.965-40.497.533-.527 1.109-1.085 1.725-1.669m-83.54 3.569c34.178 10.763 45.39 11.299 79.679.127l3.822-3.745c-38.555 12.868-48.762 12.262-87.074 0z" transform="matrix(.84311 0 0 .84248 21.704 22.646)"/>
        <path fill="none" stroke="#000000" stroke-linejoin="round" stroke-miterlimit="10" stroke-width="1.408" d="M141.186 169.365s18.201-28.705 48.93-52.364c22.973-17.687 36.057-14.029 36.057-14.029l-1.061-3.319s-6.949-4.757-25.566 6.133c-22.191 12.983-30.324 23.032-30.324 23.032s-15.232-11.04-17.293-10.592c-2.061.448-13.59 18.644-13.59 18.644s-5.426 1.453-12.654 1.373c-7.227-.08-12.654-1.373-12.654-1.373s-11.529-18.196-13.59-18.644c-2.061-.447-17.293 10.592-17.293 10.592s-8.133-10.048-30.324-23.032c-18.617-10.89-25.566-6.133-25.566-6.133l-1.059 3.319s13.082-3.658 36.055 14.029c30.729 23.659 48.93 52.364 48.93 52.364s-.445 2.314 15.057 2.314 15.945-2.314 15.945-2.314z" transform="matrix(.84311 0 0 .84248 21.704 22.646)"/>
    </g>
    <g stroke-width="1.187" transform="matrix(.84311 0 0 .84248 21.704 22.646)">
        <path fill="#ffb380" d="M-1.201 58.395c.621.175 1.869 23.119 8.637 29.787 6.768 6.668 16.424 9.303 17.373 11.417.949 2.114-.346 1.511-.346 1.511s-2.611-1.501-8.21-4.29c-2.876-1.433-8.379-2.449-10.891-5.349-10.302-11.89-9.723-30.63-9.421-31.649.302-1.019 2.239-1.602 2.858-1.427z"/>
        <path fill="url(#linearGradient1160)" stroke="#000000" stroke-linejoin="round" stroke-miterlimit="10" stroke-width="1.408" d="M-1.201 58.395c.621.175 1.869 23.119 8.637 29.787 6.768 6.668 16.424 9.303 17.373 11.417.949 2.114-.346 1.511-.346 1.511s-2.611-1.501-8.21-4.29c-2.876-1.433-8.379-2.449-10.891-5.349-10.302-11.89-9.723-30.63-9.421-31.649.302-1.019 2.239-1.602 2.858-1.427z"/>
        <path fill="#ffb380" d="M25.855 98.184s-.456-18.078-4.023-25.395C18.583 66.127-.252 58.435-1.201 58.395l-2.857 1.428s14.266 5.545 21.715 15.401c2.48 3.282 6.807 25.886 6.807 25.886z"/>
        <path fill="url(#linearGradient1184)" stroke="#000000" stroke-linejoin="round" stroke-miterlimit="10" stroke-width="1.408" d="M25.855 98.184s-.456-18.078-4.023-25.395C18.583 66.127-.252 58.435-1.201 58.395l-2.857 1.428s14.266 5.545 21.715 15.401c2.48 3.282 6.807 25.886 6.807 25.886z"/>
        <path fill="#ffb380" d="M24.809 99.599S16.56 91.111 3.664 95.66c-12.896 4.549-19.151 15.025-19.151 15.025l-.958-4.226s5.586-11.516 18.998-14.564c16.334-3.712 23.303 6.288 23.303 6.288z"/>
        <path fill="url(#linearGradient1186)" stroke="#000000" stroke-linejoin="round" stroke-miterlimit="10" stroke-width="1.408" d="M24.809 99.599S16.56 91.111 3.664 95.66c-12.896 4.549-19.151 15.025-19.151 15.025l-.958-4.226s5.586-11.516 18.998-14.564c16.334-3.712 23.303 6.288 23.303 6.288z"/>
        <path fill="#ffb380" d="M25.633 103.498s-1.846-.384-3.811 1.017c-3.631 2.588-9.538 8.028-18.156 10.371-13.279 3.61-19.153-4.2-19.153-4.2-.771-.765-1.653-3.898-.958-4.226.694-.329 10.428 7.547 18.086 5.895 8.477-1.829 15.293-6.681 19.229-9.404 2.006-1.386 3.594-1.84 3.594-1.84z"/>
        <path fill="url(#linearGradient1188)" stroke="#000000" stroke-linejoin="round" stroke-miterlimit="10" stroke-width="1.408" d="M25.633 103.498s-1.846-.384-3.811 1.017c-3.631 2.588-9.538 8.028-18.156 10.371-13.279 3.61-19.153-4.2-19.153-4.2-.771-.765-1.653-3.898-.958-4.226.694-.329 10.428 7.547 18.086 5.895 8.477-1.829 15.293-6.681 19.229-9.404 2.006-1.386 3.594-1.84 3.594-1.84z"/>
        <path fill="#ffb380" d="M24.98 100.021c-36.205 2.52-12.232 30.792-21.357 45.937-6.623 10.99-11.78 15.874-11.78 15.874l2.657 6.063s9.354-10.823 12.135-18.263c8.537-22.829-13.127-45.856 18.537-48.169z"/>
        <path fill="url(#linearGradient1196)" stroke="#000000" stroke-linejoin="round" stroke-miterlimit="10" stroke-width="1.408" d="M24.98 100.021c-36.205 2.52-12.232 30.792-21.357 45.937-6.623 10.99-11.78 15.874-11.78 15.874l2.657 6.063s9.354-10.823 12.135-18.263c8.537-22.829-13.127-45.856 18.537-48.169z"/>
        <path fill="#ffb380" d="M25.061 103.14c-10.334 27.352-35.48 22.162-17.364 76.972l-4.337 2.353c-18.013-63.396 11.047-53.951 21.104-81.354z"/>
        <path fill="url(#linearGradient1212)" stroke="#000000" stroke-miterlimit="10" stroke-width="1.408" d="M25.061 103.14c-10.334 27.352-35.48 22.162-17.364 76.972l-4.337 2.353c-18.013-63.396 11.047-53.951 21.104-81.354z"/>
        <ellipse cx="26.418" cy="100.667" fill="#ffb380" rx="1.875" ry="2.938" transform="rotate(15.491 26.417 100.664)"/>
        <ellipse cx="52.346" cy="89.957" fill="url(#linearGradient1220)" stroke="#000000" stroke-miterlimit="10" stroke-width="1.408" rx="1.875" ry="2.938" transform="rotate(15.491)"/>
        <g>
            <path fill="#ffe680" d="M11.861 184.452a1.741 1.741 0 0 0-.384.141 3.19 3.19 0 0 0-.343-1.271c-.613-1.189-1.887-1.828-3.25-1.804l.507-.315s.969-.728.638-1.427c-.33-.699-1.377-.137-1.377-.137l-5.295 2.932s-.146.482.276 1.22c.424.736.931.43.931.43l.583-.365c-.489.983-.554 2.113-.048 3.096.184.354.438.648.722.904a1.808 1.808 0 0 0-.616.025c-.92.209-1.504 1.099-1.303 1.987.202.889 1.112 1.44 2.033 1.231a1.742 1.742 0 0 0 1.065-.73c.006.071.009.142.025.213.201.889 1.112 1.44 2.032 1.231.852-.193 1.406-.969 1.326-1.787a1.73 1.73 0 0 0 1.316.227c.921-.209 1.504-1.099 1.303-1.987a1.6 1.6 0 0 0-.305-.631c.279.084.584.106.893.036.921-.209 1.504-1.099 1.303-1.987-.201-.89-1.11-1.441-2.032-1.232z"/>
            <path fill="url(#linearGradient1243)" stroke="#000000" stroke-linejoin="round" stroke-miterlimit="10" d="M11.861 184.452a1.741 1.741 0 0 0-.384.141 3.19 3.19 0 0 0-.343-1.271c-.613-1.189-1.887-1.828-3.25-1.804l.507-.315s.969-.728.638-1.427c-.33-.699-1.377-.137-1.377-.137l-5.295 2.932s-.146.482.276 1.22c.424.736.931.43.931.43l.583-.365c-.489.983-.554 2.113-.048 3.096.184.354.438.648.722.904a1.808 1.808 0 0 0-.616.025c-.92.209-1.504 1.099-1.303 1.987.202.889 1.112 1.44 2.033 1.231a1.742 1.742 0 0 0 1.065-.73c.006.071.009.142.025.213.201.889 1.112 1.44 2.032 1.231.852-.193 1.406-.969 1.326-1.787a1.73 1.73 0 0 0 1.316.227c.921-.209 1.504-1.099 1.303-1.987a1.6 1.6 0 0 0-.305-.631c.279.084.584.106.893.036.921-.209 1.504-1.099 1.303-1.987-.201-.89-1.11-1.441-2.032-1.232z"/>
            <circle cx="7.64" cy="185.421" r="2.344" fill="#fea"/>
            <circle cx="4.608" cy="189.441" r=".906" fill="#fea"/>
            <circle cx="7.749" cy="190" r=".906" fill="#fea"/>
            <circle cx="10.18" cy="188.519" r=".906" fill="#fea"/>
            <circle cx="12.265" cy="186.027" r=".906" fill="#fea"/>
            <circle cx="7.64" cy="185.421" r="2.344" fill="url(#radialGradient1278)" stroke="#000000" stroke-miterlimit="10" stroke-width=".297"/>
            <circle cx="4.608" cy="189.441" r=".906" fill="url(#radialGradient1280)" stroke="#000000" stroke-miterlimit="10" stroke-width=".297"/>
            <circle cx="7.749" cy="190" r=".906" fill="url(#radialGradient1282)" stroke="#000000" stroke-miterlimit="10" stroke-width=".297"/>
            <circle cx="10.18" cy="188.519" r=".906" fill="url(#radialGradient1284)" stroke="#000000" stroke-miterlimit="10" stroke-width=".297"/>
            <circle cx="12.265" cy="186.027" r=".906" fill="url(#radialGradient1286)" stroke="#000000" stroke-miterlimit="10" stroke-width=".297"/>
            <path fill="none" stroke="#000000" stroke-miterlimit="10" stroke-width=".593" d="M7.885 181.518l-3.738 2.336"/>
        </g>
        <g>
            <path fill="#ffe680" d="M-14.738 163.262c-.577.541-.586 1.516-.021 2.177.188.222.421.374.663.466-.189.055-.371.15-.525.295-.578.54-.587 1.516-.021 2.178.291.34.678.528 1.063.56-.454.557-.429 1.432.095 2.043.566.662 1.493.76 2.07.219.047-.043.082-.095.122-.143-.001.391.138.796.418 1.124.565.662 1.493.76 2.071.218.576-.541.586-1.515.02-2.177a1.672 1.672 0 0 0-.434-.359c.33-.029.657-.104.963-.265.844-.441 1.344-1.306 1.467-2.297l.246.589s.219.506.883.199c.665-.308.792-.743.792-.743l-2.415-5.073s-.484-.988-1.064-.659c-.578.329-.229 1.399-.229 1.399l.212.511c-.976-.771-2.209-1.005-3.23-.472a2.622 2.622 0 0 0-.864.744 1.896 1.896 0 0 0-.211-.314c-.567-.664-1.493-.761-2.071-.22z"/>
            <path fill="url(#linearGradient1379)" stroke="#000000" stroke-linejoin="round" stroke-miterlimit="10" d="M-14.738 163.262c-.577.541-.586 1.516-.021 2.177.188.222.421.374.663.466-.189.055-.371.15-.525.295-.578.54-.587 1.516-.021 2.178.291.34.678.528 1.063.56-.454.557-.429 1.432.095 2.043.566.662 1.493.76 2.07.219.047-.043.082-.095.122-.143-.001.391.138.796.418 1.124.565.662 1.493.76 2.071.218.576-.541.586-1.515.02-2.177a1.672 1.672 0 0 0-.434-.359c.33-.029.657-.104.963-.265.844-.441 1.344-1.306 1.467-2.297l.246.589s.219.506.883.199c.665-.308.792-.743.792-.743l-2.415-5.073s-.484-.988-1.064-.659c-.578.329-.229 1.399-.229 1.399l.212.511c-.976-.771-2.209-1.005-3.23-.472a2.622 2.622 0 0 0-.864.744 1.896 1.896 0 0 0-.211-.314c-.567-.664-1.493-.761-2.071-.22z"/>
            <path fill="#fea" d="M-11.219 164.602c-.818.77-.855 2.127-.079 3.033.776.907 2.069 1.019 2.89.252.82-.769.856-2.127.08-3.032-.776-.908-2.069-1.02-2.891-.253zM-10.293 170.563c-.318.296-.331.821-.031 1.173.301.35.801.394 1.117.097.317-.298.332-.822.032-1.174-.3-.35-.8-.394-1.118-.096zM-12.961 169.287c-.316.298-.33.823-.029 1.174.299.35.799.394 1.117.097.317-.298.331-.822.031-1.174-.301-.351-.801-.395-1.119-.097zM-13.966 166.758c-.317.297-.331.822-.032 1.172.301.352.801.395 1.117.098.32-.297.332-.822.032-1.172-.3-.352-.799-.396-1.117-.098zM-14.291 163.75c-.318.298-.332.824-.031 1.173.299.351.799.396 1.117.098.317-.298.331-.823.031-1.173-.301-.352-.801-.395-1.117-.098z"/>
            <path fill="url(#radialGradient1387)" stroke="#000000" stroke-miterlimit="10" stroke-width=".297" d="M-11.219 164.602c-.818.77-.855 2.127-.079 3.033.776.907 2.069 1.019 2.89.252.82-.769.856-2.127.08-3.032-.776-.908-2.069-1.02-2.891-.253z"/>
            <path fill="url(#radialGradient1389)" stroke="#000000" stroke-miterlimit="10" stroke-width=".297" d="M-10.293 170.563c-.318.296-.331.821-.031 1.173.301.35.801.394 1.117.097.317-.298.332-.822.032-1.174-.3-.35-.8-.394-1.118-.096z"/>
            <path fill="url(#radialGradient1391)" stroke="#000000" stroke-miterlimit="10" stroke-width=".297" d="M-12.961 169.287c-.316.298-.33.823-.029 1.174.299.35.799.394 1.117.097.317-.298.331-.822.031-1.174-.301-.351-.801-.395-1.119-.097z"/>
            <path fill="url(#radialGradient1393)" stroke="#000000" stroke-miterlimit="10" stroke-width=".297" d="M-13.966 166.758c-.317.297-.331.822-.032 1.172.301.352.801.395 1.117.098.32-.297.332-.822.032-1.172-.3-.352-.799-.396-1.117-.098z"/>
            <path fill="url(#radialGradient1395)" stroke="#000000" stroke-miterlimit="10" stroke-width=".297" d="M-14.291 163.75c-.318.298-.332.824-.031 1.173.299.351.799.396 1.117.098.317-.298.331-.823.031-1.173-.301-.352-.801-.395-1.117-.098z"/>
            <path fill="none" stroke="#000000" stroke-miterlimit="10" stroke-width=".593" d="M-8.362 163.522l1.575 3.778"/>
        </g>
    </g>
    <g stroke-width="1.187" transform="matrix(.84311 0 0 .84248 21.704 22.646)">
        <path fill="#ffb380" d="M271.227 83.627c-.598-.239-16.65 14.835-26.08 15.997-9.43 1.162-18.225-.223-20.266.875-2.043 1.098-.646 1.409-.646 1.409s2.984.4 9.123 1.602c3.152.617 9.021-.306 12.779-1.074 15.416-3.148 26.104-14.944 26.486-15.935.381-.992-.797-2.635-1.396-2.874z"/>
        <path fill="url(#linearGradient1444)" stroke="#000000" stroke-linejoin="round" stroke-miterlimit="10" stroke-width="1.408" d="M271.227 83.627c-.598-.239-16.65 14.835-26.08 15.997-9.43 1.162-18.225-.223-20.266.875-2.043 1.098-.646 1.409-.646 1.409s2.984.4 9.123 1.602c3.152.617 9.021-.306 12.779-1.074 15.416-3.148 26.104-14.944 26.486-15.935.381-.992-.797-2.635-1.396-2.874z"/>
        <path fill="#ffb380" d="M224.914 98.739s11.377-14.056 18.666-17.682c6.635-3.302 26.871 2.022 27.646 2.569l1.396 2.874s-15.305-4.242-27.217-.968c-3.967 1.091-21.172 16.375-21.172 16.375z"/>
        <path fill="url(#linearGradient1452)" stroke="#000000" stroke-linejoin="round" stroke-miterlimit="10" stroke-width="1.408" d="M224.914 98.739s11.377-14.056 18.666-17.682c6.635-3.302 26.871 2.022 27.646 2.569l1.396 2.874s-15.305-4.242-27.217-.968c-3.967 1.091-21.172 16.375-21.172 16.375z"/>
        <path fill="#ffb380" d="M226.525 99.599s5.01 1.261 11.158.054c3.17-.622 5.6-5.54 9.986-3.993 12.896 4.549 19.15 15.025 19.15 15.025l.959-4.226s-6.559-10.357-19.971-13.405c-5.244-1.191-7.482 3.15-10.875 4-7.174 1.798-11.455 1.129-11.455 1.129z"/>
        <path fill="url(#linearGradient1460)" stroke="#000000" stroke-linejoin="round" stroke-miterlimit="10" stroke-width="1.408" d="M226.525 99.599s5.01 1.261 11.158.054c3.17-.622 5.6-5.54 9.986-3.993 12.896 4.549 19.15 15.025 19.15 15.025l.959-4.226s-6.559-10.357-19.971-13.405c-5.244-1.191-7.482 3.15-10.875 4-7.174 1.798-11.455 1.129-11.455 1.129z"/>
        <path fill="#ffb380" d="M225.701 103.498s1.846-.384 3.811 1.017c3.631 2.588 9.537 8.028 18.156 10.371 6.188 1.682 9.639-2.869 12.766-4.2 3.584-1.526 6.387 0 6.387 0 .771-.765 1.654-3.898.959-4.226-.406-.192-4.973.141-9.346 2.015-3.094 1.326-5.566 4.564-8.74 3.88-8.477-1.829-15.293-6.681-19.229-9.404-2.006-1.386-3.594-1.84-3.594-1.84z"/>
        <path fill="url(#linearGradient1476)" stroke="#000000" stroke-linejoin="round" stroke-miterlimit="10" stroke-width="1.408" d="M225.701 103.498s1.846-.384 3.811 1.017c3.631 2.588 9.537 8.028 18.156 10.371 6.188 1.682 9.639-2.869 12.766-4.2 3.584-1.526 6.387 0 6.387 0 .771-.765 1.654-3.898.959-4.226-.406-.192-4.973.141-9.346 2.015-3.094 1.326-5.566 4.564-8.74 3.88-8.477-1.829-15.293-6.681-19.229-9.404-2.006-1.386-3.594-1.84-3.594-1.84z"/>
        <path fill="#ffb380" d="M226.354 100.021c-8.045 24.159 11.827 27.965 18.248 44.646 4.49 11.666-13.169 24.285-13.169 24.285l-3.175-3.967s15.996-11.938 13.492-18.61c-5.655-15.066-29.75-28.25-16.271-47.756z"/>
        <path fill="url(#linearGradient1484)" stroke="#000000" stroke-linejoin="round" stroke-miterlimit="10" stroke-width="1.408" d="M226.354 100.021c-8.045 24.159 11.827 27.965 18.248 44.646 4.49 11.666-13.169 24.285-13.169 24.285l-3.175-3.967s15.996-11.938 13.492-18.61c-5.655-15.066-29.75-28.25-16.271-47.756z"/>
        <path fill="#ffb380" d="M224.443 103.209c7.285 18.325-6.957 26.304 19.621 77.417l4.686-1.47c-28.441-60.228-11.822-50.643-21.879-78.047z"/>
        <path fill="url(#linearGradient1492)" stroke="#000000" stroke-miterlimit="10" stroke-width="1.408" d="M224.443 103.209c7.285 18.325-6.957 26.304 19.621 77.417l4.686-1.47c-28.441-60.228-11.822-50.643-21.879-78.047z"/>
        <ellipse cx="224.916" cy="100.667" fill="#ffb380" rx="1.875" ry="2.938" transform="scale(-1) rotate(-15.491 -740.083 1653.542)"/>
        <ellipse cx="-189.851" cy="-157.079" fill="url(#linearGradient1512)" stroke="#000000" stroke-miterlimit="10" stroke-width="1.408" rx="1.875" ry="2.938" transform="rotate(164.509)"/>
        <g>
            <path fill="#ffe680" d="M244.135 189.315c.504.759 1.551.95 2.338.428.262-.175.457-.411.588-.671.033.228.113.451.248.655.504.759 1.549.951 2.336.428.406-.269.66-.675.744-1.108.537.621 1.482.755 2.209.272.787-.522 1.014-1.563.51-2.321-.039-.062-.088-.111-.137-.165.42.073.875-.009 1.266-.269.785-.521 1.014-1.561.51-2.32-.506-.759-1.551-.95-2.338-.428a1.775 1.775 0 0 0-.443.429 3.16 3.16 0 0 0-.156-1.147c-.361-1.044-1.225-1.775-2.275-2.1l.668-.171s.57-.155.33-.97c-.242-.815-.691-1.042-.691-1.042l-5.775 1.812s-1.129.369-.852 1.091c.277.723 1.473.523 1.473.523l.578-.149c-.957.97-1.373 2.332-.936 3.597.148.43.389.804.684 1.126a1.786 1.786 0 0 0-.367.181c-.788.522-1.018 1.561-.512 2.319z"/>
            <path fill="url(#linearGradient1550)" stroke="#000000" stroke-linejoin="round" stroke-miterlimit="10" d="M244.135 189.315c.504.759 1.551.95 2.338.428.262-.175.457-.411.588-.671.033.228.113.451.248.655.504.759 1.549.951 2.336.428.406-.269.66-.675.744-1.108.537.621 1.482.755 2.209.272.787-.522 1.014-1.563.51-2.321-.039-.062-.088-.111-.137-.165.42.073.875-.009 1.266-.269.785-.521 1.014-1.561.51-2.32-.506-.759-1.551-.95-2.338-.428a1.775 1.775 0 0 0-.443.429 3.16 3.16 0 0 0-.156-1.147c-.361-1.044-1.225-1.775-2.275-2.1l.668-.171s.57-.155.33-.97c-.242-.815-.691-1.042-.691-1.042l-5.775 1.812s-1.129.369-.852 1.091c.277.723 1.473.523 1.473.523l.578-.149c-.957.97-1.373 2.332-.936 3.597.148.43.389.804.684 1.126a1.786 1.786 0 0 0-.367.181c-.788.522-1.018 1.561-.512 2.319z"/>
            <circle cx="248.259" cy="184.606" r="2.344" fill="#fea"/>
            <circle cx="253.261" cy="185.185" r=".906" fill="#fea"/>
            <circle cx="251.499" cy="187.844" r=".906" fill="#fea"/>
            <circle cx="248.749" cy="188.583" r=".906" fill="#fea"/>
            <circle cx="245.509" cy="188.373" r=".907" fill="#fea"/>
            <circle cx="248.259" cy="184.606" r="2.344" fill="url(#radialGradient1558)" stroke="#000000" stroke-miterlimit="10" stroke-width=".297"/>
            <circle cx="253.261" cy="185.185" r=".906" fill="url(#radialGradient1560)" stroke="#000000" stroke-miterlimit="10" stroke-width=".297"/>
            <circle cx="251.499" cy="187.844" r=".906" fill="url(#radialGradient1562)" stroke="#000000" stroke-miterlimit="10" stroke-width=".297"/>
            <circle cx="248.749" cy="188.583" r=".906" fill="url(#radialGradient1564)" stroke="#000000" stroke-miterlimit="10" stroke-width=".297"/>
            <circle cx="245.509" cy="188.373" r=".907" fill="url(#radialGradient1566)" stroke="#000000" stroke-miterlimit="10" stroke-width=".297"/>
            <path fill="none" stroke="#000000" stroke-miterlimit="10" stroke-width=".593" d="M245.264 182.092l4.269-1.094"/>
        </g>
        <g>
            <path fill="#ffe680" d="M227.618 172.942a1.951 1.951 0 0 0-.16-.343 2.616 2.616 0 0 0 1.084-.357c.983-.6 1.419-1.775 1.262-3.011l.327.446s.737.852 1.317.526c.581-.327-.016-1.252-.016-1.252l-3.1-4.688s-.438-.115-1.046.296c-.605.411-.285.859-.285.859l.378.515c-.912-.405-1.91-.424-2.724.071a2.57 2.57 0 0 0-.724.688 1.649 1.649 0 0 0-.085-.557c-.274-.827-1.113-1.32-1.875-1.106-.762.216-1.156 1.061-.881 1.886.136.41.412.739.747.938-.062.011-.124.014-.186.032-.761.214-1.155 1.06-.881 1.886.255.764.991 1.236 1.702 1.134-.173.348-.21.776-.07 1.2.277.825 1.116 1.323 1.877 1.105.204-.057.38-.164.524-.298-.047.255-.036.532.058.808.273.827 1.113 1.321 1.874 1.107.765-.214 1.159-1.057.883-1.885z"/>
            <path fill="url(#linearGradient1604)" stroke="#000000" stroke-linejoin="round" stroke-miterlimit="10" d="M227.618 172.942a1.951 1.951 0 0 0-.16-.343 2.616 2.616 0 0 0 1.084-.357c.983-.6 1.419-1.775 1.262-3.011l.327.446s.737.852 1.317.526c.581-.327-.016-1.252-.016-1.252l-3.1-4.688s-.438-.115-1.046.296c-.605.411-.285.859-.285.859l.378.515c-.912-.405-1.91-.424-2.724.071a2.57 2.57 0 0 0-.724.688 1.649 1.649 0 0 0-.085-.557c-.274-.827-1.113-1.32-1.875-1.106-.762.216-1.156 1.061-.881 1.886.136.41.412.739.747.938-.062.011-.124.014-.186.032-.761.214-1.155 1.06-.881 1.886.255.764.991 1.236 1.702 1.134-.173.348-.21.776-.07 1.2.277.825 1.116 1.323 1.877 1.105.204-.057.38-.164.524-.298-.047.255-.036.532.058.808.273.827 1.113 1.321 1.874 1.107.765-.214 1.159-1.057.883-1.885z"/>
            <path fill="#fea" d="M227.405 171.123c-1.081.305-2.263-.365-2.639-1.498-.377-1.133.195-2.297 1.274-2.604 1.082-.307 2.265.363 2.64 1.495.378 1.132-.194 2.298-1.275 2.607zM222.776 167.255c-.417.12-.874-.142-1.021-.578-.145-.438.076-.89.493-1.007.419-.12.876.14 1.023.577.146.438-.075.889-.495 1.008zM222.493 170.198c-.419.117-.876-.142-1.021-.581-.145-.437.075-.887.493-1.007.42-.119.876.14 1.022.579.146.439-.075.89-.494 1.009zM224.142 172.363c-.418.119-.876-.141-1.021-.576-.145-.439.075-.89.493-1.008.42-.121.876.14 1.021.576.145.439-.074.891-.493 1.008zM226.55 174.194c-.419.119-.878-.141-1.021-.578-.146-.437.073-.889.492-1.008.42-.119.877.141 1.021.578.147.44-.074.891-.492 1.008z"/>
            <path fill="url(#radialGradient1612)" stroke="#000000" stroke-miterlimit="10" stroke-width=".297" d="M227.405 171.123c-1.081.305-2.263-.365-2.639-1.498-.377-1.133.195-2.297 1.274-2.604 1.082-.307 2.265.363 2.64 1.495.378 1.132-.194 2.298-1.275 2.607z"/>
            <path fill="url(#radialGradient1614)" stroke="#000000" stroke-miterlimit="10" stroke-width=".297" d="M222.776 167.255c-.417.12-.874-.142-1.021-.578-.145-.438.076-.89.493-1.007.419-.12.876.14 1.023.577.146.438-.075.889-.495 1.008z"/>
            <path fill="url(#radialGradient1616)" stroke="#000000" stroke-miterlimit="10" stroke-width=".297" d="M222.493 170.198c-.419.117-.876-.142-1.021-.581-.145-.437.075-.887.493-1.007.42-.119.876.14 1.022.579.146.439-.075.89-.494 1.009z"/>
            <path fill="url(#radialGradient1618)" stroke="#000000" stroke-miterlimit="10" stroke-width=".297" d="M224.142 172.363c-.418.119-.876-.141-1.021-.576-.145-.439.075-.89.493-1.008.42-.121.876.14 1.021.576.145.439-.074.891-.493 1.008z"/>
            <path fill="url(#radialGradient1620)" stroke="#000000" stroke-miterlimit="10" stroke-width=".297" d="M226.55 174.194c-.419.119-.878-.141-1.021-.578-.146-.437.073-.889.492-1.008.42-.119.877.141 1.021.578.147.44-.074.891-.492 1.008z"/>
            <path fill="none" stroke="#000000" stroke-miterlimit="10" stroke-width=".593" d="M229.804 169.231l-2.424-3.296"/>
        </g>
    </g>
</svg>
