<svg xmlns="http://www.w3.org/2000/svg" xmlns:xlink="http://www.w3.org/1999/xlink" viewBox="0 0 256 256">
    <defs>
        <linearGradient id="innoGrad6">
            <stop offset="0" stop-color="#ff2a2a" stop-opacity="0"/>
            <stop offset="1" stop-color="#ff2a2a" stop-opacity=".402"/>
        </linearGradient>
        <linearGradient id="innoGrad7">
            <stop offset="0" stop-color="#ff2a2a" stop-opacity="0"/>
            <stop offset="1" stop-color="#ff2a2a" stop-opacity=".5"/>
        </linearGradient>
        <linearGradient id="innoGrad5">
            <stop offset="0" stop-color="#ff2a2a" stop-opacity=".502"/>
            <stop offset=".385" stop-color="#ff2a2a" stop-opacity="0"/>
            <stop offset=".577" stop-color="#ff2a2a" stop-opacity=".502"/>
            <stop offset=".77" stop-color="#ff2a2a" stop-opacity="0"/>
            <stop offset="1" stop-color="#ff2a2a" stop-opacity=".502"/>
        </linearGradient>
        <linearGradient id="innoGrad4">
            <stop offset="0" stop-color="#ff2a2a" stop-opacity=".502"/>
            <stop offset=".5" stop-color="#ff2a2a" stop-opacity="0"/>
            <stop offset="1" stop-color="#ff2a2a" stop-opacity=".502"/>
        </linearGradient>
        <linearGradient id="innoGrad3">
            <stop offset="0" stop-color="#ff2a2a"/>
            <stop offset="1" stop-color="#ff2a2a" stop-opacity="0"/>
        </linearGradient>
        <linearGradient id="innoGrad2">
            <stop offset="0" stop-color="#ff7f2a" stop-opacity="0"/>
            <stop offset="1" stop-color="#ff7f2a" stop-opacity=".502"/>
        </linearGradient>
        <linearGradient id="innoGrad1">
            <stop offset="0" stop-color="#ff2a2a" stop-opacity="0"/>
            <stop offset="1" stop-color="#ff2a2a" stop-opacity=".502"/>
        </linearGradient>
        <radialGradient id="radialGradient1139" cx="135.506" cy="186.841" r="79.465" fx="135.506" fy="186.841" gradientTransform="matrix(0 .57823 -.58015 0 235.449 94.955)" gradientUnits="userSpaceOnUse" xlink:href="#innoGrad1"/>
        <linearGradient id="linearGradient1162" x1="127.197" x2="127.197" y1="178.156" y2="246.185" gradientUnits="userSpaceOnUse" xlink:href="#innoGrad6"/>
        <linearGradient id="linearGradient1164" x1="129.466" x2="129.466" y1="189.246" y2="116.749" gradientUnits="userSpaceOnUse" xlink:href="#innoGrad7"/>
        <radialGradient id="radialGradient1182" cx="128.663" cy="178.455" r="55.609" fx="128.663" fy="178.455" gradientTransform="matrix(-2.35866 0 0 -2.36556 432.136 599.937)" gradientUnits="userSpaceOnUse" xlink:href="#innoGrad1"/>
        <radialGradient id="radialGradient1190" cx="129.848" cy="177.734" r="55.782" fx="129.848" fy="177.734" gradientTransform="matrix(0 2.31316 -2.29632 0 537.983 -123.337)" gradientUnits="userSpaceOnUse" xlink:href="#innoGrad1"/>
        <radialGradient id="radialGradient1215" cx="127.999" cy="171.553" r="60.893" fx="127.999" fy="171.553" gradientTransform="matrix(0 1 -1.00771 0 300.875 43.554)" gradientUnits="userSpaceOnUse" xlink:href="#innoGrad2"/>
        <linearGradient id="linearGradient1244" x1="191.695" x2="197.612" y1="242.336" y2="254.268" gradientUnits="userSpaceOnUse" xlink:href="#innoGrad3"/>
        <linearGradient id="linearGradient1258" x1="173.962" x2="173.082" y1="239.479" y2="244.177" gradientUnits="userSpaceOnUse" xlink:href="#innoGrad3"/>
        <linearGradient id="linearGradient1266" x1="126.741" x2="128.013" y1="236.306" y2="244.171" gradientUnits="userSpaceOnUse" xlink:href="#innoGrad3"/>
        <linearGradient id="linearGradient1274" x1="73.8" x2="74.373" y1="239.134" y2="247.763" gradientUnits="userSpaceOnUse" xlink:href="#innoGrad3"/>
        <linearGradient id="linearGradient1282" x1="63.737" x2="59.555" y1="240.743" y2="252.632" gradientUnits="userSpaceOnUse" xlink:href="#innoGrad3"/>
        <linearGradient id="linearGradient1290" x1="52.79" x2="47.393" y1="241.359" y2="251.234" gradientUnits="userSpaceOnUse" xlink:href="#innoGrad3"/>
        <linearGradient id="linearGradient1298" x1="218.585" x2="221.499" y1="243.069" y2="247.95" gradientUnits="userSpaceOnUse" xlink:href="#innoGrad3"/>
        <linearGradient id="linearGradient1306" x1="225.625" x2="236.745" y1="238.215" y2="249.006" gradientUnits="userSpaceOnUse" xlink:href="#innoGrad3"/>
        <linearGradient id="linearGradient1314" x1="223.464" x2="225.859" y1="239.34" y2="250.727" gradientUnits="userSpaceOnUse" xlink:href="#innoGrad3"/>
        <linearGradient id="linearGradient1322" x1="227.982" x2="240.406" y1="238.068" y2="239.492" gradientUnits="userSpaceOnUse" xlink:href="#innoGrad3"/>
        <linearGradient id="linearGradient1330" x1="201.644" x2="208.188" y1="245.273" y2="253.89" gradientUnits="userSpaceOnUse" xlink:href="#innoGrad3"/>
        <linearGradient id="linearGradient1338" x1="139.838" x2="146.589" y1="236.745" y2="243.553" gradientUnits="userSpaceOnUse" xlink:href="#innoGrad3"/>
        <linearGradient id="linearGradient1346" x1="110.805" x2="111.266" y1="237.315" y2="245.644" gradientUnits="userSpaceOnUse" xlink:href="#innoGrad3"/>
        <linearGradient id="linearGradient1354" x1="98.556" x2="98.053" y1="236.003" y2="242.331" gradientUnits="userSpaceOnUse" xlink:href="#innoGrad3"/>
        <linearGradient id="linearGradient1362" x1="36.274" x2="31.81" y1="237.317" y2="246.665" gradientUnits="userSpaceOnUse" xlink:href="#innoGrad3"/>
        <linearGradient id="linearGradient1406" x1="28.923" x2="35.501" y1="255.231" y2="237.014" gradientUnits="userSpaceOnUse" xlink:href="#innoGrad1"/>
        <linearGradient id="linearGradient1414" x1="73.788" x2="79.071" y1="255.568" y2="239.912" gradientUnits="userSpaceOnUse" xlink:href="#innoGrad1"/>
        <linearGradient id="linearGradient1422" x1="48.207" x2="58.592" y1="260.101" y2="240.158" gradientUnits="userSpaceOnUse" xlink:href="#innoGrad1"/>
        <linearGradient id="linearGradient1430" x1="199.834" x2="200.031" y1="258.86" y2="246.028" gradientUnits="userSpaceOnUse" xlink:href="#innoGrad1"/>
        <linearGradient id="linearGradient1438" x1="185.275" x2="181.381" y1="256.055" y2="242.803" gradientUnits="userSpaceOnUse" xlink:href="#innoGrad1"/>
        <linearGradient id="linearGradient1446" x1="140.84" x2="138.203" y1="260.282" y2="236.504" gradientUnits="userSpaceOnUse" xlink:href="#innoGrad1"/>
        <linearGradient id="linearGradient1456" x1="114.287" x2="111.716" y1="260.122" y2="237.07" gradientUnits="userSpaceOnUse" xlink:href="#innoGrad1"/>
        <linearGradient id="linearGradient1464" x1="244.885" x2="229.918" y1="256.034" y2="237.242" gradientUnits="userSpaceOnUse" xlink:href="#innoGrad1"/>
        <linearGradient id="linearGradient1482" x1="12.33" x2="240.392" y1="114.615" y2="114.615" gradientUnits="userSpaceOnUse" xlink:href="#innoGrad3"/>
        <linearGradient id="linearGradient1484" x1="168.262" x2="161.636" y1="127.361" y2="112.234" gradientUnits="userSpaceOnUse" xlink:href="#innoGrad3"/>
        <linearGradient id="linearGradient1486" x1="148.478" x2="148.277" y1="128.421" y2="113.615" gradientUnits="userSpaceOnUse" xlink:href="#innoGrad3"/>
        <linearGradient id="linearGradient1488" x1="229.4" x2="236.077" y1="124.97" y2="112.697" gradientUnits="userSpaceOnUse" xlink:href="#innoGrad3"/>
        <linearGradient id="linearGradient1490" x1="42.086" x2="31.547" y1="118.859" y2="100.553" gradientUnits="userSpaceOnUse" xlink:href="#innoGrad3"/>
        <linearGradient id="linearGradient1492" x1="26.296" x2="17.206" y1="122.344" y2="110.276" gradientUnits="userSpaceOnUse" xlink:href="#innoGrad3"/>
        <linearGradient id="linearGradient1494" x1="53.822" x2="52.189" y1="122.479" y2="99.971" gradientUnits="userSpaceOnUse" xlink:href="#innoGrad3"/>
        <linearGradient id="linearGradient1496" x1="81.483" x2="82.29" y1="127.903" y2="110.547" gradientUnits="userSpaceOnUse" xlink:href="#innoGrad3"/>
        <linearGradient id="linearGradient1498" x1="100.194" x2="102.9" y1="127.361" y2="110.005" gradientUnits="userSpaceOnUse" xlink:href="#innoGrad3"/>
        <linearGradient id="linearGradient1500" x1="116.305" x2="116.731" y1="127.575" y2="110.276" gradientUnits="userSpaceOnUse" xlink:href="#innoGrad3"/>
        <linearGradient id="linearGradient1502" x1="127.489" x2="128.405" y1="127.626" y2="115.765" gradientUnits="userSpaceOnUse" xlink:href="#innoGrad3"/>
        <linearGradient id="linearGradient1504" x1="193.349" x2="194.29" y1="122.669" y2="109.327" gradientUnits="userSpaceOnUse" xlink:href="#innoGrad3"/>
        <linearGradient id="linearGradient1506" x1="206.5" x2="204.215" y1="126.818" y2="109.491" gradientUnits="userSpaceOnUse" xlink:href="#innoGrad3"/>
        <linearGradient id="linearGradient1508" x1="218.703" x2="217.884" y1="124.649" y2="109.734" gradientUnits="userSpaceOnUse" xlink:href="#innoGrad3"/>
        <linearGradient id="linearGradient1510" x1="181.55" x2="179.375" y1="123.022" y2="112.988" gradientUnits="userSpaceOnUse" xlink:href="#innoGrad3"/>
        <linearGradient id="linearGradient1512" x1="71.177" x2="72.014" y1="120.039" y2="112.24" gradientUnits="userSpaceOnUse" xlink:href="#innoGrad3"/>
        <linearGradient id="linearGradient1547" x1="160.982" x2="169.441" y1="109.078" y2="127.383" gradientUnits="userSpaceOnUse" xlink:href="#innoGrad1"/>
        <linearGradient id="linearGradient1555" x1="147.144" x2="147.101" y1="101.765" y2="123.596" gradientUnits="userSpaceOnUse" xlink:href="#innoGrad1"/>
        <linearGradient id="linearGradient1563" x1="204.371" x2="202.974" y1="99.752" y2="128.498" gradientUnits="userSpaceOnUse" xlink:href="#innoGrad1"/>
        <linearGradient id="linearGradient1571" x1="93.787" x2="93.881" y1="101.327" y2="127.597" gradientUnits="userSpaceOnUse" xlink:href="#innoGrad1"/>
        <linearGradient id="linearGradient1579" x1="51.4" x2="49.345" y1="90.775" y2="121.073" gradientUnits="userSpaceOnUse" xlink:href="#innoGrad1"/>
        <linearGradient id="linearGradient1605" x1="50.297" x2="50.297" y1="21.887" y2="117.928" gradientUnits="userSpaceOnUse" xlink:href="#innoGrad4"/>
        <linearGradient id="linearGradient1607" x1="50.297" x2="40.88" y1="21.887" y2="116.887" gradientUnits="userSpaceOnUse" xlink:href="#innoGrad1"/>
        <linearGradient id="linearGradient1656" x1="1.589" x2="44.646" y1="91.053" y2="28.315" gradientUnits="userSpaceOnUse" xlink:href="#innoGrad1"/>
        <linearGradient id="linearGradient1664" x1="17.089" x2="46.67" y1="32.858" y2="24.995" gradientUnits="userSpaceOnUse" xlink:href="#innoGrad4"/>
        <linearGradient id="linearGradient1672" x1="17.589" x2="50.59" y1="33.428" y2="24.996" gradientUnits="userSpaceOnUse" xlink:href="#innoGrad4"/>
        <linearGradient id="linearGradient1680" x1="22.34" x2="44.188" y1="63.303" y2="72.915" gradientUnits="userSpaceOnUse" xlink:href="#innoGrad4"/>
        <linearGradient id="linearGradient1696" x1="22.34" x2="41.525" y1="63.303" y2="27.557" gradientUnits="userSpaceOnUse" xlink:href="#innoGrad1"/>
        <linearGradient id="linearGradient1712" x1="44.061" x2=".522" y1="30.437" y2="136.574" gradientUnits="userSpaceOnUse" xlink:href="#innoGrad5"/>
        <linearGradient id="linearGradient1732" x1="6.786" x2="16.787" y1="51.304" y2="51.304" gradientUnits="userSpaceOnUse" xlink:href="#innoGrad1"/>
        <linearGradient id="linearGradient1784" x1="205.69" x2="201.773" y1="21.887" y2="116.886" gradientUnits="userSpaceOnUse" xlink:href="#innoGrad4"/>
        <linearGradient id="linearGradient1792" x1="215.12" x2="205.689" y1="116.886" y2="21.886" gradientUnits="userSpaceOnUse" xlink:href="#innoGrad1"/>
        <linearGradient id="linearGradient1800" x1="254.398" x2="211.341" y1="91.053" y2="28.316" gradientUnits="userSpaceOnUse" xlink:href="#innoGrad4"/>
        <linearGradient id="linearGradient1808" x1="207.148" x2="205.98" y1="27.944" y2="61.627" gradientUnits="userSpaceOnUse" xlink:href="#innoGrad4"/>
        <linearGradient id="linearGradient1816" x1="210.94" x2="205.98" y1="21.887" y2="61.627" gradientUnits="userSpaceOnUse" xlink:href="#innoGrad4"/>
        <linearGradient id="linearGradient1824" x1="211.417" x2="225.783" y1="53.649" y2="48.225" gradientUnits="userSpaceOnUse" xlink:href="#innoGrad4"/>
        <linearGradient id="linearGradient1832" x1="224.773" x2="211.341" y1="98.12" y2="28.316" gradientUnits="userSpaceOnUse" xlink:href="#innoGrad1"/>
        <linearGradient id="linearGradient1840" x1="-167.866" x2="-157.866" y1="135.842" y2="135.842" gradientUnits="userSpaceOnUse" xlink:href="#innoGrad1"/>
    </defs>
    <g stroke-width="1.073" transform="matrix(.93214 0 0 .93213 8.685 -1.732)">
        <path fill="#f55" d="M54.214 116.886s0-77.833-3.917-95h-5.25c4.475 16.166 2.417 95 2.417 95z"/>
        <path fill="url(#linearGradient1605)" stroke="#000000" stroke-linejoin="round" stroke-miterlimit="10" d="M54.214 116.886s0-77.833-3.917-95h-5.25c4.475 16.166 2.417 95 2.417 95z"/>
        <path fill="#ff8080" d="M33.554 119.408s.16-61.856 11.493-97.521h5.25c-10.087 38.833-9.417 95-9.417 95z"/>
        <path fill="url(#linearGradient1607)" stroke="#000000" stroke-linejoin="round" stroke-miterlimit="10" d="M33.554 119.408s.16-61.856 11.493-97.521h5.25c-10.087 38.833-9.417 95-9.417 95z"/>
        <path fill="#ff8080" d="M1.589 91.053c0 1 3.625 7.25 6.125 5.625 1.275-.829 4.669-9.577 9.875-16.125 5.004-6.292 11.82-10.361 13.236-12.75 2.889-4.875 15.889-39.459 15.264-41.417-.397-1.245-7.468 9.784-13.357 21.831-3.375 6.901-5.134 14.84-8.143 19.211-3.494 5.076-9.043 8.285-13.25 12.375-5.738 5.58-9.75 11.25-9.75 11.25z"/>
        <path fill="url(#linearGradient1656)" stroke="#000000" stroke-linejoin="round" stroke-miterlimit="10" d="M1.589 91.053c0 1 3.625 7.25 6.125 5.625 1.275-.829 4.669-9.577 9.875-16.125 5.004-6.292 11.82-10.361 13.236-12.75 2.889-4.875 15.889-39.459 15.264-41.417-.397-1.245-7.468 9.784-13.357 21.831-3.375 6.901-5.134 14.84-8.143 19.211-3.494 5.076-9.043 8.285-13.25 12.375-5.738 5.58-9.75 11.25-9.75 11.25z"/>
        <path fill="#ff8080" d="M41.525 27.557s-1.287 6.174-9.227 7.412c-7.94 1.238-14.709-1.541-14.709-1.541l2.438 3.5s5.096 2.498 13.178.375 10.856-6.866 10.856-6.866z"/>
        <path fill="url(#linearGradient1664)" stroke="#000000" stroke-linejoin="round" stroke-miterlimit="10" d="M41.525 27.557s-1.287 6.174-9.227 7.412c-7.94 1.238-14.709-1.541-14.709-1.541l2.438 3.5s5.096 2.498 13.178.375 10.856-6.866 10.856-6.866z"/>
        <path fill="#ff8080" d="M37.339 13.053c10.625 0 14.524 11.968 12.006 11.13l-3.131-1.887c-1.84-1.701-5.497-6.144-10-5.243-7.083 1.416-13.582 19.388-16.188 19.875-.988.185-2.438-2.459-2.438-3.5.001-2.427 14.46-20.375 19.751-20.375z"/>
        <path fill="url(#linearGradient1672)" stroke="#000000" stroke-linejoin="round" stroke-miterlimit="10" d="M37.339 13.053c10.625 0 14.524 11.968 12.006 11.13l-3.131-1.887c-1.84-1.701-5.497-6.144-10-5.243-7.083 1.416-13.582 19.388-16.188 19.875-.988.185-2.438-2.459-2.438-3.5.001-2.427 14.46-20.375 19.751-20.375z"/>
        <path fill="#ff8080" d="M32.056 49.265l-3.945 6.347-5.771 7.691s2.875 15 6.375 17.75 15.068-5.625 15.347-7.5c.279-1.875-6.94 5.107-10.38 2-13.468-12.164-1.626-26.288-1.626-26.288z"/>
        <path fill="url(#linearGradient1680)" stroke="#000000" stroke-linejoin="round" stroke-miterlimit="10" d="M32.056 49.265l-3.945 6.347-5.771 7.691s2.875 15 6.375 17.75 15.068-5.625 15.347-7.5c.279-1.875-6.94 5.107-10.38 2-13.468-12.164-1.626-26.288-1.626-26.288z"/>
        <path fill="#ff8080" d="M42.23 24.87S20.927 58.503 22.339 63.303c.625 2.125 22.75-35.746 22.75-35.746z"/>
        <path fill="url(#linearGradient1696)" stroke="#000000" stroke-linejoin="round" stroke-miterlimit="10" d="M42.23 24.87S20.927 58.503 22.339 63.303c.625 2.125 22.75-35.746 22.75-35.746z"/>
        <path fill="#ff8080" d="M46.714 27.557s4.044 40.371-.604 47.246c-2.184 3.231-9.502 17.32-19.271 31.375-12.25 17.625-16.261 37.124-18.375 37.75-1.5.444-7.125-4.625-7.625-7.5-.3-1.723 15.925-21.989 27.625-41.125 7.824-12.798 12.484-26.41 13.047-28.75 2.558-10.625 3.135-38.238 3.135-38.238z"/>
        <path fill="url(#linearGradient1712)" stroke="#000000" stroke-linejoin="round" stroke-miterlimit="10" d="M46.714 27.557s4.044 40.371-.604 47.246c-2.184 3.231-9.502 17.32-19.271 31.375-12.25 17.625-16.261 37.124-18.375 37.75-1.5.444-7.125-4.625-7.625-7.5-.3-1.723 15.925-21.989 27.625-41.125 7.824-12.798 12.484-26.41 13.047-28.75 2.558-10.625 3.135-38.238 3.135-38.238z"/>
        <ellipse cx="45.548" cy="26.386" fill="#ff8080" rx="4.5" ry="3.583" transform="rotate(-46.976 45.55 26.385)"/>
        <ellipse cx="11.786" cy="51.304" fill="url(#linearGradient1732)" stroke="#000000" stroke-linejoin="round" stroke-miterlimit="10" rx="4.5" ry="3.583" transform="rotate(-46.977)"/>
    </g>
    <g stroke-width="1.073" transform="matrix(.93214 0 0 .93213 8.685 -1.732)">
        <path fill="#f55" d="M201.773 116.886s0-77.833 3.916-95h5.25c-4.475 16.166-2.416 95-2.416 95z"/>
        <path fill="url(#linearGradient1784)" stroke="#000000" stroke-linejoin="round" stroke-miterlimit="10" d="M201.773 116.886s0-77.833 3.916-95h5.25c-4.475 16.166-2.416 95-2.416 95z"/>
        <path fill="#ff8080" d="M222.434 119.408s-.16-61.856-11.494-97.521h-5.25c10.088 38.833 9.418 95 9.418 95z"/>
        <path fill="url(#linearGradient1792)" stroke="#000000" stroke-linejoin="round" stroke-miterlimit="10" d="M222.434 119.408s-.16-61.856-11.494-97.521h-5.25c10.088 38.833 9.418 95 9.418 95z"/>
        <path fill="#ff8080" d="M254.398 91.053c0 1-3.625 7.25-6.125 5.625-1.275-.829-4.67-9.577-9.875-16.125-5.004-6.292-11.82-10.361-13.236-12.75-2.889-4.875-15.889-39.459-15.264-41.417.396-1.245 7.467 9.784 13.357 21.831 3.375 6.901 5.133 14.84 8.143 19.211 3.494 5.076 9.043 8.285 13.25 12.375 5.739 5.58 9.75 11.25 9.75 11.25z"/>
        <path fill="url(#linearGradient1800)" stroke="#000000" stroke-linejoin="round" stroke-miterlimit="10" d="M254.398 91.053c0 1-3.625 7.25-6.125 5.625-1.275-.829-4.67-9.577-9.875-16.125-5.004-6.292-11.82-10.361-13.236-12.75-2.889-4.875-15.889-39.459-15.264-41.417.396-1.245 7.467 9.784 13.357 21.831 3.375 6.901 5.133 14.84 8.143 19.211 3.494 5.076 9.043 8.285 13.25 12.375 5.739 5.58 9.75 11.25 9.75 11.25z"/>
        <path fill="#ff8080" d="M207.148 27.944s-4.963 5.079-4.684 13.109c.279 8.031 7.412 23.333 7.412 23.333l-3.896-2.759s-7.205-13.237-6.641-21.575c.563-8.337 7.018-15.509 7.018-15.509z"/>
        <path fill="url(#linearGradient1808)" stroke="#000000" stroke-linejoin="round" stroke-miterlimit="10" d="M207.148 27.944s-4.963 5.079-4.684 13.109c.279 8.031 7.412 23.333 7.412 23.333l-3.896-2.759s-7.205-13.237-6.641-21.575c.563-8.337 7.018-15.509 7.018-15.509z"/>
        <path fill="#ff8080" d="M219.215 33.803c-2-10.436-8.594-13.111-7.297-10.796l2.557 3.006c2.018 1.487 1.379 6.073 1.342 10.665-.023 2.829.08 9.48-1.756 13.5-2.85 6.245-8.088 9.837-8.08 11.45.004 1.005 2.873 1.932 3.896 1.735 1.156-.221 5.125-5.357 7.244-11.81 2.248-6.837 2.606-15.077 2.094-17.75z"/>
        <path fill="url(#linearGradient1816)" stroke="#000000" stroke-linejoin="round" stroke-miterlimit="10" d="M219.215 33.803c-2-10.436-8.594-13.111-7.297-10.796l2.557 3.006c2.018 1.487 1.379 6.073 1.342 10.665-.023 2.829.08 9.48-1.756 13.5-2.85 6.245-8.088 9.837-8.08 11.45.004 1.005 2.873 1.932 3.896 1.735 1.156-.221 5.125-5.357 7.244-11.81 2.248-6.837 2.606-15.077 2.094-17.75z"/>
        <path fill="#ff8080" d="M213.049 30.024l1.418-2.467s21.709 30.329 11.186 50.996c-2.02 3.966-13.447-3.125-13.727-5-.277-1.875 6.941 5.107 10.381 2 13.466-12.164-9.258-45.529-9.258-45.529z"/>
        <path fill="url(#linearGradient1824)" stroke="#000000" stroke-linejoin="round" stroke-miterlimit="10" d="M213.049 30.024l1.418-2.467s21.709 30.329 11.186 50.996c-2.02 3.966-13.447-3.125-13.727-5-.277-1.875 6.941 5.107 10.381 2 13.466-12.164-9.258-45.529-9.258-45.529z"/>
        <path fill="#ff8080" d="M209.273 27.557s.23 36.206 1.625 43.746c1.109 6 9.293 30.49 11.408 31.117 1.5.443 2.158-.676 2.658-3.551.299-1.723-10.342-27.142-10.904-29.481-2.557-10.625-2.719-41.072-2.719-41.072z"/>
        <path fill="url(#linearGradient1832)" stroke="#000000" stroke-linejoin="round" stroke-miterlimit="10" d="M209.273 27.557s.23 36.206 1.625 43.746c1.109 6 9.293 30.49 11.408 31.117 1.5.443 2.158-.676 2.658-3.551.299-1.723-10.342-27.142-10.904-29.481-2.557-10.625-2.719-41.072-2.719-41.072z"/>
        <ellipse cx="210.439" cy="26.386" fill="#ff8080" rx="4.5" ry="3.583" transform="rotate(-133.024 210.436 26.387)"/>
        <ellipse cx="-162.866" cy="135.842" fill="url(#linearGradient1840)" stroke="#000000" stroke-linejoin="round" stroke-miterlimit="10" rx="4.5" ry="3.583" transform="rotate(-133.023)"/>
    </g>
    <g stroke-width="1.073">
        <path fill="#f55" d="M61.638 116.58h148.145v87.48H61.638z"/>
        <path fill="url(#radialGradient1139)" d="M56.808 126.927h158.93v93.849H56.808z" transform="matrix(.93214 0 0 .93213 8.685 -1.732)"/>
        <path fill="#ff8080" d="M43.241 227.82l-10.74-7.5c-40.295-27.03-26.568-70.644-11.343-92.126 3.78-5.332 3.824-11.737 6.682-14.448l18.952-6.525h162.415l18.954 6.525c2.858 2.711 2.902 9.116 6.682 14.448 15.223 21.482 28.951 65.097-11.343 92.126l-10.74 7.5zm124.885-69.643c-4.927-15.846-16.756-29.129-17.212-29.129-1.626-.002-4.111 15.614-6.441 13.75-2.33-1.865-30.795-1.865-33.125 0-2.33 1.864-4.815-13.752-6.44-13.75-.457 0-13.95 13.75-17.212 29.13-1.976 9.322 9.619 32.023 40.214 31.692 30.596-.331 43.045-22.594 40.216-31.693z"/>
        <path fill="url(#linearGradient1162)" d="M147.316 202.089c-5.49 2.074-11.941 3.383-19.412 3.464-7.594.082-14.084-1.169-19.568-3.249l-71.265 43.963H218.93z" transform="matrix(.93214 0 0 .93213 8.685 -1.732)"/>
        <path fill="url(#linearGradient1164)" d="M103.228 140.303c1.743-.003 4.409 16.75 6.909 14.75s33.036-2 35.536 0 5.166-14.753 6.91-14.75c.427 0 10.087 10.79 16.071 24.791l66.799-41.208-20.334-7H40.88l-20.332 7 66.266 40.879c5.231-13.55 15.992-24.462 16.414-24.462z" transform="matrix(.93214 0 0 .93213 8.685 -1.732)"/>
        <path fill="url(#radialGradient1182)" d="M84.763 171.553c.49-2.31 1.2-4.582 2.051-6.787l-66.266-40.879c-3.066 2.909-3.113 9.78-7.168 15.5-16.333 23.047-31.06 69.837 12.168 98.834l11.523 8.047 71.265-43.963c-18.217-6.909-25.203-23.066-23.573-30.752z" transform="matrix(.93214 0 0 .93213 8.685 -1.732)"/>
        <path fill="url(#radialGradient1190)" d="M242.621 139.386c-4.055-5.72-4.102-12.591-7.168-15.5l-66.799 41.208a67.417 67.417 0 0 1 2.394 6.459c2.345 7.54-5.101 23.495-23.731 30.536l71.613 44.178 11.523-8.047c43.227-28.997 28.5-75.787 12.168-98.834z" transform="matrix(.93214 0 0 .93213 8.685 -1.732)"/>
        <path fill="#ffb380" d="M172.031 162.996a33.476 33.476 0 0 1-1.979 7.517c2.06 1.104 10.176 5.54 9.697 6.657-.455 1.06-8.445-2.3-11.14-3.472-5.433 10.484-17.49 20.077-40.61 20.056-23.107-.02-35.162-9.597-40.6-20.06-2.685 1.166-10.695 4.536-11.15 3.476-.48-1.117 7.655-5.562 9.703-6.66-1-2.545-1.64-5.09-1.985-7.515-2.706-.106-12.357-.564-12.263-1.756.093-1.177 9.216-1.64 11.962-1.752-.06-2.16.118-4.158.484-5.887-2.674-1.261-11.575-5.552-11.048-6.61.528-1.055 9.495 2.264 12.173 3.284 1.81-2.933 17.119-27.674 18.86-27.673 3.535 0 9.476 15.69 11.186 15.069 1.71-.622 23.646-.622 25.356 0 1.71.621 7.65-15.07 11.186-15.07 1.74 0 17.05 24.741 18.859 27.674 2.678-1.02 11.644-4.34 12.173-3.283.527 1.057-8.375 5.348-11.048 6.609.364 1.729.544 3.726.485 5.887 2.745.113 11.868.575 11.96 1.752.094 1.19-9.55 1.65-12.26 1.757zm-3.905-4.819c-4.927-15.846-16.756-29.129-17.212-29.129-1.626-.002-4.111 15.614-6.441 13.75-2.33-1.865-30.795-1.865-33.125 0-2.33 1.864-4.815-13.752-6.44-13.75-.457 0-13.95 13.75-17.212 29.13-1.976 9.322 9.619 32.023 40.214 31.692 30.596-.331 43.045-22.594 40.216-31.693z"/>
        <path fill="url(#radialGradient1215)" stroke="#000000" stroke-miterlimit="10" d="M175.238 176.722a35.914 35.914 0 0 1-2.123 8.065c2.209 1.184 10.916 5.943 10.402 7.141-.488 1.137-9.059-2.468-11.951-3.724-5.828 11.247-18.762 21.538-43.566 21.516-24.789-.022-37.722-10.296-43.555-21.521-2.881 1.251-11.474 4.867-11.963 3.729-.514-1.198 8.213-5.967 10.41-7.145a35.915 35.915 0 0 1-2.129-8.062c-2.904-.113-13.257-.605-13.156-1.884.1-1.262 9.887-1.758 12.833-1.879-.065-2.318.126-4.461.519-6.316-2.869-1.353-12.418-5.956-11.852-7.09.566-1.133 10.186 2.428 13.059 3.522 1.941-3.146 18.365-29.689 20.232-29.688 3.793 0 10.167 16.833 12.001 16.166 1.834-.667 25.368-.667 27.202 0 1.834.667 8.207-16.166 12-16.166 1.867-.001 18.291 26.542 20.232 29.688 2.873-1.095 12.492-4.655 13.059-3.522.566 1.134-8.984 5.738-11.852 7.09.391 1.855.584 3.998.52 6.316 2.945.121 12.732.617 12.832 1.879.1 1.278-10.246 1.771-13.154 1.885zm-4.19-5.169c-5.285-17-17.975-31.25-18.465-31.25-1.744-.003-4.41 16.75-6.91 14.75s-33.036-2-35.536 0-5.166-14.753-6.909-14.75c-.49 0-14.966 14.75-18.465 31.25-2.12 10.001 10.319 34.355 43.142 34 32.823-.355 46.178-24.239 43.143-34z" transform="matrix(.93214 0 0 .93213 8.685 -1.732)"/>
        <path fill="none" stroke="#000000" stroke-miterlimit="10" d="M37.072 246.267l-11.523-8.047c-43.228-28.997-28.501-75.787-12.168-98.834 4.055-5.72 4.102-12.591 7.168-15.5l20.332-7H215.12l20.334 7c3.066 2.909 3.113 9.78 7.168 15.5 16.332 23.047 31.059 69.837-12.168 98.834l-11.523 8.047z" transform="matrix(.93214 0 0 .93213 8.685 -1.732)"/>
    </g>
    <g stroke-width="1.073">
        <path fill="#f55" stroke="#000000" stroke-miterlimit="10" d="M39.381 251.1l-1 5.333s-6.324-.23-6.62-1.907c-.297-1.677 7.62-3.426 7.62-3.426z" transform="matrix(.93214 0 0 .93213 8.685 -1.732)"/>
        <path fill="#ff8080" d="M45.394 232.749c-.156-.31-6.525 3.417-9.322 3.883-2.796.466-8.545-5.281-10.098-7.146-1.554-1.864 8.7-10.098 8.7-10.098s3.729-.312 7.147 0c3.417.311 7.301 2.33 9.787 3.573 0 0-1.695 1.414-3.884 4.86-2.189 3.446-2.33 4.928-2.33 4.928z"/>
        <path fill="url(#linearGradient1406)" d="M39.381 251.554c-.167-.333-7 3.666-10 4.166-3 .5-9.167-5.666-10.833-7.666-1.667-2 9.333-10.834 9.333-10.834s4-.334 7.667 0c3.666.334 7.833 2.5 10.5 3.834 0 0-1.819 1.516-4.167 5.213s-2.5 5.287-2.5 5.287z" transform="matrix(.93214 0 0 .93213 8.685 -1.732)"/>
        <path fill="#f55" stroke="#000000" stroke-linejoin="round" stroke-miterlimit="10" d="M66.603 257.021s-.514 4.309-1.139 4.656c-.625.347-5.801-.541-6.838-2.646s7.977-2.01 7.977-2.01z" transform="matrix(.93214 0 0 .93213 8.685 -1.732)"/>
        <path fill="#ff8080" d="M84.388 232.283c-1.215-.81 1.855-5.573 4.616-9.135-3.207-.936-8.38-1.947-11.607-2.05-4.816-.156-15.705 18.42-14.064 18.622 1.64.202 8.782-2.777 13.56-3.088 4.777-.311 9.36 3.884 11.069 2.952.865-.472 1.968-4.128 2.787-7.745-2.91-1.134-5.429 1.065-6.361.444z"/>
        <path fill="url(#linearGradient1414)" d="M81.214 251.054c-1.303-.868 1.99-5.978 4.952-9.8-3.44-1.004-8.989-2.089-12.452-2.2-5.166-.166-16.848 19.762-15.088 19.979 1.76.217 9.422-2.979 14.547-3.313 5.125-.334 10.041 4.167 11.875 3.167.928-.506 2.112-4.429 2.99-8.309-3.122-1.217-5.824 1.142-6.824.476z" transform="matrix(.93214 0 0 .93213 8.685 -1.732)"/>
        <path fill="#ff8080" d="M74.025 222.873c-3.593.1-8.189.082-10.298-.533-3.729-1.087-9.633 1.865-12.118.621 0 0-1.695 1.414-3.884 4.86-2.189 3.446-2.33 4.928-2.33 4.928.155.31-1.554 4.35-.933 4.97.53.53 9.408 5.847 18.846 1.018.922-2.987 6.368-12.01 10.717-15.864z"/>
        <path fill="url(#linearGradient1422)" d="M70.097 240.959c-3.855.107-8.785.088-11.048-.572-4-1.166-10.334 2.001-13 .667 0 0-1.819 1.516-4.167 5.213s-2.5 5.287-2.5 5.287c.167.333-1.667 4.666-1 5.333.568.568 10.092 6.272 20.218 1.091.989-3.204 6.831-12.885 11.497-17.019z" transform="matrix(.93214 0 0 .93213 8.685 -1.732)"/>
        <path fill="#f55" stroke="#000000" stroke-linejoin="round" stroke-miterlimit="10" d="M81.214 251.054c-.75 2.249 3.834 7.833 3.834 7.833l2.99-8.309c.001 0-6.073-1.773-6.824.476zM190.57 259.509v0c-1.048-.422-3.199-3.945-6.773-3.706-.889.06-1.918.926-3.06 2.011l5.396 5.906c-.168-.5 4.437-4.211 4.437-4.211z" transform="matrix(.93214 0 0 .93213 8.685 -1.732)"/>
        <path fill="#f55" stroke="#000000" stroke-miterlimit="10" d="M222.633 254.553c-.245.053-.583.39-1.009.885l-.001.001s.422 7.695 3.01 7.031c-3.5-.584 2.25-8.167 2.25-8.167-.584.333-3.084 0-4.25.25z" transform="matrix(.93214 0 0 .93213 8.685 -1.732)"/>
        <path fill="#ff8080" d="M209.064 226.067c-2.408-.543-11.397-.27-12.717 1.361-.6.74-2.958-2.63-6.626-3.07-4.419-.529-9.66 1.096-10.309 2.11l-.005.01c1.123 1.729 1.84 3.847 2.856 5.494 2.683 4.344 4.933 7.702 4.427 8.156-.1.09-.224.094-.369.036h.001s-4.292 3.46-4.137 3.926c.078.233 2.097 2.33 5.593 1.087 3.64-1.295 4.04-5.359 5.748-5.204 3.419.31 7.923 4.039 13.283 2.952 5.36-1.087 8.31-7.147 9.4-7.38 1.086-.233 3.417.078 3.96-.233.545-.31-8.696-8.701-11.105-9.245z"/>
        <path fill="url(#linearGradient1430)" d="M214.967 244.386c-2.584-.583-12.227-.29-13.643 1.46-.643.793-3.174-2.821-7.109-3.293-4.74-.568-10.363 1.175-11.059 2.262l-.005.012c1.204 1.854 1.973 4.127 3.063 5.894 2.879 4.66 5.293 8.262 4.75 8.75-.107.097-.24.1-.396.038l.001.001s-4.605 3.711-4.438 4.211c.084.25 2.25 2.5 6 1.166 3.904-1.389 4.334-5.749 6.166-5.583 3.668.333 8.5 4.333 14.25 3.167 5.75-1.166 8.916-7.667 10.084-7.917 1.166-.25 3.666.083 4.25-.25.584-.333-9.33-9.335-11.914-9.918z" transform="matrix(.93214 0 0 .93213 8.685 -1.732)"/>
        <path fill="#ff8080" d="M182.263 231.971c-1.438-2.328-2.257-5.618-4.505-7.38-6.449-5.049-18.177-2.018-18.177-2.018 4.42 1.487 9.321 4.893 9.321 4.893.187.436.089 3.545-1.759 6.208l.004-.001s-2.606 4.513-4.421 6.406v.007s3.768 2.838 7.73 2.838c3.884 0 7.225-6.059 9.554-6.215 3.826-.255 5.904 4.118 6.681 3.419.506-.456-1.744-3.813-4.428-8.157z"/>
        <path fill="url(#linearGradient1438)" d="M186.215 250.72c-1.543-2.498-2.422-6.027-4.834-7.917-6.918-5.417-19.5-2.166-19.5-2.166 4.742 1.596 10 5.25 10 5.25.2.467.095 3.803-1.887 6.66l.004-.002s-2.796 4.842-4.743 6.873l.001.007s4.041 3.045 8.291 3.045c4.168 0 7.752-6.5 10.25-6.667 4.105-.274 6.334 4.417 7.168 3.667.543-.489-1.871-4.09-4.75-8.75z" transform="matrix(.93214 0 0 .93213 8.685 -1.732)"/>
        <path fill="#f55" stroke="#000000" stroke-miterlimit="10" d="M161.342 257.557s1.039 2.497 2.539 2.746c1.5.249 6.117-7.758 6.117-7.758z" transform="matrix(.93214 0 0 .93213 8.685 -1.732)"/>
        <path fill="#ff8080" d="M168.902 227.466s-4.901-3.406-9.321-4.893c-4.07-1.371-7.669-.824-8.078-1.01-.856-.388-1.165-1.165-6.603-2.486-5.437-1.32-3.807 1.709-7.536-.388-3.728-2.098-17.237 2.088-17.237 2.088l.001.005c2.013 1.756 4.217 4.407 6.038 8.516.967 2.181 2.807 6.608 2.807 6.608.55 1.148-.423 3.057-.973 3.824-.847 1.18-1.639 1.856-1.645 1.862.077.09.149.15.213.168 1.476.387 11.273-.414 13.06-.95 1.785-.534 3.562-5.653 8.845-5.264 3.261.24 1.087 3.806 4.738 3.729 1.826-.04 8.671-.921 12.196-3.729 3.524-2.807 3.728-7.535 3.495-8.08z"/>
        <path fill="url(#linearGradient1446)" d="M171.881 245.887s-5.258-3.654-10-5.25c-4.367-1.471-8.227-.884-8.666-1.083-.918-.416-1.25-1.25-7.084-2.667-5.832-1.417-4.084 1.833-8.084-.417s-18.492 2.241-18.492 2.241l.001.005c2.16 1.884 4.524 4.728 6.478 9.136 1.037 2.34 3.011 7.089 3.011 7.089.59 1.232-.454 3.28-1.044 4.103-.909 1.266-1.758 1.991-1.765 1.997.083.097.16.161.229.18 1.583.416 12.094-.444 14.01-1.018 1.916-.574 3.822-6.065 9.49-5.648 3.498.258 1.166 4.083 5.082 4 1.959-.042 9.303-.988 13.084-4 3.781-3.011 4-8.084 3.75-8.668z" transform="matrix(.93214 0 0 .93213 8.685 -1.732)"/>
        <path fill="#f55" stroke="#000000" stroke-miterlimit="10" d="M122.699 255.939s.723 2.064 1.682 3.447 1.854 1.654 1.854 1.654.854-.728 1.766-1.998c.591-.822 1.634-2.87 1.044-4.103-1.498-3.134-6.346 1-6.346 1z" transform="matrix(.93214 0 0 .93213 8.685 -1.732)"/>
        <path fill="#ff8080" d="M92.467 219.249c-1.709 1.225-9.943 11.79-8.08 13.033.933.62 3.45-1.577 6.362-.444 2.915 1.136 6.222 5.603 8.243 6.006 4.039.806 8.233-1.835 10.72-1.524 2.485.31 2.641 4.194 5.748 4.194s6.935-4.296 10.64-4.742c1.899-.229 2.873.132 2.873.132s-1.84-4.427-2.807-6.608c-2.11-4.758-4.732-7.569-6.977-9.289-.992-.76-6.369-.76-6.369-.76-1.637.847-5.366-.732-9.439-1.066-4.818-.391-9.988.403-10.914 1.068z"/>
        <path fill="url(#linearGradient1456)" d="M89.881 237.071c-1.833 1.315-10.667 12.649-8.667 13.982 1 .666 3.701-1.692 6.824-.476 3.127 1.219 6.675 6.011 8.843 6.443 4.333.865 8.833-1.968 11.5-1.635 2.667.333 2.834 4.5 6.167 4.5 3.333 0 7.44-4.609 11.415-5.088 2.037-.245 3.082.142 3.082.142s-1.974-4.749-3.011-7.089c-2.263-5.105-5.077-8.12-7.485-9.965-1.064-.815-6.833-.815-6.833-.815-1.756.908-5.757-.786-10.126-1.144-5.169-.42-10.715.432-11.709 1.145z" transform="matrix(.93214 0 0 .93213 8.685 -1.732)"/>
        <path fill="#ff8080" d="M231.356 227.466c-.778-1.32 2.95-3.418 2.874-5.903-.078-2.485-7.018-3.896-7.018-3.896s-1.243.36-4.05 1.798c-2.808 1.437-5.594.7-7.341 2.913-1.748 2.214-6.036 3.974-6.038 3.974 3.134 1.576 10.888 8.675 10.389 8.96 0 0-5.36 7.068-2.098 7.612 3.263.544 7.458-6.059 9.089-5.633 1.631.426-2.552 2.148.544 3.224 1.608.56 6.833-1.553 10.157-4.092 2.627-2.005-5.731-7.637-6.508-8.957z"/>
        <path fill="url(#linearGradient1464)" d="M238.881 245.887c-.834-1.416 3.166-3.667 3.084-6.333-.084-2.666-7.529-4.18-7.529-4.18s-1.334.387-4.346 1.929-6 .75-7.875 3.125-6.475 4.263-6.477 4.264c3.362 1.69 11.681 9.306 11.145 9.611 0 0-5.75 7.583-2.25 8.167 3.5.584 8-6.5 9.75-6.043 1.75.457-2.738 2.304.584 3.459 1.725.6 7.33-1.666 10.896-4.39 2.819-2.151-6.148-8.193-6.982-9.609z" transform="matrix(.93214 0 0 .93213 8.685 -1.732)"/>
        <g>
            <path fill="url(#linearGradient1362)" d="M40.635 248.396c.325-.612.733-1.32 1.246-2.129 2.348-3.697 4.167-5.213 4.167-5.213-2.667-1.334-6.834-3.5-10.5-3.834-3.667-.334-7.667 0-7.667 0s-5.079 4.079-7.811 7.321c0 0 4.976-3.544 12.989-2.041 8.013 1.503 7.576 5.896 7.576 5.896z" transform="matrix(.93214 0 0 .93213 8.685 -1.732)"/>
            <path fill="url(#linearGradient1354)" d="M110.805 237.314c-2.025.197-5.486-1.082-9.215-1.387-5.168-.422-10.715.431-11.708 1.144-.855.613-3.233 3.406-5.324 6.348 0 0 4.712-5.534 14.942-4.537 8.576.836 8.628 7.088 8.628 7.088s-.33-2 .67-4.997 2.007-3.663 2.007-3.663" transform="matrix(.93214 0 0 .93213 8.685 -1.732)"/>
            <path fill="url(#linearGradient1346)" d="M108.128 245.97s-.33-2 .67-4.997 2.007-3.663 2.007-3.663v.005a2.49 2.49 0 0 0 .911-.243s5.769 0 6.833.815c1.763 1.35 3.743 3.326 5.565 6.291 0 0-2.782-4.715-8.676-4.054-5.894.661-7.31 5.846-7.31 5.846z" transform="matrix(.93214 0 0 .93213 8.685 -1.732)"/>
            <path fill="url(#linearGradient1338)" d="M146.59 243.553s-2.629-3.091-5.25-4.791c-2.621-1.7-5.625-2.879-5.625-2.88.947.076 1.75.261 2.332.588 4 2.25 2.252-1 8.084.417 5.834 1.417 6.166 2.251 7.084 2.667.439.199 4.299-.388 8.666 1.083 1.011.34 2.045.773 3.047 1.245 0 0-.969-.912-8.213-1.049-.988-.019-2.539.869-3.799.667-2.205-.353-4.139-1.843-5.041-1.614-2.362.598-1.285 3.667-1.285 3.667z" transform="matrix(.93214 0 0 .93213 8.685 -1.732)"/>
            <path fill="url(#linearGradient1330)" d="M208.188 253.89l-2.875-3.96c-1.742-2.399-5.025-4.333-5.025-4.333l.003.004c.498.332.847.477 1.034.245 1.416-1.75 11.059-2.043 13.643-1.46 1.363.308 4.771 2.961 7.598 5.446 0 0-5.83-5.449-12.002-3.707-6.172 1.742-2.376 7.765-2.376 7.765z" transform="matrix(.93214 0 0 .93213 8.685 -1.732)"/>
            <path fill="url(#linearGradient1322)" d="M241.965 251.069s-3.084-5.183-6.352-7.517c-3.27-2.334-8.707-5.239-8.707-5.239l-.212.045c1.088-.216 2.24-.464 3.396-1.056 3.012-1.542 4.346-1.929 4.346-1.929s5.518 1.121 7.106 3.134c0 0-7.282-4.366-8.604.117-.64 2.17 2.669 3.061 5 5.563 2.486 2.669 4.027 6.882 4.027 6.882z" transform="matrix(.93214 0 0 .93213 8.685 -1.732)"/>
            <path fill="url(#linearGradient1314)" d="M231.215 251.428s.063-2.178-1.375-6.557c-1.439-4.379-4.48-6.233-4.48-6.233v-.002c-.679.161-1.316.365-1.896.704l.002.003s-.93 1.877-.93 4.405c0 2.528.93 4.406.93 4.406s-.805-6.011 2.563-6.467c3.368-.456 5.186 9.741 5.186 9.741z" transform="matrix(.93214 0 0 .93213 8.685 -1.732)"/>
            <path fill="url(#linearGradient1306)" d="M241.965 251.069s-3.084-5.183-6.352-7.517c-3.27-2.334-8.707-5.239-8.707-5.239l-.212.045c-.458.091-.904.175-1.335.277v.002s3.041 1.854 4.48 6.233c1.438 4.379 1.375 6.557 1.375 6.557s-1.109-7.008 1.848-7.678c3.313-.749 8.903 7.32 8.903 7.32z" transform="matrix(.93214 0 0 .93213 8.685 -1.732)"/>
            <path fill="url(#linearGradient1298)" d="M223.465 248.154s-.93-1.878-.93-4.406c0-2.528.93-4.405.93-4.405l-.002-.003a4.37 4.37 0 0 0-1.248 1.088c-1.875 2.375-6.477 4.264-6.477 4.264l2.703 2.331s-.841-1.332.621-2.331c2.751-1.879 4.403 3.462 4.403 3.462z" transform="matrix(.93214 0 0 .93213 8.685 -1.732)"/>
            <path fill="url(#linearGradient1290)" d="M54.104 240.399c-3.139.518-6.35 1.509-8.056.654 0 0-.701.586-1.791 1.907.948.444 1.443 1.004 3.055.914 1.648-.093-.041 3.067-.653 6.125-.411 2.049.355 4.4.355 4.4s-.552-3.57 1.825-8.098c2.377-4.528 5.266-5.901 5.266-5.901z" transform="matrix(.93214 0 0 .93213 8.685 -1.732)"/>
            <path fill="url(#linearGradient1282)" d="M70.102 240.959c-3.856.107-8.79.088-11.054-.572-1.439-.42-3.18-.278-4.944.013v.002s-2.889 1.374-5.266 5.901c-2.377 4.527-1.824 8.098-1.824 8.098s2.888-9.653 12.166-9.186c2.869.145 4.748.708 5.979 1.42 1.628-2.225 3.353-4.269 4.943-5.676z" transform="matrix(.93214 0 0 .93213 8.685 -1.732)"/>
            <path fill="url(#linearGradient1274)" d="M86.166 241.254c-3.44-1.004-8.989-2.089-12.452-2.2-2.898-.093-7.847 6.139-11.324 11.666 0 0 3.903-5.44 14.672-6.157 2.759-.184 4.843.019 6.424.42a61.881 61.881 0 0 1 2.68-3.729z" transform="matrix(.93214 0 0 .93213 8.685 -1.732)"/>
            <path fill="url(#linearGradient1266)" d="M141.34 238.762c-2.621-1.7-5.625-2.879-5.625-2.88-5.573-.452-16.16 2.829-16.16 2.829l.001.005c1.159 1.011 2.375 2.308 3.557 3.966.963-1.636 2.75-2.977 5.949-3.342 4.01-.458 6.733 3.644 8.116 3.633 1.733-.014-.469-3.973.738-3.92 3.622.155 8.673 4.5 8.673 4.5s-2.628-3.091-5.249-4.791z" transform="matrix(.93214 0 0 .93213 8.685 -1.732)"/>
            <path fill="url(#linearGradient1258)" d="M181.381 242.803c-6.918-5.417-19.5-2.166-19.5-2.166 1.011.34 2.045.773 3.047 1.245l-.149.61c1.498-.497 3.93-.754 7.847-.051 8.77 1.574 12.249 5.669 12.249 5.669-.917-1.966-1.849-4.018-3.494-5.307z" transform="matrix(.93214 0 0 .93213 8.685 -1.732)"/>
            <path fill="url(#linearGradient1244)" d="M205.313 249.93c-1.742-2.399-5.025-4.333-5.025-4.333l.003.004c-1.207-.805-3.289-2.714-6.075-3.048-4.74-.568-10.363 1.175-11.059 2.262l-.004.014c1.085 1.671 1.824 3.671 2.756 5.347.063-2.476 1.053-6.102 6.404-5.737 8.054.549 15.875 9.452 15.875 9.452l-2.875-3.961z" transform="matrix(.93214 0 0 .93213 8.685 -1.732)"/>
        </g>
        <path fill="#ff2a2a" d="M112.265 219.832c.019 0-.147.084-.251.229l-.236.257c-.095.098-.183.27-.291.423l-.342.524c-.114.193-.2.418-.31.641l-.323.696-.168.36-.117.369-.477 1.519c-.083.492-.163.952-.23 1.346-.037.4-.042.738-.058.976.004.236.014.37.014.37s-.024-.132-.054-.368c-.01-.237-.042-.576-.048-.986l.09-1.41.31-1.564.086-.415.133-.388.257-.757c.089-.246.156-.489.255-.709l.31-.613c.105-.191.17-.366.285-.522l.306-.405c.176-.24.27-.281.271-.297zM109.597 235.87l.091-.021c.047-.02.1-.021.2-.066.19-.078.475-.206.776-.442.156-.11.32-.239.473-.405.162-.154.33-.322.473-.526.148-.2.324-.392.445-.63.127-.224.281-.471.394-.686l.328-.765c.126-.251.17-.5.242-.744.078-.24.13-.48.141-.714.031-.233.052-.454.023-.657a1.853 1.853 0 0 0-.085-.55c-.033-.166-.097-.296-.15-.406-.105-.217-.207-.317-.207-.317s.113.088.242.296c.065.105.146.233.196.398.073.16.12.348.148.56.052.212.055.442.049.687.013.248-.015.504-.07.769-.047.264-.077.554-.173.807-.08.261-.164.528-.247.794-.112.292-.233.53-.35.796-.102.266-.269.495-.409.731-.133.24-.3.447-.467.642a3.542 3.542 0 0 1-.498.525 3.975 3.975 0 0 1-.912.648c-.116.068-.253.11-.325.142l-.1.034z"/>
        <path fill="#ff2a2a" d="M112.265 219.832c.019 0-.147.084-.251.229l-.236.257c-.095.098-.183.27-.291.423l-.342.524c-.114.193-.2.418-.31.641l-.323.696-.168.36-.117.369-.477 1.519c-.083.492-.163.952-.23 1.346-.037.4-.042.738-.058.976.004.236.014.37.014.37s-.024-.132-.054-.368c-.01-.237-.042-.576-.048-.986l.09-1.41.31-1.564.086-.415.133-.388.257-.757c.089-.246.156-.489.255-.709l.31-.613c.105-.191.17-.366.285-.522l.306-.405c.176-.24.27-.281.271-.297zM135.367 217.71l.489.224 1.295.643.84.461c.296.17.62.324.932.528l.965.617c.313.208.694.415.981.68.596.513 1.235.96 1.757 1.495.521.533 1.026 1.005 1.418 1.446.79.875 1.283 1.485 1.283 1.485s-.537-.571-1.387-1.382c-.42-.409-.952-.836-1.496-1.317-.541-.481-1.225-.89-1.853-1.355-.314-.246-.641-.383-.987-.579-.335-.18-.666-.36-.987-.531-.317-.175-.648-.304-.949-.447l-.854-.391c-.536-.217-.983-.4-1.295-.527l-.506-.187zM195.62 226.795s.587.379 1.394 1.015c.805.639 1.847 1.544 2.714 2.62.438.542.788 1.12 1.14 1.645l.95 1.444.927 1.408-1.052-1.318-1.078-1.35c-.4-.492-.802-1.036-1.253-1.509-.911-.956-1.987-1.747-2.813-2.296-.832-.55-1.407-.856-1.407-.856zM219 220.315l.14.098c.087.064.21.16.36.285.299.253.704.63 1.137 1.126.432.495.89 1.111 1.3 1.818.41.705.771 1.497 1.047 2.314.273.834.473 1.632.655 2.418.183.78.317 1.512.409 2.143.188 1.262.162 2.114.162 2.114s-.037-.85-.314-2.086a25.252 25.252 0 0 0-.557-2.085 29.956 29.956 0 0 0-.814-2.331c-.316-.768-.709-1.5-1.141-2.14-.431-.642-.898-1.19-1.33-1.625a9.65 9.65 0 0 0-1.108-.963 7.776 7.776 0 0 0-.33-.227l-.113-.07zM220.415 219.996s1.025.576 2.533 1.481c1.505.911 3.507 2.137 5.41 3.528.479.357.919.744 1.341 1.163.412.413.799.834 1.153 1.257a30.219 30.219 0 0 1 1.817 2.398 33.962 33.962 0 0 1 1.561 2.474s-.624-.991-1.693-2.377c-1.076-1.366-2.582-3.204-4.484-4.487-1.93-1.286-3.974-2.42-5.505-3.256-1.537-.836-2.576-1.36-2.576-1.36zM216.986 229.58l-.163-.326c-.083-.214-.22-.519-.357-.895l-.178-.62c-.058-.22-.142-.452-.187-.698l-.214-1.57.044-1.57c.016-.25.076-.501.11-.736l.118-.668c.098-.403.206-.73.27-.965l.14-.373.834.413-.147.292c-.08.204-.212.493-.341.848l-.169.578c-.056.21-.138.42-.182.661l-.212 1.52.04 1.524c.017.244.074.474.107.696l.106.627c.094.38.194.695.255.919l.126.343zM59.332 222.768l-.15.075c-.087.055-.21.108-.378.222-.33.213-.806.54-1.317 1.011-.258.233-.54.485-.802.79-.273.293-.566.601-.82.96-.262.353-.564.697-.794 1.102-.238.392-.517.793-.729 1.193l-.638 1.278c-.178.428-.33.855-.49 1.268-.154.415-.241.838-.358 1.23-.112.393-.153.778-.227 1.128-.227 1.414-.121 2.377-.121 2.377s-.165-.954-.024-2.394c.053-.357.071-.751.16-1.155.094-.404.157-.838.289-1.273.138-.433.27-.889.427-1.34l.559-1.315c.208-.459.457-.86.681-1.288.213-.43.502-.806.752-1.19.242-.39.528-.729.796-1.056.256-.335.538-.62.797-.884a10.339 10.339 0 0 1 1.362-1.183c.172-.134.344-.229.444-.297l.152-.088zM151.284 221.975c-.016-.009.317.184.566.346.227.148.492.33.696.473.187.131.534.375.92.686.338.272 1.151.948 2.01 1.983 1.288 1.553 2.43 4.538 2.552 4.517.121-.02-.88-3.166-2.109-4.861a17.283 17.283 0 0 0-2.833-3.036 9.522 9.522 0 0 0-1.364-.931zM135.19 222.095s.395.603.936 1.534a76.587 76.587 0 0 1 3.605 7.014c.442.983.703 1.654.703 1.654s-.395-.603-.936-1.535a76.653 76.653 0 0 1-3.605-7.015 37.597 37.597 0 0 1-.703-1.652z"/>
        <path fill="none" stroke="#000000" stroke-linejoin="round" stroke-miterlimit="10" d="M39.381 251.554c-.167-.333-7 3.666-10 4.166-3 .5-9.167-5.666-10.833-7.666-1.667-2 9.333-10.834 9.333-10.834s4-.334 7.667 0c3.666.334 7.833 2.5 10.5 3.834 0 0-1.819 1.516-4.167 5.213s-2.5 5.287-2.5 5.287z" transform="matrix(.93214 0 0 .93213 8.685 -1.732)"/>
        <path fill="none" stroke="#000000" stroke-miterlimit="10" d="M81.214 251.054c-1.303-.868 1.99-5.978 4.952-9.8-3.44-1.004-8.989-2.089-12.452-2.2-5.166-.166-16.848 19.762-15.088 19.979 1.76.217 9.422-2.979 14.547-3.313 5.125-.334 10.041 4.167 11.875 3.167.928-.506 2.112-4.429 2.99-8.309-3.122-1.217-5.824 1.142-6.824.476z" transform="matrix(.93214 0 0 .93213 8.685 -1.732)"/>
        <path fill="none" stroke="#000000" stroke-miterlimit="10" d="M70.097 240.959c-3.855.107-8.785.088-11.048-.572-4-1.166-10.334 2.001-13 .667 0 0-1.819 1.516-4.167 5.213s-2.5 5.287-2.5 5.287c.167.333-1.667 4.666-1 5.333.568.568 10.092 6.272 20.218 1.091.989-3.204 6.831-12.885 11.497-17.019zM214.967 244.386c-2.584-.583-12.227-.29-13.643 1.46-.643.793-3.174-2.821-7.109-3.293-4.74-.568-10.363 1.175-11.059 2.262l-.005.012c1.204 1.854 1.973 4.127 3.063 5.894 2.879 4.66 5.293 8.262 4.75 8.75-.107.097-.24.1-.396.038l.001.001s-4.605 3.711-4.438 4.211c.084.25 2.25 2.5 6 1.166 3.904-1.389 4.334-5.749 6.166-5.583 3.668.333 8.5 4.333 14.25 3.167 5.75-1.166 8.916-7.667 10.084-7.917 1.166-.25 3.666.083 4.25-.25.584-.333-9.33-9.335-11.914-9.918z" transform="matrix(.93214 0 0 .93213 8.685 -1.732)"/>
        <path fill="none" stroke="#000000" stroke-miterlimit="10" d="M186.215 250.72c-1.543-2.498-2.422-6.027-4.834-7.917-6.918-5.417-19.5-2.166-19.5-2.166 4.742 1.596 10 5.25 10 5.25.2.467.095 3.803-1.887 6.66l.004-.002s-2.796 4.842-4.743 6.873l.001.007s4.041 3.045 8.291 3.045c4.168 0 7.752-6.5 10.25-6.667 4.105-.274 6.334 4.417 7.168 3.667.543-.489-1.871-4.09-4.75-8.75z" transform="matrix(.93214 0 0 .93213 8.685 -1.732)"/>
        <path fill="none" stroke="#000000" stroke-miterlimit="10" d="M171.881 245.887s-5.258-3.654-10-5.25c-4.367-1.471-8.227-.884-8.666-1.083-.918-.416-1.25-1.25-7.084-2.667-5.832-1.417-4.084 1.833-8.084-.417s-18.492 2.241-18.492 2.241l.001.005c2.16 1.884 4.524 4.728 6.478 9.136 1.037 2.34 3.011 7.089 3.011 7.089.59 1.232-.454 3.28-1.044 4.103-.909 1.266-1.758 1.991-1.765 1.997.083.097.16.161.229.18 1.583.416 12.094-.444 14.01-1.018 1.916-.574 3.822-6.065 9.49-5.648 3.498.258 1.166 4.083 5.082 4 1.959-.042 9.303-.988 13.084-4 3.781-3.011 4-8.084 3.75-8.668z" transform="matrix(.93214 0 0 .93213 8.685 -1.732)"/>
        <path fill="none" stroke="#000000" stroke-linejoin="round" stroke-miterlimit="10" d="M89.881 237.071c-1.833 1.315-10.667 12.649-8.667 13.982 1 .666 3.701-1.692 6.824-.476 3.127 1.219 6.675 6.011 8.843 6.443 4.333.865 8.833-1.968 11.5-1.635 2.667.333 2.834 4.5 6.167 4.5 3.333 0 7.44-4.609 11.415-5.088 2.037-.245 3.082.142 3.082.142s-1.974-4.749-3.011-7.089c-2.263-5.105-5.077-8.12-7.485-9.965-1.064-.815-6.833-.815-6.833-.815-1.756.908-5.757-.786-10.126-1.144-5.169-.42-10.715.432-11.709 1.145zM238.881 245.887c-.834-1.416 3.166-3.667 3.084-6.333-.084-2.666-7.529-4.18-7.529-4.18s-1.334.387-4.346 1.929-6 .75-7.875 3.125-6.475 4.263-6.477 4.264c3.362 1.69 11.681 9.306 11.145 9.611 0 0-5.75 7.583-2.25 8.167 3.5.584 8-6.5 9.75-6.043 1.75.457-2.738 2.304.584 3.459 1.725.6 7.33-1.666 10.896-4.39 2.819-2.151-6.148-8.193-6.982-9.609z" transform="matrix(.93214 0 0 .93213 8.685 -1.732)"/>
    </g>
    <g stroke-width="1.073">
        <path fill="#f55" stroke="#000000" stroke-linejoin="round" stroke-miterlimit="10" d="M221.715 109.49s3.178-9.792 5.148-9.285c1.97.507 3.184 11.141 3.184 11.141zM210.631 98.87c2.416-.149.916 11.909.916 11.909l-7.332-1.288c0-.001 3.998-10.472 6.416-10.621z" transform="matrix(.93214 0 0 .93213 8.685 -1.732)"/>
        <path fill="#f55" stroke="#000000" stroke-miterlimit="10" d="M166.246 99.624s-3.031 12.294-.969 13.731c2.062 1.437 8.25-4.302 8.25-4.302l1.313-8.25z" transform="matrix(.93214 0 0 .93213 8.685 -1.732)"/>
        <path fill="#f55" stroke="#000000" stroke-linejoin="round" stroke-miterlimit="10" d="M76.464 101.976c2.166 3.744-2.084 8.725-2.167 9.308-.083.583-4.583-3.064-4.583-3.064zM138.902 115.054s-2.152-11.202 1.299-12.508c3.451-1.306 9.764 7.944 9.764 7.944zM159.09 113.615l-5.209-9.729-5.604 9.729 3.078 6.688z" transform="matrix(.93214 0 0 .93213 8.685 -1.732)"/>
        <path fill="#ff8080" d="M171.431 114.772c-3.293 1.634-6.938 3.123-10.84 3.323 0 0-3.224-2.32-6.609-7.34-3.386-5.021-4.171-8.645-4.171-8.645l-.042-.028c.155.142.411.206.8.167 3.109-.31 11.653-3.729 15.664-5.545 0 0 2.047 3.415 3.6 8.808 1.552 5.394 1.598 9.26 1.598 9.26z"/>
        <path fill="#ff8080" d="M149.811 102.11s.785 3.625 4.171 8.644c3.385 5.02 6.61 7.34 6.61 7.34-9.09.467-14.216-7.223-17.944-6.524-2.556.479-4.564 3.713-7.674 5.47 0 0 3.634-4.62 5.81-8.678 2.175-4.056 3.495-8.677 3.495-8.677 2.563-1.864-6.875-4.544-4.907-5.832 3.39-2.219 12.13.006 12.752 1.249.544 1.088-3.434 5.981-2.354 6.979M223.278 92.623c-11.153-4.396 6.213 7.762-11.497 5.898-17.711-1.864-1.553-7.767-8.39-8.7-6.834-.932-4.66 7.147-13.05 5.593-8.389-1.554-4.273.389-6.446-3.65-2.176-4.04-15.025-4.403-19.063-1.917-4.04 2.486 2.856 6.2 1.401 6.858 0 0 2.048 3.415 3.601 8.808 1.551 5.393 1.597 9.26 1.597 9.26 4.378-2.171 8.14-4.6 11.066-4.6 5.126 0 11.699 9.166 15.66 7.302 3.962-1.864 11.838-3.207 19.76-2.508 7.924.699 8.778 1.576 10.243-1.22 1.464-2.798 12.05-14.45-4.882-21.124z"/>
        <path fill="#ff8080" d="M134.973 117.04s3.634-4.62 5.81-8.678c2.175-4.056 3.495-8.677 3.495-8.677-4.122 2.998-11.22 5.4-17.012 4.777-5.792-.621 2.486-5.631-1.554-8.117-4.04-2.486-10.68.739-14.409 1.36-3.728.62-8.855-5.083-15.963-4.312-4.643.505-.35 3.326-1.281 4.894-2.214 3.729-18.681 1.165-18.681 1.165-1.554 2.175 7.224 17.478 9.476 17.012 2.252-.466 2.563-2.098 5.36-1.865 2.796.233 3.495 1.632 8.156 1.399 4.66-.233 6.758-3.03 11.186-2.098 4.427.932 6.059 3.729 9.088 4.27 3.03.542 3.262-4.736 5.593-4.503 2.33.233-.932 3.729 5.593 4.448 2.054.227 3.714-.268 5.143-1.075z"/>
        <path fill="#ff8080" d="M75.378 99.453c-.734-1.75 5.048-3.845 4.582-6.13-.466-2.286-21.905-12.396-24.818-10.299-2.913 2.098 3.146 9.599-6.758 9.599-9.22 0-2.913-6.686-5.71-7.618-4.58-1.527-25.517 12.001-25.4 13.4.116 1.398 10.565 15.34 10.933 15.215.184-.065 2.513.675 4.564-.65 2.01-1.301 5.547-2.786 6.075-3.014.529-.227 1.382 1.848 1.964 1.964.583.117 6.292-2.563 7.34-3.262 1.05-.7 7.458 4.195 13.05 4.428 5.594.233 5.011-2.447 8.274-3.03 3.262-.582 11.305 2.289 11.305 2.289l-.002-.005c-3.081-4.572-6.405-11.48-5.4-12.887z"/>
        <path fill="url(#linearGradient1547)" d="M174.594 124.987c-3.533 1.753-7.443 3.351-11.629 3.565 0 0-3.459-2.489-7.09-7.875-3.633-5.386-4.475-9.274-4.475-9.274l-.045-.03c.166.153.441.221.859.179 3.334-.333 12.5-4 16.803-5.948 0 0 2.197 3.663 3.863 9.449 1.665 5.787 1.714 9.934 1.714 9.934z" transform="matrix(.93214 0 0 .93213 8.685 -1.732)"/>
        <path fill="url(#linearGradient1555)" d="M151.4 111.403s.842 3.889 4.475 9.274c3.631 5.386 7.09 7.875 7.09 7.875-9.75.5-15.25-7.75-19.25-7-2.742.514-4.896 3.983-8.232 5.868 0 0 3.898-4.957 6.232-9.309 2.334-4.352 3.75-9.309 3.75-9.309 2.75-2-7.375-4.875-5.264-6.257 3.637-2.38 13.014.007 13.68 1.34.584 1.167-3.684 6.417-2.525 7.487" transform="matrix(.93214 0 0 .93213 8.685 -1.732)"/>
        <path fill="url(#linearGradient1563)" d="M230.215 101.225c-11.965-4.716 6.666 8.328-12.334 6.328-19-2-1.666-8.333-9-9.333-7.332-1-5 7.667-14 6-9-1.667-4.584.417-6.916-3.917-2.334-4.333-16.119-4.723-20.451-2.056-4.334 2.667 3.064 6.652 1.504 7.358 0 0 2.197 3.663 3.863 9.449 1.664 5.786 1.713 9.934 1.713 9.934 4.697-2.329 8.732-4.935 11.871-4.935 5.5 0 12.551 9.834 16.801 7.834 4.25-2 12.699-3.441 21.199-2.691 8.5.75 9.416 1.691 10.988-1.309 1.57-3.001 12.928-15.501-5.238-22.662z" transform="matrix(.93214 0 0 .93213 8.685 -1.732)"/>
        <path fill="url(#linearGradient1571)" d="M135.482 127.42s3.898-4.957 6.232-9.309c2.334-4.352 3.75-9.309 3.75-9.309-4.422 3.216-12.037 5.792-18.25 5.125-6.214-.667 2.667-6.042-1.667-8.708-4.334-2.667-11.458.792-15.458 1.458-4 .666-9.5-5.453-17.125-4.625-4.982.541-.376 3.568-1.375 5.25-2.375 4-20.041 1.25-20.041 1.25-1.667 2.333 7.75 18.75 10.166 18.25 2.416-.5 2.75-2.25 5.75-2s3.75 1.75 8.75 1.5 7.25-3.25 12-2.25 6.5 4 9.75 4.581c3.25.581 3.5-5.081 6-4.831s-1 4 6 4.772c2.204.243 3.985-.288 5.518-1.154z" transform="matrix(.93214 0 0 .93213 8.685 -1.732)"/>
        <path fill="url(#linearGradient1579)" d="M71.548 108.553c-.787-1.877 5.416-4.125 4.916-6.577s-23.5-13.298-26.625-11.048 3.375 10.297-7.25 10.297c-9.891 0-3.125-7.172-6.125-8.172-4.914-1.638-27.375 12.875-27.25 14.375s11.334 16.458 11.729 16.323c.198-.069 2.696.724 4.896-.698 2.156-1.395 5.951-2.988 6.518-3.232.567-.244 1.482 1.982 2.107 2.107.625.125 6.75-2.75 7.875-3.5s8 4.5 14 4.75 5.375-2.625 8.875-3.25 12.128 2.455 12.128 2.455l-.002-.005c-3.305-4.905-6.871-12.315-5.792-13.825z" transform="matrix(.93214 0 0 .93213 8.685 -1.732)"/>
        <g fill="url(#linearGradient1482)" transform="matrix(.93214 0 0 .93213 8.685 -1.732)">
            <path fill="url(#linearGradient1484)" d="M171.922 112.077c.326.914.651 1.909.959 2.977 1.664 5.786 1.713 9.934 1.713 9.934-3.533 1.753-7.443 3.351-11.629 3.565 0 0-3.459-2.489-7.09-7.875-1.483-2.199-2.501-4.147-3.187-5.685 0 0 6.749 12.897 14.937 10.957 8.892-2.107 4.297-13.873 4.297-13.873z"/>
            <path fill="url(#linearGradient1486)" d="M152.688 114.993c.686 1.537 1.703 3.486 3.187 5.685 3.631 5.386 7.09 7.875 7.09 7.875-9.75.5-15.25-7.75-19.25-7-2.742.514-4.896 3.983-8.232 5.868 0 0 3.898-4.957 6.232-9.309.463-.864.891-1.753 1.278-2.622 0 0-1.576 4.825 1.924 4.813 2.191-.007 7.317 4.56 9.167 4.114 1.208-.292-1.396-9.424-1.396-9.424z"/>
            <path fill="url(#linearGradient1488)" d="M240.392 112.666c-.188 4.975-4.067 9.557-4.938 11.22-1.572 3-2.488 2.059-10.988 1.309a53.482 53.482 0 0 0-1.736-.124v.002s2.525-3.485 4.361-6.49c1.834-3.005 1.625-6.489 1.625-6.489s-.136 4.794-.59 8.22c-.207 1.561-1.433 2.837-1.063 3.248.913 1.014 4.08 1.176 4.875.938 3.125-.937 8.454-11.834 8.454-11.834z"/>
            <path fill="url(#linearGradient1490)" d="M31.547 100.553s1.841 6.052 4.5 10.794c2.836 5.058 6.292 7.081 6.292 7.081-1.125.75-7.25 3.625-7.875 3.5s-1.541-2.351-2.107-2.107l-7.143-10.331s6.333 7.853 9.119 5.927c2.195-1.517-2.786-14.864-2.786-14.864z"/>
            <path fill="url(#linearGradient1492)" d="M25.214 109.49l7.143 10.331c-.566.244-4.361 1.837-6.518 3.232-2.2 1.422-4.698.629-4.896.698-.26.089-5.227-6.389-8.613-11.24 0 0 6.984 9.066 12.42 7.792 5.436-1.274.464-10.813.464-10.813z"/>
            <path fill="url(#linearGradient1494)" d="M70.38 112.561s-2.543.53-4.166 2.493c-1.623 1.963-2.234 5.249-2.234 5.249l.094-.046c-2.307.965-2.485 3.139-7.735 2.921-6-.25-12.875-5.5-14-4.75 0 0-3.456-2.023-6.292-7.081-2.659-4.742-4.5-10.794-4.5-10.794s3.671 9.598 11.73 15.447c3.093 2.245 8.469 3.632 12.035 3.632 3.875 0 4.877-1.009 7.313-3.201 3.125-2.812 7.755-3.87 7.755-3.87z"/>
            <path fill="url(#linearGradient1496)" d="M96.88 109.49s.417 4.188-3.5 8.938c-3.916 4.75-8.42 6.768-8.42 6.768-1.041.496-1.737 1.295-3.246 1.607-1.836.38-7.714-9.009-9.7-14.563 0 0 3.317 9.215 12.439 8.76 9.578-.478 12.427-11.51 12.427-11.51z"/>
            <path fill="url(#linearGradient1498)" d="M107.714 111.347s.803 4.192 3.167 8.956c2.364 4.764 5.061 7.615 5.061 7.615h-.007c-2.167-1.122-4.046-3.091-7.72-3.865-4.75-1-7 2-12 2.25s-5.75-1.25-8.75-1.5c-1.126-.094-1.877.095-2.503.393 0 0 4.503-2.018 8.419-6.768 3.917-4.75 3.5-8.938 3.5-8.938s.621 5.426-.547 8.885c-1.168 3.459-4.176 4.155-3.626 5.535.75 1.88 10.75-1.878 12.73-1.878 1.833 0 5.103 1.594 5.562 1.344.459-.25-1.086-3.006-2.042-5.223-1.388-3.223-1.243-6.806-1.244-6.806z"/>
            <path fill="url(#linearGradient1500)" d="M124.464 115.72s-.397 1.921 0 5.25c.397 3.329 2.6 6.917 2.599 6.917-3.013-1.345-1.059-3.879-3.099-4.083-2.5-.25-2.75 5.412-6 4.831-.736-.132-1.395-.388-2.03-.716 0 0-2.689-2.851-5.053-7.615s-3.167-8.956-3.167-8.956 3.552 13.699 10.828 14.403c1.962.19 2.407-4.848 3.793-5.179 1.876-.448 2.129-4.852 2.129-4.852z"/>
            <path fill="url(#linearGradient1502)" d="M142.993 115.49a41.012 41.012 0 0 1-1.278 2.622c-2.334 4.353-6.232 9.309-6.232 9.309-1.533.866-3.314 1.397-5.518 1.154-1.289-.142-2.222-.385-2.901-.688 0 0-2.202-3.588-2.6-6.917-.398-3.329 0-5.25 0-5.25s-1.152 11.701 8.161 10.843c4.06-.375 10.368-11.073 10.368-11.073z"/>
            <path fill="url(#linearGradient1504)" d="M200.215 108.737s.676 3.358.67 8.655c-.002 2.767-2.338 9.536-2.338 9.536h-.002c-3.822-2.266-8.314-6.875-12.08-6.875 0 0-1.398-1.704-.75-5.281.648-3.577 2.666-5.281 2.666-5.281s-4.311 8.004.89 9.532c.424.124 1.764.424 2.938 1.03 2.039 1.053 4.216 2.504 4.792 1.781 2.737-3.441 3.214-13.097 3.214-13.097z"/>
            <path fill="url(#linearGradient1506)" d="M208.881 109.49s-1.033 3.469.334 7.589c1.365 4.12 4.861 8.213 4.861 8.213v-.001c-4.476.466-8.348 1.437-10.811 2.596-1.341.631-2.96.084-4.721-.959h.002s2.336-6.769 2.338-9.536c.006-5.297-.67-8.655-.67-8.655s1.955 16.177 2.62 16.257c.507.061 4.568-1.026 5.672-2.681.333-.499.001-6.014 0-9.646.001-1.826.375-3.177.375-3.177z"/>
            <path fill="url(#linearGradient1508)" d="M228.715 112.095s.209 3.484-1.625 6.489c-1.836 3.005-4.361 6.49-4.361 6.49v-.002a55.23 55.23 0 0 0-8.652.219v.001s-3.496-4.094-4.861-8.213c-1.367-4.12-.334-7.589-.334-7.589s-.044 11.506 8.557 12.635c8.601 1.129 11.276-10.03 11.276-10.03z"/>
            <path fill="url(#linearGradient1510)" d="M185.715 114.771c.149-.826.377-1.54.631-2.168-.01.018-.019.033-.027.052-1.167 2.394-2.53 5.862-6.193 6.653-3.132.676-5.232-.383-6.619-1.847 1.049 4.492 1.088 7.526 1.088 7.526 4.697-2.329 8.732-4.935 11.871-4.935-.001.001-1.4-1.703-.751-5.281z"/>
            <path fill="url(#linearGradient1512)" d="M74.278 117.232c-.193 1.02.176 2.107-1.57 2.018-1.127-.058-2.047-1.045-2.994-1.098-1.359-.077-2.941.579-3.131 0-.661-2.022 3.797-5.591 3.797-5.591s-2.543.53-4.166 2.493c-1.623 1.963-2.234 5.249-2.234 5.249l.094-.046c.33-.138.703-.251 1.14-.329 3.5-.625 12.128 2.455 12.128 2.455a57.028 57.028 0 0 1-3.064-5.151z"/>
        </g>
        <path fill="#ff2a2a" d="M38.091 91.996s.39 1.178 1.075 2.905c.344.862.754 1.865 1.24 2.917.232.532.493 1.07.767 1.612.262.549.547 1.095.855 1.63.294.545.593 1.07.927 1.585.33.507.663.985 1.012 1.443.695.91 1.416 1.699 2.074 2.327a15.911 15.911 0 0 0 1.678 1.401c.212.155.383.265.498.338l.169.101-.47.805-.208-.138a9.78 9.78 0 0 1-.527-.394c-.44-.347-1.042-.87-1.697-1.556a20.879 20.879 0 0 1-2.035-2.508 24.171 24.171 0 0 1-.974-1.536 23.582 23.582 0 0 1-.863-1.65 24.505 24.505 0 0 1-.785-1.685c-.25-.56-.486-1.113-.694-1.657-.438-1.08-.801-2.105-1.105-2.984-.603-1.762-.937-2.956-.937-2.956zM39.23 109.692l-.767.53-6.275-9.895zM74.289 103.19s-.61.153-1.434.585c-.198.12-.427.223-.642.379-.212.156-.458.292-.664.492-.213.19-.447.37-.63.607-.207.231-.387.428-.546.707-.175.26-.34.525-.452.79a6.54 6.54 0 0 0-.348.791c-.213.525-.362 1.04-.48 1.479-.118.44-.194.812-.244 1.07l-.068.401-.916-.17.116-.435c.08-.27.195-.653.362-1.102.167-.449.37-.97.649-1.503a7.08 7.08 0 0 1 .456-.817c.16-.286.35-.534.546-.775.174-.25.43-.498.656-.703.218-.23.481-.398.721-.574.233-.187.501-.304.733-.444.234-.137.478-.221.69-.323.874-.36 1.495-.456 1.495-.456zM98.99 100.327s.033.3.011.828c-.025.262-.02.587-.093.95-.059.363-.11.777-.244 1.212a8.71 8.71 0 0 1-.447 1.398l-.29.75c-.11.25-.254.492-.384.746-.26.507-.532 1.033-.897 1.511-.347.475-.67 1.032-1.08 1.467-.4.453-.769.926-1.186 1.357l-1.258 1.247c-.433.373-.852.736-1.248 1.08-.418.317-.813.619-1.177.897-.752.528-1.399.94-1.866 1.212-.467.265-.76.41-.76.41l-.382-.851s.253-.11.715-.343a25.177 25.177 0 0 0 1.849-1.08l1.185-.814 1.265-.991 1.272-1.144c.428-.4.826-.861 1.243-1.293.44-.424.741-.91 1.118-1.373.38-.45.67-.95.949-1.435.139-.242.292-.473.411-.714l.32-.721a8.57 8.57 0 0 0 .507-1.355c.154-.424.224-.83.3-1.189.09-.356.1-.676.138-.937.048-.522.03-.825.03-.825zM109.09 102.058l.184.726c.14.455.326 1.109.577 1.884.29.763.609 1.658.98 2.604l1.354 2.88c.238.46.545.934.81 1.394l.805 1.352c.244.454.565.816.824 1.2.268.373.523.725.758 1.05.223.332.485.599.686.855.21.25.392.469.542.65.308.346.488.532.488.531l-.678.641s-.188-.215-.493-.598c-.146-.194-.322-.429-.523-.7-.195-.275-.446-.56-.661-.918l-.725-1.13c-.244-.405-.558-.809-.775-1.27l-.73-1.394c-.246-.483-.51-.939-.746-1.457l-1.211-2.979c-.323-.973-.597-1.89-.845-2.669-.21-.791-.36-1.457-.476-1.918l-.145-.734zM124.703 106.134s-.034.182-.049.506c-.014.324-.055.782-.024 1.337l.025.892c.023.315.071.647.108.99l.12 1.054c.058.335.154.712.228 1.069.082.36.217.69.32 1.029.097.336.259.66.38.977.263.628.542 1.203.802 1.683.25.485.487.875.649 1.146l.26.415-.794.487s-.375-.67-.824-1.707c-.23-.515-.47-1.13-.691-1.8-.1-.34-.235-.673-.313-1.045-.08-.366-.194-.738-.248-1.104-.048-.372-.11-.72-.146-1.106l-.039-1.079c-.01-.35-.032-.685-.029-1.005l.046-.9c.012-.557.091-1.018.13-1.339.041-.32.089-.5.089-.5zM182.124 110.453l-.07-.106c-.042-.08-.134-.213-.191-.357a5.087 5.087 0 0 1-.401-1.248 4.48 4.48 0 0 1-.116-.848 4.87 4.87 0 0 1-.013-.943c.008-.326.028-.66.097-.992.064-.317.09-.7.199-1.01l.28-.96.376-.92c.281-.572.579-1.083.874-1.495.59-.826 1.122-1.246 1.122-1.246s-.493.467-1 1.326c-.254.429-.501.953-.724 1.529l-.28.898-.195.977c-.084.333-.06.627-.101.96-.04.318-.03.631-.011.932.002.303.029.59.087.859.034.272.09.52.167.743.12.455.3.797.426 1.021.062.123.117.174.148.23.045.06.07.09.07.09zM193.318 116.43s.377-1.003.882-2.535c.253-.766.536-1.663.806-2.63.265-.968.53-2.011.664-3.057.055-.51.043-1.055.055-1.587.013-.533.006-1.053-.005-1.556a44.288 44.288 0 0 0-.12-2.758c-.113-1.614-.287-2.681-.287-2.681s.233 1.056.439 2.666c.104.806.206 1.747.275 2.761.04.507.076 1.033.093 1.564.018.53.062 1.066.032 1.634-.084 1.105-.299 2.174-.518 3.17a59.017 59.017 0 0 1-.676 2.702c-.428 1.57-.76 2.608-.76 2.608zM203.391 100.327s-.255.986-.257 2.492c-.002.75.062 1.627.243 2.543.18.925.474 1.85.874 2.779.785 1.812 1.905 3.486 2.79 4.682.444.6.834 1.085 1.11 1.418l.438.513-.708.605s-.652-.803-1.497-2.078c-.842-1.276-1.893-3.028-2.614-4.961a13.242 13.242 0 0 1-.799-5.507c.1-1.52.42-2.486.42-2.486zM221.88 102.755s.085.853-.065 2.13a12.055 12.055 0 0 1-.454 2.151c-.237.77-.602 1.578-1.054 2.307a109.257 109.257 0 0 1-3.63 5.784l-.756-.546s2.08-2.666 3.979-5.495a9.788 9.788 0 0 0 1.171-2.15c.29-.732.476-1.45.595-2.073.237-1.25.213-2.108.213-2.108z"/>
        <path fill="none" stroke="#000000" stroke-linejoin="round" stroke-miterlimit="10" d="M174.594 124.987c-3.533 1.753-7.443 3.351-11.629 3.565 0 0-3.459-2.489-7.09-7.875-3.633-5.386-4.475-9.274-4.475-9.274l-.045-.03c.166.153.441.221.859.179 3.334-.333 12.5-4 16.803-5.948 0 0 2.197 3.663 3.863 9.449 1.665 5.787 1.714 9.934 1.714 9.934z" transform="matrix(.93214 0 0 .93213 8.685 -1.732)"/>
        <path fill="none" stroke="#000000" stroke-linejoin="round" stroke-miterlimit="10" d="M151.4 111.403s.842 3.889 4.475 9.274c3.631 5.386 7.09 7.875 7.09 7.875-9.75.5-15.25-7.75-19.25-7-2.742.514-4.896 3.983-8.232 5.868 0 0 3.898-4.957 6.232-9.309 2.334-4.352 3.75-9.309 3.75-9.309 2.75-2-7.375-4.875-5.264-6.257 3.637-2.38 13.014.007 13.68 1.34.584 1.167-3.684 6.417-2.525 7.487" transform="matrix(.93214 0 0 .93213 8.685 -1.732)"/>
        <path fill="none" stroke="#000000" stroke-linejoin="round" stroke-miterlimit="10" d="M135.482 127.42s3.898-4.957 6.232-9.309c2.334-4.352 3.75-9.309 3.75-9.309-4.422 3.216-12.037 5.792-18.25 5.125-6.214-.667 2.667-6.042-1.667-8.708-4.334-2.667-11.458.792-15.458 1.458-4 .666-9.5-5.453-17.125-4.625-4.982.541-.376 3.568-1.375 5.25-2.375 4-20.041 1.25-20.041 1.25-1.667 2.333 7.75 18.75 10.166 18.25 2.416-.5 2.75-2.25 5.75-2s3.75 1.75 8.75 1.5 7.25-3.25 12-2.25 6.5 4 9.75 4.581c3.25.581 3.5-5.081 6-4.831s-1 4 6 4.772c2.204.243 3.985-.288 5.518-1.154zM230.215 101.225c-11.965-4.716 6.666 8.328-12.334 6.328-19-2-1.666-8.333-9-9.333-7.332-1-5 7.667-14 6-9-1.667-4.584.417-6.916-3.917-2.334-4.333-16.119-4.723-20.451-2.056-4.324 2.661 3.03 6.634 1.513 7.353a.792.792 0 0 0 .011.039c.197.336 2.259 3.911 3.844 9.416 1.664 5.786 1.713 9.934 1.713 9.934 4.697-2.329 8.732-4.935 11.871-4.935 5.5 0 12.551 9.834 16.801 7.834 4.25-2 12.699-3.441 21.199-2.691 8.5.75 9.416 1.691 10.988-1.309 1.569-3.002 12.927-15.502-5.239-22.663z" transform="matrix(.93214 0 0 .93213 8.685 -1.732)"/>
        <path fill="none" stroke="#000000" stroke-linejoin="round" stroke-miterlimit="10" d="M71.548 108.553c-.787-1.877 5.416-4.125 4.916-6.577s-23.5-13.298-26.625-11.048 3.375 10.297-7.25 10.297c-9.891 0-3.125-7.172-6.125-8.172-4.914-1.638-27.375 12.875-27.25 14.375s11.334 16.458 11.729 16.323c.198-.069 2.696.724 4.896-.698 2.156-1.395 5.951-2.988 6.518-3.232.567-.244 1.482 1.982 2.107 2.107.625.125 6.75-2.75 7.875-3.5s8 4.5 14 4.75 5.375-2.625 8.875-3.25 12.128 2.455 12.128 2.455l-.002-.005c-3.305-4.905-6.871-12.315-5.792-13.825z" transform="matrix(.93214 0 0 .93213 8.685 -1.732)"/>
    </g>
</svg>
