<?xml version="1.0" encoding="UTF-8" standalone="no"?>
<svg
   xmlns:dc="http://purl.org/dc/elements/1.1/"
   xmlns:cc="http://creativecommons.org/ns#"
   xmlns:rdf="http://www.w3.org/1999/02/22-rdf-syntax-ns#"
   xmlns:svg="http://www.w3.org/2000/svg"
   xmlns="http://www.w3.org/2000/svg"
   xmlns:sodipodi="http://sodipodi.sourceforge.net/DTD/sodipodi-0.dtd"
   xmlns:inkscape="http://www.inkscape.org/namespaces/inkscape"
   viewBox="0 0 256 256"
   version="1.1"
   id="svg10"
   sodipodi:docname="monkey_spank.svg"
   inkscape:version="1.0.1 (3bc2e813f5, 2020-09-07)">
  <metadata
     id="metadata16">
    <rdf:RDF>
      <cc:Work
         rdf:about="">
        <dc:format>image/svg+xml</dc:format>
        <dc:type
           rdf:resource="http://purl.org/dc/dcmitype/StillImage" />
        <dc:title />
      </cc:Work>
    </rdf:RDF>
  </metadata>
  <defs
     id="defs14" />
  <sodipodi:namedview
     pagecolor="#ffffff"
     bordercolor="#666666"
     borderopacity="1"
     objecttolerance="10"
     gridtolerance="10"
     guidetolerance="10"
     inkscape:pageopacity="0"
     inkscape:pageshadow="2"
     inkscape:window-width="2560"
     inkscape:window-height="1027"
     id="namedview12"
     showgrid="false"
     inkscape:zoom="2.90625"
     inkscape:cx="128"
     inkscape:cy="128"
     inkscape:window-x="-8"
     inkscape:window-y="-8"
     inkscape:window-maximized="1"
     inkscape:current-layer="svg10"
     inkscape:document-rotation="0" />
  <g
     id="g896"
     transform="matrix(0.86177482,0,0,0.86177482,36.482123,-0.00220924)">
    <path
       style="fill:#0e0706;stroke:none;stroke-width:0.411145"
       d="m 145.94869,1.0854582 c -0.42677,9.9355268 -4.35525,20.9850948 -8.34995,30.0135948 -2.21689,5.010544 -5.2532,9.837182 -6.49773,15.21237 -1.97227,8.520984 -0.48803,17.880292 2.76165,25.902145 2.18236,5.387646 6.18486,13.472816 11.67488,16.03466 -0.65783,-8.264017 -2.81223,-15.885003 -1.46449,-24.257562 0.9444,-5.866219 4.18998,-10.755557 5.61912,-16.445807 2.72959,-10.867922 2.16508,-23.191917 0.1167,-34.125046 C 149.0429,9.3316723 148.30531,4.5931419 145.94863,1.0854582 M 63.719632,19.175843 c -1.827132,6.680451 -5.258545,12.580919 -5.343235,19.734968 -0.108154,9.12331 5.116702,15.703689 6.981657,24.257564 1.904828,8.734779 -0.226144,16.414559 -0.404987,25.079853 3.465958,-1.802871 6.171295,-5.826749 8.279643,-9.045192 6.020812,-9.191973 8.048168,-20.929755 3.868473,-31.247031 C 73.202703,38.331878 65.417259,29.89152 64.541927,19.175843 h -0.822295 m 41.114528,15.212372 c -3.59259,9.076439 -11.184399,20.203673 -0.41114,27.957869 -0.069,-3.338498 -0.74746,-6.526107 -0.0789,-9.867484 1.23467,-6.172521 5.31776,-12.108923 0.49008,-18.090385 m 82.64018,13.156644 c -2.10218,8.8499 -9.62984,14.271671 -4.61099,23.846419 0.93783,1.789715 1.94801,3.234479 3.78871,4.111451 -0.55875,-3.00876 -0.76966,-6.457856 -0.0412,-9.456339 1.49534,-6.157309 5.43739,-12.386569 0.8634,-18.501531 m -165.280376,0.411146 -1.573203,9.045193 3.25902,9.456339 -0.04118,9.045192 c 8.936817,-4.367183 4.851974,-15.544164 1.554509,-21.790693 -0.946501,-1.793004 -1.576699,-4.538631 -3.199084,-5.756031 m 28.369015,0.411144 c -2.440967,6.290933 -4.551785,12.076978 -3.102912,18.912677 1.003189,4.733926 3.86723,8.662828 4.57152,13.56779 0.712929,4.965812 -0.257378,9.873651 -0.646313,14.801227 2.690949,-1.263862 4.570292,-4.08719 6.083296,-6.578324 7.282203,-11.99187 1.820559,-20.90632 -3.484869,-32.069321 -1.27578,-2.684368 -1.767507,-6.255573 -3.420722,-8.634049 m 67.016699,0 c -2.28556,4.291534 -4.05308,9.468673 -3.86723,14.390081 0.21214,5.618708 3.23242,9.931211 4.62538,15.21237 1.50643,5.711217 1.02457,11.983647 -0.34701,17.679243 2.531,-1.1804 4.24919,-3.491038 5.80208,-5.756033 8.29526,-12.097535 2.21978,-21.438754 -2.97998,-32.891612 -1.27044,-2.798254 -1.92786,-5.923368 -3.23324,-8.634049 m 41.52565,0 c -0.32726,7.163794 -5.79139,12.986021 -8.49549,19.323823 -2.96559,6.95082 -1.39296,15.592268 2.54829,21.790692 1.53932,2.421233 3.29532,4.930464 5.9472,6.167179 -0.70387,-5.450553 -1.6158,-10.526139 -0.68908,-16.034663 0.64756,-3.850374 2.80401,-7.032226 3.96632,-10.689773 1.51548,-4.767228 1.16149,-9.221163 -0.1624,-13.978936 -0.60933,-2.188935 -1.21,-5.181661 -3.11484,-6.578322 m -54.27117,16.445806 v 1.233435 l 0.8223,-0.411144 v -0.411145 l -0.8223,-0.411146 m -20.146127,2.466871 c -1.517945,7.334418 -6.184441,12.905846 -8.854427,19.734967 -2.661346,6.806918 -1.513004,14.816857 2.303242,20.968407 1.542606,2.4866 3.441685,5.31652 6.140045,6.57833 -0.712525,-5.60844 -1.633899,-11.66379 -0.314127,-17.268096 0.849427,-3.606993 2.946275,-6.730459 3.999625,-10.278641 1.75189,-5.901166 0.754046,-14.854673 -3.274358,-19.734967 m 20.146127,0 c -0.8412,6.621493 -2.08162,14.67007 -5.360938,20.557258 -3.532963,6.341923 -10.029885,11.031433 -12.227459,18.090396 -1.43366,4.60482 -0.279584,9.94313 1.142577,14.39007 -7.937979,-3.00424 -21.505365,-9.4181 -20.968403,-19.32381 -5.171385,4.28454 -5.584172,10.53558 -13.15665,12.33435 0.01927,-6.93561 2.792498,-11.72176 5.756037,-17.679247 -5.678744,2.066422 -11.093522,5.367507 -13.567789,11.100917 h -0.411078 c -0.616726,-7.823266 1.105562,-16.077831 -0.528742,-23.846418 -0.661525,-3.144438 -1.777779,-7.081564 -4.816156,-8.634048 0,8.229893 0.618855,15.801131 -4.259287,23.02414 -4.301446,6.369046 -12.936846,8.164926 -13.008809,16.856936 h -0.82228 c -0.484175,-5.55251 -3.088398,-10.84394 -3.630503,-16.445797 -0.672465,-6.94877 1.358682,-12.403844 3.219348,-18.912682 -2.0681,1.581675 -3.651699,3.783356 -5.344556,5.756031 -5.225618,6.089471 -12.9524026,15.543358 -11.3201343,24.257568 0.7194561,3.84092 3.2926472,6.86325 5.0003433,10.27863 2.652055,5.30418 4.639646,11.32048 5.049232,17.2681 0.747831,10.85917 -5.532987,19.31436 -7.5903187,29.60245 -3.1643854,15.82375 1.9583614,33.14365 9.8588927,46.87055 7.788412,13.53202 21.47946,25.96669 34.360147,34.63939 20.121446,13.54723 44.432455,25.15962 54.271186,48.82308 h 0.41114 c 3.3167,-11.51371 13.4979,-21.01569 22.61298,-28.1322 17.35979,-13.55382 36.6869,-23.38346 52.20927,-39.29561 14.23591,-14.59359 25.25829,-38.87953 22.02752,-59.61604 -1.56278,-10.02989 -8.64351,-18.76261 -8.9124,-28.71028 -0.18913,-7.01124 1.36623,-13.44527 4.28618,-19.80485 1.69269,-3.68757 5.04353,-7.43434 5.55294,-11.51208 1.53069,-12.258691 -9.25529,-21.594987 -15.95861,-30.424739 h -0.41114 l 3.27313,13.156645 -4.09543,22.612994 h -0.41114 c -0.1846,-8.90376 -8.37132,-10.47639 -12.8602,-16.857376 -5.09327,-7.240676 -4.76805,-15.048321 -4.40789,-23.43486 -3.13416,1.496568 -4.07692,5.067775 -4.78985,8.222903 -1.78601,7.903031 -0.55503,16.221331 -0.55503,24.257563 h -0.41116 c -2.89775,-6.12523 -8.30472,-8.526732 -13.97893,-11.512057 l 4.23562,7.811757 1.93156,9.86748 c -9.54433,-0.48351 -7.16584,-13.755273 -13.15665,-17.679237 0,7.930987 -2.6856,16.344247 -8.29444,22.164837 -2.46276,2.55608 -6.46814,5.17139 -10.20667,4.41774 -3.18802,-0.64261 -2.71726,-3.8409 -4.31703,-6.02368 -2.43563,-3.32245 -6.6659,-4.79518 -8.50083,-8.6361 -1.9036,-3.984 0.42223,-7.907555 0.82392,-11.922797 0.77337,-7.728302 -1.08335,-14.391731 -4.23768,-21.379554 -0.92794,-2.056138 -1.65814,-5.224832 -3.50378,-6.578323 m -74.417284,6.167177 c -6.551061,8.5917 -1.44143,17.980608 -5.344882,27.546737 10.717362,-2.162626 8.345374,-15.056969 6.343223,-22.201849 -0.489459,-1.746956 -0.310616,-3.706474 -0.998341,-5.344888 m 149.245714,0 c -0.18995,9.193207 -6.32711,16.507068 1.17998,24.631711 1.23673,1.33828 2.43234,2.338996 4.1649,2.915026 -0.72237,-3.049472 -1.97637,-5.851014 -2.04954,-9.045204 -0.15509,-6.738259 2.57212,-13.084695 -3.29534,-18.501533 m -47.69284,8.634048 c -2.78303,5.289383 -6.8953,10.647016 -7.24438,16.856958 -0.14187,2.516611 1.33253,4.955121 1.79218,7.400611 0.68745,3.65754 0.39635,7.02565 0.10738,10.68978 6.13963,-4.32772 11.05405,-15.01913 9.73221,-22.612993 -0.74787,-4.296879 -3.4717,-7.842183 -3.56503,-12.334356 h -0.8223 M 108.53447,278.1973 h -0.41114 v -54.27116 -15.21237 c 0,-1.83535 -0.54846,-4.77257 0.30507,-6.44758 0.85765,-1.68282 5.81647,-1.53686 7.50669,-1.70583 5.54799,-0.55505 11.11078,-1.77533 16.44581,-3.43061 1.64376,-0.51022 4.32731,-0.86669 5.49167,-2.25061 0.76966,-0.91479 0.34577,-2.35339 0.26436,-3.43346 -5.68078,0.11794 -11.30649,2.81018 -16.85695,3.92683 -9.41194,1.89375 -19.32179,2.02943 -28.780193,0.34291 -4.290289,-0.76514 -8.536601,-1.99118 -12.745494,-3.09963 -1.332934,-0.35111 -3.48692,-1.45627 -4.755304,-0.47364 -3.529684,2.73494 3.573257,4.68623 5.166444,5.10725 7.773121,2.05326 15.763312,4.06376 23.846447,4.06376 l 0.41114,75.6507 c -3.991,-2.1396 -6.665496,-9.22198 -10.284811,-12.45029 C 83.705404,255.20813 71.714345,246.61148 60.019325,238.95062 50.824478,232.92775 41.566277,226.52046 34.328796,218.13475 17.784351,198.96634 10.155728,168.62013 26.498955,147.042 c 3.944104,-5.20756 9.223332,-9.43044 14.607699,-13.05058 6.426202,-4.32031 14.643345,-6.97919 22.201838,-8.52839 11.039243,-2.26293 23.536823,1.80411 31.999425,8.8351 3.068368,2.54911 5.335433,5.71492 7.466003,9.04356 0.60397,0.94316 1.50561,3.26614 2.86033,3.26614 1.24248,0 1.87277,-2.01174 2.42083,-2.855 1.77903,-2.73617 3.61026,-5.42465 5.89419,-7.77475 5.36996,-5.52662 13.45595,-8.79686 20.8985,-10.314 21.89965,-4.4638 47.57072,11.53222 55.72948,31.65654 4.6846,11.55525 4.17355,24.02527 0.38403,35.76963 -4.49218,13.92179 -13.35852,26.95386 -24.45534,36.46857 -15.37806,13.18585 -34.80466,21.34789 -48.92586,36.0266 -3.6818,3.82694 -6.21569,8.17151 -9.04561,12.61188 M 80.165433,132.11866 c -2.649816,0.89752 -4.127483,3.64193 -6.167582,5.37943 -2.871437,2.44549 -7.014553,3.29984 -9.150855,6.67205 -2.492775,3.93425 0.289031,7.52931 4.628673,6.44141 3.417848,-0.85682 5.187422,-5.11752 7.817922,-7.13911 3.104559,-2.38588 6.707418,-1.52536 9.202244,-5.47563 2.688897,-4.25783 -2.667095,-7.11898 -6.330402,-5.87815 m 2.05573,1.11668 c 3.922333,-0.3947 4.224107,3.14278 1.994056,5.50646 -2.306521,2.44466 -5.307059,2.11698 -7.866032,3.78746 -2.936392,1.91717 -4.720759,7.66004 -8.921433,7.30729 -3.023148,-0.25409 -2.082862,-4.11639 -0.736362,-5.65037 2.304049,-2.62476 5.820168,-3.59464 8.502072,-5.68984 2.351336,-1.83699 3.71799,-4.92798 7.027699,-5.261 M 42.34789,135.1303 c -4.004225,2.07669 -5.424443,9.10234 -4.863846,13.14513 0.350055,2.52443 3.059013,4.9617 5.678325,3.68715 4.676783,-2.27487 5.232657,-7.76324 4.896743,-12.3212 -0.225305,-3.05481 -2.166325,-6.35013 -5.711222,-4.51108 m 0.888897,1.06691 c 2.368616,-0.89342 3.373856,2.13837 3.703197,3.85531 0.654128,3.41251 -0.695666,9.66973 -4.600221,10.75146 -2.510086,0.69524 -3.816137,-2.18813 -4.033703,-4.17312 -0.299117,-2.72837 2.162735,-9.38975 4.930727,-10.43365 m 40.628952,10.43365 c 0.133638,1.16641 -0.176372,2.89732 0.717871,3.80637 3.328217,3.38331 12.465507,-0.99538 13.83544,-4.63484 2.41878,-6.42702 -6.232956,-6.39043 -9.61915,-3.87587 -1.835771,1.36296 -3.150198,3.27601 -4.934161,4.70434 m 9.867483,-5.21785 c 2.754676,-0.37866 4.311687,1.8078 2.810602,4.2722 -1.571401,2.57871 -4.831369,4.30799 -7.744343,4.57564 -2.223882,0.20474 -4.923455,-0.84326 -3.041236,-3.45567 1.80822,-2.50964 4.83589,-4.9613 7.974977,-5.39217 M 71.94254,177.05559 c 0.09417,-4.55753 1.040188,-9.29352 -1.290993,-13.56779 -1.121615,-2.05654 -3.228734,-3.36234 -4.467515,-5.34488 -1.807801,-2.89323 -2.24155,-6.48541 -5.752323,-7.95607 -4.879479,-2.04422 -8.299378,4.01852 -12.335598,5.60801 -4.809567,1.89456 -8.600405,-0.79432 -13.155034,0.52792 -6.534543,1.89661 -7.284875,12.86967 -6.973312,18.26594 0.264573,4.58181 4.63952,6.75183 7.258195,9.90448 2.130382,2.56432 0.511384,7.05362 3.096572,9.18745 4.966063,4.09953 13.270382,-1.83822 18.407627,-2.5602 3.508302,-0.49295 7.056898,0.33222 10.278639,-1.66596 2.396975,-1.48711 3.488971,-5.37038 5.843602,-6.39495 1.33211,-0.57931 3.020677,-0.19693 4.435022,-0.61836 3.105786,-0.92549 6.000253,-2.38835 9.045188,-3.4713 2.131376,-0.75815 4.97116,-1.93895 5.57143,-4.38281 0.715804,-2.91501 -1.968975,-3.97165 -4.337995,-3.38577 -5.108885,1.26386 -10.721417,3.85407 -15.623505,5.85429 m 6.167177,-26.86751 c -6.573795,1.70749 -8.619659,12.41864 0,10.10718 2.429452,-0.65126 5.337889,-2.90884 5.987092,-5.44151 0.916852,-3.57655 -2.98573,-5.44521 -5.987092,-4.66567 m -20.144475,1.10845 c 4.201092,-0.60973 5.163164,3.98112 6.62767,6.84639 2.301998,4.50286 5.604731,6.63095 6.661779,11.92321 0.37456,1.87482 -1.626907,6.50965 0.605211,7.6181 0.971939,0.48269 2.41629,-0.33509 3.371789,-0.55874 3.593007,-0.84121 6.505142,-2.07917 9.867483,-3.61108 1.316494,-0.60029 3.910818,-1.86373 5.07271,-0.38608 0.952624,1.21165 -0.443213,2.41878 -1.380204,3.05152 -2.671213,1.80453 -6.109216,2.73412 -9.037387,4.06993 -2.483731,1.13311 -6.508018,0.97236 -8.546469,2.45578 -2.423702,1.7638 -3.30396,5.06571 -6.260926,6.41631 -2.823328,1.29019 -6.079597,0.31988 -9.039019,0.81326 -3.848318,0.64098 -7.252196,2.93928 -11.100919,3.48034 -7.908749,1.11173 -5.168681,-4.64388 -7.879349,-9.32764 -1.002412,-1.73216 -3.190569,-2.6482 -4.543207,-4.10694 -3.954545,-4.2644 -4.456388,-9.55995 -2.284439,-14.8485 0.980906,-2.38835 2.681407,-6.55448 5.268413,-7.56384 2.294602,-0.89466 4.713332,0.52833 6.971711,0.78858 2.131377,0.24544 4.583035,-0.63441 6.572148,-1.34897 3.324938,-1.19439 5.443153,-5.18783 9.053005,-5.71163 m 20.144475,0.50859 c 6.152788,-2.04257 4.942366,5.06202 0.41114,6.79253 -6.441819,2.4607 -5.487548,-5.10726 -0.41114,-6.79253 m 14.802873,0.18213 c -6.504739,3.29163 -5.119997,12.84212 2.876363,9.03985 1.471903,-0.70017 3.254219,-1.69844 3.863532,-3.30149 1.670085,-4.3968 -2.685603,-7.79039 -6.739895,-5.73836 m 1.231788,1.00524 c 1.967328,-0.44856 5.376131,0.99786 4.558358,3.46884 -0.659474,1.99241 -3.455671,3.55764 -5.380654,3.97577 -5.568135,1.21 -2.946259,-6.58489 0.822296,-7.44461 m -15.211961,9.11921 c -7.33771,1.94759 -4.132829,9.72976 2.875555,7.77599 4.907418,-1.36788 2.29541,-9.1488 -2.875555,-7.77599 m -2.878431,5.8987 c 0.46747,-2.15893 4.223703,-7.30399 6.467724,-3.52187 2.608714,4.39556 -4.177644,4.49218 -6.467724,3.52187 m -22.527045,-0.50941 c -3.527633,1.37446 -7.139536,5.43576 -7.55439,9.14346 -0.133172,1.19067 -0.672217,2.83361 0.316179,3.80638 1.544253,1.51919 7.398965,0.0357 9.205942,-0.71581 3.357416,-1.39583 4.664849,-5.70668 3.156368,-8.84496 -0.835038,-1.7375 -2.891997,-4.25864 -5.124099,-3.38907 m 1.558643,0.92055 c 6.612441,7.20656 -0.785281,10.79915 -7.811753,11.10092 0.0047,-6.09686 3.100861,-7.82449 7.811753,-11.10092 z"
       id="path849" />
    <path
       style="fill:#ff8080;stroke:#000000;stroke-width:3.02362;stroke-linejoin:round;stroke-miterlimit:4;stroke-dasharray:none"
       d="m 409.0683,909.5657 c 0,-91.17191 0.54206,-142.59253 1.5225,-144.42448 1.73625,-3.24424 10.99185,-5.37687 29.78587,-6.86311 14.55921,-1.15135 41.50028,-6.72435 62.61674,-12.95282 17.39177,-5.12984 21.0337,-8.12918 20.31237,-16.72846 l -0.45828,-5.46351 -8.39981,0.54423 c -4.61989,0.29934 -17.67777,3.19697 -29.01751,6.43919 -28.31789,8.09653 -39.0655,10.17742 -63.39527,12.27422 -34.74496,2.99441 -67.68946,-0.87243 -112.38666,-13.19131 -22.33426,-6.1555 -24.41333,-6.32671 -28.0486,-2.30977 -4.52797,5.00334 -2.02767,9.96445 7.20011,14.28644 15.24764,7.1415 62.14315,17.31391 92.976,20.16803 l 10.12481,0.93723 1.0658,122.45898 c 0.5862,67.35243 0.84083,130.99884 0.56587,141.43644 l -0.49994,18.9775 -4.97348,-4.978 c -2.73541,-2.7379 -9.82339,-12.1029 -15.75107,-20.8113 -8.1914,-12.034 -14.32751,-18.9051 -25.57128,-28.63443 C 315.35609,963.57705 285.67062,941.48338 232.67234,905.8375 190.68171,877.59521 174.49239,865.71383 156.72209,850.09748 111.40606,810.27419 79.757421,754.22603 69.854346,696.25904 c -4.478433,-26.21421 -3.536716,-57.80022 2.386115,-80.03236 4.458273,-16.73472 14.096715,-38.4162 23.217712,-52.22776 14.698107,-22.25676 49.106927,-51.74635 77.319487,-66.26556 16.60167,-8.54383 43.91126,-18.00222 63.71278,-22.06627 35.95284,-7.37893 75.53085,0.88678 109.13804,22.79306 16.2889,10.61764 27.63304,22.23767 39.95815,40.92997 8.00401,12.13892 10.58419,14.98344 13.59095,14.98344 2.4126,0 4.60343,-1.46973 6.26059,-4.1999 19.1227,-31.50486 33.59645,-45.86472 59.3743,-58.90708 48.63007,-24.6045 103.45015,-23.75909 155.77824,2.40233 49.23387,24.61447 86.82678,65.53707 102.47861,111.55534 8.40178,24.70226 11.20751,60.15461 6.85365,86.6007 -8.26925,50.22881 -32.45909,100.00102 -69.61236,143.23201 -24.53445,28.54792 -46.03634,45.71339 -108.24853,86.41736 -84.79396,55.47868 -105.58323,73.17985 -130.97099,111.51618 l -12.02279,18.1549 z M 192.96417,730.10197 c 14.45076,-5.53282 19.18297,-6.60161 33.84606,-7.64424 22.06582,-1.56901 28.30377,-4.42367 37.11494,-16.98485 7.80218,-11.1228 10.61042,-12.99954 21.43687,-14.32628 4.6199,-0.56615 18.85928,-5.15972 31.64309,-10.20792 26.28221,-10.37862 30.97366,-14.0548 30.97366,-24.27077 0,-7.15983 -4.07482,-10.66009 -12.40992,-10.66009 -6.10866,0 -28.217,7.27057 -48.43311,15.92776 -7.00428,2.99946 -13.01777,5.45357 -13.36333,5.45357 -0.34557,0 -0.62829,-7.77871 -0.62829,-17.28604 0,-22.98195 -2.29208,-30.46137 -12.82815,-41.86035 -4.48159,-4.84863 -10.60022,-13.69255 -13.59694,-19.65315 -7.18619,-14.29359 -12.22425,-20.03107 -19.50459,-22.21231 -8.66456,-2.59596 -15.38479,-0.0763 -31.15535,11.68127 -7.32627,5.46202 -15.14328,10.42154 -17.37114,11.02116 -4.17803,1.1245 -9.92685,1.20589 -32.41987,0.45897 -15.78297,-0.52409 -22.49634,2.05133 -29.09609,11.16202 -7.10361,9.80625 -10.71441,23.71978 -11.62414,44.79144 -0.73193,16.95318 -0.50877,19.18043 2.55615,25.5117 1.84695,3.81528 7.28836,10.57627 12.09204,15.02441 12.95378,11.99505 15.44732,16.0393 17.10459,27.74173 2.78046,19.63355 8.37078,24.40188 27.40962,23.3793 8.77265,-0.47118 15.38734,-2.12107 28.2539,-7.04733 z m 115.4593,-87.16572 c 7.59068,-2.10853 10.95433,-6.29895 10.95433,-13.64684 0,-7.55074 -3.55505,-13.18755 -10.36537,-16.43517 -4.46387,-2.12867 -6.14465,-2.21036 -11.6348,-0.56547 -8.89147,2.66395 -15.07006,9.15508 -15.07006,15.83238 0,11.74737 12.21472,18.67659 26.1159,14.8151 z m 50.3999,-32.31483 c 16.36644,-5.63423 23.11161,-16.53149 18.21101,-29.42108 -1.82694,-4.80521 -10.00833,-10.01375 -15.74132,-10.02146 -16.02127,-0.0215 -30.60723,19.09156 -24.93308,32.6717 3.50832,8.3966 11.09671,10.68387 22.46339,6.77084 z m -56.85776,-6.51126 c 16.79917,-8.68718 22.41833,-27.21699 10.46391,-34.50589 -11.73235,-7.1535 -29.45852,-0.96669 -36.01081,12.56854 -4.54385,9.38636 -4.30785,17.12343 0.67427,22.10556 3.53732,3.53731 4.79272,3.86175 12.04606,3.11314 4.45347,-0.45964 10.22542,-1.93624 12.82657,-3.28135 z M 167.9207,572.31701 c 14.02911,-9.29404 19.86396,-43.27513 9.96201,-58.01687 -2.70602,-4.02865 -4.5122,-5.06671 -9.45393,-5.43349 -13.01439,-0.96592 -23.88795,13.17218 -27.04976,35.17085 -1.99521,13.88188 -0.69851,21.03069 4.9022,27.02627 5.52264,5.912 13.87688,6.39584 21.63948,1.25324 z m 184.49203,-3.4913 c 12.90517,-5.79149 20.2468,-13.83144 21.12682,-23.13635 0.6082,-6.43068 0.19596,-7.81815 -3.29022,-11.07395 -5.69899,-5.3224 -19.18163,-6.18696 -28.96885,-1.8576 -10.21814,4.51996 -25.37368,19.33482 -25.37368,24.80328 0,16.13972 15.19494,20.82842 36.50593,11.26462 z m -87.23753,-0.0111 c 3.24738,-1.34893 11.23529,-8.1498 18.65961,-15.88667 11.06908,-11.5351 14.21898,-13.91523 21.38132,-16.15623 16.66305,-5.21365 24.41896,-12.83787 24.43009,-24.0153 0.009,-9.20987 -7.63913,-14.89057 -20.0482,-14.89057 -8.19696,0 -10.84745,1.58515 -24.23598,14.49459 -6.29985,6.07443 -14.89056,12.80367 -19.09047,14.95387 -16.39998,8.39621 -25.17607,18.25698 -25.1916,28.30516 -0.0107,6.9048 2.38203,10.82693 8.13043,13.32744 6.31214,2.74574 9.09179,2.72271 15.9648,-0.13229 z"
       id="path851"
       transform="scale(0.26458333)" />
    <path
       style="fill:#000000;stroke:#000000;stroke-width:2.64567;stroke-linejoin:round;stroke-miterlimit:4;stroke-dasharray:none"
       d="m 395.56661,1103.4351 c -18.46459,-35.0738 -45.56416,-64.7586 -88.3569,-96.7857 -12.72117,-9.52088 -42.2157,-29.11007 -83.8781,-55.70883 C 144.40263,900.5495 96.133548,853.75457 64.729764,797.18246 37.223101,747.63079 23.138847,687.79194 28.592764,643.64954 c 2.284338,-18.48877 6.026684,-32.16235 16.246503,-59.36059 12.655255,-33.6797 15.008864,-44.97618 14.0287,-67.33271 -1.194157,-27.23749 -8.312144,-49.88705 -24.702014,-78.60227 -4.570508,-8.00758 -9.368867,-17.56648 -10.66302,-21.24201 -5.379189,-15.27744 -1.61615,-34.60804 10.963093,-56.31703 7.26981,-12.54608 25.960549,-37.00365 39.389732,-51.54302 6.834382,-7.39937 7.027045,-7.4941 6.21254,-3.05447 -0.462315,2.51994 -2.206628,9.62079 -3.876251,15.77967 -7.542859,27.82395 -7.309629,47.81279 0.886949,76.01533 2.171437,7.47142 4.77644,18.04989 5.788897,23.5077 1.328915,7.16375 2.559259,10.06167 4.424279,10.42085 2.014649,0.38798 2.583451,-0.63799 2.583451,-4.65993 0,-8.68871 6.997213,-20.29248 18.006127,-29.8603 39.39941,-34.24193 44.13921,-43.50074 45.90732,-89.67608 l 0.99415,-25.96304 4.94583,5.2845 c 2.78473,2.97543 6.26247,9.31506 7.95909,14.50876 5.69801,17.44284 6.69701,28.6761 5.60264,62.99896 -0.96425,30.24202 -0.49623,40.15041 1.89654,40.15041 0.54036,0 2.63813,-3.12094 4.66171,-6.93542 5.11666,-9.64499 19.34066,-22.3103 32.38483,-28.83603 6.04319,-3.02328 11.23133,-5.25315 11.52924,-4.95526 0.29788,0.2979 -2.56808,7.10627 -6.36883,15.12972 -7.39087,15.60228 -12.97582,34.61279 -12.97582,44.16814 0,3.22555 0.24107,5.86465 0.53572,5.86465 0.29464,0 2.87185,-0.80423 5.72714,-1.78717 9.78172,-3.36741 16.81663,-9.42865 26.14178,-22.52359 14.99959,-21.06336 17.9942,-23.40655 17.9942,-14.07991 0,10.98357 14.27793,29.36144 32.34112,41.62791 8.84671,6.00768 36.16319,19.70265 43.84692,21.9824 3.39218,1.00645 3.56718,0.77906 2.53022,-3.28758 -6.15194,-24.12577 -6.79337,-37.07199 -2.51741,-50.81066 3.61276,-11.60784 8.67453,-19.52498 27.09257,-42.37569 21.8327,-27.08717 29.20607,-43.96213 35.54742,-81.35512 1.76995,-10.43687 3.55031,-19.30833 3.95633,-19.71435 2.11316,-2.11316 21.07597,46.10284 24.81216,63.08887 3.21288,14.60693 3.04929,40.11949 -0.33809,52.7271 -3.46159,12.88384 -3.60397,26.81564 -0.33798,33.06874 2.90562,5.56313 8.57384,11.48338 22.86122,23.87769 8.00395,6.94343 10.77059,10.49649 12.9037,16.57161 3.94006,11.22135 8.33593,15.06174 17.24029,15.06174 30.75712,0 59.18679,-37.01221 65.6914,-85.52278 0.95716,-7.13845 1.92569,-13.1644 2.1523,-13.39099 1.55843,-1.55844 9.68988,14.43137 15.22349,29.93573 3.63255,10.17789 8.50909,21.0021 10.83673,24.0538 4.13599,5.42256 14.14412,11.22454 19.47723,11.29147 3.39673,0.0426 3.32962,-1.51387 -0.96129,-22.29324 -2.65731,-12.86843 -5.07432,-19.83783 -9.97908,-28.77456 -3.55983,-6.48621 -6.17376,-12.09177 -5.80872,-12.45681 0.71079,-0.7108 16.56817,7.95192 24.52876,13.39981 7.87753,5.39105 14.62381,12.28277 19.57342,19.9954 2.56052,3.98991 5.09931,7.25459 5.64174,7.25484 0.54241,2.5e-4 0.98621,-19.07113 0.98621,-42.38085 0,-35.795 0.42023,-43.92402 2.70411,-52.30835 3.34441,-12.2776 8.50858,-22.63764 12.65501,-25.38767 3.11969,-2.06906 3.14254,-1.92893 3.33207,20.43378 0.36183,42.69436 8.89821,61.70303 38.62463,86.00883 16.79589,13.73315 24.09416,23.53089 25.65477,34.4409 0.56589,3.95599 1.74339,7.4309 2.61669,7.72199 0.95969,0.31989 4.68858,-16.61552 9.42615,-42.81057 l 7.83833,-43.33983 -5.29351,-21.00665 c -2.91144,-11.55366 -5.07054,-21.67561 -4.798,-22.49323 0.59088,-1.77264 23.10608,25.08035 35.48582,42.32254 16.06653,22.37704 22.2671,38.28889 22.31768,57.27141 0.0368,13.79679 -2.21471,20.63993 -12.26529,37.27918 -15.08453,24.97318 -22.74688,49.84559 -24.07533,78.14978 -1.13492,24.18091 1.20201,34.64534 15.72477,70.41332 17.4338,42.93754 18.20943,46.3589 18.11252,79.89707 -0.0666,23.05654 -0.69182,31.07356 -3.39877,43.58213 -13.53331,62.53609 -50.15643,125.67733 -97.47318,168.05172 -27.71535,24.82041 -48.22299,40.17942 -108.31816,81.1239 -61.8979,42.17267 -81.88082,57.37857 -105.89512,80.58007 -24.22965,23.4095 -40.19587,45.5284 -48.16421,66.7248 l -3.51768,9.3572 z m 26.80687,-69.1241 c 16.5346,-24.9419 41.27455,-49.5752 70.69289,-70.38823 12.17972,-8.61698 23.35549,-16.66541 24.83507,-17.88542 1.47957,-1.22 3.08418,-2.21819 3.56579,-2.21819 0.48163,0 6.83089,-4.05858 14.10949,-9.01907 7.2786,-4.9605 23.8863,-16.05235 36.90601,-24.64857 33.76215,-22.2914 50.18959,-34.99475 70.02264,-54.14852 27.45965,-26.51922 46.47862,-52.11016 62.49418,-84.08899 22.45236,-44.83142 31.78574,-87.44346 27.83476,-127.08128 -4.52763,-45.42319 -22.43561,-81.36389 -57.0101,-114.41731 -30.84674,-29.48968 -67.74466,-48.57284 -108.87925,-56.31104 -17.41767,-3.27662 -49.40792,-2.25305 -66.2424,2.11948 -44.16298,11.47073 -68.99262,29.12406 -92.19695,65.54999 -3.87941,6.08986 -7.69614,11.07247 -8.48165,11.07247 -2.28583,0 -5.8588,-4.17035 -14.23084,-16.61013 -21.94855,-32.61277 -53.8974,-53.77243 -93.65378,-62.02671 -56.76878,-11.78644 -134.02863,17.23343 -181.77895,68.27867 -41.679255,44.55525 -55.160393,108.21221 -37.286353,176.06346 10.304384,39.11625 28.367493,73.43401 55.676873,105.77946 19.60185,23.21658 45.88817,44.95997 90.64412,74.97854 57.7687,38.74645 76.44402,52.11272 105.56978,75.55827 24.42267,19.65967 37.96583,33.23582 46.6134,46.72692 7.49729,11.6965 16.51879,22.3167 20.9901,24.7096 2.77056,1.4828 2.85121,-0.7838 2.76112,-77.58738 -0.051,-43.51313 -0.52778,-108.1158 -1.05941,-143.56146 l -0.96662,-64.44666 -8.53537,-0.9828 c -32.34151,-3.72391 -65.55006,-10.30436 -85.66085,-16.97417 -16.12326,-5.34735 -23.07222,-12.61629 -14.93763,-15.62546 3.45274,-1.27725 16.69651,1.23941 39.37344,7.48198 32.00931,8.81163 72.20428,12.39024 103.25061,9.19252 19.98603,-2.05852 32.08274,-4.49397 63.6821,-12.82125 23.126,-6.09432 29.29613,-6.74911 30.63833,-3.25143 1.92813,5.02466 -1.74996,9.56911 -10.34869,12.78631 -17.76009,6.6449 -45.35981,12.64391 -74.97039,16.29535 -21.08899,2.6006 -26.08641,4.21542 -27.324,8.82927 -1.57695,5.87902 -1.04882,286.61378 0.5392,286.61378 0.80799,0 6.82149,-8.0739 13.36333,-17.942 z"
       id="path859"
       transform="scale(0.26458333)" />
    <path
       style="fill:#000000;stroke:#000000;stroke-width:0;stroke-linejoin:round;stroke-miterlimit:4;stroke-dasharray:none"
       d="m 98.521426,373.07542 c 1.454472,-4.67748 2.710024,-18.33094 3.481604,-37.86047 0.8928,-22.59803 1.8997,-32.53143 3.87021,-38.18094 2.93018,-8.40089 7.01089,-16.03599 8.57071,-16.03599 0.55066,0 1.4697,3.6081 2.04231,8.01799 0.57261,4.4099 2.05539,11.97322 3.29506,16.80738 6.24527,24.35378 5.73767,45.72595 -1.38771,58.42865 -3.33717,5.9493 -12.58166,13.40408 -18.841744,15.19402 -3.276478,0.93684 -3.285457,0.88134 -1.03044,-6.37064 z"
       id="path861"
       transform="scale(0.26458333)" />
    <path
       style="fill:#000000;stroke:#000000;stroke-width:0;stroke-linejoin:round;stroke-miterlimit:4;stroke-dasharray:none"
       d="m 91.40286,267.2365 c 0,-13.92887 -0.553186,-16.88343 -6.219346,-33.21742 l -6.219345,-17.92866 2.624061,-16.52226 c 3.132224,-19.72189 3.20963,-19.69684 14.23772,4.60599 14.82905,32.67908 17.37945,51.98268 8.80177,66.61937 -3.37661,5.76175 -9.69048,11.73173 -12.407508,11.73173 -0.449544,0 -0.817352,-6.87993 -0.817352,-15.28875 z"
       id="path863"
       transform="scale(0.26458333)" />
    <path
       style="fill:#000000;stroke:#000000;stroke-width:0;stroke-linejoin:round;stroke-miterlimit:4;stroke-dasharray:none"
       d="m 196.38979,347.81466 c 0.63585,-6.08986 1.0885,-19.31955 1.00589,-29.39932 -0.16124,-19.67548 0.71768,-16.20937 -12.9735,-51.16246 -4.73091,-12.07786 -5.08163,-14.20413 -5.03833,-30.54476 0.0429,-16.17224 0.5049,-18.94592 5.83405,-35.0217 6.53077,-19.70052 6.16232,-19.711 13.06683,0.37159 2.36464,6.87784 8.05855,20.40862 12.65312,30.0684 23.17795,48.73011 24.26734,72.296 4.84039,104.70778 -5.29716,8.83774 -16.87742,22.05295 -19.32463,22.05295 -0.67095,0 -0.69967,-4.98262 -0.0638,-11.07248 z"
       id="path865"
       transform="scale(0.26458333)" />
    <path
       style="fill:#000000;stroke:#000000;stroke-width:0;stroke-linejoin:round;stroke-miterlimit:4;stroke-dasharray:none"
       d="m 247.74207,315.74267 c 0.77425,-8.6098 1.48021,-28.36844 1.56881,-43.90808 0.18689,-32.7813 -0.22808,-34.82931 -14.43473,-71.23964 -17.11602,-43.86681 -17.42937,-55.68502 -2.6339,-99.33821 8.65333,-25.531156 11.88438,-31.743041 11.88438,-22.848452 0,11.969247 8.5656,32.301902 29.69286,70.483672 6.97185,12.59971 14.53484,27.623 16.80665,33.38508 15.06119,38.20032 9.08488,80.541 -16.89797,119.71784 -8.35503,12.59769 -23.27626,29.40198 -26.10723,29.40198 -0.70763,0 -0.65312,-7.04438 0.12113,-15.65419 z"
       id="path867"
       transform="scale(0.26458333)" />
    <path
       style="fill:#000000;stroke:#000000;stroke-width:0;stroke-linejoin:round;stroke-miterlimit:4;stroke-dasharray:none"
       d="m 306.84141,422.08402 c -8.88118,-9.71743 -20.29882,-31.95755 -22.87798,-44.56339 -2.30209,-11.25167 -2.06691,-28.63543 0.52151,-38.54852 2.48083,-9.50101 7.51575,-20.64251 20.67756,-45.75619 5.06258,-9.65978 10.32284,-20.99952 11.68947,-25.19942 1.36662,-4.19991 3.06322,-8.26477 3.77023,-9.03302 1.75947,-1.91191 10.04405,16.00522 12.19798,26.38066 0.96107,4.62944 1.44094,15.27289 1.07175,23.77144 -0.6983,16.07487 -1.43266,18.69422 -12.8779,45.93346 -5.77274,13.73891 -5.77538,13.75519 -5.82311,35.89009 -0.0263,12.17972 0.4737,26.09667 1.11103,30.92656 0.67247,5.09629 0.57655,8.78162 -0.22856,8.78162 -0.76304,0 -4.91742,-3.86248 -9.23198,-8.58329 z"
       id="path869"
       transform="scale(0.26458333)" />
    <path
       style="fill:#000000;stroke:#000000;stroke-width:0;stroke-linejoin:round;stroke-miterlimit:4;stroke-dasharray:none"
       d="m 99.794447,70.615249 c 7.204413,-4.595712 10.705033,-11.003028 10.263473,-18.785614 -0.28437,-5.011852 -5.76682,-24.351668 -6.92808,-24.439353 -0.33774,-0.02551 -1.61702,1.205668 -2.84285,2.735935 -3.352473,4.185111 -4.041923,9.668644 -2.372633,18.870578 1.29594,7.143759 1.26744,8.458498 -0.34392,15.863143 -0.96634,4.440588 -1.68724,8.079065 -1.60214,8.085493 0.0852,0.0064 1.80695,-1.042152 3.82612,-2.330186 z"
       id="path871" />
    <path
       style="fill:#000000;stroke:#000000;stroke-width:0;stroke-linejoin:round;stroke-miterlimit:4;stroke-dasharray:none"
       d="m 447.82599,356.53253 c 2.23551,-5.82566 4.23553,-31.54443 3.29416,-42.3605 -1.20336,-13.82623 -4.13257,-24.56764 -12.91869,-47.37287 -7.33673,-19.04319 -8.97106,-30.99929 -6.3191,-46.22797 1.84303,-10.58344 10.31862,-34.26191 12.26389,-34.26191 0.57589,0 3.00981,5.66987 5.4087,12.59971 2.39889,6.92984 8.75073,22.17676 14.1152,33.88204 15.58615,34.009 17.82246,41.60371 17.79245,60.42489 -0.0288,18.089 -2.0604,25.55377 -11.01451,40.4718 -8.26894,13.77647 -26.0217,31.70401 -22.6221,22.84481 z"
       id="path873"
       transform="scale(0.26458333)" />
    <path
       style="fill:#000000;stroke:#000000;stroke-width:0;stroke-linejoin:round;stroke-miterlimit:4;stroke-dasharray:none"
       d="m 539.18162,324.5023 c -13.81159,-12.41782 -30.38715,-42.22942 -38.28321,-68.85345 -7.24526,-24.4296 -9.66608,-52.31968 -6.22622,-71.73174 2.55896,-14.4409 5.61645,-22.63606 19.05017,-51.06115 19.6032,-41.479392 33.91339,-84.375736 36.69685,-110.002735 1.58976,-14.6367988 2.81298,-15.5857106 6.69977,-5.197345 8.06951,21.567707 14.21153,64.112725 14.31585,99.16409 0.11424,38.38334 -3.25604,57.196 -15.88579,88.67362 -14.12834,35.21263 -15.76321,49.18189 -10.71327,91.54042 1.80254,15.11966 3.61918,29.03661 4.03697,30.92656 1.11583,5.04769 -1.11642,4.25112 -9.69112,-3.45827 z"
       id="path875"
       transform="scale(0.26458333)" />
    <path
       style="fill:#000000;stroke:#000000;stroke-width:0;stroke-linejoin:round;stroke-miterlimit:4;stroke-dasharray:none"
       d="m 480.03198,421.66899 c -0.0445,-14.93649 -0.72843,-19.96899 -4.34275,-31.95651 -4.24312,-14.07305 -4.26402,-14.34272 -1.91728,-24.73443 1.30494,-5.77844 4.88853,-15.5263 7.96353,-21.66191 7.94167,-15.84615 17.57821,-32.14408 18.47546,-31.24683 0.41957,0.41957 1.41958,3.73722 2.22223,7.37254 0.80265,3.63532 3.92898,13.13862 6.94739,21.11844 6.42017,16.97311 7.25407,30.78834 2.85772,47.34436 -4.53907,17.09348 -18.9945,41.52389 -29.09896,49.17871 -3.01131,2.28127 -3.05522,2.06343 -3.10734,-15.41437 z"
       id="path877"
       transform="scale(0.26458333)" />
    <path
       style="fill:#000000;stroke:#000000;stroke-width:0;stroke-linejoin:round;stroke-miterlimit:4;stroke-dasharray:none"
       d="m 589.68203,350.6339 c -4.14865,-4.53929 -10.39279,-13.73089 -13.87586,-20.4258 -8.60757,-16.54483 -11.40117,-29.29729 -10.61285,-48.44646 0.73567,-17.87045 2.70798,-23.22742 19.36962,-52.60963 10.03842,-17.70239 16.12944,-32.28552 17.23633,-41.26722 l 0.46459,-3.76982 2.65674,4.07359 c 1.4612,2.24047 4.48737,10.1222 6.7248,17.51496 3.30767,10.9289 4.08262,16.58157 4.14586,30.24099 0.0836,18.05806 0.51835,16.41462 -12.92775,48.8716 -4.89235,11.80946 -5.06357,12.93268 -5.12146,33.59923 -0.0329,11.75973 0.48967,25.67668 1.16136,30.92656 0.75017,5.86322 0.66201,9.54524 -0.22856,9.54524 -0.79741,0 -4.84418,-3.71395 -8.99282,-8.25324 z"
       id="path879"
       transform="scale(0.26458333)" />
    <path
       style="fill:#000000;stroke:#000000;stroke-width:0;stroke-linejoin:round;stroke-miterlimit:4;stroke-dasharray:none"
       d="m 690.73601,375.80848 c -11.25915,-8.29377 -19.03297,-22.19935 -20.10704,-35.96689 -0.51285,-6.57374 0.42404,-14.23339 3.27458,-26.77158 2.19613,-9.65978 4.43348,-21.25648 4.9719,-25.77045 l 0.97893,-8.20722 2.92882,3.6255 c 8.89484,11.01068 9.93987,17.56063 8.98499,56.31521 -0.39115,15.87464 0.0656,20.87448 2.7116,29.68108 1.75009,5.82484 2.97398,10.79862 2.71976,11.05284 -0.25423,0.25423 -3.16282,-1.5271 -6.46354,-3.95849 z"
       id="path881"
       transform="scale(0.26458333)" />
    <path
       style="fill:#000000;stroke:#000000;stroke-width:0;stroke-linejoin:round;stroke-miterlimit:4;stroke-dasharray:none"
       d="m 697.07614,277.47765 c -5.72585,-7.50697 -10.18974,-18.59816 -11.12247,-27.63535 -1.03012,-9.98094 2.15495,-21.5006 10.57114,-38.23332 3.40767,-6.775 7.69691,-16.30878 9.53163,-21.18619 l 3.33587,-8.868 2.94357,6.55086 c 4.69959,10.45886 3.72334,24.45053 -3.17807,45.548 -5.10158,15.59543 -5.75018,19.31714 -5.78893,33.21742 -0.024,8.6098 -0.58344,15.65418 -1.24319,15.65418 -0.65976,0 -2.93205,-2.27142 -5.04955,-5.0476 z"
       id="path883"
       transform="scale(0.26458333)" />
    <path
       style="fill:#ff5555;stroke:#000000;stroke-width:0;stroke-linejoin:round;stroke-miterlimit:4;stroke-dasharray:none"
       d="m 151.32509,726.29852 c -1.761,-2.23875 -4.30908,-8.93868 -5.66239,-14.88875 -3.34128,-14.69047 -5.58404,-18.48063 -15.25722,-25.78395 -13.11515,-9.90204 -20.64688,-24.0998 -20.66725,-38.959 -0.0184,-13.39735 10.66222,-38.87864 19.57697,-46.70589 4.80648,-4.22015 5.93556,-4.54229 13.07357,-3.73005 25.11789,2.85818 28.01021,2.82184 37.85282,-0.47559 6.33996,-2.12399 13.31466,-6.17415 20.2612,-11.76555 11.55728,-9.30269 15.50113,-11.28933 22.41135,-11.28933 6.21442,0 10.67072,4.87663 17.97732,19.67297 3.35203,6.78808 9.20961,16.70726 13.01685,22.04263 3.80724,5.33537 8.67098,13.42348 10.80831,17.97357 3.58664,7.63551 3.81047,9.34867 2.90514,22.23545 -0.95688,13.62035 -0.88943,14.02249 2.75164,16.40822 3.48311,2.28222 4.62282,2.18757 17.05336,-1.41616 7.32644,-2.12401 20.50523,-6.9305 29.28621,-10.68108 8.78097,-3.75058 16.89608,-6.81924 18.03357,-6.81924 1.1375,0 3.19167,1.24145 4.56484,2.75877 2.26408,2.50179 2.27622,3.07348 0.13042,6.1371 -4.41113,6.29779 -33.11863,18.72414 -53.94777,23.35187 -15.51872,3.44789 -17.79363,4.84326 -26.64064,16.34061 -10.40718,13.52485 -12.48292,14.48782 -33.81723,15.68828 -16.13041,0.90764 -20.06571,1.70985 -32.83561,6.6935 -10.40922,4.06235 -17.78145,5.89111 -26.0912,6.47217 -11.16496,0.78072 -11.69785,0.66318 -14.78426,-3.26055 z m 53.04362,-44.52733 c 13.70262,-4.06924 19.90383,-12.13477 19.90383,-25.88768 0,-8.10795 -1.58807,-11.75729 -8.11904,-18.65731 -8.50708,-8.98779 -19.20037,-5.82515 -33.3064,9.85068 -10.54377,11.71713 -13.90379,32.57482 -5.91893,36.74238 4.33786,2.26407 15.80099,1.40851 27.44054,-2.04807 z"
       id="path888"
       transform="scale(0.26458333)" />
    <path
       style="fill:#ff5555;stroke:#ff5555;stroke-width:6.80315;stroke-linejoin:round;stroke-miterlimit:4;stroke-dasharray:none"
       d="m 151.06443,723.70594 c -1.7283,-2.83488 -3.14493,-5.94101 -3.14807,-6.90251 -0.003,-0.96149 -1.36179,-6.11592 -3.01922,-11.45428 -3.05737,-9.84737 -4.20013,-11.39568 -18.43588,-24.97848 -4.51722,-4.31004 -9.65292,-11.19983 -11.79055,-15.8176 -3.28134,-7.08842 -3.69262,-9.7408 -3.07861,-19.85409 0.84145,-13.85925 7.65538,-31.71775 15.60515,-40.8992 l 5.10847,-5.89995 h 23.45665 c 26.76162,0 27.54647,-0.25059 48.46564,-15.47478 9.01843,-6.56327 12.4435,-8.1974 17.18143,-8.1974 7.2711,0 9.855,2.41207 17.40564,16.24823 3.14505,5.76313 9.94466,17.351 15.11025,25.7508 12.83824,20.87637 13.10986,21.68542 13.10986,39.04917 0,14.77434 0.11531,15.28576 3.82524,16.97616 4.84153,2.20594 15.28942,-0.54393 42.06827,-11.07234 10.54177,-4.14461 20.25103,-7.53566 21.57614,-7.53566 3.10801,0 6.40212,3.96024 5.07724,6.10393 -3.48677,5.64172 -28.15806,16.63897 -51.7333,23.06018 -9.13205,2.48731 -17.94657,5.46293 -19.5878,6.61249 -1.64123,1.14957 -6.70185,6.59737 -11.2458,12.10622 -9.54856,11.57615 -11.59408,12.41384 -35.79712,14.65958 -11.08416,1.02848 -20.28043,2.98449 -29.78113,6.33434 -9.00227,3.1741 -17.79699,5.10399 -25.48764,5.59295 l -11.7425,0.74658 z m 49.50913,-40.33799 c 17.72216,-4.61603 23.69898,-11.54733 23.69898,-27.48363 0,-14.44724 -7.49326,-23.62164 -19.29315,-23.62164 -10.71402,0 -25.32353,13.2662 -30.37422,27.58139 -3.04744,8.63735 -2.92025,19.55509 0.26885,23.07901 3.18586,3.52034 13.22483,3.69412 25.69954,0.44487 z"
       id="path892"
       transform="scale(0.26458333)" />
    <path
       style="fill:#ff5555;stroke:#ff5555;stroke-width:4.15748;stroke-linejoin:round;stroke-miterlimit:4;stroke-dasharray:none"
       d="m 151.19488,566.0724 c -5.4901,-5.84394 -6.6641,-12.63318 -3.99972,-23.13028 4.13947,-16.30864 15.82249,-30.98952 21.77005,-27.35622 12.48553,7.62727 9.17252,42.60133 -4.84523,51.14909 -6.23032,3.79912 -8.86019,3.66431 -12.9251,-0.66259 z"
       id="path902"
       transform="scale(0.26458333)" />
    <path
       style="fill:#ff5555;stroke:#ff5555;stroke-width:6.34946;stroke-linejoin:round;stroke-miterlimit:4;stroke-dasharray:none"
       d="m 250.54103,563.23154 c -2.48718,-2.48718 -2.30906,-9.61571 0.3697,-14.79586 2.18416,-4.22369 11.50884,-11.15985 25.88631,-19.25552 4.10905,-2.31372 10.98162,-7.83002 15.27238,-12.25844 7.97388,-8.2297 15.39478,-12.947 20.36724,-12.947 4.99934,0 9.57909,4.43314 9.57909,9.27245 0,7.4249 -7.98536,14.53262 -22.14495,19.71109 -10.22611,3.73991 -13.21379,5.65584 -18.32685,11.75258 -12.8225,15.28937 -18.83292,20.35338 -24.15717,20.35338 -2.75719,0 -5.83778,-0.82471 -6.84575,-1.83268 z"
       id="path904"
       transform="scale(0.26458333)" />
    <path
       style="fill:#ff5555;stroke:#ff5555;stroke-width:6.34946;stroke-linejoin:round;stroke-miterlimit:4;stroke-dasharray:none"
       d="m 324.41569,564.19151 c -3.22366,-3.22365 -3.0878,-3.95068 1.91455,-10.24531 10.91991,-13.74092 26.12201,-21.49814 34.57917,-17.6448 10.94232,4.98566 2.60879,20.64767 -14.87282,27.95195 -7.35036,3.07118 -18.51983,3.03923 -21.6209,-0.0618 z"
       id="path906"
       transform="scale(0.26458333)" />
    <path
       style="fill:#ff5555;stroke:#ff5555;stroke-width:6.34946;stroke-linejoin:round;stroke-miterlimit:4;stroke-dasharray:none"
       d="m 344.5425,604.65007 c -5.88319,-3.42664 -1.44486,-17.99033 7.21105,-23.6619 7.38444,-4.83847 20.66104,0.14928 20.66104,7.76193 0,4.54168 -6.2264,10.95009 -14.12058,14.53334 -7.35129,3.33683 -9.92905,3.59301 -13.75151,1.36663 z"
       id="path908"
       transform="scale(0.26458333)" />
    <path
       style="fill:#ff5555;stroke:#ff5555;stroke-width:6.34946;stroke-linejoin:round;stroke-miterlimit:4;stroke-dasharray:none"
       d="m 282.61302,598.358 c -5.63022,-5.63021 1.25747,-18.64229 12.2877,-23.21365 9.66129,-4.00402 14.89713,-1.96343 14.89713,5.80595 0,11.93844 -19.90683,24.68571 -27.18483,17.4077 z"
       id="path910"
       transform="scale(0.26458333)" />
    <path
       style="fill:#ff5555;stroke:#ff5555;stroke-width:6.34946;stroke-linejoin:round;stroke-miterlimit:4;stroke-dasharray:none"
       d="m 288.41652,634.01906 c 0,-2.78945 9.47505,-14.18175 13.21068,-15.88382 3.5315,-1.60906 4.33158,-1.35264 7.58648,2.43141 4.41149,5.12866 4.71727,11.0113 0.68457,13.16953 -3.54119,1.89519 -21.48173,2.13144 -21.48173,0.28288 z"
       id="path912"
       transform="scale(0.26458333)" />
    <path
       style="fill:#ff8080;stroke:#000000;stroke-width:5.29134;stroke-linejoin:round;stroke-miterlimit:4;stroke-dasharray:none"
       d="m 179.98265,673.57039 c 0,-10.44908 7.52186,-21.47352 21.07437,-30.88772 7.39588,-5.13752 9.04676,-4.63426 13.14779,4.00802 7.32593,15.43825 -1.99546,25.20011 -29.25864,30.64121 -4.74866,0.94772 -4.96352,0.78489 -4.96352,-3.76151 z"
       id="path914"
       transform="scale(0.26458333)" />
    <path
       style="opacity:1;fill:#000000;stroke:#000000;stroke-width:0.130096;stroke-linejoin:round;stroke-miterlimit:4;stroke-dasharray:none"
       id="path995-37"
       sodipodi:type="arc"
       sodipodi:cx="196.0489"
       sodipodi:cy="-21.248512"
       sodipodi:rx="0.28162265"
       sodipodi:ry="1.337708"
       sodipodi:start="6.0164905"
       sodipodi:end="6.0121531"
       sodipodi:arc-type="slice"
       d="m 196.32057,-21.601058 a 0.28162265,1.337708 0 0 1 -0.19715,1.642579 0.28162265,1.337708 0 0 1 -0.34602,-0.93469 0.28162265,1.337708 0 0 1 0.1964,-1.644606 0.28162265,1.337708 0 0 1 0.34645,0.931123 l -0.27135,0.35814 z"
       transform="rotate(74.514994)" />
    <path
       style="opacity:1;fill:#000000;stroke:#000000;stroke-width:0.247608;stroke-linejoin:round;stroke-miterlimit:4;stroke-dasharray:none"
       id="path995-5"
       sodipodi:type="arc"
       sodipodi:cx="156.51682"
       sodipodi:cy="-44.290894"
       sodipodi:rx="0.53600264"
       sodipodi:ry="2.5460134"
       sodipodi:start="6.0164905"
       sodipodi:end="6.0121531"
       sodipodi:arc-type="slice"
       d="m 157.03387,-44.961881 a 0.53600264,2.5460134 0 0 1 -0.37523,3.126263 0.53600264,2.5460134 0 0 1 -0.65857,-1.778963 0.53600264,2.5460134 0 0 1 0.3738,-3.130122 0.53600264,2.5460134 0 0 1 0.65938,1.772175 l -0.51643,0.681634 z"
       transform="rotate(89.896459)" />
    <path
       style="opacity:1;fill:#000000;stroke:#000000;stroke-width:0.247608;stroke-linejoin:round;stroke-miterlimit:4;stroke-dasharray:none"
       id="path995"
       sodipodi:type="arc"
       sodipodi:cx="158.38708"
       sodipodi:cy="40.470932"
       sodipodi:rx="0.53600264"
       sodipodi:ry="2.5460134"
       sodipodi:start="6.0164905"
       sodipodi:end="6.0121531"
       sodipodi:arc-type="slice"
       d="m 158.90414,39.799944 a 0.53600264,2.5460134 0 0 1 -0.37523,3.126264 0.53600264,2.5460134 0 0 1 -0.65857,-1.778963 0.53600264,2.5460134 0 0 1 0.3738,-3.130122 0.53600264,2.5460134 0 0 1 0.65938,1.772175 l -0.51644,0.681634 z"
       transform="rotate(47.741605)" />
    <path
       style="opacity:1;fill:#000000;stroke:#000000;stroke-width:0.247608;stroke-linejoin:round;stroke-miterlimit:4;stroke-dasharray:none"
       id="path995-4"
       sodipodi:type="arc"
       sodipodi:cx="151.75734"
       sodipodi:cy="37.429184"
       sodipodi:rx="0.53600264"
       sodipodi:ry="2.5460134"
       sodipodi:start="6.0164905"
       sodipodi:end="6.0121531"
       sodipodi:arc-type="slice"
       d="m 152.27439,36.758196 a 0.53600264,2.5460134 0 0 1 -0.37523,3.126264 0.53600264,2.5460134 0 0 1 -0.65857,-1.778963 0.53600264,2.5460134 0 0 1 0.37381,-3.130122 0.53600264,2.5460134 0 0 1 0.65938,1.772175 l -0.51644,0.681634 z"
       transform="rotate(47.741604)" />
    <path
       style="opacity:1;fill:#000000;stroke:#000000;stroke-width:0.247608;stroke-linecap:round;stroke-linejoin:round;stroke-miterlimit:4;stroke-dasharray:none"
       id="path995-2"
       sodipodi:type="arc"
       sodipodi:cx="29.932165"
       sodipodi:cy="-169.24858"
       sodipodi:rx="0.53600264"
       sodipodi:ry="2.5460134"
       sodipodi:start="6.0164905"
       sodipodi:end="6.0121531"
       sodipodi:arc-type="slice"
       d="m 30.449219,-169.91957 a 0.53600264,2.5460134 0 0 1 -0.375233,3.12626 0.53600264,2.5460134 0 0 1 -0.658567,-1.77896 0.53600264,2.5460134 0 0 1 0.373804,-3.13012 0.53600264,2.5460134 0 0 1 0.659378,1.77217 l -0.516436,0.68164 z"
       transform="rotate(147.21878)"
       inkscape:transform-center-x="-1.8914475e-05"
       inkscape:transform-center-y="-0.20204358" />
    <rect
       style="opacity:1;fill:#000000;stroke:#000000;stroke-width:1.4;stroke-linecap:round;stroke-linejoin:round;stroke-miterlimit:4;stroke-dasharray:none"
       id="rect1018"
       width="0.20204081"
       height="0.30306125"
       x="185.38313"
       y="43.999149"
       transform="rotate(54.251578)"
       inkscape:transform-center-x="-0.10102041"
       inkscape:transform-center-y="-0.10102041" />
    <path
       style="opacity:1;fill:#000000;stroke:#000000;stroke-width:0.247608;stroke-linejoin:round;stroke-miterlimit:4;stroke-dasharray:none"
       id="path995-3"
       sodipodi:type="arc"
       sodipodi:cx="-60.150944"
       sodipodi:cy="179.09673"
       sodipodi:rx="0.53600264"
       sodipodi:ry="2.5460134"
       sodipodi:start="6.0164905"
       sodipodi:end="6.0121531"
       sodipodi:arc-type="slice"
       d="m -59.63389,178.42574 a 0.53600264,2.5460134 0 0 1 -0.375233,3.12626 0.53600264,2.5460134 0 0 1 -0.658567,-1.77896 0.53600264,2.5460134 0 0 1 0.373804,-3.13012 0.53600264,2.5460134 0 0 1 0.659378,1.77217 l -0.516436,0.68164 z"
       transform="rotate(-29.538466)" />
    <path
       style="opacity:1;fill:#000000;stroke:#000000;stroke-width:0.247608;stroke-linejoin:round;stroke-miterlimit:4;stroke-dasharray:none"
       id="path995-9"
       sodipodi:type="arc"
       sodipodi:cx="148.10939"
       sodipodi:cy="67.282211"
       sodipodi:rx="0.53600264"
       sodipodi:ry="2.5460134"
       sodipodi:start="6.0164905"
       sodipodi:end="6.0121531"
       sodipodi:arc-type="slice"
       d="m 148.62644,66.611223 a 0.53600264,2.5460134 0 0 1 -0.37523,3.126264 0.53600264,2.5460134 0 0 1 -0.65857,-1.778963 0.53600264,2.5460134 0 0 1 0.37381,-3.130122 0.53600264,2.5460134 0 0 1 0.65938,1.772175 l -0.51644,0.681634 z"
       transform="rotate(47.741604)" />
  </g>
</svg>
