<svg xmlns="http://www.w3.org/2000/svg" xmlns:xlink="http://www.w3.org/1999/xlink" viewBox="0 0 256 256">
    <defs>
        <linearGradient id="innoGrad4">
            <stop offset="0" stop-color="#f55"/>
            <stop offset=".096" stop-color="#f55" stop-opacity="0"/>
            <stop offset=".9" stop-color="#f55" stop-opacity=".502"/>
            <stop offset="1" stop-color="#f55"/>
        </linearGradient>
        <linearGradient id="innoGrad3">
            <stop offset="0" stop-color="#ff2a2a" stop-opacity="0"/>
            <stop offset=".228" stop-color="#ff2a2a" stop-opacity=".502"/>
            <stop offset="1" stop-color="#ff2a2a" stop-opacity="0"/>
        </linearGradient>
        <linearGradient id="innoGrad2">
            <stop offset="0" stop-color="#ff2a2a" stop-opacity=".502"/>
            <stop offset="1" stop-color="#ff2a2a" stop-opacity="0"/>
        </linearGradient>
        <linearGradient id="innoGrad1">
            <stop offset="0" stop-color="#ff2a2a" stop-opacity="0"/>
            <stop offset="1" stop-color="#ff2a2a" stop-opacity=".502"/>
        </linearGradient>
        <linearGradient id="linearGradient1026" x1="21.324" x2="66.167" y1="135.301" y2="139.903" gradientUnits="userSpaceOnUse" xlink:href="#innoGrad1"/>
        <linearGradient id="linearGradient1049" x1="58.999" x2="107.946" y1="129.042" y2="129.042" gradientUnits="userSpaceOnUse" xlink:href="#innoGrad2"/>
        <linearGradient id="linearGradient1080" x1="70.225" x2="106.625" y1="108.798" y2="108.798" gradientUnits="userSpaceOnUse" xlink:href="#innoGrad2"/>
        <linearGradient id="linearGradient1103" x1="67.719" x2="106.572" y1="85.264" y2="85.264" gradientUnits="userSpaceOnUse" xlink:href="#innoGrad2"/>
        <linearGradient id="linearGradient1126" x1="147.354" x2="197.002" y1="130.003" y2="130.003" gradientUnits="userSpaceOnUse" xlink:href="#innoGrad1"/>
        <linearGradient id="linearGradient1149" x1="149.376" x2="185.769" y1="108.798" y2="108.798" gradientUnits="userSpaceOnUse" xlink:href="#innoGrad1"/>
        <linearGradient id="linearGradient1172" x1="149.426" x2="188.278" y1="85.264" y2="85.264" gradientUnits="userSpaceOnUse" xlink:href="#innoGrad1"/>
        <linearGradient id="linearGradient1195" x1="162.34" x2="191.15" y1="188.774" y2="188.774" gradientUnits="userSpaceOnUse" xlink:href="#innoGrad1"/>
        <linearGradient id="linearGradient1218" x1="179.146" x2="237.375" y1="147.956" y2="135.3" gradientUnits="userSpaceOnUse" xlink:href="#innoGrad3"/>
        <linearGradient id="linearGradient963" x1="49.277" x2="43.835" y1="223.766" y2="215.997" gradientUnits="userSpaceOnUse" xlink:href="#innoGrad1"/>
        <linearGradient id="linearGradient971" x1="211.015" x2="214.858" y1="223.757" y2="218.054" gradientUnits="userSpaceOnUse" xlink:href="#innoGrad1"/>
        <linearGradient id="linearGradient979" x1="133.889" x2="133.889" y1="32.541" y2="56.894" gradientUnits="userSpaceOnUse" xlink:href="#innoGrad1"/>
        <linearGradient id="linearGradient1002" x1="108.598" x2="147.296" y1="17.078" y2="17.078" gradientUnits="userSpaceOnUse" xlink:href="#innoGrad4"/>
        <linearGradient id="linearGradient970" x1="64.846" x2="91.95" y1="188.774" y2="189.859" gradientUnits="userSpaceOnUse" xlink:href="#innoGrad2"/>
    </defs>
    <g stroke="#000" stroke-miterlimit="10">
        <path fill="#f55" stroke="none" d="M32.328 228.316s7.977.243 15.537-4.076c7.561-4.319 6.781-8.679 6.781-8.679l-.176-8.159-22.143 3.286v17.628zm169.024-12.754l.181-10.099 25.063 8.078-2.928 14.775s-4.518 1.159-13.374-3.9c-8.856-5.058-8.942-8.854-8.942-8.854zM103.58 19.827l47.893 1.236-18.96 75.461-22.826-24.797z"/>
        <path fill="url(#linearGradient963)" d="M32.328 228.316s7.977.243 15.537-4.076c7.561-4.319 6.781-8.679 6.781-8.679l-.176-8.159-22.143 3.286v17.628z"/>
        <path fill="url(#linearGradient971)" d="M201.352 215.562l.181-10.099 25.063 8.078-2.928 14.775s-4.518 1.159-13.374-3.9c-8.856-5.058-8.942-8.854-8.942-8.854z"/>
        <path fill="url(#linearGradient979)" d="M103.58 19.827l47.893 1.236-18.96 75.461-22.826-24.797z"/>
        <path fill="#f55" stroke="none" d="M104.207 24.407S107.97 22.95 128 23.25c20.03.3 23.473 1.865 23.473 1.865l-4.674-15.03s-4.3-1.46-18.799-1.46c-14.499 0-19.319 1.46-19.319 1.46z"/>
        <path fill="url(#linearGradient1002)" d="M104.207 24.407S107.97 22.95 128 23.25c20.03.3 23.473 1.865 23.473 1.865l-4.674-15.03s-4.3-1.46-18.799-1.46c-14.499 0-19.319 1.46-19.319 1.46z"/>
    </g>
    <g>
        <path fill="#ff8080" d="M59.519 42.496l-.977.8s-2.181 1.066-4.514 5.702c-1.177 2.332-8.402 20.699-10.275 24.855-2.036 4.517-6.98 24.534-8.147 27.103-1.729 3.809-4.074 7.277-4.429 11.335-.218 2.497-2.797 17.437-3.101 19.046-.418 2.227-1.221 3.561-1.77 6.021-1.645 7.379-3.002 14.546-3.101 17.713-.126 4.11-.111 9.611-1.24 13.818-.86 3.206 2.863 22.522 3.542 26.303.644 3.569.389 10.433.974 13.464 1.197 6.182 3.072 9.771 4.075 12.842 1.424 4.357.442 6.554 1.771 6.818.399.079 1.945-3.558 5.314-7.084 3.408-3.568 8.656-7.033 11.779-8.947 4.087-2.501 5.364 2.892 5.225 3.276-.033.097.017-1.745.445-3.895.277-1.408 1.001-2.711.972-4.517-.038-2.478-2.212-4.182-1.593-7.615.364-2.026.28-10.418.975-13.995.418-2.164.496-4.142 1.238-5.934 1.506-3.635 2.891-2.703 3.366-4.863.403-1.837.341-4.792 0-7.007-.342-2.213.802-15.759 1.24-17.539.625-2.532 2.882-3.873 3.543-6.285 1.665-6.085 1.611-13.665 2.923-18.601 1.109-4.176 1.914-1.827 2.97-4.163 1.369-3.026 2.853-10.117 2.853-10.116L87.833 78.9z"/>
        <path fill="url(#linearGradient1026)" stroke="#000" stroke-miterlimit="10" d="M59.519 42.496l-.977.8s-2.181 1.066-4.514 5.702c-1.177 2.332-8.402 20.699-10.275 24.855-2.036 4.517-6.98 24.534-8.147 27.103-1.729 3.809-4.074 7.277-4.429 11.335-.218 2.497-2.797 17.437-3.101 19.046-.418 2.227-1.221 3.561-1.77 6.021-1.645 7.379-3.002 14.546-3.101 17.713-.126 4.11-.111 9.611-1.24 13.818-.86 3.206 2.863 22.522 3.542 26.303.644 3.569.389 10.433.974 13.464 1.197 6.182 3.072 9.771 4.075 12.842 1.424 4.357.442 6.554 1.771 6.818.399.079 1.945-3.558 5.314-7.084 3.408-3.568 8.656-7.033 11.779-8.947 4.087-2.501 5.364 2.892 5.225 3.276-.033.097.017-1.745.445-3.895.277-1.408 1.001-2.711.972-4.517-.038-2.478-2.212-4.182-1.593-7.615.364-2.026.28-10.418.975-13.995.418-2.164.496-4.142 1.238-5.934 1.506-3.635 2.891-2.703 3.366-4.863.403-1.837.341-4.792 0-7.007-.342-2.213.802-15.759 1.24-17.539.625-2.532 2.882-3.873 3.543-6.285 1.665-6.085 1.611-13.665 2.923-18.601 1.109-4.176 1.914-1.827 2.97-4.163 1.369-3.026 2.853-10.117 2.853-10.116L87.833 78.9z"/>
        <path fill="#ff2a2a" fill-opacity=".251" d="M33.784 174.743c.01.04 1.198-.224 3.046-.625.462-.1.966-.208 1.503-.32 2.688-.562 6.21-1.235 9.567-1.664 1.678-.214 3.31-.367 4.773-.414 1.467-.047 2.74.013 3.707.212.484.1.87.23 1.16.386.289.157.45.322.53.477.073.143.102.321.05.57-.054.26-.2.604-.495 1.043-.569.843-1.436 1.521-2.553 2.07-1.12.55-2.469.958-3.968 1.269a32.87 32.87 0 0 1-1.676.299c-2.626.403-5.52.561-8.082.698-1.646.089-3.177.168-4.542.294-1.386.128-2.602.303-3.547.584-.48.143-.912.32-1.266.547-.358.23-.662.529-.831.918-.175.402-.177.833-.049 1.263.126.424.38.857.73 1.303a5.971 5.971 0 0 0 2.554 1.897c.954.374 1.977.513 2.994.513 2.032-.001 4.14-.564 5.823-1.08.845-.259 1.595-.51 2.19-.683a8.3 8.3 0 0 1 .758-.189c.103-.019.193-.03.27-.035a.768.768 0 0 1 .18.006.24.24 0 0 1 .09.03c.02.012.038.031.048.072a.42.42 0 0 1-.005.182c-.016.08-.048.176-.099.289-.1.224-.268.508-.514.862-.244.35-.564.765-.968 1.257.424-.475.764-.875 1.03-1.21.268-.339.463-.615.592-.838.064-.112.114-.214.147-.305a.734.734 0 0 0 .05-.26.386.386 0 0 0-.075-.23.46.46 0 0 0-.201-.146.941.941 0 0 0-.267-.059 2.107 2.107 0 0 0-.325 0c-.235.015-.513.06-.823.124-.62.127-1.398.335-2.242.545-1.716.426-3.743.868-5.642.79-.941-.04-1.834-.206-2.631-.555a5.015 5.015 0 0 1-2.06-1.644c-.293-.395-.443-.706-.502-.944-.056-.225-.025-.365.027-.465.054-.106.169-.234.398-.369.229-.136.547-.263.966-.378.827-.226 1.945-.375 3.313-.486 1.339-.108 2.84-.174 4.497-.254 2.553-.122 5.514-.274 8.221-.69.595-.09 1.18-.195 1.749-.316 1.566-.33 3.033-.786 4.281-1.426 1.25-.64 2.3-1.478 2.992-2.58.336-.533.55-1.04.62-1.52.072-.492-.012-.947-.26-1.334-.241-.378-.607-.644-1.021-.834-.415-.19-.908-.317-1.448-.4-1.078-.166-2.431-.166-3.916-.062-1.49.105-3.14.318-4.822.59-3.362.543-6.876 1.328-9.544 1.983-.534.13-1.034.256-1.493.374-1.835.47-3 .828-2.989.868z"/>
        <path fill="#ff8080" d="M108.937 10.085c.101.042.087 4.095-.265 9.476-.083 1.242-.754 2.229-.798 3.631-.04 1.512.854 2.76.889 3.985.036 1.346-.779 2.663-.798 4.16-.017 1.229.74 2.544.889 4.339.052.695-.582 1.418-.354 2.125 1.044 3.27 4.094 2.661 7.526 7.971 1.613 2.499 11.846 1.921 14.561 7.111 4.413 8.429 1.386 23.352 1.728 26.37 1.621 14.025 2.468 167.513 2.35 167.772-.188.468-14.636 1.57-28.47.773-13.537-.783-26.755-.547-36.844-2.569-7.059-1.413-7.869-4.348-7.703-5.935.051-.519.019-4.264.264-6.267.177-1.434.609-.771.799-2.923.148-1.738-.023-3.934.198-6.044.106-1.018.825-1.272.93-2.392.103-1.107-.563-2.314-.599-3.654-.049-1.99.514-4.184.732-6.111.156-1.375.551-1.468.732-2.923.184-1.515-.003-3.63.198-5.246.187-1.495.854-2.765 1.063-4.318.632-4.66 1.021-11.058 1.726-16.074 1.085-7.717 2.546-14.174 3.922-21.589.339-1.831 1.038-1.017 1.592-2.788.665-2.127-2.818-7.078-2.476-11.69.422-5.659.006-11.664.551-16.939.414-4.036 1.275-7.042 1.659-10.829.587-5.751.695-11.925 1.328-15.344.781-4.208 1.907-5.16 1.907-5.16s-9.99-21.265-12.067-28.318c-2.08-7.054-4.852-27.729-4.585-28.19.267-.459 1.493.333 4.428-.882 1.067-.444 4.14-2.435 7.705-4.076 6.261-2.879 14.483-6.917 14.483-6.917 1.268-.832.056-1.387 2.257-2.651 12.045-6.909 9.387-8.499 14.7-13.547 3.711-3.526 4.87-4.779 5.842-4.337z"/>
        <path fill="url(#linearGradient1049)" stroke="#000" stroke-miterlimit="10" d="M108.937 10.085c.101.042.087 4.095-.265 9.476-.083 1.242-.754 2.229-.798 3.631-.04 1.512.854 2.76.889 3.985.036 1.346-.779 2.663-.798 4.16-.017 1.229.74 2.544.889 4.339.052.695-.582 1.418-.354 2.125 1.044 3.27 4.094 2.661 7.526 7.971 1.613 2.499 11.846 1.921 14.561 7.111 4.413 8.429 1.386 23.352 1.728 26.37 1.621 14.025 2.468 167.513 2.35 167.772-.188.468-14.636 1.57-28.47.773-13.537-.783-26.755-.547-36.844-2.569-7.059-1.413-7.869-4.348-7.703-5.935.051-.519.019-4.264.264-6.267.177-1.434.609-.771.799-2.923.148-1.738-.023-3.934.198-6.044.106-1.018.825-1.272.93-2.392.103-1.107-.563-2.314-.599-3.654-.049-1.99.514-4.184.732-6.111.156-1.375.551-1.468.732-2.923.184-1.515-.003-3.63.198-5.246.187-1.495.854-2.765 1.063-4.318.632-4.66 1.021-11.058 1.726-16.074 1.085-7.717 2.546-14.174 3.922-21.589.339-1.831 1.038-1.017 1.592-2.788.665-2.127-2.818-7.078-2.476-11.69.422-5.659.006-11.664.551-16.939.414-4.036 1.275-7.042 1.659-10.829.587-5.751.695-11.925 1.328-15.344.781-4.208 1.907-5.16 1.907-5.16s-9.99-21.265-12.067-28.318c-2.08-7.054-4.852-27.729-4.585-28.19.267-.459 1.493.333 4.428-.882 1.067-.444 4.14-2.435 7.705-4.076 6.261-2.879 14.483-6.917 14.483-6.917 1.268-.832.056-1.387 2.257-2.651 12.045-6.909 9.387-8.499 14.7-13.547 3.711-3.526 4.87-4.779 5.842-4.337z"/>
        <path fill="none" stroke="#000" stroke-miterlimit="10" d="M85.235 31.817c.513-1.021-4.815 6.963-.919 11.303 3.138 3.49 12.648 2.715 18.865 5.666 2.809 1.333 20.82.848 23.684 2.438 16.081 8.902 12.158 26.35 12.158 26.35"/>
        <path fill="none" stroke="#000" stroke-linecap="round" stroke-miterlimit="10" d="M94.39 35.616l-5.777 4.847"/>
        <path fill="none" stroke="#000" stroke-miterlimit="10" d="M110.568 40.463l-6.988 8.535"/>
        <path fill="none" stroke="#000" stroke-miterlimit="10" stroke-width=".5" d="M88.958 27.648s-7.882 10.456-1.873 16.002c1.955 1.809 15.542 2.59 17.268 3.854 1.133.826 10.363.08 15.691.458 5.565.394 6.396 1.524 6.396 1.524"/>
        <path fill="#ff8080" d="M105.512 85.924s.819 45.145.563 45.608c-.256.463-26.143.289-27.557 0-.912-.186-1.994-1.98-3.636-3.386-1.716-1.469-3.972-2.557-4.139-2.925-.19-.434 1.224-1.771 2.061-4.185.743-2.142.833-5.212 1.917-8.059 1.099-2.879 2.922-5.837 3.333-8.68.243-1.693-1.234-2.915-1.951-4.659-1.09-2.657-1.687-5.557-1.687-5.557z"/>
        <path fill="url(#linearGradient1080)" stroke="#000" stroke-miterlimit="10" d="M105.512 85.924s.819 45.145.563 45.608c-.256.463-26.143.289-27.557 0-.912-.186-1.994-1.98-3.636-3.386-1.716-1.469-3.972-2.557-4.139-2.925-.19-.434 1.224-1.771 2.061-4.185.743-2.142.833-5.212 1.917-8.059 1.099-2.879 2.922-5.837 3.333-8.68.243-1.693-1.234-2.915-1.951-4.659-1.09-2.657-1.687-5.557-1.687-5.557z"/>
        <path fill="none" stroke="#000" stroke-miterlimit="10" stroke-width=".5" d="M104.738 86.302s.414 14.608.414 20.919c0 6.309-.414 23.514-.414 23.514H78.384s-1.372-2.06-2.657-2.923l-4.054-2.723s1.335-1.542 2.239-4.3c.686-2.085.81-5.071 1.747-7.458 1.617-4.122 3.797-7.6 3.654-9.3-.146-1.752-1.54-2.662-2.259-4.384-.95-2.271-1.255-5.144-1.255-5.144"/>
        <path fill="#ff8080" d="M106.013 72.812c.233.101-.303 3.239-.326 6.244-.03 3.006.462 5.88.326 6.379-.264.993-5.268 1.825-9.963 4.846-5.014 3.231-9.507 7.672-10.294 7.707-.739.031-4.029-1.483-7.641-2.723-3.862-1.329-8.034-2.394-8.034-2.394s.072-8.235-.465-12.553c-.238-1.917-1.479-1.767-1.396-1.993.264-.729 1.641-2.374 15.408-4.383 13.773-2.01 21.92-1.331 22.385-1.13z"/>
        <path fill="url(#linearGradient1103)" stroke="#000" stroke-miterlimit="10" d="M106.013 72.812c.233.101-.303 3.239-.326 6.244-.03 3.006.462 5.88.326 6.379-.264.993-5.268 1.825-9.963 4.846-5.014 3.231-9.507 7.672-10.294 7.707-.739.031-4.029-1.483-7.641-2.723-3.862-1.329-8.034-2.394-8.034-2.394s.072-8.235-.465-12.553c-.238-1.917-1.479-1.767-1.396-1.993.264-.729 1.641-2.374 15.408-4.383 13.773-2.01 21.92-1.331 22.385-1.13z"/>
        <path fill="none" stroke="#000" stroke-miterlimit="10" stroke-width=".5" d="M103.826 72.597s-.333 2.207-.333 3.603c0 1.396.333 8.037.333 8.037L85.622 95.793l-14.214-4.317s.081-9.791-.264-11.226c-.377-1.565-1.435-3.166-1.435-3.166"/>
        <path fill="none" stroke="#000" stroke-miterlimit="10" stroke-width=".5" d="M105.962 74.679s-10.354-.396-21.136 1.122c-10.781 1.519-15.117 3.985-15.117 3.985"/>
        <path fill="#ff8080" stroke="#000" stroke-miterlimit="10" d="M101.21 175.502v3.257l-32.765-2.46 1.087-3.827s3.669 1.09 12.041 1.572c8.365.482 19.637 1.458 19.637 1.458z"/>
        <path fill="#ff8080" d="M101.167 177.964c.396.863-1.924 13.682-2.194 14.479-.264.799-11.421 4.717-11.421 4.717s-10.165 5.58-11.095 5.647c-.931.064-10.894-8.436-11.092-9.967-.198-1.525 1.323-3.047 2.022-7.102.806-4.686 1.021-10.665 1.3-10.965.236-.256 5.59 1.064 12.887 1.728 8.611.787 19.376.996 19.593 1.463z"/>
        <path fill="url(#linearGradient970)" stroke="#000" stroke-miterlimit="10" d="M101.167 177.964c.396.863-1.924 13.682-2.194 14.479-.264.799-11.421 4.717-11.421 4.717s-10.165 5.58-11.095 5.647c-.931.064-10.894-8.436-11.092-9.967-.198-1.525 1.323-3.047 2.022-7.102.806-4.686 1.021-10.665 1.3-10.965.236-.256 5.59 1.064 12.887 1.728 8.611.787 19.376.996 19.593 1.463z"/>
        <path fill="none" stroke="#000" stroke-miterlimit="10" stroke-width=".5" d="M99.174 177.645s-1.453 13.537-1.917 13.735c-.464.199-19.937 8.503-20.867 8.637-.93.132-6.646-4.689-8.238-6.046-1.588-1.356-2.403-3.022-2.403-3.022"/>
        <path fill="#ff2a2a" fill-opacity=".251" d="M95.114 156.971c-.068.009-.141.224-.127.575.027.705.136 1.854.249 2.845.12 1.054.255 2.043.39 2.87.164 1.003.339 1.837.526 2.455.187.616.516 1.436.96 2.42.366.81.83 1.774 1.35 2.799.516 1.016 1.157 2.225 1.545 2.861.156.256.351.348.426.312.074-.036.124-.246.023-.527-.22-.616-.805-2.04-1.197-3.01a190.217 190.217 0 0 1-1.138-2.857 45.79 45.79 0 0 1-.851-2.345 36.161 36.161 0 0 1-.623-2.315c-.201-.832-.403-1.727-.635-2.791-.191-.874-.47-2.187-.617-2.775-.085-.34-.213-.526-.281-.517zm-4.841-15.213c-.033-.025-.363.371-.929 1.03-.848.99-2.191 2.606-3.623 4.464-1.193 1.547-2.454 3.27-3.544 4.945-1.084 1.665-2.021 3.317-2.543 4.714l-.054.146c-.493 1.374-.76 2.949-.888 4.515-.134 1.627-.12 3.273-.042 4.734.094 1.755.279 3.261.416 4.181.091.613.14.971.181.968.042-.003.034-.363.069-.98a85.97 85.97 0 0 1 .325-4.144 57.33 57.33 0 0 1 .645-4.547c.278-1.485.625-2.893 1.056-4.095l.046-.127c.455-1.239 1.223-2.825 2.152-4.557a123.712 123.712 0 0 1 2.985-5.203 239.986 239.986 0 0 1 3.02-4.864c.466-.733.761-1.155.728-1.18z"/>
        <path fill="none" stroke="#000" stroke-miterlimit="10" stroke-width=".5" d="M104.156 161.024l-31.133-1.584m30.669 8.958l-32.89-2.419m64.086 77.39h-13.785s-35.532-2.069-46.932-3.851c-7.619-1.19-12.435-3.854-12.435-3.854M61.447 42.39s1.894 16.193 3.386 23.404c1.491 7.215 5.026 17.286 5.026 17.286"/>
        <path fill="#f55" stroke="#000" stroke-miterlimit="10" d="M87.834 28.347s-35.313 7.867-29.292 14.949l1.685-.906s-.748.462 1.22-1.395c1.969-1.857 24.688-10.374 24.688-10.374z"/>
        <path fill="none" stroke="#000" stroke-miterlimit="10" stroke-width=".5" d="M86.767 29.517s-25.92 6.961-27.248 10.414c-.681 1.779.708 2.46.708 2.46"/>
        <path fill="#ff2a2a" fill-opacity=".251" d="M53.288 211.912c.042.004.123-.216.164-.613a20.78 20.78 0 0 0 .07-2.785c-.088-2.459-.54-4.939-1.447-7.072-1.094-2.497-2.2-3.992-3.133-4.935-1.124-1.136-2.18-1.649-2.974-1.914a7.553 7.553 0 0 0-1.197-.288c-.351-.057-.636-.087-.822-.118a1.232 1.232 0 0 1-.19-.043c-.028-.01-.01-.012.033.03a.315.315 0 0 1 .09.172c.005.038-.007.04.008-.024.102-.411.203-.706.304-.917.09-.19.173-.3.25-.37a.92.92 0 0 1 .324-.185c.172-.065.322-.1.612-.19a5.784 5.784 0 0 0 1.941-1.005c.709-.543 1.624-1.44 2.794-3.065.967-1.346 1.6-2.325 2.175-3.19a16.854 16.854 0 0 1 .669-.95c.057-.072.107-.13.15-.176.061-.064.1-.095.127-.117.034-.026.018-.016.029-.032.003-.004.008-.007.02-.005a.112.112 0 0 1 .046.024c.04.03.087.086.138.171.051.085.104.193.159.325.11.265.227.618.36 1.06.135.44.286.969.465 1.584a76.361 76.361 0 0 1-.35-1.614c-.094-.449-.171-.82-.245-1.106a4.001 4.001 0 0 0-.114-.378 1.195 1.195 0 0 0-.14-.281.566.566 0 0 0-.1-.109.44.44 0 0 0-.136-.077.482.482 0 0 0-.318.008.972.972 0 0 0-.283.167 2.25 2.25 0 0 0-.284.276 12.04 12.04 0 0 0-.695.878c-.578.782-1.328 1.852-2.273 3.098-1.177 1.554-2.069 2.352-2.714 2.799-.738.512-1.297.658-1.68.74-.237.053-.452.087-.67.145a2 2 0 0 0-.703.326 2.12 2.12 0 0 0-.592.717c-.168.312-.305.697-.426 1.149a1.226 1.226 0 0 0-.04.51.912.912 0 0 0 .267.52c.136.13.294.2.42.24.129.043.264.068.388.085.256.037.526.053.84.091.297.036.646.092 1.029.2.655.186 1.584.574 2.62 1.545.866.811 1.96 2.171 3.075 4.565.957 1.995 1.5 4.338 1.734 6.766a32.7 32.7 0 0 1 .14 2.743c.005.394.044.62.085.625zm16.175-92.482c-.054.047-.57-.378-1.266-1.078a68.727 68.727 0 0 0-.19-.191c-.803-.803-1.874-1.83-2.975-2.72a16.266 16.266 0 0 0-1.63-1.177c-.53-.327-1.016-.562-1.431-.676a1.835 1.835 0 0 0-.534-.076.741.741 0 0 0-.343.084.607.607 0 0 0-.217.215 1.463 1.463 0 0 0-.179.474 1.629 1.629 0 0 1-.239.542 1.75 1.75 0 0 1-.408.42c-.311.23-.695.374-1.106.462-.818.176-1.87.16-3.032.046-1.172-.116-2.504-.339-3.898-.603-1.393-.264-2.872-.574-4.324-.865-1.458-.291-2.896-.564-4.235-.761-1.343-.198-2.561-.315-3.583-.302a7.72 7.72 0 0 0-1.334.117c-.38.072-.668.172-.875.288-.204.114-.313.232-.376.342a.955.955 0 0 0-.107.484c-.001.24.05.509.167.811.118.305.3.638.557 1.001.516.732 1.29 1.527 2.29 2.377 1.999 1.703 4.744 3.5 7.685 5.33 2.905 1.807 6.024 3.662 8.625 5.412 1.307.88 2.518 1.755 3.537 2.613 1.007.847 1.892 1.731 2.49 2.639.277.42.507.835.663 1.237.151.393.268.867.209 1.374a2.143 2.143 0 0 1-.764 1.41c-.392.325-.841.475-1.207.55-.713.148-1.555.1-2.341.007-.821-.096-1.749-.265-2.695-.447-1.94-.374-3.975-.805-5.809-.96-.908-.078-1.699-.08-2.347.008-.658.09-1.06.258-1.29.43-.483.352-.736.634-.691.584.006-.007.143-.174.183-.498a1.374 1.374 0 0 0-.262-.98c-.155-.207-.25-.24-.241-.238.008.002.1.045.247.095.327.112.765.23 1.417.408a44.32 44.32 0 0 1 2.856.86c.658.226 1.362.492 2.1.81a26.876 26.876 0 0 1 6.406 3.888c.332.272.628.553.877.847.247.292.47.623.625.997.159.384.245.813.207 1.266a2.59 2.59 0 0 1-.4 1.175c-.201.315-.446.56-.676.748a4.9 4.9 0 0 1-.706.477c-.452.256-.961.473-1.397.653-.473.196-.865.351-1.239.526-.379.178-.598.311-.742.42-.061.046-.082.068-.085.057-.003-.011.01-.062.006-.106 0 0-.024-.123-.021-.042 0 .034.026.123.111.266.134.206.252.447.322.72.071.278.089.574.036.873a2.046 2.046 0 0 1-.314.775 2.421 2.421 0 0 1-.478.524 4.006 4.006 0 0 1-1.065.602c-.369.148-.778.27-1.202.375-.844.208-1.841.368-2.866.5-1.032.132-2.13.24-3.186.339-1.069.099-2.08.186-2.986.28-.914.094-1.65.188-2.176.293-.291.058-.4.094-.506.125-.037.011-.03.008.008-.032a.802.802 0 0 0 .213-.64.727.727 0 0 0-.074-.249c-.065-.127-.122-.15-.123-.15-.016.015.157.133.421.258.371.171.69.346.956.528.263.18.497.384.673.621.181.243.314.54.32.878.008.34-.113.625-.271.846a2.242 2.242 0 0 1-.546.518 4.793 4.793 0 0 1-.657.374c-.465.223-1.025.43-1.6.622-1.164.39-2.478.756-3.514 1.128-.525.188-.96.37-1.276.551a2.04 2.04 0 0 0-.354.245.616.616 0 0 0-.13.152c-.015.028-.027.07-.004.15a.92.92 0 0 0 .182.303c.203.24.537.504.968.778.858.546 2.025 1.088 3.11 1.571l.788.349c.253.111.493.217.716.318.445.2.818.377 1.07.524.062.037.117.073.165.106a.884.884 0 0 1 .116.096c.03.03.053.062.064.093a.114.114 0 0 1 .006.05.09.09 0 0 1-.018.046.121.121 0 0 1-.037.03.255.255 0 0 1-.05.021.737.737 0 0 1-.142.025 3.91 3.91 0 0 1-.502 0 2.82 2.82 0 0 0 .497-.036.532.532 0 0 0 .129-.038.135.135 0 0 0 .034-.022.04.04 0 0 0 .012-.018c.002-.004 0-.007 0-.01a.066.066 0 0 0-.008-.013.253.253 0 0 0-.054-.05 1.029 1.029 0 0 0-.112-.073 2.849 2.849 0 0 0-.165-.085 15.16 15.16 0 0 0-1.088-.447 95.326 95.326 0 0 0-.732-.274l-.808-.3c-1.106-.417-2.331-.901-3.261-1.4-.463-.247-.878-.511-1.17-.788a1.737 1.737 0 0 1-.365-.466.976.976 0 0 1-.104-.596c.033-.214.138-.401.268-.56.13-.16.297-.306.482-.44.37-.267.855-.517 1.383-.755 1.066-.479 2.364-.933 3.443-1.389.544-.23 1.018-.453 1.378-.673a2.73 2.73 0 0 0 .417-.3c.1-.092.144-.16.143-.184-.002-.038-.046.045-.053.114-.008.087.02.13-.011.11-.054-.036-.1-.083-.293-.19a5.924 5.924 0 0 0-.725-.329c-.353-.139-.694-.3-.948-.506a1.453 1.453 0 0 1-.4-.484 1.208 1.208 0 0 1-.078-.862 1.34 1.34 0 0 1 .392-.615 2 2 0 0 1 .424-.291c.264-.14.577-.247.894-.335.642-.18 1.48-.33 2.396-.47.922-.139 1.96-.273 3.004-.412 1.05-.14 2.106-.286 3.084-.452.984-.167 1.859-.35 2.548-.557.343-.104.62-.207.829-.307.207-.1.32-.187.326-.209.001-.006-.025.005-.068.064a.7.7 0 0 0-.116.274.806.806 0 0 0 .002.33c.018.083.041.126.039.13a3.86 3.86 0 0 1-.527-1.017 2.819 2.819 0 0 1-.137-1.152 2.74 2.74 0 0 1 .334-1.07 3.42 3.42 0 0 1 .603-.782c.425-.417.94-.737 1.393-.986.458-.25.958-.482 1.364-.676.434-.208.773-.379 1.022-.541a1.39 1.39 0 0 0 .232-.178c.044-.046.01-.03-.028.023a.76.76 0 0 0-.123.354.783.783 0 0 0 .032.326c.013.04.002.01-.084-.086a3.82 3.82 0 0 0-.447-.403 23.823 23.823 0 0 0-5.61-3.35 26.407 26.407 0 0 0-1.857-.711 44.824 44.824 0 0 0-2.644-.8c-.593-.164-1.184-.326-1.657-.497a5.188 5.188 0 0 1-.755-.334 2.68 2.68 0 0 1-.842-.707 2.093 2.093 0 0 1-.423-1.532c.062-.522.302-.919.494-1.173.366-.483.925-.916 1.485-1.306.864-.605 1.882-.878 2.857-.989.983-.113 2.038-.074 3.073.035 2.054.215 4.304.739 6.134 1.138.942.206 1.768.378 2.466.484.75.114 1.141.119 1.369.097.09-.009.018-.01-.109.102a.864.864 0 0 0-.196.252.767.767 0 0 0-.086.286c-.01.132.036.164-.012.005-.044-.143-.148-.373-.347-.699-.355-.585-.983-1.284-1.885-2.083-.892-.79-1.993-1.63-3.243-2.51-2.512-1.77-5.498-3.623-8.434-5.535-2.905-1.891-5.745-3.832-7.842-5.718-1.05-.944-1.948-1.906-2.577-2.873a6.616 6.616 0 0 1-.745-1.5 4.198 4.198 0 0 1-.227-1.588c.033-.55.193-1.055.495-1.486a2.9 2.9 0 0 1 1.145-.947c.438-.21.928-.337 1.435-.41a9.969 9.969 0 0 1 1.64-.082c1.153.027 2.466.198 3.838.44 1.375.243 2.838.561 4.292.892 1.458.332 2.915.677 4.286.976 1.374.3 2.653.552 3.763.7 1.122.149 2.02.185 2.656.083.315-.05.532-.13.676-.22a.668.668 0 0 0 .162-.135.514.514 0 0 0 .095-.172c.093-.314.224-.586.401-.809.18-.225.399-.39.649-.49.247-.099.507-.128.763-.11.254.016.513.079.768.17.507.182 1.047.493 1.583.867a18 18 0 0 1 1.635 1.311 37.62 37.62 0 0 1 3.063 3.109c.66.747 1.004 1.327.95 1.374z"/>
        <path fill="none" stroke="#000" stroke-miterlimit="10" stroke-width=".5" d="M67.827 80.391c0 .001-6.283 14.798-13.49 31.545-5.013 11.652-11.103 23.75-13.194 34.54-.469 2.42-3.598 5.579-4.475 10.132-1.276 6.621-.451 15.142-1.86 20.026-.409 1.415 2.625 7.345 2.695 12.141.067 4.629-2.853 8.098-2.031 11.245 2.831 10.859 5.67 18.034 5.67 18.034"/>
        <path fill="none" stroke="#000" stroke-miterlimit="10" stroke-width=".5" d="M68.977 83.08s-.554 3.014-2.283 6.537c-1.32 2.688-3.589 5.229-5.247 9.565-1.81 4.734-2.593 11.148-4.983 16.74-2.729 6.38-7.196 11.597-9.831 18.468-1.222 3.182-.988 7.279-1.859 10.494-.732 2.695-2.581 4.532-3.455 7.041-1.816 5.22-2.897 11.121-3.056 16.474-.107 3.651.817 7.324-.132 9.246-.225.453 2.045 6.289 2.296 12.318.122 2.928-2.47 5.971-1.765 8.326a1511.25 1511.25 0 0 1 5.173 17.708"/>
        <path fill="none" stroke="#000" stroke-miterlimit="10" stroke-width=".5" d="M51.464 201.261s-13.515 4.103-18.338 6.595c-4.821 2.49-5.436 5.686-5.436 5.686m25.956-3.387s-4.053-2.169-9.625 1.951c-5.57 4.12-12.533 14.433-12.533 14.433"/>
        <path fill="#ff8080" d="M54.671 198.827l-1.191-.537.166 12.398 1.814-.375zM196.478 42.496l.973.8s2.191 1.066 4.525 5.702c1.176 2.332 1.2 5.793 2.473 8.914 2.39 5.824 5.923 11.785 7.797 15.941 2.034 4.517 2.458 10.669 5.492 18.865 1.043 2.825 1.485 5.669 2.652 8.237 1.734 3.809 4.079 7.277 4.43 11.335.221 2.497 2.381 7.424 3.722 13.729.323 1.525-.922 3.708-.621 5.317.418 2.227 1.226 3.561 1.773 6.021 1.645 7.379 3.004 14.546 3.098 17.713.132 4.11.115 9.611 1.242 13.818.857 3.206 2.977 5.189 2.834 7.971-.104 1.922-1.149 3.413-1.859 5.315-1.667 4.473-3.842 9.236-4.522 13.017-.637 3.569-.381 10.433-.972 13.464-1.194 6.182-3.069 9.771-4.069 12.842-1.424 4.357-.443 6.554-1.776 6.818-.396.079-1.941-3.558-5.311-7.084-3.409-3.568-8.653-7.033-11.785-8.947-4.082-2.501-5.366 2.892-5.221 3.276.032.097-.017-1.745-.444-3.895-.276-1.408-1-2.711-.973-4.517.038-2.478 2.207-4.182 1.598-7.615-.371-2.026-2.489-3.566-2.931-5.847-.608-3.201 2.649-4.571 1.957-8.148-.422-2.164-.502-4.142-1.248-5.934-1.5-3.635-2.886-2.703-3.361-4.863-.406-1.837-.341-4.792 0-7.007.335-2.213.958-3.687.545-5.582-.445-2.047-2.873-3.398-3.113-5.547-.216-1.916 1.768-4.63 1.332-6.41-.629-2.532-2.892-3.873-3.545-6.285-1.675-6.085-1.609-13.665-2.926-18.601-1.114-4.176-1.913-1.827-2.976-4.163-1.358-3.026-2.85-10.117-2.85-10.116l-14.26-32.131z"/>
        <path fill="url(#linearGradient1218)" stroke="#000" stroke-miterlimit="10" d="M54.671 198.827l-1.191-.537.166 12.398 1.814-.375zM196.478 42.496l.973.8s2.191 1.066 4.525 5.702c1.176 2.332 1.2 5.793 2.473 8.914 2.39 5.824 5.923 11.785 7.797 15.941 2.034 4.517 2.458 10.669 5.492 18.865 1.043 2.825 1.485 5.669 2.652 8.237 1.734 3.809 4.079 7.277 4.43 11.335.221 2.497 2.381 7.424 3.722 13.729.323 1.525-.922 3.708-.621 5.317.418 2.227 1.226 3.561 1.773 6.021 1.645 7.379 3.004 14.546 3.098 17.713.132 4.11.115 9.611 1.242 13.818.857 3.206 2.977 5.189 2.834 7.971-.104 1.922-1.149 3.413-1.859 5.315-1.667 4.473-3.842 9.236-4.522 13.017-.637 3.569-.381 10.433-.972 13.464-1.194 6.182-3.069 9.771-4.069 12.842-1.424 4.357-.443 6.554-1.776 6.818-.396.079-1.941-3.558-5.311-7.084-3.409-3.568-8.653-7.033-11.785-8.947-4.082-2.501-5.366 2.892-5.221 3.276.032.097-.017-1.745-.444-3.895-.276-1.408-1-2.711-.973-4.517.038-2.478 2.207-4.182 1.598-7.615-.371-2.026-2.489-3.566-2.931-5.847-.608-3.201 2.649-4.571 1.957-8.148-.422-2.164-.502-4.142-1.248-5.934-1.5-3.635-2.886-2.703-3.361-4.863-.406-1.837-.341-4.792 0-7.007.335-2.213.958-3.687.545-5.582-.445-2.047-2.873-3.398-3.113-5.547-.216-1.916 1.768-4.63 1.332-6.41-.629-2.532-2.892-3.873-3.545-6.285-1.675-6.085-1.609-13.665-2.926-18.601-1.114-4.176-1.913-1.827-2.976-4.163-1.358-3.026-2.85-10.117-2.85-10.116l-14.26-32.131z"/>
        <path fill="#ff8080" d="M147.056 10.085c-.094.042-.08 4.095.265 9.476.09 1.242.768 2.229.805 3.631.032 1.229-.837 10.689-.972 12.484-.063.695.574 1.418.347 2.125-1.041 3.27-4.09 2.661-7.526 7.971-4.228 6.547-15.731 28.606-16.295 33.481-1.62 14.025-2.585 29.89-2.669 45.703-.055 11.224.578 22.334.635 33.128.066 14.306-.945 26.947-.535 39.325.261 7.838 1.028 15.031 1.243 21.519.245 7.438-1.068 13.7-1.243 18.688-.256 7.549.514 12.048.62 12.308.2.468 14.242-1.327 28.076-2.124 13.538-.783 26.752-.547 36.841-2.569 7.057-1.413 7.874-4.348 7.706-5.935-.051-.519-.019-4.264-.264-6.267-.18-1.434-.616-.771-.794-2.923-.153-1.738.022-3.934-.199-6.044-.114-1.018-.832-1.272-.931-2.392-.111-1.107.559-2.314.591-3.654.059-1.99-.51-4.184-.729-6.111-.149-1.375-.547-1.468-.729-2.923-.188-1.515.003-3.63-.201-5.246-.188-1.495-.846-2.765-1.056-4.318-.637-4.66-1.031-11.058-1.736-16.074-1.074-7.717-2.541-14.174-3.91-21.589-.346-1.831-1.045-1.017-1.596-2.788-.666-2.127 2.817-7.078 2.468-11.69-.41-5.659-.006-11.664-.544-16.939-.419-4.036-1.271-7.042-1.66-10.829-.589-5.751-.694-11.925-1.333-15.344-.775-4.208-1.901-5.16-1.901-5.16s9.993-21.265 12.072-28.318c2.075-7.054 4.841-27.729 4.577-28.19-.265-.459-1.488.333-4.431-.882-1.059-.444-4.128-2.435-7.704-4.076-6.252-2.879-14.472-6.917-14.472-6.917-1.277-.832-.069-1.387-2.265-2.651-12.038-6.909-9.387-8.499-14.705-13.547-3.716-3.528-4.875-4.781-5.846-4.339z"/>
        <path fill="url(#linearGradient1126)" stroke="#000" stroke-miterlimit="10" d="M147.056 10.085c-.094.042-.08 4.095.265 9.476.09 1.242.768 2.229.805 3.631.032 1.229-.837 10.689-.972 12.484-.063.695.574 1.418.347 2.125-1.041 3.27-4.09 2.661-7.526 7.971-4.228 6.547-15.731 28.606-16.295 33.481-1.62 14.025-2.585 29.89-2.669 45.703-.055 11.224.578 22.334.635 33.128.066 14.306-.945 26.947-.535 39.325.261 7.838 1.028 15.031 1.243 21.519.245 7.438-1.068 13.7-1.243 18.688-.256 7.549.514 12.048.62 12.308.2.468 14.242-1.327 28.076-2.124 13.538-.783 26.752-.547 36.841-2.569 7.057-1.413 7.874-4.348 7.706-5.935-.051-.519-.019-4.264-.264-6.267-.18-1.434-.616-.771-.794-2.923-.153-1.738.022-3.934-.199-6.044-.114-1.018-.832-1.272-.931-2.392-.111-1.107.559-2.314.591-3.654.059-1.99-.51-4.184-.729-6.111-.149-1.375-.547-1.468-.729-2.923-.188-1.515.003-3.63-.201-5.246-.188-1.495-.846-2.765-1.056-4.318-.637-4.66-1.031-11.058-1.736-16.074-1.074-7.717-2.541-14.174-3.91-21.589-.346-1.831-1.045-1.017-1.596-2.788-.666-2.127 2.817-7.078 2.468-11.69-.41-5.659-.006-11.664-.544-16.939-.419-4.036-1.271-7.042-1.66-10.829-.589-5.751-.694-11.925-1.333-15.344-.775-4.208-1.901-5.16-1.901-5.16s9.993-21.265 12.072-28.318c2.075-7.054 4.841-27.729 4.577-28.19-.265-.459-1.488.333-4.431-.882-1.059-.444-4.128-2.435-7.704-4.076-6.252-2.879-14.472-6.917-14.472-6.917-1.277-.832-.069-1.387-2.265-2.651-12.038-6.909-9.387-8.499-14.705-13.547-3.716-3.528-4.875-4.781-5.846-4.339z"/>
        <path fill="none" stroke="#000" stroke-miterlimit="10" d="M170.763 31.817c-.518-1.021 4.816 6.963.914 11.303-3.132 3.49-12.648 2.715-18.858 5.666-2.809 1.333-2.469 3.843-4.742 5.581-5.228 3.969-11.953 7.545-14.394 9.743-9.488 8.574-10.66 21.325-10.66 21.325"/>
        <path fill="none" stroke="#000" stroke-linecap="round" stroke-miterlimit="10" d="M161.602 35.616l5.783 4.847"/>
        <path fill="none" stroke="#000" stroke-miterlimit="10" d="M145.423 40.463l6.996 8.535"/>
        <path fill="none" stroke="#000" stroke-miterlimit="10" stroke-width=".5" d="M167.047 27.648s7.872 10.456 1.871 16.002c-1.963 1.809-15.552 2.59-17.273 3.854-2.313 1.688-2.834 3.685-5.117 5.582-2.367 1.966-6.154 3.63-8.436 5.498-6.304 5.168-10.136 9.695-10.136 9.695"/>
        <path fill="#f95" stroke="#000" stroke-miterlimit="10" d="M143.535 52.884c0 .918-1.008 1.659-2.25 1.659-1.256 0-2.264-.741-2.264-1.659s1.008-1.66 2.264-1.66c1.242.001 2.25.742 2.25 1.66z"/>
        <path fill="#ffb380" stroke="#000" stroke-miterlimit="10" stroke-width=".5" d="M142.944 53.35c0 .661-.629 1.194-1.396 1.194-.766 0-1.396-.533-1.396-1.194 0-.663.63-1.194 1.396-1.194.767-.001 1.396.531 1.396 1.194z"/>
        <path fill="#ff8080" d="M150.486 85.924s-.825 45.145-.556 45.608c.256.463 26.136.289 27.55 0 1.861-.381 7.454-5.59 7.77-6.311.195-.434-1.219-1.771-2.056-4.185-.748-2.142-.833-5.212-1.922-8.059-1.086-2.879-2.915-5.837-3.327-8.68-.242-1.693 1.228-2.915 1.946-4.659 1.096-2.657 1.698-5.557 1.698-5.557z"/>
        <path fill="url(#linearGradient1149)" stroke="#000" stroke-miterlimit="10" d="M150.486 85.924s-.825 45.145-.556 45.608c.256.463 26.136.289 27.55 0 1.861-.381 7.454-5.59 7.77-6.311.195-.434-1.219-1.771-2.056-4.185-.748-2.142-.833-5.212-1.922-8.059-1.086-2.879-2.915-5.837-3.327-8.68-.242-1.693 1.228-2.915 1.946-4.659 1.096-2.657 1.698-5.557 1.698-5.557z"/>
        <path fill="none" stroke="#000" stroke-miterlimit="10" stroke-width=".5" d="M151.257 86.302s-.411 14.608-.411 20.919c0 6.309.411 23.514.411 23.514h26.362s1.371-2.06 2.652-2.923l4.048-2.723s-1.322-1.542-2.23-4.3c-.688-2.085-.818-5.071-1.755-7.458-1.618-4.122-3.792-7.6-3.646-9.3.138-1.752 1.532-2.662 2.25-4.384.95-2.271 1.266-5.144 1.266-5.144"/>
        <path fill="#ff8080" d="M149.985 72.812c-.232.101.303 3.239.326 6.244.023 3.006-.465 5.88-.326 6.379.264.993 5.262 1.825 9.957 4.846 5.023 3.231 9.513 7.672 10.296 7.707.736.031 4.027-1.483 7.645-2.723 3.856-1.329 8.034-2.394 8.034-2.394s-.071-8.235.465-12.553c.238-1.917 1.475-1.767 1.396-1.993-.264-.729-1.641-2.374-15.414-4.383-13.76-2.01-21.914-1.331-22.379-1.13z"/>
        <path fill="url(#linearGradient1172)" stroke="#000" stroke-miterlimit="10" d="M149.985 72.812c-.232.101.303 3.239.326 6.244.023 3.006-.465 5.88-.326 6.379.264.993 5.262 1.825 9.957 4.846 5.023 3.231 9.513 7.672 10.296 7.707.736.031 4.027-1.483 7.645-2.723 3.856-1.329 8.034-2.394 8.034-2.394s-.071-8.235.465-12.553c.238-1.917 1.475-1.767 1.396-1.993-.264-.729-1.641-2.374-15.414-4.383-13.76-2.01-21.914-1.331-22.379-1.13z"/>
        <path fill="none" stroke="#000" stroke-miterlimit="10" stroke-width=".5" d="M152.173 72.597s.34 2.207.34 3.603c0 1.396-.34 8.037-.34 8.037l18.205 11.557 14.212-4.317s-.081-9.791.271-11.226c.368-1.565 1.433-3.166 1.433-3.166"/>
        <path fill="none" stroke="#000" stroke-miterlimit="10" stroke-width=".5" d="M150.036 74.679s10.353-.396 21.133 1.122c10.78 1.519 15.124 3.985 15.124 3.985"/>
        <path fill="#ff8080" stroke="#000" stroke-miterlimit="10" d="M154.782 175.502v3.257l32.771-2.46-1.088-3.827s-3.667 1.09-12.039 1.572c-8.373.482-19.644 1.458-19.644 1.458z"/>
        <path fill="#ff8080" d="M154.831 177.964c-.396.863 1.931 13.682 2.194 14.479.265.799 11.428 4.717 11.428 4.717s10.159 5.58 11.09 5.647c.93.064 10.888-8.436 11.088-9.967.201-1.525-1.313-3.047-2.012-7.102-.815-4.686-1.032-10.665-1.307-10.965-.237-.256-5.594 1.064-12.887 1.728-8.617.787-19.383.996-19.594 1.463z"/>
        <path fill="url(#linearGradient1195)" stroke="#000" stroke-miterlimit="10" d="M154.831 177.964c-.396.863 1.931 13.682 2.194 14.479.265.799 11.428 4.717 11.428 4.717s10.159 5.58 11.09 5.647c.93.064 10.888-8.436 11.088-9.967.201-1.525-1.313-3.047-2.012-7.102-.815-4.686-1.032-10.665-1.307-10.965-.237-.256-5.594 1.064-12.887 1.728-8.617.787-19.383.996-19.594 1.463z"/>
        <path fill="none" stroke="#000" stroke-miterlimit="10" stroke-width=".5" d="M156.824 177.645s1.452 13.537 1.917 13.735c.464.199 19.934 8.503 20.864 8.637.93.132 6.651-4.689 8.234-6.046 1.594-1.356 2.415-3.022 2.415-3.022"/>
        <path fill="#ff2a2a" fill-opacity=".251" d="M159.942 172.472c.04.013.21-.326.41-.954.302-.94.736-2.51 1.089-4.454.586-3.23.96-7.547.097-11.738-.189-1.032-.508-1.97-.843-2.804-.334-.832-.683-1.559-.926-2.142a6.19 6.19 0 0 1-.268-.747c-.056-.208-.063-.336-.05-.39.012-.047.014.022-.005.06-.023.043-.02.017.126-.027a1.94 1.94 0 0 1 .562-.075c.157 0 .347.013.57.056.401.076.921.25 1.508.611.961.593 2.112 1.712 2.89 3.527.66 1.654 1.182 3.618 1.594 5.672.41 2.042.702 4.121.913 5.972.453 3.953.549 6.615.644 6.615.08 0 .222-2.553-.026-6.67a67.92 67.92 0 0 0-.628-6.076c-.32-2.098-.764-4.156-1.374-5.93-.682-2.118-1.88-3.604-3.06-4.49-.716-.538-1.425-.859-2.058-1.017a4.057 4.057 0 0 0-.967-.125 3.477 3.477 0 0 0-1.148.185c-.358.124-.702.322-.95.645a1.628 1.628 0 0 0-.331 1.062c.01.331.105.65.216.933.114.288.265.588.427.888.33.608.733 1.273 1.119 2.02.385.748.754 1.576 1.009 2.488 1 3.977.838 8.173.426 11.414a47.121 47.121 0 0 1-.797 4.471c-.144.638-.208 1.007-.169 1.02zm5.784-30.714c-.033.025.283.434.727 1.18a262.806 262.806 0 0 1 2.884 4.957 157.85 157.85 0 0 1 2.866 5.263c.802 1.554 1.48 2.968 1.955 4.121.057.138.11.27.16.397.456 1.19.842 2.612 1.164 4.138.322 1.52.569 3.087.757 4.52a90.67 90.67 0 0 1 .444 4.142c.054.616.027.976.069.979.042.003.07-.356.181-.968.166-.918.395-2.425.536-4.183.117-1.465.174-3.12.076-4.763-.097-1.633-.35-3.295-.869-4.742-.058-.16-.12-.319-.185-.48-.543-1.318-1.414-2.798-2.41-4.275-1.124-1.667-2.431-3.367-3.668-4.885a111.665 111.665 0 0 0-3.759-4.37c-.584-.644-.895-1.056-.928-1.031z"/>
        <path fill="none" stroke="#000" stroke-miterlimit="10" stroke-width=".5" d="M151.846 161.024l31.133-1.584m-30.667 8.958l32.884-2.419m-64.093 77.39s13.18-2.13 27.466-2.747c9.478-.404 17.818-.794 25.946-.794 14.963 0 19.751-4.165 19.751-4.165m.286-193.273s-1.893 16.193-3.384 23.404c-1.496 7.215-5.028 17.286-5.028 17.286"/>
        <path fill="#f55" stroke="#000" stroke-miterlimit="10" d="M168.157 28.347s35.319 7.867 29.293 14.949l-1.681-.906s.745.462-1.218-1.395c-1.964-1.857-24.681-10.374-24.681-10.374z"/>
        <path fill="none" stroke="#000" stroke-miterlimit="10" stroke-width=".5" d="M169.232 29.517s25.922 6.961 27.245 10.414c.684 1.779-.708 2.46-.708 2.46"/>
        <path fill="#ff2a2a" fill-opacity=".251" d="M227.166 175.617c.024.034.346-.134.838-.396l.401-.21c.72-.373 1.663-.826 2.592-1.135.465-.154.917-.27 1.327-.322.415-.053.76-.038 1.016.043.126.04.222.093.295.153a.638.638 0 0 1 .165.21c.04.08.077.187.1.329.022.143.032.323.017.55-.029.695-.155 1.18-.326 1.512-.165.32-.375.507-.613.632-.247.13-.575.217-1.013.254-.44.037-.962.022-1.576-.033-1.218-.11-2.73-.372-4.41-.555a29.38 29.38 0 0 0-2.706-.18 19.16 19.16 0 0 0-2.743.145c-3.905.501-6.894.558-10.615.658-1.399.037-2.744.085-3.887.213-1.1.124-2.09.33-2.875.717a6.043 6.043 0 0 0-1.009.62c-.286.223-.547.485-.695.777a1.11 1.11 0 0 0-.128.5c0 .186.056.359.161.51.102.147.244.262.405.356.163.095.358.175.583.243.454.138 1.067.242 1.856.31.81.068 1.817.1 3.04.086 2.594-.028 6.103-.256 10.634-.722-4.542.366-8.052.49-10.63.41-1.217-.038-2.206-.12-2.99-.239-.768-.116-1.323-.264-1.698-.428a1.656 1.656 0 0 1-.405-.237c-.089-.076-.124-.137-.131-.175-.007-.036.01-.046.02-.056.014-.013.032-.038.073-.083.091-.098.246-.224.505-.37.25-.14.554-.274.885-.39.628-.216 1.458-.318 2.508-.352 1.08-.036 2.374 0 3.779.036 3.603.092 6.937.124 10.864-.324.88-.098 1.72-.117 2.46-.106a33.06 33.06 0 0 1 2.53.15c1.571.145 3.175.367 4.5.416.678.024 1.335.007 1.937-.095.604-.102 1.183-.295 1.678-.641a3.027 3.027 0 0 0 1.109-1.45c.225-.599.308-1.302.278-2.11a3.313 3.313 0 0 0-.15-.878 2.11 2.11 0 0 0-.372-.694 1.743 1.743 0 0 0-.568-.453 1.992 1.992 0 0 0-.656-.192c-.439-.053-.909.016-1.363.139a8.78 8.78 0 0 0-1.4.529c-.927.433-1.843 1-2.515 1.457-.135.093-.261.18-.376.263-.458.328-.73.574-.706.608zm-24.336 36.222c.04-.01-.005-.246.012-.662.025-.633.063-1.631.235-2.804.294-2.002.946-4.26 2.361-6.049.623-.766 1.438-1.432 2.339-2.046.91-.62 1.861-1.157 2.796-1.706.336-.198.67-.397.985-.596.53-.335 1.066-.694 1.512-1.072.342-.29.73-.67 1.007-1.148a2.8 2.8 0 0 0 .34-.906 2.437 2.437 0 0 0-.056-1.115 4.207 4.207 0 0 0-.353-.869 2.347 2.347 0 0 0-.85-.894 1.923 1.923 0 0 0-1.508-.194 2.212 2.212 0 0 0-.852.48c-.327.29-.608.689-.8.96-.232.33-.42.608-.645.9-.218.28-.416.496-.606.656-.176.148-.338.243-.489.28-.156.04-.4.041-.77-.154-.376-.198-.846-.583-1.397-1.255-1.055-1.283-1.891-2.353-2.58-3.165a14.32 14.32 0 0 0-.937-1.022c-.28-.27-.546-.482-.801-.61a1.224 1.224 0 0 0-.397-.125.759.759 0 0 0-.393.051.789.789 0 0 0-.296.229 1.565 1.565 0 0 0-.205.336 3.7 3.7 0 0 0-.139.346c-.066.19-.134.414-.204.668-.117.425-.242.947-.377 1.573a18.39 18.39 0 0 1 .517-1.525c.098-.243.195-.447.292-.612.064-.11.128-.202.19-.277a.773.773 0 0 1 .215-.19c.065-.035.113-.038.147-.028.03.009.057.031.087.057.031.027.076.069.132.13.12.133.265.325.462.625.194.295.415.66.686 1.108.534.886 1.24 2.075 2.175 3.485.556.825 1.116 1.454 1.698 1.892.593.446 1.225.703 1.894.746.664.043 1.266-.133 1.778-.391.504-.253.94-.594 1.3-.915.355-.316.685-.657.93-.897.235-.23.477-.44.484-.39 0 .006-.06.108-.311.185a1.252 1.252 0 0 1-.491.046 1.37 1.37 0 0 1-.537-.171 1.37 1.37 0 0 1-.424-.377c-.027-.03-.01.028.018.179a1.04 1.04 0 0 1-.04-.468c.018-.134.059-.228.069-.256.017-.05-.051.032-.267.195-.28.213-.648.454-1.173.786-.29.182-.614.388-.947.607-.915.599-1.965 1.336-2.94 2.224-.978.892-1.902 1.953-2.543 3.203-1.35 2.599-1.405 5.44-1.173 7.463.142 1.24.4 2.253.605 2.853.136.4.194.635.234.626zM185.196 107.02c.042-.003.084-.41.07-1.04-.002-.158-.005-.33-.006-.513-.006-.917.021-2.117.167-3.26.072-.571.174-1.125.314-1.62.14-.496.317-.924.535-1.25.109-.161.226-.295.35-.399.125-.103.258-.176.4-.219a1.13 1.13 0 0 1 .468-.036c.173.02.367.077.585.18.447.21.767.454.996.715.229.26.372.543.457.84.173.599.113 1.263.01 1.928-.052.329-.114.653-.157.964a3.788 3.788 0 0 0-.042.894c.015.143.045.286.1.422a1.146 1.146 0 0 0 .646.648c.155.065.33.108.521.13.42.049.794-.05 1.115-.246.314-.192.567-.47.772-.768.407-.59.678-1.336.876-1.872.05-.137.096-.26.139-.367.043-.108.08-.193.111-.253.031-.057.062-.085.034-.052a.308.308 0 0 1-.123.084.397.397 0 0 1-.283.005.376.376 0 0 1-.147-.092c-.017-.017-.019-.022-.012-.006.016.04.04.104.079.243.073.266.16.685.27 1.315.096.554.069 1.132-.06 1.735-.129.605-.358 1.232-.663 1.877-.611 1.298-1.5 2.626-2.413 3.971-.9 1.326-1.832 2.681-2.462 3.975-.317.651-.569 1.308-.702 1.96-.134.655-.151 1.316.016 1.964.063.242.183.452.337.632.152.178.337.327.538.453.397.25.903.443 1.47.597 1.138.31 2.662.503 4.41.631 3.502.258 8.064.261 12.551.327 4.51.066 8.942.194 12.254.688 1.662.249 2.982.581 3.875 1.012.444.214.744.434.93.646.176.2.248.392.255.591a1.56 1.56 0 0 1-.141.733 2.056 2.056 0 0 1-.502.65c-.484.44-1.237.834-2.252 1.185-1.006.348-2.213.636-3.556.893-1.34.257-2.797.479-4.3.701-2.985.443-6.168.887-8.84 1.6-1.34.358-2.583.792-3.627 1.344-1.042.551-1.933 1.245-2.507 2.145-.252.392-.453.75-.603 1.074a3.575 3.575 0 0 0-.302.93 2.034 2.034 0 0 0-.026.32c0 .202.036.409.12.606.137.319.372.54.635.683.252.137.53.202.786.233.264.032.547.034.831.02.576-.028 1.249-.127 1.927-.238 1.493-.244 2.998-.535 4.492-.596.758-.03 1.456.002 2.075.121.638.123 1.17.333 1.596.636.68.484 1.572.79 2.505.996.978.216 2.084.339 3.206.41 2.302.148 5.035.093 7.096.087a55.628 55.628 0 0 1 3.045.053c.918.05 1.597.14 2.043.274.23.068.347.133.394.17.02.016.016.017.003-.002a.23.23 0 0 1-.033-.091c-.005-.032 0-.051-.002-.04a.534.534 0 0 1-.054.114c-.077.13-.225.317-.48.56-.49.39-1.211.798-2.104 1.21-.948.438-2.063.87-3.248 1.292-2.491.884-5.613 1.821-8.178 2.61-3.099.954-5.74 1.797-7.907 2.663-1.174.47-2.17.931-2.965 1.395-.42.245-.791.495-1.105.752a4.08 4.08 0 0 0-.812.86 1.8 1.8 0 0 0-.25.536 1.441 1.441 0 0 0 .184 1.17c.103.16.23.293.36.404.261.224.584.396.906.532.34.144.724.266 1.123.372.836.222 1.825.394 2.801.534 1.04.148 2.151.271 3.165.378 1.106.116 2.076.21 2.988.316.92.106 1.674.212 2.214.33.277.06.457.114.574.16.053.022.075.035.068.024-.002-.003-.059-.067-.085-.168a.448.448 0 0 1-.012-.17.368.368 0 0 1 .042-.133c.026-.048.062-.07.031-.034-.05.058-.21.169-.513.31-2.624 1.159-4.6 2.446-5.809 3.804-.547.615-.94 1.25-1.151 1.89-.197.597-.232 1.192-.089 1.757a3.11 3.11 0 0 0 .833 1.427c.388.392.898.737 1.522 1.015 1.114.497 2.657.806 4.529.716-1.88-.02-3.367-.437-4.391-.996-.573-.313-1.007-.673-1.314-1.048-.33-.405-.51-.825-.57-1.24-.065-.444.005-.9.202-1.362.213-.5.578-1.014 1.096-1.532 1.152-1.151 3.028-2.29 5.604-3.348.347-.138.645-.285.857-.455a1.12 1.12 0 0 0 .308-.37.841.841 0 0 0 .058-.61.973.973 0 0 0-.288-.448 1.613 1.613 0 0 0-.347-.235 4.214 4.214 0 0 0-.826-.299c-.616-.165-1.434-.304-2.358-.433-.913-.128-1.92-.246-3.002-.377a97.298 97.298 0 0 1-3.107-.412c-.954-.148-1.87-.319-2.615-.525a7.002 7.002 0 0 1-.91-.309 1.919 1.919 0 0 1-.485-.279.254.254 0 0 1-.052-.056.197.197 0 0 1 .019.125c-.001.007.003-.012.033-.055.095-.14.252-.31.495-.509.232-.189.529-.39.897-.605.7-.407 1.615-.835 2.75-1.288 2.098-.838 4.679-1.664 7.782-2.622 2.543-.785 5.708-1.738 8.241-2.641 1.208-.43 2.373-.884 3.383-1.352.95-.442 1.818-.922 2.46-1.443l.025-.02.022-.02c.326-.31.598-.623.783-.94.092-.159.17-.33.218-.513.048-.183.067-.38.04-.584a1.367 1.367 0 0 0-.208-.559 1.592 1.592 0 0 0-.375-.399c-.264-.202-.587-.336-.913-.432-.633-.185-1.464-.28-2.41-.33a56.824 56.824 0 0 0-3.136-.051c-2.107.009-4.756.065-6.99-.075-1.082-.068-2.1-.183-2.968-.373-.85-.186-1.504-.434-1.936-.74-.652-.462-1.407-.74-2.208-.894-.774-.148-1.599-.18-2.434-.145-1.615.067-3.249.383-4.68.618-.679.111-1.273.197-1.75.22a3.343 3.343 0 0 1-.566-.01.724.724 0 0 1-.233-.056c-.013-.007.037.035.053.071.011.026.007.032.006.004a.45.45 0 0 1 .007-.076c.017-.107.065-.275.178-.518.11-.24.273-.534.5-.888.379-.596 1.018-1.131 1.922-1.611.902-.479 2.022-.878 3.301-1.222 2.566-.69 5.645-1.126 8.667-1.58 1.502-.226 2.986-.457 4.361-.724 1.374-.267 2.66-.575 3.764-.962 1.094-.384 2.065-.864 2.763-1.506.354-.325.646-.7.843-1.133a3.04 3.04 0 0 0 .267-1.412c-.026-.581-.26-1.084-.631-1.501-.362-.407-.85-.728-1.4-.99-1.094-.52-2.587-.87-4.293-1.118-3.424-.498-7.948-.61-12.445-.661-4.523-.051-9.023-.039-12.474-.275-1.727-.119-3.15-.298-4.163-.565-.508-.133-.876-.28-1.121-.43a1.089 1.089 0 0 1-.245-.194.313.313 0 0 1-.071-.113c-.115-.415-.122-.874-.025-1.387.097-.516.295-1.073.576-1.671.566-1.206 1.423-2.491 2.323-3.855.888-1.346 1.81-2.758 2.446-4.159.32-.703.571-1.416.71-2.128.14-.714.167-1.431.031-2.14-.122-.634-.229-1.096-.33-1.414a2.346 2.346 0 0 0-.167-.413.957.957 0 0 0-.127-.183.637.637 0 0 0-.258-.176.563.563 0 0 0-.392.006.619.619 0 0 0-.232.162 1.146 1.146 0 0 0-.19.31 4.698 4.698 0 0 0-.126.336l-.128.39c-.181.56-.398 1.208-.714 1.707a1.884 1.884 0 0 1-.505.557.93.93 0 0 1-.613.163 1.223 1.223 0 0 1-.32-.062.528.528 0 0 1-.174-.098.426.426 0 0 1-.103-.14.83.83 0 0 1-.067-.23c-.031-.195-.024-.438.006-.733.028-.29.077-.615.118-.958.082-.68.134-1.453-.1-2.17a2.697 2.697 0 0 0-.6-1.019c-.29-.31-.674-.58-1.174-.802a2.359 2.359 0 0 0-.733-.202 1.555 1.555 0 0 0-.648.073 1.571 1.571 0 0 0-.534.316 2.285 2.285 0 0 0-.413.497c-.24.378-.418.852-.553 1.37-.135.52-.228 1.094-.29 1.677-.126 1.165-.132 2.38-.104 3.303.006.184.012.357.02.516.03.636.137 1.035.179 1.032z"/>
        <path fill="none" stroke="#000" stroke-miterlimit="10" stroke-width=".5" d="M188.175 80.391c0 .001 6.284 14.798 13.482 31.545 5.02 11.652 11.11 23.75 13.201 34.54.469 2.42 3.596 5.579 4.475 10.132 1.271 6.621.45 15.142 1.86 20.026.798 2.783 3.324-.133 3.32 1.011-.03 8.267-2.316 15.963-3.985 22.375-2.829 10.859-5.67 18.034-5.67 18.034"/>
        <path fill="none" stroke="#000" stroke-miterlimit="10" stroke-width=".5" d="M187.022 83.08s.551 3.014 2.287 6.537c1.313 2.688 3.585 5.229 5.242 9.565 1.814 4.734 2.593 11.148 4.98 16.74 2.732 6.38 7.2 11.597 9.832 18.468 1.223 3.182.987 7.279 1.86 10.494.73 2.695 2.58 4.532 3.458 7.041 1.817 5.22 2.893 11.121 3.055 16.474.101 3.651-.82 7.324.131 9.246.335.67 3.175.021 3.452 1.114 1.138 4.422-1.83 12.326-3.985 19.53-2.798 9.349-5.172 17.708-5.172 17.708"/>
        <path fill="none" stroke="#000" stroke-miterlimit="10" stroke-width=".5" d="M204.538 201.261s13.508 4.103 18.336 6.595c4.818 2.49 5.434 5.686 5.434 5.686m-25.958-3.387s4.059-2.169 9.624 1.951c5.574 4.12 12.54 14.433 12.54 14.433"/>
        <path fill="#ff8080" stroke="#000" stroke-miterlimit="10" d="M201.328 198.827l1.19-.537-.168 12.398-1.812-.375z"/>
        <path fill="#ffb380" stroke="#000" stroke-miterlimit="10" stroke-width=".5" d="M144.403 42.496c.083-.436-.894-1.421-4.25 2.23-2.147 2.337-7.428 10.686-6.391 12.005.217.275 2.387-5.438 5.254-9.415 2.246-3.099 5.351-4.625 5.387-4.82z"/>
        <path fill="#faa" stroke="#000" stroke-miterlimit="10" stroke-width=".5" d="M144.403 42.496c.402.223.326 2.02-.265 2.813-.604.799-.774-.85-3.193 1.132-2.406 1.981-4.812 5.714-4.812 5.714s3.416-5.447 4.525-6.737c1.109-1.29 3.342-3.143 3.745-2.922z"/>
        <path fill="none" stroke="#000" stroke-miterlimit="10" stroke-width=".5" d="M124.013 50.544s1.904 2.954 2.72 7.721c.816 4.766.559 11.431.559 11.431m-.851-18.657s1.568 3.501 2.021 6.296c.452 2.794-.076 10.026-.076 10.026"/>
        <path fill="#ffb380" stroke="#000" stroke-miterlimit="10" stroke-width=".5" d="M128.647 52.297c-.255.52 1.251 1.861 1.938 4.107.688 2.247.796 4.887.796 4.887l1.131-2.196s.013-2.491-1.022-4.121c-1.05-1.63-2.594-3.199-2.843-2.677z"/>
        <path fill="none" stroke="#000" stroke-miterlimit="10" stroke-width=".5" d="M135.471 62.735s.992 81.903.635 86.487c-.37 4.587-.541 45.215-.541 45.215m1.822-132.982s1.229 71.991 1.232 77.7c.004 5.715-1.119 53.953-1.119 53.953M124.041 80.391c0 .001-.737 25.414-.828 55.859-.024 8.942.7 18.258.654 27.563-.067 12.043-.663 23.652-.654 34.407.006 7.548 1.32 14.248 1.303 20.261-.012 4.305-.634 7.696-.648 10.894-.029 5.795-.657 9.225-.655 10.143.006 3.269.887 5.225 1.173 6.997.297 1.791 0 3.376 0 3.376"/>
    </g>
</svg>
