<svg xmlns="http://www.w3.org/2000/svg" xmlns:xlink="http://www.w3.org/1999/xlink" viewBox="0 0 256 256">
    <defs>
        <linearGradient id="innoGrad5">
            <stop offset="0" stop-color="#ff2a2a" stop-opacity="0"/>
            <stop offset=".346" stop-color="#ff2a2a" stop-opacity=".502"/>
            <stop offset="1" stop-color="#ff2a2a" stop-opacity="0"/>
        </linearGradient>
        <linearGradient id="innoGrad4">
            <stop offset="0" stop-color="#ff2a2a" stop-opacity="0"/>
            <stop offset=".255" stop-color="#ff2a2a" stop-opacity=".502"/>
            <stop offset="1" stop-color="#ff2a2a" stop-opacity="0"/>
        </linearGradient>
        <linearGradient id="innoGrad3">
            <stop offset="0" stop-color="#ff2a2a" stop-opacity=".502"/>
            <stop offset=".5" stop-color="#ff2a2a" stop-opacity="0"/>
            <stop offset="1" stop-color="#ff2a2a" stop-opacity=".251"/>
        </linearGradient>
        <linearGradient id="innoGrad2">
            <stop offset="0" stop-color="#ff2a2a" stop-opacity="0"/>
            <stop offset="1" stop-color="#ff2a2a" stop-opacity=".502"/>
        </linearGradient>
        <linearGradient id="innoGrad1">
            <stop offset="0" stop-color="#ff2a2a" stop-opacity=".502"/>
            <stop offset=".5" stop-color="#ff2a2a" stop-opacity="0"/>
            <stop offset="1" stop-color="#ff2a2a" stop-opacity=".502"/>
        </linearGradient>
        <linearGradient id="linearGradient981" x1="47" x2="117.562" y1="12" y2="111.558" gradientUnits="userSpaceOnUse" xlink:href="#innoGrad1"/>
        <linearGradient id="linearGradient1007" x1="61.784" x2="89.049" y1="174.585" y2="181.736" gradientUnits="userSpaceOnUse" xlink:href="#innoGrad2"/>
        <linearGradient id="linearGradient1038" x1="46.416" x2="74.862" y1="163.854" y2="167.43" gradientUnits="userSpaceOnUse" xlink:href="#innoGrad2"/>
        <linearGradient id="linearGradient1061" x1="57.321" x2="28.5" y1="116.489" y2="17.333" gradientUnits="userSpaceOnUse" xlink:href="#innoGrad2"/>
        <linearGradient id="linearGradient1084" x1="63.821" x2="59.058" y1="145.016" y2="101.781" gradientUnits="userSpaceOnUse" xlink:href="#innoGrad2"/>
        <linearGradient id="linearGradient1107" x1="53.776" x2="78.5" y1="131.429" y2="134.89" gradientUnits="userSpaceOnUse" xlink:href="#innoGrad3"/>
        <linearGradient id="linearGradient1140" x1="148.23" x2="182.108" y1="188.879" y2="188.879" gradientUnits="userSpaceOnUse" xlink:href="#innoGrad2"/>
        <linearGradient id="linearGradient1171" x1="70.385" x2="117.851" y1="175.221" y2="175.221" gradientUnits="userSpaceOnUse" xlink:href="#innoGrad2"/>
        <linearGradient id="linearGradient1194" x1="95.102" x2="144.101" y1="182.132" y2="182.132" gradientUnits="userSpaceOnUse" xlink:href="#innoGrad2"/>
        <linearGradient id="linearGradient1217" x1="121.541" x2="166.802" y1="189.475" y2="189.475" gradientUnits="userSpaceOnUse" xlink:href="#innoGrad2"/>
        <linearGradient id="linearGradient1249" x1="90.25" x2="123.875" y1="133.876" y2="107.625" gradientUnits="userSpaceOnUse" xlink:href="#innoGrad2"/>
        <linearGradient id="linearGradient1251" x1="116.919" x2="144.148" y1="141.175" y2="113.224" gradientUnits="userSpaceOnUse" xlink:href="#innoGrad2"/>
        <linearGradient id="linearGradient1253" x1="148.402" x2="166.657" y1="148.578" y2="118.757" gradientUnits="userSpaceOnUse" xlink:href="#innoGrad2"/>
        <linearGradient id="linearGradient1255" x1="170.489" x2="182.361" y1="155.25" y2="122.901" gradientUnits="userSpaceOnUse" xlink:href="#innoGrad2"/>
        <linearGradient id="linearGradient1278" x1="99.375" x2="101.424" y1="154.063" y2="147.406" gradientUnits="userSpaceOnUse" xlink:href="#innoGrad2"/>
        <linearGradient id="linearGradient1301" x1="108.251" x2="98.351" y1="123.834" y2="142.673" gradientUnits="userSpaceOnUse" xlink:href="#innoGrad2"/>
        <linearGradient id="linearGradient1324" x1="97.333" x2="96.57" y1="127.951" y2="143.879" gradientUnits="userSpaceOnUse" xlink:href="#innoGrad2"/>
        <linearGradient id="linearGradient1347" x1="126.833" x2="135.5" y1="162.237" y2="132" gradientUnits="userSpaceOnUse" xlink:href="#innoGrad4"/>
        <linearGradient id="linearGradient1378" x1="113.799" x2="130.143" y1="152.538" y2="152.538" gradientUnits="userSpaceOnUse" xlink:href="#innoGrad2"/>
        <linearGradient id="linearGradient1401" x1="147.813" x2="160.813" y1="169.499" y2="137.875" gradientUnits="userSpaceOnUse" xlink:href="#innoGrad4"/>
        <linearGradient id="linearGradient1432" x1="152.438" x2="152.438" y1="139.688" y2="156.377" gradientUnits="userSpaceOnUse" xlink:href="#innoGrad2"/>
        <linearGradient id="linearGradient1455" x1="155.387" x2="157.343" y1="167.077" y2="160.813" gradientUnits="userSpaceOnUse" xlink:href="#innoGrad2"/>
        <linearGradient id="linearGradient1478" x1="171.709" x2="173.638" y1="174.08" y2="164.752" gradientUnits="userSpaceOnUse" xlink:href="#innoGrad2"/>
        <linearGradient id="linearGradient1501" x1="179.34" x2="176.052" y1="139.001" y2="162.459" gradientUnits="userSpaceOnUse" xlink:href="#innoGrad2"/>
        <linearGradient id="linearGradient1524" x1="173.537" x2="177.876" y1="171.414" y2="147.874" gradientUnits="userSpaceOnUse" xlink:href="#innoGrad5"/>
    </defs>
    <g fill="#f55" stroke="#000000" stroke-linejoin="round" stroke-miterlimit="10" stroke-width=".818">
        <path d="M164.517 115.459c-1.02-.833 5.152-.556 10.423.566 1.852.394 3.569.559 4.978.808 1.741.306 2.388 1.67 2.388 1.67s-1.336 6.235-4.687 16.445c-3.352 10.212-6.392 16.76-6.392 16.76s-3.216 2.803-8.114 1.8c-4.899-1.003-8.667-3.958-8.667-3.958s1.368-3.753 3.104-8.771l-3.052-.395c0 .002 9.29-24.211 10.019-24.925z" transform="matrix(1.07273 0 0 1.07257 14.26 -6.37)"/>
        <path d="M156.352 135.579l7.27-21.482c.991-.007-7.27 21.482-7.27 21.482zM119.209 102.238c.809-.552 2.232.167 3.589.418.689.126 1.859-.36 2.535-.198 2.253.544 3.724 1.82 3.724 1.82.414.057 1.585.818 3.541 1.292 1.684.405 4.047.47 5.877 1.161 1.504.567 2.536 1.775 3.657 2.377.543.29 1.399.086 1.849.244.92.323 1.222.828 1.222.828.428.157-.403 2.755-1.708 6.171 1.789-3.951 3.226-6.736 3.712-6.728l16.414 4.473c-.492-.134-15.219 34.482-15.219 34.482s-4.251.442-8.61-.898c-4.358-1.342-7.222-4.892-7.222-4.892s1.503-3.85 3.551-8.926c-.002 0-.006.012-.006.012l-3.486-1.314c-2.729 5.086-4.998 8.985-5.589 8.901-.838-.12-3.919 1.736-9.279-1.056-5.361-2.787-5.207-6.04-5.207-6.04s3.833-7.729 7.816-15.354l-4.256 7.22-1.922-1.146c-3.234 5.233-6.088 9.69-6.088 9.69s-2.614 1.919-6.408-.618c-2.72-1.815-1.838-4.263-1.838-4.263s16.76-25.89 19.351-27.656z" transform="matrix(1.07273 0 0 1.07257 14.26 -6.37)"/>
    </g>
    <g stroke-width=".932">
        <path fill="#f55" d="M44.833 12.221l19.846-5.72s21.412 12.871 54.463 54.97c26.685 33.99 26.098 75.757 26.098 75.757l-22.598-4.54s5.656-22.669-21.9-60.222C70.635 31.439 44.832 12.22 44.832 12.22z"/>
        <path fill="url(#linearGradient981)" stroke="#000000" stroke-linejoin="round" stroke-miterlimit="10" d="M28.5 17.333L47 12s19.961 12 50.771 51.25c24.876 31.691 24.329 70.632 24.329 70.632l-21.066-4.233s5.272-21.135-20.416-56.148C52.554 35.25 28.5 17.333 28.5 17.333z" transform="matrix(1.07273 0 0 1.07257 14.26 -6.37)"/>
    </g>
    <g stroke-width=".932">
        <path fill="#faa" d="M102.045 111.97s3.503 1.368 5.945 2.861c1.624.993 2.191 2.323 3.084 2.323 2.234 0-.566 4.144 1.549 5.667 2.115 1.523 94.02 19.898 94.02 19.898l-13.408 104.217s-3.273 2.889-18.907 2.86c-7.565-.013-17.286 1.069-32.092-1.628-10.7-1.95-18.127-5.585-25.978-7.846-12.642-3.642-22.225-5.382-28.159-7.508-4.578-1.64-6.972-4.113-6.972-4.113s3.62-8.66 11.084-53.002c7.464-44.34 9.834-63.729 9.834-63.729z"/>
        <path fill="#ff2a2a" d="M100.749 159.795l-.002-.495c-.001-.324-.018-.798.038-1.401.041-.603.092-1.334.148-2.174l.096-1.338.205-1.471.46-3.314c.172-1.175.304-2.423.592-3.687l1.607-7.956c.252-1.36.587-2.707.912-4.023.33-1.319.621-2.622.961-3.873l1.002-3.61c.336-1.143.697-2.211 1.008-3.204.311-.994.684-1.88.97-2.68.3-.796.634-1.47.873-2.035.31-.555.498-.988.722-1.287.17-.28.37-.49.37-.49l.726.79s-.043.04-.224.304c-.178.215-.383.65-.675 1.143-.244.54-.579 1.174-.892 1.944-.298.779-.684 1.634-1.015 2.61-.331.975-.715 2.022-1.075 3.147l-1.08 3.554c-.369 1.236-.694 2.536-1.054 3.845-.359 1.315-.722 2.638-1.006 3.986l-1.795 7.897c-.32 1.256-.48 2.495-.68 3.663-.192 1.17-.374 2.275-.54 3.295-.085.51-.165 1-.241 1.465l-.129 1.33-.2 2.168c-.071.6-.066 1.076-.072 1.399l-.01.498z"/>
        <path fill="url(#linearGradient1007)" stroke="#000000" stroke-miterlimit="10" d="M81.833 110.333s3.266 1.275 5.542 2.667c1.514.926 2.043 2.166 2.875 2.166 2.083 0-.528 3.863 1.444 5.283 1.972 1.42 87.646 18.552 87.646 18.552l-12.499 97.166s-3.051 2.693-17.625 2.667c-7.052-.013-16.114.996-29.917-1.519-9.974-1.817-16.898-5.207-24.216-7.315-11.785-3.395-20.719-5.018-26.25-7-4.268-1.529-6.5-3.834-6.5-3.834s3.375-8.075 10.333-49.416c6.958-41.341 9.167-59.417 9.167-59.417z" transform="matrix(1.07273 0 0 1.07257 14.26 -6.37)"/>
        <path fill="#faa" d="M64.679 225.487l16.448 3.214s7.454-28.197 12.684-62.588l8.234-54.144-26.282-1.965s-6.258 62.39-6.615 81.517c-.358 19.127-4.47 33.966-4.47 33.966z"/>
        <path fill="url(#linearGradient1038)" stroke="#000000" stroke-miterlimit="10" d="M47 216.169l15.333 2.997s6.949-26.29 11.824-58.354l7.676-50.48-24.5-1.832s-5.834 58.168-6.167 76.001C50.833 202.334 47 216.169 47 216.169z" transform="matrix(1.07273 0 0 1.07257 14.26 -6.37)"/>
    </g>
    <g stroke-width=".932" transform="matrix(1.07273 0 0 1.07257 14.26 -6.37)">
        <path fill="#faa" d="M76.631 99.53a6.406 6.406 0 0 0-.084-1.357C73.701 82.276 63.877 59.52 57 41.166 51.024 25.215 47.774 12.465 47 12c-1.667-1-16.25-.88-18.5 5.333-.359.992 2.908 13.76 8 30 4.571 14.577 11.05 31.966 15.334 46.918.615 2.146 1.875 4.607 2.333 6.667.08.357.146.708.203 1.054z"/>
        <path fill="url(#linearGradient1061)" stroke="#000000" stroke-miterlimit="10" d="M76.631 99.53a6.406 6.406 0 0 0-.084-1.357C73.701 82.276 63.877 59.52 57 41.166 51.024 25.215 47.774 12.465 47 12c-1.667-1-16.25-.88-18.5 5.333-.359.992 2.908 13.76 8 30 4.571 14.577 11.05 31.966 15.334 46.918.615 2.146 1.875 4.607 2.333 6.667.08.357.146.708.203 1.054z"/>
        <path fill="#faa" d="M54.371 101.972s-.578.487-.412 2.945c.166 2.458.838 2.847 1.037 4.3 2.923 21.253-1.663 35.808-1.663 35.808h21.292s4.86-17.399 3.015-38.453c-.126-1.447.092-3.112-.098-4.601-.107-.835-.911-2.442-.911-2.442z"/>
        <path fill="url(#linearGradient1084)" stroke="#000000" stroke-miterlimit="10" d="M54.371 101.972s-.578.487-.412 2.945c.166 2.458.838 2.847 1.037 4.3 2.923 21.253-1.663 35.808-1.663 35.808h21.292s4.86-17.399 3.015-38.453c-.126-1.447.092-3.112-.098-4.601-.107-.835-.911-2.442-.911-2.442z"/>
        <path fill="#ffb380" stroke="#000000" stroke-linejoin="round" stroke-miterlimit="10" d="M70.843 107.625s-.946-.001-.759.917c.187.918 1.104.771 1.104.771s7.834-.688 8.24-1.188c.406-.5.135-9.553-.136-10.053s-25.979 2.741-25.979 2.741-.437 7.896-.229 9.104c.208 1.208.833 1.146.833 1.146l9.146-.875c1.646-.229-1.311-1.563-2.25-1.438l-5.783.71s-.062-.41-.227-1.088c-.195-.806-.821-1.962-.844-3.455-.041-2.75.979-3.042.979-3.042l23.121-2.5v7.614z"/>
        <path fill="#ffb380" stroke="#000000" stroke-miterlimit="10" d="M64.438 140.75s4.625-3.563 7.563-3.375a4.205 4.205 0 0 1 3.754 2.676l-1.129 4.975-21.626.212 1.438-6.551s1.688-1.639 4.563-1.319c2.875.32 5.437 3.382 5.437 3.382z"/>
        <ellipse cx="58" cy="140.262" fill="none" stroke="#000000" stroke-miterlimit="10" rx=".875" ry="1.261" transform="rotate(17.465 58.006 140.268)"/>
        <ellipse cx="71.759" cy="140.262" fill="none" stroke="#000000" stroke-miterlimit="10" rx=".875" ry="1.261" transform="rotate(-4.289 71.783 140.33)"/>
        <path fill="#faa" stroke="#000000" stroke-miterlimit="10" d="M83.625 128.864s0 6.041-.5 6.026c-.5-.015-4.625 0-4.625 0l.625-6.39z"/>
        <path fill="#faa" d="M55.313 126.063c.636-.626 23.063 1.313 23.813 2.438.75 1.125-.063 6.342-.625 6.39-.245.021-4.347-1.3-9.25-1.789-6.361-.635-13.908-.547-14.438-1.288-.938-1.314.5-5.751.5-5.751z"/>
        <path fill="url(#linearGradient1107)" stroke="#000000" stroke-miterlimit="10" d="M55.313 126.063c.636-.626 23.063 1.313 23.813 2.438.75 1.125-.063 6.342-.625 6.39-.245.021-4.347-1.3-9.25-1.789-6.361-.635-13.908-.547-14.438-1.288-.938-1.314.5-5.751.5-5.751z"/>
    </g>
    <g fill="#f55" stroke="#000000" stroke-miterlimit="10" stroke-width=".932">
        <path d="M116.495 133.882s7.645-25.257 7.38-26.257L112 104.375l-10.125 23.843z" transform="matrix(1.07273 0 0 1.07257 14.26 -6.37)"/>
        <path d="M125.832 107c-1.063-.563-7.832 21.864-7.832 21.864l2.754.55s6.141-21.852 5.078-22.414zM148.499 114.083c-1.75-.333-7.486 24.715-7.486 24.715l7.237 1.332c0 .001 1.999-25.713.249-26.047zM168.097 143.688l2.068-25.437 4.773 2.124-1.875 23.531z" transform="matrix(1.07273 0 0 1.07257 14.26 -6.37)"/>
    </g>
    <g stroke-width=".932">
        <path fill="#ff8080" d="M192.601 144.327l4.737.667 11.711 2.55s-11.758 79.242-14.499 94.878c-.26 1.487-.44 2.4-.519 2.613-1.45 3.88-12.12 3.492-17.61 2.348-2.78-.578-2.65-4.471-2.65-4.471z"/>
        <path fill="#faa" fill-opacity=".749" d="M197.338 144.994s-19.652 99.355-16.97 100.04c2.682.684 12.613.69 13.663 0l15.018-97.49z"/>
        <path fill="url(#linearGradient1140)" stroke="#000000" stroke-miterlimit="10" d="M166.25 140.5l4.416.622 10.917 2.378s-10.961 73.88-13.516 88.458c-.243 1.387-.41 2.237-.484 2.436-1.352 3.618-11.299 3.256-16.416 2.19-2.592-.539-2.47-4.169-2.47-4.169z" transform="matrix(1.07273 0 0 1.07257 14.26 -6.37)"/>
        <path fill="#ff8080" stroke="#000000" stroke-miterlimit="10" d="M179.25 147.313l.923-4.121-13.923-2.692-.986 4.696z" transform="matrix(1.07273 0 0 1.07257 14.26 -6.37)"/>
        <path fill="#ff8080" d="M113.597 126.282l26.488 6.844-23.1 99.491c-1.445 5.497-7.654 4.22-7.654 4.22l-15.082-4.047s-5.403-1.095-3.64-7.8z"/>
        <path fill="#faa" fill-opacity=".749" d="M117.913 125.917l-24.27 99.255c-.882 4.014.484 5.592.484 5.592l14.52 4.348s2.842-.607 3.768-4.31l24.635-100.27z"/>
        <path fill="url(#linearGradient1171)" stroke="#000000" stroke-miterlimit="10" d="M92.602 123.676l24.692 6.381-21.533 92.76c-1.348 5.125-7.136 3.934-7.136 3.934l-14.059-3.773s-5.037-1.021-3.393-7.272z" transform="matrix(1.07273 0 0 1.07257 14.26 -6.37)"/>
        <path fill="#ff8080" stroke="#000000" stroke-miterlimit="10" d="M116.405 133.882L91.694 128l.806-4.166s.616-1.515 1.671-1.252L115.917 128c1.521.438 1.377 2.057 1.377 2.057z" transform="matrix(1.07273 0 0 1.07257 14.26 -6.37)"/>
        <path fill="#ff8080" d="M140.112 133.052l28.135 8.143-23.099 99.491c-1.446 5.497-7.655 4.22-7.655 4.22l-16.73-5.346s-5.402-1.095-3.639-7.8z"/>
        <path fill="#faa" d="M144.427 132.687l-24.27 99.255c-.881 4.014.485 5.592.485 5.592l17.559 5.173s2.842-.607 3.767-4.31l22.644-99.978z"/>
        <path fill="url(#linearGradient1194)" stroke="#000000" stroke-miterlimit="10" d="M117.319 129.988l26.228 7.592-21.533 92.76c-1.348 5.125-7.136 3.934-7.136 3.934l-15.595-4.984s-5.037-1.021-3.393-7.272z" transform="matrix(1.07273 0 0 1.07257 14.26 -6.37)"/>
        <path fill="#ff8080" stroke="#000000" stroke-miterlimit="10" d="M142.725 141.122l-26.313-6.81.806-4.166s.616-1.515 1.671-1.252l23.549 6.559c1.521.438 1.109 2.127 1.109 2.127z" transform="matrix(1.07273 0 0 1.07257 14.26 -6.37)"/>
        <path fill="#ff8080" stroke="#000000" stroke-miterlimit="10" d="M166.25 145.375l-19.397-3.192-4.126-1.061.82-3.542s2.009-1.191 3.828-.83c1.819.361 17.543 3.5 18.875 3.75 1.332.25 0 4.875 0 4.875z" transform="matrix(1.07273 0 0 1.07257 14.26 -6.37)"/>
        <path fill="#ff8080" d="M145.148 240.686s.607 4.744 3.013 5.226c7.735 1.548 23.354 7.012 25.612-3l18.83-93.357-25.235-4.561z"/>
        <path fill="#faa" fill-opacity=".749" d="M172.353 140.305s-6.324 31.806-12.202 60.063c-4.712 22.651-10.133 42.589-9.357 42.947 1.743.805 18.32 4.018 19.26 1.72.938-2.299 21.49-100.914 21.49-100.914z"/>
        <path fill="url(#linearGradient1217)" stroke="#000000" stroke-miterlimit="10" d="M122.014 230.34s.566 4.423 2.809 4.872c7.21 1.443 21.77 6.538 23.875-2.797l17.553-87.04-23.523-4.253z" transform="matrix(1.07273 0 0 1.07257 14.26 -6.37)"/>
    </g>
    <g stroke-width=".932">
        <path fill="#ff8080" d="M124.751 100.217s.7 1.325 2.95 2.1c1.818.627 4.53.221 6.973.984 6.96 2.174 14.3 5.64 12.47 5.766-3.263.223-15.018 36.333-15.018 36.333s-6.66.359-13.097-1.698c-6.436-2.056-7.955-6.48-7.955-6.48s1.609-7.642 5.72-18.725c4.113-11.083 7.957-18.28 7.957-18.28zM149.244 108.396c.672.177-9.387 39.775-9.387 39.775s4.56 2.948 10.639 4.38c6.079 1.43 12.157 0 12.157 0s10.994-37.273 9.028-38.256zM173.56 115.993s.8 1.91.356 5.094c-1.455 10.437-5.487 32.993-3.843 33.608 1.06.398 3.163 3.902 11.53 4.648 8.368.745 10.729-2.235 10.729-2.235s6.346-35.93 4.469-36.646c-.522-.198-2.467-.225-5.096-.984-2.258-.65-5.035-2.015-7.687-2.502-2.179-.401-4.314.05-6.079-.089-.852-.067-1.68-.764-2.325-.894-1.313-.266-2.055 0-2.055 0z"/>
        <path fill="#ff8080" d="M197.148 160.147s.379-11.383 1.083-20.647c.385-5.058 1.183-9.184 1.34-11.173.448-5.63-2.77-7.865-2.77-7.865s2.694-.248 5.72.624c.907.262 1.878 1.397 2.771 1.698 1.763.594 3.967.811 4.47 1.788 1.61 3.128.716 36.2.716 36.2s-.895 2.702-5.454 2.68c-6.36-.026-7.876-3.305-7.876-3.305z"/>
        <path fill="url(#linearGradient1249)" stroke="#000000" stroke-miterlimit="10" d="M103 99.375s.653 1.235 2.75 1.958c1.695.584 4.223.206 6.5.917 6.489 2.027 13.33 5.259 11.625 5.376-3.042.208-14 33.875-14 33.875s-6.209.334-12.209-1.583-7.416-6.042-7.416-6.042 1.5-7.125 5.333-17.458C99.416 106.085 103 99.375 103 99.375z" transform="matrix(1.07273 0 0 1.07257 14.26 -6.37)"/>
        <path fill="url(#linearGradient1251)" stroke="#000000" stroke-miterlimit="10" d="M125.832 107c.627.165-8.75 37.084-8.75 37.084s4.25 2.749 9.917 4.083 11.333 0 11.333 0 10.249-34.75 8.416-35.667z" transform="matrix(1.07273 0 0 1.07257 14.26 -6.37)"/>
        <path fill="url(#linearGradient1253)" stroke="#000000" stroke-miterlimit="10" d="M148.499 114.083s.747 1.781.333 4.75c-1.357 9.731-5.115 30.76-3.583 31.334.989.371 2.949 3.638 10.749 4.333 7.8.695 10.001-2.083 10.001-2.083s5.916-33.5 4.166-34.167c-.486-.185-2.3-.21-4.75-.917-2.105-.607-4.694-1.879-7.166-2.333-2.031-.374-4.022.047-5.667-.083-.794-.063-1.567-.712-2.167-.834-1.224-.248-1.916.001-1.916 0z" transform="matrix(1.07273 0 0 1.07257 14.26 -6.37)"/>
        <path fill="url(#linearGradient1255)" stroke="#000000" stroke-miterlimit="10" d="M170.489 155.25s.353-10.613 1.009-19.25c.359-4.716 1.103-8.563 1.25-10.417.417-5.25-2.583-7.333-2.583-7.333s2.512-.231 5.333.582c.845.244 1.75 1.302 2.583 1.583 1.643.554 3.698.756 4.167 1.667 1.5 2.916.667 33.75.667 33.75s-.834 2.52-5.084 2.5c-5.929-.025-7.342-3.082-7.342-3.082z" transform="matrix(1.07273 0 0 1.07257 14.26 -6.37)"/>
    </g>
    <g stroke-width=".932">
        <path fill="#faa" stroke="#000000" stroke-linejoin="round" stroke-miterlimit="10" d="M174.844 158.015v1.677l4.497.315v-1.787zM131.834 148.76l-.647 3.466-4.914-.803.915-3.151zM104.255 141.375l-1.725 3.185-3.625-.655.513-3.155z" transform="matrix(1.07273 0 0 1.07257 14.26 -6.37)"/>
        <path fill="#faa" stroke="#000000" stroke-linejoin="round" stroke-miterlimit="10" d="M96.458 139.001l5.709 1.125-2.854 17-5.938-1.458z" transform="matrix(1.07273 0 0 1.07257 14.26 -6.37)"/>
        <path fill="#ffd5d5" d="M117.444 144.595l-1.743 1.34-1.275 11.598 6.437 1.34 1.698-12.276z"/>
        <path fill="url(#linearGradient1278)" stroke="#000000" stroke-linejoin="round" stroke-miterlimit="10" d="M100.958 142.617l-4.77-1.867-1.625 1.25-1.188 10.813 6 1.25z" transform="matrix(1.07273 0 0 1.07257 14.26 -6.37)"/>
        <path fill="#ffd5d5" d="M123.858 124.038s.179-.18 3.397.715 3.13 1.698 3.13 1.698-5.945 14.726-7.063 17.742c-1.117 3.016-1.185 4.76-1.185 4.76l-5.878-1.61s2.258-8.915 3.933-14.412c1.676-5.497 3.666-8.893 3.666-8.893z"/>
        <path fill="url(#linearGradient1301)" stroke="#000000" stroke-linejoin="round" stroke-miterlimit="10" d="M102.167 121.584s.167-.167 3.167.667c3 .834 2.917 1.583 2.917 1.583s-5.541 13.729-6.583 16.541c-1.042 2.812-1.105 4.438-1.105 4.438l-5.479-1.5s2.104-8.313 3.666-13.438c1.562-5.125 3.417-8.291 3.417-8.291z" transform="matrix(1.07273 0 0 1.07257 14.26 -6.37)"/>
        <path fill="#ffd5d5" d="M114.426 130.92l7.241-.604s.112 14.53.894 16.281c.782 1.752-4.288-1.334-6.861-.661-1.283.335-1.274-15.016-1.274-15.016z"/>
        <path fill="url(#linearGradient1324)" stroke="#000000" stroke-linejoin="round" stroke-miterlimit="10" d="M93.375 128l6.75-.563s.104 13.547.833 15.18c.729 1.633-3.997-1.244-6.396-.617-1.196.313-1.187-14-1.187-14z" transform="matrix(1.07273 0 0 1.07257 14.26 -6.37)"/>
        <path fill="#ffb380" stroke="#000000" stroke-miterlimit="10" d="M103.594 148.407a.78.78 0 0 1-.905.628l-9.904-1.789a.78.78 0 0 1-.628-.906l.649-3.595a.779.779 0 0 1 .905-.627l9.904 1.788a.779.779 0 0 1 .628.906zm-.637-3.231a.53.53 0 0 0-.427-.616l-8.032-1.45a.527.527 0 0 0-.614.427l-.441 2.44a.527.527 0 0 0 .427.614l8.031 1.451a.528.528 0 0 0 .615-.427z" transform="matrix(1.07273 0 0 1.07257 14.26 -6.37)"/>
        <path fill="#ffb380" stroke="#000000" stroke-miterlimit="10" d="M102.438 146.969l-1.16-1.55-1.122 1.394 1.292 1.147z" transform="matrix(1.07273 0 0 1.07257 14.26 -6.37)"/>
        <path fill="#ffb380" stroke="#000000" stroke-miterlimit="10" d="M94.031 145.25s-.313-.063-.156-.844c.157-.781.506-.756.506-.756s6.678 1.005 6.897 1.769c.211.738-.403 1.519-1.122 1.394-.719-.125-6.125-1.563-6.125-1.563z" transform="matrix(1.07273 0 0 1.07257 14.26 -6.37)"/>
        <path fill="#ff8080" stroke="#000000" stroke-linejoin="round" stroke-miterlimit="10" d="M120.083 163.002c.042.417 5.458 2.125 5.875 2 .417-.125 1.833-7 1.833-7l-5.82-1.625s-1.929 6.208-1.888 6.625z" transform="matrix(1.07273 0 0 1.07257 14.26 -6.37)"/>
        <path fill="#ffd5d5" d="M152.91 132.998s.894-.179 3.398.648c2.503.827 3.307 1.564 3.307 1.564s-2.758 9.06-5.14 17.61c-2.08 7.465-3.812 14.554-3.978 14.701-.358.314-6.034-.582-6.303-1.14-.183-.38 3.44-15.84 6.08-25.585 1.22-4.508 2.636-7.798 2.636-7.798z"/>
        <path fill="url(#linearGradient1347)" stroke="#000000" stroke-linejoin="round" stroke-miterlimit="10" d="M129.25 129.938s.833-.167 3.167.604c2.334.771 3.083 1.458 3.083 1.458s-2.571 8.448-4.791 16.418c-1.939 6.961-3.554 13.57-3.709 13.707-.333.293-5.625-.543-5.875-1.063-.171-.355 3.207-14.768 5.667-23.854 1.138-4.203 2.458-7.27 2.458-7.27z" transform="matrix(1.07273 0 0 1.07257 14.26 -6.37)"/>
        <path fill="#ffb380" stroke="#000000" stroke-miterlimit="10" d="M131.715 156.804a.78.78 0 0 1-.896.643l-9.932-1.624a.78.78 0 0 1-.643-.896l.589-3.605a.779.779 0 0 1 .895-.642l9.934 1.623a.78.78 0 0 1 .642.896zm-.692-3.221a.53.53 0 0 0-.438-.609l-8.055-1.315a.525.525 0 0 0-.607.437l-.401 2.447a.526.526 0 0 0 .437.607l8.055 1.316a.526.526 0 0 0 .607-.437z" transform="matrix(1.07273 0 0 1.07257 14.26 -6.37)"/>
        <path fill="#f1f2f2" stroke="#000000" stroke-miterlimit="10" d="M124.248 152.982l-.31 1.313s4.854.667 5.229.625c.375-.042 1.042-1.414.375-1.52-.667-.106-5.294-.418-5.294-.418z" transform="matrix(1.07273 0 0 1.07257 14.26 -6.37)"/>
        <path fill="#ffd5d5" d="M136.908 155.949s-.386.547.626 3.397c1.011 2.85 1.207 3.397 1.207 3.397s14.25-5.43 14.611-5.821c.362-.392-5.493-5.188-5.493-5.188z"/>
        <path fill="url(#linearGradient1378)" stroke="#000000" stroke-linejoin="round" stroke-miterlimit="10" d="M114.333 151.336s-.36.51.583 3.167l1.125 3.167s13.284-5.062 13.621-5.427c.337-.365-5.121-4.837-5.121-4.837z" transform="matrix(1.07273 0 0 1.07257 14.26 -6.37)"/>
        <path fill="#faa" stroke="#000000" stroke-linejoin="round" stroke-miterlimit="10" d="M122.375 149.295l1.25 3.625s.542 1.312 0 1.822-7.583 2.928-7.583 2.928l-1.688-5.132c-.437-1.327.418-1.371.418-1.371s7.311-2.721 7.603-1.872zM150.957 153.514l-.69 3.943 7.857 1.295.918-4.148z" transform="matrix(1.07273 0 0 1.07257 14.26 -6.37)"/>
        <path fill="#ffd5d5" d="M180.399 140.17l6.37 1.341s-2.616 17.74-3.185 21.003c-.57 3.264-4.727 14.324-4.727 14.324l-6.034-1.408s4.364-12.171 4.761-15.016c.397-2.844 2.815-20.244 2.815-20.244z"/>
        <path fill="url(#linearGradient1401)" stroke="#000000" stroke-linejoin="round" stroke-miterlimit="10" d="M154.875 136.625l5.938 1.25s-2.438 16.539-2.969 19.582c-.531 3.043-4.406 13.355-4.406 13.355l-5.625-1.313s4.068-11.348 4.438-14c.37-2.652 2.624-18.874 2.624-18.874z" transform="matrix(1.07273 0 0 1.07257 14.26 -6.37)"/>
        <path fill="#ffd5d5" d="M177.785 143.456s.038 3.515.47 7.24c.463 4 1.266 8.301-.47 10.66l5.43 1.387s1.141-1.17 1.208-2.948c.203-5.387-.552-16.354-1.207-17.211z"/>
        <path fill="url(#linearGradient1432)" stroke="#000000" stroke-linejoin="round" stroke-miterlimit="10" d="M152.438 139.688s.036 3.277.438 6.75c.432 3.729 1.181 7.74-.438 9.939l5.063 1.293s1.063-1.091 1.125-2.748c.19-5.023-.514-15.248-1.125-16.047z" transform="matrix(1.07273 0 0 1.07257 14.26 -6.37)"/>
        <path fill="#ffd5d5" d="M174.94 171.969c.162.981 5.56 1.451 6.18 1.115.62-.335 2.095-10.342 2.095-10.342l-5.431-1.387z"/>
        <path fill="url(#linearGradient1455)" stroke="#000000" stroke-linejoin="round" stroke-miterlimit="10" d="M149.786 166.272c.151.915 5.183 1.353 5.761 1.04.578-.313 1.953-9.643 1.953-9.643l-5.063-1.293z" transform="matrix(1.07273 0 0 1.07257 14.26 -6.37)"/>
        <path fill="#ffb380" stroke="#000000" stroke-miterlimit="10" d="M158.844 162.438a.78.78 0 0 1-.915.615l-9.074-1.757a.78.78 0 0 1-.615-.915l.698-3.586a.779.779 0 0 1 .913-.614l9.077 1.756a.78.78 0 0 1 .614.915zm-.593-3.241a.53.53 0 0 0-.419-.623l-7.207-1.391a.526.526 0 0 0-.62.418l-.475 2.434a.528.528 0 0 0 .419.621l7.207 1.392a.527.527 0 0 0 .62-.418z" transform="matrix(1.07273 0 0 1.07257 14.26 -6.37)"/>
        <path fill="#ffb380" stroke="#000000" stroke-linejoin="round" stroke-miterlimit="10" d="M157.656 159.438l-.313 1.375-5.563-1.063s-1.688-.188-1.5-.906c.188-.718 1.969-.531 1.969-.531z" transform="matrix(1.07273 0 0 1.07257 14.26 -6.37)"/>
        <path fill="#ffd5d5" stroke="#000000" stroke-linejoin="round" stroke-miterlimit="10" d="M173.638 164.752l-1.929 9.328 3.792.667 2.973-9.579z" transform="matrix(1.07273 0 0 1.07257 14.26 -6.37)"/>
        <path fill="url(#linearGradient1478)" stroke="#000000" stroke-linejoin="round" stroke-miterlimit="10" d="M173.638 164.752l-1.929 9.328 3.792.667 2.973-9.579z" transform="matrix(1.07273 0 0 1.07257 14.26 -6.37)"/>
        <path fill="#ffb380" stroke="#000000" stroke-miterlimit="10" d="M180.523 164.558a.78.78 0 0 1-.856.694l-5.726-.401a.78.78 0 0 1-.694-.856l.375-3.634a.778.778 0 0 1 .854-.693l5.729.4a.78.78 0 0 1 .693.856zm-.879-3.174a.533.533 0 0 0-.474-.584l-3.832-.203a.527.527 0 0 0-.581.472l-.255 2.466a.53.53 0 0 0 .473.582l3.833.204a.526.526 0 0 0 .58-.472z" transform="matrix(1.07273 0 0 1.07257 14.26 -6.37)"/>
        <path fill="#ffd5d5" d="M210.1 145.76c-.636-.407-3.284-2.302-4.223-1.162-.45.548-.353 2.337-.67 4.245-.344 2.065-1.08 4.282-.94 5.607.268 2.547 1.877 6.57 1.006 7.91-.87 1.34-2.682 5.105-2.011 6.172.67 1.068 3.688 1.336 3.688 1.336s3.785-23.702 3.15-24.108z"/>
        <path fill="url(#linearGradient1501)" stroke="#000000" stroke-linejoin="round" stroke-miterlimit="10" d="M182.563 141.836c-.593-.379-3.062-2.146-3.937-1.083-.42.511-.329 2.179-.625 3.958-.32 1.925-1.006 3.992-.876 5.227.25 2.375 1.75 6.125.938 7.375s-2.5 4.76-1.875 5.755c.625.995 3.438 1.245 3.438 1.245s3.529-22.098 2.937-22.477z" transform="matrix(1.07273 0 0 1.07257 14.26 -6.37)"/>
        <path fill="#ffd5d5" d="M205.073 152.236c-.135-.984 2.412-2.46 3.262-1.833.85.626 3.442 10.056 2.727 12.022-.209.572-.917 1.91-1.834 3.688-.38.738-.635 1.552-.91 2.418-1.341 4.226-2.272 9.33-3.245 9.804-1.655.804-4.649.089-4.828-.984-.065-.39 1.248-2.154 2.145-4.377.904-2.243 1.397-4.954 2.5-6.958.805-1.466 2.801-1.995 2.82-2.608.133-4.693-2.503-10.189-2.637-11.172z"/>
        <path fill="url(#linearGradient1524)" stroke="#000000" stroke-linejoin="round" stroke-miterlimit="10" d="M177.876 147.874c-.125-.917 2.249-2.293 3.041-1.709.792.584 3.209 9.376 2.542 11.209-.194.533-.854 1.78-1.709 3.438-.355.688-.592 1.447-.848 2.255-1.251 3.94-2.119 8.698-3.026 9.14-1.542.75-4.333.083-4.5-.917-.061-.364 1.163-2.008 1.999-4.081.843-2.091 1.303-4.619 2.33-6.487.751-1.367 2.612-1.86 2.629-2.432.125-4.375-2.333-9.499-2.458-10.416z" transform="matrix(1.07273 0 0 1.07257 14.26 -6.37)"/>
        <path fill="#ffb380" stroke="#000000" stroke-linejoin="round" stroke-miterlimit="10" d="M176.052 162.459s.764-.132 2.115 0c1.351.132 3.041.3 3.333.608.292.308.001 1.059-.333.976-.334-.083-4.979-.542-4.979-.542l-1.615.337.024-1.219z" transform="matrix(1.07273 0 0 1.07257 14.26 -6.37)"/>
    </g>
</svg>
