<svg version="1.1" viewBox="0 0 256 256" xmlns="http://www.w3.org/2000/svg" xmlns:xlink="http://www.w3.org/1999/xlink">
 <defs>
  <linearGradient id="innoGrad2">
   <stop stop-color="#ff2a2a" stop-opacity=".502" offset="0"/>
   <stop stop-color="#ff2a2a" stop-opacity="0" offset=".5"/>
   <stop stop-color="#ff2a2a" stop-opacity=".502" offset="1"/>
  </linearGradient>
  <linearGradient id="innoGrad1">
   <stop stop-color="#ff2a2a" stop-opacity=".502" offset="0"/>
   <stop stop-color="#ff2a2a" stop-opacity="0" offset="1"/>
  </linearGradient>
  <linearGradient id="linearGradient883" x1="82.535" x2="82.535" y1="84.125" y2="184.57" gradientUnits="userSpaceOnUse" xlink:href="#innoGrad1"/>
  <linearGradient id="linearGradient906" x1="125.79" x2="125.91" y1="25.785" y2="31.48" gradientTransform="matrix(1.4435 0 0 1.4437 -59.356 -23.881)" gradientUnits="userSpaceOnUse" xlink:href="#innoGrad1"/>
  <linearGradient id="linearGradient929" x1="46.668" x2="213.17" y1="79.749" y2="79.749" gradientUnits="userSpaceOnUse" xlink:href="#innoGrad2"/>
  <linearGradient id="linearGradient962" x1="76.042" x2="183.8" y1="62.749" y2="62.749" gradientTransform="matrix(1.4435 0 0 1.4437 -59.356 -23.881)" gradientUnits="userSpaceOnUse" xlink:href="#innoGrad2"/>
  <linearGradient id="linearGradient985" x1="74.282" x2="185.29" y1="63.374" y2="63.374" gradientTransform="matrix(1.4435 0 0 1.4437 -59.356 -23.881)" gradientUnits="userSpaceOnUse">
   <stop stop-color="#ff2a2a" stop-opacity=".749" offset="0"/>
   <stop stop-color="#ff2a2a" stop-opacity="0" offset=".05"/>
   <stop stop-color="#ff2a2a" stop-opacity=".749" offset=".117"/>
   <stop stop-color="#ff2a2a" stop-opacity=".749" offset=".161"/>
   <stop stop-color="#ff2a2a" stop-opacity="0" offset=".243"/>
   <stop stop-color="#ff2a2a" stop-opacity=".749" offset=".327"/>
   <stop stop-color="#ff2a2a" stop-opacity=".749" offset=".375"/>
   <stop stop-color="#ff2a2a" stop-opacity="0" offset=".48"/>
   <stop stop-color="#ff2a2a" stop-opacity=".749" offset=".578"/>
   <stop stop-color="#ff2a2a" stop-opacity=".749" offset=".628"/>
   <stop stop-color="#ff2a2a" stop-opacity="0" offset=".719"/>
   <stop stop-color="#ff2a2a" stop-opacity=".749" offset=".783"/>
   <stop stop-color="#ff2a2a" stop-opacity=".749" offset=".833"/>
   <stop stop-color="#ff2a2a" stop-opacity="0" offset=".916"/>
   <stop stop-color="#ff2a2a" stop-opacity=".749" offset=".937"/>
   <stop stop-color="#ff2a2a" stop-opacity="0" offset=".968"/>
   <stop stop-color="#ff2a2a" stop-opacity=".749" offset="1"/>
  </linearGradient>
  <linearGradient id="linearGradient1052" x1="79.947" x2="179.89" y1="40.896" y2="40.896" gradientTransform="matrix(1.4435 0 0 1.4437 -59.356 -23.881)" gradientUnits="userSpaceOnUse" xlink:href="#innoGrad2"/>
  <linearGradient id="linearGradient1075" x1="44.779" x2="214.81" y1="84.762" y2="84.762" gradientTransform="matrix(1.4435 0 0 1.4437 -59.356 -23.881)" gradientUnits="userSpaceOnUse" xlink:href="#innoGrad2"/>
 </defs>
 <g fill="#ff8080" stroke-width=".693">
  <path d="M101.115 194.124c-.127-5.14 12.11-13.445-5.774-33.207-10.25-11.326-31.817 5.21-38.254-7.217-14.236-27.483-1.634-56.127-1.634-56.127h4.33s-13.903 26.097-.77 52.035c5.67 11.2 29.819-1.113 38.975 9.626 18.755 21.993 6.221 28.344 6.496 34.408-1.204 82.775 20.447 28.154 6.254-1.924.33-7.25 37.65 2.28 51.726-26.229 5.676-11.496-5.44-27.818 2.888-35.371 16.261-14.748 25.693-32.545 25.693-32.545h4.33s-9.828 17.446-27.515 35.191c-6.804 6.826 2.852 24.772-2.028 34.409-14.444 28.522-51.323 19.64-51.486 26.23 17.56 67.374-21.413 61.84-13.231.721z"/>
  <path transform="matrix(1.4435 0 0 1.4437 -59.356 -23.881)" d="M111.167 151.001c-.088-3.561 8.39-9.313-4-23.001-7.101-7.845-22.041 3.609-26.5-4.999-9.862-19.036-1.132-38.876-1.132-38.876h3s-9.632 18.076-.534 36.042c3.928 7.757 20.657-.771 27 6.667 12.993 15.234 4.31 19.633 4.5 23.833-.834 57.334 14.165 19.501 4.333-1.333.228-5.021 26.082 1.579 35.833-18.167 3.932-7.963-3.769-19.268 2.001-24.5 11.265-10.215 17.799-22.542 17.799-22.542h3s-6.809 12.084-19.062 24.375c-4.713 4.728 1.976 17.158-1.405 23.833-10.006 19.756-35.554 13.604-35.667 18.168 12.165 46.667-14.834 42.834-9.166.5z" fill="url(#linearGradient883)" stroke="#000" stroke-linejoin="round" stroke-miterlimit="10"/>
  <path transform="matrix(1.4435 0 0 1.4437 -59.356 -23.881)" d="m107.92 149.34h13.834v2.333h-13.834z" fill="#ffb380" stroke="#000" stroke-linejoin="round" stroke-miterlimit="10"/>
 </g>
 <g>
  <path d="M62.273 16.724s5.29-1.434 19.14-2.346c13.546-.892 26.37.241 37.416.241 8.45 0 28.951.56 40.002 1.203 7.982.463 16.685-1.737 22.894-1.625 7.922.145 12.37 2.527 12.37 2.527L126.89 41.628z" fill="#faa"/>
  <path d="M62.273 16.724s5.29-1.434 19.14-2.346c13.546-.892 26.37.241 37.416.241 8.45 0 28.951.56 40.002 1.203 7.982.463 16.685-1.737 22.894-1.625 7.922.145 12.37 2.527 12.37 2.527L126.89 41.628z" fill="url(#linearGradient906)" stroke="#000" stroke-linejoin="round" stroke-miterlimit="10"/>
  <path d="M247.637 92.16L205.234 77.9l-77.05 1.987-77.051-1.986L8.73 92.159l15.325 5.353 43.016.98 29.172 4.676 31.94 1.443 58.711-6.118 45.418-.98z" fill="#faa"/>
  <path transform="matrix(1.4435 0 0 1.4437 -59.356 -23.881)" d="M47.168 80.375l10.616 3.708 29.8.679L107.793 88l22.126 1 40.673-4.238 31.463-.679 10.616-3.708-29.375-9.876-53.376 1.376-53.378-1.376z" fill="url(#linearGradient929)" stroke="#000" stroke-linejoin="round" stroke-miterlimit="10" stroke-width=".693"/>
  <path d="m205.23 77.9-5.662-27.911c-9.847 5.294-132.93 5.294-142.78 0l-5.661 27.912c9.064 7.38 145.04 7.379 154.1 0z" fill="#ff8080"/>
  <path d="m205.23 77.9-5.662-27.91c-9.847 5.293-132.93 5.293-142.78 0l-5.661 27.91c9.064 7.381 145.04 7.38 154.1 0z" fill="url(#linearGradient962)" stroke="#000" stroke-linejoin="round" stroke-miterlimit="10"/>
  <g fill="none" stroke="#000" stroke-dasharray="1" stroke-linejoin="round" stroke-miterlimit="10" stroke-width=".5">
   <path d="m43.785 80.371s-1.801 1.533 3.559 1.722c28.997 1.03 128.24 2.77 145.91 0.962 20.933-2.143 19.328-2.683 19.328-2.683"/>
   <path d="M218.846 82.477s0 1.363-12.241 1.014c-13.511-.386-34.387 2.677-43.178 2.833-6.675.12-38.445-.585-68.326-1.632-8.442-.296-15.85-1.252-23.577-1.45-9.36-.24-24.605 1.358-31.155 1.453-7.528.11-2.846-2.218-2.846-2.218"/>
   <path d="M222.898 83.84s1.742 1.978-6.064 1.848c-7.202-.121-16.774-.1-26.946.428-8.446.439-22.555 2.883-27.665 2.734-8.829-.255-46.92-2.323-77.95-3.222-16.372-.475-39.161 1.666-49.6 1.914-9.974.238-2.889-3.134-2.889-3.134"/>
   <path d="M25.167 86.632s-5.253 3.564 10.389 3.185c6.445-.154 21.335-2.178 29.832-2.144 14.32.058 53.706 3.413 94.068 3.584 15.898.066 28.043-1.096 43.666-3.028 6.484-.802 13.73-.794 19.943-.515 8.545.382 5.546-1.952 5.546-1.952"/>
   <path d="M18.55 88.857s-4.635 2.847 4.801 2.401c12.052-.569 31.041-1.123 55.03-.696 26.013.462 72.912 4.13 79.874 4.262 8.828.168 32.457-4.214 51.845-4.891a201.69 201.69 0 0 1 14.737.037c13.512.523 8.606-2.585 8.606-2.585"/>
   <path d="M14.88 90.092s-9.277 3.252 42.869 3.059c15.823-.06 55.315 3.087 92.804 3.437 20.337.191 40.495-3 56.843-3.437 20.696-.553 33.472-3.269 33.472-3.269"/>
   <path d="M11.825 93.24s58.283 1.591 80.387 4.446c4.998.645 19.841 1.149 39.697 1.33 41.974.386 112.191-8.047 112.191-8.047M15.59 96.597s76.352 3.081 86.366 3.081c3.916 0 14.532 1.32 26.243 1.204 18.235-.179 39.66-.406 39.66-.407"/>
  </g>
  <path d="M184.864 100.28c17.657-.992 38.135-.06 50.588-1.786 18.214-2.526 14.484-4.374 13.724-5.191-1.847-1.986-6.285-2.74-6.285-2.74s7.148 1.416-11.315 1.777c-10.422.203-69.664 10.075-122.031 10.05-14.665-.008-27.51-3.455-39.916-4.76-21.784-2.287-39.587-3.025-44.712-3.125-18.462-.36-11.437-3.943-11.437-3.943s-4.44.755-6.286 2.74c-.76.818-5.784 5.173 12.431 7.7 12.452 1.727 30.16-1.353 47.818-.36 10.808.605 24.284 5.625 41.17 5.774 27.798.244 58.461-5.138 76.251-6.136z" fill="#ff8080" stroke="#000" stroke-linejoin="round" stroke-miterlimit="10"/>
  <path d="M184.864 100.28c17.657-.992 38.135-.06 50.588-1.786 18.214-2.526 14.484-4.374 13.724-5.191-1.847-1.986-6.285-2.74-6.285-2.74s7.148 1.416-11.315 1.777c-10.422.203-69.664 10.075-122.031 10.05-14.665-.008-27.51-3.455-39.916-4.76-21.784-2.287-39.587-3.025-44.712-3.125-18.462-.36-11.437-3.943-11.437-3.943s-4.44.755-6.286 2.74c-.76.818-5.784 5.173 12.431 7.7 12.452 1.727 30.16-1.353 47.818-.36 10.808.605 24.284 5.625 41.17 5.774 27.798.244 58.461-5.138 76.251-6.136z" fill="url(#linearGradient1075)" stroke="#000" stroke-linejoin="round" stroke-miterlimit="10"/>
  <path d="M199.572 49.989c.233-.696-.99-1.236-1.231-2.766-.306-1.938.289-5.082 0-7.94-.515-5.104-.309-11.308-1.293-15.701-1.046-4.66-2.954-6.858-2.954-6.858-10.525 8.12-121.3 8.12-131.823 0 0 0-1.911 2.197-2.953 6.858-.985 4.393-.777 10.597-1.294 15.7-.288 2.859.306 6.003 0 7.94-.24 1.531-1.462 2.071-1.231 2.767 1.602 4.813 141.18 4.813 142.78 0z" fill="#ff8080"/>
  <g stroke="#000" stroke-linejoin="round" stroke-miterlimit="10">
   <path d="M199.572 49.989c.233-.696-.99-1.236-1.231-2.766-.306-1.938.289-5.082 0-7.94-.515-5.104-.309-11.308-1.293-15.701-1.046-4.66-2.954-6.858-2.954-6.858-10.525 8.121-121.3 8.121-131.823 0 0 0-1.911 2.197-2.953 6.858-.985 4.393-.777 10.597-1.294 15.7-.288 2.859.306 6.003 0 7.94-.24 1.531-1.462 2.071-1.231 2.767 1.602 4.813 141.18 4.813 142.78 0z" fill="url(#linearGradient1052)"/>
   <path d="M50.81 57.764c1.045-.42 2.965 1.949 6.595 2.272 5.773.514 13.794-.661 13.794-.107 0 .902 31.938 2.888 33.742 2.346 1.805-.541 36.269 1.624 39.336-1.083 1.214-1.07 8.102.2 14.074 0 9.123-.303 18.292-1.638 18.946-1.156 1.083.795 23.638.254 20.57-1.55-3.067-1.805 6.496-1.463 7.218-1.003.722.461 2.887 12.191 2.165 13.996-.721 1.805-2.332.03-8.1 3.114-5.769 3.084-8.68 1.037-12.47 1.037-3.789 0-14.074 1.296-21.111 1.37-7.037.074-17.683 1.19-20.029 0s-36.81 2.461-40.057.546c-3.248-1.916-33.742-.292-35.186-1.375-1.444-1.083-16.154-2.586-17.73-1.744-1.577.842-2.66-.963-3.742-.782-1.083.18 1.985-15.881 1.985-15.881z" fill="#f55"/>
   <path d="M50.81 57.764c1.045-.42 2.965 1.949 6.595 2.272 5.773.514 13.794-.661 13.794-.107 0 .903 31.938 2.888 33.742 2.346 1.805-.541 36.269 1.624 39.336-1.083 1.214-1.07 8.102.2 14.074 0 9.123-.303 18.292-1.638 18.946-1.156 1.083.796 23.638.254 20.57-1.55-3.067-1.805 6.496-1.463 7.218-1.003.722.461 2.887 12.191 2.165 13.996-.721 1.805-2.332.03-8.1 3.114-5.769 3.084-8.68 1.037-12.47 1.037-3.789 0-14.074 1.296-21.111 1.37-7.037.074-17.683 1.19-20.029 0s-36.81 2.461-40.057.546c-3.248-1.916-33.742-.292-35.186-1.375-1.444-1.083-16.154-2.586-17.73-1.744-1.577.842-2.66-.963-3.742-.782-1.083.18 1.985-15.881 1.985-15.881z" fill="url(#linearGradient985)"/>
   <path d="m70.56 59.495-0.902 16.242m34.644-13.896 0.541 15.27m39.434-15.919 0.624 15.373m31.757-16.964 1.406 16.136m19.803-16.612 0.643 15.789" fill="none"/>
  </g>
 </g>
</svg>
