<?xml version="1.0" encoding="UTF-8" standalone="no"?>
<!-- Generator: Adobe Illustrator 16.0.0, SVG Export Plug-In . SVG Version: 6.00 Build 0)  -->

<svg
   xmlns:dc="http://purl.org/dc/elements/1.1/"
   xmlns:cc="http://creativecommons.org/ns#"
   xmlns:rdf="http://www.w3.org/1999/02/22-rdf-syntax-ns#"
   xmlns:svg="http://www.w3.org/2000/svg"
   xmlns="http://www.w3.org/2000/svg"
   xmlns:xlink="http://www.w3.org/1999/xlink"
   xmlns:sodipodi="http://sodipodi.sourceforge.net/DTD/sodipodi-0.dtd"
   xmlns:inkscape="http://www.inkscape.org/namespaces/inkscape"
   version="1.1"
   id="Layer_3_1_"
   viewBox="0 0 256 256"
   enable-background="new 0 0 256 256"
   xml:space="preserve"
   sodipodi:docname="rtunic_st_ragged.svg"
   inkscape:version="0.92.3 (2405546, 2018-03-11)"><metadata
   id="metadata74"><rdf:RDF><cc:Work
       rdf:about=""><dc:format>image/svg+xml</dc:format><dc:type
         rdf:resource="http://purl.org/dc/dcmitype/StillImage" /></cc:Work></rdf:RDF></metadata><defs
   id="defs72"><linearGradient
     id="innoGrad2"
     inkscape:collect="always"><stop
       style="stop-color:#483737;stop-opacity:0.50196081"
       offset="0"
       id="stop1234" /><stop
       style="stop-color:#483737;stop-opacity:0"
       offset="1"
       id="stop1232" /></linearGradient><linearGradient
     inkscape:collect="always"
     id="innoGrad1"><stop
       style="stop-color:#483737;stop-opacity:0"
       offset="0"
       id="stop1188" /><stop
       style="stop-color:#483737;stop-opacity:0.50196081"
       offset="1"
       id="stop1190" /></linearGradient><linearGradient
     inkscape:collect="always"
     xlink:href="#innoGrad1"
     id="linearGradient1194"
     x1="42.533783"
     y1="100.14925"
     x2="64.710899"
     y2="106.7649"
     gradientUnits="userSpaceOnUse" /><linearGradient
     inkscape:collect="always"
     xlink:href="#innoGrad2"
     id="linearGradient1230"
     x1="82.620567"
     y1="167.52724"
     x2="118.13119"
     y2="168.00664"
     gradientUnits="userSpaceOnUse" /><linearGradient
     inkscape:collect="always"
     xlink:href="#innoGrad1"
     id="linearGradient1261"
     x1="144.99976"
     y1="63.692123"
     x2="167.16621"
     y2="63.692123"
     gradientUnits="userSpaceOnUse" /><linearGradient
     inkscape:collect="always"
     xlink:href="#innoGrad2"
     id="linearGradient1284-6"
     x1="195.8338"
     y1="82.719131"
     x2="214.27124"
     y2="82.719131"
     gradientUnits="userSpaceOnUse" /><linearGradient
     inkscape:collect="always"
     xlink:href="#innoGrad1"
     id="linearGradient1347"
     x1="186.4335"
     y1="189.60056"
     x2="192.37791"
     y2="189.60056"
     gradientUnits="userSpaceOnUse" /></defs><sodipodi:namedview
   pagecolor="#ffffff"
   bordercolor="#666666"
   borderopacity="1"
   objecttolerance="10"
   gridtolerance="10"
   guidetolerance="10"
   inkscape:pageopacity="0"
   inkscape:pageshadow="2"
   inkscape:window-width="1920"
   inkscape:window-height="1027"
   id="namedview70"
   showgrid="false"
   showguides="false"
   inkscape:zoom="2.6074563"
   inkscape:cx="150.23781"
   inkscape:cy="124.58246"
   inkscape:window-x="1912"
   inkscape:window-y="-8"
   inkscape:window-maximized="1"
   inkscape:current-layer="Layer_3_1_" />
<path
   id="path7-9_1_"
   inkscape:connector-curvature="0"
   fill="none"
   stroke="#000000"
   stroke-width="0.743"
   stroke-linejoin="round"
   stroke-miterlimit="10"
   d="  M36.002,131.304c0.023-0.194,0.046-0.389,0.069-0.583c1.742-14.913,4.48-20.91,6.96-31.867c1.762-7.786,2.912-14.856,4.021-21.19  l-0.007,0c0.993,0.377,1.925,0.588,2.705,0.525c3.875-0.313,6.901-2.082,6.901-2.082s1.969,4.983-0.313,11.519  C52.554,98.466,47.85,113.101,47.125,117c-1.162,6.25-2.219,12.392-2.219,12.392s-1.156,3.483-6.781,2.483  c-0.703-0.125-1.412-0.321-2.115-0.568L36.002,131.304z"
   style="fill:#916f6f;font-variant-east_asian:normal;opacity:1;vector-effect:none;fill-opacity:1;stroke:none;stroke-width:0.74299997;stroke-linecap:butt;stroke-linejoin:round;stroke-miterlimit:10;stroke-dasharray:none;stroke-dashoffset:0;stroke-opacity:1" />
<path
   id="path7-9_1_-3"
   inkscape:connector-curvature="0"
   stroke-miterlimit="10"
   d="m 36.002,131.304 c 0.023,-0.194 0.046,-0.389 0.069,-0.583 1.742,-14.913 4.48,-20.91 6.96,-31.866997 1.762,-7.786 2.912,-14.856 4.021,-21.19 h -0.007 c 0.993,0.377 1.925,0.588 2.705,0.525 3.875,-0.313 6.901,-2.082 6.901,-2.082 0,0 1.969,4.983 -0.313,11.519 C 52.554,98.466003 47.85,113.101 47.125,117 c -1.162,6.25 -2.219,12.392 -2.219,12.392 0,0 -1.156,3.483 -6.781,2.483 -0.703,-0.125 -1.412,-0.321 -2.115,-0.568 z"
   style="opacity:1;vector-effect:none;fill:url(#linearGradient1194);fill-opacity:1;stroke:#000000;stroke-width:0.74299997;stroke-linecap:butt;stroke-linejoin:round;stroke-miterlimit:10;stroke-dasharray:none;stroke-dashoffset:0;stroke-opacity:1" /><polyline
   fill="none"
   stroke="#000000"
   stroke-width="0.371"
   stroke-linecap="round"
   stroke-linejoin="round"
   stroke-miterlimit="10"
   points="  48.375,76.5 48.906,79.625 50.25,76.5 50.825,79.625 51.656,76.438 53.188,79.063 53.688,76.106 55.293,78.901 "
   id="polyline3" />
<polyline
   fill="none"
   stroke="#000000"
   stroke-width="0.371"
   stroke-linecap="round"
   stroke-linejoin="round"
   stroke-miterlimit="10"
   points="  55.75,79.625 58.781,78.75 56.031,80.469 59.375,80.25 55.814,82.313 59.375,82 55.814,83.188 59.031,84.25 55.75,84.563   58.522,85.794 55.125,86.281 57.844,87.594 54.531,88.094 58,89.188 54.188,89.188 57.441,90.875 53.688,90.563 56.899,91.875   53.688,91.875 56.339,93 52.688,93.438 55.75,95.313 52.25,95 55.75,96.5 51.969,95.813 55.299,98 51.102,98.156 54.781,99.719   50.75,99.313 54.563,101.25 50.313,100.813 54.188,102.125 49.75,101.813 53.177,102.971 49.438,102.875 53.688,104.081   48.773,104.081 52.25,105.438 48.625,105.438 51.943,106.663 48.094,106.563 51.281,108.344 47.75,108.625 51.969,109.938   47.438,109.938 51.102,110.813 46.722,110.813 50.825,111.938 46.73,112.344 50.75,113.32 46.73,113.635 49.75,114.594 46.219,115   48.531,116.031 46.063,116.281 48,117.5 45.188,118.375 48,119 44.688,120.063 48.156,120.938 45.188,121.563 47.75,122.25   44.688,122.875 47.938,123.5 44.688,124.5 47.75,124.875 44.375,125.813 47.75,126.625 43.8,126.625 46.73,128.938 "
   id="polyline5" />
<polyline
   fill="none"
   stroke="#000000"
   stroke-width="0.371"
   stroke-linecap="round"
   stroke-linejoin="round"
   stroke-miterlimit="10"
   points="  45.75,131.313 43.406,129.094 44.688,132.563 44.626,132.479 42.563,129.656 42.912,133.813 41.281,130.438 40.563,133.813   40.25,130.75 38.906,133.813 38.688,130.188 36.813,133.813 37.75,130.188 "
   id="polyline7" />





<polyline
   fill="none"
   stroke="#000000"
   stroke-width="0.371"
   stroke-linecap="round"
   stroke-linejoin="round"
   stroke-miterlimit="10"
   points="  187.75,181.177 187.75,178.313 188.795,180.876 189.405,178.313 "
   id="polyline18" />
<path
   id="path48-9_3_"
   inkscape:connector-curvature="0"
   fill="none"
   stroke="#000000"
   stroke-width="0.743"
   stroke-linejoin="round"
   stroke-miterlimit="10"
   d="  M186.805,180.209c0.486,4.637,0.835,7.558,0.805,8.412c-0.151,4.242,0.896,11.109,0.896,11.109s0.031,0.162,0.086,0.448  c1.648-0.418,2.474-0.929,2.474-0.929s0.81-2.188,0.935-4.824s-2.125-10.613-2.125-12.479s1.19-2.923,1.19-2.923  s-2.101,0.966-4.261,1.189V180.209z"
   style="stroke:none;fill:#916f6f" />
<path
   id="path48-9_3_-1"
   inkscape:connector-curvature="0"
   stroke-miterlimit="10"
   d="m 186.805,180.209 c 0.486,4.637 0.835,7.558 0.805,8.412 -0.151,4.242 0.896,11.109 0.896,11.109 0,0 0.031,0.162 0.086,0.448 1.648,-0.418 2.474,-0.929 2.474,-0.929 0,0 0.81,-2.188 0.935,-4.824 0.125,-2.636 -2.125,-10.613 -2.125,-12.479 0,-1.866 1.19,-2.923 1.19,-2.923 0,0 -2.101,0.966 -4.261,1.189 z"
   style="fill:url(#linearGradient1347);stroke:#000000;stroke-width:0.743;stroke-linejoin:round;stroke-miterlimit:10;stroke-opacity:1;stroke-dasharray:none;fill-opacity:1.0" /><path
   style="fill:#916f6f;stroke:none;stroke-width:0.74250001;stroke-linejoin:round;stroke-miterlimit:10;fill-opacity:1"
   id="path48-9_1_-6"
   inkscape:connector-curvature="0"
   stroke-miterlimit="10"
   d="m 208.653,66.941996 c 1.816,7.778 3.007,17.094 5.247,27.884 l -12.029,3.67 c 0,0 -1.863,-2.353 -2.496,-6.055 -0.572,-3.347 1.756,-8.887 0.875,-12.567 -1.854,-7.75 -4.045,-9.133 -4.045,-9.133 l 12.448,-3.798 z" /><path
   style="fill:url(#linearGradient1284-6);fill-opacity:1.0;stroke:#000000;stroke-width:0.74250001;stroke-linejoin:round;stroke-miterlimit:10"
   id="path48-9_1_-6-3"
   inkscape:connector-curvature="0"
   stroke-miterlimit="10"
   d="m 208.653,66.941996 c 1.816,7.778 3.007,17.094 5.247,27.884 l -12.029,3.67 c 0,0 -1.863,-2.353 -2.496,-6.055 -0.572,-3.347 1.756,-8.887 0.875,-12.567 -1.854,-7.75 -4.045,-9.133 -4.045,-9.133 l 12.448,-3.798 z" /><path
   fill="none"
   stroke="#000000"
   stroke-width="0.7425"
   stroke-linejoin="round"
   stroke-miterlimit="10"
   d="M166.795,65.865  c0,0-11.69,1.718-13.993,2.384s-3.779,3.846-3.779,3.846l-3.652-10.42c0,0,8.713-4.925,11.546-5.842s6.227-0.388,6.227-0.388  s-0.895,1.555-0.561,3.638S166.795,65.865,166.795,65.865z"
   id="path21"
   style="fill:#916f6f" />
<path
   inkscape:connector-curvature="0"
   style="fill:url(#linearGradient1261);stroke:#000000;stroke-width:0.74250001;stroke-linejoin:round;stroke-miterlimit:10;fill-opacity:1.0"
   stroke-miterlimit="10"
   d="m 166.795,65.865 c 0,0 -11.69,1.718 -13.993,2.384 -2.303,0.666 -3.779,3.846 -3.779,3.846 l -3.652,-10.42 c 0,0 8.713,-4.925 11.546,-5.842 2.833,-0.917 6.227,-0.388 6.227,-0.388 0,0 -0.895,1.555 -0.561,3.638 0.334,2.083 4.212,6.782 4.212,6.782 z"
   id="path21-1" /><polyline
   fill="none"
   stroke="#000000"
   stroke-width="0.371"
   stroke-linecap="round"
   stroke-linejoin="round"
   stroke-miterlimit="10"
   points="  150.249,71.457 149.892,68.708 151.499,70.5 151.041,67.416 153.542,70.166 152.082,66.942 154.902,69.666 154.082,66.333   156.082,69.083 155.708,66.165 158.165,68.687 158.582,65.5 160.096,68.017 160.499,65.5 162.246,67.596 162.79,65.29   164.016,67.832 164.374,65.083 "
   id="polyline29" /><polyline
   fill="none"
   stroke="#000000"
   stroke-width="0.371"
   stroke-linecap="round"
   stroke-linejoin="round"
   stroke-miterlimit="10"
   points="  147.219,61.416 146.666,58.916 148.457,61.125 147.499,58.455 150.249,60.531 148.832,57.833 151.438,59.781 150.969,57.094   152.813,58.656 152.375,56.219 154.625,58.25 153.688,55.719 155.719,57.375 155.332,54.913 157.313,56.75 157.569,54.281   159.156,56.813 159.313,54 160.609,56.434 161.116,54.217 "
   id="polyline23" />
<polyline
   fill="none"
   stroke="#000000"
   stroke-width="0.371"
   stroke-linecap="round"
   stroke-linejoin="round"
   stroke-miterlimit="10"
   points="  161.376,57.75 163.695,58.141 162.059,59.913 164.509,59.25 162.059,61.416 165.167,60.666 163.115,62.889 165.917,61.75   163.167,64.083 166.795,63.694 "
   id="polyline25" /><polyline
   fill="none"
   stroke="#000000"
   stroke-width="0.371"
   stroke-linecap="round"
   stroke-linejoin="round"
   stroke-miterlimit="10"
   points="  146.486,69.636 149.361,68.27 146.082,68.25 148.832,66.957 145.37,67.416 148.312,65.915 145.37,66.165 147.749,64.083   144.416,65.083 146.889,62.415 "
   id="polyline31" />
<path
   fill="none"
   stroke="#000000"
   stroke-width="0.743"
   stroke-linecap="round"
   stroke-linejoin="round"
   stroke-miterlimit="10"
   d="  M110.25,179.688c0,0-9.55-1.813-13.875-3.75s-5.425-2.431-5.425-2.431s6.863-11.296,6.988-13.87s-1.301-3.887-1.301-3.887  s11.426,0.125,13.989,1.625s5.312,4.557,5.312,4.557s-2.02,2.229-2.187,5.262s1.521,6.869,1.146,8.057  C114.146,177.625,110.25,179.688,110.25,179.688z"
   id="path27"
   style="font-variant-east_asian:normal;opacity:1;vector-effect:none;fill:#916f6f;fill-opacity:1;stroke:none;stroke-width:0.74299997;stroke-linecap:round;stroke-linejoin:round;stroke-miterlimit:10;stroke-dasharray:none;stroke-dashoffset:0;stroke-opacity:1" /><path
   inkscape:connector-curvature="0"
   style="fill:url(#linearGradient1230);stroke:#000000;stroke-width:0.74299997;stroke-linecap:round;stroke-linejoin:round;stroke-miterlimit:10;fill-opacity:1"
   stroke-miterlimit="10"
   d="m 110.25,179.688 c 0,0 -9.55,-1.813 -13.875001,-3.75 -4.325,-1.937 -5.424999,-2.431 -5.424999,-2.431 0,0 6.862999,-11.296 6.987999,-13.87 0.125,-2.574 -1.301,-3.887 -1.301,-3.887 0,0 11.426001,0.125 13.989001,1.625 2.563,1.5 5.312,4.557 5.312,4.557 0,0 -2.02,2.229 -2.187,5.262 -0.167,3.033 1.521,6.869 1.146,8.057 -0.751,2.374 -4.647,4.437 -4.647,4.437 z"
   id="path27-5" /><polyline
   fill="none"
   stroke="#000000"
   stroke-width="0.371"
   stroke-linecap="round"
   stroke-linejoin="round"
   stroke-miterlimit="10"
   points="  114.281,162.634 116.208,163.563 112.813,163.785 115.542,165.135 112.375,165.655 115.542,166.651 112.25,167.843 115.813,167.918   112.625,169.504 115.438,169.841 112.792,170.923 115.937,170.965 112.792,171.88 116.438,172.05 113.125,173.13 116.73,173.676   113.125,174 116.542,175.046 113.125,175.25 116.178,176.616 113.063,176.25 115.271,178.381 112.146,176.963 113.271,179.463   110.958,177.502 111.917,180.317 "
   id="polyline9" /><polyline
   fill="none"
   stroke="#000000"
   stroke-width="0.371"
   stroke-linecap="round"
   stroke-linejoin="round"
   stroke-miterlimit="10"
   points="  99.625,154.938 99.688,156.938 100.697,154.938 101.104,157.054 102,154.938 102.25,156.938 103.247,154.938 103.667,156.938   105.188,155.25 105.188,156.938 106.708,155.468 106.917,157.554 108.271,155.75 108.219,157.875 109.729,156.013 109.646,158.221   112.375,156.938 111.125,159.075 113.333,157.875 112.063,159.594 114.896,158.813 113.146,160.55 115.542,160.375 114.438,161.487   "
   id="polyline11" /><polyline
   fill="none"
   stroke="#000000"
   stroke-width="0.371"
   stroke-linecap="round"
   stroke-linejoin="round"
   stroke-miterlimit="10"
   points="  90.688,171.807 93.396,172.078 91.771,169.641 94.519,170.693 92.712,167.719 95.225,169 93.813,166.426 95.833,167.509   94.292,165.165 96.75,166.064 94.792,164.563 97.292,165.343 95.083,163.563 97.875,164.009 95.604,162.499 98.531,162.5   96.438,161.526 98.958,161.426 96.636,160.375 99.188,160.172 96.636,159.163 99.188,159.163 96.333,158.051 99.188,157.875 "
   id="polyline13" /><polyline
   fill="none"
   stroke="#000000"
   stroke-width="0.371"
   stroke-linecap="round"
   stroke-linejoin="round"
   stroke-miterlimit="10"
   points="  107.75,179.688 107.688,178.274 105.915,179.593 106.042,177.779 104,179.023 104.083,177.107 102.292,178.844 102.25,176.52   100.697,178.137 100.958,176.149 99.188,178 99.271,175.191 97.208,177.23 97.542,174.774 95.458,176.715 96.636,174.257   93.813,176.25 94.519,173.712 92.208,175.548 93.363,173.352 "
   id="polyline15" />


<polyline
   fill="none"
   stroke="#000000"
   stroke-width="0.371"
   stroke-linecap="round"
   stroke-linejoin="round"
   stroke-miterlimit="10"
   points="  207.688,65.719 207.688,68.688 206.031,66.125 206.063,69.156 204.527,66.502 204.794,69.291 203.171,66.942 203.428,69.757   201.525,67.076 202.219,70.563 200.271,67.75 200.563,70.906 198.665,68.313 199.288,71.202 197.156,68.781 198.156,71.25 "
   id="polyline33" />
<polyline
   fill="none"
   stroke="#000000"
   stroke-width="0.371"
   stroke-linecap="round"
   stroke-linejoin="round"
   stroke-miterlimit="10"
   points="  196.563,73.436 198.469,72.333 197.051,74.43 199.563,73.436 197.577,76.104 199.896,75.031 198.156,77.188 200.854,76.46   198.469,78.499 200.854,77.665 198.759,79.395 201.313,78.68 198.665,80.292 201.604,80 199.152,81.147 201.781,81.406   199.219,81.875 201.604,82.469 199.156,82.719 201.604,83.584 198.938,83.584 201.604,84.209 198.904,84.375 201.604,85.188   198.591,85.197 201.313,86.042 198.469,86.209 201.604,87.125 198.665,87.25 200.854,88.375 198.156,88.459 200.563,89.25   197.936,89.719 200.854,90.446 197.711,90.959 200.854,91.531 197.936,92.442 200.669,92.75 198.406,94.313 200.854,94.25   199.449,95.563 201.604,95.563 199.781,96.813 202.336,96.313 200.238,97.759 "
   id="polyline35" />
<polyline
   fill="none"
   stroke="#000000"
   stroke-width="0.371"
   stroke-linecap="round"
   stroke-linejoin="round"
   stroke-miterlimit="10"
   points="  202.834,99.584 202.336,96.872 203.961,99.452 203.446,96.652 204.854,99.086 204.502,96.584 206.292,98.378 205.979,95.857   207.378,98.057 207.001,95.169 208.626,97.961 208.188,95.044 209.878,97.25 209.188,94.649 210.643,96.979 210.113,94.364   211.563,97.25 211.015,94.315 212.314,96.478 211.878,94.084 213.086,96.313 213.001,93.961 "
   id="polyline37" />
<polyline
   fill="none"
   stroke="#000000"
   stroke-width="0.371"
   stroke-linecap="round"
   stroke-linejoin="round"
   stroke-miterlimit="10"
   points="  191.065,200.781 189.906,198.219 190.313,201.375 189,198.313 "
   id="polyline39" />
<polyline
   fill="none"
   stroke="#000000"
   stroke-width="0.371"
   stroke-linecap="round"
   stroke-linejoin="round"
   stroke-miterlimit="10"
   points="  189.003,181.291 191.158,181.063 189.25,182.333 191.432,181.999 188.795,183.666 191.432,183.083 189.25,184.749 191.656,184.25   189.405,185.416 192.005,185.333 190,186.541 192.005,186.416 190.313,187.847 192.586,187.666 190.313,188.791 192.005,188.499   190,189.844 192.938,189.25 190.705,190.791 192.938,190.458 190.705,192.166 192.938,191.999 191.065,193.045 193.313,192.875   191.065,193.625 193.313,194.426 191.158,194.791 192.586,195.166 191.065,195.721 193.313,196.125 191.054,196.531   192.781,197.438 191.054,197.188 192.157,198.541 "
   id="polyline41" />
<path
   stroke-miterlimit="10"
   d="m 77.924,52.625 c 1.625,-2.75 14.317,-5.625 22.134,-1.25 7.817,4.375 14.687,15.344 6.002,17.109 C 97.375,70.249 90,60.292 81.625,64.083 73.25,67.874 75.224,63.25 71.237,58.375 c -3.987,-4.875 5.062,-3 6.687,-5.75 z"
   id="path43"
   style="fill:#000000;fill-opacity:0.50196078;stroke:none;stroke-miterlimit:10"
   inkscape:connector-curvature="0"
   sodipodi:nodetypes="scssss" />
<path
   fill="none"
   stroke="#000000"
   stroke-miterlimit="10"
   d="M105,106.25c6-1.375,3.411,5.274,5.625,10  c1.556,3.319,5.093,5.739,2.875,7.239c-5.375,3.636-7.507-3.489-10.253-6.114s2.96-3.979,1.628-5.927S101.535,107.044,105,106.25z"
   id="path45"
   style="stroke:none;fill:#000000;fill-opacity:0.50196081" />
<path
   fill="none"
   stroke="#000000"
   stroke-miterlimit="10"
   d="M177.5,50.875c2.631,0.625,6.306-6.05,11.006-3.675  c2.225,1.125-0.319,5.184-0.465,8.675c-0.161,3.883,2.369,11.502,0,12.124c-4.5,1.181-3.425-6.164-9.025-8.374  s-10.641,1.958-11.766,1.292s1.082-3.292,0.604-6.417s-2.271-5.88,0-6.252S174.869,50.25,177.5,50.875z"
   id="path47"
   style="stroke:none;fill:#000000;fill-opacity:0.50196081" />
<path
   fill="none"
   stroke="#000000"
   stroke-miterlimit="10"
   d="M178.071,61.416c4.649,1.5,5.554,6.021,5.616,7.521  s-2.125,1.459-6.25,0.698s-8.938-1.011-9.125-3.073s1.625-3.482,3.125-4.147S173.422,59.916,178.071,61.416z"
   id="path49"
   style="stroke:none;fill:#000000;fill-opacity:0.50196081" />
<path
   fill="none"
   stroke="#000000"
   stroke-miterlimit="10"
   d="M38.875,159.163c-3.25,3.337,13.375,23.634,19.75,19.86  c3.242-1.919-1.295-6.215-2.286-10.523c-0.958-4.163,1.672-8.34,2.286-10.287c1.25-3.963-5-5.67-9.375-5.004  s1.068,3.092-2.528,5.004S42.125,155.826,38.875,159.163z"
   id="path51"
   style="stroke:none;fill:#000000;fill-opacity:0.50196081" />
<path
   fill="none"
   stroke="#000000"
   stroke-miterlimit="10"
   d="M69.999,48.248c1.417-1.501,5.667-1.749,6.5,0  s-0.333,4.832-2.167,4.832s-3.083-1.583-4.333-2.667S69.999,48.248,69.999,48.248z"
   id="path53"
   style="stroke:none;fill:#000000;fill-opacity:0.50196081" />
<path
   fill="none"
   stroke="#000000"
   stroke-miterlimit="10"
   d="M93.667,67.258c1.667,0.554,4.083,3.137,2.75,4.137  s-6.167,1.613-7.083-0.527s0.5-3.414,1.417-3.61S92.001,66.705,93.667,67.258z"
   id="path55"
   style="stroke:none;fill:#000000;fill-opacity:0.50196081" />
<path
   fill="none"
   stroke="#000000"
   stroke-miterlimit="10"
   d="M111,111.125c-0.188-1.75-0.438-7.125,2.563-6.188  s3.25,10.563,1,12.125s-0.438-3.688-1.313-4.188S111.188,112.875,111,111.125z"
   id="path57"
   style="stroke:none;fill:#000000;fill-opacity:0.50196081" />
<path
   fill="none"
   stroke="#000000"
   stroke-miterlimit="10"
   d="M47.084,152.667c0.952-0.915,5.895-1.631,9.254,0  c2.582,1.253,3.659,4.034,4.746,1.5c0.665-1.551,0.25-4.509-6.75-7.425c-1.886-0.785-4.53-1.408-7.613,1.092  S43.334,156.271,47.084,152.667z"
   id="path59"
   style="fill:#000000;stroke:none;fill-opacity:0.50196081" />
<path
   fill="none"
   stroke="#000000"
   stroke-miterlimit="10"
   d="M139.99,135.77c1.01-1.02,5.51-1.145,7.635,1.23s1.875,5.625,0,8.125  s-4.012,0.529-6.256-1.36s-0.619-3.89-0.869-4.515S138.98,136.789,139.99,135.77z"
   id="path61"
   style="stroke:none;fill:#000000;fill-opacity:0.50196081" />
<path
   fill="none"
   stroke="#000000"
   stroke-miterlimit="10"
   d="M151.25,137.42c-1.125,0.08-0.098,9.08-4.361,10.455  s-5.727,3.373-7.12,2.749S137.98,156,139.99,157s10.01-7.25,12.01-7.125s5.539-8.5,4.082-10.75S152.375,137.34,151.25,137.42z"
   id="path63"
   style="stroke:none;fill:#000000;fill-opacity:0.50196081" />
<path
   fill="none"
   stroke="#000000"
   stroke-miterlimit="10"
   d="M196.563,109.25c4.045,0.125,6.961,3.375,2.887,7.75  s-6.699-0.375-7.699-1.25s0.75-4.875,1.25-6.25S196.563,109.25,196.563,109.25z"
   id="path65"
   style="stroke:none;fill:#000000;fill-opacity:0.50196081" />
<path
   fill="none"
   stroke="#000000"
   stroke-miterlimit="10"
   d="M199.449,120.625c-2.574,0.125-8.939,7.625-7.444,9.5  s6.269,0.375,7.444,0.875s2.133-3.75,2.154-6.625S202.023,120.5,199.449,120.625z"
   id="path67"
   style="stroke:none;fill:#000000;fill-opacity:0.50196081" />
</svg>