<svg xmlns="http://www.w3.org/2000/svg" viewBox="0 0 256 256">
    <g fill-rule="evenodd">
        <path fill="#ff8080" stroke="#000" stroke-width="1.805" d="M164.76 231.662c-4.491-22.287-12.756-44.398-23.418-65.71-21.55-26.322-46.768-48.96-70.85-66.824C46.384 81.244 23.189 67.98 5.699 60.635c15.605 10.757 36.18 27.024 57.187 47.403 21.039 20.41 42.38 44.812 59.519 71.67 15.938 15.288 30.671 32.68 42.356 51.954z"/>
        <path fill="#ff2a2a" d="M156.5 214.667c-3.59-15.157-10.068-30.93-18.223-46.535-16.054-19.402-34.914-37.412-52.84-52.344-17.944-14.947-35.09-26.926-47.694-34.127 11.041 9.43 26.271 23.389 42.075 40.072 15.816 16.696 32.137 36.046 45.31 56.11 11.928 11.54 22.86 23.988 31.372 36.824z"/>
        <path fill="#ff8080" stroke="#000" stroke-width="1.805" d="M176.546 239.876c-4.492-22.286-12.757-44.398-23.419-65.71-21.55-26.322-46.767-48.96-70.849-66.824C58.17 89.46 34.974 76.196 17.484 68.85c15.604 10.757 36.18 27.025 57.187 47.403 21.039 20.41 42.38 44.813 59.518 71.67 15.939 15.288 30.672 32.68 42.357 51.954z" transform="matrix(1.2155 0 0 1.2155 7.208 -51.764)"/>
        <path fill="#ff2a2a" d="M211.761 219.15c-4.363-18.424-12.238-37.596-22.15-56.564-19.515-23.583-42.44-45.474-64.228-63.625C103.573 80.793 82.73 66.233 67.41 57.48c13.42 11.462 31.933 28.429 51.142 48.707 19.224 20.294 39.063 43.815 55.075 68.203 14.498 14.027 27.787 29.157 38.133 44.76z"/>
        <g>
            <path fill="#ff8080" stroke="#000" stroke-width="1.805" d="M232.559 185.267c-4.492-22.286-12.757-44.398-23.419-65.71-21.55-26.322-46.767-48.96-70.849-66.824C114.182 34.85 90.987 21.587 73.497 14.24c15.604 10.757 36.18 27.025 57.187 47.403 21.039 20.41 42.38 44.813 59.518 71.67 15.939 15.288 30.672 32.68 42.357 51.954z"/>
            <path fill="#ff2a2a" d="M224.299 168.273c-3.59-15.158-10.068-30.93-18.223-46.535-16.055-19.402-34.915-37.412-52.84-52.345-17.944-14.946-35.09-26.925-47.694-34.126 11.041 9.43 26.27 23.388 42.075 40.071 15.815 16.696 32.136 36.047 45.31 56.111 11.927 11.54 22.86 23.987 31.372 36.824z"/>
        </g>
    </g>
</svg>
