<svg version="1.1" viewBox="0 0 64 64" xmlns="http://www.w3.org/2000/svg" xmlns:xlink="http://www.w3.org/1999/xlink">
 <g transform="matrix(1.3401 0 0 1.3401 -11.293 -9.7049)" stroke="#ffb380">
  <g fill-rule="evenodd">
   <path d="m13.2 44.748 38.138-0.17c0.016 2.9-1.806 6.728-6.952 6.733l-23.796 0.024c-3.58 0-7.422-2.686-7.39-6.586z" fill="#ffb380" stroke-linecap="round" stroke-linejoin="round" stroke-width="1.1"/>
   <path d="m28.15 40.008v2.358l8.167 0.049v-2.358c-2.417 0.561-5.947 0.624-8.167-0.049z" fill="#ffb380" stroke-width="1.1"/>
   <g stroke-linecap="round">
    <path d="m19.107 29.945 26.276 0.025" fill="#fff" stroke-width="2.2"/>
    <path d="m19.788 29.873c-0.054 3.306 5.158 8.603 12.59 8.628 8.86 0.031 12.78-6.356 12.324-8.628z" fill="#ffb380" stroke-linejoin="round" stroke-width="1.1"/>
    <path d="m12.355 44.764 39.902 0.065" fill="#fff" stroke-width="2.2"/>
   </g>
  </g>
  <g transform="translate(0 -988.36)" fill="none" stroke-linecap="round">
   <path d="m32.257 1015.8 0.049-7.584c0.074-11.613-16.5-11.174-16.383-0.754" stroke-width="1.65"/>
   <path d="m20.857 1010.9c0.29-7.379 10.891-7.834 11.57 0.145m-6.708 2.985c-0.221-3.392 6.175-5.233 6.49 0.534" stroke-width="1.375"/>
  </g>
  <g transform="translate(0 -988.36)" fill="none" stroke-linecap="round">
   <path d="m32.233 1015.8-0.049-7.584c-0.074-11.613 16.5-11.173 16.383-0.753" stroke-width="1.65"/>
   <path d="m43.633 1010.9c-0.29-7.378-10.891-7.834-11.57 0.146m6.709 2.984c0.22-3.392-6.176-5.233-6.49 0.535" stroke-width="1.375"/>
  </g>
 </g>
</svg>
