<svg version="1.1" viewBox="0 0 64 64" xmlns="http://www.w3.org/2000/svg">
 <g transform="matrix(1.21 0 0 1.21 -7.7319 -4.6566)" fill="#ffb380">
  <g>
   <path d="m22.431 32.81c-1.386 0.4129-3.1459 0.86312-4.7672 1.5929-1.2365 0.55659-2.1767 1.1883-2.771 1.9596-0.34561 0.44856-0.54486 0.90753-0.6332 1.344-0.06697 0.33093-0.06482 0.62415-0.03067 0.8492 0.02864 0.18873 0.07962 0.39486 0.16073 0.61307 0.28407 0.76429 0.88728 1.5482 1.9165 2.2831 1.6288 1.163 4.1622 2.0816 7.2203 2.582 3.927 0.64255 7.3379 0.40362 9.7172 0.15437-2.3206 0.24309-5.8824 0.14785-9.5558-0.88527-2.9543-0.83087-5.0993-2.0257-6.2811-3.1865-0.71993-0.70707-0.95258-1.2664-1.042-1.6108-0.02643-0.10181-0.04219-0.19152-0.0535-0.26603-0.01371-0.09036-0.04221-0.19813-0.06274-0.33742-0.02576-0.17484-0.04094-0.42313 0.05099-0.74996 0.16814-0.59781 0.66897-1.3546 1.7144-2.1604 1.3014-1.0031 3.0796-1.7836 4.417-2.182z"/>
   <path d="m42.246 43.717c1.3878-0.40028 3.1544-0.8417 4.7749-1.5608 1.2345-0.54786 2.1752-1.173 2.7719-1.938 0.34399-0.44103 0.54587-0.89411 0.63847-1.3292 0.07648-0.35938 0.07186-0.67759 0.0322-0.9178-0.02745-0.16623-0.07255-0.3463-0.14077-0.53652-0.27156-0.75719-0.86069-1.5467-1.8871-2.2952-1.6114-1.175-4.131-2.1196-7.1904-2.6504-3.9199-0.68004-7.3338-0.47308-9.7144-0.24476 2.3223-0.22273 5.8827-0.09864 9.549 0.96366 2.9539 0.85587 5.0882 2.0684 6.2614 3.2362 0.71998 0.71663 0.9491 1.2804 1.0381 1.6245 0.02329 0.0901 0.03839 0.17035 0.04963 0.23847 0.01645 0.09962 0.04937 0.21913 0.07048 0.37502 0.02445 0.18056 0.03412 0.4321-0.06355 0.75869-0.17986 0.60141-0.69572 1.352-1.7485 2.1427-1.3146 0.98725-3.099 1.7464-4.4411 2.1335z"/>
   <path d="m19.566 30.446c-2.0308 0.60498-4.6295 1.3951-6.8582 2.5364-1.6593 0.8497-2.9387 1.8076-3.7177 2.9236-0.39627 0.56768-0.65161 1.16-0.77138 1.7698-0.13358 0.68005-0.088334 1.3307 0.061121 1.9167 0.19084 0.7483 0.54327 1.3601 0.85379 1.772 0.34341 0.4555 0.85898 0.99159 1.6111 1.5571 2.0852 1.5677 5.6014 3.0494 10.441 3.8849 5.735 0.98999 10.731 0.66318 14.211 0.29863-3.39 0.35512-8.6074 0.24163-14.007-1.2235-4.6916-1.2731-7.6959-3.0625-9.3262-4.5608-0.5706-0.52435-0.92894-0.96742-1.1683-1.2849-0.22434-0.29756-0.49522-0.66256-0.69832-1.0871-0.1551-0.32421-0.27531-0.69227-0.29949-1.1077-0.021897-0.37634 0.034-0.80883 0.23034-1.296 0.40051-0.99378 1.3251-2.0625 2.8494-3.1086 1.9948-1.3688 4.578-2.3916 6.5883-2.9905z"/>
   <path d="m45.733 46.036c2.0217-0.58308 4.6241-1.2839 6.9403-2.372 1.7608-0.8272 3.0855-1.7596 3.9107-2.8641 0.45977-0.61544 0.73459-1.2453 0.86277-1.8615 0.14358-0.69023 0.08829-1.295-0.02274-1.7216-0.02554-0.09813-0.05591-0.19998-0.09173-0.3051-0.34684-1.018-1.1399-2.1661-2.6542-3.2946-2.287-1.7043-5.9157-3.1274-10.428-3.946-5.714-1.0368-10.73-0.76561-14.206-0.43219 3.4013-0.32622 8.6045-0.17824 13.998 1.3371 4.3772 1.2298 7.5189 2.9847 9.2673 4.6725 1.1151 1.0764 1.4752 1.9317 1.6286 2.4442 0.01685 0.05631 0.03152 0.10959 0.04452 0.15955 0.05314 0.20417 0.14622 0.5019 0.17583 0.84123 0.02703 0.30981 0.0084 0.70808-0.16505 1.1954-0.32694 0.91844-1.1534 2.0002-2.7076 3.1103-1.9666 1.4047-4.5775 2.4672-6.5528 3.0369z"/>
  </g>
  <path d="m32.007 13.312-5.8773 11.906c-6.7738 13.722 18.039 13.705 11.555 0.05131z" stroke="#fff" stroke-linecap="round" stroke-linejoin="round" stroke-width=".37286"/>
 </g>
</svg>
