<svg xmlns="http://www.w3.org/2000/svg" viewBox="0 0 64 64">
    <g fill="#f9f9f9" fill-rule="evenodd" stroke="#000">
        <path d="M34.686 28.409c3.438 5.84 10.682 3.318 10.314 12.153-.343 8.237-12.785 16.792-14.388 6.314-.948-6.199.131-16.992-4.68-14.916-4.372 1.886-3.24 6.081-6.934 6.471-2.415.255-7.521-1.283-5.547-5.84 1.281-2.956 11.797-3.36 9.274-5.287-2.047-1.96-5.06-1.573-11.7-.632-14.163 2.007-5.476-20.665 1.733-15.941 4.47 2.928 6.583 8.77 12.394 9.943 5.485.408-1.38-7.88-1.3-10.811.153-5.64 11.28-4.1 11.44-1.342.17 2.912-6.436 11.524-2.34 11.759 6.732.368 3.86-4.51 8.754-5.051 3.8-.42 11.471 8.375 5.547 11.838-6.021 3.52-14.846-2.463-12.567 1.342z"/>
        <path d="M23.19 42.613C21.443 42.4 9.865 53.014 9.84 58.4c-.014 2.897 5.305 3.41 7.048 1.987 5.508-4.492 7.715-17.602 6.302-17.774zM37.989 12.583c1.137.747 10.662-2.804 11.571-6.601.489-2.043-2.995-4.219-4.4-3.809-4.44 1.296-8.091 9.806-7.171 10.41zM46.381 31.343c-.216 1.003 8.471 7.158 13.003 6.952 2.438-.11 2.981-3.158 1.821-4.092-3.663-2.951-14.649-3.672-14.824-2.86zM6.225 44.048c3.636 3.085 8.835-.749 4.22-4.706-3.347-2.872-7.627 1.815-4.22 4.706z"/>
    </g>
</svg>
