<svg version="1.1" viewBox="0 0 64 64" xmlns="http://www.w3.org/2000/svg">
 <path d="m23.179 32.764c-6.5467 2.6605-12.553 11.972-21.628 8.5522-2.2901-0.86291 2.357-18.721 11.333-24.728 3.7565-2.514 6.682-2.6399 11.207-2.1327 2.8161-3.5782 4.9598-5.5728 9.3874-6.4825 10.579-2.1735 26.558 7.0564 25.564 9.2929-3.9371 8.8629-14.784 6.6018-21.275 9.3952-4.3438 1.8694-3.7715 2.7071-6.892 4.0125-3.1205 1.3054-3.3152 0.30969-7.6962 2.0901z" fill="#ff8080" stroke="#000" stroke-linecap="round" stroke-linejoin="round" stroke-width=".84"/>
 <path d="m33.304 36.203c-6.3706 2.3499-13.547 1.959-21.711 6.0644-4.7792 2.4033-7.7376 5.8613-6.9234 6.9591 6.2661 8.4482 26.19 7.4776 36.818 2.1828 10.04-5.0015 24.384-17.053 21.339-24.985-0.76034-1.981-9.3806-1.5295-13.544 0.05382-8.2811 3.1497-9.9845 7.5138-15.979 9.7251z" fill="#ff8080" stroke="#000" stroke-linecap="round" stroke-linejoin="round" stroke-width=".80179"/>
</svg>
