<svg xmlns="http://www.w3.org/2000/svg" viewBox="0 0 64 64">
    <path fill="#ff2a2a" fill-rule="evenodd" stroke="#000" d="M38.102 6.578l4.496 4.342 7.17-.242-10.372 9.652c-3.152-2.049-5.064-3.463-11.78-3.377-25.236.324-22.976 37.966.376 37.979 18.593.01 23.728-20.816 15.455-30.268L53.533 14.54l-.365 7.115 4.615 4.1-.365-18.934-19.316-.242zm-9.8 16.768A12.584 12.708 0 0 1 40.89 36.053a12.584 12.708 0 0 1-12.586 12.709 12.584 12.708 0 0 1-12.584-12.71 12.584 12.708 0 0 1 12.584-12.706z"/>
</svg>
