<svg xmlns="http://www.w3.org/2000/svg" viewBox="0 0 64 64">
    <g fill-rule="evenodd">
        <path fill="#ffd5d5" d="M24.625 26.883c-3.31 10.757-8.146 18.973-13.838 26.482.719 1.144 2.518 2.294 5.754 2.197 1.539 1.342 3.959 1.504 6.903.856 2.204 1.155 4.61 1.283 7.099.264 3.16 1.166 6.117.886 8.728-.31 3.118.787 5.772.678 7.503-1.008 3.237.237 5.094-.634 5.44-2.206-6.66-8.05-10.988-17.15-13.781-26.175zM24.822 25.37v-1.805c-1.928-2.686-1.452-4.425-1.332-7.15 3.459-2.84 2.544-6.201 6.088-8.65-.032 3.182.267 5.252 2.114 8.501 1.73-2.417 1.784-5.094 2.523-8.469 3.55 1.714 3.445 8.08 5.828 8.353.027 3.515.502 5.028-1.452 7.58l-.112 1.774z"/>
        <path fill="#faa" stroke="#000" stroke-width=".665" d="M25.278 28.339C22.284 38.07 17.91 45.503 12.76 52.297c.65 1.034 2.278 2.074 5.205 1.987 1.392 1.214 3.582 1.36 6.245.774 1.994 1.046 4.171 1.162 6.422.24 2.86 1.054 5.534.8 7.897-.28 2.82.71 5.221.612 6.788-.913 2.928.215 4.608-.574 4.921-1.996-6.026-7.284-9.941-15.515-12.468-23.68z"/>
        <path fill="#f55" d="M26.986 30.527c-.41 2.434-1.049 4.756-1.938 6.932-.877 4.44-2.793 8.731-6.18 12.538 3.815-3.392 6.377-7.496 7.908-12.077.348-2.46.395-4.94.21-7.393zM36.2 30.85c-.183 2.453-.144 4.928.182 7.38 1.475 4.578 3.94 8.689 7.61 12.09-3.24-3.797-5.075-8.081-5.911-12.524-.861-2.184-1.48-4.511-1.88-6.946zM30.042 31.012a68.401 68.401 0 0 1-1.151 6.994c-.073 4.423-.514 8.61-1.143 12.476a77.508 77.508 0 0 0 2.925-12.326 79.846 79.846 0 0 0-.63-7.144zM33.247 31.203a67.711 67.711 0 0 0-.662 7.165 67.741 67.741 0 0 0 3.35 12.306c-.765-3.887-1.306-8.08-1.416-12.497a58.649 58.649 0 0 1-1.272-6.974z"/>
        <path fill="#faa" stroke="#000" stroke-width=".665" d="M25.855 24.502v-1.493c-1.593-2.22-1.543-3.623-1.444-5.875 2.858-2.347 2-4.024 4.31-7.216-.027 2.628.804 5.405 2.915 7.678 2.221-1.448 2.626-5.095 3.237-7.884 2.06 1.997 1.847 5.76 4.155 7.332.208 2.906.425 4.06-1.544 6.17l-.023 1.432z"/>
    </g>
</svg>
