<?xml version="1.0" encoding="UTF-8" standalone="no"?>
<!-- Created with Inkscape (http://www.inkscape.org/) -->

<svg
   xmlns:dc="http://purl.org/dc/elements/1.1/"
   xmlns:cc="http://creativecommons.org/ns#"
   xmlns:rdf="http://www.w3.org/1999/02/22-rdf-syntax-ns#"
   xmlns:svg="http://www.w3.org/2000/svg"
   xmlns="http://www.w3.org/2000/svg"
   xmlns:sodipodi="http://sodipodi.sourceforge.net/DTD/sodipodi-0.dtd"
   xmlns:inkscape="http://www.inkscape.org/namespaces/inkscape"
   width="100%"
   height="100%"
   viewBox="0 0 64.000001 64.000001"
   id="svg4311"
   version="1.1"
   inkscape:version="0.91 r13725"
   sodipodi:docname="arcaneWeaver.svg">
  <defs
     id="defs4313">
    <inkscape:path-effect
       cusp_linecap_type="round"
       end_linecap_type="zerowidth"
       miter_limit="4"
       linejoin_type="round"
       start_linecap_type="zerowidth"
       interpolator_beta="0.2"
       interpolator_type="Linear"
       sort_points="true"
       offset_points="0.33948917,0.7392778"
       is_visible="true"
       id="path-effect4259"
       effect="powerstroke" />
    <inkscape:path-effect
       cusp_linecap_type="round"
       end_linecap_type="zerowidth"
       miter_limit="4"
       linejoin_type="round"
       start_linecap_type="zerowidth"
       interpolator_beta="0.2"
       interpolator_type="Linear"
       sort_points="true"
       offset_points="0.33948917,0.7244008"
       is_visible="true"
       id="path-effect4256"
       effect="powerstroke" />
    <inkscape:path-effect
       cusp_linecap_type="round"
       end_linecap_type="zerowidth"
       miter_limit="4"
       linejoin_type="round"
       start_linecap_type="zerowidth"
       interpolator_beta="0.2"
       interpolator_type="Linear"
       sort_points="true"
       offset_points="0.33948917,0.7392778"
       is_visible="true"
       id="path-effect4253"
       effect="powerstroke" />
    <inkscape:path-effect
       cusp_linecap_type="round"
       end_linecap_type="zerowidth"
       miter_limit="4"
       linejoin_type="round"
       start_linecap_type="zerowidth"
       interpolator_beta="0.2"
       interpolator_type="Linear"
       sort_points="true"
       offset_points="0.33948917,0.80281158"
       is_visible="true"
       id="path-effect4250"
       effect="powerstroke" />
    <inkscape:path-effect
       effect="powerstroke"
       id="path-effect4149"
       is_visible="true"
       offset_points="0.33948917,0.89452614"
       sort_points="true"
       interpolator_type="Linear"
       interpolator_beta="0.2"
       start_linecap_type="zerowidth"
       linejoin_type="round"
       miter_limit="4"
       end_linecap_type="zerowidth"
       cusp_linecap_type="round" />
    <inkscape:path-effect
       effect="powerstroke"
       id="path-effect4149-6"
       is_visible="true"
       offset_points="0.33948917,0.87652497"
       sort_points="true"
       interpolator_type="Linear"
       interpolator_beta="0.2"
       start_linecap_type="zerowidth"
       linejoin_type="round"
       miter_limit="4"
       end_linecap_type="zerowidth"
       cusp_linecap_type="round" />
    <inkscape:path-effect
       effect="powerstroke"
       id="path-effect4149-6-0"
       is_visible="true"
       offset_points="0.33948917,0.65854618"
       sort_points="true"
       interpolator_type="Linear"
       interpolator_beta="0.2"
       start_linecap_type="zerowidth"
       linejoin_type="round"
       miter_limit="4"
       end_linecap_type="zerowidth"
       cusp_linecap_type="round" />
    <inkscape:path-effect
       effect="powerstroke"
       id="path-effect4149-9"
       is_visible="true"
       offset_points="0.33948917,0.89452614"
       sort_points="true"
       interpolator_type="Linear"
       interpolator_beta="0.2"
       start_linecap_type="zerowidth"
       linejoin_type="round"
       miter_limit="4"
       end_linecap_type="zerowidth"
       cusp_linecap_type="round" />
    <inkscape:path-effect
       effect="powerstroke"
       id="path-effect4149-9-2"
       is_visible="true"
       offset_points="0.33948917,0.97140201"
       sort_points="true"
       interpolator_type="Linear"
       interpolator_beta="0.2"
       start_linecap_type="zerowidth"
       linejoin_type="round"
       miter_limit="4"
       end_linecap_type="zerowidth"
       cusp_linecap_type="round" />
  </defs>
  <sodipodi:namedview
     id="base"
     pagecolor="#ffffff"
     bordercolor="#666666"
     borderopacity="1.0"
     inkscape:pageopacity="0.0"
     inkscape:pageshadow="2"
     inkscape:zoom="5.6568545"
     inkscape:cx="71.736657"
     inkscape:cy="63.457336"
     inkscape:document-units="px"
     inkscape:current-layer="layer1"
     showgrid="false"
     units="px"
     inkscape:window-width="2560"
     inkscape:window-height="1388"
     inkscape:window-x="-8"
     inkscape:window-y="-8"
     inkscape:window-maximized="1" />
  <metadata
     id="metadata4316">
    <rdf:RDF>
      <cc:Work
         rdf:about="">
        <dc:format>image/svg+xml</dc:format>
        <dc:type
           rdf:resource="http://purl.org/dc/dcmitype/StillImage" />
        <dc:title></dc:title>
      </cc:Work>
    </rdf:RDF>
  </metadata>
  <g
     inkscape:label="Layer 1"
     inkscape:groupmode="layer"
     id="layer1"
     transform="translate(0,-988.36216)"
     style="display:inline">
    <path
       sodipodi:nodetypes="cccccccccc"
       inkscape:connector-curvature="0"
       id="path4270"
       d="m 24.624713,1015.2456 c -3.309215,10.7569 -8.145485,18.9725 -13.837656,26.482 0.718842,1.1436 2.518228,2.2932 5.753648,2.1963 1.539028,1.3418 3.959211,1.5044 6.903351,0.8558 2.20391,1.1557 4.610306,1.2839 7.098634,0.2649 3.160651,1.1651 6.117186,0.8851 8.728279,-0.3095 3.117887,0.7858 5.771687,0.6767 7.503261,-1.0094 3.236663,0.2378 5.09366,-0.634 5.440108,-2.2059 -6.660575,-8.0505 -10.988777,-17.1498 -13.781629,-26.1745 z"
       style="display:inline;fill:#ffd5d5;fill-rule:evenodd;stroke:none;stroke-width:0.25;stroke-linecap:butt;stroke-linejoin:miter;stroke-miterlimit:4;stroke-dasharray:none;stroke-opacity:1" />
    <path
       sodipodi:nodetypes="cccccccccc"
       inkscape:connector-curvature="0"
       id="path4268"
       d="m 24.822141,1013.7331 0,-1.8062 c -1.927694,-2.686 -1.452038,-4.4248 -1.332064,-7.1501 3.458526,-2.8401 2.544018,-6.20063 6.088093,-8.64874 -0.03233,3.18096 0.267137,5.25144 2.113723,8.50054 1.730926,-2.4172 1.78374,-5.09431 2.523325,-8.46933 3.549738,1.71388 3.44481,8.07963 5.827969,8.35283 0.02725,3.5155 0.501548,5.0279 -1.452469,7.581 l -0.111671,1.7735 z"
       style="display:inline;fill:#ffd5d5;fill-rule:evenodd;stroke:none;stroke-width:0.25;stroke-linecap:butt;stroke-linejoin:miter;stroke-miterlimit:4;stroke-dasharray:none;stroke-opacity:1" />
    <path
       style="display:inline;fill:#ffaaaa;fill-rule:evenodd;stroke:#000000;stroke-width:0.66549999;stroke-linecap:butt;stroke-linejoin:miter;stroke-miterlimit:4;stroke-dasharray:none;stroke-opacity:1"
       d="m 25.278275,1016.7011 c -2.993802,9.7316 -7.369107,17.1643 -12.518735,23.958 0.650327,1.0344 2.278206,2.0745 5.205243,1.9869 1.392338,1.2137 3.581843,1.3608 6.245366,0.7741 1.993846,1.0456 4.17088,1.1616 6.422036,0.2396 2.8594,1.0541 5.534132,0.8011 7.896352,-0.2801 2.820707,0.7112 5.221564,0.6123 6.788095,-0.9129 2.928163,0.215 4.608161,-0.5735 4.921588,-1.9958 -6.025726,-7.2833 -9.941392,-15.515 -12.468043,-23.6799 z"
       id="path4151"
       inkscape:connector-curvature="0"
       sodipodi:nodetypes="cccccccccc" />
    <path
       style="fill:#ff5555;fill-rule:evenodd;stroke:none;stroke-width:1px;stroke-linecap:butt;stroke-linejoin:miter;stroke-opacity:1"
       d="m 26.986272,1018.889 c -0.410957,2.4339 -1.049301,4.7561 -1.93857,6.9319 -0.876401,4.4409 -2.793172,8.7313 -6.178927,12.5385 3.814484,-3.3924 6.376617,-7.4965 7.907591,-12.0774 0.347905,-2.4607 0.395039,-4.9392 0.209906,-7.393 z"
       id="path4147"
       inkscape:path-effect="#path-effect4149"
       inkscape:original-d="m 26.986272,1018.889 c -0.331234,7.1984 -2.668594,14.0214 -8.117497,19.4704"
       inkscape:connector-curvature="0"
       sodipodi:nodetypes="cc" />
    <path
       style="display:inline;fill:#ff5555;fill-rule:evenodd;stroke:none;stroke-width:1px;stroke-linecap:butt;stroke-linejoin:miter;stroke-opacity:1"
       d="m 36.200654,1019.2125 c -0.183698,2.4531 -0.144611,4.9272 0.181827,7.3799 1.474091,4.5782 3.938709,8.6888 7.608961,12.0905 -3.240173,-3.7976 -5.07424,-8.0819 -5.91061,-12.5252 -0.860922,-2.1838 -1.479764,-4.5106 -1.880178,-6.9452 z"
       id="path4147-0"
       inkscape:path-effect="#path-effect4149-6"
       inkscape:original-d="m 36.200654,1019.2125 c 0.317903,7.1985 2.561189,14.0214 7.790788,19.4704"
       inkscape:connector-curvature="0"
       sodipodi:nodetypes="cc" />
    <path
       style="display:inline;fill:#ff5555;fill-rule:evenodd;stroke:none;stroke-width:1px;stroke-linecap:butt;stroke-linejoin:miter;stroke-opacity:1"
       d="m 30.042297,1019.3741 c -0.270745,2.4265 -0.664716,4.7614 -1.151792,6.9941 -0.0728,4.4226 -0.513315,8.6093 -1.142283,12.4764 1.207076,-3.7204 2.249741,-7.8563 2.925031,-12.3263 -0.10257,-2.3377 -0.305346,-4.7229 -0.630956,-7.1442 z"
       id="path4147-6"
       inkscape:path-effect="#path-effect4149-9"
       inkscape:original-d="m 30.042297,1019.3741 c 0.08052,7.1396 -0.90392,13.7273 -2.294075,19.4705"
       inkscape:connector-curvature="0"
       sodipodi:nodetypes="cc" />
    <path
       style="display:inline;fill:#ff5555;fill-rule:evenodd;stroke:none;stroke-width:1px;stroke-linecap:butt;stroke-linejoin:miter;stroke-opacity:1"
       d="m 33.246945,1019.5654 c -0.35598,2.4207 -0.567996,4.8126 -0.661536,7.1645 0.766626,4.4761 1.963822,8.6047 3.349918,12.306 -0.765433,-3.8865 -1.306548,-8.0801 -1.416498,-12.4967 -0.544089,-2.2186 -0.980252,-4.5466 -1.271884,-6.9738 z"
       id="path4147-6-1"
       inkscape:path-effect="#path-effect4149-9-2"
       inkscape:original-d="m 33.246945,1019.5654 c -0.09437,7.1396 1.059286,13.7272 2.688382,19.4705"
       inkscape:connector-curvature="0"
       sodipodi:nodetypes="cc" />
    <path
       style="display:inline;fill:#ffaaaa;fill-rule:evenodd;stroke:#000000;stroke-width:0.66549999;stroke-linecap:butt;stroke-linejoin:miter;stroke-miterlimit:4;stroke-dasharray:none;stroke-opacity:1"
       d="m 25.855371,1012.8638 0,-1.4927 c -1.593135,-2.2199 -1.543781,-3.6226 -1.444628,-5.8749 2.858285,-2.3471 1.999368,-4.0244 4.309606,-7.21644 -0.02671,2.62884 0.805148,5.40554 2.915629,7.67824 2.22114,-1.4476 2.625999,-5.0949 3.237225,-7.88415 2.059745,1.99695 1.846826,5.76085 4.154516,7.33245 0.208121,2.9055 0.425057,4.0608 -1.543641,6.1708 l -0.02353,1.4312 z"
       id="path4153-5"
       inkscape:connector-curvature="0"
       sodipodi:nodetypes="cccccccccc" />
  </g>
</svg>
