<svg xmlns="http://www.w3.org/2000/svg" viewBox="0 0 64 64">
    <g fill-rule="evenodd">
        <path fill="#ff8080" stroke="#000" stroke-width=".902" d="M14.833 47.8c-4.085-5.907 4.697-8.77 8.01-4.15-1.015-5.43 7.17-8.128 8.794-1.124 1.247 5.373-4.804 7.195-3.538 15.37C23.546 50.824 18.014 52.4 14.833 47.8z"/>
        <path fill="#fff" fill-opacity=".785" d="M30.179 44.21c-.403-3.596-2.532-4.432-5.798-3.258 2.828-2.488 6.877-1.57 5.798 3.257z"/>
        <path fill="#ff8080" stroke="#000" stroke-width=".902" d="M34.486 28.263c.68-9.333 12.263-5.086 11.854 2.31 3.492-6.347 14.314-2.42 10.14 6.026-3.2 6.479-11.056 3.399-16.586 12.743 1.169-10.901-5.938-13.808-5.408-21.079z"/>
        <path fill="#fff" fill-opacity=".785" d="M53.545 37.121c2.592-3.983 1.067-6.569-3.333-8.038 5.043-.224 8.508 4.01 3.333 8.038z"/>
        <path fill="#ff8080" stroke="#000" stroke-width=".902" d="M8.844 21.251c-6.857-8.088 5.848-13.875 11.388-7.57-2.222-7.911 9.616-13.35 12.954-3.2 2.56 7.788-6.215 11.55-3.257 23.509-7.708-9.745-15.742-6.438-21.085-12.739z"/>
        <path fill="#fff" fill-opacity=".785" d="M31.234 13.241c-1.071-5.285-4.352-6.16-9.064-3.846 3.886-4.196 10.039-3.53 9.064 3.846z"/>
    </g>
</svg>
