<svg version="1.1" viewBox="0 0 256 256" xmlns="http://www.w3.org/2000/svg">
 <g transform="matrix(.729 0 0 .729 35.243 35.748)" fill="#f4eed7" fill-rule="evenodd" stroke="#000" stroke-width="2">
  <path d="m48.533 32.877c-38.432 1.259-16.625 114.94-8.012 114.92 1.772-4e-3 9.027-30.772 15.846-57.119 4.77-18.428 11.23-35.163 11.184-38.264-0.141-9.718-9.976-19.83-19.018-19.535zm25.323 0.31c-4.105 2.295 4.177 36.617 7.649 36.59 3.792-0.03 11.002-10.262 11.06-14.47 0.129-9.656-12.429-25.63-18.709-22.12zm27.482 35.593c-4.388 0.316-5.575-21.973 3.604-22.515 2.54-0.15 5.825 3.087 5.562 5.665-0.493 4.826-4.207 16.492-9.166 16.85zm18.354-3.42c-4.37 0.64-7.156-18.109 1.992-19.347 2.533-0.342 6.053 2.116 5.974 4.319-0.147 4.124-3.027 14.305-7.966 15.029zm91.872-32.467c38.432 1.26 16.625 114.94 8.012 114.92-1.772-4e-3 -9.027-30.772-15.846-57.118-4.77-18.429-11.229-35.164-11.184-38.265 0.141-9.718 9.977-19.83 19.018-19.535zm-25.323 0.311c4.106 2.294-4.177 36.616-7.648 36.589-3.793-0.03-11.003-10.262-11.06-14.47-0.13-9.656 12.428-25.63 18.708-22.12zm-27.481 35.592c4.388 0.316 5.574-21.973-3.605-22.514-2.54-0.15-5.825 3.086-5.562 5.664 0.493 4.827 4.207 16.492 9.166 16.85zm-18.355-3.419c4.37 0.64 7.156-18.11-1.992-19.348-2.532-0.342-6.053 2.116-5.974 4.32 0.147 4.123 3.027 14.304 7.966 15.028zm-66.212 165.22c-28.25-0.925-30.205-66.818-16.949-73.725 1.155-0.602 5.809 14.351 15.99 32.271 6.912 12.167 13.577 25.745 13.544 28.025-0.104 7.144-5.939 13.647-12.585 13.43zm25-34.957c3.457 0.042 10.663 30.08 3.14 31.746-2.722 0.602-6.625-4.423-8.138-7.122-3.47-6.192-0.29-24.69 4.998-24.624zm12.267 11.408c-2.503 0.543-4.15 17.289 2.597 17.687 1.867 0.11 3.557-2.179 3.262-4.06-0.363-2.308-2.288-14.401-5.86-13.627zm11.683 4.477c-3.213-0.47-5.261 13.313 1.464 14.222 1.861 0.252 3.415-1.607 3.358-3.226-0.108-3.031-1.192-10.464-4.822-10.996zm63.256 19.565c28.25-0.926 30.205-66.819 16.948-73.727-1.155-0.602-5.808 14.352-15.989 32.272-6.912 12.167-13.577 25.745-13.544 28.024 0.104 7.144 5.938 13.648 12.585 13.43zm-25.001-34.958c-3.457 0.042-10.663 30.08-3.14 31.745 2.723 0.603 6.626-4.423 8.138-7.122 3.471-6.192 0.29-24.688-4.998-24.623zm-12.266 11.408c2.503 0.543 4.15 17.289-2.597 17.687-1.868 0.11-3.558-2.179-3.262-4.06 0.362-2.308 2.287-14.402 5.86-13.627zm-11.683 4.477c3.212-0.47 5.26 13.312-1.464 14.222-1.862 0.252-3.416-1.607-3.358-3.226 0.108-3.031 1.192-10.464 4.822-10.996z" stroke-width="2.3152"/>
 </g>
</svg>
