<svg version="1.1" viewBox="0 0 64 64" xmlns="http://www.w3.org/2000/svg">
 <g stroke="#000" stroke-width=".32">
  <path d="m22.139 33.243c-1.9571 6.0493-4.7891 10.544-7.3856 15.457 1.1142 0.45056 2.1786 0.65024 3.2173 0.7232 0.95744 0.62528 1.7574 0.70784 2.4922 0.56256 0.79168 0.5888 1.9616 0.79808 3.7376 0.4032 0.24448 0.7936 1.0957 0.73856 2.0915 0.48128 2.0307 0.25152 2.1037-0.1152 2.8141-0.2816 0.75072 0.096 1.5008 0.3808 2.2515-0.24064 0.82752 0.14912 1.575 0.0192 2.2515-0.36224 1.5296-0.24704 2.6349-0.70592 3.255-1.4074-2.7149-5.072-5.5891-10.132-7.3555-15.277zm0.43456 1.4054c0.45632 2.1843-1.5955 6.5446-2.3514 6.6733 0.1408-1.0323 1.2646-3.7114 2.3514-6.6733zm4.4589 0.65344c0.79552 1.8368 1.3811 5.9776 1.0298 6.8237-0.97984-0.93952-1.3728-5.0765-1.0298-6.8237zm-2.4461-0.28736c0.90624 1.9942-0.12736 5.6947-0.80256 7.2461-1.1066-1.5872 0.4672-3.0784 0.80256-7.2461zm4.0608-0.224c0.72704 1.2083 1.6192 4.6029 2.5664 7.2173-1.8048-1.3818-2.6195-6.1306-2.5664-7.2173zm-6.2854-3.4419v-0.88128c-0.9408-1.3107-0.91136-2.1382-0.85312-3.4682 1.0304-0.368 1.6474-1.3389 1.8195-2.6714l1.5354-1.5642c-0.016 1.552 0.03328 3.0931 1.2794 4.4346 1.3107-0.8544 1.7709-2.4192 2.1318-4.0653 0.6016 1.4976 0.59904 3.4496 1.9616 4.3776-0.19328 1.2525-0.03904 2.3744-1.024 3.9232z" fill="#ffb380" fill-rule="evenodd"/>
  <path d="m40.513 13.451a8.832 8.8499 0 0 0-8.8339 8.8499 8.832 8.8499 0 0 0 8.8339 8.8499 8.832 8.8499 0 0 0 8.832-8.8499 8.832 8.8499 0 0 0-8.832-8.8493zm0 2.3443a6.4928 6.5056 0 0 1 6.4922 6.5056 6.4928 6.5056 0 0 1-6.4928 6.505 6.4928 6.5056 0 0 1-6.4934-6.505 6.4928 6.5056 0 0 1 6.4941-6.5056z" fill="#ff8080" stroke-linejoin="round"/>
  <path d="m39.23 30.902 0.0064 2.3078-3.191 0.0128v2.192h3.1328l0.01472 3.4112h2.592l-0.02816-3.3856 3.1846-0.0256-0.0064-2.2176h-3.1782l0.0083-2.2912" fill="#ff8080" fill-rule="evenodd"/>
 </g>
</svg>
