<svg version="1.1" viewBox="0 0 64 64" xmlns="http://www.w3.org/2000/svg">
 <g fill-rule="evenodd">
  <path d="m15.287 28.949c-0.019372-10.341 13.937-14.205 16.946-3.8478 2.8689-10.437 16.365-6.5573 16.367 3.8784 0.001268 9.0369-14.538 13.472-16.327 23.804-1.541-10.351-16.969-14.675-16.986-23.835z" fill="#ff8080" stroke="#000" stroke-width=".75"/>
  <path d="m47.219 31.425c-0.54428-7.1743-4.4251-10.65-10.762-10.905 6.735-2.3021 12.301 2.3465 10.762 10.905z" fill="#ffd5d5" fill-opacity=".785" stroke-width=".75"/>
  <g stroke="#000" stroke-width=".5">
   <path d="m3.6698 50.735c5.9247-1.1763 6.2271-1.5849 7.0128-8.8506 0.666 7.1865 1.3167 7.7238 6.7068 8.8902-5.3658 0.9036-6.0066 1.2816-6.8742 9.4113-0.5049-8.2962-0.945-8.3997-6.8454-9.4509zm45.988-4.68c4.4424-0.9063 4.6692-1.2222 5.2587-6.8265 0.4995 5.544 0.9864 5.958 5.0283 6.858-4.023 0.6966-4.5036 0.9882-5.1543 7.2594-0.378-6.399-0.7092-6.48-5.1327-7.29z" fill="#ffb380"/>
   <path d="m41.568 6.4248c2.898-0.4662 3.0465-0.6282 3.4308-3.5055 0.3267 2.8467 0.6444 3.0591 3.2814 3.5208-2.6253 0.3582-2.9385 0.5076-3.3633 3.7278-0.2466-3.285-0.4626-3.3264-3.3489-3.744z" fill="#fca"/>
   <path d="m3.1637 23.765c4.059-0.7335 4.266-0.9891 4.8042-5.526 0.4572 4.4874 0.9018 4.8231 4.5954 5.5512-3.6765 0.5643-4.1157 0.8001-4.7097 5.8752-0.3465-5.1795-0.648-5.2434-4.6899-5.9004z" fill="#ffe6d5"/>
   <path d="m44.173 12.544c7.2522-1.3806 7.623-1.8612 8.5842-10.397 0.8154 8.442 1.611 9.0729 8.2098 10.444-6.5691 1.0611-7.353 1.5048-8.415 11.056-0.6183-9.747-1.1574-9.8676-8.379-11.103z" fill="#f95"/>
   <path d="m6.4766 12.047c5.9238-1.2123 6.2262-1.6335 7.011-9.1224 0.6669 7.407 1.3176 7.9605 6.7068 9.1629-5.3658 0.9315-6.0057 1.3212-6.8742 9.7002-0.504-8.55-0.945-8.658-6.8445-9.7407z" fill="#fca"/>
   <path d="m52.168 26.428c4.059-0.72 4.266-0.9702 4.8042-5.4171 0.4563 4.3992 0.9018 4.7277 4.5954 5.4414-3.6774 0.5535-4.1157 0.7848-4.7106 5.76-0.3456-5.0778-0.648-5.1408-4.689-5.7843z" fill="#ffb380"/>
   <path d="m42.527 54.32c3.9987-0.774 4.203-1.0431 4.7331-5.8284 0.45 4.734 0.8883 5.0868 4.527 5.8554-3.6225 0.5958-4.0545 0.8442-4.6404 6.1992-0.3411-5.4648-0.6381-5.5323-4.6197-6.2253z" fill="#fca"/>
  </g>
 </g>
</svg>
