<!-- Created with Inkscape (http://www.inkscape.org/) -->
<svg version="1.1" viewBox="0 0 256 256" xmlns="http://www.w3.org/2000/svg">
 <g stroke-linecap="round" stroke-linejoin="round" stroke-width=".45455">
  <g transform="matrix(.70445 -.38313 .38313 .70445 -10.857 104.47)">
   <path d="m127.39 73.156 7.4918 66.215-45.9-27.757 29.591 45.151-65.722 11.231 68.332 8.158-14.763 22.055 28.197-8.7701-12.233 41.866 27.324-34.885 23.913 36.427-5.7026-43.53 50.096 22.172-36.41-33.019 22.433-2.8463-21.715-12.684 45.838-49.08-53.739 31.955 9.2618-51.45-32.214 42.46z" fill="#ffd5d5"/>
   <path d="m140.89 150.87-30.115-18.211 19.415 29.624-44.268 4.7127 45.981 8.0086-9.6858 14.471 18.5-5.754-8.0258 27.468 17.927-22.888 15.689 23.9-3.7415-28.56 32.868 14.547-23.889-21.664 14.718-1.8674-14.247-8.3218 30.075-32.201-35.258 20.966 6.0766-33.757-21.135 27.858-12.288-26.926z" fill="#f55" fill-opacity=".76863"/>
   <path d="m146.86 159.59-16.004-9.6782 10.318 15.743-23.526 2.5045 24.436 4.2561-5.1475 7.6902 9.8317-3.0579-4.2653 14.598 9.5273-12.164 8.3379 12.701-1.9883-15.178 17.468 7.7308-12.695-11.513 7.822-0.99242-7.5717-4.4226 15.983-17.113-18.738 11.142 3.2294-17.94-11.232 14.805-6.5304-14.31z" fill="#ff2a2a" fill-opacity=".76863"/>
  </g>
  <g transform="matrix(.20578 .48421 -.48421 .20578 118.73 8.2726)">
   <path d="m127.39 73.156 7.4918 66.215-45.9-27.757 29.591 45.151-65.722 11.231 68.332 8.158-14.763 22.055 28.197-8.7701-12.233 41.866 27.324-34.885 23.913 36.427-5.7026-43.53 50.096 22.172-36.41-33.019 22.433-2.8463-21.715-12.684 45.838-49.08-53.739 31.955 9.2618-51.45-32.214 42.46z" fill="#ffd5d5"/>
   <path d="m140.89 150.87-30.115-18.211 19.415 29.624-44.268 4.7127 45.981 8.0086-9.6858 14.471 18.5-5.754-8.0258 27.468 17.927-22.888 15.689 23.9-3.7415-28.56 32.868 14.547-23.889-21.664 14.718-1.8674-14.247-8.3218 30.075-32.201-35.258 20.966 6.0766-33.757-21.135 27.858-12.288-26.926z" fill="#f55" fill-opacity=".76863"/>
   <path d="m146.86 159.59-16.004-9.6782 10.318 15.743-23.526 2.5045 24.436 4.2561-5.1475 7.6902 9.8317-3.0579-4.2653 14.598 9.5273-12.164 8.3379 12.701-1.9883-15.178 17.468 7.7308-12.695-11.513 7.822-0.99242-7.5717-4.4226 15.983-17.113-18.738 11.142 3.2294-17.94-11.232 14.805-6.5304-14.31z" fill="#ff2a2a" fill-opacity=".76863"/>
  </g>
  <g transform="matrix(.33905 -.17931 .17931 .33905 80 38.217)">
   <path d="m127.39 73.156 7.4918 66.215-45.9-27.757 29.591 45.151-65.722 11.231 68.332 8.158-14.763 22.055 28.197-8.7701-12.233 41.866 27.324-34.885 23.913 36.427-5.7026-43.53 50.096 22.172-36.41-33.019 22.433-2.8463-21.715-12.684 45.838-49.08-53.739 31.955 9.2618-51.45-32.214 42.46z" fill="#ffd5d5"/>
   <path d="m140.89 150.87-30.115-18.211 19.415 29.624-44.268 4.7127 45.981 8.0086-9.6858 14.471 18.5-5.754-8.0258 27.468 17.927-22.888 15.689 23.9-3.7415-28.56 32.868 14.547-23.889-21.664 14.718-1.8674-14.247-8.3218 30.075-32.201-35.258 20.966 6.0766-33.757-21.135 27.858-12.288-26.926z" fill="#f55" fill-opacity=".76863"/>
   <path d="m146.86 159.59-16.004-9.6782 10.318 15.743-23.526 2.5045 24.436 4.2561-5.1475 7.6902 9.8317-3.0579-4.2653 14.598 9.5273-12.164 8.3379 12.701-1.9883-15.178 17.468 7.7308-12.695-11.513 7.822-0.99242-7.5717-4.4226 15.983-17.113-18.738 11.142 3.2294-17.94-11.232 14.805-6.5304-14.31z" fill="#ff2a2a" fill-opacity=".76863"/>
  </g>
 </g>
</svg>
