<svg version="1.1" viewBox="0 0 64 64" xmlns="http://www.w3.org/2000/svg" xmlns:xlink="http://www.w3.org/1999/xlink">
 <defs>
  <radialGradient id="radialGradient4316-8-9-3" cx="-108.57" cy="154.83" r="14.438" gradientTransform="matrix(1.6526 .01792 -.0173 1.6309 -61.766 -123.33)" gradientUnits="userSpaceOnUse">
   <stop stop-color="#fdfdfd" offset="0"/>
   <stop stop-color="#fdfdfd" offset=".142"/>
   <stop stop-color="#ffeae8" offset=".281"/>
   <stop stop-color="#d688ff" stop-opacity=".627" offset=".514"/>
   <stop stop-color="#d08aff" stop-opacity=".106" offset=".838"/>
   <stop stop-color="#ff92a6" stop-opacity="0" offset="1"/>
  </radialGradient>
 </defs>
 <g>
  <g fill-rule="evenodd">
   <g stroke="#000">
    <path d="M12.612 31.323a132.314 132.314 0 0 0 11.304 19.299c.407.578.687.63 1.376.298 7.76-3.723 15.143-8.26 22.416-13.03.563-.368.696-.692.265-1.59a143.909 143.909 0 0 0-10.946-18.926c-.398-.58-.979-.673-1.627-.337A268.88 268.88 0 0 0 12.885 30.16c-.519.336-.46.77-.273 1.163z" fill="#f2f2f2" stroke-width=".206"/>
    <path d="M17.648 32.241c2.165 4.863 4.915 9.46 8.042 13.884.297.42.495.448 1.003.217 5.931-2.689 11.261-5.97 16.34-9.498.404-.28.513-.507.194-1.16-2.302-4.71-4.948-9.219-7.888-13.558-.287-.425-.703-.47-1.186-.245a102.822 102.822 0 0 0-16.306 9.512c-.367.262-.328.559-.199.848z" fill="#fff" stroke-width=".15"/>
    <path d="M21.081 26.26c-.508.296-.036.907.362.677l6.862-3.956c.435-.25.078-.983-.394-.707zM32.171 45.243c-.508.296-.035.906.362.677l6.863-3.956c.435-.251.077-.983-.395-.707zM14.385 30.844c.586-.151.603-.801-.063-.854-15.863 4.847-5.381 3.8-10.15 7.807l-.922.859c8.19-4.804-4.263-3.958 11.135-7.812z" fill="#f9f9f9" stroke-width=".206"/>
   </g>
   <path d="M46.268 37.56c-3.405 3.174-18.012 11.515-22.352 13.062.407.578.687.63 1.376.298 7.76-3.723 15.143-8.26 22.416-13.03.563-.368.696-.692.265-1.59a143.909 143.909 0 0 0-10.946-18.926c-.398-.58-.979-.673-1.627-.337 4.543 6.041 8.768 13.473 11.141 19.36.231.574.046.867-.273 1.163z" fill-opacity=".251"/>
   <path d="M4.172 37.797c-1.927 5.242.158 8.17 1.587 9.906 5.32 6.467 4.254-1.625 8.056 5.836 2.785 5.464 9.767-5.914 12.004-4.378.45.308-.07.908-.523.627-1.318-.817-9.568 9.797-12.429 4.258-3.817-7.392-2.669.782-7.893-5.693-1.416-1.755-4.313-6.311-1.724-9.697zM47.206 37.205c-.232.507-1.004.273-.781-.342.097-.267 3.526-5.365 7.593-4.886 3.125.368 5.878-1.749 8.192-3.88 3.74-3.446-8.138-16.485-8.691-20.435l.315 1.22c1.23 1.841 12.682 16.309 8.91 20.007-2.327 2.282-5.317 4.016-8.567 3.76-3.787-.298-6.853 4.298-6.971 4.556z" fill="#f9f9f9" stroke="#000" stroke-width=".206"/>
   <path d="M53.519 7.662c-1.07-3.101-4.327-2.385-6.465-1.69-7.963 2.593 1.325 4.544-5.892 8.79-5.287 3.11-5.52 3.014-5.758 3.03-.455.03-.443.748.171.697.239-.02.723.343 6.113-2.79 7.193-4.18-2.208-6.105 5.678-8.756 2.138-.719 4.804-1.194 6.468 1.939z" fill="#f9f9f9" stroke="#000" stroke-width=".206"/>
   <path d="M25.69 46.125c.297.42.495.448 1.003.217 5.931-2.689 11.261-5.97 16.34-9.498.404-.28.513-.507.194-1.16-2.302-4.71-4.948-9.219-7.888-13.558-.287-.425-.703-.47-1.186-.245 2.755 4.377 6.462 10.23 7.636 13.76.117.35-.274.848-.568 1.066-5.353 3.953-9.868 6.004-15.531 9.418z" fill-opacity=".251"/>
  </g>
  <g opacity=".666">
   <g transform="matrix(1.0516 -.61044 .61044 1.0516 209.51 -248.15)">
    <ellipse cx="-243" cy="127.12" rx="24.875" ry="24.375" fill="url(#radialGradient4316-8-9-3)"/>
    <g fill="#fefefe">
     <path d="m-222.98 126.39-18.215 1.556-2.323 12.194-2.324-12.194-18.214-1.556 18.214-1.555 2.324-12.195 2.323 12.195z"/>
     <path d="m-236.54 133.95-6.86-5.892-6.754 4.29 5.198-5.96-5.336-7.2 6.86 5.892 6.754-4.29-5.198 5.96z"/>
    </g>
   </g>
  </g>
 </g>
</svg>
