<svg version="1.1" viewBox="0 0 64 64" xmlns="http://www.w3.org/2000/svg">
 <path d="m43.959 7.3826-0.04587 6.7167-6.611-0.03342-0.06229 5.3292 6.6357 0.02313-9.72e-4 6.6964 5.9315 0.01576 0.04559-6.7346 6.4094 0.0287-0.0244-5.2201-6.3733-0.05681 0.02145-6.7865z" fill="#f55" fill-rule="evenodd" stroke="#000" stroke-width=".4455"/>
 <g transform="matrix(.729 0 0 .729 6.4599 11.356)" fill-rule="evenodd">
  <path d="m24.625 26.883c-3.31 10.757-8.146 18.973-13.838 26.482 0.719 1.144 2.518 2.294 5.754 2.197 1.539 1.342 3.959 1.504 6.903 0.856 2.204 1.155 4.61 1.283 7.099 0.264 3.16 1.166 6.117 0.886 8.728-0.31 3.118 0.787 5.772 0.678 7.503-1.008 3.237 0.237 5.094-0.634 5.44-2.206-6.66-8.05-10.988-17.15-13.781-26.175zm0.197-1.513v-1.805c-1.928-2.686-1.452-4.425-1.332-7.15 3.459-2.84 2.544-6.201 6.088-8.65-0.032 3.182 0.267 5.252 2.114 8.501 1.73-2.417 1.784-5.094 2.523-8.469 3.55 1.714 3.445 8.08 5.828 8.353 0.027 3.515 0.502 5.028-1.452 7.58l-0.112 1.774z" fill="#ffd5d5"/>
  <path d="m25.278 28.339c-2.994 9.731-7.368 17.164-12.518 23.958 0.65 1.034 2.278 2.074 5.205 1.987 1.392 1.214 3.582 1.36 6.245 0.774 1.994 1.046 4.171 1.162 6.422 0.24 2.86 1.054 5.534 0.8 7.897-0.28 2.82 0.71 5.221 0.612 6.788-0.913 2.928 0.215 4.608-0.574 4.921-1.996-6.026-7.284-9.941-15.515-12.468-23.68z" fill="#faa" stroke="#000" stroke-width=".665"/>
  <path d="m26.986 30.527c-0.41 2.434-1.049 4.756-1.938 6.932-0.877 4.44-2.793 8.731-6.18 12.538 3.815-3.392 6.377-7.496 7.908-12.077 0.348-2.46 0.395-4.94 0.21-7.393zm9.214 0.323c-0.183 2.453-0.144 4.928 0.182 7.38 1.475 4.578 3.94 8.689 7.61 12.09-3.24-3.797-5.075-8.081-5.911-12.524-0.861-2.184-1.48-4.511-1.88-6.946zm-6.158 0.162a68.401 68.401 0 0 1-1.151 6.994c-0.073 4.423-0.514 8.61-1.143 12.476a77.508 77.508 0 0 0 2.925-12.326 79.846 79.846 0 0 0-0.63-7.144zm3.205 0.191a67.711 67.711 0 0 0-0.662 7.165 67.741 67.741 0 0 0 3.35 12.306c-0.765-3.887-1.306-8.08-1.416-12.497a58.649 58.649 0 0 1-1.272-6.974z" fill="#f55"/>
  <path d="m25.855 24.502v-1.493c-1.593-2.22-1.543-3.623-1.444-5.875 2.858-2.347 2-4.024 4.31-7.216-0.027 2.628 0.804 5.405 2.915 7.678 2.221-1.448 2.626-5.095 3.237-7.884 2.06 1.997 1.847 5.76 4.155 7.332 0.208 2.906 0.425 4.06-1.544 6.17l-0.023 1.432z" fill="#faa" stroke="#000" stroke-width=".665"/>
 </g>
</svg>
