<?xml version="1.0" encoding="UTF-8"?>
<svg version="1.1" viewBox="0 0 64 64" xmlns="http://www.w3.org/2000/svg">
 <g transform="translate(-.857 .5)" fill="#ff8080" stroke="#000" stroke-width=".5">
  <path d="m32.858 11.675a13.8 13.828 0 0 0-13.802 13.828 13.8 13.828 0 0 0 13.802 13.829 13.8 13.828 0 0 0 13.8-13.829 13.8 13.828 0 0 0-13.8-13.828zm0 3.663a10.145 10.165 0 0 1 10.144 10.165 10.145 10.165 0 0 1-10.144 10.164 10.145 10.165 0 0 1-10.146-10.164 10.145 10.165 0 0 1 10.146-10.165z" stroke-linejoin="round"/>
  <path d="m30.854 38.943 0.01 3.606-4.986 0.02v3.425h4.895l0.023 5.331h4.049l-0.043-5.29 4.976-0.04-0.01-3.466h-4.966l0.013-3.58" fill-rule="evenodd"/>
 </g>
 <g fill-rule="evenodd">
  <path d="m7.4227 50.465c-2.9857-4.3173 3.4344-6.4095 5.8555-3.0326-0.74115-3.969 5.2415-5.9414 6.4298-0.82134 0.91125 3.9277-3.513 5.2593-2.5871 11.236-3.3283-5.1702-7.3718-4.0176-9.6981-7.3815z" fill="#f06" stroke="#000" stroke-width=".45"/>
  <path d="m18.641 47.841c-0.29403-2.6276-1.8508-3.2392-4.2379-2.3814 2.0671-1.8184 5.0269-1.147 4.2379 2.3814z" fill="#fff" fill-opacity=".785" stroke-width=".81"/>
  <path d="m41.504 42.607c1.8306-6.5918 9.5224-1.8808 8.1648 3.3615 3.4166-4.046 10.607 0.32562 6.4006 5.7785-3.227 4.182-8.4135 0.84402-13.721 6.7457 2.4057-7.6448-2.2696-10.751-0.84321-15.886z" fill="#f06" stroke="#000" stroke-width=".45"/>
  <path d="m53.89 51.698c2.4316-2.4818 1.7107-4.5546-1.2312-6.2402 3.6466 0.56457 5.5202 4.0986 1.2312 6.2402z" fill="#fff" fill-opacity=".785" stroke-width=".81"/>
  <path d="m44.806 11.836c-2.6341-2.9824 2.0898-5.2488 4.2152-2.9249-0.89262-2.9516 3.5073-5.0819 4.8357-1.2984 1.0206 2.9022-2.2437 4.3805-1.0449 8.8452-2.9646-3.5988-5.9535-2.2972-8.006-4.621z" fill="#f06" stroke="#000" stroke-width=".45"/>
  <path d="m53.146 8.6624c-0.44145-1.9748-1.6791-2.2785-3.4295-1.3746 1.4264-1.6038 3.7398-1.4005 3.4295 1.3746z" fill="#fff" fill-opacity=".785" stroke-width=".81"/>
  <path d="m8.8173 11.932c0.18063-5.2456 6.5812-3.0942 6.5092 1.0603 1.7739-3.628 7.7517-1.6411 5.6498 3.1768-1.6119 3.696-5.9567 2.1246-8.7804 7.4731 0.41472-6.1349-3.5178-7.6237-3.3777-11.71z" fill="#f06" stroke="#000" stroke-width=".45"/>
  <path d="m19.386 16.52c1.3324-2.2842 0.44793-3.7033-1.9804-4.4396 2.7443-0.2268 4.7191 2.0793 1.9804 4.4396z" fill="#fff" fill-opacity=".785" stroke-width=".81"/>
 </g>
</svg>
