<?xml version="1.0" encoding="UTF-8"?>
<svg version="1.1" viewBox="0 0 64 64" xmlns="http://www.w3.org/2000/svg">
 <g fill-rule="evenodd">
  <path d="m7.2981 50.964c-2.9857-4.3173 3.4344-6.4095 5.8555-3.0326-0.74115-3.969 5.2415-5.9414 6.4298-0.82134 0.91125 3.9277-3.513 5.2593-2.5871 11.236-3.3283-5.1702-7.3718-4.0176-9.6981-7.3815z" fill="#f06" stroke="#000" stroke-width=".45"/>
  <path d="m18.517 48.34c-0.29403-2.6276-1.8508-3.2392-4.2379-2.3814 2.0671-1.8184 5.0269-1.147 4.2379 2.3814z" fill="#fff" fill-opacity=".785" stroke-width=".81"/>
  <path d="m42.127 42.669c1.8306-6.5918 9.5224-1.8808 8.1648 3.3615 3.4166-4.046 10.607 0.32562 6.4006 5.7785-3.227 4.182-8.4135 0.84402-13.721 6.7457 2.4057-7.6448-2.2696-10.751-0.84321-15.886z" fill="#f06" stroke="#000" stroke-width=".45"/>
  <path d="m54.513 51.76c2.4316-2.4818 1.7107-4.5546-1.2312-6.2402 3.6466 0.56457 5.5202 4.0986 1.2312 6.2402z" fill="#fff" fill-opacity=".785" stroke-width=".81"/>
  <path d="m43.933 12.21c-2.6341-2.9824 2.0898-5.2488 4.2152-2.9249-0.89262-2.9516 3.5073-5.0819 4.8357-1.2984 1.0206 2.9022-2.2437 4.3805-1.0449 8.8452-2.9646-3.5988-5.9535-2.2972-8.006-4.621z" fill="#f06" stroke="#000" stroke-width=".45"/>
  <path d="m52.273 9.0363c-0.44145-1.9748-1.6791-2.2785-3.4295-1.3746 1.4264-1.6038 3.7398-1.4005 3.4295 1.3746z" fill="#fff" fill-opacity=".785" stroke-width=".81"/>
 </g>
 <path d="m20.12 45.291a13.8 13.828 42.245 0 0 19.514-0.958 13.8 13.828 42.245 0 0-0.92-19.516 13.8 13.828 42.245 0 0-19.513 0.96 13.8 13.828 42.245 0 0 0.92 19.514zm2.463-2.712a10.145 10.165 42.245 0 1-0.676-14.345 10.145 10.165 42.245 0 1 14.343-0.704 10.145 10.165 42.245 0 1 0.678 14.345 10.145 10.165 42.245 0 1-14.345 0.704z" fill="#ff8080" stroke="#000" stroke-linejoin="round" stroke-width=".5"/>
 <g fill-rule="evenodd">
  <path d="m39.969 26.45 6.106-6.985 0.015 7.646 2.302-2.535c-0.035-3.304-9e-3 -9.444-9e-3 -9.444l-10.28 0.099-2.323 2.572 6.851-0.125-5.591 6.105" fill="#ff8080" stroke="#000" stroke-width=".5"/>
  <path d="m9.8144 13.864c0.18063-5.2456 6.5813-3.0942 6.5092 1.0603 1.7739-3.628 7.7517-1.6411 5.6498 3.1768-1.6119 3.696-5.9567 2.1246-8.7804 7.4731 0.41472-6.1349-3.5178-7.6237-3.3777-11.71z" fill="#f06" stroke="#000" stroke-width=".45"/>
  <path d="m20.383 18.452c1.3324-2.2842 0.44793-3.7033-1.9804-4.4396 2.7443-0.2268 4.7191 2.0793 1.9804 4.4396z" fill="#fff" fill-opacity=".785" stroke-width=".81"/>
 </g>
</svg>
