<?xml version="1.0" encoding="UTF-8"?>
<svg version="1.1" viewBox="0 0 256 256" xmlns="http://www.w3.org/2000/svg">
 <g transform="translate(.095255 -.03495)" fill="#ff8080" stroke="#000" stroke-linecap="round" stroke-linejoin="round" stroke-width=".4">
  <path d="m112.88 215.55c-1.2917 1.247-1.5324 2.074-1.9939 2.9448 5.3324-2.0862 10.13-5.6226 18.247-6.1169 55.576-3.3846 82.606-44.558 86.843-78.81 5.9711-48.267-27.543-77.585-32.843-81.228 12.758 11.954 36.579 39.26 31.559 81.114-4.8223 40.201-36.444 74.844-86.212 78.226-4.3673 0.29682-10.435 2.2381-15.6 3.8698z"/>
  <path d="m140.57 207.69c13.63-3.1304 15.838-14.463 15.461-21.693-9.7968 3.041-16.056 13.265-15.461 21.693z"/>
  <path d="m162.64 201.77c12.792-5.6526 12.815-17.198 11.077-24.226-9.0445 4.8396-13.256 16.063-11.077 24.226z"/>
  <path d="m181.2 190.1c11.017-8.6142 8.2116-19.813 4.8045-26.201-7.5832 6.9079-8.9171 18.821-4.8045 26.201z"/>
  <path d="m196.05 174.74c8.6239-11.009 3.2091-21.206-1.6334-26.588-5.7008 8.5279-4.1323 20.413 1.6334 26.588z"/>
  <path d="m206.52 156.13c5.413-12.895-2.5006-21.301-8.5917-25.215-3.2483 9.73 1.4007 20.78 8.5917 25.215z"/>
  <path d="m212.48 136.2c2.5861-13.744-6.9155-20.302-13.692-22.85-1.1339 10.195 5.7306 20.023 13.692 22.85z"/>
  <path d="m213.77 115.93c-0.46257-13.977-11.162-18.314-18.331-19.328 1.1088 10.198 9.9451 18.299 18.331 19.328z"/>
  <path d="m209.96 95.421c-4.5218-13.234-16.021-14.259-23.174-13.137 4.0368 9.4301 14.853 14.6 23.174 13.137z"/>
  <path d="m202.24 78.348c-6.0689-12.6-17.609-12.245-24.576-10.277 5.1334 8.881 16.489 12.723 24.576 10.277z"/>
  <path d="m191.32 62.507c-8.1858-11.339-19.484-8.9645-25.998-5.8046 6.6123 7.8422 18.466 9.6315 25.998 5.8046z"/>
  <path d="m182.32 51.867c-4.574-13.216-16.078-14.195-23.226-13.045 4.074 9.4141 14.91 14.541 23.226 13.045z"/>
  <path d="m193.98 59.842c4.1833-13.345-4.4818-20.974-10.912-24.301-2.3241 9.9911 3.3379 20.558 10.912 24.301z"/>
  <path d="m205.66 76.342c8.0078-11.465 2.0425-21.35-3.0876-26.459-5.225 8.8274-3.0078 20.608 3.0876 26.459z"/>
  <path d="m213.67 94.818c10.585-9.1397 7.2383-20.189 3.5246-26.404-7.2383 7.2685-7.9912 19.233-3.5246 26.404z"/>
  <path d="m218.17 115.34c12.281-6.6897 11.351-18.197 9.0386-25.058-8.6139 5.5699-11.884 17.103-9.0386 25.058z"/>
  <path d="m216.94 137.21c13.646-3.0619 15.91-14.383 15.569-21.615-9.8119 2.9917-16.122 13.184-15.569 21.615z"/>
  <path d="m211 157.96c13.942 1.0926 19.44-9.0593 21.244-16.071-10.258-0.0306-19.29 7.8513-21.244 16.071z"/>
  <path d="m200.44 176.98c13.715 2.7357 20.376-6.6938 22.998-13.442-10.182-1.2449-20.084 5.5121-22.998 13.442z"/>
  <path d="m185.98 191.89c12.738 5.7726 21.363-1.902 25.446-7.8809-9.635-3.52-20.811 0.81715-25.446 7.8809z"/>
  <path d="m164.52 206.46c11.217 8.3519 21.278 2.6894 26.54-2.2834-8.6648-5.4904-20.508-3.6317-26.54 2.2834z"/>
  <path d="m141.88 213.47c9.1631 10.565 20.205 7.1938 26.412 3.4664-7.2844-7.2222-19.25-7.9488-26.412-3.4664z"/>
 </g>
 <g transform="matrix(-1 0 0 1 255.9 -.092919)" fill="#ff8080" stroke="#000" stroke-linecap="round" stroke-linejoin="round" stroke-width=".4">
  <path d="m112.88 215.55c-1.2917 1.247-1.5324 2.074-1.9939 2.9448 5.3324-2.0862 10.13-5.6226 18.247-6.1169 55.576-3.3846 82.606-44.558 86.843-78.81 5.9711-48.267-27.543-77.585-32.843-81.228 12.758 11.954 36.579 39.26 31.559 81.114-4.8223 40.201-36.444 74.844-86.212 78.226-4.3673 0.29682-10.435 2.2381-15.6 3.8698z"/>
  <path d="m140.57 207.69c13.63-3.1304 15.838-14.463 15.461-21.693-9.7968 3.041-16.056 13.265-15.461 21.693z"/>
  <path d="m162.64 201.77c12.792-5.6526 12.815-17.198 11.077-24.226-9.0445 4.8396-13.256 16.063-11.077 24.226z"/>
  <path d="m181.2 190.1c11.017-8.6142 8.2116-19.813 4.8045-26.201-7.5832 6.9079-8.9171 18.821-4.8045 26.201z"/>
  <path d="m196.05 174.74c8.6239-11.009 3.2091-21.206-1.6334-26.588-5.7008 8.5279-4.1323 20.413 1.6334 26.588z"/>
  <path d="m206.52 156.13c5.413-12.895-2.5006-21.301-8.5917-25.215-3.2483 9.73 1.4007 20.78 8.5917 25.215z"/>
  <path d="m212.48 136.2c2.5861-13.744-6.9155-20.302-13.692-22.85-1.1339 10.195 5.7306 20.023 13.692 22.85z"/>
  <path d="m213.77 115.93c-0.46257-13.977-11.162-18.314-18.331-19.328 1.1088 10.198 9.9451 18.299 18.331 19.328z"/>
  <path d="m209.96 95.421c-4.5218-13.234-16.021-14.259-23.174-13.137 4.0368 9.4301 14.853 14.6 23.174 13.137z"/>
  <path d="m202.24 78.348c-6.0689-12.6-17.609-12.245-24.576-10.277 5.1334 8.881 16.489 12.723 24.576 10.277z"/>
  <path d="m191.32 62.507c-8.1858-11.339-19.484-8.9645-25.998-5.8046 6.6123 7.8422 18.466 9.6315 25.998 5.8046z"/>
  <path d="m182.32 51.867c-4.574-13.216-16.078-14.195-23.226-13.045 4.074 9.4141 14.91 14.541 23.226 13.045z"/>
  <path d="m193.98 59.842c4.1833-13.345-4.4818-20.974-10.912-24.301-2.3241 9.9911 3.3379 20.558 10.912 24.301z"/>
  <path d="m205.66 76.342c8.0078-11.465 2.0425-21.35-3.0876-26.459-5.225 8.8274-3.0078 20.608 3.0876 26.459z"/>
  <path d="m213.67 94.818c10.585-9.1397 7.2383-20.189 3.5246-26.404-7.2383 7.2685-7.9912 19.233-3.5246 26.404z"/>
  <path d="m218.17 115.34c12.281-6.6897 11.351-18.197 9.0386-25.058-8.6139 5.5699-11.884 17.103-9.0386 25.058z"/>
  <path d="m216.94 137.21c13.646-3.0619 15.91-14.383 15.569-21.615-9.8119 2.9917-16.122 13.184-15.569 21.615z"/>
  <path d="m211 157.96c13.942 1.0926 19.44-9.0593 21.244-16.071-10.258-0.0306-19.29 7.8513-21.244 16.071z"/>
  <path d="m200.44 176.98c13.715 2.7357 20.376-6.6938 22.998-13.442-10.182-1.2449-20.084 5.5121-22.998 13.442z"/>
  <path d="m185.98 191.89c12.738 5.7726 21.363-1.902 25.446-7.8809-9.635-3.52-20.811 0.81715-25.446 7.8809z"/>
  <path d="m164.52 206.46c11.217 8.3519 21.278 2.6894 26.54-2.2834-8.6648-5.4904-20.508-3.6317-26.54 2.2834z"/>
  <path d="m141.88 213.47c9.1631 10.565 20.205 7.1938 26.412 3.4664-7.2844-7.2222-19.25-7.9488-26.412-3.4664z"/>
 </g>
</svg>
