<svg version="1.1" viewBox="0 0 64 64" xmlns="http://www.w3.org/2000/svg">
 <g transform="matrix(.81 0 0 .81 6.5228 6.0908)" stroke="#000">
  <path d="m15.7 29.856c2.57-2.344 5.222-4.018 8.121-3.758-4.634-6.268-3.282-11.606-0.117-17.976-8.019 5.122-12.235 12.52-8.003 21.734zm32.542 0.466c-2.568-2.344-5.222-4.019-8.12-3.758 4.634-6.268 3.281-11.606 0.117-17.976 8.019 5.122 12.235 12.519 8.003 21.734z" fill="#f55" fill-rule="evenodd" stroke-width=".75"/>
  <path d="m13.221 37.393c2.04 6.07 4.256 11.93 14.974 7.394z" fill="#ff8080" fill-rule="evenodd" stroke-width=".9075"/>
  <path d="m21.042 46.081 0.15-4.76" fill="none" stroke-width="1.21"/>
  <path d="m51.158 37.34c-2.04 6.072-4.255 11.93-14.974 7.395z" fill="#ff8080" fill-rule="evenodd" stroke-width=".9075"/>
  <path d="m42.665 41.624 0.055 4.599" fill="none" stroke-width="1.21"/>
  <path d="m18.562 50.11c10.222 10.436 16.976 10.484 27.021 0.059-10.284 6.273-16.64 6.248-27.021-0.059z" fill="#f55" fill-rule="evenodd"/>
  <path d="m30.558 48.397v2.232m2.924-2.232v2.232" fill="none"/>
 </g>
 <g transform="translate(-20.141 27.769)">
  <path d="m32.731-11.472 34.334 37.453 5.6068-5.5253-34.591-37.414z" fill="#ff8080" fill-rule="evenodd" stroke="#000" stroke-width=".9669"/>
  <path d="m32.932-14.467a27 27.055 84.26 0 0-7.5139 21.51 27 27.055 84.26 0 0 29.62 24.162 27 27.055 84.26 0 0 24.22-29.574 27 27.055 84.26 0 0-29.62-24.159 27 27.055 84.26 0 0-16.706 8.0612zm4.1303 3.1111a21.882 21.926 84.26 0 1 13.087-6.0787 21.882 21.926 84.26 0 1 24.002 19.579 21.882 21.926 84.26 0 1-19.624 23.968 21.882 21.926 84.26 0 1-24.007-19.581 21.882 21.926 84.26 0 1 6.5433-17.886z" fill="#ff0e5f" stroke="#000" stroke-linejoin="round" stroke-width=".94136"/>
  <path d="m33.908-10.872 32.63 35.577 4.9474-4.8509-32.868-35.545z" fill="#ff0e5f" fill-rule="evenodd" stroke-width="2.1436"/>
 </g>
</svg>
