<svg version="1.1" viewBox="0 0 64 64" xmlns="http://www.w3.org/2000/svg">
 <g transform="matrix(.891 0 0 .891 3.5428 3.5734)" stroke="#f5d">
  <rect x="3.745" y="20.365" width="57.516" height="24.837" fill="#f5d" opacity=".5" stroke-linecap="round" stroke-linejoin="round" stroke-width="2.3508"/>
  <rect x="6.328" y="22.964" width="52.35" height="19.751" fill="#1a1a1a" stroke-linecap="round" stroke-linejoin="round" stroke-width="2"/>
  <g fill="none">
   <g stroke-linecap="round" stroke-linejoin="round" stroke-width="3">
    <path d="m24.91 38.247h-4.3595l-2.4911-3.4876-2.5534 3.4876h-4.2764l4.5982-5.823-4.5256-5.8334h4.3595l2.4496 3.4253 2.46-3.4253h4.2868l-4.5359 5.74z" opacity=".5"/>
    <path d="m39.151 38.247h-4.3595l-2.4911-3.4876-2.5534 3.4876h-4.2764l4.5982-5.823-4.5256-5.8334h4.3595l2.4496 3.4253 2.46-3.4253h4.2868l-4.5359 5.74z" opacity=".5"/>
    <path d="m53.392 38.247h-4.3595l-2.4911-3.4876-2.5534 3.4876h-4.2764l4.5982-5.823-4.5256-5.8334h4.3595l2.4496 3.4253 2.46-3.4253h4.2868l-4.5359 5.74z" opacity=".5"/>
   </g>
   <g>
    <path d="m24.91 38.247h-4.3595l-2.4911-3.4876-2.5534 3.4876h-4.2764l4.5982-5.823-4.5256-5.8334h4.3595l2.4496 3.4253 2.46-3.4253h4.2868l-4.5359 5.74z"/>
    <path d="m39.151 38.247h-4.3595l-2.4911-3.4876-2.5534 3.4876h-4.2764l4.5982-5.823-4.5256-5.8334h4.3595l2.4496 3.4253 2.46-3.4253h4.2868l-4.5359 5.74z"/>
    <path d="m53.392 38.247h-4.3595l-2.4911-3.4876-2.5534 3.4876h-4.2764l4.5982-5.823-4.5256-5.8334h4.3595l2.4496 3.4253 2.46-3.4253h4.2868l-4.5359 5.74z"/>
   </g>
  </g>
 </g>
</svg>
