<svg version="1.1" viewBox="0 0 64 64" xmlns="http://www.w3.org/2000/svg">
 <g stroke="#000" stroke-linecap="round" stroke-linejoin="round">
  <path d="m38.632 34.847c0.39352 0.10186 0.44937-0.14429 0.55735-0.23696l-10.171-22.014-0.83435 0.45375z" fill="#4b3425" stroke-width=".15"/>
  <path d="m26.55 14.266c-0.27805-0.26772-0.48755-0.83407-0.51215-1.113l1.8237-0.61549 0.22007-0.20438-0.63437-1.8806 1.0857 1.6272 0.22749-0.07551 0.10784 0.13089 2.4316-0.27932-2.0894 0.91835 0.06756 0.39427-0.25343 0.12563 1.3865 3.5225-1.7089-3.3526-0.3 0.13927-0.17761-0.41333z" fill="#666" stroke-width=".15"/>
  <path d="m28.225 13.189-0.36302-0.65232 0.22007-0.20438 0.67881-0.32888 0.45004 0.76992" fill="none" stroke-width=".1"/>
 </g>
 <g>
  <path d="m12.106 56.586 0.77124 0.59948 35.633-43.377-0.83985-0.68653z" fill="#81583e" stroke="#000" stroke-linecap="round" stroke-linejoin="round" stroke-width=".25"/>
  <path d="m47.67 13.122 0.83985 0.68653 1.696-2.1819 0.80202-1.2489 1.3141-0.10792 2.6403-5.3724-4.7207 3.8469 0.27955 1.1042-1.0632 1.1668z" fill="#4d4d4d" fill-opacity=".76863" stroke="#000" stroke-linecap="round" stroke-linejoin="round" stroke-width=".25"/>
  <path d="m50.694 10.249c0.17285-0.2129 0.82632-0.65248 0.97032-0.83141 0.51228-0.63655 1.1342-1.4892 1.6552-2.2363 0.66897-0.95942 1.0872-1.6002 1.5004-2.1057-0.34104 0.4172-0.9754 1.101-1.7141 1.9378-0.56133 0.63587-1.3302 1.5263-1.8027 2.1135-0.14374 0.17861-0.4362 0.90924-0.60905 1.1221z"/>
 </g>
 <g transform="matrix(.67581 .18245 -.18245 .67581 22.835 -.54746)" stroke="#000" stroke-linecap="round" stroke-linejoin="round">
  <path d="m39.829 57.067c0.45628 0.2658 0.94969 0.42019 1.6586-0.07191l0.61428-28.249h-1.4915z" fill="#502d16" stroke-width=".25"/>
  <path d="m40.61 28.746-3.2203-0.54237 3.322-0.94915 0.77966-6.1356 0.44068 6.2034c1.5709 0.51935 1.9265-2.49 1.1186-2.6441 0.65284-0.41808 0.15187-0.83616 0.0678-1.2542 2.6682 2.8073 2.8302 7.0471-0.91525 9.2881 0.10986-0.3302 0.47405-0.58772 0-1.0847 0.3935-0.214 1.6556-2.3242-0.1017-2.8814l-0.36757 0.01715-0.71718 28.288c-0.26624 0.13773-0.49502 0.46278-0.88136 0l0.88326-28.272z" fill="#666" stroke-width=".25"/>
  <path d="m40.61 28.746 0.10169-1.4915 1.2203 0.0678 0.16949 1.4237" fill="none" stroke-width=".15"/>
 </g>
 <g transform="matrix(.68958 .12034 -.12034 .68958 -16.386 10.451)">
  <g stroke="#000" stroke-linecap="round" stroke-linejoin="round" stroke-width=".21429">
   <path d="m53.019 10.163 17.135 40.706 1.0286 1.1856-0.15786-1.6775-16.796-40.604z" fill="#808080"/>
   <path d="m53.019 10.163s-2.2513-4.8711-3.8535-8.2257c-0.73006-1.5286-1.5397-4.6995-1.5397-4.6995-0.2479-1.3229 0.0947-1.0896 0.72213-0.22513 0 0 1.9028 2.8537 2.5412 4.4327 1.3758 3.403 3.3397 8.3274 3.3397 8.3274z" fill="#502d16"/>
   <path d="m47.06 12.15c-0.02808 0.4909 0.14251 0.85779 0.58535 1.0547l0.19836-0.4158 11.597-4.8426 0.50842-0.025358c0.21101-0.49517-0.093109-0.77687-0.46423-1.0308l-0.1482 0.35794-11.728 4.9715z" fill="#333"/>
   <path d="m47.626-2.7625s-1.1737-0.60553-1.4147-1.2671c-0.24576-0.67484 1.8182-1.7626 2.138-0.92305 0.2443 0.64131 6e-3 1.3099-0.0012 1.965z" fill="#333"/>
  </g>
  <path d="m53.61 9.944c0.35192 0.84511 1.2775 3.4347 1.6294 4.2798 3.0697 7.3717 12.409 29.432 15.479 36.804-3.0697-7.3717-12.149-29.541-15.218-36.913-0.35192-0.84511-1.5379-3.3262-1.8898-4.1713z"/>
 </g>
 <g transform="rotate(113.41 34.907 45.259)">
  <g stroke="#000" stroke-linecap="round" stroke-linejoin="round" stroke-width=".15">
   <path d="m37.186 43.627 2.5085-2.2712 0.32203 0.33898-2.3729 2.4746z" fill="#784421"/>
   <path d="m37.186 43.627c-2.1694 2.2577-4.9176 4.7384-6.3051 6.6949 2.0483-1.255 4.716-4.0951 6.7627-6.1525z" fill="#ccc"/>
   <path d="m35.949 42.898 0.35593-0.27119 2.3898 2.4237-0.27119 0.25424z" fill="#666"/>
   <ellipse cx="40.11" cy="41.297" rx=".60169" ry=".58475" fill="#999"/>
  </g>
  <path d="m37.203 44.102c-0.1676 0.16472-0.71338 0.61512-0.88098 0.77984-1.0155 0.998-4.0188 4.0357-5.0343 5.0337 1.0155-0.998 4.1048-3.9482 5.1203-4.9462 0.1676-0.16472 0.6274-0.70261 0.795-0.86733z"/>
 </g>
</svg>
