<svg xmlns="http://www.w3.org/2000/svg" viewBox="0 0 64 64">
    <g stroke="#000">
        <path fill="#483737" fill-rule="evenodd" d="M40.685 52.284S55.531 38.42 54.154 28.176c-1.02-7.594-7.488-12.082-15.08-11.046-7.735 1.057-14.127 9.505-19.05 7.615-5.342-2.051.513-21.59.513-21.59S13.78 23.448 18.92 26.57c4.623 2.808 13.328-7.069 20.495-7.543 6.296-.417 11.974 2.13 12.75 9.825.997 9.894-12.987 22.926-12.987 22.926z"/>
        <path fill="#6c5353" fill-rule="evenodd" d="M30.288 57.787c-1.646 1.247 2.484 3.866 3.847 3.236l9.425-9.778-3.397-2.465z"/>
        <path fill="none" stroke-width="1.067" d="M39.223 49.88c.162.281 2.914 2.69 2.914 2.69"/>
    </g>
</svg>
