<svg version="1.1" viewBox="0 0 64 64" xmlns="http://www.w3.org/2000/svg">
 <g transform="matrix(.81 0 0 .81 7.4495 6.7169)" fill-rule="evenodd">
  <path d="m14.833 47.8c-4.085-5.907 4.697-8.77 8.01-4.15-1.015-5.43 7.17-8.128 8.794-1.124 1.247 5.373-4.804 7.195-3.538 15.37-4.553-7.072-10.085-5.496-13.266-10.096z" fill="#ff8080" stroke="#000" stroke-width=".902"/>
  <path d="m30.179 44.21c-0.403-3.596-2.532-4.432-5.798-3.258 2.828-2.488 6.877-1.57 5.798 3.257z" fill="#fff" fill-opacity=".785"/>
  <path d="m34.486 28.263c0.68-9.333 12.263-5.086 11.854 2.31 3.492-6.347 14.314-2.42 10.14 6.026-3.2 6.479-11.056 3.399-16.586 12.743 1.169-10.901-5.938-13.808-5.408-21.079z" fill="#ff8080" stroke="#000" stroke-width=".902"/>
  <path d="m53.545 37.121c2.592-3.983 1.067-6.569-3.333-8.038 5.043-0.224 8.508 4.01 3.333 8.038z" fill="#fff" fill-opacity=".785"/>
  <path d="m8.844 21.251c-6.857-8.088 5.848-13.875 11.388-7.57-2.222-7.911 9.616-13.35 12.954-3.2 2.56 7.788-6.215 11.55-3.257 23.509-7.708-9.745-15.742-6.438-21.085-12.739z" fill="#ff8080" stroke="#000" stroke-width=".902"/>
  <path d="m31.234 13.241c-1.071-5.285-4.352-6.16-9.064-3.846 3.886-4.196 10.039-3.53 9.064 3.846z" fill="#fff" fill-opacity=".785"/>
 </g>
 <path d="m12.855 16.223 34.334 37.453 5.6068-5.5253-34.591-37.414z" fill="#ff8080" fill-rule="evenodd" stroke="#000" stroke-width=".9669"/>
 <path d="m13.056 13.228a27 27.055 84.26 0 0-7.5139 21.51 27 27.055 84.26 0 0 29.62 24.162 27 27.055 84.26 0 0 24.22-29.574 27 27.055 84.26 0 0-29.62-24.159 27 27.055 84.26 0 0-16.706 8.0612zm4.1303 3.1111a21.882 21.926 84.26 0 1 13.087-6.0787 21.882 21.926 84.26 0 1 24.002 19.579 21.882 21.926 84.26 0 1-19.624 23.968 21.882 21.926 84.26 0 1-24.007-19.581 21.882 21.926 84.26 0 1 6.5433-17.886z" fill="#ff0e5f" stroke="#000" stroke-linejoin="round" stroke-width=".94136"/>
 <path d="m14.032 16.823 32.63 35.577 4.9474-4.8509-32.868-35.545z" fill="#ff0e5f" fill-rule="evenodd" stroke-width="2.1436"/>
</svg>
