<svg version="1.1" viewBox="0 0 64 64" xmlns="http://www.w3.org/2000/svg">
 <g fill-rule="evenodd" stroke="#000">
  <path d="m28.323 31.551-0.05747 8.4168-8.2843-0.04188-0.07806 6.6781 8.3153 0.02898-0.0012 8.3913 7.4328 0.01975 0.05712-8.4392 8.0317 0.03596-0.03057-6.5414-7.9864-0.0712 0.02687-8.5042z" fill="#ff8080" stroke-width=".55826"/>
  <g stroke-width=".53144">
   <path d="m23.347 32.89 8.5256-6.819 9.0944 7.1147-0.01053-4.8596-9.1395-6.951-8.4416 6.7353z" fill="#ffd5d5"/>
   <path d="m23.38 25.811 8.5256-6.819 9.0944 7.1147-0.01053-4.8596-9.1395-6.951-8.4416 6.7353z" fill="#faa"/>
   <path d="m23.347 18.564 8.5256-6.819 9.0944 7.1147-0.01053-4.8596-9.1395-6.951-8.4416 6.7353z" fill="#ff8080"/>
  </g>
 </g>
</svg>
