<svg version="1.1" viewBox="0 0 64 64" xmlns="http://www.w3.org/2000/svg">
 <path d="m24.703 36.003 0.0339 14.19 14.765-1e-6 -1e-6 -14.166z" fill="#fff" stroke="#000" stroke-linecap="round" stroke-width=".5"/>
 <g fill-rule="evenodd" stroke="#000">
  <path d="m28.323 31.551-0.05747 8.4168-8.2843-0.04188-0.07806 6.6781 8.3153 0.02898-0.0012 8.3913 7.4328 0.01975 0.05712-8.4392 8.0317 0.03596-0.03057-6.5414-7.9864-0.0712 0.02687-8.5042z" fill="#ff8080" stroke-width=".55826"/>
  <g stroke-width=".53144">
   <path d="m23.347 32.89 8.5256-6.819 9.0944 7.1147-0.01053-4.8596-9.1395-6.951-8.4416 6.7353z" fill="#ffe680"/>
   <path d="m23.38 25.811 8.5256-6.819 9.0944 7.1147-0.01053-4.8596-9.1395-6.951-8.4416 6.7353z" fill="#fd5"/>
   <path d="m23.347 18.564 8.5256-6.819 9.0944 7.1147-0.01053-4.8596-9.1395-6.951-8.4416 6.7353z" fill="#fc0"/>
  </g>
  <path d="m29.755 36.355-0.03394 4.97-4.8918-0.02473-0.0461 3.9433 4.9101 0.01711-7.22e-4 4.955 4.389 0.01166 0.03373-4.9833 4.7426 0.02123-0.01805-3.8626-4.7159-0.04204 0.01586-5.0217z" fill="#f55" stroke-width=".32965"/>
 </g>
</svg>
