<svg version="1.1" viewBox="0 0 64 64" xmlns="http://www.w3.org/2000/svg">
 <g transform="matrix(.43047 0 0 .43047 18.213 5.9422)" fill-rule="evenodd">
  <path d="m31.458 62.664c-13.241-12.594-23.105-28.95-22.947-49.428 3.163-0.046 14.503-5.503 22.866-11.77 8.871 6.118 19.568 11.242 22.56 11.5 0.04 20.618-9.254 36.175-22.479 49.698z" fill="#ff8080" stroke="#000"/>
  <path d="m32.313 2.994c9.602 5.584 11.366 7.71 20.845 10.79-9.267-0.967-14.264-3.883-20.845-10.79z" fill="#fff" fill-opacity=".785"/>
  <path d="m8.73 13.492c3.704-0.949 16.199-7.336 22.592-11.806-0.053 10.752 0.585 40.817 0.208 61.302-20.574-21.586-22.855-38.952-22.8-49.496z" fill-opacity=".15"/>
 </g>
 <g fill-rule="evenodd" stroke="#000" stroke-width=".53144">
  <path d="m40.293 29.145-8.5256 6.819-9.0944-7.1147 0.01053 4.8596 9.1395 6.951 8.4416-6.7353z" fill="#e5d5ff"/>
  <path d="m40.26 36.224-8.5256 6.819-9.0944-7.1147 0.01053 4.8596 9.1395 6.951 8.4416-6.7353z" fill="#b380ff"/>
  <path d="m40.293 43.472-8.5256 6.819-9.0944-7.1147 0.01053 4.8596 9.1395 6.951 8.4416-6.7353z" fill="#7f2aff"/>
 </g>
</svg>
