<svg version="1.1" viewBox="0 0 64 64" xmlns="http://www.w3.org/2000/svg">
 <g fill-rule="evenodd" stroke="#000" stroke-width=".42515">
  <path d="m34.919 30.389 6.8205-5.4552 7.2755 5.6918-0.0084-3.8877-7.3116-5.5608-6.7533 5.3882z" fill="#ffd5d5"/>
  <path d="m34.946 24.726 6.8205-5.4552 7.2755 5.6918-0.0084-3.8877-7.3116-5.5608-6.7533 5.3882z" fill="#ff8080"/>
  <path d="m34.919 18.928 6.8205-5.4552 7.2755 5.6918-0.0084-3.8877-7.3116-5.5608-6.7533 5.3882z" fill="#ff2a2a"/>
 </g>
 <g transform="matrix(.64 0 0 .64 8.7734 -616.53)">
  <path d="m31.195 999.05 16.102 41.487-37.158-25.092 43.032-0.536-34.938 25.585z" fill="#ff8080" fill-rule="evenodd" stroke="#000"/>
  <ellipse cx="32.173" cy="1021" rx="9.315" ry="8.784" fill="#ff8080" stroke="#000" stroke-linecap="round" stroke-linejoin="round"/>
  <path d="m32.688 1013.4c3.29 0.416 6.39 1.393 7.875 7.063-4.547-6.216-5.133-5.118-7.875-7.063z" fill="#f9f9f9" fill-rule="evenodd"/>
  <path d="m36.15 1028.8c-10.028 2.535-13.666-4.282-12.713-10.08 2.79 4.87 5.408 9.725 12.714 10.08z" fill="#4d4d4d" fill-opacity=".449" fill-rule="evenodd"/>
 </g>
</svg>
