<svg xmlns="http://www.w3.org/2000/svg" xmlns:xlink="http://www.w3.org/1999/xlink" viewBox="0 0 256 256">
    <defs>
        <linearGradient id="innoGrad5">
            <stop offset="0" stop-color="#ff2a2a" stop-opacity="0"/>
            <stop offset="1" stop-color="#ff2a2a" stop-opacity=".502"/>
        </linearGradient>
        <linearGradient id="innoGrad4">
            <stop offset="0" stop-color="#ffd42a" stop-opacity=".502"/>
            <stop offset="1" stop-color="#ffd42a" stop-opacity="0"/>
        </linearGradient>
        <linearGradient id="innoGrad3">
            <stop offset="0" stop-color="#ff7f2a" stop-opacity=".502"/>
            <stop offset="1" stop-color="#ff7f2a" stop-opacity="0"/>
        </linearGradient>
        <linearGradient id="innoGrad2">
            <stop offset="0" stop-color="#ff2a2a" stop-opacity="0"/>
            <stop offset=".296" stop-color="#ff2a2a" stop-opacity=".502"/>
            <stop offset=".616" stop-color="#ff2a2a" stop-opacity=".502"/>
            <stop offset="1" stop-color="#ff2a2a" stop-opacity="0"/>
        </linearGradient>
        <linearGradient id="innoGrad1">
            <stop offset="0" stop-color="#ff2a2a" stop-opacity=".502"/>
            <stop offset="1" stop-color="#ff2a2a" stop-opacity="0"/>
        </linearGradient>
        <linearGradient id="linearGradient888" x1="101.076" x2="101.076" y1="63.301" y2="40.25" gradientUnits="userSpaceOnUse" xlink:href="#innoGrad1"/>
        <linearGradient id="linearGradient917" x1="87.111" x2="102.429" y1="69.333" y2="163.781" gradientUnits="userSpaceOnUse" xlink:href="#innoGrad2"/>
        <linearGradient id="linearGradient950" x1="100.25" x2="109.661" y1="143.75" y2="177.637" gradientUnits="userSpaceOnUse" xlink:href="#innoGrad3"/>
        <linearGradient id="linearGradient973" x1="103.781" x2="121.219" y1="150.165" y2="220.131" gradientUnits="userSpaceOnUse" xlink:href="#innoGrad4"/>
        <linearGradient id="linearGradient996" x1="92.342" x2="152.944" y1="64.644" y2="64.644" gradientUnits="userSpaceOnUse" xlink:href="#innoGrad5"/>
        <linearGradient id="linearGradient1027" x1="154.365" x2="171.917" y1="91.149" y2="77.048" gradientUnits="userSpaceOnUse" xlink:href="#innoGrad5"/>
        <linearGradient id="linearGradient1050" x1="155" x2="137" y1="55.25" y2="75.5" gradientUnits="userSpaceOnUse" xlink:href="#innoGrad5"/>
    </defs>
    <g stroke-width=".756" transform="matrix(1.3243 0 0 1.32258 -42.606 -46.096)">
        <path fill="#f55" d="M101.603 54.485S112.155 40.116 128 40.667c19.167.667 27 14.583 27 14.583s-2.556 32.917-40.167 30.583c-8.324-.516-13.23-31.348-13.23-31.348z"/>
        <path fill="url(#linearGradient888)" stroke="#231f20" stroke-miterlimit="10" d="M101.603 54.485S112.155 40.116 128 40.667c19.167.667 27 14.583 27 14.583s-2.556 32.917-40.167 30.583c-8.324-.516-13.23-31.348-13.23-31.348z"/>
        <path fill="#ff8080" stroke="#231f20" stroke-miterlimit="10" d="M100.25 143.75c4 19.25 1.75 21.516 4.25 31.133.976 3.754 4.64 10.791 7.25 19.367 4.076 13.394 9.53 28.704 28.25 25.5 27.75-4.75 19.25-40 17.25-56.75-.233-1.958-1.651-4.451-2.25-7.329-1.562-7.509-3.216-17.633-5.833-27.671C144.204 108.97 138 90.25 138 90.25l-32.5-20S85.25 64 87.25 98.5c.512 8.824 9 26 13 45.25z"/>
        <path fill="url(#linearGradient917)" d="M100.25 143.75c4 19.25 1.75 21.516 4.25 31.133.976 3.754 4.64 10.791 7.25 19.367 4.076 13.394 9.53 28.704 28.25 25.5 27.75-4.75 19.25-40 17.25-56.75-.233-1.958-1.651-4.451-2.25-7.329-1.562-7.509-3.216-17.633-5.833-27.671C144.204 108.97 138 90.25 138 90.25l-32.5-20S85.25 64 87.25 98.5c.512 8.824 9 26 13 45.25z"/>
        <path fill="#ffb380" d="M100.671 145.833s1.974-8.54 3.651-8.999c1.677-.459 3.385 9.207 4.844 8.999 1.459-.208.75-10.206 2.667-10.332 1.917-.126 6.208 10.79 7.5 10.332 1.292-.458 1.861-10.915 3.389-10.999 1.528-.084 3.037 10.404 4.22 10.16 1.183-.244 4.384-9.951 5.346-10.16.962-.209 3.337 10.154 4.712 10.16 1.375.006 4.25-10.992 5.5-10.993 1.25-.001 5.416 10.987 6.333 10.993.917.006 2.194-9.589 2.194-9.589l7.176 33.524-53.062 8.411s-.875-1.451-1.422-6.025l-3.048-25.482z"/>
        <path fill="url(#linearGradient950)" d="M100.671 145.833s1.974-8.54 3.651-8.999c1.677-.459 3.385 9.207 4.844 8.999 1.459-.208.75-10.206 2.667-10.332 1.917-.126 6.208 10.79 7.5 10.332 1.292-.458 1.861-10.915 3.389-10.999 1.528-.084 3.037 10.404 4.22 10.16 1.183-.244 4.384-9.951 5.346-10.16.962-.209 3.337 10.154 4.712 10.16 1.375.006 4.25-10.992 5.5-10.993 1.25-.001 5.416 10.987 6.333 10.993.917.006 2.194-9.589 2.194-9.589l7.176 33.524-53.062 8.411s-.875-1.451-1.422-6.025l-3.048-25.482z"/>
        <path fill="#ffe680" d="M104.738 175.699c-1.239-5.776.595-12.198 1.595-12.698s2.833 11.834 4.333 11.167c1.5-.667 2.5-14.166 3.667-14.5 1.167-.334 6.777 12.666 8.389 12.333 1.612-.333-1.234-10.166.855-10.833 2.089-.667 5.09 10.999 6.923 10.666 1.833-.333 1.333-10.333 3.333-10.833s4.334 8.667 6.167 8.5c1.833-.167 1.333-8.667 3.833-8.667s3.834 8.5 5.334 8c1.5-.5.5-10.333 2-10.333s6.631 8.599 6.631 8.599 12.251 49.691-17.798 52.65c-21.167 2.084-24.269-14.24-28.823-27.308-3.296-9.454-5.199-10.966-6.439-16.743z"/>
        <path fill="url(#linearGradient973)" d="M104.738 175.699c-1.239-5.776.595-12.198 1.595-12.698s2.833 11.834 4.333 11.167c1.5-.667 2.5-14.166 3.667-14.5 1.167-.334 6.777 12.666 8.389 12.333 1.612-.333-1.234-10.166.855-10.833 2.089-.667 5.09 10.999 6.923 10.666 1.833-.333 1.333-10.333 3.333-10.833s4.334 8.667 6.167 8.5c1.833-.167 1.333-8.667 3.833-8.667s3.834 8.5 5.334 8c1.5-.5.5-10.333 2-10.333s6.631 8.599 6.631 8.599 12.251 49.691-17.798 52.65c-21.167 2.084-24.269-14.24-28.823-27.308-3.296-9.454-5.199-10.966-6.439-16.743z"/>
        <path fill="none" stroke="#231f20" stroke-miterlimit="10" d="M100.25 143.75c4 19.25 1.75 21.516 4.25 31.133.976 3.754 4.64 10.791 7.25 19.367 4.076 13.394 9.53 28.704 28.25 25.5 27.75-4.75 19.25-40 17.25-56.75-.233-1.958-1.651-4.451-2.25-7.329-1.562-7.509-3.216-17.633-5.833-27.671C144.204 108.97 138 90.25 138 90.25l-32.5-20S85.25 64 87.25 98.5c.512 8.824 9 26 13 45.25z"/>
        <path fill="#ff8080" d="M93 59.5L111.5 79s2.428 7.759 23.25 1.5 17.5-13.75 17.5-13.75-5.343-20.32-6.074-20.402c-.731-.082.447 1.396-10.426 4.152-5.859 1.485-21.466 1.262-31.25 3.25C96.13 55.451 93 59.5 93 59.5z"/>
        <path fill="url(#linearGradient996)" stroke="#231f20" stroke-miterlimit="10" d="M93 59.5L111.5 79s2.428 7.759 23.25 1.5 17.5-13.75 17.5-13.75-5.343-20.32-6.074-20.402c-.731-.082.447 1.396-10.426 4.152-5.859 1.485-21.466 1.262-31.25 3.25C96.13 55.451 93 59.5 93 59.5z"/>
        <path fill="#ff8080" d="M155 55.25c-1-.25 0 13.125-18 20.25-10.422 4.125-28.827 1.729-31.667 5.333-6.5 8.25-23.75 37.917-24.167 39.833-.417 1.916 1.5 6.166 3.583 7.333.999.559 10.632-2.624 20.75-2.333 10.996.316 18.333 4.333 22.5 4.083 4.167-.25 8.299-3.473 16.833-9.917 6.438-4.861 13.834-11.333 18.667-17.333 10.665-13.24 9.649-23.521 8.75-24.75-.301-.411-1.755.57-4.259-1.15-.739-.508-.879-2.211-1.658-3.6-.654-1.165-1.98-1.945-2.333-3.192-.876-3.092-.633-5.868-1.667-7.808-2.603-4.89-6.951-6.654-7.332-6.749z"/>
        <path fill="url(#linearGradient1027)" d="M155 55.25c-1-.25 0 13.125-18 20.25-10.422 4.125-28.827 1.729-31.667 5.333-6.5 8.25-23.75 37.917-24.167 39.833-.417 1.916 1.5 6.166 3.583 7.333.999.559 10.632-2.624 20.75-2.333 10.996.316 18.333 4.333 22.5 4.083 4.167-.25 8.299-3.473 16.833-9.917 6.438-4.861 13.834-11.333 18.667-17.333 10.665-13.24 9.649-23.521 8.75-24.75-.301-.411-1.755.57-4.259-1.15-.739-.508-.879-2.211-1.658-3.6-.654-1.165-1.98-1.945-2.333-3.192-.876-3.092-.633-5.868-1.667-7.808-2.603-4.89-6.951-6.654-7.332-6.749z"/>
        <path fill="#f55" d="M146.176 46.348S154.25 52 155 55.25c.318 1.379-1.088 6.656-4.743 10.756C143.5 73.583 137 75.5 137 75.5s13.727-9.242 13.451-15.645c-.091-2.11-5.025-12.882-4.275-13.507z"/>
        <path fill="url(#linearGradient1050)" stroke="#231f20" stroke-miterlimit="10" d="M146.176 46.348S154.25 52 155 55.25c-.593 1.667-1.52 6.464-4.743 10.756C143.5 73.583 137 75.5 137 75.5s13.727-9.242 13.451-15.645c-.091-2.11-5.025-12.882-4.275-13.507z"/>
        <path fill="#ffe680" d="M92.542 100.5s2.425 4.116 1.208 8.375c-.609 2.129-2.272 4.095-3.625 6.125-1.353 2.03-2.396 4.125-3.014 4.5-1.236.75-5.222-.428-5.222-.428zM106.496 125.707s-1.347-4.332-5.825-4.207c-2.717.076-7.333 1.234-9.546 2.875-1.434 1.064-2.135 3.074-2.135 3.074s4.909-1.068 9.801-1.527c4.892-.459 7.705-.215 7.705-.215z"/>
        <path fill="#231f20" d="M88.99 127.45c.661-.128 1.535-1.272 1.429-2.298-.106-1.026-2.76-5.026-3.308-5.651s-4.52-.606-5.222-.428c-.702.178-.718 1.861-.772 2.426-.054.565 1.833 5.027 2.89 5.952 1.057.925 4.323.127 4.983-.001zM91.822 111.612c.005.015-.077-.18-.148-.319a6.622 6.622 0 0 0-.208-.366 4.263 4.263 0 0 0-.288-.424 2.466 2.466 0 0 0-.828-.691c-.965-.455-2.76-.565-2.775-.653-.015-.088 1.87-.113 2.93.28.549.195.933.542 1.084.685a3.352 3.352 0 0 1 .663.863c.097.181.162.336.185.4a.328.328 90 0 1-.615.225zM90.677 114.025a1.808 1.808 0 0 0-.25-.67c-.016-.026-.365-.628-1.29-1.34a4.408 4.408 0 0 0-1.86-.845c-.416-.078-.845-.073-.844-.021 0 .04.392.091.789.229a4.448 4.448 0 0 1 1.622.98c.77.733.962 1.35.952 1.325.076.183.151.493.143.418a.37.37 90 0 0 .738-.076zM85.026 113.604c.009.036.416-.02.83-.025.657-.009 1.21.07 1.664.227.771.267 1.372.859 1.375.861l.308.28c.108.1.262.256.252.246a.356.356 90 0 0 .525-.482 4.16 4.16 0 0 0-.306-.292 3.5 3.5 0 0 0-.371-.282c.012.008-.788-.547-1.673-.735-.515-.109-1.135-.124-1.79-.022-.403.063-.824.182-.814.224zM98.533 122.395c.037.04.18.212.283.319-.014-.014.382.356.77.856.126.16.263.376.411.665.114.223.222.465.329.728.15.366.307.814.346.806.05-.01-.018-.484-.102-.881a8.73 8.73 0 0 0-.211-.8 5.299 5.299 0 0 0-.32-.802 20.208 20.208 0 0 0-.57-1.077 2.879 2.879 0 0 0-.304-.396.43.43 90 0 0-.632.582zM94.905 123.134c-.003-.005.19.285.323.448.027.033.368.425.695.903.175.254.348.598.55 1.07.118.278.244.6.279.592.04-.01-.009-.355-.07-.657a7.167 7.167 0 0 0-.355-1.22c-.188-.468-.507-1.135-.482-1.083a3.919 3.919 0 0 0-.299-.494.389.389 90 0 0-.64.44zM93.568 123.528c.11.202.092.203.226.44.033.059.133.226.21.402.047.104.104.253.131.401.02.102.02.263-.016.49a5.961 5.961 0 0 1-.129.593c-.08.305-.203.694-.17.709.04.019.242-.338.385-.63.099-.202.186-.403.252-.582.085-.228.139-.422.158-.58a2.348 2.348 0 0 0-.011-.557 4.137 4.137 0 0 0-.101-.53 2.669 2.669 0 0 0-.227-.542.403.403 90 0 0-.708.386z"/>
        <ellipse cx="101.603" cy="102.5" fill="#231f20" rx="3.415" ry="2.833"/>
        <ellipse cx="112.583" cy="120.156" fill="#231f20" rx="3.083" ry="2.822"/>
        <path fill="#ffe680" d="M112.583 97.333c2.051 0 5.024-6.025 7.75-10.167 1.815-2.758 6.583-4.445 6.608-4.788.063-.858-16.275-7.379-19.442.561-2.531 6.349 1.667 14.394 5.084 14.394z"/>
        <path fill="#ffb380" d="M114.833 79.051c-.096 1.178 7.422 2.166 7.889 3.833.467 1.667-2.783.595-4.556 3.563-1.773 2.968-2.476 7.405-1.988 7.396.488-.009 2.213-4.005 4.155-6.675 2.018-2.776 6.611-3.72 6.608-4.788-.005-2.391-10.345-3.579-12.108-3.329z"/>
        <path fill="#ffe680" d="M121.667 113.457s-.342-4.047 3.833-4.328c2.193-.147 8.056 2.989 13 3.723 4.472.663 6.334-2.134 8.167-1.076.827.478-.167 3.802-2 6.392-2.227 3.147-5.477 5.608-5.477 5.608s-6.985 2.477-8.357 1.993c-2.833-.998-9.166-12.312-9.166-12.312z"/>
        <path fill="#ffb380" d="M122.722 115c.528-.333-.734-3.343 2.944-3.225 1.823.059 7.287 2.822 11.667 3.225 4.458.41 7.013-2.15 7.817-1.543.217.164-3.351 3.926-4.983 6.699-1.17 1.988-.54 3.271-.54 3.271s3.651-2.624 6.072-6.957c2.076-4.23.968-4.695.968-4.695-.333-1.323-3.978 1.641-8.167 1.076-5.12-.69-10.63-5.537-14.923-3.208-3.364 2.075-1.383 5.69-.855 5.357z"/>
        <path fill="#ff2a2a" fill-opacity=".502" d="M126.942 90.333c-.114.216 3.872 1.936 7.528 2.658 2.556.505 5.17.672 7.747.431a23.15 23.15 0 0 0 8.858-2.652 24.731 24.731 0 0 0 7.204-5.838 28.157 28.157 0 0 0 5.571-10.535c.478-1.696.708-3.132.764-3.711a.835.835 90 0 0-1.662-.16c.005-.054-.32 2.027-.704 3.426a33.167 33.167 0 0 1-1.292 3.78c-.418 1.016-1.545 3.677-3.676 6.384a23.042 23.042 0 0 1-6.689 5.78 22.451 22.451 0 0 1-8.453 2.8c-2.496.312-5.049.233-7.584-.174-3.853-.617-7.57-2.267-7.612-2.189z"/>
        <path fill="#ff2a2a" fill-opacity=".502" d="M150.667 103.333c-.058-.062 1.664-1.782 3.36-3.614a94.83 94.83 0 0 0 2.978-3.354c1.08-1.284 1.969-2.44 2.64-3.444.786-1.177 1.596-2.597 2.276-3.854a110.965 110.965 0 0 0 2.176-4.26c.814-1.677 3.09-6.666 2.24-4.864a.916.916 78.42 0 1 1.515 1c.327-.369-1.958 2.137-5.453 5.683-1.241 1.26-2.94 2.956-4.551 4.45a55.474 55.474 0 0 1-2.086 1.853c-.61.51-1.21.976-1.73 1.314-.923.598-2.215 1.223-3.804 1.863a65.541 65.541 0 0 1-4.503 1.6c-2.5.795-5.366 1.555-5.392 1.46-.023-.082 2.68-.941 5.236-1.907a64.201 64.201 0 0 0 4.372-1.816c1.539-.718 2.727-1.39 3.528-2.002.45-.344.988-.814 1.558-1.345a65.677 65.677 0 0 0 1.956-1.912 162.666 162.666 0 0 0 4.324-4.592c2.063-2.267 6.76-7.649 5.175-5.868l1.514 1c.12-.255-.816 1.632-2.565 4.777a116.729 116.729 0 0 1-2.433 4.187c-.754 1.23-1.667 2.644-2.557 3.803-.761.992-1.74 2.123-2.897 3.354a89.173 89.173 0 0 1-3.179 3.205c-1.739 1.67-3.635 3.351-3.698 3.283z"/>
        <path fill="none" stroke="#231f20" stroke-linejoin="round" stroke-miterlimit="10" d="M155 55.25c-.204.511-1.484 13.27-18 20.25-10.422 4.125-28.827 1.729-31.667 5.333-6.5 8.25-23.75 37.917-24.167 39.833-.417 1.916 1.5 6.166 3.583 7.333.999.559 10.632-2.624 20.75-2.333 10.996.316 18.333 4.333 22.5 4.083 4.167-.25 8.299-3.473 16.833-9.917 6.438-4.861 13.834-11.333 18.667-17.333 10.665-13.24 9.649-23.521 8.75-24.75-.301-.411-1.755.57-4.259-1.15-.739-.508-.879-2.211-1.658-3.6-.654-1.165-1.98-1.945-2.333-3.192-.876-3.092-.633-5.868-1.667-7.808-2.603-4.89-6.951-6.654-7.332-6.749z"/>
    </g>
</svg>
