<svg xmlns="http://www.w3.org/2000/svg" viewBox="0 0 64 64">
    <path fill-rule="evenodd" stroke="#848484" d="M16.147 28.698C13.525 24.135 8 26.105 8.28 19.202c.262-6.436 9.75-13.12 10.972-4.933.723 4.843-.1 13.276 3.57 11.654 3.333-1.474 2.47-4.752 5.287-5.056 1.842-.2 5.736 1.003 4.23 4.563-.977 2.31-8.996 2.625-7.072 4.131 1.56 1.532 3.86 1.23 8.923.494 10.8-1.568 4.175 16.146-1.322 12.455-3.41-2.288-5.02-6.853-9.452-7.77-4.183-.318 1.052 6.16.99 8.45-.115 4.405-8.6 3.203-8.723 1.047-.13-2.275 4.909-9.004 1.784-9.188-5.133-.287-2.943 3.524-6.675 3.947-2.898.328-8.748-6.544-4.23-9.25 4.592-2.75 11.32 1.925 9.583-1.048z"/>
    <path fill-rule="evenodd" stroke="#848484" d="M37.276 19.412c-1.082-.796-1.787-12.89 1.094-15.956 1.55-1.652 4.768.847 4.969 2.569.635 5.436-5.188 14.03-6.063 13.387zm-7.944 24.795c1.03.172 4.395 7.182 2.858 9.813-.827 1.414-3.924.822-4.483-.148-1.762-3.063.79-9.805 1.624-9.666zm14.727-6.24c.418-.682 8.536.383 10.934 2.876 1.29 1.343-.047 3.356-1.19 3.278-3.615-.249-10.083-5.602-9.744-6.154zM28.655 9.7c3.67.158 4.49 5.06-.192 4.884-3.396-.127-3.247-5.03.192-4.884z"/>
</svg>
