<svg xmlns="http://www.w3.org/2000/svg" viewBox="0 0 64 64">
    <g transform="translate(0 -988.362)">
        <path fill="#808080" fill-rule="evenodd" stroke="#000" stroke-width=".596" d="M49.974 1030.595l.005-1.362-30.89-.053-.035 1.336z"/>
        <g fill-rule="evenodd" stroke-width=".856">
            <path fill="#f0c" stroke="#000" d="M7.862 1015.051c-.024-14.737 19.915-15.62 24.403-6.885 3.668-8.902 24.456-9.123 24.398 7.059-.041 11.62-12.317 22.903-24.45 36.117-12.07-12.803-24.331-24.22-24.35-36.29z" transform="matrix(.29027 -.05863 .06637 .28051 -68.751 710.885)"/>
            <path fill="#fff" d="M10.144 990.217c.864-.515 2.036-.49 3.08.094a4.034 4.034 0 0 1 1.396 2.647c-.33-1.047-1.02-1.768-1.761-2.147-.742-.626-1.763-.92-2.715-.594z"/>
        </g>
        <g fill-rule="evenodd" stroke-width="1.174">
            <path fill="#f0c" stroke="#000" d="M7.862 1015.051c-.024-14.737 19.915-15.62 24.403-6.885 3.668-8.902 24.456-9.123 24.398 7.059-.041 11.62-12.317 22.903-24.45 36.117-12.07-12.803-24.331-24.22-24.35-36.29z" transform="matrix(.19787 .08633 -.07763 .19528 130.359 842.633)"/>
            <path fill="#fff" d="M60.701 1042.438c.732.054 1.421.559 1.8 1.344a2.94 2.94 0 0 1-.272 2.165c.24-.764.13-1.483-.154-2.019-.182-.684-.668-1.287-1.374-1.49z"/>
        </g>
        <g fill-rule="evenodd" stroke-width="1.611">
            <path fill="#f0c" stroke="#000" d="M7.862 1015.051c-.024-14.737 19.915-15.62 24.403-6.885 3.668-8.902 24.456-9.123 24.398 7.059-.041 11.62-12.317 22.903-24.45 36.117-12.07-12.803-24.331-24.22-24.35-36.29z" transform="matrix(.1198 -.10206 .10314 .11327 -61.847 934.545)"/>
            <path fill="#fff" d="M46.807 1044.04c.27-.462.82-.753 1.456-.75.517.102.996.4 1.331.87a1.908 1.908 0 0 0-1.372-.544c-.506-.1-1.056.027-1.415.424z"/>
        </g>
        <g fill-rule="evenodd" stroke-width="1.174">
            <path fill="#f0c" stroke="#000" d="M7.862 1015.051c-.024-14.737 19.915-15.62 24.403-6.885 3.668-8.902 24.456-9.123 24.398 7.059-.041 11.62-12.317 22.903-24.45 36.117-12.07-12.803-24.331-24.22-24.35-36.29z" transform="matrix(.19787 .08633 -.07763 .19528 79.34 807.228)"/>
            <path fill="#fff" d="M9.682 1007.033c.731.054 1.42.559 1.8 1.345a2.94 2.94 0 0 1-.273 2.164c.24-.764.13-1.482-.154-2.019-.181-.684-.668-1.287-1.373-1.49z"/>
        </g>
        <g fill-rule="evenodd" stroke-width="1.611">
            <path fill="#f0c" stroke="#000" d="M7.862 1015.051c-.024-14.737 19.915-15.62 24.403-6.885 3.668-8.902 24.456-9.123 24.398 7.059-.041 11.62-12.317 22.903-24.45 36.117-12.07-12.803-24.331-24.22-24.35-36.29z" transform="matrix(.14636 .05786 -.05158 .14425 69.504 843.506)"/>
            <path fill="#fff" d="M23.846 990.85c.535.02 1.05.37 1.346.933a2.144 2.144 0 0 1-.143 1.584 1.908 1.908 0 0 0-.164-1.467c-.15-.494-.52-.92-1.039-1.05z"/>
        </g>
        <g fill-rule="evenodd" stroke-width="1.988">
            <path fill="#f0c" stroke="#000" d="M7.862 1015.051c-.024-14.737 19.915-15.62 24.403-6.885 3.668-8.902 24.456-9.123 24.398 7.059-.041 11.62-12.317 22.903-24.45 36.117-12.07-12.803-24.331-24.22-24.35-36.29z" transform="matrix(.11671 -.05127 .05363 .1119 1.175 922.058)"/>
            <path fill="#fff" d="M59.961 1032.313c.317-.296.812-.393 1.305-.243.376.2.68.542.83.985a1.546 1.546 0 0 0-.938-.741c-.37-.196-.826-.226-1.197-.001z"/>
        </g>
        <path fill="#808080" fill-rule="evenodd" stroke="#000" stroke-width=".596" d="M51.294 1021.209l-16.281-.078-.258-14.78 4.658-.01.004-1.361-10.89.01-.035 1.335 4.815.025.136 14.792h-15.6l.05 4.022 1.5.016-.046-2.74 30.536.098.045 2.914 1.385-.01z"/>
        <path fill="#f06" fill-rule="evenodd" stroke="#000" stroke-width=".75" d="M28.146 1027.94c-.056-3.563 4.893-3.682 6.037-1.549.881-2.135 6.043-2.09 6.084 1.822.029 2.81-2.982 5.48-5.95 8.617-3.042-3.152-6.126-5.97-6.171-8.89z"/>
        <ellipse cx="18.521" cy="1029.554" fill="#ffd5f6" stroke="#000" stroke-linecap="round" stroke-linejoin="round" stroke-width=".803" rx="4.726" ry="4.536"/>
        <path fill="none" stroke="#000" stroke-width="1.895" d="M18.453 1033.809l.015 4.555"/>
        <path fill="none" stroke="#000" stroke-width="2" d="M15.71 1035.782h5.625"/>
        <path fill="none" stroke="#ffd5f6" stroke-width=".766" d="M18.487 1032.524l.016 5.315"/>
        <path fill="none" stroke="#ffd5f6" stroke-width=".735" d="M16.242 1035.783l4.632-.024"/>
        <ellipse cx="45.5" cy="1005.721" fill="#ff80e5" stroke="#000" stroke-linecap="round" stroke-linejoin="round" rx="6.29" ry="6.038"/>
        <path fill="none" stroke="#000" stroke-width="2.522" d="M45.409 1011.383l.02 6.063"/>
        <path fill="none" stroke="#000" stroke-width="2.662" d="M41.758 1014.01h7.487"/>
        <path fill="none" stroke="#ff80e5" stroke-width="1.019" d="M45.455 1009.674l.02 7.073"/>
        <path fill="none" stroke="#ff80e5" stroke-width=".978" d="M42.467 1014.011l6.164-.032"/>
        <path fill="none" stroke="#000" stroke-width="1.8" d="M52.515 1023.553l4.493-.015-.004 4.886"/>
        <ellipse cx="50.613" cy="1029.806" fill="#d5e5ff" stroke="#000" stroke-linecap="round" stroke-linejoin="round" stroke-width=".845" rx="4.974" ry="4.775"/>
        <path fill="none" stroke="#000" stroke-width="1.895" d="M54.147 1026.34l2.518-2.443"/>
        <path fill="none" stroke="#d5e5ff" stroke-width=".766" d="M53.192 1027.198l3.842-3.672"/>
        <path fill="none" stroke="#d5e5ff" stroke-width=".669" d="M53.05 1023.567l3.921-.021-.013 4.34"/>
        <path fill="none" stroke="#000" stroke-width="2.266" d="M24.842 997.412l5.657-.02-.006 6.152"/>
        <ellipse cx="22.448" cy="1005.285" fill="#80b3ff" stroke="#000" stroke-linecap="round" stroke-linejoin="round" rx="6.262" ry="6.011"/>
        <path fill="none" stroke="#000" stroke-width="2.385" d="M26.897 1000.92l3.17-3.075"/>
        <path fill="none" stroke="#80b3ff" stroke-width=".964" d="M25.695 1002.001l4.836-4.622"/>
        <path fill="none" stroke="#80b3ff" stroke-width=".842" d="M25.514 997.43l4.938-.027-.016 5.464"/>
    </g>
</svg>
