<svg xmlns="http://www.w3.org/2000/svg" viewBox="0 0 64 64">
    <g fill-rule="evenodd">
        <g stroke-width=".856">
            <path fill="#f0c" stroke="#000" d="M7.862 1015.051c-.024-14.737 19.915-15.62 24.403-6.885 3.668-8.902 24.456-9.123 24.398 7.059-.041 11.62-12.317 22.903-24.45 36.117-12.07-12.803-24.331-24.22-24.35-36.29z" transform="matrix(.29027 -.05863 .06637 .28051 -68.751 -277.477)"/>
            <path fill="#fff" d="M10.144 1.855c.864-.515 2.036-.49 3.08.094a4.034 4.034 0 0 1 1.396 2.647c-.33-1.048-1.02-1.768-1.761-2.147-.742-.627-1.763-.92-2.715-.594z"/>
        </g>
        <g stroke-width="1.174">
            <path fill="#f0c" stroke="#000" d="M7.862 1015.051c-.024-14.737 19.915-15.62 24.403-6.885 3.668-8.902 24.456-9.123 24.398 7.059-.041 11.62-12.317 22.903-24.45 36.117-12.07-12.803-24.331-24.22-24.35-36.29z" transform="matrix(.19787 .08633 -.07763 .19528 130.359 -145.729)"/>
            <path fill="#fff" d="M60.701 54.076c.732.054 1.421.558 1.8 1.344a2.94 2.94 0 0 1-.272 2.165c.24-.765.13-1.483-.154-2.02-.182-.684-.668-1.286-1.374-1.49z"/>
        </g>
        <g stroke-width="1.611">
            <path fill="#f0c" stroke="#000" d="M7.862 1015.051c-.024-14.737 19.915-15.62 24.403-6.885 3.668-8.902 24.456-9.123 24.398 7.059-.041 11.62-12.317 22.903-24.45 36.117-12.07-12.803-24.331-24.22-24.35-36.29z" transform="matrix(.1198 -.10206 .10314 .11327 -61.847 -53.817)"/>
            <path fill="#fff" d="M46.807 55.678c.27-.463.82-.753 1.456-.75.517.102.996.4 1.331.87a1.908 1.908 0 0 0-1.372-.544c-.506-.1-1.056.026-1.415.424z"/>
        </g>
        <g stroke-width="1.174">
            <path fill="#f0c" stroke="#000" d="M7.862 1015.051c-.024-14.737 19.915-15.62 24.403-6.885 3.668-8.902 24.456-9.123 24.398 7.059-.041 11.62-12.317 22.903-24.45 36.117-12.07-12.803-24.331-24.22-24.35-36.29z" transform="matrix(.19787 .08633 -.07763 .19528 79.34 -181.134)"/>
            <path fill="#fff" d="M9.682 18.671c.731.054 1.42.559 1.8 1.344a2.94 2.94 0 0 1-.273 2.165c.24-.764.13-1.482-.154-2.019-.181-.684-.668-1.287-1.373-1.49z"/>
        </g>
        <g stroke-width="1.611">
            <path fill="#f0c" stroke="#000" d="M7.862 1015.051c-.024-14.737 19.915-15.62 24.403-6.885 3.668-8.902 24.456-9.123 24.398 7.059-.041 11.62-12.317 22.903-24.45 36.117-12.07-12.803-24.331-24.22-24.35-36.29z" transform="matrix(.14636 .05786 -.05158 .14425 69.504 -144.856)"/>
            <path fill="#fff" d="M23.846 2.488c.535.02 1.05.37 1.346.933a2.144 2.144 0 0 1-.143 1.584 1.908 1.908 0 0 0-.164-1.467c-.15-.494-.52-.92-1.039-1.05z"/>
        </g>
        <g stroke-width="1.988">
            <path fill="#f0c" stroke="#000" d="M7.862 1015.051c-.024-14.737 19.915-15.62 24.403-6.885 3.668-8.902 24.456-9.123 24.398 7.059-.041 11.62-12.317 22.903-24.45 36.117-12.07-12.803-24.331-24.22-24.35-36.29z" transform="matrix(.11671 -.05127 .05363 .1119 1.175 -66.304)"/>
            <path fill="#fff" d="M59.961 43.95c.317-.295.812-.392 1.305-.242.376.2.68.542.83.985a1.546 1.546 0 0 0-.938-.741c-.37-.196-.826-.226-1.197-.002z"/>
        </g>
        <path d="M51.505 34.375l.256.395c-3.721 2.378-4.981 4.002-5.562 5.15-.308.608-.415 1.045-.616 1.54-.196.478-.449.902-.991 1.269-1.202.815-2.835.465-4.289.227-1.516-.248-2.99-.422-4.123.473-.568.45-.823.977-.976 1.558-.13.486-.23 1.31-.376 1.837-.348 1.256-1.188 2.402-4.317 3.09 3.128-.742 3.884-1.926 4.165-3.13.162-.695.144-1.149.299-1.852.135-.617.388-1.222 1.006-1.745 1.24-1.05 2.869-.892 4.39-.697 1.587.205 2.93.413 3.859-.275.391-.29.553-.602.692-1.005.135-.394.271-.98.57-1.63.623-1.356 1.979-3.123 5.757-5.6l.256.395z"/>
        <path d="M51.951 35.448c-3.997 2.508-5.057 4.177-5.517 5.31-.205.502-.365 1.157-.581 1.566-.269.507-.688.882-1.5 1.186-1.311.486-2.97.14-4.394-.07-.736-.109-1.432-.188-2.053-.139-.616.05-1.151.225-1.57.625-1.078 1.038-1 2.138-1.453 3.273-.442 1.105-1.365 2.066-4.375 2.712 3.01-.7 3.858-1.704 4.228-2.767.36-1.037.28-2.308 1.378-3.44.47-.488 1.079-.712 1.753-.793.669-.08 1.41-.02 2.152.062 1.53.171 2.99.418 4.105-.047.692-.285.944-.583 1.096-.917.205-.446.203-.766.48-1.532.498-1.374 1.669-3.203 5.746-5.824z"/>
        <path fill="#e3dedb" d="M51 35.599c-3.288 2.063-4.296 3.713-4.81 4.93-.247.582-.425 1.202-.666 1.641-.27.494-.655.86-1.361 1.087-1.09.345-2.694.03-4.138-.14-1.496-.177-2.905-.22-3.8.544-.574.496-.831 1.044-.99 1.621-.155.558-.227 1.208-.41 1.778-.385 1.19-1.29 2.253-4.54 2.928 3.252-.72 4.09-1.817 4.415-2.966.17-.599.197-1.162.346-1.788.144-.606.399-1.212 1.008-1.767.974-.894 2.516-.87 4.012-.737 1.547.138 2.983.379 3.93.035.571-.203.826-.49 1.011-.865.215-.437.301-.89.58-1.613.534-1.377 1.609-3.169 4.995-5.345z"/>
        <path fill="#e3dedb" stroke="#000" stroke-width=".549662" d="M57.892 30.008c-.37-.702-5.51.46-5.107 2.538 0 0-1.701 1.421-2.452 2.149-.313.302.244 1.343.63 1.142 1.254-.655 2.582-1.94 2.582-1.94 1.58 1.46 4.763-3.1 4.347-3.89z"/>
        <g>
            <path d="M28.721 40.978l-.31-.355c-3.31 2.922-5.219 3.685-6.483 3.927-.669.128-1.118.111-1.648.169-.515.055-.992.182-1.494.602-1.115.931-1.228 2.597-1.4 4.06-.18 1.526-.418 2.99-1.591 3.833-.588.423-1.166.522-1.767.51-.503-.01-1.323-.14-1.869-.145-1.303-.012-2.636.48-4.16 3.298 1.575-2.802 2.921-3.203 4.156-3.141.713.035 1.144.178 1.863.223.63.04 1.282-.037 1.955-.487 1.351-.902 1.648-2.511 1.88-4.028.24-1.581.41-2.93 1.327-3.633.388-.296.731-.366 1.157-.388.416-.022 1.016.009 1.723-.1 1.476-.224 3.549-1.041 6.97-3.99l-.309-.355z"/>
            <path d="M27.813 40.253c-3.512 3.151-5.409 3.71-6.624 3.841-.54.058-1.213.031-1.667.127-.561.118-1.037.417-1.553 1.115-.828 1.126-.953 2.816-1.143 4.243-.099.737-.214 1.428-.433 2.012-.217.578-.533 1.044-1.033 1.337-1.295.75-2.331.372-3.546.495-1.185.12-2.362.743-3.813 3.458 1.503-2.701 2.7-3.24 3.825-3.302 1.096-.06 2.296.366 3.686-.377.599-.317.982-.84 1.246-1.466.262-.621.408-1.35.533-2.087.257-1.518.422-2.989 1.177-3.932.464-.587.82-.747 1.183-.802.485-.073.792.016 1.606-.04 1.457-.098 3.538-.72 7.181-3.918z"/>
            <path fill="#e3dedb" d="M27.406 41.127c-2.89 2.591-4.753 3.105-6.066 3.264-.626.077-1.271.077-1.76.188-.549.124-1.007.393-1.42 1.01-.632.951-.772 2.58-1.006 4.015-.242 1.487-.589 2.854-1.57 3.502-.635.417-1.232.513-1.831.507-.579-.006-1.224-.116-1.822-.096-1.25.041-2.522.619-4.066 3.557 1.588-2.928 2.874-3.43 4.068-3.427.623.001 1.171.131 1.814.16.623.028 1.275-.05 1.977-.482 1.127-.69 1.53-2.179 1.813-3.653.294-1.525.458-2.972 1.05-3.789.353-.492.699-.659 1.11-.733.48-.086.94-.044 1.711-.113 1.47-.133 3.489-.673 6.514-3.328z"/>
            <path fill="#e3dedb" stroke="#000" stroke-width=".549662" d="M34.68 36.041c.572.549-1.96 5.17-3.848 4.21 0 0-1.835 1.244-2.741 1.765-.377.217-1.224-.605-.924-.92.975-1.025 2.576-1.948 2.576-1.948-.968-1.922 4.293-3.724 4.937-3.107z"/>
        </g>
        <g>
            <path d="M25.164 21.817l.279.38c-3.575 2.593-4.737 4.288-5.25 5.469-.27.625-.352 1.067-.524 1.572-.167.49-.394.928-.914 1.325-1.152.886-2.803.632-4.268.48-1.529-.158-3.01-.246-4.088.715-.54.482-.764 1.024-.883 1.613-.1.493-.153 1.322-.267 1.855-.274 1.275-1.045 2.468-4.128 3.34 3.079-.925 3.765-2.152 3.974-3.37.12-.704.076-1.156.189-1.867.099-.624.316-1.242.902-1.802 1.176-1.12 2.811-1.059 4.342-.953 1.595.11 2.949.24 3.835-.502.374-.313.517-.634.632-1.044.112-.401.213-.994.473-1.66.542-1.39 1.792-3.235 5.417-5.93l.28.38z"/>
            <path d="M25.673 22.862c-3.842 2.74-4.803 4.468-5.196 5.625-.174.514-.295 1.177-.488 1.599-.237.522-.634.92-1.427 1.272-1.28.562-2.956.314-4.39.188-.74-.065-1.44-.103-2.058-.017-.612.085-1.136.292-1.53.716-1.015 1.1-.873 2.193-1.258 3.352-.376 1.13-1.242 2.143-4.208 2.966 2.964-.877 3.751-1.929 4.058-3.012.298-1.056.144-2.32 1.173-3.515.44-.514 1.035-.774 1.703-.895.663-.12 1.406-.103 2.152-.064 1.538.08 3.01.24 4.095-.29.675-.324.908-.637 1.04-.979.178-.457.158-.776.39-1.558.415-1.4 1.477-3.295 5.393-6.152z"/>
            <path fill="#e3dedb" d="M24.731 23.069c-3.16 2.253-4.068 3.96-4.511 5.205-.211.595-.353 1.224-.567 1.677-.241.509-.604.897-1.295 1.165-1.068.41-2.688.19-4.139.104-1.504-.088-2.914-.049-3.76.767-.546.529-.77 1.09-.895 1.677-.121.565-.155 1.219-.305 1.798-.313 1.211-1.155 2.326-4.36 3.19 3.205-.909 3.976-2.055 4.234-3.22.135-.608.128-1.172.24-1.806.108-.613.327-1.233.902-1.823.92-.95 2.46-1.017 3.961-.972 1.553.047 3 .203 3.927-.196.557-.237.795-.538.958-.924.188-.448.248-.906.484-1.644.451-1.406 1.419-3.257 4.671-5.63z"/>
            <path fill="#e3dedb" stroke="#000" stroke-width=".549662" d="M31.283 17.082c-.41-.679-5.474.783-4.949 2.835 0 0-1.614 1.518-2.321 2.289-.294.32.323 1.326.696 1.103 1.213-.728 2.464-2.089 2.464-2.089 1.664 1.365 4.572-3.375 4.11-4.138z"/>
        </g>
        <g>
            <path d="M46.604 13.375l.324.342c-3.225 3.016-4.168 4.843-4.53 6.078-.19.654-.217 1.103-.325 1.625-.104.507-.276.97-.743 1.429-1.033 1.021-2.702.975-4.175 1.006-1.536.033-3.016.13-3.967 1.217-.477.545-.631 1.111-.676 1.71-.038.502.013 1.33-.035 1.874-.113 1.299-.73 2.579-3.68 3.826 2.94-1.3 3.468-2.602 3.524-3.836.032-.714-.068-1.157-.044-1.876.02-.632.159-1.272.671-1.9 1.027-1.258 2.658-1.4 4.19-1.485 1.596-.089 2.956-.13 3.743-.975.332-.357.434-.693.497-1.115.061-.411.088-1.012.263-1.705.365-1.448 1.376-3.433 4.64-6.557l.323.342z"/>
            <path d="M47.238 14.348c-3.472 3.195-4.21 5.03-4.456 6.227-.11.531-.148 1.204-.286 1.647-.17.547-.515.992-1.258 1.44-1.2.716-2.895.678-4.333.732-.743.027-1.442.076-2.044.238-.597.16-1.09.43-1.43.9-.87 1.218-.593 2.285-.831 3.483-.233 1.168-.966 2.28-3.807 3.465 2.832-1.238 3.483-2.38 3.652-3.492.165-1.085-.145-2.32.727-3.633.374-.566.931-.897 1.58-1.1.643-.201 1.382-.277 2.127-.332 1.536-.11 3.016-.134 4.027-.795.63-.406.822-.745.911-1.1.12-.477.06-.791.193-1.596.238-1.44 1.056-3.453 4.587-6.774z"/>
            <path fill="#e3dedb" d="M46.33 14.67c-2.856 2.628-3.546 4.434-3.83 5.726-.136.616-.198 1.258-.354 1.734-.176.534-.488.965-1.141 1.316-1.008.54-2.643.522-4.093.618-1.504.1-2.898.313-3.637 1.228-.475.592-.628 1.178-.68 1.775-.049.576-.001 1.229-.078 1.822-.16 1.241-.857 2.451-3.93 3.707 3.067-1.3 3.69-2.533 3.801-3.72.058-.621-.019-1.18.014-1.822.031-.623.17-1.265.668-1.922.796-1.056 2.316-1.314 3.81-1.456 1.547-.146 3.003-.172 3.872-.683.524-.304.723-.632.836-1.035.131-.468.133-.93.276-1.692.273-1.45 1.004-3.408 3.936-6.166z"/>
            <path fill="#e3dedb" stroke="#000" stroke-width=".549662" d="M52.087 7.915c-.49-.622-5.334 1.457-4.558 3.428 0 0-1.414 1.707-2.02 2.56-.251.354.486 1.276.828 1.008 1.114-.873 2.186-2.379 2.186-2.379 1.82 1.148 4.117-3.917 3.564-4.617z"/>
        </g>
    </g>
</svg>
