<svg xmlns="http://www.w3.org/2000/svg" viewBox="0 0 64 64">
    <g fill-rule="evenodd">
        <g stroke-width=".856">
            <path fill="#f0c" stroke="#000" d="M7.862 1015.051c-.024-14.737 19.915-15.62 24.403-6.885 3.668-8.902 24.456-9.123 24.398 7.059-.041 11.62-12.317 22.903-24.45 36.117-12.07-12.803-24.331-24.22-24.35-36.29z" transform="matrix(.29027 -.05863 .06637 .28051 -68.751 -277.477)"/>
            <path fill="#fff" d="M10.144 1.855c.864-.515 2.036-.49 3.08.094a4.034 4.034 0 0 1 1.396 2.647c-.33-1.048-1.02-1.768-1.761-2.147-.742-.627-1.763-.92-2.715-.594z"/>
        </g>
        <g stroke-width="1.174">
            <path fill="#f0c" stroke="#000" d="M7.862 1015.051c-.024-14.737 19.915-15.62 24.403-6.885 3.668-8.902 24.456-9.123 24.398 7.059-.041 11.62-12.317 22.903-24.45 36.117-12.07-12.803-24.331-24.22-24.35-36.29z" transform="matrix(.19787 .08633 -.07763 .19528 130.359 -145.729)"/>
            <path fill="#fff" d="M60.701 54.076c.732.054 1.421.558 1.8 1.344a2.94 2.94 0 0 1-.272 2.165c.24-.765.13-1.483-.154-2.02-.182-.684-.668-1.286-1.374-1.49z"/>
        </g>
        <g stroke-width="1.611">
            <path fill="#f0c" stroke="#000" d="M7.862 1015.051c-.024-14.737 19.915-15.62 24.403-6.885 3.668-8.902 24.456-9.123 24.398 7.059-.041 11.62-12.317 22.903-24.45 36.117-12.07-12.803-24.331-24.22-24.35-36.29z" transform="matrix(.1198 -.10206 .10314 .11327 -61.847 -53.817)"/>
            <path fill="#fff" d="M46.807 55.678c.27-.463.82-.753 1.456-.75.517.102.996.4 1.331.87a1.908 1.908 0 0 0-1.372-.544c-.506-.1-1.056.026-1.415.424z"/>
        </g>
        <g stroke-width="1.174">
            <path fill="#f0c" stroke="#000" d="M7.862 1015.051c-.024-14.737 19.915-15.62 24.403-6.885 3.668-8.902 24.456-9.123 24.398 7.059-.041 11.62-12.317 22.903-24.45 36.117-12.07-12.803-24.331-24.22-24.35-36.29z" transform="matrix(.19787 .08633 -.07763 .19528 79.34 -181.134)"/>
            <path fill="#fff" d="M9.682 18.671c.731.054 1.42.559 1.8 1.344a2.94 2.94 0 0 1-.273 2.165c.24-.764.13-1.482-.154-2.019-.181-.684-.668-1.287-1.373-1.49z"/>
        </g>
        <g stroke-width="1.611">
            <path fill="#f0c" stroke="#000" d="M7.862 1015.051c-.024-14.737 19.915-15.62 24.403-6.885 3.668-8.902 24.456-9.123 24.398 7.059-.041 11.62-12.317 22.903-24.45 36.117-12.07-12.803-24.331-24.22-24.35-36.29z" transform="matrix(.14636 .05786 -.05158 .14425 69.504 -144.856)"/>
            <path fill="#fff" d="M23.846 2.488c.535.02 1.05.37 1.346.933a2.144 2.144 0 0 1-.143 1.584 1.908 1.908 0 0 0-.164-1.467c-.15-.494-.52-.92-1.039-1.05z"/>
        </g>
        <g stroke-width="1.988">
            <path fill="#f0c" stroke="#000" d="M7.862 1015.051c-.024-14.737 19.915-15.62 24.403-6.885 3.668-8.902 24.456-9.123 24.398 7.059-.041 11.62-12.317 22.903-24.45 36.117-12.07-12.803-24.331-24.22-24.35-36.29z" transform="matrix(.11671 -.05127 .05363 .1119 1.175 -66.304)"/>
            <path fill="#fff" d="M59.961 43.95c.317-.295.812-.392 1.305-.242.376.2.68.542.83.985a1.546 1.546 0 0 0-.938-.741c-.37-.196-.826-.226-1.197-.002z"/>
        </g>
        <path fill="#ff80e5" stroke="#000" stroke-width=".472" d="M18.56 21.994c-.05-6.313 7.871-8.08 10.717-2.661 2.403-5.357 10.735-3.62 10.753 3.312.012 4.977-7.13 8.47-10.66 14.504-3.98-6.291-10.77-9.984-10.81-15.155z"/>
        <path fill="#fff" d="M33.591 17.916c1.431-.46 3.116-.034 4.425 1.149a6.041 6.041 0 0 1 1.145 4.313c-.128-1.62-.883-2.888-1.831-3.682-.873-1.166-2.26-1.933-3.739-1.78z"/>
        <path fill="#ff80e5" stroke="#000" stroke-width=".472" d="M34.37 35.995c-.037-4.603 5.737-5.89 7.812-1.94 1.751-3.905 7.826-2.639 7.838 2.414.01 3.629-5.197 6.175-7.771 10.574-2.9-4.587-7.85-7.279-7.88-11.048z"/>
        <path fill="#fff" d="M45.327 33.022c1.043-.336 2.27-.024 3.225.837.643.86.968 1.97.835 3.145-.093-1.182-.643-2.106-1.335-2.684-.636-.851-1.647-1.41-2.725-1.298z"/>
        <path fill="#ff80e5" stroke="#000" stroke-width=".472" d="M18.48 42.617c-.026-3.355 4.183-4.294 5.695-1.414 1.277-2.847 5.705-1.923 5.715 1.76.006 2.645-3.79 4.502-5.666 7.708-2.114-3.343-5.723-5.306-5.744-8.054z"/>
        <path fill="#fff" d="M26.468 40.45c.76-.245 1.656-.018 2.352.61a3.21 3.21 0 0 1 .608 2.293c-.068-.861-.47-1.535-.973-1.957-.464-.62-1.2-1.027-1.987-.946z"/>
    </g>
</svg>
