<svg xmlns="http://www.w3.org/2000/svg" viewBox="0 0 64 64">
    <g fill-rule="evenodd" stroke-width=".856">
        <path fill="#f0c" stroke="#000" d="M7.862 1015.051c-.024-14.737 19.915-15.62 24.403-6.885 3.668-8.902 24.456-9.123 24.398 7.059-.041 11.62-12.317 22.903-24.45 36.117-12.07-12.803-24.331-24.22-24.35-36.29z" transform="matrix(.29027 -.05863 .06637 .28051 -68.751 -277.477)"/>
        <path fill="#fff" d="M10.144 1.855c.864-.515 2.036-.49 3.08.094a4.034 4.034 0 0 1 1.396 2.647c-.33-1.048-1.02-1.768-1.761-2.147-.742-.627-1.763-.92-2.715-.594z"/>
    </g>
    <g fill-rule="evenodd" stroke-width="1.174">
        <path fill="#f0c" stroke="#000" d="M7.862 1015.051c-.024-14.737 19.915-15.62 24.403-6.885 3.668-8.902 24.456-9.123 24.398 7.059-.041 11.62-12.317 22.903-24.45 36.117-12.07-12.803-24.331-24.22-24.35-36.29z" transform="matrix(.19787 .08633 -.07763 .19528 130.359 -145.729)"/>
        <path fill="#fff" d="M60.701 54.076c.732.054 1.421.558 1.8 1.344a2.94 2.94 0 0 1-.272 2.165c.24-.765.13-1.483-.154-2.02-.182-.684-.668-1.286-1.374-1.49z"/>
    </g>
    <g fill-rule="evenodd" stroke-width="1.611">
        <path fill="#f0c" stroke="#000" d="M7.862 1015.051c-.024-14.737 19.915-15.62 24.403-6.885 3.668-8.902 24.456-9.123 24.398 7.059-.041 11.62-12.317 22.903-24.45 36.117-12.07-12.803-24.331-24.22-24.35-36.29z" transform="matrix(.1198 -.10206 .10314 .11327 -61.847 -53.817)"/>
        <path fill="#fff" d="M46.807 55.678c.27-.463.82-.753 1.456-.75.517.102.996.4 1.331.87a1.908 1.908 0 0 0-1.372-.544c-.506-.1-1.056.026-1.415.424z"/>
    </g>
    <g fill-rule="evenodd" stroke-width="1.174">
        <path fill="#f0c" stroke="#000" d="M7.862 1015.051c-.024-14.737 19.915-15.62 24.403-6.885 3.668-8.902 24.456-9.123 24.398 7.059-.041 11.62-12.317 22.903-24.45 36.117-12.07-12.803-24.331-24.22-24.35-36.29z" transform="matrix(.19787 .08633 -.07763 .19528 79.34 -181.134)"/>
        <path fill="#fff" d="M9.682 18.671c.731.054 1.42.559 1.8 1.344a2.94 2.94 0 0 1-.273 2.165c.24-.764.13-1.482-.154-2.019-.181-.684-.668-1.287-1.373-1.49z"/>
    </g>
    <g fill-rule="evenodd" stroke-width="1.611">
        <path fill="#f0c" stroke="#000" d="M7.862 1015.051c-.024-14.737 19.915-15.62 24.403-6.885 3.668-8.902 24.456-9.123 24.398 7.059-.041 11.62-12.317 22.903-24.45 36.117-12.07-12.803-24.331-24.22-24.35-36.29z" transform="matrix(.14636 .05786 -.05158 .14425 69.504 -144.856)"/>
        <path fill="#fff" d="M23.846 2.488c.535.02 1.05.37 1.346.933a2.144 2.144 0 0 1-.143 1.584 1.908 1.908 0 0 0-.164-1.467c-.15-.494-.52-.92-1.039-1.05z"/>
    </g>
    <g fill-rule="evenodd" stroke-width="1.988">
        <path fill="#f0c" stroke="#000" d="M7.862 1015.051c-.024-14.737 19.915-15.62 24.403-6.885 3.668-8.902 24.456-9.123 24.398 7.059-.041 11.62-12.317 22.903-24.45 36.117-12.07-12.803-24.331-24.22-24.35-36.29z" transform="matrix(.11671 -.05127 .05363 .1119 1.175 -66.304)"/>
        <path fill="#fff" d="M59.961 43.95c.317-.295.812-.392 1.305-.242.376.2.68.542.83.985a1.546 1.546 0 0 0-.938-.741c-.37-.196-.826-.226-1.197-.002z"/>
    </g>
    <path fill="#ff80e5" fill-rule="evenodd" stroke="#000" stroke-width=".546" d="M30.557 42.054c1.074 5.92 1.224 6.417 1.798 9.406 5.24 1.841 20.668.032 8.793-12.586-2.17-1.288-4.386-2.548-8.163-2.908z"/>
    <path fill="#333" fill-rule="evenodd" stroke="#000" stroke-width=".546" d="M32.315 51.318l.235 1.875c14.642 3.414 18.086-8.296 8.558-14.352 6.216 7.487 6.807 13.644-8.793 12.477z"/>
    <path fill="none" stroke="#000" stroke-width=".273" d="M32.784 37.506l3.621 6.062 3.005 2.478.542 5.11M36.434 43.668c.635 2.776.953 5.442.353 7.79M32.429 38.287c.915 4.361 1.73 8.709 2.035 12.99M39.401 46.002l1.03.24c1.58 1.065 1.84 2.643 2.622 4.019"/>
    <path fill="none" stroke="#000" stroke-width=".273" d="M33.077 37.922l1.458-.22 3.551 1.989 2.343 6.523M39.388 43.34c2.52 1.412 4.027 3.055 5.863 4.622M38.363 40.44c.258.483 6.339 3.668 6.325 3.62M38.104 39.699l3.702.17M34.603 37.664l2.165-.907"/>
    <path fill="#ff80e5" fill-rule="evenodd" stroke="#000" stroke-width=".546" d="M29.112 40.835c-4.653 3.643-5.088 3.907-7.46 5.724-5.082-2.264-15.334-14.287 1.685-15.413 2.446.548 4.91 1.15 7.942 3.498z"/>
    <path fill="#333" fill-rule="evenodd" stroke="#000" stroke-width=".546" d="M21.773 46.482l-1.394 1.226C7.307 40.1 12.383 29.038 23.388 31.15c-9.483 1.242-13.931 5.394-1.615 15.332z"/>
    <path fill="none" stroke="#000" stroke-width=".273" d="M30.425 35.924l-6.632 1.984-3.841-.245-3.731 3.411M23.707 37.962c-2.28 1.617-4.253 3.372-5.337 5.526M30.179 36.749c-3.519 2.597-6.955 5.254-9.97 8.214M19.987 37.637l-.919-.535c-1.864-.305-3.086.683-4.561 1.16"/>
    <path fill="none" stroke="#000" stroke-width=".273" d="M29.937 36.03L29 34.857l-3.927-.985-5.986 3.21M21.731 35.674c-2.787-.7-4.973-.526-7.354-.637M24.38 34.235c-.506.178-7.086-1.672-7.045-1.698M25.055 33.865L22.2 31.428M28.974 34.782l-1.013-2.171"/>
    <path fill="#ff80e5" fill-rule="evenodd" stroke="#000" stroke-width=".546" d="M33.812 35.897c5.153 2.507 10.498 3.317 15.747 4.976 7.296-8.245 8.664-11.656 8.374-13.496-4.354-2.084-20.38 2.856-23.565 7.366z"/>
    <path fill="#333" fill-rule="evenodd" stroke="#000" stroke-width=".546" d="M33.578 36.268c.112.047 15.93 6.335 16.877 5.062 5.957-8.92 11.502-11.518 10.302-12.754l-2.792-1.206c-2.194 4.637-5.166 8.749-8.517 12.605-.858 1.27-10.58-2.471-15.87-3.707z"/>
    <path fill="none" stroke="#000" stroke-width=".273" d="M33.953 35.732l11.686-2.738 2.337-1.746 6.815 1.69M45.604 33.041l7.744 1.854M41.516 33.986l9.78 3.607M43.992 29.11l4.043 2.09 2.127-2.588 5.762 2.54M46.598 28.33l10.623.453"/>
    <path fill="#ff80e5" fill-rule="evenodd" stroke="#000" stroke-width=".546" d="M31.485 34.645c-5.297-2.164-9.527-5.634-14.29-8.45.835-11.134 2.31-14.497 3.808-15.538 4.452 1.853 11.925 17.296 10.916 22.78z"/>
    <path fill="#333" fill-rule="evenodd" stroke="#000" stroke-width=".546" d="M31.382 35.075c-.11-.053-15.374-7.658-15.123-9.242 2.229-10.588.27-16.539 1.965-16.481l2.762 1.276c-1.775 4.824-2.648 9.874-3.08 15.035-.311 1.516 8.984 6.275 13.476 9.412z"/>
    <path fill="none" stroke="#000" stroke-width=".273" d="M31.505 34.426l-6.06-10.67-.365-2.955-5.857-3.973M25.435 23.814l-6.608-4.562M27.564 27.537c-.086-.047-9.24-4.894-9.24-4.894M29.317 22.337l-4.243-1.613.373-3.372-5.737-2.6M28.085 19.842l-7.588-7.687"/>
    <path fill="#1a1a1a" fill-rule="evenodd" stroke="#000" stroke-width="1.092" d="M27.483 46.428c1.135-3.453 1.826-7.517 3.408-10.879.757-1.61 1.712-2.556 2.568-3.834.453-.293.885-.407 1.201.445 0 0-.3 3.243-.919 4.714-1.428 3.397-6.258 9.554-6.258 9.554z"/>
    <path fill-rule="evenodd" d="M33.001 32.348c.343-1.135.853-2.826 1.318-4.218a24.77 24.77 0 0 0-.29-1.564c-.277.388-.567.848-.861 1.342-.089 1.488-.206 3.236-.167 4.44zM34.673 33.08c.742-.915 1.847-2.275 2.798-3.377.128-.553.24-1.079.316-1.546-.4.25-.84.563-1.298.905-.638 1.333-1.401 2.895-1.816 4.018z"/>
</svg>
