<svg cursor="default" version="1.1" viewBox="0 0 256 256" xmlns="http://www.w3.org/2000/svg" xmlns:xlink="http://www.w3.org/1999/xlink">
 <defs>
  <linearGradient id="linearGradient846-5" x1="76.655" x2="219.43" y1="208.73" y2="34.82" gradientTransform="matrix(1.1117 .051202 -.04914 1.0669 -20.091 -15.46)" gradientUnits="userSpaceOnUse">
   <stop stop-color="#4d4d4d" offset="0"/>
   <stop stop-color="#808080" offset=".34443"/>
   <stop stop-color="#4d4d4d" offset="1"/>
  </linearGradient>
 </defs>
 <path d="m78.192 149.97 3.2746-25.946c5.4557-8.8836 17.937-19.606 31.431-29.581l-3.1752 17.728 13.602-25.174c13.743-9.5133 26.957-17.594 33.462-21.589l-6.0663 18.741 10.362-20.2c12.362-7.0089 48.583-15.369 73.284-43.949 0.21019 34.136-43.766 77.818-52.051 95.269l-32.701 9.1397 31.85-6.0131c-3.6149 9.6238-8.2726 18.378-13.963 26.486l-29.475 8.2183 23.865-0.83106c-7.1462 8.7235-15.602 16.713-25.353 24.291l-31.922 6.4596 29.027-3.3492c-23.278 17.302-44.747 28.073-70.534 25.246 0 0-0.90536-0.97508-1.7402-1.6443-4.0034-37.741 6.2897-64.385 17.51-76.021 0.07109 2.2944-0.6867 21.246-0.6863 22.719z" fill="url(#linearGradient846-5)" fill-rule="evenodd" stroke="#000" stroke-width=".9801"/>
 <path d="m63.47 204.62 59.374-79.744c37.346-34.471 93.695-66.726 111.2-103.51-0.61838 35.751-34.235 62.205-51.444 93.282l-32.988 9.7517 31.613-5.8056c-3.2103 9.28-7.6076 17.823-13.418 26.026l-29.784 8.4715 23.918-0.87472c-6.7908 8.1187-15.096 16.013-25.151 24.09l-32.177 6.7042 28.419-2.8679c-24.043 17.665-45.455 26.577-69.562 24.48z" fill-opacity=".178" fill-rule="evenodd" stroke-width="1.0902"/>
 <g fill="#ff8080" stroke="#000" stroke-width=".2">
  <path d="m69.788 195.36s0.54168-0.062 0.54168-0.062c-0.40623-3.5468-0.99696-8.8225-1.3429-14.244-0.35784-5.6058-0.45656-11.265-0.04264-17.059 0.41596-5.822 1.3085-11.206 2.5955-16.473 1.2632-5.1686 2.7965-9.7432 4.0008-13.015-1.2056 3.2759-2.8001 7.8186-4.1659 12.974-1.3904 5.2478-2.4165 10.626-2.9737 16.469-0.55466 5.8159-0.58827 11.509-0.33274 17.154 0.24792 5.4764 0.7687 10.742 1.1783 14.317 0 0 0.54168-0.062 0.54168-0.062z"/>
  <path d="m86.793 171.85 0.54498-0.0161c-0.15566-5.2738-0.66254-16.917 0.02215-28.188 0.7707-12.687 2.8311-22.775 5.0198-30.482-2.2219 7.8242-4.4814 17.608-5.5636 30.443-0.95777 11.358-0.72606 22.916-0.56833 28.259l0.54498-0.0161z"/>
  <path d="m78.197 184.73 0.54441-0.0297c-0.37345-6.8359-0.81938-14.214-0.91922-21.662-0.08968-6.6893 0.16532-11.156 0.39676-13.57-0.23445 2.4465-0.75524 6.8244-0.94197 13.567-0.1954 7.0558 0.02401 15.289 0.37561 21.726l0.54441-0.0297z"/>
  <path d="m99.514 154.61 0.54499-0.0161c-0.10108-3.4244-0.25385-6.1127-0.48952-10.891-0.20628-4.1826-0.39686-8.6098-0.284-13.138 0.11598-4.6536 0.54148-9.1215 1.3666-13.902 0.8131-4.7102 1.9077-9.0629 2.8564-12.404-0.95367 3.3583-2.1041 7.6575-3.024 12.373-0.93059 4.77-1.4871 9.2353-1.7439 13.911-0.25018 4.555-0.19494 8.9934-0.09066 13.194 0.04009 1.613 0.31191 10.65 0.31899 10.889l0.54498-0.0161z"/>
  <path d="m111.99 138.78 0.54499-0.0161c-0.0821-2.7816-0.2255-6.4714-0.33324-9.7492-0.11004-3.3475-0.1752-6.1308-0.12993-8.7196 0.0454-2.5966 0.20022-4.8862 0.45423-7.4457 0.23887-2.4069 0.58505-5.1918 0.85014-7.1441-0.27133 1.9983-0.66948 4.6343-1.0193 7.1238-0.35638 2.5361-0.64663 4.8465-0.82976 7.442-0.18441 2.6138-0.25114 5.3878-0.24531 8.7596 6e-3 3.2165 0.0816 7.0024 0.16321 9.7653l0.54498-0.0161z"/>
  <path d="m122.18 123.88 0.43014-0.0221c-0.34001-6.6084-8e-3 -14.196 2.1719-22.944 1.7685-7.097 4.655-13.968 5.3118-15.573-0.59614 1.4559-3.8002 8.5314-5.7284 15.463-2.4079 8.6558-2.9556 16.492-2.6157 23.098l0.43015-0.0221z"/>
  <path d="m133.97 114.3 0.4298-0.0279c-0.32713-5.031 0.0489-11.366 2.4145-20.228 1.8619-6.9754 5.1651-15.669 5.894-17.63-0.60478 1.6272-4.355 10.904-6.3087 17.513-2.5891 8.7592-3.1892 15.329-2.8594 20.401l0.4298-0.0279z"/>
  <path d="m146.24 104.96s0.43071-7.1e-4 0.43071-7.1e-4c-4e-3 -2.1244 9e-3 -4.7653 0.23198-7.276 0.16972-1.9075 0.44354-3.5838 0.87149-5.3361 0.42115-1.7244 0.976-3.4535 1.5991-5.3148 0.82072-2.4514 1.7446-5.1653 2.3976-7.1382-0.77492 2.3412-1.526 4.3546-2.5578 7.081-0.69074 1.8253-1.342 3.5501-1.8545 5.2588-0.52514 1.7507-0.89272 3.4386-1.1432 5.3741-0.32748 2.5311-0.40963 5.227-0.40615 7.3525 0 0 0.43072-7.1e-4 0.43072-7.1e-4z"/>
  <path d="m161.12 92.517s0.42847 0.04401 0.42847 0.04401c0.27863-2.7162 0.63482-5.9827 1.1869-9.0162 0.41862-2.3003 0.90582-4.2493 1.554-6.3041 0.63014-1.9974 1.4096-4.0777 2.2498-6.3368 1.3627-3.6641 2.1041-5.7248 3.2533-9.0484-1.0165 2.9397-2.0894 5.745-3.4118 8.9866-0.89939 2.2046-1.787 4.304-2.4992 6.2601-0.74369 2.0426-1.3235 3.9909-1.8243 6.3076-0.65566 3.0334-1.0878 6.3536-1.3658 9.0633l0.42847 0.04391z"/>
  <path d="m174.91 82.491 0.42897 0.03891c0.27486-3.0342 0.83055-6.6497 2.1704-10.318 0.99646-2.7276 2.2648-5.0579 3.7798-7.2882 1.4504-2.1351 3.1209-4.1554 4.5144-5.9106 2.089-2.6312 3.2375-4.2832 4.3041-6.1084-1.037 1.7744-2.3038 3.4898-4.4355 6.0004-1.441 1.6971-3.2018 3.6748-4.7351 5.7702-1.6082 2.1979-2.982 4.5296-4.074 7.2906-1.4645 3.7025-2.1039 7.4135-2.3821 10.485l0.42896 0.03881z"/>
  <path d="m194.44 67.505 0.41416 0.11828c0.88131-3.086 2.0695-7.0258 3.6713-10.378 1.2402-2.5957 2.6768-4.7812 4.683-7.0511 1.9798-2.2401 4.4528-4.4885 7.3527-7.0405 5.8842-5.1785 6.1993-5.3675 11.588-10.227-4.1239 3.7197-7.0141 6.1374-11.698 10.099-2.9401 2.4863-5.4985 4.6866-7.5599 6.8791-2.1027 2.2364-3.6453 4.413-4.9845 7.035-1.7251 3.3773-2.9947 7.3485-3.8798 10.448l0.41416 0.11828z"/>
  <path d="m70.229 194.7-0.03528 0.54408c4.0922 0.26565 12.972 0.74967 21.374 0.0833 9.5434-0.75682 16.691-2.7404 22.423-4.7416-5.6534 1.9741-13.04 3.7492-22.457 4.1976-8.2979 0.39514-17.246-0.3662-21.269-0.62736l-0.03528 0.54407z"/>
  <path d="m87.273 172.38 0.05812 0.54212c3.2812-0.35205 6.7335-0.63296 12.141-0.90799 4.7099-0.23953 11.009-0.46376 16.545-0.92025 6.0171-0.49628 11.552-1.2739 17.077-2.5955 5.4842-1.3118 9.8716-2.9071 13.241-4.2978-3.3566 1.3852-7.797 2.9283-13.279 4.1318-5.5323 1.2144-11.077 1.8638-17.077 2.2177-5.5009 0.3245-11.843 0.40182-16.544 0.54482-5.3166 0.1617-9.0176 0.39945-12.22 0.74307l0.05812 0.54211z"/>
  <path d="m79.256 182.82-0.05616 0.54233c4.6528 0.4815 12.281 0.94042 20.307 0.6616 8.1916-0.28458 13.01-1.1863 15.801-1.8398-2.6986 0.63178-7.7509 1.3073-15.811 1.2947-8.1726-0.0127-15.391-0.70488-20.185-1.2011l-0.05616 0.54233z"/>
  <path d="m98.458 155.97 0.0581 0.54211c3.3666-0.36121 8.7826-0.53959 13.992-0.88458 4.5728-0.30284 10.163-0.6144 15.358-1.1778 5.5286-0.59947 10.651-1.4718 15.886-2.8527 5.1936-1.3698 9.5167-2.9873 12.88-4.3754-3.3482 1.3818-7.728 2.9486-12.922 4.2102-5.2472 1.2745-10.381 2.0181-15.896 2.4751-5.1703 0.4284-10.789 0.59811-15.357 0.80186-5.0582 0.22558-10.833 0.37307-14.058 0.71902l0.0581 0.54211z"/>
  <path d="m110.13 140.3 0.0581 0.54211c1.9484-0.20904 10.536-0.7424 15.317-1.2785 5.6266-0.63088 12.48-1.4148 18.985-2.2561 5.7493-0.7436 10.91-1.4898 15.464-2.2643 6.1415-1.0444 9.8608-1.9173 12.34-2.5745-2.4354 0.64549-6.2646 1.4556-12.375 2.3619-4.5579 0.67606-9.7448 1.3124-15.495 1.9355-6.5317 0.70777-13.363 1.3508-19.015 1.8823-6.0132 0.56547-12.164 0.76887-15.339 1.1094l0.0581 0.54211z"/>
  <path d="m124.59 125.14 0.0372 0.4291c2.6785-0.23271 6.7913-0.61398 10.319-0.97952 3.7376-0.38719 7.1338-0.78583 10.152-1.2499 3.0485-0.46866 5.4853-0.96846 7.7698-1.5416 2.2221-0.55748 4.1272-1.1443 5.5034-1.5696-1.3778 0.42589-3.296 0.96026-5.5338 1.4386-2.2998 0.49152-4.7445 0.88743-7.7972 1.2459-3.0114 0.35359-6.4312 0.64886-10.162 0.95296-4.1291 0.33662-7.0517 0.56045-10.327 0.84507l0.0372 0.42909z"/>
  <path d="m135.74 113.93s0.0319 0.42953 0.0319 0.42953c2.5168-0.18704 6.7023-0.66085 12.839-1.7291 4.5714-0.79571 9.7563-1.8422 15.038-3.0793 5.2993-1.2414 10.14-2.5446 14.196-3.8052 5.4755-1.7019 8.5365-3.016 10.308-3.907-1.7551 0.88279-4.8777 2.1492-10.357 3.7442-4.0682 1.1842-8.9348 2.4015-14.242 3.548-5.2994 1.1448-10.479 2.0984-15.055 2.8174-6.1681 0.96894-10.271 1.3649-12.79 1.5522 0 0 0.0319 0.42953 0.0319 0.42953z"/>
  <path d="m147.71 103.59 0.0569 0.42693c1.5559-0.20757 5.1603-0.70929 9.0892-1.3063 4.1694-0.63352 9.4112-1.4798 14.693-2.5065 4.6242-0.89889 8.9022-1.862 12.702-2.9017 5.1296-1.4035 8.2989-2.6493 10.377-3.6071-2.0598 0.94919-5.2936 2.1474-10.42 3.4426-3.8095 0.96237-8.1077 1.839-12.736 2.6425-5.3059 0.92106-10.528 1.6558-14.717 2.2105-3.1753 0.42047-5.9254 0.75151-9.1008 1.172l0.0569 0.42694z"/>
  <path d="m161.82 92.459 0.0976 0.4195c2.8006-0.65195 5.0594-1.1573 8.9437-1.9803 3.3335-0.70633 7.0606-1.474 10.491-2.3312 3.6216-0.90493 6.9126-1.9021 10.351-3.1916 3.4026-1.2762 6.3465-2.6162 8.6715-3.7231-2.3092 1.0994-5.3081 2.4059-8.7173 3.5965-3.4585 1.2079-6.7729 2.1056-10.403 2.8987-3.4102 0.74507-7.2136 1.4141-10.535 2.0377-3.647 0.68476-6.4433 1.2596-8.9966 1.8541l0.0976 0.4195z"/>
  <path d="m176.2 82.04 0.093 0.42055c6.0666-1.342 13.863-3.7372 22.151-7.8551 7.67-3.8107 13.146-7.8079 15.692-9.6711-2.539 1.8578-8.1589 5.6912-15.88 9.2829-8.4372 3.9251-16.047 6.0521-22.15 7.4022l0.093 0.42055z"/>
  <path d="m195.3 66.829 0.16487 0.39791c1.9384-0.80312 8.1248-3.3147 10.416-4.3408 2.6171-1.1725 4.8852-2.3545 7.0872-4.0052 2.2148-1.6603 4.2633-3.7183 6.5855-6.4638 2.9338-3.4687 6.4534-8.2614 9.0263-11.763-2.5937 3.5305-6.1294 8.2267-9.155 11.652-2.3793 2.6939-4.4717 4.6651-6.7093 6.2261-2.2142 1.5447-4.489 2.629-7.109 3.7195-3.0912 1.2867-7.3794 2.893-10.47 4.1795l0.16486 0.39791z"/>
 </g>
 <path d="m203.55 59.586c-24.119 19.919-56.6 39.563-80.466 63.214-33.892 33.587-43.205 68.258-100.21 122.9 57.666-51.15 70.539-87.426 102.86-121.54 22.363-23.604 57.838-44.685 77.804-64.576z" fill="#4d4d4d" fill-rule="evenodd" stroke="#000" stroke-width="1.0902"/>
</svg>
