<?xml version="1.0" encoding="UTF-8"?>
<svg cursor="default" version="1.1" viewBox="0 0 256 256" xmlns="http://www.w3.org/2000/svg" xmlns:cc="http://creativecommons.org/ns#" xmlns:dc="http://purl.org/dc/elements/1.1/" xmlns:rdf="http://www.w3.org/1999/02/22-rdf-syntax-ns#" xmlns:xlink="http://www.w3.org/1999/xlink">
 <metadata>
  <rdf:RDF>
   <cc:Work rdf:about="">
    <dc:format>image/svg+xml</dc:format>
    <dc:type rdf:resource="http://purl.org/dc/dcmitype/StillImage"/>
    <dc:title/>
   </cc:Work>
  </rdf:RDF>
 </metadata>
 <defs>
  <linearGradient id="innoGrad1">
   <stop stop-color="#fea" stop-opacity=".50196" offset="0"/>
   <stop stop-color="#fff6d5" stop-opacity=".25098" offset="1"/>
  </linearGradient>
  <linearGradient id="innoGrad2">
   <stop stop-color="#ff8080" offset="0"/>
   <stop stop-color="#faa" offset="1"/>
  </linearGradient>
  <linearGradient id="linearGradient964" x1="33.749" x2="28.764" y1="116.59" y2="163.38" gradientTransform="matrix(-.93654 0 0 .93654 243.15 7.2254)" gradientUnits="userSpaceOnUse" xlink:href="#innoGrad1"/>
  <linearGradient id="linearGradient972" x1="134.61" x2="133.46" y1="131.17" y2="177.95" gradientTransform="matrix(-.93654 0 0 .93654 243.15 7.2254)" gradientUnits="userSpaceOnUse" xlink:href="#innoGrad1"/>
  <linearGradient id="linearGradient996" x1="169.32" x2="164.91" y1="137.69" y2="109.11" gradientUnits="userSpaceOnUse" xlink:href="#innoGrad2"/>
  <linearGradient id="linearGradient1004" x1="42.331" x2="42.954" y1="129.82" y2="128" gradientUnits="userSpaceOnUse" xlink:href="#innoGrad2"/>
  <linearGradient id="linearGradient1012" x1="218.65" x2="219.18" y1="106.29" y2="104.22" gradientUnits="userSpaceOnUse" xlink:href="#innoGrad2"/>
 </defs>
 <g fill-rule="evenodd" stroke="#000" stroke-width=".78045">
  <path d="m175.27 144.63c0.41496-2.8703 3.4999-3.152 3.3652-0.53428-0.22114 4.2973 0.22939 8.4129 0.95242 12.666 0.3955 2.3266-1.1686 3.9888-2.8573 1.1216-1.7901-3.0394-2.333-7.2173-1.4604-13.253z" fill="#dbdee3" fill-opacity=".50196"/>
  <path d="m180.22 139.99-1.3334 0.19049c-1.6695 0.2385-0.52912 5.2912-0.44446 8.0003-0.19541-0.87748-0.652-1.4285-1.5239-1.4604-1.4935 1.8614-0.70256 4.2499-0.0635 6.6034 2.9084 0.31653 3.4217 0.0219 3.8732-1.5874l-0.44446-6.4129 0.95242-1.8413z" fill="#ffb380"/>
  <path d="m152.18 148.29c0.14743-2.8431 4.3213-2.5168 4.3286 0.97205 8e-3 4.0949-0.5644 8.1099-3.2231 12.038-1.2999 1.9206-4.7421 1.328-3.6627-1.755 1.6959-4.8438 2.385-7.9353 2.5572-11.255z" fill="#dbdee3" fill-opacity=".50196"/>
  <path d="m158.07 145.86-0.95038-0.36605c-1.1899-0.45839-2.0084 4.6789-2.7992 7.219 0.1439-0.89108 0.0111-1.5864-0.56126-1.9705-1.3454 1.5248-1.3686 4.3978-2.1078 6.082 1.844 1.4756 2.279 1.4118 3.084 0.10715l1.7089-6.1124 1.2122-1.3158z" fill="#ffb380"/>
 </g>
 <path d="m154.41 152.31s-0.38888-0.0805-0.38888-0.0805c-0.0837 0.40404-0.3406 1.2736-0.64878 2.2243-0.13698 0.42261-0.24891 0.81367-0.32352 1.2128-0.10132 0.54199-0.10197 0.9298-0.0965 1.2536-5e-3 -0.31274 0.0605-0.72232 0.24743-1.2112 0.13977-0.36559 0.32396-0.72007 0.53629-1.0958 0.56123-0.99307 0.92568-1.5605 1.0628-2.2226 0 0-0.38888-0.0805-0.38888-0.0805z"/>
 <g fill-rule="evenodd" stroke="#000" stroke-width=".78045">
  <path d="m79.271 155.75c-0.021 6.1958 0.19633 12.392 2.0653 18.588 1.7996 5.966 5.8899 11.249 16.522 12.661 10.576 1.4046 21.219 0.6422 35.379-3.7714 10.404-3.2427 16.176-11.807 20.563-19.755 5.4874-9.9427 8.2909-20.653 5.2081-30.979-13.375-3.4179-50.827-1.7117-81.174 7.0938z" fill="url(#linearGradient972)"/>
  <path d="m245.66 130.52s-1.3458 9.2869-2.9632 14.996c-2.064 7.2854-4.7082 15.427-11.404 18.947-7.0179 3.6886-18.565 7.1549-26.489 6.9142-6.7456-0.20483-11.292-2.2408-16.073-7.004-5.7934-5.7719-7.8121-23.257-7.8121-23.257 0.0635-4.3101-0.72415-8.6203 3.6816-12.93 22.034-9.4758 41.592-11.937 60.791-13.379z" fill="url(#linearGradient964)"/>
  <path d="m188.64 96.622 0.093 6.2891-1.6509 0.25398s-14.944-5.913-25.08-1.4604c-8.5386 3.7508-20.953 18.54-20.953 18.54-1.3702 1.2124-3.2158 1.5343-5.397 0.82542-3.045-0.98954-4.8253-2.3565-5.8415-4.6986-0.84164-1.9398-1.1059-3.3632 0.44444-4.1906l25.461-13.588c5.0591-2.6999 10.602-3.6509 16.255-3.3017z" fill="#f55"/>
  <path d="m240.36 109.43-52.388-12.041-0.96324 0.19998 0.0743 4.3081 30.795 12.381 21.715 1.3334z" fill="url(#linearGradient1012)"/>
 </g>
 <g stroke="#000">
  <path d="m186.9 97.723 53.707 12.853" fill="none" stroke-width=".5"/>
  <path d="m18.48 125.22-1.9011 0.76006-9.7722-4.5314c-0.84895 1.2019 2.1242 7.9061 2.3238 11.178 0.17667 2.896-0.0305 7.5348-3.1691 6.9386-1.9793-0.37597-1.5911-4.0451-2.0281-8.9577-0.24586-2.7637-3.0504-16.046 3.7642-14.144l10.783 3.0094z" fill="#f55" fill-rule="evenodd" stroke-width=".78045"/>
  <path d="m18.39 120.1 44.224 14.592-2.4694 7.4979-19.845-3.7714-23.272-13.787-0.0519-4.3232z" fill="url(#linearGradient1004)" fill-rule="evenodd" stroke-width=".78045"/>
  <path d="m16.875 120.33 42.906 14.669" fill="none" stroke-width=".5"/>
 </g>
 <g fill-rule="evenodd" stroke="#000" stroke-width=".78045">
  <path d="m237.62 109.73 2.1551-0.67346 7.4979 1.9306-3.5918 0.44898 0.22449 1.0775-6.106 2.5592z" fill="#ffb380"/>
  <path d="m65.108 143.36c11.36 3.3052 12.199 5.2011 12.064 12.191-0.0438 2.2733 2.414 2.5971 2.5398 0.63495l0.63494-9.9051c0.31567-4.9245 4.6115-7.5129 9.6512-8.5083 20.552-4.0593 41.829-6.2411 63.621-5.0796 2.3248 0.12391 5.5719 1.0696 5.4605 4.1906-0.32187 9.0162-3.3693 17.996-5.8415 27.049-0.8596 3.1476 1.2483 2.7502 1.7778 1.2699 3.144-8.7892 5.0038-17.098 7.7463-25.525 0.48807-1.4996 1.8454-2.933 3.6827-3.1747l9.6512-1.2699c1.7464-0.22977 2.5118 0.58513 2.9208 2.1588l5.8415 22.477c0.52585 2.0234 1.9406 0.41577 1.7144-0.57145l-4.3811-19.112c-1.2677-5.53 2.5439-10.574 8.3813-12.699 15.872-5.7771 31.964-9.5522 48.637-11.048 2.8074-0.25185 4.1184-0.0657 4.9526 2.0318 1.6564 4.1655 0.95863 8.2508 1.0159 12.826 0.0282 2.2528 2.053 2.0818 2.1588 0l0.38097-7.4924 1.9048-2.4763 8e-3 -8.5763-4.1324-1.5098-1.4588 0.36508 0.77642 1.1046c-23.66 3.1402-46.083 8.0901-64.91 15.537-4.876 1.9287-16.744 2.4709-18.731 2.3493-30.473-1.8655-59.704 0.43958-85.146 5.905-4.1749 0.89685-7.1066 0.0767-10.286-0.50795z" fill="url(#linearGradient996)"/>
  <path d="m68.63 135.86c-0.35916 0-2.3796 0.58366-2.3796 0.58366l0.0899 7.902-7.453-1.7061v-7.8121l2.604-0.80817z" fill="#ffb380"/>
 </g>
 <path d="m59.061 135 7.1909 1.5341" fill="none" stroke="#000" stroke-width=".5"/>
 <path d="m237.63 109.9 6.1695 1.3898" fill="none" stroke="#000" stroke-width=".5"/>
 <path d="m178.41 147.66 0.33692-0.0288c0.037 0.43264-0.0225 0.95663-0.21792 1.6381-0.13829 0.48222-0.32837 0.98198-0.47042 1.4317-0.0697 0.22075-0.12636 0.42625-0.16177 0.61835-0.0371 0.20131-0.0496 0.38125-0.0327 0.54427 0.019 0.18303 0.0747 0.33841 0.16471 0.47184 0.11852 0.17565 0.28609 0.29648 0.44896 0.37538-0.16097-0.078-0.33981-0.18349-0.48621-0.34619-0.11261-0.12516-0.20187-0.27921-0.25841-0.47494-0.0503-0.17433-0.0717-0.3708-0.0686-0.59245 3e-3 -0.21075 0.0277-0.43565 0.0647-0.67296 0.0753-0.48359 0.19531-1.0038 0.27008-1.4736 0.10794-0.67805 0.1051-1.0959 0.0738-1.4619l0.33692-0.0288z"/>
</svg>
