<svg cursor="default" version="1.1" viewBox="0 0 256 256" xmlns="http://www.w3.org/2000/svg" xmlns:xlink="http://www.w3.org/1999/xlink">
 <defs>
  <linearGradient id="innoGrad1">
   <stop stop-color="#f95" offset="0"/>
   <stop stop-color="#ffb380" offset="1"/>
  </linearGradient>
  <linearGradient id="linearGradient4687" x1="3.0051" x2="16.491" y1="145.75" y2="97.608" gradientUnits="userSpaceOnUse" xlink:href="#innoGrad1"/>
  <linearGradient id="linearGradient4695" x1="142.76" x2="175.46" y1="122.02" y2="74.789" gradientUnits="userSpaceOnUse" xlink:href="#innoGrad1"/>
 </defs>
 <g stroke="#000" stroke-linecap="round" stroke-linejoin="round">
  <path d="m192.91 136.15c-0.71228 5.9434 0.72008 16.546 9.3002 20.997-3.5666-4.1686-7.0949-8.0176-7.5744-21.477z" fill="#f55" stroke-width=".75"/>
  <path d="m249.38 121.73c-0.0298-0.3628-1.4342-0.15378-1.4342-0.15378 1.7274 6.7705-6.5781 29.661-24.116 36.268-9.7158 3.66-17.975 1.029-17.975 1.029s9.2229 3.8085 18.505 0.47939c16.22-5.8178 26.102-24.464 25.02-37.622z" fill="#f55" stroke-width=".5"/>
  <path d="m136.03 110.17c-2.2449 2.0007-6.4756 5.2915-6.4756 5.2915-2.6954 2.1511 0.95694 9.3581 3.4576 6.3729 0 0 7.475-8.44 10.847-12.949 5.5698-7.4472 14.385-16.9 17.288-18.373 3.7228-1.8888 6.3763-1.8465 9.5593-0.94915 4.7253 1.3321 6.6212 2.287 9.6271 3.3898 1.8928 0.30644 1.7615-2.9654 0.67797-3.5254-2.8062-1.0773-5.4256-2.1814-9.0833-3.1371-4.2912-1.1212-10.953-0.07697-14.372 2.7763-4.2401 3.5386-13.772 14.192-21.526 21.103z" fill="url(#linearGradient4695)" stroke-width=".75"/>
 </g>
 <g stroke="#000" stroke-linecap="round" stroke-linejoin="round">
  <path d="m17.306 115.2c-0.60762 0.40078-1.2959 0.45552-2.1093-0.0959l-7.143-4.8419c-0.67598-0.45822-1.9933-0.43249-2.0614 1.4861-0.32082 9.0446-0.22174 18.089 0.47939 27.134 0.32693 4.2174-3.7645 4.0063-3.8352-1e-5 -0.15864-8.9955-0.25683-17.93-0.28764-26.798-0.013254-3.8147 2.9023-7.1316 5.4651-6.0883 3.617 1.4724 6.051 3.1344 9.5879 5.7527 0.7972 0.59015 0.70416 2.9239-0.09588 3.4516z" fill="url(#linearGradient4687)" stroke-width=".75"/>
  <ellipse transform="rotate(16.193)" cx="193.67" cy="100.31" rx="3.8787" ry="7.1386" fill="#e3dbdb" fill-opacity=".50196" stroke-width=".41293"/>
  <path d="m16.407 112.61-0.0678 2.3051c16.688 12.274 34.23 23.837 53.085 34.305l0.27119-3.9322 2.3729-2.1695-2.6441 0.0678-12.61-6.5085-1.0169-0.0678c-15.71-8.5229-28.41-17.023-38.644-24.068z" fill="#ff8080" stroke-width=".75"/>
  <path d="m16.407 112.61c-0.20824 0.71795 31.745 22.482 53.288 32.678" fill="none" stroke-width=".5"/>
 </g>
 <g stroke="#000" stroke-linecap="round" stroke-linejoin="round">
  <path d="m96.949 149.22-1.9661-1.1525c-2.8831 8.4708 0.24372 18.258 3.7966 22.237-2.4373-7.2475-3.8797-14.376-1.8305-21.085z" fill="#f55" stroke-width=".75"/>
  <path d="m100.95 170.85s9.3047 10.582 32.678 6.5085c19.267-3.3576 34.453-26.577 34.983-40.814l0.81356 0.20339c1.2662 14.025-15.717 38.91-35.186 42.373-26.78 4.7627-33.288-8.2712-33.288-8.2712z" fill="#f55" stroke-width=".5"/>
  <path d="m96.949 149.22s-0.39193 4.6967-0.47458 7.0508c-0.6981 19.885 20.794 26.19 37.356 22.373 27.156-6.2582 36.409-35.931 35.593-41.898l0.74576 0.0678c0.11371 12.385-12.193 36.653-36.068 42.847-13.756 3.5688-39.839-0.56781-39.254-22.712 0.08178-3.097 2.1017-7.7288 2.1017-7.7288z" fill="#ff8080" stroke-width=".5"/>
  <path d="m69.424 149.22 10.373 5.9661c2.7894 1.6044 5.1698 1.5649 8.0678 1.2203l9.6949-1.1525 0.27119-5.1526-9.3559 1.0848c-3.1353 0.36352-6.6208-0.20578-8.1356-1.1525l-4.8814-3.0508c2.5951-1.9644-2.0822-4.3366-3.3898-3.8644l-2.3729 2.1695z" fill="#f55" stroke-width=".75"/>
 </g>
 <g stroke="#000" stroke-linecap="round" stroke-linejoin="round">
  <path d="m69.695 145.29 9.2881 5.3559c2.9747 1.7153 5.8557 1.8729 8.678 1.4915l10.034-1.3559" fill="none" stroke-width=".5"/>
  <ellipse cx="73.254" cy="144.81" rx="1.6329" ry=".85327" fill="#faa" stroke-width=".55617"/>
  <path d="m71.864 144.75 2.7119 0.0678" fill="none" stroke-width=".5"/>
  <path d="m181.21 90.417-0.95878 0.28764-0.0479 1.6779 46.933 19.032 0.19176 0.47939 11.985 4.9378 0.19176-3.0681 1.1505-0.67115z" fill="#ff8080" stroke-width=".75"/>
  <path d="m180.25 90.705 59.253 23.059" fill="none" stroke-width=".5"/>
  <path d="m240.66 113.09-1.1505 0.67115-0.19176 3.0681s0.59406 1.7582 1.3642 1.9818c1.7545 0.50937 3.0977 0.27119 3.017 0.27119 3.8746 1.526 3.3208 1.6536 5.2203 2.4068l-0.47458-0.0339-0.0339 4.7797s3.1225 0.0746 4.5424-0.47458c0.8895-0.34404 2.3051-1.6949 2.3051-1.6949l0.23729-3.8983c-2.9725-1.6482-10.689-5.4535-14.835-7.077z" fill="#f55" stroke-width=".75"/>
 </g>
 <path d="m248.92 121.49-0.0176 0.24006c0.51571 0.0378 1.4342-0.0169 2.5125-0.29415 1.1213-0.2883 1.8324-0.65779 2.3018-0.91201-0.44373 0.24035-1.259 0.52776-2.3482 0.67582-1.111 0.15104-1.9222 0.0876-2.4308 0.0502l-0.0176 0.24006z"/>
 <g stroke="#000" stroke-linecap="round" stroke-linejoin="round">
  <g stroke-width=".5">
   <path d="m162.32 154.7s-0.54293-2.5369-0.3356-3.7872c0.22588-1.3622 1.2207-2.5802 1.6779-3.8831 0.86852-2.4753-0.26318-4.5897-1.5341-3.0202-0.72098 0.89035-2.2052 3.5955-2.2052 3.5955 0.64069 0.61972 1.3776 0.93487 1.3902 1.6779 0.0133 0.7829-0.66952 3.8883-2.397 4.3146-1.0768 0.2657-4.3376-1.6478-4.4104-3.1161-0.0627-1.2639 0.68422-2.7644 2.2532-3.979 0.28823-0.22312 0.91611-0.10659 1.582 0.0479 0.74614-1.2837 0.80962-1.508 2.397-4.1228 1.2096-1.9925 6.1228-0.56905 4.8419 4.2666l-1.2464 4.6981z" fill="#f55"/>
   <path d="m194.73 146.46h-0.77767c-0.50387-3.682-1.7205-5.5735-1.7152-4.8419 0.01 1.31 0.61105 2.2312 0.30408 3.4424-0.24926 0.98357-1.1068 1.3106-2.1176 0.98688 0.19668 0.56384 0.30354 1.511 0.09 1.8086-0.5411 0.75453-2.7111 0.91642-3.24 0.23629-0.69076-0.88828-1.3152-2.5318-1.0513-4.946 0.065-0.59465 2.297-1.2638 2.8986-0.90504 0.37518 0.22372 0.46194 0.44743 0.57528 0.67115 0.42672-0.92402-0.0235-2.0673-0.67116-3.2599-0.84907-1.5634 1.1107-2.2234 2.1093-1.5341 1.0778 0.74393 1.9224 1.721 2.7326 2.7326z" fill="#f55"/>
   <ellipse transform="rotate(-14.895)" cx="144.19" cy="189.01" rx="2.7797" ry="7.6271" fill="#e3dbdb" fill-opacity=".50196"/>
   <path d="m194.54 140.32c0.20016 15.969 12.308 23.134 26.319 20.518 18.188-3.3952 29.608-25.143 28.86-39.167l-0.81892 0.0579c1.7079 10.027-8.4436 34.412-28.133 38.322-11.783 2.3401-24.296-2.8631-25.267-19.971z" fill="#ff8080"/>
   <path d="m227.33 111.89 0.1364-2.7742 0.97348-0.523" fill="none"/>
   <path d="m94.983 148.07 1.567-2.4244c0.76143-1.1781 2.1599-2.0824 4.1228-2.5887 19.283-4.9743 54.608-11.356 62.225-10.547 2.6486 0.38585 6.2528 1.2726 7.2713 4.3056-2.0459 9.8366-5.5792 19.346-13.28 27.804-6.3899 7.0172-15.137 12.242-22.196 13.737-14.757 3.1265-25.321-0.6983-29.746-3.9952-7.8473-5.8474-9.2795-12.262-7.9985-25.139z" fill="#fff6d5" opacity=".5"/>
   <path d="m96.949 149.22s0.55306-1.2678 1.0169-1.7627c1.0587-1.1296 2.381-2.1334 3.8644-2.5763 10.143-3.0286 44.572-10.284 61.424-11.051 3.5569-0.16181 6.1695 2.9152 6.1695 2.9152" fill="none" opacity=".5"/>
   <path d="m194.35 132.41 0.0959-1.0547c0.15972-1.7568 1.72-3.5931 4.5542-4.4584 8.8688-2.7076 26.319-6.3976 42.618-9.3482 3.0451-0.55124 7.2946 1.5907 7.3181 3.7006 0 0 0.26797 3.8716 0.0646 5.7914-0.93234 8.8016-8.3321 26.558-24.568 31.916-9.8753 3.259-17.503 1.2537-22.775-3.7112-5.5555-5.2318-6.601-12.808-7.3081-22.836z" fill="#fff6d5" opacity=".5"/>
   <path d="m196 132.81 0.41018-1.4552c0.4069-1.4436 2.4255-2.5839 4.878-3.2228 15.757-4.1048 33.604-8.3977 42.82-8.9308 2.6891-0.15554 3.2619 1.6571 4.79 2.5268" fill="none" opacity=".5"/>
  </g>
  <path d="m168.12 146.65c-0.0597 0.79692 2.1542 1.3834 2.7325-0.0959l2.0614-5.2733c0.44231-1.1315 1.3836-1.5501 2.5887-1.7258l18.265-2.4928 0.62322 3.8831c0.32967 2.0541 4.1102 2.4157 3.7872-0.38352l-0.71908-6.2321c-0.0324-1.068-0.69299-2.1788-2.2532-1.8696-7.1086 1.4088-14.222 2.5617-21.333 3.0681-1.2591 0.0897-2.8464 0.87951-3.5475 2.349-1.6953 3.553-1.9093 4.826-2.2052 8.7729z" fill="#ff8080" stroke-width=".75"/>
  <ellipse cx="242.03" cy="115.31" rx="1.2104" ry=".54941" fill="#faa" stroke-width=".38423"/>
  <path d="m241 115.26 2.0102 0.0437" fill="none" stroke-width=".34543"/>
  <path d="m55.797 136.61-1.3559 0.57627 0.0339 3.1186" fill="none" stroke-width=".5"/>
 </g>
 <path d="m193.77 137.06c7e-3 -8.5e-4 0.0849 0.37817 0.0948 0.37668 0.0504-8e-3 0.11344-0.0265 0.19112-0.0571 0.0746-0.0293 0.16231-0.0692 0.26177-0.11817 0.16848-0.0829 0.37203-0.19267 0.57428-0.30751 0.20542-0.11663 0.38889-0.22671 0.54702-0.32509 0.20221-0.1258 0.3326-0.21468 0.3924-0.23998-0.0611 0.0258-0.21402 0.0532-0.44831 0.0919-0.17005 0.0281-0.40372 0.0651-0.62053 0.0957-0.23409 0.033-0.43868 0.0573-0.61984 0.0725-0.10432 9e-3 -0.18398 0.0131-0.25141 0.016-0.0671 3e-3 -0.11386 4e-3 -0.14147 8e-3 -6e-3 8.5e-4 0.0273 0.38593 0.0202 0.38678z"/>
 <path d="m192.26 141.59s0.27472-0.0489 0.27472-0.0489c-0.0768-0.43161-0.27402-0.87684-0.5551-1.2877-0.2898-0.42356-0.47254-0.60667-0.58253-0.89264 0.0183 0.0477 0.26006 0.77074 0.3307 1.0128 0.16026 0.5492 0.1705 0.77638 0.25749 1.2652 0 0 0.27472-0.0489 0.27472-0.0489z"/>
 <g fill="#ffd5d5">
  <path d="m173.64 136.39c0.86713-0.0107 2.3709-0.10816 4.4613-0.34473 2.1298-0.24102 4.4429-0.57758 6.7118-0.96779 2.2188-0.3816 3.6696-0.68494 4.834-0.91013 0.25809-0.0499 0.61696-0.10417 1.0274-0.16285 2.026-0.28967 3.9317-0.54381 4.8494-0.85645-0.74061 0.2523-2.9993 1.1598-4.6902 1.6226-0.40474 0.11076-0.76071 0.19739-1.022 0.24792-1.0616 0.20531-2.7732 0.46768-4.9062 0.70851-2.2985 0.2595-4.6417 0.44492-6.7855 0.54928-2.1855 0.10639-3.5346 0.10196-4.48 0.11365z"/>
  <path d="m253.46 119.95c-0.44999-0.20503-1.7486-1.01-2.2052-1.2457-0.20454-0.10555-2.0745-1.0604-2.8463-1.4484-2.3613-1.1872-3.5719-1.7035-4.8241-2.1478 1.1374 0.40358 2.5322 1.1067 4.7299 2.3259 1.2769 0.70837 2.0656 1.1533 2.8041 1.5344 0.45819 0.23646 1.8915 0.77652 2.3415 0.98155z"/>
  <path d="m86.962 151.76c-0.94747 0.0794-2.2297 0.088-3.5134-0.17434-0.9752-0.19928-1.7449-0.5064-2.2565-0.71019-0.20318-0.0809-0.45934-0.18494-0.77647-0.32434-0.97944-0.43052-2.0081-0.96058-3.6946-1.8808-1.7694-0.9655-4.0172-2.193-5.3394-2.9027 1.694 0.90926 3.2393 1.8114 5.2784 3.0103 1.6472 0.96852 2.6735 1.5576 3.643 2.0191 0.31597 0.15042 0.57675 0.26296 0.78283 0.34505 0.51624 0.20566 1.3372 0.47214 2.3342 0.61009 1.3373 0.18501 2.5777 0.0886 3.5418 8e-3z"/>
 </g>
</svg>
