<svg cursor="default" version="1.1" viewBox="0 0 256 256" xmlns="http://www.w3.org/2000/svg" xmlns:xlink="http://www.w3.org/1999/xlink">
 <defs>
  <linearGradient id="linearGradient970" x1="70.237" x2="77.559" y1="137.36" y2="137.22" gradientTransform="translate(1.0847 -2.4407)" gradientUnits="userSpaceOnUse">
   <stop stop-color="#f55" offset="0"/>
   <stop stop-color="#ff8080" offset="1"/>
  </linearGradient>
 </defs>
 <path d="m241.93 108.19 4.7966-2.864-48.419-11.697c-1.2794-0.30909-7.2482-1.144-31.992-0.45096z" fill="#faa" stroke="#000" stroke-linecap="round" stroke-linejoin="round" stroke-width=".5"/>
 <g fill="#f55" stroke="#000" stroke-linecap="round" stroke-linejoin="round" stroke-width=".5">
  <path d="m240.34 114.92c-7.983-3.3294-17.854-5.3372-26.983-7.8644-5.4689-0.0452-15.096-0.234-16.023-0.47118-1.1322-0.28948-14.336-11.088-29.265-9.6983-8.1059 0.75441-15.249 7.805-28.949 18.373-6.1069 4.7107-11.162-5.0885-6.3729-7.1864 11.333-4.9647 29.032-15.16 33.998-14.894 10.627 0.56896 26.349-0.25501 31.901 1.2669l46.45 12.172z"/>
  <path d="m190.58 158.85c5.2261 2.6401 27.429 2.5546 38.102-7.1186 8.9331-8.0963 8.6628-31.543 7.1864-42.237 5.6264-4.8987 10.564 13.856-1.017 41.695-12.286 12.826-42.567 14.767-44.271 7.661z"/>
  <path d="m90.827 171.1c10.06 6.2594 30.214 5.2968 47.939-2.6846 6.2785-2.8271 10.037-9.5129 12.56-23.394 0.72006-3.9613 3.143-5.6268 4.794-8.1018 1.3027-1.9528 0.56212-7.4717 0.38351-11.362 6.9986 2.1204 13.995 18.85-13.327 45.255-35.2 14.215-52.082 6.6819-52.35 0.28764z"/>
 </g>
 <g stroke="#000" stroke-linecap="round" stroke-linejoin="round">
  <path d="m71.322 128.27c1.8953 0.34707 2.4326 1.2458 8.1437-0.3132 35.868-9.791 50.821-11.932 81.785-5.2254 3.2115 0.69558 10.577 0.10483 13.059-1.0174 10.907-4.93 22.215-17.675 63.874-17.533l-3.0238-0.32146 3.0103-0.57503 7.5677 1.8031c-15.805 1.2664-51.33 6.3586-66.654 19.57-2.3939 2.0639-15.496 0.26021-18.708 1.613-58.463-13.554-91.066 14.93-90.642 2.9325z" fill="#faa" stroke-width=".5"/>
  <ellipse cx="236.44" cy="103.47" rx="1.3257" ry=".41049" fill="#faa" stroke-width=".17478"/>
  <path d="m96.746 174.98c5.9669 2.7854 33.751 4.9436 49.898-9.3559 7.3276-6.4891 14.582-20.594 11.051-36.136-1.3317-5.861-23.944-5.5146-36-4.7458-19.4 1.2372-33.853 7.565-34.237 15.322-1.4056 28.4 2.5186 31.755 9.2881 34.915z" fill="#ffe6d5" fill-opacity=".50196" stroke-width=".25"/>
  <path d="m191.93 158.51c-10.112-7.977-10.437-28.682-9.7627-30.712 1.9299-5.8124 17.746-13.079 27.593-15.186 8.9911-1.924 27.606-5.0892 28.504 0.70064 2.5127 16.195 0.68979 28.539-4.7438 36.897-6.2147 9.56-34.129 14.188-41.591 8.3007z" fill="#ffe6d5" fill-opacity=".50196" stroke-width=".25"/>
 </g>
 <g stroke="#000" stroke-linecap="round" stroke-linejoin="round">
  <g stroke-width=".5">
   <path d="m8.6592 134.24c0.11818 0.81327 2.7121 0.1339 2.9722-1.1026 1.6782-7.9776 1.4291-15.232 4.6501-19.703-7.9714 2.2689-7.4091 11.825-7.6224 20.806z" fill="#ff2a2a"/>
   <path d="m12.762 111.69c0.4216-0.80952 2.421-1.2314 3.9165-1.3847 2.223 0.15019 27.332 7.9261 54.644 17.966l-1.588 0.93323z" fill="#faa"/>
   <path d="m69.961 138.64-25.107-9.3879c-2.8017-1.0476-10.049-0.79403-11.314-1.3902-1.4119-0.66566-16.626-15.125-18.265-13.759-4.6492 3.8749-5.1799 11.961-6.328 19.991-0.26344 1.8425-4.3958-5.3281-2.9243-8.6291 2.2851-5.126 4.5702-10.428 6.8553-13.95 2.0959-3.2311 37.904 11.793 56.856 17.69 2.9297 2.7143 3.1679 7.4447 0.22665 9.4358z" fill="#f55"/>
   <path d="m239.47 104.9c-28.336 0.1701-45.474 6.176-62.057 17.865-2.7477 1.9369-12.344 1.9123-15.156 1.3555-15.962-3.1597-36.329-11.245-82.264 5.1758-3.3549 1.1993-6.3644 1.1256-10.26-0.0957l0.22656 9.4356 4.9512 1.9746c2.2412 0.85012 3.4106 2.2488 4.2188 5.8476 2.098 9.3422 4.6653 26.096 13.771 31.012 10.973 5.9241 40.989 2.3905 54.957-9.1855 9.0544-7.5041 12.514-18.458 17.432-29.189 1.0262-2.2393 11.504-4.1103 11.965-2.3691 2.4654 9.3144 3.262 20.182 15.971 26.416 7.7677 3.8105 31.054 0.67809 41.385-10.535 4.119-4.4709 7.0917-16.237 9.623-30.98 0.47217-2.7502 2.5865-6.2075 2.6621-7.8633 0.10363-2.2685 0.31054-6.8066 0.31054-6.8066-0.0182-1.5076-0.56966-1.9842-1.918-2.0117-1.9917-0.0406-3.9293-0.0563-5.8184-0.0449zm-10.266 5.0977c4.8856-0.0412 8.6695 0.77751 9.0625 3.3105 2.5127 16.195 0.68942 28.538-4.7441 36.896-6.2147 9.56-34.128 14.188-41.59 8.3008-10.112-7.977-10.438-28.683-9.7637-30.713 1.9299-5.8124 17.747-13.078 27.594-15.186 5.0575-1.0822 13.16-2.5564 19.441-2.6094zm-94.086 14.324c10.687 0.0414 21.661 1.1366 22.576 5.166 3.5313 15.542-3.7232 29.648-11.051 36.137-16.147 14.3-43.932 12.141-49.898 9.3555-6.7695-3.16-10.693-6.5159-9.2871-34.916 0.38393-7.757 14.836-14.085 34.236-15.322 3.7675-0.24026 8.5661-0.43872 13.424-0.41993z" fill="url(#linearGradient970)"/>
  </g>
  <ellipse cx="70.712" cy="128.63" rx="1.247" ry=".55213" fill="#faa" stroke-width=".19659"/>
 </g>
</svg>
