<svg xmlns="http://www.w3.org/2000/svg" xmlns:xlink="http://www.w3.org/1999/xlink" viewBox="0 0 256 256">
    <defs>
        <linearGradient id="linearGradient4207">
            <stop offset="0" stop-color="#fff6d4"/>
            <stop offset=".455" stop-color="#ffefb4" stop-opacity=".773"/>
            <stop offset="1" stop-color="#ffdb47" stop-opacity="0"/>
        </linearGradient>
        <radialGradient id="radialGradient4215" cx="130.89" cy="135.363" r="74.165" fx="130.89" fy="135.363" gradientTransform="matrix(1 0 0 .98413 -4.04 6.034)" gradientUnits="userSpaceOnUse" xlink:href="#linearGradient4207"/>
    </defs>
    <g fill-rule="evenodd">
        <path fill="#fc0" stroke="#fc0" stroke-width="4.84" d="M122.503 98.164l58.872-79.535-25.419 94.204 77.937-31.083-70.38 51.316 81.23 34.178-90.977-12.282 44.336 69.508-63.153-52.946-5.746 63.302-10.536-59.103-43.217 45.24 21.057-59.3-69.179 32.713 64.273-47.826s-63.12-4.199-60.585-5.22c2.535-1.02 63.68-6.486 63.68-6.486L25.534 84.17l79.748 29.766s-22.489-81.84-21.37-80.522c1.12 1.317 38.59 64.75 38.59 64.75z"/>
        <path fill="url(#radialGradient4215)" d="M125.122 110.871l39.41-53.242-17.016 63.062 52.173-20.808-47.114 34.353 54.377 22.879-60.902-8.222 29.68 46.53-42.277-35.443-3.846 42.376-7.053-39.565-28.93 30.285 14.096-39.697-46.31 21.898 43.025-32.015s-42.254-2.81-40.556-3.494c1.697-.683 42.628-4.342 42.628-4.342L60.21 101.503l53.385 19.926S98.539 66.644 99.289 67.526c.75.882 25.833 43.345 25.833 43.345z"/>
    </g>
</svg>
