<svg xmlns="http://www.w3.org/2000/svg" viewBox="0 0 256 256">
    <path fill="#93a7ac" fill-rule="evenodd" d="M184.062 90.244c44.74 28.587 78.296-43.595 19.052-48.976-10.008-27.576-48.013-41.113-86.076-13.06-79.595-4.679-50.846 96.851 15.65 63.817 16.66 8.327 33.807 7.304 51.374-1.78z"/>
    <path fill="#b7c4c8" fill-rule="evenodd" d="M84.17 121.42C30.6 154.521-9.577 70.936 61.358 64.706 73.34 32.776 118.846 17.1 164.42 49.584c95.302-5.418 60.88 112.15-18.738 73.897-19.948 9.642-40.478 8.458-61.512-2.062z"/>
    <path fill="none" stroke="#5fbcd3" stroke-dasharray="14.28060916,28.56121833" stroke-linecap="round" stroke-linejoin="round" stroke-width="14.281" d="M179.48 143.681l-38.782 89.705M132.216 142.07L90.655 230.51M79.263 140.35l-43.329 86.926"/>
</svg>
