<svg xmlns="http://www.w3.org/2000/svg" viewBox="0 0 256 256">
    <g fill-rule="evenodd">
        <path fill="#ff80b2" d="M51.738 114.105c33.142 43.9 142.072 27.987 162.029 0-15.39 64.283-149.923 61.378-162.03 0z"/>
        <path fill="#ff80b2" d="M65.685 75.957c27.102 31.06 116.177 19.8 132.497 0-12.586 45.48-122.597 43.425-132.497 0zM80.523 36.02c21.354 23.434 91.538 14.94 104.397 0-9.916 34.315-96.596 32.764-104.397 0zM26.39 147.1c43.598 67.044 186.89 42.742 213.142 0-20.245 98.173-197.216 93.736-213.142 0z"/>
        <path fill="#d40055" d="M31.739 158.737c56.022 55.82 181.685 31.842 202.95-2.778-23.218 78.257-175.403 78.703-202.95 2.778z"/>
    </g>
</svg>
