<svg xmlns="http://www.w3.org/2000/svg" viewBox="0 0 256 256">
    <path fill="#ff64e0" fill-rule="evenodd" stroke="#660052" stroke-width="8.12" d="M129.395 229.097c-45.021-42.82-78.556-98.43-78.019-168.058 10.751-.157 49.308-18.712 77.744-40.021 9.059 6.249 18.678 12.192 27.98 17.474 6.919 3.93 7.01 16.97 7.01 16.97s21.572-2.479 27.66.297c6.167 2.811 11.196 4.117 14.053 4.364.04 19.601-2.403 37.857-6.926 54.993-1.462 5.539-11.096 15.38-11.096 15.38l-13.248.681 8.715 13.254s.285 11.36-2.463 16.522c-5.525 10.381-11.842 20.34-18.823 29.947-2.155 2.967-16.295 3.446-16.295 3.446s4.943 11.232 2.504 14.124c-5.942 7.045-12.226 13.91-18.796 20.627z"/>
    <path fill="#941079" fill-rule="evenodd" d="M55.383 64.808c12.593-3.225 51.813-24.035 73.552-39.232-.183 36.557 1.625 128.446.344 198.098-64.132-63.278-74.255-122.76-73.896-158.866z"/>
    <path fill="#fae" fill-rule="evenodd" stroke="#f0c" stroke-width="5.6025" d="M129.837 194.227C98.776 164.685 75.64 126.318 76.01 78.282c7.418-.108 34.019-12.91 53.637-27.611 5.657 2.983 16.263 125.933.19 143.556z"/>
    <path fill="#fae" fill-rule="evenodd" stroke="#f0c" stroke-width="5.6025" d="M129.837 194.227c-31.1-33.404-27.99-125.05-.19-143.556a245.816 245.816 0 0 0 9.587 6.276c3.801 2.368 6.595 20.12 6.595 20.12s11.931-9.514 15.268-7.842c9.833 4.926 17.938 8.12 21.468 8.425.031 15.616-2.22 29.994-6.33 43.374-.472 1.539-8.75 1.653-8.75 1.653l-7.174-3.882.163 11.524s8.7 9.327 6.323 14.023c-3.315 6.546-7.084 12.848-11.245 18.943-1.834 2.688-17.317 5.9-17.317 5.9s7.144 7.748 4.8 10.536c-4.167 4.957-8.58 9.784-13.198 14.506z"/>
    <path fill="#ff8ce7" fill-rule="evenodd" d="M78.774 80.882c8.689-2.225 35.747-16.582 50.745-27.067-.126 25.222 1.121 88.617.237 136.67-44.245-43.655-51.23-84.693-50.982-109.603z"/>
    <path fill="none" stroke="#f0c" stroke-linecap="round" stroke-width="7.5492" d="M106.136 143.738l23.163-69.907 24.022 69.543-61.926-42.616 76.51.133z"/>
</svg>
