<svg xmlns="http://www.w3.org/2000/svg" viewBox="0 0 256 256">
    <path fill="#fae" fill-rule="evenodd" stroke="#f0c" stroke-width="6.225" d="M129.209 204.893C94.697 172.069 68.99 129.439 69.402 76.065c8.241-.12 37.798-14.344 59.596-30.68 6.286 3.316 18.07 139.927.211 159.508z"/>
    <path fill="#fae" fill-rule="evenodd" stroke="#f0c" stroke-width="6.225" d="M129.209 204.893c-34.556-37.116-31.1-138.944-.211-159.507a273.13 273.13 0 0 0 10.652 6.974c4.224 2.63 7.328 22.355 7.328 22.355s13.257-10.57 16.964-8.714c10.926 5.474 19.932 9.023 23.854 9.362.035 17.35-2.467 33.327-7.032 48.193-.525 1.71-9.723 1.836-9.723 1.836l-7.971-4.312.18 12.804s9.667 10.363 7.025 15.58c-3.682 7.274-7.87 14.276-12.493 21.049-2.038 2.986-19.242 6.556-19.242 6.556s7.939 8.609 5.334 11.706c-4.63 5.508-9.534 10.872-14.665 16.118z"/>
    <path fill="#ff8ce7" fill-rule="evenodd" d="M72.473 78.954c9.654-2.472 39.719-18.425 56.383-30.074-.14 28.024 1.246 98.463.263 151.856-49.16-48.507-56.92-94.104-56.646-121.782z"/>
    <path fill="none" stroke="#f0c" stroke-linecap="round" stroke-width="8.388" d="M102.874 148.794l25.738-77.675 26.69 77.271-68.806-47.351 85.012.148z"/>
</svg>
