<?xml version="1.0" encoding="UTF-8" standalone="no"?>
<!-- Created with Inkscape (http://www.inkscape.org/) -->

<svg
   xmlns:dc="http://purl.org/dc/elements/1.1/"
   xmlns:cc="http://creativecommons.org/ns#"
   xmlns:rdf="http://www.w3.org/1999/02/22-rdf-syntax-ns#"
   xmlns:svg="http://www.w3.org/2000/svg"
   xmlns="http://www.w3.org/2000/svg"
   xmlns:xlink="http://www.w3.org/1999/xlink"
   xmlns:sodipodi="http://sodipodi.sourceforge.net/DTD/sodipodi-0.dtd"
   xmlns:inkscape="http://www.inkscape.org/namespaces/inkscape"
   viewBox="0 0 256 256"
   id="svg2"
   version="1.1"
   inkscape:version="0.91 r13725"
   sodipodi:docname="elemental_water_binding_of_water.svg">
  <style
     id="style3">
    svg { cursor: pointer;}
  </style>
  <defs
     id="defs4">
    <linearGradient
       inkscape:collect="always"
       xlink:href="#elementalWater3"
       id="linearGradient4213"
       gradientUnits="userSpaceOnUse"
       x1="138.31819"
       y1="102.4065"
       x2="143.08009"
       y2="207.56522"
       gradientTransform="matrix(0.729,0,0,0.729,34.430115,41.122236)" />
    <linearGradient
       id="elementalWater3"
       inkscape:collect="always">
      <stop
         id="stop4219"
         offset="0"
         style="stop-color:#80e5ff;stop-opacity:1;" />
      <stop
         id="stop4221"
         offset="1"
         style="stop-color:#18d0ff;stop-opacity:1" />
    </linearGradient>
    <inkscape:path-effect
       effect="powerstroke"
       id="path-effect4269"
       is_visible="true"
       offset_points="0.57016743,2.8325467"
       sort_points="true"
       interpolator_type="Linear"
       interpolator_beta="0.2"
       start_linecap_type="zerowidth"
       linejoin_type="round"
       miter_limit="4"
       end_linecap_type="zerowidth"
       cusp_linecap_type="round" />
  </defs>
  <sodipodi:namedview
     id="base"
     pagecolor="#ffffff"
     bordercolor="#666666"
     borderopacity="1.0"
     inkscape:pageopacity="0.0"
     inkscape:pageshadow="2"
     inkscape:zoom="1.979899"
     inkscape:cx="55.660318"
     inkscape:cy="148.41489"
     inkscape:document-units="px"
     inkscape:current-layer="layer2"
     showgrid="false"
     units="px"
     inkscape:window-width="2560"
     inkscape:window-height="1388"
     inkscape:window-x="-8"
     inkscape:window-y="-8"
     inkscape:window-maximized="1" />
  <metadata
     id="metadata7">
    <rdf:RDF>
      <cc:Work
         rdf:about="">
        <dc:format>image/svg+xml</dc:format>
        <dc:type
           rdf:resource="http://purl.org/dc/dcmitype/StillImage" />
        <dc:title />
      </cc:Work>
    </rdf:RDF>
  </metadata>
  <g
     inkscape:groupmode="layer"
     id="layer2"
     inkscape:label="Layer 2"
     style="display:inline">
    <path
       style="display:inline;fill:#80e5ff;fill-opacity:1;fill-rule:evenodd;stroke:#000000;stroke-width:0.98843998px;stroke-linecap:butt;stroke-linejoin:miter;stroke-opacity:0"
       d="M 55.236787,153.90883 C 53.719519,110.08257 107.55305,63.873028 125.92798,20.307088 148.12258,68.014866 203.7642,103.1297 203.39194,153.44403 Z"
       id="path4284"
       inkscape:connector-curvature="0"
       sodipodi:nodetypes="cccc" />
    <ellipse
       style="display:inline;opacity:1;fill:url(#linearGradient4213);fill-opacity:1;stroke:none;stroke-width:8.05607319;stroke-linecap:round;stroke-linejoin:round;stroke-miterlimit:4;stroke-dasharray:none;stroke-dashoffset:0;stroke-opacity:1"
       id="path4205"
       cx="129.32817"
       cy="153.20393"
       rx="73.958061"
       ry="69.997498" />
    <g
       id="g4193">
      <path
         sodipodi:nodetypes="cccc"
         inkscape:connector-curvature="0"
         id="path4182"
         d="m 143.29534,206.79036 c -0.0347,-3.66972 -1.28842,-3.75965 -1.28842,-3.75965 -2.3689,-6.39499 -3.97195,-16.48276 -5.61611,-21.74184 -2.65176,-5.79619 -4.0819,-11.3393 -4.76714,-17.6284"
         style="display:inline;fill:none;fill-rule:evenodd;stroke:#ecfbff;stroke-width:4.52594805px;stroke-linecap:butt;stroke-linejoin:miter;stroke-opacity:1" />
      <path
         sodipodi:nodetypes="cccc"
         inkscape:connector-curvature="0"
         id="path4184"
         d="m 120.75587,161.9376 -0.10062,18.00655 c -0.66135,5.1938 -1.06455,16.90293 -1.26878,21.01428 -0.36963,3.24118 -1.00263,0.9068 -1.18766,4.88811"
         style="display:inline;fill:none;fill-rule:evenodd;stroke:#ecfbff;stroke-width:4.52594805px;stroke-linecap:butt;stroke-linejoin:miter;stroke-opacity:1" />
      <path
         sodipodi:nodetypes="csc"
         inkscape:connector-curvature="0"
         id="path4188"
         d="m 121.82902,135.74394 c -5.19547,0.11975 -6.69624,6.68097 -6.46494,8.08339 0.27192,1.64868 5.4124,5.6408 5.47626,10.30469"
         style="display:inline;fill:none;fill-rule:evenodd;stroke:#ecfbff;stroke-width:3.76348686;stroke-linecap:butt;stroke-linejoin:miter;stroke-miterlimit:4;stroke-dasharray:none;stroke-opacity:1" />
      <path
         sodipodi:nodetypes="csc"
         inkscape:connector-curvature="0"
         id="path4190"
         d="m 132.54716,135.57182 c 6.64155,0.08 8.50672,6.0713 8.42434,8.55935 -0.0433,1.30539 -7.82442,3.84422 -8.96852,10.73765"
         style="display:inline;fill:none;fill-rule:evenodd;stroke:#ecfbff;stroke-width:3.76348686;stroke-linecap:butt;stroke-linejoin:miter;stroke-miterlimit:4;stroke-dasharray:none;stroke-opacity:1" />
      <g
         transform="matrix(0.62311558,0,0,0.63140735,46.652285,71.041688)"
         style="display:inline;fill:#ecfbff;fill-opacity:1;stroke:#ecfbff;stroke-opacity:1"
         id="g4519">
        <path
           style="fill:#ecfbff;fill-opacity:1;fill-rule:evenodd;stroke:#ecfbff;stroke-width:3.60778332;stroke-linecap:butt;stroke-linejoin:miter;stroke-miterlimit:4;stroke-dasharray:none;stroke-opacity:1"
           d="m 115.46203,148.48201 24.5841,-1.24628 c -1.17045,-8.24284 -0.28546,-15.85485 -5.08332,-24.93615 -3.60229,-6.81835 7.16307,-7.2606 4.72538,-21.5058 -0.3387,-1.979253 -18.29535,-1.397664 -19.14237,0.23247 -7.482,14.39948 8.91974,15.19481 1.73538,21.36304 -5.0238,4.31325 -8.07495,15.92714 -6.81917,26.09272 z"
           id="path4186"
           inkscape:connector-curvature="0"
           sodipodi:nodetypes="ccssssc" />
        <ellipse
           style="opacity:1;fill:#ecfbff;fill-opacity:1;stroke:#ecfbff;stroke-width:3.60778332;stroke-linecap:round;stroke-linejoin:round;stroke-miterlimit:4;stroke-dasharray:none;stroke-dashoffset:0;stroke-opacity:1"
           id="path4194"
           cx="131.00856"
           cy="83.903229"
           rx="7.2058926"
           ry="8.1209126"
           transform="matrix(0.99979578,0.02020871,-0.02020871,0.99979578,0,0)" />
        <path
           style="fill:#ecfbff;fill-opacity:1;fill-rule:evenodd;stroke:#ecfbff;stroke-width:3.60778332;stroke-linecap:butt;stroke-linejoin:miter;stroke-miterlimit:4;stroke-dasharray:none;stroke-opacity:1"
           d="M 134.9454,113.70106 C 111.94474,95.968769 93.332761,83.614925 88.694596,59.213392 63.252753,65.710227 47.757837,79.222839 38.331155,97.013736 l 26.68597,-3.398809 13.849106,12.448113 26.921899,-2.55149 z"
           id="path4198"
           inkscape:connector-curvature="0"
           sodipodi:nodetypes="ccccccc" />
        <path
           style="display:inline;fill:#ecfbff;fill-opacity:1;fill-rule:evenodd;stroke:#ecfbff;stroke-width:3.60778332;stroke-linecap:butt;stroke-linejoin:miter;stroke-miterlimit:4;stroke-dasharray:none;stroke-opacity:1"
           d="m 128.20177,109.71721 c 23.69842,-16.788752 42.79441,-28.381155 48.41484,-52.575355 25.15853,7.519579 40.09471,21.64727 48.79483,39.804642 l -26.52685,-4.473651 -14.3408,11.877474 -26.79682,-3.63642 z"
           id="path4198-0"
           inkscape:connector-curvature="0"
           sodipodi:nodetypes="ccccccc" />
        <path
           style="fill:#ecfbff;fill-opacity:1;fill-rule:evenodd;stroke:#ecfbff;stroke-width:1px;stroke-linecap:butt;stroke-linejoin:miter;stroke-opacity:1"
           d="m 121.51731,101.01904 c 1.303,-4.83708 -0.66059,-8.595615 -0.72322,-13.637738 l 16.93438,-0.937501 c -0.19309,4.982216 -0.77989,11.265083 -0.18492,14.558599 z"
           id="path4488"
           inkscape:connector-curvature="0"
           sodipodi:nodetypes="ccccc" />
        <path
           style="fill:#ecfbff;fill-opacity:1;fill-rule:evenodd;stroke:#ecfbff;stroke-width:1px;stroke-linecap:butt;stroke-linejoin:miter;stroke-opacity:1"
           d="m 124.1124,83.586659 c -8.51343,-7.049407 -8.09503,-13.588423 -8.57143,-20.178571 1.96365,6.215687 2.30851,12.68431 11.51786,17.767857 z"
           id="path4490"
           inkscape:connector-curvature="0"
           sodipodi:nodetypes="cccc" />
        <path
           style="display:inline;fill:#ecfbff;fill-opacity:1;fill-rule:evenodd;stroke:#ecfbff;stroke-width:1px;stroke-linecap:butt;stroke-linejoin:miter;stroke-opacity:1"
           d="m 133.98885,83.318802 c 6.99553,-7.049407 6.65173,-13.588423 7.04319,-20.178571 -1.61354,6.215687 -1.89691,12.68431 -9.46428,17.767857 z"
           id="path4490-2"
           inkscape:connector-curvature="0"
           sodipodi:nodetypes="cccc" />
      </g>
    </g>
    <path
       style="fill:#d5f6ff;fill-rule:evenodd;stroke:none;stroke-width:1px;stroke-linecap:butt;stroke-linejoin:miter;stroke-opacity:1"
       d="m 135.55335,47.215858 c 7.64283,16.006134 20.10072,29.672543 31.23993,43.744154 1.55659,1.966366 3.08272,3.934838 4.56388,5.915204 10.26562,10.985724 19.28229,22.844154 23.21048,37.704924 -2.12036,-15.4522 -9.6263,-28.63169 -18.8384,-41.307514 -1.70038,-1.880903 -3.43582,-3.736319 -5.18787,-5.573295 C 158.1116,74.667055 144.57068,62.281404 135.55335,47.215858 Z"
       id="path4267"
       inkscape:path-effect="#path-effect4269"
       inkscape:original-d="m 135.55335,47.215858 c 16.66858,31.069588 51.96393,52.112488 59.01429,87.364282"
       inkscape:connector-curvature="0" />
    <path
       style="fill:none;fill-rule:evenodd;stroke:#4d4d4d;stroke-width:8;stroke-linecap:round;stroke-linejoin:round;stroke-miterlimit:4;stroke-dasharray:8, 8;stroke-dashoffset:0;stroke-opacity:1"
       d="m 67.175144,112.55835 c 71.821796,20.77583 73.861266,84.38924 107.076166,97.22718"
       id="path4262"
       inkscape:connector-curvature="0"
       sodipodi:nodetypes="cc" />
    <path
       style="fill:none;fill-rule:evenodd;stroke:#999999;stroke-width:5.71800375;stroke-linecap:butt;stroke-linejoin:miter;stroke-miterlimit:4;stroke-dasharray:none;stroke-opacity:1"
       d="m 120.60089,169.63409 c -0.48857,-15.44143 1.4231,-23.49924 8.1259,-23.63006"
       id="path4268"
       inkscape:connector-curvature="0"
       sodipodi:nodetypes="cc" />
    <path
       style="fill:none;fill-rule:evenodd;stroke:#4d4d4d;stroke-width:8;stroke-linecap:round;stroke-linejoin:round;stroke-miterlimit:4;stroke-dasharray:8, 8;stroke-dashoffset:0;stroke-opacity:1"
       d="M 180.81731,93.365446 C 139.36396,118.18369 121.07735,173.73469 86.368042,211.30076"
       id="path4264"
       inkscape:connector-curvature="0"
       sodipodi:nodetypes="cc" />
    <path
       sodipodi:nodetypes="cc"
       inkscape:connector-curvature="0"
       id="path4270"
       d="m 128.25856,145.97301 c 4.29777,0.21586 8.94973,8.35806 9.7683,23.46996"
       style="fill:none;fill-rule:evenodd;stroke:#999999;stroke-width:5.71800375;stroke-linecap:butt;stroke-linejoin:miter;stroke-miterlimit:4;stroke-dasharray:none;stroke-opacity:1" />
    <path
       style="fill:#786721;fill-rule:evenodd;stroke:none;stroke-width:1px;stroke-linecap:butt;stroke-linejoin:miter;stroke-opacity:1"
       d="m 117.24886,197.42575 c 1.70452,1.60621 27.05927,-1.1112 28.4477,-2.83727 1.34721,-1.67483 -0.52604,-26.22301 -2.22419,-27.30142 -3.1901,-2.02587 -26.41954,0.12702 -28.08039,2.13292 -1.78352,2.15406 0.0232,26.27785 1.85688,28.00577 z"
       id="path4266"
       inkscape:connector-curvature="0"
       sodipodi:nodetypes="sssss" />
  </g>
</svg>
