<svg xmlns="http://www.w3.org/2000/svg" xmlns:xlink="http://www.w3.org/1999/xlink" viewBox="0 0 256 256">
    <defs>
        <linearGradient id="dirtyPromises2">
            <stop offset="0" stop-color="#f5d"/>
            <stop offset="1" stop-color="#ff0ecf"/>
        </linearGradient>
        <linearGradient id="linearGradient4792" x1="11.984" x2="10.376" y1="41.34" y2="34.175" gradientTransform="scale(11.91818) rotate(11.719 148.815 23.023)" gradientUnits="userSpaceOnUse" xlink:href="#dirtyPromises1"/>
        <linearGradient id="dirtyPromises1">
            <stop offset="0" stop-color="#f5d"/>
            <stop offset="1" stop-color="#fae"/>
        </linearGradient>
        <linearGradient id="linearGradient4326-2" x1="35.145" x2="32.843" y1="1039.399" y2="1044.747" gradientTransform="matrix(3.66432 -.72968 .92587 4.64953 -955.366 -4606.558)" gradientUnits="userSpaceOnUse" xlink:href="#dirtyPromises2"/>
        <linearGradient id="linearGradient4792-7" x1="11.984" x2="10.376" y1="41.34" y2="34.175" gradientTransform="scale(11.91818) rotate(11.719 148.815 23.023)" gradientUnits="userSpaceOnUse" xlink:href="#dirtyPromises1"/>
        <linearGradient id="linearGradient4792-7-4" x1="11.984" x2="10.376" y1="41.34" y2="34.175" gradientTransform="scale(11.91818) rotate(11.719 148.815 23.023)" gradientUnits="userSpaceOnUse" xlink:href="#dirtyPromises1"/>
        <linearGradient id="linearGradient4792-7-3" x1="11.984" x2="10.376" y1="41.34" y2="34.175" gradientTransform="scale(11.91818) rotate(11.719 148.815 23.023)" gradientUnits="userSpaceOnUse" xlink:href="#dirtyPromises1"/>
    </defs>
    <g fill-rule="evenodd">
        <path fill="url(#linearGradient4326-2)" d="M161.813 208.672c.34 4.44-4.225 7.592-17.636 7.49-21-.16-49.867-16.176-48.717-.554-2.476-2.552-5.377-1.962-4.841 1.4.524 3.286 4.42 8.274 5.209 12.137 1.151-3.214 6.69-6.046 8.028-8.627.874-1.688-1.147-5.959-5.694-4.02-3.41-13.63 25.613 2.377 44.861 2.856 17.473.435 22.361-5.531 21.624-11.084-1.254-9.448-31.764-12.965-31.404-10.256.349 2.62 27.893 1.84 28.57 10.658z"/>
        <path fill="#e005a5" d="M84.287 116.846c-8.97 23.656 1.877 36.106 13.24 50.045l4.65-20.333c-11.095-4.834-16.759-14.45-17.89-29.712zM171.113 117.546c8.97 23.657-1.878 36.106-13.24 50.046l-4.65-20.334c11.095-4.834 16.759-14.449 17.89-29.712z"/>
        <path fill="url(#linearGradient4792)" d="M45.67 86.852c-.411-13.929 4.615-24.226 12.464-31.208 3.534-3.144 7.624-5.653 12.079-7.444 8.918-3.586 18.961-4.7 28.418-3.56 4.183.505 8.253 1.451 12.059 2.82 3.46 1.243 6.702 2.836 9.616 4.763 4.554 3.012 8.306 6.842 10.831 11.434 12.097-30.502 85.443-30.878 86.785 24.69.963 39.908-41.284 78.43-82.84 123.582-43.823-44.188-88.19-83.622-89.412-125.077z" transform="rotate(1.806 -3873.864 2520.735) scale(.38729)"/>
        <path fill="#f6d5ff" d="M141.003 145.404c4.46-1.385 9.678-.008 13.709 3.704 2.7 3.692 4.037 8.43 3.423 13.432-.349-5.037-2.653-8.997-5.575-11.492-2.675-3.65-6.956-6.074-11.557-5.644z"/>
        <path fill="url(#linearGradient4792-7)" d="M45.67 86.852c-.411-13.929 4.615-24.226 12.464-31.208 3.534-3.144 7.624-5.653 12.079-7.444 8.918-3.586 18.961-4.7 28.418-3.56 4.183.505 8.253 1.451 12.059 2.82 3.46 1.243 6.702 2.836 9.616 4.763 4.554 3.012 8.306 6.842 10.831 11.434 12.097-30.502 85.443-30.878 86.785 24.69.963 39.908-41.284 78.43-82.84 123.582-43.823-44.188-88.19-83.622-89.412-125.077z" transform="matrix(.2201 -.05177 .05434 .20969 79.385 92.301)"/>
        <path fill="#f6d5ff" d="M118.61 94.543c2.293-1.416 5.452-1.463 8.311-.077a10.372 10.372 0 0 1 4.054 6.696c-.993-2.652-2.918-4.43-4.96-5.33-2.085-1.557-4.88-2.213-7.406-1.289z"/>
        <g>
            <path fill="url(#linearGradient4792-7-4)" d="M45.67 86.852c-.411-13.929 4.615-24.226 12.464-31.208 3.534-3.144 7.624-5.653 12.079-7.444 8.918-3.586 18.961-4.7 28.418-3.56 4.183.505 8.253 1.451 12.059 2.82 3.46 1.243 6.702 2.836 9.616 4.763 4.554 3.012 8.306 6.842 10.831 11.434 12.097-30.502 85.443-30.878 86.785 24.69.963 39.908-41.284 78.43-82.84 123.582-43.823-44.188-88.19-83.622-89.412-125.077z" transform="matrix(.2884 .09527 -.0883 .26867 127.033 35.346)"/>
            <path fill="#f6d5ff" d="M170.206 64.961c3.634.028 7.274 2.162 9.544 5.668 1.276 3.193 1.312 6.815-.172 10.184.767-3.61-.155-6.902-1.841-9.306-1.264-3.159-3.986-5.817-7.531-6.546z"/>
        </g>
        <g>
            <path fill="url(#linearGradient4792-7-3)" d="M45.67 86.852c-.411-13.929 4.615-24.226 12.464-31.208 3.534-3.144 7.624-5.653 12.079-7.444 8.918-3.586 18.961-4.7 28.418-3.56 4.183.505 8.253 1.451 12.059 2.82 3.46 1.243 6.702 2.836 9.616 4.763 4.554 3.012 8.306 6.842 10.831 11.434 12.097-30.502 85.443-30.878 86.785 24.69.963 39.908-41.284 78.43-82.84 123.582-43.823-44.188-88.19-83.622-89.412-125.077z" transform="matrix(.3574 -.08448 .08824 .34217 46.384 19.227)"/>
            <path fill="#f6d5ff" d="M110.076 22.886c3.725-2.31 8.854-2.387 13.497-.126a16.938 16.938 0 0 1 6.583 10.927c-1.613-4.327-4.739-7.23-8.054-8.698-3.386-2.54-7.926-3.612-12.026-2.103z"/>
        </g>
    </g>
</svg>
