<svg xmlns="http://www.w3.org/2000/svg" viewBox="0 0 256 256">
    <defs>
        <linearGradient id="elementalFire2">
            <stop offset="0" stop-color="#fc0"/>
            <stop offset="1" stop-color="#ffdf5f"/>
        </linearGradient>
    </defs>
    <path fill="#6f87ac" fill-rule="evenodd" d="M60.743 52.158c-58.07 68.877 95.023 72.155 133.05 28.103-50.99 20.78-159.994 8.545-133.05-28.103z"/>
    <path fill="#90a3c2" fill-rule="evenodd" d="M191.002 53.836c79.142 59.784-78.458 86.941-128.437 49.056 47.257 24.627 170.689-6.702 128.437-49.056z"/>
    <path fill="#aabbd5" fill-rule="evenodd" d="M61.194 103.157c-11.19 58.776 105.326 38.586 131.785 6.628-25.31 18.763-119.797 20.893-131.785-6.628z"/>
    <path fill="#7f99c1" fill-rule="evenodd" d="M194.593 110.311c24.569 64.124-94.249 59.865-119.138 26.785 29.07 18.46 110.464-4.179 119.138-26.785z"/>
    <path fill="#a9bbd6" fill-rule="evenodd" d="M74.515 136.772c-5.848 45.49 74.427 45.957 90.325 24.204-35.773 6.754-82.974-6.392-90.325-24.204z"/>
    <path fill="#c0d0e9" fill-rule="evenodd" d="M171.877 158.99c5.774 24.776-45.734 34.374-74.267 15.858 35.834 6.535 65.569-4.639 74.267-15.858z"/>
    <path fill="#88a0c0" fill-rule="evenodd" d="M87.716 165.72c-8.484 33.513 43.192 32.904 57.579 20.525-25.108 2.67-57.61-8.36-57.58-20.525z"/>
    <path fill="#c0d0e9" fill-rule="evenodd" d="M150.017 184.396c1.9 19.72-33.719 23.79-51.52 7.445 23.71 7.48 44.728.734 51.52-7.445z"/>
    <path fill="#acbbd3" fill-rule="evenodd" d="M101.41 194.648c-3.086 18.657 28.723 15.57 36.798 8.079-15.303 2.788-36.039-1.47-36.798-8.08z"/>
    <path fill="#c0d0e9" fill-rule="evenodd" d="M142.654 200.874c3.517 10.303-17.632 16.637-30.405 9.993 15.3 1.222 27.259-4.834 30.405-9.993z"/>
    <path fill="#4a5f80" fill-rule="evenodd" d="M62.622 55.622c6.245-9.634 111.827-15.434 126.718.861 41.537 45.453-152.46 38.85-126.718-.861z"/>
    <path fill="none" stroke="#e7ecff" stroke-width="3.755" d="M138.817 213.47c-.03-3.045-1.07-3.12-1.07-3.12-1.965-5.305-3.295-13.675-4.659-18.038-2.2-4.81-3.386-9.408-3.955-14.626M120.116 176.257l-.083 14.94c-.549 4.308-.883 14.023-1.053 17.434-.306 2.69-.832.752-.985 4.056"/>
    <path fill="none" stroke="#e7ecff" stroke-width="3.122" d="M121.007 154.524c-4.31.1-5.556 5.543-5.364 6.707.226 1.368 4.49 4.68 4.543 8.55M129.9 154.382c5.51.066 7.057 5.037 6.989 7.101-.036 1.083-6.492 3.19-7.441 8.909"/>
    <g fill="#e7ecff" stroke="#e7ecff" transform="matrix(.51698 0 0 .52386 58.635 100.843)">
        <path fill-rule="evenodd" stroke-width="3.608" d="M115.462 148.482l24.584-1.246c-1.17-8.243-.285-15.855-5.083-24.936-3.602-6.819 7.163-7.261 4.725-21.506-.339-1.98-18.295-1.398-19.142.232-7.482 14.4 8.92 15.195 1.735 21.363-5.024 4.314-8.075 15.927-6.819 26.093z"/>
        <ellipse cx="131.009" cy="83.903" stroke-linecap="round" stroke-linejoin="round" stroke-width="3.608" rx="7.206" ry="8.121" transform="rotate(1.158)"/>
        <path fill-rule="evenodd" stroke-width="3.608" d="M134.945 113.701c-23-17.732-41.612-30.086-46.25-54.488-25.442 6.497-40.937 20.01-50.364 37.8l26.686-3.398 13.85 12.448 26.921-2.551z"/>
        <path fill-rule="evenodd" stroke-width="3.608" d="M128.202 109.717c23.698-16.789 42.794-28.38 48.415-52.575 25.158 7.52 40.094 21.647 48.794 39.804l-26.526-4.473-14.341 11.877-26.797-3.636z"/>
        <path fill-rule="evenodd" d="M121.517 101.019c1.303-4.837-.66-8.596-.723-13.638l16.934-.937c-.193 4.982-.78 11.265-.184 14.558zM124.112 83.587c-8.513-7.05-8.095-13.589-8.571-20.179 1.964 6.216 2.308 12.684 11.518 17.768zM133.989 83.319c6.995-7.05 6.652-13.589 7.043-20.179-1.613 6.216-1.897 12.685-9.464 17.768z"/>
    </g>
    <path fill="none" stroke="#999" stroke-width="5.718" d="M120.835 186.271c-.488-15.441 1.424-23.499 8.126-23.63"/>
    <path fill="none" stroke="#4d4d4d" stroke-dasharray="8,8" stroke-linecap="round" stroke-linejoin="round" stroke-width="8" d="M58.084 103.972c35.562 31.68 66.692 72.545 98.045 84.269M201.02 109.023c-33.123 33.288-61.232 55.957-105.631 81.269"/>
    <path fill="#786721" fill-rule="evenodd" d="M117.483 214.063c1.705 1.606 27.06-1.111 28.448-2.837 1.347-1.675-.526-26.223-2.224-27.302-3.19-2.026-26.42.127-28.08 2.133-1.784 2.154.023 26.278 1.856 28.006z"/>
    <path fill="none" stroke="#999" stroke-width="5.718" d="M128.493 162.61c4.298.216 8.95 8.358 9.768 23.47"/>
</svg>
