<svg xmlns="http://www.w3.org/2000/svg" xmlns:xlink="http://www.w3.org/1999/xlink" viewBox="0 0 256 256">
    <defs>
        <linearGradient id="elementalFire2">
            <stop offset="0" stop-color="#fc0"/>
            <stop offset="1" stop-color="#ffdf5f"/>
        </linearGradient>
        <linearGradient id="linearGradient4337" x1="150" x2="129.286" y1="167.429" y2="166.357" gradientTransform="matrix(.02336 1.48253 -2.04892 .01093 456.944 -9.883)" gradientUnits="userSpaceOnUse" xlink:href="#wildFire2"/>
        <linearGradient id="wildFire2">
            <stop offset="0" stop-color="#ffb14d"/>
            <stop offset="1" stop-color="#ffcc4d"/>
        </linearGradient>
        <linearGradient id="linearGradient4353" x1="159.57" x2="75.049" y1="168.301" y2="167.229" gradientTransform="matrix(.02336 1.48253 -2.04892 .01093 457.929 -10.731)" gradientUnits="userSpaceOnUse" xlink:href="#wildFire1"/>
        <linearGradient id="wildFire1">
            <stop offset="0" stop-color="#f46e16"/>
            <stop offset="1" stop-color="#f4900c"/>
        </linearGradient>
    </defs>
    <g fill-rule="evenodd">
        <path fill="url(#linearGradient4353)" d="M74.925 103.968c-35.29 28.307-36.2 111.905 40.3 120.685 46.437 5.33 94.624-20.814 83.166-86.5-3.746 29.968-35.954 25.06-34.116-1.33 1.396-20.041 22.892-49.493-29.635-111.06 31.89 59.354-25.382 70.836-15.57 29.368-15.664 9.015-25.87 30.891-19.891 56.342 5.813 24.746-7.37 29.278-15.656 27.753-9.96-1.834-19.169-13.829-8.598-35.258z"/>
        <path fill="url(#linearGradient4337)" d="M66.875 201.48c.316-16.162 8.9-36.097 22.805-45.353-2.14 59.964 49.01 16.524 34.039-47.66 38.785 55.262 7.993 84.086 27.312 88.749 7.402 1.786 9.961-7.744 3.886-27.68 14.413 12.84 18.906 26.241 16.494 43.495-17.847 11.54-37.312 14.03-57.742 11.474-26.2-3.278-40.312-15.025-46.794-23.025z"/>
        <path fill="#28170b" d="M110.357 224.238l10.357-85.38s-31.908-23.235-43.928-38.572c-8.441-10.771-18.929-36.429-18.929-36.429S70.081 87.838 78.93 97.786c11.936 13.42 42.142 33.571 42.142 33.571l1.429-38.571s-11.442-19.777-19.643-27.5C97.64 60.37 84.643 53.857 84.643 53.857s13.91 4.31 19.643 8.572c8.269 6.148 20 23.571 20 23.571s10.136-26.993 20.357-36.429c6.928-6.395 25.714-11.785 25.714-11.785S154.213 44.65 148.571 51c-8.776 9.876-16.428 36.071-16.428 36.071l-.357 29.286c9.091-14.618 21.825-24.683 34.643-34.643-12.196 13.162-24.083 26.632-33.929 42.143l1.786 32.5c4.565-4.515 5.816-9.694 8.214-14.643-.542 6.954-3.415 13.518-6.786 20l6.074 62.901c-10.318 1.604-22.279 1.216-31.43-.377z"/>
    </g>
</svg>
