<svg xmlns="http://www.w3.org/2000/svg" xmlns:xlink="http://www.w3.org/1999/xlink" viewBox="0 0 256 256">
    <defs>
        <linearGradient id="elementalFire2">
            <stop offset="0" stop-color="#fc0"/>
            <stop offset="1" stop-color="#ffdf5f"/>
        </linearGradient>
        <linearGradient id="linearGradient4236" x1="120.208" x2="118.693" y1="219.635" y2="89.325" gradientTransform="matrix(.81 0 0 .81 28.201 23.34)" gradientUnits="userSpaceOnUse" xlink:href="#elementalArcane1"/>
        <linearGradient id="elementalArcane1">
            <stop offset="0" stop-color="#e000b3"/>
            <stop offset="1" stop-color="#ff8ae7"/>
        </linearGradient>
    </defs>
    <path fill="url(#linearGradient4236)" fill-rule="evenodd" d="M40.31 90.454c0-14.26 5.453-24.536 13.631-31.457 3.775-3.04 7.97-5.453 12.583-7.13 9.228-3.355 19.504-4.194 29.045-2.726 4.3.629 8.389 1.782 12.164 3.25a44.371 44.371 0 0 1 9.647 5.138c4.613 3.25 8.283 7.235 10.695 12.058 13.317-30.722 87.975-28.73 87.555 27.892-.314 40.684-44.564 78.538-88.289 123.207-43.2-46.452-87.136-87.975-87.03-130.232z"/>
    <path fill="none" stroke="#fcf1ff" stroke-width="4.834" d="M143.163 197.248c-.065-3.868-1.354-3.997-1.354-3.997-2.514-6.768-4.254-17.467-5.994-23.01-2.836-6.188-4.319-12.054-5.028-18.757M119.25 149.679l-.13 19.08c-.709 5.542-1.095 17.982-1.353 22.3-.387 3.482-1.031.968-1.225 5.222"/>
    <path fill="none" stroke="#fcf1ff" stroke-width="3.996" d="M120.345 121.898c-5.479.13-7.09 7.09-6.832 8.573.258 1.74 5.736 5.994 5.8 10.958M131.754 121.705c7.026.064 9.024 6.445 8.895 9.088 0 1.354-8.25 4.06-9.475 11.409"/>
    <g fill="#fcf1ff" stroke="#fcf1ff">
        <path fill-rule="evenodd" stroke-width="2.384559" d="M116.929 152.708l16.243-.838c-.774-5.543-.194-10.635-3.352-16.694-2.385-4.576 4.77-4.898 3.159-14.438-.259-1.29-12.118-.902-12.698.193-4.9 9.604 5.93 10.184 1.16 14.31-3.288 2.9-5.35 10.635-4.512 17.467z"/>
        <path stroke-linecap="round" stroke-linejoin="round" stroke-width="2.384559" d="M130.851 111.327c-.064 2.965-2.256 5.35-4.898 5.35-2.643-.064-4.706-2.578-4.641-5.543.064-3.03 2.256-5.414 4.899-5.35 2.578.065 4.705 2.514 4.64 5.543z"/>
        <path fill-rule="evenodd" stroke-width="2.384559" d="M129.82 129.44c-15.212-11.925-27.523-20.175-30.552-36.547-16.823 4.383-27.072 13.407-33.324 25.331l17.66-2.256 9.154 8.315 17.79-1.676z"/>
        <path fill-rule="evenodd" stroke-width="2.384559" d="M125.373 126.732c15.663-11.215 28.296-19.014 31.97-35.193 16.694 5.028 26.556 14.503 32.293 26.62l-17.532-2.964-9.476 7.928-17.725-2.385z"/>
        <path fill-rule="evenodd" stroke-width=".644436" d="M120.925 120.931c.903-3.287-.387-5.8-.451-9.153l11.215-.644c-.128 3.352-.515 7.541-.128 9.797zM122.665 109.265c-5.607-4.77-5.35-9.153-5.672-13.536 1.29 4.125 1.547 8.508 7.606 11.86zM129.176 109.071c4.64-4.77 4.383-9.088 4.64-13.536-1.03 4.19-1.224 8.509-6.252 11.925z"/>
    </g>
    <path fill="#f6d5ff" fill-rule="evenodd" d="M163.411 58.368c11.744-3.67 25.48-.105 36.071 9.647 7.13 9.751 10.59 22.23 9.018 35.336-.944-13.212-7.025-23.592-14.68-30.198-7.025-9.542-18.245-15.939-30.409-14.785z"/>
    <path fill="none" stroke="#999" stroke-width="5.718" d="M116.917 155.91c-.488-15.442 1.424-23.5 8.126-23.63"/>
    <path fill="none" stroke="#4d4d4d" stroke-dasharray="8,8" stroke-linecap="round" stroke-linejoin="round" stroke-width="8" d="M40.024 94.319c66.122 17.064 104.416 67.309 137.633 82.075M214.527 89.015c-77.533 18.974-100.863 69.419-130.814 91.42"/>
    <path fill="none" stroke="#999" stroke-width="5.718" d="M124.575 132.249c4.298.216 8.95 8.358 9.768 23.47"/>
    <path fill="#786721" fill-rule="evenodd" d="M113.565 183.701c1.705 1.607 27.06-1.11 28.448-2.837 1.347-1.675-.526-26.223-2.224-27.301-3.19-2.026-26.42.127-28.08 2.133-1.784 2.154.023 26.277 1.856 28.005z"/>
</svg>
