<svg xmlns="http://www.w3.org/2000/svg" viewBox="0 0 256 256">
    <defs>
        <linearGradient id="elementalFire2">
            <stop offset="0" stop-color="#fc0"/>
            <stop offset="1" stop-color="#ffdf5f"/>
        </linearGradient>
    </defs>
    <g fill="none" stroke="#808080" stroke-linecap="round" stroke-linejoin="round" transform="translate(-.758 2.273)">
        <ellipse cx="87.088" cy="188.106" stroke-width="12" rx="33.712" ry="11.615"/>
        <ellipse cx="162.596" cy="201.364" stroke-width="12" rx="36.566" ry="12.196"/>
        <ellipse cx="95.824" cy="206.822" stroke-width="3.104" rx="12.853" ry="5.225"/>
        <ellipse cx="170.787" cy="194.156" stroke-width="3.104" rx="12.853" ry="5.225" transform="rotate(9.054)"/>
        <ellipse cx="111.847" cy="207.246" stroke-width="3.104" rx="12.853" ry="5.225" transform="rotate(3.343)"/>
        <ellipse cx="157.02" cy="203.064" stroke-width="3.104" rx="12.853" ry="5.225" transform="rotate(7.963)"/>
        <ellipse cx="135.258" cy="205.252" stroke-width="3.104" rx="12.853" ry="5.225" transform="rotate(6.721)"/>
    </g>
    <path fill="#6f87ac" fill-rule="evenodd" d="M64.996 23.557C9.83 88.99 155.268 92.104 191.393 50.255 142.953 69.995 39.4 58.372 64.996 23.557z"/>
    <path fill="#90a3c2" fill-rule="evenodd" d="M188.743 25.15c75.184 56.795-74.536 82.595-122.016 46.603 44.894 23.396 162.154-6.366 122.016-46.602z"/>
    <path fill="#aabbd5" fill-rule="evenodd" d="M65.424 72.006c-10.63 55.837 100.06 36.656 125.196 6.296C166.576 96.127 76.813 98.15 65.424 72.006z"/>
    <path fill="#7f99c1" fill-rule="evenodd" d="M192.153 78.802c23.341 60.918-89.536 56.872-113.18 25.445 27.616 17.537 104.94-3.97 113.18-25.445z"/>
    <path fill="#a9bbd6" fill-rule="evenodd" d="M78.08 103.94c-5.556 43.216 70.705 43.659 85.808 22.994-33.984 6.416-78.825-6.072-85.809-22.994z"/>
    <path fill="#c0d0e9" fill-rule="evenodd" d="M170.574 125.047c5.485 23.537-43.448 32.655-70.554 15.065 34.042 6.208 62.29-4.407 70.554-15.065z"/>
    <path fill="#88a0c0" fill-rule="evenodd" d="M90.62 131.44c-8.06 31.838 41.033 31.259 54.7 19.5-23.852 2.535-54.728-7.943-54.7-19.5z"/>
    <path fill="#c0d0e9" fill-rule="evenodd" d="M149.806 149.182c1.805 18.734-32.032 22.602-48.944 7.073 22.525 7.106 42.492.697 48.944-7.073z"/>
    <path fill="#acbbd3" fill-rule="evenodd" d="M103.63 158.922c-2.932 17.724 27.287 14.791 34.958 7.675-14.538 2.649-34.237-1.396-34.958-7.675z"/>
    <path fill="#c0d0e9" fill-rule="evenodd" d="M142.812 164.837c3.34 9.787-16.751 15.805-28.885 9.493 14.534 1.16 25.896-4.592 28.885-9.493z"/>
    <path fill="#4a5f80" fill-rule="evenodd" d="M66.782 26.847c5.932-9.152 106.235-14.662 120.381.818 39.46 43.18-144.836 36.908-120.381-.818z"/>
    <path fill="none" stroke="#e7ecff" stroke-width="3.502" d="M137.743 175.915c-.027-2.84-.997-2.91-.997-2.91-1.833-4.949-3.074-12.755-4.346-16.825-2.052-4.485-3.159-8.775-3.689-13.641M120.301 141.205l-.078 13.935c-.512 4.019-.824 13.08-.982 16.262-.286 2.508-.776.701-.919 3.782"/>
    <path fill="none" stroke="#e7ecff" stroke-width="2.912" d="M121.131 120.935c-4.02.093-5.181 5.17-5.002 6.256.21 1.276 4.188 4.365 4.237 7.974M129.426 120.802c5.14.062 6.583 4.698 6.519 6.624-.034 1.01-6.055 2.975-6.94 8.31"/>
    <g fill="#e7ecff" stroke="#e7ecff" transform="matrix(.4822 0 0 .48861 62.956 70.866)">
        <path fill-rule="evenodd" stroke-width="3.608" d="M115.462 148.482l24.584-1.246c-1.17-8.243-.285-15.855-5.083-24.936-3.602-6.819 7.163-7.261 4.725-21.506-.339-1.98-18.295-1.398-19.142.232-7.482 14.4 8.92 15.195 1.735 21.363-5.024 4.314-8.075 15.927-6.819 26.093z"/>
        <ellipse cx="131.009" cy="83.903" stroke-linecap="round" stroke-linejoin="round" stroke-width="3.608" rx="7.206" ry="8.121" transform="rotate(1.158)"/>
        <path fill-rule="evenodd" stroke-width="3.608" d="M134.945 113.701c-23-17.732-41.612-30.086-46.25-54.488-25.442 6.497-40.937 20.01-50.364 37.8l26.686-3.398 13.85 12.448 26.921-2.551z"/>
        <path fill-rule="evenodd" stroke-width="3.608" d="M128.202 109.717c23.698-16.789 42.794-28.38 48.415-52.575 25.158 7.52 40.094 21.647 48.794 39.804l-26.526-4.473-14.341 11.877-26.797-3.636z"/>
        <path fill-rule="evenodd" d="M121.517 101.019c1.303-4.837-.66-8.596-.723-13.638l16.934-.937c-.193 4.982-.78 11.265-.184 14.558zM124.112 83.587c-8.513-7.05-8.095-13.589-8.571-20.179 1.964 6.216 2.308 12.684 11.518 17.768zM133.989 83.319c6.995-7.05 6.652-13.589 7.043-20.179-1.613 6.216-1.897 12.685-9.464 17.768z"/>
    </g>
</svg>
