<svg xmlns="http://www.w3.org/2000/svg" xmlns:xlink="http://www.w3.org/1999/xlink" viewBox="0 0 256 256">
    <defs>
        <linearGradient id="twinComets1">
            <stop offset="0" stop-color="#ffb14d"/>
            <stop offset="1" stop-color="#ffcc4d"/>
        </linearGradient>
        <linearGradient id="twinComets2">
            <stop offset="0" stop-color="#f46e16"/>
            <stop offset="1" stop-color="#f4900c"/>
        </linearGradient>
        <linearGradient id="linearGradient4345" x1="222.537" x2="184.289" y1="95.412" y2="96.483" gradientTransform="matrix(.06592 1.09912 -1.64639 .044 269.062 -80.25)" gradientUnits="userSpaceOnUse" xlink:href="#twinComets1"/>
        <linearGradient id="linearGradient4361" x1="222.811" x2="140.076" y1="94.337" y2="95.052" gradientTransform="matrix(.06592 1.09912 -1.64639 .044 269.292 -80.881)" gradientUnits="userSpaceOnUse" xlink:href="#twinComets2"/>
        <linearGradient id="linearGradient4345-5" x1="222.537" x2="184.289" y1="95.412" y2="96.483" gradientTransform="matrix(.04677 .7706 -1.16814 .03085 269.203 47.108)" gradientUnits="userSpaceOnUse" xlink:href="#twinComets1"/>
        <linearGradient id="linearGradient4361-9" x1="222.811" x2="140.076" y1="94.337" y2="95.052" gradientTransform="matrix(.04677 .7706 -1.16814 .03085 269.367 46.665)" gradientUnits="userSpaceOnUse" xlink:href="#twinComets2"/>
        <linearGradient id="linearGradient4361-9-2" x1="222.811" x2="140.076" y1="94.337" y2="95.052" gradientTransform="matrix(.0373 .62753 -.93149 .02512 161.02 76.56)" gradientUnits="userSpaceOnUse" xlink:href="#twinComets2"/>
        <linearGradient id="linearGradient4345-5-5" x1="222.537" x2="184.289" y1="95.412" y2="96.483" gradientTransform="matrix(.0373 .62753 -.93149 .02512 160.89 76.92)" gradientUnits="userSpaceOnUse" xlink:href="#twinComets1"/>
    </defs>
    <g fill-rule="evenodd">
        <path fill="url(#linearGradient4361)" d="M85.27 78.879c-27.462 21.612-25.535 83.629 36.228 88.8 37.49 3.14 75.388-17.094 64.09-65.61-2.058 22.292-28.1 19.216-27.461-.389.485-14.888 16.824-37.108-27.35-81.849 27.518 43.462-18.147 52.98-11.58 22.054-12.303 6.96-19.81 23.364-14.195 42.135 5.46 18.25-4.993 21.843-11.7 20.857-8.064-1.185-15.846-9.92-8.032-25.998z"/>
        <path fill="url(#linearGradient4345)" d="M82.14 151.286c-.26-11.992 6.005-26.927 16.885-34.036.187 44.51 39.916 11.397 25.842-35.943 32.93 40.305 9.099 62.222 24.773 65.342 6.006 1.195 7.76-5.917 2.244-20.597 11.991 9.27 16.029 19.13 14.639 31.969-13.977 8.872-29.542 11.06-46.043 9.522-21.162-1.973-32.877-10.437-38.34-16.257z"/>
        <path fill="url(#linearGradient4361-9)" d="M138.8 158.673c-19.486 15.153-18.118 58.633 25.704 62.259 26.6 2.2 53.49-11.985 45.473-46-1.46 15.629-19.937 13.473-19.484-.272.344-10.439 11.937-26.017-19.406-57.385 19.525 30.47-12.875 37.145-8.215 15.462-8.73 4.88-14.056 16.38-10.072 29.541 3.873 12.796-3.543 15.314-8.302 14.623-5.721-.831-11.243-6.955-5.698-18.228z"/>
        <path fill="url(#linearGradient4345-5)" d="M136.578 209.439c-.185-8.408 4.26-18.88 11.981-23.863.133 31.206 28.321 7.99 18.335-25.2 23.364 28.258 6.456 43.624 17.577 45.811 4.262.838 5.506-4.148 1.592-14.44 8.508 6.499 11.373 13.412 10.387 22.413-9.917 6.22-20.96 7.755-32.668 6.676-15.015-1.383-23.327-7.317-27.204-11.397z"/>
        <path fill="url(#linearGradient4361-9-2)" d="M56.904 167.773c-15.538 12.34-14.447 47.748 20.497 50.7 21.211 1.792 42.653-9.76 36.26-37.46-1.164 12.728-15.898 10.972-15.536-.221.274-8.5 9.518-21.187-15.475-46.732 15.57 24.815-10.267 30.25-6.55 12.592-6.962 3.974-11.21 13.34-8.032 24.057 3.088 10.42-2.825 12.47-6.62 11.908-4.562-.677-8.965-5.664-4.544-14.844z"/>
        <path fill="url(#linearGradient4345-5-5)" d="M55.132 209.114c-.147-6.847 3.398-15.375 9.554-19.433.106 25.412 22.584 6.507 14.62-20.521 18.632 23.011 5.149 35.525 14.017 37.306 3.398.682 4.39-3.379 1.27-11.76 6.784 5.293 9.068 10.923 8.282 18.253-7.908 5.065-16.714 6.314-26.05 5.436-11.973-1.126-18.601-5.959-21.693-9.281z"/>
    </g>
</svg>
