<svg xmlns="http://www.w3.org/2000/svg" xmlns:xlink="http://www.w3.org/1999/xlink" viewBox="0 0 256 256">
    <defs>
        <linearGradient id="linearGradient4604">
            <stop offset="0" stop-color="#fae"/>
            <stop offset="1" stop-color="#e005a5"/>
        </linearGradient>
        <linearGradient id="linearGradient4610" x1="118.945" x2="158.215" y1="206.124" y2="192.865" gradientTransform="matrix(.9 0 0 .9 11.605 14.585)" gradientUnits="userSpaceOnUse" xlink:href="#linearGradient4604"/>
        <linearGradient id="linearGradient4618" x1="94.828" x2="124.501" y1="203.472" y2="190.971" gradientTransform="matrix(.9 0 0 .9 11.605 14.585)" gradientUnits="userSpaceOnUse" xlink:href="#linearGradient4604"/>
    </defs>
    <path fill="url(#linearGradient4610)" fill-rule="evenodd" d="M106.61 202.71l51.707-17.16 6.137-.113-54.662 17.728z"/>
    <path fill="url(#linearGradient4618)" fill-rule="evenodd" d="M86.268 201.801l2.955.341 41.252-17.387-5.569-.455z"/>
    <path fill="none" stroke="#e005a5" stroke-width="6.085090200000001" d="M161.462 185.879c-.046-4.934-1.732-5.055-1.732-5.055-3.185-8.597-5.34-22.16-7.55-29.23-3.565-7.793-5.488-15.245-6.41-23.7M131.16 125.577l-.136 24.209c-.889 6.982-1.431 22.725-1.706 28.252-.497 4.358-1.348 1.22-1.596 6.572"/>
    <path fill="none" stroke="#e005a5" stroke-width="5.05939724" d="M132.602 90.361c-6.985.161-9.003 8.982-8.692 10.868.366 2.216 7.277 7.583 7.363 13.854M147.012 90.13c8.93.107 11.437 8.162 11.326 11.507-.058 1.755-10.52 5.168-12.058 14.436"/>
    <g fill="#e005a5" transform="matrix(.83774 0 0 .8489 31.531 3.372)">
        <path fill-rule="evenodd" stroke="#e005a5" stroke-width="3.608" d="M115.462 148.482l24.584-1.246c-1.17-8.243-.285-15.855-5.083-24.936-3.602-6.819 7.163-7.261 4.725-21.506-.339-1.98-18.295-1.398-19.142.232-7.482 14.4 8.92 15.195 1.735 21.363-5.024 4.314-8.075 15.927-6.819 26.093z"/>
        <ellipse cx="131.009" cy="83.903" stroke="#e005a5" stroke-linecap="round" stroke-linejoin="round" stroke-width="3.608" rx="7.206" ry="8.121" transform="rotate(1.158)"/>
        <path fill-rule="evenodd" stroke="#e005a5" stroke-width="3.608" d="M134.945 113.701c-23-17.732-41.612-30.086-46.25-54.488-25.442 6.497-40.937 20.01-50.364 37.8l26.686-3.398 13.85 12.448 26.921-2.551z"/>
        <path fill-rule="evenodd" stroke="#e005a5" stroke-width="3.608" d="M128.202 109.717c23.698-16.789 42.794-28.38 48.415-52.575 25.158 7.52 40.094 21.647 48.794 39.804l-26.526-4.473-14.341 11.877-26.797-3.636z"/>
        <path fill-rule="evenodd" stroke="#e005a5" d="M121.517 101.019c1.303-4.837-.66-8.596-.723-13.638l16.934-.937c-.193 4.982-.78 11.265-.184 14.558z"/>
        <path fill-rule="evenodd" d="M124.112 83.587c-8.513-7.05-8.095-13.589-8.571-20.179 1.964 6.216 2.308 12.684 11.518 17.768zM133.989 83.319c6.995-7.05 6.652-13.589 7.043-20.179-1.613 6.216-1.897 12.685-9.464 17.768z"/>
    </g>
    <g stroke="#fae">
        <path fill="none" stroke-width="3.6661695" d="M108.243 203.173c-.028-2.973-1.043-3.046-1.043-3.046-1.92-5.18-3.218-13.35-4.55-17.61-2.147-4.695-3.306-9.185-3.86-14.28M89.986 166.842l-.081 14.585c-.536 4.207-.863 13.692-1.028 17.022-.3 2.625-.812.734-.962 3.96"/>
        <path fill="none" stroke-width="3.0482059" d="M90.856 145.625c-4.209.097-5.424 5.412-5.237 6.548.22 1.335 4.384 4.569 4.436 8.346M99.537 145.486c5.38.065 6.89 4.917 6.824 6.933-.035 1.057-6.338 3.114-7.265 8.697"/>
        <g fill="#fae" transform="matrix(.50472 0 0 .51144 29.962 93.216)">
            <path fill-rule="evenodd" stroke-width="3.608" d="M115.462 148.482l24.584-1.246c-1.17-8.243-.285-15.855-5.083-24.936-3.602-6.819 7.163-7.261 4.725-21.506-.339-1.98-18.295-1.398-19.142.232-7.482 14.4 8.92 15.195 1.735 21.363-5.024 4.314-8.075 15.927-6.819 26.093z"/>
            <ellipse cx="131.009" cy="83.903" stroke-linecap="round" stroke-linejoin="round" stroke-width="3.608" rx="7.206" ry="8.121" transform="rotate(1.158)"/>
            <path fill-rule="evenodd" stroke-width="3.608" d="M134.945 113.701c-23-17.732-41.612-30.086-46.25-54.488-25.442 6.497-40.937 20.01-50.364 37.8l26.686-3.398 13.85 12.448 26.921-2.551z"/>
            <path fill-rule="evenodd" stroke-width="3.608" d="M128.202 109.717c23.698-16.789 42.794-28.38 48.415-52.575 25.158 7.52 40.094 21.647 48.794 39.804l-26.526-4.473-14.341 11.877-26.797-3.636z"/>
            <path fill-rule="evenodd" d="M121.517 101.019c1.303-4.837-.66-8.596-.723-13.638l16.934-.937c-.193 4.982-.78 11.265-.184 14.558zM124.112 83.587c-8.513-7.05-8.095-13.589-8.571-20.179 1.964 6.216 2.308 12.684 11.518 17.768zM133.989 83.319c6.995-7.05 6.652-13.589 7.043-20.179-1.613 6.216-1.897 12.685-9.464 17.768z"/>
        </g>
    </g>
</svg>
