<svg xmlns="http://www.w3.org/2000/svg" viewBox="0 0 256 256">
    <g fill-rule="evenodd">
        <path fill="#a0b9df" d="M27.011 130.857c39.932 22.212 157.992 8.122 145.267-45.72-14.948-63.246-94.176-21.95-56.22 19.353-22.431-40.626 36.506-64.559 44.889-20.118 9.48 50.262-100.297 53.539-133.936 46.485z"/>
        <path fill="#759fdf" d="M147.253 135.892c25.864-8.106 86.665 6.045 75.027-35.008-8.446-29.794-56.453-10.118-35.398 13.22-8.972-21.055 21.725-31.897 27.425-11.112 8.42 30.706-45.548 18.868-67.054 32.9zM65.733 158.357c21.507 4.4 70.544-7.782 62.912 20.564-5.539 20.572-45.669 9.262-29.531-7.465-6.368 14.665 19.212 20.717 22.919 6.374 5.476-21.19-38.084-10.867-56.3-19.473z"/>
        <path fill="#a0b9df" d="M18.17 140.374c113.496 20.175 202.332-34.949 216.584 19.905 9.19 35.369-72.638 32.63-45.576-6.087-13.893 33.868 43.39 31.862 37.262 7.342-11.034-44.155-97.388 12.365-208.27-21.16z"/>
        <path fill="#c0d0e9" d="M200.66 189.534c-25.28-4.836-22.343-17.419-19.786-29.652-2.592 19.372 8.636 24.472 19.785 29.652zM119.57 98.418c-11.082-23.952 1.19-25.477 10.751-32.306-15.701 11.455-13.783 18.24-10.751 32.306z"/>
    </g>
</svg>
