<svg xmlns="http://www.w3.org/2000/svg" viewBox="0 0 256 256">
    <path fill="#374548" fill-rule="evenodd" d="M183.156 106.74c34.663 22.18 60.66-33.823 14.761-37.998-7.754-21.394-37.198-31.898-66.687-10.132-61.666-3.63-39.392 75.142 12.125 49.513 12.907 6.46 26.191 5.666 39.801-1.382z"/>
    <path fill="none" stroke="#00aad4" stroke-dasharray="8.49197125,8.49197125" stroke-linecap="round" stroke-linejoin="round" stroke-width="8.492" d="M89.995 136.077l-25.32 66.525"/>
    <path fill="none" stroke="#08a" stroke-dasharray="8.49197125,8.49197125" stroke-linecap="round" stroke-linejoin="round" stroke-width="8.492" d="M114.962 143.741l-25.32 66.525"/>
    <path fill="none" stroke="#00aad4" stroke-dasharray="8.49197125,8.49197125" stroke-linecap="round" stroke-linejoin="round" stroke-width="8.492" d="M143.96 134.212l-25.32 66.524"/>
    <path fill="none" stroke="#08a" stroke-dasharray="8.49197125,8.49197125" stroke-linecap="round" stroke-linejoin="round" stroke-width="8.492" d="M164.775 144.017l-25.32 66.525"/>
    <path fill="none" stroke="#00aad4" stroke-dasharray="8.49197125,8.49197125" stroke-linecap="round" stroke-linejoin="round" stroke-width="8.492" d="M192.329 132.003l-25.32 66.525"/>
    <path fill="#53676c" fill-rule="evenodd" d="M93.066 122.903c-38.467 22.18-67.319-33.824-16.381-37.998 8.604-21.395 41.281-31.898 74.007-10.133 68.434-3.63 43.716 75.143-13.456 49.513-14.324 6.46-29.066 5.667-44.17-1.382z"/>
</svg>
