<svg xmlns="http://www.w3.org/2000/svg" viewBox="0 0 256 256">
    <g transform="matrix(.5138 0 0 .51237 141.833 105.956)">
        <ellipse cx="-85.834" cy="136.347" fill="#80e5ff" rx="73.822" ry="71.776"/>
        <path fill="#d5f6ff" fill-rule="evenodd" d="M-82.83 72.893c17.713.968 35.939 9.235 50.297 23.07 9.705 17.285 13.054 36.706 8.742 54.44-1.46-17.957-10.625-33.277-22.408-43.842-7.429-14.299-20.31-27.103-36.63-33.668z"/>
        <path fill="#2ad4ff" fill-rule="evenodd" d="M-142.506 100.356c-5.106 24.672 2.561 45.942 15.16 60.39 8.33 18.019 25.082 33.443 47.288 38.906-22.832.04-45.636-10.75-61.298-29.892-10.612-21.612-11.51-46.491-1.15-69.404z"/>
    </g>
    <ellipse cx="181.066" cy="118.148" fill="#a0ebff" rx="26.322" ry="25.169"/>
    <path fill="#def8ff" fill-rule="evenodd" d="M182.138 95.897c6.306.33 12.79 3.214 17.898 8.054 3.477 6.08 4.682 12.906 3.152 19.126-.511-6.297-3.77-11.65-7.954-15.338-2.66-5.026-7.268-9.53-13.096-11.842z"/>
    <path fill="#5ddeff" fill-rule="evenodd" d="M160.86 105.528c-1.83 8.66.9 16.099 5.373 21.143 2.978 6.328 8.966 11.75 16.893 13.676-8.132.022-16.25-3.745-21.825-10.45-3.802-7.601-4.127-16.341-.442-24.37z"/>
    <ellipse cx="107.495" cy="64.934" fill="#c3f2ff" rx="19.536" ry="18.026"/>
    <path fill="#eafaff" fill-rule="evenodd" d="M108.29 48.998c4.666.222 9.457 2.264 13.228 5.712 2.607 4.383 3.52 9.297 2.396 13.754-.366-4.51-2.77-8.315-5.848-10.929-1.992-3.62-5.437-6.865-9.776-8.537z"/>
    <path fill="#6ee2ff" fill-rule="evenodd" d="M92.497 55.895c-1.371 6.208.646 11.52 3.93 15.095l.104.21c2.26 4.454 6.697 8.262 12.492 9.633-5.936.028-11.831-2.563-15.946-7.215a21.24 21.24 0 0 1-.192-.22c-2.856-5.486-3.113-11.756-.388-17.503z"/>
    <path fill="#baf1ff" fill-rule="evenodd" d="M131.245 59.755c26.33-1.992 39.09 11.113 47.5 28.929.593-28.33-29.523-37.028-47.5-28.929z"/>
    <path fill="#85e7ff" fill-rule="evenodd" d="M148.745 111.184c-20.789-7.699-53.92-20.323-59.643 26.071 5.806-25.585 33.844-33.805 59.643-26.071z"/>
</svg>
