<svg version="1.1" viewBox="0 0 256 256" xmlns="http://www.w3.org/2000/svg" xmlns:xlink="http://www.w3.org/1999/xlink">
 <defs>
  <linearGradient id="linearGradient894">
   <stop stop-color="#d5f7ff" stop-opacity=".23922" offset="0"/>
   <stop stop-color="#d5f6ff" stop-opacity=".28627" offset=".62903"/>
   <stop stop-color="#80c6ff" offset=".79839"/>
   <stop stop-color="#d5f1ff" stop-opacity="0" offset="1"/>
  </linearGradient>
  <radialGradient id="radialGradient846" cx="55.322" cy="45.017" r="8.4068" gradientTransform="matrix(3.2777 0 0 3.1732 3.6493 -66.437)" gradientUnits="userSpaceOnUse" xlink:href="#linearGradient894"/>
  <radialGradient id="radialGradient846-6" cx="55.322" cy="45.017" r="8.4068" gradientTransform="matrix(2.195 0 0 2.1554 89.765 20.339)" gradientUnits="userSpaceOnUse" xlink:href="#linearGradient894"/>
  <radialGradient id="radialGradient846-6-2" cx="55.322" cy="45.017" r="8.4068" gradientTransform="matrix(1.5453 0 0 1.4408 101.67 77.267)" gradientUnits="userSpaceOnUse" xlink:href="#linearGradient894"/>
  <radialGradient id="radialGradient846-1" cx="55.322" cy="45.017" r="8.4068" gradientTransform="matrix(3.1666 0 0 3.1732 -249.29 -57.861)" gradientUnits="userSpaceOnUse" xlink:href="#linearGradient894"/>
  <radialGradient id="radialGradient846-6-7" cx="55.322" cy="45.017" r="8.4068" gradientTransform="matrix(2.1206 0 0 2.1554 -166.09 28.916)" gradientUnits="userSpaceOnUse" xlink:href="#linearGradient894"/>
 </defs>
 <g stroke-width="3.7975">
  <ellipse transform="scale(-1,1)" cx="-74.096" cy="84.988" rx="26.621" ry="26.677" fill="url(#radialGradient846-1)"/>
  <ellipse transform="scale(-1,1)" cx="-48.772" cy="125.95" rx="17.827" ry="18.12" fill="url(#radialGradient846-6-7)"/>
  <path d="m76.481 68.693c1.2115 0.33571 2.9277 1.2185 4.2832 2.3864 1.3986 1.205 1.9604 2.2462 2.4864 2.8959 0.0018 0.0022 0.0035 0.0044 0.0053 0.0065 0.59819 0.73504 1.3634 1.3349 2.4166 3.0273 0.9362 1.5044 1.6744 3.3119 1.9135 4.4275-0.31412-1.4659-0.45999-3.4149-0.77412-4.8809-0.4083-1.8973-1.0243-3.3425-1.6566-4.1196-0.0022-0.0026-0.0046-0.0054-0.0068-0.0081-0.62996-0.76872-1.9439-1.7032-3.7648-2.4026-1.7416-0.66889-3.8115-1.0299-4.9026-1.3323z" fill="#fff"/>
  <path d="m51.54 115.57c0.77666 0.24527 1.8584 0.87202 2.7039 1.702 0.87053 0.85467 1.2122 1.5945 1.55 2.0701 0.0011 1e-3 0.0023 3e-3 0.0034 4e-3 0.39251 0.5496 0.88877 0.99099 1.5878 2.2551 0.61577 1.1137 1.1025 2.4415 1.255 3.2526-0.14349-0.76311-0.23264-2.2332-0.46322-3.5291-0.24207-1.3605-0.61568-2.3907-1.0165-2.9519-0.0014-2e-3 -0.0027-3e-3 -0.0042-5e-3 -0.40052-0.55671-1.2597-1.2585-2.4469-1.7902-1.2655-0.56688-2.3142-0.73728-3.1691-1.0072z" fill="#fff"/>
 </g>
 <g stroke-width="3.7975">
  <ellipse cx="184.98" cy="76.408" rx="27.555" ry="26.676" fill="url(#radialGradient846)"/>
  <ellipse cx="211.2" cy="117.37" rx="18.453" ry="18.12" fill="url(#radialGradient846-6)"/>
  <ellipse cx="187.17" cy="142.13" rx="12.992" ry="12.112" fill="url(#radialGradient846-6-2)"/>
 </g>
 <g transform="matrix(1.21 0 0 1.21 -26.801 -87.604)" fill="#fff" stroke-width="3.1384">
  <path d="m177.59 123.21c1.0012 0.27744 2.4196 1.007 3.5398 1.9722 1.1559 0.99588 1.6202 1.8564 2.0549 2.3933 1e-3 2e-3 3e-3 4e-3 4e-3 5e-3 0.49437 0.60748 1.1268 1.1032 1.9972 2.5019 0.77371 1.2433 1.3838 2.7371 1.5814 3.6591-0.25961-1.2115-0.38016-2.8223-0.63977-4.0338-0.33744-1.568-0.8465-2.7624-1.3691-3.4046-2e-3 -2e-3 -4e-3 -4e-3 -6e-3 -7e-3 -0.52079-0.63534-1.6067-1.4076-3.1115-1.9856-1.4394-0.5528-3.15-0.85117-4.0517-1.1011z"/>
  <path d="m199.18 160.82c0.64187 0.20271 1.5359 0.72067 2.2346 1.4066 0.71945 0.70633 1.0018 1.3178 1.281 1.7108 9.4e-4 1e-3 2e-3 3e-3 3e-3 4e-3 0.32438 0.45422 0.73451 0.819 1.3122 1.8637 0.5089 0.92038 0.91118 2.0178 1.0372 2.6881-0.1186-0.63067-0.19226-1.8456-0.38282-2.9166-0.20008-1.1244-0.50884-1.9758-0.8401-2.4396-1e-3 -2e-3 -2e-3 -3e-3 -3e-3 -5e-3 -0.33104-0.46012-1.0411-1.0401-2.0222-1.4796-1.0459-0.4685-1.9126-0.60932-2.6192-0.83243z"/>
  <path d="m176.98 183.99c0.62041 0.13405 1.523 0.50984 2.2465 1.0041 0.75363 0.51486 1.0616 0.95299 1.3348 1.2161 9.1e-4 8.8e-4 2e-3 2e-3 3e-3 3e-3 0.2999 0.28733 0.67595 0.50796 1.1881 1.1537 0.45928 0.57907 0.82152 1.2893 0.94511 1.739-0.11556-0.42045-0.21523-1.2474-0.43853-1.9975-0.23532-0.79051-0.5803-1.4004-0.90896-1.7152l-3e-3 -3e-3c-0.32564-0.30973-0.97614-0.65772-1.8836-0.9108-0.86975-0.24257-1.921-0.36723-2.4828-0.48862z"/>
 </g>
 <g transform="matrix(.79388 0 0 .79388 24.547 9.5418)" fill-rule="evenodd" stroke-width="1.4641">
  <path d="m8.3626 201.83c7.076 6.8901 13.997 11.525 32.076 11.006 36.923-1.0585 51.009-85.339 103.65-85.837 23.115-0.21815 33.241 27.862 29.657 29.469-5.7393 2.5724-10.372-0.7584-29.752-2.9428-21.964-2.4743-38.613 54.601-6.7524 59.601 14.099 2.2122 22.292-7.9998 30.092-8.4947 11.17-0.70863 25.657 5.8447 32.401 6.0614 9.9222 0.31771 15.995-4.1024 21.954-4.1785 17.202-0.22401 15.89 6.0438 27.572 2.3367-3.874 9.095-12.577 15.628-24.518 15.736-13.985 0.12591-15.578-6.6646-23.912-6.9633-5.5973-0.20059-5.2078 7.8329-20.064 7.7451-16.644-0.0981-14.978-7.5445-20.778-7.5035-5.7832 0.041-7.5723 6.7773-21.071 7.1477-12.681 0.34993-11.856-6.4889-21.957-7.4127-9.5166-0.87114-14.483 8.8066-25.982 8.6265-11.121-0.17569-17.906-9.1858-23.975-5.7671-32.297 18.19-61.343-12.228-58.64-18.629z" fill="#acf"/>
  <path d="m146.63 206.27c-26.004 18.656-36.436-35.909-5.3703-51.144-7.5591 5.7363-14.634 35.433 5.3703 51.144z" fill="#87aade"/>
  <g fill="#d7e3f4">
   <path d="m172.25 153.53a75.704 75.704 0 0 0-2.814-8.9896c-8.9705-12.137-19.714-15.626-29.326-14.745-11.347 1.0395-21.172 8.114-25.434 14.03 4.9121-5.4684 14.905-11.46 25.569-11.672 8.8358-0.17569 18.067 3.5797 25.642 14.89 2.1259 1.754 4.2605 3.9048 6.363 6.486z"/>
   <path d="m133.9 163.43c-6.9969 8.1419-9.5166 17.76-8.8886 26.36 0.0775 1.0659 0.20351 2.1127 0.3748 3.1405 2.0351 7.1009 6.2356 12.533 11.121 14.7-4.3454-2.937-7.4025-8.6704-8.3746-15.3a30.313 30.313 0 0 1-0.63835-2.8418c-1.3763-7.8432 0.0674-17.404 6.4054-26.058z"/>
   <path d="m246.99 210.11c-5.4464 1.7086-9.5357 1.1449-13.104 0.0615-1.7276-0.26794-3.3821-0.66471-5.098-1.0512-5.5196-1.243-10.893-2.1566-18.546 2.139 7.8227-3.7862 13.016-2.284 18.121-0.60321 1.631 0.53586 3.3235 1.1186 5.1038 1.5666 4.0585 0.46997 8.2927 0.26061 13.522-2.1127zm-46.964 1.9341c-5.7144-0.23425-11.047-1.6486-16.027-3.0966-2.3543-0.43044-4.6705-0.87846-6.9106-1.2225-7.1873-1.1039-13.547-1.1332-18.959 3.3733 5.6309-4.0058 11.847-3.3821 18.66-1.8082 2.1786 0.50218 4.4172 1.1039 6.7598 1.7028 5.2166 0.78476 10.725 1.5183 16.477 1.0512zm-80.49-8.0101c1.3162 4.5343 4.3645 8.2048 8.3732 10.814 1.9531 0.98094 4.0394 1.6998 6.1639 2.1639 6.7422 1.4729 13.907 0.38799 18.631-3.1551-4.9867 3.0805-12.017 3.4992-18.232 1.6134a24.295 24.295 0 0 1-5.5504-2.4568c-3.9428-1.776-7.4274-4.7232-9.3849-8.9793zm-108.13 1.59c2.9604 6.1463 9.338 9.4156 16.401 10.808l0.07467 0.01c7.1053 0.80232 14.55-0.30014 19.524-2.0058-5.1419 1.1596-12.502 1.6383-19.263 0.30892l-0.07028-0.0146c-6.7495-0.76133-13.25-3.3235-16.666-9.1067z"/>
  </g>
 </g>
</svg>
