<svg xmlns="http://www.w3.org/2000/svg" viewBox="0 0 256 256">
    <path fill="#b3ffe1" fill-rule="evenodd" d="M69.704 149.935c-1.226-36.402 42.299-74.783 57.155-110.968 17.944 39.626 62.931 68.791 62.63 110.582z"/>
    <ellipse cx="129.608" cy="149.349" fill="#b3ffe1" rx="59.796" ry="58.139"/>
    <path fill="#5fd35f" fill-rule="evenodd" d="M127.583 207.261l.398-96.181c-4.423 16.063-19.706 22.208-19.068 37.599.583 14.086 5.704 16.13 15.082 19.113 2.18.694 1.86 8.154-.797 7.664-19.697-3.629-23.8-14.102-23.972-27.08-.258-19.386 19.892-28.838 29.553-56.073 9.654 25.632 29.298 36.308 29.503 55.974.232 22.176-23.125 28.329-23.125 28.329-.551 10.09-.349 20.181 2.79 30.272z"/>
    <path fill="#eafff7" fill-rule="evenodd" d="M134.292 58.32c22.621 28.142 35.651 45.977 43.261 60.62 2.366 4.552 4.226 8.827 5.698 13.043 1.884 9.838 1.663 18.815.951 29.33-1.213-10.616-2.922-19.014-6.476-27.71-.95-4.045-2.291-8.244-4.163-12.808-6.099-14.87-17.709-33.305-39.27-62.475z"/>
    <path fill="#51ffba" fill-rule="evenodd" d="M77.34 125.694c-6.535 16.876-4.672 34.739 2.895 50.02 11.639 18.388 31.31 30.35 50.58 29.83-19.095-1.465-36.447-15.092-45.395-32.792-8.5-12.91-12.704-29.63-8.08-47.058z"/>
</svg>
