<svg cursor="default" version="1.1" viewBox="0 0 256 256" xmlns="http://www.w3.org/2000/svg">
 <g id="patternLayer" transform="matrix(.59049 0 0 .59049 49.575 65.99)" fill="#d7eef4" stroke-width="1.6935">
  <path d="m193.87 243.19c-15.915-0.16-23.765 0.226-38.261-0.34-10.627-0.414-24.635-1.623-37.604-1.987-16.483-0.462-32.533 0.055-51.415 1.064 2.272-44.78 1.937-89.503 1.516-133.01-8.91 4.708-13.089 9.51-22.981 13.813-12.538-13.821-23.245-22.757-34.85-34.092 26.31-28.64 32.83-34.85 49.244-52.276 14.647-9.572 24.01-13.668 35.315-19.902 14.17 45.805 55.74 37.79 68.64-1.428 17.423 6.647 25.002 12.563 36.962 18.805 17.706 19.702 32.19 35.565 48.235 53.285-10.017 12.712-22.055 23.403-33.083 35.103-9.53-3.027-13.836-9.97-20.56-16.744-1.683 42.805-0.686 95.208-1.158 137.71z" fill="#d7eef4" fill-rule="evenodd" stroke="#000" stroke-width="1.6935"/>
 </g>
 <g stroke="#000">
  <path d="m106.87 78.224c15.122 33.227 39.377 6.78 38.175-0.67139z" fill="#87cdde" fill-rule="evenodd"/>
  <path d="m107.32 74.962 0.96958-0.65249c11.659 3.4579 26.061 4.2391 34.745-0.447l3.0198 1.491c1.0747 0.57632-0.96958 2.049-2.486 3.4963-6.3991 2.6318-25.042 3.8754-35.751-0.062-1.0511-0.87806-0.248-1.8955-0.49778-3.8258z" fill="#afdde9" fill-rule="evenodd"/>
  <path d="m164.1 209.75c-9.397-0.0945-14.032 0.13345-22.592-0.20076-6.2757-0.24388-14.547-0.95837-22.205-1.1727-9.733-0.2728-19.21 0.0319-30.359 0.62828 1.341-26.443 1.1432-52.851 0.89459-78.542-5.2613 2.78-7.7283 5.6156-13.569 8.157-7.4042-8.1618-13.726-13.438-20.579-20.132 15.536-16.912 19.385-20.579 29.078-30.868 8.6483-5.6522 14.178-8.0708 20.853-11.752 8.3666 27.048 32.914 22.315 40.531-0.84263 10.288 3.9244 14.763 7.4183 21.825 11.104 10.455 11.634 19.008 21.001 28.482 31.465-5.9149 7.5057-13.023 13.819-19.535 20.727-5.6274-1.7874-8.1706-5.8872-12.14-9.8872-0.99379 25.276-0.40507 56.219-0.68438 81.316z" fill="none"/>
  <path d="m104.55 76.435c7.863 28.426 38.534 22.142 42.319-1.1804l-3.1709-1.1001c-2.6011 23.298-31.36 26.509-36.43 0.83377z" fill="#afdde9" fill-rule="evenodd"/>
 </g>
 <g fill="none">
  <path d="m89.927 118.17c-0.33304-27.376-3.2064-20.366-4.8125-30.51" stroke="#afdde9"/>
  <path d="m89.803 130.83c0.14762-4.5822 0.21848-9.5937 0.37201-14.482" stroke="#000"/>
  <path d="m164.32 120.46c-5.1455-14.123 2.3525-36.016 2.9241-34.468" stroke="#afdde9"/>
  <path d="m164.76 128.95c0.17419-5.5299-0.39386-8.5131-0.59049-12.769" stroke="#000"/>
  <path d="m58.121 116.13c11.196 8.454 16.133 16.494 20.72 20.931m10.386 68.592c24.773-1.7892 34.721 0.14526 74.655 0.73811m10.861-69.33c12.908-16.548 14.499-15.853 20.14-21.564" stroke="#afdde9"/>
 </g>
 <path d="m120.81 83.605c0.26336 0.05314 9.1207 0.10629 9.1207 0.10629l-0.26336 1.3699-8.8048-0.05255z" fill="#b3b3b3" fill-rule="evenodd" stroke="#000"/>
 <g fill-rule="evenodd" stroke="#000">
  <path d="m42.967 186.87c18.782-3.729 19.741-5.0243 22.231-28.058 2.1113 22.782 4.1741 24.485 21.261 28.183-17.01 2.8645-19.042 4.0628-21.792 29.835-1.6006-26.3-2.9958-26.628-21.701-29.961zm145.79-14.836c14.083-2.8731 14.802-3.8745 16.671-21.641 1.5835 17.575 3.127 18.888 15.94 21.741-12.753 2.2083-14.277 3.1327-16.34 23.013-1.1983-20.286-2.2483-20.542-16.271-23.11z" fill="#ffd024"/>
  <path d="m171.45 199.28c12.676-2.4537 13.324-3.3068 15.005-18.477 1.4266 15.007 2.816 16.126 14.351 18.562-11.484 1.8888-12.853 2.6762-14.711 19.652-1.0813-17.324-2.0229-17.538-14.645-19.735zm-9.7616-147.84c9.187-1.4779 9.6578-1.9915 10.876-11.113 1.0357 9.0244 2.0428 9.6978 10.402 11.161-8.3225 1.1355-9.3154 1.6091-10.662 11.818-0.78178-10.414-1.4666-10.545-10.616-11.869z" fill="#fff78f"/>
  <path d="m31.066 104.11c12.868-2.3253 13.524-3.1356 15.23-17.518 1.4494 14.226 2.8588 15.29 14.568 17.598-11.655 1.7889-13.047 2.5364-14.93 18.625-1.0985-16.42-2.0542-16.622-14.868-18.705z" fill="#fff9d2"/>
  <path d="m164.64 68.671c22.99-4.3767 24.166-5.9003 27.213-32.959 2.5849 26.762 5.1071 28.762 26.026 33.11-20.825 3.3638-23.31 4.7704-26.677 35.048-1.9601-30.899-3.6691-31.282-26.562-35.199z" fill="#ffd024"/>
  <path d="m41.568 66.958c18.779-3.8432 19.738-5.1784 22.226-28.919 2.1142 23.481 4.177 25.236 21.261 29.048-17.01 2.953-19.039 4.1884-21.792 30.751-1.5978-27.105-2.9958-27.447-21.698-30.879z" fill="#fff78f"/>
  <path d="m195.58 99.895c12.868-2.2825 13.524-3.0756 15.23-17.173 1.4465 13.946 2.8588 14.987 14.568 17.25-11.658 1.7547-13.047 2.4879-14.933 18.26-1.0956-16.097-2.0542-16.297-14.865-18.337z" fill="#fff9d2"/>
 </g>
</svg>
