<svg xmlns="http://www.w3.org/2000/svg" viewBox="0 0 256 256">
    <path fill="#ffc54f" fill-rule="evenodd" d="M46.843 208.34c4.833 4.706 9.56 7.872 21.908 7.517 25.219-.723 34.84-58.288 70.795-58.628 15.788-.149 22.704 19.03 20.256 20.128-3.92 1.757-7.084-.518-20.321-2.01-15.002-1.69-26.373 37.293-4.612 40.708 9.63 1.511 15.226-5.464 20.553-5.802 7.629-.484 17.524 3.992 22.13 4.14 6.777.217 10.925-2.802 14.995-2.854 11.749-.153 10.853 4.128 18.832 1.596-2.646 6.212-8.59 10.674-16.746 10.748-9.552.086-10.64-4.552-16.332-4.756-3.823-.137-3.557 5.35-13.704 5.29-11.368-.067-10.23-5.153-14.192-5.125-3.95.028-5.172 4.629-14.392 4.882-8.661.239-8.098-4.432-14.997-5.063-6.5-.595-9.892 6.015-17.746 5.892-7.596-.12-12.23-6.274-16.375-3.939-22.059 12.424-41.898-8.352-40.052-12.724z"/>
    <path fill="#e56e00" fill-rule="evenodd" d="M141.284 211.371c-17.761 12.742-24.886-24.526-3.668-34.932-5.163 3.918-9.995 24.201 3.668 34.932z"/>
    <path fill="#fffdd5" fill-rule="evenodd" d="M158.782 175.351a51.707 51.707 0 0 0-1.922-6.14c-6.127-8.29-13.465-10.673-20.03-10.071-7.75.71-14.461 5.542-17.372 9.583 3.355-3.735 10.18-7.827 17.464-7.972 6.035-.12 12.34 2.445 17.514 10.17 1.452 1.198 2.91 2.667 4.346 4.43z"/>
    <path fill="#ffad45" fill-rule="evenodd" d="M132.587 182.107c-4.779 5.561-6.5 12.13-6.071 18.004.053.728.139 1.443.256 2.145 1.39 4.85 4.259 8.56 7.596 10.04-2.968-2.006-5.056-5.922-5.72-10.45a20.704 20.704 0 0 1-.436-1.941c-.94-5.357.046-11.887 4.375-17.798z"/>
    <path fill="#fffdd5" fill-rule="evenodd" d="M209.826 213.994c-3.72 1.167-6.513.782-8.95.042-1.18-.183-2.31-.454-3.482-.718-3.77-.849-7.44-1.473-12.667 1.461 5.343-2.586 8.89-1.56 12.377-.412 1.114.366 2.27.764 3.486 1.07 2.772.321 5.664.178 9.236-1.443zM177.749 215.315c-3.903-.16-7.545-1.126-10.947-2.115-1.608-.294-3.19-.6-4.72-.835-4.909-.754-9.253-.774-12.949 2.304 3.846-2.736 8.092-2.31 12.745-1.235 1.488.343 3.017.754 4.617 1.163 3.563.536 7.325 1.037 11.254.718zM122.773 209.844c.899 3.097 2.981 5.604 5.719 7.386 1.334.67 2.759 1.161 4.21 1.478 4.605 1.006 9.499.265 12.725-2.155-3.406 2.104-8.208 2.39-12.453 1.102a16.594 16.594 0 0 1-3.791-1.678c-2.693-1.213-5.073-3.226-6.41-6.133zM48.917 210.93c2.022 4.198 6.378 6.431 11.202 7.382l.051.006c4.853.548 9.938-.205 13.335-1.37-3.512.792-8.539 1.119-13.157.211l-.048-.01c-4.61-.52-9.05-2.27-11.383-6.22z"/>
    <path fill="#e1dfdd" fill-rule="evenodd" stroke="#958274" stroke-width="4.72392" d="M129.697 141.346c-26.192-24.91-45.7-57.263-45.388-97.769 6.254-.09 28.685-10.885 45.227-23.282 17.548 12.104 38.706 22.238 44.623 22.75.081 40.78-18.303 71.553-44.462 98.3z"/>
    <path fill="#c0bfbf" fill-rule="evenodd" d="M86.64 45.77c7.326-1.876 30.142-13.982 42.789-22.823-.107 21.267.945 74.724.2 115.244-37.309-36.812-43.198-71.416-42.99-92.42z"/>
    <path fill="none" stroke="#958274" stroke-width="1.7714699999999999" d="M146.5 122.123l-14.763-16.404-18.342.597-8.5 4.92M113.097 106.316l-2.983-24.456L94.01 59.194l-8.649-.746"/>
    <path fill="none" stroke="#958274" stroke-width="1.7714699999999999" d="M93.711 59.194l20.728-19.535-3.43-7.755"/>
    <path fill="none" stroke="#958274" stroke-width="1.7714699999999999" d="M114.439 39.659l21.026 1.044 16.105 19.534-16.254 16.702-25.052 4.623"/>
    <path fill="none" stroke="#958274" stroke-width="1.7714699999999999" d="M135.167 76.64l20.728 6.115-24.009 22.666M155.895 82.978l11.482-.074M151.272 60.088l21.92-2.236M135.614 40.404l8.202-10.886"/>
</svg>
