<svg xmlns="http://www.w3.org/2000/svg" xmlns:xlink="http://www.w3.org/1999/xlink" viewBox="0 0 256 256">
    <defs>
        <linearGradient id="linearGradient4792" x1="11.984" x2="10.376" y1="41.34" y2="34.175" gradientTransform="scale(11.91818) rotate(11.719 148.815 23.023)" gradientUnits="userSpaceOnUse" xlink:href="#arcaneArrival1"/>
        <linearGradient id="arcaneArrival1">
            <stop offset="0" stop-color="#f5d"/>
            <stop offset="1" stop-color="#fae"/>
        </linearGradient>
        <linearGradient id="linearGradient4319" x1="11.984" x2="10.376" y1="41.34" y2="34.175" gradientTransform="scale(11.91818) rotate(11.719 148.815 23.023)" gradientUnits="userSpaceOnUse" xlink:href="#arcaneArrival1"/>
        <linearGradient id="linearGradient4337" x1="11.984" x2="10.376" y1="41.34" y2="34.175" gradientTransform="scale(11.91818) rotate(11.719 148.815 23.023)" gradientUnits="userSpaceOnUse" xlink:href="#arcaneArrival1"/>
        <linearGradient id="linearGradient4371" x1="11.984" x2="10.376" y1="41.34" y2="34.175" gradientTransform="scale(11.91818) rotate(11.719 148.815 23.023)" gradientUnits="userSpaceOnUse" xlink:href="#arcaneArrival1"/>
    </defs>
    <g fill-rule="evenodd">
        <path fill="url(#linearGradient4792)" d="M45.67 86.852c-.411-13.929 4.615-24.226 12.464-31.208 3.534-3.144 7.624-5.653 12.079-7.444 8.918-3.586 18.961-4.7 28.418-3.56 4.183.505 8.253 1.451 12.059 2.82 3.46 1.243 6.702 2.836 9.616 4.763 4.554 3.012 8.306 6.842 10.831 11.434 12.097-30.502 85.443-30.878 86.785 24.69.963 39.908-41.284 78.43-82.84 123.582-43.823-44.188-88.19-83.622-89.412-125.077z" transform="translate(124.662 23.41) scale(.38742)"/>
        <path fill="#f6d5ff" d="M188.771 43.382c4.415-1.526 9.676-.314 13.823 3.27 2.817 3.607 4.303 8.302 3.847 13.322-.508-5.025-2.937-8.911-5.937-11.314-2.79-3.565-7.146-5.854-11.733-5.278z"/>
    </g>
    <g stroke="#f300b7" transform="matrix(1.94872 0 0 1.94872 -155.547 -83.744)">
        <path fill="none" stroke-linecap="round" stroke-width="5" d="M141.79 137.198l1.895-19.445M151.64 117.879c.126.631 2.272 18.94 2.272 18.94"/>
        <path fill="#f300b7" fill-rule="evenodd" d="M153.986 120.528c-3.803-1.936-8.28-1.955-12.56.037.711-7.458.209-14.511.49-21.753.063-1.587 11.766-1.383 11.744-.126-.129 7.28-.114 14.562.326 21.842z"/>
        <path fill="none" stroke-linecap="round" stroke-linejoin="round" stroke-width="3.5" d="M142.294 114.746l-6.878-9.069 7.153-6.115M152.938 99.443l7.195 7.12-8.153 9.586"/>
        <ellipse cx="148.041" cy="90.605" fill="#f300b7" stroke-linecap="round" stroke-linejoin="round" rx="5.872" ry="5.43"/>
    </g>
    <g fill-rule="evenodd">
        <path fill="url(#linearGradient4319)" d="M45.67 86.852c-.411-13.929 4.615-24.226 12.464-31.208 3.534-3.144 7.624-5.653 12.079-7.444 8.918-3.586 18.961-4.7 28.418-3.56 4.183.505 8.253 1.451 12.059 2.82 3.46 1.243 6.702 2.836 9.616 4.763 4.554 3.012 8.306 6.842 10.831 11.434 12.097-30.502 85.443-30.878 86.785 24.69.963 39.908-41.284 78.43-82.84 123.582-43.823-44.188-88.19-83.622-89.412-125.077z" transform="translate(36.142 65.224) scale(.31381)"/>
        <path fill="#f6d5ff" d="M88.07 81.4c3.577-1.236 7.838-.254 11.198 2.65 2.281 2.92 3.485 6.724 3.115 10.79-.41-4.07-2.378-7.218-4.808-9.164-2.26-2.888-5.789-4.742-9.504-4.276z"/>
    </g>
    <g fill-rule="evenodd">
        <path fill="url(#linearGradient4337)" d="M45.67 86.852c-.411-13.929 4.615-24.226 12.464-31.208 3.534-3.144 7.624-5.653 12.079-7.444 8.918-3.586 18.961-4.7 28.418-3.56 4.183.505 8.253 1.451 12.059 2.82 3.46 1.243 6.702 2.836 9.616 4.763 4.554 3.012 8.306 6.842 10.831 11.434 12.097-30.502 85.443-30.878 86.785 24.69.963 39.908-41.284 78.43-82.84 123.582-43.823-44.188-88.19-83.622-89.412-125.077z" transform="matrix(.25419 0 0 .25419 148.286 137.112)"/>
        <path fill="#f6d5ff" d="M190.348 150.215c2.897-1.001 6.348-.206 9.07 2.146 1.848 2.366 2.823 5.446 2.523 8.74-.333-3.297-1.926-5.847-3.895-7.423-1.83-2.34-4.688-3.84-7.698-3.463z"/>
    </g>
    <g fill-rule="evenodd">
        <path fill="url(#linearGradient4371)" d="M45.67 86.852c-.411-13.929 4.615-24.226 12.464-31.208 3.534-3.144 7.624-5.653 12.079-7.444 8.918-3.586 18.961-4.7 28.418-3.56 4.183.505 8.253 1.451 12.059 2.82 3.46 1.243 6.702 2.836 9.616 4.763 4.554 3.012 8.306 6.842 10.831 11.434 12.097-30.502 85.443-30.878 86.785 24.69.963 39.908-41.284 78.43-82.84 123.582-43.823-44.188-88.19-83.622-89.412-125.077z" transform="matrix(.2059 0 0 .2059 59.65 172.912)"/>
        <path fill="#f6d5ff" d="M93.721 183.526c2.347-.811 5.142-.167 7.346 1.738 1.498 1.916 2.287 4.412 2.045 7.08-.27-2.671-1.56-4.736-3.155-6.013-1.483-1.895-3.798-3.111-6.236-2.805z"/>
    </g>
</svg>
