<svg xmlns="http://www.w3.org/2000/svg" xmlns:xlink="http://www.w3.org/1999/xlink" viewBox="0 0 256 256">
    <defs>
        <linearGradient id="powerSuggestion1">
            <stop offset="0" stop-color="#f06"/>
            <stop offset="1" stop-color="#ff2b80"/>
        </linearGradient>
        <linearGradient id="linearGradient4188" x1="130.31" x2="128.289" y1="178.471" y2="151.197" gradientTransform="translate(-3.03 -19.611)" gradientUnits="userSpaceOnUse" xlink:href="#powerSuggestion1"/>
        <linearGradient id="linearGradient4196" x1="132.33" x2="133.34" y1="136.549" y2="116.851" gradientTransform="translate(-3.03 -19.611)" gradientUnits="userSpaceOnUse" xlink:href="#powerSuggestion1"/>
    </defs>
    <g fill-rule="evenodd">
        <path fill="#800033" d="M46.345 119.246c-7.371 12.593 47.232 7.71 84.986 37.337 24.992 19.612 63.18-8.726 76.13-39.897-27.885-19.01-127.06-10.864-161.116 2.56z"/>
        <path fill="#f2f2f2" d="M140.005 138.71c1.018-.709 17.108-1.526 16.072.893 0 0 .089-2.946 3.214-3.75.692-.178 5.319-1.89 8.036-1.607 1.803.188 5 2.143 5 2.143s-.878-4.769 3.571-6.607c2.577-1.065 5.268-1.989 8.036-2.322 1.42-.17 4.286.179 4.286.179s.95-2.352 2.589-3.215c2.893-1.521 10.982-2.5 10.982-2.5l-30.357 35.358c-18.25-1.431-24.494-10.213-31.429-18.572z"/>
        <path fill="#f9a6c7" d="M-66.733 1015.937c.915-1.635 2.834-4.235 5.312-6.64 2.481-2.408 5.506-4.603 8.625-5.452 1.403-.365 2.526-.304 3.843-.037 1.39.283 2.802.742 5.088 1.24a.325.359 38.383 0 0 .243-.04c1.878-1.072 3.279-2.17 4.377-2.833l.011-.01c1.112-.756 2.21-1.269 3.994-1.381 3.415-.222 7.876 1.275 13.882 4.444-5.872-3.313-10.344-5.053-13.903-5.018-1.908.022-3.16.484-4.431 1.228l-.012.01c-1.237.816-2.3 1.764-4.158 2.9-2.103-.407-3.68-.836-4.999-1.047-1.386-.223-2.575-.226-4.028.213-3.178.925-6.209 3.209-8.653 5.66-2.449 2.457-4.326 5.099-5.191 6.762z"/>
        <path fill="url(#linearGradient4188)" d="M207.148 116.924c-20.222 13.408-29.687 33.464-41.786 33.912-13.835.51-21.787-19.235-42.321-25.34-24.87-7.394-44.12 12.236-78.036-5.357.88 10.306 13.09 8.726 26.607 15.535 28.39 14.302 38.335 48.113 76.608 46.608 37.207-1.464 51.382-41.392 58.928-65.358z"/>
        <path fill="#f2f2f2" d="M86.791 116.746s.743 4.94 2.679 5.893c3.976 1.957 9.948 3.232 13.214 2.5 4.235-.95 5.536-11.786 5.536-11.786z"/>
        <path fill="#f2f2f2" d="M106.791 112.996c-.123.044-3.438 12.423 3.214 14.643 4.241 1.414 8.974 1.39 13.393.714 4.946-.756 5.557-14.392 5.536-14.464z"/>
        <path fill="#f2f2f2" d="M127.862 113.532c1.012 5.115-2.57 13.318 3.036 15.178 4.455 1.478 9.264 1.023 13.929.179 6.216-1.126 2.704-10.287 3.928-15.536z"/>
        <path fill="#f2f2f2" d="M148.577 112.46s-1.078 13.952 3.928 14.643c3.679.508 8.432-1.01 11.607-1.429 6.092-.804 5.893-11.785 5.179-11.785-.714 0-20.714-1.429-20.714-1.429z"/>
        <path fill="url(#linearGradient4196)" d="M44.827 120.317c-.847-2.934 12.898-7.484 24.643-11.964 15.208-5.801 8.87-16.051 62.321-16.429 38.666-.273 83.78 18.627 79.464 22.5-7.314 6.566-73.6-2.41-113.393 1.25-5.69.524-12.166 4.75-21.428 5.179-14.555.673-31.607-.536-31.607-.536z"/>
    </g>
</svg>
