<svg xmlns="http://www.w3.org/2000/svg" xmlns:xlink="http://www.w3.org/1999/xlink" viewBox="0 0 256 256">
    <defs>
        <linearGradient id="unseenForce1">
            <stop offset="0" stop-color="#846450"/>
            <stop offset="1" stop-color="#aa8974"/>
        </linearGradient>
        <linearGradient id="linearGradient4320" x1="168.948" x2="179.681" y1="190.34" y2="172.662" gradientUnits="userSpaceOnUse" xlink:href="#unseenForce1"/>
    </defs>
    <g fill-rule="evenodd">
        <path fill="url(#linearGradient4320)" d="M164.042 201.276c-8.087-2.916-16.237-15.481-9.09-20.608 6.394-4.588 10.179-13.894 17.906-15.388 9.527-1.843 19.668-11.212 24.15-5.046 5.926 8.155-9.754 20.261-12.486 30.554-1.967 7.414-13.265 13.09-20.48 10.488z"/>
        <path fill="#ffd5e5" d="M43.43 88.96c24.772 4.554 65.552-33.388 66.663-48.62 9.974 25.848-46.112 65.258-66.662 48.62z"/>
        <path fill="#ff80b2" d="M62.863 116.215c26.01 4.781 68.828-35.058 69.996-51.051 10.472 27.14-48.418 68.52-69.996 51.051z"/>
        <path fill="#f59" d="M82.076 144.737c27.31 5.02 72.27-36.81 73.495-53.603 10.997 28.497-50.838 71.946-73.495 53.603z"/>
        <path fill="#f06" d="M102.105 172.213c28.676 5.27 75.884-38.652 77.17-56.284 11.547 29.923-53.38 75.544-77.17 56.284z"/>
    </g>
</svg>
