<svg xmlns="http://www.w3.org/2000/svg" viewBox="0 0 256 256">
    <defs>
        <linearGradient id="elementalEarth1">
            <stop offset="0" stop-color="#c78c38"/>
            <stop offset="1" stop-color="#e3a347"/>
        </linearGradient>
    </defs>
    <ellipse cx="99.38" cy="112.76" fill="#fae" rx="62.099" ry="15.88"/>
    <path fill="none" stroke="#f0c" stroke-linecap="round" stroke-linejoin="round" stroke-width="4.381" d="M72.971 122.176l26.173-20.834 27.144 20.725-69.973-12.7 86.452.04z"/>
    <g stroke="#f300b7" transform="matrix(1.49954 0 0 1.49954 -72.058 16.904)">
        <path fill="none" stroke-linecap="round" stroke-width="5" d="M141.79 137.198l1.895-19.445M151.64 117.879c.126.631 2.272 18.94 2.272 18.94"/>
        <path fill="#f300b7" fill-rule="evenodd" d="M153.986 120.528c-3.803-1.936-8.28-1.955-12.56.037.711-7.458.209-14.511.49-21.753.063-1.587 11.766-1.383 11.744-.126-.129 7.28-.114 14.562.326 21.842z"/>
        <path fill="none" stroke-linecap="round" stroke-linejoin="round" stroke-width="3.5" d="M142.294 114.746l-6.878-9.069 7.153-6.115M152.938 99.443l7.195 7.12-8.153 9.586"/>
        <ellipse cx="148.041" cy="90.605" fill="#f300b7" stroke-linecap="round" stroke-linejoin="round" rx="5.872" ry="5.43"/>
    </g>
    <g fill="none" stroke="#ff6bda" stroke-dasharray="4,2" stroke-opacity=".949" transform="matrix(.70355 0 0 .69678 11.343 3.274)">
        <ellipse cx="80.245" cy="58.176" stroke-linecap="round" stroke-linejoin="round" rx="11.442" ry="10.581"/>
        <path d="M67.73 72.74c-5.926 4.986-15.09 11.469-15.152 14.648-.082 4.234 14.395 20.96 14.395 20.96l-3.662 40.66c-.605 6.723 8.843 4.89 9.218 1.388l3.788-35.355c2.105-1.934 4.209-1.313 6.314-.253l4.293 34.85c.505 4.1 10.165 3.495 9.722-.378l-4.04-35.356-.126-5.555c-.506-.38 14.717-15.74 15.026-19.32.233-2.712-13.52-14.153-16.542-16.415-2.392-1.79-20.393-2.262-23.233.127z"/>
        <path d="M60.28 88.02l6.756 9.217.127-14.963zM98.7 89.026l-6.297 9.251-.117-15.017z"/>
    </g>
    <g fill="none" stroke="#ff6bda" stroke-dasharray="4,2" stroke-opacity=".949" transform="matrix(.70355 0 0 .69678 43.707 17.36)">
        <ellipse cx="80.245" cy="58.176" stroke-linecap="round" stroke-linejoin="round" rx="11.442" ry="10.581"/>
        <path d="M67.73 72.74c-5.926 4.986-15.09 11.469-15.152 14.648-.082 4.234 14.395 20.96 14.395 20.96l-3.662 40.66c-.605 6.723 8.843 4.89 9.218 1.388l3.788-35.355c2.105-1.934 4.209-1.313 6.314-.253l4.293 34.85c.505 4.1 10.165 3.495 9.722-.378l-4.04-35.356-.126-5.555c-.506-.38 14.717-15.74 15.026-19.32.233-2.712-13.52-14.153-16.542-16.415-2.392-1.79-20.393-2.262-23.233.127z"/>
        <path d="M60.28 88.02l6.756 9.217.127-14.963zM98.7 89.026l-6.297 9.251-.117-15.017z"/>
    </g>
    <g fill="none" stroke="#ff6bda" stroke-dasharray="4,2" stroke-opacity=".949" transform="matrix(.70355 0 0 .69678 76.937 5.7)">
        <ellipse cx="80.245" cy="58.176" stroke-linecap="round" stroke-linejoin="round" rx="11.442" ry="10.581"/>
        <path d="M67.73 72.74c-5.926 4.986-15.09 11.469-15.152 14.648-.082 4.234 14.395 20.96 14.395 20.96l-3.662 40.66c-.605 6.723 8.843 4.89 9.218 1.388l3.788-35.355c2.105-1.934 4.209-1.313 6.314-.253l4.293 34.85c.505 4.1 10.165 3.495 9.722-.378l-4.04-35.356-.126-5.555c-.506-.38 14.717-15.74 15.026-19.32.233-2.712-13.52-14.153-16.542-16.415-2.392-1.79-20.393-2.262-23.233.127z"/>
        <path d="M60.28 88.02l6.756 9.217.127-14.963zM98.7 89.026l-6.297 9.251-.117-15.017z"/>
    </g>
    <path fill="none" stroke="#c80097" stroke-linecap="round" stroke-width="7.498" d="M101.53 211.38l2.84-29.158M116.3 182.411c.188.947 3.407 28.402 3.407 28.402"/>
    <path fill="#c80097" fill-rule="evenodd" stroke="#c80097" stroke-width="1.5" d="M119.818 186.384c-5.704-2.904-12.417-2.932-18.835.055 1.067-11.184.314-21.76.737-32.62.092-2.38 17.642-2.074 17.609-.188-.193 10.917-.172 21.835.49 32.753z"/>
    <path fill="none" stroke="#c80097" stroke-linecap="round" stroke-linejoin="round" stroke-width="5.248" d="M102.286 177.712l-10.314-13.598 10.726-9.17M118.246 154.766l10.79 10.676-12.226 14.374"/>
    <ellipse cx="110.903" cy="141.512" fill="#c80097" stroke="#c80097" stroke-linecap="round" stroke-linejoin="round" stroke-width="1.5" rx="8.805" ry="8.142"/>
    <path fill="none" stroke="#ff66da" stroke-linecap="round" stroke-width="7.498" d="M181.399 211.77l2.84-29.16M196.168 182.8c.19.946 3.408 28.401 3.408 28.401"/>
    <path fill="#ff66da" fill-rule="evenodd" stroke="#ff66da" stroke-width="1.5" d="M199.687 186.772c-5.704-2.903-12.417-2.932-18.835.056 1.067-11.184.313-21.76.736-32.62.093-2.38 17.643-2.074 17.61-.189-.193 10.917-.172 21.836.49 32.753z"/>
    <path fill="none" stroke="#ff66da" stroke-linecap="round" stroke-linejoin="round" stroke-width="5.248" d="M182.155 178.101l-10.315-13.598 10.727-9.17M198.115 155.155l10.789 10.676-12.225 14.374"/>
    <ellipse cx="190.772" cy="141.901" fill="#ff66da" stroke="#ff66da" stroke-linecap="round" stroke-linejoin="round" stroke-width="1.5" rx="8.805" ry="8.142"/>
    <path fill="#ff6bda" fill-rule="evenodd" d="M149.76 52.317c55.725-17.572 106.839 26.243 11.107 80.065 63.555-60.235 46.99-75.32-11.108-80.065z"/>
    <path fill="#f300b7" fill-rule="evenodd" d="M160.128 51.548c44.04-10.635 83.01 28.833 9.764 73.959 54.48-51.638 40.033-69.871-9.764-73.96z"/>
    <path fill="#ffc3f0" fill-rule="evenodd" d="M172.871 115.343c14.013-20.252 38.9-46.67-8.032-57.705 38.219 6.563 42.197 18.065 8.032 57.705z"/>
    <path fill="#ffc3f0" fill-rule="evenodd" d="M186.289 118.75c33.556-25.764 52.81-60.705-3.533-72.75 50.053.88 53.846 42.627 3.533 72.75z"/>
</svg>
