<svg xmlns="http://www.w3.org/2000/svg" viewBox="0 0 64 64">
    <path fill="#fd5" stroke="#000" stroke-linecap="round" stroke-linejoin="round" stroke-miterlimit="10" stroke-width=".657" d="M18.73 26s4.598 4.415 1.587 11.184c-1.012 6.158-2.682 4.324-3.676 9.086.56.118.42.371.83.457 3.777.784 2.509 1.924 2.509 1.924-1.56.52-9.862.52-10.674-.437-.301-1.104.244-1.834.244-1.834-.509-.237-1.549.237-1.549.237s-.002-1.542 1.195-3.74c-.322.719-.656.656-.656.656s0-1.187.433-3.166c-.223.73-.406.812-.406.812s-.127-1.06.675-2.618c-.365.62-.483.675-.483.675s-.102-1.23.214-2.052c.094-2.523.06-4.941-.351-6.336"/>
    <path fill="#1a1a1a" stroke="#000" stroke-linecap="round" stroke-linejoin="round" stroke-miterlimit="10" stroke-width=".657" d="M17.407 47.42c-.532-.025-.529 1.095-.3 1.286.528-.137 2.216.21 2.216.21s-.415-1.428-1.916-1.497z"/>
    <path fill="none" stroke="#000" stroke-linecap="round" stroke-linejoin="round" stroke-miterlimit="10" stroke-width=".219" d="M16.586 46.859c1.556.137 2.906.97 2.906 1.906"/>
    <path fill="#1a1a1a" stroke="#000" stroke-linecap="round" stroke-linejoin="round" stroke-miterlimit="10" stroke-width=".657" d="M20.322 48.268s.233-.711-1.3-.985c.479.287.383.424.465.575.465.068.835.41.835.41z"/>
    <path fill="#fd5" stroke="#000" stroke-linecap="round" stroke-linejoin="round" stroke-miterlimit="10" stroke-width=".657" d="M33.144 26.473c-2.025 6.441-.038 15.003-.038 15.003s.212-.118.34-.406c.52 3.12-.43 5.583-.43 5.583s1.114.11 1.73.562c-.151.438-.192 1.026-.192 1.026s1.842.641 3.856.835c.676.065 1.274-.194 1.96-.178 1.358.032 2.605.067 3.375-.438.388-1.861-3.403-1.136-3.156-2.723.135-.876.353-1.65.218-3.08-.153-1.622.713-3.358 1.328-6.253.21-.988.74-1.755.716-3.18"/>
    <path fill="none" stroke="#000" stroke-linecap="round" stroke-linejoin="round" stroke-miterlimit="10" stroke-width=".219" d="M40.534 47.164s2.262-.11 2.347 1.63"/>
    <path fill="#1a1a1a" stroke="#000" stroke-linecap="round" stroke-linejoin="round" stroke-miterlimit="10" stroke-width=".657" d="M41.56 47.447c-.554-.197-.493.834-.246 1.15.753-.11 1.41.424 1.41.424s-.295-1.264-1.164-1.574zM42.877 47.374c-.455-.026-.468.774-.032 1.136.452.012 1.195.438 1.195.438s-.243-1.52-1.163-1.574z"/>
    <path fill="#f55" stroke="#000" stroke-linecap="round" stroke-linejoin="round" stroke-miterlimit="10" stroke-width=".657" d="M49.414 24.253s-1.405-.141-2.168-1.715a2.455 2.455 0 0 1 .407-2.68c.757-.829 3.556-1.467 3.695 1.234l.031-.218.17.28.14-.282.137.428"/>
    <path fill="#ff8080" stroke="#000" stroke-linecap="round" stroke-linejoin="round" stroke-miterlimit="10" stroke-width=".657" d="M47.975 33.897s.036-.176.025-.543c.269.582 1.374.945 1.374.945s-.036-.384-.534-.998c1.207.938 3.074.491 3.074.491.407-.031.641-.057.641-.057s2.591.876 3.138.019c.858-.22 1.345-.645 1.861-1.478 2.3-.876.58-2.96-.967-4.945-.292-6.35-7.571-7.178-8.375-7.317-2.874-.495-5.12-2.128-7.89-3.429-2.186-.963-2.679-1.374-2.679-1.374s-.01.365.575.821c-1.478-1.04-1.994-1.108-1.994-1.108s.13.51.79.753c-1.204-.645-2.872-.865-4.53-.835-1.073.019-1.855.481-2.846.63-1.697-.33-2.41-.22-2.41-.22s-.09.092.767.35c-1.168-.35-2.59-.331-2.59-.331s.2.164 1.018.309c-3.79-.169-8.15-1.068-9.95-.601-2.837.218-3.713.875-3.713.875l1.297-.12c-2.017.312-3.14 1.16-3.14 1.16s.183.092.808-.105c-3.09 1.683-5.137 4.142-6.126 7.63-.831 2.93.537 7.492.537 7.492s.146-.292.22-1.478c-.146 1.751.565 4.324.565 4.324s.22-.182.438-1.642c-.328 3.503.305 4.053.305 4.053.506 1.22 8.346.233 12.924-.221-.912.42-1.094.764-1.094.764s1.277.185 3.74-.855c-.602.401-.53.82-.53.82s1.278-.109 2.865-1.185c-.93.82-.893.985-.893.985s1.148-.128 2.644-1.077c.42.274 1.168.128 1.168.128s.42-.51 0-1.094c.585.602 1.615.264 2.592 1.295 2.195-.367 8.04-2.886 10.45-3.095-.452.705-.123 2.091-.123 2.091s1.505-1.231 1.874-2.107c.388.1.625-.113 1.027-.046 1.222.205 2.496.297 3.667.326z"/>
    <path fill="#ffe680" d="M48.311 24.54s-1.405-.14-2.168-1.714a2.455 2.455 0 0 1 .407-2.68c.757-.829 3.556-1.467 3.695 1.234l.032-.218.17.279.14-.281.137.428c-.957.27-2.35 1.738-2.413 2.953z"/>
    <path fill="none" stroke="#000" stroke-linecap="round" stroke-linejoin="round" stroke-miterlimit="10" stroke-width=".657" d="M48.311 24.54s-1.405-.14-2.168-1.714a2.455 2.455 0 0 1 .407-2.68c.757-.829 3.556-1.467 3.695 1.234l.032-.218.17.279.14-.281.137.428"/>
    <path fill="#fea" stroke="#000" stroke-linecap="round" stroke-linejoin="round" stroke-miterlimit="10" stroke-width=".219" d="M49.73 21.93s-.31-.027-.261-.35c.116-.776-.59-1.841-1.799-1.46-.276.087-.83.311-.938 1.104-.198 1.475.56 2.061 1.601 2.365a3.88 3.88 0 0 1 1.398-1.66z"/>
    <path fill="#ffe680" stroke="#ffe680" stroke-linecap="round" stroke-linejoin="round" stroke-miterlimit="10" stroke-width=".2" d="M10.541 21.12c-.529.01-1.07.124-1.613.372-4.345 1.989-1.623 9.43-1.623 9.43.412 1.395.445 3.813.351 6.336-.316.82-.215 2.05-.215 2.05s.12-.053.485-.673c-.803 1.559-.676 2.617-.676 2.617s.183-.083.406-.813c-.433 1.98-.433 3.168-.433 3.168s.333.062.656-.658c-1.197 2.198-1.195 3.74-1.195 3.74s1.04-.473 1.548-.236c0 0-.545.73-.244 1.834.812.958 9.114.958 10.674.438 0 0 1.27-1.142-2.508-1.926-.409-.085-.27-.337-.83-.455.994-4.763 2.663-2.928 3.676-9.086 3.01-6.77-1.586-11.186-1.586-11.186s-3.17-5.028-6.873-4.953z"/>
    <path fill="#ffe680" stroke="#000" stroke-linecap="round" stroke-linejoin="round" stroke-miterlimit="10" stroke-width=".657" d="M17.413 26.072S22.011 30.488 19 37.257c-1.012 6.158-2.682 4.324-3.676 9.086.56.118.42.372.83.457 3.777.784 2.51 1.925 2.51 1.925-1.56.52-9.863.52-10.675-.438-.3-1.104.244-1.834.244-1.834-.509-.237-1.549.237-1.549.237s-.001-1.542 1.196-3.74c-.323.72-.657.657-.657.657s0-1.188.433-3.167c-.223.73-.406.812-.406.812s-.127-1.059.675-2.618c-.364.62-.483.675-.483.675s-.102-1.23.214-2.052c.095-2.522.06-4.941-.351-6.336" style="font-variant-east_asian:normal"/>
    <path fill="#1a1a1a" stroke="#000" stroke-linecap="round" stroke-linejoin="round" stroke-miterlimit="10" stroke-width=".657" d="M16.09 47.493c-.532-.025-.529 1.095-.3 1.286.528-.137 2.216.21 2.216.21s-.415-1.428-1.916-1.496z"/>
    <path fill="none" stroke="#000" stroke-linecap="round" stroke-linejoin="round" stroke-miterlimit="10" stroke-width=".219" d="M15.27 46.932c1.555.137 2.905.97 2.905 1.906"/>
    <path fill="#1a1a1a" stroke="#000" stroke-linecap="round" stroke-linejoin="round" stroke-miterlimit="10" stroke-width=".657" d="M19.005 48.341s.233-.711-1.3-.985c.479.288.383.424.465.575.466.068.835.41.835.41z"/>
    <path fill="#ffe680" d="M41.535 33.298l-10.455 3.43c-4.763-8.798-2.129-21.384 1.477-21.49 2.08-.061 1.97 3.718 4.708 6.638 2.737 2.92 4.27 11.422 4.27 11.422z"/>
    <path fill="#ffe680" stroke="#000" stroke-linecap="round" stroke-linejoin="round" stroke-miterlimit="10" stroke-width=".657" d="M31.828 26.546c-2.026 6.441-.039 15.003-.039 15.003s.212-.118.34-.405c.52 3.12-.429 5.582-.429 5.582s1.113.11 1.729.562c-.151.438-.192 1.026-.192 1.026s1.842.641 3.856.835c.677.065 1.274-.194 1.96-.178 1.358.032 2.605.067 3.376-.438.387-1.86-3.404-1.136-3.157-2.723.136-.876.354-1.65.219-3.08-.153-1.621.713-3.358 1.327-6.253.21-.988.74-1.755.717-3.18"/>
    <path fill="none" stroke="#000" stroke-linecap="round" stroke-linejoin="round" stroke-miterlimit="10" stroke-width=".219" d="M39.217 47.237s2.262-.11 2.348 1.63"/>
    <path fill="#1a1a1a" stroke="#000" stroke-linecap="round" stroke-linejoin="round" stroke-miterlimit="10" stroke-width=".657" d="M40.243 47.52c-.554-.197-.493.834-.246 1.15.753-.11 1.41.424 1.41.424s-.295-1.264-1.164-1.574zM41.56 47.447c-.454-.026-.468.774-.031 1.136.451.012 1.194.438 1.194.438s-.242-1.52-1.163-1.574z"/>
    <path fill="#1a1a1a" stroke="#000" stroke-linecap="round" stroke-linejoin="round" stroke-miterlimit="10" stroke-width=".219" d="M58.634 31.279c-.104.408-.433.75-1.08.997 0 0-.118-.812-.191-1.268.392.273 1.271.27 1.271.27z"/>
    <path fill="#ffe680" d="M56.063 27.938c-.069.3.057.478-.082.876-.218.62-.734 1.268-1.26 1.026-.91-.419-.594-3.014.575-3.293 1.17-.28.835 1.09.767 1.39z"/>
    <path d="M46.182 28.937c.059-.262.13-.52.22-.774.158-.273.32.058.382.213.046-.39.108-.904.378-1.205-.269.394-.25 1.106-.234 1.563.005.133.045.313.015.443-.034.152-.165.14-.219.01a2.266 2.266 0 0 0-.137-.565c-.226.988-.24 2.037.04 3.016.123.43.309.84.568 1.206.254.359.65.615.78 1.053-.904-.076-1.453-1.188-1.695-1.939-.313-.973-.317-2.028-.098-3.021.059-.262-.058.262 0 0zM47.718 21.34a2.372 2.372 0 0 1-.11-.81c.11.394.249.748.45 1.107-.008-.086-.073-.303.06-.333.124-.028.135.135.153.215.078.338.201.735.466.977-.202-.094-.339-.289-.455-.469-.028.231-.228.01-.274-.065a3.288 3.288 0 0 1-.29-.622zM41.667 25.911c.024-.917.204-1.802.397-2.696-.256 1.666-.43 3.32-.007 4.98.08-.479.095-.97.12-1.453.004-.067-.026-.571.183-.43.112.074.05.438.052.546.013 1.086.355 2.214.689 3.242.072-.396.092-.791.098-1.193l.003-.19c.001-.083.113-.103.134-.018l.094.384c.197.802.58 1.62 1.116 2.25-.529-.547-1.016-1.357-1.203-2.107.003.174-.013.344-.026.516a4.715 4.715 0 0 1-.04.37c-.017.108-.012.324-.086.409-.152.174-.266-.348-.287-.412a18.563 18.563 0 0 1-.601-2.298c-.01.086-.018.172-.03.257-.015.147-.02.48-.12.594-.153.177-.242-.291-.265-.364a5.435 5.435 0 0 1-.14-.714c-.07-.56-.095-1.11-.08-1.673zM38.145 16.843c.473.21.917.486 1.267.875.22.245.413.508.57.8.065.12.228.364.21.506-.02.15-.338.01-.419-.013.438.333.857.69 1.247 1.077.057.057.197.148.194.242-.005.168-.341.087-.439.079a5.214 5.214 0 0 1-.835-.129 7.325 7.325 0 0 1 1.886 1.596c-.693-.72-1.572-1.362-2.494-1.761-.105-.046-.593-.175-.524-.321.055-.117.308.04.378.067.503.224 1.118.317 1.662.35-.43-.414-.894-.79-1.365-1.156-.11-.086-.228-.164-.342-.244a7.581 7.581 0 0 0-.288-.197c-.133-.086-.346-.167-.452-.285-.053-.06-.082-.191.049-.186.049.002.108.05.146.073l.397.237c.312.186.645.344.995.447-.388-1.062-1.232-1.779-2.249-2.197.134.044.28.079.406.14zM8.201 29.467c.006-.388.034-.772.062-1.16-.002.968-.032 2.007.283 2.936.158-.136.243-.314.338-.494.037-.075.073-.346.213-.279.08.039.063.196.069.267.014.133.036.26.06.39.136.702.36 1.385.573 2.066.126-.4.23-.813.275-1.23.02-.187.032-.37.038-.556.002-.061.003-.139.083-.148.108-.014.108.115.117.186.081.626.32 1.219.855 1.597.187-.452.37-1.024.188-1.505.156.33.118.704.045 1.052a4.16 4.16 0 0 1-.16.556c-.098.071-.217-.063-.298-.132a2.306 2.306 0 0 1-.68-.993c-.028.293-.09.589-.163.872a8.27 8.27 0 0 1-.205.68c-.106.302-.289-.272-.302-.313-.244-.758-.466-1.531-.597-2.318a1.278 1.278 0 0 1-.331.419c-.151.125-.214.112-.272-.085a4.597 4.597 0 0 1-.121-.578 7.477 7.477 0 0 1-.07-1.23zM55.366 33.28c.127.133.25.27.394.387.134.109-.04.288-.151.155-.251-.297-.428-.647-.609-.99.12.15.234.308.366.447.098.105-.099-.104 0 0z"/>
    <ellipse cx="-61.19" cy="-9.027" fill="#1a1a1a" rx=".403" ry=".464" transform="scale(-1 1) rotate(-34.834)"/>
    <ellipse cx="38.494" cy="48.274" fill="#fff" rx=".071" ry=".138" transform="scale(1 -1) rotate(-77.655)"/>
</svg>
