<svg cursor="default" version="1.1" viewBox="0 0 256 256" xmlns="http://www.w3.org/2000/svg" xmlns:xlink="http://www.w3.org/1999/xlink">
 <defs>
  <linearGradient id="innoGrad2">
   <stop stop-color="#fea" offset="0"/>
   <stop stop-color="#ffe680" offset="1"/>
  </linearGradient>
  <radialGradient id="radialGradient912" cx="144.29" cy="207.69" r="5.4753" gradientTransform="matrix(.69983 -.32573 .27367 .58798 -12.82 132.86)" gradientUnits="userSpaceOnUse" xlink:href="#innoGrad2"/>
  <radialGradient id="radialGradient916" cx="144.29" cy="207.69" r="5.4753" gradientTransform="matrix(-.69983 -.32573 -.27367 .58798 292.52 133.12)" gradientUnits="userSpaceOnUse" xlink:href="#innoGrad2"/>
  <radialGradient id="radialGradient859" cx="140.54" cy="203.64" r="28.092" gradientTransform="matrix(1.179 .010071 -.0088475 1.0357 -23.22 -8.691)" gradientUnits="userSpaceOnUse">
   <stop stop-color="#faa" offset="0"/>
   <stop stop-color="#ff8080" offset="1"/>
  </radialGradient>
 </defs>
 <g stroke="#000">
  <g fill-rule="evenodd">
   <path d="m138.77 170.99c-132.76-38.128-141.32-81.186-129.61-103.91 18.191-35.314 91.366-35.271 120.37-39.431l9.1444-1.5372-3.9753 2.2586 4.4698 1.4038-9.8868-0.3171c-30.368 2.2712-103.76 5.1922-118.93 38.219-25.886 56.369 106.71 96.921 128.81 101.42 38.655-8.1154 106.67-37.252 107.26-95.143 0.294-28.494-42.847-42.224-102.57-44.496l-5.7466-0.13545-2.5778-1.0952 2.7636-1.3912 5.313 0.81375c10.933 2.4906 104.65 2.2606 104.31 46.071-0.6111 78.833-116.6 97.668-109.15 97.268z" fill="#ffb380" stroke-width=".5985"/>
  </g>
  <path d="m139.52 180.99a3.6456 3.5606 0 0 0-3.6456 3.5606 3.6456 3.5606 0 0 0 3.6456 3.5606 3.6456 3.5606 0 0 0 3.6435-3.5606 3.6456 3.5606 0 0 0-3.6435-3.5606zm-0.063 1.469a2.037 2.0118 0 0 1 2.037 2.0118 2.037 2.0118 0 0 1-2.037 2.0118 2.037 2.0118 0 0 1-2.037-2.0118 2.037 2.0118 0 0 1 2.037-2.0118z" fill="#fd5" stroke-linecap="round" stroke-linejoin="round" stroke-width=".56558"/>
  <path d="m143.58 167.9c-0.23616 5.3858-2.2585 15.733-4.1072 15.696-1.8686-0.0376-4.5725-12.186-4.154-15.871 0.0673-0.59216 8.3006-0.72215 8.2613 0.17491z" fill="#ffe680" fill-rule="evenodd" stroke-width=".56558"/>
  <path d="m136.82 190.74 1.2379-5.3011c0.46999-0.50287 2.6208-0.46746 2.9924-0.0758l1.5016 5.5066z" fill="#ff8080" fill-rule="evenodd" stroke-width=".49495"/>
 </g>
 <path d="m136.41 168.17c0.55928-0.053 2.123-0.1287 3.4962-0.0146 0.60637 0.0504 1.1056 0.132 1.4892 0.24252 0.22292 0.0642 0.38578 0.13216 0.50563 0.19703 0.11355 0.0615 0.18214 0.11675 0.22594 0.15654 0.0183 0.0166 0.0361 0.0342 0.0525 0.0527 0.0293 0.0312 0.0761 0.0975 0.11864 0.24102 0.0344 0.11604 0.0621 0.26936 0.0789 0.46881 0.0306 0.36203 0.0207 0.81747-0.0157 1.3457-0.0356 0.51533-0.0957 1.0839-0.146 1.5562-0.068 0.63821-0.11609 1.133-0.14429 1.4151 0.0309-0.30914 0.10447-0.73598 0.22959-1.4025 0.0875-0.46606 0.19596-1.0294 0.27882-1.5436 0.0843-0.52339 0.1423-0.99419 0.15215-1.3804 5e-3 -0.21403-4e-3 -0.39626-0.0297-0.54913-0.0316-0.18853-0.088-0.33203-0.16965-0.43751-0.0317-0.0407-0.0652-0.0756-0.0976-0.10502-0.08-0.0726-0.19114-0.14593-0.34531-0.21226-0.16021-0.0689-0.3598-0.1274-0.60754-0.17309-0.42288-0.078-0.95277-0.11244-1.5662-0.11055-1.4051 4e-3 -2.9377 0.19932-3.5056 0.25313z" fill="#fff6d5"/>
 <g stroke="#000">
  <path d="m123.23 178.93c-2.2967 5.1535-0.90326 13.925 1.8989 16.547-1.6194 2.1004-2.1635 4.4125-2.5262 6.7614-1.9936 1.9338-4.9628 2.9364-9.7976 2.1614 10.472 14.368 16.494 9.2776 27.589 25.284 10.346-16.501 16.592-11.694 26.39-26.529-4.7939 0.99704-7.8062 0.1324-9.8868-1.7074-0.47057-2.3297-1.1208-4.6143-2.8352-6.6378 2.4374-2.8519 3.6972-11.393 1.1341-16.617-2.2943 4.5924-5.5181 10.637-11.373 12.682-2.9094-1.0912-5.7904-0.95483-8.6479 0.19945-5.9431-1.7725-9.4421-7.6621-11.946-12.144z" fill="url(#radialGradient859)"/>
  <path d="m142.08 209.56c0.62792-6.4924 6.6554-3.6864 10.47-9.5387-0.80878 1.2353-1.4842 11.128-10.47 9.5387z" fill="url(#radialGradient912)" stroke-width=".5"/>
  <path d="m137.63 209.81c-0.62792-6.4924-6.6554-3.6864-10.47-9.5387 0.80878 1.2353 1.4842 11.128 10.47 9.5387z" fill="url(#radialGradient916)" stroke-width=".5"/>
 </g>
</svg>
