<svg version="1.1" viewBox="0 0 256 256" xmlns="http://www.w3.org/2000/svg" xmlns:xlink="http://www.w3.org/1999/xlink">
 <defs>
  <linearGradient id="linearGradient884" x1="-241.62" x2="-240.09" y1="94.294" y2="71.825" gradientTransform="translate(318.29 -33.189)" gradientUnits="userSpaceOnUse">
   <stop stop-color="#5c913b" offset="0"/>
   <stop stop-color="#72b048" offset="1"/>
  </linearGradient>
  <linearGradient id="linearGradient896" x1="-180.6" x2="-135.28" y1="253.01" y2="136.2" gradientTransform="translate(318.29 -33.189)" gradientUnits="userSpaceOnUse">
   <stop stop-color="#fec86e" offset="0"/>
   <stop stop-color="#ff886c" offset="1"/>
  </linearGradient>
  <linearGradient id="linearGradient904" x1="-242.98" x2="-233.22" y1="224.54" y2="119.86" gradientTransform="translate(318.29 -33.189)" gradientUnits="userSpaceOnUse">
   <stop stop-color="#fec366" offset="0"/>
   <stop stop-color="#ff8165" offset="1"/>
  </linearGradient>
 </defs>
 <g stroke="#000">
  <g stroke-linecap="round" stroke-linejoin="round">
   <path d="m127.51 54.418c16.533-3.3877 24.317-1.7761 34.111-1.3131 9.2577-0.69782 17.622-0.94886 22.819 0.38352 42.634 18.061 51.042 64.909 49.474 88.976-2.967 45.516-36.299 83.483-83.606 86.483-5.417 0.34354-11.116-1.7353-16.497-3.7231-86.683-28.833-59.806-149.27-6.3-170.81z" fill="url(#linearGradient896)"/>
   <path d="m133.81 225.22c-15.127 6.439-37.781 3.4205-57.823-15.29-13.032-12.167-26.368-30.187-30.996-59.231-5.1341-32.221 6.2627-65.051 31.854-84.119 12.524-9.3316 22.376-15.231 50.666-12.165 8.2518 0.23057 15.22 9.1523 8.2614 11.649-3.5351 1.2683-11.328 4.3027-12.793 5.3478-35.579 18.019-35.772 138.01 10.832 153.81z" fill="url(#linearGradient904)"/>
   <path d="m132.5 61.061c-3.4892 1.1372-7.0711 2.7373-10.205 2.0969-12.121-2.4774-19.601-1.77-26.98-0.97854-8.7841 0.94213-17.848 5.1999-27.259 9.5058-15.267 2.4422-35.441-1.7053-57.874-2.9356 7.1268-5.8455 11.13-11.619 22.926-17.893 11.922-6.3416 23.153-12.754 38.862-15.237 33.751-5.3356 52.563 14.036 59.272 22.506z" fill="url(#linearGradient884)" stroke-width=".729"/>
  </g>
  <path d="m131.39 59.523c-0.71687-0.34715-2.0772-1.3031-3.6163-2.2222-1.5677-0.93614-3.2058-1.784-4.1677-2.0811-3.5923-1.1094-9.0045-2.4383-16.427-3.4098-8.8933-1.1639-19.989-1.7147-32.409-0.97002-11.87 0.71166-23.553 2.5268-34.265 5.3727-14.351 3.8129-24.015 8.6723-30.314 12.537 6.2756-3.8503 16.103-8.5322 30.45-11.998 10.729-2.5921 22.401-4.1142 34.194-4.5315 12.357-0.43727 23.3 0.3869 32.039 1.7323 7.2873 1.122 12.534 2.5206 16.014 3.595 1.7833 0.55072 7.0689 1.282 8.5026 1.9763z" fill="#77b255" stroke-width=".729px"/>
  <path d="m133.58 67.009-6.1256-17.11c-0.68326-1.9084 0.87903-4.8258 1.8781-7.3147 0.38571-0.96086 4.6895-1.3955 5.5355-0.59308 1.4738 1.398 3.193 2.965 3.3608 5.7332l1.0466 17.27z" fill="#6b4c23" stroke-linecap="round" stroke-linejoin="round" stroke-width=".729"/>
 </g>
 <path d="m122.98 71.415 0.23476 0.44146c5.3213-2.8297 11.472-5.2709 23.045-8.7655 4.9537-1.4958 9.9252-2.9283 14.08-4.245 4.3808-1.3884 7.2756-2.4439 9.6098-3.3572-4.2538 1.6645-13.842 4.3677-23.828 7.1219-11.474 3.1644-18.13 5.5731-23.376 8.3629l0.23476 0.44146z"/>
 <path d="m122.75 70.974s0.29822-0.40133 0.29822-0.40133c-1.2564-0.93361-3.3927-2.0347-6.9245-2.8301-2.6209-0.59023-5.7-0.93848-9.0111-0.98792-3.3085-0.0494-6.5084 0.20438-9.3228 0.66312-3.7905 0.61786-6.2915 1.5018-7.8353 2.173 1.5359-0.66776 4.0831-1.4822 7.864-1.9777 2.8139-0.36877 6.0046-0.51628 9.2783-0.3587 3.2821 0.15798 6.2968 0.60561 8.8375 1.2681 3.4241 0.89284 5.3818 2.009 6.5174 2.8528 0 0 0.29822-0.40133 0.29822-0.40133z"/>
</svg>
