<svg version="1.1" viewBox="0 0 64 64" xmlns="http://www.w3.org/2000/svg">
 <path d="m32.137 1.9545c-24.399-0.09456-37.055 27.048-22.318 52.73l-5.3159 1.442 3.0288 5.6247 12.518-4.9598c-10.571-11.252-6.0679-38.864 11.532-38.981 19.606-0.13002 21.45 29.189 12.597 39.209l12.539 5.0263 3.0037-5.9999-5.4489-2.0226c15.017-25.554 0.86135-51.978-22.135-52.068zm-6.8391 5.0426a3.673 3.5858 0 0 1 3.673 3.5858 3.673 3.5858 0 0 1-3.673 3.5873 3.673 3.5858 0 0 1-3.673-3.5873 3.673 3.5858 0 0 1 3.673-3.5858zm14.021 0.08717a3.673 3.5858 0 0 1 3.6715 3.5858 3.673 3.5858 0 0 1-3.673 3.5858 3.673 3.5858 0 0 1-3.673-3.5858 3.673 3.5858 0 0 1 3.673-3.5858zm10.212 7.8748a3.673 3.5858 0 0 1 3.673 3.5858 3.673 3.5858 0 0 1-3.673 3.5858 3.673 3.5858 0 0 1-3.673-3.5858 3.673 3.5858 0 0 1 3.673-3.5858zm-35.744 0.86579a3.673 3.5858 0 0 1 3.673 3.5858 3.673 3.5858 0 0 1-3.673 3.5858 3.673 3.5858 0 0 1-3.673-3.5858 3.673 3.5858 0 0 1 3.673-3.5858zm-4.2373 10.579a3.3051 3.2282 0 0 1 3.3051 3.2297 3.3051 3.2282 0 0 1-3.3051 3.2268 3.3051 3.2282 0 0 1-3.3051-3.2268 3.3051 3.2282 0 0 1 3.3051-3.2282zm44.205 0.61314a3.3051 3.2282 0 0 1 3.3051 3.2268 3.3051 3.2282 0 0 1-3.3065 3.2282 3.3051 3.2282 0 0 1-3.3051-3.2282 3.3051 3.2282 0 0 1 3.3051-3.2268z" fill="#ffb380" fill-rule="evenodd"/>
</svg>
