<svg version="1.1" viewBox="0 0 64 64" xmlns="http://www.w3.org/2000/svg">
 <g transform="translate(.12657)" fill="#ffb380" stroke-width=".57458">
  <path d="m43.969 13.767 0.0968 36.448 17.432 0.01736-0.01982-36.365h-2.8377l-0.03848 2.1228-2.391-0.01302-0.04082-2.2096-2.2674 0.0246-0.01167 2.1474-2.377 0.0246v-2.1474l-2.5099-0.0492 0.03032 2.3297-2.7024 0.03039 0.04082-2.3601zm8.7463 7.0771c1.0681-0.0033 1.0143 3.9282 1.0357 5.9372l-2.0283-0.03472c0.02142-2.3069-0.17044-5.8988 0.99255-5.9025zm0.06532 11.379c1.0681-0.0034 1.0143 3.9282 1.0357 5.9372l-2.0271-0.03472c0.02142-2.3069-0.1716-5.8988 0.99136-5.9025z"/>
  <path d="m2.249 13.767 0.0968 36.448 17.432 0.01736-0.01982-36.365h-2.8377l-0.03848 2.1228-2.391-0.01302-0.04082-2.2096-2.2674 0.0246-0.01167 2.1474-2.377 0.0246v-2.1474l-2.5099-0.0492 0.03032 2.3297-2.7024 0.03039 0.04082-2.3601zm8.7463 7.0771c1.0681-0.0033 1.0143 3.9282 1.0357 5.9372l-2.0283-0.03472c0.02142-2.3069-0.17044-5.8988 0.99255-5.9025zm0.06532 11.379c1.0681-0.0034 1.0143 3.9282 1.0357 5.9372l-2.0271-0.03472c0.02142-2.3069-0.1716-5.8988 0.99136-5.9025z"/>
  <path d="m48.103 50.215-0.01982-24.23h-2.8377l-0.03848 2.1228-2.391-0.01302-0.04082-2.2096-2.2674 0.0246-0.01167 2.1474-2.377 0.0246v-2.1474l-2.5099-0.0492 0.03032 2.3297-2.7024 0.03039 0.04082-2.3601-2.404-1.06e-4 0.05281 2.1276-2.4823-0.01782-0.04082-2.2096-2.2674 0.0246-0.01167 2.1474-2.377 0.0246v-2.1474l-2.5099-0.0492 0.03032 2.3297-2.7024 0.03039 0.04082-2.3601-2.404-1.06e-4 -0.0049 24.414 13.38 0.0065c0.01456-4.5082-0.33556-9.9813 3.2203-10.015 3.5968-0.03445 3.3902 5.4752 3.4407 10.019z"/>
 </g>
</svg>
