<svg version="1.1" viewBox="0 0 64 64" xmlns="http://www.w3.org/2000/svg">
 <g transform="matrix(1.7959 0 0 1.7959 -26.563 -24.267)">
  <path d="m46.657 24.741-28.498 0.01 0.033 19.182c3e-3 1.794 0.8 3.552 3.926 3.575 8.962 0.068 11.893 0 20.9-0.02 3.383 0 4.07-2.671 4.042-3.959zm-22.859 7.403h3.014v2.971l-2.978-0.035zm7.064 0.038h3.011v2.969l-2.976-0.033zm6.582 0.045h3.014v2.971l-2.979-0.032zm-10.072 5.417h3.013v2.971l-2.978-0.033zm7.09 0.065h3.014v2.969l-2.978-0.033z" fill="#ffb380" fill-rule="evenodd"/>
  <path d="m25.583 30.255 0.03871-7.9039c0.03355-7.3091 13.529-7.3014 13.547 0l0.01677 7.9594" fill="none" stroke="#ffb380" stroke-width="3.4926"/>
 </g>
</svg>
