<svg cursor="default" version="1.1" viewBox="0 0 256 256" xmlns="http://www.w3.org/2000/svg">
 <g stroke="#000">
  <g>
   <path d="m215.59 89.866s-3.435-7.8721-8.6135-9.3196c-5.1786-1.4475-8.084-3.0918-8.084-3.0918-0.0381 2.1313 0.61025 5.3901 3.0568 7.2681 3.9808 2.2388 9.5189 5.8066 13.641 5.1433z" fill="#b3b3b3" stroke-linecap="round" stroke-linejoin="round" stroke-width="1.2878px"/>
   <path d="m177.03 137.87c9.5828 2.2401 13.627 13.192 13.627 13.192 1.5556-11.885-7.0315-23.148-7.0315-23.148 8.4627 2.489 13.192 16.677 13.192 16.677 6.8448-19.663 21.787-23.188 21.787-23.188-15.4 10.78-14.168 27.28-14.168 27.28 6.446-10.978 20.05-15.511 20.05-15.511-13.728 5.808-12.482 20.967-12.482 20.967 4.752-5.984 12.514-6.7911 12.514-6.7911-12.403 9.6801-8.9224 21.047-7.762 21.047-10.769 1.7301-22.504 2.0123-35.685 0.12448 0 0 7.3998-11.041-6.6555-20.693 0 0 8.7116-1.9912 11.574 5.1025 0.68448-6.347-8.9605-15.059-8.9605-15.059z" fill="#4a0" stroke-linecap="round" stroke-linejoin="round" stroke-width="1.1"/>
   <path d="m176.87 147.77s-4.46 4.1768-8.4244 12.884c0 0 0.21237 4.6015-13.309 8.3536 0 0-5.5926 2.1946-7.5748 3.4688 0 0-4.8139 1.9114-8.212-0.14159 0 0-0.9911-4.8847 5.3095-8.4952 0 0 4.46 0.21238 8.9199-2.407 0 0 6.3714-1.1327 8.4952-12.672 0 0 0.21239-4.1768 4.3184-7.858 0 0 8.7783 1.9822 10.477 6.8669z" fill="#ccc" stroke-width="1.0442px"/>
   <path d="m123.31 127.88s-3.1834 11.869-14.263 16.7c-4.1679 1.8175-14.891 11.206-6.0924 17.489 1.998 1.4265 3.438 2.9814 5.3411 3.5236 1.5759 0.44896 3.5808-3e-3 5.4818 0.0602 3.126-0.14454 8.2852 5.5501 2.867 7.2392l-9.3177 0.35837c-2.5389 0.0977-3.3023-2.4468-6.4577-4.0719-3.827-1.971-7.6771-3.0276-10.673-4.2423-8.3208-7.7937 6.6552-12.113 3.4404-22.793l-1.7202-8.4576s17.202-9.8911 27.882-6.5941z" fill="#ccc" stroke-width="1.0572px"/>
  </g>
  <g stroke-linecap="round">
   <path d="m187 77.959c1.3194 5.6797 5.5236 12.701 10.944 14.343-14.178 5.7328-17.753 19.267-55.458 5.5387-25.274-9.3181-37.566-4.8283-55.925 1.2128-67.24 2.1181-76.732 48.043-76.814 50.855 47.882 5.5322 72.479-32.594 71.219-30.553-2.7334 12.319-9.5216 22.162-20.021 25.008-4.5274 2.0844-5.8995 11.986-7.0855 15.14-2.9831 8.6508-6.86 10.925-6.86 10.925-7.971 7.1262 0.55859 9.7324 0.55859 9.7324 7.1727 0.43036 9.1791-5.8491 10.777-10.925 4.8244-15.329 7.8338-14.491 8.1168-14.547 29.583 0.84373 35.953-13.373 46.277-19.748 10.324-6.3744 25.07-4.2815 33.864 3.5551 16.073 14.323 47.677 15.824 62.502-13.494 5.6295-11.132 15.04-8.9549 24.046-7.3317 13.155 1.9521 13.581-7.2688 12.162-8.3408-1.3924-1.0514-3.9808-1.4095-7.5373-2.8134-5.6678-2.2373-6.0706-4.7453-7.9035-7.3477-4.113-6.5987-10.889-9.6157-16.442-10.121-1.3742-1.8291-6.7096-7.731-17.967-8.5078-3.7393-0.25802-6.3954-2.1057-8.4519-2.5803z" fill="#f9f9f9" stroke-linejoin="round" stroke-width="1.1px"/>
   <path d="m80.537 121.28s1.3983-6.861 5.6492-12.976" fill="#f9f9f9" stroke-width="1.1px"/>
   <path d="m111.93 150.55c-11.372 2.6584-16.172 15.655-16.172 15.655-1.8461-14.104 8.3444-27.47 8.3444-27.47-10.043 2.9538-15.655 19.79-15.655 19.79-8.1228-23.335-25.855-27.518-25.855-27.518 18.275 12.793 16.813 32.374 16.813 32.374-7.6496-13.028-23.793-18.407-23.793-18.407 16.291 6.8924 14.812 24.882 14.812 24.882-5.6393-7.1013-14.85-8.0591-14.85-8.0591 14.719 11.487 10.588 24.977 9.2112 24.977 12.78 2.0531 26.705 2.388 42.347 0.14772 0 0-8.7813-13.103 7.8981-24.556 0 0-10.338-2.363-13.735 6.0552-0.81228-7.532 10.634-17.87 10.634-17.87z" fill="#4a0" stroke-linejoin="round" stroke-width="1.1"/>
   <path d="m183.26 132.22c1.4294 18.788 9.6917 18.666 25.795 34.489 0 0 13.284 13.118-2.1751 9.3238 0 0-2.0846-0.45066-6.1646-6.1435-3.2394-3.7321-7.5681-6.1973-11.162-8.3678-7.6374-4.5889-15.237-4.4055-24.043-13.671-6.152-6.4731-4.6315-7.1681-11.05-12.836" fill="#f9f9f9" stroke-linejoin="round" stroke-width="1.0492px"/>
   <path d="m223.77 102.15c-5.1076-5.1076-7.7848-1.2566-12.304-4.5768" fill="none" stroke-width="1.1px"/>
  </g>
 </g>
</svg>
