<svg xmlns="http://www.w3.org/2000/svg" viewBox="0 0 64 64">
    <g stroke="#000">
        <path fill="#f55" fill-rule="evenodd" d="M36.593 61.879c1.968.352 18.236-20.436 18.826-23.246.432-2.05 1.469-20.533-.452-20.476L35.532 42.522c-2.317 6.452-.898 12.904 1.06 19.357z"/>
        <path fill="#ff8080" fill-rule="evenodd" d="M36.593 61.879c-2.81.72-28.175-14.675-28.992-15.91-.659-.997-1.591-18.101-1.038-18.584l29.455 15.137z"/>
        <path fill="#faa" fill-rule="evenodd" stroke-linejoin="round" stroke-width="1.016" d="M36.134 44.634c-1.782.08-29.213-15.026-29.669-16.836-.58-2.304 18.295-23.593 20.923-23.804 2.658-.214 27.414 12.553 28 14.578.622 2.152-17.5 25.982-19.254 26.062z"/>
        <ellipse cx="17.125" cy="25.625" fill="#333" stroke-linecap="round" stroke-linejoin="round" paint-order="stroke fill markers" rx="4.195" ry="3.662"/>
        <ellipse cx="29.094" cy="11.031" fill="#333" stroke-linecap="round" stroke-linejoin="round" paint-order="stroke fill markers" rx="4.007" ry="3.349"/>
        <ellipse cx="46.5" cy="20.062" fill="#333" stroke-linecap="round" stroke-linejoin="round" paint-order="stroke fill markers" rx="4.206" ry="3.486"/>
        <ellipse cx="35.188" cy="34.875" fill="#333" stroke-linecap="round" stroke-linejoin="round" paint-order="stroke fill markers" rx="4.195" ry="3.662"/>
        <ellipse cx="55.111" cy="15.194" fill="#333" stroke-linecap="round" stroke-linejoin="round" stroke-width="1.107" paint-order="stroke fill markers" rx="2.854" ry="2.448" transform="matrix(.506 .86253 -.99624 -.08665 0 0)"/>
        <ellipse cx="52.97" cy="-4.372" fill="#333" stroke-linecap="round" stroke-linejoin="round" stroke-width="1.105" paint-order="stroke fill markers" rx="2.954" ry="2.503" transform="matrix(.49977 .86616 -.99611 -.08808 0 0)"/>
        <ellipse cx="75.807" cy="77.076" fill="#333" stroke-linecap="round" stroke-linejoin="round" stroke-width="1.144" paint-order="stroke fill markers" rx="3.33" ry="1.908" transform="matrix(-.29493 .95552 .92012 -.39162 0 0)"/>
    </g>
</svg>
