<svg xmlns="http://www.w3.org/2000/svg" viewBox="0 0 64 64">
    <g fill-rule="evenodd" stroke="#000" stroke-linejoin="round">
        <path fill="#ff2a2a" stroke-linecap="round" stroke-width=".913" d="M7.893 55.284c-.005 1.368.842 2.686 2.168 2.683l44.03-.092c1.61-.003 2.893-1.11 2.89-2.524l-.014-10.089c-.003-1.957-7.848-2.236-7.83-.298.007.894.067 7.108-.254 7.415-.4.381-32.577.429-32.864.08-.25-.303-.34-5.796-.203-7.511.107-1.362-7.88-1.55-7.886-.04z"/>
        <path fill="#ff8080" stroke-width=".976" d="M32.383 8.63L18.58 23.995l8.879.042-.352 22.56 10.066.043-.132-22.645h8.835z"/>
    </g>
</svg>
