<svg xmlns="http://www.w3.org/2000/svg" viewBox="0 0 64 64">
    <g stroke="#000">
        <path fill="#f55" fill-rule="evenodd" stroke-width=".75" d="M6.355 14.556c5.568-2.009 11.42-4.968 15.44-3.872 1.006.274 1.191 1.94 1.295 2.553l6.82 40.24c.266 1.577 2.244 1.256 2.005-.118 0 0-4.045-26.211-6.708-40.119-.274-1.429-.635-3.64-1.894-4.317-3.591-1.929-12.727 1.73-17.905 3.798-.913.364-.236 2.262.947 1.835z"/>
        <path fill="none" stroke-width=".5" d="M23.09 12.62l1.966-.399M22.267 10.93l1.636-1.06M21.674 10.48l.95-1.636M19.958 10.313l-.232-1.834M20.952 10.367l.176-1.767M22.704 11.764l1.812-.718"/>
    </g>
    <path fill="#faa" fill-opacity=".784" fill-rule="evenodd" d="M27.406 59.573l22.138-.107 4.21-36.716c-11.16 1.201-22.075-.822-31.615.355z"/>
    <path fill="none" stroke="#000" stroke-linecap="round" stroke-linejoin="round" stroke-width="1.21" d="M27.406 59.573l22.138-.107 5.185-44.277-33.847-.107z"/>
</svg>
