<svg xmlns="http://www.w3.org/2000/svg" viewBox="0 0 64 64">
    <g stroke="#000">
        <path fill="#ff8080" fill-rule="evenodd" stroke-width="1.195" d="M11.265 34.403C7.93 48.485 12.938 57.839 35.067 57.186c20.385-.602 21.734-9.725 20.044-25.61z"/>
        <path fill="none" stroke-width=".598" d="M12.503 33.642c-2.78 13.262 1.737 22.196 21.974 22.071 16.816-.104 21.836-7.919 18.842-25.122"/>
        <path fill="#faa" fill-rule="evenodd" stroke-width="1.206" d="M16.998 3.478c-.096 3.603-.728 6.67-2.277 10.46-3.057 7.485-5.48 11.59-5.651 17.195-.357 11.674 11.991 15.309 24.79 14.708 9.544-.449 22.69-4.687 22.405-14.603-.234-8.175-2.321-9.644-5.11-15.723-1.186-2.586-2.269-8.811-2.378-12.866-.032-1.196-8.649-1.74-8.611-.286.103 4.066-1.14 9.753-2.34 14.412-3.529.6-7.295 1.012-11.069-.085-.972-3.063-1.348-6.387-1.096-13.569.064-1.828-8.612-1.575-8.663.357z"/>
        <path fill="none" stroke-width=".603" d="M18.36 2.754c-1.126 14.783-3.246 10.72-7.164 24.792-3.024 10.862 7.13 17.132 22.908 16.079 8.436-.564 19.776-3.22 20.086-12.97.342-10.787-7.34-11.423-6.838-28.672"/>
        <path fill="none" stroke-width=".603" d="M42.13 1.62c-.629 3.339-.963 14.87-2.668 16.666-.777.818-13.364.94-14.02-.232-1.379-2.464-2.434-12.72-1-15.724"/>
        <path fill="#faa" fill-rule="evenodd" stroke-width="1.206" d="M31.24 37.42c-.015 2.358-.326 10.927.096 19.703.116 2.43 3.387 5.317 3.387 5.317s2.264-3.04 2.27-5.086c.023-8.935-.057-17.473-.102-19.557-.03-1.422-5.644-1.55-5.652-.378z"/>
        <ellipse cx="46.921" cy="36.264" fill="#ffd5d5" stroke-linecap="round" stroke-linejoin="round" stroke-width="1.372" rx="4.603" ry="4.519" transform="matrix(.95664 .29128 -.29951 .9541 0 0)"/>
        <path fill="none" stroke-width=".529" d="M14.767 14.123c15.796 5.441 24.89 2.93 36.113.181"/>
    </g>
</svg>
