<svg xmlns="http://www.w3.org/2000/svg" viewBox="0 0 64 64">
    <g fill-rule="evenodd" stroke="#000">
        <g stroke-width="1.098">
            <path fill="#333" stroke-width=".8893800000000002" d="M3.592 14.841C3.574 1.501 18.537.702 21.904 8.61 24.657.55 40.257.35 40.214 14.999c-.031 10.518-15.141 15.489-18.16 24.036-3.437-8.69-18.447-13.267-18.462-24.194z"/>
            <path fill="#ff7adb" stroke-width=".8893800000000002" d="M1.268 13.146C1.25-.194 16.213-.992 19.581 6.914c2.753-8.058 18.353-8.258 18.31 6.39-.032 10.518-15.142 15.49-18.16 24.036-3.438-8.69-18.448-13.267-18.463-24.194z"/>
        </g>
        <path fill="#333" d="M28.258 38.978c-.012-8.752 9.805-9.276 12.015-4.09 1.806-5.286 12.041-5.417 12.013 4.193-.02 6.901-9.935 10.163-11.915 15.77-2.255-5.7-12.103-8.704-12.113-15.873z"/>
        <path fill="#ff7adb" d="M26.733 37.866c-.011-8.752 9.806-9.276 12.015-4.09 1.807-5.286 12.042-5.417 12.013 4.193-.02 6.902-9.934 10.163-11.915 15.77-2.255-5.7-12.103-8.704-12.113-15.873z"/>
        <path fill="#333" d="M12.417 52.132c-.008-5.743 6.433-6.086 7.883-2.683 1.185-3.469 7.9-3.555 7.881 2.75-.013 4.529-6.517 6.668-7.817 10.348-1.48-3.741-7.94-5.712-7.947-10.415z"/>
        <path fill="#ff7adb" d="M10.729 50.902c-.008-5.742 6.433-6.086 7.883-2.682 1.185-3.47 7.9-3.555 7.882 2.75-.014 4.528-6.518 6.668-7.818 10.347-1.48-3.74-7.94-5.711-7.947-10.415z"/>
    </g>
</svg>
