<svg xmlns="http://www.w3.org/2000/svg" viewBox="0 0 64 64">
    <g fill-rule="evenodd" stroke="#000" stroke-width="1.421">
        <path fill="#333" d="M27.218 61.657S12.502 53.253 6.817 47.143c-.942-1.012-1.87-2.19-2.155-3.542-.497-2.354-.71-5.402.936-7.157 1.593-1.698 4.598-1.92 6.854-1.345 5.844 1.492 13.913 11.568 13.913 11.568S41.788 13.5 48.684 8.08c2.708-2.13 7.622-2.027 10.336.096 1.991 1.558 2.04 4.82 1.893 7.344-.152 2.588-1.52 5.004-2.81 7.253-8.23 14.362-30.885 38.885-30.885 38.885z"/>
        <path fill="#ff8080" d="M26.994 58.382S12.278 49.978 6.592 43.868c-.941-1.011-1.868-2.19-2.154-3.542-.497-2.354-.71-5.402.936-7.156 1.593-1.698 4.598-1.921 6.853-1.345 5.844 1.492 13.914 11.568 13.914 11.568S41.564 10.225 48.459 4.805c2.71-2.13 7.623-2.028 10.337.095 1.991 1.558 2.04 4.821 1.893 7.345-.152 2.588-1.52 5.003-2.81 7.252-8.23 14.362-30.885 38.885-30.885 38.885z"/>
    </g>
</svg>
