<svg xmlns="http://www.w3.org/2000/svg" viewBox="0 0 64 64">
    <g fill-rule="evenodd" stroke="#000" stroke-width=".2">
        <g fill="#333">
            <path d="M12.88 1009.92c2.328-1.754 4.003-3.538 5.766-5.318.35-.8.072-1.643.079-2.467.175-2.393.952-3.792 1.766-4.848.462-.34 2.859-.228 4.288-.342 1.676-.044 1.679 1.86 2.538 3.565.038.417-1.042.764-1.324.727-1.758-1.098-2.071-1.575-2.444-2.567.232 1.348-.985.926-1.907.699.924.322 1.17.38 1.538 1.1.32.625.928 1.238 1.122 1.736.632 1.617-.196 2.899-.973 3.909.48-.663 1.06-.903 1.434-2.025 1.302.139.952 1.464 1.309 2.281 1.43.426 1.84.362 2.759.542-1.728.664-1.593 1.062-2.318 1.583-1.12.524-2.03.34-3.042.499-.235-1.433-.69-1.27-1.057-1.74-.148-.386.043-.557.08-.827-.69.777-1.378-.09-2.066-.3.55.383 1.457.898 1.56 1.113.158.377-.998 1.131-1.497 1.697.583-.48 1.019-.693 1.75-1.44.62.088.916 1.156 1.025 1.64-.482.447-.785.937-1.561 1.312l-3.075 3.992c-.3-.251-5.523-4.337-5.75-4.521z" transform="matrix(2.78408 -.62384 .62384 2.78408 -662.741 -2750.003)"/>
            <path d="M24.964 996.715c.786-.586 1.673-.62 2.609-1.018 1.398-.192 1.802 1.471 2.196 1.915-.385.661-1.447.717-2.854 1.18-.349-1.243-.91-2.06-1.95-2.077zM27.105 999.286c.404-.175 1.736-.722 2.62-.887.353.05.849.813 1.036 2.198-.337.613-2.79.935-5.752 1.835-.2-.02-1.097-1.333-.937-1.966.536-.206.898.756 1.94.988.353.052 1.553-.279 1.583-.867-.159-.434-.226-.867-.49-1.3zM25.265 1003.017c-.044-.472 3.345-1.183 4.983-1.714.715-.067 1.16 2.184.97 2.309-1.477.528-2.856.734-4.247.978-1.191.138-1.74-.938-1.706-1.573zM26.269 1004.872c-.18.076-.087.549.089 1.22.91.202 1.174.367 2.731.605a7.762 7.762 0 0 0 2.029-.675c.248.065.124-2.027-.301-2.007-1.734.607-2.665.779-4.548.857z" transform="matrix(2.78408 -.62384 .62384 2.78408 -662.741 -2750.003)"/>
        </g>
        <g fill="#f06">
            <path d="M2.333 1004.341c2.328-1.754 4.003-3.537 5.766-5.317.35-.8.072-1.643.079-2.467.175-2.394.952-3.792 1.765-4.848.463-.34 2.86-.228 4.289-.343 1.676-.044 1.679 1.86 2.538 3.565.038.418-1.042.765-1.324.728-1.759-1.099-2.071-1.576-2.444-2.567.232 1.348-.985.926-1.908.699.924.321 1.172.38 1.539 1.1.32.625.927 1.238 1.122 1.736.632 1.617-.196 2.898-.974 3.908.481-.662 1.06-.903 1.435-2.025 1.302.14.952 1.465 1.309 2.282 1.43.425 1.84.361 2.759.542-1.729.664-1.593 1.062-2.318 1.583-1.12.523-2.03.34-3.043.499-.234-1.433-.689-1.27-1.056-1.74-.148-.386.042-.558.079-.827-.689.777-1.377-.091-2.066-.3.551.383 1.458.897 1.561 1.113.158.376-.998 1.13-1.498 1.697.584-.48 1.02-.693 1.75-1.44.62.088.917 1.155 1.025 1.64-.48.446-.785.937-1.56 1.311l-3.075 3.993c-.3-.252-5.523-4.337-5.75-4.522z" transform="matrix(2.78408 -.62384 .62384 2.78408 -632.08 -2742.918)"/>
            <path d="M14.417 991.137c.786-.587 1.673-.62 2.609-1.019 1.398-.19 1.801 1.472 2.196 1.916-.386.661-1.447.717-2.854 1.18-.349-1.243-.91-2.06-1.951-2.077zM16.557 993.708c.405-.176 1.737-.722 2.62-.887.353.05.85.813 1.037 2.198-.338.613-2.79.934-5.753 1.835-.2-.021-1.096-1.333-.936-1.966.535-.206.897.756 1.94.988.353.051 1.553-.279 1.583-.867-.16-.434-.226-.868-.49-1.301zM14.718 997.439c-.044-.472 3.344-1.183 4.983-1.714.715-.067 1.16 2.184.97 2.308-1.477.529-2.856.735-4.247.979-1.191.137-1.74-.938-1.706-1.573zM15.721 999.294c-.179.076-.086.548.09 1.22.91.202 1.174.367 2.73.605a7.762 7.762 0 0 0 2.03-.676c.248.065.123-2.026-.301-2.006-1.734.606-2.666.779-4.549.857z" transform="matrix(2.78408 -.62384 .62384 2.78408 -632.08 -2742.918)"/>
        </g>
    </g>
</svg>
