<svg xmlns="http://www.w3.org/2000/svg" viewBox="0 0 64 64">
    <path fill="#333" stroke="#000" stroke-linejoin="round" stroke-width=".81" d="M9.128 17.317a23.247 23.294 84.26 0 0-6.469 18.52A23.247 23.294 84.26 0 0 28.162 56.64a23.247 23.294 84.26 0 0 20.853-25.463 23.247 23.294 84.26 0 0-25.503-20.8 23.247 23.294 84.26 0 0-14.384 6.94zm3.557 2.679a18.84 18.878 84.26 0 1 11.268-5.235A18.84 18.878 84.26 0 1 44.618 31.62a18.84 18.878 84.26 0 1-16.896 20.636 18.84 18.878 84.26 0 1-20.67-16.86 18.84 18.878 84.26 0 1 5.633-15.4z"/>
    <path fill="#ff7adb" fill-rule="evenodd" stroke="#000" stroke-width=".89" d="M6.981 27.495c-.018-13.34 14.945-14.139 18.313-6.232 2.753-8.058 18.353-8.258 18.31 6.389-.032 10.519-15.142 15.49-18.16 24.037-3.438-8.69-18.448-13.267-18.463-24.194z"/>
    <path fill="#fae" fill-rule="evenodd" stroke="#000" stroke-width=".995" d="M8.037 18.272l29.191 30.219 3.683-3.606-29.339-30.241z"/>
    <g fill="#f06">
        <path stroke="#000" stroke-linejoin="round" stroke-width=".8102860799999999" d="M8.067 15.752a23.247 23.294 84.26 0 0-6.469 18.52 23.247 23.294 84.26 0 0 25.503 20.803 23.247 23.294 84.26 0 0 20.853-25.463 23.247 23.294 84.26 0 0-25.503-20.8 23.247 23.294 84.26 0 0-14.384 6.94zm3.557 2.679a18.84 18.878 84.26 0 1 11.268-5.235 18.84 18.878 84.26 0 1 20.665 16.858A18.84 18.878 84.26 0 1 26.66 50.69 18.84 18.878 84.26 0 1 5.99 33.83a18.84 18.878 84.26 0 1 5.633-15.4z"/>
        <path fill-rule="evenodd" d="M8.2 18.076L37.44 48.32l3.301-3.233-29.38-30.275z"/>
    </g>
</svg>
