<svg xmlns="http://www.w3.org/2000/svg" viewBox="0 0 64 64">
    <g fill-rule="evenodd" stroke="#000">
        <path fill="#f55" d="M3.374 55.653l57.073-.015.058-24.005c.013 2.741-2.192 3.269-4.78 3.3-5.736.066-12.18.036-18.109.018l.056 4.252-8.983.015.001-4.317c-5.092-.08-13.6-.075-18.729-.152-3.894-.058-6.116-1.59-6.32-3.56z"/>
        <path fill="#f55" d="M3.49 27.44l.025-8.94c.005-1.762 56.918-1.65 56.923-.063l.025 8.944c.01 3.517-1.649 5.035-6.926 5.07-4.305.028-10 .041-15.61.039l-.022-4.092-9.392-.078.087 4.193c-5.5-.021-11.31-.102-15.753-.155-5.09-.06-9.37-.974-9.358-4.917z"/>
        <path fill="#ff8080" d="M30.457 30.093l.089 7.292h5.303l.044-7.292zM15.813 15.875l6.625-.313s.732-2.362 2-2.625c4.623-.958 11.126-.706 15.75-.25 1.439.143 2.5 2.875 2.5 2.875l6.437.25s-2.1-6.37-5.062-7c-6.92-1.471-16.728-1.473-23.688.25-2.806.695-4.562 6.813-4.562 6.813z"/>
    </g>
</svg>
