<svg xmlns="http://www.w3.org/2000/svg" viewBox="0 0 64 64">
    <g stroke="#000">
        <ellipse cx="31.378" cy="37.218" fill="#f55" stroke-linecap="round" stroke-linejoin="round" rx="23.776" ry="23.6"/>
        <path fill="#ff8080" fill-rule="evenodd" d="M26.782 12.116c3.06-.417 6.385-.478 9.104-.088l-.045-3.58c2.018-.115 2.24-3.834-.044-3.845l-9.015-.044c-2.697-.013-2.286 3.58 0 3.845zM42.68 14.042c2.147 1.22 4.29 2.798 5.83 4.366l1.71-2.297c1.339.907 3.286-1.35 1.84-2.466l-5.71-4.407c-1.707-1.318-3.192 1.165-1.867 2.444zM13.821 18.42c1.825-1.665 3.986-3.217 5.953-4.197l-1.656-2.336c1.276-.993-.269-3.542-1.777-2.511l-5.955 4.07c-1.781 1.216.122 3.395 1.748 2.53z"/>
        <ellipse cx="31.378" cy="37.218" fill="#faa" stroke-linecap="round" stroke-linejoin="round" rx="21.399" ry="21.24"/>
        <path fill="#f55" fill-rule="evenodd" stroke-width=".5" d="M27.396 39.372l2.2 2.014L44.77 22.82z"/>
        <ellipse cx="31.552" cy="37.051" fill="#ff2a2a" stroke-linecap="round" stroke-linejoin="round" stroke-width=".5" rx="2.128" ry="2.104"/>
        <path fill="none" d="M31.438 17.187v3.75M31.456 53.5v3.75M51.409 36.803l-3.75.01M15.097 36.917l-3.75.01M49.095 27.633l-3.285 1.81M17.299 45.171l-3.285 1.81M40.148 19.12l-1.676 3.354M23.93 51.61l-1.676 3.354M22.101 19.525l1.818 3.28M39.72 51.277l1.819 3.28M13.61 28.494l3.36 1.668M46.142 44.629l3.358 1.668"/>
    </g>
</svg>
