<?xml version="1.0" encoding="UTF-8"?>
<svg cursor="default" version="1.1" viewBox="0 0 256 256" xml:space="preserve" xmlns="http://www.w3.org/2000/svg" xmlns:xlink="http://www.w3.org/1999/xlink"><defs><linearGradient id="linearGradient12382" x1="339.21" x2="340.18" y1="240.95" y2="239.54" gradientTransform="translate(-241.23 -17.262)" gradientUnits="userSpaceOnUse"><stop stop-color="#ffb380" offset="0"/><stop stop-color="#fca" offset="1"/></linearGradient></defs><g transform="translate(-3.9598 -2.7964)"><g stroke="#000" stroke-linecap="square"><g stroke-width=".3"><path d="m187.39 135.29c-13.767-5.3623-17.912-24.158-14.707-45.99 3.376-22.997 14.72-44.714 24.927-56.086l-4.7361 0.74781c-18.184 16.488-22.766 38.656-25.55 54.964-5.6213 32.929 11.037 51.17 20.689 51.537z" fill="#f55"/><path d="m209.4 29.492c9.7778 4.2763 10.36 31.079 10.487 42.479-6.751-12.989-4.8737-34.39-20.446-38.777 1.9835-1.7148 2.4286-3.9834 9.9587-3.7015z" fill="#ff2a2a"/><path d="m98.599 199.49c-0.76352 6.1474 5.59 6.3446 11.809 6.6538-3.6319-4.198-7.2604-8.4177-11.809-6.6538z" fill="#ff2a2a"/><path d="m115.74 208.7-2.2032 4.5828c15.655 6.1198 48.157 15.278 67.82 8.322-17.999 5.2424-51.015-4.7217-65.616-12.905z" fill="#ff8080"/><path d="m143.22 225.49c-8.6154-4.2762-13.902-7.2167-14.938-5.9047-0.46152 3.6468 4.1912 9.9883 14.938 5.9047z" fill="#ff2a2a"/></g><path d="m92.845 187.09a12.033 16.422 9.8796 0 0-13.123 14.42 12.033 16.422 9.8796 0 0 9.1934 18.09 12.033 16.422 9.8796 0 0 14.574-14.309 12.033 16.422 9.8796 0 0-9.1934-18.09 12.033 16.422 9.8796 0 0-1.4512-0.11133zm-0.41034 2.4277a10.245 13.983 9.8796 0 1 1.4629 0.0898 10.245 13.983 9.8796 0 1 7.8262 15.404 10.245 13.983 9.8796 0 1-12.408 12.182 10.245 13.983 9.8796 0 1-7.8281-15.404 10.245 13.983 9.8796 0 1 10.947-12.271z" fill="#ffb380" stroke-width=".25983"/><g stroke-width=".3"><path d="m116.18 208.92-7.7334-4.0099c-3.893-1.3364-8.9731-2.0043-9.4079-4.6929-0.15296-0.94587 1.5393-0.51683 2.7761-0.55082l-0.1322-0.96943c-2.2126-0.32285-3.4981 0.0199-3.7015 0.66098-3.4331 13.581 12.091 6.4198 18.199 9.5621z" fill="#faa"/><path d="m117.9 227.83-6.2941 3.739 0.12464 3.2405 7.2288-3.0536z" fill="#f95"/><path d="m116.1 208.95c1.4137 0.24015-1.4205 5.3842-3.1159 4.6738l-5.5864-2.7207c-6.5782-1.83-9.9065-2.4602-11.224-6.0015l1.8028-5.534c-0.41812 1.4078 1.1488 5.3281 10.857 6.1575 1.3279 1.2632 4.5409 2.317 7.2666 3.4249z" fill="#ff8080"/></g></g><path d="m97.63 201.08c0.79546 3.1255 5.9468 4.2508 11.317 5.4376 2.0885 0.97493 4.5295 2.1079 6.618 2.8907-0.26197 1.5046-0.83319 2.8687-2.3795 3.7896-2.1173-0.99534-4.2346-2.0598-6.352-3.1542-6.9222-1.3755-9.3025-3.3759-10.393-5.4385" fill="none" stroke="#ffe680" stroke-dasharray="0.2, 0.4" stroke-linecap="square" stroke-width=".2"/><g stroke="#000" stroke-linecap="square"><path d="m103.72 199.29 0.0935 1.0906c2.3052 0.9876 2.562 2.8628 5.6139 4.8973 4.4875 2.7887 12.294 6.7989 21.57 10.11-8.8737-3.5112-15.544-6.616-21.289-10.578-1.8658-1.971-3.2783-4.0863-5.9878-5.5204z" fill="#faa" stroke-width=".3"/><path d="m121.39 197.11a16.518 17.078 0 0 0-16.518 17.078 16.518 17.078 0 0 0 16.518 17.078 16.518 17.078 0 0 0 16.518-17.078 16.518 17.078 0 0 0-16.518-17.078zm0 3.0352a14.064 14.542 0 0 1 14.064 14.541 14.064 14.542 0 0 1-14.064 14.541 14.064 14.542 0 0 1-14.064-14.541 14.064 14.542 0 0 1 14.064-14.541z" fill="#ffb380" stroke-width=".29311"/><g stroke-width=".3"><path d="m182.17 228.84c32.017-18.282 28.174-85.951 31.639-114.48l3.8777-0.52878c-0.35431 29.735 0.12028 59.293-10.928 91.303-3.2294 7.8681-12.55 20.024-24.588 23.707z" fill="#f55"/><path d="m134.28 220.43-0.35879 0.71444c-3.7382-1.5561-5.1364-1.5462-5.3008-1.1689 0.15972 1.5212 3.4644 2.9003 6.9833 3.6213 9.1425 1.8732 14.592 4.4996 21.515 5.433 25.252 3.4049 37.102-3.9978 47.651-19.866-9.8212 15.906-20.684 22.447-41.485 21.156-2.6225 0.27375-5.245 0.33849-7.8676-0.43622l-29.655-7.6461 1.3628-3.0101c1.054-1.2874 5.3365 0.42493 7.1552 1.2023z" fill="#faa"/><path d="m127 219.54-2.4469 5.0933c2.1394 6.1593 12.338 5.6591 17.675 6.543 23.357 3.869 43.136-0.91007 52.554-9.5462-3.5041 3.0839-7.8011 6.006-13.217 7.3802-13.567 3.4429-33.055-0.55784-39.425-3.2099-4.5468-1.893-14.187-1.8585-15.139-6.2604z" fill="#ff8080"/><path d="m90.227 216.02c1.507-0.27105 2.4615 4.3406 0.11014 5.2658 0.57859 0.1868 1.4751-0.26224 2.2693-0.50674 6.4654 4.1123 12.109 8.1441 17.89 11.898l2.3795-1.6745c-5.7007-3.9349-11.365-7.9066-16.833-12.074 1.0068-0.81864 0.85331-3.2613-1.2779-3.9218-1.6518-9e-3 -3.1201 0.43994-4.5387 1.0135z" fill="url(#linearGradient12382)"/><path d="m90.315 217.3c0.82197 0.0247 0.85438 2.2149 0.17623 2.5337l-1.1677-0.15422c0.0247 0.70147 0.37599 1.5991 1.1237 1.6524 1.4824-0.32004 2.048-4.4103 0.0441-5.398-0.71196 0.19452-1.0017 0.67139-1.0796 1.2118z" fill="#f95"/><path d="m117.09 227.08-0.12464 5.7332c2.5342 0.45428 5.0685 0.24457 7.6027-0.12463l-0.0623-6.0448c-3.181-0.66493-5.3844-0.21271-7.4158 0.43622z" fill="#fca"/><ellipse transform="rotate(-25.924)" cx="-1.2831" cy="256.65" rx="3.1159" ry="1.6203" fill="#f95"/><ellipse cx="112.14" cy="233" rx="1.963" ry="2.4304" fill="#ffb380"/><path d="m136.36 221.48-0.37456 0.77114c3.1226 2.1101 6.1844 2.6926 9.2537 3.7896 0.28016 0.10013 1.3208-0.54265 0.15423-0.79317-3.3166-0.7122-6.4206-1.941-9.0333-3.7676z" fill="#faa"/></g><ellipse cx="141.29" cy="228.35" rx="1.6819" ry="1.5843" fill="#ffb380" stroke-width=".2553"/><g stroke-width=".3"><circle cx="112.33" cy="210.71" r="1.5423" fill="#ffb380"/><path d="m172.11 222.88c12.701-0.0811 24.636-8.1976 35.437-27.085 15.142-25.59 6.7214-53.355 8.2842-80.198l4.0798-33.44c-0.82634 30.724 3.3489 65.736-0.91246 91.43-1.5597 9.4045-5.3902 18.255-11.011 26.615-10.692 17.424-23.128 23.388-35.878 22.678z" fill="#ff8080"/><path d="m200.94 32.577c11.072-3.0066 15.856 7.2932 17.538 20.887 2.3887 19.306 1.9894 38.197-0.79317 57.725-1.5407 10.813-5.9341 22.591-10.576 27.32 7.5769-12.861 21.173-95.512-6.1691-105.93z" fill="#f55"/><path d="m200.94 32.665c7.2299-2.2119 17.078-0.01037 18.419 38.865 0.62828 18.207-0.93484 35.922-4.5828 52.526-2.5503 11.608-9.0805 18.287-18.067 17.185v-2.5558c9.5935 1.3026 15.158-18.423 15.687-24.412 2.858-32.343 3.5262-70.679-11.457-81.609z" fill="#ff8080"/><path d="m206.32 33.018c2.7439 0.12865 9.6184 8.8627 8.5486 46.973-0.60543 21.569-3.8503 38.889-6.9623 45.211 3.917-31.233 4.7963-62.121-1.5863-92.184z" fill="#f55"/><path d="m202.35 33.811c6.9327 7.1614 7.2458 33.389 7.4534 47.515 0.53149 36.178-8.2444 51.802-13.622 53.482l0.52878 5.0234c13.025-4.6903 16.806-31.439 17.538-64.599 0.34682-15.712-0.98955-48.372-11.898-41.421z" fill="#f55"/><path d="m206.93 33.106c-7.6776-1.796-10.969 12.623-12.074 25.381-4.3937 50.747 3.6721 86.015 9.1655 127.52l-1.4982 4.6709-2.9964-0.0881c-6.6486-47.366-13.386-70.118-11.721-132.64 4.2975-12.033 5.774-29.158 19.124-24.853z" fill="#faa"/><path d="m192.74 176.93 3.5252 0.44065 2.2914-5.9928c-7.1463-36.681-9.0884-68.771-8.9012-96.503 0.1654-24.498 8.1498-41.12 15.279-42.705-3.0058-0.04167-5.9292 0.16412-8.6047 1.1136-5.1111 9.4188-11.546 17.027-12.314 41.239-0.80305 25.292 1.9832 54.143 8.7249 102.41z" fill="#ff8080"/><path d="m154.23 221.59c15.184 2.1419 26.597 1.3108 31.952-1.017 14.122-6.1381 22.103-20.997 25.423-26.987 4.6488-8.3882 6.742-15.922 7.4029-20.182-0.4994 4.48-4.0396 15.204-7.6233 21.592-4.3738 7.7959-13.788 22.09-25.602 26.439-9.3712 3.4497-26.436 0.88912-31.553 0.15488z" fill="#faa"/><path d="m180.08 106.55c-2.4915-25.929 7.9091-76.566 28.371-76.604 6.9863-0.01307 11.599 20.71 11.492 42.162 0.52177-6.9233 0.57771-43.164-11.555-43.283-24.131-0.23716-33.9 55.777-28.309 77.726z" fill="#faa"/><path d="m186.7 128.95 1.0594 9.7669c-7.881-12.82-13.896-26.141-13.526-44.979 0.64051-32.587 12.479-53.591 19.448-61.29 5.7785-3.7336 10.229-4.2456 15.07-3.5252-17.586 0.21568-27.178 35.071-29.143 58.558-1.161 13.88 2.0556 28.854 7.0907 41.47z" fill="#ff8080"/></g></g><path d="m144.58 227.43c-1.3053-0.51513-2.8768-1.2294-4.8274-1.6279-5.3156-1.0859-12.045-1.8286-13.214-5.04" fill="none" stroke="#ffe680" stroke-dasharray="0.2, 0.4" stroke-linecap="square" stroke-width=".2"/><path d="m143.01 230.95c-1.3053-0.51513-2.9391-0.85555-4.8897-1.254-5.3156-1.0859-10.519-0.39534-13.276-5.5074" fill="none" stroke="#ffe680" stroke-dasharray="0.2, 0.4" stroke-linecap="square" stroke-width=".2"/><g fill="#ffe6d5"><path d="m80.092 206.06c-0.24206-2.8808-0.03394-6.9016 2.1792-10.939 0.84524-1.5421 1.8804-2.8826 3.0249-3.9886 1.2817-1.2385 2.6038-2.0912 3.8146-2.647 0.98892-0.45395 1.8545-0.6881 2.5156-0.80694 0.44245-0.0795 1.0249-0.14442 1.6951-0.1303 1.2199 0.0257 2.6338 0.31129 4.0325 1.1123 1.28 0.73299 2.3889 1.8069 3.3043 3.1904 1.21 1.8288 1.8586 3.8564 2.2594 5.3966-0.40046-1.539-1.142-3.5478-2.4354-5.2726-0.97972-1.3064-2.1249-2.2507-3.3744-2.8457-1.3587-0.64696-2.6767-0.80471-3.7826-0.76835-0.61092 0.0201-1.1403 0.0986-1.5454 0.17146-0.60411 0.10859-1.4091 0.30092-2.3481 0.68849-1.1506 0.47487-2.4429 1.2198-3.7311 2.3504-1.1506 1.0098-2.2193 2.2602-3.115 3.7314-2.3435 3.8495-2.7358 7.8748-2.4936 10.758z"/><path d="m105.55 213.79c0.15685-2.0599 0.59603-4.7102 1.8732-7.3418 0.94841-1.9541 2.2654-3.7008 3.9624-5.1289 1.6169-1.3608 3.4543-2.3265 5.3688-2.9221 2.1426-0.66658 4.2198-0.82187 6.024-0.69538 1.4743 0.10336 2.7022 0.38899 3.6094 0.67298 0.6084 0.19046 1.3913 0.48469 2.2569 0.92583 1.5718 0.80101 3.3046 2.0303 4.8043 3.8546 1.3749 1.6724 2.3865 3.6423 2.9908 5.855 0.79944 2.9274 0.73211 5.7035 0.53571 7.7448 0.19631-2.0404 0.16952-4.829-0.74218-7.6837-0.68934-2.1584-1.779-4.0268-3.1848-5.5698-1.5318-1.6813-3.2452-2.7667-4.7599-3.4703-0.83564-0.38817-1.5842-0.64818-2.16-0.82844-0.85882-0.26885-2.0172-0.56316-3.4174-0.70132-1.713-0.16903-3.705-0.0939-5.7902 0.46878-1.8628 0.50267-3.6807 1.3646-5.3069 2.6312-1.7077 1.33-3.068 2.9996-4.0658 4.9098-1.344 2.5732-1.8413 5.2175-1.9983 7.2788z"/><path d="m140.06 227.94c0.0978-0.14003 0.25533-0.29315 0.45547-0.38202 0.14855-0.0659 0.29968-0.0876 0.44614-0.0714 0.13982 0.0155 0.2669 0.0646 0.37795 0.12863 0.12773 0.0737 0.22959 0.16429 0.30829 0.24274 0.0406 0.0404 0.0811 0.0851 0.12171 0.12553 0.0364 0.0363 0.0918 0.0813 0.15299 0.13699 0.083 0.0755 0.17062 0.16537 0.24027 0.2713 0.0649 0.0987 0.1081 0.20277 0.11673 0.30692 5e-3 0.0586-2e-3 0.11427-0.018 0.16531-0.0218 0.0676-0.0594 0.1205-0.0976 0.15363 0.0371-0.0322 0.0887-0.0729 0.13859-0.12989 0.0383-0.0437 0.0753-0.0967 0.10569-0.1627 0.0549-0.11929 0.0798-0.26435 0.0662-0.42749-0.0144-0.17167-0.0694-0.3377-0.14204-0.47565-0.054-0.10251-0.11451-0.18362-0.16645-0.23547-0.0463-0.0462-0.11176-0.0994-0.19427-0.15121-0.1319-0.0828-0.30429-0.16006-0.50157-0.1984-0.17302-0.0336-0.35259-0.0348-0.5277 6e-3 -0.18206 0.0423-0.33974 0.12495-0.47663 0.2345-0.18296 0.14644-0.30888 0.32419-0.40574 0.46283z"/><path d="m111.14 210.25c0.0978-0.14003 0.25533-0.29315 0.45547-0.38202 0.14855-0.066 0.29968-0.0876 0.44614-0.0714 0.13982 0.0155 0.2669 0.0646 0.37795 0.12863 0.12773 0.0737 0.22959 0.16429 0.30829 0.24274 0.0406 0.0404 0.0811 0.0851 0.12171 0.12553 0.0364 0.0363 0.0918 0.0813 0.15299 0.13699 0.083 0.0755 0.17062 0.16537 0.24027 0.2713 0.0649 0.0987 0.1081 0.20277 0.11673 0.30692 5e-3 0.0586-2e-3 0.11427-0.018 0.16531-0.0218 0.0676-0.0594 0.1205-0.0976 0.15363 0.0371-0.0322 0.0887-0.0729 0.13859-0.12989 0.0383-0.0437 0.0753-0.0967 0.10569-0.1627 0.0549-0.11929 0.0798-0.26435 0.0662-0.42749-0.0143-0.17167-0.0694-0.3377-0.14204-0.47565-0.054-0.10251-0.11451-0.18362-0.16645-0.23547-0.0463-0.0462-0.11176-0.0994-0.19427-0.15121-0.1319-0.0828-0.30429-0.16006-0.50157-0.1984-0.17302-0.0336-0.35259-0.0348-0.5277 6e-3 -0.18206 0.0423-0.33974 0.12495-0.47663 0.2345-0.18296 0.14644-0.30888 0.32419-0.40574 0.46283z"/><path d="m111.09 231.86c0.0978-0.14003 0.25533-0.29315 0.45547-0.38202 0.14855-0.0659 0.29968-0.0876 0.44614-0.0714 0.13982 0.0155 0.2669 0.0646 0.37795 0.12863 0.12773 0.0737 0.22959 0.16429 0.30829 0.24274 0.0406 0.0404 0.0811 0.0851 0.12171 0.12553 0.0364 0.0363 0.0918 0.0813 0.15299 0.13699 0.083 0.0755 0.17062 0.16537 0.24027 0.2713 0.0649 0.0987 0.1081 0.20277 0.11673 0.30692 5e-3 0.0586-2e-3 0.11427-0.018 0.16531-0.0218 0.0676-0.0594 0.1205-0.0976 0.15363 0.0371-0.0322 0.0887-0.0729 0.13859-0.12989 0.0383-0.0437 0.0753-0.0967 0.10569-0.1627 0.0549-0.11929 0.0798-0.26435 0.0662-0.42749-0.0143-0.17167-0.0694-0.3377-0.14204-0.47565-0.054-0.10251-0.11451-0.18362-0.16645-0.23547-0.0463-0.0462-0.11176-0.0994-0.19427-0.15121-0.1319-0.0828-0.30429-0.16006-0.50157-0.1984-0.17302-0.0336-0.35259-0.0348-0.5277 6e-3 -0.18206 0.0423-0.33974 0.12495-0.47663 0.2345-0.18296 0.14644-0.30888 0.32419-0.40574 0.46283z"/></g></g></svg>
