<?xml version="1.0" encoding="UTF-8"?>
<svg cursor="default" version="1.1" viewBox="0 0 256 256" xml:space="preserve" xmlns="http://www.w3.org/2000/svg" xmlns:xlink="http://www.w3.org/1999/xlink"><defs><linearGradient id="linearGradient12382" x1="339.21" x2="340.18" y1="240.95" y2="239.54" gradientTransform="translate(-245.19 -20.058)" gradientUnits="userSpaceOnUse"><stop stop-color="#ffb380" offset="0"/><stop stop-color="#fca" offset="1"/></linearGradient></defs><g stroke="#000" stroke-linecap="square"><path d="m88.886 184.3a12.033 16.422 9.8796 0 0-13.123 14.42 12.033 16.422 9.8796 0 0 9.1934 18.09 12.033 16.422 9.8796 0 0 14.574-14.309 12.033 16.422 9.8796 0 0-9.1934-18.09 12.033 16.422 9.8796 0 0-1.4512-0.11133zm-0.41034 2.4277a10.245 13.983 9.8796 0 1 1.4629 0.0898 10.245 13.983 9.8796 0 1 7.8262 15.404 10.245 13.983 9.8796 0 1-12.408 12.182 10.245 13.983 9.8796 0 1-7.8281-15.404 10.245 13.983 9.8796 0 1 10.947-12.271z" fill="#ffb380" stroke-width=".25983"/><path d="m113.94 225.04-6.2941 3.739 0.12464 3.2405 7.2288-3.0536z" fill="#f95" stroke-width=".3"/><path d="m117.43 194.31a16.518 17.078 0 0 0-16.518 17.078 16.518 17.078 0 0 0 16.518 17.078 16.518 17.078 0 0 0 16.518-17.078 16.518 17.078 0 0 0-16.518-17.078zm0 3.0352a14.064 14.542 0 0 1 14.064 14.541 14.064 14.542 0 0 1-14.064 14.541 14.064 14.542 0 0 1-14.064-14.541 14.064 14.542 0 0 1 14.064-14.541z" fill="#ffb380" stroke-width=".29311"/><g stroke-width=".3"><path d="m86.267 213.22c1.507-0.27105 2.4615 4.3406 0.11014 5.2658 0.57859 0.1868 1.4751-0.26224 2.2693-0.50674 6.4654 4.1123 12.109 8.1441 17.89 11.898l2.3795-1.6745c-5.7007-3.9349-11.365-7.9066-16.833-12.074 1.0068-0.81864 0.85331-3.2613-1.2779-3.9218-1.6518-9e-3 -3.1201 0.43994-4.5387 1.0135z" fill="url(#linearGradient12382)"/><path d="m86.355 214.5c0.82197 0.0247 0.85438 2.2149 0.17623 2.5337l-1.1677-0.15422c0.0247 0.70147 0.37599 1.5991 1.1237 1.6524 1.4824-0.32004 2.048-4.4103 0.0441-5.398-0.71196 0.19452-1.0017 0.67139-1.0796 1.2118z" fill="#f95"/><path d="m113.13 224.29-0.12464 5.7332c2.5342 0.45428 5.0685 0.24457 7.6027-0.12463l-0.0623-6.0448c-3.181-0.66493-5.3844-0.21271-7.4158 0.43622z" fill="#fca"/><ellipse transform="rotate(-25.924)" cx="-3.6219" cy="252.4" rx="3.1159" ry="1.6203" fill="#f95"/><ellipse cx="108.18" cy="230.21" rx="1.963" ry="2.4304" fill="#ffb380"/></g></g><g fill="#ffe6d5"><path d="m76.132 203.26c-0.24206-2.8808-0.03394-6.9016 2.1792-10.939 0.84524-1.5421 1.8804-2.8826 3.0249-3.9886 1.2817-1.2385 2.6038-2.0912 3.8146-2.647 0.98892-0.45395 1.8545-0.6881 2.5156-0.80694 0.44245-0.0795 1.0249-0.14442 1.6951-0.1303 1.2199 0.0257 2.6338 0.31129 4.0325 1.1123 1.28 0.73299 2.3889 1.8069 3.3043 3.1904 1.21 1.8288 1.8586 3.8564 2.2594 5.3966-0.40046-1.539-1.142-3.5478-2.4355-5.2726-0.97972-1.3064-2.1249-2.2507-3.3744-2.8457-1.3587-0.64696-2.6767-0.80471-3.7826-0.76835-0.61092 0.0201-1.1403 0.0987-1.5454 0.17146-0.60411 0.10859-1.4091 0.30092-2.3481 0.68849-1.1506 0.47487-2.4429 1.2198-3.7311 2.3504-1.1506 1.0098-2.2193 2.2602-3.115 3.7314-2.3435 3.8495-2.7358 7.8748-2.4936 10.758z"/><path d="m101.59 210.99c0.15685-2.0599 0.59603-4.7102 1.8732-7.3418 0.94841-1.9541 2.2654-3.7008 3.9624-5.1289 1.6169-1.3608 3.4543-2.3265 5.3688-2.9221 2.1426-0.66658 4.2198-0.82187 6.024-0.69538 1.4743 0.10336 2.7022 0.38899 3.6094 0.67298 0.6084 0.19046 1.3913 0.48469 2.2569 0.92583 1.5718 0.80101 3.3046 2.0303 4.8043 3.8546 1.3749 1.6724 2.3865 3.6423 2.9908 5.855 0.79944 2.9274 0.73211 5.7035 0.53571 7.7448 0.19631-2.0404 0.16952-4.829-0.74218-7.6837-0.68934-2.1584-1.779-4.0268-3.1848-5.5698-1.5318-1.6813-3.2452-2.7667-4.7599-3.4703-0.83564-0.38817-1.5842-0.64818-2.16-0.82844-0.85882-0.26885-2.0172-0.56316-3.4174-0.70132-1.713-0.16903-3.705-0.0939-5.7902 0.46878-1.8628 0.50267-3.6807 1.3646-5.3069 2.6312-1.7077 1.33-3.068 2.9996-4.0658 4.9098-1.344 2.5732-1.8413 5.2175-1.9983 7.2788z"/><path d="m107.13 229.07c0.0978-0.14003 0.25533-0.29315 0.45547-0.38202 0.14855-0.0659 0.29968-0.0876 0.44614-0.0714 0.13982 0.0155 0.2669 0.0646 0.37795 0.12863 0.12773 0.0737 0.22959 0.16429 0.30829 0.24274 0.0406 0.0404 0.0812 0.0851 0.12171 0.12553 0.0364 0.0363 0.0918 0.0813 0.15299 0.13699 0.083 0.0755 0.17062 0.16537 0.24027 0.2713 0.0649 0.0987 0.1081 0.20277 0.11673 0.30692 5e-3 0.0586-2e-3 0.11427-0.018 0.16531-0.0218 0.0676-0.0594 0.1205-0.0976 0.15363 0.0371-0.0322 0.0887-0.0729 0.13859-0.12989 0.0383-0.0437 0.0753-0.0967 0.10569-0.1627 0.0549-0.11929 0.0798-0.26435 0.0662-0.42749-0.0143-0.17167-0.0694-0.3377-0.14204-0.47565-0.054-0.10251-0.11451-0.18362-0.16645-0.23547-0.0463-0.0462-0.11176-0.0994-0.19427-0.15121-0.1319-0.0828-0.30429-0.16006-0.50157-0.1984-0.17302-0.0336-0.35259-0.0348-0.5277 6e-3 -0.18206 0.0423-0.33974 0.12495-0.47663 0.2345-0.18296 0.14644-0.30888 0.32419-0.40574 0.46283z"/></g></svg>
