<?xml version="1.0" encoding="UTF-8"?>
<svg cursor="default" version="1.1" viewBox="0 0 256 256" xml:space="preserve" xmlns="http://www.w3.org/2000/svg" xmlns:xlink="http://www.w3.org/1999/xlink"><defs><linearGradient id="linearGradient718" x1="91.295" x2="91.825" y1="240.39" y2="243.04" gradientUnits="userSpaceOnUse"><stop stop-color="#f95" offset="0"/><stop stop-color="#ffb380" offset="1"/></linearGradient><linearGradient id="linearGradient813" x1="89.924" x2="89.114" y1="240.73" y2="238.74" gradientUnits="userSpaceOnUse"><stop stop-color="#f95" offset="0"/><stop stop-color="#ffb380" offset="1"/></linearGradient><linearGradient id="linearGradient954" x1="42.438" x2="92.604" y1="186.39" y2="242.48" gradientUnits="userSpaceOnUse"><stop stop-color="#f55" offset="0"/><stop stop-color="#ff8080" offset=".40751"/><stop stop-color="#ff8080" offset=".55581"/><stop stop-color="#f55" offset="1"/></linearGradient><linearGradient id="linearGradient3620" x1="139.03" x2="34.337" y1="194.62" y2="187.39" gradientUnits="userSpaceOnUse"><stop stop-color="#f55" offset="0"/><stop stop-color="#ff8080" offset=".27194"/><stop stop-color="#ff8080" offset=".66287"/><stop stop-color="#f55" offset="1"/></linearGradient><linearGradient id="linearGradient9628" x1="93.816" x2="94.064" y1="181.94" y2="171.66" gradientUnits="userSpaceOnUse"><stop stop-color="#f55" offset="0"/><stop stop-color="#ff8080" offset="1"/></linearGradient><linearGradient id="linearGradient9630" x1="92.915" x2="93.663" y1="176.92" y2="156.11" gradientUnits="userSpaceOnUse"><stop stop-color="#ff2a2a" offset="0"/><stop stop-color="#f55" offset="1"/></linearGradient><linearGradient id="linearGradient9806" x1="142.24" x2="134.66" y1="133.78" y2="171.15" gradientUnits="userSpaceOnUse"><stop stop-color="#ff2a2a" offset="0"/><stop stop-color="#f55" offset="1"/></linearGradient><linearGradient id="linearGradient9980" x1="144.71" x2="140.66" y1="82.666" y2="132.9" gradientUnits="userSpaceOnUse"><stop stop-color="#f55" offset="0"/><stop stop-color="#ff8080" offset=".10102"/><stop stop-color="#ff8080" offset=".33423"/><stop stop-color="#faa" offset=".43552"/><stop stop-color="#faa" offset=".47446"/><stop stop-color="#ff8080" offset=".55425"/><stop stop-color="#ff8080" offset="1"/></linearGradient><linearGradient id="linearGradient11072" x1="104.32" x2="106.06" y1="71.167" y2="62.941" gradientUnits="userSpaceOnUse"><stop stop-color="#ff8080" offset="0"/><stop stop-color="#faa" offset="1"/></linearGradient><linearGradient id="linearGradient11319" x1="124.51" x2="106" y1="20.378" y2="52.409" gradientUnits="userSpaceOnUse"><stop stop-color="#ff2a2a" offset="0"/><stop stop-color="#f55" offset="1"/></linearGradient><linearGradient id="linearGradient11959" x1="142.27" x2="142.58" y1="59.015" y2="71.977" gradientUnits="userSpaceOnUse"><stop stop-color="#f55" offset="0"/><stop stop-color="#ff8080" offset="1"/></linearGradient><linearGradient id="linearGradient14100" x1="94.431" x2="91.435" y1="88.439" y2="84.605" gradientUnits="userSpaceOnUse"><stop stop-color="#f95" offset="0"/><stop stop-color="#ffb380" offset="1"/></linearGradient></defs><g transform="translate(-3.9598 -2.7964)"><g stroke="#000" stroke-linecap="square" stroke-width=".3"><path d="m95.161 77.203c-0.68305 3.1443-0.47695 6.794-2.5372 9.1631-1.3269 1.5258-1.5823 2.9894-1.4659 4.4881 0.35966 4.6312 0.08355 9.267 0 13.901-0.24432 8.2814-0.48864 16.81-0.73297 24.435l0.33829 5.7971 3.0446 0.187 4.8489-57.223z" fill="#ff2a2a"/><path d="m93.77 100.47c-0.91068 10.811-1.9397 16.267-2.2914 30.934-0.04499 1.8762 0.54111 17.373 0.35252 26.968-0.14624 7.4407-1.5863 25.734-1.5863 25.734 2.1941 1.5107 4.4639 0.6409 6.3454 0.44065-0.76491-8.4605-0.2702-16.921 0.35252-25.381l1.0576-69.799z" fill="url(#linearGradient9630)"/><path d="m91.061 190.46c-0.06156-4.8492 0.40348-17.709 0.55154-22.349 0.13732-1.4585 1.8733-2.9675 2.4024-2.8764 0.67808 0.11673 2.4126 1.6096 2.3961 3.5307l-0.03742 22.022c-0.54325 0.72109-4.4461 0.53686-5.3126-0.32717z" fill="url(#linearGradient9628)"/><path d="m132.55 166.95c-3.9769 7.8522-9.1141 17.36-22.372 17.262-6.9721-5.8205-12.657-21.298-16.639-49.542 0.6528 1.8832-1.4874 38.603 14.894 50.976 7.8935 0.99801 15.787-1.9647 23.681-11.092z" fill="#f55"/><path d="m118.43 175.36c-0.11634-9e-3 -0.35046-0.0473-0.35046-0.0473-0.38878 1.4184-1.6766 5.1579-2.8327 8.6098-0.72835 0.50059-1.5417 2.0552-1.8334 3.0286l1.6202 0.28048z" fill="#f55"/><path d="m102.41 79.582c-2.1584 18.311-4.2283 36.614-4.6709 55.61-0.35817 15.371 4.3976 48.997 17.229 48.604-2.0079 0.36877-3.9937 0.71566-6.0589 0.68301-11.591-8.8411-15.872-33.387-15.401-49.639 0.62888-21.689 3.1139-35.751 4.759-53.848z" fill="#ff8080"/></g><g fill="#f55" stroke="#000" stroke-linecap="square" stroke-width=".3"><path d="m101.95 49.168c-3.6044 8.9195-5.5023 17.961-6.7926 27.046l8.5998 1.8072c1.0164-9.2438 3.9448-18.488 6.7303-27.731z"/><path d="m95.414 89.452c-1.5741-0.44752-2.447-0.21664-2.8191 0.49867-0.86049 2.6388-0.0029 5.2776 0.14096 7.9165 1.9865-2.4019 1.8953-5.5696 2.6781-8.4151z"/><path d="m93.836 95.561-2.8473 0.2805c-0.389 1.0805-0.31351 2.1609-0.02819 3.2414l2.9882-0.46751z"/><path d="m80.763 141.09 18.571-52.596c-5.3993 18.006-11.51 35.586-18.571 52.596z"/></g><path d="m93.808 94.688-0.70478-2.7739c-0.03133-0.87162 0.32362-1.3819 1.2686-1.3402z" fill="#ff2a2a" stroke="#000" stroke-linecap="square" stroke-width=".3"/><g stroke="#000" stroke-linecap="square" stroke-width=".3"><path d="m93.564 90.691c0.25937-0.09572 0.51874-0.04925 0.77811-0.09353 0.11374 0.35636 0.02065 0.71273-0.12937 1.0691l-0.46108 0.12885c-0.53989 0.06039-1.1506 0.0056-1.3216-0.96083l-0.93372-5.2786c-0.35721-2.0194 2.1421-3.0256 2.7476-2.7073-0.14536 1.0407-0.35075 1.3285-0.6051 1.8814-0.03234-0.49192-0.69508 0.47536-0.64839 0.88827z" fill="url(#linearGradient14100)"/><path d="m104.82 50.539c-3.9052 14.645-6.7899 28.891-11.716 43.934-7.6305 23.303-16.411 46.136-25.301 69.546l3.6767 0.74782c9.5705-23.706 18.205-47.381 26.236-71.291 4.9803-14.828 7.5612-28.167 11.342-42.251z" fill="#ff8080"/><path d="m101.7 49.854 8.2882 1.9318c5.3111-9.8598 13.954-26.015 18.384-27.607-1.7772-2.4262-3.491-5.5862-8.5646-5.9718-7.0064 3.9973-14.429 17.521-18.107 31.647z" fill="url(#linearGradient11319)"/></g><g stroke-linecap="square"><path d="m104.06 49.985c2.9779-10.865 10.653-27.955 18.798-31.389l5.9047 3.7896c-7.6407 2.7079-17.033 22.39-19.477 28.995" fill="none" stroke="#ffe680" stroke-dasharray="0.2, 0.4" stroke-width=".2"/><path d="m70.769 69.491c4.2105 2.3881 15.091 7.321 23.31 8.152l1.8067-5.3319c-1.9505-1.1523-3.3936-2.1777-4.8912-3.2168-7.7597-0.70803-25.697-4.1109-20.226 0.39659z" fill="#ff2a2a" stroke="#000" stroke-width=".3"/><path d="m63.829 173.69 4.4279-11.314c0.26683-0.57686 3.9088 0.89445 3.7455 1.4101l-3.393 11.677z" fill="#f55" stroke="#000" stroke-width=".3"/><path d="m68.83 163.04-4.2743 10.62 3.1286 1.4541 3.4371-11.193" fill="none" stroke="#ffe680" stroke-dasharray="0.2, 0.4" stroke-width=".2"/></g><g stroke="#000" stroke-linecap="square" stroke-width=".3"><path d="m115.65 184.21c-0.72303 0.35513-1.3546 1.6518-1.4177 2.3369l1.8695 0.37391c0.0329-0.65433 0.0113-2.0565-0.4518-2.7108z" fill="#ff2a2a"/><path d="m115.72 187.7c-0.51238-1.3981-2.2918-2.5012-4.6738-3.0536-11.175-2.5914-19.894-3.5798-33.34-6.9172-9.8546-2.4461-15.079-5.6153-22.621-8.1013-2.677-0.88231-4.4896-0.91449-5.7955-0.56086-2.1112 0.5717-3.3703 1.1091-3.1782 1.9318 22.7 7.2421 45.008 15.794 69.609 16.701z" fill="#faa"/><path d="m132.7 200.01c-38.323-18.741-79.662-13.189-82.789-15.86-3.2589-2.3169-10.656-9.6022-4.7028-12.735 6.0406-3.9907 18.126 5.4435 39.582 9.6781 18.132 3.5785 32.455 4.4797 50.136 13.875z" fill="url(#linearGradient3620)"/></g><g fill="none" stroke="#ffe680" stroke-linecap="square"><path d="m73.897 182.3-8.0639 0.17626c-3.3144-3.7442-9.646-5.2349-10.355-3.7015-0.13594 1.8005 5.834 4.2547 10.796 0.66097z" stroke-width=".2"/><path d="m43.096 176.26c2.4088-3.0402 3.4628-1.4431 4.715 0.83723-2.6953 1.044-3.9586-0.25084-4.5387-3.7896" stroke-width=".2"/><path d="m51.154 177.35c-0.88494 1.6356-2.6403 3.7857-1.0591 4.8183 0.40926 0.26728 0.72769-0.10673 1.0569-0.4044 0.19207 0.39075 0.44312 0.71341 0.88466 0.73671 1.5237 0.0804 0.16087-3.4338-0.88254-5.1506z" stroke-width=".19432"/><path d="m51.19 177.33c1.1447-1.4859 3.2343-3.3525 1.8432-4.6043-0.36006-0.32401-0.73647-9.5e-4 -1.1109 0.24453-0.12508-0.41412-0.3197-0.76965-0.75199-0.85739-1.4919-0.30277-0.72696 3.3683 0.01971 5.2172z" stroke-width=".19432"/><path d="m51.14 177.32c-1.0446-1.2106-2.4441-3.5942-3.009-1.495-0.14621 0.54331 0.09781 0.97546 0.29536 1.4208-0.23172 0.2507-0.41897 0.58141-0.41377 1.1719 0.01796 2.0376 2.1181 0.2708 3.1274-1.0976z" stroke-width=".17616"/><path d="m51.152 177.37c0.96411 1.5558 2.2041 4.3821 2.9121 2.5409 0.18326-0.47654-0.032-0.98545-0.19948-1.4905 0.24906-0.16069 0.45901-0.41535 0.49383-0.99239 0.12014-1.9913-2.1029-1.0272-3.2065-0.0581z" stroke-width=".17616"/></g><path d="m57.423 173.79c3.4261 1.7215 7.447 3.7496 12.794 5.7012 3.7383 1.3644 6.9567 2.2424 8.7965 2.6484 0.78056 0.17223 1.7687 0.36719 2.9324 0.56854 3.7692 0.65216 7.5018 1.0676 12.384 1.6034 4.8811 0.5357 8.3882 0.95504 11.299 1.458-2.4468-0.42284-6.8136-1.1879-11.234-1.9279-5.0111-0.83898-8.3613-1.432-12.232-2.2575-1.1786-0.25141-2.0813-0.45491-2.8871-0.63272-1.8705-0.41273-4.9935-1.0281-8.8352-2.143-5.1857-1.5049-9.8077-3.4054-13.018-5.0184z" fill="#fff" fill-opacity=".25"/><g stroke-linecap="square"><path d="m132.55 200.41c-10.291-5.0031-12.481-6.0916-28.791-9.7215-19.95-4.4403-32.945-5.2809-54.777-5.4216-0.40809-0.11312-1.0458-0.79707 0.93476-1.1217 18.595-0.0723 36.996 1.3771 54.968 5.7237 9.4988 2.2974 19.52 5.51 27.946 9.7622 0.4154 0.52906 0.30291 0.77864-0.28043 0.77896z" fill="#f55" stroke="#000" stroke-width=".3"/><path d="m134.78 195.25c-2.8118-1.2692-9.1676-5.2436-22.03-8.5683-10.23-2.6443-26.114-4.4727-36.559-7.109-16.042-4.0493-22.067-10.756-30.974-8.1589-0.29067-0.29901-0.78653-0.79247 0.1498-1.0656 1.1439-0.3329 4.058-0.78623 7.1841-0.10951 5.813 1.2583 16.337 7.052 24.851 8.8006 23.688 4.8649 38.316 5.2741 57.644 15.642 0.34959 0.34621 0.20635 0.5164-0.26585 0.56911z" fill="#f55" stroke="#000" stroke-width=".3"/><path d="m49.916 184.15c18.595-0.0723 36.996 1.3771 54.968 5.7237 9.4988 2.2974 19.52 5.51 27.946 9.7622" fill="none" stroke="#ffe680" stroke-dasharray="0.2, 0.4" stroke-width=".2"/><path d="m118.68 191.42-3.443-1.0906c-0.44368-0.14053-0.22462-0.77148 0.14021-0.65433l3.3963 1.0906c0.45232 0.14524 0.38039 0.80442-0.0935 0.65433z" fill="#ff2a2a" stroke="#000" stroke-width=".3"/><path d="m134.78 195.25c-2.8118-1.2692-9.1676-5.2436-22.03-8.5683-10.23-2.6443-26.114-4.4727-36.559-7.109-16.042-4.0493-22.067-10.756-30.974-8.1589" fill="none" stroke="#ffe680" stroke-dasharray="0.2, 0.4" stroke-width=".2"/></g><g stroke="#000" stroke-linecap="square" stroke-width=".3"><path d="m129.96 138.38 6.542-36.318c-2.4554 15.557-9.6389 49.143-20.884 82.161 0.66584 0.6571 0.9272 3.8583-0.0112 5.3451-0.0827 0.13099-0.13087 0.54955-0.0277 0.59067 4.3658 0.65488 13.479-46.612 14.381-51.779z" fill="#f55"/><path d="m136.13 104.47c-4.7671 23.778-10.027 47.944-17.326 71.262l3.4371 0.88131c8.594-22.324 12.467-46.314 17.274-69.975z" fill="#ff8080"/><path d="m128.5 156.98-3.1782-0.87244c4.1663-18.51 12.916-60.871 15.268-77.897l4.8608 1.3087c-3.7762 17.887-12.353 59.902-16.95 77.461z" fill="#f55"/><path d="m121.77 200.04c-0.25475 1.6304 5.3464 3.1902 5.7332 1.4956 12.519-41.337 18.316-72.454 19.692-122.89l-8.5471-0.95431c3.4115 34.771 0.54809 71.312-16.878 122.35z" fill="url(#linearGradient9806)"/></g><g stroke-linecap="square"><g stroke="#000"><g stroke-width=".3"><path d="m94.754 241.85c-2.565 4.8284-4.1929 3.7361-7.1042 1.6203z" fill="#f55"/><path d="m67.77 228.49c-2.6234-4.7144 3.6038-6.2761 4.7984-4.9231 0.45143 0.46908-4.254 5.462-4.7984 4.9231z" fill="#ff2a2a"/><path d="m65.184 224.28c4.568 6.0448 13.773 15.013 25.71 19.987 1.595-0.25101 7.2621-3.6162 3.4512-4.1734l-4.546-2.7892c-8.4418 0.86446-16.41-8.6829-24.615-13.024z" fill="#ff2a2a"/><path d="m84.16 239.86c1.5348 0.0104 3.3579-0.62761 4.2999 0.71664-2.9472 0.73743-2.5816 1.9734-0.87244 2.8043-0.33349 0.56532-3.6925-0.49106-3.8014-1.963z" fill="#f55"/><path d="m43.934 188.39c-5.5735 4.6658 25.897 47.772 43.061 52.565 3.0926-0.92339 2.015-2.368 3.0224-3.5521-13.885-4.1571-43.316-40.652-42.345-50.072z" fill="url(#linearGradient954)"/></g><path d="m47.326 188.42c-0.59235 3.2055 7.6234 18.057 20.341 31.705 6.4623 6.9348 14.872 14.604 22.27 18.133" fill="none" stroke-width=".2"/><g stroke-width=".3"><path d="m92.008 238.92c-1.719 0.67372-5.0684 2.1602-5.0684 2.1602-0.85197 0.52943-0.86128 1.5122 0.04492 1.9394l3.084 1.4531c1.2479 0.58831 1.6801 0.15895 2.3809-0.35157l3.084-2.248c0.83805-0.61058 0.86636-1.5467-0.2207-1.8945zm-0.09961 0.75196 2.6055 0.73828c0.85722 0.24231 0.83469 0.89304 0.17383 1.3184l-2.4316 1.5664c-0.55256 0.35561-0.89287 0.65394-1.877 0.24414l-2.4316-1.0117c-0.71461-0.29759-0.707-0.98278-0.03516-1.3516 1e-6 0 2.6406-1.0346 3.9961-1.5039z" fill="url(#linearGradient718)"/><path d="m79.207 235.84 1.4911-0.78696c3.6825 2.2926 3.8343 1.5979 0.60888-0.32136l1.0727-0.56615c3.9081 3.4747 10.609 3.0957 10.157 5.7725l-4.5828 2.3354c2.3394-2.2764-5.1864-4.4732-8.7469-6.4335z" fill="#ff8080"/><path d="m88.143 238.63c1.3917 0.69494 2.0566 1.521 1.5708 2.6853 0.61228 0.38782 0.90543 0.0794 1.0624-0.52611 0.01664-2.0639-0.78794-1.9252-1.7648-2.6644-0.56587-0.28771-1.3307 0.25281-0.8684 0.50518z" fill="url(#linearGradient813)"/><path d="m52.876 190.19c-3.0422-2.1059-0.65382-4.6241 2.555-4.7673 0.5744 0.20492-0.32799 4.713-2.555 4.7673z" fill="#ff2a2a"/><path d="m93.258 243.63 1.1529-0.87245c0.45628 0.31629 0.20726 1.4453-1.1529 0.87245z" fill="#f95"/></g></g><path d="m82.311 234.61c3.3407 2.9005 10.43 3.0063 9.3944 5.849" fill="none" stroke="#ffe680" stroke-dasharray="0.2, 0.4" stroke-width=".2"/><path d="m43.795 188.52c17.955-2.5107 50.458 28.248 47.032 54.998 0.42839 0.61235 2.5296-0.83338 3.9182-1.917 2.0457-27.084-26.845-56.218-46.802-56.876-1.3409 1.239-3.18 2.6306-4.1475 3.795z" fill="#ff8080" stroke="#000" stroke-width=".3"/><g fill="#ff2a2a" stroke="#000" stroke-width=".2"><ellipse cx="93.289" cy="239.31" rx=".31801" ry=".49972"/><ellipse transform="rotate(-5.0225)" cx="72.05" cy="242.34" rx=".31801" ry=".49972"/><ellipse transform="rotate(-10.909)" cx="47.04" cy="243.95" rx=".31801" ry=".49972"/></g><g stroke="#000"><path d="m44.682 187.76c9.4426-0.87479 20.573 5.9219 29.73 15.51 10.818 11.327 18.809 26.723 16.946 40.451" fill="none" stroke-width=".2"/><path d="m47.564 185.08c11.808 1.1733 22.429 8.2637 30.694 17.373 10.819 11.924 17.45 27.344 16.091 39.414" fill="none" stroke-width=".2"/><path d="m52.596 184.68c-1.5188 0.61711-2.8337 3.4008-2.3794 4.8167 0.68072 0.48462 2.1284 0.64036 2.7377 0.72956-0.69799-0.26443 1.5369-4.98 2.5083-4.7361z" fill="#ff8080" stroke-width=".3"/><path d="m44.329 188.47c-2.7664 3.4644 7.2685 19.761 19.719 33.816 6.6248 7.4782 13.393 14.437 23.244 18.445" fill="none" stroke-width=".2"/><path d="m65.128 225.79 2.6439 2.5998c1.9785-3.7744 5.0572-4.9031 4.8472-4.8472l-2.4236-2.8642c-0.41632-0.52864-5.4541 3.9229-5.0675 5.1115z" fill="#ff8080" stroke-width=".3"/></g><g fill="none" stroke="#ffe680" stroke-dasharray="0.2, 0.4" stroke-width=".2"><path d="m50.571 189.36c-0.10235-1.7577 0.88018-3.1008 2.2746-4.4957"/><path d="m52.378 189.86c-0.10235-1.7577 0.88018-3.1008 2.2746-4.4957"/><path d="m65.596 225.81c0.84799-1.6486 3.1703-3.8642 4.6738-4.6982"/><path d="m67.474 227.71c0.84799-1.6486 3.0145-3.6617 4.518-4.4957"/><path d="m80.116 235.75c5.1946 2.3397 9.1528 3.6294 8.6933 5.7711"/></g></g><path d="m94.167 76.938c-7.704-1.3448-22.897-6.3942-23.839-9.5621l8.769-4.2302 16.216 9.7384" fill="none" stroke="#ffe680" stroke-dasharray="0.2, 0.4" stroke-linecap="square" stroke-width=".2"/><g stroke="#000" stroke-linecap="square" stroke-width=".3"><path d="m68.874 67.948 2.1151 1.6745c-6.6034-5.5 45.065 3.9627 62.044 9.9146 1.3811 0.48415 1.8407-0.54615 1.7185-1.0135-2.6303-3.2752-2.0883-7.6858-8.5927-9.6503-13.784-4.1632-40.223-10.648-52.878-9.6943-2.3802 1.1003-5.1903 1.3407-4.4065 8.769z" fill="#faa"/><path d="m128.97 134.52c-0.36496 1.0997-0.81229 1.9546-0.68458 3.7112 2.0924 0.47003 3.3801 0.62847 5.1462 1.0985 0.70003-1.2632 0.72712-2.5264 0.96943-3.7896-1.6023-0.62918-4.5808-1.055-5.4311-1.0202z" fill="#faa"/><path d="m141.07 79.629s-0.26821 13.935-0.65083 20.303c-0.23699 2.0956 0.21358 5.5471-0.67366 9.7-1.3258 17.399-3.513 39.939-3.513 39.939l0.21459 5.5444h2.742l2.1642-4.6008s2.9767-23.138 4.6191-40.669c0.91469-3.3854 0.90939-6.5616 0.7712-9.3218 0.40519-5.9931 0.21017-19.798 0.21017-19.798z" fill="url(#linearGradient9980)"/><path d="m147.97 82.314c-0.084 0.68086-0.24422 1.2664-0.79316 1.366-22.782-10.899-82.739-21.144-78.127-15.511-1.6091-0.87514-1.4802-1.6166-1.6304-2.3795 20.838-0.4876 55.214 4.5666 80.551 16.524z" fill="#f55"/></g><path d="m141.6 81.585-0.51679 19.12c-0.0588 2.6872 0.0505 5.139-0.56086 8.5998l-3.4898 40.008 0.12463 5.11 1.6202 0.0623 1.9652-4.3075 4.6404-40.748c0.9445-2.8586 0.60046-5.3952 0.68549-8.0389l0.3374-17.767" fill="none" stroke="#ffe680" stroke-dasharray="0.2, 0.4" stroke-linecap="square" stroke-width=".2"/><g stroke="#000" stroke-linecap="square" stroke-width=".3"><path d="m101.58 49.729c2.7988-11.187 7.6643-21.472 15.455-30.38 4.4535-5.0921 8.4797-1.6383 12.027 2.8354 9.0436 12.319 8.2419 25.367 8.6621 38.325-1.0188-1.9785-2.2688-3.4268-2.9289-7.9766-2.2845-15.747-6.1279-32.488-13.211-33.402-7.814-0.58223-16.218 18.625-20.004 30.598z" fill="#f55"/><path d="m137.53 76.1c-0.29377-6.8301 0.17108-9.0001-0.8813-20.49-1.941-21.192-6.6646-35.97-13.484-37.72-3.5706-0.91592-3.8846-0.15068-6.1691 1.4541 3.6996-3.2642 5.516-3.4401 8.2527-2.5936 9.8544 3.0482 10.416 13.83 16.247 21.057-1.322 12.764 5.4415 35.547-3.9659 38.293z" fill="#ff8080"/><path d="m137.66 60.199 0.17636 16.651 9.4299 3.6133-0.70505-17.802z" fill="url(#linearGradient11959)"/><path d="m147.82 82.6c0.49675 0.38847 0.91216-5.9208 0.49541-5.9491-26.623-9.4809-57.603-16.883-79.455-16.576-0.65155 0.443-0.55754 0.886-0.39171 1.329l-0.8849 3.0023c-0.24974 0.4972-0.59516 0.94125-0.12554 1.8381 24.063 5.56e-4 56.364 7.9213 80.361 16.356z" fill="url(#linearGradient11072)"/><path d="m93.991 77.775 1.7626-5.5963c3.6139 0.99462 7.1787 2.0322 9.8706 3.8337l-1.8067 5.1997c-3.1058-0.97598-6.4997-2.24-9.8265-3.4371z" fill="#f55"/><path d="m131.43 74.781c1.8082 0.51859 1.6827-1.5112 0.31158-1.8695-20.913-5.4658-50.209-12.796-63.875-10.968-1.6613 0.22224-0.84777 2.0864-0.12464 1.9942 15.056-1.9206 49.894 6.8871 63.688 10.843z" fill="#ffb380"/><path d="m142.96 70.045c-1.3713 0.0047-5.0477-7.7274-5.2347-8.9737-0.29431-15.506-4.6375-38.565-12.277-44.245l8.1013 1.3087c13.98 9.9413 12.174 36.051 13.087 44.557 0.12464 1.1217-2.5726 7.3496-3.6767 7.3535z" fill="#faa"/><path d="m90.642 172.74c-0.63001 0.078-0.98038 2.8341-0.22032 3.0846l6.8301 0.17627c0.24394-0.82832 0.39813-1.7464 0.17626-3.0405z" fill="#faa"/><ellipse cx="93.991" cy="169.14" rx=".83724" ry=".9474" fill="#ffb380"/><path d="m81.341 127.03c-0.53996 1.0252-1.0235 2.159-1.1849 3.9129 1.9873 0.80601 2.6132 0.87643 4.2786 1.6291 0.89726-1.1317 1.1306-2.3734 1.5763-3.5799-1.4778-0.88284-2.1857-1.08-4.6701-1.962z" fill="#faa"/><path d="m118.84 175.42-2.6439 8.813c1.1274 3.3151-0.27741 5.9744-0.67923 5.9751l2.9786 0.87283c1.0955-1.9347 1.533-3.7254 0.88396-5.9924l3.0116-8.6474z" fill="#f55"/></g><g fill="#ff2a2a" stroke="#000" stroke-linecap="square"><ellipse cx="144.29" cy="85.64" rx=".74346" ry=".78752" stroke-width=".26724"/><ellipse cx="143.61" cy="98.684" rx=".83724" ry=".8152" stroke-width=".3"/><ellipse cx="143.3" cy="105.84" rx=".66098" ry="1.0135" stroke-width=".3"/><ellipse cx="143.51" cy="101.82" rx=".75562" ry=".71156" stroke-width=".309"/></g><g stroke="#000" stroke-linecap="square" stroke-width=".3"><path d="m139.85 108.27c-0.95924-0.10016-1.2726-0.66991-1.235-1.7669l0.24927-6.1071c0.24793-1.634 1.0452-1.7411 1.9318-1.9318 1.7241-0.37084 4.3075 0.0058 6.0316 0.63073 0.71105 0.25774 1.3136 0.70737 1.2564 1.9432-0.12818 2.313-0.13507 4.3835-0.38461 6.9393-0.0992 0.54042-0.56891 0.79731-1.4553 0.7692l0.28263-2.0483c0.42073-0.96997 0.38449-4.0991 0.33363-5.8623-2.0297-1.0466-4.6359-1.0027-6.5006-0.56464l-0.31158 5.5462z" fill="#ffb380"/><path d="m142.81 101.88 0.13219-2.8202c0.0493-1.0519 1.3494-0.59608 1.322 0.02203l-0.13217 2.9744c-0.56502 0.25214-0.99181 0.15871-1.322-0.17626z" fill="#fca"/><path d="m138.23 123.91c-0.33741 1.371-0.91294 3.0945-0.43309 4.4655l6.6497 0.61248c0.48085-1.4748 0.68659-3.0819 0.52123-4.5567z" fill="#faa"/><path d="m139.02 112.5c-0.33741 1.371-0.60449 2.742-0.12464 4.113l6.826 0.34809c0.48085-1.4748 0.51032-2.6853 0.34496-4.1602z" fill="#faa"/></g><g fill="#ff2a2a" stroke="#000" stroke-linecap="square" stroke-width=".26724"><ellipse cx="144.09" cy="90.289" rx=".74346" ry=".78752"/><ellipse cx="144" cy="94.52" rx=".74346" ry=".78752"/><ellipse cx="142.9" cy="110.74" rx=".74346" ry=".78752"/><ellipse cx="142.2" cy="118.05" rx=".74346" ry=".78752"/><ellipse cx="141.89" cy="122.68" rx=".74346" ry=".78752"/></g><path d="m122.28 200.63 5.1116-15.687 4.0099 1.0135-4.759 15.907" fill="none" stroke="#ffe680" stroke-dasharray="0.2, 0.4" stroke-linecap="square" stroke-width=".2"/><path d="m126.65 182.72c-0.63265-0.0524-1.539 2.5738-0.84621 2.9744l6.6498 1.5687c0.40811-0.76096 0.74671-1.6281 0.79407-2.9403z" fill="#faa" stroke="#000" stroke-linecap="square" stroke-width=".3"/><g fill="none" stroke-linecap="square"><g><path d="m116.13 190.15c1.1503-2.2681 1.3755-4.1548 0.70108-5.8423l2.5083-7.9455" stroke="#ffe680" stroke-dasharray="0.2, 0.4" stroke-width=".2"/><path d="m118.17 190.65c1.1503-2.2681 1.2665-4.0613 0.59203-5.7488l2.6173-8.039" stroke="#ffe680" stroke-dasharray="0.2, 0.4" stroke-width=".2"/><path d="m116.28 184.26 3.1159 0.84128" stroke="#000" stroke-width=".1"/></g><g stroke="#ffe680" stroke-dasharray="0.2, 0.4" stroke-width=".2"><path d="m148.25 77.523c-11.114-4.0294-26.724-8.8377-41.854-12.05-17.585-3.7334-29.812-5.0494-37.975-4.0903"/><path d="m67.75 64.81c29.161 0.86992 57.21 8.725 80.452 16.888"/><path d="m127.1 17.45c9.0064 9.0205 11.496 34.586 11.741 43.746 1.2778 2.5212 2.2847 5.1101 4.1753 7.4781 1.1411-1.9942 2.0044-3.6767 2.9912-5.6709-0.33544-13.873-1.2313-36.315-12.9-44.682"/></g></g><g fill="#ffe6d5"><path d="m93.521 168.92c0.0092-0.0406 0.02662-0.0863 0.0531-0.12688 0.02046-0.0314 0.04513-0.0578 0.07321-0.0769 0.02483-0.0169 0.05069-0.0269 0.07668-0.0309 0.02431-4e-3 0.04822-2e-3 0.0716 3e-3 0.04568 0.0106 0.09216 0.0366 0.13659 0.0704 0.05076 0.0386 0.09607 0.0851 0.13528 0.1292 0.03151 0.0355 0.05748 0.0675 0.07856 0.0897 0.01437 0.0151 0.03569 0.0325 0.06074 0.0528 0.04598 0.0373 0.09835 0.0797 0.14655 0.13171 0.02105 0.0227 0.04015 0.0461 0.05611 0.0699 0.01638 0.0244 0.02929 0.0488 0.03779 0.0733 0.0095 0.0272 0.01317 0.0535 0.01088 0.0784-3e-3 0.0331-0.01647 0.0599-0.03277 0.0761 0.01523-0.0151 0.0395-0.0351 0.06193-0.0639 0.01754-0.0225 0.03416-0.0504 0.0469-0.0862 0.01145-0.0321 0.01898-0.0684 0.02177-0.10869 0.0027-0.0391 8.04e-4 -0.0802-0.0053-0.122-0.01368-0.0936-0.04725-0.18313-0.08593-0.25247-0.0216-0.0387-0.04414-0.07-0.06427-0.0911-0.02948-0.031-0.07425-0.0676-0.13085-0.10211-0.06923-0.0422-0.15557-0.0806-0.24798-0.0993-0.08314-0.0168-0.16731-0.0166-0.2424 8e-3 -0.03772 0.0124-0.07098 0.0303-0.0997 0.0528-0.03041 0.0239-0.05439 0.0519-0.07364 0.0822-0.0216 0.0339-0.03727 0.0706-0.04949 0.10711-0.01588 0.0474-0.02618 0.0951-0.03534 0.13541z"/><path d="m92.426 89.293c-0.11263-0.68649-0.20324-1.7459-0.17004-2.6464 0.02953-0.80103 0.14534-1.3174 0.27242-1.6827 0.05274-0.15161 0.10358-0.26627 0.13468-0.34433 0.01966-0.04934 0.03951-0.11299 0.06272-0.18368 0.04478-0.13639 0.09936-0.29026 0.19291-0.4457 0.08576-0.1425 0.19563-0.27143 0.33468-0.38413 0.17868-0.14482 0.37897-0.23917 0.5176-0.2725-0.13525 0.03252-0.3565 0.05707-0.59326 0.1224-0.18524 0.05112-0.37025 0.12452-0.54746 0.23902-0.19618 0.12676-0.35172 0.28465-0.46421 0.448-0.05751 0.0835-0.09981 0.163-0.12587 0.2284-0.04254 0.10675-0.08382 0.2569-0.11253 0.45014-0.06697 0.45068-0.05355 1.0362 0.04997 1.8381 0.11514 0.89198 0.34283 1.99 0.44839 2.6334z"/><path d="m143.82 101.69c-1.5e-4 -0.23537 0.10287-0.96306 0.1554-1.5992 0.0299-0.36182 0.0435-0.64551 0.0306-0.79812-7e-3 -0.07435-0.0837-0.20004-0.16421-0.29929-0.0356-0.04388-0.0689-0.07954-0.0992-0.11036-0.039-0.03965-0.0679-0.06519-0.0733-0.08331 5e-3 0.01832-7e-3 0.05464-0.0286 0.10352-0.0162 0.03677-0.0374 0.08063-0.059 0.12788-0.0497 0.10862-0.10254 0.23807-0.0967 0.30447 0.0113 0.12401 0.0683 0.43674 0.12243 0.76944 0.10117 0.62184 0.21235 1.3496 0.2125 1.585z"/><path d="m147.36 107.04c0.0881-0.96336 0.26047-2.445 0.35394-3.644 0.0368-0.47185 0.061-0.90253 0.0661-1.2896 5e-3 -0.38744-9e-3 -0.72157-0.0455-1.015-0.04-0.32158-0.10552-0.58313-0.19328-0.80458-0.11618-0.29317-0.26411-0.49516-0.39233-0.6276-1e-3 -0.0015-3e-3 -3e-3 -4e-3 -0.0045-0.114-0.11674-0.35062-0.23728-0.65295-0.32432-0.29082-0.08372-0.6155-0.12888-0.77784-0.1817 0.17397 0.0566 0.44116 0.22085 0.65217 0.41245 0.20396 0.1852 0.32798 0.38021 0.40467 0.45874 0.0974 0.0999 0.22767 0.24186 0.34854 0.46218 0.0931 0.16967 0.18122 0.38593 0.25327 0.67571 0.066 0.26546 0.11537 0.5796 0.14692 0.95767 0.0315 0.37751 0.0439 0.80251 0.0412 1.2741-7e-3 1.1629-0.113 2.6938-0.20047 3.6504z"/><path d="m67.548 62.972c0.0348-0.04854 0.08385-0.099 0.15267-0.14996 0.06062-0.04489 0.13646-0.09006 0.23114-0.13458 0.16668-0.07836 0.39019-0.15393 0.68789-0.22205 0.26415-0.06044 0.58398-0.11439 0.96882-0.15914 0.3547-0.04125 0.76161-0.07433 1.2255-0.09758 0.86047-0.04312 1.9-0.05149 3.1249-0.01867 1.1542 0.03092 2.4483 0.09777 3.864 0.20126 2.8276 0.20671 5.9823 0.54796 9.1826 0.98498 3.649 0.4983 7.0114 1.0729 9.8524 1.6338 2.3761 0.47109 4.4591 0.90354 6.0099 1.2343 3.8547 0.82208 9.6769 2.1548 15.797 3.6637 3.245 0.80005 6.0107 1.5105 8.1634 2.0819 1.1977 0.31789 2.1475 0.57723 2.8884 0.78368 0.98161 0.27353 1.5535 0.44218 1.901 0.543-0.34221-0.0993-0.92922-0.25475-1.9123-0.49995-0.74031-0.18464-1.7081-0.4208-2.9071-0.70743-2.1522-0.51445-4.9587-1.1697-8.2033-1.9055-6.7319-1.5266-11.394-2.5115-15.834-3.4584-1.5346-0.32729-3.6433-0.77715-5.9984-1.264-2.8338-0.58823-6.1661-1.2005-9.8081-1.7491-3.1885-0.48035-6.3302-0.86831-9.1493-1.1223-1.4109-0.12711-2.7012-0.21705-3.8517-0.27005-1.221-0.05625-2.258-0.06972-3.1162-0.04635-0.46277 0.0126-0.86893 0.03578-1.2231 0.06793-0.38424 0.03489-0.704 0.08004-0.96834 0.13287-0.29789 0.05954-0.52238 0.12823-0.69023 0.20166-0.09537 0.04172-0.17204 0.08479-0.2334 0.12828-0.06969 0.0494-0.11942 0.09918-0.15426 0.14777z"/><path d="m95.205 240.2c0.0715 0.0622 0.35472 0.14411 0.40308 0.20757 0.0023 3e-3 0.0046 6e-3 0.0069 9e-3 0.03433 0.0461 0.07046 0.10311 0.10001 0.1682 0.02403 0.0529 0.04391 0.11163 0.05517 0.17526 0.01001 0.0566 0.01299 0.11594 0.0068 0.17772-0.0058 0.0572-0.01924 0.11489-0.04093 0.17339-0.04054 0.10933-0.10893 0.2189-0.20426 0.3332-0.09259 0.11101-0.21097 0.22706-0.35336 0.35169-0.14661 0.12831-0.3183 0.26532-0.50671 0.40976-0.48566 0.3723-1.0905 0.80564-1.492 1.1099 0.38106-0.2888 1.0158-0.78455 1.4482-1.1633 0.17825-0.15615 0.3364-0.30401 0.46804-0.44239 0.12812-0.13468 0.22703-0.25607 0.29833-0.36716 0.07352-0.11453 0.11321-0.21121 0.12977-0.2946 0.0087-0.0439 0.0109-0.0835 0.0086-0.11958-0.0024-0.0388-0.01006-0.0747-0.02105-0.10833-0.01247-0.0382-0.02956-0.0744-0.04938-0.10915-0.02458-0.0431-0.05307-0.0834-0.08058-0.11987-0.0018-2e-3 -0.0036-5e-3 -0.0055-7e-3 -0.03819-0.0501-0.0997-0.32204-0.17119-0.38426z"/><path d="m90.244 240.81c0.01244-0.081-0.10124-0.32285-0.09801-0.39319 0.0043-0.0933 0.01004-0.21768 0.0025-0.35155-0.01078-0.19085-0.04787-0.39581-0.15033-0.60168-0.09711-0.19513-0.24482-0.3749-0.44917-0.54229-0.26625-0.21808-0.59001-0.38135-0.83174-0.47968 0.24192 0.0984 0.57497 0.23507 0.87036 0.42674 0.22594 0.14661 0.41103 0.31282 0.54971 0.51199 0.14848 0.21324 0.2256 0.43889 0.26144 0.65644 0.02487 0.15097 0.02827 0.29004 0.02355 0.39273-0.0036 0.0774-0.16585 0.2995-0.17829 0.38049z"/></g><path d="m91.124 190.5c-0.36923-0.1255-0.47877-0.39528-0.6777-0.61539l0.61538-0.17916z" fill="#ff2a2a" stroke="#000" stroke-linecap="square" stroke-width=".3"/></g></svg>
