<?xml version="1.0" encoding="UTF-8"?>
<svg cursor="default" version="1.1" viewBox="0 0 256 256" xml:space="preserve" xmlns="http://www.w3.org/2000/svg" xmlns:xlink="http://www.w3.org/1999/xlink"><defs><linearGradient id="linearGradient16939"><stop stop-color="#f55" offset="0"/><stop stop-color="#f55" offset=".76577"/><stop stop-color="#ff8080" offset="1"/></linearGradient><radialGradient id="radialGradient16941" cx="127.8" cy="127.99" r="55.758" gradientTransform="matrix(1 0 0 .97821 0 2.7895)" gradientUnits="userSpaceOnUse" xlink:href="#linearGradient16939"/></defs><g transform="matrix(.81337 -.38527 .38527 .81337 -68.143 62.768)"><g stroke="#000" stroke-linecap="square"><g><path d="m100.64 182.78c1.293-1.7763 0.95717-4.0403 0.98455-8.1061 0.0105-1.5524 0.33458-3.4768-0.98455-5.3199-7.9964-11.173-12.805-23.172-12.929-34.627-0.26472-24.478 16.793-46.475 41.547-46.474 23.744 9.32e-4 38.7 21.457 39.527 43.989 0.53775 14.647-4.8285 26.906-12.185 36.765-2.013 2.6977-1.4146 5.0049-1.3469 6.7284 0.10815 2.7523-0.10494 5.0118 1.8115 7.4491 14.088-17.954 20.202-37.796 18.31-59.98-6.7116-25.228-21.436-40.335-46.004-43.008-40.381 2.9951-47.483 37.37-49.177 45.475-1.4614 25.6 8.4292 42.198 20.446 57.108z" fill="#f55" stroke-width=".6"/><path d="m129.09 68.793c-29.394-0.265-58.258 23.381-60.563 56.51-1.2625 18.151 1.1791 35.661 16.076 55.1 7.4581 9.7316 14.339 5.9173 15.441 3.1797 0.61019-1.5157 0.0144-3.0676-0.51758-4.0449-18.339-33.687-19.666-46.442-16.438-57.338 8.8713-29.938 26.207-40.683 46.107-39.709 29.559 1.4467 41.378 27.466 43.699 43.713 2.791 19.541-5.8966 36.166-14.947 50.066-2.669 4.7132-1.4965 6.6656-0.14453 7.6758 3.6143 2.7006 6.5635 3.8695 9.7656 0.55664 12.01-12.425 23.334-32.835 20.248-57.328-5.364-42.573-34.748-58.165-58.729-58.381zm-1.5469 4.8047c0.92991-2e-3 1.87 0.01866 2.8223 0.0625 29.105 1.3398 48.071 22.793 52.348 49.854 2.6523 16.784-2.0844 37.101-17.074 56.459-1.4255 1.7528-3.1745 1.9714-4.6133 2.3672-0.0842-1.682-1.128-3.1702 0.125-5.2344 11.128-15.238 18.052-32.756 14.582-53.717-3.3857-20.454-18.732-43.013-46.113-43.871-13.695-0.42925-35.712 2.1267-48.359 38.387-8.119 23.276 3.4074 44.385 11.84 56.834 1.1307 3.2224 0.90865 5.261 0.74805 7.3535-2.098-1.0027-4.195-1.7859-6.293-4.5488-11.38-16.346-19.327-40.106-13.273-60.635 6.3524-21.54 24.434-43.25 53.262-43.311z" fill="#faa" stroke-width=".6"/><path d="m127.54 73.598c-28.827 0.06051-46.909 21.77-53.262 43.311-6.0539 20.528 1.8936 44.289 13.273 60.635 2.098 2.763 4.195 3.5461 6.293 4.5488 0.1606-2.0925 0.38264-4.1311-0.74805-7.3535-6.4921-9.5842-14.817-24.302-14.6-41.189l-2.3809 0.0293v-3.584l2.5547-0.0312v0.0137c0.33482-3.9327 1.1548-7.9693 2.5859-12.072 4.7482-13.613 10.816-22.475 17.27-28.213l-1.3164-1.6992 3.0547-2.0254 1.0957 1.418c9.9382-7.3859 20.449-8.1119 28.256-7.8672 27.381 0.85822 42.728 23.417 46.113 43.871 3.4695 20.961-3.4537 38.479-14.582 53.717-1.2529 2.0642-0.2092 3.5524-0.125 5.2344 1.4388-0.39582 3.1879-0.61451 4.6133-2.3672 14.99-19.358 19.727-39.675 17.074-56.459-4.2762-27.061-23.243-48.514-52.348-49.854-0.95224-0.04384-1.8924-0.06445-2.8223-0.0625zm28.373 12.307 3.084 2.0879-1.4941 1.9316-2.8984-2.1504zm9.7226 8.5371 2.2422 2.8359-1.9004 1.4648-2.1816-2.8984zm-75.187 0.0625 1.9629 1.4023-2.1172 2.8047-2.0254-1.3398zm-7.1035 10.625 2.1504 0.93554-1.5586 3.334-2.2129-1.0898zm89.551 0.1875 1.4023 3.3652-2.0879 0.87305-1.4961-3.2715zm-94.566 11.623 2.4297 0.5293-0.8418 3.6758-2.4297-0.74805zm99.178 0.68555 0.7793 3.582-2.2441 0.5293-0.8418-3.582zm2.3984 12.711 0.125 3.7402h-2.3984l-0.125-3.709z" fill="url(#radialGradient16941)" stroke-width=".3"/></g><g fill="#f55" stroke-width=".3"><path d="m76.173 133.57h-1.7626l0.12574-5.3357 4.1201 1.388-0.02203 0.41862-2.5117 0.022z"/><path d="m77.608 120.47-1.8728-0.33049 1.423-5.1503 3.6794 1.9609-0.08813 0.44066-2.3354-0.41862z"/><path d="m81.719 108.31-1.8507-0.9474 2.6219-4.5167 3.3049 2.4566-0.30846 0.73809-2.2033-1.0576z"/><path d="m88.313 97.367-1.5917-1.0807 3.8105-4.0803 2.2527 3.0808-0.33583 0.53256-1.9609-1.4101z"/><path d="m97.214 88.014-0.92537-1.366 4.1797-2.6815 1.3667 2.8869-0.52878 0.50675-1.0582-1.5209z"/><path d="m154.54 87.77-0.76736-0.56105 2.193-3.3312 3.9632 2.9911-0.95117 1.1537-3.1001-2.2059z"/><path d="m163.77 95.775-0.30357-0.4896 2.639-3.1017 3.205 4.1926-1.4321 0.92537-2.3016-2.8487z"/><path d="m170.74 106.27-0.58465-1.2688 3.5967-1.7744 2.3521 4.7989-1.7314 0.63138-1.4579-3.3151z"/><path d="m175.2 118.08-0.19716-1.0925 3.8584-1.1392 1.1586 4.9869-1.7406 0.35252-0.76201-3.5768z"/><path d="m177.51 130.35 0.0102-1.2843 3.7896 0.0881 0.1377 4.9243h-1.4762l-0.11567-3.7345z"/></g><g fill="#ff8080" stroke-width=".3"><path d="m76.152 130.09-1.4956-1.7605"/><path d="m78.364 117-1.1373-1.8539"/><path d="m83.316 105.06-0.79317-2.0711"/><path d="m90.469 94.395 0.04674-2.0876"/><path d="m100.24 85.842 0.15579-1.6982"/><path d="m155.87 85.733 0.12464-1.7137"/><path d="m165.56 94.395 0.5297-2.0253"/><path d="m172.9 105.3 0.79455-1.9318"/><path d="m177.53 117.59 1.2775-1.6358"/><path d="m179.89 130.31 1.3242-1.0594"/></g></g><path d="m126.26 70.294c3.2384-0.0059 7.8352 0.252 12.975 1.3471 5.1968 1.1073 10.114 2.8871 14.687 5.3398 6.427 3.4475 10.773 7.4795 13.341 10.058 1.5661 1.5721 3.5763 3.7458 5.7054 6.5942 4.5418 6.0763 8.5211 13.762 11.074 23.087 2.9626 10.822 3.0638 20.445 2.6656 26.361 0.39941-5.9341 0.54849-15.505-2.156-26.493-2.3246-9.4444-6.1331-17.361-10.637-23.648-2.111-2.9469-4.1367-5.2038-5.7385-6.8117-2.624-2.634-7.2429-6.6116-13.884-9.8701-4.7302-2.321-9.7559-3.928-15.006-4.8803-5.2042-0.94402-9.7774-1.0896-13.027-1.0837z" fill="#ffd5d5"/></g><g transform="matrix(.89289 .11287 -.11287 .89289 70.48 6.7948)"><g stroke="#000" stroke-linecap="square"><g><path d="m100.64 182.78c1.293-1.7763 0.95717-4.0403 0.98455-8.1061 0.0105-1.5524 0.33458-3.4768-0.98455-5.3199-7.9964-11.173-12.805-23.172-12.929-34.627-0.26472-24.478 16.793-46.475 41.547-46.474 23.744 9.32e-4 38.7 21.457 39.527 43.989 0.53775 14.647-4.8285 26.906-12.185 36.765-2.013 2.6977-1.4146 5.0049-1.3469 6.7284 0.10815 2.7523-0.10494 5.0118 1.8115 7.4491 14.088-17.954 20.202-37.796 18.31-59.98-6.7116-25.228-21.436-40.335-46.004-43.008-40.381 2.9951-47.483 37.37-49.177 45.475-1.4614 25.6 8.4292 42.198 20.446 57.108z" fill="#f55" stroke-width=".6"/><path d="m129.09 68.793c-29.394-0.265-58.258 23.381-60.563 56.51-1.2625 18.151 1.1791 35.661 16.076 55.1 7.4581 9.7316 14.339 5.9173 15.441 3.1797 0.61019-1.5157 0.0144-3.0676-0.51758-4.0449-18.339-33.687-19.666-46.442-16.438-57.338 8.8713-29.938 26.207-40.683 46.107-39.709 29.559 1.4467 41.378 27.466 43.699 43.713 2.791 19.541-5.8966 36.166-14.947 50.066-2.669 4.7132-1.4965 6.6656-0.14453 7.6758 3.6143 2.7006 6.5635 3.8695 9.7656 0.55664 12.01-12.425 23.334-32.835 20.248-57.328-5.364-42.573-34.748-58.165-58.729-58.381zm-1.5469 4.8047c0.92991-2e-3 1.87 0.01866 2.8223 0.0625 29.105 1.3398 48.071 22.793 52.348 49.854 2.6523 16.784-2.0844 37.101-17.074 56.459-1.4255 1.7528-3.1745 1.9714-4.6133 2.3672-0.0842-1.682-1.128-3.1702 0.125-5.2344 11.128-15.238 18.052-32.756 14.582-53.717-3.3857-20.454-18.732-43.013-46.113-43.871-13.695-0.42925-35.712 2.1267-48.359 38.387-8.119 23.276 3.4074 44.385 11.84 56.834 1.1307 3.2224 0.90865 5.261 0.74805 7.3535-2.098-1.0027-4.195-1.7859-6.293-4.5488-11.38-16.346-19.327-40.106-13.273-60.635 6.3524-21.54 24.434-43.25 53.262-43.311z" fill="#faa" stroke-width=".6"/><path d="m127.54 73.598c-28.827 0.06051-46.909 21.77-53.262 43.311-6.0539 20.528 1.8936 44.289 13.273 60.635 2.098 2.763 4.195 3.5461 6.293 4.5488 0.1606-2.0925 0.38264-4.1311-0.74805-7.3535-6.4921-9.5842-14.817-24.302-14.6-41.189l-2.3809 0.0293v-3.584l2.5547-0.0312v0.0137c0.33482-3.9327 1.1548-7.9693 2.5859-12.072 4.7482-13.613 10.816-22.475 17.27-28.213l-1.3164-1.6992 3.0547-2.0254 1.0957 1.418c9.9382-7.3859 20.449-8.1119 28.256-7.8672 27.381 0.85822 42.728 23.417 46.113 43.871 3.4695 20.961-3.4537 38.479-14.582 53.717-1.2529 2.0642-0.2092 3.5524-0.125 5.2344 1.4388-0.39582 3.1879-0.61451 4.6133-2.3672 14.99-19.358 19.727-39.675 17.074-56.459-4.2762-27.061-23.243-48.514-52.348-49.854-0.95224-0.04384-1.8924-0.06445-2.8223-0.0625zm28.373 12.307 3.084 2.0879-1.4941 1.9316-2.8984-2.1504zm9.7226 8.5371 2.2422 2.8359-1.9004 1.4648-2.1816-2.8984zm-75.187 0.0625 1.9629 1.4023-2.1172 2.8047-2.0254-1.3398zm-7.1035 10.625 2.1504 0.93554-1.5586 3.334-2.2129-1.0898zm89.551 0.1875 1.4023 3.3652-2.0879 0.87305-1.4961-3.2715zm-94.566 11.623 2.4297 0.5293-0.8418 3.6758-2.4297-0.74805zm99.178 0.68555 0.7793 3.582-2.2441 0.5293-0.8418-3.582zm2.3984 12.711 0.125 3.7402h-2.3984l-0.125-3.709z" fill="url(#radialGradient16941)" stroke-width=".3"/></g><g fill="#f55" stroke-width=".3"><path d="m76.173 133.57h-1.7626l0.12574-5.3357 4.1201 1.388-0.02203 0.41862-2.5117 0.022z"/><path d="m77.608 120.47-1.8728-0.33049 1.423-5.1503 3.6794 1.9609-0.08813 0.44066-2.3354-0.41862z"/><path d="m81.719 108.31-1.8507-0.9474 2.6219-4.5167 3.3049 2.4566-0.30846 0.73809-2.2033-1.0576z"/><path d="m88.313 97.367-1.5917-1.0807 3.8105-4.0803 2.2527 3.0808-0.33583 0.53256-1.9609-1.4101z"/><path d="m97.214 88.014-0.92537-1.366 4.1797-2.6815 1.3667 2.8869-0.52878 0.50675-1.0582-1.5209z"/><path d="m154.54 87.77-0.76736-0.56105 2.193-3.3312 3.9632 2.9911-0.95117 1.1537-3.1001-2.2059z"/><path d="m163.77 95.775-0.30357-0.4896 2.639-3.1017 3.205 4.1926-1.4321 0.92537-2.3016-2.8487z"/><path d="m170.74 106.27-0.58465-1.2688 3.5967-1.7744 2.3521 4.7989-1.7314 0.63138-1.4579-3.3151z"/><path d="m175.2 118.08-0.19716-1.0925 3.8584-1.1392 1.1586 4.9869-1.7406 0.35252-0.76201-3.5768z"/><path d="m177.51 130.35 0.0102-1.2843 3.7896 0.0881 0.1377 4.9243h-1.4762l-0.11567-3.7345z"/></g><g fill="#ff8080" stroke-width=".3"><path d="m76.152 130.09-1.4956-1.7605"/><path d="m78.364 117-1.1373-1.8539"/><path d="m83.316 105.06-0.79317-2.0711"/><path d="m90.469 94.395 0.04674-2.0876"/><path d="m100.24 85.842 0.15579-1.6982"/><path d="m155.87 85.733 0.12464-1.7137"/><path d="m165.56 94.395 0.5297-2.0253"/><path d="m172.9 105.3 0.79455-1.9318"/><path d="m177.53 117.59 1.2775-1.6358"/><path d="m179.89 130.31 1.3242-1.0594"/></g></g><path d="m126.26 70.294c3.2384-0.0059 7.8352 0.252 12.975 1.3471 5.1968 1.1073 10.114 2.8871 14.687 5.3398 6.427 3.4475 10.773 7.4795 13.341 10.058 1.5661 1.5721 3.5763 3.7458 5.7054 6.5942 4.5418 6.0763 8.5211 13.762 11.074 23.087 2.9626 10.822 3.0638 20.445 2.6656 26.361 0.39941-5.9341 0.54849-15.505-2.156-26.493-2.3246-9.4444-6.1331-17.361-10.637-23.648-2.111-2.9469-4.1367-5.2038-5.7385-6.8117-2.624-2.634-7.2429-6.6116-13.884-9.8701-4.7302-2.321-9.7559-3.928-15.006-4.8803-5.2042-0.94402-9.7774-1.0896-13.027-1.0837z" fill="#ffd5d5"/></g></svg>
