<?xml version="1.0" encoding="UTF-8"?>
<svg cursor="default" version="1.1" viewBox="0 0 256 256" xml:space="preserve" xmlns="http://www.w3.org/2000/svg" xmlns:xlink="http://www.w3.org/1999/xlink"><defs><linearGradient id="linearGradient11268"><stop stop-color="#fd5" offset="0"/><stop stop-color="#ffe680" offset="1"/></linearGradient><linearGradient id="linearGradient10610"><stop stop-color="#f95" offset="0"/><stop stop-color="#ffb380" offset="1"/></linearGradient><linearGradient id="linearGradient7082" x1="44.869" x2="109.55" y1="112.3" y2="93.725" gradientTransform="matrix(1.21 0 0 1.21 -26.906 -12.282)" gradientUnits="userSpaceOnUse"><stop stop-color="#f55" offset="0"/><stop stop-color="#ff8080" offset="1"/></linearGradient><linearGradient id="linearGradient7218" x1="103.57" x2="115.04" y1="181.09" y2="54.59" gradientTransform="matrix(1.21 0 0 1.21 -26.906 -12.282)" gradientUnits="userSpaceOnUse"><stop stop-color="#f55" offset="0"/><stop stop-color="#ff8080" offset=".39707"/><stop stop-color="#ff8080" offset=".77664"/><stop stop-color="#f55" offset="1"/></linearGradient><linearGradient id="linearGradient7277" x1="112.81" x2="112.63" y1="59.576" y2="164.1" gradientTransform="matrix(1.21 0 0 1.21 -26.906 -12.282)" gradientUnits="userSpaceOnUse"><stop stop-color="#f55" offset="0"/><stop stop-color="#ff8080" offset="1"/></linearGradient><linearGradient id="linearGradient7285" x1="114.04" x2="146.82" y1="60.986" y2="136.95" gradientTransform="matrix(1.21 0 0 1.21 -26.906 -12.282)" gradientUnits="userSpaceOnUse"><stop stop-color="#f55" offset="0"/><stop stop-color="#ff8080" offset="1"/></linearGradient><linearGradient id="linearGradient8800" x1="195.03" x2="191.59" y1="83.019" y2="64.952" gradientTransform="matrix(1.21 0 0 1.21 -26.906 -12.282)" gradientUnits="userSpaceOnUse"><stop stop-color="#f55" offset="0"/><stop stop-color="#ff8080" offset="1"/></linearGradient><linearGradient id="linearGradient9235" x1="107.31" x2="121.77" y1="56.833" y2="11.466" gradientTransform="matrix(1.1741 0 0 1.1741 -22.878 -10.596)" gradientUnits="userSpaceOnUse"><stop stop-color="#ff8080" offset="0"/><stop stop-color="#faa" offset="1"/></linearGradient><linearGradient id="linearGradient9782" x1="87.618" x2="213.5" y1="25.426" y2="26.298" gradientTransform="matrix(1.21 0 0 1.21 -26.906 -12.282)" gradientUnits="userSpaceOnUse"><stop stop-color="#f55" offset="0"/><stop stop-color="#ff8080" offset=".36721"/><stop stop-color="#ff8080" offset=".85049"/><stop stop-color="#f55" offset="1"/></linearGradient><linearGradient id="linearGradient10104" x1="76.233" x2="86.368" y1="49.044" y2="26.748" gradientTransform="matrix(1.21 0 0 1.21 -26.906 -12.282)" gradientUnits="userSpaceOnUse"><stop stop-color="#ff8080" offset="0"/><stop stop-color="#faa" offset="1"/></linearGradient><linearGradient id="linearGradient10106" x1="82.005" x2="86.147" y1="44.374" y2="33.225" gradientTransform="matrix(1.21 0 0 1.21 -26.906 -12.282)" gradientUnits="userSpaceOnUse"><stop stop-color="#f55" offset="0"/><stop stop-color="#ff8080" offset="1"/></linearGradient><linearGradient id="linearGradient10612" x1="106.46" x2="111.53" y1="243.2" y2="218.87" gradientTransform="matrix(1.21 0 0 1.21 -28.263 -105.91)" gradientUnits="userSpaceOnUse" xlink:href="#linearGradient10610"/><linearGradient id="linearGradient11270" x1="115.28" x2="115.79" y1="231.48" y2="235.71" gradientTransform="matrix(1.21 0 0 1.21 -28.263 -105.91)" gradientUnits="userSpaceOnUse" xlink:href="#linearGradient11268"/></defs><g transform="matrix(.95 0 0 .95 15.242 39.267)"><g stroke="#000" stroke-linecap="square" stroke-width=".363"><path d="m88.387 174.29c-1.4031 14.793 52.87 5.8745 44.715-2.8654z" fill="#ffd42a"/><path d="m102.06 139.2c-0.0109 1.52 2.888 1.844 7.6352 1.8083 7.1963-0.0541 7.6157-1.0065 8.627-3.0879 3.2357 4.589-3.1766 4.8276-7.7312 5.1186-10.239 0.8907-11.322-0.90553-8.531-3.839z" fill="#f95"/><path d="m110.94 134.8c-0.48034-1e-3 -0.96577-1e-3 -1.451 2e-3 -3.8822 0.0296-7.7138 0.22388-8.1557 0.56482-15.557 12.002-16.468 35.334-13.475 46.765 1.0787 2.03 2.5391 3.993 4.9014 4.1476 11.51 0.75322 23.037 0.3436 34.383-1.0564 5.3111-0.65531 7.0512-3.8782 7.1631-8.444 0.23697-20.098-4.832-35.76-16.361-41.549-0.56009-0.28125-3.6423-0.41954-7.0048-0.43011zm5.3032 2.8477c2.404-0.0751 2.8494 4.393-0.21269 4.5328l-11.677 0.53174c-3.2213 0.14709-2.3784-4.6184-0.052-4.6911zm-5.5442 5.9177c17.211-8e-3 21.253 8.604 20.527 32.42l-40.63 3.1455c-3.2877-18.001 1.1533-35.556 20.102-35.565z" fill="url(#linearGradient10612)"/><path d="m88.2 179.88c0.80019 1.9085 2.7415 3.2507 6.8781 3.1991 10.287-0.12821 25.307 0.11011 35.084-2.2927 4.1647-1.0236 3.0232-3.4317 3.3591-5.012-3.8219-0.20289-3.9587-2.511-2.2394-3.1192l0.0266-1.7329c-0.82804-0.67872-2.3345-1.8055-4.2922-1.7062-12.682 0.64338-24.632 1.9722-33.378 2.7726-1.6994 0.15553-2.9117 1.132-3.679 1.8128l0.26659 1.8128c2.2614 0.82897 1.4045 2.5874-1.4929 2.9325z" fill="url(#linearGradient11270)"/></g><path d="m118.9 136.53c0.87337 0.67563 2.1518 1.9117 3.4123 3.4586 1.3098 1.6074 2.1299 2.9392 2.7969 3.9525 0.0468 0.071 0.0908 0.13734 0.13226 0.19858 1.1894 1.7588 2.7645 4.3229 4.1711 8.006 2.6624 6.9716 3.3162 14.492 3.4036 18.775-0.0883-4.3268-0.23858-11.765-2.6109-19.055-1.2386-3.806-2.7632-6.5785-3.9863-8.3871-0.0429-0.0635-0.0902-0.13131-0.14152-0.20299-0.68651-0.95867-1.8626-2.3007-3.3615-3.6691-1.6053-1.4655-2.8326-2.3158-3.8159-3.0765z" fill="#ffe6d5"/><g fill="none" stroke="#000" stroke-linecap="square" stroke-width=".2"><path d="m93.418 172.16-0.08813 10.62"/><path d="m97.648 171.72 0.1322 11.148"/><path d="m102.89 182.95-0.35252-11.765"/><path d="m107.34 170.88 0.61691 11.765"/><path d="m112.28 170.26 1.0135 12.294"/><path d="m116.99 169.91 1.4101 12.426"/><path d="m121.8 169.43 1.8948 12.338"/><path d="m126.38 169.29 2.3795 11.633"/><path d="m133.34 177.14c-14.838 2.3232-29.763 2.7532-44.682 3.3049"/><path d="m91.655 176.83c12.808-0.73291 25.616-1.4346 38.425-2.732"/><path d="m90.157 174.49c13.81-1.2219 27.654-2.4779 40.981-3.2168"/></g></g><g transform="translate(0 65.381)"><g stroke="#000" stroke-linecap="square" stroke-width=".363"><path d="m88.387 174.29c-1.4031 14.793 52.87 5.8745 44.715-2.8654z" fill="#ffd42a"/><path d="m102.06 139.2c-0.0109 1.52 2.888 1.844 7.6352 1.8083 7.1963-0.0541 7.6157-1.0065 8.627-3.0879 3.2357 4.589-3.1766 4.8276-7.7312 5.1186-10.239 0.8907-11.322-0.90553-8.531-3.839z" fill="#f95"/><path d="m110.94 134.8c-0.48034-1e-3 -0.96577-1e-3 -1.451 2e-3 -3.8822 0.0296-7.7138 0.22388-8.1557 0.56482-15.557 12.002-16.468 35.334-13.475 46.765 1.0787 2.03 2.5391 3.993 4.9014 4.1476 11.51 0.75322 23.037 0.3436 34.383-1.0564 5.3111-0.65531 7.0512-3.8782 7.1631-8.444 0.23697-20.098-4.832-35.76-16.361-41.549-0.56009-0.28125-3.6423-0.41954-7.0048-0.43011zm5.3032 2.8477c2.404-0.0751 2.8494 4.393-0.21269 4.5328l-11.677 0.53174c-3.2213 0.14709-2.3784-4.6184-0.052-4.6911zm-5.5442 5.9177c17.211-8e-3 21.253 8.604 20.527 32.42l-40.63 3.1455c-3.2877-18.001 1.1533-35.556 20.102-35.565z" fill="url(#linearGradient10612)"/><path d="m88.2 179.88c0.80019 1.9085 2.7415 3.2507 6.8781 3.1991 10.287-0.12821 25.307 0.11011 35.084-2.2927 4.1647-1.0236 3.0232-3.4317 3.3591-5.012-3.8219-0.20289-3.9587-2.511-2.2394-3.1192l0.0266-1.7329c-0.82804-0.67872-2.3345-1.8055-4.2922-1.7062-12.682 0.64338-24.632 1.9722-33.378 2.7726-1.6994 0.15553-2.9117 1.132-3.679 1.8128l0.26659 1.8128c2.2614 0.82897 1.4045 2.5874-1.4929 2.9325z" fill="url(#linearGradient11270)"/></g><path d="m118.9 136.53c0.87337 0.67563 2.1518 1.9117 3.4123 3.4586 1.3098 1.6074 2.1299 2.9392 2.7969 3.9525 0.0468 0.071 0.0908 0.13734 0.13226 0.19858 1.1894 1.7588 2.7645 4.3229 4.1711 8.006 2.6624 6.9716 3.3162 14.492 3.4036 18.775-0.0883-4.3268-0.23858-11.765-2.6109-19.055-1.2386-3.806-2.7632-6.5785-3.9863-8.3871-0.0429-0.0635-0.0902-0.13131-0.14152-0.20299-0.68651-0.95867-1.8626-2.3007-3.3615-3.6691-1.6053-1.4655-2.8326-2.3158-3.8159-3.0765z" fill="#ffe6d5"/><g fill="none" stroke="#000" stroke-linecap="square" stroke-width=".2"><path d="m93.418 172.16-0.08813 10.62"/><path d="m97.648 171.72 0.1322 11.148"/><path d="m102.89 182.95-0.35252-11.765"/><path d="m107.34 170.88 0.61691 11.765"/><path d="m112.28 170.26 1.0135 12.294"/><path d="m116.99 169.91 1.4101 12.426"/><path d="m121.8 169.43 1.8948 12.338"/><path d="m126.38 169.29 2.3795 11.633"/><path d="m133.34 177.14c-14.838 2.3232-29.763 2.7532-44.682 3.3049"/><path d="m91.655 176.83c12.808-0.73291 25.616-1.4346 38.425-2.732"/><path d="m90.157 174.49c13.81-1.2219 27.654-2.4779 40.981-3.2168"/></g></g><g stroke="#000" stroke-linecap="square" stroke-width=".363"><path d="m74.24 23.655c2.132-3.5188 3.4474-6.7289 6.3982-10.557 1.1566-1.5005 2.1934-1.3978 2.7726-0.74646z" fill="#f55"/><path d="m85.01 11.925c4.878-2.2139 5.6269-1.3644 6.185-0.37323-2.0527 10.898-11.066 22.666-17.169 34.071l-6.3982-4.9586c3.315-10.101 8.6714-19.773 17.382-28.739z" fill="url(#linearGradient10106)"/><path d="m57.773 68.174c-1.9581-5.7158 1.8531-19.027 9.4255-24.808 3.1906 8.3549 2.1972 16.653-9.4255 24.808z" fill="#ff2a2a"/><path d="m62.616 57.619c1.4703-6.5517 3.0478-13.853 5.5451-22.66 2.5286-8.9179 9.7825-15.995 15.089-23.407 1.9426-2.3298 2.8208-0.2279 2.506 0.26659-4.283 6.5031-9.2435 11.726-12.423 17.915-6.2971 12.257-5.5452 18.04-8.4777 27.672z" fill="url(#linearGradient10104)"/><path d="m166.13 80.767c3.3305-20.013 26.508-1.5364 39.813 1.8851-16.964 3.7839-34.875-9.5529-39.813-1.8851z" fill="#ff2a2a"/><path d="m169.97 72.623c11.279 4.0941 16.85 13.232 36.722 9.8779 15.505-2.6173 22.272-9.4642 22.847-16.136 1.6634-19.305-4.2626-19.394-4.9013-24.883z" fill="url(#linearGradient8800)"/><path d="m59.897 63.751c-12.939 16.232-29.816 30.791-35.51 54.065-6.4248 26.261 10.677 58.224 37.643 66.968 11.696-45.69 66.593-109.99-2.1327-121.03z" fill="url(#linearGradient7082)"/><path d="m167.94 76.242c2.5402-1.0772 4.7575-2.9077 7.842-2.7145 23.106 0.54253 38.713-5.5803 43.734-21.113 6.5018-10.167 8.0069-16.074 7.842-20.812-19.806 14.88-60.898 22.381-59.418 44.639z" fill="#f55"/><path d="m60.563 184.07c22.965 8.7914 46.537 17.531 71.785 1.8097 20.447-12.732 21.726-53.459 25.185-71.332 4.7761-24.678 10.231-31.667 15.933-46.958-34.764-9.3486-69.528-16.234-104.29-28.046-3.2598 8.0537-4.2362 16.865-10.557 24.153 12.69 9.4552 23.407 14.981 26.873 28.099 1.983 7.5055-9.6122 22.404-17.489 35.937-8.5952 14.768-8.6799 38.832-7.4386 56.337z" fill="url(#linearGradient7218)"/></g><path d="m71.539 40.514c-3.0061 7.6003-3.9065 15.915-9.7356 22.793 11.702 8.9228 23.546 15.495 26.742 27.874 1.8287 7.0829-9.1658 23.405-16.429 36.175-7.9263 13.936-8.9093 37.098-7.7646 53.617 21.178 8.2964 42.765 15.941 66.048 1.1046 18.856-12.015 20.94-53.918 24.13-70.784 4.4044-23.288 9.8874-29.883 15.146-44.314" fill="none" stroke="#cdde87" stroke-dasharray="0.605, 1.21" stroke-linecap="square" stroke-width=".605"/><g fill="#ff2a2a" stroke="#000" stroke-linecap="square" stroke-width=".363"><path d="m113.01 69.004c1.315 0.32744 4.2811 1.4623 1.5081 4.2226 5.1919-0.35457 2.9986-6.9804-1.5081-4.2226z"/><path d="m117.6 79.728c1.315 0.32745 4.2811 1.4623 1.5081 4.2226 5.1919-0.3546 2.9986-6.9804-1.5081-4.2226z"/><path d="m122.39 91.642c1.3151 0.32744 4.2811 1.4623 1.5081 4.2226 5.1919-0.35458 2.9986-6.9803-1.5081-4.2226z"/><path d="m127.51 102.46c1.315 0.32745 4.2811 1.4623 1.5081 4.2226 5.1919-0.3546 2.9986-6.9804-1.5081-4.2226z"/><path d="m132.42 113.06c1.3151 0.32744 4.2811 1.4623 1.5081 4.2226 5.1919-0.35459 2.9986-6.9804-1.5081-4.2226z"/><path d="m137.24 124.78c1.315 0.32743 4.2811 1.4623 1.5081 4.2226 5.1919-0.35458 2.9986-6.9804-1.5081-4.2226z"/><path d="m141.8 135.11c1.315 0.32746 4.2811 1.4624 1.5081 4.2226 5.1919-0.35458 2.9986-6.9804-1.5081-4.2226z"/><path d="m146.86 146.69c1.3151 0.32745 4.2811 1.4623 1.5081 4.2226 5.1919-0.35458 2.9986-6.9803-1.5081-4.2226z"/><path d="m151.76 158.34c1.315 0.32744 4.2811 1.4623 1.5081 4.2226 5.1919-0.3546 2.9986-6.9804-1.5081-4.2226z"/><path d="m156.39 168.74c1.315 0.32745 4.2811 1.4624 1.5081 4.2226 5.1919-0.3546 2.9987-6.9804-1.5081-4.2226z"/></g><g stroke="#000" stroke-linecap="square"><path d="m105.68 204.23 9.5009-0.30162-1.6844-140.65-8.8977-0.15081z" fill="url(#linearGradient7277)" stroke-width=".363"/><g><path d="m106.61 204.09-0.64856-139.05 6.2916-0.15996 1.9712 139.13" fill="none" stroke-width=".242"/><path d="m126.87 121.55 2.6659 6.2383c0.14792 0.34614 1.9551 0.11592 1.5462-0.74646l-2.9325-6.185c-0.24782-0.52268-1.539 0.0862-1.2796 0.69315z" fill="#ff2a2a" stroke-width=".363"/><path d="m143.84 113.88 2.3044 6.3807c0.12787 0.35403 1.9453 0.22767 1.5865-0.6567l-2.5736-6.3427c-0.21748-0.536-1.5414-2e-3 -1.3172 0.61874z" fill="#ff2a2a" stroke-width=".363"/></g></g><path d="m106.11 82.914-0.14702-20.763 6.3019 0.78338 0.21327 20.581" fill="none" stroke="#cdde87" stroke-dasharray="0.847, 1.694" stroke-linecap="square" stroke-width=".847"/><path d="m108.9 64.337 0.51757 18.395" fill="none" stroke="#cdde87" stroke-dasharray="0.847, 1.694" stroke-linecap="square" stroke-width=".847"/><g stroke="#000" stroke-linecap="square"><path d="m106.63 64.479 47.215 108.6c1.4657 2.664 3.3619 4.3959 7.2296 4.4397-23.667-45.45-31.269-68.027-52.107-113.95z" fill="#ff2a2a" stroke-width=".363"/><path d="m116.36 62.218-9.5004 0.90514 47.441 109.36c1.4903 3.4269 4.6262 4.9984 6.9386 5.1283 1.552-1.4 2.5172-6.4461 1.054-9.8029zm-1.7228 7.1537c0.59759-0.18406 1.2804 0.3135 1.5243 1.1107 0.24338 0.79627-0.0433 1.5897-0.64045 1.7725-0.59759 0.18406-1.2804-0.3135-1.5243-1.1107-0.24339-0.79627 0.0433-1.5897 0.64045-1.7725zm4.9345 10.708c0.52432 0.02515 1.0273 0.49613 1.2266 1.1486 0.24338 0.79627-0.0433 1.5897-0.64044 1.7724-0.59704 0.18216-1.2782-0.31495-1.522-1.1107-0.24465-0.79719 0.0423-1.5923 0.64045-1.7748 0.0947-0.02858 0.19401-0.04048 0.2954-0.0354zm4.8258 11.764c0.52384 0.02471 1.0266 0.49457 1.2266 1.1462 0.24338 0.79627-0.0433 1.5897-0.64044 1.7724-0.59704 0.18216-1.2782-0.31494-1.522-1.1107-0.24339-0.79627 0.0433-1.5897 0.64045-1.7725 0.0947-0.02858 0.19401-0.04048 0.2954-0.0354zm5.126 10.855c0.52553 0.0242 1.0299 0.49663 1.2289 1.1509 0.24339 0.79628-0.0433 1.5897-0.64045 1.7725-0.5976 0.18407-1.2804-0.31348-1.5243-1.1107-0.24465-0.79719 0.0423-1.5923 0.64046-1.7748 0.0946-0.0294 0.19393-0.0421 0.2954-0.0377zm4.9014 10.559c0.52432 0.0251 1.0273 0.49614 1.2265 1.1486 0.2434 0.79533-0.0421 1.5883-0.63809 1.7725-0.59759 0.18406-1.2804-0.3135-1.5243-1.1108-0.24465-0.79719 0.0423-1.5923 0.64045-1.7748 0.0947-0.0286 0.19402-0.0405 0.29541-0.0354zm4.8258 11.764c0.52383 0.0247 1.0266 0.49457 1.2265 1.1462 0.2434 0.79533-0.0421 1.5883-0.63809 1.7725-0.59759 0.18405-1.2804-0.31351-1.5243-1.1108-0.24338-0.79627 0.0433-1.5897 0.64044-1.7724 0.0947-0.0286 0.19402-0.0405 0.29541-0.0354zm4.5989 10.328c0.52504 0.0238 1.0293 0.49507 1.2289 1.1485 0.2434 0.79628-0.0433 1.5897-0.64045 1.7725-0.59759 0.18406-1.2804-0.3135-1.5243-1.1108-0.24338-0.79627 0.0433-1.5897 0.64044-1.7724 0.0946-0.0294 0.19393-0.0421 0.29541-0.0377z" fill="url(#linearGradient7285)" stroke-width=".363"/><g><path d="m108.31 64.977 46.859 107.39c0.9648 2.2111 4.8798 4.5735 5.5799 4.2226 1.2599-0.63133 1.8634-6.5013 1.131-8.1814l-45.669-104.76" fill="none" stroke-width=".242"/><path d="m129.67 127.37c-0.0834 0.41233 0.0817 0.55626 1.2442-0.37702 1.8225-1.8325 14.089-7.4322 15.043-7.0503 2.3625-0.48979 1.4435-0.6442 1.4704-0.82944-4.0244-3.923-17.424 1.6062-17.758 8.2567z" fill="#f55" stroke-width=".363"/><path d="m213.88 55.859c-24.145 11.761 8.9069-15.66 12.477-22.287-1.4639 6.4409-6.8226 14.31-12.477 22.287z" fill="#ff2a2a" stroke-width=".363"/></g><path d="m208.34 58.952c10.826-13.705 18.11-21.292 20.688-29.325 5.4924-17.12 4.5942-22.407 1.2796-23.674-6.9533-2.656-15.861 2.1057-20.581 5.8651-12.592 10.028-25.837 17.354-44.574 20.154-13.5 2.0176-26.839-3.1504-41.269-14.396-13.713-10.688-29.906-10.655-32.738-6.3982-4.5234 7.6367-8.5624 15.576-15.249 21.861 38.746 15.143 108.19 49.376 132.44 25.913z" fill="url(#linearGradient9782)" stroke-width=".363"/></g><path d="m167.92 64.817c5.2079 0.56792 11.297 1.5379 19.297 0.77874 6.5139-0.61818 11.98-2.2531 15.969-4.0764 1.5301-0.69932 2.757-1.3908 3.6097-1.9834 1.9146-1.3307 4.3357-4.1764 6.276-7.3831 2.4507-4.0502 3.5141-7.8092 4.3282-8.9833-0.7774 1.1212-3.9827 3.2644-7.8511 5.4079-2.8974 1.6055-6.0156 3.0338-7.5295 4.086-0.74053 0.51468-1.64 1.2373-2.801 2.1276-2.9701 2.2776-7.0653 5.1744-12.789 7.3417-6.7077 2.5398-13.631 3.2162-18.509 2.6843z" fill="#f55"/><g stroke="#000" stroke-linecap="square"><g stroke-width=".363"><path d="m127.37 122.16 2.2621 5.0521c3.82-3.1444 15.422-8.0303 17.72-8.2944l-2.0359-5.0521c-2.6262 0.7156-13.815 5.687-17.946 8.2944z" fill="#ff8080"/><path d="m75.786 41.997c-4.0564 1.624-5.1565 3.0403-4.9586 5.3852 0.18006 2.1343 2.5442 3.3794 6.0783 2.6126l-0.15996-1.2667c-2.9544 0.36902-4.4144 0.30039-4.6231-1.368-0.27643-2.2099 0.36542-2.6841 4.1432-4.2434z" fill="#ffb380"/><path d="m75.786 32.292c-1.7582 12.326-2.5636 24.668 10.984 29.752 16.82 6.3121 33.26 1.408 53.425 0.53319 12.739-0.55267 25.215 9.0148 41.826 7.5176 11.665-1.0515 20.106-3.5161 31.967-13.169 1.1512-0.93685-0.0615-2.7766-2.0261-1.173-14.987 12.233-34.222 9.9459-49.8 4.0522-11.258-4.2594-29.402-35.987-44.681-40.522-10.254-3.0437-28.584 6.5808-41.695 13.01z" fill="#f55"/></g><path d="m76.764 32.654c-1.706 11.96-2.4874 23.935 10.657 28.868 16.321 6.1247 33.78 1.0646 53.347 0.21573 12.361-0.53626 25.22 9.1241 41.338 7.6713 11.318-1.0202 19.659-3.3363 31.169-12.703 1.117-0.90902 0.8452-2.0155-1.0611-0.45954-14.542 11.87-32.753 10.782-50.884 4.0827-10.955-4.0478-29.283-35.899-44.108-40.299-9.9498-2.9533-27.735 6.3854-40.457 12.623z" fill="url(#linearGradient9235)" stroke-width=".121"/><ellipse cx="75.15" cy="57.607" rx="2.3871" ry="2.2487" fill="#ffb380" stroke-width=".32016"/></g><path d="m63.688 61.422c11.702 8.9228 24.3 17.003 27.496 29.382 1.8287 7.0829-8.9396 24.611-16.203 37.382-7.9263 13.936-9.211 37.174-8.0662 53.693" fill="none" stroke="#cdde87" stroke-dasharray="0.605, 1.21" stroke-linecap="square" stroke-width=".605"/><path d="m60.43 65.457c-18.927 21.284-36.785 39.198-35.69 65.592 0.87294 21.043 12.787 40.553 35.584 51.283" fill="none" stroke="#cdde87" stroke-dasharray="0.605, 1.21" stroke-linecap="square" stroke-width=".605"/><path d="m60.563 67.948c0.86048 0.79026 3.6198 3.4562 5.8129 5.6877 1.886 1.9191 4.0492 4.2164 5.933 6.6109 1.8461 2.3467 3.3283 4.6616 4.2783 6.9258 0.49589 1.1819 0.81764 2.2811 0.99327 3.3072 0.19466 1.1372 0.20319 2.1452 0.09992 3.048-0.12608 1.0668-0.39946 2.0436-0.65429 2.8543-0.05961 0.18962-0.11894 0.3723-0.17557 0.54531-0.23594 0.72075-0.55125 1.5666-1.0076 2.5759-0.90338 1.998-2.1076 4.1055-3.978 7.0499-1.3457 2.1183-3.3896 5.1999-4.9759 7.877-1.59 2.6832-3.1264 5.6003-4.2247 8.6944-3.2781 8.8389-4.7664 18.145-5.2741 26.993-0.65198 11.362 0.35136 21.796 0.9107 27.619-0.56636-5.8966-1.0452-16.245 0.30354-27.512 1.0467-8.7436 3.143-17.687 6.8778-25.944 1.2807-2.7063 2.9605-5.2625 4.7184-7.6741 1.8968-2.6022 3.8732-5.0357 5.6033-7.3028 2.144-2.8094 3.7385-5.1244 4.9265-7.4141 0.61713-1.1894 1.0652-2.2637 1.3844-3.2388 0.07654-0.23383 0.15142-0.48491 0.2221-0.75134 0.30192-1.1382 0.54048-2.6053 0.47517-4.2553-0.05117-1.4318-0.33659-2.8965-0.87755-4.3836-0.48435-1.3315-1.1553-2.6314-1.9878-3.9055-1.5729-2.4073-3.6655-4.6344-5.9407-6.6965-2.3403-2.1211-4.8943-4.0811-7.0389-5.697-3.1008-2.3364-4.992-3.7161-6.4043-5.0131z" fill="#faa"/><path d="m61.468 69.305c-2.6855 3.2543-6.9243 8.8084-10.956 14.635-4.231 6.1144-7.5556 11.524-10.26 16.495-1.8 3.3094-2.9567 5.7373-3.8434 7.5236-0.78527 1.5822-1.7017 3.5022-2.5877 5.6276-1.4838 3.5594-2.8639 7.6434-3.5907 12.061-0.61926 3.7638-0.74768 7.6556-0.17866 11.711 0.55428 3.9505 1.7475 7.8944 3.6088 11.887 4.7977 10.292 13.438 19.402 20.116 25.474-6.6587-6.0542-15.662-14.801-21.1-24.982-2.1187-3.9666-3.6094-7.9649-4.4459-12.065-0.8605-4.2176-0.98578-8.3361-0.55139-12.371 0.50916-4.7289 1.7658-9.1105 3.2034-12.886 0.85877-2.2555 1.7747-4.2722 2.5899-5.9147 0.88642-1.786 2.3442-4.335 4.4249-7.4828 3.1698-4.7956 7.0906-9.9505 11.795-15.696 4.4902-5.4845 9.1238-10.804 11.775-14.017z" fill="#ff8080"/><path d="m77.445 33.404c-1.5824 11.093-1.774 22.628 10.418 27.203 15.138 5.6809 34.466 0.68073 52.615-0.10663 11.465-0.4974 26.16 9.0731 41.109 7.7255 10.498-0.94631 19.108-3.0579 29.037-10.146 1.0872-0.77614 0.31795-0.47285-1.4503 0.97039-13.489 11.01-35.119 7.3517-49.139 2.0474-10.132-3.8335-29.288-36.174-43.039-40.256-9.229-2.7393-27.751 6.7758-39.552 12.562z" fill="none" stroke="#cdde87" stroke-dasharray="0.605, 1.21" stroke-linecap="square" stroke-width=".605"/><path d="m175.87 74.172c6.691 3.6753 13.177 7.7833 20.812 8.219 10.93 0.62392 25.097-5.0909 28.111-8.9388 8.2418-10.52 2.8589-23.393-0.18851-28.691" fill="none" stroke="#cdde87" stroke-dasharray="0.605, 1.21" stroke-linecap="square" stroke-width=".605"/><path d="m192.02 77.72c3.0355 0.35454 7.8626 1.0507 13.77 0.72888 5.2167-0.28415 9.0996-1.292 11.419-2.3001 0.40264-0.175 0.86305-0.39492 1.3584-0.66012 1.4788-0.79173 3.2358-1.9678 4.8021-3.5938 1.306-1.3558 2.3916-2.9321 3.1426-4.7427 0.76806-1.8515 1.1183-3.7819 1.1453-5.7539 0.0361-2.6348-0.50825-5.0317-0.98087-6.8186 0.4731 1.7887 0.83691 4.2347 0.53451 6.7895-0.22634 1.9122-0.7988 3.6819-1.7256 5.2783-0.90221 1.5539-2.0723 2.8279-3.3758 3.884-1.5686 1.2709-3.2431 2.1555-4.6248 2.7977-0.46182 0.21463-0.88993 0.40163-1.2575 0.56138-2.221 0.96536-5.4392 2.3289-10.588 3.2375-5.5265 0.97517-10.738 0.92861-13.62 0.59202z" fill="#faa"/><ellipse cx="79.945" cy="35.23" rx="2.7522" ry="2.5072" fill="#ffb380" stroke="#000" stroke-linecap="square" stroke-width=".363"/><g><path d="m175.1 71.718c4.9194-0.23016 11.393-0.43376 17.985-1.4954 6.2103-1.0002 10.246-2.4473 12.536-3.6087 0.0936-0.04746 0.19053-0.09771 0.29053-0.15072 2.5196-1.3355 5.5762-3.6023 8.2329-7.0065 2.65-3.3956 4.1389-6.9023 5.1426-9.078-0.99636 2.1597-2.9872 5.4833-5.928 8.38-2.9934 2.9486-6.0105 4.5822-8.4308 5.8096-0.094 0.04765-0.18027 0.09135-0.27421 0.13899-2.2064 1.119-5.6959 2.9045-11.789 4.4503-6.177 1.567-13.059 2.3403-17.765 2.5605z" fill="#ff8080"/><path d="m159.92 58.099c5.502 0.97925 12.334 2.0425 20.782 0.63461 5.6177-0.93628 10.21-2.7344 12.771-4.0493 1.3622-0.69947 3.0819-1.7012 5.0572-3.0357 4.8068-3.2472 9.5208-7.3471 14.765-12.452 5.6782-5.528 10.88-10.982 13.808-13.622-2.0306 1.8308-9.5382 8.3443-14.77 12.533-5.7542 4.6072-10.609 7.9988-15.507 10.814-1.999 1.1492-3.6375 1.9921-4.9441 2.663-2.4497 1.2579-6.4268 3.4634-11.666 5.07-3.5643 1.0931-7.2274 1.76-11.006 1.9566-3.7272 0.19383-7.011-0.10717-9.289-0.51261z" fill="#faa"/><path d="m211.11 45.516c1.5799-2.2564 7.0882-8.4701 8.8734-10.584 1.7031-2.0165 6.6048-8.2778 8.4018-10.21-1.797 1.9326-7.492 7.5057-9.2041 9.5329-1.7946 2.1249-6.4913 9.005-8.0712 11.261z" fill="#ffd5d5"/></g><path d="m70.064 39.445c2.7222-10.541 11.921-19.006 16.815-27.975" fill="none" stroke="#cdde87" stroke-dasharray="0.484, 0.968" stroke-linecap="square" stroke-width=".484"/><g fill="#ffe6d5"><path d="m74.437 55.94c0.36392-0.01578 0.8294 0.23988 1.1002 0.59881 0.15946 0.21132 0.22233 0.40622 0.2869 0.48696 0.0507 0.06339 0.13417 0.14268 0.2246 0.25205 0.16492 0.19944 0.33454 0.4825 0.37303 0.86082 0.0466 0.45809-0.12757 0.878-0.34472 1.1003 0.20997-0.21494 0.5528-0.50573 0.75968-1.0324 0.1728-0.43989 0.18979-0.91154 0.06953-1.3283-0.06481-0.2246-0.16137-0.40262-0.25224-0.51623-0.12046-0.15061-0.39915-0.32742-0.76022-0.42245-0.64322-0.16929-1.0738-0.01618-1.4568 4.34e-4z"/><path d="m78.744 33.451c0.48678-0.01687 1.1514 0.28529 1.5683 0.7132 0.24639 0.25287 0.35356 0.48545 0.44074 0.57256 0.06846 0.06839 0.17442 0.14745 0.28614 0.25204 0.1984 0.18575 0.41509 0.45645 0.45613 0.8549 0.05095 0.49466-0.20406 0.97355-0.50431 1.2192 0.27862-0.22792 0.74461-0.53752 1.0088-1.1158 0.22773-0.49845 0.22995-1.0519 0.0403-1.5419-0.10101-0.26097-0.24206-0.4641-0.36718-0.58912-0.16726-0.16711-0.52854-0.3413-0.99392-0.42312-0.85214-0.14983-1.3817 0.0389-1.935 0.05808z"/><path d="m74.437 43.083c-0.34908 0.1535-1.3326 0.49591-1.5764 0.68581-0.14156 0.11024-0.30411 0.25235-0.46494 0.42457-0.20385 0.21828-0.39658 0.47584-0.54956 0.77447-0.13159 0.25686-0.22749 0.53178-0.28194 0.8248-0.1061 0.571-0.04372 1.1496 0.12658 1.7172 0.21868 0.72885 0.59574 1.37 0.84237 1.7751-0.24802-0.40737-0.5847-1.0688-0.74296-1.8008-0.12325-0.57008-0.12609-1.1207 0.01855-1.6351 0.07392-0.26287 0.1826-0.50313 0.31845-0.7239 0.15806-0.25685 0.34641-0.47673 0.54066-0.66602 0.15358-0.14965 0.3057-0.27514 0.43673-0.37718 0.22528-0.17544 0.98344-0.84554 1.3325-0.99903z"/></g></svg>
