<svg cursor="default" version="1.1" viewBox="0 0 256 256" xmlns="http://www.w3.org/2000/svg" xmlns:xlink="http://www.w3.org/1999/xlink">
 <defs>
  <linearGradient id="linearGradient879" x1="194.1" x2="221.08" y1="65.831" y2="32.678" gradientUnits="userSpaceOnUse">
   <stop stop-color="#f95" offset="0"/>
   <stop stop-color="#ffb380" offset="1"/>
  </linearGradient>
  <linearGradient id="linearGradient887" x1="212.14" x2="217.97" y1="36.814" y2="42.373" gradientUnits="userSpaceOnUse">
   <stop stop-color="#ffe680" offset="0"/>
   <stop stop-color="#fd5" offset=".40046"/>
   <stop stop-color="#ffe680" offset="1"/>
  </linearGradient>
  <linearGradient id="linearGradient959" x1="110.07" x2="99.522" y1="165.68" y2="155.33" gradientUnits="userSpaceOnUse">
   <stop stop-color="#ffb380" offset="0"/>
   <stop stop-color="#fca" offset="1"/>
  </linearGradient>
  <linearGradient id="linearGradient967" x1="153.6" x2="132.89" y1="137.88" y2="121.96" gradientUnits="userSpaceOnUse">
   <stop stop-color="#f95" offset="0"/>
   <stop stop-color="#ffb380" offset="1"/>
  </linearGradient>
  <linearGradient id="linearGradient977" x1="26.846" x2="18.217" y1="245.07" y2="235.48" gradientUnits="userSpaceOnUse" xlink:href="#linearGradient879"/>
 </defs>
 <g>
  <g stroke-width=".5">
   <g stroke="#000" stroke-linejoin="round">
    <ellipse cx="182.16" cy="65.546" rx="5.1544" ry="5.3794" fill="#faa" stroke-linecap="round" style="paint-order:stroke fill markers"/>
    <g>
     <path d="m192.33 76.904s-13.073 10.025-17.926 15.274c-11.319 12.241-43.017 45.562-72.519 75.905s-53.931 52.917-70.991 62.757c-4.1312 2.3828-10.711 3.0045-16.485 2.9971 0 0 29.167-21.742 61.265-54.191 31.528-31.872 70.784-70.644 95.945-100.7l4.8976 0.63491 6.7211-4.5388 13.936-1.2894z" fill="#faa"/>
     <path d="m192.33 76.904s-4.3484-1.009-13.047 5.364c-2.1252 1.557-5.5428 3.4228-11.294 9.1681-5.7508 5.7453-36.191 38.287-36.191 38.287s-65.706 72.499-99.307 95.332c-2.8136 1.836-6.8413 4.0497-12.384 4.3503 29.588-22.57 56.786-50.855 82.843-77.146 24.49-24.344 59.545-62.53 59.545-62.53l9.1222-10.778 4.8976 0.63491 6.7211-4.5388 13.936-1.2894z" fill="#ffb380"/>
     <path d="m200.91 66.758s-2.2441-7.6208 6.7324-10.843c0 0 10.91-10.797 16.187-16.489 4.2151-4.5464 12.499-13.858 12.499-13.858l2.6686-12.843s-3.7672 0.13675-11.124 6.5792c-8.8465 7.7472-17.818 17.491-31.387 33.229l-0.39535 9.6191z" fill="url(#linearGradient887)"/>
    </g>
    <g>
     <path d="m189.49 58.188 5.8573-5.7148 4.9273-0.03647s15.454-15.625 22.994-23.633c4.0882-4.3422 6.6225-7.7024 12.161-9.4093 1.0186-0.31392 3.7331-6.1963 3.6632-7.5822l2.4207-1.2098c1.8051-0.90214 4.2598 0.25788 4.1899 4.4884 0 0-0.0133 4.4744-5.5213 8.3882l-3.2848 2.3341s-4.9831-2.617-6.7554-0.76695l-22.278 23.256c-1.9846 2.0717 1.0773 7.8938 1.0773 7.8938l-1.5026 1.2374s-4.4767-3.934-7.7484-0.136c-4.0669 4.7212 1.8843 9.332 1.8843 9.332l-1.3696 1.7086z" fill="url(#linearGradient879)" stroke-linecap="round"/>
     <path d="m184.88 58.534 1.0466-1.2388 11.74 11.717-2.7181 2.8883-19.417 0.26838 0.0374-1.7126s12.759 0.4777 15.377-1.8052l1.6308-1.8568z" fill="#f95" stroke-linecap="round" stroke-width="1" style="paint-order:stroke fill markers"/>
     <path d="m185.93 57.295-0.6837-4.5315 0.45779-1.713 3.7876 6.4151 16.159 16.188-4.6692-1.5983z" fill="#ffb380"/>
     <path d="m170.43 78.987 5.888-6.5192 18.631-0.56734 2.7181-2.8883 3.3111 3.043-1.6803 1.5989-2.1251 0.10316-13.936 1.2894-6.7211 4.5388z" fill="#ffe680"/>
    </g>
   </g>
   <g stroke="#faa" stroke-linecap="round">
    <path d="m176.61 74.067 4.349 0.10316" fill="none" stroke-linejoin="round"/>
    <path d="m175.63 75.666 3.5582 0.05158" fill="none"/>
    <path d="m174.04 77.265 3.2617 0.10316" fill="#f55"/>
   </g>
   <g stroke="#000" stroke-linejoin="round">
    <path d="m175.57 70.456s11.967 0.46419 15.377-1.8052l1.6308-1.8568-7.6721-8.0283s0.0715 4.4227-2.092 6.6076c-2.8256 2.8536-7.0891 2.7252-7.0891 2.7252z" fill="#ffe680"/>
    <ellipse cx="194.97" cy="58.181" rx="1.5463" ry="1.6138" fill="#faa" stroke-linecap="round" style="paint-order:stroke fill markers"/>
    <path d="m182.69 67.413s1.6493-1.1429 2.477-2.8581c0.26219-0.54331 0.83415-2.6091 0.83415-2.6091l4.7443 4.8482s-0.64627 0.69047-0.95646 0.89191c-1.8333 0.78974-3.384 1.0686-5.4586 1.0409-0.70443-0.21072-1.6404-1.3139-1.6404-1.3139z" fill="#faa"/>
    <path d="m194.77 53.108-1.2288-0.63969-3.945 2.2959 0.96085 2.3168z" fill="#ffe680"/>
   </g>
   <text transform="matrix(.64521 -.76653 .76672 .63899 0 0)" x="39.56348" y="186.94763" fill="#ffe680" font-family="sans-serif" font-size="4.6582px" letter-spacing="0px" stroke="#ffe680" word-spacing="0px" style="line-height:1.25" xml:space="preserve"><tspan x="39.56348" y="186.94763" fill="#ffe680" stroke="#ffe680" stroke-width=".5">村正</tspan></text>
  </g>
  <g fill="#fff">
   <path d="m194.26 57.012c0.31984-0.0654 0.73639-0.0238 1.0174 0.16889 0.21989 0.15076 0.29117 0.34529 0.34088 0.42743 0.013 0.02147 0.0298 0.04671 0.0489 0.07671 0.0919 0.14444 0.19935 0.35204 0.23711 0.67865 0.0398 0.34432-0.0206 0.66878-0.0972 0.83608 0.0803-0.17541 0.23701-0.43735 0.32463-0.82162 0.0791-0.34691 0.065-0.66192-0.0256-0.90158-0.019-0.05018-0.0399-0.09282-0.0605-0.12693-0.0921-0.15215-0.31796-0.35012-0.66552-0.42407-0.41147-0.08755-0.80572 0.02213-1.1202 0.08644z"/>
   <path d="m183.94 61.222c-0.22812-0.03446-0.84363-0.57325-1.0577-0.58139-0.46756-0.01779-1.0742 0.01816-1.6987 0.18347-0.72976 0.19317-1.377 0.53328-1.9125 1.0279-0.50382 0.46528-0.84689 1.0094-1.092 1.5479-0.31055 0.68235-0.46861 1.3785-0.56712 1.7532 0.10251-0.38987 0.34233-1.0353 0.75538-1.6483 0.3214-0.47692 0.72576-0.90388 1.2344-1.23 0.53327-0.34193 1.1214-0.53546 1.7534-0.62584 0.54997-0.07866 1.0686-0.07041 1.4909-0.05435 0.1909 0.0073 0.86586-0.40703 1.094-0.37257z"/>
   <path d="m186.34 63.571c0.0574 0.04102 0.14183 0.16069 0.25652 0.33144 0.0925 0.13775 0.20198 0.3047 0.30768 0.45344 0.0843 0.11867 0.1648 0.22356 0.22661 0.2841 0.13571 0.13292 0.40193 0.36424 0.69785 0.62022 0.30632 0.26498 0.71112 0.61352 1.0044 0.86367 0.37282 0.31795 0.67824 0.57052 0.76679 0.65907-0.10698-0.10698-0.31659-0.38035-0.63482-0.78578-0.2579-0.32856-0.5502-0.69708-0.83101-1.0358-0.25855-0.31192-0.47853-0.56357-0.62524-0.70726-0.063-0.06165-0.17194-0.14126-0.29716-0.22172-0.16056-0.10315-0.3322-0.19816-0.48802-0.27561-0.18586-0.09236-0.32655-0.14491-0.38364-0.18572z"/>
  </g>
 </g>
 <g stroke="#000" stroke-width=".50001">
  <path d="m170.06 80.301-40.816 44.057 6.7096 1.2035 37.986-39.17 4.8575-0.21883 9.7149-7.7318 5.3816-0.18236 2.7957-2.6624-22.26 0.21883z" fill="#ffe680"/>
  <path d="m40.048 226.17s44.627-38.684 56.982-52.713l-6.0293-3.1978-54.956 50.547z" fill="#ffe680"/>
  <path d="m175.41 72.469 18.978-0.41263 4.8433 2.2694-0.98842 1.0316-14.53 1.0316-4.378 2.4934s-3.1121 3.1374-9.6575 0.80755z" fill="#ffb380"/>
 </g>
 <g stroke="#000" stroke-width=".50001">
  <path d="m192.68 78.257s-20.627 16.914-41.472 39.401c-20.748 22.382-44.288 48.065-53.085 55.905l-6.5235-0.2063s-39.537 39.509-51.99 48.071l0.42835 5.8518-7.4085 6.273-7.0591-2.2612-1.1881 1.24-5.5913-2.8448s57.983-48.386 108.88-105.54l8.2867 1.4099 37.986-39.17 4.8575-0.21883 9.7149-7.7318z" fill="url(#linearGradient959)"/>
  <path d="m18.785 229.69-8.387 7.3671 6.9193 8.5343 14.468-12.181-6.2203-2.1153-1.1881 1.24z" fill="url(#linearGradient977)"/>
  <path d="m131.52 124.87-5.2419 5.6165 2.4462 11.452 29.355-31.511 15.516-15.318 14.048-12.619 5.0322-4.2307-4.1585 0.18236-9.7149 7.7318-4.8575 0.21883-37.986 39.17z" fill="url(#linearGradient967)"/>
 </g>
</svg>
