<svg cursor="default" version="1.1" viewBox="0 0 256 256" xmlns="http://www.w3.org/2000/svg" xmlns:xlink="http://www.w3.org/1999/xlink">
 <defs>
  <linearGradient id="linearGradient889-1" x1="-117.99" x2="-141.15" y1="73.182" y2="45.114" gradientTransform="matrix(.61697 -.088542 .088542 .61697 261.29 23.497)" gradientUnits="userSpaceOnUse">
   <stop stop-color="#f95" offset="0"/>
   <stop stop-color="#fca" offset="1"/>
  </linearGradient>
  <linearGradient id="linearGradient1005" x1="338.65" x2="329.22" y1="225.18" y2="216.95" gradientTransform="matrix(.6233 0 0 .6233 -133.06 60.147)" gradientUnits="userSpaceOnUse">
   <stop stop-color="#fd5" offset="0"/>
   <stop stop-color="#ffe680" offset="1"/>
  </linearGradient>
 </defs>
 <g stroke="#000" stroke-linejoin="bevel">
  <path d="m118.84 152.37c19.361-21.795 50.037-47.549 66.058-65.605 17.611-19.848 50.246-56.183 52.301-58.661 3.5822-4.3219 3.9523-7.6419 1.8299-10.066-3.1038-3.5449-7.2355-7.1525-10.571-9.2979-2.665-1.714-6.197 0.22712-9.4317 4.0005-1.5212 1.7746-33.772 39.358-51.009 59.666-14.669 17.283-38.033 52.74-55.657 74.661-0.5254 3.0767 1.3986 7.4818 6.4815 5.3026z" fill="url(#linearGradient889-1)" stroke-width=".62329"/>
  <path d="m113.84 145.21c1.2831 2.859 4.8161 5.2346 6.5087 5.5391l-2.8904 3.0295-6.0703-5.3141z" fill="#ff8080" stroke-width=".62329"/>
  <path d="m39.292 248.15c-6.6724 0.30786-9.7146-4.0128-12.006-9.2911 6.5931-3.6029 11.569-8.3929 16.521-13.896 20.52-22.802 43.724-47.708 68.552-77.893 0.1548 2.2669 5.1217 6.0662 6.4815 5.3026-26.161 30.41-47.677 54.373-67.769 78.201-4.8926 5.8022-10.453 13.26-11.779 17.576z" fill="url(#linearGradient1005)" stroke-width=".623"/>
  <path d="m30.827 236.81c-1.3194-0.78554-4.498 0.27407-4.782 2.4371-0.48024 3.6586 7.5038 12.238 13.318 10.767 1.8663-0.47222 2.8795-4.0165 1.1719-4.4547-0.84568 2.9439-5.6361 0.86037-7.8686-1.0985-3.0527-2.6783-4.4925-5.7336-1.8392-7.6511z" fill="#fd5" stroke-width=".62329"/>
 </g>
 <g fill="none" stroke="#000" stroke-linejoin="bevel" stroke-width=".31165">
  <path d="m41.084 243.85c-4.6206-3.6835-6.2542-9.7261-5.1382-10.821"/>
  <path d="m49.451 232.14c-3.5947-3.0385-5.0715-6.8017-3.9442-8.9641"/>
  <path d="m59.422 220.89c-4.2173-3.8161-4.4888-6.556-4.3028-8.6653"/>
  <path d="m68.984 209.71c-2.5698-1.5708-3.5032-5.1524-3.8247-8.5458"/>
  <path d="m78.819 198.46c-1.9263-2.1352-3.9457-5.7972-3.0478-8.9641"/>
  <path d="m88.5 187.46c-2.4655-1.7634-3.6454-5.5777-3.4064-8.3665"/>
  <path d="m98.412 176.09c-1.8605-1.2202-3.8221-2.9829-3.9442-7.8287"/>
  <path d="m107.5 165.27c-1.8799-1.1269-4.4626-4.8243-3.8247-7.7092"/>
 </g>
 <path d="m147.53 102.92c3.4979-4.5569 10.131-12.803 20.218-24.888 7.65-9.1648 16.253-19.296 24.556-28.895 9.3401-10.798 16.513-18.861 21.773-24.636 2.6668-2.928 4.5308-4.9279 5.8957-6.3931 0.42011-0.45098 0.97339-1.1499 1.5329-1.8966 0.80258-1.0709 1.5605-2.1601 2.1439-3.0034 0.29718-0.42953 0.54929-0.7952 0.74769-1.0697 0.26885-0.37193 0.4518-0.59447 0.59024-0.68914-0.13751 0.09404-0.40545 0.20666-0.81937 0.42294-0.31571 0.16496-0.69443 0.37749-1.1554 0.66674-0.90382 0.56708-1.972 1.3367-3.0341 2.2115-0.73173 0.60274-1.399 1.2067-1.8245 1.6635-1.3547 1.4542-3.2427 3.557-5.8278 6.5289-5.0085 5.7578-12.245 14.336-21.193 25.206-8.1034 9.8448-16.403 20.105-23.869 29.489-10.205 12.826-15.845 20.215-19.734 25.282z" fill="#fff"/>
</svg>
