<svg cursor="default" version="1.1" viewBox="0 0 256 256" xmlns="http://www.w3.org/2000/svg">
 <defs>
  <linearGradient id="linearGradient889-1" x1="-120.95" x2="-139.39" y1="72.136" y2="44.746" gradientTransform="matrix(.61697 -.088542 .088542 .61697 261.29 23.497)" gradientUnits="userSpaceOnUse">
   <stop stop-color="#f95" offset="0"/>
   <stop stop-color="#ffb380" offset="1"/>
  </linearGradient>
  <linearGradient id="linearGradient1005" x1="343.92" x2="331.92" y1="229.31" y2="216.39" gradientTransform="matrix(.6233 0 0 .6233 -133.06 60.147)" gradientUnits="userSpaceOnUse">
   <stop stop-color="#fd5" offset="0"/>
   <stop stop-color="#ffe680" offset="1"/>
  </linearGradient>
 </defs>
 <g stroke="#000" stroke-linejoin="bevel">
  <path d="m118.84 152.37c19.361-21.795 50.037-47.549 66.058-65.605 17.611-19.848 50.246-56.183 52.301-58.661 3.5822-4.3219 3.9523-7.6419 1.8299-10.066-3.1038-3.5449-7.2355-7.1525-10.571-9.2979-2.665-1.714-6.197 0.22712-9.4317 4.0005-1.5212 1.7746-33.772 39.358-51.009 59.666-14.669 17.283-38.033 52.74-55.657 74.661-0.5254 3.0767 1.3986 7.4818 6.4815 5.3026z" fill="url(#linearGradient889-1)" stroke-width=".62329"/>
  <path d="m113.84 145.21c1.2831 2.859 4.8161 5.2346 6.5087 5.5391l-2.8904 3.0295-6.0703-5.3141z" fill="#ff8080" stroke-width=".62329"/>
  <path d="m39.292 248.15c-6.6724 0.30786-9.7146-4.0128-12.006-9.2911 6.5931-3.6029 11.569-8.3929 16.521-13.896 20.52-22.802 43.724-47.708 68.552-77.893 0.1548 2.2669 5.1217 6.0662 6.4815 5.3026-26.161 30.41-47.677 54.373-67.769 78.201-4.8926 5.8022-10.453 13.26-11.779 17.576z" fill="url(#linearGradient1005)" stroke-width=".623"/>
  <path d="m30.827 236.81c-1.3194-0.78554-4.498 0.27407-4.782 2.4371-0.48024 3.6586 7.5038 12.238 13.318 10.767 1.8663-0.47222 2.8795-4.0165 1.1719-4.4547-0.84568 2.9439-5.6361 0.86037-7.8686-1.0985-3.0527-2.6783-4.4925-5.7336-1.8392-7.6511z" fill="#fd5" stroke-width=".62329"/>
 </g>
 <path d="m224.22 12.383c-1.6567 1.7742-5.9579 7.7536-7.6044 9.5632-9.5563 10.503-21.462 23.664-38.525 43.834-15.405 18.21-30.122 36.411-37.599 45.87 7.6544-9.6831 21.667-27.71 36.915-46.437 16.087-19.758 28.962-34.645 37.894-44.462 1.6494-1.8129 7.2622-6.593 8.9189-8.3672z" fill="#ffe6d5" opacity=".4"/>
 <path d="m228.24 15.59c-8.2455 9.3918-23.572 26.65-34.576 39.083-12.152 13.731-21.118 23.925-28.158 32.065-2.4372 2.818-4.4852 5.2081-6.0326 7.0398-4.146 4.9078-10.851 13.2-19.324 23.66-8.4387 10.417-17.641 21.733-23.753 29.018 5.67-6.7586 16.076-18.858 24.395-28.481 8.1174-9.3901 16.495-19.013 19.961-23.117 1.5562-1.8421 3.5539-4.2344 5.948-7.106 7.0633-8.4717 15.393-18.484 27.451-32.656 11.649-13.691 24.936-29.081 34.089-39.506z" fill="#ffe6d5" opacity=".4"/>
 <path d="m228.09 23.855c-2.6851 2.9402-8.2039 8.8033-13.787 14.823-5.6674 6.1099-11.125 12.067-13.96 15.283-5.5651 6.3132-14.631 16.877-24.929 29.016-9.792 11.542-19.161 22.689-23.767 28.059 4.4868-5.2306 14.244-16.382 24.207-27.678 7.8231-8.87 17.539-19.757 25.362-28.627 2.7527-3.1227 8.1559-9.4531 13.521-15.665 5.5147-6.3846 10.53-12.119 13.354-15.21z" fill="#fca" opacity=".4"/>
 <path d="m217.65 43.636c-2.7098 3.3443-7.4462 8.9153-12.098 14.263-4.534 5.2118-8.6082 9.7628-10.522 11.996-3.6663 4.2787-7.9158 9.182-12.461 14.254-8.11 9.0497-14.8 16.011-21.917 23.003-6.1956 6.0859-11.95 11.467-17.904 17.408-8.4093 8.392-15.431 16.094-22.463 24.093 6.9172-7.8686 14.266-15.746 22.677-23.875 6.0437-5.8414 11.903-11.099 18.212-17.085 7.2229-6.8532 14.08-13.791 22.254-22.768 4.5759-5.026 8.8921-9.9589 12.545-14.222 1.9788-2.3094 5.6634-6.8738 10.056-12.407 4.2976-5.4127 9.0783-11.521 11.621-14.66z" fill="#fca" opacity=".4"/>
 <path d="m223 10.787c0.5142 0.56108 1.478 1.8989 2.6152 3.3329 1.1527 1.4536 2.3835 2.9057 3.103 3.5712 0.32747 0.30291 0.78563 0.68935 1.3291 1.1237 1.2682 1.0136 2.8476 2.1692 4.3539 3.1987 1.6912 1.1559 3.0602 1.9715 3.6586 2.3989-0.60711-0.43365-1.7185-1.4795-3.1913-2.9609-1.2427-1.25-2.6495-2.7252-3.7363-3.8366-0.48066-0.49149-0.90048-0.91189-1.2236-1.2107-0.66068-0.61113-2.2748-1.8204-3.6768-2.9072-1.468-1.1379-2.7095-2.14-3.2318-2.71z" fill="#f95" opacity=".4"/>
 <path d="m224.01 10.069c0.14466-0.1222 0.37264-0.21638 0.68821-0.21446 0.23652 0.00144 0.51191 0.056061 0.83314 0.17361 0.57976 0.21216 1.2646 0.61318 2.029 1.1656 1.3822 0.99888 2.513 2.0954 3.3657 2.8139 0.41495 0.34965 0.98897 0.81776 1.6475 1.386 1.5686 1.3537 3.3225 3.0306 4.5528 4.6402 0.58233 0.7619 0.96814 1.4095 1.1655 1.934 0.11371 0.30212 0.16186 0.5549 0.15867 0.76671-4e-3 0.2764-0.0963 0.4725-0.21734 0.60144 0.11738-0.12506 0.24636-0.30332 0.31435-0.58894 0.0528-0.22186 0.0667-0.4999 0.0177-0.84771-0.0852-0.60481-0.35242-1.3611-0.82172-2.257-0.97271-1.857-2.583-3.8832-4.0548-5.4205-0.62986-0.65786-1.1954-1.1861-1.6329-1.5548-0.81489-0.68668-2.3832-1.7361-3.971-2.4113-0.93754-0.39865-1.7767-0.62318-2.4702-0.65693-0.38349-0.018664-0.69208 0.022358-0.94054 0.098714-0.32599 0.10019-0.52483 0.25396-0.66402 0.37154z" fill="#ff7f2a" opacity=".4"/>
 <g fill="none" stroke="#000" stroke-linejoin="bevel" stroke-width=".31165">
  <path d="m41.084 243.85c-4.6206-3.6835-6.2542-9.7261-5.1382-10.821"/>
  <path d="m49.451 232.14c-3.5947-3.0385-5.0715-6.8017-3.9442-8.9641"/>
  <path d="m59.422 220.89c-4.2173-3.8161-4.4888-6.556-4.3028-8.6653"/>
  <path d="m68.984 209.71c-2.5698-1.5708-3.5032-5.1524-3.8247-8.5458"/>
  <path d="m78.819 198.46c-1.9263-2.1352-3.9457-5.7972-3.0478-8.9641"/>
  <path d="m88.5 187.46c-2.4655-1.7634-3.6454-5.5777-3.4064-8.3665"/>
  <path d="m98.412 176.09c-1.8605-1.2202-3.8221-2.9829-3.9442-7.8287"/>
  <path d="m107.5 165.27c-1.8799-1.1269-4.4626-4.8243-3.8247-7.7092"/>
 </g>
 <path d="m223.9 16.817c-5.9277 6.3484-15.547 17.059-26.071 29.267-11.361 13.178-18.714 22.154-24.995 29.648-2.9085 3.4703-8.8768 10.324-14.891 17.394-6.1559 7.2367-11.946 14.192-15.086 18.163 2.9848-3.776 8.7474-11.35 14.444-18.685 5.8463-7.5279 11.2-14.278 14.265-17.935 5.4826-6.5416 14.772-17.184 25.644-29.134 11.72-12.883 19.884-21.429 26.691-28.719z" fill="#f95" opacity=".4"/>
 <path d="m231.76 15.805c-3.9737 4.5261-11.657 13.379-18.127 20.839-6.5671 7.5712-12.408 14.311-15.12 17.392-14.473 16.441-14.849 16.821-29.322 33.262-8.9746 10.223-17.064 19.53-26.218 30.223-8.895 10.391-17.724 20.847-24.207 28.575 6.5726-7.8346 15.181-18.112 24.109-28.659 9.0931-10.741 17.12-20.112 26.029-30.389 10.017-11.554 21.95-25.161 29.188-33.382 2.7676-3.1439 8.6022-9.6647 15.33-17.206 6.7929-7.6146 14.147-15.88 18.338-20.654z" fill="#f95" opacity=".4"/>
 <path d="m233.53 20.81c-2.3204 2.7874-7.3285 8.3531-12.513 14.088-5.0631 5.6004-10.652 11.749-13.131 14.662-5.1017 5.9961-15.306 18.358-25.772 30.504-11.142 12.932-20.387 23.106-26.371 29.269 7.0713-7.2832 14.555-14.82 27.227-28.504 11.075-11.961 21.447-23.649 26.664-29.781 2.6779-3.1473 7.4413-9.2111 12.262-15.412 4.7446-6.1032 9.3148-12.04 11.633-14.825z" fill="#ff7f2a" opacity=".4"/>
 <path d="m220.02 43.276c-2.7098 3.3443-7.4462 8.9153-12.098 14.263-4.534 5.2118-8.6082 9.7628-10.522 11.996-3.6663 4.2787-7.9158 9.182-12.461 14.254-8.11 9.0497-14.8 16.011-21.917 23.003-6.1956 6.0859-11.95 11.467-17.904 17.408-8.4093 8.392-15.431 16.094-22.463 24.093 6.9172-7.8686 14.266-15.746 22.677-23.875 6.0437-5.8414 11.903-11.099 18.212-17.085 7.2229-6.8532 14.08-13.791 22.254-22.768 4.5759-5.026 8.8921-9.9589 12.545-14.222 1.9788-2.3094 5.6634-6.8738 10.056-12.407 4.2976-5.4127 9.0783-11.521 11.621-14.66z" fill="#ff7f2a" opacity=".4"/>
</svg>
