<?xml version="1.0" encoding="UTF-8"?>
<svg cursor="default" version="1.1" viewBox="0 0 256 256" xmlns="http://www.w3.org/2000/svg" xmlns:xlink="http://www.w3.org/1999/xlink">
 <defs>
  <linearGradient id="linearGradient905">
   <stop stop-color="#917c6f" offset="0"/>
   <stop stop-color="#ac9d93" offset="1"/>
  </linearGradient>
  <linearGradient id="innoGrad3">
   <stop stop-color="#f95" offset="0"/>
   <stop stop-color="#ffb380" offset="1"/>
  </linearGradient>
  <linearGradient id="linearGradient2658" x1="-76.835" x2="-76.582" y1="52.517" y2="46.267" gradientTransform="matrix(-.63734 .64164 .64164 .63734 138.45 57.847)" gradientUnits="userSpaceOnUse" xlink:href="#innoGrad3"/>
  <linearGradient id="linearGradient2668" x1="-26.696" x2="-26.429" y1="51.804" y2="46.536" gradientTransform="matrix(-.63734 .64164 .64164 .63734 138.45 57.847)" gradientUnits="userSpaceOnUse" xlink:href="#innoGrad3"/>
  <linearGradient id="linearGradient2678" x1="87.378" x2="87.631" y1="53.086" y2="45.636" gradientTransform="matrix(-.63734 .64164 .64164 .63734 138.45 57.847)" gradientUnits="userSpaceOnUse">
   <stop stop-color="#f55" offset="0"/>
   <stop stop-color="#ff8080" offset="1"/>
  </linearGradient>
  <linearGradient id="linearGradient2716" x1="82.143" x2="86.786" y1="207.07" y2="201.89" gradientTransform="matrix(0,1,1,0,5.324,-3.9582)" gradientUnits="userSpaceOnUse">
   <stop stop-color="#fd5" offset="0"/>
   <stop stop-color="#fea" offset="1"/>
  </linearGradient>
  <linearGradient id="linearGradient903" x1="104.9" x2="96.814" y1="160.38" y2="153.22" gradientTransform="translate(.53363 .83216)" gradientUnits="userSpaceOnUse">
   <stop stop-color="#916f6f" offset="0"/>
   <stop stop-color="#ac9393" offset="1"/>
  </linearGradient>
  <linearGradient id="linearGradient911" x1="164.14" x2="156.19" y1="103.26" y2="96.553" gradientTransform="translate(.53363 .83216)" gradientUnits="userSpaceOnUse">
   <stop stop-color="#6c5353" offset="0"/>
   <stop stop-color="#916f6f" offset="1"/>
  </linearGradient>
  <linearGradient id="linearGradient919" x1="166.34" x2="160.02" y1="100.31" y2="94.348" gradientTransform="matrix(-1 0 0 1 260.41 .83216)" gradientUnits="userSpaceOnUse" xlink:href="#linearGradient905"/>
  <linearGradient id="linearGradient927" x1="169.8" x2="163.47" y1="96.17" y2="90.801" gradientTransform="matrix(-1 0 0 1 260.41 .83216)" gradientUnits="userSpaceOnUse" xlink:href="#linearGradient905"/>
 </defs>
 <g transform="matrix(-1 0 0 1 260.94 0)" stroke="#000">
  <path d="m180.32 85.276c2.86 3.063 3.99 8.196 3.798 12.785-2.863-7.197-5.675-10.536-7.499-8.736l-152.27 150.38c-3.728 3.681-10.855 7.949-12.57 8.117 0.369-2.22 3.958-8.806 8.514-13.433l149.52-151.83c1.664-1.688-3.374-7.037-7.828-8.23 3.665-0.654 8.634 1.376 12.177 4.501z" fill="url(#linearGradient2678)" fill-rule="evenodd" stroke-width=".904"/>
  <ellipse transform="matrix(-.70472 .70948 .70948 .70472 0 0)" cx="-169.55" cy="184.12" rx="1.485" ry="1.427" fill="#fea" stroke-linecap="round" stroke-linejoin="round" stroke-width=".452"/>
  <g fill-rule="evenodd">
   <path d="m240 16.115 2.88-8.084c0.76-2.132 4.495-0.896 6.81 1.659 2.545 2.807 3.074 6.895 1.618 7.356l-8.106 2.571c-1.525-0.62-3.111-1.023-3.202-3.502z" fill="#ffe680" stroke-width=".904"/>
   <path d="m200.54 63.86c6.548-7.889 22.231-20.479 24.525-24.923 5.563-5.134 10.12-10.806 19.152-19.606l-4.05-3.7c-8.81 8.596-14.075 12.096-19.48 17.991-7.274 4.871-16.934 17.463-25.767 24.904-0.28299-0.35 5.214 6.248 5.62 5.334z" fill="url(#linearGradient2658)" stroke-width=".904"/>
   <path d="m189.53 57.103c-1.917-1.796-3.328-2.368-4.164-1.641-2.736 2.378 16.075 20.391 18.255 17.777 0.823-0.987 0.262-2.416-1.372-3.985l-0.96601 1.053c0.615 0.554 1.183 0.752 0.90599 1.567-0.666 1.956-17.243-14.621-15.324-14.923 0.74299-0.11701 1.338 0.46999 1.659 1.084z" fill="#fea" stroke-width=".452"/>
  </g>
 </g>
 <path d="m16.872 7.8568c-0.533 0.174-1.25 0.357-2.29 0.896-0.976 0.505-1.8 1.118-2.228 1.543-0.18 0.18-0.409 0.432-0.655 0.745-0.591 0.749-1.18 1.7-1.605 2.75a8.845 8.845 0 0 0-0.645 2.805c0.049-0.611 0.31-1.55 0.959-2.65 0.559-0.947 1.242-1.747 1.873-2.397 0.26303-0.26997 0.491-0.49 0.66199-0.66001 0.45798-0.45402 0.98-1.068 1.867-1.786 0.83-0.673 1.584-1.09 2.062-1.246z" fill="#ffd42a"/>
 <g stroke="#000">
  <g transform="matrix(-1 0 0 1 260.94 0)">
   <path d="m194.46 58.682-20.872 19.724c2.39 2.418 4.82 4.836 6.867 7.254l19.718-21.184c-3.202-3.346-4.389-5.018-5.712-5.794z" fill="url(#linearGradient2668)" fill-rule="evenodd" stroke-width=".904"/>
   <path d="m192.75 60.202-28.57-31.275c-1.297-1.421-3.845 1.352-2.534 2.633l30.138 29.452 5.916 6.279 28.486 30.629c0.66 0.709 3.87-1.165 2.373-2.632l-29.895-29.292z" fill="url(#linearGradient2716)" fill-rule="evenodd" stroke-width=".904"/>
   <path d="m200.21 63.719-6.9-3.306" fill="none" stroke-width=".5"/>
   <path d="m202.03 69.578c0.559 0.61 1.295 1.025 1.574 0.894 1.87-0.879-14.206-17.078-14.99-15.301-0.15 0.337 0.107 1.079 0.96 2.016l-0.676 0.733c-2.271-2.16-2.54-3.318-1.82-4.16 2.36-2.75 20.5 15.938 17.9 18.136-0.98 0.829-2.414 0.278-3.994-1.346z" fill="#fea" fill-rule="evenodd" stroke-width=".452"/>
  </g>
  <g transform="matrix(-1 0 0 1 260.94 0)" fill="none">
   <path d="m243.11 20.283-5.224-2.41m3.103 4.731-5.223-2.41m2.846 4.419-5.491-2.321m3.326 4.554-5.715-2.545m3.633 4.978-6.116-2.858m3.995 5.001-6.294-2.947m4.274 5-6.428-2.902m4.264 5.357-6.206-2.99" stroke-width=".5"/>
   <path d="m225.16 38.667-4.554-4.88"/>
   <path d="m224.72 39.122-6.833-3.073m4.902 5.489-7.307-3.42m5.434 5.461-7.606-3.142m5.283 5.469-7.45-3.208m4.832 5.42-6.968-3.173m4.848 5.316-6.895-3.2m4.875 5.253-7.06-3.091m4.894 5.547-6.9-3.307m4.468 5.255-7.06-3.09m4.894 5.546-6.899-3.307m4.361 5.397-7.06-3.091m30.565-20.324-2.228-0.876m-1.876-2.012-2.228-0.877" stroke-width=".5"/>
  </g>
  <g transform="matrix(-1 0 0 1 260.94 0)" fill-rule="evenodd" stroke-width=".75">
   <path d="m166.2 101.82-141.1 139.88c-4.5754 1.2694-6.5168 0.94727-8.4033 1.1321 0.4059-2.442-0.39196-3.1103 0.95862-8.2l139.71-142.18c4.8091 0.83385 6.676 4.0866 8.8356 9.3733z" fill="url(#linearGradient903)"/>
   <path d="m25.099 241.69c-4.1008 4.0491-14.381 9.1507-16.268 9.3355 0.4059-2.442 3.8114-11.314 8.823-16.403 0.83735 2.9907 4.5061 6.4839 7.4446 7.068z" fill="#ac9d93"/>
   <path d="m180.65 85.42c3.146 3.3693 5.7499 8.4298 3.2376 15.204-0.46469-5.8074-5.3987-10.984-7.4051-9.0036l-9.6047 9.5215-35.864 26.863 26.549-35.767 9.5149-9.6834c1.8304-1.8568-4.3826-6.7819-9.282-8.0942 4.0315-0.7194 11.226-0.64222 15.795 3.9458z" fill="url(#linearGradient911)"/>
  </g>
  <circle transform="scale(-1,1)" cx="-88.272" cy="86.144" r="3.106" fill="#f55" stroke-linecap="round" stroke-width=".75"/>
 </g>
 <path d="m90.672 85.839c-0.22564-0.42573-0.73491-0.86601-1.3412-1.005-0.5511-0.12637-0.96817 0.02744-1.2117 0.088-0.0269 0.0067-0.0517 0.01223-0.0745 0.01617-0.22204 0.03843-0.60183-0.01047-1.1167 0.20636-0.5449 0.22946-0.9511 0.66853-1.0695 1.0334 0.12035-0.37092 0.19475-0.91994 0.64976-1.5348 0.40773-0.55094 0.94919-0.8726 1.3232-0.93733 0.0382-0.0066 0.0808-0.01156 0.12718-0.01442 0.45777-0.02835 1.1002 0.14118 1.6562 0.61546 0.5953 0.50776 0.83545 1.1137 1.0572 1.5321z" fill="#ffd5d5"/>
 <path d="m104.99 93.353c-0.42116-0.91097-1.1693-1.7565-2.4928-2.4871l-9.7649 9.6903c0.67096 0.90696 1.2538 1.7571 2.6011 2.4104z" fill="url(#linearGradient919)" stroke="#000" stroke-linecap="round" stroke-linejoin="round" stroke-width=".75"/>
 <path d="m101.69 89.85c-0.42116-0.91096-1.1693-1.7565-2.4928-2.4871l-9.7889 9.7622c0.67097 0.90695 1.2778 1.7811 2.6251 2.4344z" fill="url(#linearGradient927)" stroke="#000" stroke-linecap="round" stroke-linejoin="round" stroke-width=".75"/>
 <g transform="matrix(-1 0 0 1 260.94 0)" fill="#e3dedb">
  <path d="m17.763 237.15-0.30104-0.39922c-0.59247 0.44676-1.3593 1.2407-2.2965 2.6234-0.69549 1.0262-1.3913 2.2375-2.0721 3.5557-1.5528 3.0062-2.6463 5.7663-3.0931 6.7286 0.28936-0.62325 1.8426-3.7394 3.5285-6.4829 0.77303-1.2579 1.5381-2.3837 2.2844-3.3275 1.0099-1.2773 1.7441-1.9168 2.2508-2.2989l-0.30104-0.39922z"/>
  <path d="m161.32 88.847c0.12833 0.1099 0.38678 0.84191 0.59003 1.0238 0.0669 0.05983 0.1488 0.12976 0.24532 0.21003 0.31827 0.2647 0.94868 0.76596 1.5799 1.2733 1.3412 1.0779 2.8553 2.3139 3.3814 2.8149-0.41832-0.3984-1.9561-2.0424-3.0443-3.182-0.58462-0.61218-1.097-1.1425-1.4208-1.4575-0.0905-0.08802-0.16938-0.16237-0.2367-0.22263-0.20468-0.18321-0.96647-0.35003-1.0948-0.45993z"/>
  <path d="m157.98 92.39c0.12833 0.1099 0.38678 0.84191 0.59003 1.0238 0.0668 0.05983 0.1488 0.12976 0.24532 0.21003 0.31827 0.2647 0.94868 0.76596 1.5799 1.2733 1.3412 1.0779 2.8553 2.3139 3.3814 2.8149-0.41832-0.3984-1.9561-2.0424-3.0443-3.182-0.58462-0.61218-1.097-1.1425-1.4208-1.4575-0.0905-0.08802-0.16938-0.16237-0.2367-0.22263-0.20468-0.18321-0.96647-0.35003-1.0948-0.45993z"/>
 </g>
</svg>
