<svg xmlns="http://www.w3.org/2000/svg" viewBox="0 0 256 256">
    <path fill="#ffd5d5" stroke="#000" stroke-linejoin="round" stroke-miterlimit="10" stroke-width=".666" d="M118.714 218.617l-26.26 3.115L97 225l-13.666.275 11.833 6.659-28.974-5.26-5.86 6.66-7.166-8.167-27.167 6 13.933-9.435L30 219.334l13.101-1.629-5.934-8.973 19.906 6.341 9.12-6.341 9.121 6.341 17.061-2.323-4.625 4.875z" transform="matrix(1.50043 0 0 1.50144 -33.011 -130.584)"/>
    <path fill="#ff8080" stroke="#000" stroke-linejoin="round" stroke-miterlimit="10" stroke-width=".666" d="M165 199l-12.253-5.168-17.917 3.334 7.75-4.667-19.33-.624 18.253-3.586-3.492-3.398 10.582 1.025L154 180.5l5.831 4.795 13.641-3.045-3.512 4.467 18.66-.342-14.38 3.141 4.885 3.234-9.5.125 8.399 5.082-17.36-4.125z" transform="matrix(1.50043 0 0 1.50144 -33.011 -130.584)"/>
    <path fill="#ff2a2a" stroke="#000" stroke-linejoin="round" stroke-miterlimit="10" stroke-width=".666" d="M56.094 172.841l-9.727-1.759-5.617 2.793-1.083-2.868-13.042 2.243 6.045-3.783-6.67-1.184 7.783-.234-4.908-3.222 11.583 2.248 3.818-2.248L49.572 167l11.553-2.173-4.265 3.033L67 166.811l-8.088 2.441 5.713 1.755h-11.25z" transform="matrix(1.50043 0 0 1.50144 -33.011 -130.584)"/>
    <path fill="#f55" stroke="#000" stroke-linejoin="round" stroke-miterlimit="10" stroke-width=".666" d="M50.912 170.931l-5.001-.905-2.818.981-1.669-1.195-7.378.311 4.823-.927-6.932-.504 7.504-.225-3.244-1.082 6.676.581 1.962-1.155 2.723 1.117 6.251-.688-2.504 1.13 5.57.538-4.515.177 5.415.845-7.545-.191z" transform="matrix(1.50043 0 0 1.50144 -33.011 -130.584)"/>
    <path fill="#f55" stroke="#000" stroke-linejoin="round" stroke-miterlimit="10" d="M197.055 154.256c0-168.853-155.045-106.544-161.905-31.235 0-77.687 170.658-161.641 170.658 31.235z"/>
    <path fill="#faa" stroke="#000" stroke-linejoin="round" stroke-miterlimit="10" d="M227.272 156.335l-11.677-2.228 11.096-2.426-14.4.264 6.772-4.198-13.33 2.784c-3.223-114.04-144.52-82.853-160.22 43.36l-12.754-4.915 12.623 7.676c-.017.49-.018.986-.03 1.477l-14.841.461 12.919 2.589-16.924 5.815 23.006-4.258 8.002 7.139 5.69-6.576 23.632 5.818-5.504-4.778 24.127 1.162-16.551-4.106 21.812-2.59-21.763-.674c.01-.526.01-1.056.024-1.577l6.589-3.638-6.475.912C90.775 90.502 192.87 59.49 196.914 148.552l-1.11 2.773-10.513-1.021 5.043 2.851-20.787 2.943 21.077-.611-8.203 5.084 14.117-3.348 9.27 4.6-.496-4.273 11.017 2.452-3.491-3.682z"/>
</svg>
