<svg xmlns="http://www.w3.org/2000/svg" viewBox="0 0 256 256">
    <path fill="#ffb380" d="M33.563 127.957l-1.876-91.138-25.71 50.67v153.065a4.766 4.766 0 0 0 4.766 4.766h161.323l-63.433-28.338 59.406-66.992-53.645 16.487c30.766-94.182 135.63-135.65 135.63-135.65v-20.02S90.07 48.983 33.563 127.957z"/>
    <path fill="#fca" d="M140.393 168.102l-44.805 10.805s11.757-71.658 58.469-104.389c-60.059 5.88-129.014 78.967-129.014 78.967l-3.974-68.32-15.092 35.448v119.94a4.766 4.766 0 0 0 4.766 4.767h132.51l-59.368-24.707z"/>
    <path fill="none" stroke="#000" stroke-miterlimit="10" stroke-width=".953" d="M33.563 127.957l-1.876-91.138-25.71 50.67v153.065a4.766 4.766 0 0 0 4.766 4.766h161.323l-63.433-28.338 59.406-66.992-53.645 16.487c30.766-94.182 135.63-135.65 135.63-135.65v-20.02S90.07 48.983 33.563 127.957z"/>
    <path fill="#ff8080" stroke="#000" stroke-miterlimit="10" stroke-width=".953" d="M21.14 193.833c-3.109 11.413 96.835 48.289 228.883 36.944V122.553c-104.952 78.58-225.662 59.453-228.883 71.28z"/>
</svg>
