<svg xmlns="http://www.w3.org/2000/svg" viewBox="0 0 256 256">
    <path fill="#ff8080" fill-rule="evenodd" stroke="#000" stroke-width="1.894" d="M191.804 240.697c-4.713-23.386-13.385-46.587-24.573-68.95-22.612-27.62-49.074-51.374-74.343-70.119C67.59 82.862 43.252 68.944 24.9 61.238c16.374 11.287 37.964 28.356 60.007 49.74 22.076 21.416 44.47 47.021 62.453 75.203 16.724 16.042 32.184 34.292 44.445 54.516z"/>
    <path fill="#ff2a2a" fill-rule="evenodd" d="M183.137 222.864c-3.767-15.904-10.565-32.455-19.122-48.83-16.846-20.358-36.635-39.256-55.445-54.924-18.83-15.684-36.82-28.254-50.046-35.81 11.585 9.895 27.566 24.542 44.15 42.048 16.595 17.519 33.721 37.823 47.544 58.876 12.516 12.11 23.987 25.171 32.919 38.64z"/>
    <path fill="#ff8080" fill-rule="evenodd" stroke="#000" stroke-width="2.039" d="M222.621 223.829c-5.074-25.177-14.412-50.158-26.457-74.234-24.345-29.737-52.833-55.312-80.04-75.493C88.89 53.9 62.684 38.916 42.925 30.617c17.628 12.152 40.874 30.53 64.606 53.552 23.768 23.058 47.877 50.626 67.239 80.967 18.006 17.272 34.65 36.92 47.851 58.694z"/>
    <path fill="#ff2a2a" fill-rule="evenodd" d="M213.291 204.631c-4.055-17.124-11.374-34.943-20.587-52.572-18.138-21.919-39.445-42.265-59.695-59.135-20.271-16.886-39.643-30.419-53.882-38.554 12.473 10.653 29.68 26.423 47.533 45.27 17.867 18.862 36.306 40.723 51.188 63.39 13.475 13.037 25.826 27.1 35.442 41.601z"/>
    <path fill="#ff8080" fill-rule="evenodd" stroke="#000" stroke-width="1.587" d="M226.53 166.047c-3.95-19.594-11.217-39.036-20.591-57.775-18.948-23.143-41.12-43.047-62.294-58.754-21.197-15.723-41.591-27.385-56.969-33.844 13.72 9.458 31.81 23.761 50.281 41.678 18.498 17.945 37.262 39.402 52.33 63.015 14.015 13.442 26.969 28.734 37.243 45.68z"/>
    <path fill="#ff2a2a" fill-rule="evenodd" d="M219.267 151.105c-3.156-13.327-8.852-27.194-16.022-40.915-14.116-17.059-30.699-32.894-46.46-46.024-15.776-13.14-30.852-23.673-41.934-30.005 9.708 8.292 23.098 20.564 36.994 35.232 13.905 14.68 28.255 31.694 39.839 49.335 10.486 10.147 20.099 21.09 27.583 32.377z"/>
    <path fill="#ff8080" fill-rule="evenodd" stroke="#000" stroke-width="1.587" d="M144.039 233.46c-3.81-18.901-10.82-37.656-19.864-55.732-18.278-22.326-39.666-41.527-60.092-56.678C43.635 105.882 23.962 94.633 9.127 88.4c13.235 9.124 30.687 22.922 48.504 40.206 17.845 17.311 35.946 38.009 50.482 60.788 13.519 12.967 26.015 27.718 35.926 44.066z"/>
    <path fill="#ff2a2a" fill-rule="evenodd" d="M137.033 219.047c-3.045-12.856-8.54-26.234-15.456-39.47-13.618-16.456-29.614-31.731-44.818-44.397-15.22-12.677-29.762-22.837-40.452-28.944 9.364 7.998 22.281 19.837 35.686 33.987 13.414 14.16 27.257 30.573 38.431 47.591 10.116 9.788 19.39 20.345 26.609 31.233z"/>
</svg>
