<svg xmlns="http://www.w3.org/2000/svg" xmlns:xlink="http://www.w3.org/1999/xlink" cursor="default" viewBox="0 0 256 256">
    <defs>
        <linearGradient id="innoGrad1">
            <stop offset="0" stop-color="#fd5"/>
            <stop offset="1" stop-color="#fea"/>
        </linearGradient>
        <linearGradient id="innoGrad2">
            <stop offset="0" stop-color="#ffb380"/>
            <stop offset="1" stop-color="#fca"/>
        </linearGradient>
        <linearGradient id="innoGrad3">
            <stop offset="0" stop-color="#f55"/>
            <stop offset="1" stop-color="#faa" stop-opacity="0"/>
        </linearGradient>
        <linearGradient id="innoGrad4">
            <stop offset="0" stop-color="#ff8080"/>
            <stop offset="1" stop-color="#faa"/>
        </linearGradient>
        <linearGradient id="linearGradient1196" x1="398.455" x2="411.183" y1="153.47" y2="43.161" gradientTransform="matrix(.729 0 0 .729 -214.257 45.489)" gradientUnits="userSpaceOnUse" xlink:href="#innoGrad4"/>
        <linearGradient id="linearGradient1206" x1="413.5" x2="442.375" y1="106" y2="96.5" gradientTransform="matrix(.729 0 0 .729 -214.257 45.489)" gradientUnits="userSpaceOnUse" xlink:href="#innoGrad3"/>
        <linearGradient id="linearGradient1242" x1="570.812" x2="608.996" y1="141.449" y2="112.104" gradientTransform="matrix(.729 0 0 .729 -214.257 45.489)" gradientUnits="userSpaceOnUse" xlink:href="#innoGrad2"/>
        <linearGradient id="linearGradient1250" x1="82.29" x2="89.624" y1="176.582" y2="168.645" gradientUnits="userSpaceOnUse" xlink:href="#innoGrad1"/>
        <linearGradient id="linearGradient1258" x1="95.059" x2="97.238" y1="180.828" y2="171.865" gradientUnits="userSpaceOnUse" xlink:href="#innoGrad1"/>
        <linearGradient id="linearGradient1268" x1="74.777" x2="84.057" y1="178.395" y2="161.866" gradientUnits="userSpaceOnUse" xlink:href="#innoGrad1"/>
        <linearGradient id="linearGradient1276" x1="111.104" x2="128.163" y1="195.896" y2="184.582" gradientTransform="rotate(-2.382 -46.948 404.697)" gradientUnits="userSpaceOnUse" xlink:href="#innoGrad1"/>
    </defs>
    <path fill="url(#linearGradient1242)" fill-rule="evenodd" stroke="#000" stroke-width=".5" d="M178.674 144.36c14.68 6.755 25.52 19.346 45.927 17.95 0 0-8.39-2.253-10.206-4.1 8.906 2.327 16.986 4.563 27.976 3.19-4.584-.323-6.755-1.017-8.201-1.823 7.673.17 12.927-.854 19.946-1.337-4.841-12.554-9.406-13.138-18.762-23.54 1.395.773 2.52 1.412 4.83 2.643-5.763-11.269-21.206-18.377-22.6-24.149 2.386 2.345 5.138 3.751 8.02 4.648-14.652-13.036-13.139-29.328-28.58-30.69-35.746-6.83-62.588 21.738-18.35 57.207z"/>
    <path fill="url(#linearGradient1196)" fill-rule="evenodd" stroke="#000" stroke-width=".5" d="M88.096 178.349c-5.032 4.408-8.15 11.2-16.038 12.12-26.115 3.045-39.719-3.805-51.577-11.391 5.804 1.498 8.67.899 11.118 0-10.59-4.94-17.403-11.858-23.875-18.954 3.415 1.545 5.92 1.271 8.383.911-9.275-8.885-10.543-20.698-9.112-35.72 1.592 2.439 3.282 4.487 5.832 3.097-7.028-8.208-1.54-24.278 2.37-33.351-.062 2.369.728 3.766 2.368 4.191-.85-9.826 6.035-16.268 12.758-22.78-.556 2.02-1.566 4.146.911 5.467 5.076-8.805 15.614-10.326 24.786-13.67-2.238 2.188-4.255 4.375-2.916 6.562 6.68-3.684 4.647-7.084 30.436-12.575L80.26 65.9c11.936-7.822 31.603.433 52.305-5.65l-7.654 5.285c11.813-4.608 22.415 3.05 46.291 6.197l-7.654 2.369c18.223-3.658 23.2 8.403 38.968 14.302-5.018-.267-10.048-1.364-11.813.46 1.84.886 4.793 1.711 6.196 4.739-4.761-1.236-9.216-3.82-15.126 0 6.926.785 9.233 5.881 12.757 9.841-3.877.236-9.429-.784-16.22-2.734 6.198 2.852 12.574 5.348 17.131 11.482-9.402-4.662-14.252-3.63-20.23-4.01 5.766 4.91 12.456 8.585 15.492 17.132-4.57-3.218-8.872-7.407-14.216-7.29 5.626 4.792 12.5 6.952 15.31 17.678-5.273-5.846-11.34-6.926-17.314-8.565 4.925 3.218 10.359 5.349 13.85 10.752-7.684-5.201-11.287-4.248-16.949-6.378 2.848 5.262 5.466 10.57 11.847 15.126-10.115-4.374-19.978-10.763-30.345-13.122-16.052-3.652-40.733 4.374-60.051 4.739 3.042 21.65-2.525 27.643-4.739 40.095z"/>
    <path fill="#faa" d="M72.893 179.904c-.718.144-3.074.082-3.858.219-2.486.434-8.149 1.472-13.903 1.585-3.202.064-6.236-.154-9.009-.735-3.693-.775-6.171-2.044-7.781-3.17 1.614 1.13 4.028 2.477 7.729 3.398 2.774.69 5.823 1.03 9.061 1.088 5.83.104 11.557-.744 14.075-1.184.79-.137 2.968-1.057 3.686-1.201z"/>
    <path fill="#f55" d="M73.88 175.797c-1.058.049-4.15-.685-5.17-.815-2.084-.265-4.855-.8-8.185-2.03-3.971-1.465-8.144-3.699-12.469-6.827-4.734-3.425-8.95-7.417-12.46-11.24a98.896 98.896 0 0 1-7.46-9.159c1.46 2.044 3.964 5.482 7.298 9.304 3.415 3.918 7.535 8.05 12.215 11.641 4.274 3.279 8.459 5.68 12.494 7.279 3.387 1.342 6.25 1.952 8.414 2.227 1.06.134 4.265-.331 5.324-.38z"/>
    <path fill="#faa" d="M75.52 170.877c-1.513-.396-5.733-2.731-7.188-3.446a53.746 53.746 0 0 1-7.76-4.674c-4.322-3.111-8.94-7.335-13.224-12.738-4-5.044-7.182-10.461-9.39-15.81-2.933-7.104-3.626-12.788-3.626-16.55 0 3.766.551 9.446 3.322 16.671 2.083 5.434 5.141 10.978 9.053 16.184 4.186 5.571 8.771 9.99 13.118 13.257 3.097 2.327 5.822 3.885 7.896 4.903.797.392 2.286.899 3.908 1.321 1.195.311 2.697.57 3.892.882z"/>
    <path fill="#f55" d="M77.343 167.232c-1.252-1.277-4.581-5.886-5.925-7.28-3.064-3.174-10.56-10.714-16.253-18.619-3.487-4.842-6.316-9.77-8.199-14.81-2.5-6.694-2.79-12.173-2.428-16.153-.362 3.984-.257 9.443 2.032 16.293 1.723 5.155 4.39 10.236 7.745 15.26 5.517 8.262 12.747 15.98 15.872 19.218 1.35 1.399 5.904 4.814 7.156 6.09z"/>
    <path fill="#faa" d="M80.26 161.946c-.964-1.06-3.075-4.84-3.855-6.044-2.504-3.864-5.228-8.945-8.24-17.352-1.792-5.006-3.384-10.335-4.769-14.916-1.6-5.295-2.354-7.675-3.366-10.713.891 2.675 1.792 5.81 3.136 10.78 1.248 4.615 2.665 10.003 4.304 15.085 2.724 8.451 5.391 13.898 7.908 17.782.8 1.232 3.918 4.318 4.881 5.378z"/>
    <path fill="#f55" d="M83.358 159.213c-.426-1.363-.976-5.672-1.328-7.068-.94-3.732-2.533-10.823-4.377-18.388-1.257-5.16-2.552-9.903-4.152-14.484-1.6-4.578-3.12-7.885-4.359-10.361 1.223 2.445 2.684 5.859 4.126 10.438 1.452 4.609 2.577 9.394 3.653 14.572 2.006 9.648 2.444 12.76 3.898 18.528.355 1.406 2.113 5.4 2.539 6.763z"/>
    <path fill="#faa" d="M87.185 156.114c-.06-1.453.054-5.85-.151-7.296-.389-2.728-1.234-6.695-2.69-11.629-1.378-4.666-2.943-8.995-3.72-11.328.762 2.285 2.107 6.795 3.208 11.464 1.226 5.2 1.739 8.737 2.153 11.642.203 1.427 1.14 5.694 1.2 7.147z"/>
    <path fill="#f55" d="M51.555 174.201c-1.621.348-4.39.124-7.905-.699-1.294-.303-2.457-.627-3.2-.797-1.425-.326-3.448-.783-6.043-1.577-3.03-.928-6.142-2.108-8.993-3.483-3.53-1.703-5.672-3.23-6.755-4.24 1.123 1.048 3.006 2.71 6.47 4.771 2.744 1.634 5.808 3.107 8.82 4.274 2.547.988 4.68 1.611 6.116 1.939.777.177 2.002.36 3.383.458 4.031.286 6.257-.249 8.107-.646zM38.342 149.371c-.457-.878-2.431-5-3.606-7.416-1.287-2.65-3.074-6.321-3.674-7.443-.656-1.226-1.908-3.488-3.054-5.753-1.813-3.584-3.544-7.491-4.726-11.687-1.188-4.214-1.525-7.703-1.525-10.165 0 2.505.121 5.912 1.056 10.281.923 4.308 2.392 8.388 4.023 12.123a87.041 87.041 0 0 0 2.857 5.933c1.574 2.941 7.142 11.23 8.649 14.127z"/>
    <path fill="#faa" d="M28.865 88.864c-.053 1.775-.304 5.326-.38 8.886-.078 3.758.042 6.925.273 8.887.244 2.065.914 5.61 2.083 9.444 1.248 4.094 2.53 6.886 3.491 9.05-.896-2.016-1.984-5.244-2.808-9.224-.83-4.01-1.11-7.275-1.365-9.435-.285-2.413-.638-4.527-.969-8.742-.282-3.594-.38-7.027-.325-8.866z"/>
    <path fill="#f55" d="M40.575 106.975c-.455-1.643-.841-4.298-.535-7.713.307-3.422 1.166-6.225 1.78-8.09l.044-.137c.588-1.787 1.522-4.529 3.308-7.61 1.775-3.061 3.674-5.18 5.01-6.374-1.372 1.227-3.362 3.108-5.408 6.125-1.996 2.944-3.214 5.778-3.802 7.566l-.045.14c-.604 1.884-1.284 4.906-1.346 8.355-.063 3.53.53 6.06.994 7.738z"/>
    <path fill="#ffd5d5" d="M55.473 101.986c-.439-2.63-.246-6.325.963-9.761.841-2.392 1.9-4.003 2.471-5.054.302-.556.669-1.26 1.175-2.11 1.326-2.223 3.037-4.456 5.506-6.862 2.267-2.209 4.747-4.127 6.106-5.008-3.803 2.468-9.673 5.245-13.754 10.38a15.953 15.953 0 0 0-1.52 2.25c-.638 1.175-1.386 3.323-1.68 6.028-.443 4.096.27 7.367.733 10.137z"/>
    <path fill="#f55" d="M73.334 97.248c.39-2.62 1.56-6.33 4.049-9.926 2.466-3.564 5.257-5.686 7.008-7.031.318-.245.693-.533 1.123-.85a35.87 35.87 0 0 1 10.212-5.283c4.388-1.448 8.441-1.879 10.96-1.879-2.579 0-6.513 0-11.194 1.023-4.7 1.027-8.441 2.736-11.12 4.496a20.52 20.52 0 0 0-1.229.87c-1.851 1.423-4.565 4.169-6.637 8.126-2.137 4.084-2.774 7.788-3.172 10.454z"/>
    <path fill="#ffd5d5" d="M79.348 111.463c.468-1.738 1.458-4.411 3.032-7.182 1.612-2.838 3.2-4.707 4.28-5.997.184-.221.403-.483.65-.772 1.42-1.658 3.325-3.65 6.025-5.588 2.653-1.903 5.246-3.142 6.972-3.789-1.772.664-4.358 1.643-7.245 3.372-2.874 1.722-5.06 3.614-6.59 5.257-.268.289-.501.554-.693.784-1.075 1.284-2.58 3.515-3.91 6.474-1.363 3.029-2.033 5.628-2.52 7.441z"/>
    <path fill="#f55" d="M93.381 128.595c3.04-.052 6.13-.08 11.451-.702 4.357-.509 9.343-1.352 11.366-1.77 2.024-.417 4.237-.92 6.262-1.338 4.289-.886 9.221-1.758 14.319-1.873 6.325-.143 11.224.941 14.74 2.22-3.565-1.296-8.264-2.654-14.734-2.906-5.166-.202-10.225.355-14.6 1.031-2.52.39-4.894.836-6.345 1.136-2.249.464-6.684 1.663-11.152 2.628-4.839 1.045-8.625 1.528-11.307 1.574z"/>
    <path fill="#faa" d="M96.297 114.744c1.381.48 3.27 1.138 6.31 1.63 2.942.475 6.052.633 8.779.615a45.008 45.008 0 0 0 2.834-.097c4.225-.305 7.683-.819 14.922-1.739 5.827-.74 11.704-1.378 16.878-1.169 2.758.111 5.101.454 7.112 1.021 2.689.759 4.479 1.838 5.677 2.837-1.197-.998-2.938-2.144-5.617-3.033-2.004-.665-4.351-1.128-7.137-1.374-5.222-.462-11.18-.086-17.051.424-6.237.543-11.726 1.075-14.91 1.305-.728.052-1.663.142-2.782.24-2.69.236-5.694.45-8.64.336-2.947-.115-5.064-.54-6.375-.996z"/>
    <path fill="#f55" d="M106.686 98.341c3.095-.34 8.192-.507 13.916-.134 6.009.392 10.252 1.169 13.444 1.656 2.842.434 6.334.804 11.487 1.914 4.803 1.035 8.999 2.325 11.454 3.307-2.802-1.12-6.111-2.62-11.177-4.316-4.707-1.575-8.902-2.585-11.448-2.974-2.989-.456-7.94-.807-13.742-.633-6.079.182-10.558.81-13.934 1.18z"/>
    <path fill="#ffd5d5" d="M114.522 83.214c2.045.006 5.265.4 9.004 1.191 3.54.75 7.013 1.75 8.78 2.138 1.08.237 3.714.774 5.81 1.21 3.682.767 8.886 1.886 13.101 2.679 5.106.96 7.727 1.29 10.69 1.713-2.502-.358-5.994-1.133-10.528-2.406-4.307-1.209-8.984-2.699-12.811-3.803-2.41-.695-4.35-1.204-5.796-1.521-1.846-.404-5.387-.87-9.102-1.09-4.394-.258-6.582-.104-9.148-.11z"/>
    <path fill="#f55" d="M118.322 70.862c1.407-.292 3.719-.524 6.4-.567 2.547-.042 5.05.11 6.292.12 2.69.023 5.59.088 10.072.43 3.448.263 7.054.637 10.108.896 4.302.365 6.41.394 8.344.356-1.777.035-4.195-.176-8.295-.778-3.026-.444-6.604-1.034-10.054-1.48-4.295-.553-7.619-.784-10.163-.805-1.328-.011-3.748.174-6.362.572-3.01.458-4.615.897-6.342 1.256z"/>
    <path fill="#ffd5d5" d="M153.074 81.2c.766-.063 2.203.016 3.955.196 1.69.175 3.503.435 4.424.494l.273.018c2.317.148 5.59.369 9.72.905 3.193.415 6.203.933 8.672 1.502a36.59 36.59 0 0 1 3.267.89c1.14.38 1.804.706 2.187.96-.386-.256-1.015-.626-2.137-1.092-.84-.35-1.9-.73-3.218-1.13-2.442-.742-5.435-1.45-8.627-2.043-4.03-.748-7.526-1.155-9.775-1.313a44.51 44.51 0 0 0-.277-.019c-.976-.063-2.757.006-4.506.166-1.71.157-3.234.406-3.958.466zM156.96 108.925c1.383.212 5.241 1.707 6.518 2.164 1.336.479 2.866.965 5.213 1.997 2.118.932 4.016 1.944 5.037 2.582-1.16-.725-2.652-1.766-4.821-3.01-2.083-1.193-3.912-2.042-5.106-2.47-1.307-.469-5.458-1.051-6.84-1.263z"/>
    <path fill="#f55" d="M154.595 120.568c1.184.508 4.706 2.192 5.914 2.655.77.295 1.647.609 2.417.904 3.473 1.33 6.014 2.67 7.89 4.278-1.332-1.141-4.893-3.511-7.681-4.778a46.205 46.205 0 0 0-2.394-1.011c-1.213-.465-4.962-1.54-6.146-2.048zM156.77 95.587c1.184.507 4.705 2.191 5.913 2.654.77.296 1.647.61 2.417.905 3.473 1.33 6.014 2.67 7.89 4.278-1.332-1.142-4.893-3.512-7.681-4.778a46.2 46.2 0 0 0-2.394-1.012c-1.213-.465-4.961-1.54-6.146-2.047z"/>
    <path fill="#faa" d="M37.804 169.24c-.588-.798-3.178-4.562-4.714-6.767-1.684-2.417-4.019-5.766-4.786-6.782-.839-1.108-2.427-3.149-3.91-5.208-2.35-3.258-4.665-6.85-6.486-10.81-1.828-3.979-2.703-7.373-3.085-9.805.389 2.474 1.038 5.821 2.64 9.992 1.58 4.112 3.667 7.915 5.858 11.35a87.043 87.043 0 0 0 3.745 5.417c2.011 2.661 8.8 9.985 10.738 12.612z"/>
    <path fill="url(#linearGradient1206)" fill-rule="evenodd" d="M93.092 137.92c-2.1-12.133-6.964-32.826 2.391-38.995l18.527-.847-1.799 37.697c-6.16 1.295-12.48 1.69-19.12 2.145z"/>
    <path d="M92.926 138.71l.359-.064c-.274-1.556-.948-4.728-1.739-9.538-.596-3.627-1.209-8.073-1.408-12.411-.203-4.418.04-8.333.913-11.398.495-1.734 1.158-3.082 1.95-4.108 1.042-1.349 2.228-2.038 3.296-2.394-1.066.355-2.264 1.027-3.336 2.362-.817 1.017-1.514 2.36-2.048 4.1-.944 3.073-1.263 7.006-1.14 11.451.122 4.36.66 8.842 1.195 12.488.57 3.892 1.514 9.095 1.599 9.575l.359-.063z"/>
    <path fill="url(#linearGradient1268)" fill-rule="evenodd" stroke="#000" stroke-width=".547" d="M76.842 183.133c-.858-.233-1.927-1.168-2.323-2.46-3.002-9.788 13.535-27.08 19.09-25.834 1.01.226 3.153.97 3.645 2.46z"/>
    <path fill="url(#linearGradient1250)" fill-rule="evenodd" stroke="#000" stroke-width=".547" d="M78.537 183.922c7.775.058 16.25-11.782 18.344-20.026 1.746-6.871.436-9.802-5.8-6.882-6.19 2.897-13.22 13.138-14.665 17.899-1.258 4.145-1.493 8.983 2.121 9.01z"/>
    <path fill="url(#linearGradient1258)" fill-rule="evenodd" stroke="#000" stroke-width=".547" d="M87.823 175.615l16.402 11.846 6.47-7.426-17.04-11.437"/>
    <path fill="url(#linearGradient1276)" fill-rule="evenodd" stroke="#000" stroke-width=".547" d="M100.477 172.977c1.105-1.38 6.544-3.441 9.908-3.176 9.078.715 21.34 15.215 24.361 27.067.688 2.699.086 4.785-2.261 5.276-12.29 2.574-28.875.238-36.933-11.161-1.4-1.981-1.62-7.23-.913-9.877.394-1.479 3.346-5.016 5.838-8.129z"/>
    <path fill="#ffe6d5" d="M200.362 92.51c.422.274.987.854 1.642 1.78.516.732 1.013 1.564 1.511 2.437.552.965 1.03 1.84 1.387 2.375.427.64 1.34 1.934 2.25 3.162 1.28 1.729 2.779 3.641 4.349 5.184 2.037 2.003 3.548 2.757 4.717 3.195-1.141-.428-2.578-1.457-4.266-3.6-1.329-1.686-2.55-3.715-3.639-5.55-.87-1.468-1.478-2.506-2.02-3.319-.347-.52-1.019-1.356-1.773-2.182a21.913 21.913 0 0 0-2.132-2.059c-.96-.798-1.547-1.112-2.026-1.424z"/>
    <path fill="#f95" d="M196.9 107.454c1.581.695 5.481 3.95 7.506 5.648.238.2.451.372.633.51 1.6 1.202 4.38 3.303 7.716 5.834 3.327 2.525 6.78 5.08 10.499 7.4a72.777 72.777 0 0 0 9.093 4.847c-2.284-1.03-5.272-2.698-8.815-5.26-3.524-2.548-6.748-5.35-9.868-8.098-3.43-3.02-5.5-4.842-7.44-6.3-.186-.14-.418-.3-.685-.472-1.187-.767-2.868-1.67-4.595-2.453-1.678-.76-3.254-1.309-4.045-1.656z"/>
    <path fill="#ffe6d5" d="M192.16 118.753c1.495.186 3.395.868 5.298 1.984.63.369 1.15.717 1.492.93a30.49 30.49 0 0 1 3.067 2.153c3.022 2.406 6.658 6.377 8.004 7.873-1.306-1.452-4.683-5.781-7.565-8.39-1.224-1.108-2.27-1.87-3.058-2.358a12.667 12.667 0 0 0-1.632-.823c-2.243-.955-3.994-1.169-5.605-1.369z"/>
    <path fill="#f95" d="M185.235 142.081c.384.451 1.02 1.475 1.87 2.533.875 1.091 1.858 2.108 2.615 2.696.098.076.19.143.274.198 1.365.908 3.631 2.13 6.637 3.35a63.485 63.485 0 0 0 8.335 2.705c2.68.671 4.554.96 5.784 1.184-1.169-.212-3.124-.743-5.629-1.681a65.019 65.019 0 0 1-7.85-3.574c-2.878-1.547-4.74-2.82-6.114-3.733a5.436 5.436 0 0 0-.273-.168c-2.028-1.18-4.51-2.172-5.649-3.51zM197.993 135.702c.967.104 2.44.495 4.025 1.171 1.616.69 2.908 1.472 3.99 2.134.347.212.641.392.876.52 1.612.882 3.34 1.88 5.825 3.671 1.978 1.426 3.97 3.034 5.649 4.284.928.692 1.71 1.237 2.435 1.684.97.599 1.646.903 2.168 1.116-.511-.209-1.173-.598-2.045-1.291-.656-.522-1.36-1.158-2.188-1.948-1.562-1.49-3.227-3.198-5.169-4.91-2.254-1.986-4.191-3.346-5.791-4.22a9.878 9.878 0 0 0-.983-.456c-1.224-.498-2.807-.963-4.563-1.273-1.922-.34-3.09-.36-4.23-.482z"/>
    <path fill="#ffe6d5" d="M220.592 137.525c2.24 1.22 8.611 6.065 10.943 7.428.592.346 1.432.8 2.414 1.299a86.838 86.838 0 0 0 8.03 3.591c3.124 1.201 5.129 1.742 6.862 2.262-1.547-.464-3.833-1.408-6.588-2.866-2.751-1.456-5.295-3.056-7.486-4.43a95.305 95.305 0 0 0-2.315-1.426c-1.074-.628-3.667-1.901-5.98-3.014-2.164-1.042-4.998-2.364-5.88-2.844zM207.652 147.002c.321.068.834.254 1.565.584.55.25 1.182.56 1.88.92 1.566.81 3.296 1.793 4.174 2.213l.113.054c.81.377 2.95 1.247 4.35 1.825 1.609.666 2.703 1.122 3.045 1.33-.375-.228-1.32-.955-2.75-1.89-1.447-.946-3.091-1.932-4.088-2.424l-.114-.056c-.897-.43-2.75-1.126-4.484-1.657a32.85 32.85 0 0 0-2.043-.56c-.777-.184-1.333-.272-1.648-.34z"/>
    <path d="M87.98 175.721l.157-.222c-.423-.299-1.352-.867-2.325-1.105a4.209 4.209 0 0 0-1.244-.121c-.54.03-.979.164-1.306.277a3.357 3.357 0 0 1 1.306-.17c.392.026.776.12 1.162.273.866.346 1.681 1 2.092 1.29l.158-.222zM93.853 168.735l.154-.23c-.544-.364-1.144-.838-1.546-1.6a3.102 3.102 0 0 1-.3-.827c-.067-.33-.053-.58-.022-.72-.03.136-.09.383-.087.731.003.265.043.58.153.922.281.877.898 1.556 1.494 1.954l.154-.23z"/>
    <path fill="#fff6d5" d="M106.714 172.515c.805-.219 2.115.037 3.405.62.753.342 1.406.74 1.812.89.402.148.885.34 1.445.6 1.931.898 4.303 2.404 7.145 4.992 2.396 2.18 4.652 4.703 6.586 7.143 2.459 3.103 4.105 5.692 4.819 7-.718-1.314-2.12-4.02-4.313-7.365-1.718-2.62-3.765-5.39-6.02-7.853-2.655-2.902-5.08-4.813-7.198-5.947a13.243 13.243 0 0 0-1.659-.755c-.497-.183-1.391-.296-2.364-.237-1.89.115-2.685.647-3.658.912zM93 169.719c.494.33 2.083 1.763 2.8 2.235l.075.048c.636.39 2.646 1.187 3.125 1.53-.479-.343-2.058-1.835-2.696-2.227a2.992 2.992 0 0 0-.077-.045c-.748-.428-2.733-1.21-3.227-1.541z"/>
</svg>
