<?xml version="1.0" encoding="UTF-8" standalone="no"?>
<!-- Created with Inkscape (http://www.inkscape.org/) -->

<svg
   xmlns:dc="http://purl.org/dc/elements/1.1/"
   xmlns:cc="http://creativecommons.org/ns#"
   xmlns:rdf="http://www.w3.org/1999/02/22-rdf-syntax-ns#"
   xmlns:svg="http://www.w3.org/2000/svg"
   xmlns="http://www.w3.org/2000/svg"
   xmlns:xlink="http://www.w3.org/1999/xlink"
   xmlns:sodipodi="http://sodipodi.sourceforge.net/DTD/sodipodi-0.dtd"
   xmlns:inkscape="http://www.inkscape.org/namespaces/inkscape"
   viewBox="0 0 100 100"
   version="1.1"
   id="svg8"
   inkscape:version="0.92.3 (2405546, 2018-03-11)"
   sodipodi:docname="anal_beads.svg">
  <defs
     id="defs2">
    <inkscape:path-effect
       miter_limit="80"
       jointype="extrapolated"
       smoothing="0.5"
       end_offset="0.34232143"
       attach_start="0.4"
       stroke_width="0.9"
       is_visible="true"
       id="path-effect1287"
       effect="taper_stroke" />
    <inkscape:path-effect
       miter_limit="80"
       jointype="extrapolated"
       smoothing="0.5"
       end_offset="0.46382314"
       attach_start="0.42421636"
       stroke_width="1"
       is_visible="true"
       id="path-effect1276"
       effect="taper_stroke" />
    <inkscape:path-effect
       effect="taper_stroke"
       id="path-effect1237"
       is_visible="true"
       stroke_width="1.4"
       attach_start="0.4469686"
       end_offset="0.48109992"
       smoothing="0.5"
       jointype="extrapolated"
       miter_limit="80" />
    <linearGradient
       inkscape:collect="always"
       id="innoGrad1">
      <stop
         style="stop-color:#ffaaaa;stop-opacity:1"
         offset="0"
         id="stop1091" />
      <stop
         style="stop-color:#ff5555;stop-opacity:1"
         offset="1"
         id="stop1093" />
    </linearGradient>
    <linearGradient
       inkscape:collect="always"
       xlink:href="#innoGrad1"
       id="linearGradient1097"
       x1="140.41121"
       y1="83.998367"
       x2="97.984795"
       y2="174.91209"
       gradientUnits="userSpaceOnUse" />
    <linearGradient
       inkscape:collect="always"
       xlink:href="#innoGrad1"
       id="linearGradient1105"
       x1="241.92662"
       y1="85.80471"
       x2="206.18402"
       y2="168.85823"
       gradientUnits="userSpaceOnUse" />
    <linearGradient
       inkscape:collect="always"
       xlink:href="#innoGrad1"
       id="linearGradient1113"
       x1="330.75217"
       y1="126.90563"
       x2="292.40851"
       y2="204.48253"
       gradientUnits="userSpaceOnUse" />
    <linearGradient
       inkscape:collect="always"
       xlink:href="#innoGrad1"
       id="linearGradient1121"
       x1="294.43304"
       y1="200.22606"
       x2="241.54594"
       y2="273.1347"
       gradientUnits="userSpaceOnUse" />
    <linearGradient
       inkscape:collect="always"
       xlink:href="#innoGrad1"
       id="linearGradient1129"
       x1="224.69131"
       y1="239.76405"
       x2="192.39644"
       y2="313.3288"
       gradientUnits="userSpaceOnUse" />
    <linearGradient
       inkscape:collect="always"
       xlink:href="#innoGrad1"
       id="linearGradient1137"
       x1="141.56822"
       y1="253.41422"
       x2="115.00502"
       y2="309.12851"
       gradientUnits="userSpaceOnUse" />
    <linearGradient
       inkscape:collect="always"
       xlink:href="#innoGrad1"
       id="linearGradient1185"
       x1="20.306133"
       y1="227.63441"
       x2="-14.058862"
       y2="267.43213"
       gradientUnits="userSpaceOnUse"
       gradientTransform="matrix(3.5170098,-1.3840054,1.3840054,3.5170098,-304.05409,-657.69342)" />
    <linearGradient
       inkscape:collect="always"
       xlink:href="#innoGrad1"
       id="linearGradient1193"
       x1="165.7643"
       y1="273.52396"
       x2="165.92912"
       y2="282.11026"
       gradientUnits="userSpaceOnUse"
       gradientTransform="matrix(0.30537948,0.02303694,-0.02303694,0.30537948,-6.803771,-8.3782761)" />
    <linearGradient
       inkscape:collect="always"
       xlink:href="#innoGrad1"
       id="linearGradient1201"
       x1="250.72891"
       y1="246.03128"
       x2="253.0889"
       y2="254.98375"
       gradientUnits="userSpaceOnUse"
       gradientTransform="matrix(0.30537948,0.02303694,-0.02303694,0.30537948,-6.803771,-8.3782761)" />
    <linearGradient
       inkscape:collect="always"
       xlink:href="#innoGrad1"
       id="linearGradient1209"
       x1="326.56122"
       y1="179.97816"
       x2="303.16934"
       y2="188.99602"
       gradientUnits="userSpaceOnUse"
       gradientTransform="matrix(0.30537948,0.02303694,-0.02303694,0.30537948,-6.803771,-8.3782761)" />
    <linearGradient
       inkscape:collect="always"
       xlink:href="#innoGrad1"
       id="linearGradient1217"
       x1="279.65643"
       y1="106.77773"
       x2="278.26489"
       y2="117.1318"
       gradientUnits="userSpaceOnUse"
       gradientTransform="matrix(0.30537948,0.02303694,-0.02303694,0.30537948,-6.803771,-8.3782761)" />
    <linearGradient
       inkscape:collect="always"
       xlink:href="#innoGrad1"
       id="linearGradient1225"
       x1="175.58299"
       y1="100.73365"
       x2="177.90887"
       y2="116.69585"
       gradientUnits="userSpaceOnUse"
       gradientTransform="matrix(0.30537948,0.02303694,-0.02303694,0.30537948,-6.803771,-8.3782761)" />
    <inkscape:path-effect
       effect="taper_stroke"
       id="path-effect1237-6"
       is_visible="true"
       stroke_width="0.7"
       attach_start="0.4"
       end_offset="0.38369157"
       smoothing="0.5"
       jointype="extrapolated"
       miter_limit="80" />
    <inkscape:path-effect
       effect="taper_stroke"
       id="path-effect1237-6-5"
       is_visible="true"
       stroke_width="1"
       attach_start="0.4"
       end_offset="0.4"
       smoothing="0.5"
       jointype="extrapolated"
       miter_limit="80" />
    <inkscape:path-effect
       effect="taper_stroke"
       id="path-effect1237-6-3"
       is_visible="true"
       stroke_width="1"
       attach_start="0.4"
       end_offset="0.4"
       smoothing="0.5"
       jointype="extrapolated"
       miter_limit="80" />
    <inkscape:path-effect
       effect="taper_stroke"
       id="path-effect1237-6-34"
       is_visible="true"
       stroke_width="1"
       attach_start="0.4"
       end_offset="0.4"
       smoothing="0.5"
       jointype="extrapolated"
       miter_limit="80" />
    <inkscape:path-effect
       effect="taper_stroke"
       id="path-effect1237-6-2"
       is_visible="true"
       stroke_width="1"
       attach_start="0.4"
       end_offset="0.4"
       smoothing="0.5"
       jointype="extrapolated"
       miter_limit="80" />
    <inkscape:path-effect
       effect="taper_stroke"
       id="path-effect1237-6-4"
       is_visible="true"
       stroke_width="1.3"
       attach_start="0.4"
       end_offset="0.38369157"
       smoothing="0.5"
       jointype="extrapolated"
       miter_limit="80" />
    <inkscape:path-effect
       effect="taper_stroke"
       id="path-effect1237-6-21"
       is_visible="true"
       stroke_width="0.8"
       attach_start="0.4"
       end_offset="0.38369157"
       smoothing="0.5"
       jointype="extrapolated"
       miter_limit="80" />
  </defs>
  <sodipodi:namedview
     id="base"
     pagecolor="#ffffff"
     bordercolor="#666666"
     borderopacity="1.0"
     inkscape:pageopacity="0.0"
     inkscape:pageshadow="2"
     inkscape:zoom="5.6"
     inkscape:cx="47.819408"
     inkscape:cy="48.426452"
     inkscape:document-units="mm"
     inkscape:current-layer="layer2"
     showgrid="false" />
  <metadata
     id="metadata5">
    <rdf:RDF>
      <cc:Work
         rdf:about="">
        <dc:format>image/svg+xml</dc:format>
        <dc:type
           rdf:resource="http://purl.org/dc/dcmitype/StillImage" />
        <dc:title />
      </cc:Work>
    </rdf:RDF>
  </metadata>
  <g
     inkscape:groupmode="layer"
     id="layer2"
     inkscape:label="color"
     style="display:inline">
    <path
       style="fill:url(#linearGradient1225);fill-opacity:1;stroke:none;stroke-width:0.07733909"
       d="m 45.464608,26.776623 c -1.601955,-0.08357 -3.218568,-0.288037 -4.819718,-0.120306 -0.687217,0.255371 -0.74349,1.153149 -0.739629,1.778352 0.03695,0.736654 0.26143,1.600511 0.931489,1.999694 2.274663,-0.307075 4.733864,-0.46177 7.025007,-0.595768 -0.0671,-0.52319 -0.0479,-1.461883 0.04247,-2.154305 l 0.159533,-0.769787 c -0.60412,-0.04542 -1.995032,-0.09246 -2.59914,-0.138027 z"
       id="path1069"
       inkscape:connector-curvature="0"
       sodipodi:nodetypes="ccccccccc" />
    <path
       style="fill:url(#linearGradient1217);fill-opacity:1;stroke:none;stroke-width:0.07733909"
       d="m 70.886056,29.669889 c -0.68585,0.06037 -0.96209,0.867478 -1.110952,1.435557 -0.100625,0.523778 -0.184614,1.322215 0.389202,1.603865 1.227649,0.231864 2.480908,-0.1643 3.715805,-0.0054 1.449549,0.107545 3.083208,0.400699 4.021106,1.634415 0.13556,0.29419 0.3898,0.208516 0.594933,0.03263 0.524611,-0.323764 1.245131,-0.626348 1.830893,-0.897259 -0.208956,-0.338957 -0.78225,-0.727462 -1.07233,-1.045078 -1.494097,-1.341377 -3.528345,-1.739115 -5.445377,-2.055575 -0.987829,-0.179525 -1.928356,-0.565658 -2.92328,-0.703146 z"
       id="path1073"
       inkscape:connector-curvature="0"
       sodipodi:nodetypes="ccccccccccc" />
    <path
       style="fill:url(#linearGradient1209);fill-opacity:1;stroke:none;stroke-width:0.07733909"
       d="m 85.482072,51.947863 c -0.574557,-0.04365 -1.317388,0.184775 -1.357596,0.867679 -0.384653,1.78315 -0.879095,4.083773 -1.617869,5.767053 -0.311191,0.386002 0.294527,0.176705 0.579691,0.42323 0.42567,0.408762 0.786673,0.881564 1.217275,1.283116 0.317771,-0.241549 0.409674,-0.741753 0.636877,-1.078605 0.983066,-1.993155 2.127018,-4.016914 2.305614,-6.276254 -0.09069,-0.583341 -0.786786,-0.817528 -1.291364,-0.934054 -0.15582,-0.03003 -0.314006,-0.04751 -0.472626,-0.05218 z"
       id="path1077"
       inkscape:connector-curvature="0"
       sodipodi:nodetypes="cccccccccc" />
    <path
       style="fill:url(#linearGradient1201);fill-opacity:1;stroke:none;stroke-width:0.07733909"
       d="m 66.948354,71.209621 c -0.980812,0.364964 -1.865604,0.957476 -2.852467,1.321034 -0.736107,0.338345 -1.641918,0.583657 -2.378585,0.888782 -0.07556,0.411482 0.384496,0.781704 0.472708,1.178339 0.190786,0.355544 0.149473,0.889401 0.384754,1.208263 1.45465,-0.493951 2.933763,-1.161742 4.428741,-1.544542 0.347039,-0.125865 0.755409,-0.132248 1.065562,-0.305489 0.188088,-0.974891 -0.17406,-2.031631 -0.931485,-2.672427 -0.05647,-0.03754 -0.119794,-0.07214 -0.189228,-0.07396 z"
       id="path1081"
       inkscape:connector-curvature="0"
       sodipodi:nodetypes="ccccccccc" />
    <path
       style="fill:url(#linearGradient1193);fill-opacity:1;stroke:none;stroke-width:0.07733909"
       d="m 40.610757,78.559236 c -1.86724,0.306979 -3.779677,0.331591 -5.636637,-0.05635 -0.307488,-0.110543 -0.904305,-0.344285 -1.197572,-0.175322 -0.336357,0.650858 -0.52986,1.458249 -0.264985,2.307984 0.03274,0.340696 0.356384,0.44851 0.647351,0.332411 2.50544,-0.230642 5.012985,0.250905 7.515256,0.258055 0.452924,-0.396171 0.376164,-1.108356 0.349655,-1.653104 -0.05108,-0.416858 -0.172585,-0.880665 -0.513816,-1.144733 -0.299746,0.04369 -0.599493,0.08738 -0.89924,0.131059 z"
       id="path1085"
       inkscape:connector-curvature="0"
       sodipodi:nodetypes="cccccccccc" />
    <path
       style="fill:#ffd5d5;fill-rule:nonzero;stroke:none;stroke-width:0.81022871;stroke-linecap:butt;stroke-linejoin:miter;stroke-miterlimit:4;stroke-dasharray:none;stroke-opacity:1"
       d="m 28.366503,71.265082 c -0.993039,-0.45074 -2.049327,-0.246402 -2.049327,-0.246402 0,0 0.928736,0.501753 1.75859,0.883169 0.325308,0.148531 0.650838,0.33318 0.979683,0.569245 1.013842,0.724271 2.070903,1.624937 2.070903,1.624937 0,0 -0.473642,-1.336297 -1.662691,-2.193588 -0.3663,-0.262952 -0.732769,-0.470987 -1.097158,-0.637361 z"
       id="path1298"
       inkscape:connector-curvature="0"
       sodipodi:nodetypes="cc"
       inkscape:path-effect="#path-effect1237-6"
       inkscape:original-d="m 26.317176,71.01868 c 1.581246,0.288629 3.170393,0.844263 4.809176,3.077351" />
  </g>
  <g
     inkscape:label="outline"
     inkscape:groupmode="layer"
     id="layer1"
     transform="translate(0,-197)"
     style="display:inline;opacity:1">
    <g
       id="g114"
       transform="matrix(1.1541902,0.08706874,-0.08706874,1.1541902,10.348771,-38.753743)">
      <path
         sodipodi:nodetypes="cccccccccccccc"
         transform="matrix(0.26458333,0,0,0.26458333,0,197)"
         inkscape:connector-curvature="0"
         id="path1067"
         d="m 118.23741,63.288746 c -16.37581,0.220751 -32.27435,9.224546 -41.037886,23.040497 -8.936047,13.627385 -10.737465,31.644787 -4.425929,46.700917 5.718928,14.34711 18.341403,25.68733 33.248755,29.76108 7.29351,2.15287 15.07672,2.33591 22.55392,1.14031 16.63812,-2.80318 31.3951,-14.56173 37.85779,-30.14494 2.51839,-6.09345 4.42401,-13.53905 4.27874,-20.15443 0,0 -6.5027,1.93935 -7.77861,0.36785 -2.18024,-2.69814 -2.89924,-6.61763 -1.87332,-9.92199 0.65113,-1.92261 2.75996,-2.57491 4.59156,-2.56533 l 3.52808,0.0292 C 164.99193,85.020614 151.13097,70.5806 134.92475,65.517776 c -5.36325,-1.819935 -11.05686,-2.28159 -16.68734,-2.22908 z"
         style="display:inline;fill:url(#linearGradient1097);fill-opacity:1;stroke:none;stroke-width:0.25253814" />
      <path
         transform="matrix(0.26458333,0,0,0.26458333,0,197)"
         inkscape:connector-curvature="0"
         id="path1071"
         d="m 232.02458,60.982856 c -15.35429,0.0051 -30.37222,8.493194 -38.21386,21.711589 -9.36875,15.08011 -8.45955,35.706825 2.13661,49.938425 7.13394,9.84393 18.37947,16.48912 30.41529,18.12806 3.91825,0.39862 7.90305,0.14351 11.83435,-0.0595 7.17621,-0.81638 14.08008,-3.68514 20.00191,-7.77651 9.32591,-6.56069 16.13875,-16.79252 18.21767,-28.02957 -0.36363,-0.94394 -1.91008,-0.42461 -2.69801,-0.59514 -4.2275,-0.0628 -8.36243,1.1239 -12.57217,1.14707 -2.35452,-0.31994 -2.7031,-3.19397 -2.51256,-5.09959 0.0979,-2.34462 1.00177,-5.43338 3.62186,-5.97164 5.0209,0.45358 9.9407,2.08891 15.02799,1.96654 0.34113,-1.27291 -0.18458,-2.84981 -0.1169,-4.26552 -1.1251,-15.726753 -11.44614,-30.271789 -25.73373,-36.840978 -6.04675,-2.837728 -12.72861,-4.305413 -19.40845,-4.253196 z"
         style="display:inline;fill:url(#linearGradient1105);fill-opacity:1;stroke:none;stroke-width:0.25253814" />
      <path
         sodipodi:nodetypes="ccccccccccccccccc"
         transform="matrix(0.26458333,0,0,0.26458333,0,197)"
         inkscape:connector-curvature="0"
         id="path1075"
         d="m 313.7473,109.98956 c -12.88802,-0.0362 -25.48527,6.47944 -33.43171,16.53089 -9.4042,11.95447 -12.048,29.02432 -6.01267,43.07999 3.22432,7.67635 8.4762,14.69998 15.52577,19.2333 2.79475,0.99746 5.80931,1.30077 8.55188,2.49853 2.99806,1.03424 6.17121,3.1498 8.86915,4.76073 0.8577,-0.4878 0.42002,-2.51333 0.84063,-3.35972 1.85547,-5.57964 1.7207,-11.54416 2.93378,-17.24657 0.96168,-1.9449 3.60786,-2.16774 5.5297,-2.12438 2.02984,0.17855 4.88331,0.98302 5.17062,3.36832 -0.0218,5.03676 -1.71884,9.92144 -3.38608,14.62009 -0.58795,1.7114 -1.50774,3.33478 -2.02376,5.04385 4.87367,0.41469 9.80495,-1.15002 14.34096,-2.89005 14.11431,-5.46542 24.64944,-18.92427 26.68182,-33.9074 2.13712,-13.92337 -2.9779,-28.75595 -13.47689,-38.19848 -8.05182,-7.35271 -18.91282,-11.73276 -29.86756,-11.40934 z"
         style="display:inline;fill:url(#linearGradient1113);fill-opacity:1;stroke:none;stroke-width:0.25253814" />
      <path
         sodipodi:nodetypes="ccccccccccccccccc"
         transform="matrix(0.26458333,0,0,0.26458333,0,197)"
         inkscape:connector-curvature="0"
         id="path1079"
         d="m 284.1229,189.23672 c -13.43432,-0.0959 -26.5054,7.5156 -33.23174,19.11596 -3.60123,6.04876 -5.73008,13.04183 -5.4978,20.11771 -0.17708,4.62813 0.69031,9.21512 2.31843,13.54 0.6037,1.29805 0.80405,3.01312 1.90069,3.9823 3.45765,-1.2454 6.36098,-3.71325 9.71088,-5.19528 1.80186,-0.4039 2.87453,1.63731 3.76144,2.88199 0.89808,1.78674 2.01859,3.98775 1.26713,5.99778 -1.28123,1.2931 -3.36911,1.44033 -4.97945,2.18546 -1.45576,0.67245 -3.67815,0.70057 -4.8143,1.88228 0.44646,1.40323 2.36844,2.40447 3.32406,3.49157 6.11229,5.87771 14.26883,9.37083 22.63016,10.40148 4.37224,-0.0409 8.83293,0.12221 13.12606,-0.81779 11.87819,-2.86467 22.26929,-11.41498 27.04608,-22.70454 3.28869,-6.975 3.7089,-14.95794 2.71593,-22.50126 -2.27131,-12.82699 -11.29387,-24.20459 -23.3287,-29.22834 -5.01894,-2.15004 -10.48974,-3.22565 -15.94887,-3.14932 z"
         style="display:inline;fill:url(#linearGradient1121);fill-opacity:1;stroke:none;stroke-width:0.25253814" />
      <path
         sodipodi:nodetypes="cccccccccccccc"
         transform="matrix(0.26458333,0,0,0.26458333,0,197)"
         inkscape:connector-curvature="0"
         id="path1083"
         d="m 211.19462,232.3068 c -8.13147,-0.0383 -16.11159,3.29235 -22.26903,8.51404 -8.15091,7.0336 -12.89193,17.85651 -12.33159,28.63422 -0.52047,1.69599 1.07862,1.13801 2.08634,1.06441 1.84073,0.70965 2.25174,3.10745 2.54659,4.82338 0.17882,1.70353 -0.59274,4.32255 -2.28764,5.07838 -1.13078,0.14325 0.59185,1.59508 0.82071,2.17124 5.73706,12.67872 19.39078,21.47375 33.37992,20.81565 11.92118,-0.18128 23.37668,-6.93615 29.4788,-17.14714 3.40226,-5.51903 5.28811,-11.97453 5.06516,-18.47701 0.27652,-7.50335 -2.58917,-14.81705 -6.7184,-20.96609 -5.59526,-7.69155 -14.45139,-12.97081 -23.8619,-14.29208 -1.9624,-0.1982 -3.93775,-0.24244 -5.909,-0.219 z"
         style="display:inline;fill:url(#linearGradient1129);fill-opacity:1;stroke:none;stroke-width:0.25253814" />
      <path
         sodipodi:nodetypes="ccccccccccccc"
         transform="matrix(0.26458333,0,0,0.26458333,0,197)"
         inkscape:connector-curvature="0"
         id="path1087"
         d="m 127.47774,247.05759 c -11.20101,0.0271 -21.91237,7.32518 -26.09232,17.70825 -1.508489,3.39896 -2.141743,7.11068 -1.912779,10.81919 -0.283341,4.33174 0.719389,8.64794 2.672859,12.50873 4.69618,9.62747 15.105,16.42599 25.93103,15.94077 8.52257,0.11558 16.95856,-4.02834 22.11435,-10.80882 2.64121,-3.38496 4.8035,-7.8086 5.60319,-12.0296 -0.64572,-0.0676 -1.70795,0.24524 -2.46175,-0.1899 -1.47529,-1.79114 -1.39038,-4.37154 -1.06046,-6.55563 0.21407,-1.35745 1.34961,-2.91034 3.78461,-2.24966 0.0852,-0.42461 -0.1192,-1.82273 -0.29085,-2.49433 -2.34918,-11.69645 -12.72652,-21.22551 -24.60931,-22.45762 -1.22045,-0.14243 -2.44986,-0.20746 -3.67857,-0.19138 z"
         style="display:inline;fill:url(#linearGradient1137);fill-opacity:1;stroke:none;stroke-width:0.25253814" />
      <g
         id="g81">
        <path
           style="opacity:1;vector-effect:none;fill:none;fill-opacity:1;fill-rule:evenodd;stroke:#000000;stroke-width:0.19832325;stroke-linecap:butt;stroke-linejoin:miter;stroke-miterlimit:4;stroke-dasharray:none;stroke-dashoffset:0;stroke-opacity:1"
           d="m 59.134785,213.31671 a 11.973857,11.973857 0 0 0 -9.404759,14.08122 11.973857,11.973857 0 0 0 14.081324,9.40523 11.973857,11.973857 0 0 0 9.427212,-9.57433 c -0.397781,-0.0334 -0.818217,-0.0369 -1.26841,-0.0362 -0.852822,0.001 -1.866332,0.29502 -2.770927,0.31819 -1.238888,0.0318 -0.851085,-3.10362 0.44545,-2.84311 0.861915,0.17318 2.182365,0.45291 3.047295,0.50474 0.251199,0.0149 0.500243,0.0406 0.747766,0.0726 a 11.973857,11.973857 0 0 0 -0.22324,-2.52363 11.973857,11.973857 0 0 0 -14.081711,-9.40466 z"
           id="path10-5"
           inkscape:connector-curvature="0" />
        <path
           style="opacity:1;vector-effect:none;fill:none;fill-opacity:1;fill-rule:evenodd;stroke:#000000;stroke-width:0.19832325;stroke-linecap:butt;stroke-linejoin:miter;stroke-miterlimit:4;stroke-dasharray:none;stroke-dashoffset:0;stroke-opacity:1"
           d="m 80.947387,226.25288 a 11.527855,11.527855 0 0 0 -9.054599,13.55697 11.527855,11.527855 0 0 0 4.889888,7.30418 10.457452,10.457452 0 0 1 4.510478,1.76891 c 0.307469,-0.80991 0.52251,-1.65088 0.646313,-2.412 0.08516,-0.5235 0.20304,-1.9149 0.309575,-2.78893 0.14277,-1.17127 2.951922,-0.96609 2.847445,0.2477 -0.07795,0.90561 -0.274748,1.79795 -0.541594,2.64277 -0.287949,0.91162 -0.649179,1.70922 -0.997354,2.49544 a 11.527855,11.527855 0 0 0 1.892191,-0.20355 11.527855,11.527855 0 0 0 9.0546,-13.55696 11.527855,11.527855 0 0 0 -13.556953,-9.0546 z"
           id="path10-5-0"
           inkscape:connector-curvature="0" />
        <path
           style="opacity:1;vector-effect:none;fill:none;fill-opacity:1;fill-rule:evenodd;stroke:#000000;stroke-width:0.19832325;stroke-linecap:butt;stroke-linejoin:miter;stroke-miterlimit:4;stroke-dasharray:none;stroke-dashoffset:0;stroke-opacity:1"
           d="m 73.26605,247.19847 a 10.457452,10.457452 0 0 0 -8.213832,12.29811 10.457452,10.457452 0 0 0 0.948005,2.71785 c 0.859709,-0.42099 1.698427,-0.89098 2.498109,-1.44871 0.717204,-0.50022 2.059194,2.2039 1.180463,2.46262 -0.841895,0.24789 -1.64583,0.54869 -2.423433,0.88286 a 10.457452,10.457452 0 0 0 10.094974,3.59922 10.457452,10.457452 0 0 0 8.214316,-12.29822 10.457452,10.457452 0 0 0 -12.298602,-8.21373 z"
           id="path10-5-2"
           inkscape:connector-curvature="0" />
        <path
           style="opacity:1;vector-effect:none;fill:none;fill-opacity:1;fill-rule:evenodd;stroke:#000000;stroke-width:0.19832325;stroke-linecap:butt;stroke-linejoin:miter;stroke-miterlimit:4;stroke-dasharray:none;stroke-dashoffset:0;stroke-opacity:1"
           d="m 54.287913,258.56707 a 9.4762477,9.4762477 0 0 0 -7.583785,10.15507 c 0.141986,-0.036 0.2828,-0.0697 0.426798,-0.10911 0.757233,-0.20679 1.157077,2.48353 0.323887,2.53725 -0.06573,10e-4 -0.132165,-0.001 -0.198149,-0.001 a 9.4762477,9.4762477 0 0 0 10.732366,6.00572 9.4762477,9.4762477 0 0 0 7.44358,-11.14422 9.4762477,9.4762477 0 0 0 -11.144718,-7.44349 z"
           id="path10-5-5"
           inkscape:connector-curvature="0" />
        <path
           style="opacity:1;vector-effect:none;fill:none;fill-opacity:1;fill-rule:evenodd;stroke:#000000;stroke-width:0.19832325;stroke-linecap:butt;stroke-linejoin:miter;stroke-miterlimit:4;stroke-dasharray:none;stroke-dashoffset:0;stroke-opacity:1"
           d="m 43.249889,223.98552 c -1.368157,0.3694 -0.535897,3.64121 0.498896,3.39092 1.640707,-0.39689 3.765835,-0.76931 5.829576,-1.00507 a 11.973857,11.973857 0 0 1 -0.01601,-2.53225 c -2.339258,0.064 -4.482695,-0.076 -6.173034,0.12014 -0.04873,0.006 -0.09528,0.0144 -0.139324,0.027 z"
           id="rect876"
           inkscape:connector-curvature="0" />
        <path
           style="opacity:1;vector-effect:none;fill:none;fill-opacity:1;fill-rule:evenodd;stroke:#000000;stroke-width:0.19832325;stroke-linecap:butt;stroke-linejoin:miter;stroke-miterlimit:4;stroke-dasharray:none;stroke-dashoffset:0;stroke-opacity:1"
           d="m 47.455047,271.15022 c -2.173382,0.009 -4.402148,-0.19554 -6.594823,0.2631 -0.733101,0.15364 -0.786006,-2.57379 -0.01193,-2.43692 2.416523,0.42728 4.232586,0.19644 6.282636,-0.36327 0.757234,-0.20679 1.157298,2.48335 0.324117,2.53709 z"
           id="rect876-6"
           inkscape:connector-curvature="0"
           sodipodi:nodetypes="cssssc" />
        <path
           style="opacity:1;vector-effect:none;fill:none;fill-opacity:1;fill-rule:evenodd;stroke:#000000;stroke-width:0.19832325;stroke-linecap:butt;stroke-linejoin:miter;stroke-miterlimit:4;stroke-dasharray:none;stroke-dashoffset:0;stroke-opacity:1"
           d="m 69.304804,224.67857 c -1.014877,0.28869 -1.228323,2.86098 -0.105579,2.8322 0.904599,-0.0231 1.918104,-0.31686 2.770927,-0.31819 1.617776,-0.003 2.854985,0.047 4.011357,1.38362 a 11.527855,11.527855 0 0 1 1.802124,-1.18307 c -0.08769,-0.0952 -0.176823,-0.18894 -0.270643,-0.27958 -1.406561,-1.35904 -3.076132,-1.83657 -4.821022,-1.94116 -0.864929,-0.0518 -2.185381,-0.33157 -3.047294,-0.50474 -0.121543,-0.0244 -0.234876,-0.0189 -0.339867,0.0109 z"
           id="rect876-6-7"
           inkscape:connector-curvature="0" />
        <path
           style="opacity:1;vector-effect:none;fill:none;fill-opacity:1;fill-rule:evenodd;stroke:#000000;stroke-width:0.19832325;stroke-linecap:butt;stroke-linejoin:miter;stroke-miterlimit:4;stroke-dasharray:none;stroke-dashoffset:0;stroke-opacity:1"
           d="m 83.24009,242.92565 c -0.509174,0.0717 -0.937509,0.31713 -0.991048,0.75636 -0.106537,0.87403 -0.224417,2.26543 -0.309575,2.78893 -0.123808,0.76112 -0.338924,1.60206 -0.646313,2.412 a 10.457452,10.457452 0 0 1 1.709906,1.50433 c 0.478209,-1.25113 1.103686,-2.39601 1.551833,-3.81479 0.266846,-0.84482 0.463643,-1.73716 0.541594,-2.64277 0.0653,-0.75861 -1.007722,-1.12323 -1.856397,-1.00406 z"
           id="rect876-6-3"
           inkscape:connector-curvature="0" />
        <path
           style="opacity:1;vector-effect:none;fill:none;fill-opacity:1;fill-rule:evenodd;stroke:#000000;stroke-width:0.19832325;stroke-linecap:butt;stroke-linejoin:miter;stroke-miterlimit:4;stroke-dasharray:none;stroke-dashoffset:0;stroke-opacity:1"
           d="m 68.639134,260.70856 c -0.04902,0.008 -0.09598,0.0259 -0.140801,0.0572 -1.331414,0.92858 -2.771142,1.6139 -4.236041,2.23525 a 9.4762477,9.4762477 0 0 1 0.933554,2.10546 c 1.391394,-0.75252 2.873669,-1.40428 4.48295,-1.87809 0.823811,-0.24257 -0.304456,-2.63394 -1.03966,-2.51978 z"
           id="rect876-6-5"
           inkscape:connector-curvature="0" />
        <path
           style="opacity:1;vector-effect:none;fill:none;fill-opacity:1;fill-rule:evenodd;stroke:#000000;stroke-width:0.19832325;stroke-linecap:butt;stroke-linejoin:miter;stroke-miterlimit:4;stroke-dasharray:none;stroke-dashoffset:0;stroke-opacity:1"
           d="m 29.783497,213.7916 a 13.493063,13.493063 0 0 0 -11.450553,15.26428 13.493063,13.493063 0 0 0 15.26436,11.45106 13.493063,13.493063 0 0 0 11.570456,-13.44176 c -0.499643,0.10082 -0.978518,0.20464 -1.418897,0.31127 -1.034789,0.25028 -1.867208,-3.02126 -0.49905,-3.39065 l 7.2e-5,5e-4 c 0.04408,-0.0123 0.09093,-0.02 0.139531,-0.027 0.42961,-0.0498 0.888992,-0.0778 1.372928,-0.093 A 13.493063,13.493063 0 0 0 29.783497,213.7916 Z"
           id="path1040"
           inkscape:connector-curvature="0" />
        <path
           style="fill:url(#linearGradient1185);fill-opacity:1;stroke:#000000;stroke-width:0.74956816;stroke-linecap:butt;stroke-linejoin:miter;stroke-miterlimit:4;stroke-dasharray:none;stroke-opacity:1"
           d="M 69.300781,106.8457 C 4.6979905,135.48173 65.654257,246.44977 90.478516,220.47852 113.88295,195.99277 36.699682,140.63404 68.896484,117.10156 a 50.997403,50.997403 0 0 1 -0.0918,-4.35742 C 27.383525,140.44058 106.40649,196.91068 86.826172,217.03906 67.703248,236.69734 15.279919,137.09077 68.830078,112.06836 a 50.997403,50.997403 0 0 1 0.470703,-5.22266 z"
           id="path1045"
           inkscape:connector-curvature="0"
           transform="matrix(0.26458333,0,0,0.26458333,0,197)" />
        <path
           id="path1059"
           d="m 29.783497,213.7916 a 13.493063,13.493063 0 0 0 -11.450553,15.26428 13.493063,13.493063 0 0 0 15.26436,11.45106 13.493063,13.493063 0 0 0 11.570456,-13.44176 c -0.499643,0.10082 -0.978518,0.20464 -1.418897,0.31127 -1.034789,0.25028 -1.867208,-3.02126 -0.49905,-3.39065 l 7.2e-5,5e-4 c 0.04408,-0.0123 0.09093,-0.02 0.139531,-0.027 0.42961,-0.0498 0.888992,-0.0778 1.372928,-0.093 A 13.493063,13.493063 0 0 0 29.783497,213.7916 Z"
           style="opacity:1;vector-effect:none;fill:none;fill-opacity:1;fill-rule:evenodd;stroke:#000000;stroke-width:0.19832325;stroke-linecap:butt;stroke-linejoin:miter;stroke-miterlimit:4;stroke-dasharray:none;stroke-dashoffset:0;stroke-opacity:1"
           inkscape:connector-curvature="0" />
        <path
           style="fill:#ffd5d5;fill-rule:nonzero;stroke:none;stroke-width:1;stroke-linecap:butt;stroke-linejoin:miter;stroke-miterlimit:4;stroke-dasharray:none;stroke-opacity:1"
           d="m 35.852616,215.40471 c -2.617526,-1.01093 -5.236546,-0.47279 -5.236546,-0.47279 0,0 0.641062,0.18415 1.534197,0.51185 0.894941,0.32836 2.036663,0.82582 3.201481,1.26827 0.266383,0.10206 0.529781,0.21015 0.787943,0.32368 1.149549,0.52934 2.324463,0.96439 3.126135,1.43519 0.796457,0.46775 1.272119,0.94948 1.272119,0.94948 0,0 -0.163967,-0.6592 -0.812865,-1.47017 -0.685719,-0.85699 -1.728333,-1.65247 -3.021811,-2.19605 -0.279616,-0.12297 -0.563801,-0.23956 -0.850653,-0.34946 z"
           id="path1235"
           inkscape:connector-curvature="0"
           sodipodi:nodetypes="cc"
           inkscape:path-effect="#path-effect1237"
           inkscape:original-d="m 30.61607,214.93192 c 3.220037,0.12358 8.38595,2.03639 9.921875,4.48847" />
        <path
           style="opacity:1;fill:#ffd5d5;fill-rule:nonzero;stroke:none;stroke-width:0.94261163;stroke-linecap:butt;stroke-linejoin:miter;stroke-miterlimit:4;stroke-dasharray:none;stroke-opacity:1"
           d="m 64.645394,214.35024 c -1.763951,-0.47757 -3.461812,0.17712 -3.461812,0.17712 0,0 1.653975,0.67335 3.119511,1.07701 0.544352,0.14858 1.072121,0.34352 1.578616,0.59799 1.430044,0.71617 2.984264,1.59837 2.984264,1.59837 0,0 -0.576921,-1.84128 -2.400651,-2.76001 -0.592283,-0.29756 -1.202731,-0.52202 -1.819928,-0.69048 z"
           id="path1235-4"
           inkscape:connector-curvature="0"
           sodipodi:nodetypes="cc"
           inkscape:path-effect="#path-effect1237-6-4"
           inkscape:original-d="m 61.183582,214.52736 c 2.757059,0.0968 5.583122,0.6897 7.682391,3.27337" />
        <path
           style="fill:#ffd5d5;fill-rule:nonzero;stroke:none;stroke-width:0.80000001;stroke-linecap:butt;stroke-linejoin:miter;stroke-miterlimit:4;stroke-dasharray:none;stroke-opacity:1"
           d="m 86.278454,30.213723 c -1.545964,-0.562135 -3.148589,-0.282042 -3.148589,-0.282042 0,0 1.434041,0.726229 2.807914,1.222223 0.280418,0.101609 0.561261,0.212888 0.837133,0.333462 0.998784,0.447529 1.45683,0.585395 2.223461,0.998383 0.585486,0.315405 0.95996,0.612464 0.95996,0.612464 0,0 -0.169791,-0.447609 -0.645734,-0.998357 -0.498575,-0.576937 -1.227878,-1.140735 -2.137201,-1.528793 -0.297172,-0.129884 -0.597749,-0.248927 -0.896944,-0.35734 z"
           id="path1257"
           inkscape:connector-curvature="0"
           sodipodi:nodetypes="cc"
           inkscape:path-effect="#path-effect1276"
           inkscape:original-d="m 83.129865,29.931681 c 1.874245,0.240599 5.360014,1.31535 6.828468,3.166532"
           transform="translate(0,197)" />
        <path
           style="fill:#ffd5d5;fill-rule:nonzero;stroke:none;stroke-width:0.93339431;stroke-linecap:butt;stroke-linejoin:miter;stroke-miterlimit:4;stroke-dasharray:none;stroke-opacity:1"
           d="m 77.948343,51.084037 c -1.171792,-0.339 -2.441461,-0.154087 -2.441461,-0.154087 0,0 1.069859,0.692111 2.190643,1.018431 0.481926,0.139847 0.966788,0.320243 1.491361,0.607293 1.284303,0.697914 2.690206,1.567466 2.690206,1.567466 0,0 -0.736204,-1.519026 -2.258173,-2.35699 -0.590927,-0.323359 -1.146076,-0.529331 -1.672576,-0.682113 z"
           id="path1278"
           inkscape:connector-curvature="0"
           sodipodi:nodetypes="cc"
           inkscape:path-effect="#path-effect1287"
           inkscape:original-d="m 75.506882,50.92995 c 1.971762,0.612366 3.668157,0.407474 6.37221,3.19319"
           transform="translate(0,197)" />
        <path
           style="fill:#ffd5d5;fill-rule:nonzero;stroke:none;stroke-width:0.80000001;stroke-linecap:butt;stroke-linejoin:miter;stroke-miterlimit:4;stroke-dasharray:none;stroke-opacity:1"
           d="m 58.547548,62.482419 c -1.389315,-0.433284 -2.72892,-0.02722 -2.72892,-0.02722 0,0 1.273175,0.414983 2.491774,0.791264 0.452822,0.140549 0.895633,0.316155 1.308777,0.521008 1.03252,0.517651 2.112788,1.059745 2.112788,1.059745 0,0 -0.528867,-1.1735 -1.757405,-1.776476 -0.453836,-0.225029 -0.935143,-0.415651 -1.427014,-0.56832 z"
           id="path1289"
           inkscape:connector-curvature="0"
           sodipodi:nodetypes="cc"
           inkscape:path-effect="#path-effect1237-6-21"
           inkscape:original-d="m 55.818628,62.455198 c 2.070574,-0.02036 4.643769,0.924406 5.913339,2.372017"
           transform="translate(0,197)" />
        <path
           style="display:inline;opacity:1;vector-effect:none;fill:none;fill-opacity:1;fill-rule:evenodd;stroke:#000000;stroke-width:0.19832325;stroke-linecap:butt;stroke-linejoin:miter;stroke-miterlimit:4;stroke-dasharray:none;stroke-dashoffset:0;stroke-opacity:1"
           d="m 32.33312,262.46302 a 7.6030406,7.6030406 0 0 0 -5.972141,8.94112 7.6030406,7.6030406 0 0 0 8.941614,5.97205 7.6030406,7.6030406 0 0 0 5.980108,-6.04314 c -0.141042,0.0242 -0.281725,0.0509 -0.422523,0.0801 -0.733104,0.15365 -0.786114,-2.57347 -0.01204,-2.43661 0.175995,0.031 0.348068,0.0574 0.518029,0.0817 a 7.6030406,7.6030406 0 0 0 -0.09205,-0.62358 7.6030406,7.6030406 0 0 0 -8.941032,-5.97165 z"
           id="path10-5-5-8"
           inkscape:connector-curvature="0" />
      </g>
    </g>
  </g>
</svg>
