<svg cursor="default" version="1.1" viewBox="0 0 256 256" xmlns="http://www.w3.org/2000/svg" xmlns:xlink="http://www.w3.org/1999/xlink">
 <defs>
  <linearGradient id="linearGradient1131" x1="147.53" x2="162.44" y1="195.25" y2="124.47" gradientTransform="matrix(1.0993 .040024 -.040024 1.0993 -14.337 -6.483)" gradientUnits="userSpaceOnUse">
   <stop stop-color="#f55" offset="0"/>
   <stop stop-color="#ff8080" offset="1"/>
  </linearGradient>
  <linearGradient id="linearGradient1139" x1="164.07" x2="166.51" y1="114.31" y2="104" gradientUnits="userSpaceOnUse">
   <stop stop-color="#f55" offset="0"/>
   <stop stop-color="#ff8080" offset="1"/>
  </linearGradient>
  <linearGradient id="linearGradient1147" x1="36.113" x2="30.78" y1="135.05" y2="119.59" gradientUnits="userSpaceOnUse">
   <stop stop-color="#ff2a2a" offset="0"/>
   <stop stop-color="#ff8080" offset="1"/>
  </linearGradient>
 </defs>
 <g>
  <g stroke="#000" stroke-linecap="round" stroke-linejoin="round" stroke-width=".825">
   <path d="m49.023 146.11 29.449 20.174s5.8365 3.6668 15.085 3.0821c26.686-1.6872 44.347-26.664 46.854-49.163 2.4786-22.24-17.713-61.329-17.713-61.329z" fill="#ff8080"/>
   <path d="m133.71 79.802c-0.85127-8.0906-3.8549-16.26-7.4678-24.451-2.927 1.7342-14.985 0.74791-15.094 2.5847 3.8246 3.5485 9.725 2.9349 12.546 1.8001l7.8854 21.182z" fill="#faa"/>
   <path d="m44.592 104.91 1.9208 22.934c-9.2664 4.625-12.863 9.4564-19.123 14.191l-13.591-1.0802c6.354-19.401 19.112-26.705 30.793-36.044z" fill="url(#linearGradient1147)"/>
   <path d="m33.394 146c5.4467 20.51 46.14 38.943 107.82 39.447 31.536 0.25774 87.689-7.4414 88.382-33.498 35.476 37.591-55.401 53.497-92.733 50.503-107.21-8.596-131.08-46.921-103.47-56.453z" fill="#faa"/>
   <path d="m134.21 90.864 5.0374 13.318c35.411 11.588 57.68 22.697 86.52 34.045 7.559-26.649-90.29-53.786-91.558-47.363z" fill="url(#linearGradient1139)"/>
   <path d="m49.308 135.24c0.63436-3.5285-27.283-3.4335-35.51 5.7236 9.4674-18.469 23.618-28.192 34.876-35.316-2.4006-7.5662-5.5898-8.8994-9.3074-3.7284-1.5814 2.1996-29.087 23.262-27.174 48.387 3.1912 41.903 95.959 53.09 133.71 53.823 68.075 1.3221 103.64-22.022 104.23-46.503 0.67798-28.19-45.282-56.992-119.46-80.468 1.6385 3.0944 3.4641 9.1807 3.5306 13.71 27.144 7.4757 57.694 20.385 86.61 35.69-17.3-5.5721-57.024-7.4189-88.37 0.3645-4.9713 4.6295-6.9779 9.965-8.0279 15.528l3.0512 6.3797c54.701-17.461 104.06-0.94512 103.47 15.409-0.94346 26.236-52.27 37.085-82.369 36.403-74.322-1.6835-117.57-27.004-117.09-43.068 0.22336-7.3519 25.261-9.2294 25.261-9.2294z" fill="url(#linearGradient1131)"/>
   <path d="m45.57 142.4 5.4269 1.6751s18.496 14.059 28.807 11.708c25.072-5.7163 46.614-32.2 47.805-57.888 0.64434-13.9-9.0617-32.01-13.275-37.902 1.8306 1.0393 3.9521 1.4097 8.4142 0.19546 3.5629 7.9393 10.965 19.615 9.6857 38.516-1.2901 19.065-21.516 60.215-53.288 60.643-18.74 0.25251-32.544-15.65-33.577-16.947z" fill="#faa"/>
   <path d="m45.028 66.274 9.5727 13.781 14.298-13.509-9.967-13.199z" fill="#faa"/>
  </g>
  <path d="m39.521 102.02c2.0867-24.608 28.621-57.279 53.317-57.103 22.546 0.16046 36.518 27.17 36.618 49.716 0.12082 27.269-24.617 63.9-51.856 62.613-23.655-1.1177-40.976-21.048-38.078-55.225z" fill="#ffe6d5"/>
  <g stroke="#000" stroke-linecap="round" stroke-linejoin="round" stroke-width=".275">
   <path d="m77.803 157.27 9.3731-24.98 11.521 19.007c-4.0782 2.6958-12.217 6.0686-20.894 5.9737z" fill="#ffb380"/>
   <path d="m87.176 132.29 5.5838-22.184 16.288-4.6308z" fill="#fca"/>
   <path d="m109.05 105.47-8.021-17.456-8.2667 22.087z" fill="#ffb380"/>
   <path d="m129.58 93.126-18.042-19.206-10.513 14.095 8.021 17.456z" fill="#fca"/>
   <path d="m129.58 93.126c-0.0645 10.903-3.3496 27.108-14.439 41.602l-6.0944-29.258z" fill="#ffe6d5"/>
   <path d="m115.14 134.73-17.965-14.765 11.871-14.493z" fill="#fca"/>
   <path d="m115.14 134.73-27.966-2.443 10.001-12.322z" fill="#ffb380"/>
   <path d="m87.176 132.29 11.521 19.007c10.354-7.2696 11.854-10.853 16.445-16.564z" fill="#fca"/>
   <path d="m111.54 73.92 12.797-3.0415c3.9358 7.5204 4.1819 14.832 5.2446 22.248z" fill="#ffb380"/>
   <path d="m111.54 73.92 5.9629-16.201c3.5492 4.358 4.8054 8.8564 6.8342 13.159z" fill="#f95"/>
   <path d="m111.54 73.92-16.617-19.112 6.1043 33.207z" fill="#ffb380"/>
   <path d="m111.54 73.92 5.9629-16.201c-3.6777-4.1035-8.0612-7.1222-12.626-9.8625l0.0778 18.361z" fill="#ff7f2a"/>
   <path d="m104.95 66.217-0.0778-18.361-9.9544 6.9509z" fill="#f95"/>
   <path d="m94.923 54.808-6.978-9.2091c5.8555-1.2636 12.031 0.19948 16.932 2.2583z" fill="#ff7f2a"/>
   <path d="m79.746 61.718-8.9103-9.4288c5.0793-2.4567 8.1069-5.6587 17.109-6.6904l6.978 9.2091z" fill="#ffb380"/>
  </g>
 </g>
 <g fill="#ffe6d5" stroke="#000" stroke-linecap="round" stroke-linejoin="round" stroke-width=".275">
  <path d="m79.746 61.718 17.555 6.2777-2.3778-13.188z"/>
  <path d="m97.3 67.995-4.5403 42.106 8.2667-22.087z"/>
  <path d="m92.76 110.1-20.258 11.203 14.675 10.982z"/>
 </g>
 <g stroke="#000" stroke-linecap="round" stroke-linejoin="round" stroke-width=".275">
  <path d="m72.502 121.3-10.001 12.322 15.302 23.64 9.3731-24.98z" fill="#fca"/>
  <path d="m62.501 133.63-2.3701 18.554c5.8437 2.9879 11.726 4.9053 17.672 5.0863z" fill="#ffe6d5"/>
  <path d="m49.042 142.54 13.459-8.9128-2.3701 18.554c-4.9689-2.3498-8.8883-6.643-11.089-9.6407z" fill="#f95"/>
  <path d="m62.501 133.63-4.9368-20.179 14.938 7.8572z" fill="#ffe6d5"/>
  <path d="m57.564 113.45-10.369-2.1685 20.536-43.431z" fill="#ffe6d5"/>
  <path d="m79.746 61.718-8.9103-9.4288-3.1037 15.558z" fill="#fca"/>
  <path d="m47.196 111.28 1.8468 31.261 13.459-8.9128-4.9368-20.179z" fill="#ffb380"/>
  <path d="m47.196 111.28-7.9458-3.1251c-0.68826 12.995 3.2655 27.819 9.7926 34.386z" fill="#f95"/>
 </g>
 <path d="m46.363 112.01c0.06599 1.1091-0.09933 4.458-0.03334 5.5671 0.23514 3.9519 1.3039 15.786 1.539 19.738-0.23514-3.9519-0.57727-15.829-0.81242-19.781-0.06599-1.1091-0.62728-4.4148-0.69327-5.5239z" fill="#fff"/>
 <g stroke="#000" stroke-linecap="round" stroke-linejoin="round">
  <g stroke-width=".275">
   <path d="m47.196 111.28-5.3819-20.046c-2.0447 5.5971-1.9241 11.273-2.5639 16.921z" fill="#ff7f2a"/>
   <path d="m47.196 111.28 8.0904-17.242-13.472-2.8039z" fill="#f95"/>
   <path d="m55.286 94.035-4.7257-13.679 17.172-12.509z" fill="#fca"/>
   <path d="m50.56 80.356-8.7465 10.875 13.472 2.8039z" fill="#ffb380"/>
   <path d="m41.814 91.232c2.5382-6.872 5.353-13.634 10.601-20.808l-1.8541 9.9323z" fill="#ff7f2a"/>
   <path d="m50.56 80.356 17.172-12.509-10.645-2.7756-4.6724 5.3522z" fill="#f95"/>
   <path d="m67.732 67.847 3.1037-15.558c-5.8925 4.005-10.511 8.259-13.749 12.783z" fill="#ff7f2a"/>
  </g>
  <path d="m107.06 143.61 12.26 15.819c10.15 2.3783 13.507-10.397 11.635-12.114l-10.175-19.773c1.3736 4.8235-7.9158 16.66-13.719 16.067z" fill="#faa" stroke-width=".825"/>
 </g>
 <path d="m61.379 135.82c-0.03612 0.29239-0.41495 1.1362-0.45107 1.4285-0.33447 2.7076-1.0674 10.864-1.4019 13.571 0.33447-2.7076 1.6083-10.797 1.9428-13.505 0.03612-0.29239-0.126-1.203-0.08988-1.4954z" fill="#fff"/>
 <path d="m39.521 102.02c2.0867-24.608 28.621-57.279 53.317-57.103 22.546 0.16046 36.518 27.17 36.618 49.716 0.12082 27.269-24.617 63.9-51.856 62.613-23.655-1.1177-40.976-21.048-38.078-55.225z" fill="none" stroke="#000" stroke-linecap="round" stroke-linejoin="round" stroke-width=".825"/>
 <path d="m35.978 136.54c-1.1325 3.1815 1.9168 7.7727 6.5551 12.627 7.6462 5.1498 18.13 9.8897 27.821 14.744l2.2373-2.0081-22.752-14.539c5.3198-12.18-9.0695-16.658-13.861-10.824z" fill="#faa" stroke="#000" stroke-linecap="round" stroke-linejoin="round" stroke-width=".825"/>
 <path d="m65.9 68.181c-0.26276-0.06033-0.99426-0.48865-1.257-0.54899-1.6212-0.37225-6.5416-1.2417-8.1628-1.6139 1.6212 0.37225 6.4281 1.7363 8.0493 2.1086 0.26276 0.06033 1.1078-6e-3 1.3706 0.05435z" fill="#fff"/>
 <path d="m45.028 66.274c15.851 11.618 18.48-9.7612 13.903-12.926-3.0761-3.8339-18.31 8.1481-13.903 12.926z" fill="#ffd5d5" stroke="#000" stroke-linecap="round" stroke-linejoin="round" stroke-width=".825"/>
 <path d="m42.533 149.17c17.891-11.354-1.4335-19.547-6.5551-12.627-1.1739-0.10615-0.27848 8.2074 6.5551 12.627z" fill="#ffd5d5" stroke="#000" stroke-linecap="round" stroke-linejoin="round" stroke-width=".825"/>
 <g fill="#fff">
  <path d="m113.02 129.42 0.5383-0.11282c-0.9172-4.3761-4.2071-17.392-5.1243-21.768 0.9172 4.3761 3.1305 17.617 4.0477 21.993l0.5383-0.11282z"/>
  <path d="m111.82 133.49s0.35582-0.4194 0.35582-0.4194c-2.9177-2.4754-12.027-9.4823-14.944-11.958 2.9177 2.4754 11.315 10.321 14.233 12.796 0 0 0.35582-0.4194 0.35582-0.4194z"/>
  <path d="m111.89 135.71 0.06-0.54672c-4.6778-0.5132-18.771-1.5061-23.449-2.0193 4.6778 0.5132 18.651 2.5995 23.329 3.1127l0.06-0.54672z"/>
 </g>
 <path d="m107.06 143.61c9.6424 2.1192 17.084-9.9539 13.719-16.067-7.8311-4.6152-20.405 7.0322-13.719 16.067z" fill="#ffd5d5" stroke="#000" stroke-linecap="round" stroke-linejoin="round" stroke-width=".825"/>
 <path d="m111.22 72.628c0.585-1.7419 2.6887-6.8505 3.2737-8.5923 0.36273-1.0801 1.1022-4.4374 1.4649-5.5175-0.36273 1.0801-1.7996 4.2032-2.1624 5.2832-0.585 1.7419-1.9913 7.0847-2.5763 8.8266z" fill="#fff"/>
 <path d="m126.25 55.351c-16.547 8.4259-22.522-0.53462-10.352-10.825 3.1239-2.7714 12.669 9.3536 10.352 10.825z" fill="#ffd5d5" stroke="#000" stroke-linecap="round" stroke-linejoin="round" stroke-width=".825"/>
 <g fill="#fff">
  <path d="m94.959 68.167c-0.16994 1.9589-0.69255 5.4934-1.2251 8.9477-0.53003 3.438-1.0352 6.5997-1.1843 8.2095-0.23587 2.5477-0.47752 7.4236-0.62257 12.153-0.14537 4.7401-0.17012 9.4436-0.2573 11.838 0.09553-2.6239 0.503-6.8769 1.0855-11.776 0.55876-4.6997 1.2156-9.5484 1.4483-12.062 0.14374-1.5526 0.24566-4.8629 0.35726-8.2857 0.11075-3.3966 0.23676-7.1639 0.39818-9.0246z"/>
  <path d="m110.05 74.357c-0.50894-0.63401-1.6725-2.8277-2.1814-3.4617-2.3688-2.9509-9.8384-11.512-12.207-14.463 2.3688 2.9509 9.1119 12.095 11.481 15.046 0.50894 0.63401 2.3991 2.2444 2.908 2.8784z"/>
  <path d="m127.44 92.912c-1.6264-1.7849-6.3055-7.3219-7.932-9.1068-1.5128-1.6602-6.2516-6.4583-7.7645-8.1184 1.5128 1.6602 5.8511 6.8232 7.364 8.4834 1.6264 1.7849 6.7061 6.9569 8.3325 8.7418z"/>
  <path d="m123.73 72.12c-0.78154 0.15615-3.1719 0.39582-3.9534 0.55196-1.41 0.2817-5.5941 1.3556-7.004 1.6372 1.4099-0.2817 5.6855-0.89802 7.0954-1.1797 0.78154-0.15615 3.0804-0.85335 3.862-1.0095z"/>
  <path d="m128.07 95.51c-0.90937 0.5417-3.8059 1.884-4.7153 2.4257-2.6722 1.5918-10.52 6.6499-13.193 8.2417 2.6722-1.5918 10.857-6.0843 13.529-7.6761 0.90937-0.54169 3.469-2.4496 4.3784-2.9912z"/>
  <path d="m107.35 105.24c-0.27031-0.64188-0.71252-2.7228-0.98283-3.3647-0.97312-2.3108-4.2612-9.088-5.2343-11.399 0.97312 2.3108 3.5238 9.3985 4.4969 11.709 0.2703 0.64187 1.4499 2.4122 1.7202 3.0541z"/>
  <path d="m96.881 150.71c-0.3461-0.61139-1.0444-2.638-1.3905-3.2494-1.5479-2.7344-6.5316-10.745-8.0795-13.479 1.5479 2.7344 5.8516 11.13 7.3995 13.864 0.3461 0.61138 1.7244 2.2531 2.0705 2.8645z"/>
  <path d="m85.921 132.81c-0.26382-0.19913-0.78964-1.1485-1.0535-1.3476-2.4171-1.8244-9.9339-6.9457-12.351-8.7701 2.4171 1.8244 9.4026 7.6496 11.82 9.474 0.26382 0.19913 1.3209 0.44459 1.5847 0.64372z"/>
  <path d="m75.634 155.92c-0.40989-0.65172-1.3609-2.7822-1.7708-3.4339-2.1341-3.3931-8.815-13.397-10.949-16.79 2.1341 3.3931 8.2576 13.748 10.392 17.141 0.40989 0.65173 1.9183 2.4316 2.3282 3.0833z"/>
  <path d="m61.055 133.12c-0.22159-1.0384-0.35751-4.2663-0.5791-5.3046-0.58986-2.764-2.8883-10.943-3.4782-13.707 0.58986 2.764 1.8306 11.169 2.4204 13.933 0.22159 1.0384 1.4152 4.0406 1.6368 5.0789z"/>
  <path d="m71.076 121.67c-0.34215-0.19348-1.1859-1.097-1.5281-1.2905-2.1811-1.2333-8.9069-4.6101-11.088-5.8435 2.1811 1.2333 8.5415 5.2564 10.723 6.4897 0.34215 0.19348 1.5513 0.45078 1.8935 0.64426z"/>
  <path d="m86.585 130.52c0.74166-2.7915 3.2852-11.082 4.0268-13.873 0.27332-1.0288 0.77477-4.1996 1.0481-5.2284-0.27332 1.0288-1.4118 4.0304-1.6851 5.0592-0.74166 2.7915-2.6481 11.251-3.3898 14.042z"/>
  <path d="m106.53 107.23c-0.72725 0.18908-2.9973 0.41669-3.7246 0.60576-1.9258 0.50069-7.6149 2.3424-9.5407 2.843 1.9258-0.50068 7.7915-1.6631 9.7173-2.1638 0.72725-0.18908 2.8207-1.0959 3.548-1.285z"/>
  <path d="m46.165 110.21c-0.12622-0.49303-0.2032-2.0493-0.32941-2.5424-0.74236-2.8998-3.2711-11.522-4.0135-14.422 0.74236 2.8998 2.6678 11.677 3.4101 14.576 0.12622 0.49303 0.80653 1.8949 0.93275 2.3879z"/>
  <path d="m54.38 94.726c-0.31913-0.07467-1.1897-0.66962-1.5089-0.74429-2.0041-0.46889-8.103-1.5046-10.107-1.9735 2.0041 0.46889 7.9294 2.2465 9.9335 2.7154 0.31913 0.07467 1.3633-0.07228 1.6824 0.0024z"/>
  <path d="m56.903 112.39c0.89851-3.8833 3.891-15.464 4.7895-19.348 1.0302-4.4524 3.8238-17.878 4.854-22.331-1.0302 4.4524-4.4177 17.741-5.4479 22.193-0.89851 3.8833-3.2971 15.602-4.1956 19.485z"/>
  <path d="m54.379 93.302c-0.08989-0.25708-0.1314-1.1081-0.2213-1.3652-0.74174-2.1213-3.1951-8.4053-3.9369-10.527 0.74174 2.1213 2.7388 8.5649 3.4805 10.686 0.08989 0.25708 0.58775 0.94855 0.67764 1.2056z"/>
  <path d="m55.717 91.345c0.65656-1.3374 2.3335-5.4934 2.99-6.8308 1.5092-3.0742 6.3296-12.153 7.8388-15.227-1.5092 3.0742-5.744 12.441-7.2532 15.515-0.65656 1.3374-2.9191 5.2059-3.5756 6.5433z"/>
  <path d="m49.673 80.519c0.06689-0.28339 0.48541-1.0822 0.5523-1.3655 0.29491-1.2494 0.9618-5.0492 1.2567-6.2986-0.29491 1.2494-1.3975 4.9463-1.6924 6.1958-0.06689 0.28339-0.04972 1.185-0.11661 1.4684z"/>
  <path d="m67.162 66.855c0.07633-0.35289 0.56498-1.3554 0.64131-1.7083 0.48194-2.2282 1.6681-8.9688 2.15-11.197-0.48194 2.2282-2.1874 8.8564-2.6694 11.085-0.07633 0.35289-0.04565 1.4677-0.12198 1.8206z"/>
  <path d="m77.954 61.76c-0.22435-0.28154-0.71947-1.2679-0.94382-1.5495-1.0877-1.365-4.5289-5.3182-5.6166-6.6832 1.0877 1.365 4.173 5.6018 5.2608 6.9668 0.22435 0.28154 1.0753 0.98436 1.2997 1.2659z"/>
  <path d="m93.415 54.513c-0.50002 0.23055-2.0962 0.71367-2.5963 0.94422-2.205 1.0167-8.7238 4.2752-10.929 5.2919 2.205-1.0167 8.9161-3.8581 11.121-4.8748 0.50002-0.23055 1.9039-1.1307 2.404-1.3613z"/>
  <path d="m96.235 66.911s0.54401-0.08094 0.54401-0.08094c-0.33072-2.2229-1.8669-8.8108-2.1976-11.034 0.33072 2.2229 0.77886 8.9726 1.1096 11.196 0 0 0.54401-0.08094 0.54401-0.08094z"/>
  <path d="m95.234 53.841c-0.26034-0.3282-0.82227-1.4866-1.0826-1.8148-1.0111-1.2746-4.2636-4.9248-5.2747-6.1994 1.0111 1.2746 3.8254 5.2724 4.8365 6.5471 0.26034 0.3282 1.2605 1.139 1.5208 1.4672z"/>
  <path d="m104.3 64.25c8e-3 -0.91894 0.33576-3.673 0.34422-4.5919 0.0202-2.188-0.22123-8.7546-0.20107-10.943-0.0202 2.188-0.38253 8.7491-0.40269 10.937-8e-3 0.91894 0.26801 3.6785 0.25954 4.5975z"/>
  <path d="m123.02 70.419c-0.46198-0.91319-1.5715-3.7926-2.0335-4.7058-0.60134-1.1887-2.6818-4.6148-3.2832-5.8034 0.60135 1.1887 2.1289 4.8945 2.7303 6.0832 0.46199 0.91319 2.1244 3.5129 2.5864 4.4261z"/>
  <path d="m99.803 87.585c-0.07447-0.47083 0.10562-1.9471 0.03115-2.418-0.39337-2.4872-1.977-9.8849-2.3703-12.372 0.39337 2.4872 1.17 10.013 1.5634 12.5 0.07447 0.47083 0.70134 1.8195 0.77581 2.2903z"/>
  <path d="m119.09 128.82c0.0917 0.45196-2e-3 1.2276-0.23614 1.957-0.22559 0.70321-0.5604 1.271-0.63838 1.5701-0.0324 0.1243-0.0692 0.26217-0.11277 0.41165-0.25686 0.88137-0.69023 1.95-1.6529 3.1979-1.8026 2.3368-4.9505 4.4448-6.3172 5.2236 1.2869-0.73329 4.8772-2.3333 7.1544-4.4553 1.2612-1.1753 2.0093-2.3594 2.4006-3.4438 0.0658-0.18243 0.11812-0.35314 0.15871-0.50883 0.10485-0.4021 0.0502-1.1621-0.14998-1.9775-0.19401-0.79031-0.52244-1.5612-0.60636-1.9748z"/>
  <path d="m121.78 49.328c0.46349 0.52601 1.2731 1.3174 1.8965 1.9983 0.50678 0.55359 0.89363 1.034 1.1119 1.479 0.13238 0.26985 0.19834 0.5175 0.20712 0.74524 5e-3 0.13031-9e-3 0.2439-0.0343 0.33506-0.0346 0.12642-0.0929 0.26478-0.18439 0.40327-0.12862 0.19471-0.30779 0.36735-0.5415 0.51256-0.19631 0.12197-0.42419 0.22059-0.68513 0.30279-0.46545 0.14663-1.0458 0.2439-1.7529 0.32566-0.67622 0.07819-1.4778 0.14285-2.3482 0.21737-2.4704 0.2115-4.5824 0.45112-6.4804 0.84963 1.5886-0.33354 4.2654-0.8711 6.4142-1.3088 0.86295-0.17578 1.6268-0.3433 2.2668-0.52061 0.67307-0.18645 1.1524-0.36848 1.486-0.55695 0.18222-0.10298 0.3028-0.19799 0.382-0.27997 0.091-0.09421 0.12283-0.16642 0.1381-0.21102 0.01-0.0281 0.0186-0.06577 0.0239-0.08508 5e-3 -0.01974 0.0174-0.03837 0.0349-0.0759 0.0284-0.06077 0.0693-0.16994 0.0681-0.36465-2e-3 -0.34432-0.13511-0.84415-0.47358-1.5121-0.40783-0.80486-1.0468-1.7063-1.5292-2.2538z"/>
  <path d="m56.9 54.221c0.63412 0.89744 1.113 2.345 1.1101 3.7834-0.0018 0.92078-0.1783 1.5873-0.22866 2.0176-0.03412 0.2915-0.06478 0.66644-0.14457 1.1447-0.38799 2.3255-1.7689 4.8451-3.0216 6.2033 1.2642-1.3706 3.4234-3.1376 4.4222-5.8175 0.19682-0.5281 0.30374-0.99155 0.34489-1.3431 0.06076-0.51908-0.01695-1.4007-0.35484-2.3852-0.56323-1.6411-1.4553-2.6518-2.1275-3.6031z"/>
  <path d="m45.102 135.98c0.47768 0.4232 1.1031 0.84871 1.7238 1.5364 0.49233 0.5455 0.82376 1.102 0.99964 1.67 0.1129 0.36457 0.14425 0.68409 0.12448 0.89807-0.02365 0.25595-0.08724 0.55968-0.21015 0.89423-0.18007 0.49016-0.46512 0.98787-0.86296 1.4914-0.68047 0.86125-1.5738 1.5931-2.4041 2.2255-0.43289 0.32971-0.82768 0.61802-1.1441 0.86454-0.4325 0.33696-0.69522 0.57643-0.84226 0.7722 0.20316-0.2705 0.29213-0.41096 0.69973-0.91691 0.25397-0.31525 0.57086-0.69203 0.90997-1.1092 0.67244-0.82718 1.2936-1.6567 1.7087-2.5202 0.23473-0.48831 0.36004-0.89852 0.42992-1.2528 0.04725-0.23959 0.06645-0.43994 0.08121-0.59967 0.01241-0.13433 0.06708-0.32638 0.10645-0.5814 0.06046-0.39163 0.07351-0.8943-0.12949-1.5186-0.2446-0.75227-0.74595-1.4594-1.1908-1.8535z"/>
  <path d="m133.29 128.44c2.8683-0.51453 9.7394-1.6472 18.751-2.5667 9.6724-0.98688 19.986-1.5434 30.106-1.3284 6.4304 0.1366 11.456 0.55592 15.143 0.95603 2.9352 0.31857 7.6709 0.88105 12.911 1.9992 5.0491 1.0774 9.8082 2.5058 14.135 4.3617 4.2946 1.842 7.3018 3.7406 9.2372 5.1547-1.9437-1.4202-4.892-3.3658-9.1688-5.3095-4.3-1.9543-9.0431-3.499-14.097-4.6839-5.2341-1.2272-10.005-1.8762-12.945-2.1952-3.6878-0.40024-8.7732-0.78355-15.207-0.85618-10.139-0.11447-20.485 0.57492-30.138 1.6874-8.9829 1.0352-15.882 2.2704-18.728 2.7809z"/>
  <path d="m136.19 81.534c2.7484 0.94805 14.875 5.169 20.643 7.2574 8.5368 3.0911 15.009 5.6725 21.647 8.6507 2.0818 0.93394 3.8431 1.7559 5.2798 2.4294 4.1186 1.9308 10.797 5.0272 20.078 10.279 9.3564 5.2946 18.468 11.171 24.774 15.494-6.5866-4.5158-14.958-10.267-24.455-16.038-9.0058-5.4728-15.85-8.9966-19.862-10.878-1.4331-0.67183-3.2408-1.4847-5.3411-2.3746-6.6692-2.8258-13.397-5.2279-21.962-8.0275-7.9387-2.595-16.108-5.1731-20.803-6.7926z"/>
 </g>
 <path d="m35.448 155.18c1.5631 2.8312 4.6739 6.7653 10.134 10.674 5.2067 3.7267 10.745 6.1889 14.914 7.951 0.40512 0.17125 0.62996 0.26572 1.0351 0.43697 7.6446 3.2341 19.973 7.4153 39.051 10.067 17.298 2.4046 36.118 2.9749 54.338 2.0076 17.98-0.95456 32.088-3.2233 40.768-5.0041-8.733 1.7916-22.681 4.3034-40.727 5.636-18.224 1.3457-37.132 1.213-54.611-0.81755-19.233-2.2344-31.998-6.2097-39.822-9.5195-0.32716-0.13841-0.68133-0.2933-1.0581-0.46377-4.1812-1.8919-9.7678-5.0403-14.658-9.3238-5.2515-4.5999-7.7732-8.7622-9.3641-11.644z" fill="#ffd5d5"/>
</svg>
