<svg cursor="default" version="1.1" viewBox="0 0 256 256" xmlns="http://www.w3.org/2000/svg" xmlns:xlink="http://www.w3.org/1999/xlink">
 <defs>
  <linearGradient id="linearGradient1554" x1="387.73" x2="397.32" y1="207.68" y2="174.31" gradientTransform="translate(-282.16 -8.2006)" gradientUnits="userSpaceOnUse">
   <stop stop-color="#f55" offset="0"/>
   <stop stop-color="#ff8080" offset="1"/>
  </linearGradient>
  <linearGradient id="linearGradient1562" x1="311.03" x2="403.07" y1="175.46" y2="117.93" gradientTransform="translate(-282.16 -8.2006)" gradientUnits="userSpaceOnUse">
   <stop stop-color="#f55" offset="0"/>
   <stop stop-color="#ff8080" offset="1"/>
  </linearGradient>
  <linearGradient id="linearGradient1570" x1="340.95" x2="442.19" y1="222.25" y2="163.19" gradientTransform="translate(-282.16 -8.2006)" gradientUnits="userSpaceOnUse">
   <stop stop-color="#ff2a2a" offset="0"/>
   <stop stop-color="#f55" offset="1"/>
  </linearGradient>
 </defs>
 <path d="m176.33 173.59c-17.312 7.2185-55.673 0.86131-77.47-10.93-27.446-1.8699-38.505 1.3533-47.172 15.724 5.2096 21.877 96.449 54.995 141.71 15.916 4.907-11.362-5.4818-16.971-17.066-20.71z" fill="url(#linearGradient1554)" stroke="#000" stroke-linecap="round"/>
 <path d="m43.265 86.443c-8.2254 38.523-4.7459 63.617-2.8475 85.424 26.842-13.819 141.53-14.139 161.22 20.61 9.6803-24.415 13.98-43.448 15.729-59.932-16.67-91.968-135.06-102.51-174.1-46.102z" fill="url(#linearGradient1562)" stroke="#000" stroke-linecap="round"/>
 <g fill="#faa" stroke="#000" stroke-linecap="round">
  <path d="m43.6 85.341c-3.0979 5.6035-1.3859 5.5236-1.5832 7.3092 13.13-39.131 150.1-70.688 174.58 46.101 1.2451-0.45996 1.9059-1.1875 0.76678-6.2056-14.811-91.596-134.19-103.51-173.77-47.204z"/>
  <path d="m39.628 163.2c-2.7618 4.6131-0.0596 6.1698 0.78901 8.6678 26.842-13.819 141.53-14.139 161.22 20.61 1.8248-2.4715 4.5144-2.7519 3.7896-10.036-20.557-37.894-156.14-35.76-165.8-19.242z"/>
  <path d="m56.312 101.47 9.0813 34.227s17.078 16.84 27.4 15.984c25.099-2.0809 48.362-25.558 51.555-51.212 1.7274-13.881-6.3898-33.509-10.068-40.05 1.718 1.3127 3.7745 1.9953 8.257 1.427 2.878 8.5036 9.2365 21.325 6.4913 40.142-2.7687 18.98-25.892 57.396-57.162 53.18-18.444-2.4866-31.579-16.909-34.424-35.246-0.76188-6.6018-0.88819-11.448-1.1294-18.453z" stroke-linejoin="round" stroke-width=".825"/>
  <path d="m66.811 59.803 8.6371 9.5694 6.4248-9.1807-4.6224-9.886z" stroke-linejoin="round" stroke-width=".66619"/>
 </g>
 <path d="m57.42 91.736c3.9881-24.437 32.646-53.405 56.912-49.617 22.153 3.4584 33.764 32.658 32.088 55.342-2.0272 27.435-29.231 60.648-55.909 55.37-23.168-4.5831-38.629-27.155-33.09-61.094z" fill="#ffe6d5"/>
 <g stroke="#000" stroke-linecap="round" stroke-linejoin="round" stroke-width=".275">
  <g transform="matrix(.98314 .14624 -.078697 1.0054 26.594 -16.619)">
   <path d="m77.803 157.27 9.3731-24.98 11.521 19.007c-4.0782 2.6958-12.217 6.0686-20.894 5.9737z" fill="#ffb380"/>
   <path d="m87.176 132.29 5.5838-22.184 16.288-4.6308z" fill="#fca"/>
   <path d="m109.05 105.47-8.021-17.456-8.2667 22.087z" fill="#ffb380"/>
   <path d="m129.58 93.126-18.042-19.206-10.513 14.095 8.021 17.456z" fill="#fca"/>
   <path d="m129.58 93.126c-0.0645 10.903-3.3496 27.108-14.439 41.602l-6.0944-29.258z" fill="#ffe6d5"/>
   <path d="m115.14 134.73-17.965-14.765 11.871-14.493z" fill="#fca"/>
   <path d="m115.14 134.73-27.966-2.443 10.001-12.322z" fill="#ffb380"/>
   <path d="m87.176 132.29 11.521 19.007c10.354-7.2696 11.854-10.853 16.445-16.564z" fill="#fca"/>
   <path d="m111.54 73.92 12.797-3.0415c3.9358 7.5204 4.1819 14.832 5.2446 22.248z" fill="#ffb380"/>
   <path d="m111.54 73.92 5.9629-16.201c3.5492 4.358 4.8054 8.8564 6.8342 13.159z" fill="#f95"/>
   <path d="m111.54 73.92-16.617-19.112 6.1043 33.207z" fill="#ffb380"/>
   <path d="m111.54 73.92 5.9629-16.201c-3.6777-4.1035-8.0612-7.1222-12.626-9.8625l0.0778 18.361z" fill="#ff7f2a"/>
   <path d="m104.95 66.217-0.0778-18.361-9.9544 6.9509z" fill="#f95"/>
   <path d="m94.923 54.808-6.978-9.2091c5.8555-1.2636 12.031 0.19948 16.932 2.2583z" fill="#ff7f2a"/>
   <path d="m79.746 61.718-8.9103-9.4288c5.0793-2.4567 8.1069-5.6587 17.109-6.6904l6.978 9.2091z" fill="#ffb380"/>
  </g>
  <g transform="matrix(.98314 .14624 -.078697 1.0054 26.594 -16.619)" fill="#ffe6d5">
   <path d="m79.746 61.718 17.555 6.2777-2.3778-13.188z"/>
   <path d="m97.3 67.995-4.5403 42.106 8.2667-22.087z"/>
   <path d="m92.76 110.1-20.258 11.203 14.675 10.982z"/>
  </g>
  <g transform="matrix(.98314 .14624 -.078697 1.0054 26.594 -16.619)">
   <path d="m72.502 121.3-10.001 12.322 15.302 23.64 9.3731-24.98z" fill="#fca"/>
   <path d="m62.501 133.63-2.3701 18.554c5.8437 2.9879 11.726 4.9053 17.672 5.0863z" fill="#ffe6d5"/>
   <path d="m49.042 142.54 13.459-8.9128-2.3701 18.554c-4.9689-2.3498-8.8883-6.643-11.089-9.6407z" fill="#f95"/>
   <path d="m62.501 133.63-4.9368-20.179 14.938 7.8572z" fill="#ffe6d5"/>
   <path d="m57.564 113.45-10.369-2.1685 20.536-43.431z" fill="#ffe6d5"/>
   <path d="m79.746 61.718-8.9103-9.4288-3.1037 15.558z" fill="#fca"/>
   <path d="m47.196 111.28 1.8468 31.261 13.459-8.9128-4.9368-20.179z" fill="#ffb380"/>
   <path d="m47.196 111.28-7.9458-3.1251c-0.68826 12.995 3.2655 27.819 9.7926 34.386z" fill="#f95"/>
  </g>
 </g>
 <path d="m63.361 102.78c-0.0224 1.1248-0.44845 4.4678-0.47084 5.5925-0.0798 4.0078 0.0396 16.063-0.0403 20.07 0.0798-4.0078 0.67816-16 0.75798-20.007 0.0224-1.1248-0.26931-4.5306-0.24688-5.6553z" fill="#fff"/>
 <g transform="matrix(.98314 .14624 -.078697 1.0054 26.594 -16.619)" stroke="#000" stroke-linecap="round" stroke-linejoin="round" stroke-width=".275">
  <path d="m47.196 111.28-5.3819-20.046c-2.0447 5.5971-1.9241 11.273-2.5639 16.921z" fill="#ff7f2a"/>
  <path d="m47.196 111.28 8.0904-17.242-13.472-2.8039z" fill="#f95"/>
  <path d="m55.286 94.035-4.7257-13.679 17.172-12.509z" fill="#fca"/>
  <path d="m50.56 80.356-8.7465 10.875 13.472 2.8039z" fill="#ffb380"/>
  <path d="m41.814 91.232c2.5382-6.872 5.353-13.634 10.601-20.808l-1.8541 9.9323z" fill="#ff7f2a"/>
  <path d="m50.56 80.356 17.172-12.509-10.645-2.7756-4.6724 5.3522z" fill="#f95"/>
  <path d="m67.732 67.847 3.1037-15.558c-5.8925 4.005-10.511 8.259-13.749 12.783z" fill="#ff7f2a"/>
 </g>
 <path d="m76.25 128.92c-0.0586 0.28871-0.49736 1.0817-0.55589 1.3703-0.54191 2.6734-1.9044 10.767-2.4462 13.44 0.54191-2.6734 2.4309-10.621 2.9728-13.294 0.0586-0.28872-0.0293-1.228 0.0293-1.5167z" fill="#fff"/>
 <path d="m57.42 91.736c3.9881-24.437 32.646-53.405 56.912-49.617 22.153 3.4584 33.764 32.658 32.088 55.342-2.0272 27.435-29.231 60.648-55.909 55.37-23.168-4.5831-38.629-27.155-33.09-61.094z" fill="none" stroke="#000" stroke-linecap="round" stroke-linejoin="round" stroke-width=".825"/>
 <path d="m62.594 147.17c4.8185 3.2034 6.9777 2.6009 13.568 5.2409l1.6651-1.8201-8.6877-6.0684c3.9342-14.929-1.339-9.3949-6.9737-3.7094-0.42228-0.18701-1.3091 3.8592 0.42875 6.3571z" fill="#faa" stroke="#000" stroke-linecap="round" stroke-linejoin="round" stroke-width=".66817"/>
 <path d="m86.018 61.571c-0.25358-0.09905-0.93904-0.63671-1.1926-0.7358-1.5646-0.61136-6.3336-2.2051-7.8982-2.8164 1.5646 0.61136 6.1831 2.6858 7.7477 3.2972 0.25358 0.09905 1.0896 0.15597 1.3432 0.25503z" fill="#fff"/>
 <path d="m67.26 60.366c11.621 5.3367 14.161-8.3762 10.786-9.7572-2.094-2.3661-13.859 6.9695-10.786 9.7572z" fill="#ffd5d5" stroke="#000" stroke-linecap="round" stroke-linejoin="round" stroke-width=".66619"/>
 <path d="m65.793 148.31c11.801-18.526-2.4293-16.53-5.5413-7.9948-0.83602 0.46613 0.39879 7.3602 5.5413 7.9948z" fill="#ffd5d5" stroke="#000" stroke-linecap="round" stroke-linejoin="round" stroke-width=".66817"/>
 <g transform="matrix(.98314 .14624 -.078697 1.0054 25.636 -16.766)" fill="#fff">
  <path d="m113.02 129.42 0.5383-0.11282c-0.9172-4.3761-4.2071-17.392-5.1243-21.768 0.9172 4.3761 3.1305 17.617 4.0477 21.993l0.5383-0.11282z"/>
  <path d="m111.82 133.49s0.35582-0.4194 0.35582-0.4194c-2.9177-2.4754-12.027-9.4823-14.944-11.958 2.9177 2.4754 11.315 10.321 14.233 12.796 0 0 0.35582-0.4194 0.35582-0.4194z"/>
  <path d="m111.89 135.71 0.06-0.54672c-4.6778-0.5132-18.771-1.5061-23.449-2.0193 4.6778 0.5132 18.651 2.5995 23.329 3.1127l0.06-0.54672z"/>
 </g>
 <path d="m130.22 72.669c0.71222-1.6658 3.1825-6.4946 3.8947-8.1603 0.44161-1.0329 1.4328-4.3004 1.8744-5.3333-0.44161 1.0329-2.1 3.9629-2.5417 4.9957-0.71222 1.6658-2.5153 6.8321-3.2275 8.4979z" fill="#fff"/>
 <g stroke="#000" stroke-linecap="round">
  <g stroke-linejoin="round">
   <path d="m117.02 146.13 6.8718 5.1895c9.2859-0.95857 9.6474-7.9363 8.056-8.8698l-3.9311-9.8767c-1.4584 8.9922-6.1887 9.0659-10.997 13.557z" fill="#faa" stroke-width=".73124"/>
   <path d="m116.71 145.97c8.8348-1.0324 13.68-9.1739 11.106-13.481-17.01-4.1045-14.908 5.5562-11.106 13.481z" fill="#ffd5d5" stroke-width=".73124"/>
   <path d="m146.5 66.565c0.0286-1.8833-0.61717-8.3639-0.62604-9.1051-3.1457 0.76985-13.479-2.2303-13.889-0.48104 3.1511 4.6391 9.0168 5.8855 11.96 5.6645 0.2505 1.167 0.58056 2.5876 0.82538 4.2566z" fill="#faa" stroke-width=".825"/>
   <path d="m145.51 59.029c-17.556 3.0144-19.423-4.781-5.8359-10.972 3.5092-1.7153 8.3423 10.267 5.8359 10.972z" fill="#ffd5d5" stroke-width=".825"/>
  </g>
  <path d="m107.31 156.37c-21.926-0.13979-66.599 2.3576-66.932 14.92-0.43461 16.434 38.233 36.745 79.445 41.701 37.736 4.5383 76.876-4.8456 82.014-21.375 6.7199-21.62-51.985-34.975-94.527-35.246zm-8.5175 7.3577c38.78-0.48229 95.077 11.08 92.498 26.93-3.0626 18.821-46.112 23.482-78.065 18.339-31.414-5.0568-58.955-20.289-58.466-31.57 0.33669-7.7639 20.764-13.409 44.032-13.699z" fill="url(#linearGradient1570)"/>
 </g>
 <g fill="#fff">
  <g stroke-width="1.0043">
   <path d="m114.65 64.961c-0.42924 1.9957-1.4197 5.6066-2.4095 9.1366-0.98514 3.5133-1.9088 6.7451-2.271 8.3856-0.57312 2.5963-1.4602 7.5555-2.2313 12.362-0.77284 4.817-1.4202 9.5912-1.8244 12.025 0.44287-2.6671 1.4133-7.0019 2.6443-12 1.1809-4.795 2.4796-9.7457 3.045-12.307 0.34927-1.5822 0.88939-4.9462 1.4541-8.4248 0.56037-3.452 1.1851-7.2809 1.5928-9.1765z"/>
   <path d="m128.34 74.409c-0.42502-0.61996-1.2982-2.7925-1.7232-3.4125-1.9782-2.8855-8.3145-11.229-10.292-14.115 1.9782 2.8855 7.5108 11.854 9.4893 14.74 0.42502 0.61996 2.102 2.1672 2.527 2.7871z"/>
   <path d="m145.39 91.19c-1.3901-1.7364-5.3363-7.1399-6.7265-8.8764-1.293-1.6151-5.3967-6.266-6.6898-7.881 1.293 1.6151 4.9479 6.6548 6.241 8.2699 1.3901 1.7364 5.7852 6.7511 7.1753 8.4875z"/>
   <path d="m142.23 70.561c-0.80221 0.19445-3.2243 0.54774-4.0265 0.74218-1.4473 0.3508-5.7735 1.6333-7.2207 1.984 1.4472-0.35079 5.8044-1.1731 7.2516-1.5239 0.80221-0.19445 3.1934-1.0078 3.9956-1.2023z"/>
   <path d="m144.14 92.526c-0.98108 0.59159-4.0553 2.0871-5.0364 2.6787-2.8829 1.7384-11.4 7.2328-14.284 8.9712 2.8829-1.7384 11.662-6.6743 14.545-8.4127 0.98108-0.59159 3.7933-2.6456 4.7744-3.2371z"/>
   <path d="m125.39 100.14c-0.18534-0.63894-0.35209-2.7303-0.53743-3.3693-0.66723-2.3002-3.0582-9.0263-3.7254-11.327 0.66723 2.3002 2.2797 9.3754 2.9469 11.675 0.18533 0.63893 1.1306 2.3812 1.3159 3.0201z"/>
   <path d="m108.14 146.41c-0.26517-0.6045-0.69519-2.629-0.96036-3.2335-1.1859-2.7036-5.1092-10.603-6.2952-13.307 1.1859 2.7036 4.3783 11.025 5.5643 13.729 0.26516 0.6045 1.4261 2.2071 1.6913 2.8116z"/>
   <path d="m98.971 128.59c-0.23746-0.18993-0.63761-1.1291-0.87512-1.319-2.1756-1.7401-9.0145-6.5911-11.19-8.3312 2.1756 1.7401 8.39 7.3299 10.566 9.07 0.23746 0.18993 1.262 0.39035 1.4995 0.58028z"/>
   <path d="m88.327 151.47c-0.32362-0.64249-0.99261-2.7607-1.3162-3.4032-1.6849-3.3451-7.0416-13.189-8.7264-16.534 1.6849 3.3451 6.4377 13.571 8.123 16.916 0.32362 0.6425 1.5964 2.3793 1.92 3.0217z"/>
   <path d="m73.105 125.11c-0.0841-1.0436 0.20724-4.313 0.12309-5.3565-0.22397-2.7778-1.4397-10.972-1.6637-13.75 0.22398 2.7778 0.35211 11.25 0.57603 14.028 0.0841 1.0436 0.88032 4.0352 0.96448 5.0787z"/>
   <path d="m86.676 116.05c-0.31654-0.18059-1.0407-1.0586-1.3573-1.2392-2.0178-1.1511-8.2966-4.2682-10.314-5.4194 2.0178 1.1511 7.8457 4.9409 9.8639 6.092 0.31654 0.1806 1.4916 0.38603 1.8082 0.56661z"/>
   <path d="m99.938 128.15c1.1112-2.867 4.7522-11.397 5.8632-14.264 0.4095-1.0566 1.3307-4.2974 1.7402-5.3541-0.4095 1.0566-1.9453 4.1551-2.3548 5.2117-1.1112 2.867-4.1374 11.54-5.2486 14.406z"/>
   <path d="m123.73 102.22c-0.75228 0.22536-3.0525 0.56087-3.8048 0.78623-1.9921 0.59678-7.925 2.7277-9.917 3.3244 1.9921-0.59678 8.0116-2.0465 10.004-2.6433 0.75228-0.22538 2.9658-1.242 3.7181-1.4674z"/>
   <path d="m62.333 100.87c-0.061-0.49451 0.0681-2.0703 7e-3 -2.5649-0.3585-2.9086-1.7459-11.542-2.1044-14.451 0.3585 2.9085 1.1221 11.727 1.4806 14.635 0.061 0.49452 0.5557 1.8858 0.61666 2.3803z"/>
   <path d="m71.512 86.451c-0.30925-0.06108-1.1011-0.62475-1.4104-0.68583-1.942-0.38355-7.9038-1.1538-9.8458-1.5373 1.942 0.38355 7.632 1.9146 9.574 2.2982 0.30925 0.06108 1.3729-0.13613 1.6821-0.07506z"/>
   <path d="m71.697 104.26c1.4126-3.9822 5.938-15.872 7.3507-19.855 1.6196-4.5658 6.1904-18.319 7.81-22.885-1.6196 4.5658-6.7662 18.207-8.3857 22.772-1.4126 3.9822-5.3624 15.985-6.7749 19.967z"/>
   <path d="m71.7 85.006c-0.0559-0.25674 0.0153-1.1185-0.0406-1.3752-0.46094-2.1185-2.0824-8.3826-2.5434-10.502 0.46094 2.1185 1.605 8.5656 2.066 10.684 0.0559 0.25674 0.46219 0.93553 0.51805 1.1922z"/>
   <path d="m73.433 84.172c0.83359-1.3874 3.0607-5.6822 3.8942-7.0696 1.9162-3.1892 7.9384-12.624 9.8545-15.813-1.9162 3.1892-7.3909 12.89-9.307 16.079-0.8336 1.3874-3.6082 5.4174-4.4418 6.8048z"/>
   <path d="m68.686 72.25c0.10441-0.29067 0.62867-1.1206 0.73306-1.4111 0.4603-1.2815 1.6302-5.1682 2.0905-6.4497-0.4603 1.2815-2.0523 5.0839-2.5126 6.3655-0.1044 0.29067-0.20658 1.2048-0.31099 1.4955z"/>
   <path d="m87.035 58.842c0.12304-0.36163 0.7444-1.4015 0.86744-1.7631 0.7769-2.2834 2.8554-9.1784 3.6322-11.462-0.77689 2.2834-3.3598 9.0882-4.1368 11.372-0.12304 0.36163-0.23994 1.4915-0.36298 1.8532z"/>
   <path d="m100.94 55.775c-0.18708-0.27538-0.55163-1.2535-0.73871-1.529-0.90701-1.3351-3.8249-5.1884-4.7319-6.5235 0.90701 1.3351 3.4315 5.4926 4.3386 6.8277 0.18708 0.27538 0.945 0.94942 1.1321 1.2248z"/>
   <path d="m113.7 50.046c-0.53054 0.25699-2.1907 0.82076-2.7213 1.0778-2.3396 1.1333-9.2897 4.7402-11.63 5.8735 2.3396-1.1333 9.4268-4.3258 11.766-5.4591 0.53054-0.25699 2.0536-1.2351 2.5842-1.4922z"/>
   <path d="m123.42 61.427 0.55472-0.10718c-0.0365-2.2406-0.70057-8.8553-0.73698-11.096 0.0365 2.2406-0.40888 9.0696-0.37246 11.311l0.55472-0.10718z"/>
   <path d="m116.83 50.309c-0.21689-0.32107-0.62548-1.4707-0.84236-1.7918-0.84238-1.2469-3.6117-4.8014-4.4541-6.0483 0.84237 1.2469 3.1275 5.1743 3.9698 6.4213 0.21689 0.32107 1.1097 1.0978 1.3266 1.4189z"/>
   <path d="m125.74 65.009c0.12964-0.93291 0.82197-3.7428 0.95207-4.6757 0.30983-2.2213 0.93765-8.874 1.2475-11.096-0.30983 2.2213-1.5407 8.8962-1.8505 11.117-0.12964 0.93291-0.21893 3.7206-0.34905 4.6536z"/>
   <path d="m141.88 72.387c-0.3411-0.90544-1.0695-3.7764-1.4106-4.6818-0.44398-1.1786-2.0709-4.5596-2.515-5.7381 0.44399 1.1786 1.481 4.8689 1.925 6.0475 0.3411 0.90544 1.6594 3.4671 2.0005 4.3725z"/>
   <path d="m116.73 87.712c-0.0122-0.47437 0.36336-1.9808 0.35123-2.4552-0.0641-2.5059-0.66849-9.9402-0.73257-12.446 0.0641 2.5059-0.15546 10.107-0.0913 12.613 0.0122 0.47437 0.46049 1.8141 0.47264 2.2885z"/>
   <path d="m126.58 132.46c0.0319 0.45443-0.1645 1.2459-0.4952 1.9968-0.31867 0.72401-0.72864 1.3156-0.84622 1.6227-0.0489 0.12763-0.1039 0.26923-0.16726 0.42293-0.37353 0.90625-0.94836 2.0107-2.0762 3.3214-2.1119 2.4544-5.5389 4.7386-7.0087 5.5918 1.384-0.80341 5.1861-2.5924 7.7442-4.8507 1.4168-1.2508 2.3216-2.4869 2.8565-3.6053 0.0899-0.18816 0.16486-0.3638 0.22606-0.52367 0.15808-0.41288 0.20404-1.1816 0.11179-1.9999-0.0894-0.79308-0.31577-1.5603-0.34494-1.9761z"/>
   <path d="m141.94 51.788c0.39386 0.60703 1.0987 1.5421 1.632 2.3324 0.4335 0.64254 0.75676 1.1899 0.91612 1.6697 0.0967 0.29097 0.12984 0.54721 0.10847 0.77278-0.0122 0.12908-0.0413 0.23801-0.0786 0.32272-0.0513 0.11756-0.12795 0.24225-0.23777 0.36064-0.1544 0.16644-0.35642 0.30138-0.60935 0.39876-0.21246 0.0818-0.4534 0.13452-0.72522 0.16468-0.48486 0.05381-1.0781 0.03679-1.796-0.02007-0.68657-0.05437-1.4967-0.14638-2.377-0.24205-2.4984-0.27154-4.6421-0.44587-6.5929-0.42248 1.6328-0.01957 4.3807-0.0285 6.5874-0.04174 0.88622-0.0053 1.6722-0.02174 2.3357-0.07184 0.69775-0.05266 1.2012-0.13857 1.5597-0.2591 0.19586-0.06587 0.32901-0.13586 0.41907-0.20108 0.10347-0.07495 0.14485-0.13976 0.16603-0.18064 0.0137-0.02568 0.0273-0.06104 0.0352-0.07899 8e-3 -0.01836 0.0225-0.03434 0.045-0.06782 0.0364-0.05424 0.0918-0.1536 0.11637-0.34524 0.0436-0.33886-0.0234-0.85604-0.27342-1.5783-0.30128-0.87034-0.82093-1.8805-1.2308-2.5123z"/>
  </g>
  <path d="m76.547 50.785c0.51532 0.57613 0.80258 1.5305 0.60927 2.5008-0.12368 0.62116-0.38841 1.0789-0.49574 1.3714-0.0727 0.19819-0.15299 0.4525-0.29609 0.77876-0.69583 1.5864-2.4103 3.3495-3.8428 4.3233 1.4456-0.98269 3.8387-2.274 5.1923-4.1276 0.26672-0.36527 0.43499-0.68279 0.52268-0.92181 0.12947-0.35292 0.16846-0.944-0.0391-1.5925-0.34599-1.081-1.1043-1.7216-1.6505-2.3323z" stroke-width=".81756"/>
  <path d="m66.939 134.92c0.42166 0.40746 0.99075 0.81047 1.5204 1.4798 0.42012 0.53091 0.67788 1.0804 0.77857 1.6487 0.0646 0.36478 0.0537 0.68758 6e-3 0.90562-0.0575 0.26082-0.16133 0.57198-0.32852 0.91714-0.24496 0.50571-0.59589 1.0239-1.0604 1.5532-0.79447 0.90534-1.7847 1.6892-2.6987 2.3692-0.47654 0.35452-0.9095 0.66528-1.2586 0.93002-0.4771 0.36186-0.77152 0.61698-0.94448 0.82243 0.23897-0.28387 0.34653-0.4305 0.82111-0.96271 0.2957-0.33162 0.66247-0.72857 1.0568-1.1675 0.78194-0.87038 1.5129-1.7408 2.0423-2.6362 0.29937-0.50635 0.47898-0.9284 0.59576-1.2912 0.079-0.24531 0.12468-0.44951 0.16059-0.61228 0.0302-0.13689 0.11028-0.3343 0.18341-0.59491 0.1123-0.40022 0.19189-0.91092 0.0715-1.5351-0.14501-0.75214-0.55276-1.4466-0.94544-1.8261z" stroke-width="1.0043"/>
  <g>
   <path d="m149.57 65.009c4.9868 1.833 12.476 5.5117 20.215 11.261 7.8708 5.8474 13.026 11.53 16.555 15.352 0.66363 0.71883 1.4553 1.5747 2.336 2.5544 4.6659 5.1908 10.144 12.031 15.331 21.374 5.0754 9.1417 8.238 17.833 9.802 23.477-1.6101-5.8106-3.9724-14.366-8.4388-24.165-4.4553-9.7742-9.5147-17.427-14.069-22.946-0.86794-1.0518-1.6635-1.9588-2.3515-2.7041-3.5229-3.8159-9.7992-9.3702-18.176-14.418-8.6036-5.1845-16.023-7.8815-21.204-9.7858z"/>
   <path d="m150.05 57.627c5.6846 1.5319 14.056 4.4728 23.011 10.082 8.9074 5.5795 15.025 11.674 18.757 15.743 0.54973 0.5994 1.1758 1.295 1.8576 2.0795 4.6667 5.3695 10.187 12.892 14.954 23.063 4.7192 10.067 7.0718 19.296 8.2469 25.352-1.1809-6.0856-3.3588-15.287-7.9367-25.494-4.6047-10.267-10.036-17.975-14.692-23.414-0.68152-0.79616-1.3096-1.5004-1.864-2.1049-3.7441-4.0825-10.096-10.138-19.123-15.551-9.1349-5.4784-17.495-8.2145-23.212-9.7551z"/>
   <path d="m112.71 153.41c7.6214 0.18803 18.483 0.79183 30.378 2.5713 11.98 1.7922 22.516 4.3999 31.376 7.5848 9.0072 3.2377 14.638 6.4812 17.88 8.5792 0.40053 0.25925 0.88691 0.57493 1.4276 0.93805 2.2484 1.5101 4.6932 3.3491 6.8614 5.5721 2.1286 2.1823 3.329 4.071 3.9465 5.2978-0.62622-1.2441-1.6734-3.1708-3.7098-5.5156-2.0481-2.3583-4.4468-4.3832-6.6719-5.9699-0.53763-0.38339-1.0256-0.71254-1.4313-0.97515-3.2851-2.1262-9.0278-5.3258-18.113-8.4623-8.9394-3.086-19.532-5.5677-31.536-7.2446-11.95-1.6693-22.757-2.187-30.407-2.3757z"/>
  </g>
 </g>
</svg>
