<svg xmlns="http://www.w3.org/2000/svg" cursor="default" viewBox="0 0 256 256">
    <g fill-rule="evenodd">
        <path fill="#ff8080" stroke="#000" d="M51.677 45.67c-12.695 36.223 96.32 168.49 165.044 160.465l-22.816 21.544c-7.39 1.934-14.533 1.425-22.751-1.006-21.937-6.489-46.339-23.35-68.8-42.112-14.864-12.417-29.037-26.435-41.31-41.738-13.125-16.364-24.09-34.218-31.835-53.84-3.79-9.607-5.425-15.502-4.618-28.226 3.875-6.9 21.785-14.505 27.086-15.087z"/>
        <path fill="#faa" stroke="#000" d="M22.955 63.429c5.216-26.432 36.802-31.193 46.388-31.376 84.228-1.61 181.703 128.51 159.804 165.166-4.378 7.328-22.684 28.866-38.736 32.113C252.693 178.421 54.527 1.845 22.955 63.43z"/>
        <path fill="#f55" stroke="#000" d="M58.723 50.37c-13.762-3.384-25.49-2.46-32.551 5.38-14.703 16.324 20.958 79.958 63.241 118.31 29.722 26.957 87.31 69.862 108.9 51.3 28.614-24.6-19.369-92.504-52.109-122.421-22.601-20.653-59.303-45.64-87.481-52.57zm-2.785 3.585c27.847 6.094 63.694 31.313 86.36 52.023 32.084 29.32 76.8 93.328 52.664 114.719-20.884 18.507-74.407-22.744-103.535-49.163C49.99 133.95 15.762 73.934 30.17 57.936c6.59-7.317 13.11-6.75 25.768-3.98z"/>
        <path fill="#fff" d="M224.454 173.203c-1.855-9.427-4.684-18.915-8.322-28.304-10.874-21.889-26.177-42.402-43.126-59.478-23.924-24.105-51.183-41.412-74.047-46.132 22.564 5.594 49.087 23.6 72.065 48.046 16.311 17.354 30.815 37.93 40.862 59.603 4.944 8.48 9.206 17.28 12.568 26.265z"/>
    </g>
</svg>
