<?xml version="1.0" encoding="UTF-8"?>
<svg cursor="default" version="1.1" viewBox="0 0 256 256" xmlns="http://www.w3.org/2000/svg">
 <path d="m105.09 148.1c20.335 19.841 14.422 41.354-12.273 14.463-45.529-45.862-81.538-101.38-57.268-119.89 31.279-23.853 94.749 31.188 118.98 54.04 33.693 31.777 68.467 74.245 73.384 103.71 3.5403 21.215-20.939 22.644-38.184 13.189-44.93-24.636-102.08-81.07-126.31-125.27-10.126-18.474 3.0382-29.175 12.31-13.135 26.799 46.359 105.31 125.22 133.72 125.23-17.034-39.332-63.787-86.357-67.031-89.426-59.77-56.564-84.417-57.851-94.701-54.434-7.0319 12.001 26.261 61.167 57.376 91.527z" fill="#ff8080"/>
 <path d="m218.95 180.09c-3.0648-5.1802-6.9512-11.98-12.653-20.829-5.4078-8.3927-10.297-15.211-13.4-19.184-7.0792-9.065-18.177-22.146-33.492-36.333-13.203-12.231-27.276-23.219-42.301-33.469-14.649-9.9934-28.305-17.975-37.327-23.13 9.0045 5.1457 22.606 13.305 37.083 23.483 14.866 10.451 28.72 21.648 41.684 34.032 15.074 14.4 25.851 27.476 32.924 36.533 3.3834 4.3324 8.0088 10.076 14.078 18.578 5.7846 8.1032 10.615 15.608 13.403 20.32z" fill="#ffd5d5"/>
 <g fill="#f55">
  <path d="m209.45 200.43c-17.034-39.332-63.787-86.357-67.031-89.426-59.77-56.564-84.417-57.851-94.701-54.434 7.638-22.37 73.944 18.972 113.63 59.991 7.5902 7.845 18.934 20.568 28.456 33.253 20.2 26.911 34.969 55.61 19.645 50.617z"/>
  <path d="m60.543 81.559c1.3477 3.1905 3.5481 8.0301 7.5452 14.76 3.0153 5.077 6.6878 10.613 11.058 16.576 8.8115 12.024 18.376 22.914 24.442 29.379 1.6289 1.7361 3.653 3.848 6.0224 6.25 9.5981 9.7308 22.475 21.812 37.47 34.148 16.908 13.91 29.902 22.738 38.366 28.252-8.2512-5.3753-21.419-14.857-37.765-28.966-14.759-12.739-27.131-24.93-36.636-34.832-2.328-2.4251-4.3226-4.543-5.9452-6.2724-6.1863-6.5936-15.729-16.817-25.03-28.662-4.5427-5.7856-8.4045-11.172-11.587-16.119-4.1994-6.5294-6.6086-11.359-7.9417-14.515z"/>
  <path d="m31.196 47.478c-0.31778 1.0209-1.3648 2.9598-2.1881 5.1021-0.84408 2.1964-1.4157 4.405-1.4169 5.6527-8.21e-4 0.84621 0.02548 1.7654 0.08906 2.7563 0.2607 4.0629 1.13 9.0723 3.1267 15.122 3.1034 9.4027 8.4569 19.891 16.104 31.412 7.1559 10.78 15.454 21.159 23.388 30.287 10.017 11.525 19.536 21.121 23.969 25.647-4.545-4.6405-13.559-14.286-23.249-26.251-7.5972-9.3816-15.463-20.008-22.138-30.938-7.1507-11.71-11.925-22.112-14.586-31.242-1.7034-5.846-2.3592-10.548-2.5474-14.271-0.04599-0.90944-0.06347-1.7487-0.06272-2.5178 1e-3 -1.0725-0.44339-3.2021-0.65091-5.3669-0.21367-2.229-0.17822-4.3007 0.16142-5.3918z"/>
 </g>
 <path d="m209.45 200.43c0.48098 0.17538 1.2071 0.53525 1.9656 0.8033 0.59673 0.21087 1.1877 0.36013 1.775 0.40065 0.68135 0.047 1.2567-0.0626 1.6811-0.25624 0.13086-0.0597 0.23987-0.12442 0.32361-0.18799 0.29963-0.22744 0.60311-0.53441 0.86547-0.93817 0.27003-0.41557 0.48202-0.91157 0.60937-1.4885 0.11017-0.49914 0.15435-1.0472 0.12451-1.6371-0.0534-1.056-0.34434-2.2337-0.8925-3.4423-4.3627-11.017-10.467-22.3-18.069-33.634-7.7022-11.483-16.682-22.633-26.365-33.183-25.334-27.601-52.347-47.818-69.354-59.456 16.993 11.628 43.892 32.076 68.921 59.849 9.5712 10.62 18.415 21.826 25.965 33.342 7.4532 11.367 13.385 22.639 17.578 33.597 0.35789 1.12 0.46261 2.1178 0.40176 2.9202-0.0338 0.44541-0.11714 0.81801-0.22561 1.1234-0.12445 0.35034-0.27913 0.60686-0.43232 0.80015-0.14719 0.18571-0.29959 0.32046-0.43537 0.42353-0.039 0.0296-0.0801 0.0714-0.12885 0.12356-0.14874 0.15941-0.37353 0.42419-0.80382 0.65814-0.38127 0.2073-0.87009 0.3599-1.4616 0.41266-0.75932 0.0677-1.5418-0.0479-2.0427-0.23057z" fill="#faa"/>
 <path d="m220.13 179.65c-3.0648-5.1802-6.9512-11.98-12.653-20.829-5.4078-8.3927-10.297-15.211-13.4-19.184-7.0792-9.065-18.177-22.146-33.492-36.333-13.203-12.231-27.276-23.219-42.301-33.469-14.649-9.9934-28.305-17.975-37.327-23.13 9.0045 5.1457 22.606 13.305 37.083 23.483 14.866 10.451 28.72 21.648 41.684 34.032 15.074 14.4 25.851 27.476 32.924 36.533 3.3834 4.3324 8.0088 10.076 14.078 18.578 5.7846 8.1032 10.615 15.608 13.403 20.32z" fill="#fff"/>
 <g fill="#faa">
  <path d="m47.714 56.573c0.57786-1.091 1.5994-2.4988 3.1507-3.622 1.2304-0.89079 2.5534-1.436 3.8807-1.7633 1.2288-0.30295 2.335-0.38719 3.0495-0.44668 0.36244-0.03018 0.78262-0.05689 1.2612-0.06959 1.2641-0.03355 2.7896 0.03474 4.6451 0.31696 3.0699 0.46694 6.2336 1.3966 9.274 2.5098 1.5195 0.5563 2.9113 1.1232 4.0271 1.5956 1.4321 0.60625 2.6511 1.1591 3.2173 1.4286-0.64807-0.30848-1.6848-0.84565-3.153-1.569-1.0916-0.53784-2.4436-1.1856-3.9394-1.8352-2.9714-1.2903-6.1425-2.4276-9.259-3.0648-1.8897-0.38641-3.4902-0.5333-4.8268-0.53359-0.50722-1.13e-4 -0.95601 0.02097-1.3437 0.05325-0.76403 0.06362-1.9477 0.26207-3.2246 0.73325-1.3851 0.51109-2.6956 1.2714-3.8582 2.3395-1.4665 1.3472-2.321 2.8325-2.9008 3.9273z"/>
  <path d="m41.523 58.809c2.002 8.0879 5.142 18.53 11.618 30.998 4.5373 8.7355 9.3579 15.787 12.268 19.697 1.3144 1.7661 3.028 3.9695 5.1249 6.5037 5.8456 7.0644 12.449 14.045 20.232 21.667 8.2528 8.0827 15.635 14.909 19.187 18.468-1.3954-1.3982-12.71-12.777-18.643-19.005-7.5734-7.95-13.765-14.971-19.472-22.186-2.0352-2.5735-3.6792-4.7552-4.9914-6.5184-2.9134-3.9146-7.8957-10.609-12.768-19.138-6.8138-11.929-10.601-22.583-12.557-30.487z"/>
  <path d="m201.86 203.91c-4.9806-2.3574-12.787-6.5758-22.273-13.127-9.6022-6.6319-17.309-13.121-22.537-17.577-4.3914-3.7432-10.78-9.3519-18.58-17.027-11.518-11.334-23.615-24.715-36.188-40.471-12.331-15.455-22.447-29.867-28.881-39.44 6.4834 9.6459 16.345 24.016 28.548 39.702 12.381 15.913 24.314 29.509 35.716 41.017 7.713 7.7849 14.097 13.513 18.496 17.262 5.1157 4.3606 13.36 10.855 23.046 17.104 9.846 6.3523 17.542 10.138 22.654 12.557z"/>
 </g>
 <path d="m226.71 199.85c0.20201 2.3599 0.68581 4.7533 0.209 7.504-0.1949 1.1243-0.52013 1.9629-0.81792 2.4364-0.0745 0.11851-0.15416 0.2386-0.23923 0.35956-0.47292 0.67252-1.099 1.3518-1.9232 1.9463-0.67119 0.48415-1.4446 0.89117-2.3304 1.2004-0.78751 0.27494-1.6418 0.46496-2.5621 0.57109-1.6834 0.19413-3.5174 0.0995-5.441-0.20624-1.8234-0.28982-3.6594-0.75857-5.3972-1.2909-1.7584-0.53857-3.4006-1.1377-4.7508-1.65-0.70393-0.26709-1.3871-0.53314-1.9302-0.74288-0.61393-0.23707-1.1071-0.42483-1.5232-0.57187-0.22308-0.0789-0.416-0.14312-0.58344-0.19391-0.18104-0.0549-0.32972-0.0933-0.45175-0.11706-0.0657-0.0128-0.12327-0.0213-0.17376-0.0258-0.0538-5e-3 -0.0993-5e-3 -0.13783-2e-3 -0.0415 4e-3 -0.0749 0.0125-0.10111 0.025-0.0141 7e-3 -0.0261 0.0147-0.0362 0.0236-0.0107 9e-3 -0.0191 0.02-0.0255 0.0314 6e-3 -0.0114 0.0144-0.0222 0.0244-0.0325 9e-3 -0.01 0.0208-0.019 0.0344-0.0276 0.0253-0.0161 0.0581-0.03 0.10037-0.0407 0.0391-0.01 0.086-0.017 0.14191-0.0206 0.0525-3e-3 0.11267-4e-3 0.18148-7.9e-4 0.12795 6e-3 0.28413 0.0232 0.47426 0.0545 0.17581 0.0289 0.37816 0.0692 0.61157 0.12188 0.43388 0.0978 0.95089 0.23267 1.5859 0.40747 0.58215 0.16026 1.2496 0.35052 1.9908 0.55841 1.3839 0.38812 3.0614 0.84754 4.8234 1.238 1.7497 0.38771 3.5546 0.70164 5.313 0.84377 1.8596 0.15031 3.5343 0.0974 4.9972-0.18577 0.7945-0.15379 1.4959-0.36962 2.1149-0.63672 0.69367-0.29933 1.2684-0.65637 1.7506-1.0462 0.59088-0.47781 1.0364-1.0001 1.3857-1.5093 0.0632-0.0921 0.12304-0.18355 0.17984-0.27388 0.22026-0.35028 0.67161-0.90584 1.1238-1.7647 1.0466-1.9877 1.5705-4.7855 1.3824-6.9827z" fill="#ffd5d5"/>
 <path d="m105.09 148.1c20.335 19.841 14.422 41.354-12.273 14.463-45.529-45.862-81.538-101.38-57.268-119.89 31.279-23.853 94.749 31.188 118.98 54.04 33.693 31.777 68.467 74.245 73.384 103.71 3.5403 21.215-20.939 22.644-38.184 13.189-44.93-24.636-102.08-81.07-126.31-125.27-10.126-18.474 3.0382-29.175 12.31-13.135 26.799 46.359 105.31 125.22 133.72 125.23-17.034-39.332-63.787-86.357-67.031-89.426-59.77-56.564-84.417-57.851-94.701-54.434-7.0319 12.001 26.261 61.167 57.376 91.527z" fill="none" stroke="#000" stroke-linecap="round" stroke-linejoin="round" stroke-width="1.1272"/>
 <path d="m199.87 200.38c-4.9806-2.3574-12.787-6.5758-22.273-13.127-9.6022-6.6319-17.309-13.121-22.537-17.577-4.3914-3.7432-10.78-9.3519-18.58-17.027-11.518-11.334-23.615-24.715-36.188-40.471-12.331-15.455-22.447-29.867-28.881-39.44 6.4834 9.6459 16.345 24.016 28.548 39.702 12.381 15.913 24.314 29.509 35.716 41.017 7.713 7.7849 14.097 13.513 18.496 17.262 5.1157 4.3606 13.36 10.855 23.046 17.104 9.846 6.3523 17.542 10.138 22.654 12.557z" fill="#fff"/>
 <path d="m225.39 197.51c0.14773 1.7258 0.40481 5.6122-0.0312 7.4253-0.0911 0.37904-0.19193 0.68476-0.28448 0.90231-0.23289 0.54749-0.53758 1.1251-0.93835 1.69-0.47374 0.66776-1.0674 1.2976-1.8103 1.8421-0.64119 0.46993-1.3726 0.86099-2.2012 1.162-0.75637 0.27477-1.5773 0.46856-2.4608 0.58391-1.6472 0.21506-3.4495 0.14934-5.3394-0.11871-1.8155-0.2575-3.6465-0.69247-5.3776-1.1891-1.7622-0.50554-3.4144-1.0736-4.7674-1.5555-0.72701-0.25894-1.3782-0.49667-1.9442-0.70034-0.61882-0.22266-1.1178-0.39829-1.5377-0.5338-0.22546-0.0728-0.42058-0.13146-0.59-0.17717-0.18308-0.0494-0.33353-0.0829-0.45701-0.10245-0.0664-0.0105-0.12459-0.0169-0.17558-0.0196-0.0542-3e-3 -0.10012-1e-3 -0.13879 4e-3 -0.0417 5e-3 -0.0749 0.0153-0.10094 0.0287-0.0139 7e-3 -0.0258 0.0154-0.0357 0.0246-0.0105 0.01-0.0188 0.0202-0.0253 0.0316 6e-3 -0.0114 0.0145-0.0222 0.0247-0.0322 0.01-0.01 0.0212-0.0185 0.0348-0.0267 0.0255-0.0153 0.0585-0.0279 0.10054-0.037 0.039-8e-3 0.0856-0.0137 0.14095-0.0154 0.052-2e-3 0.11163 1.2e-4 0.17967 5e-3 0.12662 0.01 0.28107 0.0323 0.46899 0.0691 0.17388 0.034 0.37404 0.0799 0.60501 0.13862 0.42955 0.10919 0.94115 0.25635 1.5714 0.44554 0.57704 0.17322 1.2395 0.37768 1.9769 0.60095 1.3709 0.4151 3.0427 0.90756 4.8068 1.3325 1.7376 0.41858 3.5523 0.76922 5.3326 0.94556 1.8562 0.18385 3.5723 0.16785 5.0988-0.0982 0.81582-0.14221 1.5532-0.35164 2.2162-0.62391 0.72504-0.29771 1.3464-0.66436 1.8798-1.0847 0.61726-0.48637 1.106-1.0361 1.4986-1.6135 0.3332-0.49004 0.59148-0.99177 0.79621-1.473 0.0811-0.19071 0.20328-0.44705 0.34179-0.76925 0.35505-0.82589 0.72695-1.886 0.96151-3.325 0.22883-1.4039 0.25948-2.8158 0.18068-3.7364z" fill="#fff"/>
</svg>
