<svg xmlns="http://www.w3.org/2000/svg" width="256" height="256" x="0" y="0" version="1.1" xml:space="preserve">
    <g>
        <g>
            <path fill="#4E5050" d="M0 0h256v256H0z"/>
        </g>
    </g>
    <g>
        <path fill="#576570" d="M252.585 55.98l3.46-3.081v-4.992l-3.46 2.098zM15.652 7.823l1.793-.379L21.352 0H4.658L.045 3.315v5.68l4.402-3.688zM230.675 242.161l-9.959.42-9.959.419-5.242 5.557-5.241 5.556h-4.402l-8.912-8.072-9.957-8.491-.106-3.146 12.475-6.289 3.878.315 3.88.314 4.192-12.58 4.193-12.58-13.103-8.387-13.104-8.386-1.809 3.669-1.809 3.669-1.859.21-1.861.209-4.823-3.564-4.822-3.565v-7.966l-2.412-1.678-2.41-1.678 1.205-12.502 1.207-11.504-.524-3.144-2.097-3.565-1.992.105-2.201 1.468-2.516 1.257 1.676 27.256-2.83 11.794-2.83 11.794 11.216.786 11.217.786 2.097 6.605 2.097 6.604-4.299 2.097-4.299 2.097-2.83 8.072-2.83 8.072 1.154 10.903L161.435 256h94.61v-7.339l-12.685-3.145zM32.83 0h-6.367l2.555 2.438z"/>
        <path fill="#576570" d="M161.435 0l.261 3.46h-.996L157.556 0h-45.55l.523 6.133-8.347-5.307-12.514 10.811-11.951 1.676v11.323l4.193 4.822-7.861 3.04-11.113 1.467-1.887 9.854 4.613 1.05 5.449-.63 12.162 4.404 6.606-3.459 7.967.209 6.918 7.6-.315 1.415-1.886 2.621 2.201 3.459-.524 11.637h-4.508l-1.468-13.418-11.637.105-5.451 8.595-3.668.315-8.387-6.186-3.67 2.202-9.33-4.193-2.83.104 1.572 9.855-1.572 1.572v1.782l11.531.629 12.895 18.242.838 6.709-3.145-1.468-1.047 14.152-4.613 7.863-7.338-3.983-.734-13.419-3.985-2.621-27.779-2.097-2.516-3.355 3.04-1.781.208-6.71-8.701-9.54-3.773 3.041v4.192l.734 3.145-1.154.838v1.573l2.727 2.622-.629 11.006-4.088-7.757-1.678-3.46-.943-4.717-.735-4.612 1.783-6.186 2.305-8.91-.943-1.049-3.145 3.46-4.508 5.871-3.355 1.467-6.498.436v45.515l.262-.088.787-.262 9.121-6.761 9.119-6.762 3.826 2.673 3.826 2.674 4.405-2.831 4.402-2.83 2.619-.054 2.621-.052 2.256 6.5 2.254 6.5v1.572l-.84-.052-.84-.053-1.521-.785-1.522-.786-1.047-.158-1.044-.158-.42.63-.42.628.89.734.893.734-.473 1.258-.47 1.257V129.467l.47 17.245.473 17.245v2.936l1.572-.578 1.572-.576 1.362.419 1.365.419-.211 1.363-.209 1.363.209.891.211.892.785-.42.787-.42 1.518-1.677 1.517-1.676 2.413-2.989 2.414-2.987 2.935 1.887 2.936 1.886 1.152-.996 1.152-.996 3.567-.157 3.562-.156.317 2.673.312 2.672-.838 1.049-.84 1.048 3.041.263 3.041.262.209 3.354.209 3.355-3.982 13.051-3.984 13.052h-.838l-2.36-6.447-2.357-6.447-3.094-1.73-3.094-1.73-.89-1.206-.891-1.205-.734.052-.733.053-4.351 11.374-4.35 11.374 4.508 5.399 4.508 5.399.209 3.355.209 3.355-4.086 6.919-4.09 6.919-3.094.314-3.092.315-.47-1.94-.473-1.94-1.939.262-1.94.263-2.097-2.411.211-2.83 3.146-4.193 3.982-3.041-2.41-4.822h-3.215l-2.236 3.775-3.146-.211.048-4.351.051-4.35 1.365-1.573 1.362-1.572 2.935-.996 2.936-.996 1.625-.471 1.625-.473-.053-6.551-.053-6.552-.158-1.626-.156-1.624-.678-.21-.679-.21-.891-.419-.893-.42-.84-2.883-.837-2.883-2.516 3.46-2.518 3.459-6.08-5.555-6.082-5.556-.261-3.198-.26-3.197.051-2.202.05-2.201-.158-1.468-.156-1.467-.053-2.044-.053-2.044-.576.367-.576.366-.734.315-.735.314-1.465-2.044-1.466-2.045-1.047.157-1.049.158.314 1.782.315 1.782.158 5.241.156 5.243-4.298 2.462-4.297 2.464-.682.368-.682.366.996 1.782.997 1.782 6.498.42 6.5.419v20.652l4.298 4.823 4.299 4.821-1.521 3.198-1.52 3.197-2.254 1.364-2.254 1.362-.418.839-.419.839 3.353 3.564 3.356 3.564-.209 1.415-.211 1.416-3.616 2.254-3.619 2.254-9.697-1.049-5.082-.549v7.814l3.668 4.79.211 2.884.734 2.883h16.694l2.175-3.354 2.895 3.309V256h6.435v-.013l6.815-3.341 1.258 1.467h2.933L45.332 256h21.176l2.097-5.87-6.291-6.709-4.191-6.291 8.385 2.097 2.097 4.194 7.547 4.192 6.082-4.821-2.517-5.662 5.031 2.097h5.453l1.467-1.048h2.098l5.66 7.758 10.902.209 5.242-6.919h3.565v3.565l-7.129 6.289V256h45.55l-4.666-6.5-3.459-3.983-3.635-2.051-4.858 2.47-1.886-2.622-1.887-2.62 1.006-2.516-.272-1.991-7.024-4.824-7.967-5.974-.631-5.347-.629-5.347-2.724-1.152-2.727-1.153-.209-7.863-.209-7.863-.996-.418-.996-.42-3.406-1.677-3.408-1.676-.42-1.679-.418-1.677-1.572-.105-1.573-.105-2.306 7.025-2.307 7.023 4.143 2.83 4.138 2.831-.103 9.435-.106 9.434-8.543 3.408-8.545 3.407-3.879.262-3.878.261-4.299-7.338-4.299-7.338 2.517-5.032 2.516-5.032.734-.839.735-.838.949-.637.947-.639-2.207-1.144-2.207-1.144.315-1.992.314-1.992 5.137-13.523 5.137-13.523-2.307-.734-2.305-.734-.211-1.468-.209-1.468 3.356-2.515 3.353-2.517.106-1.991.103-1.992 2.309-1.992 2.305-1.991-.049-5.209-.049-5.207-1.941.07-1.735.072-1.676 10.169-3.027 2.265-5.557-1.991-5.046-2.685-4.403-9.765-4.402-9.764v-3.115l5.24-2.517 5.242-2.515 4.614-7.863 4.613-7.863.209-2.148-.524-1.625-1.468-.997-2.202-.471.106-2.201 1.152-1.467 6.5-3.618 6.08-4.455h11.534l8.384 1.783 8.387 11.845 9.015 11.322 12.581-6.71 12.579-6.709 4.193 6.081 4.194 6.08 4.376 3.459 4.377 3.459v5.871l5.582 2.187 4.907 1.923-5.719 8.351-6.394 8.087 2.253 1.467 2.255 1.468 2.568-3.014 2.568-3.014 1.363 1.337 1.363 1.336 2.043-1.336 2.046-1.337.891-4.534 1.206-3.904 11.582 6.918 11.9 7.548v4.193l-4.56 7.339-3.992 6.422-3.819.916h-3.25l1.887 3.983 1.887 3.984 2.412.837 2.411.84.942 4.717.944 4.718 5.975-3.775 5.976-3.773-.211 4.299-.208 4.299-2.517 14.57-2.513 14.571.523.525.524.523 4.298-6.761 5.033-5.503 7.233-2.83 3.88-2.097 4.297-2.83 1.468-16.878-7.548-6.29-3.286-5.675-.278 4.731h-2.935l-.422-9.54.21-12.161 6.185 4.088 6.185 4.09 5.557 8.072 5.804 8.072.8-1.468 1.049-1.103v-28.522l-3.146.272-3.144-.943-7.234-9.749-7.233-9.75-7.862-2.201-7.863-2.203h-13.837l-.788-6.446-.786-6.447 1.415-1.887 1.416-1.888h5.975l2.255-1.31 2.254-1.311v-2.724h-4.195l-.314-3.775-.313-3.773h-11.637l-2.83-5.032-2.831-5.033h-4.822l-3.879 2.988-3.879 2.988-5.975-5.189-5.976-5.19h-13.837l-2.674 6.028-2.673 6.028-2.674 1.835-2.673 1.835-.472 1.258-.471 1.257 1.415 1.731 1.415 1.729-.943 2.516-.944 2.516-1.572.157-1.573.157-1.887-1.153-1.887-1.154h-4.718V101.583l3.618-13.366 3.617-13.367-3.617.629-3.618.629-4.716 4.717-4.719 4.718v-3.459l2.202-7.705 2.202-7.705h3.459l.629-1.573.63-1.573h-3.46l-1.258-6.29-1.258-6.29H132.762l1.1-2.044 1.102-2.044-2.36-3.695-2.358-3.695-3.459-5.897-3.461-5.897-2.043-2.359-2.043-2.359-1.732-2.201-1.729-2.202v-3.459H119.24l4.559.944 4.56.942 11.636-7.233 11.637-7.232 6.762 1.807 6.761 1.809 5.268-2.438 5.267-2.437h4.561l5.137 3.616 5.137 3.618-.315 8.49-2.516 5.033-6.5 2.934-10.063-4.193-21.386 9.226 1.468 2.725 3.563-1.887 6.5 3.355 2.037 13.367 9.286-.787-.21-10.693 5.451-3.145 10.483-.42 6.629-.745.395-3.251 2.411-3.972 6.394-.117 7.548-1.454 2.884-2.987 2.883-2.989 5.608 3.459 5.609 3.461-.315 13.051 1.048 13.996-11.95-1.678-13.272-2.261-9.792-.465-5.241 5.661 1.677 2.097 3.564 1.467 6.71 1.049 5.87.419 5.242.629 5.242.629 2.305.21 2.622.733 3.877-3.46 1.784-2.986 10.168.89 7.548-.628-.262-2.149-.551-1.337-.55-1.336-.314-3.302-.315-3.304-.393-2.987-.394-2.986 4.954-2.36 4.953-2.359-.314-7.075-.314-7.078.708-1.1.707-1.101.393-1.021.393-1.024.708-.156.865-.187V0zM4.971 59.702l1.154-3.301 1.152-2.096.524-1.783.211-2.201-2.938-2.097-.418-3.668 4.928-8.283-5.031-.499-4.508-5.653V56.72l3.353 2.982z"/>
    </g>
    <g>
        <path fill="#64727F" d="M202.79 235.662l-4.612-1.887 3.354-19.079-7.338-8.386 6.289-9.646 8.597 6.92zM122.595 206.204l-4.194 25.159-17.192 16.983-12.58-10.484 5.871-14.885-1.049-10.064 9.226-10.273h8.386l.838-10.274zM206.983 169.828l-6.919 9.016-16.772 10.273-9.226-4.612 18.241-28.934zM93.66 110.022l-3.354 18.87H73.114l-9.645-17.193 8.596-2.725-8.596-24.741 5.031-9.959 11.323 3.04 19.079 1.048 3.355-4.088 8.596 3.25 2.936 16.564-11.952 16.353zM41.244 166.264l-7.914.314-7.916.315-4.402-5.294-4.405-5.294 10.956-14.153L38.518 128H52.461l8.387 11.113-8.491 14.257zM70.701 253.693L70.02 256H44.074l-.211-2.307 11.114-14.466zM256.045 191.627l-11.008 17.513-13.208 5.032-15.725 25.055 9.749 13.314.419 3.459h17.612l-7.81-12.58 15.568 1.887-2.83-9.645 7.233-1.363zM234.239 140.999l-5.24 1.152-5.242 1.154-1.521-11.06-1.52-11.059 7.34-8.02 7.338-8.02.209-5.292.21-5.295-8.386-4.823-8.388-4.823-.786-3.092-.786-3.092 3.564-4.246 3.565-4.246 8.648-.576 8.649-.577 3.983 4.612 3.984 4.614.629 6.131.629 6.133-2.411.892-2.411.89.157 4.404.157 4.403 2.674 2.516 2.672 2.515 2.045.315 2.044.315v7.652l-4.246 4.141-4.245 4.141h-3.565l-3.669 8.596zM163.426 100.01l-5.347 1.573-10.536-4.246-1.258-9.907 6.605-1.257 1.1-1.416v-2.202l-3.145-8.176 5.505-15.883-3.775-6.29-.471-7.548h13.366l3.93-5.188 6.29 7.862-3.144 10.221 3.144 2.988-.943 2.987-4.559-.157-7.235 14.624-2.673 6.919-1.258 10.536zM243.884 0l3.144 5.45-1.572 6.291-9.749 5.241-9.436-6.918V0zM113.317 42.457l2.516 2.831-3.773 5.818-12.895 1.887-9.436-6.29 8.807-15.568-1.572-3.616 7.232-8.964h4.719l9.904 5.032 3.776 8.648-4.403 6.448M70.02 0l-2.989 9.906-4.951 2.36h-5.584l-3.773-1.102-3.459-2.358-2.201-2.673L44.074 0zM23.789 39.47l15.41-11.324-2.201-5.66-4.088 2.831h-6.133v-4.088h-8.019l-7.076 3.459L.045 12.266 0 12.3v12.481l7.75 8.084z"/>
    </g>
</svg>
