<svg xmlns="http://www.w3.org/2000/svg" xmlns:xlink="http://www.w3.org/1999/xlink" viewBox="0 0 256 256">
    <defs>
        <linearGradient id="innoGrad2">
            <stop offset="0" stop-color="#ff7f2a" stop-opacity=".502"/>
            <stop offset="1" stop-color="#ff7f2a" stop-opacity="0"/>
        </linearGradient>
        <linearGradient id="innoGrad1">
            <stop offset="0" stop-color="#f55"/>
            <stop offset="1" stop-color="#f55" stop-opacity="0"/>
        </linearGradient>
        <linearGradient id="linearGradient894" x1="139.476" x2="116.859" y1="208.587" y2="40.986" gradientUnits="userSpaceOnUse" xlink:href="#innoGrad1"/>
        <linearGradient id="linearGradient902" x1="195.89" x2="189.162" y1="94.096" y2="55.581" gradientUnits="userSpaceOnUse" xlink:href="#innoGrad2"/>
        <linearGradient id="linearGradient904" x1="63.607" x2="61.299" y1="101.682" y2="85.957" gradientUnits="userSpaceOnUse" xlink:href="#innoGrad2"/>
        <linearGradient id="linearGradient894-9" x1="139.476" x2="116.859" y1="208.587" y2="40.986" gradientUnits="userSpaceOnUse" xlink:href="#innoGrad1"/>
        <linearGradient id="linearGradient902-7" x1="193.176" x2="189.162" y1="81.886" y2="55.581" gradientUnits="userSpaceOnUse" xlink:href="#innoGrad2"/>
        <linearGradient id="linearGradient904-4" x1="63.607" x2="61.299" y1="101.682" y2="85.957" gradientUnits="userSpaceOnUse" xlink:href="#innoGrad2"/>
    </defs>
    <g stroke-width="1.32">
        <path fill="#f55" stroke="#231f20" stroke-linejoin="round" stroke-miterlimit="10" stroke-width="3.961" d="M6 49.755s2.522 23.964 15.196 92.493c3.836 20.746 9.248 38.125 12.115 52.306 6.603 32.665 8.396 48.265 8.396 48.265L250 205.82s-7.065-46.501-15.199-88.77c-5.348-27.775-12.278-53.497-14.027-63.788-4.41-25.951-3.507-40.082-3.507-40.082s-33.647 2.976-113.498 16.8C23.917 43.805 6 49.755 6 49.755z" transform="matrix(.74445 -.13966 .13962 .74426 -4.413 34.87)"/>
        <path fill="#ff2a2a" fill-opacity=".502" d="M155.42 33.637l41.119 114.413-116.887 43.552L38.725 76.907z"/>
        <path fill="#ff8080" stroke="#231f20" stroke-linejoin="round" stroke-miterlimit="10" d="M201.635 40c1.275 2.871-2.46 15.34.01 34.313 5.782 44.456 21.743 117.307 20.404 118.646-1.913 1.914-1.122-6.37-39.852.957-38.73 7.328-42.721 14.671-42.721 14.671s-35.96 5.195-45.272 6.06c-9.312.865-20.085 0-20.085 0L50.081 64.322s14.58.36 30.414-2.447C123.725 54.218 200.701 37.9 201.635 40z" transform="matrix(.74445 -.13966 .13962 .74426 -4.413 34.87)"/>
        <path fill="#ff2a2a" d="M31.432 116.609s-4.69-11.898 1.926-14.614c6.616-2.715 10.118 9.406 10.118 9.406l20.183 51.96s3.238 9.747-3.046 12.4c-6.283 2.653-10.423-7.628-10.423-7.628z"/>
        <path fill="url(#linearGradient894-9)" d="M52.677 80.552l21.442 134.095s10.773.865 20.085 0c9.312-.865 45.272-6.06 45.272-6.06s3.992-7.343 42.721-14.67c38.73-7.329 37.939.956 39.852-.958 1.339-1.34-14.622-74.19-20.404-118.646-2.47-18.975 1.265-31.442-.01-34.313-32.21 13.848 9.255 140.202 9.255 140.202s-18.47-1.71-41.445 5.103c-33.34 9.887-33.34 20.412-33.34 20.412s-39.669-2.552-47.958-6.843c-8.29-4.292-8.608-69.703-14.028-90.434-5.42-20.731-21.442-27.888-21.442-27.888z" transform="matrix(.74445 -.13966 .13962 .74426 -4.413 34.87)"/>
        <path fill="none" stroke="#231f20" stroke-linejoin="round" stroke-miterlimit="10" stroke-width="2.641" d="M201.635 40c1.275 2.871-2.46 15.34.01 34.313 5.782 44.456 21.743 117.307 20.404 118.646-1.913 1.914-1.122-6.37-39.852.957-38.73 7.328-42.721 14.671-42.721 14.671s-35.96 5.195-45.272 6.06c-9.312.865-20.085 0-20.085 0L50.081 64.322s14.58.36 30.414-2.447C123.725 54.218 200.701 37.9 201.635 40z" transform="matrix(.74445 -.13966 .13962 .74426 -4.413 34.87)"/>
        <path fill="#ffb380" d="M155.64 60.641c-3.983-13.05-3.058-22.267-4.363-24.161-.988-1.433-56.015 21.462-87.127 33.198-11.396 4.3-22.3 6.069-22.3 6.069l8.383 23.4c2.748-.503 11.567-2.261 21.102-5.859 27.068-10.21 72.238-28.87 84.174-32.603z"/>
        <path fill="url(#linearGradient902-7)" d="M201.397 72.25c-1.956-17.813 1.464-29.486.238-32.25-9.305 4.001-12.462 17.392-12.245 34.415z" transform="matrix(.74445 -.13966 .13962 .74426 -4.413 34.87)"/>
        <path fill="url(#linearGradient904-4)" d="M52.677 80.552l1.847 11.55.742 4.63c2.122.01 6.955-.034 13.188-.516l.516-.092c-6.84-11.35-16.29-15.57-16.293-15.572z" transform="matrix(.74445 -.13966 .13962 .74426 -4.413 34.87)"/>
        <g fill="#f1f2f2" stroke-width=".518">
            <path d="M93.49 71.107c-.25-.656-.362-1.249-.336-1.769.022-.385.11-.758.265-1.115.155-.357.36-.66.613-.9.339-.322.769-.586 1.296-.785.952-.363 1.823-.358 2.623.015.797.373 1.395 1.087 1.796 2.136.396 1.044.422 1.97.08 2.775-.342.805-.99 1.386-1.938 1.75-.961.366-1.836.363-2.627-.007-.79-.371-1.38-1.072-1.772-2.1zm1.329-.556c.279.732.658 1.224 1.14 1.471.482.25.983.274 1.503.078.521-.198.878-.548 1.067-1.051.19-.5.144-1.128-.142-1.877-.282-.739-.656-1.231-1.12-1.47-.463-.242-.964-.26-1.501-.055-.538.205-.9.554-1.091 1.048-.189.493-.141 1.114.144 1.856zM106.868 69.673l-3.127-4.344.556 5.322-1.412.538-4.005-5.876 1.335-.508 2.664 4.07-.51-4.89 1.552-.59 2.853 4.082-.729-4.892 1.316-.5.89 7.06zM111.393 66.7l3.245-1.235.415 1.088-4.548 1.732-2.442-6.409 1.306-.496zM118.764 58.992l-3.487 1.328.546 1.431 3.241-1.233.417 1.088-3.245 1.236.672 1.759 3.61-1.375.414 1.088-4.914 1.871-2.463-6.462 4.792-1.824zM119.108 57.608l5.135-1.954.418 1.094-1.914.728 2.045 5.369-1.306.496-2.043-5.369-1.917.732z"/>
        </g>
        <path fill="none" stroke="#f1f2f2" stroke-miterlimit="10" stroke-width=".66" d="M110.54 61.296l4.04 23.389" transform="matrix(.74445 -.13966 .13962 .74426 -4.413 34.87)"/>
        <g fill="none" stroke="#f1f2f2" stroke-linejoin="round" stroke-miterlimit="10" stroke-width=".129">
            <path d="M120.821 122.595v0c-1.025.14-2.732.11-2.843 2.448-.945-2.13-2.517-1.5-3.522-1.258l-.014.004s-1.238 2.929.878 3.594c2.116.664 4.238.379 5.981-1.119 1.744-1.5-.48-3.669-.48-3.669zm-4.083 2.842c-.309.058-.615-.197-.685-.569-.069-.373.124-.722.433-.78.309-.057.615.198.685.571.069.372-.125.721-.433.778zm1.445.663s-.428-.474-.937-.54c.06-.493 1.303-.758 1.602-.3-.425.289-.665.84-.665.84zm1.114-1.028c-.309.058-.615-.197-.685-.57-.069-.373.124-.721.433-.779.309-.058.615.197.685.57.07.373-.125.722-.433.779z" transform="matrix(1.89872 -.3562 .35625 1.899 -190.573 -115.977)"/>
            <path d="M117.791 124.042c-.07-.897.212-1.436.664-1.801l.002-.006-1.941.363.005.006c.553.177 1.011.577 1.27 1.438z" transform="matrix(1.89872 -.3562 .35625 1.899 -190.573 -115.977)"/>
            <path d="M117.791 124.042c-.799-2.658-3.481-.959-5.061-1.69.275.948 1.005 1.536 1.347 1.504.942-.087 2.827-1.235 3.901 1.188.126-2.646 2.298-2.259 3.208-2.517.331-.094.798-.906.712-1.89-1.209 1.252-4.324.638-4.107 3.405z" transform="matrix(1.89872 -.3562 .35625 1.899 -190.573 -115.977)"/>
        </g>
        <g fill="#414042" stroke-width=".518">
            <path d="M75.78 129.786l-3.048-7.936c.905-.353 1.358-.526 2.26-.884 1.373 1.944 2.058 2.924 3.43 4.867-.297-2.382-.447-3.583-.747-5.966.9-.371 1.35-.558 2.248-.937 1.218 3.173 1.832 4.758 3.05 7.932-.555.236-.84.344-1.395.578l-2.398-6.234c.371 2.742.557 4.109.923 6.847-.577.238-.863.355-1.443.587-1.55-2.259-2.324-3.381-3.877-5.645.96 2.497 1.44 3.738 2.4 6.233-.564.224-.84.343-1.403.558-1.22-3.174.563-.215 0 0zM82.643 122.438c-1.779-4.618 4.31-8.71 6.797-3.927 2.785 5.353-4.57 9.73-6.797 3.927-.31-.807.484 1.26 0 0zm1.517-.711c1.36 3.54 5.366 1.562 4.058-1.839-1.349-3.511-5.353-1.524-4.058 1.839.343.895-.35-.91 0 0zM92.394 122.679c-1.218-3.17-1.835-4.763-3.053-7.934.591-.274.886-.41 1.478-.682 1.22 3.17 1.833 4.764 3.05 7.936-.59.274-.885.41-1.475.68-1.22-3.172.59-.27 0 0zM93.91 118.94c.549-.33.822-.498 1.371-.827.88 1.482 3.905.862 3.186-1-.468-1.202-3.275.075-4.27-.29-4.395-1.618 2.3-8.246 4.241-3.666l-1.442.77c-.7-1.194-3.232-.495-2.717.853.423 1.094 3.392-.139 4.356.215 4.372 1.614-2.064 9.082-4.726 3.945.55-.33.435.84 0 0zM103.695 117.34c-1.012-2.634-1.52-3.952-2.534-6.587-.864.413-1.293.626-2.154 1.039l-.515-1.345c2.312-1.106 3.462-1.663 5.774-2.771.207.539.314.806.519 1.343l-2.15 1.03 2.53 6.587c-.587.281-.883.421-1.47.705-1.011-2.634.587-.284 0 0zM82.588 142.41l-2.53-6.59c-.887.354-1.334.526-2.225.868-.205-.537-.307-.809-.514-1.346 2.385-.917 3.568-1.39 5.929-2.374.207.539.314.802.519 1.34-.879.367-1.323.548-2.205.906 1.014 2.635 1.516 3.952 2.53 6.589l-1.504.606c-1.012-2.637.605-.243 0 0zM85.265 136.782c-1.786-4.646 4.343-8.635 6.821-3.87 2.79 5.37-4.595 9.669-6.821 3.87-.311-.808.484 1.26 0 0zm1.523-.7c1.354 3.526 5.383 1.616 4.071-1.802-1.345-3.502-5.367-1.58-4.07 1.802.342.893-.352-.91 0 0zM96.123 136.597a7467.793 7467.793 0 0 1-4.797-7.138c.605-.275.906-.41 1.511-.687 1.28 1.977 1.92 2.968 3.2 4.948l-.755-6.067c.702-.324 1.051-.486 1.754-.815 1.362 1.98 2.046 2.972 3.41 4.948l-1.012-6.07c.592-.278.889-.416 1.483-.697l1.274 8.763c-.627.294-.933.44-1.558.735l-3.738-5.256c.332 2.641.5 3.968.83 6.607-.639.29-.961.436-1.602.73-1.917-2.853.64-.294 0 0zM104.713 132.59c-1.217-3.171-1.828-4.769-3.045-7.938 2.158-1.026 3.235-1.54 5.392-2.572.21.539.304.804.51 1.34-1.568.75-2.348 1.132-3.918 1.878.272.706.404 1.053.674 1.76a895.93 895.93 0 0 0 3.65-1.755c.206.534.306.81.51 1.341-1.458.703-2.186 1.053-3.648 1.75.331.862.5 1.283.833 2.146l4.06-1.947.517 1.352c-2.208 1.065-3.32 1.59-5.535 2.644-1.218-3.172 2.214-1.054 0 0zM111.531 129.329l-3.024-7.868c.586-.28.883-.424 1.469-.707 1.003 2.614 1.505 3.915 2.506 6.527 1.459-.699 2.186-1.055 3.648-1.752l.517 1.344c-2.047.978-3.07 1.474-5.116 2.456-1.21-3.145 2.045-.982 0 0zM117.694 126.38c-1.22-3.172-1.828-4.759-3.047-7.935 2.159-1.026 3.234-1.54 5.4-2.552.21.538.31.81.519 1.347-1.578.739-2.365 1.11-3.936 1.853.27.705.407 1.047.677 1.75 1.461-.694 2.194-1.04 3.66-1.726.208.533.308.807.513 1.341-1.466.684-2.199 1.032-3.661 1.723.33.866.497 1.29.828 2.15a656.018 656.018 0 0 1 4.078-1.919c.2.537.309.81.514 1.347a653.618 653.618 0 0 0-5.545 2.62c-1.22-3.173 2.214-1.056 0 0zM126.136 122.415c-1.013-2.633-1.519-3.945-2.528-6.579-.868.399-1.304.603-2.172 1.003-.205-.537-.31-.81-.519-1.35a416.32 416.32 0 0 1 5.825-2.655c.205.538.305.808.51 1.345-.869.388-1.3.584-2.173.978 1.017 2.636 1.519 3.95 2.533 6.586-.593.269-.886.4-1.476.672-1.013-2.633.59-.271 0 0zM132.405 119.615c-1.013-2.634-1.518-3.955-2.533-6.59-.872.382-1.31.569-2.181.956-.209-.535-.312-.802-.518-1.342a242.39 242.39 0 0 1 5.868-2.534c.205.536.307.802.516 1.339-.878.369-1.32.556-2.193.932l2.533 6.59c-.598.256-.896.39-1.492.65-1.013-2.635.596-.26 0 0zM137.051 117.633c-1.216-3.173-1.822-4.76-3.041-7.928 2.204-.916 3.308-1.36 5.53-2.216.208.536.302.798.512 1.337-1.618.625-2.422.943-4.03 1.599.269.702.404 1.054.675 1.755 1.493-.609 2.247-.91 3.751-1.492.208.53.305.807.51 1.341-1.508.58-2.252.878-3.749 1.488.334.86.5 1.29.83 2.15a211.747 211.747 0 0 1 4.181-1.652c.202.539.302.813.51 1.346a203.173 203.173 0 0 0-5.679 2.272c-1.218-3.172 2.262-.937 0 0z"/>
        </g>
        <path fill="#ffe680" d="M109.825 104.423s-2.18 12.43 3.849 10.143c6.031-2.29-3.849-10.143-3.849-10.143z"/>
        <path fill="none" stroke="#231f20" stroke-linejoin="round" stroke-miterlimit="10" stroke-width="2.641" d="M201.415 72.42c-1.992-17.909 1.452-29.646.22-32.422-.934-2.1-77.91 14.217-121.14 21.874-15.833 2.807-30.414 2.447-30.414 2.447l5.182 32.412c3.688.018 15.56-.117 28.808-2.465 37.61-6.662 100.766-19.881 117.163-21.82z" transform="matrix(.74445 -.13966 .13962 .74426 -4.413 34.87)"/>
    </g>
    <g stroke-width="1.32">
        <path fill="#f55" stroke="#231f20" stroke-linejoin="round" stroke-miterlimit="10" stroke-width="3.961" d="M6 49.755s2.522 23.964 15.196 92.493c3.836 20.746 9.248 38.125 12.115 52.306 6.603 32.665 8.396 48.265 8.396 48.265L250 205.82s-7.065-46.501-15.199-88.77c-5.348-27.775-12.278-53.497-14.027-63.788-4.41-25.951-3.507-40.082-3.507-40.082s-33.647 2.976-113.498 16.8C23.917 43.805 6 49.755 6 49.755z" transform="matrix(.61149 .44698 -.44686 .61134 122.035 4.09)"/>
        <path fill="#ff2a2a" fill-opacity=".502" d="M65.357 172.671l55.575-108.357 111.435 55.428-55.238 108.305z"/>
        <path fill="#ff8080" stroke="#231f20" stroke-linejoin="round" stroke-miterlimit="10" d="M201.635 40c1.275 2.871-2.46 15.34.01 34.313 5.782 44.456 21.743 117.307 20.404 118.646-1.913 1.914-1.122-6.37-39.852.957-38.73 7.328-42.721 14.671-42.721 14.671s-35.96 5.195-45.272 6.06c-9.312.865-20.085 0-20.085 0L50.081 64.322s14.58.36 30.414-2.447C123.725 54.218 200.701 37.9 201.635 40z" transform="matrix(.61149 .44698 -.44686 .61134 122.035 4.09)"/>
        <path fill="#ff2a2a" d="M87.002 86.18s5.461-11.564 11.97-8.6c6.509 2.962.072 13.813.072 13.813L74.991 141.68s-4.887 9.033-11.123 6.27c-6.235-2.764-1.576-12.82-1.576-12.82z"/>
        <path fill="url(#linearGradient894)" d="M52.677 80.552l21.442 134.095s10.773.865 20.085 0c9.312-.865 45.272-6.06 45.272-6.06s3.992-7.343 42.721-14.67c38.73-7.329 37.939.956 39.852-.958 1.339-1.34-14.622-74.19-20.404-118.646-2.47-18.975 1.265-31.442-.01-34.313-32.21 13.848 9.255 140.202 9.255 140.202s-18.47-1.71-41.445 5.103c-33.34 9.887-33.34 20.412-33.34 20.412s-39.669-2.552-47.958-6.843c-8.29-4.292-8.608-69.703-14.028-90.434-5.42-20.731-21.442-27.888-21.442-27.888z" transform="matrix(.61149 .44698 -.44686 .61134 122.035 4.09)"/>
        <path fill="none" stroke="#231f20" stroke-linejoin="round" stroke-miterlimit="10" stroke-width="2.641" d="M201.635 40c1.275 2.871-2.46 15.34.01 34.313 5.782 44.456 21.743 117.307 20.404 118.646-1.913 1.914-1.122-6.37-39.852.957-38.73 7.328-42.721 14.671-42.721 14.671s-35.96 5.195-45.272 6.06c-9.312.865-20.085 0-20.085 0L50.081 64.322s14.58.36 30.414-2.447C123.725 54.218 200.701 37.9 201.635 40z" transform="matrix(.61149 .44698 -.44686 .61134 122.035 4.09)"/>
        <path fill="#ffb380" d="M212.836 138.392c6.784-11.839 14.135-17.475 14.622-19.723.368-1.7-53.994-26.133-83.85-40.774-10.936-5.361-19.692-12.099-19.692-12.099l-11.314 22.131c2.247 1.66 9.568 6.884 18.717 11.37 25.975 12.738 70.501 32.886 81.395 39.03z"/>
        <path fill="url(#linearGradient902)" d="M201.397 72.25c-1.956-17.813 1.464-29.486.238-32.25-9.305 4.001-12.462 17.392-12.245 34.415z" transform="matrix(.61149 .44698 -.44686 .61134 122.035 4.09)"/>
        <path fill="url(#linearGradient904)" d="M52.677 80.552l1.847 11.55.742 4.63c2.122.01 6.955-.034 13.188-.516l.516-.092c-6.84-11.35-16.29-15.57-16.293-15.572z" transform="matrix(.61149 .44698 -.44686 .61134 122.035 4.09)"/>
        <g fill="#f1f2f2" stroke-width=".518">
            <path d="M162.655 100.259c.307-.633.662-1.12 1.06-1.456.296-.248.627-.44.993-.57.367-.132.727-.19 1.076-.17.467.026.954.16 1.46.407.916.445 1.509 1.084 1.784 1.922.274.837.163 1.76-.327 2.772-.49 1.003-1.146 1.656-1.967 1.958-.821.302-1.689.228-2.602-.215-.926-.45-1.523-1.09-1.794-1.92-.27-.828-.164-1.74.317-2.728zm1.315.588c-.343.704-.441 1.317-.291 1.838.147.522.473.904.972 1.149.5.244 1 .264 1.496.057.496-.203.921-.667 1.27-1.388.347-.712.45-1.32.307-1.823-.142-.503-.472-.88-.99-1.132-.516-.25-1.02-.276-1.51-.077-.488.2-.908.66-1.254 1.376zM173.885 103.775l-3.498 4.048-1.36-.66 1.54-6.943 1.286.626-1.142 4.727 3.214-3.72 1.493.728-1.022 4.875 3.066-3.881 1.266.616-4.536 5.482-1.332-.646zM178.124 110.29l3.123 1.52-.51 1.047-4.375-2.129 2.998-6.168 1.257.612zM188.79 110.385l-3.356-1.632-.67 1.378 3.119 1.518-.508 1.048-3.123-1.519-.822 1.694 3.474 1.69-.509 1.047-4.729-2.3 3.024-6.22 4.61 2.244zM190.109 117.417l-1.257-.612 2.515-5.165-1.846-.897.512-1.054 4.94 2.405-.51 1.052-1.842-.895z"/>
        </g>
        <path fill="none" stroke="#f1f2f2" stroke-miterlimit="10" stroke-width=".66" d="M110.54 61.296l4.04 23.389" transform="matrix(.61149 .44698 -.44686 .61134 122.035 4.09)"/>
        <g fill="none" stroke="#f1f2f2" stroke-linejoin="round" stroke-miterlimit="10" stroke-width=".129">
            <path d="M120.821 122.595v0c-1.025.14-2.732.11-2.843 2.448-.945-2.13-2.517-1.5-3.522-1.258l-.014.004s-1.238 2.929.878 3.594c2.116.664 4.238.379 5.981-1.119 1.744-1.5-.48-3.669-.48-3.669zm-4.083 2.842c-.309.058-.615-.197-.685-.569-.069-.373.124-.722.433-.78.309-.057.615.198.685.571.069.372-.125.721-.433.778zm1.445.663s-.428-.474-.937-.54c.06-.493 1.303-.758 1.602-.3-.425.289-.665.84-.665.84zm1.114-1.028c-.309.058-.615-.197-.685-.57-.069-.373.124-.721.433-.779.309-.058.615.197.685.57.07.373-.125.722-.433.779z" transform="matrix(1.5596 1.14003 -1.14017 1.55984 104.522 -234.875)"/>
            <path d="M117.791 124.042c-.07-.897.212-1.436.664-1.801l.002-.006-1.941.363.005.006c.553.177 1.011.577 1.27 1.438z" transform="matrix(1.5596 1.14003 -1.14017 1.55984 104.522 -234.875)"/>
            <path d="M117.791 124.042c-.799-2.658-3.481-.959-5.061-1.69.275.948 1.005 1.536 1.347 1.504.942-.087 2.827-1.235 3.901 1.188.126-2.646 2.298-2.259 3.208-2.517.331-.094.798-.906.712-1.89-1.209 1.252-4.324.638-4.107 3.405z" transform="matrix(1.5596 1.14003 -1.14017 1.55984 104.522 -234.875)"/>
        </g>
        <g fill="#414042" stroke-width=".518">
            <path d="M107.761 127.526l3.698-7.655c.876.418 1.313.63 2.191 1.042-.477 2.332-.722 3.502-1.198 5.832 1.533-1.847 2.304-2.779 3.836-4.63.887.402 1.331.603 2.222.998-1.478 3.06-2.213 4.593-3.692 7.654-.552-.243-.826-.376-1.377-.62l2.902-6.017c-1.745 2.147-2.614 3.219-4.359 5.36-.568-.257-.85-.386-1.415-.649.585-2.676.873-4.01 1.46-6.692-1.163 2.41-1.739 3.61-2.9 6.017-.55-.257-.825-.377-1.368-.64 1.478-3.063.543.263 0 0zM117.816 127.497c2.148-4.458 9.298-2.821 7.516 2.266-1.995 5.695-10.22 3.33-7.516-2.266.375-.779-.587 1.215 0 0zm1.557.62c-1.65 3.415 2.535 4.98 4.118 1.698 1.636-3.387-2.554-4.945-4.118-1.699-.418.863.424-.877 0 0zM124.316 134.77c1.477-3.06 2.215-4.6 3.692-7.658.605.243.906.365 1.51.61-1.476 3.06-2.217 4.598-3.695 7.658l-1.507-.61c1.477-3.062.601.244 0 0zM128.079 133.314c.617.174.926.259 1.542.434-.478 1.656 2.045 3.435 2.91 1.636.556-1.163-2.296-2.334-2.712-3.31-1.83-4.31 7.586-3.969 5.576.581-.617-.21-.927-.313-1.548-.524.39-1.327-1.852-2.694-2.483-1.396-.508 1.058 2.424 2.377 2.826 3.323 1.817 4.29-8.033 4.713-6.111-.744.617.174-.315.893 0 0zM135.944 139.351c1.229-2.541 1.841-3.814 3.068-6.357-.893-.346-1.342-.514-2.232-.858.25-.52.375-.78.626-1.297 2.39.929 3.583 1.384 5.974 2.31-.251.521-.373.782-.624 1.3-.889-.346-1.333-.518-2.223-.862l-3.069 6.353c-.606-.235-.91-.355-1.52-.589 1.227-2.54.61.234 0 0zM103.222 141.13c1.23-2.542 1.841-3.81 3.07-6.354-.864-.404-1.296-.612-2.156-1.028.252-.517.38-.778.63-1.296a192.912 192.912 0 0 0 5.79 2.695c-.251.52-.37.778-.622 1.296-.869-.39-1.305-.588-2.17-.986-1.227 2.543-1.842 3.81-3.07 6.355l-1.472-.681c1.23-2.543.591.274 0 0zM109.156 139.23c2.164-4.483 9.268-2.747 7.492 2.321-2.004 5.71-10.194 3.27-7.492-2.322.377-.78-.587 1.216 0 0zm1.554.63c-1.644 3.4 2.507 5.03 4.1 1.734 1.632-3.379-2.523-4.994-4.1-1.734-.417.861.422-.878 0 0zM116.725 147.017c.765-3.352 1.15-5.03 1.92-8.384.614.253.918.38 1.534.631-.564 2.288-.848 3.432-1.415 5.72l3.905-4.704c.717.29 1.074.433 1.794.72-.51 2.349-.765 3.526-1.27 5.874 1.49-1.957 2.239-2.94 3.73-4.894.608.242.912.363 1.523.604l-5.514 6.928-1.602-.633 1.27-6.322c-1.696 2.05-2.548 3.081-4.246 5.129-.65-.267-.976-.403-1.629-.67.767-3.35.653.267 0 0zM125.528 150.534c1.477-3.059 2.224-4.597 3.7-7.654 2.225.87 3.338 1.303 5.567 2.169-.25.521-.378.772-.627 1.29-1.621-.63-2.433-.937-4.053-1.57-.328.681-.49 1.015-.82 1.695 1.51.587 2.265.878 3.777 1.459-.248.515-.38.778-.628 1.29-1.51-.582-2.264-.872-3.773-1.46-.402.831-.592 1.242-.993 2.076 1.678.65 2.518.974 4.198 1.626l-.632 1.302c-2.287-.88-3.432-1.331-5.716-2.223 1.478-3.06 2.284.892 0 0zM132.573 153.27l3.663-7.59c.605.236.914.353 1.521.587-1.218 2.52-1.823 3.777-3.041 6.294 1.508.586 2.266.872 3.774 1.46-.247.515-.375.778-.625 1.297-2.115-.823-3.177-1.229-5.292-2.047 1.462-3.036 2.115.818 0 0zM138.942 155.744c1.476-3.061 2.216-4.59 3.696-7.654 2.226.87 3.337 1.302 5.558 2.189-.25.521-.38.78-.627 1.3a892.13 892.13 0 0 0-4.045-1.6c-.329.68-.484 1.013-.813 1.692 1.507.59 2.261.887 3.764 1.485-.246.517-.377.778-.626 1.292-1.502-.6-2.257-.896-3.762-1.488-.405.833-.6 1.246-1 2.076 1.677.658 2.516.99 4.19 1.658-.253.514-.378.78-.629 1.297a653.617 653.617 0 0 0-5.706-2.247c1.477-3.063 2.285.89 0 0zM147.61 159.182c1.226-2.54 1.837-3.808 3.065-6.347-.885-.36-1.332-.538-2.218-.896.251-.518.379-.781.628-1.302a416.32 416.32 0 0 1 5.924 2.427c-.251.518-.38.775-.631 1.293-.877-.368-1.316-.548-2.201-.915-1.225 2.547-1.838 3.812-3.066 6.356-.601-.248-.899-.372-1.5-.616 1.225-2.54.601.244 0 0zM153.944 161.835c1.227-2.543 1.843-3.815 3.068-6.359-.875-.374-1.311-.566-2.19-.935.247-.518.372-.777.624-1.296a242.39 242.39 0 0 1 5.864 2.542c-.25.516-.373.773-.621 1.292-.87-.387-1.31-.581-2.182-.96l-3.068 6.358c-.597-.26-.898-.385-1.495-.642 1.227-2.543.597.257 0 0zM158.57 163.864c1.48-3.059 2.22-4.587 3.695-7.645 2.177.979 3.256 1.48 5.402 2.513-.248.52-.374.767-.624 1.288a201.612 201.612 0 0 0-3.925-1.842c-.327.677-.492 1.017-.816 1.693 1.466.673 2.2 1.016 3.656 1.713-.245.515-.38.775-.63 1.29a174.41 174.41 0 0 0-3.65-1.714c-.399.834-.599 1.248-1 2.077 1.634.751 2.446 1.137 4.067 1.917-.254.516-.385.776-.631 1.293a203.173 203.173 0 0 0-5.544-2.583c1.478-3.06 2.231 1.006 0 0z"/>
        </g>
        <path fill="#ffe680" d="M149.557 134.975s-10.553 6.921-4.758 9.75c5.798 2.829 4.758-9.75 4.758-9.75z"/>
        <path fill="none" stroke="#231f20" stroke-linejoin="round" stroke-miterlimit="10" stroke-width="2.641" d="M201.415 72.42c-1.992-17.909 1.452-29.646.22-32.422-.934-2.1-77.91 14.217-121.14 21.874-15.833 2.807-30.414 2.447-30.414 2.447l5.182 32.412c3.688.018 15.56-.117 28.808-2.465 37.61-6.662 100.766-19.881 117.163-21.82z" transform="matrix(.61149 .44698 -.44686 .61134 122.035 4.09)"/>
    </g>
</svg>
