<svg xmlns="http://www.w3.org/2000/svg" xmlns:xlink="http://www.w3.org/1999/xlink" viewBox="0 0 256 256">
    <defs>
        <linearGradient id="innoGrad5">
            <stop offset="0" stop-color="#ffd42a" stop-opacity="0"/>
            <stop offset="1" stop-color="#ffd42a" stop-opacity=".502"/>
        </linearGradient>
        <linearGradient id="innoGrad4">
            <stop offset="0" stop-color="#abc837" stop-opacity=".502"/>
            <stop offset=".5" stop-color="#abc837" stop-opacity="0"/>
            <stop offset="1" stop-color="#abc837" stop-opacity=".502"/>
        </linearGradient>
        <linearGradient id="innoGrad3">
            <stop offset="0" stop-color="#ff2a2a" stop-opacity=".502"/>
            <stop offset=".5" stop-color="#ff2a2a" stop-opacity="0"/>
            <stop offset="1" stop-color="#ff2a2a" stop-opacity=".502"/>
        </linearGradient>
        <linearGradient id="innoGrad2">
            <stop offset="0" stop-color="#ff7f2a" stop-opacity=".502"/>
            <stop offset=".5" stop-color="#ff7f2a" stop-opacity="0"/>
            <stop offset="1" stop-color="#ff7f2a" stop-opacity=".502"/>
        </linearGradient>
        <linearGradient id="innoGrad1">
            <stop offset="0" stop-color="#abc837" stop-opacity=".502"/>
            <stop offset="1" stop-color="#abc837" stop-opacity="0"/>
        </linearGradient>
        <linearGradient id="linearGradient1044" x1="105.729" x2="105.729" y1="138.5" y2="145.962" gradientUnits="userSpaceOnUse" xlink:href="#innoGrad1"/>
        <linearGradient id="linearGradient1076" x1="91.173" x2="91.173" y1="138.125" y2="147.59" gradientUnits="userSpaceOnUse" xlink:href="#innoGrad1"/>
        <linearGradient id="linearGradient1099" x1="164.781" x2="164.781" y1="119.19" y2="128.893" gradientUnits="userSpaceOnUse" xlink:href="#innoGrad2"/>
        <linearGradient id="linearGradient1124" x1="238.125" x2="238.125" y1="119.722" y2="128.189" gradientUnits="userSpaceOnUse" xlink:href="#innoGrad2"/>
        <linearGradient id="linearGradient1147" x1="252.969" x2="252.969" y1="119.187" y2="128.665" gradientUnits="userSpaceOnUse" xlink:href="#innoGrad2"/>
        <linearGradient id="linearGradient1170" x1="240.318" x2="240.318" y1="130.326" y2="140.767" gradientUnits="userSpaceOnUse" xlink:href="#innoGrad3"/>
        <linearGradient id="linearGradient1195" x1="241.96" x2="241.96" y1="130.896" y2="140.34" gradientUnits="userSpaceOnUse" xlink:href="#innoGrad3"/>
        <linearGradient id="linearGradient1218" x1="238.125" x2="238.125" y1="129.953" y2="141.063" gradientUnits="userSpaceOnUse" xlink:href="#innoGrad4"/>
        <linearGradient id="linearGradient1249" x1="159.515" x2="159.515" y1="140.465" y2="128.864" gradientUnits="userSpaceOnUse" xlink:href="#innoGrad1"/>
        <linearGradient id="linearGradient1272" x1="156.187" x2="156.187" y1="143.875" y2="128.915" gradientUnits="userSpaceOnUse" xlink:href="#innoGrad1"/>
        <linearGradient id="linearGradient1295" x1="166.225" x2="166.225" y1="145.188" y2="128.634" gradientUnits="userSpaceOnUse" xlink:href="#innoGrad1"/>
        <linearGradient id="linearGradient1318" x1="162.21" x2="162.21" y1="145.188" y2="128.634" gradientUnits="userSpaceOnUse" xlink:href="#innoGrad1"/>
        <linearGradient id="linearGradient1386" x1="194.906" x2="194.906" y1="138.654" y2="128.733" gradientUnits="userSpaceOnUse" xlink:href="#innoGrad1"/>
        <linearGradient id="linearGradient1418" x1="237.876" x2="237.876" y1="130.812" y2="127.477" gradientUnits="userSpaceOnUse" xlink:href="#innoGrad1"/>
        <linearGradient id="linearGradient1441" x1="90.688" x2="90.688" y1="137.688" y2="117.405" gradientUnits="userSpaceOnUse" xlink:href="#innoGrad5"/>
        <linearGradient id="linearGradient1464" x1="156.563" x2="156.563" y1="140.682" y2="129.043" gradientUnits="userSpaceOnUse" xlink:href="#innoGrad5"/>
        <linearGradient id="linearGradient1580" x1="72.594" x2="82.107" y1="135.149" y2="141.477" gradientUnits="userSpaceOnUse" xlink:href="#innoGrad4"/>
        <linearGradient id="linearGradient1603" x1="69.643" x2="79.67" y1="140.783" y2="147.015" gradientUnits="userSpaceOnUse" xlink:href="#innoGrad4"/>
        <linearGradient id="linearGradient1626" x1="90.584" x2="90.688" y1="118.665" y2="137.688" gradientUnits="userSpaceOnUse" xlink:href="#innoGrad1"/>
    </defs>
    <g stroke-width=".575" transform="matrix(1.38685 -1.04996 1.04996 1.38684 -236.712 106.762)">
        <path fill="#abc837" stroke="#000000" stroke-linejoin="round" stroke-miterlimit="10" d="M109.292 146.229h-7.75s-2.646-.354-2.458-3.271c.188-2.917 4.271-4.584 4.271-4.584h-7.083l.396 3.771 1.208 3.041 3.271 1.646h5.938z"/>
        <path fill="#dde9af" stroke="#000000" stroke-linejoin="round" stroke-miterlimit="10" d="M100.958 145.292l-.54.271-1.502-3.208 1.208-2.438 2.049-.771h2.387s-4.08 1-4.457 3c-.377 2 .855 3.146.855 3.146z"/>
        <path fill="#dde9af" d="M105.729 138.5s-.411.56-1.458.709c-2.771.396-4.417 1.749-4.542 2.666-.305 2.226.69 3.688.69 3.688s-2.21-.938-1.731-3.688c.479-2.75 2.938-3.375 2.938-3.375z"/>
        <path fill="url(#linearGradient1044)" stroke="#000000" stroke-linejoin="round" stroke-miterlimit="10" d="M105.729 138.5s-.411.56-1.458.709c-2.771.396-4.417 1.749-4.542 2.666-.305 2.226.69 3.688.69 3.688s-2.21-.938-1.731-3.688c.479-2.75 2.938-3.375 2.938-3.375z"/>
        <path fill="#cdde87" d="M123.201 138.125c-9.542 1.334-12 8.959-14.75 8.959H99.91c-1.465-.146-2.589-2.704-4.25-4.917-1.646-2.193-4.487-4.042-4.487-4.042zm-12.166 4.479c0-2.563-3.208-4.104-3.208-4.104h-7.208s-3.292 1.292-3.292 4.037 3.292 4.037 3.292 4.037h7.208s3.208-.423 3.208-3.97z"/>
        <path fill="url(#linearGradient1076)" stroke="#000000" stroke-linejoin="round" stroke-miterlimit="10" d="M123.201 138.125c-9.542 1.334-12 8.959-14.75 8.959H99.91c-1.465-.146-2.589-2.704-4.25-4.917-1.646-2.193-4.487-4.042-4.487-4.042zm-12.166 4.479c0-2.563-3.208-4.104-3.208-4.104h-7.208s-3.292 1.292-3.292 4.037 3.292 4.037 3.292 4.037h7.208s3.208-.423 3.208-3.97z"/>
        <circle cx="112.75" cy="139.708" r="1.333" fill="#eef4d7" stroke="#000000" stroke-linejoin="round" stroke-miterlimit="10" stroke-width=".287"/>
        <path fill="#eef4d7" stroke="#000000" stroke-miterlimit="10" d="M150.188 138.125h-4.157l1.969 2.188h2.222z"/>
    </g>
    <g stroke-width=".575">
        <path fill="#bcd35f" stroke="#000000" stroke-linejoin="round" stroke-miterlimit="10" d="M232.188 127.5h3.688s-.313.188-.313 1.656.313 1.656.313 1.656h-3.688s.313-.113.313-1.77-.313-1.542-.313-1.542z" transform="matrix(1.38685 -1.04996 1.04996 1.38684 -236.712 106.762)"/>
        <path fill="#ffb380" stroke="#000000" stroke-linejoin="round" stroke-miterlimit="10" d="M248.781 119.796l-10.656-.074 10.5-1.566zM252.969 119.187L250.797 118v1.187z" transform="matrix(1.38685 -1.04996 1.04996 1.38684 -236.712 106.762)"/>
        <path fill="#ffb380" stroke="#000000" stroke-linejoin="round" stroke-miterlimit="10" d="M247.438 117.656h3.359v1.53h-3.359z" transform="matrix(1.38685 -1.04996 1.04996 1.38684 -236.712 106.762)"/>
        <path fill="#fca" stroke="#000000" stroke-linejoin="round" stroke-miterlimit="10" d="M247.438 117.656h2.781v-.875l-2.781-1.281z" transform="matrix(1.38685 -1.04996 1.04996 1.38684 -236.712 106.762)"/>
        <path fill="#ffb380" d="M102.405 107.469l1.907-1.444 2.524.631 134.27-100.2s1.868-1.318 6.068 4.23c4.2 5.546 2.248 7.297 2.248 7.297L113.428 122.392z"/>
        <path fill="url(#linearGradient1099)" stroke="#000000" stroke-linejoin="round" stroke-miterlimit="10" d="M155.188 118h1.375l.938 1.165 96.313.666s1.313.044 1.313 4.044c0 4-1.502 4.125-1.502 4.125l-98.563.665z" transform="matrix(1.38685 -1.04996 1.04996 1.38684 -236.712 106.762)"/>
        <path fill="#fca" d="M210.664 28.506s2.908-1.202 7.152 4.403c4.244 5.606 2.703 7.772 2.703 7.772l7.742-5.862s2.177-2.407-2.182-8.165c-4.36-5.759-7.267-4.317-7.267-4.317z"/>
        <path fill="url(#linearGradient1124)" stroke="#000000" stroke-linejoin="round" stroke-miterlimit="10" d="M232.209 119.374s1.75.458 1.75 4.5-1.458 4.5-1.458 4.5h5.583s1.833-.348 1.833-4.5-1.833-4.5-1.833-4.5z" transform="matrix(1.38685 -1.04996 1.04996 1.38684 -236.712 106.762)"/>
        <path fill="#fca" d="M249.21 19.594l-8.278 6.267s1.614-3.36-2.388-8.647c-4.003-5.287-7.564-4.497-7.564-4.497l8.279-6.268s2.253-1.706 7.229 4.866c4.976 6.573 2.722 8.279 2.722 8.279z"/>
        <path fill="url(#linearGradient1147)" stroke="#000000" stroke-linejoin="round" stroke-miterlimit="10" d="M252.969 128.665H247s1.906-.98 1.906-4.792-1.906-4.686-1.906-4.686h5.969s1.625 0 1.625 4.739-1.625 4.739-1.625 4.739z" transform="matrix(1.38685 -1.04996 1.04996 1.38684 -236.712 106.762)"/>
        <path fill="#f95" stroke="#000000" stroke-linejoin="round" stroke-miterlimit="10" d="M156.563 118s.188 1.875.188 5.875-.188 4.791-.188 4.791h.896s.234-1.208.25-4.832c.016-3.624-.209-4.668-.209-4.668z" transform="matrix(1.38685 -1.04996 1.04996 1.38684 -236.712 106.762)"/>
        <path fill="#f1f2f2" stroke="#000000" stroke-linejoin="round" stroke-miterlimit="10" d="M164.781 119.19s.219 1.128.219 4.891-.219 4.584-.219 4.584" transform="matrix(1.38685 -1.04996 1.04996 1.38684 -236.712 106.762)"/>
    </g>
    <g stroke-width=".575">
        <path fill="#ff8080" d="M245.994 46.35c1.072 1.417-1.623 3.309-1.623 3.309l-2.623 1.985-10.961-14.478 2.622-1.986s2.765-1.8 3.77-.472c0 0 1.05-.412 5.144 5.114 4.095 5.527 3.67 6.529 3.67 6.529z"/>
        <path fill="url(#linearGradient1170)" stroke="#000000" stroke-linejoin="round" stroke-miterlimit="10" d="M242.21 139.813c0 1.021-1.892.953-1.892.953h-1.891v-10.44h1.891s1.892.134 1.892 1.092c0 0 .624.175.583 4.129-.041 3.954-.583 4.266-.583 4.266z" transform="matrix(1.38685 -1.04996 1.04996 1.38684 -236.712 106.762)"/>
        <path fill="#faa" d="M246.2 47.344s.37-1.912-3.878-7.523-6.037-5.574-6.037-5.574c-1.216-.136-2.876.933-2.876.933s2.445 1.38 6.423 6.634c3.977 5.253 4.54 7.846 4.54 7.846s1.604-1.142 1.829-2.316z"/>
        <path fill="none" stroke="#ff2a2a" stroke-linecap="round" stroke-linejoin="round" stroke-miterlimit="10" stroke-width=".287" d="M242.268 138.552l-1.192 1.452m1.591-3.441l-1.591 1.948m1.591-3.469l-1.591 1.976m1.591-3.476l-1.591 1.983m1.192-2.945l-1.192 1.452m1.192-2.945l-1.192 1.452" transform="matrix(1.38685 -1.04996 1.04996 1.38684 -236.712 106.762)"/>
        <path fill="url(#linearGradient1195)" stroke="#000000" stroke-linejoin="round" stroke-miterlimit="10" d="M241.96 140.34s.833-.748.833-4.794c0-4.046-.833-4.65-.833-4.65-.51-.484-1.642-.57-1.642-.57s.642 1.481.642 5.269c0 3.788-.642 5.172-.642 5.172s1.132.033 1.642-.427z" transform="matrix(1.38685 -1.04996 1.04996 1.38684 -236.712 106.762)"/>
        <path fill="#cdde87" d="M241.641 52.373l-113.115 85.638-11.485-15.17 113.116-85.637s1.647-1.247 7.39 6.337c5.742 7.585 4.094 8.832 4.094 8.832z"/>
        <path fill="url(#linearGradient1218)" stroke="#000000" stroke-linejoin="round" stroke-miterlimit="10" d="M238.125 141.063h-81.563v-10.938h81.563s1.188 0 1.188 5.469-1.188 5.469-1.188 5.469z" transform="matrix(1.38685 -1.04996 1.04996 1.38684 -236.712 106.762)"/>
        <path fill="#cdde87" d="M221.94 37.697l5.115-3.872s-.237.59 1.305 2.625c1.541 2.036 2.173 1.968 2.173 1.968l-5.115 3.873s.315-.486-1.424-2.784c-1.74-2.298-2.054-1.81-2.054-1.81z"/>
        <path fill="url(#linearGradient1418)" stroke="#000000" stroke-linejoin="round" stroke-miterlimit="10" d="M234.188 127.5h3.688s-.313.188-.313 1.656.313 1.656.313 1.656h-3.688s.313-.113.313-1.77-.313-1.542-.313-1.542z" transform="matrix(1.38685 -1.04996 1.04996 1.38684 -236.712 106.762)"/>
    </g>
    <g stroke-width=".575" transform="matrix(1.38685 -1.04996 1.04996 1.38684 -236.712 106.762)">
        <path fill="#ffe680" d="M90.969 119.828S96.25 118 99 118h56.188s.25.531.25 4.219-.25 4.344-.25 4.344h1.375v14.188l-5.625.029c-.906-.029-.75-.904-.75-.904v-1.75H91.173z"/>
        <path fill="url(#linearGradient1441)" stroke="#000000" stroke-linejoin="round" stroke-miterlimit="10" d="M90.969 119.828S96.25 118 99 118h56.188s.25.531.25 4.219-.25 4.344-.25 4.344h1.375v14.188l-5.625.029c-.906-.029-.75-.904-.75-.904v-1.75H91.173z"/>
        <path fill="#fea" d="M156.563 129.043v11.707l-5.625.029c-.906-.029-.75-.904-.75-.904v-1.75h-2.603s-.105-1.875-1.209-1.875h-41.164c-3.681 0-3.337-1-3.337-1V133s-.044-.999 3.337-.999h40.957c1.519-.001 1.292-1.417 1.292-1.417v-1.541z"/>
        <path fill="url(#linearGradient1464)" stroke="#000000" stroke-linejoin="round" stroke-miterlimit="10" stroke-width=".287" d="M156.563 129.043v11.707l-5.625.029c-.906-.029-.75-.904-.75-.904v-1.75h-2.603s-.105-1.875-1.209-1.875h-41.164c-3.681 0-3.337-1-3.337-1V133s-.044-.999 3.337-.999h40.957c1.519-.001 1.292-1.417 1.292-1.417v-1.541z"/>
        <path fill="#f95" stroke="#000000" stroke-linejoin="round" stroke-miterlimit="10" stroke-width=".287" d="M126.917 119.498c-2.208-.042-2.333 2.25-2.333 2.25v5.667s-.167 1.25 1.542 1.25h21.542s2.042-.208 2.042-1.5v-5s.293-2.667-2.5-2.667z"/>
        <path fill="#ffb380" stroke="#000000" stroke-linejoin="round" stroke-miterlimit="10" stroke-width=".287" d="M126.895 119.5c-2.185-.024-2.311 2.248-2.311 2.248V127.463h4.715v-4.932h.084v-.367s.01-.099.008-.258c-.005-.372-.086-1.073-.543-1.625-.362-.437-.961-.778-1.953-.781zm2.404 7.963v.049c.006-.018.018-.031.023-.05zm0 .049c-.01.03-.029.054-.041.082h.04zm-.041.082h-4.674c.024.34.227 1.07 1.543 1.07h1.213s1.52-.175 1.918-1.07z"/>
        <circle cx="99.502" cy="135.17" r=".917" fill="#fff6d5" stroke="#000000" stroke-linejoin="round" stroke-miterlimit="10" stroke-width=".287"/>
    </g>
    <g stroke-width=".575" transform="matrix(1.38685 -1.04996 1.04996 1.38684 -236.712 106.762)">
        <path fill="#bcd35f" stroke="#000000" stroke-linejoin="round" stroke-miterlimit="10" d="M73.813 154.125s4.148 0 4.773-1.038c1.04-1.727-.251-1.875-.251-1.875s2.705-13.674 10.353-13.524l-.644-3.851-8.292 1.166-9.02 19.122zM91.891 119.531s-.266-1.063-1.307-.867c-2.347.441 1.667 17.585 1.667 17.585h.25s-3.142-14.791-1.531-16.422c.298-.302.625-.234.625-.234z"/>
        <path fill="#cdde87" stroke="#000000" stroke-linejoin="round" stroke-miterlimit="10" d="M90.583 118.665c-1.875 1.333 1.667 17.585 1.667 17.585l-1.563 1.438-2.687-.75C80.688 133.563 75.813 152 75.813 152c2.688 0 1.813 2.125 0 2.125h-6.917c-.664 0-1.229 0-1.962-.355l-1.872-1.229c-.437-.446-.726-1.13-.521-1.455.393-.624 2.747-7.823 6.292-13.253 3.212-4.919 7.667-8.145 7.667-8.145 4.313-2.858 1.375-4 2.625-5.5s9.458-5.523 9.458-5.523z"/>
        <path fill="url(#linearGradient1580)" stroke="#000000" stroke-linejoin="round" stroke-miterlimit="10" d="M90.583 118.665c-1.875 1.333 1.667 17.585 1.667 17.585l-1.563 1.438-2.687-.75C80.688 133.563 75.813 152 75.813 152c2.688 0 1.813 2.125 0 2.125h-6.917c-.664 0-1.229 0-1.962-.355l-1.872-1.229c-.437-.446-.726-1.13-.521-1.455.393-.624 2.747-7.823 6.292-13.253 3.212-4.919 7.667-8.145 7.667-8.145 4.313-2.858 1.375-4 2.625-5.5s9.458-5.523 9.458-5.523z"/>
        <path fill="#dde9af" d="M67.457 153.975c.5.15.942.15 1.439.15h6.917c1.813 0 2.688-2.125 0-2.125 0 0 4.307-16.285 10.894-15.443l-4.915-8.349s.188 1.48-2.078 3.045c-7.963 5.497-13.13 17.454-13.505 19.788-.375 2.334 1.248 2.934 1.248 2.934z"/>
        <path fill="url(#linearGradient1603)" stroke="#000000" stroke-linejoin="round" stroke-miterlimit="10" stroke-width=".287" d="M67.457 153.975c.5.15.942.15 1.439.15h6.917c1.813 0 2.688-2.125 0-2.125 0 0 4.307-16.285 10.894-15.443l-4.915-8.349s.188 1.48-2.078 3.045c-7.963 5.497-13.13 17.454-13.505 19.788-.375 2.334 1.248 2.934 1.248 2.934z"/>
        <path fill="none" stroke="#000000" stroke-linejoin="round" stroke-miterlimit="10" d="M90.583 118.665c-1.875 1.333 1.667 17.585 1.667 17.585l-1.563 1.438-2.687-.75C80.688 133.563 75.813 152 75.813 152c2.688 0 1.813 2.125 0 2.125h-6.917c-.664 0-1.229 0-1.962-.355l-1.872-1.229c-.437-.446-.726-1.13-.521-1.455.393-.624 2.747-7.823 6.292-13.253 3.212-4.919 7.667-8.145 7.667-8.145 4.313-2.858 1.375-4 2.625-5.5s9.458-5.523 9.458-5.523z"/>
        <path fill="#cdde87" stroke="#000000" stroke-miterlimit="10" stroke-width=".287" d="M88 136.938l2.688.75 1.563-1.438s-3.542-16.252-1.667-17.585c0 0-8.208 4.023-9.458 5.523a1.374 1.374 0 0 0-.317.646s2.196 2.845 4.318 6.415c2.122 3.57 2.873 5.689 2.873 5.689z"/>
        <path fill="url(#linearGradient1626)" stroke="#000000" stroke-miterlimit="10" stroke-width=".287" d="M88 136.938l2.688.75 1.563-1.438s-3.542-16.252-1.667-17.585c0 0-8.208 4.023-9.458 5.523a1.374 1.374 0 0 0-.317.646s2.196 2.845 4.318 6.415c2.122 3.57 2.873 5.689 2.873 5.689z"/>
        <path fill="#f1f2f2" stroke="#000000" stroke-linecap="round" stroke-miterlimit="10" stroke-width=".287" d="M80.334 136.747l-5.583 15.027M78.316 136.747l-5.584 15.027M76.297 136.747l-5.583 15.027M73.984 138.33l-4.995 13.444"/>
        <path fill="none" stroke="#000000" stroke-linecap="round" stroke-miterlimit="10" stroke-width=".287" d="M71.542 141.375l-4.147 10.399"/>
        <circle cx="75.406" cy="140.75" r="1.094" fill="#eef4d7" stroke="#000000" stroke-miterlimit="10" stroke-width=".287"/>
        <path fill="none" stroke="#000000" stroke-miterlimit="10" stroke-width=".287" d="M74.476 140.179l1.821 1.202"/>
        <path fill="#eef4d7" stroke="#000000" stroke-miterlimit="10" stroke-width=".287" d="M84.557 130.312s1.39-1.05 2.167.46c.777 1.51-.651 2.133-.651 2.133s-.55.377-1.233-.717c-.683-1.094-.283-1.876-.283-1.876z"/>
        <circle cx="85.781" cy="131.714" r=".942" fill="#dde9af" stroke="#000000" stroke-miterlimit="10" stroke-width=".287"/>
        <path fill="none" stroke="#000000" stroke-miterlimit="10" stroke-width=".287" d="M86.434 131.036l-1.237 1.411"/>
    </g>
    <g stroke-width=".575">
        <g fill="#fff6d5">
            <path d="M31.555 179.118l.377.055.029-3.512 1.59.885-1.418-5.438-2.835 4.851 1.773-.419-.932 3.385.385.053-.473 3.417c.17.033.338.063.51.089.175.02.347.037.521.05z"/>
            <path d="M29.434 181.891l.323-2.332-.48-.069.837-3.024-2.21.52 2.803-4.785-1.272.404.478-1.652-3.91-.86 3.388-.697-1.41-1.679a7.716 7.716 0 0 0-3.962 5.722 7.7 7.7 0 0 0 5.415 8.452z"/>
            <path d="M30.437 171.57l.783-.248 1.156-1.978.58 2.216.691.452-.009-1.173 1.521.09-1.248-.643 1.066-.722-1.75.033-.712-1.253-1.02 1.013-1.674-.509.824.986-1.37.281 1.489.328z"/>
            <path d="M35.242 170.205l3.077 1.595-3.995-.24.011 1.718-1.125-.734 1.4 5.372-1.978-1.098-.025 3.134-.47-.063-.326 2.332a7.706 7.706 0 0 0 7.504-6.665 7.717 7.717 0 0 0-2.252-6.577zM31.302 168.589l1.366-1.351.949 1.67 3.304-.061a7.689 7.689 0 0 0-8.777-1.213z"/>
        </g>
        <g fill="#fff6d5">
            <path d="M55.942 158.144l1.687-6.25-5.196 3.86zM54.752 162.224l6.461-.327-5.271-3.753zM50.505 162.352l4.247-.128-1.94 6.175zM47.013 152.217l5.42 3.537-3.361 2.595zM49.072 158.35l1.433 4.002-6.471.06z"/>
        </g>
        <path fill="none" stroke="#fff6d5" stroke-linecap="round" stroke-linejoin="round" stroke-miterlimit="10" stroke-width=".287" d="M116.907 121.5l-4.971-.485 8.065 4.9-9.291-4.009 7.982 6.094-8.942-3.661 5.126 4.137-4.166-1.031" transform="matrix(1.38685 -1.04996 1.04996 1.38684 -236.712 106.762)"/>
    </g>
    <g stroke-width=".575">
        <path fill="#bcd35f" stroke="#000000" stroke-linejoin="round" stroke-miterlimit="10" d="M155.438 140.756s0 3.182.75 3.119c.75-.063 2.375.001 2.375.001l.563-.501h38.31l5.878-1.059h26.938c2.875 0 3.438-2.441 3.438-2.441l-30.375-.063-5.878.953z" transform="matrix(1.38685 -1.04996 1.04996 1.38684 -290.698 147.633)"/>
        <path fill="#cdde87" d="M74.213 178.447L61.92 162.211l106.96-80.977 11.374 15.022-42.19 31.806-7.152 7.494z"/>
        <path fill="url(#linearGradient1249)" stroke="#000000" stroke-linejoin="round" stroke-miterlimit="10" d="M197.435 140.766l-40.872-.016v-11.707h77.125v10.832l-30.375-.062z" transform="matrix(1.38685 -1.04996 1.04996 1.38684 -290.698 147.633)"/>
        <path fill="#dde9af" stroke="#000000" stroke-linejoin="round" stroke-miterlimit="10" d="M232.875 126.75l.813 2.293h-30.375s3.188-.48 5-2.293z" transform="matrix(1.38685 -1.04996 1.04996 1.38684 -290.698 147.633)"/>
        <path fill="#cdde87" d="M65.82 159.259s14.467 17.736 14.702 20.139c.162 1.655-3.55 3.778-3.55 3.778s-.442-1.847-2.76-4.728L61.92 162.213z"/>
        <path fill="url(#linearGradient1272)" stroke="#000000" stroke-linejoin="round" stroke-miterlimit="10" d="M159.375 129.043s.476 13.149-.25 14.332c-.5.815-2.938.5-2.938.5s.438-1 .375-3.125v-11.707z" transform="matrix(1.38685 -1.04996 1.04996 1.38684 -290.698 147.633)"/>
        <path fill="#dde9af" d="M90.019 176.164s.207.455 1.378-.43c1.17-.887.875-1.277.875-1.277.905-1.776-16.151-23.406-16.151-23.406s-.397-.524-1.525.33c-1.127.853-.73 1.377-.73 1.377s17.493 21.573 16.153 23.406z"/>
        <path fill="url(#linearGradient1295)" stroke="#000000" stroke-linejoin="round" stroke-miterlimit="10" d="M164.6 145.188s-.063.281.781.281c.844 0 .844-.281.844-.281 1.031-.5.719-16.333.719-16.333s0-.378-.813-.378-.813.378-.813.378.532 15.958-.718 16.333z" transform="matrix(1.38685 -1.04996 1.04996 1.38684 -290.698 147.633)"/>
        <path fill="#f1f2f2" stroke="#000000" stroke-linejoin="round" stroke-miterlimit="10" d="M163.568 143.375s.156 1.813 1.031 1.813c.875 0 .778-5.375.778-5.375s-.521 3.348-1.06 3.563c-.539.215-.749-.001-.749-.001z" transform="matrix(1.38685 -1.04996 1.04996 1.38684 -290.698 147.633)"/>
        <path fill="#cdde87" stroke="#000000" stroke-linejoin="round" stroke-miterlimit="10" d="M162.21 145.188s-.063.281.781.281c.844 0 .844-.281.844-.281 1.031-.5.719-16.333.719-16.333s0-.378-.813-.378-.813.378-.813.378.532 15.958-.718 16.333z" transform="matrix(1.38685 -1.04996 1.04996 1.38684 -290.698 147.633)"/>
        <path fill="url(#linearGradient1318)" stroke="#000000" stroke-linejoin="round" stroke-miterlimit="10" d="M162.21 145.188s-.063.281.781.281c.844 0 .844-.281.844-.281 1.031-.5.719-16.333.719-16.333s0-.378-.813-.378-.813.378-.813.378.532 15.958-.718 16.333z" transform="matrix(1.38685 -1.04996 1.04996 1.38684 -290.698 147.633)"/>
        <path fill="#dde9af" stroke="#000000" stroke-linejoin="round" stroke-miterlimit="10" d="M161.179 143.375s.156 1.813 1.031 1.813c.875 0 .778-5.375.778-5.375s-.521 3.348-1.06 3.563c-.539.215-.749-.001-.749-.001z" transform="matrix(1.38685 -1.04996 1.04996 1.38684 -290.698 147.633)"/>
        <path fill="#dde9af" d="M125.289 135.415s.919 1.214-.209 2.067c-1.127.854-2.046-.36-2.046-.36l-10.192-13.462s-.373-.492.755-1.346c1.127-.853 1.5-.361 1.5-.361zm-3.872 2.932s.918 1.213-.209 2.067c-1.128.853-2.046-.36-2.046-.36l-10.192-13.462s-.373-.493.755-1.346c1.127-.854 1.5-.361 1.5-.361zm-3.87 2.93s.918 1.213-.21 2.067c-1.127.854-2.046-.36-2.046-.36L105.1 129.522s-.373-.492.755-1.346c1.127-.853 1.5-.361 1.5-.361zm-3.873 2.931s.919 1.214-.209 2.068c-1.127.853-2.046-.36-2.046-.36l-10.192-13.462s-.373-.493.755-1.346c1.127-.854 1.5-.362 1.5-.362zm-3.872 2.932s.919 1.213-.209 2.067c-1.127.854-2.046-.36-2.046-.36l-10.192-13.462s-.373-.492.755-1.346c1.127-.853 1.5-.361 1.5-.361zm-3.87 2.93s.918 1.214-.21 2.067c-1.127.854-2.046-.36-2.046-.36l-10.192-13.461s-.372-.493.755-1.346c1.128-.854 1.5-.362 1.5-.362zm-3.873 2.932s.919 1.213-.209 2.067c-1.127.854-2.046-.36-2.046-.36l-10.192-13.462s-.373-.492.755-1.346c1.127-.854 1.5-.361 1.5-.361zm-3.872 2.931s.919 1.214-.209 2.067c-1.127.854-2.046-.36-2.046-.36L85.74 144.179s-.373-.492.755-1.345c1.127-.854 1.5-.362 1.5-.362zm-3.87 2.93s.918 1.214-.21 2.068c-1.127.853-2.046-.36-2.046-.36L81.87 147.109s-.372-.492.755-1.346c1.128-.854 1.5-.361 1.5-.361zm-3.873 2.932s.919 1.214-.208 2.067c-1.128.854-2.047-.36-2.047-.36L77.997 150.04s-.372-.492.755-1.346c1.128-.853 1.5-.36 1.5-.36z"/>
        <path fill="url(#linearGradient1386)" stroke="#000000" stroke-linejoin="round" stroke-miterlimit="10" stroke-width=".287" d="M194.906 138.75s0 .875-.813.875-.813-.875-.813-.875v-9.707s0-.355.813-.355.813.355.813.355zm-2.792 0s0 .875-.813.875-.813-.875-.813-.875v-9.707s0-.355.813-.355.813.355.813.355zm-2.791 0s0 .875-.813.875-.813-.875-.813-.875v-9.707s0-.355.813-.355.813.355.813.355zm-2.792 0s0 .875-.813.875-.813-.875-.813-.875v-9.707s0-.355.813-.355.813.355.813.355zm-2.792 0s0 .875-.813.875-.813-.875-.813-.875v-9.707s0-.355.813-.355.813.355.813.355zm-2.791 0s0 .875-.813.875-.813-.875-.813-.875v-9.707s0-.355.813-.355.813.355.813.355zm-2.792 0s0 .875-.813.875-.813-.875-.813-.875v-9.707s0-.355.813-.355.813.355.813.355zm-2.792 0s0 .875-.813.875-.813-.875-.813-.875v-9.707s0-.355.813-.355.813.355.813.355zm-2.791 0s0 .875-.813.875-.813-.875-.813-.875v-9.707s0-.355.813-.355.813.355.813.355zm-2.792 0s0 .875-.813.875-.813-.875-.813-.875v-9.707s0-.355.813-.355.813.355.813.355z" transform="matrix(1.38685 -1.04996 1.04996 1.38684 -290.698 147.633)"/>
        <path fill="none" stroke="#000000" stroke-miterlimit="10" d="M159.523 135.938h74.165" transform="matrix(1.38685 -1.04996 1.04996 1.38684 -290.698 147.633)"/>
    </g>
</svg>
