<svg version="1.1" viewBox="0 0 256 256" xmlns="http://www.w3.org/2000/svg" xmlns:xlink="http://www.w3.org/1999/xlink">
 <defs>
  <linearGradient id="innoGrad5">
   <stop stop-color="#ffd42a" stop-opacity="0" offset="0"/>
   <stop stop-color="#ffd42a" stop-opacity=".502" offset="1"/>
  </linearGradient>
  <linearGradient id="innoGrad4">
   <stop stop-color="#abc837" stop-opacity=".502" offset="0"/>
   <stop stop-color="#abc837" stop-opacity="0" offset=".5"/>
   <stop stop-color="#abc837" stop-opacity=".502" offset="1"/>
  </linearGradient>
  <linearGradient id="innoGrad3">
   <stop stop-color="#ff2a2a" stop-opacity=".502" offset="0"/>
   <stop stop-color="#ff2a2a" stop-opacity="0" offset=".5"/>
   <stop stop-color="#ff2a2a" stop-opacity=".502" offset="1"/>
  </linearGradient>
  <linearGradient id="innoGrad2">
   <stop stop-color="#ff7f2a" stop-opacity=".502" offset="0"/>
   <stop stop-color="#ff7f2a" stop-opacity="0" offset=".5"/>
   <stop stop-color="#ff7f2a" stop-opacity=".502" offset="1"/>
  </linearGradient>
  <linearGradient id="innoGrad1">
   <stop stop-color="#abc837" stop-opacity=".502" offset="0"/>
   <stop stop-color="#abc837" stop-opacity="0" offset="1"/>
  </linearGradient>
  <linearGradient id="linearGradient1044" x1="105.73" x2="105.73" y1="138.5" y2="145.96" gradientUnits="userSpaceOnUse" xlink:href="#innoGrad1"/>
  <linearGradient id="linearGradient1076" x1="91.173" x2="91.173" y1="138.12" y2="147.59" gradientUnits="userSpaceOnUse" xlink:href="#innoGrad1"/>
  <linearGradient id="linearGradient1099" x1="164.78" x2="164.78" y1="119.19" y2="128.89" gradientUnits="userSpaceOnUse" xlink:href="#innoGrad2"/>
  <linearGradient id="linearGradient1124" x1="238.12" x2="238.12" y1="119.72" y2="128.19" gradientUnits="userSpaceOnUse" xlink:href="#innoGrad2"/>
  <linearGradient id="linearGradient1147" x1="252.97" x2="252.97" y1="119.19" y2="128.66" gradientUnits="userSpaceOnUse" xlink:href="#innoGrad2"/>
  <linearGradient id="linearGradient1170" x1="240.32" x2="240.32" y1="130.33" y2="140.77" gradientUnits="userSpaceOnUse" xlink:href="#innoGrad3"/>
  <linearGradient id="linearGradient1195" x1="241.96" x2="241.96" y1="130.9" y2="140.34" gradientUnits="userSpaceOnUse" xlink:href="#innoGrad3"/>
  <linearGradient id="linearGradient1218" x1="238.12" x2="238.12" y1="129.95" y2="141.06" gradientUnits="userSpaceOnUse" xlink:href="#innoGrad4"/>
  <linearGradient id="linearGradient1249" x1="159.52" x2="159.52" y1="140.46" y2="128.86" gradientUnits="userSpaceOnUse" xlink:href="#innoGrad1"/>
  <linearGradient id="linearGradient1272" x1="156.19" x2="156.19" y1="143.88" y2="128.92" gradientUnits="userSpaceOnUse" xlink:href="#innoGrad1"/>
  <linearGradient id="linearGradient1295" x1="166.22" x2="166.22" y1="145.19" y2="128.63" gradientUnits="userSpaceOnUse" xlink:href="#innoGrad1"/>
  <linearGradient id="linearGradient1318" x1="162.21" x2="162.21" y1="145.19" y2="128.63" gradientUnits="userSpaceOnUse" xlink:href="#innoGrad1"/>
  <linearGradient id="linearGradient1386" x1="194.91" x2="194.91" y1="138.65" y2="128.73" gradientUnits="userSpaceOnUse" xlink:href="#innoGrad1"/>
  <linearGradient id="linearGradient1418" x1="237.88" x2="237.88" y1="130.81" y2="127.48" gradientUnits="userSpaceOnUse" xlink:href="#innoGrad1"/>
  <linearGradient id="linearGradient1441" x1="90.688" x2="90.688" y1="137.69" y2="117.4" gradientUnits="userSpaceOnUse" xlink:href="#innoGrad5"/>
  <linearGradient id="linearGradient1464" x1="156.56" x2="156.56" y1="140.68" y2="129.04" gradientUnits="userSpaceOnUse" xlink:href="#innoGrad5"/>
  <linearGradient id="linearGradient1580" x1="72.594" x2="82.107" y1="135.15" y2="141.48" gradientUnits="userSpaceOnUse" xlink:href="#innoGrad4"/>
  <linearGradient id="linearGradient1603" x1="69.643" x2="79.67" y1="140.78" y2="147.02" gradientUnits="userSpaceOnUse" xlink:href="#innoGrad4"/>
  <linearGradient id="linearGradient1626" x1="90.584" x2="90.688" y1="118.66" y2="137.69" gradientUnits="userSpaceOnUse" xlink:href="#innoGrad1"/>
 </defs>
 <g stroke-width=".575">
  <g transform="matrix(1.3868 -1.05 1.05 1.3868 -236.71 106.76)">
   <path d="m109.29 146.23h-7.75s-2.646-0.354-2.458-3.271 4.271-4.584 4.271-4.584h-7.083l0.396 3.771 1.208 3.041 3.271 1.646h5.938z" fill="#abc837" stroke="#000" stroke-linejoin="round" stroke-miterlimit="10"/>
   <path d="m100.96 145.29-0.54 0.271-1.502-3.208 1.208-2.438 2.049-0.771h2.387s-4.08 1-4.457 3 0.855 3.146 0.855 3.146z" fill="#dde9af" stroke="#000" stroke-linejoin="round" stroke-miterlimit="10"/>
   <path d="M105.729 138.5s-.411.56-1.458.709c-2.771.396-4.417 1.749-4.542 2.666-.305 2.226.69 3.688.69 3.688s-2.21-.938-1.731-3.688c.479-2.75 2.938-3.375 2.938-3.375z" fill="#dde9af"/>
   <path d="M105.729 138.5s-.411.56-1.458.709c-2.771.396-4.417 1.749-4.542 2.666-.305 2.226.69 3.688.69 3.688s-2.21-.938-1.731-3.688c.479-2.75 2.938-3.375 2.938-3.375z" fill="url(#linearGradient1044)" stroke="#000" stroke-linejoin="round" stroke-miterlimit="10"/>
   <path d="m123.2 138.12c-9.542 1.334-12 8.959-14.75 8.959h-8.541c-1.465-0.146-2.589-2.704-4.25-4.917-1.646-2.193-4.487-4.042-4.487-4.042zm-12.166 4.479c0-2.563-3.208-4.104-3.208-4.104h-7.208s-3.292 1.292-3.292 4.037 3.292 4.037 3.292 4.037h7.208s3.208-0.423 3.208-3.97z" fill="#cdde87"/>
   <g stroke="#000" stroke-miterlimit="10">
    <path d="m123.2 138.12c-9.542 1.334-12 8.959-14.75 8.959h-8.541c-1.465-0.146-2.589-2.704-4.25-4.917-1.646-2.193-4.487-4.042-4.487-4.042zm-12.166 4.479c0-2.563-3.208-4.104-3.208-4.104h-7.208s-3.292 1.292-3.292 4.037 3.292 4.037 3.292 4.037h7.208s3.208-0.423 3.208-3.97z" fill="url(#linearGradient1076)" stroke-linejoin="round"/>
    <circle cx="112.75" cy="139.71" r="1.333" fill="#eef4d7" stroke-linejoin="round" stroke-width=".287"/>
    <path d="m150.19 138.12h-4.157l1.969 2.188h2.222z" fill="#eef4d7"/>
   </g>
  </g>
  <g>
   <g stroke="#000" stroke-linejoin="round" stroke-miterlimit="10">
    <path transform="matrix(1.3868 -1.05 1.05 1.3868 -236.71 106.76)" d="M232.188 127.5h3.688s-.313.188-.313 1.656.313 1.656.313 1.656h-3.688s.313-.113.313-1.77-.313-1.542-.313-1.542z" fill="#bcd35f"/>
    <path transform="matrix(1.3868 -1.05 1.05 1.3868 -236.71 106.76)" d="m248.78 119.8-10.656-0.074 10.5-1.566zm4.188-0.609-2.172-1.187v1.187z" fill="#ffb380"/>
    <path transform="matrix(1.3868 -1.05 1.05 1.3868 -236.71 106.76)" d="m247.44 117.66h3.359v1.53h-3.359z" fill="#ffb380"/>
    <path transform="matrix(1.3868 -1.05 1.05 1.3868 -236.71 106.76)" d="m247.44 117.66h2.781v-0.875l-2.781-1.281z" fill="#fca"/>
   </g>
   <path d="m102.4 107.47 1.907-1.444 2.524 0.631 134.27-100.2s1.868-1.318 6.068 4.23c4.2 5.546 2.248 7.297 2.248 7.297l-135.99 104.41z" fill="#ffb380"/>
   <path transform="matrix(1.3868 -1.05 1.05 1.3868 -236.71 106.76)" d="M155.188 118h1.375l.938 1.165 96.313.666s1.313.044 1.313 4.044c0 4-1.502 4.125-1.502 4.125l-98.563.665z" fill="url(#linearGradient1099)" stroke="#000" stroke-linejoin="round" stroke-miterlimit="10"/>
   <path d="m210.66 28.506s2.908-1.202 7.152 4.403c4.244 5.606 2.703 7.772 2.703 7.772l7.742-5.862s2.177-2.407-2.182-8.165c-4.36-5.759-7.267-4.317-7.267-4.317z" fill="#fca"/>
   <path transform="matrix(1.3868 -1.05 1.05 1.3868 -236.71 106.76)" d="M232.209 119.374s1.75.458 1.75 4.5-1.458 4.5-1.458 4.5h5.583s1.833-.348 1.833-4.5-1.833-4.5-1.833-4.5z" fill="url(#linearGradient1124)" stroke="#000" stroke-linejoin="round" stroke-miterlimit="10"/>
   <path d="m249.21 19.594-8.278 6.267s1.614-3.36-2.388-8.647c-4.003-5.287-7.564-4.497-7.564-4.497l8.279-6.268s2.253-1.706 7.229 4.866c4.976 6.573 2.722 8.279 2.722 8.279z" fill="#fca"/>
   <g stroke="#000" stroke-linejoin="round" stroke-miterlimit="10">
    <path transform="matrix(1.3868 -1.05 1.05 1.3868 -236.71 106.76)" d="M252.969 128.665H247s1.906-.98 1.906-4.792-1.906-4.686-1.906-4.686h5.969s1.625 0 1.625 4.739-1.625 4.739-1.625 4.739z" fill="url(#linearGradient1147)"/>
    <path transform="matrix(1.3868 -1.05 1.05 1.3868 -236.71 106.76)" d="m156.56 118s0.188 1.875 0.188 5.875-0.188 4.791-0.188 4.791h0.896s0.234-1.208 0.25-4.832-0.209-4.668-0.209-4.668z" fill="#f95"/>
    <path transform="matrix(1.3868 -1.05 1.05 1.3868 -236.71 106.76)" d="M164.781 119.19s.219 1.128.219 4.891-.219 4.584-.219 4.584" fill="#f1f2f2"/>
   </g>
  </g>
  <g>
   <path d="M245.994 46.35c1.072 1.417-1.623 3.309-1.623 3.309l-2.623 1.985-10.961-14.478 2.622-1.986s2.765-1.8 3.77-.472c0 0 1.05-.412 5.144 5.114 4.095 5.527 3.67 6.529 3.67 6.529z" fill="#ff8080"/>
   <path transform="matrix(1.3868 -1.05 1.05 1.3868 -236.71 106.76)" d="M242.21 139.813c0 1.021-1.892.953-1.892.953h-1.891v-10.44h1.891s1.892.134 1.892 1.092c0 0 .624.175.583 4.129-.041 3.954-.583 4.266-.583 4.266z" fill="url(#linearGradient1170)" stroke="#000" stroke-linejoin="round" stroke-miterlimit="10"/>
   <path d="M246.2 47.344s.37-1.912-3.878-7.523-6.037-5.574-6.037-5.574c-1.216-.136-2.876.933-2.876.933s2.445 1.38 6.423 6.634c3.977 5.253 4.54 7.846 4.54 7.846s1.604-1.142 1.829-2.316z" fill="#faa"/>
   <path transform="matrix(1.3868 -1.05 1.05 1.3868 -236.71 106.76)" d="m242.27 138.55-1.192 1.452m1.591-3.441-1.591 1.948m1.591-3.469-1.591 1.976m1.591-3.476-1.591 1.983m1.192-2.945-1.192 1.452m1.192-2.945-1.192 1.452" fill="none" stroke="#ff2a2a" stroke-linecap="round" stroke-linejoin="round" stroke-miterlimit="10" stroke-width=".287"/>
   <path transform="matrix(1.3868 -1.05 1.05 1.3868 -236.71 106.76)" d="M241.96 140.34s.833-.748.833-4.794c0-4.046-.833-4.65-.833-4.65-.51-.484-1.642-.57-1.642-.57s.642 1.481.642 5.269c0 3.788-.642 5.172-.642 5.172s1.132.033 1.642-.427z" fill="url(#linearGradient1195)" stroke="#000" stroke-linejoin="round" stroke-miterlimit="10"/>
   <path d="m241.64 52.373-113.12 85.638-11.485-15.17 113.12-85.637s1.647-1.247 7.39 6.337c5.742 7.585 4.094 8.832 4.094 8.832z" fill="#cdde87"/>
   <path transform="matrix(1.3868 -1.05 1.05 1.3868 -236.71 106.76)" d="m238.12 141.06h-81.563v-10.938h81.563s1.188 0 1.188 5.469-1.188 5.469-1.188 5.469z" fill="url(#linearGradient1218)" stroke="#000" stroke-linejoin="round" stroke-miterlimit="10"/>
   <path d="M221.94 37.697l5.115-3.872s-.237.59 1.305 2.625c1.541 2.036 2.173 1.968 2.173 1.968l-5.115 3.873s.315-.486-1.424-2.784c-1.74-2.298-2.054-1.81-2.054-1.81z" fill="#cdde87"/>
   <path transform="matrix(1.3868 -1.05 1.05 1.3868 -236.71 106.76)" d="M234.188 127.5h3.688s-.313.188-.313 1.656.313 1.656.313 1.656h-3.688s.313-.113.313-1.77-.313-1.542-.313-1.542z" fill="url(#linearGradient1418)" stroke="#000" stroke-linejoin="round" stroke-miterlimit="10"/>
  </g>
  <g transform="matrix(1.3868 -1.05 1.05 1.3868 -236.71 106.76)">
   <path d="M90.969 119.828S96.25 118 99 118h56.188s.25.531.25 4.219-.25 4.344-.25 4.344h1.375v14.188l-5.625.029c-.906-.029-.75-.904-.75-.904v-1.75H91.173z" fill="#ffe680"/>
   <path d="M90.969 119.828S96.25 118 99 118h56.188s.25.531.25 4.219-.25 4.344-.25 4.344h1.375v14.188l-5.625.029c-.906-.029-.75-.904-.75-.904v-1.75H91.173z" fill="url(#linearGradient1441)" stroke="#000" stroke-linejoin="round" stroke-miterlimit="10"/>
   <path d="M156.563 129.043v11.707l-5.625.029c-.906-.029-.75-.904-.75-.904v-1.75h-2.603s-.105-1.875-1.209-1.875h-41.164c-3.681 0-3.337-1-3.337-1V133s-.044-.999 3.337-.999h40.957c1.519-.001 1.292-1.417 1.292-1.417v-1.541z" fill="#fea"/>
   <g stroke="#000" stroke-linejoin="round" stroke-miterlimit="10" stroke-width=".287">
    <path d="M156.563 129.043v11.707l-5.625.029c-.906-.029-.75-.904-.75-.904v-1.75h-2.603s-.105-1.875-1.209-1.875h-41.164c-3.681 0-3.337-1-3.337-1V133s-.044-.999 3.337-.999h40.957c1.519-.001 1.292-1.417 1.292-1.417v-1.541z" fill="url(#linearGradient1464)"/>
    <path d="M126.917 119.498c-2.208-.042-2.333 2.25-2.333 2.25v5.667s-.167 1.25 1.542 1.25h21.542s2.042-.208 2.042-1.5v-5s.293-2.667-2.5-2.667z" fill="#f95"/>
    <path d="M126.895 119.5c-2.185-.024-2.311 2.248-2.311 2.248V127.463h4.715v-4.932h.084v-.367s.01-.099.008-.258c-.005-.372-.086-1.073-.543-1.625-.362-.437-.961-.778-1.953-.781zm2.404 7.963v.049c.006-.018.018-.031.023-.05zm0 .049c-.01.03-.029.054-.041.082h.04zm-.041.082h-4.674c.024.34.227 1.07 1.543 1.07h1.213s1.52-.175 1.918-1.07z" fill="#ffb380"/>
    <circle cx="99.502" cy="135.17" r=".917" fill="#fff6d5"/>
   </g>
  </g>
  <g transform="matrix(1.3868 -1.05 1.05 1.3868 -236.71 106.76)">
   <g stroke="#000" stroke-linejoin="round" stroke-miterlimit="10">
    <path d="M73.813 154.125s4.148 0 4.773-1.038c1.04-1.727-.251-1.875-.251-1.875s2.705-13.674 10.353-13.524l-.644-3.851-8.292 1.166-9.02 19.122zM91.891 119.531s-.266-1.063-1.307-.867c-2.347.441 1.667 17.585 1.667 17.585h.25s-3.142-14.791-1.531-16.422c.298-.302.625-.234.625-.234z" fill="#bcd35f"/>
    <path d="M90.583 118.665c-1.875 1.333 1.667 17.585 1.667 17.585l-1.563 1.438-2.687-.75C80.688 133.563 75.813 152 75.813 152c2.688 0 1.813 2.125 0 2.125h-6.917c-.664 0-1.229 0-1.962-.355l-1.872-1.229c-.437-.446-.726-1.13-.521-1.455.393-.624 2.747-7.823 6.292-13.253 3.212-4.919 7.667-8.145 7.667-8.145 4.313-2.858 1.375-4 2.625-5.5s9.458-5.523 9.458-5.523z" fill="#cdde87"/>
    <path d="M90.583 118.665c-1.875 1.333 1.667 17.585 1.667 17.585l-1.563 1.438-2.687-.75C80.688 133.563 75.813 152 75.813 152c2.688 0 1.813 2.125 0 2.125h-6.917c-.664 0-1.229 0-1.962-.355l-1.872-1.229c-.437-.446-.726-1.13-.521-1.455.393-.624 2.747-7.823 6.292-13.253 3.212-4.919 7.667-8.145 7.667-8.145 4.313-2.858 1.375-4 2.625-5.5s9.458-5.523 9.458-5.523z" fill="url(#linearGradient1580)"/>
   </g>
   <path d="m67.457 153.98c0.5 0.15 0.942 0.15 1.439 0.15h6.917c1.813 0 2.688-2.125 0-2.125 0 0 4.307-16.285 10.894-15.443l-4.915-8.349s0.188 1.48-2.078 3.045c-7.963 5.497-13.13 17.454-13.505 19.788s1.248 2.934 1.248 2.934z" fill="#dde9af"/>
   <g stroke="#000" stroke-miterlimit="10">
    <path d="m67.457 153.98c0.5 0.15 0.942 0.15 1.439 0.15h6.917c1.813 0 2.688-2.125 0-2.125 0 0 4.307-16.285 10.894-15.443l-4.915-8.349s0.188 1.48-2.078 3.045c-7.963 5.497-13.13 17.454-13.505 19.788s1.248 2.934 1.248 2.934z" fill="url(#linearGradient1603)" stroke-linejoin="round" stroke-width=".287"/>
    <path d="M90.583 118.665c-1.875 1.333 1.667 17.585 1.667 17.585l-1.563 1.438-2.687-.75C80.688 133.563 75.813 152 75.813 152c2.688 0 1.813 2.125 0 2.125h-6.917c-.664 0-1.229 0-1.962-.355l-1.872-1.229c-.437-.446-.726-1.13-.521-1.455.393-.624 2.747-7.823 6.292-13.253 3.212-4.919 7.667-8.145 7.667-8.145 4.313-2.858 1.375-4 2.625-5.5s9.458-5.523 9.458-5.523z" fill="none" stroke-linejoin="round"/>
    <g stroke-width=".287">
     <path d="m88 136.94 2.688 0.75 1.563-1.438s-3.542-16.252-1.667-17.585c0 0-8.208 4.023-9.458 5.523a1.374 1.374 0 0 0-0.317 0.646s2.196 2.845 4.318 6.415 2.873 5.689 2.873 5.689z" fill="#cdde87"/>
     <path d="m88 136.94 2.688 0.75 1.563-1.438s-3.542-16.252-1.667-17.585c0 0-8.208 4.023-9.458 5.523a1.374 1.374 0 0 0-0.317 0.646s2.196 2.845 4.318 6.415 2.873 5.689 2.873 5.689z" fill="url(#linearGradient1626)"/>
     <path d="m80.334 136.75-5.583 15.027m3.565-15.027-5.584 15.027m3.565-15.027-5.583 15.027m3.27-13.444-4.995 13.444" fill="#f1f2f2" stroke-linecap="round"/>
     <path d="m71.542 141.38-4.147 10.399" fill="none" stroke-linecap="round"/>
     <circle cx="75.406" cy="140.75" r="1.094" fill="#eef4d7"/>
     <path d="m74.476 140.18 1.821 1.202" fill="none"/>
     <path d="m84.557 130.31s1.39-1.05 2.167 0.46-0.651 2.133-0.651 2.133-0.55 0.377-1.233-0.717-0.283-1.876-0.283-1.876z" fill="#eef4d7"/>
     <circle cx="85.781" cy="131.71" r=".942" fill="#dde9af"/>
     <path d="m86.434 131.04-1.237 1.411" fill="none"/>
    </g>
   </g>
  </g>
  <g>
   <g fill="#fff6d5">
    <path d="M31.555 179.118l.377.055.029-3.512 1.59.885-1.418-5.438-2.835 4.851 1.773-.419-.932 3.385.385.053-.473 3.417c.17.033.338.063.51.089.175.02.347.037.521.05z"/>
    <path d="M29.434 181.891l.323-2.332-.48-.069.837-3.024-2.21.52 2.803-4.785-1.272.404.478-1.652-3.91-.86 3.388-.697-1.41-1.679a7.716 7.716 0 0 0-3.962 5.722 7.7 7.7 0 0 0 5.415 8.452z"/>
    <path d="M30.437 171.57l.783-.248 1.156-1.978.58 2.216.691.452-.009-1.173 1.521.09-1.248-.643 1.066-.722-1.75.033-.712-1.253-1.02 1.013-1.674-.509.824.986-1.37.281 1.489.328z"/>
    <path d="M35.242 170.205l3.077 1.595-3.995-.24.011 1.718-1.125-.734 1.4 5.372-1.978-1.098-.025 3.134-.47-.063-.326 2.332a7.706 7.706 0 0 0 7.504-6.665 7.717 7.717 0 0 0-2.252-6.577zM31.302 168.589l1.366-1.351.949 1.67 3.304-.061a7.689 7.689 0 0 0-8.777-1.213z"/>
   </g>
   <g fill="#fff6d5">
    <path d="m55.942 158.14 1.687-6.25-5.196 3.86zm-1.19 4.08 6.461-0.327-5.271-3.753zm-4.247 0.128 4.247-0.128-1.94 6.175zm-3.492-10.135 5.42 3.537-3.361 2.595zm2.059 6.133 1.433 4.002-6.471 0.06z"/>
   </g>
   <path transform="matrix(1.3868 -1.05 1.05 1.3868 -236.71 106.76)" d="m116.91 121.5-4.971-0.485 8.065 4.9-9.291-4.009 7.982 6.094-8.942-3.661 5.126 4.137-4.166-1.031" fill="none" stroke="#fff6d5" stroke-linecap="round" stroke-linejoin="round" stroke-miterlimit="10" stroke-width=".287"/>
  </g>
  <g>
   <path transform="matrix(1.3868 -1.05 1.05 1.3868 -290.7 147.63)" d="m155.44 140.76s0 3.182 0.75 3.119 2.375 1e-3 2.375 1e-3l0.563-0.501h38.31l5.878-1.059h26.938c2.875 0 3.438-2.441 3.438-2.441l-30.375-0.063-5.878 0.953z" fill="#bcd35f" stroke="#000" stroke-linejoin="round" stroke-miterlimit="10"/>
   <path d="m74.213 178.45-12.293-16.236 106.96-80.977 11.374 15.022-42.19 31.806-7.152 7.494z" fill="#cdde87"/>
   <path transform="matrix(1.3868 -1.05 1.05 1.3868 -290.7 147.63)" d="m197.44 140.77-40.872-0.016v-11.707h77.125v10.832l-30.375-0.062z" fill="url(#linearGradient1249)" stroke="#000" stroke-linejoin="round" stroke-miterlimit="10"/>
   <path transform="matrix(1.3868 -1.05 1.05 1.3868 -290.7 147.63)" d="M232.875 126.75l.813 2.293h-30.375s3.188-.48 5-2.293z" fill="#dde9af" stroke="#000" stroke-linejoin="round" stroke-miterlimit="10"/>
   <path d="M65.82 159.259s14.467 17.736 14.702 20.139c.162 1.655-3.55 3.778-3.55 3.778s-.442-1.847-2.76-4.728L61.92 162.213z" fill="#cdde87"/>
   <path transform="matrix(1.3868 -1.05 1.05 1.3868 -290.7 147.63)" d="M159.375 129.043s.476 13.149-.25 14.332c-.5.815-2.938.5-2.938.5s.438-1 .375-3.125v-11.707z" fill="url(#linearGradient1272)" stroke="#000" stroke-linejoin="round" stroke-miterlimit="10"/>
   <path d="M90.019 176.164s.207.455 1.378-.43c1.17-.887.875-1.277.875-1.277.905-1.776-16.151-23.406-16.151-23.406s-.397-.524-1.525.33c-1.127.853-.73 1.377-.73 1.377s17.493 21.573 16.153 23.406z" fill="#dde9af"/>
   <g stroke="#000" stroke-linejoin="round" stroke-miterlimit="10">
    <path transform="matrix(1.3868 -1.05 1.05 1.3868 -290.7 147.63)" d="M164.6 145.188s-.063.281.781.281c.844 0 .844-.281.844-.281 1.031-.5.719-16.333.719-16.333s0-.378-.813-.378-.813.378-.813.378.532 15.958-.718 16.333z" fill="url(#linearGradient1295)"/>
    <path transform="matrix(1.3868 -1.05 1.05 1.3868 -290.7 147.63)" d="m163.57 143.38s0.156 1.813 1.031 1.813 0.778-5.375 0.778-5.375-0.521 3.348-1.06 3.563-0.749-1e-3 -0.749-1e-3z" fill="#f1f2f2"/>
    <path transform="matrix(1.3868 -1.05 1.05 1.3868 -290.7 147.63)" d="M162.21 145.188s-.063.281.781.281c.844 0 .844-.281.844-.281 1.031-.5.719-16.333.719-16.333s0-.378-.813-.378-.813.378-.813.378.532 15.958-.718 16.333z" fill="#cdde87"/>
    <path transform="matrix(1.3868 -1.05 1.05 1.3868 -290.7 147.63)" d="M162.21 145.188s-.063.281.781.281c.844 0 .844-.281.844-.281 1.031-.5.719-16.333.719-16.333s0-.378-.813-.378-.813.378-.813.378.532 15.958-.718 16.333z" fill="url(#linearGradient1318)"/>
    <path transform="matrix(1.3868 -1.05 1.05 1.3868 -290.7 147.63)" d="m161.18 143.38s0.156 1.813 1.031 1.813 0.778-5.375 0.778-5.375-0.521 3.348-1.06 3.563-0.749-1e-3 -0.749-1e-3z" fill="#dde9af"/>
   </g>
   <path d="M125.289 135.415s.919 1.214-.209 2.067c-1.127.854-2.046-.36-2.046-.36l-10.192-13.462s-.373-.492.755-1.346c1.127-.853 1.5-.361 1.5-.361zm-3.872 2.932s.918 1.213-.209 2.067c-1.128.853-2.046-.36-2.046-.36l-10.192-13.462s-.373-.493.755-1.346c1.127-.854 1.5-.361 1.5-.361zm-3.87 2.93s.918 1.213-.21 2.067c-1.127.854-2.046-.36-2.046-.36L105.1 129.522s-.373-.492.755-1.346c1.127-.853 1.5-.361 1.5-.361zm-3.873 2.931s.919 1.214-.209 2.068c-1.127.853-2.046-.36-2.046-.36l-10.192-13.462s-.373-.493.755-1.346c1.127-.854 1.5-.362 1.5-.362zm-3.872 2.932s.919 1.213-.209 2.067c-1.127.854-2.046-.36-2.046-.36l-10.192-13.462s-.373-.492.755-1.346c1.127-.853 1.5-.361 1.5-.361zm-3.87 2.93s.918 1.214-.21 2.067c-1.127.854-2.046-.36-2.046-.36l-10.192-13.461s-.372-.493.755-1.346c1.128-.854 1.5-.362 1.5-.362zm-3.873 2.932s.919 1.213-.209 2.067c-1.127.854-2.046-.36-2.046-.36l-10.192-13.462s-.373-.492.755-1.346c1.127-.854 1.5-.361 1.5-.361zm-3.872 2.931s.919 1.214-.209 2.067c-1.127.854-2.046-.36-2.046-.36L85.74 144.179s-.373-.492.755-1.345c1.127-.854 1.5-.362 1.5-.362zm-3.87 2.93s.918 1.214-.21 2.068c-1.127.853-2.046-.36-2.046-.36L81.87 147.109s-.372-.492.755-1.346c1.128-.854 1.5-.361 1.5-.361zm-3.873 2.932s.919 1.214-.208 2.067c-1.128.854-2.047-.36-2.047-.36L77.997 150.04s-.372-.492.755-1.346c1.128-.853 1.5-.36 1.5-.36z" fill="#dde9af"/>
   <path transform="matrix(1.3868 -1.05 1.05 1.3868 -290.7 147.63)" d="M194.906 138.75s0 .875-.813.875-.813-.875-.813-.875v-9.707s0-.355.813-.355.813.355.813.355zm-2.792 0s0 .875-.813.875-.813-.875-.813-.875v-9.707s0-.355.813-.355.813.355.813.355zm-2.791 0s0 .875-.813.875-.813-.875-.813-.875v-9.707s0-.355.813-.355.813.355.813.355zm-2.792 0s0 .875-.813.875-.813-.875-.813-.875v-9.707s0-.355.813-.355.813.355.813.355zm-2.792 0s0 .875-.813.875-.813-.875-.813-.875v-9.707s0-.355.813-.355.813.355.813.355zm-2.791 0s0 .875-.813.875-.813-.875-.813-.875v-9.707s0-.355.813-.355.813.355.813.355zm-2.792 0s0 .875-.813.875-.813-.875-.813-.875v-9.707s0-.355.813-.355.813.355.813.355zm-2.792 0s0 .875-.813.875-.813-.875-.813-.875v-9.707s0-.355.813-.355.813.355.813.355zm-2.791 0s0 .875-.813.875-.813-.875-.813-.875v-9.707s0-.355.813-.355.813.355.813.355zm-2.792 0s0 .875-.813.875-.813-.875-.813-.875v-9.707s0-.355.813-.355.813.355.813.355z" fill="url(#linearGradient1386)" stroke="#000" stroke-linejoin="round" stroke-miterlimit="10" stroke-width=".287"/>
   <path transform="matrix(1.3868 -1.05 1.05 1.3868 -290.7 147.63)" d="m159.52 135.94h74.165" fill="none" stroke="#000" stroke-miterlimit="10"/>
  </g>
 </g>
</svg>
