<svg xmlns="http://www.w3.org/2000/svg" xmlns:xlink="http://www.w3.org/1999/xlink" viewBox="0 0 256 256">
    <defs>
        <linearGradient id="innoGrad7">
            <stop offset="0" stop-color="#ffd42a" stop-opacity=".502"/>
            <stop offset=".5" stop-color="#ffd42a" stop-opacity="0"/>
            <stop offset="1" stop-color="#ffd42a" stop-opacity=".502"/>
        </linearGradient>
        <linearGradient id="innoGrad6">
            <stop offset="0" stop-color="#ff7f2a" stop-opacity="0"/>
            <stop offset="1" stop-color="#ff7f2a" stop-opacity=".502"/>
        </linearGradient>
        <linearGradient id="innoGrad5">
            <stop offset="0" stop-color="#ffd42a" stop-opacity="0"/>
            <stop offset="1" stop-color="#ffd42a" stop-opacity=".502"/>
        </linearGradient>
        <linearGradient id="innoGrad4">
            <stop offset="0" stop-color="#abc837" stop-opacity=".502"/>
            <stop offset=".5" stop-color="#abc837" stop-opacity="0"/>
            <stop offset="1" stop-color="#abc837" stop-opacity=".502"/>
        </linearGradient>
        <linearGradient id="innoGrad3">
            <stop offset="0" stop-color="#ff2a2a" stop-opacity=".502"/>
            <stop offset=".5" stop-color="#ff2a2a" stop-opacity="0"/>
            <stop offset="1" stop-color="#ff2a2a" stop-opacity=".502"/>
        </linearGradient>
        <linearGradient id="innoGrad2">
            <stop offset="0" stop-color="#ff7f2a" stop-opacity=".502"/>
            <stop offset=".5" stop-color="#ff7f2a" stop-opacity="0"/>
            <stop offset="1" stop-color="#ff7f2a" stop-opacity=".502"/>
        </linearGradient>
        <linearGradient id="innoGrad1">
            <stop offset="0" stop-color="#abc837" stop-opacity=".502"/>
            <stop offset="1" stop-color="#abc837" stop-opacity="0"/>
        </linearGradient>
        <linearGradient id="linearGradient1044" x1="105.729" x2="105.729" y1="138.5" y2="145.962" gradientUnits="userSpaceOnUse" xlink:href="#innoGrad1"/>
        <linearGradient id="linearGradient1076" x1="91.173" x2="91.173" y1="138.125" y2="147.59" gradientUnits="userSpaceOnUse" xlink:href="#innoGrad1"/>
        <linearGradient id="linearGradient1099" x1="164.781" x2="164.781" y1="119.19" y2="128.893" gradientUnits="userSpaceOnUse" xlink:href="#innoGrad2"/>
        <linearGradient id="linearGradient1124" x1="238.125" x2="238.125" y1="119.722" y2="128.189" gradientUnits="userSpaceOnUse" xlink:href="#innoGrad2"/>
        <linearGradient id="linearGradient1147" x1="252.969" x2="252.969" y1="119.187" y2="128.665" gradientUnits="userSpaceOnUse" xlink:href="#innoGrad2"/>
        <linearGradient id="linearGradient1170" x1="240.318" x2="240.318" y1="130.326" y2="140.767" gradientUnits="userSpaceOnUse" xlink:href="#innoGrad3"/>
        <linearGradient id="linearGradient1195" x1="241.96" x2="241.96" y1="130.896" y2="140.34" gradientUnits="userSpaceOnUse" xlink:href="#innoGrad3"/>
        <linearGradient id="linearGradient1218" x1="238.125" x2="238.125" y1="129.953" y2="141.063" gradientUnits="userSpaceOnUse" xlink:href="#innoGrad4"/>
        <linearGradient id="linearGradient1249" x1="159.515" x2="159.515" y1="140.465" y2="128.864" gradientUnits="userSpaceOnUse" xlink:href="#innoGrad1"/>
        <linearGradient id="linearGradient1272" x1="156.187" x2="156.187" y1="143.875" y2="128.915" gradientUnits="userSpaceOnUse" xlink:href="#innoGrad1"/>
        <linearGradient id="linearGradient1295" x1="166.225" x2="166.225" y1="145.188" y2="128.634" gradientUnits="userSpaceOnUse" xlink:href="#innoGrad1"/>
        <linearGradient id="linearGradient1318" x1="162.21" x2="162.21" y1="145.188" y2="128.634" gradientUnits="userSpaceOnUse" xlink:href="#innoGrad1"/>
        <linearGradient id="linearGradient1386" x1="194.906" x2="194.906" y1="138.654" y2="128.733" gradientUnits="userSpaceOnUse" xlink:href="#innoGrad1"/>
        <linearGradient id="linearGradient1418" x1="237.876" x2="237.876" y1="130.812" y2="127.477" gradientUnits="userSpaceOnUse" xlink:href="#innoGrad1"/>
        <linearGradient id="linearGradient1441" x1="90.688" x2="90.688" y1="137.688" y2="117.405" gradientUnits="userSpaceOnUse" xlink:href="#innoGrad5"/>
        <linearGradient id="linearGradient1464" x1="156.563" x2="156.563" y1="140.682" y2="129.043" gradientUnits="userSpaceOnUse" xlink:href="#innoGrad5"/>
        <linearGradient id="linearGradient1495" x1="125.313" x2="125.313" y1="123.294" y2="125.063" gradientUnits="userSpaceOnUse" xlink:href="#innoGrad2"/>
        <linearGradient id="linearGradient1518" x1="129.437" x2="129.437" y1="125.254" y2="121.906" gradientUnits="userSpaceOnUse" xlink:href="#innoGrad6"/>
        <linearGradient id="linearGradient1549" x1="15.159" x2="15.522" y1="148.341" y2="152.804" gradientUnits="userSpaceOnUse" xlink:href="#innoGrad7"/>
        <linearGradient id="linearGradient1580" x1="72.594" x2="82.107" y1="135.149" y2="141.477" gradientUnits="userSpaceOnUse" xlink:href="#innoGrad4"/>
        <linearGradient id="linearGradient1603" x1="69.643" x2="79.67" y1="140.783" y2="147.015" gradientUnits="userSpaceOnUse" xlink:href="#innoGrad4"/>
        <linearGradient id="linearGradient1626" x1="90.584" x2="90.688" y1="118.665" y2="137.688" gradientUnits="userSpaceOnUse" xlink:href="#innoGrad1"/>
    </defs>
    <g stroke-width=".765" transform="matrix(1.03106 -.80216 .80216 1.03106 -114.568 86.307)">
        <path fill="#abc837" stroke="#000000" stroke-linejoin="round" stroke-miterlimit="10" d="M109.292 146.229h-7.75s-2.646-.354-2.458-3.271c.188-2.917 4.271-4.584 4.271-4.584h-7.083l.396 3.771 1.208 3.041 3.271 1.646h5.938z"/>
        <path fill="#dde9af" stroke="#000000" stroke-linejoin="round" stroke-miterlimit="10" d="M100.958 145.292l-.54.271-1.502-3.208 1.208-2.438 2.049-.771h2.387s-4.08 1-4.457 3c-.377 2 .855 3.146.855 3.146z"/>
        <path fill="#dde9af" d="M105.729 138.5s-.411.56-1.458.709c-2.771.396-4.417 1.749-4.542 2.666-.305 2.226.69 3.688.69 3.688s-2.21-.938-1.731-3.688c.479-2.75 2.938-3.375 2.938-3.375z"/>
        <path fill="url(#linearGradient1044)" stroke="#000000" stroke-linejoin="round" stroke-miterlimit="10" d="M105.729 138.5s-.411.56-1.458.709c-2.771.396-4.417 1.749-4.542 2.666-.305 2.226.69 3.688.69 3.688s-2.21-.938-1.731-3.688c.479-2.75 2.938-3.375 2.938-3.375z"/>
        <path fill="#cdde87" d="M123.201 138.125c-9.542 1.334-12 8.959-14.75 8.959H99.91c-1.465-.146-2.589-2.704-4.25-4.917-1.646-2.193-4.487-4.042-4.487-4.042zm-12.166 4.479c0-2.563-3.208-4.104-3.208-4.104h-7.208s-3.292 1.292-3.292 4.037 3.292 4.037 3.292 4.037h7.208s3.208-.423 3.208-3.97z"/>
        <path fill="url(#linearGradient1076)" stroke="#000000" stroke-linejoin="round" stroke-miterlimit="10" d="M123.201 138.125c-9.542 1.334-12 8.959-14.75 8.959H99.91c-1.465-.146-2.589-2.704-4.25-4.917-1.646-2.193-4.487-4.042-4.487-4.042zm-12.166 4.479c0-2.563-3.208-4.104-3.208-4.104h-7.208s-3.292 1.292-3.292 4.037 3.292 4.037 3.292 4.037h7.208s3.208-.423 3.208-3.97z"/>
        <circle cx="112.75" cy="139.708" r="1.333" fill="#eef4d7" stroke="#000000" stroke-linejoin="round" stroke-miterlimit="10" stroke-width=".383"/>
        <path fill="#eef4d7" stroke="#000000" stroke-miterlimit="10" d="M150.188 138.125h-4.157l1.969 2.188h2.222z"/>
    </g>
    <g stroke-width=".765">
        <path fill="#ffb380" stroke="#000000" stroke-linejoin="round" stroke-miterlimit="10" d="M248.625 118.156l.156 1.64-10.656-.074zM250.797 119.187h2.172L250.797 118z" transform="matrix(1.03106 -.80216 .80216 1.03106 -114.568 86.307)"/>
        <path fill="#ffb380" stroke="#000000" stroke-linejoin="round" stroke-miterlimit="10" d="M247.438 117.656h3.359v1.53h-3.359z" transform="matrix(1.03106 -.80216 .80216 1.03106 -114.568 86.307)"/>
        <path fill="#fca" stroke="#000000" stroke-linejoin="round" stroke-miterlimit="10" d="M250.219 117.656v-.875l-2.781-1.281v2.156z" transform="matrix(1.03106 -.80216 .80216 1.03106 -114.568 86.307)"/>
        <path fill="#ffb380" d="M140.095 83.487l1.418-1.103 1.902.449L243.254 6.26s1.389-1.008 4.597 3.116c3.209 4.125 1.76 5.458 1.76 5.458l-101.09 79.75z"/>
        <path fill="url(#linearGradient1099)" stroke="#000000" stroke-linejoin="round" stroke-miterlimit="10" d="M155.188 118h1.375l.938 1.165 96.313.666s1.313.044 1.313 4.044c0 4-1.502 4.125-1.502 4.125l-98.563.665z" transform="matrix(1.03106 -.80216 .80216 1.03106 -114.568 86.307)"/>
        <path fill="#fca" d="M220.61 23.12s2.173-.931 5.415 3.236c3.242 4.168 2.106 5.81 2.106 5.81l5.757-4.479s1.61-1.829-1.72-6.11c-3.33-4.28-5.5-3.17-5.5-3.17z"/>
        <path fill="url(#linearGradient1124)" stroke="#000000" stroke-linejoin="round" stroke-miterlimit="10" d="M232.209 119.374s1.75.458 1.75 4.5-1.458 4.5-1.458 4.5h5.583s1.833-.348 1.833-4.5-1.833-4.5-1.833-4.5z" transform="matrix(1.03106 -.80216 .80216 1.03106 -114.568 86.307)"/>
        <path fill="#fca" d="M249.469 16.047l-6.155 4.788s1.18-2.54-1.879-6.47c-3.057-3.93-5.724-3.302-5.724-3.302l6.155-4.788s1.675-1.304 5.477 3.582c3.801 4.887 2.126 6.19 2.126 6.19z"/>
        <path fill="url(#linearGradient1147)" stroke="#000000" stroke-linejoin="round" stroke-miterlimit="10" d="M252.969 128.665H247s1.906-.98 1.906-4.792-1.906-4.686-1.906-4.686h5.969s1.625 0 1.625 4.739-1.625 4.739-1.625 4.739z" transform="matrix(1.03106 -.80216 .80216 1.03106 -114.568 86.307)"/>
        <path fill="#f95" stroke="#000000" stroke-linejoin="round" stroke-miterlimit="10" d="M156.563 118s.188 1.875.188 5.875-.188 4.791-.188 4.791h.896s.234-1.208.25-4.832c.016-3.624-.209-4.668-.209-4.668z" transform="matrix(1.03106 -.80216 .80216 1.03106 -114.568 86.307)"/>
        <path fill="#f1f2f2" stroke="#000000" stroke-linejoin="round" stroke-miterlimit="10" d="M164.781 119.19s.219 1.128.219 4.891-.219 4.584-.219 4.584" transform="matrix(1.03106 -.80216 .80216 1.03106 -114.568 86.307)"/>
    </g>
    <g stroke-width=".765">
        <path fill="#bcd35f" stroke="#000000" stroke-linejoin="round" stroke-miterlimit="10" d="M232.188 127.5h3.688s-.313.188-.313 1.656.313 1.656.313 1.656h-3.688s.313-.113.313-1.77-.313-1.542-.313-1.542z" transform="matrix(1.03106 -.80216 .80216 1.03106 -114.568 86.307)"/>
        <path fill="#ff8080" d="M247.318 36.172c.819 1.053-1.186 2.5-1.186 2.5l-1.95 1.517-8.375-10.764 1.95-1.517s2.058-1.38 2.827-.392c0 0 .783-.32 3.913 3.79s2.82 4.866 2.82 4.866z"/>
        <path fill="url(#linearGradient1170)" stroke="#000000" stroke-linejoin="round" stroke-miterlimit="10" d="M242.21 139.813c0 1.021-1.892.953-1.892.953h-1.891v-10.44h1.891s1.892.134 1.892 1.092c0 0 .624.175.583 4.129-.041 3.954-.583 4.266-.583 4.266z" transform="matrix(1.03106 -.80216 .80216 1.03106 -114.568 86.307)"/>
        <path fill="#faa" d="M247.483 36.916s.259-1.44-2.987-5.611c-3.245-4.172-4.589-4.127-4.589-4.127-.914-.09-2.15.73-2.15.73s1.85 1.012 4.889 4.918c3.038 3.905 3.486 5.847 3.486 5.847s1.194-.874 1.35-1.757z"/>
        <path fill="none" stroke="#ff2a2a" stroke-linecap="round" stroke-linejoin="round" stroke-miterlimit="10" stroke-width=".383" d="M242.268 138.552l-1.192 1.452m1.591-3.441l-1.591 1.948m1.591-3.469l-1.591 1.976m1.591-3.476l-1.591 1.983m1.192-2.945l-1.192 1.452m1.192-2.945l-1.192 1.452" transform="matrix(1.03106 -.80216 .80216 1.03106 -114.568 86.307)"/>
        <path fill="url(#linearGradient1195)" stroke="#000000" stroke-linejoin="round" stroke-miterlimit="10" d="M241.96 140.34s.833-.748.833-4.794c0-4.046-.833-4.65-.833-4.65-.51-.484-1.642-.57-1.642-.57s.642 1.481.642 5.269c0 3.788-.642 5.172-.642 5.172s1.132.033 1.642-.427z" transform="matrix(1.03106 -.80216 .80216 1.03106 -114.568 86.307)"/>
        <path fill="#cdde87" d="M244.109 40.738l-84.097 65.426-8.774-11.278 84.097-65.426s1.225-.953 5.612 4.686c4.387 5.639 3.162 6.592 3.162 6.592z"/>
        <path fill="url(#linearGradient1218)" stroke="#000000" stroke-linejoin="round" stroke-miterlimit="10" d="M238.125 141.063h-81.563v-10.938h81.563s1.188 0 1.188 5.469-1.188 5.469-1.188 5.469z" transform="matrix(1.03106 -.80216 .80216 1.03106 -114.568 86.307)"/>
        <path fill="#bcd35f" stroke="#000000" stroke-linejoin="round" stroke-miterlimit="10" d="M155.438 140.756s0 3.182.75 3.119c.75-.063 2.375.001 2.375.001l.563-.501h38.31l5.878-1.059h26.938c2.875 0 3.438-2.441 3.438-2.441l-30.375-.063-5.878.953z" transform="matrix(1.03106 -.80216 .80216 1.03106 -114.568 86.307)"/>
        <path fill="#cdde87" d="M201.917 73.071l-42.155 32.77-9.39-12.071 79.52-61.867 8.689 11.169-31.368 24.302z"/>
        <path fill="url(#linearGradient1249)" stroke="#000000" stroke-linejoin="round" stroke-miterlimit="10" d="M233.688 139.875l-30.375-.062-5.878.953-40.872-.016v-11.707h77.125z" transform="matrix(1.03106 -.80216 .80216 1.03106 -114.568 86.307)"/>
        <path fill="#dde9af" stroke="#000000" stroke-linejoin="round" stroke-miterlimit="10" d="M232.875 126.75l.813 2.293h-30.375s3.188-.48 5-2.293z" transform="matrix(1.03106 -.80216 .80216 1.03106 -114.568 86.307)"/>
        <path fill="#cdde87" d="M153.27 91.514s11.039 13.176 11.24 14.978c.138 1.241-2.629 2.872-2.629 2.872s-.35-1.382-2.12-3.523l-9.39-12.07z"/>
        <path fill="url(#linearGradient1272)" stroke="#000000" stroke-linejoin="round" stroke-miterlimit="10" d="M159.375 129.043s.476 13.149-.25 14.332c-.5.815-2.938.5-2.938.5s.438-1 .375-3.125v-11.707z" transform="matrix(1.03106 -.80216 .80216 1.03106 -114.568 86.307)"/>
        <path fill="#dde9af" d="M171.609 103.97s.16.34 1.03-.337.645-.967.645-.967c.662-1.343-12.36-17.417-12.36-17.417s-.303-.39-1.142.262c-.838.653-.535 1.042-.535 1.042s13.35 16.027 12.362 17.417z"/>
        <path fill="url(#linearGradient1295)" stroke="#000000" stroke-linejoin="round" stroke-miterlimit="10" d="M164.6 145.188s-.063.281.781.281c.844 0 .844-.281.844-.281 1.031-.5.719-16.333.719-16.333s0-.378-.813-.378-.813.378-.813.378.532 15.958-.718 16.333z" transform="matrix(1.03106 -.80216 .80216 1.03106 -114.568 86.307)"/>
        <path fill="#f1f2f2" stroke="#000000" stroke-linejoin="round" stroke-miterlimit="10" d="M163.568 143.375s.156 1.813 1.031 1.813c.875 0 .778-5.375.778-5.375s-.521 3.348-1.06 3.563c-.539.215-.749-.001-.749-.001z" transform="matrix(1.03106 -.80216 .80216 1.03106 -114.568 86.307)"/>
        <path fill="#cdde87" stroke="#000000" stroke-linejoin="round" stroke-miterlimit="10" d="M162.21 145.188s-.063.281.781.281c.844 0 .844-.281.844-.281 1.031-.5.719-16.333.719-16.333s0-.378-.813-.378-.813.378-.813.378.532 15.958-.718 16.333z" transform="matrix(1.03106 -.80216 .80216 1.03106 -114.568 86.307)"/>
        <path fill="url(#linearGradient1318)" stroke="#000000" stroke-linejoin="round" stroke-miterlimit="10" d="M162.21 145.188s-.063.281.781.281c.844 0 .844-.281.844-.281 1.031-.5.719-16.333.719-16.333s0-.378-.813-.378-.813.378-.813.378.532 15.958-.718 16.333z" transform="matrix(1.03106 -.80216 .80216 1.03106 -114.568 86.307)"/>
        <path fill="#dde9af" stroke="#000000" stroke-linejoin="round" stroke-miterlimit="10" d="M161.179 143.375s.156 1.813 1.031 1.813c.875 0 .778-5.375.778-5.375s-.521 3.348-1.06 3.563c-.539.215-.749-.001-.749-.001z" transform="matrix(1.03106 -.80216 .80216 1.03106 -114.568 86.307)"/>
        <path fill="#dde9af" d="M197.692 73.021s.702.902-.137 1.555c-.838.652-1.54-.25-1.54-.25l-7.786-10.009s-.285-.366.553-1.018c.838-.652 1.123-.286 1.123-.286zm-2.879 2.24s.702.902-.136 1.554c-.839.652-1.54-.25-1.54-.25l-7.787-10.008s-.285-.366.553-1.018c.839-.653 1.124-.287 1.124-.287zm-2.878 2.239s.702.902-.136 1.554-1.54-.25-1.54-.25l-7.787-10.008s-.284-.366.554-1.019c.838-.652 1.123-.286 1.123-.286zm-2.878 2.24s.702.902-.137 1.554c-.838.652-1.54-.25-1.54-.25l-7.786-10.009s-.285-.366.553-1.018c.838-.652 1.123-.286 1.123-.286zm-2.88 2.239s.703.902-.135 1.554c-.839.652-1.54-.25-1.54-.25l-7.787-10.008s-.285-.366.553-1.018c.839-.653 1.123-.287 1.123-.287zm-2.877 2.239s.702.902-.136 1.554-1.54-.25-1.54-.25l-7.787-10.008s-.285-.366.554-1.019c.838-.652 1.123-.286 1.123-.286zm-2.878 2.24s.701.902-.137 1.554-1.54-.25-1.54-.25l-7.787-10.009s-.284-.366.554-1.018c.838-.652 1.123-.286 1.123-.286zm-2.88 2.24s.703.901-.136 1.553c-.838.653-1.54-.25-1.54-.25l-7.786-10.008s-.285-.366.553-1.018c.838-.652 1.123-.286 1.123-.286zm-2.877 2.238s.702.902-.136 1.554c-.839.652-1.54-.25-1.54-.25l-7.787-10.008s-.285-.366.553-1.018c.839-.653 1.124-.287 1.124-.287zm-2.879 2.24s.702.902-.136 1.554-1.54-.25-1.54-.25l-7.787-10.009s-.284-.366.554-1.018c.838-.652 1.123-.286 1.123-.286z"/>
        <path fill="url(#linearGradient1386)" stroke="#000000" stroke-linejoin="round" stroke-miterlimit="10" stroke-width=".383" d="M194.906 138.75s0 .875-.813.875-.813-.875-.813-.875v-9.707s0-.355.813-.355.813.355.813.355zm-2.792 0s0 .875-.813.875-.813-.875-.813-.875v-9.707s0-.355.813-.355.813.355.813.355zm-2.791 0s0 .875-.813.875-.813-.875-.813-.875v-9.707s0-.355.813-.355.813.355.813.355zm-2.792 0s0 .875-.813.875-.813-.875-.813-.875v-9.707s0-.355.813-.355.813.355.813.355zm-2.792 0s0 .875-.813.875-.813-.875-.813-.875v-9.707s0-.355.813-.355.813.355.813.355zm-2.791 0s0 .875-.813.875-.813-.875-.813-.875v-9.707s0-.355.813-.355.813.355.813.355zm-2.792 0s0 .875-.813.875-.813-.875-.813-.875v-9.707s0-.355.813-.355.813.355.813.355zm-2.792 0s0 .875-.813.875-.813-.875-.813-.875v-9.707s0-.355.813-.355.813.355.813.355zm-2.791 0s0 .875-.813.875-.813-.875-.813-.875v-9.707s0-.355.813-.355.813.355.813.355zm-2.792 0s0 .875-.813.875-.813-.875-.813-.875v-9.707s0-.355.813-.355.813.355.813.355z" transform="matrix(1.03106 -.80216 .80216 1.03106 -114.568 86.307)"/>
        <path fill="none" stroke="#000000" stroke-miterlimit="10" d="M159.523 135.938h74.165" transform="matrix(1.03106 -.80216 .80216 1.03106 -114.568 86.307)"/>
        <path fill="#cdde87" d="M229.17 29.911l3.802-2.958s-.172.445 1.006 1.959c1.177 1.513 1.651 1.456 1.651 1.456l-3.803 2.958s.233-.367-1.097-2.076c-1.329-1.708-1.56-1.339-1.56-1.339z"/>
        <path fill="url(#linearGradient1418)" stroke="#000000" stroke-linejoin="round" stroke-miterlimit="10" d="M234.188 127.5h3.688s-.313.188-.313 1.656.313 1.656.313 1.656h-3.688s.313-.113.313-1.77-.313-1.542-.313-1.542z" transform="matrix(1.03106 -.80216 .80216 1.03106 -114.568 86.307)"/>
    </g>
    <g stroke-width=".765" transform="matrix(1.03106 -.80216 .80216 1.03106 -114.568 86.307)">
        <path fill="#ffe680" d="M90.969 119.828S96.25 118 99 118h56.188s.25.531.25 4.219-.25 4.344-.25 4.344h1.375v14.188l-5.625.029c-.906-.029-.75-.904-.75-.904v-1.75H91.173z"/>
        <path fill="url(#linearGradient1441)" stroke="#000000" stroke-linejoin="round" stroke-miterlimit="10" d="M90.969 119.828S96.25 118 99 118h56.188s.25.531.25 4.219-.25 4.344-.25 4.344h1.375v14.188l-5.625.029c-.906-.029-.75-.904-.75-.904v-1.75H91.173z"/>
        <path fill="#fea" d="M156.563 129.043v11.707l-5.625.029c-.906-.029-.75-.904-.75-.904v-1.75h-2.603s-.105-1.875-1.209-1.875h-41.164c-3.681 0-3.337-1-3.337-1V133s-.044-.999 3.337-.999h40.957c1.519-.001 1.292-1.417 1.292-1.417v-1.541z"/>
        <path fill="url(#linearGradient1464)" stroke="#000000" stroke-linejoin="round" stroke-miterlimit="10" stroke-width=".383" d="M156.563 129.043v11.707l-5.625.029c-.906-.029-.75-.904-.75-.904v-1.75h-2.603s-.105-1.875-1.209-1.875h-41.164c-3.681 0-3.337-1-3.337-1V133s-.044-.999 3.337-.999h40.957c1.519-.001 1.292-1.417 1.292-1.417v-1.541z"/>
        <path fill="#f95" stroke="#000000" stroke-linejoin="round" stroke-miterlimit="10" stroke-width=".383" d="M126.917 119.498c-2.208-.042-2.333 2.25-2.333 2.25v5.667s-.167 1.25 1.542 1.25h21.542s2.042-.208 2.042-1.5v-5s.293-2.667-2.5-2.667z"/>
        <path fill="#f95" stroke="#000000" stroke-linejoin="round" stroke-miterlimit="10" stroke-width=".383" d="M129.438 122.531h20.187v5.063h-20.187z"/>
        <path fill="#ffb380" stroke="#000000" stroke-linejoin="round" stroke-miterlimit="10" stroke-width=".383" d="M134.656 121.906v-1.625l-.812-.783h-4.406v3.033h4.25zM149.649 127.462h-19.92v1.203h17.938s1.69-.185 1.982-1.203z"/>
        <path fill="#fca" stroke="#000000" stroke-linejoin="round" stroke-miterlimit="10" stroke-width=".383" d="M149.173 120.281h-14.517v1.625h15.061c-.005-.372-.087-1.073-.544-1.625z"/>
        <path fill="#ffb380" stroke="#000000" stroke-linejoin="round" stroke-miterlimit="10" stroke-width=".383" d="M134.656 120.281h14.517c-.363-.439-.964-.783-1.964-.783h-13.365zM133.688 122.531h16.021v-.366s.011-.1.008-.259h-15.061z"/>
        <path fill="#f95" d="M124.583 123.294h2.521v1.769h-2.521z"/>
        <path fill="url(#linearGradient1495)" stroke="#000000" stroke-linejoin="round" stroke-miterlimit="10" stroke-width=".383" d="M124.583 123.294h2.521v1.769h-2.521z"/>
        <path fill="none" stroke="#000000" stroke-linejoin="round" stroke-miterlimit="10" stroke-width=".383" d="M125.313 123.294v1.769"/>
        <path fill="#f95" stroke="#000000" stroke-linejoin="round" stroke-miterlimit="10" stroke-width=".383" d="M126.625 125.254c0-3.313.729-3.348.729-3.348h2.083v3.348z"/>
        <path fill="url(#linearGradient1518)" stroke="#000000" stroke-linejoin="round" stroke-miterlimit="10" stroke-width=".383" d="M126.625 125.254c0-3.313.729-3.348.729-3.348h2.083v3.348z"/>
        <circle cx="99.502" cy="135.17" r=".917" fill="#fff6d5" stroke="#000000" stroke-linejoin="round" stroke-miterlimit="10" stroke-width=".383"/>
    </g>
    <g stroke-width=".765">
        <path fill="#ffe680" stroke="#000000" stroke-linejoin="round" stroke-miterlimit="10" d="M14.146 136.395l-1.833.353.936 30.815 2.438-.875c1.688-2.625-.082-29.961-1.541-30.293z" transform="matrix(1.03106 -.80216 .80216 1.03106 -114.568 86.307)"/>
        <path fill="#ffe680" d="M24.01 231.407l51.798-47.168-3.875-4.256-51.8 47.168s-.707.717 1.157 2.764c1.864 2.048 2.72 1.492 2.72 1.492z"/>
        <path fill="url(#linearGradient1549)" stroke="#000000" stroke-linejoin="round" stroke-miterlimit="10" d="M15.522 152.804l53.467-4.15-.341-4.393-53.467 4.15s-.765.101-.601 2.214c.164 2.113.942 2.179.942 2.179z" transform="matrix(1.03106 -.80216 .80216 1.03106 -114.568 86.307)"/>
        <path fill="#ffe680" stroke="#000000" stroke-linejoin="round" stroke-miterlimit="10" d="M12.314 136.747c1.374.503 2.811 29.128.936 30.815h-1.938c1.938-4.625.513-29.438-.9-30.563z" transform="matrix(1.03106 -.80216 .80216 1.03106 -114.568 86.307)"/>
    </g>
    <g stroke-width=".765" transform="matrix(1.03106 -.80216 .80216 1.03106 -114.568 86.307)">
        <path fill="#bcd35f" stroke="#000000" stroke-linejoin="round" stroke-miterlimit="10" d="M73.813 154.125s4.148 0 4.773-1.038c1.04-1.727-.251-1.875-.251-1.875s2.705-13.674 10.353-13.524l-.644-3.851-8.292 1.166-9.02 19.122zM91.891 119.531s-.266-1.063-1.307-.867c-2.347.441 1.667 17.585 1.667 17.585h.25s-3.142-14.791-1.531-16.422c.298-.302.625-.234.625-.234z"/>
        <path fill="#cdde87" stroke="#000000" stroke-linejoin="round" stroke-miterlimit="10" d="M90.583 118.665c-1.875 1.333 1.667 17.585 1.667 17.585l-1.563 1.438-2.687-.75C80.688 133.563 75.813 152 75.813 152c2.688 0 1.813 2.125 0 2.125h-6.917c-.664 0-1.229 0-1.962-.355l-1.872-1.229c-.437-.446-.726-1.13-.521-1.455.393-.624 2.747-7.823 6.292-13.253 3.212-4.919 7.667-8.145 7.667-8.145 4.313-2.858 1.375-4 2.625-5.5s9.458-5.523 9.458-5.523z"/>
        <path fill="url(#linearGradient1580)" stroke="#000000" stroke-linejoin="round" stroke-miterlimit="10" d="M90.583 118.665c-1.875 1.333 1.667 17.585 1.667 17.585l-1.563 1.438-2.687-.75C80.688 133.563 75.813 152 75.813 152c2.688 0 1.813 2.125 0 2.125h-6.917c-.664 0-1.229 0-1.962-.355l-1.872-1.229c-.437-.446-.726-1.13-.521-1.455.393-.624 2.747-7.823 6.292-13.253 3.212-4.919 7.667-8.145 7.667-8.145 4.313-2.858 1.375-4 2.625-5.5s9.458-5.523 9.458-5.523z"/>
        <path fill="#dde9af" d="M67.457 153.975c.5.15.942.15 1.439.15h6.917c1.813 0 2.688-2.125 0-2.125 0 0 4.307-16.285 10.894-15.443l-4.915-8.349s.188 1.48-2.078 3.045c-7.963 5.497-13.13 17.454-13.505 19.788-.375 2.334 1.248 2.934 1.248 2.934z"/>
        <path fill="url(#linearGradient1603)" stroke="#000000" stroke-linejoin="round" stroke-miterlimit="10" stroke-width=".383" d="M67.457 153.975c.5.15.942.15 1.439.15h6.917c1.813 0 2.688-2.125 0-2.125 0 0 4.307-16.285 10.894-15.443l-4.915-8.349s.188 1.48-2.078 3.045c-7.963 5.497-13.13 17.454-13.505 19.788-.375 2.334 1.248 2.934 1.248 2.934z"/>
        <path fill="none" stroke="#000000" stroke-linejoin="round" stroke-miterlimit="10" d="M90.583 118.665c-1.875 1.333 1.667 17.585 1.667 17.585l-1.563 1.438-2.687-.75C80.688 133.563 75.813 152 75.813 152c2.688 0 1.813 2.125 0 2.125h-6.917c-.664 0-1.229 0-1.962-.355l-1.872-1.229c-.437-.446-.726-1.13-.521-1.455.393-.624 2.747-7.823 6.292-13.253 3.212-4.919 7.667-8.145 7.667-8.145 4.313-2.858 1.375-4 2.625-5.5s9.458-5.523 9.458-5.523z"/>
        <path fill="#cdde87" stroke="#000000" stroke-miterlimit="10" stroke-width=".383" d="M88 136.938l2.688.75 1.563-1.438s-3.542-16.252-1.667-17.585c0 0-8.208 4.023-9.458 5.523a1.374 1.374 0 0 0-.317.646s2.196 2.845 4.318 6.415c2.122 3.57 2.873 5.689 2.873 5.689z"/>
        <path fill="url(#linearGradient1626)" stroke="#000000" stroke-miterlimit="10" stroke-width=".383" d="M88 136.938l2.688.75 1.563-1.438s-3.542-16.252-1.667-17.585c0 0-8.208 4.023-9.458 5.523a1.374 1.374 0 0 0-.317.646s2.196 2.845 4.318 6.415c2.122 3.57 2.873 5.689 2.873 5.689z"/>
        <path fill="#f1f2f2" stroke="#000000" stroke-linecap="round" stroke-miterlimit="10" stroke-width=".383" d="M80.334 136.747l-5.583 15.027M78.316 136.747l-5.584 15.027M76.297 136.747l-5.583 15.027M73.984 138.33l-4.995 13.444"/>
        <path fill="none" stroke="#000000" stroke-linecap="round" stroke-miterlimit="10" stroke-width=".383" d="M71.542 141.375l-4.147 10.399"/>
        <circle cx="75.406" cy="140.75" r="1.094" fill="#eef4d7" stroke="#000000" stroke-miterlimit="10" stroke-width=".383"/>
        <path fill="none" stroke="#000000" stroke-miterlimit="10" stroke-width=".383" d="M74.476 140.179l1.821 1.202"/>
        <path fill="#eef4d7" stroke="#000000" stroke-miterlimit="10" stroke-width=".383" d="M84.557 130.312s1.39-1.05 2.167.46c.777 1.51-.651 2.133-.651 2.133s-.55.377-1.233-.717c-.683-1.094-.283-1.876-.283-1.876z"/>
        <circle cx="85.781" cy="131.714" r=".942" fill="#dde9af" stroke="#000000" stroke-miterlimit="10" stroke-width=".383"/>
        <path fill="none" stroke="#000000" stroke-miterlimit="10" stroke-width=".383" d="M86.434 131.036l-1.237 1.411"/>
    </g>
    <g stroke-width=".765">
        <g fill="#fff6d5">
            <path d="M87.6 137.992l.283.037-.013-2.638 1.203.65-1.119-4.07-2.08 3.67 1.326-.332-.666 2.552.29.036-.322 2.57c.128.023.255.044.385.062.131.014.26.024.391.033z"/>
            <path d="M86.034 140.095l.22-1.755-.362-.046.599-2.28-1.654.413 2.057-3.622-.95.316.342-1.244-2.945-.607 2.537-.558-1.076-1.246a5.795 5.795 0 0 0-2.918 4.335 5.783 5.783 0 0 0 4.15 6.294z"/>
            <path d="M86.685 132.334l.585-.194.85-1.496.457 1.658.523.333-.018-.881 1.143.052-.944-.47.793-.553-1.314.043-.546-.934-.756.77-1.263-.365.63.732-1.027.224 1.121.232z"/>
            <path d="M90.28 131.262l2.326 1.167-3.002-.14.025 1.29-.852-.54 1.105 4.02-1.497-.806.012 2.354-.354-.042-.22 1.754a5.787 5.787 0 0 0 5.568-5.079 5.795 5.795 0 0 0-1.756-4.917zM87.305 130.087l1.013-1.028.729 1.246 2.48-.08a5.774 5.774 0 0 0-6.603-.825z"/>
        </g>
        <g fill="#fff6d5">
            <path d="M105.705 122l1.205-4.71-3.864 2.95zM104.852 125.076l4.849-.31-3.996-2.766zM101.664 125.214l3.188-.138-1.396 4.656z"/>
            <path d="M98.941 117.638l4.105 2.602-2.498 1.982z"/>
            <path d="M100.548 122.222l1.116 2.992-4.859.109z"/>
        </g>
        <path fill="none" stroke="#fff6d5" stroke-linecap="round" stroke-linejoin="round" stroke-miterlimit="10" stroke-width=".383" d="M116.907 121.5l-4.971-.485 8.065 4.9-9.291-4.009 7.982 6.094-8.942-3.661 5.126 4.137-4.166-1.031" transform="matrix(1.03106 -.80216 .80216 1.03106 -114.568 86.307)"/>
    </g>
</svg>
