<svg xmlns="http://www.w3.org/2000/svg" viewBox="0 0 256 256">
    <path fill="#ffb380" d="M95.662 120.802H30.299v34.738h195.406v-34.738h-64.907v.342c0 17.958-14.61 32.569-32.568 32.569-17.957 0-32.567-14.611-32.567-32.569v-.342zM30.299 163.539h195.406v34.738H30.299zM27.886 61.217c6.64-17.007 17.93-25.477 26.752-29.663H42.982c-21.94 0-37.482 17.24-37.482 37.481v25.597h16.798c0-13.184 2.014-23.765 5.174-32.293.08-.402.227-.773.414-1.122z"/>
    <path fill="#ffb380" d="M68.139 35.537c-1.095.107-19.974 2.297-30.643 23.557h181.01c-10.67-21.26-29.554-23.448-30.659-23.557-2.064-.203-3.595-1.948-3.595-3.982H71.762c-.002 2.046-1.545 3.795-3.623 3.982zM34.239 67.093c-2.414 7.353-3.939 16.38-3.939 27.54h195.405c0-11.16-1.525-20.189-3.94-27.54z"/>
    <path fill="#ffb380" d="M213.018 31.555h-11.653c8.823 4.187 20.113 12.658 26.754 29.667.185.347.333.717.41 1.115 3.16 8.528 5.175 19.111 5.175 32.297H250.5V69.037c0-20.24-15.542-37.482-37.482-37.482zM160.796 112.803h68.907c2.209 0 4 1.79 4 4v85.473c0 2.21-1.791 4-4 4H26.299c-2.21 0-4-1.79-4-4v-85.474c0-2.21 1.79-4 4-4h69.363V98.634H5.502v125.813H250.5V98.633h-89.702v14.17z"/>
    <path fill="#ffb380" d="M103.66 98.632v22.51c0 13.548 11.022 24.57 24.569 24.57 13.547 0 24.568-11.022 24.568-24.57v-22.51zm24.569 32.453c-5.633 0-10.199-4.566-10.199-10.199 0-5.632 4.566-10.198 10.199-10.198s10.199 4.566 10.199 10.198c0 5.633-4.566 10.2-10.2 10.2z"/>
</svg>
