<svg xmlns="http://www.w3.org/2000/svg" viewBox="0 0 256 256">
    <g fill="#ffb380" stroke-width=".923">
        <g>
            <path d="M226.577 189.746H29.423a5.416 5.416 0 1 1 0-10.833h197.154a5.416 5.416 0 0 1 5.416 5.417 5.416 5.416 0 0 1-5.416 5.416z"/>
        </g>
        <path d="M248.153 86.024c-9.208 0-34.17 41.096-56.919 36.222-22.748-4.875-49.152-55.992-63.234-55.992s-40.486 51.117-63.234 55.992c-22.749 4.874-47.711-36.222-56.92-36.222-9.207 0 11.65 71.404 11.65 71.404s4.24 13.276 15.073 13.276H221.43c10.833 0 15.073-13.276 15.073-13.276s20.857-71.404 11.65-71.404zm-152.65 69.728a7.847 7.847 0 0 1-7.848-7.847 7.847 7.847 0 1 1 15.694 0 7.847 7.847 0 0 1-7.847 7.847zM128 147.905c-9.947 0-18.01-8.063-18.01-18.01 0-9.946 8.063-18.009 18.01-18.009 9.946 0 18.01 8.063 18.01 18.01 0 9.946-8.064 18.009-18.01 18.009zm32.498 7.847a7.847 7.847 0 0 1-7.847-7.847 7.847 7.847 0 1 1 15.694 0 7.847 7.847 0 0 1-7.847 7.847z"/>
    </g>
</svg>
