<svg xmlns="http://www.w3.org/2000/svg" xmlns:xlink="http://www.w3.org/1999/xlink" viewBox="0 0 64 64">
    <defs>
        <linearGradient id="gamblingDenGradient">
            <stop offset="0" stop-color="#f55"/>
            <stop offset="1" stop-color="#ff8080"/>
        </linearGradient>
        <linearGradient id="linearGradient15" x1="29.5" x2="44.125" y1="1025.487" y2="1003.362" gradientTransform="matrix(1.28844 0 0 1.29051 -9.225 -296.313)" gradientUnits="userSpaceOnUse" xlink:href="#gamblingDenGradient"/>
    </defs>
    <g fill-rule="evenodd" transform="translate(0 -988.362)">
        <ellipse cx="32" cy="1020.368" fill="url(#linearGradient15)" rx="30.383" ry="30.381"/>
        <path fill="#fff" stroke="#fff" stroke-linejoin="round" d="M30.932 1017.175l-12.813 6.78 5.055 13.581 13.076-7.813zm-1.322 1.816c1.154 0 2.089.923 2.088 2.06 0 1.137-.935 2.059-2.088 2.06-1.153-.001-2.088-.923-2.088-2.06-.001-1.137.934-2.06 2.088-2.06zm1.812 4.111c1.153 0 2.088.922 2.088 2.059s-.935 2.058-2.088 2.058-2.088-.921-2.088-2.058c0-1.137.935-2.058 2.088-2.059zm-9.236.11c1.153 0 2.088.922 2.088 2.058 0 1.138-.934 2.06-2.088 2.06s-2.09-.922-2.088-2.06c0-1.136.935-2.058 2.088-2.058zm11.049 3.779c1.153 0 2.087.922 2.088 2.059 0 1.137-.935 2.058-2.088 2.058s-2.088-.921-2.088-2.058c0-1.137.935-2.059 2.088-2.059zm-9.237.332c1.153 0 2.088.922 2.088 2.059s-.935 2.058-2.088 2.058c-1.154.001-2.09-.92-2.09-2.058s.936-2.06 2.09-2.059zm1.81 3.889c1.154 0 2.089.922 2.089 2.058 0 1.137-.935 2.059-2.088 2.059s-2.088-.922-2.088-2.059c0-1.136.935-2.058 2.088-2.058zM10.494 1021.33l4.438 12.188 6.581 4.479-5.081-13.791zm2.204 2.06c.467.042 1.053.708 1.445 1.644.493 1.179.516 2.384.05 2.69-.463.305-1.238-.4-1.73-1.575-.493-1.177-.517-2.382-.053-2.69a.42.42 0 0 1 .184-.067h.104zm2.341.917h.002c.468.044 1.053.71 1.444 1.645.492 1.176.516 2.38.052 2.688-.463.308-1.24-.397-1.732-1.575-.492-1.176-.516-2.379-.053-2.687a.432.432 0 0 1 .287-.07zm-.213 5.36c.476-.058 1.123.629 1.547 1.642.493 1.178.517 2.382.053 2.69-.464.308-1.24-.397-1.732-1.574-.494-1.18-.516-2.384-.051-2.69a.42.42 0 0 1 .183-.068zm2.602 1.29c.467.045 1.052.711 1.443 1.645.493 1.178.517 2.382.053 2.69-.464.308-1.24-.397-1.732-1.574-.493-1.178-.517-2.382-.053-2.69a.426.426 0 0 1 .185-.068c.034 0 .068-.01.104 0zM23.057 1012.956l-12.25 6.5 6.187 3.187 12.5-6.875-6.437-2.812zm.51.414a1.03 2.424 66.298 0 1 .863.293 1.03 2.424 66.298 0 1-1.533 1.904 1.03 2.424 66.298 0 1-2.801.223 1.03 2.424 66.298 0 1 1.533-1.904 1.03 2.424 66.298 0 1 1.938-.516zm3.027 1.635a1.03 2.424 66.298 0 1 .863.293 1.03 2.424 66.298 0 1-1.533 1.904 1.03 2.424 66.298 0 1-2.8.223 1.03 2.424 66.298 0 1 1.533-1.905 1.03 2.424 66.298 0 1 1.937-.515zm-5.148 1.216a1.03 2.424 66.298 0 1 .863.291 1.03 2.424 66.298 0 1-1.533 1.907 1.03 2.424 66.298 0 1-2.801.222 1.03 2.424 66.298 0 1 1.533-1.906 1.03 2.424 66.298 0 1 1.938-.513zm-4.707 1.104a1.03 2.424 66.298 0 1 .863.293 1.03 2.424 66.298 0 1-1.533 1.904 1.03 2.424 66.298 0 1-2.801.223 1.03 2.424 66.298 0 1 1.533-1.904 1.03 2.424 66.298 0 1 1.938-.516zm2.873 1.658a1.03 2.424 66.298 0 1 .863.291 1.03 2.424 66.298 0 1-1.533 1.906 1.03 2.424 66.298 0 1-2.801.223 1.03 2.424 66.298 0 1 1.533-1.906 1.03 2.424 66.298 0 1 1.938-.514zM34.515 1003.44l-4.046 10.037 2.09 1.153 2.486 5.957s5.083 2.828 5.26 2.916l4.553-14.627zm1.37 1.932c1.269 0 2.298 1.015 2.297 2.266 0 1.25-1.029 2.263-2.297 2.263-1.268 0-2.296-1.013-2.297-2.263 0-1.251 1.028-2.266 2.297-2.266zm1.46 5.968c1.267 0 2.296 1.013 2.296 2.264 0 1.25-1.028 2.265-2.297 2.265-1.269 0-2.297-1.014-2.297-2.265.001-1.25 1.03-2.264 2.297-2.264zm1.59 5.7c1.27 0 2.298 1.014 2.298 2.266 0 1.25-1.029 2.263-2.297 2.263-1.268 0-2.297-1.013-2.297-2.263 0-1.252 1.028-2.266 2.297-2.266zM46.58 1009.493l-4.285 14.1 7.358-1.216 4.308-12.905zm2.416 4.117c.754.052 1.117 1.14.838 2.52-.299 1.483-1.227 2.761-2.072 2.855-.844.093-1.287-1.032-.988-2.513.298-1.484 1.226-2.763 2.072-2.858a.38.38 0 0 1 .15 0zM35.752 1002.157l10.365 5.546 7.977.112-10.52-5.26zm6.942.682c.422-.01.988.12 1.548.36 1.05.445 1.78 1.132 1.631 1.534-.149.402-1.12.366-2.17-.08-1.049-.446-1.78-1.133-1.63-1.535.063-.172.283-.27.62-.28zm1.765 2.254h.002c.422-.01.99.12 1.55.359 1.048.446 1.779 1.133 1.63 1.535-.15.402-1.12.366-2.17-.08-1.05-.446-1.78-1.133-1.63-1.535.062-.171.282-.27.618-.28z"/>
    </g>
</svg>
