<svg xmlns="http://www.w3.org/2000/svg" cursor="default" viewBox="0 0 256 256">
    <path fill="#ffe680" stroke="#000" stroke-width="1.142" d="M83.9 44.947l-61.549 99.437c3.414 3.723 81.528 58.157 118.805 84.68l1.314-3.149-117.157-81.694c.089-.285 42.837-67.735 61.295-98.084z"/>
    <path fill="#784421" stroke="#000" stroke-width="1.713" d="M74.656 22.313c3.125 9.136 6.61 21.193 8.747 22.284 1.642 6.619 6.995 13.815 38.965 25.16 28.493 10.349 45.318 22.362 53.677 35.584 5.077 16.635 7.575 34.436-10.338 61.463-29.924 44.885-26.687 56.891-24.651 70.09 5.984 11.108 15.719 6.631 12.325-.36-3.625-26.278 13.173-48.159 31.411-69.73 15.66-25.095 30.861-50.977-8.747-90.577-12.906-12.903-42.827-19.409-69.183-29.114C84.69 33.898 91.775 28.03 86.584 19.078c-3.703-2.624-7.213-7.872-11.928 3.235z"/>
    <g stroke="#000" stroke-width="2">
        <path fill="#ffe680" d="M455.854 179.055c-8.675.834-16.794 2.967-22.842 9.932-2.11 6.192-.172 8.337 2.98 9.27-1.57 4.427-2.22 8.33 2.317 9.268-2.042 10.011 4.326 8.008 7.945 9.932l-.331-6.29c4.744-7.064 11.85-8.619 19.2-9.6l3.642 3.972c2.25-8.504-.862-10.975-5.628-11.587 5.152-3.501.667-4.375-3.641-5.296 3.66-7.378-1.755-6.978-3.642-9.6z" transform="matrix(.49923 -.01732 .01518 .46572 -141.659 -47.514)"/>
        <path fill="none" stroke-linecap="round" d="M435.66 197.925c7.945-8.217 15.89-9.188 23.836-9.6M464.462 193.621c-9.838 1.832-19.265 4.759-26.484 13.573" transform="matrix(.49923 -.01732 .01518 .46572 -141.659 -47.514)"/>
    </g>
    <g stroke="#000" stroke-width="2">
        <path fill="#ffe680" d="M455.854 179.055c-8.675.834-16.794 2.967-22.842 9.932-2.11 6.192-.172 8.337 2.98 9.27-1.57 4.427-2.22 8.33 2.317 9.268-2.042 10.011 4.326 8.008 7.945 9.932l-.331-6.29c4.744-7.064 11.85-8.619 19.2-9.6l3.642 3.972c2.25-8.504-.862-10.975-5.628-11.587 5.152-3.501.667-4.375-3.641-5.296 9.65-6.875-.542-11.16-3.642-9.6z" transform="matrix(.54603 -.11517 -.07705 -.5717 -84.247 385.806)"/>
        <path fill="none" stroke-linecap="round" d="M435.66 197.925c5.507-4.615 10.604-9.469 23.836-9.6M464.462 193.621c-10.603.774-19.486 5.183-26.484 13.573" transform="matrix(.54603 -.11517 -.07705 -.5717 -84.247 385.806)"/>
    </g>
    <path fill="#ffe680" stroke="#000" stroke-width=".5" d="M172.163 99.9c3.322 4.837 4.127 7.967 5.746 11.649l1.393 12.12c7.314-2.51 14.627-3.305 21.94-3.305-1.9-9.743-4.81-19.212-11.318-27.705-6.878 1.333-12.74 3.81-17.761 7.241z"/>
    <g fill="none" stroke="#000">
        <path d="M534.975 350.539c10.828-24.77 26.956-42.783 44.353-59.179" transform="matrix(.2308 .11398 -.12608 .20864 92.907 -34.088)"/>
        <path stroke-width="2" d="M559.176 366.646c9.645-26.57 30.22-44.774 48.63-62.454M577.35 386.292c12.603-25.734 28.916-46.504 48.994-62.237M592.983 406.418c14.879-25.254 37.823-45.19 60.15-60.48" transform="matrix(.2308 .11398 -.12608 .20864 92.907 -34.088)"/>
        <path d="M606.482 424.694c18.873-22.175 40.186-39.882 64.98-51.218" transform="matrix(.2308 .11398 -.12608 .20864 92.907 -34.088)"/>
    </g>
    <path fill="#faa" stroke="#000" stroke-opacity=".985" stroke-width="1.219" d="M94.35 43.288c23.646 13.341 51.277 18.613 71.945 31.458 9.498 7.145 14.93 13.883 17.615 15.906l-7.778 4.503c-6.999-5.068-10.747-8.124-15.445-10.975-21.075-17.092-53.755-21.53-72.015-38.514l5.678-2.378z"/>
    <path fill="#faa" stroke="#000" stroke-width="1.219" d="M183.375 125.425l13.812-.136c1.75 9.789-4.136 18.198-10.134 30.874-11.723 17.347-28.098 35.729-33.252 51.23-5.554-3.936-6.004-3.2-5.554-3.936 7.1-11.628 14.111-25.604 22.068-37.93 7.828-12.128 13.203-29.63 13.06-40.102z"/>
    <g fill-rule="evenodd">
        <path fill="#ff2a2a" stroke="#000" stroke-width=".898" d="M107.486 124.75l-24.331 2.958 49.792-9.897-18.188-.015 49.98-9.226-13.807-1.276 83.142-10.884-76.093 25.389 10.52-7.274-50.486 14.924 15.897-8.183-47.273 12.672 21.485-7.797L4.988 148.378z"/>
        <path fill="#ff8080" d="M115.457 123.33l-12.531 1.18 36.857-7.649-16.287-.056 50.134-8.983-12.079-1.254 64.334-8.422-58.88 19.645 8.423-6.196-49.115 14.664 14.93-7.64-39.522 10.622 13.957-5.18-67.72 14.756z"/>
    </g>
</svg>
