<svg xmlns="http://www.w3.org/2000/svg" viewBox="0 0 256 256">
    <g fill-rule="evenodd">
        <path fill="#faa" stroke="#000" d="M94.772 129.395l-.016 22.639 2.17-25.953c10.255-19.345 52.452-49.057 65.185-58.07L156.5 87.087l9.407-20.625c10.807-7.088 42.974-16.468 63.965-44.263 1.6 31.919-36.069 74.669-42.784 91.348l-24.868 6.911 24.233-3.95c-6.947 22.341-19.679 40.106-37.923 56.337l-27.1 8.37 24.63-5.336c-20.18 17.185-39.006 28.185-62.27 26.652 0 0-.853-.873-1.63-1.463-5.154-35.127 3.022-60.306 12.613-71.673z"/>
        <path fill-opacity=".178" d="M84.107 202.25l50-77.143c32.098-33.85 81.345-66.446 95.536-101.607.923 33.465-28.159 59.656-42.322 89.464l-24.821 7.5 23.75-3.75c-5.805 20.49-17.529 37.539-37.5 55.893L122.232 181l23.304-4.643c-20.851 17.558-39.703 26.816-61.429 25.893z"/>
        <path fill="#4d4d4d" stroke="#000" d="M203.854 60.562c-20.827 19.669-49.17 39.442-69.616 62.592-29.034 32.874-35.96 65.704-84.864 119.27 49.648-50.326 59.704-84.809 87.31-118.112 19.098-23.04 50.07-44.286 67.17-63.75z"/>
        <path fill="#ff8080" d="M233.297 50.95c-2.25 46.403-13.742 91.44-36.363 128.348-16.757 30.965-41.377 57.424-75.529 75.266 35.101-15.984 61.789-41.18 80.95-72.12 21.4-38.964 30.782-85.195 30.942-131.494z"/>
        <path fill="#ff8080" d="M240.498 105.45c-4.1 31.91-13.185 62.584-27.924 87.189-10.955 20.573-25.906 37.61-45.536 48.273 20.28-9.542 36.501-25.834 48.919-46.358 13.907-25.764 21.738-57.143 24.541-89.104zM29.418 219.936c1.82-46.422 12.894-91.565 35.172-128.68 16.47-31.12 40.844-57.805 74.828-75.963-34.951 16.309-61.404 41.75-80.277 72.868-21.039 39.16-29.992 85.476-29.723 131.775z"/>
        <path fill="#ff8080" d="M21.712 165.505c3.804-31.948 12.605-62.704 27.115-87.445 10.764-20.673 25.556-37.848 45.087-48.693-20.191 9.73-36.26 26.171-48.487 46.81-13.668 25.892-21.208 57.341-23.715 89.328z"/>
    </g>
</svg>
