<?xml version="1.0" encoding="UTF-8" standalone="no"?>
<!-- Created with Inkscape (http://www.inkscape.org/) -->

<svg
   xmlns:dc="http://purl.org/dc/elements/1.1/"
   xmlns:cc="http://creativecommons.org/ns#"
   xmlns:rdf="http://www.w3.org/1999/02/22-rdf-syntax-ns#"
   xmlns:svg="http://www.w3.org/2000/svg"
   xmlns="http://www.w3.org/2000/svg"
   xmlns:sodipodi="http://sodipodi.sourceforge.net/DTD/sodipodi-0.dtd"
   xmlns:inkscape="http://www.inkscape.org/namespaces/inkscape"
   viewBox="0 0 256 256"
   id="svg2"
   version="1.1"
   inkscape:version="0.91 r13725"
   sodipodi:docname="rangedLevelOneIcon.svg">
  <defs
     id="defs4">
    <inkscape:path-effect
       cusp_linecap_type="round"
       end_linecap_type="zerowidth"
       miter_limit="4"
       linejoin_type="round"
       start_linecap_type="zerowidth"
       interpolator_beta="0.2"
       interpolator_type="Linear"
       sort_points="true"
       offset_points="0.55068825,3.1286392"
       is_visible="true"
       id="path-effect4231"
       effect="powerstroke" />
    <inkscape:path-effect
       cusp_linecap_type="round"
       end_linecap_type="zerowidth"
       miter_limit="4"
       linejoin_type="round"
       start_linecap_type="zerowidth"
       interpolator_beta="0.2"
       interpolator_type="Linear"
       sort_points="true"
       offset_points="0.55068825,3.1286392"
       is_visible="true"
       id="path-effect4227"
       effect="powerstroke" />
    <inkscape:path-effect
       cusp_linecap_type="round"
       end_linecap_type="zerowidth"
       miter_limit="4"
       linejoin_type="round"
       start_linecap_type="zerowidth"
       interpolator_beta="0.2"
       interpolator_type="Linear"
       sort_points="true"
       offset_points="0.55068825,1.9422124"
       is_visible="true"
       id="path-effect4219"
       effect="powerstroke" />
    <inkscape:path-effect
       cusp_linecap_type="round"
       end_linecap_type="zerowidth"
       miter_limit="4"
       linejoin_type="round"
       start_linecap_type="zerowidth"
       interpolator_beta="0.2"
       interpolator_type="Linear"
       sort_points="true"
       offset_points="0.55068825,3.1286392"
       is_visible="true"
       id="path-effect4215"
       effect="powerstroke" />
    <inkscape:path-effect
       cusp_linecap_type="round"
       end_linecap_type="zerowidth"
       miter_limit="4"
       linejoin_type="round"
       start_linecap_type="zerowidth"
       interpolator_beta="0.2"
       interpolator_type="Linear"
       sort_points="true"
       offset_points="0.55068825,1.9422124"
       is_visible="true"
       id="path-effect4211"
       effect="powerstroke" />
    <inkscape:path-effect
       cusp_linecap_type="round"
       end_linecap_type="zerowidth"
       miter_limit="4"
       linejoin_type="round"
       start_linecap_type="zerowidth"
       interpolator_beta="0.2"
       interpolator_type="Linear"
       sort_points="true"
       offset_points="0.55068825,3.1286392"
       is_visible="true"
       id="path-effect4207"
       effect="powerstroke" />
    <inkscape:path-effect
       cusp_linecap_type="round"
       end_linecap_type="zerowidth"
       miter_limit="4"
       linejoin_type="round"
       start_linecap_type="zerowidth"
       interpolator_beta="0.2"
       interpolator_type="Linear"
       sort_points="true"
       offset_points="0.55068825,1.338671"
       is_visible="true"
       id="path-effect4200-5-4"
       effect="powerstroke" />
    <inkscape:path-effect
       effect="powerstroke"
       id="path-effect4687"
       is_visible="true"
       offset_points="0.55068825,1.9422124"
       sort_points="true"
       interpolator_type="Linear"
       interpolator_beta="0.2"
       start_linecap_type="zerowidth"
       linejoin_type="round"
       miter_limit="4"
       end_linecap_type="zerowidth"
       cusp_linecap_type="round" />
    <inkscape:path-effect
       effect="powerstroke"
       id="path-effect4683"
       is_visible="true"
       offset_points="0.55068825,3.1286392"
       sort_points="true"
       interpolator_type="Linear"
       interpolator_beta="0.2"
       start_linecap_type="zerowidth"
       linejoin_type="round"
       miter_limit="4"
       end_linecap_type="zerowidth"
       cusp_linecap_type="round" />
    <inkscape:path-effect
       cusp_linecap_type="round"
       end_linecap_type="zerowidth"
       miter_limit="4"
       linejoin_type="round"
       start_linecap_type="zerowidth"
       interpolator_beta="0.2"
       interpolator_type="Linear"
       sort_points="true"
       offset_points="0.55068825,1.4540937"
       is_visible="true"
       id="path-effect4434-5-1"
       effect="powerstroke" />
    <inkscape:path-effect
       effect="powerstroke"
       id="path-effect4651"
       is_visible="true"
       offset_points="0.55068825,1.9422124"
       sort_points="true"
       interpolator_type="Linear"
       interpolator_beta="0.2"
       start_linecap_type="zerowidth"
       linejoin_type="round"
       miter_limit="4"
       end_linecap_type="zerowidth"
       cusp_linecap_type="round" />
    <inkscape:path-effect
       effect="powerstroke"
       id="path-effect4647"
       is_visible="true"
       offset_points="0.55068825,3.1286392"
       sort_points="true"
       interpolator_type="Linear"
       interpolator_beta="0.2"
       start_linecap_type="zerowidth"
       linejoin_type="round"
       miter_limit="4"
       end_linecap_type="zerowidth"
       cusp_linecap_type="round" />
  </defs>
  <sodipodi:namedview
     id="base"
     pagecolor="#ffffff"
     bordercolor="#666666"
     borderopacity="1.0"
     inkscape:pageopacity="0.0"
     inkscape:pageshadow="2"
     inkscape:zoom="2.8"
     inkscape:cx="80.181723"
     inkscape:cy="116.15076"
     inkscape:document-units="px"
     inkscape:current-layer="layer1"
     showgrid="false"
     units="px"
     inkscape:window-width="2560"
     inkscape:window-height="1388"
     inkscape:window-x="-8"
     inkscape:window-y="-8"
     inkscape:window-maximized="1"
     showguides="false" />
  <metadata
     id="metadata7">
    <rdf:RDF>
      <cc:Work
         rdf:about="">
        <dc:format>image/svg+xml</dc:format>
        <dc:type
           rdf:resource="http://purl.org/dc/dcmitype/StillImage" />
        <dc:title />
      </cc:Work>
    </rdf:RDF>
  </metadata>
  <g
     inkscape:groupmode="layer"
     id="layer1"
     inkscape:label="Layer 1"
     style="display:none">
    <path
       sodipodi:nodetypes="cccccccccccccccccccccc"
       inkscape:connector-curvature="0"
       id="path4140"
       d="m 94.772125,129.39526 -0.01571,22.63838 2.170488,-25.95229 c 4.528757,-8.54401 15.288707,-19.11028 26.989267,-29.022342 l 0.5574,11.452932 8.49319,-18.866774 c 11.94331,-9.489231 23.47008,-17.617152 29.14473,-21.633948 l -5.61216,19.075565 9.40645,-20.624647 c 10.80686,-7.087786 42.97374,-16.468135 63.96513,-44.262922 1.60022,31.918409 -36.06852,74.668418 -42.78418,91.347976 l -24.86732,6.91109 24.23307,-3.94985 c -2.84766,9.15645 -6.66687,17.54436 -11.43899,25.37308 l -8.6966,2.85377 3.96572,4.29803 c -6.05364,8.46643 -13.3139,16.30344 -21.75399,23.81204 l -27.09916,8.36983 24.62957,-5.33611 c -20.18063,17.18451 -39.00652,28.18484 -62.270105,26.65163 0,0 -0.853052,-0.87236 -1.630569,-1.46306 -5.153143,-35.12664 3.022797,-60.30605 12.613769,-71.67238 z"
       style="display:inline;fill:#ffaaaa;fill-rule:evenodd;stroke:#000000;stroke-width:1px;stroke-linecap:butt;stroke-linejoin:miter;stroke-opacity:1" />
    <path
       sodipodi:nodetypes="ccccccccccccc"
       inkscape:connector-curvature="0"
       id="path4142"
       d="M 84.107143,202.25 134.10714,125.10714 C 166.20535,91.256604 215.45194,58.660826 229.64286,23.5 c 0.92355,33.465235 -28.15861,59.656358 -42.32143,89.46429 l -24.82143,7.5 23.75,-3.75 c -2.49822,8.8178 -6.09241,16.99808 -10.96821,24.91929 l -8.95667,2.92821 4.00629,4.43106 c -5.75949,7.885 -12.88926,15.62593 -21.58141,23.61429 L 122.23214,181 145.53571,176.35714 C 124.68478,193.91538 105.83333,203.17262 84.107143,202.25 Z"
       style="display:inline;fill:#000000;fill-opacity:0.17757012;fill-rule:evenodd;stroke:none;stroke-width:1px;stroke-linecap:butt;stroke-linejoin:miter;stroke-opacity:1" />
    <path
       sodipodi:nodetypes="cscsc"
       inkscape:connector-curvature="0"
       id="path4144"
       d="M 203.8544,60.562225 C 183.02655,80.230876 154.68354,100.00425 134.23774,123.15403 105.20371,156.02786 98.278673,188.85841 49.373973,242.42481 99.022425,192.09753 109.07831,157.61541 136.68401,124.31197 155.78218,101.27201 186.75325,80.026463 203.8544,60.562225 Z"
       style="display:inline;fill:#4d4d4d;fill-rule:evenodd;stroke:#000000;stroke-width:1px;stroke-linecap:butt;stroke-linejoin:miter;stroke-opacity:1" />
    <path
       sodipodi:nodetypes="cc"
       inkscape:connector-curvature="0"
       inkscape:original-d="M 233.29672,50.949679 C 231.11227,135.11996 198.46597,216.92249 121.40507,254.56439"
       inkscape:path-effect="#path-effect4227"
       id="path4225"
       d="m 233.29672,50.949679 c -2.24928,46.402948 -13.742,91.441001 -36.36234,128.348581 -16.75752,30.9647 -41.37779,57.42402 -75.52931,75.26613 35.10138,-15.98467 61.78859,-41.17987 80.94934,-72.12086 21.40046,-38.96332 30.78216,-85.194899 30.94231,-131.493851 z"
       style="display:inline;fill:#ff8080;fill-rule:evenodd;stroke:none;stroke-width:1px;stroke-linecap:butt;stroke-linejoin:miter;stroke-opacity:1" />
    <path
       sodipodi:nodetypes="cc"
       inkscape:connector-curvature="0"
       inkscape:original-d="m 29.41827,219.93559 c 1.404374,-84.18692 33.291221,-166.288455 110,-204.642844"
       inkscape:path-effect="#path-effect4231"
       id="path4229"
       d="M 29.41827,219.93559 C 31.237451,173.51379 42.312319,128.37117 64.589674,91.255557 81.059533,60.136896 105.43356,33.450562 139.41827,15.292746 104.46652,31.602006 78.013937,57.043426 59.140729,88.160649 38.102253,127.3206 29.14937,173.63714 29.41827,219.93559 Z"
       style="display:inline;fill:#ff8080;fill-rule:evenodd;stroke:none;stroke-width:1px;stroke-linecap:butt;stroke-linejoin:miter;stroke-opacity:1" />
  </g>
  <g
     inkscape:groupmode="layer"
     id="layer2"
     inkscape:label="Layer 2"
     style="display:none">
    <path
       style="fill:#ffaaaa;fill-rule:evenodd;stroke:#000000;stroke-width:1px;stroke-linecap:butt;stroke-linejoin:miter;stroke-opacity:1"
       d="m 94.772125,129.39526 -0.01571,22.63838 2.170488,-25.95229 C 107.18074,106.73632 149.37844,77.024303 162.11149,68.011218 l -5.61216,19.075565 9.40645,-20.624647 c 10.80686,-7.087786 42.97374,-16.468135 63.96513,-44.262922 1.60022,31.918409 -36.06852,74.668418 -42.78418,91.347976 l -24.86732,6.91109 24.23307,-3.94985 c -6.94792,22.34052 -19.67939,40.106 -37.92386,56.33692 l -27.09916,8.36983 24.62957,-5.33611 c -20.18063,17.18451 -39.00652,28.18484 -62.270105,26.65163 0,0 -0.853052,-0.87236 -1.630569,-1.46306 -5.153143,-35.12664 3.022797,-60.30605 12.613769,-71.67238 z"
       id="path5354"
       inkscape:connector-curvature="0"
       sodipodi:nodetypes="cccccccccccccccc" />
    <path
       style="fill:#000000;fill-opacity:0.17757012;fill-rule:evenodd;stroke:none;stroke-width:1px;stroke-linecap:butt;stroke-linejoin:miter;stroke-opacity:1"
       d="M 84.107143,202.25 134.10714,125.10714 C 166.20535,91.256604 215.45194,58.660826 229.64286,23.5 c 0.92355,33.465235 -28.15861,59.656358 -42.32143,89.46429 l -24.82143,7.5 23.75,-3.75 c -5.80531,20.49059 -17.52872,37.53861 -37.5,55.89285 L 122.23214,181 145.53571,176.35714 C 124.68478,193.91538 105.83333,203.17262 84.107143,202.25 Z"
       id="path4137"
       inkscape:connector-curvature="0"
       sodipodi:nodetypes="cccccccccc" />
    <path
       style="fill:#4d4d4d;fill-rule:evenodd;stroke:#000000;stroke-width:1px;stroke-linecap:butt;stroke-linejoin:miter;stroke-opacity:1"
       d="M 203.8544,60.562225 C 183.02655,80.230876 154.68354,100.00425 134.23774,123.15403 105.20371,156.02786 98.278673,188.85841 49.373973,242.42481 99.022425,192.09753 109.07831,157.61541 136.68401,124.31197 155.78218,101.27201 186.75325,80.026463 203.8544,60.562225 Z"
       id="path5356"
       inkscape:connector-curvature="0"
       sodipodi:nodetypes="cscsc" />
    <path
       sodipodi:nodetypes="cc"
       inkscape:connector-curvature="0"
       inkscape:original-d="M 233.29672,50.949679 C 231.11227,135.11996 198.46597,216.92249 121.40507,254.56439"
       inkscape:path-effect="#path-effect4207"
       id="path4205"
       d="m 233.29672,50.949679 c -2.24928,46.402948 -13.742,91.441001 -36.36234,128.348581 -16.75752,30.9647 -41.37779,57.42402 -75.52931,75.26613 35.10138,-15.98467 61.78859,-41.17987 80.94934,-72.12086 21.40046,-38.96332 30.78216,-85.194899 30.94231,-131.493851 z"
       style="display:inline;fill:#ff8080;fill-rule:evenodd;stroke:none;stroke-width:1px;stroke-linecap:butt;stroke-linejoin:miter;stroke-opacity:1" />
    <path
       sodipodi:nodetypes="cc"
       inkscape:connector-curvature="0"
       inkscape:original-d="m 240.49849,105.44978 c -6.26719,57.99588 -29.05012,112.97618 -73.46035,135.4624"
       inkscape:path-effect="#path-effect4211"
       id="path4209"
       d="m 240.49849,105.44978 c -4.10044,31.911 -13.18567,62.5842 -27.92445,87.18905 -10.95528,20.57278 -25.90596,37.60963 -45.5359,48.27335 20.28044,-9.54171 36.50094,-25.83382 48.91879,-46.35838 13.90664,-25.76403 21.73794,-57.14231 24.54156,-89.10402 z"
       style="display:inline;fill:#ff8080;fill-rule:evenodd;stroke:none;stroke-width:1px;stroke-linecap:butt;stroke-linejoin:miter;stroke-opacity:1" />
    <path
       sodipodi:nodetypes="cc"
       inkscape:connector-curvature="0"
       inkscape:original-d="m 29.41827,219.93559 c 1.404374,-84.18692 33.291221,-166.288455 110,-204.642844"
       inkscape:path-effect="#path-effect4215"
       id="path4213"
       d="M 29.41827,219.93559 C 31.237451,173.51379 42.312319,128.37117 64.589674,91.255557 81.059533,60.136896 105.43356,33.450562 139.41827,15.292746 104.46652,31.602006 78.013937,57.043426 59.140729,88.160649 38.102253,127.3206 29.14937,173.63714 29.41827,219.93559 Z"
       style="display:inline;fill:#ff8080;fill-rule:evenodd;stroke:none;stroke-width:1px;stroke-linecap:butt;stroke-linejoin:miter;stroke-opacity:1" />
    <path
       sodipodi:nodetypes="cc"
       inkscape:connector-curvature="0"
       inkscape:original-d="M 21.711776,165.50457 C 27.441261,107.45309 49.71372,52.264032 93.913672,29.36724"
       inkscape:path-effect="#path-effect4219"
       id="path4217"
       d="M 21.711776,165.50457 C 25.516326,133.55693 34.316924,102.80086 48.827064,78.060486 59.591225,57.387066 74.383392,40.212403 93.913672,29.36724 73.722521,39.096475 57.653694,55.538195 45.426572,76.176943 31.759285,102.06874 24.219093,133.51824 21.711776,165.50457 Z"
       style="display:inline;fill:#ff8080;fill-rule:evenodd;stroke:none;stroke-width:1px;stroke-linecap:butt;stroke-linejoin:miter;stroke-opacity:1" />
  </g>
  <g
     inkscape:groupmode="layer"
     id="layer3"
     inkscape:label="Layer 3"
     style="display:inline">
    <path
       sodipodi:nodetypes="sscssccs"
       inkscape:connector-curvature="0"
       id="path4168"
       d="M 94.772125,129.39526 C 115.91525,97.859253 140.43837,80.174386 165.90578,66.462136 177.285,60.335295 208.87952,49.994001 229.87091,22.199214 c -0.18007,41.841758 -25.00567,54.858008 -43.41843,94.309216 -17.22385,36.90385 -27.68447,48.27648 -38.78631,58.12064 -19.83219,17.58548 -40.61366,29.43484 -63.877245,27.90163 0,0 -0.853052,-0.87236 -1.630569,-1.46306 -5.153143,-35.12664 4.331925,-59.3196 12.613769,-71.67238 z"
       style="display:inline;fill:#ffaaaa;fill-rule:evenodd;stroke:#000000;stroke-width:1px;stroke-linecap:butt;stroke-linejoin:miter;stroke-opacity:1" />
    <path
       sodipodi:nodetypes="cccssc"
       inkscape:connector-curvature="0"
       id="path4170"
       d="M 84.107143,202.25 134.10714,125.10714 C 166.20535,91.256604 215.98765,58.303683 229.64286,23.5 c -1.75888,23.084924 -3.57187,29.960419 -12.64252,43.51129 -30.10415,44.97333 -34.72907,60.64628 -46.85831,80.54511 -19.38769,31.80682 -55.98531,57.13655 -86.034887,54.6936 z"
       style="display:inline;fill:#000000;fill-opacity:0.17757012;fill-rule:evenodd;stroke:none;stroke-width:1px;stroke-linecap:butt;stroke-linejoin:miter;stroke-opacity:1" />
    <path
       sodipodi:nodetypes="cscsc"
       inkscape:connector-curvature="0"
       id="path4172"
       d="M 203.8544,60.562225 C 183.02655,80.230876 154.68354,100.00425 134.23774,123.15403 105.20371,156.02786 98.278673,188.85841 49.373973,242.42481 99.022425,192.09753 109.07831,157.61541 136.68401,124.31197 155.78218,101.27201 186.75325,80.026463 203.8544,60.562225 Z"
       style="display:inline;fill:#4d4d4d;fill-rule:evenodd;stroke:#000000;stroke-width:1px;stroke-linecap:butt;stroke-linejoin:miter;stroke-opacity:1" />
    <path
       style="display:inline;fill:#ff8080;fill-rule:evenodd;stroke:none;stroke-width:1px;stroke-linecap:butt;stroke-linejoin:miter;stroke-opacity:1"
       d="m 233.29672,50.949679 c -2.24928,46.402948 -13.742,91.441001 -36.36234,128.348581 -16.75752,30.9647 -41.37779,57.42402 -75.52931,75.26613 35.10138,-15.98467 61.78859,-41.17987 80.94934,-72.12086 21.40046,-38.96332 30.78216,-85.194899 30.94231,-131.493851 z"
       id="path4681"
       inkscape:path-effect="#path-effect4683"
       inkscape:original-d="M 233.29672,50.949679 C 231.11227,135.11996 198.46597,216.92249 121.40507,254.56439"
       inkscape:connector-curvature="0"
       sodipodi:nodetypes="cc" />
    <path
       style="display:inline;fill:#ff8080;fill-rule:evenodd;stroke:none;stroke-width:1px;stroke-linecap:butt;stroke-linejoin:miter;stroke-opacity:1"
       d="m 240.49849,105.44978 c -4.10044,31.911 -13.18567,62.5842 -27.92445,87.18905 -10.95528,20.57278 -25.90596,37.60963 -45.5359,48.27335 20.28044,-9.54171 36.50094,-25.83382 48.91879,-46.35838 13.90664,-25.76403 21.73794,-57.14231 24.54156,-89.10402 z"
       id="path4685"
       inkscape:path-effect="#path-effect4687"
       inkscape:original-d="m 240.49849,105.44978 c -6.26719,57.99588 -29.05012,112.97618 -73.46035,135.4624"
       inkscape:connector-curvature="0"
       sodipodi:nodetypes="cc" />
    <path
       style="display:inline;fill:#ff8080;fill-rule:evenodd;stroke:none;stroke-width:1px;stroke-linecap:butt;stroke-linejoin:miter;stroke-opacity:1"
       d="M 29.41827,219.93559 C 31.237451,173.51379 42.312319,128.37117 64.589674,91.255557 81.059533,60.136896 105.43356,33.450562 139.41827,15.292746 104.46652,31.602006 78.013937,57.043426 59.140729,88.160649 38.102253,127.3206 29.14937,173.63714 29.41827,219.93559 Z"
       id="path4645"
       inkscape:path-effect="#path-effect4647"
       inkscape:original-d="m 29.41827,219.93559 c 1.404374,-84.18692 33.291221,-166.288455 110,-204.642844"
       inkscape:connector-curvature="0"
       sodipodi:nodetypes="cc" />
    <path
       style="display:inline;fill:#ff8080;fill-rule:evenodd;stroke:none;stroke-width:1px;stroke-linecap:butt;stroke-linejoin:miter;stroke-opacity:1"
       d="M 21.711776,165.50457 C 25.516326,133.55693 34.316924,102.80086 48.827064,78.060486 59.591225,57.387066 74.383392,40.212403 93.913672,29.36724 73.722521,39.096475 57.653694,55.538195 45.426572,76.176943 31.759285,102.06874 24.219093,133.51824 21.711776,165.50457 Z"
       id="path4649"
       inkscape:path-effect="#path-effect4651"
       inkscape:original-d="M 21.711776,165.50457 C 27.441261,107.45309 49.71372,52.264032 93.913672,29.36724"
       inkscape:connector-curvature="0"
       sodipodi:nodetypes="cc" />
    <path
       sodipodi:nodetypes="cc"
       inkscape:connector-curvature="0"
       inkscape:original-d="m 252.17403,137.38186 c -5.96307,44.2457 -21.90345,85.69646 -49.85828,101.61928"
       inkscape:path-effect="#path-effect4200-5-4"
       id="path4198-1"
       d="m 252.17403,137.38186 c -3.72909,24.32601 -10.46776,47.64053 -20.45906,66.15105 -7.4005,15.40873 -17.09639,27.94864 -29.39922,35.46823 12.81904,-6.78656 23.39103,-18.86743 31.78001,-34.25517 9.35994,-19.23506 15.23931,-42.96134 18.07827,-67.36411 z"
       style="display:inline;fill:#ff8080;fill-rule:evenodd;stroke:none;stroke-width:1px;stroke-linecap:butt;stroke-linejoin:miter;stroke-opacity:1" />
    <path
       sodipodi:nodetypes="cc"
       inkscape:connector-curvature="0"
       inkscape:original-d="M 14.977188,127.51766 C 15.460025,89.404829 30.061349,51.539716 65.503604,32.440203"
       inkscape:path-effect="#path-effect4434-5-1"
       id="path4432-6"
       d="M 14.977188,127.51766 C 15.72889,106.50336 20.767608,85.857118 31.011613,68.582889 38.578827,54.097811 49.814629,41.445247 65.503604,32.440203 49.341609,40.598906 37.146399,52.685499 28.472647,67.158422 18.811925,85.374983 14.75876,106.5557 14.977188,127.51766 Z"
       style="display:inline;fill:#ff8080;fill-rule:evenodd;stroke:none;stroke-width:1px;stroke-linecap:butt;stroke-linejoin:miter;stroke-opacity:1" />
  </g>
</svg>
