<svg version="1.1" viewBox="0 0 64 64" xmlns="http://www.w3.org/2000/svg" xmlns:xlink="http://www.w3.org/1999/xlink">
 <path d="m36.005 5.9419c6.0098-0.70349 11.817 3.4629 9.3051 12.524-2.734 9.8605-10.981 16.073-14.257 24.519-5.1349-7.6643-15.114-10.504-20.36-19.871-4.3671-7.7988 0.38974-13.505 6.7289-14.417 4.5503-0.65282 9.4805 0.39559 10.289 6.0391-0.7561-5.6571 3.5778-8.2431 8.2937-8.7946zm21.062 33.884c3.5116 1.7694 5.1699 6.1053 0.56513 10.12-5.0102 4.3651-11.704 4.7822-16.502 8.1885-0.04091-5.9923-4.4353-11.102-3.9267-18.057 0.42287-5.7916 5.0433-7.183 8.8063-5.4077 2.7009 1.2745 4.9965 3.6071 3.4161 6.955 1.6155-3.3362 4.8913-3.1862 7.6429-1.7987zm-41.167-2.4125c2.9757-1.2218 6.5438 0.07795 6.5594 5.0745 0.01562 5.4369-3.3128 9.8001-3.7786 14.592-3.7259-3.1862-9.2408-3.2056-13.269-7.2473-3.3518-3.3635-1.7383-6.9667 1.3758-8.3425 2.2332-0.988 4.9069-1.1575 6.1307 1.6135-1.1985-2.7867 0.64892-4.7315 2.9815-5.6903z" fill="#ffb380" fill-rule="evenodd" stroke-width="1.9487"/>
</svg>
