<svg version="1.1" viewBox="0 0 256 256" xmlns="http://www.w3.org/2000/svg">
 <path d="m162.45 36.674c-18.137 12.785-46.135 13.256-66.862 1.3747l-15.388 7.8879 35.662 22.877 36.746 1.2203 24.964-25.833z" fill="#f55" stroke="#000" stroke-miterlimit="10" stroke-width=".5px"/>
 <path id="p" d="m162.71 36.725a62.491 62.491 0 0 1 6.4239 2.397c13.985 7.9846 32.923 14.938 41.42 24.066 13.352 16.887 26.431 33.295 40.749 51.87-9.1572 11.528-17.424 22.842-36.722 36.817-5.4812-4.6428-14.317-15.564-19.458-17.313 0.36531 29.377-3.5564 31.271-2.4492 63.313-42.447 0.57112-84.91 1.1257-127.71 1.3423-2.3209-29.52-3.8258-29.764-3.4051-60.862l-15.724 12.177c-17.204-12.592-26.319-25.184-38.447-37.776 12.61-14.657 25.495-32.064 38.352-49.186l6.1362-5.6569 36.913-16.012 6.543-3.6618c15.78 38.822 53.812 36.223 67.38-1.5156z" fill="#ff8080" stroke="#000" stroke-miterlimit="10" stroke-width=".5px"/>
 <g id="patternLayer" display="inline">
  <path d="m162.71 36.725a62.491 62.491 0 0 1 6.4239 2.397c13.985 7.9846 32.923 14.938 41.42 24.066 13.352 16.887 26.431 33.295 40.749 51.87-9.1572 11.528-17.424 22.842-36.722 36.817-5.4812-4.6428-14.317-15.564-19.458-17.313 0.36531 29.377-3.5564 31.271-2.4492 63.313-42.447 0.57112-84.91 1.1257-127.71 1.3423-2.3209-29.52-3.8258-29.764-3.4051-60.862l-15.724 12.177c-17.204-12.592-26.319-25.184-38.447-37.776 12.61-14.657 25.495-32.064 38.352-49.186l6.1362-5.6569 36.913-16.012 6.543-3.6618c15.78 38.822 53.812 36.223 67.38-1.5156z" fill="#ff8080" stroke="#000" stroke-miterlimit="10" stroke-width=".5px"/>
 </g>
 <g fill="none" stroke="#000">
  <path d="m61.554 138.36c0.271-8.4109 1.1115-16.632 1.7258-24.929" stroke-miterlimit="10" stroke-width=".5px"/>
  <path d="m195.12 134.56c-0.40413-6.6559-0.95557-19.402-3.0562-23.483" stroke-miterlimit="10" stroke-width=".5px"/>
  <path d="m62.897 120.71c-3.1998-17.549-7.4175-40.264-17.162-57.144" stroke-width=".25px"/>
  <path d="m193.63 119.9c5.3949-19.968 6.0084-42.243 18.073-54.891" stroke-width=".25px"/>
  <g stroke-miterlimit="10" stroke-width=".25px">
   <path d="m90.989 40.944c18.368 40.361 59.433 38.817 75.936-2.6846"/>
   <path d="m212.64 150.17c15.527-11.739 26.457-24.381 36.78-37.017"/>
   <path d="m9.4915 110.51c12.259 14.157 25.514 28.531 38.576 38.17"/>
  </g>
 </g>
 <path d="m121.46 54.427 15.245-0.19176 0.0959 2.6846-15.484 0.09588z" fill="#ffb380" stroke="#000" stroke-miterlimit="10" stroke-width=".25px"/>
 <path d="m97.492 43.119c24.321 12.402 43.986 8.6214 62.915-0.54237" fill="none" stroke="#000" stroke-miterlimit="10" stroke-width=".25px"/>
</svg>
