<svg version="1.1" viewBox="0 0 256 256" xmlns="http://www.w3.org/2000/svg" xmlns:xlink="http://www.w3.org/1999/xlink">
 <defs>
  <linearGradient id="linearGradient929">
   <stop stop-color="#f55" offset="0"/>
   <stop stop-color="#ff8080" offset="1"/>
  </linearGradient>
  <linearGradient id="linearGradient931" x1="4.339" x2="72.136" y1="188.47" y2="172.47" gradientUnits="userSpaceOnUse" xlink:href="#linearGradient929"/>
  <linearGradient id="linearGradient939" x1="167.05" x2="222.37" y1="200.68" y2="155.66" gradientUnits="userSpaceOnUse" xlink:href="#linearGradient929"/>
  <linearGradient id="linearGradient947" x1="126.37" x2="126.1" y1="151.59" y2="95.458" gradientUnits="userSpaceOnUse" xlink:href="#linearGradient929"/>
 </defs>
 <path d="M85.53,122.95c-.13,1.73-1.08,3.38.5,6.08,6.85,1.52,58.02-.1,82.25.41.98-1.18,1.18-4.33.66-5.66l-7.72-6.02L89.9,119.32Z" fill="#ffb380" stroke="#000" stroke-width=".5"/>
 <g stroke="#000" stroke-linejoin="round" stroke-width=".5">
  <path d="m98.8 22.97c4.17 13.57 51.08 15.01 57.84-0.08 10.454 9.5611 15.414 58.62 14.22 76.54-0.33 9.47 0.22 22.67-1.92 24.35-12.86-1.26-80.44 2.64-83.42-0.83-1.33-1.4-1.34-5.26-1.82-23.04-1.0263-24.006-3.3188-40.523 15.1-76.94z" fill="url(#linearGradient947)"/>
  <path d="m156.64 22.89 3.89 2.88 3.23 1.48 12.51 5.83c3.84 2.11 7.81 4.45 9.59 9.23l11.43 24c18.98 42.72 33.04 93.28 41.17 132.95 0.06 0.54 0.1 1.07 0.12 1.6 0.01 0.54 0.01 1.07-0.02 1.6-0.03 0.54-0.08 1.07-0.16 1.6-0.07 0.52-0.17 1.05-0.28 1.57-1.12 7.5-0.04 8.09 1.19 14.8-5.01 2.07-10.25 3.95-15.62 5.75-2.34-6.08-5.16-11.87-9.4-14.19-5.07-5.04-7.53-10.32-9.59-14.57l-18.89-47.27c-8.3-14.7-8.74-27.73-9.78-41.8l-5.17-8.92" fill="url(#linearGradient939)"/>
  <path d="m83.7 99.91-5.06 8.54c-0.0015 3.1233-0.16839 6.2444-0.5 9.35-0.33127 3.1092-0.81855 6.1997-1.46 9.26-0.64811 3.0592-1.4525 6.0831-2.41 9.06-0.95382 2.9757-2.062 5.8996-3.32 8.76l-13.33 34.03c-4.96 13.32-10.54 24.68-17.13 32.84-4.83 3.67-6.24 6.55-9.43 13.76-1.39-0.27-2.77-0.57-4.15-0.92-1.37-0.35-2.74-0.73-4.09-1.16-1.36-0.42-2.7-0.88-4.02-1.38-1.33-0.51-2.64-1.04-3.94-1.62 2.65-8.11 2.3-10.4 1.45-14.97 1.36-19.85 7.96-39.03 12.74-58.28 6.78-27.39 17.42-53.37 27.61-79.58l8.15-17.93c5.11-14.16 17.63-17.91 29.41-23.57 1.74-0.83 2.89-2.18 4.58-3.13" fill="url(#linearGradient931)"/>
 </g>
 <path d="M98.66,26.13l3.26-1.2,53.4.72-5.03,7.77-24.64,3.74L102.59,31.4Z" fill="#ff2a2a" stroke="#000" stroke-width=".25"/>
 <path d="m98.8 22.97c17.32 1.3 37.73 0.78 57.84-0.08-0.36639 0.99413-0.92733 1.9052-1.65 2.68-0.35358 0.39157-0.74554 0.74668-1.17 1.06-0.42316 0.31525-0.87517 0.5898-1.35 0.82-17.11 0.95-33.31 1.57-51.03-0.36-1.44-0.79-2.6266 0.18746-2.64-4.12z" fill="#f95" stroke="#000" stroke-linejoin="round" stroke-width=".5"/>
 <g fill="#ffb380" stroke="#000" stroke-linejoin="round" stroke-width=".5">
  <path d="m98.8 22.97c4.17 13.57 51.08 15.01 57.84-0.08 0 0 3.53 2.95 3.86 3.12 4.83 7.34-46 24.67-66.28 0.09 1.74-0.83 3.1778-3.3312 4.58-3.13z"/>
  <path d="m40.49 211.75c-4.83 3.67-6.24 6.55-9.43 13.76-1.39-0.27-2.77-0.57-4.15-0.92-1.37-0.35-2.74-0.73-4.09-1.16q-2.04-0.63-4.02-1.38c-1.33-0.51-2.64-1.04-3.94-1.62 2.65-8.11 2.33-10.45 1.48-15.02 10.44-1 24.15 6.34 24.15 6.34z"/>
  <path d="m238.4 204.06c-0.07 0.52-0.17 1.05-0.28 1.57-1.12 7.5-0.04 8.09 1.19 14.8-5.01 2.07-10.25 3.95-15.62 5.75-2.34-6.08-5.16-11.87-9.4-14.19 3.3-4.74 24.19-8.46 24.11-7.93z"/>
 </g>
 <g fill="none" stroke="#000">
  <g stroke-width=".5">
   <path d="M83.7,99.91V96.27c-5.79-5.88-5.03-12.26-7.29-18.45-.07-.19-1.48-4.96-1.51-5.24" stroke-linecap="round"/>
   <path d="M170.86,99.43c-.52-4.09,1.63-5.36,3.3-7.14.79-.2,2.88-10.32,4.85-16.97a6.52912,6.52912,0,0,0,.95-1.15,6.3781,6.3781,0,0,0,.67-1.33,6.64241,6.64241,0,0,0,.34-1.45,6.18929,6.18929,0,0,0,0-1.49" stroke-linecap="round"/>
   <path d="m88.69 123.45a6.8011 6.8011 0 0 0-0.43 1.48 6.612 6.612 0 0 0-0.09 1.54 6.4293 6.4293 0 0 0 0.24 1.52 7.4428 7.4428 0 0 0 0.57 1.44"/>
   <path d="m165.03 123.59a9.0638 9.0638 0 0 1 0.03 3 9.4285 9.4285 0 0 1-0.36 1.46 9.2958 9.2958 0 0 1-0.6 1.38"/>
   <path d="M132,123.86c0,.49-.02.97-.05,1.46-.03.48-.07.96-.13,1.44q-.075.735-.21,1.44c-.08.48-.18.96-.29,1.43"/>
   <path d="M141.97,123.53a17.22609,17.22609,0,0,1-.37,2.97c-.11.49-.24.97-.39,1.45-.16.48-.33.95-.53,1.41"/>
   <path d="M150.03,123.46a13.06358,13.06358,0,0,1-.07,1.53c-.05.5-.12,1.01-.22,1.51s-.22.99-.36,1.48a14.52745,14.52745,0,0,1-.52,1.44"/>
   <path d="M157.9,123.66c0,.49-.02.97-.06,1.45-.04.49-.1.97-.17,1.45-.08.48-.18.95-.29,1.42s-.25.94-.4,1.4"/>
   <path d="M97.46,124.41c-.12.42-.21.85-.29,1.28a11.64644,11.64644,0,0,0-.14,1.31,9.6914,9.6914,0,0,0,0,1.32,11.40344,11.40344,0,0,0,.14,1.31"/>
   <path d="m106.86 124.55a9.0894 9.0894 0 0 0-0.3 1.25 8.0238 8.0238 0 0 0-0.11 1.29 7.7914 7.7914 0 0 0 0.08 1.28 8.8391 8.8391 0 0 0 0.28 1.26"/>
   <path d="M115.49,124.31c-.04.45-.07.91-.09,1.36-.03.46-.04.92-.05,1.37-.01.46-.01.91,0,1.37,0,.45.02.91.04,1.37"/>
   <path d="M123.68,124.17c-.07.44-.12.88-.16,1.32-.03.45-.05.89-.05,1.34.01.45.03.89.07,1.33.05.45.11.89.19,1.33"/>
   <path d="m20.1 205.86c1.83 4.57-1.16 10.13-3.08 15.46"/>
   <path d="m36.58 210.58c-3.49 2.13-5.71 8.61-8.17 14.27"/>
   <path d="m25.86 206.81c1.23 2.27-2.18 9.49-4.84 15.9"/>
   <path d="m32.14 208.71c-2.34 1.35-4.72 9.1-7.09 15.26"/>
   <path d="m217.56 209.9c2.88 1.03 6.88 8.55 8.51 15.35"/>
   <path d="m234.53 204.87c-0.95 7.19 1.2746 11.377 2.7946 16.247"/>
   <path d="m230.14 205.8c-1.09 6.81 2.56 10.98 4.47 16.44"/>
   <path d="m221.76 207.83c3.72 2.38 5.73 10.3 7.49 16.34"/>
  </g>
  <g stroke-width=".25">
   <path d="m139.16 32.866 1.6324 4.35"/>
   <path d="m117.91 33.233-1.1156 4.9202"/>
   <path d="m108 30.627-2.4539 4.1444"/>
   <path d="m100.6 26.37-3.8295 2.7276"/>
   <path d="m149.08 29.781 3.3158 3.9276"/>
   <path d="m155.46 25.064 5.2402 2.7654"/>
   <path d="m128.62 33.783 0.26458 4.8707"/>
   <path d="m112.58 32.001-1.9678 4.469"/>
   <path d="m123.15 33.73-0.47492 4.9812"/>
   <path d="m134.11 33.458 0.94068 4.8446"/>
   <path d="m144.58 31.524 2.4319 4.2027"/>
   <path d="m153.12 27.494 4.5071 3.6271"/>
   <path d="m104.34 29.02-3.1837 3.2844"/>
   <path d="m131.82 23.804 0.19 4.3"/>
   <path d="m120.6 23.866-0.14267 4.3738"/>
   <path d="m114.89 23.87-0.48712 4.23"/>
   <path d="m109.2 23.74-0.25061 4.0379"/>
   <path d="m104.21 23.427-0.2061 3.7629"/>
   <path d="m137.48 23.564c0 0.27 0.32824 4.6021 0.32824 4.6021"/>
   <path d="m143.4 23.5 0.42618 4.2603"/>
   <path d="M149.88,23.37l.29,4.19"/>
   <path d="M126.2,23.89l.09,4.39"/>
   <path d="m99 23.924-4.338 2.7276"/>
  </g>
 </g>
</svg>
