<svg cursor="default" version="1.1" viewBox="0 0 256 256" xmlns="http://www.w3.org/2000/svg" xmlns:xlink="http://www.w3.org/1999/xlink">
 <defs>
  <linearGradient id="linearGradient923" x1="126.24" x2="128.14" y1="170.03" y2="199.32" gradientUnits="userSpaceOnUse">
   <stop stop-color="#fea" offset="0"/>
   <stop stop-color="#fff6d5" offset="1"/>
  </linearGradient>
  <linearGradient id="linearGradient933" x1="155.93" x2="228.61" y1="179.8" y2="52.339" gradientUnits="userSpaceOnUse">
   <stop stop-color="#ff8080" offset="0"/>
   <stop stop-color="#faa" offset="1"/>
  </linearGradient>
 </defs>
 <g stroke="#000">
  <g>
   <g stroke-width=".75">
    <path d="m58.121 60.82c49.282 4.44 98.911 4.553 148.92-0.045l0.714 24.005-147.79 2.442z" fill="#f55"/>
    <path d="m131.43 191.4-4.475 5.56 1.677 0.521 2.184-1.36-0.133 4.222 1.513 0.18 1.59-2.07 2.186 1.218 2.617-0.118 2.743-1.324 2.708 1.71 2.712-2.776 3.65 0.69 3.554-1.679c1.613 0.309 1.736-3.225 5.025 1.035 1.79 2.317 1.879 1.524 3.191 1.066 0.382-0.133 0.466-2.96 1.52-2.95 2.154-1.804 4.15-5.208 5.764-0.11l2.75-3.276 2.505 3.174 0.578-3.819 4.005 1.869s3.73 2.101 4.407 0.203c0.678-1.898 4.43-6.058 4.43-6.058s5.604 2.397 5.604 1.855c0-0.543 3.186-2.916 3.186-2.916l3.865 2.373 4.43-0.133-0.43-3.596 2.934 0.469 2.64-3.492 3.917-1.587 2.638 0.693 3.702-2.209s3.503-1.147 3.638-3.045c4.144 4.139 4.754 3.307 4.599-1.642 2.21 3.524 2.816 0.399 4.536-0.907l-1.556-1.55 4.113-0.491-2.927-2.403 0.293-4.035-3.356 2.8-7.002-4.838zm-11.49-1.46 4.41 3.452-2.429 4.973-5.832-1.271s-2.94 2.795-3.515 2.795-8.075-3.371-8.075-3.371l-3.733 3.554-4.006-0.997-0.657-3.091-3.584-0.963-7.48 5.466-2.06-2.78-3.884-0.96c-2.875-3.24-3.799-1.55-7.095 0.576-1.806-0.878-3.171-2.184-4.602-3.548l-6.52 2.397 1.055-5.657-2.966 2.565-9.21-0.935 0.143-3.979-5.101-0.91-4.966 0.862 3.404-4.794-9.684 2.589 4.027-2.78-4.638 0.288-5.238-1.535 1.296-2.445-3.931-1.582 3.116-1.822-1.247-1.63 7.862-1.246z" fill="url(#linearGradient923)"/>
    <path d="M207.38 60.945c-23.427 9.06-52.204 17.031-73.411 20.922-.214.04-.434-.026-.65-.04-27.463-1.852-48.657-7.822-75.682-20.953-25.54 49.375-16.428 86.044-27.223 114.82 30.846 17.063 53.863 13.446 87.601 19.275 2.27.318 3.61-1.825 4.676-2.91l.47-15.49c1.712-.657 2.5-.43 3.986-.533.806-.056 1.588-.404 3.744.36l.1 15.193c.84 1.366 2.443 3.77 3.317 3.73 33.875-2.612 66.547-14.507 96.511-25.487-4.135-36.36-14.96-49.91-23.44-108.89z" fill="url(#linearGradient933)"/>
    <path d="m131.52 89.173 2.085-1.774c1.566-0.022 3.856-0.327 5.657 0-1.728 0.99-3.637 1.82-4.794 2.301z" fill="#ff2a2a"/>
    <g fill="#fff6d5">
     <path d="m56.76 181.02c19.511 2.33 17.927 3.833 30.291-3.938-18.661-7.738-27.424-8.976-45.288-6.508 3.462 9.197 7.593 7.965 14.998 10.446zm127.75-59.12c12.987-4.664 30.51-1.917 30.411-1.922-20.731 16.569-31.492 16.825-57.507 16.9 10.607-11.466 16.094-9.052 27.096-14.978zm-133.26-5.29c3.098 0.518 6.403 0.828 10.576 0.271-1.024 6.909-2.818 13.488-2.712 20.881-5.842 1.152-9.464-0.807-13.559-1.356 0.769-6.75 2.23-13.407 5.695-19.797z" stroke-width=".75"/>
    </g>
   </g>
   <path d="m59.119 178.03c-0.087-0.104 10.742-0.883 12.61-0.95 1.298-0.045 9.42 1.053 8.95 1.425-2.343 1.052-4.868 1.983-8.814 1.966-4.249 0.098-8.498-1.118-12.746-2.441zm125.69-53.16c-0.099-0.101 11.138-1.805 13.082-2.028 1.35-0.155 9.906 0.318 9.443 0.744-2.363 1.288-4.926 2.466-9.044 2.774-4.424 0.452-8.949-0.463-13.481-1.49z" fill="#ff2a2a" stroke-width=".5"/>
   <g fill="none" stroke-width=".75">
    <path d="m126.27 175.75c-4.632-9.125 5.054-52.301 0.943-78.664-0.823-5.279-3.188-9.566-3.22-13.51 2.297-1.394 5.717-0.932 11.746-2.002m-8.409 15.746c34.895-7.316 52.357-13.458 81.881-24.066m-157.39 0.138c14.326 7.86 27.703 14.413 75.029 21.93" stroke-width=".75"/>
   </g>
  </g>
  <g stroke-width=".5">
   <circle cx="132.24" cy="88.847" r="3.559" fill="#fca"/>
   <path d="m139.25 94.915c-1.642 21.732 4.77 66.488-13.979 60.81" fill="none" stroke-dasharray="1.5,0.5"/>
   <circle cx="132.15" cy="88.932" r="1.271" fill="#ffe6d5"/>
  </g>
 </g>
 <g fill="none" stroke="#000">
  <path d="m178.33 83.61c5 26.333 25.149 19.024 36.146 15.916m-132.18-13.321c-2.667 13.13-26.142 20.191-39.467 14.219" stroke-width=".75"/>
  <path d="m60.675 102.04 4.584-12.935c-6.191-1.451-12.057-3.506-17.354-6.616"/>
  <g stroke-dasharray="1.5,0.5" stroke-width=".5">
   <path d="m176.61 84.61c6.106 28.547 27.783 19.39 38.565 16.762m-172.99 0.938c8.923 4.46 38.578 2.835 41.516-15.916m44.907 69.806c-1.216 7.136-1.245 16.725 0.205 20" stroke-dasharray="1.5,0.5" stroke-width=".5"/>
  </g>
 </g>
 <g stroke="#000">
  <path d="m51.056 122.58c0.984-0.854 2.134-1.078 4.267-1.103 1.135 0.263 2.395 0.49 3.211 1.582-1.166 0.976-2.425 0.234-3.715 0.288-1.677-0.333-3.043-0.115-3.763-0.767zm-0.033 49.53c1.612-0.451 5.063-0.313 7.195 0.103 1.437 0.407 5.809 0.825 6.615 1.954-1.188 1.335-5.9 0.565-8.03-0.059-3.073-0.315-4.937-0.845-5.78-1.998zm-1.754-41.86c1.066-0.407 2.645-0.505 4.41-0.49 1.54 0.169 2.644 0.601 3.548 1.154-1.015 0.24-0.779 0.076-4.315 0.173-2.353-0.375-2.701-0.391-3.643-0.837z" fill="#ff2a2a" stroke-width=".5"/>
  <path d="m47.556 84.233c4.696 3.061 10.775 5.058 17.114 6.855" fill="none" stroke-dasharray="1.5,0.5" stroke-width=".5"/>
  <path d="m81.461 71.124c31.262 5.39 60.603 3.864 92.649 0.939" fill="none" stroke-width=".75"/>
  <path d="m174.56 129.51c2.576-1.103 5.652-1.533 11.384-1.894 3.076 0.115 6.483 0.17 8.77 1.256-3.058 1.267-6.505 0.64-9.97 0.901-4.538-0.107-8.193 0.35-10.184-0.263zm-10.02 5.04c3.062-1.207 1.528-1.419 9.06-2.11 4.735 0.377 6.26-0.425 8.342 0.192-6.045 2.965-11.868 3.81-17.402 1.918z" fill="#ff2a2a" stroke-width=".5"/>
  <path d="m127.18 96.074c14.249-3.03 29.259-6.842 42.954-11.122l9.971-3.068 14.765-5.082 14.19-5.033m-156.61 0.239c22.029 12.437 49.449 18.467 74.066 21.621" fill="none" stroke-dasharray="1.5,0.5" stroke-width=".5"/>
  <path d="m168.17 73.926 4.522-1.387c2.298 5.135 3.308 11.124 4.323 16.67 0.15 0.813 0.861 1.71 0.986 2.496l-4.737 1.284c-0.12-0.9-0.642-1.73-0.8-2.673-0.886-5.327-1.986-11.299-4.294-16.39zm-78.83-0.089 4.794 1.534c-2.327 5.13-4.751 11.243-6.01 17.035-0.184 0.853-0.86 1.698-0.965 2.532l-4.64-1.686c0.184-0.964 0.886-1.816 1.142-2.833 1.361-5.409 3.198-11.565 5.679-16.582z" fill="#ff8080" stroke-width=".75"/>
  <path d="m83.661 90.678 4.508 1.458m84.361-1.671 4.362-1.15" fill="none" stroke-dasharray="1,0.5" stroke-width=".5"/>
 </g>
</svg>
