<svg version="1.1" viewBox="0 0 256 256" xmlns="http://www.w3.org/2000/svg" xmlns:xlink="http://www.w3.org/1999/xlink">
 <defs>
  <radialGradient id="innoGrad1" cx="553.78" cy="-6925.3" r="30.981" gradientTransform="matrix(.32914 -.25524 -.204 -.26307 -1464.6 -1610)" gradientUnits="userSpaceOnUse">
   <stop stop-color="#faa" offset="0"/>
   <stop stop-color="#ff8080" offset="1"/>
  </radialGradient>
  <radialGradient id="innoGrad2" cx="-1896.6" cy="242.65" r="16.692" gradientTransform="matrix(5.169 .18378 .15794 -4.4421 9872.2 1601)" xlink:href="#innoGrad1"/>
  <radialGradient id="innoGrad3" cx="-1749.7" cy="198.67" r="17.811" gradientTransform="matrix(4.1558 -.01077 -.01066 -4.1165 7417.6 974.44)" xlink:href="#innoGrad1"/>
 </defs>
 <g stroke="#000">
  <g stroke-width=".25px">
   <path d="m113.5 11.098c3.9911 10.85 7.8305 21.579 12.964 31.667l-8.8688-1.5341-5.9924-15.868-1.1026-13.039z" fill="#f55"/>
   <path d="m145.47 11.098c-3.9911 10.85-8.054 21.572-13.188 31.661l9.1564 0.33557 6.9512-17.354-0.33557-13.471z" fill="#f55"/>
   <path d="m112.73 16.43 11.527 26.815-4.746-1.8696-7.5744-18.553-1.1985-6.5198z" fill="#ff8080"/>
   <path d="m134.95 42.765 11.026-27.469 3.8352 4.3146-11.985 24.737z" fill="#ff8080"/>
  </g>
  <g stroke-miterlimit="10">
   <path d="m111.39 41.22c10.848 0.05641 21.819 0.08822 33.559-0.0339 0.71152 0.1528 1.6125-0.1078 1.661 1.4915l0.61017 6.4746c1.2182 15.236 5.0402 27.571 11.124 37.693-20.26 4.4902-43.009 4.1773-60.404-0.16778 8.8858-15.023 9.5436-27.007 10.941-38l1.3559-6.8136c0.15972-0.7984 0.68852-0.637 1.1526-0.64407z" fill="url(#innoGrad1)" stroke-width=".5px"/>
   <path d="m95.832 93.942c21.17 5.7216 42.577 5.0993 64.129 0.60775 0.141-2.1512-0.66229-4.8271-1.2954-7.4084l-0.28664-0.28594a137.55 137.55 0 0 1-60.404-0.16778l-0.339 0.52542a23.42 23.42 0 0 0-1.8047 6.7289z" fill="#ff8080" stroke-width=".25px"/>
   <path d="m95.832 93.942-0.33667 18.336c-2.3609 42.474 0.34336 84.949 1.8217 127.42 6.0033 1.9669 14.031 2.0178 21.285-0.09592 2.8436-29.259 5.5487-58.109 7.4786-87.825 0.37881-6.4148 0.86069-12.795 0.19176-19.559 1.09-4.1707 0.52316-8.3415 0.57527-12.512l-0.0342-21.539a124.35 124.35 0 0 1-30.982-4.2276z" fill="url(#innoGrad2)" stroke-width=".5px"/>
   <path d="m126.81 98.169c10.182-0.309 20.544-0.80789 33.112-3.6295l0.95879 21.764c-0.64336 37.311-1.076 74.579-3.461 112.24l0.339 9.2203c-9.1326 3.4698-16.772 2.4554-24.136 0.61015l-0.0678-9.7627c-0.86191-28.343-1.637-56.685-4.9857-85.028l-0.0479-7.3827c-0.69051-1.1349-0.67639-1.7019-1.9655-1.9176l-0.28763-2.0614a23.08 23.08 0 0 0 0.71909-6.2801z" fill="url(#innoGrad3)" stroke-width=".5px"/>
  </g>
 </g>
 <g fill="none" stroke="#000" stroke-miterlimit="10">
  <path d="m133.73 236.92a41.913 41.913 0 0 0 24.034-0.47456" stroke-width=".5px"/>
  <path d="m97.293 238.28c9.0379 2.4177 14.024 1.5395 21.618-0.214" stroke-width=".5px"/>
  <g stroke-dasharray="1,0.5" stroke-width=".25px">
   <path d="m157.49 87.119c-5.6936-8.3234-9.4815-21.123-11.288-38.576"/>
   <path d="m145.21 48.614c1.8202 17.91 5.6492 30.606 11.266 38.663"/>
   <path d="m98.803 86.87c4.9362-8.7175 9.483-18.659 10.892-38.463"/>
   <path d="m111.12 48.374c-1.5229 14.226-4.3357 27.685-11.194 38.735"/>
  </g>
 </g>
 <g stroke="#000" stroke-width=".25px">
  <path d="m107.66 38.271a27.058 27.058 0 0 0 7.322-1.1864c0.22595-0.15567 0.65966 0.08821 0.339-1.1186a173.81 173.81 0 0 1-2.9153-23.763l0.678-1.0508c-2.6812 0.0058-5.3476 0.10575-7.7627 1.7966 0.4586 8.768 1.0766 17.005 1.9185 24.495 0.02947 0.33093 0.07191 0.65543 0.42047 0.82711z" fill="#ff8080" stroke-miterlimit="10"/>
  <path d="m148.9 38.17a27.058 27.058 0 0 1-7.322-1.1864 1.6242 1.6242 0 0 1-0.339-1.1186c1.7177-8.0038 3.7114-16.155 4.3051-24.034l0.113-1.0029c2.6812 0.0058 4.5566 0.05781 6.9717 1.7487-0.4586 8.768-2.4665 17.276-3.3083 24.766a1.1675 1.1675 0 0 1-0.42048 0.82711z" fill="#ff8080" stroke-miterlimit="10"/>
  <path d="m160.85 112.07c-6.1578-0.26719-13.773 3.9821-16.203-14.949" fill="none"/>
  <path d="m95.452 111.08c10.501 3.6014 13.885-2.8373 15.362-13.89" fill="none"/>
 </g>
 <g fill="#ff2a2a" stroke="#000" stroke-miterlimit="10" stroke-width=".25px">
  <path d="m155.16 91.424-0.9468 1.0067a5.6984 5.6984 0 0 1-3.0561-0.43146 5.201 5.201 0 0 1 2.9962-1.4022z"/>
  <path d="m156.04 98.173-0.94679 1.0067a5.6983 5.6983 0 0 1-3.0561-0.43145 5.2011 5.2011 0 0 1 2.9962-1.4022z"/>
  <path d="m157.22 105.56-0.94679 1.0067a5.6987 5.6987 0 0 1-3.0561-0.43146 5.2012 5.2012 0 0 1 2.9962-1.4022z"/>
 </g>
 <g fill="none" stroke="#000">
  <g stroke-dasharray="1,0.5" stroke-width=".25px">
   <path d="m143.69 97.22c1.9912 17.591 9.6449 16.459 17.085 16.034"/>
   <path d="m142.41 97.322c3.4124 20.645 11.589 17.553 18.475 16.915"/>
   <path d="m111.87 97.059c-1.9918 17.604-8.906 16.84-16.305 15.559"/>
   <path d="m113.15 97.161c-3.4992 20.505-10.601 17.069-17.322 16.695"/>
   <path d="m127.19 134.54c1.5456-2.0334 2.5067-5.647 1.6271-14.237v-22.203"/>
   <path d="m127.83 98.441 0.0339 22.203c0.41872 4.9943 0.79507 9.9422-1.5254 11.932"/>
   <path d="m127.02 119.2c10.724-0.22129 4.9154-13.668 6.4239-21.261"/>
   <path d="m134.42 97.992c0.64158 11.105 2.2229 23.29-7.4546 22.532"/>
  </g>
  <path d="m113.83 52.761q10.706-0.14287 21.021-0.38352a22.042 22.042 0 0 1 0.43146 7.6463 101.53 101.53 0 0 1-11.026 3.4277 31.713 31.713 0 0 1-10.882-3.5236 21.435 21.435 0 0 1 0.45547-7.1669z" stroke-width=".5px"/>
  <g stroke-dasharray="1,0.5" stroke-width=".25px">
   <path d="m98.372 87.541a31.759 31.759 0 0 0-1.582 5.9205c24.876 5.7269 43.923 3.451 62.297 0.45542a34.881 34.881 0 0 0-1.1745-5.9685c-19.365 4.0802-39.103 4.7613-59.541-0.40749z"/>
   <path d="m114.48 53.418c-0.238 0.3678 19.372 0.0647 19.631-0.16779 0.12487-0.11208 0.43146 6.1602 0.43146 6.1602s-10.329 2.7977-10.403 2.9483c-0.34594 0.70254-10.242-3.1186-10.139-3.5236z"/>
   <path d="m115.87 54.658-0.63024 3.5542a48.694 48.694 0 0 0 8.749 3.14c2.9428-0.99521 5.5498-2.0352 9.1085-2.9483l-0.1339-3.7274a155.13 155.13 0 0 1-17.093-0.01865z"/>
  </g>
  <path d="m113.68 60.199c1.2865 8.0338-4.3221 20.787 7.1995 20.547a133.05 133.05 0 0 0 16.746 0.23729c9.2953 0.13984 3.6632-15.89 5.0848-24.983l-7.1864-0.0678" stroke-width=".5px"/>
  <g stroke-dasharray="1,0.5" stroke-width=".25px">
   <path d="m114.81 60.712-0.50847 13.458c0.95882 6.2197 5.6491 5.3206 5.661 5.5932l17.932 0.30506c2.2863-0.37113 3.531-2.3322 4.1017-5.322l-0.339-17.661-1.322-0.1017 0.20339 17.831c-0.14594 3.3908-1.3315 3.3507-2.339 3.8983l-17.898-0.23729c-1.8686-0.20816-3.801-0.27262-4.678-2.7119l0.27118-14.508"/>
   <path d="m135.62 59.688 6.6875 0.21573"/>
   <path d="m111.05 41.932-1.3559 6.4746c12.169 0.46149 24.339 0.57691 36.508 0.13559l-0.5424-6.5424c-11.171 0.31015-22.459 0.5135-34.61-0.0678z"/>
  </g>
  <path d="m127.85 41.375 0.0479 7.0471 0.11983 3.955" stroke-width=".5px"/>
  <path d="m128.89 41.399a80.01 80.01 0 0 0 0.3116 11.098" stroke-dasharray="1,0.5" stroke-width=".25px"/>
  <path d="m129.94 41.423a63.628 63.628 0 0 0 0.16778 11.026" stroke-dasharray="1,0.5" stroke-width=".25px"/>
  <path d="m127.73 81.141-0.14382 9.0126" stroke-width=".5px"/>
  <path d="m128.67 81.213-0.26367 8.7729" stroke-dasharray="1,0.5" stroke-width=".25px"/>
  <path d="m129.82 81.261-0.35955 8.7489" stroke-dasharray="1,0.5" stroke-width=".25px"/>
  <path d="m105.37 25.963a4.1111 4.1111 0 0 0 0.4794 4.0748l8.5332-1.582a8.2745 8.2745 0 0 0-0.50334-3.9071z"/>
  <path d="m151.3 26.337a4.1111 4.1111 0 0 1-0.47938 4.0748l-8.5332-1.582a8.2746 8.2746 0 0 1 0.50335-3.9071z"/>
  <path d="m106.81 37.396c-0.34714-1.2432 0.33827-1.393 1.0547-1.5101l6.7115-1.1985c1.0965-0.17438 1.2877 0.38482 1.3423 1.0547 0.12921 0.90285 0.65046 1.8057-2.1093 2.7086 1.0606 2.4683 0.52827 3.9229-1.2225 4.6022-1.49-0.23857-3.1056-0.212-2.9243-3.979-1.5438 0.11458-2.7079-0.2023-2.8524-1.6778z"/>
  <path d="m140.64 36.475c0.1753-0.86167 0.59059-1.3767 1.5763-1.0678l6.4915 1.2203c1.1539 0.41326 0.98491 0.96338 0.86439 1.5085-0.43008 0.70438 0.3781 1.7497-2.9322 1.661 0.38453 2.4971-1.1028 4.4593-2.83 4.7099-1.066-1.0621-2.7107-2.755-1.0175-5.4726-2.6895-0.71225-2.5787-1.6245-2.1526-2.5593z"/>
 </g>
 <g stroke="#000" stroke-miterlimit="10" stroke-width=".25px">
  <circle cx="156.09" cy="98.267" r="1.8157" fill="#ffe6d5"/>
  <circle cx="156.04" cy="98.279" r=".88688" fill="#fca"/>
  <circle cx="155.19" cy="91.39" r="1.8157" fill="#ffe6d5"/>
  <circle cx="155.14" cy="91.402" r=".88688" fill="#fca"/>
  <circle cx="156.39" cy="105.53" r="1.8157" fill="#ffe6d5"/>
  <circle cx="156.34" cy="105.54" r=".88688" fill="#fca"/>
 </g>
 <g fill="#ff2a2a" stroke="#000" stroke-miterlimit="10" stroke-width=".25px">
  <path d="m100.52 91.579 0.9468 1.0067a5.6984 5.6984 0 0 0 3.0561-0.43148 5.201 5.201 0 0 0-2.9962-1.4022z"/>
  <path d="m100.45 98.663 0.9468 1.0067a5.6989 5.6989 0 0 0 3.0561-0.43145 5.2008 5.2008 0 0 0-2.9962-1.4022z"/>
  <path d="m99.033 106 0.9468 1.0067a5.699 5.699 0 0 0 3.0561-0.43146 5.201 5.201 0 0 0-2.9962-1.4022z"/>
 </g>
 <g stroke="#000" stroke-miterlimit="10" stroke-width=".25px">
  <circle cx="100.4" cy="98.758" r="1.8157" fill="#ffe6d5"/>
  <circle cx="100.45" cy="98.77" r=".88688" fill="#fca"/>
  <circle cx="100.49" cy="91.545" r="1.8157" fill="#ffe6d5"/>
  <circle cx="100.54" cy="91.557" r=".88688" fill="#fca"/>
  <circle cx="99.86" cy="105.97" r="1.8157" fill="#ffe6d5"/>
  <circle cx="99.908" cy="105.98" r=".88688" fill="#fca"/>
 </g>
 <path d="m140.64 36.475c0.1753-0.86167 0.59059-1.3767 1.5763-1.0678l6.4915 1.2203c1.1539 0.41326 0.98491 0.96338 0.86439 1.5085-0.43008 0.70438 0.3781 1.7497-2.9322 1.661 0.38453 2.4971-1.1028 4.4593-2.83 4.7099-1.066-1.0621-2.7107-2.755-1.0175-5.4726-2.6895-0.71225-2.5787-1.6245-2.1526-2.5593z" fill="none" stroke="#fca" stroke-width=".5"/>
 <circle cx="143.91" cy="44.971" r="1.8157" fill="#ffe6d5" stroke="#000" stroke-miterlimit="10" stroke-width=".25px"/>
 <circle cx="143.87" cy="44.983" r=".88688" fill="#fca" stroke="#000" stroke-miterlimit="10" stroke-width=".25px"/>
 <path d="m106.81 37.396c-0.34714-1.2432 0.33827-1.393 1.0547-1.5101l6.7115-1.1985c1.0965-0.17438 1.2877 0.38482 1.3423 1.0547 0.12921 0.90285 0.65046 1.8057-2.1093 2.7086 1.0606 2.4683 0.52827 3.9229-1.2225 4.6022-1.49-0.23857-3.1056-0.212-2.9243-3.979-1.5438 0.11458-2.7079-0.2023-2.8524-1.6778z" fill="none" stroke="#fca" stroke-width=".5"/>
 <g stroke="#000" stroke-miterlimit="10" stroke-width=".25px">
  <circle cx="112.8" cy="44.395" r="1.8157" fill="#ffe6d5"/>
  <circle cx="112.75" cy="44.407" r=".88688" fill="#fca"/>
  <ellipse cx="124.17" cy="58.881" rx="1.8496" ry="1.7818" fill="#ffe6d5"/>
  <circle cx="124.1" cy="58.881" r=".88688" fill="#fca"/>
 </g>
 <path d="m105.37 25.963a4.1111 4.1111 0 0 0 0.4794 4.0748l8.5332-1.582a8.2745 8.2745 0 0 0-0.50334-3.9071z" fill="none" stroke="#fca" stroke-width=".5"/>
 <path d="m151.3 26.337a4.1111 4.1111 0 0 1-0.47938 4.0748l-8.5332-1.582a8.2746 8.2746 0 0 1 0.50335-3.9071z" fill="none" stroke="#fca" stroke-width=".5"/>
</svg>
