<svg version="1.1" viewBox="0 0 521 521" xmlns="http://www.w3.org/2000/svg" xmlns:osb="http://www.openswatchbook.org/uri/2009/osb" xmlns:xlink="http://www.w3.org/1999/xlink">
 <defs>
  <linearGradient id="linearGradient967">
   <stop stop-color="#f55" offset="0"/>
   <stop stop-color="#ff8080" offset="1"/>
  </linearGradient>
  <linearGradient id="linearGradient959" x1="264.14" x2="265.82" y1="385.04" y2="114.12" gradientUnits="userSpaceOnUse">
   <stop stop-color="#ff8080" stop-opacity="0" offset="0"/>
   <stop stop-color="#f55" stop-opacity=".69231" offset=".80855"/>
   <stop stop-color="#ff8080" stop-opacity="0" offset="1"/>
  </linearGradient>
  <linearGradient id="linearGradient969" x1="192.81" x2="124.05" y1="339.54" y2="304.09" gradientUnits="userSpaceOnUse" xlink:href="#linearGradient967"/>
  <linearGradient id="linearGradient977" x1="283.27" x2="445.86" y1="393.36" y2="289.92" gradientUnits="userSpaceOnUse" xlink:href="#linearGradient967"/>
 </defs>
 <g stroke="#000">
  <path d="m387.66 371.5c1.5236 0.99532 1.6773 5.2129 0.68054 6.448-38.749 18.459-203.1 22.481-245.65 3.2898-1.7278-0.68515-1.8031-9.7932 0.0724-8.9597 101.41 1.0492 189.6-16.804 244.9-0.77808z" fill="#ffb380"/>
  <path d="m108.34 77.793c12.537 1.913 84.956-11.468 162.62-10.512 68.951-5.963 84.385 4.6016 122.32 5.3611 7.3417 34.529-9.8606 26.743-23.169 55.734-15.081 67.587 13.234 203.07 17.549 243.12-57.589 14.519-198.65 22.281-244.9 0.77808 0-3.6022 0.57919-9.8927 2.1666-25.706 10.033-54.868 36.835-159.8 16.317-219.52-24.776 5.8997-24.728-22.216-56.313-48.844 1.584-0.74492 1.9449 0.09154 3.4102-0.41725z" fill="#ff8080"/>
  <path d="m460.22 465.04c1.7767 0.79141 4.6509 10.004 1.2813 8.8695-24.52-3.2707-65.019 4.9466-71.204 2.2174-1.9782-0.94091-2.1908-8.2717-0.36578-8.3187 18.715-10.453 45.295-10.638 70.288-2.7682z" fill="#ffb380"/>
 </g>
 <g stroke="#000">
  <path d="m108.34 77.793c12.537 1.913 84.956-11.468 162.62-10.512 68.951-5.963 84.385 4.6016 122.32 5.3611 7.3417 34.529-9.8606 26.743-23.169 55.734-15.081 67.587 13.234 203.07 17.549 243.12-57.589 14.519-198.65 22.281-244.9 0.77808 0-3.6022 0.57919-9.8927 2.1666-25.706 10.033-54.868 36.835-159.8 16.317-219.52-24.776 5.8997-24.728-22.216-56.313-48.844 1.584-0.74492 1.9449 0.09154 3.4102-0.41725z" fill="url(#linearGradient959)" opacity=".692"/>
  <path d="m161.24 127.05c-2.8899 76.135-18.044 181.28-21.178 254.02-1.2911 66.586 6.3038 75.32 5.2405 89.902 0 0-24.658-0.59018-73.937-2.3404 7.7468-129.55 29.734-266.82 33.562-390.42 1.584-0.74492 1.9449 0.09154 3.4102-0.41725 22.391-4.7574 57.357-19.138 66.551-11.234" fill="url(#linearGradient969)"/>
  <path d="m367.41 63.604c4.442 3.352 49.721 5.2675 59.078 11.634 22.712 134.04 17.188 270.63 33.934 390.14-23.468-2.3899-63.74 2.5629-70.481 2.43 2.2387-113.99-0.31-234.07-19.827-339.43" fill="url(#linearGradient977)"/>
 </g>
 <path d="m145.3 470.97c1.1987 0.1746 1.7102 8.5146-0.12505 8.8763-7.693 1.5162-27.942-4.3156-74.331-3.4557-1.3355 0.25874-2.0026-5.8637 0.53225-7.745 20.38-1.8629 50.01 0.46426 73.924 2.3244z" fill="#ffb380" stroke="#000"/>
 <path d="m104.65 49.353c3.9725-1.7386 86.189-10.196 163.85-9.2396 68.951-5.963 119.4 9.3617 156.1 4.9047 4.2119 3.7816 10.785 31.755 2.1165 30.161-29.876 1.9822-89.449-8.7016-156.32-7.3084-75.874 1.5808-147.35 12.931-165.23 10.28-8.7512-3.1341-5.0236-26.891-0.50879-28.797z" fill="#ffb380" stroke="#000"/>
 <g fill="none" stroke="#000" stroke-miterlimit="8.1406">
  <path d="m370.08 129.9c2.7428-20.63 18.315-36.151 15.809-57.021" stroke-width="1.4246px"/>
  <path d="m161.56 128.27c-5.2656-24.007-12.936-30.737-12.183-52.35" stroke-width="1.4246px"/>
  <g stroke-width=".5">
   <path d="m82.709 468.15c-0.78445 2.3092-1.0684 6.0361-1.0176 8.2474"/>
   <path d="m135.62 470.91c0.39687 2.3944 0.49082 6.1099 0.2586 8.4318"/>
   <path d="m109.61 469.12-0.26458 7.6522"/>
   <path d="m95.347 468.57-1.1804 7.3672"/>
   <path d="m124.39 469.67c0.47032 2.5512 0.14392 5.9839-8e-3 8.4771"/>
   <path d="m399.62 467.15c-0.6833 2.4399-0.3132 6.865 0.0695 9.2555"/>
   <path d="m411.36 466.4c-0.39556 2.4971 0.11563 6.5133 0.2263 8.9346"/>
   <path d="m422.84 465.97 0.0695 8.2317"/>
   <path d="m435.24 464.85 0.27303 8.4521"/>
   <path d="m447.9 464.76c0.65326 2.2645 1.0382 6.1716 0.95779 8.433"/>
  </g>
  <g stroke-width="1.0176px">
   <path d="m390.65 45.669c2.1296 9.0526 1.8805 19.58 0.44524 28.451"/>
   <path d="m136.6 45.567c-2.4218 9.1989-2.1776 21.41-1.9334 30.731"/>
   <path d="m192.43 42.175c-1.44 9.4779-0.62259 21.435 0.41386 29.712"/>
   <path d="m245.46 40.561c-0.9567 9.0454-1.3964 19.572-1.2415 28.357"/>
   <path d="m290.76 39.014c1.3324 9.443 1.6711 18.856 1.2008 28.044"/>
   <path d="m344.78 40.927c0.084 8.9119-0.63241 21.065-2.2183 29.519"/>
  </g>
 </g>
 <g fill="#ff8080" stroke="#000" stroke-linecap="round" stroke-linejoin="round" stroke-miterlimit="8.1406" stroke-width=".5">
  <path d="m151.56 384.23 0.18796-8.5835"/>
  <path d="m164.53 387.6 0.18796-8.5835"/>
  <path d="m180.13 389.94 0.18796-8.2703"/>
  <path d="m195.9 391.85 0.18796-8.145"/>
  <path d="m212.65 393.09 0.18796-8.5835"/>
  <path d="m228.33 393.54 0.0994-7.9633"/>
  <path d="m245.61 393.62 0.18796-8.0519"/>
  <path d="m263.95 393.62 0.18796-8.5835"/>
  <path d="m283.27 393.36 0.18796-8.5835"/>
  <path d="m303.73 391.94 0.18796-8.5835"/>
  <path d="m323.23 390.35 0.18796-8.5835"/>
  <path d="m340.33 388.4 0.18796-8.5835"/>
  <path d="m357.43 386 0.18796-8.5835"/>
  <path d="m373.56 382.99 0.18796-8.5835"/>
 </g>
</svg>
