<svg data-name="Layer 1" version="1.1" viewBox="0 0 256 256" xmlns="http://www.w3.org/2000/svg" xmlns:xlink="http://www.w3.org/1999/xlink">
 <defs>
  <radialGradient id="innoGrad1" cx="-582.91" cy="2961.3" r="103.59" gradientTransform="matrix(-.1279 .30627 .57947 .242 -1696 -378.45)" gradientUnits="userSpaceOnUse">
   <stop stop-color="#f55" offset="0"/>
   <stop stop-color="#ff8080" offset="1"/>
  </radialGradient>
  <linearGradient id="innoGrad3" x1="367.15" x2="174.29" y1="82.86" y2="74.292" gradientTransform="matrix(.8597 0 0 -.85965 -102.93 157.8)" gradientUnits="userSpaceOnUse">
   <stop stop-color="#ff2a2a" offset="0"/>
   <stop stop-color="#f55" offset=".511"/>
   <stop stop-color="#ff2a2a" offset="1"/>
  </linearGradient>
  <radialGradient id="innoGrad2" cx="36.858" cy="932.91" r="26.732" gradientTransform="matrix(.675 .97674 .89306 -.61715 -683.54 694.99)" xlink:href="#innoGrad1"/>
 </defs>
 <g stroke="#000">
  <path d="m76.932 142.21-2.757 21.865c39.934-3.818 69.375-6.72 110.43-7.16l-17.342-15.411-48.437 3.536z" fill="#f55" stroke-width=".5px"/>
  <path d="M59.238,132.17l2.283-7.762c.56,14.546,3.894,26.008,7.45,39.7,12.685,1.053,22.75-2.928,34.855-6.935,8.704.181,16.726-3.187,23.255-6.935-3.848,7.053-3.44,16.471-3.672,23.72.538,9.208,1.692,20.842,4.53,27.947,4.483,14.998-1.927,16.424-2.84,25.789,2.87-5.242,4.853-9.15,6.12-14.22a53.41578,53.41578,0,0,1,1.807-6.703c3.568-13.356-8.458-43.275-3.06-51.929a3.67176,3.67176,0,0,0,1.487-2.623,46.882,46.882,0,0,0,4.981,1.212c1.707,4.338,1.578,8.865,1.2,13.098-.07,7.102,2.802,14.058,5.438,19.934,2.708,5.137,9.785,14.802,10.645,18.85-.4,4.566-5.068,3.7-7.227,5.538,5.558.813,8.114-2.043,9.109-6.895-.596-13.261-1.255-27.595-4.122-39.81-1.214-5.283-4.505-9.608-6.14-14.094l-2.968-.66c4.94,1.436,10.032,1.644,15.126,2.061a65.20722,65.20722,0,0,0,32.558,5.275c6.724-10.983,5.058-24.89,7.419-36.76l1.748,6.968c12.418-1.835,23.015-9.436,31.14-11.172-3.788-27.325-1.142-50.65-29.46-62.944-15.95-5.981-34.034-10.772-48.112-14.565-1.288,33.174-12.657,44.863-24.336,35.32-15.227,24.593-21.08-23.03-36.35-33.765-11.92,2.043-23.386,5.408-34.846,9.135-36.055,16.05-31.795,51.188-32.99,71.453,12.084,4.523,24.487,11.782,34.972,11.773Z" fill="url(#innoGrad1)" stroke-width=".5px"/>
  <path d="M123.983,45.41c-11.51.073-22.496-.097-31.611-5.338-.998,41.76,14.491,78.85,37.18,101.408l.989.577c3.609-.066,4.413-1.11,10.303-1.236,20.528-28.065,30.517-83.827,11.944-102.566-8.403,5.248-19.269,5.963-28.805,7.156Z" fill="url(#innoGrad3)" stroke-width=".75px"/>
 </g>
 <path d="M157.547,107.675,196,119.942c-.451,14.073-.765,26.766-6.285,36.278-4.28.236-14.724,2.213-32.626-5.513l-8.728-.81-5.826-9.324,5.79-8.928Z" fill="url(#innoGrad2)"/>
 <g fill="none" stroke="#000">
  <path d="m130.54 142.06c-1.902 4.011-0.998 7.177 0.913 10.162m8.937-11.192c-0.017 3.259 1.009 5.525 1.98 8.366-1.302 2-3.912 2.862-5.936 4.038a46.632 46.632 0 0 1-4.981-1.212m-1.865-4.079-2.507 2.098" stroke-width=".5px"/>
  <path d="M103.826,157.173l-10.142.35c-1.857-6.508-1.652-10.85-.291-17.368,14.06-3.08,23.211,1.708,37.148,1.902m9.849-1.03c12.438-2.947,8.524-6.466,27.957-11.013,5.735,5.863-.533,8.376,6.295,19.408-6.233,2.169-11.44,1.88-17.147,2.031" stroke-width=".25px"/>
  <path d="m197.47 119.97c5.292-9.939 5.273-10.22 6.895-21.892 0.595-16.36-0.363-31.463-3.468-45.256m-139.21 72.124-1.549-4.333c-7.323-26.492-5.286-45.811-2.881-71.666" stroke-width=".25px"/>
  <path d="m24.737 115.03c13.463 7.267 26.35 12.059 35.496 13.23m138.14-4.995c10.458-0.448 22.341-10.42 31.563-10.653" stroke-width=".5px"/>
 </g>
 <path d="m117.64 48.307 0.105 2.566a26.796 26.796 0 0 0 14.378-0.7l-0.474-2.591a24.845 24.845 0 0 1-14.01 0.725z" fill="#ffb380" stroke="#000" stroke-width=".5px"/>
 <path d="m93.684 157.52c-1.857-6.508-1.652-10.85-0.291-17.368 14.107-2.99 24.322 1.715 37.148 1.902-1.43 3.278-0.965 4.426-0.953 6.083l-2.507 2.098c-14.256 8.4-23.239 6.72-33.397 7.285zm51.653-7.471-2.968-0.66a20.366 20.366 0 0 1-1.978-8.365c12.469-2.92 9.167-6.845 27.956-11.013 5.735 5.863-0.533 8.376 6.295 19.408-10.706 3.124-18.989 2.21-29.305 0.63zm-145.34-150.05" fill="#ff8080" stroke="#000" stroke-width=".5px"/>
</svg>
