<?xml version="1.0" encoding="UTF-8" standalone="no"?>
<!-- Created with Inkscape (http://www.inkscape.org/) -->

<svg
   xmlns:dc="http://purl.org/dc/elements/1.1/"
   xmlns:cc="http://creativecommons.org/ns#"
   xmlns:rdf="http://www.w3.org/1999/02/22-rdf-syntax-ns#"
   xmlns:svg="http://www.w3.org/2000/svg"
   xmlns="http://www.w3.org/2000/svg"
   xmlns:xlink="http://www.w3.org/1999/xlink"
   xmlns:sodipodi="http://sodipodi.sourceforge.net/DTD/sodipodi-0.dtd"
   xmlns:inkscape="http://www.inkscape.org/namespaces/inkscape"
   viewBox="0 0 256 256"
   id="svg4164"
   version="1.1"
   inkscape:version="0.91 r13725"
   sodipodi:docname="chest_fullcup_bra.svg">
  <style
     id="style3">
    svg { cursor: default;}
  </style>
  <defs
     id="defs4166">
    <linearGradient
       inkscape:collect="always"
       id="linearGradient2">
      <stop
         style="stop-color:#ff5555;stop-opacity:1"
         offset="0"
         id="stop4815" />
      <stop
         style="stop-color:#ff8080;stop-opacity:1"
         offset="1"
         id="stop4817" />
    </linearGradient>
    <linearGradient
       inkscape:collect="always"
       id="linearGradient0">
      <stop
         style="stop-color:#ff5555;stop-opacity:1"
         offset="0"
         id="stop4807" />
      <stop
         style="stop-color:#ff8080;stop-opacity:1"
         offset="1"
         id="stop4809" />
    </linearGradient>
    <marker
       inkscape:stockid="Arrow1Lstart"
       orient="auto"
       refY="0.0"
       refX="0.0"
       id="Arrow1Lstart"
       style="overflow:visible"
       inkscape:isstock="true">
      <path
         id="path4233"
         d="M 0.0,0.0 L 5.0,-5.0 L -12.5,0.0 L 5.0,5.0 L 0.0,0.0 z "
         style="fill-rule:evenodd;stroke:#000000;stroke-width:1pt;stroke-opacity:1;fill:#000000;fill-opacity:1"
         transform="scale(0.8) translate(12.5,0)" />
    </marker>
    <linearGradient
       inkscape:collect="always"
       xlink:href="#linearGradient0"
       id="linearGradient1"
       x1="73.928574"
       y1="1028.0764"
       x2="80.714287"
       y2="939.86218"
       gradientUnits="userSpaceOnUse" />
    <linearGradient
       inkscape:collect="always"
       xlink:href="#linearGradient2"
       id="linearGradient3"
       x1="204.28571"
       y1="1030.5765"
       x2="193.57143"
       y2="952.00507"
       gradientUnits="userSpaceOnUse" />
  </defs>
  <sodipodi:namedview
     id="base"
     pagecolor="#ffffff"
     bordercolor="#666666"
     borderopacity="1.0"
     inkscape:pageopacity="0.0"
     inkscape:pageshadow="2"
     inkscape:zoom="0.9899495"
     inkscape:cx="253.132"
     inkscape:cy="231.64129"
     inkscape:document-units="px"
     inkscape:current-layer="layer1"
     showgrid="false"
     units="px"
     inkscape:window-width="2560"
     inkscape:window-height="1388"
     inkscape:window-x="-8"
     inkscape:window-y="-8"
     inkscape:window-maximized="1" />
  <metadata
     id="metadata4169">
    <rdf:RDF>
      <cc:Work
         rdf:about="">
        <dc:format>image/svg+xml</dc:format>
        <dc:type
           rdf:resource="http://purl.org/dc/dcmitype/StillImage" />
        <dc:title></dc:title>
      </cc:Work>
    </rdf:RDF>
  </metadata>
  <g
     inkscape:label="Layer 1"
     inkscape:groupmode="layer"
     id="layer1"
     transform="translate(0,-796.36219)">
    <g
       id="g4821"
       transform="matrix(0.9405,0,0,0.9405,-5.1242175,60.477038)">
      <path
         inkscape:connector-curvature="0"
         id="path4674-0"
         d="m 203.02828,832.55069 a 6.4198618,4.01785 0 0 0 -6.41988,4.0167 6.4198618,4.01785 0 0 0 6.41988,4.01865 6.4198618,4.01785 0 0 0 6.41988,-4.01865 6.4198618,4.01785 0 0 0 -6.41988,-4.0167 z m -0.23192,1.3901 a 4.5649719,2.6850987 0 0 1 4.56455,2.68493 4.5649719,2.6850987 0 0 1 -4.56455,2.68493 4.5649719,2.6850987 0 0 1 -4.56455,-2.68493 4.5649719,2.6850987 0 0 1 4.56455,-2.68493 z"
         style="fill:#cccccc;fill-opacity:1;stroke:#000000;stroke-width:1.04551888;stroke-miterlimit:4;stroke-dasharray:none;stroke-dashoffset:0" />
      <path
         sodipodi:nodetypes="scscsccccc"
         inkscape:connector-curvature="0"
         id="path4674-6-5"
         d="m 203.02115,903.39492 c -3.5941,-0.32541 -6.15809,0.43251 -6.27824,1.74808 -0.11987,1.31605 2.25149,2.69162 5.84681,3.01713 3.59533,0.32551 6.42777,-0.34376 6.54621,-1.65994 0.11812,-1.31576 -2.52069,-2.77988 -6.11478,-3.10527 z m -0.2813,0.9925 c 2.55588,0.23149 4.53473,0.94248 4.45529,1.82183 -0.0798,0.87932 -2.0969,1.09507 -4.65279,0.86375 -2.55587,-0.23149 -4.00356,-0.76093 -3.92411,-1.64028 0.0798,-0.87932 1.56573,-1.27662 4.12161,-1.0453 z"
         style="fill:#cccccc;fill-opacity:1;stroke:#000000;stroke-width:0.81402385;stroke-miterlimit:4;stroke-dasharray:none;stroke-dashoffset:0" />
      <path
         sodipodi:nodetypes="scscsccccc"
         inkscape:connector-curvature="0"
         id="path4674-6"
         d="m 88.16183,909.86742 c -3.608796,-1e-5 -6.534598,1.07072 -6.535632,2.39177 -7.18e-4,1.3215 2.925597,2.39293 6.535632,2.39293 3.610034,0 6.536354,-1.07143 6.535634,-2.39293 -10e-4,-1.32105 -2.92684,-2.39178 -6.535634,-2.39177 z m -0.190657,1.01382 c 2.566341,8e-5 4.601241,0.52975 4.601411,1.41268 -1.7e-4,0.88293 -1.98962,1.27968 -4.555956,1.27977 -2.56634,-9e-5 -4.055865,-0.39684 -4.056026,-1.27977 1.61e-4,-0.88293 1.444241,-1.4126 4.010571,-1.41268 z"
         style="fill:#cccccc;fill-opacity:1;stroke:#000000;stroke-width:0.81402385;stroke-miterlimit:4;stroke-dasharray:none;stroke-dashoffset:0" />
      <path
         inkscape:connector-curvature="0"
         id="path4674"
         d="m 83.205636,836.74728 a 6.4198618,4.01785 0 0 0 -6.419881,4.0167 6.4198618,4.01785 0 0 0 6.419881,4.01865 6.4198618,4.01785 0 0 0 6.419882,-4.01865 6.4198618,4.01785 0 0 0 -6.419882,-4.0167 z m -0.231917,1.3901 a 4.5649719,2.6850987 0 0 1 4.564547,2.68493 4.5649719,2.6850987 0 0 1 -4.564547,2.68493 4.5649719,2.6850987 0 0 1 -4.564546,-2.68493 4.5649719,2.6850987 0 0 1 4.564546,-2.68493 z"
         style="fill:#cccccc;fill-opacity:1;stroke:#000000;stroke-width:1.04551888;stroke-miterlimit:4;stroke-dasharray:none;stroke-dashoffset:0" />
      <path
         sodipodi:nodetypes="ccccc"
         inkscape:connector-curvature="0"
         id="path4648"
         d="m 7.576144,963.21623 c 4.735738,-0.77627 11.353819,-2.25842 21.465741,-5.05076 l 31.819805,70.71063 c -5.872662,3.0903 -31.817964,1.5927 -48.234783,2.2729 -2.280484,-22.7935 -4.1136332,-45.47513 -5.050763,-67.93277 z"
         style="fill:#ff8080;fill-rule:evenodd;stroke:#000000;stroke-width:1px;stroke-linecap:butt;stroke-linejoin:miter;stroke-opacity:1" />
      <path
         sodipodi:nodetypes="ccccc"
         inkscape:connector-curvature="0"
         id="path4650"
         d="m 115.15739,1013.7239 c 1.63057,-0.8681 49.72577,2.1383 49.75001,2.7779 l -17.93021,-29.54699 c -3.27615,1.92268 -9.40689,-0.88106 -15.78363,-1.57836 z"
         style="fill:#ff8080;fill-rule:evenodd;stroke:#000000;stroke-width:1px;stroke-linecap:butt;stroke-linejoin:miter;stroke-opacity:1" />
      <path
         sodipodi:nodetypes="ccccc"
         inkscape:connector-curvature="0"
         id="path4656"
         d="m 256.83128,963.21623 c 5.15728,1.5635 10.95161,3.0633 19.44544,4.29314 -4.33459,19.4995 -6.69658,39.76993 -6.06092,64.90233 -16.90354,0.7883 -33.49429,4.5479 -51.0127,-0.5051 11.5517,-23.3923 22.81995,-46.92633 37.62818,-68.69037 z"
         style="fill:#ff8080;fill-rule:evenodd;stroke:#000000;stroke-width:1px;stroke-linecap:butt;stroke-linejoin:miter;stroke-opacity:1" />
      <path
         sodipodi:nodetypes="ccccc"
         inkscape:connector-curvature="0"
         id="path4666"
         d="m 79.196428,840.3979 8.482142,-0.71428 c -1.92571,-18.47167 -2.868949,-23.86314 -4.821428,-35.53571 l -6.785714,0 z"
         style="fill:#ff5555;fill-rule:evenodd;stroke:#000000;stroke-width:1px;stroke-linecap:butt;stroke-linejoin:miter;stroke-opacity:1" />
      <path
         inkscape:connector-curvature="0"
         id="path4722-8"
         d="m 78.839285,831.82647 7.678571,-0.53571"
         style="fill:none;fill-rule:evenodd;stroke:#000000;stroke-width:0.5;stroke-linecap:butt;stroke-linejoin:miter;stroke-miterlimit:4;stroke-dasharray:none;stroke-opacity:1" />
      <path
         sodipodi:nodetypes="ccccc"
         inkscape:connector-curvature="0"
         id="path4658"
         d="m 64.649762,908.16292 c 3.030458,-34.68191 2.365862,-68.6248 9.091373,-104.04572 l 8.838835,-0.25253 c -4.285007,32.35746 -7.318172,66.48836 -7.576144,104.55078 z"
         style="fill:#ff8080;fill-rule:evenodd;stroke:#000000;stroke-width:1px;stroke-linecap:butt;stroke-linejoin:miter;stroke-opacity:1" />
      <path
         sodipodi:nodetypes="scscsccccc"
         inkscape:connector-curvature="0"
         id="path4674-6-3"
         d="m 88.080356,913.76449 c -3.608796,-10e-6 -6.534598,1.07072 -6.535632,2.39177 -7.18e-4,1.3215 2.925597,2.39293 6.535632,2.39293 3.610034,0 6.536354,-1.07143 6.535634,-2.39293 -10e-4,-1.32105 -2.92684,-2.39178 -6.535634,-2.39177 z m -0.190657,1.01382 c 2.566341,8e-5 4.601241,0.52975 4.601411,1.41268 -1.7e-4,0.88293 -1.98962,1.27968 -4.555956,1.27977 -2.56634,-9e-5 -4.055865,-0.39684 -4.056026,-1.27977 1.61e-4,-0.88293 1.444241,-1.4126 4.010571,-1.41268 z"
         style="fill:#cccccc;fill-opacity:1;stroke:#000000;stroke-width:0.81402385;stroke-miterlimit:4;stroke-dasharray:none;stroke-dashoffset:0" />
      <path
         sodipodi:nodetypes="ccccc"
         inkscape:connector-curvature="0"
         id="path4662"
         d="m 83.571428,926.46933 0.580357,-11.25 7.589286,10e-6 0.04464,15.89285 z"
         style="fill:#ff5555;fill-rule:evenodd;stroke:#000000;stroke-width:1px;stroke-linecap:butt;stroke-linejoin:miter;stroke-opacity:1" />
      <path
         sodipodi:nodetypes="ccccc"
         inkscape:connector-curvature="0"
         id="path4664"
         d="m 84.151785,914.10327 7.8125,0.22321 c -1.196076,-24.32353 -2.558691,-48.59155 -4.464286,-72.67857 l -8.392857,0.71428 c 2.157444,23.16629 3.820192,47.40855 5.044643,71.74108 z"
         style="fill:#ff5555;fill-rule:evenodd;stroke:#000000;stroke-width:1px;stroke-linecap:butt;stroke-linejoin:miter;stroke-opacity:1" />
      <path
         sodipodi:nodetypes="ccccc"
         inkscape:connector-curvature="0"
         id="path4668"
         d="m 198.60578,835.1887 c 1.42858,0.35714 10.67993,-0.50508 10.67993,-0.50508 l -1.60714,-26.25 -8.86358,-0.27421 c 0.90493,8.50139 0.22912,17.85627 -0.20921,27.02929 z"
         style="fill:#ff5555;fill-rule:evenodd;stroke:#000000;stroke-width:1px;stroke-linecap:butt;stroke-linejoin:miter;stroke-opacity:1" />
      <path
         inkscape:connector-curvature="0"
         id="path4722-7"
         d="m 199.16061,826.73611 7.68028,0.51065"
         style="fill:none;fill-rule:evenodd;stroke:#000000;stroke-width:0.5;stroke-linecap:butt;stroke-linejoin:miter;stroke-miterlimit:4;stroke-dasharray:none;stroke-opacity:1" />
      <path
         sodipodi:nodetypes="ccccc"
         inkscape:connector-curvature="0"
         id="path4670"
         d="m 198.8871,837.69767 9.14861,-0.33548 c 0.001,22.86591 -1.46657,46.19511 -1.69643,69.95536 l -7.14285,-0.625 c 1.55567,-27.61886 0.44822,-48.64614 -0.30933,-68.99488 z"
         style="fill:#ff5555;fill-rule:evenodd;stroke:#000000;stroke-width:1px;stroke-linecap:butt;stroke-linejoin:miter;stroke-opacity:1" />
      <path
         sodipodi:nodetypes="scscsccccc"
         inkscape:connector-curvature="0"
         id="path4674-6-3-6"
         d="m 202.58862,907.26877 c -3.5941,-0.32541 -5.89024,0.65572 -6.01039,1.97129 -0.11986,1.31605 1.98363,2.46841 5.57896,2.79392 3.59532,0.32551 6.29383,-0.29912 6.41227,-1.6153 0.11813,-1.31576 -2.38675,-2.82452 -5.98084,-3.14991 z m -0.2813,0.9925 c 2.55588,0.23148 4.53473,0.94248 4.45529,1.82183 -0.0798,0.87932 -2.0969,1.09507 -4.6528,0.86375 -2.55588,-0.23149 -4.00355,-0.76093 -3.9241,-1.64028 0.0798,-0.87932 1.56573,-1.27662 4.12161,-1.0453 z"
         style="fill:#cccccc;fill-opacity:1;stroke:#000000;stroke-width:0.81402385;stroke-miterlimit:4;stroke-dasharray:none;stroke-dashoffset:0" />
      <path
         sodipodi:nodetypes="ccccc"
         inkscape:connector-curvature="0"
         id="path4672"
         d="m 198.21428,935.75505 c 0.2519,-9.16149 0.80735,-17.24279 0.84822,-28.30357 l 7.36607,0.625 c -0.18308,9.40927 0.28272,18.16965 0.53571,27.14285 z"
         style="fill:#ff5555;fill-rule:evenodd;stroke:#000000;stroke-width:1px;stroke-linecap:butt;stroke-linejoin:miter;stroke-opacity:1" />
      <path
         inkscape:connector-curvature="0"
         id="path4722-3"
         d="m 199.19919,896.18534 7.6956,0.15884"
         style="fill:none;fill-rule:evenodd;stroke:#000000;stroke-width:0.5;stroke-linecap:butt;stroke-linejoin:miter;stroke-miterlimit:4;stroke-dasharray:none;stroke-opacity:1" />
      <path
         sodipodi:nodetypes="ccccc"
         inkscape:connector-curvature="0"
         id="path4660"
         d="m 215.92011,915.48652 8.9651,-0.25253 c -1.56529,-36.43109 -8.21176,-72.34963 -15.5311,-108.33887 l -10.35406,1.26269 c 6.22575,33.06835 15.70788,71.03168 16.92006,107.32871 z"
         style="fill:#ff8080;fill-rule:evenodd;stroke:#000000;stroke-width:1px;stroke-linecap:butt;stroke-linejoin:miter;stroke-opacity:1" />
      <path
         sodipodi:nodetypes="ccsccsc"
         inkscape:connector-curvature="0"
         id="path4644"
         d="m 28.158002,956.77651 c -1.35424,113.02819 107.203958,80.46819 105.687208,25.88515 3.4855,-17.75853 -2.02789,-27.87715 -10.85914,-35.1028 C 102.99125,931.19926 86.627375,930.387 75.003826,907.91038 l -10.354064,0.50507 c -7.955448,10.46944 -14.087787,17.02311 -20.697156,25.92212 -4.551671,6.12848 -6.504774,14.69695 -15.794604,22.43894 z"
         style="fill:url(#linearGradient1);fill-opacity:1;fill-rule:evenodd;stroke:#000000;stroke-width:1px;stroke-linecap:butt;stroke-linejoin:miter;stroke-opacity:1" />
      <path
         sodipodi:nodetypes="ccsccc"
         inkscape:connector-curvature="0"
         id="path4646"
         d="m 133.84521,982.66166 c 2.21995,-0.18428 3.92414,1.28183 5.3033,3.78807 -2.67694,13.80647 -13.97987,34.45737 -34.86468,43.44397 -30.747362,13.2303 -73.629728,4.1894 -81.30286,-69.20285 1.200577,-3.95235 6.313454,-4.79823 6.313454,-4.79823 3.798363,84.40338 78.059336,101.89428 104.550786,26.76904 z"
         style="fill:#ffaaaa;fill-rule:evenodd;stroke:#000000;stroke-width:1px;stroke-linecap:butt;stroke-linejoin:miter;stroke-opacity:1" />
      <path
         sodipodi:nodetypes="cccccsc"
         inkscape:connector-curvature="0"
         id="path4654"
         d="m 147.43631,981.75611 c -4.23424,-23.17131 16.64032,-31.32871 33.69635,-40.73408 14.46761,-7.85033 29.07358,-10.26858 35.03999,-25.91432 0,0 6.06849,-2.23724 8.58629,-0.88388 5.33596,13.60583 24.36952,30.11164 28.78935,46.71956 5.41714,34.25558 -23.80663,69.57051 -54.71054,70.56761 -19.64396,0.6337 -40.87135,-11.8004 -51.40144,-49.75489 z"
         style="fill:url(#linearGradient3);fill-opacity:1;fill-rule:evenodd;stroke:#000000;stroke-width:1px;stroke-linecap:butt;stroke-linejoin:miter;stroke-opacity:1" />
      <path
         sodipodi:nodetypes="ccccssc"
         inkscape:connector-curvature="0"
         id="path4652"
         d="m 142.93659,987.8387 c 0.93167,-3.53722 3.60254,-4.46363 5.30329,-5.17704 33.35205,100.96604 114.1208,19.10824 104.49215,-22.16734 2.15359,-0.41898 3.93323,1.03174 5.61448,2.97445 2.02822,12.02976 -1.02153,24.23373 -8.83605,40.88523 -14.76202,31.4555 -60.15629,46.8885 -90.91588,14.9588 -6.95617,-7.2208 -9.69837,-18.4175 -15.65799,-31.4741 z"
         style="fill:#ffaaaa;fill-rule:evenodd;stroke:#000000;stroke-width:1px;stroke-linecap:butt;stroke-linejoin:miter;stroke-opacity:1" />
      <path
         inkscape:connector-curvature="0"
         id="path4722"
         d="m 83.705357,903.03183 7.678571,-0.53571"
         style="fill:none;fill-rule:evenodd;stroke:#000000;stroke-width:0.5;stroke-linecap:butt;stroke-linejoin:miter;stroke-miterlimit:4;stroke-dasharray:none;stroke-opacity:1" />
    </g>
  </g>
</svg>
