<?xml version="1.0" encoding="UTF-8" standalone="no"?>
<!-- Created with Inkscape (http://www.inkscape.org/) -->

<svg
   xmlns:dc="http://purl.org/dc/elements/1.1/"
   xmlns:cc="http://creativecommons.org/ns#"
   xmlns:rdf="http://www.w3.org/1999/02/22-rdf-syntax-ns#"
   xmlns:svg="http://www.w3.org/2000/svg"
   xmlns="http://www.w3.org/2000/svg"
   xmlns:xlink="http://www.w3.org/1999/xlink"
   xmlns:sodipodi="http://sodipodi.sourceforge.net/DTD/sodipodi-0.dtd"
   xmlns:inkscape="http://www.inkscape.org/namespaces/inkscape"
   viewBox="0 0 256 256"
   id="svg4164"
   version="1.1"
   inkscape:version="0.91 r13725"
   sodipodi:docname="chest_tapecrosses.svg">
  <style
     id="style3">
    svg { cursor: default;}
  </style>
  <defs
     id="defs4166">
    <inkscape:path-effect
       effect="powerstroke"
       id="path-effect4255"
       is_visible="true"
       offset_points="0.088828796,0.43890749"
       sort_points="true"
       interpolator_type="Linear"
       interpolator_beta="0.2"
       start_linecap_type="zerowidth"
       linejoin_type="round"
       miter_limit="4"
       end_linecap_type="zerowidth"
       cusp_linecap_type="round" />
    <inkscape:path-effect
       effect="powerstroke"
       id="path-effect4203"
       is_visible="true"
       offset_points="0.81276062,-1.286815"
       sort_points="true"
       interpolator_type="Linear"
       interpolator_beta="0.2"
       start_linecap_type="zerowidth"
       linejoin_type="round"
       miter_limit="4"
       end_linecap_type="zerowidth"
       cusp_linecap_type="round" />
    <inkscape:path-effect
       effect="powerstroke"
       id="path-effect4199"
       is_visible="true"
       offset_points="0.28308433,1.1604326"
       sort_points="true"
       interpolator_type="Linear"
       interpolator_beta="0.2"
       start_linecap_type="zerowidth"
       linejoin_type="round"
       miter_limit="4"
       end_linecap_type="zerowidth"
       cusp_linecap_type="round" />
    <linearGradient
       inkscape:collect="always"
       id="linearGradient2">
      <stop
         style="stop-color:#ff5555;stop-opacity:1"
         offset="0"
         id="stop4191" />
      <stop
         style="stop-color:#ff8080;stop-opacity:1"
         offset="1"
         id="stop4193" />
    </linearGradient>
    <linearGradient
       inkscape:collect="always"
       id="linearGradient0">
      <stop
         style="stop-color:#ff5555;stop-opacity:1;"
         offset="0"
         id="stop4183" />
      <stop
         style="stop-color:#ff8080;stop-opacity:1"
         offset="1"
         id="stop4185" />
    </linearGradient>
    <marker
       inkscape:stockid="Arrow1Lstart"
       orient="auto"
       refY="0.0"
       refX="0.0"
       id="Arrow1Lstart"
       style="overflow:visible"
       inkscape:isstock="true">
      <path
         id="path4233"
         d="M 0.0,0.0 L 5.0,-5.0 L -12.5,0.0 L 5.0,5.0 L 0.0,0.0 z "
         style="fill-rule:evenodd;stroke:#000000;stroke-width:1pt;stroke-opacity:1;fill:#000000;fill-opacity:1"
         transform="scale(0.8) translate(12.5,0)" />
    </marker>
    <linearGradient
       inkscape:collect="always"
       xlink:href="#linearGradient0"
       id="linearGradient1"
       x1="55"
       y1="959.86218"
       x2="85.535713"
       y2="892.00507"
       gradientUnits="userSpaceOnUse"
       gradientTransform="translate(-2.8571428,4.9999999)" />
    <linearGradient
       inkscape:collect="always"
       xlink:href="#linearGradient2"
       id="linearGradient3"
       x1="92.85714"
       y1="947.71936"
       x2="105.89285"
       y2="903.43359"
       gradientUnits="userSpaceOnUse"
       gradientTransform="translate(-2.8571428,4.9999999)" />
    <inkscape:path-effect
       effect="powerstroke"
       id="path-effect4203-4"
       is_visible="true"
       offset_points="0.45408377,-1.0519386"
       sort_points="true"
       interpolator_type="Linear"
       interpolator_beta="0.2"
       start_linecap_type="zerowidth"
       linejoin_type="round"
       miter_limit="4"
       end_linecap_type="zerowidth"
       cusp_linecap_type="round" />
    <inkscape:path-effect
       effect="powerstroke"
       id="path-effect4199-7"
       is_visible="true"
       offset_points="0.74337084,0.96438433"
       sort_points="true"
       interpolator_type="Linear"
       interpolator_beta="0.2"
       start_linecap_type="zerowidth"
       linejoin_type="round"
       miter_limit="4"
       end_linecap_type="zerowidth"
       cusp_linecap_type="round" />
    <linearGradient
       gradientTransform="matrix(-0.1992977,1.084337,-1.084337,-0.1992977,1212.5145,1040.9588)"
       inkscape:collect="always"
       xlink:href="#linearGradient2"
       id="linearGradient3-1"
       x1="97.638"
       y1="942.12006"
       x2="44.904579"
       y2="899.57336"
       gradientUnits="userSpaceOnUse" />
    <linearGradient
       gradientTransform="matrix(-0.1992977,1.084337,-1.084337,-0.1992977,1212.5145,1040.9588)"
       inkscape:collect="always"
       xlink:href="#linearGradient2"
       id="linearGradient1-7"
       x1="93.245193"
       y1="930.86377"
       x2="58.367283"
       y2="900.26666"
       gradientUnits="userSpaceOnUse" />
  </defs>
  <sodipodi:namedview
     id="base"
     pagecolor="#ffffff"
     bordercolor="#666666"
     borderopacity="1.0"
     inkscape:pageopacity="0.0"
     inkscape:pageshadow="2"
     inkscape:zoom="2.8"
     inkscape:cx="177.49864"
     inkscape:cy="157.26951"
     inkscape:document-units="px"
     inkscape:current-layer="layer1"
     showgrid="false"
     units="px"
     inkscape:window-width="2560"
     inkscape:window-height="1388"
     inkscape:window-x="-8"
     inkscape:window-y="-8"
     inkscape:window-maximized="1" />
  <metadata
     id="metadata4169">
    <rdf:RDF>
      <cc:Work
         rdf:about="">
        <dc:format>image/svg+xml</dc:format>
        <dc:type
           rdf:resource="http://purl.org/dc/dcmitype/StillImage" />
        <dc:title />
      </cc:Work>
    </rdf:RDF>
  </metadata>
  <g
     inkscape:label="Layer 1"
     inkscape:groupmode="layer"
     id="layer1"
     transform="translate(0,-796.36219)">
    <g
       id="g4264"
       transform="matrix(1.1025,0,0,1.1025,-15.473081,-93.749515)">
      <path
         sodipodi:nodetypes="cccccccccccccccc"
         inkscape:connector-curvature="0"
         id="path4177"
         d="m 29.467738,955.33678 2.343819,2.69353 4.18741,2.09762 3.243637,3.91784 5.548381,1.73813 4.887146,3.30267 5.093156,1.75681 4.256103,4.10472 c 10.343615,-33.76346 32.743146,-56.68505 47.21194,-73.90701 l -3.12229,-2.08182 -3.790863,-1.32212 -4.734518,-3.01934 -5.044683,-1.7958 -3.872821,-2.45064 -4.309831,-1.57838 c -18.598367,14.41198 -35.553532,35.71552 -51.896586,66.54379 z"
         style="fill:url(#linearGradient1);fill-opacity:1;fill-rule:evenodd;stroke:#000000;stroke-width:1px;stroke-linecap:butt;stroke-linejoin:miter;stroke-opacity:1" />
      <path
         sodipodi:nodetypes="ccccccccccccccc"
         inkscape:connector-curvature="0"
         id="path4179"
         d="m 25.805935,913.92053 c 27.563022,13.35579 57.157798,37.20729 75.635175,54.67451 l 1.83738,-4.90845 3.54447,-3.67041 1.6954,-5.28726 3.63816,-3.70668 1.39828,-3.80775 2.28098,-2.86312 C 93.173901,921.33342 67.26399,905.05708 42.978528,893.97002 l -4.128132,3.56561 -3.441367,4.33551 -3.678811,3.69487 -1.769221,3.1019 -2.840164,2.62638 z"
         style="fill:url(#linearGradient3);fill-opacity:1;fill-rule:evenodd;stroke:#000000;stroke-width:1px;stroke-linecap:butt;stroke-linejoin:miter;stroke-opacity:1" />
      <path
         sodipodi:nodetypes="cc"
         inkscape:connector-curvature="0"
         inkscape:original-d="M 113.83929,944.77291 C 94.880804,926.76534 77.937468,914.74775 60.80357,904.59433"
         inkscape:path-effect="#path-effect4199"
         id="path4197"
         d="m 113.83929,944.77291 c -5.10025,-5.3779 -10.05767,-10.29361 -14.924656,-14.83918 -13.198888,-10.46071 -25.634156,-18.39517 -38.111064,-25.3394 12.091339,7.61505 24.025051,16.15315 36.628124,27.1247 5.321036,3.91701 10.773946,8.23633 16.407596,13.05388 z"
         style="fill:#ffffff;fill-rule:evenodd;stroke:none;stroke-width:1px;stroke-linecap:butt;stroke-linejoin:miter;stroke-opacity:1" />
      <path
         inkscape:connector-curvature="0"
         inkscape:original-d="m 80.714285,891.82648 c 3.6323,1.9267 26.570615,8.00827 18.214282,14.375"
         inkscape:path-effect="#path-effect4203"
         id="path4201"
         d="m 80.714285,891.82648 c 0.47654,0.17939 1.265128,0.42603 2.238364,0.72464 0.978761,0.30031 2.163645,0.65906 3.452997,1.06794 2.570626,0.81519 5.597732,1.84236 8.263895,3.02103 2.590838,1.14537 5.118216,2.54888 6.426479,4.22582 0.34638,0.44399 0.63598,0.94077 0.81303,1.49172 0.006,0.60014 -0.12108,1.15748 -0.37461,1.65561 -0.49531,0.97315 -1.42886,1.63933 -2.605873,2.18824 0.897623,-1.05491 1.104093,-1.94723 0.925165,-2.54495 -0.08463,-0.28273 -0.249017,-0.48609 -0.436401,-0.65303 -0.0222,-0.21865 -0.104289,-0.4809 -0.27594,-0.78868 -0.730717,-1.31023 -2.648617,-2.74925 -5.176604,-4.15697 -2.475302,-1.37838 -5.346782,-2.63083 -7.834929,-3.69675 -1.239806,-0.53114 -2.38068,-1.01446 -3.31743,-1.43983 -0.936579,-0.4253 -1.673837,-0.79484 -2.098143,-1.09479 z"
         style="fill:#ffffff;fill-rule:evenodd;stroke:none;stroke-width:1px;stroke-linecap:butt;stroke-linejoin:miter;stroke-opacity:1" />
    </g>
    <path
       style="fill:url(#linearGradient1-7);fill-opacity:1;fill-rule:evenodd;stroke:#000000;stroke-width:1.10249996px;stroke-linecap:butt;stroke-linejoin:miter;stroke-opacity:1"
       d="m 175.58677,886.60991 -3.38781,2.00467 -3.10906,4.12251 -4.89472,2.7364 -2.99049,5.6699 -4.55521,4.64109 -2.92003,5.17257 -5.29912,3.79698 c 34.5495,17.94495 54.94005,46.80182 70.73086,65.92316 l 2.87967,-2.97071 2.18913,-3.84707 4.21755,-4.53208 2.95265,-5.11223 3.42917,-3.71103 2.57044,-4.35875 c -11.92083,-23.03916 -31.64192,-45.67003 -61.81303,-69.53541 z"
       id="path4177-6"
       inkscape:connector-curvature="0"
       sodipodi:nodetypes="cccccccccccccccc" />
    <path
       style="fill:url(#linearGradient3-1);fill-opacity:1;fill-rule:evenodd;stroke:#000000;stroke-width:1.10249996px;stroke-linecap:butt;stroke-linejoin:miter;stroke-opacity:1"
       d="m 221.22573,890.89345 c -19.97542,27.22583 -51.73666,54.56299 -74.35951,71.11751 l 4.95624,2.97058 3.27355,4.5749 5.39528,2.89212 3.29422,4.68373 3.8502,2.27509 2.65,3.04395 c 29.47567,-19.98569 52.28849,-44.83693 69.15065,-68.96092 l -3.04361,-5.1869 -4.01529,-4.59566 -3.2733,-4.72545 -3.01091,-2.53663 -2.28184,-3.60312 z"
       id="path4179-0"
       inkscape:connector-curvature="0"
       sodipodi:nodetypes="ccccccccccccccc" />
    <path
       style="fill:#ffffff;fill-rule:evenodd;stroke:none;stroke-width:1px;stroke-linecap:butt;stroke-linejoin:miter;stroke-opacity:1"
       d="m 234.99085,916.86379 c 0.72795,-6.78791 -3.39459,-12.90641 -8.53361,-17.55689 -2.03272,-1.25737 -4.12599,-2.29535 -6.10872,-3.09929 1.65828,1.35876 3.34045,2.9014 4.88371,4.59116 5.21686,3.88758 9.83612,9.38403 9.75862,16.06502 z"
       id="path4197-8"
       inkscape:path-effect="#path-effect4199-7"
       inkscape:original-d="m 234.99085,916.86379 c 0.53706,-9.05884 -7.54541,-16.44222 -14.64233,-20.65618"
       inkscape:connector-curvature="0"
       sodipodi:nodetypes="cc" />
    <path
       style="fill:#ffffff;fill-rule:evenodd;stroke:none;stroke-width:1px;stroke-linecap:butt;stroke-linejoin:miter;stroke-opacity:1"
       d="m 169.82595,895.36151 c 1.56025,-1.75487 3.62748,-2.58865 6.13665,-2.53211 2.02641,0.0457 4.25855,0.67173 6.60835,1.74526 0.49786,0.29871 0.9987,0.61846 1.50183,0.95751 5.42962,3.65882 11.3716,9.73562 16.94554,16.47346 -6.09707,-6.36007 -12.38857,-11.84085 -17.94342,-14.82505 -0.50609,-0.27189 -1.00413,-0.52194 -1.49335,-0.74921 -2.03604,-1.26337 -3.96162,-2.11273 -5.7352,-2.4495 -2.15088,-0.40843 -4.20338,-0.0859 -6.0204,1.37964 z"
       id="path4201-6"
       inkscape:path-effect="#path-effect4203-4"
       inkscape:original-d="m 169.82595,895.36151 c 6.74784,-6.43136 19.51575,3.53629 31.19237,16.64412"
       inkscape:connector-curvature="0"
       sodipodi:nodetypes="cc" />
    <path
       style="fill:#ffffff;fill-rule:evenodd;stroke:none;stroke-width:1px;stroke-linecap:butt;stroke-linejoin:miter;stroke-opacity:1"
       d="m 223.77232,938.14169 c 0.27608,0.56996 0.5418,1.15209 0.79754,1.74286 3.96184,5.10041 7.29098,11.73251 9.92176,17.12032 -2.35101,-5.4796 -5.44066,-12.30212 -9.21645,-17.64291 -0.49854,-0.42704 -0.99971,-0.8348 -1.50285,-1.22027 z"
       id="path4253"
       inkscape:path-effect="#path-effect4255"
       inkscape:original-d="m 223.77232,938.14169 c 4.38624,5.37919 7.98571,12.89898 10.7193,18.86318"
       inkscape:connector-curvature="0"
       sodipodi:nodetypes="cc" />
  </g>
</svg>
