<?xml version="1.0" encoding="UTF-8" standalone="no"?>
<!-- Created with Inkscape (http://www.inkscape.org/) -->

<svg
   xmlns:dc="http://purl.org/dc/elements/1.1/"
   xmlns:cc="http://creativecommons.org/ns#"
   xmlns:rdf="http://www.w3.org/1999/02/22-rdf-syntax-ns#"
   xmlns:svg="http://www.w3.org/2000/svg"
   xmlns="http://www.w3.org/2000/svg"
   xmlns:xlink="http://www.w3.org/1999/xlink"
   xmlns:sodipodi="http://sodipodi.sourceforge.net/DTD/sodipodi-0.dtd"
   xmlns:inkscape="http://www.inkscape.org/namespaces/inkscape"
   viewBox="0 0 256 256"
   id="svg4166"
   version="1.1"
   inkscape:version="0.91 r13725"
   sodipodi:docname="sock_tights.svg">
  <style
     id="style3">
    svg { cursor: default; }
  </style>
  <defs
     id="defs4168">
    <linearGradient
       inkscape:collect="always"
       id="linearGradient2">
      <stop
         style="stop-color:#ff5555;stop-opacity:1"
         offset="0"
         id="stop4183" />
      <stop
         style="stop-color:#ff8080;stop-opacity:1"
         offset="1"
         id="stop4185" />
    </linearGradient>
    <linearGradient
       inkscape:collect="always"
       id="linearGradient0">
      <stop
         style="stop-color:#ff8080;stop-opacity:1;"
         offset="0"
         id="stop4175" />
      <stop
         style="stop-color:#ffaaaa;stop-opacity:1"
         offset="1"
         id="stop4177" />
    </linearGradient>
    <inkscape:path-effect
       effect="powerstroke"
       id="path-effect4416"
       is_visible="true"
       offset_points="0.084694799,0.50738917"
       sort_points="true"
       interpolator_type="Linear"
       interpolator_beta="0.2"
       start_linecap_type="zerowidth"
       linejoin_type="round"
       miter_limit="4"
       end_linecap_type="zerowidth"
       cusp_linecap_type="round" />
    <inkscape:path-effect
       effect="powerstroke"
       id="path-effect4202"
       is_visible="true"
       offset_points="0,0.5"
       sort_points="true"
       interpolator_type="Linear"
       interpolator_beta="0.2"
       start_linecap_type="zerowidth"
       linejoin_type="round"
       miter_limit="4"
       end_linecap_type="zerowidth"
       cusp_linecap_type="round" />
    <inkscape:path-effect
       effect="powerstroke"
       id="path-effect4610"
       is_visible="true"
       offset_points="0.089858733,0.1462269"
       sort_points="true"
       interpolator_type="Linear"
       interpolator_beta="0.2"
       start_linecap_type="zerowidth"
       linejoin_type="round"
       miter_limit="4"
       end_linecap_type="zerowidth"
       cusp_linecap_type="round" />
    <inkscape:path-effect
       effect="powerstroke"
       id="path-effect4606"
       is_visible="true"
       offset_points="0.29328208,0.12562291"
       sort_points="true"
       interpolator_type="Linear"
       interpolator_beta="0.2"
       start_linecap_type="zerowidth"
       linejoin_type="round"
       miter_limit="4"
       end_linecap_type="zerowidth"
       cusp_linecap_type="round" />
    <inkscape:path-effect
       effect="powerstroke"
       id="path-effect4584-7"
       is_visible="true"
       offset_points="0.52899141,0.21496312"
       sort_points="true"
       interpolator_type="Linear"
       interpolator_beta="0.2"
       start_linecap_type="zerowidth"
       linejoin_type="round"
       miter_limit="4"
       end_linecap_type="zerowidth"
       cusp_linecap_type="round" />
    <inkscape:path-effect
       effect="powerstroke"
       id="path-effect4584"
       is_visible="true"
       offset_points="0.52899141,0.21496312"
       sort_points="true"
       interpolator_type="Linear"
       interpolator_beta="0.2"
       start_linecap_type="zerowidth"
       linejoin_type="round"
       miter_limit="4"
       end_linecap_type="zerowidth"
       cusp_linecap_type="round" />
    <inkscape:path-effect
       effect="powerstroke"
       id="path-effect4584-79"
       is_visible="true"
       offset_points="0.52899141,0.21496313"
       sort_points="true"
       interpolator_type="Linear"
       interpolator_beta="0.2"
       start_linecap_type="zerowidth"
       linejoin_type="round"
       miter_limit="4"
       end_linecap_type="zerowidth"
       cusp_linecap_type="round" />
    <inkscape:path-effect
       effect="powerstroke"
       id="path-effect4584-7-5"
       is_visible="true"
       offset_points="0.52899141,0.21496313"
       sort_points="true"
       interpolator_type="Linear"
       interpolator_beta="0.2"
       start_linecap_type="zerowidth"
       linejoin_type="round"
       miter_limit="4"
       end_linecap_type="zerowidth"
       cusp_linecap_type="round" />
    <inkscape:path-effect
       effect="powerstroke"
       id="path-effect4606-3"
       is_visible="true"
       offset_points="0.29328208,0.12562291"
       sort_points="true"
       interpolator_type="Linear"
       interpolator_beta="0.2"
       start_linecap_type="zerowidth"
       linejoin_type="round"
       miter_limit="4"
       end_linecap_type="zerowidth"
       cusp_linecap_type="round" />
    <inkscape:path-effect
       effect="powerstroke"
       id="path-effect4610-4"
       is_visible="true"
       offset_points="0.089858733,0.1462269"
       sort_points="true"
       interpolator_type="Linear"
       interpolator_beta="0.2"
       start_linecap_type="zerowidth"
       linejoin_type="round"
       miter_limit="4"
       end_linecap_type="zerowidth"
       cusp_linecap_type="round" />
    <linearGradient
       inkscape:collect="always"
       xlink:href="#linearGradient0"
       id="linearGradient1"
       x1="101.77287"
       y1="1023.8253"
       x2="156.82619"
       y2="834.16919"
       gradientUnits="userSpaceOnUse" />
    <linearGradient
       inkscape:collect="always"
       xlink:href="#linearGradient2"
       id="linearGradient3"
       x1="158.34142"
       y1="1025.3406"
       x2="144.19928"
       y2="853.86719"
       gradientUnits="userSpaceOnUse" />
  </defs>
  <sodipodi:namedview
     id="base"
     pagecolor="#ffffff"
     bordercolor="#666666"
     borderopacity="1.0"
     inkscape:pageopacity="0.0"
     inkscape:pageshadow="2"
     inkscape:zoom="2.8"
     inkscape:cx="90.956071"
     inkscape:cy="74.018059"
     inkscape:document-units="px"
     inkscape:current-layer="layer1"
     showgrid="false"
     units="px"
     inkscape:window-width="2560"
     inkscape:window-height="1388"
     inkscape:window-x="-8"
     inkscape:window-y="-8"
     inkscape:window-maximized="1" />
  <metadata
     id="metadata4171">
    <rdf:RDF>
      <cc:Work
         rdf:about="">
        <dc:format>image/svg+xml</dc:format>
        <dc:type
           rdf:resource="http://purl.org/dc/dcmitype/StillImage" />
        <dc:title />
      </cc:Work>
    </rdf:RDF>
  </metadata>
  <g
     inkscape:label="Layer 1"
     inkscape:groupmode="layer"
     id="layer1"
     transform="translate(0,-796.36216)"
     style="display:inline">
    <path
       style="fill:url(#linearGradient3);fill-opacity:1;fill-rule:evenodd;stroke:#000000;stroke-width:1px;stroke-linecap:butt;stroke-linejoin:miter;stroke-opacity:1"
       d="m 141.42857,844.86216 c -28.02376,27.3806 -51.772604,61.65135 -51.785712,67.5 -0.0084,3.73407 1.843997,5.59583 3.392857,8.03572 4.752806,7.487 6.63546,7.48127 9.821425,11.07143 7.9762,8.98809 12.7979,15.96878 23.92858,26.96428 10.37474,10.75816 13.38278,19.16061 18.57142,29.28572 2.31489,4.51728 3.17775,9.21548 6.25001,12.85719 5.07178,6.0119 9.0488,11.1834 10.35714,18.0357 0.29397,1.5396 1.55985,2.4447 2.85714,3.0357 1.61589,0.7362 3.65223,0.6929 3.75,-0.5357 0.169,-2.1237 -0.0542,-3.8555 -0.0446,-5.759 0.0164,-3.2693 0.18145,-4.3495 0.0446,-6.6517 -0.21701,-3.652 -2.85711,-6.3964 -3.125,-11.38394 -0.43454,-8.09032 0.60138,-6.0324 2.99863,-11.87057 1.3007,-3.30705 1.26546,-7.47638 -0.0522,-8.97768 -1.62189,-1.84791 -8.85818,-1.51753 -12.5,-3.92857 -8.03676,-5.32066 -9.64286,-15.35715 -14.46429,-23.03572 -7.07914,-11.19462 -9.65014,-21.35881 -21.96428,-33.75 0.88675,-4.9042 19.76005,-22.26062 29.64286,-33.39286 z"
       id="path4167"
       inkscape:connector-curvature="0"
       sodipodi:nodetypes="cssscsssssssscsscccc" />
    <path
       style="fill:url(#linearGradient1);fill-rule:evenodd;stroke:#000000;stroke-width:1px;stroke-linecap:butt;stroke-linejoin:miter;stroke-opacity:1;fill-opacity:1"
       d="m 134.13365,816.7769 c -0.40345,18.35696 7.31678,20.72721 8.44022,34.92609 0.23565,2.97834 -3.79957,10.52909 -7.59338,25.7885 -3.75499,15.10324 -6.04523,33.71702 -9.87508,44.27814 -0.8049,2.21958 -2.71408,4.55335 -3.17986,9.13008 -0.51209,5.03188 -0.004,12.38491 -0.16627,14.92418 -0.77392,12.10503 -13.174,39.94829 -21.21321,58.84141 -0.679976,1.598 -3.077215,3.2748 -6.302248,7.1651 -3.561582,4.2962 -8.091147,10.9594 -11.501687,15.7527 -4.284894,6.0222 -4.611421,8.081 -18.561553,13.7002 -0.629532,0.2536 -1.204874,1.8929 -1.188724,2.5714 0.02612,1.0972 0.889647,1.3055 1.946338,1.9743 2.435141,1.5411 6.15371,0.7041 9.032726,0.8316 2.944593,0.1305 7.219847,-0.1111 9.910263,-0.8776 1.709726,-0.4871 6.887208,-5.1058 10.263464,-6.8925 4.836201,-2.5593 8.714631,-4.1646 13.723721,-5.5098 6.63846,-1.7828 4.53565,-8.7001 4.04192,-13.3106 -0.94968,-8.8684 5.24302,-16.5619 9.84899,-23.73861 14.84303,-23.1273 19.89076,-30.57731 21.46574,-45.45684 0.4007,-3.78558 2.23705,-7.37565 2.96732,-11.11168 0.67997,-3.47871 0.25078,-7.02492 1.2627,-10.35406 1.41329,-4.64967 14.69266,-26.27998 21.69846,-46.0486 1.54078,-4.34767 4.02026,-9.59626 7.15402,-13.67667 4.04413,-5.26579 8.91973,-9.87003 9.65958,-16.0993 1.05963,-8.92175 -3.70125,-17.55337 -8.14436,-25.31695 -2.76049,-4.82349 -6.81852,-15.90991 -6.81852,-15.90991 -11.28066,-4.57578 -22.48217,1.60699 -36.87057,4.41942 z"
       id="path4165"
       inkscape:connector-curvature="0"
       sodipodi:nodetypes="csssssssssssssssssssssssscc" />
    <path
       style="fill:none;fill-rule:evenodd;stroke:#000000;stroke-width:1px;stroke-linecap:butt;stroke-linejoin:miter;stroke-opacity:1"
       d="m 119.5759,915.35324 c -0.25847,0.74358 -0.38162,1.02612 -1.40626,2.36607"
       id="path4169"
       inkscape:connector-curvature="0"
       sodipodi:nodetypes="cc" />
    <path
       style="fill:#ffd5d5;fill-rule:evenodd;stroke:#000000;stroke-width:1px;stroke-linecap:butt;stroke-linejoin:miter;stroke-opacity:1"
       d="m 134.15663,817.01411 c -0.13657,-0.31567 -1.747,-5.12658 -1.09627,-6.10872 5.34533,-2.33805 11.34702,-4.58037 15.74768,-4.99276 7.75547,-0.72677 18.84504,-2.32621 20.93348,1.14155 0.47351,1.79933 0.94702,3.59867 1.42053,5.398 -9.23551,-3.24504 -24.43135,0.83242 -37.00542,4.56193 z"
       id="path4171"
       inkscape:connector-curvature="0"
       sodipodi:nodetypes="ccsccc" />
  </g>
</svg>
