<?xml version="1.0" encoding="UTF-8" standalone="no"?>
<!-- Created with Inkscape (http://www.inkscape.org/) -->

<svg
   xmlns:dc="http://purl.org/dc/elements/1.1/"
   xmlns:cc="http://creativecommons.org/ns#"
   xmlns:rdf="http://www.w3.org/1999/02/22-rdf-syntax-ns#"
   xmlns:svg="http://www.w3.org/2000/svg"
   xmlns="http://www.w3.org/2000/svg"
   xmlns:sodipodi="http://sodipodi.sourceforge.net/DTD/sodipodi-0.dtd"
   xmlns:inkscape="http://www.inkscape.org/namespaces/inkscape"
   viewBox="0 0 256 256"
   id="svg4164"
   version="1.1"
   inkscape:version="0.91 r13725"
   sodipodi:docname="stomach_lowback_body.svg">
  <style
     id="style3">
    svg { cursor: default;}
  </style>
  <defs
     id="defs4166">
    <inkscape:path-effect
       effect="powerstroke"
       id="path-effect4255"
       is_visible="true"
       offset_points="0.088828796,0.39810203"
       sort_points="true"
       interpolator_type="Linear"
       interpolator_beta="0.2"
       start_linecap_type="zerowidth"
       linejoin_type="round"
       miter_limit="4"
       end_linecap_type="zerowidth"
       cusp_linecap_type="round" />
    <inkscape:path-effect
       effect="powerstroke"
       id="path-effect4203"
       is_visible="true"
       offset_points="0.81276062,-1.286815"
       sort_points="true"
       interpolator_type="Linear"
       interpolator_beta="0.2"
       start_linecap_type="zerowidth"
       linejoin_type="round"
       miter_limit="4"
       end_linecap_type="zerowidth"
       cusp_linecap_type="round" />
    <inkscape:path-effect
       effect="powerstroke"
       id="path-effect4199"
       is_visible="true"
       offset_points="0.28308433,1.1604326"
       sort_points="true"
       interpolator_type="Linear"
       interpolator_beta="0.2"
       start_linecap_type="zerowidth"
       linejoin_type="round"
       miter_limit="4"
       end_linecap_type="zerowidth"
       cusp_linecap_type="round" />
    <marker
       inkscape:stockid="Arrow1Lstart"
       orient="auto"
       refY="0.0"
       refX="0.0"
       id="Arrow1Lstart"
       style="overflow:visible"
       inkscape:isstock="true">
      <path
         id="path4233"
         d="M 0.0,0.0 L 5.0,-5.0 L -12.5,0.0 L 5.0,5.0 L 0.0,0.0 z "
         style="fill-rule:evenodd;stroke:#000000;stroke-width:1pt;stroke-opacity:1;fill:#000000;fill-opacity:1"
         transform="scale(0.8) translate(12.5,0)" />
    </marker>
    <inkscape:path-effect
       effect="powerstroke"
       id="path-effect4203-4"
       is_visible="true"
       offset_points="0.45408377,-0.95413935"
       sort_points="true"
       interpolator_type="Linear"
       interpolator_beta="0.2"
       start_linecap_type="zerowidth"
       linejoin_type="round"
       miter_limit="4"
       end_linecap_type="zerowidth"
       cusp_linecap_type="round" />
    <inkscape:path-effect
       effect="powerstroke"
       id="path-effect4199-7"
       is_visible="true"
       offset_points="0.88158867,1.1916301"
       sort_points="true"
       interpolator_type="Linear"
       interpolator_beta="0.2"
       start_linecap_type="zerowidth"
       linejoin_type="round"
       miter_limit="4"
       end_linecap_type="zerowidth"
       cusp_linecap_type="round" />
  </defs>
  <sodipodi:namedview
     id="base"
     pagecolor="#ffffff"
     bordercolor="#666666"
     borderopacity="1.0"
     inkscape:pageopacity="0.0"
     inkscape:pageshadow="2"
     inkscape:zoom="1.979899"
     inkscape:cx="142.55594"
     inkscape:cy="191.83599"
     inkscape:document-units="px"
     inkscape:current-layer="layer1"
     showgrid="false"
     units="px"
     inkscape:window-width="2560"
     inkscape:window-height="1388"
     inkscape:window-x="-8"
     inkscape:window-y="-8"
     inkscape:window-maximized="1" />
  <metadata
     id="metadata4169">
    <rdf:RDF>
      <cc:Work
         rdf:about="">
        <dc:format>image/svg+xml</dc:format>
        <dc:type
           rdf:resource="http://purl.org/dc/dcmitype/StillImage" />
        <dc:title></dc:title>
      </cc:Work>
    </rdf:RDF>
  </metadata>
  <g
     inkscape:label="Layer 1"
     inkscape:groupmode="layer"
     id="layer1"
     transform="translate(0,-796.36219)">
    <g
       id="g4491"
       transform="matrix(0.98,0,0,0.98,4.0408776,18.998901)">
      <path
         sodipodi:nodetypes="ccccc"
         inkscape:connector-curvature="0"
         id="path4481"
         d="m 182.20626,796.7936 3.15673,0.63134 -5.80838,53.03301 -3.53553,-1.01015 c 3.72218,-16.34428 4.15336,-35.08202 6.18718,-52.6542 z"
         style="fill:#ff2a2a;fill-rule:evenodd;stroke:#000000;stroke-width:1px;stroke-linecap:butt;stroke-linejoin:miter;stroke-opacity:1" />
      <path
         sodipodi:nodetypes="ccccc"
         inkscape:connector-curvature="0"
         id="path4477"
         d="m 70.458139,796.03598 c 2.783925,20.1489 3.724997,28.55816 8.523162,51.77033 l -2.020305,0.88387 -10.038391,-52.14912 z"
         style="fill:#ff2a2a;fill-rule:evenodd;stroke:#000000;stroke-width:1px;stroke-linecap:butt;stroke-linejoin:miter;stroke-opacity:1" />
      <path
         sodipodi:nodetypes="cccc"
         inkscape:connector-curvature="0"
         id="path4467"
         d="m 64.144686,983.79809 c -1.20491,4.34682 -1.99301,9.83987 -2.525382,16.03617 11.496078,25.51274 26.171963,25.90494 39.269676,38.76464 z"
         style="fill:#ffaaaa;fill-rule:evenodd;stroke:#000000;stroke-width:1px;stroke-linecap:butt;stroke-linejoin:miter;stroke-opacity:1" />
      <path
         sodipodi:nodetypes="cccc"
         inkscape:connector-curvature="0"
         id="path4469"
         d="m 187.32016,978.81046 -37.69132,58.65204 c 5.3555,1.1157 35.76677,-30.1637 41.28999,-39.01724 -1.66668,-6.75788 -3.59867,-19.6348 -3.59867,-19.6348 z"
         style="fill:#ffaaaa;fill-rule:evenodd;stroke:#000000;stroke-width:1px;stroke-linecap:butt;stroke-linejoin:miter;stroke-opacity:1" />
      <path
         sodipodi:nodetypes="ccccccc"
         inkscape:connector-curvature="0"
         id="path4475"
         d="m 70.102311,849.69399 3.007479,-1.63515 -0.252539,-2.77792 -2.465419,-49.3049 c 0,0 -2.743489,-0.28773 -3.958984,0.92218 l 3.772753,49.14033 c 0.05569,1.03824 -0.04977,2.39879 -0.10329,3.65546 z"
         style="fill:#ff8080;fill-rule:evenodd;stroke:#000000;stroke-width:1px;stroke-linecap:butt;stroke-linejoin:miter;stroke-opacity:1" />
      <path
         sodipodi:nodetypes="ccccc"
         inkscape:connector-curvature="0"
         id="path4479"
         d="m 182.07999,849.4478 c 0.50508,0.25254 2.65165,1.89404 2.65165,1.89404 -1.10806,-19.40076 1.01015,-36.11295 1.51523,-54.16943 l -3.6618,-0.25254 c 0.29131,17.20286 -0.33098,35.01479 -0.50508,52.52793 z"
         style="fill:#ff8080;fill-rule:evenodd;stroke:#000000;stroke-width:1px;stroke-linecap:butt;stroke-linejoin:miter;stroke-opacity:1" />
      <path
         sodipodi:nodetypes="ssscsccccscss"
         inkscape:connector-curvature="0"
         id="path4461"
         d="m 129.10714,1053.235 c -2.34752,0.405 -9.20976,0.085 -11.51786,-0.2679 -2.3523,-0.3594 -11.46256,-9.0657 -16.93858,-14.4702 -18.509088,-18.2671 -37.437554,-54.06329 -36.253476,-54.95135 -0.147703,-16.7517 15.121894,-39.72272 15.341692,-57.19989 0.215032,-17.09822 -5.847683,-27.261 -6.629127,-42.86835 l 52.275391,-11.17481 3.40927,0 50.00255,17.17259 c -0.18118,5.25416 -8.02579,31.58622 -6.18719,45.83567 1.73069,13.41316 15.31817,34.24779 14.77348,43.6891 -3.38916,9.17068 -24.69644,48.07114 -38.38579,59.09394 -6.4901,5.2259 -14.09688,14.1416 -19.89036,15.1412 z"
         style="fill:#ff8080;fill-rule:evenodd;stroke:#000000;stroke-width:1px;stroke-linecap:butt;stroke-linejoin:miter;stroke-opacity:1" />
      <path
         sodipodi:nodetypes="cc"
         inkscape:connector-curvature="0"
         id="path4483"
         d="M 78.855032,1010.0621 C 94.592147,952.79337 103.22869,935.58404 92.681495,895.78855"
         style="fill:none;fill-rule:evenodd;stroke:#000000;stroke-width:0.5;stroke-linecap:butt;stroke-linejoin:miter;stroke-miterlimit:4;stroke-dasharray:none;stroke-opacity:1" />
      <path
         sodipodi:nodetypes="cc"
         inkscape:connector-curvature="0"
         id="path4485"
         d="m 162.12948,896.41989 c -18.54643,53.32544 0.98811,65.97096 8.20749,114.52611"
         style="fill:none;fill-rule:evenodd;stroke:#000000;stroke-width:0.5;stroke-linecap:butt;stroke-linejoin:miter;stroke-miterlimit:4;stroke-dasharray:none;stroke-opacity:1" />
      <path
         sodipodi:nodetypes="cccc"
         inkscape:connector-curvature="0"
         id="path4463"
         d="m 66.038722,856.89768 c -0.62342,9.67157 3.682283,17.87215 5.682108,25.38008 14.783557,28.88613 52.38062,3.80912 51.39151,-10.85914 -13.62987,-45.62211 -47.731505,-28.1694 -57.073618,-14.52094 z"
         style="fill:#ff5555;fill-rule:evenodd;stroke:#000000;stroke-width:1px;stroke-linecap:butt;stroke-linejoin:miter;stroke-opacity:1" />
      <path
         sodipodi:nodetypes="cccc"
         inkscape:connector-curvature="0"
         id="path4465"
         d="m 181.82746,883.91925 c 2.69374,-8.33376 7.02278,-15.35928 8.08122,-25.00127 -30.21515,-34.05483 -53.95076,-5.23888 -58.65199,12.37437 14.35582,37.87772 45.52001,24.39097 50.57077,12.6269 z"
         style="fill:#ff5555;fill-rule:evenodd;stroke:#000000;stroke-width:1px;stroke-linecap:butt;stroke-linejoin:miter;stroke-opacity:1" />
      <path
         sodipodi:nodetypes="ccccc"
         inkscape:connector-curvature="0"
         id="path4473"
         d="m 127.7843,871.79742 c 1.12257,-0.8711 2.15227,-1.09217 3.15672,-1.13642 8.85775,20.11726 32.61502,33.79916 50.88644,13.38452 0.14327,-0.32708 0.43149,1.64906 -0.88389,2.77793 -7.55271,12.84824 -34.45218,19.2752 -53.15927,-15.02603 z"
         style="fill:#ffaaaa;fill-rule:evenodd;stroke:#000000;stroke-width:1px;stroke-linecap:butt;stroke-linejoin:miter;stroke-opacity:1" />
      <path
         sodipodi:nodetypes="ccccc"
         inkscape:connector-curvature="0"
         id="path4471"
         d="m 71.628916,882.43072 c -0.816913,0.28925 0.778718,3.53116 1.785714,4.66058 14.786792,13.9503 36.43747,12.94052 53.10698,-14.85193 -0.95196,-1.65083 -2.56689,-1.53367 -3.66181,-1.32583 -10.98541,24.81187 -37.023012,27.05857 -51.230884,11.51718 z"
         style="fill:#ffaaaa;fill-rule:evenodd;stroke:#000000;stroke-width:1px;stroke-linecap:butt;stroke-linejoin:miter;stroke-opacity:1" />
      <path
         sodipodi:nodetypes="cc"
         inkscape:connector-curvature="0"
         id="path4487"
         d="m 70.489706,852.22572 c -2.437094,-1.29761 2.106495,-6.41623 3.188294,-2.84106"
         style="fill:none;fill-rule:evenodd;stroke:#000000;stroke-width:1px;stroke-linecap:butt;stroke-linejoin:miter;stroke-opacity:1" />
      <path
         sodipodi:nodetypes="cc"
         inkscape:connector-curvature="0"
         id="path4489"
         d="m 181.16071,850.55636 c 2.4263,-2.34289 4.75314,2.04462 3.30357,2.94642"
         style="fill:none;fill-rule:evenodd;stroke:#000000;stroke-width:1px;stroke-linecap:butt;stroke-linejoin:miter;stroke-opacity:1" />
    </g>
  </g>
</svg>
