<svg xmlns="http://www.w3.org/2000/svg" cursor="default" viewBox="0 0 256 256">
    <g>
        <g>
            <g transform="translate(0 -796.362)">
                <path fill="#ff8080" fill-rule="evenodd" stroke="#000" d="M115.102 866.539c10.954 29.36 10.697 45.45 10.598 82.754 3.562.777 9.6.744 12.375-.21 1.61-40.86-2.574-69.352-11.647-86.248z"/>
                <ellipse cx="116.002" cy="852.131" fill="#faa" stroke="#000" stroke-linecap="round" stroke-width="1.094" rx="21.078" ry="20.891"/>
                <path fill="#fff" fill-rule="evenodd" d="M118.688 834.73c1.467-.046 3.031.249 4.592.806.82.292 1.635.655 2.43 1.076.64.491 1.253 1.02 1.828 1.576a19.946 19.946 0 0 1 3.085 3.785c.815 1.317 1.384 2.648 1.629 3.883-.452-1.166-1.206-2.363-2.161-3.5a19.82 19.82 0 0 0-3.401-3.168 19.773 19.773 0 0 0-1.882-1.228 17.853 17.853 0 0 0-1.99-1.468c-1.306-.826-2.708-1.456-4.13-1.763z"/>
                <g>
                    <g>
                        <g stroke="#000">
                            <path fill="#ff8080" fill-rule="evenodd" stroke-width="1.736" d="M183.686 940.424l.59-16.627 18.227-9.646c.999-3.897-.209-7.1-5.432-5.867l-13.14 6.434-.015-4.823 9.292-4.445c2.011-.51 1.437-6.53-4.007-5.26l-3.9 1.355.298-6.801c-3.58-4.181-6.495-3.578-9.025-.21l-.312 7.605-3.407-2.286c-5.4-2.408-5.22 2.275-4.281 4.034l7.556 5.369-.2 5.277-11.926-9.952c-4.383-.226-6.072 1.555-4.518 5.752l16.477 13.501.326 17.107zm-7.836 31.064l-.249 16.638-18.025 10.111c-.919 3.921.354 7.094 5.551 5.726l13.005-6.77.113 4.822-9.2 4.682c-2 .562-1.302 6.566 4.114 5.156l3.872-1.454-.158 6.806c3.664 4.088 6.566 3.41 9.027-.023l.156-7.61 3.453 2.198c5.447 2.27 5.171-2.408 4.197-4.143l-7.664-5.173.092-5.281 12.127 9.643c4.385.113 6.038-1.71 4.398-5.866l-16.75-13.075-.675-17.094zm-6.422-27.586l-12.391-9.195 2.096-22.443c-2.457-2.978-5.531-3.486-7.3 2.15l-1.909 15.91-3.69-2.49 1.43-11.197c.653-2.189-4.242-4.765-6.098 1.102l-.99 4.434-5.04-3.815c-5.05 1.253-6.103 4.355-4.844 8.524l5.645 4.246-3.515 2.072c-4.642 3.915-.972 6.174.86 6.19l8.021-4.441 3.927 2.93-13.791 6.242c-2.448 4.075-1.965 6.615 2.047 7.308l18.865-8.752 13.233 8.57zm17.702 9.811l19.73-9.324 15.245 14.768c3.589-.55 5.72-3.08 2.603-7.93l-10.566-10.857 3.938-1.961 7.385 7.72c1.23 1.852 5.919-1.166 2.682-6.227l-2.682-3.446 5.68-2.442c1.972-5.353.302-8.094-3.474-9.325l-6.342 2.751.494-4.411c-.212-6.501-3.967-4.426-5.027-2.755l-1.337 9.905-4.395 1.926 3.32-16.23c-1.585-4.578-3.723-5.589-6.526-2.303l-4.384 22.322-19.753 10.455zm-2.654 11.118l18.156 12.714-2.04 22.45c2.465 2.97 5.54 3.469 7.296-2.174l1.868-15.915 3.696 2.48-1.401 11.2c-.649 2.19 4.253 4.751 6.094-1.122l.98-4.437 5.048 3.8c5.048-1.27 6.093-4.374 4.824-8.54l-5.656-4.228 3.51-2.083c4.632-3.93.956-6.177-.875-6.187l-8.011 4.467-3.934-2.92 13.776-6.284c2.437-4.082 1.948-6.621-2.066-7.301l-18.842 8.811-18.996-12.086zm-11.802-8.429l-19.02 11.017-16.228-13.393c-3.539.861-5.488 3.57-2.042 8.133l11.29 9.902-3.79 2.299-7.9-7.052c-1.355-1.74-5.82 1.678-2.24 6.441l2.914 3.202-5.493 2.93c-1.593 5.508.263 8.095 4.112 8.993l6.132-3.296-.185 4.441c.664 6.463 4.263 4.066 5.203 2.308l.644-9.991 4.247-2.304-2.18 16.47c1.9 4.426 4.1 5.247 6.667 1.727l2.816-22.637 18.965-12.146z" transform="matrix(1.04893 .54321 -.52646 1.01637 447.121 -109.903)"/>
                            <path fill="#faa" stroke-linecap="round" stroke-linejoin="round" d="M384.4 943.114l-4.606 2.697-5.338.033-4.64-2.641-2.696-4.607-.033-5.338 2.641-4.64 4.607-2.697 5.338-.032 4.64 2.641 2.697 4.607.032 5.338z" transform="matrix(-1.63425 -.84625 -.92218 1.7805 1611.412 -388.447)"/>
                        </g>
                    </g>
                </g>
            </g>
        </g>
    </g>
</svg>
