<svg xmlns="http://www.w3.org/2000/svg" xmlns:xlink="http://www.w3.org/1999/xlink" cursor="default" viewBox="0 0 256 256">
    <defs>
        <linearGradient id="usedGradient4">
            <stop offset="0" stop-color="#f55"/>
            <stop offset="1" stop-color="#ff8080"/>
        </linearGradient>
        <linearGradient id="linearGradient5127" x1="104.07" x2="104.121" y1="962.46" y2="938.531" gradientUnits="userSpaceOnUse" xlink:href="#usedGradient4"/>
    </defs>
    <g fill-rule="evenodd">
        <path fill="url(#linearGradient5127)" stroke="#000" stroke-width=".43" d="M100.774 909.728c-.995 26.037-8.897 35.014-9.153 43.061-.15 4.723.933 5.693 3.001 9.671 2.108 4.055.046 10.917 8.027 10.914 11.565 0 7.835-7.725 10.126-11.745 2.308-4.05 2.819-5.22 3.248-8.708.396-3.211-4.181-11.975-4.614-17.876-.432-5.893-1.294-12.518-2.399-18.797-.916-5.204 1.346-4.064-2.196-9.289z" transform="translate(0 -796.362)"/>
        <path fill="#faa" stroke="#000" stroke-width=".422" d="M100.67 111.154c.072 1.666-.28 3.38 2.114 4.08 3.06-.901 4.834-2.225 5.826-3.805 1.542-3.14-4.292-5.125-6.836-5.057z"/>
        <path fill="#ffd5d5" stroke="#000" stroke-width=".422" d="M101.657 106.945c-.704.733-2.7.7-1.532 3.04.976 1.99 2.267 2.066 3.582 2.001.399-.876.353-1.752.431-2.628.47-1.436.782-2.795-2.481-2.413z"/>
        <path fill="#ffd5d5" stroke="#000" stroke-width=".498" d="M107.817 107.384c-5.136-1.601-3.09 1.021-3.54 2.303-.38 1.083-.632 2.422.758 3.326 1.942-.134 2.514-1.641 3.464-2.93.684-2.15.467-2.34-.682-2.699z"/>
        <path d="M106.462 113.538c1.366 7.248 1.411 14.76 2.502 22.173-.941-7.364-.86-14.992-2.084-22.247zM102.415 114.982h-.212c.076 7 .344 14.388-1.606 21.132 2.09-6.72 1.965-14.123 2.03-21.132h-.212zM95.636 163.514c1.8.58 4.966 1.089 8.086 1.162h.024c3.132-.065 6.189-.57 7.717-1.862-1.59 1.168-4.627 1.528-7.716 1.458h-.025c-3.086.061-6.253-.308-8.086-.758z"/>
    </g>
</svg>
