<svg xmlns="http://www.w3.org/2000/svg" cursor="default" viewBox="0 0 256 256">
    <g fill-rule="evenodd" stroke="#000" stroke-width=".5">
        <path fill="#ff8080" d="M71.635 120.684c-.359-7.881.28-17.432 3.743-19.472 8.922 5.161 9.545 16.836 13.252 26.363z"/>
        <path fill="#faa" d="M84.3 133.883c6.763-3.694 5.782-8.577.753-10.907-4.003-1.854-5.862-4.505-10.867-4.089-3.527.293-11.394 2.293-.831 11.77 3.03 2.718 7.765 4.963 10.945 3.226z"/>
        <path fill="#f55" d="M83.088 131.818c5.508-3.01 3.863-5.316-.233-7.214-3.26-1.51-3.727-3.467-7.803-3.128-2.873.239-8.68.383-.076 8.102 2.469 2.214 5.522 3.655 8.113 2.24z"/>
    </g>
</svg>
