<svg xmlns="http://www.w3.org/2000/svg" xmlns:xlink="http://www.w3.org/1999/xlink" cursor="default" viewBox="0 0 256 256">
    <defs>
        <linearGradient id="linearGradient1" x1="103.929" x2="99.643" y1="873.434" y2="1058.076" gradientTransform="matrix(1.2155 0 0 1.2155 -26.334 -159.26)" gradientUnits="userSpaceOnUse" xlink:href="#innoGrad1"/>
        <linearGradient id="innoGrad1">
            <stop offset="0" stop-color="#ff8080"/>
            <stop offset="1" stop-color="#f55"/>
        </linearGradient>
    </defs>
    <g stroke="#000" transform="translate(0 -796.362)">
        <path fill="url(#linearGradient1)" fill-rule="evenodd" stroke-width="1.216" d="M45.188 854.679c-29.93 78.852-25.641 100.757-30.082 164.838 26.256 11.881 61.566 4.303 124.013 7.367 42.07 3.338 94.2-1.447 102.218-5.525-1.27-64.531-4.564-89.512-23.636-164.532l-5.58-18.362c-55.34-1.322-111.25.56-163.195.175z"/>
        <path fill="none" stroke-width=".5" d="M40.892 867.094c9.054 2.914 23.43 5.739 42.41 5.673 26.923-.094 68.513-.67 92.084-.705 15.662-.024 31.127-2.47 44.256-5.503M48.393 840.934c54.88-.117 109.762-.44 164.643-.893"/>
        <path fill="none" stroke-width=".608" d="M212.516 856.2c9.666 41.28 23.649 76.628 24.143 166.32"/>
        <path fill="none" stroke-dasharray="3.6465186,.6077531" stroke-width=".608" d="M209.45 856.174c5.886 34.872 22.474 60.286 23.519 167.125"/>
        <path fill="#fca" fill-rule="evenodd" d="M48.142 841.32c-2.661 2.595-5.16 14.282-6.867 23.74 13.35 4.914 20.26 5.083 70.853 5.821l-.58-30.461c-56.98 2.85-62.49-.65-63.406.9z"/>
        <path fill="#ff7f2a" fill-rule="evenodd" stroke-width=".75" d="M120.773 846.924c-1.551-8.943 10.352-4.256 15.567-6.344l.415 8.536zM119.945 864.08c2.36 13.192 14.288 6.73 21.89 9.155l-1.559-10.259z"/>
        <path fill="#fca" fill-rule="evenodd" d="M147.79 870.421c43.613-.733 63.097-2.392 71.882-5.808-.145-7.182-3.83-19.583-6.11-23.876-4.086-.552-42.643.86-68.365-.347z"/>
        <path fill="#f95" fill-rule="evenodd" stroke-width=".75" d="M106.497 839.52l10.725-.355c3.564 2.46-1.146 7.099 10.724 7.289 12.395.198 5.726-4.519 8.883-7.587l13.065.545 1.414 34.418-9.202.902c-2.591-3.674-2.78-7.478-7.728-7.569-3.294-.06-6.826-.617-10.568-.436-3.3.16-5.178 5.108-7.71 7.651l-9.102-1.696z"/>
        <path fill="#faa" fill-rule="evenodd" stroke-width=".75" d="M78.469 872.703l10.426.133c-.516-8.447.074-24.87 3.96-33.01l-10.632.121c-2.672 7.906-3.35 23.999-3.754 32.756z"/>
        <ellipse cx="83.733" cy="865.241" fill="#ffe680" fill-rule="evenodd" stroke-width=".75" color="#000" overflow="visible" rx="4.156" ry="3.965" transform="rotate(-1.127)" style="isolation:auto;mix-blend-mode:normal;solid-color:#000;solid-opacity:1"/>
        <ellipse cx="84.111" cy="848.874" fill="#ffe680" fill-rule="evenodd" stroke-width=".75" color="#000" overflow="visible" rx="4.156" ry="3.965" transform="rotate(-1.127)" style="isolation:auto;mix-blend-mode:normal;solid-color:#000;solid-opacity:1"/>
        <ellipse cx="139.573" cy="848.874" fill="#ffe680" fill-rule="evenodd" stroke-width=".75" color="#000" overflow="visible" rx="4.156" ry="3.965" transform="rotate(-1.127)" style="isolation:auto;mix-blend-mode:normal;solid-color:#000;solid-opacity:1"/>
        <ellipse cx="139.876" cy="866.755" fill="#ffe680" fill-rule="evenodd" stroke-width=".75" color="#000" overflow="visible" rx="4.156" ry="3.965" transform="rotate(-1.127)" style="isolation:auto;mix-blend-mode:normal;solid-color:#000;solid-opacity:1"/>
        <path fill="#faa" fill-rule="evenodd" stroke-width=".75" d="M180.24 872.024l-10.426.133c.224-7.939.061-24.876-3.834-33.01l10.632.122c2.516 7.905 3.043 23.998 3.628 32.755zM52.248 860.418l4.682.514c-.856-12.223 3.223-19.39 5.653-24.497l-4.507-.76c-4.59 7.976-5.635 18.652-5.828 24.743z"/>
        <path fill="#ff7f2a" fill-rule="evenodd" stroke-width=".75" d="M75.129 833.606c4.132.751 3.02 4.793 2.172 9.17-7.726 6.086-4.917-5.428-2.172-9.17z"/>
        <path fill="#ffb380" fill-rule="evenodd" stroke-width=".75" d="M71.568 876.367l2.107-4.658c.887-10.187 2.493-20.134 3.6-29.613l-5.047 2.79c-2.243 3.975-.44 24.703-.66 31.48z"/>
        <path fill="#ffb380" fill-rule="evenodd" stroke-width=".75" d="M75.41 842.47c-1.683 9.61-2.836 25.638-3.817 34.023-9.52.848-16.603.934-25.51-1.832-.108-13.244 4.47-32.267 7.929-39.513z"/>
        <path fill="#ffb380" fill-rule="evenodd" stroke-width=".75" d="M76.383 834.06c1.766.978.932 3.735-1.412 15.864-3.435 1.615-23.817 1.606-26.267-2.129.865-7.4 2.81-14.745 4.872-14.903 2.336-.18 19.554-.632 22.807 1.168z"/>
        <path fill="#faa" fill-rule="evenodd" stroke-width=".75" d="M211.4 859.92l-5.756.435c1.415-11.853-3.374-18.863-6.2-23.852l5.549-.678c5.39 7.802 6.353 18.179 6.408 24.094z"/>
        <path fill="#ff7f2a" fill-rule="evenodd" stroke-width=".75" d="M184.145 833.59c-5.09.674-3.845 4.612-2.937 8.871 9.292 6.01 6.19-5.202 2.937-8.871z"/>
        <path fill="#ffb380" fill-rule="evenodd" stroke-width=".75" d="M187.237 875.142l-2.444-4.549c-.785-9.899-2.457-19.575-3.532-28.79l6.105 2.775c2.632 3.887-.198 23.983-.13 30.564z"/>
        <path fill="#ffb380" fill-rule="evenodd" stroke-width=".75" d="M183.536 842.19c1.778 9.35 2.714 24.923 3.666 33.075 11.648.949 20.331 1.127 31.333-1.44.527-12.853-4.52-31.379-8.544-38.458z"/>
        <path fill="#ffb380" fill-rule="evenodd" stroke-width=".75" d="M182.593 834.014c-2.194.925-1.253 3.613 1.26 15.417 4.163 1.613 29.154 1.875 32.27-1.717-.84-7.194-3.007-14.35-5.53-14.531-2.86-.205-23.958-.873-28 .831z"/>
        <ellipse cx="190.928" cy="840.431" fill="#fd5" fill-rule="evenodd" stroke-width=".799" color="#000" overflow="visible" rx="2.812" ry="2.623" transform="matrix(.99959 .02874 .01226 .99992 0 0)" style="isolation:auto;mix-blend-mode:normal;solid-color:#000;solid-opacity:1"/>
        <ellipse cx="49.925" cy="844.811" fill="#fd5" fill-rule="evenodd" stroke-width=".763" color="#000" overflow="visible" rx="2.83" ry="2.373" transform="matrix(.99967 .02584 .01364 .9999 0 0)" style="isolation:auto;mix-blend-mode:normal;solid-color:#000;solid-opacity:1"/>
    </g>
</svg>
