<svg xmlns="http://www.w3.org/2000/svg" cursor="default" viewBox="0 0 256 256">
    <g stroke="#000">
        <path fill="#f55" fill-rule="evenodd" d="M6.06 159.404c-2.642-13.497 12.019-19.717 17.3-30.052 5.465-10.696-2.443-16.489 21.213-33.209 23.417-16.55 55.995-20.068 83.843-22.223 11.509-3.122 89.407-7.697 118.557 3.81-.659 3.493-1.494 5.875-1.885 8.564l-60.861-6.313s-55.054 5.43-54.549 5.43c.505 0-68.197-2.67-97.1 31.188-4.91 5.471-3.582 13.93-5.948 19.619-5.34 12.844-17.86 21.065-14.76 27.858z"/>
        <path fill="#6f8a91" fill-rule="evenodd" d="M218.774 75.913l7.679-3.482 7.232 5.714v12.858z"/>
        <path fill="#ff8080" fill-rule="evenodd" d="M247.109 78.213c.79 4.337.854 7.935.315 12.438-5.486 2.372-8.752 1.676-12.88 2.84l-3.787-11.932c5.426-.839 13.414-2.206 16.352-3.346z"/>
        <path fill="#dbe2e3" fill-rule="evenodd" d="M157.716 155.732c6.614-7.072 13.96-10.13 24.53-7.043-6.061-6.313-5.942-15.934-19.611-20.726-7.523 10.238-4.196 19.657-4.919 27.77zM57.579 153.848c9.472 25.862 43.98 31.427 51.896 31.441-10.519-7.249-38.83-13.807-47.856-32.072zM76.519 99.426c44.566-3.209 98.439-25.76 114.652-33.84 14.323-7.138 21.028-12.71 27.185 7.2-46.4 10.582-133.911 44.481-161.85 63.828l-5.178-7.562c-3.202-16.99 4.832-28.16 25.191-29.626z"/>
        <path fill="#b7c4c8" fill-rule="evenodd" d="M54.043 129.983c1.176-13.743 7.37-23.31 19.824-24.622 3.144-.331 35.744-6.688 72.722-18.5 41.925-13.393 51.427-21.61 59.608-20.77 7.92.814 23.865 17.425 23.865 17.425-6.05-4.599-42.743 5.982-76.187 16.664-30.948 9.884-62.141 15.504-66.497 26.52-14.494 36.661 15.152 54.549 15.152 54.549-14.379-1.636-39.32-19.298-41.037-27.148z"/>
        <path fill="#b7c4c8" fill-rule="evenodd" d="M51.013 128.72l-6.566 4.041 6.313 22.476 6.819.758 6.06-2.02-3.787-20.961z"/>
        <path fill="#f55" fill-rule="evenodd" d="M45.113 135.824c-.625 1.964 4.554 19.821 4.554 19.821l4.018-2.678-4.018-15.982c-2.985 1.066-3.931-.337-4.554-1.16z"/>
        <path fill="#93a7ac" fill-rule="evenodd" d="M165.16 134.782c-8.145 2.099.805 37.078-29.547 50.76-21.413 9.652-43.375-3.464-49.624-20.203-3.785-10.14-12.107-39.33 14.016-50.255 18.728-7.833 35.66-12.742 57.125-19.516 15.099-4.765 32.76-11.473 53.487-16.345 15.989-3.758 29.786 7.755 30.936 31.946.781 16.434-4.908 36.259-22.35 44.573-35.731 17.033-45.21-23.236-54.043-20.96z"/>
        <path fill="none" d="M43.69 133.014l7.575 3.283 8.587-3.03M50.76 136.297l6.314 19.445"/>
        <path fill="#dbe2e3" fill-rule="evenodd" stroke-width=".902" d="M162.797 127.098c-7.35 1.894-2.556 38.767-29.949 51.114-19.325 8.711-33.842-.853-39.482-15.96-3.416-9.151-10.8-33.854 12.776-43.714 16.901-7.069 32.687-9.858 52.06-15.971 13.627-4.3 33.481-11.997 52.186-16.393 14.43-3.392 23.978 4.473 25.016 26.306.705 14.831-.767 28.683-16.51 36.186-32.247 15.372-48.125-23.622-56.097-21.568z"/>
        <path fill="#ff8080" fill-rule="evenodd" d="M56.765 138.093c-1.447 6.27-7.362 9.584-17.37 14.998-20.24 10.95-28.515 11.28-33.713 5.682l8.713 10.733c11.865 6.49 19.052-2.024 28.031-5.809 12.386-5.22 13.794-3.555 18.057-10.354z"/>
        <path fill="none" d="M233.219 78.403l-5.556 2.525"/>
    </g>
</svg>
