<svg xmlns="http://www.w3.org/2000/svg" xmlns:xlink="http://www.w3.org/1999/xlink" cursor="default" viewBox="0 0 256 256">
    <defs>
        <linearGradient id="linearGradient4311">
            <stop offset="0" stop-color="#a05a2c"/>
            <stop offset="1" stop-color="#a05a2c" stop-opacity="0"/>
        </linearGradient>
        <linearGradient id="linearGradient4317" x1="80.268" x2="67.768" y1="114.571" y2="118.232" gradientTransform="translate(-.268 .09)" gradientUnits="userSpaceOnUse" xlink:href="#linearGradient4311"/>
        <linearGradient id="linearGradient4356" x1="80.268" x2="67.768" y1="114.571" y2="118.232" gradientTransform="translate(-.268 .09)" gradientUnits="userSpaceOnUse" xlink:href="#linearGradient4311"/>
    </defs>
    <g fill-rule="evenodd" stroke="#000">
        <path fill="#a05a2c" stroke-width="1.1" d="M104.94 240.552c.79 4.554 7.177 3.378 4.518-2.16-11.347-23.638-35.651-42.586-40.379-63.972-7.475-33.819 19.885-70.536 56.683-70.386 46.66.191 68.121 41.099 56.429 80.541-6.45 21.756-35.415 43.987-37.965 57.156-.972 5.021 4.593 4.432 5.304 1.375 4.42-19.008 26.38-27.076 36.622-56.884 14.187-41.285-9.891-86.175-60.39-86.116-41.514.048-67.625 40.018-61.1 73.92 6.337 32.925 37.329 49.532 40.278 66.526z"/>
        <path fill="#502d16" stroke-width="1.1" d="M164.294 112.186c7.32 7.221 14.373 14.946 23.965 17.875l19.986-33c-10.099-4.077-23.261-3.768-35.406-3.732z"/>
        <path fill="#deaa87" stroke-width="1.1" d="M174.902 104.526c36.34-26.163 60.085 13.083 58.928 20.035-1.234 7.416-52.54 27.603-58.928-20.035z"/>
        <path fill="url(#linearGradient4356)" stroke-width=".5" d="M58.531 112.176c9.867-2.946 19.51-2.39 25.52.956-1.981 4.878-5.294 10.45-18.632 17.791" transform="matrix(-1.1 0 0 1.1 267.91 -19.539)"/>
        <path fill="#502d16" stroke-width="1.1" d="M90.11 111.891c-7.32 7.221-14.373 14.946-23.964 17.875l-19.987-33c10.1-4.077 23.262-3.768 35.406-3.732z"/>
        <path fill="#deaa87" stroke-width="1.1" d="M79.503 104.23c-36.34-26.162-60.086 13.084-58.929 20.036 1.235 7.416 52.541 27.603 58.929-20.035z"/>
        <path fill="url(#linearGradient4317)" stroke-width=".5" d="M58.531 112.176c9.867-2.946 19.51-2.39 25.52.956-1.981 4.878-5.294 10.45-18.632 17.791" transform="matrix(1.1 0 0 1.1 -13.506 -19.834)"/>
        <path fill="#784421" stroke-width="1.1" d="M89.416 113.287c-10.315-18.4-19.015-33.601-39.169-49.725-11.734-9.388 1.463-21.215 9.723-11.667 5.135 5.935 8.854 2.069 8.612-1.667-1.348-20.809 9.77-46.389 22.779-39.03 10.056 5.69-6.239 17.978-8.89 27.78-1.758 6.499 4.154 9.01 6.39 4.305 2.947-6.203 8.507-10.646 13.333-7.5 13.195 8.6-8.25 21.07-14.445 30.557-5.243 8.028 2.217 10.363 5.417 5.694 3.486-5.085 4.999-15.503 13.612-12.084 12.675 5.033-3.62 20.924-6.806 29.308-4.914 12.93 1.473 12.898 4.445 16.39-5.068 1.559-9.795 7.21-15.001 7.639zM164.696 113.597c4.95-17.068 18.283-31.412 41.925-47.678 12.38-8.518 1.078-21.156-8.103-12.49-5.708 5.386-8.035 1.46-7.417-2.233 3.44-20.567-1.601-46.55-15.286-40.54-10.58 4.645.492 15.745 2.013 25.784 1.26 8.315-5.59 8.755-5.416 2.657.196-6.887-3.142-13.922-8.285-11.263-16.727 8.646-.035 26.627 4.117 36.966 3.187 7.933-4.233 7.926-5.276 3.35-1.371-6.01-.56-15.339-9.475-12.806-13.118 3.727-1.162 22.36 1.162 31.023 3.584 13.36-1.098 15.827-4.407 19 4.885 2.063 9.312 7.28 14.448 8.23z"/>
    </g>
</svg>
