<svg xmlns="http://www.w3.org/2000/svg" cursor="default" viewBox="0 0 256 256">
    <path fill="#f55" fill-rule="evenodd" stroke="#000" stroke-width="1.772" d="M113.945 16.746c20.993 6.96 35.39 2.141 48.094-4.81l-8.724 49.213-40.153-.448z"/>
    <path fill="#ffb380" fill-rule="evenodd" stroke="#000" stroke-width=".886" d="M128.15 28.378c2.912.123 4.145 1.537 5.145 3.131 1.575-1.991 4.433-2.218 7.158-2.628l-.224 4.865-12.806-.447z"/>
    <path fill="#ffb380" fill-rule="evenodd" stroke="#000" stroke-width="1.329" d="M114.236 14.778l-.118 3.717c19.805 6.795 33.834 2.582 46.978-3.322l1.304-4.35c-1.17-.55-14.113 5.238-25.16 6.244-11.775 1.072-21.696-2.606-23.004-2.29z"/>
    <path fill="#ffe6d5" fill-rule="evenodd" stroke="#000" stroke-width="1.772" d="M30.284 199.28c-7.51 2.335-9.552 6.094-12.75 9.394 8.324 5.196 16.595 9.791 24.802 13.814 2.268 1.112 6.21 6.207 8.469 7.232 5.118 2.323 13.331 2.943 18.375 4.78 7.268 2.648 13.624 7.287 20.646 9.023 9.428 2.332 17.781 1.423 26.867 2.074 11.142.799 26.483 3.758 37.283 2.677 10.321-1.034 20.625-6.677 29.726-9.946 7.122-2.558 16.913-2.42 23.702-4.915 5.493-2.019 6.436-5.823 12.411-8.816-.448-2.554-3.29-8.347-9.234-11.672-62.373 30.646-122.092 22.401-180.297-13.646z"/>
    <path fill="#ff8080" fill-rule="evenodd" stroke="#000" stroke-width="1.772" d="M83.076 151.856c-16.681 19.642-33.68 35.116-55.7 48.542a193.498 193.498 0 0 0 20.14 12.663c3.596 1.964 4.794 4.817 8.507 6.543 4.249 1.975 12.616 2.888 17.034 4.523 7.13 2.638 13.69 6.526 20.998 8.275 8.497 2.034 16.011 1.014 24.726 1.621 9.993.697 22.783 3.71 33.069 2.819 9.605-.833 18.309-5.725 27.339-8.918 11.186-3.957 20.844-2.94 34.076-12.986-19.374-19.084-31.621-34.977-40.265-57.042l-3.355-8.948c-1.871-9.842-1.028-19.685 0-29.527l-11.632-46.752L90.14 71.14c-7.047 22.166 1.638 44.238-3.71 71.097z"/>
    <path fill-rule="evenodd" d="M117.518 165.914l-.669.016c-1.057 6.1-2.012 11.652-3.285 17.146 1.695-5.389 3.077-10.858 4.56-16.879l-.606-.283z"/>
    <path fill="none" stroke="#000" stroke-width=".443" d="M86.32 140.895c31.195 15.765 68.924 16.11 82.877 6.935M81.85 153.972c36.018 16.953 66.765 17.986 92.295 6.722"/>
    <path fill="#ffe6d5" fill-rule="evenodd" stroke="#000" stroke-width="1.329" d="M111.26 56.116c21.796 7.608 37.046 2.822 52.569-.895l.092 20.1c-22.235 7.739-42.67 5.188-59.595.48z"/>
    <path fill="#ffe6d5" fill-rule="evenodd" stroke="#000" stroke-width="1.329" d="M51.56 99.876c-5.56 7.594-3.414 15.602-2.057 23.568 27.416-8.575 35.341 2.708 27.364 9.016 15.724 8.745 35.914-6.557 46.03-15.185 2.387-7.041-2.225-14.407-2.238-21.049l8.248-64.682z"/>
    <path fill="#faa" fill-rule="evenodd" stroke="#000" stroke-width="1.329" d="M119.09 94.032c-.609 5.316-21.895 12.027-33.554 17.112 3.514-20.443-22.68-10.253-34.001-10.96 15.638-26.541 21.557-75.717 48.541-75.833 9.768 2.237 30.275 2.395 29.248 7.997-3.77 20.561-7.88 41.122-10.234 61.684z"/>
    <path fill="#ffe6d5" fill-rule="evenodd" stroke="#000" stroke-width="1.329" d="M212.87 93.384c4.55 7.61 2.793 15.637 1.683 23.62-22.446-8.594-35.736.816-29.205 7.138-12.874 8.764-34.94 1.812-43.221-6.835-1.955-7.057 6.786-14.472 6.797-21.128l-9.187-62.42z"/>
    <path fill="#faa" fill-rule="evenodd" stroke="#000" stroke-width="1.329" d="M150.855 95.597c-3.409-20.858-7.571-41.868-12.471-63.025-1.564-6.753 15.08-9.265 22.984-13.366 44.41 12.844 48.654 62.543 51.58 73.627-4.528-1.841-42.427-9.495-34.915 11.6-8.873-2.61-26.508-4.734-27.178-8.836z"/>
    <path fill="#ffe680" fill-rule="evenodd" stroke="#000" stroke-width=".886" d="M85.089 141.007l-4.139 10.626c14.021 6.577 26.504 10.73 37.81 12.928 2.252.438 3.898 2.587 6.06 2.874 1.958.259 4.44-1.332 6.328-1.192 16.32 1.216 30.113-1.897 42.747-7.564l-3.58-9.507c-12.044 5.903-24.736 7.848-36.93 7.254-2.327-.113-5.53 1.583-7.814 1.294-2.224-.28-3.528-2.541-5.695-2.97-13.409-2.65-25.586-7.953-34.787-13.743z"/>
    <path fill="#ccc" fill-rule="evenodd" stroke="#000" stroke-width=".886" d="M118.934 154.547l-1.336 11.605c-.223 1.943.57 2.424 1.582 2.609l9.965 1.82c1.935.353 3.688-.158 3.875-1.74l1.422-12.02c.198-1.671.114-2.555-1.342-2.769l-11.311-1.66c-1.826-.269-2.728 1.051-2.855 2.155zm3.979.328l8.133 1.343c1.112.166 1.179.85 1.028 2.145l-1.03 8.818c-.144 1.228-.699 1.624-2.176 1.35l-7.948-1.691c-.772-.144-1.378-.518-1.208-2.025l1.021-8.269c.184-1.485.984-1.868 2.18-1.671z"/>
    <path fill="#e6e6e6" fill-rule="evenodd" stroke="#000" stroke-width=".886" d="M122.054 160.52l-3.824-.459c-.721.686-.858 1.371-.237 2.057l3.954.395c.342-.757.427-1.619.107-1.994z"/>
    <path fill="#faa" fill-rule="evenodd" stroke="#000" stroke-width=".886" d="M92.92 159.147c.316.08 4.832 1.866 4.832 1.866.562-5.18 2.09-9.249 4.284-14.132l-4.606-1.53c-2.617 4.793-3.527 8.557-4.51 13.796z"/>
    <path fill="#faa" fill-rule="evenodd" stroke="#000" stroke-width=".814" d="M160.78 151.27c-.295.073-4.682 1.031-4.682 1.031 1.847 4.357 2.51 8.943 2.886 13.768l4.718-1.056c.011-4.936-1.395-9.159-2.923-13.744z"/>
    <circle cx="114.513" cy="159.073" r=".989" fill="#1a1a1a" stroke="#000" stroke-linecap="round" stroke-linejoin="round" stroke-width=".443"/>
    <ellipse cx="106.96" cy="156.878" fill="#1a1a1a" stroke="#000" stroke-linecap="round" stroke-linejoin="round" stroke-width=".443" rx="1.028" ry="1.008"/>
    <ellipse cx="99.961" cy="154.723" fill="#1a1a1a" stroke="#000" stroke-linecap="round" stroke-linejoin="round" stroke-width=".443" rx=".989" ry=".949"/>
    <path fill="#ffe6d5" fill-rule="evenodd" stroke="#000" stroke-width="1.329" d="M125.242 31.957c3.148.422 4.348-1.54 3.69-3.915-8.025-3.643-12.042-6.477-15.322-13.086-12.884 4.401-24.032 9.285-27.403 14.876 13.757-1.23 26.72.471 39.035 2.125zM141.348 27.035c-.529 1.703 5.215 5.438 8.5 4.139 9.673-3.826 12.814-11.755 32.212-2.349-3.77-5.267-7.384-10.465-13.757-16.889-1.166-1.175-6.265-1.637-7.718-.447-6.195 5.07-17.78 10.85-19.237 15.546z"/>
    <ellipse cx="131.778" cy="118.908" fill="#ffe6d5" stroke="#000" stroke-linecap="round" stroke-linejoin="round" stroke-width=".886" rx="7.043" ry="6.689"/>
    <ellipse cx="133.966" cy="93.361" fill="#ffe6d5" stroke="#000" stroke-linecap="round" stroke-linejoin="round" stroke-width=".886" rx="6.734" ry="6.492"/>
    <path fill-rule="evenodd" d="M88.454 156.937l-.42-.24c-6.262 11.295-15.264 23.344-26.984 29.384 11.907-5.773 21.219-17.66 27.824-28.904l-.42-.24zM103.52 162.434l-.64-.21c-4.652 14.11-14.342 23.551-21.742 35.404 7.631-11.384 17.887-20.856 23.014-34.964l-.632-.23zM152.475 166.942l-.528.098c.921 10.948 5.723 22.042 12.075 30.904-6.073-9.085-10.46-20.219-11.01-30.976l-.537-.026zM168.965 162.909c-.178.07-.356.14-.533.212 2.263 6.927 6.298 14.482 11.091 19.006-4.503-4.771-8.142-12.443-9.996-19.333l-.562.115zM134.704 168.03c-.072 8.481.136 16.413.372 25.05.17-8.646.368-16.562.846-25.011z"/>
    <path fill="#ccc" fill-rule="evenodd" stroke="#000" stroke-width=".886" d="M128.773 30.488c-7.358-.121-15.95 13.365-25.546 23.33l2.294 4.193c15.78-11.223 10.02-21.42 22.935-25.23z"/>
    <path fill="#ffe6d5" fill-rule="evenodd" stroke="#000" stroke-width=".886" d="M129.381 30.279c-7.17-.077-13.67 14.622-26.257 23.884l2.69 5.22c15.78-11.222 13.342-20.866 26.256-24.675z"/>
    <path fill="#ffe6d5" fill-rule="evenodd" stroke="#000" stroke-width=".886" d="M132.703 34.391c-4.23 22.004-6.567 25.89-8.85 48.137l-4.27-3.321c3.268-21.124 5.338-24.333 11.538-44.658zM133.494 34.866c2.804 14.504 6.285 29.347 10.281 44.447l4.746-1.898c-5.516-14.283-9.883-28.495-12.496-43.182z"/>
    <path fill="#fca" fill-rule="evenodd" stroke="#000" stroke-width=".886" d="M149.865 58.671c-5.021-.696-7.68-6.411-7.497-12.092.234-7.298-6.66-12.425-6.66-12.425 9.84.335 12.17 8.184 12.575 11.705.55 4.773-2.591 7.67 1.582 12.812z"/>
    <path fill="#ffe6d5" fill-rule="evenodd" stroke="#000" stroke-width=".886" d="M131.121 31.702c13.963-3.149 30.889 8.668 29.475 18.218-1.728 11.676-7.056 9.852-11.443 8.672 3.01-2.043 8.397-3.282 7.276-9.49-3.12-17.29-19.737-13.038-24.2-15.343z"/>
    <path fill="#ffe6d5" fill-rule="evenodd" stroke="#000" stroke-width=".886" d="M129.302 30.279c-.023.188.447 5.78 1.503 5.931 1.951.318 3.525-.496 5.062-1.423-1.716.142-3.057-.295-3.797-1.661-.309-1.87-1.668-2.164-2.768-2.847z"/>
    <path fill="none" stroke="#000" stroke-width=".886" d="M76.393 132.302c4.203.774 6.97-12.6 9.095-21.591"/>
    <path fill-rule="evenodd" d="M86.476 110.287c2.261-11.222 3.205-23.223 1.385-34.533 1.416 11.345.06 23.253-2.57 34.273zM178.641 104.393c-4.358-11.002-4.425-23.168-6.424-34.856 1.583 11.573 1.288 24.02 5.32 35.272z"/>
    <path fill="none" stroke="#000" stroke-width=".886" d="M184.856 124.23c-2.804-2.725-4.279-14.477-6.907-20.496"/>
</svg>
