<svg xmlns="http://www.w3.org/2000/svg" xmlns:xlink="http://www.w3.org/1999/xlink" cursor="default" viewBox="0 0 256 256">
    <defs>
        <linearGradient id="innoGrad2">
            <stop offset="0" stop-color="#ff8080"/>
            <stop offset="1" stop-color="#faa"/>
        </linearGradient>
        <linearGradient id="innoGrad1">
            <stop offset="0" stop-color="#f55"/>
            <stop offset="1" stop-color="#ff8080"/>
        </linearGradient>
        <radialGradient id="radialGradient5991" cx="332.932" cy="89.489" r="15.199" fx="332.932" fy="89.489" gradientTransform="matrix(.74257 -.0394 .06048 1.1396 -128.734 .386)" gradientUnits="userSpaceOnUse" xlink:href="#innoGrad1"/>
        <radialGradient id="radialGradient6001" cx="355.446" cy="76.014" r="20.142" fx="355.446" fy="76.014" gradientTransform="matrix(1.10414 .54271 -.38723 .78782 -212.121 -177.766)" gradientUnits="userSpaceOnUse" xlink:href="#innoGrad1"/>
        <radialGradient id="radialGradient6011" cx="356.14" cy="53.822" r="17.049" fx="356.14" fy="53.822" gradientTransform="matrix(.60566 -.70264 .64639 .55717 -98.76 267.064)" gradientUnits="userSpaceOnUse" xlink:href="#innoGrad1"/>
        <radialGradient id="radialGradient6021" cx="317.653" cy="50.717" r="16.353" fx="317.653" fy="50.717" gradientTransform="matrix(.71694 -.46468 .42148 .65029 -143.028 157.757)" gradientUnits="userSpaceOnUse" xlink:href="#innoGrad1"/>
        <radialGradient id="radialGradient6031" cx="314.434" cy="75.925" r="18.76" fx="314.434" fy="75.925" gradientTransform="matrix(.96922 -.06087 .03366 .53593 -205.533 51.164)" gradientUnits="userSpaceOnUse" xlink:href="#innoGrad1"/>
        <radialGradient id="radialGradient6041" cx="327.224" cy="61.462" r="10.362" fx="327.224" fy="61.462" gradientTransform="matrix(.6006 -.32272 .93 1.73081 -134.115 56.309)" gradientUnits="userSpaceOnUse" xlink:href="#innoGrad2"/>
        <radialGradient id="radialGradient6051" cx="341.279" cy="61.566" r="10.784" fx="341.279" fy="61.566" gradientTransform="matrix(.89433 .77884 -.97205 1.11619 -111.263 -277.842)" gradientUnits="userSpaceOnUse" xlink:href="#innoGrad2"/>
        <radialGradient id="radialGradient6061" cx="342.453" cy="70.283" r="12.712" fx="342.453" fy="70.283" gradientTransform="matrix(1.20948 .44763 -.30592 .8266 -257.191 -143.604)" gradientUnits="userSpaceOnUse" xlink:href="#innoGrad2"/>
        <radialGradient id="radialGradient6071" cx="334.421" cy="77.35" r="9.627" fx="334.421" fy="77.35" gradientTransform="matrix(-1.15815 -.25513 .21777 -.98857 496.438 236.683)" gradientUnits="userSpaceOnUse" xlink:href="#innoGrad2"/>
        <radialGradient id="radialGradient6081" cx="323.271" cy="70.276" r="12.466" fx="323.271" fy="70.276" gradientTransform="matrix(-1.02437 .07207 -.05168 -.73447 450.109 95.052)" gradientUnits="userSpaceOnUse" xlink:href="#innoGrad2"/>
    </defs>
    <path fill="#ffd5d5" fill-rule="evenodd" stroke="#000" stroke-width="1.159" d="M145.298 80.258l-.615 145.869c-.009 2.236 2.572 2.938 2.568.2l-.234-146.469zM108.161 88.644l-.615 145.868c-.009 2.236 2.572 2.939 2.568.2l-.234-146.468zM125.568 103.178l-.615 145.868c-.009 2.237 2.572 2.939 2.568.2l-.233-146.468z"/>
    <path fill="#f95" fill-rule="evenodd" stroke="#000" stroke-width="1.186" d="M151.358 120.513c2.82 2.557-1.777 6.613-12.205 5.69-7.936-.702-8.934-13.801-13.177-20.889z"/>
    <path fill="#f55" fill-rule="evenodd" stroke="#000" stroke-width="1.186" d="M117.965 126.877c1.463 5.294 12.664 4.876 16.172 2.247 2.84-2.129 1.751-7.51-.524-9.734z"/>
    <path fill="#ff8080" fill-rule="evenodd" stroke="#000" stroke-width="1.186" d="M125.826 104.865c-2.887 5.74-6.82 11.34-8.535 17.22-3.31 11.345 22.97 7.49 17.37-2.096z"/>
    <path fill="#ffb380" fill-rule="evenodd" stroke="#000" stroke-width="1.186" d="M126.126 104.565c6.364 5.142 14.69 12.124 17.744 13.702 4.69 2.423 12.95 6.583 5.316-.075-8.658-7.551-15.682-9.753-23.06-13.627z"/>
    <path fill-rule="evenodd" d="M126.126 105.988l-.58-.124c-.397 1.864-1.753 5.652-2.552 9.458-.353 1.677-.505 3.23-.372 4.745.179 2.028.838 3.554 1.482 4.714a9.968 9.968 0 0 1-1.248-4.726c-.025-1.485.245-2.987.713-4.589 1.065-3.649 2.718-7.39 3.137-9.355l-.58-.123z"/>
    <path fill-rule="evenodd" d="M126.2 106.287l-.55.222a29.68 29.68 0 0 1 2.066 8.6c.143 1.659.128 3.23-.047 4.636-.234 1.888-.717 3.175-1.169 3.988.454-.818 1.02-2.05 1.4-3.95.283-1.411.423-2.999.408-4.702-.037-4.135-.94-7.477-1.557-9.015l-.55.221zM129.645 107.036l-.21.554c.834.318 2.127.815 3.96 1.716a55.678 55.678 0 0 1 4.38 2.408 48.208 48.208 0 0 1 4.116 2.791c1.598 1.22 2.604 2.194 3.177 2.864-.587-.686-1.492-1.692-3.029-3.045a49.48 49.48 0 0 0-3.938-3.105 54.696 54.696 0 0 0-4.257-2.752c-1.779-1.032-3.13-1.659-3.989-1.985l-.21.554z"/>
    <path fill="#fd5" fill-rule="evenodd" stroke="#000" stroke-width="1.186" d="M163.825 32.137c4.147-6.252 9.034-11.949 12.177-18.954 2.956-6.586-11.116-14.566-14.612-.317-1.286 5.24-.888 11.774-1.165 17.789z"/>
    <path fill="#fd5" fill-rule="evenodd" stroke="#000" stroke-width="1.186" d="M163.931 31.713c5.4-7.377 10.244-15.588 16.2-22.13 8.946-9.824 19.76 6.389 11.436 10.165-9.614 4.362-17.609 9.1-26.365 13.66zM149.743 28.22c-.39-3.248-1.062-6.495-.106-9.742 2.294-7.793 11.8-5.87 12.706-3.071 2.167 6.7-1.212 11.55-2.965 16.942z"/>
    <path fill="#fd5" fill-rule="evenodd" stroke="#000" stroke-width="1.186" d="M159.802 32.878c9.743-3.676 15.872-10.474 29.224-11.012 7.492-.302 7.715 14.801-.106 14.824-9.6.028-19.2.07-28.8.106z"/>
    <path fill-rule="evenodd" d="M163.113 35.383c.288.225.577.45.865.677 3.507-1.835 7.776-3.725 12.065-5.17 4.458-1.503 8.957-2.533 12.666-2.514-3.719-.354-8.323.347-12.953 1.553-4.44 1.155-8.895 2.772-12.618 4.353-.011.368-.02.735-.025 1.101z"/>
    <path fill="#fd5" fill-rule="evenodd" stroke="#000" stroke-width="1.186" d="M155.037 38.914c7.354-2.565 14.015-6.98 22.13-7.518 9.409-.625 8.974 15.149 1.906 14.083-7.765-1.172-15.121-1.445-22.66-2.118z"/>
    <path fill="#fca" fill-rule="evenodd" stroke="#000" stroke-width="1.186" d="M124.778 58.646c-9.893-22.916-1.974-47.165 4.582-47.027 5.96.125 8.522 21.504 1.086 48.112zM139.122 61.73c19.614-15.438 45.082-14 46.63-7.628 1.407 5.793-18.6 13.75-46.226 13.385z"/>
    <path fill-rule="evenodd" d="M161.344 39.946l.143 1.055c8.003-.96 13.208-1.147 18.725-1.504-5.458-.354-10.76-.872-18.885-.616l.017 1.065zM154.877 27.821c.39.08.785.147 1.184.202 1.967-3.441 2.21-7.19 1.212-10.085.296 3.045-.764 6.31-2.977 8.851.205.334.398.678.58 1.032zM162.064 29.992c.355.155.721.294 1.096.417.873-1.089 1.638-2.457 2.3-3.93.743-1.648 1.381-3.484 1.907-5.318a52.784 52.784 0 0 0 1.237-5.37c.294-1.683.465-3.2.498-4.367a47.746 47.746 0 0 1-1.039 4.242 57.915 57.915 0 0 1-1.748 5.137c-.69 1.743-1.476 3.44-2.337 4.915-.777 1.33-1.595 2.446-2.425 3.24.181.336.353.682.511 1.034zM164.984 31.415c.373.166.745.335 1.114.505 3.464-4.064 7.4-7.553 11.037-10.41 3.722-2.923 7.086-5.15 9.263-6.642a88.916 88.916 0 0 0-9.95 5.687c-3.894 2.569-8.189 5.845-12.066 9.793.2.357.4.713.602 1.067z"/>
    <path fill="#fff6d5" fill-rule="evenodd" stroke="#000" stroke-width="1.331" d="M161.282 32.854l22.603-14.618c2.436-1.574 4.569.072 1.547 1.898L162.234 34.16z"/>
    <path fill="url(#radialGradient6011)" fill-rule="evenodd" stroke="#000" stroke-width="1.186" d="M132.157 65.303c2.052-10.281-.101-26.624 7.725-35.692 13.777-15.965 41.865 7.997 27.493 22.116-10.347 10.164-19.235 10.904-31.047 17.442z"/>
    <path fill="#fca" fill-rule="evenodd" stroke="#000" stroke-width="1.186" d="M132.045 73.117c21.724 12.293 30.054 36.404 24.744 40.253-4.826 3.5-19.777-11.995-29.917-37.695z"/>
    <path fill="url(#radialGradient6001)" fill-rule="evenodd" stroke="#000" stroke-width="1.186" d="M134.483 68.776c.009.06 31.613-8.95 39.392-3.923 9.31 6.017 2.397 28.932-8.185 32.23-10.795 3.366-27.108-14.502-33.936-20.292z"/>
    <path fill="#fca" fill-rule="evenodd" stroke="#000" stroke-width="1.186" d="M116.369 65.436c-24.94 1.007-44.73-15.09-42.247-21.16 2.256-5.518 21.216 1.18 43.38 17.673z"/>
    <path fill="url(#radialGradient6021)" fill-rule="evenodd" stroke="#000" stroke-width="1.186" d="M116.747 65.024c-9.777-8.81-21.678-11.072-28.137-22.851-7.587-13.838 19.43-27.742 25.92-17.565 7.954 12.472 5.97 23.107 10.232 35.982z"/>
    <path fill="#fca" fill-rule="evenodd" stroke="#000" stroke-width="1.186" d="M123.578 76.1c-9.177 23.212-31.907 34.79-36.452 30.063-4.132-4.297 9.151-21.244 33.206-34.834z"/>
    <path fill="url(#radialGradient6031)" fill-rule="evenodd" stroke="#000" stroke-width="1.186" d="M121.01 76.62l-3.24-7.503c-12.044-4.859-19.92-11.296-32.4-10.062-11.958 1.183-9.457 27.053 6.48 27.456 14.601.369 19.321-5.065 29.16-9.891z"/>
    <path fill="url(#radialGradient5991)" fill-rule="evenodd" stroke="#000" stroke-width="1.186" d="M132.777 76.79c3.593 9.039 9.022 10.573 8.527 19.611-1.099 20.066-36.263 14.276-34.788 2.217 1.246-10.195 9.405-14.562 17.394-22.51z"/>
    <path fill="url(#radialGradient6061)" fill-rule="evenodd" stroke="#000" stroke-width="1.186" d="M130.895 64.75c.006.037 19.63-5.557 24.46-2.436 5.78 3.736 1.488 17.965-5.083 20.013-6.703 2.09-16.832-9.005-21.071-12.6z"/>
    <path fill-rule="evenodd" d="M148.737 59.642c.1.52.202 1.04.304 1.56 1.563-.347 3.503-.822 5.554-1.333 2.11-.525 4.395-1.103 6.686-1.666 2.29-.564 4.585-1.113 6.706-1.582 2.12-.468 4.076-.857 5.683-1.097-1.63-.025-3.63.101-5.807.31-2.176.207-4.53.497-6.875.8-2.346.304-4.684.62-6.828.882-2.106.257-4.022.459-5.558.541.046.528.09 1.057.135 1.585z"/>
    <path fill="url(#radialGradient6051)" fill-rule="evenodd" stroke="#000" stroke-width="1.186" d="M129.451 62.594c1.274-6.384-.063-16.532 4.796-22.162 8.555-9.913 25.995 4.965 17.071 13.732-6.424 6.311-11.943 6.77-19.277 10.83z"/>
    <path fill="url(#radialGradient6041)" fill-rule="evenodd" stroke="#000" stroke-width="1.186" d="M119.883 62.42c-6.071-5.47-13.461-6.874-17.471-14.188-4.712-8.593 12.065-17.226 16.094-10.907 4.938 7.744 3.707 14.348 6.353 22.342z"/>
    <path fill-rule="evenodd" d="M111.001 61.14l.569-1.635c-1.135-.242-2.839-.739-4.79-1.365-1.954-.628-4.17-1.39-6.377-2.177-2.207-.787-4.408-1.601-6.334-2.333a178.813 178.813 0 0 1-4.706-1.85c.986.72 2.528 1.637 4.343 2.636 1.816.998 3.91 2.08 6.017 3.138a462.388 462.388 0 0 0 6.092 2.996c1.205.582 3.413 1.641 4.618 2.224z"/>
    <path fill="url(#radialGradient6081)" fill-rule="evenodd" stroke="#000" stroke-width="1.186" d="M123.952 68.872l-2.011-4.66c-7.48-3.016-13.792-6.264-21.541-5.498-7.425.735-5.872 16.798 4.023 17.048 9.067.23 13.42-3.894 19.53-6.89z"/>
    <path fill="url(#radialGradient6071)" fill-rule="evenodd" stroke="#000" stroke-width="1.186" d="M129.836 69.726c2.23 5.612 5.602 6.565 5.294 12.177-.682 12.46-22.516 8.864-21.6 1.377.774-6.33 5.84-9.042 10.8-13.977z"/>
    <path fill="#ffe6d5" fill-rule="evenodd" stroke="#000" stroke-width="1.186" d="M130.883 61.69c12.178-9.586 27.992-8.693 28.953-4.736.874 3.597-11.549 8.537-28.702 8.31z"/>
    <path fill-rule="evenodd" d="M139.228 82.478l-1.02.84c2.043 2.57 4.419 6.282 6.765 10.114 2.367 3.865 4.693 7.833 6.61 10.834-1.53-3.215-3.46-7.378-5.448-11.47-1.953-4.02-3.998-8.048-5.76-10.976-.383.218-.765.438-1.147.658z"/>
    <path fill="#ffe6d5" fill-rule="evenodd" stroke="#000" stroke-width="1.186" d="M129.776 66.657c13.488 7.633 18.66 22.603 15.364 24.993-2.997 2.173-12.28-7.448-18.576-23.405z"/>
    <path fill-rule="evenodd" d="M111.75 83.152l-1.351-.876a46.763 46.763 0 0 1-6.107 8.684c-2.371 2.678-5.131 5.238-8.49 8.065 3.662-2.384 6.804-4.557 9.611-6.91 2.819-2.364 5.318-4.924 7.688-8.088z"/>
    <path fill="#ffe6d5" fill-rule="evenodd" stroke="#000" stroke-width="1.186" d="M125.452 70.72c-4.814 14.731-18.466 22.763-21.46 20.004-2.723-2.508 4.871-13.51 19.268-22.839zM123.183 65.018c-15.467-.988-26.65-12.206-24.725-15.794 1.75-3.262 13.026 2.097 25.65 13.714z"/>
    <path fill-rule="evenodd" d="M127.099 42.197l1.638.099-.44-19.866-2.836 19.667z"/>
    <path fill="#ffe6d5" fill-rule="evenodd" stroke="#000" stroke-width="1.186" d="M125.527 59.118c-6.143-14.23-1.226-29.286 2.845-29.2 3.7.077 5.29 13.352.674 29.874z"/>
    <path fill-rule="evenodd" d="M124.179 64.658c.202-.419.403-.838.603-1.258-2.259-1.076-5.484-2.544-8.564-3.925a995.326 995.326 0 0 0-8.586-3.801c2.018 1.388 4.977 3.204 7.928 5.038 2.903 1.803 5.815 3.633 7.805 5.08l.814-1.134zM128.821 64.21l.42 1.207c.9-.426 2.133-.941 3.524-1.489 1.393-.548 2.95-1.131 4.513-1.698a252.476 252.476 0 0 1 4.558-1.603c1.42-.484 2.705-.906 3.682-1.21-1.024.096-2.36.31-3.845.592-1.485.28-3.122.629-4.753.993-1.63.365-3.26.747-4.729 1.096-1.937.46-1.852.443-3.79.903zM126.65 63.16l1.191-.019c-.125-1.567-.165-3.454-.167-5.51-.002-2.055.032-4.262.05-6.479.02-2.215.025-4.433-.038-6.502-.062-2.07-.191-3.987-.437-5.598.048 1.624-.023 3.537-.159 5.588-.136 2.052-.338 4.25-.555 6.449-.218 2.198-.45 4.398-.647 6.458-.196 2.05-.359 3.99-.43 5.634zM125.227 67.13l-.96-.6c-3.406 6.178-9.096 12.7-14.164 17.82 5.53-4.52 11.903-10.623 16.085-16.622zM128.821 67.878l-.968.842c1.728 1.663 3.909 3.992 5.976 6.53 2.063 2.532 4.029 5.292 5.324 7.827-.91-2.72-2.525-5.736-4.279-8.571-1.75-2.831-3.635-5.477-5.084-7.47z"/>
    <path fill="#ffe680" stroke="#000" stroke-linecap="round" stroke-linejoin="round" stroke-width=".507" d="M336.7 71.939l-2.33-1.016-1.683 1.906-.286-2.527-2.492-.503 2.045-1.511-.81-2.41 2.331 1.016 1.683-1.907.285 2.527 2.493.504-2.046 1.51z" transform="matrix(2.29213 .44486 -.40816 2.30392 -610.682 -242.626)"/>
    <path fill="#fff6d5" stroke="#000" stroke-linecap="round" stroke-linejoin="round" d="M337.054 72.875l-4.364.058-2.232-3.75 2.131-3.808 4.364-.058 2.232 3.75z" transform="matrix(.9581 .52653 -.53014 .95158 -157.567 -177.11)"/>
    <path fill="#fff" fill-rule="evenodd" d="M125.865 62.209c.986.292 1.715.9 2.112 1.573l.022.04c.66.353 1.252.98 1.466 1.88.217-.91.033-1.908-.561-2.799a4.523 4.523 0 0 0-3.039-.695z"/>
    <path fill="#f95" fill-rule="evenodd" stroke="#000" stroke-width="1.13" d="M149.42 154.818c2.58 2.496-1.535 6.672-10.983 5.995-7.19-.516-8.238-13.622-12.155-20.626z"/>
    <path fill="#f55" fill-rule="evenodd" stroke="#000" stroke-width="1.13" d="M119.268 161.992c1.382 5.272 11.515 4.587 14.661 1.867 2.547-2.201 1.503-7.57-.581-9.744z"/>
    <path fill="#ff8080" fill-rule="evenodd" stroke="#000" stroke-width="1.13" d="M126.141 139.74c-2.55 5.823-6.048 11.53-7.536 17.465-2.87 11.45 20.871 6.96 15.698-2.515z"/>
    <path fill="#ffb380" fill-rule="evenodd" stroke="#000" stroke-width="1.13" d="M126.409 139.433c5.816 5.002 13.429 11.803 16.21 13.312 4.271 2.317 11.793 6.29 4.81-.202-7.919-7.363-14.3-9.403-21.02-13.11z"/>
    <path fill-rule="evenodd" d="M126.424 140.859l-.556-.1c-.474 3.157-1.608 6.354-2.191 9.537-.292 1.593-.444 3.178-.304 4.758s.57 3.14 1.428 4.69a11.309 11.309 0 0 1-1.146-4.707c-.043-1.546.198-3.084.575-4.623.755-3.081 2.065-6.184 2.751-9.455z"/>
    <path fill-rule="evenodd" d="M126.496 141.157l-.53.2c.958 2.268 1.719 5.426 1.983 8.6.132 1.585.14 3.171-.012 4.652-.152 1.48-.465 2.858-.979 4.028.6-1.132 1.01-2.499 1.26-3.99.248-1.49.335-3.1.296-4.72-.079-3.232-.663-6.516-1.49-8.97zM129.62 141.826l-.206.526c1.076.372 2.314.924 3.617 1.603a46.839 46.839 0 0 1 3.982 2.346 44.465 44.465 0 0 1 3.746 2.734c1.144.937 2.155 1.883 2.935 2.78-.708-.958-1.656-1.976-2.749-2.993a43.237 43.237 0 0 0-3.608-2.984 49.614 49.614 0 0 0-3.89-2.622c-1.278-.774-2.518-1.434-3.62-1.917z"/>
    <path fill="#f95" fill-rule="evenodd" stroke="#000" stroke-width="1.131" d="M142.63 193.705c1.648 3.06-2.877 7.452-10.88 5.865-6.091-1.207-3.95-16.199-5.706-24.5z"/>
    <path fill="#f55" fill-rule="evenodd" stroke="#000" stroke-width="1.131" d="M114.917 199.254c-.031 6.113 8.88 6.21 12.23 3.39 2.712-2.282 3.058-8.476 1.763-11.129z"/>
    <path fill="#ff8080" fill-rule="evenodd" stroke="#000" stroke-width="1.131" d="M126.026 174.55c-3.556 6.399-7.904 12.585-10.568 19.204-5.14 12.77 16.41 9.718 14.144-1.502z"/>
    <path fill="#ffb380" fill-rule="evenodd" stroke="#000" stroke-width="1.131" d="M126.329 174.223c3.861 6.19 8.856 14.581 10.908 16.537 3.15 3.003 8.724 8.171 4.202.187-5.13-9.057-10.167-11.928-15.11-16.724z"/>
    <path fill-rule="evenodd" d="M126.011 175.846l-.547-.19c-1.138 3.584-2.842 7.113-4.066 10.672-.612 1.78-1.102 3.566-1.341 5.372-.239 1.808-.225 3.627.162 5.477-.292-1.865-.206-3.669.124-5.431.33-1.763.904-3.494 1.597-5.216 1.388-3.447 3.26-6.87 4.618-10.495z"/>
    <path fill-rule="evenodd" d="M126.003 176.191l-.577.046c.314 2.702.248 6.39-.25 10.045-.498 3.648-1.425 7.26-2.836 9.822 1.585-2.478 2.71-6.062 3.406-9.728.694-3.658.963-7.41.834-10.231zM128.547 177.222l-.328.476c.833.515 1.77 1.254 2.739 2.146.967.89 1.958 1.927 2.902 3.036 1.885 2.215 3.58 4.717 4.52 6.916-.764-2.278-2.305-4.905-4.068-7.276a37.74 37.74 0 0 0-2.743-3.293c-.923-.982-1.844-1.838-2.693-2.482z"/>
    <path fill="#f95" fill-rule="evenodd" stroke="#000" stroke-width="1.186" d="M151.194 228.25c2.82 2.557-1.777 6.613-12.204 5.69-7.936-.702-8.935-13.8-13.178-20.889z"/>
    <path fill="#f55" fill-rule="evenodd" stroke="#000" stroke-width="1.186" d="M117.8 234.615c1.464 5.293 12.665 4.876 16.173 2.246 2.84-2.129 1.752-7.51-.524-9.734z"/>
    <path fill="#ff8080" fill-rule="evenodd" stroke="#000" stroke-width="1.186" d="M125.663 212.602c-2.888 5.74-6.821 11.34-8.536 17.22-3.309 11.345 22.97 7.49 17.37-2.096z"/>
    <path fill="#ffb380" fill-rule="evenodd" stroke="#000" stroke-width="1.186" d="M125.962 212.303c6.364 5.14 14.69 12.124 17.745 13.701 4.69 2.423 12.95 6.583 5.316-.075-8.659-7.551-15.682-9.753-23.061-13.626z"/>
    <path fill-rule="evenodd" d="M125.962 213.725l-.58-.123c-.565 3.127-1.862 6.292-2.552 9.457-.345 1.585-.535 3.166-.402 4.747.132 1.58.586 3.147 1.512 4.712a10.518 10.518 0 0 1-1.216-4.728c-.032-1.541.25-3.065.681-4.587.864-3.046 2.343-6.1 3.137-9.354z"/>
    <path fill-rule="evenodd" d="M126.037 214.025l-.55.22c1.021 2.275 1.817 5.434 2.065 8.6.124 1.58.111 3.161-.077 4.632-.189 1.47-.553 2.838-1.139 3.993.674-1.111 1.14-2.463 1.431-3.945.29-1.482.404-3.088.377-4.707-.053-3.232-.665-6.533-1.557-9.015zM129.481 214.773l-.21.555c1.185.397 2.546.979 3.976 1.688a53.797 53.797 0 0 1 4.364 2.435 49.808 49.808 0 0 1 4.096 2.816c1.25.96 2.351 1.927 3.198 2.839-.774-.979-1.812-2.022-3.01-3.069a48.09 48.09 0 0 0-3.958-3.08 56.69 56.69 0 0 0-4.27-2.726c-1.405-.807-2.766-1.5-3.975-2.012z"/>
</svg>
