<svg xmlns="http://www.w3.org/2000/svg" cursor="default" viewBox="0 0 256 256">
    <g stroke="#000">
        <path fill="#f55" fill-rule="evenodd" d="M198.684 99.174c-5.789 5.104 29.149 38.233 31.694 36.492-.57-6.823-4.188-29.535-8.018-44.89zM20.771 139.138c-1.48.185 10.354-45.773 11.175-47.856 1.263-.316 29.168 7.26 29.168 7.26zM36.607 70.91c33.999 4.847 102.853 12.755 183.036.536-21.757 11.916-50.4 24.499-94.643 25.625-34.193-6.207-60.45-16.829-88.393-26.16z"/>
        <path fill="#ff8080" fill-rule="evenodd" d="M15.152 174.051c3.788 5.854 34.734 9.418 61.63 12.926 21.662 2.826 36.273 3.408 45.825 7.025 2.147-.294 1.431-7.745 2.147-11.617 1.489-2.962 3.099-3.507 4.924.253l1.894 12.627c7.288.695 11.433-2.111 32.1-6.562 12.76-2.747 33.47-3.98 50.398-6.951 10.134-1.778 17.94-5.556 24.579-6.817 1.975-3.217-6.327-19.068-6.945-29.673l-37.748-43.939L62.38 98.93l-42.085 42.211c-1.284 10.999-2.944 21.871-5.144 32.91z"/>
        <path fill="#faa" fill-rule="evenodd" d="M20.14 138.507c17.645-17.993 29.484-28.663 37.312-41.48l10.733 3.978c1.001.667-30.891 38.422-48.803 47.414.233-3.433.988-8.991.758-9.912zM188.015 102.836c-.648 4.995 36.933 39.774 44.32 47.414-.631-2.4-1.768-15.216-1.768-15.216-10.48-12.29-22.07-19.03-31.44-36.87z"/>
        <path fill="#faa" fill-rule="evenodd" d="M36.492 70.763c-3.431 6.9.806 9.212-4.672 20.33 17.838 4.736 31.36 9.845 44.964 12.951 18.23 4.163 35.082 7.128 52.261 7.216 34.485.178 67.23-8.173 93.678-20.26-3.17-9.016-1.673-13.07-2.51-19.605-.497-.815-23.806 8.035-49.904 13.549-15.279 3.228-32.1 4.491-44.304 4.184-45.46-1.146-88.933-18.993-89.513-18.365z"/>
        <path fill="none" stroke-width=".5" d="M128.214 111.268c-.868 22.586-2.286 44.805-1.25 68.66M15.784 170.516c21.219 7.324 56.874 12.3 108.212 16.541M131.046 190.857c32.616-11.731 76.498-11.285 106.845-23.624"/>
    </g>
</svg>
