<svg xmlns="http://www.w3.org/2000/svg" cursor="default" viewBox="0 0 256 256">
    <g stroke="#000" transform="translate(0 -796.362)">
        <path fill="#ff2a2a" fill-rule="evenodd" stroke-width=".5" d="M46.89 835.357c11.528 1.534 50.379 9.966 87.628 10.462 39.349.525 77.124-6.86 88.539-9.364.734 4.986-59.482 17.2-89.717 25.746-61.762-7.032-87.518-16.005-86.45-26.844z"/>
        <path fill="none" stroke-width=".25" d="M52.907 837.957c60.577 14.667 102.467 13.92 167.054 1.137"/>
        <path fill="#f55" fill-rule="evenodd" stroke-width=".5" d="M122.355 974.075c3.21-9.52 7.043-12.146 13.763-.252 0 0-7.324-26.39-7.702-25.885-.38.505-6.061 26.137-6.061 26.137zM201.135 860.326c1.263-.253 25.329-6.396 25.329-6.396 2.924 13.82 9.27 42.999 9.021 64.498z"/>
        <path fill="#ff8080" fill-rule="evenodd" stroke-width=".5" d="M127.91 947.559l3.915-76.772 73.236-11.111c10.563 19.357 27.238 40.38 30.81 57.83 4.525 32.198 3.198 62.799 4.798 94.197l-96.217 10.102c-6.307-24.409-12.542-48.849-16.541-74.246z"/>
        <path fill="#f55" fill-rule="evenodd" stroke-width=".5" d="M29.294 905.89c1.037-17.4 8.58-36.196 12.88-54.296l20.203 6.314c-11.012 16.014-20.523 33.958-33.083 47.982z"/>
        <path fill="#ff8080" fill-rule="evenodd" stroke-width=".5" d="M19.698 996.046c2.975-44.647 5.894-60.323 8.839-89.65 11.178-21.937 21.28-33.473 31.82-49.246l72.478 13.89-3.662 77.782c-8.04 40.652-12.032 49.664-17.299 67.427-30.413-6.445-44.612 2.167-92.176-20.203z"/>
        <path fill="#faa" fill-rule="evenodd" stroke-width=".5" d="M223.126 836.399c.248 1.223 3.097 15.267 3.4 17.847-23.988 10.281-90.688 22.966-92.491 21.024-1.705-.505-1.326-18.12-1.326-18.12 31.884-4.355 55.437-7.744 90.417-20.751z"/>
        <path fill="#faa" fill-rule="evenodd" stroke-width=".5" d="M134.633 857.42c1.206 1.648.872 12.306-.668 17.8-17.22-.327-61.606-11.683-92.37-22.246 2.268-7.754 4.598-13.303 5.186-17.66 28.8 7.877 52.435 16.093 87.852 22.107zM19.565 993.678c-.94.564-1.969 10.707-2.904 17.93.049 1.268 53.25 17.048 93.526 15.046 4.18-3.381 4.242-14.217 3.64-15.813-.757-.685-26.009-.322-51.741-4.715-14.771-2.522-22.513-5.76-42.52-12.448zM141.82 1013.713c-1.452 1.578 1.881 14.469 3.39 14.469 6.245 3.122 97.595-5.246 97.227-8.397.89-1.247-.577-13.247-1.192-14.63-.638-.999-25.07 3.935-50.245 5.805-24.897 1.849-48.937 2.053-49.18 2.753z"/>
        <path fill="#ff2a2a" fill-rule="evenodd" stroke-linejoin="round" stroke-width=".435" d="M125.918 864.815l-5.925.231 5.99 2.55"/>
        <ellipse cx="129.129" cy="866.128" fill="#b3b3b3" stroke-width=".5" rx="5.838" ry="5.882"/>
        <ellipse cx="129.129" cy="866.128" fill="#e6e6e6" stroke-width=".25" rx="2.262" ry="2.279"/>
        <path fill="none" stroke-dasharray="2,1" stroke-width=".25" d="M27.653 911.32c14.762-23.693 22.898-37.364 34.207-51.549M202.157 862.58c10.15 15.546 23.465 27.363 34.345 61.24M127.114 955.535c.872-26.79 1.99-52.845 2.565-80.53M129.718 931.13c-16.805-4.947-17.602-6.745-14.426-58.3"/>
    </g>
</svg>
