<svg xmlns="http://www.w3.org/2000/svg" xmlns:xlink="http://www.w3.org/1999/xlink" cursor="default" viewBox="0 0 256 256">
    <defs>
        <linearGradient id="linearGradient4573">
            <stop offset="0" stop-color="#ff8080"/>
            <stop offset="1" stop-color="#faa"/>
        </linearGradient>
        <linearGradient id="linearGradient4565">
            <stop offset="0" stop-color="#f55"/>
            <stop offset="1" stop-color="#ff8080"/>
        </linearGradient>
        <linearGradient id="linearGradient1381">
            <stop offset="0" stop-color="#f55"/>
            <stop offset=".228" stop-color="#ff8080"/>
            <stop offset=".836" stop-color="#ff8080"/>
            <stop offset="1" stop-color="#faa"/>
        </linearGradient>
        <linearGradient id="linearGradient4571" x1="-289.207" x2="-440.881" y1="873.818" y2="914.476" gradientTransform="translate(159.806 12.728)" gradientUnits="userSpaceOnUse" xlink:href="#linearGradient4565"/>
        <linearGradient id="linearGradient4579" x1="-345.422" x2="-303.349" y1="1006.754" y2="802.753" gradientTransform="translate(159.806 12.728)" gradientUnits="userSpaceOnUse" xlink:href="#linearGradient4573"/>
    </defs>
    <g stroke="#000">
        <path fill="url(#linearGradient4571)" fill-rule="evenodd" d="M-289.125 796.42s-14.26 7.161-20.234 12.697c-5.326 4.936-10.113 10.904-12.728 17.678-2.264 5.864-2.04 12.453-2.121 18.738-.383 29.81 1.585 59.935 7.778 89.096 4.815 22.676 12.376 44.969 22.627 65.76 13.124 26.62 49.144 74.247 49.144 74.247 59.45-26.408 115.264-152.83 172.888-229.456l-153.796-47.023z" transform="matrix(-.62001 0 0 .62001 -3.827 -482.6)"/>
        <path fill="#f55" fill-rule="evenodd" stroke-width=".62001" d="M131.947 206.255c-6.305-8.371 2.055-24.328 13.472-23.672-10.51 5.55-13.526 12.783-13.472 23.672zM162.534 199.55l3.798-.078c11.379-9.168-4.73-22.414-20.261-16.68l-.33 1.556c4.047-5.356 35.293 1.45 16.793 15.202z"/>
        <path fill="#ff8080" fill-rule="evenodd" stroke-width=".62001" d="M147.668 183.365c-1.78 2.296-6.034 2.025-8.726 1.595-3.655-.583-7.54 1.11-11.454 7.563-7.081 11.673-4.884 23.304-1.699 36.279l-1.863 4.713c-4.89-14.548-7.006-27.71 1.37-42.472 2.114-3.725 6.778-5.739 12.013-6.75 2.312-.446 5.226-.382 7.166-2.095 1.321.426 1.284.517 3.193 1.167z"/>
        <path fill="#ff8080" fill-rule="evenodd" stroke-width=".62001" d="M146.459 182.573c6.623 2.592 18.13 17.603 19.44 16.921l-5.32.418-14.847-17.152z"/>
        <path fill="#faa" fill-rule="evenodd" stroke-width=".62001" d="M142.494 181.005c.598-.128 10.927 5.074 13.062 10.649 4.063 10.605 4.747 24.567 8.49 35.29a1119.676 1119.676 0 0 1 7.073 20.91l-4.274-1.095s-.432-9.613-3.913-18.78c-4.664-12.281-7.503-22.773-10.354-35.63-1.324-5.971-9.669-11.634-10.084-11.344z"/>
        <path fill="#ff8080" fill-rule="evenodd" stroke-width=".62001" d="M147.674 183.516l-2.628-1.338c-4.282 1.585-9.948 2.372-12.652 4.868-6.474 5.974-4.942 16.592-4.03 20.29l3.725-.69s-1.41-12.709 1.88-17.208c2.808-3.842 13.705-5.922 13.705-5.922z"/>
        <path fill="url(#linearGradient4579)" fill-rule="evenodd" d="M-244.492 1074.25c12.468-7.2 34.654-14.94 43.32-29.312 8.174-13.556-3.635-64.693-6.01-99.703-1.24-18.263-9.403-56.661-18.208-80.256-4.071-10.91-15.055-29.87-23.335-45.255-6.971-12.955-40.482-23.334-40.482-23.334 25.673.816 43.986-1.913 63.64-3.89 24.138-2.428 31.827 4.322 45.608 6.718 42.068 7.313 67.417 29.213 109.416 45.223-.885 39.147-79.488 199.334-173.949 229.81z" transform="matrix(-.62001 0 0 .62001 -3.827 -482.6)"/>
        <path fill="none" stroke-dasharray="2,2" stroke-width=".310005" d="M145.64 182.267c9.254-12.945 20.068-26.626 28.04-41.091 6.916-12.55 12.435-26.603 15.228-40.251 3.61-17.636 6.46-36.077 6.477-50.876.018-17.906 1.416-26.095-21.458-38.441"/>
        <path fill="none" stroke-width=".310005" d="M171.602 11.298c-8.118.957-15.948 4.814-21.235 10.23-4.99 5.11-6.537 9.76-9.02 15.29-2.298 5.117-5.62 11.078-7.88 16.724-5.607 14.012-8.059 28.828-10.517 43.719-1.63 9.871-1.49 15.571-3.043 27.654-1.543 12.015-4.188 28.462-1.549 38.054 1.851 6.725 8.758 10.463 8.758 10.463"/>
    </g>
</svg>
