<svg xmlns="http://www.w3.org/2000/svg" cursor="default" viewBox="0 0 256 256">
    <path fill="#ff2a2a" fill-rule="evenodd" stroke="#000" d="M169.821 38.857c-.38 3.264-.654 7.088-5.925 11.124-4.306 3.297-12.954 8.06-19.432 12.09L131.786 53.5c12.537-5.257 24.58-11.835 38.035-14.643zM75.763 28.444c7.079 2.1 23.025 9.803 24.899 12.094 1.945 2.378 10.649 11.946 17.552 18.14-16.977-6.898-28.46-19.976-42.451-30.234z"/>
    <path fill="#f55" fill-rule="evenodd" stroke="#000" d="M105.893 61.179c-7.75.072-16.155-.235-22.143-4.643-13.127-9.665-38.79-25.993-39.704-28.552-2.961-8.293 19.111-9.032 23.476-8.045 3.211.727 30.133 21.368 38.192 30.347l11.965 6.071z"/>
    <path fill="#ff8080" fill-rule="evenodd" stroke="#000" d="M115.893 53.857c-8.605 3.56-32.53 17.515-35.536 21.786l34.107-1.362c4.16-4.174 10.045-8.742 15.213-11.907-3.556-7.801-8.772-7.674-13.784-8.517z"/>
    <path fill="#f55" fill-rule="evenodd" stroke="#000" d="M171.607 112.429c.069-7.47 2.024-12.004 3.214-17.143.248-1.069-2.299-3.353-3.61-5.899-1.361-2.642-1.514-5.556-2.64-7.137-1.728-2.428-18.964-10.898-28.13-15.78l22.068-2.78c6.74 3.38 13.363 6.832 21.492 9.411 3.499 1.11 15.582 9.098 22.428 14.506 5.66 4.473 7.541 11.863 6.798 17.637z"/>
    <path fill="#ff8080" fill-rule="evenodd" stroke="#000" d="M169.241 67.16c-2.946-3.387-20.38-7.603-27.634-10.089l-1.964 9.465 9.196 4.24z"/>
    <path fill="#f55" fill-rule="evenodd" stroke="#000" d="M55.736 93.825c.034 8.452 11.685 10.213 23.014 9.675 4.442-3.576 8.206-7.488 13.393-10.893 9.791-6.428 20.384-14.332 26.237-21.892-14.634.232-31.195-.499-37.182 4.057-5.757 6.285-24.875 14.154-25.462 19.053z"/>
    <path fill="#ff8080" fill-rule="evenodd" stroke="#000" d="M55.768 94.49c.059 11.25-.98 26.987-.232 32.581.363 2.722 6.61 14.522 15.048 32.08 13.182 27.429 34.553 64.53 56.916 86.135 34.861-32.955 38.3-34.838 58.638-73.303 1.462-2.767 18.197-29.993 20.555-36.74 3.517-10.067 6.113-20.019 6.878-32.1-63.215 20.663-149.54-3.195-157.803-8.654z"/>
    <path fill="#faa" fill-rule="evenodd" stroke="#000" d="M138.929 53.857c1.113.003 6.547 2.385 6.428 3.393-.053 3.687-3.124 6.48-5.273 9.545-3.242.984-5.992.197-8.834-.26z"/>
    <path fill="#f55" fill-rule="evenodd" stroke="#000" d="M131.209 51.557c3.893-3.144 9.678-5.022 14.145-7.978 26.72-17.681 55.86-32.122 61.075-29.008-27.81 16.898-55.169 40.629-69.465 41.072z"/>
    <path fill="#ff2a2a" fill-rule="evenodd" d="M57.972 123.661c11.912 6.199 36.393 12.1 64.302 14.676 5.001.461 10.113.816 15.284 1.046 23.726.043 48.435-2.535 69.049-9.331-20.893 5.634-45.558 6.98-68.953 5.752a326.753 326.753 0 0 1-15.156-.495c-27.712-1.547-52.285-6.413-64.526-11.648z"/>
    <path fill="#faa" fill-rule="evenodd" stroke="#000" d="M124.628 45.415c-4.47.415-11.545 5.603-13.537 10.317 4.687 2.34 9.33 3.474 14.989 4.52z"/>
    <path fill="#ffd5d5" fill-rule="evenodd" stroke="#000" d="M123.482 45.375c1.75 5.533 1.34 16.588-.625 22.054 2.878.809 5.43 2.267 9.831.03 2.032-4.912 4.795-9.092 8.257-12.573-5.977-3.652-12.679-11.26-17.463-9.511z"/>
    <path fill-rule="evenodd" d="M92.549 92.915c2.975-1.898 4.661-4.095 6.44-6.383 1.781-2.288 3.708-4.744 7.172-7.228-3.57 2.354-5.63 4.707-7.557 6.91-1.928 2.206-3.657 4.178-6.573 5.845zM174.813 96.983c1.354-1.436 1.88-3.133 1.98-4.835.099-1.698-.224-3.457-.632-5.077.248 1.67.392 3.407.135 5.023-.258 1.614-.907 3.047-2.18 4.173zM169.576 84.638l.401-.097c-.769-3.162-1.498-6.492-3.191-9.255 1.435 2.865 1.887 6.22 2.382 9.416l.408-.064zM185.156 73.41c-.162-.148-.321-.3-.477-.452-6.162.694-12.81-1.239-18.875-2.583 5.878 1.638 12.61 3.95 18.96 3.572.134-.178.265-.356.392-.536zM208.334 88.894c-1.36.001-2.523-.6-3.74-1.416-1.202-.805-2.37-1.753-3.701-2.282 1.245.673 2.286 1.734 3.399 2.68 1.1.937 2.347 1.833 3.981 2.016zM105.838 49.833c-6.964.207-14.798-.369-21.195-3.833 6.272 3.777 14.124 4.708 21.2 4.833zM142.192 55.515c5.814-.738 11.194-3.425 16.38-5.765-5.393 2.065-10.774 4.377-16.478 4.77zM155.572 48.173c.138.089.272.177.403.265 3.165-.322 4.026-.568 7.24-1.545-3.27.79-4.138.837-7.282.963-.116.105-.237.211-.361.317zM64.931 85.834l.171.47c6.985-2.726 15.054-3.537 20.382-9.101-5.512 5.278-13.506 5.705-20.724 8.161l.171.47z"/>
    <path fill="none" stroke="#000" stroke-dasharray="1.5,.5" stroke-width=".5" d="M55.536 124.036c5.613 6.232 19.622 38.842 32.09 59.352 19.743 32.477 21.974 35.347 40 56.595 7.635-6.266 24.07-23.063 30.804-30.698 11.365-12.886 20.042-31.04 27.624-43.868 12.557-21.25 18.001-32.14 20.94-32.736"/>
</svg>
