<svg xmlns="http://www.w3.org/2000/svg" cursor="default" viewBox="0 0 256 256">
    <path fill="#ff8080" fill-rule="evenodd" stroke="#000" stroke-linecap="round" stroke-linejoin="round" stroke-width=".30699000000000004" d="M135.945 190.989c1.45-.781 2.678-1.255.642-7.67 2.147 0 2.398-.196 4.435-.085 1.032 2.706 1.701 5.607.78 8.118 1.786-3.822 4.073-3.906 4.575-6.193 3.069 2.985-.641 4.965-1.924 7.28 3.849.503 5.718-6.331 10.683-4.77-3.096 2.372-.725 5.663-7.503 8.118 2.594-.39 5.3-1.953 7.587.279-3.822 1.562-5.997 2.175-6.249 3.905 0 0 1.646 1.032 5.133-.474 2.176-.92 6.109.25 6.862 2.092-1.702-.53-5.44.14-7.057 2.036-1.144 1.395-5.495 0-5.495 0 2.259 1.283 5.3 1.45 5.802 5.132-3.906-2.621-5.607-1.813-7.532-1.31 0 0 .81 1.701 4.686 3.207 3.627 1.395 2.65 5.105 2.65 5.105s-2.008-2.036-5.355-2.817c-3.738-.865-4.073-3.46-4.073-3.46.223 2.483 1.45 4.66-.725 7.923-.558-2.762-1.534-5.16-3.236-6.862 0 0-1.032 2.203.084 5.355 1.506 4.185-1.87 6.528-1.87 6.528s.168-3.376-1.561-5.858c-1.785-2.566-.474-5.914-.474-5.914-2.12 1.813-4.1 3.682-4.742 5.886-1.702-1.172-1.395-3.654.892-7.42 0-.056-1.618-.083-2.984 3.543-1.45 3.737-6.75 3.933-6.472 3.375.614-2.064 2.622-1.925 3.487-5.941.418-2.065 3.18-3.99 3.18-3.99-2.65-.53-4.798-.083-6.974.307.39-1.31.196-2.677 5.914-3.486.195-1.535-3.292-1.032-5.356.083-1.869.977-4.602.307-6.387-2.231 0 0 3.04.697 4.128-.335 2.455-2.37 5.049-3.096 7.67-1.98-1.199-3.85-5.132-2.316-5.41-5.16 2.008-1.48 6.108 2.733 7.475 1.394-.363-.837-1.144-2.538-3.766-2.873-2.399-.335-3.57-3.822-3.487-6.053 2.092 1.534 2.176 2.594 5.272 3.18 2.204.418 3.04 1.84 4.352 2.957 1.339-2.344.25-4.352-.446-7.42 1.896.502 3.012 2.343 2.789 6.499z"/>
    <path fill="#faa" stroke="#000" stroke-linecap="round" stroke-linejoin="round" stroke-width=".30699000000000004" d="M149.836 200.947c0 5.914-4.853 10.712-10.878 10.712-5.998 0-10.851-4.798-10.851-10.712 0-5.913 4.853-10.711 10.85-10.711 6.026 0 10.88 4.798 10.88 10.711z"/>
    <path fill="#f95" stroke="#000" stroke-linecap="round" stroke-width=".27864" d="M147.633 201.003c0 4.91-3.961 8.898-8.815 8.898-4.881 0-8.814-3.989-8.814-8.898 0-4.91 3.933-8.898 8.814-8.898 4.854 0 8.815 3.989 8.815 8.898z"/>
    <path fill="#ffe6d5" stroke="#000" stroke-linecap="round" stroke-width=".2511" d="M146.963 201.115c0 4.435-3.57 8.033-7.95 8.033-4.407 0-7.95-3.598-7.95-8.033 0-4.436 3.543-8.034 7.95-8.034 4.38 0 7.95 3.598 7.95 8.034z"/>
    <path fill="#ffb380" fill-rule="evenodd" stroke="#000" stroke-width=".16767" d="M137.144 204.685c.056.112-.14 4.156-.14 4.156 1.228.363 2.456.307 3.655.056l-.53-4.24z"/>
    <path fill="#fca" fill-rule="evenodd" stroke="#000" stroke-width=".16767" d="M141.97 202.76l4.742.056c.14-1.143.39-2.26-.028-3.487l-4.798.447z"/>
    <path fill="#ffb380" fill-rule="evenodd" stroke="#000" stroke-width=".16767" d="M140.436 197.377l.084-4.073c-1.172-.195-2.176-.167-3.097.028l-.167 3.961z"/>
    <path fill="#ffe6d5" fill-rule="evenodd" stroke="#000" stroke-width=".16767" d="M135.136 202.705l-3.85.111a9.442 9.442 0 0 1-.027-3.542l3.738-.028z"/>
    <path fill="#ffe6d5" fill-rule="evenodd" stroke="#000" stroke-width=".16767" d="M137.228 197.237l-2.287 1.953.167 3.515 1.869 1.952h3.375l1.646-1.73-.056-3.542-1.339-2.148z"/>
    <path fill="#fca" fill-rule="evenodd" stroke="#000" stroke-width=".16767" d="M137.005 204.74c.14-.11 1.534-3.263 1.534-3.263l-3.375 1.2-2.706 2.873c.53.753 1.032 1.506 2.148 2.092z"/>
    <path fill="#ffb380" fill-rule="evenodd" stroke="#000" stroke-width=".16767" d="M138.65 201.393c0-.055 1.814-4.1 1.814-4.1l2.064-3.32c1.45.81 2.622 1.814 3.32 3.125l-3.99 2.343z"/>
    <path fill="#fca" fill-rule="evenodd" stroke="#000" stroke-width=".16767" d="M138.595 201.393c-.084-.027-3.682-2.259-3.682-2.259l-2.204-2.9c.753-.782 1.395-1.647 2.622-2.149l1.953 3.18z"/>
    <path fill="#ffb380" fill-rule="evenodd" stroke="#000" stroke-width=".16767" d="M138.734 201.533l1.423 2.985 2.845 3.486c1.172-.697 2.064-1.59 2.622-2.594l-3.765-2.678z"/>
    <path fill="#fff" fill-rule="evenodd" d="M133.407 195.954c.474.698.753 1.2.976 1.618.25.39.418.753.67 1.227.139-.083.25-.167.39-.223-.028.028.362-.362.335-.307-.39-.39-.67-.67-1.032-.976a29.706 29.706 0 0 1-1.34-1.339zM138.037 193.5c-.112.362-.223.864-.335 1.394 0-.056.028.307.028.251.056.614.14 1.228.223 1.73.084-.502.196-1.228.28-1.73 0-.056.027-.14.027-.223-.083-.53-.14-1.032-.223-1.423zM131.538 199.831c.418-.027.948-.139 1.45-.279.028 0 .084 0 .112-.028.502.084 1.004.14 1.394.251-.39.112-.864.251-1.338.39-.056 0-.084-.028-.14-.028-.53-.056-1.088-.14-1.478-.306zM138.037 205.215c-.056.167-.14.418-.223.725-.056.196-.112.447-.167.67.027.083.027.167.055.25.028.308.084.642.14.921.055.28.111.53.167.726.056-.196.112-.447.167-.726.056-.279.112-.613.196-.92 0-.028.028-.223.028-.223-.056-.251-.084-.502-.14-.698-.084-.307-.14-.558-.223-.725zM143.142 207.363a38.768 38.768 0 0 1-.475-.725c-.195-.28-.39-.586-.585-.92a12.108 12.108 0 0 1-.586-.894c.25.391-.502-.78-.251-.39-.028-.028-.056-.084-.084-.112l-.418.084c-.056.14-.112.279-.14.418l.084.084c.084.084.195.167.307.307.223.223.474.502.753.753.251.28.53.558.753.809.251.251.474.446.642.586zM133.546 205.633c.418-.613.893-1.227 1.255-1.729.084-.14.168-.251.251-.363.084-.083.196-.14.28-.223.083-.056.167-.111.222-.14.084-.027.112-.055.168-.083 0 .056-.028.112-.056.167-.028.084-.056.168-.112.251-.055.112-.111.196-.195.335-.084.084-.195.168-.307.28-.446.418-1.004.947-1.506 1.505zM140.687 197.6l-.14-.056c-.418.92-.306.725-.864 1.953-.223.502-.698 1.506-.698 1.478.14-.251.39-.67.837-1.395.447-.753.81-1.422 1.004-1.924zM146.489 199.97c-.251.03-.586.085-.92.14-.363.084-.754.14-1.144.224-.39.083-.81.167-1.2.223h-.028a5.036 5.036 0 0 1-1.032-.251c.28-.112.642-.251.977-.39l.028.027c.39 0 .808-.028 1.199-.028.39 0 .809-.027 1.172 0 .362 0 .697 0 .948.056z"/>
    <path fill="#ff8080" fill-rule="evenodd" stroke="#000" stroke-width=".57" d="M138.198 169.29C11.756 132.978 3.611 91.97 14.758 70.33c17.325-33.632 87.015-33.591 114.634-37.553l8.709-1.464-3.786 2.151 4.257 1.337-9.416-.302c-28.922 2.163-98.82 4.945-113.264 36.399-24.653 53.685 101.628 92.306 122.68 96.59 36.814-7.729 101.588-35.478 102.157-90.612.28-27.137-40.807-40.213-97.685-42.377l-5.473-.129-2.455-1.043 2.632-1.325 5.06.775c10.412 2.372 99.669 2.153 99.346 43.877-.582 75.079-111.048 93.017-103.956 92.636z"/>
    <path fill="#ff8080" stroke="#000" stroke-linecap="round" stroke-linejoin="round" stroke-width=".539" d="M139.006 177.811a3.472 3.391 0 0 0-3.472 3.391 3.472 3.391 0 0 0 3.472 3.391 3.472 3.391 0 0 0 3.47-3.391 3.472 3.391 0 0 0-3.47-3.391zm-.06 1.399a1.94 1.916 0 0 1 1.94 1.916 1.94 1.916 0 0 1-1.94 1.916 1.94 1.916 0 0 1-1.94-1.916 1.94 1.916 0 0 1 1.94-1.916z"/>
    <path fill="#ff8080" fill-rule="evenodd" stroke="#000" stroke-width=".539" d="M134.824 166.65c.377-.624 7.805-.755 7.805-.161-.117 5.133-1.864 15.022-3.626 15.02-1.78-.002-4.473-11.34-4.179-14.859z"/>
</svg>
