<svg xmlns="http://www.w3.org/2000/svg" cursor="default" viewBox="0 0 256 256">
    <path fill="#ff8080" fill-rule="evenodd" stroke="#000" stroke-width=".57" d="M138.198 169.29C11.756 132.978 3.611 91.97 14.758 70.33c17.325-33.632 87.015-33.591 114.634-37.553l8.709-1.464-3.786 2.151 4.257 1.337-9.416-.302c-28.922 2.163-98.82 4.945-113.264 36.399-24.653 53.685 101.628 92.306 122.68 96.59 36.814-7.729 101.588-35.478 102.157-90.612.28-27.137-40.807-40.213-97.685-42.377l-5.473-.129-2.455-1.043 2.632-1.325 5.06.775c10.412 2.372 99.669 2.153 99.346 43.877-.582 75.079-111.048 93.017-103.956 92.636z"/>
    <path fill="#ff8080" fill-rule="evenodd" stroke="#000" stroke-width=".40936599" d="M132.101 202.797l-1.416-1.867c-.955-.153-1.913-.309-1.87.537 0 0 1.02.978.853 1.048-.167.07-1.11.103-1.11.103l-1.363-1.487c-.782-.459-2.766-.63-2.384.09l.786 1.292-1.614-.11c-1.045.7-.889 1.311-.095 1.875l2.097-.068-1.19 1.18c-.468.988.87.72 1.896.67l1.662-1.38 1.365-.037-.958 1.312c-.068.36-.251.767 1.734.265l1.453-1.441 4.113-.05.02-1.777zM134.534 209.34l-2.328.265c-.62.743-1.243 1.488-.493 1.882 0 0 1.362-.378 1.336-.199-.025.18-.478 1.007-.478 1.007l-1.974.414c-.794.437-1.955 2.056-1.14 2.095l1.512-.016-.92 1.332c.07 1.255.674 1.433 1.564 1.04l1.013-1.839.406 1.625c.611.908 1.064-.379 1.545-1.288l-.338-2.133.665-1.192.64 1.494c.274.241.53.607 1.112-1.356l-.497-1.985 2.057-3.562-1.517-.925zM141.003 210.487l-.91 2.16c.345.903.69 1.81 1.4 1.35 0 0 .337-1.372.481-1.262.144.11.644.91.644.91l-.606 1.924c-.007.906.836 2.711 1.269 2.02l.726-1.327.711 1.453c1.129.556 1.58.115 1.672-.854l-1.107-1.782 1.616.44c1.09-.088.19-1.113-.367-1.977l-2.025-.75-.714-1.164 1.615.174c.345-.12.79-.165-.637-1.633l-1.974-.54-2.1-3.537-1.548.871zM145.455 205.11l1.393 1.884c.953.165 1.91.333 1.876-.514 0 0-1.007-.99-.84-1.058.168-.068 1.111-.089 1.111-.089l1.345 1.504c.776.469 2.758.666 2.385-.06l-.77-1.302 1.613.131c1.054-.687.905-1.3.119-1.874l-2.098.042 1.204-1.164c.481-.983-.86-.733-1.887-.695l-1.679 1.359-1.365.02.974-1.3c.073-.359.261-.764-1.73-.287l-1.471 1.422-4.114-.001-.042 1.776zM143.387 198.597l2.307-.408c.572-.78 1.148-1.561.375-1.908 0 0-1.335.46-1.321.28.014-.18.415-1.034.415-1.034l1.945-.535c.765-.485 1.824-2.173 1.008-2.161l-1.508.11.835-1.387c-.146-1.25-.76-1.389-1.625-.94l-.896 1.896-.507-1.596c-.666-.869-1.038.444-1.462 1.38l.47 2.109-.591 1.23-.73-1.45c-.289-.225-.567-.574-1.027 1.421l.619 1.951-1.833 3.682 1.571.829zM136.454 197.774l.827-2.192c-.378-.89-.756-1.784-1.45-1.297 0 0-.285 1.383-.432 1.28-.148-.105-.678-.886-.678-.886l.533-1.945c-.026-.906-.936-2.679-1.343-1.971l-.676 1.353-.765-1.426c-1.149-.513-1.583-.055-1.639.916l1.173 1.74-1.631-.38c-1.087.13-.149 1.12.44 1.962l2.053.674.757 1.136-1.621-.113c-.34.133-.783.194.698 1.608l1.993.465 2.23 3.456 1.515-.928z"/>
    <path fill="#ff8080" fill-rule="evenodd" stroke="#000" stroke-width=".40936599" d="M137.979 201.008l.076-10.157-4.298-2.942c-.231-.874.085-1.582 1.382-1.28l3.044 2.2.026-1.074-2.15-1.28c-.499-.123-.328-1.462 1.024-1.15l.819.562v-2.123h2.251v2.302l1.203-.665c1.357-.509 1.29.534 1.049.921l-2.252 1.33.026 1.178 3.147-1.894c1.094-.027 1.507.378 1.1 1.305l-4.298 2.661-.307 10.26zM140.62 201.654l9.14-4.43.018-5.029c.681-.594 1.456-.624 1.76.672l.091 3.577.975-.453-.086-2.52c-.11-.502 1.166-.942 1.485.408l.14 1.01 1.34-.711c1.223.413 1.41 1.129.998 2.019l-1.502.79.822.552c1.058.992.093 1.394-.36 1.349l-1.884-1.2-1.044.545 3.27 1.753c.51.968.33 1.518-.682 1.564l-4.469-2.445-9.334 4.268zM142.2 204.704l7.87 6.422 4.568-2.104c.826.367 1.18 1.056.132 1.878l-3.204 1.591.822.693 2.248-1.14c.41-.311 1.345.66.256 1.52l-.856.551 1.21.917c.14 1.283-.43 1.753-1.41 1.755l-1.35-1.029-.155.979c-.454 1.377-1.225.672-1.375.24l.294-2.213-.934-.717-.21 3.705c-.664.87-1.24.938-1.707.04l.333-5.083-7.805-6.665zM139.787 206.697l-.068 10.158 4.503 2.24c.232.873-.083 1.58-1.38 1.28l-3.25-1.499-.024 1.075 2.298 1.036c.5.124.33 1.462-1.023 1.152l-.966-.32.044 1.516c-.911.914-1.635.765-2.252.004l-.044-1.696-.86.493c-1.357.51-1.291-.533-1.05-.92l1.909-1.16-.027-1.176-3.018 2.158c-1.094.03-1.507-.376-1.101-1.304l4.169-2.927.298-10.26zM136.956 206.108l-8.867 4.955.275 5.022c-.645.632-1.416.708-1.795-.569l-.3-3.565-.947.51.233 2.51c.139.494-1.109 1.008-1.507-.321l-.198-1-1.297.788c-1.245-.341-1.473-1.044-1.113-1.957l1.453-.876-.853-.504c-1.113-.929-.174-1.386.282-1.368l1.95 1.088 1.01-.604-3.367-1.56c-.565-.936-.417-1.496.59-1.6l4.604 2.18 9.07-4.806zM136.338 203.324l-9.036-4.64-4.029 3.01c-.884-.186-1.374-.787-.52-1.81l2.801-2.224-.948-.506-1.96 1.584c-.336.39-1.454-.365-.568-1.432l.722-.718-1.374-.645c-.405-1.225.055-1.804 1.014-2.01l1.533.725-.052-.99c.157-1.441 1.058-.913 1.295-.522l.174 2.226 1.063.506-.567-3.667c.468-.99 1.016-1.176 1.66-.395l.734 5.04 9.024 4.892z"/>
    <path fill="#faa" stroke="#000" stroke-linecap="round" stroke-linejoin="round" d="M384.4 943.114l-4.606 2.697-5.338.033-4.64-2.641-2.696-4.607-.033-5.338 2.641-4.64 4.607-2.697 5.338-.032 4.64 2.641 2.697 4.607.032 5.338z" transform="matrix(.3886 .00002 -.00002 .39042 -7.5 -161.322)"/>
    <path fill="#fff" fill-rule="evenodd" d="M139 200.909c.562.124.997.343 1.325.62.185.155.336.328.458.513.13.109.251.233.363.372.518.647.802 1.582.885 2.677.094-1.068-.001-2.116-.437-2.963a3.24 3.24 0 0 0-.342-.532 3.048 3.048 0 0 0-.715-.423c-.455-.19-.966-.278-1.537-.264z"/>
    <path fill="#ff8080" stroke="#000" stroke-linecap="round" stroke-linejoin="round" stroke-width=".5386500000000001" d="M139.006 177.811a3.472 3.391 0 0 0-3.472 3.391 3.472 3.391 0 0 0 3.472 3.391 3.472 3.391 0 0 0 3.47-3.391 3.472 3.391 0 0 0-3.47-3.391zm-.06 1.399a1.94 1.916 0 0 1 1.94 1.916 1.94 1.916 0 0 1-1.94 1.916 1.94 1.916 0 0 1-1.94-1.916 1.94 1.916 0 0 1 1.94-1.916z"/>
    <path fill="#ff8080" fill-rule="evenodd" stroke="#000" stroke-width=".5386500000000001" d="M134.824 166.65c.377-.624 7.805-.755 7.805-.161-.117 5.133-1.865 15.022-3.626 15.02-1.78-.002-4.473-11.34-4.179-14.859z"/>
</svg>
