<svg xmlns="http://www.w3.org/2000/svg" cursor="default" viewBox="0 0 256 256">
    <path fill="none" stroke="#000" stroke-width="3.072" d="M130.899 31.446s-2.307-.939-5.084-.909c.003.486.378 1.033.327 1.55 2.007-.282 3.314-.56 4.757-.64z"/>
    <path fill="none" stroke="#000" stroke-width="3" d="M127.135 169.426c-29.181-6.45-189.918-116.372-6.514-137.951M130.86 31.475c142.613 6.872 47.058 129.87-2.867 138.008"/>
    <path fill="none" stroke="#ff8080" stroke-width=".849" d="M131.24 31.521s-2.587-.918-5.567-.888c.003.485.193 1.075.35 1.548 2.155-.282 3.67-.58 5.218-.66z"/>
    <path fill="none" stroke="#000" stroke-width="3" d="M120.82 31.43c1.545-.876 3.16-1.246 4.663-1.215l.3 2.37c-2.023.198-3.199-.488-4.963-1.154z"/>
    <path fill="none" stroke="#ff8080" d="M127.135 169.426c-29.181-6.45-189.918-116.372-6.514-137.951M130.86 31.475c142.613 6.872 47.058 129.87-2.867 138.008M120.63 31.494c1.545-.877 3.16-1.246 4.663-1.216l.301 2.37c-2.023.198-3.2-.488-4.963-1.154z"/>
    <path fill="#ff8080" fill-rule="evenodd" stroke="#000" stroke-width=".374" d="M126.68 31.643c.389-.042.073.904.05.903-1.625-.047-2.792-1.24-1.886-1.676.186.186 1.217.773 1.835.773z"/>
    <path fill="#ff8080" fill-rule="evenodd" stroke="#000" d="M126.042 197.897l.898-30.407 3.356-.168-.236 30.5z"/>
    <path fill="#f55" fill-rule="evenodd" stroke="#000" stroke-width=".994" d="M129.371 216.912c-9.85-5.887-24.143-16.78-24.588-29.545-.43-12.347 13.526-19.058 23.648-5.241 7.067-13.974 24.339-7.394 24.504 4.99.168 12.669-15.12 23.45-23.564 29.796z"/>
    <path fill="#ff2a2a" fill-rule="evenodd" d="M129.345 216.314c-13.891-8.175-29.665-22.82-22.234-36.91-.472 6.01 2.466 15.151 6.87 20.133 8.4 9.501 11.644 12.686 15.364 16.777z"/>
    <path fill="#fff" fill-rule="evenodd" d="M132.544 178.346c6.05-3.11 11.216-1.877 14.168 1.17.053.043.105.088.158.133 3.281 2.844 4.873 8.161 2.599 14.221 2.673-5.81 1.794-11.595-1.632-15.223a11.017 11.017 0 0 0-.165-.17c-3.784-3.174-9.387-3.608-15.128-.131zM129.278 180.16c.193-6.371.153-8.544.356-12.235l-.623-.125-.623.127c.215 3.745.666 5.864.89 12.232zM111.314 177.018c2.032-1.46 5.057-1.205 7.738-.042.378.122.753.261 1.122.418 3.095 1.313 5.788 3.813 6 6.664.073-2.927-2.447-5.77-5.63-7.443-.378-.198-.764-.38-1.157-.544-3.027-.948-6.19-.807-8.073.947z"/>
</svg>
