<svg xmlns="http://www.w3.org/2000/svg" cursor="default" viewBox="0 0 256 256">
    <g fill-rule="evenodd">
        <path fill="#f55" stroke="#000" d="M77.474 166.192c18.62-7.135 30.86-51.923 29.875-78.125.05-2.101 31.458 2.77 31.625 4.625 3.119 79.189-35.627 102.871-61.5 73.5z"/>
        <path fill="#faa" stroke="#000" d="M107.414 88.486c-.337-3.828 8.67-10.063 10.002-10.327 3.34-.522 24.003 1.778 26.773 6.998-2.978 2.943-4.981 4.005-7.87 8.136-3.33-1.868-23.065-5.34-28.905-4.807z"/>
        <path fill="#ffd5d5" stroke="#000" d="M70.224 59.192c4.166-4.91 7.957-12.08 23.875-12.375 24.157-.447 36.284 25.34 37.875 39.875-3.614 1.723-12.45 1.567-14-.625-6.367-24.454-25.957-33.836-40-16.125z"/>
        <path fill="#ff8080" stroke="#000" d="M54.453 52.081C29.488 70.01 10.479 165.264 60.835 190.098c8.228 4.058 30.483 3.299 34.951 2.282-40.78-3.957-52.094-82.896-14.444-137.2-8.695-4.492-21.858-4.39-26.89-3.099z"/>
        <path fill="#faa" stroke="#000" d="M80.606 54.876c3.508.403 4.416 11.185 4.12 18.79-13.883 16.882-27.6 109.214 19.869 99.965 16.887-3.29 35.21-46.457 31.661-80.65 1.296-3.697 4.887-5.6 7.452-8.03 3.473-1.832 9.389 91.712-46.297 106.991-31.06 8.522-71.232-69.821-16.805-137.066z"/>
        <path fill="#fff" d="M78.095 55.07a45.505 45.505 0 0 0-3.758 1.972c-11.488 12.372-19.578 32.273-20.1 53.067 1.3-20.802 10.15-40.051 21.77-51.444a55.25 55.25 0 0 1 2.088-3.594zM105.648 50.894c6.74 2.161 12.284 7.88 16.325 14.503 3.518 5.768 5.903 12.233 6.94 17.666.377.771.726 1.533 1.046 2.278a29.64 29.64 0 0 0 .192-2.537c-1.26-5.54-3.878-12.036-7.605-17.767-4.298-6.608-10.062-12.189-16.898-14.143z"/>
        <path fill="#f55" stroke="#000" d="M163.75 192.75c18.62-7.135 30.86-51.923 29.875-78.125.05-2.101 31.458 2.77 31.625 4.625 3.12 79.189-35.627 102.871-61.5 73.5z"/>
        <path fill="#faa" stroke="#000" d="M193.69 115.044c-.337-3.828 8.67-10.063 10.002-10.327 3.341-.522 24.003 1.778 26.773 6.998-2.977 2.943-4.98 4.005-7.87 8.136-3.33-1.868-23.064-5.34-28.905-4.807z"/>
        <path fill="#ffd5d5" stroke="#000" d="M156.5 85.75c4.166-4.91 7.957-12.08 23.875-12.375 24.158-.447 36.284 25.34 37.875 39.875-3.613 1.722-12.45 1.567-14-.625-6.367-24.454-25.956-33.836-40-16.125z"/>
        <path fill="#ff8080" stroke="#000" d="M140.73 78.64c-24.965 17.927-43.975 113.182 6.381 138.016 8.228 4.058 30.483 3.299 34.952 2.282-40.781-3.957-52.095-82.896-14.445-137.2-8.695-4.492-21.858-4.39-26.889-3.099z"/>
        <path fill="#faa" stroke="#000" d="M166.883 81.434c3.507.403 4.416 11.185 4.12 18.79-13.884 16.882-27.6 109.214 19.868 99.965 16.888-3.29 35.21-46.457 31.661-80.65 1.297-3.697 4.887-5.6 7.452-8.03 3.473-1.833 9.39 91.712-46.297 106.991-31.059 8.522-71.232-69.821-16.804-137.066z"/>
        <path fill="#fff" d="M164.371 81.629a45.505 45.505 0 0 0-3.757 1.97c-11.49 12.373-19.578 32.274-20.101 53.068 1.3-20.802 10.15-40.051 21.77-51.444.655-1.23 1.351-2.43 2.088-3.594zM191.924 77.452c6.74 2.161 12.284 7.88 16.325 14.503 3.519 5.768 5.903 12.233 6.94 17.666.377.77.727 1.533 1.046 2.278a29.64 29.64 0 0 0 .193-2.537c-1.26-5.54-3.879-12.036-7.606-17.768-4.297-6.607-10.062-12.188-16.898-14.142z"/>
    </g>
</svg>
