<svg xmlns="http://www.w3.org/2000/svg" cursor="default" viewBox="0 0 256 256">
    <path fill="#ff8080" stroke="#000" stroke-linecap="round" d="M186.623 32.098a30.966 103.772 12.58 0 0-48.348 82.466 30.966 103.772 12.58 0 0 1.133 118.728 30.966 103.772 12.58 0 0 52.91-79.04c-3.12-.012-6.658-.711-8.953-2.506a16.916 82.134 12.391 0 1-32.593 58.15 16.916 82.134 12.391 0 1 6.811-95.5 16.916 82.134 12.391 0 1 30.92-63.21 16.916 82.134 12.391 0 1 2.558 1.75 16.916 82.134 12.391 0 1-6.795 95.447c1.972 1.24 4.4 2.245 8.987 2.243a30.966 103.772 12.58 0 0-1.619-116.746 30.966 103.772 12.58 0 0-5.01-1.782z"/>
    <path fill="#fff" fill-rule="evenodd" d="M194.135 40.154c-1.331-3.117-3.007-5.203-5.185-6.095a6.522 6.522 0 0 0-2.358-.482c-1.628.163-3.253.883-4.852 2.007-4.755 3.34-9.87 10.695-14.916 20.58-10.137 19.858-20.308 50.582-26.695 82.054 6.778-31.408 17.318-61.94 27.748-81.504 5.236-9.822 10.37-16.732 14.862-19.656 1.478-.962 2.818-1.445 4.011-1.507.588-.13 1.18-.16 1.784-.07 1.834.276 3.78 1.682 5.6 4.673z"/>
    <path fill="#ff8080" stroke="#000" stroke-linecap="round" d="M122.477 21.843A30.966 103.772 12.58 0 0 74.13 104.31a30.966 103.772 12.58 0 0 1.133 118.728 30.966 103.772 12.58 0 0 52.91-79.04c-3.12-.012-6.657-.711-8.952-2.506a16.916 82.134 12.391 0 1-32.594 58.15 16.916 82.134 12.391 0 1 6.811-95.5 16.916 82.134 12.391 0 1 30.92-63.21 16.916 82.134 12.391 0 1 2.559 1.75 16.916 82.134 12.391 0 1-6.796 95.447c1.972 1.24 4.4 2.245 8.988 2.243a30.966 103.772 12.58 0 0-1.62-116.746 30.966 103.772 12.58 0 0-5.01-1.782z"/>
    <path fill="#fff" fill-rule="evenodd" d="M129.989 29.899c-1.33-3.117-3.007-5.203-5.185-6.095a6.522 6.522 0 0 0-2.358-.482c-1.627.163-3.253.883-4.852 2.007-4.755 3.34-9.87 10.695-14.916 20.58-10.136 19.858-20.308 50.582-26.695 82.053C82.76 96.555 93.3 66.022 103.73 46.46c5.236-9.822 10.37-16.732 14.863-19.656 1.478-.962 2.817-1.445 4.01-1.507.588-.13 1.18-.16 1.784-.07 1.834.276 3.78 1.682 5.601 4.673z"/>
</svg>
