<svg xmlns="http://www.w3.org/2000/svg" cursor="default" viewBox="0 0 256 256">
    <g transform="translate(-21.463 -895.118) scale(1.1025)">
        <path fill="#ff8080" fill-rule="evenodd" stroke="#000" d="M120.807 950.167c19.577-5.523 64.512-39.577 81.688-74.91-.4-3.76-11.66-5.344-14.321-4.921-13.925 28.91-49.552 58.923-74.66 67.921z"/>
        <ellipse cx="-863.185" cy="219.207" fill="#faa" stroke="#000" stroke-linecap="round" rx="20.875" ry="21.012" transform="rotate(-88.739)"/>
        <path fill="#fff" fill-rule="evenodd" d="M206.604 850.796c2.208.291 4.499 1.408 6.567 2.997.546.588 1.059 1.21 1.53 1.853 1.996 2.716 3.287 5.816 3.364 8.354-.506-2.45-2.172-5.238-4.365-7.513a19.59 19.59 0 0 0-1.642-1.52c-1.532-1.822-3.417-3.367-5.454-4.17z"/>
        <ellipse cx="-947.657" cy="133.381" fill="#faa" stroke="#000" stroke-linecap="round" rx="20.875" ry="21.012" transform="rotate(-88.739)"/>
        <path fill="#fff" fill-rule="evenodd" d="M118.94 933.36c2.208.291 4.498 1.408 6.567 2.997.546.588 1.058 1.21 1.53 1.853 1.996 2.716 3.286 5.816 3.363 8.354-.505-2.45-2.17-5.238-4.365-7.513a19.59 19.59 0 0 0-1.641-1.52c-1.532-1.822-3.417-3.367-5.454-4.17z"/>
        <path fill="#faa" stroke="#000" stroke-linecap="round" d="M93.14 929.534a41.875 45.97 0 0 0-41.874 45.97 41.875 45.97 0 0 0 41.875 45.971 41.875 45.97 0 0 0 41.875-45.97 41.875 45.97 0 0 0-1.813-13.332c-1.089-1.94-3.187-1.8-5.127-.858-1.882.914-3.762 2.04-3.316 6.617a32.402 35.571 0 0 1 .783 7.573 32.402 35.571 0 0 1-32.402 35.57 32.402 35.571 0 0 1-32.403-35.57 32.402 35.571 0 0 1 32.403-35.572 32.402 35.571 0 0 1 1.052.058c1.805-3.198 4.576-5.877 7.557-7.664.061-1.137-1.016-1.728-2.438-2.25a41.875 45.97 0 0 0-6.171-.543z"/>
        <path fill="#fff" fill-rule="evenodd" d="M131.545 962.419c.357.601.71 1.274 1.055 2 .425 2.756.729 6.098.832 9.429.132 4.262-.065 8.52-.762 11.527.468-3.037.431-7.277.071-11.487-.282-3.298-.762-6.576-1.353-9.242.062-.78.115-1.534.157-2.227z"/>
    </g>
</svg>
