<svg xmlns="http://www.w3.org/2000/svg" xmlns:xlink="http://www.w3.org/1999/xlink" cursor="default" viewBox="0 0 256 256">
    <defs>
        <linearGradient id="linearGradient2">
            <stop offset="0" stop-color="#ff8080"/>
            <stop offset="1" stop-color="#f55"/>
        </linearGradient>
        <linearGradient id="linearGradient0">
            <stop offset="0" stop-color="#f55"/>
            <stop offset="1" stop-color="#ff8080"/>
        </linearGradient>
        <linearGradient id="linearGradient1" x1="67.5" x2="86.071" y1="1048.434" y2="848.791" gradientUnits="userSpaceOnUse" xlink:href="#linearGradient0"/>
        <linearGradient id="linearGradient3" x1="154.286" x2="170.357" y1="868.791" y2="1045.934" gradientUnits="userSpaceOnUse" xlink:href="#linearGradient2"/>
    </defs>
    <g stroke="#000" transform="matrix(1.05 0 0 1.05 -3.528 -848.59)">
        <path fill="url(#linearGradient1)" fill-rule="evenodd" d="M129.047 1037.967c-29.643-3.68-59.547-13.003-89.904-32.133 6.238-20.547 17.106-34.78 26.517-51.71 7.69-13.832 12.856-25.987 1.515-51.65-11.133-25.193-13.303-39.179-17.172-58.456 15.324-40.308 62.595-19.354 77.655-9.344z"/>
        <path fill="url(#linearGradient3)" fill-rule="evenodd" d="M216.425 1007.158c-7.719-23.903-16.645-35.819-26.264-52.528-12.747-22.143-6.046-34.949-2.525-51.77 4.4-21.024 15.152-62.63 15.152-62.63-20.592-29.104-47.242-20.133-74.814-5.366l1.517 204.01c39.03-5.859 67.896-16.576 86.934-31.716z"/>
        <path fill="none" stroke-width=".5" d="M59.821 1016.648c30.101-98.173 18.578-100.678-4.107-183.75M93.75 1029.684c17.424-146.42-12.482-132.547-14.464-208.393M110.023 827.35c3.89 89.355 8.87 90.07 3.548 209.477M145.536 1036.648c-.673-70.087-6.345-138.09-1.786-210.357M172.929 822.393c.958 67.169-20.786 89.9-4.108 206.673M195.179 1021.827c-27.651-89.437-19.735-111.842-1.092-189.368"/>
        <path fill="#e6e6e6" fill-rule="evenodd" stroke-width=".956" d="M127.858 852.792l.021 1.742c6.928 1.661 4.77 2.613.04 3.363l.03 2.349s7.389-1.278 7.415-3.849c.02-2.068-7.506-3.605-7.506-3.605z"/>
        <ellipse cx="131.83" cy="856.313" fill="#e6e6e6" stroke-width=".5" rx="1.384" ry="1.183"/>
        <path fill="#e6e6e6" fill-rule="evenodd" stroke-width=".956" d="M128.152 885.895l.021 1.741c6.928 1.662 4.77 2.614.04 3.364l.029 2.349s7.39-1.278 7.415-3.849c.021-2.069-7.505-3.605-7.505-3.605z"/>
        <ellipse cx="132.124" cy="889.416" fill="#e6e6e6" stroke-width=".5" rx="1.384" ry="1.183"/>
        <path fill="#e6e6e6" fill-rule="evenodd" stroke-width=".956" d="M128.455 918.84l.02 1.742c6.929 1.662 4.77 2.614.041 3.364l.028 2.349s7.39-1.278 7.416-3.849c.02-2.069-7.505-3.605-7.505-3.605z"/>
        <ellipse cx="132.427" cy="922.362" fill="#e6e6e6" stroke-width=".5" rx="1.384" ry="1.183"/>
        <path fill="#e6e6e6" fill-rule="evenodd" stroke-width=".956" d="M128.833 951.797l.021 1.742c6.928 1.661 4.77 2.613.041 3.363l.028 2.349s7.39-1.278 7.416-3.849c.02-2.068-7.506-3.605-7.506-3.605z"/>
        <ellipse cx="132.805" cy="955.318" fill="#e6e6e6" stroke-width=".5" rx="1.384" ry="1.183"/>
        <path fill="#e6e6e6" fill-rule="evenodd" stroke-width=".956" d="M128.833 988.289l.021 1.741c6.928 1.662 4.77 2.614.041 3.364l.028 2.349s7.39-1.278 7.416-3.849c.02-2.069-7.506-3.605-7.506-3.605z"/>
        <ellipse cx="132.805" cy="991.81" fill="#e6e6e6" stroke-width=".5" rx="1.384" ry="1.183"/>
        <path fill="#faa" fill-rule="evenodd" d="M129.3 1035.695c-.237 2.15-.081 4.693-.745 6.415-39.018-7.45-59.746-17.623-90.8-33.69.841-3.613.8-3.535 1.64-5.05 20.862 12.114 32.194 20.428 89.905 32.325zM129.955 1035.992l-.135 6.283c18.54-.455 84.471-23.702 87.868-32.34l-1.263-4.545c-14.77 10.935-47.385 25.283-86.47 30.602zM50.877 849.26c-.252-1.01-1.14-6.918-1.14-6.918 1.476-15.922 16.337-22.987 33.298-23.985 16.38-.965 20.918 3.848 44.181 12.782.132 2.21.158 3.725.126 5.934-29.529-19.301-71.556-21.154-76.465 12.187zM202.283 843.197c.778-1.628.667-3.08.631-4.545-18.857-33.815-55.054-17.571-74.625-7.198-.63 1.979.073 3.957.19 5.935 36.284-20.716 59.504-16.444 73.804 5.808z"/>
    </g>
</svg>
