<svg xmlns="http://www.w3.org/2000/svg" xmlns:xlink="http://www.w3.org/1999/xlink" cursor="default" viewBox="0 0 256 256">
    <defs>
        <linearGradient id="linearGradientSKATER_DRESS4416">
            <stop offset="0" stop-opacity=".239"/>
            <stop offset="1" stop-color="#ff8080" stop-opacity="0"/>
        </linearGradient>
        <linearGradient id="linearGradientSKATER_DRESS4400">
            <stop offset="0" stop-opacity=".21"/>
            <stop offset="1" stop-color="#ff8080" stop-opacity="0"/>
        </linearGradient>
        <linearGradient id="linearGradient0" x1="85.863" x2="104.298" y1="85.032" y2="78.718" gradientTransform="matrix(.9703 0 0 .9703 9.213 1.941)" gradientUnits="userSpaceOnUse" xlink:href="#linearGradientSKATER_DRESS4400"/>
        <linearGradient id="linearGradient1" x1="163.392" x2="150.765" y1="80.739" y2="75.435" gradientTransform="matrix(.9703 0 0 .9703 9.213 1.941)" gradientUnits="userSpaceOnUse" xlink:href="#linearGradientSKATER_DRESS4400"/>
        <linearGradient id="linearGradient2" x1="124.754" x2="124.501" y1="256.758" y2="55.485" gradientTransform="matrix(.9703 0 0 .9703 9.213 1.941)" gradientUnits="userSpaceOnUse" xlink:href="#linearGradientSKATER_DRESS4416"/>
    </defs>
    <path fill="#ff8080" fill-rule="evenodd" stroke="#000" stroke-width=".97" d="M63.272 232.491c8.157 8.655 16.294 16.296 40.025 12.633.097 1.911-.092 3.251-.143 4.867 2.474.594 4.299 1.344 7.593 1.733 15.683 1.852 31.765.342 47.13-1.04-.154-1.639-.475-2.827-.49-5.025 12.024-.465 25.089 3.111 36.702-5.89-15.274-93.508-28.771-121.29-29.282-132.03-1.131-23.791 7.145-36.818 7.017-41.758-.068-2.631-4.474-9.204-2.989-46.696-.04-1.125-9.137-4.751-9.92-3.595-1.651 1.802-22.843 44.223-28.415 44.4-9.221.293-30.192-46.22-30.192-46.22-.77-1.031-10.887 2.903-10.526 4.505 3.769 20.59-1.35 44.052-1.646 48.212-.309 4.336 9.16 32.949 8.49 38.899C94.9 120.8 82.164 166.169 63.272 232.49z"/>
    <path fill="url(#linearGradient2)" fill-rule="evenodd" d="M63.272 232.491c8.157 8.655 16.294 16.296 40.025 12.633.097 1.911-.092 3.251-.143 4.867 2.474.594 4.299 1.344 7.593 1.733 15.683 1.852 31.765.342 47.13-1.04-.154-1.639-.475-2.827-.49-5.025 12.024-.465 25.089 3.111 36.702-5.89-15.274-93.508-28.771-121.29-29.282-132.03-1.131-23.791 7.145-36.818 7.017-41.758-.068-2.631-4.474-9.204-2.989-46.696-.04-1.125-9.137-4.751-9.92-3.595-1.651 1.802-22.843 44.223-28.415 44.4-9.221.293-30.192-46.22-30.192-46.22-.77-1.031-10.887 2.903-10.526 4.505 3.769 20.59-1.35 44.052-1.646 48.212-.309 4.336 9.16 32.949 8.49 38.899C94.9 120.8 82.164 166.169 63.272 232.49z"/>
    <path fill-rule="evenodd" d="M103.772 245.392c.502-47.108 7.766-87.992 8.32-136.79-.771 42.03-8.566 96.34-9.29 136.776zM157.87 245.91c-4.112-54.637-10.551-79.803-9.177-137.305-1.698 57.51 4.422 82.754 8.21 137.375z"/>
    <path fill="url(#linearGradient1)" fill-rule="evenodd" stroke="#000" stroke-width=".485" d="M168.532 45.708c-5.979 8.82-8.263 16.777-10.066 24.013-3.119 12.516-2.846 22.993-3.709 32.906l10.483-9.01c1.063-8.981 3.594-17.962 6.67-26.943z"/>
    <path fill="url(#linearGradient0)" fill-rule="evenodd" stroke="#000" stroke-width=".485" d="M94.46 93.53c.52.347 11.176 9.27 11.176 9.27-1.242-6.787-2.088-18.203-4.356-30.47-1.723-9.318-1.594-17.402-10.199-27.575L87.963 67.02z"/>
    <path fill-rule="evenodd" d="M105.411 102.63c.05.139.098.275.143.409 2.62 2.4 3.078 2.987 6.605 5.498-3.444-2.615-3.802-3.291-6.332-5.786a23.815 23.815 0 0 1-.416-.12zM154.681 102.353c-1.757 1.891-2.275 2.845-6.124 5.515 3.946-2.537 4.595-3.387 6.475-5.168z"/>
    <path fill="none" stroke="#000" stroke-width=".485" d="M89.881 18.042c-.589-3.32-2.108-9.416-1.745-9.933.43-.48 1.715 5.73 2.556 8.794M100.005 14c-.78-3.205-2.577-7.911-2.34-9.616.568-.89 24.732 26.022 37.556 51.07"/>
    <path fill="none" stroke="#000" stroke-width=".485" d="M123.742 55.108c12.71-24.566 35.33-50.972 36.28-50.889.711-.012-.54 7.37-.724 11.066M168.854 18.777c.476-2.975 1.916-10.674 1.426-10.265-.473.39-1.36 6.636-2.052 9.89"/>
</svg>
