<svg xmlns="http://www.w3.org/2000/svg" cursor="default" viewBox="0 0 256 256">
    <path fill="#f95" fill-rule="evenodd" stroke="#000" d="M101.52 9.649c14.085 7.97 36.806 7.304 64.334 1.831 3.583 16.925-12.603 28.036-34.597 37.439-16.56-9.153-34.407-17.543-29.737-39.27z"/>
    <path fill="#ff2a2a" fill-rule="evenodd" stroke="#000" d="M100.982 9.214l1.741-.714c16.065 8.93 37.326 7.713 61.704 1.439l2.894 1.507c-30.629 8.58-59.162 6.527-66.339-2.232z"/>
    <path fill="#f55" fill-rule="evenodd" stroke="#000" stroke-width="1.21" d="M25.127 131.761c10.55 6.751 19.275 4.908 28.151 3.782.116-1.118.222-2.063.382-3.667 1.923-1.517 2.653-2.82 1.299-4.813 2.122-.371 2.608-3.05 1.527-4.813 1.322-.496 1.721-1.338 1.414-2.444 1.016-.635.927-1.38.42-2.827 2.957-1.45 2.465-3.687 2.368-5.615 2.888-3.158 4.735-6.663 3.972-11.038.402-.89 2.14-5.349 3.362-7.945 2.92-1.605 1.779-2.109 1.948-5.157.873-3.371 1.487-10.184 3.17-6.073l30.718-60.18-2.593-11.991C69.51 15.088 50.011 29.324 51.811 32.848c-3.66 2.096-2.964 3.818-3.267 5.626l-4.106 9.183c-2.844 2.196-2.258 4.393-1.728 6.59-1.386 2.61-2.352 5.402-3.025 8.319-3.816 3.774-2.791 7.453-1.513 11.127-1.718 1.738-3.177 3.53 0 6.266-1.057 1.929-1.859 3.942-1.404 6.374-1.667 1.98-1.051 4.49-1.513 8.86-3.043 2.793-2.715 5.164-1.728 7.454-1.526 2.58-3.604 5.055-1.513 8.319-1.13 1.399-2.246 2.802-1.188 4.7-.739 1.15-3.635 1.5-1.189 3.834-3.073 2.02-2.442 3.498-1.404 4.916-.932 1.11-2.952 1.675-1.242 4.105-4.569.823-1.625 2.185-1.864 3.24zM191.396 152.043c.382.153 30.557-.687 30.557-.687.578-1.73-.576-2.88-1.68-4.049 2.496-2.961.456-3.16-.077-4.278 1.6-1.304 1.466-2.677-.535-4.125l-.076-8.48c2.54-2.135 1.253-3.278 0-4.43l-.076-4.737c2.41-2.517 4.293-5.145.611-8.938 1.651-29.549 4.412-84.551-24.486-90.38-7.731-1.56-18.793-7.469-29.655-11.23l-8.32 19.122 31.44 59.96c-.788 2.719-.048 4.784.54 6.914l.108 5.294c-4.048 6.65-.745 8.07.864 10.695-2.916 2.727-1.69 4.658.648 6.374l.216 2.81c-2.012 1.44-1.527 2.88.324 4.32l.54 10.48c-2.247 1.472-1.37 2.368.216 3.133-.005.576-.11 1.152-.216 1.729-2.458 1.37-.537 1.647 0 2.268-1.292.96-.936 1.844 0 2.701-.965 1.7-.847 3.641-.943 5.534z"/>
    <path fill-rule="evenodd" d="M189.135 66.961c2.044-7.152 5.651-13.698 8.822-20.493-3.493 6.537-7.519 13.007-9.976 20.129zM189.634 78.05c3.465-10.096 13.088-16.72 20.423-24.343-7.426 7.144-17.624 13.72-21.56 23.929zM26.785 129.199c4.61 1.445 9.313 2.712 14.088 2.51-4.73-.201-9.275-1.85-13.677-3.649z"/>
    <path fill-rule="evenodd" d="M53.776 131.16c-5.078-.19-9.967 1.077-14.902.386 4.768 1.07 10.088.254 14.809.82zM27.932 124.725c4.52 2.362 9.836 2.321 14.562 2.122-4.845-.204-9.891-.604-13.96-3.172z"/>
    <path fill-rule="evenodd" d="M54.946 126.517c-4.37.781-11.598 1.722-15.91-.21 4.212 2.333 11.578 1.8 16.07 1.41zM29.044 119.903c3.462 1.96 7.705 2.08 11.397 2.298-3.79-.636-7.726-1.16-10.75-3.32zM56.802 121.715c-3.446.866-5.503 1.14-13.174.81 7.61.731 9.748.873 13.403.378zM30.277 116.052c.823.644 2.197.994 3.4 1.168 1.251.18 2.494.195 3.172.066a17.034 17.034 0 0 1-3.037-.656c-1.19-.376-2.26-.888-2.707-1.46zM57.925 119.139c-1.591.602-3.876.96-6.255 1.06-2.368.1-4.798-.06-6.692-.483 1.845.617 4.282.986 6.692 1.09 2.395.103 4.814-.056 6.615-.512zM58.429 116.234c-1.198.668-2.808 1.311-6.698.782 3.804.925 5.561.723 7.13.349zM31.526 111.264c1.398 1.633 2.977 2.29 4.525 2.516 1.524.224 3.083.04 4.498-.06-1.458-.102-2.951-.123-4.371-.531-1.399-.402-2.65-1.159-3.696-2.668zM32.958 102.798c.545 1.209 1.475 1.898 2.469 2.309.985.407 2.101.57 3.123.673-1.007-.306-2.018-.658-2.84-1.208-.821-.548-1.38-1.242-1.614-2.185zM60.806 111.182l-.175-.58c-1.837.764-3.8 1.51-5.767 1.93 2.033-.022 4.122-.381 6.116-.771l-.174-.58zM35.86 86.058c.893 2.552 2.523 4.448 4.581 5.947-1.815-1.823-2.979-3.863-3.413-6.26zM68.113 91.642c-2.126 1.384-5.051 2.19-7.631 2.794 2.577-.195 5.726-.613 8.207-1.73zM37.902 79.743l-.426.43a19.45 19.45 0 0 0 5.396 3.135 18.875 18.875 0 0 1-4.544-3.995l-.426.43zM37.436 73.828c.505 1.21 1.32 1.94 2.239 2.413.902.464 1.947.703 2.98.91-1.002-.408-1.924-.826-2.652-1.418-.718-.585-1.2-1.3-1.418-2.283zM42.164 54.37c.074.128.223.305.354.457.147.171.336.383.551.615a27.612 27.612 0 0 0 1.662 1.64c1.319 1.193 2.996 2.46 4.663 3.066-1.57-.784-3.095-2.195-4.233-3.492a17.492 17.492 0 0 1-1.38-1.778 6.71 6.71 0 0 1-.389-.647c-.08-.159-.142-.323-.11-.323zM47.996 38.196c-.003 1.03.106 1.87.476 2.588.366.71.961 1.25 1.854 1.795-.79-.72-1.157-1.353-1.286-2.002-.125-.63-.035-1.332.16-2.258z"/>
    <path fill="#fca" fill-rule="evenodd" stroke="#000" stroke-width="1.21" d="M60.103 228.4c44.058 11.38 120.879 22.572 136.125 11.344 1.024-54.321-7.736-63.656-16.637-96.044-4.013-14.6.399-30.504 9.507-54.666l.432-21.39c-1.4-3.628-.355-9.138-2.475-11.33-9.957-10.113-19.77-20.441-26.662-31.51-17.012 17.085-42.241 24.94-56.643-4.048-5.5 3.105-14.422 17.68-22.04 26.793-7.256 8.682-5.726 22.556-8.426 33.923 0 0 16.183 42.942 11.452 59.203-4.146 14.247-13.726 20.625-21.391 63.093-1.378 7.634-3.27 15.816-3.242 24.632z"/>
    <path fill="none" stroke="#fd5" stroke-width="3.63" d="M97.8 80.713l.065-13.058"/>
    <path fill="none" stroke="#fd5" stroke-width="2.42" d="M94.23 81.028l6.887.023M94.607 67.01l6.888.023"/>
    <path fill="none" stroke="#fd5" stroke-width="3.63" d="M98.483 67.67l5.807 10.345 6.752-10.83M111.007 80.69l.065-13.057"/>
    <path fill="none" stroke="#fd5" stroke-width="2.42" d="M107.436 81.006l6.888.022M107.815 66.988l6.887.023"/>
    <path fill="none" stroke="#fd5" stroke-width="3.63" d="M119.601 80.652l.065-13.058"/>
    <path fill="none" stroke="#fd5" stroke-width="2.42" d="M116.03 80.968l12.398.103M116.409 66.95l11.56.022M119.104 73.763l6.888.022M126.152 70.277l-.023 6.887M127.472 81.433l3.386-4.028M127.117 66.653l3.124 2.79M142.613 75.067l6.888.022"/>
    <path fill="none" stroke="#fd5" stroke-width="2.984" d="M144.843 65.48l2.821 5.614"/>
    <path fill="none" stroke="#fd5" stroke-width="3.63" d="M146.61 68.909c-5.02-3.778-11.642-1.174-11.62 4.801.011 2.802 1.69 5.446 4.397 6.292 2.958.926 6.975-.258 7.167-4.81"/>
    <path fill="none" stroke="#fd5" stroke-width="2.42" d="M150.65 81.082l6.888.023"/>
    <path fill="none" stroke="#fd5" stroke-width="2.781" d="M161.335 81.137l9.179.022"/>
    <path fill="none" stroke="#fd5" stroke-width="2.42" d="M155.89 76.761l7.536.022M158.337 67.297l-4.541 13.657"/>
    <path fill="none" stroke="#fd5" stroke-width="4.235" d="M167.512 81.032l-8.577-15.164"/>
    <path fill="none" stroke="#fd5" stroke-width="3.63" d="M103.3 108.199l.065-13.058"/>
    <path fill="none" stroke="#fd5" stroke-width="2.42" d="M99.73 108.514l6.886.022M100.107 94.496l6.888.023"/>
    <path fill="none" stroke="#fd5" stroke-width="3.63" d="M103.983 95.156l5.807 10.344 6.752-10.83M116.507 108.176l.065-13.058"/>
    <path fill="none" stroke="#fd5" stroke-width="2.42" d="M112.936 108.491l6.888.023M113.314 94.474l6.888.022"/>
    <path fill="none" stroke="#fd5" stroke-width="3.63" d="M125.33 108.154l.066-13.058"/>
    <path fill="none" stroke="#fd5" stroke-width="2.42" d="M121.76 108.469l6.887.022M122.138 94.451l6.887.023"/>
    <path fill="none" stroke="#fd5" stroke-width="3.63" d="M135.644 108.383l.065-13.058"/>
    <path fill="none" stroke="#fd5" stroke-width="2.42" d="M132.451 94.68l6.888.023M131.348 108.333l12.397.103M142.79 108.798l2.17-4.352"/>
    <path fill="none" stroke="#fd5" stroke-width="3.63" d="M150.006 108.077l.065-13.058"/>
    <path fill="none" stroke="#fd5" stroke-width="2.42" d="M146.435 108.393l6.887.022M146.813 94.375l6.887.022"/>
    <path fill="none" stroke="#fd5" stroke-linejoin="round" stroke-width="4.235" d="M161.926 107.541l-7.198-6.626-3.605-.019"/>
    <path fill="none" stroke="#fd5" stroke-width="3.025" d="M158.607 94.124l-4.973 7.877"/>
    <path fill="none" stroke="#fd5" stroke-width="2.42" d="M156.16 94.425l6.888.022"/>
    <path fill="none" stroke="#fd5" stroke-width="3.622" d="M158.619 107.791l6.808.051"/>
    <path fill="#ff2a2a" fill-rule="evenodd" stroke="#000" stroke-width="1.21" d="M99.546 9.24c1.02-.357 2.776-.586 2.776-.586.472 35.062 49.325 45.641 62.554 1.527l2.043.825c-7.633 37.638-60.913 45.044-67.373-1.766z"/>
    <path fill="#ffb380" fill-rule="evenodd" stroke="#000" stroke-width="1.21" d="M59.771 230.04l.382-7.18c45.727 15.273 117.88 22.829 136.184 13.21l.108 7.563c-12.725 8.906-98.24 2.6-136.674-13.593z"/>
    <path fill-rule="evenodd" d="M72.127 79.407c-5.88-2.417-9.808-9.176-11.267-15.437 1.041 6.227 4.611 13.556 10.772 16.541zM69.719 67.427c-1.708-2.701-3.696-5.437-5.402-8.353-2.125-2.73-3.982-5.675-4.862-8.933.446 3.387 1.92 6.603 3.744 9.693 2.094 2.685 4.484 5.208 6.52 7.593zM189.991 70.874c2.921-8.67 9.018-16.296 14.448-23.758-5.683 7.13-12.224 14.646-15.586 23.346zM192.576 147.147c5.862.206 12.062-.02 17.995-.222-5.954-.202-12.117-.38-17.91-.985zM220.184 146.48c-4.704.901-9.534.47-14.426.674 4.754.199 9.755 1.037 14.603.522zM220.155 141.9c-6.953 1.583-14.27 1.155-21.502 1.358 7.122.2 14.59 1.04 21.737-.17zM192.202 144.311c3.209.396 6.607.153 9.736-.289-3.19.043-6.506-.132-9.514-.9zM192.333 140.342c5.43.653 11.266.246 16.633-.369-5.434.216-11.196.206-16.444-.826zM191.584 126.757c5.521 1.61 12.282-.103 17.688-.687-5.666.198-12.139 1.457-17.31-.462zM219.609 129.864c-7.22 1.305-14.849.433-22.33.637 7.328.2 15.146 1.478 22.512.56zM219.226 120.618c-.724.658-1.239 1.345-2.517 2.05-1.284.708-3.314 1.411-6.902 1.95 3.598-.337 5.72-.844 7.157-1.402 1.457-.564 2.213-1.187 2.98-1.625zM191.151 119.74c5.697 1.793 11.207.69 16.795.492-5.78-.205-11.027.471-16.393-1.634zM190.273 112.95c3.557 1.66 7.841.633 11.36.439-3.8-.21-7.693.368-10.794-1.51zM189.64 96.735l-.409.447c1.752 1.327 3.924 1.928 5.603 2.017-1.639-.492-3.5-1.46-4.787-2.91l-.408.446z"/>
</svg>
