<svg xmlns="http://www.w3.org/2000/svg" cursor="default" viewBox="0 0 256 256">
    <g stroke="#000">
        <path fill="#ff8080" fill-rule="evenodd" d="M197.02 242.745c-28.756 2.362-78.413 2.494-132.143.715 1.247-39.973-7.7-89.328-13.928-128.929 13.256-41.258 1.823-56.527.714-78.928 14.414-4.86 23.087-11.486 31.429-18.215 20.584 12.701 53.522 24.898 90-2.857 9.136 6.53 16.015 13.492 34.643 18.214.834 3.349-12.76 41.762.714 71.072-5.432 45.72-10.423 94.324-11.429 138.928z"/>
        <path fill="#ff2a2a" fill-rule="evenodd" d="M127.91 110.538c-5.042-.723-18.753-50.645-.63-79.55 3.54-2.426 18.46 48.818.63 79.55z"/>
        <path fill="#f55" fill-rule="evenodd" d="M90.167 9.61c1.914-.21 16.313 3.321 33.357 3.784 15.312.416 31.51-2.075 44.73-4.2 8.981 17.855-72.622 24.199-78.087.416z"/>
        <path fill="#faa" fill-rule="evenodd" d="M126.485 109.62l3.34 3.38c14.239-23.162 7.747-69.208 2.982-79.447l-4.753.404c7.97 26.858 8.784 53.088-1.57 75.663z"/>
        <path fill="#faa" fill-rule="evenodd" d="M201.302 171.563c-14.786-12.556-22.116-15.905-34.48-22.87-18.822-10.601-40.164-26.996-48.066-52.928-2.98-9.78-5.778-38.333 3.44-62.156l6.756.284c-10.68 12.658-8.455 50.12-5.271 60.988 7.713 26.328 26.385 38.903 41.388 47.55 13.928 8.028 25.312 12.193 36.72 23.507-.146 1.642-.15 2.39-.487 5.625z"/>
        <path fill="#faa" fill-rule="evenodd" d="M80.592 19.353c4.943-3.503 6.109-6.376 9.107-9.554 25.117 19.695 60.296 17.001 78.84-.446 2.749 2.624 3.719 5.094 8.287 7.877-22.747 15.662-63.175 28.515-96.234 2.123z"/>
        <path fill="none" stroke-width=".5" d="M51.931 120.96c17.356-28.21 9.37-63.837 2.946-86.072M204.877 32.21c-11.325 28.654-7.778 69.583 2.5 76.964M64.877 232.567c50.64 1.393 94.138 1.224 132.322-.714"/>
    </g>
</svg>
