<?xml version="1.0" encoding="UTF-8"?>
<svg cursor="default" version="1.1" viewBox="0 0 256 256" xmlns="http://www.w3.org/2000/svg" xmlns:cc="http://creativecommons.org/ns#" xmlns:dc="http://purl.org/dc/elements/1.1/" xmlns:rdf="http://www.w3.org/1999/02/22-rdf-syntax-ns#">
 <metadata>
  <rdf:RDF>
   <cc:Work rdf:about="">
    <dc:format>image/svg+xml</dc:format>
    <dc:type rdf:resource="http://purl.org/dc/dcmitype/StillImage"/>
    <dc:title/>
   </cc:Work>
  </rdf:RDF>
 </metadata>
 <g stroke="#000">
  <path d="m109.56 28.025c-25.317 0.47848-35.281 9.3823-39.172 13.908-9.0802 10.564-19.17 25.212-29.186 38.707-17.838 24.03-34.022 46.512-33.729 50.776 1.0721 15.544 33.833 27.356 65.625 38.911 2.6708-5.8697 8.2934-14.953 6.9758-20.127-9.4271-6.2865-18.439-12.294-35.088-22.468 2.722 0.70009 19.696-22.795 41.369-41.135 13.166 12.74 15.765 27.458 19.544 42.181 51.036-5.0605 94.738-5.2479 103.36-7.0957 1.2006-13.605 1.676-23.803 2.2236-35.477-0.41796 58.243-2.0062 96.592-8.3822 143.4 6.5129-0.46526 13.059 3.5423 18.997 8.0946 12.081-36.841 18.351-81.593 18.877-120.29 0.61649-45.28-6.1712-82.485-13.155-90.355-10.082-11.362-29.907-5.9822-44.86-8.9732-12.108 43.284-58.076 28.711-73.4 9.9523z" fill="#666" fill-rule="evenodd" stroke-width="2.1466"/>
  <path d="m228.01 27.242c-3.3458 18.454-11.055 28.125-17.08 40.451m22.927-26.446c-4.1483 14.447-12.507 27.796-22.834 39.374m25.991-23.801c-6.9601 17.534-16.402 29.344-25.806 38.883m27.848-23.211c-5.4335 13.914-15.3 26.762-27.662 37.022m28.498-21.548c-7.1137 18.438-19.171 24.237-28.962 34.673m30.075-17.532c-7.4063 13.484-19.404 20.981-30.11 29.238m-0.6165 13.856c7.7615-5.2402 27.406-20.87 30.633-28.207m-31.119 38.924c9.9632-6.8542 20.221-13.587 30.655-21.686m-31.839 33.594c8.307-5.5676 12.793-9.422 30.26-19.099m-30.539 27.032c6.6822-5.8554 15.704-10.888 29.055-14.398m-29.796 23.8c6.3227-6.8024 17.605-9.9446 28.962-13.712m-29.332 20.862c6.1785-5.0131 17.536-6.6117 27.383-9.2059m-28.359 17.728c1.1149-3.087 16.351-5.0693 26.224-7.4441m-27.338 17.923c6.3488-4.7275 15.788-6.3217 25.295-7.2478m-26.177 14.25c7.0844-2.7893 15.639-3.8334 23.949-4.5533m-17.916 12.144c1.2194-1.7728 13.914-4.1851 15.038-3.5258m-9.0039-195.3c7.8702 4.8444 15.234 10.606 19.68 21.645m-21.535-8.6193c9.7061 7.2456 20.794 12.967 24.598 29.677m-26.548-16.259c13.341 7.357 21.193 19.266 27.662 32.321m-29.426-20.079c12.321 9.9754 22.145 22.121 30.26 35.75m-0.18494 14.103c-7.0803-13.207-18.249-24.495-29.704-35.65m29.225 51.864c-7.0113-16.321-17.211-28.017-28.668-36.781m0 17.531c11.446 6.8598 20.41 16.337 28.405 26.837m-1.4848 14.887c-4.5526-11.634-15.894-20.796-27.477-29.872m-0.74187 12.928c10.505 7.7351 19.96 16.501 27.012 27.62m-2.5767 16.56c-0.52455-14.286-15.611-24.12-24.628-34.87m-0.45662 10.964c0.85056-0.2668 21.381 28.671 23.577 33.889m-3.2486 12.34c-4.9079-13.258-13.812-22.682-21.164-33.593m19.262 42.8c-5.3353-10.314-13.115-19.382-20.097-28.207m-1.2068 12.242c6.8619 8.7439 13.591 17.468 18.751 25.955m-3.0637 9.1574c-5.0866-7.9821-10.802-15.964-17.126-23.946m-1.0679 11.556 5.6634 6.4651m-200.88-93.242c10.446-20.632 23.278-4.7099 37.316-9.0107" fill="none" stroke-width="1.8"/>
  <path d="m201.01 238.64c-0.82043 3.5939 17.048 9.1101 17.749 8.1834 3.8188-9.4205-17.741-9.7116-17.749-8.1834zm-91.447-97.348c-0.10972 2.6504 99.391-4.711 98.952-5.4849 0.35422-10.714-32.737-8.7329-49.012-12.976-18.921 3.8676-44.764 0.0915-49.94 18.461z" fill="#f55" fill-rule="evenodd" stroke-width=".8"/>
  <path d="m77.539 148.98c-6.423-2.3604-13.396 4.8664-20.514 14.594m-7.8284-2.3836c-2.1922-4.0296 10.282-16.078 21.721-16.846m-30.297 13.581c-1.4503-5.0958 7.9224-15.931 22.901-18.445m-33.803 13.155c-0.96967-7.142 17.64-16.378 24.984-18.542m-35.552 13.222c-0.23928-7.8211 18.677-12.088 28.72-17.706m-2.5433-1.1962c-13.67 4.1697-32.679 2.9966-33.113 12.03m-4.2026-10.856c10.455-3.5611 24.536-1.9073 37.502-1.8599-9.8701-3.5809-20.236-6.292-29.148-11.558m29.704 10.97c-9.8273-6.4033-16.103-15.621-20.794-24.682m25.817 20.219c-15.475-11.413-17.463-19.272-14.9-35.238m18.236 31.01c-5.4774-9.4429-12.847-16.123-11.132-40.397m17.686 33.509c-4.4596-9.1485-15.261-21.891-10.55-43.284m17.73 34.965c-10.81-10.532-11.813-30.859-10.397-45.544m16.654 39.675c-9.8472-19.93-8.7281-33.949-9.4125-48.782m15.255 43.068c-3.1984-16.498-7.5996-33.929-7.0865-52.47m14.016 47.894c0.10554-0.95256-4.6749-42.386-4.2695-54.064m4.5714-1.2635c7.4888 25.126 4.2841 40.53 0.62694 55.524m-17.442 81.217c-1.7189-8.5047-1.6436-16.354 1.1818-23.2m-6.3008 21.885c-5.1827-15.626-1.7983-20.095 0.9843-25.346m-8.1387 23.13c-5.586-18.522-1.0365-22.114 2.2977-27.494m-10.436 24.516c-4.2026-10.305-3.4127-19.516 5.841-26.871m-14.177 23.408c-8.5881-16.98 0.71262-22.296 4.8567-30.264m-14.309 25.832c-4.0072-20.936-1.2058-20.499 12.931-26.595m0.26227 0.9702c-15.138 0.9261-28.091-5.2236-27.962 17.521" fill="none" stroke-width="1.8"/>
  <path d="m83.415 174.73c5.5871 1.861 11.057-15.582 7.2203-17.453-12.723-7.368-18.28 12.917-7.2203 17.453z" fill="#f55" fill-rule="evenodd" stroke-width=".8"/>
 </g>
 <g fill="none">
  <path d="m109.74 28.671c-9.1418 3.302-16.842 7.5929-20.085 10.942m26.133-4.6614c-6.9726 9.5366-18.313 23.373-23.261 25.358m34.967-18.905c-11.212 11.587-22.574 25.296-35.913 30.896m45.727-27.214c-5.1409 11.175-42.408 37.192-45.967 46.713m61.983-44.706c-19.002 22.907-59.084 33.937-54.849 57.065m5.4325 16.911c5.724-47.905 49.971-25.04 99.509-101.47m-101.78 93.144c-6.5118-33.351 45.346-32.305 71.151-75.514m-58.295 100.68c-1.5977-51.648 83.743-62.261 101.64-116.45m-83.172 108.33c-5.9173-30.211 62.867-52.072 80.758-82.761m-61.358 80.508c-5.6508-20.242 37.637-31.569 58.573-61.899m-39.172 61.899c-3.8034-18.886 29.84-26.523 39.342-45.4m-21.148 45.791c2.0794-10.683 16.496-16.682 20.792-25.954m-121.88-65.406c11.546 2.4057 22.908 2.7651 33.715 2.3152m-32.009 7.658c33.935 2.2072 86.58 15.274 120.72 40.744m-119.41-30.078c48.415 4.0197 114.37 25.418 118.94 41.276m-119.2-29.503c38.442-1.9702 113.45 21.471 118.15 49.171m-119.72-39.337c52.325-11.29 106.73 30.873 113.42 52.08m-115.92-43.978c54.145-11.602 97.116 41.489 98.194 40.93m-90.973-31.303c3.2914-8.9016 45.763 5.9204 68.919 30.611m-21.922 2.3549c-0.0533-2.2557-28.965-24.038-42.725-23.458m3.445 10.397c10.578 4.3328 17.547 10.388 26.152 16.108m-76.401-11.496c-12.683 0.73426-18.946 3.6713-40.434 1.3847m46.365-7.6591c-10.773 4.9998-27.017-1.0937-39.933-1.6207m49.884-9.8343c-13.022 6.3107-29.805 2.7563-44.905 1.7596m56.458-13.949c-16.922 7.1321-33.998 7.6249-49.933 5.1255m60.632-18.768c-19.644 7.5841-39.777 10.884-53.495 9.3492m54.479-18.077c-13.447 2.5016-33.791 6.6922-46.759 7.174m8.2641-11.243c0.50991-1.2227 35.246-6.5632 39.021-6.5963m-2.3625-19.876c-4.1796-0.97682-8.982-1.8875-15.09-0.31752m-13.226 15.579c8.192-4.6856 21.703-7.6238 29.518-5.9756m0.92787 3.8202c1.7032-8.2864 11.958-14.046 19.308-20.665m42.493 15.869c12.201 12.091 33.709 12.308 57.451 29.982m-40.122-37.046c13.908 10.661 27.803 11.707 40.432 22.022m-34.263-29.225c17.925 7.7142 27.824 13.313 36.37 18.462m-30.724-29.405c7.4439 0.71883 30.658 13.904 32.325 16.165m-20.642-18.243c7.2339 1.2712 16.386 4.1465 21.529 8.7263m-4.2256 59.351c-3.0051-26.655 3.8787-35.897 4.9194-66.356" stroke="#000" stroke-width="1.8"/>
  <g stroke="#ff2a2a" stroke-width="1.0733">
   <path d="m109.74 28.671c-9.1418 3.302-16.842 7.5929-20.085 10.942m26.133-4.6614c-6.9726 9.5366-18.313 23.373-23.261 25.358m34.967-18.905c-11.212 11.587-22.574 25.296-35.913 30.896m45.727-27.214c-5.1409 11.175-42.408 37.192-45.967 46.713m61.983-44.706c-19.002 22.907-59.084 33.937-54.849 57.065m5.4325 16.911c5.724-47.905 49.971-25.04 99.509-101.47m-101.78 93.144c-6.5118-33.351 45.346-32.305 71.151-75.514m-58.295 100.68c-1.5977-51.648 83.743-62.261 101.64-116.45m-83.172 108.33c-5.9173-30.211 62.867-52.072 80.758-82.761m-61.358 80.508c-5.6508-20.242 37.637-31.569 58.573-61.899m-39.172 61.899c-3.8034-18.886 29.84-26.523 39.342-45.4m-21.148 45.791c2.0794-10.683 16.496-16.682 20.792-25.954m-121.88-65.406c11.546 2.4057 22.908 2.7651 33.715 2.3152m-32.009 7.658c33.935 2.2072 86.58 15.274 120.72 40.744m-119.41-30.078c48.415 4.0197 114.37 25.418 118.94 41.276m-119.2-29.503c38.442-1.9702 113.45 21.471 118.15 49.171m-119.72-39.337c52.325-11.29 106.73 30.873 113.42 52.08m-115.92-43.978c54.145-11.602 97.116 41.489 98.194 40.93m-90.973-31.303c3.2914-8.9016 45.763 5.9204 68.919 30.611m-21.922 2.3549c-0.0533-2.2557-28.965-24.038-42.725-23.458m3.445 10.397c10.578 4.3328 17.547 10.388 26.152 16.108m-76.401-11.496c-12.683 0.73426-18.946 3.6713-40.434 1.3847m46.365-7.6591c-10.773 4.9998-27.017-1.0937-39.933-1.6207m49.884-9.8343c-13.022 6.3107-29.805 2.7563-44.905 1.7596m56.458-13.949c-16.922 7.1321-33.998 7.6249-49.933 5.1255m60.632-18.768c-19.644 7.5841-39.777 10.884-53.495 9.3492m54.479-18.077c-13.447 2.5016-33.791 6.6922-46.759 7.174m8.2641-11.243c0.50991-1.2227 35.246-6.5632 39.021-6.5963m-2.3625-19.876c-4.1796-0.97682-8.982-1.8875-15.09-0.31752m-13.226 15.579c8.192-4.6856 21.703-7.6238 29.518-5.9756m0.92787 3.8202c1.7032-8.2864 11.958-14.046 19.308-20.665m42.493 15.869c12.201 12.091 33.709 12.308 57.451 29.982m-40.122-37.046c13.908 10.661 27.803 11.707 40.432 22.022m-34.263-29.225c17.925 7.7142 27.824 13.313 36.37 18.462m-30.724-29.405c7.4439 0.71883 30.658 13.904 32.325 16.165m-20.642-18.243c7.2339 1.2712 16.386 4.1465 21.529 8.7263m-4.2256 59.351c-3.0051-26.655 3.8787-35.897 4.9194-66.356"/>
   <path d="m228.01 27.242c-3.3458 18.454-11.055 28.125-17.08 40.451m22.927-26.446c-4.1483 14.447-12.507 27.796-22.834 39.374m25.991-23.801c-6.9601 17.534-16.402 29.344-25.806 38.883m27.848-23.211c-5.4335 13.914-15.3 26.762-27.662 37.022m28.498-21.548c-7.1137 18.438-19.171 24.237-28.962 34.673m30.075-17.532c-7.4063 13.484-19.404 20.981-30.11 29.238m-0.6165 13.856c7.7615-5.2402 27.406-20.87 30.633-28.207m-31.119 38.924c9.9632-6.8542 20.221-13.587 30.655-21.686m-31.839 33.594c8.307-5.5676 12.793-9.422 30.26-19.099m-30.539 27.032c6.6822-5.8554 15.704-10.888 29.055-14.398m-29.796 23.8c6.3227-6.8024 17.605-9.9446 28.962-13.712m-29.332 20.862c6.1785-5.0131 17.536-6.6117 27.383-9.2059m-28.359 17.728c1.1149-3.087 16.351-5.0693 26.224-7.4441m-27.338 17.923c6.3488-4.7275 15.788-6.3217 25.295-7.2478m-26.177 14.25c7.0844-2.7893 15.639-3.8334 23.949-4.5533m-17.916 12.144c1.2194-1.7728 13.914-4.1851 15.038-3.5258m-9.0039-195.3c7.8702 4.8444 15.234 10.606 19.68 21.645m-21.535-8.6193c9.7061 7.2456 20.794 12.967 24.598 29.677m-26.548-16.259c13.341 7.357 21.193 19.266 27.662 32.321m-29.426-20.079c12.321 9.9754 22.145 22.121 30.26 35.75m-0.18494 14.103c-7.0803-13.207-18.249-24.495-29.704-35.65m29.225 51.864c-7.0113-16.321-17.211-28.017-28.668-36.781m0 17.531c11.446 6.8598 20.41 16.337 28.405 26.837m-1.4848 14.887c-4.5526-11.634-15.894-20.796-27.477-29.872m-0.74187 12.928c10.505 7.7351 19.96 16.501 27.012 27.62m-2.5767 16.56c-0.52455-14.286-15.611-24.12-24.628-34.87m-0.45662 10.964c0.85056-0.2668 21.381 28.671 23.577 33.889m-3.2486 12.34c-4.9079-13.258-13.812-22.682-21.164-33.593m19.262 42.8c-5.3353-10.314-13.115-19.382-20.097-28.207m-1.2068 12.242c6.8619 8.7439 13.591 17.468 18.751 25.955m-3.0637 9.1574c-5.0866-7.9821-10.802-15.964-17.126-23.946m-1.0679 11.556 5.6634 6.4651m-200.88-93.242c10.446-20.632 23.278-4.7099 37.316-9.0107"/>
   <path d="m109.56 28.025c-25.317 0.47848-35.281 9.3823-39.172 13.908-9.0802 10.564-19.17 25.212-29.186 38.707-17.838 24.03-34.022 46.512-33.729 50.776 1.0721 15.544 33.833 27.356 65.625 38.911 2.6708-5.8697 8.2934-14.953 6.9758-20.127-9.4271-6.2865-18.439-12.294-35.088-22.468 2.722 0.70009 19.696-22.795 41.369-41.135 13.166 12.74 15.765 27.458 19.544 42.181 51.036-5.0605 94.738-5.2479 103.36-7.0957 1.2006-13.605 1.676-23.803 2.2236-35.477-0.41796 58.243-2.0062 96.592-8.3822 143.4 6.5129-0.46526 13.059 3.5423 18.997 8.0946 12.081-36.841 18.351-81.593 18.877-120.29 0.61649-45.28-6.1712-82.485-13.155-90.355-10.082-11.362-29.907-5.9822-44.86-8.9732-12.108 43.284-58.076 28.711-73.4 9.9523z"/>
  </g>
 </g>
 <path d="m202.71 228.71-1.6961 9.934c7.6727 0.82688 13.449 3.6532 17.994 7.5969 1.42-2.986 3.281-6.2776 4.0967-10.091-6.1049-4.5454-13.946-8.0128-20.395-7.4396zm-97.411-100.97c0.35526 4.1906 2.8206 8.5588 4.1111 12.915 29.674-11.155 92.365-13.107 99.178-6.1641 0.4284-4.431 0.96719-8.82 0.95675-13.159-16.688-2.1366-21.851-3.9238-57.122-1.1224-16.156 0.90631-32.761 5.8909-47.123 7.531z" fill="#ff8080" fill-rule="evenodd" stroke="#000" stroke-width=".8"/>
 <path d="m77.539 148.98c-6.423-2.3604-13.396 4.8664-20.514 14.594m-7.8284-2.3836c-2.1922-4.0296 10.282-16.078 21.721-16.846m-30.297 13.581c-1.4503-5.0958 7.9224-15.931 22.901-18.445m-33.803 13.155c-0.96967-7.142 17.64-16.378 24.984-18.542m-35.552 13.222c-0.23928-7.8211 18.677-12.088 28.72-17.706m-2.5433-1.1962c-13.67 4.1697-32.679 2.9966-33.113 12.03m-4.2026-10.856c10.455-3.5611 24.536-1.9073 37.502-1.8599-9.8701-3.5809-20.236-6.292-29.148-11.558m29.704 10.97c-9.8273-6.4033-16.103-15.621-20.794-24.682m25.817 20.219c-15.475-11.413-17.463-19.272-14.9-35.238m18.236 31.01c-5.4774-9.4429-12.847-16.123-11.132-40.397m17.686 33.509c-4.4596-9.1485-15.261-21.891-10.55-43.284m17.73 34.965c-10.81-10.532-11.813-30.859-10.397-45.544m16.654 39.675c-9.8472-19.93-8.7281-33.949-9.4125-48.782m15.255 43.068c-3.1984-16.498-7.5996-33.929-7.0865-52.47m14.016 47.894c0.10554-0.95256-4.6749-42.386-4.2695-54.064m4.5714-1.2635c7.4888 25.126 4.2841 40.53 0.62694 55.524m-17.442 81.217c-1.7189-8.5047-1.6436-16.354 1.1818-23.2m-6.3008 21.885c-5.1827-15.626-1.7983-20.095 0.9843-25.346m-8.1387 23.13c-5.586-18.522-1.0365-22.114 2.2977-27.494m-10.436 24.516c-4.2026-10.305-3.4127-19.516 5.841-26.871m-14.177 23.408c-8.5881-16.98 0.71262-22.296 4.8567-30.264m-14.309 25.832c-4.0072-20.936-1.2058-20.499 12.931-26.595m0.26227 0.9702c-15.138 0.9261-28.091-5.2236-27.962 17.521" fill="none" stroke="#ff2a2a" stroke-width="1.0733"/>
 <path d="m72.892 170.69c-3.3353-14.021 3.6347-20.57 6.4939-21.594 4.3431 2.7313 7.7626 5.4627 11.643 8.194-6.6382-4.0439-13.809 13.643-7.0886 17.513-2.9686-0.7549-7.7763-2.0247-11.048-4.1138z" fill="#ff8080" fill-rule="evenodd" stroke="#000" stroke-width=".8"/>
</svg>
