<svg xmlns="http://www.w3.org/2000/svg" cursor="default" viewBox="0 0 256 256">
    <g stroke="#000" transform="translate(5.193 -796.252)">
        <path fill="#ff8080" fill-rule="evenodd" d="M199.684 931.178c1.94-.071 2.515-3.308 2.5-6.406-.014-3.089-.488-5.866-2.375-5.97z"/>
        <path fill="#f55" fill-rule="evenodd" d="M194.25 932.237l5.625-.062c.811-.64.781-13.72.313-14.25l-6.188-.063z"/>
        <path fill="none" stroke-width=".5" d="M194.211 930.342l5.59-.088M194.62 928.296c.154.022 5.678-.066 5.678-.066M193.946 926.1l6.099.044M193.924 924.133l6.143.044M194.012 921.945l6.254.089M193.99 919.846l6.364.155"/>
        <path fill="#f55" fill-rule="evenodd" d="M188.25 894.532c.332-.217 2.623-1.364 2.623-1.364-.776-5.502-3.464-9.354-7.202-11.375l-2.835 1.026z"/>
        <path fill="#b3b3b3" fill-rule="evenodd" d="M87.369 863.117l.398-25.625c2.257-1.812 11.391-2.712 13.248-1.88l.235 20.75zM144.813 855.862c.078-6.53-.207-14.28-.078-19.593 3.62-.674 8.809-.63 13.849 1.026l1.166 26.067z"/>
        <path fill="#ff8080" fill-rule="evenodd" d="M101.983 840.332c.203 3.126.165 15.09.267 17.78l41.688.063.062-17.938c-5.256-.906-27.723-1.378-42.017.095z"/>
        <path fill="#ff8080" fill-rule="evenodd" d="M102.25 820.612l-.326 18.839c15.867-1.353 33.91-.96 42.326.161l-.5-19.5c-10.961-.56-27.406-.94-41.5.5z"/>
        <path fill="#ff8080" fill-rule="evenodd" d="M102.875 805.487c-.192 4.866-.692 9.117-.438 14.875 3.708-.472 27.257-1.477 41.563 0l-.75-14.562c-8.361-1.228-27.846-1.712-40.375-.313z"/>
        <path fill="#b3b3b3" fill-rule="evenodd" d="M143.813 805.737c.1 2.989.472 7.524.474 9.065 5.357-.291 8.663-.064 11.4.747l-1.875-8.47c-1.336-1.385-6.479-1.759-10-1.342zM144.476 815.586l.373 19.677c4.18-.93 11.365.12 13.66 1.096-.64-5.857-1.365-14.714-2.945-20.57-4.81-.736-7.894-.436-11.088-.203z"/>
        <path fill="#ff8080" fill-rule="evenodd" d="M80.338 843.334c-2.08 11.083-3.033 20.584-12.338 35.278l18.5-14.25.5-25.25c-4.276 1.08-5.22 2.561-6.662 4.222zM159.427 840.394l1.323 25.718 16.25 12c-5.978-12.257-9.988-23.208-11.509-34.293-1.98-1.246-3.846-3.37-6.064-3.425z"/>
        <path fill="#b3b3b3" fill-rule="evenodd" d="M87.817 836.535c4.45-2.43 9.713-2.359 13.414-1.779l.327-19.717c-3.126-.072-8.16.553-11.755 2.608-1.487 6.428-1.766 12.46-1.986 18.888z"/>
        <path fill="#b3b3b3" fill-rule="evenodd" d="M90.068 816.675l1.547-8.176c.884-2.484 7.321-2.932 10.385-3.005l-.22 8.662a29.24 29.24 0 0 0-11.712 2.519zM86.855 986.815l.399 25.626c2.256 1.812 11.39 2.711 13.248 1.88l.235-20.75zM144.299 994.07c.078 6.531-.207 14.28-.078 19.593 3.62.674 8.81.63 13.85-1.026l1.165-26.067z"/>
        <path fill="#ff8080" fill-rule="evenodd" d="M101.737 991.82l41.687-.062.063 17.937c-5.256.906-27.834 1.555-42.128.082-.33-5.39.19-12.218.378-17.956z"/>
        <path fill="#ff8080" fill-rule="evenodd" d="M101.737 1029.32l-.326-18.838c15.867 1.353 33.91.96 42.326-.162l-.5 19.5c-10.962.56-27.406.94-41.5-.5z"/>
        <path fill="#ff8080" fill-rule="evenodd" d="M102.362 1044.445l-.438-14.875c3.708.473 27.256 1.477 41.563 0l-.75 14.563c-8.362 1.228-27.847 1.712-40.375.312z"/>
        <path fill="#b3b3b3" fill-rule="evenodd" d="M143.299 1044.195c.101-2.988.473-7.524.474-9.065 5.357.292 8.663.064 11.401-.747l-1.875 9c-1.336 1.386-6.48 1.23-10 .812zM143.962 1034.346l.374-19.677c4.179.93 11.364-.12 13.659-1.095-.64 5.856-1.365 14.713-2.944 20.57-4.81.735-7.894.436-11.089.202z"/>
        <path fill="#ff8080" fill-rule="evenodd" d="M79.825 1006.598c-2.08-11.082-3.034-20.584-12.338-35.278l18.5 14.25.5 25.25c-4.276-1.08-5.221-2.56-6.662-4.222zM158.913 1009.538l1.324-25.718 16.25-12c-5.978 12.258-9.989 23.209-11.51 34.293-1.979 1.247-3.846 3.37-6.064 3.425z"/>
        <path fill="#b3b3b3" fill-rule="evenodd" d="M87.303 1013.398c4.45 2.43 9.526 1.858 13.414 1.778l.515 19.842c-3.126.072-8.348-.677-11.943-2.732-1.486-6.429-1.766-12.46-1.986-18.888zM89.518 1033.2l1.583 8.234c.885 2.484 7.322 2.931 10.386 3.005l-.346-9.162c-3.625-.01-7.684-.315-11.623-2.077z"/>
        <path fill="#f55" fill-rule="evenodd" d="M181.992 966.537c.353.177 1.856 1.591 1.856 1.591 4.36-3.444 5.919-8.128 6.836-11.969l-1.533-1.466z"/>
        <ellipse cx="122.875" cy="925.362" fill="#666" rx="72.59" ry="73.215"/>
        <ellipse cx="122.875" cy="925.362" fill="#999" stroke-width=".886" rx="64.303" ry="64.857"/>
        <ellipse cx="122.875" cy="925.362" fill="#faa" stroke-width=".851" rx="61.757" ry="62.289"/>
        <ellipse cx="122.875" cy="925.362" fill="#e6e6e6" stroke-width=".769" rx="55.823" ry="56.304"/>
        <path fill="none" d="M122.646 979.987l.027-4.25M95 972.362l2-3.25M75.375 951.362l3.5-1.875M68.25 924.237H72M76.875 897.362l3.5 2M96 877.237l1.875 3.25M122.948 870.468l-.008 3.5M122.729 973.281l-.015-10.066M98.125 966.737l7.25-12.875M80.625 948.487l12.875-7.5M74.25 924.112h10.125M81.375 899.925l12.5 7.437M99 881.987l7.25 12.5M122.948 876.718c.125.625.063 11.375.063 11.375"/>
        <g fill="none" stroke-width=".5">
            <path d="M99.65 975.123l1.686-3.626M105.245 977.09l1.342-3.658M110.87 978.712c.126-.25.843-3.876.843-3.876M116.871 979.834c.063-.25.154-4.22.154-4.22"/>
        </g>
        <g fill="none" stroke-width=".5">
            <path d="M77.83 956.272l3.33-2.214M81.578 960.868l3.053-2.42M85.531 965.187c.237-.148 2.74-2.867 2.74-2.867M90.065 969.275c.183-.18 2.332-3.518 2.332-3.518"/>
        </g>
        <g fill="none" stroke-width=".5">
            <path d="M68.968 929.13l3.978-.395M70.125 934.947l3.83-.708M71.594 940.614c.279-.02 3.764-1.249 3.764-1.249M73.684 946.35c.247-.074 3.71-2.016 3.71-2.016"/>
        </g>
        <g fill="none" stroke-width=".5">
            <path d="M74.073 902.046l3.62 1.7M72.085 907.633l3.652 1.357M70.44 913.253c.25.125 3.873.857 3.873.857M69.295 919.249c.25.063 4.218.17 4.218.17"/>
        </g>
        <g fill="none" stroke-width=".5">
            <path d="M91.65 880.267l2.355 3.231M87.22 884.21l2.549 2.945M83.075 888.345c.158.23 2.983 2.614 2.983 2.614M79.187 893.052c.188.175 3.616 2.178 3.616 2.178"/>
        </g>
        <g fill="none" stroke-width=".5">
            <path d="M118.73 870.315l.305 3.987M112.89 871.339l.619 3.845M107.19 872.677c.013.279 1.162 3.791 1.162 3.791M101.408 874.635c.067.248 1.93 3.754 1.93 3.754"/>
        </g>
        <g fill="none">
            <path d="M150.517 972.379l-2-3.25M170.142 951.379l-3.5-1.875M177.267 924.254h-3.75M168.642 897.379l-3.5 2M149.517 877.254l-1.875 3.25M147.392 966.754l-7.25-12.875M164.892 948.504l-12.875-7.5M171.267 924.129h-10.125M164.142 899.942l-12.5 7.437M146.517 882.004l-7.25 12.5"/>
            <g stroke-width=".5">
                <path d="M145.867 975.14l-1.686-3.626M140.272 977.106l-1.342-3.657M134.646 978.728c-.124-.25-.841-3.875-.841-3.875M128.646 979.85c-.062-.25-.154-4.218-.154-4.218"/>
            </g>
            <g stroke-width=".5">
                <path d="M167.686 956.289l-3.33-2.214M163.94 960.885l-3.054-2.42M159.986 965.204c-.237-.148-2.74-2.867-2.74-2.867M155.452 969.292c-.183-.18-2.332-3.519-2.332-3.519"/>
            </g>
            <g stroke-width=".5">
                <path d="M176.55 929.147l-3.98-.395M175.392 934.963l-3.83-.707M173.923 940.631c-.279-.02-3.764-1.249-3.764-1.249M171.833 946.367c-.247-.074-3.71-2.016-3.71-2.016"/>
            </g>
            <g stroke-width=".5">
                <path d="M171.444 902.063l-3.62 1.7M173.432 907.65l-3.652 1.357M175.077 913.27c-.25.125-3.872.857-3.872.857M176.223 919.265c-.25.064-4.219.171-4.219.171"/>
            </g>
            <g stroke-width=".5">
                <path d="M153.868 880.284l-2.356 3.231M158.298 884.226l-2.55 2.946M162.442 888.362c-.158.23-2.983 2.614-2.983 2.614M166.33 893.068c-.188.176-3.616 2.179-3.616 2.179"/>
            </g>
            <g stroke-width=".5">
                <path d="M126.786 870.332l-.304 3.987M132.627 871.355l-.619 3.846M138.327 872.694c-.013.279-1.162 3.791-1.162 3.791M144.11 874.651c-.068.249-1.93 3.755-1.93 3.755"/>
            </g>
        </g>
    </g>
</svg>
