<svg xmlns="http://www.w3.org/2000/svg" cursor="default" viewBox="0 0 256 256">
    <g fill-rule="evenodd">
        <path fill="#faa" stroke="#000" d="M21.12 88.862c2.987-5.467 14.405-25.7 14.942-26.079 91.96-28.286 220.256 85.428 207.183 129.047l-15.91 21.744C263.425 154.576 61.41 31.114 21.12 88.862z"/>
        <path fill="#ff8080" stroke="#000" d="M32.88 78.516c-4.096 38.164 133.97 145.822 199.051 122.33l-7.3 14.931c-6.753 3.57-13.824 4.703-22.38 4.211-22.839-1.313-50.444-12.163-76.593-25.305-17.305-8.699-34.302-19.114-49.743-31.213-16.512-12.938-31.262-27.82-43.278-45.157-5.883-8.489-8.819-13.856-10.936-26.428 2.198-7.602 6.151-11.593 11.18-13.369z"/>
        <path fill="#f55" stroke="#000" d="M52.563 73.984c-14.171-.155-25.38 3.421-30.465 12.664-10.591 19.249 38.646 73.07 88.564 100.762 35.089 19.466 100.945 48.102 117.733 25.104 22.246-30.48-39.963-85.646-78.665-107.305-26.717-14.952-68.152-30.907-97.167-31.225zm-.479 1.475c28.503-.42 70.395 15.602 97.187 30.596 37.928 21.225 98.896 75.289 77.094 105.158-16.451 22.539-80.992-5.523-115.379-24.6-48.919-27.139-97.173-79.884-86.795-98.748 4.747-8.627 14.937-12.215 27.893-12.406z"/>
        <path fill="#ffd5d5" stroke="#000" d="M56.113 83.809c-.28.192-6.983.328-7.645-.619-3.006-2.931-4.216-3.97-7.602-8.264-1.354-4.81 5.947-17.064 13.126-24.572 1.45-.915 5.436-.56 5.657.31L47.628 74.881z"/>
        <path fill="#ff8080" stroke="#000" d="M56.154 83.787c2.713-1.75 5.068-5.412 5.66-7.6l-5.006-.533c-.507.994-.693 1.538-1.834 1.793-1.453-.534-1.629-1.397-2.172-2.386.988-6.711 5.085-11.442 9.103-17.67.587-.685 1.783-.108 1.791.822l3.492-.044c-1.622-2.558-5.484-7.32-7.438-7.669-4.325 8.107-14.854 20.745-12.974 24.321 3.03 4.204 7.946 9.395 9.378 8.966z"/>
        <path fill="#fff" d="M237.987 169.002c-3.959-8.758-9.09-17.492-15.138-26.041-16.44-19.375-37.743-36.956-59.855-50.814C131.779 72.583 98.849 60.379 75.5 61c23.233.298 55.6 13.332 86.001 33.463 21.582 14.292 42.13 32.133 57.718 51.499 7.088 7.343 13.447 15.062 18.768 23.04zM54.58 50.85c.984-.245 1.965-.478 2.635-.214.072.066.137.139.195.218.294.398.318.841.231 1.24-.083.379-.28.781-.519 1.187-.882 1.497-3.185 4.287-5.547 7.911 2.187-3.928 4.079-6.667 4.704-8.32.155-.411.216-.718.199-.917-.02-.217-.1-.182-.126-.175-.009.003-.018.004-.032.003.098-.33-.631-.73-1.74-.933z"/>
    </g>
</svg>
