<svg xmlns="http://www.w3.org/2000/svg" viewBox="0 0 64 64">
    <path fill="#f55" stroke="#000" d="M31.63 51.32s11.56-.2 14.16-12.29c2.6-12.08-7.08-16.45-7.08-16.45s2.92 7.7 0 11.56c1.05-14.6-10.69-22.93-12.18-21.24 2.44 3.9.5 11.87-5.13 18.77-10.37 13.08 4.13 19.6 10.23 19.65z"/>
    <path fill="#ff8080" stroke="#000" stroke-linecap="round" stroke-linejoin="round" stroke-opacity=".98" stroke-width=".65" d="M27.48 52.54c9.74-26.4 31.83-13.45 19.8-38.65-1.49-4.75-2.48-2.45-1.38 3.03C47 22.41 44.43 13.44 44 12c-.35-1.22-.8-1.41-1.1 3.63-.3 5.05-.9-4.89-1.46-3.78-.56 1.11-.62.48-1.33 4.74-.7 4.27-3.71-1.24-20.96 6.73C17.9 19.24 33.78 11.5 33.78 11.5s.9-2.33.08-2.55C30.69 8.06 19.69 16 19.69 16s5.43-4.15 6.1-5.38c.67-1.23-3.76.44-3.76.44-.41.32 1.51-.64 2.28-2.17.77-1.53-2.79.95-3.92 1.46-1.14.51-2.9 1.55-2.9 1.55-.08-1.04 2.34-3.37 1-2.76-1.32.62-3.73 4.73-3.73 4.73s-.31 3.52.44 3.91c.75.4 1.88 1.57 7.32-1.87 5.31-3.36 6.43-5.41 10.39-5.76 0 0-15.72 8.03-17.17 12.05-1.44 4.01 4.36 7.57 6.55 5.68 6.21-5.33 16.85-9.72 21.04-7.4 8.85 9.6-11.74 14.7-17.19 20.58-.25.27-2.85 5.17-2.9 4.32-.06-.87.42-5.67-.25-4.57-.52.85-1.04 6.72-1.5 6.86-.62.17-.13-6.4-.57-5.89-.82.95-.23 6.2-.91 6.2-1.1 0-.35-6.17-.95-5.26-1.44 2.18-4.13 8.74-.3 11.94 3.82 3.21 8 4.73 8.73-2.13z"/>
    <path fill="#f55" d="M24.8 27.64c5.24-9.5-1.36-10.17 8.89-9.84 1.56 1.58 1.04 1.9 2.09 4a22.53 22.53 0 0 1 1.76 4.67c-1.27 4.07-8.55.36-12.73 1.17z"/>
    <path fill="none" stroke="#000" stroke-linecap="square" d="M27.56 17.22a19.06 19.06 0 0 1-3.3 10.43m8.11-11.6a22.47 22.47 0 0 1 3.7 5.18"/>
</svg>