<?xml version="1.0" encoding="UTF-8" standalone="no"?>
<!-- Created with Inkscape (http://www.inkscape.org/) -->

<svg
   xmlns:dc="http://purl.org/dc/elements/1.1/"
   xmlns:cc="http://creativecommons.org/ns#"
   xmlns:rdf="http://www.w3.org/1999/02/22-rdf-syntax-ns#"
   xmlns:svg="http://www.w3.org/2000/svg"
   xmlns="http://www.w3.org/2000/svg"
   xmlns:sodipodi="http://sodipodi.sourceforge.net/DTD/sodipodi-0.dtd"
   xmlns:inkscape="http://www.inkscape.org/namespaces/inkscape"
   width="100%"
   height="100%"
   viewBox="0 0 64.000001 64.000001"
   id="svg4311"
   version="1.1"
   inkscape:version="0.91 r13725"
   sodipodi:docname="essenceHorseMorph.svg">
  <defs
     id="defs4313">
    <inkscape:path-effect
       effect="powerstroke"
       id="path-effect4155"
       is_visible="true"
       offset_points="0.92799346,1.2886104"
       sort_points="true"
       interpolator_type="Linear"
       interpolator_beta="0.2"
       start_linecap_type="zerowidth"
       linejoin_type="round"
       miter_limit="4"
       end_linecap_type="zerowidth"
       cusp_linecap_type="round" />
    <inkscape:path-effect
       effect="powerstroke"
       id="path-effect4151"
       is_visible="true"
       offset_points="0,0.5"
       sort_points="true"
       interpolator_type="CubicBezierJohan"
       interpolator_beta="0.2"
       start_linecap_type="zerowidth"
       linejoin_type="round"
       miter_limit="4"
       end_linecap_type="zerowidth"
       cusp_linecap_type="round" />
    <inkscape:path-effect
       effect="powerstroke"
       id="path-effect4147"
       is_visible="true"
       offset_points="0,0.5"
       sort_points="true"
       interpolator_type="CubicBezierJohan"
       interpolator_beta="0.2"
       start_linecap_type="zerowidth"
       linejoin_type="round"
       miter_limit="4"
       end_linecap_type="zerowidth"
       cusp_linecap_type="round" />
    <inkscape:path-effect
       effect="powerstroke"
       id="path-effect4183"
       is_visible="true"
       offset_points="0.238227,0.51804536"
       sort_points="true"
       interpolator_type="Linear"
       interpolator_beta="0.2"
       start_linecap_type="zerowidth"
       linejoin_type="round"
       miter_limit="4"
       end_linecap_type="zerowidth"
       cusp_linecap_type="round" />
  </defs>
  <sodipodi:namedview
     id="base"
     pagecolor="#ffffff"
     bordercolor="#666666"
     borderopacity="1.0"
     inkscape:pageopacity="0.0"
     inkscape:pageshadow="2"
     inkscape:zoom="7.9195959"
     inkscape:cx="-3.5678482"
     inkscape:cy="24.791593"
     inkscape:document-units="px"
     inkscape:current-layer="layer5"
     showgrid="false"
     units="px"
     inkscape:window-width="2560"
     inkscape:window-height="1388"
     inkscape:window-x="-8"
     inkscape:window-y="-8"
     inkscape:window-maximized="1"
     showguides="false" />
  <metadata
     id="metadata4316">
    <rdf:RDF>
      <cc:Work
         rdf:about="">
        <dc:format>image/svg+xml</dc:format>
        <dc:type
           rdf:resource="http://purl.org/dc/dcmitype/StillImage" />
        <dc:title />
      </cc:Work>
    </rdf:RDF>
  </metadata>
  <g
     inkscape:groupmode="layer"
     id="layer5"
     inkscape:label="Stage5"
     style="display:inline;opacity:1">
    <path
       sodipodi:type="star"
       style="fill:#ff8080;fill-opacity:1;stroke:#000000;stroke-width:0.73031849;stroke-linecap:round;stroke-miterlimit:4;stroke-dasharray:none;stroke-dashoffset:0;stroke-opacity:1"
       id="path4168"
       sodipodi:sides="5"
       sodipodi:cx="1.4285713"
       sodipodi:cy="-9.5714273"
       sodipodi:r1="17.431536"
       sodipodi:r2="14.102408"
       sodipodi:arg1="0.90885469"
       sodipodi:arg2="1.5371732"
       inkscape:flatsided="true"
       inkscape:rounded="0"
       inkscape:randomized="0"
       d="M 12.142857,4.1785731 -8.3375598,4.867448 -15.321516,-14.397712 0.8425794,-26.993111 17.816495,-15.512335 Z"
       inkscape:transform-center-x="0.97927869"
       inkscape:transform-center-y="-3.2456342"
       transform="matrix(1.5645444,0.05692315,-0.03980006,1.6319874,29.685873,48.596329)" />
    <path
       style="display:inline;opacity:1;fill:#ff2a2a;fill-rule:evenodd;stroke:none;stroke-width:0.4632912px;stroke-linecap:butt;stroke-linejoin:miter;stroke-opacity:1"
       d="m 31.729117,17.874947 c -7.753064,0.15941 -13.359015,6.065557 -14.009413,24.228743 -0.02333,0.651053 -1.033822,0.758546 -2.050483,1.666843 0.120394,1.220819 0.494159,3.033425 0.793736,3.981898 3.17902,-0.644702 4.580332,-1.234413 6.627684,-1.749524 -0.369476,-5.115475 -0.513854,-23.502481 8.367281,-23.712814 11.02379,-0.261078 10.377598,15.601091 10.586434,23.73266 2.710787,0.608152 3.65502,1.028601 5.777723,1.650304 0.463982,-1.244945 1.455446,-2.681445 1.66354,-3.836383 C 48.361908,42.685111 46.380855,42.478833 46.35698,41.789503 45.720808,23.439943 40.723791,17.690017 31.729117,17.874947 Z m 8.430121,5.271717 a 0.63065191,0.83346356 70.441759 0 1 0.644909,0.410099 0.63065191,0.83346356 70.441759 0 1 -0.625067,0.856568 0.63065191,0.83346356 70.441759 0 1 -0.965712,-0.360487 0.63065191,0.83346356 70.441759 0 1 0.625067,-0.85657 0.63065191,0.83346356 70.441759 0 1 0.241428,-0.04631 0.63065191,0.83346356 70.441759 0 1 0.07936,-0.0032 z m -16.003672,0.320802 a 0.83280437,0.63115117 17.971441 0 1 0.300958,0.03968 0.83280437,0.63115117 17.971441 0 1 0.644909,0.840035 0.83280437,0.63115117 17.971441 0 1 -0.955789,0.386946 0.83280437,0.63115117 17.971441 0 1 -0.644907,-0.840038 0.83280437,0.63115117 17.971441 0 1 0.654829,-0.42663 z m 18.01116,3.360142 a 0.63065191,0.83346356 70.441759 0 1 0.641602,0.410096 0.63065191,0.83346356 70.441759 0 1 -0.625069,0.856569 0.63065191,0.83346356 70.441759 0 1 -0.965711,-0.360485 0.63065191,0.83346356 70.441759 0 1 0.625065,-0.856573 0.63065191,0.83346356 70.441759 0 1 0.244736,-0.04631 0.63065191,0.83346356 70.441759 0 1 0.07936,-0.0032 z m -19.889664,0.05622 a 0.83280437,0.63115117 17.971441 0 1 0.0032,0 0.83280437,0.63115117 17.971441 0 1 0.300955,0.04299 0.83280437,0.63115117 17.971441 0 1 0.644914,0.840042 0.83280437,0.63115117 17.971441 0 1 -0.959094,0.383629 0.83280437,0.63115117 17.971441 0 1 -0.64491,-0.84003 0.83280437,0.63115117 17.971441 0 1 0.654832,-0.426637 z m -1.170758,4.160488 a 0.83280437,0.63115117 17.971441 0 1 0.300957,0.04299 0.83280437,0.63115117 17.971441 0 1 0.644909,0.840036 0.83280437,0.63115117 17.971441 0 1 -0.95579,0.383636 0.83280437,0.63115117 17.971441 0 1 -0.644905,-0.840033 0.83280437,0.63115117 17.971441 0 1 0.654829,-0.426632 z m 22.353546,0.525852 a 0.63065191,0.83346356 70.441759 0 1 0.641599,0.406787 0.63065191,0.83346356 70.441759 0 1 -0.625065,0.856571 0.63065191,0.83346356 70.441759 0 1 -0.965708,-0.360486 0.63065191,0.83346356 70.441759 0 1 0.625064,-0.856575 0.63065191,0.83346356 70.441759 0 1 0.32411,-0.04629 z m -23.12413,4.573889 a 0.83280437,0.63115117 17.971441 0 1 0.300958,0.03968 0.83280437,0.63115117 17.971441 0 1 0.644909,0.840035 0.83280437,0.63115117 17.971441 0 1 -0.955788,0.383638 0.83280437,0.63115117 17.971441 0 1 -0.644911,-0.840038 0.83280437,0.63115117 17.971441 0 1 0.654832,-0.423323 z m 23.461466,0.119066 a 0.63065191,0.83346356 70.441759 0 1 0.720975,0.406788 0.63065191,0.83346356 70.441759 0 1 -0.625066,0.856572 0.63065191,0.83346356 70.441759 0 1 -0.96571,-0.360491 0.63065191,0.83346356 70.441759 0 1 0.625066,-0.856568 0.63065191,0.83346356 70.441759 0 1 0.244735,-0.0463 z"
       id="path4172"
       inkscape:connector-curvature="0" />
    <path
       style="display:inline;opacity:1;fill:#f9f9f9;fill-opacity:1;fill-rule:evenodd;stroke:none;stroke-width:1px;stroke-linecap:butt;stroke-linejoin:miter;stroke-opacity:1"
       d="M 32.58813,6.8299461 C 43.141652,14.150158 45.68552,16.35403 56.6841,24.88989 47.793699,22.27626 34.541579,9.5048609 32.58813,6.8299461 Z"
       id="path4281-0"
       inkscape:connector-curvature="0"
       sodipodi:nodetypes="ccc" />
    <path
       style="display:inline;opacity:1;fill:#000000;fill-opacity:0.44859811;fill-rule:evenodd;stroke:none;stroke-width:1px;stroke-linecap:butt;stroke-linejoin:miter;stroke-opacity:1"
       d="M 48.528934,55.968492 C 36.350582,56.180178 24.675347,56.047986 16.557409,55.981412 13.168111,46.178694 9.9127758,35.093102 6.3878346,24.118699 11.878755,36.064798 12.7552,43.733966 21.138496,50.327266 c 6.025034,4.738571 15.106093,4.469879 27.390438,5.641226 z"
       id="path4283-0"
       inkscape:connector-curvature="0"
       sodipodi:nodetypes="cccsc" />
  </g>
</svg>
