<svg xmlns="http://www.w3.org/2000/svg" viewBox="0 0 64 64">
    <g transform="translate(0 -988.362)">
        <ellipse cx="31.861" cy="1021.172" fill="#ff8080" stroke="#000" stroke-linecap="round" stroke-linejoin="round" rx="23.947" ry="23.608"/>
        <path fill="#f9f9f9" fill-rule="evenodd" d="M33.183 1000.688c8.462 1.116 16.427 3.742 20.246 18.98-11.69-16.704-13.196-13.754-20.246-18.98z"/>
        <path fill-opacity=".449" fill-rule="evenodd" d="M42.087 1042.076c-21.988 9.273-40.585-11.535-31.666-30.378.168 16.137 12.616 31.992 31.666 30.378z"/>
        <g fill-rule="evenodd">
            <path fill="#ff2a2a" stroke="#000" stroke-width=".53144" d="M31.768 1039.08c-7.037-6.694-12.279-15.386-12.195-26.269 1.68-.024 7.707-2.925 12.152-6.255 4.714 3.252 10.399 5.975 11.989 6.112.022 10.957-4.918 19.225-11.946 26.411z"/>
            <path fill="#fff" fill-opacity=".785" d="M32.222 1007.368c5.103 2.968 6.04 4.097 11.078 5.735-4.925-.515-7.58-2.064-11.078-5.735z"/>
            <path fill-opacity=".15" d="M19.69 1012.947c1.968-.504 8.608-3.899 12.006-6.274-.029 5.714.31 21.692.11 32.579-10.934-11.472-12.146-20.701-12.117-26.305z"/>
        </g>
    </g>
</svg>
