<svg version="1.1" viewBox="0 0 64 64" xmlns="http://www.w3.org/2000/svg">
 <ellipse cx="31.861" cy="32.81" rx="23.947" ry="23.608" fill="#ff8080" stroke="#000" stroke-linecap="round" stroke-linejoin="round"/>
 <path d="m33.183 12.326c8.462 1.116 16.427 3.742 20.246 18.98-11.69-16.704-13.196-13.754-20.246-18.98z" fill="#f9f9f9" fill-rule="evenodd"/>
 <path d="m42.087 53.714c-21.988 9.273-40.585-11.535-31.666-30.378 0.168 16.137 12.616 31.992 31.666 30.378z" fill-opacity=".449" fill-rule="evenodd"/>
 <g transform="translate(-13.885 1.091)">
  <ellipse transform="rotate(.6444)" cx="42.837" cy="27.709" rx="6.339" ry="7.8644" fill="#f55" stroke="#000" stroke-linecap="round" stroke-linejoin="round" stroke-width=".5"/>
  <path d="m40.387 22.33c0.36059-0.20064 0.98078-0.3245 1.4998-0.34023 0.21898-0.0066 0.39187 0.0034 0.4938-0.0076 0.16794-0.0181 0.3919-0.05416 0.66953-0.05773 0.34667-0.0045 0.70778 0.04416 1.0896 0.18216 0.45994 0.1662 0.84919 0.43033 1.0608 0.63014-0.21263-0.20081-0.5218-0.54218-0.94938-0.8422-0.35385-0.24829-0.73059-0.42606-1.136-0.51975-0.32-0.07395-0.60789-0.08262-0.80658-0.06121-0.12525 0.01349-0.31938 0.07445-0.54462 0.17775-0.4827 0.22138-1.0824 0.67473-1.377 0.83863z" fill="#faa"/>
 </g>
 <g transform="translate(-2.9064 .036307)">
  <ellipse transform="rotate(39.04)" cx="44.837" cy="12.286" rx="6.339" ry="7.8644" fill="#f55" stroke="#000" stroke-linecap="round" stroke-linejoin="round" stroke-width=".5"/>
  <path d="m26.285 32.14c0.3709-0.18088 0.99688-0.27107 1.516-0.25876 0.21902 0.0052 0.39111 0.02458 0.49349 0.01912 0.16867-9e-3 0.39425-0.03292 0.67167-0.0215 0.3464 0.01426 0.70436 0.08231 1.0782 0.24072 0.45029 0.1908 0.82472 0.47555 1.0252 0.6865-0.20147-0.212-0.49176-0.56956-0.90252-0.89223-0.33993-0.26703-0.70652-0.46489-1.1063-0.58032-0.31554-0.09112-0.60254-0.11532-0.8021-0.10467-0.12579 0.0067-0.32294 0.0571-0.55342 0.14809-0.49395 0.195-1.1173 0.61531-1.4202 0.76306z" fill="#faa"/>
 </g>
 <g transform="translate(-2.3312 1.5224)">
  <ellipse transform="rotate(.6444)" cx="42.837" cy="27.709" rx="6.339" ry="7.8644" fill="#f55" stroke="#000" stroke-linecap="round" stroke-linejoin="round" stroke-width=".5"/>
  <path d="m40.387 22.33c0.36059-0.20064 0.98078-0.3245 1.4998-0.34023 0.21898-0.0066 0.39187 0.0034 0.4938-0.0076 0.16794-0.0181 0.3919-0.05416 0.66953-0.05773 0.34667-0.0045 0.70778 0.04416 1.0896 0.18216 0.45994 0.1662 0.84919 0.43033 1.0608 0.63014-0.21263-0.20081-0.5218-0.54218-0.94938-0.8422-0.35385-0.24829-0.73059-0.42606-1.136-0.51975-0.32-0.07395-0.60789-0.08262-0.80658-0.06121-0.12525 0.01349-0.31938 0.07445-0.54462 0.17775-0.4827 0.22138-1.0824 0.67473-1.377 0.83863z" fill="#faa"/>
 </g>
 <g transform="translate(-6.9813 7.2752)">
  <ellipse transform="rotate(.6444)" cx="42.837" cy="27.709" rx="6.339" ry="7.8644" fill="#f55" stroke="#000" stroke-linecap="round" stroke-linejoin="round" stroke-width=".5"/>
  <path d="m40.387 22.33c0.36059-0.20064 0.98078-0.3245 1.4998-0.34023 0.21898-0.0066 0.39187 0.0034 0.4938-0.0076 0.16794-0.0181 0.3919-0.05416 0.66953-0.05773 0.34667-0.0045 0.70778 0.04416 1.0896 0.18216 0.45994 0.1662 0.84919 0.43033 1.0608 0.63014-0.21263-0.20081-0.5218-0.54218-0.94938-0.8422-0.35385-0.24829-0.73059-0.42606-1.136-0.51975-0.32-0.07395-0.60789-0.08262-0.80658-0.06121-0.12525 0.01349-0.31938 0.07445-0.54462 0.17775-0.4827 0.22138-1.0824 0.67473-1.377 0.83863z" fill="#faa"/>
 </g>
</svg>
