<svg xmlns="http://www.w3.org/2000/svg" viewBox="0 0 64 64">
    <g transform="translate(0 -988.362)">
        <ellipse cx="31.861" cy="1021.172" fill="#ff8080" stroke="#000" stroke-linecap="round" stroke-linejoin="round" rx="23.947" ry="23.608"/>
        <g opacity=".5">
            <path fill="#f55" fill-rule="evenodd" stroke="#ff2a2a" stroke-width=".354" d="M18.878 1036.411c-.097-2.782-.516-4.141-1.053-6.923-3.227-.836-7.036-4.713-.124-13.278.209-2.058-.119-4.047.386-6.04.314-1.237.771-2.551 1.083-2.886 0 0 18.305-.728 27.694.698.646.098 1.82.588 2.173.984.166.185.245 1.861.264 2.107 1.142 14.587-7.904 22.08-7.872 25.37z"/>
            <path fill="#ff2a2a" fill-rule="evenodd" d="M17.655 1016.305c.069 0 .138 0 .207-.01.51-.811.952-1.68 1.28-2.57-.428.845-.96 1.65-1.547 2.38l.06.197zM17.598 1029.43c.032.065.064.13.098.195.795.14 1.831.273 2.88.235 1.11-.04 2.225-.274 3.073-.886-.875.56-1.99.73-3.076.712-1.028-.017-2.04-.203-2.807-.393l-.168.138z"/>
            <path fill="none" stroke="#ff2a2a" stroke-width=".354" d="M29.348 1027.053c2.77 7.77 17.444 4.723 13.225-6.355"/>
            <path fill="#ff2a2a" fill-rule="evenodd" d="M29.398 1027.19c.036-.063.074-.124.113-.184-.483-1.114-.54-2.59-.551-3.795-.103 1.175-.17 2.703.227 3.917.07.023.14.044.21.062zM42.61 1020.785c.048-.042.097-.082.147-.12-.42-.952-.08-1.982-.4-3.92.183 1.803-.247 3.044.063 4.044h.19z"/>
            <path fill="#ff2a2a" fill-rule="evenodd" d="M42.857 1021.5c.036-.01.072-.015.109-.023-.247-1.415.021-2.451.632-3.25.616-.807 1.581-1.373 2.72-1.829-1.146.42-2.146.956-2.807 1.76-.663.806-.983 1.88-.764 3.354.037 0 .073-.01.11-.011zM26.955 1036.49l.158-.01c-.102-1.393-.13-3.021.175-4.212-.408 1.171-.489 2.809-.491 4.223h.158z"/>
            <ellipse cx="-494.791" cy="890.112" fill="#ff8080" rx="1.436" ry="1.796" transform="matrix(.85917 -.5117 .49636 .86811 0 0)"/>
            <ellipse cx="758.676" cy="679.01" fill="#ff8080" rx="1.444" ry="1.787" transform="matrix(.68752 .72616 -.712 .70217 0 0)"/>
            <path fill="#ff2a2a" fill-rule="evenodd" d="M29.66 1009.212c-.413-.082-.78-.355-1.097-.698a6.632 6.632 0 0 1-.792-1.094c-.042 0-.084.01-.126.015a5.862 5.862 0 0 0-.063.11c.255.353.557.74.9 1.052.357.328.754.57 1.179.615z"/>
            <path fill="#ff2a2a" fill-rule="evenodd" d="M21.622 1007.714c.795-.01 1.998.099 3.177.126 1.091.025 2.178-.018 2.888-.298.041-.05.079-.101.112-.152-.06 0-.121-.01-.182-.016-.664.292-1.717.367-2.817.372-1.174 0-2.384-.071-3.178-.032zM33.54 1008.36l.093.096c3.179.015 6.283-.24 9.41-.854-3.138.55-6.241.743-9.407.664l-.096.094z"/>
            <path fill="#ff2a2a" fill-rule="evenodd" d="M33.621 1008.272c-.291.237-.575.379-.894.582.335-.133.67-.222 1.011-.407z"/>
            <ellipse cx="-495.225" cy="890.278" fill="#f55" rx=".704" ry=".88" transform="matrix(.85917 -.5117 .49636 .86811 0 0)"/>
            <ellipse cx="759.147" cy="679.227" fill="#f55" rx=".707" ry=".876" transform="matrix(.68752 .72616 -.712 .70217 0 0)"/>
        </g>
        <path fill="#f9f9f9" fill-rule="evenodd" d="M33.183 1000.688c8.462 1.116 16.427 3.742 20.246 18.98-11.69-16.704-13.196-13.754-20.246-18.98z"/>
        <path fill-opacity=".449" fill-rule="evenodd" d="M42.087 1042.076c-21.988 9.273-40.585-11.535-31.666-30.378.168 16.137 12.616 31.992 31.666 30.378z"/>
        <path fill="#ff2a2a" fill-rule="evenodd" stroke="#000" stroke-width=".5" d="M31.726 1035.497c-5.194.096-8.889-3.627-8.74-8.072.174-5.238 6.605-10.096 9.117-18.634 2.436 8.7 7.846 13.18 8.213 18.408.325 4.63-3.954 8.213-8.59 8.298z"/>
        <path fill="none" stroke="#fff" stroke-linecap="round" d="M37.687 1031.154c1.878-1.776 1.562-5.737-.294-8.299"/>
    </g>
</svg>
