<svg xmlns="http://www.w3.org/2000/svg" viewBox="0 0 64 64">
    <g transform="translate(0 -988.362)">
        <ellipse cx="31.861" cy="1021.172" fill="#ff8080" stroke="#000" stroke-linecap="round" stroke-linejoin="round" rx="23.947" ry="23.608"/>
        <g fill="#ff2a2a" fill-rule="evenodd">
            <path stroke="#000" stroke-width=".239" d="M29.529 1020.237c.226-4.562 3.405-6.868 3.467-11.658.064-4.914-1.612-9.996-9.715-15.634l-19.46-.03-.42 27.293zM12.624 1020.218c10.624-1.613 15.769-11.32 9.79-21.418" transform="matrix(1.04717 0 0 1.10928 14.353 -95.59)"/>
            <path d="M36.42 1031.779c-.02.054-.04.11-.057.166.569.428 1.519.67 2.466.746.982.077 1.993-.022 2.648-.308-.669.23-1.674.27-2.632.139-.943-.13-1.817-.424-2.29-.843-.044.034-.09.067-.136.1z"/>
            <path stroke="#000" stroke-width=".239" d="M18.25 1018.363c-.687.642-1.002 1.29-1.321 1.897" transform="matrix(1.04717 0 0 1.10928 14.353 -95.59)"/>
            <path d="M37.947 1012.317c-.848-1.438-2.183-2.893-3.182-5.219.922 2.36 2.208 3.902 2.966 5.354z"/>
        </g>
        <path fill="#f9f9f9" fill-rule="evenodd" d="M33.183 1000.688c8.462 1.116 16.427 3.742 20.246 18.98-11.69-16.704-13.196-13.754-20.246-18.98z"/>
        <path fill-opacity=".449" fill-rule="evenodd" d="M42.087 1042.076c-21.988 9.273-40.585-11.535-31.666-30.378.168 16.137 12.616 31.992 31.666 30.378z"/>
    </g>
</svg>
