<svg xmlns="http://www.w3.org/2000/svg" viewBox="0 0 64 64">
    <g transform="translate(0 -988.362)">
        <ellipse cx="31.861" cy="1021.172" fill="#ff8080" stroke="#000" stroke-linecap="round" stroke-linejoin="round" rx="23.947" ry="23.608"/>
        <path fill="#f9f9f9" fill-rule="evenodd" d="M33.183 1000.688c8.462 1.116 16.427 3.742 20.246 18.98-11.69-16.704-13.196-13.754-20.246-18.98z"/>
        <path fill-opacity=".449" fill-rule="evenodd" d="M42.087 1042.076c-21.988 9.273-40.585-11.535-31.666-30.378.168 16.137 12.616 31.992 31.666 30.378z"/>
        <path fill="#f55" d="M26.992 1023.459c.506.69.541 1.592-.029 1.987-.5.373-1.323.16-1.76-.552-.505-.69-.52-1.523.05-1.918.48-.445 1.255-.136 1.74.483z"/>
        <path fill="none" stroke="#000" stroke-linecap="round" stroke-width=".292" d="M26.136 1022.871c-1.459-.564-1.648 1.395-.71 2.263.897.727 2.432.508 1.739-1.345"/>
        <path fill="none" stroke="#000" stroke-linecap="round" stroke-width=".146" d="M25.981 1023.906c-.503-.16-.57.396-.278.614.293.22.804.146.57-.397"/>
        <path fill="none" stroke="#000" stroke-linecap="round" stroke-width=".512" d="M28.644 1007.127s0 2.338-1.9 3.873c-1.315 1.096-4.676.584-6.21 2.046-1.682 1.534-.732 6.868-.732 10.741-.073 4.384-.95 8.111-.95 8.111M33.686 1007.273c.073 1.242-.22 2.484 1.68 3.727 1.608 1.169 4.97.73 6.504 2.411 1.68 1.9.658 7.015.585 10.888 0 4.31.584 8.038.584 8.038M30.398 1012.68c.511.585 1.096.804 1.754.221M24.414 1026.014c.658 3.215-.666 5.592-1.396 7.419"/>
        <path fill="none" stroke="#000" stroke-linecap="round" stroke-width=".512" d="M23.914 1018.907c.962 3.72-1.144 6.751 1.393 7.6 2.797.895 4.845-1.09 5.605-4.416"/>
        <path fill="#f55" d="M36.256 1023.397c-.505.69-.54 1.593.03 1.988.5.372 1.323.16 1.76-.552.505-.69.52-1.523-.05-1.918-.48-.445-1.255-.136-1.74.482z"/>
        <path fill="none" stroke="#000" stroke-linecap="round" stroke-width=".292" d="M37.113 1022.81c1.458-.564 1.648 1.394.71 2.262-.897.728-2.432.509-1.74-1.344"/>
        <path fill="none" stroke="#000" stroke-linecap="round" stroke-width=".146" d="M37.268 1023.845c.503-.16.57.396.277.614-.292.22-.803.145-.57-.397"/>
        <path fill="none" stroke="#000" stroke-linecap="round" stroke-width=".512" d="M39.429 1018.892c-.963 3.72 1.143 6.752-1.394 7.6-2.797.895-4.844-1.089-5.604-4.415M22.871 1033.214c.512-2.193 1.45-5.251 1.304-7.59M39.459 1033.58c-.658-1.17-.95-2.85-.658-7.454"/>
    </g>
</svg>
