<svg xmlns="http://www.w3.org/2000/svg" viewBox="0 0 64 64">
    <g transform="translate(0 -988.362)">
        <ellipse cx="31.861" cy="1021.172" fill="#ff8080" stroke="#000" stroke-linecap="round" stroke-linejoin="round" rx="23.947" ry="23.608"/>
        <path fill="#f55" fill-rule="evenodd" stroke="#000" stroke-width=".5" d="M19.6 1013.046l2.733 2.557.145-3.663c.115-2.933 3.103-2.915 3.091-.723l-.04 7.377 6.41 5.999c1.92 1.795-.644 4.602-2.602 2.75l-12.242-11.582c-1.963-1.857.793-4.318 2.505-2.716zM42.895 1029.026l-1.69-1.553-.045 2.017c-.066 2.935-3.095 2.877-3.1.686l-.014-5.733-1.98-1.835c-1.93-1.786.667-4.56 2.635-2.718l6.807 6.372c1.774 1.66-.916 4.324-2.612 2.765z"/>
        <path fill="#f9f9f9" fill-rule="evenodd" d="M33.183 1000.688c8.462 1.116 16.427 3.742 20.246 18.98-11.69-16.704-13.196-13.754-20.246-18.98z"/>
        <path fill-opacity=".449" fill-rule="evenodd" d="M42.087 1042.076c-21.988 9.273-40.585-11.535-31.666-30.378.168 16.137 12.616 31.992 31.666 30.378z"/>
    </g>
</svg>
