<svg xmlns="http://www.w3.org/2000/svg" viewBox="0 0 64 64">
    <g transform="translate(0 -988.362)">
        <ellipse cx="31.861" cy="1021.172" fill="#ff8080" stroke="#000" stroke-linecap="round" stroke-linejoin="round" rx="23.947" ry="23.608"/>
        <g fill="#ff2a2a" fill-rule="evenodd" stroke="#000" stroke-width=".57">
            <path stroke-width=".5415" d="M21.506 1008.43l6.594 7.163 1.122-2.531 1.103 6.996-6.914-1.407 2.646-.993-6.447-7.362-1.132 2.672-1.16-6.903 6.894 1.397zM36.016 1015.722l7.163-6.594-2.531-1.122 6.995-1.103-1.406 6.914-.993-2.646-7.362 6.447 2.672 1.132-6.903 1.161 1.397-6.894zM42.558 1034.498l-6.594-7.163-1.122 2.531-1.103-6.995 6.914 1.406-2.646.993 6.447 7.362 1.132-2.672 1.161 6.903-6.895-1.397zM28.048 1027.206l-7.163 6.594 2.531 1.122-6.995 1.103 1.406-6.914.993 2.646 7.362-6.447-2.672-1.132 6.903-1.16-1.397 6.893z"/>
        </g>
        <path fill="#f9f9f9" fill-rule="evenodd" d="M33.183 1000.688c8.462 1.116 16.427 3.742 20.246 18.98-11.69-16.704-13.196-13.754-20.246-18.98z"/>
        <path fill-opacity=".449" fill-rule="evenodd" d="M42.087 1042.076c-21.988 9.273-40.585-11.535-31.666-30.378.168 16.137 12.616 31.992 31.666 30.378z"/>
    </g>
</svg>
