<svg xmlns="http://www.w3.org/2000/svg" viewBox="0 0 64 64">
    <g transform="translate(0 -988.362)">
        <ellipse cx="31.861" cy="1021.172" fill="#ff8080" stroke="#000" stroke-linecap="round" stroke-linejoin="round" rx="23.947" ry="23.608"/>
        <path fill="#ff8080" fill-rule="evenodd" stroke="#000" stroke-width=".9" d="M19.455 1007.173c-1.28-1.315-3.004-.11-1.147 1.781l26.292 26.771c1.493 1.52 2.422-.228 1.521-1.154z"/>
        <path fill="#f55" fill-rule="evenodd" stroke="#000" stroke-width=".9" d="M19.782 1009.035c.566-.784 2.808.645 5.967 1.278 4.263.853 7.763-.386 12.554 3.963 4.612 4.187 3.929 9.68 4.764 14.533.44 2.56 2.097 5.175 1.732 5.508-.869.796-2.618-.698-4.896-.893-4.358-.374-10.272-.647-13.402-3.478-3.632-3.286-5.153-9.798-5.683-14.884-.297-2.85-1.526-5.348-1.036-6.027z"/>
        <path fill="none" stroke="#ff2a2a" stroke-linecap="round" stroke-width=".9" d="M21.579 1010.778c6.908 4.93 10.672-.263 16.39 6.135 4.383 4.904 1.707 12.69 5.08 15.899"/>
        <path fill="none" stroke="#ff2a2a" stroke-linecap="round" stroke-width=".9" d="M21.7 1010.894c3.937 6.675.027 11.305 6.589 17.369 4.693 4.338 11.257 1.353 14.64 4.552M21.884 1011.008c8.322 7.241 7.56 2.88 13.278 9.277 4.382 4.904 2.073 6.516 7.01 11.674"/>
        <path fill="none" stroke="#ff2a2a" stroke-linecap="round" stroke-width=".9" d="M42.07 1031.883c-7.476-5.013-6.295-1.843-12.014-8.241-4.382-4.904-2.968-6.324-8.274-12.71"/>
        <path fill="#f9f9f9" fill-rule="evenodd" d="M33.183 1000.688c8.462 1.116 16.427 3.742 20.246 18.98-11.69-16.704-13.196-13.754-20.246-18.98z"/>
        <path fill-opacity=".449" fill-rule="evenodd" d="M42.087 1042.076c-21.988 9.273-40.585-11.535-31.666-30.378.168 16.137 12.616 31.992 31.666 30.378z"/>
    </g>
</svg>
