<svg xmlns="http://www.w3.org/2000/svg" viewBox="0 0 64 64">
    <g transform="translate(0 -988.362)">
        <ellipse cx="31.861" cy="1021.172" fill="#ff8080" stroke="#000" stroke-linecap="round" stroke-linejoin="round" rx="23.947" ry="23.608"/>
        <path fill="#ff2a2a" fill-rule="evenodd" stroke="#000" stroke-width=".3" d="M16.257 1031.285c3.943-2.97 6.779-5.992 9.765-9.006.591-1.354.122-2.782.133-4.177.297-4.054 1.612-6.423 2.99-8.21.784-.576 4.53-.106 6.95-.299 2.839-.074 2.843 2.4 4.3 5.287.062.707-1.766 1.294-2.244 1.232-2.072-2.11-3.195-2.199-3.826-3.878.393 2.283-1.668 1.568-3.23 1.183 1.564.545 1.983.643 2.605 1.862.541 1.06 1.57 2.098 1.9 2.941 1.07 2.739-.332 4.909-1.649 6.62.815-1.123 1.796-1.53 2.43-3.43 2.205.235 1.612 2.48 2.216 3.864 2.423.72 3.116.612 4.673.918-2.927 1.124-2.697 1.798-3.925 2.68-1.896.887-3.44.576-5.153.845-.397-2.426-1.167-2.15-1.79-2.946-.25-.654.073-.945.134-1.4-1.166 1.315-2.331-.154-3.497-.508.933.648 2.468 1.52 2.643 1.884.267.638-1.69 1.915-2.537 2.874.988-.813 1.726-1.174 2.964-2.44 1.049.15 1.552 1.958 1.736 2.778-.815.756-1.33 1.588-2.644 2.221l-5.207 6.762c-.508-.426-9.353-7.345-9.737-7.657z"/>
        <path fill="#ff2a2a" fill-rule="evenodd" stroke="#000" stroke-width=".3" d="M36.918 1008.968c1.265-.943 2.692-.997 4.197-1.638 2.25-.308 2.899 2.367 3.533 3.082-.62 1.063-2.327 1.152-4.591 1.898-.561-2-1.463-3.316-3.139-3.342zM40.372 1013.373c.65-.283 2.794-1.162 4.215-1.428.568.081 1.366 1.308 1.668 3.536-.544.987-4.488 1.504-9.255 2.953-.322-.034-1.764-2.145-1.507-3.163.862-.331 1.444 1.217 3.121 1.59.568.083 2.498-.449 2.547-1.396-.256-.697-.363-1.395-.79-2.092zM37.485 1019.59c-.071-.76 5.38-1.904 8.017-2.758 1.15-.108 1.865 3.514 1.56 3.715-2.376.85-4.595 1.18-6.833 1.573-1.916.222-2.798-1.509-2.744-2.53zM39.137 1022.778c-.288.122-.14.882.143 1.963 1.465.324 1.89.59 4.394.973a12.49 12.49 0 0 0 3.265-1.087c.399.104.199-3.26-.484-3.228-2.79.976-4.289 1.253-7.318 1.379z"/>
        <path fill="#f9f9f9" fill-rule="evenodd" d="M33.183 1000.688c8.462 1.116 16.427 3.742 20.246 18.98-11.69-16.704-13.196-13.754-20.246-18.98z"/>
        <path fill-opacity=".449" fill-rule="evenodd" d="M42.087 1042.076c-21.988 9.273-40.585-11.535-31.666-30.378.168 16.137 12.616 31.992 31.666 30.378z"/>
        <path fill="#ffd5d5" d="M34.594 1010.3c.6-.15 1.353-.11 1.924.174.307.153.508.343.634.436.123.091.286.209.488.402.346.33.659.74 1.035 1.3.415.62.826 1.251 1.044 1.594-.267-.42-.486-.945-.818-1.716-.261-.61-.502-1.129-.818-1.561a2.61 2.61 0 0 0-.533-.557c-.17-.126-.488-.274-.903-.334-.77-.112-1.447.111-2.053.262zM41.188 1007.83c.172 0 .51.443.625.5.04.022.107.039.19.062.323.09.735.282.872.501-.105-.168-.269-.71-.532-1.002a.827.827 0 0 0-.213-.179c-.168-.086-.77.119-.942.119zM43.875 1012.526c.172 0 .511.441.625.5.04.02.108.038.19.06.324.092.735.283.873.502-.106-.168-.27-.71-.532-1.002a.827.827 0 0 0-.214-.179c-.167-.086-.77.119-.942.119zM44.719 1017.338c.172 0 .51.442.625.5.04.021.107.038.19.061.323.091.735.282.872.502-.105-.168-.269-.71-.532-1.003a.827.827 0 0 0-.213-.178c-.167-.086-.77.118-.942.118zM45.375 1022.12c.172 0 .511.441.625.5.04.02.108.038.19.06.324.092.735.282.873.502-.106-.168-.27-.71-.532-1.002a.827.827 0 0 0-.214-.18c-.167-.085-.77.12-.942.12z"/>
    </g>
</svg>
