<svg xmlns="http://www.w3.org/2000/svg" viewBox="0 0 64 64">
    <g transform="translate(0 -988.362)">
        <ellipse cx="31.861" cy="1021.172" fill="#ff8080" stroke="#000" stroke-linecap="round" stroke-linejoin="round" rx="23.947" ry="23.608"/>
        <g fill-rule="evenodd">
            <path fill="#ff2a2a" stroke="#000" stroke-width=".5" d="M31.488 1027.075l-12.863 7.427 9.135-11.447-12.588-.384 12.758-2.854-9.137-9.564 11.789 7.133-1.945-12.22 5.526 11.066 4.578-8.37-2.085 8.767 8.655-3.643-6.446 6.904 11.48-.365-11.709 2.739s8.438 4.354 8.028 4.343c-.41-.011-9.154-2.917-9.154-2.917l6.489 11.113-9.197-8.868s-1.8 12.61-1.876 12.362c-.075-.248-1.438-11.222-1.438-11.222z"/>
            <path fill="#faa" d="M31.96 1024.834l-7.749 4.474 5.504-6.896-7.584-.232 7.686-1.719-5.505-5.762 7.103 4.298-1.172-7.363 3.33 6.667 2.758-5.042-1.257 5.281 5.215-2.194-3.884 4.159 6.917-.22-7.055 1.65s5.084 2.623 4.837 2.617c-.247-.01-5.515-1.758-5.515-1.758l3.91 6.696-5.542-5.343s-1.085 7.598-1.13 7.448c-.046-.15-.867-6.76-.867-6.76z"/>
        </g>
        <path fill="#f9f9f9" fill-rule="evenodd" d="M33.183 1000.688c8.462 1.116 16.427 3.742 20.246 18.98-11.69-16.704-13.196-13.754-20.246-18.98z"/>
        <path fill-opacity=".449" fill-rule="evenodd" d="M42.087 1042.076c-21.988 9.273-40.585-11.535-31.666-30.378.168 16.137 12.616 31.992 31.666 30.378z"/>
    </g>
</svg>
