<svg xmlns="http://www.w3.org/2000/svg" viewBox="0 0 64 64">
    <g transform="translate(0 -988.362)">
        <ellipse cx="31.861" cy="1021.172" fill="#ff8080" stroke="#000" stroke-linecap="round" stroke-linejoin="round" rx="23.947" ry="23.608"/>
        <path fill="#4d4d4d" stroke="#000" stroke-width=".478" d="M47.185 1007.1l-5.063 13.91h-2.467l-5.063-13.91h1.98l4.363 12.238 4.363-12.238h1.887z" font-family="sans-serif" font-size="40" font-weight="400" letter-spacing="0" word-spacing="0"/>
        <path fill="#ff2a2a" fill-rule="evenodd" stroke="#000" stroke-width=".29" style="line-height:125%" d="M26.996 1031.7c.57 3.145.65 3.41.955 4.998 2.785.978 10.984.017 4.673-6.689-1.153-.684-2.33-1.354-4.338-1.545z" font-family="sans-serif" font-weight="400" letter-spacing="0" word-spacing="0"/>
        <path fill="#333" fill-rule="evenodd" stroke="#000" stroke-width=".29" style="line-height:125%" d="M27.93 1036.623l.125.996c7.78 1.814 9.612-4.409 4.548-7.627 3.303 3.979 3.617 7.25-4.673 6.63z" font-family="sans-serif" font-weight="400" letter-spacing="0" word-spacing="0"/>
        <path fill="#ff2a2a" fill-rule="evenodd" stroke="#000" stroke-width=".29" style="line-height:125%" d="M26.227 1031.052c-2.472 1.936-2.703 2.076-3.964 3.041-2.7-1.203-8.149-7.593.895-8.191 1.3.291 2.61.611 4.221 1.859z" font-family="sans-serif" font-weight="400" letter-spacing="0" word-spacing="0"/>
        <path fill="#333" fill-rule="evenodd" stroke="#000" stroke-width=".29" style="line-height:125%" d="M22.328 1034.052l-.741.652c-6.947-4.044-4.25-9.922 1.598-8.8-5.04.66-7.403 2.867-.857 8.148z" font-family="sans-serif" font-weight="400" letter-spacing="0" word-spacing="0"/>
        <path fill="#ff2a2a" fill-rule="evenodd" stroke="#000" stroke-width=".29" style="line-height:125%" d="M28.725 1028.427c2.739 1.332 5.58 1.763 8.369 2.645 3.877-4.382 4.605-6.195 4.45-7.173-2.314-1.107-10.83 1.518-12.523 3.915z" font-family="sans-serif" font-weight="400" letter-spacing="0" word-spacing="0"/>
        <path fill="#333" fill-rule="evenodd" stroke="#000" stroke-width=".29" style="line-height:125%" d="M28.601 1028.624c.06.025 8.465 3.367 8.97 2.69 3.165-4.74 6.112-6.12 5.474-6.778l-1.484-.64c-1.166 2.463-2.745 4.649-4.526 6.698-.456.676-5.623-1.313-8.434-1.97z" font-family="sans-serif" font-weight="400" letter-spacing="0" word-spacing="0"/>
        <path fill="#ff2a2a" fill-rule="evenodd" stroke="#000" stroke-width=".29" style="line-height:125%" d="M27.489 1027.762c-2.816-1.15-5.063-2.994-7.595-4.491.444-5.917 1.228-7.705 2.024-8.257 2.366.984 6.337 9.191 5.802 12.105z" font-family="sans-serif" font-weight="400" letter-spacing="0" word-spacing="0"/>
        <path fill="#333" fill-rule="evenodd" stroke="#000" stroke-width=".29" style="line-height:125%" d="M27.434 1027.99c-.058-.028-8.17-4.07-8.037-4.912 1.185-5.626.144-8.789 1.044-8.758l1.468.678c-.943 2.563-1.407 5.248-1.637 7.99-.165.806 4.775 3.335 7.162 5.002z" font-family="sans-serif" font-weight="400" letter-spacing="0" word-spacing="0"/>
        <path fill="#1a1a1a" fill-rule="evenodd" stroke="#000" stroke-width=".58" style="line-height:125%" d="M25.362 1034.024c.603-1.835.97-3.995 1.81-5.782.404-.856.91-1.358 1.366-2.037.24-.156.47-.217.638.236 0 0-.16 1.724-.488 2.505-.76 1.805-3.326 5.078-3.326 5.078z" font-family="sans-serif" font-weight="400" letter-spacing="0" word-spacing="0"/>
        <path fill-rule="evenodd" style="line-height:125%" d="M28.294 1026.541a85.86 85.86 0 0 1 .7-2.242c-.047-.3-.097-.584-.153-.83-.148.205-.302.45-.458.712-.047.791-.11 1.72-.089 2.36zM29.183 1026.93c.394-.486.982-1.209 1.487-1.795.068-.294.128-.573.168-.821-.213.133-.447.299-.69.48-.339.71-.744 1.54-.965 2.136z" font-family="sans-serif" font-weight="400" letter-spacing="0" word-spacing="0"/>
        <path fill-opacity=".449" fill-rule="evenodd" d="M42.087 1042.076c-21.988 9.273-40.585-11.535-31.666-30.378.168 16.137 12.616 31.992 31.666 30.378z"/>
        <path fill="#4d4d4d" stroke="#000" stroke-width=".478" d="M33.648 1021.02h-5.493v-1.42h1.822v-11.07h-1.822v-1.42h5.493v1.42h-1.821v11.07h1.821v1.42z" font-family="sans-serif" font-weight="400" letter-spacing="0" word-spacing="0" style="line-height:125%"/>
        <path fill="#f9f9f9" fill-rule="evenodd" d="M33.183 1000.688c8.462 1.116 16.427 3.742 20.246 18.98-11.69-16.704-13.196-13.754-20.246-18.98z"/>
    </g>
</svg>
