<svg xmlns="http://www.w3.org/2000/svg" viewBox="0 0 64 64">
    <g transform="translate(0 -988.362)">
        <ellipse cx="31.861" cy="1021.172" fill="#ff8080" stroke="#000" stroke-linecap="round" stroke-linejoin="round" rx="23.947" ry="23.608"/>
        <path fill="#ffd5d5" fill-rule="evenodd" d="M35.398 1034.565c-5.399.024-11.526-.297-15.61-4.441l-3.03-7.115c7.772-16.214 24.27-15.83 30.486-5.664.148 10.062-3.641 16.923-11.846 17.22z"/>
        <ellipse cx="33.368" cy="1023.559" stroke="#000" stroke-width=".354" rx="9.323" ry="11.028"/>
        <path fill-rule="evenodd" stroke="#000" stroke-width=".365" d="M17.232 1024.84l-2.857.706c4.45-14.42 20.963-22.869 31.63-12.28l1.509 4.56c-5.253-7.483-14.073-7.352-20.393-4.227-5.816 2.876-9.341 8.356-9.889 11.242z"/>
        <path fill-rule="evenodd" d="M15.066 1024.16c-.287.137-.89.19-1.47.175-.575-.015-1.179-.095-1.545-.218.274.306.835.6 1.42.825.558.215 1.236.405 1.718.451zM16.301 1021c-.912.19-2.282.06-3.245-.343.72.79 2.045 1.448 3.178 1.728zM18.913 1017.075c-.496.046-1.246-.069-1.972-.27-.72-.199-1.44-.487-1.92-.797.328.492.947 1.007 1.623 1.446.66.429 1.428.82 2.05 1.032zM16.916 1022.658a5.55 5.55 0 0 0-1.018.618c.227 1.079.722 2.341 1.367 3.528.786 1.445 1.834 2.85 3.036 3.815-.92-1.213-1.6-2.766-1.992-4.237-.33-1.235-.453-2.41-.352-3.25a9.294 9.294 0 0 1-1.041-.474zM35.624 1009.171c.225.201.443.405.653.61 5.02-.592 6.956-.065 9.2.848-2.033-1.3-4.002-2.336-9.298-2.165l-.555.707zM23.797 1033.196c-.59.208-1.251.791-1.579 1.279.51-.333 1.252-.62 1.695-.558zM25.585 1033.5c-.313.173-.67.412-.936.7-.273.295-.435.628-.372.959.059-.307.314-.522.598-.673.294-.155.654-.258.95-.297zM27.82 1033.684c-.488.192-.76.552-.922.914-.158.357-.23.76-.283 1.105.174-.322.352-.652.59-.907.239-.256.493-.387.8-.406zM39.439 1033.78a21.57 21.57 0 0 1-4.108.394 22.814 22.814 0 0 1-7.338-.127c1.757.58 4.308 1.084 7.416.9a25.699 25.699 0 0 0 4.03-1.166z"/>
        <path fill="none" stroke="#ffd5d5" stroke-linecap="round" stroke-width="3.649" d="M27.167 1023.238c-.995 7.002 8.489 13.577 11.687 3.14"/>
        <ellipse cx="-269.852" cy="986.045" fill="#ffd5d5" stroke="#ffd5d5" stroke-linecap="round" stroke-width="2.17" rx="1.214" ry=".479" transform="matrix(.95537 -.2954 .30253 .95314 0 0)"/>
        <path fill="#f9f9f9" fill-rule="evenodd" d="M33.183 1000.688c8.462 1.116 16.427 3.742 20.246 18.98-11.69-16.704-13.196-13.754-20.246-18.98z"/>
        <path fill-opacity=".449" fill-rule="evenodd" d="M42.087 1042.076c-21.988 9.273-40.585-11.535-31.666-30.378.168 16.137 12.616 31.992 31.666 30.378z"/>
    </g>
</svg>
