<?xml version="1.0" encoding="UTF-8"?>
<svg version="1.1" viewBox="0 0 64 64" xmlns="http://www.w3.org/2000/svg" xmlns:cc="http://creativecommons.org/ns#" xmlns:dc="http://purl.org/dc/elements/1.1/" xmlns:rdf="http://www.w3.org/1999/02/22-rdf-syntax-ns#">
 <metadata>
  <rdf:RDF>
   <cc:Work rdf:about="">
    <dc:format>image/svg+xml</dc:format>
    <dc:type rdf:resource="http://purl.org/dc/dcmitype/StillImage"/>
    <dc:title/>
   </cc:Work>
  </rdf:RDF>
 </metadata>
 <ellipse cx="31.861" cy="32.81" rx="23.947" ry="23.608" fill="#ff8080" stroke="#000" stroke-linecap="round" stroke-linejoin="round"/>
 <g>
  <path d="m45.047 19.392c3.0453 1.8935 5.4725 6.6096 5.6245 13.777 0.12121 5.7115-3.7783 9.6348-6.1779 11.423-3.0418 0.80854-4.9094 0.92628-7.7914 0.34881-3.2844-2.0923-4.9805-4.6492-6.5006-7.0629l2.4434-16.567" fill="#f55" stroke="#ff2a2a" stroke-width=".4803"/>
  <path d="m45.047 19.392c-0.51495 0.07684-1.6275 0.2717-2.9571 0.50988-1.215 0.21767-2.8475 0.51543-3.4877 0.62276-0.44271 0.07422-1.0662 0.17506-1.8103 0.2965-1.5483 0.25266-3.2793 0.53972-5.0205 0.85267-1.7187 0.30891-2.9688 0.5581-3.7163 0.7242 0.84335-0.18742 1.8944-0.42714 3.7021-0.79762 1.7098-0.35041 3.4821-0.69009 5.0021-0.96722 0.73929-0.1348 1.3674-0.2453 1.8076-0.31908 0.77072-0.12919 2.1525-0.33083 3.5063-0.51762 1.3174-0.18177 2.4544-0.32696 2.9738-0.40445z" fill="#ff2a2a" stroke-width=".9606"/>
  <path d="m35.094 19.95c0.93619 4.5227 2.7402 9.2235 2.0262 13.354-1.0566 6.1126-4.6697 9.5876-8.9335 11.697-2.189 0.0653-3.3202-0.07279-6.9074-0.23025-8.8659-3.8114-8.9046-11.79-8.381-19.663" fill="#f55" stroke="#ff2a2a" stroke-width=".48"/>
 </g>
 <g transform="matrix(.6561 0 0 .6561 -27.911 14.454)" fill="#f55" stroke="#ff2a2a" stroke-width=".73205">
  <path d="m85.503 46.559c-0.98263 0.90918-1.9653 1.3832-2.9478 1.5442-1.3235 0.71198-2.6632 0.66986-4.1411 0.14038-1.1215-0.31251-2.3928-0.72606-3.4392-2.0354 1.531-1.5538 9.1836-1.868 10.528 0.35083z"/>
  <path d="m82.546 48.104c-0.96696 6.8461-5.0845 4.3026-4.1411 0.14038 0.41583-0.51961 3.107-0.60239 4.1411-0.14038z"/>
  <path d="m110.35 45.934c-0.86965 1.25-1.566 2.5821-3.5134 3.3225-2.0603 0.38308-2.738 0.79384-4.708-0.06645-1.2999-0.64114-2.5638-1.3998-3.654-2.7244 1.4751-1.2733 9.9878-1.5716 11.875-0.53158z"/>
  <path d="m106.84 49.256c-1.762 6.9281-4.7208 3.1802-4.708-0.06646 1.2298-0.58955 3.6137-0.61814 4.708 0.06646z"/>
 </g>
 <path d="m12.896 25.108c0.16904-0.03758 0.52364-0.12676 1.2602-0.31323-3.0209 0.76475 5.201-1.316 2.1802-0.55125 1.9179-0.48346 4.1866-1.0502 6.1463-1.5282 0.71285-0.17389 1.3321-0.3231 1.8123-0.43658 1.0547-0.24919 3.0902-0.70701 5.0999-1.1435 3.178-0.69015 4.3553-0.91329 5.6972-1.1849-0.96808 0.19595-2.8784 0.6388-5.6679 1.3125-1.9908 0.48084-4.0168 0.97962-5.0785 1.2304-0.47479 0.11217-1.1059 0.259-1.8152 0.42323-1.7119 0.39635-4.4969 1.0372-6.1722 1.4187-0.91926 0.20938-1.6278 0.36915-2.1937 0.49501-0.45262 0.10066-0.81606 0.17707-1.2686 0.27773z" fill="#ff2a2a" stroke-width=".9606"/>
 <g fill-rule="evenodd">
  <path d="m33.183 12.326c8.462 1.116 16.427 3.742 20.246 18.98-11.69-16.704-13.196-13.754-20.246-18.98z" fill="#f9f9f9"/>
  <path d="m42.087 53.714c-21.988 9.273-40.585-11.535-31.666-30.378 0.168 16.137 12.616 31.992 31.666 30.378z" fill-opacity=".449"/>
  <path d="m31.726 47.135c-5.194 0.096-8.889-3.627-8.74-8.072 0.174-5.238 6.605-10.096 9.117-18.634 2.436 8.7 7.846 13.18 8.213 18.408 0.325 4.63-3.954 8.213-8.59 8.298z" fill="#ff2a2a" stroke="#000" stroke-width=".5"/>
 </g>
 <path d="m37.687 42.792c1.878-1.776 1.562-5.737-0.294-8.299" fill="none" stroke="#fff" stroke-linecap="round"/>
</svg>
