<svg xmlns="http://www.w3.org/2000/svg" viewBox="0 0 64 64">
    <g transform="translate(0 -988.362)">
        <ellipse cx="31.861" cy="1021.172" fill="#ff8080" stroke="#000" stroke-linecap="round" stroke-linejoin="round" rx="23.947" ry="23.608"/>
        <path fill="#f9f9f9" fill-rule="evenodd" d="M33.183 1000.688c8.462 1.116 16.427 3.742 20.246 18.98-11.69-16.704-13.196-13.754-20.246-18.98z"/>
        <path fill-opacity=".449" fill-rule="evenodd" d="M42.087 1042.076c-21.988 9.273-40.585-11.535-31.666-30.378.168 16.137 12.616 31.992 31.666 30.378z"/>
        <g fill-rule="evenodd">
            <path fill="#ff2a2a" stroke="#000" stroke-width=".3135" d="M13.838 1011.23c-1.843-7.366 8.794-7.345 10.361-1.544 1.243-5.857 11.17-5.868 9.906 1.794-.97 5.877-8.234 5.709-10.384 14.442-1.844-8.709-8.448-8.953-9.883-14.691z"/>
            <path fill="#fff" fill-opacity=".785" d="M32.593 1012.992c.646-4.32-1.505-6.026-5.558-5.788 3.96-1.917 8.257.548 5.558 5.788z"/>
        </g>
        <path fill="#ff2a2a" fill-rule="evenodd" stroke="#000" stroke-width=".346" d="M38.219 1014.657l-2.686 8.439-9.353.087 7.562 5.373-3.014 9.251 7.666-5.804 8.074 6.254-3.527-9.766 7.604-5.569-9.505.155zm.021 5.093l1.11 2.99-2.093.024zm3.651 4.796h3.759l-2.96 2.268zm-7.215.022l-.756 2.182-2.916-2.14zm5.25 0l1.166 3.478-2.787 1.987-2.657-2.074.972-3.348zm1.814 5.292l1.231 3.651-3.046-2.268zm-6.848.022l1.858 1.426-3.068 2.29z"/>
    </g>
</svg>
