<svg xmlns="http://www.w3.org/2000/svg" viewBox="0 0 64 64">
    <g transform="translate(0 -988.362)">
        <ellipse cx="31.861" cy="1021.172" fill="#ff8080" stroke="#000" stroke-linecap="round" stroke-linejoin="round" rx="23.947" ry="23.608"/>
        <path fill="#f55" fill-rule="evenodd" stroke="#000" d="M42.904 1006.826l-14.97.099s9.7 6.58 9.907 15.357c.112 4.706-2.011 7.914-7.585 8.208-4.737.25-6.415-3.337-6.469-5.352-.09-3.368 1.608-5.758 4.849-5.868 3.4-.115 4.323 1.557 4.312 3.659-.017 3.367 3.318 2.118 3.384-.127.177-6.044-4.605-8.301-7.981-8.537-6.72-.47-11.443 5.58-11.083 11.232.46 7.22 5.31 12.623 13.864 12.629 9.812.01 15.776-7.604 15.885-16.234.068-5.825-1.186-9.803-4.113-15.066z"/>
        <path fill="#f9f9f9" fill-rule="evenodd" d="M33.183 1000.688c8.462 1.116 16.427 3.742 20.246 18.98-11.69-16.704-13.196-13.754-20.246-18.98z"/>
        <path fill-opacity=".449" fill-rule="evenodd" d="M42.087 1042.076c-21.988 9.273-40.585-11.535-31.666-30.378.168 16.137 12.616 31.992 31.666 30.378z"/>
    </g>
</svg>
