<svg xmlns="http://www.w3.org/2000/svg" viewBox="0 0 64 64">
    <g transform="translate(0 -988.362)">
        <ellipse cx="31.861" cy="1021.172" fill="#ff8080" stroke="#000" stroke-linecap="round" stroke-linejoin="round" rx="23.947" ry="23.608"/>
        <g fill="#f55" fill-rule="evenodd" stroke="#000" stroke-width=".65">
            <path stroke-width=".36305750000000003" d="M31.794 1013.263c-1.416-1.792-9.763-1.797-9.714 5.481.033 4.824 6.155 10.178 9.686 12.59 4.987-3.277 9.74-8.374 9.717-12.6-.036-6.828-7.933-7.437-9.689-5.471zm7.16 5.365c-.015 3.18-2.538 5.527-7.149 9.653-4.174-3.68-6.79-6.438-7.024-9.583-.375-5.026 6.812-4.76 7.105-1.711.515-3.105 7.092-3.66 7.067 1.641z"/>
            <path stroke-width=".36305750000000003" d="M30.326 1030.191l.008 2.681-3.707.015v2.546h3.64l.016 3.963h3.01l-.031-3.933 3.699-.03-.008-2.576h-3.691l.009-2.662M40.407 1015.244l4.54-5.193.01 5.684 1.712-1.885c-.026-2.456-.006-7.02-.006-7.02l-7.643.073-1.727 1.912 5.093-.092-4.166 4.535"/>
        </g>
        <path fill="#f9f9f9" fill-rule="evenodd" d="M33.183 1000.688c8.462 1.116 16.427 3.742 20.246 18.98-11.69-16.704-13.196-13.754-20.246-18.98z"/>
        <path fill-opacity=".449" fill-rule="evenodd" d="M42.087 1042.076c-21.988 9.273-40.585-11.535-31.666-30.378.168 16.137 12.616 31.992 31.666 30.378z"/>
    </g>
</svg>
