<svg xmlns="http://www.w3.org/2000/svg" viewBox="0 0 64 64">
    <g transform="translate(0 -988.362)">
        <ellipse cx="31.861" cy="1021.172" fill="#ff8080" stroke="#000" stroke-linecap="round" stroke-linejoin="round" rx="23.947" ry="23.608"/>
        <g fill="#ff2a2a" stroke="#000" transform="translate(10.836 347.75) scale(.6561)">
            <path stroke-linecap="round" stroke-linejoin="round" stroke-width=".855" d="M32.352 1002.586a24.602 24.709 0 0 0-24.602 24.708 24.602 24.709 0 0 0 24.602 24.708 24.602 24.709 0 0 0 24.6-24.708 24.602 24.709 0 0 0-24.6-24.708zm0 3.523a21.093 21.185 0 0 1 21.092 21.185 21.093 21.185 0 0 1-21.092 21.184 21.093 21.185 0 0 1-21.093-21.184 21.093 21.185 0 0 1 21.093-21.185z"/>
            <path fill-rule="evenodd" stroke-width=".9" d="M29.99 1055.11v-10.604l5.062-.112.028 10.687zM30.03 1010.268v-10.603l5.063-.113.028 10.688zM4.357 1024.706l10.603.051.088 5.063-10.687-.023zM49.198 1024.963l10.603.051.088 5.063-10.688-.023z"/>
            <ellipse cx="32.429" cy="1027.423" stroke-linecap="round" stroke-linejoin="round" stroke-width=".878" rx="5.062" ry="5.023"/>
        </g>
        <path fill="#f9f9f9" fill-rule="evenodd" d="M33.183 1000.688c8.462 1.116 16.427 3.742 20.246 18.98-11.69-16.704-13.196-13.754-20.246-18.98z"/>
        <path fill-opacity=".449" fill-rule="evenodd" d="M42.087 1042.076c-21.988 9.273-40.585-11.535-31.666-30.378.168 16.137 12.616 31.992 31.666 30.378z"/>
        <path fill="#ffd5d5" d="M34.938 1006.55c.843.165 2.183.51 4.068 1.549a19.53 19.53 0 0 1 3.084 2.103c.294.25.673.593 1.091 1.013 1.076 1.08 2.234 2.495 3.016 4.054.926 1.848.977 3.196.866 4.093.11-.896-.04-2.247-1.043-3.999-.852-1.488-2.053-2.809-3.146-3.833a29.601 29.601 0 0 0-1.09-.968c-.654-.557-1.634-1.387-2.924-2.22-1.749-1.128-3.11-1.633-3.922-1.792z"/>
    </g>
</svg>
