<svg version="1.1" viewBox="0 0 64 64" xmlns="http://www.w3.org/2000/svg">
 <ellipse cx="31.861" cy="32.81" rx="23.947" ry="23.608" fill="#ff8080" stroke="#000" stroke-linecap="round" stroke-linejoin="round"/>
 <g transform="matrix(.72171 0 0 .72171 -45.987 7.4486)" stroke="#000">
  <ellipse cx="107.58" cy="35.694" rx="8.0041" ry="8.0041" fill="#ff2a2a" stroke-width=".31381"/>
  <g fill-rule="evenodd" stroke-width=".28243">
   <path d="m101.72 48.612c-10.248-7.2691-9.0968-17.299-0.19267-25.201-4.8428 6.8508-8.2715 16.27 0.19267 25.201z" fill="#ff2a2a"/>
   <path d="m97.847 53.287c-12.326-9.9892-10.941-23.772-0.23156-34.632-5.8247 9.4149-9.9489 22.359 0.23156 34.632z" fill="#f55"/>
   <path d="m94.253 56.775c-15.397-12.344-13.667-29.375-0.28927-42.794-7.2761 11.634-12.427 27.629 0.28927 42.794z" fill="#f55"/>
   <path d="m113.89 48.612c10.248-7.2691 9.0971-17.299 0.19267-25.201 4.843 6.8508 8.2718 16.27-0.19267 25.201z" fill="#ff2a2a"/>
   <path d="m117.76 53.287c12.326-9.9892 10.941-23.772 0.23131-34.632 5.8249 9.4149 9.9488 22.359-0.23131 34.632z" fill="#f55"/>
   <path d="m121.35 56.775c15.396-12.344 13.667-29.375 0.28927-42.794 7.2761 11.634 12.427 27.629-0.28927 42.794z" fill="#f55"/>
  </g>
 </g>
 <path d="m33.183 12.326c8.462 1.116 16.427 3.742 20.246 18.98-11.69-16.704-13.196-13.754-20.246-18.98z" fill="#f9f9f9" fill-rule="evenodd"/>
 <path d="m42.087 53.714c-21.988 9.273-40.585-11.535-31.666-30.378 0.168 16.137 12.616 31.992 31.666 30.378z" fill-opacity=".449" fill-rule="evenodd"/>
</svg>
