<svg xmlns="http://www.w3.org/2000/svg" viewBox="0 0 64 64">
    <g transform="translate(0 -988.362)">
        <ellipse cx="31.861" cy="1021.172" fill="#ff8080" stroke="#000" stroke-linecap="round" stroke-linejoin="round" rx="23.947" ry="23.608"/>
        <path fill="#f9f9f9" fill-rule="evenodd" d="M33.183 1000.688c8.462 1.116 16.427 3.742 20.246 18.98-11.69-16.704-13.196-13.754-20.246-18.98z"/>
        <path fill-opacity=".449" fill-rule="evenodd" d="M42.087 1042.076c-21.988 9.273-40.585-11.535-31.666-30.378.168 16.137 12.616 31.992 31.666 30.378z"/>
        <path fill="none" stroke="#000" stroke-linecap="round" d="M19.927 1023.763c-.436 13.228 24.453 15.855 24.375.125-.028-5.584-3.683-9.47-5.438-14.75"/>
        <g stroke="#000" transform="translate(-35.875 -.875)">
            <path fill="#faa" fill-rule="evenodd" stroke-width=".5" d="M67.906 1030.05c-7.36-2.104-2.016-12.084 0-12.094 2.11-.01 7.137 10.114 0 12.094z"/>
            <path fill="#ff8080" fill-rule="evenodd" stroke-width=".5" d="M67.875 1029.112c-1.628-2.68-2.107-5.55 0-8.312 2.046 2.674 2.034 5.552 0 8.312z"/>
            <path fill="#f55" fill-rule="evenodd" stroke-width=".266" d="M67.875 1028.818c-.865-1.424-1.12-2.95 0-4.418 1.087 1.422 1.08 2.951 0 4.418z"/>
            <ellipse cx="67.86" cy="1022.234" fill="#faa" stroke-linecap="round" stroke-linejoin="bevel" stroke-width=".103" rx=".476" ry=".457"/>
        </g>
    </g>
</svg>
