<svg version="1.1" viewBox="0 0 64 64" xmlns="http://www.w3.org/2000/svg">
 <ellipse cx="32" cy="32" rx="23.947" ry="23.608" fill="#ff8080" stroke="#000" stroke-linecap="round" stroke-linejoin="round"/>
 <g fill-rule="evenodd">
  <path d="m33.59 10.834c8.462 1.116 16.427 3.742 20.246 18.98-11.69-16.704-13.196-13.754-20.246-18.98z" fill="#f9f9f9"/>
  <path d="m42.087 53.307c-21.988 9.273-40.585-11.535-31.666-30.378 0.168 16.137 12.616 31.992 31.666 30.378z" fill-opacity=".449"/>
  <path d="m20.247 22.524 20.58 22.448 3.3607-3.3118-20.733-22.425z" fill="#ff8080" stroke="#000" stroke-width=".57955"/>
 </g>
 <path d="m20.367 20.728a16.184 16.217 84.26 0 0-4.5038 12.893 16.184 16.217 84.26 0 0 17.755 14.482 16.184 16.217 84.26 0 0 14.517-17.726 16.184 16.217 84.26 0 0-17.754-14.481 16.184 16.217 84.26 0 0-10.014 4.8318zm2.4757 1.8648a13.116 13.142 84.26 0 1 7.844-3.6435 13.116 13.142 84.26 0 1 14.388 11.735 13.116 13.142 84.26 0 1-11.762 14.366 13.116 13.142 84.26 0 1-14.39-11.737 13.116 13.142 84.26 0 1 3.922-10.721z" fill="#ff2a2a" stroke="#000" stroke-linejoin="round" stroke-width=".56425"/>
 <path d="m20.953 22.885 19.557 21.325 2.9656-2.9073-19.7-21.306z" fill="#ff2a2a" fill-rule="evenodd" stroke-width=".729"/>
</svg>
