<svg xmlns="http://www.w3.org/2000/svg" viewBox="0 0 64 64">
    <g transform="translate(0 -988.362)">
        <ellipse cx="31.861" cy="1021.172" fill="#ff8080" stroke="#000" stroke-linecap="round" stroke-linejoin="round" rx="23.947" ry="23.608"/>
        <path fill="#f9f9f9" fill-rule="evenodd" d="M33.183 1000.688c8.462 1.116 16.427 3.742 20.246 18.98-11.69-16.704-13.196-13.754-20.246-18.98z"/>
        <path fill-opacity=".449" fill-rule="evenodd" d="M42.087 1042.076c-21.988 9.273-40.585-11.535-31.666-30.378.168 16.137 12.616 31.992 31.666 30.378z"/>
        <path fill="#ff2a2a" fill-rule="evenodd" stroke="#000" stroke-width=".5" d="M39.372 1037.92c-.668-3.33-1.913-6.64-3.502-9.83-3.22-3.938-6.996-7.32-10.6-9.992-3.604-2.673-7.077-4.657-9.689-5.76 2.329 1.609 5.406 4.049 8.555 7.096 3.149 3.047 6.338 6.702 8.899 10.711 2.39 2.288 4.586 4.89 6.337 7.775zM47.735 1030.57c-.365-3.745-1.438-7.279-3.007-10.59-3.2-4.13-7.137-7.329-10.853-9.759-3.725-2.43-7.33-4.14-9.931-5.234 2.348 1.62 5.588 3.797 8.888 6.642 3.3 2.844 6.57 6.266 9.01 10.336 2.319 2.339 4.405 5.173 5.893 8.605zM46.864 1038.092c-.162-3.452-1.549-7.33-3.645-11.247-2.895-3.361-6.378-6.58-9.9-9.446a107.838 107.838 0 0 0-10.206-7.38c-3.138-1.994-5.871-3.462-7.653-4.161a128.826 128.826 0 0 1 6.783 5.345c2.824 2.37 6.013 5.224 9.101 8.363 3.118 3.169 6.075 6.58 8.383 9.972 2.986 2.683 5.588 5.598 7.137 8.554z"/>
    </g>
</svg>
