<svg version="1.1" viewBox="0 0 64 64" xmlns="http://www.w3.org/2000/svg">
 <g transform="matrix(.68802 -.24097 .24097 .68802 -43.577 31.088)" stroke="#000" stroke-width=".6">
  <path d="m73.156 30.442c-1.0564-0.52671-3.4184 6.9502 2.4929 6.9992l46.262 0.38352-2.3011-2.7805-43.913-0.2397c-2.8789-0.015715-1.643-3.9149-2.5408-4.3625z" fill="#ff2a2a"/>
  <path d="m74.4 40.766c-1.1778-0.07771-0.468 7.7312 5.0033 5.4927l40.314-17.262-2.4791-1.4736-38.81 16.285c-2.6547 1.114-3.0279-2.9762-4.0289-3.0422z" fill="#ff2a2a"/>
  <g fill="#ff8080">
   <g>
    <path d="m97.184 18.389c3.0368 2.7724 5.2095 9.6856 2.2745 14.633l-4.499-0.02104c-3.5022-1.9952-1.0278-11.626 2.2245-14.612z"/>
    <path d="m80.475 30.579c3.6618-1.8707 11.234-2.377 14.837 2.1076l-1.8735 4.256c-3.0973 2.5793-11.309-2.2701-12.964-6.3636z"/>
    <path d="m107.02 49.793c-4.0427-0.7516-10.352-4.9701-10.471-10.721l4.0809-2.2294c4.0277-0.15422 7.5756 8.6977 6.3896 12.951z"/>
    <path d="m86.77 49.954c-0.6252-4.0642 1.274-11.412 6.6636-13.423l3.4516 3.1161c1.4753 3.751-5.709 10.022-10.115 10.307z"/>
    <path d="m113.3 30.4c-1.8303 3.6821-7.6158 8.5941-13.18 7.1329l-1.0262-4.5355c0.95504-3.9159 10.44-4.9031 14.206-2.5974z"/>
   </g>
   <g stroke-linecap="round">
    <path d="m97.173 28.333-0.09588 7.6703 4.2666 5.6569"/>
    <path d="m104.08 33.463-6.9992 2.5408-4.0749 5.513"/>
    <path d="m90.126 33.463 6.9512 2.5408"/>
   </g>
  </g>
  <path d="m96.934 32.12c-0.69489 0.41753-0.76687 0.99079-2.8764 1.0547 0.14041 1.5923-0.4855 2.1105-1.1985 2.7325 0.78233 0.7268 1.6285 1.3969 1.2944 3.1161 0.81071 0.08424 1.471-0.08545 2.6367 1.3423 1.3953-1.1183 2.3238-1.1536 3.3558-1.0067-0.1924-1.1903 0.0666-2.2601 1.1505-3.0681-0.7517-0.80528-1.5641-1.6367-1.1985-3.0681-1.5702 6.66e-4 -2.484-0.46748-3.164-1.1026z" fill="#faa"/>
  <ellipse cx="97.125" cy="36.219" rx="1.8191" ry="1.843" fill="none" stroke-linecap="round" stroke-linejoin="round"/>
 </g>
</svg>
