<svg xmlns="http://www.w3.org/2000/svg" viewBox="0 0 64 64">
    <g transform="translate(0 -988.362)">
        <ellipse cx="31.861" cy="1021.172" fill="#ff8080" stroke="#000" stroke-linecap="round" stroke-linejoin="round" rx="23.947" ry="23.608"/>
        <path fill="#f9f9f9" fill-rule="evenodd" d="M33.183 1000.688c8.462 1.116 16.427 3.742 20.246 18.98-11.69-16.704-13.196-13.754-20.246-18.98z"/>
        <path fill-opacity=".449" fill-rule="evenodd" d="M42.087 1042.076c-21.988 9.273-40.585-11.535-31.666-30.378.168 16.137 12.616 31.992 31.666 30.378z"/>
        <path fill="#ff2a2a" fill-rule="evenodd" stroke="#000" stroke-width=".203" d="M16.511 1005.293c1.555-1.234 9.201 3.116 10.281 8.229 1.205 5.7-1.493 6.216-1.03 9.298.489 3.26 4.748 5.32 6.48 5.772 2.501.655 4.023-.13 8.113 2.257-.78-.507-.631-1.093-2.45-1.514 4.835-.905 8.396 4.224 9.98 6.814-4.93-1.584-9.467-1.486-11.724-3.926 1.496-.031 1.872.036 2.849-.222-2.124-1.839-4.933-1.146-7.352-1.858-2.597-.765-7.245-2.935-8.26-7.09-.85-3.477 1.951-5.711 1.033-9.222-1.086-4.152-9.521-7.266-7.92-8.538z"/>
        <path fill-rule="evenodd" d="M40.2 1030.75a2.03 2.03 0 0 0-.031.112c.262.153.475.221.825.433.318.193.641.456.84.853-.166-.416-.466-.713-.777-.946-.303-.227-.58-.372-.765-.521a3.35 3.35 0 0 1-.091.07zM38.79 1031.856c.042.072.09.14.142.203.425.247.903.227 1.363.17.536-.067 1.077-.193 1.55-.062-.47-.16-1.021-.062-1.559-.024-.467.034-.903.02-1.27-.22a1.146 1.146 0 0 1-.226-.068z"/>
    </g>
</svg>
