<svg xmlns="http://www.w3.org/2000/svg" viewBox="0 0 64 64">
    <g transform="translate(0 -988.362)">
        <ellipse cx="31.861" cy="1021.172" fill="#ff8080" stroke="#000" stroke-linecap="round" stroke-linejoin="round" rx="23.947" ry="23.608"/>
        <path fill="#ff2a2a" fill-rule="evenodd" stroke="#000" stroke-width=".379" d="M31.36 1005.535l10.633-.01-6.067 9.984 6.067.153-21.426 23.268 7.603-16.126-4.915-.077z"/>
        <path fill="#f9f9f9" fill-rule="evenodd" d="M33.183 1000.688c8.462 1.116 16.427 3.742 20.246 18.98-11.69-16.704-13.196-13.754-20.246-18.98z"/>
        <path fill-opacity=".449" fill-rule="evenodd" d="M42.087 1042.076c-21.988 9.273-40.585-11.535-31.666-30.378.168 16.137 12.616 31.992 31.666 30.378z"/>
        <path fill="#fff" fill-opacity=".785" fill-rule="evenodd" d="M32.069 1005.983c-21.38 30.92-10.69 15.46 0 0z"/>
        <path fill="#ffd5d5" d="M34.713 1015.358c.101-.158.67-.463.772-.621 1.026-1.604 3.836-6.587 4.862-8.191-1.026 1.604-4.369 6.246-5.395 7.85-.1.159-.138.804-.24.962zM34.676 1016.263c.273 0 1.095.195 1.368.192.929-.01 3.713-.245 4.641-.255-.928.01-3.716-.168-4.645-.158-.273 0-1.09.218-1.364.22z"/>
    </g>
</svg>
