<svg version="1.1" viewBox="0 0 64 64" xmlns="http://www.w3.org/2000/svg">
 <ellipse cx="31.861" cy="32.81" rx="23.947" ry="23.608" fill="#ff8080" stroke="#000" stroke-linecap="round" stroke-linejoin="round"/>
 <path d="m33.183 12.326c8.462 1.116 16.427 3.742 20.246 18.98-11.69-16.704-13.196-13.754-20.246-18.98z" fill="#f9f9f9" fill-rule="evenodd"/>
 <path d="m42.087 53.714c-21.988 9.273-40.585-11.535-31.666-30.378 0.168 16.137 12.616 31.992 31.666 30.378z" fill-opacity=".449" fill-rule="evenodd"/>
 <g transform="translate(.58143 -1.1056)">
  <ellipse transform="matrix(.99993 .011458 -.011039 .99994 0 0)" cx="31.782" cy="32.743" rx="11.556" ry="14.606" fill="#f55" stroke="#000" stroke-linecap="round" stroke-linejoin="round" stroke-width=".5"/>
  <path d="m31.592 19.32c0.80808 0.0597 2.0175 0.40962 3.3818 1.3367 1.2568 0.85399 2.1937 1.8782 2.8614 2.6736 0.10812 0.1288 0.20418 0.24528 0.28783 0.34566 0.51856 0.62225 1.3188 1.5327 2.0466 2.8342 0.80427 1.4381 1.118 2.6741 1.154 3.4524-0.03756-0.81198-0.10919-2.0062-0.73824-3.6465-0.53894-1.4053-1.282-2.5574-1.8065-3.1867-0.088654-0.10638-0.19465-0.22657-0.3165-0.35652-0.74524-0.7948-1.8903-1.7553-3.287-2.4597-1.5541-0.78376-2.7599-0.9322-3.5835-0.99304z" fill="#ff8080"/>
 </g>
</svg>
