<svg xmlns="http://www.w3.org/2000/svg" viewBox="0 0 64 64">
    <g transform="translate(0 -988.362)">
        <ellipse cx="31.861" cy="1021.172" fill="#ff8080" stroke="#000" stroke-linecap="round" stroke-linejoin="round" rx="23.947" ry="23.608"/>
        <path fill-opacity=".449" fill-rule="evenodd" d="M42.087 1042.076c-21.988 9.273-40.585-11.535-31.666-30.378.168 16.137 12.616 31.992 31.666 30.378z"/>
        <path fill="#f9f9f9" fill-rule="evenodd" d="M33.183 1000.688c8.462 1.116 16.427 3.742 20.246 18.98-11.69-16.704-13.196-13.754-20.246-18.98z"/>
        <g fill-rule="evenodd">
            <path fill="#ff2a2a" stroke="#000" stroke-width=".234" d="M34.532 1015.687c-1.966-.363-5.923-4.446-10.412.038-.783.781-1.542 1.53-2.02 2.424-1.655 3.088-3.885 11.731-.05 14.166 3.183 2.02 9.08-1.444 13.897-4.55 4.684-3.021 8.755-5.939 8.246-8.312-1.666-7.773-7.016-3.28-9.66-3.766z"/>
            <path d="M34.674 1015.712l-.24-.02c.004-.023.025-.023-.028.053-.041.059-.11.135-.205.228-.19.185-.469.416-.811.69-.682.545-1.604 1.248-2.545 2.066-1.887 1.637-3.85 3.731-4.179 5.955.406-2.192 2.416-4.212 4.334-5.77.96-.782 1.899-1.447 2.61-1.963.352-.257.656-.482.873-.664a2.66 2.66 0 0 0 .275-.258.575.575 0 0 0 .156-.297l-.24-.02z"/>
        </g>
    </g>
</svg>
