<svg xmlns="http://www.w3.org/2000/svg" viewBox="0 0 64 64">
    <g transform="translate(0 -988.362)">
        <ellipse cx="31.861" cy="1021.172" fill="#ff8080" stroke="#000" stroke-linecap="round" stroke-linejoin="round" rx="23.947" ry="23.608"/>
        <path fill="#f9f9f9" fill-rule="evenodd" d="M33.183 1000.688c8.462 1.116 16.427 3.742 20.246 18.98-11.69-16.704-13.196-13.754-20.246-18.98z"/>
        <path fill-opacity=".449" fill-rule="evenodd" d="M42.087 1042.076c-21.988 9.273-40.585-11.535-31.666-30.378.168 16.137 12.616 31.992 31.666 30.378z"/>
        <path fill="#ff2a2a" fill-rule="evenodd" stroke="#000" stroke-width=".5" d="M31.63 1032.909c-3.075-3.517-8.22-8.184-9.899-12.158-2.42-5.73 4.76-11.957 9.962-6.033 5.123-5.81 12.42.13 10.333 5.755-1.62 4.363-6.995 8.633-10.395 12.436z"/>
    </g>
</svg>
