<svg xmlns="http://www.w3.org/2000/svg" viewBox="0 0 64 64">
    <g transform="translate(0 -988.362)">
        <ellipse cx="31.861" cy="1021.172" fill="#ff8080" stroke="#000" stroke-linecap="round" stroke-linejoin="round" rx="23.947" ry="23.608"/>
        <g transform="translate(.906 -.094)">
            <ellipse cx="-400.457" cy="994.449" fill="#f55" fill-opacity=".502" rx="1.226" ry="1.324" transform="matrix(.95686 -.29054 .40976 .9122 0 0)"/>
            <path fill="none" stroke="#1a1a1a" stroke-linecap="round" stroke-width=".279" d="M24.78 1022.412c-1.37-.766-2.192.767-1.444 1.658.672.8 2.394 1.024 2.2-.681"/>
            <path fill="none" stroke="#1a1a1a" stroke-linecap="round" stroke-width=".17" d="M24.418 1023.215c-.46-.216-.737.216-.485.467.225.225.804.288.739-.192"/>
        </g>
        <path fill="none" stroke="#1a1a1a" stroke-linecap="round" stroke-width=".5" d="M28.652 1007.19s.01 2.343-1.912 3.939c-1.385 1.15-4.778.57-6.396 2.077-1.717 1.599-.712 7.113-.754 11.033-.049 4.495-.934 8.373-.934 8.373M33.875 1007.3c.052 1.263-.229 2.535 1.725 3.867 1.668 1.137 5.095.714 6.681 2.476 1.731 1.924.658 7.174.609 11.154a55.581 55.581 0 0 0 .548 8.253M30.45 1012.853c.542.612 1.134.828 1.823.265M22.738 1033.955c.52-2.266.877-5.594.69-8.027M23.53 1026.117c1.016 3.608.108 6.182-.637 8.081"/>
        <path fill="none" stroke="#1a1a1a" stroke-linecap="round" stroke-width=".5" d="M22.631 1018.75c-2.103 3.14-.522 7.154 1.942 7.576 4.241.727 6.547-3.013 5.885-6.292M39.525 1018.67c2.155 3.103.641 7.143-1.815 7.606-4.228.798-6.596-2.903-5.989-6.193M39.786 1034.287c-.67-1.182-.925-3.923-.63-8.63"/>
        <path fill="#f9f9f9" fill-rule="evenodd" d="M33.183 1000.688c8.462 1.116 16.427 3.742 20.246 18.98-11.69-16.704-13.196-13.754-20.246-18.98z"/>
        <path fill-opacity=".449" fill-rule="evenodd" d="M42.087 1042.076c-21.988 9.273-40.585-11.535-31.666-30.378.168 16.137 12.616 31.992 31.666 30.378z"/>
        <g transform="translate(-.625 .063)">
            <ellipse cx="-457.39" cy="976.09" fill="#f55" fill-opacity=".502" rx="1.226" ry="1.324" transform="matrix(-.95686 -.29054 -.40976 .9122 0 0)"/>
            <path fill="none" stroke="#1a1a1a" stroke-linecap="round" stroke-width=".279" d="M37.219 1022.207c1.37-.767 2.193.767 1.444 1.658-.671.799-2.393 1.024-2.2-.682"/>
            <path fill="none" stroke="#1a1a1a" stroke-linecap="round" stroke-width=".17" d="M37.582 1023.01c.46-.217.736.215.485.466-.226.226-.804.289-.74-.192"/>
        </g>
    </g>
</svg>
