<svg xmlns="http://www.w3.org/2000/svg" viewBox="0 0 64 64">
    <g transform="translate(0 -988.362)">
        <ellipse cx="31.861" cy="1021.172" fill="#ff8080" stroke="#000" stroke-linecap="round" stroke-linejoin="round" rx="23.947" ry="23.608"/>
        <path fill="#ff2a2a" fill-rule="evenodd" stroke="#000" stroke-width=".331" d="M21.683 1036.867c1.85-1.85-1.443-4.023.77-7.402-1.758 2.238-2.718 3.215-1.74 4.454-2.283-2.184.764-3.844 1.886-7.01 1.088-3.329-1.257-7.744-.573-13.055.393-3.05 3.398-8.496 6.727-7.08-1.4-2.17 1.267-3.633 4.16-3.795 1.996-.05 3.028 1.724 4.332 1.54 2.958-.6.845-1.987.39-2.18 3.346.203 1.544 2.534.962 2.91 3.97.048 5.56 3.893 5.898 5.298.43 2.13-.584 3.06-.241 3.688 2.175 3.207-1.829 5.273.36 7.56.441.35 1.755-.635.935-1.842 1.318.19.834 4.644-1.709 2.922 2.178 1.508-1.642 6.99-1.266 8.8.391 1.806 2.488 3.144 1.69 6.401"/>
        <path fill="#f4eed7" fill-rule="evenodd" stroke="#000" stroke-width=".395" d="M31.583 1035.09c-1.547-.407-3.244-2.264-4.507-3.592"/>
        <path fill="none" stroke="#000" stroke-width=".395" d="M23.476 1037.76c.368-.79.488-1.173.69-2.032"/>
        <path fill="#ffd5d5" fill-rule="evenodd" stroke="#000" stroke-width=".395" d="M29.006 1026.253c.364 1.35.58 3.108.16 4.62-1.096.407-1.798.142-2.723.186-1.02-1.14-1.752-1.984-3.514-1.658-2.073.484-4.734 4.982-7.283 8.359 3.171.26 26.925.494 29.316.605-2.924-1.694-5.624-3.397-7.597-5.635-.334-1.055-.056-5.114.485-6.62"/>
        <path fill="none" stroke="#000" stroke-width=".395" d="M29.89 1032.629c.18 1.36 1.08 1.781 1.856 2.544.041.47.186.665.028 1.668M36.032 1029.237c-.58 3.066-.702 5.496-2.43 8.124"/>
        <path fill="#ffd5d5" fill-rule="evenodd" stroke="#000" stroke-width=".331" d="M25.614 1021.603a7.789 7.789 0 0 0 1.802 3.447c.92.798 4.968 3.77 6.353 3.69 1.988-.197 6.03-4.172 7.245-6.89.027-3.562.657-6.085.216-9.299-.416-6.317-16.123-5.964-16.44 1.893.181 3.149.207 3.385.824 7.16z"/>
        <path fill="#ffd5d5" fill-rule="evenodd" stroke="#000" stroke-width=".331" d="M26.225 1022.87c-.443.434-.815.012-1.004-.255-.623-1.218-2.365-2.105-2.68-3.57-.116-.606.891-2.394 2.225-1.111M40.654 1021.668c.86.585 1.062-.736 1.225-1.02.573-1.094 1.233-1.503 1.355-3.131.133-.846-.72-2.464-1.927-1.061"/>
        <path fill="#f4eed7" stroke="#fff" stroke-linecap="round" stroke-linejoin="round" stroke-width=".026" d="M39.87 1015.2c-.021.426-.004.86-.026 1.284.066.018.2.076.246.01-.067-.43-.133-.866-.22-1.291z"/>
        <path fill="#ff2a2a" fill-rule="evenodd" d="M23.015 1016.255c.186-.088 1.026 1.181 1.162 1.221 1.147.342.642 4.853.997 6.986.48 2.87 2.363 4.771 1.037 7.87 2.259-2.6-.075-6.398-.134-8.172-.068-2.055 2.169-7.116-1.688-7.887 3.032-1.98 1.533-1.701.568-1.809 4.016-1.497 2.683-2.118 1.605-2.06 3.224-.77 2.626-1.3 1.688-1.808 2.883.18 3.372-.141 1.353-.988 3.821 1.325 3.627.962 2.374-.905 2.015 2.038 3.533 1.277 4.465.615.118-.084-1.265-2.289-1.76-3.43-.147-.34-9.41 3.786-9.379 3.763"/>
        <path fill="none" stroke="#000" stroke-width=".331" d="M23.696 1017.516c1.76-.83 1.08 4.561 1.478 6.946.48 2.87 2.363 4.771 1.037 7.87 2.259-2.6-.075-6.398-.134-8.172-.068-2.055 2.169-7.116-1.688-7.887 3.032-1.98 1.533-1.701.568-1.809 4.016-1.497 2.683-2.118 1.605-2.06 3.224-.77 2.626-1.3 1.688-1.808 2.883.18 3.372-.141 1.353-.988 3.821 1.325 3.627.962 2.374-.905 2.345 2.373 3.502 1.337 4.444.61"/>
        <path fill="#f9f9f9" fill-rule="evenodd" d="M33.183 1000.688c8.462 1.116 16.427 3.742 20.246 18.98-11.69-16.704-13.196-13.754-20.246-18.98z"/>
        <path fill-opacity=".449" fill-rule="evenodd" d="M42.087 1042.076c-21.988 9.273-40.585-11.535-31.666-30.378.168 16.137 12.616 31.992 31.666 30.378z"/>
        <path fill="#ff2a2a" fill-rule="evenodd" stroke="#000" stroke-width=".297" d="M35.337 1007.342c.649.93.884 1.495 1.243 2.169 1.586 3.962.033 7.705-.291 10.228.913-2.27 1.156-4.664 1.62-7.016.313 2.678.071 3.876.018 5.576.674-1.926.678-3.516.852-5.191.095 4.445-.12 7.141-.668 10.366.804-1.806 1.78-3.535 1.554-10.132.873 3.789 1.095 7.09.986 10.885.652-4.231.704-7.263.752-10.533.771 1.717.744 3.126.986 4.639.145-6.378-.264-8.19-2.276-10.93"/>
    </g>
</svg>
