<svg xmlns="http://www.w3.org/2000/svg" viewBox="0 0 64 64">
    <g transform="translate(0 -988.362)">
        <ellipse cx="31.861" cy="1021.172" fill="#ff8080" stroke="#000" stroke-linecap="round" stroke-linejoin="round" rx="23.947" ry="23.608"/>
        <path fill="#f55" fill-rule="evenodd" stroke="#000" d="M17.821 1030.423l28.813-.125c6.419-.028 6.522-10.989-2.553-11.06 1.163-10.423-19.088-10.963-18.136-1.311-3.1-5.008-11.605-.455-9.374 4.37-5.047.108-7.076 8.162 1.25 8.126z"/>
        <path fill="#f9f9f9" fill-rule="evenodd" d="M33.183 1000.688c8.462 1.116 16.427 3.742 20.246 18.98-11.69-16.704-13.196-13.754-20.246-18.98z"/>
        <path fill-opacity=".449" fill-rule="evenodd" d="M42.087 1042.076c-21.988 9.273-40.585-11.535-31.666-30.378.168 16.137 12.616 31.992 31.666 30.378z"/>
    </g>
</svg>
