<svg xmlns="http://www.w3.org/2000/svg" viewBox="0 0 64 64">
    <g transform="translate(0 -988.362)">
        <ellipse cx="31.861" cy="1021.172" fill="#ff8080" stroke="#000" stroke-linecap="round" stroke-linejoin="round" rx="23.947" ry="23.608"/>
        <g>
            <path fill="#f55" stroke="#000" stroke-width=".19" d="M25.908 1007.94l-10.265 16.583c.57.621 13.596 9.699 19.813 14.122l.22-.525-19.54-13.624c.016-.048 7.145-11.296 10.223-16.358z"/>
            <path fill="#ff2a2a" stroke="#000" stroke-width=".286" d="M24.366 1004.165c.521 1.524 1.102 3.535 1.459 3.716.274 1.104 1.166 2.304 6.498 4.196 4.752 1.726 7.558 3.73 8.952 5.935.847 2.774 1.263 5.743-1.724 10.25-4.99 7.486-4.45 9.488-4.111 11.689.998 1.853 2.621 1.106 2.055-.06-.604-4.382 2.197-8.031 5.239-11.629 2.611-4.185 5.146-8.502-1.46-15.106-2.152-2.151-7.141-3.237-11.537-4.855-3.698-2.204-2.516-3.183-3.382-4.676-.617-.437-1.203-1.312-1.99.54z"/>
            <g fill="#f55">
                <g stroke="#000" stroke-width="2">
                    <path d="M455.854 179.055c-8.675.834-16.794 2.967-22.842 9.932-2.11 6.192-.172 8.337 2.98 9.27-1.57 4.427-2.22 8.33 2.317 9.268-2.042 10.011 4.326 8.008 7.945 9.932l-.331-6.29c4.744-7.064 11.85-8.619 19.2-9.6l3.642 3.972c2.25-8.504-.862-10.975-5.628-11.587 5.152-3.501.667-4.375-3.641-5.296 3.66-7.378-1.755-6.978-3.642-9.6z" transform="matrix(.08326 -.00289 .00253 .07767 -11.71 992.52)"/>
                    <path stroke-linecap="round" d="M435.66 197.925c7.945-8.217 15.89-9.188 23.836-9.6M464.462 193.621c-9.838 1.832-19.265 4.759-26.484 13.573" transform="matrix(.08326 -.00289 .00253 .07767 -11.71 992.52)"/>
                </g>
            </g>
            <g fill="#f55">
                <g stroke="#000" stroke-width="2">
                    <path d="M455.854 179.055c-8.675.834-16.794 2.967-22.842 9.932-2.11 6.192-.172 8.337 2.98 9.27-1.57 4.427-2.22 8.33 2.317 9.268-2.042 10.011 4.326 8.008 7.945 9.932l-.331-6.29c4.744-7.064 11.85-8.619 19.2-9.6l3.642 3.972c2.25-8.504-.862-10.975-5.628-11.587 5.152-3.501.667-4.375-3.641-5.296 9.65-6.875-.542-11.16-3.642-9.6z" transform="matrix(.09106 -.0192 -.01285 -.09534 -2.135 1064.785)"/>
                    <path stroke-linecap="round" d="M435.66 197.925c5.507-4.615 10.604-9.469 23.836-9.6M464.462 193.621c-10.603.774-19.486 5.183-26.484 13.573" transform="matrix(.09106 -.0192 -.01285 -.09534 -2.135 1064.785)"/>
                </g>
            </g>
            <path fill="#f55" stroke="#000" stroke-width=".083" d="M40.627 1017.104c.554.807.689 1.33.959 1.943l.232 2.021c1.22-.418 2.44-.55 3.659-.55-.317-1.626-.802-3.205-1.888-4.621-1.147.222-2.124.635-2.962 1.207z"/>
            <path fill="#ff2a2a" fill-rule="evenodd" stroke="#000" stroke-width=".15" d="M29.841 1021.249l-4.058.493 8.304-1.65h-3.033l8.335-1.539-2.302-.213 13.865-1.815-12.69 4.234 1.755-1.213-8.42 2.49 2.651-1.366-7.884 2.114 3.583-1.3-17.2 3.708z"/>
        </g>
        <path fill="#f9f9f9" fill-rule="evenodd" d="M33.183 1000.688c8.462 1.116 16.427 3.742 20.246 18.98-11.69-16.704-13.196-13.754-20.246-18.98z"/>
        <path fill-opacity=".449" fill-rule="evenodd" d="M42.087 1042.076c-21.988 9.273-40.585-11.535-31.666-30.378.168 16.137 12.616 31.992 31.666 30.378z"/>
        <path fill="#ffd5d5" d="M27.781 1007.425c.787.794 1.978 1.557 3.756 2.182 1.045.367 2.363.7 2.858.844.312.091.829.248 1.333.41 1.179.38 2.664.897 3.925 1.666 1.57.957 2.374 2.039 2.91 2.991-.534-.948-1.435-1.977-3.02-2.795-1.28-.662-2.768-1.065-3.956-1.384-.57-.153-.968-.258-1.344-.368a23.13 23.13 0 0 1-2.832-1.054c-1.8-.823-2.813-1.669-3.63-2.492zM48.125 1017.143c-1.488.265-1.86.38-4.396.778-.703.11-1.318.199-1.697.244-.611.073-2.378.107-2.907.166.529-.06 2.257-.423 2.868-.496.38-.045.995-.105 1.703-.174 1.906-.187 3.578-.366 4.429-.518z"/>
    </g>
</svg>
