<svg xmlns="http://www.w3.org/2000/svg" viewBox="0 0 64 64">
    <g transform="translate(0 -988.362)">
        <ellipse cx="31.861" cy="1021.172" fill="#ff8080" stroke="#000" stroke-linecap="round" stroke-linejoin="round" rx="23.947" ry="23.608"/>
        <g fill="none" stroke-linecap="round">
            <path stroke="#000" stroke-width="3.43197" d="M24.685 1032.648L32 1008.711l7.556 23.841-19.524-14.62 24.158.044z"/>
            <path stroke="#ff2a2a" stroke-width="2.48265" d="M24.685 1032.648L32 1008.711l7.585 23.812-19.553-14.592 24.158.045z"/>
        </g>
        <path fill="#f9f9f9" fill-rule="evenodd" d="M33.183 1000.688c8.462 1.116 16.427 3.742 20.246 18.98-11.69-16.704-13.196-13.754-20.246-18.98z"/>
        <path fill-opacity=".449" fill-rule="evenodd" d="M42.087 1042.076c-21.988 9.273-40.585-11.535-31.666-30.378.168 16.137 12.616 31.992 31.666 30.378z"/>
        <path fill="#fff" fill-opacity=".785" fill-rule="evenodd" d="M32.069 1005.983c-21.38 30.92-10.69 15.46 0 0z"/>
        <path fill="#ffd5d5" d="M32.069 1005.983c.51 1.741 1.86 7.017 2.37 8.758.113.384.627 1.484.74 1.868-.113-.384-.273-1.588-.385-1.972-.51-1.74-2.216-6.913-2.725-8.654zM36.05 1017.138c.504 0 2.015.206 2.518.206 1.711 0 6.844-.206 8.555-.206-1.711 0-6.844-.207-8.555-.207-.503 0-2.014.206-2.517.206z"/>
    </g>
</svg>
