<?xml version="1.0" encoding="UTF-8"?>
<svg cursor="default" version="1.1" viewBox="0 0 256 256" xmlns="http://www.w3.org/2000/svg">
 <g fill="none" stroke="#000" stroke-linecap="round">
  <path transform="matrix(-.59693 -1.0873 -1.0644 .60975 266.45 -144.37)" d="m-201.06 183.71c1.3307 2.3912-2.5667 2.9735-3.9743 2.2118-3.8144-2.0643-2.983-7.4666-0.44927-10.16 4.5322-4.8185 12.309-3.3185 16.346 1.3132 5.925 6.7973 3.6842 17.224-3.0757 22.532-9.0099 7.0748-22.167 4.0638-28.718-4.8382-8.2448-11.202-4.4509-27.122 6.6007-34.904 13.385-9.4258 32.084-4.8424 41.09 8.3632 10.613 15.562 5.2367 37.052-10.126 47.277-17.736 11.805-42.022 5.6328-53.463-11.888-12.999-19.908-6.0302-46.994 13.651-59.649 22.079-14.196 51.969-6.4285 65.835 15.413 15.394 24.248 6.8275 56.944-17.176 72.021" stroke-width="7.2968"/>
  <path transform="matrix(1.2278 .024946 .0062256 -1.2491 307.4 414.48)" d="m-201.06 183.71c1.3307 2.3912-2.5667 2.9735-3.9743 2.2118-3.8144-2.0643-2.983-7.4666-0.44927-10.16 4.5322-4.8185 12.309-3.3185 16.346 1.3132 5.925 6.7973 3.6842 17.224-3.0757 22.532-9.0099 7.0748-22.167 4.0638-28.718-4.8382-8.2448-11.202-4.4509-27.122 6.6007-34.904 13.385-9.4258 32.084-4.8424 41.09 8.3632 10.613 15.562 5.2367 37.052-10.126 47.277-17.736 11.805-42.022 5.6328-53.463-11.888-12.999-19.908-6.0302-46.994 13.651-59.649 22.079-14.196 51.969-6.4285 65.835 15.413 15.394 24.248 6.8275 56.944-17.176 72.021" stroke-width="7.267"/>
  <path transform="matrix(-.62717 1.0456 1.0574 .62247 -189.11 166.5)" d="m-201.06 183.71c1.3307 2.3912-2.5667 2.9735-3.9743 2.2118-3.8144-2.0643-2.983-7.4666-0.44927-10.16 4.5322-4.8185 12.309-3.3185 16.346 1.3132 5.925 6.7973 3.6842 17.224-3.0757 22.532-9.0099 7.0748-22.167 4.0638-28.718-4.8382-8.2448-11.202-4.4509-27.122 6.6007-34.904 13.385-9.4258 32.084-4.8424 41.09 8.3632 10.613 15.562 5.2367 37.052-10.126 47.277-17.736 11.805-42.022 5.6328-53.463-11.888-12.999-19.908-6.0302-46.994 13.651-59.649 22.079-14.196 51.969-6.4285 65.835 15.413 15.394 24.248 6.8275 56.944-17.176 72.021" stroke-width="7.3583"/>
 </g>
 <g fill="none" stroke="#ff8080" stroke-linecap="round">
  <path transform="matrix(-.59693 -1.0873 -1.0644 .60975 266.45 -144.37)" d="m-201.06 183.71c1.3307 2.3912-2.5667 2.9735-3.9743 2.2118-3.8144-2.0643-2.983-7.4666-0.44927-10.16 4.5322-4.8185 12.309-3.3185 16.346 1.3132 5.925 6.7973 3.6842 17.224-3.0757 22.532-9.0099 7.0748-22.167 4.0638-28.718-4.8382-8.2448-11.202-4.4509-27.122 6.6007-34.904 13.385-9.4258 32.084-4.8424 41.09 8.3632 10.613 15.562 5.2367 37.052-10.126 47.277-17.736 11.805-42.022 5.6328-53.463-11.888-12.999-19.908-6.0302-46.994 13.651-59.649 22.079-14.196 51.969-6.4285 65.835 15.413 15.394 24.248 6.8275 56.944-17.176 72.021" stroke-width="6.0808"/>
  <path transform="matrix(1.2278 .024946 .0062256 -1.2491 307.4 414.48)" d="m-201.06 183.71c1.3307 2.3912-2.5667 2.9735-3.9743 2.2118-3.8144-2.0643-2.983-7.4666-0.44927-10.16 4.5322-4.8185 12.309-3.3185 16.346 1.3132 5.925 6.7973 3.6842 17.224-3.0757 22.532-9.0099 7.0748-22.167 4.0638-28.718-4.8382-8.2448-11.202-4.4509-27.122 6.6007-34.904 13.385-9.4258 32.084-4.8424 41.09 8.3632 10.613 15.562 5.2367 37.052-10.126 47.277-17.736 11.805-42.022 5.6328-53.463-11.888-12.999-19.908-6.0302-46.994 13.651-59.649 22.079-14.196 51.969-6.4285 65.835 15.413 15.394 24.248 6.8275 56.944-17.176 72.021" stroke-width="6.056"/>
  <path transform="matrix(-.62717 1.0456 1.0574 .62247 -189.11 166.5)" d="m-201.06 183.71c1.3307 2.3912-2.5667 2.9735-3.9743 2.2118-3.8144-2.0643-2.983-7.4666-0.44927-10.16 4.5322-4.8185 12.309-3.3185 16.346 1.3132 5.925 6.7973 3.6842 17.224-3.0757 22.532-9.0099 7.0748-22.167 4.0638-28.718-4.8382-8.2448-11.202-4.4509-27.122 6.6007-34.904 13.385-9.4258 32.084-4.8424 41.09 8.3632 10.613 15.562 5.2367 37.052-10.126 47.277-17.736 11.805-42.022 5.6328-53.463-11.888-12.999-19.908-6.0302-46.994 13.651-59.649 22.079-14.196 51.969-6.4285 65.835 15.413 15.394 24.248 6.8275 56.944-17.176 72.021" stroke-width="6.1319"/>
 </g>
</svg>
