<svg version="1.1" viewBox="0 0 64 64" xmlns="http://www.w3.org/2000/svg" xmlns:xlink="http://www.w3.org/1999/xlink">
 <defs>
  <linearGradient id="linearGradient15" x1="29.5" x2="44.125" y1="1025.5" y2="1003.4" gradientTransform="matrix(1.2884 0 0 1.2905 -9.225 -1284.7)" gradientUnits="userSpaceOnUse">
   <stop stop-color="#f55" offset="0"/>
   <stop stop-color="#ff8080" offset="1"/>
  </linearGradient>
 </defs>
 <ellipse cx="32" cy="32.006" rx="30.383" ry="30.381" fill="url(#linearGradient15)" fill-rule="evenodd"/>
 <g transform="matrix(1.21 0 0 1.21 -6.8129 -5.4797)">
  <g stroke="#fff" stroke-linecap="round" stroke-linejoin="round">
   <path d="m32.367 10.979c-2.7616-0.0017-5.5211 0.36168-7.4746 1.168 0 0 4.0351 2.7446 4.0254 4.8438-0.0046 0.99107-5.3553 4.898-7.4086 8.799l21.92-0.08815c-1.9632-3.85-7.1824-6.9504-7.1757-8.7597 0.0074-1.9846 3.5957-4.9375 3.5957-4.9375-1.9573-0.65558-4.7209-1.0237-7.4824-1.0254z" fill="#fff" stroke-width=".5"/>
   <path d="m24.892 22.742c-3.3457-8.6152 0.54722-9.7341 3.4996-8.0538" fill="none" stroke-width="2"/>
   <path d="m39.906 22.731c3.3457-8.6152-0.54722-9.7341-3.4996-8.0538" fill="none" stroke-width="2"/>
  </g>
  <path d="m21.644 35.045c2.2646 8.9297 7.899 16.94 7.899 16.94 1.8463 0.70294 4.6025 0.50564 5.8965-0.04687 0 0 5.4134-8.3407 7.7124-16.838z" fill="#fff"/>
  <path d="m21.023 26.892c-0.20106 0.57545-0.31134 1.1447-0.30251 1.6981 0.02705 1.6949 0.32329 3.849 0.68404 5.5512l22.041 0.04972c0.50144-2.0013 0.69799-3.7597 0.71803-5.6478 5e-3 -0.46804-0.05618-1.2399-0.17147-1.6915zm0.77366 0.5321 5.8358-0.04226-0.13122 6.2067-4.519 0.0055 0.068359-3.5937h1.6602v1.9316h1.0527l0.20312-2.8477h-4.1367zm7.543 0.0332 5.8358-0.06623-0.05931 6.1847-4.5909 0.05149 0.06836-3.5938h1.6602v1.9336h1.0508l0.20312-2.8477h-4.1348zm7.1523 0.06836 5.8358-0.01829-0.17916 6.1607-4.4711 0.02752 0.06836-3.5938h1.6602v1.9316h1.0508l0.08328-2.8477h-4.0149z" fill="#fff"/>
 </g>
</svg>
