<svg xmlns="http://www.w3.org/2000/svg" cursor="default" viewBox="0 0 256 256">
    <g fill-rule="evenodd">
        <path fill="#ff8080" d="M258.214-.423H-.714L-.72 257.786l258.934-.008z"/>
        <path fill="#d35f5f" d="M168.731 28.074c-5.037-1.311-8.241 8.338-13.424 8.44-4.226.081-7.71-9.068-11.164-6.45-1.978 1.5-5.808 5.45-6.008 9.184-.408 7.618 8.828 12.977 10.176 20.109 1.33 7.035-1.503 18.97 4.942 20.871 3.478 1.026 4.754-5.915 7.658-8.215 2.64-2.09 7.091-1.866 8.701-4.935 1.76-3.356-.894-7.69-.637-11.532.368-5.477 6.66-10.724 6.135-16.672-.374-4.245-2.52-9.796-6.379-10.8zM86.112 124.794c3.158 3.655 4.464 10.435 8.518 11.966 5.81 2.194 9.675-6.93 15.503-6.686 3.737.156 7.696 6.584 11.013 5.163 3.98-1.705 6.66-8.76 4.643-13.847-3.77-9.506-15.8-11.794-24.257-13.403-4.187-.797-8.31.422-11.962 2.074-3.944 1.784-10.567 2.967-10.262 8.25.183 3.164 4.72 4.07 6.804 6.483zM6.966 64.24c-1.761 6.127 7.99 10.871 7.682 17.293-.252 5.235-10.017 8.807-7.577 13.292 1.397 2.569 5.188 7.627 9.045 8.176 7.867 1.12 14.16-9.874 21.663-10.966 7.402-1.077 19.552 3.393 22.038-4.428 1.341-4.22-5.756-6.36-7.909-10.139-1.958-3.436-1.37-8.926-4.425-11.166-3.34-2.448-8.046.485-12.009-.144-5.65-.897-10.59-9.106-16.8-8.939-4.432.12-10.36 2.328-11.708 7.02zM64.774 47.931c-4.154 5.365-6.73 15.1-4.143 22.093 1.421 3.844 6.221 3.383 8.944 5.89 3.267 3.007 4.676 11.1 8.64 10.766 5.053-.426 8.558-8.998 8.735-15.395.122-4.424-4.222-7.404-5.423-11.617-1.507-5.288 1.653-13.437-2.07-16.563-4.31-3.618-11.176.297-14.683 4.826zM23.221 30.131c5.243-.066 8.494-7.156 13.402-9.22 3.98-1.675 10.222 1.58 12.577-2.384 2.127-3.581.449-9.977-2.619-12.566-5.783-4.882-14.755-1.09-21.7 1.21-6.82 2.258-18.448 4.016-18.459 11.98-.01 7.26 10.316 11.062 16.8 10.98zM121.928 94.94c5.23.418 7.655 10.335 12.894 9.91 3.34-.27 6.536-3.99 7.465-7.59 1.925-7.457-5.098-14.554-5.661-22.258-.485-6.626 5.981-14.943 2.018-19.864-2.885-3.581-9.577 3.275-13.025.112-2.87-2.632-5.9-7.347-9.552-6.417-4.386 1.117-4.65 8.673-7.534 12.546-4.449 5.974-15.388 8.602-14.927 16.301.31 5.164 8.656 4.782 11.212 9.072 2.66 4.467-1.047 13.427 3.31 15.705 4.592 2.402 8.722-7.924 13.8-7.517zM45.977 153.083c2.665-3.839-4.326-9.17-2.785-13.52 1.257-3.547 9.93-3.93 8.843-7.532-.622-2.064-2.695-6.346-5.726-7.542-6.184-2.44-13.52 3.784-19.851 2.943-6.247-.83-15.247-6.482-18.844-1.631-1.94 2.617 3.411 5.594 4.407 8.65.904 2.777-.678 6.428 1.361 8.616 2.23 2.393 6.653 1.375 9.755 2.648 4.423 1.816 6.798 8.509 11.89 9.711 3.636.858 8.908.598 10.95-2.343zM156.25 140.519c-5.257-.72-7.986-8.326-12.757-11.033-3.87-2.196-10.382.334-12.447-3.986-1.865-3.902.303-10.19 3.578-12.437 6.174-4.239 14.895.729 21.694 3.929 6.676 3.142 18.217 6.375 17.626 14.465-.538 7.376-11.19 9.952-17.693 9.062zM37.73 114.913c2.717-.585 6.669 2.921 8.297.464 2.665-4.022-.758-11.805-4.855-13.935-2.871-1.492-6.853.773-9.045 3.295-3.275 3.768-7.46 11.676-3.838 15.039 2.654 2.463 6.03-4.127 9.44-4.863zM63.4 117.776c4.253.377 5.848-6.964 8.531-10.674 2.372-3.28 8.625-6.611 6.674-10.222-2.108-3.9-8.21.604-12.081 2.018-3.739 1.366-9.445 1.877-10.449 6.133-1.152 4.884 2.826 12.346 7.325 12.745zM149.048 12.875c-2.26-1.753-2.672-7.31-5.417-6.908-4.494.659-8.052 9.121-5.85 13.468 1.766 3.485 7.224 1.76 10.84 1.336 3.55-.417 10.069.16 10.15-3.755.078-3.811-6.884-1.94-9.723-4.141zM150.345 97.417c.874 3.96-.593 10.232 2.827 11.821 2.961 1.376 7.486-1.812 8.407-5.192 1.04-3.82-2.68-7.565-5.01-10.626-2.289-3.005-5.473-9.27-8.486-7.168-2.933 2.046 1.444 7.46 2.262 11.165zM62.004 149.683c5.148 4.293 14.502 2.617 19.303-2.135 2.489-2.463 4.146-7.953 2.028-10.804-2.475-3.331-7.847.308-11.755-.004-4-.319-9.105-5.054-11.904-1.905-3.197 3.596-1.318 11.809 2.328 14.848z"/>
        <path fill="#d35f5f" d="M102.868 145.918c1.01 3.463 6.092 2.477 9.211 3.457 2.758.865 6.685 4.771 8.382 2.132 1.833-2.85-2.787-6.28-4.811-8.896-1.955-2.526-3.95-6.863-6.919-6.354-3.408.585-6.931 5.997-5.863 9.661zM48.973 45.511c3.89.094 3.72-7.84 6.864-10.352 2.977-2.378 8.354-.493 10.499-3.776 1.845-2.825 2.623-8.647-.1-10.423-4.364-2.844-8.582 6.26-13.454 7.823-4.234 1.36-11.265-3.165-13.193 1.188-2.474 5.59 3.72 15.404 9.384 15.54zM16.835 41.277c-3.453-1.239-5.363-8.63-8.735-7.149-4.209 1.85-4.878 10.641-2.27 14.709 3.084 4.809 10.7 4.814 15.832 3.11 4.543-1.508 12.061-5.997 10.27-10.817-1.9-5.111-10.314 1.863-15.097.147zM76.564 16.514c-.086 5.035-3.492 10.872-1.58 15.082 2.738 6.033 11.327 2.502 15.326 7.159 2.563 2.985 1.274 10.612 4.547 12.15 3.928 1.847 10.35-1.122 12.165-6.298 3.393-9.676-3.718-20.56-8.717-28.212-2.475-3.789-6.195-6.092-9.853-7.723-3.953-1.761-9.43-6.013-12.592-2.012-1.893 2.395.761 6.531.704 9.854zM124.688 42.83c-3.165-1.722-.742-10.362-2.556-14.599-1.717-4.01-6.597-4.461-7.382-9.077-.674-3.97.375-10.734 3.084-11.407 4.338-1.08 5.12 10.906 8.599 14.91 3.025 3.48 10 1.807 10.3 7.496.387 7.303-7.437 15.185-12.045 12.677zM165.194 143.586c-5.037-1.311-8.241 8.338-13.424 8.44-4.225.082-7.71-9.068-11.163-6.45-1.979 1.5-5.808 5.45-6.008 9.184-.408 7.618 8.827 12.977 10.175 20.109 1.33 7.035-1.502 18.97 4.943 20.871 3.477 1.026 4.753-5.915 7.657-8.215 2.64-2.09 7.092-1.866 8.701-4.935 1.76-3.356-.894-7.69-.636-11.532.367-5.477 6.659-10.724 6.135-16.672-.375-4.245-2.521-9.796-6.38-10.8zM7.572 215.66c-1.76 6.127 7.99 10.871 7.682 17.292-.251 5.236-10.017 8.808-7.577 13.293 1.398 2.569 5.189 7.627 9.045 8.176 7.868 1.12 14.16-9.874 21.664-10.966 7.401-1.077 19.552 3.393 22.037-4.428 1.342-4.22-5.755-6.36-7.908-10.139-1.958-3.436-1.37-8.926-4.425-11.166-3.34-2.449-8.047.485-12.01-.144-5.65-.897-10.59-9.107-16.8-8.939-4.432.12-10.36 2.328-11.708 7.02zM66.762 205.152c-4.154 5.364-6.73 15.099-4.144 22.093 1.422 3.843 6.222 3.382 8.945 5.889 3.266 3.007 4.676 11.1 8.64 10.766 5.053-.426 8.557-8.998 8.735-15.395.122-4.423-4.223-7.404-5.423-11.617-1.508-5.287 1.653-13.436-2.07-16.563-4.31-3.618-11.176.297-14.683 4.827zM23.275 186.246c5.243-.066 8.494-7.156 13.402-9.22 3.98-1.674 10.222 1.581 12.577-2.383 2.127-3.582.449-9.977-2.619-12.566-5.783-4.882-14.755-1.09-21.7 1.21-6.82 2.257-18.448 4.016-18.458 11.98-.01 7.26 10.315 11.062 16.798 10.98zM122.258 244.15c5.23.418 7.655 10.335 12.894 9.911 3.341-.27 6.536-3.99 7.465-7.59 1.925-7.458-5.098-14.555-5.66-22.259-.485-6.626 5.98-14.943 2.017-19.864-2.885-3.581-9.577 3.275-13.025.112-2.87-2.632-5.9-7.347-9.552-6.417-4.386 1.117-4.65 8.673-7.534 12.546-4.448 5.975-15.388 8.602-14.926 16.301.31 5.164 8.655 4.782 11.21 9.073 2.661 4.466-1.045 13.426 3.31 15.704 4.594 2.402 8.723-7.924 13.801-7.517zM164.211 212.699c.489-2.82 5.204-5.788 3.561-8.024-2.689-3.66-11.831-2.835-14.638 1.148-2.25 3.194 1.833 7.206 3.903 10.2 2.033 2.94 4.58 8.969 8.075 7.205 3.403-1.718-1.514-6.99-.901-10.53zM153.162 237.236c.874 3.96-.594 10.232 2.826 11.821 2.961 1.376 7.486-1.812 8.407-5.192 1.04-3.82-2.68-7.565-5.01-10.626-2.289-3.005-5.473-9.27-8.485-7.169-2.934 2.047 1.444 7.46 2.262 11.166zM50.96 202.732c3.89.093 3.72-7.84 6.865-10.352 2.977-2.378 8.354-.493 10.499-3.777 1.845-2.824 2.622-8.647-.101-10.422-4.363-2.845-8.582 6.259-13.453 7.823-4.235 1.359-11.266-3.166-13.193 1.188-2.474 5.589 3.72 15.404 9.383 15.54zM17.994 195.459c-3.453-1.239-5.363-8.63-8.735-7.149-4.209 1.85-4.878 10.641-2.27 14.709 3.084 4.809 10.7 4.814 15.832 3.11 4.543-1.508 12.061-5.997 10.27-10.818-1.9-5.11-10.314 1.864-15.097.148zM78.828 167.658c-.086 5.034-3.492 10.871-1.581 15.081 2.739 6.034 11.328 2.502 15.327 7.16 2.563 2.985 1.274 10.612 4.547 12.15 3.928 1.846 10.35-1.122 12.165-6.299 3.393-9.676-3.718-20.56-8.718-28.212-2.474-3.788-6.194-6.092-9.852-7.722-3.953-1.762-9.43-6.013-12.592-2.012-1.893 2.395.76 6.53.704 9.854zM123.913 195.079c-3.164-1.723-.742-10.363-2.555-14.6-1.717-4.01-6.598-4.46-7.382-9.076-.675-3.97.375-10.735 3.083-11.408 4.339-1.08 5.12 10.906 8.6 14.91 3.024 3.481 10 1.807 10.3 7.496.386 7.304-7.437 15.185-12.046 12.678zM237.802 111.971c-3.203 3.616-9.749 5.812-10.727 10.034-1.402 6.051 8.155 8.667 8.689 14.476.342 3.725-5.502 8.503-3.653 11.602 2.22 3.718 9.57 5.435 14.342 2.76 8.92-5.002 9.588-17.228 10.058-25.825.233-4.255-1.524-8.18-3.647-11.58-2.293-3.67-4.346-10.078-9.542-9.073-3.111.602-3.407 5.219-5.52 7.606zM175.762 63.462c-1.76 6.127 7.99 10.871 7.682 17.293-.25 5.235-10.016 8.807-7.577 13.292 1.398 2.569 5.189 7.627 9.046 8.176 7.867 1.12 14.16-9.874 21.663-10.966 7.401-1.077 19.552 3.393 22.038-4.428 1.34-4.22-5.756-6.36-7.91-10.139-1.957-3.436-1.37-8.926-4.424-11.166-3.34-2.449-8.047.485-12.01-.144-5.65-.897-10.59-9.107-16.8-8.939-4.432.12-10.359 2.328-11.708 7.02zM234.352 57.114c-4.154 5.365-6.73 15.1-4.143 22.093 1.421 3.844 6.221 3.383 8.944 5.89 3.267 3.007 4.676 11.1 8.64 10.766 5.053-.426 8.558-8.998 8.735-15.396.122-4.423-4.222-7.404-5.423-11.616-1.507-5.288 1.653-13.437-2.07-16.563-4.31-3.618-11.176.297-14.683 4.826zM187.526 28.767c5.242-.066 8.493-7.156 13.401-9.22 3.98-1.675 10.223 1.58 12.578-2.384 2.127-3.581.448-9.977-2.62-12.566-5.783-4.882-14.754-1.09-21.7 1.21-6.82 2.258-18.447 4.016-18.458 11.98-.01 7.26 10.316 11.062 16.799 10.98zM214.969 152.305c2.665-3.84-4.326-9.17-2.785-13.52 1.257-3.547 9.93-3.93 8.843-7.532-.622-2.064-2.695-6.346-5.726-7.542-6.184-2.44-13.52 3.784-19.851 2.943-6.247-.83-15.247-6.482-18.844-1.632-1.94 2.617 3.412 5.595 4.407 8.65.904 2.778-.677 6.429 1.361 8.617 2.23 2.393 6.653 1.375 9.755 2.648 4.423 1.816 6.798 8.509 11.89 9.711 3.636.858 8.908.598 10.95-2.343zM197.738 115.307c2.717-.586 6.669 2.92 8.296.464 2.666-4.023-.757-11.805-4.855-13.935-2.87-1.492-6.852.773-9.044 3.295-3.275 3.768-7.461 11.676-3.838 15.039 2.654 2.462 6.03-4.128 9.44-4.863zM219.307 118.951c4.252.377 5.847-6.964 8.53-10.674 2.372-3.28 8.625-6.611 6.674-10.222-2.107-3.9-8.21.604-12.08 2.018-3.74 1.366-9.446 1.877-10.45 6.133-1.152 4.884 2.826 12.346 7.325 12.745zM224.941 170.976c5.149 4.292 14.502 2.616 19.303-2.135 2.49-2.464 4.146-7.954 2.028-10.805-2.475-3.33-7.847.308-11.755-.004-4-.318-9.105-5.054-11.904-1.905-3.197 3.596-1.317 11.81 2.328 14.848zM218.559 254.58c3.167 1.52 6.54-1.606 9.692-2.597 2.786-.877 8.579-.56 8.129-2.956-.486-2.587-6.505-2.277-9.902-2.792-3.28-.498-7.828-2.036-9.844-.248-2.314 2.05-1.427 6.985 1.925 8.593zM228.272 48.956c1.148-3.718-6.533-5.711-8.095-9.42-1.48-3.512 1.797-8.174-.78-11.13-2.216-2.544-7.608-4.876-10.057-2.738-3.924 3.425 3.69 9.96 3.87 15.073.157 4.445-6.109 9.981-2.444 13.02 4.706 3.9 15.835.608 17.506-4.805zM191.686 39.913c-3.453-1.239-5.362-8.63-8.735-7.149-4.208 1.85-4.878 10.641-2.27 14.709 3.084 4.809 10.7 4.814 15.832 3.11 4.543-1.508 12.062-5.997 10.27-10.817-1.9-5.111-10.314 1.863-15.097.147zM225.048 13.588c-.086 5.034-3.491 10.871-1.58 15.081 2.738 6.034 11.327 2.502 15.326 7.159 2.564 2.986 1.275 10.613 4.548 12.151 3.927 1.846 10.35-1.122 12.165-6.299 3.392-9.676-3.719-20.56-8.718-28.212-2.475-3.788-6.194-6.092-9.853-7.722-3.953-1.762-9.43-6.013-12.591-2.013-1.893 2.396.76 6.532.703 9.855z"/>
        <path fill="#d35f5f" d="M176.564 214.882c-1.76 6.127 7.99 10.871 7.682 17.292-.251 5.236-10.017 8.807-7.577 13.292 1.398 2.57 5.189 7.627 9.045 8.177 7.868 1.12 14.16-9.874 21.664-10.966 7.401-1.077 19.552 3.393 22.037-4.428 1.342-4.22-5.755-6.36-7.908-10.14-1.958-3.435-1.37-8.925-4.425-11.165-3.34-2.449-8.047.485-12.01-.144-5.65-.897-10.59-9.107-16.8-8.939-4.432.12-10.359 2.328-11.708 7.02zM231.262 204.373c-4.154 5.365-6.73 15.1-4.144 22.094 1.421 3.843 6.221 3.382 8.944 5.889 3.267 3.007 4.677 11.1 8.64 10.766 5.054-.426 8.558-8.998 8.735-15.395.123-4.423-4.222-7.404-5.423-11.617-1.507-5.288 1.654-13.437-2.07-16.563-4.309-3.618-11.175.297-14.682 4.826zM192.267 185.468c5.243-.066 8.494-7.156 13.402-9.22 3.98-1.675 10.222 1.581 12.577-2.383 2.128-3.582.449-9.978-2.619-12.567-5.783-4.881-14.755-1.09-21.7 1.21-6.82 2.258-18.448 4.017-18.458 11.98-.01 7.261 10.315 11.062 16.798 10.98zM219.952 201.954c3.89.093 3.72-7.84 6.865-10.353 2.977-2.378 8.354-.493 10.499-3.776 1.845-2.825 2.622-8.647-.101-10.423-4.363-2.844-8.582 6.26-13.453 7.823-4.235 1.36-11.266-3.165-13.193 1.188-2.474 5.59 3.72 15.404 9.383 15.54zM186.986 194.68c-3.453-1.238-5.363-8.63-8.735-7.148-4.209 1.85-4.878 10.641-2.27 14.708 3.084 4.81 10.7 4.815 15.832 3.111 4.543-1.508 12.061-5.997 10.27-10.818-1.9-5.11-10.314 1.863-15.097.148zM78.663 247.308c-3.974-.803-9.116-4.683-11.953-2.199-2.457 2.152-1.372 7.58 1.346 9.79 3.072 2.497 8.002.61 11.744-.282 3.675-.877 10.692-1.254 9.99-4.86-.685-3.51-7.407-1.698-11.127-2.449zM3.541 108.259c.874 3.959-.593 10.232 2.827 11.82 2.961 1.377 7.486-1.812 8.407-5.191 1.04-3.82-2.68-7.566-5.01-10.626-2.289-3.006-5.473-9.27-8.486-7.169-2.933 2.046 1.444 7.46 2.262 11.166z"/>
    </g>
</svg>
