<svg xmlns="http://www.w3.org/2000/svg" cursor="default" viewBox="0 0 256 256">
    <g fill-rule="evenodd">
        <path fill="#ff8080" d="M258.214-.423H-.714L-.72 257.786l258.934-.008z"/>
        <path fill="#c83737" d="M128.415 20.129s-57.163-7.287-85.74-5.432c-4.869.317-9.715.948-14.364 2.807-6.053 2.42-12.274 5.343-17.269 10.726-2.825 3.045-6.705 11.687-6.705 11.687s5.516-4.713 8.454-6.561c5.64-3.547 11.472-6.667 17.493-8.612 6.197-2.002 12.574-2.526 18.95-3.075 10.443-.9 20.964-.155 31.444-.344 15.915-.286 47.737-1.196 47.737-1.196z"/>
        <path fill="#c83737" d="M78.074 33.575a68.843 68.843 0 0 0-22.77-5.352c-2.745-.162-5.543-.038-8.196.926-5.644 2.05-11.32 5.13-15.929 10.146-2.815 3.064-6.705 11.687-6.705 11.687s5.518-4.705 8.454-6.56c6.656-4.207 12.963-7.635 17.493-8.612 6.285-1.356 7.648-1.196 11.443-.615 14.714 2.25 42.971 15.739 42.971 15.739s-16.98-13.188-26.761-17.36zM104.688 96.8c-20.645-1.066-41.424-1.35-62.002 1.387-5.845.777-11.866 1.315-17.353 4.256-5.235 2.806-10.08 7.249-14.28 12.466-2.666 3.314-6.705 11.687-6.705 11.687s5.314-4.87 8.455-6.561c12.564-6.766 26.519-11.075 40.528-13.79 13-2.52 26.436-1.608 39.665-2.183 18.41-.8 55.256-1.765 55.256-1.765s-28.947-4.743-43.564-5.498zM84.706 57.971c-6.858.011-13.714.436-20.55.985-2.74.22-5.543-.038-8.197.926-5.643 2.05-11.318 5.13-15.928 10.146-2.815 3.064-6.706 11.687-6.706 11.687s5.52-4.705 8.455-6.56c6.656-4.207 13.31-5.045 20.27-6.34 15.95-2.965 32.375-2.137 48.567-3.14 20.988-1.3 62.975-3.73 62.975-3.73s-59.227-4.021-88.886-3.974zM83.555 127.796c-7.797-3.046-16.23-4.695-24.591-5.076-2.747-.126-5.483.39-8.197.925-6.023 1.19-11.851 4.017-17.887 5.072-3.245.568-9.798.669-9.798.669s13.238 5.268 20 4.892c3.782-.21 6.469-2.995 10.998-3.972 6.285-1.356 7.674-1.238 11.443-.615 22.53 3.722 63.589 25.486 63.589 25.486s-29.054-20.935-45.557-27.381zM-.588 24.1s18.167-9.258 27.635-11.59c15.707-3.867 31.818-3.384 47.76-3.82 5.79-.16 11.598-.2 17.372.437 3.322.366 9.9 1.941 9.9 1.941S95 5.857 91.152 4.581c-5.586-1.852-11.444-1.416-17.183-1.537C56.705 2.68 39.355 2.73 22.202 5.49 14.512 6.727-.581 11.792-.581 11.792z"/>
        <path fill="#c83737" d="M-.71 54.568s20.035 11.177 30.443 10.197c6.142-.578 11.477-6.27 17.235-9.332 3.067-1.631 5.981-4.115 9.223-4.815 12.31-2.659 37.317 2.665 37.317 2.665s-26.112-11.58-39.504-10.662c-3.087.212-5.986 2.211-8.892 3.69-5.3 2.7-9.895 9.031-15.524 9.433C19.01 56.497-.702 42.26-.702 42.26zM-.649 79s2.916-1.392 4.423-1.798c2.831-.763 5.727-.99 8.607-1.18a71.121 71.121 0 0 1 10.052.04c3.268.247 9.766 1.436 9.766 1.436s-5.54-7.436-9.037-9.227c-2.61-1.335-5.552-.362-8.31-.82-2.054-.341-4.085-.923-6.122-1.435C5.6 65.229-.64 63.502-.64 63.502zM-.582 95.765s16.459 2.486 24.627 1.265c7.702-1.151 15-5.441 22.524-8.03 5.814-2 11.569-4.439 17.475-5.797 13.078-3.007 39.586-5.162 39.586-5.162s-27.39-4.611-41.026-2.863c-7.372.945-14.37 5.032-21.615 7.162-6.223 1.828-12.408 4.525-18.762 4.82-7.647.353-22.802-3.703-22.802-3.703zM-.617 146.61s27.015-.482 40.501-1.49c2.737-.205 5.482-.39 8.196-.926 6.024-1.19 11.852-4.017 17.887-5.072 3.245-.568 9.798-.669 9.798-.669s-13.238-5.268-19.999-4.892c-3.782.21-6.47 2.995-10.999 3.972-6.285 1.356-7.626.729-11.443.615-11.345-.337-33.934-3.847-33.934-3.847z"/>
        <path fill="#c83737" d="M125.586 81.498c-5.348.016-10.694-.286-16.04-.223-5.988.071-11.986.151-17.95.676-6.84.601-13.655 1.308-20.402 2.829-5.506 1.241-16.327 5.126-16.327 5.126s11.66.512 17.493.615c5.587.098 11.187.36 16.763 0 7.39-.477 14.683-1.952 22.033-2.858 20.196-2.49 60.637-7.082 60.637-7.082s-30.802.871-46.207.917zM146.429 115.291c-8.143-2.35-16.58-3.67-25-4.642-17.877-2.065-35.963-3.542-53.929-2.5-6.623.384-13.178 1.722-19.643 3.214-8.477 1.957-17.142 3.764-25 7.5-3.638 1.73-10 6.786-10 6.786s8.847.227 13.215-.357c4.98-.667 9.72-2.563 14.642-3.572 9.223-1.89 18.55-3.233 27.858-4.643 5.227-.792 10.43-1.97 15.714-2.143 10.139-.33 20.257 1.197 30.357 2.143 9.189.861 18.391 1.729 27.5 3.214 12.006 1.959 35.714 7.5 35.714 7.5s-20.596-9.372-31.428-12.5zM128.785 235.627s57.164 7.287 85.741 5.431c4.868-.316 9.714-.947 14.364-2.806 6.053-2.42 12.274-5.343 17.268-10.726 2.825-3.045 6.706-11.687 6.706-11.687s-5.516 4.713-8.455 6.561c-5.64 3.546-11.471 6.666-17.492 8.611-6.197 2.003-12.575 2.527-18.95 3.076-10.444.9-20.964.155-31.444.344-15.915.286-47.738 1.196-47.738 1.196z"/>
        <path fill="#c83737" d="M179.127 222.181a68.842 68.842 0 0 0 22.77 5.351c2.744.163 5.542.038 8.196-.925 5.643-2.05 11.319-5.13 15.928-10.147 2.815-3.063 6.706-11.687 6.706-11.687s-5.519 4.706-8.455 6.562c-6.655 4.206-12.963 7.634-17.492 8.611-6.285 1.356-7.648 1.195-11.443.615-14.715-2.25-42.972-15.739-42.972-15.739s16.981 13.188 26.762 17.36zM152.512 158.956c20.135 4.684 41.424 1.35 62.002-1.387 5.846-.778 11.866-1.316 17.353-4.256 5.235-2.806 10.081-7.249 14.28-12.466 2.667-3.315 6.705-11.687 6.705-11.687s-5.314 4.87-8.455 6.561c-12.564 6.766-26.519 11.074-40.528 13.79-13 2.52-26.484 3.456-39.664 2.183-17.096-1.652-49.953-12.63-49.953-12.63s24.26 16.636 38.26 19.892zM172.494 197.784c6.858-.01 13.715-.435 20.55-.985 2.741-.22 5.543.038 8.197-.925 5.643-2.05 11.319-5.13 15.929-10.147 2.814-3.063 6.705-11.687 6.705-11.687s-5.519 4.706-8.455 6.562c-6.655 4.206-13.31 5.044-20.27 6.338-15.95 2.966-32.375 2.138-48.566 3.14-20.989 1.3-62.976 3.73-62.976 3.73s59.228 4.022 88.886 3.974zM158.24 114.828c9.536 2.894 18.362 8.143 28.128 10.127 6.482 1.316 13.239 1.824 19.813 1.095 6.16-.684 11.766-4.1 17.887-5.072 9.883-1.572 30-1.174 30-1.174s-26.817-5.987-40.202-4.387c-3.87.462-6.469 2.995-10.998 3.972-6.285 1.356-19.872-4.22-29.879-5.951-16.499-2.854-49.699-7.303-49.699-7.303s23.463 5.206 34.95 8.693zM257.789 231.656s-18.167 9.258-27.636 11.59c-15.707 3.866-31.817 3.384-47.76 3.82-5.79.159-11.598.2-17.371-.437-3.322-.366-9.901-1.941-9.901-1.941s7.08 5.211 10.928 6.487c5.587 1.851 11.445 1.416 17.183 1.537 17.264.364 34.613.314 51.767-2.446 7.689-1.237 22.782-6.302 22.782-6.302z"/>
        <path fill="#c83737" d="M257.91 201.188s-20.035-11.178-30.443-10.197c-6.142.578-11.476 6.27-17.234 9.332-3.068 1.63-5.982 4.115-9.223 4.815-12.311 2.659-37.317-2.665-37.317-2.665s26.111 11.58 39.503 10.661c3.087-.211 5.986-2.21 8.892-3.69 5.3-2.699 9.895-9.03 15.525-9.432 10.576-.753 30.29 13.484 30.29 13.484zM257.85 176.756s-2.917 1.392-4.424 1.798c-2.83.763-5.727.99-8.606 1.18-3.347.222-6.706.211-10.052-.04-3.269-.247-9.767-1.436-9.767-1.436s5.54 7.436 9.038 9.226c2.609 1.336 5.551.362 8.309.82 2.054.342 4.085.924 6.122 1.436 3.13.787 9.372 2.514 9.372 2.514zM257.872 159.99s-16.46-2.485-24.628-1.264c-7.702 1.151-15 5.44-22.523 8.03-5.814 2-11.569 4.438-17.475 5.796-13.079 3.007-39.587 5.163-39.587 5.163s27.391 4.61 41.027 2.863c7.372-.945 14.37-5.032 21.615-7.162 6.223-1.829 12.408-4.526 18.761-4.82 7.647-.353 22.802 3.703 22.802 3.703zM257.922 103.085s-27.015.482-40.501 1.49c-2.737.205-5.482.39-8.196.926-6.024 1.19-11.852 4.016-17.887 5.072-3.245.567-9.798.668-9.798.668s13.238 5.27 19.999 4.893c3.782-.21 6.47-2.995 10.999-3.972 6.285-1.356 7.626-.729 11.443-.615 11.345.337 33.934 3.846 33.934 3.846z"/>
        <path fill="#c83737" d="M131.615 174.258c5.277.862 10.693.286 16.04.222 5.987-.07 11.985-.15 17.95-.675 6.84-.601 13.654-1.308 20.402-2.83 5.506-1.24 16.326-5.125 16.326-5.125s-11.66-.513-17.492-.615c-5.588-.098-11.188-.36-16.764 0-7.39.477-14.628 3.008-22.032 2.858-24.43-.495-72.254-12.364-72.254-12.364s37.849 15.264 57.824 18.529zM111.277 133.646c8.143 2.35 16.58 3.67 25 4.643 17.876 2.064 35.963 3.542 53.928 2.5 6.624-.385 13.178-1.723 19.643-3.215 8.478-1.956 16.624-5.148 25-7.5 7.004-1.966 21.112-5.523 21.112-5.523s-16.253-1.724-24.326-.905c-4.999.506-9.721 2.562-14.643 3.571-9.222 1.89-18.55 3.233-27.857 4.643-5.227.792-10.43 1.97-15.714 2.143-10.14.33-20.258-1.197-30.358-2.143-9.188-.86-18.39-1.729-27.5-3.214-12.005-1.958-35.714-7.5-35.714-7.5s20.597 9.372 31.429 12.5zM124.868 96.495s57.107-4.946 85.74-5.431c3.19-.055 6.403-.13 9.566.28 4.232.549 8.347 1.798 12.47 2.898 5.145 1.372 15.292 4.616 15.292 4.616s-9.835 1.098-14.768 1.015c-5.015-.085-9.961-1.23-14.967-1.54-4.71-.292-9.434-.223-14.152-.298-10.48-.168-20.964-.155-31.444-.344-15.915-.286-47.737-1.196-47.737-1.196zM156.521 102.617c2.797-.405 5.56-1.06 8.375-1.31 5.07-.451 10.187-.65 15.268-.338 4.761.293 9.427 1.478 14.16 2.065 4.33.537 13.02 1.333 13.02 1.333s-9.817 1.742-14.769 2.278c-5.221.565-10.476.798-15.724.985-5.41.193-10.829.27-16.241.143-10.044-.238-30.093-1.687-30.093-1.687s17.35-2.215 26.004-3.469zM152.635 48.664c12.035 1.093 24.205-.168 36.244.883 13.969 1.219 28.563 1.1 41.596 6.276 5.954 2.364 11.462 6.231 15.795 10.95 3.037 3.309 6.705 11.688 6.705 11.688s-5.314-4.87-8.455-6.562c-12.564-6.765-26.508-11.129-40.528-13.79-22.605-4.29-46.433 1.478-68.95-3.254-13.839-2.908-39.596-15.227-39.596-15.227s37.969 7.291 57.19 9.036zM166.303 11.604c7.083.063 14.165.15 21.247.171 4.605.014 9.214.183 13.814-.028 7.352-.337 14.65-1.424 21.99-1.976 7.95-.598 23.877-1.445 23.877-1.445s-17.441 7.476-26.637 9.601c-8.272 1.912-16.833 2.568-25.321 2.753-16.219.355-32.375-2.137-48.566-3.14-20.989-1.3-62.976-3.73-62.976-3.73s37.86-2.142 56.814-2.459c8.585-.143 17.172.176 25.758.253z"/>
        <path fill="#c83737" d="M257.975 99.172s-17.89-9.396-27.636-11.59c-7.409-1.668-15.165-1.167-22.758-1.043-17.966.294-35.8 3.173-53.738 4.226-16.668.978-50.054 1.94-50.054 1.94s34.052-4.343 51.082-6.486c14.228-1.791 28.381-4.373 42.69-5.326 12.514-.833 25.188-1.964 37.624-.332 7.812 1.026 22.782 6.303 22.782 6.303zM203.033 73.576c-5.383.565-10.749 1.404-16.157 1.625-7.288.299-14.586-.57-21.877-.403-6.539.149-13.043 1.064-19.58 1.256-12.077.355-36.246-.192-36.246-.192s15.531-4.197 23.432-5.662c9.667-1.792 19.427-3.364 29.25-3.81 10.41-.47 20.849.404 31.238 1.218 10.374.813 31.004 3.66 31.004 3.66s-14.04 1.57-21.064 2.308zM257.972 30.864s-2.916-1.391-4.423-1.797c-2.83-.763-5.727-.99-8.606-1.18a71.125 71.125 0 0 0-10.052.04c-3.269.247-9.767 1.436-9.767 1.436s5.54-7.437 9.038-9.227c2.609-1.335 5.551-.362 8.309-.82 2.054-.342 4.085-.924 6.122-1.435 3.13-.787 9.372-2.515 9.372-2.515zM257.906 47.63s-16.46 2.486-24.628 1.265c-7.702-1.152-15-5.441-22.524-8.03-5.813-2-11.568-4.439-17.475-5.797-13.078-3.007-39.586-5.163-39.586-5.163s27.39-4.61 41.026-2.862c7.372.945 14.37 5.032 21.616 7.161 6.223 1.83 12.407 4.526 18.761 4.82 7.647.353 22.802-3.702 22.802-3.702z"/>
        <path fill="#c83737" d="M108.88 29.434c12.98 1.093 25.902 2.843 38.898 3.706 5.974.397 11.985.151 17.95.675 6.84.602 13.654 1.308 20.402 2.83 5.506 1.241 16.326 5.126 16.326 5.126s-11.66.512-17.492.615c-5.588.098-11.177.109-16.764 0-18.307-.358-36.844.961-54.89-2.144-15.151-2.607-44.039-13.708-44.039-13.708s26.418 1.789 39.61 2.9zM91.624 164.94s-29.887.536-44.83.38c-3.19-.033-6.402.13-9.565-.28-4.232-.549-8.347-1.798-12.47-2.898-5.145-1.373-15.292-4.616-15.292-4.616s9.834-1.099 14.768-1.015c5.015.085 9.961 1.23 14.967 1.54 4.71.292 9.441.027 14.152.298 5.699.328 11.416.684 17.05 1.606 7.17 1.175 21.22 4.985 21.22 4.985zM101.64 151.746c-4.101-.741-8.25-1.387-12.416-1.467-4.598-.088-9.186.55-13.753 1.095-4.153.495-8.211 1.858-12.393 1.975-4.36.122-13.019-1.333-13.019-1.333s9.922-1.13 14.769-2.277c4.24-1.005 8.164-3.179 12.441-4.016 5.08-.994 10.368-1.935 15.484-1.153 11.653 1.783 32.87 13.05 32.87 13.05s-15.884-4.409-23.984-5.874zM104.768 207.72c-20.59-1.85-41.424 1.349-62.002-1.388-5.846-.777-11.866-1.315-17.353-4.256-5.235-2.806-10.081-7.249-14.28-12.466-2.667-3.315-6.705-11.687-6.705-11.687s5.314 4.87 8.455 6.561c12.564 6.766 26.508 11.13 40.528 13.79 22.605 4.29 46.433-1.478 68.95 3.254 13.839 2.909 39.596 15.228 39.596 15.228s-37.967-7.31-57.19-9.037zM91.1 244.78c-7.083-.064-14.165-.15-21.247-.172-4.605-.013-9.214-.182-13.814.029-7.352.337-14.65 1.424-21.99 1.975-7.95.598-23.877 1.445-23.877 1.445s17.441-7.476 26.637-9.6c8.272-1.913 16.833-2.568 25.321-2.754 16.219-.354 32.375 2.138 48.566 3.14 20.989 1.3 62.976 3.73 62.976 3.73s-37.86 2.142-56.814 2.46c-8.585.143-17.172-.177-25.759-.253z"/>
        <path fill="#c83737" d="M-.572 157.212s17.89 9.395 27.636 11.59c7.409 1.667 15.164 1.088 22.758 1.042 12.715-.076 25.424-3.423 38.08-2.205 12.99 1.25 37.933 9.676 37.933 9.676s-18.37-2.023-27.596-2.352c-12.792-.456-25.598.383-38.397.527-12.54.142-25.189 1.965-37.624.332-7.812-1.025-22.782-6.302-22.782-6.302zM54.37 182.808c5.383-.566 10.749-1.404 16.157-1.626 7.288-.298 14.586.57 21.877.404 6.539-.15 13.043-1.064 19.58-1.256 12.077-.355 36.246.191 36.246.191s-15.531 4.198-23.432 5.662c-9.667 1.792-19.427 3.365-29.25 3.81-10.41.471-20.849-.403-31.238-1.218-10.374-.813-31.004-3.659-31.004-3.659s14.04-1.57 21.064-2.308zM-.57 225.52s2.917 1.39 4.424 1.797c2.83.763 5.727.99 8.606 1.18 3.347.223 6.706.211 10.052-.04 3.269-.247 9.767-1.436 9.767-1.436s-5.54 7.436-9.038 9.227c-2.609 1.335-5.551.362-8.309.82-2.054.341-4.085.923-6.122 1.435-3.13.787-9.372 2.514-9.372 2.514zM-.503 208.754s16.46-2.486 24.628-1.265c7.702 1.151 15 5.44 22.524 8.03 5.813 2 11.568 4.438 17.475 5.796 13.078 3.008 39.586 5.163 39.586 5.163s-27.39 4.611-41.026 2.863c-7.372-.945-14.37-5.032-21.616-7.162-6.223-1.829-12.407-4.525-18.761-4.82-7.647-.353-22.802 3.703-22.802 3.703z"/>
        <path fill="#c83737" d="M148.522 226.95c-12.978-1.094-25.9-2.844-38.897-3.706-5.974-.397-11.985-.151-17.95-.676-6.84-.601-13.654-1.308-20.402-2.83-5.506-1.24-16.326-5.125-16.326-5.125s11.66-.513 17.492-.615c5.588-.098 11.177-.11 16.764 0 18.307.357 36.844-.961 54.89 2.144 15.151 2.607 44.039 13.708 44.039 13.708s-26.418-1.79-39.61-2.9z"/>
    </g>
</svg>
