<svg xmlns="http://www.w3.org/2000/svg" cursor="default" viewBox="0 0 256 256">
    <g fill-rule="evenodd">
        <path fill="#ff8080" d="M258.214-.423H-.714L-.72 257.786l258.934-.008z"/>
        <path fill="#d35f5f" stroke="#c87137" stroke-width="3.161" d="M4.075 10.249c-.909-1.012-1.759-2.577-1.337-3.877.353-1.09 1.773-1.463 2.801-1.94.76-.35 1.593-.537 2.42-.645 1.263-.166 2.626-.449 3.82 0 .734.275 1.315.914 1.783 1.55.999 1.362 2.697 3.094 2.037 4.654-.551 1.302-2.624.969-3.947 1.421-.993.34-1.948 1.034-2.993.97-1.678-.103-3.452-.872-4.584-2.133zM6.25 27.154c-1.783-1.228-3.878-3.417-3.437-5.558.23-1.123 1.698-1.687 2.801-1.939 1.195-.272 2.408.485 3.63.582 1.269.101 2.587-.324 3.82 0 .211.056.425.16.573.323 1.128 1.252 2.697 3.094 2.037 4.653-.551 1.302-2.623.973-3.948 1.422-1.012.343-1.99.904-3.056.97-.818.05-1.74.014-2.42-.453z"/>
        <path fill="#d35f5f" stroke="#c87137" stroke-width="2.389" d="M25.297 12.855c1.617.356 3.698 1.283 3.894 2.866.103.83-.845 1.614-1.598 2.085-.817.51-1.898.322-2.824.587-.963.275-1.834.923-2.824 1.036a.935.935 0 0 1-.502-.065c-1.14-.55-2.747-1.383-2.639-2.628.09-1.04 1.702-1.377 2.572-2.042.664-.51 1.25-1.158 2.022-1.492.593-.256 1.283-.482 1.899-.347zM16.908 33.385c1.618.355 3.699 1.282 3.895 2.865.102.83-.845 1.614-1.599 2.085-.817.51-1.898.323-2.824.587-.963.276-1.833.924-2.823 1.037-.17.019-.359.024-.503-.066-1.563-.977-3.37-2.79-3.084-4.63.17-1.092 1.512-1.79 2.571-2.043.818-.196 1.63.502 2.469.512.643.007 1.283-.483 1.898-.347z"/>
        <path fill="#d35f5f" stroke="#c87137" stroke-width="3.372" d="M26.03 32.292c-2.084-1.196-4.534-3.326-4.019-5.41.27-1.093 2.153-1.317 3.275-1.888 1.67-.848 3.267-2.257 5.134-2.277 1.335-.014 2.55.866 3.702 1.551.852.507 1.833.996 2.325 1.866.706 1.246 1.24 2.988.6 4.27-.68 1.362-2.527 1.76-3.979 2.16-1.355.374-2.807.249-4.21.168-.951-.054-2.034.015-2.827-.44z"/>
        <path fill="#d35f5f" stroke="#c87137" stroke-width="3.161" d="M34.254 44.847c-.908-1.012-1.758-2.577-1.337-3.877.354-1.09 1.773-1.463 2.802-1.939.759-.351 1.592-.538 2.42-.646 1.262-.166 2.625-.449 3.82 0 .733.275 1.315.914 1.782 1.55.999 1.362 2.698 3.094 2.038 4.654-.552 1.302-2.625.969-3.948 1.421-.992.34-1.947 1.034-2.992.97-1.678-.103-3.453-.872-4.585-2.133zM48.21 34.946c-1.784-1.229-3.88-3.417-3.439-5.558.231-1.123 1.699-1.687 2.802-1.939 1.195-.272 2.408.485 3.629.582 1.27.101 2.587-.324 3.82 0 .212.056.426.16.573.323 1.129 1.252 2.698 3.093 2.037 4.653-.55 1.302-2.623.973-3.947 1.422-1.012.342-1.99.904-3.056.969-.819.05-1.741.015-2.42-.452z"/>
        <path fill="#d35f5f" stroke="#c87137" stroke-width="3.372" d="M17.81 46.254c1.071 1.263 1.29 3.536.467 4.979-.629 1.103-2.26 1.115-3.429 1.58-1.738.694-3.453 1.952-5.315 1.8-1.33-.107-2.297-1.413-3.55-1.882-.893-.334-2.22.13-2.787-.648-1.12-1.54-.83-4.295.419-5.73 1.062-1.22 3.137-.664 4.718-.957 1.209-.225 2.412-.664 3.642-.614 2.002.08 4.526-.07 5.834 1.472z"/>
        <path fill="#d35f5f" stroke="#c87137" stroke-width="2.155" d="M.974 36.954c-.316-1.283.114-2.95 1.108-3.805.38-.326.992-.28 1.48-.183.214.043.425.16.572.323 1.13 1.252 2.484 3.017 2.038 4.653-.273.999-1.49 1.881-2.507 1.787-1.273-.117-2.38-1.516-2.69-2.775zM39.23 21.972c-1.15-.622-2.082-2.062-2.04-3.384.015-.504.46-.935.857-1.237.174-.133.401-.214.62-.216 1.672-.011 3.87.15 4.768 1.582.548.874.378 2.383-.372 3.086-.939.881-2.703.779-3.832.169z"/>
        <path fill="#d35f5f" stroke="#c87137" stroke-width="2.389" d="M33.49 6.39c.412 1.626.53 3.93-.777 4.818-.685.466-1.8-.042-2.553-.515-.816-.512-1.135-1.577-1.783-2.298-.675-.75-1.636-1.25-2.18-2.097a.972.972 0 0 1-.167-.485c-.027-1.28-.015-3.112 1.13-3.572.956-.384 1.976.926 2.952 1.416.746.375 1.58.616 2.22 1.166.492.423 1.001.948 1.158 1.567z"/>
        <path fill="#d35f5f" stroke="#c87137" stroke-width="3.372" d="M64.95 41.254c1.97 1.381 4.222 3.726 3.524 5.755-.365 1.064-2.26 1.115-3.428 1.581-1.739.693-3.454 1.95-5.315 1.8-1.331-.108-2.463-1.095-3.55-1.882-.804-.583-1.737-1.16-2.15-2.07-.593-1.307-1.089-3.174-.22-4.309.986-1.285 3.139-.664 4.72-.957 1.208-.225 2.395-.665 3.641-.614.958.038 2.028.17 2.778.696zM84.315 47.71c-2.084-1.196-4.534-3.326-4.019-5.41.27-1.094 2.097-1.448 3.275-1.888 1.635-.61 3.395-.894 5.134-.998 1.235-.073 2.549-.183 3.702.272a5.214 5.214 0 0 1 2.325 1.865c1.027 1.492 2.512 3.574 1.68 5.185-.745 1.442-3.028 1.146-4.615 1.384-1.534.23-3.106.145-4.653.03-.951-.07-2.035.015-2.829-.44z"/>
        <path fill="#d35f5f" stroke="#c87137" stroke-width="3.161" d="M55.504 22.548c-.908-1.013-1.758-2.577-1.337-3.878.354-1.09 1.773-1.463 2.802-1.939.759-.35 1.592-.537 2.42-.646 1.262-.166 2.625-.448 3.82 0 .733.276 1.315.914 1.782 1.551.999 1.361 2.698 3.094 2.038 4.653-.552 1.302-2.625.97-3.948 1.422-.992.34-1.947 1.033-2.992.97-1.678-.104-3.453-.872-4.585-2.133zM70.36 12.646c-1.784-1.228-3.879-3.416-3.438-5.558.23-1.122 1.698-1.687 2.801-1.938 1.195-.273 2.408.484 3.63.581 1.269.101 2.587-.324 3.82 0 .211.056.425.16.572.323 1.13 1.253 2.698 3.094 2.038 4.653-.551 1.302-2.623.974-3.948 1.422-1.012.343-1.99.904-3.056.97-.818.05-1.74.014-2.42-.453z"/>
        <path fill="#d35f5f" stroke="#c87137" stroke-width="3.372" d="M43.652 10.096c-1.294-1.007-3.693-1.85-3.479-3.491.165-1.263 2.153-1.317 3.275-1.888 1.67-.848 3.267-2.257 5.134-2.277 1.335-.014 2.55.866 3.702 1.551.853.507 1.833.996 2.326 1.866.706 1.246 1.364 3.06.599 4.27-.867 1.37-3.05 1.025-4.615 1.385-1.176.27-2.387.803-3.573.578-1.278-.243-2.337-1.192-3.369-1.994z"/>
        <path fill="#d35f5f" stroke="#c87137" stroke-width="2.389" d="M68.934 30.878c1.617.355 3.699 1.283 3.894 2.866.103.83-.844 1.614-1.598 2.085-.817.51-1.898.322-2.824.586-.963.276-1.834.924-2.824 1.037a.935.935 0 0 1-.502-.066c-1.139-.55-2.747-1.382-2.639-2.627.09-1.04 1.702-1.377 2.572-2.043.665-.509 1.251-1.158 2.023-1.491.592-.257 1.283-.483 1.898-.347zM82.5 15.326c1.617.356 3.698 1.283 3.894 2.866.103.83-.845 1.614-1.599 2.085-.817.51-1.898.322-2.824.587-.963.275-1.833.923-2.823 1.036-.17.02-.359.024-.502-.066-1.564-.977-3.37-2.79-3.085-4.63.17-1.092 1.512-1.79 2.572-2.043.817-.195 1.628.502 2.468.512.643.007 1.283-.482 1.899-.347z"/>
        <path fill="#d35f5f" stroke="#c87137" stroke-width="2.155" d="M75.578 30.113c-1.15-.622-2.083-2.062-2.041-3.384.016-.504.46-.935.857-1.237.175-.133.402-.214.62-.216 1.672-.011 3.871.15 4.769 1.582.548.874.378 2.383-.372 3.086-.94.881-2.704.779-3.833.169z"/>
        <path fill="#d35f5f" stroke="#c87137" stroke-width="3.372" d="M92.857 29.33c-2.13-.686-5.602-.803-6-3.034-.458-2.567 2.986-4.503 5.256-5.726 1.53-.824 3.414-1.022 5.134-.815 1.325.16 2.55.866 3.702 1.55.852.508 1.833.997 2.325 1.866.706 1.247 1.365 3.061.599 4.271-.867 1.37-3.066.948-4.615 1.384-1.183.334-2.327.88-3.572.944-.957.049-1.92-.148-2.829-.44z"/>
        <path fill="#d35f5f" stroke="#c87137" stroke-width="2.155" d="M103.025 37.488c-1.15-.621-2.082-2.062-2.04-3.384.015-.504.459-.934.856-1.237.175-.133.402-.214.62-.215 1.673-.012 3.871.15 4.769 1.581.548.875.378 2.383-.372 3.087-.939.88-2.704.778-3.833.168z"/>
        <path fill="#d35f5f" stroke="#c87137" stroke-width="3.372" d="M91.219 13.46c-2.085-1.195-4.534-3.325-4.02-5.41.27-1.092 2.153-1.316 3.275-1.887 1.67-.848 3.267-2.257 5.134-2.277 1.335-.014 2.55.866 3.702 1.551.853.507 1.833.996 2.326 1.866.706 1.246 1.24 2.988.599 4.27-.68 1.362-2.527 1.76-3.978 2.16-1.356.374-2.808.249-4.21.168-.952-.054-2.035.015-2.828-.44z"/>
        <path fill="#d35f5f" stroke="#c87137" stroke-width="2.389" d="M37.312 55.044c1.617.356 3.699 1.283 3.894 2.866.103.83-.844 1.614-1.598 2.085-.817.51-1.898.323-2.824.587-.963.276-1.834.924-2.824 1.036a.935.935 0 0 1-.502-.065c-1.14-.55-2.747-1.383-2.639-2.627.09-1.04 1.702-1.377 2.572-2.043.665-.509 1.251-1.158 2.023-1.491.592-.257 1.283-.483 1.898-.348z"/>
        <path fill="#d35f5f" stroke="#c87137" stroke-width="2.155" d="M24.584 50.671c-1.15-.62-2.082-2.062-2.04-3.384.015-.503.46-.934.856-1.237.175-.133.402-.213.62-.215 1.673-.012 3.871.15 4.769 1.582.548.874.378 2.382-.372 3.086-.939.881-2.704.778-3.833.168z"/>
        <path fill="#d35f5f" stroke="#c87137" stroke-width="3.372" d="M16.051 63.653c1.664.301 3.46 1.744 3.78 3.428.45 2.372-1.074 5.357-3.175 6.492-1.729.934-3.957-.184-5.824-.785-1.273-.409-2.463-1.095-3.55-1.882-.804-.583-1.737-1.16-2.15-2.07-.593-1.306-1.089-3.173-.219-4.308.985-1.285 3.117-1.052 4.719-.958 1.273.075 2.366 1.236 3.641 1.196.996-.032 1.798-1.291 2.778-1.113zM46.57 59.185c.308-2.41 1.333-5.514 3.43-5.813 1.099-.157 2.01 1.53 2.953 2.371 1.402 1.252 3.289 2.225 4.008 3.974.514 1.25.168 2.724-.025 4.065-.143.992-.22 2.098-.83 2.888-.873 1.132-2.263 2.289-3.674 2.168-1.499-.128-2.556-1.716-3.467-2.93-.85-1.135-1.281-2.548-1.735-3.897-.308-.916-.778-1.909-.66-2.826zM31.127 76.18c-2.085-1.195-4.39-3.183-4.02-5.41.339-2.03 3.076-3 5.058-3.438 1.106-.244 2.228.42 3.352.553 1.228.146 2.548-.183 3.702.272a5.214 5.214 0 0 1 2.325 1.865c1.026 1.492 2.512 3.574 1.68 5.185-.745 1.442-3.029 1.146-4.615 1.384-1.535.23-3.107.145-4.654.03-.95-.07-2.035.014-2.828-.44z"/>
        <path fill="#d35f5f" stroke="#c87137" stroke-width="2.155" d="M21.46 58.963c-.315-1.284.114-2.951 1.109-3.806.379-.325.991-.279 1.479-.182.214.042.425.16.573.323 1.129 1.252 2.483 3.017 2.037 4.653-.272.999-1.49 1.88-2.507 1.787-1.273-.117-2.38-1.516-2.69-2.775z"/>
        <path fill="#d35f5f" stroke="#c87137" stroke-width="3.372" d="M67.465 62.145c-1.295-1.007-3.694-1.85-3.48-3.491.165-1.263 2.153-1.317 3.275-1.887 1.67-.849 3.267-2.258 5.134-2.278 1.335-.013 2.55.866 3.702 1.551.853.507 1.833.996 2.326 1.866.706 1.247 1.364 3.061.599 4.27-.867 1.37-3.05 1.025-4.615 1.385-1.176.27-2.387.803-3.573.578-1.278-.243-2.337-1.192-3.368-1.994zM88.175 73.079c-2.085-1.196-4.534-3.326-4.02-5.41.27-1.094 2.098-1.448 3.276-1.888 1.635-.61 3.394-.894 5.134-.998 1.235-.073 2.548-.183 3.702.272a5.214 5.214 0 0 1 2.325 1.865c1.026 1.492 2.512 3.574 1.68 5.185-.745 1.442-3.029 1.146-4.615 1.384-1.535.23-3.107.145-4.654.03-.95-.07-2.035.015-2.828-.44z"/>
        <path fill="#d35f5f" stroke="#c87137" stroke-width="2.389" d="M61.233 73.728c1.617.356 3.698 1.283 3.894 2.866.103.83-.845 1.614-1.598 2.085-.817.51-1.898.322-2.824.587-.963.275-1.834.924-2.824 1.036-.17.02-.359.025-.502-.065-1.563-.977-3.37-2.79-3.085-4.63.17-1.092 1.512-1.79 2.572-2.043.817-.196 1.629.502 2.468.511.643.008 1.283-.482 1.899-.347z"/>
        <path fill="#d35f5f" stroke="#c87137" stroke-width="3.161" d="M220.09 69.443c.944.977 1.85 2.509 1.477 3.824-.313 1.102-1.719 1.528-2.73 2.043-.745.379-1.57.597-2.393.736-1.256.213-2.608.547-3.818.143-.744-.248-1.348-.864-1.838-1.483-1.048-1.323-2.808-2.99-2.205-4.573.503-1.322 2.587-1.067 3.893-1.569.98-.376 1.908-1.106 2.955-1.08 1.68.04 3.482.74 4.659 1.959zM212.716 49.529c1.827 1.16 4 3.269 3.638 5.425-.19 1.13-1.636 1.75-2.729 2.042-1.184.317-2.424-.393-3.648-.445-1.272-.053-2.574.421-3.817.143a1.171 1.171 0 0 1-.585-.301c-1.173-1.21-2.808-2.99-2.205-4.574.504-1.321 2.586-1.07 3.893-1.568 1-.38 1.957-.978 3.02-1.083.815-.081 1.738-.08 2.433.361z"/>
        <path fill="#d35f5f" stroke="#c87137" stroke-width="2.389" d="M194.203 64.531c-1.629-.294-3.742-1.143-3.996-2.718-.132-.825.786-1.644 1.522-2.143.798-.54 1.885-.393 2.8-.692.953-.311 1.8-.992 2.785-1.142a.935.935 0 0 1 .504.047c1.158.507 2.795 1.279 2.733 2.527-.053 1.042-1.65 1.44-2.496 2.137-.646.534-1.208 1.204-1.967 1.566-.583.279-1.265.53-1.885.418zM201.84 43.702c-1.63-.295-3.743-1.144-3.996-2.718-.133-.826.785-1.645 1.521-2.144.798-.54 1.885-.393 2.801-.692.952-.311 1.799-.992 2.784-1.141.169-.026.357-.038.504.046 1.598.918 3.47 2.662 3.25 4.512-.129 1.097-1.445 1.845-2.495 2.138-.81.226-1.645-.44-2.485-.42-.643.017-1.265.53-1.884.419z"/>
        <path fill="#d35f5f" stroke="#c87137" stroke-width="3.372" d="M184.104 31.177c2.127 1.116 4.652 3.153 4.214 5.256-.23 1.102-2.104 1.396-3.205 2.008-1.638.911-3.182 2.379-5.047 2.468-1.334.064-2.58-.77-3.756-1.41-.87-.476-1.868-.928-2.392-1.778-.75-1.22-1.347-2.94-.754-4.246.63-1.386 2.462-1.852 3.897-2.307 1.34-.424 2.797-.353 4.2-.325.954.019 2.034-.091 2.843.334z"/>
        <path fill="#d35f5f" stroke="#c87137" stroke-width="3.161" d="M197.841 46.08c.945.978 1.851 2.51 1.477 3.825-.313 1.102-1.718 1.528-2.729 2.042-.745.38-1.572.597-2.394.737-1.256.213-2.608.546-3.818.143-.743-.248-1.347-.864-1.838-1.483-1.047-1.323-2.808-2.99-2.205-4.574.504-1.322 2.587-1.067 3.893-1.569.98-.376 1.909-1.105 2.955-1.08 1.68.04 3.482.741 4.66 1.959zM174.833 43.573c1.826 1.16 4 3.269 3.638 5.425-.19 1.13-1.637 1.75-2.73 2.042-1.184.317-2.424-.394-3.647-.445-1.273-.053-2.574.421-3.818.143a1.171 1.171 0 0 1-.584-.301c-1.174-1.21-2.809-2.99-2.206-4.574.504-1.321 2.586-1.07 3.894-1.568.999-.38 1.956-.978 3.018-1.083.816-.081 1.74-.08 2.435.36z"/>
        <path fill="#d35f5f" stroke="#c87137" stroke-width="3.372" d="M200.471 30.875c-1.117-1.222-1.418-3.485-.648-4.958.588-1.126 2.218-1.2 3.369-1.709 1.712-.757 3.38-2.078 5.245-1.997 1.334.058 2.347 1.326 3.616 1.748.906.3 2.215-.214 2.81.543 1.175 1.498.986 4.26-.21 5.742-1.017 1.259-3.112.781-4.681 1.134-1.2.27-2.386.753-3.617.75-2.004-.006-4.52.238-5.884-1.253z"/>
        <path fill="#d35f5f" stroke="#c87137" stroke-width="2.155" d="M217.633 39.538c.362 1.27-.006 2.953-.97 3.844-.366.34-.98.316-1.47.238a1.067 1.067 0 0 1-.585-.302c-1.173-1.209-2.592-2.922-2.205-4.573.236-1.008 1.42-1.935 2.44-1.88 1.277.07 2.434 1.426 2.79 2.673zM179.947 55.943c1.173.578 2.157 1.983 2.163 3.305.003.504-.425.951-.811 1.269-.17.14-.394.228-.612.238-1.67.074-3.874-.004-4.823-1.402-.58-.853-.464-2.367.26-3.098.906-.916 2.673-.879 3.823-.312z"/>
        <path fill="#d35f5f" stroke="#c87137" stroke-width="2.389" d="M186.251 71.3c-.471-1.61-.672-3.909.601-4.845.668-.49 1.8-.025 2.57.42.834.48 1.192 1.533 1.866 2.23.701.723 1.68 1.186 2.254 2.013a.97.97 0 0 1 .185.478c.073 1.278.128 3.11-1 3.612-.94.42-2.007-.851-3.001-1.305-.76-.346-1.602-.556-2.262-1.082-.506-.404-1.034-.909-1.213-1.522z"/>
        <path fill="#d35f5f" stroke="#c87137" stroke-width="3.372" d="M157.11 39.705c-2.02-1.306-4.355-3.565-3.731-5.619.326-1.077 2.218-1.199 3.369-1.708 1.712-.757 3.38-2.079 5.245-1.998 1.334.058 2.502 1.002 3.616 1.748.825.553 1.778 1.094 2.225 1.988.64 1.283 1.203 3.13.375 4.298-.938 1.32-3.112.78-4.68 1.133-1.2.27-2.37.754-3.618.75-.958-.002-2.033-.095-2.801-.592zM131.087 23.503c2.127 1.117 4.652 3.154 4.213 5.256-.23 1.102-2.043 1.525-3.204 2.009-1.612.671-3.36 1.02-5.094 1.189-1.232.12-2.54.279-3.71-.133a5.206 5.206 0 0 1-2.39-1.777c-1.081-1.452-2.641-3.477-1.868-5.118.692-1.469 2.984-1.259 4.561-1.556 1.525-.288 3.1-.26 4.65-.204.953.035 2.033-.09 2.842.334z"/>
        <path fill="#d35f5f" stroke="#c87137" stroke-width="3.161" d="M160.862 53.65c.945.978 1.852 2.51 1.478 3.826-.314 1.102-1.72 1.528-2.73 2.042-.745.38-1.571.597-2.394.736-1.256.213-2.607.547-3.817.143-.744-.247-1.348-.864-1.838-1.483-1.048-1.322-2.808-2.99-2.205-4.573.503-1.322 2.587-1.067 3.893-1.569.979-.376 1.908-1.105 2.955-1.08 1.68.04 3.481.74 4.658 1.959zM149.179 66.429c1.827 1.16 4 3.268 3.638 5.425-.19 1.13-1.637 1.75-2.73 2.042-1.184.317-2.424-.394-3.647-.445-1.273-.054-2.574.42-3.818.143a1.171 1.171 0 0 1-.584-.302c-1.174-1.209-2.808-2.99-2.205-4.573.503-1.322 2.585-1.07 3.893-1.569.999-.38 1.956-.978 3.018-1.083.817-.08 1.74-.08 2.435.362z"/>
        <path fill="#d35f5f" stroke="#c87137" stroke-width="3.372" d="M169.339 69.01c1.33.958 3.758 1.711 3.604 3.359-.12 1.268-2.104 1.396-3.205 2.009-1.638.91-3.182 2.378-5.047 2.468-1.334.064-2.58-.77-3.756-1.412-.87-.474-1.868-.926-2.392-1.777-.75-1.22-1.475-3.008-.753-4.245.816-1.402 3.01-1.138 4.56-1.556 1.166-.315 2.357-.892 3.55-.712 1.286.195 2.379 1.103 3.439 1.867z"/>
        <path fill="#d35f5f" stroke="#c87137" stroke-width="2.389" d="M142.555 44.796c-1.63-.295-3.743-1.144-3.996-2.718-.133-.826.785-1.645 1.521-2.144.798-.54 1.885-.393 2.801-.692.952-.311 1.799-.992 2.784-1.141a.935.935 0 0 1 .504.046c1.159.507 2.796 1.279 2.733 2.527-.052 1.042-1.65 1.44-2.496 2.137-.646.534-1.208 1.204-1.967 1.567-.583.278-1.264.53-1.884.418zM136.95 64.206c-1.63-.295-3.743-1.144-3.996-2.719-.133-.825.785-1.644 1.521-2.143.798-.54 1.885-.393 2.801-.692.952-.311 1.799-.992 2.784-1.142.17-.025.358-.037.504.047 1.598.918 3.47 2.662 3.251 4.512-.13 1.097-1.446 1.845-2.495 2.138-.81.225-1.646-.441-2.486-.42-.642.017-1.264.53-1.884.419z"/>
        <path fill="#d35f5f" stroke="#c87137" stroke-width="2.155" d="M143.329 49.17c1.172.577 2.156 1.982 2.163 3.305.003.504-.426.95-.812 1.268-.17.14-.394.229-.612.238-1.67.075-3.873-.004-4.823-1.401-.58-.854-.464-2.368.26-3.099.906-.915 2.674-.879 3.824-.312zM98.06 53.426c1.171.577 2.155 1.982 2.162 3.305.003.504-.426.95-.812 1.268-.17.14-.393.229-.611.239-1.671.074-3.874-.005-4.823-1.402-.58-.854-.465-2.367.26-3.099.905-.915 2.673-.879 3.823-.311z"/>
        <path fill="#d35f5f" stroke="#c87137" stroke-width="3.372" d="M128.304 66.396c2.127 1.116 4.652 3.153 4.214 5.256-.23 1.102-2.104 1.396-3.205 2.008-1.637.911-3.182 2.38-5.047 2.469-1.334.063-2.58-.77-3.756-1.412-.87-.475-1.868-.926-2.391-1.777-.751-1.22-1.348-2.94-.754-4.245.63-1.386 2.46-1.853 3.896-2.308 1.341-.424 2.797-.353 4.2-.325.954.019 2.034-.091 2.843.334zM115.453 44.885c-1.117-1.222-1.418-3.485-.648-4.958.588-1.126 2.218-1.2 3.369-1.708 1.712-.758 3.38-2.08 5.245-1.998 1.334.058 2.347 1.326 3.616 1.748.906.3 2.215-.213 2.81.543 1.175 1.498.986 4.261-.21 5.742-1.017 1.26-3.112.781-4.68 1.134-1.2.27-2.387.753-3.618.75-2.004-.006-4.52.238-5.884-1.253z"/>
        <path fill="#d35f5f" stroke="#c87137" stroke-width="2.389" d="M180.662 22.821c-1.629-.295-3.743-1.143-3.996-2.718-.133-.826.786-1.645 1.522-2.144.798-.54 1.885-.393 2.8-.692.953-.31 1.8-.991 2.784-1.141a.935.935 0 0 1 .505.046c1.158.507 2.795 1.28 2.732 2.527-.052 1.042-1.65 1.44-2.495 2.138-.646.533-1.209 1.204-1.967 1.566-.583.278-1.265.53-1.885.418z"/>
        <path fill="#d35f5f" stroke="#c87137" stroke-width="2.155" d="M193.54 26.714c1.172.578 2.156 1.983 2.163 3.305.003.505-.426.951-.812 1.269-.17.14-.393.228-.612.238-1.67.075-3.873-.004-4.822-1.402-.58-.853-.465-2.367.26-3.098.905-.915 2.673-.879 3.823-.312z"/>
        <path fill="#d35f5f" stroke="#c87137" stroke-width="3.372" d="M201.595 13.422c-1.673-.239-3.52-1.614-3.9-3.284-.537-2.354.876-5.394 2.935-6.607 1.694-.998 3.961.036 5.849.566 1.286.361 2.501 1.002 3.615 1.748.825.552 1.779 1.094 2.225 1.988.64 1.283 1.203 3.13.375 4.297-.937 1.322-3.077 1.168-4.68 1.134-1.276-.027-2.41-1.147-3.683-1.058-.994.07-1.75 1.357-2.736 1.216zM171.26 19.03c-.22 2.42-1.131 5.56-3.216 5.938-1.093.197-2.065-1.454-3.038-2.26-1.447-1.198-3.367-2.099-4.15-3.82-.559-1.23-.266-2.716-.122-4.063.106-.997.144-2.105.724-2.917.831-1.165 2.178-2.372 3.593-2.305 1.502.072 2.616 1.62 3.57 2.799.891 1.102 1.374 2.497 1.876 3.829.341.904.847 1.878.763 2.799zM186.074 1.468c2.127 1.116 4.503 3.016 4.213 5.256-.263 2.042-2.963 3.113-4.929 3.625-1.096.286-2.24-.336-3.369-.427-1.233-.1-2.54.278-3.71-.133a5.206 5.206 0 0 1-2.39-1.777c-1.08-1.452-2.64-3.477-1.868-5.118.692-1.47 2.985-1.259 4.562-1.556 1.525-.288 3.099-.261 4.649-.204.953.034 2.033-.091 2.842.334z"/>
        <path fill="#d35f5f" stroke="#c87137" stroke-width="2.155" d="M196.36 18.312c.363 1.27-.006 2.953-.969 3.844-.367.34-.98.316-1.471.238a1.067 1.067 0 0 1-.585-.302c-1.173-1.209-2.591-2.922-2.205-4.573.236-1.008 1.42-1.936 2.44-1.88 1.277.07 2.434 1.426 2.79 2.673z"/>
        <path fill="#d35f5f" stroke="#c87137" stroke-width="3.372" d="M150.78 16.836c1.331.958 3.759 1.71 3.605 3.358-.12 1.269-2.104 1.397-3.205 2.009-1.638.91-3.182 2.379-5.047 2.468-1.334.064-2.58-.77-3.756-1.411-.87-.475-1.868-.927-2.392-1.777-.75-1.22-1.475-3.008-.754-4.246.817-1.401 3.011-1.138 4.562-1.556 1.165-.314 2.356-.892 3.549-.711 1.286.194 2.379 1.103 3.439 1.866zM125.125 7.374c2.127 1.117 4.652 3.154 4.213 5.256-.23 1.103-2.043 1.525-3.204 2.009-1.612.672-3.36 1.02-5.094 1.19-1.232.119-2.54.278-3.71-.133a5.206 5.206 0 0 1-2.391-1.778c-1.08-1.452-2.64-3.477-1.867-5.118.692-1.469 2.984-1.259 4.561-1.556 1.525-.288 3.099-.26 4.65-.204.952.035 2.032-.09 2.842.334z"/>
        <path fill="#d35f5f" stroke="#c87137" stroke-width="2.389" d="M144.521 9.618c-1.629-.295-3.742-1.143-3.996-2.718-.132-.826.786-1.645 1.522-2.143.798-.541 1.885-.394 2.8-.693.953-.31 1.8-.991 2.785-1.141.169-.026.357-.038.504.046 1.598.918 3.47 2.663 3.25 4.513-.129 1.096-1.445 1.844-2.495 2.137-.81.226-1.646-.44-2.485-.419-.643.017-1.265.53-1.885.418z"/>
        <path fill="#d35f5f" stroke="#c87137" stroke-width="3.161" d="M225.864 10.29c-.908-1.012-1.758-2.577-1.337-3.877.354-1.09 1.773-1.463 2.802-1.94.758-.35 1.592-.537 2.42-.645 1.262-.166 2.625-.449 3.82 0 .733.275 1.315.913 1.782 1.55.999 1.362 2.698 3.094 2.038 4.653-.552 1.302-2.625.97-3.948 1.422-.992.34-1.947 1.034-2.992.97-1.678-.104-3.453-.872-4.585-2.133zM228.04 27.195c-1.783-1.228-3.878-3.417-3.438-5.558.231-1.123 1.699-1.687 2.801-1.939 1.195-.272 2.409.485 3.63.582 1.27.101 2.587-.324 3.82 0 .211.056.425.16.573.323 1.129 1.252 2.697 3.094 2.037 4.653-.55 1.302-2.623.973-3.947 1.422-1.013.342-1.991.904-3.056.969-.819.05-1.741.015-2.42-.452z"/>
        <path fill="#d35f5f" stroke="#c87137" stroke-width="2.389" d="M247.086 12.896c1.617.356 3.699 1.283 3.894 2.866.103.83-.844 1.614-1.598 2.085-.817.51-1.898.322-2.824.587-.963.275-1.834.923-2.824 1.036a.935.935 0 0 1-.502-.065c-1.139-.55-2.747-1.383-2.639-2.628.09-1.04 1.702-1.377 2.572-2.042.665-.51 1.251-1.158 2.023-1.492.592-.256 1.283-.482 1.898-.347zM238.698 33.425c1.617.356 3.698 1.283 3.894 2.866.103.83-.845 1.614-1.599 2.085-.816.51-1.897.322-2.823.587-.963.275-1.834.924-2.824 1.036-.17.02-.359.025-.502-.065-1.563-.977-3.37-2.79-3.085-4.63.17-1.092 1.512-1.79 2.572-2.043.817-.196 1.629.502 2.468.512.643.007 1.283-.483 1.899-.348z"/>
        <path fill="#d35f5f" stroke="#c87137" stroke-width="3.372" d="M247.82 32.333c-2.085-1.196-4.534-3.326-4.02-5.41.27-1.094 2.153-1.317 3.276-1.888 1.67-.848 3.266-2.257 5.134-2.277 1.334-.014 2.55.866 3.701 1.551.853.507 1.833.996 2.326 1.866.706 1.246 1.24 2.988.599 4.27-.68 1.362-2.527 1.76-3.978 2.16-1.355.374-2.808.249-4.21.168-.952-.054-2.035.015-2.828-.44zM239.598 46.294c1.073 1.264 1.291 3.537.468 4.98-.628 1.103-2.26 1.115-3.428 1.58-1.739.694-3.454 1.952-5.315 1.8-1.33-.107-2.297-1.413-3.55-1.882-.894-.334-2.221.13-2.787-.648-1.12-1.541-.832-4.295.418-5.73 1.062-1.22 3.138-.664 4.719-.958 1.208-.224 2.412-.663 3.641-.614 2.003.08 4.527-.069 5.834 1.472z"/>
        <path fill="#d35f5f" stroke="#c87137" stroke-width="2.155" d="M222.764 36.995c-.316-1.283.113-2.95 1.108-3.805.379-.326.991-.28 1.479-.183.214.042.425.16.573.323 1.129 1.252 2.483 3.017 2.037 4.653-.272.999-1.49 1.88-2.507 1.787-1.273-.117-2.38-1.516-2.69-2.775z"/>
        <path fill="#d35f5f" stroke="#c87137" stroke-width="2.389" d="M255.28 6.43c.411 1.627.529 3.931-.778 4.819-.684.465-1.8-.042-2.552-.515-.816-.512-1.135-1.577-1.784-2.298-.674-.75-1.636-1.25-2.179-2.097a.972.972 0 0 1-.168-.485c-.027-1.28-.014-3.112 1.13-3.572.956-.385 1.976.926 2.952 1.416.747.375 1.581.616 2.221 1.166.492.423 1 .948 1.157 1.567zM247.673 56.514c1.617.356 3.698 1.283 3.894 2.866.103.83-.845 1.614-1.598 2.085-.817.51-1.898.322-2.824.587-.963.275-1.834.923-2.824 1.036a.935.935 0 0 1-.502-.065c-1.14-.55-2.747-1.383-2.639-2.628.09-1.04 1.702-1.377 2.571-2.042.665-.51 1.252-1.158 2.023-1.492.593-.256 1.283-.482 1.899-.347z"/>
        <path fill="#d35f5f" stroke="#c87137" stroke-width="2.155" d="M246.374 50.712c-1.15-.621-2.083-2.062-2.041-3.384.015-.504.46-.934.857-1.237.174-.133.401-.214.62-.215 1.672-.012 3.87.15 4.768 1.581.548.875.378 2.383-.372 3.087-.939.88-2.703.778-3.832.168z"/>
        <path fill="#d35f5f" stroke="#c87137" stroke-width="3.372" d="M237.84 63.694c1.664.301 3.46 1.744 3.78 3.428.45 2.372-1.073 5.357-3.175 6.492-1.728.934-3.957-.185-5.824-.785-1.272-.409-2.463-1.095-3.55-1.882-.803-.583-1.737-1.16-2.15-2.07-.593-1.306-1.088-3.173-.219-4.308.985-1.286 3.118-1.052 4.719-.958 1.274.075 2.367 1.236 3.642 1.195.995-.031 1.798-1.29 2.778-1.112zM249.248 113.087c2.076 1.212 4.51 3.36 3.979 5.441-.279 1.091-2.108 1.43-3.29 1.862-1.639.599-3.4.868-5.14.958-1.236.064-2.55.164-3.7-.3a5.216 5.216 0 0 1-2.312-1.883c-1.015-1.499-2.485-3.593-1.64-5.197.755-1.436 3.036-1.123 4.624-1.349 1.536-.218 3.108-.12 4.654.006.95.078 2.035.001 2.825.462z"/>
        <path fill="#d35f5f" stroke="#c87137" stroke-width="3.161" d="M150.95 90.505c-.938-.984-1.833-2.523-1.45-3.835.322-1.1 1.73-1.515 2.745-2.022.748-.373 1.576-.585 2.4-.718 1.257-.203 2.611-.526 3.818-.114.742.254 1.341.875 1.827 1.497 1.038 1.331 2.786 3.012 2.171 4.59-.513 1.319-2.595 1.048-3.905 1.54-.982.368-1.916 1.09-2.963 1.057-1.68-.053-3.476-.768-4.644-1.995zM153.613 107.338c-1.818-1.174-3.976-3.3-3.597-5.453.198-1.13 1.649-1.737 2.744-2.021 1.186-.308 2.421.412 3.644.473 1.272.063 2.577-.401 3.819-.114.213.05.43.147.582.306 1.165 1.218 2.786 3.012 2.171 4.59-.513 1.318-2.594 1.051-3.904 1.54-1.003.372-1.964.962-3.027 1.06-.817.074-1.74.066-2.432-.381z"/>
        <path fill="#d35f5f" stroke="#c87137" stroke-width="2.389" d="M172.237 92.478c1.627.307 3.734 1.172 3.976 2.749.127.826-.798 1.638-1.538 2.131-.801.535-1.887.379-2.805.671-.955.304-1.806.978-2.793 1.12a.935.935 0 0 1-.504-.05c-1.154-.516-2.785-1.3-2.713-2.548.06-1.042 1.66-1.427 2.511-2.118.65-.529 1.217-1.195 1.979-1.552.585-.273 1.268-.52 1.887-.403zM164.446 113.249c1.627.307 3.734 1.172 3.976 2.748.127.827-.798 1.639-1.538 2.132-.801.534-1.887.378-2.805.67-.955.304-1.806.978-2.793 1.12-.169.025-.357.036-.504-.05-1.59-.93-3.449-2.688-3.217-4.537.138-1.096 1.46-1.833 2.512-2.118.811-.22 1.642.453 2.482.438.643-.012 1.268-.52 1.887-.403z"/>
        <path fill="#d35f5f" stroke="#c87137" stroke-width="3.372" d="M178.874 125.91c-2.119-1.134-4.629-3.19-4.174-5.289.238-1.1 2.113-1.38 3.219-1.984 1.644-.898 3.2-2.354 5.065-2.43 1.334-.053 2.575.79 3.746 1.44.866.482 1.86.942 2.378 1.796.742 1.225 1.325 2.95.722 4.251-.64 1.382-2.475 1.834-3.914 2.278-1.343.413-2.799.332-4.202.293-.954-.026-2.034.075-2.84-.356z"/>
        <path fill="#d35f5f" stroke="#c87137" stroke-width="3.161" d="M168.462 110.9c-.937-.984-1.832-2.522-1.448-3.835.321-1.1 1.73-1.515 2.744-2.021.748-.374 1.576-.585 2.4-.718 1.257-.204 2.611-.527 3.818-.114.742.253 1.341.874 1.827 1.497 1.038 1.33 2.786 3.012 2.171 4.59-.513 1.318-2.595 1.047-3.905 1.539-.982.369-1.916 1.091-2.963 1.058-1.68-.053-3.476-.768-4.644-1.995zM191.452 113.584c-1.819-1.174-3.976-3.299-3.598-5.452.199-1.13 1.65-1.738 2.744-2.022 1.187-.308 2.422.413 3.645.474 1.272.063 2.577-.402 3.818-.114.213.049.43.146.582.306 1.165 1.218 2.786 3.011 2.172 4.59-.514 1.318-2.594 1.05-3.905 1.539-1.002.372-1.964.962-3.027 1.06-.817.074-1.74.066-2.431-.38z"/>
        <path fill="#d35f5f" stroke="#c87137" stroke-width="3.372" d="M163.576 124.657c1.108 1.23 1.393 3.496.612 4.963-.597 1.12-2.179 1.31-3.382 1.682-1.61.498-3.355.367-5.008.695-1.302.259-2.551 1.256-3.855 1.002-1.142-.222-2.304-1.029-2.805-2.08-.823-1.73-.955-4.268.253-5.74 1.026-1.251 3.117-.757 4.688-1.098 1.202-.26 2.392-.735 3.623-.722 2.004.02 4.522-.204 5.874 1.298z"/>
        <path fill="#d35f5f" stroke="#c87137" stroke-width="2.155" d="M148.623 117.291c-.353-1.273.027-2.953.997-3.836.37-.337.983-.31 1.473-.227.216.036.43.147.582.306 1.165 1.218 2.57 2.942 2.171 4.59-.243 1.007-1.434 1.925-2.454 1.861-1.276-.08-2.423-1.444-2.77-2.694zM186.429 101.175c-1.168-.586-2.141-1.999-2.138-3.321 0-.504.432-.948.82-1.262.172-.139.396-.226.614-.234 1.672-.062 3.874.034 4.813 1.439.573.857.446 2.37-.283 3.096-.913.909-2.68.858-3.826.282z"/>
        <path fill="#d35f5f" stroke="#c87137" stroke-width="2.389" d="M180.24 85.771c.459 1.614.643 3.913-.637 4.84-.671.485-1.8.011-2.567-.439-.83-.488-1.18-1.543-1.85-2.244-.695-.73-1.67-1.2-2.238-2.031a.97.97 0 0 1-.182-.48c-.063-1.278-.104-3.11 1.027-3.604.944-.413 2.001.867 2.991 1.328.757.352 1.598.568 2.254 1.099.504.408 1.027.917 1.202 1.531z"/>
        <path fill="#d35f5f" stroke="#c87137" stroke-width="3.372" d="M209.145 117.588c2.01 1.321 4.328 3.598 3.69 5.647-.336 1.075-2.228 1.182-3.382 1.683-1.718.744-3.396 2.052-5.26 1.957-1.334-.068-2.495-1.02-3.603-1.776-.82-.558-1.77-1.107-2.21-2.005-.63-1.288-1.18-3.14-.343-4.3.947-1.314 3.117-.757 4.689-1.097 1.201-.26 2.375-.736 3.622-.723.958.01 2.033.11 2.797.614zM233.618 135.418c-2.118-1.133-4.628-3.19-4.174-5.288.238-1.1 2.054-1.51 3.219-1.984 1.617-.66 3.367-.995 5.103-1.15 1.232-.11 2.542-.26 3.708.16.931.336 1.789.991 2.378 1.796 1.07 1.46 2.615 3.497 1.83 5.132-.704 1.464-2.994 1.236-4.574 1.521-1.527.276-3.1.237-4.65.169-.953-.042-2.034.075-2.84-.356z"/>
        <path fill="#d35f5f" stroke="#c87137" stroke-width="3.161" d="M205.496 103.614c-.937-.985-1.832-2.523-1.448-3.836.321-1.1 1.73-1.515 2.744-2.021.748-.374 1.576-.585 2.4-.718 1.257-.204 2.611-.527 3.818-.114.742.253 1.341.874 1.827 1.497 1.038 1.33 2.786 3.012 2.171 4.59-.513 1.318-2.595 1.047-3.905 1.539-.982.369-1.916 1.091-2.963 1.058-1.68-.053-3.476-.768-4.644-1.995zM217.275 90.926c-1.818-1.174-3.976-3.3-3.598-5.453.199-1.129 1.65-1.737 2.745-2.021 1.186-.308 2.42.412 3.644.473 1.272.063 2.577-.4 3.819-.114.213.05.43.147.582.306 1.164 1.218 2.786 3.012 2.17 4.59-.512 1.318-2.593 1.052-3.904 1.54-1.002.372-1.964.962-3.027 1.06-.816.074-1.74.066-2.431-.38z"/>
        <path fill="#d35f5f" stroke="#c87137" stroke-width="3.372" d="M193.052 89.173c-1.323-.968-3.745-1.74-3.578-3.386.128-1.268 2.113-1.38 3.219-1.984 1.644-.898 3.2-2.354 5.065-2.43 1.334-.053 2.575.79 3.746 1.44.866.482 1.86.942 2.378 1.796.742 1.225 1.453 3.02.722 4.251-.827 1.395-3.02 1.115-4.573 1.521-1.167.306-2.363.874-3.554.685-1.284-.205-2.37-1.122-3.425-1.893z"/>
        <path fill="#d35f5f" stroke="#c87137" stroke-width="2.389" d="M223.738 112.61c1.626.307 3.734 1.171 3.975 2.748.127.827-.797 1.638-1.537 2.132-.802.534-1.888.378-2.806.67-.955.304-1.806.978-2.792 1.12a.936.936 0 0 1-.504-.05c-1.155-.516-2.786-1.3-2.714-2.548.06-1.041 1.661-1.427 2.511-2.118.65-.528 1.218-1.195 1.98-1.551.584-.274 1.268-.52 1.887-.404zM229.487 93.243c1.627.307 3.734 1.172 3.975 2.749.127.826-.797 1.638-1.537 2.131-.802.535-1.888.379-2.806.671-.954.304-1.806.978-2.792 1.12-.17.024-.358.035-.504-.05-1.59-.93-3.45-2.69-3.217-4.537.137-1.096 1.46-1.834 2.511-2.119.812-.22 1.643.454 2.482.438.643-.011 1.269-.52 1.888-.403z"/>
        <path fill="#d35f5f" stroke="#c87137" stroke-width="2.155" d="M222.996 108.23c-1.168-.587-2.141-2-2.138-3.322 0-.504.433-.948.82-1.262.172-.138.396-.226.615-.234 1.67-.061 3.873.034 4.812 1.439.573.858.446 2.37-.283 3.096-.913.909-2.68.859-3.826.283z"/>
        <path fill="#d35f5f" stroke="#c87137" stroke-width="3.372" d="M240.245 106.932c-2.149-.622-5.622-.635-6.085-2.854-.533-2.552 2.854-4.59 5.088-5.88 1.505-.87 3.383-1.123 5.108-.967 1.33.12 2.574.789 3.745 1.44.867.481 1.861.94 2.378 1.795.742 1.225 1.453 3.02.723 4.251-.827 1.395-3.038 1.039-4.573 1.521-1.174.369-2.3.95-3.544 1.05-.955.077-1.923-.09-2.84-.356zM238.148 91.119c-2.118-1.133-4.628-3.19-4.174-5.288.239-1.1 2.114-1.38 3.22-1.984 1.644-.898 3.2-2.354 5.065-2.43 1.334-.053 2.574.79 3.745 1.44.867.482 1.861.942 2.379 1.796.741 1.225 1.325 2.95.722 4.251-.64 1.381-2.475 1.834-3.914 2.277-1.344.414-2.799.332-4.203.294-.953-.026-2.033.075-2.84-.356z"/>
        <path fill="#d35f5f" stroke="#c87137" stroke-width="2.389" d="M175.825 141.434c1.627.307 3.734 1.172 3.975 2.749.127.826-.797 1.638-1.537 2.131-.802.535-1.888.379-2.806.671-.954.304-1.806.978-2.792 1.12a.936.936 0 0 1-.504-.05c-1.155-.516-2.786-1.3-2.714-2.548.06-1.042 1.661-1.427 2.512-2.118.65-.529 1.217-1.195 1.978-1.552.585-.273 1.269-.52 1.888-.403z"/>
        <path fill="#d35f5f" stroke="#c87137" stroke-width="2.155" d="M175.834 135.3c-1.168-.588-2.142-2-2.139-3.322.001-.505.433-.948.821-1.263.171-.138.396-.225.614-.233 1.671-.062 3.873.034 4.812 1.438.573.858.447 2.371-.282 3.097-.913.908-2.68.858-3.826.282z"/>
        <path fill="#d35f5f" stroke="#c87137" stroke-width="3.372" d="M161.965 139.243c1.439.907 3.509 1.641 3.877 3.315.519 2.358-.918 5.387-2.985 6.584-1.701.985-3.961-.067-5.845-.611-1.283-.371-2.493-1.021-3.602-1.776-.82-.559-1.77-1.107-2.21-2.005-.63-1.288-1.18-3.14-.343-4.3.947-1.314 3.162-.602 4.69-1.098 1.176-.382 2.184-1.45 3.421-1.439 1.093.011 2.073.747 2.997 1.33zM194.841 138.154c.239-2.418 1.173-5.552 3.26-5.913 1.095-.19 2.055 1.47 3.021 2.283 1.438 1.21 3.352 2.125 4.122 3.852.55 1.235.246 2.718.092 4.064-.114.996-.16 2.104-.746 2.911-.84 1.158-2.195 2.356-3.61 2.277-1.501-.083-2.604-1.639-3.55-2.826-.882-1.108-1.354-2.508-1.847-3.843-.334-.906-.832-1.884-.742-2.805zM183.826 159.53c-2.12-1.132-4.48-3.05-4.175-5.287.28-2.04 2.987-3.09 4.957-3.588 1.098-.277 2.238.353 3.365.453 1.233.11 2.543-.259 3.708.161.931.336 1.79.991 2.379 1.796 1.069 1.46 2.614 3.497 1.829 5.132-.703 1.464-2.994 1.236-4.573 1.521-1.527.276-3.101.237-4.65.169-.954-.042-2.034.075-2.84-.356z"/>
        <path fill="#d35f5f" stroke="#c87137" stroke-width="2.155" d="M184.737 143.323c-.353-1.273.027-2.953.997-3.837.37-.337.983-.309 1.473-.227.216.037.43.147.582.306 1.165 1.218 2.57 2.942 2.172 4.59-.244 1.007-1.435 1.925-2.454 1.862-1.277-.08-2.424-1.445-2.77-2.694z"/>
        <path fill="#d35f5f" stroke="#c87137" stroke-width="3.372" d="M215.304 140.505c-1.323-.968-3.745-1.74-3.579-3.386.128-1.267 2.113-1.38 3.219-1.984 1.645-.898 3.2-2.354 5.066-2.429 1.334-.054 2.574.79 3.745 1.44.867.481 1.861.941 2.378 1.795.742 1.226 1.453 3.02.723 4.252-.827 1.395-3.02 1.115-4.573 1.52-1.168.306-2.363.875-3.555.685-1.284-.205-2.37-1.122-3.424-1.893zM240.889 150.164c-2.119-1.133-4.629-3.19-4.174-5.289.238-1.1 2.054-1.509 3.219-1.984 1.616-.66 3.367-.995 5.103-1.15 1.232-.11 2.542-.26 3.708.161.93.336 1.789.99 2.378 1.795 1.07 1.46 2.614 3.498 1.829 5.133-.703 1.464-2.994 1.236-4.573 1.521-1.527.276-3.1.237-4.65.168-.953-.042-2.034.076-2.84-.355z"/>
        <path fill="#d35f5f" stroke="#c87137" stroke-width="2.389" d="M221.51 147.77c1.626.308 3.733 1.173 3.975 2.75.126.826-.798 1.638-1.538 2.131-.802.535-1.888.379-2.806.671-.954.304-1.806.978-2.792 1.12-.17.024-.358.035-.504-.05-1.59-.93-3.449-2.69-3.217-4.537.138-1.096 1.46-1.834 2.511-2.119.812-.22 1.643.453 2.483.438.643-.011 1.268-.52 1.887-.403z"/>
        <path fill="#d35f5f" stroke="#c87137" stroke-width="3.161" d="M146.385 152.13c-.937 1.957-4.183 1.374-6.352 1.413-1.164.02-2.275-.525-3.434-.635-1.268-.122-2.63.428-3.82-.03-.732-.28-1.309-.924-1.771-1.564-.99-1.369-2.294-3-2.003-4.669.247-1.419 1.576-2.72 2.948-3.159 1.3-.415 2.645.811 4.01.822 2.034.015 4.175-2.044 5.996-1.136 2.981 1.485 5.864 5.954 4.426 8.958zM138.124 129.554c1.416.843 3.077 2.17 3.144 3.816.06 1.495-1.184 3.105-2.564 3.685-1.129.475-2.404-.503-3.624-.61-1.269-.11-2.59.305-3.82-.029a1.173 1.173 0 0 1-.57-.327c-1.12-1.26-2.675-3.114-2.004-4.668.561-1.298 2.63-.954 3.958-1.392 1.015-.335 1.998-.889 3.064-.946.818-.044 1.71.051 2.416.471z"/>
        <path fill="#d35f5f" stroke="#c87137" stroke-width="2.389" d="M118.972 143.706c-1.615-.368-3.179-1.44-3.873-2.895-.37-.776-.517-1.977.099-2.578 1.036-1.011 2.918.198 4.343-.06.987-.179 1.84-.91 2.831-1.015a.933.933 0 0 1 .502.07c1.135.558 2.737 1.403 2.62 2.647-.099 1.039-1.713 1.364-2.587 2.023-.67.504-1.26 1.148-2.034 1.476-.595.252-1.287.473-1.901.332zM127.513 123.242c-1.615-.368-3.69-1.311-3.873-2.896-.097-.83.857-1.607 1.614-2.072.82-.504 1.9-.308 2.828-.566.965-.268 1.84-.909 2.831-1.014.17-.018.359-.022.502.07 1.556.988 3.35 2.815 3.05 4.653-.177 1.09-1.525 1.778-2.587 2.023-.819.19-1.625-.514-2.464-.53-.643-.013-1.287.472-1.901.332z"/>
        <path fill="#d35f5f" stroke="#c87137" stroke-width="3.372" d="M118.383 124.265c2.076 1.211 4.51 3.36 3.979 5.44-.279 1.091-2.116 1.403-3.29 1.863-1.072.42-2.218.672-3.364.79-1.817.19-3.764.5-5.476-.132-.933-.344-1.826-1.01-2.312-1.883-.696-1.252-1.217-2.998-.567-4.276.69-1.356 2.54-1.74 3.994-2.129 1.358-.363 2.81-.227 4.21-.136.953.062 2.036.001 2.826.463z"/>
        <path fill="#d35f5f" stroke="#c87137" stroke-width="3.161" d="M110.253 111.647c1.904 1.387 5.666 2.941 4.843 5.15-.743 1.994-4.256.277-6.351.654-.822.148-1.596.526-2.424.628-1.264.156-2.63.428-3.82-.03-.732-.28-1.309-.923-1.771-1.564-.99-1.369-2.675-3.114-2.003-4.668.56-1.298 2.631-.95 3.958-1.392.995-.331 1.955-1.018 3-.946 1.676.116 3.205 1.175 4.568 2.168zM96.224 121.44c1.774 1.243 3.853 3.447 3.397 5.585-.24 1.12-1.711 1.674-2.816 1.917-1.197.263-2.404-.503-3.625-.61-1.268-.11-2.59.305-3.82-.029a1.173 1.173 0 0 1-.57-.327c-1.12-1.261-2.675-3.115-2.003-4.669.56-1.298 2.63-.953 3.958-1.391 1.015-.335 1.997-.889 3.063-.946.82-.044 1.741-.002 2.416.47z"/>
        <path fill="#d35f5f" stroke="#c87137" stroke-width="3.372" d="M127.97 110.114c-.94-1.095-1.429-2.87-.935-4.225.385-1.06 1.686-1.533 2.682-2.06 1.653-.875 3.468-1.924 5.328-1.76 1.33.119 2.287 1.432 3.536 1.91.892.342 2.222-.113 2.782.67 1.11 1.55.8 4.301-.46 5.727-1.071 1.211-3.143.64-4.726.921-1.21.215-2.422.716-3.646.586-1.622-.171-3.498-.532-4.56-1.77z"/>
        <path fill="#d35f5f" stroke="#c87137" stroke-width="2.155" d="M143.473 119.795c.306 1.285-.135 2.95-1.136 3.796-.382.323-.994.272-1.48.172a1.069 1.069 0 0 1-.571-.328c-1.12-1.26-2.462-3.036-2.003-4.668.28-.997 1.504-1.87 2.52-1.768 1.272.127 2.369 1.534 2.67 2.796zM107.122 137.883c-.117 1.96-3.779 3.269-5.448 2.236-1.562-.967-1.95-4.51-.402-5.497 1.883-1.2 5.983 1.032 5.85 3.26z"/>
        <path fill="#d35f5f" stroke="#c87137" stroke-width="2.389" d="M113.945 155.466c-.4-1.63-.5-3.935.813-4.812.688-.46 1.8.056 2.549.534.812.518 1.123 1.586 1.766 2.312.669.755 1.626 1.262 2.163 2.113a.972.972 0 0 1 .164.487c.018 1.28-.008 3.112-1.156 3.563-.959.377-1.969-.941-2.941-1.439-.744-.38-1.577-.628-2.212-1.183-.489-.426-.994-.955-1.146-1.575z"/>
        <path fill="#d35f5f" stroke="#c87137" stroke-width="3.372" d="M79.53 115.004c-1.96-1.396-4.193-3.758-3.48-5.782.373-1.06 2.268-1.098 3.44-1.554 1.744-.68 3.468-1.925 5.328-1.76 1.33.119 2.455 1.114 3.536 1.91.8.59 1.728 1.173 2.135 2.087.583 1.31 1.065 3.181.186 4.31-.994 1.277-3.142.64-4.725.92-1.21.216-2.4.647-3.646.587-.958-.046-2.027-.187-2.773-.718zM63.741 113.597c2.076 1.212 4.51 3.36 3.98 5.441-.28 1.091-2.109 1.431-3.29 1.862-1.64.599-3.401.869-5.141.959-1.236.064-2.55.163-3.7-.3a5.216 5.216 0 0 1-2.311-1.883c-1.016-1.5-2.485-3.593-1.641-5.198.755-1.436 3.036-1.123 4.625-1.349 1.536-.218 3.107-.12 4.653.006.95.078 2.035.001 2.825.462z"/>
        <path fill="#d35f5f" stroke="#c87137" stroke-width="3.161" d="M88.837 133.783c.901 1.019 1.74 2.59 1.308 3.887-.361 1.087-1.784 1.45-2.815 1.917-.762.346-1.597.526-2.425.628-1.264.156-2.629.428-3.82-.03-.732-.28-1.308-.923-1.77-1.564-.99-1.369-2.675-3.114-2.004-4.668.561-1.298 2.632-.95 3.958-1.392.995-.331 1.955-1.018 3-.946 1.677.116 3.446.898 4.568 2.167zM73.908 143.57c1.775 1.242 3.854 3.446 3.397 5.584-.24 1.12-1.711 1.674-2.816 1.917-1.197.263-2.404-.503-3.624-.61-1.27-.11-2.59.305-3.82-.029a1.174 1.174 0 0 1-.571-.327c-1.12-1.261-2.675-3.114-2.003-4.669.561-1.298 2.63-.953 3.958-1.391 1.015-.335 1.998-.889 3.063-.946.82-.044 1.741-.002 2.416.47z"/>
        <path fill="#d35f5f" stroke="#c87137" stroke-width="3.372" d="M99.882 145.968c1.287 1.016 3.679 1.878 3.453 3.517-.174 1.262-2.163 1.3-3.29 1.862-1.676.836-3.282 2.233-5.15 2.238-1.335.004-2.544-.885-3.69-1.58-.849-.513-1.826-1.01-2.312-1.882-.696-1.252-1.342-3.072-.567-4.276.877-1.363 3.058-1 4.625-1.348 1.178-.262 2.393-.785 3.577-.551 1.276.252 2.328 1.21 3.354 2.02z"/>
        <path fill="#d35f5f" stroke="#c87137" stroke-width="2.389" d="M75.47 125.35c-1.615-.368-3.69-1.312-3.873-2.896-.097-.831.857-1.608 1.614-2.073.82-.504 1.9-.307 2.828-.565.965-.268 1.84-.91 2.831-1.014a.932.932 0 0 1 .502.069c1.135.558 2.737 1.403 2.62 2.648-.099 1.038-1.713 1.363-2.587 2.022-.669.504-1.26 1.148-2.034 1.476-.595.252-1.287.473-1.901.333zM61.789 140.797c-1.614-.368-3.689-1.311-3.873-2.896-.096-.83.857-1.607 1.614-2.072.82-.504 1.9-.308 2.828-.566.965-.267 1.84-.909 2.832-1.014.17-.018.358-.022.501.07 1.556.988 3.35 2.815 3.05 4.654-.177 1.09-1.525 1.777-2.586 2.022-.82.19-1.625-.514-2.465-.53-.643-.013-1.287.472-1.901.332z"/>
        <path fill="#d35f5f" stroke="#c87137" stroke-width="2.155" d="M68.82 126.064c1.146.63 2.068 2.078 2.016 3.4-.02.503-.466.93-.866 1.23-.176.131-.403.21-.622.21-1.672 0-3.87-.18-4.756-1.618-.542-.879-.36-2.386.395-3.083.945-.874 2.71-.758 3.833-.14z"/>
        <path fill="#d35f5f" stroke="#c87137" stroke-width="3.372" d="M51.536 126.714c2.125.702 5.596.846 5.977 3.08.44 2.57-3.019 4.48-5.298 5.685-1.536.813-3.421.996-5.14.776-1.324-.17-2.544-.885-3.69-1.58-.849-.513-1.826-1.01-2.311-1.883-.697-1.252-1.342-3.071-.568-4.275.877-1.363 3.074-.924 4.625-1.349 1.186-.324 2.334-.862 3.58-.916.957-.041 1.918.162 2.825.462z"/>
        <path fill="#d35f5f" stroke="#c87137" stroke-width="2.155" d="M41.429 118.478c1.145.63 2.067 2.078 2.016 3.4-.02.503-.467.93-.867 1.23-.175.132-.403.21-.621.21-1.673 0-3.87-.179-4.757-1.618-.542-.878-.36-2.385.395-3.083.945-.874 2.71-.758 3.834-.14z"/>
        <path fill="#d35f5f" stroke="#c87137" stroke-width="3.372" d="M53.056 142.595c2.076 1.212 4.51 3.36 3.979 5.44-.278 1.092-2.162 1.301-3.289 1.863-1.676.836-3.283 2.233-5.15 2.238-1.336.004-2.544-.886-3.69-1.58-.85-.513-1.826-1.01-2.312-1.883-.697-1.252-1.218-2.998-.568-4.275.69-1.356 2.54-1.74 3.995-2.13 1.357-.362 2.809-.226 4.21-.135.952.062 2.035.001 2.825.462zM47.403 106.06c-1.063-1.272-1.264-3.547-.43-4.984.636-1.098 2.268-1.098 3.44-1.554 1.743-.68 3.467-1.925 5.328-1.76 1.33.119 2.286 1.432 3.535 1.91.892.342 2.223-.113 2.783.67 1.109 1.55.8 4.3-.461 5.726-1.071 1.212-3.143.64-4.726.922-1.21.215-2.417.645-3.646.586-2.002-.096-4.527.034-5.823-1.517z"/>
        <path fill="#d35f5f" stroke="#c87137" stroke-width="2.389" d="M107.271 101.426c-1.615-.368-3.689-1.311-3.873-2.896-.096-.83.857-1.607 1.614-2.072.82-.504 1.9-.308 2.828-.565.965-.268 1.84-.91 2.832-1.015a.942.942 0 0 1 .501.07c1.135.558 2.737 1.403 2.62 2.647-.099 1.039-1.713 1.364-2.587 2.023-.669.503-1.26 1.148-2.034 1.476-.595.251-1.287.472-1.901.332z"/>
        <path fill="#d35f5f" stroke="#c87137" stroke-width="2.155" d="M119.966 105.897c1.145.63 2.067 2.078 2.016 3.4-.02.503-.467.93-.867 1.23-.175.131-.403.21-.622.21-1.672 0-3.87-.179-4.756-1.618-.542-.879-.36-2.386.395-3.083.945-.874 2.71-.758 3.834-.14z"/>
        <path fill="#d35f5f" stroke="#c87137" stroke-width="3.372" d="M98.044 97.214c-.326 2.408-1.374 5.504-3.473 5.787-1.1.148-2-1.545-2.935-2.394-1.393-1.263-3.273-2.25-3.979-4.004-.505-1.254-.147-2.725.056-4.064.15-.992.236-2.097.85-2.882.882-1.126 2.28-2.271 3.691-2.14 1.498.14 2.543 1.735 3.445 2.957.842 1.14 1.263 2.557 1.706 3.91.3.918.763 1.914.64 2.83zM113.613 80.338c2.076 1.212 4.366 3.217 3.979 5.44-.353 2.03-3.097 2.977-5.083 3.4-1.108.236-2.224-.436-3.347-.579-1.228-.155-2.55.164-3.7-.3a5.216 5.216 0 0 1-2.311-1.883c-1.016-1.499-2.486-3.593-1.641-5.197.755-1.436 3.036-1.123 4.625-1.349 1.536-.218 3.107-.12 4.653.006.95.078 2.035.001 2.825.462z"/>
        <path fill="#d35f5f" stroke="#c87137" stroke-width="2.155" d="M123.15 97.63c.307 1.285-.134 2.95-1.135 3.796-.382.323-.994.272-1.48.172a1.069 1.069 0 0 1-.571-.328c-1.12-1.26-2.461-3.036-2.003-4.668.28-.997 1.504-1.87 2.52-1.768 1.273.127 2.37 1.534 2.67 2.796z"/>
        <path fill="#d35f5f" stroke="#c87137" stroke-width="3.372" d="M77.681 94.098c1.287 1.017 3.68 1.879 3.453 3.518-.174 1.262-2.162 1.3-3.288 1.862-1.677.836-3.284 2.233-5.151 2.238-1.335.004-2.544-.885-3.69-1.58-.85-.513-1.826-1.01-2.312-1.883-.697-1.252-1.342-3.071-.567-4.275.877-1.363 3.058-1.001 4.625-1.349 1.178-.261 2.393-.784 3.577-.55 1.276.252 2.328 1.21 3.353 2.02zM51.956 82.971c2.076 1.212 4.51 3.36 3.979 5.441-.279 1.091-2.108 1.43-3.29 1.862-1.639.599-3.4.868-5.14.958-1.236.064-2.55.164-3.7-.3a5.216 5.216 0 0 1-2.312-1.883c-1.015-1.499-2.485-3.592-1.64-5.197.755-1.436 3.036-1.123 4.624-1.349 1.536-.218 3.108-.12 4.654.006.95.078 2.035.001 2.825.462z"/>
        <path fill="#d35f5f" stroke="#c87137" stroke-width="2.389" d="M82.44 84.537c-1.614-.368-3.688-1.311-3.872-2.895-.097-.831.857-1.608 1.614-2.073.82-.504 1.9-.308 2.828-.565.965-.268 1.84-.91 2.831-1.015.17-.018.36-.022.502.07 1.556.988 3.35 2.815 3.05 4.654-.177 1.09-1.525 1.777-2.587 2.022-.819.19-1.625-.514-2.464-.53-.643-.012-1.287.472-1.901.332z"/>
        <path fill="#d35f5f" stroke="#c87137" stroke-width="3.161" d="M37.594 107.957c.9 1.02 1.74 2.59 1.308 3.888-.361 1.087-1.784 1.449-2.816 1.917-.761.345-1.596.525-2.424.628-1.264.156-2.629.428-3.82-.03-.732-.281-1.308-.924-1.771-1.564-.989-1.37-2.675-3.114-2.003-4.669.561-1.297 2.632-.949 3.958-1.391.995-.332 1.955-1.019 3-.947 1.677.116 3.445.898 4.568 2.168zM23.544 120.595c1.775 1.242 3.854 3.446 3.397 5.584-.24 1.12-1.711 1.674-2.816 1.917-1.197.263-2.404-.503-3.624-.61-1.27-.11-2.59.305-3.82-.029a1.173 1.173 0 0 1-.571-.328c-1.12-1.26-2.675-3.114-2.003-4.668.561-1.298 2.63-.953 3.958-1.391 1.015-.335 1.998-.889 3.063-.946.82-.044 1.741-.002 2.416.47z"/>
        <path fill="#d35f5f" stroke="#c87137" stroke-width="2.155" d="M32.426 133.637c1.146.63 2.067 2.078 2.016 3.4-.02.503-.467.93-.866 1.23-.176.132-.403.21-.622.21-1.672 0-3.87-.179-4.756-1.617-.542-.88-.36-2.386.394-3.084.946-.874 2.71-.757 3.834-.139z"/>
        <path fill="#d35f5f" stroke="#c87137" stroke-width="3.372" d="M6.851 114.158c-1.96-1.396-4.194-3.758-3.481-5.782.373-1.061 2.268-1.098 3.44-1.554 1.744-.68 3.468-1.925 5.328-1.76 1.33.119 2.455 1.114 3.536 1.91.8.589 1.729 1.173 2.135 2.087.583 1.31 1.065 3.181.187 4.31-.995 1.277-3.143.64-4.726.92-1.21.216-2.4.647-3.646.587-.957-.046-2.027-.187-2.773-.718z"/>
        <path fill="#d35f5f" stroke="#c87137" stroke-width="3.161" d="M16.157 132.936c.901 1.02 1.74 2.59 1.309 3.888-.362 1.087-1.784 1.45-2.816 1.917-.762.346-1.597.526-2.424.628-1.265.156-2.63.428-3.82-.03-.733-.28-1.309-.923-1.772-1.564-.988-1.369-2.674-3.114-2.002-4.668.56-1.298 2.631-.95 3.958-1.392.994-.332 1.955-1.018 3-.946 1.676.116 3.445.898 4.567 2.167z"/>
        <path fill="#d35f5f" stroke="#c87137" stroke-width="3.372" d="M27.916 145.479c1.287 1.016 3.68 1.878 3.453 3.517-.174 1.262-2.162 1.3-3.289 1.863-1.676.835-3.283 2.232-5.15 2.237-1.335.004-2.544-.885-3.69-1.579-.85-.514-1.826-1.01-2.312-1.883-.697-1.252-1.342-3.072-.567-4.276.877-1.363 3.058-1 4.625-1.348 1.178-.262 2.393-.785 3.576-.551 1.276.252 2.328 1.21 3.354 2.02z"/>
        <path fill="#d35f5f" stroke="#c87137" stroke-width="2.389" d="M34.591 100.58c-1.614-.368-3.689-1.311-3.873-2.896-.096-.83.857-1.607 1.614-2.072.82-.504 1.9-.308 2.829-.566.965-.267 1.84-.909 2.83-1.014a.942.942 0 0 1 .502.07c1.135.558 2.737 1.403 2.62 2.647-.099 1.039-1.712 1.363-2.587 2.023-.669.503-1.26 1.148-2.034 1.475-.595.252-1.286.473-1.9.333z"/>
        <path fill="#d35f5f" stroke="#c87137" stroke-width="3.372" d="M25.365 96.368c-.327 2.408-1.374 5.504-3.473 5.787-1.101.148-2-1.545-2.936-2.394-1.393-1.263-3.272-2.25-3.979-4.004-.505-1.254-.147-2.725.056-4.065.15-.99.236-2.096.85-2.881.882-1.126 2.28-2.272 3.692-2.14 1.497.14 2.542 1.735 3.444 2.957.842 1.14 1.263 2.557 1.706 3.91.301.918.764 1.914.64 2.83zM10.311 90.655c-1.424 1.953-3.65 4.032-5.782 3.385-1.945-.589-2.557-3.465-2.742-5.516-.104-1.144.683-2.192.951-3.308.294-1.22.133-2.59.72-3.695a5.24 5.24 0 0 1 2.108-2.114c1.584-.852 3.802-2.093 5.276-1.057 1.319.927.75 3.19.788 4.818.037 1.574-.24 3.147-.541 4.691-.186.95-.235 2.052-.778 2.796zM112.051 61.624c-2.13-.686-5.602-.803-6-3.034-.458-2.567 2.986-4.503 5.256-5.726 1.53-.824 3.414-1.022 5.134-.815 1.325.16 2.55.866 3.702 1.551.852.507 1.833.996 2.325 1.865.706 1.247 1.365 3.062.599 4.271-.867 1.37-3.066.948-4.615 1.384-1.183.334-2.327.88-3.573.944-.956.049-1.919-.147-2.828-.44zM140.08 83.815c1.97 1.381 4.221 3.726 3.524 5.755-.366 1.064-2.26 1.115-3.429 1.581-1.738.693-3.453 1.95-5.315 1.8-1.33-.108-2.463-1.095-3.55-1.882-.803-.583-1.737-1.16-2.15-2.07-.593-1.307-1.088-3.174-.219-4.309.985-1.285 3.138-.664 4.72-.957 1.207-.225 2.395-.665 3.64-.614.958.038 2.029.17 2.779.696z"/>
        <path fill="#d35f5f" stroke="#c87137" stroke-width="3.161" d="M5.456 223.947c-.909-1.013-1.76-2.577-1.337-3.878.353-1.09 1.773-1.462 2.801-1.938.759-.352 1.592-.538 2.42-.647 1.262-.165 2.625-.448 3.82 0 .734.276 1.315.914 1.782 1.551 1 1.362 2.698 3.094 2.038 4.653-.551 1.302-2.625.97-3.948 1.422-.992.34-1.947 1.034-2.992.97-1.678-.104-3.452-.872-4.584-2.133zM7.631 240.852c-1.783-1.229-3.878-3.417-3.438-5.558.231-1.123 1.699-1.687 2.802-1.939 1.195-.272 2.408.485 3.629.582 1.27.1 2.587-.324 3.82 0 .212.055.426.16.573.323 1.129 1.252 2.698 3.093 2.038 4.653-.552 1.302-2.623.973-3.948 1.422-1.012.342-1.99.904-3.056.969-.819.05-1.741.015-2.42-.452z"/>
        <path fill="#d35f5f" stroke="#c87137" stroke-width="2.389" d="M26.677 226.553c1.618.356 3.699 1.283 3.895 2.866.102.83-.845 1.614-1.599 2.085-.817.51-1.898.322-2.824.587-.963.275-1.833.923-2.823 1.036a.939.939 0 0 1-.503-.066c-1.139-.55-2.747-1.382-2.638-2.627.09-1.04 1.701-1.377 2.571-2.043.665-.508 1.251-1.157 2.023-1.491.593-.256 1.283-.482 1.898-.347zM18.289 247.082c1.617.356 3.699 1.283 3.894 2.866.103.83-.844 1.614-1.598 2.085-.817.51-1.898.322-2.824.587-.963.275-1.834.924-2.824 1.036-.17.02-.358.025-.502-.065-1.563-.977-3.37-2.79-3.084-4.631.169-1.091 1.512-1.79 2.571-2.042.818-.196 1.629.501 2.469.511.642.007 1.283-.482 1.898-.347z"/>
        <path fill="#d35f5f" stroke="#c87137" stroke-width="3.372" d="M27.411 245.99c-2.085-1.196-4.534-3.326-4.02-5.41.27-1.094 2.153-1.317 3.276-1.888 1.67-.849 3.266-2.258 5.134-2.277 1.335-.015 2.55.866 3.702 1.55.852.508 1.833.997 2.325 1.866.706 1.247 1.24 2.989.6 4.271-.68 1.362-2.528 1.76-3.979 2.16-1.355.373-2.807.248-4.21.168-.952-.055-2.035.015-2.828-.44z"/>
        <path fill="#d35f5f" stroke="#c87137" stroke-width="3.161" d="M35.635 258.545c-.909-1.012-1.759-2.577-1.337-3.878.353-1.09 1.773-1.462 2.801-1.938.76-.351 1.593-.538 2.42-.646 1.263-.166 2.626-.449 3.82 0 .734.275 1.315.913 1.783 1.55.999 1.362 2.697 3.094 2.037 4.653-.551 1.302-2.624.97-3.947 1.422-.993.34-1.948 1.034-2.993.97-1.678-.104-3.452-.872-4.584-2.133zM49.59 248.643c-1.783-1.228-3.879-3.416-3.438-5.557.23-1.123 1.699-1.688 2.801-1.939 1.195-.272 2.409.484 3.63.582 1.269.1 2.587-.325 3.82 0 .211.055.425.16.573.323 1.128 1.252 2.697 3.093 2.037 4.653-.551 1.302-2.623.973-3.947 1.421-1.013.343-1.991.904-3.057.97-.818.05-1.74.015-2.419-.453z"/>
        <path fill="#d35f5f" stroke="#c87137" stroke-width="2.155" d="M2.355 250.652c-.316-1.283.113-2.951 1.108-3.805.38-.326.992-.28 1.48-.183.214.042.425.16.572.323 1.129 1.252 2.484 3.017 2.038 4.653-.273.999-1.49 1.88-2.507 1.787-1.274-.117-2.38-1.516-2.691-2.775zM40.611 235.67c-1.15-.622-2.082-2.063-2.04-3.384.015-.504.459-.935.856-1.238.175-.133.402-.213.62-.215 1.673-.012 3.871.15 4.769 1.582.548.874.378 2.382-.372 3.086-.939.881-2.704.778-3.833.169z"/>
        <path fill="#d35f5f" stroke="#c87137" stroke-width="2.389" d="M34.87 220.088c.413 1.626.53 3.93-.776 4.818-.685.465-1.8-.042-2.553-.515-.816-.512-1.135-1.577-1.784-2.299-.674-.75-1.635-1.249-2.179-2.096a.972.972 0 0 1-.167-.485c-.027-1.28-.015-3.112 1.13-3.572.955-.385 1.975.926 2.952 1.416.746.375 1.58.616 2.22 1.166.492.423 1 .948 1.157 1.567z"/>
        <path fill="#d35f5f" stroke="#c87137" stroke-width="3.161" d="M56.885 236.245c-.909-1.012-1.759-2.576-1.337-3.877.353-1.09 1.773-1.463 2.801-1.939.76-.351 1.593-.537 2.42-.646 1.263-.166 2.626-.448 3.82 0 .734.276 1.315.914 1.783 1.551.999 1.361 2.697 3.093 2.037 4.653-.551 1.302-2.624.97-3.947 1.422-.993.339-1.948 1.033-2.993.969-1.678-.103-3.452-.871-4.584-2.133zM71.74 226.344c-1.783-1.228-3.878-3.416-3.438-5.558.231-1.123 1.699-1.687 2.802-1.938 1.195-.273 2.408.484 3.629.581 1.27.101 2.587-.324 3.82 0 .212.056.426.16.573.323 1.129 1.253 2.698 3.094 2.038 4.653-.552 1.302-2.623.973-3.948 1.422-1.012.343-1.99.904-3.056.97-.819.05-1.741.014-2.42-.453z"/>
        <path fill="#d35f5f" stroke="#c87137" stroke-width="3.372" d="M45.033 223.794c-1.294-1.007-3.693-1.85-3.479-3.491.165-1.264 2.153-1.317 3.275-1.888 1.67-.848 3.266-2.258 5.134-2.277 1.335-.015 2.55.866 3.702 1.55.852.508 1.833.997 2.325 1.866.706 1.247 1.365 3.062.6 4.271-.868 1.37-3.051 1.025-4.616 1.384-1.176.27-2.387.804-3.572.579-1.278-.243-2.337-1.192-3.369-1.994z"/>
        <path fill="#d35f5f" stroke="#c87137" stroke-width="2.389" d="M70.315 244.575c1.617.356 3.698 1.283 3.894 2.866.103.83-.845 1.614-1.598 2.085-.817.51-1.898.322-2.824.587-.963.275-1.834.924-2.824 1.036a.939.939 0 0 1-.502-.065c-1.14-.55-2.747-1.383-2.639-2.627.09-1.04 1.702-1.377 2.571-2.043.665-.509 1.252-1.158 2.023-1.491.593-.257 1.283-.483 1.899-.348zM83.88 229.024c1.617.355 3.699 1.283 3.895 2.866.102.83-.845 1.614-1.599 2.084-.817.51-1.898.323-2.824.587-.963.276-1.834.924-2.824 1.037-.17.019-.358.024-.502-.066-1.563-.977-3.37-2.79-3.084-4.63.169-1.092 1.512-1.79 2.571-2.043.818-.195 1.629.502 2.469.512.643.007 1.283-.483 1.898-.347z"/>
        <path fill="#d35f5f" stroke="#c87137" stroke-width="2.155" d="M76.959 243.81c-1.15-.62-2.083-2.061-2.042-3.383.016-.504.46-.935.858-1.237.174-.134.401-.214.62-.216 1.672-.011 3.87.15 4.768 1.582.548.874.378 2.382-.372 3.086-.939.881-2.703.778-3.832.169z"/>
        <path fill="#d35f5f" stroke="#c87137" stroke-width="3.372" d="M94.238 243.027c-2.13-.685-5.602-.802-6-3.034-.459-2.566 2.985-4.502 5.255-5.725 1.53-.825 3.414-1.023 5.134-.815 1.326.16 2.55.865 3.702 1.55.853.508 1.833.997 2.326 1.866.706 1.247 1.364 3.061.599 4.271-.867 1.37-3.067.948-4.615 1.384-1.184.334-2.327.88-3.573.944-.957.049-1.92-.148-2.828-.44z"/>
        <path fill="#d35f5f" stroke="#c87137" stroke-width="2.155" d="M104.406 251.186c-1.15-.621-2.083-2.062-2.041-3.384.016-.504.46-.934.857-1.237.175-.133.402-.214.62-.215 1.672-.012 3.87.15 4.769 1.581.548.875.377 2.383-.372 3.087-.94.88-2.704.778-3.833.168z"/>
        <path fill="#d35f5f" stroke="#c87137" stroke-width="3.372" d="M92.6 227.159c-2.085-1.196-4.535-3.326-4.02-5.41.27-1.094 2.153-1.317 3.275-1.888 1.67-.848 3.267-2.258 5.134-2.277 1.335-.015 2.55.866 3.702 1.55.852.508 1.833.997 2.325 1.866.706 1.247 1.24 2.989.6 4.271-.68 1.362-2.528 1.76-3.979 2.16-1.355.374-2.807.248-4.21.168-.951-.055-2.034.015-2.828-.44z"/>
        <path fill="#d35f5f" stroke="#c87137" stroke-width="2.389" d="M203.22 257.4c-1.629-.295-3.743-1.144-3.996-2.719-.133-.825.786-1.644 1.522-2.143.798-.54 1.885-.393 2.8-.692.953-.311 1.8-.992 2.785-1.142.169-.025.357-.037.504.047 1.597.918 3.469 2.662 3.25 4.512-.129 1.097-1.445 1.845-2.495 2.138-.81.225-1.646-.441-2.485-.42-.643.017-1.265.53-1.885.419z"/>
        <path fill="#d35f5f" stroke="#c87137" stroke-width="3.372" d="M185.485 244.874c2.127 1.117 4.652 3.154 4.213 5.256-.23 1.103-2.103 1.397-3.204 2.01-1.638.91-3.182 2.378-5.048 2.467-1.333.064-2.58-.77-3.755-1.411-.87-.475-1.868-.927-2.392-1.777-.75-1.22-1.347-2.94-.754-4.246.63-1.386 2.461-1.853 3.897-2.307 1.34-.424 2.796-.353 4.2-.326.954.02 2.034-.09 2.843.334zM201.852 244.573c-1.117-1.222-1.419-3.486-.649-4.958.588-1.126 2.218-1.2 3.37-1.709 1.711-.757 3.38-2.079 5.245-1.998 1.334.058 2.347 1.327 3.616 1.748.905.302 2.215-.213 2.809.544 1.176 1.498.987 4.26-.21 5.742-1.017 1.259-3.111.78-4.68 1.133-1.2.27-2.387.754-3.617.75-2.004-.006-4.521.239-5.884-1.252z"/>
        <path fill="#d35f5f" stroke="#c87137" stroke-width="2.155" d="M219.013 253.236c.363 1.27-.006 2.953-.968 3.844-.367.34-.981.316-1.472.238a1.067 1.067 0 0 1-.584-.302c-1.174-1.209-2.592-2.922-2.206-4.573.236-1.009 1.42-1.936 2.44-1.88 1.278.07 2.435 1.426 2.79 2.673z"/>
        <path fill="#d35f5f" stroke="#c87137" stroke-width="3.372" d="M158.49 253.403c-2.02-1.306-4.354-3.565-3.73-5.619.326-1.077 2.218-1.199 3.368-1.708 1.712-.758 3.38-2.079 5.246-1.998 1.334.058 2.501 1.002 3.616 1.748.824.552 1.778 1.094 2.224 1.988.64 1.283 1.203 3.13.375 4.297-.937 1.322-3.111.782-4.68 1.134-1.2.27-2.37.754-3.617.75-.958-.003-2.033-.095-2.802-.592zM132.467 237.2c2.127 1.117 4.653 3.154 4.214 5.257-.23 1.102-2.043 1.524-3.204 2.008-1.612.672-3.36 1.021-5.095 1.19-1.231.12-2.54.278-3.709-.133a5.206 5.206 0 0 1-2.391-1.777c-1.08-1.452-2.64-3.477-1.867-5.118.692-1.47 2.984-1.259 4.561-1.556 1.525-.288 3.099-.261 4.649-.204.953.035 2.033-.091 2.842.334z"/>
        <path fill="#d35f5f" stroke="#c87137" stroke-width="2.389" d="M143.935 258.493c-1.629-.294-3.742-1.143-3.996-2.718-.132-.825.786-1.644 1.522-2.143.798-.54 1.885-.393 2.8-.692.953-.312 1.8-.992 2.785-1.142a.935.935 0 0 1 .504.047c1.158.507 2.795 1.279 2.732 2.527-.052 1.042-1.65 1.44-2.495 2.137-.646.534-1.208 1.204-1.967 1.566-.583.279-1.265.53-1.885.418zM182.043 236.519c-1.63-.295-3.743-1.144-3.996-2.718-.133-.826.785-1.645 1.521-2.144.798-.54 1.885-.393 2.801-.692.952-.311 1.799-.992 2.784-1.141a.935.935 0 0 1 .504.046c1.159.507 2.796 1.279 2.733 2.527-.052 1.042-1.65 1.44-2.496 2.138-.646.533-1.208 1.203-1.967 1.566-.583.278-1.264.53-1.884.418z"/>
        <path fill="#d35f5f" stroke="#c87137" stroke-width="2.155" d="M194.92 240.412c1.173.578 2.157 1.983 2.164 3.305.003.504-.426.951-.812 1.269-.17.139-.394.228-.612.238-1.67.074-3.874-.004-4.823-1.402-.58-.853-.464-2.367.26-3.098.906-.916 2.673-.88 3.824-.312z"/>
        <path fill="#d35f5f" stroke="#c87137" stroke-width="3.372" d="M202.976 227.12c-1.673-.24-3.52-1.614-3.901-3.285-.537-2.353.877-5.394 2.936-6.606 1.693-.998 3.96.036 5.848.566 1.287.361 2.502 1.002 3.616 1.748.825.552 1.778 1.093 2.225 1.988.64 1.283 1.203 3.13.375 4.297-.938 1.321-3.077 1.168-4.68 1.134-1.277-.027-2.41-1.147-3.684-1.058-.993.069-1.75 1.357-2.735 1.216zM172.64 232.728c-.22 2.42-1.13 5.56-3.215 5.937-1.093.198-2.066-1.453-3.038-2.259-1.447-1.198-3.368-2.1-4.15-3.82-.56-1.23-.267-2.716-.123-4.063.107-.997.145-2.106.724-2.918.832-1.164 2.178-2.372 3.594-2.304 1.502.072 2.616 1.619 3.57 2.799.891 1.101 1.374 2.497 1.876 3.828.34.904.847 1.879.763 2.8zM187.455 215.165c2.127 1.117 4.502 3.017 4.213 5.256-.264 2.042-2.964 3.113-4.93 3.626-1.095.285-2.24-.336-3.368-.428-1.233-.1-2.54.279-3.71-.132a5.206 5.206 0 0 1-2.391-1.777c-1.08-1.452-2.64-3.477-1.867-5.119.692-1.468 2.984-1.258 4.561-1.556 1.525-.287 3.1-.26 4.65-.204.952.035 2.032-.09 2.842.334z"/>
        <path fill="#d35f5f" stroke="#c87137" stroke-width="2.155" d="M197.74 232.01c.363 1.27-.005 2.952-.968 3.844-.367.34-.981.316-1.472.238a1.067 1.067 0 0 1-.584-.302c-1.174-1.209-2.592-2.922-2.205-4.573.236-1.009 1.42-1.936 2.44-1.88 1.277.07 2.434 1.426 2.79 2.672z"/>
        <path fill="#d35f5f" stroke="#c87137" stroke-width="3.372" d="M152.162 230.534c1.33.957 3.757 1.71 3.603 3.358-.119 1.268-2.103 1.397-3.204 2.009-1.638.91-3.182 2.378-5.048 2.468-1.333.064-2.58-.77-3.755-1.411-.87-.475-1.868-.927-2.392-1.778-.75-1.219-1.475-3.007-.754-4.245.817-1.401 3.011-1.138 4.561-1.556 1.166-.314 2.357-.892 3.55-.712 1.285.195 2.378 1.103 3.439 1.867zM126.505 221.072c2.127 1.116 4.652 3.153 4.214 5.256-.23 1.102-2.043 1.524-3.205 2.008-1.611.672-3.36 1.021-5.094 1.19-1.231.12-2.54.278-3.709-.133a5.206 5.206 0 0 1-2.392-1.777c-1.08-1.452-2.64-3.477-1.867-5.118.692-1.469 2.985-1.259 4.562-1.556 1.525-.288 3.099-.261 4.649-.204.953.035 2.033-.091 2.842.334z"/>
        <path fill="#d35f5f" stroke="#c87137" stroke-width="2.389" d="M135.097 217.284c-1.63-.295-3.743-1.144-3.996-2.718-.133-.826.785-1.645 1.522-2.144.797-.54 1.884-.393 2.8-.692.953-.311 1.799-.991 2.784-1.141.17-.026.358-.038.504.046 1.598.918 3.47 2.663 3.251 4.513-.13 1.096-1.446 1.844-2.495 2.137-.81.226-1.646-.44-2.486-.419-.642.017-1.264.53-1.884.418z"/>
        <path fill="#d35f5f" stroke="#c87137" stroke-width="3.161" d="M229.42 240.892c-1.783-1.228-3.878-3.416-3.437-5.557.23-1.123 1.698-1.688 2.801-1.939 1.195-.272 2.408.484 3.63.582 1.269.1 2.587-.325 3.82 0 .211.055.425.16.572.323 1.13 1.252 2.698 3.093 2.038 4.653-.551 1.302-2.623.973-3.948 1.421-1.012.343-1.99.904-3.056.97-.818.05-1.74.015-2.42-.453z"/>
        <path fill="#d35f5f" stroke="#c87137" stroke-width="2.389" d="M248.467 226.594c1.617.355 3.698 1.283 3.894 2.866.103.83-.845 1.614-1.598 2.085-.817.51-1.898.322-2.824.587-.963.275-1.834.923-2.824 1.036a.939.939 0 0 1-.502-.066c-1.14-.55-2.747-1.382-2.639-2.627.09-1.04 1.702-1.377 2.572-2.043.664-.509 1.25-1.157 2.022-1.491.593-.256 1.283-.483 1.899-.347zM240.078 247.123c1.617.356 3.699 1.283 3.895 2.866.102.83-.845 1.614-1.599 2.085-.817.51-1.898.322-2.824.587-.963.275-1.833.923-2.823 1.036-.17.02-.359.025-.503-.065-1.563-.977-3.37-2.79-3.084-4.631.17-1.091 1.512-1.79 2.571-2.043.818-.195 1.63.502 2.469.512.643.007 1.283-.482 1.898-.347z"/>
        <path fill="#d35f5f" stroke="#c87137" stroke-width="3.372" d="M249.2 246.03c-2.084-1.195-4.534-3.325-4.019-5.41.27-1.093 2.153-1.317 3.275-1.887 1.67-.849 3.267-2.258 5.134-2.277 1.335-.015 2.55.866 3.702 1.55.852.508 1.833.997 2.325 1.866.706 1.247 1.24 2.989.6 4.271-.68 1.362-2.527 1.76-3.979 2.16-1.355.373-2.807.248-4.21.168-.951-.055-2.034.015-2.827-.44z"/>
        <path fill="#d35f5f" stroke="#c87137" stroke-width="2.155" d="M224.144 250.693c-.316-1.283.114-2.951 1.108-3.806.38-.325.992-.279 1.48-.182.214.042.425.16.572.323 1.13 1.252 2.484 3.017 2.038 4.653-.273.999-1.49 1.88-2.507 1.787-1.273-.117-2.38-1.516-2.69-2.775z"/>
        <path fill="#d35f5f" stroke="#c87137" stroke-width="2.389" d="M256.66 220.128c.412 1.627.53 3.931-.777 4.819-.685.465-1.8-.043-2.553-.515-.816-.512-1.135-1.577-1.783-2.299-.675-.75-1.636-1.249-2.18-2.096a.972.972 0 0 1-.167-.485c-.027-1.28-.015-3.112 1.13-3.572.956-.385 1.976.926 2.952 1.416.746.375 1.58.616 2.22 1.166.492.423 1.001.947 1.158 1.566z"/>
        <path fill="#d35f5f" stroke="#c87137" stroke-width="3.372" d="M18.857 155.999c1.072 1.263 1.291 3.536.468 4.98-.629 1.102-2.26 1.115-3.429 1.58-1.738.693-3.453 1.951-5.315 1.8-1.33-.108-2.297-1.413-3.55-1.882-.893-.335-2.22.13-2.787-.649-1.12-1.54-.83-4.294.419-5.73 1.062-1.22 3.137-.664 4.718-.957 1.209-.224 2.412-.663 3.642-.614 2.002.08 4.526-.069 5.834 1.472z"/>
        <path fill="#d35f5f" stroke="#c87137" stroke-width="2.389" d="M38.36 164.79c1.617.355 3.699 1.283 3.894 2.866.103.83-.844 1.614-1.598 2.085-.817.51-1.898.322-2.824.587-.963.275-1.834.923-2.824 1.036a.939.939 0 0 1-.502-.066c-1.14-.55-2.747-1.382-2.639-2.627.09-1.04 1.702-1.377 2.572-2.043.665-.508 1.251-1.157 2.023-1.491.592-.256 1.283-.482 1.898-.347z"/>
        <path fill="#d35f5f" stroke="#c87137" stroke-width="2.155" d="M25.633 160.417c-1.15-.622-2.083-2.062-2.042-3.384.016-.504.46-.935.857-1.237.175-.133.402-.214.62-.216 1.673-.011 3.871.15 4.769 1.582.548.874.378 2.383-.372 3.086-.939.881-2.704.779-3.832.169z"/>
        <path fill="#d35f5f" stroke="#c87137" stroke-width="3.372" d="M17.1 173.398c1.663.301 3.459 1.745 3.778 3.428.45 2.373-1.073 5.358-3.174 6.493-1.729.934-3.957-.185-5.824-.785-1.273-.41-2.463-1.095-3.55-1.883-.804-.582-1.737-1.159-2.15-2.07-.593-1.306-1.089-3.173-.219-4.308.985-1.285 3.117-1.051 4.719-.958 1.273.075 2.366 1.237 3.642 1.196.995-.032 1.798-1.29 2.778-1.113zM47.108 163.76c.309-2.41 1.333-5.514 3.43-5.813 1.1-.156 2.011 1.53 2.954 2.372 1.402 1.252 3.288 2.224 4.008 3.973.514 1.25.168 2.724-.025 4.065-.143.992-.221 2.099-.83 2.888-.873 1.133-2.263 2.29-3.675 2.169-1.498-.128-2.555-1.716-3.466-2.931-.85-1.134-1.282-2.547-1.735-3.896-.308-.917-.778-1.91-.66-2.826zM32.175 185.926c-2.085-1.196-4.39-3.183-4.02-5.41.339-2.031 3.076-3 5.059-3.439 1.105-.244 2.227.42 3.35.554 1.23.146 2.55-.184 3.703.271a5.214 5.214 0 0 1 2.325 1.866c1.026 1.491 2.512 3.573 1.68 5.184-.745 1.442-3.029 1.146-4.615 1.384-1.535.23-3.107.145-4.654.03-.95-.07-2.035.015-2.828-.44z"/>
        <path fill="#d35f5f" stroke="#c87137" stroke-width="2.155" d="M22.509 168.708c-.316-1.283.113-2.95 1.108-3.805.379-.326.991-.28 1.479-.183.214.043.425.16.573.323 1.129 1.252 2.484 3.017 2.037 4.653-.272.999-1.49 1.881-2.507 1.787-1.273-.117-2.38-1.516-2.69-2.775z"/>
        <path fill="#d35f5f" stroke="#c87137" stroke-width="3.372" d="M67.494 164.652c-1.295-1.006-3.693-1.85-3.48-3.49.166-1.264 2.153-1.317 3.276-1.888 1.67-.849 3.266-2.258 5.134-2.277 1.335-.015 2.55.866 3.702 1.55.852.508 1.833.997 2.325 1.866.706 1.247 1.365 3.062.599 4.271-.867 1.37-3.05 1.025-4.615 1.384-1.176.27-2.387.804-3.573.578-1.277-.242-2.336-1.191-3.368-1.994zM74.452 181.79c-2.085-1.196-4.535-3.326-4.02-5.41.27-1.093 2.097-1.447 3.275-1.888 1.635-.61 3.395-.894 5.134-.997 1.235-.074 2.549-.184 3.702.271a5.214 5.214 0 0 1 2.326 1.866c1.026 1.491 2.511 3.573 1.68 5.185-.746 1.441-3.029 1.145-4.616 1.384-1.534.23-3.106.144-4.653.03-.951-.071-2.035.014-2.828-.441z"/>
        <path fill="#d35f5f" stroke="#c87137" stroke-width="2.389" d="M62.28 183.474c1.618.355 3.7 1.283 3.895 2.866.103.83-.845 1.614-1.598 2.085-.817.51-1.898.322-2.824.586-.963.276-1.834.924-2.824 1.037-.17.02-.358.024-.502-.066-1.563-.977-3.37-2.79-3.085-4.63.17-1.092 1.512-1.79 2.572-2.043.817-.195 1.629.502 2.468.512.643.007 1.283-.483 1.899-.347z"/>
        <path fill="#d35f5f" stroke="#c87137" stroke-width="3.161" d="M221.138 179.188c.945.977 1.851 2.509 1.477 3.825-.313 1.102-1.719 1.528-2.73 2.042-.745.38-1.57.597-2.393.736-1.256.213-2.608.547-3.818.144-.744-.248-1.348-.864-1.838-1.484-1.048-1.322-2.808-2.99-2.205-4.573.503-1.322 2.587-1.067 3.893-1.569.98-.376 1.908-1.105 2.955-1.08 1.68.04 3.482.741 4.659 1.959zM213.764 159.274c1.827 1.16 4 3.269 3.638 5.425-.19 1.131-1.636 1.75-2.729 2.043-1.184.317-2.424-.394-3.648-.446-1.272-.053-2.573.421-3.817.144a1.17 1.17 0 0 1-.584-.302c-1.174-1.209-2.809-2.99-2.206-4.573.504-1.322 2.586-1.071 3.893-1.569 1-.38 1.957-.978 3.02-1.083.815-.08 1.738-.08 2.433.361z"/>
        <path fill="#d35f5f" stroke="#c87137" stroke-width="2.389" d="M195.251 174.277c-1.629-.295-3.742-1.144-3.995-2.718-.133-.826.785-1.645 1.521-2.144.798-.54 1.885-.393 2.8-.692.953-.311 1.8-.992 2.785-1.141a.935.935 0 0 1 .504.046c1.158.507 2.795 1.28 2.733 2.527-.053 1.042-1.65 1.44-2.496 2.138-.646.533-1.208 1.204-1.967 1.566-.583.278-1.265.53-1.885.418z"/>
        <path fill="#d35f5f" stroke="#c87137" stroke-width="3.161" d="M171.806 156.937c1.827 1.16 4 3.269 3.638 5.425-.19 1.131-1.636 1.75-2.73 2.043-1.184.317-2.424-.394-3.647-.446-1.273-.053-2.574.421-3.818.143a1.17 1.17 0 0 1-.584-.301c-1.174-1.21-2.808-2.99-2.205-4.573.503-1.322 2.585-1.071 3.893-1.569.999-.38 1.956-.978 3.019-1.083.816-.081 1.739-.08 2.434.361z"/>
        <path fill="#d35f5f" stroke="#c87137" stroke-width="2.155" d="M180.995 165.688c1.173.578 2.157 1.983 2.163 3.306.003.504-.425.95-.811 1.268-.17.14-.394.229-.612.238-1.67.075-3.874-.004-4.823-1.401-.58-.854-.464-2.367.26-3.099.906-.915 2.673-.879 3.823-.312z"/>
        <path fill="#d35f5f" stroke="#c87137" stroke-width="2.389" d="M187.3 181.045c-.472-1.61-.673-3.908.6-4.844.668-.491 1.8-.026 2.57.418.834.482 1.192 1.534 1.866 2.23.701.725 1.68 1.187 2.254 2.014a.97.97 0 0 1 .185.478c.073 1.278.128 3.11-1 3.613-.94.42-2.007-.852-3-1.305-.76-.347-1.603-.556-2.263-1.082-.506-.404-1.034-.91-1.213-1.522z"/>
        <path fill="#d35f5f" stroke="#c87137" stroke-width="3.161" d="M156.817 163.913c.945.978 1.851 2.51 1.477 3.825-.313 1.102-1.719 1.528-2.729 2.042-.745.38-1.572.597-2.394.737-1.256.213-2.608.546-3.818.143-.743-.248-1.347-.864-1.838-1.483-1.047-1.323-2.808-2.99-2.205-4.574.503-1.322 2.587-1.067 3.893-1.568.98-.377 1.909-1.106 2.955-1.081 1.68.04 3.482.741 4.659 1.96zM153.865 181.599c.002 1.136-1.637 1.75-2.73 2.042-1.184.317-2.424-.393-3.647-.445-1.273-.053-2.574.421-3.818.143a1.17 1.17 0 0 1-.584-.301c-1.174-1.21-2.808-2.99-2.205-4.574.503-1.321 2.585-1.07 3.893-1.568.999-.38 1.989-1.37 3.018-1.083 1.331.371 1.615 2.262 2.613 3.218 1.038.993 3.457 1.132 3.46 2.568z"/>
        <path fill="#d35f5f" stroke="#c87137" stroke-width="4.099" d="M174.183 175.43c1.659 1.135 4.686 2.027 4.494 3.979-.148 1.502-2.623 1.654-3.996 2.38-2.043 1.078-3.968 2.817-6.295 2.923-1.663.075-3.217-.912-4.684-1.672-1.085-.562-2.33-1.098-2.982-2.105-.937-1.444-1.84-3.563-.94-5.03 1.018-1.659 3.755-1.347 5.688-1.842 1.453-.372 2.939-1.057 4.426-.843 1.604.23 2.967 1.307 4.289 2.21z"/>
        <path fill="#d35f5f" stroke="#c87137" stroke-width="2.389" d="M121.698 170.849c-1.629-.295-3.742-1.144-3.996-2.718-.132-.826.786-1.645 1.522-2.144.798-.54 1.973-.202 2.8-.692 1.525-.902 2.19-1.45 3.289-1.095 1.764.57 3.47 2.663 3.25 4.513-.129 1.096-1.445 1.844-2.495 2.137-.81.226-1.646-.44-2.485-.419-.643.017-1.265.53-1.885.418z"/>
        <path fill="#d35f5f" stroke="#c87137" stroke-width="2.155" d="M139.519 159.984c1.278.975.359 3.283-.11 4.82-.147.48-.426.952-.812 1.27-.17.139-.393.228-.612.238-1.67.074-3.873-.004-4.823-1.402-.58-.854-.393-2.294.26-3.098 1.337-1.648 4.41-3.114 6.097-1.828zM100.635 176.613c2.345.292 6.623-.067 6.709 2.295.07 1.939-3.593 1.471-5.357 2.278-2.253 1.03-4.77 4.853-6.673 3.269-1.18-.981.966-2.923 1.238-4.432.183-1.02-.464-2.367.26-3.099.906-.915 2.554-.47 3.823-.311z"/>
        <path fill="#d35f5f" stroke="#c87137" stroke-width="3.372" d="M129.352 176.141c2.127 1.117 4.652 3.154 4.214 5.256-.23 1.103-2.103 1.397-3.204 2.009-1.638.91-3.183 2.378-5.048 2.468-1.334.064-2.58-.77-3.756-1.411-.87-.475-1.868-.927-2.391-1.777-.751-1.22-1.348-2.94-.754-4.246.63-1.386 2.46-1.853 3.896-2.307 1.341-.424 2.797-.354 4.2-.326.954.019 2.034-.09 2.843.334zM240.647 156.04c1.072 1.263 1.29 3.536.467 4.98-.628 1.102-2.26 1.114-3.428 1.58-1.739.693-3.453 1.95-5.315 1.8-1.33-.108-2.297-1.413-3.55-1.882-.894-.335-2.221.13-2.787-.649-1.12-1.54-.832-4.294.418-5.73 1.062-1.22 3.138-.664 4.719-.957 1.208-.225 2.412-.664 3.641-.614 2.003.08 4.527-.07 5.834 1.472z"/>
        <path fill="#d35f5f" stroke="#c87137" stroke-width="2.155" d="M247.422 160.458c-1.15-.622-2.083-2.062-2.041-3.384.015-.504.46-.935.857-1.237.174-.134.401-.214.62-.216 1.672-.011 3.87.15 4.768 1.582.549.874.378 2.383-.372 3.086-.938.881-2.703.778-3.832.169z"/>
        <path fill="#d35f5f" stroke="#c87137" stroke-width="3.372" d="M238.889 173.439c1.663.301 3.459 1.745 3.779 3.428.45 2.373-1.073 5.358-3.174 6.493-1.73.934-3.958-.185-5.825-.785-1.272-.41-2.463-1.095-3.55-1.883-.803-.583-1.737-1.159-2.15-2.07-.593-1.306-1.088-3.173-.219-4.308.985-1.285 3.118-1.052 4.72-.958 1.273.075 2.366 1.237 3.64 1.196.996-.032 1.799-1.29 2.779-1.113z"/>
        <path fill="#d35f5f" stroke="#c87137" stroke-width="2.155" d="M244.298 168.749c-.316-1.283.113-2.95 1.108-3.805.38-.326.992-.28 1.48-.183.214.042.425.16.572.323 1.129 1.252 2.484 3.017 2.038 4.653-.273.999-1.49 1.88-2.507 1.787-1.274-.117-2.38-1.516-2.69-2.775z"/>
        <path fill="#d35f5f" stroke="#c87137" stroke-width="3.161" d="M151.997 200.25c-.937-.984-1.832-2.522-1.448-3.835.321-1.1 1.73-1.515 2.744-2.021.748-.374 1.576-.585 2.4-.719 1.257-.203 2.611-.526 3.818-.113.742.253 1.341.874 1.827 1.497 1.038 1.33 2.786 3.011 2.171 4.59-.513 1.318-2.595 1.047-3.905 1.539-.982.368-1.916 1.09-2.963 1.058-1.68-.053-3.476-.768-4.644-1.995zM154.661 217.083c-1.818-1.174-3.976-3.299-3.597-5.452.198-1.13 1.649-1.738 2.744-2.022 1.187-.308 2.421.413 3.644.473 1.272.064 2.577-.4 3.819-.113.213.049.43.146.582.305 1.165 1.219 2.786 3.012 2.171 4.59-.513 1.319-2.594 1.052-3.904 1.54-1.003.372-1.964.962-3.027 1.06-.817.074-1.74.066-2.432-.38z"/>
        <path fill="#d35f5f" stroke="#c87137" stroke-width="2.389" d="M173.285 202.223c1.627.308 3.734 1.172 3.976 2.749.127.827-.798 1.638-1.538 2.132-.801.534-1.887.378-2.805.67-.955.304-1.806.978-2.793 1.12a.935.935 0 0 1-.504-.05c-1.154-.516-2.785-1.3-2.713-2.548.06-1.042 1.66-1.427 2.511-2.118.65-.529 1.217-1.195 1.979-1.551.585-.274 1.268-.52 1.887-.404z"/>
        <path fill="#d35f5f" stroke="#c87137" stroke-width="2.155" d="M187.477 210.92c-1.168-.586-2.141-1.998-2.138-3.32 0-.505.432-.949.82-1.263.172-.138.396-.226.614-.234 1.672-.061 3.874.034 4.813 1.439.573.858.446 2.37-.283 3.096-.913.909-2.68.859-3.826.283z"/>
        <path fill="#d35f5f" stroke="#c87137" stroke-width="2.389" d="M181.288 195.517c.459 1.613.643 3.913-.637 4.839-.671.486-1.8.012-2.567-.439-.83-.487-1.18-1.542-1.85-2.244-.695-.73-1.67-1.2-2.238-2.03a.97.97 0 0 1-.181-.48c-.064-1.279-.105-3.11 1.026-3.605.944-.412 2.001.867 2.991 1.328.757.353 1.598.568 2.254 1.1.504.407 1.027.917 1.202 1.53z"/>
        <path fill="#d35f5f" stroke="#c87137" stroke-width="3.161" d="M203.998 210.257c-.938-.984-1.833-2.523-1.45-3.836.322-1.1 1.73-1.514 2.745-2.02.748-.375 1.576-.586 2.4-.719 1.257-.203 2.612-.526 3.818-.114.742.254 1.341.874 1.827 1.497 1.038 1.331 2.786 3.012 2.171 4.59-.513 1.318-2.595 1.048-3.904 1.54-.982.368-1.917 1.09-2.964 1.057-1.68-.053-3.475-.768-4.643-1.995zM218.323 200.671c-1.818-1.174-3.976-3.299-3.598-5.452.199-1.13 1.65-1.738 2.745-2.022 1.186-.308 2.42.413 3.644.474 1.272.063 2.577-.402 3.819-.114.213.049.43.146.582.306 1.164 1.218 2.786 3.011 2.17 4.59-.512 1.318-2.593 1.05-3.904 1.538-1.002.373-1.964.963-3.027 1.06-.816.075-1.74.067-2.431-.38z"/>
        <path fill="#d35f5f" stroke="#c87137" stroke-width="3.372" d="M196.138 197.884c-1.323-.968-3.746-1.74-3.579-3.386.128-1.267 2.113-1.38 3.219-1.984 1.645-.898 3.2-2.354 5.066-2.429 1.334-.054 2.574.79 3.745 1.44.867.481 1.861.941 2.378 1.795.742 1.226 1.453 3.02.723 4.252-.827 1.395-3.02 1.115-4.573 1.52-1.168.306-2.363.875-3.555.685-1.284-.205-2.37-1.121-3.424-1.893z"/>
        <path fill="#d35f5f" stroke="#c87137" stroke-width="2.389" d="M236.647 207.641c1.627.308 3.734 1.172 3.976 2.749.126.827-.798 1.638-1.538 2.132-.802.534-1.888.378-2.806.67-.954.304-1.806.978-2.792 1.12-.17.025-.358.035-.504-.05-1.59-.93-3.449-2.689-3.217-4.537.138-1.096 1.46-1.834 2.511-2.118.812-.22 1.643.453 2.483.438.643-.012 1.268-.52 1.887-.404z"/>
        <path fill="#d35f5f" stroke="#c87137" stroke-width="2.155" d="M226.082 225.73c-1.168-.587-2.142-2-2.139-3.322.001-.504.433-.948.821-1.262.171-.138.396-.226.614-.234 1.671-.061 3.874.034 4.812 1.44.573.857.447 2.37-.282 3.095-.913.909-2.68.859-3.826.283z"/>
        <path fill="#d35f5f" stroke="#c87137" stroke-width="3.372" d="M243.78 203.45c-2.118-1.134-4.628-3.19-4.173-5.289.238-1.1 2.113-1.38 3.219-1.984 1.644-.898 3.2-2.354 5.066-2.43 1.333-.053 2.574.79 3.745 1.44.866.482 1.86.942 2.378 1.796.742 1.225 1.325 2.95.722 4.252-.64 1.38-2.475 1.833-3.914 2.277-1.343.413-2.799.332-4.202.293-.954-.026-2.034.075-2.84-.356zM48.451 215.804c-1.063-1.27-1.264-3.546-.43-4.982.636-1.098 2.268-1.098 3.44-1.555 1.743-.68 3.467-1.924 5.328-1.759 1.33.118 2.286 1.43 3.535 1.91.892.341 2.223-.114 2.783.67 1.109 1.549.8 4.3-.461 5.726-1.071 1.212-3.143.64-4.726.921-1.21.215-2.417.645-3.646.586-2.002-.096-4.527.034-5.823-1.517z"/>
        <path fill="#d35f5f" stroke="#c87137" stroke-width="2.389" d="M108.319 211.171c-1.614-.368-3.689-1.31-3.873-2.895-.096-.831.857-1.608 1.614-2.073.82-.504 1.9-.308 2.828-.565.965-.268 1.84-.91 2.832-1.015a.941.941 0 0 1 .501.07c1.135.558 2.737 1.403 2.62 2.647-.099 1.039-1.712 1.364-2.587 2.023-.669.504-1.26 1.148-2.034 1.476-.595.252-1.287.472-1.901.332z"/>
        <path fill="#d35f5f" stroke="#c87137" stroke-width="3.372" d="M99.092 206.96c-.326 2.407-1.374 5.504-3.472 5.787-1.101.148-2-1.546-2.936-2.395-1.393-1.262-3.273-2.249-3.979-4.004-.505-1.254-.147-2.725.056-4.064.15-.991.236-2.097.85-2.882.882-1.126 2.28-2.271 3.691-2.14 1.498.14 2.543 1.736 3.445 2.957.842 1.141 1.263 2.557 1.706 3.91.301.918.764 1.914.64 2.83zM114.661 190.083c2.076 1.212 4.366 3.217 3.979 5.441-.353 2.028-3.097 2.977-5.083 3.4-1.108.236-2.224-.437-3.347-.58-1.228-.155-2.55.164-3.7-.3a5.216 5.216 0 0 1-2.311-1.882c-1.016-1.5-2.486-3.593-1.641-5.198.755-1.436 3.036-1.123 4.625-1.349 1.536-.218 3.107-.12 4.653.006.95.078 2.035.001 2.825.462z"/>
        <path fill="#d35f5f" stroke="#c87137" stroke-width="2.155" d="M124.199 207.375c.306 1.285-.135 2.95-1.136 3.797-.382.322-.994.271-1.48.171a1.069 1.069 0 0 1-.571-.328c-1.12-1.26-2.461-3.036-2.003-4.668.28-.997 1.504-1.87 2.52-1.768 1.273.127 2.37 1.534 2.67 2.796z"/>
        <path fill="#d35f5f" stroke="#c87137" stroke-width="3.372" d="M78.73 203.844c1.286 1.016 3.679 1.878 3.452 3.517-.174 1.262-2.162 1.3-3.288 1.862-1.677.836-3.284 2.233-5.151 2.238-1.335.004-2.544-.885-3.69-1.579-.849-.514-1.826-1.01-2.312-1.883-.697-1.252-1.342-3.072-.567-4.276.877-1.363 3.058-1 4.625-1.348 1.178-.262 2.393-.785 3.577-.551 1.276.252 2.328 1.21 3.354 2.02zM53.004 192.716c2.076 1.212 4.51 3.36 3.979 5.441-.279 1.091-2.108 1.431-3.29 1.862-1.639.599-3.4.869-5.14.959-1.236.064-2.55.163-3.7-.3a5.216 5.216 0 0 1-2.312-1.883c-1.015-1.5-2.485-3.593-1.64-5.198.755-1.436 3.036-1.123 4.624-1.349 1.536-.218 3.108-.12 4.654.006.95.078 2.035.001 2.825.462z"/>
        <path fill="#d35f5f" stroke="#c87137" stroke-width="2.389" d="M83.489 194.283c-1.615-.368-3.69-1.312-3.873-2.896-.097-.831.857-1.608 1.614-2.073.82-.504 1.9-.307 2.828-.565.965-.268 1.84-.91 2.831-1.015.17-.018.36-.021.502.07 1.556.989 3.35 2.816 3.05 4.654-.177 1.09-1.525 1.778-2.587 2.023-.818.189-1.625-.515-2.464-.53-.643-.013-1.287.472-1.901.332zM35.64 210.325c-1.615-.368-3.69-1.31-3.874-2.895-.096-.831.857-1.608 1.614-2.073.821-.504 1.9-.308 2.829-.565.965-.268 1.84-.91 2.83-1.015a.941.941 0 0 1 .502.07c1.136.558 2.737 1.403 2.62 2.647-.099 1.039-1.712 1.364-2.587 2.023-.669.504-1.26 1.148-2.034 1.476-.595.252-1.286.472-1.9.332z"/>
        <path fill="#d35f5f" stroke="#c87137" stroke-width="3.372" d="M26.413 206.114c-.327 2.407-1.374 5.504-3.473 5.786-1.101.149-2-1.545-2.936-2.394-1.393-1.262-3.272-2.249-3.979-4.004-.505-1.254-.147-2.725.056-4.064.15-.991.236-2.097.85-2.882.882-1.126 2.28-2.271 3.692-2.14 1.497.14 2.543 1.736 3.444 2.957.842 1.141 1.263 2.557 1.706 3.91.301.918.764 1.914.64 2.83zM11.36 200.4c-1.425 1.954-3.65 4.032-5.783 3.386-1.945-.59-2.557-3.466-2.742-5.516-.104-1.144.683-2.193.951-3.308.294-1.22.133-2.59.72-3.696a5.24 5.24 0 0 1 2.108-2.114c1.584-.851 3.802-2.092 5.276-1.056 1.319.927.75 3.19.788 4.818.037 1.574-.24 3.146-.541 4.69-.186.95-.235 2.053-.778 2.796zM95.722 169.104c-2.13-.686-5.601-.803-6-3.034-.458-2.567 2.986-4.503 5.256-5.726 1.53-.824 3.414-1.022 5.134-.815 1.326.16 2.382 1.333 3.702 1.551 1.932.32 4.74-2.013 5.86-.407 1.369 1.96-1.139 4.967-2.936 6.544-1.207 1.059-3.066.947-4.615 1.384-1.183.333-2.327.88-3.572.943-.957.05-1.92-.147-2.829-.44zM141.128 193.56c1.97 1.381 4.221 3.726 3.524 5.755-.366 1.065-2.26 1.116-3.429 1.581-1.738.693-3.453 1.951-5.315 1.8-1.33-.108-2.463-1.095-3.55-1.882-.803-.583-1.737-1.16-2.15-2.07-.593-1.306-1.088-3.173-.219-4.308.985-1.286 3.138-.664 4.72-.958 1.207-.224 2.395-.664 3.64-.614.958.039 2.03.171 2.779.697z"/>
    </g>
</svg>
