<svg xmlns="http://www.w3.org/2000/svg" cursor="default" version="1.1" viewBox="0 0 256 256">
    <path fill="#deaa87" fill-rule="evenodd" d="M-.357-.786v258.929l258.209.006-.008-258.934z"/>
    <path fill="#de8787" fill-opacity="1" fill-rule="evenodd" d="M119.764 144.067a7.287 7.67 0 0 1-7.286 7.67 7.287 7.67 0 0 1-7.287-7.67 7.287 7.67 0 0 1 7.287-7.67 7.287 7.67 0 0 1 7.287 7.67zm-91.72 62.682a7.287 7.67 0 0 1-7.287 7.67 7.287 7.67 0 0 1-7.287-7.67 7.287 7.67 0 0 1 7.287-7.67 7.287 7.67 0 0 1 7.287 7.67zm183.441 31.34a7.287 7.67 0 0 1-7.287 7.67 7.287 7.67 0 0 1-7.286-7.67 7.287 7.67 0 0 1 7.286-7.67 7.287 7.67 0 0 1 7.287 7.67zM89.191 206.75a7.287 7.67 0 0 1-7.287 7.67 7.287 7.67 0 0 1-7.287-7.67 7.287 7.67 0 0 1 7.287-7.67 7.287 7.67 0 0 1 7.287 7.67zm-61.147-62.682a7.287 7.67 0 0 1-7.287 7.67 7.287 7.67 0 0 1-7.287-7.67 7.287 7.67 0 0 1 7.287-7.67 7.287 7.67 0 0 1 7.287 7.67zm183.441-62.68a7.287 7.67 0 0 1-7.287 7.67 7.287 7.67 0 0 1-7.286-7.67 7.287 7.67 0 0 1 7.286-7.671 7.287 7.67 0 0 1 7.287 7.67zm-122.294 0a7.287 7.67 0 0 1-7.287 7.67 7.287 7.67 0 0 1-7.287-7.67 7.287 7.67 0 0 1 7.287-7.671 7.287 7.67 0 0 1 7.287 7.67zm91.72-62.682a7.287 7.67 0 0 1-7.286 7.67 7.287 7.67 0 0 1-7.287-7.67 7.287 7.67 0 0 1 7.287-7.67 7.287 7.67 0 0 1 7.287 7.67zm-30.573 0a7.287 7.67 0 0 1-7.287 7.67 7.287 7.67 0 0 1-7.286-7.67 7.287 7.67 0 0 1 7.286-7.67 7.287 7.67 0 0 1 7.287 7.67zm-61.147 31.34a7.287 7.67 0 0 1-7.287 7.67 7.287 7.67 0 0 1-7.287-7.67 7.287 7.67 0 0 1 7.287-7.67 7.287 7.67 0 0 1 7.287 7.67zm-30.574 0a7.287 7.67 0 0 1-7.286 7.67 7.287 7.67 0 0 1-7.287-7.67 7.287 7.67 0 0 1 7.287-7.67 7.287 7.67 0 0 1 7.286 7.67zm0 62.682a7.287 7.67 0 0 1-7.286 7.67 7.287 7.67 0 0 1-7.287-7.67 7.287 7.67 0 0 1 7.287-7.67 7.287 7.67 0 0 1 7.286 7.67zm61.148 62.68a7.287 7.67 0 0 1-7.287 7.671 7.287 7.67 0 0 1-7.287-7.67 7.287 7.67 0 0 1 7.287-7.67 7.287 7.67 0 0 1 7.287 7.67zm91.72 0a7.287 7.67 0 0 1-7.287 7.671 7.287 7.67 0 0 1-7.286-7.67 7.287 7.67 0 0 1 7.286-7.67 7.287 7.67 0 0 1 7.287 7.67zM28.044 238.09a7.287 7.67 0 0 1-7.287 7.67 7.287 7.67 0 0 1-7.287-7.67 7.287 7.67 0 0 1 7.287-7.67 7.287 7.67 0 0 1 7.287 7.67zm0-62.681a7.287 7.67 0 0 1-7.287 7.67 7.287 7.67 0 0 1-7.287-7.67 7.287 7.67 0 0 1 7.287-7.67 7.287 7.67 0 0 1 7.287 7.67zM242.059 50.045a7.287 7.67 0 0 1-7.287 7.67 7.287 7.67 0 0 1-7.287-7.67 7.287 7.67 0 0 1 7.287-7.67 7.287 7.67 0 0 1 7.287 7.67zm-91.72 0a7.287 7.67 0 0 1-7.288 7.67 7.287 7.67 0 0 1-7.286-7.67 7.287 7.67 0 0 1 7.286-7.67 7.287 7.67 0 0 1 7.287 7.67zm-30.575 62.682a7.287 7.67 0 0 1-7.286 7.67 7.287 7.67 0 0 1-7.287-7.67 7.287 7.67 0 0 1 7.287-7.67 7.287 7.67 0 0 1 7.287 7.67zM58.617 238.089a7.287 7.67 0 0 1-7.286 7.67 7.287 7.67 0 0 1-7.287-7.67 7.287 7.67 0 0 1 7.287-7.67 7.287 7.67 0 0 1 7.286 7.67zm122.295 0a7.287 7.67 0 0 1-7.287 7.67 7.287 7.67 0 0 1-7.287-7.67 7.287 7.67 0 0 1 7.287-7.67 7.287 7.67 0 0 1 7.287 7.67zm61.147 0a7.287 7.67 0 0 1-7.287 7.67 7.287 7.67 0 0 1-7.287-7.67 7.287 7.67 0 0 1 7.287-7.67 7.287 7.67 0 0 1 7.287 7.67zm-61.147-31.34a7.287 7.67 0 0 1-7.287 7.67 7.287 7.67 0 0 1-7.287-7.67 7.287 7.67 0 0 1 7.287-7.67 7.287 7.67 0 0 1 7.287 7.67zm30.573 0a7.287 7.67 0 0 1-7.287 7.67 7.287 7.67 0 0 1-7.286-7.67 7.287 7.67 0 0 1 7.286-7.67 7.287 7.67 0 0 1 7.287 7.67zM150.338 81.386a7.287 7.67 0 0 1-7.287 7.67 7.287 7.67 0 0 1-7.286-7.67 7.287 7.67 0 0 1 7.286-7.67 7.287 7.67 0 0 1 7.287 7.67zm-30.573 0a7.287 7.67 0 0 1-7.287 7.67 7.287 7.67 0 0 1-7.287-7.67 7.287 7.67 0 0 1 7.287-7.67 7.287 7.67 0 0 1 7.287 7.67zm122.294-62.681a7.287 7.67 0 0 1-7.287 7.67 7.287 7.67 0 0 1-7.287-7.67 7.287 7.67 0 0 1 7.287-7.67 7.287 7.67 0 0 1 7.287 7.67zm-30.574 94.022a7.287 7.67 0 0 1-7.287 7.67 7.287 7.67 0 0 1-7.286-7.67 7.287 7.67 0 0 1 7.286-7.67 7.287 7.67 0 0 1 7.287 7.67zm-30.573 31.34a7.287 7.67 0 0 1-7.287 7.67 7.287 7.67 0 0 1-7.287-7.67 7.287 7.67 0 0 1 7.287-7.67 7.287 7.67 0 0 1 7.287 7.67zm61.147 0a7.287 7.67 0 0 1-7.287 7.67 7.287 7.67 0 0 1-7.287-7.67 7.287 7.67 0 0 1 7.287-7.67 7.287 7.67 0 0 1 7.287 7.67zm-183.442 31.34a7.287 7.67 0 0 1-7.286 7.671 7.287 7.67 0 0 1-7.287-7.67 7.287 7.67 0 0 1 7.287-7.67 7.287 7.67 0 0 1 7.286 7.67zM211.485 50.046a7.287 7.67 0 0 1-7.287 7.67 7.287 7.67 0 0 1-7.286-7.67 7.287 7.67 0 0 1 7.286-7.67 7.287 7.67 0 0 1 7.287 7.67zm30.574 62.682a7.287 7.67 0 0 1-7.287 7.67 7.287 7.67 0 0 1-7.287-7.67 7.287 7.67 0 0 1 7.287-7.67 7.287 7.67 0 0 1 7.287 7.67zm-61.147 0a7.287 7.67 0 0 1-7.287 7.67 7.287 7.67 0 0 1-7.287-7.67 7.287 7.67 0 0 1 7.287-7.67 7.287 7.67 0 0 1 7.287 7.67zm-91.721 31.34a7.287 7.67 0 0 1-7.287 7.67 7.287 7.67 0 0 1-7.287-7.67 7.287 7.67 0 0 1 7.287-7.67 7.287 7.67 0 0 1 7.287 7.67zm30.574 94.022a7.287 7.67 0 0 1-7.287 7.67 7.287 7.67 0 0 1-7.287-7.67 7.287 7.67 0 0 1 7.287-7.67 7.287 7.67 0 0 1 7.287 7.67zm-61.148-31.34a7.287 7.67 0 0 1-7.286 7.67 7.287 7.67 0 0 1-7.287-7.67 7.287 7.67 0 0 1 7.287-7.67 7.287 7.67 0 0 1 7.286 7.67zM180.912 81.386a7.287 7.67 0 0 1-7.287 7.67 7.287 7.67 0 0 1-7.287-7.67 7.287 7.67 0 0 1 7.287-7.67 7.287 7.67 0 0 1 7.287 7.67zm30.573-62.681a7.287 7.67 0 0 1-7.287 7.67 7.287 7.67 0 0 1-7.286-7.67 7.287 7.67 0 0 1 7.286-7.67 7.287 7.67 0 0 1 7.287 7.67zm-122.294 0a7.287 7.67 0 0 1-7.287 7.67 7.287 7.67 0 0 1-7.287-7.67 7.287 7.67 0 0 1 7.287-7.67 7.287 7.67 0 0 1 7.287 7.67zm-30.574 0a7.287 7.67 0 0 1-7.286 7.67 7.287 7.67 0 0 1-7.287-7.67 7.287 7.67 0 0 1 7.287-7.67 7.287 7.67 0 0 1 7.286 7.67zm-30.573 31.34a7.287 7.67 0 0 1-7.287 7.67 7.287 7.67 0 0 1-7.287-7.67 7.287 7.67 0 0 1 7.287-7.67 7.287 7.67 0 0 1 7.287 7.67zm0-31.34a7.287 7.67 0 0 1-7.287 7.67 7.287 7.67 0 0 1-7.287-7.67 7.287 7.67 0 0 1 7.287-7.67 7.287 7.67 0 0 1 7.287 7.67zm0 94.022a7.287 7.67 0 0 1-7.287 7.67 7.287 7.67 0 0 1-7.287-7.67 7.287 7.67 0 0 1 7.287-7.67 7.287 7.67 0 0 1 7.287 7.67zm61.147 62.68a7.287 7.67 0 0 1-7.287 7.671 7.287 7.67 0 0 1-7.287-7.67 7.287 7.67 0 0 1 7.287-7.67 7.287 7.67 0 0 1 7.287 7.67zm91.72 0a7.287 7.67 0 0 1-7.286 7.671 7.287 7.67 0 0 1-7.287-7.67 7.287 7.67 0 0 1 7.287-7.67 7.287 7.67 0 0 1 7.287 7.67zm61.148 31.342a7.287 7.67 0 0 1-7.287 7.67 7.287 7.67 0 0 1-7.287-7.67 7.287 7.67 0 0 1 7.287-7.67 7.287 7.67 0 0 1 7.287 7.67zM58.617 144.067a7.287 7.67 0 0 1-7.286 7.67 7.287 7.67 0 0 1-7.287-7.67 7.287 7.67 0 0 1 7.287-7.67 7.287 7.67 0 0 1 7.286 7.67zm183.442-62.68a7.287 7.67 0 0 1-7.287 7.67 7.287 7.67 0 0 1-7.287-7.67 7.287 7.67 0 0 1 7.287-7.671 7.287 7.67 0 0 1 7.287 7.67zM119.765 50.044a7.287 7.67 0 0 1-7.287 7.67 7.287 7.67 0 0 1-7.287-7.67 7.287 7.67 0 0 1 7.287-7.67 7.287 7.67 0 0 1 7.287 7.67zM89.19 112.727a7.287 7.67 0 0 1-7.287 7.67 7.287 7.67 0 0 1-7.287-7.67 7.287 7.67 0 0 1 7.287-7.67 7.287 7.67 0 0 1 7.287 7.67zm61.147 62.68a7.287 7.67 0 0 1-7.287 7.671 7.287 7.67 0 0 1-7.286-7.67 7.287 7.67 0 0 1 7.286-7.67 7.287 7.67 0 0 1 7.287 7.67zm91.72 0a7.287 7.67 0 0 1-7.286 7.671 7.287 7.67 0 0 1-7.287-7.67 7.287 7.67 0 0 1 7.287-7.67 7.287 7.67 0 0 1 7.287 7.67zM89.192 238.09a7.287 7.67 0 0 1-7.287 7.67 7.287 7.67 0 0 1-7.287-7.67 7.287 7.67 0 0 1 7.287-7.67 7.287 7.67 0 0 1 7.287 7.67zm61.147 0a7.287 7.67 0 0 1-7.287 7.67 7.287 7.67 0 0 1-7.286-7.67 7.287 7.67 0 0 1 7.286-7.67 7.287 7.67 0 0 1 7.287 7.67zm-30.573-31.34a7.287 7.67 0 0 1-7.287 7.67 7.287 7.67 0 0 1-7.287-7.67 7.287 7.67 0 0 1 7.287-7.67 7.287 7.67 0 0 1 7.287 7.67zm30.573 0a7.287 7.67 0 0 1-7.287 7.67 7.287 7.67 0 0 1-7.286-7.67 7.287 7.67 0 0 1 7.286-7.67 7.287 7.67 0 0 1 7.287 7.67zM58.618 81.386a7.287 7.67 0 0 1-7.287 7.67 7.287 7.67 0 0 1-7.287-7.67 7.287 7.67 0 0 1 7.287-7.67 7.287 7.67 0 0 1 7.286 7.67zm-30.574 0a7.287 7.67 0 0 1-7.287 7.67 7.287 7.67 0 0 1-7.287-7.67 7.287 7.67 0 0 1 7.287-7.67 7.287 7.67 0 0 1 7.287 7.67zm91.72-62.681a7.287 7.67 0 0 1-7.286 7.67 7.287 7.67 0 0 1-7.287-7.67 7.287 7.67 0 0 1 7.287-7.67 7.287 7.67 0 0 1 7.287 7.67zm30.574 94.022a7.287 7.67 0 0 1-7.287 7.67 7.287 7.67 0 0 1-7.286-7.67 7.287 7.67 0 0 1 7.286-7.67 7.287 7.67 0 0 1 7.287 7.67zm0 31.34a7.287 7.67 0 0 1-7.287 7.67 7.287 7.67 0 0 1-7.286-7.67 7.287 7.67 0 0 1 7.286-7.67 7.287 7.67 0 0 1 7.287 7.67zm61.147 0a7.287 7.67 0 0 1-7.287 7.67 7.287 7.67 0 0 1-7.286-7.67 7.287 7.67 0 0 1 7.286-7.67 7.287 7.67 0 0 1 7.287 7.67zm-30.573-94.022a7.287 7.67 0 0 1-7.287 7.67 7.287 7.67 0 0 1-7.287-7.67 7.287 7.67 0 0 1 7.287-7.67 7.287 7.67 0 0 1 7.287 7.67zm-45.578 78.964a7.287 7.67 0 0 1-7.287 7.67 7.287 7.67 0 0 1-7.287-7.67 7.287 7.67 0 0 1 7.287-7.67 7.287 7.67 0 0 1 7.287 7.67zm-91.72 62.682a7.287 7.67 0 0 1-7.288 7.67 7.287 7.67 0 0 1-7.286-7.67 7.287 7.67 0 0 1 7.286-7.67 7.287 7.67 0 0 1 7.287 7.67zm183.44 31.34a7.287 7.67 0 0 1-7.286 7.67 7.287 7.67 0 0 1-7.287-7.67 7.287 7.67 0 0 1 7.287-7.67 7.287 7.67 0 0 1 7.287 7.67zm-183.44 31.34a7.287 7.67 0 0 1-7.288 7.671 7.287 7.67 0 0 1-7.286-7.67 7.287 7.67 0 0 1 7.286-7.67 7.287 7.67 0 0 1 7.287 7.67zm30.573 0a7.287 7.67 0 0 1-7.287 7.671 7.287 7.67 0 0 1-7.287-7.67 7.287 7.67 0 0 1 7.287-7.67 7.287 7.67 0 0 1 7.287 7.67zm30.573-62.68a7.287 7.67 0 0 1-7.286 7.67 7.287 7.67 0 0 1-7.287-7.67 7.287 7.67 0 0 1 7.287-7.67 7.287 7.67 0 0 1 7.286 7.67zm-61.147-62.682a7.287 7.67 0 0 1-7.287 7.67 7.287 7.67 0 0 1-7.286-7.67 7.287 7.67 0 0 1 7.286-7.67 7.287 7.67 0 0 1 7.287 7.67zm183.442-62.681a7.287 7.67 0 0 1-7.287 7.67 7.287 7.67 0 0 1-7.287-7.67 7.287 7.67 0 0 1 7.287-7.67 7.287 7.67 0 0 1 7.287 7.67zm-122.295 0a7.287 7.67 0 0 1-7.286 7.67 7.287 7.67 0 0 1-7.287-7.67 7.287 7.67 0 0 1 7.287-7.67 7.287 7.67 0 0 1 7.286 7.67zm-91.72 0a7.287 7.67 0 0 1-7.287 7.67 7.287 7.67 0 0 1-7.287-7.67 7.287 7.67 0 0 1 7.287-7.67 7.287 7.67 0 0 1 7.287 7.67zm0-31.34a7.287 7.67 0 0 1-7.287 7.67 7.287 7.67 0 0 1-7.287-7.67 7.287 7.67 0 0 1 7.287-7.67 7.287 7.67 0 0 1 7.287 7.67zM196.48 3.646a7.287 7.67 0 0 1-7.287 7.67 7.287 7.67 0 0 1-7.287-7.67 7.287 7.67 0 0 1 7.287-7.67 7.287 7.67 0 0 1 7.287 7.67zm-30.574 0a7.287 7.67 0 0 1-7.286 7.67 7.287 7.67 0 0 1-7.287-7.67 7.287 7.67 0 0 1 7.287-7.67 7.287 7.67 0 0 1 7.286 7.67zm-61.147 31.34a7.287 7.67 0 0 1-7.286 7.67 7.287 7.67 0 0 1-7.287-7.67 7.287 7.67 0 0 1 7.287-7.67 7.287 7.67 0 0 1 7.286 7.67zm-30.573 0a7.287 7.67 0 0 1-7.287 7.67 7.287 7.67 0 0 1-7.287-7.67 7.287 7.67 0 0 1 7.287-7.67 7.287 7.67 0 0 1 7.287 7.67zm0 62.682a7.287 7.67 0 0 1-7.287 7.67 7.287 7.67 0 0 1-7.287-7.67 7.287 7.67 0 0 1 7.287-7.67 7.287 7.67 0 0 1 7.287 7.67zm61.147 62.68a7.287 7.67 0 0 1-7.287 7.671 7.287 7.67 0 0 1-7.287-7.67 7.287 7.67 0 0 1 7.287-7.67 7.287 7.67 0 0 1 7.287 7.67zm91.72 0a7.287 7.67 0 0 1-7.286 7.671 7.287 7.67 0 0 1-7.287-7.67 7.287 7.67 0 0 1 7.287-7.67 7.287 7.67 0 0 1 7.287 7.67zm-183.44 62.682a7.287 7.67 0 0 1-7.288 7.67 7.287 7.67 0 0 1-7.286-7.67 7.287 7.67 0 0 1 7.286-7.67 7.287 7.67 0 0 1 7.287 7.67zm122.293 31.34a7.287 7.67 0 0 1-7.286 7.671 7.287 7.67 0 0 1-7.287-7.67 7.287 7.67 0 0 1 7.287-7.67 7.287 7.67 0 0 1 7.286 7.67zm30.574 0a7.287 7.67 0 0 1-7.287 7.671 7.287 7.67 0 0 1-7.287-7.67 7.287 7.67 0 0 1 7.287-7.67 7.287 7.67 0 0 1 7.287 7.67zm30.574 0a7.287 7.67 0 0 1-7.287 7.671 7.287 7.67 0 0 1-7.287-7.67 7.287 7.67 0 0 1 7.287-7.67 7.287 7.67 0 0 1 7.287 7.67zM43.613 160.35a7.287 7.67 0 0 1-7.287 7.67 7.287 7.67 0 0 1-7.286-7.67 7.287 7.67 0 0 1 7.286-7.67 7.287 7.67 0 0 1 7.287 7.67zm-30.573 0a7.287 7.67 0 0 1-7.287 7.67 7.287 7.67 0 0 1-7.287-7.67 7.287 7.67 0 0 1 7.287-7.67 7.287 7.67 0 0 1 7.287 7.67zm0-62.681a7.287 7.67 0 0 1-7.287 7.67 7.287 7.67 0 0 1-7.287-7.67 7.287 7.67 0 0 1 7.287-7.67 7.287 7.67 0 0 1 7.287 7.67zm244.588-62.682a7.287 7.67 0 0 1-7.287 7.67 7.287 7.67 0 0 1-7.286-7.67 7.287 7.67 0 0 1 7.286-7.67 7.287 7.67 0 0 1 7.287 7.67zm-91.72 0a7.287 7.67 0 0 1-7.287 7.67 7.287 7.67 0 0 1-7.287-7.67 7.287 7.67 0 0 1 7.287-7.67 7.287 7.67 0 0 1 7.286 7.67zM135.333 97.67a7.287 7.67 0 0 1-7.287 7.67 7.287 7.67 0 0 1-7.287-7.67 7.287 7.67 0 0 1 7.287-7.67 7.287 7.67 0 0 1 7.287 7.67zM74.187 223.03a7.287 7.67 0 0 1-7.287 7.67 7.287 7.67 0 0 1-7.287-7.67 7.287 7.67 0 0 1 7.287-7.67 7.287 7.67 0 0 1 7.287 7.67zm122.294 0a7.287 7.67 0 0 1-7.287 7.67 7.287 7.67 0 0 1-7.287-7.67 7.287 7.67 0 0 1 7.287-7.67 7.287 7.67 0 0 1 7.287 7.67zm61.147 0a7.287 7.67 0 0 1-7.287 7.67 7.287 7.67 0 0 1-7.286-7.67 7.287 7.67 0 0 1 7.286-7.67 7.287 7.67 0 0 1 7.287 7.67zm-61.147-31.34a7.287 7.67 0 0 1-7.287 7.67 7.287 7.67 0 0 1-7.287-7.67 7.287 7.67 0 0 1 7.287-7.67 7.287 7.67 0 0 1 7.287 7.67zm30.574 0a7.287 7.67 0 0 1-7.287 7.67 7.287 7.67 0 0 1-7.287-7.67 7.287 7.67 0 0 1 7.287-7.67 7.287 7.67 0 0 1 7.287 7.67zM165.907 66.328a7.287 7.67 0 0 1-7.286 7.67 7.287 7.67 0 0 1-7.287-7.67 7.287 7.67 0 0 1 7.287-7.67 7.287 7.67 0 0 1 7.286 7.67zm-30.573 0a7.287 7.67 0 0 1-7.287 7.67 7.287 7.67 0 0 1-7.287-7.67 7.287 7.67 0 0 1 7.287-7.67 7.287 7.67 0 0 1 7.287 7.67zM257.628 3.647a7.287 7.67 0 0 1-7.287 7.67 7.287 7.67 0 0 1-7.286-7.67 7.287 7.67 0 0 1 7.286-7.67 7.287 7.67 0 0 1 7.287 7.67zm-30.573 94.022a7.287 7.67 0 0 1-7.287 7.67 7.287 7.67 0 0 1-7.287-7.67 7.287 7.67 0 0 1 7.287-7.67 7.287 7.67 0 0 1 7.287 7.67zm-30.574 31.34a7.287 7.67 0 0 1-7.287 7.67 7.287 7.67 0 0 1-7.287-7.67 7.287 7.67 0 0 1 7.287-7.67 7.287 7.67 0 0 1 7.287 7.67zm61.147 0a7.287 7.67 0 0 1-7.287 7.67 7.287 7.67 0 0 1-7.286-7.67 7.287 7.67 0 0 1 7.286-7.67 7.287 7.67 0 0 1 7.287 7.67zM74.187 160.35a7.287 7.67 0 0 1-7.287 7.671 7.287 7.67 0 0 1-7.287-7.67 7.287 7.67 0 0 1 7.287-7.67 7.287 7.67 0 0 1 7.287 7.67zM227.055 34.988a7.287 7.67 0 0 1-7.287 7.67 7.287 7.67 0 0 1-7.287-7.67 7.287 7.67 0 0 1 7.287-7.67 7.287 7.67 0 0 1 7.287 7.67zm30.573 62.682a7.287 7.67 0 0 1-7.287 7.67 7.287 7.67 0 0 1-7.286-7.67 7.287 7.67 0 0 1 7.286-7.67 7.287 7.67 0 0 1 7.287 7.67zm-61.147 0a7.287 7.67 0 0 1-7.287 7.67 7.287 7.67 0 0 1-7.287-7.67 7.287 7.67 0 0 1 7.287-7.67 7.287 7.67 0 0 1 7.287 7.67zm-91.72 31.34a7.287 7.67 0 0 1-7.287 7.67 7.287 7.67 0 0 1-7.287-7.67 7.287 7.67 0 0 1 7.287-7.67 7.287 7.67 0 0 1 7.286 7.67zM13.04 191.691a7.287 7.67 0 0 1-7.287 7.67 7.287 7.67 0 0 1-7.287-7.67 7.287 7.67 0 0 1 7.287-7.67 7.287 7.67 0 0 1 7.287 7.67zm122.294 31.34a7.287 7.67 0 0 1-7.287 7.67 7.287 7.67 0 0 1-7.287-7.67 7.287 7.67 0 0 1 7.287-7.67 7.287 7.67 0 0 1 7.287 7.67zm-61.147-31.34a7.287 7.67 0 0 1-7.287 7.67 7.287 7.67 0 0 1-7.287-7.67 7.287 7.67 0 0 1 7.287-7.67 7.287 7.67 0 0 1 7.287 7.67zM13.04 129.009a7.287 7.67 0 0 1-7.287 7.67 7.287 7.67 0 0 1-7.287-7.67 7.287 7.67 0 0 1 7.287-7.67 7.287 7.67 0 0 1 7.287 7.67zM196.48 66.328a7.287 7.67 0 0 1-7.287 7.67 7.287 7.67 0 0 1-7.287-7.67 7.287 7.67 0 0 1 7.287-7.67 7.287 7.67 0 0 1 7.287 7.67zM13.04 3.647a7.287 7.67 0 0 1-7.287 7.67 7.287 7.67 0 0 1-7.287-7.67 7.287 7.67 0 0 1 7.287-7.67 7.287 7.67 0 0 1 7.287 7.67zm214.015 0a7.287 7.67 0 0 1-7.287 7.67 7.287 7.67 0 0 1-7.287-7.67 7.287 7.67 0 0 1 7.287-7.67 7.287 7.67 0 0 1 7.287 7.67zm-122.295 0a7.287 7.67 0 0 1-7.286 7.67 7.287 7.67 0 0 1-7.287-7.67 7.287 7.67 0 0 1 7.287-7.67 7.287 7.67 0 0 1 7.286 7.67zm-30.573 0a7.287 7.67 0 0 1-7.287 7.67 7.287 7.67 0 0 1-7.287-7.67 7.287 7.67 0 0 1 7.287-7.67 7.287 7.67 0 0 1 7.287 7.67zm-30.574 31.34a7.287 7.67 0 0 1-7.287 7.67 7.287 7.67 0 0 1-7.286-7.67 7.287 7.67 0 0 1 7.286-7.67 7.287 7.67 0 0 1 7.287 7.67zm0-31.34a7.287 7.67 0 0 1-7.287 7.67 7.287 7.67 0 0 1-7.286-7.67 7.287 7.67 0 0 1 7.286-7.67 7.287 7.67 0 0 1 7.287 7.67zm0 94.022a7.287 7.67 0 0 1-7.287 7.67 7.287 7.67 0 0 1-7.286-7.67 7.287 7.67 0 0 1 7.286-7.67 7.287 7.67 0 0 1 7.287 7.67zm61.147 62.68a7.287 7.67 0 0 1-7.286 7.671 7.287 7.67 0 0 1-7.287-7.67 7.287 7.67 0 0 1 7.287-7.67 7.287 7.67 0 0 1 7.286 7.67zm91.721 0a7.287 7.67 0 0 1-7.287 7.671 7.287 7.67 0 0 1-7.287-7.67 7.287 7.67 0 0 1 7.287-7.67 7.287 7.67 0 0 1 7.287 7.67zm61.147 31.342a7.287 7.67 0 0 1-7.287 7.67 7.287 7.67 0 0 1-7.286-7.67 7.287 7.67 0 0 1 7.286-7.67 7.287 7.67 0 0 1 7.287 7.67zm0 62.68a7.287 7.67 0 0 1-7.287 7.671 7.287 7.67 0 0 1-7.286-7.67 7.287 7.67 0 0 1 7.286-7.67 7.287 7.67 0 0 1 7.287 7.67zm-244.588 0a7.287 7.67 0 0 1-7.287 7.671 7.287 7.67 0 0 1-7.287-7.67 7.287 7.67 0 0 1 7.287-7.67 7.287 7.67 0 0 1 7.287 7.67zm91.72 0a7.287 7.67 0 0 1-7.286 7.671 7.287 7.67 0 0 1-7.287-7.67 7.287 7.67 0 0 1 7.287-7.67 7.287 7.67 0 0 1 7.286 7.67zm30.574 0a7.287 7.67 0 0 1-7.287 7.671 7.287 7.67 0 0 1-7.287-7.67 7.287 7.67 0 0 1 7.287-7.67 7.287 7.67 0 0 1 7.287 7.67zM74.187 129.01a7.287 7.67 0 0 1-7.287 7.67 7.287 7.67 0 0 1-7.287-7.67 7.287 7.67 0 0 1 7.287-7.67 7.287 7.67 0 0 1 7.287 7.67zm183.441-62.681a7.287 7.67 0 0 1-7.287 7.67 7.287 7.67 0 0 1-7.286-7.67 7.287 7.67 0 0 1 7.286-7.67 7.287 7.67 0 0 1 7.287 7.67zm-122.294-31.34a7.287 7.67 0 0 1-7.287 7.67 7.287 7.67 0 0 1-7.287-7.67 7.287 7.67 0 0 1 7.287-7.67 7.287 7.67 0 0 1 7.287 7.67zm-30.574 62.68a7.287 7.67 0 0 1-7.286 7.67 7.287 7.67 0 0 1-7.287-7.67 7.287 7.67 0 0 1 7.287-7.67 7.287 7.67 0 0 1 7.286 7.67zm61.147 62.682a7.287 7.67 0 0 1-7.286 7.67 7.287 7.67 0 0 1-7.287-7.67 7.287 7.67 0 0 1 7.287-7.67 7.287 7.67 0 0 1 7.286 7.67zm91.721 0a7.287 7.67 0 0 1-7.287 7.67 7.287 7.67 0 0 1-7.286-7.67 7.287 7.67 0 0 1 7.286-7.67 7.287 7.67 0 0 1 7.287 7.67zM13.04 223.03a7.287 7.67 0 0 1-7.287 7.67 7.287 7.67 0 0 1-7.287-7.67 7.287 7.67 0 0 1 7.287-7.67 7.287 7.67 0 0 1 7.287 7.67zm91.72 0a7.287 7.67 0 0 1-7.286 7.67 7.287 7.67 0 0 1-7.287-7.67 7.287 7.67 0 0 1 7.287-7.67 7.287 7.67 0 0 1 7.286 7.67zm61.147 0a7.287 7.67 0 0 1-7.286 7.67 7.287 7.67 0 0 1-7.287-7.67 7.287 7.67 0 0 1 7.287-7.67 7.287 7.67 0 0 1 7.286 7.67zm-30.573-31.34a7.287 7.67 0 0 1-7.287 7.67 7.287 7.67 0 0 1-7.287-7.67 7.287 7.67 0 0 1 7.287-7.67 7.287 7.67 0 0 1 7.287 7.67zm30.573 0a7.287 7.67 0 0 1-7.286 7.67 7.287 7.67 0 0 1-7.287-7.67 7.287 7.67 0 0 1 7.287-7.67 7.287 7.67 0 0 1 7.286 7.67zM74.187 66.328a7.287 7.67 0 0 1-7.287 7.67 7.287 7.67 0 0 1-7.287-7.67 7.287 7.67 0 0 1 7.287-7.67 7.287 7.67 0 0 1 7.287 7.67zm-30.574 0a7.287 7.67 0 0 1-7.287 7.67 7.287 7.67 0 0 1-7.286-7.67 7.287 7.67 0 0 1 7.286-7.67 7.287 7.67 0 0 1 7.287 7.67zm91.72-62.681a7.287 7.67 0 0 1-7.286 7.67 7.287 7.67 0 0 1-7.287-7.67 7.287 7.67 0 0 1 7.287-7.67 7.287 7.67 0 0 1 7.287 7.67zm30.574 94.022a7.287 7.67 0 0 1-7.286 7.67 7.287 7.67 0 0 1-7.287-7.67 7.287 7.67 0 0 1 7.287-7.67 7.287 7.67 0 0 1 7.286 7.67zm0 31.34a7.287 7.67 0 0 1-7.286 7.67 7.287 7.67 0 0 1-7.287-7.67 7.287 7.67 0 0 1 7.287-7.67 7.287 7.67 0 0 1 7.286 7.67zm61.148 0a7.287 7.67 0 0 1-7.287 7.67 7.287 7.67 0 0 1-7.287-7.67 7.287 7.67 0 0 1 7.287-7.67 7.287 7.67 0 0 1 7.287 7.67zM196.48 34.987a7.287 7.67 0 0 1-7.287 7.67 7.287 7.67 0 0 1-7.287-7.67 7.287 7.67 0 0 1 7.287-7.67 7.287 7.67 0 0 1 7.287 7.67z" opacity="1"/>
</svg>
