<svg xmlns="http://www.w3.org/2000/svg" cursor="default" viewBox="0 0 256 256">
    <g fill-rule="evenodd">
        <path fill="#ff8080" d="M-.282-.016v599.763l258.058.014-.008-599.776z"/>
        <path fill="#f61313" stroke="#000" stroke-width=".913" d="M-.639-.843h258.064v16.545H-.639z"/>
        <path fill="#f69513" stroke="#000" stroke-width=".913" d="M-.688 15.698h258.064v16.545H-.688z"/>
        <path fill="#f5f613" stroke="#000" stroke-width=".913" d="M-.729 32.351h258.064v16.545H-.729z"/>
        <path fill="#62f613" stroke="#000" stroke-width=".913" d="M-.729 48.896h258.064v16.545H-.729z"/>
        <path fill="#13f6a9" stroke="#000" stroke-width=".913" d="M-.774 65.384H257.29v16.545H-.774z"/>
        <path fill="#1336f6" stroke="#000" stroke-width=".913" d="M-.869 81.982h258.064v16.545H-.869z"/>
        <path fill="#b313f6" stroke="#000" stroke-width=".913" d="M-.995 98.946h258.064v16.545H-.995z"/>
        <path fill="#f61313" stroke="#000" stroke-width=".913" d="M-.628 115.524h258.064v16.545H-.628z"/>
        <path fill="#f69513" stroke="#000" stroke-width=".913" d="M-.677 132.065h258.064v16.545H-.677z"/>
        <path fill="#f5f613" stroke="#000" stroke-width=".913" d="M-.717 148.718h258.064v16.545H-.717z"/>
        <path fill="#62f613" stroke="#000" stroke-width=".913" d="M-.717 165.263h258.064v16.545H-.717z"/>
        <path fill="#13f6a9" stroke="#000" stroke-width=".913" d="M-.763 181.751h258.064v16.545H-.763z"/>
        <path fill="#1336f6" stroke="#000" stroke-width=".913" d="M-.858 198.35h258.064v16.545H-.858z"/>
        <path fill="#b313f6" stroke="#000" stroke-width=".913" d="M-.984 215.313H257.08v16.545H-.984z"/>
        <path fill="#f61313" stroke="#000" stroke-width=".913" d="M-.614 231.857H257.45v16.545H-.614z"/>
        <path fill="#f69513" stroke="#000" stroke-width=".913" d="M-.662 248.398h258.064v16.545H-.662z"/>
        <path fill="#f5f613" stroke="#000" stroke-width=".913" d="M-.703 265.051h258.064v16.545H-.703z"/>
        <path fill="#62f613" stroke="#000" stroke-width=".913" d="M-.703 281.596h258.064v16.545H-.703z"/>
        <path fill="#13f6a9" stroke="#000" stroke-width=".913" d="M-.749 298.084h258.064v16.545H-.749z"/>
        <path fill="#1336f6" stroke="#000" stroke-width=".913" d="M-.843 314.683h258.064v16.545H-.843z"/>
        <path fill="#b313f6" stroke="#000" stroke-width=".913" d="M-.97 331.646h258.064v16.545H-.97z"/>
        <path fill="#f61313" stroke="#000" stroke-width=".913" d="M-.603 348.224h258.064v16.545H-.603z"/>
        <path fill="#f69513" stroke="#000" stroke-width=".913" d="M-.651 364.765h258.064v16.545H-.651z"/>
        <path fill="#f5f613" stroke="#000" stroke-width=".913" d="M-.692 381.418h258.064v16.545H-.692z"/>
        <path fill="#62f613" stroke="#000" stroke-width=".913" d="M-.692 397.963h258.064v16.545H-.692z"/>
        <path fill="#13f6a9" stroke="#000" stroke-width=".913" d="M-.738 414.452h258.064v16.545H-.738z"/>
        <path fill="#1336f6" stroke="#000" stroke-width=".913" d="M-.832 431.05h258.064v16.545H-.832z"/>
        <path fill="#b313f6" stroke="#000" stroke-width=".913" d="M-.958 448.014h258.064v16.545H-.958z"/>
        <path fill="#f61313" stroke="#000" stroke-width=".913" d="M-.776 464.63h258.064v16.545H-.776z"/>
        <path fill="#f69513" stroke="#000" stroke-width=".913" d="M-.825 481.171h258.064v16.545H-.825z"/>
        <path fill="#f5f613" stroke="#000" stroke-width=".913" d="M-.865 497.824h258.064v16.545H-.865z"/>
        <path fill="#62f613" stroke="#000" stroke-width=".913" d="M-.865 514.369h258.064v16.545H-.865z"/>
        <path fill="#13f6a9" stroke="#000" stroke-width=".913" d="M-.911 530.857h258.064v16.545H-.911z"/>
        <path fill="#1336f6" stroke="#000" stroke-width=".913" d="M-1.006 547.456h258.064v16.545H-1.006z"/>
        <path fill="#b313f6" stroke="#000" stroke-width=".913" d="M-1.132 564.419h258.064v16.545H-1.132z"/>
        <path fill="#f61313" stroke="#000" stroke-width=".913" d="M-.838 580.929h258.064v16.545H-.838z"/>
    </g>
</svg>
