<?xml version="1.0" encoding="UTF-8" standalone="no"?>
<!-- Created with Inkscape (http://www.inkscape.org/) -->

<svg
   xmlns:dc="http://purl.org/dc/elements/1.1/"
   xmlns:cc="http://creativecommons.org/ns#"
   xmlns:rdf="http://www.w3.org/1999/02/22-rdf-syntax-ns#"
   xmlns:svg="http://www.w3.org/2000/svg"
   xmlns="http://www.w3.org/2000/svg"
   xmlns:sodipodi="http://sodipodi.sourceforge.net/DTD/sodipodi-0.dtd"
   xmlns:inkscape="http://www.inkscape.org/namespaces/inkscape"
   viewBox="0 0 256 256"
   version="1.1"
   id="svg8"
   inkscape:version="0.91 r13725"
   sodipodi:docname="tiger_striped.svg">
  <defs
     id="defs2">
    <inkscape:path-effect
       cusp_linecap_type="round"
       end_linecap_type="zerowidth"
       miter_limit="4"
       linejoin_type="round"
       start_linecap_type="zerowidth"
       interpolator_beta="0.2"
       interpolator_type="Linear"
       sort_points="true"
       offset_points="0,1.0316074"
       is_visible="true"
       id="path-effect4373"
       effect="powerstroke" />
    <inkscape:path-effect
       cusp_linecap_type="round"
       end_linecap_type="zerowidth"
       miter_limit="4"
       linejoin_type="round"
       start_linecap_type="zerowidth"
       interpolator_beta="0.2"
       interpolator_type="Linear"
       sort_points="true"
       offset_points="0.013183702,1.7710395"
       is_visible="true"
       id="path-effect4369"
       effect="powerstroke" />
    <inkscape:path-effect
       cusp_linecap_type="round"
       end_linecap_type="zerowidth"
       miter_limit="4"
       linejoin_type="round"
       start_linecap_type="zerowidth"
       interpolator_beta="0.2"
       interpolator_type="Linear"
       sort_points="true"
       offset_points="0.49208328,1.2419204"
       is_visible="true"
       id="path-effect4363"
       effect="powerstroke" />
    <inkscape:path-effect
       cusp_linecap_type="round"
       end_linecap_type="zerowidth"
       miter_limit="4"
       linejoin_type="round"
       start_linecap_type="zerowidth"
       interpolator_beta="0.2"
       interpolator_type="Linear"
       sort_points="true"
       offset_points="0.0070619804,2.8240094"
       is_visible="true"
       id="path-effect4341"
       effect="powerstroke" />
    <inkscape:path-effect
       cusp_linecap_type="round"
       end_linecap_type="zerowidth"
       miter_limit="4"
       linejoin_type="round"
       start_linecap_type="zerowidth"
       interpolator_beta="0.2"
       interpolator_type="Linear"
       sort_points="true"
       offset_points="0,1.3218327"
       is_visible="true"
       id="path-effect4335"
       effect="powerstroke" />
    <inkscape:path-effect
       cusp_linecap_type="round"
       end_linecap_type="zerowidth"
       miter_limit="4"
       linejoin_type="round"
       start_linecap_type="zerowidth"
       interpolator_beta="0.2"
       interpolator_type="Linear"
       sort_points="true"
       offset_points="0.084694799,0.50738917"
       is_visible="true"
       id="path-effect4416"
       effect="powerstroke" />
    <inkscape:path-effect
       cusp_linecap_type="round"
       end_linecap_type="zerowidth"
       miter_limit="4"
       linejoin_type="round"
       start_linecap_type="zerowidth"
       interpolator_beta="0.2"
       interpolator_type="Linear"
       sort_points="true"
       offset_points="0,0.5"
       is_visible="true"
       id="path-effect4202"
       effect="powerstroke" />
    <inkscape:path-effect
       cusp_linecap_type="round"
       end_linecap_type="zerowidth"
       miter_limit="4"
       linejoin_type="round"
       start_linecap_type="zerowidth"
       interpolator_beta="0.2"
       interpolator_type="Linear"
       sort_points="true"
       offset_points="0.089858733,0.1462269"
       is_visible="true"
       id="path-effect4610"
       effect="powerstroke" />
    <inkscape:path-effect
       cusp_linecap_type="round"
       end_linecap_type="zerowidth"
       miter_limit="4"
       linejoin_type="round"
       start_linecap_type="zerowidth"
       interpolator_beta="0.2"
       interpolator_type="Linear"
       sort_points="true"
       offset_points="0.29328208,0.12562291"
       is_visible="true"
       id="path-effect4606"
       effect="powerstroke" />
    <inkscape:path-effect
       cusp_linecap_type="round"
       end_linecap_type="zerowidth"
       miter_limit="4"
       linejoin_type="round"
       start_linecap_type="zerowidth"
       interpolator_beta="0.2"
       interpolator_type="Linear"
       sort_points="true"
       offset_points="0.52899141,0.21496312"
       is_visible="true"
       id="path-effect4584-7"
       effect="powerstroke" />
    <inkscape:path-effect
       cusp_linecap_type="round"
       end_linecap_type="zerowidth"
       miter_limit="4"
       linejoin_type="round"
       start_linecap_type="zerowidth"
       interpolator_beta="0.2"
       interpolator_type="Linear"
       sort_points="true"
       offset_points="0.52899141,0.21496312"
       is_visible="true"
       id="path-effect4584"
       effect="powerstroke" />
    <inkscape:path-effect
       cusp_linecap_type="round"
       end_linecap_type="zerowidth"
       miter_limit="4"
       linejoin_type="round"
       start_linecap_type="zerowidth"
       interpolator_beta="0.2"
       interpolator_type="Linear"
       sort_points="true"
       offset_points="0.52899141,0.21496313"
       is_visible="true"
       id="path-effect4584-79"
       effect="powerstroke" />
    <inkscape:path-effect
       cusp_linecap_type="round"
       end_linecap_type="zerowidth"
       miter_limit="4"
       linejoin_type="round"
       start_linecap_type="zerowidth"
       interpolator_beta="0.2"
       interpolator_type="Linear"
       sort_points="true"
       offset_points="0.52899141,0.21496313"
       is_visible="true"
       id="path-effect4584-7-5"
       effect="powerstroke" />
    <inkscape:path-effect
       cusp_linecap_type="round"
       end_linecap_type="zerowidth"
       miter_limit="4"
       linejoin_type="round"
       start_linecap_type="zerowidth"
       interpolator_beta="0.2"
       interpolator_type="Linear"
       sort_points="true"
       offset_points="0.29328208,0.12562291"
       is_visible="true"
       id="path-effect4606-3"
       effect="powerstroke" />
    <inkscape:path-effect
       cusp_linecap_type="round"
       end_linecap_type="zerowidth"
       miter_limit="4"
       linejoin_type="round"
       start_linecap_type="zerowidth"
       interpolator_beta="0.2"
       interpolator_type="Linear"
       sort_points="true"
       offset_points="0.089858733,0.1462269"
       is_visible="true"
       id="path-effect4610-4"
       effect="powerstroke" />
    <inkscape:path-effect
       cusp_linecap_type="round"
       end_linecap_type="zerowidth"
       miter_limit="4"
       linejoin_type="round"
       start_linecap_type="zerowidth"
       interpolator_beta="0.2"
       interpolator_type="Linear"
       sort_points="true"
       offset_points="0.0070619804,2.8240094"
       is_visible="true"
       id="path-effect4341-5"
       effect="powerstroke" />
  </defs>
  <sodipodi:namedview
     id="base"
     pagecolor="#ffffff"
     bordercolor="#666666"
     borderopacity="1.0"
     inkscape:pageopacity="0.0"
     inkscape:pageshadow="2"
     inkscape:zoom="1.979899"
     inkscape:cx="240.81962"
     inkscape:cy="149.2582"
     inkscape:document-units="px"
     inkscape:current-layer="layer1"
     showgrid="false"
     units="px"
     inkscape:pagecheckerboard="true"
     inkscape:window-width="1895"
     inkscape:window-height="1134"
     inkscape:window-x="25"
     inkscape:window-y="0"
     inkscape:window-maximized="1" />
  <metadata
     id="metadata5">
    <rdf:RDF>
      <cc:Work
         rdf:about="">
        <dc:format>image/svg+xml</dc:format>
        <dc:type
           rdf:resource="http://purl.org/dc/dcmitype/StillImage" />
        <dc:title />
      </cc:Work>
    </rdf:RDF>
  </metadata>
  <style
     id="style3">
    svg { cursor: default; }
  </style>
  <g
     inkscape:groupmode="layer"
     id="layer1"
     inkscape:label="Layer 1">
    <path
       style="fill:#ff8080;fill-opacity:1;fill-rule:evenodd;stroke:none;stroke-width:1px;stroke-linecap:butt;stroke-linejoin:miter;stroke-opacity:1"
       d="m -0.35714286,-0.78571429 0,258.92857429 258.20870286,0.006 -0.008,-258.93415429 z"
       id="path4168"
       inkscape:connector-curvature="0"
       sodipodi:nodetypes="ccccc" />
    <path
       style="fill:#000000;fill-opacity:1;fill-rule:evenodd;stroke:#000000;stroke-width:0.48406836px;stroke-linecap:butt;stroke-linejoin:miter;stroke-opacity:1"
       d="m 20.194152,129.01382 c 0,0 -7.286584,57.16344 -5.431027,85.74081 0.316091,4.86811 0.947282,9.7139 2.806174,14.36353 2.419833,6.05272 5.342932,12.27383 10.726165,17.26858 3.044768,2.82505 11.687017,6.70542 11.687017,6.70542 0,0 -4.713334,-5.51626 -6.561133,-8.45466 -3.546465,-5.63966 -6.666292,-11.47157 -8.611487,-17.49241 -2.002185,-6.19724 -2.526425,-12.57436 -3.07553,-18.95011 -0.899418,-10.44329 -0.155111,-20.96372 -0.343718,-31.44397 -0.28641,-15.91482 -1.196461,-47.73719 -1.196461,-47.73719 z"
       id="path4170-1"
       inkscape:connector-curvature="0"
       sodipodi:nodetypes="caaacaaaac" />
    <path
       style="fill:#000000;fill-opacity:1;fill-rule:evenodd;stroke:#000000;stroke-width:0.48406836px;stroke-linecap:butt;stroke-linejoin:miter;stroke-opacity:1"
       d="m 33.640273,179.35501 c -3.05863,7.17175 -4.890107,14.98676 -5.351271,22.76985 -0.162627,2.74467 -0.03813,5.54247 0.925676,8.19635 2.049556,5.64354 5.129344,11.31873 10.146238,15.9286 3.063385,2.81485 11.68702,6.70542 11.68702,6.70542 0,0 -4.705743,-5.51868 -6.561135,-8.45466 -4.205976,-6.65557 -7.634458,-12.96292 -8.611489,-17.49241 -1.355731,-6.28514 -1.195273,-7.64821 -0.615104,-11.44295 2.249717,-14.71491 15.738967,-42.97175 15.738967,-42.97175 0,0 -13.187687,16.98107 -17.358902,26.76155 z"
       id="path4170-1-3"
       inkscape:connector-curvature="0"
       sodipodi:nodetypes="aaaacssaca" />
    <path
       style="fill:#000000;fill-opacity:1;fill-rule:evenodd;stroke:#000000;stroke-width:0.48406836px;stroke-linecap:butt;stroke-linejoin:miter;stroke-opacity:1"
       d="m 96.865038,152.74058 c -1.065831,20.64509 -1.349265,41.42399 1.387506,62.00224 0.777405,5.84544 1.315359,11.866 4.255986,17.35271 2.80569,5.23491 7.24873,10.08117 12.46595,14.2794 3.31454,2.66715 11.68702,6.70542 11.68702,6.70542 0,0 -4.86981,-5.31381 -6.56113,-8.45467 -6.76569,-12.56417 -11.07442,-26.51891 -13.79006,-40.52812 -2.51991,-12.99949 -1.6075,-26.43543 -2.18267,-39.6644 -0.80047,-18.41084 -1.76486,-55.25652 -1.76486,-55.25652 0,0 -4.743118,28.94691 -5.497742,43.56394 z"
       id="path4170-1-6"
       inkscape:connector-curvature="0"
       sodipodi:nodetypes="aaaacaaaca" />
    <path
       style="fill:#000000;fill-opacity:1;fill-rule:evenodd;stroke:#000000;stroke-width:0.48406836px;stroke-linecap:butt;stroke-linejoin:miter;stroke-opacity:1"
       d="m 58.037046,172.72232 c 0.011,6.85807 0.43568,13.7146 0.984946,20.55064 0.220207,2.74065 -0.03812,5.54247 0.925678,8.19634 2.049557,5.64354 5.129341,11.31873 10.146239,15.9286 3.063382,2.81486 11.687017,6.70543 11.687017,6.70543 0,0 -4.705741,-5.51868 -6.561132,-8.45467 -4.205977,-6.65557 -5.044598,-13.31018 -6.338645,-20.27033 -2.965306,-15.94918 -2.137587,-32.37459 -3.140488,-48.56606 -1.30003,-20.9885 -3.729232,-62.975871 -3.729232,-62.975871 0,0 -4.021948,59.227721 -3.974383,88.885921 z"
       id="path4170-1-3-7"
       inkscape:connector-curvature="0"
       sodipodi:nodetypes="aaaacsaaca" />
    <path
       style="fill:#000000;fill-opacity:1;fill-rule:evenodd;stroke:#000000;stroke-width:0.48406836px;stroke-linecap:butt;stroke-linejoin:miter;stroke-opacity:1"
       d="m 127.86123,173.87402 c -3.04513,7.79629 -4.69487,16.23004 -5.07596,24.59125 -0.12519,2.74663 0.38952,5.48207 0.92567,8.19634 1.18977,6.02319 4.01636,11.85121 5.07188,17.88703 0.56742,3.24475 0.66839,9.79767 0.66839,9.79767 0,0 5.26887,-13.23793 4.89243,-19.99906 -0.21057,-3.78218 -2.99503,-6.4692 -3.97206,-10.99869 -1.35574,-6.28514 -1.23779,-7.67422 -0.61511,-11.44295 3.72246,-22.52983 25.48597,-63.58864 25.48597,-63.58864 0,0 -20.93524,29.05378 -27.38121,45.55705 z"
       id="path4170-1-3-7-5"
       inkscape:connector-curvature="0"
       sodipodi:nodetypes="aaaacasaca" />
    <path
       style="fill:#000000;fill-opacity:1;fill-rule:evenodd;stroke:#000000;stroke-width:0.48406836px;stroke-linecap:butt;stroke-linejoin:miter;stroke-opacity:1"
       d="m 24.165646,258.01691 c 0,0 -9.258236,-18.16694 -11.589527,-27.63555 C 8.7088916,214.6745 9.1914839,198.56418 8.7550733,182.62152 8.5965691,176.83114 8.5561083,171.02365 9.1925156,165.24987 9.5586761,161.92789 11.1338,155.34912 11.1338,155.34912 c 0,0 -5.2115855,7.07994 -6.4872418,10.92847 -1.8516651,5.58628 -1.4164049,11.44452 -1.5372455,17.18318 -0.3635153,17.26316 -0.3138175,34.61282 2.445852,51.76607 1.2371166,7.68953 6.3023403,22.78258 6.3023403,22.78258 z"
       id="path4170-1-35"
       inkscape:connector-curvature="0"
       sodipodi:nodetypes="caaacaaacc" />
    <path
       style="fill:#000000;fill-opacity:1;fill-rule:evenodd;stroke:#000000;stroke-width:0.48406836px;stroke-linecap:butt;stroke-linejoin:miter;stroke-opacity:1"
       d="m 54.63371,258.13834 c 0,0 11.177172,-20.03488 10.197007,-30.44301 -0.578405,-6.14194 -6.270237,-11.47615 -9.332132,-17.23409 -1.631174,-3.06745 -4.115352,-5.98181 -4.815324,-9.22318 -2.658516,-12.31083 2.665459,-37.31714 2.665459,-37.31714 0,0 -11.579563,26.11146 -10.661839,39.5037 0.21152,3.08668 2.211046,5.98617 3.690638,8.89197 2.698838,5.30031 9.030557,9.89482 9.43163,15.52451 0.753501,10.57661 -13.483578,30.28975 -13.483578,30.28975 z"
       id="path4170-1-3-6"
       inkscape:connector-curvature="0"
       sodipodi:nodetypes="caaacaaacc" />
    <path
       style="fill:#000000;fill-opacity:1;fill-rule:evenodd;stroke:#000000;stroke-width:0.48406836px;stroke-linecap:butt;stroke-linejoin:miter;stroke-opacity:1"
       d="m 79.065104,258.07761 c 0,0 -1.391513,-2.91578 -1.797579,-4.42304 -0.762679,-2.83099 -0.98938,-5.72727 -1.180451,-8.60651 -0.222113,-3.34698 -0.210844,-6.70616 0.04122,-10.05207 0.246237,-3.26856 1.435254,-9.76659 1.435254,-9.76659 0,0 -7.436393,5.53963 -9.226595,9.03775 -1.335246,2.60911 -0.36193,5.55163 -0.820147,8.30889 -0.341451,2.05464 -0.923404,4.08567 -1.435254,6.12235 -0.78678,3.13064 -2.514181,9.37173 -2.514181,9.37173 z"
       id="path4170-1-6-2"
       inkscape:connector-curvature="0"
       sodipodi:nodetypes="caaacaaacc" />
    <path
       style="fill:#000000;fill-opacity:1;fill-rule:evenodd;stroke:#000000;stroke-width:0.48406836px;stroke-linecap:butt;stroke-linejoin:miter;stroke-opacity:1"
       d="m 95.830977,258.01092 c 0,0 2.485608,-16.45892 1.264631,-24.6276 -1.151212,-7.70195 -5.441048,-15.00029 -8.029788,-22.52377 -2.000288,-5.81329 -4.43878,-11.56841 -5.796788,-17.47473 -3.007069,-13.07847 -5.162828,-39.58635 -5.162828,-39.58635 0,0 -4.610648,27.39061 -2.862694,41.02638 0.944978,7.37177 5.032054,14.36957 7.161675,21.61541 1.828936,6.2228 4.525761,12.4075 4.81958,18.76127 0.353622,7.64697 -3.701936,22.80189 -3.701936,22.80189 z"
       id="path4170-1-3-7-9"
       inkscape:connector-curvature="0"
       sodipodi:nodetypes="caaacaaacc" />
    <path
       style="fill:#000000;fill-opacity:1;fill-rule:evenodd;stroke:#000000;stroke-width:0.48406836px;stroke-linecap:butt;stroke-linejoin:miter;stroke-opacity:1"
       d="m 146.67508,258.04588 c 0,0 -0.48114,-27.01521 -1.49002,-40.50115 -0.20475,-2.73704 -0.38952,-5.48207 -0.92568,-8.19634 -1.18977,-6.02319 -4.01635,-11.85121 -5.07187,-17.88703 -0.56743,-3.24475 -0.66839,-9.79768 -0.66839,-9.79768 0,0 -5.26887,13.23794 -4.89244,19.99907 0.21058,3.78218 2.99504,6.4692 3.97207,10.99869 1.35573,6.28514 0.72845,7.6267 0.61511,11.44295 -0.33697,11.34548 -3.84692,33.93399 -3.84692,33.93399 z"
       id="path4170-1-3-7-5-1"
       inkscape:connector-curvature="0"
       sodipodi:nodetypes="caaacasacc" />
    <path
       style="fill:#000000;fill-opacity:1;fill-rule:evenodd;stroke:#000000;stroke-width:0.48406836px;stroke-linecap:butt;stroke-linejoin:miter;stroke-opacity:1"
       d="m 81.563675,131.84324 c 0.01594,5.34709 -0.286146,10.69306 -0.222726,16.0398 0.07102,5.98729 0.150908,11.98573 0.675375,17.95042 0.601368,6.83927 1.307948,13.65433 2.829276,20.40174 1.241369,5.50573 5.125879,16.32625 5.125879,16.32625 0,0 0.512579,-11.66024 0.615107,-17.49241 0.09822,-5.58742 0.360155,-11.18732 6e-6,-16.76356 -0.477307,-7.39021 -1.952001,-14.68226 -2.857894,-22.03225 -2.489287,-20.1969 -7.082268,-60.636974 -7.082268,-60.636974 0,0 0.871312,30.801694 0.917245,46.206984 z"
       id="path4170-1-6-2-2"
       inkscape:connector-curvature="0"
       sodipodi:nodetypes="aaaacaaaca" />
    <path
       style="fill:#000000;fill-opacity:1;fill-rule:evenodd;stroke:#000000;stroke-width:1px;stroke-linecap:butt;stroke-linejoin:miter;stroke-opacity:1"
       d="m 115.35714,111 c -2.35117,8.14319 -3.6705,16.58014 -4.64285,25 -2.06445,17.87669 -3.54202,35.96327 -2.5,53.92857 0.38418,6.62357 1.72222,13.17811 3.21428,19.64286 1.95658,8.4774 3.76411,17.14267 7.5,25 1.72976,3.63803 6.78572,10 6.78572,10 0,0 0.22772,-8.84691 -0.35715,-13.21429 -0.66686,-4.97958 -2.56253,-9.72116 -3.57143,-14.64285 -1.89044,-9.22203 -3.23292,-18.54953 -4.64285,-27.85715 -0.79178,-5.22694 -1.97093,-10.43051 -2.14286,-15.71428 -0.32992,-10.13886 1.19663,-20.25715 2.14286,-30.35715 0.86086,-9.18883 1.72867,-18.39128 3.21428,-27.5 1.95811,-12.00579 7.5,-35.714281 7.5,-35.714281 0,0 -9.37252,20.596651 -12.5,31.428571 z"
       id="path4262"
       inkscape:connector-curvature="0"
       sodipodi:nodetypes="aaaaacaaaaaaca" />
    <path
       style="fill:#000000;fill-opacity:1;fill-rule:evenodd;stroke:#000000;stroke-width:0.48406836px;stroke-linecap:butt;stroke-linejoin:miter;stroke-opacity:1"
       d="m 235.69285,128.64329 c 0,0 7.28658,-57.163428 5.43103,-85.740798 -0.31609,-4.86811 -0.94729,-9.7139 -2.80618,-14.363532 -2.41983,-6.05272 -5.34293,-12.27383 -10.72616,-17.26858 -3.04477,-2.82505 -11.68702,-6.70542 -11.68702,-6.70542 0,0 4.71333,5.51626 6.56113,8.45466 3.54647,5.63966 6.6663,11.47157 8.61149,17.49241 2.00219,6.197242 2.52643,12.574362 3.07553,18.950112 0.89942,10.44329 0.15511,20.96372 0.34372,31.44396 0.28641,15.91482 1.19646,47.737188 1.19646,47.737188 z"
       id="path4170-1-7"
       inkscape:connector-curvature="0"
       sodipodi:nodetypes="caaacaaaac" />
    <path
       style="fill:#000000;fill-opacity:1;fill-rule:evenodd;stroke:#000000;stroke-width:0.48406836px;stroke-linecap:butt;stroke-linejoin:miter;stroke-opacity:1"
       d="m 222.24673,78.302102 c 3.05863,-7.17174 4.89011,-14.98675 5.35127,-22.76984 0.16263,-2.74467 0.0381,-5.54247 -0.92568,-8.19635 -2.04955,-5.64354 -5.12934,-11.31873 -10.14623,-15.928602 -3.06339,-2.81485 -11.68702,-6.70542 -11.68702,-6.70542 0,0 4.70574,5.51868 6.56113,8.454662 4.20598,6.65557 7.63446,12.96292 8.61149,17.49241 1.35573,6.28514 1.19527,7.64821 0.6151,11.44295 -2.24971,14.71491 -15.73896,42.971738 -15.73896,42.971738 0,0 13.18768,-16.981068 17.3589,-26.761548 z"
       id="path4170-1-3-0"
       inkscape:connector-curvature="0"
       sodipodi:nodetypes="aaaacssaca" />
    <path
       style="fill:#000000;fill-opacity:1;fill-rule:evenodd;stroke:#000000;stroke-width:0.48406836px;stroke-linecap:butt;stroke-linejoin:miter;stroke-opacity:1"
       d="m 159.02196,104.91654 c 4.6835,-20.135062 1.34927,-41.42399 -1.3875,-62.00224 -0.77741,-5.84544 -1.31536,-11.866 -4.25599,-17.35271 -2.80569,-5.23491 -7.24873,-10.08117 -12.46595,-14.2794 -3.31454,-2.66715 -11.68702,-6.70542 -11.68702,-6.70542 0,0 4.86981,5.31381 6.56113,8.45467 6.76569,12.56417 11.07442,26.51891 13.79006,40.52812 2.51991,12.99949 3.45632,26.484326 2.18267,39.6644 -1.652,17.0954 -12.62981,49.95322 -12.62981,49.95322 0,0 16.63583,-24.2601 19.89241,-38.26064 z"
       id="path4170-1-6-9"
       inkscape:connector-curvature="0"
       sodipodi:nodetypes="aaaacaaaca" />
    <path
       style="fill:#000000;fill-opacity:1;fill-rule:evenodd;stroke:#000000;stroke-width:0.48406836px;stroke-linecap:butt;stroke-linejoin:miter;stroke-opacity:1"
       d="m 197.84996,84.934795 c -0.011,-6.85806 -0.43568,-13.71459 -0.98495,-20.55063 -0.22021,-2.74065 0.0381,-5.54247 -0.92568,-8.19634 -2.04956,-5.64354 -5.12934,-11.31873 -10.14624,-15.9286 -3.06338,-2.81486 -11.68701,-6.70543 -11.68701,-6.70543 0,0 4.70574,5.51868 6.56113,8.45467 4.20597,6.65557 5.0446,13.31018 6.33864,20.27033 2.96531,15.94918 2.13759,32.37458 3.14049,48.566045 1.30003,20.98851 3.72923,62.97587 3.72923,62.97587 0,0 4.02195,-59.22772 3.97439,-88.885915 z"
       id="path4170-1-3-7-3"
       inkscape:connector-curvature="0"
       sodipodi:nodetypes="aaaacsaaca" />
    <path
       style="fill:#000000;fill-opacity:1;fill-rule:evenodd;stroke:#000000;stroke-width:0.48406836px;stroke-linecap:butt;stroke-linejoin:miter;stroke-opacity:1"
       d="m 114.89378,99.187926 c 2.89418,-9.535198 8.14322,-18.361438 10.12672,-28.126784 1.31662,-6.482074 1.8244,-13.239037 1.09464,-19.813094 -0.68375,-6.159565 -4.09862,-11.76653 -5.07188,-17.88703 C 119.47158,23.47731 119.86979,3.3603 119.86979,3.3603 c 0,0 -5.98679,26.81706 -4.38735,40.202108 0.4625,3.870448 2.99503,6.4692 3.97206,10.99869 1.35574,6.28514 -4.2203,19.871748 -5.95088,29.878234 -2.85349,16.499328 -7.30323,49.699038 -7.30323,49.699038 0,0 5.2066,-23.46282 8.69339,-34.950444 z"
       id="path4170-1-3-7-5-6"
       inkscape:connector-curvature="0"
       sodipodi:nodetypes="aaaacasaca" />
    <path
       style="fill:#000000;fill-opacity:1;fill-rule:evenodd;stroke:#000000;stroke-width:0.48406836px;stroke-linecap:butt;stroke-linejoin:miter;stroke-opacity:1"
       d="m 231.72136,-0.35979 c 0,0 9.25823,18.16694 11.58952,27.63555 3.86723,15.70686 3.38464,31.81718 3.82105,47.75984 0.1585,5.79038 0.19896,11.59787 -0.43744,17.37165 -0.36616,3.32198 -1.94129,9.90075 -1.94129,9.90075 0,0 5.21159,-7.07994 6.48724,-10.92847 1.85167,-5.58628 1.41641,-11.44452 1.53725,-17.18318 0.36351,-17.26316 0.31382,-34.61282 -2.44585,-51.76607 C 249.09472,14.74075 244.0295,-0.3523 244.0295,-0.3523 Z"
       id="path4170-1-35-0"
       inkscape:connector-curvature="0"
       sodipodi:nodetypes="caaacaaacc" />
    <path
       style="fill:#000000;fill-opacity:1;fill-rule:evenodd;stroke:#000000;stroke-width:0.48406836px;stroke-linecap:butt;stroke-linejoin:miter;stroke-opacity:1"
       d="m 201.25329,-0.48122 c 0,0 -11.17717,20.03488 -10.19701,30.44301 0.57841,6.14194 6.27024,11.47615 9.33214,17.23409 1.63117,3.06745 4.11535,5.98181 4.81532,9.22318 2.65852,12.31083 -2.66546,37.31714 -2.66546,37.31714 0,0 11.57956,-26.11146 10.66184,-39.5037 -0.21152,-3.08668 -2.21105,-5.98617 -3.69064,-8.89197 -2.69884,-5.30031 -9.03055,-9.89482 -9.43163,-15.52451 -0.7535,-10.57661 13.48358,-30.28975 13.48358,-30.28975 z"
       id="path4170-1-3-6-6"
       inkscape:connector-curvature="0"
       sodipodi:nodetypes="caaacaaacc" />
    <path
       style="fill:#000000;fill-opacity:1;fill-rule:evenodd;stroke:#000000;stroke-width:0.48406836px;stroke-linecap:butt;stroke-linejoin:miter;stroke-opacity:1"
       d="m 176.8219,-0.42049 c 0,0 1.39151,2.91578 1.79758,4.42304 0.76268,2.83099 0.98938,5.72727 1.18045,8.60651 0.22211,3.34698 0.21084,6.70616 -0.0412,10.05207 -0.24624,3.26856 -1.43526,9.76659 -1.43526,9.76659 0,0 7.4364,-5.53963 9.2266,-9.03775 1.33524,-2.60911 0.36193,-5.55163 0.82015,-8.30889 0.34145,-2.05464 0.9234,-4.08567 1.43525,-6.12235 0.78678,-3.13064 2.51418,-9.37173 2.51418,-9.37173 z"
       id="path4170-1-6-2-26"
       inkscape:connector-curvature="0"
       sodipodi:nodetypes="caaacaaacc" />
    <path
       style="fill:#000000;fill-opacity:1;fill-rule:evenodd;stroke:#000000;stroke-width:0.48406836px;stroke-linecap:butt;stroke-linejoin:miter;stroke-opacity:1"
       d="m 160.05602,-0.44309 c 0,0 -2.4856,16.45892 -1.26463,24.6276 1.15122,7.70195 5.44105,15.000294 8.02979,22.523774 2.00029,5.81329 4.43878,11.56841 5.79679,17.47473 3.00707,13.07847 5.16283,39.586346 5.16283,39.586346 0,0 4.61065,-27.390606 2.86269,-41.026376 -0.94498,-7.37177 -5.03205,-14.36957 -7.16167,-21.61541 -1.82894,-6.2228 -4.52576,-12.407504 -4.81958,-18.761274 -0.35363,-7.64697 3.70193,-22.80189 3.70193,-22.80189 z"
       id="path4170-1-3-7-9-1"
       inkscape:connector-curvature="0"
       sodipodi:nodetypes="caaacaaacc" />
    <path
       style="fill:#000000;fill-opacity:1;fill-rule:evenodd;stroke:#000000;stroke-width:0.48406836px;stroke-linecap:butt;stroke-linejoin:miter;stroke-opacity:1"
       d="m 103.151,-0.49336 c 0,0 0.48114,27.01521 1.49002,40.501155 0.20475,2.73704 0.38952,5.48207 0.92568,8.19634 1.18977,6.02319 4.01635,11.85121 5.07187,17.88703 0.56743,3.24475 0.66839,9.79768 0.66839,9.79768 0,0 5.26887,-13.23794 4.89244,-19.99907 -0.21058,-3.78218 -2.99504,-6.4692 -3.97207,-10.99869 -1.35573,-6.28514 -0.72845,-7.6267 -0.61511,-11.44295 0.33697,-11.345485 3.84692,-33.933995 3.84692,-33.933995 z"
       id="path4170-1-3-7-5-1-8"
       inkscape:connector-curvature="0"
       sodipodi:nodetypes="caaacasacc" />
    <path
       style="fill:#000000;fill-opacity:1;fill-rule:evenodd;stroke:#000000;stroke-width:0.48406836px;stroke-linecap:butt;stroke-linejoin:miter;stroke-opacity:1"
       d="m 174.32333,125.81388 c 0.86238,-5.27711 0.28614,-10.69306 0.22272,-16.0398 -0.071,-5.98729 -0.15091,-11.985728 -0.67537,-17.950418 -0.60137,-6.83927 -1.30795,-13.65433 -2.82928,-20.40174 -1.24137,-5.50573 -5.12588,-16.32625 -5.12588,-16.32625 0,0 -0.51258,11.66024 -0.6151,17.49241 -0.0982,5.58742 -0.36016,11.18732 -1e-5,16.76356 0.47731,7.39021 3.00774,14.628158 2.85789,22.032248 -0.49444,24.4296 -12.36317,72.25373 -12.36317,72.25373 0,0 15.26393,-37.84881 18.5282,-57.82374 z"
       id="path4170-1-6-2-2-7"
       inkscape:connector-curvature="0"
       sodipodi:nodetypes="aaaacaaaca" />
    <path
       style="fill:#000000;fill-opacity:1;fill-rule:evenodd;stroke:#000000;stroke-width:1px;stroke-linecap:butt;stroke-linejoin:miter;stroke-opacity:1"
       d="m 133.71133,146.15204 c 2.35117,-8.14319 3.6705,-16.58014 4.64285,-25 2.06445,-17.87669 3.54202,-35.963267 2.5,-53.928567 -0.38418,-6.62357 -1.72222,-13.17811 -3.21428,-19.64286 -1.95658,-8.4774 -5.14864,-16.623513 -7.5,-25.000003 -1.96591,-7.00336 -5.52303,-21.11168 -5.52303,-21.11168 0,0 -1.72378,16.25306 -0.90554,24.32597 0.50662,4.99842 2.56253,9.721163 3.57143,14.642853 1.89044,9.22203 3.23292,18.54953 4.64285,27.85715 0.79178,5.22694 1.97093,10.43051 2.14286,15.71428 0.32992,10.13886 -1.19663,20.257147 -2.14286,30.357147 -0.86086,9.18883 -1.72867,18.39128 -3.21428,27.5 -1.95811,12.00579 -7.5,35.71428 -7.5,35.71428 0,0 9.37252,-20.59665 12.5,-31.42857 z"
       id="path4262-9"
       inkscape:connector-curvature="0"
       sodipodi:nodetypes="aaaaacaaaaaaca" />
    <path
       style="fill:#000000;fill-opacity:1;fill-rule:evenodd;stroke:#000000;stroke-width:0.48406836px;stroke-linecap:butt;stroke-linejoin:miter;stroke-opacity:1"
       d="m 96.56018,132.56096 c 0,0 -4.9455,-57.107369 -5.43103,-85.740798 -0.0541,-3.189351 -0.12899,-6.401929 0.2808,-9.565307 0.54823,-4.232154 1.79737,-8.347075 2.89748,-12.470355 1.37255,-5.14445 4.61595,-15.29172 4.61595,-15.29172 0,0 1.09874,9.83451 1.01501,14.76812 -0.0851,5.01464 -1.2307,9.961233 -1.54042,14.967025 -0.29138,4.709333 -0.22222,9.434151 -0.29761,14.151887 -0.16748,10.480608 -0.15511,20.96372 -0.34372,31.44396 -0.28641,15.914818 -1.19646,47.737188 -1.19646,47.737188 z"
       id="path4170-1-7-0"
       inkscape:connector-curvature="0"
       sodipodi:nodetypes="caaacaaaac" />
    <path
       style="fill:#000000;fill-opacity:1;fill-rule:evenodd;stroke:#000000;stroke-width:0.48406836px;stroke-linecap:butt;stroke-linejoin:miter;stroke-opacity:1"
       d="m 102.6827,100.90759 c -0.40531,-2.796477 -1.06048,-5.560559 -1.31066,-8.375162 -0.45068,-5.070389 -0.6492,-10.186621 -0.33701,-15.267418 0.29255,-4.761223 1.47777,-9.426916 2.06501,-14.160835 0.53702,-4.32913 1.33296,-13.018873 1.33296,-13.018873 0,0 1.74184,9.816113 2.2777,14.768115 0.565,5.22134 0.79769,10.476163 0.98496,15.724643 0.19305,5.41049 0.27027,10.828749 0.14251,16.241175 -0.23707,10.043705 -1.68617,30.092295 -1.68617,30.092295 0,0 -2.21498,-17.34958 -3.4693,-26.00394 z"
       id="path4170-1-3-0-2"
       inkscape:connector-curvature="0"
       sodipodi:nodetypes="aaaacaaaca" />
    <path
       style="fill:#000000;fill-opacity:1;fill-rule:evenodd;stroke:#000000;stroke-width:0.48406836px;stroke-linecap:butt;stroke-linejoin:miter;stroke-opacity:1"
       d="m 48.72977,104.7936 c 1.09248,-12.035214 -0.16821,-24.204411 0.88242,-36.24335 1.2191,-13.969308 1.10126,-28.563845 6.2763,-41.59637 2.36435,-5.95425 6.23154,-11.4619 10.95072,-15.79463 3.30843,-3.0375 11.68702,-6.70542 11.68702,-6.70542 0,0 -4.86981,5.31381 -6.56113,8.45467 -6.76569,12.56417 -11.12917,26.508407 -13.79006,40.52812 -4.29042,22.605402 1.47809,46.433048 -3.2541,68.95011 -2.90835,13.83874 -15.22733,39.59608 -15.22733,39.59608 0,0 7.29144,-37.96867 9.03616,-57.18921 z"
       id="path4170-1-6-9-3"
       inkscape:connector-curvature="0"
       sodipodi:nodetypes="aaaacaaaca" />
    <path
       style="fill:#000000;fill-opacity:1;fill-rule:evenodd;stroke:#000000;stroke-width:0.48406836px;stroke-linecap:butt;stroke-linejoin:miter;stroke-opacity:1"
       d="m 11.66954,91.125308 c 0.0633,-7.08227 0.15007,-14.164447 0.17132,-21.246968 0.0138,-4.604474 0.18249,-9.213795 -0.0285,-13.813455 C 11.47519,48.713252 10.38836,41.41403 9.83677,34.07537 9.23912,26.1239 8.3918,10.19735 8.3918,10.19735 c 0,0 7.47607,17.44147 9.60131,26.637412 1.91172,8.272063 2.56718,16.833027 2.75273,25.321093 0.35454,16.21862 -2.13759,32.37458 -3.14049,48.566045 -1.30003,20.98851 -3.72923,62.97587 -3.72923,62.97587 0,0 -2.14212,-37.86063 -2.45916,-56.81357 -0.14362,-8.58551 0.17586,-17.172525 0.25258,-25.758892 z"
       id="path4170-1-3-7-3-7"
       inkscape:connector-curvature="0"
       sodipodi:nodetypes="aaaacaaacaa" />
    <path
       style="fill:#000000;fill-opacity:1;fill-rule:evenodd;stroke:#000000;stroke-width:0.48406836px;stroke-linecap:butt;stroke-linejoin:miter;stroke-opacity:1"
       d="m 99.23741,-0.54586 c 0,0 -9.39549,17.89037 -11.58952,27.63555 -1.66799,7.408706 -1.16717,15.165422 -1.04313,22.75856 0.29348,17.965275 3.17289,35.800329 4.22551,53.73714 0.9782,16.66864 1.94129,50.05431 1.94129,50.05431 0,0 -4.34369,-34.0523 -6.48724,-51.08203 C 84.49345,88.329803 81.91142,74.176611 80.959,59.868139 80.12602,47.354033 78.99453,34.67932 80.62693,22.24421 81.65249,14.43183 86.92927,-0.53837 86.92927,-0.53837 Z"
       id="path4170-1-35-0-9"
       inkscape:connector-curvature="0"
       sodipodi:nodetypes="caaacaaacc" />
    <path
       style="fill:#000000;fill-opacity:1;fill-rule:evenodd;stroke:#000000;stroke-width:0.48406836px;stroke-linecap:butt;stroke-linejoin:miter;stroke-opacity:1"
       d="m 73.6413,54.39584 c 0.56574,5.383309 1.40418,10.748871 1.62558,16.157296 0.29832,7.287453 -0.56992,14.585288 -0.40357,21.876947 0.14917,6.538489 1.06394,13.042957 1.25611,19.580327 0.35502,12.07685 -0.19168,36.24571 -0.19168,36.24571 0,0 -4.1972,-15.53135 -5.66184,-23.43227 -1.7921,-9.66735 -3.36432,-19.42715 -3.80936,-29.249117 -0.4717,-10.410155 0.4031,-20.84982 1.21735,-31.238796 0.81311,-10.374596 3.65927,-31.004036 3.65927,-31.004036 0,0 1.5699,14.039283 2.30814,21.063939 z"
       id="path4170-1-3-6-6-2"
       inkscape:connector-curvature="0"
       sodipodi:nodetypes="aaaacaaaca" />
    <path
       style="fill:#000000;fill-opacity:1;fill-rule:evenodd;stroke:#000000;stroke-width:0.48406836px;stroke-linecap:butt;stroke-linejoin:miter;stroke-opacity:1"
       d="m 30.92983,-0.54343 c 0,0 -1.39151,2.91578 -1.79758,4.42304 -0.76268,2.83099 -0.98938,5.72727 -1.18045,8.60651 -0.22211,3.34698 -0.21084,6.70616 0.0412,10.05207 0.24624,3.26856 1.43526,9.76659 1.43526,9.76659 0,0 -7.4364,-5.53963 -9.2266,-9.03775 C 18.86642,20.65792 19.83973,17.7154 19.38151,14.95814 19.04006,12.9035 18.45811,10.87247 17.94626,8.83579 17.15948,5.70515 15.43208,-0.53594 15.43208,-0.53594 Z"
       id="path4170-1-6-2-26-2"
       inkscape:connector-curvature="0"
       sodipodi:nodetypes="caaacaaacc" />
    <path
       style="fill:#000000;fill-opacity:1;fill-rule:evenodd;stroke:#000000;stroke-width:0.48406836px;stroke-linecap:butt;stroke-linejoin:miter;stroke-opacity:1"
       d="m 47.69571,-0.47674 c 0,0 2.4856,16.45892 1.26463,24.6276 -1.15122,7.70195 -5.44105,15.00029 -8.02979,22.52377 -2.00029,5.81329 -4.43878,11.56841 -5.79679,17.47473 -3.00707,13.07847 -5.16283,39.58635 -5.16283,39.58635 0,0 -4.61065,-27.39061 -2.86269,-41.02638 0.94498,-7.37177 5.03205,-14.36957 7.16167,-21.61541 1.82894,-6.2228 4.52576,-12.4075 4.81958,-18.76127 0.35363,-7.64697 -3.70193,-22.80189 -3.70193,-22.80189 z"
       id="path4170-1-3-7-9-1-8"
       inkscape:connector-curvature="0"
       sodipodi:nodetypes="caaacaaacc" />
    <path
       style="fill:#000000;fill-opacity:1;fill-rule:evenodd;stroke:#000000;stroke-width:0.48406836px;stroke-linecap:butt;stroke-linejoin:miter;stroke-opacity:1"
       d="m 29.49983,148.54808 c 1.09328,-12.97839 2.84301,-25.90119 3.70585,-38.89694 0.39667,-5.97455 0.15091,-11.985728 0.67537,-17.950418 0.60137,-6.83927 1.30795,-13.65433 2.82928,-20.40174 1.24137,-5.50573 5.12588,-16.32625 5.12588,-16.32625 0,0 0.51258,11.66024 0.6151,17.49241 0.0982,5.58742 0.10906,11.176771 1e-5,16.76356 -0.35733,18.306928 0.96141,36.844168 -2.1436,54.889388 -2.60716,15.15188 -13.70826,44.03944 -13.70826,44.03944 0,0 1.78911,-26.41767 2.90037,-39.60945 z"
       id="path4170-1-6-2-2-7-7"
       inkscape:connector-curvature="0"
       sodipodi:nodetypes="aaaacaaaca" />
    <path
       style="fill:#000000;fill-opacity:1;fill-rule:evenodd;stroke:#000000;stroke-width:0.48406836px;stroke-linecap:butt;stroke-linejoin:miter;stroke-opacity:1"
       d="m 165.00546,165.80482 c 0,0 0.53617,29.8867 0.38027,44.82963 -0.0333,3.18963 0.12899,6.40193 -0.2808,9.5653 -0.54823,4.23216 -1.79737,8.34708 -2.89748,12.47036 -1.37255,5.14445 -4.61595,15.29172 -4.61595,15.29172 0,0 -1.09874,-9.83451 -1.01501,-14.76812 0.0851,-5.01464 1.2307,-9.96123 1.54042,-14.96702 0.29138,-4.70934 0.0265,-9.44135 0.29761,-14.15189 0.32796,-5.69884 0.68387,-11.41606 1.60641,-17.04929 1.1743,-7.17056 4.98453,-21.22068 4.98453,-21.22068 z"
       id="path4170-1-7-0-1"
       inkscape:connector-curvature="0"
       sodipodi:nodetypes="caaacaaaac" />
    <path
       style="fill:#000000;fill-opacity:1;fill-rule:evenodd;stroke:#000000;stroke-width:0.48406836px;stroke-linecap:butt;stroke-linejoin:miter;stroke-opacity:1"
       d="m 151.81187,155.7894 c -0.74166,4.10086 -1.38765,8.24915 -1.46725,12.41578 -0.0878,4.59772 0.5498,9.18601 1.09462,13.75219 0.49561,4.15372 1.85838,8.21153 1.9756,12.39306 0.12224,4.3606 -1.33296,13.01888 -1.33296,13.01888 0,0 -1.12953,-9.92135 -2.2777,-14.76812 -1.00455,-4.24049 -3.17851,-8.16491 -4.01542,-12.44164 -0.99393,-5.07914 -1.93537,-10.36763 -1.15266,-15.48357 1.78286,-11.65311 13.05039,-32.87021 13.05039,-32.87021 0,0 -4.40977,15.88415 -5.87462,23.98363 z"
       id="path4170-1-3-0-2-2"
       inkscape:connector-curvature="0"
       sodipodi:nodetypes="aaaacaaaca" />
    <path
       style="fill:#000000;fill-opacity:1;fill-rule:evenodd;stroke:#000000;stroke-width:0.48406836px;stroke-linecap:butt;stroke-linejoin:miter;stroke-opacity:1"
       d="m 207.78511,152.66101 c -1.84859,20.58977 1.34927,41.42399 -1.3875,62.00224 -0.77741,5.84544 -1.31536,11.866 -4.25599,17.35271 -2.80569,5.23491 -7.24873,10.08117 -12.46595,14.2794 -3.31454,2.66715 -11.68702,6.70542 -11.68702,6.70542 0,0 4.86981,-5.31381 6.56113,-8.45467 6.76569,-12.56417 11.12917,-26.50841 13.79006,-40.52812 4.29042,-22.6054 -1.47809,-46.43305 3.2541,-68.95011 2.90835,-13.83874 15.22733,-39.59608 15.22733,-39.59608 0,0 -7.31035,37.96697 -9.03616,57.18921 z"
       id="path4170-1-6-9-3-9"
       inkscape:connector-curvature="0"
       sodipodi:nodetypes="aaaacaaaca" />
    <path
       style="fill:#000000;fill-opacity:1;fill-rule:evenodd;stroke:#000000;stroke-width:0.48406836px;stroke-linecap:butt;stroke-linejoin:miter;stroke-opacity:1"
       d="m 244.84534,166.3293 c -0.0633,7.08227 -0.15007,14.16445 -0.17132,21.24697 -0.0138,4.60447 -0.18249,9.2138 0.0285,13.81345 0.33717,7.35164 1.424,14.65086 1.97559,21.98952 0.59765,7.95147 1.44497,23.87802 1.44497,23.87802 0,0 -7.47607,-17.44147 -9.60131,-26.63741 -1.91172,-8.27206 -2.56718,-16.83303 -2.75273,-25.32109 -0.35454,-16.21862 2.13759,-32.37458 3.14049,-48.56606 1.30003,-20.9885 3.72923,-62.975865 3.72923,-62.975865 0,0 2.14212,37.860635 2.45916,56.813575 0.14362,8.58551 -0.17586,17.17253 -0.25258,25.75889 z"
       id="path4170-1-3-7-3-7-3"
       inkscape:connector-curvature="0"
       sodipodi:nodetypes="aaaacaaacaa" />
    <path
       style="fill:#000000;fill-opacity:1;fill-rule:evenodd;stroke:#000000;stroke-width:0.48406836px;stroke-linecap:butt;stroke-linejoin:miter;stroke-opacity:1"
       d="m 157.27747,258.00047 c 0,0 9.39549,-17.89037 11.58952,-27.63555 1.66799,-7.40871 1.08886,-15.16455 1.04313,-22.75856 -0.0766,-12.71429 -3.42329,-25.42373 -2.2052,-38.07978 1.25013,-12.98898 9.67546,-37.93248 9.67546,-37.93248 0,0 -2.02262,18.36985 -2.3516,27.59599 -0.45611,12.79187 0.38277,25.59719 0.5271,38.39638 0.14142,12.541 1.96447,25.18882 0.33207,37.62393 -1.02556,7.81238 -6.30234,22.78258 -6.30234,22.78258 z"
       id="path4170-1-35-0-9-1"
       inkscape:connector-curvature="0"
       sodipodi:nodetypes="caaacaaacc" />
    <path
       style="fill:#000000;fill-opacity:1;fill-rule:evenodd;stroke:#000000;stroke-width:0.48406836px;stroke-linecap:butt;stroke-linejoin:miter;stroke-opacity:1"
       d="m 182.87358,203.05877 c -0.56574,-5.38331 -1.40418,-10.74887 -1.62558,-16.1573 -0.29832,-7.28745 0.56992,-14.58528 0.40357,-21.87694 -0.14917,-6.53849 -1.06394,-13.04296 -1.25611,-19.58033 -0.35502,-12.07685 0.19168,-36.24571 0.19168,-36.24571 0,0 4.1972,15.53135 5.66184,23.43227 1.7921,9.66734 3.36432,19.42715 3.80936,29.24912 0.4717,10.41015 -0.4031,20.84982 -1.21735,31.23879 -0.81311,10.3746 -3.65927,31.00404 -3.65927,31.00404 0,0 -1.5699,-14.03928 -2.30814,-21.06394 z"
       id="path4170-1-3-6-6-2-9"
       inkscape:connector-curvature="0"
       sodipodi:nodetypes="aaaacaaaca" />
    <path
       style="fill:#000000;fill-opacity:1;fill-rule:evenodd;stroke:#000000;stroke-width:0.48406836px;stroke-linecap:butt;stroke-linejoin:miter;stroke-opacity:1"
       d="m 225.58505,257.99804 c 0,0 1.39151,-2.91578 1.79758,-4.42304 0.76268,-2.83099 0.98938,-5.72727 1.18045,-8.60651 0.22211,-3.34698 0.21084,-6.70616 -0.0412,-10.05207 -0.24624,-3.26856 -1.43526,-9.76659 -1.43526,-9.76659 0,0 7.4364,5.53963 9.2266,9.03775 1.33524,2.60911 0.36193,5.55163 0.82015,8.30889 0.34145,2.05464 0.9234,4.08567 1.43525,6.12235 0.78678,3.13064 2.51418,9.37173 2.51418,9.37173 z"
       id="path4170-1-6-2-26-2-4"
       inkscape:connector-curvature="0"
       sodipodi:nodetypes="caaacaaacc" />
    <path
       style="fill:#000000;fill-opacity:1;fill-rule:evenodd;stroke:#000000;stroke-width:0.48406836px;stroke-linecap:butt;stroke-linejoin:miter;stroke-opacity:1"
       d="m 208.81917,257.93135 c 0,0 -2.4856,-16.45892 -1.26463,-24.6276 1.15122,-7.70195 5.44105,-15.00029 8.02979,-22.52377 2.00029,-5.81329 4.43878,-11.56841 5.79679,-17.47473 3.00707,-13.07847 5.16283,-39.58635 5.16283,-39.58635 0,0 4.61065,27.39061 2.86269,41.02638 -0.94498,7.37177 -5.03205,14.36957 -7.16167,21.61541 -1.82894,6.2228 -4.52576,12.4075 -4.81958,18.76127 -0.35363,7.64697 3.70193,22.80189 3.70193,22.80189 z"
       id="path4170-1-3-7-9-1-8-7"
       inkscape:connector-curvature="0"
       sodipodi:nodetypes="caaacaaacc" />
    <path
       style="fill:#000000;fill-opacity:1;fill-rule:evenodd;stroke:#000000;stroke-width:0.48406836px;stroke-linecap:butt;stroke-linejoin:miter;stroke-opacity:1"
       d="m 227.01505,108.90653 c -1.09328,12.97839 -2.84301,25.90119 -3.70585,38.89694 -0.39667,5.97455 -0.15091,11.98573 -0.67537,17.95042 -0.60137,6.83927 -1.30795,13.65433 -2.82928,20.40174 -1.24137,5.50573 -5.12588,16.32625 -5.12588,16.32625 0,0 -0.51258,-11.66024 -0.6151,-17.49241 -0.0982,-5.58742 -0.10906,-11.17677 -1e-5,-16.76356 0.35733,-18.30693 -0.96141,-36.84417 2.1436,-54.88939 2.60716,-15.151877 13.70826,-44.039443 13.70826,-44.039443 0,0 -1.78911,26.417673 -2.90037,39.609453 z"
       id="path4170-1-6-2-2-7-7-8"
       inkscape:connector-curvature="0"
       sodipodi:nodetypes="aaaacaaaca" />
  </g>
</svg>
