<svg xmlns="http://www.w3.org/2000/svg" xmlns:xlink="http://www.w3.org/1999/xlink" viewBox="0 0 256 256">
    <defs>
        <linearGradient id="innoGrad2">
            <stop offset="0" stop-color="#ffd42a" stop-opacity=".502"/>
            <stop offset="1" stop-color="#ffd42a" stop-opacity="0"/>
        </linearGradient>
        <linearGradient id="innoGrad1">
            <stop offset="0" stop-color="#ff7f2a" stop-opacity=".502"/>
            <stop offset=".5" stop-color="#f95" stop-opacity="0"/>
            <stop offset="1" stop-color="#ff7f2a" stop-opacity=".502"/>
        </linearGradient>
        <linearGradient id="linearGradient870" x1="40.172" x2="71.777" y1="208.798" y2="240.402" gradientUnits="userSpaceOnUse" xlink:href="#innoGrad1"/>
        <linearGradient id="linearGradient895" x1="162.139" x2="177.156" y1="103.416" y2="118.433" gradientUnits="userSpaceOnUse" xlink:href="#innoGrad1"/>
        <linearGradient id="linearGradient924" x1="202.945" x2="185.446" y1="158.855" y2="104.889" gradientUnits="userSpaceOnUse" xlink:href="#innoGrad2"/>
        <linearGradient id="linearGradient926" x1="198.75" x2="178.592" y1="169.857" y2="115.851" gradientUnits="userSpaceOnUse" xlink:href="#innoGrad2"/>
        <linearGradient id="linearGradient928" x1="189.665" x2="185.373" y1="159.049" y2="144.156" gradientUnits="userSpaceOnUse" xlink:href="#innoGrad2"/>
    </defs>
    <g stroke-width=".719">
        <path fill="#fea" d="M200.637 40.61c1.88 1.133 4.107 1.55 6.34.778 6.752-2.337-1.405 6.163 4.543 18.232 5.949 12.072 25.321 60.695 29.06 60.012 3.74-.68 3.229-7.31 3.909-12.41L229.365 55.37l-7.646-21.59z"/>
        <path fill="url(#linearGradient924)" stroke="#000" stroke-miterlimit="10" stroke-width=".994" d="M169.889 112.656c1.352.814 2.953 1.114 4.558.559 4.855-1.68-1.01 4.429 3.267 13.104 4.277 8.676 18.206 43.623 20.895 43.132 2.688-.488 2.321-5.254 2.81-8.919l-10.874-37.268-5.498-15.518z" transform="matrix(1.3908 0 0 1.39134 -35.644 -116.132)"/>
        <path fill="#ff7f2a" stroke="#000" stroke-linejoin="round" stroke-miterlimit="10" stroke-width=".994" d="M167.734 100.455s.611-.61 6.803 5.582c6.19 6.191 5.579 6.801 5.579 6.801l-14.134 1.75z" transform="matrix(1.3908 0 0 1.39134 -35.644 -116.132)"/>
        <path fill="#fff6d5" d="M200.637 40.61c-3.808-2.298-6.175-7.553-4.168-11.833 2.994-6.392 17.09-4.517 28.477 2.114 11.386 6.63 7.816 30.26 12.236 29.58 4.418-.68 10.538 24.822 11.35 28.084.82 3.265 2.413 6.767.035 11.186-2.38 4.422-3.398 2.383-4.08 7.483 0 0-10.66-14.747-11.023-25.309-.363-10.561-13.395-28.283-11.239-33.683 5.862-14.692-21.588-7.621-21.588-7.621z"/>
        <path fill="url(#linearGradient926)" stroke="#000" stroke-miterlimit="10" stroke-width=".994" d="M169.889 112.656c-2.738-1.652-4.44-5.429-2.997-8.505 2.153-4.594 12.288-3.247 20.475 1.519 8.187 4.765 5.62 21.749 8.798 21.26 3.177-.488 7.577 17.841 8.161 20.185.59 2.347 1.735 4.864.025 8.04-1.711 3.178-2.443 1.713-2.934 5.378 0 0-7.664-10.599-7.925-18.19-.261-7.591-9.631-20.328-8.081-24.209 4.215-10.56-15.522-5.478-15.522-5.478z" transform="matrix(1.3908 0 0 1.39134 -35.644 -116.132)"/>
        <path fill="#fd5" d="M218.147 101.952c-.644-1.809 2.986-2.55 2.913-7.629-.123-8.277-3.644-21.588-3.644-21.588l15.568 34.898z"/>
        <path fill="url(#linearGradient928)" stroke="#000" stroke-miterlimit="10" stroke-width=".994" d="M182.479 156.744c-.463-1.3 2.147-1.833 2.094-5.483-.088-5.949-2.62-15.516-2.62-15.516l11.194 25.082z" transform="matrix(1.3908 0 0 1.39134 -35.644 -116.132)"/>
    </g>
    <g stroke-width=".719">
        <path fill="#ffb380" d="M201.153 57.071c-30.442 32.787-26.339 52.871-55.228 84.151-3.546 3.84-10.052 5.449-14.219 9.58L64.183 218.35s-3.4 33.77-40.56-3.402c-37.156-37.171-3.396-40.571-3.396-40.571l67.523-67.55c4.124-4.17 5.736-10.678 9.572-14.225 31.268-28.9 51.344-24.796 84.117-55.251z"/>
        <path fill="url(#linearGradient870)" stroke="#000" stroke-linejoin="round" stroke-miterlimit="10" stroke-width=".994" d="M170.26 124.487c-21.888 23.565-18.938 38-39.71 60.482-2.549 2.76-7.227 3.916-10.223 6.885l-48.55 48.549s-2.445 24.272-29.163-2.445c-26.716-26.716-2.442-29.16-2.442-29.16l48.55-48.55c2.965-2.997 4.124-7.675 6.882-10.224 22.482-20.772 36.917-17.822 60.481-39.711z" transform="matrix(1.3908 0 0 1.39134 -35.644 -116.132)"/>
        <path fill="#ffb380" d="M197.64 23.635s-1.779.839-4.19 2.123c-.56.296-1.031 1.56-1.646 1.9-.595.33-1.328-.264-1.946.098-3.083 1.799-6.308 3.933-8.08 5.853-4.08 4.42 18.694 27.201 23.112 23.122 1.918-1.772 4.052-4.998 5.853-8.081.361-.618-.234-1.351.096-1.947.34-.615 1.602-1.086 1.9-1.647 1.282-2.411 2.119-4.192 2.119-4.192-5.973.993-18.21-11.25-17.218-17.23z"/>
        <path fill="url(#linearGradient895)" stroke="#000" stroke-linejoin="round" stroke-miterlimit="10" stroke-width=".994" d="M167.734 100.455s-1.279.603-3.013 1.526c-.402.213-.741 1.121-1.183 1.366-.428.237-.955-.19-1.399.07-2.217 1.293-4.536 2.827-5.81 4.207-2.933 3.177 13.441 19.55 16.618 16.618 1.379-1.273 2.913-3.592 4.208-5.808.26-.444-.168-.971.069-1.399.245-.442 1.152-.781 1.366-1.184.922-1.733 1.524-3.013 1.524-3.013-4.295.714-13.093-8.086-12.38-12.383z" transform="matrix(1.3908 0 0 1.39134 -35.644 -116.132)"/>
        <path fill="none" stroke="#000" stroke-miterlimit="10" stroke-width=".994" d="M71.777 240.402s-8.146.326-20.038-11.567c-11.893-11.893-11.568-20.038-11.568-20.038M120.327 191.854s-2.772 2.768-18.575-13.035c-15.801-15.801-13.031-18.571-13.031-18.571M130.55 184.969s-2.769 2.771-20.242-14.702c-17.474-17.473-14.704-20.243-14.704-20.243M178.592 115.851s-1.51 1.511-8.444-5.424c-6.936-6.936-5.426-8.446-5.426-8.446M177.156 118.433s-1.512 1.51-9.019-5.997c-7.508-7.508-5.998-9.02-5.998-9.02" transform="matrix(1.3908 0 0 1.39134 -35.644 -116.132)"/>
    </g>
</svg>
