<svg xmlns="http://www.w3.org/2000/svg" xmlns:xlink="http://www.w3.org/1999/xlink" viewBox="0 0 256 256">
    <defs>
        <linearGradient id="innoGrad8">
            <stop offset="0" stop-color="#ff7f2a" stop-opacity=".502"/>
            <stop offset="1" stop-color="#ff7f2a" stop-opacity="0"/>
        </linearGradient>
        <linearGradient id="innoGrad7">
            <stop offset="0" stop-color="#ff7f2a" stop-opacity=".502"/>
            <stop offset=".5" stop-color="#ff7f2a" stop-opacity="0"/>
            <stop offset="1" stop-color="#ff7f2a" stop-opacity=".502"/>
        </linearGradient>
        <linearGradient id="innoGrad6">
            <stop offset="0" stop-color="#ff2a2a" stop-opacity=".502"/>
            <stop offset="1" stop-color="#ff2a2a" stop-opacity="0"/>
        </linearGradient>
        <linearGradient id="innoGrad5">
            <stop offset="0" stop-color="#abc837" stop-opacity=".502"/>
            <stop offset=".5" stop-color="#abc837" stop-opacity="0"/>
            <stop offset="1" stop-color="#abc837" stop-opacity=".502"/>
        </linearGradient>
        <linearGradient id="innoGrad3">
            <stop offset="0" stop-color="#ffd42a" stop-opacity=".502"/>
            <stop offset=".27" stop-color="#ffd42a" stop-opacity="0"/>
            <stop offset="1" stop-color="#ffd42a" stop-opacity=".502"/>
        </linearGradient>
        <linearGradient id="innoGrad4">
            <stop offset="0" stop-color="#ff7f2a" stop-opacity=".502"/>
            <stop offset="1" stop-color="#ff7f2a" stop-opacity="0"/>
        </linearGradient>
        <linearGradient id="innoGrad2">
            <stop offset="0" stop-color="#ffd42a" stop-opacity=".502"/>
            <stop offset="1" stop-color="#ffd42a" stop-opacity="0"/>
        </linearGradient>
        <linearGradient id="innoGrad1">
            <stop offset="0" stop-color="#ffd42a" stop-opacity=".502"/>
            <stop offset=".5" stop-color="#ffd42a" stop-opacity="0"/>
            <stop offset="1" stop-color="#ffd42a" stop-opacity=".502"/>
        </linearGradient>
        <linearGradient id="linearGradient1016" x1="12.681" x2="17.594" y1="143.172" y2="156.786" gradientUnits="userSpaceOnUse" xlink:href="#innoGrad1"/>
        <linearGradient id="linearGradient1041" x1="74.36" x2="75.872" y1="126.302" y2="130.729" gradientUnits="userSpaceOnUse" xlink:href="#innoGrad1"/>
        <linearGradient id="linearGradient1064" x1="94.91" x2="96.697" y1="120.362" y2="125.031" gradientUnits="userSpaceOnUse" xlink:href="#innoGrad1"/>
        <linearGradient id="linearGradient1087" x1="74.7" x2="94.906" y1="127.116" y2="121.879" gradientUnits="userSpaceOnUse" xlink:href="#innoGrad2"/>
        <linearGradient id="linearGradient1128" x1="101.875" x2="101.875" y1="159.325" y2="107" gradientUnits="userSpaceOnUse" xlink:href="#innoGrad4"/>
        <linearGradient id="linearGradient1154" x1="46.865" x2="51.994" y1="130.918" y2="145.817" gradientUnits="userSpaceOnUse" xlink:href="#innoGrad3"/>
        <linearGradient id="linearGradient1156" x1="30.152" x2="35.625" y1="136.628" y2="151.519" gradientUnits="userSpaceOnUse" xlink:href="#innoGrad3"/>
        <linearGradient id="linearGradient1187" x1="250.25" x2="250.25" y1="103.37" y2="113.87" gradientUnits="userSpaceOnUse" xlink:href="#innoGrad5"/>
        <linearGradient id="linearGradient1212" x1="250.25" x2="250.25" y1="103.37" y2="113.87" gradientUnits="userSpaceOnUse" xlink:href="#innoGrad5"/>
        <linearGradient id="linearGradient1235" x1="180" x2="180.308" y1="130.75" y2="182.057" gradientUnits="userSpaceOnUse" xlink:href="#innoGrad6"/>
        <linearGradient id="linearGradient1270" x1="183.597" x2="183.597" y1="129.149" y2="172.103" gradientUnits="userSpaceOnUse" xlink:href="#innoGrad6"/>
        <linearGradient id="linearGradient1272" x1="186.682" x2="186.682" y1="129.245" y2="172.582" gradientUnits="userSpaceOnUse" xlink:href="#innoGrad6"/>
        <linearGradient id="linearGradient1295" x1="180" x2="180" y1="130.75" y2="181.901" gradientUnits="userSpaceOnUse" xlink:href="#innoGrad6"/>
        <linearGradient id="linearGradient1318" x1="203.188" x2="203.188" y1="103.156" y2="114.083" gradientTransform="matrix(1.00722 -.78183 .78182 1.00724 -91.662 98.078)" gradientUnits="userSpaceOnUse" xlink:href="#innoGrad7"/>
        <linearGradient id="linearGradient1343" x1="109.125" x2="109.125" y1="115.875" y2="124.848" gradientTransform="matrix(1.00722 -.78183 .78182 1.00724 -91.662 98.078)" gradientUnits="userSpaceOnUse" xlink:href="#innoGrad8"/>
        <linearGradient id="linearGradient1369" x1="105.913" x2="105.913" y1="101.75" y2="115.75" gradientTransform="matrix(1.00722 -.78183 .78182 1.00724 -91.662 98.078)" gradientUnits="userSpaceOnUse" xlink:href="#innoGrad7"/>
        <linearGradient id="linearGradient1371" x1="109.125" x2="109.125" y1="103.156" y2="115.875" gradientTransform="matrix(1.00722 -.78183 .78182 1.00724 -91.662 98.078)" gradientUnits="userSpaceOnUse" xlink:href="#innoGrad7"/>
        <linearGradient id="linearGradient1394" x1="113.875" x2="113.875" y1="125.084" y2="135.497" gradientTransform="matrix(1.00722 -.78183 .78182 1.00724 -91.662 98.078)" gradientUnits="userSpaceOnUse" xlink:href="#innoGrad8"/>
        <linearGradient id="linearGradient1417" x1="145.562" x2="145.562" y1="112.875" y2="129.958" gradientTransform="matrix(1.00722 -.78183 .78182 1.00724 -91.662 98.078)" gradientUnits="userSpaceOnUse" xlink:href="#innoGrad8"/>
        <linearGradient id="linearGradient1440" x1="143.431" x2="143.267" y1="114.63" y2="111.918" gradientTransform="matrix(1.00722 -.78183 .78182 1.00724 -91.662 98.078)" gradientUnits="userSpaceOnUse" xlink:href="#innoGrad8"/>
        <linearGradient id="linearGradient1463" x1="161.969" x2="161.968" y1="104.787" y2="101.093" gradientTransform="matrix(1.00722 -.78183 .78182 1.00724 -91.662 98.078)" gradientUnits="userSpaceOnUse" xlink:href="#innoGrad8"/>
        <linearGradient id="linearGradient1501" x1="191.688" x2="191.688" y1="112.905" y2="131.304" gradientTransform="matrix(1.00722 -.78183 .78182 1.00724 -91.662 98.078)" gradientUnits="userSpaceOnUse" xlink:href="#innoGrad8"/>
        <linearGradient id="linearGradient1524" x1="180" x2="180" y1="112.875" y2="130.75" gradientTransform="matrix(1.00722 -.78183 .78182 1.00724 -91.662 98.078)" gradientUnits="userSpaceOnUse" xlink:href="#innoGrad8"/>
        <linearGradient id="linearGradient1553" x1="176.689" x2="181.876" y1="120.657" y2="120.374" gradientTransform="matrix(1.00722 -.78183 .78182 1.00724 -91.662 98.078)" gradientUnits="userSpaceOnUse" xlink:href="#innoGrad8"/>
        <linearGradient id="linearGradient1555" x1="191.798" x2="196.392" y1="122.954" y2="123.022" gradientTransform="matrix(1.00722 -.78183 .78182 1.00724 -91.662 98.078)" gradientUnits="userSpaceOnUse" xlink:href="#innoGrad8"/>
        <linearGradient id="linearGradient1557" x1="185.97" x2="185.97" y1="112.932" y2="108.729" gradientTransform="matrix(1.00722 -.78183 .78182 1.00724 -91.662 98.078)" gradientUnits="userSpaceOnUse" xlink:href="#innoGrad8"/>
    </defs>
    <g stroke-width=".784">
        <path fill="#ffe680" stroke="#000" stroke-linejoin="round" stroke-miterlimit="10" d="M74.36 126.302s.571-.297 1.327 1.917.185 2.511.185 2.511l-2.82-1.509z" transform="matrix(1.00722 -.78183 .78182 1.00724 -91.662 98.078)"/>
        <path fill="#ffe680" stroke="#000" stroke-linejoin="round" stroke-miterlimit="10" d="M66.9 129.167h6.087v2.415H66.9z" transform="matrix(-1.0778 -.68113 .68112 -1.07781 67.3 362.882)"/>
        <path fill="#fea" d="M86.12 169.79s3.38-4.522 5.572-6.592c2.998-2.832 4.9-5.897 6.91-9.227 2.119-3.514 3.744-6.248 3.744-6.248l-2.87-1.74s-1.868 3.504-4.165 7.515a31.752 31.752 0 0 1-6.13 7.697c-3.177 2.904-6.222 6.516-6.222 6.516s-.067.233 1.529 1.28c1.593 1.047 1.632.799 1.632.799z"/>
        <path fill="url(#linearGradient1087)" stroke="#000" stroke-linejoin="round" stroke-miterlimit="10" d="M75.659 129.924s4.269-1.176 6.622-1.404c3.219-.313 5.872-1.297 8.718-2.394 3.003-1.158 5.325-2.07 5.325-2.07l-.942-2.459s-2.842 1.273-6.194 2.654a24.903 24.903 0 0 1-7.5 1.82c-3.364.272-6.988 1.045-6.988 1.045s-.153.112.332 1.528c.484 1.415.627 1.28.627 1.28z" transform="matrix(1.00722 -.78183 .78182 1.00724 -91.662 98.078)"/>
        <path fill="#ffe680" d="M82.66 177.857s-2.782 3.885-2.946 5.51c-.164 1.619.977 5.83-.594 8.332l-32.6 49.558s-.588.835-7.36-3.62c-6.774-4.456-6.184-5.291-6.184-5.291l32.6-49.556c1.675-2.433 5.994-3.053 7.419-3.844 1.423-.795 3.89-4.887 3.89-4.887z"/>
        <path fill="url(#linearGradient1016)" stroke="#000" stroke-linejoin="round" stroke-miterlimit="10" d="M69.636 133.258s-3.592 1.069-4.475 1.997c-.88.924-2.198 4.082-4.375 4.876l-44.029 15.026s-.766.235-2.82-5.782c-2.053-6.018-1.286-6.252-1.286-6.252l44.028-15.025c2.208-.701 5.182.992 6.445 1.187 1.264.192 4.76-1.157 4.76-1.157z" transform="matrix(1.00722 -.78183 .78182 1.00724 -91.662 98.078)"/>
        <path fill="#fd5" d="M81.98 167.157s-.275.483 2.171 2.093c2.445 1.608 2.813 1.184 2.813 1.184l-3.056 4.648s-.2.571-2.7-1.073-2.284-2.207-2.284-2.207z"/>
        <path fill="url(#linearGradient1041)" stroke="#000" stroke-linejoin="round" stroke-miterlimit="10" d="M74.36 126.302s-.402.167.339 2.341c.741 2.172 1.173 2.086 1.173 2.086l-4.128 1.41s-.399.258-1.157-1.963-.354-2.466-.354-2.466z" transform="matrix(1.00722 -.78183 .78182 1.00724 -91.662 98.078)"/>
        <path fill="#fd5" stroke="#000" stroke-linejoin="round" stroke-miterlimit="10" d="M69.843 133.647l2.272-.821-1.447-1.893-2.153.733z" transform="matrix(1.00722 -.78183 .78182 1.00724 -91.662 98.078)"/>
        <path fill="#fd5" stroke="#000" stroke-linejoin="round" stroke-miterlimit="10" d="M68.515 131.666l2.153-.733-.584-1.633-2.14.789z" transform="matrix(1.00722 -.78183 .78182 1.00724 -91.662 98.078)"/>
        <path fill="#fd5" stroke="#000" stroke-linejoin="round" stroke-miterlimit="10" d="M67.944 130.089l2.14-.789-.04-2.197-2.272.821z" transform="matrix(1.00722 -.78183 .78182 1.00724 -91.662 98.078)"/>
        <path fill="#f1f2f2" stroke="#000" stroke-linejoin="round" stroke-miterlimit="10" d="M68.101 130.542l.537-.771-.7-.458zM68.946 132.373l.276-.924-.743-.199z" transform="matrix(1.00722 -.78183 .78182 1.00724 -91.662 98.078)"/>
        <path fill="#f1f2f2" stroke="#000" stroke-linejoin="round" stroke-miterlimit="10" d="M68.472 126.383h.382v2.032h-.382z" transform="matrix(-1.0779 -.68105 .68104 -1.07791 64.348 356.807)"/>
        <path fill="#f1f2f2" stroke="#000" stroke-linejoin="round" stroke-miterlimit="10" d="M68.391 126.614c.959-.34 1.214-.544 1.214-.544l-1.358.235-.892.533c-.001 0 .078.116 1.036-.224z" transform="matrix(1.00722 -.78183 .78182 1.00724 -91.662 98.078)"/>
        <path fill="#f1f2f2" stroke="#000" stroke-linejoin="round" stroke-miterlimit="10" d="M68.203 125.838h.763v1.959h-.763z" transform="matrix(-1.07802 -.6808 .68078 -1.07804 64.165 355.606)"/>
        <path fill="#f1f2f2" stroke="#000" stroke-linejoin="round" stroke-miterlimit="10" d="M67.192 126.575l.11.301s.117-.108.93-.416c.813-.308 1.306-.394 1.306-.394l-.109-.302s-.234-.032-1.317.36c-1.084.393-.92.451-.92.451z" transform="matrix(1.00722 -.78183 .78182 1.00724 -91.662 98.078)"/>
    </g>
    <g stroke-width=".784">
        <path fill="#fd5" d="M103.484 148.413l5.264-8.677-5.45-3.306-5.264 8.678s.004.763 2.53 2.295c2.528 1.531 2.92 1.01 2.92 1.01z"/>
        <path fill="url(#linearGradient1064)" stroke="#000" stroke-linejoin="round" stroke-miterlimit="10" d="M96.697 125.031l7.434-2.845-1.787-4.669-7.434 2.845s-.365.475.464 2.639c.829 2.164 1.323 2.03 1.323 2.03z" transform="matrix(1.00722 -.78183 .78182 1.00724 -91.662 98.078)"/>
        <path fill="#ff7f2a" stroke="#000" stroke-linejoin="round" stroke-miterlimit="10" d="M10.333 119.5L10 121.124s-3.417.334-2.167 3.688 3.978 11.581 4.232 28.478c.05 3.312 1.393 2.093 1.393 2.093l-1.625 2.451-2.583-2.148-.5-17.602-3.417-17.667z" transform="matrix(1.00722 -.78183 .78182 1.00724 -91.662 98.078)"/>
        <path fill="#f95" stroke="#000" stroke-linejoin="round" stroke-miterlimit="10" d="M61.5 118.375c14.5.125 13.5 4.375 21.125 3l19.125-6.75.125-7.625H107v18.375s.125 2.75-1.813 3.188c-1.938.438-3.75-1.313-3.75-1.313L18 157.375c-9.064 3.193-10.491-1.085-10.313-4.625.688-13.625-.813-21-3.813-27.375s2.008-6.777 7.625-7zm43.375 6.438a1.063 1.063 0 1 0 0 2.126 1.063 1.063 0 0 0 0-2.126zm-3-7.063s-18 7.188-21.5 7.063-9.5-3.498-12.625-3.53c-3.125-.032-59.672-.163-59.672-.163S5 120.417 6.5 124.814c2.263 6.631 4.666 14.103 4.083 27.519-.215 4.957 2.333 3.25 5 2.167l86.292-30.75z" transform="matrix(1.00722 -.78183 .78182 1.00724 -91.662 98.078)"/>
        <path fill="url(#linearGradient1128)" stroke="#000" stroke-linejoin="round" stroke-miterlimit="10" d="M61.5 118.375c14.5.125 13.5 4.375 21.125 3l19.125-6.75.125-7.625H107v18.375s.125 2.75-1.813 3.188c-1.938.438-3.75-1.313-3.75-1.313L18 157.375c-9.064 3.193-10.491-1.085-10.313-4.625.688-13.625-.813-21-3.813-27.375s2.008-6.777 7.625-7zm43.375 6.438a1.063 1.063 0 1 0 0 2.126 1.063 1.063 0 0 0 0-2.126zm-3-7.063s-18 7.188-21.5 7.063-9.5-3.498-12.625-3.53c-3.125-.032-59.672-.163-59.672-.163S5 120.417 6.5 124.814c2.263 6.631 4.666 14.103 4.083 27.519-.215 4.957 2.333 3.25 5 2.167l86.292-30.75z" transform="matrix(1.00722 -.78183 .78182 1.00724 -91.662 98.078)"/>
        <path fill="#fea" d="M74.71 204.3l4.884-7.47s-1.742-.314-8.785-4.919c-7.041-4.606-8.028-6.078-8.028-6.078l-4.886 7.47s1.428 1.505 8.145 5.898c6.718 4.394 8.67 5.099 8.67 5.099z"/>
        <path fill="url(#linearGradient1154)" stroke="#000" stroke-linejoin="round" stroke-miterlimit="10" d="M51.994 145.817l6.619-2.279s-.929-1.032-3.078-7.272c-2.147-6.24-2.051-7.626-2.051-7.626l-6.619 2.278s.161 1.619 2.21 7.571c2.049 5.953 2.919 7.328 2.919 7.328z" transform="matrix(1.00722 -.78183 .78182 1.00724 -91.662 98.078)"/>
        <path fill="#fea" d="M62.68 222.84l4.729-7.57s-1.757-.284-8.943-4.773c-7.184-4.49-8.213-5.945-8.213-5.945l-4.727 7.569s1.47 1.484 8.324 5.765c6.851 4.281 8.83 4.955 8.83 4.955z"/>
        <path fill="url(#linearGradient1156)" stroke="#000" stroke-linejoin="round" stroke-miterlimit="10" d="M35.625 151.519l6.57-2.416s-.952-1.021-3.245-7.258c-2.292-6.236-2.229-7.633-2.229-7.633l-6.569 2.416s.197 1.626 2.385 7.575c2.186 5.947 3.088 7.316 3.088 7.316z" transform="matrix(1.00722 -.78183 .78182 1.00724 -91.662 98.078)"/>
    </g>
    <g stroke-width=".784">
        <path fill="#abc837" stroke="#000" stroke-linejoin="round" stroke-miterlimit="10" d="M207.011 103.37h43.239v10.5h-43.239zm38.735 1.592c-.183.667.271 1.218.944 1.218.673 0 1.311-.55 1.493-1.217.182-.667-.16-1.196-.833-1.196-.673 0-1.421.528-1.604 1.195zm-5.434 0c-.183.667.27 1.218.942 1.218.672 0 1.313-.551 1.495-1.218.182-.667-.16-1.194-.833-1.194-.673 0-1.422.527-1.604 1.194zm-5.431 0c-.183.667.271 1.217.943 1.217.672 0 1.311-.551 1.493-1.218.182-.667-.16-1.194-.833-1.194-.673 0-1.421.529-1.603 1.195zm-5.436 0c-.183.667.271 1.218.944 1.218.673 0 1.311-.55 1.493-1.217.182-.667-.16-1.195-.833-1.195-.673 0-1.421.527-1.604 1.194zm-5.431.001c-.183.667.271 1.217.943 1.217.672 0 1.312-.551 1.494-1.218.182-.667-.16-1.194-.833-1.194-.673 0-1.422.528-1.604 1.195zm-5.435-.001c-.183.667.27 1.218.942 1.218.672 0 1.313-.55 1.495-1.217.182-.667-.16-1.195-.833-1.195-.673 0-1.421.527-1.604 1.194zm-5.432 0c-.183.667.272 1.218.945 1.218.673 0 1.31-.551 1.492-1.218.182-.667-.16-1.194-.833-1.194-.673 0-1.421.527-1.604 1.194zm-5.436 0c-.183.667.274 1.218.947 1.218.673 0 1.308-.551 1.49-1.218.182-.667-.158-1.194-.831-1.194-.673 0-1.423.527-1.606 1.194zm38.035 7.316c.183.667.932 1.194 1.604 1.194s1.016-.527.833-1.194c-.183-.667-.82-1.217-1.493-1.217-.673 0-1.127.551-.944 1.217zm-5.434.001c.183.667.932 1.194 1.604 1.194s1.016-.528.833-1.194c-.183-.666-.822-1.217-1.495-1.217-.673 0-1.125.55-.942 1.217zm-5.431-.001c.183.667.931 1.195 1.604 1.195s1.016-.53.833-1.196c-.183-.666-.82-1.216-1.493-1.216-.673 0-1.127.551-.944 1.217zm-5.436 0c.183.667.932 1.195 1.604 1.195s1.016-.529.833-1.195c-.183-.666-.82-1.217-1.493-1.217-.673 0-1.126.551-.944 1.217zm-5.431 0c.183.667.932 1.195 1.604 1.195s1.016-.528.833-1.195c-.183-.667-.821-1.217-1.494-1.217s-1.126.551-.943 1.217zm-5.435 0c.183.667.932 1.195 1.604 1.195s1.016-.529.833-1.195c-.183-.666-.822-1.217-1.495-1.217-.673 0-1.125.551-.942 1.217zm-5.432 0c.183.667.932 1.195 1.604 1.195s1.016-.528.833-1.195c-.183-.667-.819-1.217-1.492-1.217s-1.127.551-.945 1.217zm-5.436 0c.183.667.934 1.195 1.606 1.195s1.014-.528.831-1.195c-.183-.667-.817-1.217-1.49-1.217s-1.13.551-.947 1.217z" transform="matrix(1.00722 -.78183 .78182 1.00724 -91.662 98.078)"/>
        <path fill="#dde9af" d="M250.001 13.02l-46.413 36.028-4.676-6.023 46.414-36.027s.92.135 2.845 2.617c1.927 2.482 1.83 3.406 1.83 3.406z"/>
        <path fill="url(#linearGradient1187)" stroke="#000" stroke-linejoin="round" stroke-miterlimit="10" d="M252.581 111.61H206.5v-5.98h46.081s.504.526.504 2.99c0 2.464-.504 2.99-.504 2.99z" transform="matrix(1.00722 -.78183 .78182 1.00724 -91.662 98.078)"/>
        <path fill="#cdde87" stroke="#000" stroke-miterlimit="10" d="M205.224 103.37h45.026s1.5.625 1.5 5.25-1.5 5.25-1.5 5.25h-45.026zm4.686.397c-.673 0-1.016.53-.833 1.196.183.666.82 1.217 1.493 1.217.673 0 1.127-.551.944-1.218-.183-.667-.931-1.195-1.604-1.195zm5.435.001c-.673 0-1.016.528-.833 1.194.183.666.822 1.218 1.495 1.218.673 0 1.125-.551.942-1.218-.183-.667-.931-1.194-1.604-1.194zm5.431 0c-.673 0-1.016.528-.833 1.194.183.666.82 1.218 1.493 1.218.673 0 1.126-.551.943-1.217-.183-.666-.93-1.195-1.603-1.195zm5.435 0c-.673 0-1.016.528-.833 1.195.183.667.82 1.217 1.493 1.217.673 0 1.127-.551.944-1.218-.183-.667-.931-1.194-1.604-1.194zm5.432 0c-.673 0-1.016.528-.833 1.194.183.666.821 1.218 1.494 1.218s1.126-.55.943-1.217c-.183-.667-.932-1.195-1.604-1.195zm5.434 0c-.673 0-1.016.529-.833 1.195.183.666.822 1.217 1.495 1.217.673 0 1.125-.551.942-1.218-.183-.667-.931-1.194-1.604-1.194zm5.432 0c-.673 0-1.016.528-.833 1.194.183.666.819 1.218 1.492 1.218s1.128-.551.945-1.218c-.183-.667-.931-1.194-1.604-1.194zm5.434 0c-.673 0-1.014.528-.831 1.194.183.666.817 1.218 1.49 1.218s1.13-.551.947-1.218c-.183-.667-.933-1.194-1.606-1.194zm-34.49 3.708c-.673 0-1.167.555-1.172 1.24-.005.685.481 1.239 1.154 1.239.673 0 1.278-.554 1.283-1.239.005-.685-.592-1.24-1.265-1.24zm5.432 0c-.673 0-1.167.555-1.172 1.24-.005.685.481 1.24 1.154 1.24.673 0 1.278-.555 1.283-1.24.005-.685-.592-1.24-1.265-1.24zm5.434.001c-.673 0-1.167.554-1.172 1.239-.005.685.481 1.239 1.154 1.239.673 0 1.278-.554 1.283-1.239.005-.685-.592-1.239-1.265-1.239zm5.432-.001c-.673 0-1.167.555-1.172 1.24-.005.685.481 1.239 1.154 1.239.673 0 1.278-.554 1.283-1.239.005-.685-.592-1.24-1.265-1.24zm5.435 0c-.673 0-1.167.555-1.172 1.24-.005.685.481 1.239 1.154 1.239.673 0 1.278-.554 1.283-1.239.005-.685-.593-1.24-1.265-1.24zm5.431.001c-.673 0-1.167.554-1.172 1.239-.005.685.481 1.239 1.154 1.239.673 0 1.278-.553 1.283-1.238.005-.685-.592-1.24-1.265-1.24zm5.435-.001c-.673 0-1.167.555-1.172 1.24-.005.685.481 1.239 1.154 1.239.673 0 1.278-.554 1.283-1.239.005-.685-.592-1.24-1.265-1.24zm-35.482 3.586c-.673 0-1.311.55-1.493 1.217-.182.667.16 1.194.833 1.194.673 0 1.422-.527 1.604-1.194.182-.667-.271-1.217-.944-1.217zm5.437-.001c-.673 0-1.313.551-1.495 1.217-.182.666.16 1.194.833 1.194.673 0 1.422-.527 1.604-1.194.182-.667-.269-1.217-.942-1.217zm5.43.001c-.673 0-1.311.549-1.493 1.216-.182.667.16 1.196.833 1.196.673 0 1.421-.529 1.604-1.195.183-.666-.272-1.217-.944-1.217zm5.434 0c-.673 0-1.311.55-1.493 1.217-.182.667.16 1.195.833 1.195.673 0 1.422-.529 1.604-1.195.182-.666-.271-1.217-.944-1.217zm5.433-.001c-.673 0-1.312.551-1.494 1.217-.182.666.16 1.195.833 1.195.673 0 1.422-.528 1.604-1.195.182-.667-.27-1.217-.943-1.217zm5.435.001c-.673 0-1.313.55-1.495 1.217-.182.667.16 1.195.833 1.195.673 0 1.422-.529 1.604-1.195.182-.666-.269-1.217-.942-1.217zm5.429-.001c-.673 0-1.31.551-1.492 1.217-.182.666.16 1.195.833 1.195.673 0 1.422-.528 1.604-1.195.182-.667-.272-1.217-.945-1.217zm5.435.001c-.673 0-1.308.55-1.49 1.217-.182.667.158 1.195.831 1.195.673 0 1.424-.528 1.606-1.195.182-.667-.275-1.217-.947-1.217z" transform="matrix(1.00722 -.78183 .78182 1.00724 -91.662 98.078)"/>
        <path fill="url(#linearGradient1212)" stroke="#000" stroke-miterlimit="10" d="M205.224 103.37h45.026s1.5.625 1.5 5.25-1.5 5.25-1.5 5.25h-45.026zm4.686.397c-.673 0-1.016.53-.833 1.196.183.666.82 1.217 1.493 1.217.673 0 1.127-.551.944-1.218-.183-.667-.931-1.195-1.604-1.195zm5.435.001c-.673 0-1.016.528-.833 1.194.183.666.822 1.218 1.495 1.218.673 0 1.125-.551.942-1.218-.183-.667-.931-1.194-1.604-1.194zm5.431 0c-.673 0-1.016.528-.833 1.194.183.666.82 1.218 1.493 1.218.673 0 1.126-.551.943-1.217-.183-.666-.93-1.195-1.603-1.195zm5.435 0c-.673 0-1.016.528-.833 1.195.183.667.82 1.217 1.493 1.217.673 0 1.127-.551.944-1.218-.183-.667-.931-1.194-1.604-1.194zm5.432 0c-.673 0-1.016.528-.833 1.194.183.666.821 1.218 1.494 1.218s1.126-.55.943-1.217c-.183-.667-.932-1.195-1.604-1.195zm5.434 0c-.673 0-1.016.529-.833 1.195.183.666.822 1.217 1.495 1.217.673 0 1.125-.551.942-1.218-.183-.667-.931-1.194-1.604-1.194zm5.432 0c-.673 0-1.016.528-.833 1.194.183.666.819 1.218 1.492 1.218s1.128-.551.945-1.218c-.183-.667-.931-1.194-1.604-1.194zm5.434 0c-.673 0-1.014.528-.831 1.194.183.666.817 1.218 1.49 1.218s1.13-.551.947-1.218c-.183-.667-.933-1.194-1.606-1.194zm-34.49 3.708c-.673 0-1.167.555-1.172 1.24-.005.685.481 1.239 1.154 1.239.673 0 1.278-.554 1.283-1.239.005-.685-.592-1.24-1.265-1.24zm5.432 0c-.673 0-1.167.555-1.172 1.24-.005.685.481 1.24 1.154 1.24.673 0 1.278-.555 1.283-1.24.005-.685-.592-1.24-1.265-1.24zm5.434.001c-.673 0-1.167.554-1.172 1.239-.005.685.481 1.239 1.154 1.239.673 0 1.278-.554 1.283-1.239.005-.685-.592-1.239-1.265-1.239zm5.432-.001c-.673 0-1.167.555-1.172 1.24-.005.685.481 1.239 1.154 1.239.673 0 1.278-.554 1.283-1.239.005-.685-.592-1.24-1.265-1.24zm5.435 0c-.673 0-1.167.555-1.172 1.24-.005.685.481 1.239 1.154 1.239.673 0 1.278-.554 1.283-1.239.005-.685-.593-1.24-1.265-1.24zm5.431.001c-.673 0-1.167.554-1.172 1.239-.005.685.481 1.239 1.154 1.239.673 0 1.278-.553 1.283-1.238.005-.685-.592-1.24-1.265-1.24zm5.435-.001c-.673 0-1.167.555-1.172 1.24-.005.685.481 1.239 1.154 1.239.673 0 1.278-.554 1.283-1.239.005-.685-.592-1.24-1.265-1.24zm-35.482 3.586c-.673 0-1.311.55-1.493 1.217-.182.667.16 1.194.833 1.194.673 0 1.422-.527 1.604-1.194.182-.667-.271-1.217-.944-1.217zm5.437-.001c-.673 0-1.313.551-1.495 1.217-.182.666.16 1.194.833 1.194.673 0 1.422-.527 1.604-1.194.182-.667-.269-1.217-.942-1.217zm5.43.001c-.673 0-1.311.549-1.493 1.216-.182.667.16 1.196.833 1.196.673 0 1.421-.529 1.604-1.195.183-.666-.272-1.217-.944-1.217zm5.434 0c-.673 0-1.311.55-1.493 1.217-.182.667.16 1.195.833 1.195.673 0 1.422-.529 1.604-1.195.182-.666-.271-1.217-.944-1.217zm5.433-.001c-.673 0-1.312.551-1.494 1.217-.182.666.16 1.195.833 1.195.673 0 1.422-.528 1.604-1.195.182-.667-.27-1.217-.943-1.217zm5.435.001c-.673 0-1.313.55-1.495 1.217-.182.667.16 1.195.833 1.195.673 0 1.422-.529 1.604-1.195.182-.666-.269-1.217-.942-1.217zm5.429-.001c-.673 0-1.31.551-1.492 1.217-.182.666.16 1.195.833 1.195.673 0 1.422-.528 1.604-1.195.182-.667-.272-1.217-.945-1.217zm5.435.001c-.673 0-1.308.55-1.49 1.217-.182.667.158 1.195.831 1.195.673 0 1.424-.528 1.606-1.195.182-.667-.275-1.217-.947-1.217z" transform="matrix(1.00722 -.78183 .78182 1.00724 -91.662 98.078)"/>
    </g>
    <g stroke-width=".784">
        <path fill="#ff8080" d="M191.41 87.825l10.644-8.261 40.872 52.656-10.644 8.262z"/>
        <path fill="url(#linearGradient1235)" stroke="#000" stroke-linecap="round" stroke-linejoin="round" stroke-miterlimit="10" d="M180.308 129.778h10.567v52.278h-10.567z" transform="matrix(1.00722 -.78183 .78182 1.00724 -91.662 98.078)"/>
        <path fill="#ff8080" stroke="#000" stroke-linecap="round" stroke-linejoin="round" stroke-miterlimit="10" d="M180.308 182.057h10.567v1.215h-11.129z" transform="matrix(1.00722 -.78183 .78182 1.00724 -91.662 98.078)"/>
        <path fill="#faa" d="M228.145 128.348a.638.638 0 0 1-.894-.113l-33.048-42.577a.638.638 0 0 1 1.007-.782l33.048 42.577a.638.638 0 0 1-.113.895zM231.35 125.86a.638.638 0 0 1-.895-.112L197.407 83.17a.638.638 0 0 1 1.007-.782l33.048 42.577a.638.638 0 0 1-.113.895z"/>
        <path fill="url(#linearGradient1270)" stroke="#000" stroke-miterlimit="10" stroke-width=".392" d="M183.58 172.549a.5.5 0 0 1-.5-.5v-42.271a.5.5 0 0 1 1 0v42.271a.5.5 0 0 1-.5.5z" transform="matrix(1.00722 -.78183 .78182 1.00724 -91.662 98.078)"/>
        <path fill="url(#linearGradient1272)" stroke="#000" stroke-miterlimit="10" stroke-width=".392" d="M186.761 172.549a.5.5 0 0 1-.5-.5v-42.271a.5.5 0 0 1 1 0v42.271a.5.5 0 0 1-.5.5z" transform="matrix(1.00722 -.78183 .78182 1.00724 -91.662 98.078)"/>
        <path fill="#ff8080" d="M191.41 87.825l-1.4 1.088 39.782 51.253 2.491.317z"/>
        <path fill="url(#linearGradient1295)" stroke="#000" stroke-linecap="round" stroke-linejoin="round" stroke-miterlimit="10" d="M180.308 129.778h-1.391v50.885l1.391 1.394z" transform="matrix(1.00722 -.78183 .78182 1.00724 -91.662 98.078)"/>
        <path fill="#ff8080" stroke="#000" stroke-linecap="round" stroke-linejoin="round" stroke-miterlimit="10" d="M178.917 180.663l-.706.887 1.535 1.722.562-1.215z" transform="matrix(1.00722 -.78183 .78182 1.00724 -91.662 98.078)"/>
    </g>
    <g>
        <path fill="#ffb380" d="M98.9 116.663l97.658-75.804s1.224-.95 5.496 4.554c4.272 5.503 3.047 6.452 3.047 6.452l-97.658 75.805s-.38.16-4.485-5.127c-4.104-5.288-4.058-5.88-4.058-5.88z"/>
        <path fill="url(#linearGradient1318)" stroke="#000" stroke-miterlimit="10" d="M98.9 116.663l97.658-75.804s1.224-.95 5.496 4.554c4.272 5.503 3.047 6.452 3.047 6.452l-97.658 75.805s-.38.16-4.485-5.127c-4.104-5.288-4.058-5.88-4.058-5.88z"/>
        <path fill="#fca" d="M111.47 142.907l19.934-15.473-1.663-2.142c-.748-.966-1.104-1.767.953-3.363l8.352-6.483c1.846-1.433 1.32-2.37.083-3.965l-3.616-4.659 8.267-6.417-.88-1.133-40.782 31.588 9.352 12.047z"/>
        <path fill="url(#linearGradient1343)" stroke="#000" stroke-miterlimit="10" d="M111.47 142.907l19.934-15.473-1.663-2.142c-.748-.966-1.104-1.767.953-3.363l8.352-6.483c1.846-1.433 1.32-2.37.083-3.965l-3.616-4.659 8.267-6.417-.88-1.133-40.782 31.588 9.352 12.047z"/>
        <path fill="#ff7f2a" stroke="#000" stroke-linejoin="round" stroke-miterlimit="10" d="M96.463 118.636l-.503.39 9.807 12.635-.256.199-6.78-6.577-4.165-7.524c0-.001 1.27.153 1.897.877z"/>
        <path fill="#fca" d="M89.95 121.34l4.617-3.582s.018.794 5.099 7.34c5.08 6.546 5.846 6.761 5.846 6.761l-2.01 1.56s-1.412-1.125-7.138-8.582l-3.144 2.44c-2.79-3.42-3.27-5.936-3.27-5.936z"/>
        <path fill="url(#linearGradient1369)" stroke="#000" stroke-linejoin="round" stroke-miterlimit="10" d="M89.95 121.34l4.617-3.582s.018.794 5.099 7.34c5.08 6.546 5.846 6.761 5.846 6.761l-2.01 1.56s-1.412-1.125-7.138-8.582l-3.144 2.44c-2.79-3.42-3.27-5.936-3.27-5.936z"/>
        <path fill="#fca" d="M98.9 116.663l-2.81 2.18s.186 1.118 3.95 5.965c3.762 4.848 6.096 6.768 6.096 6.768l2.708-2.102s-2.465-2.525-5.886-6.931c-3.42-4.407-4.058-5.88-4.058-5.88z"/>
        <path fill="url(#linearGradient1371)" stroke="#000" stroke-linejoin="round" stroke-miterlimit="10" d="M98.9 116.663l-2.81 2.18s.186 1.118 3.95 5.965c3.762 4.848 6.096 6.768 6.096 6.768l2.708-2.102s-2.465-2.525-5.886-6.931c-3.42-4.407-4.058-5.88-4.058-5.88z"/>
        <path fill="#ffb380" d="M128.084 145.813c.055.462-.975-.152-1.792-1.333-.817-1.182-5.464-9.444-5.464-9.444l-3.746 2.908s9.073 9.87 10.542 8.578c1.468-1.292.46-.709.46-.709z"/>
        <path fill="url(#linearGradient1394)" stroke="#000" stroke-miterlimit="10" d="M128.084 145.813c.055.462-.975-.152-1.792-1.333-.817-1.182-5.464-9.444-5.464-9.444l-3.746 2.908s9.073 9.87 10.542 8.578c1.468-1.292.46-.709.46-.709z"/>
        <path fill="#f95" stroke="#000" stroke-linejoin="round" stroke-miterlimit="10" d="M129.224 128.52c1.133-.879 1.552-.599 2.985 1.248l5.245 6.756c.586.756.878 2.345-.811 3.722l-10.785 8.372c-1.72 1.335-2.8.763-4.1-.516l-6.678-8.604 14.143-10.978zm-14.927 11.318l6.319 8.14c2.118 2.729 3.973 2.904 5.736 1.536l10.576-8.209c2.075-1.612 2.911-3.267 1.575-4.989l-6.58-8.477c-.685-.882-.945-.955-1.57-.464z"/>
        <path fill="#fca" d="M127.862 127.554c-.61-.872 5.877 4.45 13.85-1.739 5.007-3.886 5.726-6.727 5.726-6.727l18.675-38.91-22.914 17.787 1.236 1.593-23.903 18.553z"/>
        <path fill="url(#linearGradient1417)" stroke="#000" stroke-linejoin="round" stroke-miterlimit="10" d="M127.862 127.554c-.61-.872 5.877 4.45 13.85-1.739 5.007-3.886 5.726-6.727 5.726-6.727l18.675-38.91-22.914 17.787 1.236 1.593-23.903 18.553z"/>
        <path fill="#ffe6d5" d="M134.256 107.459l8.73-6.776s-2.207-2.323-3.718-1.15l-4.491 3.486c-1.175.912-.521 4.44-.521 4.44z"/>
        <path fill="url(#linearGradient1440)" stroke="#000" stroke-linejoin="round" stroke-miterlimit="10" d="M134.256 107.459l8.73-6.776s-2.207-2.323-3.718-1.15l-4.491 3.486c-1.175.912-.521 4.44-.521 4.44z"/>
        <ellipse cx="32.683" cy="170.505" fill="#f95" stroke="#000" stroke-miterlimit="10" rx="2.604" ry="2.604" transform="rotate(-37.819) skewX(-.001)"/>
        <ellipse cx="13.569" cy="175.274" fill="#f95" stroke="#000" stroke-miterlimit="10" rx="1.659" ry="1.659" transform="rotate(-37.819) skewX(-.001)"/>
        <ellipse cx="57.277" cy="172.045" fill="#f95" stroke="#000" stroke-miterlimit="10" rx="2.709" ry="2.709" transform="rotate(-37.819) skewX(-.001)"/>
        <path fill="#ffb380" stroke="#000" stroke-linejoin="round" stroke-miterlimit="10" d="M.432 145.163h1.886v4.303H.432z" transform="rotate(-37.819) skewX(-.001)"/>
        <path fill="#ffb380" stroke="#000" stroke-linejoin="round" stroke-miterlimit="10" d="M92.222 119.578c.42-.326-.232-1.772-.232-1.772l1.49-1.156 1.088 1.107z"/>
        <path fill="#f95" d="M120.555 99.854c.189.307-1.802 2.358-1.802 2.358-.602.719.286.888.98.35L149.57 79.4s4.499-3.693 5.55-2.34c1.05 1.355-3.547 4.921-3.547 4.921l-41.233 32.006s-2.403 2.168-3.43.846c-1.025-1.321 1.621-3.175 1.621-3.175l4.91-3.812c2.162-1.678.652-2.976.652-2.976z"/>
        <path fill="#fca" stroke="#231f20" stroke-linecap="round" stroke-miterlimit="10" stroke-width=".5" d="M111.029 110.844a3.614 3.614 0 0 0-.887-.434l-.335.26c.081.174.073.379-.06.521a.584.584 0 0 0-.018.106c.127.017.366.084.78.352.91.586 1.269 1.07 1.27 1.073.025.034.058.057.087.083l.727-.564c-.011-.023-.017-.049-.033-.071-.046-.065-.469-.639-1.532-1.326zM115.343 107.494c-.446-.288-.8-.43-1.08-.488-.03.045-.065.09-.099.133a.085.085 0 0 1 .02.018.48.48 0 0 1-.031.613.697.697 0 0 0-.022.19c.144.037.368.126.693.337.91.586 1.27 1.071 1.27 1.073.025.034.058.057.088.082l.726-.563c-.012-.023-.017-.049-.032-.072-.047-.062-.47-.636-1.534-1.322zM119.88 103.973c-1.15-.741-1.686-.523-1.91-.366a.478.478 0 0 1 .628.711.551.551 0 0 0-.019.105c.127.017.365.083.782.352.909.587 1.268 1.07 1.27 1.073.024.034.057.057.087.082l.725-.563c-.01-.024-.016-.049-.032-.07-.045-.062-.468-.638-1.532-1.324zM124.333 100.516c-.569-.367-1.004-.486-1.318-.502l-.122.095c.073.032.14.075.191.142a.479.479 0 0 1-.032.612.552.552 0 0 0-.02.106c.127.017.366.082.781.35.91.588 1.267 1.072 1.27 1.074.024.034.056.057.087.082l.726-.564c-.01-.023-.015-.05-.03-.071-.048-.062-.47-.638-1.535-1.324zM128.841 97.017c-.57-.367-.994-.495-1.303-.514l-.137.106c.073.033.14.076.19.143a.479.479 0 0 1-.032.612.564.564 0 0 0-.02.106c.128.017.367.082.782.351.909.587 1.267 1.071 1.268 1.073.025.034.058.057.088.082l.727-.563c-.01-.024-.016-.05-.031-.072-.046-.063-.47-.638-1.534-1.324zM133.424 93.46c-.57-.367-1.002-.488-1.314-.506l-.126.098a.46.46 0 0 1 .191.142.479.479 0 0 1-.032.612.564.564 0 0 0-.02.106c.127.017.366.083.781.351.91.587 1.268 1.071 1.27 1.073.024.034.056.057.087.082l.726-.563c-.011-.024-.015-.05-.03-.072-.048-.061-.471-.637-1.535-1.324zM137.877 90.003c-.57-.367-.994-.495-1.303-.514l-.127.099c.073.032.14.075.191.142a.479.479 0 0 1-.032.612.782.782 0 0 0-.019.116c.13.02.366.087.772.348.91.587 1.268 1.071 1.27 1.073.024.034.057.057.087.082l.726-.563c-.009-.024-.015-.05-.03-.072-.05-.06-.472-.636-1.536-1.323zM142.269 86.594c-.57-.367-1.002-.487-1.316-.503l-.123.095a.47.47 0 0 1 .19.143.48.48 0 0 1-.03.611.516.516 0 0 0-.019.107c.127.017.366.083.781.351.91.587 1.267 1.071 1.269 1.073.025.034.057.057.088.082l.726-.564c-.012-.023-.016-.049-.031-.07-.047-.063-.47-.638-1.535-1.325zM146.707 83.149c-.569-.367-1.001-.488-1.316-.504l-.122.095c.072.033.14.076.19.143a.48.48 0 0 1-.03.612.506.506 0 0 0-.019.107c.127.017.367.083.781.35.91.588 1.267 1.072 1.269 1.074.025.034.057.057.088.082l.726-.564c-.01-.024-.015-.05-.031-.071-.047-.063-.47-.637-1.534-1.324zM149.987 80.603c-.57-.367-.995-.495-1.303-.514l-.137.107c.072.032.14.075.19.143a.479.479 0 0 1-.032.612.554.554 0 0 0-.02.105c.127.018.366.083.781.351.91.588 1.268 1.072 1.27 1.074.024.034.057.057.087.081l.726-.563c-.009-.024-.015-.05-.03-.071-.047-.063-.47-.638-1.534-1.325z"/>
        <path fill="#fca" stroke="#231f20" stroke-linecap="round" stroke-miterlimit="10" stroke-width=".5" d="M148.836 81.899c-.152-.457-.162-.712-.15-.843a.473.473 0 0 1 .02-.106.478.478 0 0 0 .032-.612.472.472 0 0 0-.19-.143l-.793.616c-.059.303-.04.745.175 1.39.401 1.202.854 1.754.903 1.814.017.02.04.032.061.048l.725-.563c-.016-.035-.029-.072-.054-.103-.005-.006-.384-.472-.727-1.498zM145.557 84.443c-.15-.456-.162-.71-.148-.842a.611.611 0 0 1 .018-.106.477.477 0 0 0 .03-.612.472.472 0 0 0-.19-.143l-.792.616c-.058.303-.04.745.176 1.39.4 1.201.852 1.753.902 1.813.017.02.04.033.061.049l.726-.563c-.017-.036-.029-.072-.055-.103-.005-.004-.385-.472-.729-1.499zM141.118 87.89c-.152-.457-.162-.712-.15-.843a.631.631 0 0 1 .018-.107.477.477 0 0 0 .031-.611.473.473 0 0 0-.19-.143l-.793.615c-.06.304-.04.746.175 1.391.4 1.201.854 1.754.903 1.814.017.02.04.032.06.048l.726-.563c-.017-.036-.029-.073-.054-.103-.004-.006-.384-.472-.727-1.499zM136.737 91.29c-.149-.448-.162-.7-.15-.833a.602.602 0 0 1 .02-.116.478.478 0 0 0 .032-.612.458.458 0 0 0-.191-.142l-.793.615c-.058.303-.04.746.175 1.39.402 1.202.855 1.754.903 1.815.018.02.041.031.062.047l.725-.563c-.017-.035-.03-.072-.054-.103-.005-.004-.385-.47-.728-1.498zM132.273 94.755c-.151-.457-.162-.712-.149-.843a.47.47 0 0 1 .02-.106.478.478 0 0 0 .032-.612.459.459 0 0 0-.191-.142l-.793.615c-.059.304-.04.746.175 1.391.402 1.201.855 1.753.903 1.814.018.02.041.031.061.048l.726-.563c-.017-.036-.03-.073-.054-.104-.005-.003-.384-.472-.728-1.498zM127.69 98.312c-.151-.457-.162-.712-.149-.843a.472.472 0 0 1 .02-.105.478.478 0 0 0 .032-.613.47.47 0 0 0-.19-.142l-.78.605c-.063.31-.052.758.163 1.4.4 1.201.854 1.754.902 1.814.018.02.04.032.062.048l.725-.563c-.017-.035-.03-.073-.054-.103-.005-.004-.385-.471-.729-1.498zM123.183 101.811c-.152-.457-.162-.712-.15-.843a.474.474 0 0 1 .02-.106.478.478 0 0 0 .032-.612.458.458 0 0 0-.19-.142l-.793.615c-.059.304-.04.746.175 1.39.401 1.202.854 1.754.903 1.815.018.02.04.031.061.047l.725-.562c-.016-.036-.029-.073-.054-.104-.005-.004-.385-.47-.727-1.498zM118.729 105.268c-.152-.456-.162-.712-.15-.843a.458.458 0 0 1 .02-.105.477.477 0 0 0-.627-.712c-.001.002-.006.005-.01.003l-.003.005a.12.12 0 0 1-.02.018c-.192.175-.543.65-.115 1.936.4 1.2.854 1.753.903 1.813.018.02.041.032.06.049l.726-.563c-.018-.035-.03-.072-.055-.103-.004-.006-.382-.473-.726-1.5zM114.283 108.72c-.126-.38-.152-.612-.15-.759 0-.101.012-.169.02-.19a.478.478 0 0 0 .033-.612c-.008-.005-.014-.013-.02-.018a3.984 3.984 0 0 1-.722.707l-.266.207c.013.257.066.57.198.969.402 1.2.855 1.753.904 1.813.018.02.041.031.06.049l.726-.563c-.018-.035-.03-.072-.056-.103-.004-.008-.383-.474-.726-1.5zM109.878 112.139c-.153-.456-.162-.712-.15-.843a.53.53 0 0 1 .018-.106c.133-.141.142-.345.06-.521l-1.03.8c.01.26.063.573.195.972.401 1.201.854 1.753.904 1.813.02.024.046.037.07.056.244-.185.396-.322.396-.322l.32-.248c-.018-.035-.03-.072-.056-.103-.004-.005-.384-.471-.727-1.498z"/>
        <path fill="none" stroke="#000" stroke-miterlimit="10" d="M120.555 99.854c.189.307-1.802 2.358-1.802 2.358-.602.719.286.888.98.35L149.57 79.4s4.499-3.693 5.55-2.34c1.05 1.355-3.547 4.921-3.547 4.921l-41.233 32.006s-2.403 2.168-3.43.846c-1.025-1.321 1.621-3.175 1.621-3.175l4.91-3.812c2.162-1.678.652-2.976.652-2.976z"/>
        <path fill="#ffb380" stroke="#000" stroke-miterlimit="10" d="M151.884 81.731c.638-.524 2.12-1.8 2.897-2.96l-1.38-1.78c-1.295.495-2.866 1.655-3.518 2.162z"/>
        <ellipse cx="71.954" cy="154.554" fill="#f95" stroke="#000" stroke-miterlimit="10" rx="2.973" ry="1.913" transform="rotate(-37.819) skewX(-.001)"/>
        <path fill="#ffb380" d="M150.31 79.38s.637.819 2.273-.452c1.637-1.27 1.001-2.089 1.001-2.089l-3.072-3.568-2.582 2.004z"/>
        <path fill="url(#linearGradient1463)" stroke="#000" stroke-linejoin="round" stroke-miterlimit="10" d="M150.31 79.38s.637.819 2.273-.452c1.637-1.27 1.001-2.089 1.001-2.089l-3.072-3.568-2.582 2.004z"/>
        <ellipse cx="72.338" cy="150.172" fill="#fca" stroke="#000" stroke-miterlimit="10" rx="1.633" ry="1.196" transform="rotate(-37.819) skewX(-.001)"/>
        <path fill="#ffb380" stroke="#000" stroke-linejoin="round" stroke-miterlimit="10" stroke-width=".784" d="M204.938 101.047l.572-2.109.573 4.218h-1.145z" transform="matrix(1.00722 -.78183 .78182 1.00724 -91.662 98.078)"/>
        <path fill="#ffb380" stroke="#000" stroke-linejoin="round" stroke-miterlimit="10" stroke-width=".784" d="M206.5 103.156l-.417-4.218h-.573l.573 4.218z" transform="matrix(1.00722 -.78183 .78182 1.00724 -91.662 98.078)"/>
        <path fill="none" stroke="#000" stroke-miterlimit="10" d="M193.642 43.122s.703-.006 4.713 5.162c4.011 5.167 3.83 5.845 3.83 5.845"/>
        <ellipse cx="124.017" cy="162.883" fill="#fca" stroke="#000" stroke-miterlimit="10" rx="3.068" ry="2.63" transform="rotate(-37.819) skewX(-.001)"/>
        <path fill="none" stroke="#000" stroke-miterlimit="10" d="M195.405 41.754s.576-.447 4.848 5.057c4.272 5.503 3.695 5.95 3.695 5.95M197.468 49.941s.427.477.176 2.434c-.25 1.957-.868 2.98-.868 2.98.453.106.947.087 1.435-.041 0 0 .372-.292.673-2.64.301-2.35.019-2.776.019-2.776a2.973 2.973 0 0 0-1.436.043z"/>
        <path fill="#ffb380" d="M177.885 71.04l11.796-9.107 12.907 16.628s.226 1.982-1.033 2.959l-9.695 7.525z"/>
        <path fill="url(#linearGradient1501)" stroke="#000" stroke-linejoin="round" stroke-miterlimit="10" d="M177.885 71.04l11.796-9.107 12.907 16.628s.226 1.982-1.033 2.959l-9.695 7.525z"/>
        <path fill="#ffb380" d="M178.036 74.354c1.378-.564-.15-3.313-.15-3.313l13.974 18.004-2.195.291z"/>
        <path fill="url(#linearGradient1524)" stroke="#000" stroke-linejoin="round" stroke-miterlimit="10" d="M178.036 74.354c1.378-.564-.15-3.313-.15-3.313l13.974 18.004-2.195.291z"/>
        <path fill="#ffb380" stroke="#000" stroke-miterlimit="10" d="M185.42 85.772l1.93-1.499 2.493 3.211-1.93 1.499s-.295.228-1.54-1.377c-1.247-1.606-.953-1.834-.953-1.834z"/>
        <path fill="#ff7f2a" stroke="#000" stroke-linejoin="round" stroke-miterlimit="10" d="M98.158 167.901h2.152v8.688h-2.152z" transform="rotate(-37.819) skewX(-.001)"/>
        <path fill="#fca" d="M177.09 76.903l1.435-1.92 1.511-1.173 2.083-1.215 3.519 4.532-2.267 1.76s-1.23.754.236 2.643l5.23 6.736-.536.415-5.303-6.778c-1.502-1.86-2.363-.435-2.363-.435l-3.544-4.566z"/>
        <path fill="url(#linearGradient1553)" stroke="#000" stroke-linejoin="round" stroke-miterlimit="10" d="M177.09 76.903l1.435-1.92 1.511-1.173 2.083-1.215 3.519 4.532-2.267 1.76s-1.23.754.236 2.643l5.23 6.736-.536.415-5.303-6.778c-1.502-1.86-2.363-.435-2.363-.435l-3.544-4.566z"/>
        <path fill="#fca" d="M191.547 64.337l2.665-2.068c1.763-1.369 2.335-.199 3.28 1.018 0 0 2.858 3.665 2.997 3.86 1.202 1.689 1.085 6.619 1.521 7.16l1.85 2.297c.668.862 1.055 2.31.718 2.57l-.945.734zm5.347 4.592s.898 1.085 1.863.336c.965-.749.067-1.834.067-1.834l-2.247-2.896s-.847-1.091-1.813-.341-.118 1.84-.118 1.84z"/>
        <path fill="url(#linearGradient1555)" stroke="#000" stroke-miterlimit="10" d="M191.547 64.337l2.665-2.068c1.763-1.369 2.335-.199 3.28 1.018 0 0 2.858 3.665 2.997 3.86 1.202 1.689 1.085 6.619 1.521 7.16l1.85 2.297c.668.862 1.055 2.31.718 2.57l-.945.734zm5.347 4.592s.898 1.085 1.863.336c.965-.749.067-1.834.067-1.834l-2.247-2.896s-.847-1.091-1.813-.341-.118 1.84-.118 1.84z"/>
        <path fill="#fca" d="M178.651 63.578l5.414-4.202c2.144-1.656 4.175.7 4.175.7l1.441 1.857-10.828 8.405s-2.594-4.903-.202-6.76z"/>
        <path fill="url(#linearGradient1557)" stroke="#000" stroke-miterlimit="10" d="M178.651 63.578l5.414-4.202c2.144-1.656 4.175.7 4.175.7l1.441 1.857-10.828 8.405s-2.594-4.903-.202-6.76z"/>
        <path fill="#ff7f2a" stroke="#000" stroke-linejoin="round" stroke-miterlimit="10" d="M179.201 58.677l-12.223 9.488-2.105-2.711L178.597 54.8c1.19 1.447.604 3.876.604 3.876z"/>
    </g>
    <g fill="#ffe6d5" stroke-width=".784">
        <g>
            <path d="M141.451 116.178l.3.038-.012-2.782 1.27.686-1.175-4.299-2.205 3.873 1.404-.349-.706 2.69.305.038-.342 2.712a5.134 5.134 0 0 0 .818.103z"/>
            <path d="M139.796 118.394l.234-1.85-.38-.049.633-2.404-1.744.433 2.175-3.822-1.006.332.363-1.313-3.106-.643 2.677-.585-1.135-1.317a6.113 6.113 0 0 0-3.081 4.57 6.101 6.101 0 0 0 4.37 6.648z"/>
            <path d="M144.23 109.653l-.995-.5.837-.58-1.388.041-.574-.984-.8.812-1.333-.387.665.771-1.084.238 1.184.245-.247.896.615-.203.901-1.58.479 1.754.55.35-.018-.928z"/>
            <path d="M144.29 109.079l2.454 1.231-3.17-.148.024 1.363-.896-.575 1.16 4.244-1.578-.852.011 2.485-.375-.048-.233 1.851c3-.087 5.503-2.34 5.883-5.353a6.119 6.119 0 0 0-1.849-5.191zM141.151 107.833l1.071-1.086.768 1.318 2.617-.08a6.09 6.09 0 0 0-3.346-1.544 6.081 6.081 0 0 0-3.622.664z"/>
        </g>
    </g>
</svg>
